<?xml version="1.0" standalone="no"?>
<!DOCTYPE svg PUBLIC "-//W3C//DTD SVG 20010904//EN"
 "http://www.w3.org/TR/2001/REC-SVG-20010904/DTD/svg10.dtd">
<svg version="1.0" xmlns="http://www.w3.org/2000/svg"
 width="1024.000000pt" height="1024.000000pt" viewBox="0 0 1024.000000 1024.000000"
 preserveAspectRatio="xMidYMid meet">
<metadata>
Created by potrace 1.16, written by Peter Selinger 2001-2019
</metadata>
<g transform="translate(0.000000,1024.000000) scale(0.100000,-0.100000)"
fill="#000000" stroke="none">
<path d="M4676 9203 c-6 -15 -8 -15 -16 -3 -8 13 -10 13 -10 1 0 -8 -3 -11 -7
-8 -3 4 -12 2 -20 -5 -11 -9 -12 -7 -7 8 5 18 5 18 -8 2 -14 -16 -16 -16 -32
0 -14 14 -17 14 -14 2 2 -11 -4 -14 -21 -12 -17 3 -21 0 -15 -10 5 -9 2 -8
-11 2 -11 9 -16 10 -11 3 4 -7 2 -13 -3 -13 -6 0 -11 5 -11 11 0 8 -4 8 -14 0
-7 -6 -22 -8 -31 -4 -13 4 -16 3 -10 -6 6 -10 3 -11 -14 -2 -20 11 -26 8 -21
-14 1 -5 -9 -1 -21 10 l-22 20 13 -24 c6 -13 7 -21 2 -17 -6 3 -12 3 -15 -1
-2 -5 -2 -3 -1 4 2 7 -1 15 -6 18 -6 4 -10 -1 -10 -11 0 -14 -2 -15 -17 -3
-11 10 -14 10 -9 2 4 -8 2 -13 -4 -13 -6 0 -8 -6 -5 -12 4 -7 -1 -4 -9 6 -15
18 -16 18 -16 2 0 -9 -5 -14 -10 -11 -6 4 -7 12 -3 18 4 7 0 6 -10 -2 -17 -14
-24 -26 -9 -17 5 3 9 -1 9 -8 0 -7 -6 -13 -13 -13 -7 0 -11 4 -8 8 2 4 0 10
-6 14 -5 3 -10 2 -10 -4 0 -6 -10 -15 -21 -22 -12 -6 -19 -7 -15 -1 10 17 -22
22 -36 5 -7 -9 -11 -18 -10 -20 2 -3 0 -8 -4 -11 -4 -4 -4 -1 0 6 5 8 0 11
-16 8 -13 -2 -22 -8 -21 -13 1 -5 -7 -9 -18 -9 -19 0 -19 1 -3 13 10 7 13 13
7 13 -7 0 -15 -5 -18 -10 -4 -6 -11 -8 -16 -5 -5 3 -6 -2 -2 -11 5 -13 3 -15
-8 -8 -24 14 -38 13 -32 -3 4 -11 2 -14 -8 -11 -8 3 -13 11 -11 18 3 11 0 11
-12 0 -19 -15 -21 -24 -4 -14 7 4 8 3 4 -5 -6 -9 -11 -9 -22 0 -12 10 -13 9
-8 -6 6 -15 4 -16 -13 -6 -17 9 -24 7 -37 -12 -10 -14 -14 -16 -10 -4 4 9 1
17 -5 17 -6 0 -11 -6 -11 -14 0 -9 -8 -12 -25 -8 -18 3 -25 0 -25 -12 0 -9 -4
-16 -10 -16 -5 0 -7 8 -5 18 3 9 -3 0 -13 -21 -17 -33 -20 -36 -25 -18 -3 14
-1 19 6 14 7 -4 6 1 -2 10 -15 18 -26 23 -16 7 3 -5 1 -10 -4 -10 -6 0 -11 -5
-11 -11 0 -5 5 -7 11 -3 8 4 8 0 0 -15 -13 -24 -26 -29 -17 -6 3 8 1 15 -4 15
-6 0 -10 -5 -10 -11 0 -5 -4 -8 -8 -5 -4 2 -14 1 -22 -5 -11 -6 -11 -9 -2 -10
6 -1 17 -2 22 -3 6 0 9 -5 8 -11 0 -5 -10 -9 -21 -7 -12 2 -17 -1 -13 -7 4 -6
3 -11 -3 -11 -5 0 -11 3 -14 8 -2 4 -2 2 -1 -5 4 -16 -21 -24 -35 -10 -7 7
-12 8 -11 2 6 -30 -1 -38 -15 -19 -15 18 -15 18 -8 0 5 -16 3 -18 -14 -14 -12
3 -20 0 -20 -8 0 -7 5 -10 11 -7 6 4 5 -1 -2 -9 -8 -10 -20 -14 -30 -11 -15 6
-15 4 -4 -9 10 -13 10 -18 1 -24 -8 -4 -9 -3 -5 4 4 7 1 12 -8 12 -9 0 -16 -5
-16 -11 0 -5 -6 -7 -12 -3 -9 5 -8 2 1 -9 12 -15 12 -17 -2 -12 -8 4 -18 2
-22 -4 -3 -6 0 -11 7 -11 8 0 6 -5 -5 -11 -9 -5 -21 -7 -27 -4 -5 3 -14 -4
-20 -15 -6 -11 -15 -18 -19 -16 -4 3 -8 -1 -8 -9 0 -13 3 -13 17 0 9 8 21 15
26 15 4 0 -2 -7 -14 -16 -20 -14 -22 -41 -2 -29 5 3 11 1 14 -4 8 -12 -13 -8
-43 8 -14 8 -21 9 -17 2 4 -6 0 -14 -9 -17 -9 -4 -14 -13 -11 -20 3 -7 1 -16
-5 -19 -5 -4 -9 -3 -8 2 5 28 -3 32 -23 13 -13 -12 -24 -25 -24 -31 -1 -5 -2
-14 -3 -20 0 -5 -5 -8 -10 -5 -5 3 -12 -1 -15 -10 -4 -10 -2 -13 7 -8 8 5 8 2
-2 -9 -7 -9 -18 -14 -24 -10 -6 3 -7 1 -3 -5 4 -7 3 -12 -3 -12 -6 0 -20 -20
-31 -44 -11 -25 -25 -48 -30 -51 -6 -4 -7 -11 -4 -17 4 -6 1 -16 -7 -22 -19
-15 -51 -86 -39 -86 6 0 10 -4 10 -10 0 -5 -7 -7 -15 -3 -9 3 -15 2 -14 -3 4
-15 -20 -64 -31 -64 -5 0 -10 -5 -10 -11 0 -5 6 -7 13 -4 6 4 4 0 -6 -8 -10
-8 -16 -21 -15 -28 2 -8 -2 -13 -9 -12 -8 2 -10 -4 -6 -14 5 -11 3 -14 -6 -8
-11 6 -11 3 0 -16 11 -22 11 -23 -4 -11 -14 12 -16 11 -12 -7 3 -15 0 -18 -12
-14 -12 5 -15 2 -10 -9 3 -10 0 -19 -10 -22 -8 -4 -13 -13 -9 -21 3 -8 1 -17
-5 -20 -5 -4 -7 -10 -4 -15 3 -5 0 -12 -5 -15 -7 -5 -5 -12 7 -20 17 -13 16
-14 -5 -8 -18 4 -21 2 -16 -11 3 -9 1 -23 -5 -30 -8 -10 -9 -16 -2 -21 12 -7
9 -40 -4 -52 -4 -5 -5 -2 -1 5 4 6 2 12 -3 12 -6 0 -11 -9 -11 -20 0 -14 5
-18 18 -13 14 5 14 3 -2 -9 -19 -15 -19 -15 0 -27 18 -11 18 -12 -2 -6 -17 4
-20 1 -20 -25 0 -32 5 -37 23 -19 8 8 13 7 18 -2 5 -7 4 -10 -1 -6 -5 3 -18
-1 -29 -9 -10 -8 -13 -14 -7 -14 7 0 12 -5 12 -11 0 -5 -4 -8 -8 -5 -5 3 -9
-1 -9 -9 0 -8 5 -15 11 -16 6 0 2 -4 -9 -9 -19 -8 -19 -9 -1 -9 14 -1 17 -7
14 -30 -2 -17 -2 -30 1 -29 28 3 33 -3 16 -16 -18 -13 -18 -15 -2 -30 18 -19
23 -31 8 -22 -14 9 -21 -20 -8 -33 9 -9 8 -11 -4 -6 -12 4 -15 -1 -15 -24 0
-18 4 -28 10 -24 6 4 3 -2 -6 -13 -16 -18 -16 -22 -2 -42 8 -12 17 -30 19 -40
2 -9 6 -26 10 -37 4 -14 2 -12 -9 5 -14 23 -20 17 -15 -16 0 -4 -5 -11 -13
-15 -11 -7 -11 -9 1 -9 10 0 11 -3 2 -14 -12 -15 3 -35 16 -22 4 3 1 6 -7 6
-9 0 -10 3 -1 13 6 8 8 17 4 20 -3 4 -1 7 6 7 6 0 11 -6 10 -12 -4 -31 1 -44
10 -28 7 10 9 3 7 -22 -3 -33 -1 -36 21 -32 15 3 22 1 18 -6 -3 -5 -14 -10
-23 -10 -16 -1 -16 -1 1 -11 12 -7 15 -15 9 -27 -5 -9 -8 -31 -8 -49 1 -17 -3
-29 -7 -26 -5 3 -6 16 -2 30 4 18 2 23 -6 17 -7 -4 -9 -3 -5 4 3 6 1 14 -6 18
-7 4 -10 4 -6 -1 4 -4 3 -16 -3 -27 -9 -16 -13 -17 -27 -6 -15 12 -16 11 -4
-4 17 -22 8 -38 -17 -31 -13 3 -18 11 -14 21 4 13 1 12 -11 -3 -13 -14 -16
-15 -13 -4 3 9 -1 16 -9 16 -12 0 -11 -5 2 -25 15 -22 15 -26 -1 -41 -17 -15
-17 -15 -12 2 12 33 -2 48 -26 27 -14 -14 -23 -16 -28 -9 -4 6 -12 8 -19 4 -8
-5 -5 -11 9 -22 25 -17 27 -33 5 -33 -8 0 -13 -4 -9 -9 3 -6 13 -9 23 -9 9 0
23 -1 31 -3 7 -2 16 2 19 10 2 8 0 11 -5 8 -18 -11 -39 11 -24 25 11 10 12 10
7 0 -4 -7 -4 -11 1 -10 4 1 18 -3 31 -10 18 -11 22 -10 22 2 0 8 4 18 10 21 6
4 7 -2 1 -17 -4 -13 -14 -23 -21 -23 -7 0 -15 -6 -18 -14 -3 -8 0 -11 7 -7 6
4 11 2 11 -4 0 -7 -8 -9 -19 -5 -29 9 -48 -21 -21 -35 18 -10 19 -14 8 -27
-16 -19 -18 -55 -3 -66 6 -5 4 -7 -5 -4 -20 5 -20 47 -1 71 15 18 15 19 -2 13
-12 -5 -16 -3 -11 4 4 7 1 10 -7 7 -8 -3 -13 -12 -11 -22 2 -9 -2 -16 -8 -16
-6 0 -9 4 -6 9 7 11 -23 26 -61 30 -6 0 -11 10 -10 21 1 15 6 18 21 14 19 -6
19 -6 -1 28 l-20 34 24 18 c14 10 22 20 19 24 -3 3 -15 -3 -25 -12 -11 -10
-25 -15 -30 -11 -6 3 -11 1 -11 -4 0 -6 -5 -11 -11 -11 -8 0 -8 4 1 15 6 8 8
20 4 26 -4 7 0 17 10 25 10 7 13 15 7 18 -5 4 -16 -3 -24 -14 -8 -12 -21 -18
-29 -15 -9 4 -15 0 -15 -10 0 -11 6 -13 20 -9 14 4 18 2 15 -7 -3 -8 -13 -14
-23 -14 -10 0 -20 -6 -22 -13 -3 -7 1 -10 9 -7 9 4 15 0 15 -9 0 -8 -6 -12
-15 -8 -9 3 -13 1 -10 -4 7 -11 -19 -50 -27 -42 -3 3 1 13 10 21 9 10 11 18 5
22 -7 4 -7 12 0 24 5 10 6 21 2 25 -3 4 -1 11 7 15 10 7 9 10 -3 14 -9 4 -16
1 -16 -5 0 -6 -3 -9 -6 -5 -3 3 -2 12 2 19 18 27 3 84 -18 71 -5 -2 -8 2 -8 9
0 18 -45 21 -59 4 -9 -10 -7 -17 6 -27 15 -12 16 -12 10 3 -9 26 10 32 30 9 9
-11 19 -18 23 -16 3 2 6 -6 7 -18 0 -12 -1 -16 -4 -10 -3 10 -10 10 -25 2 -17
-9 -23 -8 -30 4 -5 9 -14 15 -21 13 -6 -1 -9 -1 -5 1 4 3 2 10 -5 18 -7 7 -14
11 -17 10 -3 -2 -6 5 -6 15 0 10 3 18 6 18 18 -1 19 4 5 19 -15 15 -15 17 -1
25 12 7 14 14 6 27 -8 15 -6 18 13 16 12 -1 23 -4 25 -5 1 -1 8 -3 15 -4 6 0
12 -6 12 -13 0 -6 3 -15 7 -19 9 -8 2 31 -8 49 -5 7 0 6 11 -3 17 -14 18 -14
8 4 -6 10 -8 27 -6 37 3 11 0 19 -8 19 -7 0 -9 3 -6 6 4 4 13 2 20 -4 10 -9
14 -8 14 3 0 8 -4 15 -9 15 -4 0 -8 4 -8 10 0 5 8 7 18 3 14 -5 13 -3 -3 10
-12 10 -15 16 -7 17 8 0 10 5 5 13 -4 6 -7 21 -5 32 2 17 1 17 -8 -2 -5 -13
-14 -23 -20 -23 -6 0 -8 5 -3 13 12 19 12 36 1 43 -10 7 -32 -20 -33 -41 -1
-5 -7 -9 -14 -7 -7 1 -10 -2 -7 -7 4 -5 16 -8 28 -6 14 3 18 1 12 -5 -5 -5
-19 -11 -31 -13 -29 -4 -37 -13 -27 -29 11 -17 14 -39 5 -34 -4 3 -15 -4 -24
-15 -15 -17 -14 -23 4 -21 12 2 5 -27 -8 -32 -8 -3 -11 -1 -8 4 3 6 3 15 -1
22 -5 8 -10 6 -15 -8 -6 -15 -8 -15 -8 -3 -1 9 6 22 14 29 8 7 15 17 15 22 0
6 -7 5 -15 -2 -13 -10 -18 -11 -28 -1 -9 10 -8 11 8 5 11 -4 17 -4 13 1 -4 4
-3 14 3 22 11 12 13 23 18 72 0 7 7 11 15 8 9 -4 13 0 11 11 -2 9 -4 20 -4 25
-1 4 -6 7 -12 7 -5 0 -7 -4 -4 -10 6 -9 -8 -14 -27 -11 -11 2 -10 -13 2 -25 7
-7 0 -9 -20 -8 -31 2 -44 -9 -45 -36 0 -8 -6 -15 -12 -15 -7 0 -12 -4 -10 -10
3 -13 19 -8 34 11 9 13 11 9 9 -20 -1 -19 -5 -38 -8 -42 -4 -3 -5 6 -2 20 4
23 2 26 -13 18 -10 -5 -28 -8 -41 -7 -21 2 -21 1 -5 -17 9 -10 24 -16 32 -13
14 4 14 4 0 -7 -9 -7 -17 -17 -18 -23 -1 -5 -11 -21 -22 -33 -25 -29 -20 -39
7 -13 18 16 23 17 39 5 11 -8 13 -14 6 -14 -7 0 -9 -5 -6 -10 4 -6 11 -8 16
-4 5 3 8 0 7 -8 -2 -8 5 -12 17 -10 18 2 18 2 3 -8 -20 -12 -24 -30 -7 -30 5
0 7 5 4 10 -3 6 -1 10 4 10 6 0 11 -3 11 -7 0 -12 -20 -39 -20 -29 0 6 -6 2
-13 -9 -11 -14 -16 -15 -22 -5 -5 9 -4 11 3 6 7 -4 13 -2 13 3 4 40 2 55 -10
59 -8 3 -11 0 -7 -7 4 -6 -3 -15 -18 -21 -16 -6 -24 -15 -20 -24 3 -8 1 -17
-5 -21 -7 -4 -8 0 -4 11 4 12 3 15 -5 10 -7 -4 -12 -2 -12 4 0 6 -15 10 -34 8
-19 -1 -33 -5 -30 -9 2 -4 -4 -13 -13 -20 -14 -12 -15 -11 -10 11 6 20 4 19
-7 -5 -8 -16 -12 -33 -9 -37 2 -5 0 -8 -6 -8 -5 0 -11 3 -14 8 -2 4 -2 0 1 -8
2 -8 4 -22 5 -30 0 -8 4 -21 9 -27 6 -7 8 -19 5 -28 -4 -8 -1 -17 6 -21 7 -4
9 -4 5 1 -11 12 11 47 24 39 8 -5 9 -1 5 10 -4 9 -3 15 2 12 17 -11 31 -66 16
-60 -8 3 -11 12 -8 21 5 13 3 13 -15 2 -11 -7 -20 -18 -19 -23 1 -6 -6 -10
-15 -8 -9 1 -20 -3 -24 -9 -5 -8 -3 -9 5 -4 8 4 7 -4 -3 -24 -9 -17 -22 -31
-29 -30 -9 0 -9 2 1 6 17 7 15 20 -3 20 -12 0 -14 -8 -11 -29 2 -15 0 -30 -5
-34 -5 -3 -9 0 -9 7 0 7 -3 9 -6 6 -4 -4 -2 -13 4 -20 7 -8 10 -16 7 -18 -2
-3 6 -6 18 -6 18 -2 19 0 7 8 -12 9 -10 10 8 6 15 -4 27 2 37 16 8 12 15 16
15 10 0 -7 -5 -15 -10 -18 -14 -9 3 -38 24 -41 10 -1 15 3 13 9 -3 7 -10 11
-16 10 -6 -2 -11 2 -11 7 0 14 13 13 28 -2 9 -9 12 -9 12 0 0 6 -8 16 -17 22
-15 9 -14 10 7 4 22 -6 23 -5 11 10 -9 11 -10 16 -2 16 7 0 9 5 5 12 -4 6 -3
8 3 5 6 -4 19 3 29 14 19 21 19 21 0 18 -10 -2 -20 2 -22 9 -1 7 0 8 3 2 7
-15 23 -2 17 14 -3 8 0 17 7 22 8 5 11 2 6 -8 -7 -20 21 -61 35 -52 7 4 5 10
-6 16 -18 10 -22 28 -5 28 5 0 8 -4 5 -8 -2 -4 5 -14 16 -21 19 -12 20 -11 13
6 -15 38 -16 47 -2 24 10 -17 16 -20 19 -10 4 12 8 12 23 -1 17 -14 18 -13 12
3 -4 10 -3 16 2 12 5 -3 12 1 15 7 3 7 3 2 0 -12 -5 -24 -4 -24 10 -6 14 18
16 18 17 3 3 -34 4 -38 18 -46 11 -7 10 -10 -6 -15 -25 -8 -25 -30 -1 -45 21
-13 24 -2 6 19 -7 8 -9 11 -4 7 5 -3 15 1 22 11 12 15 13 15 12 -8 -1 -14 -6
-31 -11 -37 -6 -8 -6 -13 0 -13 5 0 15 6 23 13 12 10 12 9 2 -4 -6 -9 -8 -20
-4 -24 4 -5 -5 -1 -20 8 -31 20 -39 6 -9 -15 19 -14 19 -14 1 -26 -15 -9 -19
-8 -24 5 -6 14 -8 14 -25 -1 -10 -9 -24 -16 -31 -14 -7 2 -14 -2 -17 -9 -5
-15 33 -9 53 8 9 7 14 8 14 1 0 -6 -9 -14 -20 -17 -21 -7 -29 -27 -9 -22 6 1
13 -4 15 -11 1 -7 0 -8 -3 -2 -2 5 -9 8 -14 4 -5 -3 -12 2 -15 10 -3 9 -10 14
-14 11 -4 -3 -13 2 -20 10 -9 11 -17 12 -31 5 -15 -9 -17 -8 -12 7 6 16 5 16
-10 4 -21 -17 -22 -31 -2 -31 8 0 15 -4 15 -10 0 -17 -10 -11 -42 23 -17 17
-28 25 -25 15 3 -9 -1 -24 -8 -35 -8 -10 -15 -13 -15 -6 0 6 5 15 10 18 6 4 8
10 5 15 -7 11 5 40 17 40 5 0 6 -4 3 -10 -3 -5 -1 -10 4 -10 13 0 14 11 3 25
-13 18 -31 15 -37 -5 -4 -11 -11 -21 -16 -21 -5 -1 -13 -3 -19 -4 -5 -1 -14
-3 -20 -4 -5 0 -7 -8 -4 -16 5 -13 8 -13 21 0 17 17 33 20 33 4 0 -5 -4 -7
-10 -4 -5 3 -15 -3 -22 -15 -15 -24 -24 -26 -26 -5 -1 8 -3 22 -4 30 -1 8 -8
15 -15 15 -8 0 -12 -4 -9 -9 4 -5 3 -11 -1 -14 -5 -2 -2 -2 5 -1 6 2 12 0 12
-4 0 -5 -6 -14 -12 -21 -11 -10 -10 -12 2 -9 10 2 15 -6 16 -25 1 -31 10 -44
22 -32 4 4 1 10 -6 12 -15 6 13 43 31 43 6 0 3 -6 -7 -13 -15 -11 -16 -18 -7
-34 8 -17 7 -24 -6 -34 -12 -10 -15 -10 -9 -1 4 6 2 12 -3 12 -15 0 -14 -27 2
-33 9 -3 9 -8 -2 -18 -8 -9 -11 -9 -7 -2 5 9 2 11 -9 7 -14 -6 -14 -8 2 -20
10 -7 14 -14 10 -14 -4 0 -3 -9 3 -19 7 -13 7 -22 0 -26 -14 -9 -12 -28 3 -22
6 2 11 10 10 16 -2 6 2 11 8 11 5 0 7 4 4 10 -3 5 -1 18 5 27 9 15 10 14 4 -7
-6 -23 -6 -24 12 -10 18 14 18 14 2 -6 -20 -23 -25 -45 -6 -26 7 7 16 12 21
12 5 0 1 -7 -7 -16 -9 -8 -20 -12 -26 -9 -6 3 -13 -1 -16 -9 -3 -9 -9 -14 -13
-12 -4 3 -7 -8 -6 -24 0 -16 4 -28 10 -27 5 1 8 -7 7 -18 -3 -16 -1 -18 9 -7
7 6 17 12 22 12 5 0 1 -7 -8 -16 -11 -11 -13 -20 -6 -27 5 -5 7 -17 4 -26 -4
-14 -3 -14 6 -1 9 13 12 13 23 1 8 -9 9 -11 1 -7 -8 4 -11 -4 -10 -29 1 -19 6
-35 11 -35 5 0 3 -7 -4 -15 -9 -11 -9 -15 -1 -15 6 0 16 11 21 25 11 30 14 30
31 8 11 -15 11 -16 -1 -6 -11 10 -16 8 -25 -10 -15 -29 -7 -43 11 -20 13 17
14 17 7 -2 -6 -18 -5 -19 13 -5 17 14 18 14 6 -2 -13 -16 -37 -17 -65 -3 -6 4
-1 -2 13 -13 13 -11 28 -18 33 -15 5 3 4 -5 -3 -17 -11 -20 -10 -21 11 -15
l22 7 -22 -23 c-20 -21 -20 -24 -5 -47 9 -13 11 -22 6 -18 -6 3 -13 2 -17 -4
-3 -5 0 -10 7 -10 7 -1 1 -8 -14 -16 -30 -16 -38 -27 -13 -18 11 5 14 -2 11
-30 -1 -20 1 -36 6 -36 4 0 8 4 8 8 0 5 7 17 15 28 11 13 14 14 13 4 -2 -8 -6
-17 -10 -20 -4 -3 -8 -20 -10 -38 -1 -18 -7 -32 -13 -32 -6 0 -7 -3 0 -8 16
-12 19 -56 3 -46 -10 6 -11 5 -1 -7 10 -12 10 -18 0 -28 -6 -7 -7 -12 -2 -11
20 4 35 0 35 -10 0 -5 -6 -7 -14 -4 -20 8 -27 -10 -12 -31 13 -18 42 -12 31 6
-4 5 -1 9 5 9 13 0 4 -54 -10 -58 -5 -2 -7 -9 -4 -14 4 -7 2 -8 -5 -4 -9 6 -9
11 -1 21 11 13 -16 32 -28 20 -3 -3 0 -5 6 -5 6 0 9 -15 8 -34 -3 -38 16 -40
35 -5 5 11 15 19 22 19 9 0 8 -3 -1 -9 -7 -4 -15 -17 -16 -27 -2 -10 -9 -19
-17 -20 -33 -2 -39 -5 -39 -15 0 -6 7 -8 16 -5 8 3 13 2 11 -2 -7 -10 19 -32
29 -24 4 4 4 1 0 -6 -6 -11 -11 -11 -24 0 -13 11 -15 10 -9 -5 4 -11 3 -16 -4
-12 -6 4 -8 13 -6 19 3 7 -1 13 -9 13 -9 0 -10 -5 -5 -16 5 -8 5 -25 0 -39 -6
-16 -6 -21 2 -16 7 4 10 1 7 -7 -3 -8 -12 -13 -19 -11 -11 3 -12 1 -1 -9 6 -7
12 -24 12 -37 0 -16 -4 -21 -12 -16 -7 4 -10 4 -6 -1 4 -4 2 -15 -5 -24 -10
-14 -10 -14 4 -3 14 11 16 9 17 -14 0 -14 6 -31 13 -36 11 -8 10 -9 -3 -4 -10
3 -20 1 -23 -4 -4 -6 1 -10 11 -10 15 0 15 -2 -1 -26 -9 -15 -12 -24 -7 -20 6
3 12 0 15 -6 5 -17 -3 -49 -12 -43 -4 2 -7 -10 -6 -28 0 -21 5 -31 14 -29 7 1
10 -2 6 -8 -3 -6 -11 -7 -17 -4 -6 4 -8 1 -6 -7 3 -8 11 -13 18 -11 11 3 11 0
1 -12 -7 -8 -10 -20 -6 -26 3 -5 -3 -24 -15 -40 -21 -30 -21 -31 -4 -58 20
-30 27 -55 13 -46 -5 3 -7 9 -4 13 2 5 -4 16 -15 26 -19 17 -19 17 -15 -4 2
-11 7 -27 11 -34 6 -9 4 -9 -7 -2 -8 6 -6 2 4 -7 18 -17 15 -23 -8 -18 -5 1
-1 -8 10 -20 19 -21 19 -22 -4 -39 -18 -14 -21 -20 -11 -26 9 -6 11 -4 5 5 -5
9 -4 11 4 6 6 -4 8 -12 5 -18 -4 -6 2 -8 17 -4 18 5 16 2 -8 -11 -26 -15 -29
-20 -17 -31 16 -15 9 -39 -14 -45 -15 -4 -15 -5 1 -6 9 0 17 -6 17 -12 0 -5 5
-7 11 -3 8 4 8 0 0 -15 -7 -11 -17 -21 -24 -21 -7 0 -6 -4 3 -10 13 -9 13 -10
0 -10 -9 0 -11 -3 -5 -8 6 -4 11 -13 13 -21 3 -12 0 -12 -12 -2 -17 14 -11
-23 8 -48 8 -11 8 -13 -1 -8 -8 5 -11 -3 -10 -28 1 -19 5 -35 8 -35 13 0 18
-29 7 -36 -7 -4 -8 -3 -4 4 4 7 3 12 -3 12 -5 0 -9 -9 -8 -20 1 -21 12 -26 22
-10 8 13 25 13 25 -1 0 -5 -4 -8 -9 -4 -16 9 -23 -15 -9 -32 11 -14 8 -13 -15
2 -22 14 -26 15 -22 3 4 -9 16 -20 27 -25 20 -8 20 -10 4 -16 -9 -4 -15 -3
-12 1 3 5 0 9 -7 9 -12 0 -17 -61 -5 -72 4 -4 4 -18 2 -31 -3 -15 0 -24 8 -24
10 0 9 -3 -1 -9 -14 -9 -7 -31 10 -31 6 0 7 5 3 12 -5 7 -3 8 6 3 10 -6 10
-11 -3 -20 -9 -7 -13 -16 -9 -20 4 -5 2 -6 -3 -2 -6 3 -17 2 -25 -4 -11 -6
-11 -9 -2 -9 10 0 10 -5 1 -22 -11 -20 -11 -22 3 -10 13 10 18 10 24 1 4 -8 3
-9 -4 -5 -7 4 -12 4 -13 -1 0 -4 -2 -16 -4 -26 -2 -10 2 -20 10 -23 7 -3 13
-16 13 -29 0 -14 -4 -22 -9 -19 -5 3 -9 0 -9 -5 0 -6 5 -11 10 -11 6 0 10 -5
10 -11 0 -5 -4 -8 -9 -5 -11 7 -8 -21 4 -31 4 -4 5 -2 1 4 -5 9 -2 11 10 6 14
-5 12 -8 -10 -20 -27 -14 -36 -26 -12 -17 8 3 17 0 22 -7 4 -7 3 -10 -4 -5
-17 10 -25 -13 -10 -31 16 -20 15 -25 -9 -34 -17 -7 -17 -8 1 -8 16 -1 17 -3
5 -18 -10 -11 -10 -14 -1 -9 7 4 12 2 12 -4 0 -6 5 -8 12 -4 7 5 8 3 4 -5 -5
-7 -14 -10 -22 -7 -8 3 -14 3 -14 0 0 -2 10 -9 23 -14 22 -9 22 -9 -3 -10 -18
0 -21 -3 -11 -9 7 -5 11 -13 7 -19 -3 -6 -2 -14 4 -17 8 -5 8 -11 0 -20 -14
-16 1 -27 27 -19 10 3 5 -3 -12 -12 -24 -14 -26 -19 -12 -22 20 -4 22 -13 5
-30 -10 -10 -10 -17 0 -33 10 -16 10 -19 1 -14 -9 6 -10 1 -5 -19 4 -15 1 -36
-5 -49 -11 -20 -11 -21 5 -8 13 11 19 12 29 2 9 -10 8 -11 -7 -5 -16 6 -18 4
-13 -10 4 -10 3 -15 -3 -11 -6 3 -10 1 -10 -4 0 -6 -5 -10 -12 -8 -7 1 -13 -5
-14 -13 -3 -36 -5 -40 -15 -40 -5 0 -8 4 -4 9 3 5 0 13 -7 17 -7 4 -10 4 -6
-1 4 -4 2 -15 -5 -23 -8 -11 -8 -14 0 -9 6 4 14 3 17 -1 3 -5 -5 -9 -17 -8
-12 1 -21 8 -19 15 1 7 -2 10 -8 6 -6 -3 -8 -11 -5 -16 4 -5 1 -9 -5 -9 -6 0
-9 -4 -6 -9 4 -5 1 -11 -5 -13 -12 -4 -1 -38 13 -38 5 0 6 5 2 12 -5 7 -3 8 5
3 10 -5 10 -10 1 -19 -8 -8 -16 -5 -31 14 l-20 25 13 -28 c9 -22 16 -27 35
-22 18 4 21 2 17 -12 -5 -14 -4 -15 4 -4 6 8 15 10 22 6 8 -5 11 -4 6 3 -3 6
-2 13 3 16 5 4 12 -3 16 -14 3 -11 11 -20 17 -20 6 0 5 7 -3 18 -12 15 -12 16
2 5 9 -7 19 -9 24 -5 4 4 4 -3 1 -15 -5 -15 -3 -23 4 -23 6 0 8 -4 5 -10 -3
-5 -2 -10 4 -10 5 0 12 6 15 13 3 6 3 1 0 -12 -4 -17 -3 -21 6 -16 8 5 7 -2
-2 -21 -8 -16 -14 -36 -13 -44 1 -8 -3 -21 -8 -27 -6 -8 -6 -13 1 -13 6 0 13
6 16 13 4 6 4 1 0 -13 -10 -45 -4 -82 12 -76 8 3 16 0 20 -6 4 -7 3 -8 -4 -4
-8 5 -12 -1 -12 -14 0 -14 -4 -19 -12 -14 -7 4 -5 -2 5 -13 9 -11 14 -23 10
-28 -5 -4 -2 -5 5 -1 11 7 18 -39 13 -83 -2 -8 2 -10 10 -5 9 5 9 3 3 -7 -10
-16 -14 -69 -5 -70 26 -3 44 -9 49 -14 4 -4 0 -6 -8 -5 -28 4 -50 0 -50 -9 0
-5 12 -7 28 -5 26 5 26 5 7 -11 -11 -9 -13 -13 -5 -9 12 5 12 4 3 -6 -9 -10
-8 -16 3 -27 8 -8 14 -20 14 -26 0 -7 -4 -6 -10 3 -7 12 -9 10 -7 -7 0 -12 5
-19 9 -17 4 3 5 -2 2 -10 -4 -11 0 -16 12 -17 18 0 17 -1 -1 -9 -11 -5 -15 -9
-10 -9 13 -1 15 -114 2 -122 -5 -4 -5 -9 2 -13 6 -4 11 -2 11 3 0 6 8 11 18
11 14 0 15 -2 2 -10 -14 -9 -7 -14 13 -11 5 1 5 -3 2 -9 -4 -6 -13 -9 -20 -6
-7 2 -16 -1 -19 -9 -3 -9 0 -12 9 -9 22 9 40 -38 26 -65 -7 -12 -8 -21 -2 -21
5 0 12 6 14 13 4 8 6 9 6 0 1 -6 -6 -18 -14 -26 -13 -13 -13 -16 1 -21 8 -3
12 -2 9 3 -3 5 -1 12 4 15 5 4 8 -2 6 -11 -2 -10 -4 -18 -5 -18 -1 0 -3 -10
-4 -22 -1 -12 0 -20 4 -18 3 2 12 -6 20 -18 12 -20 12 -21 -4 -8 -9 8 -20 11
-23 7 -4 -4 -3 -10 3 -14 5 -4 10 -16 10 -27 0 -12 6 -19 14 -17 11 3 11 0 -1
-14 -8 -10 -9 -15 -4 -12 6 3 17 -1 25 -10 13 -14 12 -15 -3 -9 -9 3 -17 2
-17 -3 0 -6 8 -10 18 -11 13 0 12 -2 -5 -9 -31 -13 -29 -19 5 -15 15 2 22 2
16 -1 -7 -3 -11 -13 -9 -22 1 -9 0 -11 -2 -4 -6 15 -20 16 -29 0 -4 -7 -3 -8
4 -4 7 4 12 2 12 -4 0 -6 7 -18 15 -26 11 -11 15 -12 15 -3 0 7 3 9 6 6 4 -4
1 -13 -6 -22 -8 -10 -9 -15 -1 -15 6 0 11 -5 11 -11 0 -5 -4 -7 -10 -4 -6 4
-7 -1 -3 -10 4 -12 14 -15 32 -12 l26 5 -23 -18 c-22 -18 -22 -19 -2 -25 11
-4 18 -10 15 -15 -3 -5 0 -12 6 -16 6 -3 15 0 20 7 5 8 9 10 9 5 0 -5 -8 -19
-17 -30 -16 -18 -16 -19 -1 -8 14 11 21 11 42 -3 22 -15 27 -35 10 -35 -3 0
-3 4 0 8 2 4 -4 13 -14 20 -14 9 -21 9 -26 0 -4 -6 -3 -8 3 -5 14 9 24 -18 16
-40 -5 -15 -3 -16 8 -5 20 18 34 15 18 -5 -12 -14 -12 -16 0 -8 11 6 13 4 8
-8 -3 -9 -2 -19 4 -22 5 -4 7 -11 4 -16 -3 -5 1 -6 9 -3 9 3 16 11 16 17 0 6
3 7 6 4 4 -4 1 -14 -7 -24 -12 -15 -12 -16 3 -11 18 7 52 -24 41 -37 -5 -4 -1
-6 9 -2 17 6 20 -15 3 -30 -4 -4 -5 -3 -2 3 7 12 -21 29 -31 19 -3 -3 0 -5 7
-5 7 0 9 -5 6 -10 -3 -6 -1 -10 5 -10 6 0 8 -5 4 -11 -4 -7 1 -7 16 1 12 6 24
9 28 6 3 -3 0 -6 -7 -6 -7 0 -9 -5 -5 -12 5 -7 3 -8 -5 -3 -7 4 -5 -5 4 -19
10 -15 24 -25 31 -22 8 3 11 0 7 -9 -3 -8 -9 -12 -14 -9 -5 3 -6 -2 -3 -11 6
-14 8 -14 21 2 13 17 14 17 8 -4 -4 -14 0 -26 13 -35 22 -16 44 -53 35 -61 -3
-4 5 -4 17 -2 18 3 21 2 12 -7 -9 -9 -5 -16 16 -30 15 -10 23 -18 17 -18 -5 0
-3 -5 5 -10 13 -9 13 -11 0 -21 -13 -9 -12 -10 3 -5 12 4 21 -1 27 -17 8 -18
9 -16 4 10 -3 18 -2 33 3 33 4 0 9 -12 9 -26 1 -14 10 -32 20 -39 24 -18 37
-19 28 -3 -4 7 -3 9 1 5 12 -10 15 -38 4 -31 -5 3 -9 -2 -9 -11 0 -10 5 -13
12 -9 8 5 9 2 5 -9 -4 -11 -1 -17 9 -17 9 0 12 5 8 12 -4 7 -3 8 4 4 9 -5 7
-15 -4 -34 -15 -25 -15 -25 0 -8 9 11 16 16 16 12 0 -5 7 -3 15 4 19 16 20 3
0 -16 -19 -19 0 -54 30 -54 17 0 18 -2 5 -11 -12 -9 -11 -10 8 -6 14 3 20 1
15 -6 -4 -6 0 -8 10 -4 10 3 17 2 17 -3 0 -5 -8 -11 -17 -13 -14 -4 -12 -5 5
-6 12 0 22 -6 22 -12 0 -5 -4 -7 -10 -4 -5 3 -10 4 -10 1 0 -10 63 -35 74 -29
6 4 5 -1 -3 -10 -16 -20 -2 -23 18 -5 9 9 12 9 7 1 -3 -6 -3 -13 1 -16 5 -2 2
-2 -4 -1 -7 2 -13 -2 -13 -8 0 -6 11 -8 30 -4 18 3 30 1 30 -5 0 -6 -4 -8 -9
-4 -5 3 -12 2 -15 -3 -2 -4 5 -9 16 -9 11 -1 27 -10 35 -20 8 -10 12 -13 9 -6
-4 6 -1 15 6 19 7 4 10 4 6 -1 -4 -4 1 -15 10 -24 10 -9 13 -12 6 -8 -7 5 -15
3 -20 -4 -4 -7 -3 -9 4 -5 6 3 14 2 17 -4 5 -8 11 -8 20 0 10 8 15 7 19 -2 5
-10 7 -10 12 0 3 6 10 12 16 12 6 0 4 -7 -3 -17 -12 -15 -12 -16 3 -10 12 4
15 2 12 -7 -3 -8 0 -17 7 -22 8 -4 10 -3 5 4 -5 8 2 12 19 12 15 0 24 -4 20
-10 -3 -6 2 -10 12 -10 26 -1 53 -24 53 -46 0 -15 2 -16 9 -4 6 8 7 18 4 24
-3 5 -1 6 5 3 11 -8 11 -24 -2 -47 -7 -12 -6 -13 5 -3 22 21 45 17 28 -4 -13
-17 -13 -17 12 -1 26 16 26 16 24 -7 -2 -18 1 -22 13 -18 11 5 13 3 7 -8 -8
-12 -6 -12 9 0 18 15 42 -2 30 -21 -3 -4 -1 -8 5 -8 5 0 12 6 14 13 4 9 6 9 6
0 1 -17 89 -76 104 -70 9 4 9 6 0 6 -7 1 -13 6 -13 12 0 8 4 8 14 -1 8 -6 12
-19 9 -27 -5 -12 -3 -14 8 -7 20 12 40 14 33 3 -3 -5 -10 -6 -16 -3 -7 4 -8 2
-4 -4 5 -9 13 -9 26 -2 20 11 36 -2 25 -20 -4 -6 1 -7 11 -3 12 5 15 3 9 -6
-6 -10 -3 -11 15 -1 12 7 20 8 16 2 -6 -11 21 -25 33 -17 5 2 13 -7 20 -21 9
-22 14 -24 26 -14 12 10 15 10 15 -3 0 -8 7 -18 16 -21 8 -3 12 -2 9 4 -3 6
-1 10 4 10 6 0 11 -5 11 -11 0 -5 5 -7 10 -4 6 3 10 1 10 -6 0 -6 8 -9 20 -6
11 3 20 1 20 -4 0 -5 7 -9 16 -9 9 0 12 5 8 12 -4 7 -3 8 5 4 6 -4 9 -12 5
-17 -3 -6 5 -8 20 -5 15 3 24 1 21 -5 -4 -5 -10 -7 -15 -4 -5 3 -12 0 -16 -7
-4 -7 -4 -10 1 -6 4 4 14 3 22 -3 10 -9 13 -8 13 1 0 10 3 10 15 0 8 -7 15 -9
15 -5 0 4 9 -3 21 -16 11 -13 18 -19 15 -13 -3 7 0 17 8 23 11 9 12 6 8 -16
-4 -27 -4 -27 11 -8 16 20 16 20 10 -2 -4 -17 -1 -22 15 -20 11 0 18 5 16 9
-3 5 -10 5 -16 2 -7 -5 -8 -2 -4 5 6 9 13 8 27 -5 10 -9 16 -21 12 -27 -3 -6
-1 -7 6 -3 6 4 9 11 6 16 -3 5 0 12 6 16 8 5 9 3 4 -6 -6 -10 -4 -12 9 -7 14
6 15 4 5 -14 -7 -13 -7 -19 -1 -15 6 3 13 2 16 -2 6 -10 36 -9 53 1 6 4 15 3
18 -3 4 -6 15 -8 26 -5 14 5 19 2 19 -12 0 -15 2 -16 10 -3 6 10 10 11 10 2 0
-6 3 -11 8 -11 23 4 42 -2 36 -12 -3 -6 5 -3 20 6 14 10 26 14 26 10 0 -4 8
-1 17 6 11 10 14 10 9 2 -4 -8 2 -17 18 -25 14 -6 26 -16 26 -22 0 -6 7 -3 15
7 13 18 14 18 36 -4 15 -15 20 -17 16 -6 -4 11 -2 14 8 10 8 -3 13 -8 10 -12
-2 -4 2 -8 10 -8 8 0 12 3 10 7 -2 3 14 6 36 5 21 0 39 -3 39 -7 0 -8 -16 -12
-33 -9 -5 1 -5 -3 -2 -9 5 -8 15 -6 32 5 14 10 23 13 19 7 -3 -5 3 -12 14 -15
11 -3 18 -2 16 1 -2 4 8 16 23 26 l26 20 -18 -21 c-16 -18 -16 -21 -2 -27 9
-3 13 -2 10 4 -3 6 -3 10 2 11 4 0 15 2 23 3 8 2 38 -4 67 -14 29 -9 50 -13
47 -8 -3 4 6 8 20 8 14 0 26 6 26 13 0 8 3 7 9 -3 6 -8 7 -18 4 -24 -3 -5 -1
-6 6 -2 6 4 9 11 6 16 -3 5 0 12 6 16 8 4 9 3 5 -4 -4 -7 -2 -12 4 -12 6 0 8
-5 4 -12 -4 -7 -3 -8 5 -4 6 4 9 11 6 16 -3 5 -1 11 5 15 5 3 10 -1 10 -9 0
-19 16 -21 26 -4 5 7 2 8 -7 3 -8 -5 -11 -4 -6 0 4 5 16 9 28 10 13 1 16 -2 9
-9 -5 -5 -10 -14 -10 -19 0 -5 7 -1 16 7 16 17 39 22 30 8 -3 -5 1 -9 9 -9 8
0 12 4 9 8 -6 10 38 5 55 -6 9 -5 12 -4 8 2 -4 6 0 14 9 17 23 9 26 8 19 -6
-4 -7 0 -6 7 4 10 11 19 13 30 7 12 -7 20 -4 27 8 6 10 11 13 11 7 0 -6 7 -11
15 -11 11 0 12 4 4 13 -7 8 -6 14 2 20 8 4 9 3 5 -4 -7 -11 6 -17 28 -13 4 1
15 -4 24 -11 13 -11 14 -11 7 2 -15 25 -17 49 -2 30 15 -18 43 -24 52 -10 3 5
0 7 -8 4 -8 -3 -17 -1 -21 4 -6 11 24 9 43 -3 11 -6 13 -4 8 8 -3 10 -2 17 3
17 6 0 10 -5 10 -11 0 -8 4 -8 15 1 8 6 19 9 25 5 5 -3 10 -1 10 5 0 8 6 8 21
0 11 -6 25 -9 32 -6 7 2 5 5 -5 5 -9 1 -20 6 -24 13 -4 6 -3 8 4 4 6 -3 16 2
22 11 11 17 11 17 6 -1 -5 -13 -2 -17 9 -13 8 4 17 2 20 -3 4 -6 12 -10 18 -9
9 0 9 2 0 6 -7 2 -13 12 -12 21 0 11 2 12 6 5 2 -7 11 -13 19 -13 12 0 13 4 3
23 -9 18 -7 17 14 -6 20 -23 26 -25 31 -12 3 9 11 13 17 10 6 -4 9 0 7 10 -2
10 4 20 12 22 13 4 13 3 0 -6 -12 -9 -11 -11 7 -11 17 0 21 4 16 16 -5 14 -3
15 18 4 21 -12 22 -11 12 1 -10 13 -7 15 18 13 23 -2 29 1 25 12 -3 9 -1 12 5
9 6 -4 16 1 23 11 10 13 15 14 21 4 5 -9 4 -11 -3 -6 -7 4 -12 2 -12 -4 0 -8
7 -9 18 -5 9 4 22 8 29 8 7 0 10 4 8 8 -3 4 11 10 30 13 19 4 37 12 41 18 5 7
2 8 -6 3 -9 -6 -11 -4 -5 5 6 10 10 10 20 -3 9 -13 14 -12 30 14 21 30 35 37
35 17 0 -6 2 -9 5 -6 10 10 -7 38 -19 31 -6 -3 -7 -2 -3 2 12 14 38 15 31 2
-3 -7 1 -3 10 7 8 10 12 24 9 30 -4 6 4 2 17 -9 13 -11 20 -14 15 -6 -6 11 -4
13 8 8 9 -3 19 -1 23 5 4 7 3 8 -4 4 -15 -9 -15 14 -1 34 9 12 10 12 5 -4 -5
-13 -2 -17 9 -12 8 3 15 0 15 -6 0 -6 3 -8 6 -5 4 4 2 13 -4 20 -10 11 -6 13
17 12 21 -1 28 2 24 12 -3 7 2 13 12 13 10 0 13 -5 9 -12 -4 -6 -3 -8 4 -5 5
4 8 15 5 26 -6 22 37 38 49 18 6 -9 8 -9 8 0 0 6 -7 18 -15 27 -19 19 -20 32
-1 17 10 -8 16 -9 21 -1 3 6 11 8 16 5 5 -4 9 -1 9 5 0 6 5 8 12 4 7 -4 8 -3
4 4 -4 7 -1 12 7 12 8 0 20 7 27 15 7 8 16 12 21 9 5 -3 9 -1 9 5 0 5 -9 9
-19 8 -11 0 -17 -5 -15 -9 3 -4 -2 -5 -11 -1 -13 4 -14 8 -4 14 7 4 17 5 21 3
4 -3 8 2 8 10 0 9 5 16 11 16 5 0 7 -4 4 -10 -3 -6 1 -7 10 -4 14 6 14 8 -2
26 -9 11 -13 18 -8 17 6 -2 20 2 33 9 12 7 28 10 34 6 7 -5 9 -2 6 8 -4 8 -2
21 4 29 8 11 9 11 5 -3 -5 -15 -2 -16 32 -9 2 1 -3 9 -10 18 -12 15 -12 16 3
10 11 -4 17 -2 15 6 -1 7 3 11 8 10 10 -1 15 20 18 69 1 9 5 14 10 11 4 -2 5
-14 3 -26 -3 -12 1 -7 10 11 9 22 20 32 29 28 14 -5 29 9 30 29 2 20 17 45 28
45 5 0 3 -8 -6 -18 -14 -15 -15 -19 -2 -19 8 0 12 4 9 8 -2 4 0 10 5 14 5 3 8
14 6 25 -4 19 5 24 30 21 6 -1 -1 8 -15 20 -24 21 -24 22 -3 17 12 -3 22 -3
21 1 -2 18 3 32 11 27 5 -3 15 2 22 12 13 15 12 16 -3 3 -10 -7 -18 -10 -18
-5 0 4 -5 3 -12 -4 -7 -7 -17 -12 -23 -12 -5 0 -2 5 8 11 9 6 14 15 11 21 -4
6 -3 8 4 5 13 -9 42 2 42 15 0 6 -6 6 -14 -1 -10 -8 -16 -9 -21 -1 -3 5 -5 10
-3 11 2 0 11 2 22 4 10 2 24 9 30 15 8 9 5 11 -13 5 -16 -5 -21 -4 -17 4 4 6
13 11 21 11 8 0 17 4 20 10 3 5 0 7 -9 4 -16 -6 -17 19 -1 33 4 4 5 3 2 -3 -3
-6 0 -11 7 -11 8 0 11 8 8 20 -4 15 -2 18 8 12 9 -5 11 -4 6 3 -4 7 -15 12
-24 12 -12 0 -13 3 -4 12 8 8 15 8 29 -3 10 -7 15 -9 11 -5 -4 5 -3 15 2 21 8
9 6 14 -4 18 -11 4 -13 1 -10 -11 5 -14 4 -14 -4 -3 -9 12 -13 12 -26 2 -9 -8
-16 -10 -16 -6 0 12 33 34 53 35 18 0 16 32 -4 72 -10 19 4 33 24 22 6 -4 9
-4 5 1 -4 4 -3 17 3 28 7 12 7 17 1 13 -5 -3 -12 1 -16 9 -3 8 0 17 6 21 7 4
8 3 4 -4 -5 -8 -1 -10 10 -5 11 4 13 8 6 11 -7 2 -9 9 -5 15 12 20 12 35 -1
40 -11 4 -12 15 -7 59 1 3 9 9 19 11 16 4 16 5 0 6 -10 0 -18 6 -18 12 0 5 -5
7 -11 4 -6 -4 -5 2 2 13 7 12 16 19 19 17 3 -2 6 5 7 15 1 11 -2 22 -8 25 -5
3 -6 -2 -3 -12 4 -12 3 -14 -3 -6 -5 7 -8 36 -8 66 1 53 0 55 -25 51 -24 -4
-24 -3 -5 9 21 12 23 47 4 47 -6 0 -9 12 -7 26 2 19 -3 30 -17 38 -11 6 -23
15 -27 20 -7 11 1 36 10 33 4 -1 8 2 10 7 1 6 -4 11 -13 12 -8 1 -13 -1 -10
-6 3 -4 -3 -14 -13 -21 -15 -12 -16 -12 -5 2 10 12 10 18 0 29 -9 10 -9 11 1
6 17 -10 15 4 -5 27 -10 11 -12 17 -5 13 6 -4 12 -3 12 3 0 5 -8 11 -17 13
-15 3 -14 5 3 10 19 5 22 2 19 -18 -1 -13 2 -24 8 -24 5 0 7 15 4 35 -5 28 -3
35 11 35 14 0 15 2 2 9 -8 6 -18 7 -23 4 -5 -3 -3 4 5 16 7 12 18 19 25 17 7
-3 15 3 18 13 3 11 15 21 25 24 11 3 20 11 20 17 0 9 -5 9 -17 -1 -16 -12 -17
-12 -5 2 14 19 58 19 54 0 -1 -7 2 -10 8 -6 6 3 8 10 5 15 -3 4 2 11 11 14 8
3 12 2 9 -3 -3 -5 -2 -12 3 -15 9 -5 12 9 13 52 1 22 2 22 15 5 12 -16 13 -15
9 12 -2 17 -2 24 1 18 3 -7 10 -13 15 -13 6 0 7 4 4 10 -6 10 9 15 30 10 5 -1
7 2 3 6 -4 4 -2 14 5 22 9 13 9 14 0 8 -8 -4 -13 -2 -13 4 0 6 -6 8 -12 4 -7
-4 -3 4 10 18 12 13 19 28 15 33 -5 4 -2 5 5 1 8 -5 12 0 12 12 0 19 30 54 30
36 0 -5 5 -1 11 8 5 10 15 18 22 18 14 1 57 35 57 45 0 4 -7 2 -15 -5 -9 -8
-15 -8 -15 -2 0 6 9 14 20 17 11 3 20 11 20 16 0 6 5 7 12 3 7 -4 8 -3 4 4 -4
7 -3 12 3 12 17 0 33 38 19 46 -6 4 -8 3 -5 -3 4 -6 -1 -17 -10 -24 -15 -12
-16 -12 -8 1 13 20 15 40 5 40 -4 0 -7 13 -6 29 1 17 -2 27 -8 24 -5 -4 -7 1
-3 10 4 10 1 17 -5 17 -6 0 -9 2 -6 5 11 11 43 -11 43 -30 0 -11 6 -19 13 -18
6 2 12 -2 12 -7 0 -14 -13 -13 -28 2 -15 15 -16 3 -2 -23 6 -10 15 -19 21 -19
6 0 8 3 6 8 -6 9 19 33 27 25 3 -4 6 1 6 11 0 10 -5 15 -12 11 -7 -4 -6 -1 3
7 18 15 17 47 -3 59 -7 5 -8 9 -2 9 5 0 15 -5 22 -12 16 -16 16 4 0 21 -8 9
-8 11 -2 8 15 -9 30 21 33 66 1 11 6 15 13 11 7 -4 8 -3 4 5 -4 6 -2 20 6 29
12 16 11 16 -6 2 -18 -14 -19 -13 -14 10 4 14 3 34 -2 45 -8 22 -2 48 10 40
15 -9 18 35 4 49 -17 18 -18 30 -1 19 6 -4 21 -9 32 -10 20 -3 20 -2 0 10 -12
6 -21 21 -21 32 0 11 -5 19 -12 18 -6 -2 -9 4 -5 13 4 11 8 12 13 4 5 -8 11
-6 20 5 11 13 15 13 23 3 6 -9 7 -8 3 5 -3 11 -3 24 1 30 9 14 10 19 12 48 0
11 5 18 10 15 4 -3 8 4 7 17 -1 13 4 21 12 19 10 -2 10 2 0 17 -7 11 -17 17
-23 13 -5 -3 -4 2 4 12 8 9 20 15 28 12 7 -3 13 -1 13 3 0 5 -6 12 -12 14 -7
3 -2 6 12 7 25 1 25 1 5 16 -20 16 -20 16 1 10 14 -4 21 -2 21 8 0 9 -4 13 -9
10 -4 -3 -8 0 -8 5 0 6 10 11 22 11 21 0 21 0 2 14 -14 11 -21 11 -26 3 -6 -9
-8 -8 -8 1 0 7 -5 10 -12 6 -6 -4 -8 -3 -5 4 8 11 25 11 44 -1 6 -4 14 -3 18
3 3 5 1 10 -4 10 -6 0 -11 5 -11 11 0 6 6 9 14 6 8 -3 17 1 20 9 3 8 1 14 -5
14 -6 0 -7 5 -4 10 5 8 12 7 23 -2 15 -12 16 -11 4 4 -8 9 -10 23 -6 29 4 7 3
9 -4 5 -6 -3 -14 -1 -18 5 -4 7 -3 9 3 6 6 -4 17 1 24 10 8 9 9 14 3 10 -6 -3
-11 0 -11 7 0 8 7 12 15 8 10 -3 13 -1 8 7 -4 6 -2 18 4 26 7 8 10 22 6 30 -3
9 -2 13 3 10 5 -3 12 -1 16 5 3 5 1 11 -4 11 -26 3 -30 4 -36 11 -4 4 3 5 17
3 18 -4 24 0 25 15 1 13 -3 18 -10 14 -7 -3 -1 4 13 15 17 14 20 21 10 21 -9
0 -6 6 10 16 l25 15 -25 -7 -25 -6 23 21 c24 24 32 87 10 76 -7 -4 -6 -1 2 7
18 15 20 63 3 63 -6 0 -14 3 -18 7 -4 4 8 5 26 3 19 -2 29 -1 22 1 -7 3 -10
18 -6 38 3 18 0 42 -6 54 -9 18 -8 19 12 14 22 -5 22 -5 -2 15 -18 15 -20 20
-8 20 9 0 13 -5 10 -11 -3 -6 -2 -8 2 -3 5 4 10 15 11 25 1 9 5 29 8 44 3 15
1 30 -4 33 -8 5 -8 11 0 20 8 9 7 17 -5 28 -23 24 -18 33 6 11 l22 -19 -17 33
c-9 17 -13 32 -9 32 5 0 1 5 -7 11 -13 9 -13 10 0 6 8 -2 15 -9 15 -15 0 -5 3
-14 7 -17 4 -4 5 5 2 20 -3 19 -1 24 7 19 7 -4 9 -3 5 4 -3 6 -18 9 -31 6 -14
-2 -25 0 -25 6 0 5 5 9 11 7 6 -1 14 4 17 12 2 8 0 11 -5 8 -13 -8 -10 50 4
64 8 8 10 2 8 -25 -2 -20 0 -36 5 -36 5 0 7 9 5 20 -2 11 1 22 6 26 6 3 6 11
1 17 -13 18 -8 42 8 39 11 -3 11 0 0 15 -22 28 -24 29 -18 13 9 -25 -19 -57
-35 -40 -9 10 -9 12 1 6 12 -7 16 -2 26 46 5 23 3 26 -11 21 -15 -6 -16 -5 -3
9 8 9 18 14 21 12 4 -2 9 3 12 11 4 9 1 12 -9 8 -7 -3 -14 0 -14 6 0 6 10 11
23 12 12 0 16 3 10 6 -7 2 -13 11 -13 19 0 8 -5 14 -12 14 -6 0 -8 3 -4 7 4 5
15 -1 23 -12 16 -20 16 -20 8 0 -4 11 -10 29 -13 40 -2 11 -10 27 -16 35 -6 8
0 6 12 -5 17 -14 23 -16 20 -5 -2 8 -6 18 -11 21 -13 10 -16 46 -3 46 7 0 13
-6 13 -13 0 -7 -5 -10 -10 -7 -6 4 -7 1 -3 -6 8 -12 21 -7 21 7 0 4 4 13 9 21
6 9 5 12 -2 7 -6 -4 -16 4 -23 16 -10 20 -10 21 2 11 11 -9 14 -7 14 13 0 13
-5 24 -10 24 -6 0 -11 11 -11 24 0 14 4 22 8 20 5 -3 6 -9 3 -14 -3 -5 -2 -11
3 -14 4 -2 7 11 7 30 0 19 -5 34 -10 34 -6 0 -11 10 -12 21 -2 21 -1 21 13 3
14 -18 14 -18 7 1 -3 11 -11 23 -17 27 -17 11 -16 37 2 30 14 -5 15 -4 2 10
-8 9 -17 14 -21 13 -3 -2 -5 7 -5 20 0 14 5 21 12 18 7 -2 15 1 20 8 4 8 3 10
-4 5 -8 -5 -12 2 -13 21 -2 78 -4 88 -17 85 -8 -1 -11 2 -7 8 3 6 11 8 16 4 6
-3 10 0 8 7 -4 34 2 51 15 46 8 -3 20 1 26 8 7 8 16 13 20 10 5 -3 11 -1 15 5
4 6 10 8 14 6 4 -3 13 0 21 6 13 8 13 9 -1 5 -9 -3 -21 4 -28 16 -11 18 -11
20 0 10 16 -16 39 -17 39 -2 0 5 -6 7 -12 3 -7 -4 -9 -3 -5 1 14 16 36 14 31
-3 -3 -10 4 -1 14 18 11 19 18 39 14 45 -3 5 6 0 20 -13 23 -21 25 -21 39 -5
9 10 15 30 14 45 0 15 3 24 7 22 4 -3 8 0 8 5 0 6 5 11 10 11 6 0 4 -11 -5
-23 -13 -20 -13 -24 -1 -24 8 0 12 5 10 12 -3 6 5 20 16 32 17 19 18 22 2 21
-9 0 -24 1 -32 3 -8 2 -14 -2 -13 -8 4 -18 -8 -16 -23 5 -15 20 -15 -2 0 -28
7 -12 6 -13 -4 -3 -20 19 -21 45 -2 59 15 11 13 12 -12 10 -16 -2 -33 -11 -38
-20 -8 -13 -13 -15 -24 -5 -17 14 -19 -2 -1 -21 10 -12 9 -12 -5 -1 -15 11
-19 11 -24 -3 -6 -16 -24 -13 -24 5 0 6 4 8 10 4 5 -3 16 7 24 22 8 15 15 21
16 13 0 -13 1 -13 10 0 6 10 4 20 -7 32 -10 11 -12 18 -5 18 7 0 12 -5 12 -11
0 -5 5 -7 11 -3 7 4 6 11 -5 22 -18 18 -28 12 -31 -20 -2 -36 -16 -69 -25 -63
-5 3 -16 -5 -25 -17 -8 -13 -19 -22 -23 -20 -4 1 -7 -2 -7 -7 0 -5 -3 -13 -7
-17 -5 -4 -8 -2 -8 5 0 7 -7 11 -15 8 -22 -9 -30 14 -10 30 15 10 15 13 4 13
-8 0 -21 -6 -28 -12 -11 -11 -12 -10 -6 1 6 11 4 13 -9 8 -12 -5 -15 -3 -10 5
5 7 7 25 6 40 -2 21 2 28 15 29 14 0 15 2 3 6 -27 11 -30 28 -7 46 12 10 15
17 7 14 -18 -5 -50 10 -50 24 0 6 7 3 16 -6 9 -9 19 -13 23 -9 3 4 0 9 -7 11
-10 4 -10 8 0 21 11 13 11 15 -3 10 -9 -4 -16 -1 -16 8 0 7 4 11 8 9 3 -3 9 4
12 15 3 11 2 19 -2 18 -27 -3 -33 3 -15 17 13 11 14 13 3 9 -10 -3 -19 2 -23
12 -5 12 -10 14 -19 5 -10 -8 -14 -7 -14 4 0 8 4 12 8 10 4 -3 10 2 13 10 3 8
11 14 18 13 18 -4 16 24 -4 54 -12 17 -15 29 -8 33 5 3 10 1 10 -6 0 -7 3 -9
7 -6 8 8 -27 48 -37 42 -9 -6 -6 33 4 42 4 5 7 3 6 -2 -6 -26 0 -40 10 -25 6
9 5 19 -3 29 -7 8 -11 16 -9 18 6 9 1 23 -8 18 -5 -3 -10 -1 -10 4 0 6 6 11
13 11 8 0 8 3 1 8 -17 11 -24 41 -12 48 6 4 8 3 4 -4 -3 -6 -2 -13 3 -16 12
-8 8 13 -7 40 -6 12 -8 24 -5 28 3 3 2 6 -3 6 -6 0 -15 -5 -22 -12 -7 -7 -12
-8 -12 -2 0 5 9 15 21 22 12 7 18 16 15 19 -3 3 -13 0 -23 -8 -9 -8 -14 -9
-10 -2 4 6 4 13 0 16 -5 2 -2 2 5 1 6 -2 12 1 12 7 0 6 5 7 12 3 6 -4 8 -3 4
4 -3 6 -16 9 -29 7 -20 -4 -21 -3 -4 9 21 16 22 32 1 40 -12 4 -15 2 -10 -9 3
-8 1 -15 -4 -15 -11 0 -8 59 4 79 7 10 3 12 -15 6 l-24 -8 25 22 c14 13 19 20
13 16 -7 -3 -13 0 -13 7 -1 7 -12 27 -26 43 -15 17 -23 23 -18 15 4 -8 4 -12
-1 -8 -4 4 -15 2 -24 -4 -9 -7 -5 0 8 15 20 22 22 30 12 40 -10 9 -12 9 -9 -3
2 -9 -5 -15 -19 -16 -13 -1 -23 3 -23 8 0 5 10 6 21 3 14 -5 19 -3 15 3 -4 6
2 16 11 22 17 11 17 11 -1 6 -13 -5 -17 -2 -13 8 4 9 -5 19 -24 26 -16 7 -28
15 -25 17 2 3 14 -1 26 -7 15 -8 20 -8 16 -1 -4 6 -2 11 5 11 7 0 5 6 -6 13
-12 9 -15 19 -10 28 7 12 6 12 -7 1 -12 -10 -18 -10 -27 2 -9 11 -9 16 0 22 7
4 9 3 5 -4 -3 -6 -2 -13 4 -17 6 -4 9 4 8 19 -2 21 -6 25 -23 20 -17 -6 -17
-4 5 15 14 13 20 20 13 17 -6 -4 -14 -2 -18 4 -3 5 0 10 7 10 9 0 10 3 2 8 -6
4 -10 15 -8 25 1 9 -4 17 -11 17 -8 0 -11 11 -9 33 3 22 1 28 -5 17 -6 -8 -7
-18 -5 -22 3 -4 -2 -5 -10 -2 -9 3 -16 10 -16 16 0 5 5 6 10 3 26 -16 5 13
-27 38 -20 15 -30 27 -23 27 7 0 19 -8 27 -17 13 -16 14 -13 10 25 -4 28 -2
40 5 35 7 -3 8 -1 4 6 -4 6 -13 8 -19 4 -8 -4 -8 -2 1 9 10 13 10 17 -4 22 -9
3 -14 13 -10 21 4 11 -1 14 -17 11 -12 -1 -22 -9 -22 -17 0 -8 6 -13 13 -11 8
1 11 -2 7 -9 -5 -8 -12 -6 -23 5 -16 16 0 52 19 40 5 -3 9 2 9 11 0 10 -7 14
-22 12 -13 -2 -18 -2 -12 0 7 2 14 14 17 26 6 22 6 22 -10 2 -15 -20 -15 -20
-10 3 3 14 1 20 -6 15 -7 -4 -8 0 -4 13 7 18 6 18 -7 1 -12 -16 -14 -16 -20
-2 -3 9 -2 13 4 10 6 -3 10 1 10 10 0 9 -4 13 -10 10 -9 -5 -15 15 -11 38 0 4
-4 7 -10 7 -8 0 -7 6 2 17 10 11 10 14 2 9 -12 -7 -18 5 -14 27 1 5 -3 6 -8 3
-5 -4 -12 3 -16 14 -3 11 -11 20 -17 20 -7 0 -6 -5 1 -14 8 -10 9 -16 1 -21
-6 -4 -9 -1 -8 7 2 7 -3 12 -9 10 -21 -4 -15 14 10 27 21 11 20 11 -7 6 -26
-6 -27 -5 -12 10 9 9 16 21 16 28 0 6 -6 3 -13 -8 -10 -13 -16 -15 -21 -6 -6
8 -12 9 -20 2 -9 -8 -13 -7 -13 3 0 15 14 16 36 2 11 -7 13 -5 8 7 -4 10 -1
17 6 17 9 0 8 3 -1 9 -8 4 -13 11 -13 15 3 19 0 26 -10 26 -8 0 -7 -5 1 -15
11 -13 10 -14 -4 -9 -10 4 -15 13 -12 21 7 18 -20 48 -29 33 -3 -5 -11 -10
-17 -10 -5 0 0 9 13 21 13 11 18 18 12 14 -8 -4 -13 0 -13 10 0 9 4 13 10 10
6 -4 7 1 3 11 -4 11 -8 13 -11 6 -7 -23 -22 -12 -18 14 3 16 0 27 -10 31 -7 3
-11 10 -7 16 3 5 1 7 -5 3 -13 -8 -21 5 -24 38 -1 15 -9 26 -16 26 -11 0 -12
-3 -3 -14 6 -7 9 -21 5 -30 -3 -9 -1 -16 5 -16 6 0 11 -4 11 -9 0 -5 -8 -8
-17 -6 -19 3 -19 7 -7 39 5 14 4 17 -5 12 -7 -5 -10 -2 -9 6 2 7 -4 12 -12 10
-8 -2 -12 0 -8 3 4 4 3 16 -2 26 -7 12 -7 20 0 24 6 4 10 3 9 -2 -4 -16 13
-43 23 -37 6 4 5 10 -3 15 -8 4 -14 13 -14 19 0 5 -4 10 -8 9 -4 0 -18 6 -31
15 -18 11 -26 12 -37 3 -11 -10 -11 -9 0 6 12 15 11 17 -5 18 -12 0 -14 3 -6
6 7 3 21 -2 31 -11 16 -15 19 -15 24 -2 4 10 1 13 -7 10 -8 -3 -16 5 -20 21
-4 14 -11 23 -16 20 -6 -3 -10 1 -10 10 0 10 5 13 13 9 8 -6 8 -3 -1 9 -8 9
-17 16 -20 15 -20 -2 -32 3 -27 12 3 6 1 10 -5 10 -6 0 -8 5 -4 13 6 9 5 9 -7
1 -11 -9 -17 -8 -29 4 -13 14 -12 15 2 10 9 -4 19 -1 22 7 3 9 -1 12 -13 10
-15 -3 -18 2 -14 18 4 20 3 20 -11 -3 l-16 -25 6 26 c5 23 3 26 -19 24 -13 -2
-24 2 -24 9 0 7 6 13 13 13 7 0 10 -5 7 -10 -4 -6 -1 -7 7 -2 10 6 10 11 -3
20 -9 7 -15 15 -12 19 3 3 -1 2 -7 -4 -7 -5 -17 -10 -22 -10 -6 0 -4 5 4 10
12 8 12 10 1 10 -11 0 -11 3 -1 15 11 13 10 14 -4 9 -9 -3 -16 -10 -16 -16 0
-5 -5 -6 -11 -2 -8 5 -6 10 5 16 22 12 3 38 -23 33 -10 -2 -18 2 -19 8 -1 10
-6 36 -11 55 -1 1 -9 -2 -19 -7 -14 -7 -19 -6 -19 4 0 8 5 12 11 9 6 -3 3 1
-6 9 -10 8 -15 17 -11 21 4 4 0 4 -10 0 -12 -4 -17 -1 -17 10 0 9 -4 16 -10
16 -5 0 -7 -8 -4 -17 5 -15 4 -16 -5 -3 -8 11 -6 18 7 28 13 11 14 13 2 12
-30 -4 -37 0 -35 23 2 17 -3 23 -17 24 -18 2 -19 1 -4 -10 10 -8 13 -17 7 -26
-6 -9 -11 -10 -15 -2 -4 6 -1 11 6 11 8 0 6 5 -5 11 -18 10 -18 11 0 32 10 11
13 17 6 14 -6 -4 -14 -3 -18 3 -4 6 -11 8 -16 5 -5 -4 -9 2 -10 12 0 16 -1 16
-9 -2 -8 -19 -15 -7 -11 18 1 5 -4 5 -11 1 -15 -10 -42 -15 -34 -7 3 3 1 15
-5 27 -9 17 -7 17 11 -4 12 -14 18 -18 14 -10 -16 32 -26 40 -39 30 -9 -7 -16
-5 -26 7 -13 17 -13 17 6 3 17 -13 17 -12 -3 17 -16 22 -28 30 -42 26 -16 -4
-20 0 -20 18 0 19 -2 21 -10 9 -10 -15 -16 -2 -11 24 1 5 -5 4 -13 -4 -17 -14
-46 1 -46 24 0 6 5 4 10 -4 5 -8 10 -10 10 -4 0 19 -13 24 -28 11 -13 -10 -15
-9 -9 6 6 15 4 16 -13 7 -13 -7 -21 -7 -26 2 -4 6 -3 8 4 4 6 -3 13 -2 16 3 3
5 -6 12 -19 15 -14 4 -24 10 -21 14 3 5 -5 14 -17 22 -20 12 -21 12 -9 -3 9
-10 10 -17 2 -22 -6 -4 -9 -1 -8 7 2 7 -3 12 -10 10 -10 -2 -10 2 -3 16 7 14
6 19 -5 20 -7 1 -21 3 -29 4 -8 1 -12 4 -10 7 2 4 -4 15 -12 26 -15 20 -15 20
-8 -2 4 -14 2 -23 -4 -23 -6 0 -10 3 -10 8 4 22 -3 31 -18 25 -10 -3 -15 -3
-11 2 14 15 -25 35 -41 22 -12 -10 -13 -9 -8 7 5 13 3 17 -7 13 -8 -3 -17 1
-20 10 -5 12 -9 13 -20 4 -11 -9 -15 -7 -20 11 -5 19 -8 20 -16 8 -9 -13 -14
-8 -11 12 0 3 -11 5 -24 3 -18 -2 -22 1 -16 9 7 8 4 12 -10 13 -24 2 -71 38
-61 47 3 4 -1 4 -11 0 -10 -3 -28 1 -43 11 -15 9 -23 11 -19 4 6 -8 4 -10 -4
-5 -7 5 -10 14 -7 21 3 8 -5 12 -25 10 -16 -1 -29 2 -29 7 0 5 -4 6 -10 3 -5
-3 -10 1 -10 9 0 16 -15 22 -23 9 -2 -5 -2 -3 -1 4 2 7 -1 15 -6 18 -6 4 -10
2 -10 -3 0 -5 -7 -9 -15 -9 -11 0 -12 4 -3 14 9 11 7 12 -7 7 -11 -4 -16 -3
-12 2 8 13 -38 33 -54 23 -8 -4 -17 -1 -25 8 -11 17 -58 27 -48 11 3 -4 0 -8
-5 -8 -6 0 -11 7 -11 15 0 8 -5 15 -11 15 -5 0 -7 -6 -3 -12 6 -9 3 -9 -9 0
-9 8 -21 11 -27 7 -5 -3 -10 -2 -10 3 0 6 -13 9 -29 8 -17 -1 -27 2 -24 7 3 5
0 8 -8 5 -8 -3 -20 2 -27 9 -11 11 -17 11 -28 2 -8 -7 -17 -9 -21 -5 -3 3 0 6
8 7 8 0 5 4 -6 8 -11 5 -28 5 -37 0 -11 -6 -19 -5 -24 3 -5 7 -3 8 6 3 9 -5
11 -4 6 3 -9 16 -11 15 -32 -5 -16 -16 -17 -16 -12 -1 4 10 1 19 -10 23 -9 3
-18 2 -20 -4 -4 -12 -30 -4 -57 18 -18 15 -19 15 -7 -1 11 -14 11 -16 -7 -11
-12 3 -19 9 -16 12 2 4 -2 8 -10 8 -8 0 -12 -4 -9 -9 3 -4 0 -8 -5 -8 -6 0
-11 5 -11 10 0 6 -5 10 -11 10 -5 0 -7 -6 -3 -12 5 -9 2 -8 -9 1 -10 8 -20 11
-24 8 -3 -4 -13 -2 -22 3 -10 5 -23 5 -31 0 -17 -10 -42 -1 -34 12 4 6 -2 5
-14 -1 -24 -13 -35 -14 -28 -3 2 4 -4 8 -14 8 -15 0 -17 -3 -7 -15 10 -12 9
-13 -10 -2 -13 6 -23 8 -23 4 0 -4 -5 -1 -10 7 -9 13 -10 13 -10 0 0 -13 -1
-13 -10 0 -8 12 -10 12 -10 1 0 -11 -3 -11 -17 0 -15 12 -16 12 -10 -5 6 -16
5 -17 -8 -6 -8 7 -15 9 -15 4 0 -5 -7 -1 -14 9 -13 17 -14 17 -20 0z m-176
-1268 c0 4 8 1 17 -6 14 -12 16 -12 11 2 -4 10 -1 16 8 16 9 0 13 -7 9 -21 -3
-12 -2 -15 1 -8 5 10 9 10 22 0 15 -11 15 -11 4 4 -10 12 -10 18 -1 24 8 4 9
3 5 -4 -5 -8 0 -12 13 -12 12 0 21 -4 21 -8 0 -4 11 -8 24 -8 14 0 22 4 20 8
-8 13 6 9 21 -6 11 -10 24 -12 50 -6 22 5 37 4 42 -3 4 -6 1 -7 -7 -2 -9 5
-11 4 -6 -4 4 -6 13 -8 19 -4 26 16 47 10 41 -11 -3 -12 -2 -16 3 -9 10 13 76
26 67 12 -3 -5 -11 -6 -17 -2 -7 4 -5 -1 3 -11 14 -18 15 -17 28 2 13 19 52
20 52 1 0 -10 36 -7 46 4 12 12 26 8 18 -5 -4 -7 -3 -8 5 -4 6 4 9 12 6 17 -3
5 1 6 9 3 9 -3 14 -10 11 -14 -3 -5 3 -7 12 -5 10 2 22 4 26 4 5 1 5 7 1 14
-4 6 3 3 15 -8 13 -11 25 -19 27 -17 12 7 25 0 21 -11 -3 -8 1 -14 9 -14 7 0
11 5 8 11 -3 6 1 3 9 -6 8 -10 20 -18 26 -18 7 0 9 -5 5 -12 -4 -7 -3 -8 4 -4
6 4 9 14 6 24 -2 9 1 7 7 -5 8 -16 21 -23 41 -23 15 0 28 -4 28 -10 0 -5 7
-10 16 -10 8 0 12 5 9 10 -3 6 10 1 29 -11 44 -25 48 -36 6 -14 -16 9 -30 13
-30 10 0 -3 0 -8 0 -12 0 -4 6 -8 13 -9 43 -4 63 -20 58 -48 -1 -5 4 -4 12 2
16 13 47 6 47 -10 0 -6 -6 -5 -15 2 -8 7 -15 10 -15 6 0 -3 0 -9 0 -13 0 -8 4
-9 35 -12 8 0 15 -7 15 -15 0 -8 7 -17 16 -20 9 -4 14 -13 10 -22 -3 -8 -2
-13 3 -9 5 3 11 2 14 -2 2 -5 2 -2 0 5 -1 7 2 10 7 7 6 -3 10 -16 10 -28 1
-21 1 -21 16 3 8 14 13 17 10 8 -3 -9 2 -22 9 -28 8 -7 12 -17 8 -24 -3 -6 4
-2 16 9 12 11 22 15 21 10 -6 -27 1 -37 21 -32 12 3 18 3 15 0 -10 -10 15 -33
28 -26 6 4 5 -1 -3 -10 -17 -21 11 -36 33 -18 11 9 16 9 22 0 4 -7 3 -9 -2 -6
-6 3 -16 -4 -24 -16 -12 -21 -12 -21 5 -7 17 14 18 13 11 -5 -6 -16 -5 -18 5
-7 25 24 32 11 8 -15 -19 -22 -20 -24 -3 -10 13 11 23 14 25 8 2 -6 16 -12 30
-13 23 -2 26 -5 19 -23 -6 -15 -4 -22 5 -22 7 0 11 6 8 14 -3 7 1 13 8 13 7 0
10 -3 6 -6 -3 -4 0 -19 8 -34 8 -15 11 -31 7 -35 -4 -5 -2 -5 5 -1 7 4 10 14
7 24 -4 12 -2 11 7 -3 15 -25 30 -35 41 -29 4 3 8 0 8 -5 0 -13 -6 -14 -29 -2
-12 7 -18 6 -18 -2 0 -7 9 -14 19 -15 40 -4 45 -6 45 -19 0 -9 -4 -10 -13 -2
-7 6 -19 7 -25 3 -8 -4 -9 -3 -5 4 5 8 2 10 -8 6 -20 -8 -10 -26 11 -22 9 2
18 -3 21 -11 3 -8 0 -11 -7 -7 -7 4 -9 1 -5 -8 5 -13 9 -12 27 4 11 11 23 18
26 15 2 -3 -4 -12 -15 -21 -10 -8 -14 -13 -8 -10 7 3 18 -2 25 -12 13 -16 13
-16 -5 -2 -18 14 -19 13 -14 -1 4 -9 2 -22 -3 -28 -5 -6 -6 -9 -3 -6 11 8 34
-16 28 -29 -3 -6 1 -3 9 7 17 21 24 22 24 2 0 -8 -4 -12 -9 -9 -4 3 -8 -4 -8
-15 0 -12 4 -21 10 -21 5 0 9 -3 9 -7 -3 -21 2 -33 12 -27 8 4 7 9 -2 15 -12
7 -11 9 1 9 12 1 12 3 -3 14 -17 13 -16 14 3 19 11 3 23 0 27 -5 3 -7 1 -8 -5
-4 -7 4 -12 3 -12 -3 0 -5 5 -13 11 -17 8 -4 8 -9 0 -17 -17 -17 -13 -27 8
-27 24 0 36 -16 20 -26 -8 -4 -9 -3 -5 4 4 7 3 12 -2 12 -6 0 -12 -7 -16 -15
-3 -8 -2 -14 2 -14 21 3 42 -2 42 -11 0 -5 -8 -7 -17 -4 -15 5 -16 4 -3 -5 11
-8 18 -7 27 5 10 14 12 14 10 -5 -1 -11 -7 -21 -14 -21 -17 0 -25 -17 -12 -26
8 -4 9 -3 5 4 -4 7 -1 12 9 12 9 0 14 -4 10 -9 -3 -5 0 -13 6 -17 7 -4 9 -3 5
4 -3 6 -2 13 4 17 9 6 15 -17 10 -40 -1 -5 2 -7 5 -3 4 4 17 2 29 -4 11 -7 25
-11 29 -10 5 1 6 -2 2 -8 -5 -8 -11 -8 -20 0 -10 8 -15 8 -21 -1 -4 -7 -3 -9
3 -6 6 4 14 0 17 -9 5 -12 2 -15 -10 -10 -15 6 -15 4 1 -20 15 -24 15 -26 2
-21 -9 3 -18 3 -21 -1 -2 -4 6 -9 20 -10 24 -2 33 12 14 23 -10 6 11 35 26 35
5 0 3 -5 -4 -12 -15 -15 -16 -32 -1 -22 8 5 8 1 0 -13 -15 -29 0 -38 17 -11
10 18 12 19 7 3 -17 -48 -18 -58 -7 -51 7 4 12 2 12 -3 0 -13 -3 -13 -24 -5
-8 3 -12 13 -9 22 4 15 3 15 -7 2 -10 -13 -11 -13 -7 1 3 9 0 16 -6 16 -7 0
-13 -12 -14 -25 0 -14 2 -20 6 -14 4 6 21 -3 43 -24 21 -19 35 -34 31 -34 -4
0 2 -6 13 -14 15 -12 17 -17 7 -27 -11 -11 -15 -10 -25 0 -11 11 -10 13 5 8
21 -8 23 8 2 17 -8 3 -15 1 -15 -5 0 -6 -6 -7 -12 -3 -9 5 -9 2 1 -9 11 -14
11 -17 0 -18 -10 0 -11 -2 -1 -6 6 -2 12 -11 12 -19 0 -8 5 -14 11 -14 5 0 8
4 4 9 -3 6 3 15 14 21 20 10 41 -3 27 -17 -3 -4 -6 -1 -6 5 0 6 -7 9 -15 6
-11 -5 -12 -9 -2 -19 7 -7 17 -10 22 -7 6 3 5 -1 -1 -9 -16 -21 -14 -51 4 -44
22 8 33 -4 23 -24 -6 -10 -6 -23 -1 -31 10 -16 -7 -43 -21 -35 -4 3 -7 -4 -6
-15 1 -11 7 -20 14 -20 6 0 14 -4 17 -9 7 -10 -26 -9 -34 1 -3 4 -12 -2 -19
-14 -12 -19 -11 -20 5 -14 14 5 11 -1 -9 -21 -29 -31 -34 -43 -16 -43 5 0 8 4
5 8 -2 4 4 14 15 20 18 12 19 11 10 -6 -11 -21 2 -52 14 -33 5 9 11 9 23 -1
12 -10 14 -10 8 0 -4 7 -2 12 4 12 6 0 8 5 5 11 -4 6 2 5 14 -3 12 -7 24 -21
27 -30 3 -11 11 -15 22 -12 14 5 15 4 2 -5 -13 -9 -8 -15 11 -13 3 1 6 -6 6
-13 0 -11 -4 -12 -13 -4 -9 8 -11 5 -7 -12 5 -17 3 -20 -7 -14 -9 5 -11 4 -6
-4 4 -6 2 -20 -5 -29 -11 -14 -11 -15 1 -5 19 17 53 -2 45 -27 -3 -10 -1 -21
5 -25 5 -3 10 -11 10 -16 0 -6 -4 -8 -8 -5 -4 2 -9 -4 -9 -15 -1 -10 2 -19 8
-19 5 0 8 5 7 11 -2 6 2 13 7 15 6 2 11 -5 11 -16 0 -18 -8 -24 -27 -22 -3 1
-6 -6 -6 -14 0 -7 4 -14 9 -14 4 0 8 5 8 10 0 6 4 10 8 10 5 0 9 -7 9 -15 0
-14 -11 -20 -31 -16 -5 1 -3 -6 4 -16 22 -28 24 -29 17 -11 -4 12 -1 16 14 15
21 -1 27 -17 7 -17 -7 -1 -2 -7 12 -15 14 -7 25 -17 25 -22 0 -4 4 -7 9 -5 5
2 6 -4 3 -12 -4 -10 -1 -13 9 -9 11 4 12 9 3 19 -6 8 -16 11 -23 7 -6 -4 -5 1
3 10 13 17 6 23 -22 18 -4 -1 -3 8 4 20 9 17 8 20 -3 13 -9 -6 -9 -3 2 11 11
14 12 19 2 22 -6 3 -9 9 -6 15 4 6 10 5 15 -3 6 -10 8 -7 6 8 0 12 -5 19 -11
16 -5 -3 -6 -1 -2 5 10 17 19 15 34 -9 8 -12 9 -18 4 -15 -6 3 -9 -5 -8 -19 1
-19 5 -23 19 -19 9 3 17 0 17 -6 0 -6 -4 -8 -10 -5 -5 3 -10 2 -10 -4 0 -15
18 -23 25 -11 7 11 61 7 73 -5 3 -3 -12 -3 -34 1 -21 3 -36 3 -32 -2 4 -4 3
-13 -3 -20 -9 -11 -6 -16 12 -24 22 -9 22 -10 3 -7 -23 2 -64 -28 -64 -47 0
-6 5 -5 12 2 22 22 29 13 8 -10 -11 -12 -17 -24 -12 -27 11 -9 11 -61 -1 -61
-6 0 -8 -3 -5 -6 4 -3 16 -1 27 6 26 13 27 6 2 -19 -11 -11 -23 -16 -27 -13
-4 4 -4 1 1 -7 7 -12 10 -11 22 4 7 11 13 15 13 9 1 -12 29 38 29 51 1 6 -4 3
-9 -5 -6 -9 -10 -10 -10 -3 0 6 5 15 10 18 16 10 12 25 -5 19 -8 -4 -15 -15
-15 -25 0 -10 -4 -19 -8 -19 -17 0 -6 40 13 47 38 13 42 11 38 -16 -2 -14 -4
-34 -4 -44 0 -9 -4 -15 -10 -12 -5 4 -9 -3 -9 -14 0 -13 7 -21 18 -21 10 0 13
-3 6 -8 -18 -12 -23 -39 -11 -52 10 -10 8 -11 -8 -6 -14 5 -17 4 -9 -4 18 -18
45 -1 34 20 -13 24 -13 30 0 30 6 0 9 -3 9 -7 -4 -24 3 -35 19 -31 11 3 19 0
19 -7 0 -7 -8 -10 -17 -8 -9 2 -22 -3 -29 -11 -11 -13 -11 -16 -1 -16 9 0 9
-4 -1 -17 -11 -13 -11 -15 -1 -9 9 6 12 3 10 -10 -2 -11 2 -18 10 -16 6 1 12
-3 12 -10 0 -7 6 -6 18 4 38 33 44 29 7 -6 -23 -21 -30 -32 -18 -27 26 13 63
3 41 -10 -19 -13 -36 -11 -18 2 13 9 13 10 0 6 -8 -2 -14 -10 -12 -16 1 -6 -2
-11 -6 -11 -5 0 -9 -6 -9 -14 0 -8 6 -12 15 -8 9 3 13 1 9 -5 -4 -6 -1 -14 5
-16 10 -4 10 -8 -1 -15 -8 -6 -9 -12 -3 -16 6 -3 13 2 17 13 7 22 37 32 56 20
8 -5 10 -9 6 -9 -5 0 -1 -7 7 -16 9 -8 16 -19 16 -24 0 -5 -11 2 -25 16 -25
25 -65 19 -49 -8 3 -5 11 -5 19 2 13 11 41 -11 28 -23 -3 -4 2 -7 12 -7 18 0
18 -1 0 -14 -11 -8 -23 -12 -27 -10 -5 3 -8 -3 -8 -13 0 -15 -2 -16 -10 -3 -6
9 -10 10 -10 3 0 -20 16 -23 36 -8 10 8 24 14 29 14 6 0 2 -4 -8 -10 -15 -9
-16 -13 -5 -27 10 -12 10 -14 1 -8 -7 4 -13 2 -13 -3 0 -6 7 -11 15 -11 8 0
15 -6 15 -12 0 -10 3 -9 9 1 7 11 10 9 16 -8 3 -12 10 -19 14 -16 11 6 8 -56
-2 -73 -9 -13 -27 -7 -27 9 0 6 6 7 13 3 6 -4 9 -4 5 1 -4 4 -3 16 2 26 11 19
-4 37 -15 19 -4 -6 -12 -7 -18 -3 -7 4 -6 -1 2 -10 12 -15 11 -20 -5 -38 -17
-19 -17 -20 2 -14 17 6 16 4 -3 -13 l-23 -20 24 2 c13 0 23 6 21 11 -1 6 0 6
3 1 2 -4 8 -2 13 5 6 10 9 10 9 2 0 -7 7 -10 18 -7 14 5 15 4 2 -5 -8 -6 -10
-11 -5 -11 6 0 2 -5 -8 -11 -17 -10 -17 -12 -1 -30 16 -17 15 -18 -4 -14 -16
3 -19 0 -15 -13 6 -15 5 -15 -13 -2 -12 9 -15 9 -7 1 6 -7 9 -21 6 -30 -4 -9
3 -5 15 9 23 27 29 21 11 -12 -8 -15 -8 -19 0 -14 6 4 11 4 12 -1 0 -4 2 -16
4 -26 2 -13 -1 -17 -11 -13 -11 4 -10 -1 3 -21 10 -15 12 -24 6 -20 -7 5 -13
4 -13 -2 0 -6 8 -11 18 -12 10 0 12 -3 5 -6 -20 -8 -15 -30 8 -36 15 -4 19 -2
15 9 -3 9 -1 12 5 9 5 -4 7 -16 3 -27 -5 -17 -3 -20 10 -15 9 4 16 2 16 -3 0
-6 -8 -10 -17 -10 -15 0 -16 -2 -3 -9 8 -6 18 -7 24 -4 5 3 6 1 2 -5 -3 -6
-19 -9 -34 -6 -19 3 -23 2 -12 -5 8 -5 18 -7 22 -5 4 3 8 -2 8 -10 0 -15 12
-21 33 -17 5 1 6 -3 2 -9 -4 -7 -12 -7 -25 0 -24 13 -30 13 -30 0 0 -5 8 -10
18 -11 12 0 13 -2 3 -6 -10 -4 -5 -10 15 -18 l29 -13 -29 1 c-18 1 -31 -4 -33
-13 -4 -13 -3 -13 6 0 8 11 11 12 11 2 0 -7 4 -10 10 -7 6 4 7 -1 3 -11 -5
-14 -3 -15 15 -5 15 8 23 8 28 -1 4 -6 3 -8 -2 -5 -6 3 -16 2 -24 -3 -8 -5
-19 -5 -25 0 -8 7 -12 5 -12 -5 0 -8 3 -12 7 -10 4 3 16 -5 26 -16 13 -15 14
-20 4 -17 -8 2 -14 -2 -15 -9 0 -6 -3 -15 -7 -19 -17 -16 -7 -26 10 -11 15 14
19 15 19 2 0 -8 -4 -12 -9 -9 -4 3 -8 -4 -8 -16 0 -12 -4 -19 -9 -15 -5 3 -13
0 -17 -6 -4 -7 -3 -10 2 -7 5 3 18 2 29 -3 18 -7 18 -8 -5 -9 l-25 -2 25 -8
c15 -5 18 -8 8 -9 -10 -1 -15 -8 -13 -18 15 -74 14 -95 -3 -81 -14 12 -14 10
1 -12 18 -25 23 -45 10 -37 -5 3 -7 -16 -7 -41 1 -26 -3 -55 -8 -66 -7 -13 -7
-16 1 -12 6 4 11 2 11 -3 0 -6 -6 -11 -12 -11 -7 -1 -2 -8 12 -16 23 -14 23
-15 3 -11 -15 3 -20 1 -16 -9 2 -7 12 -10 21 -8 14 5 14 4 -1 -6 -9 -6 -14
-16 -11 -22 4 -7 2 -8 -4 -4 -7 4 -12 2 -12 -3 0 -6 5 -11 10 -11 6 0 10 -5
10 -11 0 -5 -6 -7 -12 -3 -9 5 -9 3 1 -9 7 -9 18 -14 24 -10 6 3 7 1 3 -5 -4
-7 -2 -12 5 -12 7 0 9 -3 6 -6 -4 -4 -13 -2 -20 4 -10 9 -18 8 -33 -3 -18 -13
-18 -14 5 -8 18 5 22 2 19 -8 -3 -8 -12 -13 -19 -11 -11 3 -12 1 -1 -9 9 -10
15 -10 24 -1 23 23 27 12 5 -11 -12 -13 -26 -21 -31 -19 -5 3 -6 0 -2 -7 4 -6
2 -18 -4 -26 -9 -11 -7 -19 9 -36 15 -16 18 -26 10 -35 -7 -9 -5 -16 8 -26 10
-7 19 -22 21 -33 2 -20 2 -20 -10 0 -20 34 -58 71 -58 57 0 -7 -4 -11 -10 -7
-5 3 -6 13 -3 23 3 9 3 14 -1 11 -12 -11 -17 -57 -6 -64 6 -4 7 -12 4 -18 -4
-7 -3 -8 2 -4 5 5 10 13 10 18 1 5 2 14 3 20 0 5 6 7 12 3 8 -4 7 -9 -2 -15
-8 -5 -10 -9 -6 -9 4 0 3 -9 -3 -20 -6 -11 -16 -17 -22 -14 -6 4 -8 3 -4 -4 3
-5 1 -12 -6 -14 -10 -4 -23 -48 -14 -48 26 0 35 13 19 27 -17 14 -17 14 0 9
12 -4 16 -2 11 6 -4 7 -3 8 5 4 6 -4 9 -11 6 -16 -3 -5 3 -14 12 -20 13 -8 14
-10 3 -9 -36 3 -41 0 -30 -21 6 -11 16 -20 22 -20 7 0 6 5 -2 15 -9 10 -9 15
-1 15 6 0 11 -4 11 -10 0 -5 5 -10 11 -10 5 0 7 5 4 10 -3 6 -2 10 3 10 15 0
22 -26 10 -38 -6 -6 -7 -16 -2 -24 5 -7 7 -21 6 -30 -2 -13 2 -16 15 -12 14 5
15 4 3 -4 -17 -13 -30 -6 -30 14 0 8 -4 14 -10 14 -18 0 -10 -29 12 -44 12 -9
19 -16 14 -16 -17 0 -52 36 -49 50 4 13 3 13 -7 0 -9 -13 -10 -13 -8 2 2 9 -1
16 -7 15 -5 -1 -10 -10 -10 -19 -2 -23 -15 -36 -15 -15 0 9 -4 18 -9 21 -5 3
-8 -6 -8 -19 0 -14 3 -28 8 -31 5 -3 9 -10 9 -16 0 -6 -7 -5 -17 3 -10 7 -15
9 -11 5 4 -5 0 -15 -10 -23 -16 -12 -16 -13 3 -7 17 5 16 2 -5 -16 l-25 -23
25 8 c22 7 24 6 11 -9 -11 -13 -11 -20 -3 -28 9 -9 12 -9 12 1 0 8 6 11 16 7
8 -3 13 -2 10 3 -10 15 19 42 37 35 21 -8 21 -23 1 -49 -15 -19 -15 -19 -12
-1 2 10 -2 21 -9 23 -8 3 -10 -4 -7 -21 2 -15 0 -26 -6 -26 -6 0 -8 -4 -5 -10
3 -5 1 -18 -5 -29 -6 -12 -6 -22 -1 -26 5 -3 13 4 16 16 7 21 25 10 25 -16 0
-5 -4 -4 -9 3 -8 13 -25 -18 -22 -40 0 -4 -9 -5 -22 -2 -61 14 -68 14 -62 5 3
-6 -3 -18 -14 -27 -10 -9 -17 -23 -14 -30 6 -17 -6 -18 -27 -3 -13 9 -12 10 3
5 11 -3 16 -2 12 5 -4 5 -15 7 -26 4 -15 -5 -18 -3 -13 12 6 15 5 15 -9 -2 -9
-12 -12 -24 -7 -31 10 -11 -24 -47 -35 -36 -3 4 -3 -2 1 -12 4 -11 2 -21 -7
-27 -11 -7 -11 -9 -1 -9 7 0 10 -5 6 -12 -4 -7 -3 -8 5 -4 6 4 14 0 17 -9 6
-13 8 -14 15 -3 13 20 11 31 -6 25 -8 -4 -17 -2 -19 2 -3 5 6 8 21 7 14 0 28
4 30 11 3 8 -4 10 -21 7 -15 -2 -26 0 -26 6 0 6 5 8 12 4 7 -4 8 -3 4 4 -4 7
1 10 14 7 13 -3 18 0 14 7 -5 7 -2 8 7 3 8 -5 5 1 -5 13 -11 12 -15 22 -10 22
13 0 41 -20 29 -20 -5 0 -2 -7 8 -14 15 -12 15 -14 2 -19 -8 -4 -12 -13 -9
-22 3 -8 11 -12 17 -8 6 3 3 -4 -6 -17 -11 -17 -13 -27 -6 -36 7 -8 6 -15 -2
-20 -8 -4 -9 -3 -5 4 4 7 3 12 -3 12 -6 0 -9 -13 -7 -30 2 -22 -1 -30 -13 -31
-12 0 -12 -2 -2 -6 11 -5 11 -7 0 -14 -10 -6 -11 -9 -1 -9 6 0 12 -5 12 -11 0
-5 -4 -7 -10 -4 -9 5 -15 -24 -11 -48 1 -5 -4 -6 -11 -2 -7 4 -5 0 5 -8 9 -8
17 -18 17 -22 0 -4 -7 -2 -16 6 -19 16 -40 -10 -35 -43 0 -5 -5 -8 -12 -8 -8
0 -7 -4 3 -10 13 -8 12 -10 -3 -10 -15 0 -16 -2 -5 -14 7 -8 17 -11 22 -8 5 3
6 0 2 -6 -3 -6 -2 -13 4 -17 6 -4 7 -12 3 -18 -3 -7 4 -3 16 8 22 19 23 19 20
1 -2 -10 1 -21 7 -23 5 -2 10 8 10 21 0 14 -4 22 -8 20 -17 -10 -7 15 10 26
16 11 16 11 0 6 -18 -6 -24 11 -10 29 13 18 35 17 28 -1 -5 -14 -4 -15 8 -5 8
7 19 10 24 7 5 -3 8 8 7 24 -1 16 1 27 6 25 4 -3 6 3 4 15 -2 11 0 22 5 25 5
3 7 -4 5 -15 -2 -11 2 -20 8 -20 9 0 9 -2 0 -8 -7 -4 -14 -19 -16 -32 -2 -13
-13 -31 -25 -40 -12 -10 -18 -21 -14 -25 4 -5 1 -5 -5 -1 -13 7 -14 4 -17 -36
-1 -23 -20 -35 -31 -19 -3 6 -11 11 -17 11 -6 0 -6 -6 2 -15 7 -9 10 -18 6
-22 -3 -3 -6 -1 -6 6 0 7 -5 9 -11 6 -6 -4 -8 -14 -5 -22 3 -8 2 -11 -3 -8 -5
3 -13 -4 -16 -16 -6 -16 -9 -18 -15 -8 -5 8 -23 12 -45 11 -34 -3 -36 -1 -30
20 4 16 3 19 -3 9 -7 -10 -14 -11 -28 -2 -14 8 -15 11 -4 11 13 0 13 1 0 10
-9 6 -17 5 -23 -3 -6 -8 -7 -6 -3 6 4 12 0 17 -14 17 -10 0 -21 4 -25 9 -3 6
6 6 25 1 16 -5 30 -6 30 -2 0 4 5 0 10 -8 5 -8 10 -10 10 -4 0 14 -25 36 -32
29 -3 -3 -4 6 -3 20 2 14 -1 23 -6 19 -5 -3 -7 -10 -4 -15 4 -5 1 -9 -5 -9 -8
0 -10 10 -6 28 6 27 6 27 -7 4 -12 -21 -15 -22 -27 -7 -11 13 -10 15 6 9 10
-4 16 -4 12 1 -4 4 -3 16 2 26 13 24 -4 34 -21 12 -10 -12 -10 -14 -1 -9 18
11 15 3 -7 -16 -18 -16 -20 -15 -18 3 1 10 5 19 9 19 4 0 8 5 8 11 0 6 -9 8
-22 4 -18 -5 -20 -4 -8 4 12 9 13 11 1 11 -8 0 -12 3 -9 6 4 3 15 1 27 -5 13
-7 22 -8 26 -1 3 5 -1 10 -10 10 -9 0 -13 5 -10 10 4 6 11 7 17 4 7 -4 8 -2 4
4 -4 7 -17 17 -29 22 -21 11 -21 11 -3 -4 11 -9 14 -16 8 -16 -7 0 -15 0 -19
0 -5 0 -9 12 -9 27 -1 16 -3 30 -4 33 -1 3 -2 8 -1 13 0 4 -4 7 -10 7 -6 0 -8
-8 -5 -17 4 -11 -1 -8 -13 7 -17 21 -21 22 -37 10 -10 -8 -15 -10 -11 -3 4 6
3 14 -3 18 -5 3 -10 12 -10 18 0 7 4 6 11 -3 8 -12 10 -12 7 -1 -2 8 -12 15
-22 17 -24 3 -26 6 -28 37 -1 16 -6 23 -13 18 -18 -13 -35 -6 -49 21 -10 19
-11 30 -4 34 6 4 8 2 4 -4 -3 -6 -1 -14 5 -18 9 -5 10 0 5 17 -4 13 -8 29 -8
36 -1 7 -4 12 -7 11 -20 -2 -31 4 -31 18 0 9 5 12 12 8 7 -4 8 -3 4 5 -4 6
-11 9 -16 6 -4 -3 -10 0 -12 7 -3 7 -7 5 -11 -6 -5 -11 -3 -15 5 -10 6 4 8 3
4 -4 -3 -5 6 -19 20 -30 20 -14 24 -21 14 -27 -9 -5 -11 -4 -6 3 6 11 -6 16
-26 13 -5 0 -7 5 -5 12 1 6 -3 11 -9 10 -6 -1 -10 10 -9 25 2 39 -4 52 -27 52
-10 0 -16 -5 -13 -10 4 -6 10 -8 15 -5 5 3 11 2 14 -3 2 -4 -4 -8 -14 -9 -21
-2 -36 23 -39 65 0 11 -13 24 -27 30 -14 7 -22 17 -19 22 3 6 1 10 -6 10 -8 0
-8 4 -1 13 8 10 6 13 -8 14 -11 1 -22 -2 -25 -8 -3 -5 0 -7 7 -6 7 2 9 2 4 -1
-4 -2 -2 -8 5 -13 12 -7 11 -9 -1 -9 -8 -1 0 -9 19 -19 32 -17 51 -51 29 -51
-6 0 -7 7 -4 16 4 10 2 14 -6 11 -7 -2 -12 -10 -11 -16 2 -6 -2 -11 -7 -11
-14 0 -13 13 3 29 10 11 9 13 -6 8 -11 -4 -16 -3 -12 3 9 14 -8 12 -24 -2 -11
-11 -12 -10 -5 2 12 22 14 40 2 40 -5 0 -6 9 -3 21 5 16 4 19 -5 14 -10 -6
-11 -1 -6 19 6 24 4 27 -13 21 -11 -3 -23 0 -27 6 -5 9 -11 7 -21 -6 -7 -11
-13 -14 -13 -9 0 6 5 15 12 22 8 8 8 15 -1 26 -7 8 -10 19 -7 24 7 12 -18 35
-27 25 -4 -3 -5 8 -3 25 2 18 -1 29 -6 26 -5 -3 -8 -11 -5 -18 2 -6 -5 -19
-15 -28 -10 -10 -18 -14 -18 -9 0 6 5 13 10 16 16 10 11 21 -10 22 -13 1 -18
-2 -14 -9 4 -7 2 -8 -5 -4 -15 10 -3 29 15 22 7 -3 16 0 20 6 4 7 3 8 -5 4 -6
-4 -14 0 -17 9 -6 13 -8 14 -15 3 -7 -10 -9 -10 -9 2 0 9 6 22 13 29 10 10 8
11 -7 5 -14 -5 -17 -4 -12 5 4 6 4 11 -1 10 -19 -3 -32 2 -36 14 -2 6 -3 5 -2
-4 2 -12 -3 -15 -16 -12 -11 3 -19 10 -19 15 0 5 5 6 10 3 6 -3 10 -2 10 3 0
15 -28 22 -34 9 -3 -7 -3 -2 0 10 5 23 -14 39 -58 47 -13 3 -25 5 -28 6 -3 2
-8 2 -12 1 -8 -1 -5 19 6 39 4 8 -1 5 -12 -7 -17 -19 -21 -20 -26 -7 -3 8 -2
12 4 9 5 -3 7 0 4 8 -5 14 -31 16 -52 3 -8 -5 -11 -3 -10 6 2 7 -2 12 -8 11
-6 -1 -10 9 -8 23 1 14 0 23 -3 20 -3 -3 -13 3 -22 12 -9 10 -12 12 -8 5 5 -6
6 -17 3 -22 -4 -5 -1 -13 5 -17 8 -5 9 -3 4 7 -5 8 -5 11 -1 7 12 -10 8 -22
-9 -24 -8 -1 -13 2 -9 7 5 8 -10 13 -29 10 -5 -1 -6 3 -2 9 3 6 11 8 16 5 5
-4 9 -1 9 5 0 7 -8 9 -20 5 -11 -3 -20 -2 -20 3 0 6 -7 13 -16 16 -14 5 -15 4
-4 -9 11 -13 10 -14 -6 -8 -17 6 -18 5 -4 -13 14 -18 14 -18 -4 -4 -15 12 -20
12 -24 2 -3 -10 -7 -10 -20 0 -14 11 -15 10 -9 -7 7 -19 6 -19 -7 -2 -10 13
-15 15 -19 5 -3 -7 -4 -3 -4 9 1 12 5 19 11 16 5 -4 6 0 1 8 -7 11 -5 11 10
-1 10 -8 16 -10 13 -5 -4 6 3 12 14 12 20 2 20 1 2 -12 -21 -16 -7 -20 16 -5
13 9 13 12 -2 24 -10 7 -15 16 -12 19 3 3 -2 4 -13 3 -10 -2 -25 2 -33 8 -13
9 -13 9 -2 -5 13 -17 -7 -47 -21 -32 -12 11 -8 25 5 17 7 -5 8 -3 3 6 -6 10
-10 10 -20 -3 -11 -15 -13 -15 -27 0 -15 14 -18 14 -41 -3 -13 -11 -22 -26
-20 -34 4 -13 3 -13 -6 0 -7 10 -6 19 5 31 8 8 11 19 7 22 -3 4 1 7 9 7 9 0
18 7 22 15 5 13 2 13 -19 -1 -14 -9 -23 -20 -20 -24 3 -5 1 -11 -5 -15 -19
-12 -50 -14 -56 -3 -5 7 -2 8 6 3 8 -5 11 -3 8 6 -3 8 -10 13 -16 12 -6 -2
-14 6 -17 17 -4 11 -11 20 -16 20 -6 0 -7 -4 -4 -10 3 -6 -1 -7 -10 -3 -10 3
-12 8 -7 12 7 4 6 12 -2 23 -7 10 -15 16 -17 13 -5 -4 -8 20 -10 68 0 16 -11
22 -32 18 -5 -1 -6 3 -2 8 3 6 13 8 23 5 16 -5 16 -5 0 6 -10 6 -15 17 -11 26
4 11 0 15 -13 14 -36 -4 -52 0 -58 15 -5 13 -2 13 18 -1 20 -12 26 -13 32 -2
4 7 4 10 -1 6 -10 -10 -47 10 -40 22 3 5 0 12 -6 16 -8 4 -9 3 -5 -4 4 -7 1
-12 -8 -12 -9 0 -16 -4 -16 -10 0 -5 -5 -10 -12 -10 -6 0 -4 8 6 19 13 14 14
21 5 27 -8 4 -10 3 -5 -4 4 -7 2 -12 -3 -12 -6 0 -11 5 -11 10 0 6 -5 10 -11
10 -5 0 -8 -4 -5 -8 3 -5 -1 -9 -9 -9 -11 0 -12 5 -3 21 9 18 9 19 -3 10 -8
-5 -21 -10 -29 -9 -8 1 -21 3 -27 3 -7 1 -13 9 -13 18 0 14 -2 15 -17 3 -13
-11 -15 -11 -9 -1 6 9 3 12 -10 10 -11 -2 -18 2 -17 7 1 6 -19 10 -45 9 -26 0
-53 4 -59 9 -9 6 -13 5 -13 -4 0 -12 -2 -12 -9 0 -5 7 -14 10 -20 7 -7 -5 -10
-2 -9 5 2 9 -8 14 -29 14 -18 1 -30 -2 -27 -7 3 -5 10 -6 15 -3 5 3 6 -1 2
-10 -3 -9 -9 -13 -12 -7 -9 13 -50 22 -56 12 -3 -5 -14 -7 -25 -5 -13 3 -20
-2 -20 -12 0 -13 3 -13 15 -3 13 11 14 10 9 -4 -3 -9 -10 -16 -14 -16 -13 0
-30 26 -22 36 4 4 -1 2 -11 -6 -18 -13 -18 -15 5 -33 l23 -18 -24 11 c-19 10
-26 9 -33 -1 -8 -11 -9 -10 -4 4 8 26 -10 21 -34 -11 -12 -15 -19 -21 -15 -14
3 6 1 12 -4 12 -6 0 -11 -7 -11 -16 0 -11 -6 -14 -17 -10 -16 5 -15 4 1 -9 10
-8 23 -12 27 -9 5 3 9 0 9 -6 0 -7 -6 -10 -14 -7 -10 4 -13 0 -11 -14 3 -16 1
-18 -9 -10 -11 9 -13 6 -10 -16 1 -15 -2 -35 -7 -44 -6 -11 -5 -19 2 -21 5 -2
11 -12 13 -23 2 -13 10 -19 21 -17 17 3 17 3 0 -14 -14 -14 -15 -19 -4 -23 8
-3 15 -15 17 -26 l4 -20 -17 20 c-16 20 -16 20 -6 -1 6 -12 8 -24 5 -26 -3 -3
2 -8 11 -12 11 -4 14 -2 9 7 -6 9 -5 9 8 0 8 -7 18 -10 21 -6 4 3 7 1 7 -6 0
-8 -7 -11 -15 -7 -9 3 -15 0 -15 -10 0 -8 4 -13 9 -9 5 3 13 0 17 -6 4 -8 3
-9 -4 -5 -7 4 -12 2 -12 -4 0 -6 -5 -8 -12 -4 -7 4 -8 3 -4 -5 4 -6 12 -9 17
-5 6 3 17 -2 24 -12 12 -17 12 -21 -3 -32 -16 -13 -15 -13 3 -12 39 4 44 0 40
-29 -4 -36 22 -51 44 -24 13 17 13 17 8 0 -4 -10 -1 -17 6 -17 8 0 8 -3 2 -8
-6 -4 -10 -13 -9 -19 1 -7 2 -17 3 -22 0 -5 8 -12 17 -15 8 -3 12 -2 9 4 -3 6
-2 10 3 10 6 0 13 -7 16 -16 3 -8 2 -12 -3 -9 -5 3 -12 1 -16 -5 -3 -5 -1 -10
6 -10 7 0 9 -3 6 -7 -11 -10 13 -32 29 -26 9 3 14 0 12 -8 -2 -8 3 -13 10 -11
8 1 11 -2 7 -8 -3 -6 -11 -8 -16 -5 -5 4 -9 1 -9 -6 0 -6 8 -9 20 -6 11 3 18
2 15 -3 -8 -13 55 -71 68 -63 9 5 9 3 -1 -9 -10 -12 -10 -18 2 -27 11 -9 16
-9 22 0 5 8 3 9 -6 4 -9 -5 -11 -4 -6 4 12 19 27 2 16 -18 -10 -19 -4 -31 14
-31 6 0 5 4 -2 9 -11 6 -10 10 1 19 15 13 18 -12 4 -34 -3 -6 0 -11 8 -11 8 0
15 5 15 10 0 5 12 -6 28 -25 16 -21 35 -34 45 -32 14 2 15 -1 8 -10 -14 -17
-1 -29 16 -14 11 9 12 7 7 -7 -6 -14 -4 -16 7 -10 8 5 5 -2 -6 -15 l-20 -23
23 12 c24 13 46 6 26 -7 -24 -16 -23 -40 2 -37 22 2 29 -6 24 -30 -1 -5 4 -4
11 2 16 16 40 -2 32 -23 -3 -8 1 -14 8 -14 11 0 11 -3 -1 -10 -8 -5 -10 -10
-4 -10 5 0 15 5 22 12 9 9 12 9 12 -1 0 -7 5 -9 12 -5 7 4 8 3 4 -5 -4 -6 -11
-9 -16 -6 -5 3 -11 1 -14 -4 -4 -5 5 -8 18 -7 18 2 23 -1 18 -12 -4 -11 -1
-13 7 -7 10 6 11 3 2 -13 -12 -22 2 -41 15 -21 5 8 3 9 -6 4 -9 -5 -11 -4 -6
3 5 9 13 9 27 2 22 -12 23 -16 7 -26 -7 -4 -8 -3 -4 4 4 7 3 12 -2 12 -21 0
-19 -28 3 -52 13 -14 21 -30 17 -34 -4 -5 4 0 18 11 14 11 19 13 13 5 -16 -17
-17 -40 -2 -40 5 0 7 5 3 12 -4 7 -3 8 5 4 6 -4 9 -11 6 -16 -7 -11 16 -50 29
-50 5 0 1 9 -8 19 -14 15 -15 21 -4 27 7 4 10 4 6 0 -8 -10 23 -47 34 -40 4 3
5 -2 2 -10 -3 -9 -13 -12 -22 -9 -14 5 -15 3 -5 -7 10 -11 15 -11 28 0 9 7 15
9 14 4 -3 -18 1 -37 7 -31 9 9 46 -12 39 -23 -7 -11 32 -23 46 -14 7 4 9 3 5
-4 -3 -6 -2 -13 4 -17 5 -3 10 -1 10 6 0 7 3 10 6 7 3 -4 1 -15 -5 -26 -9 -17
-7 -19 14 -16 14 1 23 -2 19 -7 -3 -5 0 -9 7 -9 7 0 9 -3 6 -6 -4 -4 -13 -1
-22 6 -14 12 -18 9 -13 -7 2 -5 7 -7 11 -5 4 1 10 -5 13 -13 4 -8 15 -15 26
-15 10 0 17 -4 14 -9 -6 -10 12 -9 29 0 6 4 21 -5 35 -19 14 -13 18 -21 10
-17 -11 6 -12 5 -5 -3 6 -6 21 -13 33 -15 12 -2 30 -14 39 -28 16 -23 16 -23
-2 -9 -17 14 -18 13 -12 -4 7 -17 6 -17 -9 -5 -16 13 -16 12 -5 -9 12 -23 12
-23 -11 -11 -21 11 -22 11 -9 -5 12 -14 12 -16 -3 -10 -9 3 -16 1 -16 -6 0 -6
-4 -9 -9 -5 -5 3 -13 0 -17 -6 -4 -7 -3 -9 4 -5 6 3 13 2 16 -3 3 -5 -4 -11
-17 -15 -18 -5 -20 -8 -7 -16 12 -8 13 -10 1 -10 -8 0 -12 -3 -8 -6 3 -3 1
-18 -4 -32 -7 -18 -6 -28 3 -35 9 -6 6 -7 -10 -4 -12 3 -19 1 -16 -4 3 -6 0
-17 -8 -26 -10 -14 -10 -15 0 -9 16 10 13 -25 -3 -36 -6 -5 -5 -11 4 -17 12
-8 12 -12 2 -25 -11 -13 -11 -16 0 -17 11 0 11 -2 1 -6 -10 -4 -8 -9 7 -19 11
-8 18 -21 15 -29 -3 -8 6 -20 23 -30 15 -9 21 -14 12 -12 -9 3 -16 -1 -16 -8
0 -6 10 -12 21 -11 16 1 21 -5 20 -25 0 -22 4 -26 23 -24 19 2 21 0 11 -12 -6
-8 -7 -13 -2 -12 25 4 45 -2 38 -13 -5 -8 -2 -9 9 -5 9 3 19 1 23 -5 4 -7 3
-8 -4 -4 -7 4 -12 5 -12 2 0 -3 10 -10 21 -17 12 -6 19 -7 16 -2 -3 5 3 9 14
9 10 0 19 -3 19 -7 0 -4 15 -6 34 -5 27 1 32 -2 24 -11 -15 -18 -2 -16 16 3 9
9 16 11 16 4 0 -6 6 -8 13 -4 6 4 9 4 5 0 -3 -4 -2 -22 4 -39 5 -18 10 -38 12
-45 1 -7 8 -18 16 -25 10 -9 11 -9 6 1 -4 6 -2 12 3 12 6 0 11 5 11 11 0 8 -5
8 -15 -1 -8 -7 -15 -10 -15 -7 0 3 15 16 33 28 17 13 27 16 20 8 -13 -16 -14
-61 -1 -53 4 3 8 0 8 -7 0 -7 3 -9 6 -6 4 4 2 12 -4 20 -8 9 -8 17 0 27 8 13
9 12 5 -2 -3 -9 -2 -18 4 -20 5 -2 11 -14 14 -27 2 -13 7 -26 10 -30 4 -3 4 6
1 21 -3 20 -1 25 10 21 8 -3 12 -9 9 -13 -3 -5 0 -12 6 -16 7 -4 9 -3 6 2 -3
6 -2 16 3 24 7 12 9 11 9 -5 -1 -27 6 -53 14 -61 4 -4 7 1 7 12 0 16 2 16 10
4 12 -19 -9 -33 -27 -18 -7 6 -13 7 -13 4 0 -4 -9 -2 -19 4 -15 7 -22 7 -27
-2 -4 -7 -3 -9 1 -5 5 4 15 -3 23 -15 7 -13 11 -15 8 -6 -3 12 -1 15 10 11 16
-6 19 -22 4 -24 -5 -1 -15 -2 -21 -3 -7 0 -15 -10 -20 -21 -7 -18 -8 -18 -8
-2 -1 12 -5 16 -13 11 -9 -5 -9 -2 1 9 8 11 9 17 3 17 -7 0 -9 7 -5 18 6 16 6
16 -10 0 -10 -9 -16 -23 -15 -30 2 -7 -3 -12 -11 -10 -12 3 -12 0 -1 -12 7 -9
9 -16 5 -16 -4 0 -1 -8 6 -17 12 -14 12 -16 0 -8 -11 6 -13 4 -8 -8 3 -9 1
-19 -5 -23 -7 -4 -8 -3 -4 4 4 7 2 12 -4 12 -6 0 -8 5 -5 10 3 6 2 10 -3 10
-5 0 -12 -8 -14 -18 -4 -15 -15 -18 -56 -17 -30 1 -48 -3 -45 -9 4 -5 -1 -7
-12 -2 -14 5 -15 4 -7 -7 8 -10 7 -13 -8 -14 -14 -1 -17 3 -13 15 6 14 5 15
-9 2 -11 -10 -13 -19 -7 -27 7 -7 6 -14 -2 -19 -8 -4 -9 -3 -5 4 10 16 -5 15
-26 -2 -10 -7 -14 -17 -10 -22 4 -4 -1 -2 -10 5 -15 11 -18 11 -19 0 0 -10 -2
-11 -6 -1 -2 6 -14 12 -24 12 -13 0 -18 -4 -13 -12 4 -8 3 -10 -2 -5 -5 5 -10
13 -10 18 -3 22 -6 23 -12 7 -6 -16 -10 -16 -35 -3 -15 7 -27 10 -27 5 0 -5 9
-12 21 -15 11 -4 19 -8 17 -10 -2 -2 -24 3 -48 11 -41 14 -45 14 -57 -2 -8
-12 -13 -13 -13 -5 0 10 -3 11 -14 2 -11 -9 -17 -8 -28 8 -15 22 -88 36 -88
18 0 -6 -7 -2 -15 9 -14 18 -14 17 -5 -11 l11 -30 -23 25 c-13 14 -19 20 -15
13 7 -9 2 -10 -23 -3 l-32 9 18 -21 c14 -16 10 -15 -14 5 -19 15 -39 27 -47
27 -17 0 -37 -25 -27 -35 4 -5 1 -5 -6 -1 -7 4 -10 10 -8 14 2 4 -2 16 -10 27
-8 10 -14 13 -14 6 0 -9 -5 -9 -20 2 -20 14 -66 12 -76 -4 -2 -4 -14 1 -25 12
-15 15 -24 18 -32 10 -6 -6 -15 -11 -21 -11 -5 0 -1 6 9 14 19 14 19 15 -8 40
-15 14 -27 20 -27 15 0 -6 -5 -7 -12 -3 -7 5 -8 3 -3 -6 5 -9 4 -11 -3 -6 -7
4 -12 1 -12 -6 0 -9 -3 -9 -10 2 -13 20 -12 39 1 20 9 -13 10 -13 6 0 -5 20
-27 20 -51 1 -11 -9 -16 -11 -13 -4 4 6 4 13 0 16 -5 2 -2 2 5 1 6 -2 12 1 12
6 0 6 -9 10 -20 10 -18 0 -26 16 -21 43 1 5 -3 6 -9 2 -6 -4 -8 -15 -5 -26 4
-11 2 -19 -4 -19 -6 0 -10 3 -10 7 1 5 0 11 -1 16 -1 4 -3 13 -4 19 0 7 -14
14 -31 15 -16 1 -31 7 -33 13 -2 5 -8 10 -14 10 -6 0 -3 -9 7 -20 10 -11 21
-18 25 -15 4 2 7 -2 7 -10 0 -13 -3 -13 -17 0 -9 8 -20 12 -24 8 -4 -5 -6 -2
-4 5 2 8 -6 19 -17 25 -25 15 -35 29 -29 39 3 4 -2 5 -11 1 -13 -5 -14 -7 -3
-14 7 -5 9 -9 4 -9 -5 0 -3 -6 3 -14 9 -11 9 -16 0 -22 -8 -4 -9 -3 -5 5 4 6
0 14 -8 17 -9 3 -16 12 -16 20 0 8 -5 14 -11 14 -5 0 -8 -4 -5 -8 3 -5 -1 -9
-9 -9 -10 0 -11 5 -4 19 6 10 15 15 21 12 7 -4 8 -2 4 5 -6 9 -11 9 -21 1 -7
-6 -15 -7 -17 -3 -3 4 -3 3 -2 -4 2 -7 -3 -10 -12 -6 -9 3 -12 12 -9 24 4 11
2 19 -5 19 -6 0 -8 -4 -5 -10 3 -5 -1 -10 -10 -10 -10 0 -13 5 -9 13 5 7 0 6
-11 -3 -11 -9 -16 -10 -11 -2 4 6 3 12 -3 12 -5 0 -13 -5 -16 -10 -4 -6 -11
-8 -16 -4 -5 3 -7 10 -3 15 3 5 9 7 13 5 4 -3 13 -1 21 4 11 7 8 9 -10 8 -14
-1 -31 -6 -37 -11 -17 -12 -17 1 0 17 7 7 17 11 24 9 6 -2 14 1 18 6 4 7 0 8
-11 4 -11 -4 -15 -2 -11 4 4 6 0 13 -8 17 -8 3 -17 0 -21 -6 -4 -7 -3 -8 4 -4
7 4 12 3 12 -3 0 -16 -18 -22 -23 -9 -8 22 13 51 27 39 9 -8 13 -7 13 4 0 8
-4 12 -8 9 -4 -2 -10 0 -14 6 -4 6 -11 8 -16 5 -11 -7 -11 -3 -3 19 3 9 11 13
17 9 6 -3 7 -1 3 6 -4 6 0 14 8 17 9 3 16 10 16 14 0 13 -29 20 -36 8 -4 -7
-3 -8 4 -4 13 8 17 -6 5 -17 -3 -4 -13 2 -20 13 -8 11 -18 18 -22 16 -4 -3 -8
9 -9 25 -1 17 3 29 10 29 6 0 8 3 5 6 -4 4 -14 1 -23 -7 -18 -15 -47 -22 -39
-9 3 5 0 10 -5 12 -6 2 -12 13 -13 25 0 12 -4 20 -8 17 -4 -2 -6 -14 -4 -25 4
-20 3 -20 -14 -5 -10 9 -20 13 -24 10 -4 -4 -4 3 -2 16 3 16 1 19 -8 12 -8 -7
-18 -6 -32 5 -13 10 -14 14 -4 10 9 -3 16 0 16 7 0 10 -14 11 -60 7 -5 -1 -5
-7 -1 -13 4 -7 3 -10 -1 -5 -14 12 -14 48 0 37 7 -5 15 -7 18 -3 11 10 8 33
-4 33 -5 0 -7 -4 -4 -10 3 -6 -1 -7 -10 -4 -10 4 -13 13 -10 24 5 15 1 18 -19
16 -17 -2 -23 1 -19 8 14 22 11 56 -5 54 -8 -2 -16 5 -17 14 -3 16 -1 16 21 2
13 -9 21 -20 18 -25 -3 -5 1 -9 8 -9 10 0 10 -2 1 -8 -7 -4 -9 -12 -5 -17 10
-14 32 -17 32 -5 0 6 -5 10 -11 10 -5 0 -7 4 -4 10 3 5 -6 22 -20 36 -21 21
-24 29 -13 36 9 7 8 8 -6 4 -10 -4 -25 -1 -34 6 -13 11 -14 9 -8 -12 5 -18 4
-21 -3 -10 -5 9 -11 22 -13 30 -2 8 -7 19 -13 23 -6 5 -4 7 6 4 12 -4 16 2 16
24 0 16 -4 29 -9 29 -7 0 -12 -15 -9 -33 0 -4 -4 -7 -9 -7 -12 0 -13 10 -1 30
6 8 7 18 4 23 -3 5 -8 5 -12 -1 -4 -7 -13 -5 -26 5 -20 15 -20 15 3 8 19 -5
22 -3 22 20 0 17 4 24 12 19 7 -4 8 -3 4 5 -6 9 -11 9 -22 0 -7 -6 -11 -15 -8
-20 3 -5 0 -9 -5 -9 -13 0 -14 6 -2 29 7 13 6 18 -4 18 -8 0 -12 -4 -9 -8 2
-4 0 -10 -6 -14 -6 -4 -8 -10 -5 -15 3 -5 1 -11 -4 -14 -11 -7 -9 13 3 33 7
11 5 13 -7 8 -40 -16 -50 -17 -27 -3 16 10 19 15 10 16 -18 0 7 20 25 20 6 0
3 -5 -5 -10 -8 -5 -10 -10 -5 -10 18 0 30 14 30 35 0 12 6 19 14 17 8 -2 3 9
-10 26 -15 18 -27 25 -31 18 -4 -6 -2 -16 4 -23 6 -7 6 -13 2 -13 -5 0 -15 9
-22 21 -7 12 -16 18 -19 15 -3 -3 0 -12 6 -20 7 -8 10 -20 6 -26 -8 -13 -27
-2 -22 13 2 7 -5 29 -16 50 -19 37 -35 51 -23 21 3 -8 2 -12 -4 -9 -6 4 -8 17
-6 30 5 26 -9 44 -17 23 -2 -7 -8 -9 -13 -5 -5 4 -2 12 6 17 8 5 15 20 15 32
0 16 6 22 17 20 17 -3 19 13 3 37 -5 8 7 4 26 -9 19 -13 29 -17 22 -10 -9 9
-9 19 -2 34 9 18 8 19 -3 5 -13 -16 -15 -15 -36 1 -22 18 -29 31 -14 29 19 -3
25 2 12 11 -10 6 -11 10 -2 10 6 0 12 7 12 16 0 8 -4 12 -10 9 -5 -3 -10 -1
-10 4 0 6 5 11 11 11 6 0 8 7 5 16 -4 10 -2 13 6 8 8 -5 9 -2 5 10 -4 10 -3
15 3 11 6 -3 10 -2 10 4 0 6 8 8 18 4 11 -4 10 0 -5 11 -26 19 -31 38 -8 30
19 -8 19 5 0 30 -12 16 -12 22 -2 28 9 6 9 8 -1 8 -7 0 -10 4 -7 10 3 6 1 10
-5 10 -7 0 -9 -7 -6 -16 3 -8 2 -12 -4 -9 -5 3 -19 1 -31 -5 -19 -11 -20 -10
-9 9 6 12 13 21 16 21 3 0 2 -5 -2 -12 -4 -7 -3 -8 4 -4 6 4 8 14 5 23 -4 10
-2 14 5 9 21 -13 22 13 1 33 -12 11 -18 24 -14 30 11 19 -5 33 -21 20 -12 -10
-12 -14 -2 -21 15 -9 -9 -31 -24 -22 -10 6 -11 -10 -1 -19 3 -4 15 1 26 10 12
11 17 12 12 4 -6 -10 -4 -12 5 -6 9 6 11 4 5 -5 -6 -9 -4 -11 6 -5 8 5 6 -1
-4 -13 -21 -23 -58 -26 -54 -3 1 7 -4 16 -11 18 -7 3 -12 1 -11 -4 4 -21 -3
-23 -23 -9 -17 12 -25 13 -37 3 -14 -11 -14 -10 -2 5 7 10 17 15 22 12 5 -3 6
2 3 11 -6 14 -10 13 -33 -7 -26 -23 -26 -23 -7 0 20 23 10 31 -14 10 -11 -10
-11 -9 0 6 13 18 13 19 -2 13 -10 -3 -22 1 -30 11 -12 15 -11 16 5 3 19 -15
24 -2 5 17 -7 7 -9 12 -5 12 3 0 18 -11 32 -26 24 -24 45 -25 45 -3 0 6 -4 8
-8 5 -4 -2 -14 -1 -22 5 -13 7 -13 9 0 9 13 0 13 2 0 11 -13 10 -13 10 1 6 8
-3 21 3 27 14 7 10 8 19 3 19 -6 0 -12 -4 -15 -9 -6 -9 -46 -22 -46 -15 0 3
11 9 25 14 14 5 25 14 25 20 0 7 -6 8 -19 0 -27 -14 -35 3 -12 24 10 9 19 28
19 42 0 18 -4 22 -11 15 -6 -6 -16 -11 -21 -11 -6 0 -2 7 8 15 11 8 17 17 14
20 -3 3 -18 -4 -34 -16 -24 -18 -22 -15 6 12 21 21 38 30 42 24 4 -5 8 -8 9
-5 0 3 2 13 4 23 2 12 -1 17 -10 14 -9 -4 -11 1 -8 14 3 10 9 19 14 19 11 0 7
23 -6 32 -6 5 -5 8 3 8 7 0 11 4 8 9 -4 5 5 8 18 7 22 -3 22 -1 12 26 -6 15
-14 28 -18 28 -11 0 -6 -23 7 -33 6 -5 0 -5 -12 -2 -18 5 -23 2 -24 -12 0 -13
-2 -14 -6 -4 -3 8 0 19 8 25 17 14 23 36 9 36 -6 0 -10 -4 -10 -10 0 -5 -4
-10 -8 -10 -5 0 -9 7 -9 15 0 8 4 12 8 10 3 -3 12 2 18 9 10 11 8 17 -6 25
-10 6 -13 10 -8 10 6 1 21 -8 35 -19 15 -12 18 -18 8 -14 -10 3 -18 2 -18 -4
0 -5 8 -12 18 -14 14 -4 17 2 18 38 0 35 -3 42 -18 41 -22 -2 -24 -17 -3 -17
8 0 15 -4 15 -10 0 -6 -9 -6 -23 1 -28 13 -32 39 -5 34 16 -3 20 3 17 33 0 4
-9 6 -20 5 -11 -2 -17 1 -14 7 3 6 13 10 21 10 17 0 19 16 2 26 -7 5 -8 3 -3
-6 5 -8 4 -11 -3 -7 -5 4 -8 16 -5 27 3 12 0 20 -7 20 -9 0 -9 4 1 17 10 11
10 14 2 9 -13 -7 -16 0 -16 37 0 10 -8 17 -21 18 -21 0 -21 1 -1 9 11 5 14 9
7 9 -7 1 -10 6 -7 11 4 6 11 7 17 4 7 -4 8 -2 4 4 -4 6 -14 8 -24 5 -15 -6
-16 -5 -2 12 8 10 10 16 3 12 -13 -8 -13 29 0 50 10 16 -6 24 -23 12 -27 -16
-33 -9 -9 11 13 10 19 19 13 20 -5 0 -16 -6 -24 -12 -8 -7 -6 -2 5 11 l20 24
-22 -12 c-27 -14 -45 -14 -20 0 9 5 17 15 17 20 0 6 -6 7 -12 3 -7 -4 -10 -4
-6 1 4 4 1 14 -7 22 -8 8 -15 20 -15 26 0 7 5 4 11 -6 6 -9 15 -14 21 -11 7 4
8 2 4 -4 -4 -7 -2 -12 4 -12 7 0 9 8 5 21 -5 16 -4 19 5 14 9 -5 11 -4 6 4 -6
9 -11 9 -22 0 -12 -10 -13 -9 -8 6 5 12 4 16 -3 12 -7 -4 -10 0 -9 9 1 9 10
20 19 26 13 7 15 5 11 -7 -3 -8 -11 -12 -18 -8 -6 3 -8 3 -4 -1 3 -4 8 -7 10
-5 1 1 14 -3 28 -10 24 -12 24 -11 5 4 -17 14 -18 17 -5 25 15 10 3 15 -22 11
-4 0 -5 6 -2 13 3 8 11 14 17 12 7 -1 9 -1 5 1 -13 8 -9 25 5 18 6 -4 1 3 -12
14 -12 12 -27 18 -32 15 -5 -3 -9 -1 -9 5 0 6 -8 8 -17 4 -10 -3 -15 -3 -11 2
4 4 17 8 29 9 12 0 24 7 25 14 1 7 0 8 -3 2 -9 -18 -18 -11 -19 15 -2 21 1 24
12 14 8 -7 17 -9 21 -6 3 4 -2 9 -11 13 -9 3 -16 10 -16 15 0 6 8 5 19 -1 35
-18 37 -10 2 11 -18 11 -31 23 -27 26 3 3 12 1 19 -5 10 -9 14 -8 14 3 0 8 -2
13 -5 10 -3 -2 -14 0 -25 6 -15 9 -18 8 -12 -3 3 -7 -1 -4 -9 6 -9 11 -16 24
-16 29 0 4 -5 5 -12 1 -7 -4 -8 -3 -4 5 4 6 11 9 16 6 4 -3 11 1 14 7 3 7 4 2
1 -12 -3 -14 -2 -19 1 -12 5 10 10 9 21 -5 8 -10 12 -12 8 -5 -4 7 -1 21 7 30
11 15 11 16 -3 4 -14 -10 -18 -10 -22 2 -3 8 -3 17 1 19 4 2 1 2 -6 1 -7 -2
-15 3 -18 11 -6 15 -25 21 -23 8 3 -20 -2 -33 -12 -33 -8 0 -8 5 1 15 7 8 9
15 5 15 -4 0 5 16 20 36 15 19 24 38 21 41 -3 4 -6 1 -6 -6 0 -7 -5 -9 -10 -6
-8 5 -7 11 1 21 14 17 -7 48 -27 40 -8 -3 -11 0 -7 10 3 9 0 14 -8 12 -7 -2
-13 3 -14 10 0 18 -35 43 -49 35 -6 -3 -7 -2 -3 3 13 13 31 11 43 -5 9 -12 12
-11 17 2 4 10 2 16 -6 14 -7 -1 -11 4 -9 11 1 8 -2 11 -7 8 -5 -3 -24 1 -42 9
-25 10 -29 14 -14 15 12 0 26 -5 33 -12 7 -7 12 -10 13 -7 0 2 2 12 4 21 4 22
-12 33 -28 19 -9 -7 -17 -7 -27 1 -12 8 -11 9 3 4 12 -4 17 -2 14 6 -2 7 -13
12 -23 10 -18 -2 -18 -2 -1 8 9 6 17 16 17 22 0 7 -5 6 -15 -2 -10 -9 -15 -9
-15 -1 0 6 5 11 10 11 6 0 10 7 10 15 0 8 6 15 13 15 6 1 1 8 -13 16 -23 14
-13 13 25 -2 11 -5 15 1 15 21 0 18 -6 29 -20 32 -11 3 -20 9 -20 14 0 12 7
11 33 -2 20 -9 20 -9 5 4 -10 8 -14 18 -10 22 4 5 2 5 -5 1 -6 -3 -14 -2 -17
3 -3 5 1 12 10 15 11 4 13 10 6 19 -5 6 -8 20 -7 30 2 9 -1 15 -6 11 -5 -3 -7
-10 -4 -15 4 -5 -2 -6 -11 -2 -11 4 -13 8 -6 11 7 2 12 10 12 18 0 9 4 13 9
10 5 -4 4 5 -2 18 -9 19 -16 22 -29 15 -11 -6 -19 -5 -24 3 -4 6 -3 8 2 5 13
-8 31 4 35 23 4 22 -11 60 -23 60 -6 0 -8 3 -5 6 4 4 12 2 20 -4 10 -8 13 -7
13 6 1 9 3 24 6 32 3 8 3 12 1 7 -3 -4 -9 -4 -14 -1 -6 3 -5 12 3 21 11 14 10
15 -9 9 -21 -7 -22 -4 -19 24 2 17 0 33 -5 36 -5 3 -9 -3 -10 -13 0 -10 -3
-13 -5 -6 -3 7 0 21 6 32 8 15 8 27 0 44 -10 20 -10 20 3 5 8 -10 17 -15 21
-11 4 4 4 0 1 -9 -8 -19 10 -33 21 -17 4 8 3 9 -5 5 -8 -5 -10 1 -6 23 3 19 1
31 -5 31 -6 0 -8 -6 -4 -12 5 -9 2 -9 -9 1 -18 14 -24 26 -8 17 5 -3 8 7 7 23
0 16 -4 27 -8 25 -12 -8 -9 11 4 24 14 14 20 44 7 36 -5 -3 -7 -10 -3 -15 3
-5 0 -8 -8 -7 -7 2 -12 -3 -10 -10 2 -10 -2 -10 -18 0 -11 7 -16 14 -10 16 6
2 8 8 5 12 -3 5 -1 12 5 15 6 4 9 3 8 -2 -2 -4 2 -9 7 -10 6 -1 10 7 9 17 0
13 3 17 10 11 8 -6 11 3 11 29 1 21 -3 37 -7 34 -3 -2 -5 -13 -3 -23 2 -10 -3
-18 -11 -18 -8 0 -14 4 -14 9 0 4 4 8 8 8 5 0 9 6 9 13 0 6 4 20 8 30 4 10 3
17 -5 17 -6 0 -9 -4 -6 -9 3 -5 -1 -14 -9 -21 -12 -10 -16 -9 -21 4 -3 9 -10
14 -14 11 -5 -3 -7 3 -6 12 2 9 8 19 15 21 9 3 9 8 1 17 -17 21 -22 59 -6 46
7 -6 17 -7 21 -3 5 4 5 1 1 -5 -4 -7 -2 -13 4 -13 6 0 8 -5 3 -12 -12 -20 -12
-39 -1 -32 7 5 8 2 3 -7 -5 -8 -4 -11 1 -6 9 9 13 86 4 84 -14 -3 -50 16 -45
24 9 13 -9 11 -25 -3 -12 -11 -12 -10 -2 3 6 9 8 20 4 24 -4 5 -1 5 5 1 32
-18 54 -16 47 6 -4 15 -3 18 6 13 9 -5 11 -4 6 4 -5 7 -16 9 -28 5 -14 -4 -18
-2 -14 5 4 6 15 11 24 11 13 0 12 3 -6 16 -12 8 -19 20 -15 27 29 48 -5 81
-46 45 -14 -13 -20 -16 -13 -6 7 9 9 18 5 20 -4 3 -3 3 4 2 17 -4 26 13 11 19
-10 4 -9 8 2 16 13 10 8 15 -12 12 -4 0 -3 10 2 23 6 17 4 28 -8 42 -16 17
-16 17 2 3 18 -13 19 -12 13 6 -7 18 -6 19 6 3 8 -10 17 -15 20 -11 4 3 2 12
-4 20 -19 22 -3 15 17 -9 10 -12 13 -18 5 -13 -10 6 -12 4 -6 -5 5 -8 4 -11
-1 -7 -6 3 -10 -10 -10 -30 l0 -35 19 24 c11 12 24 22 29 20 5 -1 7 2 3 8 -5
8 -11 7 -21 -1 -8 -6 -17 -10 -19 -7 -3 3 1 11 10 18 11 9 12 17 4 31 -11 21
-3 43 12 34 5 -4 9 -12 9 -18 0 -7 -4 -6 -11 3 -9 13 -10 13 -6 0 2 -8 10 -14
17 -12 8 2 10 -3 6 -15 -6 -15 -5 -15 12 2 17 18 17 21 2 35 -9 8 -10 11 -3 6
7 -5 13 -5 13 -1 0 5 9 0 20 -10 16 -15 23 -16 33 -6 9 10 8 11 -8 5 -18 -7
-18 -6 -6 9 18 23 42 22 35 0 -5 -17 -5 -17 6 0 6 9 16 17 22 17 7 0 6 -5 -2
-15 -7 -8 -11 -15 -9 -16 27 -6 49 -3 48 5 -1 6 0 22 1 36 1 24 3 22 16 -19 4
-11 7 -11 21 0 9 8 14 9 10 2 -4 -6 -4 -13 0 -16 5 -2 3 -3 -4 -1 -6 1 -13 -6
-16 -17 -4 -17 -3 -18 9 -8 11 9 14 9 14 0 0 -7 5 -9 12 -5 7 4 8 3 4 -4 -4
-7 -3 -20 3 -29 7 -13 5 -21 -7 -30 -15 -12 -15 -12 3 -6 11 3 23 11 27 17 5
8 8 7 8 -1 0 -6 -4 -14 -8 -17 -13 -8 -6 -51 7 -48 6 1 11 -5 11 -13 0 -8 5
-15 10 -15 6 0 9 -5 8 -11 -2 -6 4 -14 12 -16 13 -4 13 -3 0 7 -13 10 -13 11
0 7 17 -4 21 -26 7 -45 -6 -7 -7 -15 -3 -19 3 -3 6 -1 6 5 0 21 16 13 17 -8 1
-12 -3 -18 -8 -14 -6 3 -5 -3 2 -14 7 -12 16 -19 20 -17 3 3 11 -7 18 -21 8
-18 17 -24 29 -20 16 6 16 5 0 -7 -15 -12 -15 -14 5 -27 20 -12 21 -11 9 2
-10 13 -10 17 4 22 9 4 19 4 22 1 3 -3 0 -5 -6 -5 -7 0 -12 -4 -12 -10 0 -5 6
-10 14 -10 8 0 17 -7 20 -16 5 -14 4 -15 -9 -4 -12 10 -19 10 -27 2 -8 -8 -15
-7 -25 6 -12 15 -12 14 -2 -8 19 -36 22 -63 7 -54 -7 4 -3 -3 9 -15 22 -21 22
-23 5 -48 -9 -15 -11 -24 -4 -20 7 5 12 3 12 -7 0 -8 5 -16 10 -18 6 -2 12
-14 15 -27 2 -13 7 -26 11 -30 4 -3 5 1 2 10 -4 9 -1 16 5 16 7 0 13 -11 13
-23 1 -17 -2 -21 -15 -17 -13 4 -14 3 -1 -5 8 -6 18 -8 24 -5 5 4 7 -1 3 -11
-5 -14 -3 -16 12 -11 15 4 19 0 19 -20 0 -14 -4 -25 -9 -25 -4 0 -6 9 -4 21 4
17 2 19 -11 9 -18 -16 -1 -40 28 -40 13 0 18 -5 15 -14 -6 -16 16 -40 26 -29
4 3 8 1 8 -5 1 -7 2 -18 3 -24 1 -16 35 -17 56 -3 13 9 13 8 2 -7 -11 -14 -10
-18 5 -28 13 -8 14 -10 2 -7 -9 3 -22 1 -30 -5 -11 -8 -10 -9 4 -4 17 5 41
-29 31 -45 -3 -6 14 -9 54 -10 17 -1 21 -5 17 -19 -3 -11 0 -20 9 -23 17 -7
32 9 16 16 -6 3 -5 4 2 3 7 -2 13 -7 13 -12 1 -5 6 -20 13 -34 12 -22 11 -23
-1 -7 -15 18 -27 22 -27 10 0 -5 12 -17 27 -27 14 -11 23 -14 19 -8 -5 8 0 11
15 9 13 -2 25 -9 27 -15 2 -7 8 -10 13 -6 5 3 12 -3 16 -13 4 -10 11 -21 17
-25 8 -5 7 -8 -1 -8 -7 0 -2 -10 10 -23 20 -21 24 -22 47 -8 l25 15 -19 -22
c-11 -12 -14 -22 -8 -22 6 0 14 5 17 10 3 6 11 10 17 10 7 0 7 -4 -1 -13 -14
-18 21 -16 43 2 8 7 23 11 33 8 15 -4 14 -5 -4 -6 -16 -1 -20 -6 -16 -21 3
-11 9 -17 14 -14 5 3 9 0 9 -6 0 -6 5 -8 10 -5 8 5 7 12 -2 23 -8 9 -8 13 -2
9 7 -4 14 0 18 8 3 8 -3 19 -12 24 -11 7 -12 11 -4 11 7 0 10 5 6 11 -4 8 -9
8 -17 0 -6 -6 -16 -11 -22 -11 -5 0 -2 5 8 11 9 6 15 14 12 18 -2 5 2 14 10
21 12 10 13 16 3 28 -11 13 -11 14 2 7 8 -5 24 -8 35 -6 11 2 17 0 13 -4 -4
-4 2 -23 12 -43 25 -46 19 -51 -20 -18 -34 28 -61 36 -40 11 7 -8 15 -13 19
-11 4 3 7 -11 7 -30 0 -19 -5 -34 -11 -34 -5 -1 1 -9 14 -20 l23 -20 -23 -9
c-13 -5 -27 -7 -31 -4 -5 2 -8 -1 -8 -6 0 -8 -7 -7 -19 1 -11 7 -18 15 -15 19
9 16 -14 18 -32 3 -15 -12 -15 -14 -3 -11 22 7 42 -13 29 -28 -7 -8 -5 -12 5
-12 8 0 12 4 9 8 -2 4 5 7 16 6 23 -1 25 -8 8 -26 -11 -11 -10 -12 1 -6 11 6
13 3 9 -13 -4 -12 -2 -19 3 -16 5 3 23 -5 41 -17 l31 -22 -23 -19 c-12 -10
-18 -18 -13 -18 5 0 14 5 21 12 7 7 12 8 12 2 0 -6 -3 -14 -7 -18 -11 -11 -12
-36 -2 -36 6 0 7 -5 3 -11 -4 -8 0 -8 15 0 12 7 25 9 30 6 5 -3 12 3 15 12 3
11 4 8 3 -7 -1 -15 3 -24 10 -23 8 2 10 -4 6 -14 -5 -12 -3 -14 7 -8 8 5 11 4
7 -2 -4 -6 0 -18 7 -29 9 -12 11 -26 6 -39 -6 -16 -4 -22 5 -22 8 0 11 5 8 10
-4 6 0 8 10 4 10 -4 21 1 27 11 9 15 10 15 8 -3 -2 -11 -10 -26 -18 -33 -13
-11 -12 -11 7 -3 29 14 36 14 27 -1 -5 -8 0 -7 11 2 11 9 16 10 11 3 -4 -8 -1
-13 8 -13 9 0 16 -4 16 -10 0 -5 4 -10 10 -10 5 0 7 8 4 18 -5 13 -4 14 4 3 6
-8 8 -20 5 -28 -3 -7 0 -13 6 -13 6 0 11 5 11 12 0 6 3 8 7 5 3 -4 -2 -17 -13
-29 l-19 -22 25 17 c28 20 52 23 26 4 -16 -12 -16 -14 3 -34 11 -11 18 -23 16
-25 -2 -2 5 -4 15 -5 11 -1 20 3 20 8 0 6 -4 8 -9 5 -5 -3 -14 1 -21 9 -9 10
-9 15 -1 15 6 0 11 -4 11 -8 0 -5 7 -9 15 -10 8 -1 22 -3 30 -4 8 -1 12 -5 9
-10 -3 -5 -10 -6 -15 -3 -5 3 -6 -1 -3 -10 5 -12 9 -13 20 -4 22 18 49 -8 32
-30 -12 -14 -11 -14 4 -2 10 7 15 17 12 22 -3 5 3 6 12 2 12 -4 15 -3 10 5 -5
8 -1 10 11 5 16 -6 17 -5 3 13 -14 17 -13 18 1 7 9 -7 19 -9 23 -5 4 4 13 7
19 7 7 1 11 7 9 14 -1 7 2 10 7 7 5 -4 14 2 20 11 6 11 11 13 11 5 0 -8 5 -10
13 -6 8 5 8 3 -2 -9 -7 -9 -18 -14 -24 -10 -6 4 -7 1 -2 -8 5 -8 5 -11 0 -7
-10 9 -35 -10 -35 -26 0 -6 5 -3 11 7 10 17 13 17 34 3 15 -10 26 -12 30 -6 4
6 1 9 -6 8 -6 -2 -14 3 -17 11 -3 9 0 11 8 6 9 -5 11 -4 6 4 -4 7 2 15 16 20
13 6 17 10 11 10 -7 1 -13 6 -13 11 0 7 6 7 18 2 9 -5 26 -6 37 -1 29 11 37
11 29 -3 -6 -10 -4 -10 8 0 12 9 18 10 23 2 5 -8 11 -8 21 1 8 6 14 8 14 4 0
-4 6 -2 13 4 8 6 17 7 21 3 4 -4 7 -2 6 3 -5 21 1 29 10 15 5 -8 13 -11 17 -6
4 5 2 11 -5 13 -6 3 -9 9 -6 14 3 6 11 5 20 -2 10 -8 14 -8 14 0 0 6 -4 11
-10 11 -5 0 -10 5 -10 11 0 5 4 8 9 4 6 -3 15 5 21 17 10 21 10 21 -3 6 -8
-10 -17 -15 -20 -11 -4 3 -2 12 4 20 9 10 8 13 0 13 -7 0 -9 5 -6 10 5 8 12 7
23 -2 11 -8 10 -4 -3 11 l-20 24 25 -7 c24 -7 24 -6 4 6 -12 7 -19 19 -17 26
4 10 8 10 21 0 15 -11 15 -11 4 4 -10 13 -10 17 0 21 8 4 7 6 -4 6 -10 1 -18
-4 -18 -9 0 -6 -5 -9 -11 -8 -6 2 -14 -4 -16 -12 -4 -13 -3 -13 7 0 10 13 11
13 7 0 -2 -8 -9 -15 -14 -15 -6 0 -15 -4 -20 -9 -5 -5 2 -6 17 -3 24 6 24 5 6
-8 -11 -8 -15 -15 -10 -15 6 0 10 -13 10 -29 0 -17 -3 -28 -8 -25 -4 3 -5 -3
-2 -13 4 -13 3 -15 -4 -5 -7 11 -10 11 -15 -3 -5 -10 -3 -14 5 -9 6 4 8 3 5
-4 -4 -5 -17 -8 -29 -4 -14 3 -19 2 -14 -7 4 -6 12 -8 18 -5 7 4 8 2 4 -5 -4
-6 -12 -8 -18 -5 -7 5 -8 2 -3 -7 5 -8 4 -10 0 -6 -17 15 -13 39 6 44 10 3 16
10 13 15 -3 5 -17 2 -32 -7 -20 -12 -17 -8 7 13 26 22 32 34 27 48 -6 15 -5
17 6 6 10 -10 10 -16 0 -32 -14 -23 0 -27 17 -6 10 11 9 21 -3 43 -13 26 -13
31 4 53 10 13 16 28 14 32 -11 18 -14 58 -4 58 5 0 9 10 7 23 -1 17 3 22 20
22 11 0 24 3 28 7 3 3 -1 5 -11 5 -24 -3 -27 34 -3 40 10 3 19 9 19 14 0 11
-23 7 -32 -6 -4 -5 -10 -6 -15 -2 -4 5 -1 12 7 17 8 6 11 10 6 10 -5 0 -3 7 4
15 7 8 9 15 6 15 -4 0 -1 6 6 14 7 8 18 11 23 8 6 -3 6 -1 2 4 -5 5 -12 9 -15
9 -16 1 -31 17 -26 29 3 8 0 17 -7 22 -7 4 -10 3 -5 -4 3 -6 2 -14 -4 -17 -6
-4 -10 -3 -9 2 1 4 -2 18 -6 31 -7 22 -15 26 -45 23 -13 -2 -13 0 -1 8 17 11
61 -6 55 -23 -2 -6 7 -12 22 -13 15 0 23 2 18 5 -5 4 -11 14 -12 22 -11 47
-11 52 3 46 8 -3 15 -2 15 3 0 5 -8 11 -17 15 -10 3 -25 9 -33 12 -13 5 -13 4
0 -5 13 -10 13 -11 0 -11 -13 0 -13 -2 -1 -9 20 -13 23 -41 4 -34 -10 4 -11 8
-3 13 8 5 7 9 -4 13 -9 4 -16 1 -16 -5 0 -6 -3 -9 -6 -5 -3 3 -2 12 2 19 16
25 13 39 -6 33 -11 -3 -20 0 -24 10 -3 9 -2 13 4 10 6 -3 10 -3 11 2 0 4 2 18
5 30 2 13 0 22 -5 20 -5 -1 -9 1 -10 6 -1 14 -26 35 -35 29 -5 -3 -6 0 -2 6 4
6 14 8 24 5 14 -5 15 -3 5 7 -9 9 -9 17 -2 26 7 8 7 14 -1 19 -5 3 -10 1 -10
-4 0 -6 -5 -11 -11 -11 -5 0 -8 4 -4 9 3 6 -3 14 -12 20 -10 6 -13 11 -8 11 6
0 16 -5 21 -10 8 -8 15 -6 23 4 8 10 9 16 1 21 -5 3 -10 2 -10 -4 0 -6 -7 -8
-16 -4 -12 4 -11 8 8 17 13 7 22 19 20 29 -2 9 2 17 8 17 6 0 8 -5 4 -12 -4
-7 -3 -8 5 -4 17 11 2 28 -21 23 -15 -4 -17 -3 -8 9 9 10 17 11 34 3 17 -8 17
-7 -4 10 -13 11 -27 15 -30 10 -4 -5 -15 -3 -26 6 -18 14 -18 14 4 8 13 -3 22
-1 22 6 0 7 -5 9 -11 5 -8 -5 -8 -1 0 14 9 17 8 23 -6 31 -10 6 -13 10 -8 11
21 0 35 -17 30 -36 -6 -17 -5 -17 5 -2 6 10 18 15 28 12 9 -3 6 1 -7 9 -25 15
-36 43 -20 53 9 5 13 -10 9 -31 -1 -5 4 -4 11 2 10 10 6 21 -19 52 -34 42 -40
61 -19 61 9 0 9 2 -1 9 -8 4 -13 11 -13 15 3 22 -1 27 -19 21 -20 -6 -28 9
-11 19 15 9 38 -3 48 -26 8 -20 10 -20 16 -4 5 11 3 15 -5 10 -8 -5 -9 -2 -5
9 3 9 3 16 -1 16 -18 -3 -32 2 -32 11 0 6 8 10 18 10 13 1 11 4 -8 15 -14 8
-21 14 -17 15 4 0 3 9 -3 19 -7 14 -7 22 1 27 8 4 8 9 0 17 -6 6 -11 16 -11
21 0 6 4 4 10 -4 5 -8 12 -11 17 -7 9 10 -18 28 -30 20 -12 -7 -4 30 8 39 5 4
6 10 2 15 -5 4 -12 1 -17 -7 -6 -8 -10 -13 -11 -10 -7 43 -6 59 2 54 6 -3 4 7
-5 23 -11 23 -12 33 -4 41 19 19 18 42 0 34 -10 -4 -12 -7 -4 -10 7 -2 9 -8 6
-13 -4 -6 -10 -6 -18 0 -6 5 -21 8 -31 6 -11 -2 -22 -4 -25 -4 -3 -1 2 -6 10
-11 8 -5 10 -10 4 -10 -19 0 -24 13 -11 28 10 13 9 15 -7 9 -12 -5 -22 -3 -27
5 -6 9 -11 9 -23 -1 -10 -8 -16 -9 -16 -3 0 6 9 13 19 17 13 4 18 12 14 22 -5
13 -3 14 18 2 20 -11 21 -14 6 -17 -9 -2 -15 -8 -11 -13 3 -5 10 -7 15 -3 5 3
16 1 23 -5 9 -8 13 -7 13 4 0 8 -4 12 -9 9 -4 -3 -8 -1 -8 5 0 5 3 11 8 14 4
2 2 2 -5 1 -7 -2 -25 10 -40 26 -15 17 -32 30 -37 30 -6 0 -2 -6 8 -13 15 -11
17 -18 8 -33 -6 -10 -12 -14 -12 -9 0 6 -5 3 -11 -5 -9 -13 -10 -12 -5 2 3 11
-2 19 -15 23 -17 6 -24 28 -20 64 2 8 -2 10 -10 5 -8 -4 -10 -3 -5 5 4 6 11 9
15 7 4 -3 8 0 8 7 0 7 2 19 4 27 3 9 -3 15 -16 15 -11 1 -19 6 -18 13 2 7 -4
9 -14 5 -11 -4 -14 -3 -9 6 4 6 4 11 -1 10 -20 -3 -34 2 -28 11 10 17 -25 72
-42 66 -9 -4 -13 -1 -10 6 2 7 11 12 21 10 9 -2 16 1 16 6 0 16 -13 22 -26 11
-10 -9 -15 -7 -20 5 -3 9 -13 16 -22 16 -8 0 -12 3 -9 6 13 13 -13 43 -31 37
-14 -6 -15 -4 -4 9 11 13 10 16 -4 14 -9 0 -19 5 -21 12 -3 8 2 10 14 6 15 -5
15 -4 3 5 -10 7 -11 11 -2 11 6 0 12 5 12 10 0 6 -8 5 -20 -2 -11 -7 -19 -20
-18 -28 1 -8 -1 -20 -5 -27 -5 -8 6 -19 33 -33 22 -11 40 -23 40 -26 0 -2 -9
0 -21 6 -19 11 -20 10 -9 -10 10 -18 9 -21 -2 -15 -7 3 -4 -1 7 -10 11 -9 19
-19 19 -23 -3 -12 22 -42 29 -36 3 4 -4 15 -16 26 -19 17 -17 16 10 -2 18 -11
36 -26 40 -33 4 -7 -2 -5 -13 3 -18 14 -18 14 -5 -2 16 -22 35 -24 28 -3 -4 8
-2 17 2 20 12 7 20 -16 17 -52 -2 -27 1 -30 26 -27 15 2 30 -1 33 -6 3 -5 12
-7 20 -3 11 4 13 1 9 -11 -7 -19 -16 -20 -32 -4 -21 21 -52 17 -53 -6 0 -20
-1 -20 -9 2 -5 12 -7 28 -4 36 3 8 0 17 -7 22 -8 5 -10 3 -4 -6 6 -9 4 -11 -5
-5 -10 6 -12 4 -7 -8 4 -11 2 -14 -9 -10 -11 4 -12 9 -5 16 6 6 11 16 11 21 0
6 -5 5 -12 -2 -17 -17 -29 -15 -26 4 2 10 -3 19 -11 22 -8 2 -11 0 -7 -6 3 -5
0 -12 -7 -15 -8 -3 -14 1 -14 9 0 8 4 14 9 14 5 0 7 4 4 9 -4 5 -14 8 -24 6
-9 -2 -19 -4 -22 -4 -3 -1 1 -5 8 -10 11 -6 10 -10 -1 -19 -11 -9 -13 -7 -11
11 1 12 3 22 4 22 1 0 3 10 6 22 2 13 1 22 -4 22 -25 -4 -32 2 -23 19 7 13 6
23 -2 32 -9 10 -9 11 2 5 9 -5 12 -3 9 6 -3 8 -10 15 -16 15 -7 1 -17 2 -22 3
-6 0 -8 13 -6 28 3 15 0 33 -7 41 -10 13 -8 14 13 9 14 -4 19 -4 13 -1 -7 3
-13 10 -13 15 0 6 6 7 13 3 6 -4 9 -4 5 1 -4 4 -2 15 5 24 10 14 10 14 -4 3
-14 -11 -22 -9 -47 13 -17 14 -34 25 -39 24 -40 -7 -43 13 -5 48 l27 25 -39
-20 c-22 -12 -43 -19 -48 -16 -4 3 -8 0 -8 -5 0 -6 -4 -11 -8 -11 -13 0 -9 54
5 68 8 8 13 9 13 3 0 -15 17 -14 23 2 5 14 -26 17 -39 5 -3 -4 -17 -2 -30 4
-24 11 -24 11 -4 25 11 8 18 19 14 24 -3 6 -12 3 -21 -8 -13 -17 -13 -16 -3 4
5 12 15 25 20 28 6 4 7 11 4 17 -4 7 -9 7 -13 0 -4 -7 -12 -8 -21 -2 -13 8
-12 10 3 10 19 0 23 15 7 25 -5 3 -10 12 -10 18 0 8 3 8 9 -2 5 -8 11 -9 15
-3 4 6 -2 16 -11 22 -17 11 -17 11 0 6 12 -4 17 -2 14 6 -2 7 -13 12 -23 10
-18 -2 -18 -2 -1 8 9 6 17 16 17 22 0 7 -5 6 -14 -1 -12 -10 -17 -8 -26 8 -7
14 -7 21 0 21 5 0 10 -8 10 -17 0 -13 3 -14 12 -5 13 13 -6 43 -25 38 -7 -1
-9 -1 -4 1 4 3 7 9 7 14 0 6 -4 7 -10 4 -5 -3 -10 -1 -10 5 0 6 -5 8 -10 5 -6
-4 -9 -1 -8 7 2 7 -5 12 -14 12 -10 -1 -15 2 -12 7 9 14 18 11 53 -22 19 -16
31 -23 28 -15 -4 11 -1 16 11 17 14 0 14 2 2 6 -8 3 -18 11 -22 17 -5 8 -8 7
-8 -1 0 -7 -5 -13 -11 -13 -6 0 -9 7 -6 14 4 11 1 13 -10 9 -11 -4 -14 -2 -9
5 4 8 2 10 -8 6 -15 -6 -17 11 -3 34 5 7 4 12 -2 12 -6 0 -11 -5 -11 -11 0 -6
-14 -1 -30 11 -17 12 -38 19 -46 16 -9 -3 -12 -2 -9 5 4 5 1 17 -7 26 -9 12
-9 15 0 9 7 -4 12 -1 12 9 0 12 -6 15 -22 10 -19 -5 -20 -4 -6 5 25 15 50 2
38 -20 -11 -21 3 -30 33 -22 20 5 22 18 5 28 -6 4 -8 3 -5 -3 4 -6 0 -14 -9
-17 -13 -5 -15 -2 -11 14 3 14 0 23 -10 27 -12 5 -12 7 -1 14 8 5 3 8 -16 6
-21 -1 -29 3 -32 17 -2 14 0 16 9 7 16 -16 27 -14 27 5 0 8 -4 13 -9 9 -5 -3
-13 0 -17 6 -4 8 -3 9 4 5 7 -4 12 -1 12 8 0 9 4 16 10 16 5 0 7 -7 4 -15 -4
-8 -1 -15 6 -15 6 0 8 -4 5 -10 -3 -6 1 -7 10 -4 9 4 14 13 11 20 -3 8 0 14 8
14 12 0 16 11 17 53 0 9 4 15 10 12 5 -4 9 3 9 15 0 12 4 19 8 16 4 -2 14 0
22 6 12 8 12 9 -2 4 -10 -3 -20 -1 -23 3 -8 13 32 20 44 8 8 -8 11 -8 11 0 0
14 -18 21 -47 18 -12 -1 -20 2 -17 7 4 5 12 7 20 4 7 -3 18 3 23 12 6 9 11 13
11 8 0 -5 7 -3 15 4 12 10 13 16 3 29 -12 15 -11 15 6 1 18 -14 19 -13 13 3
-4 11 -3 16 3 12 6 -3 10 -1 10 4 0 6 -4 11 -10 11 -5 0 -10 5 -10 11 0 5 4 8
9 5 12 -8 34 20 27 33 -3 5 3 7 14 4 11 -3 23 -9 26 -14 3 -5 -1 -6 -9 -3 -8
3 -18 1 -22 -5 -3 -6 -1 -11 5 -11 6 0 8 -4 5 -10 -11 -18 3 -11 31 15 14 13
31 22 36 19 6 -4 5 3 -2 16 -10 20 -10 21 8 11 19 -10 32 -6 32 11 0 5 -4 6
-10 3 -5 -3 -10 -2 -10 4 0 5 9 9 19 8 11 0 18 -4 15 -8 -2 -4 3 -10 12 -13 8
-3 13 -2 9 3 -11 18 6 42 21 30 8 -6 14 -8 14 -4z m-174 -2556 c2 -17 6 -34
10 -37 4 -4 4 3 1 16 -3 12 -1 22 4 22 5 0 9 -9 9 -20 0 -27 -3 -36 -13 -32
-5 1 -6 -2 -2 -8 4 -6 13 -5 26 3 16 10 21 9 29 -3 5 -8 10 -11 10 -6 0 5 6 3
13 -3 8 -6 17 -8 21 -4 4 4 4 -1 0 -11 -6 -15 -4 -17 6 -11 9 5 11 4 6 -4 -4
-6 -11 -9 -16 -6 -5 3 -12 1 -15 -5 -4 -6 -3 -10 2 -9 20 4 27 -2 13 -12 -13
-9 -12 -10 3 -5 9 3 17 1 17 -4 0 -6 -6 -10 -12 -10 -9 0 -8 -4 2 -10 8 -5 24
-7 35 -4 15 4 17 3 6 -4 -11 -8 -10 -11 5 -15 13 -4 11 -5 -6 -3 -14 1 -31 5
-37 9 -8 5 -13 4 -13 -2 0 -6 -5 -11 -11 -11 -5 0 -7 6 -3 13 5 8 2 8 -9 -2
-15 -12 -17 -11 -17 3 0 18 -15 22 -25 6 -4 -7 -12 -7 -25 0 -25 13 -39 13
-20 -1 13 -9 12 -10 -2 -5 -12 3 -18 0 -18 -9 0 -34 -49 -24 -70 15 -9 16 -5
24 20 46 24 22 28 30 18 42 -19 22 -18 41 0 35 15 -4 15 -3 2 9 -8 7 -16 20
-18 28 -3 11 1 10 17 -4 21 -19 46 -13 37 10 -3 7 -1 16 5 19 5 4 6 12 3 18
-4 7 -3 8 1 4 5 -4 10 -21 11 -38z m442 -1437 c2 -7 9 -9 14 -6 7 4 8 2 4 -4
-5 -9 -13 -9 -26 -2 -15 8 -18 7 -14 -3 3 -8 -6 -18 -21 -25 -14 -6 -25 -15
-26 -19 0 -5 -2 -16 -4 -26 -2 -10 1 -14 7 -11 6 4 8 2 4 -4 -3 -6 -1 -14 5
-18 7 -4 9 -3 6 3 -4 6 2 18 13 28 20 18 21 18 43 -3 26 -24 37 -28 37 -11 0
5 -5 7 -10 4 -6 -3 -13 1 -16 9 -3 8 -14 18 -25 21 -15 5 -17 10 -9 26 10 18
13 18 41 4 16 -9 35 -12 42 -8 29 18 47 0 24 -23 -15 -15 -7 -43 12 -41 11 0
17 5 15 9 -3 5 -10 5 -16 2 -6 -4 -6 2 1 15 12 21 22 28 20 14 -4 -22 2 -33
14 -27 9 6 8 3 -1 -8 -10 -13 -11 -22 -3 -37 8 -13 8 -22 1 -26 -6 -4 -8 -11
-5 -16 4 -5 0 -9 -7 -9 -8 -1 -6 -6 6 -15 18 -14 15 -20 -9 -15 -5 1 -6 -2 -2
-6 16 -17 33 -11 33 12 0 13 -4 20 -10 16 -6 -3 -5 1 1 10 7 8 9 19 5 23 -4 5
-1 5 6 1 6 -4 12 -2 12 3 0 6 5 11 11 11 8 0 8 -5 -1 -15 -10 -12 -10 -15 1
-15 11 0 11 -2 -1 -10 -13 -9 -13 -10 0 -10 12 0 12 -2 2 -9 -15 -9 -15 -16 0
-46 9 -20 9 -20 -7 0 -15 19 -16 19 -22 -4 -6 -24 -6 -24 -14 -3 -5 12 -13 22
-19 22 -6 0 -9 -4 -5 -9 3 -5 0 -13 -7 -17 -7 -4 -9 -3 -5 1 4 5 -2 14 -14 20
-19 11 -19 13 -5 18 11 5 15 3 10 -5 -4 -7 -3 -8 4 -4 20 12 13 28 -8 21 -11
-4 -20 -2 -20 4 0 6 -5 11 -11 11 -5 0 -8 -4 -4 -9 3 -5 1 -12 -4 -16 -6 -3
-8 4 -6 16 3 14 0 19 -9 16 -7 -3 -19 -1 -27 5 -11 8 -11 9 2 5 18 -6 39 10
39 28 0 5 -5 2 -11 -8 -8 -13 -15 -15 -28 -7 -10 5 -21 6 -25 2 -4 -3 -4 2 0
12 5 14 4 17 -4 12 -7 -4 -12 -1 -12 8 0 10 -7 13 -20 11 -11 -2 -18 0 -15 6
4 5 1 9 -5 9 -7 0 -9 7 -6 16 5 12 1 14 -15 9 -15 -5 -19 -4 -15 4 4 6 14 11
22 11 8 0 12 5 9 10 -3 6 -1 10 5 10 6 0 8 5 5 10 -4 6 -11 7 -17 4 -7 -4 -8
-2 -4 5 4 6 12 8 18 5 7 -5 9 -2 5 8 -8 22 3 30 21 15 13 -10 15 -9 10 4 -4
11 0 15 15 14 11 -1 23 -7 25 -13z m2132 -552 c0 7 3 10 7 7 10 -11 -27 -46
-43 -40 -10 4 -12 0 -8 -11 6 -16 35 -8 49 14 4 6 10 8 15 5 4 -3 11 2 14 11
3 8 10 13 15 9 6 -3 14 3 20 12 5 10 13 14 17 10 8 -8 -27 -38 -37 -31 -4 2
-10 -3 -13 -12 -3 -8 -10 -13 -15 -10 -5 3 -8 -8 -7 -24 0 -20 5 -29 13 -25 7
2 13 -1 13 -6 0 -7 -9 -9 -21 -6 -26 7 -51 -2 -43 -15 4 -6 10 -5 16 3 7 11
11 11 15 1 2 -6 8 -10 13 -7 4 3 13 -2 20 -10 8 -9 8 -15 2 -15 -6 0 -14 -10
-18 -22 l-6 -21 -13 24 c-15 26 -23 28 -36 7 -13 -20 -11 -32 4 -20 10 8 16 6
25 -9 7 -10 10 -19 8 -19 -2 0 -13 -3 -23 -6 -15 -5 -15 -4 -3 5 8 5 11 14 6
18 -4 4 -14 -1 -23 -12 -15 -20 -15 -20 -11 0 2 12 -2 19 -10 17 -8 -1 -11 2
-6 9 5 9 2 10 -12 6 -17 -6 -18 -6 -2 6 11 9 14 18 8 27 -5 8 -6 18 -4 22 3 4
0 8 -7 8 -7 0 -10 2 -7 5 15 15 37 -9 33 -36 -2 -16 1 -29 6 -29 6 0 7 9 4 20
-3 11 -3 20 2 20 5 0 9 9 10 20 1 11 -1 19 -5 19 -28 -4 -34 1 -21 18 11 13
11 17 2 20 -7 3 -13 10 -13 16 0 5 3 7 6 4 4 -3 15 -2 26 4 16 9 17 13 6 27
-9 12 -7 12 10 -2 15 -13 22 -15 22 -6z m278 -99 c11 -7 11 -9 -2 -14 -9 -4
-13 -13 -10 -22 3 -8 11 -12 18 -8 6 3 6 1 -1 -8 -18 -18 -16 -34 1 -20 15 12
35 -3 22 -16 -3 -4 -6 -1 -6 6 0 7 -5 9 -12 5 -7 -5 -5 -12 8 -22 18 -13 18
-14 -6 -7 -23 7 -24 7 -10 -11 8 -10 20 -23 25 -27 6 -5 3 -7 -7 -3 -20 6 -22
-1 -9 -23 6 -9 11 -10 15 -2 4 6 13 11 19 11 7 0 4 -5 -5 -11 -9 -5 -15 -16
-12 -24 4 -8 11 -12 17 -8 6 3 7 1 3 -6 -4 -6 -12 -8 -18 -5 -8 5 -9 1 -5 -10
4 -11 3 -15 -4 -11 -5 4 -8 12 -6 18 5 15 -20 67 -33 67 -5 0 -13 -8 -19 -17
-8 -15 -11 -15 -26 -3 -16 13 -17 13 -11 -5 5 -17 1 -21 -17 -22 -12 0 -16 1
-9 4 15 6 16 33 1 33 -5 0 -8 -4 -4 -9 3 -6 -4 -8 -16 -6 -26 5 -35 13 -25 22
4 4 11 1 16 -7 6 -8 10 -13 11 -10 0 3 2 13 4 22 2 9 12 27 24 39 11 12 17 27
14 33 -4 6 3 2 15 -8 25 -22 30 -6 6 18 -14 15 -13 16 7 14 12 -2 24 2 26 8 2
8 -8 10 -28 8 -35 -4 -35 4 0 11 36 7 47 18 25 26 -13 5 -14 8 -4 8 8 0 21 -3
28 -8z m-151 -135 c-2 -5 -10 -11 -18 -14 -12 -3 -12 -2 1 7 8 5 12 13 9 16
-8 8 -40 -5 -34 -15 2 -4 -7 -12 -21 -19 -23 -10 -24 -14 -13 -29 13 -16 12
-16 -5 -2 -18 14 -19 13 -13 -2 3 -10 1 -20 -5 -24 -7 -5 -8 -2 -3 6 6 10 4
12 -8 7 -12 -4 -14 -2 -10 11 6 15 4 15 -10 4 -8 -8 -14 -19 -11 -27 3 -7 0
-16 -6 -20 -6 -4 -11 -1 -9 6 3 26 -1 40 -10 34 -10 -5 -7 -37 4 -54 3 -5 1
-13 -5 -16 -6 -4 -10 -3 -9 2 3 17 -1 33 -8 32 -15 -2 -53 13 -53 21 0 5 11 7
25 5 14 -1 28 2 31 6 5 9 -9 13 -36 10 -10 -1 -11 1 -4 6 6 4 10 15 9 23 -1 8
2 24 7 35 8 18 8 18 4 -3 -3 -15 0 -22 7 -19 7 3 11 9 10 14 -1 5 8 10 20 10
13 1 17 -1 10 -5 -14 -9 -5 -26 15 -30 9 -2 12 4 7 17 -3 11 -2 22 4 25 15 10
43 -5 37 -20 -3 -7 -1 -16 4 -19 6 -4 10 -1 10 6 0 7 3 10 6 7 3 -4 14 1 23
10 16 16 17 19 2 36 -12 15 -8 14 17 -4 18 -13 31 -28 29 -34z"/>
<path d="M2773 7211 c10 -12 9 -14 -6 -8 -11 4 -16 3 -12 -3 4 -6 14 -9 22 -8
9 2 18 -2 20 -7 6 -19 -35 -14 -53 6 -9 10 -21 19 -27 19 -5 0 1 -9 14 -20 13
-10 19 -19 14 -20 -6 0 -16 5 -23 10 -9 7 -9 7 -2 -2 14 -17 12 -26 -7 -31
-17 -4 -17 -5 0 -6 10 0 15 -6 12 -11 -4 -6 -11 -8 -16 -5 -5 4 -9 -1 -9 -10
0 -9 -4 -14 -10 -10 -5 3 -7 13 -4 23 5 14 4 14 -4 2 -8 -10 -7 -19 1 -29 10
-12 9 -14 -3 -9 -9 3 -24 0 -35 -8 -10 -8 -14 -14 -9 -14 6 0 15 5 22 12 9 9
12 9 12 -2 0 -9 8 -6 23 9 32 30 59 -7 34 -46 -13 -20 8 -15 28 7 18 19 41 28
31 12 -3 -5 5 -8 16 -7 12 1 26 10 32 21 6 10 7 14 2 8 -10 -12 -56 21 -56 39
0 6 8 3 18 -6 23 -21 32 -21 32 -2 0 7 8 19 18 24 10 6 12 11 4 11 -7 0 -10 4
-7 10 4 6 -1 7 -11 3 -13 -5 -15 -3 -9 7 5 9 4 11 -3 6 -11 -7 -17 6 -13 27 1
5 -3 6 -8 3 -5 -4 -12 -2 -15 3 -4 5 2 12 11 14 10 3 6 4 -9 4 -22 -1 -25 -4
-15 -16z"/>
<path d="M2380 6940 c-6 -11 -15 -18 -20 -15 -5 3 -12 1 -15 -5 -5 -8 -11 -8
-20 0 -20 17 -39 -13 -25 -39 14 -27 18 -26 42 5 25 31 36 25 14 -8 -8 -12
-14 -27 -13 -33 1 -5 -7 -11 -18 -13 -16 -2 -17 -1 -5 7 12 8 10 10 -8 8 -21
-1 -33 -17 -13 -17 5 0 8 -14 6 -31 -4 -30 -3 -31 14 -15 10 9 21 13 25 9 23
-23 75 -1 55 23 -11 13 -5 18 14 15 5 -1 5 4 1 11 -6 9 -3 9 9 -1 9 -7 17 -19
17 -25 0 -6 -5 -4 -10 4 -5 8 -10 13 -11 10 0 -3 -2 -13 -4 -22 -4 -24 11 -23
28 2 12 18 15 18 20 5 4 -8 12 -15 18 -15 7 0 2 11 -11 25 -16 17 -19 25 -9
25 12 0 12 2 0 9 -20 13 -23 41 -5 48 10 4 11 9 4 18 -5 6 -7 15 -4 18 4 3 -3
5 -15 4 -24 -2 -36 -24 -21 -42 8 -10 5 -13 -14 -11 -28 1 -31 23 -7 42 10 8
11 13 3 18 -6 3 -16 -3 -22 -14z"/>
<path d="M8254 6016 c-6 -15 -21 -16 -43 -2 -8 5 -16 4 -21 -4 -4 -6 -11 -11
-16 -11 -5 1 -17 -6 -26 -14 -17 -14 -22 -11 -19 8 1 5 -3 6 -9 2 -8 -5 -7
-12 2 -23 11 -13 10 -15 -5 -9 -12 5 -16 3 -11 -5 5 -8 2 -9 -10 -5 -14 6 -15
4 -5 -16 15 -29 24 -37 16 -14 -6 15 -4 16 16 7 21 -11 21 -11 3 4 -11 9 -15
16 -9 16 7 0 15 -4 18 -10 3 -5 13 -10 21 -10 8 0 12 5 9 10 -4 6 -10 8 -15 5
-5 -3 -12 -1 -15 5 -4 6 -3 10 2 9 24 -4 38 1 24 10 -9 6 -10 11 -2 15 11 7
15 -6 11 -33 -2 -13 1 -13 17 -1 17 14 17 14 0 -6 -9 -12 -16 -27 -14 -35 2
-8 2 -11 0 -6 -3 4 -10 4 -15 1 -7 -5 -8 -2 -3 6 5 8 3 11 -6 8 -8 -3 -13 -14
-11 -24 2 -16 1 -16 -7 -4 -6 8 -15 16 -21 16 -5 1 -15 2 -21 3 -5 0 -8 5 -5
10 3 5 -1 14 -9 21 -13 11 -14 10 -9 -5 5 -13 4 -16 -4 -11 -7 4 -12 2 -12 -4
0 -7 -6 -10 -12 -7 -7 2 -12 10 -10 16 1 6 -2 11 -8 11 -14 0 -12 -16 4 -29 7
-6 22 -8 31 -4 13 4 16 3 11 -5 -4 -7 -14 -12 -22 -12 -18 0 -14 -22 6 -28 8
-3 10 0 5 8 -5 9 -4 11 3 6 7 -4 12 -2 12 3 0 6 11 10 24 9 14 -1 23 -5 20 -9
-2 -4 -1 -9 3 -12 5 -2 1 -2 -7 0 -29 8 -33 8 -37 -5 -3 -8 2 -10 14 -6 17 5
17 5 0 -6 -13 -8 -15 -15 -8 -24 8 -9 7 -13 -3 -13 -8 0 -13 8 -11 19 2 10 -1
18 -7 18 -5 0 -8 -6 -5 -14 3 -7 1 -18 -5 -24 -6 -6 -6 -12 0 -16 6 -3 13 -2
17 4 4 7 12 7 26 0 13 -8 19 -7 19 0 0 6 4 9 9 6 5 -3 12 1 15 10 3 8 11 12
17 8 8 -5 8 -1 0 14 -7 14 -8 23 -1 27 6 4 7 11 4 17 -4 6 1 6 14 -1 16 -9 21
-7 25 10 4 13 10 18 18 13 8 -4 10 -3 5 5 -4 6 -12 9 -17 6 -5 -4 -9 -1 -9 6
0 6 8 9 19 6 15 -4 18 0 16 19 -2 21 1 24 19 19 17 -5 18 -4 6 4 -10 8 -12 13
-4 19 11 8 26 42 18 42 -2 0 -7 -6 -10 -14z"/>
</g>
</svg>
