<?xml version="1.0" encoding="UTF-8" standalone="no"?>
<svg
   version="1.0"
   width="1024.000000pt"
   height="1024.000000pt"
   viewBox="0 0 1024.000000 1024.000000"
   preserveAspectRatio="xMidYMid meet"
   id="svg20"
   sodipodi:docname="2.svg"
   xmlns:inkscape="http://www.inkscape.org/namespaces/inkscape"
   xmlns:sodipodi="http://sodipodi.sourceforge.net/DTD/sodipodi-0.dtd"
   xmlns="http://www.w3.org/2000/svg"
   xmlns:svg="http://www.w3.org/2000/svg">
  <defs
     id="defs24" />
  <sodipodi:namedview
     id="namedview22"
     pagecolor="#ffffff"
     bordercolor="#666666"
     borderopacity="1.0"
     inkscape:pageshadow="2"
     inkscape:pageopacity="0.0"
     inkscape:pagecheckerboard="0"
     inkscape:document-units="pt" />
  <metadata
     id="metadata2">
Created by potrace 1.16, written by Peter Selinger 2001-2019
</metadata>
  <g
     transform="translate(0.000000,1024.000000) scale(0.100000,-0.100000)"
     fill="#000000"
     stroke="none"
     id="g18">
    <path
       d="m 4419,9578 c -17.6202,-67.1612 -165.2852,19.3548 -129.75,-28.375 -59.6029,-6.8846 -191.4275,-73.8188 -150.25,-31.625 -76.3006,11.3478 -269.3099,-52.4131 -145,-8 -117.6333,-23.7166 -427.061,-74.4038 -178,-43 96.7323,-53.8353 -730.8361,-162.3357 -195,-96.875 -103.2658,-123.9103 -153.692,-35.7011 -215,-122.125 -70.2895,20.1999 -291.5472,-138.7316 -220,-91 -151.4385,-65.2476 -240.3461,-65.9896 -166,-64 -22.1052,-97.3361 -212.2631,-162.7592 -177,-83 -59.7247,-9.571 -201.4011,-46.8894 -157,-43 -89.0225,-2.0198 -358.9585,-102.7131 -233.875,-54.25 C 2372.5921,8829.2947 2230.9743,8697.7118 2328,8786 c -46.9863,-83.1894 -219.682,-63.3224 -117.25,-40.5 -155.2679,-38.2566 -201.929,-123.3795 -114.75,-86.5 -157.3833,-130.8866 -128.8101,-71.0076 -116,-68 -33.1303,-46.6038 -119.8348,-123.6199 -80,-80 -93.8381,-6.7169 -239.5277,-174.5224 -137,-174 -27.9656,-45.8539 -98.8571,-255.1488 -61,-139 3.9223,-32.8831 26.7851,-193.6284 -10,-130 124.5378,-68.7443 276.3179,-142.1403 242,-124 53.7981,-13.9404 138.5427,10.873 98,-10 27.2521,-63.9584 331.436,-79.7578 284,-86 -54.0097,-63.6386 347.4595,-54.7866 185,-61 14.4154,4.2723 195.6503,-80.0446 189.625,-16.875 189.597,27.8724 507.9245,28.1661 342.375,-9.125 6.0885,-37.4087 161.0769,-28.5453 128,-21 97.5781,-49.2774 308.8278,25.4105 263,-27 58.0092,152.7269 186.358,317.9432 134.75,206.375 53.6914,-128.3716 197.0736,-64.899 86.25,-9.375 -55.3824,9.9081 -30.5077,165.3811 52,111 50.3438,10.2139 38.5137,102.9665 -34,123 29.6173,185.5502 18.7997,103.0277 20,100 -25.8774,66.8858 46.9454,219.5691 67,111 -8.987,-117.5017 254.4573,22.5803 40,-17 152.3157,-97.4564 -144.2179,79.5289 65.875,66.5 56.8648,-40.0744 241.1503,-20.8457 152.875,24.375 C 3820.0689,8316.8911 3910.581,8201.7733 3964,8311 c 28.6301,-34.7964 53.6504,207.4469 104,132 63.3933,14.9182 181.0561,-58.0929 122,1 64.0406,-55.3034 194.9257,-64.3328 170,-55 40.5714,19.3864 207.8057,-113.1754 147,-66 25.2022,-115.0464 65.487,-296.5175 58,-197 -23.1003,-318.0032 311.2045,366.0668 54,-193 44.8907,-134.5778 49.5153,-311.898 37,-209 13.0302,-75.4421 -0.9424,-108.4353 17,-138 45.0107,-61.0306 77.3514,-369.88 44.75,-215.125 -44.8915,-34.5929 -68.4285,-123.2059 -12.75,-111.875 71.5161,-132.8772 29.6171,-88.7585 -13.5,-121.375 11.4252,-19.2198 -20.6722,-50.2413 -8.5,-111.625 -77.2464,-55.6281 -142.1484,-277.9721 -66,-152 8.2242,-13.9278 -108.6637,-175.6211 -34,-109 34.2039,-27.4773 -57.1028,-118.4857 -79,-134 6.2527,-83.3194 -77.3131,-261.4821 -75.625,-159.875 16.9304,-60.5114 -146.0473,-177.6641 -88.375,-75.125 73.0525,-97.4147 -72.7769,48.2773 -36,-126 15.9106,11.8484 -526.5046,-404.3166 -113.75,-121.875 90.517,-29.5474 145.6572,-158.9426 24.75,-120.125 -109.4422,-4.2103 -224.9304,-266.8194 -122,-155 -21.0523,-33.9781 -69.3986,-243.0066 -80.25,-162 -25.9111,35.7164 -99.6107,-33.0012 -74.75,-39 -31.0651,-19.873 -90.3774,-71.1937 -117,-102 53.5119,-147.0965 -27.2362,-153.8802 -23,-81 75.8128,-103.977 198.3616,-157.8929 141.5,-106.5 -116.4571,11.2445 -144.7474,-50.6437 -206.5,-89.5 59.2439,-47.044 15.5037,-22.6568 -73,-82.125 -102.3259,-0.7446 -170.2794,-45.8169 -133,-43.875 -58.5118,32.1897 -214.4136,-70.9235 -140.5,-44.375 -28.8653,-64.2006 1.1114,-211.6154 24.625,-139.125 -48.7414,-134.0361 -124.2617,-219.3788 -95.125,-143.5 32.3065,-3.6072 -107.7052,-156.0584 -136,-155 30.4299,-121.8787 -64.0118,-151.5886 -82,-94 -60.2551,6.652 -134.4751,-37.6124 -95,-94 -6.5604,-100.8219 -12.1111,-230.4304 -75.625,-116 -111.1701,41.1215 -281.0747,-133.6001 -172,-61.875 19.4313,6.7009 -122.9927,-29.0528 -115.375,-57.125 -53.4448,3.1089 -225.5295,-166.923 -132,-130 17.2548,-43.0287 -412.4031,-267.5648 -123,-112 -20.0829,-92.772 -185.1591,-120.9842 -138,-127 -94.7819,-38.9375 -306.6779,-194.7282 -190,-143 -17.2488,-74.4554 -225.7875,-194.4514 -159.375,-143.25 C 1827.3926,3539.0527 1628.0334,3454.9665 1711,3486 c -176.1095,-69.5751 248.6606,-329.8988 -135,-101 58.6098,-80.4985 25.5113,-136.33 -31.375,-85.625 C 1454.5794,3274.4876 1395.8423,3142.7166 1441,3200 c -17.3936,67.9215 -252.307,-126.2229 -151,-76 -31.6033,-39.8338 -81.6709,-118.4123 -75,-74 -46.1987,-42.6497 -196.3345,-206.3346 -187,-133 -46.78164,33.7625 -114.1283,-57.7585 -85,-50 23.21303,-11.8111 -47.73303,-138.594 -86,-52 C 733.84532,2716.7325 622.83458,2696.9011 755,2784 704.63927,2716.7695 583.14298,2708.2135 625.625,2723.5 567.41059,2640.689 451.28181,2613.2757 519,2633 c 35.01395,-87.6402 -37.94358,-172.0395 -51,-91 -16.8489,40.4668 -89.05772,-107.9662 -96.625,-104.5 C 335.79432,2331.2562 478.64135,2369.3299 419,2299 476.69681,2287.9145 746.59238,2054.9698 624.875,2188.625 624.89021,2010.9 734.59927,2030.9044 680,2130 c 75.31697,26.8254 25.7886,111.705 99.875,39.75 C 852.5558,2121.6411 988.61252,2032.7872 956,2056 c 48.5061,-31.1617 63.9534,60.9284 88,-6 9.4135,-64.5039 70.2159,-225.6688 91.25,-154.125 35.0221,-38.2873 -24.322,-214.2381 -33.25,-121.875 -48.1933,-8.9847 -116.52224,-155.4042 -103,-107 -47.78384,-71.4003 -51.14356,-95.7609 -52,-90 22.06584,-7.9446 143.8741,-38.4537 40,-101 -28.21205,-23.5822 -148.01044,-61.1887 -115,-104 -21.74312,36.2724 135.4059,-240.5947 -43,-126 113.25038,-43.4559 -14.49449,106.4512 -9,78 33.53785,72.3073 172.43928,-71.4161 83,-48.375 5.55987,-79.2887 76.45191,-152.6256 61,-108.625 -9.67298,-45.3173 157.7006,-74.096 187.875,-74.25 10.5016,-44.4472 0.6026,-125.32221 -99.875,-11.75 62.3614,-48.8104 188.4511,-110.66489 202,-43 103.7723,-37.1899 173.6242,-47.50939 66,22 28.2767,-5.2114 124.6417,73.5147 137,17 161.5935,-116.08712 66.8678,-189.06403 21,-84 7.5976,-71.18822 37.4984,-124.15285 72,-53 104.1623,32.2051 201.1938,-4.84347 77,44 110.0696,4.77598 224.8427,-21.50434 186,32 -24.2763,-34.29301 67.7043,20.4854 55,20 133.0813,-57.78299 117.9215,-5.967 77.75,37.875 79.6404,23.7859 298.1778,45.6735 194.25,45.125 -27.5986,-66.5688 84.0951,10.763 74.375,-2.375 30.0789,-75.6249 306.393,-28.9998 222.625,36.375 -38.6075,24.446 66.4603,67.5481 91,75 104.4512,10.2753 260.9313,13.9094 137,22 92.153,17.2498 200.1969,20.7475 103,32 -27.6436,19.5913 249.2876,144.6162 210,80 -3.4158,49.7439 159.4899,111.272 107,68 -95.3394,82.4961 76.9102,198.7782 97,95 107.7301,17.4887 405.9501,111.7799 206,75 -39.1526,7.5595 -80.841,84.2096 58,82 207.6553,38.0534 134.9994,87.8609 187,66 -66.3023,46.2232 92.5113,55.4159 107,72 40.3589,66.3722 83.5968,15.6241 128.125,101.875 7.0051,-2.1073 174.5598,172.3582 126.875,148.125 56.2502,-13.3047 149.0732,152.692 104,130 -39.8448,5.262 103.0089,171.1993 131,179 -14.0142,46.2051 175.073,141.6535 110,71 57.7708,26.7191 220.8724,-3.8156 128.5,21.625 -140.8293,93.1065 501.6474,60.5775 218.5,43.375 4.3343,-28.4521 14.2039,69.319 102,-45 32.2633,20.6873 183.7466,-98.2761 154,-75 81.5498,56.1178 249.8087,-132.5731 142,-45 -13.0956,35.6834 260.4912,22.6959 245,-22 119.046,-24.8658 44.6448,68.7132 109,-24 151.7919,-15.7929 229.2737,-108.0393 181,-19 59.7985,135.2063 257.2422,36.8209 188,34.875 -29.721,67.7965 45.3075,50.4057 82.25,30.625 15.7858,-73.8638 321.8999,159.817 169.75,34.5 102.9006,-83.0422 -47.9451,-100.2052 10,-100 -11.7032,-66.8423 -39.1256,-311.9294 6,-152 -57.8657,16.8071 67.3308,91.5204 85,-19 -43.8452,2.0825 137.7845,-70.7489 129,-36 75.439,-8.587 16.9526,-87.2082 57,-34 67.0221,20.1185 190.9366,-20.8523 126,-19 37.5182,-47.2576 159.5367,-89.4074 90,-63 75.2228,-51.5023 130.445,-32.7826 104,-48 79.3664,15.9113 149.7842,-25.4552 134,-34 143.7466,-70.7967 258.5277,-71.6757 194,-10 56.5275,6.8742 193.7119,6.8016 160,-16 -18.9474,15.5077 151.195,5.9913 117,-54 -11.0293,-68.8544 -43.2841,-23.8935 80,-57 121.0635,-22.4835 301.4988,-93.3336 200,-77 61.9127,-43.7676 240.154,51.7117 156,-9 -15.5052,-50.1078 266.6173,-18.1417 171,-64 -30.3108,-38.5254 125.2074,19.7136 119,27 85.7519,-27.9756 205.7942,40.5652 166.875,8.625 95.3276,39.6313 305.1486,61.1088 193.125,47.375 -83.9146,44.3844 194.7008,54.7405 108,27 37.2705,22.3604 174.5816,48.0582 149,64 -178.2338,40.4868 137.9818,-73.1122 31,-3 27.9729,22.9097 73.2914,82.8436 -48.375,82.25 104.0876,-3.9104 120.7798,154.7982 90.375,24.75 -4.8431,-30.1401 157.8639,-98.7534 184,-85 36.9427,-153.8145 122.315,-145.5283 91,-80 19.766,10.316 182.017,-9.2075 157.875,4.125 41.8664,49.377 322.2253,20.6972 208.125,53.875 -119.3281,78.6883 157.0813,32.6402 121,31 65.4603,25.1866 45.9819,194.7706 7,199 -31.9804,46.3951 -60.2666,133.8255 -79,114 0.4339,74.619 -89.8994,261.4343 -99.25,201.125 -98.7049,1.0588 -296.4447,130.7327 -236.75,128.875 -45.3342,52.5561 -271.3908,154.7327 -186,104 -142.2103,52.3203 81.3555,-50.5343 -141,44 -119.5339,26.9956 -221.0846,110.7458 -157.5,64.5 -88.3417,6.566 -275.0245,100.2757 -188.5,67.5 -71.5457,21.6236 -422.9682,97.4961 -337,72 -61.143,0.5362 -218.8715,60.359 -172,48 -108.1684,72.0729 -180.4996,35.3801 -213,54 2.5076,-85.8886 -428.0665,225.0108 -164.875,73.375 -50.5888,13.0021 -287.7729,7.6948 -206.875,20.875 24.9108,-26.3231 52.6053,16.3483 -96.25,-30.25 18.0002,50.6 -148.5232,-18.2358 -141,-58 -124.5518,-13.3023 61.2007,92.314 -92,19 -120.2564,-68.6106 -263.5287,15.4339 -232,49 -62.0389,71.4187 -160.7444,124.1824 -113.125,77.5 -70.1831,13.3992 -172.9166,80.2169 -120.875,64.5 5.6197,-5.2991 -51.0625,26.1389 -80,57 -32.9655,8.8292 -163.9292,25.5678 -134,77 -97.288,27.7061 -253.057,82.6375 -163,64 -103.4962,-3.056 -262.0801,66.5809 -211,20 -43.5181,-59.5108 -394.6758,-89.1731 -268.875,-32.125 -44.0039,64.0707 -270.789,107.1035 -183.125,52.125 -34.2285,-29.0904 -343.1548,20.5489 -243,39 -20.3322,75.4347 -142.861,173.2644 -131.875,84.375 -134.1193,40.0827 -279.0797,126.0714 -179.125,44.625 -55.8975,-33.5374 -243.8676,-1.286 -176,31 -78.9042,35.8399 -283.5082,18.645 -194,14 1.4139,49.2545 -348.8696,93.5566 -228,50 -184.1796,-41.1719 -262.1945,-64.0989 -244,-60 -87.3797,41.361 -13.5946,124.2558 -120,-10 108.6747,30.6074 -239.9657,-16.2103 -105,-81 -96.6122,-60.5186 -306.7459,-170.7649 -188.125,-115.75 11.6697,90.7093 255.7189,76.2316 133.125,98.75 -38.5489,-10.0937 -103.6481,-33.025 36,64 20.3311,90.1441 -140.1155,-89.1934 -140,-80 -149.6171,-58.7944 -215.0058,-288.8825 -138,-169 74.0971,66.317 27.1578,-41.2571 70,58 -54.5588,-131.7726 -361.8719,-95.1281 -225,-56 57.486,-53.9423 -650.0095,-305.1228 -158.625,-115.875 -43.5895,-214.0106 108.2841,-145.0103 116.875,-16.125 91.9396,-24.9637 168.4054,31.8128 131.25,79.75 99.0483,84.6746 -71.7717,-183.582 -66.5,-135.75 -98.4861,126.308 -82.9799,-36.2841 -71,-69 -118.5735,-129.5759 -91.8666,-234.8118 -16,-111 7.9448,-18.5988 -135.7026,-135.8482 -97,-146 -62.0364,-154.6448 -208.0657,-69.3379 -132.625,0.375 2.2568,73.6228 -98.4917,52.7752 -51.9417,50.7064 16.2832,109.1856 110.6274,176.8748 131.1917,117.1686 -158.8582,165.8971 75.3476,80.1928 12.125,133.375 110.5033,-9.8114 86.4467,-18.7417 15.25,52.375 -160.9789,21.7449 -156.2051,-5.9506 -90,-48 -32.4397,0.9774 -303.4213,-128.4497 -236,-175 -107.8489,-113.5145 -124.9185,-116.55 -133.5322,-80.1123 -8.1353,-52.2395 -89.7444,-179.0659 -47.4678,-98.8877 -134.442,-3.8658 -22.6471,-50.7428 -138,-57 25.8747,-24.4026 26.1024,-195.2808 26.5,-87.875 -130.9307,84.6755 -125.6275,-78.8468 -95.5,-37.125 -152.1658,62.6896 -164.3668,-0.6876 -83.125,-39.5 -56.7057,31.4877 -235.8867,-56.8827 -132.875,-73.5 16.4733,38.1566 -218.7269,15.8869 -142,-79 -7.2665,-67.1869 -119,-208.8044 -80,-140 14.1619,109.9145 -92.6456,-55.6985 -91.5,-32.875 -94.0603,-121.0948 -111.2678,-159.1662 -89.5,-100.125 -101.5463,-58.5017 223.9193,17.6606 76,-25 111.0357,18.0424 338.3713,86.9404 240,47 -76.8716,8.8517 -52.0376,-31.0926 90,17 11.5036,-41.9307 -75.3397,-36.9751 -124,-56 -92.6601,-60.7646 -315.1687,-82.4601 -186.5,-41.5 -38.5473,15.3047 -187.6399,-81.312 -161.5,-50.5 -92.8457,43.1709 -214.6647,4.4638 -134,-33 -8.4614,-73.9393 -182.4072,-41.1561 -147.125,-33.25 -28.5511,73.0872 -110.9882,117.5328 -43.875,4.25 -86.8754,-40.937 -36.1313,-89.7994 -90,-64 -92.0219,-12.4875 -70.2939,112.8779 -75.25,35.75 -57.3186,-42.9226 97.9108,-65.4919 29.25,4.25 42.1164,93.2397 111.8646,182.2182 49.625,126.5 -44.2389,32.568 3.6661,196.0259 27.5,100.25 27.4012,30.5025 148.4893,136.5428 78.375,94.375 65.6514,-21.2118 -85.5001,72.253 101.75,92.75 8.2242,114.686 54.7908,17.9198 163.75,176.125 -38.7133,-47.0821 126.1046,73.5753 130,72 5.3746,65.5087 262.0106,132.6226 212,121 29.9667,38.73 116.5167,142.4045 61,75 87.7689,43.0729 289.38,135.7976 162,70 15.2511,44.3986 79.6298,142.0761 78,89 36.8246,-9.9645 224.4314,172.1844 169,115 67.5104,35.6121 167.2376,114.1918 105.875,73.125 -2.9796,-61.4857 170.2622,160.486 177.125,127.875 33.0427,4.6107 253.165,181.6235 227,137 23.3055,15.2571 74.6258,36.7208 78.75,48.125 69.3575,18.1809 199.4976,88.103 135.75,81.5 32.0992,42.2987 234.2674,124.5377 176.5,117.375 167.2699,133.6058 55.7984,-14.6744 171,119 68.977,5.8354 220.9028,99.715 136,69 77.4284,77.4023 123.9374,103.1087 114,95 91.2196,71.0455 168.0583,191.3599 162,141 118.3536,26.2129 135.7872,79.2478 126.5,91.875 -21.7093,77.1877 167.034,210.5039 114.5,121.125 10.9027,30.284 62.6548,188.5961 111,136 97.9808,44.2431 159.8361,96.0217 165,124 142.8484,186.384 39.0497,12.3731 126,107 6.1462,42.9188 265.638,239.6696 177.5,179.875 41.249,82.0816 182.7294,244.1266 144.5,198.125 40.0779,63.9877 145.1704,103.0179 94,93 25.7588,55.9397 112.5494,173.6827 112,152 37.9841,73.4208 118.0895,156.5569 80,136 49.7623,83.0048 179.2722,271.0479 118.875,169.875 2.8857,138.9567 66.2876,191.0583 40.875,177.25 -9.7088,81.4532 -3.8738,159.3672 5.25,137.875 8.9179,75.8839 -77.6154,55.4513 -3,66 92.2541,110.5684 121.0506,165.2387 93.875,141 15.8782,149.0907 103.5897,208.1851 60.5,175 -10.4896,58.5223 74.2747,249.8441 30.625,105 20.5717,83.9132 72.092,144.5146 61,122 64.0031,133.9381 117.9628,219.6732 77,249 137.794,-0.1187 28.2631,1.9665 27,28 134.7243,205.6356 70.1397,-64.2354 99,133 -84.1145,-54.3216 160.175,294.383 52.5625,169.0625 -60.3946,36.12 -12.0595,158.8537 -14.5625,147.9375 -10.1825,125.8572 -18.2401,80.2314 -38.125,193.375 -93.1386,-39.9321 -149.6425,-27.6732 -34.875,65.125 40.4586,82.9379 28.8328,291.6179 19,184.5 -31.3113,95.6009 -76.7629,306.4796 -30,194 55.9399,31.8001 -0.1203,190.0746 -5,147 -18.2983,89.9125 -56.2509,290.2072 -34.875,195.25 -5.8584,113.109 -69.4402,207.257 -55.125,178.75 -7.489,134.6873 -53.5629,278.8981 -38,202 -17.768,71.638 -91.0784,257.3818 -79,185 -36.9889,72.8346 -67.0554,178.3285 -60,130 -48.0521,56.1363 -113.8706,148.2222 -98,128 -57.9087,77.6989 -231.1066,271.2968 -156.6875,181.7969 C 5220.2107,9225.0657 5004.5946,9344.5046 5124,9289 c -24.2623,34.9902 -62.8496,90.5918 -112,77 -110.5962,-8.2014 -356.4143,118.7682 -276,113 -5.9628,57.5059 -238.984,45.8329 -201,61 -58.6384,50.3907 -97.1895,-15.3585 -109,50 z M 2210,8637 c 165.7649,22.3127 31.8059,-125.5745 33,-94 15.1909,76.0452 -96.9776,-44.7319 -76,14 -45.6978,-80.8503 -150.3699,-116.9629 -20.75,-52.25 -45.0413,21.646 97.3187,169.7767 37.75,116.25 54.3911,-13.2651 -57.0215,92.2834 26,16 z m 856,-5650 c 84.1179,-117.6257 -24.1319,-130.134 -16,-97 -19.503,-50.0523 -78.1848,-129.0228 -104,-50 -44.3737,-28.4595 9.4154,43.0139 -85.625,0.125 1.6022,43.0715 213.4067,63.3435 205.625,146.875 z m -66,-132 c 51.5747,39.1588 67.1876,-155.0241 96,-220 7.8697,78.5093 -17.506,36.9154 -96,15 66.2973,-84.8852 47.4822,9.3256 64,-77 -44.8277,-66.8885 -156.6106,-169.3004 -137,-100 -59.0326,16.9672 -204.9464,4.7865 -148,-40 -9.0053,-23.5809 -253.2899,-40.9031 -191,-38 124.2173,-48.7647 47.5911,-155.3318 28,-107 -75.5555,-42.3752 -229.5287,-108.7708 -148,-92 -187.4427,-49.2402 -275.6096,126.2965 -111.7031,78.5938 80.1124,-79.0136 -129.3728,2.2723 -125.2969,-49.5938 79.3014,106.2563 163.0419,200.2892 12,91 156.8111,138.2107 76.2127,15.9894 35,3 61.6143,-11.6603 79.0571,89.6608 81,61 -16.9028,29.9988 510.6449,465.6965 238,231 22.8037,-15.9632 150.0317,-98.3793 56,-108 -14.7245,82.7513 34.3334,173.5175 28,108 46.8039,-3.8399 120.1803,109.2744 75,69 -125.8414,-4.1265 101.3555,215.9695 18,102 14.6551,96.5463 111.3548,96.3314 138,0 -78.8427,11.461 78.6351,82.4729 88,73 z m -821,-608 c 113.1457,-97.3942 175.8006,-123.6231 -42.625,-144.25 -65.6232,-81.9081 -337.9534,-83.0222 -158.375,53.25 124.1501,61.0723 220.6641,71.415 157,-29 201.9018,-3.8342 -34.9486,118.5629 22,83 -40.6061,-110.2043 -83.2799,9.6597 -76.125,-12.625 92.7252,57.3647 189.1587,28.6333 -2.875,32.625 3.4452,28.7302 82.0552,49.8987 101,17 z m 6568,-22 c -101.7172,-40.7482 64.2982,-72.9708 106,-41 149.9236,85.7288 -20.2005,-22.5027 14,-111 -39.8545,-53.9573 -257.9333,-27.1411 -155,-48 -29.4769,-19.2045 -142.1697,61.8035 -125,47 -97.0553,38.7946 30.708,64.1535 28,109 -2.525,-115.9635 9.6387,66.7897 64,30 0.717,-30.189 72.4753,66.3368 68,14 z"
       id="path4" />
    <path
       d="m 2995,2833 c -133.7791,-145.1327 -62.3684,-19.7976 -193,-61 -56.5889,-12.6251 15.0098,-197.6668 32,-129 102.175,39.6995 82.1876,-14.4431 76,-23 53.6407,-35.1232 -32.8137,180.031 38,72 108.2766,-38.5271 269.8487,-20.6975 60.875,101 -5.1334,10.0595 12.7874,80.6534 -13.875,40 z m -20,-43 c 319.0392,-176.3967 -77.184,-152.8066 -42.375,-110.625 -31.2454,-103.123 158.7191,-33.8647 -11.625,55 45.5683,-6.8895 0.2318,101.0211 54,55.625 z"
       id="path6" />
    <path
       d="m 2771,2640 c -81.467,-9.4304 -118.8424,-201.8446 -92,-195 -102.0735,2.4695 102.9003,-4.6203 11,-27 140.5713,13.515 428.3467,128.6245 303,111 51.3061,69.6248 -17.4263,-33.6089 -95,22.875 23.458,-60.4933 -75.5065,-167.3004 -73,-77.875 6.3218,-43.9427 76.47,16.2613 -55,38 -92.2761,105.4712 165.0903,119.5234 93,111 70.7662,-62.2753 -30.3875,61.4185 -92,17 z"
       id="path8" />
    <path
       d="m 2519,2547 c 0.4174,-58.8984 84.9261,-93.1339 -14,-108 60.9864,68.7491 193.9698,155.6946 136,47 -32.6934,-3.3098 -125.6738,79.9714 -122,61 z"
       id="path10" />
    <path
       d="m 2369,2438 c 68.0531,-136.5285 -5.7474,-203.2862 -79,-177 1.1111,-72.9107 154.5085,-184.7636 160,-60 56.9299,120.5596 179.6174,191.2299 134,90 -49.3414,45.7299 -235.1244,123.5497 -194,19 -78.6954,-0.1719 87.6184,53.8771 93,85 -12.9101,45.5261 10.3894,42.0397 97.375,-14.875 -45.6881,65.5528 -140.4209,28.838 -211.375,57.875 z"
       id="path12" />
    <path
       d="m 3272,3109 c -156.8423,-219.5865 -212.5272,-79.4089 -78,-204 -198.878,-64.4957 44.244,-259.1294 -41,-176.75 65.9486,-23.8046 26.6589,-26.499 72,52.75 -177.7629,-14.8716 -13.7075,141.8476 -80,74.75 -0.7577,-48.7958 24.9227,171.6799 51,85.25 -59.928,100.0818 109.7529,205.0553 85,109 -4.6242,-11.6032 107.8259,64.9362 -9,59 z"
       id="path14" />
    <path
       d="m 3216,2974 c 53.263,-168.7343 -123.2836,-23.3089 2.5,-181.125 -18.132,22.8007 160.6295,141.4383 -2.5,181.125 z"
       id="path16" />
  </g>
</svg>
