<?xml version="1.0" encoding="UTF-8" standalone="no"?>
<svg
   version="1.0"
   width="1024.000000pt"
   height="1024.000000pt"
   viewBox="0 0 1024.000000 1024.000000"
   preserveAspectRatio="xMidYMid meet"
   id="svg10"
   sodipodi:docname="4.svg"
   xmlns:inkscape="http://www.inkscape.org/namespaces/inkscape"
   xmlns:sodipodi="http://sodipodi.sourceforge.net/DTD/sodipodi-0.dtd"
   xmlns="http://www.w3.org/2000/svg"
   xmlns:svg="http://www.w3.org/2000/svg">
  <defs
     id="defs14" />
  <sodipodi:namedview
     id="namedview12"
     pagecolor="#ffffff"
     bordercolor="#666666"
     borderopacity="1.0"
     inkscape:pageshadow="2"
     inkscape:pageopacity="0.0"
     inkscape:pagecheckerboard="0"
     inkscape:document-units="pt" />
  <metadata
     id="metadata2">
Created by potrace 1.16, written by Peter Selinger 2001-2019
</metadata>
  <g
     transform="translate(0.000000,1024.000000) scale(0.100000,-0.100000)"
     fill="#000000"
     stroke="none"
     id="g8">
    <path
       d="m 4311,9959 c -8.386,-36.6098 -146.0239,-399.2086 -162,-253 -126.2679,-133.8084 -135.4922,-241.9134 -136,-200 -47.0859,11.8563 -75.273,-81.2881 -44,-78 -69.7843,-89.3175 -109.4683,-307.4129 -55.75,-209.875 31.638,-96.5478 32.2862,-293.0245 3,-236.375 -13.261,-53.4541 -1.4401,-184.9457 -21.25,-152.75 -9.4245,-92.8774 -47.166,-236.3435 -23.375,-165.625 19.7672,-45.0601 -21.5865,-145.2355 -2.625,-115.375 43.5313,-93.1378 49.4373,-271.4497 -2.125,-191.25 -48.1118,-45.7265 -97.0299,-253.0299 -46.375,-194.375 11.4547,-79.2553 -15.4627,-249.2818 -11,-201.375 8.3147,-106.5381 29.0623,-336.5173 -13.5,-254 -24.0584,-10.7942 23.1684,-80.8066 -1,-66 -102.9037,-61.8983 -173.2262,-242.6047 -91.125,-195 24.469,-47.2449 -61.387,-230.3147 -37,-166.375 15.1638,-59.8899 -47.9517,-251.6723 -59.875,-247.625 6.8051,-40.3953 -18.6481,-270.1931 -41.5,-217.875 -23.1846,-55.7689 -69.0194,-177.3929 -47.5,-149.125 0.9119,-70.2469 -54.928,-275.5923 -62,-189 -22.6328,-42.3652 -114.6345,-241.3341 -82,-203 -53.8618,-102.1822 -119.1437,-369.9645 -80.375,-267.125 C 3252.7137,5955.5373 3145.9397,5711.6223 3192,5773 c 9.2429,-54.6971 -61.1266,-110.2478 -65,-133 -29.6478,73.7275 -120.2706,-70.2606 -101.625,62.5 -77.9524,-48.2286 -123.7488,-246.6087 -90.5,-192.25 -14.9355,15.5537 -176.7418,-65.7058 -106.125,-121.25 -74.9927,-43.2061 -163.2801,-304.6704 -112.125,-184.125 -12.1614,-44.8106 -4.2783,-285.1756 -14.625,-193.875 -71.0716,-4.2125 -108.4137,-156.0699 -57,-146 10.6667,-84.4907 -35.323,-292.2162 -54.8851,-252.3822 -57.236,13.0388 -135.393,-192.7323 -96.3649,-103.4928 C 2416.7103,4438.2186 2209.4869,4268.3559 2330,4345 c -189.0021,-93.9409 52.0079,-136.9316 -155,-116 -36.8028,-44.9026 -223.3059,-215.021 -153,-137 -102.2896,-66.5242 -286.6936,-175.2304 -232,-151.125 58.9674,19.839 -61.6447,-71.8087 -49,-52.875 -118.3673,-32.7939 -444.9728,-91.1821 -300,-94 6.5908,-105.1234 -98.9501,-38.8887 -104.5,-97 -82.559,-32.6086 -56.036,-284.8335 -83.625,-204.25 -15.5655,-1.8795 97.4005,-136.5684 117.125,-112.75 23.0145,-120.0726 253.894,-158.1583 166,-154 144.7074,-33.9136 545.43,67.6844 414,41 46.0933,-10.3773 613.5379,185.3167 290,85 88.8098,34.7441 305.2376,61.6731 206,38 134.8543,16.999 166.5555,57.3117 140,43 70.8375,10.9151 267.8158,37.4665 208,41 41.6439,3.2393 298.7037,25.6316 233,27 46.6863,-7.5602 207.7367,13.8424 163,7 49.6056,-15.7909 438.1173,13.3807 335,9 76.9951,-6.8102 432.5747,-77.7249 317.5,-25.625 46.2393,39.6288 311.4731,-23.1522 209.5,-14.375 51.5033,48.0979 276.778,50.6898 209.125,12.5 49.6565,-16.1267 243.4458,-37.6203 210.875,-31.5 118.646,7.963 346.7066,-3.6049 250,0 97.0609,29.4287 350.4853,8.2611 288,17 118.5436,14.8043 496.9567,-27.3178 377,-28 84.3645,-24.9194 375.8486,30.9142 292,17.25 60.0427,-26.0518 145.9631,-20.2355 143.375,-23.875 94.8644,56.0016 299.3358,199.4308 224.625,108.625 103.9669,51.5044 234.6619,95.5655 321.25,108.875 -1.6148,-7.0735 331.2863,108.1541 263.75,81.125 171.6821,94.3833 393.8913,162.4392 561,306 192.8458,153.5863 84.9908,29.1282 261,221 72.933,81.8671 157.3481,216.2713 186,284 14.0039,55.1493 69.9806,205.6096 57,168 54.8215,194.0613 70.2566,331.1277 50.25,259.25 -30.1293,119.1179 -54.8445,388.9784 -40.25,286.75 -59.3101,69.4898 -128.7451,314.6385 -67,206 -51.4792,98.5472 -229.7954,356.4229 -160,279 -92.0421,83.8187 -237.2428,258.9733 -130,177 -100.7698,-53.8318 -282.3168,174.9782 -202,183 -40.2994,8.9735 -313.5958,196.5028 -221,155 -127.3472,33.2654 -112.5399,229.4679 -222,129 -92.3986,-1.5366 -208.9069,273.9415 -105,192 -100.3995,95.7722 124.4378,23.4829 -30,139 -101.0173,76.4337 -328.6184,141.4929 -256,110 -115.649,-32.6123 -178.3422,-247.6262 -151,-154 -63.6483,-69.62 -56.6112,-330.2805 -27,-227 22.169,-40.465 67.0036,-218.7472 42.25,-161.125 -15.143,-58.8649 151.7761,-431.5972 105.75,-280.875 36.9512,-151.0551 81.7147,-150.3202 86,-226 16.9824,-119.1737 278.4135,-207.3914 199.875,-215.5 -6.4538,-53.5053 218.2572,108.6298 240.125,5.5 -28.9009,90.4263 68.1453,-22.1495 89,-68 111.3061,-159.8094 42.8824,-142.7686 17,-107 13.9095,-90.919 -7.5845,-193.8819 -21,-161 79.8062,-119.2752 43.6602,-87.8528 215,-190 -113.7874,-58.405 -153.652,-105.3869 -128.625,-91.5 30.2351,-98.434 -182.2647,-229.7262 -128.375,-185.5 -59.2991,-142.3999 -411.2184,-261.2324 -270,-186 -1.1302,-12.9717 -267.4774,-153.1239 -198,-117 -77.9589,-58.711 -199.6381,-52.1204 -164,-52 -35.221,-21.9398 -305.7302,-45.501 -236.75,-33.625 -96.2078,-30.9564 -270.7391,-90.0022 -179.25,-47.375 -68.6817,5.6633 -239.4762,-0.9433 -170,-11 -83.6396,-50.1259 -290.2924,-53.0724 -228,-32 -46.9219,17.9634 -167.089,25.7894 -128.625,-3 -102.5851,-43.0715 -470.3846,-88.6276 -340.375,-71 -50.3246,31.6775 -250.3592,-31.0524 -177,-9 -61.9323,14.1897 -279.6127,1.1174 -246,-31 -46.4755,96.1666 -171.6324,92.4832 -110.25,18.875 -145.2119,7.392 -65.3957,-91.9078 -164.75,-22.875 -136.1393,-24.4696 -278.2469,26.5878 -270.25,-31.875 -134.67,-42.369 -273.5629,-12.9792 -198.25,-14.25 -1.527,-16.0478 -188.8657,-12.3406 -132.5,-42.875 -50.696,-12.6762 -103.2699,29.1006 -97,7 -113.7079,-12.8875 -223.8386,-163.603 -159.625,-14.125 -26.2191,-71.6643 -329.3163,-86.8662 -243.375,-44.875 -139.8072,-49.5369 -8.3964,208.7744 -21.375,157.25 -6.9815,74.868 54.1956,197.957 51.375,124.75 21.6156,45.5731 104.5331,151.255 78.375,195.125 -60.6616,35.3408 -58.4954,204.1326 49.125,147.5 23.4068,12.4898 264.796,377.8239 199.5,246.375 51.1446,100.4849 479.9582,504.671 377,367 84.2282,78.2146 174.5872,271.8749 125.75,194.375 44.7049,86.9813 95.0233,292.7327 81.75,220.25 45.2763,81.2934 130.4893,400.9674 96.5,318.375 22.2409,108.3791 72.1721,394.9445 50,276.25 52.5767,85.7097 83.602,308.1509 54,238.75 9.8816,140.0283 27.2093,382.1478 22.625,277 14.4014,27.5077 72.0758,224.3363 41.375,163 -14.0673,79.9139 50.4783,249.5015 24,191 13.5368,102.4806 72.8273,251.0011 36,179 -18.4503,70.2976 -51.8749,299.6375 -0.75,196.875 19.688,32.0605 -0.4347,208.8052 2.75,143.125 -8.5341,92.4955 8.4846,298.8261 2,245 -3.5967,21.7367 71.0056,132.2522 4.0164,145.9207 -42.3284,35.1439 -115.5418,243.8967 -61.5164,161.4543 49.5341,50.1351 -14.4486,167.4787 0.25,198.125 19.7912,82.068 9.9894,296.2033 26.875,255.125 9.0433,110.5634 78.0034,527.5062 58.5,410.75 74.1352,245.3728 55.853,379.4843 43.875,307.625 6.2098,108.906 10.5605,296.8594 18,226 -87.435,92.0403 -119.5651,6.4054 -59,90 -11.5101,40.7969 -18.7016,306.298 -117,246 z"
       id="path4" />
    <path
       d="m 7100,3729 c -26.5909,2.9172 -151.6823,-15.3312 -86,-62.125 65.8681,-91.4833 -336.9541,-343.4759 -96,-143.875 -104.0809,-28.89 -185.6756,-169.6917 -159.25,-138.75 -95.109,-67.8003 -176.2755,-151.6358 -135.25,-127.125 -48.122,-241.8952 52.9368,299.6845 -4.5,-237.125 8.2955,-115.7988 46.3443,-586.2015 29,-398 18.2177,-84.0426 26.7306,-333.2419 -3,-292 -33.1399,-52.9979 -96.6272,-248.3895 -82,-200 -45.7002,-80.5452 -110.1195,-257.0215 -96.125,-206.625 C 6376.6064,1852.6875 6222.2115,1748.1184 6333,1761 c -6.2263,-24.3171 -95.6544,-100.9019 -130.25,-52.375 87.8479,-87.6783 -96.7125,-265.1806 -146.75,-129.625 -79.3692,-41.4085 101.948,-56.0185 63,-74 68.69,34.699 -58.8539,-126.9016 -13,-106 -27.7335,-112.7217 -101.9981,-185.8818 -88.25,-147.25 -49.0154,-31.4061 -124.0178,-151.3581 -83.75,-105.75 -47.5797,-63.1686 -36.4433,-196.48301 -60,-155 -73.2039,-87.03816 -77.216,-244.68035 -65,-197 113.3046,-23.66279 62.8883,-209.80485 76,-187 3.3073,-115.41647 155.1433,-100.16983 156,22 -2.9975,-55.90887 12.7867,-193.49974 -1,-130 -9.6558,-78.11442 75.7891,41.66693 91,71 94.9401,-25.95094 131.4476,-13.68985 119.75,70.25 20.7191,131.72089 182.9571,35.73178 117.25,-2.25 128.6324,119.73139 160.224,225.88792 141,185 20.2526,25.62518 166.9053,300.9249 119.5,244.625 6.3123,80.6296 97.7449,270.0007 107.375,216 59.0184,35.4343 212.1574,224.4956 139.125,173.375 14.4141,59.3844 247.7656,349.5874 193,269 -17.056,21.7458 124.7697,237.2829 88,174 76.6874,69.2605 248.2154,302.8935 155,212 -7.9098,69.1535 142.2302,277.2838 78,179 -15.0942,45.9578 42.9662,170.2964 21,101 47.3111,34.106 40.8831,213.4277 50.625,167.25 27.199,143.249 -88.4983,79.367 -12.625,179.75 95.6202,100.1322 79.0593,152.3526 0,100 41.9278,113.5917 -61.2379,94.0737 11,91 2.9449,69.4198 -120.1226,332.7594 -48,276 95.9235,-57.1698 -16.6662,219.482 -1,174 -16.4011,63.9336 8.7707,201.8318 -37,137 -46.8242,5.1045 -126.1538,224.2278 -53,148 -111.7769,99.0233 -121.308,4.5299 -220,64 z"
       id="path6" />
  </g>
</svg>
