<?xml version="1.0" encoding="UTF-8" standalone="no"?>
<svg
   version="1.0"
   width="1024.000000pt"
   height="1024.000000pt"
   viewBox="0 0 1024.000000 1024.000000"
   preserveAspectRatio="xMidYMid meet"
   id="svg10"
   sodipodi:docname="5.svg"
   xmlns:inkscape="http://www.inkscape.org/namespaces/inkscape"
   xmlns:sodipodi="http://sodipodi.sourceforge.net/DTD/sodipodi-0.dtd"
   xmlns="http://www.w3.org/2000/svg"
   xmlns:svg="http://www.w3.org/2000/svg">
  <defs
     id="defs14" />
  <sodipodi:namedview
     id="namedview12"
     pagecolor="#ffffff"
     bordercolor="#666666"
     borderopacity="1.0"
     inkscape:pageshadow="2"
     inkscape:pageopacity="0.0"
     inkscape:pagecheckerboard="0"
     inkscape:document-units="pt" />
  <metadata
     id="metadata2">
Created by potrace 1.16, written by Peter Selinger 2001-2019
</metadata>
  <g
     transform="translate(0.000000,1024.000000) scale(0.100000,-0.100000)"
     fill="#000000"
     stroke="none"
     id="g8">
    <path
       d="m 5240,9694 c 27.6439,-59.5748 -189.1106,-88.7185 -124,-49.625 -70.1165,54.5715 -227.2962,-55.2153 -217.75,-42.25 -46.4445,-15.6296 -293.6152,-37.0405 -214.25,-23.125 -50.9838,11.5183 -275.1314,-12.2995 -188,-11 -10.6412,16.4218 -275.7607,-7.1923 -180,-7 -60.0498,4.1619 -161.2398,-72.7971 -124,-59 -17.8208,23.637 -358.5756,-89.725 -185,-36 -170.4169,55.0319 -267.7846,12.0926 -214.125,-0.625 -59.8357,-24.2858 -148.219,-95.6745 -98.875,-71.375 -170.1433,-36.7585 -85.9697,-38.5197 -209,-74 -38.4991,-43.6515 -323.587,-186.1158 -220,-123 -23.2952,-69.2336 -148.2655,-132.6701 -117,-104.25 -37.0093,-30.4896 -161.6903,-152.3845 -107,-102.75 -23.4719,-72.0333 -102.3022,-204.1623 -112.875,-147.5 -73.2919,37.7573 -104.7445,-306.866 -100.125,-166.5 -34.2597,-29.512 -136.4893,-260.1093 -86.625,-163.75 -38.0492,-59.7752 -127.7514,-238.341 -85.375,-148.25 -34.5344,-31.5531 -121.7315,-182.5081 -61,-122 -39.6015,-46.2531 -109.6708,-226.673 -70,-206 21.2943,-59.8864 32.2055,-221.7648 -5,-173.125 -76.6795,-77.8422 -39.9907,-288.0095 -37,-215.875 -28.7851,-114.5009 -67.7588,-201.4467 -32.125,-147.875 44.9003,-60.2521 25.0095,-188.7281 17.125,-151.125 -18.3186,-37.8872 -16.4785,-195.6952 -18,-153 -25.4284,-63.0373 -7.3823,-139.3061 -17.875,-146.75 -6.4217,-102.4863 -29.4978,-470.0563 -28.125,-330.25 26.6479,-22.8387 40.6437,-168.9922 21.5,-113.875 12.1648,-270.1605 -45.189,462.1429 27.5,-223.125 -19.3247,-4.8689 6.7717,-232.9606 8,-200 -1.3205,-106.8146 13.264,-79.3723 34.75,-224.625 55.4684,-123.1546 142.3128,-266.4104 97.25,-194.375 54.8843,-16.3285 20.0009,-200.3149 27,-163 30.2457,27.7599 43.2932,-128.7737 9,-116 47.2069,-75.4088 41.546,-210.2077 29,-182 50.4192,-14.6064 73.1818,-157.8247 24,-98 -14.011,-61.8659 38.3942,-338.2251 10,-173 45.8936,-54.5676 39.6974,-274.053 45,-207 28.5008,-93.4362 75.2379,-293.524 58,-232 -8.9904,-14.6665 -2.249,-118.5022 5,-125 19.3294,-120.3899 36.4091,-70.371 41.0469,-221.25 31.8225,-42.1929 84.811,-294.6384 41.9531,-200.75 43.6536,-50.173 -123.4734,-122.689 -18,-23 -62.2102,-74.3805 -208.842,-64.4735 -177.625,10 -9.4895,42.5463 65.6242,62.3559 50.625,-51 54.124,-35.5094 84.1411,-78.6098 83,-104 -23.9563,-58.6274 -126.8565,-157.8359 -80,-123 49.2645,-14.4602 -96.5856,-53.9519 -54,-71 -44.374,20.1221 -74.4036,-211.9592 -70,-152 -57.3976,-19.8555 169.0336,-95.027 52.125,-140.125 -21.2956,-43.5774 168.1628,-87.6105 124.875,-70.875 64.0164,-9.8006 185.7563,6.092 131,4 -26.8225,-37.6594 -71.8097,-121.5084 -3.5,-134.5 -3.335,-69.2556 -42.3553,-161.2061 -7,-143.125 25.9349,-102.1524 32.3553,-174.1567 -0.5,-124.375 -69.176,-79.9801 -52.3313,-63.635 -53,-198 -17.6263,-44.5986 -14.448,-187.2602 -1,-143 25.4299,-37.6761 195.8349,-120.1255 94,-122 70.9123,44.0072 113.629,157.2614 111,135 56.0759,25.4186 283.0132,12.4108 210,-37 102.746,77.1707 29.5791,158.6326 88,0 -57.2519,-5.6503 143.306,95.0714 147,-31 20.0037,115.0486 86.2803,188.856 24,136 -9.8834,97.7889 -26.6017,326.3853 -14,219 -56.1653,46.6166 -50.4499,300.2421 -50,151 4.6783,39.093 28.5196,219.8395 15,159 -31.6702,134.3434 237.1562,74.9214 147.5,42.375 51.84,-43.2967 205.5586,-80.3999 147.5,-52.375 106.5029,-21.6139 383.0157,-35.4059 268,-37 23.8237,-36.0128 162.6306,-98.5006 97,-53 62.6446,0.4482 157.0546,-70.1545 121,-40 13.6642,31.4881 124.4012,-34.132 152,-30 61.473,23.7135 218.5144,19.4874 164,23 73.5707,16.8721 167.2833,-71.7955 62,-45 33.9079,105.2528 277.1914,-11.0126 118,9 55.1144,-43.4927 164.5747,-64.3463 138,-66 112.6647,-9.4546 192.0865,-87.4528 137,-98 34.2638,-55.0983 145.1582,-33.1544 127.75,23.125 20.3375,16.7118 32.34,3.1944 56.25,42.375 53.3547,-64.727 41.2631,47.3902 54,37.5 70.9411,-4.9699 154.6443,-42.0461 124,-66 -91.0757,108.8318 -92.0231,-95.9444 8.125,-56.375 70.4698,-2.2667 164.9253,-4.1893 72,-44 32.0207,-15.5462 191.6411,-101.3322 118.875,-69.625 -35.3031,135.9833 93.1817,-136.6013 62,-50 35.4678,110.3669 70.9966,98.0944 105,0 -15.8151,34.8807 34.1252,4.653 53.875,-11.375 18.2684,-48.128 244.6333,-146.0302 41.125,-6.625 162.8405,-65.6778 253.9159,-123.2072 186.875,-99.875 -33.2417,-19.574 209.8924,-46.5795 161.875,-33.25 -58.4547,-48.8838 186.88,-103.5217 77.25,-61.875 81.2133,-40.0476 178.5939,-139.7335 141,-130 38.9401,-163.8924 142.1153,-262.037 123,-238 24.5757,-42.1917 131.8084,-227.848 93,-180 64.5688,-82.135 -13.4453,-351.3382 -9,-262.625 -49.327,-100.1204 -127.2194,-253.4053 -108,-179.375 -76.2729,5.7514 -200.8655,86.2794 -122.75,59.875 -63.8761,-46.13 -41.0207,-182.1146 -165.25,-92.875 12.2231,-2.8839 -113.8061,134.3547 -93,36 -33.7927,-71.5786 -145.72,-33.3972 -60,65.625 33.1396,11.3153 -136.7916,-4.4256 -105.25,2.125 -70.314,-57.9261 -218.4533,5.4335 -120.75,34.25 -82.9047,-71.5404 -145.832,-140.1551 -114,-112 -8.9364,-66.7484 -273.9037,-299.3012 -212,-218 C 5398.0255,1156.3908 5250.0488,854.04559 5317,963 5289.6286,901.21201 5436.9197,674.82232 5279.875,670.25 5238.3065,575.46419 5508.2982,502.73687 5436,569 c 74.0182,26.30786 178.9492,113.12664 194,61 101.4636,91.45144 234.9823,89.8904 157.875,49.25 53.6925,-73.19909 288.5703,-35.11354 164.75,-4 33.439,-99.85354 360.7296,367.7151 157,106.75 -11.0175,-66.84353 111.3648,39.45018 120.375,38 82.3046,-39.05409 363.4431,68.98349 185,10 238.8501,48.24605 -305.5618,56.87136 130,-2 -12.8317,50.07426 64.4606,37.3919 66,31 130.5595,32.00001 326.2746,89.24691 213.625,77.25 150.3794,92.6813 370.5668,225.9531 247.375,207.75 20.3678,90.314 127.6328,235.0383 108,162 28.107,5.6626 33.5378,118.5775 50.125,83.625 82.9953,56.9294 100.3886,239.434 80.125,191.125 43.3961,103.2156 4.3232,368.802 19.625,258.25 45.6565,28.9473 -8.5572,258.9663 -12.875,199 25.684,35.7948 -108.8376,319.2222 -69,223 3.2569,44.9305 -230.531,416.8457 -134,269.125 -57.3397,106.1078 -147.9113,215.4525 -106,168.875 4.1486,98.5617 -111.9264,280.0732 -83,174 -101.2339,-11.5535 42.6845,91.608 -137,93 110.3719,-64.6064 -36.689,-36.1641 -41,-5 -85.3087,65.9899 -200.4386,133.3635 -121,80 -159.2205,78.4864 -68.0508,19.5766 -218,150 37.3616,-56.8481 -121.3171,58.9292 -113.25,57.5 -90.7987,109.8893 31.0302,8.3744 -125.75,118.5 -9.0237,-21.1218 -96.1597,56.6803 -124,40.25 -61.9626,38.1187 -230.591,81.0538 -145,51.75 -120.8344,35.7554 -346.147,69.1819 -274,62 8.6059,14.3266 -171.1416,22.7456 -140,22 -111.625,4.5265 -398.6126,3.203 -280,23 -83.34,38.3761 -389.4706,91.045 -281,82 -93.7772,25.6239 -332.8394,46.885 -283.5,24 -114.2741,-41.9158 -269.181,-22.2717 -181.5,-11 -107.8495,28.9189 -309.5398,-0.4518 -209,4 -61.106,12.6139 -267.2877,29.7677 -195,19 -161.1022,62.8189 -311.0217,-71.8745 -291,40 -102.0439,58.036 -184.5403,83.2939 -166.125,23.125 -99.2513,-17.9628 -145.9412,42.438 -119.875,82.875 10.3213,259.3621 -17.0388,114.004 5,335 14.7944,201.5818 3.1114,311.0602 15,365 -13.7013,34.8903 -59.8688,281.6645 -15.375,227.625 19.127,15.4289 1.9646,219.4926 10.375,131.375 -33.1511,81.7137 -60.3529,406.047 -8,317 -9.372,60.1147 17.2079,187.7358 10,182 51.7774,112.8463 -71.2507,389.5639 -80.375,317.5 10.4978,83.0213 -21.2495,641.9889 -13.625,492.5 -28.7588,171.3708 -40.2828,441.2345 -24,346 9.5472,131.2824 -23.6605,289.1562 -57,422 11.4599,135.0824 16.2961,55.8094 24.6562,271.2812 32.0489,82.1632 57.4925,305.7191 26.2188,245.2188 -21.2583,254.6221 -26.0863,340.9771 36.125,450.5 39.4114,107.8574 224.8422,352.8108 148,267 25.2481,41.6538 181.585,143.9302 139,128 53.418,37.4761 120.1967,122.4951 103,92 31.3265,-0.8997 227.8232,99.5897 167.375,70.25 73.5649,34.7728 192.818,-46.7247 129.625,9.75 65.2239,-108.4809 131.4801,84.8384 126,35 -86.8589,12.3755 414.9914,98.3145 105.25,47.75 19.3059,60.4913 -32.3083,-56.4218 48.375,-89.75 -26.073,-117.3764 12.231,-92.5314 18,-99.75 91.8709,-45.6303 176.799,76.6424 77.625,84 -112.4778,-8.4041 451.8126,-27.3898 53.75,18 85.7181,-9.2453 138.0642,-77.891 84.5156,20.875 -25.484,102.7803 19.441,-93.6419 48.9844,18.375 53.6201,-51.9327 130.1999,-69.2051 103.5,-0.5 -9.4793,-61.4854 156.6802,34.6953 136,28 57.7645,67.0071 136.5155,223.4485 93,140 170.1532,86.3527 -29.7735,43.8605 130,93 119.761,29.1402 176.1261,114.0838 113.125,71 -3.5194,-20.8653 147.1719,10.7467 129.875,73 -36.1205,78.0028 105.0555,149.7997 75,92 24.6696,-28.264 289.6136,213.7763 180.4531,147.5 -3.4005,68.054 126.4708,338.2538 120.5469,211.5 -3.883,20.3814 -66.1479,35.2678 -52,113 -73.9302,114.5333 -181.5842,168.1937 -157,154 -105.8409,88.6897 -231.5432,109.3403 -210,48 29.2106,-71.6835 -95.3787,39.7261 -80,-11 z m 30,-51 c 50.5475,-76.5961 91.0005,-188.274 152,-99.25 11.5674,2.0337 -97.1719,-184.1517 -20,-166.75 -101.5045,-98.2803 -125.1119,54.6845 -55,88 90.6653,-4.22 -18.2578,9.4758 11.5,55.5 -138.073,10.461 102.3206,176.7506 -109.5,44.5 -88.0673,98.4529 16.9766,-36.1164 -142,60 95.3235,1.5938 105.8447,-7.8141 163,18 z M 3326,3249 c 89.3406,7.3186 38.673,-54.0373 54,-87 -70.7928,54.6741 -156.9207,-174.9926 -32.75,-162.5 104.9474,-19.1768 50.1411,-48.2152 31.125,-55.625 -103.6474,-50.4114 -43.3121,47.8875 -51.125,68.625 -89.3523,166.5746 76.1508,37.9274 -26.25,183.5 -12.1955,0.7835 -15.6577,57.618 25,53 z m -155,-263 c 21.6671,-39.7234 81.5073,85.1305 132,-76 -86.6931,58.1018 -119.0804,91.456 -79,6.125 -3.5926,159.1197 -80.7943,-196.2266 -18,-139.125 -95.0043,-66.1531 -240.9914,-63.1232 -174.625,-76.5 120.4803,88.854 98.2149,164.2616 26.25,171.375 51.4568,-21.7354 123.9253,149.2583 52.375,98.125 135.2039,37.4328 -40.9489,34.7142 62.625,29.25 z m 164,-133 c 26.9547,-62.3082 -7.324,-245.3773 70,-155 -34.4498,-62.3443 14.0605,-172.3251 -71,1 -57.3491,-87.3056 60.845,165.7068 -64,55 50.3829,40.3869 127.3232,176.1787 64,116 z"
       id="path4" />
    <path
       d="m 3107,2953 c -9.5262,-67.4339 142.9735,-204.5084 39,-204 52.9062,-15.1912 61.2406,267.6145 -39,204 z"
       id="path6" />
  </g>
</svg>
