<?xml version="1.0" encoding="UTF-8" standalone="no"?>
<svg
   version="1.0"
   width="1024.000000pt"
   height="1024.000000pt"
   viewBox="0 0 1024.000000 1024.000000"
   preserveAspectRatio="xMidYMid meet"
   id="svg20"
   sodipodi:docname="6.svg"
   xmlns:inkscape="http://www.inkscape.org/namespaces/inkscape"
   xmlns:sodipodi="http://sodipodi.sourceforge.net/DTD/sodipodi-0.dtd"
   xmlns="http://www.w3.org/2000/svg"
   xmlns:svg="http://www.w3.org/2000/svg">
  <defs
     id="defs24" />
  <sodipodi:namedview
     id="namedview22"
     pagecolor="#ffffff"
     bordercolor="#666666"
     borderopacity="1.0"
     inkscape:pageshadow="2"
     inkscape:pageopacity="0.0"
     inkscape:pagecheckerboard="0"
     inkscape:document-units="pt" />
  <metadata
     id="metadata2">
Created by potrace 1.16, written by Peter Selinger 2001-2019
</metadata>
  <g
     transform="translate(0.000000,1024.000000) scale(0.100000,-0.100000)"
     fill="#000000"
     stroke="none"
     id="g18">
    <path
       d="m 6752,9758 c -83.8772,-55.8849 -163.975,-127.4487 -130,-86 -41.4625,-17.076 -187.1911,-142.3407 -126,-59 -96.2122,78.1239 -259.6568,45.0346 -183,10 -13.5959,-61.7912 -197.9947,-212.7492 -153.625,-92 -125.2292,51.3605 -134.9802,-61.6965 -60.375,-44 -54.29,49.8399 -148.3007,85.5196 -97,-4.875 -85.8775,7.0411 -178.9575,-88.9635 -158,-80.125 132.6227,64.8064 14.3494,-19.726 -8,-79 -11.9079,111.377 -113.9321,-32.6242 -68,13 -29.3882,58.2483 59.4074,-180.3288 29,-16 139.109,-121.4497 0.4887,-157.4096 42,-161 104.9591,2.9734 124.1961,-195.399 82,-144 26.5314,91.64 -0.087,-243.2457 34,-15 47.1172,-42.2651 81.9176,86.777 77,115 85.5136,10.0168 161.2102,112.864 104.75,127.375 -59.5529,40.0287 127.5139,-143.4221 144.25,-67.375 106.3523,-71.8397 -5.2745,52.2195 -2,90 81.4919,-19.8604 164.229,-65.1652 153,-73 -81.417,92.5293 -111.019,128.9544 -16,70 109.9036,51.3277 244.0808,176.8925 134.75,118 -40.6227,26.3447 36.6,182.0912 93.75,135.625 70.5049,61.7542 -3.1351,-54.1827 117.5,54.375 56.8721,24.7549 -115.0374,-1.3135 -46,24 114.5292,83.8742 237.1493,35.0377 75.25,136.5 16.5016,18.0309 -28.6394,41.1872 -39.25,27.5 z m -545,-261 c 69.5578,-66.1018 61.6902,66.4081 19.75,-124 -86.9175,-28.7199 21.5314,-82.3878 15.25,-81 7.0684,-81.6625 -182.7012,55.6132 -164,-106 2.8296,34.2192 -196.2278,144.1944 -131.8125,-9.0781 -3.9232,16.6462 -18.1151,-83.3499 -60.6875,-0.5469 82.2021,23.648 -51.5141,94.3095 50.875,102 145.8454,-140.4283 -196.2911,38.1949 -33.375,-29.375 19.451,46.0949 257.034,32.3226 200.75,49.375 -74.2077,78.514 -78.7628,198.4745 -24.75,170.625 52.8316,-8.6089 120.6567,6.6464 128,28 z"
       id="path4" />
    <path
       d="m 6127,9462 c -24.8545,-77.1358 -101.7588,-160.9165 75.125,-204.625 -80.179,67.8599 -146.3714,-5.6043 -81.125,72.625 -129.7904,60.2603 -47.2429,128.3817 69,108 80.4398,-72.9731 -73.0035,14.6324 -63,24 z"
       id="path6" />
    <path
       d="m 5718,9321 c -26.5807,-32.398 -134.9912,-152.744 -178,-96 67.8363,43.1241 -93.8889,-4.9342 -143.8906,-45.2812 C 5318.9953,9162.585 5205.4734,9226.6356 5282,9163 c -38.6182,-39.2435 -90.691,-171.1974 -142.125,-102.5 -6.953,41.5437 -57.1318,6.1501 -84.875,4.5 -69.9522,-35.8249 -226.9187,-28.5225 -133,-28 -35.7339,-85.4284 -145.2646,-116.33 -87,-53.875 3.0701,51.9349 -38.5748,51.3332 -111,-36.125 -89.6912,-57.0543 -172.1437,-84.3198 -156.75,-76.25 -85.442,-13.4625 -161.9427,-88.3176 -134.875,-74.125 -173.2885,2.5875 4.9756,-70.7295 -130.375,-43.625 -73.2459,-81.2217 -138.6511,-101.611 -112,-102 -43.1097,-28.2498 -177.1027,-146.2783 -132,-97 0.5862,-5.7413 -25.0353,-65.6695 -69,-78 -99.5277,-45.3217 -147.9,-98.1907 -121.875,-84.625 -85.5282,-13.3903 -194.0445,-68.3423 -147.125,-91.375 -103.9872,-96.9205 -116.8761,-105.1764 -106,-94 104.4076,5.4984 16.6559,-140.3403 -92.5,-109.125 -79.8438,14.9571 -175.4667,-44.1563 -120.5,-69.875 -23.7523,-81.7595 -169.4059,-112.8307 -101,-77 -30.2046,-64.5104 -93.0814,-75.1801 -105,-86 -6.9608,-5.5453 -192.2874,-110.2654 -130,-91 -140.661,-87.2141 210.0567,118.0803 -165.6875,-30.5312 C 2874.7414,7665.8892 2772.0822,7549.6729 2770,7555 c -45.4093,-76.5624 -145.7898,-269.4308 -86,-164 -145.6119,-143.1407 -100.391,-219.8856 -162.125,-193.625 13.5761,-45.6252 -59.5341,-136.1854 -76.875,-147.375 -1.8965,-78.5402 -93.7103,-225.6354 -69,-167 -6.3721,-94.3924 -16.4484,-283.1637 -43.875,-210.375 -4.3156,-68.3396 14.677,-143.9244 -15.25,-115.5 -47.6661,-74.3369 -57.5922,-232.2648 -36.875,-157.125 -36.0464,-48.2036 -135.7396,-222.5564 -68.625,-188.875 38.4778,-41.9404 -34.5239,-253.7808 -19.625,-189.25 3.5361,-33.8666 10.407,-89.0342 -19,-92.5 30.1799,25.9301 -20.4536,-116.5176 -13.75,-96.375 -17.8095,-80.6162 -42.5506,-231.8222 -37,-169 -22.1711,-65.4915 -46.8176,-241.3407 -40,-162 15.8651,-15.4544 1.4853,-230.6445 -18,-176 5.9666,-3.0574 24.3171,-47.6833 -25.125,-117.25 17.9052,-298.7363 -194.4703,108.3465 -38.875,-247.75 -31.923,-81.6083 35.9643,-175.1558 0,-182 7.6943,-26.109 56.1005,-106.6835 16,-98 -30.1602,-19.6582 0.016,-244.5463 14,-176 31.69,-65.6682 81.0651,-387.8459 73,-292 -2.2674,-87.0178 80.255,-114.8046 49.875,-123.75 15.9349,-57.2683 164.9709,-308.0802 90.125,-183.25 -20.192,-7.7278 91.3472,-154.2908 63.875,-116 67.2492,-65.5282 95.5786,-51.7644 132.625,-78.25 120.8595,0.7346 105.3177,65.2265 128.5,42.25 11.6077,12.1986 147.3065,160.1474 166,85 142.7466,59.7909 31.0149,107.8269 30,98 3.6572,92.8402 108.2118,210.5887 34,126 82.6643,142.8436 40.7442,167.5037 6,79 76.8466,-10.3482 -5.5852,141.0664 80,54 -73.5605,-29.6628 -61.9855,-82.511 34,-102 -28.2844,44.7848 131.3166,-103.3211 23.25,-43.75 96.1186,132.9429 208.8621,-54.7224 190.5,-19 -17.048,48.615 -83.8969,163.5411 -7.75,126.75 -24.6729,-81.1292 -109.8665,11.2228 -53.625,49 22.7997,81.2886 -80.6939,266.2238 -52.375,137 88.7579,46.2393 -139.6758,23.0819 -9,113 -36.7293,-102.3048 246.853,22.5047 135.5,8.375 -118.8759,98.0796 -29.5995,274.743 -13.625,152.375 -80.525,44.2456 -30.5642,27.231 -26.875,70.25 -57.7529,76.6914 -23.1976,274.0308 -43.125,209.75 -26.3989,-3.8262 13.601,108.6517 1.125,67.25 14.9577,-4.0981 6.4725,194.5918 8,172 -73.9728,41.2571 81.0834,-45.8875 -10,128 -36.2143,-2.2216 -40.1704,225.6384 -44.5,165.375 85.153,6.7061 28.8098,167.2717 26.5,124.625 70.925,-25.5214 109.0333,186.7491 62,111 -42.2664,75.0532 73.1042,99.3194 47,80 -60.737,141.7711 -23.245,194.2399 19,119 -26.8821,-13.2319 -133.7253,29.2803 -11.125,94.875 111.4827,110.0667 -35.1872,7.7791 23.375,102.875 59.6606,-130.1247 38.5098,151.1526 53.625,81.625 -49.29,74.8755 98.9147,157.4088 66.125,78.625 33.4721,66.1656 -54.8094,-53.4057 -39,-20 -28.5526,63.673 53.1945,129.0168 65,123 3.164,90.9767 -95.3017,148.3324 -43.5,129.125 56.2838,71.6559 136.0588,211.7646 116.5,138.875 -108.3058,-30.2637 68.7515,190.2917 55,124 67.4799,139.8184 67.6981,113.0387 64,87 81.7405,44.367 -14.4511,134.2014 -14,97 117.4946,-12.476 142.7406,210.9614 125.375,84.75 1.305,5.3526 -57.4185,-119.5431 -35.375,19.25 84.458,93.0693 123.8609,139.9626 78,99 30.2821,3.0153 106.843,-50.0148 151,127 41.1664,59.4749 -2.4333,-96.1467 82,10 -103.6948,110.9056 -6.0463,166.9442 16,70.25 93.209,97.9345 -20.2297,-33.942 84.125,32 12.7199,43.924 -34.1615,55.9234 96.375,49 88.0408,28.816 -4.3655,144.0382 142.875,110.5 70.9929,120.2313 183.5965,-54.8457 72.625,168.25 -36.6169,53.74 55.0629,105.7287 62.125,56.5 57.22,-16.836 219.8356,-83.7351 53.875,1.5 -160.2365,229.4682 -73.0776,206.2514 -38,130 88.8861,-106.2624 25.0977,-116.2667 83,-8 -110.242,-6.2324 -29.1174,168.7671 83,174 -24.2391,-78.2669 77.4566,67.6279 8,46 33.0441,114.1881 232.1852,30.4276 140.5312,75.6719 84.0463,82.1925 160.966,68.7525 99.4688,74.3281 -17.9919,29.2634 93.6923,82.9926 130,139 44.3382,51.6089 -153.2343,-10.3735 -86,30 111.9168,-4.7803 -103.6704,122.842 88,9 -126.9282,205.9781 80.4188,-82.7946 28,88 -53.4845,68.6948 107.6447,100.3867 44.25,58 -91.0447,74.0066 -123.706,160.0245 -16.25,66 104.8271,-118.2628 19.2786,-30.1965 54,-17 72.735,40.0773 262.2537,82.6571 174,79 30.3581,79.6616 71.5681,162.4478 87,92 31.8243,-0.075 97.7145,124.1699 109,41.125 65.3003,75.321 204.2106,77.5091 125,27.875 -69.0805,74.5848 -124.6502,-131.7203 -25,-88 -22.5433,-41.1251 -107.2659,-76.7865 -114,-43 -132.9857,-1.5753 -97.1717,-131.4043 -53,-67 -98.1824,-65.227 -11.2968,37.8549 2,-8 180.9009,50.5318 238.5936,130.0946 193,108 35.511,-23.456 190.7793,8.2911 100,39 -45.8524,157.1016 -205.2867,85.272 -89.625,34.75 1.2547,134.0515 17.8191,197.5382 98.625,113.25 87.7971,67.219 46.5692,79.7946 81.0625,-3.3281 -44.0596,-82.9415 66.1168,13.405 -15.0625,-76.6719 106.4047,-48.7036 29.0385,107.59 147,8 116.1816,53.2069 -11.8047,386.8137 -3.5,276 -190.9297,-61.9638 -289.2211,245.886 -214.5,123 -116.1209,-23.9224 24.8451,-4.989 58,22 56.8904,12.3971 73.5225,-124.2701 5,48 z m 127,-302 c 84.3949,-19.0106 69.9649,-220.6338 50,-140 -35.5409,40.0458 -8.9852,77.6523 -107.5,13.25 23.0892,108.9527 89.5336,62.8286 57.5,126.75 z M 2958,4421 c 160.5692,-249.5548 -75.5362,-218.3475 -5,-157 -28.8826,113.6089 -69.3163,-149.2815 -27.7812,22.1406 -103.0685,-107.672 -23.2464,133.1049 -25.2188,47.8594 -36.6838,34.9939 24.2486,52.5337 58,87 z"
       id="path8" />
    <path
       d="m 6219,9228 c 40.9914,-62.2369 48.2282,-143.6157 -55,-179 92.8334,103.5696 60.8695,46.2799 79.75,55.75 -49.8159,-0.6834 -262.3981,-68.0408 -105.75,-82.75 -138.9347,88.6964 -188.3676,-170.0903 -175,-131 55.0735,26.9613 59.0776,166.7838 103.25,104 13.8412,95.394 -50.6977,-3.0256 3.875,-65.5 124.0886,-4.8226 27.7722,66.8457 109.875,40.5 11.2648,43.4395 223.2536,192.0536 167,120 -1.1879,75.463 -151.704,50.908 -128,138 z"
       id="path10" />
    <path
       d="m 5314,8666 c -153.4216,-24.5282 -189.9798,-117.066 -147,-126 -56.9786,75.328 -125.8959,-49.0695 -67,32 -41.7185,-113.3109 93.8282,-72.1529 -9,-67 24.9538,32.1801 136.2773,-14.3271 99.125,-4.875 38.795,97.107 66.1612,155.6588 99.875,139.875 12.6614,-48.1241 55.9499,-65.4247 -24,-92 31.9179,0.7454 93.3621,156.6643 48,118 z"
       id="path12" />
    <path
       d="m 4204,5955 c -114.4464,-49.707 -334.6344,-106.983 -266,-45 -20.1856,34.4705 -238.4906,-78.7133 -234,-62 -43.5115,-4.5519 -180.7939,-105.6489 -154,-98 -52.5942,-38.2558 -155.2354,-152.6967 -105,-88 -110.8221,-84.9065 -190.5309,-183.0823 -149,-176 -87.2614,-100.0342 52.1741,15.4134 -54,-116 -30.7217,-63.8897 -40.004,-152.7106 -26,-154 -6.1417,-17.6427 -54.6462,-113.2237 -32.375,-108.5 42.4017,-88.6813 2.5081,-274.9559 0.375,-149.5 21.0875,-83.1131 137.6159,-342.108 44.875,-259.125 -46.9215,-66.8971 35.5428,-262.31 8.125,-146.875 49.1004,-105.4088 86.2695,-169.8897 64.875,-144 38.3115,-159.0752 80.6581,-348.8387 70.125,-234 -0.6843,-65.3316 33.3852,-113.7494 22.625,-156.375 -62.3046,-17.8408 -324.3707,110.7687 -188.625,97.375 -18.9364,-46.7406 -82.9929,-119.7001 -111,-136 99.2101,97.6096 -124.5346,-112.7829 -67,-97 -43.048,-22.0686 -26.1434,83.3469 28,-11 91.3145,-28.9697 -60.4867,121.8219 74,-1 52.6145,-96.8082 40.0313,-147.1135 -80,-97 -180.8717,-12.4388 64.7251,-55.7762 -100,-42.375 -60.2275,15.4034 -119.968,-35.9378 -122,56.375 -92.5049,-14.021 34.7594,56.1676 -156,-25 91.7978,-16.8513 143.2259,2.9219 109,-79 74.3894,16.6768 45.1319,-133.6727 54,-66 50.142,45.5218 194.4744,71.277 104.375,1.5 -71.5682,-126.4265 249.7703,105.4939 117.625,-41.5 120.7607,-27.8407 297.2841,-131.6514 158,-127 -4.832,-35.2567 151.003,-110.487 114,-107 -131.4392,62.7201 89.5781,-143.9525 46,-110 12.6555,-57.8645 110.3806,-137.6217 84,-128 49.1729,-23.9374 108.8556,-116.6975 59,-81 -22.1593,-41.8019 67.1087,-27.9741 62,-74 116.8344,-172.9779 -128.4751,25.871 72,-116 -75.2561,37.5541 117.6379,-221.9052 48,-114 47.7555,-71.5232 160.3578,-248.2745 102,-174 16.1962,-92.4113 175.74,-334.8507 113,-210 23.4595,-14.9793 106.2419,-113.5467 75,-91 125.5936,-117.3249 -65.3912,59.335 115,-115 9.3472,-23.1945 305.0828,-633.9902 122,-217 80.6951,-38.8394 255.8567,-216.4347 162,-160 56.9819,-76.7599 208.13,-169.2584 148.25,-156.75 26.4949,-72.5631 236.4559,-223.6541 147.75,-138.25 76.5956,-111.0571 224.7397,-195.3072 170.5625,-110.5938 86.1159,6.2225 367.1991,-157.3263 250.4375,-101.4062 23.7903,-12.7702 148.5289,-120.9298 145,-92 17.6524,1.9134 138.2948,-188.44069 82,-111 7.9435,48.5994 42.1427,-93.27428 47.375,-40.875 3.4645,14.8144 291.1408,-42.45819 159.625,-57.125 1.4655,-40.78906 479.8441,-92.73246 150,-50 -5.2936,80.33145 65.2654,73.59653 79,40 91.42,-15.80309 248.6628,34.90315 170,5 -108.197,6.36349 13.4378,-32.3645 54,22 133.5377,-2.52736 -119.544,108.0127 55,60 -45.4107,-4.3321 21.2074,-11.3589 87.875,-65.75 -12.9775,-6.04874 160.9189,-23.47005 54.125,43.75 41.9599,15.2779 225.7188,-92.53929 148,-26 148.9802,22.38449 229.5149,86.3246 212,76 13.0191,66.003 -182.8416,42.3051 -169,-27 -84.2654,-31.42628 56.9364,76.4091 60.25,35.625 73.5157,-2.165 256.6426,-26.7612 175.375,3.625 -77.7275,74.6078 98.312,133.8775 99.375,132.75 -95.1815,-96.6274 35.6234,-31.9583 30,-34 1.018,0.6475 -94.4463,-33.6652 -2,52 -49.5517,-33.2454 116.3089,42.7961 51,57 84.4523,-8.7774 50.9333,339.8024 -1.875,77.375 13.832,92.0838 29.7918,-101.2012 162.375,-13 138.739,6.2593 242.6208,24.6243 128.25,30.125 -18.5683,11.4126 -24.6546,27.6821 -10,90.75 -19.7699,93.3244 -14.7364,184.3965 -58.75,114.75 -16.5136,89.5971 -25.8541,293.8158 5.625,199.5 42.2033,78.64 93.2714,245.1376 16.375,166.875 -26.195,-22.9778 -57.9971,230.185 -32,133.625 -15.2773,36.3142 23.9842,111.2643 -1.9844,117.0469 -39.1017,54.7096 -50.1322,56.923 -42.0156,117.9531 -0,60.651 -111.0779,91.7936 -59.75,106.375 19.4627,146.9255 12.5708,-37.6286 61.75,121.625 -72.5365,-25.2484 -18.5664,210.2601 -27,179 -6.4889,26.9914 -47.2946,190.6746 -66,133 -31.3691,77.6728 -57.8165,129.7653 -50.625,122.25 -42.1323,108.0775 82.5883,9.4012 21.625,142.75 -25.4004,68.3779 -139.8124,239.4091 -136.4375,195.7031 C 6680.4922,3293.57 6584.6556,3417.4377 6555,3389 c -50.2675,9.1228 -143.7185,176.0938 -97,144 -32.6085,135.5215 -144.8093,230.2081 -116,223 -22.7196,76.7077 -60.6268,262.253 -73.25,191.5 -72.8709,33.2855 -132.1322,262.8122 -104.75,206.5 -40.0599,57.1376 -73.9685,225.0118 -66.5,155 -49.9924,33.0072 -71.0092,274.4809 -68.625,180.375 -85.1247,-31.9783 -127.8504,79.3707 -77.75,83.375 -8.8319,60.8185 -72.4925,185.9576 -61.125,139.25 -27.0874,125.7665 -130.4687,328.7725 -123,245 -52.1471,25.4254 -140.0413,226.3999 -68.5,137.875 -57.3653,62.473 -202.5821,200.3994 -108.5,134.125 -14.8747,66.8571 -113.3267,152.1617 -84.75,128.125 14.4606,-2.8601 -197.3805,229.7032 -92.25,108.75 -79.9622,91.2503 -320.5509,274.0382 -203,189.125 -64.9248,8.9579 -299.897,124.1449 -189.875,81.5 -68.9664,8.8463 -109.2171,51.5285 -136.125,52.5 -58.2741,-17.4479 -287.1623,91.9905 -192,85 -100.1101,-41.0015 -269.0505,-39.9347 -167,26 6.289,29.4137 -129.7528,51.4835 -155,38 -23.5808,-8.9303 -169.3819,-18.5607 -166,17 z m 3,-728 c -33.2152,-13.5425 60.32,10.7518 147,-29 90.8157,-43.8723 245.8667,-130.0274 149,-55 70.9522,62.4324 105.6053,-94.1226 107.875,-23.375 108.8992,-143.1422 236.6739,333.2981 121.125,-139.625 -34.9805,67.0947 27.8376,-143.4341 2.5,-96.25 48.268,90.7284 96.5932,-105.8061 29.5,-39.75 -53.3228,-39.0274 88.1755,-20.7402 79,-98 -21.8568,44.6672 -77.1013,251.4998 -58.375,194.75 -119.4341,-57.3229 -35.2435,24.2419 -34,59.375 -5.8431,89.0181 148.5522,20.6613 117.875,14.625 39.3015,-44.7655 186.1208,-67.2119 136.7969,-86.1406 C 5018.2078,4887.5711 5290.6625,4636.1908 5210,4708 c -20.4264,16.7981 90.7783,-207.0063 75.25,-203.625 5.3965,-49.721 156.2206,-49.3097 77.75,-131.375 43.8136,2.3786 145.3241,-148.7134 149,-160 27.2449,3.2211 202.4672,-94.4635 115.625,-127 28.6943,-127.7781 117.0091,-325.425 122.75,-225.25 54.8413,-40.1194 102.1953,-101.5913 95.625,-101.75 48.3185,-30.0917 239.0893,-334.2718 156,-209 -19.5549,-67.4929 165.4166,-143.0233 74.25,-114.375 16.7755,-59.452 87.5904,-186.1207 93.75,-170.625 86.7165,-158.1547 69.4865,-117.4177 217,-103 17.0195,99.3519 -34.9406,-28.2385 43,-48 -132.6075,-22.6834 -8.8274,-78.1962 8,-66 -58.8521,-3.5655 -164.3707,-51.6309 -103,-36 21.9633,-29.248 -16.1365,-112.9923 37,-76 -1.4127,-47.4331 -27.286,-231.8448 -25,-146 -70.9934,12.0977 -134.7592,-112.0012 -69,-240 -23.8069,83.117 -87.6193,-10.2194 -42,-35 -83.7155,-105.698 27.8774,-168.9907 50,-174 -20.0816,-66.0618 132.8975,-94.9706 73,-126 167.3822,-97.0398 78.9643,-189.4884 76.875,-173.75 -42.1453,10.7037 84.9856,-147.3954 52.125,-123.25 -6.2279,-60.014 -62.9925,-33.0023 -62,-4 -11.4196,-85.1461 -208.8773,-313.0723 -52,-139 -26.0037,-20.0837 -164.0662,-15.7881 -106.625,-106.75 15.5198,-72.9773 -189.4508,-23.7637 -156.375,-27.25 -58.3793,8.56 -198.2763,52.7228 -135.625,12.375 -117.545,79.1473 -205.856,60.5805 -179.25,22.125 -82.7627,39.7579 -199.6031,-10.8041 -80.5781,-37.9375 -48.4235,-14.3067 -162.3617,45.464 -102.5469,40.4375 -109.0129,41.9479 -154.6309,182.8326 -187,151 -42.7908,6.9454 -173.0505,190.4276 -131,121 -79.5575,49.4972 -101.67,-35.1053 -160,90 86.6273,-82.6913 -112.046,-6.7346 -60,67 10.9279,29.6602 -25.5585,96.396 -48,101 -98.444,84.4941 -146.7618,119.6331 -177,70 4.1929,-21.8711 -187.965,102.2055 -135.875,45.75 -93.3125,19.0973 -170.8855,236.5981 -124.125,211.25 21.8312,158.6938 -101.6169,81.7495 -27.125,38.5 -7.6383,40.8269 -106.91,35.6675 -98.875,84.5 -44.7838,55.1406 -215.4015,286.9607 -102,130 -124.3528,43.1312 -195.2996,201.2275 -130.625,152.375 -74.048,153.6552 -139.172,245.6458 -111.375,181.625 -35.9712,-8.4064 -143.1688,203.3236 -133.25,146.75 -73.8804,72.5561 -165.5329,248.9878 -142.75,163.25 -47.8505,56.8262 246.9718,68.813 124,36 19.5151,72.8319 49.8136,136.8131 35,113 50.6276,7.5217 102.297,120.8013 46.5,91 -5.3125,46.325 13.5369,205.8875 -2.375,153.125 63.1621,-106.6609 -104.6433,440.8146 -6.1719,123.3906 -21.8613,52.886 -28.8948,186.2743 19.0469,131.4844 -66.1597,107.2336 60.3301,147.552 -50,224 114.1682,-68.5388 -96.5292,191.1159 -108.875,178.5 -20.0676,9.1623 -149.6063,119.5001 -89.375,119.5 138.8912,-119.9287 118.3007,104.4512 16.25,37 -25.8655,136.7093 -111.7895,-102.0001 8,83 -67.3453,-4.1444 -78.5867,156.1914 -42.5312,131.1875 101.6484,23.7379 71.7231,146.6333 7.5312,146.8125 -62.9251,77.4701 -35.5593,269.369 3.75,145.125 72.6184,23.785 192.6002,149.1639 159.25,81.875 91.5584,5.8578 170.0683,31.2611 243,0 z"
       id="path14" />
    <path
       d="m 6305,3160 c -154.2042,-47.0867 3.9281,-328.2974 -8,-157 124.9536,8.6334 173.1638,85.8267 81,117 213.63,66.683 -32.288,22.6282 -73,40 z"
       id="path16" />
  </g>
</svg>
