<?xml version="1.0" standalone="no"?>
<!DOCTYPE svg PUBLIC "-//W3C//DTD SVG 20010904//EN"
 "http://www.w3.org/TR/2001/REC-SVG-20010904/DTD/svg10.dtd">
<svg version="1.0" xmlns="http://www.w3.org/2000/svg"
 width="1024.000000pt" height="1024.000000pt" viewBox="0 0 1024.000000 1024.000000"
 preserveAspectRatio="xMidYMid meet">
<metadata>
Created by potrace 1.16, written by Peter Selinger 2001-2019
</metadata>
<g transform="translate(0.000000,1024.000000) scale(0.100000,-0.100000)"
fill="#000000" stroke="none">
<path d="M3120 9954 c0 -5 -8 -10 -17 -11 -26 -1 -65 -11 -72 -18 -3 -4 7 -4
22 -1 16 3 25 1 22 -5 -8 -12 -48 -12 -63 1 -9 7 -9 7 -2 -2 17 -20 11 -29
-11 -17 -16 8 -20 8 -14 0 4 -7 2 -18 -4 -25 -12 -15 -5 -46 11 -46 5 0 6 -6
2 -12 -5 -9 -2 -9 9 1 9 7 17 10 17 5 -1 -26 -40 -45 -40 -19 0 8 -6 12 -13
10 -6 -3 -18 5 -26 17 -10 18 -10 20 0 11 19 -18 34 -16 19 2 -10 12 -10 19
-2 27 7 7 12 16 12 21 0 5 -8 -1 -18 -13 -16 -20 -19 -21 -25 -7 -4 10 -2 16
5 14 6 -1 13 5 15 13 3 9 1 11 -4 4 -10 -13 -62 -13 -83 0 -12 7 -13 6 -2 -5
17 -18 15 -32 -3 -25 -8 3 -14 2 -12 -3 1 -5 -7 -17 -18 -27 -12 -11 -14 -14
-6 -9 12 8 13 6 8 -8 -4 -10 -7 -20 -7 -23 0 -2 -8 -1 -17 2 -12 4 -14 3 -6
-3 28 -20 21 -88 -9 -88 -7 0 -12 -9 -10 -19 3 -15 1 -16 -11 -5 -9 9 -11 16
-5 20 5 3 2 9 -8 13 -10 4 -15 4 -11 0 4 -4 1 -14 -6 -22 -9 -13 -9 -14 1 -8
7 4 12 2 12 -8 0 -8 -5 -18 -12 -22 -7 -4 -8 -3 -4 4 5 8 2 10 -8 6 -12 -5
-13 -9 -3 -19 7 -7 15 -11 20 -8 4 2 7 -1 7 -6 0 -6 -10 -11 -22 -12 -13 0
-17 -3 -10 -6 14 -5 17 -53 2 -53 -5 0 -1 -13 8 -30 9 -16 21 -30 26 -30 5 0
3 7 -4 15 -6 8 -8 20 -4 26 4 8 3 9 -4 5 -7 -4 -12 -2 -12 3 0 12 35 9 47 -3
5 -4 2 -6 -6 -4 -7 2 -16 -3 -19 -11 -2 -8 0 -11 6 -7 6 3 9 -1 8 -11 -4 -25
-27 -29 -43 -7 -7 10 -13 14 -13 9 0 -5 8 -17 18 -28 17 -19 16 -20 -11 -13
-22 5 -27 4 -21 -6 4 -7 -5 -2 -19 11 -15 14 -27 20 -27 14 0 -16 -36 -22 -51
-9 -8 6 -5 1 4 -11 14 -16 15 -23 6 -29 -8 -5 -10 -3 -4 6 5 8 4 11 -3 6 -6
-4 -9 -13 -5 -21 3 -10 -1 -15 -13 -15 -13 0 -15 -3 -7 -8 8 -5 9 -13 3 -22
-6 -10 -3 -21 8 -35 12 -13 12 -16 2 -8 -12 9 -17 7 -27 -13 -10 -21 -9 -24 1
-14 11 8 13 4 11 -22 -2 -18 2 -40 8 -48 9 -12 9 -13 -3 -2 -21 18 -35 15 -19
-5 10 -11 10 -14 2 -9 -7 4 -13 2 -13 -3 0 -6 4 -11 8 -11 5 0 9 -7 9 -15 0
-8 -4 -15 -9 -15 -4 0 -8 5 -8 12 0 6 -3 8 -7 4 -5 -4 -1 -13 7 -19 8 -7 16
-18 18 -26 3 -12 0 -12 -12 -1 -22 18 -20 7 4 -20 18 -21 19 -25 5 -40 -15
-17 -4 -40 19 -40 6 0 4 5 -4 10 -12 8 -10 9 7 7 12 -2 26 -7 30 -12 5 -4 3
-6 -2 -2 -6 3 -19 -2 -30 -10 -20 -15 -20 -15 0 -9 16 5 21 1 22 -16 2 -16 0
-19 -6 -10 -7 11 -10 10 -14 -3 -4 -9 -3 -13 2 -10 5 3 12 1 16 -5 4 -6 10 -8
15 -5 4 3 14 -3 21 -13 13 -15 12 -16 -3 -4 -14 11 -18 10 -30 -7 -8 -12 -18
-18 -21 -14 -4 3 -7 1 -7 -5 0 -7 5 -12 11 -12 5 0 8 -4 5 -9 -3 -5 0 -14 8
-20 21 -18 9 -55 -13 -39 -14 12 -15 11 -2 -5 14 -18 16 -18 28 -1 19 26 16 3
-4 -26 l-16 -25 24 23 c14 12 29 22 35 22 5 0 1 -5 -8 -11 -10 -5 -18 -15 -18
-21 0 -9 3 -9 12 0 17 17 28 15 28 -5 0 -14 -2 -15 -9 -4 -6 9 -11 10 -15 2
-4 -6 -11 -9 -16 -6 -5 3 -11 1 -15 -5 -6 -10 7 -14 33 -11 6 1 12 -4 12 -10
0 -7 -3 -9 -7 -6 -3 4 -13 1 -21 -6 -9 -6 -13 -7 -9 -1 3 6 0 11 -8 11 -10 0
-12 -4 -5 -12 5 -7 6 -16 2 -20 -4 -5 -1 -5 6 -1 15 9 15 1 1 -27 -7 -16 -3
-14 18 8 15 17 24 25 20 18 -5 -7 -6 -17 -2 -23 4 -6 1 -9 -6 -8 -6 2 -14 -3
-17 -11 -3 -9 0 -11 8 -6 8 5 11 4 6 -3 -4 -6 -12 -9 -19 -6 -7 2 -13 -4 -14
-16 -1 -11 3 -20 8 -20 6 0 8 4 5 9 -4 5 3 7 14 4 11 -3 22 -9 25 -13 3 -5 -4
-6 -15 -3 -15 4 -20 0 -20 -16 0 -14 4 -20 12 -15 7 4 8 3 4 -4 -4 -6 -12 -9
-19 -6 -8 3 -13 -7 -13 -27 -1 -20 1 -27 6 -18 5 7 7 16 5 19 -2 4 2 7 9 7 7
0 13 -6 13 -13 0 -7 -5 -10 -10 -7 -6 4 -8 -5 -5 -20 5 -24 3 -25 -16 -15 -17
9 -19 9 -11 -3 6 -8 10 -23 10 -34 0 -11 4 -23 10 -27 6 -5 4 -8 -4 -8 -11 0
-9 -4 5 -15 16 -13 16 -15 2 -13 -9 2 -16 -1 -15 -7 1 -5 10 -9 19 -9 10 1 15
-3 12 -7 -3 -5 -9 -7 -14 -4 -5 3 -11 1 -15 -5 -5 -9 6 -14 26 -12 3 1 6 -6 6
-13 0 -12 -3 -12 -16 -2 -10 8 -13 9 -8 0 4 -6 3 -14 -3 -18 -6 -4 -7 -11 -4
-17 5 -8 1 -9 -12 -4 -14 5 -16 4 -7 -5 13 -13 37 -3 28 12 -10 16 2 10 16 -8
7 -10 10 -15 5 -11 -10 9 -47 -23 -39 -35 3 -5 0 -13 -7 -17 -8 -5 -7 -9 5
-13 9 -4 13 -3 10 2 -3 5 0 13 6 17 8 4 7 9 -2 15 -10 6 -10 9 -2 9 16 0 26
-17 14 -25 -5 -3 -8 -14 -6 -25 2 -12 0 -18 -6 -15 -9 6 -13 -8 -10 -34 2 -8
-2 -10 -11 -5 -10 6 -10 4 1 -9 15 -18 26 -23 16 -7 -3 6 -1 10 4 10 16 0 8
-34 -12 -54 -19 -19 -23 -31 -7 -21 6 3 10 -1 10 -9 0 -9 -6 -16 -12 -16 -9 0
-8 -4 2 -10 8 -5 11 -10 7 -10 -4 0 -3 -9 3 -20 7 -14 7 -20 0 -20 -5 0 -10 5
-10 12 0 6 -3 8 -6 5 -4 -4 -2 -13 5 -20 13 -16 5 -47 -12 -47 -6 0 -7 -3 -4
-6 4 -4 14 -1 24 7 16 13 16 12 -1 -15 -10 -16 -14 -26 -8 -22 12 7 21 -13 15
-32 -3 -6 -10 -9 -16 -5 -8 5 -8 2 0 -8 10 -12 10 -18 0 -29 -9 -10 -9 -11 1
-6 20 11 19 -48 -1 -73 -9 -12 -9 -13 1 -7 6 4 12 2 12 -3 0 -6 -6 -11 -12
-11 -8 0 -9 -3 -3 -8 6 -4 11 -22 12 -40 2 -28 0 -32 -13 -21 -12 10 -13 8 -5
-12 5 -13 14 -23 20 -21 16 3 14 -3 -6 -19 -14 -12 -16 -12 -8 0 5 10 4 12 -4
7 -6 -4 -9 -11 -6 -16 3 -4 -1 -11 -7 -14 -7 -3 -1 -3 15 -1 15 2 25 0 22 -6
-4 -5 -12 -9 -20 -9 -8 0 -17 -5 -20 -10 -4 -6 -3 -10 2 -9 20 3 27 -2 13 -11
-13 -8 -12 -10 4 -10 11 0 16 -3 13 -7 -4 -3 -1 -13 5 -22 9 -12 7 -11 -8 2
-21 17 -21 17 -19 -8 2 -14 -1 -25 -6 -25 -6 0 -7 -5 -3 -11 4 -8 9 -7 15 2 4
7 5 17 2 23 -3 5 -1 6 5 2 14 -8 0 -41 -20 -49 -10 -4 -10 -6 1 -6 11 -1 11
-4 0 -18 -11 -13 -11 -15 -1 -9 10 6 13 0 10 -25 -2 -29 0 -34 17 -32 19 1 20
1 1 -12 -17 -13 -17 -17 -5 -32 9 -11 10 -14 2 -9 -7 4 -13 2 -13 -3 0 -6 -5
-11 -11 -11 -8 0 -8 4 0 14 9 11 9 16 0 22 -7 4 -9 3 -5 -4 3 -6 -1 -15 -10
-20 -15 -9 -15 -10 4 -16 12 -4 22 -12 22 -17 0 -6 -5 -7 -10 -4 -14 9 -7 -32
8 -47 7 -7 12 -17 12 -22 0 -6 -5 -3 -11 7 -5 9 -15 17 -21 17 -7 0 -7 -5 1
-14 13 -15 25 -63 13 -52 -4 4 -7 13 -7 18 0 6 -7 13 -15 15 -9 3 -11 1 -5 -4
20 -16 24 -111 6 -123 -9 -5 -10 -10 -2 -14 6 -4 11 -18 11 -32 0 -14 4 -23 8
-20 4 2 9 -5 9 -17 2 -17 0 -19 -7 -7 -8 13 -11 13 -22 1 -10 -10 -10 -12 0
-7 8 5 12 0 12 -16 0 -13 5 -29 11 -35 8 -8 5 -17 -10 -32 -12 -12 -16 -21
-10 -21 6 0 8 -7 5 -16 -3 -8 -2 -13 3 -10 5 3 12 -1 15 -10 3 -8 2 -12 -4 -9
-5 3 -8 -4 -7 -15 2 -24 6 -25 21 -4 10 13 12 13 12 -5 0 -11 -4 -19 -9 -18
-5 1 -12 -4 -15 -12 -3 -8 0 -11 7 -7 7 5 9 1 4 -10 -4 -10 -2 -15 3 -12 5 4
10 -7 10 -23 1 -16 -2 -29 -7 -29 -4 0 -6 9 -4 19 2 11 -3 25 -11 32 -10 8
-14 8 -14 0 0 -6 5 -11 11 -11 8 0 8 -4 0 -14 -8 -10 -9 -16 -1 -21 6 -3 7
-11 4 -17 -4 -7 -2 -8 4 -4 7 4 12 3 12 -3 0 -5 -8 -15 -17 -21 -15 -8 -13 -9
8 -4 34 7 45 -18 19 -41 -21 -19 -18 -37 4 -29 7 3 13 -2 13 -11 0 -10 -6 -14
-15 -10 -12 4 -12 2 -4 -8 7 -8 10 -17 7 -21 -3 -3 1 -2 7 4 7 5 17 10 22 10
6 0 5 -4 -3 -9 -12 -8 -12 -12 -2 -25 7 -8 10 -20 6 -26 -3 -5 1 -13 10 -16
13 -5 14 -9 4 -15 -7 -4 -13 -19 -13 -32 -1 -15 3 -23 9 -19 16 10 36 11 29 1
-3 -5 -10 -7 -15 -4 -5 4 -9 3 -10 -2 0 -4 -2 -16 -4 -25 -2 -10 1 -18 7 -18
6 0 7 8 4 17 -4 10 -4 14 0 10 4 -4 13 -2 20 4 8 7 14 7 19 -1 4 -6 1 -9 -7
-8 -7 2 -13 -4 -13 -12 0 -8 -7 -18 -15 -22 -14 -6 9 -13 33 -9 11 2 9 -17 -3
-22 -6 -3 -5 -4 2 -3 7 2 13 9 13 17 0 8 -5 13 -12 12 -8 -2 -10 4 -6 14 4 11
8 13 11 5 2 -7 9 -9 14 -6 6 4 8 2 4 -4 -3 -6 2 -18 11 -28 16 -16 16 -17 1
-12 -9 4 -19 1 -22 -7 -3 -9 0 -12 9 -9 10 4 12 0 8 -17 -5 -17 -3 -20 7 -14
9 6 11 4 5 -5 -6 -10 -11 -9 -21 5 -12 16 -13 16 -11 -3 0 -11 5 -18 9 -16 7
4 12 -17 10 -38 -1 -3 5 -9 14 -12 12 -5 12 -2 3 15 -6 11 -8 23 -5 27 3 3 6
0 6 -7 0 -7 5 -9 12 -5 7 4 8 3 4 -4 -4 -6 -2 -21 4 -32 9 -16 8 -25 -2 -38
-12 -15 -11 -16 5 -3 12 9 17 10 17 2 0 -7 4 -10 9 -7 10 6 24 -19 25 -46 1
-9 5 -20 10 -25 5 -5 6 -2 1 6 -6 10 -4 12 4 7 9 -6 9 -11 1 -21 -7 -8 -8 -20
-4 -26 5 -9 11 -7 22 7 12 16 14 16 9 2 -4 -11 1 -22 11 -28 14 -9 14 -10 -5
-5 -14 4 -23 2 -23 -5 0 -6 4 -9 9 -6 5 4 11 1 13 -5 3 -8 10 -6 21 5 9 10 17
13 17 7 0 -5 -10 -17 -22 -27 -15 -11 -17 -14 -5 -10 25 9 43 13 34 9 -4 -3 2
-17 13 -32 19 -28 18 -41 -4 -41 -7 0 -7 3 1 8 8 5 7 14 -6 31 -14 18 -20 21
-26 11 -5 -8 -4 -11 2 -7 13 8 26 -20 17 -35 -3 -5 4 -12 15 -15 16 -4 20 -11
16 -27 -5 -19 -5 -19 5 -3 6 9 8 22 4 29 -4 7 -3 8 4 4 7 -4 12 -2 12 5 0 7 2
10 5 7 3 -3 1 -17 -5 -32 -8 -21 -7 -28 6 -33 13 -5 13 -8 2 -15 -8 -6 -5 -7
12 -2 l25 7 -20 -24 c-11 -13 -13 -19 -5 -12 21 15 42 -11 43 -54 0 -7 4 -13
9 -13 5 0 7 -4 4 -8 -8 -13 28 -11 36 2 6 8 8 7 8 -1 0 -6 -9 -18 -20 -26 -18
-13 -19 -15 -5 -21 24 -9 35 -7 35 4 0 5 -8 7 -17 4 -15 -5 -16 -4 -3 5 8 6
18 11 23 11 11 0 9 -44 -3 -56 -7 -7 -6 -11 4 -11 8 0 13 4 10 9 -3 4 0 8 5 8
6 0 11 -8 11 -18 0 -21 27 -25 49 -8 11 8 13 8 8 -1 -4 -6 -2 -13 5 -16 7 -2
5 -3 -4 -2 -10 2 -21 -1 -24 -6 -3 -5 2 -9 10 -9 9 0 16 -4 16 -10 0 -5 -8 -6
-17 -3 -14 5 -12 2 4 -17 12 -12 20 -26 18 -30 -3 -5 2 -10 10 -13 9 -4 12 -1
8 9 -10 27 6 14 23 -18 16 -30 17 -31 30 -13 8 10 17 16 20 12 4 -4 -4 -15
-17 -26 -13 -11 -19 -20 -13 -21 5 0 15 5 21 11 9 9 11 8 9 -4 -1 -9 -6 -20
-11 -24 -4 -4 -5 -2 0 6 6 10 4 12 -5 6 -10 -6 -10 -11 3 -20 10 -7 17 -20 17
-30 0 -12 6 -16 20 -12 10 3 19 2 18 -2 -3 -14 15 -41 28 -41 8 0 14 -5 14
-11 0 -5 -4 -7 -10 -4 -6 3 -7 -1 -3 -10 3 -10 8 -13 12 -6 4 5 16 9 28 8 12
0 20 -5 17 -9 -3 -4 -12 -5 -22 -2 -14 5 -14 4 -2 -4 8 -6 18 -8 22 -6 4 3 8
0 8 -5 0 -6 6 -11 14 -11 8 0 16 -3 19 -7 2 -5 2 -2 0 5 -1 7 2 10 8 7 5 -4
16 -2 24 5 10 8 15 8 21 -2 4 -7 4 -10 -1 -6 -4 4 -14 3 -21 -3 -11 -9 -9 -15
9 -30 12 -10 17 -18 11 -19 -5 0 -16 6 -24 13 -12 10 -12 9 0 -6 7 -10 19 -16
26 -13 19 7 29 -14 13 -26 -11 -8 -10 -9 3 -5 9 3 22 -1 30 -10 7 -9 11 -17 9
-17 -3 -1 1 -10 8 -21 11 -17 12 -18 7 -1 -5 14 -2 17 11 12 17 -6 17 -5 1 7
-10 8 -15 17 -11 20 3 4 0 13 -7 22 -11 13 -10 14 4 9 9 -3 16 -15 16 -26 0
-10 4 -17 9 -14 11 7 9 -13 -3 -32 -13 -22 4 -29 20 -8 16 23 19 14 4 -15 -13
-24 -2 -25 16 -1 12 14 13 15 8 1 -3 -10 0 -20 5 -24 6 -3 9 -11 6 -16 -4 -5
4 -14 17 -19 23 -11 23 -11 1 -6 -28 5 -31 -10 -3 -17 12 -3 24 1 30 11 5 10
10 12 10 6 0 -13 -20 -32 -33 -32 -17 0 -17 -9 -2 -22 11 -9 18 -10 28 -1 8 6
16 9 19 6 3 -3 11 1 17 9 11 13 16 12 42 -2 16 -9 29 -20 29 -24 0 -5 5 -8 11
-8 8 0 7 6 -2 17 -12 15 -12 16 4 10 11 -4 16 -3 12 3 -3 6 -2 10 4 10 6 0 8
8 5 18 -4 13 -3 14 4 4 5 -8 13 -14 18 -15 5 -1 8 -9 7 -17 -2 -10 -1 -11 3
-2 5 10 9 10 20 1 10 -8 14 -8 14 0 0 6 -4 11 -9 11 -5 0 -11 7 -15 15 -5 13
-2 14 15 4 17 -8 20 -8 14 1 -5 9 -1 10 14 5 22 -7 21 11 -3 45 -8 12 -7 13 3
3 7 -6 19 -10 25 -9 6 2 8 1 4 -1 -13 -8 -9 -20 6 -20 8 0 14 5 13 11 -1 5 5
11 13 11 8 0 14 6 13 13 -2 6 4 9 12 6 8 -4 12 -11 8 -17 -3 -6 -1 -7 5 -3 17
10 4 32 -19 33 -16 2 -19 -2 -14 -15 4 -12 3 -14 -5 -6 -13 13 -4 40 15 48 10
3 12 0 8 -12 -6 -15 -5 -16 13 -2 10 8 16 11 12 6 -4 -5 -1 -15 7 -22 18 -19
20 -18 22 8 2 16 0 19 -6 10 -6 -10 -10 -8 -14 7 -3 12 -1 19 3 16 5 -3 12 0
16 6 4 7 3 9 -3 6 -6 -4 -14 0 -17 9 -4 11 -2 15 8 11 15 -6 16 17 1 30 -4 4
-5 2 -1 -5 5 -8 3 -13 -5 -11 -30 4 -50 -1 -44 -11 4 -6 10 -8 15 -5 5 3 11 1
14 -4 4 -5 2 -12 -4 -16 -11 -7 -41 18 -39 32 4 23 -3 31 -21 28 -12 -2 -18 0
-15 6 4 5 11 7 16 4 5 -4 12 1 15 9 10 26 23 18 19 -11 -2 -16 -2 -22 1 -15 3
6 9 10 13 8 4 -3 8 4 8 15 1 10 -2 19 -8 19 -5 0 -9 7 -9 16 0 9 5 12 11 8 7
-4 10 -1 7 7 -3 8 -11 13 -17 11 -7 -1 -10 2 -6 7 3 6 12 8 21 4 9 -3 14 0 12
8 -2 8 9 13 29 14 18 1 30 -2 27 -6 -2 -4 -12 -5 -21 -2 -11 4 -14 3 -9 -6 4
-7 3 -10 -5 -9 -6 2 -14 -4 -16 -12 -3 -9 -1 -11 4 -5 4 6 15 11 23 13 27 6
41 24 35 46 -5 16 -4 17 4 7 10 -16 45 -25 35 -10 -3 5 -11 7 -17 3 -7 -3 -4
1 6 9 16 13 16 15 2 21 -11 4 -14 2 -9 -6 4 -7 3 -8 -5 -4 -6 4 -9 12 -5 17 3
5 10 7 15 4 5 -4 9 -3 10 2 5 50 3 63 -9 63 -7 0 -10 5 -7 10 4 6 11 8 16 5 8
-5 14 24 10 48 -1 5 3 6 8 3 5 -3 12 1 15 10 4 9 2 13 -5 8 -8 -4 -8 -1 0 13
5 11 7 24 3 29 -4 5 -3 6 2 2 16 -13 28 -9 22 7 -5 13 4 19 25 17 3 -1 6 6 6
14 0 8 -4 14 -9 14 -4 0 -8 -5 -8 -12 0 -6 -3 -8 -6 -5 -4 4 -2 12 4 19 15 19
15 30 0 40 -8 5 -3 6 15 2 17 -4 27 -2 27 5 0 6 -3 10 -7 10 -29 -5 -33 2 -19
29 12 23 12 29 2 29 -7 0 -13 -7 -12 -15 1 -8 -6 -17 -14 -19 -13 -4 -13 -3 0
6 13 10 13 12 0 21 -11 7 -11 10 -2 10 7 0 11 4 7 9 -3 5 0 13 6 17 8 4 9 3 5
-4 -4 -7 -2 -12 3 -12 6 0 11 5 11 11 0 5 4 7 10 4 5 -3 7 0 4 9 -3 8 -13 13
-22 10 -9 -3 -6 1 8 8 32 16 42 30 30 42 -12 12 -13 59 -2 52 5 -3 9 1 9 9 0
8 -4 12 -9 9 -11 -7 -10 3 3 28 8 15 8 19 0 14 -14 -9 -14 0 0 26 6 11 7 18 1
14 -5 -3 -10 12 -11 37 -3 75 -7 87 -31 110 -23 21 -24 21 -6 0 13 -16 14 -23
5 -29 -7 -4 -10 -3 -6 3 4 6 0 16 -9 23 -8 7 -13 19 -10 26 3 7 0 16 -6 20 -7
4 -8 3 -4 -4 4 -7 2 -12 -5 -12 -7 0 -10 11 -7 29 3 21 1 28 -9 24 -7 -3 -13
0 -13 7 0 6 -5 8 -12 4 -9 -5 -9 -2 1 9 9 12 10 17 2 17 -7 0 -10 4 -6 9 3 5
0 13 -6 17 -7 4 -9 3 -5 -4 3 -6 3 -13 -2 -16 -4 -2 -9 5 -9 16 -1 12 -6 24
-10 27 -14 10 -39 45 -27 38 6 -3 11 0 11 8 0 9 -7 14 -16 13 -9 -2 -16 3 -17
10 -1 6 -2 17 -3 23 0 5 -7 7 -13 3 -10 -6 -10 -5 -1 7 16 20 0 43 -26 36 -28
-7 -27 1 2 13 l22 9 -22 0 c-13 1 -23 6 -23 12 0 5 -5 7 -11 3 -7 -4 -6 2 2
17 11 21 11 23 -3 11 -13 -10 -18 -10 -24 -1 -4 8 -3 9 4 5 7 -4 12 -2 12 3 0
6 -4 11 -10 11 -5 0 -9 5 -7 12 1 7 -5 12 -13 13 -9 0 -14 8 -12 20 3 20 3 20
-11 1 -11 -15 -16 -16 -22 -6 -5 9 -4 11 3 6 7 -4 12 -2 12 3 0 6 -5 11 -11
11 -5 0 -7 5 -4 10 3 6 -3 10 -14 10 -11 0 -23 5 -27 12 -4 7 -3 8 4 4 7 -4
12 -3 12 2 0 5 -11 14 -25 20 -16 7 -23 17 -19 27 4 8 -1 17 -10 21 -9 3 -13
11 -9 18 3 6 -3 2 -15 -8 -12 -11 -22 -14 -22 -8 0 6 6 13 13 15 9 4 9 8 -2
15 -8 6 -11 17 -8 25 3 9 0 14 -11 13 -11 -1 -16 6 -15 17 0 11 -4 16 -12 13
-21 -8 -36 14 -24 36 9 17 8 18 -10 9 -14 -8 -22 -8 -27 1 -4 7 -3 8 4 4 7 -4
12 -1 12 9 0 10 -5 13 -12 9 -8 -5 -8 -2 1 10 8 9 10 16 4 14 -6 -2 -11 1 -11
6 0 5 -6 13 -14 17 -11 8 -11 11 1 18 11 7 9 10 -8 16 -11 3 -21 11 -21 16 0
6 -5 7 -12 3 -8 -5 -9 -2 -5 9 8 20 -3 22 -23 5 -8 -7 -6 -3 4 10 11 12 14 22
8 22 -7 0 -12 5 -12 11 0 5 6 7 13 3 8 -5 8 -2 -2 9 -15 18 -26 23 -16 7 3 -5
1 -10 -4 -10 -15 0 -14 13 2 29 10 11 9 12 -2 6 -11 -6 -13 -2 -9 18 3 15 2
24 -2 22 -4 -3 -13 2 -20 10 -10 12 -9 15 4 15 9 0 16 4 16 9 0 6 -9 8 -21 6
-15 -3 -18 -1 -11 8 11 13 -11 41 -22 29 -4 -3 -4 1 0 11 6 17 7 17 21 0 13
-16 13 -16 3 5 -7 14 -17 21 -25 18 -10 -3 -12 0 -8 11 4 10 2 14 -4 10 -11
-7 -12 38 0 49 4 4 7 12 7 18 0 6 -5 4 -10 -4 -7 -11 -10 -6 -10 20 0 26 3 31
10 20 5 -8 10 -10 10 -4 0 21 -14 24 -34 7 -15 -14 -18 -14 -8 -2 6 9 9 19 5
22 -3 4 -1 7 5 7 7 0 12 7 12 15 0 8 -6 15 -12 15 -9 0 -8 4 2 10 8 5 10 10 5
10 -6 0 -16 9 -22 20 -11 16 -10 18 2 14 11 -4 13 -2 9 9 -3 8 -1 18 5 22 6 3
11 11 11 17 0 5 -9 0 -20 -13 -10 -13 -19 -19 -20 -13 0 5 5 15 11 21 8 8 7
13 -2 18 -7 5 -10 4 -6 -2 3 -5 0 -10 -8 -10 -11 0 -12 4 -4 14 6 7 15 11 19
8 5 -3 11 -1 14 4 4 5 1 13 -5 17 -8 5 -9 3 -4 -6 5 -9 4 -11 -3 -6 -14 8 4
52 24 60 18 7 35 -16 24 -34 -8 -12 -10 -12 -16 3 -3 9 -10 14 -16 11 -5 -3
-1 -12 9 -19 14 -10 21 -11 32 -2 11 9 13 9 8 1 -4 -7 0 -17 8 -24 8 -7 15
-21 15 -32 0 -14 5 -18 16 -14 12 5 14 1 9 -17 -4 -13 -3 -17 2 -10 6 8 14 9
23 3 8 -6 25 -10 38 -10 12 0 22 -4 22 -10 0 -5 -8 -6 -17 -3 -15 6 -16 5 -3
-9 8 -9 17 -14 19 -12 2 2 10 -1 18 -7 9 -9 13 -8 13 0 0 6 -4 11 -10 11 -5 0
-10 5 -10 10 0 7 7 7 20 0 11 -6 18 -15 15 -20 -3 -5 0 -12 6 -16 7 -4 10 -3
7 2 -3 5 0 15 8 21 8 8 15 9 19 3 3 -6 1 -10 -4 -10 -6 0 -11 -5 -11 -10 0 -7
7 -7 18 -2 34 17 75 -2 67 -32 -2 -11 -2 -16 1 -9 3 7 12 9 21 6 9 -4 22 2 31
13 12 16 14 16 9 2 -7 -21 3 -23 22 -5 11 10 11 8 1 -11 -6 -13 -9 -26 -6 -30
3 -3 6 -1 6 5 0 6 12 10 28 11 43 0 48 2 32 12 -8 5 -10 10 -4 10 6 0 18 -8
25 -17 12 -14 12 -16 0 -8 -9 5 -12 4 -8 -2 4 -6 16 -13 27 -16 11 -3 18 -1
14 4 -3 5 0 10 5 10 6 1 17 2 24 3 6 1 21 -4 33 -11 11 -7 24 -10 29 -6 4 5 4
-3 1 -17 -6 -19 -5 -22 3 -10 8 11 13 12 19 3 4 -7 16 -10 27 -9 11 2 26 -2
34 -8 8 -6 12 -6 9 -1 -4 6 1 19 9 30 15 20 15 20 9 -1 -7 -23 18 -42 29 -24
10 17 25 11 19 -7 -5 -15 -4 -15 4 -3 6 8 9 17 7 20 -2 3 6 7 18 7 17 2 19 0
7 -7 -12 -8 -10 -10 8 -10 13 0 20 4 17 10 -3 6 1 7 9 4 9 -3 13 -11 9 -18 -3
-6 0 -5 8 2 12 11 12 14 -1 22 -8 5 -11 10 -5 10 5 0 18 -10 30 -23 11 -13 17
-18 13 -12 -4 7 12 9 49 7 43 -3 54 -1 48 9 -6 8 -4 10 5 4 10 -6 9 -11 -5
-22 -21 -15 -8 -18 15 -3 9 6 19 5 29 -3 12 -10 13 -9 2 13 -12 25 -12 25 6 5
26 -29 66 -30 52 -1 -10 20 -10 20 9 -1 23 -26 36 -19 20 11 -8 16 -5 14 15
-6 26 -27 44 -38 32 -18 -3 6 0 10 9 10 8 0 17 -6 20 -12 3 -7 3 0 1 16 -2 16
-1 25 3 21 4 -3 8 -11 8 -16 3 -22 7 -22 14 1 l8 25 1 -24 c1 -21 3 -23 14
-10 6 8 11 12 10 10 -7 -12 33 -29 44 -19 9 7 13 7 13 -3 0 -8 6 -6 16 7 8 10
13 14 10 7 -4 -6 -2 -14 4 -18 9 -5 15 23 11 48 -1 5 3 6 8 2 6 -3 8 -12 5
-19 -3 -7 2 -16 12 -20 12 -5 15 -2 10 9 -4 11 -2 14 6 9 8 -5 9 -1 5 12 -6
15 -3 13 11 -5 16 -19 30 -24 73 -26 30 -1 61 -4 69 -6 8 -2 14 1 15 8 0 6 4
15 9 20 5 4 6 3 3 -3 -4 -7 0 -15 9 -18 22 -8 26 -8 19 3 -6 11 28 7 48 -5 7
-5 6 0 -3 11 -14 17 -14 18 7 6 20 -10 22 -9 16 5 -5 13 -3 15 7 9 10 -6 12
-4 7 9 -6 14 -3 17 9 12 15 -6 15 -4 3 11 -12 15 -12 16 3 10 13 -5 19 0 24
18 4 15 11 22 18 18 6 -3 6 -1 -1 8 -18 18 -16 29 5 29 13 0 14 -2 4 -9 -11
-7 -11 -9 1 -14 11 -4 14 1 13 23 -2 25 0 27 16 19 22 -12 23 -6 2 15 -8 9
-11 16 -5 16 5 0 17 -8 27 -17 16 -17 17 -16 12 12 -5 26 -4 27 6 12 7 -9 16
-14 19 -10 4 3 2 12 -5 20 -9 11 -7 12 7 7 14 -6 16 -4 10 7 -8 12 -6 12 8 1
14 -12 16 -11 12 7 -3 15 0 18 12 14 11 -4 14 -2 9 5 -4 7 -2 12 5 12 6 0 9 8
6 19 -2 10 0 25 5 32 7 10 8 9 3 -6 -5 -15 -3 -17 5 -9 7 7 10 20 8 30 -2 11
6 27 17 37 l20 18 -21 -10 c-19 -9 -21 -8 -16 16 4 20 2 24 -8 18 -9 -5 -11
-4 -6 4 6 9 11 9 24 -1 10 -8 13 -9 9 -1 -4 6 -3 14 3 18 6 4 7 13 1 23 -4 9
-6 23 -4 30 3 6 0 12 -7 12 -6 0 -8 -5 -4 -11 5 -8 1 -8 -14 0 -12 6 -24 16
-27 21 -3 6 -11 10 -16 10 -6 0 -8 -4 -5 -9 3 -5 -2 -15 -12 -22 -15 -13 -16
-12 -3 4 17 21 8 22 -23 2 -19 -13 -23 -13 -23 -1 0 9 6 12 16 8 14 -5 14 -4
2 12 -8 9 -10 16 -5 15 20 -4 28 2 14 10 -9 7 -2 9 23 7 22 -2 41 2 48 10 6 8
16 11 22 7 5 -3 23 -6 38 -5 16 0 28 -4 26 -10 -1 -6 4 -12 11 -13 7 -2 8 -1
2 2 -15 7 -2 23 15 17 8 -4 13 -10 10 -14 -3 -4 2 -11 10 -14 13 -5 14 -2 4
17 -11 19 -10 20 3 10 8 -7 19 -9 23 -5 5 4 5 -1 2 -11 -4 -11 -3 -16 3 -12 6
3 10 1 10 -5 0 -6 4 -9 9 -5 5 3 12 -3 14 -12 4 -17 5 -17 6 0 1 11 6 15 13
11 7 -5 8 -3 3 6 -6 10 -2 12 18 8 24 -5 25 -3 16 16 -9 18 -7 18 11 -3 11
-13 18 -31 16 -38 -3 -8 -1 -11 5 -8 5 4 7 15 4 25 -3 10 -1 21 4 25 7 4 8 -1
4 -11 -4 -12 -3 -15 6 -10 6 4 11 4 10 -1 -4 -26 1 -34 15 -21 8 7 12 16 9 21
-2 4 1 7 7 7 7 0 10 -6 7 -14 -4 -9 5 -21 20 -31 14 -10 23 -12 19 -7 -4 6 2
10 13 9 12 -1 17 -6 13 -16 -4 -10 -1 -13 11 -8 24 9 21 0 -4 -14 -17 -9 -20
-8 -14 3 6 10 5 10 -5 1 -20 -18 28 -56 50 -40 13 11 13 10 1 -6 -10 -13 -17
-15 -27 -6 -9 7 -14 8 -14 1 0 -5 7 -13 16 -16 8 -3 12 -11 8 -17 -4 -8 -3 -9
5 -5 6 4 8 12 5 18 -5 7 4 9 25 6 24 -3 35 0 42 13 6 12 15 16 27 12 15 -6 16
-5 2 12 -15 19 -14 19 11 3 26 -16 27 -16 22 2 -3 12 0 20 6 20 7 0 10 -4 7
-8 -3 -5 2 -9 10 -9 8 0 13 6 10 14 -4 11 -1 11 14 3 11 -6 20 -7 19 -3 -3 21
3 31 21 36 13 3 18 1 14 -6 -3 -7 1 -4 9 6 8 10 19 17 23 15 16 -4 52 25 47
39 -3 8 3 13 17 13 11 0 18 5 15 10 -3 6 1 10 10 10 11 0 15 5 12 14 -4 9 0
13 11 11 9 -2 19 -4 21 -4 2 -1 -4 -10 -14 -21 -10 -11 -13 -20 -7 -20 7 0 12
5 12 10 0 6 5 10 11 10 7 0 9 -10 5 -26 -5 -19 -4 -24 6 -18 10 5 10 4 1 -6
-13 -14 -6 -43 8 -34 5 3 9 -2 9 -11 0 -9 -4 -13 -10 -10 -5 3 -10 1 -10 -4 0
-6 9 -11 20 -11 13 0 18 -5 14 -15 -8 -21 14 -45 34 -38 14 4 15 3 2 -5 -8 -6
-17 -9 -21 -6 -4 2 -11 0 -14 -6 -4 -6 -3 -10 2 -9 31 5 45 -2 33 -16 -7 -9
-10 -18 -6 -22 3 -3 6 -1 6 5 0 13 44 6 48 -7 2 -6 10 -7 18 -4 7 3 11 10 7
16 -3 6 -1 7 6 3 9 -6 9 -11 -1 -24 -11 -13 -10 -15 8 -10 23 6 26 -5 10 -31
-6 -9 -5 -12 2 -7 6 4 11 -1 11 -11 -1 -32 7 -52 27 -75 13 -15 14 -18 2 -10
-12 10 -18 10 -24 1 -4 -8 -3 -9 4 -5 7 4 12 1 12 -7 0 -8 7 -20 15 -27 8 -7
12 -16 9 -21 -3 -5 2 -9 11 -9 13 0 14 -4 4 -22 -11 -20 -10 -21 3 -10 19 16
33 -9 15 -27 -8 -8 -5 -9 11 -6 20 4 21 2 7 -19 -14 -20 -13 -24 5 -44 19 -20
15 -28 -13 -23 -5 1 -6 -3 -2 -9 3 -6 11 -7 17 -4 7 5 9 1 5 -9 -4 -11 -2 -14
7 -11 8 3 17 0 22 -7 4 -8 3 -10 -4 -5 -8 5 -12 -2 -12 -19 0 -18 4 -24 13
-19 6 4 4 -2 -6 -13 -12 -14 -15 -23 -7 -28 5 -3 7 -11 4 -17 -4 -7 -2 -8 4
-4 8 5 10 2 6 -8 -3 -9 -10 -14 -14 -11 -5 3 -12 1 -15 -5 -4 -6 -1 -9 6 -8 6
2 14 -3 17 -11 3 -9 0 -11 -9 -7 -8 4 -6 1 4 -7 15 -12 15 -15 3 -20 -13 -5
-13 -10 -1 -33 8 -15 12 -30 10 -34 -10 -16 -13 -60 -4 -60 5 0 9 -5 9 -11 0
-5 -6 -7 -12 -3 -8 5 -7 0 2 -11 8 -10 10 -16 4 -12 -8 5 -11 -6 -10 -32 0
-22 4 -37 9 -34 4 2 7 -1 7 -7 0 -6 4 -9 8 -6 5 3 9 -1 9 -9 0 -8 -3 -12 -7
-10 -3 2 -6 -5 -6 -16 0 -23 1 -23 20 -3 9 8 16 11 16 5 0 -5 -4 -13 -10 -16
-5 -3 -10 -11 -10 -17 0 -6 8 -4 18 5 15 14 19 15 19 2 0 -8 -4 -12 -9 -9 -8
5 -9 -1 -11 -43 -1 -10 -5 -21 -10 -24 -5 -3 -2 -9 6 -12 11 -4 14 2 12 24 -1
16 1 27 5 24 15 -9 4 -60 -14 -59 -13 2 -14 -1 -5 -12 11 -14 9 -41 -6 -78 -6
-14 -5 -17 6 -14 8 3 13 12 11 22 -2 9 1 16 7 16 5 0 8 -8 6 -17 -1 -10 3 -25
9 -33 10 -13 9 -13 -6 -1 -16 12 -18 11 -18 -4 0 -15 -2 -16 -17 -4 -16 12
-16 12 -6 -1 6 -8 11 -19 11 -23 0 -5 3 -11 6 -14 3 -4 6 -1 6 5 0 7 4 12 8
12 5 0 9 -7 9 -15 0 -8 -4 -12 -9 -9 -4 3 -9 0 -9 -5 -1 -6 -3 -15 -4 -21 -1
-5 -3 -14 -4 -20 -2 -16 -18 -12 -18 5 0 8 3 12 7 10 3 -2 7 5 7 16 1 12 -5
19 -15 19 -14 0 -14 -2 -3 -9 11 -7 10 -11 -5 -20 -11 -6 -13 -11 -6 -11 7 0
11 -4 7 -9 -3 -5 2 -17 11 -25 8 -9 11 -16 5 -16 -6 0 -8 -8 -5 -17 5 -15 4
-15 -4 -3 -6 8 -9 17 -6 21 2 4 -1 11 -7 15 -8 4 -9 3 -5 -4 4 -7 1 -12 -6
-12 -9 0 -9 -3 2 -10 13 -8 13 -10 1 -10 -11 0 -10 -4 5 -16 10 -8 14 -13 7
-10 -15 8 -27 -10 -13 -19 6 -4 19 -1 28 7 15 12 16 11 3 -5 -7 -9 -20 -16
-27 -15 -7 2 -12 -1 -11 -7 1 -5 7 -9 12 -7 6 1 3 -3 -6 -10 -9 -7 -14 -23
-12 -36 2 -16 -1 -21 -9 -16 -8 5 -9 2 -5 -9 4 -12 1 -17 -11 -17 -15 0 -15
-2 -2 -10 8 -5 11 -10 5 -11 -5 0 -1 -4 10 -9 18 -8 18 -9 -5 -10 -14 -1 -19
-4 -12 -7 21 -8 13 -21 -10 -17 -13 2 -17 2 -10 -2 6 -3 10 -10 7 -15 -4 -5 2
-6 12 -3 15 4 15 3 -2 -8 -22 -14 -31 -38 -15 -38 6 0 10 -5 10 -11 0 -6 -6
-9 -14 -6 -9 4 -13 0 -11 -11 1 -9 -2 -25 -7 -34 -5 -10 -5 -18 0 -18 5 0 9
-7 9 -15 0 -12 -3 -12 -15 -2 -13 10 -14 9 -4 -10 17 -31 15 -38 -5 -22 -16
13 -17 12 -4 -3 7 -10 10 -18 6 -18 -4 0 -2 -7 5 -15 7 -8 9 -15 5 -15 -4 0
-1 -8 6 -17 13 -16 12 -17 -3 -5 -11 9 -18 10 -23 2 -3 -5 -1 -10 6 -10 7 0 9
-3 6 -6 -3 -4 -2 -15 4 -26 9 -18 8 -18 -10 -9 -17 9 -19 9 -15 -3 3 -8 0 -17
-6 -21 -8 -5 -4 -15 12 -33 13 -14 17 -22 9 -17 -11 6 -13 4 -8 -8 4 -11 -1
-22 -13 -29 -11 -7 -20 -16 -20 -21 0 -4 4 -6 8 -3 4 2 8 -5 9 -17 0 -12 -1
-16 -4 -9 -8 21 -25 13 -18 -10 6 -16 4 -20 -8 -15 -11 4 -14 -1 -13 -23 1
-16 -2 -26 -7 -23 -5 3 -6 -4 -2 -16 4 -13 2 -21 -5 -21 -6 0 -9 4 -5 9 3 5 2
12 -3 15 -4 2 -8 -22 -7 -55 0 -44 -3 -58 -12 -54 -9 3 -7 -4 3 -20 15 -23 15
-25 0 -19 -9 3 -16 11 -16 17 0 6 -3 8 -6 4 -9 -9 22 -48 31 -39 5 4 5 1 1 -6
-6 -10 -11 -10 -21 -2 -11 9 -12 7 -8 -9 4 -15 1 -21 -11 -21 -9 0 -16 -5 -16
-11 0 -5 4 -8 9 -5 10 6 23 -33 15 -46 -3 -4 -12 -8 -20 -8 -8 0 -12 -4 -9
-10 3 -5 -2 -10 -12 -11 -11 0 -13 -3 -5 -6 7 -3 19 1 27 7 10 8 15 9 15 2 0
-6 -9 -14 -20 -17 -20 -6 -20 -7 -2 -23 9 -9 13 -14 8 -9 -16 12 -29 8 -23 -8
4 -8 2 -17 -4 -20 -5 -4 -7 -10 -4 -15 3 -5 -2 -13 -11 -18 -10 -6 -13 -12 -6
-16 12 -7 4 -46 -9 -46 -5 0 -9 -5 -9 -11 0 -5 6 -7 13 -3 8 5 7 2 -2 -9 -11
-14 -17 -15 -30 -5 -14 12 -14 11 -2 -4 7 -10 17 -16 21 -13 5 3 12 0 16 -7 4
-7 4 -10 0 -6 -5 4 -14 2 -21 -5 -10 -9 -9 -14 4 -25 11 -9 12 -12 2 -10 -7 2
-16 -3 -19 -11 -3 -8 0 -11 6 -7 11 6 8 -31 -3 -42 -2 -3 0 -11 6 -18 8 -9 5
-15 -9 -23 -15 -8 -19 -20 -18 -51 2 -28 -1 -37 -9 -30 -7 6 -11 3 -11 -10 0
-10 5 -16 10 -13 6 4 6 -1 1 -13 -5 -10 -9 -29 -9 -41 -1 -13 -5 -23 -11 -23
-5 0 -3 -5 5 -10 12 -8 12 -10 -5 -10 -11 0 -15 -4 -10 -8 15 -11 18 -35 3
-29 -8 3 -13 -4 -13 -18 0 -13 3 -21 6 -19 3 1 6 -3 6 -10 0 -9 -9 -13 -25
-10 -22 4 -23 3 -8 -11 20 -21 20 -24 -2 -18 -10 2 -26 -5 -36 -16 -11 -12
-14 -21 -8 -21 7 0 12 4 12 9 0 14 29 21 36 9 4 -6 3 -8 -4 -4 -6 3 -17 -3
-25 -14 -7 -11 -17 -18 -20 -15 -4 3 -5 2 -2 -2 3 -3 0 -12 -6 -19 -13 -16 7
-58 23 -48 7 5 8 2 3 -5 -5 -9 -14 -6 -33 11 -15 13 -21 16 -14 7 6 -9 9 -19
5 -22 -3 -4 -1 -7 4 -7 13 0 11 -25 -2 -37 -4 -4 -5 -3 -1 4 3 6 1 15 -5 19
-8 4 -9 3 -5 -4 4 -7 1 -12 -6 -12 -7 -1 -3 -6 9 -13 22 -12 22 -13 3 -25 -15
-9 -20 -9 -20 0 0 6 -3 9 -6 5 -3 -3 -2 -13 4 -23 6 -11 11 -13 16 -5 11 17
26 13 25 -6 0 -11 -3 -13 -6 -6 -3 9 -10 9 -29 -3 -20 -14 -22 -19 -12 -38 10
-19 10 -20 -6 -7 -9 8 -19 11 -23 7 -3 -3 -1 -6 5 -6 7 0 12 -9 12 -20 0 -11
-4 -20 -10 -20 -5 0 -7 8 -3 18 7 18 5 17 -17 -12 -8 -11 -10 -17 -3 -13 6 4
14 3 18 -3 3 -5 2 -10 -4 -10 -6 0 -7 -8 -4 -17 6 -15 4 -16 -9 -5 -13 10 -18
10 -24 1 -4 -8 -3 -9 4 -5 20 12 13 -5 -10 -26 -13 -11 -18 -17 -11 -14 6 4
13 0 16 -6 3 -10 7 -10 19 -1 12 10 15 10 15 0 0 -8 -5 -14 -11 -14 -6 0 -20
-4 -31 -8 -16 -5 -17 -5 -5 4 8 6 10 11 4 11 -19 0 -23 -11 -14 -35 8 -20 6
-23 -9 -20 -14 3 -17 -2 -13 -21 2 -13 0 -24 -5 -24 -6 0 -9 -11 -8 -25 2 -14
-1 -23 -6 -19 -5 3 -6 11 -3 17 4 7 3 9 -1 4 -15 -13 -17 -49 -3 -42 7 4 6 1
-3 -7 -9 -7 -14 -19 -11 -27 3 -9 0 -11 -8 -6 -8 5 -11 3 -8 -6 3 -8 -7 -25
-21 -38 -17 -16 -20 -23 -8 -18 9 3 17 2 17 -2 0 -5 -7 -12 -16 -15 -14 -5
-14 -9 -3 -23 12 -14 12 -16 0 -8 -11 6 -13 4 -7 -10 4 -11 0 -25 -9 -35 -11
-13 -13 -20 -5 -25 7 -4 7 -11 2 -18 -13 -18 -22 -47 -14 -46 28 5 32 -4 7
-16 -30 -14 -30 -14 -3 -10 15 2 29 -2 31 -9 4 -9 -2 -11 -18 -8 -12 2 -26 -2
-30 -8 -5 -9 -1 -10 14 -5 16 5 20 3 15 -9 -3 -9 -12 -12 -22 -9 -10 4 -7 -3
8 -16 14 -12 19 -19 11 -15 -11 5 -13 3 -8 -10 4 -11 3 -15 -4 -11 -6 4 -8 14
-5 22 3 8 1 11 -5 8 -5 -4 -8 -12 -6 -18 2 -7 -3 -21 -12 -31 -9 -11 -10 -16
-3 -12 6 4 12 2 12 -4 0 -6 5 -8 12 -4 7 4 8 3 4 -4 -4 -7 -13 -12 -21 -12 -9
0 -12 -8 -9 -26 3 -19 1 -24 -8 -18 -7 4 -10 4 -6 -1 4 -4 3 -14 -4 -22 -6 -8
-7 -13 -2 -12 24 4 34 -3 30 -23 -1 -13 -10 -23 -19 -23 -8 0 -19 -4 -24 -9
-4 -5 -3 -6 4 -2 6 3 14 2 18 -4 3 -5 1 -10 -6 -10 -6 0 -9 -8 -6 -20 4 -16 2
-18 -13 -10 -12 7 -18 6 -17 -3 1 -34 -4 -48 -15 -41 -7 4 -8 3 -4 -5 6 -9 11
-9 22 0 7 6 11 15 8 20 -3 5 0 9 5 9 15 0 14 -6 -5 -35 -9 -14 -21 -22 -28
-18 -6 4 -4 -2 4 -12 13 -17 13 -18 -1 -13 -10 4 -16 1 -16 -8 0 -8 4 -14 9
-14 4 0 8 -4 8 -10 0 -5 -8 -7 -17 -3 -15 5 -14 3 2 -10 15 -13 16 -16 5 -17
-8 0 -21 -10 -29 -22 -14 -23 -14 -23 8 -4 19 17 21 17 21 3 0 -10 -5 -17 -11
-17 -5 0 -7 -5 -4 -10 4 -6 11 -7 17 -4 7 4 8 2 4 -5 -4 -6 -12 -9 -17 -6 -5
4 -9 1 -9 -5 0 -6 -5 -8 -11 -4 -7 4 -7 -1 1 -16 6 -12 9 -24 6 -28 -3 -3 -6
0 -6 7 0 9 -4 9 -14 -1 -10 -9 -11 -15 -2 -20 8 -6 8 -8 -1 -8 -7 0 -10 -6 -7
-14 3 -8 1 -17 -5 -21 -14 -8 -14 -25 0 -25 5 0 7 5 3 12 -5 7 -3 8 6 3 10 -6
10 -10 -3 -20 -14 -10 -14 -12 1 -23 9 -7 11 -10 3 -6 -10 5 -13 3 -8 -9 4
-10 -2 -22 -16 -33 -15 -11 -17 -15 -4 -11 9 4 17 2 17 -3 0 -6 -5 -10 -11
-10 -5 0 -8 -4 -4 -9 3 -5 1 -13 -5 -16 -8 -5 -7 -12 2 -23 8 -10 9 -13 1 -9
-6 4 -15 2 -19 -4 -4 -7 -3 -9 4 -5 6 3 13 2 17 -4 3 -5 -1 -10 -9 -10 -19 0
-20 -11 -3 -29 10 -11 9 -13 -6 -8 -11 4 -16 3 -12 -4 4 -5 1 -17 -7 -26 -9
-12 -9 -15 -1 -9 8 4 13 1 13 -9 0 -9 -5 -13 -11 -9 -7 4 -7 -1 1 -16 11 -20
10 -21 -9 -11 -17 10 -20 9 -15 -4 4 -8 0 -23 -7 -32 -12 -14 -12 -16 0 -9 9
6 12 5 9 -5 -3 -8 -11 -13 -17 -11 -7 1 -10 -2 -6 -8 3 -6 12 -7 18 -3 7 4 6
0 -2 -10 -7 -9 -10 -24 -7 -33 6 -15 4 -15 -10 -3 -16 13 -16 12 -5 -8 10 -19
9 -23 -3 -23 -21 0 -29 -30 -8 -31 14 0 14 -2 -3 -8 -11 -5 -24 -6 -29 -3 -5
3 -6 0 -2 -7 4 -6 13 -8 19 -4 7 4 5 -2 -3 -12 -13 -17 -13 -18 0 -10 9 5 8 0
-4 -13 -15 -17 -16 -22 -5 -23 8 -1 3 -5 -11 -9 -24 -8 -24 -8 -2 -9 19 -1 21
-3 10 -15 -7 -8 -17 -11 -23 -8 -5 3 -4 -1 3 -10 10 -13 10 -18 1 -24 -8 -5
-9 -3 -4 6 6 9 4 11 -5 5 -10 -6 -9 -11 5 -22 11 -7 13 -13 7 -13 -7 0 -12 -7
-12 -16 0 -9 5 -12 12 -8 7 4 8 3 4 -4 -4 -6 -14 -8 -23 -5 -13 5 -15 2 -11
-15 4 -12 1 -20 -4 -19 -6 1 -13 -4 -16 -12 -3 -9 0 -11 8 -6 9 5 11 4 6 -3
-4 -7 -13 -12 -21 -12 -8 0 -17 -4 -20 -10 -4 -6 1 -7 12 -4 17 5 17 5 1 -9
-18 -15 -25 -33 -9 -23 11 7 2 -34 -12 -51 -5 -7 -7 -20 -3 -28 3 -9 0 -15 -9
-15 -8 0 -15 -4 -15 -10 0 -5 5 -10 10 -10 6 0 10 -5 10 -11 0 -5 -4 -7 -10
-4 -5 3 -10 -1 -10 -9 0 -9 -5 -16 -12 -16 -6 0 -8 -3 -5 -7 4 -3 -1 -12 -11
-20 -15 -13 -15 -14 8 -9 22 5 21 4 -5 -9 -24 -11 -26 -14 -10 -15 18 -1 18
-2 4 -13 -9 -7 -14 -18 -11 -26 3 -8 0 -11 -6 -7 -6 3 -14 1 -18 -5 -4 -8 -3
-9 4 -5 7 4 12 2 12 -4 0 -6 5 -8 12 -4 7 4 8 3 4 -5 -4 -6 -11 -9 -16 -6 -9
6 -24 -24 -21 -44 1 -7 -2 -10 -8 -7 -5 4 -12 2 -15 -3 -4 -5 -1 -13 5 -17 8
-5 9 -3 4 6 -6 9 -4 11 4 6 10 -6 9 -12 -2 -24 -22 -26 -32 -46 -19 -38 7 4
12 2 12 -3 0 -6 -5 -11 -10 -11 -7 0 -7 -7 0 -21 10 -18 9 -19 -7 -11 -16 9
-18 7 -17 -16 1 -15 -8 -40 -19 -56 -12 -16 -16 -26 -9 -22 7 4 12 1 12 -9 0
-9 -4 -14 -8 -11 -10 6 -13 -10 -15 -66 -1 -30 -3 -33 -13 -21 -8 12 -13 13
-18 5 -4 -7 -1 -12 6 -12 9 0 9 -3 2 -8 -16 -11 -36 -51 -30 -61 3 -5 -2 -12
-11 -16 -16 -5 -15 -8 7 -26 15 -12 18 -17 7 -13 -13 5 -16 2 -11 -10 3 -9 1
-16 -6 -16 -6 0 -9 4 -6 8 2 4 0 14 -6 22 -8 13 -9 12 -5 -2 3 -9 -3 -26 -14
-39 -14 -17 -16 -25 -8 -36 10 -11 8 -12 -7 -7 -18 7 -18 6 1 -16 11 -13 14
-20 8 -16 -7 4 -13 2 -13 -3 0 -6 -5 -11 -11 -11 -8 0 -8 5 1 15 7 9 8 15 2
15 -21 0 -36 -58 -19 -80 10 -13 10 -13 -5 -2 -11 9 -18 10 -23 2 -3 -6 -12
-7 -18 -4 -9 5 -9 4 -1 -5 8 -9 7 -23 -3 -54 -22 -63 -24 -90 -5 -75 13 11 14
10 4 -9 -14 -26 -15 -36 -3 -28 5 3 13 0 17 -6 4 -8 3 -9 -4 -5 -7 4 -12 2
-12 -4 0 -6 -4 -9 -9 -6 -5 3 -15 -2 -22 -12 -12 -15 -12 -16 2 -5 16 13 29 8
29 -9 0 -5 -6 -6 -12 -2 -9 5 -9 2 1 -9 10 -13 10 -17 1 -17 -10 0 -10 -3 0
-15 7 -8 16 -13 20 -10 4 2 12 -7 19 -21 14 -31 14 -37 1 -29 -6 3 -7 -1 -4
-9 3 -9 12 -16 19 -16 7 0 15 -5 17 -10 2 -6 14 -12 27 -15 31 -6 32 -7 13
-25 -14 -13 -15 -12 -8 5 6 16 5 18 -5 7 -11 -10 -10 -16 5 -30 11 -9 16 -11
12 -5 -4 7 -2 14 3 14 12 2 26 5 39 9 4 1 11 2 16 1 5 -1 6 5 3 13 -4 9 -2 18
4 21 5 4 9 3 8 -2 -3 -18 1 -36 8 -30 3 4 13 1 21 -6 13 -10 14 -8 8 13 -5 17
-4 20 2 12 8 -11 10 -11 15 2 3 8 2 16 -3 18 -5 2 2 16 16 31 13 15 24 23 24
17 0 -6 3 -9 8 -6 11 6 47 -22 38 -31 -4 -4 -12 0 -17 10 -6 9 -15 15 -20 11
-6 -3 -1 -13 11 -21 16 -11 19 -18 11 -26 -15 -15 -14 -30 2 -21 6 4 1 -5 -12
-20 -24 -26 -38 -62 -20 -50 5 3 9 0 9 -6 0 -6 12 -8 32 -5 29 5 30 4 17 -12
-8 -10 -18 -22 -24 -26 -5 -5 1 -5 14 -2 18 6 22 4 16 -6 -5 -8 2 -5 15 6 l23
20 -17 -32 c-9 -18 -12 -33 -7 -33 5 0 11 8 13 18 3 10 12 19 21 19 9 0 14 -4
11 -9 -3 -4 0 -8 5 -8 6 0 11 5 11 12 0 6 6 4 13 -7 10 -12 16 -14 21 -7 4 7
12 12 17 12 6 0 8 -4 5 -9 -3 -5 1 -12 10 -15 24 -9 26 -8 14 17 -10 20 -9 20
9 -3 14 -16 19 -18 15 -7 -7 20 6 23 25 5 10 -11 12 -9 9 7 -3 22 24 29 28 7
1 -7 0 -8 -3 -2 -8 16 -23 12 -17 -5 3 -8 14 -17 24 -20 10 -3 20 -14 23 -25
3 -13 1 -17 -9 -13 -7 3 -12 10 -11 16 1 7 -15 12 -40 12 -23 1 -39 -3 -37 -7
3 -4 -3 -5 -13 -2 -15 5 -15 4 -3 -5 12 -8 11 -10 -7 -8 -16 1 -19 5 -12 13 6
8 4 14 -7 18 -24 9 -28 7 -15 -7 8 -10 7 -14 -4 -14 -8 0 -11 5 -8 10 3 6 1 7
-5 3 -17 -10 -15 -29 2 -23 8 3 20 -1 26 -8 9 -11 17 -12 31 -4 10 5 19 7 19
3 0 -3 6 -1 14 5 9 8 16 8 20 2 4 -6 13 -8 21 -5 8 3 20 -4 27 -15 7 -12 18
-21 25 -21 6 0 15 -5 19 -11 4 -7 0 -9 -14 -5 -26 9 -38 -10 -15 -22 12 -7 24
-5 42 6 14 9 23 12 19 8 -4 -5 0 -15 8 -23 8 -8 12 -18 9 -23 -3 -5 -1 -11 4
-15 6 -3 8 4 6 16 -3 15 0 19 11 15 10 -4 14 -1 11 6 -2 7 -11 12 -19 10 -9
-1 -18 6 -20 16 -4 15 0 19 21 18 16 0 25 4 23 13 -1 7 2 9 8 6 8 -5 5 -14 -7
-28 -16 -18 -16 -20 -1 -14 9 3 19 1 21 -6 2 -7 4 6 3 28 -1 25 -7 43 -16 48
-10 5 -7 6 8 3 14 -3 22 1 22 10 0 8 5 14 11 14 7 0 5 -10 -5 -25 -15 -23 -15
-25 7 -35 20 -10 20 -10 5 3 -10 8 -15 17 -11 20 3 4 12 2 20 -4 8 -8 13 -8
13 -1 0 6 -6 12 -12 15 -7 2 -10 8 -6 12 4 4 16 2 25 -6 17 -13 17 -13 3 5
-14 18 -13 19 2 14 11 -5 15 -2 13 10 -2 9 -4 20 -4 25 -1 4 -6 7 -12 7 -8 0
-8 -4 0 -14 9 -10 8 -15 -3 -19 -9 -4 -18 -2 -21 3 -3 5 -14 7 -25 5 -11 -2
-20 0 -20 6 0 10 28 8 48 -4 6 -5 12 -4 12 1 0 12 -25 33 -32 27 -2 -3 -5 1
-5 9 0 7 5 13 11 11 42 -9 80 -41 69 -59 -4 -5 -1 -6 6 -1 9 5 10 10 2 18 -15
15 -14 27 3 27 8 0 17 4 20 9 8 12 -27 8 -36 -4 -5 -6 -8 -5 -8 3 0 7 -3 11
-8 8 -4 -2 -16 2 -27 10 -10 8 -14 14 -9 14 6 0 16 -6 23 -12 10 -11 12 -10
11 2 -5 32 0 46 9 31 5 -8 7 -19 5 -26 -3 -6 2 -12 11 -12 16 0 16 27 0 40 -6
5 -4 7 5 4 8 -2 15 -9 15 -15 0 -5 3 -14 7 -17 4 -4 5 5 2 20 -3 19 -1 24 7
19 7 -4 9 -3 5 4 -3 6 4 18 16 28 13 9 16 14 6 11 -22 -8 -30 3 -15 22 10 14
10 14 -5 3 -12 -10 -18 -10 -24 -1 -5 8 -3 9 6 4 8 -5 11 -3 8 6 -3 8 -11 13
-17 11 -7 -1 -10 2 -6 8 3 6 11 8 16 5 8 -6 7 24 -4 71 -5 18 -2 21 16 16 18
-5 19 -7 5 -10 -20 -4 -13 -32 9 -32 8 0 11 5 8 10 -4 6 -1 18 7 27 7 9 8 14
2 10 -6 -3 -20 0 -30 8 -18 13 -18 14 2 9 12 -3 25 0 29 7 5 8 4 10 -3 5 -7
-4 -12 -2 -12 4 0 7 -8 9 -20 5 -11 -4 -20 -2 -20 4 0 6 3 10 8 10 24 -4 52 3
52 12 0 6 -7 8 -16 5 -8 -3 -12 -2 -9 4 3 6 1 10 -4 10 -6 0 -11 5 -11 11 0 8
5 7 15 -1 9 -7 18 -10 22 -6 3 3 1 6 -5 6 -13 0 -16 28 -6 54 5 14 9 14 23 4
12 -10 11 -7 -2 9 -12 13 -14 23 -7 26 6 3 5 4 -2 3 -7 -2 -13 -8 -13 -14 0
-5 -4 -14 -9 -19 -5 -5 -6 -3 -2 5 4 6 2 12 -3 12 -6 0 -11 5 -11 11 0 5 5 7
10 4 6 -3 10 -2 10 4 0 5 -6 12 -12 14 -10 4 -10 6 0 6 6 1 12 8 12 16 0 8 5
15 10 15 7 0 7 -6 1 -19 -9 -16 -8 -18 10 -14 16 4 18 8 7 14 -13 8 -4 13 17
9 6 -1 4 4 -2 11 -15 15 -17 33 -3 24 5 -3 7 0 4 9 -3 8 -12 12 -20 9 -10 -4
-11 -10 -3 -24 5 -10 7 -19 5 -19 -3 0 -10 9 -16 20 -8 16 -6 22 12 32 13 7
23 19 23 27 0 8 6 16 13 19 8 2 10 -3 6 -15 -5 -14 -4 -15 4 -4 7 10 7 21 1
32 -5 10 -5 20 0 23 13 8 11 57 -3 49 -6 -3 -7 -2 -3 3 5 5 13 10 18 10 5 1
12 2 16 3 4 0 -2 8 -13 17 -10 8 -13 12 -5 8 11 -5 13 -3 8 10 -4 10 -3 15 3
11 14 -9 12 9 -2 24 -11 11 -9 11 12 1 l25 -13 -20 23 -20 23 23 -12 c22 -12
23 -11 12 8 -8 17 -8 22 3 27 7 2 13 18 13 37 -1 18 4 38 11 45 16 17 17 36 1
26 -7 -4 -8 -3 -4 5 4 6 12 9 17 6 5 -4 9 -2 9 3 0 17 -13 22 -29 9 -14 -11
-14 -10 -2 5 7 10 17 16 21 13 11 -7 23 26 21 55 -3 24 -2 24 12 5 14 -19 15
-18 10 9 -3 16 -2 27 3 23 5 -3 10 8 11 25 0 17 7 34 14 39 8 5 9 9 3 9 -6 0
-10 8 -9 17 1 20 24 64 25 47 0 -5 -5 -15 -12 -22 -9 -9 -8 -12 4 -12 12 0 15
8 14 30 -1 16 1 30 6 30 4 0 7 6 6 13 -2 6 3 11 11 9 11 -2 12 0 3 10 -6 8 -7
19 -2 27 4 8 7 19 6 25 -2 6 -1 8 1 3 3 -4 9 -4 14 -1 6 3 5 11 -2 20 -10 12
-9 13 6 8 14 -6 16 -4 9 7 -12 19 -12 33 0 41 6 4 4 14 -4 25 -12 15 -12 16 0
5 17 -14 34 -16 25 -2 -3 6 -1 10 6 10 8 0 5 9 -7 23 -10 12 -12 16 -4 10 20
-18 35 -16 20 2 -7 9 -10 18 -6 22 3 3 6 1 6 -6 0 -7 5 -9 10 -6 8 5 7 12 -2
23 -11 13 -11 15 4 10 21 -8 31 2 18 17 -8 9 -6 14 6 19 9 4 14 12 10 21 -3 9
1 18 8 21 8 3 13 14 11 25 -2 10 1 21 6 24 5 4 6 12 2 18 -11 18 -12 38 -2 31
5 -3 6 -10 3 -16 -4 -7 -2 -8 5 -4 6 4 9 12 6 17 -4 5 -1 9 6 9 10 0 10 3 2
11 -13 13 -6 39 9 39 6 0 5 -6 -2 -15 -7 -8 -8 -15 -4 -15 5 0 15 9 22 21 8
12 9 18 4 15 -5 -3 -15 1 -22 9 -11 13 -10 14 5 9 13 -5 16 -4 11 4 -4 7 -1
12 8 12 9 0 13 6 10 14 -3 9 3 17 17 21 17 6 19 9 8 16 -12 7 -11 9 1 9 13 0
13 1 0 10 -13 8 -12 10 3 10 11 0 15 4 11 12 -5 7 -2 9 8 6 11 -5 14 0 10 18
-2 14 -1 24 4 23 20 -3 22 2 14 30 -7 25 -6 29 8 24 10 -4 13 -2 8 5 -4 7 -2
12 5 12 8 0 6 7 -5 19 -12 13 -14 21 -6 26 6 3 9 1 8 -6 -2 -6 2 -13 9 -16 8
-3 11 3 8 17 -2 11 0 18 5 15 11 -7 23 32 14 46 -5 8 -3 9 6 4 10 -6 12 -4 6
10 -6 16 -4 16 11 4 10 -7 15 -10 12 -6 -9 11 18 82 30 79 16 -3 14 4 -6 24
-17 17 -17 18 1 11 14 -6 17 -4 12 9 -6 15 -4 15 11 3 10 -7 15 -9 11 -5 -4 5
-2 16 5 24 10 13 9 15 -5 9 -10 -3 -20 -1 -24 5 -4 6 -3 8 4 4 6 -3 13 -2 17
4 4 6 10 8 15 5 5 -3 11 -1 15 5 6 9 -7 14 -27 11 -5 0 -8 4 -8 9 0 6 12 8 26
6 15 -3 24 -2 20 1 -3 3 -1 13 6 20 9 11 9 17 -3 24 -11 7 -10 10 9 15 21 6
21 7 5 21 -10 8 -12 12 -5 8 12 -6 16 11 13 45 -2 13 -1 13 8 0 5 -8 13 -11
17 -7 4 3 1 13 -5 21 -10 12 -8 14 15 11 26 -2 27 -2 9 11 -18 13 -18 14 3 14
12 0 22 5 22 11 0 5 -4 8 -9 4 -5 -3 -8 9 -6 27 2 18 4 38 4 43 1 6 5 3 11 -5
5 -9 5 -19 -1 -26 -7 -8 -6 -15 3 -20 7 -4 10 -4 6 1 -4 4 -3 14 3 21 6 8 9
21 5 29 -3 9 0 15 9 15 8 0 15 5 15 11 0 5 -6 7 -12 3 -7 -4 -3 4 10 18 12 13
22 34 22 47 0 12 4 19 10 16 6 -3 10 -2 10 3 0 4 9 18 20 30 25 26 15 29 -14
4 -16 -13 -18 -13 -8 -1 6 9 8 20 4 24 -4 5 -1 4 7 0 11 -6 13 -4 7 10 -5 14
-4 16 7 6 11 -9 17 -7 28 6 10 12 10 15 1 9 -14 -8 -10 40 4 53 4 3 4 -2 1
-11 -3 -10 -2 -20 3 -23 6 -4 10 1 10 9 0 14 11 20 32 17 4 0 5 6 1 15 -5 13
-7 13 -14 2 -6 -9 -8 -6 -6 9 2 12 7 26 12 30 4 5 5 3 2 -3 -4 -7 1 -15 10
-18 10 -4 14 -4 10 0 -4 4 -2 13 5 21 6 8 7 13 2 12 -19 -3 -29 1 -17 9 6 4
13 16 15 27 1 11 8 23 13 28 6 4 -3 5 -18 3 -24 -4 -27 -3 -17 9 7 8 17 12 23
8 6 -4 8 0 4 10 -4 10 -2 16 5 14 6 -1 13 4 15 11 3 8 -1 10 -11 6 -9 -3 -16
-1 -16 5 0 6 3 10 8 10 4 -1 16 -1 27 1 l20 1 -20 9 c-18 8 -18 9 5 10 22 0
23 2 8 11 -10 5 -18 15 -18 22 0 7 4 6 10 -3 5 -8 10 -11 10 -6 0 5 8 2 17 -5
16 -13 16 -12 0 14 -16 25 -16 28 -2 34 13 5 14 7 3 14 -10 7 -11 9 0 9 7 0
11 4 7 9 -3 5 0 13 6 17 8 4 9 3 5 -4 -4 -7 -2 -12 3 -12 6 0 11 7 11 15 0 8
-4 15 -8 15 -5 0 -9 7 -9 15 0 13 2 13 17 0 14 -13 17 -13 17 0 0 8 -4 12 -9
9 -16 -10 -8 9 10 22 16 13 16 14 -2 7 -13 -4 -17 -3 -13 4 4 6 1 14 -5 16
-10 4 -10 6 0 6 7 1 10 6 6 13 -4 7 -3 8 5 4 6 -4 9 -12 6 -17 -4 -5 -1 -9 4
-9 6 0 9 10 7 23 -2 12 -10 21 -17 19 -10 -3 -10 0 1 12 15 19 24 21 14 4 -5
-8 -1 -8 12 2 29 22 30 24 11 17 -15 -6 -17 -3 -12 14 5 14 3 19 -3 15 -6 -3
-14 -1 -18 5 -5 8 -3 9 5 5 8 -5 11 -2 9 9 -2 13 4 19 19 20 13 1 26 5 30 9 5
4 -1 6 -11 4 -10 -1 -21 3 -23 10 -3 7 4 12 17 12 12 0 18 4 15 10 -4 6 -10 8
-14 6 -3 -3 -7 4 -7 14 0 10 4 16 9 13 5 -3 7 3 5 12 -2 11 4 19 15 21 14 2
15 -1 8 -10 -6 -7 -8 -16 -4 -19 3 -4 1 -7 -5 -7 -7 0 -12 -5 -12 -12 0 -6 8
-3 20 7 11 10 17 22 14 26 -3 5 0 9 6 9 7 0 6 5 -2 14 -7 8 -17 11 -23 8 -11
-6 34 49 49 60 12 8 17 40 6 33 -5 -3 -11 -2 -14 3 -8 13 27 11 44 -2 13 -9
13 -9 3 5 -7 9 -9 20 -5 24 4 5 2 6 -3 2 -6 -3 -11 3 -11 13 0 15 4 17 19 8
13 -7 17 -7 13 0 -3 6 -3 12 1 15 5 2 1 2 -7 0 -8 -2 -11 -1 -7 3 4 4 1 14 -6
22 -10 13 -9 14 3 7 22 -14 39 -15 47 -3 3 6 2 8 -3 5 -6 -3 -16 -2 -24 4 -12
7 -10 9 8 9 13 0 21 4 17 9 -3 5 -1 12 5 16 6 4 8 10 5 15 -9 14 7 41 21 36 8
-3 13 0 11 6 -1 7 3 12 10 13 6 0 15 3 19 7 3 4 -3 5 -15 3 -12 -2 -19 0 -16
5 3 4 -1 11 -7 14 -7 3 -1 3 15 -1 22 -4 26 -2 21 11 -6 15 6 21 30 17 5 -1 4
4 -3 13 -8 9 -8 16 -2 20 6 4 7 14 4 23 -4 10 -2 14 5 9 6 -3 13 -2 17 4 8 13
-19 52 -31 42 -4 -4 -2 1 5 10 7 10 20 18 27 18 8 0 14 7 14 16 0 9 5 12 12 8
6 -4 8 -3 4 4 -3 6 -2 13 4 17 6 4 8 11 5 16 -12 19 -13 49 -2 46 6 -1 11 3
12 10 0 6 4 15 9 20 5 4 6 3 2 -4 -3 -6 -1 -15 6 -19 7 -4 10 -4 6 1 -4 4 -2
15 5 23 7 10 8 13 1 9 -7 -4 -14 2 -17 14 -5 17 -3 18 11 7 9 -7 13 -8 9 -2
-3 6 0 22 8 37 8 15 11 27 8 27 -3 0 2 9 13 21 10 11 14 20 9 19 -24 -5 -27 1
-9 16 18 15 18 15 -3 9 -13 -4 -23 -3 -23 2 0 5 10 9 21 10 12 1 27 7 33 14 8
9 8 10 0 6 -15 -9 -27 20 -12 29 7 4 8 3 4 -4 -4 -7 -2 -12 3 -12 6 0 11 6 11
14 0 8 10 22 22 30 12 9 17 16 11 16 -6 0 -19 -7 -27 -16 -12 -12 -20 -13 -33
-4 -16 10 -16 11 -1 6 19 -5 42 16 30 29 -4 5 -1 5 7 0 8 -4 17 -2 22 6 13 21
11 35 -3 21 -7 -7 -16 -12 -22 -12 -5 0 -2 6 8 13 9 7 16 19 14 27 -2 11 5 14
22 13 14 -1 19 0 13 3 -7 3 -13 10 -13 15 0 6 5 7 12 3 7 -4 8 -3 4 4 -4 7 -2
12 5 12 6 0 1 9 -12 21 -24 20 -24 20 -1 9 12 -6 22 -7 21 -3 -3 18 2 32 17
47 9 9 11 16 4 16 -6 0 -9 4 -6 9 4 5 0 12 -6 14 -10 4 -10 6 0 6 6 1 12 8 12
17 0 8 5 12 11 9 12 -8 -11 36 -26 48 -5 5 0 6 12 2 17 -5 21 -2 18 12 -1 10
2 23 7 30 6 7 5 14 -3 19 -7 4 -9 3 -5 -4 3 -6 2 -13 -4 -17 -6 -4 -7 -11 -4
-17 4 -7 2 -8 -5 -4 -9 6 -9 11 0 22 6 8 8 14 4 14 -5 0 0 9 10 20 18 20 18
21 -1 14 -17 -7 -17 -6 -5 9 9 12 10 17 2 17 -7 0 -9 5 -6 10 4 6 11 8 16 5 5
-3 6 1 3 9 -3 9 -10 13 -15 10 -5 -3 -6 2 -3 10 3 9 11 13 17 9 6 -3 7 -1 3 6
-4 6 -2 20 5 29 11 14 11 15 -1 5 -14 -13 -39 -19 -27 -7 3 4 2 15 -3 25 -7
12 -6 20 2 25 7 4 8 3 4 -4 -4 -7 -2 -12 4 -12 6 0 8 -5 4 -12 -4 -6 -3 -8 3
-5 16 10 3 57 -16 58 -12 0 -11 2 4 9 11 5 14 9 7 9 -10 1 -12 10 -7 34 4 23
3 28 -4 17 -8 -12 -10 -10 -8 8 1 16 6 21 18 17 10 -3 21 0 25 6 4 8 3 9 -4 5
-7 -4 -16 -5 -22 -1 -13 8 0 36 14 28 8 -4 8 -2 -1 7 -6 7 -9 19 -6 28 4 10 2
13 -5 8 -7 -4 -12 -3 -12 3 0 5 6 12 12 14 10 4 9 6 -1 6 -11 1 -11 4 -1 16 7
8 9 15 4 15 -4 0 0 6 10 13 16 12 16 14 2 14 -9 0 -16 -3 -16 -7 0 -3 -7 -15
-15 -26 -15 -17 -15 -16 -2 11 8 17 14 45 14 64 -1 23 4 36 13 38 12 4 12 3 1
-5 -9 -7 -10 -12 -2 -16 13 -9 12 -11 16 42 3 31 0 40 -8 35 -8 -4 -8 -1 1 9
7 9 9 18 5 20 -4 3 -3 3 4 2 20 -5 25 13 6 21 -16 5 -15 8 7 26 20 15 21 18 5
12 -18 -6 -19 -5 -5 12 11 14 12 17 1 11 -9 -6 -12 -5 -9 5 3 8 14 13 24 11
16 -2 16 -1 -3 10 -23 14 -20 31 7 41 11 4 11 6 -4 6 -17 1 -18 2 -1 27 9 15
12 23 6 20 -18 -11 -13 6 7 20 16 13 16 14 0 8 -12 -4 -18 -1 -18 10 0 9 5 16
10 16 6 0 10 5 10 11 0 6 -7 8 -17 5 -15 -6 -15 -4 2 14 10 11 15 23 12 27 -4
3 1 16 10 27 10 12 11 15 3 9 -8 -7 -21 -13 -29 -13 -11 0 -9 5 7 16 17 11 20
19 13 32 -6 11 -6 24 0 34 6 11 5 19 -2 24 -8 5 -9 3 -4 -6 5 -9 4 -11 -4 -6
-6 4 -9 11 -6 16 3 4 -1 11 -7 14 -7 3 -3 3 10 0 13 -3 22 -1 22 6 0 6 -5 8
-10 5 -7 -4 -9 3 -6 19 3 14 0 26 -5 26 -14 0 -11 30 4 30 6 1 1 7 -13 15 -14
8 -20 14 -15 15 6 0 12 14 13 32 2 18 10 41 20 51 13 15 13 18 2 15 -8 -2 -15
4 -15 12 0 8 -4 20 -8 27 -4 6 1 19 10 29 15 15 16 17 2 12 -12 -5 -16 0 -16
18 0 15 4 21 11 17 6 -3 8 -3 4 2 -4 4 -2 15 5 24 11 14 10 15 -7 1 -18 -14
-19 -13 -13 3 4 10 2 17 -5 17 -9 0 -9 3 0 12 16 16 15 31 0 22 -10 -6 -10 -5
-1 7 10 12 9 21 -2 42 -8 15 -10 25 -5 22 6 -4 10 -2 10 4 0 5 -4 12 -9 16 -9
5 -6 49 5 66 2 4 -3 14 -11 22 -18 18 -20 31 -3 21 6 -4 8 -3 4 4 -3 5 -3 12
1 15 5 2 2 2 -5 0 -8 -1 -12 3 -9 9 2 7 -3 22 -12 33 -15 18 -15 19 2 6 9 -8
20 -11 24 -7 3 3 1 6 -5 6 -7 0 -12 7 -12 16 0 9 -5 12 -12 8 -10 -6 -10 -4 0
7 14 16 16 33 2 24 -5 -3 -10 -3 -11 2 0 4 -2 16 -4 26 -2 9 1 15 6 11 5 -3 6
-10 3 -16 -5 -7 -2 -8 6 -3 10 6 9 12 -8 25 l-21 17 22 12 22 11 -22 -5 c-19
-5 -21 -2 -21 27 0 18 -1 35 -2 38 -9 25 -8 50 2 44 7 -4 8 -3 4 5 -6 9 -11 9
-22 0 -8 -6 -17 -9 -21 -5 -3 3 -1 6 6 6 7 0 9 5 6 10 -3 6 -1 10 6 10 7 0 4
7 -7 16 -10 8 -14 13 -8 10 6 -3 11 1 11 9 0 8 -4 12 -9 9 -4 -3 -8 2 -8 11 0
10 5 13 13 9 7 -4 8 -3 4 2 -5 5 -14 9 -20 9 -7 0 -13 5 -14 10 -1 6 4 9 12 7
7 -1 16 2 19 7 3 5 -2 8 -12 7 -9 0 -16 5 -15 12 2 6 -5 12 -15 13 -14 0 -14
2 3 9 11 5 14 9 6 9 -10 1 -11 4 -2 15 8 10 9 16 1 21 -5 3 -10 3 -10 -2 0 -4
-5 -1 -10 8 -5 9 -7 26 -5 38 3 19 2 21 -10 11 -12 -10 -13 -7 -5 21 5 17 7
29 3 25 -8 -7 -43 23 -43 37 0 6 6 2 14 -8 13 -18 14 -18 9 8 -3 15 -10 24
-16 20 -6 -4 -8 0 -4 10 5 13 1 17 -16 18 -21 0 -21 1 -2 9 18 8 18 9 -5 10
-14 1 -19 4 -12 7 9 3 7 10 -9 24 -14 12 -20 26 -16 39 3 11 2 18 -3 15 -8 -5
-25 23 -22 37 1 4 -6 5 -16 2 -14 -5 -13 -3 3 11 20 17 20 17 -5 10 -22 -7
-23 -6 -11 8 11 14 11 18 -3 23 -9 3 -13 10 -10 15 3 5 0 9 -6 9 -6 0 -8 5 -4
13 5 8 2 7 -9 -2 -15 -12 -17 -12 -11 4 5 12 4 16 -4 11 -7 -4 -9 4 -7 24 2
16 1 29 -3 29 -25 -4 -48 24 -43 54 1 5 -3 6 -9 2 -5 -3 -13 1 -16 9 -3 8 -14
18 -25 21 -10 4 -19 15 -19 26 0 11 -4 17 -10 14 -5 -3 -10 -1 -10 6 0 7 -8 9
-21 6 -16 -4 -18 -3 -8 9 6 7 16 11 22 7 6 -3 7 -1 3 5 -5 9 -13 9 -27 2 -19
-11 -20 -10 -23 10 -2 15 -28 30 -40 23 -5 -3 -6 -1 -2 6 4 6 13 9 19 5 7 -3
4 1 -5 9 -10 8 -15 17 -11 21 4 4 0 4 -9 1 -9 -4 -19 -1 -24 6 -5 8 -3 10 6 4
9 -6 11 -4 6 4 -6 9 -13 8 -29 -6 -12 -9 -16 -11 -9 -3 15 17 16 34 1 25 -6
-4 -9 0 -7 8 2 9 -1 16 -7 16 -5 0 -12 8 -16 18 -7 16 -8 16 -8 1 -1 -9 -5
-20 -11 -23 -6 -4 -7 1 -3 11 5 13 3 15 -8 9 -11 -7 -11 -5 1 10 9 11 10 16 3
11 -8 -4 -13 -2 -13 4 0 6 -4 9 -9 5 -5 -3 -12 -1 -16 4 -3 6 -13 7 -23 4 -15
-6 -15 -5 -3 10 12 15 12 17 -3 11 -9 -4 -16 -1 -16 6 0 7 -8 10 -19 7 -15 -4
-19 0 -16 14 3 16 1 17 -16 9 -14 -8 -19 -8 -17 2 2 7 -7 14 -19 16 -13 2 -23
8 -23 13 0 6 6 7 13 3 8 -5 8 -2 -2 9 -15 18 -26 23 -16 7 3 -5 -1 -10 -10
-10 -9 0 -14 4 -11 9 3 5 -1 11 -9 14 -10 4 -12 1 -8 -11 4 -10 -4 -5 -19 11
-25 27 -45 37 -32 15 4 -6 3 -8 -4 -4 -5 3 -12 3 -15 -1 -2 -5 -2 -2 -1 5 2 6
-1 12 -7 12 -6 0 -7 5 -3 12 4 6 3 8 -4 4 -5 -3 -13 0 -16 6 -3 7 -4 2 -1 -12
4 -22 3 -22 -10 5 -11 24 -14 26 -15 10 -1 -18 -2 -18 -11 -3 -5 10 -16 15
-24 12 -8 -4 -15 -1 -15 5 0 6 -5 11 -11 11 -5 0 -7 -6 -4 -12 4 -7 -4 -2 -16
12 -22 24 -22 25 -16 3 7 -31 -1 -29 -13 2 -8 21 -13 23 -32 16 -18 -7 -29 -4
-48 12 -14 12 -19 15 -12 7 15 -18 16 -38 1 -23 -6 6 -17 9 -24 7 -7 -3 -16 0
-21 7 -4 8 -3 10 4 5 8 -5 10 -1 5 10 -5 14 -7 15 -15 1 -5 -9 -15 -14 -23
-11 -8 4 -13 9 -11 13 8 13 -73 4 -90 -10 -16 -13 -16 -12 -5 9 7 13 10 26 7
30 -3 3 -6 0 -6 -7 0 -7 -5 -9 -12 -5 -6 4 -8 3 -5 -3 4 -6 0 -14 -10 -17 -19
-8 -55 22 -46 38 4 6 -1 5 -10 -2 -9 -8 -22 -10 -28 -6 -8 4 -9 3 -5 -4 4 -7
2 -12 -3 -12 -6 0 -11 5 -11 12 0 9 -3 9 -11 1 -9 -9 -17 -8 -34 3 -19 13 -25
13 -37 1 -11 -12 -16 -12 -26 -1 -13 14 -46 8 -36 -7 3 -5 -3 -6 -12 -2 -13 5
-15 3 -9 -8 7 -12 5 -12 -6 -1 -12 11 -12 14 1 22 8 5 10 10 5 10 -6 0 -21 -8
-35 -17 -22 -16 -23 -16 -17 1 4 9 3 15 -1 12 -5 -3 -24 -8 -42 -11 -19 -3
-40 -11 -47 -17 -11 -8 -12 -7 -7 8 7 18 7 18 -13 1 -21 -18 -22 -18 -32 0 -9
16 -10 16 -11 1 0 -9 -4 -19 -9 -22 -5 -3 -8 2 -7 10 1 21 -29 26 -45 8 -6 -8
-15 -11 -21 -8 -5 3 -16 0 -25 -8 -9 -7 -14 -8 -10 -2 3 6 0 11 -8 11 -8 0
-12 -3 -10 -6 2 -4 -8 -11 -21 -18 -13 -6 -22 -8 -19 -3 3 4 -6 7 -19 6 -13 0
-22 -4 -19 -8 2 -5 -1 -8 -7 -8 -6 0 -8 -5 -5 -10 10 -16 -18 -7 -32 10 -12
13 -12 13 -7 -1 5 -16 -11 -28 -50 -36 -16 -3 -17 -1 -6 12 10 12 15 13 20 4
5 -7 10 -8 14 -1 13 21 -20 18 -47 -4 -23 -19 -32 -22 -48 -14 -11 6 -19 7
-18 3 3 -20 -2 -27 -11 -13 -8 13 -10 13 -10 1 0 -11 -4 -9 -15 5 -15 19 -15
19 -8 -1 3 -11 3 -17 -2 -13 -4 4 -16 3 -26 -3 -15 -8 -17 -6 -12 8 4 12 -1
10 -16 -7 -12 -14 -20 -18 -16 -10 4 8 0 6 -9 -4 -8 -10 -13 -23 -9 -29 3 -6
1 -7 -6 -3 -6 4 -9 11 -7 15 3 4 -1 8 -9 8 -8 0 -12 -4 -9 -9 3 -4 0 -8 -6 -8
-6 0 -8 -4 -5 -10 8 -13 -7 -13 -23 0 -8 7 -9 7 -3 -1 5 -6 7 -18 4 -25 -4
-10 0 -12 13 -8 14 4 16 3 5 -4 -11 -8 -11 -10 0 -14 9 -3 8 -6 -5 -11 -9 -4
-15 -3 -11 2 3 5 1 12 -5 16 -5 3 -10 0 -10 -7 0 -7 -10 -2 -21 12 l-20 25 12
-25 c7 -14 17 -28 23 -32 8 -6 7 -8 -1 -8 -6 0 -15 5 -19 12 -5 7 -11 5 -21
-7 -7 -11 -13 -14 -13 -9 0 6 5 15 11 21 7 7 6 12 -6 17 -9 3 -14 2 -11 -3 3
-5 -1 -12 -10 -15 -10 -4 -13 -2 -8 7 6 9 4 9 -8 -1 -13 -10 -17 -10 -22 0 -3
7 -4 2 -2 -11 4 -18 2 -21 -7 -12 -14 14 -30 15 -22 1 4 -7 -3 -9 -19 -6 -14
3 -30 -2 -37 -10 -9 -12 -15 -12 -27 -2 -11 9 -10 4 3 -17 l19 -30 -21 18
c-20 17 -20 17 -18 -6 4 -32 -10 -55 -18 -32 -4 9 -3 13 3 10 6 -4 7 1 3 12
-6 14 -9 12 -20 -15 -13 -32 -31 -47 -19 -16 5 14 4 15 -9 4 -12 -10 -13 -16
-4 -27 10 -11 8 -12 -15 -3 -15 5 -25 6 -22 1 4 -5 0 -12 -6 -15 -7 -3 -2 -3
12 0 22 4 23 4 7 -6 -10 -7 -25 -9 -33 -6 -8 3 -14 -1 -14 -9 0 -8 -5 -15 -11
-15 -6 0 -8 8 -5 18 5 14 4 14 -9 -2 -8 -11 -15 -16 -15 -10 0 5 -7 1 -15 -10
-8 -10 -19 -15 -26 -10 -9 5 -10 2 -5 -11 6 -16 4 -16 -11 -4 -9 8 -14 9 -10
3 6 -11 -49 -42 -65 -36 -5 1 -8 -7 -8 -18 0 -11 -5 -20 -11 -20 -5 0 -7 6 -4
13 4 6 0 4 -8 -5 -8 -10 -17 -14 -22 -10 -4 4 -4 -3 -1 -15 5 -15 3 -23 -4
-23 -6 0 -9 4 -6 9 3 5 -1 11 -9 14 -10 4 -12 1 -8 -10 4 -10 2 -14 -5 -9 -6
3 -13 -3 -17 -14 -6 -19 -28 -29 -72 -33 -17 -1 -19 -4 -11 -14 5 -7 15 -10
21 -6 6 3 7 1 3 -6 -5 -7 -12 -9 -19 -3 -7 5 -21 12 -31 16 -16 6 -17 4 -6 -9
12 -14 10 -15 -13 -11 -19 3 -24 1 -21 -9 3 -8 -1 -12 -13 -12 -13 2 -18 -5
-17 -21 1 -21 -1 -21 -17 -6 -17 15 -18 15 -14 -6 2 -13 2 -20 -2 -16 -8 8
-33 -13 -33 -28 0 -6 5 -4 11 4 9 13 10 13 6 0 -2 -8 -10 -16 -18 -16 -8 -1
-18 -2 -22 -3 -4 0 -3 -11 4 -22 8 -15 8 -19 0 -15 -6 4 -14 -1 -18 -10 -4
-10 -2 -19 5 -22 7 -2 12 -8 12 -14 0 -7 -5 -7 -13 1 -8 6 -17 8 -21 4 -4 -4
-4 1 0 11 6 15 4 17 -6 11 -9 -6 -11 -4 -5 5 6 10 4 12 -9 7 -13 -5 -17 -3
-13 6 3 8 -1 14 -9 14 -7 0 -11 -4 -8 -9 3 -4 -2 -5 -10 -2 -9 3 -13 11 -9 18
3 6 1 6 -8 -1 -7 -7 -17 -13 -22 -13 -4 0 -5 6 -1 13 6 10 4 10 -7 0 -7 -7
-20 -13 -28 -13 -8 0 -26 -10 -39 -22 -14 -13 -22 -17 -18 -10 4 6 2 12 -3 12
-6 0 -11 -5 -11 -11 0 -5 -4 -7 -10 -4 -5 3 -10 1 -10 -5 0 -6 -4 -8 -10 -5
-5 3 -10 2 -10 -3 0 -5 -13 -12 -29 -14 -23 -3 -28 -1 -23 11 4 12 0 12 -16
-3 -12 -11 -22 -16 -22 -12 0 4 -10 2 -22 -4 -22 -11 -22 -10 -4 4 10 9 22 13
26 11 16 -10 19 25 4 40 -11 10 -12 15 -3 15 18 0 5 10 -19 15 -11 2 -31 9
-44 16 l-23 12 20 -20 c11 -11 28 -19 38 -17 14 2 15 0 7 -17 -12 -21 -22 -26
-14 -6 3 8 -4 13 -17 14 -17 2 -19 -1 -10 -10 14 -14 14 -27 0 -27 -5 0 -8 4
-4 9 11 19 -17 22 -38 4 -19 -15 -20 -16 -8 0 8 10 9 17 3 17 -6 0 -16 -8 -22
-17 -11 -17 -11 -17 -6 1 5 14 2 17 -10 12 -12 -5 -15 -2 -10 9 3 9 2 13 -4
10 -6 -3 -10 -15 -10 -25 0 -14 -5 -18 -17 -13 -11 4 -14 3 -9 -5 4 -7 2 -20
-4 -29 -11 -16 -11 -16 -6 -1 3 10 1 20 -4 23 -6 4 -10 1 -10 -5 0 -6 -5 -8
-12 -4 -10 6 -10 5 -1 -8 13 -15 8 -28 -11 -28 -6 0 -4 5 4 10 9 6 10 10 3 10
-16 0 -26 -17 -14 -24 7 -5 8 -20 2 -44 -1 -1 -11 3 -23 9 l-23 12 20 -23 20
-23 -23 12 c-22 12 -23 11 -18 -6 7 -23 -19 -28 -44 -9 -13 9 -13 8 -3 -4 27
-35 5 -101 -30 -93 -18 5 -20 3 -9 -8 6 -7 12 -17 12 -23 0 -5 -6 -1 -14 9
-19 26 -10 48 14 35 11 -6 21 -6 24 -1 8 13 -39 19 -61 8 -17 -10 -17 -9 1 11
15 17 22 19 38 11 11 -6 22 -8 26 -5 3 3 0 6 -8 6 -10 0 -10 3 -1 14 8 10 9
16 1 21 -6 4 -9 1 -8 -6 2 -7 -7 -14 -18 -15 -12 0 -27 -4 -33 -8 -7 -5 -10
-2 -9 6 2 7 -3 12 -9 10 -18 -3 -16 3 4 19 10 8 14 9 10 2 -4 -6 -4 -14 1 -17
5 -3 7 22 6 55 -3 42 0 58 8 53 6 -4 8 -3 4 4 -3 6 -15 9 -26 7 -19 -4 -19 -3
-3 20 10 12 21 21 25 19 4 -2 10 1 14 7 4 7 3 9 -3 6 -6 -4 -16 0 -23 8 -11
13 -10 14 5 9 14 -6 16 -4 10 7 -8 12 -6 12 9 0 15 -12 17 -12 14 0 -2 8 -7
17 -11 20 -10 7 2 39 15 39 6 0 5 -7 -2 -15 -11 -13 -10 -14 4 -9 19 7 21 25
4 42 -7 7 -9 12 -6 12 4 0 13 -6 20 -13 11 -11 16 -10 33 6 14 13 16 18 5 15
-8 -2 -18 -7 -21 -12 -4 -4 -9 -3 -13 2 -3 6 3 13 14 17 12 4 17 11 13 18 -4
7 6 4 22 -7 17 -10 24 -13 18 -5 -19 19 -17 45 1 30 12 -10 13 -8 9 8 -3 12
-1 21 4 21 5 0 15 16 22 35 7 19 16 33 20 30 12 -7 34 41 28 60 -6 13 -3 14
16 4 20 -11 21 -11 8 4 -12 15 -11 17 3 17 9 0 16 5 16 11 0 6 -8 8 -17 5 -15
-5 -15 -4 1 9 11 8 16 15 10 15 -5 0 -2 5 6 10 12 8 12 10 -5 11 -17 1 -16 2
5 9 21 7 22 8 5 9 -17 1 -17 3 -5 11 13 8 13 10 -1 10 -9 0 -16 7 -16 15 0 11
4 12 14 3 11 -8 12 -7 7 6 -3 9 -11 16 -18 16 -6 0 -4 5 4 10 13 9 13 10 0 10
-13 0 -13 1 0 10 12 8 12 10 1 10 -8 0 -11 7 -8 20 3 11 1 20 -4 20 -5 0 -9
-6 -9 -12 0 -8 -3 -9 -8 -3 -4 6 -16 17 -27 25 -11 8 -17 10 -13 6 13 -15 -24
-35 -44 -25 -19 10 -35 -5 -17 -17 8 -5 9 -3 4 7 -6 11 -5 12 5 2 19 -18 6
-27 -19 -13 -23 12 -45 5 -36 -11 4 -5 -1 -12 -9 -15 -9 -3 -13 -10 -10 -16 3
-5 13 -1 21 9 13 16 14 16 9 1 -3 -10 0 -20 6 -24 6 -4 8 -3 4 4 -3 6 -1 14 4
17 7 5 5 12 -7 21 -10 7 -13 14 -7 14 16 0 35 -25 26 -35 -4 -5 2 -5 13 -2
l20 7 -20 -15 c-11 -9 -19 -18 -17 -21 11 -17 -17 -35 -37 -24 -13 6 -29 9
-37 6 -9 -3 -12 -1 -9 4 3 6 16 10 27 10 20 0 20 1 5 18 -11 12 -13 22 -7 28
5 5 11 18 13 29 1 11 6 25 9 31 4 6 1 11 -7 12 -8 1 -21 3 -28 4 -17 2 -19 35
-3 41 7 3 13 -1 13 -9 0 -7 -5 -10 -11 -7 -6 3 -7 2 -3 -2 13 -15 40 -15 28
-1 -6 7 -8 15 -5 19 3 3 -4 10 -15 17 -15 8 -21 8 -21 0 0 -6 -5 -8 -11 -4
-14 8 9 24 26 18 6 -3 18 2 25 11 11 14 11 16 -1 13 -9 -2 -14 5 -13 20 1 26
-11 29 -26 5 -10 -16 -10 -16 -8 2 2 12 -2 19 -10 17 -8 -1 -11 2 -7 8 5 7 11
8 19 1 7 -6 17 -6 26 -1 13 8 12 10 -2 10 -18 0 -22 40 -3 40 5 0 3 5 -5 10
-8 5 -19 10 -25 10 -5 0 -3 -5 5 -10 8 -5 11 -10 7 -10 -22 0 -54 33 -54 55 0
14 3 25 8 25 4 0 6 -12 3 -27 -4 -23 -3 -25 10 -13 9 7 13 16 10 21 -3 5 3 6
13 3 13 -4 12 -1 -6 13 -17 15 -19 20 -7 20 9 0 16 -4 16 -9 0 -5 5 -6 10 -3
8 5 7 11 -1 21 -8 10 -8 14 0 14 6 0 11 -3 12 -7 0 -5 2 -16 4 -26 2 -9 -1
-14 -6 -11 -5 3 -9 2 -8 -3 3 -20 -2 -33 -12 -30 -6 1 -14 -4 -16 -11 -4 -10
1 -10 21 -1 14 7 24 17 23 22 -1 6 3 11 10 12 6 0 15 4 20 8 4 5 3 8 -2 7 -22
-5 -27 1 -15 16 11 13 10 19 -10 37 -12 12 -20 17 -17 11 3 -6 0 -11 -8 -11
-20 0 -19 13 1 21 9 4 23 1 32 -6 14 -12 14 -11 1 9 -14 23 -38 27 -51 8 -4
-5 -10 -6 -14 -2 -4 4 1 14 12 22 10 8 15 15 10 15 -5 0 -4 6 2 13 14 16 4 59
-12 50 -6 -3 -8 -3 -4 2 4 4 3 16 -3 26 -8 15 -6 21 8 26 10 4 24 14 31 22 11
14 11 13 2 -6 -6 -13 -17 -23 -25 -23 -9 0 -12 -6 -8 -15 5 -14 8 -14 22 -2 9
8 22 12 29 10 6 -3 12 0 12 7 0 6 -4 8 -10 5 -5 -3 -10 1 -10 10 0 9 4 14 9
11 5 -3 15 1 22 10 10 12 10 15 -2 12 -9 -2 -13 5 -11 20 1 15 -2 22 -10 19
-7 -2 -12 -10 -11 -18 3 -18 -39 -49 -75 -55 -14 -3 -24 -3 -21 1 4 3 17 8 29
10 24 5 63 35 55 43 -2 3 -11 -1 -20 -8 -9 -8 -15 -8 -15 -2 0 6 9 13 19 17
11 3 18 12 17 20 -3 22 -16 31 -16 12 0 -10 -5 -17 -10 -17 -7 0 -7 7 0 20 6
11 16 17 22 14 8 -5 9 -1 5 10 -5 11 -2 16 8 14 7 -2 13 2 12 7 -1 6 -10 10
-19 9 -9 0 -15 3 -12 8 3 4 0 8 -5 8 -6 0 -11 5 -11 11 0 5 5 7 10 4 6 -3 10
3 10 14 0 11 -5 23 -11 26 -5 4 -8 12 -6 18 2 7 0 20 -5 30 -5 10 -5 24 0 33
8 15 10 15 15 0 4 -10 3 -15 -3 -11 -6 3 -10 1 -10 -4 0 -6 4 -11 9 -11 6 0 8
-9 6 -19 -6 -32 17 -54 35 -33 13 14 12 15 -2 10 -22 -9 -31 2 -16 19 7 9 8
17 2 21 -13 9 -14 72 -1 72 6 0 8 3 5 6 -4 3 -15 1 -25 -4 -20 -11 -32 21 -12
33 5 4 6 -2 2 -11 -4 -11 -2 -15 4 -11 13 8 14 57 1 57 -5 0 -6 -6 -2 -12 5
-8 1 -8 -12 2 -29 22 -30 24 -14 18 8 -3 21 1 29 9 12 13 11 14 -7 8 -18 -5
-26 1 -43 29 -12 20 -24 36 -27 37 -4 0 -19 2 -35 4 -19 3 -25 0 -20 -8 4 -7
-1 -5 -12 3 -17 14 -17 13 -11 -10 6 -24 6 -24 -5 -3 -6 12 -18 24 -27 28 -12
4 -11 0 3 -22 15 -23 16 -26 2 -15 -9 8 -22 10 -29 6 -10 -5 -10 -4 -1 6 13
14 6 43 -8 34 -5 -3 -9 -2 -8 3 3 20 -2 27 -11 13 -6 -9 -10 -10 -10 -3 0 6 5
15 10 18 18 11 11 35 -7 29 -17 -5 -17 -5 0 6 19 12 23 30 6 30 -5 0 -7 -6 -3
-12 4 -7 3 -9 -1 -5 -14 12 -15 38 -2 31 7 -3 3 2 -7 10 -11 9 -15 16 -10 16
6 0 11 7 11 15 0 8 -4 15 -9 15 -4 0 -8 9 -8 19 0 10 -6 21 -12 23 -19 7 -39
-2 -32 -14 4 -7 2 -8 -5 -4 -9 6 -9 11 0 22 6 8 9 17 5 21 -3 3 -6 2 -6 -3z
m-86 -69 c-4 -11 -2 -13 9 -9 8 3 18 1 22 -5 4 -7 -1 -8 -12 -4 -15 5 -16 3
-6 -7 9 -10 10 -17 2 -27 -7 -7 -8 -13 -3 -13 5 0 2 -5 -6 -11 -13 -9 -13 -10
0 -6 8 2 14 8 13 13 0 5 6 15 14 23 13 12 14 11 8 -9 -4 -13 -3 -20 2 -17 5 4
10 0 10 -8 0 -8 -4 -12 -9 -9 -5 3 -15 -11 -24 -31 -8 -21 -19 -33 -26 -29 -7
5 -8 1 0 -11 12 -22 39 -28 39 -9 0 10 -4 11 -14 3 -9 -8 -13 -8 -13 -1 0 6 9
16 20 22 11 6 20 16 20 23 0 8 -4 7 -11 -3 -8 -12 -10 -12 -7 -1 2 8 11 15 20
17 11 1 14 -4 11 -17 -3 -10 -10 -19 -15 -19 -5 0 -6 -5 -3 -10 4 -6 10 -8 15
-5 5 3 12 0 16 -7 4 -7 4 -10 -1 -6 -4 4 -15 2 -23 -4 -19 -16 -52 -21 -52 -7
0 5 -4 7 -10 4 -6 -4 -7 1 -3 12 6 16 5 17 -12 3 -10 -8 -16 -10 -12 -4 4 7 0
15 -9 18 -9 4 -14 9 -11 13 4 3 13 1 21 -6 11 -9 15 -8 20 4 3 9 2 14 -2 11
-4 -2 -16 2 -27 10 -17 13 -10 19 17 15 11 -1 30 38 23 49 -4 6 -10 8 -15 5
-19 -12 -34 25 -17 43 14 13 17 14 17 2 1 -11 3 -11 11 3 12 21 20 23 13 2z
m-27 -653 c-28 -31 -15 -58 31 -67 12 -2 30 -9 41 -15 18 -9 21 -8 22 12 1 22
2 19 15 -20 2 -8 9 -10 16 -5 7 4 28 8 47 8 24 1 36 6 42 20 7 17 8 18 8 3 1
-10 6 -18 12 -18 5 0 8 4 5 8 -3 5 16 9 41 9 25 1 40 -3 33 -7 -6 -4 -11 -10
-11 -14 1 -3 -2 -5 -6 -3 -5 1 -7 6 -5 11 2 5 -7 5 -20 1 -13 -4 -31 -7 -40
-8 -13 -1 -16 -7 -12 -19 3 -10 0 -18 -6 -18 -6 0 -8 -5 -5 -10 4 -6 10 -8 14
-6 4 3 8 -2 8 -10 0 -11 -6 -9 -24 8 -22 20 -29 16 -24 -16 1 -5 -5 -6 -13 -3
-10 4 -13 1 -9 -9 3 -7 0 -14 -6 -14 -6 0 -11 -4 -11 -9 0 -5 8 -8 18 -6 9 1
16 8 14 15 -1 6 2 9 7 5 6 -3 8 4 6 16 -4 20 -3 20 14 5 17 -15 26 -50 10 -41
-4 3 -9 -1 -12 -9 -6 -16 11 -36 30 -36 16 0 11 -44 -5 -46 -25 -3 -27 -5 -12
-14 9 -6 11 -10 3 -10 -7 0 -11 -6 -9 -12 1 -7 1 -10 -1 -5 -3 4 -9 5 -14 1
-5 -3 -9 0 -9 5 0 6 4 11 9 11 4 0 8 10 7 23 -1 21 -46 60 -56 48 -3 -3 -15
-15 -27 -25 -32 -27 -28 -12 4 19 15 14 22 25 16 25 -7 0 -15 -5 -18 -10 -5
-8 -12 -7 -22 2 -14 11 -15 10 -10 -12 4 -14 4 -19 1 -12 -3 6 -10 10 -15 6
-5 -3 -8 0 -7 7 2 6 -3 14 -10 16 -8 3 -10 -2 -6 -14 5 -15 4 -15 -5 -3 -8 11
-7 18 4 26 8 6 12 14 8 17 -9 10 -33 -13 -33 -32 0 -20 39 -65 48 -56 4 3 0
10 -8 15 -10 6 -11 10 -3 10 7 0 17 -9 23 -19 9 -17 7 -19 -11 -16 -24 5 -67
47 -62 62 2 5 -4 10 -12 10 -9 0 -14 -6 -11 -14 4 -9 1 -11 -5 -7 -7 4 -10 1
-7 -7 3 -8 12 -13 21 -11 21 3 31 -16 18 -32 -6 -7 -9 -16 -6 -19 3 -4 3 -6 1
-4 -2 1 -4 5 -3 9 1 3 -14 22 -34 41 -30 30 -33 36 -20 45 14 10 14 12 1 22
-12 9 -10 10 10 4 22 -6 23 -5 11 10 -8 9 -11 19 -7 23 3 3 6 1 6 -6 0 -7 4
-9 10 -6 21 13 54 14 63 2 6 -9 7 -8 4 3 -3 10 -15 14 -36 13 -24 -1 -31 2
-28 11 3 8 -1 23 -8 34 -17 23 -9 35 15 22 13 -7 20 -5 24 6 4 11 2 15 -7 11
-8 -3 -20 -1 -28 4 -11 7 -11 9 -1 9 10 0 10 5 -2 21 -14 20 -13 23 7 40 28
24 35 24 14 1z"/>
<path d="M3030 9141 c-12 -23 -14 -42 -2 -24 5 9 12 6 21 -10 13 -20 13 -21
-2 -8 -10 7 -17 10 -17 5 0 -4 -9 2 -20 14 -12 12 -24 22 -27 22 -3 0 2 -9 11
-19 10 -11 15 -24 12 -30 -4 -6 3 -8 18 -5 25 4 52 -18 42 -35 -4 -5 -2 -12 4
-16 6 -4 8 -11 5 -16 -4 -5 -1 -9 5 -9 7 0 10 7 7 14 -4 10 -1 13 8 10 8 -3
14 -9 13 -12 -2 -19 4 -23 17 -12 15 13 11 35 -6 25 -5 -4 -9 -1 -9 4 0 6 6
11 14 11 8 0 18 5 22 11 4 8 -1 9 -16 4 -17 -5 -21 -4 -15 5 5 9 4 11 -3 6 -7
-4 -12 -2 -12 3 0 6 8 11 18 11 16 1 16 1 0 11 -10 5 -18 15 -18 21 0 6 7 5
17 -3 12 -11 17 -11 20 -2 4 10 7 10 18 0 7 -7 10 -16 7 -22 -3 -5 3 -2 14 7
10 9 23 17 27 16 12 0 22 12 11 13 -37 6 -76 4 -80 -3 -3 -5 -12 -4 -20 3 -8
6 -14 9 -14 5 0 -4 -13 0 -30 9 -27 14 -30 14 -40 -4z"/>
</g>
</svg>
