<?xml version="1.0" standalone="no"?>
<!DOCTYPE svg PUBLIC "-//W3C//DTD SVG 20010904//EN"
 "http://www.w3.org/TR/2001/REC-SVG-20010904/DTD/svg10.dtd">
<svg version="1.0" xmlns="http://www.w3.org/2000/svg"
 width="1024.000000pt" height="1024.000000pt" viewBox="0 0 1024.000000 1024.000000"
 preserveAspectRatio="xMidYMid meet">
<metadata>
Created by potrace 1.16, written by Peter Selinger 2001-2019
</metadata>
<g transform="translate(0.000000,1024.000000) scale(0.100000,-0.100000)"
fill="#000000" stroke="none">
<path d="M4906 9879 c5 -9 2 -10 -10 -6 -14 5 -15 3 -6 -13 11 -21 3 -30 -26
-26 -10 2 -25 -2 -33 -8 -11 -8 -13 -8 -7 1 4 7 2 21 -3 30 -6 10 -11 13 -11
6 0 -12 -17 -12 -37 0 -8 5 -11 1 -8 -13 3 -14 0 -20 -8 -17 -7 3 -11 10 -9
16 1 6 -3 11 -9 11 -6 0 -9 -7 -5 -15 4 -10 -1 -15 -14 -15 -11 0 -20 5 -20
11 0 5 6 7 13 3 6 -4 9 -3 4 1 -9 11 -48 14 -41 4 8 -14 -28 -41 -39 -30 -8 8
-18 4 -36 -12 -13 -12 -21 -16 -16 -8 6 11 4 13 -8 8 -9 -3 -19 -1 -23 5 -4 7
-3 8 4 4 7 -4 12 -2 12 3 0 14 -17 14 -25 1 -4 -6 -11 -7 -17 -4 -7 4 -8 2 -4
-5 4 -6 11 -9 16 -6 4 3 10 -1 13 -9 4 -11 0 -12 -23 -3 -19 7 -26 16 -23 26
4 13 3 14 -5 2 -6 -8 -8 -26 -6 -40 3 -20 2 -23 -6 -11 -5 8 -10 11 -10 6 0
-5 -10 -1 -21 10 l-22 19 13 -25 c10 -19 10 -22 0 -13 -7 6 -20 9 -29 6 -13
-5 -14 -3 -3 8 6 7 12 17 12 23 0 5 -11 -4 -25 -20 -19 -21 -24 -24 -19 -9 6
16 5 18 -7 8 -18 -18 -29 -16 -29 5 0 14 -2 15 -9 2 -6 -8 -8 -17 -6 -20 2 -3
-5 -6 -16 -6 -19 0 -19 1 -3 13 10 7 13 13 7 13 -7 0 -14 -4 -17 -9 -3 -5 -14
-8 -24 -6 -9 1 -11 0 -4 -2 6 -3 12 -9 12 -15 0 -6 -8 -7 -17 -3 -30 12 -54
14 -48 6 2 -5 -4 -11 -15 -14 -11 -3 -20 -1 -20 4 0 6 -6 4 -14 -3 -8 -7 -12
-17 -9 -23 2 -5 -2 -1 -11 9 -8 10 -13 23 -9 29 4 6 1 7 -6 3 -7 -5 -10 -14
-7 -22 7 -17 -10 -28 -20 -13 -5 8 -3 9 7 4 8 -5 10 -4 6 0 -10 11 -37 15 -37
6 0 -4 5 -12 11 -18 8 -8 7 -13 -2 -18 -8 -5 -10 -4 -5 3 8 13 -52 42 -71 34
-16 -5 -17 -32 -1 -32 6 0 9 -2 6 -5 -7 -8 -39 6 -34 14 3 4 -6 7 -19 7 -14 0
-27 -6 -29 -13 -4 -10 -1 -11 14 -3 15 8 18 7 15 -3 -6 -15 -45 -20 -45 -6 0
6 -8 6 -20 -1 -11 -6 -20 -8 -20 -4 0 3 -6 1 -13 -5 -8 -6 -16 -9 -18 -7 -2 2
-11 -3 -19 -12 -13 -14 -12 -15 3 -9 9 3 19 2 22 -3 3 -5 -8 -7 -25 -5 -22 3
-29 1 -25 -8 4 -7 -1 -3 -9 7 -14 17 -16 17 -16 3 0 -10 -5 -14 -14 -11 -8 3
-17 0 -21 -6 -6 -9 -10 -9 -17 1 -7 11 -9 9 -5 -6 3 -15 -1 -21 -14 -21 -11 0
-19 5 -19 10 0 13 -15 -3 -15 -17 -1 -13 -8 -13 -40 -1 -20 7 -20 7 0 -9 19
-15 19 -15 -8 -10 -15 3 -34 0 -42 -7 -8 -6 -19 -9 -25 -5 -5 3 -13 -1 -16
-10 -4 -9 -13 -14 -20 -11 -7 3 -16 0 -20 -6 -5 -7 -2 -8 6 -3 8 5 11 3 8 -6
-3 -8 -14 -15 -26 -15 -38 -2 -42 -4 -42 -15 0 -8 5 -8 15 1 10 9 15 9 15 1 0
-6 -3 -11 -7 -12 -5 0 -16 -2 -25 -4 -10 -2 -18 2 -19 8 0 7 -4 2 -10 -11 -5
-13 -13 -20 -19 -17 -5 3 -10 1 -10 -6 0 -6 -8 -9 -20 -6 -11 3 -23 0 -27 -5
-4 -7 -1 -8 7 -3 9 6 11 4 6 -4 -5 -7 -15 -10 -23 -6 -14 5 -14 3 -2 -11 13
-16 12 -16 -10 -5 -19 11 -22 11 -16 0 6 -9 3 -11 -9 -6 -10 4 -15 3 -11 -3 3
-6 1 -10 -5 -10 -6 0 -9 -4 -5 -9 3 -5 0 -13 -6 -17 -7 -4 -9 -3 -6 3 4 6 -1
17 -11 24 -9 7 -14 9 -10 5 13 -16 -13 -38 -28 -25 -14 11 -15 10 -18 -13 0
-6 -7 -13 -15 -16 -9 -3 -11 0 -6 9 5 8 4 11 -1 6 -9 -9 -10 -13 -13 -41 0 -7
-15 -19 -31 -26 -17 -7 -33 -17 -37 -23 -3 -6 -1 -7 5 -3 18 11 14 -2 -7 -23
-11 -11 -22 -17 -25 -14 -3 4 -6 -3 -6 -13 0 -22 -34 -64 -51 -64 -6 0 -7 -5
-3 -11 4 -8 9 -7 16 2 8 11 9 11 5 -1 -2 -8 -9 -16 -15 -16 -23 -3 -24 -4 -11
-21 13 -15 12 -15 -8 -5 -16 9 -24 9 -29 0 -4 -7 -3 -8 4 -4 24 15 11 -26 -15
-51 -16 -15 -22 -23 -15 -19 6 4 12 2 12 -3 0 -6 -5 -11 -11 -11 -6 0 -8 -7
-5 -16 5 -14 4 -15 -8 -5 -13 11 -15 9 -11 -8 2 -12 0 -21 -6 -21 -5 0 -8 -3
-8 -7 5 -29 -2 -53 -13 -47 -8 5 -7 0 2 -11 9 -11 10 -16 3 -11 -9 5 -13 0
-14 -13 -2 -33 -4 -39 -11 -47 -13 -12 -9 -26 5 -19 6 4 3 -1 -7 -9 -11 -9
-16 -16 -12 -16 5 0 2 -8 -5 -17 -12 -15 -12 -16 1 -8 13 8 13 7 1 -8 -10 -12
-10 -17 -2 -17 8 0 7 -6 -3 -16 -19 -18 -21 -38 -3 -29 6 4 3 -1 -7 -9 -11 -9
-16 -16 -11 -16 5 0 0 -7 -11 -15 -10 -8 -14 -15 -8 -15 11 0 12 -28 2 -45 -3
-6 -4 -20 -3 -32 1 -13 -3 -23 -8 -23 -5 0 -3 -8 4 -17 12 -15 12 -16 -6 -10
-20 7 -20 7 -1 -8 11 -8 14 -15 7 -15 -7 0 -9 -5 -6 -10 4 -6 1 -18 -7 -27 -8
-10 -8 -14 -1 -10 12 7 15 -20 14 -116 0 -22 3 -35 9 -32 14 9 12 -9 -2 -23
-8 -8 -8 -12 -1 -12 6 0 11 -12 11 -26 -1 -15 5 -30 12 -34 9 -6 9 -9 0 -15
-8 -5 -5 -15 12 -33 13 -14 17 -22 11 -18 -7 4 -13 2 -13 -3 0 -6 5 -11 11
-11 8 0 7 -6 -2 -17 -8 -9 -9 -14 -3 -10 7 4 14 0 18 -8 3 -8 0 -15 -7 -15 -8
0 -8 -3 2 -9 7 -5 10 -14 7 -20 -4 -6 0 -14 9 -17 12 -5 13 -9 4 -20 -10 -12
-9 -13 5 -8 11 4 16 1 16 -11 0 -10 -5 -13 -12 -9 -7 4 -8 3 -4 -5 4 -6 12 -9
17 -6 5 4 9 1 9 -5 0 -6 4 -9 8 -6 5 3 9 -1 9 -9 0 -8 -4 -12 -8 -10 -4 3 -9
-2 -12 -10 -4 -10 -1 -12 10 -8 11 4 14 2 9 -5 -5 -8 0 -12 14 -12 12 0 18 -5
15 -10 -4 -6 -11 -8 -16 -5 -14 10 -11 1 16 -35 14 -19 25 -29 25 -24 0 6 -5
15 -12 22 -7 7 -8 12 -2 12 6 0 16 -12 22 -26 7 -15 17 -22 24 -18 7 4 8 3 4
-5 -4 -6 -2 -19 6 -28 7 -9 12 -18 11 -20 -2 -1 -1 -3 2 -3 3 0 8 0 12 0 3 0
-2 9 -12 20 -10 11 -14 20 -9 20 13 0 45 -56 37 -64 -3 -3 -1 -6 6 -6 8 0 11
6 7 16 -4 10 -2 13 7 7 12 -8 17 -9 37 -12 6 0 10 -6 10 -12 0 -8 -5 -8 -15 1
-8 7 -15 8 -15 4 0 -22 39 -34 49 -16 9 14 10 14 11 2 0 -9 -5 -21 -10 -26 -7
-7 -6 -11 4 -11 8 0 13 4 10 9 -10 15 9 8 23 -9 8 -10 12 -13 9 -6 -4 6 -1 15
5 19 8 4 9 3 5 -4 -4 -7 -2 -12 5 -12 9 0 9 -3 0 -14 -10 -12 -8 -13 8 -9 13
3 21 1 21 -6 0 -7 -5 -9 -12 -5 -6 4 -8 3 -5 -3 4 -6 19 -8 34 -6 22 4 25 2
13 -6 -8 -6 -10 -11 -5 -11 6 0 17 6 24 13 11 10 12 7 6 -13 -3 -14 -3 -20 2
-14 13 17 53 24 46 8 -4 -10 3 -12 26 -9 17 2 33 0 36 -5 3 -5 24 -2 47 6 33
11 43 12 50 2 5 -9 8 -9 8 -2 0 7 7 14 14 17 9 4 13 1 10 -6 -3 -8 4 -13 16
-13 14 0 19 5 15 16 -3 8 3 5 13 -8 14 -18 20 -20 30 -10 9 9 12 9 12 -2 0 -9
5 -8 16 6 8 10 13 13 9 7 -5 -12 1 -15 21 -12 4 0 11 -5 15 -13 7 -10 9 -10 9
0 0 6 7 12 15 12 8 0 15 -6 15 -12 0 -9 4 -8 10 2 8 12 10 12 10 1 0 -11 3
-11 17 0 9 8 14 9 10 3 -4 -7 0 -14 8 -17 10 -4 12 -1 9 11 -2 9 1 7 7 -5 11
-21 13 -22 26 -5 12 16 13 16 7 0 -7 -21 6 -23 25 -5 11 10 12 9 6 -2 -6 -11
-4 -13 8 -8 9 3 20 0 24 -7 5 -7 15 -16 23 -19 12 -4 11 -6 -3 -6 -10 -1 -20
6 -23 14 -4 8 -10 12 -16 9 -12 -8 22 -33 46 -34 12 0 16 -5 12 -15 -3 -8 -1
-15 4 -15 6 0 10 8 11 18 0 13 3 11 10 -6 6 -17 16 -23 32 -20 24 3 61 -24 49
-36 -3 -4 1 -4 11 0 9 3 14 10 11 15 -3 5 2 6 10 3 9 -3 16 -11 16 -16 0 -6 8
-4 17 3 11 10 14 10 9 2 -4 -8 -1 -13 9 -13 9 0 14 -4 11 -8 -2 -4 6 -8 19 -8
13 0 21 4 19 8 -3 5 -10 5 -16 2 -7 -4 -8 -2 -4 4 7 12 36 5 36 -8 0 -8 29
-21 58 -26 10 -2 10 1 2 11 -7 8 -7 15 -1 19 5 4 12 -3 16 -14 4 -12 14 -19
23 -18 9 2 16 -1 15 -7 -1 -5 9 -11 22 -11 16 -1 22 3 18 11 -2 8 -10 12 -16
9 -7 -2 -18 5 -25 16 -7 11 -8 20 -3 20 5 0 12 -7 15 -16 3 -8 10 -13 15 -10
5 3 17 -6 26 -20 9 -15 12 -23 6 -20 -6 4 -11 2 -11 -3 0 -6 14 -11 30 -11 17
0 30 -5 30 -11 0 -7 12 -10 29 -7 17 2 30 2 29 -1 -2 -27 3 -31 24 -20 18 10
20 9 14 -6 -5 -15 -4 -16 9 -5 10 8 15 9 15 1 0 -6 5 -11 11 -11 5 0 7 6 3 13
-5 8 -2 8 9 -2 18 -15 23 -3 7 17 -7 9 -7 9 2 2 8 -7 18 -4 32 8 21 17 21 17
2 -6 -30 -35 -15 -31 21 6 26 27 29 32 11 27 -14 -5 -18 -4 -14 4 4 6 15 11
24 11 12 0 13 3 4 12 -9 9 -7 15 6 25 9 8 12 12 6 9 -7 -3 -15 1 -18 10 -9 24
-7 28 9 14 21 -18 19 -7 -5 20 -19 22 -19 24 -2 37 9 8 12 12 6 9 -16 -8 -39
20 -24 29 6 3 8 11 4 16 -3 5 -10 7 -15 4 -15 -10 -10 2 9 21 16 17 16 17 -6
11 -13 -3 -21 -3 -18 0 3 4 1 11 -4 18 -7 8 -5 12 5 12 8 0 12 -4 9 -9 -3 -4
2 -5 10 -2 16 6 23 25 9 23 -20 -3 -34 2 -28 11 3 6 1 10 -5 10 -8 0 -10 10
-6 28 6 26 6 26 -10 7 -14 -17 -16 -17 -10 -2 3 10 -1 29 -10 43 -16 23 -16
24 2 18 18 -6 18 -6 2 7 -10 8 -24 23 -33 34 -10 13 -13 15 -9 4 3 -10 -1 -19
-11 -23 -13 -4 -15 -1 -10 13 3 11 1 22 -5 26 -6 3 -7 11 -4 17 4 7 2 8 -5 4
-9 -6 -9 -11 0 -22 8 -10 8 -14 0 -14 -11 0 -15 12 -11 43 1 11 -7 21 -19 24
-12 3 -21 12 -21 21 0 13 -2 13 -13 -3 -11 -14 -16 -15 -22 -5 -5 9 -4 11 3 6
7 -4 12 -1 12 8 0 10 -6 13 -17 9 -12 -5 -14 -3 -8 8 7 11 5 11 -10 -1 -11 -9
-16 -10 -11 -2 4 7 1 12 -8 12 -27 0 -64 22 -69 41 -3 12 -11 16 -25 12 -11
-2 -23 1 -27 8 -5 8 -4 10 3 5 7 -4 12 -3 12 3 0 5 -9 9 -19 8 -11 0 -17 -5
-15 -9 3 -4 0 -8 -5 -8 -6 0 -11 5 -11 10 0 6 -15 9 -35 7 -27 -3 -33 -1 -25
8 17 20 -2 26 -23 8 -11 -10 -17 -13 -14 -7 8 14 -20 27 -36 17 -6 -4 -8 0 -4
10 4 12 2 14 -10 10 -12 -5 -14 -3 -8 7 5 8 4 11 -3 6 -5 -3 -13 0 -16 6 -3 7
-3 2 1 -12 5 -21 4 -23 -9 -13 -8 7 -18 10 -21 6 -4 -3 -7 -1 -7 5 0 6 -7 9
-15 6 -8 -4 -12 -11 -8 -18 3 -7 1 -6 -7 1 -12 11 -11 16 6 29 18 14 18 15 -4
4 -12 -6 -28 -8 -35 -4 -9 6 -9 5 0 -7 10 -13 10 -16 -2 -16 -8 0 -15 4 -15 9
0 4 -5 8 -11 8 -5 0 -8 -4 -4 -9 3 -5 0 -13 -6 -17 -7 -4 -9 -3 -6 3 4 6 -4
13 -18 15 -14 3 -22 1 -18 -5 3 -5 0 -7 -8 -5 -8 3 -13 13 -11 23 3 17 2 17
-13 2 -18 -18 -62 -6 -50 14 4 5 1 9 -5 9 -7 0 -9 -9 -5 -22 l7 -23 -16 22
c-10 13 -25 20 -40 19 -17 -2 -23 1 -19 11 3 8 0 13 -7 11 -7 -2 -15 4 -17 12
-4 12 -3 13 5 1 8 -11 12 -10 21 7 13 25 14 43 1 22 -5 -8 -12 -12 -15 -8 -3
3 1 12 8 20 13 13 12 16 -4 26 -12 8 -19 8 -19 2 0 -5 5 -10 11 -10 5 0 7 -4
4 -10 -3 -5 -10 -10 -14 -10 -12 0 -10 33 3 49 9 11 7 13 -13 6 -18 -5 -22 -4
-16 5 5 9 4 11 -3 6 -7 -4 -12 -1 -12 6 0 9 -3 9 -10 -2 -7 -11 -10 -12 -10
-2 0 9 -7 11 -21 7 -16 -6 -20 -4 -14 6 5 8 5 11 0 7 -4 -4 -15 -2 -23 5 -9 6
-13 7 -10 2 4 -6 -3 -17 -14 -24 -19 -12 -20 -11 -14 6 6 16 5 16 -9 -1 -11
-14 -15 -16 -15 -5 0 12 -2 12 -9 -1 -6 -8 -8 -17 -6 -20 2 -3 -5 -7 -16 -7
-10 -1 -19 2 -19 8 0 5 3 8 8 7 4 -2 8 0 10 5 2 8 -2 9 -24 0 -9 -3 -19 0 -24
6 -5 9 -9 6 -13 -8 -3 -12 -13 -21 -24 -20 -16 1 -17 2 0 6 9 2 15 9 11 14 -3
5 -9 7 -13 5 -4 -3 -8 1 -8 9 0 8 4 12 8 9 4 -2 6 14 5 36 -2 22 2 40 7 40 5
0 3 8 -4 17 -8 9 -9 14 -3 10 7 -4 11 4 10 22 -1 16 -5 27 -10 24 -5 -3 -7 0
-4 8 3 8 -1 20 -9 27 -14 15 -18 36 -5 28 5 -3 9 1 9 9 0 8 -4 12 -8 9 -4 -2
-13 5 -19 17 -8 15 -9 19 -1 15 14 -9 14 -4 1 29 -7 17 -7 24 0 20 6 -3 10 -2
10 2 0 5 7 18 16 29 15 18 15 18 10 0 -5 -15 -2 -15 19 5 13 13 25 30 25 37 0
7 4 11 9 7 5 -3 12 -1 16 5 4 6 11 7 17 4 8 -5 9 -1 5 10 -4 10 -3 15 4 11 5
-4 17 -1 26 7 14 11 16 11 8 -1 -5 -10 -4 -12 3 -7 7 4 12 15 12 24 0 15 2 15
10 2 8 -13 10 -13 10 2 0 9 5 20 12 24 7 5 8 3 3 -7 -8 -12 -6 -12 8 0 9 7 14
18 10 25 -4 6 -1 6 9 -2 13 -10 18 -9 29 5 12 14 12 16 0 8 -9 -5 -12 -4 -7 3
3 6 16 9 27 7 15 -3 23 3 31 25 6 19 14 27 21 23 7 -4 5 2 -3 12 -8 10 -10 16
-3 12 12 -7 26 7 29 31 1 6 -3 9 -9 6 -7 -3 -4 1 5 9 10 8 14 18 10 23 -4 4 1
2 11 -5 12 -10 17 -10 17 -1 0 6 6 10 13 7 6 -2 11 -13 10 -23 -1 -10 0 -13 3
-6 3 6 11 9 16 6 7 -5 8 -2 3 6 -6 10 -4 12 10 6 14 -5 15 -4 7 6 -8 10 1 13
44 12 31 -1 54 3 54 9 0 5 9 0 20 -13 11 -13 20 -18 20 -11 0 7 5 9 12 5 7 -4
8 -3 4 5 -4 6 -12 8 -18 5 -7 -4 -8 -2 -4 4 5 9 13 9 29 0 20 -10 21 -10 8 5
-16 20 -1 23 18 5 10 -11 11 -9 5 6 -5 13 -4 17 3 13 6 -4 17 1 24 10 10 12
10 14 2 9 -7 -4 -13 -3 -13 2 0 17 13 22 27 10 11 -8 12 -7 8 5 -4 8 -2 18 4
22 6 3 11 1 11 -4 0 -6 5 -11 11 -11 5 0 7 5 4 10 -3 6 4 10 15 10 14 0 24 8
27 21 4 16 8 17 14 7 7 -11 9 -11 9 1 0 8 6 11 16 7 8 -3 12 -2 9 4 -8 13 1
13 27 -1 12 -6 18 -7 14 -1 -3 5 6 18 20 27 22 14 28 15 35 4 7 -11 9 -11 9
-1 0 7 4 10 10 7 6 -4 7 1 3 12 -6 16 -5 17 12 3 17 -14 17 -13 11 10 -6 21
-5 22 4 8 6 -10 16 -18 21 -18 6 0 7 4 4 10 -3 5 3 17 14 27 22 18 55 27 45
12 -10 -16 8 -10 23 9 14 16 14 16 9 -1 -3 -11 -2 -16 4 -12 6 3 10 13 10 22
0 10 5 13 18 8 26 -11 72 -14 67 -4 -3 4 -15 6 -27 4 -11 -3 -17 -1 -14 3 13
12 51 8 64 -8 10 -12 11 -11 3 11 -8 23 -7 26 15 24 14 0 29 -7 34 -15 8 -13
10 -13 10 1 0 8 -6 21 -12 28 -11 11 -9 12 7 3 18 -9 21 -7 22 11 1 12 7 23
13 25 5 2 7 9 3 15 -4 7 2 5 12 -3 11 -9 16 -10 11 -2 -4 7 -2 12 6 12 10 0
10 2 -1 9 -11 7 -9 10 8 16 11 3 21 12 21 20 0 18 48 47 63 38 7 -4 6 1 -3 13
-8 10 -11 16 -6 12 5 -4 18 -2 30 4 11 7 24 12 28 13 3 0 10 4 15 9 5 5 2 6
-5 1 -11 -6 -12 -3 -3 14 7 11 14 21 17 21 3 0 2 -4 -1 -10 -3 -5 -1 -10 4
-10 17 0 26 4 24 11 -1 3 5 6 12 6 10 0 12 -4 5 -12 -17 -21 0 -56 24 -49 18
6 19 5 8 -8 -10 -12 -10 -18 2 -27 10 -8 16 -9 21 -1 4 7 13 5 28 -5 12 -8 32
-15 45 -15 13 0 21 -4 18 -8 -3 -5 7 -9 22 -10 15 0 39 -3 54 -5 20 -3 25 -1
20 11 -3 10 -1 13 6 8 7 -4 12 -14 12 -22 0 -8 5 -12 10 -9 7 4 6 14 -1 28 -9
21 -9 21 5 3 8 -10 20 -15 25 -11 6 3 14 -1 17 -9 3 -9 10 -13 16 -10 5 3 5
11 -2 19 -8 9 -8 15 0 20 6 4 10 3 9 -2 -4 -20 2 -24 19 -12 14 11 15 11 5 -1
-17 -18 -17 -38 -1 -22 16 16 31 15 22 0 -5 -8 0 -7 11 2 14 11 17 11 11 1 -7
-10 -4 -12 13 -6 17 5 20 3 14 -12 -4 -13 0 -11 14 6 15 18 20 20 20 8 0 -9
-5 -13 -10 -10 -6 4 -7 1 -2 -7 6 -10 11 -9 23 6 14 18 14 18 9 -3 -3 -13 -1
-26 4 -29 5 -3 9 -2 8 3 -1 4 -1 14 0 22 1 16 16 5 16 -11 0 -23 26 -19 33 3
l6 24 6 -25 c4 -17 12 -24 24 -22 12 2 16 -1 10 -9 -4 -8 -3 -10 4 -5 6 4 8
14 5 23 -4 11 -3 14 5 9 7 -4 12 -15 12 -24 0 -15 2 -15 10 -2 8 12 10 12 10
1 0 -11 3 -11 16 0 14 11 15 10 12 -6 -2 -14 3 -19 20 -18 40 2 43 3 36 16 -6
9 -5 9 8 0 8 -7 19 -9 23 -5 5 4 5 -1 2 -10 -8 -22 9 -33 27 -19 16 14 27 4
18 -17 -5 -15 -4 -16 13 -2 11 9 16 10 11 3 -4 -7 -2 -13 3 -13 6 0 11 5 11
12 0 6 3 8 6 5 4 -4 1 -14 -6 -22 -7 -9 -9 -15 -4 -14 24 4 45 -2 38 -12 -4
-7 2 -9 17 -7 23 3 46 -43 32 -65 -4 -6 -1 -7 6 -3 7 5 10 14 8 20 -3 7 -1 19
4 27 7 11 9 11 9 1 0 -8 5 -10 13 -6 8 5 7 2 -2 -10 -10 -12 -11 -20 -3 -28 6
-6 8 -18 5 -27 -4 -14 -3 -14 6 -1 8 11 11 12 11 2 0 -7 5 -10 10 -7 6 4 1 14
-12 26 -19 16 -20 18 -4 12 15 -5 17 -3 11 8 -4 8 -5 11 0 7 4 -4 15 -2 24 4
11 9 10 6 -2 -9 -11 -12 -14 -24 -9 -27 6 -3 8 -16 4 -28 -4 -18 -2 -20 16
-16 12 4 25 1 29 -4 3 -6 1 -8 -4 -5 -6 4 -14 0 -17 -9 -9 -23 -7 -28 7 -17
14 12 48 13 41 2 -2 -4 1 -9 7 -11 5 -2 7 -11 4 -20 -4 -9 -13 -14 -20 -12 -7
3 -16 1 -19 -4 -3 -5 9 -8 28 -5 24 2 36 -1 40 -13 3 -8 10 -13 14 -10 5 3 9
-1 9 -9 0 -8 -4 -12 -9 -9 -4 3 -8 1 -8 -4 0 -6 7 -12 15 -16 8 -3 15 0 15 6
0 6 3 8 6 5 9 -8 -15 -37 -30 -37 -6 0 -4 5 4 10 9 6 10 10 3 10 -13 0 -28
-19 -20 -26 3 -3 19 -7 37 -9 18 -3 35 -7 39 -11 3 -4 -7 -4 -22 -2 -18 4 -26
1 -24 -6 2 -6 12 -10 21 -10 13 2 14 -1 6 -11 -13 -15 31 -52 49 -41 5 4 13 1
17 -5 4 -8 3 -9 -4 -5 -16 10 -15 -6 1 -24 6 -8 2 -6 -10 4 -14 11 -23 14 -23
7 0 -6 -10 -10 -22 -8 -13 2 -17 2 -10 0 10 -4 10 -8 1 -19 -10 -13 -8 -13 15
-4 34 13 45 13 26 0 -13 -9 -12 -13 8 -30 13 -11 21 -24 18 -29 -4 -5 -2 -12
3 -16 6 -3 8 -12 5 -19 -3 -8 -1 -17 5 -20 16 -10 1 -36 -16 -29 -11 4 -14 2
-9 -5 4 -7 14 -12 23 -12 13 0 13 -3 3 -15 -11 -13 -10 -14 4 -9 12 4 15 13
10 28 -4 14 -3 18 4 11 6 -5 12 -21 14 -35 2 -14 7 -30 11 -37 4 -6 3 -14 -3
-18 -16 -10 -12 -23 8 -27 14 -3 13 -5 -6 -10 -12 -3 -20 -3 -17 2 2 4 -5 16
-18 26 l-22 19 20 -24 20 -24 -20 6 c-19 7 -19 6 -2 -7 11 -8 27 -13 38 -11
10 2 22 -1 25 -7 5 -7 2 -8 -6 -3 -10 6 -12 4 -7 -8 4 -11 -2 -25 -16 -39
l-22 -22 27 17 c23 14 26 15 22 2 -5 -11 -1 -14 12 -9 11 3 15 2 9 -3 -22 -18
-35 -61 -20 -67 9 -3 12 0 8 10 -3 7 -1 14 5 14 6 0 9 -8 8 -17 -2 -10 -8 -18
-14 -18 -6 0 -14 -4 -19 -9 -5 -5 -3 -6 5 -2 6 4 12 2 12 -4 0 -6 5 -8 12 -4
7 4 8 3 4 -5 -4 -6 -11 -9 -16 -6 -9 6 -21 -20 -13 -29 4 -3 11 -6 17 -6 6 0
4 5 -4 11 -13 9 -13 10 0 6 8 -2 15 -8 15 -13 0 -5 3 -14 7 -20 8 -13 0 -24
-16 -24 -6 0 -5 4 2 9 11 7 10 9 -3 14 -9 4 -13 3 -10 -2 3 -5 1 -12 -5 -16
-19 -12 -10 -26 13 -20 15 4 18 4 8 -3 -8 -6 -10 -15 -6 -22 5 -9 4 -11 -3 -6
-17 10 -15 -6 5 -34 15 -22 15 -23 1 -12 -11 9 -18 10 -23 2 -3 -5 -1 -10 4
-10 6 0 11 -4 11 -10 0 -5 -8 -7 -17 -4 -11 4 -14 3 -7 -3 19 -15 24 -43 9
-50 -12 -4 -13 -9 -5 -18 8 -10 7 -16 -6 -23 -16 -9 -16 -12 -4 -27 11 -14 11
-16 -1 -13 -8 2 -13 -3 -11 -10 1 -8 -2 -11 -8 -7 -8 5 -7 12 2 22 12 15 11
15 -10 2 -12 -8 -18 -15 -12 -17 12 -4 13 -32 1 -32 -5 0 -8 -11 -7 -25 2 -14
-1 -22 -7 -18 -5 3 -8 0 -5 -8 2 -7 -7 -24 -21 -37 -14 -14 -18 -19 -8 -12 15
11 17 10 13 -11 -2 -13 -9 -23 -15 -21 -6 1 -11 -1 -12 -5 0 -5 -2 -16 -4 -26
-2 -9 1 -15 5 -12 5 3 12 0 16 -6 4 -7 3 -9 -4 -5 -6 3 -15 -8 -22 -29 -7 -22
-16 -33 -23 -28 -7 4 -5 -2 3 -12 14 -17 13 -18 -4 -12 -17 7 -17 6 -5 -10 9
-11 10 -14 2 -9 -8 4 -13 1 -13 -8 0 -9 -5 -16 -11 -16 -6 0 -9 -7 -5 -15 3
-8 -4 -21 -17 -30 -12 -8 -17 -15 -12 -16 6 0 1 -4 -10 -9 -15 -6 -16 -9 -4
-9 17 -1 21 -63 4 -78 -4 -4 -5 -2 -1 5 4 6 3 12 -2 12 -6 0 -12 -7 -16 -15
-3 -8 -1 -15 4 -15 5 0 6 -8 3 -17 -5 -12 -8 -13 -11 -4 -3 8 -9 6 -19 -8 -8
-12 -11 -26 -8 -31 3 -6 -1 -10 -9 -10 -9 0 -13 -6 -10 -15 4 -10 0 -13 -16
-10 -13 2 -20 2 -16 -2 3 -3 0 -13 -7 -21 -8 -11 -8 -14 0 -9 6 4 15 3 18 -3
4 -6 3 -10 -2 -9 -26 4 -38 -1 -23 -11 13 -8 13 -10 -2 -10 -10 0 -15 -6 -13
-12 3 -7 -4 -24 -15 -38 -11 -14 -20 -19 -20 -12 0 6 -5 12 -12 12 -9 0 -9 -3
0 -12 7 -7 12 -21 12 -32 0 -18 -2 -19 -11 -6 -9 12 -10 11 -6 -7 3 -13 -1
-24 -9 -27 -8 -3 -14 -9 -13 -13 4 -22 -2 -43 -10 -38 -5 3 -12 1 -15 -4 -4
-5 -1 -13 5 -17 8 -5 9 -3 4 6 -5 8 -4 11 3 6 6 -4 9 -13 6 -21 -4 -8 -9 -13
-13 -10 -4 2 -8 -2 -8 -10 0 -8 3 -12 7 -10 4 2 7 -2 7 -10 0 -8 -4 -12 -8
-10 -9 6 -21 -24 -14 -35 3 -5 0 -12 -6 -16 -8 -4 -9 -3 -5 4 4 7 5 12 1 12
-12 0 -22 -45 -12 -58 7 -9 6 -11 -6 -6 -12 4 -15 0 -13 -20 2 -15 -1 -23 -7
-19 -6 4 -8 0 -4 -9 3 -9 -3 -25 -14 -37 -11 -12 -15 -21 -9 -21 5 0 10 -5 10
-11 0 -5 -3 -8 -7 -6 -5 3 -9 -6 -10 -20 -1 -20 1 -23 9 -12 7 11 9 9 5 -8 -8
-36 34 -52 72 -28 10 5 12 4 7 -3 -5 -8 -2 -10 8 -6 9 3 13 11 10 16 -4 6 1 6
13 0 22 -12 73 26 73 54 0 8 4 13 9 9 6 -3 8 6 5 21 -3 15 -1 23 5 20 11 -7 9
13 -2 32 -6 8 -2 12 10 12 12 0 14 3 6 8 -7 5 -9 13 -3 21 4 8 6 20 3 28 -3 8
3 23 13 35 11 12 13 18 7 14 -16 -9 -17 10 -2 19 6 4 8 13 5 21 -3 9 1 14 12
15 10 0 12 3 5 6 -7 2 -13 9 -13 14 0 6 6 7 13 3 8 -5 8 -2 -2 9 -12 15 -9 21
10 19 4 -1 3 14 -1 34 -6 28 -5 36 9 44 13 6 17 19 15 44 -2 19 1 38 7 41 5 4
6 11 3 17 -4 7 -2 8 5 4 8 -6 9 -12 2 -20 -8 -9 -7 -13 4 -13 7 0 14 3 13 6
-4 40 4 63 19 57 10 -4 14 -4 10 0 -4 4 -2 13 4 20 7 8 6 14 -2 20 -7 4 -9 3
-6 -3 3 -5 0 -10 -8 -10 -11 0 -12 3 -3 14 6 8 17 12 25 9 7 -3 13 -1 13 5 0
6 5 7 12 3 6 -4 8 -3 4 4 -3 6 -1 14 5 17 5 4 8 13 5 20 -3 8 5 16 20 19 13 4
24 12 24 18 0 9 -3 9 -12 0 -7 -7 -17 -12 -22 -12 -6 0 1 8 14 17 14 10 28 17
32 16 4 -2 4 5 1 14 -4 11 -3 14 6 9 8 -5 14 -1 18 13 3 11 9 18 14 15 8 -5
14 18 10 39 -1 5 3 6 9 2 5 -3 10 -1 10 4 0 6 15 25 33 43 23 23 27 29 12 25
-19 -7 -19 -6 -2 7 9 7 17 18 17 25 0 6 5 11 11 11 6 0 8 7 5 16 -4 12 -2 15
9 10 8 -3 15 -1 15 4 0 6 -5 10 -12 10 -15 0 0 15 15 15 7 0 11 8 11 18 -2 15
7 21 26 19 3 0 6 8 6 18 0 11 -6 16 -16 13 -8 -3 -5 2 8 12 13 10 21 23 18 32
-3 8 -1 11 4 8 6 -3 10 0 10 8 0 8 7 18 16 21 8 3 12 10 9 16 -3 5 -2 10 3 10
6 0 9 13 8 30 -2 22 1 27 10 19 8 -6 14 -6 18 0 3 5 0 12 -6 14 -10 4 -10 6 0
6 7 1 10 6 7 11 -3 6 -1 10 6 10 8 0 8 4 -1 15 -11 13 -10 14 4 9 12 -5 16 0
16 19 0 14 8 31 18 36 13 8 14 11 2 11 -11 0 -10 3 4 11 15 9 16 13 5 20 -10
6 -10 9 -2 9 7 0 10 7 6 17 -5 11 -3 14 6 8 10 -6 11 -3 2 13 -8 15 -8 23 1
28 7 5 8 3 3 -6 -6 -9 -4 -11 4 -6 7 5 10 10 8 13 -3 2 -1 18 3 34 5 16 5 27
1 25 -4 -3 -8 2 -8 10 0 9 6 13 14 10 9 -4 11 -2 6 7 -10 16 -10 37 -1 65 5
15 4 21 -2 17 -6 -3 -10 1 -10 10 0 9 4 14 9 11 5 -4 8 2 6 11 -2 10 -4 22 -4
26 -1 5 -5 6 -10 2 -5 -3 -12 -1 -15 4 -4 5 -1 13 5 17 8 5 9 3 4 -6 -5 -8 -4
-11 2 -7 14 9 6 88 -10 115 -5 7 -3 12 4 12 7 0 4 6 -7 14 -10 8 -16 18 -11
22 4 4 7 2 7 -4 0 -7 5 -12 11 -12 8 0 9 4 0 13 -6 8 -8 17 -4 21 4 4 -1 4
-11 0 -16 -6 -17 -5 -6 15 6 13 9 25 6 29 -3 3 -6 -1 -7 -9 0 -8 -4 -4 -9 9
-5 12 -6 30 -3 39 5 12 3 14 -7 8 -10 -6 -11 -4 -4 6 12 20 14 40 3 33 -5 -3
-7 -10 -4 -15 4 -5 2 -9 -4 -9 -6 0 -8 12 -4 32 4 22 3 29 -6 24 -6 -4 -10 -3
-9 3 2 5 -6 17 -17 26 -19 16 -19 16 4 4 21 -10 23 -9 18 6 -4 9 -7 19 -7 21
0 3 -6 2 -12 -2 -8 -5 -7 0 2 11 8 10 10 16 4 12 -11 -6 -31 54 -25 76 1 5 -3
6 -8 2 -6 -3 -8 -12 -4 -20 3 -8 1 -15 -4 -15 -11 0 -11 71 1 89 6 10 6 12 -2
7 -7 -4 -12 -2 -12 5 0 8 -4 8 -15 -1 -9 -7 -18 -10 -22 -6 -3 3 -2 6 4 6 6 0
13 7 17 15 6 16 -49 72 -65 68 -16 -5 -10 15 7 21 10 4 13 2 8 -6 -5 -7 -3 -8
6 -3 9 5 11 4 6 -3 -5 -8 -1 -10 9 -6 23 9 -17 36 -42 29 -11 -3 -9 -1 5 6 12
7 22 18 22 26 0 11 -5 14 -25 13 -7 -1 -35 27 -35 35 0 3 10 1 23 -5 22 -11
22 -11 2 5 -11 9 -27 21 -35 26 -11 8 -12 11 -2 15 6 3 12 10 12 16 0 6 -6 6
-15 -2 -14 -12 -20 -7 -16 14 4 20 -25 25 -49 9 -24 -16 -24 -15 -11 1 12 15
12 19 -4 34 -17 16 -17 16 -12 -1 4 -11 3 -16 -4 -12 -5 4 -7 16 -3 27 4 13 2
18 -4 14 -6 -3 -14 -1 -17 5 -11 17 3 23 20 9 9 -7 15 -8 15 -2 0 6 -6 13 -12
15 -10 4 -9 8 2 17 13 9 12 10 -5 8 -14 -2 -19 2 -17 14 2 13 -2 16 -15 12
-17 -5 -17 -5 -1 8 15 13 15 15 -3 26 -12 8 -17 18 -12 25 5 9 3 9 -8 1 -30
-23 -50 -25 -39 -4 12 22 1 27 -19 8 -11 -11 -11 -9 -2 9 7 14 8 24 1 28 -9 6
-14 -1 -11 -17 0 -4 -6 -5 -14 -2 -12 5 -12 10 -3 27 11 22 10 22 -10 4 -13
-12 -22 -15 -27 -7 -3 5 -10 8 -14 6 -4 -3 -8 1 -8 9 0 13 4 12 19 -2 11 -9
18 -11 18 -5 0 7 -5 12 -11 12 -5 0 -8 4 -5 9 4 5 -5 8 -18 7 -30 -4 -53 8
-37 18 6 4 11 2 11 -4 0 -6 4 -9 10 -5 5 3 2 14 -7 25 -9 10 -20 17 -25 14 -7
-5 -12 8 -10 27 1 3 -6 6 -14 7 -7 1 -21 3 -29 4 -11 1 -12 5 -4 15 9 9 7 14
-5 19 -9 3 -13 11 -9 17 3 5 1 7 -5 4 -5 -4 -8 -17 -6 -30 3 -16 1 -15 -7 6
-6 15 -15 27 -20 27 -6 0 -8 -4 -5 -9 4 -5 -2 -8 -11 -6 -10 2 -22 4 -26 4 -4
1 -3 10 3 20 15 29 12 39 -5 17 -18 -24 -20 -14 -4 17 11 21 11 21 -7 6 -20
-17 -44 -15 -44 3 0 6 6 6 15 -2 8 -7 15 -8 15 -4 0 5 -9 15 -21 22 -12 8 -18
9 -14 3 11 -19 -10 -12 -35 11 -15 14 -22 17 -18 7 4 -9 1 -16 -7 -16 -8 0
-11 7 -7 15 4 12 0 14 -16 10 -21 -6 -39 7 -41 27 -1 6 -9 10 -18 10 -10 0
-29 8 -42 17 -13 10 -29 14 -35 10 -17 -10 -37 -11 -30 -1 3 5 10 6 16 3 7 -4
8 -2 4 5 -4 6 -12 9 -17 6 -5 -4 -12 1 -15 9 -3 9 -10 13 -15 10 -5 -3 -9 0
-9 5 0 6 -6 11 -12 11 -7 -1 -3 -9 10 -19 12 -11 22 -22 22 -26 0 -4 -6 -2
-13 4 -8 6 -18 7 -22 3 -5 -4 -5 -1 -1 6 4 7 1 15 -8 18 -9 3 -13 11 -10 18 3
6 -3 0 -14 -13 -13 -16 -21 -20 -26 -12 -4 6 -20 10 -34 8 -15 -2 -39 2 -53 9
-21 11 -26 11 -26 -1 0 -8 4 -12 8 -9 4 2 10 0 13 -5 4 -5 -2 -8 -11 -6 -10 2
-24 4 -30 4 -7 1 -13 6 -13 12 0 5 5 7 12 3 7 -5 8 -3 3 6 -6 10 -11 9 -21 -5
-14 -19 -50 -13 -38 6 5 8 3 9 -5 5 -7 -5 -10 -15 -6 -23 4 -13 3 -13 -9 -4
-8 6 -18 11 -22 10 -29 -5 -36 1 -23 19 10 13 10 15 0 5 -10 -8 -21 -7 -45 8
-30 18 -32 18 -32 0 0 -10 6 -18 13 -18 7 0 10 4 7 9 -3 4 2 5 11 1 14 -5 14
-8 3 -15 -10 -8 -9 -9 4 -4 11 3 15 1 12 -8 -3 -7 -11 -13 -19 -13 -8 0 -12 4
-9 8 2 4 0 10 -6 14 -5 3 -10 0 -10 -7 0 -8 -5 -6 -11 5 -8 14 -14 16 -25 6
-12 -10 -13 -9 -8 6 5 13 4 16 -4 11 -7 -4 -12 -2 -12 3 0 14 6 14 31 1 10 -6
19 -8 19 -6 0 3 -14 13 -31 22 -21 10 -29 11 -23 3z"/>
<path d="M5135 6770 c-4 -6 -12 -7 -18 -3 -8 5 -8 2 0 -9 13 -15 8 -28 -9 -28
-5 0 -6 5 -2 12 5 7 3 8 -5 3 -9 -5 -10 -10 -2 -18 7 -7 15 -6 27 4 11 9 15 9
10 2 -4 -7 -2 -23 4 -35 9 -19 9 -21 -2 -8 -7 8 -22 16 -33 18 -18 3 -18 2 3
-13 16 -12 20 -20 13 -28 -11 -14 11 -51 24 -39 5 4 5 1 1 -5 -10 -18 -11 -17
-34 19 -20 31 -20 31 -19 6 1 -15 5 -24 8 -22 8 5 22 -24 23 -46 0 -8 5 -18
11 -22 6 -5 6 -8 -2 -8 -7 0 -10 -10 -7 -24 2 -14 -1 -28 -6 -31 -7 -4 -9 3
-6 19 3 15 1 24 -5 21 -5 -4 -9 -1 -9 6 0 7 -3 10 -6 6 -3 -3 -2 -12 2 -19 12
-18 11 -42 -1 -50 -6 -5 -6 -8 1 -8 7 0 10 -13 9 -30 -1 -16 1 -28 5 -25 4 3
6 18 5 35 -1 16 1 27 6 24 5 -3 9 0 9 7 0 7 3 9 6 6 4 -4 3 -12 -3 -19 -13
-19 -9 -44 7 -40 11 3 11 0 0 -12 -7 -9 -20 -16 -29 -16 -13 0 -14 -2 -1 -9 8
-6 18 -7 24 -4 5 3 6 1 2 -6 -4 -6 -13 -8 -19 -4 -7 4 -5 -2 3 -12 9 -11 10
-16 3 -11 -7 4 -13 2 -13 -3 0 -6 4 -11 8 -11 5 0 9 -18 9 -40 0 -22 -4 -40
-9 -40 -5 0 -6 4 -3 10 4 6 -1 7 -11 3 -12 -4 -14 -8 -6 -11 10 -3 10 -7 0
-20 -9 -10 -9 -13 -1 -9 15 9 14 -35 -2 -45 -19 -14 -29 -8 -10 5 14 11 15 16
5 22 -8 5 -11 4 -7 -2 4 -6 0 -14 -9 -17 -13 -5 -14 -9 -4 -21 10 -12 16 -13
29 -3 14 11 14 11 3 -4 -8 -9 -20 -14 -27 -11 -10 3 -13 -1 -10 -15 3 -16 -1
-20 -20 -17 -21 2 -23 -1 -14 -16 8 -15 6 -19 -7 -19 -10 0 -14 -5 -10 -15 3
-8 1 -15 -4 -15 -6 0 -10 -6 -10 -14 0 -9 -7 -13 -20 -11 -17 3 -19 1 -10 -15
8 -16 7 -18 -4 -14 -8 3 -17 0 -21 -5 -3 -6 -11 -8 -17 -5 -7 4 -8 2 -4 -5 5
-7 13 -9 20 -4 7 4 3 0 -7 -9 -11 -10 -23 -16 -27 -13 -5 3 -11 1 -14 -4 -4
-5 -1 -13 5 -17 8 -5 9 -3 4 6 -5 9 -4 11 4 6 6 -4 9 -12 5 -17 -3 -5 -10 -7
-15 -4 -5 4 -9 -2 -9 -12 0 -14 -2 -15 -9 -4 -6 9 -11 10 -15 2 -4 -6 -4 -11
-1 -11 3 0 0 -6 -7 -14 -7 -8 -16 -12 -20 -9 -5 2 -8 -1 -8 -6 0 -6 5 -11 12
-11 6 0 8 -3 5 -6 -4 -4 -15 -1 -24 7 -10 7 -15 10 -11 5 9 -11 -14 -35 -27
-28 -5 3 -3 -3 5 -13 14 -17 14 -18 -9 -6 -15 8 -21 9 -17 2 4 -6 0 -18 -8
-27 -12 -12 -16 -12 -17 -2 0 7 -4 3 -10 -10 -5 -13 -13 -21 -18 -17 -5 3 -12
-3 -16 -14 -3 -11 -13 -25 -22 -33 -14 -11 -16 -11 -8 1 5 10 4 12 -4 7 -7 -5
-9 -16 -5 -28 4 -14 2 -18 -5 -14 -6 4 -11 0 -11 -11 0 -14 -2 -15 -9 -5 -6
10 -13 3 -25 -25 -9 -21 -15 -27 -12 -15 4 22 3 23 -13 8 -10 -9 -21 -13 -26
-9 -4 5 -5 2 -1 -5 4 -7 13 -9 19 -5 7 4 6 0 -2 -10 -7 -9 -17 -14 -22 -11 -5
3 -9 2 -8 -3 4 -26 -1 -38 -11 -23 -8 13 -10 13 -10 -2 0 -12 -5 -15 -17 -11
-16 6 -16 4 -5 -9 12 -14 10 -16 -10 -11 -13 3 -20 2 -16 -2 4 -4 -6 -21 -22
-37 -17 -15 -30 -33 -30 -39 0 -5 -4 -7 -10 -4 -5 3 -10 1 -10 -5 0 -6 -4 -9
-9 -6 -4 3 -8 -4 -7 -17 1 -13 -5 -22 -14 -22 -8 -1 -14 -7 -12 -14 1 -7 -1
-11 -5 -8 -10 5 -43 -29 -36 -37 3 -3 -4 -4 -15 -1 -16 3 -19 0 -15 -12 5 -13
2 -15 -11 -10 -10 4 -15 3 -11 -3 3 -6 1 -10 -5 -10 -6 0 -8 -5 -4 -11 4 -7 1
-10 -6 -7 -15 5 -50 -25 -50 -42 0 -5 -6 -10 -14 -10 -8 0 -17 -7 -20 -16 -3
-8 -10 -12 -16 -9 -6 3 -7 0 -4 -9 4 -10 -3 -20 -20 -27 -14 -7 -26 -18 -26
-25 0 -8 -6 -11 -15 -8 -11 5 -13 2 -9 -10 4 -10 1 -16 -9 -16 -8 0 -18 -7
-21 -16 -3 -8 -10 -12 -16 -9 -5 3 -7 0 -4 -8 3 -8 0 -18 -7 -23 -8 -5 -10 -3
-4 7 5 8 -3 4 -17 -8 -13 -13 -29 -23 -35 -23 -6 0 -14 -7 -17 -16 -3 -8 -10
-13 -15 -9 -6 3 -15 -4 -21 -15 -6 -11 -15 -18 -20 -15 -6 4 -7 -1 -3 -11 4
-12 3 -15 -5 -10 -8 4 -12 0 -12 -11 0 -15 -2 -16 -10 -3 -8 13 -10 12 -10 -2
0 -10 -5 -18 -11 -18 -5 0 -8 -4 -5 -9 3 -5 -1 -11 -8 -14 -8 -3 -17 -1 -20 6
-4 7 -4 2 -2 -10 3 -14 -1 -23 -9 -23 -7 0 -16 -7 -19 -16 -3 -8 -10 -12 -16
-9 -6 4 -7 -1 -3 -11 5 -13 3 -15 -7 -9 -10 6 -12 4 -7 -8 4 -10 2 -16 -6 -14
-7 1 -11 -4 -9 -12 2 -9 -3 -11 -14 -7 -15 6 -15 4 -3 -11 11 -14 12 -15 0 -9
-8 5 -17 3 -22 -5 -4 -8 -14 -14 -21 -14 -7 0 -11 -9 -10 -20 2 -11 0 -17 -4
-12 -4 4 -22 -13 -39 -38 -18 -24 -36 -41 -41 -37 -4 4 -2 -2 6 -12 10 -13 10
-17 3 -12 -8 4 -13 1 -13 -9 0 -9 -4 -13 -10 -10 -6 4 -7 -1 -3 -11 5 -13 3
-15 -8 -9 -12 7 -12 6 -1 -7 10 -13 10 -17 -3 -22 -9 -3 -14 -10 -11 -15 3 -5
-1 -11 -9 -15 -8 -3 -15 -13 -15 -21 0 -10 -5 -13 -12 -9 -8 5 -9 2 -5 -9 3
-10 2 -17 -4 -17 -6 0 -7 -6 -3 -12 5 -9 2 -8 -9 1 -15 12 -17 12 -11 -2 3
-10 -2 -21 -15 -29 -12 -7 -21 -18 -21 -24 0 -6 -8 -18 -17 -25 -14 -12 -16
-12 -8 0 6 10 4 12 -4 7 -7 -5 -10 -14 -7 -22 3 -8 0 -13 -7 -11 -7 1 -11 -6
-9 -17 2 -10 -1 -15 -6 -12 -6 3 -13 -1 -16 -10 -3 -8 -11 -12 -17 -8 -7 4 -9
3 -6 -3 4 -6 0 -16 -9 -23 -8 -7 -12 -20 -9 -28 5 -13 3 -13 -12 -1 -11 9 -14
10 -9 1 4 -7 1 -15 -8 -18 -9 -3 -13 -10 -10 -15 3 -5 0 -9 -6 -9 -6 0 -8 -5
-4 -12 5 -7 2 -9 -9 -5 -11 4 -14 2 -10 -9 3 -7 0 -14 -6 -14 -6 0 -8 -8 -4
-17 3 -10 3 -15 -1 -11 -10 8 -36 -14 -29 -24 2 -5 -1 -8 -7 -8 -6 0 -8 -4 -5
-10 3 -5 2 -10 -4 -10 -6 0 -7 -7 -4 -17 4 -11 3 -14 -5 -9 -7 4 -12 1 -12 -8
0 -9 -5 -16 -12 -16 -6 0 -9 -3 -5 -6 3 -3 -2 -14 -11 -25 -9 -11 -18 -24 -18
-29 -1 -6 -2 -15 -3 -21 0 -5 -5 -8 -10 -5 -5 3 -12 -1 -15 -10 -4 -10 -2 -13
7 -8 6 4 2 -3 -10 -15 -13 -12 -23 -28 -23 -36 0 -8 -9 -19 -21 -25 -11 -7
-18 -14 -15 -17 3 -3 -5 -14 -17 -25 -12 -11 -16 -16 -9 -13 11 6 12 3 3 -14
-7 -11 -16 -21 -22 -21 -6 0 -8 -4 -4 -9 3 -5 -2 -17 -11 -25 -11 -12 -12 -16
-2 -16 10 0 11 -2 0 -8 -17 -11 -55 -82 -48 -90 3 -3 0 -12 -7 -20 -10 -13 -9
-14 3 -8 8 4 4 -2 -10 -14 -21 -19 -22 -21 -5 -16 19 6 19 5 3 -7 -10 -8 -15
-17 -11 -20 3 -4 0 -7 -7 -7 -7 0 -10 -3 -7 -7 4 -3 1 -13 -6 -21 -10 -13 -9
-15 3 -8 13 7 13 6 0 -6 -8 -7 -15 -20 -15 -28 0 -8 -6 -14 -13 -12 -8 1 -11
-2 -7 -8 4 -6 1 -18 -7 -27 -11 -14 -11 -16 2 -8 12 6 13 5 3 -6 -7 -7 -13
-24 -13 -37 0 -16 -4 -21 -12 -16 -10 6 -10 5 -1 -7 10 -12 10 -18 1 -27 -9
-9 -9 -12 0 -12 9 0 10 -5 2 -19 -7 -13 -7 -22 0 -26 5 -3 10 -11 10 -16 0 -6
-4 -7 -10 -4 -5 3 -10 1 -10 -4 0 -6 4 -11 8 -11 5 0 9 -7 9 -15 0 -8 -4 -12
-9 -9 -4 3 -8 0 -8 -5 0 -6 6 -11 13 -11 8 0 9 -3 1 -8 -6 -4 -10 -24 -10 -44
1 -21 -3 -38 -8 -38 -7 0 -8 -3 -1 -8 6 -4 11 -13 13 -21 2 -11 0 -12 -10 -4
-10 9 -13 6 -14 -13 -1 -13 3 -24 10 -24 6 0 4 -5 -4 -10 -13 -9 -13 -11 0
-20 13 -8 13 -10 -2 -10 -14 0 -16 -4 -8 -25 6 -16 6 -27 -2 -31 -7 -4 -8 -3
-4 4 4 7 2 12 -3 12 -14 0 -14 -17 -1 -25 6 -4 7 -12 3 -18 -10 -16 -9 -49 2
-66 6 -10 4 -12 -4 -6 -9 5 -12 1 -9 -12 2 -11 -4 -28 -12 -38 -13 -17 -13
-18 0 -10 13 8 13 6 2 -8 -8 -9 -10 -22 -6 -28 4 -7 3 -9 -2 -6 -6 3 -15 -3
-22 -13 -9 -14 -9 -21 0 -26 6 -4 8 -3 4 4 -3 6 -2 13 3 16 5 4 8 -2 6 -11 -2
-10 -4 -22 -4 -26 -1 -5 -7 -5 -13 -1 -8 5 -7 0 2 -11 8 -10 10 -16 4 -12 -21
12 -35 -40 -16 -60 16 -16 16 -17 0 -10 -10 3 -20 2 -23 -3 -4 -6 -2 -10 2
-10 5 0 9 -9 9 -19 0 -11 -4 -17 -8 -15 -4 3 -8 -4 -8 -15 0 -18 -33 -38 -53
-33 -5 1 -6 -2 -2 -8 4 -7 13 -7 26 1 12 6 23 8 26 5 3 -3 -2 -8 -11 -12 -13
-5 -14 -9 -5 -20 10 -12 8 -13 -6 -8 -13 5 -16 4 -10 -5 6 -10 3 -11 -13 -2
-13 7 -23 7 -27 1 -3 -5 -13 -6 -22 -3 -11 4 -14 3 -9 -6 4 -6 -2 -29 -13 -51
-14 -27 -17 -41 -9 -46 6 -4 8 -3 5 2 -3 6 -1 16 4 24 10 16 3 -45 -7 -62 -3
-4 2 -5 11 -1 15 5 15 3 4 -15 -7 -11 -17 -18 -23 -15 -5 3 -6 1 -2 -6 6 -9
11 -9 21 -1 11 9 11 3 0 -39 -9 -34 -9 -49 -2 -44 6 4 8 0 4 -10 -3 -10 -2
-17 3 -17 6 0 10 -5 10 -11 0 -5 -4 -8 -8 -5 -7 4 -8 -16 -3 -44 1 -3 6 2 11
10 6 9 10 10 10 3 0 -6 -5 -15 -12 -19 -7 -5 -5 -11 7 -21 17 -12 17 -13 2
-13 -9 0 -17 -5 -17 -11 0 -5 5 -7 12 -3 7 4 8 3 4 -4 -4 -6 -2 -20 4 -31 7
-13 7 -22 0 -26 -6 -4 -8 -11 -4 -16 4 -6 11 -5 20 2 13 10 14 8 10 -14 -4
-21 -1 -25 12 -20 15 6 15 5 3 -11 -8 -9 -10 -16 -5 -15 18 3 37 -1 31 -8 -4
-3 -2 -12 5 -20 9 -11 7 -12 -7 -7 -15 6 -16 5 -4 -14 7 -12 20 -23 29 -26 11
-3 10 -4 -3 -5 -10 0 -15 -6 -12 -11 4 -6 10 -8 14 -6 4 3 5 -11 3 -31 -4 -27
-1 -34 8 -28 8 5 11 4 6 -3 -3 -5 0 -13 6 -16 7 -4 2 -4 -12 -2 -24 5 -24 4
-6 -9 11 -8 25 -15 30 -15 6 0 4 -5 -4 -10 -13 -9 -13 -11 0 -20 10 -6 11 -10
3 -10 -7 0 -13 -5 -13 -11 0 -5 4 -8 9 -5 5 3 12 -1 15 -10 3 -8 2 -13 -2 -10
-4 2 -9 -4 -9 -15 -1 -10 5 -19 13 -19 8 0 14 -5 14 -11 0 -5 -4 -8 -9 -4 -5
3 -13 1 -16 -5 -4 -6 -1 -9 6 -8 7 2 16 -10 19 -27 4 -16 11 -39 15 -49 7 -15
5 -18 -6 -12 -8 4 -2 -3 12 -16 21 -18 25 -28 19 -44 -11 -28 6 -56 20 -34 7
11 8 5 3 -19 -5 -28 -4 -32 8 -25 9 5 8 -1 -4 -20 -18 -27 -18 -27 2 -17 25
14 39 -4 14 -18 -19 -11 -7 -16 26 -12 7 2 10 -2 6 -8 -3 -6 -13 -11 -21 -11
-10 0 -9 -5 6 -20 11 -11 20 -26 20 -32 0 -9 4 -8 10 2 5 8 10 11 10 5 0 -25
-18 -38 -24 -17 -4 11 -14 26 -22 33 -11 9 -10 3 4 -23 11 -20 18 -39 14 -43
-4 -4 4 -2 17 5 13 6 21 7 17 2 -3 -6 -3 -12 1 -15 5 -2 3 -2 -4 -1 -7 2 -15
-2 -19 -8 -4 -7 -3 -8 4 -4 11 6 30 -18 30 -39 0 -5 6 -11 14 -13 9 -2 8 0 -2
7 -12 8 -11 10 7 8 16 -1 19 -5 12 -13 -7 -8 -6 -14 3 -18 7 -3 2 -4 -12 -1
-14 3 -20 2 -13 -1 7 -3 9 -13 6 -22 -4 -13 -3 -14 5 -3 8 11 11 9 17 -8 3
-11 13 -21 20 -21 8 0 17 -5 21 -11 4 -8 -1 -9 -17 -5 -13 3 -18 3 -11 0 6 -3
12 -10 12 -15 0 -6 -6 -7 -12 -3 -10 5 -10 4 -1 -6 16 -17 53 -23 53 -9 0 5 5
7 11 3 8 -4 3 -12 -12 -20 -13 -7 -18 -13 -11 -14 6 0 12 -8 12 -17 0 -15 2
-16 10 -3 6 9 5 17 -3 23 -8 6 -7 7 4 4 9 -3 21 -1 27 5 6 6 12 6 17 -1 3 -6
3 -10 -2 -9 -7 3 -15 -7 -12 -14 10 -34 7 -47 -9 -41 -9 3 -5 -4 11 -16 15
-13 25 -26 22 -31 -3 -4 4 -6 15 -3 11 3 20 9 20 14 0 5 4 9 9 9 5 0 8 -8 7
-17 -4 -26 25 -45 44 -30 13 11 13 10 1 -6 -11 -13 -17 -15 -28 -6 -7 7 -16 9
-20 5 -3 -3 -1 -6 6 -6 7 0 9 -5 5 -12 -4 -6 -3 -8 4 -4 6 3 18 -1 27 -10 15
-16 16 -16 13 2 -2 12 2 18 11 16 9 -2 11 3 7 15 -6 14 -5 16 5 5 10 -9 10
-15 1 -24 -21 -21 -14 -35 18 -30 30 4 41 -10 18 -24 -6 -4 -8 -3 -5 3 3 5 0
10 -8 10 -8 0 -11 -5 -8 -10 4 -6 -1 -8 -11 -4 -9 4 -15 3 -11 -2 3 -6 13 -9
23 -9 9 0 25 -3 35 -7 14 -6 16 -4 10 11 -6 15 -3 15 17 -4 18 -17 26 -19 32
-10 6 10 8 10 8 1 0 -7 7 -10 18 -7 13 5 14 4 3 -4 -8 -6 -9 -12 -3 -16 6 -3
13 -2 17 4 3 5 11 10 18 10 6 0 2 -6 -9 -14 -14 -11 -22 -12 -32 -3 -20 16
-48 19 -33 4 7 -7 17 -12 24 -12 7 -1 11 -7 9 -14 -2 -10 4 -9 23 3 26 17 27
17 43 -6 9 -12 17 -26 17 -30 0 -3 4 -10 9 -15 5 -5 6 -3 2 4 -5 8 -1 13 10
13 10 0 14 3 10 7 -4 5 -12 8 -17 8 -17 0 -14 18 3 21 10 1 16 -3 15 -9 -1 -7
4 -11 11 -9 10 2 10 -2 2 -17 -7 -14 -7 -22 2 -27 6 -4 8 -3 4 4 -3 6 3 17 14
25 11 7 18 17 15 20 -3 4 -2 4 3 1 4 -3 7 -11 7 -17 0 -7 14 -12 31 -11 31 1
40 -14 20 -33 -4 -4 -6 -2 -4 6 2 7 -3 16 -10 18 -7 3 -12 1 -11 -4 4 -21 -2
-33 -16 -33 -9 0 -12 -6 -8 -17 4 -10 2 -14 -4 -10 -6 4 -13 0 -17 -8 -3 -8
-1 -17 5 -21 14 -8 -10 -36 -25 -27 -6 3 -3 -3 6 -14 10 -11 18 -25 18 -32 0
-9 5 -7 16 3 17 18 28 21 19 6 -3 -6 1 -13 9 -16 9 -3 14 -9 12 -13 -3 -4 4
-7 14 -7 10 0 16 4 14 8 -3 4 0 8 5 8 6 0 11 -5 11 -11 0 -6 7 -3 16 5 20 20
30 21 14 1 -15 -18 1 -20 18 -3 7 7 12 8 12 4 0 -5 7 -3 16 4 12 11 15 11 12
0 -2 -8 2 -14 7 -15 6 0 15 -4 22 -8 6 -4 15 -2 19 4 4 7 3 9 -3 6 -6 -4 -13
-1 -16 6 -3 7 4 12 18 12 13 0 21 -5 18 -11 -2 -7 1 -15 8 -20 8 -5 10 -3 4 6
-6 10 -4 12 10 6 16 -6 16 -4 4 10 -13 16 -12 16 10 4 21 -11 23 -10 18 4 -3
8 -1 18 5 22 6 4 8 3 4 -4 -3 -6 -2 -13 4 -17 6 -4 7 -11 4 -17 -4 -7 -2 -8 5
-4 6 4 8 13 4 19 -4 7 6 3 22 -7 25 -16 28 -17 16 -3 -8 10 -11 21 -7 24 4 4
11 1 15 -6 7 -11 9 -11 13 0 4 12 8 12 22 0 13 -11 20 -11 28 -3 17 17 92 16
82 0 -5 -9 -3 -9 9 1 19 15 12 35 -9 27 -22 -9 -16 0 14 20 26 17 27 17 12 -1
-14 -17 -13 -18 3 -12 11 4 16 3 12 -3 -3 -5 -1 -18 5 -27 10 -17 10 -16 8 2
-2 14 2 20 15 18 12 -1 17 4 13 14 -3 8 -1 11 4 8 6 -3 10 -13 10 -21 0 -8 4
-14 10 -14 5 0 7 8 3 17 -6 16 -4 16 16 -2 16 -14 22 -15 19 -5 -2 10 3 14 15
12 9 -2 17 1 17 7 0 10 -19 9 -37 -2 -8 -5 -13 -4 -13 2 0 6 5 12 10 12 6 1
14 2 19 3 5 0 12 4 16 8 4 4 16 2 26 -5 14 -9 21 -9 31 2 10 11 10 12 1 7 -7
-4 -13 -2 -13 4 0 7 6 10 13 7 6 -2 11 -11 11 -20 -1 -13 2 -14 16 -7 9 5 21
6 25 2 5 -4 5 -1 1 6 -5 8 -3 13 5 11 25 -3 40 1 35 9 -3 5 1 9 9 9 8 0 12 -4
9 -9 -3 -4 0 -8 5 -8 6 0 11 6 11 13 0 7 3 8 8 2 8 -11 64 -16 57 -5 -3 4 5
10 16 13 12 3 18 10 15 16 -4 5 -2 12 3 16 6 3 8 -3 6 -15 -2 -11 0 -20 6 -20
5 0 9 9 9 20 0 14 5 18 18 13 15 -6 15 -5 4 10 -12 14 -11 16 8 12 13 -2 25
-7 28 -10 3 -2 11 0 18 6 9 7 19 7 36 -2 22 -12 22 -11 8 6 -14 17 -14 18 8 6
26 -14 30 -4 5 14 -14 11 -11 12 22 9 22 -3 46 -6 53 -9 6 -2 12 0 12 6 0 6 4
8 9 5 5 -3 16 5 25 18 12 19 12 26 3 30 -6 2 -3 4 8 3 11 -2 26 -6 33 -10 6
-5 18 -5 25 0 19 12 47 14 47 4 0 -6 -9 -8 -20 -6 -12 2 -18 0 -15 -6 4 -5 10
-7 15 -4 4 3 11 -1 13 -7 4 -10 6 -10 6 0 1 7 5 10 11 7 6 -4 7 1 3 11 -5 14
-2 16 15 12 15 -4 19 -2 15 8 -3 8 -10 11 -17 7 -6 -3 -3 3 7 15 11 11 16 25
13 30 -3 5 1 9 9 9 17 0 15 -18 -4 -33 -11 -9 -12 -12 -1 -19 8 -5 11 -4 7 2
-4 6 -1 13 7 16 17 7 15 53 -3 49 -7 -1 -9 2 -6 8 5 8 13 6 25 -5 17 -15 19
-15 29 2 8 15 10 12 6 -14 -2 -18 1 -36 7 -39 6 -4 8 -2 4 4 -3 6 -2 13 4 17
5 3 10 0 10 -7 0 -9 3 -9 10 2 8 13 11 12 23 -4 10 -14 16 -16 21 -7 6 9 11 9
24 -1 10 -8 13 -9 9 -1 -4 6 -3 14 2 17 5 4 12 2 16 -4 9 -15 27 -1 21 16 -4
10 3 14 25 14 21 0 28 -4 24 -12 -4 -7 -1 -6 7 2 20 22 59 24 52 2 -4 -10 -3
-13 3 -6 4 6 20 10 35 9 28 -2 33 12 10 30 -11 9 -10 14 5 26 16 12 17 12 7
-1 -8 -11 -6 -19 8 -32 10 -10 18 -13 18 -7 0 5 4 8 9 4 5 -3 12 -1 16 5 4 6
10 8 14 5 5 -2 13 7 19 20 10 21 8 27 -11 40 -12 8 -16 15 -10 15 6 0 16 -7
23 -15 7 -8 17 -12 24 -8 6 4 5 -1 -3 -10 -8 -10 -11 -20 -7 -24 3 -3 6 -1 6
6 0 7 5 9 12 5 6 -4 8 -3 5 2 -8 14 7 35 29 38 10 2 18 9 17 15 -3 9 34 17 60
12 5 -1 6 3 2 8 -3 6 -12 8 -19 5 -8 -3 -16 -1 -20 4 -3 5 8 8 23 7 18 -1 32
5 40 17 9 14 8 18 -1 18 -10 0 -9 3 1 9 7 5 22 6 33 3 11 -3 24 1 30 9 8 11 9
10 4 -3 -3 -10 -1 -18 4 -18 6 0 9 -6 7 -13 -1 -6 7 -12 18 -12 11 0 26 -4 34
-9 9 -6 12 -5 7 2 -3 6 -2 13 4 17 6 4 8 10 5 15 -3 5 3 11 14 15 11 3 22 13
25 21 5 12 2 15 -9 10 -9 -3 -13 -2 -10 4 3 6 1 10 -6 10 -7 0 -10 3 -7 6 9 8
49 -16 43 -26 -3 -4 -2 -15 1 -23 5 -14 8 -13 23 1 15 16 15 18 -4 34 -11 10
-15 17 -7 18 6 0 12 -4 12 -10 0 -5 6 -9 12 -7 21 4 36 30 34 58 -1 15 2 26 6
23 4 -3 8 -12 8 -20 0 -8 7 -14 15 -14 8 0 15 5 15 11 0 6 7 8 16 5 8 -3 13
-2 10 3 -3 5 1 12 10 15 10 4 14 12 10 22 -6 15 -4 15 11 3 11 -9 14 -10 9 -1
-4 7 -1 15 8 18 9 3 13 11 9 18 -4 6 1 5 10 -3 15 -12 17 -11 17 3 0 9 5 15
12 13 7 -1 13 5 14 13 2 29 4 31 25 19 13 -7 19 -7 15 -1 -3 6 4 14 16 18 l21
6 -24 14 -24 14 24 -3 c28 -2 38 28 14 42 -10 5 -14 15 -9 26 5 13 2 16 -9 11
-10 -3 -13 -2 -10 5 4 6 13 8 21 5 8 -3 14 -1 14 4 0 6 -6 10 -12 10 -7 0 -2
7 11 16 17 12 26 13 34 5 8 -8 8 -11 -1 -11 -7 0 -11 -3 -11 -7 3 -20 -2 -33
-12 -30 -6 1 -14 -5 -16 -13 -4 -13 -3 -13 7 0 10 13 11 13 7 -2 -7 -19 19
-33 29 -16 4 7 3 8 -4 4 -7 -4 -12 -1 -12 9 0 9 5 13 10 10 6 -4 10 -3 9 2 -3
17 1 33 9 32 4 -1 9 0 12 1 15 5 47 11 62 11 10 0 21 5 24 11 4 7 2 8 -5 4 -6
-4 -18 -2 -26 4 -8 7 -15 9 -15 4 0 -5 -12 -14 -26 -21 -15 -7 -24 -10 -20 -6
3 3 0 13 -6 22 -10 13 -10 14 1 4 15 -12 44 -6 36 8 -3 4 2 6 12 5 10 -2 24 2
31 10 7 8 9 14 3 14 -10 0 -20 22 -27 59 -4 21 -3 22 10 12 8 -7 12 -19 9 -27
-6 -15 13 -44 29 -44 6 0 5 7 -3 16 -13 16 -21 56 -9 49 3 -2 6 7 6 20 0 16
-5 21 -15 18 -12 -3 -11 -1 1 7 13 8 23 8 37 0 11 -5 28 -7 38 -4 16 6 16 5
-2 -10 -14 -12 -16 -16 -5 -15 30 3 41 -1 34 -12 -5 -8 -9 -8 -14 1 -4 7 -10
8 -13 4 -3 -5 3 -20 14 -33 18 -22 24 -17 20 18 -2 8 2 10 10 5 7 -4 10 -3 6
3 -4 6 -1 15 6 21 7 6 12 26 11 46 -1 24 2 33 10 30 7 -3 13 2 13 11 0 9 -6
14 -14 11 -7 -3 -13 -1 -13 4 0 6 7 10 15 10 21 0 19 16 -4 32 -14 10 -17 18
-10 28 7 13 9 12 9 -2 0 -28 20 -32 42 -8 15 15 17 24 9 29 -7 5 -3 12 13 21
14 7 23 17 20 22 -3 4 -11 5 -17 2 -7 -4 -8 -3 -4 2 5 5 13 10 18 10 5 1 14 2
20 3 5 0 7 6 4 11 -3 6 0 13 9 16 8 3 12 12 9 20 -4 10 0 12 11 8 12 -5 15 -2
9 12 -5 13 -3 15 7 9 9 -5 11 -4 6 3 -4 7 -1 12 8 12 9 0 15 6 13 13 -1 6 4
11 12 9 12 -3 12 -1 1 15 -8 10 -11 15 -6 11 11 -9 46 9 46 24 0 6 7 19 15 28
8 9 16 26 18 38 2 12 7 25 12 29 4 5 5 3 1 -4 -3 -6 -1 -15 6 -19 7 -4 10 -3
5 1 -4 5 0 19 9 33 10 15 11 21 3 17 -8 -6 -10 -4 -5 4 5 7 14 10 21 7 8 -3
12 5 10 25 -1 16 1 26 6 23 5 -3 14 -2 20 2 8 4 7 9 -2 15 -11 7 -11 9 -1 9 9
0 11 7 7 23 -4 15 -3 18 3 8 8 -10 14 -11 28 -1 16 10 16 11 2 6 -15 -4 -16
-3 -6 14 9 14 15 16 21 7 5 -7 7 -2 4 15 -3 18 0 25 9 21 9 -3 12 2 9 17 -4
19 -2 20 12 8 15 -12 15 -11 4 9 -10 19 -9 22 4 17 10 -4 15 -2 13 7 -2 7 3
14 10 15 6 1 15 2 19 3 3 0 -2 10 -13 22 -10 11 -14 19 -9 18 17 -5 57 22 52
36 -3 7 1 12 11 11 12 -1 17 6 16 21 -1 13 3 20 7 17 5 -3 9 2 9 11 0 8 7 18
15 21 8 4 15 13 15 21 0 8 4 12 9 9 5 -3 8 2 7 12 0 9 4 16 10 15 6 -1 10 9 8
23 -1 14 0 23 3 21 7 -8 43 26 43 40 0 7 5 13 11 13 5 0 7 4 4 10 -6 9 8 14
28 11 5 -1 6 3 2 9 -3 6 -12 8 -18 4 -7 -3 -4 1 6 9 9 8 17 19 17 26 0 6 5 11
11 11 5 0 7 5 4 10 -4 6 -1 9 7 8 7 -2 12 3 11 10 -2 6 1 12 6 12 5 0 14 13
21 30 7 16 17 27 22 24 5 -3 8 1 6 9 -2 9 6 23 17 32 11 9 13 13 6 9 -8 -4 -4
8 10 27 13 19 24 36 24 39 1 3 8 19 18 36 9 17 13 35 9 39 -4 5 -1 5 6 1 6 -4
12 -2 12 4 0 6 4 8 10 5 5 -3 7 0 4 8 -3 8 0 18 5 22 6 3 9 11 6 16 -4 5 -2 9
3 9 5 0 17 12 27 26 12 18 13 24 4 19 -8 -4 -3 2 10 13 15 12 19 21 12 23 -8
3 -4 17 14 42 14 21 20 35 13 31 -7 -4 -4 3 7 16 11 13 14 20 8 16 -9 -5 -11
-2 -7 8 3 9 10 14 14 11 10 -6 31 51 23 59 -4 3 -2 6 4 6 5 0 10 6 11 13 2 24
8 47 15 53 4 4 7 18 7 30 0 13 4 25 9 28 4 3 7 17 6 30 -2 14 3 27 12 30 9 4
12 13 8 26 -3 11 -2 20 3 20 10 0 26 60 25 93 0 9 3 17 6 17 4 0 7 8 8 18 3
56 11 113 16 118 3 3 3 13 0 21 -3 8 0 19 8 24 8 5 9 9 3 9 -7 0 -15 7 -18 16
-4 9 -2 13 5 8 8 -4 9 1 4 16 -6 19 -4 22 11 16 18 -6 18 -5 0 9 -12 9 -15 15
-7 15 9 0 10 4 3 13 -5 7 -6 21 -1 32 10 26 11 47 2 42 -5 -3 -8 6 -8 19 0 13
3 24 7 24 7 0 2 38 -8 74 -4 11 -2 16 4 12 6 -4 7 6 2 28 -4 18 -6 47 -5 64 2
18 -1 29 -6 27 -4 -3 -7 10 -5 30 1 19 -1 35 -5 35 -4 0 -6 9 -4 20 2 11 0 20
-4 20 -4 0 -8 16 -9 36 -1 20 -7 43 -13 51 -7 7 -12 27 -11 43 0 17 -4 30 -10
30 -6 0 -8 9 -5 20 3 11 0 20 -6 20 -8 0 -8 3 -2 8 12 8 13 32 2 50 -5 6 -5
17 -1 24 5 7 3 8 -6 3 -9 -6 -12 1 -8 28 2 20 0 34 -4 31 -4 -3 -5 9 -3 25 2
18 -2 35 -11 42 -12 10 -12 14 -2 20 10 7 9 9 -4 9 -10 0 -15 7 -13 18 1 9 -3
23 -9 31 -8 11 -8 13 1 7 9 -5 11 -2 7 8 -3 9 -11 13 -18 9 -8 -5 -8 -3 1 8
19 23 19 24 3 41 -8 9 -19 14 -25 11 -5 -2 -1 3 9 11 17 14 18 16 3 16 -12 0
-17 8 -17 29 0 17 -5 33 -12 37 -7 5 -8 3 -3 -6 5 -9 4 -11 -4 -6 -6 4 -9 12
-6 17 10 14 -5 50 -17 43 -6 -4 -8 -2 -4 4 3 6 2 13 -4 17 -5 3 -10 15 -10 26
0 10 -5 19 -11 19 -5 0 -7 -4 -4 -10 3 -6 -1 -7 -10 -3 -9 3 -13 9 -8 12 15
11 14 34 -2 28 -22 -9 -51 3 -34 14 8 4 10 11 6 15 -3 4 -15 1 -24 -7 -16 -13
-17 -12 -4 4 8 10 20 16 28 13 7 -3 13 -1 13 4 0 6 -7 10 -15 10 -8 0 -15 5
-15 11 0 6 -6 9 -14 6 -9 -4 -12 0 -9 12 3 11 -2 21 -12 25 -9 3 -13 11 -9 17
5 8 3 9 -5 5 -9 -6 -8 -12 4 -26 11 -12 13 -20 6 -25 -6 -3 -12 -4 -12 -1 -3
12 -7 26 -9 34 -1 4 -1 16 0 26 1 15 -3 18 -20 13 -18 -5 -19 -3 -8 11 11 13
10 15 -9 10 -18 -5 -23 -2 -23 12 0 11 -4 22 -10 25 -6 3 -7 -1 -4 -10 4 -11
2 -14 -9 -9 -8 3 -17 14 -20 25 -3 13 -11 17 -21 13 -10 -4 -16 -1 -16 7 0 7
-3 9 -6 6 -4 -4 -1 -13 5 -21 9 -11 9 -16 0 -22 -8 -4 -9 -3 -5 4 4 7 2 12 -3
12 -6 0 -11 9 -11 21 0 16 -4 19 -17 14 -27 -10 -68 -17 -61 -10 3 4 14 8 25
9 10 2 18 12 19 24 1 12 -3 19 -8 16 -4 -3 -6 -10 -3 -15 4 -5 2 -9 -2 -9 -12
0 -38 43 -34 59 1 8 -2 10 -11 5 -11 -6 -11 -5 0 8 19 23 12 66 -10 60 -10 -2
-18 1 -18 7 0 7 5 9 10 6 16 -10 11 1 -7 16 -11 10 -14 10 -9 2 4 -7 2 -13 -3
-13 -6 0 -11 5 -11 10 0 6 -10 10 -22 10 -19 0 -20 2 -8 10 10 7 11 10 2 10
-7 0 -26 15 -42 34 -23 26 -36 33 -53 28 -20 -5 -21 -4 -7 13 14 17 14 18 -7
6 -19 -10 -23 -9 -23 4 0 8 -3 15 -7 16 -5 0 -16 2 -25 4 -11 2 -15 -2 -11
-11 8 -23 -6 -35 -27 -22 -10 7 -16 16 -13 21 3 4 11 0 19 -10 12 -16 13 -15
11 14 -2 31 -3 31 -24 17 -27 -17 -31 -7 -6 11 16 12 16 13 -2 12 -36 0 -45 3
-45 14 0 8 4 8 14 0 11 -9 16 -9 22 1 4 7 4 10 -1 6 -4 -4 -14 -3 -22 3 -7 6
-13 8 -14 3 0 -5 -4 0 -9 11 -7 17 -9 17 -9 3 -1 -10 -6 -18 -12 -18 -6 0 -9
7 -5 15 5 13 2 14 -17 4 -20 -11 -21 -11 -8 4 15 19 1 23 -17 5 -9 -9 -12 -8
-13 8 0 10 -3 13 -6 6 -3 -8 -11 -5 -24 10 l-20 23 12 -25 c11 -24 11 -24 -7
-9 -25 22 -88 53 -80 41 4 -6 2 -13 -4 -17 -5 -3 -10 -2 -10 3 0 16 -46 32
-59 19 -8 -8 -11 -7 -11 3 0 11 -3 10 -12 -2 -16 -20 -75 -31 -82 -15 -4 11
-5 8 -6 -20 -1 -12 34 -12 43 0 5 7 6 3 2 -9 -4 -17 -1 -22 11 -20 9 0 19 -5
21 -11 3 -7 0 -13 -7 -13 -6 0 -8 5 -5 10 3 6 2 10 -3 10 -18 0 -22 -30 -4
-31 11 0 13 -2 4 -6 -7 -3 -24 5 -38 18 -13 12 -24 18 -24 11 0 -6 12 -20 26
-31 15 -12 22 -21 17 -21 -6 0 -16 7 -23 15 -17 20 -29 19 -25 -2 1 -10 0 -12
-2 -5 -3 6 -8 12 -13 12 -5 0 -10 -6 -13 -12 -2 -7 -2 -3 0 10 4 25 -15 19
-67 -23 -14 -12 -20 -14 -12 -4 6 9 9 19 5 23 -14 13 -11 35 3 29 9 -3 14 0
12 7 -2 6 6 17 17 23 11 7 24 17 28 22 5 6 6 2 3 -8 -5 -15 -2 -17 14 -12 13
4 20 2 20 -6 0 -7 3 -9 7 -5 4 4 -3 16 -17 27 -15 11 -18 17 -7 13 10 -4 17
-1 17 7 0 7 -3 9 -7 6 -3 -4 -14 0 -24 9 -13 12 -19 12 -25 3 -4 -7 -3 -10 4
-5 18 11 23 -11 5 -25 -12 -10 -14 -10 -9 -1 4 6 4 12 -1 13 -4 0 -18 2 -30 3
-13 2 -19 -2 -16 -7 4 -6 0 -8 -10 -4 -12 4 -17 1 -17 -11 0 -10 -3 -13 -8 -6
-11 17 -52 25 -45 8 2 -7 10 -12 16 -10 7 1 9 1 4 -1 -4 -3 -4 -10 0 -16 4 -7
-2 -5 -12 3 -17 14 -18 13 -12 -5 7 -19 6 -19 -7 -2 -7 9 -19 17 -25 17 -7 0
-9 5 -5 13 6 9 5 9 -8 0 -8 -7 -19 -9 -23 -5 -5 4 -5 1 -1 -6 6 -10 3 -13 -10
-12 -33 4 -35 1 -19 -30 9 -16 13 -30 9 -30 -4 0 -1 -7 6 -15 7 -9 10 -18 6
-22 -3 -3 -6 -1 -6 5 0 6 -6 9 -14 6 -8 -3 -12 -12 -9 -20 3 -8 10 -11 17 -7
6 3 7 2 3 -2 -12 -14 -36 -14 -32 -2 3 7 -2 21 -11 32 -15 20 -15 20 -35 -4
-16 -20 -22 -22 -32 -11 -10 10 -9 11 2 5 10 -6 12 -4 6 5 -5 9 -4 11 3 6 7
-4 12 -3 12 3 0 8 32 24 52 26 17 1 16 14 -4 31 -12 10 -18 13 -14 7 4 -8 2
-13 -6 -13 -10 0 -9 -3 2 -11 12 -9 11 -10 -7 -6 -12 3 -21 2 -20 -2 1 -3 -1
-6 -5 -6 -19 0 -40 -46 -28 -60 7 -8 9 -15 5 -15 -4 0 -15 10 -26 23 -13 15
-17 17 -13 5 4 -13 1 -16 -15 -13 -12 2 -21 -1 -21 -7 0 -5 7 -8 15 -4 8 3 14
0 12 -6 -1 -6 4 -13 12 -16 9 -3 11 0 6 8 -6 9 -3 9 14 1 11 -7 21 -13 21 -14
0 -3 -53 -1 -60 3 -3 1 -9 2 -14 1 -5 -1 -13 4 -17 11 -7 10 -9 9 -9 -4 0 -10
5 -18 11 -18 5 0 7 -5 3 -11 -4 -7 -9 -7 -13 -2 -3 5 -15 13 -25 16 -17 7 -17
6 -5 -9 13 -16 12 -16 -11 -4 -24 13 -24 12 -10 -5 14 -17 14 -17 -6 -7 -17 9
-24 9 -31 -1 -13 -16 -27 -50 -24 -60 1 -5 -3 -6 -9 -2 -6 3 -8 10 -5 15 3 5
1 11 -4 15 -6 3 -8 -6 -5 -21 5 -29 -12 -58 -29 -47 -5 3 -7 1 -4 -5 9 -13 -2
-42 -15 -42 -6 0 -4 8 3 18 13 15 12 16 -4 3 -14 -11 -15 -16 -5 -29 11 -13
10 -15 -4 -10 -16 7 -19 -7 -5 -29 5 -7 -1 -10 -17 -9 -20 3 -24 -1 -22 -25 2
-22 -1 -26 -11 -17 -15 12 -14 13 -16 -27 -2 -35 -15 -58 -28 -50 -5 4 -9 1
-9 -5 0 -6 -4 -8 -10 -5 -5 3 -7 0 -4 -9 3 -8 2 -20 -2 -27 -9 -15 -11 -88 -2
-83 4 2 10 -1 14 -7 4 -8 3 -9 -4 -5 -12 7 -15 -1 -15 -36 0 -14 -3 -15 -21
-6 -21 11 -21 11 -2 -10 10 -12 23 -19 27 -16 5 3 6 -2 3 -10 -7 -18 -25 -22
-22 -5 2 6 -3 14 -10 16 -8 3 -10 -1 -5 -13 4 -11 0 -22 -12 -30 -10 -8 -13
-14 -7 -14 7 0 12 -7 12 -16 0 -8 -4 -12 -10 -9 -5 3 -10 3 -10 0 0 -11 27
-35 52 -45 20 -9 20 -10 -7 -5 -23 5 -27 4 -18 -6 13 -13 7 -39 -9 -39 -6 0
-6 6 1 14 8 10 9 16 1 21 -6 3 -8 10 -5 15 3 4 -2 10 -10 13 -12 5 -12 2 -2
-20 10 -21 8 -27 -8 -40 -15 -12 -16 -14 -3 -10 19 7 48 -22 41 -41 -3 -6 -8
-10 -12 -8 -4 3 -8 -1 -8 -9 0 -13 2 -13 16 -1 12 11 21 12 31 5 13 -9 12 -10
-2 -6 -12 4 -16 0 -15 -14 1 -10 5 -19 9 -19 4 0 -1 -10 -12 -22 -43 -49 -50
-58 -42 -58 4 0 13 5 18 10 12 12 47 2 39 -11 -3 -4 -11 -6 -18 -3 -8 3 -13
-4 -14 -18 0 -13 1 -17 4 -10 3 6 9 12 14 12 6 0 7 -6 3 -12 -5 -8 -1 -7 10 1
16 13 17 13 14 -5 -1 -10 -7 -22 -11 -25 -11 -8 -18 -57 -9 -63 4 -2 8 7 8 22
-1 21 3 26 19 24 16 -2 17 -1 5 7 -13 9 -13 11 3 11 9 0 17 -7 17 -16 0 -14 2
-15 18 -3 15 13 16 12 3 -3 -12 -16 -9 -22 12 -19 14 2 7 -17 -9 -23 -10 -4
-13 -2 -8 6 4 7 3 8 -5 4 -7 -4 -10 -2 -9 4 2 7 -4 14 -13 15 -9 2 -16 -3 -16
-11 0 -7 4 -11 9 -8 4 3 11 -2 14 -10 5 -12 49 -17 49 -5 0 1 10 3 22 4 12 1
20 -1 17 -6 -2 -4 -12 -5 -21 -2 -10 4 -14 2 -9 -5 3 -6 2 -13 -4 -17 -5 -3
-10 -11 -10 -17 0 -6 7 -5 17 3 15 13 15 12 4 -10 -8 -15 -9 -21 -2 -17 6 4
11 2 11 -3 0 -6 -5 -11 -12 -11 -6 0 -8 -3 -5 -6 11 -11 36 16 30 32 -3 8 9 1
26 -17 24 -23 29 -34 20 -40 -7 -4 -17 -5 -21 -3 -4 3 -8 -2 -8 -11 0 -10 -5
-13 -12 -9 -10 6 -10 5 -1 -8 7 -8 12 -17 10 -19 -1 -3 7 5 18 18 19 21 21 22
21 4 0 -11 -5 -17 -10 -14 -5 4 -7 -1 -3 -11 4 -10 7 -22 7 -27 0 -6 6 -7 13
-3 10 6 10 4 0 -7 -19 -20 -16 -34 4 -18 11 10 14 10 9 2 -4 -7 -2 -13 3 -13
6 0 11 -5 11 -11 0 -8 -4 -8 -14 0 -11 9 -13 6 -13 -14 0 -20 2 -23 12 -15 10
8 15 8 21 -1 4 -8 3 -9 -4 -5 -7 4 -13 2 -13 -3 -1 -6 -2 -17 -3 -23 -1 -7 -8
-12 -16 -10 -12 3 -12 1 -3 -9 6 -6 9 -19 6 -28 -4 -12 -1 -11 11 4 15 17 17
17 12 3 -3 -11 0 -17 7 -15 8 1 11 -7 8 -23 -2 -14 -4 -32 -5 -40 0 -8 -5 -18
-11 -22 -6 -5 -5 -8 3 -8 6 0 21 9 32 20 11 11 23 20 27 20 4 0 2 -5 -5 -12
-9 -9 -8 -14 4 -23 13 -9 13 -11 -5 -11 -11 0 -17 5 -14 10 3 5 1 6 -5 2 -7
-4 -17 -17 -22 -29 -10 -19 -9 -20 2 -6 12 15 43 18 55 5 3 -3 0 -12 -7 -21
-7 -8 -8 -15 -2 -15 5 0 17 10 26 23 16 21 16 21 6 0 -8 -18 -5 -25 18 -42 15
-12 19 -18 9 -15 -12 4 -17 2 -15 -7 2 -10 -7 -14 -32 -13 -19 1 -26 0 -16 -3
15 -4 16 -7 5 -15 -11 -8 -10 -9 4 -4 20 6 21 2 6 -25 -5 -11 -14 -17 -20 -14
-5 4 -8 1 -7 -6 2 -6 -3 -14 -11 -17 -9 -3 -11 0 -6 8 5 9 4 11 -4 6 -8 -6 -9
-12 -2 -20 7 -9 7 -16 -2 -25 -9 -10 -8 -15 7 -27 11 -8 15 -14 9 -14 -7 0
-19 7 -27 16 -14 13 -16 13 -16 1 0 -9 -6 -18 -12 -21 -7 -3 -2 -3 12 1 22 5
23 4 11 -10 -7 -9 -18 -14 -24 -10 -6 3 -7 1 -3 -6 4 -6 13 -9 19 -5 7 3 4 -1
-6 -9 -16 -13 -16 -15 -2 -21 9 -3 13 -2 10 4 -3 6 -1 10 5 10 6 0 10 -8 8
-17 -2 -10 2 -17 8 -16 6 1 11 -4 11 -12 0 -11 -7 -9 -29 6 -15 11 -28 16 -28
10 0 -6 5 -11 10 -11 6 0 10 -7 10 -16 0 -8 5 -12 10 -9 6 3 10 -1 10 -10 0
-9 -4 -14 -9 -10 -6 3 -8 -4 -6 -16 5 -27 11 -33 20 -20 3 6 1 11 -5 11 -6 0
-8 5 -5 10 3 6 14 10 23 9 11 0 12 -2 4 -6 -6 -2 -10 -8 -7 -13 2 -4 -5 -16
-16 -26 -13 -12 -19 -14 -17 -5 4 17 -30 23 -39 8 -3 -7 -3 -9 2 -5 16 15 37
-13 23 -30 -9 -10 -9 -13 -1 -9 6 4 13 3 15 -3 2 -6 13 -12 26 -15 20 -3 21
-2 11 17 -8 15 -13 17 -19 8 -5 -8 -10 -8 -14 -2 -13 21 25 20 45 -1 19 -20
20 -20 13 -2 -7 18 -6 19 9 6 10 -8 20 -11 24 -7 3 3 1 6 -5 6 -7 0 -12 3 -12
8 0 4 16 7 36 6 19 -1 33 0 30 3 -3 3 0 15 5 26 8 15 8 22 -2 29 -11 8 -10 9
3 4 11 -3 19 2 23 15 6 19 7 19 26 -3 l20 -23 -11 24 c-14 28 2 53 22 33 15
-15 28 -15 28 -1 0 5 -4 8 -9 5 -5 -3 -11 1 -15 9 -6 18 -1 19 25 5 15 -8 19
-8 17 2 -2 7 2 12 8 11 6 -1 11 4 11 12 0 8 -5 11 -10 8 -6 -4 -8 0 -4 9 3 9
0 21 -6 27 -9 9 -8 10 7 5 15 -6 17 -4 11 6 -5 8 -4 11 3 6 6 -4 9 -13 6 -20
-3 -8 -1 -16 3 -19 5 -3 8 6 8 21 -2 36 7 50 16 26 6 -15 8 -13 8 11 1 23 4
27 11 15 8 -12 10 -9 10 11 0 16 7 30 16 33 13 5 14 4 6 -7 -9 -10 -8 -14 3
-14 8 0 12 3 10 7 -2 4 4 16 15 27 13 15 15 24 7 32 -8 8 -5 9 11 6 12 -2 25
1 28 7 4 6 2 8 -4 4 -12 -7 -21 4 -27 34 -2 12 0 18 6 15 5 -4 7 -10 4 -15 -3
-5 -1 -12 5 -15 6 -4 9 -1 8 6 -2 7 2 13 9 14 6 0 15 4 20 9 5 6 2 6 -6 1 -11
-6 -13 -4 -8 8 4 12 -2 21 -21 31 -15 9 -22 15 -17 16 6 0 26 -10 45 -21 24
-15 30 -17 21 -5 -10 12 -11 19 -2 30 9 10 8 15 -3 19 -10 4 -13 1 -9 -9 3 -7
0 -14 -6 -14 -6 0 -10 6 -9 13 2 6 -3 11 -10 9 -8 -1 -11 2 -8 7 3 5 19 7 35
6 24 -2 28 1 23 17 -2 10 -1 18 4 17 23 -4 26 3 9 21 -18 20 -18 21 1 15 18
-6 18 -6 -1 10 l-20 17 20 -6 c11 -3 27 -1 35 5 13 9 12 10 -2 5 -19 -6 -15
17 9 45 7 9 10 19 6 24 -5 4 1 5 12 2 19 -7 19 -6 2 7 -14 10 -15 15 -5 19 7
3 2 5 -12 4 -14 -1 -29 -6 -33 -12 -5 -6 -7 -4 -4 5 2 8 9 15 14 15 6 0 15 4
20 9 5 5 3 6 -4 2 -7 -4 -13 -3 -13 3 0 5 3 11 8 14 4 2 1 2 -6 1 -14 -4 -32
34 -25 52 2 6 -5 14 -16 17 -14 3 -19 11 -15 28 4 20 3 21 -4 5 -6 -14 -11
-16 -16 -8 -4 7 -4 18 0 25 5 7 0 6 -11 -3 -17 -14 -18 -13 -12 3 4 10 7 21 7
23 0 3 5 2 11 -2 8 -5 8 -1 0 14 -11 21 -25 23 -51 7 -13 -7 -13 -6 -2 7 10
13 10 17 0 22 -7 3 -1 3 13 0 16 -3 30 -1 34 6 5 9 1 10 -16 5 -21 -7 -22 -6
-11 8 14 16 10 21 -31 36 -18 7 -28 7 -33 -1 -5 -7 -3 -8 6 -3 9 6 11 4 5 -5
-6 -9 -2 -10 16 -5 23 7 23 7 4 -8 -19 -15 -34 -6 -41 23 -7 35 -16 39 -36 17
-11 -12 -16 -15 -12 -7 13 24 13 40 1 37 -7 -1 -11 3 -10 10 1 6 -11 26 -28
44 -21 22 -27 35 -19 43 7 7 10 6 10 -3 0 -7 4 -10 9 -7 5 3 -13 28 -40 55
-46 46 -62 70 -39 56 6 -3 10 -2 10 4 0 18 -20 22 -27 5 -6 -15 -7 -15 -15 5
-6 18 -11 20 -28 11 -22 -12 -44 -5 -34 11 3 5 15 7 27 3 19 -6 20 -5 8 10
-17 20 -25 20 -47 -1 -16 -16 -16 -16 -9 7 7 22 6 23 -9 11 -10 -9 -16 -10
-16 -2 0 6 5 11 10 11 6 0 9 6 8 13 -2 6 3 11 10 9 7 -1 12 5 10 14 -2 11 4
18 19 19 12 1 20 -2 18 -6 -3 -4 2 -10 11 -13 13 -5 14 -9 5 -20 -9 -11 -9
-16 0 -22 8 -5 9 -3 4 6 -5 8 -4 11 3 6 7 -4 10 1 7 14 -2 11 1 20 7 20 5 0 8
-7 4 -15 -6 -17 29 -41 39 -26 3 5 -3 12 -12 14 -17 4 -17 5 0 6 11 1 15 6 11
13 -4 6 -3 8 4 4 6 -3 9 -16 7 -27 -3 -15 0 -19 11 -15 8 3 13 2 9 -3 -3 -5 0
-11 6 -13 9 -3 9 -9 0 -25 -7 -13 -7 -24 -2 -28 6 -3 8 -14 6 -25 -2 -11 1
-20 6 -20 6 0 8 -4 5 -8 -3 -5 1 -9 8 -9 7 0 13 6 13 13 0 7 -4 11 -9 8 -5 -3
-7 6 -4 20 3 15 1 24 -5 21 -5 -4 -9 1 -9 10 0 8 7 18 15 21 12 5 11 11 -7 38
-19 26 -19 29 -3 16 17 -14 18 -13 12 2 -4 12 0 19 14 23 l21 7 -21 15 c-12 8
-21 22 -21 31 0 15 -2 15 -10 2 -7 -11 -8 -9 -6 11 1 13 6 31 10 38 5 8 3 16
-4 21 -9 6 -6 10 10 15 21 7 21 8 6 17 -19 11 -5 38 20 38 13 0 19 13 15 34
-1 5 5 3 14 -4 13 -11 14 -10 8 6 -6 17 -5 18 11 4 16 -12 19 -12 28 3 5 10
13 15 17 12 5 -2 14 2 21 10 10 12 15 12 36 -2 14 -9 24 -12 22 -7 -2 5 1 10
6 11 5 1 13 7 17 15 7 10 9 10 9 -2 0 -13 1 -13 10 0 9 13 11 13 21 0 9 -13
10 -12 5 3 -4 12 -2 17 6 14 7 -2 12 -15 11 -28 -2 -22 -2 -22 6 -4 5 11 7 23
4 27 -2 4 3 5 11 2 9 -3 14 -9 11 -13 -2 -4 3 -8 11 -8 10 0 11 4 4 11 -13 13
-13 26 -1 26 5 0 12 -9 16 -19 4 -12 12 -18 20 -14 8 3 18 -2 21 -11 6 -15 8
-15 21 1 8 10 12 12 8 6 -4 -8 -1 -11 9 -7 8 3 16 -2 19 -13 4 -16 5 -16 6 0
0 9 5 17 11 17 5 0 13 -8 19 -17 9 -17 10 -17 16 0 4 9 11 17 17 17 5 0 6 -4
3 -10 -3 -5 -1 -10 5 -10 6 0 8 -5 4 -11 -4 -8 -9 -7 -15 2 -6 10 -8 8 -6 -8
2 -12 7 -26 11 -30 4 -5 6 -2 4 6 -2 7 3 16 11 19 8 2 11 0 7 -6 -7 -11 13
-21 32 -15 6 3 9 10 6 15 -4 6 -2 8 4 5 5 -4 8 -16 5 -26 -6 -23 12 -36 47
-33 33 3 69 -21 50 -33 -9 -5 -11 -4 -6 3 4 7 3 12 -3 12 -5 0 -13 -4 -16 -10
-6 -10 7 -14 34 -11 7 2 10 -3 6 -9 -4 -6 -1 -9 7 -8 7 2 12 -4 10 -12 -2 -8
0 -12 4 -8 4 4 14 2 22 -5 10 -8 13 -8 9 -1 -12 20 20 24 37 5 20 -22 11 -52
-12 -43 -16 5 -16 5 0 -11 10 -11 15 -27 12 -43 -4 -23 -2 -25 18 -19 23 6 23
6 -1 -8 -20 -12 -21 -15 -7 -20 9 -4 15 -10 15 -14 -1 -4 3 -19 9 -33 8 -18
11 -20 11 -7 1 9 6 17 11 17 6 0 12 0 15 0 3 0 5 -3 4 -6 0 -4 5 -11 13 -15
10 -7 10 -9 -2 -9 -13 0 -13 -1 0 -11 13 -9 13 -10 0 -6 -8 2 -15 9 -15 15 0
5 -3 14 -7 18 -5 4 -8 0 -8 -9 0 -9 5 -19 11 -23 8 -4 7 -9 -2 -16 -9 -5 -3
-6 16 -2 29 6 29 6 10 -9 -11 -8 -17 -19 -13 -23 4 -4 14 -2 22 5 11 9 15 9
18 -1 7 -19 -3 -49 -14 -42 -5 3 -3 12 4 21 12 15 11 15 -9 2 -13 -8 -23 -17
-23 -22 0 -4 5 -5 10 -2 6 3 13 -1 17 -11 5 -14 8 -13 19 7 7 13 13 18 14 10
0 -8 7 -23 17 -33 9 -10 11 -18 6 -18 -6 0 -14 8 -17 17 -6 15 -9 15 -16 3
-11 -17 24 -45 43 -34 9 5 9 4 0 -6 -10 -10 -15 -11 -27 -1 -11 9 -16 9 -22 0
-4 -8 -3 -9 4 -5 12 7 14 3 16 -49 1 -16 5 -36 10 -44 5 -8 4 -16 -5 -22 -12
-7 -12 -10 0 -21 9 -8 11 -9 7 -1 -9 17 11 26 31 13 17 -11 17 -11 0 -6 -12 4
-17 2 -14 -6 2 -7 -3 -18 -12 -25 -19 -14 4 -13 29 1 8 5 12 6 8 1 -4 -4 0
-14 10 -22 16 -12 15 -13 -3 -6 -18 6 -19 5 -5 -13 14 -18 14 -18 -2 -5 -10 7
-15 18 -11 24 3 6 1 7 -5 3 -6 -4 -8 -14 -5 -23 4 -10 2 -14 -4 -10 -5 3 -10
0 -10 -8 0 -8 4 -15 9 -15 4 0 8 5 8 11 0 5 5 7 11 3 8 -4 3 -12 -12 -21 -13
-8 -16 -12 -7 -9 10 3 20 1 23 -4 4 -6 0 -10 -7 -10 -7 0 -13 -11 -13 -24 0
-13 3 -22 7 -20 4 3 12 -4 17 -15 14 -25 14 -42 0 -18 -5 9 -15 17 -20 17 -6
0 -8 -4 -5 -9 4 -5 3 -11 -1 -14 -5 -2 -3 -2 4 -1 6 2 14 -4 17 -12 3 -8 1
-14 -3 -14 -11 0 -8 -26 4 -37 4 -4 5 -3 2 3 -4 7 1 18 10 25 14 12 15 11 8
-11 -4 -14 -8 -29 -9 -35 0 -5 -4 -12 -8 -15 -4 -3 1 -11 11 -17 20 -13 24 -1
8 25 -5 6 -7 12 -5 13 30 7 38 6 30 -4 -9 -14 -10 -27 0 -42 4 -6 3 -17 -2
-25 -5 -8 -5 -21 -2 -29 11 -24 8 -46 -8 -67 -9 -10 -10 -15 -2 -10 8 5 12 1
12 -13 0 -11 -5 -23 -11 -27 -8 -4 -7 -9 2 -14 10 -7 10 -12 -1 -27 -8 -10
-11 -15 -6 -11 11 9 33 -13 33 -34 0 -9 -4 -15 -8 -13 -10 7 -19 -22 -13 -40
5 -11 10 -13 19 -5 10 8 15 8 21 -1 4 -8 3 -9 -4 -5 -8 5 -12 -5 -12 -34 0
-30 -3 -39 -12 -34 -9 5 -9 2 1 -9 14 -18 26 -23 16 -8 -3 5 0 13 6 17 7 4 9
3 5 -4 -3 -5 0 -13 6 -15 9 -4 10 -6 1 -6 -7 -1 -10 -11 -7 -27 4 -23 2 -26
-16 -21 -11 3 -18 2 -15 -3 3 -4 -2 -13 -10 -20 -18 -15 -10 -31 10 -23 8 3
15 1 15 -5 0 -6 -12 -9 -27 -7 -25 3 -26 2 -8 -11 16 -12 16 -14 3 -14 -9 0
-20 -5 -24 -12 -4 -7 -3 -8 4 -4 7 4 12 1 12 -8 0 -9 6 -16 13 -16 8 0 7 -4
-3 -10 -11 -8 -9 -9 12 -6 20 3 25 1 21 -10 -3 -8 -9 -12 -13 -9 -8 5 -25 -24
-21 -38 1 -5 -3 -6 -9 -2 -8 5 -7 12 2 23 12 15 11 16 -4 3 -10 -7 -18 -26
-18 -42 0 -16 -5 -29 -11 -29 -5 0 -7 5 -3 12 4 7 3 8 -5 4 -6 -4 -9 -11 -6
-16 3 -4 0 -10 -7 -12 -7 -3 -5 -7 6 -11 11 -5 15 -3 10 5 -4 7 -3 8 4 4 18
-11 14 -27 -4 -24 -10 2 -19 -3 -22 -11 -3 -10 0 -12 11 -8 9 3 19 2 22 -4 4
-5 -1 -12 -10 -15 -13 -5 -13 -9 -3 -22 11 -13 11 -14 -1 -8 -10 7 -12 3 -6
-15 7 -23 7 -23 -8 -4 -8 11 -13 24 -10 30 4 5 2 6 -3 2 -12 -11 -13 -58 -1
-50 6 3 7 1 3 -5 -4 -7 -1 -12 6 -12 10 0 10 -2 -1 -9 -7 -5 -11 -13 -7 -19 3
-5 -1 -13 -10 -16 -10 -4 -13 -2 -8 6 4 7 3 8 -4 4 -14 -9 -3 -38 12 -30 6 3
4 0 -4 -8 -16 -14 -27 -54 -12 -44 5 3 9 -1 9 -9 0 -8 -4 -12 -9 -9 -8 5 -12
-10 -8 -36 1 -9 -6 -5 -17 9 -15 18 -20 20 -20 8 0 -9 4 -14 9 -11 4 3 8 -2 8
-11 0 -9 -4 -14 -9 -10 -5 3 -12 1 -15 -4 -4 -5 4 -8 17 -7 15 2 24 -2 24 -11
0 -8 -8 -11 -21 -8 -12 3 -15 2 -8 -1 15 -7 16 -34 1 -34 -5 0 -7 5 -3 11 4 8
0 8 -15 0 -11 -7 -21 -14 -21 -17 0 -3 4 -3 9 0 13 8 42 -4 36 -15 -3 -4 -13
-5 -23 -2 -14 5 -14 3 2 -9 15 -12 16 -17 6 -23 -9 -6 -11 -4 -5 5 5 9 4 11
-3 6 -16 -9 -15 -33 1 -40 6 -3 -4 -4 -23 -1 -24 3 -29 2 -16 -3 29 -12 31
-45 3 -36 -21 6 -21 6 -3 -8 19 -15 7 -36 -13 -23 -5 3 -13 0 -17 -6 -4 -7 -3
-9 2 -6 18 11 35 -30 19 -43 -8 -7 -12 -17 -8 -23 3 -6 1 -7 -6 -3 -6 4 -8 13
-5 19 4 7 3 8 -2 4 -5 -5 -10 -13 -10 -18 -1 -5 -2 -14 -3 -20 0 -5 -5 -8 -10
-4 -5 3 -12 1 -15 -4 -11 -17 12 -22 28 -5 9 8 16 12 16 7 0 -5 -5 -14 -12
-21 -7 -7 -8 -12 -4 -12 5 0 3 -7 -5 -16 -10 -13 -10 -17 2 -25 11 -8 10 -9
-6 -7 -15 2 -20 -3 -19 -19 0 -12 -3 -20 -8 -17 -4 3 -16 0 -25 -6 -16 -10
-16 -11 -1 -6 9 2 22 -2 29 -10 10 -12 9 -13 -5 -8 -16 6 -56 -25 -56 -43 1
-4 9 2 20 15 17 21 19 21 17 3 0 -11 -4 -18 -8 -15 -4 2 -10 -3 -13 -12 -3 -8
-11 -12 -17 -8 -7 4 -9 3 -5 -4 3 -5 0 -13 -6 -15 -10 -4 -10 -6 0 -6 6 -1 12
-6 12 -12 0 -5 -5 -7 -12 -3 -8 5 -9 2 -5 -9 4 -11 1 -17 -8 -17 -8 0 -15 -5
-15 -11 0 -5 5 -7 12 -3 7 5 8 3 2 -7 -14 -23 -16 -51 -2 -43 7 4 8 3 4 -4 -4
-7 -2 -12 4 -12 6 0 8 -4 5 -10 -3 -5 -19 -8 -35 -6 -16 2 -27 -1 -24 -5 3 -5
-2 -12 -11 -15 -14 -6 -14 -8 2 -21 17 -14 17 -14 1 -9 -18 6 -43 -26 -30 -38
3 -4 0 -11 -8 -16 -13 -8 -12 -10 3 -10 9 0 17 -5 17 -11 0 -6 -7 -8 -16 -5
-13 5 -15 1 -12 -24 4 -24 2 -27 -9 -18 -11 9 -12 6 -4 -15 8 -21 7 -25 -4
-20 -8 3 -12 10 -8 16 3 6 1 7 -5 3 -6 -4 -9 -13 -6 -20 3 -8 1 -17 -5 -21 -6
-3 -11 -15 -11 -26 0 -10 -6 -19 -12 -19 -9 0 -10 -3 -2 -8 16 -11 13 -41 -4
-35 -10 4 -10 8 -2 13 8 5 6 9 -6 14 -10 4 -15 4 -11 0 4 -4 -1 -13 -11 -21
-16 -14 -16 -14 1 -9 11 3 20 0 23 -9 4 -8 11 -12 17 -8 6 3 7 1 3 -6 -5 -8
-12 -9 -19 -2 -8 6 -17 4 -27 -7 -13 -14 -12 -15 3 -9 9 3 19 2 21 -2 9 -14
-5 -20 -28 -11 -17 6 -23 5 -23 -5 0 -8 4 -12 9 -9 4 3 8 0 8 -6 0 -6 5 -8 12
-4 6 4 8 3 5 -4 -4 -5 -16 -8 -27 -5 -16 4 -19 2 -13 -12 4 -12 3 -16 -5 -11
-6 3 -14 1 -18 -5 -4 -7 -3 -9 4 -5 6 3 13 2 17 -4 6 -10 -6 -14 -35 -11 -13
2 -13 1 0 -8 8 -5 11 -13 7 -17 -3 -4 -15 -1 -24 7 -17 13 -17 13 0 -7 23 -28
22 -38 -8 -54 -13 -7 -22 -17 -19 -22 3 -4 0 -8 -7 -8 -7 0 -9 -3 -5 -7 4 -4
15 3 25 15 15 21 19 22 30 8 9 -11 10 -16 2 -16 -6 0 -11 6 -11 13 0 8 -4 7
-10 -3 -13 -20 -12 -33 2 -24 6 4 8 3 4 -4 -3 -6 2 -13 11 -15 17 -4 17 -5 0
-6 -11 -1 -17 -8 -15 -18 2 -10 -2 -17 -9 -16 -14 3 -25 -24 -12 -32 20 -13
-3 -25 -24 -13 -30 16 -55 20 -62 9 -3 -5 0 -13 6 -17 8 -4 9 -3 5 4 -4 7 -2
12 3 12 6 0 11 -9 11 -20 0 -17 -3 -19 -18 -11 -11 6 -24 6 -33 0 -7 -5 -9 -9
-4 -10 6 0 -1 -5 -15 -9 -23 -7 -24 -8 -3 -9 12 -1 26 6 31 15 6 11 12 13 16
6 3 -6 -2 -17 -12 -24 -10 -7 -21 -21 -25 -32 -6 -16 -10 -16 -25 -5 -9 7 -14
9 -10 5 4 -5 -4 -20 -18 -33 -14 -12 -20 -23 -14 -23 6 0 8 -5 5 -10 -4 -6
-12 -7 -18 -3 -16 10 -37 13 -37 5 0 -4 9 -13 20 -20 12 -7 18 -17 15 -22 -3
-6 -1 -10 5 -10 7 0 9 7 6 16 -5 12 -2 15 10 10 8 -3 19 -6 22 -6 4 0 0 -5 -8
-10 -11 -7 -7 -9 15 -7 22 2 30 8 30 21 0 11 14 27 33 38 l33 18 -6 -22 c-4
-16 -3 -19 3 -9 6 8 12 9 16 3 3 -6 -3 -17 -14 -25 -14 -9 -18 -21 -14 -33 4
-15 1 -13 -16 6 l-22 25 16 -27 c21 -36 20 -48 -3 -21 -10 12 -21 19 -25 16
-3 -3 3 -13 14 -20 15 -11 18 -18 10 -32 -5 -10 -6 -21 -3 -25 3 -3 2 -6 -4
-6 -17 0 -23 13 -12 26 13 16 4 34 -17 34 -8 0 -12 5 -9 10 3 6 2 10 -4 10 -5
0 -12 -6 -14 -12 -4 -10 -8 -9 -17 2 -10 13 -11 13 -7 0 2 -8 16 -16 31 -17
35 -3 42 -9 28 -26 -9 -10 -8 -17 0 -25 8 -8 8 -12 1 -12 -20 0 -34 25 -21 38
9 9 9 12 0 12 -7 0 -12 -5 -12 -12 0 -6 -9 -3 -20 7 -33 30 -23 8 11 -25 18
-16 30 -30 28 -31 -2 0 -12 -2 -22 -4 -12 -2 -17 1 -13 10 2 7 -2 19 -10 25
-10 9 -14 9 -14 1 0 -6 -4 -11 -9 -11 -5 0 -7 10 -4 22 3 13 3 21 0 18 -3 -3
-8 -18 -11 -34 -3 -16 -11 -34 -17 -40 -9 -8 -10 -8 -5 2 4 6 2 12 -3 12 -6 0
-11 4 -11 10 0 5 8 6 18 3 15 -6 16 -5 2 12 -9 11 -10 16 -2 11 6 -4 12 -2 12
3 0 6 -9 11 -21 11 -11 0 -17 -4 -14 -10 3 -5 2 -10 -4 -10 -5 0 -12 6 -15 13
-5 9 -7 9 -12 0 -3 -7 -10 -13 -15 -13 -15 0 -1 18 23 31 16 9 19 8 13 -2 -6
-8 -4 -10 6 -3 8 4 20 9 28 11 8 1 21 10 30 19 15 17 15 17 -1 5 -10 -8 -32
-15 -48 -16 l-30 -3 25 26 c14 13 25 29 25 34 0 5 -11 -4 -25 -19 l-25 -28 4
29 c3 16 2 25 -2 21 -4 -3 -8 -19 -8 -33 -3 -42 -3 -44 -16 -36 -6 4 -8 3 -4
-4 3 -6 -2 -15 -11 -21 -13 -8 -14 -10 -4 -11 11 0 10 -4 -5 -16 -10 -8 -14
-13 -9 -10 6 2 17 -5 25 -17 11 -19 11 -20 -1 -11 -8 6 -26 14 -41 16 -24 4
-26 3 -17 -13 7 -15 6 -17 -6 -13 -8 4 -15 10 -15 16 0 5 -4 6 -10 3 -5 -3
-10 2 -10 12 0 10 -4 14 -8 8 -8 -12 -32 -13 -49 -2 -7 5 -13 5 -13 1 0 -4
-12 3 -27 17 -15 13 -22 17 -16 9 9 -12 8 -20 -4 -35 -14 -18 -15 -18 -9 -1 5
15 2 17 -14 13 -11 -3 -20 -1 -20 3 0 5 8 10 18 12 14 3 13 5 -6 10 -12 3 -20
2 -16 -3 7 -11 -33 -6 -43 6 -5 4 -3 5 4 1 6 -3 14 -2 17 3 4 5 -2 8 -11 6
-10 -1 -33 6 -52 17 -22 12 -30 14 -23 5 10 -11 9 -17 -5 -28 -13 -11 -15 -11
-9 -1 5 9 3 12 -7 10 -8 -2 -24 8 -36 22 l-22 25 16 -32 c8 -18 11 -33 6 -33
-5 0 -11 9 -14 21 -5 17 -9 19 -26 10 -28 -15 -38 -14 -16 2 14 11 15 16 5 22
-9 5 -11 4 -6 -3 4 -7 1 -12 -8 -12 -8 0 -19 7 -24 16 -8 15 -10 15 -15 0 -4
-10 -3 -14 2 -11 5 3 12 1 15 -4 13 -20 -12 -19 -30 1 -11 12 -13 18 -5 13 10
-5 12 -4 7 4 -11 16 -28 2 -22 -18 6 -15 5 -15 -7 1 -12 15 -14 15 -25 0 -11
-16 -11 -16 -6 1 6 18 -11 24 -19 7 -3 -6 -4 -5 -3 2 1 7 13 14 25 14 12 1 28
7 34 14 10 10 8 10 -9 2 -12 -6 -24 -9 -27 -6 -9 9 -48 -7 -42 -17 4 -5 1 -9
-4 -9 -15 0 -14 11 4 30 13 14 13 17 0 17 -8 0 -12 -4 -9 -9 3 -4 -2 -8 -11
-8 -10 0 -14 5 -9 12 5 10 4 10 -6 1 -14 -13 -53 14 -43 30 3 6 1 7 -6 3 -9
-6 -9 -11 0 -22 14 -17 8 -18 -25 -3 -14 7 -22 17 -19 23 4 6 -4 2 -17 -9
l-23 -20 12 22 c15 30 14 41 -2 18 -11 -14 -16 -15 -22 -5 -6 9 -4 11 6 5 8
-5 11 -4 6 0 -12 14 -55 17 -63 4 -4 -8 1 -9 17 -5 20 6 21 5 6 -4 -22 -14
-36 -5 -30 20 6 23 -44 41 -57 20 -6 -10 -9 -9 -12 1 -4 11 -10 12 -25 2 -16
-9 -20 -8 -20 3 0 8 3 12 5 9 3 -3 17 2 30 11 22 15 24 15 19 1 -4 -11 -2 -14
9 -10 11 4 12 8 3 20 -9 9 -15 11 -23 3 -13 -13 -58 -13 -74 0 -9 7 -9 7 -2
-2 14 -17 12 -34 -2 -20 -17 17 -23 15 -36 -12 -8 -19 -8 -26 1 -30 7 -4 -1
-4 -18 -1 -22 4 -26 3 -15 -5 8 -5 11 -10 5 -10 -5 0 -3 -5 5 -10 12 -8 12
-10 1 -10 -11 0 -11 -3 0 -17 13 -15 12 -15 -8 -3 -12 8 -19 19 -15 25 3 5 -2
4 -11 -4 -9 -7 -17 -19 -17 -25 0 -7 3 -6 9 2 6 11 10 10 19 -1 9 -11 7 -13
-9 -12 -11 1 -25 8 -30 16 -7 11 -9 11 -9 0 0 -11 -3 -11 -15 -1 -8 7 -15 9
-15 5 0 -4 -8 -1 -17 6 -15 11 -16 11 -5 -1 17 -20 15 -35 -3 -20 -13 11 -14
10 -9 -6 4 -10 4 -16 -1 -12 -4 4 -17 2 -29 -4 -11 -7 -25 -11 -29 -10 -5 1
-6 -2 -2 -8 3 -5 -1 -10 -10 -10 -9 0 -14 4 -10 9 3 5 1 12 -4 15 -12 8 -7
-24 5 -32 13 -9 11 -38 -3 -35 -12 3 -12 -15 0 -35 5 -7 13 -10 18 -7 8 6 12
-8 12 -47 0 -10 5 -18 11 -18 6 0 3 -5 -7 -11 -9 -5 -23 -7 -30 -3 -8 5 -7 2
2 -9 7 -9 10 -17 5 -17 -5 0 -4 -4 2 -8 9 -5 8 -11 -2 -20 -8 -7 -14 -9 -14
-4 0 6 -9 12 -20 15 -13 3 -20 0 -20 -10 0 -8 4 -12 9 -9 5 3 15 -2 22 -11 8
-9 9 -14 3 -10 -6 3 -20 0 -30 -8 -10 -8 -27 -15 -38 -15 -16 0 -17 -2 -5 -17
13 -16 12 -17 -3 -5 -9 8 -15 19 -12 25 2 7 -6 18 -18 26 -21 13 -22 13 -9 -2
7 -10 10 -17 6 -17 -4 0 0 -11 9 -24 11 -18 13 -27 4 -32 -7 -4 -8 -3 -4 4 11
18 -27 32 -46 18 -10 -7 -15 -16 -11 -20 4 -4 -1 -4 -10 0 -10 4 -16 12 -14
19 3 6 -1 12 -8 12 -7 0 -11 -5 -9 -11 2 -6 -5 -17 -17 -24 -12 -8 -18 -9 -15
-3 4 5 1 13 -5 17 -8 4 -4 11 12 20 13 7 28 9 34 6 5 -3 2 6 -8 21 -18 27 -18
28 2 15 11 -7 18 -14 16 -17 -7 -6 15 -31 27 -31 5 0 2 10 -6 21 -8 12 -13 26
-12 33 2 6 1 8 -1 4 -3 -4 -19 0 -36 8 l-31 17 17 -26 c20 -31 21 -37 6 -37
-5 0 -7 5 -3 12 5 7 2 9 -9 5 -12 -4 -14 -2 -10 9 5 14 3 14 -16 3 -26 -17
-27 -26 -3 -32 9 -2 5 -3 -9 -1 -20 2 -26 -1 -25 -14 0 -9 -5 -16 -12 -14 -10
2 -10 -2 -2 -18 9 -18 2 -27 -14 -17 -2 1 -13 -6 -23 -16 -19 -16 -21 -16 -38
3 -17 18 -17 20 -2 14 9 -3 17 -10 17 -16 0 -5 5 -6 10 -3 6 4 7 11 4 17 -5 7
-2 8 6 3 9 -5 11 -4 6 4 -4 6 -12 9 -17 6 -5 -4 -9 -1 -9 4 0 6 -7 11 -16 11
-8 0 -12 5 -9 10 3 6 1 10 -4 10 -6 0 -11 -5 -11 -12 0 -6 -6 -3 -14 7 -8 11
-12 25 -9 32 3 7 0 13 -7 13 -6 0 -8 5 -4 13 6 9 4 9 -8 -1 -10 -8 -26 -10
-42 -6 -25 6 -31 -1 -27 -28 0 -5 -4 -7 -11 -5 -6 1 -18 -9 -26 -23 -13 -23
-13 -24 -9 -2 3 12 1 22 -4 22 -5 0 -9 -5 -9 -11 0 -6 -9 -22 -20 -36 l-20
-26 4 24 c2 13 9 23 15 22 6 -2 11 1 11 6 0 5 -15 8 -32 7 -41 -4 -60 3 -51
18 3 6 -2 4 -13 -5 -19 -16 -49 -15 -39 1 3 5 -3 7 -14 5 -19 -4 -23 17 -6 32
4 4 5 2 0 -6 -5 -10 -4 -12 4 -7 6 4 9 12 5 17 -3 5 -9 7 -14 4 -4 -3 -10 4
-13 15 -3 11 -1 17 4 14 5 -3 4 6 -3 20 -6 14 -15 26 -20 26 -4 0 -8 6 -8 14
0 8 -4 18 -10 21 -6 4 -7 -1 -3 -12 7 -19 5 -18 -15 9 -10 12 -10 18 -1 24 8
4 9 3 5 -4 -5 -8 -1 -10 10 -5 14 5 15 7 1 15 -9 4 -26 23 -38 40 -13 17 -18
29 -13 25 6 -3 11 0 11 7 0 9 -7 12 -16 8 -9 -3 -13 -1 -8 3 4 5 -1 17 -10 27
-15 17 -15 20 -3 28 13 8 12 10 -2 10 -12 0 -15 6 -10 23 4 18 3 20 -9 12 -8
-5 -6 -1 6 9 l20 19 -23 -6 c-17 -4 -21 -2 -14 6 14 19 23 49 12 42 -17 -11
-11 7 8 21 15 12 14 13 -13 9 -16 -2 -24 -2 -17 1 6 3 12 12 12 20 0 9 -4 13
-8 10 -5 -3 -9 1 -9 9 0 8 4 12 8 10 4 -3 5 5 1 17 -4 16 -2 19 9 13 12 -8 12
-6 0 8 -7 9 -10 24 -7 33 4 11 2 15 -8 11 -10 -4 -13 -1 -10 8 3 7 15 12 26
10 11 -3 18 -2 14 2 -3 3 -2 11 4 17 6 8 3 12 -9 12 -13 0 -17 -5 -13 -16 3
-8 2 -12 -3 -8 -4 4 -17 2 -29 -4 -18 -10 -19 -9 -9 4 7 8 9 19 5 23 -4 5 -1
5 6 1 7 -4 12 -1 12 9 0 10 -5 13 -12 9 -8 -5 -7 0 2 11 9 11 10 16 3 11 -7
-4 -13 -2 -13 3 0 6 6 11 13 11 9 0 8 3 -2 9 -8 5 -10 14 -6 21 5 7 4 11 -1 7
-5 -3 -9 7 -10 21 -2 58 -33 118 -48 93 -4 -5 -1 -12 4 -14 6 -3 5 -4 -2 -3
-14 4 -14 10 -3 39 4 10 3 17 -5 17 -6 0 -9 -4 -5 -9 3 -5 1 -13 -5 -16 -6 -4
-10 -3 -9 2 5 28 -2 47 -11 33 -6 -9 -10 -10 -10 -3 0 6 5 15 10 18 6 4 8 11
5 16 -4 5 -1 9 6 9 7 0 5 6 -6 13 -10 8 -15 19 -11 26 16 25 19 74 4 65 -10
-6 -11 -5 -1 8 7 8 9 19 5 23 -4 5 -1 5 6 1 7 -4 10 -11 7 -16 -3 -5 -1 -11 4
-14 5 -4 8 2 6 11 -1 10 2 23 6 29 6 7 5 22 0 37 -7 18 -7 28 1 33 7 5 8 3 3
-6 -5 -8 -4 -11 3 -6 6 4 8 14 5 23 -4 9 1 22 13 31 16 12 16 14 2 9 -10 -4
-18 -2 -18 3 0 6 8 10 18 11 10 0 12 3 5 6 -7 2 -13 9 -13 15 0 6 7 7 16 4 14
-5 15 -4 4 9 -10 12 -10 15 0 15 8 0 10 3 7 7 -4 3 2 13 14 21 11 8 18 20 15
28 -3 8 0 14 7 15 7 0 3 4 -8 9 -17 7 -17 9 -2 9 9 1 17 5 17 11 0 5 -7 7 -15
4 -8 -4 -15 -2 -15 4 0 12 18 11 39 -2 9 -6 12 -5 8 1 -12 20 18 64 33 50 12
-10 12 -9 1 6 -12 16 -8 22 12 18 5 -1 6 3 3 8 -4 5 2 15 11 21 12 7 13 10 3
7 -8 -2 -24 5 -35 15 -19 18 -19 19 -1 12 15 -6 17 -4 11 6 -5 9 -4 11 4 6 6
-4 9 -11 6 -16 -8 -13 36 -3 49 11 8 8 5 8 -11 0 -22 -11 -25 -8 -22 15 0 4
-5 11 -13 16 -10 8 -10 9 2 5 8 -2 14 -10 12 -16 -1 -7 2 -10 8 -6 6 3 8 11 5
16 -4 5 -1 9 5 9 6 0 15 11 22 25 6 13 15 22 19 19 5 -3 5 6 0 20 -8 19 -6 27
7 38 15 12 16 11 4 -4 -9 -11 -10 -18 -2 -23 5 -3 10 1 10 10 0 10 5 14 13 9
9 -6 9 -4 0 7 -16 17 -17 30 -1 26 7 -1 12 11 13 31 1 17 -2 32 -7 32 -5 0 -8
-6 -6 -12 3 -18 -24 -58 -41 -58 -8 0 -4 8 10 20 20 16 21 19 7 20 -10 0 -18
4 -18 10 0 5 7 7 15 4 8 -4 15 -1 15 5 0 10 -14 15 -33 12 -5 -1 -6 3 -2 8 3
6 13 7 23 4 15 -6 16 -5 2 13 -14 18 -14 18 6 1 24 -20 41 -23 27 -4 -12 14
-13 48 -2 41 4 -2 14 5 22 16 13 18 15 19 21 5 3 -9 4 -21 0 -26 -3 -5 0 -9 5
-9 6 0 11 7 11 16 0 9 5 13 13 9 6 -4 4 0 -5 8 -10 8 -18 20 -18 28 0 11 2 11
10 -1 7 -12 12 -12 22 -2 9 9 9 12 -3 13 -7 0 -4 4 9 9 12 5 22 15 22 22 0 9
-3 9 -11 -2 -9 -13 -10 -13 -6 0 3 10 15 14 33 13 16 -1 24 1 17 5 -8 5 -8 11
1 24 7 10 16 15 19 11 4 -3 7 -2 7 4 0 11 -69 12 -87 0 -6 -4 -15 -2 -19 4 -4
7 -3 9 3 6 6 -4 16 0 23 8 10 12 10 15 0 15 -8 0 -10 3 -6 7 4 5 14 -1 22 -11
7 -11 17 -17 20 -13 4 4 2 12 -3 19 -14 18 -13 52 1 38 16 -16 30 -12 16 5 -9
10 -9 15 -1 15 6 0 11 -5 11 -11 0 -5 6 -7 13 -3 9 5 9 4 0 -6 -9 -10 -9 -16
2 -26 18 -19 31 -18 15 1 -6 8 -9 19 -6 24 4 5 2 12 -4 16 -5 3 -10 11 -10 16
0 6 7 3 16 -5 14 -14 34 -14 34 0 0 3 -4 3 -9 -1 -5 -3 -12 -1 -16 5 -3 5 -1
10 5 10 6 0 8 5 5 10 -4 6 -10 8 -15 5 -5 -3 -12 0 -16 6 -4 8 -3 9 4 5 11 -6
16 5 13 26 0 4 7 4 16 1 12 -5 14 -3 7 8 -13 21 -14 39 -1 36 7 -1 11 5 9 13
-1 10 2 9 13 -4 8 -11 18 -17 22 -13 3 4 -2 17 -13 29 -10 13 -12 17 -4 10 8
-6 18 -12 22 -12 12 0 5 23 -12 38 -12 11 -11 11 10 0 14 -7 29 -11 35 -9 5 1
2 -6 -8 -17 -19 -21 -22 -32 -6 -32 5 0 7 5 3 12 -5 7 -2 9 8 5 10 -3 15 0 14
11 0 10 5 16 13 14 11 -2 12 0 3 11 -7 8 -8 18 -4 23 4 4 -1 3 -10 -4 -18 -14
-53 0 -62 25 -8 19 1 16 24 -9 11 -12 21 -20 21 -17 7 22 4 47 -4 42 -7 -4 -8
1 -4 13 7 18 7 18 -8 0 -8 -11 -15 -15 -15 -9 0 6 -7 14 -16 17 -8 3 -12 2 -9
-4 3 -6 -1 -10 -10 -10 -9 0 -13 5 -10 11 4 6 -2 5 -14 -2 -11 -8 -16 -16 -10
-20 6 -3 3 -11 -7 -20 -12 -9 -15 -10 -10 -1 4 6 2 12 -3 12 -6 0 -11 -7 -11
-15 0 -8 5 -15 12 -15 6 0 8 -3 5 -6 -4 -4 -14 -1 -23 7 -15 12 -16 11 -10
-11 6 -21 5 -22 -4 -7 -6 9 -16 17 -23 17 -8 0 -8 -3 -2 -8 6 -4 11 -17 11
-30 1 -18 -1 -20 -12 -11 -11 9 -14 8 -14 -4 0 -11 -5 -14 -17 -10 -11 4 -14
3 -9 -5 4 -7 2 -12 -3 -12 -6 0 -11 7 -11 15 0 8 -4 15 -10 15 -13 0 -13 -6 1
-33 9 -19 7 -18 -10 3 -11 14 -21 21 -21 16 0 -5 -6 -3 -14 3 -11 9 -16 9 -22
0 -5 -8 -3 -9 6 -4 8 5 11 4 6 -3 -4 -7 1 -10 14 -7 11 2 18 0 15 -5 -3 -4
-11 -7 -18 -6 -21 3 -38 17 -32 27 4 5 -2 9 -12 10 -14 0 -13 2 6 10 17 7 22
15 18 31 -4 16 -3 18 6 9 14 -14 27 -14 27 0 0 5 -4 7 -10 4 -14 -9 -12 8 3
24 8 10 8 12 0 7 -6 -3 -15 -2 -18 4 -4 6 -3 10 2 9 26 -4 38 1 23 11 -11 7
-11 10 -2 10 7 0 10 5 7 10 -4 6 -11 8 -16 5 -5 -3 -6 1 -2 10 4 13 8 14 14 4
6 -11 9 -10 14 3 4 10 3 22 -1 29 -4 7 -3 9 2 6 6 -3 16 -2 24 4 13 7 13 9 1
9 -11 0 -10 4 5 16 10 8 12 13 4 9 -8 -3 -5 2 7 11 17 12 20 20 13 34 -11 20
12 36 33 23 7 -4 5 2 -3 12 -10 13 -11 16 -2 11 9 -5 15 -1 19 13 3 11 9 18
14 15 5 -3 9 2 9 11 0 9 5 13 10 10 6 -3 10 3 10 15 0 12 3 19 8 17 4 -3 13 2
21 10 12 13 11 15 -10 9 -13 -3 -18 -3 -11 0 6 3 10 10 7 15 -4 5 1 6 9 3 9
-3 16 -1 16 6 0 6 5 8 12 4 7 -5 10 -2 6 7 -6 17 29 53 37 39 4 -6 1 -10 -5
-10 -6 0 -8 -5 -5 -11 5 -6 13 -2 22 11 8 11 20 19 26 17 14 -4 37 16 37 32 0
10 14 15 33 12 4 0 6 5 5 11 -2 7 2 12 9 11 8 -2 10 4 6 15 -3 9 -3 14 2 10 4
-4 17 10 27 32 11 22 25 37 31 33 6 -4 8 2 5 15 -4 13 -2 20 4 16 5 -3 8 2 6
12 -2 12 2 18 10 16 8 -1 11 2 7 8 -3 5 1 13 10 16 13 5 14 9 4 15 -7 4 -14
16 -15 26 -2 16 -2 16 9 2 10 -14 14 -14 25 -3 16 18 15 29 -2 15 -11 -9 -15
-8 -20 4 -4 10 -2 14 5 9 7 -4 10 -1 7 7 -3 8 2 20 11 27 13 11 13 12 1 7 -10
-4 -9 -2 3 8 9 8 17 20 17 26 0 7 5 9 13 5 8 -5 8 -2 -2 9 -12 16 -8 22 13 18
5 -1 6 5 2 14 -3 9 -2 14 2 12 11 -5 51 40 43 50 -3 4 4 -1 17 -11 12 -11 22
-15 22 -10 0 5 5 1 11 -8 5 -10 14 -18 19 -18 6 0 0 11 -12 25 -11 13 -24 22
-28 20 -5 -3 -10 2 -14 10 -3 8 -1 15 5 15 6 0 8 4 5 8 -3 5 1 9 8 9 8 0 12
-6 10 -12 -8 -19 24 -41 39 -26 9 10 8 11 -5 6 -18 -7 -23 2 -19 33 1 6 -8 13
-21 13 -17 1 -18 3 -5 6 9 2 17 10 17 18 0 7 7 15 15 19 8 3 15 11 15 18 0 9
-3 8 -10 -2 -6 -9 -10 -10 -10 -3 0 18 35 34 47 22 6 -6 15 -4 24 7 9 12 10
15 2 10 -8 -4 -13 -1 -13 9 0 9 6 15 12 13 7 -3 19 1 26 9 8 7 18 10 24 7 7
-5 8 -2 3 6 -6 10 -4 12 10 6 15 -6 16 -4 4 10 -11 14 -10 15 7 12 11 -2 18 2
16 10 -1 6 3 12 9 12 5 0 7 5 3 12 -4 6 -3 8 3 5 15 -10 64 16 58 31 -2 6 2
12 9 12 8 0 22 8 33 18 10 9 13 13 6 8 -28 -19 -34 10 -8 34 16 15 25 19 25
10 0 -7 3 -10 6 -7 4 4 1 13 -6 22 -14 17 2 46 23 42 7 -1 11 4 9 11 -1 6 3
12 9 12 5 0 7 5 3 11 -4 8 1 9 17 5 13 -3 18 -3 12 0 -17 8 -17 27 0 21 10 -4
13 2 9 20 -3 18 -1 24 7 19 6 -4 11 -2 11 4 0 6 5 8 12 4 8 -5 9 -2 5 10 -5
11 -3 15 5 10 7 -5 9 -2 5 9 -4 12 -2 14 10 10 9 -4 14 -2 11 3 -3 5 4 18 15
29 11 11 16 14 12 6 -6 -10 -4 -12 4 -7 9 6 9 11 0 22 -9 11 -8 14 6 14 11 0
15 5 11 16 -3 8 -2 12 4 9 6 -3 10 -1 10 5 0 6 5 8 12 4 7 -4 8 -3 4 4 -7 12
23 54 35 47 4 -3 6 1 5 8 0 6 3 13 8 14 15 2 28 32 20 45 -5 7 -3 8 6 3 10 -6
12 -4 7 8 -4 12 -2 14 10 10 10 -4 14 -2 10 4 -4 6 0 14 9 17 10 4 14 12 10
22 -6 15 -4 15 11 3 15 -12 16 -12 10 3 -3 10 1 22 11 30 15 12 16 11 4 -4 -9
-11 -10 -18 -2 -23 6 -4 10 -3 9 2 -5 23 23 71 39 66 11 -5 14 -2 9 10 -3 9 1
21 11 29 16 12 16 11 2 -7 -14 -20 -14 -20 7 -1 13 10 20 22 17 27 -6 11 32
49 41 41 4 -4 6 0 5 8 -4 29 0 38 27 55 25 17 26 17 19 -1 -5 -15 -4 -16 5 -7
15 15 3 33 -19 27 -9 -3 -6 1 8 9 14 9 25 21 25 29 0 16 27 18 38 3 5 -5 5 0
2 13 -6 21 2 27 28 23 5 -1 6 3 2 8 -3 6 -13 8 -23 5 -13 -5 -14 -4 -4 4 8 5
13 13 12 18 -1 5 13 12 29 17 41 10 40 19 -1 13 l-33 -5 28 13 c15 7 24 15 21
19 -4 4 -2 7 4 7 7 0 12 -6 12 -12 0 -9 3 -8 10 2 6 9 5 17 -3 22 -7 5 0 8 17
8 23 0 26 3 17 13 -14 18 -2 30 16 16 9 -8 13 -8 13 -1 0 7 7 9 17 5 15 -6 16
-5 3 9 -8 9 -17 12 -20 7 -3 -4 -11 -4 -19 0 -9 6 -7 10 8 14 12 3 24 1 27 -4
4 -6 11 -6 18 0 7 6 17 7 21 3 5 -4 5 -2 2 4 -4 7 -1 17 7 23 8 7 16 8 18 4 3
-4 4 -3 2 3 -1 6 9 17 23 23 14 7 23 14 20 17 -3 3 -14 1 -25 -5 -11 -6 -23
-7 -27 -3 -5 4 -5 1 -1 -5 5 -9 2 -11 -10 -6 -14 5 -14 7 -1 15 9 5 14 17 12
30 -3 11 -1 17 3 14 4 -4 7 -13 7 -19 0 -5 6 -12 14 -15 8 -3 11 0 7 6 -8 13
27 10 36 -3 5 -6 8 -5 8 4 0 10 3 11 14 2 10 -8 16 -9 21 -1 4 6 3 9 -2 8 -4
-2 -9 1 -11 6 -1 6 5 11 14 12 9 2 20 8 25 15 10 16 0 41 -14 32 -6 -3 -7 -1
-3 6 6 9 11 9 21 1 20 -16 37 -2 30 23 -5 20 -5 20 5 4 14 -22 33 -12 25 13
-7 21 10 36 21 19 4 -8 3 -9 -4 -5 -8 5 -10 1 -5 -9 4 -12 8 -13 13 -5 4 7 14
17 21 22 11 8 10 9 -3 4 -10 -3 -18 -1 -18 4 0 9 14 14 32 11 4 0 5 9 3 20 -3
15 0 19 10 15 10 -3 12 0 8 11 -4 11 -2 14 5 9 7 -4 10 1 7 15 -3 15 0 19 10
15 12 -4 12 -1 -1 19 -14 22 -14 25 -1 19 18 -7 32 12 16 22 -8 5 -9 3 -4 -6
5 -9 4 -11 -4 -6 -9 6 -9 11 0 22 20 24 -19 52 -78 56 -7 1 -10 5 -7 10 3 4
14 4 24 -2 10 -6 21 -6 24 -2 3 5 0 9 -7 9 -7 0 -16 2 -22 3 -27 7 -44 -1 -39
-17 5 -15 4 -15 -4 -3 -6 8 -8 18 -5 24 4 5 -1 7 -11 3 -12 -5 -16 -3 -13 5 2
7 10 12 16 10 7 -1 10 2 6 8 -5 8 -11 7 -21 -1 -11 -9 -14 -8 -14 5 0 9 -6 15
-12 14 -7 -2 -12 3 -10 10 1 8 -2 11 -8 7 -5 -3 -10 -2 -10 2 0 5 -9 9 -19 10
-11 1 -19 -4 -17 -10 1 -7 1 -9 -1 -5 -3 4 -3 10 -1 13 5 7 -43 38 -49 31 -4
-3 -1 -6 6 -6 7 0 9 -5 5 -12 -5 -7 -2 -8 7 -3 8 5 10 4 6 0 -10 -12 -38 -15
-31 -4 3 5 1 9 -4 9 -6 0 -12 -6 -15 -14 -6 -15 -23 -16 -45 -2 -11 7 -12 4
-3 -12 9 -17 8 -19 -8 -15 -13 3 -18 12 -16 25 4 16 2 18 -11 7 -8 -6 -12 -14
-9 -17 3 -3 -5 -12 -17 -19 -20 -12 -20 -13 -3 -8 13 3 24 -2 33 -15 7 -12 8
-20 2 -20 -5 0 -10 4 -10 8 0 4 -10 8 -21 9 -17 2 -19 -1 -10 -10 6 -6 11 -14
11 -19 0 -4 -11 4 -25 18 -24 24 -53 25 -39 2 5 -7 2 -8 -5 -3 -9 5 -10 10 -2
18 13 13 15 31 3 23 -4 -2 -9 5 -9 16 -2 20 -1 20 13 2 14 -18 14 -18 8 1 -5
16 -4 17 5 5 6 -8 11 -11 11 -6 0 5 6 3 14 -3 11 -9 16 -9 22 0 4 7 3 9 -4 5
-5 -3 -12 -2 -14 4 -1 5 -14 11 -27 13 -14 2 -28 12 -33 23 -7 16 -8 16 -4 -3
2 -13 0 -23 -6 -23 -5 0 -6 -5 -2 -12 4 -6 3 -8 -3 -5 -5 3 -9 19 -8 35 1 27
-1 29 -32 26 -20 -1 -30 2 -27 8 4 6 -2 7 -17 3 -23 -7 -24 -7 -4 8 19 16 19
16 -5 11 -24 -5 -24 -5 -6 10 23 18 14 21 -15 5 -11 -5 -16 -15 -13 -21 4 -7
3 -8 -4 -4 -6 4 -9 13 -6 21 4 11 -1 13 -23 9 -26 -5 -26 -4 -9 9 17 12 17 15
2 29 -14 14 -14 17 0 22 10 4 13 2 8 -6 -4 -7 -3 -8 4 -4 6 4 10 20 8 37 -3
23 0 29 11 25 8 -3 11 -1 8 4 -3 6 -13 10 -22 10 -10 0 -13 6 -9 16 3 8 2 12
-3 9 -9 -5 -6 34 5 64 3 11 1 11 -9 3 -10 -9 -14 -8 -14 3 0 8 4 15 9 15 4 0
7 11 6 24 -2 18 -6 22 -14 15 -8 -7 -14 -6 -19 1 -5 8 -10 8 -20 0 -10 -8 -15
-8 -21 1 -5 8 -3 9 6 4 8 -5 11 -4 6 3 -4 7 2 9 19 6 14 -2 25 0 25 4 0 5 -12
8 -27 6 -16 -1 -28 -3 -28 -4 0 -1 -11 -3 -24 -6 -20 -4 -22 -2 -11 11 7 8 10
15 7 15 -3 0 -9 -5 -12 -10z m852 -1213 c2 -13 0 -17 -5 -10 -5 8 -11 8 -24
-1 -20 -15 -13 -27 10 -19 12 5 14 2 9 -11 -5 -11 -3 -16 5 -14 6 2 12 12 14
22 1 10 6 21 9 24 4 4 5 -2 3 -12 -1 -10 3 -21 11 -24 9 -3 11 0 6 8 -6 10 -4
12 8 7 9 -3 19 -2 22 3 4 6 2 10 -2 10 -5 0 -18 7 -29 15 -17 14 -16 14 13 1
20 -10 34 -12 38 -6 3 6 12 10 18 9 9 0 8 -2 -1 -6 -6 -2 -9 -10 -6 -15 4 -6
2 -8 -3 -5 -6 4 -16 0 -23 -8 -11 -13 -9 -15 10 -12 13 2 29 12 36 22 8 10 17
15 21 11 4 -4 1 -11 -6 -15 -8 -5 -9 -11 -3 -15 5 -3 15 1 22 9 7 8 17 15 22
15 6 0 0 -9 -13 -20 -14 -11 -18 -19 -11 -20 18 0 64 48 57 59 -3 5 -1 12 4
16 16 9 3 -36 -15 -56 -10 -11 -12 -19 -6 -19 6 0 19 11 28 25 9 14 21 22 27
18 7 -4 8 0 3 13 -5 14 -4 16 5 7 13 -13 3 -37 -12 -28 -15 10 -10 -12 6 -25
8 -7 15 -17 15 -23 0 -6 -7 -2 -15 10 -15 21 -17 21 -35 6 -15 -13 -16 -19 -7
-25 7 -5 0 -6 -16 -4 -22 4 -27 2 -23 -9 3 -9 0 -12 -10 -8 -11 4 -12 8 -3 19
9 12 7 14 -12 12 -19 -2 -23 1 -21 16 3 18 2 18 -13 6 -16 -13 -16 -15 4 -31
11 -9 17 -19 14 -23 -3 -3 -12 2 -20 12 -13 16 -14 15 -8 -5 4 -14 2 -23 -4
-23 -6 0 -10 3 -10 8 5 29 -29 42 -39 14 -2 -7 2 -10 10 -9 7 2 10 2 5 0 -4
-3 -5 -8 -3 -12 3 -4 -4 -7 -14 -8 -11 -1 -23 3 -26 9 -4 7 -9 6 -15 -3 -4 -7
-11 -10 -16 -6 -4 5 -1 12 7 17 8 5 16 18 16 29 1 11 -3 18 -8 15 -4 -3 -6
-10 -3 -15 6 -8 -8 -13 -27 -10 -9 1 -6 -29 4 -44 4 -6 2 -17 -4 -25 -8 -12
-9 -12 -4 3 3 11 0 20 -9 24 -10 3 -13 12 -10 23 7 23 -22 21 -40 -3 -13 -18
-30 -24 -20 -7 3 6 1 10 -4 10 -6 0 -11 5 -11 11 0 8 5 8 15 -1 9 -8 15 -9 15
-2 0 6 -10 18 -22 28 -18 13 -19 15 -4 10 14 -5 17 -2 12 9 -3 9 -2 13 4 10 6
-3 10 -1 10 4 0 6 5 11 12 11 9 0 9 -3 0 -12 -19 -19 -14 -33 6 -16 9 9 23 13
31 10 22 -8 2 18 -23 29 l-21 10 22 -5 c27 -5 66 21 57 37 -4 7 -3 9 1 4 5 -4
10 -18 12 -30z m139 -4036 c15 13 17 9 8 -15 -5 -12 -10 -14 -19 -6 -9 8 -14
6 -19 -5 -9 -24 4 -44 25 -40 27 5 46 -3 46 -20 0 -12 -3 -12 -15 -3 -18 15
-42 19 -42 7 0 -9 15 -13 33 -10 5 1 5 -9 1 -21 -6 -21 -6 -22 11 -8 11 8 16
10 12 3 -4 -6 -4 -13 0 -16 5 -2 3 -2 -4 -1 -7 2 -15 -1 -18 -6 -4 -6 -14 -10
-23 -9 -15 0 -15 1 -1 7 11 5 14 13 9 27 -7 18 -8 19 -15 3 -4 -10 -12 -18
-18 -18 -7 0 -7 4 1 12 16 16 15 31 0 21 -7 -4 -16 -8 -20 -9 -5 -1 -11 -2
-15 -3 -5 -1 -2 -5 5 -10 11 -7 11 -9 -1 -14 -16 -6 -17 9 -4 31 10 15 2 15
-25 1 -13 -7 -18 -7 -14 -1 9 15 -39 8 -58 -8 -11 -8 -16 -9 -16 -1 0 6 6 11
13 11 6 0 4 5 -5 11 -22 12 -23 33 -2 53 20 21 32 20 30 -1 0 -10 5 -17 12
-15 13 2 16 -10 5 -22 -4 -4 -15 3 -24 15 -12 16 -18 19 -24 9 -5 -9 -4 -11 3
-6 7 4 12 3 12 -3 0 -5 -3 -11 -7 -14 -5 -2 -2 -2 5 0 7 1 11 -1 8 -5 -2 -4 4
-9 15 -9 10 -1 19 3 19 8 0 6 4 7 10 4 5 -3 7 0 4 8 -3 8 0 18 6 22 7 4 9 -2
6 -19 -3 -14 0 -26 5 -26 5 0 9 4 9 9 0 10 19 9 38 -2 6 -5 12 -4 12 2 0 13
-35 32 -44 24 -3 -3 -6 2 -6 11 0 12 5 16 16 12 8 -3 12 -2 9 4 -3 6 0 10 7
10 10 0 9 3 -2 11 -13 9 -12 10 3 5 10 -3 17 0 18 7 0 9 2 8 6 -1 4 -10 8 -10
19 -1z"/>
<path d="M4414 4103 c3 -6 0 -18 -7 -25 -12 -11 -12 -15 2 -26 9 -7 11 -11 5
-8 -8 4 -11 -5 -9 -24 2 -18 -1 -27 -8 -23 -6 4 -7 1 -2 -8 7 -12 6 -12 -6 0
-11 11 -11 14 -1 18 10 4 10 8 0 21 -11 13 -11 14 2 7 13 -8 13 -7 0 11 -22
29 -24 30 -17 12 3 -10 2 -20 -4 -23 -5 -4 -7 -10 -4 -15 3 -4 -2 -13 -10 -20
-11 -9 -12 -17 -4 -32 8 -15 8 -23 -1 -32 -8 -8 -9 -6 -4 8 5 12 4 17 -3 13
-6 -4 -9 3 -7 18 3 29 -13 42 -29 26 -9 -9 -8 -11 4 -6 10 4 16 0 16 -9 0 -12
-8 -14 -31 -11 -22 4 -27 3 -16 -4 8 -5 17 -8 21 -5 4 2 11 -1 15 -7 4 -8 3
-9 -4 -5 -7 4 -17 -3 -24 -18 -13 -29 -18 -31 -37 -13 -11 10 -13 9 -9 -3 2
-8 14 -19 27 -25 17 -8 21 -16 16 -35 -4 -21 -4 -22 5 -7 7 10 16 14 23 10 7
-4 4 6 -7 21 -10 16 -12 25 -5 21 9 -6 11 -3 6 8 -4 11 -2 14 8 11 7 -3 12
-14 10 -24 -4 -18 28 -21 44 -4 3 4 -2 4 -11 1 -24 -9 -23 5 1 23 11 7 18 17
15 22 -3 4 0 8 6 8 6 0 8 5 5 10 -6 9 8 14 28 11 5 -1 6 3 3 8 -4 5 -2 12 3
16 6 3 7 13 4 23 -6 15 -5 15 11 3 15 -12 17 -12 14 0 -2 8 2 13 9 12 9 -2 11
16 3 37 -1 3 -2 8 -1 13 0 4 -4 7 -10 7 -6 0 -8 -7 -5 -16 4 -10 1 -14 -6 -11
-7 2 -13 11 -13 20 0 8 -4 19 -9 24 -5 4 -6 3 -2 -4z"/>
</g>
</svg>
