<?xml version="1.0" encoding="UTF-8" standalone="no"?>
<svg
   version="1.0"
   width="1024.000000pt"
   height="1024.000000pt"
   viewBox="0 0 1024.000000 1024.000000"
   preserveAspectRatio="xMidYMid meet"
   id="svg10"
   sodipodi:docname="9.svg"
   xmlns:inkscape="http://www.inkscape.org/namespaces/inkscape"
   xmlns:sodipodi="http://sodipodi.sourceforge.net/DTD/sodipodi-0.dtd"
   xmlns="http://www.w3.org/2000/svg"
   xmlns:svg="http://www.w3.org/2000/svg">
  <defs
     id="defs14" />
  <sodipodi:namedview
     id="namedview12"
     pagecolor="#ffffff"
     bordercolor="#666666"
     borderopacity="1.0"
     inkscape:pageshadow="2"
     inkscape:pageopacity="0.0"
     inkscape:pagecheckerboard="0"
     inkscape:document-units="pt" />
  <metadata
     id="metadata2">
Created by potrace 1.16, written by Peter Selinger 2001-2019
</metadata>
  <g
     transform="translate(0.000000,1024.000000) scale(0.100000,-0.100000)"
     fill="#000000"
     stroke="none"
     id="g8">
    <path
       d="m 3897,9844 c -199.8418,-38.0202 -260.4094,-76.5419 -397,-164 -74.7965,-98.9223 -301.8057,-332.7257 -205,-300 -48.7124,-43.1972 -131.4695,-331.7905 -114,-272 -23.78,-92.0371 -20.2663,-479.2745 -26,-338 25.5019,-222.733 7.9903,-46.9141 52,-302 -51.164,-108.5879 -232.9798,-32.9253 -181,42 -8.3176,35.6158 -21.8303,-13.1549 -69,-88 -119.3362,76.158 23.1571,46.6293 -23,-44 154.3441,127.9653 -65.1347,-203.4828 -49,-118 -99.2318,5.6168 -12.0661,28.667 8,50 -75.6188,16.6467 -32.2884,-84.5761 -53,-72 -108.216,-29.6461 -271.2566,-103.5159 -275,22 49.583,-52.8815 316.7997,-235.0415 231,-162 64.7639,14.809 5.664,-75.4529 98.375,-153 29.1787,18.862 414.1441,-781.2085 94.625,-155 -1.8559,1.7893 78.1919,-148.1356 45.2604,-135.5434 -45.1399,-74.7432 65.0509,-357.6062 75.0677,-248.6128 C 3092.4802,7373.1549 3162.719,7081.468 3167,7164 c 37.0793,-53.2408 91.6032,-392.4407 77,-288 16.061,-69.7528 60.6905,-336.6501 67.875,-257.625 51.8234,-79.5852 154.4299,-289.6104 114.125,-193.375 8.0642,-51.5646 86.9976,-290.5605 72,-214 46.2362,-84.1081 217.1424,-406.3851 152,-285 71.0223,-96.8374 321.8114,-502.2138 247,-300 104.105,-49.527 322.8183,-238.7399 248,-191 26.9059,-37.7384 51.7987,-158.7771 74,-100 22.6476,13.9831 139.4646,-188.3281 101,-110 -31.7963,-46.6234 138.9359,-162.7276 37,-92 117.4751,-49.6789 423.8171,-154.131 318,-115 68.4016,22.0747 281.8748,-92.2035 223,-48 120.2247,-13.5918 390.1391,-18.3716 270.25,-32 68.8652,-5.3872 271.0554,-12.231 231.375,3 24.4715,59.6692 162.421,80.0379 123.875,64 59.873,92.121 148.5264,153.9764 100.5,106 -5.7027,-36.6693 237.7027,-40.379 160.125,3.5 129.4585,-1.3424 209.9272,125.4459 145.875,113.5 21.6211,-13.1782 -85.192,-59.2308 -60,45 -34.0458,152.7159 32.8501,55.6174 63,12 7.9286,0.1987 -37.0009,-59.7237 19.6692,-80.247 8.4783,-289.8611 22.1841,-106.7902 3.3308,-344.753 -14.0492,-67.1615 93.4393,-88.7948 58.75,-234.125 63.9258,93.6328 165.2419,178.6034 51.25,180.125 -70.0127,-60.2654 -30.052,-297.2495 8,-206 -46.7997,50.8785 -47.6152,-241.8532 40,-201 5.4208,-91.8193 -108.4382,-141.5853 11.5,-165.125 17.1693,-91.0896 2.4086,-203.37 53.5,-129.875 -59.1424,121.0714 -79.8831,-164.9292 -5.375,-189.625 1.8268,-82.6959 -49.6438,-69.1108 -53.625,-24.375 20.4499,-100.8547 -69.1446,-45.4719 -8,-130 -27.3191,163.1512 26.5699,-104.1432 -37.5,-103.375 -45.71,-50.9263 55.4154,-190.2433 39.5,-123.625 -76.8387,41.8102 0.8517,-134.3879 -138.5156,-66.9375 -46.1128,-14.914 -113.9157,-96.0871 -39.2344,-134.5625 -23.0914,-142.5286 -64.4246,-256.0291 -66.25,-191.5 -49.3212,-62.5224 15.9063,-305.1719 6,-251 -11.3801,-176.7416 50.2694,-154.7128 58,1 -31.7671,-50.3677 -90.9083,-98.1214 -62,-139 14.4437,148.509 -33.5321,-87.2025 -35,-47 -63.6373,-185.0357 45.794,9.4506 32,-22 -64.3873,68.9147 116.3952,5.9189 -9,-66 26.7762,-43.4025 -31.0562,95.6705 -40,-41 -73.6103,-34.3952 -110.8505,-216.1314 -45,-163 -63.7869,-88.0526 -123.8789,-100.2762 -39,-106 119.4758,11.9614 71.6982,-79.6344 -49,-123.375 -1.0362,80.9664 39.7331,-88.6433 57,-24.625 -17.0511,54.2203 -189.9016,-67.3304 -141,-83 -89.9945,-79.8717 -10.7808,-70.0441 -142.25,-190 135.9026,-138.9074 -94.7926,53.0266 -2.75,-80 -34.9598,-61.4143 -160.1246,-164.8199 -88,-60 -74.4883,-68.9375 -82.8289,-132.4005 54,5 -85.6111,-103.1124 -238.3417,-230.2769 -177.375,-176.75 25.7324,-48.8874 127.4594,134.9026 37.375,-36.25 58.3141,-56.8909 23.2842,-133.1965 -76.375,-48.5 75.1047,58.7844 -57.5215,-51.4079 -4.625,-33.5 -72.2645,67.6063 -123.8341,-76.7262 -88.375,-61.625 -115.6293,49.4064 -152.5082,36.014 -103.625,-37.375 -42.6741,-4.5052 -140.1903,-226.7632 -116.75,-172.875 45.0149,10.5638 131.8741,-168.6712 25.75,-183.125 7.8498,-45.26864 -61.0745,-218.94292 -47,-164 44.413,-95.26319 2.7271,-296.17855 -54,-270 -46.138,-149.70233 137.8219,-71.81078 101,-101 15.6718,-155.72768 114.9933,43.07294 90,73 27.3682,-67.32056 166.0673,96.73315 30,-8 -49.5533,96.89463 475.9637,116.4456 150,120 0.1023,66.12764 60.2435,202.79785 79.125,87.75 106.8715,138.58662 159.0509,-212.73082 86.875,102.25 48.9365,-114.89806 54.4274,15.13003 103,51 -85.7295,-62.47401 65.2908,187.0554 26.75,72.875 71.7888,136.5669 106.4571,67.3497 42.25,-2.875 1.1108,99.0681 72.7955,296.2237 45.875,232.75 -99.9846,-54.5167 293.6452,312.7053 118.125,160.25 -0.4158,33.9443 51.57,78.0546 82,89 -47.8754,-66.1463 -85.8385,-136.7206 -92,-123 28.6973,-155.1037 248.1473,60.8924 144,79 29.1443,-10.6207 118.7649,34.6527 59,67 66.6907,33.0917 220.8339,183.6004 133,140 41.1171,36.5832 -7.7991,61.165 37.875,95.75 -28.5636,54.403 -42.5166,13.0916 -44.875,-45.75 -51.3841,74.1051 75.8935,173.9794 45,119 55.6895,-33.0753 210.3196,80.3812 113.625,75.125 14.3593,46.2837 -55.5068,-0.3466 -4.625,-34.125 -127.8993,-97.0712 59.538,-6.9059 -6,-72 16.2612,21.3308 244.2675,235.958 173,185 72.5256,152.7234 -95.0236,-72.7119 -4.8281,100.1719 -5.3252,24.196 25.8094,77.2813 49.8281,129.8281 49.0217,25.6751 174.4905,210.4991 115,125 -115.8893,-43.8051 23.5776,-161.8017 37,-37 -118.7199,-13.3819 -107.6903,-162.3488 -90,-136.875 -91.4045,43.0943 -104.099,-63.7532 -54,-60.125 56.1565,44.9398 138.6053,170.3533 113,119 20.9981,12.0241 134.7966,296.0072 95,200 -38.2696,-39.7992 -3.2088,279.8764 -50,29 -14.7002,18.1742 14.9575,179.3234 43,127 70.8079,63.0015 71.6068,9.9602 69.375,-10.125 -78.2622,-158.7464 140.4892,291.5369 75.625,99.125 -111.973,-51.5361 83.8669,116.1099 -71,-14 -96.309,-129.7629 66.1606,-45.4337 44,83 48.3733,-46.495 40.3113,-70.6902 46,47 6.124,-58.2753 34.6454,92.0342 44.1406,85.3594 -93.6919,-21.2478 54.0963,182.7721 26.8594,160.6406 14.5686,68.2171 25.1033,228.2641 68,114.125 8.6548,-32.0194 -63.1806,41.218 16,110.875 -14.5923,-83.6819 60.6399,125.0733 -20,49 37.9315,84.0556 68.6837,229.9002 24,133 31.6774,-3.4782 49.7979,147.7862 42,114 153.4842,4.2567 159.2088,88.85 90,81 -23.2413,87.8868 140.6512,73.8091 96.875,129.75 -3.7934,11.349 78.0986,192.0166 -37.125,48.875 -3.1353,-127.4041 -50.6783,105.1113 -28,71.625 56.7837,-35.3024 113.3813,62.01 84.25,45.75 -35.3581,72.4023 -10.5512,150.6941 -19,161 48.3681,25.1174 25.823,226.9271 24.5,147.75 32.6473,84.8555 86.4438,135.8366 17.5,123.25 4.7372,67.8063 18.5017,104.7401 -50,116 30.0726,21.7863 -142.783,148.9778 -47,103 176.009,-26.1239 130.6433,-38.8437 37,55 -9.9481,-53.0735 -41.5983,-35.2042 -49,75 84.3781,-64.7714 31.83,136.1194 -10,122 -46.6797,83.2705 47.295,-123.5104 -21.5,-10.5 -117.6524,84.805 -85.009,227.7844 -75.5,194.5 -55.8425,-31.0551 -145.6552,182.2422 -68.5,118.5 46.1253,-29.2449 85.3245,95.6976 61.5,-44.5 -74.728,94.3061 -106.3097,212.8603 -55,173 -15.6185,-236.1292 -48.4602,-6.6166 -33,-36 35.8963,142.8412 -70.4068,332.1681 -25,277 79.1261,42.2487 68.728,184.9668 4,138 -47.9607,117.8377 -93.0419,281.3188 -119,157 -27.7751,-124.4764 1.6954,209.6109 -9,101 71.0976,119.6326 89.0939,190.0136 6,126 -54.4184,122.3898 -95.377,72.7107 -57.4375,32.4531 74.6002,125.5178 -4.611,168.4334 -55.5625,145.5469 -1.8392,52.0323 -198.5227,198.5689 -119,175 147.6362,-43.7162 1.1131,133.42 -35.375,98.875 C 6549.7848,6244.8456 5729.1171,7560.9644 6251,6655 c 9.9703,24.381 -398.7805,254.0868 -291,200 -58.02,66.3171 -160.4535,74.5681 -75,127 -30.5912,8.4198 -56.1024,319.736 -45,27 -53.1799,-2.2208 -97.7568,-19.5634 -5.5,-101.875 -47.8279,150.6949 31.3773,283.3779 -38.5,149.875 -59.7943,22.3999 -17.7932,130.2068 -32,149 -21.0316,30.376 -54.3144,154.4691 -54,122 -47.4314,74.269 68.046,107.369 83,41 -17.5301,62.2578 -69.9084,266.0559 -38,155 -5.7134,62.111 -22.6238,245.5249 -34,186 -33.4172,100.5978 -23.0622,277.3087 -42,250 -37.2653,114.7008 -81.4086,105.5919 -8,75 -67.52,81.8669 -45.7676,311.572 -42.875,222.625 -23.2325,40.4852 -90.5039,-32.188 -58.875,-35.625 -7.5192,-38.9105 62.6456,-201.548 28.75,-172 38.3689,-76.789 -11.4175,-262.0279 13,-164 54.4221,142.2691 148.0786,-12.9446 68,-86 3.3022,-47.6057 25.2953,-161.3716 5.125,-166.5 98.0328,-85.4413 -12.3973,-97.6626 -47.125,-62.5 31.7758,39.5321 30.6859,110.0293 11.625,141 -54.8337,129.7829 -76.7038,383.968 -55.625,260 -36.9218,33.6527 -94.0759,323.3297 -55,219 -25.0138,86.8848 -44.3027,163.4268 -30,142 20.5756,138.2937 100.3975,13.5752 68,1.875 9.249,123.4101 -70.0357,45.1808 -60,63.125 -133.6919,123.6048 111.229,-20.7727 -35.125,84.375 -60.7258,146.1786 -15.2841,240.8899 11.125,13.625 90.4856,14.4662 -27.7769,179.3459 -18.75,90.875 104.8862,-125.0072 -62.1326,-49.1551 2.75,16.625 42.0086,106.2209 -30.2279,297.2568 -3,179.5 -43.1567,32.804 -2.6689,-215.6394 -51.4964,-24.0019 -56.453,95.0363 -11.3291,308.4291 -64.7536,225.6269 104.8756,-9.429 -47.0631,86.3097 -109.75,170.375 25.2834,83.8538 35.7619,-5.0229 -25,43 -43.9442,72.8171 -15.1389,168.1069 -56.125,109.625 -142.4962,46.7309 -116.2242,139.5288 -257.875,185.375 -121.497,20.8412 -147.7837,35.5416 -101.875,79.375 -57.7081,72.4752 -380.8969,216.5649 -260.125,166.625 -223.2434,96.1509 -406.577,122.9784 -649,105 z m 126,-618 c 132.2539,16.5643 406.5727,-173.4674 328,-130 196.7379,-96.346 402.0974,-301.5856 303,-238 113.0895,-96.6084 268.5585,-378.0283 206,-273 66.5631,-175.6209 158.2018,-73.301 110,-107 31.0503,-47.2602 72.343,-361.4039 -13,-225 -16.3585,7.178 47.5644,-119.7403 79,-166 121.8878,-50.1595 -97.2889,-75.2683 73.75,-116.25 -89.5946,-31.4443 57.3154,-202.3824 50.25,-171.75 -0.8624,-26.5998 181.5047,-144.6953 97,-154 -102.5083,23.9788 -47.6682,-78.1615 -5.75,-126.375 58.9086,-73.3117 26.8857,-49.6262 105.75,-214.625 -6.1595,-40.424 55.3914,-282.8357 67.375,-229.5 -4.9448,-30.9485 43.0265,-372.4239 66,-262.5 76.0944,15.435 107.8391,-9.9911 80,67.25 95.4231,16.5543 -106.9412,-51.2807 -75.375,-88.25 117.3708,-81.0964 318.1672,-96.9147 270,35 -56.9113,12.4601 -105.2844,-221.3408 -150,-155 47.2175,-6.109 -48.624,-225.4593 -55.875,-149.25 C 5483.467,6468.1426 5240.03,6209.2952 5332,6255 c -47.9155,-117.3389 -59.2234,-274.3553 17,-187 55.4927,-87.0419 145.2027,-239.4144 139.8594,-160.6094 C 5439.6272,5803.1249 5339.1231,5830.8496 5431,5784 c 110.894,2.3083 -111.6143,-250.0645 -51,-154 -0.012,-14.8394 -281.4101,-80.4143 -191,-126 -131.3697,29.9605 -357.1917,147.5103 -301,104.375 -38.6712,-33.5681 -268.6981,113.0241 -248,81.625 -43.4396,94.8581 -40.2144,229.2101 -69.5,148.875 -119.5173,-46.3341 -21.6111,-18.0577 -50.5,41.25 -39.0298,116.0295 -187.1632,186.69 -127.75,153.625 32.2,71.6042 -102.243,114.2682 -74.25,131.25 13.7929,86.4873 -112.9051,101.092 -91,102 133.4791,20.1317 47.4523,-15.8282 -62.875,96.75 117.9795,7.4484 -73.3664,166.2098 -49.125,25.25 -65.4931,-38.0803 -91.4275,-18.1012 -67,28 11.1559,-97.4018 -71.6744,236.5305 -32,83 -131.443,30.806 -183.056,164.3778 -69,159 33.4167,26.4282 37.8869,-190.013 56.875,-82.375 59.3836,-69.6978 10.8089,92.3269 46.125,77.375 67.7715,7.2959 -290.4049,163.4423 -106,116 -58.7815,-5.8171 -79.9085,-41.6565 -81,64 -44.5729,41.5715 -86.9368,184.7835 -47,169 8.8118,93.0009 11.3505,241.6325 -29,147 -37.6211,-52.5897 -462.6793,58.253 -97,31 88.2907,7.2342 -24.425,38.7663 0,58 117.0685,19.6845 -21.8732,319.2491 -44,212 -100.5842,25.9116 -136.6323,112.7247 -86,118 48.763,-149.852 -49.6318,48.0272 -73,20 7.3948,52.2387 168.7501,110.6476 23,129 89.025,26.9953 189.7055,-23.8705 153,-1 103.3416,17.8597 -81.4291,120.8871 58,64 -14.125,78.5567 75.9873,84.8444 32.125,83.875 -70.9386,111.416 -43.5602,173.5838 26.875,83.125 13.4286,57.905 156.9302,447.0659 74,185 71.4086,112.7689 -167.1442,182.6486 27,127 3.482,33.7678 -65.0316,39.9466 -36,134 16.6612,-57.3845 0.2459,107.7877 -22,-24 -69.9496,61.4789 -172.919,150.2172 -45,84 14.1398,-2.6003 38.9296,96.1801 -21,127 -93.5442,178.6234 28.4672,113.5475 -3,84 31.6545,122.7839 119.7568,176.7173 49,121 -78.1218,-1.0017 69.0616,6.6311 -19,86 -91.0769,-32.6705 17.6085,193.3659 36,43 -75.2739,-40.202 44.993,-77.1781 10,38 -9.2703,88.4338 32.3965,338.4945 40,212 62.2823,113.5413 -30.489,-77.6204 76,16 -82.0322,19.9217 64.3252,46.7387 77,45 z m -200,-983 c -11.3971,-54.666 -149.7833,-230.4043 -37,-171 7.0745,-122.5343 -45.3788,155.9248 -44,21 72.3128,-6.703 120.3413,146.0184 81,128 -36.7046,-2.306 7.2504,71.5549 0,22 z m 1917,-698 c 17.2979,-101.8603 -46.7585,-187.2588 -10,-171 -20.654,28.3187 -29.3005,229.6585 -43,143 51.5322,-1.7787 24.918,108.5362 53,28 z M 6817,5525 c 36.7289,-54.3734 108.7945,-239.4465 70.5,-191.875 -34.9255,-168.0085 -35.6304,-194.5631 -69.5,-37.125 -16.6045,250.894 -62.3072,187.994 -34.75,156.375 141.3128,-9.1147 -122.3842,72.8132 33.75,72.625 z M 5993,1666 c 44.1981,-68.8886 -182.66,-305.3759 -110,-186 -105.8605,-51.1051 -29.5779,72.7156 -45,58 64.8081,35.7846 120.2218,157.7773 155,128 z"
       id="path4" />
    <path
       d="m 5739,7323 c 39.3615,-111.1687 35.8778,-174.7409 54.125,-220 121.0955,131.6442 37.822,175.4853 4.875,111 75.9638,49.8144 -1.2861,105.5481 -59,109 z"
       id="path6" />
  </g>
</svg>
