<?xml version="1.0" standalone="no"?>
<!DOCTYPE svg PUBLIC "-//W3C//DTD SVG 20010904//EN"
 "http://www.w3.org/TR/2001/REC-SVG-20010904/DTD/svg10.dtd">
<svg version="1.0" xmlns="http://www.w3.org/2000/svg"
 width="1024.000000pt" height="1024.000000pt" viewBox="0 0 1024.000000 1024.000000"
 preserveAspectRatio="xMidYMid meet">
<metadata>
Created by potrace 1.16, written by Peter Selinger 2001-2019
</metadata>
<g transform="translate(0.000000,1024.000000) scale(0.100000,-0.100000)"
fill="#000000" stroke="none">
<path d="M3897 9844 c-5 -5 -31 -11 -91 -20 -22 -3 -49 -11 -61 -17 -11 -7
-24 -13 -30 -13 -5 -1 -13 -3 -17 -4 -13 -4 -28 -7 -39 -9 -5 0 -7 -7 -3 -13
5 -9 2 -8 -9 1 -15 12 -17 12 -11 -3 5 -12 2 -15 -10 -10 -9 4 -25 -5 -42 -23
-14 -15 -30 -28 -35 -28 -4 0 -15 -9 -23 -20 -14 -17 -17 -18 -26 -5 -10 13
-11 13 -9 0 3 -29 -1 -40 -13 -38 -7 2 -12 -3 -10 -10 1 -8 -2 -11 -7 -8 -10
7 -33 -18 -26 -27 3 -4 2 -5 -1 -3 -8 6 -54 -40 -54 -52 0 -6 -7 -13 -16 -16
-8 -3 -13 -10 -10 -15 3 -5 -1 -12 -9 -15 -8 -3 -14 -9 -13 -13 1 -4 -6 -25
-16 -45 -10 -21 -15 -45 -12 -54 5 -14 4 -15 -9 -4 -8 7 -15 11 -16 9 0 -2 -2
-15 -3 -27 -2 -13 -9 -28 -17 -33 -8 -5 -10 -9 -6 -9 4 0 2 -10 -5 -22 -7 -13
-11 -26 -10 -30 1 -5 -2 -8 -6 -8 -5 0 -9 -7 -10 -15 -1 -8 -3 -22 -4 -30 -1
-8 -5 -15 -9 -15 -5 0 -6 -7 -3 -15 4 -8 1 -15 -6 -15 -6 0 -8 -4 -5 -10 3 -5
1 -10 -4 -10 -6 0 -11 -5 -11 -11 0 -5 6 -7 13 -4 6 4 4 0 -6 -8 -12 -10 -14
-16 -6 -19 8 -3 7 -9 -5 -20 -12 -12 -13 -18 -3 -21 9 -4 9 -6 -1 -6 -7 -1
-10 -6 -7 -11 4 -6 1 -17 -5 -25 -10 -12 -10 -15 1 -15 12 0 12 -2 1 -9 -15
-9 -13 -42 3 -53 6 -5 6 -8 -1 -8 -7 0 -11 -14 -10 -35 1 -19 -1 -35 -5 -35
-7 0 -3 -86 6 -100 3 -5 0 -10 -7 -10 -10 0 -10 -2 1 -9 18 -12 26 -75 8 -66
-6 4 -3 -1 7 -9 15 -12 16 -16 5 -16 -12 0 -12 -2 0 -9 17 -11 31 -84 19 -105
-6 -11 -5 -16 2 -16 7 0 10 -6 7 -12 -2 -7 3 -18 11 -24 12 -9 12 -12 -1 -26
-9 -9 -14 -18 -11 -20 2 -3 -3 -11 -13 -19 -10 -8 -14 -9 -10 -2 9 14 -26 36
-38 25 -5 -4 -6 -2 -3 3 7 13 -17 36 -28 27 -4 -4 -4 -1 0 6 4 6 2 12 -3 12
-6 0 -11 7 -11 15 0 10 -9 14 -25 13 -17 -2 -24 -7 -20 -16 2 -7 1 -11 -4 -7
-5 3 -12 -1 -15 -7 -3 -7 -3 -2 0 12 l6 25 -21 -27 c-12 -15 -20 -32 -16 -37
3 -5 0 -13 -6 -17 -7 -4 -9 -3 -6 3 4 7 -3 10 -17 9 -19 -1 -22 -4 -13 -14 26
-32 15 -71 -13 -50 -12 8 -12 9 2 4 14 -4 17 0 15 16 -4 21 -47 47 -47 28 0
-6 -8 -10 -17 -10 -13 0 -14 -3 -5 -12 9 -9 7 -15 -6 -25 -9 -8 -11 -12 -4 -8
6 3 12 2 12 -2 0 -5 -6 -15 -12 -22 -11 -10 -10 -11 5 -5 9 3 24 1 32 -6 10
-8 15 -9 15 -2 0 6 -8 15 -17 21 -16 9 -16 10 4 8 12 0 19 -5 17 -9 -8 -13 10
-9 34 8 13 9 21 22 19 28 -3 7 1 13 9 13 10 0 10 -6 -4 -29 -9 -15 -23 -28
-31 -28 -11 0 -10 -4 5 -15 14 -11 15 -14 2 -9 -17 6 -19 -10 -5 -33 5 -9 3
-11 -6 -7 -8 3 -25 -8 -40 -25 -24 -29 -46 -43 -32 -21 3 6 2 10 -4 10 -5 0
-11 -5 -13 -12 -3 -8 -7 -6 -10 4 -5 12 -1 15 17 13 15 -1 22 2 18 8 -3 6 -1
7 6 3 6 -4 11 -4 10 1 -1 4 0 10 1 13 7 18 5 48 -3 43 -6 -4 -7 -1 -2 6 6 10
3 11 -12 2 -11 -6 -24 -7 -28 -3 -4 4 -1 -3 6 -15 8 -13 17 -23 22 -23 4 0 5
-4 2 -10 -10 -16 -21 -12 -34 13 -11 22 -11 22 -6 0 7 -27 -25 -49 -45 -30
-10 10 -10 7 0 -13 8 -15 15 -20 18 -12 2 6 8 12 13 12 6 0 8 -4 4 -9 -3 -5
-1 -12 5 -16 5 -3 10 -12 10 -18 0 -7 -4 -6 -10 3 -5 8 -10 12 -10 8 0 -4 -12
-1 -27 7 -16 8 -33 11 -42 6 -20 -10 -43 -3 -35 11 4 6 -2 5 -15 -1 -15 -8
-21 -8 -21 -1 0 6 -6 10 -12 9 -26 -3 -58 14 -58 30 0 12 -2 13 -9 3 -7 -11
-9 -11 -14 1 -3 9 -14 14 -24 12 -10 -2 -23 -4 -30 -4 -13 -1 -5 -41 9 -41 5
0 6 -4 3 -10 -3 -5 1 -10 10 -10 9 0 14 -4 11 -8 -2 -4 4 -13 14 -20 16 -10
18 -9 15 10 -3 11 -1 17 3 14 7 -8 8 -13 11 -43 1 -14 3 -15 10 -5 6 11 14 7
30 -17 12 -16 28 -28 35 -25 7 3 18 -2 25 -10 7 -8 19 -12 27 -9 8 3 14 -1 14
-10 0 -8 8 -21 17 -28 11 -10 14 -10 9 -1 -4 6 -2 12 3 12 6 0 11 -4 11 -10 0
-5 7 -10 16 -10 10 0 14 -5 10 -15 -6 -16 11 -27 45 -29 20 -1 22 -6 12 -45
-6 -24 13 -45 32 -34 5 4 7 3 3 -2 -4 -4 -3 -16 2 -26 7 -12 6 -20 -2 -25 -7
-4 -10 -4 -6 1 11 11 -11 47 -24 39 -7 -5 -5 -12 7 -21 11 -7 15 -13 11 -13
-5 0 -3 -7 4 -15 7 -8 16 -12 21 -9 5 3 9 -7 9 -21 0 -18 4 -24 13 -19 8 5 8
2 -2 -9 -14 -18 -2 -24 15 -7 7 7 11 6 11 -4 0 -8 -4 -13 -9 -10 -4 3 -8 0 -8
-6 0 -6 -5 -8 -12 -4 -9 5 -9 2 1 -9 7 -9 21 -17 30 -17 14 -1 14 -2 -2 -14
-11 -8 -14 -17 -8 -20 5 -4 17 4 25 16 9 12 16 18 16 12 0 -6 -9 -19 -20 -29
-13 -12 -17 -22 -11 -28 5 -5 7 -16 4 -23 -3 -9 2 -14 13 -15 13 0 15 -2 5 -6
-10 -4 -5 -10 15 -19 l29 -13 -30 5 c-25 4 -27 3 -12 -6 13 -8 15 -16 8 -28
-7 -13 -4 -23 11 -39 11 -12 21 -33 21 -47 0 -27 7 -32 23 -16 6 6 15 6 24 -1
12 -8 11 -9 -5 -7 -14 2 -21 -3 -23 -19 -2 -13 1 -23 7 -23 5 0 8 -9 6 -20 -4
-23 21 -53 38 -44 7 3 1 -5 -13 -17 -24 -21 -24 -22 -3 -17 20 5 21 3 12 -19
-7 -19 -6 -24 3 -20 13 4 15 -4 21 -72 1 -19 6 -26 12 -21 7 6 11 2 12 -11 1
-11 -2 -17 -8 -14 -14 9 -11 -2 7 -19 8 -9 11 -16 5 -16 -6 0 -8 -7 -4 -16 5
-13 8 -13 15 -2 6 9 7 6 3 -9 -8 -30 4 -75 19 -66 6 4 5 0 -2 -9 -8 -10 -9
-19 -3 -22 5 -3 12 0 14 6 3 7 3 -2 0 -19 -3 -18 -1 -33 4 -33 5 0 10 -11 11
-25 3 -48 5 -55 16 -55 7 0 7 -3 1 -8 -14 -10 -17 -32 -5 -32 5 0 7 -6 4 -14
-3 -8 0 -17 6 -21 8 -5 8 -10 0 -20 -10 -11 -8 -13 9 -10 17 3 19 1 12 -13
-10 -21 -3 -44 11 -36 7 5 8 2 2 -7 -15 -24 -13 -39 6 -52 11 -7 19 -22 19
-33 1 -39 5 -54 13 -54 4 0 8 -5 8 -11 0 -5 -5 -7 -12 -3 -7 5 -8 3 -4 -5 5
-7 10 -10 14 -7 11 12 31 -29 20 -41 -8 -10 -6 -13 8 -13 16 0 17 -2 4 -10
-12 -8 -11 -10 8 -10 12 0 22 -5 22 -11 0 -5 -6 -7 -12 -4 -7 4 -2 -3 11 -14
13 -12 20 -21 16 -21 -4 0 -3 -6 3 -12 6 -7 12 -17 14 -23 1 -5 8 -9 13 -7 6
1 1 -5 -9 -13 -17 -13 -17 -15 -3 -15 10 0 15 -7 12 -20 -2 -11 1 -23 7 -26 7
-5 8 -2 3 6 -5 8 -4 11 2 7 6 -4 8 -17 6 -29 -3 -14 4 -32 17 -45 13 -15 16
-23 8 -23 -8 0 -9 -3 -3 -8 21 -15 35 -50 22 -55 -9 -4 -9 -6 1 -6 6 -1 12 -8
12 -16 0 -8 5 -15 11 -15 6 0 9 -9 6 -20 -3 -11 0 -23 5 -27 7 -4 8 -1 3 7 -5
9 -4 11 3 6 7 -4 12 -16 12 -26 0 -10 5 -22 10 -25 6 -4 8 -10 5 -15 -3 -4 2
-10 10 -14 8 -3 15 -15 15 -26 0 -11 7 -23 16 -27 8 -3 13 -12 10 -19 -3 -8
-1 -14 5 -14 6 0 9 -6 6 -14 -3 -8 1 -17 9 -20 8 -3 14 -12 14 -20 0 -8 4 -16
9 -18 5 -1 11 -10 13 -18 2 -8 12 -23 22 -32 10 -10 16 -18 13 -18 -3 0 4 -11
16 -24 38 -41 46 -54 40 -60 -4 -3 -1 -6 6 -6 7 0 10 -4 7 -9 -3 -5 1 -12 9
-15 9 -3 20 -17 25 -30 8 -23 50 -56 50 -39 0 4 7 -2 16 -13 8 -10 12 -13 8
-5 -5 10 -3 12 5 7 7 -5 10 -13 8 -20 -3 -6 7 -12 21 -13 15 0 28 -6 30 -12 2
-6 10 -11 18 -11 9 0 12 -4 9 -10 -3 -5 1 -10 9 -10 9 0 15 -6 13 -12 -1 -8 6
-12 16 -10 9 2 17 -1 16 -5 -4 -22 3 -33 21 -33 12 0 20 -7 20 -17 0 -9 3 -13
7 -10 3 4 13 -2 20 -13 8 -11 18 -18 23 -15 5 3 11 1 15 -5 4 -6 12 -8 18 -4
7 3 3 -2 -8 -11 -20 -17 -20 -17 4 -10 19 6 23 4 18 -8 -4 -12 -2 -14 10 -10
10 4 14 2 9 -5 -12 -19 17 -26 31 -7 7 11 13 15 13 10 0 -5 -8 -17 -17 -27
-16 -18 -16 -18 0 -12 20 7 22 -6 5 -25 -11 -11 -10 -12 1 -6 11 6 13 4 8 -9
-4 -11 -3 -15 4 -11 6 4 8 13 5 21 -3 7 -1 16 5 19 5 4 9 3 8 -2 -4 -25 3 -43
19 -43 14 0 15 -2 2 -10 -12 -8 -10 -10 8 -10 13 0 20 -4 17 -10 -3 -5 -1 -10
4 -10 6 0 11 -9 11 -21 0 -13 4 -18 13 -13 7 5 6 0 -3 -11 -8 -10 -10 -16 -4
-12 7 4 14 0 17 -8 5 -11 1 -12 -18 -5 -18 7 -25 6 -25 -3 0 -8 -4 -7 -11 3
-9 12 -10 12 -5 -3 3 -10 6 -21 6 -24 0 -3 8 1 17 8 15 13 16 12 11 -9 -5 -17
-3 -21 6 -13 8 7 16 4 25 -10 7 -12 15 -19 18 -16 3 3 22 -3 44 -14 21 -12 44
-17 50 -13 8 4 9 3 5 -4 -6 -11 6 -16 27 -13 4 0 7 -6 7 -14 0 -9 6 -12 17 -8
9 4 14 2 10 -4 -4 -6 16 -9 53 -9 46 1 56 -1 48 -11 -7 -9 -7 -13 0 -13 6 0
14 5 17 10 4 6 15 1 26 -12 12 -13 18 -17 14 -10 -3 6 -1 12 4 12 6 0 11 -5
11 -11 0 -8 5 -8 15 1 12 10 15 10 15 0 0 -9 4 -9 17 1 15 12 16 12 10 -3 -3
-10 -3 -18 1 -19 25 -2 72 -9 100 -14 25 -5 32 -3 26 6 -4 8 -3 10 5 5 6 -4 9
-12 6 -17 -4 -5 2 -9 13 -9 10 0 22 -3 26 -7 3 -4 12 -8 19 -9 7 -2 23 -5 35
-8 19 -4 23 -2 18 12 -6 16 -5 16 7 0 8 -10 17 -15 20 -11 4 3 7 2 7 -4 0 -5
7 -10 15 -10 8 0 12 4 9 9 -3 4 -1 8 4 8 6 0 13 -7 16 -16 5 -14 9 -14 23 -3
9 8 17 14 17 13 19 -16 46 -22 52 -12 5 7 3 8 -6 3 -9 -5 -11 -4 -6 4 5 8 12
9 19 3 12 -10 82 -9 125 2 13 3 20 1 17 -5 -4 -5 -2 -9 3 -9 5 0 14 10 21 23
11 22 11 22 5 -3 l-6 -25 18 24 c17 23 18 23 32 5 14 -18 14 -18 9 4 -5 23 -5
23 21 6 l27 -17 -19 29 c-17 26 -18 27 -2 14 22 -17 49 -23 39 -8 -4 7 2 9 15
6 19 -5 20 -3 12 13 -10 17 -8 18 15 9 19 -7 24 -7 19 2 -5 8 -2 9 12 4 10 -4
15 -4 12 0 -4 3 0 13 8 22 9 8 12 18 7 21 -12 9 -14 31 -3 31 10 0 14 -20 11
-50 -1 -8 6 -3 17 13 10 15 20 26 23 25 2 -2 -5 5 -16 15 -20 18 -20 18 4 7
21 -11 23 -10 17 5 -5 15 -4 16 8 6 8 -7 12 -20 10 -29 -5 -15 -4 -15 6 0 8
13 8 23 0 38 -13 24 -7 26 14 4 9 -8 16 -11 16 -5 0 6 9 11 20 11 11 0 20 -6
20 -12 0 -9 4 -8 10 2 7 11 10 11 10 2 0 -15 31 -12 42 3 5 6 8 5 8 -3 0 -9 5
-10 18 -3 13 7 23 6 31 -2 10 -9 12 -9 9 3 -1 8 1 16 6 17 5 1 13 7 17 15 7
11 9 10 9 -1 0 -11 5 -10 20 4 24 22 27 43 3 24 -16 -13 -16 -12 -1 9 9 13 13
32 11 43 -4 15 -2 18 11 13 9 -3 16 -10 16 -16 0 -5 -5 -6 -12 -2 -7 4 -8 3
-4 -4 7 -12 46 1 46 14 0 3 -4 3 -8 0 -5 -3 -21 6 -38 19 -24 21 -27 26 -14
35 8 5 21 8 28 5 6 -2 12 0 12 5 0 13 -16 13 -42 -1 -13 -7 -18 -7 -14 -1 3 6
2 13 -4 17 -13 8 -13 -11 0 -36 7 -13 7 -19 0 -19 -5 0 -10 6 -10 13 0 8 -10
19 -22 26 -15 7 -16 10 -4 6 13 -4 17 -1 12 10 -6 18 2 45 15 45 4 0 6 -7 3
-15 -4 -8 -1 -15 5 -15 6 0 11 9 11 19 0 22 21 33 41 20 14 -9 1 -14 -24 -10
-5 1 -5 -3 -2 -9 4 -6 13 -9 19 -7 7 3 13 0 14 -6 0 -7 2 -21 4 -32 2 -11 -2
-20 -9 -20 -6 0 -13 -2 -15 -5 -1 -3 -1 -4 1 -3 2 2 9 -5 16 -14 9 -13 14 -13
20 -3 5 9 4 11 -3 6 -16 -10 -15 -1 1 12 11 9 13 5 12 -21 -1 -38 4 -59 14
-52 4 2 8 -3 8 -12 0 -12 -5 -10 -20 8 l-20 24 7 -25 c15 -53 15 -59 2 -54
-16 6 -10 -43 8 -65 6 -8 7 -12 1 -9 -6 4 -10 -6 -10 -22 0 -15 3 -26 8 -23 4
2 7 0 7 -6 0 -5 -5 -13 -10 -16 -6 -4 -7 -11 -4 -17 10 -16 11 -67 2 -61 -10
5 -10 -11 -1 -21 11 -11 10 -46 -1 -46 -7 0 -7 -3 1 -8 7 -5 9 -13 3 -21 -4
-8 -4 -24 0 -37 6 -14 5 -26 -1 -29 -5 -4 -6 -11 -3 -17 11 -17 11 -52 0 -60
-6 -4 -6 -11 0 -20 6 -7 11 -26 12 -43 2 -32 31 -72 33 -45 1 8 1 19 0 24 -1
5 6 6 15 2 14 -5 15 -4 5 8 -8 9 -8 16 -2 20 5 4 8 15 6 26 -2 11 1 20 7 20 6
0 2 12 -7 28 -10 15 -12 21 -4 14 20 -19 31 -14 17 7 -7 11 -17 17 -23 13 -5
-3 -4 1 3 10 10 13 10 17 0 21 -11 4 -11 6 0 6 10 1 10 6 2 24 -10 20 -10 20
3 5 8 -10 17 -15 21 -11 4 4 14 8 22 9 9 1 13 -1 9 -4 -4 -4 -11 -7 -16 -7 -5
0 -9 -4 -10 -10 0 -5 -6 -16 -12 -24 -10 -12 -9 -13 8 -7 16 6 17 5 8 -5 -10
-10 -9 -17 5 -33 9 -11 12 -16 5 -13 -6 4 -14 3 -17 -2 -3 -5 6 -12 21 -16 19
-4 23 -9 14 -14 -8 -5 -9 -11 -4 -14 6 -4 10 -20 11 -37 1 -26 -2 -29 -14 -20
-7 7 -11 17 -7 23 3 6 1 7 -6 3 -9 -6 -9 -11 -1 -21 7 -8 9 -18 6 -23 -3 -5 1
-9 9 -9 8 0 15 4 15 9 0 5 4 7 9 4 5 -4 8 -17 6 -31 -1 -14 2 -25 7 -25 5 0 6
-5 2 -12 -4 -7 -3 -8 4 -4 8 5 11 -7 8 -41 -2 -26 2 -54 8 -62 8 -11 8 -13 -1
-8 -6 4 -15 2 -19 -4 -4 -8 -3 -9 4 -5 14 9 16 -22 3 -43 -10 -16 1 -44 26
-70 11 -10 17 -11 22 -3 4 8 10 5 18 -6 8 -14 7 -23 -7 -40 -14 -16 -19 -18
-23 -8 -3 7 0 19 6 25 15 15 -4 13 -26 -3 -15 -12 -15 -14 -2 -19 8 -4 12 -13
9 -22 -3 -8 -11 -12 -18 -8 -6 3 -2 -3 9 -14 14 -15 24 -18 33 -10 7 5 15 7
19 3 3 -3 1 -6 -5 -6 -7 0 -12 -4 -12 -10 0 -5 6 -7 14 -4 18 7 30 -12 15 -22
-8 -4 -9 -3 -5 4 4 7 3 12 -2 12 -16 0 -22 -13 -11 -26 7 -8 6 -14 -2 -20 -7
-4 -9 -3 -5 4 3 6 -3 16 -15 23 -19 10 -21 9 -16 -5 5 -11 3 -15 -5 -10 -8 5
-9 -1 -4 -20 4 -15 3 -25 -1 -23 -4 3 -7 -15 -6 -40 1 -25 -2 -56 -8 -69 -5
-14 -5 -23 0 -20 5 3 11 0 14 -8 6 -16 23 -16 47 -1 13 8 13 7 1 -8 -9 -11
-10 -17 -2 -17 6 0 11 -5 11 -11 0 -8 -4 -8 -14 0 -10 8 -16 9 -21 1 -3 -5 -2
-10 2 -10 5 0 9 -11 9 -25 0 -25 -8 -25 -13 0 -7 35 -9 41 -16 53 -11 16 -24
15 -24 -3 0 -8 4 -12 8 -10 4 3 10 -2 13 -11 8 -21 8 -24 -5 -24 -5 0 -7 5 -4
10 3 6 1 10 -5 10 -6 0 -8 -11 -6 -24 2 -14 -1 -27 -7 -30 -7 -2 -4 -5 7 -5
12 -1 16 -6 12 -16 -3 -9 5 -21 22 -31 15 -8 19 -13 10 -10 -12 3 -15 1 -11
-9 3 -8 9 -13 13 -10 4 3 11 -2 14 -10 5 -13 2 -14 -15 -4 -16 8 -25 7 -37 -4
-9 -8 -24 -17 -32 -21 -8 -4 -6 0 5 9 11 9 19 25 17 35 -2 11 2 20 8 20 6 0 8
5 5 10 -4 6 -12 7 -18 3 -7 -4 -6 0 2 10 9 11 10 17 2 17 -11 0 -13 -7 -13
-49 -1 -14 -7 -31 -14 -39 -18 -17 -9 -32 16 -27 11 2 23 -1 26 -7 4 -6 2 -8
-4 -4 -6 3 -15 -2 -21 -11 -6 -10 -11 -12 -11 -5 0 20 -16 14 -17 -8 -1 -13 2
-18 9 -14 7 4 8 2 4 -5 -6 -9 -11 -9 -24 1 -13 12 -14 10 -4 -9 14 -25 16 -57
4 -49 -4 2 -8 -4 -8 -15 0 -11 5 -17 11 -15 5 2 9 9 7 15 -1 7 2 10 8 6 5 -3
13 1 17 11 5 15 8 14 16 -7 15 -36 15 -56 1 -56 -9 0 -10 5 -4 17 9 18 4 30
-12 30 -5 0 -7 -4 -4 -8 2 -4 1 -14 -4 -22 -5 -9 -4 -20 3 -30 10 -13 10 -13
-5 -2 -14 11 -17 10 -23 -7 -3 -12 -14 -21 -24 -21 -26 0 -33 -11 -19 -29 11
-14 10 -14 -7 0 -26 21 -52 14 -33 -9 12 -13 10 -14 -10 -3 -23 12 -30 -5 -8
-21 6 -4 4 -13 -3 -22 -11 -13 -11 -16 0 -16 12 0 12 -2 0 -9 -8 -5 -11 -16
-8 -26 4 -9 11 -14 16 -10 5 3 13 1 16 -5 4 -6 1 -9 -7 -8 -7 2 -12 -3 -10
-10 1 -8 -2 -11 -8 -7 -6 3 -8 10 -5 15 3 5 1 11 -5 15 -10 6 -19 -21 -23 -63
0 -12 -5 -22 -10 -22 -5 0 -6 -7 -3 -16 3 -8 2 -12 -4 -9 -14 9 -13 -8 2 -23
8 -8 5 -10 -15 -7 -14 3 -29 0 -33 -7 -5 -8 -2 -9 9 -5 10 3 17 2 17 -3 0 -6
-5 -10 -11 -10 -8 0 -7 -6 2 -17 12 -15 12 -16 -4 -10 -15 6 -16 4 -7 -13 8
-14 8 -20 0 -20 -6 0 -8 -5 -4 -12 5 -8 2 -9 -10 -5 -12 5 -15 3 -9 -6 13 -21
12 -37 -2 -37 -8 0 -16 -4 -19 -8 -6 -11 25 -74 44 -89 11 -9 12 -12 2 -13 -7
0 -10 -4 -7 -10 3 -5 1 -19 -5 -30 -6 -12 -7 -20 -1 -20 5 0 11 6 14 13 2 6 4
0 3 -14 0 -15 -6 -25 -12 -22 -6 2 -11 -3 -11 -11 0 -8 4 -13 8 -11 4 3 10 -3
13 -12 6 -14 9 -14 26 5 25 26 25 33 3 26 -11 -4 -14 -2 -8 3 11 8 35 49 35
58 0 3 -7 5 -17 5 -9 0 -14 3 -10 6 3 3 15 3 27 -1 20 -6 21 -8 4 -26 -16 -18
-16 -19 0 -19 9 0 14 -5 11 -10 -4 -6 -10 -8 -14 -6 -4 3 -6 -8 -5 -24 1 -16
-1 -29 -5 -28 -20 2 -29 -4 -26 -19 1 -10 -3 -24 -9 -32 -9 -12 -8 -14 5 -9 9
4 16 1 16 -7 0 -8 -7 -11 -15 -7 -10 3 -13 1 -8 -6 5 -8 2 -10 -9 -5 -13 5
-14 7 -3 14 7 5 9 9 4 9 -5 0 -4 6 1 13 16 21 1 63 -19 51 -6 -4 -5 -10 3 -15
10 -6 11 -9 2 -9 -7 0 -13 -5 -13 -11 0 -5 6 -7 13 -4 6 4 3 -1 -7 -9 -11 -9
-16 -16 -12 -16 5 0 2 -8 -5 -17 -10 -11 -10 -14 -1 -9 7 4 12 1 12 -9 0 -9
-4 -13 -10 -10 -6 4 -7 -1 -3 -11 4 -11 3 -15 -4 -11 -7 4 -10 0 -8 -10 1 -10
0 -22 -4 -28 -3 -5 -7 -21 -8 -35 -3 -24 -3 -24 12 -6 12 16 12 22 2 28 -8 6
-6 8 8 6 11 -2 22 -6 25 -10 3 -4 11 2 18 12 7 12 8 20 2 20 -5 0 -10 -5 -10
-11 0 -5 -5 -7 -12 -3 -8 5 -4 13 11 26 13 10 19 18 14 18 -5 0 -14 -5 -21
-12 -9 -9 -12 -9 -12 0 0 7 4 12 10 12 5 0 7 8 4 18 -5 14 -4 14 4 3 8 -12 13
-12 25 -2 14 11 17 -5 6 -29 -6 -14 -3 -36 6 -42 6 -5 5 -8 -3 -8 -7 0 -10 -4
-7 -10 3 -5 0 -7 -8 -4 -8 3 -20 -2 -27 -10 -7 -9 -17 -13 -22 -9 -6 3 -8 0
-6 -8 3 -8 14 -13 24 -12 10 1 13 0 6 -3 -9 -4 -7 -10 6 -22 9 -10 13 -14 8
-9 -19 14 -27 7 -16 -14 7 -11 9 -23 7 -26 -3 -2 -8 5 -12 16 -7 24 -22 19
-36 -13 -9 -21 -10 -21 -5 2 2 12 -1 22 -7 22 -7 0 -5 5 3 10 8 5 11 10 6 10
-5 0 -3 7 4 15 7 8 8 15 2 15 -5 0 -15 -7 -22 -15 -7 -8 -9 -15 -5 -15 4 0 1
-8 -6 -17 -12 -14 -12 -16 0 -9 9 6 12 5 9 -5 -3 -8 -12 -13 -19 -11 -8 2 -2
-9 14 -23 27 -25 28 -45 4 -45 -8 0 -8 3 2 9 7 5 9 11 4 14 -13 8 -30 -31 -28
-61 1 -12 -3 -22 -10 -22 -6 0 -11 -9 -11 -19 0 -11 4 -17 8 -15 4 3 8 0 8 -5
0 -6 -7 -11 -15 -11 -9 0 -12 -6 -8 -16 5 -13 7 -13 14 -2 7 10 9 11 9 0 0 -7
4 -10 10 -7 6 3 7 -1 3 -10 -5 -13 -7 -14 -14 -3 -5 7 -9 9 -9 4 0 -5 -7 -3
-15 4 -13 11 -14 10 -9 -4 4 -10 16 -22 28 -26 l21 -9 -21 0 c-12 -1 -25 7
-29 17 -5 13 -12 7 -31 -30 -13 -26 -28 -49 -34 -53 -6 -4 -8 -11 -5 -16 4 -5
2 -9 -3 -9 -6 0 -8 -9 -5 -20 3 -11 9 -17 14 -14 5 3 7 9 4 14 -3 5 0 12 6 16
8 5 8 8 0 14 -9 5 -8 10 4 20 10 8 15 9 15 1 0 -6 4 -11 8 -11 5 0 9 7 9 15 0
8 -4 15 -9 15 -5 0 -6 5 -3 10 10 16 22 12 22 -7 0 -37 3 -44 16 -37 6 4 9 4
5 -1 -4 -4 -3 -14 3 -21 7 -8 6 -14 -2 -20 -7 -4 -9 -3 -5 4 3 6 2 13 -4 17
-5 3 -10 1 -10 -5 0 -6 -5 -8 -11 -4 -8 4 -7 9 2 16 11 7 9 8 -6 6 -14 -2 -20
-11 -20 -27 0 -26 -32 -39 -41 -17 -3 7 -11 13 -19 13 -8 0 -13 -2 -11 -4 2
-3 -2 -20 -10 -39 -13 -31 -13 -33 3 -29 10 3 3 -2 -14 -10 -18 -8 -33 -22
-33 -31 0 -9 -5 -12 -12 -8 -7 5 -8 3 -4 -5 5 -7 15 -10 23 -7 8 3 11 1 8 -4
-3 -6 -18 -10 -33 -10 -20 0 -23 -3 -12 -9 8 -6 18 -7 24 -4 5 3 6 1 2 -5 -4
-6 -13 -9 -20 -6 -19 7 -40 -24 -41 -60 0 -25 -4 -31 -22 -31 -23 0 -33 -20
-10 -20 26 -1 39 -16 26 -31 -8 -10 -8 -14 0 -14 6 0 11 -5 11 -11 0 -8 -5 -8
-15 1 -8 7 -12 16 -10 21 7 11 -33 32 -48 25 -9 -3 -9 -5 1 -5 6 -1 12 -6 12
-12 0 -5 -4 -7 -10 -4 -5 3 -10 1 -10 -4 0 -6 4 -11 8 -11 5 0 14 -11 20 -25
10 -21 9 -26 -9 -36 -11 -6 -23 -8 -26 -6 -2 3 5 8 16 12 16 5 19 10 12 22
-11 21 -51 25 -44 6 3 -8 12 -12 19 -9 22 8 16 -2 -7 -15 -15 -8 -19 -8 -15 0
4 6 2 11 -5 11 -7 0 -9 -8 -6 -21 4 -15 2 -19 -9 -15 -8 3 -14 -1 -14 -9 0 -7
-4 -17 -10 -20 -6 -3 -7 1 -4 12 3 11 0 9 -8 -5 -8 -12 -17 -20 -21 -17 -4 3
-5 2 -2 -1 2 -4 -2 -15 -9 -26 -14 -20 -11 -58 5 -58 14 0 10 30 -3 30 -7 0
-5 5 5 11 9 6 15 14 12 20 -5 7 9 13 18 7 1 -1 15 10 31 25 16 15 34 27 40 27
6 0 2 -7 -9 -15 -11 -8 -27 -20 -35 -27 -8 -7 -17 -12 -20 -11 -3 1 -12 -7
-19 -19 -11 -18 -10 -19 8 -13 12 4 21 2 21 -4 0 -6 -4 -10 -9 -9 -5 2 -16 -6
-24 -17 -12 -15 -18 -17 -29 -7 -12 10 -19 8 -34 -10 -10 -12 -14 -18 -7 -15
6 4 14 3 18 -3 3 -5 -1 -11 -9 -11 -30 -3 -34 -4 -43 -13 -4 -5 -3 -6 4 -2 6
3 14 -1 17 -12 3 -10 15 -18 26 -18 11 0 19 5 17 11 -2 5 -9 10 -15 10 -5 0
-14 3 -18 7 -3 4 3 6 14 3 24 -4 39 23 17 31 -8 4 -12 11 -9 16 4 6 11 4 16
-6 6 -11 17 -15 31 -11 21 5 21 5 -1 -7 -12 -6 -21 -16 -19 -22 7 -20 -12 -46
-29 -39 -15 5 -14 3 1 -23 l18 -29 -26 30 c-15 17 -26 33 -27 37 0 8 -21 5
-38 -5 -9 -6 -9 -13 -2 -28 13 -24 7 -24 -16 -1 -17 16 -18 16 -11 -1 4 -10 7
-26 7 -35 0 -15 2 -15 10 -2 7 11 10 11 10 2 0 -10 3 -10 14 0 8 7 12 16 9 20
-2 4 4 5 14 1 16 -6 17 -5 3 13 -14 18 -14 18 3 5 17 -13 17 -16 3 -26 -9 -7
-12 -15 -8 -19 4 -4 0 -6 -8 -4 -9 2 -14 -3 -12 -11 3 -12 1 -12 -14 0 -16 13
-17 12 -11 -6 6 -17 4 -17 -9 2 -15 21 -42 34 -30 14 3 -5 -1 -12 -10 -15 -12
-4 -15 -2 -10 9 4 10 -4 8 -28 -7 -38 -25 -41 -53 -5 -53 15 0 23 5 21 13 -1
8 2 11 8 7 8 -5 8 -11 -1 -21 -11 -14 -35 -14 -57 -1 -21 14 -35 -4 -15 -20
16 -14 15 -14 -7 -1 -31 18 -56 13 -37 -7 7 -7 15 -11 19 -9 4 2 9 0 12 -5 3
-4 -2 -8 -12 -7 -9 0 -18 -3 -19 -9 -1 -5 5 -9 13 -9 20 2 18 -3 -7 -17 -13
-7 -19 -7 -15 -1 3 6 2 14 -4 17 -8 5 -7 11 1 21 9 10 9 14 0 14 -6 0 -14 -7
-17 -15 -4 -8 -10 -12 -15 -9 -5 3 -6 -2 -3 -10 3 -9 -3 -19 -16 -26 -14 -8
-20 -18 -17 -30 3 -12 0 -17 -8 -13 -10 3 -12 -2 -8 -18 5 -18 3 -21 -10 -16
-11 4 -14 2 -10 -9 3 -8 0 -21 -6 -28 -9 -11 -9 -16 0 -22 8 -5 9 -3 4 6 -5 9
-4 11 4 6 6 -4 9 -12 5 -17 -3 -5 -9 -7 -14 -4 -5 3 -9 -9 -9 -27 2 -40 -3
-61 -15 -70 -5 -3 -10 -18 -11 -32 0 -20 2 -22 13 -14 10 9 12 8 10 -3 -2 -10
5 -13 22 -11 20 2 22 0 10 -8 -13 -9 -12 -13 5 -27 15 -12 16 -14 3 -10 -9 3
-22 -1 -30 -10 -11 -14 -11 -16 4 -10 10 3 20 2 23 -4 4 -5 1 -8 -7 -7 -7 2
-13 -6 -13 -16 0 -11 -6 -21 -13 -24 -6 -2 -10 -8 -6 -13 3 -5 0 -9 -7 -9 -8
0 -7 -5 2 -17 12 -14 12 -16 0 -8 -11 6 -13 4 -8 -9 4 -10 1 -19 -8 -22 -8 -4
-12 -11 -8 -18 11 -17 12 -65 2 -71 -5 -4 -9 -11 -9 -16 0 -6 6 -7 13 -3 9 6
9 5 0 -8 -7 -8 -10 -18 -6 -21 3 -4 -6 -18 -20 -31 -14 -13 -23 -27 -20 -30 4
-3 -1 -6 -9 -6 -10 0 -17 -11 -20 -28 -3 -19 0 -29 9 -29 7 0 13 4 13 9 0 5 4
7 9 4 9 -6 9 -18 -2 -46 -8 -23 -5 -50 7 -50 7 0 7 -3 0 -8 -9 -5 -8 -11 2
-20 11 -10 14 -10 14 0 0 9 3 9 10 -2 9 -13 12 -13 21 3 6 9 14 15 20 12 5 -4
9 1 9 9 0 19 16 21 26 4 5 -7 3 -8 -6 -3 -10 6 -12 4 -7 -9 4 -10 3 -15 -3
-11 -6 3 -10 2 -10 -3 0 -20 71 -30 78 -11 2 5 8 7 13 3 5 -3 8 0 7 8 -2 7 4
12 12 10 8 -2 12 0 7 4 -4 4 1 17 10 28 10 12 14 18 9 14 -9 -7 -46 33 -46 49
0 4 5 1 10 -7 6 -10 10 -11 10 -2 0 6 5 12 11 12 8 0 9 -4 0 -13 -6 -8 -8 -17
-4 -20 10 -11 43 -8 43 4 0 5 5 7 10 4 6 -4 9 -1 8 7 -2 7 2 12 9 11 8 -2 10
4 6 14 -5 12 -3 14 7 8 9 -6 11 -4 5 5 -6 10 -15 5 -36 -20 -16 -19 -32 -31
-35 -27 -4 4 -1 7 6 7 7 0 10 3 7 7 -4 3 2 12 13 20 11 8 17 20 14 31 -4 10
-2 13 3 7 11 -14 45 -16 36 -2 -4 6 0 8 10 4 17 -7 41 15 29 28 -4 5 1 5 11 2
15 -6 16 -4 7 13 -7 12 -7 21 0 25 5 3 10 1 10 -4 0 -6 5 -11 10 -11 7 0 7 6
1 18 -11 20 23 30 35 10 5 -7 1 -9 -9 -5 -11 4 -14 2 -10 -9 4 -11 9 -12 19
-3 8 6 12 15 9 19 -7 11 22 20 43 14 16 -5 16 -5 0 6 -10 6 -15 17 -11 27 5
12 3 14 -7 8 -8 -5 -11 -4 -7 2 4 6 20 9 37 8 27 -2 28 -1 19 17 -7 14 -7 18
-1 14 6 -3 14 -2 17 4 4 7 11 7 18 2 15 -12 47 -11 47 0 0 5 -8 7 -19 3 -12
-4 -21 0 -25 11 -6 14 -4 15 10 3 14 -11 15 -10 12 7 -1 10 -7 22 -13 26 -6 5
-6 8 1 8 6 0 18 -8 25 -17 12 -14 12 -16 0 -8 -10 5 -12 4 -7 -4 4 -6 12 -9
17 -6 5 4 9 -2 10 -12 0 -14 2 -15 6 -3 4 8 13 20 22 27 9 7 12 13 8 13 -5 0
-1 7 7 16 9 8 13 20 10 26 -4 6 1 8 14 4 12 -4 23 -2 28 5 4 8 3 9 -4 5 -6 -4
-21 -2 -33 5 -17 9 -20 8 -14 -2 5 -7 4 -10 -3 -5 -7 4 -9 -1 -7 -16 4 -21 4
-21 -12 -5 -16 16 -16 18 5 33 12 8 19 20 16 26 -4 7 -2 8 5 4 6 -4 9 -11 7
-15 -3 -4 1 -8 8 -8 8 0 11 9 8 22 -2 13 1 26 8 30 8 5 8 11 -2 23 -10 14 -10
15 1 5 20 -17 55 15 39 36 -10 13 -8 13 6 0 14 -13 16 -21 7 -35 -6 -11 -11
-15 -11 -10 0 5 -7 3 -15 -4 -8 -7 -12 -17 -8 -23 3 -5 2 -7 -4 -4 -5 3 -10 0
-10 -7 0 -20 18 -10 45 25 17 21 21 35 16 51 -4 13 -6 25 -5 27 2 2 -3 8 -11
12 -9 6 -10 9 -1 9 7 0 11 6 9 13 -1 6 -1 9 1 4 8 -13 22 3 17 18 -4 8 -11 12
-18 8 -6 -4 -5 1 3 10 7 9 10 17 5 17 -5 0 -1 7 10 15 10 7 15 18 11 24 -3 7
0 8 9 5 9 -3 16 -2 16 4 0 13 -29 24 -42 15 -7 -3 -8 -1 -4 6 5 7 16 9 28 5
13 -4 18 -2 14 4 -3 6 0 17 8 25 8 8 12 18 8 22 -4 5 -1 4 7 0 11 -6 13 -4 8
8 -4 10 -2 16 5 14 7 -1 12 5 13 13 1 8 6 14 12 13 6 -1 14 4 17 12 3 8 0 15
-6 15 -7 0 -3 6 7 14 11 8 23 12 27 10 4 -2 9 0 13 6 3 5 0 10 -7 10 -8 1 -6
6 6 15 10 8 23 12 27 9 14 -8 11 10 -3 25 -11 10 -10 11 4 6 13 -5 16 -2 14
12 -3 15 1 19 17 17 12 -1 28 -3 35 -3 7 -1 10 -6 7 -11 -5 -8 -12 -7 -23 2
-12 10 -14 10 -8 1 4 -8 2 -12 -6 -10 -7 2 -9 2 -5 -1 4 -2 2 -11 -5 -20 -7
-8 -13 -18 -13 -21 0 -3 -6 -5 -12 -5 -7 1 -10 -3 -6 -9 3 -6 1 -7 -5 -3 -7 4
-9 -3 -6 -21 3 -21 2 -24 -6 -13 -6 10 -10 11 -10 3 0 -7 -7 -10 -17 -7 -15 5
-16 4 -3 -5 11 -8 12 -11 2 -11 -10 0 -10 -4 2 -15 8 -9 13 -22 10 -29 -7 -18
12 -30 22 -15 4 7 3 9 -3 6 -6 -4 -10 4 -10 18 0 20 2 23 13 14 10 -8 14 -8
14 0 0 6 -5 11 -10 11 -6 0 1 18 16 39 22 34 30 39 57 36 18 -2 26 -1 19 2 -6
2 -9 9 -6 14 3 6 11 5 20 -2 12 -10 17 -9 27 0 9 10 8 11 -7 5 -15 -6 -17 -4
-11 6 5 9 4 11 -3 6 -17 -10 -15 7 3 30 13 16 14 16 9 2 -3 -10 -1 -18 4 -18
15 0 26 21 15 29 -10 7 -11 26 0 37 4 4 7 0 7 -8 0 -9 7 -18 15 -22 8 -3 14 0
12 7 -1 7 3 11 10 10 8 -2 10 4 6 15 -6 15 -5 16 13 2 17 -13 18 -13 7 0 -8
10 -9 21 -3 30 6 8 10 11 10 6 0 -5 9 -1 20 9 16 14 17 21 8 32 -9 12 -7 13
15 9 17 -3 26 0 24 7 -1 6 4 12 11 13 6 1 15 2 18 3 4 0 0 9 -7 18 -12 15 -12
16 4 10 11 -4 16 -3 12 3 -6 9 8 14 28 11 5 -1 6 3 2 9 -3 6 -11 8 -16 5 -5
-4 -9 1 -9 9 0 19 4 20 33 5 22 -11 22 -11 -1 10 -12 12 -20 26 -17 31 3 5 0
12 -6 16 -9 5 -10 0 -6 -17 5 -22 5 -22 -7 -6 -12 16 -14 16 -20 2 -3 -9 -2
-13 3 -10 5 3 13 0 17 -6 5 -9 0 -10 -17 -6 -23 6 -23 5 -5 -8 13 -10 15 -15
6 -15 -7 0 -10 -3 -7 -7 8 -7 -11 -33 -24 -33 -5 0 -9 5 -9 11 0 5 4 8 9 4 5
-3 13 0 17 6 4 8 3 9 -5 5 -7 -5 -10 -2 -9 6 2 7 -3 12 -9 10 -19 -3 -16 15 3
22 14 5 14 9 3 24 -13 15 -12 16 4 3 18 -14 24 -3 7 17 -7 8 -7 9 1 3 15 -12
41 -2 32 12 -4 6 -1 7 7 2 10 -6 12 -3 7 11 -5 14 -2 12 13 -6 15 -20 20 -21
20 -8 0 9 -4 20 -10 23 -16 10 -11 28 6 21 12 -5 15 -2 10 11 -6 17 -5 17 8 0
11 -14 15 -15 19 -4 3 8 1 19 -5 25 -7 7 -4 10 8 9 11 -1 18 3 17 10 -2 8 4
10 15 6 15 -6 15 -5 3 10 -12 15 -12 17 3 11 9 -3 16 -10 16 -15 0 -5 3 -8 8
-8 17 3 32 -2 32 -10 0 -6 -9 -8 -20 -6 -13 3 -18 0 -14 -7 5 -7 2 -8 -6 -3
-9 5 -11 4 -6 -4 6 -9 11 -9 22 0 8 7 14 7 14 1 0 -17 -25 -20 -45 -6 -17 12
-20 10 -38 -19 -11 -17 -18 -33 -16 -33 2 -1 -4 -11 -14 -21 -9 -11 -14 -23
-10 -28 5 -4 2 -5 -6 0 -10 5 -12 4 -7 -4 4 -6 12 -9 17 -6 5 4 9 0 9 -7 0
-10 3 -9 9 2 6 8 7 18 5 22 -3 4 -1 8 5 8 5 0 13 9 16 20 4 11 11 18 16 14 5
-3 6 -10 3 -16 -4 -7 -2 -8 5 -4 9 6 9 11 0 22 -14 17 2 19 21 2 12 -11 12
-10 2 3 -10 14 -9 18 10 24 13 4 26 7 31 6 4 -1 6 2 6 6 -4 24 3 43 14 41 7
-2 14 2 16 7 1 6 7 15 13 22 5 7 7 16 4 22 -3 5 5 8 19 7 13 -2 22 1 19 5 -9
16 8 33 18 18 6 -11 8 -9 6 6 -2 11 2 19 7 18 14 -2 17 44 4 53 -8 4 -9 -1 -4
-16 6 -18 4 -22 -8 -17 -12 4 -15 1 -11 -11 3 -9 -2 -6 -10 8 -17 28 -22 19
-6 -11 6 -10 8 -19 6 -19 -16 0 -25 41 -14 64 11 26 28 35 28 16 0 -6 8 -5 19
2 11 7 17 16 14 20 -2 5 -10 5 -17 -1 -7 -6 -17 -6 -26 -1 -12 8 -12 10 -1 10
10 0 11 3 2 14 -9 11 -8 14 6 12 17 -1 19 3 22 42 1 15 3 15 11 2 9 -14 16 4
11 33 0 4 2 6 6 6 29 -5 36 2 17 17 -18 14 -18 15 5 4 19 -10 26 -9 40 5 15
16 14 17 -9 11 -14 -3 -19 -3 -12 0 6 3 10 10 7 15 -4 5 2 6 11 2 14 -5 16 -3
11 11 -4 9 -3 15 2 12 5 -3 11 1 15 9 3 8 12 15 21 15 8 0 15 8 15 18 0 10 -3
13 -8 6 -8 -12 -46 -34 -59 -34 -4 0 0 5 10 11 9 6 15 14 12 19 -3 5 0 12 6
16 8 4 9 3 5 -4 -4 -7 -3 -12 3 -12 17 0 24 22 10 31 -11 7 -11 9 -1 9 7 0 15
-7 18 -15 4 -8 14 -15 23 -15 14 0 14 -2 1 -10 -8 -5 -10 -10 -4 -10 7 0 15
-8 19 -17 5 -14 3 -15 -6 -6 -14 14 -39 6 -39 -13 0 -8 -4 -14 -10 -14 -5 0
-7 8 -4 18 5 14 4 14 -4 2 -6 -8 -8 -18 -6 -22 3 -4 0 -8 -7 -8 -8 0 -7 -5 2
-17 12 -14 12 -16 0 -8 -9 5 -12 4 -7 -3 3 -6 2 -13 -4 -17 -6 -4 -8 -10 -5
-15 3 -5 1 -11 -5 -15 -6 -4 -7 -12 -3 -18 5 -9 3 -9 -8 -1 -26 20 -49 24 -49
9 0 -9 6 -12 18 -9 13 5 14 4 3 -4 -11 -8 -11 -10 0 -15 11 -4 11 -6 0 -6 -11
-1 -10 -5 5 -17 18 -15 17 -15 -7 -1 -26 15 -26 15 -26 -9 0 -18 3 -22 12 -14
7 6 20 8 29 4 17 -7 19 18 3 43 -10 16 -2 16 23 3 16 -9 18 -8 13 6 -4 12 -3
15 6 10 7 -5 10 -2 9 6 -2 8 5 12 17 11 20 -1 20 -1 1 13 -18 12 -15 19 7 15
4 0 6 3 5 8 -2 5 6 17 17 25 18 15 18 15 1 10 -16 -6 -17 -4 -7 14 7 13 17 19
27 15 10 -4 15 -1 14 8 -4 27 0 39 12 37 8 -2 11 8 9 30 -2 28 1 34 20 39 22
6 22 7 3 14 -17 7 -17 8 -1 8 10 1 15 6 12 11 -4 6 -11 7 -17 4 -7 -4 -8 -2
-4 4 4 7 2 12 -4 12 -7 0 -10 -12 -8 -27 3 -23 -1 -27 -25 -28 -36 -2 -56 20
-21 23 17 1 23 -2 18 -10 -4 -6 -3 -8 4 -4 11 7 8 44 -4 55 -4 3 -5 -1 -1 -11
6 -17 -15 -20 -30 -3 -4 4 -3 5 3 2 10 -6 24 11 28 33 5 21 19 29 35 20 18 -9
31 -4 31 12 0 5 -4 7 -8 4 -4 -2 -14 -1 -22 5 -13 7 -13 9 -1 9 11 0 9 4 -5
15 -14 11 -15 14 -2 9 13 -4 16 0 14 21 -2 14 -1 23 2 21 2 -3 14 0 26 7 26
15 56 17 56 5 0 -5 -10 -6 -22 -3 -16 4 -19 3 -9 -3 11 -8 11 -11 0 -16 -8 -3
-4 -3 8 -1 25 7 40 -12 24 -28 -9 -9 -11 -8 -6 6 8 19 -3 22 -25 6 -13 -9 -12
-10 3 -5 15 5 16 3 6 -17 -7 -12 -11 -23 -10 -25 2 -2 -1 -7 -5 -10 -4 -4 -4
-1 1 7 5 10 4 12 -4 7 -6 -4 -9 -12 -6 -17 4 -5 2 -9 -2 -9 -5 0 -9 -14 -9
-30 -2 -31 15 -43 17 -12 1 16 3 23 8 47 2 6 7 -1 11 -15 8 -23 8 -23 7 7 -1
18 7 40 17 52 10 11 15 24 12 29 -3 5 8 25 25 45 16 19 25 38 20 41 -5 4 -12
2 -16 -4 -4 -6 -11 -8 -16 -5 -5 4 -9 1 -9 -5 0 -6 -5 -8 -11 -4 -8 4 -7 9 2
15 7 4 17 5 23 2 5 -4 7 1 3 11 -5 14 -3 16 12 11 23 -7 38 10 16 19 -17 6
-45 -2 -45 -14 0 -5 -9 -12 -20 -15 -16 -5 -18 -10 -10 -25 12 -22 1 -33 -20
-20 -9 6 -19 3 -27 -8 -12 -15 -12 -14 -2 8 7 14 17 28 22 32 6 3 12 14 13 23
1 10 12 27 24 40 14 15 18 25 11 30 -6 3 -11 1 -11 -5 0 -6 -4 -8 -10 -5 -6 4
-5 11 2 19 14 15 41 -10 30 -28 -3 -5 2 -7 12 -3 10 4 15 3 11 -3 -3 -6 -2
-10 4 -10 5 0 11 3 14 8 2 4 3 2 1 -4 -1 -6 4 -11 11 -11 10 0 11 6 3 23 -6
12 -16 20 -23 18 -7 -3 -15 2 -19 11 -3 9 -2 13 4 10 5 -3 16 8 25 24 20 39
30 45 32 18 2 -17 0 -19 -7 -7 -5 8 -10 11 -10 5 0 -5 4 -17 9 -25 6 -8 7 -19
3 -24 -3 -6 -9 0 -12 14 -5 20 -7 22 -12 8 -4 -10 1 -23 14 -35 12 -10 18 -12
14 -5 -4 6 -2 12 4 12 7 0 9 8 5 19 -4 13 1 25 17 36 21 15 21 16 3 11 -16 -5
-21 -1 -22 15 -2 17 1 18 13 8 8 -6 17 -9 21 -5 3 3 1 6 -6 6 -7 0 -10 4 -7 9
9 13 -22 7 -36 -7 -7 -7 -17 -12 -23 -12 -5 0 -2 5 7 10 9 6 15 19 13 30 -2
11 1 19 8 17 7 -1 11 8 10 23 -2 21 -1 22 5 6 12 -27 22 -6 11 22 -5 14 -14
21 -21 17 -7 -4 -4 1 7 10 11 9 19 22 17 28 -2 7 0 9 4 4 4 -4 15 5 25 19 15
24 16 30 2 61 -8 19 -9 32 -4 28 6 -3 11 -13 11 -21 0 -8 5 -14 11 -14 7 0 8
7 4 18 -11 28 -14 52 -7 50 11 -3 54 23 49 29 -3 2 -15 0 -26 -7 -12 -6 -21
-8 -21 -6 0 3 13 12 28 20 25 13 28 13 29 -4 1 -9 -9 -23 -22 -30 -14 -7 -22
-17 -19 -22 3 -5 13 -3 22 4 13 11 14 11 7 -1 -5 -10 -4 -12 4 -7 6 4 9 12 6
17 -4 5 -1 9 4 9 6 0 11 8 12 18 0 10 3 12 6 4 2 -6 9 -9 14 -6 6 3 2 12 -8
20 -10 7 -13 14 -6 14 6 0 10 8 9 17 -2 10 3 24 11 31 7 7 13 19 13 25 0 7 -5
4 -11 -6 -8 -14 -14 -16 -24 -7 -12 10 -13 8 -10 -9 2 -14 0 -19 -7 -15 -7 5
-8 2 -3 -6 5 -9 4 -11 -3 -6 -8 5 -10 2 -6 -8 7 -18 -30 -23 -40 -7 -4 5 4 7
16 4 22 -4 23 -4 4 11 -18 15 -33 52 -18 42 7 -4 37 24 37 34 0 3 4 4 11 2 6
-1 11 5 11 13 0 9 -6 14 -13 11 -8 -3 -16 0 -20 6 -4 6 -3 9 2 5 18 -10 54 17
44 33 -5 8 -10 10 -10 4 0 -17 -24 -24 -41 -12 -11 8 -11 9 3 5 20 -7 43 17
32 34 -4 8 -3 9 4 5 15 -9 15 0 1 27 -12 21 -11 21 13 5 25 -16 26 -16 26 8 0
19 -3 22 -13 14 -10 -8 -15 -8 -21 1 -4 7 -3 9 3 6 19 -12 38 20 23 38 -8 9
-8 15 -2 15 6 0 12 -6 15 -12 2 -7 8 -10 12 -6 5 5 1 16 -8 26 -10 10 -17 23
-17 28 0 5 5 1 11 -9 8 -14 14 -15 24 -7 7 6 17 10 21 9 23 -4 34 3 34 22 0
11 5 17 10 14 6 -3 10 -1 10 4 0 15 -13 14 -29 -2 -9 -8 -12 -8 -7 0 3 6 1 13
-6 16 -7 2 -5 3 5 2 9 -2 17 1 17 6 0 5 -5 9 -12 9 -6 0 -8 3 -5 6 4 4 14 1
23 -7 16 -13 16 -12 5 9 -7 12 -17 20 -23 16 -7 -5 -8 -2 -4 5 6 9 13 8 27 -5
20 -18 22 -16 22 39 0 13 3 15 13 6 14 -11 20 2 7 15 -23 23 -8 33 22 15 22
-13 35 -16 40 -9 4 6 3 10 -2 9 -30 -5 -35 2 -17 23 15 19 16 20 2 9 -24 -18
-23 -5 2 26 11 14 17 29 14 34 -8 13 10 11 26 -4 12 -10 12 -9 0 6 -18 24 -24
61 -8 51 7 -4 8 -3 4 4 -14 23 -33 1 -30 -34 2 -32 0 -35 -20 -30 -20 5 -20 5
-2 -9 17 -13 15 -19 -6 -16 -3 0 -5 -11 -3 -24 2 -21 0 -23 -12 -13 -8 6 -10
14 -6 17 18 13 14 41 -4 35 -14 -5 -15 -4 -4 4 7 5 10 15 6 22 -6 9 -3 9 14 1
30 -16 26 3 -4 23 -14 9 -25 22 -25 29 0 8 4 7 10 -3 5 -8 10 -10 10 -5 0 6 7
2 14 -8 8 -11 17 -14 20 -8 4 5 -4 17 -16 25 -12 9 -17 16 -10 16 7 0 10 4 7
10 -3 6 1 7 10 4 10 -4 14 -13 11 -23 -5 -13 -4 -13 7 1 8 10 18 14 23 10 4
-4 2 2 -6 12 -14 18 -13 19 5 13 19 -7 19 -6 2 7 -18 14 -18 15 0 26 17 11 17
11 -2 5 -11 -4 -25 -9 -31 -12 -6 -2 -14 3 -18 12 -3 9 -2 13 4 10 6 -3 10 -2
10 2 0 5 7 18 16 29 8 10 13 13 9 7 -4 -9 -1 -11 9 -7 21 8 20 16 -5 43 -13
13 -28 20 -38 17 -14 -5 -14 -4 1 7 10 8 15 17 11 20 -3 4 4 5 15 2 12 -2 25
1 28 7 4 7 2 8 -4 4 -7 -4 -12 -3 -12 3 0 5 6 12 13 14 9 4 9 6 0 6 -7 1 -13
6 -13 12 0 5 5 7 12 3 6 -4 8 -3 4 4 -3 5 0 13 6 15 9 4 8 6 -3 6 -9 1 -16 8
-16 16 0 9 5 14 12 12 6 -3 11 4 11 14 0 11 -4 19 -8 19 -11 0 -6 23 7 33 6 5
2 6 -9 3 -17 -6 -17 -5 -5 11 8 9 9 14 3 10 -26 -15 -22 23 4 43 l27 20 -28
-10 c-37 -13 -36 -13 -34 10 1 11 5 20 10 20 5 0 7 -7 3 -15 -4 -13 -2 -14 14
-5 11 6 20 13 20 16 0 3 -5 2 -12 -2 -8 -5 -9 -2 -4 12 5 10 8 25 7 32 -1 6
-2 23 -3 37 -2 30 -13 32 -28 5 -11 -21 -30 -27 -30 -9 0 5 5 7 10 4 6 -3 10
-1 10 4 0 18 -5 26 -12 24 -5 -2 -8 2 -8 8 0 5 -4 8 -8 5 -4 -2 -8 3 -8 13 0
10 6 18 12 18 7 0 10 -5 8 -11 -2 -6 5 -17 16 -24 13 -8 20 -8 20 -1 0 5 4 8
8 5 10 -6 8 42 -3 51 -4 5 -5 3 -1 -4 3 -6 2 -14 -4 -18 -6 -4 -7 -11 -4 -17
4 -7 2 -8 -5 -4 -8 5 -9 12 -3 19 5 7 8 20 6 30 -2 13 2 17 12 13 9 -3 12 -1
9 4 -4 6 -17 8 -30 6 -13 -2 -31 1 -41 8 -15 12 -15 13 2 13 11 0 24 -4 31 -9
8 -6 16 -2 24 14 11 21 11 22 -4 9 -18 -15 -22 -5 -7 19 5 9 5 19 -2 27 -6 7
-7 13 -3 13 4 0 2 6 -5 14 -12 16 -44 10 -34 -5 3 -6 0 -16 -6 -24 -8 -10 -9
-15 -2 -15 6 0 14 5 17 10 3 6 12 10 18 10 7 0 6 -4 -3 -10 -10 -6 -11 -10 -2
-10 6 0 12 -5 12 -11 0 -8 -6 -7 -17 2 -15 12 -16 12 -10 -3 9 -24 -5 -23 -20
2 -8 12 -9 21 -3 25 15 10 12 25 -6 25 -11 0 -14 6 -9 20 3 11 2 20 -4 20 -5
0 -9 9 -8 19 0 11 5 17 9 15 5 -3 6 -9 3 -14 -3 -5 0 -12 6 -15 5 -4 8 -13 5
-21 -7 -18 4 -17 28 1 11 8 14 16 8 16 -7 1 -16 2 -22 3 -5 0 -9 5 -7 11 1 5
6 9 10 7 5 -1 6 2 2 8 -3 6 -11 8 -16 5 -5 -4 -9 1 -9 9 0 9 6 16 13 16 6 0 4
5 -6 11 -9 6 -15 15 -11 21 4 7 -1 8 -16 3 -20 -6 -21 -5 -9 8 8 8 18 13 22
10 5 -3 4 4 -2 14 -6 11 -7 24 -3 29 4 5 -2 2 -12 -6 -18 -14 -19 -13 -13 2 3
10 2 20 -3 23 -6 4 -10 11 -10 17 0 6 5 7 13 2 7 -5 4 -1 -7 9 -19 18 -21 18
-33 1 -13 -17 -9 -34 7 -34 5 0 7 8 3 18 -3 9 -3 14 1 11 4 -4 8 -16 11 -28 5
-30 15 -42 26 -36 5 4 9 2 9 -4 0 -21 -18 -19 -30 4 -7 14 -19 25 -27 25 -7 0
-14 5 -14 10 -1 6 -2 16 -3 23 -1 6 -7 11 -14 10 -16 -4 -16 14 1 20 9 3 9 9
-1 27 -10 17 -11 25 -2 34 8 8 9 6 4 -9 -7 -18 -6 -19 10 -5 10 8 13 16 8 18
-6 2 -8 10 -5 18 3 8 0 14 -7 14 -6 0 -9 -4 -6 -9 3 -5 0 -11 -7 -13 -17 -7
-38 2 -31 13 3 5 -1 9 -8 9 -9 0 -9 3 2 10 13 8 12 10 -2 10 -10 0 -19 5 -19
10 -1 6 -2 16 -3 23 -1 6 -10 11 -20 10 -13 -1 -15 2 -7 10 7 7 15 6 26 -3 18
-15 21 0 3 18 -16 16 2 34 22 22 10 -7 11 -10 3 -10 -7 0 -13 -4 -13 -10 0 -5
6 -9 13 -7 6 1 12 -5 12 -13 0 -8 -5 -15 -12 -15 -6 0 -15 -3 -19 -7 -4 -5 -2
-8 5 -8 7 0 19 -7 27 -15 9 -8 11 -15 5 -15 -6 0 -7 -8 -4 -17 6 -15 7 -14 13
3 4 10 4 27 -1 36 -13 24 -11 28 9 21 16 -6 16 -5 -1 12 -15 14 -16 20 -5 26
7 5 8 9 2 9 -15 0 -54 39 -54 53 0 7 7 3 15 -7 8 -11 15 -15 15 -10 0 6 -5 15
-12 22 -6 6 -8 15 -4 19 4 4 12 1 17 -7 9 -12 10 -12 5 3 -3 10 -6 21 -6 24 0
3 -6 0 -14 -6 -18 -15 -16 21 3 57 18 33 6 27 -17 -10 -13 -20 -18 -39 -13
-52 11 -34 7 -59 -9 -63 -12 -4 -12 -3 -2 5 11 7 11 10 -2 15 -9 4 -16 12 -15
19 0 10 2 10 6 0 2 -6 9 -9 14 -6 6 3 6 11 -2 20 -6 7 -15 12 -19 9 -5 -3 -11
-1 -15 4 -3 6 4 8 17 6 20 -3 21 -2 7 7 -15 11 -15 13 3 28 22 17 34 85 17 96
-5 3 -5 13 -1 22 17 35 0 91 -18 62 -6 -8 -10 -13 -11 -10 0 3 -2 13 -4 23 -3
14 1 17 18 12 15 -4 18 -3 9 3 -7 5 -12 15 -10 22 2 8 -3 15 -9 16 -7 1 -16 2
-19 3 -4 0 -1 8 6 16 11 13 15 13 21 3 6 -9 9 -9 9 -1 0 6 -5 15 -10 18 -6 4
-8 10 -5 15 3 5 -3 7 -13 5 -15 -2 -19 2 -19 20 0 17 4 22 16 18 13 -4 14 -3
1 5 -8 6 -18 8 -22 6 -16 -10 -8 9 10 23 13 10 13 13 2 11 -11 -2 -14 6 -13
30 1 17 -3 32 -8 32 -6 0 -7 5 -3 11 5 8 1 8 -14 0 -12 -6 -24 -16 -27 -21 -3
-6 -12 -10 -18 -10 -7 0 -4 5 6 11 17 10 16 12 -7 30 -14 11 -31 17 -37 13 -8
-5 -9 -3 -5 5 5 7 14 10 20 8 25 -10 37 8 20 31 -8 12 -20 20 -25 16 -6 -3 -3
-12 8 -20 10 -7 13 -14 7 -14 -5 0 -15 5 -22 12 -9 9 -12 9 -12 -2 0 -7 -3
-10 -6 -7 -4 4 -1 14 7 23 19 23 21 47 3 40 -8 -3 -14 -1 -14 4 0 6 8 10 18
10 16 1 16 1 -1 14 -16 12 -16 14 -1 20 13 5 14 9 4 21 -14 17 -14 17 15 33
11 6 14 12 8 12 -7 0 -13 5 -13 11 0 5 4 7 10 4 6 -3 7 1 4 9 -3 9 -10 16 -16
16 -5 0 -6 -4 -3 -10 3 -5 1 -10 -4 -10 -17 0 -13 18 7 29 15 9 15 10 1 11 -9
0 -22 -7 -29 -15 -7 -8 -17 -15 -23 -15 -5 0 0 8 11 19 12 10 18 22 14 26 -4
5 -2 5 5 1 6 -3 15 -1 19 5 4 7 3 9 -2 6 -6 -3 -16 4 -23 15 -11 18 -11 20 3
15 10 -4 13 -1 9 8 -3 8 -9 12 -14 9 -5 -3 -9 2 -9 10 0 9 -4 16 -10 16 -14 0
-13 -13 2 -28 7 -7 8 -12 4 -12 -5 0 -3 -6 3 -14 9 -11 9 -16 0 -22 -7 -4 -9
-3 -5 4 3 5 1 12 -4 14 -20 6 -21 56 -3 67 12 7 14 10 4 11 -10 0 -11 3 -2 13
13 17 5 28 -15 20 -9 -3 -12 0 -9 8 9 25 -11 45 -29 30 -9 -7 -13 -18 -10 -23
4 -6 -3 -5 -15 1 -11 7 -21 14 -21 17 0 3 5 2 10 -1 13 -8 35 5 23 14 -16 12
-43 61 -33 61 5 0 10 -4 10 -9 0 -9 27 -9 32 0 2 2 1 3 -1 2 -6 -4 -31 25 -31
37 0 6 -5 8 -12 4 -10 -6 -10 -5 -1 8 11 12 9 17 -13 27 -15 6 -24 15 -20 18
13 13 -28 31 -49 22 -19 -10 -19 -10 -1 5 16 13 21 13 42 -1 13 -8 21 -19 18
-24 -3 -5 0 -9 5 -9 18 0 12 14 -19 43 -16 16 -30 33 -30 39 0 6 -6 5 -16 -2
-12 -11 -18 -10 -32 3 -10 11 -12 17 -4 17 7 0 12 -4 12 -10 0 -5 5 -10 11
-10 6 0 8 7 5 16 -4 10 -2 13 7 8 6 -4 3 2 -8 13 -18 19 -42 22 -31 4 3 -4 -1
-8 -8 -8 -7 0 -13 6 -13 13 0 7 4 11 9 8 4 -3 8 4 8 15 0 26 -15 27 -29 4 -14
-24 -14 -7 -1 18 8 13 7 19 0 19 -6 0 -9 4 -6 9 3 4 -3 16 -14 26 -11 10 -17
22 -13 28 3 5 1 7 -5 3 -5 -3 -20 9 -31 28 -25 39 -87 90 -100 81 -5 -3 -12
-1 -15 4 -4 5 -1 13 5 17 8 5 9 3 4 -6 -6 -9 -4 -11 4 -6 15 9 7 19 -17 22 -9
2 -18 8 -20 13 -2 6 -12 11 -23 11 -10 0 -37 18 -60 39 -22 22 -53 46 -70 53
-16 7 -29 17 -29 21 0 5 -4 5 -10 2 -5 -3 -10 -1 -10 5 0 6 -5 8 -12 4 -6 -4
-17 1 -25 11 -7 11 -13 15 -13 10 0 -4 -9 2 -20 15 -12 13 -18 30 -15 37 2 8
0 11 -6 8 -5 -4 -7 -15 -4 -26 4 -13 2 -19 -7 -17 -19 4 -36 30 -33 50 3 12
-1 15 -13 11 -15 -6 -15 -5 -3 10 7 9 17 15 21 12 5 -3 11 -1 14 4 7 11 -13 9
-31 -2 -7 -5 -13 -4 -13 1 0 15 26 33 35 24 5 -4 5 -1 1 6 -6 10 -11 10 -21 2
-11 -9 -14 -7 -12 9 1 16 6 20 22 15 11 -3 16 -2 10 3 -5 4 -11 17 -13 28 -6
38 -10 60 -12 63 -3 3 -7 19 -9 32 0 6 -8 10 -17 10 -14 0 -14 -2 -3 -16 16
-19 20 -114 4 -114 -5 0 -3 -5 5 -11 13 -9 12 -10 -2 -5 -10 3 -18 1 -18 -4 0
-6 4 -10 9 -10 5 0 8 -8 7 -17 -2 -10 2 -21 8 -25 7 -5 6 -8 -4 -8 -9 -1 -5
-6 10 -15 14 -8 19 -14 11 -15 -11 0 -9 -4 5 -14 10 -8 16 -18 11 -22 -4 -4
-7 -2 -7 5 0 7 -3 10 -7 8 -5 -3 -14 1 -21 9 -10 11 -10 14 0 14 8 0 7 4 -4
10 -10 6 -15 19 -13 30 2 11 0 20 -4 20 -10 0 -11 32 -1 45 9 13 14 122 4 113
-4 -4 -8 -28 -9 -54 -2 -25 -8 -51 -14 -57 -14 -14 -14 -2 0 25 10 18 9 20 -5
15 -10 -4 -15 -3 -11 3 3 6 0 10 -7 10 -11 0 -10 2 0 9 11 7 10 9 -3 15 -9 3
-13 10 -10 16 3 5 0 10 -7 10 -8 0 -9 3 -3 8 14 10 19 46 5 37 -6 -3 -9 -3 -8
2 1 4 -3 19 -10 33 -12 22 -12 23 1 7 13 -16 15 -16 21 -1 9 23 7 34 -5 34 -5
0 -7 -4 -4 -10 3 -6 -1 -7 -10 -3 -13 5 -14 7 -3 14 12 8 11 10 -11 13 -5 0
-13 5 -18 10 -5 5 -3 6 5 2 16 -9 13 25 -3 36 -6 5 -5 8 3 8 6 0 12 4 12 10 0
5 -8 7 -17 4 -15 -5 -15 -4 -3 4 8 6 18 8 22 6 10 -6 11 10 1 19 -3 4 -12 2
-19 -4 -8 -7 -14 -6 -20 2 -4 8 -3 9 4 5 7 -4 12 -3 12 3 0 5 9 9 19 8 11 0
17 -5 14 -10 -3 -5 4 -4 15 2 18 10 20 8 17 -9 -3 -15 1 -20 18 -20 17 0 19 2
8 9 -8 5 -12 18 -8 30 3 11 2 20 -2 19 -19 -2 -24 3 -11 12 12 8 12 10 1 10
-11 0 -11 3 0 17 11 13 11 17 1 20 -6 3 -10 9 -7 14 4 5 -2 6 -12 3 -17 -5
-17 -5 0 9 17 14 17 15 0 21 -13 6 -14 9 -4 15 10 6 9 10 -4 15 -14 5 -15 9
-6 20 8 10 9 16 1 21 -6 3 -7 11 -4 17 4 7 2 8 -4 4 -7 -4 -12 -1 -12 9 0 10
5 14 13 10 6 -4 2 2 -10 13 -12 11 -19 22 -16 26 13 12 13 46 0 46 -8 0 -7 4
3 10 12 8 12 10 1 10 -8 0 -11 3 -8 7 4 3 0 15 -10 25 -9 10 -13 21 -8 26 4 4
10 1 12 -5 3 -7 9 -13 14 -13 6 0 3 10 -5 22 -12 17 -13 25 -3 37 7 8 7 12 2
9 -14 -8 -41 13 -40 32 0 8 -7 21 -16 27 -29 21 -10 60 25 54 5 -1 4 5 -4 13
-9 12 -9 16 -1 16 8 0 7 6 -3 16 -9 8 -14 20 -11 25 4 5 -1 9 -9 9 -8 0 -18 5
-22 11 -4 8 1 9 17 5 l24 -7 -23 14 c-12 7 -19 16 -15 21 4 4 -1 4 -12 0 -18
-7 -19 -6 -6 10 14 17 16 16 33 -6 l19 -23 -13 28 c-6 16 -17 26 -24 23 -8 -3
-16 -1 -19 4 -5 9 6 14 26 12 3 -1 5 12 5 28 0 16 -2 27 -6 25 -3 -2 -12 6
-19 17 -11 18 -11 20 3 15 13 -5 15 -3 7 12 -6 10 -7 21 -4 25 3 3 1 6 -7 6
-10 0 -10 3 0 16 11 12 11 15 -1 12 -8 -2 -13 3 -11 11 2 9 -3 11 -13 7 -9 -3
-19 -6 -21 -6 -3 0 -2 -5 1 -10 4 -6 11 -7 17 -4 7 4 8 2 4 -5 -4 -6 -12 -8
-18 -5 -7 5 -8 2 -3 -5 6 -10 3 -11 -14 -2 -14 8 -21 8 -21 1 0 -5 7 -10 15
-10 18 0 19 -12 3 -28 -12 -12 0 -18 26 -13 5 1 4 -4 -2 -12 -7 -8 -8 -18 -4
-23 4 -4 -1 -2 -10 5 -12 9 -18 10 -18 2 0 -6 4 -11 9 -11 5 0 8 -11 7 -25 -2
-14 3 -30 11 -37 11 -9 11 -13 1 -20 -8 -6 -4 -7 12 -3 19 5 22 4 10 -4 -10
-7 -11 -11 -2 -11 6 0 12 -5 12 -11 0 -5 -6 -7 -12 -3 -10 5 -10 4 -1 -6 6 -7
10 -18 9 -24 -2 -6 -1 -8 1 -3 3 4 9 4 15 1 6 -4 5 -10 -3 -15 -10 -7 -5 -8
13 -5 17 3 28 -1 32 -9 6 -17 -1 -22 -38 -29 -30 -5 -48 -16 -27 -16 7 0 10
-10 7 -25 -3 -16 -1 -23 5 -19 6 3 8 8 5 11 -8 8 13 43 25 43 5 0 2 -14 -7
-31 -10 -20 -11 -28 -3 -24 8 6 10 4 4 -5 -5 -8 -4 -11 3 -6 13 8 8 -30 -7
-48 -12 -15 1 -38 20 -34 8 2 13 -3 11 -10 -1 -8 2 -11 8 -7 6 3 8 11 5 16 -4
5 -1 9 4 9 17 0 13 -21 -6 -37 -10 -8 -12 -11 -5 -8 11 6 12 3 2 -15 -11 -20
-10 -21 12 -10 19 9 21 9 8 -2 -9 -7 -15 -26 -14 -43 0 -16 -3 -35 -8 -42 -6
-7 -4 -14 3 -19 7 -4 9 -3 5 4 -3 6 -1 14 5 18 8 4 9 3 5 -5 -5 -7 -2 -10 6
-9 7 2 12 -2 11 -9 -2 -8 4 -10 15 -7 13 5 14 4 3 -4 -7 -5 -11 -14 -7 -20 3
-6 2 -14 -4 -17 -6 -4 -8 -15 -5 -25 3 -10 1 -21 -5 -25 -5 -3 -10 0 -10 7 -1
8 -7 5 -17 -7 -13 -16 -15 -17 -10 -2 4 9 1 17 -5 17 -7 0 -6 5 2 15 12 15 4
21 -23 16 -5 -1 -6 3 -2 8 3 6 11 8 18 5 8 -3 13 4 13 16 0 11 -5 19 -11 17
-5 -3 -10 6 -10 18 0 16 4 21 15 17 13 -5 13 -3 1 11 -11 14 -11 20 0 33 12
15 11 16 -9 10 -17 -6 -22 -3 -22 11 0 15 2 16 11 3 8 -12 10 -11 7 5 -2 11
-8 20 -15 20 -19 0 -26 14 -14 29 9 11 8 15 -4 20 -9 3 -13 11 -10 16 4 6 1
17 -5 25 -13 16 -4 20 29 15 12 -1 13 1 2 14 -7 8 -20 12 -28 9 -12 -5 -15 -2
-11 9 4 9 1 26 -6 39 -17 34 -14 55 7 51 16 -3 16 0 5 18 -7 11 -14 16 -16 10
-2 -5 -8 -10 -14 -10 -7 0 -7 4 1 13 8 10 7 17 -2 26 -6 7 -7 12 -2 11 25 -5
28 2 5 15 -14 8 -19 14 -12 15 6 0 12 5 12 11 0 5 -4 8 -8 5 -8 -5 -15 37 -14
81 0 14 -4 20 -12 16 -6 -3 -6 -1 2 8 13 14 16 30 5 28 -26 -4 -38 1 -23 11
13 8 12 11 -5 25 -19 14 -19 15 -1 8 14 -5 17 -3 11 7 -6 9 -4 11 5 5 10 -6
11 -4 6 11 -5 10 -9 25 -9 32 0 15 -17 16 -17 0 0 -6 -3 -8 -6 -5 -4 4 -2 13
4 20 9 10 7 19 -5 38 -10 14 -11 19 -2 11 11 -10 17 -8 32 10 16 21 18 22 15
3 -2 -12 2 -19 10 -17 8 1 11 -2 7 -8 -3 -6 -10 -8 -15 -5 -10 6 -22 -23 -14
-36 3 -5 10 -7 15 -3 5 3 6 11 2 17 -4 8 -2 8 9 -1 13 -10 17 -10 22 3 3 10 2
14 -5 10 -11 -8 -9 26 3 35 4 3 3 12 -2 20 -8 12 -10 11 -10 -5 0 -16 -2 -17
-10 -5 -5 9 -5 19 1 26 6 8 3 16 -8 25 -16 12 -17 12 -6 -2 14 -17 0 -39 -25
-39 -8 0 -10 -5 -6 -12 5 -9 2 -8 -9 1 -10 8 -15 16 -13 19 9 8 -15 43 -25 37
-5 -4 -9 -1 -9 4 0 19 18 12 38 -16 22 -30 52 -23 31 7 -9 13 -10 12 -5 -2 3
-10 0 -18 -5 -18 -7 0 -9 11 -7 25 3 13 1 22 -3 19 -14 -8 -47 19 -42 34 3 8
0 18 -8 23 -10 6 -10 9 -2 9 9 0 10 7 4 23 -32 78 -32 90 -4 92 17 1 20 -2 14
-14 -7 -14 -6 -52 0 -98 1 -7 6 -13 10 -13 4 0 6 -9 4 -20 -3 -13 0 -18 7 -14
6 4 8 3 5 -4 -5 -6 1 -8 15 -4 24 5 38 20 38 37 -1 6 -5 2 -11 -7 -5 -10 -15
-18 -20 -18 -6 0 -7 4 -4 10 4 6 -1 7 -12 3 -15 -5 -16 -3 -5 8 6 7 12 18 12
24 0 5 -5 3 -11 -5 -9 -12 -10 -11 -6 8 3 14 -1 26 -11 32 -10 5 -12 10 -4 10
17 0 54 -39 47 -50 -3 -6 1 -7 10 -3 13 5 14 7 3 14 -11 7 -10 11 2 20 13 9
12 10 -3 5 -11 -4 -20 0 -24 11 -4 9 -1 19 5 21 14 4 16 22 3 22 -5 0 -12 -9
-16 -19 -4 -12 -12 -18 -20 -15 -12 5 -12 8 0 21 8 8 15 19 15 24 0 6 6 7 13
3 6 -4 4 2 -7 14 -10 12 -23 19 -27 16 -5 -3 -9 -1 -9 5 0 17 24 18 40 1 8 -9
11 -10 7 -3 -5 6 -6 17 -3 22 4 6 -3 8 -16 6 -20 -4 -23 0 -24 25 -1 16 2 28
6 25 3 -2 7 2 7 10 0 8 -5 11 -10 8 -6 -4 -8 0 -4 10 9 23 -10 31 -28 13 -8
-8 -11 -17 -6 -20 5 -4 11 0 14 6 2 7 3 -11 2 -39 -1 -29 1 -51 4 -48 4 2 7
-5 7 -16 0 -17 -2 -17 -22 6 -11 13 -25 21 -29 17 -5 -4 -1 5 8 20 l17 27 -37
20 c-21 11 -33 20 -27 21 12 0 15 30 2 30 -4 0 -7 3 -7 8 1 4 0 10 -1 15 -1 4
-3 13 -4 20 -1 6 -7 11 -14 10 -6 -2 -9 4 -6 12 4 8 10 15 15 15 6 0 4 6 -3
14 -13 14 -33 11 -24 -3 3 -4 -1 -8 -9 -8 -9 0 -7 9 9 31 13 17 21 36 19 43
-3 8 5 10 24 7 20 -3 24 -2 13 5 -8 5 -17 8 -21 5 -4 -2 -10 0 -14 6 -3 5 1
10 10 10 14 0 13 5 -6 38 -13 20 -25 39 -28 42 -4 3 -7 12 -9 20 -2 8 -9 21
-14 28 -14 17 -53 38 -44 24 10 -17 -25 -23 -47 -7 -12 8 -17 15 -11 15 5 0
15 -5 22 -12 6 -6 15 -8 19 -3 5 4 2 10 -4 12 -15 5 -17 33 -3 33 6 0 10 -5
10 -12 0 -6 3 -8 7 -4 5 4 -1 14 -11 22 -12 8 -14 14 -7 14 7 0 3 9 -10 19
-15 12 -28 16 -33 10 -6 -5 -3 -14 10 -24 10 -8 14 -15 7 -15 -7 0 -13 -5 -13
-11 0 -8 6 -7 18 2 15 13 16 12 4 -3 -8 -9 -20 -14 -28 -11 -11 4 -12 9 -4 18
8 10 8 15 0 20 -7 4 -10 15 -7 25 2 10 0 24 -5 31 -8 11 -9 10 -4 -3 3 -10 1
-20 -5 -23 -5 -4 -9 -3 -8 2 3 20 -2 34 -11 28 -5 -3 -7 -13 -4 -23 5 -14 4
-15 -5 -2 -8 12 -6 19 12 34 16 14 17 18 4 13 -10 -4 -30 3 -50 16 -32 22 -37
28 -37 46 0 5 -9 13 -20 16 -11 3 -20 11 -20 16 0 6 5 7 12 3 7 -4 8 -3 4 4
-4 6 -14 8 -22 5 -11 -4 -15 0 -12 12 2 11 -4 19 -17 21 -11 2 -21 8 -23 14
-2 5 -8 8 -13 4 -5 -3 -9 1 -9 9 0 17 -27 30 -42 20 -7 -3 -8 -1 -4 5 4 7 2
12 -4 12 -7 0 -23 9 -37 20 -28 22 -48 27 -37 8 4 -7 3 -8 -4 -4 -6 4 -9 13
-5 22 4 11 9 12 19 3 10 -8 13 -6 11 10 -1 11 -3 18 -6 16 -2 -3 -15 2 -29 11
-17 11 -22 12 -16 3 12 -20 14 -40 3 -33 -5 3 -7 9 -4 14 3 5 -6 17 -20 28
-13 11 -21 23 -17 28 4 5 -1 2 -10 -5 -15 -12 -18 -11 -18 3 0 9 -5 16 -11 16
-5 0 -7 5 -3 12 4 7 3 8 -5 4 -6 -4 -18 -2 -26 4 -8 7 -15 9 -15 4 0 -5 -5 -2
-10 6 -5 8 -13 15 -17 16 -23 2 -63 25 -59 33 4 5 -2 7 -13 4 -10 -3 -22 0
-25 6 -4 6 -16 11 -26 11 -10 0 -20 4 -22 9 -3 9 -23 15 -90 28 -16 3 -28 10
-28 15 0 5 -4 6 -10 3 -5 -3 -23 1 -40 10 -16 8 -30 11 -30 6 0 -9 -27 -2 -88
20 -18 7 -21 6 -16 -3 6 -10 4 -10 -8 0 -15 12 -279 17 -291 6z m126 -618 c-4
-5 -1 -6 8 0 19 12 39 14 39 4 0 -4 9 -6 20 -3 11 3 20 1 20 -3 0 -5 12 -10
26 -10 14 -1 34 -10 44 -19 10 -9 24 -14 30 -10 6 3 10 3 9 -2 -4 -21 2 -32
15 -27 8 3 25 -2 38 -10 14 -9 28 -13 31 -9 4 3 7 -2 7 -13 0 -15 2 -16 9 -5
7 11 10 9 16 -8 3 -12 11 -19 16 -15 6 3 16 -1 22 -10 7 -9 22 -18 35 -19 12
0 22 -5 22 -9 0 -4 4 -7 9 -6 32 9 140 -102 135 -139 l-4 -28 14 29 13 29 7
-28 c4 -15 9 -25 12 -22 8 8 44 -25 38 -35 -3 -4 4 -8 16 -8 12 0 18 -4 15
-10 -3 -5 -1 -10 5 -10 6 0 8 -5 4 -12 -4 -7 -3 -8 4 -4 7 4 17 -3 24 -18 6
-14 15 -26 20 -26 4 0 8 -7 8 -15 0 -8 13 -24 30 -36 16 -12 32 -29 35 -38 3
-11 0 -10 -10 3 -8 11 -15 15 -15 9 0 -6 7 -16 15 -23 8 -7 15 -19 15 -26 0
-8 4 -14 10 -14 9 0 53 -85 54 -105 1 -5 7 -14 14 -18 7 -5 10 -13 6 -18 -3
-5 0 -8 7 -7 7 2 14 -4 14 -12 2 -24 -7 -33 -17 -19 -8 12 -9 12 -6 0 4 -15
35 -24 51 -14 4 3 0 11 -10 19 -17 14 -16 15 7 8 23 -6 24 -5 6 8 -16 13 -16
15 -2 15 9 0 16 -4 16 -9 0 -5 6 -6 13 -2 10 6 10 4 0 -7 -7 -7 -13 -17 -13
-22 0 -4 6 -5 13 -1 7 4 9 3 4 -2 -5 -5 -14 -9 -20 -9 -7 -1 -11 -6 -10 -12 2
-7 -6 -10 -17 -8 -13 2 -17 -1 -13 -11 3 -7 10 -11 17 -7 8 5 8 3 0 -8 -17
-22 -8 -122 13 -136 13 -10 14 -13 2 -13 -12 0 -12 -2 0 -9 8 -5 12 -19 9 -35
-4 -21 -2 -24 12 -16 22 12 33 1 19 -17 -9 -9 -8 -13 0 -13 6 0 11 -5 11 -11
0 -5 -4 -8 -9 -5 -5 4 0 -13 11 -36 25 -52 24 -52 38 -43 7 4 4 12 -8 23 -10
9 -13 13 -6 9 7 -5 14 -2 17 5 4 9 6 7 7 -4 2 -10 3 -24 4 -30 1 -7 7 -12 14
-11 7 2 9 -4 5 -13 -5 -15 -7 -15 -15 -1 -9 17 -38 12 -38 -5 0 -6 8 -7 17 -4
15 6 15 5 -1 -13 -17 -19 -17 -20 2 -30 11 -6 23 -6 28 -1 6 6 15 5 24 -1 13
-10 13 -10 0 -6 -17 5 -46 -19 -29 -25 5 -2 12 -12 14 -23 2 -11 4 -22 5 -25
1 -3 2 -8 1 -12 0 -4 6 -5 14 -2 10 4 13 -1 9 -20 -3 -21 -1 -24 12 -19 12 4
15 3 10 -5 -4 -7 -2 -12 5 -12 8 0 7 -5 -2 -17 -8 -9 -9 -14 -4 -11 6 4 17 3
25 -3 12 -7 12 -9 -3 -9 -10 0 -15 -5 -12 -10 4 -6 12 -7 18 -3 7 4 5 -2 -3
-12 -9 -11 -10 -16 -2 -11 11 7 16 -6 15 -41 -1 -7 3 -10 8 -7 5 3 9 -2 9 -10
0 -9 5 -16 10 -16 6 0 10 -5 10 -11 0 -5 -5 -7 -12 -3 -7 5 -8 3 -4 -5 5 -7
14 -10 22 -7 7 3 16 1 19 -5 4 -5 12 -6 18 -3 7 4 8 3 4 -1 -11 -13 -38 -15
-31 -3 4 7 2 8 -5 4 -9 -6 -9 -11 0 -22 6 -7 9 -20 6 -29 -4 -8 -2 -17 4 -20
5 -4 7 -11 4 -16 -4 -5 0 -9 7 -9 9 0 9 -3 -2 -10 -12 -8 -11 -10 8 -10 14 0
22 -6 22 -17 0 -16 -2 -16 -11 -3 -9 12 -10 12 -5 -3 3 -10 6 -23 6 -28 0 -17
30 -9 31 9 0 12 2 13 6 3 3 -8 -3 -21 -13 -29 -18 -14 -18 -14 4 -9 20 5 22 3
10 -11 -11 -13 -11 -15 2 -10 12 5 16 -1 14 -23 -1 -16 1 -27 6 -24 4 2 10
-12 13 -31 3 -20 14 -42 24 -50 17 -13 17 -14 -2 -8 -19 5 -19 5 -2 -9 9 -8
17 -21 17 -30 0 -9 4 -18 9 -21 5 -3 14 -20 20 -36 6 -18 6 -28 1 -25 -6 4
-10 3 -10 0 0 -10 27 -35 32 -30 3 3 5 -1 5 -9 0 -9 -6 -12 -16 -8 -14 5 -14
3 -2 -11 7 -9 18 -14 23 -11 6 4 5 -3 -1 -15 -9 -16 -9 -21 1 -21 9 0 9 -3 -2
-10 -13 -9 -13 -10 0 -10 13 0 13 -1 0 -10 -13 -8 -13 -10 2 -10 9 0 18 6 21
13 3 6 4 -6 2 -28 -3 -43 5 -75 20 -78 9 -2 15 -39 15 -84 0 -13 6 -23 13 -23
8 0 7 -4 -3 -10 -13 -8 -13 -10 1 -10 24 0 30 11 16 29 -11 14 -10 14 6 2 31
-24 52 4 28 38 -14 20 -17 31 -9 42 8 12 9 12 5 -2 -6 -18 28 -67 39 -56 4 4
2 7 -4 7 -17 0 -15 17 3 23 8 4 17 1 21 -5 5 -7 3 -8 -5 -4 -15 10 -11 -25 4
-36 6 -5 5 -8 -3 -8 -7 0 -10 -5 -7 -10 4 -6 3 -9 -2 -8 -4 1 -19 -4 -32 -11
-14 -8 -21 -9 -17 -2 4 6 3 11 -3 11 -19 0 -21 -19 -4 -29 23 -13 8 -14 -17
-1 -11 6 -21 6 -25 1 -6 -12 28 -24 73 -26 30 -1 56 15 64 40 2 6 6 9 11 7 4
-1 7 7 7 17 0 11 5 23 12 27 7 5 8 3 3 -6 -6 -10 -4 -11 11 -5 10 4 32 7 47 6
19 -1 26 2 21 10 -5 8 -2 9 11 1 21 -11 30 -43 10 -36 -7 3 -16 0 -20 -6 -4
-7 -12 -4 -23 8 -9 10 -14 13 -10 7 7 -11 -4 -37 -16 -36 -20 3 -26 0 -21 -9
4 -6 3 -9 -2 -8 -13 5 -53 -28 -45 -37 4 -5 2 -5 -5 -1 -14 8 -28 -28 -17 -45
4 -7 3 -9 -3 -6 -5 3 -10 0 -10 -8 0 -8 4 -12 8 -9 4 2 10 0 14 -5 3 -6 13 -8
23 -5 14 5 14 4 3 -4 -8 -6 -21 -8 -29 -5 -12 5 -12 2 -3 -15 10 -19 9 -21 -6
-15 -16 6 -17 5 -3 -12 9 -11 10 -16 3 -11 -8 4 -13 1 -13 -9 0 -8 -7 -18 -15
-21 -8 -4 -15 -13 -15 -21 0 -9 -5 -11 -12 -7 -8 5 -7 0 2 -11 12 -15 12 -17
1 -10 -10 6 -13 4 -9 -6 6 -15 -45 -93 -54 -83 -3 2 -11 -9 -18 -26 -7 -16
-16 -27 -21 -24 -5 2 -11 -7 -15 -21 -3 -14 -10 -25 -16 -25 -5 0 -6 -4 -3
-10 3 -5 -1 -10 -10 -10 -11 0 -15 -5 -11 -15 3 -8 2 -14 -2 -14 -20 3 -31 -3
-37 -21 -4 -12 -11 -17 -18 -14 -7 4 -9 4 -5 -1 10 -11 -11 -47 -22 -40 -6 3
-7 -1 -4 -9 3 -9 13 -16 21 -16 9 0 13 -6 10 -15 -4 -8 -2 -17 4 -20 5 -4 7
-11 3 -16 -9 -15 20 -6 33 11 10 12 10 8 1 -17 -7 -17 -15 -30 -20 -27 -4 3
-5 -3 -1 -12 4 -12 3 -15 -5 -10 -9 5 -10 1 -3 -16 4 -13 6 -28 4 -34 -2 -6 3
-14 12 -18 10 -4 14 -2 9 5 -4 6 4 5 17 -2 13 -7 27 -12 32 -11 4 1 7 -3 7 -9
0 -7 9 -9 21 -6 16 4 18 3 8 -9 -8 -10 -8 -14 0 -14 6 0 11 -8 11 -17 0 -15
-2 -16 -10 -3 -13 21 -12 6 1 -24 7 -14 16 -23 20 -20 16 9 9 -13 -10 -37 -18
-23 -18 -25 -3 -43 9 -11 11 -16 5 -12 -15 8 -18 -10 -4 -19 6 -3 14 3 20 12
6 10 10 14 11 8 0 -20 -18 -37 -31 -31 -8 4 -6 1 4 -7 17 -14 17 -15 0 -21
-21 -8 -23 -8 -25 2 0 4 -8 13 -17 20 -15 11 -15 12 0 6 10 -3 20 -1 23 4 3 5
-3 12 -14 15 -23 6 -30 -10 -17 -40 13 -28 33 -36 60 -22 14 7 12 2 -8 -14
-16 -14 -27 -28 -23 -32 11 -11 -15 -33 -31 -27 -10 4 -12 1 -6 -9 7 -11 5
-11 -10 1 -10 8 -16 10 -12 4 4 -7 -1 -15 -10 -18 -15 -6 -15 -9 -3 -16 8 -5
18 -6 24 -3 5 3 6 1 2 -5 -4 -6 -14 -8 -23 -5 -11 4 -14 3 -9 -5 4 -7 -6 -20
-26 -32 -18 -11 -28 -20 -23 -21 6 -1 -1 -4 -14 -8 -16 -4 -25 -15 -26 -29 -1
-12 -5 -25 -10 -29 -4 -5 -5 1 -1 11 5 16 4 17 -9 6 -8 -7 -15 -9 -15 -5 0 4
-7 2 -15 -5 -8 -7 -15 -8 -15 -3 0 6 -14 9 -31 7 -16 -2 -28 0 -25 5 3 4 -5 6
-17 4 -12 -2 -39 5 -60 15 -23 13 -39 16 -43 10 -4 -7 -9 -7 -13 0 -9 13 -75
46 -67 33 4 -6 2 -11 -3 -11 -6 0 -11 8 -11 18 0 13 -2 14 -9 4 -7 -11 -9 -11
-14 1 -4 10 -13 13 -28 10 -17 -5 -20 -3 -14 7 6 10 4 11 -6 4 -20 -12 -40
-14 -33 -3 3 5 10 6 16 3 6 -4 8 -3 5 3 -3 5 -22 8 -41 7 -21 -2 -36 1 -36 8
0 7 -4 7 -12 1 -14 -11 -48 -14 -45 -4 1 3 -2 7 -6 8 -5 1 -17 11 -26 22 -10
11 -21 18 -25 14 -3 -3 -6 2 -6 12 0 13 -3 15 -13 6 -14 -11 -27 -5 -27 13 0
6 5 4 10 -4 6 -9 10 -10 10 -3 0 7 -12 18 -27 26 -16 7 -27 19 -26 25 2 7 -2
12 -7 12 -6 0 -10 4 -10 10 0 5 8 7 18 4 14 -5 15 -4 2 5 -8 6 -24 8 -35 5
-19 -6 -20 -6 -1 8 15 12 16 17 6 23 -9 5 -11 4 -6 -3 4 -7 2 -12 -3 -12 -15
0 -14 23 2 39 10 11 10 13 0 7 -7 -4 -13 -2 -13 3 0 6 -5 11 -11 11 -8 0 -8
-4 0 -14 15 -18 -5 -34 -22 -17 -9 9 -7 10 8 5 17 -7 18 -6 7 8 -11 14 -9 20
10 39 13 12 17 19 10 14 -8 -4 -22 1 -35 12 -21 18 -21 18 -7 -2 14 -18 13
-19 -1 -8 -9 7 -19 9 -24 5 -4 -4 -3 2 2 13 12 24 6 45 -13 45 -8 0 -14 5 -14
11 0 5 4 8 8 5 5 -3 9 1 9 8 0 9 -7 12 -15 8 -11 -4 -14 -1 -9 10 7 20 -16 31
-33 15 -10 -10 -10 -8 -1 10 14 28 14 36 -1 26 -19 -11 -39 -13 -32 -2 3 5 10
7 15 4 5 -4 9 -1 9 4 0 6 -4 11 -10 11 -5 0 -10 5 -10 11 0 5 4 8 8 5 5 -3 9
1 9 8 0 8 -8 11 -18 9 -11 -3 -16 -11 -12 -21 3 -10 -4 -4 -15 11 -11 17 -17
38 -14 50 4 18 2 20 -9 10 -7 -7 -18 -13 -24 -13 -5 0 -2 5 8 11 25 14 21 31
-5 24 -21 -5 -21 -5 2 9 14 9 19 15 12 16 -7 0 -10 5 -6 12 4 7 3 8 -4 4 -11
-6 -14 0 -11 20 2 15 -26 22 -41 11 -13 -11 -13 -10 -1 5 7 10 16 16 20 14 4
-3 7 4 7 14 0 18 -1 18 -19 3 -22 -21 -57 -25 -50 -6 6 16 23 17 23 1 0 -9 3
-9 11 -1 7 7 8 19 4 30 -5 10 -7 21 -7 26 1 4 -4 6 -10 5 -7 -2 -13 5 -13 16
0 20 -40 40 -58 29 -6 -4 -8 0 -4 10 3 8 -1 21 -10 28 -13 11 -14 10 -11 -7 1
-12 -3 -28 -11 -37 -8 -10 -9 -17 -3 -17 6 0 14 5 17 11 5 6 12 4 22 -8 13
-17 14 -17 9 0 -6 19 -1 20 29 7 17 -7 17 -9 2 -9 -9 -1 -16 -4 -15 -8 2 -14
-14 -43 -24 -43 -6 0 -6 6 1 14 7 9 8 17 2 20 -5 3 -11 0 -14 -6 -3 -10 -9 -8
-24 5 -11 9 -24 14 -28 10 -5 -5 -3 0 4 10 8 10 9 17 3 17 -6 0 -9 9 -7 19 2
11 -3 22 -11 25 -9 3 -14 -1 -14 -12 0 -13 -2 -14 -9 -3 -5 8 -11 9 -15 3 -4
-6 1 -15 10 -20 14 -8 14 -10 -4 -14 -17 -5 -19 -2 -15 21 10 61 10 81 1 81
-6 0 -7 -7 -4 -16 3 -8 1 -25 -6 -37 -7 -12 -11 -29 -9 -37 2 -10 -2 -8 -12 5
-17 22 -12 45 10 45 12 0 13 3 3 15 -6 8 -9 19 -6 24 4 5 2 12 -3 16 -7 4 -7
15 -1 31 9 22 8 24 -9 15 -12 -7 -22 -6 -29 1 -18 18 -23 3 -6 -18 8 -10 13
-14 10 -8 -3 6 0 11 7 11 7 0 13 -8 13 -17 0 -16 -22 -20 -42 -7 -14 8 -10 55
5 70 17 17 13 31 -4 17 -19 -16 -32 -5 -17 13 7 8 8 18 4 22 -4 5 -1 5 6 1 7
-4 19 -2 27 4 19 15 21 37 3 23 -15 -12 -49 -13 -42 -2 2 4 -2 10 -8 12 -9 4
-10 6 -1 6 6 1 15 -3 18 -9 3 -5 11 -10 17 -10 6 0 2 11 -10 23 -17 18 -19 24
-8 24 8 0 13 -5 9 -10 -3 -5 3 -6 15 -3 11 4 23 2 27 -3 3 -7 0 -8 -9 -5 -9 3
-16 1 -16 -5 0 -6 6 -10 13 -9 7 2 12 -7 11 -22 0 -14 -5 -24 -12 -22 -15 3
-16 -14 -1 -23 6 -5 4 -11 -7 -19 -16 -12 -16 -13 1 -20 10 -3 24 -1 31 5 7 6
19 7 26 3 10 -5 11 -4 1 7 -10 10 -16 10 -25 1 -16 -16 -33 -15 -19 1 6 8 7
17 3 22 -4 4 4 4 18 1 14 -4 20 -4 14 1 -12 9 -25 73 -14 73 3 0 12 -6 20 -12
11 -10 11 -9 0 6 -13 18 -13 19 1 14 9 -4 16 -1 16 7 0 10 -5 11 -18 4 -23
-12 -32 -12 -24 1 4 6 3 10 -2 9 -19 -3 -33 2 -33 12 0 5 5 7 11 3 7 -4 6 3
-2 17 -7 13 -13 27 -14 31 0 3 -4 10 -9 15 -5 5 -6 3 -2 -4 4 -7 2 -13 -3 -13
-6 0 -11 5 -11 10 0 6 -7 10 -16 10 -9 0 -12 5 -8 13 5 8 2 8 -9 -2 -15 -12
-17 -11 -18 3 -1 9 -2 21 -3 28 0 6 -8 13 -16 15 -13 4 -13 3 0 -6 13 -9 13
-11 -2 -11 -19 0 -25 25 -9 34 9 6 -9 56 -19 56 -10 0 -9 -39 0 -45 5 -3 7
-12 3 -21 -5 -12 -7 -12 -18 3 -7 10 -11 21 -9 25 3 5 0 8 -6 8 -6 0 -8 5 -5
10 4 6 12 7 18 4 7 -4 9 -4 5 1 -4 4 -3 16 2 25 7 13 6 20 -5 24 -8 3 -15 10
-15 16 0 6 6 8 13 4 9 -5 9 -3 -1 7 -7 8 -17 15 -23 15 -5 1 -12 2 -16 3 -4 0
2 8 13 16 18 15 18 15 0 8 -13 -4 -17 -3 -12 5 4 6 2 21 -5 33 -10 20 -9 21 7
15 18 -6 18 -6 0 8 -11 9 -15 20 -10 28 6 11 5 11 -8 0 -13 -10 -18 -10 -24
-1 -5 8 -3 9 6 4 9 -5 10 -2 5 14 -3 11 -3 21 2 21 5 0 9 9 10 20 1 16 -1 17
-12 7 -7 -6 -11 -14 -10 -17 2 -3 0 -11 -4 -18 -4 -8 -11 -5 -20 9 -8 14 -8
19 -1 14 7 -4 11 -1 9 6 -3 24 1 39 9 37 4 -2 8 2 10 7 6 25 -25 6 -40 -25
-10 -20 -18 -28 -18 -17 0 9 -4 17 -10 17 -5 0 -10 5 -10 11 0 8 6 7 17 -2 15
-12 16 -12 9 6 -4 11 -4 16 0 12 9 -8 34 11 34 26 0 7 -4 7 -12 -1 -15 -15
-28 -15 -28 -1 0 5 5 7 11 3 7 -4 10 1 7 11 -1 10 -9 20 -16 23 -7 2 -11 -2
-10 -8 2 -7 -4 -15 -12 -17 -13 -4 -13 -3 0 6 8 6 11 11 5 11 -5 0 -4 5 3 12
9 9 17 7 33 -8 14 -12 19 -13 14 -4 -5 8 -17 21 -27 28 -20 15 -25 37 -5 27 6
-4 0 5 -15 19 -16 14 -28 32 -28 41 0 10 -5 13 -12 9 -10 -5 -10 -4 -1 6 9 10
8 18 -4 36 -8 13 -11 29 -7 35 4 8 3 9 -4 5 -8 -5 -12 0 -12 12 0 22 -29 34
-53 21 -9 -6 -18 -5 -22 0 -3 6 4 15 16 21 12 7 19 8 16 3 -4 -5 0 -10 8 -10
18 0 20 13 3 21 -10 4 -10 7 -1 12 15 7 -31 53 -51 50 -40 -6 -27 -21 14 -17
12 2 12 0 2 -7 -11 -7 -10 -11 5 -16 17 -7 17 -8 -1 -22 -11 -8 -25 -14 -30
-14 -6 1 0 7 12 14 l24 13 -32 13 c-17 7 -29 18 -26 25 5 13 -12 35 -27 35 -5
0 -3 -8 4 -17 13 -16 12 -17 -4 -4 -13 10 -15 17 -6 27 11 13 6 18 -16 15 -5
-1 -2 5 7 12 10 8 15 17 11 20 -3 4 -13 1 -21 -6 -13 -9 -14 -9 -8 1 4 7 2 12
-5 12 -7 0 -10 3 -6 6 3 4 -1 13 -10 22 -14 14 -14 17 3 29 11 8 21 9 29 3 7
-5 15 -7 19 -3 4 4 11 1 16 -7 7 -10 10 -11 10 -2 0 6 5 12 11 12 5 0 7 -5 3
-12 -5 -7 -3 -8 7 -3 20 13 49 13 49 1 0 -5 6 -2 13 9 11 14 16 15 22 5 6 -9
4 -11 -6 -5 -8 5 -11 4 -6 0 12 -13 47 -16 47 -4 0 5 -4 8 -9 5 -5 -3 -11 1
-14 9 -5 12 -2 12 18 3 13 -6 22 -15 18 -21 -3 -6 -1 -7 6 -3 6 4 8 12 5 18
-5 7 -1 9 9 5 9 -3 19 -1 23 5 5 7 3 8 -5 4 -8 -5 -12 -3 -10 5 3 27 -1 40
-11 34 -5 -3 -10 -1 -10 5 0 6 -5 8 -12 4 -6 -4 -8 -3 -5 4 9 14 47 3 54 -15
5 -12 7 -12 14 -2 4 8 3 20 -4 28 -10 12 -9 14 6 8 10 -4 16 -3 12 2 -3 5 1
12 7 15 7 3 4 4 -7 1 -11 -2 -27 0 -35 5 -11 7 -11 10 -2 10 8 0 10 5 6 13 -6
9 -5 9 8 -1 21 -16 67 -12 60 6 -3 10 -7 11 -12 2 -5 -8 -9 -7 -13 4 -4 9 -2
16 3 16 6 0 10 5 10 10 0 7 -6 7 -20 0 -16 -9 -18 -8 -14 5 3 8 10 12 15 9 5
-3 9 -1 9 5 0 5 -6 11 -12 14 -7 2 -1 4 13 3 14 0 26 -6 26 -13 0 -7 -5 -10
-10 -6 -5 3 -3 -5 3 -18 18 -34 19 -35 16 -3 -1 16 5 38 13 49 15 18 15 19 -1
6 -10 -7 -18 -9 -18 -3 0 11 25 34 31 28 2 -2 5 12 5 31 1 23 -1 30 -7 22 -5
-8 -9 -12 -10 -9 0 3 -2 13 -4 23 -2 13 1 17 12 13 8 -3 21 1 29 9 12 12 12
15 2 15 -10 0 -9 3 2 10 10 6 11 10 3 10 -19 0 -11 24 11 33 14 5 16 10 7 21
-6 7 -8 16 -4 20 10 10 13 37 3 31 -13 -8 -18 18 -8 38 12 24 -31 43 -48 21
-10 -12 -13 -12 -18 3 -4 10 -4 14 0 10 4 -4 13 -2 20 4 9 7 19 7 32 0 11 -6
22 -7 26 -4 3 3 6 1 6 -5 0 -7 5 -12 11 -12 8 0 7 6 -2 17 -12 15 -12 16 6 10
19 -7 19 -6 2 7 -11 9 -17 24 -15 39 1 13 -3 32 -11 41 -15 18 -1 22 17 4 9
-9 12 -9 12 0 0 7 -3 12 -8 12 -4 0 -13 14 -20 30 -8 17 -18 30 -23 30 -5 0
-2 -11 7 -25 15 -23 15 -25 -1 -31 -13 -5 -14 -9 -3 -15 10 -7 10 -9 -2 -9
-12 -1 -12 -3 2 -11 20 -11 12 -43 -9 -35 -8 3 -11 1 -8 -4 3 -6 13 -10 21
-10 8 0 12 -5 9 -10 -4 -6 -12 -7 -18 -3 -7 4 -19 8 -27 8 -8 0 -15 7 -15 15
0 8 6 14 14 12 8 -2 11 3 8 11 -3 8 0 20 6 27 9 10 7 11 -13 5 -19 -5 -21 -4
-10 4 8 6 11 11 6 11 -5 0 -3 7 4 15 10 12 10 15 0 15 -8 0 -11 3 -7 6 13 13
28 -7 16 -22 -12 -15 -2 -19 18 -6 24 15 -14 54 -39 41 -12 -7 -18 -7 -14 -1
3 6 0 13 -6 16 -7 3 -2 3 11 0 16 -4 21 -3 17 5 -4 6 -13 11 -20 11 -8 0 -19
7 -26 15 -7 8 -17 12 -24 8 -6 -3 -7 -2 -3 3 8 9 12 10 39 13 7 1 4 9 -7 21
-10 11 -15 20 -10 20 4 0 2 7 -5 15 -11 13 -15 13 -21 3 -6 -8 -9 -9 -9 -2 0
6 7 17 15 24 14 12 20 7 15 -15 -1 -5 1 -8 3 -5 3 3 5 8 4 11 -1 3 5 14 13 24
8 11 10 16 4 12 -6 -3 -27 9 -47 28 -21 19 -34 35 -30 36 5 0 -1 4 -12 9 -17
8 -16 9 7 7 32 -3 43 -12 43 -35 0 -9 6 -16 13 -14 6 1 12 -2 12 -8 0 -5 5
-10 11 -10 5 0 -2 16 -17 35 -21 28 -24 38 -14 50 13 16 31 16 42 0 5 -6 8 -3
8 6 0 9 -10 24 -22 35 -19 16 -20 16 -9 1 17 -21 9 -33 -8 -13 -29 35 8 47 40
14 21 -23 21 -23 10 -1 -14 28 -14 33 2 29 6 -1 9 -1 5 1 -4 3 -10 4 -14 3 -4
-1 -11 4 -16 12 -7 9 -8 7 -4 -7 5 -14 0 -12 -18 10 -14 17 -25 38 -26 47 0 9
-6 18 -12 21 -10 3 -10 8 1 18 8 8 11 9 7 2 -7 -14 10 -28 18 -14 7 11 56 11
56 -1 0 -5 -5 -6 -12 -2 -6 4 -8 3 -4 -4 4 -6 -3 -9 -18 -8 -18 2 -23 -1 -21
-18 3 -28 3 -28 16 -20 8 4 7 9 -2 15 -11 7 -10 9 3 9 9 0 20 -4 23 -10 3 -5
1 -10 -5 -10 -6 0 -9 -4 -5 -9 3 -6 14 -9 25 -8 17 1 18 3 4 18 -13 15 -13 20
6 54 11 20 16 34 10 30 -5 -3 -10 -2 -10 4 0 6 -7 8 -15 5 -8 -4 -12 -10 -9
-15 3 -5 0 -9 -5 -9 -12 0 -9 35 4 47 4 5 5 2 0 -6 -5 -9 -3 -12 5 -9 19 6 21
49 2 46 -8 -2 -16 4 -17 13 -3 15 0 15 28 1 17 -9 26 -17 19 -20 -19 -6 -14
-18 8 -19 22 -2 26 7 8 25 -8 8 -8 15 2 29 12 15 12 16 0 6 -8 -7 -19 -13 -24
-13 -6 0 3 13 19 28 17 15 26 24 21 20 -16 -13 -26 -9 -20 7 4 8 13 15 21 15
8 0 12 4 9 9 -3 5 1 14 9 21 8 7 15 18 15 24 0 6 -5 4 -10 -4 -10 -15 -17 18
-10 45 2 6 3 19 2 30 0 11 2 14 5 8 3 -7 9 -13 15 -13 6 0 7 8 3 18 -5 13 -4
14 6 5 10 -10 8 -18 -10 -37 -20 -21 -20 -24 -5 -30 9 -4 19 -4 22 -1 3 3 0 5
-6 5 -7 0 -12 5 -12 11 0 5 5 7 12 3 7 -5 8 -3 3 6 -5 9 -2 10 13 6 12 -4 23
-2 28 5 5 9 2 10 -9 6 -11 -4 -15 0 -14 13 1 18 3 19 25 4 15 -10 21 -11 17
-4 -5 8 -1 18 9 26 20 14 58 15 49 0z m-200 -983 c-4 -10 -2 -14 5 -9 7 4 9
-1 7 -15 -3 -13 -10 -26 -17 -31 -9 -5 -10 -8 -1 -8 6 0 15 5 18 10 4 6 11 8
16 4 6 -4 6 -11 -1 -19 -8 -10 -8 -15 1 -21 9 -5 7 -9 -7 -14 -14 -5 -19 -16
-19 -40 0 -27 -4 -34 -22 -35 -12 -1 -20 2 -17 7 3 4 1 8 -5 8 -19 0 -21 -19
-4 -29 10 -6 14 -11 9 -11 -5 0 -1 -8 8 -19 16 -18 16 -20 -7 -47 -21 -23 -26
-26 -39 -14 -12 12 -12 16 4 32 17 17 17 20 3 42 -14 21 -14 25 -1 39 18 17
11 28 -12 20 -14 -5 -15 -3 -5 7 9 10 15 10 26 1 8 -6 22 -9 31 -5 18 7 22 39
6 49 -8 5 -7 12 1 22 11 12 10 14 -3 11 -9 -1 -17 2 -17 7 0 6 7 9 16 7 11 -2
14 1 10 12 -4 11 -1 13 11 9 14 -5 15 -3 5 8 -15 16 -17 39 -3 39 5 0 6 -7 3
-17z m1917 -698 c-8 -9 -8 -15 0 -20 6 -3 8 -10 5 -15 -3 -5 0 -12 6 -16 9 -5
7 -11 -6 -20 -17 -12 -16 -14 11 -24 27 -11 28 -12 11 -25 -14 -10 -15 -14 -5
-19 7 -3 3 -3 -9 0 -16 4 -23 1 -23 -9 0 -10 7 -13 20 -10 11 3 20 1 20 -4 0
-5 -18 -9 -40 -9 -36 0 -39 2 -35 24 5 30 11 37 20 23 3 -6 2 -11 -3 -11 -5 0
-9 -7 -9 -16 0 -15 2 -14 13 1 16 21 1 47 -24 43 -17 -3 -25 29 -9 39 7 4 3 9
-9 14 -17 7 -17 8 -1 8 11 1 15 6 11 13 -4 6 -3 8 3 5 6 -4 18 2 27 12 13 14
14 20 5 23 -7 2 -9 10 -5 17 6 9 11 9 22 0 10 -8 11 -15 4 -24z m1077 -2020
c0 -6 -3 -9 -8 -8 -4 2 -6 -4 -3 -11 3 -8 14 -13 25 -11 25 5 33 -9 14 -25
-18 -15 -1 -44 19 -33 6 3 3 -2 -6 -13 -26 -30 -13 -68 20 -57 15 4 15 3 2 -6
-13 -10 -13 -12 0 -21 9 -5 10 -10 3 -10 -6 0 -10 -8 -8 -17 2 -10 4 -18 5
-18 1 0 3 -15 5 -32 1 -18 -2 -33 -7 -33 -5 0 -7 -4 -3 -9 10 -18 -13 -21 -26
-4 -10 12 -10 14 -1 9 6 -4 12 -2 12 4 0 6 -10 15 -22 20 -14 5 -17 9 -8 9 9
1 16 10 16 21 0 15 -5 19 -21 15 -11 -3 -14 -2 -7 1 6 3 10 10 6 15 -10 17
-13 50 -3 44 18 -12 9 7 -13 27 -13 11 -17 17 -10 13 6 -3 12 -2 12 2 0 5 -6
15 -12 23 -11 12 -10 12 5 0 10 -7 16 -19 13 -27 -3 -7 -2 -13 3 -13 18 0 20
15 5 38 -9 13 -11 21 -5 18 6 -4 11 -2 11 3 0 6 -12 11 -27 12 -25 0 -25 1 -8
8 11 5 24 6 29 3 5 -3 6 -1 3 5 -4 6 -18 9 -32 8 -14 -2 -23 1 -20 5 3 5 13 7
23 4 9 -3 2 3 -17 14 -30 17 -32 20 -17 29 21 12 50 10 53 -2z m-824 -3859 c7
3 1 -4 -13 -16 -14 -12 -20 -19 -13 -16 6 4 15 1 18 -5 4 -5 13 -8 21 -5 7 3
16 0 20 -6 4 -6 3 -8 -4 -4 -6 3 -18 -1 -26 -10 -10 -10 -16 -11 -16 -3 0 8
-4 8 -15 -1 -11 -9 -12 -16 -5 -25 11 -13 -11 -41 -23 -29 -3 4 -16 -10 -28
-30 -11 -20 -23 -36 -26 -36 -2 0 -2 4 1 9 9 15 -22 21 -33 7 -6 -7 -9 -15 -6
-18 3 -3 -1 -11 -9 -17 -16 -14 -56 1 -56 21 0 7 5 6 15 -2 18 -15 20 1 3 19
-11 10 -10 12 2 9 8 -2 14 3 13 10 -2 6 2 12 7 12 6 0 10 -5 10 -11 0 -5 5 -7
10 -4 8 5 7 12 -2 23 -8 10 -9 13 -1 9 11 -7 27 8 28 26 0 4 3 7 8 7 4 0 19
12 33 27 17 19 27 24 31 15 2 -6 9 -10 14 -6 5 3 4 14 -2 26 -10 18 -9 20 5
15 14 -6 16 -3 11 16 -5 19 -5 20 5 4 6 -9 17 -15 23 -11z"/>
<path d="M5739 7323 c0 -5 -2 -16 -4 -25 -2 -10 9 -30 25 -45 27 -25 27 -28
13 -50 -14 -21 -14 -23 1 -29 9 -3 13 -11 9 -18 -13 -20 -13 -40 0 -27 6 6 15
11 21 11 5 0 -1 -8 -13 -19 -18 -16 -19 -20 -6 -25 9 -3 13 -10 10 -16 -3 -5
-1 -10 4 -10 14 0 14 17 0 26 -8 5 -8 9 1 14 10 6 16 23 19 52 1 4 7 5 15 2 9
-4 14 3 14 21 0 18 -3 23 -9 14 -4 -7 -5 -18 -1 -24 3 -5 -1 -4 -10 3 -12 10
-18 10 -23 1 -6 -8 -11 -7 -17 5 -6 10 -7 20 -4 23 3 4 6 1 6 -5 0 -7 4 -12 8
-12 5 0 9 7 9 15 0 8 -4 12 -9 9 -5 -4 -4 3 3 14 7 11 19 18 28 15 11 -3 11
-1 -2 7 -15 10 -16 14 -5 28 10 12 10 14 1 8 -8 -4 -13 -2 -13 4 0 7 -7 10
-15 6 -8 -3 -15 -1 -15 4 0 5 6 10 13 13 6 2 4 3 -5 2 -10 -2 -18 1 -18 6 0
11 -30 12 -31 2z"/>
</g>
</svg>
