<?xml version="1.0" encoding="UTF-8" standalone="no"?>
<svg
   version="1.0"
   width="1024.000000pt"
   height="1024.000000pt"
   viewBox="0 0 1024.000000 1024.000000"
   preserveAspectRatio="xMidYMid meet"
   id="svg16"
   sodipodi:docname="a.svg"
   xmlns:inkscape="http://www.inkscape.org/namespaces/inkscape"
   xmlns:sodipodi="http://sodipodi.sourceforge.net/DTD/sodipodi-0.dtd"
   xmlns="http://www.w3.org/2000/svg"
   xmlns:svg="http://www.w3.org/2000/svg">
  <defs
     id="defs20" />
  <sodipodi:namedview
     id="namedview18"
     pagecolor="#ffffff"
     bordercolor="#666666"
     borderopacity="1.0"
     inkscape:pageshadow="2"
     inkscape:pageopacity="0.0"
     inkscape:pagecheckerboard="0"
     inkscape:document-units="pt" />
  <metadata
     id="metadata2">
Created by potrace 1.16, written by Peter Selinger 2001-2019
</metadata>
  <g
     transform="translate(0.000000,1024.000000) scale(0.100000,-0.100000)"
     fill="#000000"
     stroke="none"
     id="g14">
    <path
       d="m 3330,8175 c -41.4202,-63.5015 -117.1565,-2.5928 -136,-64 -234.8851,50.9954 -73.7397,-49.5557 -211.25,12.375 -22.638,-74.5762 -178.9469,-103.1822 -129.75,-53.375 52.3143,84.6747 -67.6963,69.4299 -76,7 -61.5826,8.8751 -67.9858,-113.0758 -67.5,-66.125 -45.0773,101.8809 -219.6509,-7.4304 -226.625,-17.25 C 2462.8534,7912.9106 2358.0229,7749.0405 2357,7890 c -54.0435,38.5949 -103.8346,-35.5593 -107,-13 -161.1908,10.9923 -164.9472,-31.4853 -178,-49 126.0312,56.2306 10.7762,-23.0809 -119,-63 2.9327,-29.3595 -109.7072,5.7497 -107,-57 -66.3426,-80.4415 -126.7793,-115.0226 -70.875,-67.625 -57.1883,17.1859 -117.3768,-183.7503 -103.125,-108.5 8.9198,101.6371 -134.3901,85.462 -78,32.125 -46.6335,38.5821 -107.893,12.3327 -87,-28 27.128,-14.7335 47.9548,-155.4459 -51,-134 -130.2951,-45.3853 -219.8314,-135.9062 -121,-117 2.0837,1.2586 -122.1134,-148.0018 -94.375,-114 54.2175,43.1815 -158.0065,-86.2321 -96.625,-70 49.7989,45.578 -96.2101,45.175 -69.75,-34.25 49.5591,-70.7465 -15.0624,-181.3388 -37.25,-113.25 -46.09043,-29.4291 -95.31011,22.9037 -79,-55.5 -2.12796,-124.9005 0.79386,-175.1433 -50,-157 -52.75937,-119.4176 -61.11068,-252.8724 -67,-151 -36.35575,-21.2284 -107.61138,-166.7869 -70.25,-100.5 -31.7278,-97.8176 -49.39417,-425.6083 -62.75,-263.5 -23.8303,25.0538 1.0337,-144.2679 -1,-111 C 649.37806,6013.0854 600.49146,5893.3054 650.375,5941.25 765.79562,5876.9503 775.72145,5741.6829 669,5826 c -51.76032,-48.4623 -107.70138,-230.622 -35,-137 -88.84795,-73.0764 -123.22377,-165.064 -33,-115 67.50535,-93.3481 83.13551,-181.8117 52.875,-160 -3.57874,-82.6951 -48.37666,-229.2232 -33.875,-155 36.79469,-25.7009 12.64651,-87.6848 46,-117 -42.16738,-40.9253 -13.93001,-223.2376 -18,-131 94.72389,-61.2351 174.02,-118.2954 58,-98 -63.36293,-43.3854 -106.67182,-40.2444 -31,-120 6.78323,-64.3756 18.06698,-168.6527 9,-131 6.45758,59.77 18.08225,-107.7595 33,-133 -30.96545,-65.1402 -44.86372,-245.4262 -7,-130 9.93993,-111.062 96.53375,-677.4244 24,-226 -16.37569,-35.4614 21.49281,-136.3966 1,-114 -25.51339,-48.5135 -23.50015,-221.4144 10,-123.5 16.43475,-22.012 60.53933,-100.4437 60,-131.5 11.89578,-179.9814 76.62905,-313.2078 52,-251 56.1231,-38.3604 115.27712,-137.3561 49,-104 -16.48823,-99.269 98.0791,-314.3286 63.625,-246.375 20.58243,-36.1076 173.6902,-569.9267 93,-283.125 -3.4213,-40.6199 -0.5763,-101.8826 13.375,-69.5 37.9457,-71.0568 6.8682,-159.7911 27.75,-97.125 32.9085,-11.2818 182.2588,-307.0018 132.5,-211.75 36.5412,144.2674 13.3223,-51.8966 69.5,15.75 39.4306,-165.0948 12.0649,-205.5098 44.25,-141.875 111.0495,-16.351 276.6743,-135.7634 147.25,-91.625 -178.0005,211.0566 366.1514,-310.7019 87.75,-52.375 -102.3507,-17.3099 161.0647,-155.9951 53,-43.5 17.599,-36.044 208.9493,-84.6314 115,-69.5 70.3463,-63.402 215.0477,-171.6438 129,-106 -27.7015,-41.7859 578.2561,-1.8977 134,-41 80.6988,-26.741 -225.4207,104.143 -45.3594,61.0781 C 1907.1507,2060.4618 2413.5148,1960.3487 2165,1972 c -183.7296,-172.1057 -69.6478,-82.6331 1,-23 -45.1556,-45.8079 7.4358,-117.4659 73,-45 -10.595,-11.1335 727.9148,-255.9024 265.5,-44 -39.8913,-33.6794 148.7504,-5.3392 58.75,-30.375 -25.2097,-10.7188 225.4654,43.8789 8.25,-39 125.4839,-17.8553 272.435,111.3467 201.125,51.625 -109.2073,-110.5675 42.7719,-8.1661 87.375,-42.25 96.7992,-66.8716 269.3257,-66.4041 165,-30 52.202,76.7265 63.1421,159.8993 83,71 32.4055,-38.8532 181.274,-52.6326 213,-9.5 119.8307,79.6858 187.2683,67.5541 79,-0.5 37.3699,27.1111 183.8301,66.5601 140,68 23.4219,54.5753 248.5743,100.8647 212,103 31.5132,121.4648 161.1679,319.145 109,183 109.152,21.2663 333.4123,104.6461 142,62 -52.5988,-46.4825 44.9057,-23.2125 39,87 27.187,93.1083 110.9108,191.6876 58,136 -3.1995,79.5374 41.993,193.4963 31,153 -72.6935,47.3103 -110.0066,68.5811 -27,75 5.0333,315.9666 217.3949,-448.8041 61,142 17.8287,45.7331 11.3742,227.2953 26.5,138.25 63.3981,16.8895 179.9885,261.1468 98.5,156.75 -38.318,-61.9453 23.3473,-91.1989 1.875,35.875 46.5356,188.7423 192.5506,137.4946 90.125,88.125 -20.7613,73.1856 -19.2759,29.8046 39,38 -6.8605,22.4837 11.837,150.756 77,124 703.8512,87.185 134.3473,90.9292 35,56 73.8832,148.6041 185.27,58.6291 49,196 8.3313,-45.0538 -61.2121,28.7961 18,37 -38.265,21.9304 -97.7292,51.7676 -29,85 -58.6912,53.6373 -65.4881,111.2023 -43.875,108.875 53.24,68.9866 127.8868,51.1206 81.875,9.125 60.1925,-21.9362 30.7909,-144.2032 59.125,-21.125 -139.6645,-53.2604 -37.9822,-10.0674 -53,-58.125 94.0604,13.1335 100.1587,111.9872 107.875,126.25 116.1984,25.4806 164.7021,68.5918 91.25,8.25 -37.536,74.1052 64.616,210.8945 90.75,141.75 47.4784,-126.4968 41.3056,-24.5685 34,6 190.56,96.2235 63.0961,87.0444 9,76 144.8824,74.2883 130.1279,281.7196 62,169 -78.8742,-3.7161 -171.9863,35.2283 -18.375,29.75 -58.4595,104.9935 -111.7664,46.9904 -118.625,71.25 4.694,82.4872 -228.9927,-39.1387 -159,-4 -77.5721,53.2828 -259.9826,34.0764 -222.25,30.5 76.9931,22.7042 -108.4069,-96.9005 -98.75,-32.5 -77.9877,4.4553 -79.335,-5.3403 -103.25,-10.75 -283.0902,-98.3435 -255.6356,-102.392 -151.75,-69.25 -51.8442,-3.0192 -165.3179,-126.0168 -137.875,-75.5 -57.2554,-15.6024 -111.7913,-193.899 -64.375,-68.5 -31.3975,-87.8266 -33.4906,-161.7836 -100.391,-104.6903 -0.1637,-71.2147 -28.4611,-150.503 -47.359,-121.3097 -33.1747,-125.5613 -26.6427,-259.3036 -51,-119 12.7527,-21.5928 -114.7605,-77.6473 -78,-56 -257.9505,-436.8338 767.2678,2467.3529 -43,-132 -53.7078,68.8159 -117.9074,27.7649 -59,-21 57.651,-141.8145 -39.3321,-224.1337 -33,-111 86.723,45.1801 25.9495,-232.2298 16,-162 -14.4619,52.1724 -20.7299,225.3001 -26,43 23.5544,-104.0767 -64.7644,-148.031 -92.25,-179.875 -25.8527,-94.5492 -105.9332,-237.5166 -58.9844,-132.9375 -93.0943,-52.2999 27.0457,-44.82 -10.1406,7.3125 1.0381,88.9169 -54.4253,141.9532 -92.625,69.5 -67.603,-43.3763 -88.9546,-163.5145 -110,-111 91.1596,108.9645 -68.4922,127.9616 -40,-11 19.4059,-36.0184 -45.3526,-1.8335 -8,-75 -39.8653,-90.8674 27.6579,-227.6807 29,-141 -25.4698,-2.3927 18.7589,-292.5039 -7.5,-199.5 5.2955,-58.9943 -140.4463,-61.094 -118.75,-13.75 -189.8503,120.9819 -65.3284,-19.2379 -170.75,57.25 -117.9957,29.1079 -269.5092,60.2023 -166,-20 -97.991,-101.79 -250.5044,-22.316 -160.625,0.4531 -9.7922,-36.2794 -76.7925,300.4327 -62.375,128.5469 -51.3145,61.5021 31.1843,36.6309 -62,80 37.7342,45.1949 -11.2026,195.4887 -24,113 -69.694,94.6769 -147.8908,197.5892 -96,193 19.2475,110.9802 -138.8742,149.8671 -138.25,160.375 -88.139,-13.8345 -91.1552,238.2165 -48.75,167.625 -29.5301,20.7262 -14.6476,162.9562 -2,129 -25.6431,87.5945 -109.7322,199.1392 -40,161 65.2893,-2.1626 74.6263,94.8131 -37,113 -62.4889,75.4225 -60.8592,177.4145 -42,108 27.742,50.4969 64.35,89.2127 -9,108 -28.4635,59.461 -54.6611,319.7885 -60.25,204.375 27.6457,61.1875 27.7671,213.6285 -18.75,83.75 38.5911,76.772 55.6777,206.0986 -10,117.875 -92.0929,-13.3278 -152.8844,-32.0743 -78,64 -22.6566,89.8043 14.4288,219.0683 20.625,119.5 63.1311,122.148 33.3402,306.0376 -61.625,168.5 87.8124,-22.2357 29.2161,-27.4995 -18,37 -67.8901,13.4079 -173.322,344.3407 -136.125,234.5 13.218,13.5225 -81.6078,70.396 -78.875,44.5 -3.8607,79.8508 -8.9836,253.2046 -36.25,135.625 -57.0473,-8.6043 47.0325,129.7143 -29.75,84.375 61.8914,100.7407 183.9124,209.7449 115.75,134.25 40.0146,34.2188 25.5379,254.5403 41.25,192.75 36.1215,139.5004 -19.4743,28.3838 34,210 -32.0234,46.3552 48.8715,151.6875 25.625,142.25 4.3811,161.9436 -18.3618,274.792 19.625,192.75 66.0035,57.9381 76.6736,179.0184 50.75,129 13.9287,213.1495 67.3471,358.1602 63,216 -23.9986,85.0455 66.2082,258.1139 53,159 -17.5685,-56.8946 213.6685,151.0692 42,80 185.3013,131.2665 113.4253,164.2274 75,96 56.352,65.4914 120.4996,66.8005 99,66.75 56.8838,117.2724 105.4676,166.556 68.75,86.875 50.5849,-2.7063 216.979,-11.6766 139.25,24.375 -176.2734,-73.3436 899.4399,802.9254 124,111 44.8009,-59.9008 -42.6463,-43.0359 38.625,-2.5 -25.8792,136.7927 163.8299,-59.6124 114.375,84.5 50.5035,-34.6198 174.0464,-86.9573 123.375,-2.5 119.1627,82.8605 143.8155,144.7631 108.625,90.5 71.4367,-63.9605 154.2471,46.601 104.25,33.625 5.9231,46.3176 92.7629,-88.459 74.75,-25.625 33.8324,-42.0284 147.6299,-16.4378 71,64 79.9277,-92.2371 252.3017,79.2145 225,53 109.3577,48.9616 220.7704,59.3704 160,16 58.7834,-139.4441 273.9045,-128.6827 153,-40 80.4095,-15.2838 264.2943,-7.693 190,-16 132.6508,-84.4149 -157.643,86.5688 55,13 2.0548,31.1346 31.0609,-56.7155 164.25,-90.75 -50.2474,55.1832 190.2772,-80.1995 36.75,-30.25 48.2522,-25.1241 129.94,-53.7434 101,-12 -4.0583,34.7375 48.1117,44.6354 66,-37 -27.317,47.7756 -79.8627,-92.5232 85,-70 33.0005,-19.9439 61.854,-57.1736 90.875,-11 139.6019,-22.036 188.7781,-61.4779 140.125,-45 83.9833,19.3394 230.299,30.875 117.75,-37.375 -41.86,-153.1939 246.5827,-115.0766 84.125,-56.125 -90.6671,93.4067 66.7879,-84.2606 57.125,-44.5 149.249,-101.8312 61.8082,50.0024 114,-49 84.0938,-86.3284 187.4378,-90.5874 135,-65 -134.763,-118.7071 -81.86,-181.423 9,-70 205.0257,-85.9511 73.3196,10.7341 108,-90 153.9467,-7.6486 194.1711,-121.2179 137,-67 26.6309,21.7659 246.5937,-29.0546 154,-49 -126.7946,-31.4082 136.2555,-30.0949 114.5,-9.5 133.16,-48.9958 192.9056,-140.0296 79.5,16.5 85.4285,-30.9941 309.2338,-123.5073 211,-90 56.0414,-111.3764 25.2453,16.8424 78,-26 3.8779,-8.762 61.9867,-72.7043 83.875,-34.625 113.6086,-29.1332 107.932,157.8101 49.125,90.625 -6.4539,246.7886 44.3318,-199.2518 31,-184 53.1583,-120.3873 11.05,-266.3295 18.125,-218.125 1.1154,50.8568 13.5496,-283.4773 -30.125,-228.875 -85.6117,13.828 -0.4855,-83.2416 -57,-122 -7.284,-43.7602 -54.3826,-146.1975 -34,-89 15.5293,-35.6577 -50.462,-191.1894 -11,-136 79.4079,-39.6494 113.6162,-107.987 30,-178 -32.2442,-84.5667 23.0475,-314.2663 -9,-207 -20.8264,-77.4634 -99.59,-151.344 -50,-238 -83.2916,13.2392 -158.7877,-99.4881 -55.75,-160.25 -14.8113,-82.8979 -39.5521,-174.6607 8.5,-158.125 -21.8593,4.4101 77.0189,-93.3489 18.75,-111.5 -42.76,4.2255 -17.3468,-34.7373 1,-86.875 35.9988,-4.8406 47.4785,-214.6226 18.5,-192.25 -4.4946,-66.6054 -68.8276,-43.1827 -24,-104 14.6422,-80.3427 100.7767,-84.124 41,-97 -15.3651,-109.3869 -52.8937,-37.266 -7.875,-195.875 -6.6778,-88.4328 28.153,-154.5559 11.625,-157.375 30.7035,-69.1975 171.7031,-285.342 73.25,-206.75 -22.3599,-103.0607 32.4093,-155.2308 29,-121 15.8349,-25.1759 7.9891,-171.5048 38.625,-143.875 7.6149,-14.9517 99.6065,-241.9355 63.375,-140.125 38.8358,-10.022 41.296,20.47 80.8438,-62.7031 26.6294,92.6943 121.1857,-121.0549 93.1562,-111.2969 -45.9257,31.978 -131.4158,101.5133 4,-22 4.1748,-30.4263 119.2915,-81.6964 65,-99 -37.0463,97.5897 45.7044,-136.739 30.625,-33.75 95.4627,-18.5014 225.1419,-180.1601 76.375,-58.25 -110.8503,95.8632 126.5199,91.726 102,-43 140.2639,-139.0202 -91.7065,-20.2381 84,-125 -97.1382,105.8988 207.5397,-85.9269 61,-24 121.8374,-15.6428 -88.1133,11.8971 -7,-30 98.2208,-32.5358 -31.9443,-16.8964 109,-70 58.8606,-40.818 140.3711,33.3858 140,-27 43.1876,-72.3284 -67.557,-106.2772 48,-64 31.0657,-71.0453 -0.3412,-114.1213 70,-74 133.3777,-65.5556 125.5837,-159.1974 98.375,-92 107.2578,41.6439 205.1018,-64.1684 105.75,-5.25 34.6798,49.4128 329.806,-23.8171 227.875,-95.75 165.4363,634.3648 -441.3733,-2662.29792 81,-61 -14.4021,-6.1254 192.9593,-91.4748 181.5,-116.75 -71.3417,59.7203 150.7497,-109.0959 138.5,-41.25 -89.8194,-18.5061 -1.8493,-11.3272 41,-13 -1.8698,125.0445 130.1692,65.2298 72.25,-9.25 71.7157,15.3364 219.0314,99.8758 91.75,12.25 -50.5757,-112.4459 80.4269,-84.5255 64,-51 -24.0269,-20.9916 158.2306,106.5413 103,-73 60.989,79.0538 233.4359,46.7654 165,32 -83.3302,54.9302 37.3739,50.1372 9.125,64.125 128.7371,5.2572 150.4126,48.3992 33.875,-45.125 153.7425,-40.9126 -80.4303,123.7298 106,54 54.3166,-4.3673 -14.1511,-69.1647 85.375,-43.625 -31.2975,-130.4333 5.6282,-101.0913 68.625,22.625 12.3922,-67.6644 88.8468,-107.99 58,-31 33.4486,77.0426 151.0756,-56.9629 92.125,49 -35.0749,-38.6407 79.6777,0.1921 -7.75,29.625 122.8911,-73.6385 106.4877,24.3842 66.25,18 15.3435,-23.3851 62.417,-3.8956 84.375,48.375 -19.2575,-40.9605 56.054,64.7903 4,-26 74.4176,-35.7508 -46.8097,135.5609 123.625,9.875 260.4274,146.0562 -84.3514,3.2177 123.375,64.125 -43.8559,38.2857 149.1193,99.389 38,85 6.3531,3.0558 135.1515,-12.2545 93,2 75.9349,56.4586 168.484,200.8592 88.875,155.125 -45.0265,-129.2073 119.0127,130.2791 88.125,154.875 106.75,6.0799 9.8417,-37.7142 37,16 36.6964,63.1238 119.1511,180.5627 83,118 114.6312,134.8278 134.9657,229.5563 131,213 -0.2516,103.4111 -25.5918,305.1222 3,185 9.0376,29.8978 -95.1139,499.8719 -31,221 -21.8749,3.3965 7.1154,74.1156 -8,74 -53.5714,111.5298 -58.3616,210.7565 -57,97 -65.134,17.5946 -90.7489,91.2133 -61,59.875 36.9119,-39.864 -24.7902,-66.6717 -25,20.125 -43.3022,85.9355 -106.7206,208.7177 -143,167 -152.6627,25.9117 -143.732,162.8015 -51.25,94.125 -86.6176,79.8193 -205.8924,106.6542 -107.625,2.25 111.4266,19.2702 73.9885,127.92 -50.75,90.875 -96.9345,-24.6147 -186.8896,-45.194 -92.875,34.125 87.9788,-122.6684 62.7102,48.6686 -6.5,25.625 -33.7308,96.635 -88.8169,7.2208 -86,-46 52.2515,49.5517 -10.5931,-46.0155 -8,70.125 -102.844,-112.0591 -186.5913,-45.7927 -107.375,4.875 -123.3725,79.7616 -79.3066,161.6756 37.375,68 -40.3762,-58.0024 -75.2817,-26.3974 -96.875,3.75 -22.8193,-80.7145 49.0081,-45.4527 -49.125,-6.75 -57.3195,50.1578 -180.7778,113.2798 -109.125,54.625 -16.5279,-86.4594 -27.7171,106.3881 -72.875,-59.625 13.4612,-71.2653 -6.8466,117.5651 -17.25,80 29.9783,-111.7813 -57.2511,31.7237 -119.375,-23.875 -39.0179,54.6577 -193.1778,42.4248 -123.375,-20.125 -35.4192,-87.3168 -112.6694,-104.1845 -100.5,-75 -34.9618,-20.7934 -120.0532,-89.1045 -99.5,-73 62.4185,-68.7 -11.6393,11.8733 -78.375,-65.375 -29.2802,73.4354 76.564,166.4906 29.375,95.375 -58.7391,23.4613 -374.5049,-86.6757 -314.7812,-24.9375 C 7798.8509,3920.3471 7707.5195,3824.8309 7797,3827 c -2.3785,-29.063 -164.2854,-40.0378 -73,32 -150.1699,-12.2323 -31.9222,-131.314 -194,-61 -4.9629,-19.825 -180.2794,74.6204 -144,33 -23.3184,15.3653 -66.6009,103.1168 -77.125,69.875 -137.5691,73.2624 -274.7253,-53.536 -261.375,-55.75 67.5903,2.4 -39.9387,136.8027 -61,25.625 -126.8769,189.8215 -142.6426,104.3661 -96.5,34.25 -31.5335,39.6176 -213.4309,-116.2069 -118.375,-92.25 -62.4655,102.994 121.5463,140.3426 65.375,27.25 62.3727,-16.9635 83.5921,-249.9626 13.9688,-143.1562 -42.1881,55.3038 -156.831,272.0739 -127.9688,170.1562 -19.6119,72.2229 -144.0031,109.7746 -79,141 32.0287,-36.0724 -37.8603,323.7794 -4,130 0.4987,15.1635 17.3585,192.8311 -52.75,147.125 39.4509,-98.3831 -120.4667,-68.4712 -54.75,15.25 104.6509,18.0912 31.2279,161.5916 -46.5,132.625 149.0742,-6.4196 132.3714,193.822 82.25,139.875 -78.5112,168.5429 -93.2284,166.273 -66.25,207.125 -84.7309,-29.3692 -119.5171,153.3006 -65,132 70.3358,152.5434 -32.3399,-49.8232 -12,140 60.0574,232.3841 -37.5491,39.5801 -21,162 65.5818,15.41 -11.0575,114.1564 11,77 35.0177,239.5898 -3.4389,13.8116 -24.375,192.5 -7.5154,12.872 -73.6265,147.2845 -36.625,103.5 69.9917,9.3352 5.2548,117.3113 -1.375,136.125 -17.3376,60.6638 -98.2849,152.9949 -11.625,87.875 71.9216,-18.8757 0.107,115.7646 13,98 38.3322,76.9431 38.581,395.9077 21,253 35.9787,-13.9031 -30.3756,190.3575 7,179 40.3356,-47.3852 50.2731,243.8511 36,177.25 19.0888,-5.2916 37.0807,126.9213 11,103.625 -31.7112,63.8735 -81.2542,209.6997 -47,178.125 17.4217,-18.1611 -103.0934,31.8327 -30.5,80.125 25.6782,61.144 24.9312,279.5683 -15.5,243.875 60.2105,44.7625 40.7395,167.2438 8.125,101 6.0326,-10.3909 57.6832,248.2734 -15.125,144.25 -47.0839,-25.6295 -105.7852,132.2461 -58.375,80.125 55.7417,-78.2448 5.6861,226.6538 -6.625,132.625 -66.0899,-47.5202 -3.544,123.5251 -98,3 65.2097,69.088 -121.365,25.5417 -24,66 91.3294,-32.3826 -86.8302,-5.5096 -88,5 204.5911,-19.873 50.2248,71.5814 -23.75,93.5 -83.0715,21.8474 -97.0297,131.984 -18.25,102.25 -16.7524,3.9152 -132.5693,-21.0881 -35.7344,34.8281 148.8968,125.9759 -169.9785,55.1131 -122.6406,9.5469 23.151,-78.7054 -29.6359,-189.3587 -11.625,-238 35.2109,-134.0463 65.1842,-194.7766 53,-168.125 52.5004,-83.1626 159.923,-213.2144 71.375,-147.5 -63.6582,3.5239 -10.6135,-86.3607 16.625,-78.5 45.5965,-55.9584 78.1698,-240.0649 65,-164 33.6714,39.6969 50.8593,-62.2231 42,-80 75.5089,2.4635 104.1761,-200.9425 45,-180 -32.7141,-78.0986 -313.0353,156.8599 -180.625,18.75 88.4811,-29.9697 -93.697,56.1217 -54.625,59.125 -43.0986,47.8672 -107.1874,102.2998 -111.75,48.125 -48.7412,-11.9876 -124.6458,14.5876 -101,27 -49.8331,7.773 -221.096,68.405 -181.625,54.625 -93.8605,-12.0278 -174.6732,11.1646 -141.3865,13.7888 -68.3078,-23.3387 34.2452,41.3383 -148.9885,88.5862 -114.8261,113.7411 -9.6063,-146.1398 -83,23 -22.5237,112.9991 -173.3942,148.4374 -134,62 -41.8384,51.6487 -93.4426,186.6219 -61,96 -15.2107,-79.3057 -118.4131,0.9428 -122,77 -67.1054,57.7383 -101.8926,120.0643 -96,97 -48.4596,-49.965 -180.6889,38.6002 -108.875,59 -27.9711,77.656 -55.3428,84.1146 -67.125,74 -12.4197,-11.3184 -19.1144,-54.6378 -81,40 -80.948,38.3338 -185.4672,178.1324 -133,126 -58.1835,-0.7814 -176.8789,52.6367 -78,-10 10.3415,101.4185 -119.3354,184.432 -116,116 -33.3877,16.4933 -194.8453,144.6584 -152.25,70.5 79.1936,-36.4651 -327.0934,85.1812 -157.75,78.5 -22.2115,-55.9695 -115.348,34.7064 -94,26 -50.9189,-25.0182 -163.7942,72.9536 -112.625,46.75 -93.7206,-16.2562 -208.6048,104.3674 -134.375,45.25 -0.6323,-149.3673 -80.3521,-86.2072 -66,-23 -64.2433,-51.4436 -64.0434,60.0413 -88,21 z M 4513,4125 c 8.1641,-21.1743 16.8598,-102.3854 -3,-135 -38.1462,-8.4098 12.8081,46.3551 -35,-10 100.7395,202.431 -123.743,79.3557 -86,-38 -36.8093,-87.4671 -15.7974,50.6941 -132,-9 31.7529,39.4879 198.2385,162.1061 149,145 -85.0256,-7.7704 126.0069,75.3289 107,47 z m 3009,-359 c 175.2057,10.9007 39.8276,17.293 95,-51 -123.4614,-80.8512 -176.8959,-217.7837 -77.875,-132.875 26.2523,122.4527 -87.8758,-18.5528 -3.125,137.875 26.2008,74.6647 -114.254,30.2323 -62,14 -56.4506,-82.6527 103.6294,-30.7967 5.25,7.375 -52.1086,71.915 11.5418,5.5207 42.75,24.625 z m 1063,-478 c 42.8265,-34.6842 196.7234,31.2749 196,-10 4.9349,-42.785 147.3277,-264.1845 80.625,-165.875 142.8033,16.5349 291.3591,8.5672 196.375,41.875 98.4876,-71.8491 23.4981,-123.8642 39,-111 58.1306,-80.4996 -65.809,-22.4052 -6,-80 -105.6633,50.9038 -181.8877,-161.3807 -102,-126 91.1208,-74.8874 -32.1482,-98.7665 -70,-11 -78.0663,110.5387 104.727,32.2948 49,56 115.6698,74.918 -144.0796,27.5602 -90,38 -123.6146,-196.3331 -66.0706,-45.4374 -54,1 -97.4101,-148.0869 -210.1567,-102.9835 -126,-65 -164.4968,-20.8449 -186.8676,-63.7062 -39.75,-43.125 -114.2792,2.8927 -181.7437,98.6452 -115.5,44.625 5.6136,-144.4619 -198.9952,-1.4209 -117.75,-2.75 -88.9722,-79.4574 -244.7743,44.2811 -174,-3.75 -82.6902,67.9262 -126.2856,-33.6873 -168,13 105.7038,-12.5041 -34.453,279.7405 -34.125,86.5 -110.3302,70.778 -117.664,-4.2443 -51.375,-37.375 -56.0044,87.9816 -95.2206,69.1149 -119.7826,64.1795 -38.6777,-87.6779 -153.696,26.0762 -135.7174,2.6955 -63.1343,-46.4824 6.5232,59.879 -7,66 84.7794,-7.7428 280.8851,-60.9704 115,-3 40.537,-8.1426 207.1656,38.7101 238,23 -12.7047,20.9326 145.1462,-13.4933 95,-21 -53.7847,68.8792 228.1883,151.8309 85.625,84.25 65.0566,-59.9306 211.1492,112.0359 114.3698,70.1479 -38.6306,59.0941 114.6454,79.7052 86.0052,60.6021 99.7731,8.1765 -115.5142,-54.5132 -27.625,-49.625 -40.4028,-8.7943 137.664,28.0651 80.625,-2.375 96.1529,39.1878 279.6252,-39.5167 198,-66 91.7076,-111.5079 29.1647,-8.3483 83.375,-14.875 -26.7289,83.8028 -82.8781,70.8802 -127.375,63.875 -33.7532,-1.1769 -126.0978,230.9699 -129,129 l 13,-4 z m 605,-584 c 135.4467,54.6606 209.9723,43.621 100,-19 74.5708,12.9671 56.7326,-139.4774 -7,-105 -92.133,75.3207 -20.2006,-75.6424 -68,-16 -38.5966,-65.2086 -97.9291,-241.6469 -117.625,-153.625 -119.8146,147.0115 -254.5149,77.2659 -115.25,15.25 -5.2276,-128.9586 -143.9565,-95.5827 -104.125,-78.625 -74.8031,2.6447 -199.8815,32.7665 -137.25,11 -18.8092,13.7645 -185.0318,37.6084 -137.75,8 -86.2961,62.8798 -142.2959,74.0962 -158.875,67.9844 -161.552,-9.5647 -79.7434,72.5625 -61.125,51.0156 8.6496,63.1237 -11.5971,143.217 -19.75,110.75 87.7397,-90.0167 62.0386,146.2761 64.75,47.25 50.7848,148.798 2.7611,-167.1489 45.125,4 412.9742,-160.1924 -825.4241,313.8631 144.75,-59.25 -21.3698,13.219 155.2702,-43.9305 139.125,35.25 -56.7195,-0.1616 -249.6721,13.4059 -85,-35 131.0474,-137.8938 279.3883,-91.8889 159,-68 38.5052,5.7194 185.615,-13.1232 141.5,24.5 48.8491,42.5376 105.7212,-28.1405 96.75,25.5 -50.6471,164.7993 122.4629,-26.4479 39.75,123 27.3744,-2.4686 -29.5906,128.127 58,20.5 -48.5339,78.5208 9.9214,-0.4239 23,-9.5 z m -1255,-7 c 24.5622,-30.6086 129.8823,2.1956 115,-47 123.4852,68.4911 480.6478,-140.9901 139.25,11.875 44.4539,48.1488 127.9374,-128.4178 115.5,-129.625 47.8816,72.5566 -157.9844,-32.0156 -107.25,-91.75 -45.5212,69.6515 -111.9807,143.0037 -114.5,97.5 -116.9547,-109.0044 12.9875,166.718 -104,-28 55.2931,85.7825 -78.9511,192.54 -114,81 48.7987,85.9782 -13.8629,-61.853 -35.625,-2.625 -242.4425,23.4922 158.7534,124.0219 -86.875,82.625 87.3991,35.3519 196.2824,2.3871 192.5,26 z"
       id="path4" />
    <path
       d="m 8490,2612 c -21.385,-73.4717 69.4673,-27.0605 -28,-90 75.1694,80.7293 208.7397,-42.9306 127,10 89.2992,-77.1564 113.1302,352.3435 119,-45 46.346,-41.3346 53.7633,36.8315 87.25,8 -167.5927,-22.3476 15.291,63.5387 -149.25,91.625 -59.124,-72.5487 -108.4321,47.3707 -156,25.375 z"
       id="path6" />
    <path
       d="m 8505,2563 c -68.9952,-142.1148 144.3664,-76.3009 -5,-87 61.6206,12.7375 178.2888,-10.2205 27,-42 126.0631,-116.2539 204.8728,69.7133 132,16 64.108,-33.0891 -48.1457,-75.9979 41,-50 16.8526,-74.6222 10.7284,9.6053 109,58 -98.8992,-46.8909 -160.5021,96.203 -304,105 z m 35,-42 c 89.7496,-42.4965 118.3221,38.53 140,-41 -29.0551,-95.5312 -197.1709,114.8256 -166,22 -51.8845,-24.7085 17.9347,40.3818 26,19 z"
       id="path8" />
    <path
       d="m 8959,2523 c 128.2511,-51.2143 -166.5254,70.786 -151,-139 16.2527,-16.2093 238.2623,212.1266 206,88 154.2848,40.4888 85.463,55.3253 -55,51 z m -42,-28 c 37.1263,-87.9868 156.8316,-20.2011 86,-18 -67.5034,-72.5293 -200.1618,-126.7177 -118.5,-94.125 -92.0319,-13.2125 -15.7366,157.9827 32.5,112.125 z"
       id="path10" />
    <path
       d="m 8164,2662 c -162.6446,-42.0209 -39.105,-125.7965 -58,-77 -115.625,4.0127 42.1013,-112.1025 84.125,-123.5 137.0277,-41.6086 40.4648,227.2987 -26.125,200.5 z m 43,-25 c 56.6666,-115.146 -157.8434,-107.3089 -55,-133 -52.9817,51.6853 -44.7815,163.4568 55,133 z"
       id="path12" />
  </g>
</svg>
