<?xml version="1.0" encoding="UTF-8" standalone="no"?>
<svg
   version="1.0"
   width="1024.000000pt"
   height="1024.000000pt"
   viewBox="0 0 1024.000000 1024.000000"
   preserveAspectRatio="xMidYMid meet"
   id="svg12"
   sodipodi:docname="A.svg"
   xmlns:inkscape="http://www.inkscape.org/namespaces/inkscape"
   xmlns:sodipodi="http://sodipodi.sourceforge.net/DTD/sodipodi-0.dtd"
   xmlns="http://www.w3.org/2000/svg"
   xmlns:svg="http://www.w3.org/2000/svg">
  <defs
     id="defs16" />
  <sodipodi:namedview
     id="namedview14"
     pagecolor="#ffffff"
     bordercolor="#666666"
     borderopacity="1.0"
     inkscape:pageshadow="2"
     inkscape:pageopacity="0.0"
     inkscape:pagecheckerboard="0"
     inkscape:document-units="pt" />
  <metadata
     id="metadata2">
Created by potrace 1.16, written by Peter Selinger 2001-2019
</metadata>
  <g
     transform="translate(0.000000,1024.000000) scale(0.100000,-0.100000)"
     fill="#000000"
     stroke="none"
     id="g10">
    <path
       d="m 4980,8659 c -189.3491,-117.8568 -143.5963,95.866 -246,-126 -87.746,12.0833 -345.296,-192.8625 -192,-190.625 -19.8827,-72.2488 309.7758,-105.3678 246,-174 46.717,-25.0203 131.193,-72.8818 93,-58.375 1.9249,-127.1158 72.5012,-248.1658 69,-141 -65.7493,10.5943 99.9712,-149.567 -104.375,-132.5 43.1156,189.2315 -280.178,-5.5857 -177.625,50.5 -42.1067,-50.6388 -155.5003,-96.7899 -138,-70 -66.8004,-29.6544 -335.3799,-147.2277 -234,-92 -120.0258,-22.8453 -250.2483,-293.8565 -203,-194 -196.7552,-287.1825 -456.7247,-534.2791 -608,-852 -35.9076,-42.9997 -171.1338,-338.3175 -148,-255 -42.943,-116.133 -382.6663,-750.9867 -204.875,-432.125 24.3646,-25.793 -26.5956,-280.5944 -43.375,-199.375 -87.4968,-183.496 -27.4399,-168.3774 -60.625,-229.875 -55.81,-50.7277 -25.3684,-143.3966 -38.125,-147.625 3.2947,-50.0965 -21.7945,-164.8614 -29,-145 -25.6831,-94.8874 9.6164,-117.5904 -15,-156 6.4831,-236.2066 35.191,311.7099 -11.25,-220.875 23.8057,-53.734 -6.9393,-296.8627 6.25,-210.625 39.849,-8.2254 8.0058,-237.6067 10,-172.5 -38.8843,-179.6969 4.5897,-247.5192 -1.875,-222 -30.5052,-84.9513 88.9983,-209.6812 25.875,-188 26.0113,-54.1914 17.6417,-228.9487 -5,-185 -31.3677,-17.1416 -31.7521,-257.6993 -17.25,-178.75 8.9064,-25.631 40.9681,-324.3388 -2.625,-235.75 27.7946,-124.5485 56.0573,-383.9115 7.75,-362.375 -20.7919,-143.926 6.8197,-349.73 -2.875,-235.125 62.6528,-29.7559 -84.7794,-307.9674 -53,-209 -32.9328,-144.4917 -44.6731,-376.2033 -28,-249.25 -4.6726,-2.2843 -536.4503,-308.4122 -228,-108.75 -44.7805,15.3623 -309.6678,-231.1963 -266,-169 -54.9366,-71.6656 -276.5411,169.9794 -227,78 48.4449,115.7445 152.7693,15.3526 158.875,173 128.2275,91.7809 -113.0605,218.3689 -54.375,238.875 94.4186,220.0064 -8.4873,28.6469 -32.875,-16.25 -98.7897,90.9831 -92.8136,6.0157 -276.3281,89.4531 -253.6013,-9.3489 -526.5155,56.8417 -795.1719,23.2969 C 1048.3895,2781.1119 1017.3461,2392.6435 874,2505 c 15.06002,-47.2576 127.6647,-100.9384 86,-70 44.5135,-76.5183 295.6087,-228.4324 210,-207 75.1618,-30.3581 249.8952,-142.5388 172,-140 -81.4483,50.9193 -12.8733,-35.0282 38,10 -59.6587,-9.0122 60.8955,-111.7224 49.375,-87.75 82.8083,-37.8787 238.7173,-34.2736 199,-60.5 25.8404,-13.6121 220.0186,86.3028 162.75,19.375 14.0654,-76.3478 309.0309,-271.5042 238.875,-199.125 92.2997,-70.5831 289.7834,-172.2689 208,-155 35.3693,-8.6471 247.1165,0.8947 167,-27 136.0245,26.7513 323.5806,65.4878 205.3281,41.3281 82.3722,53.6036 244.7794,133.3463 227.6719,110.6719 61.9001,10.0262 261.1689,74.6206 175,71 29.8155,60.3495 216.7521,148.1772 150,92 84.0561,100.7296 129.6854,50.4825 132,107 128.1189,72.4387 131.1985,164.3312 161,199 33.8846,99.6316 106.6963,333.0192 83,270 8.2905,91.0929 56.0601,336.0652 33,221 -4.7949,62.1516 4.1842,211.1943 -10,211.875 -0.7875,121.3195 -15.1181,395.354 3.5,298.375 2.8355,97.0176 -25.2631,368.9561 -21,255.75 -48.0503,115.7589 -92.9335,322.4155 -50.625,201.25 32.938,129.2922 67.7916,394.7342 6.125,257.75 -0.9181,6.4698 116.205,155.5875 91,211 -111.9472,134.337 -17.1168,372.7814 48,307 -52.0151,-22.9912 -248.3922,-152.1217 -191,-55 -25.5006,-127.2556 78.8802,210.1962 47,152 62.7328,98.7671 71.6444,325.5673 52,276 -21.7129,72.86 -18.3859,487.0438 -9.75,353.375 -13.402,108.8654 -22.3888,424.5353 14.625,326.875 39.7396,19.1027 49.2913,241.8071 48.125,198.75 -1.0913,40.1552 36.8797,237.2891 16.125,167.875 -18.1745,38.8229 76.1983,210.2297 41.875,177.125 -9.0076,74.9397 72.3523,194.8387 39.375,142.875 -6.7881,74.99 76.0341,266.5084 62.625,207.125 -13.0346,75.1592 100.8746,314.2597 68,188.125 43.2652,35.3284 78.0552,227.2618 64.375,140 28.4617,-32.8757 122.0046,146.9819 95.625,120.875 51.3038,86.7504 185.2099,231.7746 117,150 -8.4449,118.5054 49.8516,9.4546 110,141 88.9918,101.0552 218.7388,227.1549 188.375,185 94.5373,58.1863 176.491,131.4586 91.625,105 78.026,39.0832 203.0228,157.5677 152,123 105.402,108.3659 343.7706,232.8186 248,171 113.2993,96.9205 133.5125,22.612 165,91 77.905,-70.43 158.6535,-164.64 176.5938,-111.2188 70.2153,-17.5714 104.747,-159.7142 72.4062,-111.2812 -19.2307,-44.0028 116.0731,-223.2275 87.125,-197.875 18.9789,-139.0627 109.7446,-274.5999 90.875,-182.625 59.031,-115.2041 52.169,-58.6855 58,-232 19.2146,-83.6284 -117.4945,-253.0067 -17,-191 -53.0926,-89.9941 56.949,-414.2332 72,-329 4.9048,-35.4076 139.5766,-246.4568 30,-251 24.8948,-70.3247 315.5041,-362.8774 219.75,-253.75 100.4444,-10.7594 290.9451,-54.0769 163.875,-64.75 -22.0466,-79.0587 137.2754,-274.3291 74.6562,-166.0156 C 6074.993,5614.5172 6229.894,5317.6866 6190,5429 c 35.2743,57.6955 206.2827,-131.8812 139,-192.5 -101.435,113.1697 -31.0429,-91.5655 9,20.5 78.6777,4.6548 -18.0097,-126.5216 -0.25,-89.75 105.9982,73.5385 171.4653,-272.5063 177.25,-209.25 37.6406,-109.6312 131.4067,-280.1333 86,-213 33.7925,13.8691 23.6131,-2.4806 61,-78 67.5902,-59.9269 127.989,-354.9038 120,-267 9.8967,-118.4558 11.7799,-177.3578 38,-141.875 52.3554,-51.3602 66.9961,-143.45 61,-109.125 43.4283,-130.2781 110.1548,-35.6744 30,-125 -69.2513,107.1898 -72.7098,-63.975 2,-47 32.4336,-80.4712 239.366,-768.0865 106,-334 1.398,-95.1171 36.0683,-99.3023 42.8906,-150.5625 -5.0834,-73.1997 87.4882,-281.1599 60.1094,-182.4375 150.7107,-80.5544 -58.9839,12.546 44.125,-117.875 49.8288,-62.6465 75.6775,-213.6186 64.5,-171.125 34.1484,-45.7444 171.9747,-182.7608 99.375,-162 29.6804,-100.4614 62.7873,-282.8417 25,-149 40.5922,-28.0463 29.2437,-291.8376 38,-209.5 71.7966,-6.2448 194.5567,-224.0454 99,-169.5 107.0676,-105.7363 5.5268,-147.8869 165,-197 -28.7276,-5.7904 -8.1565,63.3107 13,98.75 29.7283,-68.5641 147.8039,-348.5769 100,-241.75 -14.105,-139.0009 284.9877,-96.8716 220,-116 68.2361,82.2934 10.0225,296.0646 14,250.5 -49.6412,99.9179 124.8821,123.8777 22,158.5 126.1436,-29.1847 -53.7686,289.6957 8,233 106.3176,12.8919 -402.9766,447.3957 -117,216 -141.5574,203.2914 -118.5704,215.5513 -187,307 -25.317,66.6243 -163.8335,267.4444 -114.75,216.375 -9.8596,89.7585 -153.5174,477.0064 -128.375,356.75 -0.021,85.53 -12.8856,344.4751 -16.875,331.875 -26.5114,189.1709 3.6913,363.1225 -38,555 -47.4071,145.7938 1.2097,114.6946 -60.375,237.875 29.3784,49.4624 9.8233,212.9321 -43.875,209.25 -92.9691,149.5639 -36.355,165.3817 -95,251.25 -30.0322,101.0692 -210.0163,457.2143 -128.75,328.5 -59.6454,136.8765 -111.5231,256.3086 -123,283.125 -63.9736,90.0275 -200.3907,314.6299 -135,241 -132.4615,84.7746 -350.756,430.2475 -258.375,317.875 -67.7208,29.2191 -164.021,296.4696 -103.625,288.125 -5.292,76.328 -64.8965,229.8614 -61,206 -36.4884,22.9253 -138.1978,287.6579 -84,220 -32.1601,135.8965 -134.1769,480.6434 -111.5,326.375 -33.7593,65.8993 -106.3932,255.5278 -87.5,195.625 -68.1832,84.5409 -197.8599,253.3244 -152,179 -28.6386,81.4676 -332.835,263.9476 -223,206 -150.4728,56.4493 -418.1029,511.501 -263,309 -96.3854,133.5028 -525.677,338.8036 -362,331 -32.1771,25.8911 -93.4022,42.9912 -160,29 z m -350,-899 c -71.4202,-70.5677 -196.2756,-138.376 -115,-110 -164.38,-153.0376 501.9724,271.1272 -79.375,-96.5 -129.4165,-25.4018 74.1441,-22.8682 -70.625,-93.5 41.0713,-384.6256 -230.0944,1065.1463 -54,142.375 127.7146,-83.3278 193.7535,191.2597 158,62.625 -48.2014,2.4106 114.393,108.6081 70,71 -10.903,4.6282 76.6483,22.6224 91,24 z M 6097,5763 c 32.9913,-44.4284 130.0039,-110.5876 80.875,-62.25 -27.6917,42.163 -18.8094,-130.853 -20.875,-90.75 147.6399,-10.0302 184.1009,-49.5836 75,-79.5 33.2458,41.7155 178.3632,-152.3605 78,-85.5 12.6275,-13.807 3.8012,-254.7494 -78,-80 -30.6674,161.4552 45.5451,79.5778 54,32 14.1088,64.8498 -145.2736,109.3854 -103,83.5 -50.7673,42.0282 -117.1547,87.1659 -15,116.5 -109.158,-42.5078 -163.2904,226.9584 -90,183 z M 7508,2597 c 62.2101,-55.6576 -30.8758,-196.1739 72,-103 78.2358,75.2765 -114.5244,94.4922 -19,-20 31.0111,-6.4383 -28.6944,-86.46 12,-127 -57.456,92.0237 -135.9131,120.2297 -65,110 3.7512,86.9223 -74.6094,246.4683 -34,146 z"
       id="path4" />
    <path
       d="m 5550,5166 c -56.7451,-3.9396 -169.0467,-101.1472 -135,-85 -59.8557,-104.3796 -479.9622,20.015 -399,-30 -214.3245,15.2287 -436.2708,10.4887 -400.875,12.5 -89.7638,31.875 -249.7639,37.2071 -185.125,21.5 -73.2194,14.4407 -206.1771,11.5726 -250,0 -120.8089,-52.4138 -175.3013,-30.3696 -230,-200 54.6311,-149.9442 68.748,-494.4029 81,-353 59.5158,-84.8817 318.2462,-183.0171 247,-143 121.2888,-55.451 240.7708,-145.4012 204,-115 75.8187,5.8261 236.8565,-36.3713 173,-46 -89.5749,22.1603 665.4599,-285.6943 185,-88 213.3158,-37.2666 154.9751,-129.2452 239.25,-14.125 -102.8874,-34.3202 -232.7039,82.5386 -158.25,46.125 19.8495,42.03 197.3725,-2.7528 181,-43.875 88.3933,-33.0799 186.367,32.2336 105,22.875 52.8354,16.5686 191.0487,-96.7473 113.1562,-45.2031 58.6465,8.5715 100.212,34.926 119.0938,59.0781 9.3595,-55.0592 75.9916,47.8484 73.75,-5.875 34.9171,-6.3611 48.1185,-94.2806 88,-77 -77.6786,-9.0091 -144.2547,163.2482 -219.7656,-23.7344 -1.846,-114.367 137.2926,-38.1387 102.8906,-32.1718 C 5459.217,3913.024 5268.45,3979.382 5373,3982 c 5.4929,-22.5434 -64.275,164.8668 -85.625,66.75 -1.8899,35.2307 -107.4978,-35.6376 -68.375,-13.75 16.1821,211.803 -16.1034,-88.3246 -65,55 24.8343,-40.6986 -178.8047,-16.7036 -14,-74 59.0916,31.7748 -22.8782,-57.7287 146.375,-57.5 48.7397,-46.1008 342.1394,-126.5869 248.625,-106.5 93.3303,15.8734 150.0599,195.1749 149.3438,115.75 -101.9949,-119.9264 -33.9662,45.9144 -42.3438,41.25 -61.2372,69.5293 194.4081,134.1523 86,90 10.5126,-58.5017 72.7031,17.2876 20.375,-107.625 40.9383,90.9793 249.0386,100.5687 151.625,61.625 -49.618,-32.5632 159.4538,-80.9735 77,-3 72.3551,13.8225 93.3627,105.4662 73.125,91 -52.3215,116.6614 136.8514,165.7901 117.875,129 86.6976,132.7106 29.5235,399.5948 16.2969,270.75 -57.3121,76.5714 -297.49,203.2275 -243.2969,129.25 80.2205,148.6267 -68.2783,459.3082 -68,369 42.0626,62.535 -240.4304,148.3908 -323,127 z m -924,-188 c -60.6736,-25.8981 22.5238,-14.6531 65.25,-9 -97.2923,-125.1965 131.6816,-145.5811 91.75,-45 -35.3689,3.5634 -106.5157,14.9869 -99,-4 -15.8906,-104.8771 -154.9812,-225.7861 -117.375,-152.75 -17.6908,34.0952 -68.2661,-5.1378 -49.625,61.75 -74.0788,-51.9828 34.4856,63.28 17,96 -125.25,15.25 13.0416,84.4365 16,49 10.9876,1.8398 44.8775,35.5223 76,4 z"
       id="path6" />
    <path
       d="m 5685,4054 c -156.8263,-103.0116 147.0592,-123.1925 73,-114 35.5795,15.7742 186.115,54.5748 111.5,55 -121.5362,25.1207 -123.0273,-31.9576 -184.5,59 z"
       id="path8" />
  </g>
</svg>
