<?xml version="1.0" standalone="no"?>
<!DOCTYPE svg PUBLIC "-//W3C//DTD SVG 20010904//EN"
 "http://www.w3.org/TR/2001/REC-SVG-20010904/DTD/svg10.dtd">
<svg version="1.0" xmlns="http://www.w3.org/2000/svg"
 width="1024.000000pt" height="1024.000000pt" viewBox="0 0 1024.000000 1024.000000"
 preserveAspectRatio="xMidYMid meet">
<metadata>
Created by potrace 1.16, written by Peter Selinger 2001-2019
</metadata>
<g transform="translate(0.000000,1024.000000) scale(0.100000,-0.100000)"
fill="#000000" stroke="none">
<path d="M5166 9865 c-14 -11 -22 -12 -27 -4 -5 8 -8 8 -13 0 -4 -6 -2 -11 5
-11 17 0 2 -13 -17 -16 -10 -2 -14 3 -10 12 3 8 2 14 -2 14 -4 0 -12 -13 -18
-28 -9 -22 -8 -29 2 -29 6 0 10 7 7 16 -4 14 -4 14 6 1 16 -23 14 -27 -15 -27
-19 0 -24 3 -19 16 12 29 16 67 6 52 -6 -9 -11 -10 -15 -2 -10 15 -22 14 -40
-4 -8 -8 -17 -11 -20 -6 -3 5 -16 7 -29 4 -18 -4 -19 -3 -7 6 17 12 10 14 -14
5 -16 -6 -23 -25 -8 -23 22 4 30 -4 30 -27 0 -16 -3 -21 -8 -14 -6 9 -9 9 -13
-1 -4 -9 -8 -10 -14 -4 -15 19 -43 17 -37 -2 4 -14 4 -15 -4 -4 -7 9 -12 10
-16 2 -4 -6 -11 -11 -16 -11 -15 0 -40 31 -34 42 4 6 1 8 -7 6 -8 -3 -13 -11
-11 -17 1 -7 -2 -10 -8 -6 -5 3 -10 1 -10 -4 0 -6 7 -11 17 -11 21 0 13 -9
-13 -13 -10 -1 -26 -7 -34 -12 -9 -5 -8 0 4 13 11 12 17 24 14 27 -3 3 -13 -3
-22 -14 -15 -16 -22 -17 -47 -8 -29 11 -34 27 -11 35 7 2 11 -2 10 -8 -2 -7 4
-15 12 -17 13 -4 13 -3 0 7 -13 10 -12 11 3 6 12 -4 16 -2 11 6 -5 7 -3 8 6 3
9 -6 11 -4 5 5 -6 9 -4 11 5 5 8 -5 11 -4 7 2 -3 5 0 10 8 10 8 0 11 -5 8 -10
-4 -6 -1 -7 7 -2 9 6 11 4 5 -5 -5 -8 -4 -11 3 -6 14 8 3 38 -12 33 -6 -2 -19
0 -28 5 -14 7 -16 5 -11 -9 6 -16 5 -17 -13 -3 -18 14 -18 14 -5 -2 17 -22 4
-23 -20 -2 -13 12 -19 12 -25 3 -4 -8 -3 -10 4 -5 7 4 12 3 12 -2 0 -19 -14
-21 -33 -5 -11 10 -17 12 -13 6 4 -7 3 -13 -3 -13 -5 0 -15 8 -20 18 -6 9 -11
12 -11 7 0 -6 5 -16 12 -23 9 -9 9 -12 1 -12 -7 0 -15 5 -18 10 -3 6 -12 10
-18 10 -7 0 -4 -5 6 -11 9 -5 17 -18 17 -27 -1 -15 -2 -15 -13 -1 -16 21 -45
20 -52 -2 -3 -10 -12 -16 -20 -13 -7 3 -16 1 -20 -5 -4 -8 -15 -6 -34 3 -25
14 -29 13 -46 -6 -15 -18 -15 -20 -1 -15 10 4 20 -1 27 -15 9 -17 9 -23 0 -26
-6 -2 -8 -9 -4 -15 4 -7 0 -7 -9 1 -14 11 -18 11 -25 -2 -8 -14 -12 -16 -34
-16 -5 0 -7 -6 -3 -12 4 -7 4 -10 -1 -6 -4 4 -17 3 -29 -3 -18 -9 -17 -7 3 9
l24 20 -29 0 c-32 0 -50 -18 -31 -31 8 -6 8 -7 -3 -4 -8 2 -13 12 -12 22 3 16
2 17 -12 6 -13 -11 -14 -17 -4 -28 9 -11 8 -17 -5 -29 -9 -8 -12 -9 -7 -2 13
16 13 31 -1 22 -6 -3 -18 -20 -25 -38 -14 -28 -14 -29 -10 -4 5 19 2 26 -9 24
-20 -3 -32 -16 -14 -16 10 -1 9 -4 -4 -11 -10 -6 -14 -15 -10 -22 4 -7 -2 -5
-12 3 -17 14 -18 13 -12 -2 3 -10 1 -20 -5 -24 -6 -4 -8 -3 -4 4 3 6 2 13 -4
17 -5 3 -10 -3 -10 -13 0 -24 -23 -35 -40 -19 -10 9 -11 7 -5 -13 4 -17 3 -21
-3 -12 -12 17 -22 17 -33 0 -15 -22 -10 -31 9 -17 15 13 16 12 3 -4 -11 -14
-16 -15 -29 -5 -13 11 -15 9 -9 -17 l6 -30 -13 29 c-8 18 -16 24 -20 17 -4 -6
-12 -8 -18 -5 -8 5 -9 1 -5 -10 4 -9 3 -15 -2 -12 -5 3 -12 -1 -15 -10 -5 -12
-2 -15 10 -10 8 3 20 6 25 6 6 0 7 5 3 12 -4 7 -3 8 4 4 20 -12 2 -33 -29 -31
-18 1 -34 -5 -40 -14 -9 -14 -10 -14 -5 1 3 10 1 20 -4 23 -6 4 -10 1 -10 -4
0 -6 -5 -11 -11 -11 -8 0 -8 5 1 15 9 11 16 12 25 5 6 -5 15 -7 18 -3 9 9 9
23 0 22 -21 -3 -33 2 -27 12 4 8 9 7 15 -2 6 -10 9 -10 9 -2 0 18 -16 24 -28
10 -6 -6 -10 -16 -10 -20 0 -5 -3 -11 -6 -15 -3 -3 -6 0 -6 6 0 7 -4 12 -10
12 -5 0 -9 -6 -7 -12 1 -7 -4 -12 -10 -11 -7 2 -13 -2 -13 -8 0 -6 6 -9 13 -6
8 3 14 -1 14 -8 0 -7 -6 -11 -12 -8 -7 2 -15 -3 -19 -12 -3 -9 -10 -13 -16
-10 -6 4 -7 -1 -3 -11 4 -11 3 -15 -4 -11 -6 4 -17 2 -25 -5 -7 -7 -25 -19
-40 -27 -15 -8 -30 -22 -33 -32 -3 -10 -11 -17 -18 -15 -7 1 -9 1 -5 -1 15 -9
-5 -30 -26 -28 -13 2 -28 0 -35 -4 -6 -4 7 -7 29 -7 31 0 41 5 46 19 5 16 8
17 15 6 7 -12 9 -12 9 0 0 7 6 11 13 8 8 -3 20 -1 28 5 11 8 11 9 -3 4 -10 -3
-20 0 -24 6 -4 7 -10 6 -16 -3 -8 -11 -9 -11 -5 1 2 9 14 14 30 13 15 -1 27 2
27 8 0 6 -4 8 -9 4 -5 -3 -13 0 -17 6 -5 9 0 10 14 7 15 -4 20 -2 15 5 -4 7 2
5 13 -3 29 -22 30 -24 12 -17 -9 3 -19 0 -22 -9 -4 -10 1 -13 17 -11 12 2 16
2 8 0 -12 -4 -12 -6 0 -15 10 -7 8 -8 -8 -3 -12 3 -24 1 -28 -5 -4 -6 -13 -9
-20 -6 -8 3 -20 -5 -28 -17 -25 -37 -57 -71 -57 -59 0 6 4 13 10 17 11 7 2 35
-12 35 -5 0 -8 -6 -7 -12 4 -33 -1 -38 -27 -28 -34 13 -37 13 -22 -4 7 -8 15
-12 18 -11 3 2 12 -1 20 -7 12 -8 12 -9 -2 -4 -10 3 -18 2 -18 -3 0 -16 13
-20 34 -10 20 10 20 9 2 -5 -10 -9 -22 -13 -27 -11 -4 3 -10 1 -14 -5 -3 -5
-1 -10 5 -10 7 0 4 -7 -5 -16 -9 -9 -19 -13 -23 -10 -3 4 0 11 8 16 14 9 13
11 -9 14 -5 0 -13 5 -18 10 -4 5 -3 6 3 3 7 -4 17 0 24 8 7 8 11 15 9 16 -31
6 -40 5 -50 -7 -6 -8 -15 -12 -19 -9 -5 3 -11 1 -15 -4 -3 -6 3 -8 15 -6 13 2
24 -4 31 -17 6 -12 7 -18 1 -14 -11 7 -24 -18 -15 -28 11 -11 24 -6 17 7 -4 6
-3 8 1 4 19 -17 14 -37 -6 -27 -18 10 -29 -3 -11 -13 4 -2 1 -2 -5 -1 -13 3
-36 -30 -27 -38 2 -3 -3 -11 -13 -19 -14 -12 -16 -12 -8 0 6 11 4 13 -9 8 -10
-4 -15 -3 -11 3 3 6 1 10 -4 10 -6 0 -11 8 -12 18 0 14 -2 14 -9 -3 -12 -27
-12 -43 0 -25 8 12 10 10 10 -8 0 -14 4 -21 11 -16 8 4 8 0 0 -15 -12 -21 -51
-48 -51 -34 0 4 -4 4 -8 -2 -4 -5 -16 -17 -27 -25 -13 -10 -10 -3 8 18 15 19
24 39 21 44 -4 7 -2 8 4 4 6 -4 8 -14 5 -24 -8 -22 1 -13 16 15 11 21 10 23
-11 19 -13 -3 -24 -5 -25 -7 -2 -1 -7 -2 -12 -3 -5 0 -13 -5 -18 -9 -4 -5 -2
-7 6 -5 7 1 16 -3 18 -10 3 -7 1 -11 -4 -10 -4 2 -10 -1 -11 -7 -7 -21 -25
-35 -36 -28 -6 4 -5 -1 3 -10 8 -11 21 -15 32 -12 20 7 26 -9 9 -20 -8 -5 -7
-11 1 -21 8 -10 8 -14 0 -14 -10 0 -15 13 -12 33 2 10 -17 9 -24 -2 -3 -5 -1
-12 4 -15 5 -3 9 -23 9 -43 0 -32 -2 -34 -9 -15 -12 31 -22 28 -15 -5 6 -27 6
-28 -7 -5 -7 12 -16 19 -21 15 -4 -4 -4 0 0 10 3 9 11 14 18 10 6 -4 4 2 -4
13 -8 10 -16 21 -18 24 -2 3 -3 -2 -2 -10 4 -29 0 -40 -15 -40 -18 0 -19 -12
-4 -27 8 -8 8 -13 0 -17 -6 -4 -11 -2 -11 3 0 6 -5 11 -11 11 -8 0 -8 -4 0
-14 8 -10 9 -15 1 -18 -6 -2 -12 -10 -14 -18 -5 -26 -18 -50 -25 -46 -3 2 -12
-2 -19 -10 -8 -9 -9 -14 -2 -14 6 0 8 -5 5 -10 -4 -6 -11 -8 -16 -5 -5 3 -6 0
-4 -7 8 -20 43 -39 50 -28 3 6 14 10 23 10 12 0 10 -4 -8 -14 -16 -8 -29 -9
-37 -3 -9 6 -13 6 -13 -1 0 -6 5 -14 11 -18 8 -5 6 -10 -5 -16 -14 -8 -15 -13
-5 -24 8 -10 8 -14 0 -14 -6 0 -11 5 -11 10 0 6 -4 10 -9 10 -5 0 -8 -11 -8
-25 0 -14 4 -22 10 -18 6 3 7 1 3 -5 -4 -6 -13 -9 -22 -5 -16 6 -16 -17 1 -30
6 -4 1 -10 -12 -13 -13 -4 -20 -10 -17 -15 3 -5 15 -4 27 2 15 7 12 3 -8 -15
-16 -14 -25 -25 -19 -26 5 0 15 5 20 10 7 7 11 6 11 -4 0 -8 -3 -15 -6 -14
-19 2 -28 -4 -28 -17 0 -8 4 -15 8 -15 4 0 9 -7 13 -15 4 -13 1 -12 -20 2 -19
12 -22 18 -12 24 12 8 4 13 -16 10 -5 -1 -4 4 2 12 7 8 8 18 4 22 -4 5 -2 5 5
1 8 -4 11 0 8 14 -2 11 3 24 13 30 14 8 14 9 2 10 -13 0 -13 1 0 10 8 5 11 10
6 10 -5 0 -2 7 5 17 8 9 13 19 12 22 -5 13 9 40 19 38 6 -1 12 3 15 10 3 7 -3
10 -16 6 -16 -4 -19 -1 -15 19 4 20 3 21 -5 3 -4 -11 -7 -28 -5 -37 1 -10 -1
-18 -7 -18 -5 0 -8 -6 -7 -12 2 -7 -4 -12 -12 -10 -12 3 -12 1 -3 -9 8 -8 9
-18 2 -31 -5 -10 -6 -18 -2 -18 4 0 2 -4 -5 -9 -7 -4 -15 -17 -16 -27 -2 -10
-9 -18 -16 -16 -6 1 -9 -2 -5 -8 3 -5 0 -10 -7 -10 -8 0 -6 -5 5 -11 9 -5 17
-15 17 -21 0 -6 -7 -5 -17 3 -10 8 -14 9 -10 2 4 -6 3 -14 -3 -18 -5 -3 -10
-12 -10 -18 0 -8 3 -8 9 2 5 7 11 9 13 5 7 -11 -5 -46 -15 -45 -13 1 -37 -11
-37 -18 0 -4 16 -15 36 -24 19 -10 32 -22 29 -28 -4 -6 -9 -8 -12 -5 -3 3 -13
1 -23 -4 -12 -6 -17 -5 -17 5 0 7 6 11 14 8 7 -3 13 -1 13 5 0 6 -8 9 -17 8
-10 -2 -21 2 -25 7 -8 13 -40 19 -32 6 3 -5 9 -7 14 -4 4 3 11 -2 14 -11 4
-11 2 -15 -8 -11 -11 4 -13 1 -9 -10 4 -9 2 -14 -3 -10 -6 3 -11 -4 -11 -16
-2 -17 0 -18 7 -7 9 14 90 24 90 10 0 -4 -8 -7 -17 -7 -46 0 -61 -4 -66 -18
-4 -8 -1 -17 5 -21 6 -4 8 -3 4 4 -3 6 -3 13 2 15 4 3 13 -6 19 -19 9 -20 9
-26 -1 -30 -7 -3 -12 -18 -11 -33 1 -26 -1 -28 -34 -27 -39 1 -57 -26 -25 -38
14 -5 15 -4 5 8 -17 20 3 30 22 11 9 -8 17 -11 20 -7 2 4 2 0 -1 -8 -2 -8 -5
-21 -5 -27 0 -14 -1 -14 -34 -18 -18 -2 -20 1 -13 14 7 14 3 17 -18 18 -15 0
-19 -1 -9 -4 30 -8 17 -29 -15 -24 -5 0 -8 -4 -8 -10 0 -6 9 -8 22 -3 20 6 21
5 10 -9 -8 -9 -21 -13 -30 -10 -10 3 -8 -1 6 -11 12 -10 22 -22 22 -28 0 -7
-5 -6 -15 2 -19 16 -40 3 -25 -15 13 -15 10 -46 -5 -57 -6 -5 -5 -8 3 -8 6 0
12 -5 12 -11 0 -5 -5 -7 -12 -3 -7 5 -8 3 -3 -6 6 -9 4 -12 -7 -8 -9 4 -15 0
-15 -8 0 -18 11 -18 27 1 10 12 16 12 26 4 8 -6 21 -9 29 -5 9 3 13 2 10 -4
-3 -6 -12 -10 -19 -10 -9 0 -12 -9 -9 -24 3 -13 1 -26 -4 -29 -4 -3 -7 9 -7
26 2 38 -6 54 -17 36 -4 -7 -4 -20 1 -29 6 -12 4 -16 -12 -17 -14 -1 -17 1 -9
11 8 9 4 12 -14 12 -23 0 -23 -1 -8 -18 14 -16 12 -22 -8 -20 -3 1 -6 -5 -6
-13 0 -8 5 -11 10 -8 6 4 8 0 4 -10 -4 -11 -2 -14 9 -10 11 4 12 9 4 18 -7 8
-7 16 -2 19 6 3 12 -4 15 -15 4 -14 10 -18 19 -13 7 4 4 -2 -6 -14 -17 -20
-15 -27 7 -23 5 1 6 -3 2 -9 -4 -6 -14 -4 -29 5 -20 13 -23 13 -23 0 0 -8 3
-12 7 -10 9 5 5 -33 -6 -59 -5 -14 -4 -17 4 -12 7 4 12 2 12 -3 0 -6 -6 -11
-14 -11 -17 0 -29 27 -15 35 5 4 6 11 3 17 -5 7 -2 8 7 3 12 -8 12 -6 0 8 -17
22 -21 21 -16 -3 2 -11 0 -22 -6 -25 -6 -4 -5 -13 1 -24 6 -12 5 -22 -3 -31
-9 -10 -9 -11 1 -6 6 4 13 2 13 -3 1 -6 2 -16 3 -23 0 -6 7 -13 14 -16 8 -2
10 3 6 15 -5 15 -4 15 5 3 8 -11 7 -18 -4 -26 -8 -6 -12 -14 -8 -18 4 -4 -1
-4 -10 0 -10 4 -16 12 -13 19 2 6 0 18 -6 26 -8 11 -9 11 -5 -2 3 -9 -2 -27
-11 -40 -15 -22 -15 -23 0 -11 16 13 33 -2 37 -30 1 -5 1 -9 2 -10 7 -22 6
-79 -2 -63 -7 17 -8 15 -7 -10 1 -16 8 -37 15 -45 10 -13 9 -16 -7 -17 -11 -1
-22 2 -25 8 -4 5 -2 9 3 9 5 0 9 7 9 15 0 8 -4 12 -9 9 -5 -3 -15 -1 -23 6
-10 8 -15 8 -21 -1 -4 -7 -3 -9 3 -6 6 4 15 1 21 -6 11 -13 12 -17 12 -43 0
-8 4 -13 8 -10 4 2 14 0 22 -5 11 -7 8 -8 -10 -5 -14 2 -34 -2 -43 -9 -17 -12
-15 -15 15 -38 28 -23 30 -26 11 -24 -12 0 -19 5 -17 9 3 4 0 8 -5 8 -6 0 -11
-5 -11 -11 0 -5 -4 -7 -10 -4 -6 3 -7 -1 -4 -9 4 -9 1 -16 -6 -16 -9 0 -9 -4
1 -16 12 -15 11 -16 -11 -10 -23 6 -23 6 -5 -5 39 -25 42 -32 23 -51 -18 -18
-18 -20 4 -51 13 -19 16 -27 6 -19 -11 9 -18 10 -23 2 -3 -6 -11 -8 -16 -5 -9
6 -11 -2 -12 -42 0 -15 -4 -20 -15 -15 -11 4 -13 2 -7 -8 6 -9 4 -11 -5 -5
-10 6 -10 10 3 20 11 8 15 21 11 39 -3 17 -1 25 5 22 6 -4 15 4 21 16 11 22
11 22 -5 3 -9 -11 -19 -19 -23 -18 -4 2 -7 -7 -7 -20 1 -25 -16 -48 -29 -40
-4 3 0 -6 9 -21 15 -22 20 -24 34 -14 14 12 15 11 1 -6 -8 -11 -14 -28 -12
-38 3 -15 -1 -18 -22 -14 -14 3 -29 0 -32 -6 -4 -6 -3 -8 3 -5 6 4 19 0 29 -7
10 -8 24 -11 29 -8 6 4 0 -2 -13 -14 -20 -18 -21 -22 -8 -33 9 -7 13 -17 10
-22 -7 -12 -34 -11 -34 1 0 5 8 6 18 3 15 -6 15 -5 3 10 -18 22 -26 21 -28 -3
-1 -11 8 -27 20 -36 17 -13 18 -15 4 -10 -13 4 -17 2 -14 -6 2 -7 10 -12 16
-10 8 1 8 -3 -1 -17 -7 -11 -16 -17 -22 -14 -5 4 -6 1 -1 -7 4 -7 2 -16 -5
-20 -17 -11 -3 -31 16 -23 9 3 11 8 6 12 -7 4 -5 14 5 26 15 19 15 19 8 -4 -6
-18 -4 -22 6 -15 11 6 12 5 2 -7 -10 -12 -10 -18 -1 -27 9 -9 8 -15 -7 -26
-18 -13 -18 -13 1 -24 10 -6 14 -12 8 -12 -7 0 -11 -8 -10 -17 1 -13 -5 -17
-24 -15 -18 1 -21 -1 -11 -7 7 -5 9 -11 5 -13 -5 -3 -3 -3 4 -2 6 2 12 -1 12
-6 0 -5 7 -6 17 -3 11 4 14 3 9 -6 -5 -7 -17 -9 -29 -5 -21 6 -21 5 -5 -12 14
-14 20 -15 32 -5 10 8 16 9 21 1 4 -6 1 -9 -5 -8 -7 2 -14 -8 -16 -21 -3 -14
-7 -27 -10 -30 -4 -3 -4 3 -2 14 3 18 -37 56 -60 55 -4 0 2 -6 12 -12 18 -10
18 -11 -5 -30 l-24 -19 23 11 c22 11 23 10 17 -12 -7 -21 -7 -22 10 -8 17 14
17 13 8 -5 -6 -11 -8 -26 -5 -34 3 -8 0 -11 -6 -7 -6 3 -13 2 -17 -4 -4 -6
-12 -7 -18 -3 -8 5 -8 2 0 -9 7 -8 9 -19 5 -23 -4 -5 -1 -5 5 -1 10 5 12 -6
10 -48 -1 -30 2 -54 7 -53 5 1 11 -5 13 -13 3 -10 2 -11 -4 -4 -4 6 -17 8 -28
4 -17 -6 -16 -8 10 -14 l30 -8 -25 -13 c-18 -10 -27 -10 -32 -2 -4 7 -6 -1 -4
-16 1 -15 6 -30 11 -35 4 -4 6 -2 2 3 -3 6 3 11 14 11 19 0 19 -1 3 -13 -17
-12 -17 -14 2 -29 10 -8 12 -12 4 -8 -8 4 -24 14 -35 23 -18 15 -19 15 -6 -1
7 -9 10 -22 6 -28 -4 -7 -1 -10 6 -8 8 1 14 -2 14 -7 0 -6 -3 -9 -7 -8 -5 2
-8 -2 -8 -7 0 -6 5 -10 12 -10 6 0 3 -7 -8 -16 -10 -8 -13 -13 -6 -9 6 3 12 0
12 -7 0 -9 3 -9 10 2 6 9 10 10 10 3 0 -6 -5 -15 -10 -18 -16 -10 -1 -25 18
-19 14 5 14 3 -2 -10 -19 -16 -41 -12 -31 5 4 5 1 9 -4 9 -14 0 -14 -17 -1
-25 6 -4 7 -12 3 -18 -14 -22 -11 -33 8 -34 11 -1 19 3 19 8 0 6 -4 8 -9 4 -5
-3 -13 0 -17 6 -5 8 -3 9 6 4 9 -6 11 -4 5 4 -5 10 -2 9 13 0 12 -7 18 -18 14
-24 -9 -14 -9 -49 1 -56 4 -3 -2 -15 -13 -27 -20 -21 -14 -32 6 -12 6 6 15 5
24 -1 13 -9 12 -10 -2 -5 -11 3 -19 -2 -23 -15 -4 -10 -10 -17 -15 -14 -9 6
-7 -10 5 -38 7 -17 9 -17 34 5 21 19 23 19 8 2 -20 -24 -22 -44 -5 -44 6 0 9
-3 6 -6 -4 -3 -17 0 -30 7 l-23 12 20 -23 c11 -13 14 -20 8 -16 -7 4 -13 3
-13 -2 0 -5 10 -12 22 -16 18 -4 20 -8 10 -18 -14 -14 -16 -42 -2 -33 6 3 7
-1 4 -9 -4 -10 1 -18 11 -22 13 -6 14 -9 3 -16 -10 -7 -10 -11 0 -15 6 -2 12
-9 12 -14 0 -6 -4 -8 -9 -5 -8 5 -16 -12 -26 -52 -2 -6 1 -10 6 -6 5 3 6 10 3
16 -5 7 -2 8 6 3 8 -5 11 -4 6 3 -3 6 -2 13 3 16 10 7 9 -20 -2 -30 -9 -10 -9
-41 1 -47 4 -2 2 -2 -5 -1 -6 2 -17 -4 -24 -12 -10 -12 -9 -13 4 -9 8 4 18 1
22 -5 5 -8 11 -7 23 2 13 9 12 7 -1 -9 -11 -12 -16 -27 -11 -34 4 -8 3 -10 -4
-5 -7 4 -12 3 -12 -3 0 -5 6 -11 13 -14 6 -2 -1 -8 -16 -12 -21 -6 -26 -12
-21 -24 11 -24 11 -75 1 -82 -5 -3 -1 -9 8 -12 10 -5 14 -3 9 5 -4 7 -3 8 4 4
7 -4 12 -1 12 9 0 9 -4 13 -10 10 -6 -3 -7 1 -4 9 3 9 10 13 15 10 12 -7 12
-41 0 -48 -14 -9 -7 -34 14 -49 14 -11 15 -16 5 -22 -8 -5 -11 -4 -7 2 4 6 1
13 -7 16 -9 4 -13 -4 -14 -26 -1 -24 2 -28 9 -17 8 11 8 8 3 -10 -6 -23 -6
-24 12 -10 18 14 18 14 5 -3 -11 -13 -17 -15 -28 -6 -11 10 -12 8 -7 -5 4 -10
-1 -26 -12 -39 -18 -21 -18 -21 7 1 23 20 27 21 33 7 3 -9 11 -13 17 -9 8 4 9
3 5 -5 -4 -6 -12 -9 -17 -6 -5 4 -9 1 -9 -4 0 -6 -5 -11 -11 -11 -8 0 -7 6 2
18 13 15 12 16 -4 3 -12 -10 -14 -17 -7 -26 6 -7 13 -22 15 -34 3 -18 1 -20
-15 -11 -16 8 -18 8 -14 -5 4 -8 10 -15 15 -15 5 0 9 -4 9 -10 0 -5 -8 -6 -17
-3 -15 6 -16 5 -3 -9 8 -9 18 -14 21 -12 3 2 6 -3 6 -11 0 -18 -9 -19 -27 -3
-12 11 -12 10 -3 -2 12 -16 13 -20 13 -49 0 -11 7 -27 16 -35 14 -15 14 -17
-1 -22 -13 -5 -14 -8 -3 -15 15 -9 18 -31 5 -40 -5 -3 -2 -9 6 -12 11 -4 14 2
12 23 -2 21 1 27 12 23 8 -3 10 -9 5 -12 -5 -3 -8 -14 -6 -23 1 -10 -5 -23
-14 -28 -14 -9 -13 -10 5 -5 12 3 24 1 28 -5 4 -6 1 -9 -6 -8 -6 2 -14 -3 -17
-11 -3 -9 0 -11 8 -6 8 5 11 4 6 -3 -3 -6 -2 -13 4 -17 5 -3 10 -14 9 -23 0
-11 -4 -9 -11 8 -8 19 -12 21 -16 10 -3 -8 -10 -19 -16 -23 -7 -6 -5 -7 6 -4
21 7 33 -21 17 -39 -13 -16 2 -19 17 -4 7 7 11 6 11 -4 0 -8 -4 -13 -9 -10 -4
3 -8 0 -8 -6 0 -6 -5 -8 -12 -4 -7 5 -8 3 -3 -6 6 -10 3 -12 -11 -7 -18 7 -18
6 -2 -6 10 -8 14 -18 10 -22 -4 -5 -1 -5 6 -1 6 4 12 2 12 -3 0 -6 -5 -11 -12
-11 -6 0 -8 -3 -5 -6 4 -4 12 -2 20 4 9 8 17 8 27 0 12 -8 12 -9 -2 -4 -18 5
-36 -32 -29 -63 1 -8 -2 -10 -11 -5 -10 6 -11 5 -1 -8 7 -8 9 -19 5 -23 -4 -5
-2 -5 5 -2 6 4 10 18 8 32 -1 14 2 25 7 25 5 0 8 -8 7 -17 -3 -34 1 -44 14
-37 6 4 9 4 5 -1 -4 -4 -2 -15 5 -24 11 -14 10 -14 -6 -2 -11 9 -17 9 -17 2 0
-17 33 -51 43 -44 6 3 7 1 3 -6 -4 -6 -13 -8 -19 -4 -19 12 -45 14 -51 4 -3
-5 1 -12 10 -15 8 -3 12 -10 9 -16 -4 -6 -10 -8 -14 -6 -4 3 -7 -5 -8 -17 0
-12 1 -16 4 -9 8 20 19 14 21 -14 1 -17 -2 -23 -10 -18 -7 4 -8 3 -4 -5 6 -9
11 -9 23 1 14 11 15 10 8 -11 -5 -18 -4 -22 6 -16 8 3 1 -5 -14 -19 -15 -14
-24 -26 -20 -26 5 0 14 5 21 12 8 8 12 8 12 1 0 -6 -7 -16 -15 -23 -8 -7 -15
-18 -15 -24 0 -6 4 -5 9 3 5 8 17 16 25 17 9 1 14 -2 10 -7 -3 -5 -10 -6 -16
-3 -6 4 -9 1 -6 -7 3 -8 12 -13 21 -13 9 1 13 -4 10 -12 -4 -11 -10 -11 -26
-2 -19 10 -20 9 -9 -4 7 -9 11 -21 10 -28 -2 -7 4 -15 12 -17 12 -4 12 -3 1 5
-8 6 -9 12 -3 16 14 8 19 -11 17 -67 -1 -26 2 -47 7 -47 4 0 8 6 8 14 0 8 3
17 8 19 4 3 7 -5 7 -18 0 -13 -2 -23 -5 -23 -20 1 -30 -3 -25 -11 3 -5 1 -12
-4 -16 -6 -3 -8 4 -6 15 2 11 0 18 -5 15 -16 -10 -3 -40 16 -37 16 3 17 1 6
-9 -10 -11 -8 -17 10 -32 23 -18 22 -18 -11 -2 -24 12 -31 13 -25 3 5 -7 9
-21 10 -30 3 -42 4 -42 16 -30 8 8 8 15 -2 27 -15 18 -4 20 14 2 11 -11 10
-17 -4 -34 -12 -16 -20 -19 -28 -11 -8 8 -10 5 -8 -8 2 -13 10 -18 24 -16 11
2 23 -2 27 -7 3 -7 0 -8 -10 -5 -11 5 -14 2 -9 -10 3 -9 11 -13 18 -9 6 4 6 1
-2 -9 -10 -13 -9 -16 7 -21 13 -3 18 -11 16 -23 -2 -11 -4 -22 -4 -26 -1 -5
-8 -8 -16 -8 -21 0 -19 -16 5 -33 20 -14 19 -47 -2 -47 -5 0 -6 -6 -1 -12 4
-7 6 -26 4 -43 -2 -24 0 -28 10 -17 7 6 18 12 23 12 6 0 3 -5 -7 -11 -9 -6
-15 -14 -12 -19 3 -5 0 -12 -5 -15 -7 -5 -5 -12 7 -21 17 -13 17 -14 0 -8 -19
7 -21 -14 -2 -29 6 -5 2 -6 -8 -3 -12 4 -16 2 -11 -6 5 -7 2 -9 -9 -5 -12 4
-14 2 -10 -11 6 -15 5 -15 -11 -3 -14 12 -19 12 -29 1 -9 -10 -9 -11 1 -6 20
12 35 -4 20 -22 -12 -15 -11 -16 5 -3 10 8 17 9 17 3 0 -6 -10 -18 -22 -26
-12 -9 -18 -16 -12 -16 5 0 15 5 22 12 9 9 12 9 12 1 0 -7 -5 -15 -10 -18 -6
-4 -8 -11 -5 -16 4 -5 -2 -9 -12 -10 -14 0 -13 -2 5 -10 13 -5 20 -13 17 -19
-4 -6 -12 -7 -18 -3 -7 4 -6 0 2 -10 11 -14 11 -17 0 -17 -11 0 -11 -2 1 -9 8
-6 18 -7 22 -5 16 10 8 -9 -9 -22 -11 -8 -13 -13 -5 -14 6 0 12 -4 12 -9 0 -5
-10 -7 -22 -5 -20 4 -20 3 -4 -4 11 -5 21 -18 23 -31 2 -16 -1 -20 -9 -15 -10
6 -10 4 -2 -7 15 -20 16 -61 1 -52 -7 4 -6 -1 2 -11 10 -12 11 -20 3 -28 -8
-8 -8 -17 -1 -30 10 -19 0 -25 -17 -8 -7 7 -11 6 -11 -4 0 -8 3 -15 6 -14 32
3 36 -16 11 -48 -14 -17 -14 -18 3 -5 15 12 17 11 17 -8 0 -13 -4 -19 -10 -16
-7 4 -9 -3 -6 -19 3 -17 -1 -29 -12 -36 -9 -5 -12 -10 -7 -10 6 0 17 6 23 12
10 10 12 7 10 -12 -2 -19 1 -25 15 -24 10 1 16 -1 13 -4 -3 -3 -1 -11 5 -19
11 -13 1 -18 -24 -14 -5 1 -7 -4 -4 -11 2 -7 11 -12 21 -10 9 2 16 -2 16 -8 0
-6 -4 -8 -10 -5 -5 3 -10 1 -10 -4 0 -18 5 -26 13 -23 4 1 7 -2 7 -8 0 -9 -14
-14 -32 -11 -5 0 -8 -4 -8 -10 0 -5 -4 -8 -9 -4 -5 3 -13 0 -17 -6 -4 -7 -3
-9 3 -6 6 4 15 -5 21 -18 7 -14 9 -25 7 -25 -8 0 -42 36 -48 51 -4 10 -6 9 -6
-4 -1 -10 6 -20 14 -23 8 -4 15 -10 15 -16 0 -5 -4 -6 -10 -3 -5 3 -10 1 -10
-5 0 -7 6 -10 14 -7 9 3 21 -4 30 -19 9 -13 12 -24 7 -24 -5 0 -11 5 -13 12
-6 16 -45 18 -45 2 0 -12 17 -15 27 -4 3 3 16 -6 30 -20 14 -14 21 -22 15 -17
-16 13 -28 8 -16 -7 10 -12 8 -17 -9 -26 -17 -9 -19 -14 -9 -26 8 -10 15 -11
24 -4 9 8 15 8 20 0 4 -6 3 -9 -2 -8 -4 2 -9 -1 -10 -6 0 -5 -8 -13 -16 -18
-9 -5 -14 -17 -12 -29 3 -16 1 -18 -9 -10 -7 6 -12 26 -11 46 1 20 -3 35 -9
35 -6 0 -3 5 7 11 9 6 15 14 12 20 -4 5 -2 9 3 9 5 0 9 7 9 15 0 8 -5 11 -10
8 -6 -3 -7 -1 -4 5 5 6 -1 8 -15 4 -19 -5 -20 -7 -5 -10 22 -4 22 -8 -5 -45
-12 -17 -17 -27 -10 -23 7 4 12 4 13 -1 6 -42 2 -70 -11 -80 -10 -9 -11 -12
-2 -13 6 0 11 -3 11 -8 -3 -20 2 -32 12 -26 8 4 7 9 -2 15 -11 7 -11 9 1 9 13
0 13 1 0 10 -8 5 -10 10 -5 10 6 0 17 -5 25 -10 11 -7 11 -10 2 -10 -7 0 -11
-4 -8 -8 11 -17 -12 -36 -28 -23 -12 10 -17 9 -26 -9 -6 -11 -16 -17 -22 -14
-7 4 -8 2 -4 -5 6 -9 11 -9 22 0 8 7 14 7 14 1 0 -5 -10 -17 -23 -25 l-22 -16
25 5 c24 5 25 5 5 -11 -24 -19 -3 -40 25 -25 9 5 22 5 31 -1 12 -8 12 -9 -1
-7 -9 2 -15 -1 -15 -7 0 -5 4 -9 8 -7 5 1 5 -3 2 -9 -5 -8 -10 -8 -18 0 -17
17 -50 14 -43 -5 4 -12 1 -14 -14 -9 -12 4 -20 2 -20 -5 0 -6 5 -8 10 -5 6 3
10 -1 10 -10 0 -10 -7 -15 -17 -13 -14 2 -18 -4 -17 -29 1 -18 -2 -31 -6 -28
-5 3 -12 0 -16 -6 -4 -7 -3 -9 4 -5 6 3 13 2 17 -4 3 -5 -2 -10 -12 -10 -15 0
-16 -2 -3 -10 8 -5 11 -10 5 -10 -5 0 -1 -7 9 -15 11 -8 15 -15 9 -15 -7 0
-18 7 -27 15 -14 14 -15 12 -11 -15 2 -21 -1 -33 -11 -37 -12 -4 -13 -8 -3
-14 10 -6 10 -11 0 -22 -8 -10 -9 -17 -1 -22 7 -4 7 -13 -1 -27 -6 -11 -7 -18
-2 -15 4 3 14 -1 21 -9 7 -8 9 -14 4 -14 -5 0 -8 -16 -8 -37 1 -22 -4 -38 -13
-41 -9 -3 -11 0 -6 8 6 9 4 11 -5 5 -10 -6 -10 -11 3 -20 9 -7 14 -15 10 -18
-3 -4 -1 -7 5 -7 7 0 12 4 12 8 0 28 26 3 27 -25 0 -19 0 -33 -1 -31 -1 2 -8
12 -16 22 -10 13 -10 17 -2 12 6 -4 12 -2 12 3 0 13 -10 14 -30 1 -10 -6 -11
-10 -2 -10 6 0 12 -9 12 -20 0 -19 8 -23 40 -21 10 0 11 -1 2 -5 -6 -3 -9 -11
-6 -16 4 -7 2 -8 -4 -4 -7 4 -12 1 -12 -9 0 -9 -4 -14 -9 -11 -11 7 -8 -21 4
-31 4 -4 5 -3 1 4 -4 7 1 11 13 10 18 -1 18 -2 2 -26 -9 -15 -11 -22 -3 -18 7
5 12 3 12 -3 0 -7 9 -9 23 -6 12 3 16 3 10 0 -16 -7 -17 -34 -2 -34 5 0 8 4 5
9 -4 5 2 7 12 4 10 -2 24 3 32 11 10 13 16 14 28 4 13 -10 14 -10 8 -1 -4 7
-2 13 3 13 18 0 26 -5 23 -13 -1 -5 3 -5 9 -2 8 5 8 10 0 18 -9 9 -5 16 11 30
13 10 17 16 11 12 -7 -3 -13 -1 -13 4 0 15 17 14 26 -1 4 -6 -1 -17 -11 -25
-23 -16 -12 -17 14 -1 16 9 18 16 10 32 -9 18 -8 19 3 6 16 -18 38 -24 38 -9
0 5 5 7 11 3 8 -4 7 -9 -2 -15 -14 -9 0 -14 24 -10 5 1 6 -2 3 -7 -3 -5 8 -16
24 -25 21 -13 31 -14 36 -6 5 8 2 10 -7 5 -8 -4 -5 0 6 9 11 9 19 21 17 26 -1
6 2 8 8 4 8 -5 7 -11 -1 -21 -6 -8 -9 -17 -5 -21 3 -3 6 -1 6 6 0 7 4 10 9 7
5 -3 7 7 6 23 -2 21 1 28 11 24 8 -3 11 -10 8 -15 -4 -6 1 -6 13 1 11 6 24 7
29 3 5 -4 6 -3 1 2 -11 14 22 45 41 39 15 -4 15 -3 2 6 -13 9 -12 12 5 25 27
21 40 20 24 -1 -13 -16 -12 -17 4 -4 13 11 15 17 6 28 -7 8 -15 10 -18 6 -3
-4 -13 -9 -21 -11 -23 -5 -47 -21 -32 -22 6 0 12 -5 12 -10 0 -6 -3 -9 -7 -9
-27 4 -38 -1 -23 -12 13 -9 12 -10 -2 -5 -12 3 -15 1 -11 -10 6 -17 -8 -19
-25 -2 -14 14 12 49 32 42 7 -3 13 2 13 11 0 18 -2 18 -28 5 -13 -7 -19 -7
-19 0 0 5 6 10 14 10 25 0 39 26 26 52 -10 21 -10 22 4 5 8 -10 17 -18 20 -17
4 1 10 0 14 -3 4 -2 1 -2 -6 0 -8 1 -12 -2 -10 -8 2 -6 7 -10 11 -10 4 1 14 1
22 1 12 0 13 4 6 18 -7 14 -6 19 4 19 7 0 11 -5 9 -12 -3 -6 4 -20 16 -30 11
-10 20 -13 20 -7 0 6 -4 14 -10 17 -5 3 -9 14 -9 23 1 15 2 15 6 -1 3 -10 10
-14 16 -11 7 4 9 4 5 -1 -4 -4 -3 -17 3 -28 9 -15 8 -18 -2 -12 -9 6 -11 3 -6
-8 3 -9 1 -19 -5 -23 -7 -5 -8 -2 -3 7 7 12 5 12 -6 1 -12 -11 -12 -14 1 -22
15 -10 3 -15 -23 -11 -5 1 -6 -3 -2 -9 3 -6 11 -8 16 -5 5 4 12 -1 15 -10 5
-12 9 -13 20 -4 12 10 13 8 5 -14 -10 -25 1 -48 13 -28 4 5 17 8 29 7 14 -2
24 2 24 10 0 7 -5 10 -10 7 -6 -3 -7 -1 -3 6 6 9 11 9 21 1 11 -9 13 -8 10 9
-2 13 1 18 10 15 7 -3 16 0 20 6 6 9 10 9 17 -1 6 -11 8 -9 6 6 -2 15 2 19 17
17 16 -2 17 -1 5 7 -11 7 -21 5 -36 -10 -16 -15 -24 -17 -29 -8 -5 7 -4 10 3
5 5 -3 12 -3 14 1 11 24 66 64 73 52 6 -8 4 -10 -5 -4 -9 5 -11 4 -6 -4 9 -14
26 -5 26 15 0 8 5 14 10 14 6 0 10 -4 10 -10 0 -5 5 -10 11 -10 5 0 8 4 5 9
-11 17 19 19 39 2 16 -13 15 -11 -2 10 -13 14 -23 29 -23 35 0 5 4 5 8 -1 21
-29 59 -55 59 -41 0 8 -3 14 -6 12 -3 -1 -15 6 -25 17 -15 16 -16 19 -4 14 10
-3 19 0 22 9 4 9 -1 14 -14 14 -11 0 -20 3 -21 8 -4 31 -4 70 1 67 10 -6 5 54
-5 62 -4 5 -5 1 0 -7 5 -8 5 -12 0 -8 -12 11 -12 87 0 92 6 3 2 5 -8 5 -10 1
-15 6 -12 11 4 6 10 8 15 5 5 -3 5 7 1 22 -4 16 -6 34 -3 42 2 8 0 11 -6 7 -5
-3 -12 1 -15 9 -4 9 -1 12 7 9 7 -3 13 2 13 11 0 10 -7 14 -21 10 -12 -3 -15
-2 -8 1 6 3 12 12 12 20 0 9 -5 12 -12 8 -7 -4 -8 -3 -4 5 4 6 11 9 16 6 5 -3
11 -1 14 4 4 5 2 13 -4 16 -8 5 -8 11 -1 19 8 9 7 13 -4 13 -8 0 -11 -5 -8
-11 3 -6 2 -8 -2 -3 -15 13 -14 48 1 36 8 -7 14 -6 20 2 4 8 3 9 -4 5 -14 -9
-15 3 -2 24 5 9 5 19 -1 27 -6 7 -8 17 -4 22 4 7 -1 8 -12 4 -16 -6 -16 -5 -4
10 7 9 10 17 6 17 -4 0 -3 6 2 13 6 6 9 20 8 30 -2 9 1 17 7 17 5 0 2 7 -6 16
-12 12 -13 20 -6 35 6 10 8 19 5 19 -4 0 1 7 9 16 12 12 13 20 6 35 -8 14 -7
19 2 19 9 0 9 3 -2 10 -12 8 -12 10 -1 10 8 0 11 3 8 7 -4 3 -1 13 6 21 10 13
9 15 -5 9 -12 -4 -15 -2 -11 8 3 8 8 13 12 11 3 -2 7 9 7 25 1 16 -3 29 -9 29
-6 0 -3 6 8 13 14 11 15 16 5 22 -9 5 -11 4 -6 -3 4 -7 3 -12 -2 -12 -6 0 -9
11 -8 24 1 18 4 22 13 14 9 -7 10 -2 3 24 -12 40 -12 38 1 38 5 0 7 -5 3 -12
-5 -7 -3 -8 5 -3 9 5 10 10 2 18 -14 14 -14 30 0 22 6 -4 5 2 -2 13 -11 17
-10 24 2 38 9 11 9 15 2 10 -7 -4 -13 -2 -13 3 0 6 5 11 11 11 8 0 8 5 -1 15
-10 12 -9 20 5 41 25 38 29 84 7 84 -15 1 -15 2 1 11 15 9 16 13 5 27 -10 12
-10 14 0 8 6 -4 12 -2 12 3 0 6 -4 11 -10 11 -5 0 -10 5 -10 11 0 5 5 7 10 4
6 -3 10 3 10 15 0 12 -4 19 -8 16 -5 -3 -9 1 -9 8 0 8 5 12 12 10 7 -3 10 15
7 61 -2 36 -1 73 4 83 11 25 11 35 3 52 -4 8 -1 19 9 27 10 7 12 12 5 11 -6
-2 -11 2 -11 7 0 6 4 9 9 8 4 -2 6 4 3 12 -4 8 -11 12 -18 8 -7 -4 -7 -1 1 9
7 8 10 18 6 21 -3 4 0 7 8 7 12 0 11 2 -1 11 -10 7 -11 12 -4 15 8 3 10 21 7
47 -3 31 -2 38 6 27 6 -8 11 -10 11 -4 0 6 -3 14 -7 18 -15 14 -12 38 4 32 12
-5 13 -3 5 7 -9 10 -8 17 1 26 9 10 8 11 -6 5 -17 -6 -18 -5 -6 14 11 17 10
23 -2 38 -13 16 -12 17 5 11 16 -6 17 -5 6 8 -10 12 -9 15 6 15 18 1 18 1 1
11 -16 9 -16 12 -2 32 8 12 15 26 15 32 0 5 -5 3 -10 -5 -5 -8 -10 -10 -10 -5
0 6 5 16 11 22 10 10 18 41 22 86 1 9 5 17 9 17 5 0 5 8 0 18 -10 20 0 68 15
65 11 -2 11 26 -1 45 -5 8 -1 19 10 28 11 9 14 13 8 10 -13 -6 -37 17 -28 27
3 3 13 3 22 0 15 -6 15 -4 -1 14 -16 18 -16 21 -2 26 16 7 17 27 1 38 -5 4 -6
15 -2 25 6 16 9 16 17 4 9 -13 10 -13 6 0 -2 8 -11 14 -20 14 -9 -1 -13 4 -10
12 3 7 9 12 13 11 4 -1 8 3 8 8 1 6 -5 9 -13 9 -8 -1 -11 4 -8 13 3 8 0 18 -6
23 -10 5 -9 9 3 13 8 3 18 1 22 -5 4 -7 3 -8 -4 -4 -8 5 -10 2 -6 -8 5 -12 9
-13 19 -3 11 10 10 13 -1 20 -8 4 -14 13 -14 18 0 6 5 7 12 3 7 -5 8 -3 3 6
-4 7 -2 16 5 20 9 6 8 14 -5 34 -15 22 -15 27 -3 31 17 7 20 35 4 35 -6 0 -4
4 4 10 8 5 11 12 8 15 -4 4 -3 18 2 31 6 16 6 24 -1 24 -6 0 -7 5 -4 10 3 6 1
10 -4 10 -6 0 -11 7 -11 16 0 9 -5 12 -12 8 -9 -6 -9 -3 0 9 8 9 11 21 7 26
-3 6 0 9 8 6 9 -4 13 3 11 25 -1 16 2 27 7 24 5 -3 9 0 9 6 0 6 5 8 13 4 9 -6
9 -4 1 7 -14 18 -11 63 6 84 10 12 11 18 1 28 -10 9 -11 8 -6 -8 6 -16 5 -17
-4 -5 -7 11 -6 21 5 39 10 14 11 20 4 16 -8 -5 -11 -3 -8 6 3 8 11 13 17 11 7
-1 10 2 6 8 -3 6 -11 8 -16 5 -5 -4 -9 -1 -9 4 0 6 8 11 18 11 14 0 15 2 2 9
-8 6 -18 7 -24 4 -5 -3 -6 -1 -2 6 4 6 11 9 16 6 10 -6 8 15 -4 34 -6 10 -5
12 2 7 7 -4 12 -1 12 8 0 9 -6 16 -12 16 -9 0 -8 4 2 10 13 9 13 10 0 10 -12
0 -13 2 -1 9 9 6 10 10 2 12 -19 7 -21 57 -3 64 13 5 13 7 0 23 -21 24 -33 46
-22 39 5 -3 10 3 10 14 0 10 -7 19 -16 20 -9 0 -10 2 -3 5 7 3 9 12 6 20 -3 7
-10 11 -16 7 -6 -3 -7 -1 -3 5 4 7 15 12 24 13 12 0 10 3 -7 10 -18 7 -21 12
-12 23 6 7 12 26 13 42 1 16 6 35 12 43 8 11 8 13 -1 8 -6 -4 -15 -2 -19 5 -4
7 -3 9 1 5 5 -4 15 3 23 15 11 19 12 19 7 3 -5 -15 -3 -17 5 -9 9 9 9 17 1 32
-8 16 -7 21 5 26 8 3 12 2 9 -3 -3 -5 0 -13 7 -17 7 -4 10 -4 6 1 -4 4 -2 15
5 23 7 9 7 13 1 9 -6 -3 -16 5 -23 19 -6 14 -7 23 -2 20 5 -4 11 2 13 11 5 21
-12 65 -28 76 -7 4 -11 19 -9 33 1 16 -2 24 -10 21 -6 -3 -12 1 -13 9 -1 8 -3
21 -4 29 -1 8 -5 15 -10 15 -4 0 -8 5 -8 11 0 8 4 9 13 0 8 -6 18 -7 23 -3 4
4 3 0 -4 -9 -15 -20 6 -43 27 -30 9 6 10 11 2 15 -6 4 -11 2 -11 -4 0 -6 -5
-8 -10 -5 -16 10 10 37 27 31 8 -4 11 -1 8 5 -4 6 -13 8 -19 6 -7 -3 -19 -1
-27 5 -11 8 -11 9 2 5 31 -10 45 10 24 34 l-20 22 30 -19 c16 -10 26 -14 22
-8 -4 7 2 23 13 36 14 19 15 25 5 25 -8 0 -12 -4 -9 -8 2 -4 0 -10 -5 -14 -6
-3 -8 3 -6 15 2 11 -2 20 -8 20 -7 1 -3 6 9 13 12 7 19 18 16 26 -3 9 0 11 8
6 9 -6 9 -3 1 14 -7 12 -9 27 -5 33 4 7 3 8 -5 4 -7 -5 -10 -2 -9 6 2 7 -4 12
-12 10 -8 -2 -12 0 -7 4 4 4 18 9 30 11 18 2 19 1 7 -8 -12 -8 -12 -10 -1 -7
8 2 16 15 18 28 2 13 9 28 16 33 8 6 6 7 -5 3 -10 -3 -18 -1 -18 4 0 6 6 10
13 10 8 0 14 7 14 15 0 8 -5 15 -11 15 -5 0 -1 7 10 15 19 15 19 15 -1 9 -19
-6 -19 -5 1 13 21 18 28 53 12 53 -5 0 -8 -7 -6 -16 2 -10 -4 -19 -12 -21 -12
-4 -12 -3 -1 5 10 7 10 11 1 17 -8 5 -5 11 9 21 20 14 19 50 -2 37 -6 -3 -7
-1 -3 6 6 9 11 9 24 -1 14 -12 14 -10 3 10 -7 13 -8 22 -2 22 6 0 7 7 4 17 -5
12 -3 14 8 8 11 -6 12 -5 2 6 -15 16 -17 43 -3 34 7 -4 7 3 0 19 -5 14 -7 26
-4 26 4 0 1 6 -5 14 -7 8 -8 17 -3 20 5 3 12 15 15 26 3 11 1 18 -4 14 -5 -3
-9 -2 -10 3 0 4 -2 18 -3 30 -1 12 1 20 6 17 5 -4 7 -12 4 -20 -3 -8 -1 -14 4
-14 5 0 9 11 8 25 -1 14 -7 25 -13 25 -5 0 -3 5 5 10 8 5 10 10 4 10 -7 0 -14
10 -17 23 -6 22 -6 22 10 2 15 -20 15 -19 8 4 -5 16 -4 21 4 17 16 -10 13 0
-5 18 -14 15 -14 16 0 16 21 0 20 16 0 28 -15 8 -15 10 0 15 10 4 15 3 11 -3
-3 -6 -1 -10 5 -10 7 0 9 7 6 16 -3 9 -6 18 -6 20 0 3 -5 2 -12 -2 -7 -4 -8
-3 -4 5 4 6 3 18 -3 25 -8 9 -7 13 4 13 8 0 12 -4 9 -9 -3 -4 2 -5 11 -1 13 4
14 8 4 14 -7 4 -14 15 -15 24 -2 13 0 14 12 4 12 -10 13 -9 7 7 -3 10 -11 23
-17 27 -7 5 -2 7 12 4 12 -3 20 -1 16 4 -3 5 -13 9 -22 10 -12 0 -10 3 7 10
20 8 22 11 10 26 -12 15 -12 16 6 10 16 -6 15 -3 -5 13 -15 12 -18 18 -7 14
18 -7 20 -1 17 55 -1 22 2 31 9 26 6 -3 11 -3 10 2 -5 29 2 53 14 47 8 -5 8
-2 -2 9 -9 11 -10 17 -2 17 6 0 11 7 11 16 0 9 -5 12 -12 8 -7 -4 -4 3 7 16
11 13 14 20 8 16 -7 -4 -13 -2 -13 3 0 6 5 11 11 11 6 0 8 7 5 16 -3 8 -1 25
5 36 7 13 7 18 1 14 -11 -7 -11 32 1 50 3 6 4 24 1 39 -5 26 -4 27 13 14 16
-12 17 -12 6 2 -14 17 -15 87 -1 95 4 3 5 11 1 17 -12 19 -12 38 -1 31 7 -5 9
4 6 25 -3 17 0 31 6 31 6 0 6 4 -1 11 -13 13 -6 42 8 33 5 -3 6 3 2 12 -5 13
-3 15 8 10 8 -4 5 0 -5 8 -19 16 -19 16 5 16 13 0 19 4 14 8 -15 10 -18 65 -3
56 6 -4 8 -3 4 4 -3 6 -2 13 4 17 6 4 8 11 4 16 -3 6 2 19 12 30 16 18 16 20
0 38 -11 12 -14 21 -7 26 11 6 15 -1 11 -20 -1 -5 5 -4 12 3 11 11 10 16 -5
26 -16 12 -16 14 -2 20 9 3 13 10 10 16 -4 6 -11 7 -17 4 -7 -4 -8 -2 -4 4 4
7 17 17 29 22 20 10 21 10 4 -3 -12 -10 -15 -17 -7 -22 8 -5 8 -11 -1 -21 -10
-12 -9 -13 5 -8 10 4 15 12 12 19 -2 7 1 21 8 31 16 25 15 60 -2 56 -8 -1 -11
2 -7 8 4 7 12 7 25 0 13 -7 21 -7 25 0 3 5 3 10 -1 10 -3 0 4 9 17 21 13 11
19 18 12 15 -6 -4 -14 -2 -18 4 -5 9 7 14 26 12 4 -1 4 8 1 20 -3 14 -1 19 6
14 19 -11 14 5 -5 20 -17 13 -17 14 2 7 17 -6 18 -5 7 9 -10 13 -10 18 -1 24
8 4 9 3 5 -4 -5 -8 -2 -10 8 -6 9 3 15 9 14 12 -2 21 3 32 14 26 7 -5 8 -3 3
6 -6 10 -11 9 -22 -5 -7 -11 -13 -14 -13 -8 0 7 4 14 10 18 5 3 7 12 3 20 -3
9 1 15 11 15 9 0 16 7 16 16 0 8 4 13 9 9 5 -3 13 0 17 6 4 8 3 9 -4 5 -7 -4
-12 -3 -12 3 0 6 -8 8 -17 5 -17 -5 -17 -5 0 6 9 6 14 16 11 22 -4 7 -2 8 5 4
6 -4 8 -13 4 -19 -4 -7 1 -6 11 2 15 13 16 15 2 23 -9 5 -16 14 -16 21 0 8 3
8 8 2 11 -15 32 -17 26 -2 -5 14 20 70 27 62 3 -2 5 4 6 14 1 10 -8 24 -20 30
-22 11 -22 11 2 5 14 -4 21 -2 17 4 -3 5 2 9 12 8 11 -1 16 5 14 17 -2 9 2 17
8 17 5 0 10 -5 10 -12 0 -6 3 -8 7 -4 5 4 -1 14 -11 22 -20 14 -20 14 0 15 10
1 23 1 27 0 4 -1 10 6 13 14 3 8 10 12 15 9 5 -3 9 -1 9 5 0 5 -9 9 -20 8 -11
-1 -18 -7 -16 -13 5 -13 -19 -13 -31 1 -4 4 -3 5 3 2 7 -4 15 0 18 9 3 8 10
12 16 9 5 -3 10 -1 10 4 0 6 -6 11 -14 11 -8 0 -18 4 -21 10 -4 7 2 7 18 1 14
-6 28 -7 33 -3 4 4 4 2 1 -4 -3 -6 0 -11 7 -11 8 0 11 8 8 20 -3 14 -1 18 6
13 7 -4 12 -2 12 4 0 6 5 8 12 4 7 -5 8 -3 3 6 -4 7 -2 16 6 22 11 8 10 9 -3
4 -10 -3 -20 0 -24 6 -4 6 -3 8 4 4 5 -3 12 0 15 6 3 10 7 10 18 1 11 -9 14
-6 16 19 1 17 9 39 18 48 9 10 13 25 9 36 -5 18 -5 18 6 1 6 -9 9 -21 6 -25
-2 -4 0 -14 5 -22 9 -13 10 -13 8 0 -3 29 1 41 11 35 6 -4 7 -11 4 -17 -4 -7
-2 -8 5 -4 8 5 9 12 2 19 -9 12 11 41 22 31 2 -2 10 4 18 13 13 16 12 17 -3 5
-9 -7 -19 -9 -22 -4 -3 5 6 14 19 20 14 7 24 17 23 24 -2 7 6 13 17 14 28 0
65 26 65 44 0 13 2 13 9 0 6 -8 7 -19 4 -25 -3 -5 10 6 29 26 18 19 27 27 19
17 -8 -10 -9 -18 -4 -18 14 0 42 59 38 80 -2 9 3 17 10 17 8 0 12 -4 9 -9 -3
-4 0 -8 6 -8 6 0 10 6 9 13 -3 19 12 46 24 43 7 -1 9 -1 4 1 -4 3 -4 10 -1 15
4 7 2 8 -4 4 -7 -4 -12 -1 -12 8 0 22 17 28 42 15 20 -11 21 -10 11 3 -11 12
-9 14 7 13 11 -1 23 -5 27 -10 5 -4 2 -5 -4 -1 -9 5 -13 0 -13 -14 0 -15 8
-22 30 -26 16 -4 27 -10 24 -15 -3 -5 0 -9 6 -9 6 0 9 -4 6 -9 -7 -11 18 -33
27 -24 4 3 7 1 7 -4 0 -6 -6 -14 -12 -17 -7 -3 -3 -3 9 -1 12 3 25 0 29 -6 5
-8 2 -10 -7 -5 -8 4 -5 0 5 -8 22 -18 41 -21 31 -7 -3 5 0 13 6 17 8 5 9 3 4
-6 -6 -10 -3 -12 11 -7 14 5 12 2 -6 -12 -20 -16 -28 -17 -40 -8 -13 11 -13
10 -1 -6 11 -14 16 -15 29 -5 13 11 15 10 9 -4 -7 -20 1 -23 23 -8 13 9 13 10
0 10 -9 1 -5 6 10 15 21 11 27 12 39 0 17 -17 6 -35 -19 -30 -10 2 -24 -3 -30
-10 -6 -7 -20 -12 -30 -10 -11 2 -22 1 -24 -3 -2 -4 9 -8 25 -8 16 -1 29 3 29
9 0 6 3 7 7 4 3 -4 13 -1 21 6 13 10 15 9 9 -8 -6 -17 -5 -18 5 -5 18 21 71
23 63 2 -4 -12 -3 -12 9 -3 11 10 15 9 18 -6 3 -15 5 -14 10 5 3 12 3 20 -2
17 -4 -3 -14 3 -21 13 -13 15 -12 16 3 4 14 -11 18 -10 27 5 6 10 11 14 11 10
0 -5 7 -1 16 8 15 14 18 14 34 0 9 -8 20 -12 24 -8 4 4 11 1 16 -7 7 -11 10
-12 10 -2 0 7 5 10 12 6 7 -5 8 -3 3 6 -5 8 -3 11 6 8 8 -3 13 -11 11 -18 -3
-11 0 -11 12 0 18 14 22 25 6 15 -5 -3 -10 -2 -10 4 0 5 10 11 23 13 12 2 21
9 20 15 -3 14 26 10 59 -8 13 -7 26 -12 30 -11 7 2 1 -23 -11 -43 -3 -6 1 -4
9 5 13 14 18 15 28 3 17 -18 41 -17 49 3 4 11 10 8 25 -17 10 -17 22 -28 25
-25 4 4 1 12 -5 18 -7 7 -12 17 -12 23 0 5 8 -3 19 -18 15 -24 19 -26 25 -12
4 11 12 15 22 11 10 -4 14 -1 11 6 -4 13 -10 14 -32 6 -5 -1 -12 2 -14 7 -3 6
-11 16 -18 24 -9 8 -10 17 -4 25 5 6 9 15 9 19 0 5 3 11 5 14 3 3 4 -2 3 -11
-1 -8 -5 -18 -8 -22 -7 -6 22 -44 33 -44 3 0 6 7 6 15 0 8 -4 15 -9 15 -4 0
-8 4 -8 8 0 5 7 9 15 9 8 0 12 -4 9 -8 -2 -4 0 -10 6 -14 6 -4 8 -10 5 -15 -3
-5 -1 -11 5 -15 5 -3 10 -1 10 4 0 6 4 11 8 11 5 0 9 -7 9 -15 0 -8 -4 -12 -8
-10 -4 3 -9 -2 -13 -10 -3 -9 -12 -12 -22 -8 -12 4 -15 3 -10 -5 4 -7 2 -13
-3 -13 -6 -1 -17 -2 -23 -3 -7 -1 -19 2 -25 7 -9 6 -13 5 -13 -5 0 -8 6 -15
13 -15 6 0 23 -3 36 -7 18 -6 22 -5 16 4 -5 9 -4 11 3 6 18 -11 14 -23 -8 -29
-13 -3 -18 -1 -13 5 3 7 1 8 -6 4 -6 -4 -9 -12 -5 -17 3 -5 0 -18 -8 -27 -11
-15 -11 -15 3 -5 16 13 29 8 29 -9 0 -5 -4 -7 -8 -4 -5 3 -9 -2 -9 -10 0 -8 6
-13 12 -10 12 4 14 -22 2 -41 -4 -6 -3 -14 3 -18 6 -4 8 -10 5 -15 -3 -4 2
-13 10 -20 8 -7 12 -16 9 -21 -5 -9 10 -13 30 -10 5 1 3 -5 -4 -14 -11 -13
-10 -14 5 -9 13 5 16 4 11 -4 -4 -7 -2 -12 5 -12 9 0 9 -3 0 -14 -10 -12 -8
-13 8 -9 12 3 21 1 21 -6 0 -6 -5 -11 -12 -11 -6 0 -8 -3 -4 -7 4 -5 15 1 23
12 11 14 14 15 10 4 -3 -9 0 -22 6 -29 9 -10 9 -11 0 -6 -7 4 -13 2 -13 -3 0
-6 9 -11 19 -11 15 0 19 -6 16 -25 -3 -31 3 -32 14 -3 l8 22 5 -22 c4 -12 2
-20 -3 -16 -5 3 -8 -6 -7 -19 2 -17 7 -23 17 -19 11 4 13 1 8 -13 -6 -15 -5
-16 8 -5 13 11 14 10 9 -5 -5 -13 -4 -16 4 -11 7 4 13 2 13 -3 2 -12 5 -26 9
-38 1 -5 2 -10 2 -13 0 -3 8 -6 18 -6 10 0 16 5 13 10 -3 5 -1 6 5 2 7 -4 12
-13 12 -21 0 -8 9 -13 19 -12 11 0 17 5 15 9 -9 15 9 8 20 -7 14 -19 53 -27
62 -13 4 7 2 8 -4 4 -8 -5 -10 -2 -6 8 5 12 9 13 19 3 7 -7 10 -16 7 -22 -3
-5 -2 -7 3 -3 4 4 15 2 23 -5 12 -9 16 -9 19 1 3 6 9 12 14 12 6 0 7 -6 3 -12
-4 -7 3 -4 16 7 13 11 20 15 17 9 -4 -7 0 -15 9 -18 10 -4 13 -2 8 6 -5 8 -2
9 12 4 10 -4 26 -9 34 -11 8 -1 14 -8 12 -14 -1 -8 3 -9 15 -3 19 10 36 9 64
-3 10 -3 20 -2 24 4 3 7 0 8 -9 5 -9 -3 -16 -1 -16 6 0 6 -4 8 -10 5 -5 -3
-10 -1 -10 4 0 13 13 14 24 4 4 -5 12 -9 17 -9 5 -1 13 -2 19 -3 5 0 7 -9 4
-18 -5 -15 -4 -16 5 -3 10 13 12 13 21 0 7 -11 10 -11 10 -2 0 7 8 12 18 11 9
-1 19 0 22 1 19 7 47 5 44 -5 -3 -6 6 -11 18 -12 13 0 17 1 11 4 -21 8 -15 22
7 16 11 -3 17 -10 14 -17 -3 -6 4 0 17 14 l22 25 -8 -25 c-4 -14 -4 -22 0 -17
5 4 20 0 34 -9 l26 -15 -23 20 c-22 19 -22 20 -2 18 11 -1 20 -6 20 -11 0 -5
3 -6 6 -3 4 3 16 1 28 -5 19 -10 20 -10 7 5 -20 25 -5 21 19 -5 25 -27 51 -33
43 -10 -3 13 -1 12 12 -3 12 -15 18 -17 24 -7 6 9 15 6 36 -14 21 -19 26 -21
21 -7 -6 14 -4 15 5 6 6 -6 18 -9 27 -6 11 5 13 3 7 -8 -8 -12 -6 -12 8 0 14
11 17 11 17 0 0 -11 2 -11 10 1 6 10 10 11 10 3 0 -7 5 -13 11 -13 5 0 8 4 5
8 -3 5 1 9 10 9 10 0 12 -7 8 -21 -6 -19 -4 -18 16 4 12 14 20 18 17 9 -3 -9
1 -16 9 -16 7 0 10 5 7 11 -4 6 4 2 17 -9 13 -11 20 -14 16 -7 -4 7 -1 12 8
12 8 0 17 -6 19 -12 4 -10 6 -10 6 0 1 6 9 12 19 12 14 0 15 2 2 10 -9 6 -10
10 -3 10 6 0 15 -5 18 -10 5 -8 11 -7 21 1 10 8 14 8 14 0 0 -15 63 -14 79 2
11 10 13 9 8 -5 -7 -20 9 -25 16 -5 4 9 8 8 16 -3 9 -13 11 -13 11 1 0 9 11
21 25 27 18 8 24 8 22 0 -1 -6 4 -13 12 -16 9 -3 12 0 9 10 -4 8 0 15 8 15 7
0 10 -5 7 -11 -4 -6 1 -5 10 3 9 7 26 11 37 8 11 -3 18 -2 15 3 -10 17 22 31
35 15 10 -12 16 -13 27 -3 11 9 16 9 24 -3 5 -9 9 -10 9 -2 0 19 -20 26 -35
13 -9 -7 -15 -8 -15 -2 0 16 30 23 52 11 15 -8 24 -7 39 7 10 9 22 14 26 11 3
-4 2 -7 -4 -7 -6 0 -13 -6 -16 -13 -3 -8 1 -14 9 -14 7 0 11 4 8 8 -2 4 10 7
28 6 20 -1 33 3 33 10 0 6 3 15 8 19 4 4 0 19 -9 32 -15 23 -15 25 -1 19 9 -3
19 -1 23 5 4 6 3 8 -4 4 -17 -11 -54 35 -41 51 6 7 17 13 23 13 6 0 3 -5 -7
-11 -9 -6 -15 -14 -12 -20 4 -5 13 -3 21 6 9 8 21 12 27 8 8 -5 6 -9 -5 -11
-10 -2 -18 -8 -18 -13 0 -13 2 -12 40 16 19 14 29 25 24 25 -6 0 -11 7 -11 15
0 8 4 15 8 15 5 0 5 7 2 17 -4 9 -2 14 4 10 12 -7 10 49 -2 60 -4 5 -5 2 -1
-4 5 -9 0 -13 -13 -13 -12 0 -21 5 -21 11 0 5 5 7 12 3 7 -4 8 -3 4 4 -4 7 -2
12 3 12 6 0 9 10 7 23 -4 22 -8 24 -37 12 -12 -5 -16 1 -17 24 0 24 3 29 16
24 14 -4 14 -3 3 5 -21 15 -56 -4 -42 -22 8 -9 7 -13 -3 -13 -8 0 -12 5 -11
11 11 40 18 55 26 50 5 -3 9 0 9 6 0 7 -8 9 -20 5 -14 -5 -20 -2 -20 10 0 9 4
13 10 10 6 -4 7 1 3 11 -5 15 -7 15 -15 0 -5 -9 -14 -16 -21 -16 -8 0 -8 3 -2
8 11 8 17 44 6 38 -16 -10 -42 23 -37 47 6 33 -17 55 -39 37 -8 -7 -12 -17 -8
-24 3 -6 0 -5 -8 3 -11 10 -11 15 -1 18 30 11 -1 50 -37 44 -7 -1 -10 3 -6 9
4 6 1 9 -7 8 -7 -2 -12 3 -10 10 2 10 -2 10 -17 2 -16 -8 -22 -6 -30 7 -6 10
-11 13 -11 8 0 -18 21 -34 39 -28 13 4 14 3 1 -5 -10 -8 -18 -8 -27 -1 -14 12
-36 2 -27 -12 3 -5 0 -16 -6 -24 -14 -17 0 -20 18 -5 6 6 10 7 7 3 -3 -3 2
-17 11 -31 9 -13 11 -21 4 -17 -7 4 -11 1 -9 -6 3 -25 -1 -39 -11 -39 -6 0 -9
5 -8 11 2 6 -5 13 -16 14 -10 2 -24 9 -30 16 -8 9 -8 10 3 4 10 -6 12 -4 6 5
-5 8 -4 11 2 7 5 -3 10 0 10 8 0 8 -5 15 -11 15 -6 0 -3 5 7 11 9 5 17 15 17
21 0 7 -4 7 -13 0 -9 -8 -17 -8 -27 0 -12 8 -12 9 2 4 11 -3 17 -1 15 7 -1 7
4 11 11 9 8 -1 11 2 6 9 -4 7 -3 9 3 6 5 -3 10 0 10 8 0 8 -4 15 -9 15 -4 0
-8 -5 -8 -12 0 -6 -10 -3 -22 8 -13 10 -20 15 -16 10 4 -5 0 -15 -10 -23 -16
-14 -16 -14 0 -9 22 7 33 -10 12 -18 -9 -4 -23 -1 -30 5 -10 8 -14 8 -14 0 0
-6 5 -11 11 -11 5 0 7 -4 4 -10 -4 -6 1 -7 12 -4 14 4 12 0 -6 -15 -13 -12
-21 -25 -17 -28 4 -4 11 -1 15 6 7 11 10 11 14 0 4 -9 6 -6 4 5 -1 10 3 21 8
23 15 5 16 -35 2 -44 -20 -12 -40 -13 -54 -1 -10 8 -12 7 -8 -5 4 -8 1 -18 -4
-22 -6 -3 -8 -11 -5 -17 4 -6 -1 -8 -15 -3 -16 5 -20 3 -15 -9 3 -9 11 -13 17
-9 6 4 7 1 2 -7 -6 -10 -13 -7 -27 11 -17 21 -18 21 -9 2 8 -16 7 -22 -5 -27
-23 -9 -27 -7 -21 8 3 7 0 19 -6 25 -9 10 -9 12 3 9 20 -4 21 32 1 56 -13 15
-9 14 17 -4 35 -26 40 -32 17 -24 -11 4 -13 2 -9 -9 7 -20 39 -10 41 13 1 11
-3 17 -11 14 -7 -3 -23 4 -35 15 -13 11 -32 23 -42 26 -11 4 -16 11 -12 18 4
8 1 8 -9 -1 -13 -10 -17 -10 -21 3 -4 9 -13 12 -24 9 -15 -5 -15 -4 -3 4 9 7
19 7 25 2 8 -6 12 -5 12 4 0 9 -8 13 -24 10 -14 -3 -23 0 -23 8 0 10 -3 9 -9
-1 -5 -8 -18 -12 -30 -8 -13 3 -24 -1 -30 -11 -7 -13 -10 -12 -15 6 -4 12 -12
22 -17 22 -13 0 -11 -13 4 -30 10 -12 9 -12 -5 -2 -13 10 -17 10 -22 0 -3 -7
-3 -3 -1 8 4 13 0 24 -9 27 -10 4 -13 -1 -10 -16 3 -15 1 -13 -7 6 -6 15 -14
25 -18 23 -4 -3 -8 1 -8 9 0 8 5 11 11 7 6 -3 20 -7 31 -9 18 -2 18 -1 -2 9
-13 6 -23 15 -23 21 0 5 -8 6 -17 3 -10 -4 -14 -4 -10 0 4 4 2 12 -3 19 -7 8
-5 12 5 12 8 0 11 -5 8 -11 -4 -6 -2 -7 3 -3 14 13 12 64 -2 64 -7 0 -10 -5
-7 -10 3 -6 1 -7 -5 -3 -6 4 -9 13 -6 21 4 8 11 12 18 8 6 -4 5 1 -3 11 -8 9
-21 14 -29 11 -10 -4 -13 0 -9 15 3 11 0 23 -5 27 -7 3 -8 1 -4 -5 4 -7 2 -12
-4 -12 -6 0 -8 -4 -5 -10 3 -6 -1 -7 -10 -3 -12 4 -13 8 -5 13 9 6 9 13 1 26
-9 17 -10 17 -11 2 0 -12 -5 -15 -17 -11 -12 5 -14 3 -8 -7 6 -9 4 -11 -5 -5
-10 6 -9 11 5 22 17 12 18 13 1 13 -11 0 -15 4 -10 13 4 6 -2 4 -13 -6 -16
-14 -23 -15 -29 -6 -4 7 -3 10 4 5 6 -3 13 -2 17 4 3 5 1 10 -5 10 -6 0 -8 5
-4 13 5 7 0 6 -11 -3 -11 -9 -16 -10 -11 -2 4 7 2 12 -4 12 -6 0 -8 4 -5 10 3
6 -1 7 -9 4 -9 -3 -16 -2 -16 4 0 6 5 12 12 14 8 3 6 7 -5 11 -9 3 -19 1 -23
-5 -5 -7 -2 -8 6 -3 9 5 11 4 6 -4 -13 -21 -27 -1 -15 22 12 22 12 22 -10 3
-22 -20 -22 -20 -15 0 4 10 12 25 17 32 6 7 6 12 1 11 -20 -3 -35 2 -29 10 3
6 -3 8 -14 6 -31 -6 -58 19 -42 39 14 17 14 18 -21 20 -29 2 -51 -15 -34 -27
7 -6 6 -7 -4 -4 -8 2 -15 8 -15 13 0 19 -16 33 -32 27 -11 -4 -14 -3 -9 5 4 7
2 12 -3 12 -6 0 -11 -5 -11 -11 0 -5 -5 -7 -11 -3 -8 5 -8 9 1 14 9 5 8 9 -3
13 -8 3 -21 0 -28 -6 -7 -7 -6 -3 4 9 9 11 17 27 17 35 0 12 -2 11 -10 -1 -8
-13 -10 -13 -10 2 0 9 3 18 8 21 4 2 2 2 -5 1 -7 -2 -15 1 -18 6 -11 18 -23
10 -18 -10 3 -11 10 -17 16 -13 6 3 7 1 3 -6 -9 -14 -26 -5 -26 15 0 10 -5 12
-12 8 -9 -5 -9 -2 1 9 8 10 9 17 3 17 -6 0 -14 -5 -17 -10 -4 -6 -11 -8 -16
-4 -6 4 -6 10 0 18 6 7 7 17 3 21 -4 5 -1 5 6 1 7 -4 9 -13 6 -19 -4 -7 -3 -8
1 -4 12 10 16 39 5 32 -5 -3 -14 4 -20 16 -7 11 -14 18 -17 15 -10 -10 -44 15
-37 27 4 7 4 9 -1 5 -4 -4 -14 -3 -22 3 -19 17 -16 5 7 -21 22 -26 26 -40 9
-40 -5 0 -8 4 -5 8 6 11 -40 53 -48 45 -3 -4 -6 -1 -6 5 0 7 -5 12 -11 12 -5
0 -8 -4 -5 -9 3 -5 -2 -15 -12 -22 -14 -11 -15 -11 -5 1 10 11 9 16 -5 27 -15
11 -15 12 -1 7 10 -3 20 0 24 6 5 8 11 7 23 -2 15 -12 16 -11 3 5 -10 12 -17
15 -25 7 -15 -15 -26 -12 -27 8 0 13 -2 12 -9 -5 -5 -13 -17 -23 -27 -22 -15
0 -15 2 -3 7 8 4 16 12 17 18 2 12 -46 13 -64 1 -9 -5 -11 -3 -7 7 6 15 -11
17 -33 3 -7 -5 -17 1 -24 15 -6 13 -8 20 -4 16 10 -10 34 22 35 46 0 15 -3 16
-14 7 -10 -8 -16 -9 -21 -1 -4 6 -1 9 6 8 6 -2 14 3 17 11 3 10 0 12 -12 8
-10 -4 -15 -3 -11 3 3 6 -1 13 -9 16 -9 3 -13 11 -9 18 4 6 -1 5 -11 -3 -15
-12 -17 -12 -14 0 2 8 -4 13 -15 13 -15 -2 -16 1 -5 14 11 13 11 14 -1 7 -11
-6 -13 -4 -8 9 4 10 3 15 -3 11 -6 -3 -10 -14 -11 -23 0 -12 -3 -11 -9 6 -11
25 -10 25 -44 12 -23 -8 -38 2 -18 13 8 4 -9 0 -35 -9 -15 -5 -16 -4 -3 5 13
9 12 11 -3 11 -11 0 -15 4 -11 12 4 7 3 8 -4 4 -8 -4 -12 0 -13 11 0 14 -2 14
-9 -4 -5 -13 -15 -23 -22 -23 -11 0 -11 2 0 8 9 6 5 12 -13 20 -33 15 -38 15
-29 0 6 -10 5 -10 -8 -1 -8 7 -19 9 -23 5 -5 -4 -5 -1 -1 6 4 7 12 10 17 7 5
-4 9 -1 9 4 0 15 -23 14 -39 -1 -10 -11 -11 -10 -5 5 5 13 2 16 -10 11 -9 -3
-13 -11 -9 -17 3 -6 1 -7 -6 -3 -9 6 -9 11 1 24 11 13 10 15 -4 9 -11 -4 -21
0 -27 11 -8 14 -10 14 -11 2 0 -13 -1 -13 -11 0 -9 13 -10 13 -6 0 2 -8 9 -14
15 -13 5 1 13 -4 16 -13 5 -12 2 -12 -15 -4 -11 6 -23 18 -26 26 -7 18 -29 18
-36 0 -3 -8 -15 -14 -26 -13 -11 0 -18 4 -16 7 6 10 -33 5 -42 -5 -5 -4 -3 -5
4 -1 6 3 14 3 17 -2 2 -4 -6 -8 -20 -8 -16 0 -21 3 -14 10 15 15 12 26 -6 26
-9 0 -12 -5 -8 -12 5 -9 2 -9 -9 1 -18 14 -23 26 -8 16 5 -3 12 -1 15 4 7 11
-13 9 -31 -2 -7 -5 -13 -4 -13 0 0 5 6 15 13 23 8 10 6 10 -8 -1 -11 -8 -26
-14 -32 -13 -7 1 -17 2 -23 3 -5 0 -10 6 -10 12 0 8 5 8 15 -1 12 -10 15 -9
15 4 0 10 -4 15 -9 12 -5 -4 -12 0 -14 6 -4 10 -6 10 -6 0 -1 -7 -5 -10 -11
-7 -5 3 -10 0 -10 -7 0 -7 -10 2 -21 20 -12 17 -23 32 -25 32 -8 0 1 -25 11
-32 7 -5 6 -8 -1 -8 -6 0 -20 12 -33 26 -17 20 -25 23 -36 14 -10 -8 -19 -8
-34 -1 -20 11 -55 10 -67 -2 -14 -14 -26 -7 -14 8 16 19 11 19 -14 0z m-2222
-6551 c3 -8 2 -13 -2 -10 -4 2 -14 1 -22 -5 -12 -7 -12 -9 4 -9 12 0 16 -5 12
-15 -3 -8 0 -15 7 -15 9 0 9 -3 -1 -9 -17 -10 -12 -31 13 -55 20 -18 20 -18
-5 -11 -23 7 -24 7 -10 -10 9 -11 10 -16 3 -11 -7 4 -13 3 -13 -2 0 -5 10 -14
23 -21 19 -9 19 -10 2 -6 -16 4 -21 0 -21 -15 0 -15 5 -19 21 -14 12 3 15 2 8
-3 -16 -11 -23 -65 -10 -81 7 -9 6 -11 -4 -7 -10 4 -15 -2 -16 -15 -1 -12 2
-18 9 -14 7 4 8 2 4 -5 -4 -6 -12 -8 -18 -5 -7 4 -8 2 -4 -5 4 -7 17 -9 29 -6
21 6 22 6 2 -7 -21 -14 -34 -75 -13 -62 6 4 4 -3 -5 -15 -8 -13 -13 -30 -10
-37 3 -8 0 -14 -5 -14 -19 0 -22 16 -8 36 8 10 11 26 7 34 -4 8 -7 26 -6 40 1
14 -2 32 -7 41 -5 11 -2 21 7 29 18 15 20 34 3 24 -10 -6 -10 -4 0 8 7 9 9 18
5 20 -4 3 -2 3 5 2 6 -2 12 4 12 12 0 8 -4 13 -9 9 -5 -3 -12 -1 -15 4 -4 5
-2 12 4 16 5 3 10 11 10 16 0 6 -4 8 -8 5 -10 -6 -9 45 2 62 9 14 -2 35 -14
27 -4 -3 -7 3 -6 12 2 9 8 19 16 21 10 4 10 6 -1 12 -18 12 -20 40 -3 47 11 4
12 8 3 19 -9 12 -9 13 4 8 8 -3 18 -12 21 -20z"/>
<path d="M5032 5174 c-10 -11 -17 -12 -27 -4 -8 7 -15 7 -19 1 -8 -13 4 -19
31 -16 13 1 21 -1 18 -3 -3 -3 1 -12 7 -21 10 -13 10 -14 -2 -4 -10 9 -17 10
-27 1 -10 -8 -12 -7 -8 4 3 8 0 15 -7 16 -22 2 -43 7 -55 15 -7 5 -13 4 -13 0
0 -5 -9 -9 -20 -10 -13 -1 -18 2 -14 9 4 7 2 8 -5 4 -6 -4 -9 -11 -6 -16 8
-13 -22 -19 -34 -7 -10 9 -12 9 -9 -3 2 -9 -3 -14 -12 -12 -8 2 -19 4 -25 5
-5 1 -10 -8 -11 -20 -1 -12 2 -20 7 -17 4 2 6 12 3 22 -4 10 -2 13 3 7 13 -16
35 -17 45 -3 7 10 9 10 5 -2 -2 -8 -10 -15 -19 -15 -8 0 -23 -8 -32 -18 -18
-18 -31 -23 -22 -9 9 16 -12 35 -30 28 -24 -9 -29 -8 -29 3 0 5 -3 12 -7 16
-3 4 -5 0 -4 -9 3 -24 22 -40 30 -27 9 14 26 14 26 1 0 -5 -5 -9 -12 -7 -7 1
-12 -3 -13 -10 0 -6 -4 -15 -9 -20 -5 -4 -7 -3 -3 3 3 6 -7 21 -24 33 -25 19
-30 20 -35 6 -3 -8 -10 -12 -15 -9 -5 3 -9 2 -8 -3 3 -19 -2 -33 -12 -33 -5 0
-7 5 -3 12 4 7 3 8 -5 4 -6 -4 -8 -12 -5 -18 4 -6 1 -9 -7 -6 -8 3 -13 14 -13
26 1 12 -2 19 -6 17 -9 -6 -8 -25 3 -42 4 -6 2 -13 -5 -15 -7 -3 -5 -7 6 -11
11 -5 15 -3 10 5 -5 8 -2 9 10 5 9 -4 15 -3 12 2 -3 5 1 11 9 15 8 3 17 0 21
-6 5 -7 2 -8 -6 -3 -10 6 -12 4 -7 -9 4 -9 3 -15 -2 -11 -5 3 -17 -2 -25 -11
-9 -8 -16 -11 -16 -5 0 6 -8 11 -17 11 -15 0 -16 -2 -3 -10 8 -5 10 -10 4 -10
-5 0 -15 5 -22 12 -9 9 -15 9 -24 -1 -11 -10 -9 -11 7 -6 17 5 17 5 4 -4 -9
-6 -25 -9 -36 -6 -17 3 -20 -1 -15 -18 5 -18 7 -19 10 -4 2 9 7 15 11 13 10
-6 1 -76 -10 -76 -5 0 -6 6 -3 13 3 8 -2 20 -11 27 -10 8 -15 9 -15 1 0 -6 4
-11 9 -11 5 0 8 -11 7 -24 0 -14 -6 -22 -13 -19 -6 3 -9 11 -6 19 3 8 0 14 -6
14 -6 0 -10 -6 -9 -12 2 -8 -5 -12 -17 -10 -20 4 -20 4 0 -11 11 -9 24 -13 30
-10 5 4 7 3 3 -2 -4 -4 -2 -17 4 -29 6 -11 7 -18 3 -14 -4 4 -16 3 -26 -2 -14
-8 -23 -5 -37 11 -12 12 -22 16 -26 10 -4 -5 -14 -8 -24 -5 -14 5 -15 4 -2 -5
14 -10 7 -16 -15 -11 -5 1 -4 -4 3 -11 6 -7 12 -17 12 -22 0 -4 -6 -5 -12 0
-19 11 -38 12 -38 2 0 -6 6 -9 13 -7 12 2 77 -29 77 -37 0 -2 -15 2 -34 10
-29 12 -36 12 -52 -1 -18 -14 -18 -14 4 -4 16 8 22 8 22 0 0 -6 5 -8 12 -4 7
5 8 3 3 -6 -6 -10 -4 -12 8 -7 9 3 19 1 23 -5 4 -6 3 -8 -3 -5 -15 9 -24 -18
-11 -31 6 -6 6 -12 -1 -16 -5 -4 -8 -14 -5 -24 5 -14 4 -14 -4 -2 -8 10 -8 18
0 27 7 8 7 13 0 13 -20 0 -32 -26 -19 -40 6 -7 0 -5 -15 5 -15 9 -33 15 -40
12 -9 -4 -8 -6 3 -6 23 -1 49 -33 31 -38 -6 -3 -10 -8 -8 -12 3 -4 -1 -8 -9
-8 -8 0 -11 5 -8 10 4 6 1 7 -7 2 -9 -5 -11 -4 -6 4 4 6 11 9 16 6 5 -3 11 -1
14 4 3 5 -5 11 -19 13 -13 3 -22 1 -19 -4 3 -5 0 -16 -8 -25 -8 -10 -8 -14 -1
-10 6 4 14 3 18 -3 3 -5 0 -10 -7 -10 -8 0 -9 -3 -3 -8 19 -13 17 -35 -2 -28
-14 6 -15 4 -6 -5 12 -12 37 -3 29 10 -3 4 2 8 10 8 10 0 11 -4 4 -11 -20 -20
-10 -29 12 -10 14 12 18 13 10 3 -6 -9 -10 -19 -7 -22 3 -4 2 -5 -2 -2 -3 3
-13 -1 -21 -8 -13 -10 -14 -9 -7 3 7 13 6 13 -7 2 -18 -14 -17 -48 0 -45 7 2
9 -4 5 -14 -4 -10 -2 -14 5 -9 6 3 13 3 16 -2 9 -16 -29 -9 -42 7 -11 14 -11
14 -6 -1 4 -12 1 -18 -9 -18 -9 0 -18 -3 -21 -8 -2 -4 13 -7 33 -6 25 0 38 -4
38 -12 0 -11 -3 -11 -16 -1 -12 10 -14 9 -9 -4 4 -9 1 -22 -5 -29 -10 -10 -8
-12 8 -6 20 6 20 6 1 -9 -11 -8 -16 -15 -12 -15 5 0 4 -6 -2 -13 -7 -8 -6 -19
3 -37 8 -14 14 -29 14 -35 0 -5 -6 1 -14 15 -8 14 -15 22 -16 18 -5 -26 -3
-34 16 -45 12 -7 15 -12 6 -13 -11 0 -11 -3 0 -17 12 -16 12 -17 -1 -6 -10 7
-21 8 -30 3 -15 -9 -23 -40 -10 -40 5 0 8 -9 7 -19 0 -11 -4 -18 -8 -15 -17
10 -32 -26 -18 -43 13 -17 13 -17 -7 0 -24 20 -48 23 -41 5 9 -26 -13 -51 -31
-37 -14 11 -15 11 -4 -1 17 -20 15 -31 -5 -23 -17 7 -17 5 1 -21 10 -17 13
-25 5 -20 -23 14 -50 12 -44 -3 18 -44 18 -48 1 -28 -17 20 -17 20 -11 -2 3
-12 1 -25 -6 -29 -8 -4 -9 -3 -5 4 4 7 2 12 -3 12 -15 0 -14 -27 2 -34 6 -2 1
-4 -12 -3 -13 1 -26 -4 -28 -10 -3 -7 0 -13 7 -13 6 0 8 5 4 11 -3 6 5 3 20
-6 30 -20 34 -27 9 -18 -10 4 -14 2 -9 -5 3 -6 2 -14 -4 -17 -6 -4 -9 -1 -8 5
2 7 -8 14 -22 16 -14 2 -20 1 -14 -3 17 -12 12 -90 -7 -105 -13 -10 -15 -18
-8 -33 9 -18 9 -18 5 3 -3 15 0 22 7 19 7 -3 11 -10 9 -16 -3 -16 3 -14 19 6
8 10 9 14 2 10 -13 -8 -10 30 3 42 4 3 5 -1 1 -11 -3 -9 -3 -19 1 -22 10 -11
11 -36 1 -36 -5 0 -15 -11 -21 -25 -13 -28 -30 -34 -22 -7 5 14 4 15 -5 2 -8
-11 -7 -18 4 -26 8 -6 12 -14 8 -17 -3 -4 -1 -7 6 -7 6 0 11 6 9 13 -1 6 2 22
6 35 7 22 8 23 23 5 8 -10 12 -12 8 -5 -11 22 9 12 28 -13 20 -28 15 -47 -11
-38 -15 6 -15 5 -3 -10 13 -16 15 -16 32 -1 11 10 22 14 26 11 3 -4 1 -7 -5
-7 -6 0 -9 -7 -6 -15 4 -8 13 -15 21 -15 8 0 11 -5 8 -10 -5 -8 -11 -8 -19 -1
-7 6 -16 8 -20 4 -4 -4 -4 1 0 12 7 17 6 18 -7 5 -14 -12 -14 -16 0 -30 9 -9
18 -12 19 -7 2 4 11 2 20 -5 10 -7 14 -9 10 -4 -4 4 2 17 12 28 17 19 18 23 3
47 l-15 26 21 -24 c13 -15 19 -30 15 -40 -4 -9 -6 -24 -6 -34 0 -9 -3 -15 -9
-12 -5 4 -9 1 -9 -5 0 -7 6 -10 13 -7 8 3 20 1 28 -4 11 -8 10 -9 -6 -7 -11 2
-20 -2 -20 -9 0 -6 -4 -15 -8 -19 -4 -5 2 -17 15 -27 13 -10 17 -16 9 -12 -7
4 -18 1 -23 -6 -8 -11 -9 -10 -5 3 3 9 1 19 -6 21 -9 3 -8 8 2 20 11 15 11 17
-2 17 -11 0 -15 -8 -12 -30 3 -18 0 -28 -5 -25 -6 4 -10 0 -10 -7 0 -9 -3 -10
-8 -2 -4 6 -15 10 -25 8 -10 -1 -14 2 -10 9 4 7 0 8 -11 4 -14 -5 -16 -3 -11
12 3 11 1 22 -4 25 -6 4 -7 14 -4 23 4 11 3 14 -5 9 -7 -4 -12 -2 -12 3 0 6 5
11 10 11 6 0 10 5 10 11 0 5 -3 8 -8 6 -4 -3 -20 5 -35 17 -19 15 -23 23 -13
23 9 0 16 -4 16 -9 0 -4 5 -8 12 -8 13 0 -6 24 -20 26 -19 2 -41 17 -37 24 6
10 -22 7 -32 -4 -4 -4 -3 -7 2 -5 16 4 45 -12 40 -22 -3 -4 -13 -6 -23 -3 -9
3 0 -5 21 -19 35 -22 66 -48 40 -34 -6 4 -14 1 -16 -5 -3 -8 -6 -5 -6 5 -1 14
-6 17 -23 12 -16 -4 -19 -3 -10 3 11 7 10 11 -3 16 -10 3 -23 2 -30 -4 -6 -5
-16 -6 -20 -2 -5 4 -5 1 -1 -6 4 -7 1 -15 -9 -18 -14 -6 -14 -9 0 -30 9 -14
11 -25 5 -29 -6 -4 -9 -1 -8 7 2 7 -3 12 -10 10 -8 -1 -11 2 -7 8 3 5 -1 10
-10 10 -11 0 -15 -5 -12 -15 4 -8 2 -17 -4 -21 -6 -3 -8 -13 -4 -21 5 -14 3
-14 -11 -2 -16 13 -16 12 -6 -7 6 -12 8 -25 4 -29 -4 -3 -8 -11 -8 -16 -7 -46
-20 -56 -45 -34 l-22 20 12 -23 c11 -20 10 -26 -6 -38 -10 -8 -13 -14 -8 -13
24 3 27 -2 9 -16 -18 -14 -18 -15 6 -6 17 6 24 15 22 27 -2 11 -1 16 2 13 10
-9 16 -50 7 -45 -4 3 -13 1 -21 -5 -15 -8 7 -15 34 -10 5 1 4 -4 -3 -13 -9
-11 -9 -16 0 -22 8 -5 9 -3 4 6 -5 9 -4 11 4 6 9 -6 9 -11 0 -22 -10 -12 -10
-15 1 -12 8 2 22 12 30 22 14 16 17 17 17 3 0 -9 -4 -14 -9 -11 -4 3 -8 0 -8
-5 0 -6 7 -11 16 -11 9 0 12 -5 8 -12 -4 -7 -3 -8 5 -4 29 18 70 24 64 10 -4
-10 0 -12 11 -8 9 3 13 11 9 18 -3 6 -3 8 2 4 4 -4 15 -2 24 5 14 11 14 10 2
-5 -7 -10 -10 -18 -6 -18 5 0 17 8 28 18 11 9 17 11 13 5 -4 -7 -3 -13 3 -13
5 0 11 3 14 8 2 4 3 2 1 -5 -1 -6 4 -19 12 -30 14 -17 14 -16 4 5 -9 19 -8 22
10 22 13 0 18 4 14 11 -4 8 0 8 15 0 16 -9 21 -9 21 1 0 6 6 3 14 -7 8 -11 19
-16 30 -12 9 4 16 1 16 -5 0 -7 6 -3 14 7 8 11 12 24 9 29 -4 5 -1 6 6 2 6 -4
9 -12 6 -17 -4 -5 -1 -9 6 -9 6 0 9 8 6 19 -3 14 -1 18 9 14 8 -3 12 -9 9 -13
-3 -5 -1 -11 5 -15 5 -3 10 1 10 10 0 8 7 18 15 21 8 4 15 12 15 20 0 8 5 14
10 14 7 0 7 -6 0 -20 -6 -11 -16 -20 -22 -20 -6 0 -9 -3 -5 -6 3 -3 16 1 29
10 12 9 19 16 14 16 -5 0 -3 7 4 15 10 12 16 13 29 3 13 -10 14 -10 4 2 -7 8
-13 18 -13 23 0 6 5 6 13 0 6 -5 22 -10 34 -11 29 -1 31 53 2 55 -17 2 -17 0
-4 -21 13 -20 13 -23 0 -23 -8 0 -12 3 -10 7 10 16 -37 2 -51 -16 -8 -10 -13
-13 -9 -6 4 7 1 21 -7 30 -12 16 -11 16 6 2 18 -14 19 -13 13 3 -4 11 -3 16 3
12 13 -8 53 30 56 52 2 10 7 19 13 21 5 2 7 11 4 20 -4 14 -3 14 5 3 10 -14 6
-41 -7 -41 -4 0 -7 -8 -8 -18 -1 -10 5 -19 13 -19 8 0 13 5 11 12 -3 6 1 19 8
29 8 10 11 25 8 34 -4 14 -3 15 5 2 6 -8 8 -19 5 -25 -3 -5 0 -5 6 1 10 9 10
17 2 33 -9 17 -9 20 3 15 8 -3 16 2 19 13 4 17 5 17 6 0 0 -10 5 -16 10 -12 5
3 13 0 17 -6 4 -7 3 -9 -4 -5 -6 3 -20 -7 -31 -22 -19 -28 -19 -29 -1 -27 11
1 23 5 27 10 5 4 2 4 -6 0 -11 -6 -13 -4 -8 9 4 10 7 20 7 23 0 3 7 0 14 -7
13 -10 14 -7 10 14 -2 14 0 27 6 27 5 1 14 2 19 3 5 0 13 5 18 10 5 5 3 6 -4
2 -8 -4 -13 -1 -13 8 0 9 -5 15 -11 14 -6 -2 -14 4 -16 12 -3 9 -1 11 4 4 15
-19 68 -11 65 10 -2 12 1 16 10 11 7 -3 5 0 -4 8 -30 24 -18 57 12 35 12 -8
11 -9 -3 -4 -12 4 -17 2 -15 -6 6 -18 25 -21 31 -4 4 9 -1 22 -9 31 -18 18 -4
21 15 3 11 -11 11 -9 1 11 -11 21 -10 23 4 18 8 -3 18 -1 22 5 5 7 2 8 -6 3
-10 -6 -12 -4 -7 9 4 10 7 19 7 22 0 2 6 2 13 0 6 -1 8 -1 4 2 -4 2 0 10 10
18 17 13 17 14 0 8 -13 -5 -16 -2 -10 12 4 12 3 15 -5 10 -8 -5 -10 -2 -6 9 6
14 8 14 19 -1 8 -11 14 -13 19 -6 3 6 2 13 -4 17 -6 4 -7 11 -4 17 5 8 1 9
-12 4 -18 -7 -18 -6 -2 11 15 14 20 15 30 4 7 -8 8 -11 2 -8 -6 3 -11 0 -11
-8 0 -15 16 -22 18 -7 0 4 2 17 5 30 3 16 0 21 -7 16 -7 -4 -10 -1 -7 7 3 8
11 13 17 11 7 -1 10 2 7 7 -4 5 -3 11 1 14 5 2 2 2 -6 0 -9 -2 -11 2 -7 13 3
8 6 22 6 30 0 9 5 12 12 8 6 -4 8 -3 4 4 -3 6 -1 14 5 18 9 5 7 11 -6 21 -11
7 -13 13 -7 13 7 0 12 9 12 20 0 13 5 18 15 14 8 -4 15 -4 15 -1 0 18 -32 14
-39 -5 l-8 -22 -5 22 c-4 12 -3 20 2 17 4 -3 13 2 20 10 7 8 16 13 20 10 5 -3
12 0 16 6 4 7 3 9 -3 6 -6 -4 -13 0 -17 8 -4 10 1 15 14 15 11 0 20 3 21 8 0
4 2 15 4 24 2 10 -4 23 -13 28 -14 9 -13 10 6 5 12 -4 22 -3 21 2 -4 21 2 34
13 27 6 -4 8 -3 4 4 -3 6 -2 13 4 17 5 3 10 1 10 -4 0 -6 5 -11 11 -11 5 0 7
5 3 12 -5 7 -2 9 9 5 11 -4 14 -2 10 9 -4 11 -9 12 -19 3 -10 -8 -14 -8 -14 0
0 6 -9 2 -20 -9 -11 -11 -20 -24 -20 -30 0 -5 -5 -10 -10 -10 -7 0 -7 6 -1 19
6 10 7 21 3 25 -3 4 2 4 12 0 14 -5 17 -4 12 4 -4 7 -2 12 4 12 6 0 8 5 4 13
-5 8 -2 7 9 -2 10 -8 20 -11 24 -7 3 3 15 -2 26 -11 20 -18 20 -18 4 7 -18 30
-15 80 7 92 9 5 16 17 17 26 1 10 4 7 8 -8 4 -14 12 -26 19 -26 7 -1 17 -2 22
-3 6 0 10 -6 10 -12 0 -5 -4 -8 -8 -5 -4 2 -19 -4 -32 -15 -15 -12 -18 -17 -7
-13 10 4 17 1 17 -6 0 -7 -8 -10 -20 -7 -13 3 -18 1 -13 -5 4 -7 1 -8 -8 -4
-8 4 -6 1 3 -7 10 -8 14 -18 10 -22 -4 -5 -1 -5 6 -1 7 4 10 11 7 16 -9 14 27
21 44 8 15 -12 15 -11 1 6 -14 18 -13 19 3 13 10 -4 16 -3 12 2 -3 5 1 12 7
15 7 3 2 3 -12 0 -22 -4 -23 -3 -9 8 9 7 14 19 11 27 -2 8 0 11 5 8 5 -3 10 0
10 8 0 11 -4 12 -14 4 -9 -8 -17 -8 -26 0 -8 6 -17 7 -22 3 -4 -4 -2 3 4 16
14 26 23 29 19 6 -5 -28 18 -26 31 2 6 15 9 29 6 32 -2 3 0 11 6 18 12 15 -5
29 -22 18 -8 -5 -8 -9 1 -14 8 -5 7 -9 -5 -13 -11 -5 -14 -3 -9 5 5 7 2 9 -9
5 -11 -4 -14 -2 -10 8 3 8 9 13 13 10 14 -9 23 16 11 28 -6 6 -11 15 -11 20 0
5 9 -1 21 -14 20 -24 20 -24 9 -1 -7 15 -7 22 0 22 5 0 10 4 10 8 0 11 -51 9
-70 -3 -13 -8 -13 -7 -1 8 8 10 16 15 19 12 3 -3 12 1 20 8 13 9 14 9 8 -1 -5
-8 -1 -11 11 -9 10 1 18 5 19 7 0 3 7 16 14 30 8 14 13 32 12 40 -2 11 0 10 8
-3 6 -9 9 -21 6 -25 -3 -5 1 -9 8 -9 8 0 12 7 8 15 -3 10 -1 13 6 8 6 -3 14
-1 18 5 5 8 3 9 -7 4 -11 -7 -12 -6 -2 7 7 8 9 19 5 24 -4 4 1 2 11 -5 16 -13
16 -15 1 -40 l-17 -26 27 24 c19 18 29 22 37 14 6 -6 18 -9 25 -6 8 3 14 1 14
-5 0 -11 -18 -11 -38 2 -7 4 -14 6 -15 5 -2 -2 -9 -13 -17 -24 -12 -17 -12
-18 0 -7 16 13 44 17 36 4 -3 -5 7 -8 22 -7 17 1 26 7 24 16 -1 8 4 6 13 -5
13 -18 15 -18 15 -3 0 10 -6 20 -14 23 -8 3 -17 13 -21 22 -4 12 1 10 18 -6
l24 -23 15 22 c14 22 16 22 38 6 14 -9 19 -17 12 -17 -19 0 -27 4 -24 13 4 14
-16 7 -22 -8 -5 -13 15 -22 27 -12 2 1 11 -4 20 -11 12 -10 17 -10 23 -1 4 8
3 9 -4 5 -15 -9 -15 -1 -1 25 9 17 7 20 -7 17 -9 -2 -18 3 -20 10 -1 7 0 8 3
2 3 -8 9 -7 19 1 11 9 14 9 14 0 0 -7 5 -9 10 -6 6 3 10 2 10 -2 0 -5 8 -9 18
-10 9 -1 30 -4 46 -7 17 -3 37 0 45 6 15 11 15 10 0 -5 -15 -18 -64 -33 -54
-17 3 4 -6 7 -20 5 -14 -1 -28 2 -31 6 -10 17 -26 9 -19 -8 4 -10 8 -23 8 -30
0 -7 4 -10 8 -7 5 2 5 12 2 22 -6 15 -5 16 12 2 11 -9 16 -10 11 -2 -4 6 -2
12 3 12 6 0 11 -4 11 -10 0 -5 13 -8 29 -6 20 2 28 -1 24 -9 -2 -7 -12 -12
-21 -10 -9 1 -11 0 -4 -2 6 -3 12 -9 12 -15 0 -6 7 -5 17 3 15 13 15 12 4 -10
-11 -19 -11 -22 0 -16 9 6 10 3 5 -10 -5 -15 -4 -16 9 -5 9 7 18 10 22 6 3 -3
1 -6 -5 -6 -7 0 -12 -5 -12 -11 0 -5 5 -7 10 -4 13 8 13 -8 0 -23 -6 -6 -7
-10 -4 -7 4 3 13 -3 21 -13 12 -16 13 -16 7 3 -4 15 -4 17 4 6 6 -8 8 -21 4
-29 -3 -9 -1 -13 4 -9 6 3 16 -4 24 -16 12 -20 12 -21 -4 -8 -14 12 -16 12
-10 -3 6 -15 18 -20 37 -17 5 1 6 -3 2 -9 -3 -5 -1 -10 6 -10 7 0 10 -3 7 -6
-4 -3 -17 -1 -30 6 -22 11 -22 10 -4 -4 11 -9 24 -16 29 -16 4 0 5 -5 1 -12
-5 -7 -2 -9 9 -5 12 4 14 2 10 -10 -4 -11 -2 -14 5 -9 7 4 10 -1 7 -15 -3 -15
2 -23 15 -26 11 -3 20 -9 20 -14 0 -5 6 -7 13 -5 6 1 9 1 5 -1 -5 -3 -8 -9 -8
-14 0 -6 5 -7 10 -4 6 3 10 -1 10 -9 0 -9 6 -16 14 -16 8 0 18 -9 21 -20 3
-11 11 -20 16 -20 6 0 7 5 3 12 -5 7 -3 8 5 4 9 -6 9 -12 -3 -25 -9 -10 -16
-22 -16 -27 0 -5 4 -4 8 1 4 6 16 17 27 25 19 15 19 15 2 -12 -12 -19 -14 -29
-5 -34 6 -4 8 -3 5 3 -4 6 3 13 14 16 12 3 18 10 15 16 -4 5 -3 12 2 15 4 2 8
-6 8 -19 0 -13 -4 -23 -9 -22 -5 1 -12 -4 -14 -11 -3 -8 2 -10 14 -7 11 4 9 1
-4 -6 -28 -15 -29 -25 -3 -41 11 -7 20 -16 20 -21 0 -4 -4 -6 -8 -3 -4 2 -8
-4 -8 -14 0 -18 1 -18 20 -2 19 16 20 16 7 0 -7 -9 -10 -22 -6 -27 3 -6 0 -8
-9 -5 -9 3 -13 0 -12 -8 6 -26 18 -48 29 -48 5 0 2 9 -8 20 -17 19 -17 20 -1
20 9 0 14 -5 11 -10 -3 -6 1 -13 11 -17 14 -5 13 -8 -7 -19 l-24 -13 23 -1
c12 0 22 -5 22 -11 0 -5 -4 -7 -10 -4 -5 3 -10 -1 -10 -10 0 -9 4 -14 8 -11 4
2 14 -4 20 -15 12 -18 11 -19 -6 -10 -15 8 -18 6 -18 -14 0 -14 4 -21 11 -17
16 10 36 11 30 2 -3 -5 1 -11 7 -13 10 -4 10 -6 0 -6 -7 -1 -10 -6 -6 -13 4
-7 3 -8 -5 -4 -6 4 -9 12 -6 17 4 5 1 9 -4 9 -16 0 -13 -16 5 -31 13 -10 17
-10 25 2 5 8 9 9 9 4 0 -6 -9 -18 -20 -28 -11 -9 -20 -22 -19 -29 0 -10 2 -10
6 0 2 6 10 9 15 6 7 -4 8 -2 4 4 -4 7 -2 12 3 12 15 0 14 -13 -1 -29 -10 -11
-10 -13 0 -7 7 4 12 1 12 -9 0 -8 7 -18 15 -21 8 -4 15 -10 15 -16 0 -5 -4 -7
-9 -3 -5 3 -9 -8 -9 -25 1 -20 4 -26 9 -19 4 7 6 16 4 19 -2 4 2 7 8 7 7 0 14
-10 15 -21 1 -16 -1 -17 -8 -6 -6 10 -9 5 -8 -18 1 -32 2 -32 21 -15 20 18 20
18 1 -12 -18 -29 -18 -30 0 -15 17 14 18 13 12 -6 -4 -14 -1 -26 9 -34 8 -7
15 -19 15 -27 0 -8 3 -12 8 -9 4 2 8 -9 8 -25 1 -16 -3 -29 -9 -29 -6 0 -7 -3
-4 -6 4 -4 13 -2 20 4 10 9 14 8 14 -3 0 -8 -3 -15 -7 -15 -4 0 -7 -7 -7 -15
0 -11 4 -12 14 -4 15 13 14 14 19 -26 2 -20 0 -25 -5 -16 -5 8 -7 21 -4 30 4
13 3 14 -5 2 -6 -9 -7 -22 -2 -30 4 -9 9 -20 11 -26 2 -5 8 -9 15 -7 6 1 11
-4 11 -13 0 -8 -5 -12 -11 -9 -6 3 -2 -2 9 -12 14 -11 15 -15 4 -11 -9 3 -22
1 -30 -4 -8 -5 -9 -9 -4 -10 29 -2 49 -9 59 -20 8 -9 6 -9 -11 0 -12 6 -24 7
-27 2 -3 -5 3 -11 14 -14 14 -4 18 -10 13 -23 -4 -11 -3 -15 5 -10 6 3 13 2
16 -3 11 -17 -12 -22 -28 -5 -9 8 -16 10 -16 4 0 -6 7 -13 15 -16 13 -5 13 -9
3 -23 -10 -13 -10 -14 1 -4 7 6 20 9 29 6 11 -5 13 -3 7 7 -5 9 -4 11 3 6 8
-5 9 -13 3 -24 -7 -13 -2 -23 20 -41 23 -20 26 -28 17 -44 -7 -14 -7 -17 1
-13 6 4 11 2 11 -3 0 -6 5 -11 11 -11 8 0 8 4 0 14 -9 11 -9 16 1 22 7 4 10 4
6 -1 -4 -4 -2 -15 4 -23 7 -8 13 -22 13 -31 0 -11 8 -15 25 -14 14 1 19 -1 13
-3 -10 -4 -9 -9 2 -21 8 -8 12 -19 9 -25 -4 -6 -2 -8 4 -4 5 3 12 1 14 -5 2
-6 16 -11 31 -11 17 0 24 -4 20 -12 -11 -17 -12 -37 -2 -30 5 3 9 0 9 -7 0 -7
3 -9 6 -6 4 4 2 13 -4 20 -9 10 -9 14 1 14 11 0 17 -21 20 -74 0 -13 27 -5 27
9 0 5 -6 6 -12 2 -10 -6 -10 -5 -1 8 7 8 11 18 8 21 -3 4 -2 4 2 1 5 -3 8 -11
8 -17 1 -7 6 -11 13 -9 7 1 12 -2 12 -8 0 -5 -6 -10 -12 -10 -9 0 -8 -4 2 -10
13 -8 13 -10 -1 -10 -10 0 -15 -8 -14 -22 1 -17 8 -23 23 -22 12 1 19 -2 17
-7 -3 -4 -17 -5 -32 -3 -22 4 -24 3 -14 -10 9 -11 9 -16 0 -22 -7 -4 -9 -3 -5
4 10 17 -16 27 -28 9 -9 -11 -16 -13 -30 -5 -15 8 -17 8 -11 -2 5 -8 1 -19
-11 -28 -16 -12 -16 -14 -2 -9 10 3 20 2 23 -3 3 -5 11 -8 18 -6 7 1 9 1 4 -1
-4 -3 -4 -9 -1 -15 4 -7 0 -7 -12 0 -14 7 -25 6 -39 -4 -19 -14 -19 -15 7 -10
19 3 25 1 22 -9 -3 -7 3 -15 13 -18 17 -4 17 -5 -1 -6 -16 -1 -17 -3 -5 -18
13 -16 12 -17 -3 -4 -10 7 -16 17 -13 21 3 5 2 11 -2 13 -5 3 -8 -10 -9 -29 0
-19 3 -34 8 -34 5 0 6 4 3 10 -4 6 1 7 11 3 11 -4 13 -8 6 -11 -7 -2 -12 -13
-12 -25 0 -18 -2 -19 -10 -7 -5 8 -10 10 -10 4 0 -6 8 -18 17 -25 11 -10 14
-10 9 -1 -4 6 -2 12 3 12 17 0 13 -18 -8 -32 -19 -14 -19 -14 2 -28 20 -12 21
-12 8 3 -9 11 -10 17 -2 17 6 0 12 -4 12 -10 3 -20 4 -25 13 -39 6 -9 0 -7
-17 4 -26 17 -26 17 -21 -11 6 -31 22 -46 39 -37 5 3 5 0 -2 -7 -6 -7 -9 -19
-6 -26 3 -8 0 -14 -5 -14 -6 0 -9 9 -7 20 2 11 0 20 -5 20 -5 0 -8 -12 -6 -27
1 -21 6 -27 20 -25 14 3 12 -3 -10 -22 -20 -17 -24 -24 -12 -22 10 1 21 6 25
11 4 4 2 5 -6 0 -10 -6 -12 -4 -7 4 9 13 21 6 21 -12 1 -7 7 -11 14 -9 7 1 10
-2 6 -8 -5 -8 -12 -7 -22 2 -14 11 -15 10 -9 -12 6 -23 6 -24 -7 -7 -14 16
-15 16 -21 1 -4 -9 -4 -19 -1 -22 3 -3 5 0 5 8 0 10 3 10 15 0 9 -7 15 -20 14
-29 -3 -29 1 -36 11 -21 6 9 10 10 10 3 0 -6 -5 -15 -10 -18 -8 -5 -7 -12 2
-23 12 -15 11 -16 -4 -3 -10 7 -15 17 -12 22 9 16 -3 10 -17 -8 -10 -11 -10
-14 -1 -9 11 6 14 0 11 -20 0 -4 5 -11 13 -16 10 -7 8 -8 -5 -4 -10 3 -16 2
-12 -3 3 -5 -1 -12 -7 -15 -7 -3 -3 -3 10 0 24 6 29 -5 10 -24 -15 -15 -3 -16
23 -2 28 16 23 7 -11 -18 -20 -15 -28 -18 -24 -7 4 9 1 15 -7 15 -11 0 -11 3
1 10 13 8 12 10 -2 10 -21 0 -19 -37 3 -54 19 -15 22 -37 4 -30 -8 4 -12 10
-9 15 3 5 0 9 -5 9 -10 0 -12 -7 -10 -27 0 -4 -8 -10 -18 -14 -14 -6 -15 -8
-2 -8 16 -1 23 -31 7 -31 -4 0 -7 -5 -5 -12 1 -7 -3 -12 -10 -13 -6 0 -14 -3
-18 -7 -4 -3 -1 -6 7 -4 28 4 44 22 43 49 0 35 14 38 32 7 13 -21 13 -22 1 -8
-8 10 -18 15 -22 11 -3 -4 4 -18 16 -32 13 -14 17 -21 9 -14 -15 12 -61 -20
-48 -34 4 -3 7 -1 7 6 0 8 5 7 16 -3 8 -9 20 -13 26 -10 7 4 8 2 4 -5 -4 -6
-12 -9 -17 -5 -18 11 -59 12 -66 1 -4 -6 -1 -7 7 -2 8 5 11 3 8 -6 -3 -8 -11
-13 -17 -12 -15 4 -14 -12 3 -26 7 -6 21 -9 30 -5 13 5 15 1 12 -17 -2 -13 -8
-23 -14 -22 -6 1 -13 -5 -16 -13 -4 -12 -2 -15 9 -10 8 3 15 3 15 0 0 -2 -12
-9 -26 -14 -23 -9 -24 -12 -13 -27 10 -12 10 -15 2 -9 -7 4 -13 2 -13 -3 0 -6
-4 -11 -8 -11 -5 0 -9 7 -9 15 0 8 3 12 7 10 4 -2 7 2 7 10 0 8 -4 15 -9 15
-4 0 -8 5 -8 11 0 8 6 7 17 -2 11 -10 14 -10 9 -1 -4 6 -2 12 3 12 6 0 11 5
11 11 0 8 -4 8 -12 2 -7 -6 -21 -9 -30 -8 -15 3 -16 0 -7 -16 5 -11 6 -25 2
-32 -8 -12 -9 -17 -12 -38 0 -5 -6 -7 -11 -4 -6 4 -8 10 -5 15 7 11 -22 7 -32
-5 -4 -4 -3 -5 3 -2 11 6 37 -20 42 -42 2 -9 -3 -11 -13 -7 -9 3 -13 2 -10 -4
3 -6 1 -10 -6 -10 -7 0 -10 -3 -6 -6 3 -3 -4 -15 -15 -26 -22 -22 -8 -54 20
-43 12 5 13 3 2 -10 -7 -9 -16 -12 -19 -7 -7 10 -41 12 -42 3 0 -3 -2 -16 -5
-28 -3 -17 0 -21 14 -17 16 5 16 5 -1 -6 -9 -6 -15 -15 -12 -20 3 -5 1 -11 -4
-15 -6 -3 -8 4 -6 17 4 21 3 22 -9 6 -13 -18 -32 -25 -22 -9 4 5 -2 8 -11 7
-10 -2 -16 -6 -15 -11 2 -4 -2 -11 -8 -15 -8 -5 -7 -9 5 -13 10 -5 14 -3 9 5
-5 7 -3 8 6 3 9 -6 11 -4 5 4 -6 10 -3 11 16 1 31 -16 39 -25 16 -17 -21 8
-80 -31 -70 -46 3 -6 1 -7 -5 -3 -7 4 -12 1 -12 -6 0 -9 -3 -9 -10 2 -8 13
-10 12 -10 -4 0 -11 -3 -17 -6 -13 -11 11 8 49 22 43 19 -7 27 10 14 31 -9 16
-10 15 -5 -4 5 -17 3 -22 -8 -17 -9 3 -21 -4 -29 -15 -8 -12 -19 -18 -24 -13
-4 4 -2 -2 6 -12 14 -17 13 -18 -6 -12 -14 4 -26 1 -35 -11 -12 -16 -12 -17 2
-6 13 10 16 10 16 -1 0 -9 -9 -13 -24 -11 -16 2 -20 -1 -14 -9 7 -8 4 -12 -9
-13 -32 -3 -65 -29 -45 -37 10 -4 14 -2 9 6 -5 7 -3 8 6 3 9 -6 11 -4 5 6 -8
12 -6 12 8 0 9 -7 17 -16 17 -19 0 -3 -3 -2 -7 1 -8 8 -35 -12 -29 -22 4 -7
-6 -9 -63 -13 -17 -1 -28 -5 -25 -9 2 -4 0 -10 -6 -14 -5 -3 -10 -1 -10 6 0 7
-3 9 -7 5 -5 -4 1 -14 11 -22 11 -8 15 -14 9 -14 -5 0 -15 -10 -22 -22 -10
-20 -10 -20 -6 -2 3 11 -2 29 -11 40 -8 10 -13 14 -10 8 7 -14 -18 -37 -28
-26 -4 4 -6 0 -4 -8 2 -8 -3 -14 -10 -12 -7 1 -20 -5 -28 -13 -9 -8 -20 -12
-26 -9 -7 4 -8 2 -4 -4 4 -7 1 -12 -9 -12 -9 0 -13 -4 -10 -10 3 -5 1 -10 -5
-10 -6 0 -8 -5 -5 -10 4 -6 11 -7 17 -4 7 4 8 2 4 -5 -4 -6 -11 -9 -16 -6 -4
3 -10 2 -13 -2 -2 -5 -2 -2 -1 5 2 6 -1 12 -7 12 -6 0 -7 5 -3 12 4 7 3 8 -4
4 -6 -4 -9 -13 -6 -20 3 -8 0 -17 -7 -22 -7 -4 -10 -3 -6 3 7 11 -22 28 -31
18 -3 -3 1 -5 8 -5 7 0 10 -3 7 -7 -4 -3 -2 -12 3 -18 8 -9 4 -12 -14 -10 -14
2 -27 -3 -30 -11 -3 -8 -12 -14 -21 -14 -8 0 -15 -4 -15 -9 0 -11 -19 -9 -38
3 -19 11 -30 -3 -12 -15 13 -9 13 -10 0 -8 -30 3 -41 -1 -35 -13 4 -7 -1 -4
-9 6 -14 18 -21 15 -17 -7 1 -4 -8 -3 -19 3 -11 6 -20 9 -21 8 0 -2 -2 -11 -4
-21 -2 -11 -7 -22 -11 -25 -4 -4 -4 1 -1 10 3 10 2 20 -3 23 -6 4 -10 -1 -10
-10 0 -9 -5 -13 -10 -10 -6 4 -18 1 -27 -7 -12 -9 -15 -9 -9 0 7 12 -3 16 -38
12 -13 -1 -16 2 -10 12 6 10 5 11 -7 2 -8 -6 -25 -10 -39 -8 -19 3 -22 2 -10
-6 9 -6 10 -10 3 -10 -6 0 -15 5 -18 11 -5 6 -12 4 -21 -8 -7 -10 -14 -13 -14
-8 0 6 -5 3 -10 -5 -7 -11 -10 -11 -10 -2 0 7 -4 10 -10 7 -5 -3 -10 -1 -10 5
0 6 11 8 25 6 16 -3 23 -1 19 5 -3 6 -8 8 -11 5 -3 -3 -14 -1 -24 5 -18 9 -23
3 -21 -22 1 -3 -6 -6 -14 -6 -10 0 -11 4 -4 11 5 5 10 17 10 26 0 13 -1 13
-10 0 -5 -8 -23 -15 -39 -16 -16 0 -28 3 -25 8 3 5 10 5 16 2 6 -4 8 -2 5 3
-4 6 -19 8 -33 5 -16 -3 -25 -1 -21 5 5 8 -10 10 -56 4 -5 -1 -5 -6 -1 -13 4
-7 3 -8 -4 -4 -7 4 -12 15 -13 24 0 10 -3 12 -5 5 -3 -7 -12 -9 -20 -6 -8 3
-14 1 -14 -4 0 -5 -9 -9 -20 -10 -11 -1 -18 2 -15 8 9 13 -9 11 -23 -3 -8 -8
-15 -8 -27 2 -8 7 -18 10 -22 7 -3 -4 -15 -2 -27 4 -20 10 -20 10 1 -9 12 -11
20 -22 17 -25 -6 -6 -52 35 -48 43 2 3 -6 7 -17 7 -10 1 -19 -3 -19 -8 0 -6 4
-8 8 -5 5 3 9 -1 9 -8 0 -11 -4 -12 -19 -3 -10 7 -16 17 -14 22 2 6 -5 11 -15
11 -10 0 -15 -5 -11 -11 4 -6 0 -4 -8 5 -8 8 -28 15 -45 14 -16 0 -38 6 -47
14 -10 8 -18 12 -18 7 0 -4 -7 -2 -15 5 -9 7 -18 10 -22 6 -3 -3 -1 -6 5 -6 7
0 12 -4 12 -10 0 -13 -22 -8 -35 7 -8 10 -16 10 -37 -1 -16 -8 -28 -11 -28 -5
0 5 5 9 10 9 6 0 10 5 10 11 0 6 -7 9 -15 5 -8 -3 -19 3 -25 12 -9 14 -10 14
-5 -5 4 -14 2 -23 -4 -23 -6 0 -10 3 -10 8 4 22 -3 34 -15 29 -17 -7 -39 16
-28 28 4 5 1 5 -6 1 -8 -5 -9 -13 -3 -25 6 -11 6 -22 0 -32 -9 -12 -10 -12 -6
1 5 18 -10 50 -23 50 -6 0 -9 -5 -7 -12 1 -6 -7 -13 -18 -15 l-20 -3 20 9 c11
5 16 10 11 10 -5 1 -3 7 3 15 10 12 8 13 -8 9 -12 -3 -18 -10 -15 -17 3 -6 -3
-1 -14 11 -17 19 -21 20 -26 7 -3 -8 -2 -12 4 -9 6 3 7 -1 3 -10 -9 -24 -24 3
-17 30 3 11 2 16 -3 10 -12 -15 -65 -17 -58 -2 4 7 0 4 -8 -6 -11 -14 -16 -15
-20 -5 -4 9 -6 8 -6 -3 -1 -9 -8 -16 -16 -16 -8 0 -12 4 -9 9 3 4 0 8 -6 8 -6
0 -8 5 -4 12 6 9 3 9 -9 0 -9 -8 -21 -11 -27 -7 -5 3 -10 -2 -11 -12 0 -14 -2
-14 -9 4 -5 13 -12 23 -14 23 -3 0 -3 -6 0 -14 4 -10 -2 -12 -20 -9 -17 4 -26
1 -26 -8 0 -7 -3 -9 -6 -6 -4 4 -1 14 7 24 13 16 12 16 -15 -1 -16 -10 -31
-14 -35 -9 -3 4 -32 8 -63 8 -38 0 -58 4 -58 12 0 13 -25 12 -37 -2 -5 -4 -1
-5 7 0 8 5 12 4 7 0 -11 -13 -38 -15 -30 -2 4 7 0 8 -12 3 -16 -6 -16 -4 -4
10 12 15 11 16 -9 10 -24 -8 -29 3 -10 22 9 9 9 12 0 12 -7 0 -12 -5 -12 -11
0 -5 -5 -7 -10 -4 -6 4 -8 16 -5 28 5 16 4 18 -3 8 -8 -11 -10 -11 -15 0 -5
12 -6 12 -6 0 -1 -11 -4 -11 -15 -1 -11 9 -19 9 -33 0 -16 -10 -15 -10 5 -5
15 5 24 1 28 -10 6 -14 9 -14 16 -3 7 10 8 9 4 -4 -3 -10 -1 -17 6 -15 6 1 13
-5 15 -13 4 -12 3 -12 -5 -1 -6 8 -12 9 -16 3 -7 -12 -23 -10 -53 6 -15 8 -24
9 -28 2 -4 -6 -3 -10 2 -9 31 5 47 -21 21 -37 -8 -5 -9 -2 -5 9 11 30 -16 18
-43 -18 -14 -20 -14 -20 6 -2 19 15 22 16 27 3 4 -9 1 -18 -5 -22 -7 -5 -8 -2
-3 6 6 9 4 11 -4 6 -7 -5 -10 -15 -7 -23 4 -9 1 -23 -6 -31 -10 -12 -10 -14 0
-8 6 4 12 3 12 -3 0 -6 7 -8 15 -5 8 4 15 1 15 -4 0 -6 -12 -9 -27 -6 l-28 4
25 -14 c14 -8 29 -12 34 -9 5 4 6 1 2 -5 -4 -6 -13 -9 -21 -5 -8 3 -15 1 -15
-5 0 -6 11 -9 23 -8 14 2 24 -2 24 -10 0 -7 -5 -10 -11 -7 -6 3 -5 0 2 -8 11
-12 14 -12 23 1 9 12 10 11 6 -7 -4 -16 -1 -20 11 -16 10 4 13 2 8 -5 -3 -6
-2 -13 3 -16 5 -4 13 -1 17 5 4 8 3 9 -4 5 -17 -10 -15 -1 4 14 8 8 14 9 13 4
-4 -24 3 -30 32 -26 20 3 34 0 40 -9 6 -10 9 -11 9 -1 0 6 5 12 11 12 5 0 7
-6 4 -12 -4 -7 0 -5 8 5 11 14 16 15 20 5 4 -10 6 -10 6 0 1 6 5 12 11 12 5 0
8 -6 6 -12 -1 -7 -1 -10 1 -5 3 4 14 7 24 7 11 0 18 4 15 8 -3 5 1 9 9 9 8 0
11 -5 8 -10 -4 -6 0 -8 9 -4 9 3 21 0 28 -6 10 -9 11 -9 5 2 -6 11 -4 13 9 8
9 -4 15 -3 11 3 -3 5 4 8 15 7 11 -1 20 -5 20 -9 0 -4 4 -8 10 -8 5 0 7 6 4
13 -3 8 2 19 10 26 13 11 14 9 10 -16 -5 -26 -4 -27 9 -9 8 11 22 21 32 22 9
1 14 -1 10 -4 -4 -4 -11 -7 -16 -7 -5 0 -9 -3 -9 -7 0 -5 3 -7 8 -6 31 6 41
11 37 19 -3 4 4 7 15 6 13 -1 16 -5 10 -11 -13 -13 -13 -26 1 -26 5 0 7 5 3
12 -5 7 0 9 14 6 15 -4 23 0 27 13 6 17 7 17 28 -4 12 -12 21 -26 19 -30 -1
-5 2 -6 8 -2 5 3 10 1 10 -6 0 -7 3 -9 6 -6 4 4 -1 18 -11 33 -9 15 -12 24 -7
20 6 -3 12 -3 14 2 1 4 12 -1 22 -12 19 -19 19 -19 0 -13 -18 7 -18 6 1 -9 11
-8 19 -20 17 -25 -1 -6 4 -6 16 0 11 6 24 6 36 -1 10 -6 21 -6 25 -2 11 15 31
15 37 -1 5 -12 10 -11 25 8 10 12 18 17 19 12 0 -6 -5 -16 -11 -22 -8 -8 -8
-13 0 -18 7 -3 10 -1 9 7 -5 22 40 22 47 -1 3 -12 11 -21 16 -21 6 0 5 8 -1
21 -7 11 -9 23 -6 27 3 3 6 0 6 -7 0 -7 5 -9 10 -6 6 4 10 3 9 -2 -4 -22 2
-53 10 -53 5 0 7 10 5 23 -2 12 -1 15 2 7 4 -8 12 -21 18 -29 8 -11 8 -13 -1
-8 -6 4 -15 2 -19 -4 -4 -8 -3 -9 4 -5 7 4 12 2 12 -5 0 -7 6 -5 13 6 10 13
16 15 21 6 4 -6 12 -8 18 -5 7 4 8 2 4 -5 -6 -9 -12 -9 -24 1 -15 12 -16 11
-3 -5 9 -11 21 -15 34 -11 11 3 25 7 31 8 6 1 17 5 24 9 7 5 12 3 12 -3 0 -6
5 -8 13 -4 9 6 9 4 1 -7 -14 -17 -14 -49 -1 -49 5 0 7 7 4 15 -8 19 11 31 26
16 15 -15 30 -14 22 2 -4 6 2 2 13 -11 11 -12 23 -18 25 -12 3 6 4 5 3 -2 -2
-7 -9 -12 -15 -11 -6 2 -11 -2 -11 -7 0 -17 28 -11 39 8 11 17 16 6 12 -25 -2
-16 30 -6 47 15 6 9 12 12 12 8 0 -5 7 -3 15 4 13 11 14 10 9 -4 -3 -9 -12
-16 -20 -16 -8 0 -14 -7 -14 -16 0 -14 3 -14 16 -4 8 8 14 9 13 4 -5 -26 1
-39 11 -24 5 8 10 11 10 5 0 -5 7 1 16 15 14 23 14 23 9 3 -7 -26 10 -32 19
-7 6 15 9 15 24 2 19 -15 77 -25 69 -11 -3 5 4 10 16 10 20 2 20 1 5 -8 -26
-15 -23 -32 3 -18 17 9 20 8 14 -2 -6 -9 -3 -10 10 -6 17 7 17 6 0 -19 -9 -15
-12 -23 -6 -20 6 4 14 0 17 -9 6 -14 8 -14 19 2 7 10 11 21 9 25 -2 4 0 10 6
13 6 4 10 3 9 -2 -4 -15 13 -43 22 -37 5 3 9 1 9 -5 0 -6 14 -9 30 -7 23 3 35
-3 50 -22 11 -13 20 -20 20 -15 0 5 -5 14 -12 21 -9 9 -5 12 20 12 33 0 40 8
21 27 -8 8 -8 13 0 18 6 3 10 3 9 -2 -1 -4 3 -18 10 -31 7 -12 9 -22 5 -21
-19 3 -33 -2 -33 -12 0 -6 5 -7 13 -2 27 17 89 22 119 10 37 -15 46 -16 51 -3
7 17 46 13 57 -4 5 -8 12 -11 17 -7 4 5 1 12 -6 16 -9 6 -10 11 -2 15 6 4 11
3 11 -3 0 -5 8 -8 18 -7 9 2 21 -2 25 -8 6 -7 7 -6 4 4 -2 8 -10 14 -16 13 -6
-2 -11 2 -11 8 0 6 7 8 15 5 8 -3 22 -9 30 -12 8 -3 15 -1 15 6 0 6 -4 9 -9 6
-5 -3 -14 1 -21 9 -9 10 -9 15 -1 15 6 0 11 -4 11 -9 0 -5 12 -7 27 -5 36 7
45 13 36 27 -5 9 -3 9 8 0 14 -11 19 -13 40 -13 5 0 7 -4 4 -10 -3 -6 1 -7 9
-4 9 3 16 11 16 17 0 6 -3 8 -6 4 -4 -3 -13 1 -21 9 -8 8 -19 11 -25 8 -7 -4
-8 -2 -4 5 6 9 16 7 41 -8 33 -19 55 -13 55 14 0 5 -5 3 -10 -5 -7 -11 -10
-11 -10 -2 0 7 -4 11 -9 8 -5 -4 -7 4 -3 16 5 20 6 21 12 3 7 -19 7 -19 19 0
9 14 11 15 7 3 -3 -12 1 -16 15 -15 21 1 25 12 9 20 -6 3 -5 4 2 3 15 -3 18
-32 2 -29 -5 1 -16 -8 -23 -20 -11 -18 -11 -20 0 -9 16 15 33 16 23 0 -4 -7
-3 -8 5 -4 6 4 9 12 6 17 -6 9 10 19 39 23 21 3 21 19 1 22 -8 1 -13 -2 -9 -7
3 -5 0 -9 -5 -9 -13 0 -14 10 -1 30 8 12 10 12 10 1 0 -8 3 -11 6 -8 4 3 16 2
27 -4 15 -8 18 -8 12 1 -5 9 -2 10 13 6 11 -4 23 -2 27 4 3 6 11 7 17 4 6 -4
8 -2 4 4 -3 6 2 13 13 17 11 3 22 13 26 22 5 16 4 16 -13 0 -10 -9 -28 -15
-40 -12 -12 2 -22 0 -22 -6 0 -5 5 -9 11 -9 5 0 7 -5 4 -10 -12 -19 -21 -10
-21 19 0 17 3 28 8 25 4 -3 8 0 8 7 0 7 6 4 14 -7 8 -10 18 -15 22 -11 5 4 2
12 -5 16 -8 5 7 8 38 6 28 -1 48 2 45 6 -3 5 0 9 5 9 6 0 11 5 11 12 0 6 -10
3 -22 -8 -12 -10 -18 -13 -13 -5 6 11 4 13 -11 8 -19 -7 -19 -7 0 8 10 8 22
12 27 10 4 -3 10 4 14 15 3 11 11 20 16 20 6 0 8 -4 4 -9 -3 -5 0 -13 6 -17 8
-4 7 -9 -2 -15 -7 -4 -10 -11 -6 -16 5 -4 12 -2 16 5 4 7 16 10 27 7 13 -4 11
-2 -4 6 -13 7 -21 18 -18 25 3 8 -5 20 -17 29 -12 8 -17 15 -11 15 5 0 15 -5
22 -12 9 -9 12 -9 12 2 0 13 2 13 10 0 5 -9 5 -19 -2 -27 -7 -9 -7 -13 0 -13
5 0 12 7 16 15 3 8 10 15 16 15 6 0 8 -4 5 -10 -4 -6 1 -7 11 -3 11 4 13 8 6
11 -7 2 -10 8 -7 12 3 5 -4 7 -15 5 -11 -2 -18 0 -15 6 4 5 11 6 17 3 8 -5 9
-1 5 10 -4 10 -3 15 3 11 6 -3 10 -1 10 6 0 21 13 1 14 -22 0 -12 8 -24 16
-26 13 -4 13 -3 0 6 -13 9 -13 12 -1 23 8 7 11 8 8 2 -3 -6 0 -11 8 -11 10 0
11 5 4 19 -5 10 -7 18 -4 18 3 0 1 9 -5 19 -6 13 -18 18 -30 16 -11 -2 -18 0
-15 5 4 7 26 7 45 0 3 -1 8 -2 11 -2 3 1 5 -10 3 -23 -1 -14 2 -28 7 -31 5 -3
8 0 7 7 -2 7 6 15 16 17 14 3 17 0 13 -12 -9 -23 0 -20 14 5 7 13 7 19 1 15
-6 -3 -14 -2 -17 4 -5 8 -12 7 -23 -2 -13 -11 -14 -11 -7 2 5 8 10 21 11 28 2
8 6 17 9 20 4 4 5 -2 3 -13 -2 -13 4 -21 17 -23 11 -3 24 -9 28 -16 6 -7 7 -5
4 5 -5 16 36 45 56 40 5 -1 6 3 2 9 -3 6 -10 8 -15 5 -4 -3 -10 2 -13 10 -4 9
-1 12 9 8 8 -3 22 1 31 8 9 8 17 12 19 9 1 -3 6 -1 11 4 5 5 3 6 -4 2 -7 -4
-13 -2 -13 3 0 6 14 11 31 11 17 0 28 -4 24 -10 -4 -6 1 -7 11 -3 11 4 13 8 6
11 -8 2 -4 13 10 32 12 16 25 27 30 24 5 -3 8 -2 7 3 -3 20 2 33 12 30 19 -4
20 37 1 52 -15 12 -15 12 7 6 14 -4 21 -3 18 2 -4 6 5 15 19 22 16 7 22 16 18
24 -4 6 3 3 15 -8 16 -14 22 -15 19 -5 -2 8 3 14 10 12 8 -1 11 2 8 7 -4 5 -2
12 4 16 5 3 10 11 10 16 0 6 -10 -2 -23 -17 -21 -24 -25 -25 -30 -10 -5 11 -3
15 4 10 7 -4 20 4 30 17 l18 24 10 -25 c7 -18 10 -20 10 -7 1 10 5 16 10 13
19 -12 62 34 51 55 -9 15 -7 19 6 19 14 0 14 3 4 15 -11 13 -10 14 4 9 12 -5
15 -2 9 12 -4 12 -3 15 6 10 6 -4 11 -4 10 1 -1 4 0 11 1 16 1 4 3 13 4 20 1
6 7 11 13 10 6 -1 10 5 8 15 -2 9 -4 20 -4 24 -1 4 -9 5 -18 2 -17 -5 -17 -5
0 6 9 6 14 16 11 22 -4 6 -3 8 3 5 5 -4 16 5 23 18 7 14 18 25 23 25 6 0 2 -9
-8 -20 -10 -11 -13 -20 -7 -20 7 0 12 5 12 11 0 5 5 7 10 4 6 -4 9 -1 8 7 -2
7 3 12 10 10 8 -1 11 2 8 7 -4 5 4 17 16 27 15 11 17 14 6 11 -10 -4 -18 -2
-18 3 0 6 8 10 18 10 14 0 15 2 2 10 -14 9 -5 15 21 12 3 -1 6 6 6 13 0 11 -4
12 -14 3 -7 -6 -16 -8 -20 -4 -3 3 -2 6 3 6 11 0 73 55 77 67 1 4 4 7 7 6 3
-1 6 6 6 15 1 9 3 24 5 32 3 9 -2 14 -13 14 -25 -2 -22 5 5 15 24 9 33 41 13
41 -6 0 -5 4 2 9 19 12 21 42 5 76 l-14 30 18 -23 c18 -22 33 -21 33 2 0 6 -5
4 -10 -4 -12 -19 -13 -4 -1 37 6 19 6 35 1 38 -5 3 -4 16 2 30 6 13 15 22 21
18 6 -3 7 -1 3 5 -3 6 2 13 11 15 17 4 17 5 1 6 -10 0 -18 6 -18 12 0 5 -5 7
-12 3 -7 -4 -8 -3 -4 5 6 9 11 9 22 0 12 -10 13 -9 8 6 -5 13 -4 16 5 11 6 -4
11 -4 10 1 -1 4 0 10 1 13 6 17 7 39 1 35 -4 -2 -8 2 -8 9 0 8 6 12 13 9 9 -3
12 3 8 23 -3 16 -6 47 -8 70 -1 23 -8 50 -16 59 -19 23 -22 48 -5 41 9 -3 12
0 8 9 -3 8 -10 12 -17 8 -6 -3 -8 -2 -3 2 4 5 -1 17 -10 28 -18 20 -18 20 9 3
25 -16 26 -16 23 1 -1 10 -8 17 -14 15 -6 -1 -11 3 -11 9 0 5 -5 7 -11 3 -8
-5 -8 -1 0 14 6 12 16 24 21 27 13 8 13 25 -1 25 -5 0 -8 -4 -5 -8 3 -5 -1 -9
-9 -9 -8 0 -15 4 -15 9 0 4 5 8 10 8 6 0 10 6 10 14 0 8 8 17 18 19 15 4 15 5
-2 6 -12 1 -16 6 -12 17 3 9 6 19 6 22 0 4 5 0 10 -8 5 -8 10 -10 10 -4 0 5
-7 19 -16 30 -8 10 -13 13 -9 7 3 -7 1 -21 -5 -30 -9 -15 -10 -14 -4 7 6 22 5
23 -9 12 -10 -9 -17 -10 -22 -2 -4 6 -3 10 2 9 23 -4 25 3 4 15 -20 11 -21 14
-7 19 10 4 15 3 11 -3 -6 -9 8 -14 29 -11 4 1 14 -3 21 -9 10 -9 13 -7 11 7
-2 10 0 27 5 39 5 15 3 21 -7 22 -8 1 -21 3 -29 4 -8 1 -12 5 -10 9 3 4 15 5
28 2 22 -5 22 -5 2 11 -11 10 -15 15 -8 12 19 -10 24 11 6 25 -12 10 -14 10
-9 2 4 -7 2 -13 -3 -13 -15 0 -14 23 1 38 13 13 12 14 -32 16 -16 0 -32 -5
-35 -11 -2 -7 -9 -13 -15 -13 -14 0 19 34 34 36 6 0 17 2 24 2 6 1 12 7 12 13
0 5 -4 7 -10 4 -5 -3 -10 1 -10 9 0 9 -5 16 -10 16 -7 0 -7 -7 0 -22 10 -21
10 -21 -3 -6 -8 10 -17 14 -22 10 -4 -4 -2 3 5 15 8 12 20 19 29 16 11 -3 11
-1 -2 7 -15 10 -16 14 -5 27 14 17 14 17 -7 50 -13 20 -13 23 3 33 15 10 14
10 -5 5 -18 -5 -21 -2 -19 19 2 13 -1 30 -6 38 -7 10 -8 8 -4 -4 3 -10 1 -18
-4 -18 -6 0 -10 12 -10 26 0 18 -4 24 -13 21 -8 -3 -20 -1 -28 5 -11 8 -11 9
3 5 9 -3 19 1 22 9 8 21 8 24 -5 24 -5 0 -8 -4 -5 -8 3 -5 -1 -9 -8 -9 -11 0
-12 4 -3 18 6 10 15 16 19 13 4 -3 4 5 -1 18 -5 13 -16 22 -25 22 -20 -2 -20
5 1 28 16 18 16 18 -1 12 -16 -6 -17 -4 -8 13 8 15 8 20 -3 20 -7 0 -11 -5 -9
-11 2 -6 -5 -17 -16 -24 -11 -7 -20 -8 -20 -3 0 5 7 11 15 15 8 3 12 12 9 21
-3 8 -9 13 -13 11 -4 -3 -7 4 -7 15 0 18 2 18 12 5 13 -19 30 -21 40 -4 5 8 2
9 -10 5 -9 -4 -14 -3 -11 2 3 5 -4 12 -15 16 -22 7 -26 20 -8 31 7 5 8 3 3 -6
-6 -9 -4 -11 5 -5 9 5 11 4 6 -3 -4 -7 -2 -12 3 -12 6 0 11 4 11 9 0 13 -28
33 -38 27 -10 -6 -9 45 2 62 3 6 1 14 -5 18 -9 5 -7 11 5 19 14 11 15 13 1 19
-8 3 -15 10 -15 16 0 6 4 8 10 5 5 -3 7 0 4 8 -3 8 -15 19 -27 25 -12 6 -16
11 -9 11 6 1 12 8 12 16 0 8 6 15 13 15 9 0 8 3 -2 9 -11 7 -11 10 0 15 8 3 4
3 -8 0 -18 -4 -22 -2 -17 10 3 9 10 13 15 10 5 -3 6 3 2 12 -4 11 -3 15 4 11
13 -8 11 18 -1 30 -4 4 -6 1 -4 -7 1 -8 -2 -14 -9 -13 -7 2 -10 -3 -7 -11 8
-21 -11 -27 -32 -10 -18 14 -18 15 4 4 15 -7 22 -7 22 0 0 5 -6 10 -12 10 -7
0 -5 5 5 11 23 14 22 29 -4 29 -13 0 -18 -4 -13 -12 4 -7 3 -8 -5 -4 -14 9 -5
26 15 26 17 0 18 5 2 30 -11 17 -10 22 2 30 11 7 11 10 2 10 -9 0 -11 8 -7 23
5 20 5 20 -10 -3 -16 -25 -16 -25 -13 17 2 23 0 39 -4 37 -3 -2 -10 1 -14 7
-3 6 -1 15 6 19 8 5 8 9 -4 13 -8 3 -18 2 -21 -3 -4 -6 -11 -10 -16 -10 -5 0
-1 10 10 22 14 14 18 25 11 33 -5 7 -7 15 -3 19 4 4 0 4 -10 0 -22 -8 -22 5 1
23 9 8 11 12 5 8 -7 -3 -21 -1 -30 4 -10 6 -13 11 -7 11 17 0 25 28 12 36 -7
4 -8 3 -4 -4 4 -7 2 -12 -5 -12 -7 0 -9 10 -5 30 5 28 0 35 -25 32 -4 -1 -5 8
-2 18 3 12 0 20 -7 20 -9 0 -11 10 -6 30 3 18 1 30 -5 30 -6 0 -8 4 -4 9 3 5
0 13 -6 17 -8 4 -9 3 -5 -4 5 -8 1 -10 -9 -6 -12 5 -13 10 -6 17 13 13 15 30
2 23 -5 -3 -11 3 -14 14 -4 14 -11 18 -24 14 -11 -3 -14 -2 -7 3 12 9 15 75 3
67 -5 -2 -6 -11 -3 -18 3 -8 0 -17 -7 -22 -8 -5 -10 -3 -5 5 5 7 0 19 -10 27
-11 9 -14 13 -8 10 7 -3 18 1 25 10 7 8 8 14 3 13 -22 -4 -32 2 -29 19 1 9 -7
22 -19 29 -11 7 -15 12 -8 13 10 0 10 4 -2 16 -9 8 -16 22 -16 30 0 8 -5 14
-11 14 -5 0 -7 -5 -3 -12 4 -7 3 -8 -5 -4 -9 6 -9 11 0 22 8 10 8 14 0 14 -6
0 -11 9 -11 21 0 11 -4 18 -9 15 -4 -3 -7 6 -5 19 1 17 -4 29 -17 35 -10 6
-18 14 -18 18 4 25 -3 35 -12 17 -8 -17 -9 -16 -6 8 4 26 -10 34 -46 28 -5 -1
-6 3 -3 8 4 5 2 12 -3 16 -6 3 -7 13 -4 22 5 12 2 15 -9 10 -12 -4 -15 0 -11
16 4 18 3 19 -6 7 -9 -13 -11 -12 -11 3 0 12 -4 16 -12 11 -8 -5 -8 -1 2 12 8
10 11 16 6 12 -4 -3 -17 3 -28 14 -15 15 -22 17 -34 7 -12 -10 -13 -9 -8 5 3
9 1 16 -6 16 -6 0 -8 5 -5 10 3 6 -3 10 -14 10 -11 0 -26 9 -34 20 -8 11 -17
17 -20 13 -4 -3 -8 -1 -8 5 -1 7 -3 17 -4 22 -1 6 -3 12 -4 15 0 3 -10 1 -20
-5 -16 -8 -21 -6 -26 10 -3 11 -15 20 -26 20 -10 0 -24 9 -31 20 -14 22 -33
28 -23 8 4 -7 -3 -2 -14 12 -18 21 -20 22 -15 5 5 -19 5 -19 -9 -2 -8 10 -19
18 -24 19 -4 0 -7 4 -6 8 1 5 -5 7 -15 5 -9 -2 -19 -4 -22 -4 -3 -1 2 -6 10
-12 13 -9 13 -10 0 -6 -8 2 -14 11 -14 20 1 9 -2 14 -7 11 -5 -3 -9 -1 -9 5 0
11 -19 9 -39 -3 -9 -6 -12 -5 -7 2 3 6 1 14 -5 18 -8 4 -9 3 -5 -4 8 -13 -6
-17 -18 -5 -3 4 -16 8 -28 10 -17 3 -19 1 -9 -11 11 -13 4 -15 -27 -7 -1 1 2
10 8 21 13 25 2 26 -17 3 -13 -16 -14 -16 -8 7 6 24 5 24 -9 6 -15 -19 -16
-19 -16 -1 0 18 -1 18 -16 -1 -8 -10 -13 -13 -9 -6 3 6 0 19 -9 27 -13 13 -15
13 -19 -3 -4 -15 -5 -15 -6 2 -1 13 -6 16 -18 11 -27 -10 -57 -15 -50 -8 4 3
-1 12 -11 20 -9 8 -12 12 -5 9 6 -4 15 -1 19 6 4 7 4 10 -1 6 -4 -4 -14 -3
-21 3 -8 7 -14 6 -20 -2 -5 -8 -3 -9 6 -4 8 5 11 4 6 -3 -4 -6 -13 -9 -21 -6
-8 4 -12 11 -8 17 3 6 1 7 -5 3 -7 -4 -12 -1 -12 6 0 8 -3 9 -8 3 -4 -5 -26
-11 -49 -11 -37 -2 -43 1 -44 20 -1 18 -2 19 -6 2 -3 -13 -7 -15 -12 -7 -4 6
-17 13 -30 16 -12 2 -19 0 -16 -6 4 -5 11 -6 17 -3 7 4 8 2 4 -5 -4 -6 -11 -9
-16 -6 -5 3 -11 1 -15 -5 -4 -6 -13 -7 -23 -1 -9 4 -23 6 -29 4 -7 -3 -13 0
-13 7 0 6 4 9 8 6 5 -3 9 1 9 9 0 8 -4 15 -9 15 -4 0 -8 -5 -8 -11 0 -8 -4 -8
-14 0 -10 8 -16 9 -21 1 -3 -5 -11 -10 -16 -10 -6 0 -7 5 -3 12 4 7 3 8 -5 4
-18 -12 -2 -27 25 -22 13 3 24 1 24 -4 0 -14 -24 -18 -44 -8 -12 7 -22 6 -29
-1 -8 -8 -6 -11 5 -11 10 0 16 -7 15 -19 0 -11 -5 -17 -9 -15 -5 3 -6 10 -3
15 9 13 -9 11 -25 -3 -12 -11 -12 -10 -2 3 10 13 9 19 -2 28 -9 7 -17 8 -20 2
-3 -5 -1 -12 4 -14 6 -3 5 -4 -2 -2 -7 1 -12 8 -10 14 1 6 -2 11 -8 11 -5 0
-7 7 -4 15 8 19 3 19 -14 -1z"/>
</g>
</svg>
