<?xml version="1.0" encoding="UTF-8" standalone="no"?>
<svg
   version="1.0"
   width="1024.000000pt"
   height="1024.000000pt"
   viewBox="0 0 1024.000000 1024.000000"
   preserveAspectRatio="xMidYMid meet"
   id="svg10"
   sodipodi:docname="b.svg"
   xmlns:inkscape="http://www.inkscape.org/namespaces/inkscape"
   xmlns:sodipodi="http://sodipodi.sourceforge.net/DTD/sodipodi-0.dtd"
   xmlns="http://www.w3.org/2000/svg"
   xmlns:svg="http://www.w3.org/2000/svg">
  <defs
     id="defs14" />
  <sodipodi:namedview
     id="namedview12"
     pagecolor="#ffffff"
     bordercolor="#666666"
     borderopacity="1.0"
     inkscape:pageshadow="2"
     inkscape:pageopacity="0.0"
     inkscape:pagecheckerboard="0"
     inkscape:document-units="pt" />
  <metadata
     id="metadata2">
Created by potrace 1.16, written by Peter Selinger 2001-2019
</metadata>
  <g
     transform="translate(0.000000,1024.000000) scale(0.100000,-0.100000)"
     fill="#000000"
     stroke="none"
     id="g8">
    <path
       d="m 5166,9865 c -110.3676,-28.2958 -141.1593,-84.6446 -100.5,-68.875 56.8153,112.8734 18.7032,-76.7012 -99.625,2.25 -69.4188,-23.5091 -221.7565,-6.8329 -165.875,6.625 10.4664,-71.2091 -9.978,-10.2675 -77,1 71.573,72.9386 174.6867,-69.6691 25,46 -46.2971,-13.2187 -220.8122,26.9206 -138,-7 113.3007,-34.0491 -513.8381,-220.9039 -186,-92 84.778,-60.912 -29.3939,-8.0231 -80,-65 -70.7995,-8.7311 -150.148,-44.1941 -108.5,-66.125 -47.86,-48.9061 -161.8562,-163.8744 -128.25,-107.625 -71.8109,19.9097 -217.9137,34.592 -116.25,-27.25 39.3267,-47.2349 -156.8576,-45.8334 -77.875,-53.25 85.1265,48.1548 -70.6197,-11.8773 -20.125,24.25 -7.0314,-60.8048 -325.428,-229.7596 -232,-197 289.9226,41.3859 211.7794,78.7225 149,60 -37.8255,46.505 75.6485,-8.7569 -5,-41 -150.9725,-58.1357 -100.3136,-104.0258 -111,-109 -60.6387,-100.9794 -172.5888,-79.2407 -114,-16 82.5733,-50.5159 -60.5778,-165.2969 -32.375,-136 -107.3321,74.6911 42.045,-70.8879 -120.25,-101.625 100.731,105.937 -77.9814,-107.4133 -28.375,-10.375 101.836,-66.21 24.5099,-220.4746 -1.375,-135.25 -38.901,198.6338 -91.0353,-166.8186 -77.625,-23.75 -141.5648,-147.4957 -185.408,-277.7101 -65.5,-190.875 -16.606,-42.1394 -83.6058,-212.6974 -58.5,-157.125 70.767,-16.381 40.2058,153.9766 -11,30 27.7056,46.9781 89.3742,265.3189 24,120 -65.7508,-116.0169 -67.3754,-227.5827 -89,-213 24.6418,-79.9413 -76.9074,-171.3851 -64,-78 4.383,-108.1845 69.6922,-39.737 22,-86 41.94,-151.2723 103.2535,-236.7276 -11,-170 -96.031,8.5636 -82.7118,-151.4288 -82,-83 -22.3907,-25.98 74.2609,-60.3644 1,-111 55.873,-65.1887 -83.3892,-89.6875 -59,-51 -36.6596,-80.6647 -51.5291,-153.0326 19,-93 -207.5451,-276.6132 -99.9948,-125.0983 -47,-60 -13.8797,-86.1207 -107.8039,-0.076 -8,-76 -18.2173,-51.0481 -127.7029,-73.4295 -16,-189 41.314,-101.2941 20.9847,-143.9703 -25,-145 -51.5722,-178.9479 64.8368,-80.5419 -43,-222 -61.873,-74.0236 54.3187,200.4666 -42,-27 56.1992,-38.3849 67.9925,-181.3452 14.625,-165.875 -16.3667,73.2444 18.8283,0.2069 -12.625,-95.125 47.9553,10.6358 -28.849,-245.5989 -23,-167 51.5037,-9.5613 -101.2623,38.0469 -20,-40 -52.9072,-58.8271 -126.3965,-182.6524 -17,-120 54.8091,-181.0948 -26.6016,-335.872 -2,-226 40.1328,-12.3207 12.8299,-206.8926 -7,-107 96.7354,-91.0936 -31.146,-25.35 32,-104 -50.8905,72.7484 -47.0964,-94.2777 5,-122 63.2963,-94.2896 113.5502,-228.957 32.5,-139.75 -20.7812,-52.8931 37.9381,-163.8707 2.5,-164.25 58.5035,63.5658 -110.8127,-329.2265 12,-131 -68.9078,-98.9513 -16.8423,-156.5852 -1,-148 -3.7599,-82.8258 -70.5201,-117.0499 -17.5,-118.875 25.6361,-119.0471 12.7811,-242.0359 21.5,-116.125 -30.2674,-57.8833 56.2342,-307.0315 11.375,-179.75 -21.1666,-90.8398 -10.2337,-228.2496 15.5,-128.5 60.168,-29.2514 135.3906,-134.8318 35.125,-96.75 -87.8471,-35.0796 38.5864,-77.9657 11,-82 -110.9069,-124.9201 -55.6131,-180.1074 -3.625,-118 65.8821,-73.8659 52.4328,-244.1616 -11.125,-161.625 30.5528,-65.7559 107.9878,-175.5969 39.75,-108.375 -41.469,-26.0577 38.9681,-220.3726 37,-164 -55.2472,-16.3312 -7.9588,-151.4835 -12.25,-122 -28.5111,16.9109 19.1063,-152.4391 8,-105.5 43.4225,-118.0383 -9.3486,-336.353 20.625,-258.5 68.1645,-51.633 13.4547,-76.4562 -45.25,-81.75 6.7078,-55.7369 -6.6574,-244.3315 -2.125,-154.25 40.7286,-44.8367 55.0233,-268.467 16.2812,-171.4844 C 2881.5521,2905.6225 2883.2858,2950.5907 2900,2875 c -42.8573,-72.7245 -11.5624,-219.4874 30,-164 13.063,-101.2181 -23.6713,-116.7274 -55,-87 15.2196,-91.3805 -13.606,-257.6165 20.375,-145.875 72.7001,-141.428 -11.7045,6.3554 -2.375,59.875 -43.369,27.7432 8.8352,-110.3501 -13,-178 61.805,19.7874 -48.7726,-126.5579 -70.168,-95.4859 3.3096,-4.0474 155.5198,-77.5606 15.543,-59.3266 -19.8891,-35.549 -33.9518,-193.3226 -60.375,-155.1875 -19.9695,-9.2073 10.936,-317.6468 -21,-227 -64.7077,-44.4566 -5.0589,-55.0053 26,-84 -17.1154,-54.8169 30.3431,-75.5475 -3.5,-114 53.6797,-31.4252 103.6382,-269.8291 161.875,-48.5 52.8991,59.1466 192.6152,71.7218 101.625,54.5 57.1744,-76.2612 109.4875,-50.8855 129,-45 43.7403,58.752 177.2808,119.8547 155.25,117 -79.0452,54.6733 -106.9175,100.4068 -115.6562,-20.6406 -9.5861,64.6171 112.1489,104.376 78.0312,80.3906 58.571,-10.5883 40.5505,-108.4258 52.125,-72.625 -59.8829,-41.9116 112.0436,-29.0025 78.25,-87.125 17.4974,11.1951 175.3276,96.0995 48.375,43 46.9667,54.1103 249.2806,67.8351 169.625,75 10.5965,23.2137 33.9263,24.8227 -10,199 -6.3872,84.9156 -43.669,297.9515 -28.375,244.875 39.4847,16.3905 -31.2062,109.8281 15.375,91.125 -26.4562,79.0533 31.9872,399.1905 8,285 13.8076,60.4854 -9.9692,284.5015 11.75,187 -1.2321,27.9815 17.9934,243.3384 19.25,158 -10.7475,68.1691 -19.521,275.5106 9,235 37.7582,89.0847 54.2576,444.1828 41,359 -23.7644,60.538 -49.2511,196.3165 2.125,181.625 -60.8634,-280.0705 509.0132,2402.217 49.875,261.375 33.1727,169.1425 27.1854,440.3735 31,313 35.0156,-23.9974 -14.5243,58.8004 0.5,99.625 27.7387,-62.321 48.6354,442.4372 35.5,210.375 -63.7755,255.5914 37.5266,-144.4936 15.375,215.875 25.7329,81.4803 51.0287,225.5414 24.625,167.125 -39.7957,41.8565 -68.1152,218.5232 -24.375,154 -32.8778,218.4544 7.2687,387.0549 -1.625,296 -31.5059,42.7558 -17.9382,182.9651 27,117 38.4805,85.5234 -139.1175,304.8015 -12,183 -22.5706,29.8473 -4.5428,146.5582 -6.066,102.6418 68.0549,-2.4312 31.4353,208.6865 40.566,152.4832 2.1918,20.3008 35.8635,204.1689 51.5,149.875 33.1706,51.9058 83.6219,177.6349 23,114 15.0198,49.5838 -17.0142,346.5107 -2,249 31.099,22.0003 73.0412,193.45 33.375,142.5 -29.551,50.855 -15.3034,204.3437 -4.625,136.125 21.4234,13.7493 56.4641,151.0802 34.625,122.25 21.8597,124.703 67.0246,386.8086 51.625,274.125 11.9703,128.9203 39.7234,517.9216 31.0156,362.4688 48.9685,99.2999 32.293,273.9478 43.7344,230.1562 29.2335,-35.4175 40.5733,-90.6553 33.25,39.375 11.5539,79.1992 139.954,273.6332 109,202 -47.4281,26.0572 -17.9028,94.4048 25,89 37.843,38.4481 84.805,75.6743 51,104 12.2214,67.5439 150.9249,267.0578 86,201 117.608,115.0242 -5.6105,-52.5321 36,80 -33.8785,-10.2145 -44.2456,119.4287 55.875,77.75 108.1024,61.156 179.7836,34.7584 127.125,76.25 -24.8954,65.5493 300.2356,289.5352 198,166 64.6422,92.4509 160.0809,217.0555 129.375,193.375 43.1923,-9.3364 174.879,-162.9074 147.625,-147.375 115.851,-0.2395 131.8457,-98.8188 43.625,-55.125 152.8886,84.0516 218.3673,29.6804 59.375,-15.875 127.2946,-14.3818 230.6802,103.3579 139,50 113.5778,-7.3297 225.4983,100.1766 167,32 117.9314,-49.7957 340.9201,-55.0578 263,-71 -142.991,114.7098 11.0108,48.0581 -26,62 101.7532,-22.6233 -136.2674,-81.9701 -50,-90 158.7457,-8.0699 62.5396,-66.9361 52,-94 26.6143,-128.5143 66.9122,-225.3335 73.25,-208.5 67.2999,11.6743 152.4337,-63.8464 106.4546,-82.2004 1.875,-77.3202 157.5242,-170.065 96.2954,-137.2996 93.6022,-49.4547 286.5571,-50.1099 203,-46 12.8971,4.2782 113.981,34.4049 179,-15 -42.5271,-21.4441 369.3068,-34.3641 190.375,-14.75 163.99,2.8175 241.3883,-36.1999 169.125,-29.125 37.2522,7.6476 204.0197,-54.2704 185.5,-42.125 48.5205,7.1851 208.5875,-16.148 145,-14 76.937,-3.7696 329.7859,28.1135 209,24.5 35.3661,-49.3622 271.9853,13.9782 186,20.5 112.5204,7.2274 217.3653,9.5791 142,27 159.9143,-22.1164 126.1335,69.4468 79,128 43.5527,-80.2703 5.1362,111.7703 52.125,136.875 1.7042,148.6485 -12.6844,226.7664 -57.125,132.125 -49.704,30.5958 -206.4902,241.4952 -126,156 35.3582,-28.4423 21.6134,-25.5271 -85.75,59 -154.2326,20.0418 61.5352,-197.1708 -108.875,-90.375 71.9971,38.0002 111.969,135.3641 36.625,98.375 -60.6169,31.0793 -102.5995,-165.3603 -83,-84 114.642,52.4581 -85.7796,-106.1258 -58,-67 11.4711,-91.0471 123.0509,-13.4366 2.25,39.25 18.314,8.6797 -138.0881,105.848 -138.25,92.75 94.1092,29.2786 -46.327,-18.393 -112,0 -141.7426,89.5561 -120.8297,124.2104 -88,107 48.2668,0.745 -70.1808,71.2707 -45,115 -42.0421,63.4376 -69.3847,109.184 -59,63 -58.6033,-49.6464 -168.0099,33.7048 -103.875,59 25.5682,9.831 -119.6075,219.9692 -85.25,137.625 -90.9042,-54.9079 -239.7984,33.3076 -177.875,37.375 38.3637,112.5507 -62.3613,131.7886 -50,76 23.2763,-19.3736 -32.9853,-62.2324 -79.875,67.25 -88.0173,53.7532 31.9187,100.161 -58.125,72.75 -118.7153,-9.7715 -360.6248,88.206 -202,39 42.3549,79.8831 -133.5175,185.5451 -62,142 16.3083,52.5477 -150.6671,96.0507 -140,56 -47.0911,46.169 -197.4652,82.3935 -133,38 9.4557,6.4219 -118.5729,46.8834 -85.75,42.25 47.411,-5.2978 -177.3167,10.803 -158.25,-6.25 -95.4139,69.0842 95.8254,14.7444 -116.25,62.875 18.75,13.4933 -217.6056,61.5029 -143.875,47 -74.1501,19.0279 -97.5372,4.2868 -113.875,11.125 z M 2944,3314 c -77.5024,-16.4865 139.9079,-303.0861 23.5,-180.875 -48.7479,4.6438 -107.9912,-158.9742 -45.625,-155.5 78.8886,-33.4216 -48.3029,-259.4264 -13.875,3.375 19.7332,79.4664 -39.5056,348.9164 -4,246 44.2112,13.2543 -23.4878,156.6849 40,87 z"
       id="path4" />
    <path
       d="m 5032,5174 c -30.7582,-45.2194 36.6631,-53.963 -136,-12 -82.269,-50.8529 -142.7136,-53.1696 -37.375,-32.75 C 4722.4942,5024.1708 4724.9945,4935.2465 4733,5056 c -94.9231,95.8011 -147.1016,-95.2312 -138.75,-33.125 107.2307,22.3265 -36.1217,-68.0741 -0.25,-32.875 -109.2559,62.5242 -168.1775,13.8852 -104,-49 -8.9461,-71.9561 -18.3555,-203.6046 -21,-111 -210.4887,56.3954 -254.3867,-28.7458 -135,-66 37.2727,31.2084 -11.1006,-88.872 42,-90.125 -29.9868,58.6399 -1.5204,20.5432 -42,-34.875 -97.846,5.3079 -3.4032,-125.3594 8,-83 -10.3991,-6.6931 16.0998,-134.1757 -20.75,-102.5 -104.5404,25.8517 -99.928,-140.8291 -27.25,-93.5 0.109,-117.5224 -85.149,-325.8231 -35,-204 -50.145,-48.447 -157.126,-178.2873 -132.875,-130.625 3.1344,-57.8713 31.6502,-161.4706 -33.125,-128.375 -67.632,25.099 42.7744,-20.8195 -30,-120 37.4316,84.8292 -97.4114,-200.5993 -0.5,-41.5 46.5344,-68.2332 109.0399,-158.929 93.5,-116.5 -60.1781,-48.6995 56.2542,-24.6184 56.875,30.125 9.7081,-62.0498 -16.1276,25.7368 -15.875,-102 -35.0172,-107.6783 -143.4978,99.7628 -127,31.875 26.8861,63.9675 19.8733,-48.8139 -57,48 93.7993,-81.0572 -132.6565,56.8136 -81,-85 -74.2953,57.4721 -185.9834,-68.6287 -125.1805,-115.8206 -10.7463,-129.6161 44.2237,-232.096 37.4305,-123.0544 15.6538,-32.7169 95.5496,-114.9835 74.75,-49.125 122.1235,52.0589 208.384,-25.6056 181,-6 17.7227,75.792 159.0766,133.0164 166.625,54.75 71.439,0.8682 167.2161,117.5027 126.375,60.25 160.0706,60.8705 47.2628,71.7076 -26,20 110.2007,176.7882 143.0073,115.7457 98,71 -17.6994,33.582 129.2109,125.8745 31.625,3.25 33.274,6.0435 -5.1629,170.1419 60.375,126.75 128.2794,32.9988 89.4283,142.0744 80.625,96 32.6666,-14.5534 50.9664,148.1575 61.375,107.375 2.7014,18.2643 137.1135,-16.032 42,30.625 1.184,63.8307 30.2976,335.6264 24,179 33.5168,98.7445 72.8629,229.4926 21.625,109.25 36.4402,64.7591 175.4392,151.4694 116.375,129.75 -193.451,-57.4569 71.8451,80.1682 14,14 -15.8853,209.0793 -82.1779,-12.7902 20.875,11.875 31.6262,-33.359 70.6529,141.5492 79.125,75.125 -90.87,-1.0785 -39.4661,83.0313 -2,86.125 -102.5268,7.3695 112.9808,107.6183 -64.875,77.25 97.4424,42.0591 235.1627,91.5734 165.875,90.625 -19.1787,32.6079 153.7023,0.2774 82.5,-17 -252.3473,-107.2323 -7.2725,-20.6394 34.5,28 96.5183,8.906 144.4619,-35.0594 97.625,-26.625 -99.879,113.9277 -81.3988,12.2295 94.375,14.625 -208.1038,0.2456 117.2868,-16.6669 42,-49 0.052,-37.5648 42.0668,-57.4061 54.5,-83.25 57.7165,-115.4461 100.1096,-222.8666 71,-146.375 16.0464,-12.484 257.1136,-270.839 151.5,-149.375 -22.232,-81.5185 9.0887,-156.0747 40.375,-77.625 37.0948,-62.9055 13.3756,-103.7345 17.75,-137.25 29.6241,-52.8227 13.3477,-209.8599 34.75,-147.375 72.1407,-38.8433 15.8293,-197.2996 25.625,-99.25 14.035,61.9219 73.472,-52.4781 70.5,-73.5 7.1426,-92.8453 37.9468,-48.4951 64,-217 68.841,-57.2445 133.2244,-215.3107 70,-125 -14.399,-74.9976 57.6406,-211.0621 33.125,-129.25 -86.5601,-22.5627 80.2977,10.431 52.75,-132 73.9374,-4.8131 190.3001,-128.959 150.125,-115.75 34.7099,-34.8468 67.8133,-123.9629 82,-71 29.8229,-57.2791 -37.5561,-152.941 -11,-129 -147.5948,32.6832 -220.8919,-86.4181 -102.375,-76.125 118.24,-55.9873 77.1235,-193.3831 38.375,-104.875 4.7508,-31.6129 -0.4833,-117.2523 17,-102 4.7505,-53.8404 -8.742,-169.2797 -5.125,-143.25 90.4744,-39.5782 111.3142,-208.7594 17.75,-107.75 28.6738,-15.4591 -30.9079,-136.2814 -21.625,-88 114.3852,-93.0593 -71.8437,38.9743 18.875,-93.25 -119.1979,-33.0645 33.5465,-11.5517 0.125,-42.75 -62.9347,-24.7102 -177.5105,-80.8651 -67,-95 12.5465,-44.8848 -81.1238,-203.0256 -20,-164 -10.5483,37.8821 14.041,139.5823 -39,-22 -27.618,67.7066 -60.5202,-179.4467 -31,-144 -104.2669,-51.0127 -263.3924,-139.3337 -145,-101.875 87.6863,35.1307 -120.9289,-43.1436 -43,-54.25 66.1771,75.1265 -117.1128,-81.4497 -71,-41.875 18.1763,-3.4482 31.4371,-16.3491 -48,-56 -70.7215,-56.9245 -227.9214,-73.6816 -187,-103 -101.2485,-8.0561 -168.3283,-2.1413 -120,-76 -128.165,-70.5893 151.1983,-76.0781 -173.875,-86.875 C 5370.1901,954.10136 5169.8736,912.40023 5224,938 c -71.8313,64.2869 -274.1002,25.42267 -194,2 35.9251,24.25508 -211.331,85.1142 -135.875,44.25 C 4850.6031,947.09302 4720.7942,884.1069 4674,957 c -12.7506,74.5556 -452.8229,45.5653 -264,83 -126.0543,16.2369 -282.8229,108.4376 -194.75,66.125 -29.5575,-90.4122 -176.9843,3.4199 -99.25,17.875 7.7812,19.6497 -138.9909,-3.18 -137.75,24.75 -123.0934,-46.0349 -96.2551,-6.9795 -288.25,-1.75 -74.0448,-37.5074 -156.537,28.8137 -110,38 -31.9772,90.01 -43.8864,16.9047 -24,13 25.2642,-43.0332 -35.6093,-42.9994 -70.25,-39.25 -62.4823,-21.1157 -96.5031,-131.2212 -33.7649,-119.7479 60.192,-29.1863 173.0586,-115.30003 105.6399,-90.3771 -1.4984,-10.91745 212.0088,-4.82299 155.375,-20.625 50.0771,9.61862 242.3612,18.43883 177,10 38.5249,14.61747 172.4776,-60.82886 131,-8 86.8419,29.83774 136.0407,-7.8768 134,4 138.0427,-47.49636 301.2356,-64.49953 235,-43 45.488,32.61055 199.7896,-20.22426 102,-55 -56.6519,3.84733 97.1089,-31.54115 121,-35 149.2849,-47.09022 -59.9017,-106.49083 171,-35 -52.9645,-87.61116 264.691,-57.17084 169,-39 17.443,-42.44265 176.2339,-94.60959 108,-81 185.7036,-53.56355 313.778,-79.22508 200.375,-23.125 174.7135,-23.72547 342.7346,31.11374 268.625,17.125 -112.3237,72.47786 230.0532,-7.11351 64,59 231.1387,-21.05932 212.0013,18.40126 135.375,21.375 -96.296,-66.94146 -43.4461,37.18103 21.375,7.125 32.6015,-4.82652 252.2965,102.22405 100.25,42.5 -49.3948,15.34072 168.8803,121.90067 110,85 71.7896,13.18812 29.855,136.38771 47,53 39.908,-29.21543 49.5436,102.9729 62,37 92.4593,-97.48772 87.4603,52.7731 50,55 100.9594,-115.22314 88.1563,-21.15132 50.875,-0.625 111.6442,-55.87806 291.1911,36.1098 184.125,80.625 96.5647,47.3415 259.8969,203.607 154,195 72.4242,23.6055 193.8611,54.1269 80,51 87.1965,69.17 185.2675,264.5265 116,182 -28.595,83.9899 79.552,194.2724 75,142 26.2802,34.8795 94.8896,272.6784 103,199 38.559,183.4522 18.1583,77.646 73,259 -18.5953,51.5329 68.7923,221.058 38.875,127.875 -69.8569,266.2566 -1.4381,229.8048 -61.875,267.625 23.7298,82.5659 3.0191,243.1959 22,169.5 -49.1625,-35.3952 110.711,91.9854 36,53 -62.8177,28.2247 42.6934,147.6312 -111,104 101.9004,103.3788 15.7793,14.6188 35,177 21.9237,89.4691 -27.3168,228.5425 -66,163 -22.7561,-1.3725 -110.4299,35.6525 -64,104 27.9959,60.0566 18.1408,96.1098 11,88 -15.2637,98.73 -64.5845,228.7359 -26.875,240.25 -56.2959,57.2529 -195.0533,36.4336 -78.125,65.125 51.3212,4.129 13.6453,172.2985 22.625,128.5 -37.914,33.7063 -71.1344,246.1012 -65.625,191.125 -28.499,49.5194 -119.3576,356.054 -89,229 -31.8961,-27.1043 -81.8247,20.2496 -75,93 3.5427,118.2576 -115.169,169.8741 -77,197.75 -76.0412,159.0289 -196.013,260.3627 -160.5,220.75 -12.0303,52.9847 -225.2422,210.975 -149.5,142.5 -81.5688,85.8853 -314.4012,200.2635 -245,155 -11.1196,-36.9316 -192.7588,-18.5289 -153,21 -30.0063,22.9192 -184.3835,65.252 -128,48 -141.5439,54.5215 -173.9062,80.4694 -143.125,64.75 -140.1658,8.4645 -338.626,18.9193 -229.875,7.25 -186.3395,60.9366 -162.6994,-15.0811 -91,-15 25.8005,-124.9206 -110.6303,182.7913 -58.625,38.125 z"
       id="path6" />
  </g>
</svg>
