<?xml version="1.0" encoding="UTF-8" standalone="no"?>
<svg
   version="1.0"
   width="1024.000000pt"
   height="1024.000000pt"
   viewBox="0 0 1024.000000 1024.000000"
   preserveAspectRatio="xMidYMid meet"
   id="svg24"
   sodipodi:docname="c.svg"
   xmlns:inkscape="http://www.inkscape.org/namespaces/inkscape"
   xmlns:sodipodi="http://sodipodi.sourceforge.net/DTD/sodipodi-0.dtd"
   xmlns="http://www.w3.org/2000/svg"
   xmlns:svg="http://www.w3.org/2000/svg">
  <defs
     id="defs28" />
  <sodipodi:namedview
     id="namedview26"
     pagecolor="#ffffff"
     bordercolor="#666666"
     borderopacity="1.0"
     inkscape:pageshadow="2"
     inkscape:pageopacity="0.0"
     inkscape:pagecheckerboard="0"
     inkscape:document-units="pt" />
  <metadata
     id="metadata2">
Created by potrace 1.16, written by Peter Selinger 2001-2019
</metadata>
  <g
     transform="translate(0.000000,1024.000000) scale(0.100000,-0.100000)"
     fill="#000000"
     stroke="none"
     id="g22">
    <path
       d="m 3879,9793 c -52.5282,-46.8575 -164.2789,-46.7191 -122,-36 -73.0784,14.9006 -224.5103,-84.2899 -213,-70 -9.7045,-8.0126 -267.121,-12.6226 -171.25,-19.75 17.2667,-65.1067 -115.9184,-119.5129 -55.75,-64.25 -13.5446,5.6371 -86.2851,-14.7807 -71,-51 -64.6825,-13.333 -196.2512,-40.3744 -121,-59 -19.4642,-23.0434 -102.9791,-53.4585 -75,-38 -26.5457,-13.6608 -147.4542,-60.7539 -105.5,-39.5 51.0305,53.2544 2.3494,-76.1046 -31.5,-60.5 -100.0839,26.8367 -221.6192,-119.2462 -187,-129 -23.264,28.3347 -151.0992,0.9476 -86,-49 1.1092,-85.7436 -35.2247,-38.7294 -60,-57.25 11.5415,-41.6734 -60.486,-117.8421 -93,-127.75 96.3919,-62.9737 -371.1304,-56.1178 -177,-97 75.6836,-10.2401 -294.8307,-93.8359 -170,-93 -31.151,-39.6859 -145.7474,-118.3275 -102.875,-95.75 C 1970.6132,8617.5725 1810.3382,8467.1942 1861,8513 c 27.8353,-56.209 -75.7297,-212.3222 -75,-141 -76.3233,-85.2733 -185.3302,-112.9703 -133.625,-103.5 41.8643,-65.1709 -147.6915,-181.5486 -98.125,-133 -20.646,-134.268 44.2149,-211.7437 60.75,-109.5 -81.1051,-61.7581 -93.1977,-137.006 -78.5,-21 100.6007,-65.0065 40.4541,-175.7807 -18.5,-140 20.1025,-19.4966 -9.4386,-91.9988 -31,-104 -37.1897,165.1361 -20.8349,-250.5907 15.875,-132.7344 -70.025,109.243 -59.1803,95.6886 -52.875,50.7344 -144.2457,-51.8543 -47.0737,-67.9751 -26.75,-100.5 79.287,-90.5252 58.2462,-215.9971 29.75,-135.5 -63.2465,40.0121 -62.8086,-95.0513 -84.25,-43.875 -29.9415,-142.5279 -76.5246,-375.5307 -26.75,-223.125 95.1187,6.3926 186.4571,-271.6865 117.125,-164.25 -70.1053,66.2905 -65.0336,31.0649 -78.125,-81.75 -37.3939,-117.685 -117.7718,-107.8117 -63,-94 -7.4204,115.5687 -3.9181,58.1451 -30,-41 179.5954,23.37 165.1887,-8.3782 82,-36 -173.8085,8.1118 -207.1482,-62.3796 -65,-63 142.2761,-94.1662 -168.1598,62.7797 -0.125,-133.375 33.9027,-113.8445 -2.8155,-152.2258 5.125,-84.625 -93.0891,-64.0836 77.0878,-156.3113 81,-96 -65.5781,47.1468 -133.1436,-22.3097 -117.9219,1.6719 C 1285.9987,6244.0015 1288.6158,6264.4665 1251,6268 c 45.2567,-82.8816 83.8472,-36.8207 19,-125 -33.1027,-109.2866 54.7267,-189.5261 11,-156 -107.2088,-10.0592 196.7366,-205.0848 -11,-224 143.3481,29.0796 -45.3808,0.5557 9,-60 -29.6686,117.9918 -88.9912,-84.5842 -54,-2 46.969,-38.2125 47.3202,-278.6733 47,-206 114.6741,44.3864 97.1078,75.1923 39,103 215.7823,14.8791 203.5913,-42.3702 96,-146 12.7664,-1.5334 163.8068,-175.0362 58.875,-118.5 -135.0816,66.9876 -117.6894,-109.74 -42.875,-88.5 34.4842,14.8511 -24.4797,-92.0119 -7,-93 -23.4164,-6.5332 -68.7573,-36.8478 -54,-72 6.096,123.5906 -42.2333,287.9311 -9.5,209.25 130.2056,-90.4636 -28.335,-197.2271 -18.5,-56.25 -23.1069,-49.4649 -3.3531,-129.0606 -7,-147.75 14.7949,-137.6948 147.3396,-570.4703 52,-206.25 93.4343,55.3378 181.4145,-80.196 46.125,-91.125 -169.5636,-19.2898 -10.3076,-287.9315 -55.125,-52.875 12.6473,92.8971 24.4337,-120.6123 25.625,-94.25 86.8853,-83.4425 -64.7658,-58.9021 -38.625,-57.75 -26.3347,-33.693 82.2703,-242.2373 61.75,-152.75 35.1957,-135.1415 11.8157,-154.7687 21.25,-115.25 13.0093,-46.3749 94.2322,-6.6392 -76,-76 119.4947,-96.5197 -34.1168,-112.4425 7,-99.75 81.8671,-44.3566 144.508,-1.8729 74,-75.25 48.0306,-61.56 -45.9556,-225.7666 24,-154 26.2359,-45.5997 20.6567,-220.9175 -9,-160 135.0489,-106.9947 156.1637,57.6507 90.4531,-127.6875 64.1997,-68.6924 96.3722,-159.455 92.5469,-135.3125 164.9158,5.7705 122.903,-202.6802 12,-95 53.8402,-66.6734 34.9668,-296.214 85,-207 66.5546,61.3455 14.5491,-214.7592 -20,-145 86.7568,65.6326 -73.182,1.8217 -15,-19 -45.5991,99.1349 -61.5437,199.3818 -26,143 -92.5266,89.745 29.6483,-228.3101 14,-190 20.1704,-34.0843 97.8377,20.9387 89.5,17.375 70.5648,-123.129 183.8717,-126.5299 83.5,-143.375 -102.0177,-220.5487 43.1884,29.6914 36,-118 60.4144,-46.0675 -55.8902,70.1839 -47,-20 6.4861,55.5652 141.9851,-125.3382 8,-43 41.397,-136.631 95.9805,5.8784 66,-45 65.9751,124.7047 96.7324,-47.5141 41,-31 -112.4537,-101.5427 80.0048,-138.1803 60,-69 -149.2552,-0.9392 -41.4668,-155.4401 -10,-97 21.7719,-120.4212 29.7668,96.7231 79,-36 40.4959,-29.429 86.1999,-9.9948 55,-75.75 -9.2814,-58.6732 34.7906,-132.9837 51,-119.25 -0.9262,-13.9726 -77.397,86.079 -118,89 20.5451,-35.7916 51.5833,11.018 64.25,-65.625 0.4482,-153.1777 43.424,-199.4535 56.75,-105.375 138.3279,41.0049 191.6793,-9.7156 75.5,-42.5 2.0707,-62.7364 169.2553,-134.9024 107.5,-99.5 74.2882,-16.5258 233.3016,-168.8277 128,-106 18.0211,-56.016 153.6484,-219.225 129.375,-101.75 0.01,-16.1252 16.9366,100.2054 62.625,43.75 -167.7716,-17.9457 126.2816,27.8725 116.625,11.375 -50.6039,-93.6704 98.9398,-206.655 -18.5,-97 -134.8041,-37.0687 -92.0796,81.1449 -4.125,19.625 18.1432,101.3152 108.1343,-46.5233 94.625,-47.875 -10.6129,-7.6092 -15.1658,-117.2048 -95.625,-65.125 -37.8614,-48.5358 219.8809,-271.8751 98,-104 -34.7492,-40.5985 99.4752,-137.8074 87.75,-150.125 -83.4806,34.5041 160.9871,18.3049 161.25,-9.875 91.0963,141.4424 -100.9421,183.8211 -58.125,84.625 -68.7693,-8.1238 -217.2104,126.4289 -101,14.25 -17.8648,41.7055 -51.9022,27.3478 -69.875,68.125 -89.434,88.2841 4.5198,83.2027 -30,66 -183.9158,115.3147 -6.1413,-6.9085 89,-24 19.4121,-56.1232 203.2118,-209.5141 117.375,-83.625 46.7704,7.9756 205.9511,-23.6356 99.625,-40.625 182.7982,-323.5683 68.2608,-188.781 22,-112.75 -55.6643,-54.4223 204.2625,-159.8603 157,-94 -81.4944,-91.0759 135.45,7.3775 120,33 -108.9412,7.1587 -4.9858,-29.6132 20,30 -44.9448,-128.2445 2.0909,-126.285 -24.375,-166 44.4041,53.4817 123.1095,-109.1924 118.375,-91 -58.8163,174.8758 73.2145,144.9823 109,9 20.4386,10.4401 27.6919,-56.59662 61,-30 34.1698,-37.36795 147.2338,-18.2808 149,-61 49.7328,-107.16417 152.9564,-114.2784 147,-12 146.1711,-1.22207 141.7744,-106.10737 194,-45 -1.9667,-47.56129 204.1366,-88.78642 149,-48 107.6424,129.44339 -6.8489,185.3343 -4,97.5 -79.1615,-1.03923 15.5037,42.5883 -56.5,39.875 17.9207,5.992 107.2567,-88.84517 84.5,-39.375 54.0704,-36.13121 3.5018,-125.75317 57,-54 -112.7503,-40.67768 148.6277,40.67282 84,-56 -37.2218,-29.68445 175.8032,15.91536 119,-53 1.2555,4.17236 -65.848,-9.43494 -63,37 -18.689,-6.71014 -112.5219,178.2335 -87.625,97.25 74.3582,-9.01226 253.368,-73.9133 150.875,-54.875 55.5035,-34.89962 7.2753,-179.29681 49.75,-81.375 45.3616,26.99539 175.9613,73.95075 125.625,24 75.3627,65.79237 191.9523,50.32271 175.375,-20 57.4756,-10.99568 65.2939,-93.84303 43,-60 7.7473,-138.62429 -188.3899,-28.87679 -145,28 54.9308,-73.37414 255.5141,-101.92764 175,-102 74.8292,40.37728 97.7037,103.91154 140,45 38.1511,72.36078 150.3613,-24.72969 142,54 119.5781,9.28479 85.8446,-64.03634 18.75,-45 49.9508,13.59158 227.5858,-18.36279 61.25,34 93.0784,67.76447 174.3058,4.87206 108,13 122.8515,48.87759 193.118,90.05934 103,4.375 280.1161,38.531 42.5835,-3.46957 230,21.625 116.8861,3.25054 61.4328,61.94531 -11,50 93.4203,-37.43214 243.3984,-68.41514 178.125,13.5 -19.0219,19.96961 264.3104,138.83772 174.875,121.5 24.2538,-25.25201 111.0672,150.0213 76,10 24.3916,-31.23183 219.5031,206.1085 130,115 124.6736,4.0276 233.0192,80.8669 225,65 -145.7574,1.5494 -68.0369,69.8044 19,40 38.5014,45.0407 234.2709,181.7411 167,112 28.6333,-28.3618 125.875,26.9545 95,48 29.077,55.2729 147.1817,133.8556 115,56 -119.2052,10.3316 78.9462,33.7785 86,37 39.2996,101.8505 115.7969,136.8725 86,98 44.2392,53.6614 110.4119,131.0705 143,67 92.4298,86.9063 101.4114,76.9152 115.375,73.375 31.1211,125.6348 116.7759,147.4249 127.625,87.625 26.2747,44.5439 200.5796,78.8619 122,73 216.4531,134.4938 -46.596,59.1853 223,125 -28.4095,71.8115 -75.605,-19.2374 32,-12 -213.56,-103.6358 53.1988,30.2021 27.75,-25.5 52.951,-47.2613 177.4803,10.2572 136.25,61.5 -72.7629,-57.8905 61.0724,25.0554 61.75,6.875 66.5132,68.6683 90.1321,153.495 92.75,45.625 19.975,-167.1831 -15.8489,-249.0877 49.5,-71.5 102.8389,72.2802 158.9559,62.1148 137,34 3.263,54.7659 101.0762,27.3602 95,29 38.944,28.8758 391.8057,126.5591 216,40 29.1322,-76.1374 161.9902,-64.7503 130,22 27.2803,100.6465 165.0773,184.5576 118.125,88 64.3569,81.3225 147.7975,133.6358 92.875,144 8.7972,29.4865 -55.4425,240.9536 -13,169 15.4501,-43.9492 -42.386,-2.6036 -72,25 -147.3012,-55.1039 -353.9638,-70.9604 -212,-38 -48.932,-113.0813 -91.5253,-172.2865 -74,-20 -75.2513,44.8832 -56.744,-53.6936 -72.5,-31.125 -83.8175,70.9716 -255.121,21.7805 -168.5,-27.875 -36.6673,9.1697 -165.0593,-29.5121 -133,5 90.0631,-50.8494 -38.2961,-109.1714 -54,-52 -17.315,88.9706 74.7347,-12.6027 -58,-3 -135.9122,16.7026 -218.8243,-141.9263 -151.125,-49.25 28.3745,-57.9146 -25.86,-4.5091 -95,-18.625 -71.5608,-83.8071 -271.5175,-126.0614 -147.75,-72 77.7618,7.9055 -43.2314,50.1329 -54.125,-16.125 -84.8578,-66.0073 -253.3878,-143.5861 -214,-124 -34.782,-9.521 -159.7367,-4.8024 -146,-73 -40.4129,-40.7512 -239.5195,-198.7182 -180.125,-123.125 -74.2612,19.9743 -180.19,63.4709 -106.875,20.125 -80.0384,-55.9371 77.1945,-35.8703 -8,-49 -58.3954,-40.3119 -276.976,-90.7967 -252,-96 -82.361,-1.1179 -303.3005,-124.64 -230,-77 53.4995,52.9181 -122.6075,-31.8043 -127,-3 7.0181,-78.6084 -161.3481,-96.0402 -100.125,-53.875 -92.3273,-34.1364 -193.7373,-88.3983 -141.875,-64.125 -84.1443,-20.3705 -205.2047,-132.9677 -114,-83 -117.5994,-95.21 -184.3667,-161.7713 -153,-42 -74.794,-2.6534 -269.5484,50.5016 -128,57 -144.4833,-153.6579 -175.1792,-68.5513 -83,-14 -14.6957,-46.6539 -170.1646,-28.026 -148,-20 -60.209,29.18 -239.6425,8.4358 -87.25,-26.375 -65.4322,-46.309 -131.5885,41.5876 -109.75,-1.625 -2.3987,36.2989 -28.9611,-153.6648 -46,-40 -63.7551,159.2205 -276.1212,82.9935 -257,138 -62.708,-48.138 -345.4717,174.2435 -226.375,69.125 -83.3942,48.6549 -100.6606,49.8623 -102.25,-30.875 -98.9349,-37.9782 3.0561,2.689 -129.375,54.75 63.2726,-49.7993 -5.2098,37.3955 87.75,0.5 -147.8061,0.902 -175.9861,-54.5176 -167.75,29.5 -24.9022,-165.7106 -65.5407,-169.402 -42,16 -17.4537,-48.3302 -204.8441,102.1862 -150,65 -124.0237,-25.5907 -337.7195,-138.3718 -347.875,7.5 -69.0194,120.7084 -30.6417,162.2482 22.625,160.25 -106.1352,-25.1255 -280.1041,79.9563 -203.75,79.25 -83.3098,-112.6098 42.4159,-213.4658 61.25,-90.875 161.9566,-84.7935 -79.3682,-17.9868 -12.25,-17.125 16.2715,-205.5744 -771.6644,1203.6597 -164,167 -14.1248,-98.365 -144.1432,205.0117 -153,161.3065 -54.7696,-119.1618 38.263,-58.3854 -62,-8.3065 -70.2626,135.8229 -180.3396,274.2012 -169,216 -108.5075,38.6337 -149.1432,66.2361 -38,-55 -34.3673,1.0087 -38.3238,115.9012 -86,169 121.3726,-51.103 150.4953,-18.5109 7,52 -143.9795,71.049 -33.5818,184.9536 -33,96 -72.5811,179.1779 -223.0742,256.6625 -167,103 101.7584,-23.074 222.9302,-15.6767 50.625,43.625 26.6898,127.5303 1.8742,271.8031 -32.625,100.5 103.9488,33.563 61.2413,126.9108 -40,66.875 -140.6161,-76.8622 -181.9843,98.9914 -60,109 -40.9811,13.3074 -98.216,182.8502 -6.875,108.5 5.5446,27.2508 -48.3755,160.2702 -38.125,12.5 -46.3895,-62.6498 -63.3424,79.9256 -76,105 28.7822,35.1428 105.1403,-36.9457 24.125,152 -81.2695,8.5728 -115.2226,185.2813 -49.625,23.875 -143.3209,70.0517 -144.3091,258.0564 -41.5,134.125 -137.4327,-83.3306 -63.6403,100.9871 -29.75,86 78.2765,33.3473 32.6213,77.5428 53.75,91 61.2628,-112.503 125.9384,-348.6498 56,-298 92.1467,3.1578 -97.2709,-66.2378 17,75 -24.9404,21.1723 26.7612,185.5691 -2,126 -89.4764,-17.8963 -198.1003,169.3227 -100,176 -34.8253,127.0599 -69.2354,130.5903 -44,148 -75.8088,23.25 -109.0705,112.7881 -71,91 31.6709,27.782 -325.2395,185.5839 -144,114 -108.225,45.0642 -42.7455,198.8577 -60.625,124.25 86.4886,-8.9699 113.8122,112.4199 16.625,65 43.7193,118.7471 -42.9716,16.1863 7.875,-19 43.0434,-17.5576 8.7243,-31.8348 69.125,61.75 16.5135,-73.3929 78.3792,81.4881 81,44 29.739,-57.1501 50.7382,116.558 -5,93 101.7295,116.1615 37.5487,207.7043 52,145 75.3809,-11.0153 119.3768,-18.7441 63.5,26.5 -54.051,34.7843 255.0462,203.9548 74.5,130.5 48.3106,26.5735 115.3524,256.1317 56,187 22.7329,-12.6359 118.1993,159.5092 50,157 -41.8946,5.7553 -34.7203,85.3144 -51,61 -63.0907,97.5614 -119.0423,196.6879 -30,109 21.6684,456.948 -109.419,-131.3281 -20.5,175.5 -52.2439,47.9073 285.7143,387.8269 26.5,313.5 70.2983,58.525 58.8933,89.5609 -62.625,107.375 -14.2727,46.2938 80.7675,3.0056 51.5,181.875 53.124,18.7885 77.7534,185.1685 22.125,152.75 9.0734,84.8031 -46.0439,361.6383 -31,258 19.4323,76.5387 67.2257,149.729 34.375,136.625 66.7052,205.7433 -29.646,37.4988 46.625,139.375 -31.0057,81.2619 -96.306,243.1381 -79,187 -21.8728,81.5158 -66.644,404.2368 -23.375,228.625 -116.2002,119.9046 -130.9653,136.0788 39.375,142.375 35.3499,14.8035 205.4482,199.8278 172,167 -48.4873,23.8824 -70.845,178.2344 -20,159.625 134.9421,112.7219 -108.4441,-44.168 47,127.375 39.8134,-2.4758 61.5817,-52.6295 33,85 118.78,-2.7383 51.3593,142.2868 -26.5,101.625 94.9387,-71.3842 107.7156,48.0543 85.25,35.875 -51.0969,-23.3222 24.839,142.5222 -46.75,147.5 24.5503,103.9816 286.953,206.2081 173,166 -52.5817,-114.6548 254.4287,31.5269 154.375,19.125 -53.456,-65.5907 237.7912,147.4417 128.625,45.875 -6.445,-52.2198 414.8662,22.5782 129,25 -4.0189,113.474 67.6918,114.967 80,-23 21.904,56.7227 54.5567,179.3626 67,41 77.8316,-140.4249 -184.1822,-100.1504 37,-145 -72.9869,20.5903 -55.9008,-108.8293 -74,-64 -53.5461,-287.4576 100.7898,310.8912 -11.625,-175.125 191.9574,120.5143 -122.7717,1.0031 114.625,-37.875 -23.5029,-41.3545 209.1777,-102.6251 153.5,-72.5 38.1332,-51.0261 -164.1546,220.5778 -138.5,180.5 20.181,117.2672 93.9413,-121.2311 109,-16 -16.2025,-122.8309 171.8732,-114.0612 89.125,-94.25 -70.5197,-68.0778 -116.7913,-254.4442 -16.125,-112.75 31.4042,-47.8296 143.992,100.3236 92,80 -15.4479,-19.5991 83.787,77.3614 82.5,31.625 110.9524,10.5628 -10.4204,-61.1485 27.5,-37.625 131.6281,45.1492 175.7533,8.0127 84,-96 107.1396,-142.3129 138.332,-81.3707 144,-73 -35.5662,-126.0352 76.5318,-200.3827 29.375,-129.25 120.4122,-96.7528 52.3111,3.9361 115.625,-25.75 54.8731,52.43 -125.659,154.3759 -87,87 -75.0862,120.4826 -1.967,5.0234 73.625,11.75 -42.3156,-29.6439 136.6338,-99.6413 92,-52.375 C 4775.8031,7781.6158 4678.4104,7635.6596 4803,7668 c 93.2922,-350.7001 25.4103,76.9125 26.625,-32.375 50.7535,-97.9558 261.9117,-6.6817 150.375,-70.625 26.4262,-47.9809 120.8443,-199.5632 67,-118 29.6255,-0.1539 26.1688,-85.2198 53,-65 71.979,8.2794 189.6009,-115.5193 163,-109 96.7568,-60.7273 295.1091,-206.3454 150.25,-120 -53.2097,-29.5013 95.2692,-132.7783 57,-128.125 24.5877,-50.6886 44.3311,91.3525 90.75,26.125 17.4877,-40.8641 173.1069,-119.723 68.625,0.25 21.4675,-117.7037 -12.4978,-59.4877 -24.625,-47.25 35.9962,-99.7276 11.2739,-72.1141 -35,-49 7.6944,-77.1597 74.9547,-107.2287 99,-90 20.9746,107.4896 256.7877,-24.7721 126,-35 -66.0047,23.9644 102.477,65.2459 46,-11 -153.5542,131.2545 -39.1304,121.5661 -9.75,76.375 -7.9121,90.6833 115.1078,-29.3152 79.75,-53.375 -11.3319,171.965 82.2657,-160.7825 60,-21.375 45.3162,73.5583 194.2973,124.5376 84,94.375 25.1601,-9.9967 265.0321,-61.9127 175,-13 22.8489,-57.1976 -113.4417,23.7385 -122,-16 -104.1957,-44.8198 -95.1449,31.4096 -69,-56 85.7894,-18.2191 235.8497,33.5124 171,-9 -66.858,83.8443 38.1884,85.7335 67.625,32.125 189.4264,-64.4361 271.7849,-32.1666 137.375,27.875 -71.4081,47.9618 236.9246,67.9919 188,34 -142.2694,27.5903 -0.052,168.512 59,80 88.949,55.8759 -82.2962,-131.7432 108,10 3.95,-51.914 228.0577,98.6341 124,64 -77.1897,-46.3223 -12.4902,7.8011 -58.125,7 91.5662,25.497 91.2129,248.5153 157.125,118 56.3437,57.8872 56.3466,97.5858 44,116 -6.7879,-30.1502 36.1907,158.4355 34,84 -27.6139,15.5994 -210.8348,39.307 -111,86 148.9125,-107.1441 -98.7911,-76.9714 -67.375,-24.375 -136.141,16.0976 42.5347,91.3771 -36.625,31.375 -128.8401,6.0363 -11.3279,148.3084 -36,148 -23.4341,-70.9822 122.2043,-166.3814 110,-130 -19.9791,59.022 -197.3621,161.2138 -130,150 107.2379,103.3308 -40.2535,176.2229 -53,60 4.4812,100.0306 -105.4014,109.1267 -96,61 -57.8356,75.176 54.3028,4.5406 39,23 149.991,96.9708 17.0544,173.6861 -43,98 -28.7498,-151.3847 -469.7175,214.5214 -126,19 -32.4117,-71.1453 44.1476,-88.7538 -70,-51 16.8127,-52.3697 -122.9454,-166.0285 -77,-74 -126.2721,7.0073 -118.8428,134.7073 -104,99 46.6487,-17.7618 73.865,-35.0071 90,-20 -19.5834,94.94 -82.4375,152.068 17,85 -29.1997,149.6077 -245.4433,244.1054 -131.75,167 -5.5132,1.7501 43.3051,74.701 -37.25,49 -26.5961,111.2946 -236.9357,296.3843 -98,134 21.0931,-53.7711 -134.0276,76.3048 -149,85 -72.0759,9.5631 -210.9159,90.8764 -97,4 -5.1201,-93.2251 -145.3048,-111.988 -88,-37 47.8016,-38.6619 106.3743,12.5289 -13.5,17.75 141.6245,90.3104 123.1521,168.1935 10.5,74.25 -219.9745,39.8501 -114.7664,72.21 -38,35 32.7467,32.2309 -81.4258,76.4011 -106.625,106.375 8.0972,88.4057 50.426,-80.0525 -59.625,22.25 5.8804,81.7024 23.4696,-105.69 -77.75,6.375 27.8059,-44.1923 30.4631,54.9475 -32.625,13 69.4831,174.4623 73.228,260.1935 79.625,125 -62.5038,-11.2867 -182.2495,30.7902 -108,79 80.9665,147.7133 -32.2358,369.9718 -92.875,189.125 70.0985,-71.2036 -70.8694,141.2047 -70.125,136.875 -20.3548,7.0184 -138.0325,223.5677 -111.375,194.625 -73.0831,33.8995 -165.68,85.5111 -110.625,65.375 58.1259,17.2557 -144.314,156.5618 -139,126 -32.4646,16.4079 -153.6211,129.8368 -119,23 56.9249,3.5647 -92.6663,153.9734 -62,69 -65.5539,24.1469 -169.9308,162.6249 -109,62 -18.6536,-66.4084 -248.1084,153.4763 -151,45 -63.2807,-33.6044 -45.5801,-7.3607 -48,13 -48.7141,9.9442 -393.8896,35.9206 -153,1 -258.6299,31.1074 -425.0542,-1.9139 -377,-3 -6.5423,5.8574 5.8479,61.3924 -8,35 z m 131,-1365 c 18.4724,0.2728 -115.831,-127.9619 -15,-139 108.5041,-7.1577 16.4241,-54.2651 -30,31 -64.84,-35.9643 -108.3411,-168.7194 41,-162 -53.1364,27.8862 8.3244,291.1296 -51.625,237.5 126.0135,-61.9132 -51.2538,124.1115 55.625,32.5 z m 670,-343 c 86.6787,-2.2762 49.8143,-141.9551 -6.375,-114 7.6742,3.9914 -106.8812,-116.401 -192.625,89 4.0141,6.4312 -19.7771,-107.4054 89,-35 172.75,-2.2753 -78.9771,-16.6223 110,60 z M 1380,6301 c -18.447,-82.9969 -32.9275,-250.368 -12,-141 68.2973,80.3744 -128.6048,-195.6918 57,28 -124.0669,-168.6658 -61.6136,-190.9771 -131.625,-211.125 163.6932,-98.2699 -114.9315,-63.6889 28.625,54.125 -102.3269,57.422 56.5376,20.0212 -57,189 23.1178,31.9126 -30.3178,180.6607 15,77.25 68.3745,-31.2339 91.7613,30.2503 100,3.75 z M 2579,5145 c 60.6496,77.0545 88.2464,-113.3847 47.25,-120.125 -112.133,-60.2296 -249.7848,-76.7733 -141.25,25.125 -95.9656,-52.5852 119.5581,55.2494 80,-66 64.1687,25.9551 -29.9195,-80.5047 -58,-100 -174.5043,-80.2072 -139.4972,107.8655 -125.875,38.25 -49.1913,-15.7344 77.5648,150.7528 63.875,128.75 71.2333,56.7405 55.1146,96.167 134,94 z M 2335,2138 c -65.6004,-44.1655 -56.9004,-86.817 34,-100 50.2,30.3767 106.662,-72.9441 125,-32 -80.5421,-24.4438 8.8571,-51.2152 106,-105.125 -104.3588,93.7642 190.003,-2.1586 90,-0.875 -9.8851,-113.1823 -244.6113,193.0768 -229,71 -120.2157,-9.4181 -215.768,128.5207 -126,167 z m 1248,-846 c 55.8329,-28.2116 32.2323,-140.2448 26,-124 142.0431,19.3161 114.6437,-43.7523 176,1 63.1171,-35.1761 160.6333,-120.671 128,-67 -145.0883,-32.1138 1757.3962,-230.75253 177,-7 10.6501,10.3289 111.0276,-27.4887 70,-42 23.8124,-88.73084 384.5962,-152.85707 249.375,-103.375 -0.6886,-97.2402 -191.8188,-28.33575 -220.25,-5 -69.7184,72.543 -258.6497,158.9417 -269.125,70.375 -6.5163,-34.85984 28.242,23.2328 -112,74.125 73.7015,28.8577 -37.5747,69.0373 -23,40.875 -139.8844,38.445 -190.1744,-69.6124 -145,-7 119.6815,-34.6777 -89.5827,-45.2978 3,-47 -103.9707,75.3197 -144.0427,126.2936 -105,181 -42.3564,-2.0495 20.2733,84.2886 45,35 z"
       id="path4" />
    <path
       d="m 3985,1062 c -127.9211,-151.7963 242.9035,-127.20407 171,-78 -1.0731,66.3587 -79.3788,-28.86713 -125,39 -24.1165,74.2164 -0.4469,-18.4131 -46,39 z"
       id="path6" />
    <path
       d="m 4831,7589 c 101.8311,-40.2782 118.1223,-56.3321 94,-132 68.6981,69.3039 235.5186,-60.4556 100,-77 88.9113,-78.9195 83.0747,-113.8996 79.75,-87.625 187.9243,-59.9911 -260.6687,330.1207 -67.75,139.625 -82.6892,-109.1335 -166.4286,9.594 -81,59 -64.9356,8.8985 -35.6486,163.5081 -125,98 z"
       id="path8" />
    <path
       d="m 5176,7255 c 83.1707,-83.9282 232.764,-96.6239 163,-122 17.9786,-125.7587 -97.6536,71.2936 -26,73 -48.3075,53.7988 -66.5942,54.1093 -137,49 z"
       id="path10" />
    <path
       d="m 1300,7165 c 28.5508,-12.9705 -56.7912,53.7733 3,-66 22.0769,-31.6356 62.407,-200.5562 4,-214 130.8805,130.7535 -62.8862,-25.3517 24,133 -48.2471,-78.8157 -12.1419,182.7275 66,70 5.459,114.6416 -28.5672,21.585 -97,77 z"
       id="path12" />
    <path
       d="m 1347,5573 c 66.1107,-43.2593 -44.9652,-18.6938 -29,-69 60.7041,86.2123 -25.607,-54.4708 -53,-48 -21.9843,16.045 -30.9037,-39.5467 51.125,-102.625 -80.5597,-86.467 -14.6575,74.9554 62.875,-3.375 31.8647,99.4766 172.4597,313.8198 22.9844,184.75 -6.9933,19.5802 -28.4888,54.572 -54.9844,38.25 z"
       id="path14" />
    <path
       d="m 1429,3741 c -47.7575,-32.3979 -14.008,-210.756 61,-164 17.4452,11.3855 83.7112,-263.6993 36,-52 9.824,179.8602 68.5294,-127.8728 46,63 -58.673,109.0471 -47.7814,112.0558 -87.5,109.875 26.4504,18.8549 -59.333,40.89 -55.5,43.125 z"
       id="path16" />
    <path
       d="m 1554,3494 c 36.0522,-117.2212 162.8111,-359.0514 82,-273 174.7157,-107.1422 219.7429,-4.8243 87,9 -3.1313,99.5873 -40.8057,151.0322 -26,80 -103.5578,89.6154 -188.7004,136.5526 -87,5 -6.6845,99.1852 -46.8749,214.3935 -10,145 -11.3595,10.9149 -57.4226,87.964 -46,34 z"
       id="path18" />
    <path
       d="m 4229,1898 c 35.0479,-140.4379 420.7738,-126.1588 301,-137 -89.6373,116.7297 -196.446,88.9391 -143,51 60.202,37.2743 -86.1748,2.9911 -158,86 z"
       id="path20" />
  </g>
</svg>
