<?xml version="1.0" standalone="no"?>
<!DOCTYPE svg PUBLIC "-//W3C//DTD SVG 20010904//EN"
 "http://www.w3.org/TR/2001/REC-SVG-20010904/DTD/svg10.dtd">
<svg version="1.0" xmlns="http://www.w3.org/2000/svg"
 width="1024.000000pt" height="1024.000000pt" viewBox="0 0 1024.000000 1024.000000"
 preserveAspectRatio="xMidYMid meet">
<metadata>
Created by potrace 1.16, written by Peter Selinger 2001-2019
</metadata>
<g transform="translate(0.000000,1024.000000) scale(0.100000,-0.100000)"
fill="#000000" stroke="none">
<path d="M6775 9806 c3 -12 2 -15 -1 -8 -8 16 -32 15 -51 -3 -8 -8 -18 -13
-23 -10 -4 3 -6 -4 -3 -15 4 -13 0 -20 -10 -20 -8 0 -21 -8 -28 -17 -13 -16
-12 -17 3 -5 16 13 38 -1 24 -15 -3 -4 -6 -1 -6 6 0 7 -5 9 -10 6 -6 -4 -7
-11 -4 -17 4 -7 0 -7 -13 1 -22 11 -43 -2 -43 -27 0 -7 -5 -10 -10 -7 -6 3
-13 -1 -16 -10 -6 -13 -8 -14 -15 -3 -7 11 -11 10 -20 -2 -9 -13 -10 -13 -6 0
2 8 12 14 21 14 24 -2 19 9 -10 23 -21 10 -24 9 -14 -1 8 -10 7 -15 -6 -20
-21 -8 -24 -8 -24 5 0 5 5 7 12 3 6 -4 8 -3 5 3 -4 6 -18 9 -32 8 -14 -2 -25
0 -25 4 0 4 -11 7 -25 7 -38 0 -13 -14 32 -18 7 -1 10 -5 7 -9 -2 -4 2 -10 8
-12 8 -3 6 -6 -4 -6 -10 -1 -18 4 -18 10 0 6 -6 9 -14 6 -7 -3 -19 0 -25 6 -8
8 -14 8 -19 2 -4 -6 -14 -11 -22 -13 -10 -1 -9 2 4 13 17 13 18 17 6 28 -10 9
-11 9 -6 0 5 -9 -2 -12 -24 -9 -29 3 -30 2 -15 -14 12 -14 13 -20 4 -26 -7 -4
-10 -3 -5 4 3 6 -2 16 -13 22 -14 7 -22 7 -26 0 -5 -8 -11 -7 -21 1 -7 6 -21
9 -29 5 -9 -3 -15 0 -15 10 0 8 4 13 8 10 5 -3 9 1 9 7 0 7 -10 14 -21 15 -17
1 -18 -1 -6 -8 8 -5 10 -10 5 -10 -6 0 -21 7 -33 16 -12 8 -22 10 -22 5 0 -6
-5 -11 -11 -11 -8 0 -8 5 1 15 7 8 10 16 6 16 -3 1 -10 3 -16 4 -5 1 -15 3
-21 4 -6 0 -9 8 -6 16 4 8 2 17 -2 20 -5 2 -11 -4 -14 -14 -5 -19 -21 -22 -44
-8 -8 5 -11 1 -8 -13 2 -11 0 -18 -5 -15 -5 3 -11 1 -15 -5 -3 -5 -1 -10 5
-10 6 0 8 -5 5 -10 -4 -6 -10 -8 -15 -5 -4 3 -11 -2 -14 -11 -4 -12 -2 -15 9
-11 8 4 17 2 20 -4 4 -5 3 -9 -2 -8 -28 5 -35 -1 -22 -18 12 -14 12 -16 0 -8
-11 6 -13 1 -9 -24 3 -18 1 -34 -4 -37 -4 -3 -8 -10 -8 -15 0 -6 4 -8 9 -4 5
3 13 0 17 -6 5 -8 3 -9 -6 -4 -10 6 -12 4 -7 -8 3 -9 1 -19 -5 -23 -7 -5 -8
-2 -3 6 5 9 4 11 -4 6 -6 -4 -9 -11 -6 -16 3 -5 -3 -13 -12 -19 -25 -14 -7
-14 20 1 19 9 20 9 11 -3 -6 -8 -10 -28 -9 -45 1 -22 -3 -30 -11 -27 -8 3 -11
-2 -7 -16 3 -12 0 -28 -7 -36 -10 -12 -9 -16 3 -21 9 -3 18 -13 21 -21 6 -14
4 -14 -10 -2 -16 13 -16 12 -7 -6 16 -29 16 -37 1 -46 -10 -7 -10 -9 0 -9 7 0
10 -5 6 -11 -4 -8 1 -9 17 -4 24 7 24 7 4 -10 -11 -9 -14 -13 -6 -9 11 5 13 3
8 -10 -5 -13 -3 -17 7 -13 11 4 13 1 9 -10 -5 -12 -3 -14 7 -8 9 5 11 4 6 -4
-6 -8 -12 -9 -20 -2 -9 8 -13 7 -13 -2 0 -16 26 -18 47 -4 12 9 13 9 3 -3 -18
-19 -16 -30 5 -31 10 0 12 -3 4 -6 -6 -2 -9 -10 -6 -16 3 -7 -3 -1 -14 12 -13
16 -21 20 -26 12 -4 -6 0 -14 8 -17 9 -3 16 -13 16 -21 0 -9 6 -13 15 -9 22 8
18 -2 -6 -15 -13 -7 -19 -7 -15 -1 3 6 2 13 -3 16 -8 5 -8 -15 -1 -34 1 -3 2
-8 2 -11 -1 -4 7 -5 18 -2 11 3 18 9 15 13 -3 5 -1 11 4 14 20 13 3 -25 -18
-40 -15 -11 -19 -19 -12 -27 13 -17 12 -29 -7 -52 -14 -16 -14 -17 -1 -7 16
12 29 7 29 -10 0 -5 -4 -7 -9 -4 -11 7 -33 -18 -24 -27 3 -4 11 -7 17 -7 6 0
5 4 -3 9 -9 6 -10 11 -2 15 6 4 11 2 11 -4 0 -6 5 -8 11 -5 6 4 5 -2 -2 -13
-7 -12 -18 -18 -24 -16 -5 3 -2 -1 7 -9 10 -8 15 -17 11 -21 -4 -4 -1 -11 7
-16 9 -6 10 -10 3 -10 -7 0 -17 8 -22 18 -6 9 -11 12 -11 5 0 -6 6 -18 13 -25
12 -11 12 -16 0 -27 -11 -10 -11 -16 -2 -27 8 -10 8 -14 0 -14 -6 0 -11 -4
-11 -10 0 -5 3 -9 8 -9 18 3 26 -2 14 -9 -21 -14 -24 -52 -4 -46 15 5 15 4 0
-9 -10 -8 -15 -17 -12 -20 4 -3 3 -14 -1 -24 -14 -33 -13 -41 8 -64 17 -19 18
-23 6 -33 -15 -11 -17 -41 -6 -70 4 -9 2 -27 -3 -40 -5 -15 -5 -27 1 -33 7 -7
6 -15 -4 -24 -14 -14 -20 -52 -6 -44 14 9 17 -36 2 -50 -13 -13 -12 -15 4 -16
10 0 13 -3 7 -5 -5 -2 -9 -19 -7 -37 2 -17 3 -49 4 -69 1 -25 5 -35 13 -31 6
4 5 -1 -3 -10 -7 -9 -11 -28 -9 -42 3 -13 2 -22 -3 -20 -4 3 -10 1 -14 -5 -3
-5 -1 -10 5 -10 10 0 7 -40 -5 -60 -3 -5 -1 -10 5 -10 7 0 9 -8 5 -21 -6 -16
-4 -20 6 -14 8 5 6 -1 -3 -12 -10 -11 -18 -24 -18 -29 0 -5 4 -3 9 4 6 10 10
7 13 -12 3 -14 2 -23 -3 -21 -4 3 -10 1 -14 -5 -3 -5 -1 -10 5 -10 7 0 9 -8 5
-19 -3 -11 0 -23 6 -27 8 -5 9 -3 4 6 -5 9 -4 11 4 6 14 -9 5 -26 -15 -26 -8
0 -12 -5 -9 -10 4 -6 10 -8 15 -5 4 3 6 -4 3 -15 -3 -11 -10 -17 -17 -13 -6 4
-5 -1 3 -10 7 -9 11 -23 8 -32 -4 -8 -1 -17 5 -21 7 -5 8 -2 3 6 -5 9 -4 11 4
6 15 -10 5 -26 -17 -26 -13 0 -13 -2 4 -16 10 -8 13 -13 7 -9 -15 7 -14 8 -17
-57 -1 -27 3 -48 8 -48 5 0 6 -3 3 -7 -4 -3 -2 -12 4 -19 7 -8 6 -14 -2 -20
-8 -5 -10 -3 -4 7 5 8 4 10 0 6 -11 -10 -16 -39 -6 -32 4 2 8 -3 8 -11 0 -9
-6 -13 -15 -9 -13 5 -13 3 -1 -11 8 -10 13 -20 13 -23 -1 -3 3 -4 10 -3 6 2 7
0 3 -5 -5 -4 -14 -8 -20 -8 -5 0 -12 -7 -14 -15 -3 -10 -2 -11 4 -3 6 8 13 7
28 -4 19 -14 19 -14 1 -11 -10 2 -21 -3 -24 -11 -2 -8 0 -11 5 -8 5 3 9 -3 9
-13 0 -15 -3 -17 -15 -7 -12 10 -13 9 -2 -11 7 -13 17 -20 24 -15 8 4 7 1 -1
-10 -8 -9 -11 -21 -7 -26 3 -6 0 -9 -7 -6 -7 3 -18 -3 -25 -13 -9 -15 -8 -19
3 -19 7 0 11 3 9 7 -2 4 3 7 12 7 13 0 12 -3 -4 -17 -19 -15 -19 -18 -5 -26
13 -9 13 -12 2 -19 -9 -6 -11 -4 -5 6 7 12 6 12 -6 0 -11 -11 -11 -14 -1 -18
10 -4 10 -8 0 -21 -12 -13 -10 -14 9 -3 19 9 22 9 17 -3 -3 -8 -12 -17 -20
-20 -12 -4 -12 -10 -4 -26 6 -11 16 -17 22 -14 7 4 8 3 4 -5 -4 -6 -11 -9 -16
-6 -5 3 -11 1 -15 -5 -3 -5 -1 -10 6 -10 7 0 4 -7 -7 -15 -19 -15 -19 -15 1
-8 20 6 20 6 1 -16 -16 -17 -16 -20 -4 -16 9 4 19 1 24 -6 4 -7 3 -10 -2 -6
-16 9 -35 -8 -28 -26 3 -9 10 -17 15 -17 5 0 9 -5 9 -11 0 -5 -6 -7 -12 -3 -7
4 -10 4 -6 -1 4 -4 2 -15 -5 -23 -10 -13 -9 -14 10 -4 33 18 38 14 12 -9 l-24
-20 25 6 c17 4 21 3 11 -3 -11 -8 -11 -10 0 -15 12 -4 12 -7 0 -18 -12 -12
-13 -12 -6 0 6 10 4 12 -5 6 -9 -5 -11 -4 -6 3 4 7 2 12 -3 12 -14 0 -14 -17
-1 -25 17 -10 12 -38 -6 -31 -9 3 -12 2 -9 -5 4 -5 15 -7 25 -4 10 3 21 1 25
-4 4 -7 -1 -8 -11 -4 -12 4 -15 3 -10 -5 4 -7 2 -10 -7 -6 -8 3 -14 -1 -14
-10 0 -8 4 -13 9 -10 4 3 8 1 8 -5 0 -5 -8 -12 -17 -14 -15 -4 -15 -5 2 -6 17
-1 18 -3 5 -11 -10 -6 -11 -10 -2 -10 6 0 12 -5 12 -11 0 -5 -4 -8 -8 -5 -5 3
-9 -2 -9 -10 0 -8 6 -13 14 -10 20 8 15 -8 -7 -22 -12 -7 -18 -17 -15 -22 4
-6 11 -8 16 -4 5 3 7 10 4 15 -10 15 2 10 16 -8 8 -9 10 -14 4 -11 -5 3 -16 0
-23 -8 -13 -14 -4 -20 23 -14 6 1 -1 -10 -14 -24 -17 -18 -20 -26 -10 -26 12
0 11 -2 -1 -10 -8 -5 -10 -10 -5 -10 6 0 1 -8 -10 -16 -20 -16 -20 -16 1 -10
14 4 21 2 21 -8 0 -9 -4 -13 -9 -10 -11 7 -10 -13 2 -37 9 -15 7 -21 -6 -26
-16 -6 -16 -7 2 -14 19 -7 19 -8 0 -8 -20 -1 -20 -1 0 -16 16 -12 16 -14 2 -9
-16 6 -17 3 -5 -32 16 -47 15 -70 -2 -66 -7 1 -10 -2 -6 -8 3 -6 10 -8 14 -6
4 3 8 -1 8 -9 0 -8 -4 -12 -9 -9 -4 3 -5 -2 -2 -10 3 -9 11 -13 18 -9 6 4 5
-1 -3 -10 -7 -9 -10 -17 -6 -17 5 0 1 -8 -8 -18 -10 -10 -15 -21 -12 -24 11
-11 16 -60 5 -53 -6 4 -7 -2 -1 -17 9 -23 11 -32 11 -45 0 -5 5 -1 11 7 8 12
10 12 7 1 -2 -8 -12 -15 -22 -17 -10 -1 -21 -6 -24 -10 -4 -4 1 -4 10 -1 10 3
20 2 23 -3 4 -6 0 -10 -7 -10 -9 0 -9 -3 2 -10 13 -9 12 -12 -4 -25 -19 -14
-12 -20 19 -16 6 1 0 -7 -12 -18 -19 -16 -20 -20 -7 -25 10 -4 13 -2 8 6 -4 7
-3 8 4 4 9 -5 9 -13 2 -27 -9 -15 -7 -19 5 -19 8 0 15 -5 15 -11 0 -5 -6 -7
-12 -3 -7 4 -5 -2 5 -13 17 -20 17 -22 1 -31 -11 -6 -13 -11 -5 -16 6 -4 11
-3 11 2 0 6 7 13 16 16 13 5 14 3 7 -6 -11 -14 -3 -48 12 -51 6 -1 9 -4 8 -7
-1 -3 -5 -14 -9 -25 l-7 -20 17 20 16 20 -7 -20 c-3 -11 -11 -26 -16 -33 -5
-7 -7 -15 -3 -19 3 -3 6 -1 6 5 0 7 4 12 8 12 12 0 10 -54 -2 -63 -6 -5 0 -6
14 -3 14 3 19 3 12 0 -6 -3 -10 -10 -7 -15 4 -5 0 -6 -8 -3 -8 3 -18 0 -23 -7
-4 -8 -3 -10 4 -5 7 4 12 2 12 -4 0 -6 5 -8 10 -5 6 3 10 1 10 -4 0 -6 -8 -11
-17 -11 -15 0 -16 -2 -3 -9 8 -6 18 -7 24 -4 5 3 6 1 2 -6 -4 -6 -11 -9 -16
-6 -5 3 -12 0 -16 -6 -4 -8 -3 -9 5 -5 14 9 11 -30 -4 -54 -8 -13 -7 -13 8 -1
9 7 14 17 11 22 -3 5 -1 9 4 9 6 0 9 -11 8 -24 0 -13 -4 -22 -8 -19 -5 2 -8
-1 -8 -6 0 -6 5 -11 12 -11 9 0 9 -3 0 -12 -7 -7 -12 -17 -12 -23 0 -5 5 -3
10 5 7 11 10 7 10 -17 0 -18 5 -33 10 -33 6 0 10 -5 10 -11 0 -5 -3 -8 -7 -6
-16 10 -6 -52 10 -68 18 -18 23 -30 8 -21 -5 3 -15 -2 -22 -11 -10 -12 -10
-14 -1 -9 6 4 12 4 13 -1 0 -4 2 -18 3 -31 2 -14 -2 -21 -9 -18 -6 2 -12 -2
-12 -10 0 -7 4 -11 9 -8 4 3 9 -6 9 -20 1 -14 2 -32 3 -38 1 -7 -1 -25 -5 -40
-6 -22 -4 -26 9 -20 15 5 15 4 3 -11 -9 -11 -10 -17 -2 -17 6 0 11 -5 11 -11
0 -5 -3 -8 -7 -6 -5 3 -9 -6 -10 -20 -1 -19 1 -22 8 -12 6 10 9 5 9 -18 0 -17
6 -34 13 -36 9 -4 9 -6 -1 -6 -7 -1 -10 -6 -6 -13 4 -6 3 -8 -3 -5 -6 4 -13 1
-15 -6 -7 -18 2 -38 14 -31 6 4 6 -2 -1 -14 -9 -16 -7 -24 7 -38 15 -16 15
-17 1 -12 -18 7 -20 -46 -3 -73 4 -8 3 -9 -4 -5 -15 9 -15 1 -2 -25 8 -14 7
-19 -2 -19 -9 0 -9 -3 2 -10 13 -9 13 -10 0 -10 -9 0 -11 -3 -4 -8 14 -9 27
-45 14 -37 -6 3 -10 1 -10 -4 0 -6 6 -11 13 -11 8 0 7 -4 -3 -10 -10 -6 -11
-10 -2 -10 6 0 12 -5 12 -11 0 -5 -4 -8 -8 -5 -5 3 -9 -1 -9 -9 0 -8 4 -12 8
-10 4 3 9 -2 12 -10 4 -9 1 -12 -7 -9 -7 3 -13 -2 -13 -10 0 -8 4 -13 8 -10 4
2 10 0 14 -6 3 -5 -1 -10 -9 -10 -8 0 -17 -4 -21 -9 -3 -6 3 -8 14 -6 16 3 18
-1 14 -27 -3 -23 -1 -28 9 -23 10 6 11 5 1 -6 -18 -18 -16 -29 5 -30 14 0 14
-2 -3 -9 -13 -6 -15 -9 -5 -9 12 -1 12 -3 2 -10 -11 -7 -11 -9 1 -14 9 -3 12
-15 9 -36 -2 -18 2 -38 9 -48 10 -12 10 -14 2 -9 -7 4 -13 2 -13 -3 0 -6 5
-11 10 -11 6 0 10 -5 10 -11 0 -5 -6 -7 -12 -3 -9 5 -9 3 1 -9 18 -22 25 -111
8 -101 -6 4 -9 4 -5 -1 4 -4 2 -15 -5 -23 -8 -11 -4 -10 16 3 15 10 30 15 34
11 3 -3 0 -6 -8 -6 -7 0 -3 -7 10 -17 20 -14 22 -18 9 -27 -8 -6 -20 -20 -26
-31 -10 -18 -11 -17 -8 10 3 23 8 29 22 27 13 -3 16 0 9 6 -17 17 -39 18 -40
2 0 -8 -7 -14 -14 -12 -7 1 -10 -2 -6 -8 3 -6 11 -8 16 -5 5 4 9 1 9 -4 0 -9
-18 -15 -40 -13 -3 0 -7 -9 -7 -20 -2 -20 -1 -20 12 -2 7 11 16 16 20 12 4 -3
-2 -15 -14 -27 -20 -20 -20 -20 -26 0 -4 10 -11 19 -16 19 -6 0 -8 -4 -4 -9 3
-5 0 -13 -6 -17 -7 -4 -9 -3 -6 3 4 6 -2 13 -13 16 -21 5 -19 -4 7 -34 11 -13
11 -16 -2 -16 -8 0 -13 3 -11 6 2 3 -3 13 -12 21 -14 13 -15 12 -7 -5 4 -11 9
-30 9 -42 1 -18 5 -21 21 -17 l20 6 -20 -16 -20 -17 20 3 c21 3 29 -26 13 -49
-6 -7 -4 -14 3 -19 8 -4 9 -3 5 4 -4 7 -5 12 -2 12 3 0 10 -9 16 -20 9 -16 8
-19 -7 -14 -17 5 -17 5 0 -9 19 -16 24 -32 5 -21 -7 4 -8 3 -4 -5 5 -8 12 -9
20 -2 8 7 12 5 12 -9 0 -10 -4 -16 -8 -14 -4 3 -8 0 -8 -5 0 -6 5 -11 12 -11
9 0 9 -3 0 -12 -16 -16 -15 -28 1 -28 8 0 12 -13 12 -35 -1 -19 2 -35 7 -35 5
0 4 -9 -2 -19 -7 -14 -6 -21 3 -24 9 -4 8 -8 -3 -16 -13 -10 -13 -11 0 -11 13
0 13 -1 0 -10 -12 -8 -12 -10 -1 -10 10 0 11 -3 2 -14 -9 -11 -9 -16 0 -21 8
-6 7 -10 -2 -16 -8 -5 -9 -9 -4 -9 6 0 11 -9 12 -20 1 -13 -2 -18 -10 -13 -7
4 -6 -1 2 -11 13 -15 13 -19 0 -27 -11 -7 -11 -9 4 -9 9 0 17 -5 17 -11 0 -5
-6 -7 -12 -3 -9 5 -9 2 1 -9 11 -14 11 -17 0 -17 -10 0 -10 -3 -2 -11 6 -6 9
-18 6 -27 -4 -10 -2 -13 5 -8 15 9 15 1 1 -26 -6 -12 -7 -18 -1 -14 5 3 15 -1
22 -9 11 -13 10 -14 -6 -8 -17 6 -18 5 -4 -12 8 -10 10 -16 3 -12 -6 4 -15 3
-18 -3 -4 -6 -3 -10 2 -9 22 4 34 -2 26 -13 -12 -19 -10 -41 5 -60 11 -14 11
-18 -5 -27 -10 -6 -13 -11 -7 -11 6 0 11 -7 11 -15 0 -10 -6 -14 -16 -10 -9 3
-5 -3 8 -13 18 -15 21 -21 11 -27 -9 -5 -11 -4 -6 3 4 7 2 12 -5 12 -6 0 -9
-8 -6 -20 3 -13 0 -20 -9 -20 -8 0 -14 -5 -14 -11 0 -6 7 -8 17 -5 15 6 15 5
-1 -13 -11 -12 -16 -29 -13 -41 3 -13 0 -20 -10 -20 -8 0 -11 -5 -8 -10 4 -6
11 -8 16 -5 5 4 9 1 9 -4 0 -6 -7 -11 -16 -11 -14 0 -15 -2 -3 -17 12 -15 12
-16 -4 -10 -13 5 -16 3 -10 -6 11 -18 12 -67 0 -74 -6 -4 -7 -1 -2 7 5 9 4 11
-4 6 -9 -6 -9 -11 -1 -21 8 -10 8 -15 0 -20 -8 -5 -7 -11 2 -23 12 -14 10 -14
-12 -2 -22 12 -24 12 -12 -2 10 -13 9 -17 -10 -22 -36 -9 -43 -7 -24 7 16 12
16 13 -3 13 -12 0 -21 -5 -21 -10 0 -5 -3 -7 -6 -4 -3 4 0 16 6 29 11 19 10
21 -4 16 -9 -4 -15 -3 -14 1 3 16 -15 41 -25 35 -6 -3 -7 -1 -3 6 4 6 13 9 19
5 7 -3 1 4 -13 16 -14 12 -18 19 -10 15 10 -4 9 -1 -2 8 -10 8 -18 21 -18 29
0 9 -8 22 -17 29 -15 11 -16 11 -5 -1 6 -8 12 -19 12 -24 0 -6 -7 0 -16 12 -8
12 -13 26 -9 31 8 14 -35 40 -54 34 -13 -5 -12 -2 4 17 l20 23 -22 -12 c-16
-8 -24 -8 -29 1 -4 6 -3 8 3 5 6 -4 13 0 17 8 3 8 1 17 -4 20 -5 3 -7 12 -4
19 3 7 -3 19 -12 27 -12 9 -15 10 -10 2 4 -7 2 -13 -3 -13 -6 0 -11 9 -11 20
0 21 -9 25 -26 12 -5 -4 -1 1 9 11 18 16 12 23 -15 18 -5 0 -8 3 -8 9 0 5 10
10 23 11 l22 0 -22 11 c-13 6 -23 15 -23 20 0 5 5 6 12 2 7 -4 8 -3 4 5 -4 6
-12 8 -18 5 -6 -4 -8 2 -3 17 5 19 4 21 -4 9 -9 -12 -11 -11 -11 7 0 12 6 24
13 27 6 3 3 4 -8 1 -15 -4 -21 0 -22 15 -1 11 3 20 8 20 6 0 7 -5 3 -12 -4 -6
-3 -8 4 -4 7 4 8 17 2 38 -5 17 -7 35 -4 39 3 5 1 9 -4 9 -5 0 -12 10 -15 23
-6 21 -6 21 8 3 22 -29 18 -6 -4 30 -15 24 -17 35 -8 44 9 10 9 11 0 6 -7 -4
-13 -3 -13 3 0 5 6 12 13 14 7 3 5 6 -5 6 -10 1 -18 6 -18 12 0 5 6 7 13 3 9
-5 9 -4 0 6 -6 7 -9 20 -5 29 5 13 3 14 -10 3 -13 -10 -15 -9 -10 14 4 21 2
25 -9 19 -12 -7 -12 -6 -1 7 10 13 10 17 -2 21 -9 4 -12 14 -9 26 3 14 1 21
-8 21 -11 0 -11 2 1 10 15 9 13 11 -12 14 -6 0 -12 11 -13 23 -1 12 2 20 7 17
5 -4 7 -13 3 -23 -5 -13 -4 -14 7 -3 11 11 9 16 -7 30 -12 10 -19 26 -17 40 2
14 -5 29 -18 40 -21 17 -21 19 -5 35 9 9 13 17 8 17 -5 0 -15 -6 -22 -12 -10
-11 -11 -10 -6 4 4 10 11 18 17 18 5 0 3 7 -6 15 -8 8 -13 24 -11 35 2 11 1
19 -3 17 -4 -3 -16 -1 -27 4 -14 5 -16 8 -4 8 9 1 16 8 16 16 0 11 -4 12 -14
3 -11 -9 -12 -7 -7 7 5 12 4 16 -3 12 -6 -4 -16 -1 -22 6 -8 10 -7 14 4 14 8
0 11 -5 8 -10 -3 -6 -1 -7 5 -3 17 11 15 24 -5 28 -12 2 -18 13 -19 33 -3 45
-3 47 -15 39 -8 -4 -7 -9 2 -15 10 -6 10 -9 2 -9 -6 0 -15 5 -18 10 -4 6 -11
7 -17 4 -7 -4 -8 -2 -4 5 4 6 12 9 17 6 5 -4 9 -2 9 4 0 5 -9 12 -19 16 -12 3
-18 13 -17 23 5 22 -12 65 -22 58 -4 -2 -14 0 -22 6 -12 8 -12 9 3 4 9 -3 17
-1 17 4 0 9 -14 14 -32 11 -5 0 -8 3 -8 7 0 5 -9 19 -20 32 -16 18 -18 26 -8
33 9 6 6 7 -7 2 -43 -15 -50 -12 -49 27 1 28 -2 35 -11 28 -6 -5 -16 -6 -20
-2 -5 4 -5 1 -1 -6 4 -7 11 -10 16 -7 4 3 6 -5 2 -17 l-5 -22 -9 23 c-4 13
-13 19 -19 15 -8 -4 -8 0 0 15 14 26 5 27 -22 3 -20 -17 -20 -17 -3 9 13 22
14 26 1 26 -8 0 -13 -3 -11 -6 1 -3 -5 -14 -16 -24 -10 -9 -18 -13 -18 -8 0 6
5 13 10 16 13 8 13 35 -1 35 -5 0 -8 -4 -4 -9 3 -5 0 -13 -7 -17 -7 -4 -10 -4
-6 1 4 4 3 14 -3 22 -9 10 -8 13 2 13 11 0 11 2 -1 9 -8 6 -18 7 -22 5 -4 -3
-8 -1 -8 5 0 5 -9 9 -20 8 -11 -1 -20 -5 -20 -10 0 -5 7 -7 15 -4 8 4 17 2 20
-4 4 -5 11 -6 17 -3 7 4 8 2 4 -5 -4 -6 -12 -8 -18 -5 -8 5 -9 1 -4 -12 4 -12
-5 -6 -24 14 -16 18 -30 39 -30 45 0 8 3 8 8 2 8 -13 27 -13 39 -2 4 5 4 8 -2
7 -23 -5 -36 1 -29 13 5 7 0 6 -11 -3 -14 -11 -19 -12 -22 -2 -3 6 -10 9 -16
5 -7 -4 -6 0 1 10 12 15 11 16 -17 12 -18 -2 -29 0 -25 6 3 5 9 7 14 4 5 -3
11 -1 15 4 6 10 -27 7 -45 -4 -6 -3 -10 -1 -10 4 0 6 5 11 12 11 6 0 8 3 4 7
-4 5 -14 -1 -22 -12 -15 -19 -15 -19 -11 5 4 22 1 25 -27 25 -17 0 -35 -4 -39
-10 -5 -6 -7 -3 -3 8 6 19 -10 24 -17 5 -3 -7 -4 -3 -4 9 1 21 3 21 23 8 19
-12 23 -12 28 0 3 9 0 12 -8 9 -7 -3 -20 2 -29 10 -13 14 -16 14 -21 0 -3 -8
-10 -12 -16 -9 -5 3 -10 1 -10 -5 0 -6 -4 -8 -10 -5 -5 3 -10 11 -10 16 0 6 5
7 10 4 6 -3 10 -2 10 4 0 5 -6 12 -12 15 -7 3 -3 3 10 0 13 -3 22 -1 22 6 0 6
-4 9 -9 5 -5 -3 -16 1 -24 10 -13 13 -16 13 -21 -1 -3 -8 -2 -13 3 -10 5 4 7
-4 3 -16 -3 -14 -7 -17 -10 -9 -8 25 -40 51 -46 38 -3 -7 -3 -2 -1 10 6 20 -8
37 -30 38 -5 1 -9 6 -8 11 1 6 -4 11 -11 11 -7 0 -13 -6 -13 -13 0 -7 4 -11 8
-8 4 2 10 0 14 -6 4 -6 -7 -9 -27 -7 -24 2 -33 8 -32 20 1 9 -5 17 -13 17 -9
0 -13 6 -9 15 3 8 1 15 -4 15 -13 0 -13 -23 0 -36 7 -7 6 -11 -4 -11 -8 0 -15
3 -14 6 0 3 -1 9 -2 14 -1 4 -3 12 -4 19 0 6 -8 13 -16 15 -9 3 -11 1 -5 -4
16 -13 16 -31 0 -37 -8 -3 -12 0 -9 7 2 7 -8 24 -23 37 -15 14 -21 17 -14 8
15 -19 2 -25 -16 -7 -15 15 -46 18 -60 6 -17 -13 -17 5 0 22 10 10 9 11 -5 6
-18 -7 -22 -21 -20 -60 1 -18 0 -17 -12 4 -8 15 -15 20 -19 12 -4 -8 -5 -7 -3
1 2 7 8 12 13 11 5 -1 9 7 9 16 0 15 -4 16 -17 8 -9 -6 -25 -7 -35 -3 -18 7
-17 9 6 21 l25 14 -32 -3 c-18 -2 -30 0 -28 5 3 4 1 11 -5 14 -6 4 -10 3 -9
-2 3 -20 -2 -25 -16 -13 -12 10 -16 9 -21 -4 -3 -9 -13 -16 -21 -16 -8 0 -12
4 -9 8 3 5 -1 9 -9 9 -10 0 -11 -5 -4 -19 12 -23 1 -23 -18 0 -11 13 -14 13
-10 2 3 -11 -3 -16 -19 -18 -13 -1 -24 3 -24 8 0 5 8 6 17 3 15 -6 16 -5 3 9
-12 13 -16 14 -23 2 -4 -7 -14 -11 -22 -8 -8 4 -12 11 -8 18 4 6 -1 5 -10 -3
-9 -7 -15 -16 -13 -20 3 -4 -4 -7 -14 -7 -13 0 -17 7 -15 23 1 13 -2 23 -6 23
-8 0 -13 -20 -11 -40 0 -3 -9 -7 -20 -7 -19 -2 -19 -1 -3 11 11 8 15 18 11 25
-6 9 -11 8 -19 -3 -7 -8 -21 -14 -32 -12 -11 2 -23 -2 -27 -8 -5 -7 -8 -4 -8
7 0 13 6 16 25 13 13 -3 27 0 31 5 9 16 -4 23 -19 11 -10 -9 -17 -8 -25 0 -9
9 -12 9 -12 0 0 -15 -32 -16 -47 -1 -7 7 -13 7 -17 0 -4 -5 -13 -8 -21 -4 -8
3 -15 0 -15 -6 0 -6 -5 -11 -11 -11 -5 0 -7 5 -3 12 5 7 3 8 -7 2 -8 -5 -17
-9 -21 -9 -3 0 -10 -4 -15 -9 -4 -5 -3 -6 3 -3 7 4 15 0 18 -9 6 -15 4 -15
-19 0 -23 15 -25 15 -25 0 0 -10 -3 -14 -7 -11 -3 4 -12 2 -20 -4 -7 -6 -13
-8 -13 -3 0 5 -5 2 -11 -6 -9 -12 -10 -11 -4 5 3 11 3 16 -1 12 -4 -4 -13 -2
-21 5 -11 9 -13 8 -11 -3 2 -8 -3 -13 -11 -11 -12 3 -12 0 -1 -13 11 -13 10
-15 -4 -9 -9 3 -16 11 -16 18 0 6 -4 5 -9 -3 -8 -13 -12 -13 -28 -1 -15 12
-15 11 2 -9 l20 -24 -22 12 c-23 12 -40 0 -28 -19 3 -5 0 -7 -9 -4 -8 3 -12
13 -9 22 3 11 2 13 -4 6 -4 -6 -16 -10 -26 -8 -9 1 -15 -2 -11 -7 3 -5 9 -7
13 -5 4 3 8 -1 8 -9 0 -12 -3 -12 -20 0 -17 12 -22 12 -34 -1 -18 -17 -37 -19
-27 -2 5 7 -5 3 -20 -10 -16 -12 -33 -19 -39 -15 -5 3 -8 2 -5 -3 3 -5 0 -15
-8 -22 -8 -7 -14 -10 -14 -6 0 4 -8 -3 -19 -14 -10 -12 -22 -18 -26 -14 -5 4
-5 -2 -1 -12 5 -15 4 -16 -7 -8 -15 13 -43 -1 -33 -17 5 -7 1 -8 -10 -4 -12 4
-15 3 -10 -5 5 -8 0 -12 -14 -12 -12 0 -19 -3 -17 -7 3 -5 -2 -14 -10 -22 -13
-12 -15 -11 -9 10 3 13 3 18 0 12 -3 -7 -13 -13 -22 -13 -15 0 -15 -2 -2 -11
11 -8 5 -9 -27 -7 -23 2 -41 1 -41 -2 1 -18 -4 -23 -12 -10 -8 13 -10 12 -10
-2 0 -10 -5 -18 -11 -18 -5 0 -8 4 -4 9 3 5 1 12 -4 16 -6 3 -8 -3 -6 -14 2
-11 -3 -22 -10 -25 -10 -3 -12 0 -9 12 5 14 4 15 -5 2 -6 -8 -11 -24 -11 -35
0 -15 -3 -17 -9 -7 -6 10 -10 9 -14 -7 -3 -12 -13 -21 -23 -21 -17 0 -16 -1 1
-14 18 -13 18 -14 -5 -12 -14 0 -29 6 -33 11 -5 6 -7 3 -3 -7 3 -10 1 -20 -5
-24 -6 -3 -3 -12 8 -20 14 -12 11 -11 -15 1 -32 15 -32 15 -42 -10 -5 -14 -17
-25 -26 -25 -13 0 -14 -3 -4 -15 12 -15 5 -39 -10 -30 -5 3 -12 0 -15 -6 -4
-5 -13 -8 -20 -5 -18 6 -27 -5 -15 -18 5 -7 5 -17 -2 -26 -8 -13 -9 -12 -5 2
4 12 0 16 -13 15 -14 -1 -16 -5 -9 -13 7 -8 6 -14 -1 -19 -6 -3 -7 -11 -4 -17
4 -6 2 -8 -4 -4 -6 3 -13 2 -16 -3 -3 -5 -22 -8 -41 -6 -29 2 -33 -1 -24 -12
7 -7 9 -17 5 -20 -4 -4 -12 -1 -17 7 -9 12 -10 11 -5 -4 4 -12 2 -17 -7 -13
-7 3 -22 -2 -32 -10 -20 -15 -19 -15 2 -9 22 7 27 -14 8 -31 -4 -4 -5 -2 -1 5
5 8 0 11 -16 9 -23 -4 -27 -12 -12 -25 4 -4 4 -1 -1 7 -6 10 -4 12 4 7 8 -6 9
-12 2 -20 -6 -7 -9 -15 -6 -17 2 -3 -5 -10 -15 -17 -12 -7 -20 -8 -20 -2 0 5
4 10 9 10 5 0 11 6 14 13 3 8 -1 14 -9 14 -7 0 -11 -4 -8 -8 2 -4 -1 -9 -6
-11 -6 -2 -12 -10 -13 -18 -2 -8 -8 -24 -14 -34 -10 -18 -11 -18 -19 5 l-8 24
-6 -25 c-4 -17 -12 -24 -24 -22 -13 2 -16 -1 -10 -10 6 -9 2 -9 -12 2 -10 8
-16 11 -12 6 9 -11 -29 -47 -52 -49 -20 -1 -22 -16 -5 -30 6 -5 -4 -7 -22 -5
-18 3 -30 1 -27 -3 2 -4 -6 -15 -18 -25 -14 -10 -17 -14 -6 -11 12 4 15 2 11
-8 -3 -8 -9 -12 -14 -9 -5 3 -9 0 -9 -6 0 -7 -6 -10 -14 -7 -10 4 -12 0 -9
-14 3 -11 1 -19 -5 -17 -5 2 -10 -1 -10 -5 -1 -11 -47 -47 -60 -47 -5 0 -17
-10 -28 -22 -19 -23 -19 -23 1 -8 17 12 17 11 -1 -6 -13 -12 -20 -25 -16 -30
4 -4 -1 -4 -10 -1 -17 6 -24 -9 -19 -37 1 -5 -5 -3 -14 4 -13 11 -15 10 -9 -4
4 -11 1 -16 -11 -16 -14 0 -15 -3 -6 -14 9 -11 9 -16 0 -22 -8 -5 -9 -3 -4 6
5 8 3 11 -6 8 -8 -3 -13 -12 -13 -21 1 -9 -3 -14 -8 -11 -13 8 -39 -27 -33
-45 4 -9 0 -11 -10 -7 -14 5 -19 -6 -18 -42 1 -10 -2 -10 -15 0 -10 9 -13 9
-9 1 4 -6 3 -14 -3 -18 -6 -4 -7 -12 -3 -18 4 -7 -2 -5 -12 3 -10 8 -16 11
-13 5 9 -16 -10 -57 -24 -49 -8 5 -9 2 -5 -9 3 -10 2 -17 -3 -17 -5 0 -12 -9
-15 -21 -4 -11 -9 -18 -12 -16 -7 8 -43 -26 -37 -35 3 -5 2 -7 -3 -6 -4 2 -10
-1 -12 -7 -9 -18 -26 -33 -34 -28 -4 2 -7 1 -6 -4 4 -16 -21 -64 -30 -58 -5 3
-13 0 -17 -6 -4 -7 -3 -9 4 -5 6 3 13 2 16 -3 3 -5 -1 -12 -10 -15 -9 -4 -14
-9 -11 -13 4 -3 -3 -15 -16 -25 -12 -11 -23 -24 -23 -29 -1 -5 -2 -16 -3 -25
-1 -9 -6 -12 -13 -8 -8 5 -7 0 2 -11 14 -17 13 -18 -2 -12 -17 6 -18 -18 -2
-45 4 -6 3 -8 -3 -5 -6 4 -14 0 -17 -9 -3 -8 -2 -13 2 -10 5 3 8 -10 8 -28 -1
-25 -5 -32 -15 -28 -10 4 -12 1 -5 -9 12 -20 14 -40 3 -33 -5 3 -6 11 -3 17 4
7 3 8 -1 4 -14 -12 -15 -37 -2 -37 7 0 5 -5 -3 -10 -13 -8 -13 -10 -1 -10 11
0 10 -4 -5 -16 -10 -8 -14 -13 -8 -10 7 3 15 -1 18 -10 9 -23 8 -24 -16 -34
-18 -7 -19 -9 -5 -9 9 -1 17 -6 17 -12 0 -5 -3 -8 -8 -6 -4 3 -7 -5 -7 -18 0
-13 3 -21 6 -19 4 2 10 -3 13 -12 3 -8 2 -12 -4 -9 -12 7 -14 -8 -3 -19 5 -4
9 -12 9 -17 1 -5 3 -10 4 -11 6 -8 6 -59 -1 -64 -4 -2 -6 5 -4 16 2 11 0 18
-5 15 -13 -8 -4 -40 11 -38 9 2 15 -7 15 -22 1 -14 -1 -23 -5 -21 -4 3 -7 -6
-7 -20 0 -15 5 -23 14 -21 8 1 16 -6 18 -16 2 -14 -1 -16 -11 -7 -10 8 -15 8
-21 -1 -4 -7 -3 -9 3 -6 6 4 13 -4 15 -18 5 -22 3 -24 -11 -13 -12 10 -12 7 3
-16 11 -18 13 -26 5 -21 -8 5 -11 5 -7 0 4 -4 2 -15 -5 -23 -8 -11 -3 -10 18
3 l30 19 -17 -20 c-19 -22 -24 -44 -10 -44 5 0 9 -7 9 -15 0 -8 -4 -12 -9 -9
-4 3 -8 1 -8 -4 0 -5 10 -14 22 -21 13 -6 15 -9 6 -7 -10 3 -20 0 -24 -6 -5
-7 -2 -8 6 -3 10 6 12 3 8 -13 -4 -14 -2 -20 5 -15 6 4 8 0 4 -9 -3 -9 0 -21
6 -27 8 -8 8 -11 -2 -11 -7 0 -9 -4 -6 -10 3 -6 14 -10 23 -10 15 0 15 2 2 10
-12 7 -10 9 7 7 12 0 19 -6 15 -12 -4 -5 -7 -16 -9 -24 -1 -8 -8 -18 -15 -23
-9 -6 -6 -7 10 -3 25 7 27 3 11 -26 -9 -17 -7 -21 10 -26 12 -3 21 -10 21 -17
0 -6 5 -4 10 4 5 8 10 10 10 4 0 -18 -13 -24 -27 -12 -11 8 -12 7 -7 -6 5 -14
22 -20 45 -18 3 1 6 -5 6 -13 0 -8 -4 -12 -9 -9 -16 10 -48 13 -43 3 4 -5 10
-7 15 -4 4 3 13 -2 20 -10 7 -8 17 -12 23 -8 6 3 7 1 3 -6 -4 -6 -12 -9 -17
-6 -5 4 -9 2 -9 -3 0 -6 7 -13 16 -16 8 -3 12 -10 9 -16 -3 -5 1 -10 9 -10 9
0 16 -7 16 -16 0 -9 -5 -12 -12 -8 -7 4 -4 -2 6 -15 11 -12 26 -19 33 -16 9 3
11 1 6 -8 -11 -18 -13 -38 -2 -31 5 3 7 9 5 13 -3 4 8 7 24 6 22 0 26 -3 20
-16 -21 -38 -3 -62 52 -68 4 -1 9 -9 12 -18 8 -22 71 -54 91 -47 8 4 15 1 15
-6 0 -6 -4 -9 -8 -6 -5 3 -9 -1 -9 -9 0 -8 4 -12 9 -9 4 3 8 -2 8 -12 0 -13 3
-14 15 -4 12 10 17 8 25 -11 10 -23 10 -23 6 -1 -2 12 0 22 5 22 5 0 9 -4 9
-10 0 -5 6 -7 14 -4 8 3 12 13 9 22 -4 14 -3 15 5 2 8 -10 8 -18 0 -27 -6 -8
-9 -15 -7 -16 2 -1 13 -9 23 -17 13 -10 17 -10 12 -2 -4 7 -2 12 7 12 8 0 21
10 30 22 14 22 15 22 14 3 -2 -14 3 -19 17 -17 15 3 16 1 5 -12 -12 -13 -16
-13 -25 -1 -6 8 -14 12 -17 8 -10 -10 -8 -25 2 -18 5 3 13 1 16 -5 5 -8 11 -7
21 1 11 9 14 8 14 -5 0 -10 5 -14 11 -11 6 4 8 13 5 21 -3 8 0 11 8 8 7 -3 13
-11 13 -19 0 -8 -4 -12 -8 -10 -4 3 -9 -2 -13 -10 -9 -25 18 -12 31 15 9 18
12 20 13 8 0 -10 5 -18 10 -18 6 0 10 8 11 18 0 11 4 7 11 -11 9 -25 28 -29
28 -6 0 6 -4 8 -8 5 -5 -3 -9 1 -9 8 0 12 16 14 37 6 3 -1 9 -2 13 -1 5 1 6
-3 2 -9 -3 -6 -10 -8 -14 -6 -4 3 -8 -2 -8 -10 0 -10 4 -11 11 -4 14 14 29 13
20 -2 -4 -7 -3 -8 5 -4 6 4 9 17 6 29 -2 12 -2 16 1 9 3 -6 10 -10 14 -7 5 3
12 0 16 -6 5 -8 3 -9 -7 -4 -8 5 -11 4 -6 0 11 -13 46 -13 44 -1 -1 6 -6 14
-12 18 -6 5 -6 8 2 8 7 0 17 -8 22 -18 10 -16 10 -16 11 2 0 15 3 16 15 6 13
-11 14 -10 9 5 -5 13 -4 16 4 11 7 -4 12 -2 12 5 0 9 3 9 14 0 12 -10 13 -9 9
7 -4 16 -1 19 21 15 14 -3 24 -9 21 -12 -2 -4 2 -8 10 -8 8 0 12 4 9 9 -3 4
-1 8 5 8 5 0 12 -6 15 -12 3 -7 3 -2 -1 12 -5 22 -4 23 10 12 9 -8 13 -21 10
-30 -3 -9 -3 -14 1 -10 4 3 8 12 10 20 3 24 16 37 31 31 22 -8 18 -22 -4 -18
-14 3 -18 -1 -14 -12 5 -12 7 -12 14 -1 5 7 9 9 9 4 0 -5 7 -3 15 4 8 7 12 16
9 21 -3 5 2 6 11 3 11 -5 13 -10 5 -19 -8 -9 -8 -15 0 -20 6 -4 9 -1 8 7 -2 7
3 12 9 11 8 -2 11 7 9 25 -2 18 2 29 10 29 6 0 10 -6 8 -12 -3 -6 2 -12 11
-12 10 0 14 6 10 16 -3 9 4 5 14 -9 19 -24 20 -24 34 -6 13 18 14 18 12 -2 -1
-12 -5 -25 -10 -29 -4 -5 -5 -3 -2 3 4 7 -2 10 -18 8 -14 -1 -23 1 -21 5 3 4
-6 7 -19 7 -18 0 -22 -3 -14 -13 6 -7 16 -11 22 -10 7 1 11 -4 9 -12 -2 -11 0
-12 11 -3 7 6 23 10 36 7 14 -2 19 0 15 7 -5 8 -1 9 11 5 9 -4 24 -2 31 4 11
9 14 8 14 -1 0 -10 3 -10 15 0 13 11 14 10 9 -4 -4 -10 -13 -15 -20 -12 -7 3
-16 0 -20 -6 -4 -7 -3 -8 4 -4 7 4 12 3 12 -2 0 -6 9 -8 20 -5 11 3 17 10 13
17 -4 6 1 5 10 -3 11 -9 17 -10 17 -2 0 6 5 11 12 11 9 0 9 -3 0 -12 -7 -7
-12 -21 -11 -32 0 -12 3 -15 6 -8 2 6 8 10 12 8 4 -3 13 0 21 6 12 8 12 9 -2
4 -10 -3 -18 -1 -18 4 0 13 27 13 35 0 4 -6 10 -8 14 -6 4 3 8 -1 8 -9 0 -11
-4 -12 -14 -4 -8 7 -13 8 -13 1 0 -9 19 -20 38 -22 4 -1 18 -8 31 -17 13 -8
21 -10 17 -5 -10 16 15 26 26 11 7 -10 7 -7 3 8 -5 18 -3 22 9 17 9 -3 14 -9
11 -13 -2 -4 2 -8 10 -8 10 0 11 5 5 18 -9 16 11 35 33 30 4 -1 7 7 5 16 -2
10 3 18 12 18 17 0 21 26 5 38 -6 5 -2 6 9 3 14 -5 17 -2 12 11 -4 10 -4 14 0
10 4 -4 14 -1 22 6 13 10 14 9 7 -2 -5 -10 -4 -12 4 -7 7 5 10 2 9 -6 -2 -8 6
-13 19 -12 13 1 21 -2 18 -6 -2 -4 2 -7 10 -7 8 0 12 4 9 9 -3 5 2 19 13 31
12 14 13 18 2 9 -9 -6 -20 -8 -24 -4 -5 4 -5 1 -1 -6 5 -8 1 -11 -13 -9 -23 4
-41 17 -23 17 7 0 12 5 12 11 0 6 -5 7 -12 2 -25 -15 -51 -14 -45 2 4 8 -3 21
-16 30 -12 8 -16 15 -9 15 7 0 11 3 9 8 -3 4 2 14 11 22 14 13 15 12 8 -5 -12
-32 -12 -37 3 -43 8 -2 11 0 7 6 -6 10 18 42 32 42 17 -1 34 -18 23 -24 -6 -4
-11 -2 -11 3 0 6 -5 11 -10 11 -6 0 -9 -6 -8 -12 2 -7 -4 -11 -12 -10 -8 2
-12 0 -8 -3 4 -4 3 -16 -3 -26 -7 -15 -6 -17 6 -13 8 3 13 10 10 14 -3 5 -1
11 5 15 5 3 10 1 10 -6 0 -8 5 -6 13 5 12 16 14 16 31 -3 11 -12 24 -21 29
-21 6 0 2 6 -9 14 -18 14 -17 15 11 12 16 -2 31 -9 33 -17 3 -11 1 -10 -7 1
-9 13 -11 12 -11 -4 0 -11 -8 -28 -17 -39 -13 -15 -14 -18 -3 -12 10 6 9 2 -3
-12 -18 -21 -18 -21 3 -28 12 -4 19 -9 17 -12 -3 -2 -15 0 -26 7 -15 7 -21 7
-21 0 0 -6 7 -13 15 -16 13 -5 12 -8 -1 -22 -15 -14 -15 -17 2 -29 10 -7 13
-13 7 -13 -24 0 -20 -26 4 -28 15 -1 22 2 17 9 -3 6 5 3 20 -6 15 -10 24 -20
22 -23 -3 -3 -12 1 -20 7 -10 8 -16 9 -21 1 -3 -5 1 -10 9 -10 9 0 16 -5 16
-12 0 -6 9 -3 20 7 11 10 20 14 20 10 0 -5 12 2 27 16 28 24 28 24 8 0 -20
-23 -20 -23 0 -20 11 2 23 8 26 12 3 5 9 2 12 -7 4 -9 1 -15 -5 -13 -7 1 -12
-8 -13 -20 0 -12 -4 -25 -9 -30 -5 -5 -6 -3 -2 4 4 8 1 13 -8 13 -10 0 -13 -7
-11 -20 2 -11 1 -19 -3 -17 -4 1 -20 -11 -37 -27 -16 -16 -24 -26 -16 -21 9 5
12 4 7 -3 -4 -6 -14 -8 -23 -5 -10 4 -14 2 -10 -4 4 -6 0 -16 -8 -23 -13 -11
-15 -10 -10 6 4 13 2 12 -6 -3 -7 -13 -20 -25 -31 -29 -10 -3 -26 -16 -34 -30
-9 -13 -20 -24 -26 -24 -12 0 -108 -96 -108 -109 0 -5 -10 -17 -22 -25 -12 -9
-19 -16 -14 -16 5 0 -3 -11 -18 -25 -15 -14 -22 -25 -16 -25 7 0 6 -5 -2 -14
-7 -8 -16 -12 -20 -10 -4 2 -10 -1 -14 -7 -4 -7 -3 -9 4 -5 6 3 13 2 17 -4 3
-5 1 -10 -5 -10 -6 0 -8 -4 -5 -10 4 -6 -1 -7 -11 -3 -14 5 -16 3 -11 -11 4
-10 3 -15 -3 -11 -9 6 -15 -8 -11 -29 1 -5 -5 -6 -14 -2 -9 3 -13 2 -10 -4 3
-6 1 -10 -4 -10 -6 0 -11 -5 -11 -11 0 -5 5 -7 12 -3 7 4 8 3 4 -4 -4 -7 -14
-12 -22 -12 -9 0 -12 -5 -8 -12 4 -6 -1 -17 -11 -25 -11 -7 -15 -13 -11 -13 5
0 2 -8 -5 -17 -8 -9 -9 -14 -3 -10 6 3 11 0 11 -8 0 -8 -4 -12 -9 -9 -4 3 -8
-2 -8 -11 0 -9 4 -14 8 -11 12 7 10 -38 -2 -46 -8 -5 -7 -8 1 -8 6 0 19 7 27
16 9 8 16 11 16 5 0 -5 -4 -13 -10 -16 -5 -3 -10 -12 -9 -18 0 -9 2 -9 6 1 10
24 21 11 18 -23 -1 -19 1 -33 4 -29 3 3 6 11 6 16 0 6 7 13 15 15 9 3 11 1 5
-4 -20 -15 -10 -50 23 -78 18 -15 36 -25 39 -21 4 3 1 6 -7 6 -10 0 -10 3 0
15 10 12 8 14 -7 11 -12 -3 -19 2 -19 13 0 10 6 18 12 18 7 0 9 -7 6 -16 -5
-14 -4 -14 13 -1 12 9 16 10 11 2 -6 -9 -1 -11 19 -8 15 3 24 2 20 -2 -3 -4
-11 -8 -16 -8 -5 -1 -13 -2 -19 -3 -16 -2 0 -30 21 -36 11 -4 17 -11 14 -16
-8 -11 8 -12 20 -1 6 5 20 -1 33 -14 17 -16 20 -24 11 -30 -8 -5 -9 -3 -5 5 6
8 2 11 -10 9 -11 -2 -18 2 -16 10 1 6 -2 12 -8 12 -13 0 -13 -17 0 -25 6 -4 7
-11 4 -17 -4 -7 -2 -8 5 -4 6 4 19 2 28 -6 14 -11 16 -11 8 1 -6 11 -4 13 9 8
14 -6 17 -3 12 10 -6 14 -5 15 5 6 10 -10 9 -16 -1 -28 -15 -19 -9 -28 14 -19
9 3 13 11 9 18 -3 6 3 3 14 -7 11 -10 26 -17 33 -15 7 2 15 -3 18 -11 3 -11 0
-12 -14 -6 -11 4 -24 8 -31 8 -7 0 -9 5 -6 10 3 6 1 7 -6 3 -6 -4 -9 -12 -5
-17 3 -5 9 -7 14 -4 5 3 15 -2 24 -10 9 -10 17 -11 21 -5 4 6 11 8 16 4 6 -3
5 -12 -3 -22 -7 -10 0 -6 15 7 22 20 29 22 40 11 8 -9 8 -11 0 -6 -6 3 -14 2
-17 -2 -4 -7 42 -8 104 0 8 1 22 11 32 22 14 18 19 19 30 8 11 -11 10 -13 -6
-10 -12 2 -20 -4 -22 -15 -2 -14 0 -16 11 -7 8 7 20 8 26 4 8 -4 9 -3 5 4 -10
16 7 15 23 0 10 -9 12 -9 7 -1 -9 17 15 28 25 12 5 -9 7 -2 4 19 -2 18 0 30 4
28 4 -3 13 -1 21 4 9 5 19 5 27 -2 8 -6 16 -8 20 -4 3 3 1 6 -5 6 -7 0 -12 9
-12 20 0 11 4 20 10 20 5 0 7 -7 4 -15 -4 -8 -1 -15 4 -15 15 0 28 23 15 27
-6 2 -19 11 -29 19 -18 14 -18 15 2 5 15 -7 25 -7 34 2 10 9 11 9 6 0 -4 -7
-2 -13 4 -13 6 0 9 -4 5 -9 -5 -9 10 -9 42 1 6 1 19 -6 27 -17 11 -14 14 -15
10 -4 -4 14 2 16 42 14 29 -2 42 0 34 5 -8 5 -18 6 -24 3 -5 -3 -6 -2 -3 4 4
6 -9 9 -31 8 -32 -1 -38 2 -40 19 -1 17 1 18 8 6 8 -13 10 -13 10 -1 0 11 4
10 13 -4 10 -13 16 -15 21 -6 6 9 13 8 28 -6 11 -10 22 -17 24 -15 2 1 5 2 7
1 24 -7 35 -5 30 7 -7 20 7 17 23 -3 13 -17 14 -17 8 2 -6 20 -5 20 10 1 9
-11 16 -14 16 -8 0 7 5 12 11 12 5 0 7 -6 3 -12 -6 -10 -5 -10 8 -1 8 7 19 9
23 5 5 -4 5 -2 2 4 -4 7 2 14 13 17 11 3 23 13 27 24 9 26 22 32 57 27 17 -2
25 0 19 4 -9 6 -4 16 18 35 25 22 29 23 24 7 -5 -15 -3 -18 10 -14 9 4 14 13
11 21 -3 8 -2 12 3 8 5 -3 11 -2 14 2 2 5 3 3 1 -4 -4 -15 26 -10 36 7 5 7 16
15 24 16 9 1 14 -1 11 -5 -2 -4 2 -8 9 -8 8 0 12 6 9 14 -3 7 -10 13 -16 13
-6 0 -7 3 -4 7 4 3 17 -3 30 -15 17 -16 26 -18 37 -11 13 9 12 10 -2 6 -20 -7
-30 14 -16 34 8 11 9 10 4 -4 -5 -15 -1 -18 17 -15 14 2 22 10 22 22 0 11 7
21 15 23 13 4 13 3 0 -6 -8 -5 -11 -13 -7 -17 4 -4 19 3 34 17 15 13 22 17 15
8 -6 -9 -8 -19 -4 -23 4 -4 3 -7 -3 -5 -17 4 -45 -13 -39 -23 4 -7 9 -6 14 1
4 7 16 13 28 14 11 0 19 4 16 8 -2 4 3 10 11 13 9 3 18 -1 21 -9 10 -25 21
-17 17 12 -3 25 -2 26 6 7 11 -24 33 -42 29 -23 -2 6 3 14 10 16 8 3 10 -1 6
-11 -3 -9 -1 -16 5 -16 6 0 10 3 10 8 -3 19 2 23 16 12 13 -11 14 -10 9 4 -4
10 -13 15 -21 12 -8 -3 -11 -2 -8 3 3 6 14 9 25 8 10 -1 16 -5 14 -9 -3 -4 0
-8 6 -8 6 0 8 -5 4 -12 -4 -7 -3 -8 5 -4 6 4 9 12 6 17 -5 8 16 14 38 10 4 0
7 3 7 8 0 4 10 8 23 7 15 -1 21 4 19 14 -3 12 -1 12 9 3 15 -15 10 -22 -21
-28 -12 -2 -25 -7 -28 -10 -9 -8 82 6 92 15 5 5 19 4 33 -1 16 -6 22 -5 18 1
-3 6 -1 10 5 10 6 0 9 4 5 9 -3 6 6 6 24 1 23 -6 29 -5 25 5 -3 7 4 18 15 24
17 10 20 9 15 -4 -3 -8 -11 -12 -18 -8 -7 4 -7 1 1 -9 7 -8 12 -17 10 -19 -1
-2 0 -3 3 -1 3 2 5 7 6 10 3 28 17 41 33 32 13 -6 18 -5 18 5 0 8 -4 12 -8 9
-4 -2 -10 0 -14 5 -3 6 4 8 17 6 12 -3 31 3 42 13 21 17 21 17 3 -4 -17 -20
-17 -22 0 -35 16 -13 17 -12 5 2 -10 14 -10 18 2 22 9 4 18 1 22 -5 5 -7 2 -8
-6 -3 -9 5 -11 4 -6 -4 4 -6 12 -8 18 -5 8 5 9 1 5 -12 -7 -18 -6 -18 7 -1 15
19 31 24 20 5 -5 -7 -3 -8 6 -3 10 6 9 11 -5 21 -10 7 -22 11 -26 8 -5 -3 -9
0 -9 5 0 14 27 14 35 1 7 -11 70 -8 81 3 3 3 13 3 22 0 14 -4 13 -2 -2 11 -18
14 -18 15 2 13 20 -1 23 -12 8 -35 -4 -7 -5 -16 -2 -19 3 -4 6 -1 6 6 0 7 6
11 14 8 19 -8 28 3 15 19 -7 8 -6 14 2 20 7 4 9 3 6 -3 -4 -6 0 -14 9 -17 13
-5 14 -9 4 -21 -11 -13 -10 -14 4 -9 10 4 15 12 12 19 -3 8 1 16 9 19 10 3 12
0 8 -12 -3 -9 -2 -14 2 -9 5 4 17 -1 28 -10 20 -18 20 -18 3 9 -13 20 -14 28
-5 34 7 4 10 3 7 -2 -3 -5 1 -15 9 -23 13 -12 14 -11 8 9 -5 16 -4 21 6 18 8
-3 13 -15 11 -27 -3 -22 -3 -22 16 -4 14 14 16 22 8 33 -9 13 -9 13 5 3 9 -7
18 -12 20 -10 3 1 -3 -6 -13 -15 -18 -16 -18 -17 1 -15 11 0 17 5 14 11 -4 5
1 7 11 3 14 -5 17 -3 12 8 -3 8 -1 15 4 15 6 0 10 -6 10 -12 0 -10 3 -9 9 1 5
7 14 11 19 7 7 -4 9 1 7 14 -5 27 3 26 15 -2 6 -16 9 -18 9 -7 1 9 8 20 17 23
15 6 15 4 3 -10 -13 -16 -12 -16 9 -5 12 6 30 11 39 9 9 -2 18 4 20 12 4 12 3
12 -5 2 -7 -11 -10 -11 -15 3 -4 9 -3 13 2 10 5 -3 12 -1 16 5 3 5 12 10 18
10 7 0 6 -4 -3 -11 -12 -8 -11 -9 5 -6 11 2 19 8 18 15 -2 6 4 9 13 5 13 -5
13 -8 -3 -27 -18 -21 -18 -21 3 -3 11 9 24 14 27 10 4 -3 7 -4 7 0 0 3 -10 16
-22 27 -20 18 -20 20 -4 14 15 -6 17 -4 11 7 -5 8 -5 11 1 6 5 -5 9 -14 9 -20
0 -14 43 -19 51 -6 2 4 11 6 18 3 18 -7 61 30 52 45 -4 6 -12 8 -18 5 -7 -4
-8 -2 -4 4 5 9 12 9 26 0 10 -7 16 -16 13 -22 -3 -5 -1 -6 6 -2 9 6 9 11 0 22
-8 10 -8 14 -1 12 6 -2 18 6 27 17 9 11 14 14 10 8 -9 -19 4 -36 18 -24 7 5
17 10 22 11 6 1 9 6 7 11 -1 5 5 9 13 9 8 0 15 5 15 11 0 5 -6 7 -12 3 -8 -4
-10 -3 -5 2 8 9 12 10 38 13 8 1 7 7 -2 19 -12 15 -12 16 2 5 9 -7 18 -12 20
-10 3 1 -3 -6 -13 -15 -18 -16 -18 -17 1 -15 11 0 18 4 15 8 -2 4 5 9 16 12
11 3 20 13 20 22 0 9 5 13 10 10 6 -4 8 -10 5 -15 -3 -5 -1 -12 5 -15 6 -4 9
-1 8 5 -2 7 5 14 15 15 11 2 22 6 25 10 4 3 -6 4 -21 1 -16 -3 -25 -1 -22 5 4
5 10 7 14 5 11 -7 25 6 38 34 11 24 11 24 8 -7 -3 -25 0 -31 12 -26 12 5 12 7
1 14 -12 8 -11 10 11 13 5 0 13 5 18 10 4 5 3 6 -3 3 -7 -4 -15 0 -18 9 -3 8
-2 12 3 9 5 -3 12 4 16 15 4 11 11 17 17 14 6 -4 5 -9 -3 -15 -7 -4 -10 -11
-7 -15 4 -3 14 1 22 9 12 12 13 17 3 20 -8 3 0 16 21 35 17 17 32 26 32 19 0
-7 5 -5 10 5 6 9 18 14 29 11 10 -3 22 0 25 6 5 7 1 8 -9 5 -11 -5 -14 -2 -9
10 3 9 11 13 17 9 6 -4 8 0 5 9 -4 8 0 15 8 15 7 0 11 -4 8 -9 -3 -4 0 -8 5
-8 6 0 11 7 11 15 0 8 9 19 21 25 11 7 18 17 16 24 -3 7 1 13 9 13 7 0 11 -4
8 -8 -2 -4 1 -11 7 -15 7 -4 9 -3 5 4 -3 5 0 13 6 15 10 4 10 6 1 6 -7 1 -13
6 -13 12 0 6 6 9 14 6 19 -7 33 12 30 40 0 12 3 20 7 17 5 -3 9 0 9 5 0 6 5
11 12 11 6 0 4 -8 -6 -19 -10 -11 -13 -22 -8 -25 5 -3 15 1 22 9 7 8 9 15 5
15 -4 0 -2 6 5 14 6 8 19 12 28 9 14 -4 15 -3 2 6 -16 11 -15 12 20 29 l25 11
-24 -3 c-13 -1 -30 -11 -37 -21 -8 -10 -14 -15 -14 -9 0 17 17 35 35 38 11 2
21 8 23 14 2 8 -3 10 -15 5 -10 -3 -15 -3 -11 1 3 4 14 9 25 11 10 1 17 8 15
15 -1 6 2 9 8 5 8 -5 7 -11 -1 -21 -7 -8 -7 -14 -1 -14 13 0 24 29 15 43 -4 7
0 8 11 4 9 -4 14 -3 11 2 -3 5 -1 12 5 16 6 4 8 11 5 16 -4 5 -1 9 4 9 6 0 11
5 11 11 0 5 -5 7 -12 3 -7 -5 -8 -3 -4 5 5 7 14 10 21 7 10 -3 12 2 9 20 -2
13 0 24 6 24 5 0 10 -5 10 -12 0 -6 2 -9 5 -7 8 9 -7 49 -17 43 -5 -3 -4 3 3
14 8 13 19 18 33 14 21 -4 21 -4 1 11 -19 14 -19 16 -2 22 9 4 17 16 17 27 0
13 4 17 13 12 9 -6 9 -5 0 7 -9 12 -10 18 -1 27 8 8 8 15 -1 26 -8 10 -9 16
-1 21 6 4 9 1 8 -6 -2 -6 2 -13 8 -16 7 -2 14 11 18 32 5 24 12 35 24 35 10 0
13 3 7 8 -16 12 -16 32 0 32 15 0 19 11 16 39 -2 8 3 10 11 5 7 -4 10 -4 6 1
-4 4 -2 15 5 23 9 13 9 14 0 8 -7 -4 -13 -2 -13 3 0 6 6 11 14 11 8 0 18 5 22
12 5 8 1 9 -12 4 -16 -6 -17 -5 -6 6 7 7 17 14 23 14 19 3 20 4 10 22 -6 12
-6 23 1 33 8 11 9 11 4 -3 -3 -10 -2 -20 3 -22 4 -3 8 0 8 7 0 7 4 21 9 31 5
14 4 17 -4 12 -8 -5 -10 -2 -6 8 3 9 10 14 14 11 5 -3 11 -1 15 5 3 5 0 10 -7
10 -10 0 -10 2 1 9 8 5 11 16 7 26 -5 15 -4 16 9 5 13 -11 16 -11 13 1 -2 8
-7 17 -13 21 -5 4 1 8 15 8 14 0 20 4 14 8 -5 4 -10 17 -10 29 0 16 4 19 12
12 8 -6 14 -5 17 5 4 9 2 18 -3 21 -13 8 -13 25 1 25 5 0 7 -5 3 -12 -5 -7 -3
-8 5 -4 7 5 10 11 7 14 -3 3 -1 11 5 19 6 7 8 13 3 13 -5 0 -3 4 5 9 13 8 13
12 0 27 -9 11 -9 15 -1 10 7 -4 12 -2 12 4 0 6 5 8 12 4 7 -4 8 -3 4 5 -4 6
-13 8 -19 4 -7 -4 -6 0 2 10 7 9 11 24 7 32 -3 9 -2 13 4 10 6 -3 10 -1 10 5
0 6 4 9 9 6 5 -4 5 9 1 30 -7 30 -6 35 7 29 13 -4 14 -3 4 9 -9 11 -9 16 0 21
8 6 8 10 -2 16 -12 7 -12 10 0 21 10 10 12 10 7 1 -10 -19 -1 -16 15 4 8 9 9
14 3 10 -7 -4 -18 1 -25 10 -12 15 -12 16 6 9 11 -4 16 -4 12 0 -4 4 -1 14 6
22 10 13 8 14 -13 8 -23 -7 -23 -6 5 13 19 13 24 21 14 21 -9 0 -16 7 -16 15
0 8 4 12 8 10 3 -3 9 4 12 15 3 11 0 23 -5 27 -6 3 -8 1 -4 -5 3 -6 2 -13 -3
-16 -5 -4 -8 2 -7 11 2 9 8 19 15 21 9 3 9 7 0 18 -10 12 -9 13 5 8 9 -3 16
-1 16 5 0 6 -4 11 -8 11 -4 0 -8 13 -7 29 0 21 3 27 11 20 8 -7 11 -4 10 8 0
10 -5 21 -11 25 -6 5 -5 8 3 8 10 0 10 5 2 20 -9 16 -8 18 5 14 13 -5 14 -2 5
20 -5 14 -7 26 -4 26 4 0 -1 12 -11 26 -10 15 -12 23 -4 19 9 -6 11 -3 6 9 -5
13 -3 17 7 13 10 -4 13 -1 9 8 -3 8 -8 13 -12 10 -4 -2 -8 2 -8 10 0 8 7 15
16 15 14 1 14 2 -1 11 -10 5 -15 16 -11 24 3 9 -1 23 -8 32 -10 12 -10 15 -1
9 8 -5 12 0 12 14 0 13 -4 19 -12 14 -6 -4 -8 -3 -4 4 3 5 0 13 -6 16 -7 3 -2
3 12 -1 22 -5 23 -4 11 10 -7 9 -18 14 -24 10 -6 -3 -7 -1 -3 6 4 6 11 9 15 6
5 -2 9 7 9 20 0 14 -4 25 -9 25 -5 0 -8 -5 -6 -11 1 -6 -5 -14 -13 -16 -13 -4
-13 -3 0 6 13 9 13 11 1 11 -12 0 -12 2 1 13 18 14 30 45 20 51 -12 7 -14 66
-2 66 5 0 10 4 10 8 0 5 -7 9 -15 9 -8 0 -12 -3 -10 -6 2 -4 -3 -15 -11 -26
-8 -10 -14 -14 -14 -9 0 6 3 14 8 18 4 4 8 12 8 17 1 5 2 13 3 18 0 5 9 12 19
15 9 3 5 4 -10 2 -15 -2 -25 1 -22 5 3 5 13 9 22 9 15 1 14 3 -3 16 -19 16
-19 16 5 9 23 -7 24 -7 10 10 -9 11 -10 16 -2 11 6 -4 12 -2 12 3 0 6 -8 11
-17 12 -13 0 -12 3 6 10 19 8 21 12 11 24 -10 12 -10 15 1 15 11 0 11 2 -1 10
-11 7 -11 10 -2 10 7 0 11 4 7 9 -3 5 3 12 12 14 13 3 12 5 -6 6 l-23 1 23 20
c21 17 21 19 4 13 -18 -6 -18 -5 -6 10 7 9 17 14 22 11 5 -3 6 2 2 11 -4 13
-7 14 -14 3 -6 -9 -8 -6 -6 10 1 15 6 21 16 17 10 -4 9 1 -5 16 -10 12 -13 19
-6 15 15 -9 16 10 1 19 -7 5 -4 14 8 28 10 11 12 17 4 12 -10 -6 -11 -2 -6 16
11 34 12 109 2 109 -5 0 -4 6 2 14 9 11 9 15 -1 19 -9 4 -10 6 -1 6 7 1 10 8
6 18 -5 12 -3 14 7 8 9 -5 11 -4 6 4 -4 6 -2 20 5 29 10 12 7 11 -11 -3 l-24
-20 24 34 c13 19 17 31 9 26 -11 -6 -12 -5 -1 6 14 16 16 43 2 34 -5 -3 -10
-4 -10 0 0 3 10 10 23 15 18 7 19 9 4 9 -17 1 -17 2 -2 17 15 15 15 18 -1 41
-9 14 -11 23 -6 19 6 -3 13 -2 17 4 3 5 2 10 -4 10 -6 0 -7 7 -4 17 5 12 3 14
-7 8 -10 -6 -11 -4 -4 6 13 21 12 41 -4 68 -8 13 -10 21 -5 18 5 -3 9 5 9 18
0 13 -4 21 -10 18 -5 -4 -7 1 -3 10 4 10 0 17 -11 20 -12 3 -10 5 6 6 21 1 22
2 8 17 -19 18 -21 38 -3 28 9 -6 9 -5 0 8 -7 8 -10 18 -6 21 3 4 1 7 -7 7 -10
0 -10 3 0 15 10 12 10 15 0 15 -9 0 -9 4 1 17 8 9 9 14 3 10 -7 -4 -12 7 -13
31 -2 20 -3 45 -4 55 -1 9 -6 17 -12 17 -5 0 -4 4 4 9 9 6 10 11 2 15 -7 5 -7
15 0 32 7 21 7 25 -4 21 -11 -4 -12 3 -7 34 4 22 3 42 -1 45 -5 3 -7 10 -4 15
4 5 3 9 -2 9 -4 0 -9 16 -9 36 -1 22 2 31 7 23 4 -7 6 -16 3 -20 -2 -4 0 -10
5 -14 6 -3 8 4 5 17 -3 13 -6 28 -6 35 -1 7 -5 10 -10 7 -4 -3 -7 5 -6 18 1
13 -2 33 -6 46 -5 15 -3 22 6 22 9 1 8 4 -3 13 -15 11 -15 14 -1 26 13 13 13
16 -2 27 -13 9 -14 13 -4 17 11 4 11 6 0 6 -8 1 -10 6 -5 14 12 19 12 38 1 30
-7 -4 -9 2 -5 16 3 14 0 24 -8 27 -7 3 -13 15 -13 27 0 34 -6 51 -22 65 -13
12 -13 13 0 7 12 -5 12 -4 -1 7 -9 7 -14 18 -12 24 2 7 -3 19 -12 27 -11 11
-12 18 -4 23 9 5 6 11 -6 21 -11 7 -15 13 -11 13 5 0 2 8 -5 17 -12 14 -12 15
-1 9 12 -7 12 -4 1 15 -7 13 -12 28 -11 32 1 4 -8 3 -20 -4 l-23 -12 19 22
c20 22 20 22 -2 28 -12 3 -22 10 -22 15 0 5 4 6 10 3 6 -3 7 1 3 10 -5 13 -7
14 -14 3 -7 -10 -9 -10 -9 2 0 9 6 22 13 29 10 11 7 12 -13 6 -20 -6 -23 -5
-13 6 10 10 10 16 -3 30 -16 17 -11 44 6 34 5 -3 12 -1 15 5 4 6 1 9 -6 8 -6
-2 -14 3 -16 10 -3 8 1 10 11 6 12 -5 15 -2 10 10 -3 9 -11 13 -18 9 -6 -3 -8
-3 -4 2 4 4 0 14 -10 22 -15 13 -15 13 6 3 24 -12 29 -2 10 19 -7 8 -8 11 -3
8 6 -3 11 3 11 13 0 10 -5 16 -10 13 -5 -4 -7 1 -3 9 3 9 0 21 -6 27 -9 9 -8
11 6 5 17 -6 18 -5 6 14 -7 11 -18 18 -24 14 -5 -3 -4 2 4 11 11 13 11 23 3
41 -8 17 -7 27 1 36 9 10 8 12 -5 7 -12 -4 -15 -2 -11 8 3 8 10 12 17 8 8 -5
7 -2 -1 8 -6 8 -10 27 -9 42 3 21 1 25 -10 16 -10 -8 -13 -6 -11 10 1 15 6 20
17 16 11 -5 12 -3 3 6 -6 6 -9 18 -6 25 3 9 -2 14 -13 14 -15 0 -16 2 -5 9 18
12 23 39 9 48 -7 4 -8 1 -3 -7 5 -8 4 -11 -3 -7 -12 8 -4 48 12 60 6 5 0 6
-14 2 -23 -5 -23 -5 -7 8 9 8 17 17 17 20 0 4 -8 3 -17 0 -16 -6 -16 -5 -4 10
11 14 11 17 0 17 -11 0 -11 2 1 10 8 5 10 10 3 10 -12 0 -11 39 2 60 5 9 4 11
-3 6 -12 -7 -16 5 -13 33 2 7 -2 10 -8 7 -5 -4 -12 -2 -15 3 -4 5 -1 13 5 17
8 5 9 3 4 -7 -7 -12 -5 -12 6 -1 16 14 -6 36 -25 25 -5 -3 -6 -1 -2 6 4 6 11
9 16 6 9 -6 8 14 -2 30 -3 6 -9 25 -13 43 -4 21 -11 30 -18 25 -7 -4 -6 1 2
10 11 14 11 17 0 17 -11 0 -11 2 1 10 12 8 12 10 1 10 -11 0 -11 3 0 17 8 9 9
14 3 10 -7 -4 -17 0 -24 8 -11 13 -10 14 6 9 14 -4 13 -1 -6 15 -14 11 -20 21
-15 21 6 0 3 5 -5 11 -12 8 -9 9 10 4 17 -4 21 -3 11 3 -7 5 -11 15 -7 20 4 7
-2 9 -15 7 -17 -3 -19 -2 -9 10 6 8 8 20 4 26 -4 7 -3 9 2 6 5 -3 10 3 10 14
0 12 -4 15 -10 9 -6 -6 -14 -10 -19 -10 -5 0 -1 7 7 16 11 11 13 21 7 32 -6
11 -4 20 7 29 15 12 15 12 -2 6 -13 -4 -17 -3 -12 5 4 7 2 12 -6 12 -9 0 -9 3
2 10 10 6 11 10 2 10 -6 0 -11 3 -11 8 4 21 -2 43 -10 38 -15 -10 -7 28 9 42
13 11 13 12 0 10 -15 -3 -17 2 -19 55 0 16 -5 26 -9 23 -5 -3 -9 1 -9 9 0 8 4
12 9 9 4 -3 8 0 8 5 0 6 -5 11 -11 11 -6 0 -9 7 -5 15 3 8 -2 19 -12 24 -10 6
-12 11 -4 11 6 0 12 12 12 26 0 16 -4 23 -12 18 -7 -4 -8 -3 -4 4 15 25 15 52
0 52 -8 0 -12 5 -9 10 4 6 11 8 16 5 5 -3 6 1 3 9 -3 9 -10 14 -14 11 -5 -3
-11 -1 -14 4 -4 5 -1 13 5 17 8 5 9 3 4 -7 -5 -8 -4 -10 0 -6 17 15 14 36 -3
30 -14 -5 -14 -3 2 15 17 20 15 27 -6 23 -11 -1 -10 7 2 30 9 15 7 21 -5 25
-14 6 -14 8 2 21 10 8 12 12 6 8 -9 -4 -13 2 -13 19 0 14 -5 28 -12 32 -8 5
-6 11 6 19 15 11 14 13 -5 18 -18 5 -20 9 -11 20 9 10 8 17 -1 27 -10 10 -8
12 8 6 19 -6 19 -5 2 8 -14 11 -15 15 -5 20 10 5 10 7 1 12 -7 3 -13 10 -13
15 0 6 4 8 9 4 14 -8 5 34 -11 53 -11 13 -11 14 1 8 9 -6 12 -5 9 5 -3 8 -12
13 -19 11 -11 -3 -12 -1 -1 9 17 18 15 29 -5 23 -13 -4 -14 -3 -5 3 7 6 11 21
8 36 -2 15 1 28 7 31 7 2 5 5 -4 5 -9 1 -16 8 -16 16 0 10 6 14 16 10 11 -3
10 0 -3 10 -14 11 -16 15 -5 15 12 0 12 2 0 9 -7 5 -11 13 -8 18 3 5 2 15 -3
23 -5 9 -5 19 1 26 7 8 6 15 -2 20 -8 5 -9 3 -4 -6 6 -9 4 -11 -4 -5 -9 5 -10
10 -2 18 14 14 14 30 0 21 -8 -4 -8 0 0 15 9 16 9 21 -1 21 -9 0 -9 3 2 10 12
8 12 10 1 10 -10 0 -11 3 -2 13 6 8 8 17 4 20 -3 4 0 14 8 24 8 9 9 14 3 10
-7 -4 -17 0 -24 8 -10 12 -9 15 5 15 10 0 15 3 11 8 -4 4 -12 7 -17 7 -8 0
-11 8 -8 18 7 22 6 45 -3 61 l-11 21 23 -20 23 -20 -12 23 c-25 49 -28 58 -24
70 3 6 9 10 14 7 5 -4 6 1 3 9 -3 9 -9 14 -13 12 -4 -3 -7 4 -7 14 0 15 3 17
15 7 12 -10 13 -9 4 7 -6 10 -8 28 -6 40 4 17 3 18 -6 6 -6 -8 -11 -11 -11 -6
0 5 8 18 17 28 16 18 16 18 -2 12 -12 -5 -16 -4 -12 3 4 6 1 14 -5 17 -7 3 -5
4 6 3 19 -2 32 28 16 38 -5 3 -6 13 -3 22 4 11 2 14 -5 9 -7 -4 -9 1 -6 16 14
73 15 79 2 72 -10 -6 -11 -4 0 7 13 14 17 33 4 25 -4 -2 -8 4 -8 14 0 18 1 18
20 2 20 -16 20 -16 7 1 -8 9 -11 20 -8 24 4 3 1 13 -6 21 -9 13 -9 14 1 8 7
-4 12 -1 12 9 0 10 -5 13 -12 9 -7 -4 -10 -4 -6 1 4 4 2 15 -5 23 -9 13 -9 14
1 8 7 -4 12 -2 12 4 0 7 7 9 18 5 12 -4 11 -1 -5 15 -26 24 -31 39 -6 19 15
-13 15 -12 3 11 -11 21 -11 23 1 13 11 -9 14 -6 15 20 1 17 9 36 20 44 10 7
13 13 8 13 -5 0 -10 9 -11 20 -1 13 2 18 10 13 7 -4 5 2 -3 12 -12 15 -12 17
-1 10 11 -6 13 -3 9 13 -4 12 -3 20 2 17 4 -3 11 2 14 11 5 12 1 14 -15 9 -20
-7 -21 -6 -2 12 11 12 21 15 25 9 4 -6 6 -1 6 11 -2 14 -7 19 -18 16 -8 -2 -4
3 10 11 16 10 19 16 10 16 -10 0 -7 5 8 13 15 9 19 16 12 23 -8 8 -6 15 4 23
8 7 13 18 10 26 -3 7 0 16 6 20 8 5 8 10 0 20 -8 10 -7 17 3 27 12 11 12 15
-2 26 -14 12 -14 13 4 7 16 -5 18 -4 8 6 -16 16 -17 33 -1 23 7 -5 8 -3 3 6
-4 7 -8 27 -7 44 0 17 -5 37 -11 45 -10 12 -9 14 6 8 15 -6 16 -4 7 13 -6 11
-7 20 -3 20 4 0 1 5 -7 10 -13 8 -13 10 0 10 11 0 11 3 2 12 -15 15 -16 32 -2
23 16 -10 7 18 -10 33 -8 8 -10 11 -3 8 6 -4 14 -2 18 4 3 5 -2 10 -12 10 -15
0 -16 2 -3 10 13 8 12 10 -2 10 -10 0 -18 5 -18 11 0 5 4 8 8 5 5 -3 9 2 9 10
0 9 -6 13 -15 9 -13 -5 -13 -3 -1 12 12 14 12 16 -1 11 -15 -6 -64 25 -55 34
3 3 -2 5 -10 5 -10 0 -14 -7 -10 -21z m-590 -321 c2 -29 4 -30 43 -29 28 1 42
-3 42 -11 0 -22 27 -65 36 -57 4 4 2 -1 -6 -12 -13 -16 -12 -20 8 -36 12 -10
22 -21 22 -25 0 -4 -7 -2 -15 5 -10 8 -15 9 -15 2 0 -6 8 -15 18 -21 16 -9 16
-11 0 -27 -22 -22 -31 -13 -30 28 1 23 -2 28 -8 18 -8 -13 -10 -13 -10 1 0 9
-7 22 -15 29 -18 15 -19 7 -4 -23 9 -20 9 -20 -4 -5 -8 10 -18 14 -22 10 -4
-4 -4 2 1 13 12 24 11 45 0 64 -7 10 -6 12 4 6 9 -6 11 -4 5 5 -5 8 -4 11 3 6
6 -3 14 -1 17 5 13 19 -2 19 -27 -1 -24 -18 -26 -18 -40 -2 -9 9 -14 27 -13
40 1 13 -3 26 -9 29 -6 3 -8 3 -4 -2 4 -4 3 -17 -3 -28 -6 -10 -7 -17 -2 -14
5 4 10 0 10 -8 0 -8 -4 -15 -8 -15 -12 0 -17 24 -8 42 7 12 4 20 -8 27 -10 6
-13 11 -6 11 7 0 10 7 6 18 -5 14 -3 13 11 -3 17 -20 17 -20 11 5 -6 23 -5 24
6 5 7 -11 13 -33 14 -50z m319 0 c-4 -9 -11 -15 -18 -14 -24 3 -37 -1 -31 -10
6 -10 26 -8 58 4 10 4 17 3 17 -5 0 -6 -4 -9 -9 -5 -6 3 -9 -4 -8 -15 2 -24
12 -26 21 -5 3 8 11 15 18 15 8 0 9 -3 3 -8 -5 -4 -11 -18 -13 -31 -1 -14 1
-22 4 -18 4 4 14 1 21 -5 12 -10 14 -8 11 8 -1 10 -7 23 -13 27 -6 5 -4 7 5 5
9 -3 15 -19 16 -44 2 -30 0 -35 -7 -21 -16 28 -49 5 -44 -33 2 -16 0 -32 -5
-35 -14 -9 -39 6 -33 20 7 20 -39 10 -54 -12 -7 -9 -13 -12 -13 -5 0 15 41 43
53 35 5 -3 7 0 5 8 -3 8 -10 13 -15 12 -6 -1 -9 9 -7 22 1 14 -2 27 -7 31 -5
3 -9 0 -9 -7 0 -10 -3 -10 -12 -1 -17 17 -33 15 -18 -3 7 -9 10 -18 7 -22 -4
-3 -9 2 -13 11 -3 9 -10 14 -14 11 -5 -3 -12 0 -16 7 -4 7 -3 10 1 5 12 -10
55 32 49 48 -5 11 22 28 48 30 3 0 10 3 14 8 11 11 14 8 8 -8z m-2028 -5111
c-10 -27 4 -35 32 -17 l27 17 -20 -24 c-11 -14 -13 -19 -5 -12 8 6 20 12 28
12 8 0 10 -5 6 -12 -4 -8 -3 -10 2 -5 12 11 12 30 1 38 -5 3 -2 9 7 12 9 4 15
1 13 -6 -1 -7 5 -11 13 -9 12 3 13 1 3 -9 -18 -19 -16 -34 3 -19 12 11 15 11
12 0 -2 -7 7 -13 19 -15 13 -1 19 3 16 11 -2 6 0 14 4 17 5 3 10 -4 10 -15 2
-26 8 -31 36 -33 12 -2 21 -8 19 -14 -1 -7 3 -9 9 -6 8 5 8 10 0 18 -6 6 -11
15 -11 20 0 5 7 2 15 -7 8 -8 15 -21 15 -30 0 -8 5 -18 11 -22 8 -5 10 1 7 18
-3 14 0 25 7 25 6 0 10 -13 9 -29 -1 -15 2 -26 6 -23 11 7 31 -20 23 -31 -4
-5 -2 -4 6 2 7 7 22 9 33 6 14 -3 16 -7 7 -12 -7 -5 -2 -7 14 -7 24 2 25 3 9
22 -16 19 -16 19 3 5 27 -20 35 -32 28 -44 -3 -5 -1 -6 6 -2 6 4 8 12 5 18 -4
6 1 6 14 -1 17 -9 23 -8 30 5 8 15 10 15 15 0 5 -11 3 -15 -5 -10 -7 5 -8 3
-3 -6 6 -9 4 -11 -6 -5 -12 7 -12 5 -1 -6 14 -15 37 5 26 23 -3 4 0 8 5 8 6 0
11 -9 11 -19 0 -10 7 -21 15 -25 12 -4 13 -2 6 13 -9 15 -7 18 12 17 12 -1 28
3 36 8 12 9 13 8 6 -4 -5 -8 -10 -26 -11 -40 -1 -14 0 -19 3 -11 5 11 7 11 14
0 7 -12 9 -11 9 1 0 12 2 13 9 1 5 -7 21 -13 36 -13 18 0 23 -3 14 -9 -7 -4
-16 -6 -20 -3 -4 2 -11 -1 -15 -7 -4 -7 -3 -9 4 -5 6 3 13 2 17 -4 3 -5 12
-10 18 -10 7 0 6 4 -3 10 -8 5 -10 10 -4 10 6 0 18 -8 25 -17 8 -9 9 -14 4
-11 -6 4 -17 2 -25 -3 -13 -9 -13 -10 0 -6 8 2 24 -3 35 -12 18 -15 19 -15 6
2 -14 18 -12 21 13 11 9 -3 14 -10 11 -14 -3 -4 4 -10 16 -13 16 -4 18 -3 9 8
-8 9 -7 14 2 18 9 3 14 -6 15 -25 2 -20 -1 -27 -10 -22 -7 4 -8 3 -4 -1 13
-15 57 -17 57 -3 0 6 6 3 14 -8 11 -14 11 -22 3 -32 -8 -10 -7 -12 4 -10 8 2
18 8 22 13 5 6 7 3 3 -7 -3 -10 -1 -20 5 -23 5 -4 6 -11 3 -17 -4 -6 -2 -8 4
-4 10 6 26 -10 27 -26 0 -3 4 -10 9 -15 5 -5 6 -3 2 5 -4 7 -2 12 5 12 6 0 0
9 -15 21 -26 21 -34 39 -16 39 5 0 9 -6 7 -12 -1 -7 4 -12 11 -10 8 1 11 -2 7
-8 -3 -5 0 -10 8 -10 9 0 15 -10 16 -22 1 -44 4 -55 18 -55 8 0 10 4 3 12 -7
8 -5 12 5 12 8 0 12 -4 9 -8 -2 -4 4 -13 13 -19 16 -10 16 -11 1 -6 -10 3 -20
1 -23 -4 -4 -6 5 -10 19 -10 14 0 26 -4 26 -10 0 -5 -8 -7 -17 -4 -10 3 -7 -1
7 -9 14 -9 27 -14 30 -12 3 2 5 -17 5 -43 0 -32 4 -47 15 -49 13 -4 13 -3 0 7
-13 10 -13 11 0 7 8 -2 14 -8 13 -13 0 -5 -3 -18 -5 -28 -2 -14 4 -21 22 -26
22 -5 23 -7 6 -13 -14 -6 -16 -10 -7 -21 6 -7 9 -15 6 -18 -3 -3 1 -10 8 -16
10 -9 14 -8 14 3 0 8 -5 11 -11 8 -6 -3 -8 -3 -4 2 4 4 3 14 -3 22 -7 8 -8 13
-1 13 9 0 21 -19 27 -42 2 -5 4 -11 5 -15 1 -5 2 -11 2 -14 -1 -4 7 -14 18
-24 15 -14 17 -22 9 -37 -9 -16 -7 -19 8 -16 18 3 25 -27 11 -48 -5 -7 1 -10
15 -10 23 1 31 -27 13 -52 -6 -8 -6 -12 0 -11 21 4 24 -2 13 -23 -10 -18 -9
-20 5 -15 17 7 18 -15 1 -43 -6 -11 -3 -10 12 2 19 18 19 17 15 -13 -3 -20 -1
-30 6 -25 5 3 13 -1 16 -10 4 -10 2 -13 -7 -8 -7 4 -7 1 2 -7 10 -11 15 -11
18 -1 3 6 9 10 14 6 5 -3 0 -13 -12 -23 -17 -14 -19 -20 -9 -26 9 -5 11 -4 6
3 -4 7 -1 12 6 12 8 0 14 -9 14 -19 0 -11 -4 -17 -9 -14 -5 3 -7 0 -5 -8 3 -8
11 -13 17 -11 7 1 10 -2 6 -8 -3 -6 -10 -8 -14 -6 -4 3 -8 -2 -8 -10 0 -9 6
-13 15 -9 10 3 12 0 8 -10 -3 -8 -1 -15 4 -15 6 0 10 -5 10 -11 0 -5 -4 -8 -9
-4 -5 3 -13 0 -17 -7 -4 -7 -3 -10 1 -5 15 13 47 -24 34 -39 -6 -8 -16 -11
-23 -7 -6 3 -7 2 -3 -2 10 -12 38 -15 31 -4 -3 5 0 9 5 9 14 0 14 -2 0 -37 -8
-22 -8 -25 2 -16 6 6 18 9 26 6 11 -4 10 -8 -4 -19 -17 -13 -17 -13 0 -14 19
0 23 -15 7 -25 -5 -3 -10 -1 -10 6 0 7 -3 9 -7 6 -3 -4 2 -16 11 -26 11 -12
15 -25 10 -33 -6 -10 -3 -9 10 1 13 11 14 16 4 23 -10 7 -10 9 2 5 16 -4 15
-48 -1 -58 -5 -3 3 -11 18 -17 26 -11 27 -11 9 3 -14 11 -16 15 -5 15 19 -1
53 -47 34 -47 -8 0 -12 5 -8 10 3 5 -4 4 -16 -2 -27 -15 -27 -16 6 -18 15 0
29 -6 31 -12 2 -6 8 -9 13 -6 5 4 6 0 3 -8 -3 -8 0 -18 7 -23 7 -4 10 -3 5 4
-3 6 -1 14 5 18 8 4 9 3 5 -4 -4 -7 -2 -12 4 -12 7 0 6 -5 -2 -14 -7 -8 -17
-11 -22 -8 -5 3 -6 0 -2 -7 6 -9 11 -9 21 -1 11 9 12 6 7 -12 -5 -20 -3 -21
10 -10 13 10 18 10 24 1 4 -8 3 -9 -4 -5 -7 4 -12 4 -13 -1 -5 -43 -5 -61 3
-57 4 3 11 -2 14 -11 5 -13 9 -13 22 -3 12 10 14 10 8 1 -4 -8 -2 -13 5 -13 8
0 7 -6 -4 -18 -15 -17 -15 -18 6 -19 17 -2 19 0 7 7 -13 8 -12 10 3 10 9 0 17
-7 17 -16 0 -8 5 -12 10 -9 6 3 10 -1 10 -10 0 -10 5 -13 13 -9 6 4 1 -5 -13
-21 -14 -16 -19 -25 -12 -21 14 9 17 -10 2 -19 -6 -4 -8 -11 -5 -16 3 -5 -2
-6 -11 -2 -11 4 -15 3 -11 -4 4 -6 1 -18 -7 -26 -8 -8 -12 -17 -9 -21 4 -3 -1
-6 -10 -6 -9 0 -17 -5 -17 -11 0 -5 -6 -7 -12 -3 -10 6 -10 4 0 -8 11 -14 10
-16 -12 -14 -22 3 -24 1 -15 -17 8 -14 8 -18 -1 -12 -7 4 -18 -2 -27 -15 -8
-12 -21 -19 -28 -16 -9 3 -12 -1 -10 -13 3 -14 -1 -17 -16 -14 -22 6 -25 -6
-6 -27 10 -12 9 -12 -5 -1 -15 11 -18 11 -19 0 0 -10 -2 -11 -6 -1 -2 6 -9 12
-15 12 -6 0 -8 -7 -4 -15 3 -8 1 -15 -5 -15 -6 0 -7 -4 -4 -10 3 -5 0 -8 -7
-5 -17 6 -52 -21 -44 -34 4 -6 -2 -8 -14 -6 -12 2 -23 -2 -27 -11 -3 -8 -12
-13 -20 -9 -11 4 -13 1 -9 -11 5 -14 4 -15 -9 -4 -13 11 -14 10 -10 -3 4 -8 1
-18 -6 -23 -8 -5 -10 -3 -4 7 6 11 5 12 -5 2 -10 -9 -17 -10 -27 -2 -9 9 -14
7 -19 -6 -5 -13 -9 -14 -15 -3 -7 10 -9 10 -9 1 0 -7 -5 -13 -11 -13 -5 0 -7
5 -4 10 3 6 1 10 -4 10 -6 0 -11 -9 -11 -20 0 -11 -4 -20 -10 -20 -5 0 -7 8
-3 18 5 14 3 13 -10 -3 -8 -11 -13 -24 -9 -30 6 -11 -29 15 -39 28 -3 5 -9 1
-12 -8 -4 -9 -3 -13 3 -10 16 10 11 -1 -7 -16 -11 -10 -14 -10 -9 -1 4 7 2 12
-4 12 -6 0 -8 5 -4 12 4 7 3 8 -4 4 -6 -4 -8 -14 -5 -23 6 -15 5 -16 -9 -3
-11 11 -13 19 -6 28 7 8 7 12 0 12 -6 0 -14 -9 -17 -20 -3 -11 -11 -20 -17
-20 -5 0 -8 7 -5 14 4 10 1 13 -9 9 -9 -3 -13 -12 -10 -22 5 -13 3 -12 -8 2
-12 15 -16 16 -27 4 -8 -7 -21 -12 -29 -10 -12 4 -13 3 -1 -5 8 -6 12 -20 9
-36 -3 -15 -1 -29 5 -33 19 -12 -53 -34 -75 -22 -15 8 -24 7 -38 -6 -18 -17
-19 -16 -15 5 2 13 2 20 -2 16 -3 -3 -13 3 -20 14 -8 11 -19 18 -24 15 -5 -4
-9 -1 -9 5 0 6 -5 8 -12 4 -6 -4 -8 -3 -5 3 4 6 -1 19 -9 29 -9 10 -13 15 -11
9 3 -5 -6 -11 -19 -11 -23 -2 -24 -1 -7 12 17 13 17 14 -1 7 -14 -5 -17 -3
-11 7 5 8 4 11 -3 6 -5 -3 -12 -3 -15 1 -2 5 -2 2 0 -5 1 -8 -3 -12 -9 -10 -7
3 -13 10 -13 17 0 14 -26 32 -37 25 -4 -3 -9 0 -9 5 -1 6 -2 15 -3 20 0 5 -5
13 -10 18 -5 4 -6 3 -2 -4 5 -9 -3 -12 -31 -11 -21 1 -47 -3 -57 -7 -12 -5
-17 -5 -13 2 3 5 0 10 -8 10 -18 0 -19 -9 -2 -27 9 -11 8 -11 -8 0 -11 8 -24
20 -28 25 -5 6 -7 3 -3 -7 3 -10 2 -18 -2 -19 -4 0 -16 -2 -27 -4 -10 -2 -25
1 -32 7 -10 8 -13 6 -13 -5 0 -9 8 -18 18 -20 13 -4 12 -5 -5 -6 -12 0 -23 -4
-26 -8 -2 -5 -2 -3 -1 4 2 6 -6 11 -16 10 -15 -1 -17 -4 -7 -16 10 -12 9 -13
-11 -2 -27 14 -97 -31 -88 -56 3 -8 1 -11 -4 -8 -6 4 -19 3 -31 0 -17 -6 -18
-9 -7 -22 12 -14 11 -15 -9 -5 -23 13 -53 7 -53 -10 0 -6 7 -5 15 2 12 10 18
10 26 2 5 -7 6 -10 3 -7 -4 2 -15 0 -24 -5 -13 -7 -21 -5 -30 5 -7 8 -9 15 -4
15 11 1 -27 30 -39 30 -4 0 -5 -6 -1 -12 5 -8 1 -7 -10 2 -23 18 -46 22 -40 5
4 -9 -4 -11 -26 -9 -19 2 -29 0 -25 -6 6 -9 -8 -14 -29 -11 -5 1 -6 -5 -3 -12
4 -11 0 -13 -15 -9 -15 3 -19 1 -16 -9 3 -8 -7 -21 -24 -31 -15 -10 -28 -23
-28 -28 0 -6 -6 -8 -12 -5 -7 4 -5 0 5 -8 17 -14 16 -15 -8 -21 -14 -4 -23
-11 -20 -16 3 -5 -4 -14 -15 -20 -11 -6 -18 -15 -15 -20 3 -5 0 -12 -6 -16 -8
-4 -9 -3 -5 4 4 7 2 12 -3 12 -6 0 -11 -7 -11 -16 0 -8 -4 -13 -9 -10 -13 8
-34 -21 -28 -38 6 -15 -9 -16 -32 -2 -8 5 -6 -3 5 -20 17 -26 17 -28 1 -15
-20 16 -23 2 -4 -19 6 -8 2 -6 -10 3 -14 12 -23 15 -28 7 -3 -5 -11 -7 -17 -4
-7 4 -8 2 -4 -5 6 -8 12 -9 20 -2 9 8 13 7 13 -3 0 -9 -8 -13 -20 -10 -10 2
-29 -3 -41 -11 -13 -8 -26 -12 -31 -8 -4 5 -3 -2 3 -14 10 -19 9 -20 -8 -16
-15 4 -19 11 -15 27 5 20 4 20 -6 -1 -14 -26 -26 -30 -26 -8 0 8 4 12 9 9 4
-3 8 0 8 5 0 6 -6 11 -12 11 -9 0 -8 4 2 10 14 9 5 15 -21 12 -3 -1 -6 6 -6
13 0 11 4 12 14 3 11 -8 12 -7 7 6 -3 9 -10 16 -16 16 -5 0 -6 5 -3 10 10 16
-5 51 -18 43 -7 -4 -6 1 2 10 11 14 11 17 0 17 -11 0 -11 2 1 10 13 8 12 10
-3 10 -10 0 -15 5 -12 10 3 6 1 10 -6 10 -8 0 -7 5 2 17 8 9 10 14 4 11 -5 -3
-16 0 -23 8 -10 11 -10 14 0 14 7 0 -3 8 -22 19 -19 10 -39 16 -44 13 -5 -3
-6 0 -2 6 3 6 -1 18 -10 27 -9 9 -14 18 -11 21 3 3 13 -6 22 -19 17 -27 45
-43 45 -27 0 6 -8 10 -17 10 -9 0 -13 3 -10 7 4 3 -2 13 -14 21 -11 8 -18 20
-15 29 3 8 1 11 -4 8 -6 -3 -10 0 -10 7 0 9 -3 9 -10 -2 -5 -8 -10 -10 -10 -4
0 5 6 16 13 23 10 11 10 13 0 7 -8 -5 -13 -1 -13 10 0 13 -3 14 -14 5 -12 -10
-13 -9 -9 7 2 11 -1 23 -8 28 -9 5 -11 2 -6 -12 5 -12 -1 -9 -14 9 -16 20 -27
26 -41 21 -13 -4 -18 -2 -14 4 3 6 -4 6 -18 -1 -13 -7 -22 -16 -18 -22 3 -5
-1 -4 -10 2 -8 7 -19 9 -23 5 -5 -4 -5 -1 -1 6 4 7 12 10 17 7 5 -3 6 1 2 10
-5 13 -7 14 -14 3 -5 -7 -9 -8 -9 -3 0 6 -5 3 -10 -5 -8 -12 -10 -12 -10 -1 0
10 -3 11 -14 2 -12 -10 -13 -8 -9 9 4 16 8 18 19 9 10 -8 14 -8 14 0 0 10 -13
15 -32 12 -5 0 -8 4 -8 10 0 12 -20 -6 -39 -36 l-13 -20 7 20 c4 11 9 26 12
33 3 7 0 12 -8 10 -8 -2 -13 4 -11 12 3 13 1 13 -10 1 -10 -11 -10 -14 0 -18
6 -3 10 -9 7 -14 -4 -5 -12 -3 -19 4 -8 6 -12 15 -10 19 2 4 0 10 -6 13 -6 4
-10 3 -9 -2 3 -19 -2 -33 -12 -33 -6 0 -8 7 -5 16 5 14 4 15 -8 5 -8 -7 -12
-20 -10 -29 5 -14 4 -14 -6 1 -9 14 -9 22 0 33 9 10 9 14 1 14 -6 0 -11 -5
-11 -11 0 -5 -4 -8 -9 -4 -6 3 -14 -2 -19 -11 -8 -15 -10 -15 -15 0 -5 12 -3
15 6 10 6 -4 8 -3 4 1 -12 14 -36 14 -31 1 3 -7 -4 -12 -15 -12 -15 0 -17 3
-9 13 12 15 0 17 -22 3 -9 -6 -20 -5 -29 3 -11 9 -13 9 -8 0 8 -12 -47 -13
-59 0 -4 3 -16 0 -26 -8 -11 -7 -26 -11 -33 -9 -7 3 -16 0 -21 -7 -5 -8 -3
-10 6 -4 9 5 11 4 6 -4 -6 -9 -11 -9 -24 1 -13 11 -15 10 -9 -4 3 -10 2 -20
-4 -23 -5 -4 -8 -1 -7 6 2 6 -3 14 -11 17 -10 3 -11 0 -5 -9 6 -12 5 -12 -8
-1 -14 11 -18 10 -27 -5 -10 -17 -10 -17 -11 0 0 20 -11 22 -28 5 -9 -9 -12
-9 -12 1 0 7 -5 9 -10 6 -14 -9 -74 -16 -66 -8 3 3 16 7 29 8 24 2 31 19 7 21
-36 2 -38 5 -35 34 3 20 0 28 -7 24 -6 -4 -8 1 -4 14 7 21 -18 40 -29 22 -8
-13 -25 -13 -25 1 0 5 4 8 8 5 4 -2 14 5 21 17 11 18 11 20 0 10 -7 -7 -17
-13 -22 -13 -4 0 -5 6 -2 13 4 6 -1 3 -10 -8 -9 -11 -24 -18 -33 -17 -14 3
-15 1 -4 -9 6 -7 12 -20 11 -28 0 -14 -1 -14 -6 -1 -13 31 -50 50 -50 25 0 -8
4 -12 8 -9 4 2 13 -6 19 -18 11 -22 10 -22 -4 -4 -9 11 -16 16 -16 12 0 -5 -7
-3 -15 4 -8 7 -20 8 -27 4 -7 -5 -16 -9 -20 -9 -3 0 -10 -4 -15 -9 -5 -5 -3
-6 5 -2 6 4 12 3 12 -2 0 -5 -9 -12 -19 -15 -13 -3 -18 0 -15 7 5 14 -23 15
-44 2 -6 -4 -17 -4 -23 0 -8 4 -9 -1 -5 -17 3 -13 3 -18 0 -11 -3 6 -13 12
-22 12 -15 0 -15 2 -2 10 17 11 10 13 -14 4 -16 -6 -23 -25 -8 -23 19 3 32 -2
32 -12 0 -8 -6 -7 -17 2 -15 12 -16 12 -10 -6 l7 -20 -15 20 c-9 11 -18 19
-20 18 -17 -10 -26 -1 -14 14 12 15 12 16 -4 10 -15 -5 -16 -4 -7 12 7 13 7
20 -1 23 -7 2 -7 12 0 30 6 17 7 30 1 33 -6 3 -5 16 0 31 6 16 6 23 0 19 -5
-3 -16 7 -24 22 -32 57 -42 66 -68 53 -22 -11 -22 -10 -4 4 20 16 33 51 15 40
-5 -3 -6 -10 -3 -16 4 -7 2 -8 -5 -4 -6 4 -9 11 -6 16 3 4 -2 13 -10 20 -16
13 21 84 39 73 5 -4 7 1 3 9 -3 10 3 19 19 27 13 6 24 15 24 21 0 5 10 20 21
31 17 17 19 23 8 30 -13 8 -12 10 11 13 6 0 10 5 9 10 0 5 6 13 15 18 9 5 16
16 16 25 0 8 6 13 13 10 10 -4 13 2 10 21 -4 21 -2 24 6 12 9 -12 11 -11 11 8
0 12 5 22 11 22 5 0 8 4 5 9 -3 5 0 11 8 14 15 6 16 23 2 46 -7 10 -6 12 4 6
10 -6 12 -4 7 9 -4 9 -3 15 2 12 5 -3 14 1 21 9 11 13 10 14 -3 9 -11 -4 -15
0 -12 13 1 10 8 17 16 15 9 -2 9 1 -2 14 -12 15 -12 17 0 9 11 -6 13 -4 7 10
-6 16 -4 16 10 4 16 -13 16 -12 4 11 -12 22 -12 24 2 12 13 -10 17 -9 23 10 4
13 7 26 6 29 0 4 8 5 18 2 10 -3 22 1 26 8 5 8 4 10 -3 5 -8 -5 -10 -2 -6 9 4
9 9 13 12 11 3 -3 11 2 18 12 14 19 35 23 47 7 4 -5 5 4 2 20 -3 17 -3 25 1
18 6 -13 34 -6 34 9 0 5 -5 6 -12 2 -7 -4 -8 -3 -4 5 4 6 11 9 16 6 5 -3 16 2
24 11 9 8 16 11 16 5 0 -6 5 -11 11 -11 6 0 8 9 4 23 -5 16 -4 18 4 8 7 -12
13 -12 24 -3 7 7 17 9 21 5 4 -4 4 1 0 12 -6 15 -4 17 11 12 16 -7 16 -5 4 10
-8 9 -9 14 -3 10 7 -4 15 0 18 9 3 9 12 14 19 11 8 -3 14 3 14 15 2 25 6 29
31 31 11 0 19 4 16 8 -2 4 0 10 6 14 6 4 8 11 4 16 -9 15 16 38 34 32 15 -6
15 -5 3 10 -12 15 -12 17 3 11 9 -4 16 -1 16 6 0 7 7 10 18 6 16 -6 16 -5 0 7
-20 16 -14 29 10 20 10 -4 13 -2 8 5 -4 7 -3 12 3 12 5 0 8 8 6 18 -1 9 -8 16
-15 14 -6 -1 -8 3 -5 9 5 7 11 7 18 0 7 -7 16 -3 29 12 11 12 17 17 14 11 -3
-7 0 -14 8 -17 11 -4 13 1 10 18 -4 22 -1 24 31 21 19 -2 33 -1 31 3 -7 12 13
51 26 50 10 0 10 -2 1 -6 -7 -2 -13 -9 -13 -14 0 -5 8 -4 19 3 14 8 16 14 7
24 -6 6 -15 9 -20 6 -5 -3 -6 0 -2 7 6 8 12 9 20 2 18 -15 28 -1 13 17 -11 13
-9 14 13 2 23 -12 24 -12 11 3 -12 15 -9 21 11 18 4 0 5 8 3 19 -3 13 2 20 13
21 14 0 13 2 -3 9 -18 8 -18 9 -2 9 10 1 15 6 12 11 -3 6 4 24 16 42 13 17 18
28 11 24 -7 -4 -12 -3 -12 1 0 5 9 14 20 21 11 7 20 17 20 24 0 7 -7 3 -15 -8
-17 -22 -20 -12 -4 17 5 11 15 16 21 13 7 -4 8 -3 4 4 -12 20 -16 53 -5 47 5
-4 6 -11 3 -17 -4 -7 -2 -8 4 -4 9 5 9 13 2 26 -5 10 -7 27 -4 37 3 10 -1 8
-9 -6 -13 -22 -14 -22 -22 -5 -5 11 -7 24 -6 31 1 6 -8 18 -20 27 -22 15 -22
15 -1 13 11 0 18 -5 16 -9 -8 -12 11 -9 24 4 7 7 12 8 12 4 0 -5 8 -2 18 5 9
7 14 10 10 5 -8 -10 20 -41 29 -32 3 3 13 0 21 -7 9 -6 13 -7 10 -2 -4 6 4 15
17 21 21 10 23 9 20 -8 -4 -17 -2 -18 11 -7 21 17 58 23 48 8 -4 -8 0 -8 15 0
11 7 21 14 21 17 0 3 -4 3 -9 -1 -5 -3 -13 0 -17 6 -4 7 -3 9 4 5 6 -3 13 -2
17 4 4 6 11 8 16 4 6 -3 17 -3 27 1 14 5 14 8 2 15 -8 5 0 7 24 5 29 -3 36 0
32 10 -3 8 -1 17 4 20 4 3 10 0 12 -6 2 -5 11 -7 21 -3 14 5 15 9 6 20 -10 12
-9 13 5 8 10 -4 16 -1 16 7 0 7 3 10 6 6 4 -3 13 0 20 8 8 8 22 11 30 8 13 -5
15 -1 10 18 -3 13 -3 18 0 11 5 -10 11 -9 28 6 11 11 33 22 49 26 15 4 27 13
27 22 0 11 6 13 21 9 15 -5 19 -4 15 4 -4 6 -2 11 4 11 6 0 8 5 4 13 -6 9 -4
9 8 -1 13 -10 18 -10 24 -1 4 8 3 9 -4 5 -7 -4 -12 -2 -12 3 0 15 27 14 33 -1
3 -7 6 -3 6 9 1 12 5 25 11 28 5 3 7 0 4 -8 -3 -8 0 -18 7 -23 7 -4 10 -3 5 4
-3 6 -2 13 4 17 5 3 10 1 10 -4 0 -6 4 -11 10 -11 5 0 7 7 3 16 -5 14 -3 15
18 4 l24 -13 -20 24 c-15 18 -16 20 -2 10 9 -7 17 -10 17 -5 0 5 5 2 10 -6 8
-13 10 -12 10 3 0 18 25 24 35 7 4 -6 13 -7 23 -2 9 5 27 7 38 7 17 -2 20 2
16 19 -4 21 -4 21 12 1 10 -11 15 -15 12 -9 -8 16 25 27 38 14 8 -8 7 -11 -3
-8 -7 2 -16 -4 -18 -12 -4 -12 -3 -12 5 -2 5 8 12 13 16 13 19 -3 27 0 22 8
-3 5 4 9 17 8 12 0 31 4 42 8 17 8 18 7 5 -7 -8 -9 -19 -13 -24 -10 -5 3 -6 0
-2 -7 6 -8 12 -9 20 -2 7 6 15 8 19 5 3 -3 8 4 12 15 3 12 9 21 12 21 3 0 2
-7 -1 -16z"/>
</g>
</svg>
