<?xml version="1.0" encoding="UTF-8" standalone="no"?>
<svg
   version="1.0"
   width="1024.000000pt"
   height="1024.000000pt"
   viewBox="0 0 1024.000000 1024.000000"
   preserveAspectRatio="xMidYMid meet"
   id="svg8"
   sodipodi:docname="d.svg"
   xmlns:inkscape="http://www.inkscape.org/namespaces/inkscape"
   xmlns:sodipodi="http://sodipodi.sourceforge.net/DTD/sodipodi-0.dtd"
   xmlns="http://www.w3.org/2000/svg"
   xmlns:svg="http://www.w3.org/2000/svg">
  <defs
     id="defs12" />
  <sodipodi:namedview
     id="namedview10"
     pagecolor="#ffffff"
     bordercolor="#666666"
     borderopacity="1.0"
     inkscape:pageshadow="2"
     inkscape:pageopacity="0.0"
     inkscape:pagecheckerboard="0"
     inkscape:document-units="pt" />
  <metadata
     id="metadata2">
Created by potrace 1.16, written by Peter Selinger 2001-2019
</metadata>
  <g
     transform="translate(0.000000,1024.000000) scale(0.100000,-0.100000)"
     fill="#000000"
     stroke="none"
     id="g6">
    <path
       d="m 6775,9806 c -234.5584,-121.7991 -256.3562,-174.1868 -165,-124 -90.5039,-60.4266 -116.3059,-24.5305 -83,5 -158.4547,46.522 30.9466,-57.4462 -133,-2 -6.5757,66.639 -244.0563,111.6062 -144,21 -14.6695,18.9255 -241.5577,72.7848 -167,77 -97.064,-292.8994 68.2675,502.459 -55,-179 49.7725,-234.2932 -205.1312,494.225 -3,-130 -25.1105,-101.2782 43.8963,-255.1761 6,-199 52.5039,-90.1173 -27.0464,-63.1578 49,-72 -8.0112,-39.5419 -57.0594,-97.4147 -25.125,-87 76.5735,-16.7295 2.7789,-227.8741 2.125,-179 51.3553,14.994 19.9151,-194.652 14,-133 18.9731,-25.4954 -60.7933,-730.3114 2,-308 -25.3812,-152.5685 -10.6098,-558.2771 -1,-401 -19.6126,-121.1358 8.5754,-376.1109 -1,-271 -15.8671,31.5464 8.7818,-137.9357 13.375,-124.75 -20.9975,-54.4549 -33.5323,-234.4772 -32.375,-224.25 -4.2129,-59.4892 -64.6457,-138.1135 -10.625,-116.25 53.2446,-86.9863 16.7011,-224.9244 0.5,-156.75 -30.9347,-42.7343 86.5191,-67.7763 -6.875,-112 3.9252,-49.7705 1.2126,-215.9356 2,-162 -2.8615,21.0153 -39.283,20.4897 4,-38 -14.7503,-92.4281 -11.8105,-172.3109 9,-109 -14.8604,-56.2924 -24.9879,-122.2548 15,-129 -37.2502,-64.7294 -31.8074,-292.7046 -31,-199 13.414,-14.3205 62.3895,-254.5746 20,-196 -108.8645,-112.8905 139.4194,-356.5997 -5.125,-238 -37.3971,-65.5935 8.4968,-258.3003 15.125,-167 52.2839,-73.4319 57.7588,-73.7518 46,-134 34.9024,-59.0234 45.2839,-166.9266 20,-133 -33.9467,-61.0824 14.1433,-176.3242 17.625,-120.375 38.3802,-126.0245 38.797,-363.7386 23.375,-268.625 0.095,-119.4186 35.1722,-345.4675 25,-248 7.5866,-45.7302 -47.6017,-415.548 -14.5,-230.375 21.9454,-68.359 52.8318,-185.7725 31.5,-142.625 -48.0613,-47.4024 -41.597,-205.4409 0.875,-161.75 26.1784,-73.2142 21.9586,-347.6455 28.125,-258.25 49.6975,-33.5753 -40.6304,17.74 13,-45 -43.7803,-74.7104 -217.4305,-53.3772 -109.125,-70.875 1.6432,-38.8261 57.3414,-290.9685 32.125,-156.125 26.2604,-39.4703 32.9648,-126.6645 32,-102 35.1133,-66.2305 29.5726,-226.9503 29,-211 4.3306,-56.2086 21.8274,-181.9905 10,-163 12.448,-73.8905 49.3981,-179.4897 32.25,-156.875 -35.4412,-246.8248 122.0163,-50.0804 -31.25,-211.125 27.6668,-79.6153 -19.7005,-294.0944 -25,-209 1.0452,-59.0392 -138.7285,-55.2845 -85,-74 2.0411,34.1707 -71.3689,171.6668 -96,172 -101.7436,157.1648 -142.0526,232.7654 -114,182 -37.7151,60.2778 -83.3584,220.6048 -42.125,137.125 -28.5224,-28.6808 -44.2547,260.8767 -36.875,188.875 -17.2787,85.4733 -93.4725,219.8485 -52,159 -20.5597,97.4797 -69.4673,223.5037 -47.75,161.5 -29.4423,115.7105 -115.894,292.2546 -78.25,221.5 -0.1739,-3.8339 -35.1815,51.3472 -50,102 -35.2744,47.0298 -299.466,398.6726 -133,190 -60.9116,111.6849 -162.5174,105.9222 -117,74.375 -5.6731,65.2495 -80.9188,148.0509 -72,75.625 -92.9482,75.48 20.4354,-84.454 -83,45 73.1799,-15.596 -88.9192,52.5249 -96,65 -84.8222,-9.4193 -162.1485,68.2374 -105,64 -142.8815,-22.8748 -137.2536,-32.387 -85,5 -64.5882,121.7181 -177.9218,87.8823 -172,105 -45.9659,41.8967 -265.3326,56.5036 -179.75,52.75 29.7342,-12.6399 -7.0706,125.9478 -51.2239,48.9046 C 4448.3857,4840.066 4347.038,4769.0462 4353,4790 c -61.486,-44.4218 -130.922,82.4727 -165,-17 -20.1502,53.9227 -24.8597,77.5704 -54.25,42.625 -148.9817,36.6993 -165.589,-59.2432 -199.875,-20.375 -78.7836,-57.0541 -200.2623,-81.4328 -143.875,-44.125 6.5243,-20.9924 -121.0045,-64.7339 -103,-36.125 -98.7504,20.1357 -301.0158,-147.7418 -243,-128 -62.0082,-54.543 -252.0436,-95.3471 -174,-69 -5.3791,4.222 -180.4151,-133.793 -110,-114 -111.1006,-35.3555 -221.9318,-232.8182 -182,-174 3.2144,14.3105 -126.6727,-106.4878 -132.625,-86.5 -77.5712,-47.2613 -178.1674,-179.8053 -95.375,-103.5 63.8646,58.9188 -163.7979,-96.157 -106,-60 -92.1335,-66.7119 -253.3892,-265.5401 -192,-183 -92.3631,-91.4338 -195.7363,-286.4446 -166.25,-193.875 -37.3972,-8.2378 -145.5969,-199.1496 -128.75,-156.125 -59.5434,1.2249 -345.4847,-549.3917 -206,-242 -23.2993,-41.1699 -100.0739,-284.7123 -93,-221 5.1275,-102.9445 24.0204,-289.4424 -9.625,-191.875 -56.2464,-39.9694 31.4516,-245.3757 13.5,-219.75 11.8007,-121.2215 -2.9536,-256.1703 0.125,-177.375 46.264,-10.7439 -2.6075,-172.852 26,-143 43.3903,-148.1475 48.2616,-164.2162 40,-127 56.0418,-80.1234 78.1491,-168.2895 62,-130 100.7047,-60.2405 -37.5474,-235.5328 130.5,-143.125 2.0249,-122.5863 255.9541,-206.5225 215.5,-203.875 47.726,59.7331 217.9379,36.6 138,-10 -95.7395,-50.1529 -12.3272,-112.744 32,-53 42.4654,16.267 101.2218,-36.8292 117,-1 59.5846,-7.3486 162.4724,1.2819 116,18 35.2923,8.948 209.5348,45.0098 140,48 131.345,2.6815 70.7818,-15.1211 116,24 7.4055,-59.9773 181.2621,-57.9904 130,8 -114.978,-24.6507 177.1167,27.3645 62.125,-14.75 -0.8651,-34.2903 137.2989,-24.802 74.875,-29.25 40.3019,-50.311 172.5376,-68.2006 129.125,-62.875 50.9622,-22.4783 165.3983,191.5094 134.875,131.875 11.5625,6.2914 12.8029,17.7288 88.625,6.75 -76.5362,-23.0381 -12.6336,-30.6769 -68.625,64.25 109.5917,87.6457 -74.7672,-65.5716 78,-7 81.774,46.6564 -44.1419,-112.3383 -4,-111 64.2985,-155.3377 16.6549,-117.2116 90,-135 107.7604,76.5491 -119.6263,-200.2294 -11,-120 -142.6746,-114.9242 -213.9615,-137.6299 -319,-315 -30.7749,-45.6217 -116.8204,-196.63182 -88,-144 -40.1604,-11.02182 82.8304,-104.49654 -12,-165 -34.8417,-38.94518 120.4187,-112.19051 95.875,-124.875 -27.7533,47.09607 114.021,-102.79913 69.125,-58.125 102.105,-45.88372 156.2182,-61.85866 47.375,-49 5.0196,14.20771 -59.667,-32.71182 53.625,-50 164.1315,-52.69698 184.4222,-16.43233 270,-7 -15.5819,-70.27935 194.5001,48.8448 146,48 2.3702,50.93192 -16.4353,92.87512 122.625,13.625 156.2666,23.79449 -131.5987,92.33564 57.375,49.375 104.5712,-3.60232 263.3404,55.3384 178,10 123.9344,90.10716 376.4894,161.21121 255,128 70.4146,22.56779 209.1042,139.84268 114.75,67.875 -9.0452,-73.95626 201.8502,-83.49993 126.9531,-35.67188 128.7929,39.38537 -119.293,5.50386 88.2969,27.79688 149.5576,72.2521 43.3385,-21.75936 246.625,35.5 21.3049,8.96586 165.9882,85.63286 125.375,67.5 -6.2604,-51.70648 91.4616,-76.10203 64.75,-42 -67.198,61.43946 72.6923,73.50147 132.25,25 13.0027,61.739 77.3796,101.12253 91.25,27.25 82.1314,-27.92122 63.0947,35.18367 97.75,-10.25 77.6986,23.11933 128.5226,67.21843 125,35 86.064,50.7433 202.0493,29.44324 135,34 -75.1273,108.3183 181.0154,-51.74039 127,85 18.3334,-5.5271 125.6555,172.254 140.25,102.25 -19.85,-150.6837 313.6006,186.5111 146.75,49.75 22.7134,-67.8473 113.0768,45.3373 80,53 109.2533,98.0786 274.5946,266.4139 190,171 50.3525,-26.6946 141.6358,30.9606 108,86 124.7438,92.5459 145.4769,177.8633 62,105 49.2821,-22.181 149.3554,127.0271 97.375,103.125 4.9948,69.6702 66.5092,266.0628 61.375,187.5 7.4598,74.5604 131.0501,270.4748 102.25,189.375 8.299,76.398 106.9711,194.6117 68,149 -10.1949,64.6824 43.5372,257.1662 51,167.625 44.3693,7.0755 124.7004,169.6792 75,132.375 -22.865,49.7059 4.4613,257.3215 27,198 -1.2211,-35.643 161.1635,547.0164 34,138 -29.5956,30.0475 2.1243,238.139 15,170 25.4005,57.9902 67.0944,232.1911 21.375,192.5 -46.3905,105.2115 -10.001,241.2316 -21.375,172.5 -72.5209,-52.2397 -119.4538,61.7895 -40,139 33.2232,100.9683 69.9969,249.9679 42,161 -11.9382,69.8543 57.4136,153.3445 31,119 -17.791,100.9381 -8.6044,278.696 -4,256 40.171,186.0612 -21.5677,-5.6832 13.25,131.625 20.2921,57.0478 -28.8205,233.4052 11.375,180.375 -3.2523,192.474 -44.9018,316.3988 -21.625,248 -11.9861,153.8253 -25.3179,240.1877 -30,271 -7.6113,137.9982 -32.4864,418.6792 -22,278 9.8765,50.3908 -46.4964,272.9055 -49.125,233.5 -45.017,99.2984 -111.5076,210.8879 -94.875,196.5 -6.4203,75.6642 -28.8836,256.9117 -44,166 -2.2888,60.4657 -24.9992,270.0982 -13,164 4.6879,42.1323 -12.9746,290.8602 -12.75,213.25 -22.4749,13.0472 -45.2323,164.4538 -26.75,139.25 -8.5573,53.0294 -38.181,314.7848 -18.5,207.5 -21.9244,22.2389 -57.8419,282.4657 -41.75,177.75 5.0164,33.3662 12.9443,135.6109 -26.25,121.25 -59.2749,56.3275 -71.3525,193.7847 -37.75,163 -20.3727,75.3476 -67.9338,320.3451 -41.25,233 -40.1123,77.0261 -74.5202,281.7848 -41,222 4.1774,3.8299 -52.2298,265.5772 -23,190 -2.0066,71.2202 6.1034,207.7521 -2.5625,151.2344 -24.4758,85.4683 -8.2505,305.751 -26.4375,207.7656 -10.6847,42.1317 -33.9692,172.2437 -30,149 19.8034,80.8304 -27.8138,184.0138 -18.125,166.25 9.7806,106.7822 6.1042,310.8594 8.125,196.75 -13.2546,69.5488 -28.7787,273.011 -13.75,179.875 5.4196,210.962 22.4016,187.4721 24.75,198.125 -37.047,120.4995 53.4615,230.9367 36,172 -22.0292,65.0054 175.9504,465.582 36.375,164.375 53.3809,74.5988 28.0597,251.3048 38.625,216.875 42.999,6.5851 5.8008,218.9835 11,193.75 -1.7514,64.1194 -45.0409,187.9455 -31,145 32.8531,-2.2843 -93.5532,79.601 -76,29 z m -590,-321 c 133.1078,-16.4262 21.3501,-36.4813 95,-165 -33.9414,-19.6435 37.7249,185.6357 -24.25,125.125 -100.4793,-50.347 -136.0259,-85.8582 -108.625,-0.875 -13.9691,91.0687 16.3142,131.7965 37.875,40.75 z m 319,0 c -62.4989,-31.5722 145.0396,-67.4842 74,-89 39.1416,45.6032 -145.5553,23.3856 -126,-71.875 83.2176,116.6552 -180.6756,24.7302 30,160.875 6.4981,-1.7186 37.1211,32.658 22,0 z M 4476,4374 c 45.3282,-74.8573 95.2404,-119.6581 94.625,-37.25 137.6964,-5.3734 210.9418,-104.7738 178,-72 -13.4668,21.9929 168.0075,-97.7267 143.125,-49.75 70.2061,13.7402 121.4441,55.9728 87.25,5 85.3148,-31.2855 281.6095,-109.3164 163.125,-74.25 -56.374,-24.593 69.5966,-24.8988 51.875,-51.75 37.3249,-36.409 221.0658,-111.9698 139,-89 76.661,-173.2077 155.9825,-201.7367 76,-77 64.0647,-96.6421 160.9309,-324.414 111,-205 -7.2953,60.8561 9.6421,23.2189 39,-86 51.6117,-60.7535 144.8165,-353.0456 120,-279 1.9118,-52.6301 82.2686,-168.7608 70,-137 6.761,-62.5046 36.655,-153.1983 32,-136 17.8415,-63.5114 33.5153,-153.5853 39.25,-132.5 24.3791,-15.8068 48.3741,-119.9862 53.875,-105.875 30.311,-53.9372 123.5627,-152.8947 93.875,-110.625 2.7157,-7.3826 122.5241,-122.66 70.75,-106.375 -34.0417,-83.8055 -13.6766,-256.2449 41.25,-144.625 -76.4867,-78.9399 -254.7816,-223.59 -165,-171 -41.8291,-82.601 -223.405,-221.1126 -141,-123 -154.8358,-72.6688 -139.7852,-77.5023 -157.125,-76.5 -94.2196,-16.9015 -83.6922,11.6085 -142.875,-46.5 -20.5574,46.6426 -165.7078,36.5837 -111.875,17.125 -40.1235,-80.4392 -341.8956,70.8369 -229.125,-58.125 -49.8995,77.8791 -230.6409,206.0624 -147,112 -136.5122,11.4887 -354.1431,-3.9768 -233.25,-12.375 C 4714.5077,2062.5047 4604.0074,2000.242 4572,1993 c -42.9958,-42.6199 -282.1776,33.8231 -166,22 -107.9572,-20.7587 -279.1407,-259.4848 -216,-185 -75.0303,-49.7784 -202.2496,-118.4843 -145,-130 14.8825,-26.5938 -143.2435,-77.8379 -124.25,-69 0.9492,82.1081 -36.879,286.1506 -33.5,175.75 0.2251,53.0275 -107.2508,121.3252 -112.25,160.25 103.5883,-105.4525 -51.5054,95.2443 -59,94 10.6987,73.6397 -127.2245,137.2218 -149.25,74.5 -99.0345,-68.9332 8.0421,94.8744 -117.6342,-28.7833 39.7536,132.1732 -73.7136,121.2089 -62.7408,70.7833 -22.0271,-54.5786 -149.2182,-49.1121 -102.625,-10.125 -27.6366,41.2278 -285.6243,-13.8317 -231.75,-15.375 -37.9085,-31.1841 -315.4248,-23.6153 -198,-15 89.3241,2.456 -23.8299,110.7792 -57,143 -109.0817,-41.2969 -286.6898,-42.9602 -149,-45 -45.4088,-46.2716 -131.4872,-11.3508 -150,-44 65.0579,-38.6696 -14.6849,193.5926 -49,91 -28.1186,200.5851 -79.2847,403.8767 -97.25,263.5 114.3113,135.8556 198.5373,273.119 187.25,254.5 49.2153,61.213 111.3683,208.0943 78.5,173.375 -26.3212,44.4774 106.162,151.5867 77,111.125 85.0274,75.2869 233.695,183.548 174.5,136.5 111.7263,33.4702 196.1715,217.6962 171.875,173.875 88.0993,21.3871 116.8664,210.531 92.125,126.125 65.3152,22.6179 83.8955,150.2982 141,118 78.934,10.0646 154.1088,241.2442 107,153 75.0196,-132.8783 -13.9737,1054.7269 36,179 -175.5724,87.3473 171.6265,53.2153 128,47 94.7554,-16.163 311.0007,62.2629 187.375,57.125 46.3748,52.3917 300.6538,196.6866 210.625,138.875 86.5593,67.8377 189.8564,136.0358 141,93 17.3388,-28.6947 236.3029,16.7999 96,16 128.4066,38.2455 245.0792,29.6226 194,27.875 110.4981,59.3835 16.7412,-35.7809 102,23.125 z"
       id="path4" />
  </g>
</svg>
