<?xml version="1.0" standalone="no"?>
<!DOCTYPE svg PUBLIC "-//W3C//DTD SVG 20010904//EN"
 "http://www.w3.org/TR/2001/REC-SVG-20010904/DTD/svg10.dtd">
<svg version="1.0" xmlns="http://www.w3.org/2000/svg"
 width="1024.000000pt" height="1024.000000pt" viewBox="0 0 1024.000000 1024.000000"
 preserveAspectRatio="xMidYMid meet">
<metadata>
Created by potrace 1.16, written by Peter Selinger 2001-2019
</metadata>
<g transform="translate(0.000000,1024.000000) scale(0.100000,-0.100000)"
fill="#000000" stroke="none">
<path d="M7230 10125 c0 -70 -4 -115 -10 -115 -6 0 -10 -70 -10 -189 0 -116
-4 -192 -10 -196 -6 -4 -10 -53 -10 -115 0 -62 -4 -111 -10 -115 -6 -4 -10
-62 -10 -140 0 -78 -4 -136 -10 -140 -6 -3 -10 -53 -10 -114 0 -59 -4 -111 -9
-116 -5 -6 -12 -82 -15 -170 -10 -262 -17 -365 -26 -365 -9 0 -12 -72 -25
-490 -4 -102 -10 -189 -16 -194 -13 -14 -12 -503 1 -511 6 -3 10 -46 10 -96 0
-53 -4 -89 -10 -89 -5 0 -10 -6 -10 -13 0 -6 -13 -18 -29 -25 -17 -7 -36 -26
-43 -43 -7 -16 -16 -29 -20 -29 -5 0 -8 -13 -8 -30 0 -16 -4 -30 -10 -30 -5 0
-10 -18 -10 -39 0 -22 -4 -43 -10 -46 -5 -3 -10 -24 -10 -45 0 -21 -4 -42 -10
-45 -5 -3 -10 -19 -10 -35 0 -16 -4 -32 -10 -35 -5 -3 -10 -17 -10 -30 0 -13
-4 -27 -10 -30 -5 -3 -10 -26 -10 -50 0 -24 -4 -47 -10 -50 -5 -3 -10 -33 -10
-65 0 -32 -4 -62 -10 -65 -5 -3 -10 -24 -10 -45 0 -21 5 -42 10 -45 6 -3 10
-21 10 -40 0 -33 37 -115 52 -115 4 0 8 -7 8 -15 0 -8 5 -15 10 -15 6 0 10 -9
10 -19 0 -11 5 -23 10 -26 6 -3 10 -31 10 -61 0 -53 1 -56 56 -109 31 -30 59
-53 64 -50 4 3 6 -3 3 -14 -3 -10 0 -22 6 -25 6 -4 11 -16 11 -27 0 -10 5 -19
10 -19 6 0 10 -8 10 -19 0 -15 26 -74 71 -163 5 -10 9 -27 9 -38 0 -11 5 -20
10 -20 6 0 10 -9 10 -19 0 -11 5 -23 10 -26 6 -3 10 -15 10 -26 0 -10 5 -19
10 -19 6 0 10 -9 10 -20 0 -11 5 -20 10 -20 6 0 10 -7 10 -15 0 -8 4 -15 9
-15 5 0 11 -9 14 -19 6 -25 64 -61 97 -61 31 1 60 22 60 44 0 9 5 16 10 16 6
0 10 21 10 46 0 56 22 84 51 66 10 -7 26 -12 34 -12 8 0 15 -4 15 -10 0 -5 6
-10 14 -10 17 0 100 -42 104 -52 2 -5 12 -8 22 -8 10 0 22 -4 25 -10 3 -5 26
-10 51 -10 24 0 44 -4 44 -10 0 -5 14 -10 30 -10 17 0 30 -4 30 -10 0 -5 16
-10 35 -10 19 0 35 -4 35 -10 0 -5 13 -10 29 -10 17 0 33 -4 36 -10 9 -14 395
-14 395 0 0 11 323 8 553 -5 87 -5 110 -4 122 9 17 16 20 91 5 101 -5 3 -10
19 -10 36 0 16 -4 29 -10 29 -5 0 -10 11 -10 25 0 14 -3 25 -8 25 -4 0 -13 15
-20 33 -7 17 -18 40 -23 49 -12 23 -12 105 1 113 6 3 10 50 10 105 0 55 4 102
10 105 6 3 10 15 10 26 0 17 7 19 76 19 61 0 79 4 90 18 16 21 20 242 4 242
-5 0 -10 9 -10 20 0 11 -4 20 -10 20 -5 0 -10 7 -10 15 0 8 -4 24 -10 35 -5
11 -14 29 -20 40 -5 11 -10 29 -10 39 0 11 -4 23 -10 26 -5 3 -10 22 -10 41 0
19 -4 34 -10 34 -5 0 -10 9 -10 19 0 11 5 23 10 26 6 3 10 24 10 46 0 21 5 39
10 39 6 0 10 18 10 39 0 22 5 43 10 46 6 3 10 17 10 31 0 13 3 24 8 24 4 0 13
15 20 33 7 17 18 40 23 49 12 23 12 85 -1 93 -5 3 -10 19 -10 36 0 16 -3 29
-8 29 -4 0 -15 17 -24 38 -26 55 -50 94 -78 122 -45 45 -70 107 -70 170 0 33
-4 62 -10 65 -5 3 -10 19 -10 36 0 16 -4 29 -10 29 -5 0 -10 11 -10 24 0 14
-4 28 -10 31 -5 3 -10 15 -10 26 0 10 -4 19 -10 19 -5 0 -10 11 -10 24 0 14
-4 28 -10 31 -5 3 -10 15 -10 26 0 10 -4 19 -10 19 -6 0 -10 38 -10 95 0 57
-4 95 -10 95 -5 0 -10 20 -10 45 0 25 -4 45 -10 45 -5 0 -10 15 -10 34 0 19
-4 38 -10 41 -5 3 -10 17 -10 30 0 13 -4 27 -10 30 -5 3 -10 37 -10 76 0 39
-4 69 -10 69 -5 0 -10 14 -10 30 0 17 -4 30 -10 30 -5 0 -10 7 -10 15 0 8 -5
25 -12 38 -24 48 -28 57 -28 76 0 11 -4 23 -10 26 -5 3 -10 15 -10 26 0 10 -4
19 -10 19 -5 0 -10 11 -10 25 0 14 -4 25 -10 25 -5 0 -10 15 -10 34 0 19 -4
38 -10 41 -5 3 -10 17 -10 31 0 13 -4 24 -10 24 -5 0 -10 9 -10 20 0 11 -3 20
-7 20 -18 0 -33 60 -33 132 0 45 -4 78 -10 78 -5 0 -10 18 -10 39 0 22 -4 43
-10 46 -5 3 -10 19 -10 36 0 16 -4 29 -10 29 -5 0 -10 8 -10 18 0 22 -22 72
-32 72 -5 0 -8 13 -8 29 0 17 -4 33 -10 36 -5 3 -10 26 -10 50 0 24 -4 47 -10
50 -5 3 -10 30 -10 60 0 30 -4 57 -10 60 -5 3 -10 21 -10 40 0 19 -4 37 -10
40 -5 3 -10 24 -10 45 0 21 -4 42 -10 45 -5 3 -10 22 -10 41 0 19 -4 34 -10
34 -5 0 -10 20 -10 45 0 25 -4 45 -10 45 -5 0 -10 13 -10 29 0 17 -4 33 -10
36 -5 3 -10 19 -10 36 0 16 -4 29 -10 29 -5 0 -10 16 -10 35 0 19 -4 35 -10
35 -5 0 -10 14 -10 30 0 17 -4 30 -10 30 -5 0 -10 16 -10 35 0 19 -4 35 -10
35 -5 0 -10 15 -10 34 0 19 -4 38 -10 41 -5 3 -10 17 -10 30 0 13 -4 27 -10
30 -5 3 -10 16 -10 29 0 12 -4 26 -9 32 -5 5 -11 25 -13 44 l-3 35 -477 2
-478 2 0 -114z m46 -60 c0 -28 -8 -24 -13 5 -2 11 1 20 5 20 4 0 8 -11 8 -25z
m-24 -157 c-8 -8 -9 -4 -5 13 4 13 8 18 11 10 2 -7 -1 -18 -6 -23z m13 -188
c-3 -5 -12 -10 -18 -10 -7 0 -6 4 3 10 19 12 23 12 15 0z m-5 -37 c0 -5 -5
-15 -10 -23 -7 -12 -9 -10 -7 8 1 19 17 33 17 15z m-20 -244 c0 -5 -4 -9 -8
-9 -5 0 -9 7 -9 15 0 8 4 12 9 9 4 -3 8 -9 8 -15z m-7 -34 c-3 -9 -8 -14 -10
-11 -3 3 -2 9 2 15 9 16 15 13 8 -4z m-17 -135 c-1 -38 -5 -72 -7 -75 -3 -2
-4 23 -3 58 3 83 3 87 8 87 2 0 3 -31 2 -70z m-21 -310 c-1 -11 -4 -22 -7 -25
-4 -5 -4 34 1 43 4 8 7 -1 6 -18z m-24 -213 c-10 -9 -11 -8 -5 6 3 10 9 15 12
12 3 -3 0 -11 -7 -18z m-6 -27 c-3 -5 -1 -10 4 -10 6 0 11 -5 11 -11 0 -8 -5
-8 -15 1 -13 11 -12 30 1 30 3 0 2 -4 -1 -10z m-9 -275 c-1 -14 -5 -27 -8 -30
-4 -5 -4 19 1 48 3 19 9 4 7 -18z m-20 -240 c1 -19 -1 -35 -5 -35 -4 0 -7 18
-7 40 0 48 8 44 12 -5z m-2 -81 c3 -8 2 -12 -4 -9 -6 3 -10 10 -10 16 0 14 7
11 14 -7z m-27 -361 c-3 -10 -5 -4 -5 12 0 17 2 24 5 18 2 -7 2 -21 0 -30z
m-14 -356 c3 -8 2 -20 -3 -26 -5 -9 -7 -4 -7 13 0 29 2 32 10 13z m3 -83 c1
-9 0 -13 -4 -10 -3 4 -7 14 -8 22 -1 9 0 13 4 10 3 -4 7 -14 8 -22z m17 -379
c-7 -21 -12 -19 -10 4 0 11 5 18 9 15 4 -3 5 -11 1 -19z m-38 -34 c3 -5 2 -12
-3 -15 -5 -3 -9 1 -9 9 0 17 3 19 12 6z m-89 -119 c-17 -16 -18 -16 -5 5 7 12
15 20 18 17 3 -2 -3 -12 -13 -22z m-106 -513 c0 -5 -4 -9 -8 -9 -5 0 -9 7 -9
15 0 8 4 12 9 9 4 -3 8 -9 8 -15z m730 -703 c0 -2 -8 -10 -17 -17 -16 -13 -17
-12 -4 4 13 16 21 21 21 13z m-25 -56 c3 -5 1 -10 -4 -10 -6 0 -11 5 -11 10 0
6 2 10 4 10 3 0 8 -4 11 -10z m200 -28 c-3 -3 -11 0 -18 7 -9 10 -8 11 6 5 10
-3 15 -9 12 -12z m-95 -6 c0 -2 -7 -7 -16 -10 -8 -3 -12 -2 -9 4 6 10 25 14
25 6z m55 -6 c3 -5 1 -10 -4 -10 -6 0 -11 5 -11 10 0 6 2 10 4 10 3 0 8 -4 11
-10z m300 -120 c3 -5 1 -10 -4 -10 -6 0 -11 5 -11 10 0 6 2 10 4 10 3 0 8 -4
11 -10z"/>
</g>
</svg>
