<?xml version="1.0" encoding="UTF-8" standalone="no"?>
<svg
   version="1.0"
   width="1024.000000pt"
   height="1024.000000pt"
   viewBox="0 0 1024.000000 1024.000000"
   preserveAspectRatio="xMidYMid meet"
   id="svg16"
   sodipodi:docname="e.svg"
   xmlns:inkscape="http://www.inkscape.org/namespaces/inkscape"
   xmlns:sodipodi="http://sodipodi.sourceforge.net/DTD/sodipodi-0.dtd"
   xmlns="http://www.w3.org/2000/svg"
   xmlns:svg="http://www.w3.org/2000/svg">
  <defs
     id="defs20" />
  <sodipodi:namedview
     id="namedview18"
     pagecolor="#ffffff"
     bordercolor="#666666"
     borderopacity="1.0"
     inkscape:pageshadow="2"
     inkscape:pageopacity="0.0"
     inkscape:pagecheckerboard="0"
     inkscape:document-units="pt" />
  <metadata
     id="metadata2">
Created by potrace 1.16, written by Peter Selinger 2001-2019
</metadata>
  <g
     transform="translate(0.000000,1024.000000) scale(0.100000,-0.100000)"
     fill="#000000"
     stroke="none"
     id="g14">
    <path
       d="m 5175,9491 c -264.361,-66.978 -71.6876,22.0642 -235,-18 155.6899,-68.3976 18.7766,-114.7941 -40.25,-39.25 -59.4387,-17.7736 -279.3151,7.2877 -235.75,-9.75 -9.4607,-55.8878 -189.9456,-93.5492 -122.375,-32.375 -13.4103,-12.227 -237.5107,-101.1527 -177.25,-68.625 -10.2979,8.409 -170.5806,-55.8227 -120.375,-21 -159.3879,-21.5236 -230.0301,-104.9882 -156,-72 -58.5517,-29.1014 -114.8434,-41.4224 -120,-44 -26.7029,-48.8929 -285.1203,-132.9932 -201,-94 -48.4716,-30.7032 -125.2515,-97.8641 -93.875,-65.875 C 3565.9325,8996.4249 3509.0425,8910.8516 3539,8972 c -126.3629,-45.0661 -155.2184,9.5593 -154,7 -140.5124,-78.9446 -24.1988,186.4179 -158,-42 -43.6447,-10.3148 -93.8486,-175.9326 -100.625,-124.375 C 3057.195,8806.0372 2920.7961,8647.4777 3015,8710 2967.4642,8618.476 2786.3036,8444.1617 2846.375,8494.5 2771.3752,8415.0569 2605.5386,8244.1645 2691,8341 c -83.2474,-39.2644 -245.6815,-130.0424 -141,-116 -90.7999,-78.1375 -55.1311,44.4596 -98,-85 20.2888,-127.1779 -202.9412,-317.2172 -120,-226 -17.6921,-52.3726 -163.3977,-235.8789 -111.5,-169.75 -91.8132,-145.6761 -80.2697,-149.3689 -194.5,-287.25 -27.1001,-95.4262 -121.526,-260.5559 -81,-190 -60.8723,-94.6945 -80.6838,-360.1095 -98,-272 -32.0611,-115.1194 -66.0328,-343.6464 -48,-262 -20.4567,-78.7113 -77.8719,-349.4965 -58,-248 -5.9116,-68.707 2.6839,-205.6847 -1,-139 -1.7208,-133.9677 45.2956,-434.3361 10,-364 -24.1015,-91.4747 -14.2639,-372.0065 -8,-238 0.5199,-112.2116 9.2842,-403.3061 -1,-289 44.5848,-26.7355 67.1812,-239.6789 62,-181 31.3303,-113.4027 92.4368,-258.8035 71.25,-212.875 40.9171,-100.8007 136.8401,-224.45 75.125,-197.125 19.7472,-63.6633 146.237,-193.1142 92.125,-214.25 -13.3697,-75.634 51.0474,-185.2751 36.375,-128 -2.3293,-9.6307 81.1605,-128.7804 57.5,-109.375 -27.9715,-53.9824 65.8345,-120.9234 65.625,-158.375 -9.3779,-77.6276 84.5234,-258.0215 82.125,-189.75 46.9793,-29.905 66.3627,-125.9399 67.875,-102 53.4517,-46.6506 86.2932,-283.2988 96,-197.25 80.3104,56.0417 141.2593,16.3616 91,-34 33.2948,-95.831 224.1753,-310.268 149,-221 12.6913,-17.5557 159.942,-177.2281 93,-105 41.5413,-48.4646 208.9132,-200.2541 136,-142 59.1014,-82.1241 278.34,-217.1512 181.625,-197.375 -3.4947,-45.5055 54.0279,-160.9897 49.5,-89 50.9597,28.7105 245.2396,-99.2177 145.875,-105.625 23.5566,-66.6722 171.7828,-183.1117 117,-132 52.4103,-42.6926 274.074,-239.6648 194,-169 -173.4751,82.7875 -57.5936,-38.315 42.625,-61.75 72.2876,-30.948 147.0706,-170.6068 126,-104.625 83.4351,39.894 162.6112,90.8559 144.875,-34.875 38.7495,-144.5203 147.4302,-97.9481 149.5,-163.75 62.4615,-36.0361 116.5186,-140.4164 153,-116 94.5518,-60.8363 176.0598,-132.2976 164,-111 84.2158,-3.4584 163.2275,-49.0208 106,-58 65.5031,-20.4617 324.8195,-216.1983 200,-162 -4.9169,-18.2634 98.7526,-74.5086 97,-79 21.4258,-106.4486 108.6374,-178.8343 107.25,-114.625 92.2012,-35.5604 215.718,-69.2738 161.75,-82.375 -2.4104,-38.0759 84.719,-94.1637 67,-67 117.2122,-74.1382 231.3724,-193.7243 166,-109 36.4696,33.9425 159.8054,38.0413 92,-2.75 -25.4147,-32.1549 264.6305,-203.3461 139,-123.25 -57.8058,103.3098 145.4918,-109.9094 140,-92 79.6876,28.7314 292.1379,-127.05375 209,-96.25 128.47,-105.58683 412.2231,-14.82741 273,-29.75 -74.6287,0.34963 69.1997,-187.76201 12.75,-117.25 -34.6031,117.03009 -270.6851,51.43581 -44.75,32.25 -36.9649,5.72434 90.6334,-139.93446 82.625,-123.5 132.6035,1.19912 -61.8429,13.83605 122.375,-56.5 8.0384,-47.44061 178.5902,-154.0914 163,-123 64.0752,22.38932 256.2624,-154.83245 211,-121 -26.0767,-21.80478 275.5941,28.27557 210,-27 15.5539,-19.77415 114.4658,-82.32076 74,-19 106.3252,-67.90122 283.6453,-67.95315 171.125,-42.625 -33.1356,-54.55748 57.3347,36.09505 71.625,-2.75 131.4062,108.17392 89.8064,337.79687 26.25,253.375 -105.8956,-83.10205 30.924,45.89723 -27,59 -77.2655,-72.41315 160.9878,2.64389 119.625,44.625 103.0837,58.32587 8.9282,51.9517 92.375,105.375 61.368,-18.13576 170.0917,338.2761 98.7969,165.95312 C 7512.9523,1021.7594 7478.4515,1093.7478 7538,1122 c 19.475,22.5106 161.8289,134.9646 20,65 -114.1047,48.8083 68.802,-102.5696 -82,-7 40.5133,-92.2104 -126.5404,-191.0592 -105.125,-145.875 C 7286.7841,966.65478 7205.3258,882.48688 7345,950 c 0.7845,-59.81583 -42.9047,-151.12488 -77.75,-57 -76.5827,-14.00053 -175.5121,-127.31806 -150.25,7 -68.0972,32.28245 28.5949,34.42822 48,90 -121.6031,71.9922 79.5421,-9.24815 102.4531,105.1875 212.1791,68.4804 50.8823,68.8176 158.5469,24.8125 -9.8571,71.1823 -74.2529,100.315 -24,104 -80.0595,-8.3267 -159.9812,-72.8514 -135,-66 -78.1814,88.6185 -153.6934,159.4146 -103,54 -64.5711,116.4827 73.9723,-25.3771 -19,-80 4.9153,-67.3464 -38.2058,-292.6435 -45,-152 -21.5459,-51.00146 -73.4983,-219.08641 -29,-16 -40.5364,151.1596 -9.1531,-109.9962 -121,-6 132.7759,41.78524 -85.4802,-122.83447 -111,-55 20.0694,-68.90717 125.7851,16.72148 91,-24 -33.3191,-89.13937 -15.7192,-64.17942 66.75,26.875 C 6985.4835,799.71309 6965.7972,649.91492 7039,762 7121.4146,676.79645 6861.2932,742.53664 7028.75,793.375 7049.6913,937.84991 6919.2664,685.29556 6946,765 c 48.1624,-93.20441 -11.5327,-191.36047 -40,-91.5 -81.5191,-17.84748 -86.0339,318.41881 -76,149.5 -102.7686,-41.50018 14.5365,29.20478 -56,46 -89.1859,34.72914 -195.1518,-64.32736 -109,-58 -58.5779,-41.11202 -79.771,195.3223 -45.125,188.5 47.6439,-10.00551 -69.0296,110.5507 40.125,99.5 -42.0396,-6.8589 275.9546,-168.86644 93,-55 -226.527,-120.66675 32.1412,-33.8611 -74,-143 114.69,11.54948 120.963,10.46993 99.75,44.25 72.742,-27.51091 -34.7231,95.9537 -8.125,109.25 145.6542,-32.4958 96.073,226.591 144.375,33.5 199.5377,107.4695 109.423,53.4763 7,-23 -24.6806,-59.3298 -96.4861,31.4623 54.375,-6.875 -0.7071,-17.5611 213.4299,48.268 6.875,90.625 173.2467,104.2668 95.1996,166.4228 -12.25,117.25 142.8778,-34.6851 187.8407,106.3467 110,-34 139.2464,80.3264 -43.6754,149.0767 -56,104 128.2516,-54.1996 -259.1652,119.1912 -124,8 -69.125,194.346 -250.7682,81.9791 -209,69 -54.9486,46.3411 -15.7016,-75.5464 -110.125,59.375 24.1994,136.295 107.7076,-90.4107 46.875,80.125 -47.7009,54.7813 66.599,95.7701 65.25,48.5 66.7189,-48.2996 -73.3088,19.2052 91.625,-6 -13.817,118.3804 150.1423,-29.192 123.25,-31.625 33.0939,22.3996 226.7536,-22.2263 141.125,28.625 14.1095,25.1012 134.096,93.1121 57,1 -27.4359,-34.3858 -139.4989,-122.8025 -48,-88 -41.9239,-49.3232 26.5607,-199.8409 2,-149 23.1707,42.1282 125.9622,-64.9103 140,-81 48.3351,-73.8242 65.1468,132.7604 45,135 9.3195,29.1262 151.0074,-186.6201 108.25,-122.5 -17.7411,146.8696 98.0758,-43.2243 55.75,-11.5 122.9168,-65.2662 253.3197,-107.6641 149.125,-63.25 107.8653,57.2283 277.1919,109.649 190.75,44.625 -36.6109,-3.2253 41.2735,86.2611 44.125,87.625 6.9108,163.2296 -34.5873,61.3011 -86.125,137 -82.9881,-13.3637 -263.9783,112.0704 -151.875,85 -19.4975,-6.5259 -120.2345,-50.5551 -107.75,15 -48.207,-38.764 -199.1948,37.0857 -107.25,70 -40.2593,13.9418 -175.6847,57.9576 -110,54 -85.4837,-71.1168 -166.2807,-75.1648 -158.125,3.625 -8.2131,101.021 -32.1625,95.2753 -118.875,59.375 -36.1547,-1.5044 -151.1782,71.8486 -122.25,66.25 -135.9026,21.3363 -207.9328,22.8876 -114.25,46 -170.868,55.4221 -230.7292,95.8181 -134.875,93.5 -55.889,14.2438 -241.3892,129.122 -133.625,82.25 3.2134,-69.3256 -105.2931,-61.6445 -83,5 -84.5655,123.7144 -305.6287,287.3407 -205,164 -1.6178,-131.4345 32.5049,53.5315 4,75 32.5026,75.9645 74.1973,189.9096 43,125 -125.7021,138.2991 -133.7917,110.8024 -100,30 -28.5493,42.7232 -174.8413,23.6204 -118,-17 180.8839,114.433 -94.5859,-42.2723 -38,16 57.566,-74.8057 -68.712,-29.1401 -123.125,-4.25 36.6362,-10.1995 -323.3895,142.346 -169.875,82.25 -87.7038,37.7863 -348.5442,189.1761 -267.875,176.75 -111.1525,48.0524 -217.9903,121.846 -159.125,117.25 -4.8223,50.7031 -152.4889,172.9055 -95,138 -72.6275,20.2569 -207.8047,166.6544 -107,94 -17.7912,16.0175 -217.7735,136.4293 -118.25,90.625 -30.9802,21.9281 -114.2711,86.1369 -105.75,95.375 -48.4943,106.7474 25.7213,-114.2409 -43,112 -44.7374,106.154 -123.4357,230.5299 -115,164 -78.046,19.4113 -144.4181,56.957 -128,44 -184.6635,299.1338 -180.4083,220.7433 -93.625,141.625 24.8754,32.5404 -8.8808,179.2477 -32.375,111.375 -120.6562,-51.5314 44.0034,76.7428 -20,55 4.5852,45.5694 -83.3818,202.1171 -57,138 -0.2364,-26.7163 -95.2069,40.0531 -80,26 -8.1835,122.6909 -82.5506,330.598 -73,241 -60.8815,69.5225 -158.624,105.9297 -102.125,96.625 -29.7888,32.2893 -62.5873,-166.6251 -88.875,-14.625 14.1511,92.9985 95.909,156.7686 96,147 109.3447,-25.0735 224.6279,24.9608 93,43 -2.3891,-46.1281 73.7596,103.3351 85,46 -32.7777,-12.9041 -73.1541,81.9375 34.125,54.5 -80.1824,44.0392 43.2263,-18.0404 -13.375,57.625 3.5996,-102.4283 101.8577,133.641 122.25,-30 32.9333,-55.8647 -57.2281,-49.6929 -38,-45.125 -87.305,-68.1035 18.2305,14.5886 1,-45 99.1264,21.2095 59.6094,52.4731 125.875,44.625 -38.9785,19.9539 89.8845,206.5078 141.25,142.5 -147.9369,51.6116 264.5654,-53.5151 61.875,-5.625 -32.2647,-23.4753 48.7057,-57.981 38,-54.5 -38.9685,-30.5347 79.5956,-62.867 67.5,23 66.7323,-92.7293 552.1019,399.9741 131.5,92 73.2838,83.2418 131.28,-16.402 18.875,-48.75 76.5141,104.897 101.6892,13.4634 158.125,74.75 62.7523,-65.5853 131.8112,69.7927 156.0625,59.6094 14.9575,-96.0265 93.375,-11.054 77.9375,36.3906 63.2127,150.4623 242.1149,70.4564 106,10 16.3978,-7.541 -98.9102,79.2596 94.25,8.125 -26.4862,52.7132 196.8624,37.7665 109,60.875 -19.4234,176.8683 10.8335,15.2007 47.75,92 72.4447,37.1217 259.5963,104.476 162,83 61.0973,71.3385 74.4793,277.8809 -1.75,145.625 69.2219,25.7503 42.0424,-104.5441 63.75,-36.625 -56.6239,-224.7248 -10.473,-91.9038 5,-126 85.6613,-172.7356 122.1505,-40.5359 126.25,-10.875 20.0802,-80.099 222.5216,92.5129 106.75,26.875 35.0195,43.4776 77.6889,172.3313 136.875,134.875 9.9252,29.9477 171.5329,246.1387 124.125,140.125 53.3122,-94.7919 178.9813,-40.3463 124.125,26.75 -15.9028,81.8012 -21.8962,115.6017 75.875,93.25 40.8928,-8.7699 217.1289,209.0174 211,136 201.9824,69.6727 -352.5487,-245.82 136,64 -1.8725,-1.918 160.5438,193.4359 113,135 56.6373,50.2144 260.2322,337.4383 171,245 78.4859,126.6156 102.4268,208.9624 111.375,239.125 46.5933,25.6255 111.6474,263.5255 90.625,229.875 39.737,89.4097 63.1329,351.6652 58,286 10.4211,75.0333 40.4489,341.558 33,263 -4.3108,375.2163 14.1522,341.2571 -9.625,484 42.4107,65.6624 52.9028,199.4461 2.625,134 -79.4415,10.0788 -4.6446,122.9949 -44,90 -47.3568,97.0177 -94.241,209.6242 -48,124 43.4528,83.8697 -39.0439,107.6372 -27,94 -30.5628,39.5174 -81.6064,162.538 -33.75,112.875 9.436,38.2288 -20.376,67.7969 -25,92.875 -50.2641,18.6457 -181.4065,103.7303 -107.25,102.25 -15.4927,161.6972 -165.2205,329.3555 -156,263 -76.5838,97.8408 56.2715,-138.8 -57,70 -109.191,73.0973 -204.9674,136.8579 -137.5,106.5 -46.9401,79.5285 -132.0732,162.6672 -118.5,118.5 -39.8861,-13.2435 -117.6906,43.2633 -98,50 -0.1617,57.7302 -159.5792,224.3462 -118,116 -16.4215,-54.1479 -56.5563,-4.0696 -77,-11 -84.7711,132.0866 -209.6875,62.533 -166,51 -62.9044,53.0876 -129.3373,137.6863 -106,92.125 -30.4425,-38.0727 -148.3902,38.164 -120,29.875 -83.1198,-31.6167 -171.8767,-16.4716 -124,10 -105.7015,38.4334 -207.3182,70.8031 -216,61 -27.9783,32.7899 -302.0258,135.4974 -221.75,55.5 30.588,-60.2924 -123.0378,-50.2643 -126.125,23.875 -65.2691,-65.9013 -229.9936,-20.672 -140.125,-15.375 -21.927,25.804 -122.1688,28.7587 -121,11 22.7305,-3.7779 81.8277,24.4578 36,27 z M 4830,8121 c -267.0608,50.6628 175.702,-29.4748 15,-75 -143.4473,129.8109 -102.4926,-25.9587 -16.0035,-64.2789 55.6549,-76.5831 -119.3008,-28.6 -61.9965,-57.7211 -3.8252,45.4289 82.4365,230.0267 30,179 23.2714,-11.5571 -17.734,48.7238 33,18 z m -745,-124 c 61.6064,-66.5616 0.807,-263.1765 46.9375,-171.5469 18.4201,138.5134 -226.2192,-36.9847 -136.9375,5.5469 39.2031,94.9978 201.1185,122.4111 111.75,123.125 -18.3989,9.4717 -53.1076,104.6845 -21.75,42.875 z m 21,-143 c 40.0052,-108.8566 16.0518,-247.1087 13,-154 -116.8737,-67.6738 -13.7781,251.8662 -42.5,152.75 -63.716,-213.1266 -151.5354,-89.3444 25.875,20.125 z m 1261,-43 c -56.6478,-13.6867 207.2857,-83.554 32,-21 165.8204,-178.2655 242.4967,-72.855 173,-31 84.1944,63.8066 170.0563,-125.8513 124,-41.75 122.5009,-24.5609 -132.354,-4.9761 40,-36.25 97.2062,-26.5638 220.6015,-142.5711 110,-30 -6.8095,45.5266 151.923,-39.4933 103,-48 0.9992,-21.2163 73.5866,-46.1173 65.625,-6.75 71.5353,-4.8276 14.8749,56.6068 138.375,-84.25 8.3067,78.7887 115.2524,-120.5966 114,-129 48.3628,-83.039 -214.0357,-449.0433 -48,-167 40.2585,-2.3061 -132.0633,-116.5259 -123.75,-101.625 -9.3456,54.3992 -94.5707,-56.9874 -67.25,-40.375 29.9199,-8.2565 -87.8118,-153.5488 -98,-133 10.8157,-25.6988 -13.9003,-146.9468 -61.9514,-115.1117 C 5801.8504,6808.712 5697.7451,6728.0399 5759,6684 c 96.3774,116.6753 2.1215,-34.2913 -15,17 -29.7666,-83.8089 89.8414,4.9149 14.125,-59 34.1935,19.0012 -73.1178,-180.0291 -78.125,-142 -2.6157,66.4869 -6.5096,-62.0992 -49,-17 -22.6611,-62.2683 -192.5406,92.1508 -117,52 -204.5638,-47.1127 103.8698,73.1222 -92,17 -107.0182,-42.2392 -229.0681,-44.6377 -132,-64 -51.1757,87.1714 -77.6312,319.9086 -83,158 -2.3843,182.1177 -67.6815,-19.728 -55.125,92.125 -0.1861,27.4968 6.1885,-59.688 -40.875,-44.125 -131.0518,-73.6764 -107.5143,-206.0209 -82,-119 -17.3788,-18.9711 -140.6569,171.6845 -129,35 -149.834,11.1198 -77.3546,-34.8226 -85,-30 -55.474,-21.1353 -96.4073,-98.6368 -80.125,-35.375 18.8895,121.417 -107.0704,148.0255 -72.875,50.375 -70.6846,65.561 -104.8327,-31.1702 -43,-51 -20.4439,7.6341 -120.9212,76.0581 -139,101 -125.3596,1.0766 -142.165,-54.0456 -65,-45 -94.3273,-68.3927 -192.8865,-150.6822 -113,-129.125 -60.6659,-97.96 -254.128,-182.5504 -140.875,-103.25 53.4058,70.6494 -82.7851,-135.5801 -53.625,-87.25 -37.5049,-53.7295 -188.6581,-319.6258 -133.5,-216.25 -67.8718,-75.3339 -181.0793,-277.0391 -139,-219.125 4.7548,-39.2089 -190.3206,-170.9501 -111,-134 -54.1221,-172.9281 -36.386,-321.6489 -57.875,-216.75 -84.2039,-87.0838 -143.8549,42.3568 -73.125,20.75 2.2948,30.1028 -26.3421,208.4991 -7,145 -6.0106,112.6578 35.769,363.9975 -5,233 22.03,92.6806 115.4536,279.7166 68.125,229.375 -8.6961,105.4551 72.4312,359.6905 54.875,293.625 10.6316,45.6365 119.2269,293.396 73,230.5 -2.328,26.2803 70.0837,161.7139 57,113.5 50.6672,92.4728 99.2816,285.8079 88.625,176.625 47.4013,48.5361 215.4627,319.1202 142.375,212.75 115.0745,66.4726 268.4286,195.5053 162.125,164 52.4093,100.9692 90.0958,218.8477 67.875,126.625 77.5674,106.1803 85.6397,-137.1049 88,-29 -71.8718,48.9433 240.7444,-43.3139 75,-11 27.2023,85.1236 102.2698,119.9772 92,96 102.1751,-12.449 -32.3947,39.0288 109.375,32.375 5.2845,-31.6115 256.3548,155.7817 166.625,74.625 88.8721,7.9215 331.2719,88.6371 192.625,39.375 51.2316,48.0004 113.8525,135.9776 121.375,112.625 24.4001,22.1021 117.4242,-74.8021 148,-14 26.9063,8.0424 53.7323,78.7219 79,70 z m -1506,-95 c -0.5467,-100.708 -39.8626,-62.3445 -61,-117 12.9078,-3.9586 -18.8636,5.5055 95,62 71.0201,-49.2085 -67.3978,-189.888 -79,-135 -38.3008,-74.6983 87.3821,132.039 1,30 -85.9241,60.2084 -77.1261,-39.3248 -130,-33 39.3145,-18.1509 46.6987,-3.9534 52.375,-65.875 -106.2453,40.771 -91.6156,-126.6997 -65.375,-78.125 -97.0029,-19.219 -72.2624,170.4768 -24,136 8.9813,27.0923 139.0409,142.6244 47.8906,106.75 -8.2349,13.9655 -61.1217,99.1441 87.1094,17.25 -3.0422,66.467 52.2539,46.7199 76,77 z m 904,-2476 c -64.6512,-68.9753 -172.78,-300.5982 -110,-147.875 90.0178,-34.2634 46.1097,-169.1938 -8,-121.125 82.9105,-91.3786 -3.8621,-222.2357 27,-159 -162.4877,-86.0253 -36.9121,31.5989 -34,58 38.9876,17.6655 -86.4963,157.7545 -45.125,114.75 35.6538,-102.5122 -28.0046,-74.6464 -27.875,-86.75 -49.3123,-103.4501 -41.9263,-95.7257 -6.75,-134.375 125.3592,-5.5724 -94.9022,-41.0828 -132.25,-89.625 -91.1142,109.3357 134.706,35.0031 71,24 46.7484,-19.9052 -118.7991,-56.3302 -36,35 -103.003,102.6861 -357.2179,41.6059 -255.5,9.25 -84.3269,-96.018 79.8613,161.0019 -47.125,29.25 42.7566,48.4693 137.7549,146.3123 139.625,127.625 53.6553,-6.051 207.5723,161.1157 131,60.75 112.1663,-3.7451 188.1419,55.1293 163.25,139.25 79.656,7.4548 63.533,174.3668 170.75,140.875 z M 7230,1558 c -61.9361,6.6257 -107.5583,-137.5351 -34,-113 36.4568,116.1688 104.1426,-225.0633 -31,-86 -115.5286,3.4211 211.8681,-113.5402 -7,-47 -187.4379,76.6084 111.0196,159.8881 40,200 -29.8509,61.674 -169.9988,-8.7087 32,46 z"
       id="path4" />
    <path
       d="m 6802,1606 c -115.717,-0.9714 -182.1858,-205.9663 -47.125,-162.5 -29.281,29.1737 -7.0337,146.3568 -57.875,79.5 9.0682,-0.1692 80.9318,-98.3812 89,-14 -10.9551,-101.702 -19.5766,-134.9651 58.375,-91 115.2895,-52.2837 -73.154,180.44 100.625,107 106.4636,1.151 -210.1826,56.5058 -105,45 -85.6884,-102.9345 -7.7751,-62.1369 -38,36 z"
       id="path6" />
    <path
       d="m 6996,1573 c 81.2091,-172.3117 -56.258,24.6741 -44,-121 141.4212,-84.4036 229.2006,-26.4662 76.6223,-69.5418 -59.2154,64.4805 89.4996,103.631 -32.6223,190.5418 z"
       id="path8" />
    <path
       d="m 7300,1355 c -65.2844,-129.5887 -262.0696,-98.9122 -4,-163 -26.036,118.1247 283.7941,44.8264 147,25 -52.4464,67.4568 -102.2333,-5.0333 -125.625,54.125 -109.8774,-12.1642 22.4217,77.3812 -17.375,83.875 z"
       id="path10" />
    <path
       d="m 7451,1189 c 2.6473,-168.2195 -54.3708,-141.7367 -137,-119 C 7234.3026,943.72741 7104.7578,895.66977 7197.9688,984.53125 7153.7605,864.47627 7403.6754,874.96473 7318,943 c 30.4462,153.1916 61.239,65.5811 72,131 96.8679,-39.7359 88.5143,180.5669 61,115 z"
       id="path12" />
  </g>
</svg>
