<?xml version="1.0" standalone="no"?>
<!DOCTYPE svg PUBLIC "-//W3C//DTD SVG 20010904//EN"
 "http://www.w3.org/TR/2001/REC-SVG-20010904/DTD/svg10.dtd">
<svg version="1.0" xmlns="http://www.w3.org/2000/svg"
 width="1024.000000pt" height="1024.000000pt" viewBox="0 0 1024.000000 1024.000000"
 preserveAspectRatio="xMidYMid meet">
<metadata>
Created by potrace 1.16, written by Peter Selinger 2001-2019
</metadata>
<g transform="translate(0.000000,1024.000000) scale(0.100000,-0.100000)"
fill="#000000" stroke="none">
<path d="M5175 9491 c-3 -6 -14 -8 -25 -6 -12 2 -18 0 -15 -4 8 -14 -21 -21
-34 -8 -6 6 -26 12 -43 13 -21 1 -26 -1 -17 -7 13 -8 6 -13 -13 -10 -8 1 -12
-15 -9 -32 1 -5 -3 -6 -7 -3 -5 3 -7 17 -4 31 5 28 0 30 -29 14 -15 -8 -24 -7
-36 3 -15 12 -15 11 -3 -9 13 -20 15 -20 37 -6 14 10 23 11 23 4 0 -6 -4 -11
-10 -11 -5 0 -7 -7 -4 -15 4 -8 1 -15 -6 -15 -6 0 -8 5 -5 10 3 6 2 10 -4 10
-5 0 -13 -5 -16 -10 -4 -6 -11 -8 -16 -4 -5 3 -7 9 -4 14 3 4 -3 14 -12 21
-12 10 -14 10 -9 2 4 -7 3 -13 -1 -13 -5 0 -15 6 -22 13 -11 10 -11 8 -2 -10
13 -26 15 -44 2 -24 -5 8 -25 15 -45 16 -38 1 -44 -16 -16 -52 13 -16 12 -16
-8 1 -27 23 -67 33 -56 14 5 -8 1 -7 -10 2 -16 13 -20 12 -39 -10 -13 -16 -18
-19 -14 -7 6 15 -3 22 -18 15 -2 -2 -11 6 -20 17 -15 18 -15 18 -1 -11 12 -26
13 -31 1 -31 -8 0 -14 3 -13 6 2 19 -4 28 -17 28 -11 0 -12 -4 -4 -13 7 -8 6
-14 -2 -20 -8 -4 -9 -3 -5 4 6 10 -7 17 -17 10 -2 -2 -12 4 -22 12 -13 10 -16
11 -11 2 5 -9 1 -15 -13 -19 -19 -5 -25 -14 -23 -34 1 -9 -36 -4 -45 6 -5 4
-3 6 2 2 6 -3 17 -1 25 4 11 7 8 8 -10 5 -14 -2 -24 -9 -22 -16 2 -9 -6 -11
-27 -7 -19 4 -33 1 -41 -8 -7 -8 -16 -13 -20 -10 -5 3 -12 0 -16 -6 -4 -7 -3
-9 3 -6 5 3 10 -1 10 -9 0 -9 -4 -11 -10 -5 -11 11 -39 3 -31 -10 3 -5 -3 -6
-12 -2 -16 6 -15 8 4 16 12 6 22 14 22 20 0 5 -7 4 -15 -3 -8 -6 -20 -8 -26
-4 -8 4 -9 3 -5 -4 4 -7 3 -12 -3 -12 -5 0 -17 -3 -27 -7 -14 -5 -16 -3 -11
11 4 10 3 15 -4 11 -5 -4 -7 -16 -4 -28 2 -12 2 -16 -1 -9 -3 6 -12 12 -20 12
-9 0 -13 -4 -10 -8 3 -5 -13 -7 -35 -6 -21 1 -39 -3 -39 -8 0 -6 -7 -5 -16 2
-12 11 -15 11 -12 -1 2 -8 -3 -13 -10 -11 -8 1 -11 -2 -8 -7 4 -5 15 -8 26 -6
12 2 18 0 14 -6 -3 -6 -9 -8 -12 -5 -3 3 -12 0 -20 -7 -9 -6 -13 -7 -10 -2 3
6 -1 16 -8 23 -13 12 -14 9 -9 -15 5 -21 4 -24 -4 -13 -9 13 -14 9 -13 -10 0
-3 -15 -5 -34 -4 -19 1 -31 -2 -28 -7 3 -5 11 -6 17 -3 7 4 8 3 4 -2 -5 -5
-14 -9 -20 -9 -7 -1 -11 -7 -9 -14 1 -7 -2 -10 -8 -6 -5 3 -10 1 -10 -6 0 -7
-3 -9 -6 -6 -4 4 -1 13 6 22 8 9 8 15 2 15 -6 0 -14 -5 -17 -10 -4 -6 -10 -8
-15 -5 -5 3 -11 1 -14 -4 -4 -5 -1 -13 5 -17 8 -5 9 -3 4 6 -5 9 -4 11 3 6 15
-9 15 -11 -5 -27 -11 -10 -14 -10 -9 -1 4 6 3 12 -3 12 -5 0 -18 3 -28 7 -17
7 -17 6 0 -11 18 -19 22 -27 10 -24 -14 2 -43 -14 -38 -21 2 -5 -8 -7 -23 -5
-15 1 -27 3 -27 4 0 1 -8 3 -18 5 -9 2 -15 -1 -11 -6 3 -5 -2 -10 -10 -10 -35
-3 -41 -5 -39 -17 2 -7 -4 -12 -13 -12 -8 0 -13 4 -9 9 3 5 1 12 -4 16 -6 3
-8 -6 -5 -21 4 -22 3 -25 -9 -16 -16 14 -28 6 -20 -14 3 -8 10 -11 16 -7 6 3
7 1 3 -6 -6 -8 -12 -9 -20 -2 -7 6 -16 8 -20 4 -4 -4 -4 1 0 12 7 17 6 18 -8
5 -14 -13 -15 -17 -3 -26 11 -8 -1 -10 -45 -9 -49 2 -57 0 -52 -13 4 -11 7
-12 10 -4 4 14 22 16 22 3 0 -15 -33 -22 -42 -9 -6 10 -8 10 -8 1 0 -7 -5 -13
-11 -13 -5 0 -7 5 -3 12 4 7 3 8 -5 4 -9 -6 -9 -11 0 -22 10 -12 10 -15 -2
-12 -8 2 -17 8 -21 13 -4 6 -8 2 -8 -8 0 -10 -7 -20 -15 -23 -8 -4 -12 -11 -8
-18 4 -6 -1 -5 -10 3 -14 11 -20 11 -34 0 -11 -10 -14 -10 -9 -1 4 6 2 12 -4
12 -6 0 -8 12 -5 30 3 17 1 30 -4 30 -6 0 -8 -9 -6 -20 2 -11 -1 -20 -6 -20
-6 0 -7 -4 -4 -10 3 -5 1 -10 -5 -10 -6 0 -8 11 -6 25 3 15 1 23 -5 20 -5 -4
-7 -11 -4 -16 6 -8 -2 -11 -21 -8 -4 0 -10 -5 -15 -12 -4 -8 -11 -10 -16 -6
-4 5 -1 12 7 17 12 7 11 10 -4 16 -11 4 -21 2 -27 -7 -5 -8 -9 -10 -9 -5 0 5
-6 3 -14 -3 -11 -10 -17 -8 -26 6 -10 16 -10 15 -5 -4 7 -24 -9 -32 -19 -10
-4 6 -4 2 -2 -11 3 -15 0 -20 -7 -15 -23 14 -39 13 -27 -2 18 -22 3 -37 -23
-23 -20 10 -21 10 -8 -5 12 -15 11 -17 -3 -17 -10 0 -14 -4 -11 -10 3 -5 1
-10 -5 -10 -6 0 -8 -5 -4 -11 4 -8 -1 -9 -17 -4 -24 7 -24 7 -4 -10 11 -9 14
-13 6 -9 -11 5 -13 3 -7 -11 5 -15 4 -16 -8 -6 -10 8 -16 9 -21 1 -3 -5 -2
-10 3 -10 5 0 9 -7 9 -14 0 -12 -5 -13 -21 -4 -20 11 -20 10 -6 -7 14 -17 13
-18 -4 -12 -17 7 -17 6 -5 -10 9 -11 10 -14 2 -9 -8 4 -13 2 -13 -4 0 -6 -4
-9 -9 -6 -5 3 -8 -2 -7 -12 0 -10 -6 -16 -16 -16 -10 1 -16 -2 -13 -6 3 -5 -2
-16 -11 -24 -12 -12 -12 -16 -2 -17 7 0 3 -5 -9 -11 -13 -6 -23 -17 -23 -25 0
-8 -5 -11 -12 -7 -7 4 -8 3 -4 -5 5 -7 -3 -20 -18 -32 -14 -11 -26 -30 -26
-42 0 -18 -2 -19 -10 -7 -9 14 -15 7 -11 -14 1 -5 -7 -6 -19 -3 -15 4 -20 0
-20 -15 0 -13 -5 -18 -14 -15 -10 4 -13 1 -9 -8 3 -8 -2 -18 -11 -21 -9 -3
-13 -10 -10 -16 3 -5 -2 -8 -11 -6 -10 2 -20 -3 -23 -11 -3 -9 0 -11 8 -6 9 5
11 4 6 -4 -6 -9 -11 -9 -22 0 -11 9 -14 8 -14 -4 0 -8 -5 -17 -11 -19 -5 -2
-11 -12 -13 -23 -2 -11 -8 -20 -15 -20 -6 0 -16 -6 -20 -14 -5 -7 -13 -11 -19
-7 -6 3 -9 -6 -8 -25 2 -28 1 -29 -11 -13 -7 10 -13 13 -13 5 0 -7 -5 -9 -12
-5 -6 4 -8 3 -4 -4 3 -5 0 -13 -6 -16 -7 -3 -2 -3 11 0 21 6 22 4 10 -9 -8 -8
-17 -13 -21 -10 -5 2 -8 -1 -8 -7 0 -6 -11 -15 -25 -22 -13 -6 -22 -15 -18
-21 3 -6 1 -7 -5 -3 -7 4 -12 13 -12 21 0 8 -4 16 -8 19 -11 7 -9 -25 3 -44 8
-13 6 -13 -8 -1 -9 7 -17 10 -17 6 0 -5 -9 0 -19 9 -20 18 -24 5 -8 -21 6 -9
3 -11 -7 -7 -9 3 -16 11 -16 17 0 6 -3 8 -6 5 -3 -4 0 -17 7 -30 11 -21 11
-22 -4 -10 -14 12 -16 11 -12 -7 2 -12 1 -21 -3 -21 -4 0 -8 -9 -9 -20 -1 -13
3 -18 10 -14 7 3 5 0 -4 -8 -9 -7 -16 -21 -17 -30 -4 -43 -6 -48 -16 -48 -6 0
-4 -5 4 -10 13 -8 12 -10 -3 -10 -10 0 -15 -5 -12 -11 4 -6 -2 -13 -14 -16
-11 -3 -18 -9 -15 -14 3 -5 -3 -9 -13 -9 -13 0 -15 -2 -5 -9 10 -6 10 -10 -2
-20 -8 -7 -19 -10 -24 -7 -5 3 -9 -1 -9 -9 0 -8 4 -12 9 -9 4 3 8 0 8 -5 0 -6
-7 -11 -16 -11 -8 0 -13 -4 -10 -9 3 -5 -2 -15 -11 -22 -14 -12 -16 -12 -8 0
5 10 4 12 -4 7 -6 -4 -9 -11 -6 -16 3 -5 1 -11 -5 -15 -6 -4 -8 -10 -5 -15 3
-5 -6 -18 -21 -29 -15 -12 -23 -25 -18 -32 5 -8 3 -9 -5 -5 -8 5 -14 0 -18
-13 -3 -12 -9 -21 -14 -21 -5 0 -9 -9 -9 -20 0 -11 -9 -25 -19 -32 -10 -6 -17
-17 -15 -23 3 -7 -3 -18 -13 -26 -17 -13 -17 -13 -3 6 14 19 14 19 -3 6 -10
-8 -16 -20 -13 -28 3 -7 -5 -23 -17 -34 -12 -12 -15 -19 -7 -15 8 4 6 0 -5 -9
-11 -9 -20 -21 -20 -28 0 -7 -8 -11 -18 -11 -9 1 -15 -2 -12 -6 9 -14 -6 -40
-19 -33 -6 4 -4 -2 4 -12 9 -11 10 -16 2 -11 -6 4 -13 2 -13 -3 -1 -6 -2 -16
-3 -21 0 -6 -6 -14 -12 -18 -6 -4 -10 -15 -8 -25 1 -12 -2 -17 -11 -13 -9 3
-12 0 -8 -9 3 -8 10 -12 17 -8 6 3 7 2 3 -3 -5 -5 -14 -9 -20 -9 -5 0 -12 -6
-15 -14 -3 -9 0 -11 9 -7 8 4 5 0 -5 -8 -11 -9 -16 -16 -11 -16 5 0 1 -6 -10
-13 -10 -8 -15 -19 -12 -24 4 -6 0 -13 -8 -17 -8 -3 -15 -11 -15 -18 0 -7 -10
-21 -23 -33 -13 -11 -17 -16 -10 -11 10 6 12 4 7 -8 -3 -9 -10 -16 -16 -16 -5
0 -6 -5 -3 -10 4 -6 1 -17 -5 -25 -7 -8 -9 -15 -4 -15 5 0 1 -7 -9 -14 -15
-12 -16 -14 -2 -20 8 -3 15 -10 15 -16 0 -6 -4 -9 -9 -6 -5 3 -11 -1 -15 -9
-3 -8 -2 -15 3 -15 4 0 8 -7 8 -15 0 -8 -4 -12 -8 -9 -7 4 -9 -6 -9 -69 0 -16
-3 -26 -8 -23 -5 3 -9 -1 -9 -9 0 -8 4 -12 9 -9 4 3 8 0 8 -5 0 -6 -6 -11 -12
-11 -10 0 -9 -3 1 -9 9 -6 10 -11 2 -15 -6 -4 -11 -12 -11 -17 0 -6 5 -7 11
-4 14 10 -12 -36 -31 -52 -8 -8 -10 -13 -5 -12 23 3 27 -2 14 -18 -9 -11 -10
-14 -2 -9 9 5 11 2 7 -8 -3 -9 -11 -13 -17 -9 -6 4 -8 0 -4 -9 3 -9 0 -21 -6
-27 -9 -9 -8 -14 3 -21 12 -8 12 -10 1 -10 -7 0 -11 -6 -7 -15 3 -8 2 -15 -2
-15 -4 0 -13 -9 -20 -20 -7 -11 -9 -20 -5 -19 19 3 27 -2 15 -10 -8 -5 -14
-25 -14 -45 0 -20 -3 -34 -7 -31 -4 2 -8 -2 -8 -10 0 -8 4 -12 9 -9 4 3 8 1 8
-5 0 -5 -8 -15 -18 -20 -16 -10 -15 -10 3 -11 17 0 17 -2 5 -10 -13 -9 -13
-10 0 -10 13 0 13 -1 0 -10 -11 -7 -11 -10 -2 -10 7 0 10 -5 7 -10 -4 -6 -11
-8 -16 -5 -5 3 -6 -1 -3 -9 3 -9 11 -13 18 -9 6 4 4 -1 -4 -11 -14 -18 -21
-104 -8 -112 3 -2 3 -18 -2 -34 -5 -17 -5 -28 0 -25 10 6 19 -16 13 -33 -3 -6
-9 -9 -15 -6 -6 4 -6 -2 1 -14 13 -25 14 -35 2 -28 -11 7 -9 -13 2 -31 5 -7 6
-13 2 -13 -3 0 -1 -9 5 -20 6 -11 7 -20 2 -20 -6 0 -12 -9 -15 -21 -4 -16 -3
-18 9 -8 9 7 14 8 14 1 0 -6 -4 -14 -10 -17 -15 -9 -12 -27 3 -19 9 5 9 4 0
-6 -9 -10 -9 -18 -1 -33 9 -17 8 -19 -6 -14 -22 9 -20 2 7 -23 13 -13 16 -19
6 -15 -10 4 -16 0 -16 -10 0 -8 3 -15 7 -15 8 0 6 -37 -2 -45 -3 -4 -2 -22 4
-41 7 -25 6 -39 -3 -50 -6 -8 -8 -14 -3 -14 5 0 10 -12 11 -27 1 -19 -1 -22
-8 -12 -7 11 -9 11 -9 -3 0 -10 4 -18 8 -18 9 0 8 -42 -2 -58 -4 -7 -2 -12 6
-12 8 0 6 -5 -5 -11 -18 -10 -18 -12 -1 -30 9 -10 12 -19 6 -19 -6 0 -10 -9
-9 -19 0 -11 4 -18 8 -16 3 3 15 -5 25 -18 12 -13 13 -17 3 -9 -13 9 -16 9
-16 -3 0 -13 17 -20 40 -16 5 1 6 -3 2 -9 -3 -6 -11 -8 -16 -5 -5 4 -9 1 -9
-4 0 -6 5 -11 11 -11 6 0 9 -9 6 -20 -3 -12 1 -23 10 -29 11 -6 12 -10 4 -15
-6 -4 -11 -12 -11 -17 0 -6 4 -8 9 -5 5 3 12 -1 15 -10 5 -12 2 -15 -11 -10
-16 6 -15 5 1 -13 11 -12 14 -21 6 -26 -5 -3 -8 -11 -4 -16 3 -6 12 -5 22 3
13 12 14 10 4 -9 -10 -17 -9 -25 4 -37 8 -9 12 -16 7 -16 -5 0 -9 -11 -9 -25
0 -14 4 -25 9 -25 5 0 7 7 4 15 -4 8 -2 17 2 20 5 2 8 -16 7 -40 -1 -32 2 -44
10 -41 8 3 11 -4 9 -20 -1 -13 2 -24 6 -24 5 0 9 -7 9 -16 0 -8 4 -13 8 -10
11 6 9 -25 -3 -43 -6 -10 -4 -12 5 -6 10 6 12 3 8 -13 -4 -12 -2 -20 2 -17 5
3 11 1 14 -4 4 -5 2 -12 -4 -16 -13 -8 -13 -25 1 -25 5 0 7 6 3 13 -5 8 -2 8
9 -2 18 -14 23 -26 8 -16 -6 3 -9 -3 -8 -14 0 -11 5 -17 11 -14 5 4 7 -3 4
-14 -5 -19 24 -58 34 -47 8 8 5 -31 -3 -41 -9 -12 16 -49 29 -41 5 3 9 -1 9
-8 0 -8 -7 -12 -16 -9 -13 4 -12 2 1 -7 10 -6 15 -17 11 -28 -5 -14 -3 -15 8
-4 16 15 29 16 29 1 0 -5 -4 -7 -10 -4 -5 3 -10 1 -10 -4 0 -6 5 -11 10 -11 6
0 10 -9 10 -21 0 -13 -4 -18 -12 -13 -7 4 -8 3 -4 -4 4 -6 14 -8 24 -5 15 6
16 5 2 -12 -14 -17 -13 -18 4 -12 16 6 17 5 7 -7 -9 -11 -9 -16 0 -22 8 -5 9
-3 4 6 -6 9 -4 11 4 5 9 -5 9 -11 3 -17 -7 -7 -6 -18 5 -34 8 -13 11 -29 7
-36 -6 -11 -5 -11 8 0 13 10 18 10 24 1 4 -8 3 -9 -4 -5 -7 4 -12 1 -12 -9 0
-11 5 -15 14 -12 15 6 15 -20 1 -43 -4 -6 -3 -10 2 -9 28 5 36 -2 17 -16 -14
-12 -15 -14 -2 -9 13 4 15 1 11 -18 -3 -14 -1 -18 4 -12 5 8 14 4 27 -14 11
-14 14 -22 8 -18 -20 12 -13 -5 10 -23 16 -14 18 -20 8 -26 -8 -5 -11 -4 -6 3
3 6 2 13 -3 16 -18 11 -5 -24 17 -44 21 -20 20 -56 -1 -43 -6 3 -7 1 -3 -5 4
-6 13 -9 21 -5 9 3 15 -1 15 -11 0 -9 5 -16 11 -16 5 0 7 -4 4 -10 -3 -5 0
-10 7 -10 8 0 14 -9 15 -20 1 -13 -2 -18 -9 -14 -7 4 -8 2 -4 -5 6 -9 11 -9
22 0 9 7 14 8 14 1 0 -6 -4 -14 -10 -17 -5 -3 -10 -12 -9 -18 0 -9 2 -9 6 1 6
15 33 16 33 1 0 -5 -4 -8 -8 -5 -5 3 -9 -2 -9 -10 0 -8 6 -13 13 -10 8 3 16 0
20 -6 4 -7 3 -8 -4 -4 -7 4 -12 3 -12 -3 0 -5 10 -13 21 -16 17 -6 19 -9 8
-16 -10 -6 -11 -9 -1 -9 6 0 12 -7 12 -16 0 -13 3 -14 14 -5 12 10 13 8 9 -8
-3 -13 -1 -21 6 -21 7 0 9 -5 6 -10 -3 -6 -1 -10 6 -10 6 0 9 -8 6 -20 -6 -22
8 -28 17 -7 3 6 4 3 1 -8 -3 -13 2 -26 14 -35 16 -11 18 -17 9 -34 l-11 -21
24 20 c13 11 21 16 17 11 -4 -5 -2 -16 5 -24 9 -13 9 -14 0 -8 -8 4 -13 2 -13
-5 0 -6 8 -9 18 -7 13 4 18 -1 20 -16 1 -17 -1 -18 -9 -6 -8 12 -10 12 -7 1 2
-8 11 -15 20 -17 11 -1 15 3 11 14 -4 14 -3 14 5 3 6 -8 8 -21 4 -29 -3 -10
-1 -13 6 -8 7 4 10 -1 7 -13 -2 -13 1 -18 9 -15 7 3 19 -3 27 -12 9 -12 10
-15 2 -10 -18 10 -16 -2 2 -21 8 -8 12 -19 9 -25 -5 -7 0 -9 14 -6 18 5 20 3
12 -12 -9 -17 14 -50 36 -50 5 0 15 -9 21 -20 11 -17 10 -18 -4 -13 -15 6 -16
5 -3 -9 14 -14 16 -14 28 6 12 20 13 20 6 -4 -6 -23 -6 -24 11 -10 11 8 16 10
12 3 -4 -6 -3 -14 3 -18 7 -4 6 -13 -1 -27 -8 -15 -8 -19 0 -14 6 4 11 2 11
-4 0 -6 5 -8 10 -5 6 3 10 1 10 -5 0 -6 5 -8 10 -5 6 3 10 -1 10 -10 0 -9 -4
-13 -10 -10 -5 3 -10 1 -10 -5 0 -6 11 -8 26 -6 23 4 24 3 12 -11 -8 -10 -8
-14 -1 -10 6 4 15 3 18 -3 4 -6 16 -8 28 -5 20 5 19 4 -3 -10 -14 -9 -17 -14
-8 -11 20 6 34 -9 17 -19 -7 -5 -1 -14 15 -24 14 -10 23 -22 19 -26 -5 -5 1
-3 11 5 13 10 17 10 12 3 -4 -8 -2 -13 5 -13 10 0 10 -3 1 -12 -12 -12 36 -68
59 -68 6 0 7 -4 4 -10 -3 -5 2 -10 12 -10 15 0 16 -2 3 -10 -13 -8 -12 -10 3
-10 15 0 22 -11 18 -32 0 -5 6 -8 16 -8 9 0 13 -3 10 -7 -11 -10 14 -34 27
-26 19 13 33 11 33 -3 0 -10 -4 -11 -14 -2 -11 8 -12 7 -7 -6 5 -13 14 -16 33
-12 l26 6 -24 -13 c-18 -11 -20 -15 -8 -20 8 -3 19 -1 24 4 7 7 12 5 17 -6 3
-9 2 -14 -2 -11 -5 3 -9 -1 -9 -9 0 -10 5 -11 18 -4 23 12 29 11 29 -2 0 -5
-4 -7 -10 -4 -5 3 -10 -1 -10 -10 0 -10 5 -13 12 -9 7 5 9 2 5 -9 -4 -11 -2
-14 9 -10 8 3 14 -1 14 -11 0 -9 5 -16 11 -16 5 0 7 -5 4 -10 -4 -6 -3 -10 2
-9 19 3 43 -2 42 -8 -3 -20 3 -23 24 -12 12 6 19 8 15 4 -4 -5 -2 -15 5 -24
10 -14 10 -14 -4 -4 -13 10 -16 10 -16 -2 0 -7 3 -14 6 -13 26 3 50 -29 43
-55 -1 -5 2 -6 7 -3 5 4 14 -2 20 -11 6 -10 11 -14 11 -9 0 5 -7 17 -15 26
-13 14 -13 17 -1 17 8 0 15 -3 14 -6 -1 -17 15 -50 23 -45 5 3 9 0 9 -7 0 -8
3 -9 14 0 11 9 12 7 9 -13 -5 -25 11 -44 22 -26 3 5 1 10 -4 10 -6 0 -11 5
-11 11 0 8 4 8 14 0 8 -7 12 -19 10 -29 -2 -10 9 -27 28 -42 18 -14 29 -19 25
-12 -17 26 8 10 69 -46 14 -12 22 -22 18 -22 -5 0 -21 12 -37 27 -19 19 -26
22 -22 10 4 -9 11 -17 17 -17 5 0 6 -5 2 -12 -4 -6 -3 -8 3 -5 13 8 36 -17 25
-27 -4 -4 0 -6 8 -4 8 1 19 8 23 13 5 6 7 1 4 -11 -3 -17 0 -20 18 -19 30 4
52 -10 30 -18 -9 -4 -14 -3 -11 1 3 5 -1 9 -9 9 -18 0 -10 -14 17 -28 16 -8
19 -8 13 1 -6 9 -3 9 12 1 11 -6 24 -7 28 -3 5 4 5 1 1 -6 -4 -7 -13 -9 -19
-5 -8 5 -8 2 1 -9 6 -8 23 -14 37 -12 14 1 23 -2 19 -7 -3 -5 -10 -7 -15 -4
-5 4 -6 -2 -2 -11 4 -10 8 -13 10 -7 3 7 11 9 19 6 11 -4 12 -8 3 -19 -10 -12
-9 -13 6 -8 10 4 20 1 25 -6 7 -11 12 -11 26 1 10 8 15 9 11 2 -4 -6 -4 -13 0
-16 5 -2 3 -2 -4 -1 -7 2 -15 -2 -19 -9 -4 -7 -4 -9 0 -5 12 10 66 -12 66 -28
0 -8 5 -14 11 -14 5 0 7 -5 4 -10 -3 -5 -1 -10 4 -10 14 0 14 13 -1 28 -9 9
-9 15 1 24 10 11 11 9 5 -6 -5 -14 -4 -17 5 -12 6 4 11 4 10 -1 -6 -34 2 -55
16 -43 9 7 18 10 22 6 3 -3 2 -6 -4 -6 -5 0 -10 -7 -10 -15 0 -10 4 -12 10 -6
7 7 20 2 40 -15 16 -14 36 -23 43 -20 9 3 11 -4 9 -25 -4 -27 -3 -28 12 -14
17 17 38 2 26 -18 -3 -5 4 -6 16 -2 12 4 21 2 21 -4 0 -6 -5 -11 -12 -11 -6 0
-8 -3 -5 -6 7 -7 51 -15 81 -15 18 0 18 0 0 -14 -11 -7 -16 -17 -11 -21 4 -4
7 -2 7 4 0 7 5 12 11 12 5 0 7 -4 4 -10 -6 -10 2 -13 36 -13 9 0 16 -6 16 -13
0 -9 -4 -10 -12 -4 -6 5 -16 5 -25 -1 -13 -9 -13 -10 0 -8 26 4 54 -12 38 -22
-9 -6 -5 -8 12 -7 18 2 25 -2 24 -14 -1 -10 2 -15 8 -12 5 3 16 0 25 -8 14
-11 16 -11 8 1 -6 11 -4 13 9 8 10 -4 20 -7 22 -7 2 0 4 -7 4 -15 0 -8 5 -15
11 -15 5 0 7 -6 3 -12 -5 -8 0 -7 11 2 17 13 18 13 13 -1 -4 -9 -1 -16 8 -16
7 0 10 5 7 11 -4 6 0 5 9 -1 8 -7 17 -11 20 -8 2 3 5 -1 5 -9 0 -8 -7 -11 -18
-9 -9 3 -20 0 -23 -5 -9 -15 40 -8 59 8 13 11 12 5 -4 -25 -21 -38 -21 -39 -1
-16 11 13 20 18 20 11 0 -9 4 -9 18 1 15 12 16 12 6 -1 -28 -37 17 -67 56 -37
8 7 6 1 -5 -12 -11 -14 -15 -21 -9 -18 7 4 14 0 18 -8 3 -8 12 -15 21 -15 8 0
15 -5 15 -11 0 -5 -6 -7 -12 -3 -9 5 -9 2 1 -9 7 -9 19 -17 27 -17 20 0 64
-22 64 -32 0 -5 -6 -6 -12 -2 -8 5 -8 1 2 -12 22 -29 24 -30 17 -12 -4 10 -2
18 3 18 6 0 10 -6 10 -14 0 -8 7 -16 15 -20 8 -3 15 0 15 6 0 6 3 8 6 5 4 -4
1 -13 -6 -22 -15 -18 1 -20 19 -3 10 11 11 8 7 -14 -2 -15 -1 -30 4 -33 5 -3
7 3 5 15 -2 11 0 22 4 24 4 3 8 -4 8 -15 1 -11 10 -28 20 -37 10 -9 14 -14 9
-10 -6 5 -14 8 -20 8 -5 0 -1 -6 9 -14 11 -8 25 -12 31 -9 7 2 15 -1 20 -8 4
-8 3 -10 -4 -5 -8 5 -10 2 -6 -9 6 -14 8 -14 21 2 14 17 14 17 9 0 -5 -15 -3
-16 15 -6 19 10 20 9 9 -10 -8 -17 -8 -21 2 -19 7 2 12 -2 11 -8 -1 -7 10 -10
27 -8 22 3 30 -1 30 -12 0 -11 -6 -14 -16 -10 -9 3 -12 2 -9 -4 4 -6 12 -10
18 -9 35 4 49 -2 43 -18 -4 -10 -4 -14 0 -10 4 4 14 1 23 -6 14 -11 15 -10 1
8 -14 18 -13 19 1 8 9 -7 20 -9 24 -5 5 4 5 1 1 -6 -5 -8 -1 -19 10 -28 17
-14 17 -15 2 -10 -24 7 -23 -1 1 -14 14 -7 22 -7 27 2 5 7 3 8 -6 3 -9 -5 -11
-4 -6 4 10 15 27 4 20 -13 -3 -7 3 -19 13 -27 16 -13 17 -12 4 4 -12 15 -12
17 2 12 8 -4 17 -14 19 -23 6 -21 46 -26 67 -9 12 9 13 9 7 -1 -4 -6 -2 -12 3
-12 6 0 11 -5 11 -11 0 -8 -6 -7 -17 2 -16 12 -16 11 0 -8 18 -20 39 -24 53
-10 4 4 12 7 18 7 6 0 4 -5 -4 -10 -11 -7 -11 -10 -2 -10 7 0 11 -4 7 -9 -3
-5 -1 -12 4 -15 5 -4 13 -1 17 5 5 8 3 9 -6 4 -8 -5 -11 -4 -6 3 4 6 14 8 23
5 11 -4 13 -8 5 -11 -16 -5 -15 -23 1 -20 6 2 11 -3 9 -10 -1 -8 2 -11 7 -7 6
3 8 13 5 23 -5 13 -4 14 4 3 7 -9 12 -10 16 -2 12 19 26 1 22 -26 -3 -14 -2
-23 1 -19 4 3 15 -2 26 -11 20 -18 20 -18 1 12 l-19 30 27 -20 c18 -14 26 -27
23 -40 -3 -11 -2 -14 1 -7 5 10 9 10 22 0 8 -7 17 -12 19 -10 1 1 3 -1 4 -5 1
-14 21 -33 33 -33 6 0 4 5 -4 10 -8 5 -11 10 -7 10 4 0 3 10 -3 23 l-11 22 20
-23 c13 -15 21 -18 24 -10 3 7 5 4 6 -7 2 -55 8 -61 38 -42 9 6 11 3 7 -7 -4
-11 1 -14 25 -11 17 2 33 0 36 -6 4 -5 11 -6 17 -3 5 4 2 -6 -8 -22 -10 -16
-12 -23 -4 -16 17 14 46 16 55 2 3 -6 -1 -7 -9 -4 -9 3 -16 2 -16 -3 0 -5 11
-10 26 -11 14 -1 23 2 20 6 -2 4 5 8 17 9 12 0 16 -1 10 -4 -7 -3 -13 -12 -13
-21 0 -12 3 -14 8 -5 17 27 73 -17 77 -59 0 -3 4 -10 9 -15 5 -4 6 -3 2 4 -3
6 -2 14 3 18 11 6 34 -29 25 -37 -3 -3 8 -4 25 -2 19 2 31 -2 35 -11 3 -8 14
-15 25 -15 15 0 19 -5 14 -17 -4 -12 0 -11 11 5 10 12 22 22 28 22 7 0 3 -6
-8 -14 -18 -14 -18 -15 7 -12 31 3 72 30 61 41 -4 4 4 1 18 -8 35 -22 44 -22
52 5 l7 23 -2 -24 c-2 -25 -32 -37 -52 -21 -6 5 -17 5 -24 1 -9 -6 -10 -11 -2
-15 6 -4 11 -4 11 0 0 3 7 1 15 -6 8 -6 19 -9 25 -5 17 11 32 -5 19 -21 -12
-15 12 -49 26 -36 5 4 5 1 0 -7 -6 -10 -12 -9 -28 7 -17 17 -18 24 -8 36 11
13 8 14 -16 12 -15 -2 -32 -1 -38 2 -16 10 -55 10 -61 0 -3 -4 -10 -5 -16 -2
-7 4 -8 2 -4 -5 6 -9 11 -9 21 -1 10 8 14 7 18 -2 3 -10 8 -10 16 -2 13 12 61
-3 61 -19 0 -4 -9 -3 -19 3 -24 12 -31 13 -31 2 0 -5 6 -9 13 -10 36 -3 78
-22 49 -22 -7 0 -12 -5 -12 -11 0 -8 5 -8 15 1 13 11 15 9 13 -11 -2 -18 1
-23 15 -21 15 3 22 -9 18 -31 -1 -5 3 -6 9 -2 5 3 10 -1 10 -10 0 -15 2 -15
15 -2 18 19 58 10 51 -10 -3 -8 -6 -17 -6 -19 0 -3 -5 -2 -11 2 -8 4 -7 9 2
16 11 7 10 8 -4 4 -12 -4 -16 -2 -11 7 5 9 4 9 -7 -1 -22 -21 35 -54 90 -53
23 1 24 0 6 -12 -14 -11 -15 -16 -5 -22 9 -5 11 -4 6 3 -4 7 -2 12 3 12 6 0
11 -4 11 -10 0 -5 9 -10 19 -10 11 0 23 -9 26 -20 3 -11 13 -20 21 -20 12 0
18 -12 15 -32 -1 -9 27 -4 36 7 4 4 3 5 -4 1 -6 -3 -14 -2 -18 3 -3 6 4 8 16
6 25 -5 41 -24 32 -39 -3 -5 -1 -6 5 -2 6 3 16 -2 22 -11 11 -17 11 -17 6 0
-5 15 0 17 32 14 33 -3 37 -6 34 -27 -2 -20 0 -22 8 -10 7 11 10 11 10 2 0 -7
4 -11 9 -8 5 3 12 -5 15 -19 4 -14 11 -25 17 -25 6 0 8 -4 5 -8 -4 -7 17 -12
62 -15 6 0 12 -4 12 -9 0 -4 -10 -7 -21 -5 -12 1 -23 -4 -25 -11 -1 -7 0 -8 3
-2 2 5 9 10 14 10 6 0 8 -4 4 -9 -3 -6 7 -8 22 -6 16 2 22 2 16 -1 -7 -3 -13
-10 -13 -15 0 -6 8 -6 19 1 14 7 22 7 26 0 4 -6 12 -10 18 -9 24 3 38 -1 33
-10 -3 -5 1 -11 9 -14 9 -4 12 -1 9 8 -3 8 3 16 15 20 12 3 19 10 17 14 -6 10
25 7 43 -3 10 -7 10 -10 1 -16 -9 -5 -9 -9 -1 -14 6 -4 11 -4 12 1 0 4 2 16 4
26 2 10 -1 14 -7 11 -7 -5 -8 -2 -4 5 5 7 11 10 14 7 3 -3 12 0 21 6 9 7 13 9
9 4 -4 -5 -3 -18 3 -30 10 -20 10 -20 -5 -2 -14 17 -16 18 -16 3 0 -17 7 -20
43 -20 10 0 15 -2 12 -5 -3 -3 9 -12 26 -19 20 -8 28 -17 23 -25 -5 -10 -3
-10 7 0 12 11 11 15 -5 28 -11 8 -15 14 -9 14 7 0 14 -4 17 -9 4 -5 17 -8 31
-7 22 3 23 1 13 -18 -11 -20 -10 -20 7 -6 11 9 16 10 11 2 -9 -15 15 -17 30
-2 7 7 11 6 11 -4 0 -8 -3 -13 -7 -11 -3 2 -12 -1 -20 -6 -12 -7 -11 -8 5 -6
11 1 26 7 34 11 11 7 13 5 8 -7 -3 -8 0 -21 8 -27 15 -12 15 23 1 51 -4 8 -1
6 7 -3 8 -10 18 -14 22 -10 5 4 6 2 2 -3 -3 -6 -2 -17 4 -25 6 -11 8 -5 5 18
-3 26 -1 30 10 21 8 -6 14 -10 15 -8 0 2 2 19 4 38 2 18 8 38 14 44 5 5 7 16
4 25 -4 8 -2 13 3 10 5 -4 9 4 9 17 0 12 -5 21 -10 18 -6 -2 -12 6 -13 17 -4
44 -6 50 -15 50 -5 0 -7 -7 -4 -15 4 -8 1 -17 -5 -21 -7 -4 -8 -3 -4 4 4 7 2
12 -4 12 -6 0 -4 12 6 32 l16 33 -26 -30 c-15 -16 -25 -23 -24 -15 2 9 -3 14
-11 12 -12 -3 -12 -1 -1 14 13 14 11 19 -13 40 -16 13 -24 24 -19 24 5 0 15
-7 22 -15 7 -8 17 -15 23 -15 5 0 2 9 -8 20 -10 11 -13 20 -7 20 7 0 12 -4 12
-10 0 -5 5 -10 11 -10 6 0 9 7 6 14 -4 10 -1 13 8 10 12 -5 12 -9 -1 -29 -19
-29 -3 -41 23 -17 10 9 13 13 6 8 -8 -5 -17 -6 -21 -2 -4 4 1 12 11 17 10 6
14 15 10 22 -4 7 0 6 10 -2 12 -10 17 -10 17 -2 0 8 8 10 19 6 11 -3 22 -1 26
5 5 8 12 7 23 -2 13 -11 14 -11 7 1 -14 24 -14 66 1 47 15 -21 25 -20 17 1 -4
11 -3 14 5 9 7 -4 12 -2 12 4 0 6 5 8 11 4 7 -4 7 1 -1 16 -9 17 -9 21 0 15 9
-5 10 -1 5 16 -5 19 -4 21 4 9 10 -14 12 -13 15 9 0 5 5 13 10 18 5 4 6 3 3
-3 -4 -7 0 -15 9 -18 8 -3 12 -2 9 3 -3 6 3 15 12 21 13 9 14 10 2 7 -9 -3
-16 1 -16 9 0 7 4 11 9 8 4 -3 16 0 25 5 11 6 13 11 5 11 -7 0 -10 5 -7 10 4
6 12 7 18 3 8 -4 7 -1 -1 9 -13 16 -1 35 16 24 4 -2 6 13 5 35 -2 37 10 53 21
27 2 -7 2 4 0 26 -4 26 -2 36 5 31 6 -3 11 -2 11 4 0 5 -6 12 -12 14 -10 4
-10 6 0 6 15 1 16 31 1 31 -5 0 -7 5 -4 10 4 6 10 8 15 5 4 -3 14 3 21 13 13
15 12 16 -3 3 -15 -11 -18 -11 -18 0 0 10 -3 10 -12 1 -7 -7 -16 -12 -22 -12
-5 0 -1 6 9 14 11 8 23 12 27 10 4 -3 12 5 18 16 6 11 7 20 3 20 -4 0 3 9 17
20 21 16 27 17 40 5 14 -12 16 -12 17 4 1 14 -5 18 -27 17 -15 0 -26 -5 -23
-10 4 -5 1 -6 -5 -2 -7 4 -12 2 -12 -5 0 -8 -4 -8 -15 1 -9 8 -15 8 -15 2 0
-6 3 -12 8 -15 4 -2 1 -2 -6 0 -8 1 -10 -2 -6 -9 4 -7 3 -8 -4 -4 -6 4 -9 13
-5 21 4 11 1 13 -11 9 -9 -3 -13 -10 -10 -15 3 -5 -3 -6 -13 -2 -15 6 -16 4
-5 -9 7 -9 24 -14 42 -12 22 3 28 0 24 -11 -4 -8 -10 -12 -15 -9 -6 3 -18 0
-27 -7 -9 -7 -14 -10 -10 -5 7 9 -21 46 -36 46 -6 0 -5 -5 1 -11 6 -6 9 -18 6
-27 -4 -9 -2 -13 4 -9 5 3 10 0 10 -8 0 -11 -4 -12 -14 -4 -9 8 -13 8 -14 0
-1 -6 -2 -15 -3 -21 0 -5 -10 -16 -21 -24 -17 -14 -18 -17 -5 -26 8 -5 10 -10
5 -10 -6 0 -21 7 -33 16 -23 16 -30 6 -10 -14 16 -16 2 -28 -16 -13 -12 10
-18 8 -31 -13 -10 -14 -22 -23 -28 -19 -6 3 -7 1 -3 -5 10 -16 46 -10 43 8 -1
9 4 13 13 11 8 -2 22 -4 31 -3 12 0 9 -7 -12 -31 -23 -24 -31 -29 -41 -19 -21
21 -32 13 -13 -8 18 -20 18 -21 0 -14 -14 6 -16 4 -10 -7 6 -9 0 -8 -19 4
l-28 19 7 -24 c4 -16 3 -19 -3 -9 -5 7 -12 9 -14 5 -3 -5 -3 -4 -2 3 2 6 -3
17 -11 23 -16 14 -18 -26 -2 -48 6 -8 6 -12 -2 -12 -6 0 -11 5 -11 11 0 5 -5
7 -12 3 -7 -4 -8 -3 -4 4 4 7 3 12 -3 12 -5 0 -15 -8 -20 -17 -14 -24 -34 2
-24 32 5 17 4 18 -10 7 -16 -14 -33 0 -22 17 3 5 1 12 -3 15 -5 3 -14 -6 -21
-20 -6 -14 -15 -23 -20 -19 -6 3 -9 -4 -8 -15 1 -11 7 -20 14 -20 7 0 13 -5
13 -10 0 -7 -6 -7 -19 -1 -18 10 -24 52 -7 50 16 -2 29 32 17 44 -6 6 -11 16
-11 21 0 6 5 4 10 -4 8 -13 10 -13 10 0 0 9 5 7 16 -8 13 -18 19 -21 30 -11
17 14 18 29 3 29 -5 0 -7 -4 -4 -10 3 -5 -1 -10 -10 -10 -9 0 -13 5 -10 10 3
6 1 11 -4 11 -6 1 -15 3 -21 4 -5 1 -13 3 -17 4 -5 1 -3 5 2 9 15 10 53 65 53
77 0 6 14 18 31 27 l31 18 -5 -28 c-3 -15 -2 -20 1 -12 8 16 24 30 38 30 5 0
3 -7 -4 -15 -19 -23 2 -42 22 -21 9 8 18 12 22 9 3 -4 6 -1 6 6 0 9 5 8 15 -3
15 -15 50 -11 40 4 -3 5 4 15 15 23 11 7 17 17 13 20 -3 4 -2 7 4 7 6 0 14 -7
17 -16 9 -22 8 -24 -8 -18 -18 7 -32 -14 -18 -28 7 -7 16 -7 29 1 10 6 14 11
9 11 -5 0 -3 7 4 15 9 11 9 15 1 15 -7 0 -9 5 -6 10 3 5 0 10 -7 10 -10 0 -10
2 1 9 11 7 11 10 0 15 -8 3 -4 3 8 1 12 -3 24 -1 28 5 4 6 1 11 -6 9 -26 -3
-40 1 -34 10 3 5 0 13 -6 17 -8 5 -9 3 -4 -6 5 -8 4 -11 -3 -6 -6 3 -13 2 -17
-3 -3 -6 -12 -8 -20 -4 -10 3 -15 -1 -15 -13 0 -15 -2 -16 -9 -5 -7 11 -9 11
-14 0 -5 -12 -6 -12 -6 0 -1 8 -9 5 -22 -10 -11 -13 -17 -17 -13 -9 4 9 3 12
-2 7 -12 -12 -12 -30 1 -40 6 -5 4 -7 -5 -4 -8 2 -14 9 -13 15 1 5 -4 12 -11
15 -10 4 -12 -1 -8 -16 3 -13 1 -18 -4 -14 -5 5 -9 18 -9 29 0 23 -40 55 -49
39 -4 -5 3 -12 14 -16 22 -7 26 -20 10 -30 -6 -4 -8 -11 -5 -16 4 -5 1 -9 -5
-9 -6 0 -8 11 -6 25 5 25 -2 29 -34 26 -12 -2 -13 0 -1 7 7 5 9 12 5 14 -5 3
-3 3 4 1 8 -1 12 3 9 9 -2 7 -15 13 -29 12 -18 -1 -25 3 -21 12 12 33 -7 10
-31 -36 l-26 -49 22 -20 c11 -11 26 -17 32 -14 7 4 6 8 -2 11 -7 2 -12 8 -12
13 0 17 15 9 35 -19 13 -19 14 -23 3 -14 -11 9 -18 10 -23 2 -3 -5 0 -10 9
-10 8 0 13 -7 11 -17 -2 -10 -4 -22 -4 -26 -1 -5 -5 -6 -11 -2 -5 3 -6 13 -3
23 6 15 5 15 -11 3 -13 -11 -14 -16 -4 -22 12 -8 5 -13 -14 -10 -8 1 -4 -26 5
-35 3 -4 2 -15 -4 -25 -6 -13 -6 -19 1 -19 5 0 10 -5 10 -12 0 -6 -9 -3 -20 7
-11 10 -20 13 -20 7 0 -6 5 -14 10 -17 7 -4 7 -12 2 -18 -11 -15 -13 -57 -3
-57 5 0 9 -11 9 -24 0 -24 -1 -24 -21 -5 -12 11 -27 17 -34 15 -7 -3 -13 -1
-13 4 0 13 27 13 35 0 3 -5 11 -10 17 -10 7 0 7 4 1 12 -13 16 -13 49 -1 65 5
7 5 14 -1 17 -5 4 -8 20 -6 36 3 24 0 29 -15 27 -25 -4 -38 -17 -17 -17 9 0
15 -8 15 -17 0 -10 0 -22 2 -28 7 -27 0 -38 -15 -25 -12 10 -15 10 -15 0 0 -9
-7 -7 -22 6 -13 12 -18 13 -13 4 7 -12 6 -13 -7 -3 -8 7 -18 10 -21 6 -4 -3
-7 -1 -7 5 0 12 9 15 43 15 9 0 17 3 17 7 0 16 -14 18 -40 5 -15 -8 -31 -11
-34 -7 -4 3 -4 -2 -1 -13 6 -16 5 -17 -4 -5 -9 13 -11 13 -11 0 -1 -12 -2 -12
-10 2 -14 24 -37 16 -65 -22 -27 -37 -30 -45 -15 -35 6 4 10 3 9 -2 -4 -24 1
-38 10 -25 7 11 9 10 14 -3 4 -9 3 -13 -3 -10 -16 10 -11 -1 7 -16 14 -12 16
-12 9 1 -4 8 0 6 10 -5 14 -16 16 -17 11 -3 -4 11 -2 17 6 15 7 -1 11 7 9 18
-2 16 -1 17 7 5 9 -12 11 -13 11 -1 0 8 3 11 6 8 4 -4 1 -14 -7 -24 -12 -15
-12 -16 2 -11 9 4 22 1 28 -5 6 -6 11 -7 11 -1 0 6 -5 15 -11 21 -8 8 -7 17 2
34 7 13 12 28 11 33 -2 5 4 4 12 -4 9 -7 16 -9 16 -4 0 5 5 2 10 -6 6 -9 10
-11 10 -3 0 7 7 10 15 7 26 -10 16 -22 -15 -18 -27 3 -29 2 -18 -16 11 -16 9
-22 -7 -34 -17 -13 -18 -15 -3 -16 9 0 20 5 23 10 10 16 38 12 32 -5 -4 -8 -2
-17 3 -20 5 -3 11 3 13 12 3 13 5 14 6 3 0 -8 -12 -29 -29 -46 -29 -32 -30
-54 -1 -32 9 7 13 8 9 4 -4 -5 0 -14 9 -21 13 -9 13 -14 3 -20 -8 -5 -11 -4
-7 2 11 17 -17 22 -37 8 -11 -8 -15 -19 -10 -26 4 -8 3 -10 -5 -5 -6 4 -11 13
-10 19 4 34 -2 49 -17 43 -9 -3 -12 -2 -9 5 4 5 14 7 24 4 19 -6 69 39 54 48
-5 3 -16 -3 -23 -14 -8 -10 -19 -19 -24 -19 -5 0 3 13 19 30 16 16 24 30 17
30 -6 0 -14 -5 -18 -11 -3 -6 -15 -9 -25 -6 -10 3 -24 -2 -31 -10 -11 -14 -10
-15 12 -10 14 4 19 4 12 1 -6 -3 -10 -10 -6 -15 3 -5 0 -9 -5 -9 -18 0 -26 5
-23 13 1 4 -2 7 -8 7 -15 0 -12 -17 6 -45 9 -14 20 -22 25 -19 5 3 9 0 9 -5 0
-15 -13 -14 -29 2 -11 10 -12 7 -6 -13 5 -20 4 -22 -5 -10 -10 13 -11 12 -7
-6 3 -13 -1 -21 -9 -21 -17 0 -17 3 -4 27 6 10 6 21 1 24 -16 10 -33 -45 -19
-63 9 -11 5 -10 -10 3 -23 20 -31 10 -9 -14 10 -12 9 -12 -4 -2 -12 9 -20 8
-38 -4 -12 -9 -25 -13 -28 -10 -3 3 2 8 11 12 9 3 13 10 10 15 -3 5 3 6 13 3
17 -5 17 -5 -1 10 -10 8 -18 25 -17 38 1 46 4 63 13 75 5 7 5 14 -2 18 -5 3
-10 2 -10 -2 0 -18 -42 -36 -51 -21 -14 21 -10 35 5 16 12 -16 14 -16 35 6 20
21 20 24 5 36 -14 12 -15 11 -12 -5 1 -10 -3 -20 -11 -23 -10 -3 -12 0 -7 14
17 43 18 68 2 55 -8 -7 -12 -19 -9 -27 3 -8 0 -14 -7 -14 -6 0 -9 4 -6 9 3 4
0 16 -7 25 -11 16 -15 15 -37 -10 -19 -20 -21 -26 -7 -21 9 4 17 2 17 -4 0 -7
-10 -9 -27 -4 -23 5 -25 4 -14 -9 7 -9 17 -13 22 -10 16 9 10 -3 -8 -17 -10
-8 -14 -9 -10 -2 4 6 3 14 -3 18 -5 3 -10 1 -10 -5 0 -7 -7 -9 -16 -6 -12 4
-14 1 -9 -13 7 -24 -12 -38 -28 -21 -9 10 -9 14 1 17 6 3 12 10 12 15 0 6 -3
8 -7 5 -6 -7 -32 23 -29 34 0 3 -6 14 -14 24 -8 11 -10 16 -3 12 6 -4 14 -3
18 3 6 9 -8 15 -29 11 -5 -1 3 14 17 33 31 40 35 55 10 35 -17 -13 -17 -13 -3
5 14 18 13 19 -2 13 -10 -3 -20 -3 -22 2 -7 11 26 10 41 -1 7 -5 14 -5 17 1 4
5 -3 13 -15 16 -16 5 -18 9 -8 15 10 7 10 11 0 24 -7 8 -11 21 -8 28 4 8 6 7
6 -4 1 -18 31 -14 31 4 0 5 -4 6 -10 3 -5 -3 -10 -1 -10 5 0 7 7 10 15 6 8 -3
15 -1 15 3 0 20 26 18 28 -2 1 -16 -1 -18 -7 -8 -7 11 -12 9 -21 -9 -11 -21
-10 -22 6 -16 12 5 23 0 34 -14 15 -20 17 -21 31 -4 12 16 12 17 -4 11 -10 -4
-16 -3 -12 2 3 5 -1 11 -7 14 -7 2 -11 7 -8 10 3 3 19 -5 35 -19 17 -14 25
-23 18 -20 -6 4 -13 1 -15 -5 -2 -5 -16 -12 -32 -13 -15 -2 -35 -11 -44 -21
-16 -17 -16 -17 1 -12 10 4 16 3 13 -2 -8 -12 17 -21 46 -15 12 2 16 1 8 -2
-8 -4 -18 -12 -22 -18 -6 -8 -11 -6 -17 4 -6 8 -13 11 -17 7 -11 -11 18 -38
35 -32 11 3 10 0 -3 -10 -11 -8 -25 -15 -30 -15 -6 0 -5 -4 3 -9 9 -6 19 -4
28 4 7 8 20 12 28 9 8 -4 15 -1 15 5 0 6 -4 11 -9 11 -5 0 -12 8 -15 18 -3 9
7 2 22 -15 16 -18 32 -33 36 -33 9 0 -14 43 -27 52 -6 4 -3 13 8 24 17 17 17
17 12 -1 -8 -26 2 -39 32 -43 19 -2 21 0 12 11 -6 8 -8 17 -4 20 3 4 1 7 -4 7
-6 0 -13 -6 -16 -12 -2 -7 -4 -1 -4 15 0 24 3 27 21 21 18 -6 19 -5 7 9 -7 9
-18 14 -24 10 -6 -3 -7 -1 -3 5 4 7 2 12 -5 12 -8 0 -6 6 4 18 24 26 21 39 -3
17 -23 -21 -27 -11 -5 12 9 8 19 13 22 9 4 -3 17 1 30 9 22 15 29 10 24 -17 0
-5 3 -8 7 -8 20 0 20 15 1 41 -11 16 -16 29 -10 29 6 0 11 -4 11 -8 0 -25 28
-46 44 -33 12 10 14 17 5 27 -8 10 -8 14 0 14 6 0 11 -5 11 -11 0 -5 6 -7 13
-3 13 9 -11 -26 -28 -38 -6 -5 -3 -8 6 -8 9 0 21 11 28 24 8 15 22 23 37 24
13 0 21 -5 18 -10 -3 -5 -12 -7 -19 -4 -14 5 -35 -12 -35 -28 0 -6 5 -5 12 2
7 7 16 12 21 12 5 0 2 -6 -6 -14 -9 -9 -28 -13 -51 -11 -21 2 -34 -1 -30 -7 3
-5 -2 -18 -12 -29 -9 -10 -12 -19 -6 -19 6 0 18 10 27 23 l17 22 -7 -22 c-4
-14 -2 -23 4 -23 10 0 15 14 12 33 0 4 4 7 9 7 6 0 10 -7 8 -16 -6 -31 35 -47
64 -25 14 11 28 17 32 14 3 -3 6 -1 6 5 0 21 -17 22 -40 2 -25 -22 -36 -25
-44 -12 -6 11 22 52 35 52 5 0 1 -10 -11 -22 -11 -12 -18 -24 -15 -26 8 -8 64
45 57 54 -4 5 1 2 11 -5 20 -16 60 10 43 26 -5 5 -11 2 -13 -4 -3 -7 -9 -13
-15 -13 -6 0 -4 7 3 17 12 15 12 16 -3 11 -10 -4 -23 1 -34 13 -10 12 -24 17
-35 14 -12 -4 -8 5 14 27 17 19 35 32 39 31 4 -2 9 1 12 6 9 14 -20 21 -33 8
-10 -9 -15 -8 -25 5 -8 10 -16 14 -22 8 -5 -5 -17 -3 -28 6 -11 8 -15 14 -9
14 7 0 15 -5 18 -10 4 -6 11 -8 16 -5 13 9 11 26 -2 23 -6 -2 -13 3 -14 10 -2
7 -1 8 2 2 2 -5 9 -8 14 -4 5 3 12 -2 15 -10 3 -9 10 -14 14 -11 5 3 12 1 15
-5 5 -8 12 -7 23 2 9 8 13 8 9 2 -4 -7 0 -14 8 -18 16 -6 10 -36 -7 -36 -10 0
-38 -25 -38 -34 0 -2 10 -4 22 -3 30 2 61 55 45 76 -10 14 -10 14 4 3 14 -11
18 -9 23 13 5 21 11 25 27 20 18 -6 19 -5 10 14 -7 12 -16 21 -22 21 -6 0 -7
-5 -4 -10 3 -6 -6 -5 -21 2 -21 10 -24 14 -11 16 9 2 17 7 17 12 0 13 -41 -1
-47 -16 -3 -8 -9 -14 -15 -14 -5 0 -7 4 -3 9 3 5 -3 17 -12 27 -17 17 -17 18
2 10 23 -9 24 -9 48 -7 25 2 21 17 -5 18 -13 1 -40 4 -60 6 -21 2 -38 0 -38
-5 0 -15 -30 -8 -37 8 -5 13 -8 13 -15 2 -8 -10 -9 -9 -5 4 9 28 -16 54 -32
34 -8 -9 -11 -20 -7 -23 4 -4 12 -1 17 7 9 12 10 11 5 -4 -4 -10 -1 -25 5 -32
23 -28 0 -13 -36 23 -37 37 -37 37 -20 66 19 32 17 41 -6 24 -16 -12 -19 -18
-19 -38 0 -5 -5 -7 -12 -3 -7 4 -30 9 -53 10 -22 1 -46 3 -54 5 -7 2 -16 -2
-18 -9 -3 -6 1 -10 9 -9 7 2 10 2 6 0 -5 -3 -8 -12 -8 -21 0 -10 -9 2 -20 26
-10 23 -21 42 -24 42 -8 0 3 -41 15 -56 8 -10 8 -14 0 -14 -6 0 -11 6 -11 13
0 8 -4 7 -11 -3 -9 -13 -10 -13 -8 0 3 30 -1 41 -13 34 -7 -4 -10 -4 -6 1 11
11 -11 47 -24 39 -7 -4 -8 -2 -4 5 6 9 11 9 22 0 19 -16 18 1 -3 30 -9 14 -12
21 -6 18 6 -4 14 -1 17 5 3 9 9 7 20 -6 11 -13 13 -23 6 -30 -14 -14 -12 -23
6 -30 14 -5 15 -4 5 8 -7 9 -8 17 -2 20 5 3 8 14 6 24 -2 9 -4 20 -4 23 -2 13
-40 16 -52 5 -9 -8 -9 -6 0 7 9 11 21 15 35 12 21 -6 21 -6 2 9 -11 9 -15 16
-9 16 13 0 39 -30 27 -30 -5 0 -1 -5 9 -11 14 -8 22 -8 30 1 9 8 8 10 -5 5
-13 -5 -18 -2 -18 9 0 9 7 19 15 22 8 4 12 10 9 15 -3 5 0 9 5 9 16 0 13 -20
-4 -26 -21 -9 -19 -20 5 -20 10 0 17 2 15 5 -3 2 0 10 7 18 8 10 8 17 0 25 -7
7 -12 16 -12 21 0 4 11 -4 25 -19 13 -14 22 -30 19 -35 -3 -5 -1 -9 5 -9 15 0
44 47 36 59 -3 6 -1 19 5 28 9 15 10 14 4 -7 -5 -20 -4 -23 7 -13 7 7 20 13
29 12 9 0 6 -4 -7 -9 -13 -5 -23 -15 -23 -21 0 -8 4 -8 15 1 9 7 22 9 32 5 10
-5 22 -7 26 -6 4 1 3 -8 -3 -18 -6 -12 -6 -22 -1 -25 5 -3 14 8 20 24 5 17 12
30 15 30 3 0 1 -12 -4 -26 -9 -23 1 -64 15 -64 8 0 1 24 -9 31 -4 4 -3 15 3
25 6 11 11 13 11 7 0 -7 5 -13 11 -13 5 0 7 4 4 10 -3 5 -1 10 5 10 7 0 10 -7
6 -15 -6 -18 10 -20 20 -3 4 6 -1 17 -10 24 -16 11 -13 12 18 10 42 -2 53 -11
37 -30 -10 -12 -9 -15 8 -13 12 1 21 5 21 9 0 4 10 13 23 19 21 11 21 10 -3
-12 -13 -13 -28 -23 -32 -21 -18 5 -6 -24 13 -37 19 -11 21 -11 16 3 -9 24 2
46 20 39 10 -4 14 -2 9 5 -3 6 -3 13 2 16 5 3 9 -2 9 -11 0 -9 -9 -18 -19 -21
-10 -2 -18 -8 -18 -12 0 -10 26 -7 36 3 4 4 14 7 23 6 10 0 7 -4 -8 -10 -15
-6 -21 -14 -17 -25 4 -10 2 -13 -6 -8 -7 4 -8 3 -4 -4 4 -7 -1 -10 -14 -7 -13
3 -18 0 -14 -7 5 -7 2 -8 -7 -3 -12 7 -11 5 1 -11 11 -15 11 -16 0 -6 -8 6
-19 12 -25 12 -5 0 -3 -4 5 -10 19 -12 21 -58 2 -56 -8 0 -16 -5 -18 -12 -1
-7 0 -8 3 -2 7 15 20 12 20 -5 0 -8 -4 -12 -9 -9 -4 3 -8 0 -8 -5 0 -6 5 -11
10 -11 6 0 9 -3 9 -7 -3 -21 2 -33 12 -27 8 5 8 9 -1 14 -9 5 -9 9 -1 14 6 4
11 2 11 -5 0 -8 5 -6 13 5 12 16 13 16 13 -3 0 -11 -5 -17 -11 -15 -5 3 -3 0
6 -8 16 -13 19 -19 19 -39 0 -6 6 -9 13 -6 6 2 24 -4 38 -14 14 -10 30 -15 34
-11 5 4 5 1 0 -7 -6 -10 -4 -12 6 -6 12 8 12 6 0 -8 -9 -11 -10 -17 -2 -17 6
0 11 5 11 10 0 6 3 9 8 9 23 -4 34 3 28 17 -3 8 -2 13 2 10 5 -3 9 0 10 7 0 7
3 26 6 42 3 17 3 24 0 17 -5 -10 -9 -9 -20 5 -19 25 -17 38 4 22 15 -13 16
-12 3 4 -7 9 -10 17 -5 17 5 0 2 5 -6 10 -13 8 -12 10 3 10 9 0 17 5 17 12 0
6 3 9 6 6 3 -4 1 -15 -4 -25 -11 -20 8 -59 22 -46 4 4 4 -1 1 -12 -6 -18 -5
-18 13 3 25 28 27 28 30 -3 1 -14 -3 -25 -9 -25 -6 0 -3 -7 5 -16 9 -8 14 -19
11 -24 -3 -4 2 -10 9 -13 11 -4 13 0 10 16 -13 55 -12 66 4 59 10 -3 12 -7 4
-10 -7 -2 -12 -8 -12 -13 0 -6 4 -7 10 -4 5 3 10 1 10 -5 0 -6 5 -8 12 -4 7 4
8 3 4 -5 -4 -6 -12 -8 -18 -5 -7 5 -8 2 -4 -5 5 -7 15 -10 23 -7 8 3 11 1 8
-4 -3 -6 -1 -10 4 -10 6 0 11 -6 11 -14 0 -8 10 -22 22 -30 21 -15 23 -15 36
9 7 14 15 25 18 25 2 0 -3 -14 -11 -31 -9 -17 -14 -33 -11 -36 2 -3 12 9 21
27 9 18 19 30 22 27 2 -3 -3 -16 -11 -29 -15 -23 -13 -38 6 -38 4 0 7 3 7 8
-4 21 3 31 16 26 17 -7 21 11 5 19 -6 3 -5 4 2 3 7 -2 12 -12 11 -23 -2 -20
31 -30 42 -12 4 5 11 6 17 3 8 -5 9 -1 5 12 -6 17 -6 17 5 3 13 -16 37 -14 51
5 5 6 5 0 2 -12 -6 -22 -5 -23 14 -13 12 7 21 14 21 17 0 3 -6 2 -12 -2 -10
-5 -10 -4 -1 6 13 15 36 4 26 -13 -3 -7 3 -3 15 7 25 21 31 36 7 16 -12 -10
-15 -10 -15 0 0 6 9 14 20 17 11 3 20 10 20 15 0 5 -5 6 -12 2 -7 -5 -8 -3 -4
5 5 7 14 10 22 7 12 -5 12 -2 3 17 -12 21 -11 21 6 7 17 -14 18 -14 5 10 -12
23 -12 24 4 11 14 -12 16 -12 10 4 -5 11 -4 16 3 12 5 -3 10 0 10 8 0 8 -4 12
-9 9 -4 -3 -8 0 -8 5 0 6 5 11 10 11 6 0 10 5 10 11 0 5 -6 7 -12 3 -10 -5
-10 -4 -1 6 14 15 6 40 -14 40 -8 0 -11 4 -8 10 13 21 -23 9 -39 -12 -9 -13
-14 -18 -11 -11 15 31 -40 73 -62 48 -4 -4 -2 -5 6 0 9 5 12 4 7 -3 -13 -21
-28 -13 -20 10 6 20 5 21 -10 9 -19 -16 -22 -1 -3 18 10 11 10 13 0 7 -7 -4
-13 -2 -13 4 0 6 -5 8 -10 5 -19 -12 -50 6 -50 28 -1 21 -2 21 -14 4 -12 -15
-15 -16 -26 -2 -11 13 -10 14 2 10 9 -4 15 0 15 10 0 13 -3 14 -23 0 -30 -19
-40 -19 -24 0 7 9 10 18 6 22 -3 3 -6 1 -6 -5 0 -7 -12 -12 -26 -12 -21 0 -24
3 -19 23 5 19 4 20 -5 4 -6 -9 -8 -22 -4 -29 5 -7 3 -8 -6 -3 -10 6 -12 4 -7
-8 3 -9 3 -19 -2 -21 -4 -3 -8 0 -8 7 0 7 -4 21 -8 32 -6 17 -5 17 5 5 10 -13
11 -13 6 0 -3 8 -9 23 -12 32 -4 10 -10 18 -15 18 -5 0 -6 -8 -2 -17 5 -15 3
-15 -14 2 -11 11 -19 23 -17 27 3 4 0 10 -6 13 -6 4 -9 1 -8 -6 2 -6 -3 -14
-11 -17 -10 -3 -11 0 -5 9 6 11 3 10 -11 -1 -17 -14 -18 -13 -12 2 4 13 2 15
-11 11 -15 -6 -16 -5 -2 12 14 17 14 18 -7 6 -22 -11 -28 -8 -23 14 1 6 -4 4
-11 -2 -16 -16 -33 -17 -23 -1 4 7 3 8 -5 4 -6 -4 -9 -13 -5 -19 3 -7 0 -5 -8
4 -13 16 -43 15 -33 -1 7 -11 -36 0 -54 14 -11 8 -15 8 -18 -1 -3 -7 -9 -13
-15 -13 -7 0 -7 4 -1 13 12 14 13 48 2 41 -4 -2 -9 1 -12 8 -2 7 -3 5 -2 -4 2
-9 0 -19 -4 -21 -3 -2 0 -2 7 0 7 1 10 -2 7 -7 -12 -20 -37 -11 -30 10 4 11 3
20 -2 19 -22 -4 -34 2 -27 14 6 9 5 9 -7 0 -12 -10 -18 -10 -29 0 -12 10 -12
9 -2 -4 11 -15 9 -17 -17 -15 -16 0 -29 5 -28 10 1 5 -4 11 -12 14 -8 2 -11 0
-8 -5 3 -5 0 -10 -6 -10 -7 0 -14 9 -14 19 -2 23 8 23 41 -3 14 -11 24 -14 21
-7 -3 7 -18 20 -34 29 -28 16 -29 16 -40 -5 l-11 -21 5 22 c5 18 2 20 -15 16
-16 -4 -19 -2 -14 13 4 15 2 14 -15 -5 -25 -28 -28 -15 -4 19 15 22 15 23 1
12 -14 -11 -19 -10 -31 9 -9 11 -20 18 -26 14 -19 -11 -68 -17 -51 -6 8 5 18
7 24 4 5 -4 6 -1 1 7 -5 8 -4 11 3 6 6 -3 14 -1 18 6 4 7 4 10 -1 6 -4 -4 -16
-3 -26 3 -15 7 -17 6 -13 -6 4 -8 1 -15 -5 -15 -6 0 -11 7 -11 15 0 8 -5 15
-11 15 -5 0 -7 -6 -3 -13 5 -8 2 -8 -9 2 -9 7 -17 10 -17 6 0 -5 -8 -1 -18 8
-10 10 -22 14 -26 10 -4 -5 -6 -1 -4 7 2 8 -3 14 -10 12 -7 -1 -15 5 -18 13
-3 8 -11 12 -17 8 -6 -4 -7 -1 -2 7 6 10 11 10 20 -4 12 -15 13 -15 19 0 4 9
4 19 1 22 -3 3 -5 0 -5 -8 0 -10 -3 -10 -15 0 -8 6 -19 9 -25 5 -7 -4 -10 0
-8 10 2 12 -5 19 -19 21 -13 2 -23 -1 -23 -6 0 -6 5 -9 11 -8 6 2 13 -6 15
-17 2 -17 -1 -16 -21 8 -14 15 -27 27 -30 27 -8 0 -8 11 1 18 4 4 4 1 -1 -7
-6 -10 -4 -12 4 -7 16 10 -7 39 -25 32 -6 -2 -15 -2 -18 2 -4 3 -16 7 -27 9
-17 3 -18 0 -8 -20 l12 -22 -20 20 c-15 14 -18 24 -10 33 5 7 7 15 3 19 -3 3
-6 2 -6 -4 0 -6 -7 -14 -16 -17 -11 -4 -15 -2 -11 8 4 10 1 13 -8 9 -12 -4
-12 -9 -3 -26 9 -18 6 -17 -16 5 -15 15 -37 28 -49 30 -13 2 -21 9 -19 18 10
41 10 50 1 45 -5 -4 -7 -11 -4 -16 4 -5 -1 -9 -11 -9 -12 0 -15 6 -11 21 5 19
4 20 -12 5 -16 -15 -19 -15 -31 -1 -7 8 -21 15 -32 15 -14 0 -18 5 -14 15 3 9
-1 18 -9 21 -8 4 -12 11 -8 17 3 6 1 7 -6 3 -9 -6 -9 -11 0 -22 10 -12 9 -17
0 -27 -10 -9 -11 -8 -5 7 5 12 4 17 -3 13 -15 -10 -10 38 7 59 8 10 10 15 3
11 -17 -10 -28 12 -13 26 10 9 11 9 5 -2 -5 -10 -4 -12 4 -7 6 4 9 12 6 17 -4
5 1 12 10 15 14 6 14 8 -2 21 -16 13 -16 14 -1 9 9 -2 21 1 27 8 8 9 7 13 -4
13 -8 0 -11 -5 -8 -10 3 -6 1 -7 -5 -4 -12 8 -10 32 3 44 4 4 5 2 1 -4 -4 -7
-2 -13 3 -13 10 0 13 7 10 26 0 4 5 11 13 16 10 8 9 9 -4 4 -17 -5 -35 9 -21
17 5 2 3 2 -4 1 -16 -4 -65 35 -58 46 3 5 1 11 -4 14 -11 7 -9 -13 2 -31 5 -7
5 -18 1 -25 -5 -7 -2 -9 8 -6 8 4 21 3 28 -2 7 -5 -4 -7 -28 -6 -22 0 -44 5
-48 9 -5 4 0 5 10 1 15 -6 17 -4 11 6 -5 9 -4 11 3 6 7 -4 12 -5 12 -2 0 3
-10 10 -21 17 -15 8 -19 8 -15 0 4 -6 0 -11 -8 -11 -10 0 -13 -6 -10 -15 4 -8
1 -15 -6 -15 -6 0 -8 5 -5 10 3 6 -1 10 -10 10 -10 0 -13 -5 -9 -12 4 -6 3 -8
-4 -4 -5 3 -13 0 -15 -6 -4 -10 -6 -10 -6 0 -1 7 -5 10 -11 7 -6 -3 -10 -1
-10 4 0 10 14 15 33 12 4 0 7 4 7 10 0 5 4 8 8 5 4 -2 14 -1 21 3 9 6 10 11 2
15 -6 4 -11 2 -11 -5 0 -8 -5 -7 -17 2 -11 10 -14 10 -9 2 6 -12 -4 -17 -26
-14 -4 0 -10 -8 -13 -19 -4 -11 -11 -20 -16 -20 -6 0 -8 4 -4 9 3 5 0 13 -7
17 -7 4 -10 4 -6 -1 4 -4 2 -15 -5 -23 -10 -13 -9 -14 3 -7 13 8 13 7 1 -8
-15 -19 -26 -23 -15 -5 5 8 0 9 -15 5 -16 -4 -21 -1 -19 11 2 11 -5 16 -23 16
-14 1 -32 6 -40 12 -27 21 -38 24 -45 13 -4 -8 -3 -9 4 -5 13 8 52 -28 52 -46
0 -7 -6 -4 -12 7 -15 27 -27 34 -51 29 -16 -3 -18 -1 -9 8 7 7 12 19 12 27 0
11 -4 10 -15 -5 -14 -19 -14 -19 -9 1 4 17 0 21 -20 23 -50 3 -54 5 -51 25 4
18 3 18 -23 1 -24 -15 -25 -16 -13 -1 12 15 11 17 -8 17 -11 0 -21 5 -21 10 0
6 -12 10 -26 10 -14 0 -23 4 -19 10 3 6 -1 10 -10 10 -9 0 -14 4 -11 9 8 13
-24 23 -38 12 -8 -7 -12 -2 -14 16 -3 32 -5 35 -34 37 -13 1 -23 7 -23 16 0 9
-10 25 -21 36 -19 19 -22 19 -31 5 -10 -15 -12 -15 -29 0 -11 9 -25 14 -32 12
-7 -3 -12 -1 -11 4 3 19 -2 33 -12 33 -5 0 -7 -4 -4 -10 3 -5 1 -10 -5 -10 -6
0 -13 14 -17 30 -3 17 -10 30 -15 30 -5 0 -6 -5 -2 -12 4 -7 3 -8 -5 -4 -9 6
-9 11 1 24 11 13 11 14 -8 4 -14 -7 -25 -7 -35 0 -11 8 -11 9 3 5 12 -4 16 0
15 13 -1 14 -5 16 -13 9 -16 -13 -30 15 -28 53 0 15 -3 25 -7 22 -4 -2 -6 -12
-3 -22 5 -14 4 -14 -4 -3 -6 8 -8 21 -4 29 3 10 1 13 -6 8 -7 -4 -12 -2 -12 4
0 6 -5 8 -10 5 -6 -3 -10 4 -10 16 0 22 -1 22 -13 4 -11 -14 -16 -15 -22 -5
-5 9 -4 11 3 6 7 -4 12 -1 12 9 0 12 -4 13 -18 6 -21 -11 -36 -4 -45 24 -6 17
-4 16 11 -4 15 -19 21 -21 27 -10 5 8 4 11 0 6 -9 -8 -46 43 -39 54 2 4 -5 5
-16 2 -12 -3 -20 0 -20 6 0 7 4 9 10 6 6 -3 7 1 4 10 -6 14 -8 14 -20 -2 -13
-17 -14 -17 -8 0 7 19 -12 24 -19 5 -4 -8 -6 -7 -6 4 -1 9 5 19 12 22 8 4 7 5
-3 5 -31 -2 -41 1 -34 13 4 6 3 8 -4 4 -6 -3 -17 1 -25 9 -18 18 -37 20 -37 3
0 -6 -3 -8 -6 -5 -4 4 -2 12 4 20 12 14 7 24 -22 47 -12 9 -17 10 -12 3 4 -7
2 -13 -3 -13 -6 0 -11 5 -11 10 0 6 -7 10 -16 10 -8 0 -12 5 -9 10 4 6 10 8
14 6 4 -3 8 1 8 9 0 8 -4 12 -9 9 -4 -3 -8 1 -8 8 -1 7 -7 2 -15 -12 l-15 -25
6 30 c4 23 3 26 -5 15 -9 -13 -11 -12 -11 3 0 11 -4 15 -12 11 -7 -4 -8 -3 -4
4 4 6 14 9 24 6 16 -5 16 -5 0 6 -10 6 -15 18 -12 28 5 14 4 15 -5 2 -8 -11
-11 -12 -11 -2 0 7 -4 11 -9 8 -11 -7 -9 13 2 31 6 9 1 13 -14 13 -22 0 -22 0
-4 14 19 14 19 15 -7 26 -14 7 -29 23 -32 36 -4 13 -12 24 -18 24 -9 0 -9 -3
0 -12 7 -7 12 -16 12 -21 0 -5 -7 -1 -16 8 -9 9 -14 25 -11 35 3 11 0 23 -5
27 -6 3 -9 2 -6 -3 3 -5 2 -18 -3 -29 -6 -17 -8 -16 -9 10 -2 17 -2 33 -2 36
1 3 -4 6 -11 6 -7 0 -21 4 -31 9 -15 5 -17 4 -11 -6 5 -9 4 -11 -4 -6 -6 4 -9
12 -6 17 3 5 -1 6 -10 3 -11 -5 -14 -2 -9 10 3 9 1 16 -6 16 -6 0 -9 -4 -6 -9
3 -5 -1 -15 -10 -22 -13 -11 -15 -11 -14 2 4 26 0 39 -11 39 -8 0 -8 -5 1 -15
7 -9 8 -15 2 -15 -11 0 -24 25 -27 53 -1 9 -14 30 -29 46 -20 21 -24 31 -15
36 8 6 10 4 4 -5 -6 -9 -4 -11 5 -5 9 5 11 4 6 -3 -5 -8 -2 -10 9 -6 14 6 14
8 -2 19 -9 7 -23 11 -30 8 -7 -3 -13 0 -13 7 0 9 -4 9 -17 -1 -16 -13 -17 -12
-5 3 8 9 20 14 28 11 19 -7 18 4 -6 34 -11 14 -18 29 -15 33 2 3 -2 7 -10 7
-12 0 -12 -3 -2 -16 9 -12 9 -13 0 -7 -8 4 -13 2 -13 -6 0 -9 -3 -9 -10 2 -7
11 -5 19 8 30 15 13 16 18 6 28 -15 14 -25 16 -23 4 3 -20 -3 -30 -20 -35 -14
-3 -18 -1 -14 9 3 7 8 13 11 12 20 -2 25 3 12 12 -12 8 -12 10 -1 10 10 0 11
3 2 13 -8 10 -7 14 4 14 8 0 11 -5 8 -11 -3 -6 -2 -7 2 -3 15 13 14 36 -1 30
-10 -4 -12 0 -8 11 3 9 11 13 18 9 6 -4 5 1 -3 10 -15 18 -26 23 -16 7 10 -16
-1 -11 -16 7 -8 9 -9 14 -3 10 7 -4 17 -1 23 7 9 11 6 13 -13 11 -17 -2 -23 1
-20 10 3 7 -2 19 -10 27 -11 12 -12 18 -3 29 10 11 9 11 -6 0 -16 -13 -16 -15
-1 -32 10 -11 13 -19 8 -19 -15 0 -34 38 -28 57 5 14 4 15 -4 4 -8 -11 -12
-10 -23 8 -8 11 -18 21 -23 21 -5 0 -2 -8 7 -18 12 -13 13 -21 6 -32 -9 -13
-10 -12 -5 2 3 11 -4 24 -17 35 -25 21 -32 40 -19 57 20 25 21 55 1 51 -11 -2
-17 0 -14 4 2 5 -2 14 -10 21 -7 6 -11 19 -8 27 5 12 3 14 -8 8 -11 -7 -11 -5
1 10 12 15 12 17 1 10 -11 -6 -13 -4 -8 8 3 9 2 19 -4 22 -5 4 -6 11 -3 17 4
6 3 9 -2 6 -5 -3 -17 2 -27 12 -16 16 -16 19 -2 33 20 20 20 33 0 17 -13 -11
-18 -11 -28 0 -10 10 -9 11 2 5 9 -5 12 -4 8 3 -4 5 -16 8 -27 5 -11 -3 -20 0
-20 6 0 6 3 10 8 10 24 -4 35 2 24 13 -8 8 -15 8 -26 -1 -12 -10 -17 -9 -26 6
-10 16 -11 16 -6 0 3 -10 0 -17 -9 -17 -23 0 -28 -20 -9 -34 13 -10 14 -15 4
-21 -9 -5 -11 -4 -6 3 4 7 3 12 -2 12 -5 0 -12 -10 -15 -22 -5 -18 -8 -19 -21
-9 -9 8 -13 17 -10 22 3 5 -2 12 -10 15 -13 5 -12 9 7 24 20 17 21 19 4 25
-17 7 -17 8 3 22 11 8 17 20 14 26 -4 7 -4 9 1 5 10 -10 37 11 29 23 -8 13 10
11 26 -3 7 -7 5 1 -5 17 -18 30 -18 30 2 12 16 -14 20 -15 20 -2 0 8 -4 15 -9
15 -4 0 -8 8 -8 18 0 12 5 10 19 -11 15 -23 20 -25 24 -13 4 9 10 16 14 15 18
-3 33 1 33 9 0 5 -7 9 -15 9 -8 0 -12 -3 -10 -7 2 -4 -2 -7 -10 -7 -8 0 -15 4
-15 9 0 5 -4 6 -10 3 -5 -3 -10 -2 -10 4 0 5 12 8 27 7 26 -3 55 12 47 25 -2
3 3 6 11 6 8 0 15 -4 15 -9 0 -4 -4 -8 -8 -8 -4 0 -8 -9 -9 -20 -1 -11 3 -20
8 -20 6 0 7 5 4 10 -3 6 1 13 9 16 9 3 13 11 9 17 -3 6 -1 7 6 3 9 -6 9 -12
-1 -24 -7 -10 -8 -14 -4 -10 5 4 16 2 25 -5 13 -10 14 -10 6 3 -23 33 -12 55
25 53 l35 -1 -28 24 c-15 13 -24 24 -20 24 5 0 15 -6 22 -12 11 -11 13 -10 8
5 -4 11 -3 16 3 12 6 -4 9 -14 8 -22 -2 -9 3 -18 11 -21 10 -3 11 0 5 9 -6 12
-5 12 8 1 15 -12 17 -9 15 25 -1 26 2 37 11 36 6 -2 12 2 12 7 0 14 -23 12
-39 -2 -11 -10 -13 -10 -7 0 7 12 -5 16 -32 13 -20 -3 -44 32 -29 41 9 6 9 8
-1 8 -10 0 -10 5 -2 20 11 20 30 19 30 -1 0 -6 -4 -7 -10 -4 -5 3 -10 2 -10
-4 0 -13 17 -23 23 -14 2 5 2 2 0 -5 -1 -8 2 -10 9 -6 6 4 8 3 4 -4 -3 -6 -1
-14 5 -18 8 -4 9 -3 5 4 -4 7 -2 12 3 12 6 0 11 -8 11 -17 0 -15 2 -16 9 -3 6
8 7 18 4 24 -3 5 -1 6 5 2 7 -4 10 -2 6 7 -3 8 1 18 8 24 19 15 50 12 44 -3
-3 -7 7 -22 21 -34 15 -11 20 -20 12 -20 -12 0 -12 -2 0 -9 11 -7 11 -9 0 -14
-10 -4 -10 -6 -1 -6 6 -1 12 -6 12 -12 0 -8 -6 -7 -17 2 -14 12 -16 12 -8 0 6
-10 4 -12 -5 -6 -9 6 -11 4 -5 -5 5 -9 4 -11 -4 -6 -6 4 -9 12 -6 17 4 5 1 9
-5 9 -6 0 -10 -8 -8 -17 2 -11 -2 -17 -11 -15 -8 2 -11 -3 -8 -12 6 -16 -25
-41 -37 -29 -3 3 -6 4 -6 1 0 -3 8 -12 17 -19 11 -10 14 -10 9 -1 -4 6 -2 12
3 12 6 0 11 -4 11 -10 0 -5 5 -10 11 -10 8 0 7 6 -2 17 -12 15 -12 16 3 10 13
-4 16 -2 11 11 -5 14 -3 15 8 5 7 -7 18 -13 23 -13 6 0 3 5 -6 11 -10 5 -18
14 -18 18 0 12 30 9 30 -3 0 -6 5 -4 10 5 6 11 18 15 35 12 14 -3 22 -10 18
-16 -3 -6 -1 -7 6 -3 16 10 4 26 -22 26 -15 0 -18 3 -10 11 8 8 17 8 34 -1 23
-11 23 -10 5 4 -18 14 -15 21 7 17 4 -1 17 3 27 9 12 6 20 7 20 1 0 -5 -7 -11
-15 -15 -8 -3 -15 -10 -15 -16 0 -6 7 -4 16 4 8 9 20 14 25 11 5 -4 7 0 4 7
-3 7 6 27 19 43 24 29 25 29 39 10 14 -18 15 -18 12 8 -3 29 18 48 45 39 8 -2
12 -2 9 2 -11 12 -68 16 -74 5 -4 -5 -11 -7 -16 -4 -13 9 -11 21 4 23 6 1 23
3 37 5 14 2 30 -1 37 -6 7 -5 20 -4 31 2 14 7 25 5 47 -13 23 -19 25 -24 12
-29 -11 -4 -14 -2 -10 9 3 7 1 14 -5 14 -5 0 -12 -9 -15 -21 -6 -24 -27 -17
-27 9 0 15 2 15 10 2 7 -12 9 -10 7 8 -1 20 -3 20 -16 7 -13 -13 -13 -19 -3
-35 11 -19 10 -20 -14 -16 -15 3 -24 2 -20 -1 12 -12 40 -12 53 -1 8 6 16 8
20 5 3 -4 13 -1 22 6 14 11 14 10 2 -5 -7 -10 -17 -16 -21 -13 -4 3 -13 -2
-20 -10 -9 -10 -9 -15 -1 -15 6 0 11 4 11 8 0 5 7 9 15 9 20 0 19 -14 -2 -26
-10 -6 -13 -10 -8 -10 17 0 42 23 38 36 -2 6 1 14 7 18 6 3 10 3 9 -2 -3 -18
1 -36 8 -30 3 4 13 1 22 -5 11 -8 10 -5 -3 9 -10 12 -16 28 -13 35 4 9 6 8 6
-3 1 -20 28 -33 36 -18 4 5 12 6 18 3 8 -5 8 -3 0 7 -19 19 -16 29 10 29 22 1
22 1 2 16 -20 16 -20 16 2 9 18 -5 22 -3 17 9 -3 9 -11 13 -17 9 -6 -3 -7 -1
-3 6 4 6 11 9 16 6 4 -3 13 2 20 10 7 8 20 15 29 15 14 0 14 2 1 11 -12 9 -12
10 4 5 14 -5 17 -3 12 11 -6 14 -4 15 5 6 9 -9 8 -17 -5 -34 -9 -13 -16 -20
-16 -16 0 4 -9 3 -20 -3 -19 -10 -18 -40 2 -40 6 0 5 7 -3 16 -11 14 -10 15 7
12 10 -1 22 -7 26 -13 5 -6 8 -5 8 3 0 7 5 10 12 6 6 -4 8 -3 4 4 -3 5 -3 12
1 15 5 2 1 2 -7 0 -12 -3 -12 -2 -3 8 10 9 15 10 27 0 9 -7 17 -8 20 -2 3 5 3
11 -1 14 -5 2 -2 2 6 0 8 -2 22 4 32 13 20 18 22 14 21 -26 -1 -8 4 -3 10 11
8 19 18 26 34 25 12 0 20 -4 18 -8 -3 -4 3 -5 12 -1 11 4 15 2 11 -4 -4 -6 0
-13 8 -17 8 -3 17 0 21 6 4 7 3 8 -4 4 -17 -10 -15 9 3 24 8 7 12 17 8 24 -4
6 1 4 11 -4 16 -13 21 -11 45 18 30 36 36 39 45 16 5 -14 4 -15 -8 -5 -22 19
-32 -7 -10 -27 17 -16 17 -16 4 1 -12 16 -11 18 13 13 15 -2 30 0 33 6 4 6 2
8 -3 5 -6 -4 -14 0 -17 9 -4 12 -2 15 9 10 18 -6 19 -2 4 27 -9 19 -8 20 3 6
17 -21 51 -33 45 -17 -2 7 -10 12 -17 10 -10 -2 -11 0 -2 11 7 8 9 17 5 20 -3
4 2 9 11 13 14 5 14 9 4 23 -12 14 -11 14 4 2 10 -7 15 -17 12 -22 -3 -5 -1
-9 4 -9 6 0 12 -6 15 -13 3 -8 -1 -14 -8 -14 -8 0 -13 5 -12 10 1 5 -3 11 -9
14 -15 5 -13 -20 3 -35 7 -7 13 -9 13 -4 0 5 14 8 30 7 17 -1 33 2 36 7 3 5
13 3 22 -4 15 -12 15 -11 4 4 -7 9 -21 15 -31 13 -10 -2 -24 1 -32 7 -11 8
-10 9 5 4 14 -5 17 -2 12 11 -5 16 -5 16 6 2 9 -10 24 -14 46 -12 18 3 41 -2
50 -9 16 -12 16 -11 2 6 -14 18 -13 19 2 13 10 -3 20 -1 24 5 4 7 3 8 -4 4 -7
-4 -12 -2 -12 5 0 10 -3 10 -12 1 -7 -7 -17 -12 -22 -12 -16 1 27 24 47 26 9
1 29 2 44 3 26 1 26 2 7 15 -15 12 -16 14 -3 12 10 -1 25 -8 35 -16 16 -12 17
-12 7 0 -16 18 -17 34 -1 24 7 -5 8 -3 4 5 -5 7 -15 10 -25 7 -12 -5 -11 -2 3
9 11 8 24 15 28 15 5 0 13 10 18 23 6 16 9 17 9 5 1 -9 -9 -24 -20 -32 -22
-15 -22 -15 -1 -13 11 0 20 6 19 12 -1 5 5 10 14 9 9 -1 16 5 16 12 0 7 -5 10
-10 7 -6 -3 -7 -1 -3 5 4 6 14 8 23 5 10 -4 14 -2 9 5 -3 6 -1 14 5 18 8 4 9
3 5 -4 -4 -7 -2 -12 3 -12 10 0 15 14 12 33 -1 4 7 3 18 -3 28 -15 38 -12 16
4 -17 12 -17 13 11 12 16 0 29 4 30 12 3 24 4 24 20 12 8 -8 14 -9 13 -4 -3
20 2 28 10 16 7 -11 9 -10 14 3 5 10 3 14 -5 9 -7 -5 -8 -3 -3 6 5 8 4 11 -1
7 -6 -3 -16 -1 -24 5 -12 8 -12 9 2 4 10 -3 20 -1 23 4 8 13 -18 18 -40 8 -17
-8 -18 -7 -5 4 8 7 15 22 16 33 1 36 20 71 27 52 4 -10 12 -17 18 -17 8 0 8 4
1 13 -8 10 -6 16 9 25 12 8 19 9 19 1 0 -5 5 -7 12 -3 7 4 8 3 4 -4 -4 -6 -13
-9 -21 -5 -8 3 -15 1 -15 -5 0 -6 12 -15 28 -20 24 -9 25 -10 5 -11 -13 -1
-23 -6 -23 -12 0 -5 5 -7 11 -4 6 4 2 -10 -9 -31 -10 -22 -18 -54 -17 -71 0
-18 -4 -33 -10 -33 -5 0 -2 -5 8 -11 9 -6 14 -15 11 -21 -4 -7 -2 -8 4 -4 7 4
12 2 12 -3 0 -6 8 -11 18 -11 14 0 12 4 -8 20 -14 11 -19 20 -12 20 6 0 12 4
12 10 0 5 -5 9 -11 7 -6 -1 -14 5 -16 13 -4 12 -3 12 5 2 5 -8 13 -13 18 -13
5 0 9 -6 9 -15 0 -8 5 -18 12 -22 6 -4 9 -19 8 -35 -2 -18 0 -25 8 -20 21 13
48 10 43 -4 -4 -8 -1 -11 5 -8 6 4 8 13 5 21 -7 17 10 29 18 12 2 -7 4 -4 3 7
-2 11 -6 26 -10 33 -5 7 -4 12 2 12 6 0 11 -5 11 -11 0 -5 5 -7 10 -4 6 4 7
11 4 17 -4 7 -2 8 4 4 7 -4 12 -2 12 3 0 6 5 11 12 11 6 0 0 -12 -15 -28 -19
-20 -24 -31 -17 -42 7 -10 10 -11 11 -2 1 6 2 17 3 22 0 6 6 9 11 8 6 -2 9 -7
7 -11 -1 -5 2 -6 8 -2 8 5 8 11 0 20 -7 9 -6 16 5 25 8 7 15 9 15 5 0 -5 9 0
19 9 11 10 24 15 30 11 6 -3 9 0 5 8 -3 9 3 17 16 20 12 3 19 10 16 15 -3 5
10 8 29 7 22 -2 32 1 28 8 -4 6 0 8 11 4 9 -4 15 -3 11 2 -3 6 0 13 7 18 27
17 40 41 27 49 -8 5 -9 3 -4 -6 5 -9 4 -11 -4 -6 -18 11 -3 25 22 19 21 -4 21
-4 -3 12 l-25 16 24 -7 c20 -5 23 -4 17 12 -4 10 -4 15 0 11 4 -4 13 1 21 11
9 10 11 11 7 2 -7 -13 -5 -13 9 -1 9 7 17 20 17 27 0 8 7 14 15 14 15 0 19 11
15 40 -3 23 10 5 15 -20 2 -12 7 -25 11 -29 4 -3 4 2 1 11 -4 12 1 19 14 23
13 4 18 12 15 22 -5 12 -1 14 21 10 l28 -5 -23 18 c-21 17 -21 19 -3 17 11 0
18 -4 15 -8 -2 -4 5 -9 16 -12 17 -4 18 -2 8 16 -6 12 -7 19 -3 15 11 -11 36
12 28 25 -4 6 -1 7 8 1 27 -16 53 -16 39 1 -7 8 -17 12 -23 8 -6 -3 -7 -1 -3
6 6 9 14 8 33 -4 14 -10 23 -13 19 -7 -3 5 3 12 14 15 11 3 20 11 20 19 0 8
-3 9 -8 3 -10 -14 -42 -18 -42 -5 0 6 4 9 9 5 6 -3 20 5 32 17 12 13 19 17 15
11 -4 -7 -2 -21 4 -30 11 -17 11 -17 6 1 -5 13 -2 17 8 13 8 -3 20 1 26 8 7 8
16 13 20 10 4 -3 7 3 6 12 -1 12 9 19 29 23 17 3 30 12 30 20 0 10 10 14 28
13 24 -2 26 0 12 13 -21 22 -19 27 8 13 20 -11 21 -11 8 5 -12 14 -12 16 4 10
12 -5 16 -4 11 4 -3 6 -2 13 3 17 6 3 8 -3 6 -15 -2 -11 0 -20 6 -20 8 0 13
21 10 45 -1 6 5 2 13 -8 12 -16 14 -16 20 -2 3 9 2 13 -4 10 -6 -3 -10 -1 -10
5 0 6 10 10 22 8 12 -2 23 3 25 12 4 13 3 13 -7 0 -10 -13 -11 -13 -7 0 2 8
12 14 21 13 12 -1 15 4 11 14 -4 13 -3 14 10 3 13 -11 14 -10 9 4 -3 9 -1 16
5 16 6 0 11 7 11 15 0 9 7 18 15 21 8 4 12 11 8 18 -4 6 2 4 12 -4 10 -8 16
-10 12 -3 -9 14 2 45 13 38 4 -3 14 3 21 12 12 14 12 15 1 9 -11 -7 -12 -4 -3
12 6 11 18 23 27 26 9 4 14 9 11 13 -4 3 1 12 11 20 11 10 12 12 2 8 -10 -4
-9 -2 3 8 9 8 17 23 17 34 0 12 11 25 26 31 14 7 22 17 19 22 -3 6 1 13 9 16
9 3 16 12 16 20 0 8 5 14 11 14 5 0 7 5 4 10 -3 6 -1 10 5 10 6 0 9 4 5 9 -3
6 3 15 14 21 13 7 18 16 14 27 -4 11 -3 14 5 9 10 -6 18 7 10 17 -4 4 36 72
47 79 6 5 4 8 -4 8 -11 0 -10 4 4 13 11 9 15 19 10 27 -6 10 -4 12 9 7 12 -5
15 -3 9 6 -11 18 -13 38 -2 31 5 -3 9 0 9 6 0 6 4 9 9 6 4 -3 7 8 5 25 -2 18
0 28 6 24 6 -4 10 7 10 25 0 17 4 29 9 26 5 -4 8 2 7 11 -2 10 2 21 8 25 7 5
3 8 -9 8 -19 1 -19 2 2 10 15 6 20 15 16 29 -3 12 -1 21 6 21 6 0 11 5 11 11
0 5 -5 7 -11 3 -6 -3 -3 9 7 27 10 19 17 37 16 42 -1 4 4 7 11 7 8 0 7 4 -3
10 -8 5 -10 10 -4 10 6 0 11 8 11 18 -1 47 4 73 11 68 11 -7 8 31 -3 41 -4 5
-5 2 0 -6 5 -9 4 -12 -3 -7 -8 4 -5 18 9 41 20 33 20 35 3 35 -16 0 -16 1 2
16 10 8 14 13 8 10 -6 -3 -11 1 -11 9 0 8 5 13 11 12 13 -3 15 26 1 36 -6 4
-5 10 4 16 8 5 9 11 3 15 -6 3 -8 15 -5 27 4 16 8 17 14 7 5 -7 9 -8 9 -3 0 6
-8 21 -17 34 -9 14 -11 21 -5 17 12 -7 13 -4 16 32 1 9 5 22 9 29 4 6 3 14 -3
18 -12 8 -13 52 -1 59 14 9 6 71 -9 68 -11 -3 -11 0 -1 12 18 22 21 78 4 72
-10 -4 -11 -1 -4 13 6 10 8 21 4 24 -9 10 -10 146 -1 141 10 -6 11 10 1 20
-15 14 -10 47 6 41 14 -4 14 -3 -1 8 -11 9 -13 18 -7 29 6 11 5 19 -2 24 -8 4
-9 3 -5 -4 5 -8 2 -10 -9 -6 -14 6 -14 8 2 21 15 12 15 14 2 10 -13 -4 -15 -1
-12 14 3 10 10 19 16 19 6 0 7 3 4 6 -4 4 -13 2 -20 -4 -10 -9 -14 -8 -14 3 0
8 4 15 9 15 4 0 8 7 8 15 0 8 -5 15 -11 15 -5 0 -7 -4 -4 -10 4 -6 -1 -7 -11
-3 -11 4 -13 8 -6 11 7 2 17 12 22 23 8 15 7 17 -5 13 -8 -3 -12 -10 -9 -15 3
-5 0 -9 -5 -9 -15 0 -14 13 2 29 10 11 10 13 0 7 -7 -4 -13 -2 -13 4 0 6 -5 8
-12 4 -9 -5 -9 -2 1 9 7 9 10 17 5 17 -5 0 0 7 11 16 19 15 19 15 -7 10 -15
-2 -30 -1 -33 4 -3 5 4 7 15 5 11 -2 20 0 20 6 0 8 -15 13 -33 10 -5 -1 -5 3
-2 9 4 6 13 9 21 6 8 -3 14 -1 14 4 0 9 -15 14 -33 11 -5 -1 -6 3 -2 9 3 6 10
8 15 5 5 -3 7 4 5 15 -2 11 1 20 6 20 6 0 7 5 3 11 -3 6 -9 7 -13 3 -3 -5 -13
-10 -21 -12 -11 -3 -9 3 5 20 11 13 13 17 5 11 -26 -24 -34 -13 -9 14 l24 27
-35 -25 -35 -24 23 29 c24 31 28 46 11 46 -5 0 -8 -4 -4 -9 3 -5 1 -12 -4 -15
-5 -4 -12 -2 -16 4 -4 6 -11 7 -17 4 -7 -4 -8 -2 -4 5 4 6 11 9 16 6 5 -3 11
-1 15 4 3 5 -2 14 -11 19 -15 9 -15 10 4 16 25 8 29 23 7 23 -8 0 -12 -4 -9
-9 8 -13 -3 -9 -15 6 -9 11 -9 16 0 22 8 5 9 3 4 -6 -5 -8 -4 -11 3 -6 6 4 8
14 5 22 -4 11 -9 12 -16 5 -6 -6 -15 -11 -20 -11 -5 0 -1 7 7 16 14 13 14 17
2 30 -21 21 -28 17 -16 -8 11 -22 10 -22 -4 -4 -13 16 -13 22 -3 35 10 12 9
14 -7 8 -17 -7 -17 -6 -5 10 12 15 12 16 -5 10 -17 -7 -17 -6 -5 10 9 11 10
14 2 9 -13 -7 -14 -4 -17 36 0 12 -9 22 -19 24 -18 2 -18 2 -1 -17 9 -10 12
-19 7 -19 -6 0 -14 7 -17 16 -3 8 -11 12 -16 9 -6 -4 -9 -1 -8 7 2 7 -3 12
-10 10 -8 -1 -11 2 -7 8 3 5 3 16 -2 23 -4 6 -8 20 -9 30 -3 34 -4 37 -19 37
-17 0 -20 16 -4 25 6 4 -2 18 -22 36 -17 15 -29 34 -26 41 7 21 -34 20 -50 0
-10 -13 -13 -14 -11 -2 2 8 12 23 22 33 11 9 14 18 8 18 -32 4 -37 6 -36 14 0
6 -10 20 -22 31 -21 20 -22 20 -21 4 1 -10 5 -16 11 -13 5 4 6 0 1 -8 -5 -8
-5 -11 0 -7 5 5 15 -1 22 -12 8 -11 20 -17 26 -14 7 4 8 3 4 -1 -10 -11 -39
-16 -32 -5 3 4 -6 15 -19 24 -18 11 -24 23 -22 45 1 16 -1 28 -5 26 -3 -3 -15
6 -25 20 -10 13 -21 22 -24 20 -3 -2 -12 1 -20 7 -12 8 -12 9 3 4 9 -3 17 -1
17 4 0 6 -9 10 -21 10 -11 0 -17 5 -14 10 3 6 -1 10 -10 10 -10 0 -13 -5 -9
-12 4 -7 3 -8 -4 -4 -19 12 -14 36 6 30 13 -5 14 -4 3 4 -8 6 -21 8 -29 4 -11
-4 -14 -1 -9 11 7 18 -8 33 -18 17 -9 -15 -22 -12 -22 5 0 8 3 12 7 10 3 -2
12 1 20 7 13 8 13 9 0 5 -9 -3 -24 1 -34 8 -21 16 -50 9 -39 -9 5 -7 1 -4 -9
6 -9 10 -18 15 -21 11 -2 -5 -2 -1 1 7 9 32 9 60 -1 60 -5 0 -7 -9 -4 -20 4
-16 0 -19 -18 -18 -13 1 -21 6 -19 10 3 4 0 8 -7 8 -7 0 -9 3 -6 6 4 4 13 1
22 -6 13 -11 14 -10 9 3 -3 8 -12 18 -20 21 -9 3 -12 11 -8 17 4 8 3 9 -4 5
-7 -4 -12 -2 -12 5 0 7 -3 9 -6 6 -4 -4 -1 -13 6 -22 8 -9 8 -15 2 -15 -6 0
-14 9 -17 20 -3 11 -11 20 -16 20 -6 0 -7 -4 -4 -10 3 -5 2 -10 -3 -10 -6 0
-13 7 -16 16 -3 8 -2 13 2 10 4 -2 14 0 22 6 12 8 12 9 -2 4 -10 -3 -20 -1
-23 4 -4 6 -12 10 -18 10 -7 0 -6 -4 3 -10 8 -5 10 -10 4 -10 -6 0 -19 9 -29
20 -17 18 -17 20 -2 14 9 -3 17 -2 17 4 0 11 -25 10 -36 -1 -11 -11 -21 -8
-22 6 -2 24 -8 47 -15 53 -3 4 -4 -3 -2 -16 4 -19 2 -20 -12 -8 -10 8 -14 8
-10 1 4 -6 2 -15 -4 -19 -8 -4 -9 -3 -5 4 4 7 3 12 -3 12 -5 0 -8 9 -6 20 2
12 0 18 -6 15 -5 -4 -7 -11 -4 -16 4 -5 2 -9 -4 -9 -6 0 -8 -8 -5 -17 5 -17 5
-17 -6 -1 -6 10 -18 15 -28 12 -14 -5 -14 -4 -2 4 8 6 17 9 20 7 4 -2 7 2 7
10 0 8 -5 13 -10 12 -6 -1 -16 9 -24 23 -11 22 -13 23 -13 5 0 -18 -2 -18 -21
5 -18 22 -19 22 -9 3 9 -19 8 -22 -5 -17 -8 4 -15 12 -15 19 0 8 -8 11 -20 8
-11 -3 -17 -10 -13 -17 4 -7 1 -7 -8 1 -10 8 -19 9 -27 3 -7 -6 -10 -7 -8 -4
10 14 -28 43 -41 32 -11 -8 -12 -7 -7 7 5 13 3 16 -7 13 -8 -3 -13 -11 -11
-17 1 -7 -2 -10 -8 -6 -6 3 -8 11 -5 16 4 5 1 9 -6 9 -8 0 -8 4 1 15 7 9 10
18 6 22 -3 3 -6 1 -6 -5 0 -7 -7 -12 -16 -12 -9 0 -12 5 -8 12 4 7 3 8 -5 4
-8 -5 -9 -12 -2 -20 7 -8 4 -12 -12 -13 -12 -1 -17 1 -12 5 13 9 18 55 5 47
-6 -3 -10 -13 -10 -21 0 -16 -16 -19 -25 -4 -4 6 -11 8 -16 5 -5 -3 -6 2 -2
11 4 12 3 15 -5 10 -7 -4 -15 0 -18 9 -6 13 -9 14 -16 3 -7 -10 -11 -10 -22 5
-12 16 -14 16 -20 1 -3 -9 -4 -20 -1 -24 7 -11 -22 -7 -32 5 -4 4 -2 5 5 1 17
-10 15 5 -5 29 -12 16 -14 16 -10 3 3 -10 2 -20 -4 -23 -5 -4 -9 -3 -8 2 3 18
-2 33 -11 33 -5 0 -7 -6 -4 -14 3 -8 1 -17 -4 -20 -5 -3 -9 2 -8 12 1 13 -8
17 -42 18 -23 1 -48 7 -56 13 -10 9 -16 9 -21 1 -4 -7 -13 -4 -25 10 -9 11
-22 20 -28 20 -6 0 -13 6 -15 13 -4 9 -6 9 -6 -1 -1 -7 -6 -10 -13 -6 -7 4 -8
3 -4 -5 4 -6 12 -8 18 -5 7 5 8 2 3 -6 -6 -10 -12 -8 -27 9 -16 21 -18 21 -18
5 -1 -16 -3 -15 -15 6 l-15 25 3 -25 c1 -18 -2 -24 -13 -22 -8 2 -24 6 -35 8
-29 5 -65 26 -60 34 2 4 -3 7 -11 7 -8 0 -13 -6 -10 -13 3 -8 -2 -10 -16 -6
-11 3 -23 14 -26 24 -4 15 -7 16 -13 7 -4 -8 -3 -20 4 -29 11 -13 10 -13 -7 0
-18 14 -19 13 -13 -2 3 -10 3 -18 -2 -18 -5 0 -11 10 -14 22 -4 12 -9 19 -12
16 -4 -3 -19 -3 -35 2 -16 5 -32 4 -38 -2 -6 -6 -12 -6 -16 1 -8 13 1 31 15
31 6 0 8 -4 5 -8 -3 -5 2 -9 10 -9 13 0 13 2 0 15 -14 14 -17 14 -34 -1 -10
-9 -22 -14 -25 -10 -4 3 -7 1 -7 -4 0 -6 5 -13 12 -15 8 -3 7 -6 -4 -10 -11
-5 -15 0 -14 15 1 12 7 21 14 20 7 -2 12 2 12 7 0 13 -17 13 -26 -1 -3 -6 -15
-9 -25 -6 -13 4 -24 -3 -35 -21 -11 -21 -13 -22 -9 -6 4 16 0 23 -15 27 -17 4
-19 3 -9 -9 7 -8 7 -14 1 -14 -19 0 -23 32 -5 47 15 12 13 12 -8 0 -20 -12
-29 -13 -39 -4 -9 8 -11 8 -7 1 4 -7 0 -15 -9 -18 -8 -3 -12 -11 -8 -17 4 -8
3 -9 -5 -5 -6 4 -8 12 -5 18 4 7 -2 8 -17 3 -21 -7 -22 -6 -10 9 11 13 17 14
30 4 9 -7 13 -8 9 -4 -4 5 -3 15 3 23 6 7 9 13 6 13 -3 0 -8 -4 -12 -9z m-345
-1370 c0 -4 -5 -12 -12 -19 -13 -13 -8 -15 16 -6 9 3 13 11 9 18 -3 6 -3 8 2
4 4 -4 14 -3 22 4 11 8 12 7 7 -6 -3 -9 -10 -16 -15 -16 -6 0 -5 -8 1 -19 5
-11 7 -27 3 -37 -5 -13 -3 -15 7 -9 8 5 11 4 6 -3 -3 -5 0 -13 6 -15 9 -4 8
-6 -2 -6 -9 -1 -24 15 -35 35 -11 20 -21 31 -23 26 -2 -6 -10 -8 -18 -5 -11 4
-12 8 -4 13 8 5 7 9 -4 13 -23 9 -20 -20 3 -32 10 -6 21 -8 24 -5 3 3 11 -4
17 -16 10 -18 8 -24 -7 -36 -13 -10 -14 -13 -2 -9 9 3 22 -2 30 -11 13 -15 11
-16 -11 -9 l-25 8 20 -22 c12 -14 14 -21 6 -19 -7 2 -16 -3 -19 -11 -2 -8 0
-11 6 -7 6 3 14 1 18 -5 4 -8 3 -9 -4 -5 -7 4 -12 1 -13 -6 0 -10 -2 -11 -6 0
-4 10 -8 10 -19 2 -14 -12 -38 -4 -29 10 3 4 -2 10 -10 13 -9 4 -12 1 -8 -9 3
-7 1 -14 -5 -14 -6 0 -9 8 -8 17 2 10 -4 24 -12 32 -18 18 13 48 33 31 8 -7
12 -5 12 5 0 8 -4 12 -9 9 -4 -3 -6 11 -3 31 4 32 2 35 -10 25 -11 -9 -15 -9
-15 -1 0 6 4 11 9 11 5 0 11 9 14 20 4 15 10 18 24 13 15 -6 16 -4 6 8 -10 12
-8 15 8 16 10 1 19 -2 19 -6z m-745 -124 c0 -7 9 -12 20 -12 11 0 21 -8 23
-17 2 -10 -2 -18 -8 -18 -6 0 -8 -5 -5 -10 5 -8 11 -7 21 1 10 8 14 8 14 0 0
-6 -6 -11 -12 -11 -7 -1 -3 -6 9 -13 l23 -12 -21 -13 c-19 -12 -20 -15 -5 -31
14 -15 14 -20 3 -29 -20 -17 -44 2 -28 22 11 13 11 16 0 16 -11 0 -11 2 1 10
11 8 8 9 -13 6 -19 -3 -26 -1 -21 7 3 7 -2 3 -10 -7 -9 -11 -16 -16 -16 -12 0
5 -6 3 -13 -3 -8 -6 -18 -7 -22 -3 -5 4 -6 0 -3 -8 3 -9 0 -24 -7 -34 -12 -16
-14 -16 -20 5 -5 16 -2 26 14 38 18 14 19 19 9 30 -11 11 -10 13 1 6 10 -6 12
-2 6 16 -7 22 -6 23 7 6 13 -17 15 -17 27 -3 11 13 11 19 1 31 -9 10 -9 15 -1
15 6 0 11 -4 11 -8 0 -4 9 -8 21 -9 20 -2 21 -1 3 18 -16 18 -31 60 -16 44 4
-4 7 -12 7 -18z m21 -143 c-7 -19 3 -44 19 -44 8 0 17 -5 20 -11 9 -13 -27 -8
-38 6 -4 6 -6 0 -4 -12 2 -12 7 -26 12 -30 4 -5 5 -3 1 4 -3 6 -1 15 6 19 7 4
10 4 6 -1 -4 -4 0 -22 8 -39 12 -24 12 -27 1 -13 -8 9 -20 17 -27 17 -10 0 -9
-5 3 -18 12 -13 13 -21 6 -32 -9 -13 -10 -12 -6 2 12 35 -10 27 -65 -24 -10
-10 -18 -14 -18 -9 0 6 5 13 10 16 15 9 12 25 -5 25 -21 0 -19 10 10 53 14 20
22 37 18 38 -4 0 1 4 11 8 22 8 30 48 10 48 -9 0 -10 -5 -3 -19 8 -15 6 -17
-13 -15 -17 1 -23 -3 -23 -19 0 -12 -8 -31 -18 -42 -17 -18 -24 -36 -26 -67
-1 -5 -6 -3 -11 5 -6 10 -1 24 17 48 24 32 25 34 4 27 -13 -4 -21 -2 -21 5 0
6 4 9 9 6 5 -3 19 14 32 38 13 25 26 43 29 41 3 -2 12 0 20 5 18 11 33 2 26
-16z m1261 -43 c0 -11 -4 -18 -7 -16 -3 2 -6 -9 -6 -23 -1 -24 1 -22 17 13 10
22 19 34 19 27 0 -7 5 -10 10 -7 6 3 10 3 10 -2 0 -4 13 -14 29 -21 16 -7 32
-20 36 -29 5 -15 4 -15 -13 0 -10 9 -22 14 -27 10 -4 -5 -5 -2 0 6 5 9 4 12
-3 7 -6 -3 -13 -2 -17 4 -3 5 -11 10 -16 10 -6 0 4 -13 22 -30 18 -16 36 -27
40 -25 4 3 12 -2 19 -11 7 -8 20 -12 28 -9 10 3 12 0 8 -10 -8 -22 0 -18 18 9
15 24 15 25 -4 21 -11 -2 -20 1 -20 7 0 5 7 7 16 4 13 -5 15 -2 11 14 -3 11
-1 23 4 26 5 3 9 2 8 -3 -4 -24 3 -44 14 -40 6 2 11 10 9 16 -1 8 2 9 10 5 30
-19 67 -11 49 10 -8 9 -7 13 4 13 8 0 12 -4 9 -9 -3 -4 1 -8 8 -8 9 -1 7 -5
-4 -14 -19 -14 -13 -30 6 -19 14 9 58 12 50 4 -3 -3 -10 -7 -15 -7 -22 -3 -23
-5 -9 -14 10 -6 21 -4 35 8 19 16 19 16 6 0 -11 -15 -11 -19 3 -24 16 -6 13
-24 -5 -24 -6 0 -7 5 -3 12 5 7 3 8 -6 3 -9 -6 -11 -4 -5 6 5 8 4 11 0 6 -5
-4 -19 0 -32 8 -13 9 -23 12 -23 7 0 -5 12 -14 26 -20 14 -7 23 -16 20 -20 -2
-4 4 -8 14 -9 11 -1 22 3 26 8 3 6 19 2 40 -10 32 -19 33 -19 22 -1 -7 10 -15
17 -18 15 -3 -2 -12 0 -20 6 -15 9 -2 14 24 10 5 -1 6 5 2 14 -3 10 -2 14 5
10 5 -4 8 -12 6 -18 -2 -6 5 -21 15 -31 10 -11 17 -25 14 -31 -2 -7 1 -12 8
-12 6 0 12 8 12 18 0 10 -5 15 -11 12 -5 -3 -4 0 2 7 7 8 20 15 29 16 14 2 14
0 -2 -17 -10 -12 -12 -19 -5 -19 9 0 9 -6 1 -22 -9 -20 -9 -21 2 -7 17 21 28
21 55 4 14 -9 24 -11 28 -5 3 6 11 10 17 10 6 0 1 -12 -13 -27 l-24 -28 27 24
c16 14 31 21 35 18 3 -4 13 -1 21 6 13 11 14 9 1 -10 -9 -16 -16 -19 -21 -10
-6 9 -8 9 -8 0 0 -17 17 -25 26 -12 5 9 11 7 21 -6 7 -11 13 -14 13 -8 0 7 11
10 27 7 15 -3 24 -2 19 3 -4 4 -17 8 -29 8 -12 0 -23 3 -24 8 -6 15 -3 27 7
27 6 0 9 -6 8 -12 -2 -7 3 -12 11 -10 7 1 19 -2 25 -8 7 -5 16 -6 21 -2 4 4 2
-4 -4 -16 -14 -26 -11 -32 16 -36 10 -2 18 -9 18 -17 0 -7 8 -15 18 -17 9 -2
17 1 17 7 0 6 -8 8 -17 5 -15 -5 -15 -4 -3 4 17 13 33 5 26 -13 -6 -17 13 -35
30 -28 8 3 17 -2 20 -11 3 -9 10 -13 15 -10 5 3 8 2 7 -3 -1 -4 3 -17 9 -28
12 -22 -6 -62 -22 -47 -5 4 -5 1 -1 -6 6 -11 11 -11 24 0 10 8 13 8 9 1 -4 -6
-1 -13 5 -16 10 -4 11 -7 1 -18 -7 -7 -13 -16 -13 -21 0 -4 6 -6 13 -4 6 1 9
1 4 -1 -4 -3 -5 -9 -2 -13 3 -5 -4 -7 -15 -5 -18 4 -19 2 -5 -19 15 -22 11
-36 -9 -36 -6 0 -4 5 4 11 13 9 13 10 0 6 -8 -2 -15 -9 -15 -16 0 -6 -6 -16
-14 -20 -9 -6 -10 -11 -2 -15 6 -4 11 -2 11 3 0 6 5 11 11 11 8 0 8 -5 -1 -15
-7 -8 -16 -12 -21 -9 -5 3 -9 1 -9 -5 0 -5 3 -11 8 -14 4 -2 2 -2 -5 -1 -15 4
-63 -18 -63 -29 0 -5 5 -5 10 -2 6 3 10 2 10 -2 0 -8 -34 -33 -45 -33 -3 0 -5
3 -4 8 1 4 5 6 10 5 5 -2 9 2 9 7 0 17 -25 11 -38 -10 -9 -15 -9 -20 0 -20 6
0 9 -2 6 -5 -12 -12 -39 7 -28 20 8 10 8 15 -1 21 -7 4 -9 3 -5 -4 3 -6 2 -13
-4 -17 -6 -4 -7 -11 -4 -17 5 -8 1 -9 -11 -4 -15 5 -16 4 -5 -9 11 -13 10 -14
-3 -10 -8 4 -18 1 -23 -6 -4 -7 -3 -10 4 -5 20 12 22 -11 2 -29 -12 -10 -20
-13 -20 -7 0 7 5 12 12 12 6 0 9 3 5 6 -3 4 -19 -4 -34 -16 -16 -13 -20 -20
-10 -17 17 6 17 5 1 -23 -10 -16 -21 -27 -26 -24 -8 5 -12 -11 -9 -30 1 -5 -4
-4 -13 3 -11 9 -16 9 -22 0 -4 -8 -3 -9 4 -5 7 4 12 2 12 -3 0 -10 -14 -15
-33 -12 -5 1 -6 -3 -2 -8 3 -6 13 -8 23 -5 14 5 15 4 2 -5 -8 -6 -15 -16 -15
-23 0 -7 -9 -12 -19 -10 -12 2 -16 -1 -10 -9 5 -9 2 -10 -9 -6 -11 4 -14 2
-10 -9 4 -10 0 -13 -13 -8 -11 3 -9 0 5 -9 l24 -14 -22 -12 c-12 -7 -18 -17
-15 -23 4 -6 3 -8 -4 -4 -6 3 -13 2 -17 -4 -3 -5 0 -10 7 -10 8 0 6 -5 -5 -11
-9 -6 -15 -15 -11 -20 3 -5 1 -16 -6 -24 -7 -9 -8 -15 0 -20 16 -10 12 -22 -9
-28 -23 -6 -48 7 -32 17 6 4 11 1 11 -6 0 -11 2 -11 9 0 4 7 7 29 6 47 -1 22
3 32 9 28 6 -3 8 -3 4 2 -4 4 -3 14 3 22 6 7 7 13 2 13 -5 0 -17 -13 -26 -30
-10 -16 -15 -30 -11 -30 4 0 4 -3 1 -7 -4 -3 -14 2 -23 13 -14 18 -15 18 -4
-3 6 -13 15 -23 21 -23 6 0 7 -5 4 -10 -5 -8 -11 -7 -21 1 -10 8 -14 8 -14 0
0 -6 4 -11 9 -11 13 0 7 -30 -8 -40 -8 -4 -10 -13 -7 -19 4 -6 3 -11 -1 -11
-5 0 -18 -7 -29 -16 -18 -14 -18 -15 4 -4 12 6 27 8 32 5 5 -3 7 4 5 15 -3 13
0 18 7 14 7 -5 8 -2 3 6 -6 9 -4 11 5 5 9 -6 11 -4 5 6 -6 11 -5 11 5 2 7 -6
19 -9 28 -5 11 4 10 0 -4 -14 -12 -13 -22 -16 -26 -10 -8 12 -10 8 -12 -23 0
-11 -5 -23 -10 -28 -5 -4 -6 -3 -2 4 10 18 -9 24 -31 8 -13 -9 -19 -23 -18
-40 2 -14 -1 -28 -7 -31 -7 -4 -6 -9 2 -14 7 -4 1 -7 -16 -7 -26 0 -27 0 -9
13 10 8 15 14 11 14 -5 0 -3 6 3 14 9 10 8 16 -3 26 -13 10 -15 8 -11 -9 5
-25 -28 -70 -39 -53 -4 7 -2 12 3 12 6 0 11 7 11 15 0 12 -3 12 -17 -2 -16
-16 -16 -20 -3 -34 8 -8 18 -11 21 -6 4 5 9 5 12 1 3 -5 -1 -15 -8 -21 -11
-10 -15 -9 -20 7 -4 11 -11 20 -16 20 -6 0 -5 -8 1 -21 7 -11 9 -23 6 -27 -3
-3 -6 0 -6 7 0 7 -4 10 -9 7 -4 -3 -7 6 -5 19 1 14 -2 27 -7 31 -5 3 -9 0 -9
-5 0 -6 -5 -11 -11 -11 -5 0 -8 4 -5 9 3 4 -1 17 -9 27 -9 12 -14 14 -15 6 0
-10 -4 -9 -16 3 -15 15 -18 15 -38 -4 -14 -14 -26 -17 -36 -11 -8 5 -18 6 -24
3 -5 -3 -6 -1 -2 6 4 6 12 9 17 5 5 -3 16 0 24 6 8 7 15 9 15 5 0 -4 6 -2 13
4 8 6 17 8 20 4 4 -3 7 -1 7 5 0 12 -38 27 -47 18 -4 -3 1 -6 11 -6 9 0 14 -5
11 -10 -4 -6 -10 -8 -14 -6 -4 3 -13 1 -21 -4 -9 -5 -20 -4 -28 2 -10 9 -12 8
-10 -3 2 -10 -7 -14 -33 -14 -20 0 -36 -5 -36 -11 0 -7 6 -10 14 -7 18 7 17
-12 -2 -27 -8 -7 -13 -16 -10 -20 3 -5 2 -11 -3 -14 -4 -2 -9 4 -9 15 -1 10 3
19 8 19 6 0 7 5 4 10 -5 8 -11 7 -21 -1 -8 -6 -14 -8 -14 -3 0 5 -5 2 -10 -6
-7 -11 -10 -11 -10 -2 0 7 -4 11 -9 8 -10 -7 -24 22 -16 34 3 5 1 11 -4 14 -5
4 -13 1 -17 -5 -5 -8 -3 -9 6 -4 8 5 11 4 6 -3 -4 -6 -14 -8 -23 -5 -11 4 -14
3 -9 -5 4 -7 3 -12 -2 -12 -5 0 -9 23 -8 50 1 28 -2 50 -6 50 -5 0 -8 5 -8 11
0 5 6 7 13 3 7 -5 6 0 -3 11 -8 11 -10 16 -3 11 9 -5 11 -2 7 8 -3 9 -9 14
-13 12 -4 -3 -7 4 -8 14 -1 11 2 22 8 25 12 8 12 25 -2 25 -5 0 -8 -4 -5 -9 4
-5 -7 -12 -24 -16 -18 -4 -27 -11 -24 -17 4 -7 2 -8 -5 -4 -14 9 -5 26 14 26
13 0 29 29 20 38 -3 3 -5 0 -5 -7 0 -7 -5 -9 -12 -5 -7 4 -8 3 -4 -4 5 -8 2
-10 -9 -6 -13 5 -13 9 -3 23 11 14 11 14 -3 4 -9 -7 -19 -10 -22 -6 -4 3 -7 1
-7 -5 0 -5 6 -12 13 -15 6 -2 9 -8 5 -12 -4 -4 -14 -2 -23 5 -8 7 -15 11 -16
9 -7 -37 -7 -40 6 -29 10 8 15 8 21 -1 4 -8 3 -9 -5 -5 -6 4 -14 1 -17 -8 -3
-8 -11 -13 -19 -10 -8 4 -11 -3 -10 -20 2 -15 -1 -24 -6 -20 -5 3 -6 10 -3 16
4 7 0 7 -12 0 -11 -5 -24 -7 -31 -5 -6 2 -14 -1 -18 -7 -4 -7 2 -9 19 -6 15 3
30 -2 38 -12 8 -10 9 -13 1 -9 -6 4 -14 3 -18 -3 -3 -5 -1 -10 5 -10 7 0 10
-6 8 -12 -3 -7 -11 -13 -19 -13 -8 0 -14 -4 -14 -10 0 -5 -6 -19 -12 -30 -11
-19 -12 -19 -10 5 0 14 6 28 11 32 6 4 1 6 -10 6 -17 -2 -21 -8 -19 -34 1 -28
-1 -31 -16 -24 -9 5 -19 6 -23 3 -3 -3 -6 -1 -6 5 0 7 -3 11 -7 11 -27 -4 -33
2 -23 22 9 15 8 24 -1 35 -9 11 -9 14 1 14 8 0 10 3 6 7 -11 11 -40 10 -48 -1
-4 -6 -16 -6 -31 1 -22 10 -24 10 -19 -9 2 -11 8 -15 11 -10 4 7 15 4 28 -6
17 -13 20 -20 12 -32 -9 -13 -10 -12 -5 3 8 24 -10 21 -28 -5 -9 -12 -16 -18
-16 -14 0 5 7 18 17 28 9 10 11 18 5 18 -6 0 -14 -5 -17 -10 -4 -6 -11 -7 -17
-4 -7 5 -9 2 -6 -7 4 -10 -1 -15 -14 -16 -20 -2 -20 -1 -1 45 3 6 -1 12 -8 12
-7 0 -9 -3 -6 -7 4 -3 0 -14 -8 -23 -9 -10 -15 -23 -13 -31 2 -7 -5 -14 -15
-15 -12 -1 -12 0 -2 3 12 3 13 9 4 25 -9 16 -8 19 2 13 8 -5 10 -4 5 3 -4 7
-2 12 3 12 6 0 11 4 11 8 0 5 -7 9 -15 9 -8 0 -12 -4 -9 -9 3 -4 1 -8 -4 -8
-6 0 -13 -7 -16 -16 -3 -8 -2 -12 4 -9 6 3 10 2 10 -3 0 -5 -11 -9 -25 -9 -14
0 -25 4 -25 9 0 5 4 7 9 4 5 -4 4 5 -2 19 -8 16 -13 20 -15 10 -3 -15 -32 -9
-32 7 0 5 4 7 9 4 5 -3 11 0 14 7 3 7 -3 13 -12 13 -12 0 -17 -9 -17 -27 0
-20 4 -26 15 -22 14 4 14 3 1 -7 -13 -10 -13 -11 3 -6 9 3 17 1 17 -4 0 -6 -7
-10 -15 -10 -8 0 -15 -4 -15 -10 0 -5 -5 -10 -11 -10 -8 0 -8 4 0 14 7 9 8 17
3 20 -6 3 -12 -1 -16 -9 -3 -8 -11 -15 -18 -15 -11 0 -11 2 0 8 10 7 8 12 -5
25 -18 15 -22 17 -43 17 -5 0 -9 3 -9 8 3 19 -2 33 -11 27 -5 -3 -10 0 -10 7
0 10 -2 10 -9 -1 -5 -8 -11 -9 -15 -3 -4 6 2 15 11 21 10 6 13 11 7 11 -6 0
-17 -7 -24 -15 -11 -14 -15 -14 -34 2 -20 17 -20 17 -6 -1 14 -18 13 -19 -2
-13 -10 3 -22 -1 -30 -11 -11 -15 -11 -16 4 -4 13 10 17 10 21 0 4 -10 8 -10
16 2 12 17 14 10 5 -14 -5 -12 -10 -14 -19 -6 -9 8 -15 8 -20 0 -8 -14 -23
-13 -28 3 -2 6 -3 4 -2 -5 2 -9 -6 -26 -17 -37 -21 -23 -16 -44 7 -34 8 3 15
1 15 -4 0 -12 -31 -13 -45 -2 -6 4 -17 3 -25 -3 -12 -8 -12 -9 2 -4 17 5 31
-7 34 -31 1 -7 -2 -13 -7 -13 -6 0 -7 -6 -3 -12 4 -7 -1 -5 -12 4 -20 17 -52
10 -40 -10 3 -5 -1 -13 -10 -16 -8 -3 -13 -10 -10 -14 3 -5 -2 -18 -10 -28 -9
-10 -13 -13 -9 -6 12 24 15 62 5 62 -6 0 -8 -4 -5 -10 3 -5 2 -10 -4 -10 -6 0
-8 -7 -4 -16 5 -14 3 -15 -14 -5 -21 11 -40 -9 -28 -29 9 -15 -25 -34 -38 -21
-9 10 -8 11 4 6 24 -9 30 7 12 30 -15 20 -15 19 -8 -3 5 -16 3 -22 -7 -20 -8
2 -12 -4 -10 -16 2 -12 -1 -16 -9 -10 -9 5 -10 2 -6 -10 5 -11 3 -15 -5 -10
-7 5 -9 2 -5 -8 3 -9 0 -21 -6 -27 -15 -15 -30 -14 -21 2 4 7 3 9 -2 4 -5 -5
-9 -20 -9 -35 -1 -14 -7 -28 -14 -30 -9 -3 -11 0 -6 9 5 8 4 11 0 6 -5 -4 -9
-20 -9 -35 -1 -15 -11 -39 -24 -52 -20 -22 -22 -22 -17 -5 6 18 5 18 -5 2 -6
-9 -8 -22 -5 -27 3 -6 -1 -10 -10 -10 -9 0 -14 -4 -11 -9 3 -5 -1 -12 -10 -15
-9 -4 -14 -13 -10 -21 3 -9 0 -15 -9 -15 -14 0 -19 -14 -18 -47 1 -7 -3 -11
-7 -8 -5 3 -11 1 -15 -5 -4 -6 -12 -7 -18 -3 -7 4 -5 -2 3 -12 9 -11 10 -16 3
-11 -12 7 -17 -6 -16 -41 1 -7 -3 -10 -8 -7 -5 3 -9 0 -9 -6 0 -6 -4 -9 -9 -6
-4 3 -6 -6 -3 -19 2 -15 0 -25 -7 -25 -7 0 -9 5 -5 13 6 9 4 9 -8 -1 -9 -7
-15 -24 -13 -37 1 -15 -2 -22 -8 -18 -7 4 -8 0 -3 -12 5 -15 4 -16 -9 -5 -13
11 -14 10 -9 -6 4 -10 3 -16 -1 -12 -5 5 -13 -2 -20 -15 -6 -12 -19 -21 -28
-21 -9 1 -14 -2 -11 -7 3 -5 0 -9 -6 -9 -6 0 -8 -5 -5 -10 4 -6 11 -7 17 -4 7
4 8 2 4 -4 -4 -6 -14 -8 -23 -5 -11 4 -14 3 -9 -6 4 -6 0 -23 -8 -36 -9 -14
-13 -25 -10 -25 4 0 0 -8 -8 -17 -9 -10 -14 -26 -13 -36 2 -9 -1 -15 -6 -11
-5 3 -7 9 -5 13 3 4 -1 8 -9 8 -11 0 -9 -7 6 -29 22 -31 19 -37 -5 -12 -11 10
-16 11 -16 3 0 -6 8 -18 18 -25 15 -12 14 -13 -13 -10 -16 2 -25 2 -20 -1 6
-2 16 -13 24 -24 9 -16 10 -19 0 -13 -8 5 -11 2 -6 -8 6 -17 -18 -58 -34 -58
-5 0 0 9 11 20 12 12 18 26 13 33 -5 9 -8 7 -11 -5 -4 -19 -29 -31 -37 -17 -4
5 -3 8 2 7 4 -2 8 1 8 5 0 5 11 14 24 21 20 11 21 14 7 19 -10 4 -15 3 -11 -2
6 -11 -22 -8 -32 4 -4 4 -2 5 5 1 7 -5 12 -1 12 9 0 12 -5 15 -16 11 -14 -5
-15 -4 -5 8 7 8 9 21 5 27 -4 8 -3 9 4 5 8 -5 10 -2 6 8 -3 9 -10 13 -15 10
-5 -3 -6 2 -3 10 3 9 9 14 13 11 4 -2 8 2 8 10 0 8 -4 12 -9 9 -4 -3 -9 0 -9
5 -1 6 -2 15 -3 21 0 5 -7 15 -13 21 -10 10 -9 17 5 33 14 17 15 19 1 14 -12
-5 -15 -1 -11 18 2 13 9 24 15 24 6 0 7 3 4 6 -4 4 -14 1 -24 -7 -15 -13 -15
-12 -6 5 7 13 8 29 2 43 -6 17 -4 25 9 32 9 6 13 11 7 11 -5 0 -4 4 4 9 12 8
12 12 2 24 -7 9 -8 18 -2 21 5 3 8 19 7 35 -1 19 2 27 10 24 8 -3 11 6 9 26
-1 17 1 31 6 31 5 0 5 7 2 17 -4 10 -2 14 4 10 5 -3 10 0 10 8 0 8 -4 12 -9 9
-4 -3 -8 0 -8 5 0 6 7 11 15 11 9 0 12 6 9 15 -4 9 0 15 7 15 11 0 11 3 -1 10
-8 5 -10 10 -4 10 5 0 9 15 8 33 -2 17 6 46 16 64 14 24 15 30 4 26 -12 -4
-12 -1 1 23 7 15 12 31 9 36 -3 4 0 8 6 8 7 0 10 7 6 15 -3 8 0 15 7 16 9 0 9
2 0 6 -7 2 -13 9 -13 14 0 6 6 7 13 3 7 -5 6 0 -3 11 -8 10 -10 16 -4 12 7 -4
15 0 18 9 3 8 2 13 -2 10 -4 -2 -8 4 -8 14 0 15 3 17 15 7 11 -9 13 -9 8 0 -4
6 -3 14 3 18 6 4 7 13 1 23 -9 19 -4 45 9 37 4 -3 6 3 3 14 -3 10 0 22 7 26 8
5 8 10 0 20 -10 11 -8 13 9 10 12 -2 19 0 16 5 -3 5 -1 19 6 31 9 17 8 20 -3
13 -10 -6 -11 -5 -1 8 7 8 9 19 5 23 -4 5 -1 5 5 1 7 -4 21 -2 30 4 16 10 16
11 -2 5 -15 -5 -17 -3 -8 6 6 6 9 18 6 27 -4 10 -2 13 5 8 7 -4 12 -2 12 4 0
6 5 8 13 4 8 -5 8 -2 -2 9 -12 15 -11 17 3 17 11 0 16 9 16 28 0 21 2 24 10
12 5 -8 10 -13 11 -10 0 3 2 15 3 28 2 12 9 28 16 35 10 10 10 7 1 -13 -12
-24 -11 -24 4 -5 9 11 14 28 11 38 -2 9 0 15 4 12 5 -3 11 -1 15 5 3 5 1 10
-5 10 -6 0 -8 5 -5 10 4 6 12 7 18 3 7 -4 6 1 -2 10 -12 16 -12 17 5 10 17 -6
18 -5 4 12 -9 11 -10 16 -2 11 6 -4 12 -2 12 4 0 6 9 20 20 32 24 26 27 46 3
27 -15 -13 -15 -12 -3 8 8 12 19 21 24 20 6 -1 10 4 8 11 -1 7 5 12 15 10 13
-2 18 3 17 20 -1 13 4 22 13 22 9 0 13 6 10 14 -6 16 17 41 31 32 5 -3 8 5 8
17 -1 17 4 21 19 19 11 -2 17 -1 13 4 -4 4 0 13 10 21 9 8 11 12 5 8 -7 -3
-13 -1 -13 6 0 7 8 9 21 6 20 -5 20 -5 2 15 -10 12 -12 18 -5 14 7 -4 19 -2
27 4 18 15 20 34 3 24 -6 -4 -8 -3 -4 4 3 6 15 9 26 7 23 -4 38 13 34 40 -3
20 -3 20 12 1 16 -22 19 -14 5 13 -7 13 -6 18 4 18 8 0 12 -4 9 -8 -2 -4 1
-11 7 -15 8 -4 9 -3 5 4 -4 8 0 12 11 12 12 1 9 5 -12 16 -16 8 -22 12 -13 10
19 -6 43 26 30 39 -4 3 -2 6 3 5 30 -6 38 1 19 16 -18 15 -18 15 3 5 28 -14
30 -14 30 4 0 9 -6 14 -14 11 -8 -3 -12 -2 -9 3 10 16 58 10 52 -6 -4 -9 -1
-13 6 -10 7 2 12 9 11 14 -1 5 4 10 12 10 9 0 6 -10 -11 -32 -19 -25 -21 -34
-11 -44 10 -11 9 -13 -3 -9 -8 3 -15 12 -15 21 0 9 -5 16 -10 14 -12 -3 -8
-17 10 -36 14 -14 39 -6 30 10 -4 5 1 19 9 31 12 17 16 19 16 6 0 -9 -5 -18
-12 -20 -8 -3 -8 -9 1 -24 11 -16 12 -16 7 -1 -7 22 22 20 42 -3 11 -13 11
-11 2 8 -10 20 -7 26 12 23 4 0 5 5 2 13 -3 8 0 17 7 22 8 5 10 3 4 -6 -6 -9
-4 -11 5 -5 10 6 12 4 7 -9 -4 -11 -3 -15 4 -11 6 4 8 14 5 22 -10 26 12 45
38 31 20 -11 20 -10 6 8 -15 18 -14 18 11 2 24 -15 29 -15 45 -2 18 14 18 15
-3 5 -23 -12 -43 12 -21 25 7 4 8 3 4 -4 -4 -7 -1 -12 9 -12 11 0 15 5 11 16
-4 10 -2 13 7 7 6 -4 21 -7 32 -5 19 2 19 1 1 -6 -19 -8 -19 -9 2 -14 16 -5
22 -2 22 10 0 13 2 13 13 -2 13 -17 14 -17 31 -1 9 10 14 20 11 24 -4 3 -13
-3 -21 -13 -8 -11 -14 -15 -14 -9 0 6 6 15 13 20 12 10 21 12 80 16 25 2 32 6
32 24 0 11 4 25 9 30 5 4 6 3 2 -4 -4 -7 -3 -13 2 -13 6 0 12 7 16 15 3 8 0
15 -6 15 -6 0 -9 3 -6 6 7 7 46 -13 66 -33 15 -14 32 -9 32 10 0 8 -3 8 -9 -1
-6 -11 -10 -10 -15 4 -3 9 -4 19 -1 22 3 3 5 0 5 -7 0 -7 5 -9 13 -4 6 4 21 9
31 10 11 2 25 8 32 14 7 6 19 7 25 3 8 -5 10 -2 7 8 -4 8 0 15 8 15 7 0 11 -4
8 -9 -3 -4 0 -8 7 -8 6 0 9 8 6 20 -3 11 -1 18 4 15 13 -9 50 14 43 26 -4 6 4
5 17 -2 23 -12 23 -11 9 6 -14 17 -13 18 5 12 18 -6 18 -6 4 6 -14 10 -14 14
-3 25 19 17 29 15 14 -3 -9 -10 -9 -15 -1 -15 6 0 12 5 12 10 1 6 2 14 3 19 2
19 16 24 31 11 12 -10 20 -9 41 5 15 9 24 13 21 8 -11 -17 22 -48 36 -33 7 8
8 10 1 7 -7 -4 -15 0 -18 8 -4 13 -2 14 14 5 23 -12 25 -21 8 -39 -11 -10 -9
-11 5 -5 13 5 17 14 14 31 -3 19 -2 21 10 12 11 -9 17 -9 26 1 10 10 9 11 -3
5 -12 -7 -13 -6 -3 7 7 8 9 19 5 23 -4 5 -1 5 6 1 6 -4 12 -2 12 3 0 6 2 11 4
11 3 0 4 -9 3 -19z m-1506 -95 c-8 -10 -9 -16 -1 -21 5 -3 10 0 10 7 0 10 3 9
10 -2 10 -16 -6 -43 -21 -34 -5 3 -9 -4 -9 -15 0 -12 -4 -21 -9 -21 -6 0 -8 8
-6 18 2 10 -1 25 -7 33 -8 11 -9 11 -4 -3 3 -10 1 -20 -4 -23 -5 -3 -7 -15 -5
-26 3 -15 0 -19 -11 -15 -12 4 -12 2 -4 -15 13 -24 30 -16 25 11 -3 17 -1 19
17 9 16 -9 19 -8 13 2 -6 8 -4 10 5 4 8 -5 11 -4 6 3 -3 6 5 22 19 36 26 26
41 34 31 17 -3 -5 1 -11 9 -15 8 -3 15 0 15 6 0 6 3 9 6 5 13 -13 -7 -27 -26
-17 -11 6 -21 6 -25 1 -3 -5 4 -12 15 -16 11 -3 20 -11 20 -18 0 -8 -3 -8 -12
1 -19 19 -32 14 -17 -5 7 -10 10 -15 5 -11 -4 3 -16 -2 -27 -13 -11 -11 -25
-16 -36 -12 -16 6 -17 5 -3 -12 9 -11 10 -16 3 -11 -8 4 -13 1 -13 -9 0 -9 5
-13 10 -10 6 3 10 1 10 -5 0 -7 -8 -9 -20 -5 -15 5 -18 3 -14 -9 3 -9 1 -16
-6 -16 -6 0 -8 -6 -4 -12 6 -10 4 -10 -7 0 -7 6 -17 12 -22 12 -6 0 -5 -5 0
-12 13 -16 13 -48 1 -48 -5 0 -6 10 -3 23 4 15 3 18 -3 8 -7 -9 -12 -10 -16
-2 -4 6 -2 11 4 11 6 0 9 4 5 9 -7 12 30 33 40 23 3 -4 5 -2 4 3 -2 6 2 19 8
31 11 19 10 21 -12 18 -14 -1 -27 2 -31 7 -3 5 0 9 5 9 6 0 11 5 11 10 0 6 -8
5 -20 -2 -14 -9 -16 -14 -7 -20 9 -6 9 -8 -1 -8 -7 0 -10 -5 -6 -12 5 -7 3 -8
-6 -3 -8 5 -11 4 -7 -2 4 -6 -1 -17 -10 -24 -9 -8 -14 -9 -11 -4 4 6 -6 11
-23 11 -27 2 -28 1 -12 -13 10 -8 12 -11 5 -8 -11 6 -12 3 -3 -12 6 -11 7 -23
4 -27 -3 -3 -2 -6 4 -6 6 0 13 8 15 18 3 10 13 19 22 19 9 0 15 -5 13 -11 -3
-6 0 -19 5 -28 6 -12 5 -18 -2 -18 -6 0 -9 -4 -5 -9 3 -5 0 -13 -6 -17 -8 -4
-9 -3 -5 4 5 8 2 10 -8 6 -9 -3 -16 -1 -16 5 0 6 7 11 15 11 18 0 19 9 4 30
-9 13 -10 13 -6 -2 7 -20 -16 -31 -32 -15 -10 9 -12 9 -9 -3 2 -9 -3 -14 -12
-12 -12 3 -13 1 -2 -10 11 -11 14 -10 22 2 11 17 13 9 4 -14 -3 -9 -11 -13
-18 -9 -7 4 -6 1 2 -9 10 -13 9 -18 -4 -29 -13 -11 -17 -10 -25 2 -7 12 -9 12
-9 0 0 -8 -3 -11 -7 -8 -3 4 4 18 17 32 23 25 16 37 -8 13 -9 -9 -12 -9 -12 0
0 7 5 12 10 12 6 0 10 7 10 15 0 8 5 15 10 15 7 0 7 6 0 20 -10 18 -7 24 12
21 4 0 5 6 1 15 -5 13 -7 13 -23 -1 -14 -13 -17 -13 -17 0 0 8 4 12 8 10 3 -3
13 3 20 12 12 15 12 16 -4 10 -12 -5 -16 -3 -11 5 5 8 1 9 -12 5 -18 -7 -18
-7 0 8 11 8 24 15 29 15 4 0 5 5 2 10 -5 8 -12 7 -23 -1 -10 -7 -3 1 13 17 26
25 54 27 39 2 -6 -9 10 -11 19 -2 13 13 -15 52 -34 47 -10 -3 -19 0 -19 6 0 5
8 8 18 5 15 -5 15 -4 -2 10 -18 14 -18 15 2 13 11 0 20 -4 20 -7 -1 -3 2 -13
6 -22 7 -16 10 -16 29 -3 22 15 63 3 52 -16 -4 -5 0 -9 8 -9 7 0 14 7 14 15 0
8 -4 15 -9 15 -4 0 -8 5 -8 11 0 5 5 7 11 3 7 -4 10 -1 7 7 -3 8 -12 13 -19
11 -8 -2 -10 0 -6 4 15 15 37 12 50 -7 8 -10 17 -16 20 -12 4 3 -1 15 -10 26
-10 11 -12 17 -5 13 6 -4 12 -2 12 3 0 6 5 11 11 11 8 0 8 -4 0 -14z m904
-2476 c3 -6 -1 -7 -9 -4 -9 4 -18 -1 -22 -10 -3 -9 -10 -13 -15 -10 -5 3 -9
-2 -9 -11 0 -9 5 -13 11 -9 8 5 8 1 0 -14 -13 -25 -14 -35 -3 -28 5 3 9 -1 9
-9 0 -8 -5 -11 -11 -7 -16 10 -67 11 -60 1 3 -5 12 -9 20 -9 8 0 14 -4 14 -10
0 -5 -6 -10 -14 -10 -8 0 -18 -5 -22 -11 -4 -8 1 -9 17 -4 21 7 22 6 11 -8 -9
-10 -10 -17 -2 -22 5 -3 10 -14 10 -23 -1 -16 -1 -16 -11 1 -5 9 -15 17 -22
17 -9 0 -9 -2 -1 -8 6 -4 10 -18 8 -32 -4 -36 -4 -36 -13 -21 -7 10 -13 11
-27 2 -18 -10 -8 -16 18 -12 4 0 7 -8 5 -18 -1 -11 2 -20 7 -19 5 0 13 -7 18
-16 5 -8 16 -13 26 -10 15 5 15 4 -1 -6 -17 -11 -17 -13 -1 -38 l17 -27 -21
19 c-12 11 -22 14 -22 8 0 -6 10 -18 23 -27 15 -12 18 -19 9 -22 -6 -3 -10 -9
-7 -14 4 -5 -2 -6 -11 -2 -11 4 -15 3 -10 -5 8 -14 -10 -25 -26 -16 -19 12
-68 12 -68 1 0 -6 -2 -8 -5 -5 -10 9 5 35 20 35 8 0 15 -4 15 -9 0 -4 4 -8 8
-8 5 0 9 7 9 15 0 8 -5 11 -10 8 -6 -4 -7 -1 -1 8 13 22 14 40 1 32 -7 -4 -6
1 2 11 10 12 17 14 25 6 8 -8 7 -13 -4 -20 -8 -5 -13 -10 -10 -11 3 0 12 -2
21 -4 11 -2 16 5 16 26 0 15 -3 28 -6 27 -19 -2 -31 3 -31 13 0 8 4 8 14 0 10
-8 16 -9 21 -1 4 6 1 9 -6 8 -7 -2 -17 7 -24 19 -10 20 -12 20 -23 5 -11 -15
-12 -14 -7 5 3 12 1 24 -4 28 -7 4 -8 -1 -4 -11 5 -12 3 -15 -6 -9 -10 6 -11
3 -2 -13 7 -13 17 -19 26 -16 10 4 13 2 10 -8 -3 -7 -15 -14 -25 -15 -11 -1
-18 2 -15 7 3 4 -2 10 -10 14 -8 3 -17 0 -21 -6 -4 -7 -3 -8 4 -4 7 4 12 5 12
2 0 -2 3 -13 7 -23 6 -16 5 -16 -10 -5 -14 12 -16 11 -12 -8 3 -16 0 -20 -10
-16 -9 3 -12 0 -8 -10 4 -11 9 -12 19 -3 9 7 14 8 14 1 0 -6 -13 -22 -30 -35
-36 -31 -37 -38 -7 -56 21 -13 21 -13 5 6 -17 18 -17 20 1 35 23 20 34 12 20
-14 -13 -24 8 -55 25 -38 15 15 30 12 17 -3 -6 -8 -8 -17 -4 -21 4 -4 0 -4 -9
-1 -10 4 -23 -4 -38 -22 -23 -30 -38 -35 -58 -20 -9 7 -11 5 -5 -8 5 -14 3
-17 -8 -13 -8 3 -23 0 -34 -8 -26 -19 -44 -18 -19 1 14 11 15 14 2 9 -13 -4
-16 0 -14 20 3 20 0 24 -9 16 -9 -7 -16 -6 -24 4 -9 10 -8 16 4 26 14 11 19 7
16 -12 0 -4 7 -4 16 -1 12 5 15 2 10 -10 -7 -18 2 -26 32 -32 14 -3 18 1 14
11 -6 17 8 18 26 2 11 -11 12 -10 6 2 -8 13 -7 13 8 1 11 -9 17 -10 17 -2 0 6
-4 11 -9 11 -5 0 -8 8 -6 18 2 9 4 19 4 21 1 3 7 -3 14 -13 12 -16 14 -16 14
-2 0 16 -9 20 -35 17 -7 -1 -12 2 -11 6 5 27 -2 34 -16 19 -9 -8 -14 -20 -13
-27 2 -6 -2 -13 -9 -16 -8 -3 -10 6 -8 29 3 18 1 28 -3 22 -11 -17 -35 -22
-54 -12 -14 7 -16 5 -12 -7 8 -20 -40 -13 -66 10 -9 8 -21 15 -26 15 -4 0 2
-7 14 -16 21 -15 21 -16 5 -39 -10 -14 -23 -25 -30 -25 -11 0 -29 37 -25 52 2
7 -15 5 -39 -6 -11 -5 -15 -18 -14 -41 1 -19 -3 -31 -7 -28 -5 3 -7 11 -4 19
3 8 1 14 -4 14 -5 0 -7 7 -4 15 4 8 1 15 -5 15 -6 0 -11 5 -11 11 0 6 7 9 14
6 11 -4 13 -1 9 11 -6 15 -5 16 13 2 17 -14 18 -14 6 2 -11 14 -10 18 5 27 10
6 12 11 5 11 -6 0 -22 -11 -34 -25 -23 -26 -38 -32 -38 -14 0 5 5 7 12 3 8 -5
9 -2 5 10 -4 9 -3 15 2 12 4 -3 17 3 27 13 11 9 25 16 32 13 7 -2 10 2 6 11
-3 8 0 18 7 23 8 4 10 3 5 -4 -4 -7 -3 -12 1 -12 5 0 14 9 21 21 11 17 16 18
28 8 12 -10 13 -9 7 7 -6 16 -5 17 9 6 13 -10 18 -10 24 -1 4 7 3 9 -4 6 -6
-5 -8 1 -4 15 l5 22 10 -21 c10 -23 48 -28 40 -6 -3 8 7 17 26 24 19 7 28 15
24 22 -5 9 -3 9 8 1 16 -13 51 -15 43 -2 -3 5 -11 5 -17 1 -7 -4 -7 -1 1 9 13
17 42 14 42 -3 0 -5 5 -9 11 -9 8 0 8 4 2 13 -14 18 -10 42 8 41 8 -1 16 8 16
19 3 28 32 57 51 49 15 -5 15 -4 3 11 -14 17 -12 19 24 21 16 1 19 7 17 29 -1
15 2 27 8 27 6 0 9 4 6 9 -3 5 1 14 9 21 8 7 12 16 9 21 -3 5 2 6 11 3 10 -4
15 -2 13 7 -2 8 4 13 14 11 9 -1 19 2 23 8 8 13 22 13 30 0z m2465 -3682 c0
-5 -12 -6 -27 -2 l-28 6 25 -21 c18 -14 27 -16 33 -8 5 7 5 2 2 -12 -5 -16 -4
-21 4 -17 6 4 11 2 11 -4 0 -7 -7 -10 -15 -6 -9 3 -15 0 -15 -8 0 -9 -7 -12
-19 -9 -10 3 -21 1 -24 -4 -3 -5 3 -9 13 -9 11 1 19 -3 19 -9 1 -5 -6 -10 -13
-10 -21 0 -29 -12 -8 -12 23 0 43 17 35 30 -3 5 -1 7 5 3 5 -3 12 0 15 6 3 7
4 3 4 -9 -1 -12 -5 -19 -9 -17 -4 3 -8 2 -9 -3 0 -4 -2 -19 -4 -33 -1 -14 6
-37 17 -52 16 -23 17 -28 5 -28 -9 0 -17 3 -20 8 -2 4 -2 2 -1 -5 2 -7 -1 -15
-6 -18 -6 -4 -10 -2 -10 3 0 5 -11 15 -25 22 -13 7 -23 16 -20 19 2 4 -5 7
-15 8 -11 1 -22 -2 -25 -8 -3 -5 1 -6 10 -3 11 4 14 2 9 -9 -3 -8 -1 -18 5
-22 7 -4 8 0 4 11 -6 15 -1 14 25 -5 18 -12 32 -28 32 -34 0 -7 5 -4 11 6 5 9
15 17 20 17 6 0 7 -6 2 -12 -4 -7 -8 -16 -9 -20 -1 -5 -2 -11 -3 -15 0 -3 -10
2 -21 12 -11 10 -20 15 -20 11 0 -4 -15 3 -32 16 -18 13 -35 23 -38 23 -6 0
-12 25 -12 53 0 22 -9 28 -22 15 -20 -20 -44 2 -26 25 2 1 4 11 5 22 1 11 4
22 5 25 1 3 3 10 4 17 0 7 15 13 32 13 18 0 39 6 47 13 13 11 16 10 21 -6 7
-21 33 -25 40 -6 3 8 -2 10 -16 6 -17 -4 -20 -2 -15 12 5 11 3 15 -5 10 -6 -4
-8 -3 -4 4 3 6 2 14 -4 17 -6 4 -9 1 -8 -7 2 -7 -3 -12 -10 -10 -7 1 -15 -5
-18 -13 -8 -19 -21 -19 -21 0 0 8 9 17 19 21 10 3 18 9 18 14 0 4 18 7 40 7
22 0 40 -5 40 -9z"/>
<path d="M6802 1606 c10 -11 -39 -49 -52 -41 -6 4 -7 11 -4 17 4 6 1 9 -7 6
-8 -3 -13 -11 -12 -19 3 -14 -44 -42 -57 -34 -3 2 -6 -17 -5 -43 3 -65 3 -66
20 -52 8 6 20 8 27 4 20 -12 52 -12 60 0 12 17 10 23 -7 23 -10 0 -14 -6 -10
-16 3 -11 0 -10 -10 3 -14 18 -20 15 -16 -7 1 -5 -4 -5 -10 -2 -8 5 -8 10 0
18 18 18 12 31 -7 14 -12 -11 -22 -13 -32 -7 -13 9 -13 10 0 10 13 0 13 1 0
10 -11 7 -11 10 -2 10 7 0 11 4 7 9 -3 5 0 13 6 17 7 4 9 3 6 -3 -3 -5 0 -10
8 -10 11 0 12 4 4 13 -8 10 -6 12 10 9 14 -2 19 0 15 7 -5 7 -2 8 6 3 9 -6 11
-4 5 4 -6 10 -3 11 12 2 11 -6 24 -7 28 -3 5 4 5 1 0 -7 -5 -9 -4 -12 2 -8 5
3 10 0 10 -8 0 -8 -5 -11 -11 -8 -7 5 -7 2 0 -8 6 -8 10 -22 9 -32 -2 -10 1
-15 8 -11 7 3 4 -1 -5 -9 -10 -8 -15 -17 -11 -20 9 -9 33 -9 32 1 -3 18 2 35
8 29 3 -4 12 -2 19 4 13 10 32 -6 20 -18 -3 -3 -1 -12 4 -18 7 -9 5 -17 -7
-26 -16 -13 -17 -12 -4 4 8 10 9 17 3 17 -18 0 -25 -21 -12 -33 9 -9 16 -6 31
12 24 29 24 42 2 35 -15 -5 -16 -4 -3 5 13 10 13 12 0 21 -11 7 -11 10 -2 10
7 0 0 12 -15 26 -15 14 -22 23 -15 19 7 -4 11 -1 10 7 -2 7 4 11 12 9 8 -2 21
-4 28 -5 8 -1 18 -9 22 -17 8 -11 12 -10 25 6 12 16 14 17 9 3 -3 -10 -1 -18
5 -18 6 0 10 3 10 8 -4 26 2 36 12 19 10 -17 29 -15 29 4 0 6 -4 8 -9 4 -5 -3
-13 -1 -16 5 -5 8 -15 6 -31 -5 -21 -14 -27 -14 -44 -2 -11 8 -17 17 -12 21 4
4 3 6 -3 5 -5 -2 -21 3 -34 10 -14 8 -21 9 -17 2 4 -6 2 -11 -4 -11 -6 0 -9
-4 -6 -9 3 -4 -4 -17 -17 -27 -21 -19 -21 -19 -7 0 12 16 12 18 1 11 -10 -6
-12 -4 -6 5 5 8 4 11 -2 7 -5 -3 -10 0 -10 8 0 7 8 12 19 10 23 -5 23 9 1 26
-10 7 -15 10 -11 5z"/>
<path d="M6996 1573 c-3 -4 -6 -11 -6 -16 0 -6 3 -7 7 -4 9 10 33 -13 33 -32
0 -14 -2 -14 -10 -1 -9 14 -15 6 -10 -15 1 -5 -8 -1 -20 10 -16 14 -21 15 -18
5 2 -9 -4 -14 -14 -14 -10 1 -15 -2 -12 -7 3 -5 0 -9 -7 -9 -8 0 -9 -3 0 -13
6 -8 7 -17 3 -21 -4 -5 1 -6 10 -4 9 1 17 -1 18 -7 1 -5 8 -14 16 -18 8 -5 12
-12 9 -17 -3 -4 2 -10 10 -14 8 -3 15 -11 15 -18 0 -9 -3 -9 -10 2 -9 13 -11
13 -20 0 -8 -12 -10 -12 -10 -1 0 11 -5 10 -20 -4 -21 -19 -19 -35 2 -18 7 5
27 9 45 8 l32 -2 -16 30 c-14 29 -14 32 3 47 11 9 20 22 22 30 2 10 0 11 -11
2 -11 -9 -13 -8 -12 8 1 11 9 26 17 33 15 11 14 15 -12 39 -15 15 -30 24 -34
21z"/>
<path d="M7300 1355 c-7 -8 -16 -13 -19 -10 -4 2 -8 -1 -9 -8 0 -7 -3 -21 -6
-32 -2 -11 -5 -23 -5 -27 -1 -4 -15 -15 -31 -23 -30 -16 -56 -12 -45 6 10 14
-9 11 -31 -7 -13 -10 -14 -14 -4 -11 9 3 38 -10 65 -29 32 -21 53 -30 61 -23
6 5 15 5 20 1 5 -4 -2 6 -16 21 -24 28 -25 29 -5 40 24 14 55 17 55 6 0 -5 -7
-9 -17 -9 -9 0 -13 -3 -10 -7 4 -3 2 -12 -4 -19 -8 -10 -6 -12 10 -11 14 1 20
6 16 15 -3 8 0 10 8 5 18 -12 40 -10 58 5 15 11 19 10 31 -7 8 -12 18 -18 21
-14 8 7 -34 39 -47 35 -5 -2 -6 4 -3 12 4 10 -1 20 -13 26 -16 8 -18 8 -14 -5
3 -8 11 -12 17 -8 6 3 7 1 3 -5 -5 -8 -13 -9 -25 -2 -10 5 -21 6 -25 3 -3 -3
-7 -1 -7 5 -2 21 -4 27 -12 40 -5 6 -12 12 -17 12 -12 0 -5 -33 8 -38 7 -2 12
-9 12 -15 0 -8 -3 -8 -12 1 -8 8 -15 9 -25 1 -9 -8 -13 -8 -13 0 0 6 6 11 13
11 8 0 7 4 -3 10 -10 6 -11 10 -2 10 6 0 11 4 10 9 -2 5 6 16 17 24 11 9 17
18 14 21 -3 4 -12 0 -19 -9z"/>
<path d="M7451 1189 c-13 -10 -19 -19 -13 -19 13 0 6 -64 -8 -68 -6 -2 -8 -8
-5 -12 3 -5 1 -11 -5 -15 -5 -3 -10 -2 -10 3 0 13 -35 21 -51 11 -7 -4 -20 -4
-29 1 -9 5 -25 3 -40 -7 -17 -10 -19 -12 -5 -8 23 7 25 8 43 6 10 -1 10 -6 2
-21 -6 -11 -16 -18 -22 -14 -7 4 -6 9 3 15 8 5 9 9 3 9 -19 0 -24 -13 -11 -28
10 -13 9 -15 -6 -9 -10 4 -16 3 -12 -2 3 -5 -3 -12 -14 -16 -11 -3 -21 -14
-23 -23 -2 -12 -6 -13 -11 -5 -4 7 2 21 15 34 l23 21 -22 -11 c-13 -6 -24 -16
-24 -21 -1 -6 -3 -14 -4 -20 -1 -5 -3 -13 -4 -17 -1 -5 -5 -1 -11 7 -10 16
-50 -12 -50 -34 0 -6 7 -3 14 7 16 20 30 0 20 -28 -7 -19 -3 -19 30 -1 21 10
23 15 11 19 -8 4 -15 12 -15 19 0 9 3 9 10 -2 8 -12 10 -12 15 3 5 10 15 15
28 13 12 -3 25 -5 30 -5 4 -1 6 -6 5 -12 -2 -6 3 -14 10 -16 13 -5 12 30 -1
43 -12 13 -7 26 7 21 11 -4 13 -1 9 10 -4 10 -2 14 4 10 6 -4 16 0 23 8 10 12
16 13 29 3 14 -11 14 -11 3 4 -8 9 -20 14 -29 11 -13 -5 -13 -3 -2 15 10 15
16 18 21 9 4 -7 8 -8 8 -3 0 5 6 4 13 -2 8 -7 19 -5 36 9 13 10 20 19 17 19
-4 0 0 13 9 30 14 27 14 30 -3 39 -15 9 -15 11 7 19 14 5 20 11 15 14 -5 4
-20 -2 -33 -13z"/>
</g>
</svg>
