<?xml version="1.0" standalone="no"?>
<!DOCTYPE svg PUBLIC "-//W3C//DTD SVG 20010904//EN"
 "http://www.w3.org/TR/2001/REC-SVG-20010904/DTD/svg10.dtd">
<svg version="1.0" xmlns="http://www.w3.org/2000/svg"
 width="1024.000000pt" height="1024.000000pt" viewBox="0 0 1024.000000 1024.000000"
 preserveAspectRatio="xMidYMid meet">
<metadata>
Created by potrace 1.16, written by Peter Selinger 2001-2019
</metadata>
<g transform="translate(0.000000,1024.000000) scale(0.100000,-0.100000)"
fill="#000000" stroke="none">
<path d="M7880 10089 c0 -9 -7 -19 -14 -22 -10 -4 -13 -1 -10 7 3 7 -2 13 -10
13 -8 0 -13 -4 -10 -9 8 -13 -10 -10 -25 5 -11 10 -13 9 -8 -5 4 -10 2 -18 -3
-18 -6 0 -10 5 -10 11 0 5 -5 7 -11 4 -6 -4 -8 -13 -5 -21 7 -19 -10 -27 -32
-13 -12 7 -27 9 -38 4 -11 -5 -23 -9 -29 -10 -5 0 -9 -7 -7 -14 1 -7 -2 -10
-8 -6 -8 5 -8 11 0 20 8 9 6 14 -5 19 -21 8 -37 -33 -21 -54 9 -12 8 -13 -4
-4 -19 14 -51 14 -43 1 4 -6 0 -8 -10 -4 -18 7 -33 -8 -17 -18 5 -3 10 -11 10
-17 0 -6 -6 -5 -16 3 -18 15 -47 22 -39 9 3 -5 1 -11 -4 -15 -5 -3 -15 3 -21
12 -10 15 -11 15 -6 1 3 -9 -2 -19 -10 -22 -22 -9 -26 -7 -18 5 5 8 2 9 -12 1
-11 -6 -27 -7 -42 -1 -15 6 -21 5 -17 -1 3 -6 -5 -10 -18 -10 -14 0 -28 -7
-31 -16 -3 -8 -10 -12 -16 -9 -5 3 -10 1 -10 -5 0 -6 -5 -8 -11 -4 -8 4 -9 -1
-4 -17 7 -22 7 -22 -9 -6 -19 19 -31 23 -21 7 3 -5 -9 -8 -30 -6 -38 3 -54 -9
-50 -37 2 -9 -1 -15 -6 -11 -5 3 -21 -9 -35 -26 -26 -30 -27 -30 -47 -13 -19
18 -20 17 -8 -4 16 -31 14 -41 -4 -17 -13 18 -14 18 -15 1 0 -10 -5 -15 -10
-12 -6 4 -8 11 -5 16 3 5 -1 6 -9 3 -9 -3 -16 -10 -16 -16 0 -5 4 -7 8 -4 5 3
9 -1 9 -9 0 -8 -4 -12 -9 -9 -5 3 -15 0 -23 -6 -8 -7 -15 -9 -15 -5 0 4 -6 3
-12 -2 -7 -6 -22 -9 -33 -7 -11 1 -23 -2 -27 -9 -6 -9 -12 -9 -27 0 -17 10
-18 9 -14 -10 3 -16 2 -18 -5 -9 -5 8 -12 13 -16 13 -13 -1 -34 -26 -29 -34 3
-5 -9 -1 -26 7 -29 16 -43 3 -18 -15 5 -3 2 -9 -7 -12 -9 -4 -15 -3 -15 1 3
19 -2 29 -16 29 -10 0 -12 -4 -5 -12 16 -20 -1 -25 -26 -8 -13 8 -21 19 -18
24 3 5 0 8 -7 7 -7 -2 -13 2 -14 9 0 6 -4 15 -9 20 -5 4 -6 3 -2 -4 8 -14 -10
-27 -19 -13 -3 5 -11 10 -16 10 -6 0 -3 -7 5 -16 9 -8 16 -20 16 -27 0 -6 -6
-3 -13 8 -11 14 -16 15 -22 5 -6 -9 -4 -11 5 -5 9 5 11 4 6 -4 -6 -9 -11 -9
-22 0 -7 6 -11 16 -7 22 4 6 1 7 -7 2 -9 -6 -12 -4 -8 7 4 8 1 15 -7 15 -8 0
-11 -7 -7 -15 4 -11 2 -13 -9 -6 -19 12 -39 14 -39 4 0 -5 -10 -7 -21 -5 -12
3 -18 1 -15 -3 4 -4 13 -7 18 -7 6 0 13 -7 15 -15 4 -13 3 -13 -6 0 -6 8 -11
11 -11 7 0 -4 -10 -2 -22 4 -22 12 -22 11 -8 -6 14 -17 14 -18 -7 -6 -19 10
-23 9 -23 -4 0 -8 -5 -15 -11 -15 -5 0 -8 4 -5 8 3 5 -1 9 -9 9 -8 0 -13 -5
-12 -11 1 -6 -4 -10 -10 -9 -7 2 -13 -3 -13 -10 0 -7 -9 -14 -20 -15 -41 -3
-49 -5 -48 -11 2 -19 -3 -31 -13 -31 -6 0 -8 9 -4 23 6 21 5 21 -6 2 -18 -30
-19 -31 -30 -15 -8 12 -10 10 -6 -7 3 -13 1 -23 -4 -23 -5 0 -9 7 -9 15 0 13
-2 13 -14 3 -7 -7 -11 -20 -9 -28 4 -13 3 -13 -5 -1 -9 12 -13 12 -26 2 -10
-8 -16 -9 -16 -3 0 6 8 16 18 21 9 6 12 11 5 11 -6 0 -18 -7 -26 -15 -8 -8
-17 -11 -21 -8 -3 4 -6 -1 -6 -10 0 -10 -4 -17 -10 -17 -5 0 -7 8 -3 18 5 14
3 15 -8 5 -7 -7 -21 -13 -31 -13 -11 0 -15 -5 -12 -15 5 -11 2 -13 -10 -9 -9
3 -13 10 -10 15 3 5 1 9 -5 9 -19 0 -21 -19 -4 -29 10 -6 15 -11 11 -11 -4 0
-24 10 -45 21 -41 23 -97 34 -86 16 4 -7 0 -8 -11 -4 -13 5 -19 1 -23 -13 -4
-15 -9 -17 -23 -10 -14 7 -17 6 -16 -8 0 -9 -6 -17 -14 -17 -8 -1 -14 -6 -13
-11 1 -6 -5 -11 -13 -11 -7 0 -14 4 -14 9 0 4 5 8 10 8 6 0 10 5 10 12 0 7 -6
6 -17 -4 -10 -9 -25 -13 -33 -10 -13 5 -13 3 -1 -12 12 -14 12 -16 -3 -10 -11
4 -16 2 -14 -6 2 -7 -5 -14 -15 -15 -9 -2 -15 1 -12 5 3 5 0 12 -6 16 -7 4 -9
3 -6 -2 3 -6 2 -16 -4 -24 -6 -10 -9 -11 -9 -2 0 7 -8 4 -21 -9 -15 -15 -24
-18 -34 -9 -9 8 -15 8 -20 0 -6 -10 1 -14 18 -11 5 1 5 -3 2 -9 -4 -6 -13 -9
-21 -6 -7 3 -16 1 -20 -5 -4 -6 -12 -5 -22 3 -12 10 -14 10 -8 0 8 -14 -32
-34 -49 -24 -5 3 -3 -3 5 -13 8 -10 10 -16 3 -12 -6 4 -18 1 -26 -7 -11 -11
-17 -12 -26 -3 -9 9 -11 8 -5 -7 5 -13 4 -17 -3 -13 -6 4 -13 0 -17 -8 -3 -8
-10 -15 -16 -15 -6 0 -8 5 -4 12 4 7 3 8 -5 4 -6 -4 -9 -10 -7 -14 2 -4 -3
-16 -11 -27 -10 -13 -14 -14 -10 -4 3 9 0 16 -8 16 -8 0 -11 -7 -7 -15 3 -10
1 -13 -6 -8 -7 4 -12 2 -12 -5 0 -7 -3 -9 -7 -6 -3 4 -12 -2 -20 -12 -8 -12
-22 -18 -33 -16 -11 2 -19 1 -19 -3 3 -19 -3 -30 -17 -36 -15 -6 -15 -4 -3 10
13 16 12 16 -8 4 -12 -8 -19 -18 -16 -24 4 -5 -1 -7 -12 -2 -16 6 -16 4 -4
-11 12 -15 12 -16 -3 -10 -11 4 -18 2 -18 -5 0 -6 -3 -8 -7 -5 -3 4 -11 0 -17
-9 -6 -8 -21 -16 -33 -16 -12 -1 -19 -7 -16 -14 2 -7 -1 -15 -8 -20 -8 -5 -10
-3 -5 7 4 8 -1 3 -12 -11 -11 -13 -18 -28 -16 -32 3 -4 -2 -5 -10 -2 -9 3 -13
11 -9 18 3 6 0 5 -8 -2 -12 -11 -12 -14 1 -22 13 -8 13 -11 1 -22 -10 -10 -12
-10 -7 0 4 6 2 12 -3 12 -6 0 -11 -8 -11 -17 0 -14 -2 -15 -9 -4 -11 17 -25
-4 -15 -21 5 -8 0 -7 -11 2 -11 9 -16 10 -11 3 4 -8 2 -13 -8 -13 -8 0 -19 -8
-25 -17 -5 -10 -13 -17 -18 -15 -4 2 -9 -2 -12 -9 -2 -7 1 -9 9 -4 9 5 11 4 6
-4 -4 -6 -12 -9 -17 -6 -5 4 -9 2 -9 -4 0 -6 -8 -7 -17 -4 -16 6 -17 5 -3 -12
8 -10 10 -16 5 -13 -6 4 -17 3 -25 -3 -10 -6 -11 -9 -2 -9 6 0 12 -4 12 -9 0
-6 -9 -8 -20 -6 -11 2 -18 0 -15 -6 6 -8 -9 -13 -29 -10 -5 1 -4 -5 4 -13 9
-12 9 -16 1 -16 -19 0 -102 -91 -94 -103 3 -6 1 -7 -5 -3 -7 4 -12 2 -12 -4 0
-6 -5 -8 -12 -4 -8 5 -7 0 2 -11 8 -10 10 -16 3 -12 -6 4 -16 2 -22 -5 -6 -7
-22 -26 -36 -42 -14 -16 -25 -35 -25 -43 0 -8 -5 -11 -12 -7 -7 4 -8 3 -4 -4
4 -7 3 -12 -3 -12 -6 0 -7 -7 -4 -17 4 -10 2 -14 -4 -10 -10 7 -28 -19 -25
-35 1 -5 -5 -8 -13 -8 -8 0 -15 -5 -15 -11 0 -5 4 -8 8 -5 5 3 9 -1 9 -9 0 -8
-4 -12 -8 -10 -4 3 -10 -2 -13 -11 -3 -9 -11 -12 -18 -8 -10 6 -10 5 -2 -7 12
-14 -6 -45 -19 -33 -2 3 -3 -7 -2 -21 2 -16 -4 -30 -17 -39 -11 -8 -17 -19
-14 -25 5 -7 1 -8 -10 -4 -14 5 -16 3 -11 -11 4 -9 3 -15 -2 -12 -5 3 -12 -1
-15 -10 -3 -8 -2 -13 2 -10 4 2 8 -3 8 -13 0 -10 -6 -18 -13 -18 -7 0 -9 5 -6
10 3 6 1 7 -6 3 -8 -5 -9 -12 -2 -20 7 -8 6 -17 -1 -26 -8 -13 -9 -12 -4 2 3
12 1 15 -9 12 -8 -3 -11 -13 -8 -21 5 -12 3 -14 -7 -8 -9 5 -11 4 -6 -4 4 -6
2 -18 -4 -26 -6 -8 -8 -20 -4 -27 6 -9 3 -9 -9 1 -15 12 -17 12 -11 -2 3 -10
-2 -20 -16 -27 -17 -9 -19 -14 -10 -25 10 -12 8 -13 -10 -10 -18 3 -20 2 -10
-10 8 -10 8 -15 -1 -21 -8 -5 -9 -3 -4 6 5 9 4 11 -4 6 -9 -6 -9 -11 1 -24 8
-9 8 -13 2 -9 -7 4 -15 0 -18 -9 -3 -8 -11 -12 -17 -8 -8 4 -9 3 -5 -5 4 -6
13 -9 19 -5 7 3 4 -1 -5 -9 -10 -8 -14 -18 -10 -22 4 -5 -1 -5 -11 -2 -15 6
-16 4 -6 -14 8 -15 8 -19 0 -15 -6 4 -11 2 -11 -4 0 -6 -5 -8 -12 -4 -6 4 -8
3 -4 -4 3 -6 2 -13 -3 -17 -6 -3 -8 -12 -5 -19 3 -7 -3 -19 -13 -27 -17 -13
-17 -13 -3 6 14 19 14 19 -3 6 -13 -10 -15 -17 -6 -27 8 -10 8 -14 1 -14 -6 0
-9 -9 -7 -21 3 -17 2 -19 -10 -9 -12 10 -13 7 -5 -19 5 -17 5 -29 0 -26 -13 8
-20 -21 -7 -34 8 -8 7 -15 -6 -26 -9 -8 -12 -10 -7 -3 6 7 10 17 10 22 0 6 -7
2 -15 -8 -11 -14 -12 -23 -4 -33 9 -10 8 -13 -5 -13 -13 0 -14 -5 -5 -26 8
-23 8 -25 -5 -15 -12 10 -14 9 -11 -6 1 -10 -1 -26 -6 -35 -6 -11 -5 -18 4
-21 8 -4 8 -6 0 -6 -6 -1 -9 -10 -6 -21 3 -13 0 -20 -8 -20 -11 0 -11 -2 1
-10 13 -9 13 -10 0 -10 -13 0 -13 -1 0 -10 12 -8 12 -10 -5 -11 -12 0 -15 -3
-7 -6 10 -4 9 -9 -4 -24 -13 -15 -14 -19 -3 -19 11 0 11 -2 -1 -10 -13 -9 -13
-10 0 -10 13 0 13 -1 0 -10 -8 -5 -11 -10 -7 -10 4 0 3 -10 -4 -21 -8 -15 -8
-19 0 -15 6 4 11 2 11 -3 0 -6 -6 -11 -12 -11 -10 0 -9 -3 1 -9 9 -6 10 -10 2
-16 -7 -4 -9 -16 -5 -27 4 -13 1 -24 -7 -29 -11 -7 -11 -9 1 -9 9 0 20 3 26 8
5 4 2 0 -7 -8 -8 -9 -14 -21 -11 -28 2 -6 -2 -12 -10 -12 -10 0 -10 -2 1 -9
13 -8 13 -12 0 -27 -9 -11 -9 -15 -1 -10 15 9 15 1 1 -26 -8 -15 -8 -19 0 -14
15 10 14 -7 -1 -22 -9 -9 -9 -12 2 -12 13 0 13 -2 0 -10 -13 -8 -13 -13 -2
-31 12 -19 12 -21 -1 -16 -15 6 -15 -31 -1 -55 3 -5 2 -8 -3 -7 -20 3 -23 -2
-12 -23 9 -17 9 -20 -3 -15 -10 3 -14 -1 -13 -16 1 -12 -3 -25 -9 -29 -7 -5
-7 -8 2 -8 8 0 10 -5 5 -12 -4 -7 -9 -24 -11 -38 -2 -13 -8 -30 -13 -36 -7 -8
-6 -14 1 -19 8 -5 8 -11 0 -21 -7 -7 -10 -19 -8 -26 3 -7 -2 -19 -9 -26 -10
-11 -11 -17 -2 -28 7 -9 8 -14 1 -14 -11 0 -11 -18 1 -37 5 -8 3 -13 -4 -13
-8 0 -7 -5 2 -17 12 -14 12 -16 -2 -11 -9 4 -16 1 -16 -8 0 -7 4 -11 8 -9 4 3
9 -2 13 -10 3 -8 1 -17 -5 -21 -6 -4 -5 -12 3 -22 10 -12 10 -14 1 -8 -7 4
-13 3 -13 -3 0 -5 5 -13 12 -17 7 -5 5 -11 -7 -21 -11 -7 -13 -13 -7 -13 9 0
11 -13 6 -47 -4 -27 -8 -56 -8 -65 0 -9 -5 -14 -10 -11 -5 4 -7 -1 -3 -12 5
-11 1 -22 -10 -31 -13 -10 -14 -13 -4 -14 9 0 10 -4 4 -12 -6 -7 -11 -20 -11
-28 -4 -68 -4 -128 0 -136 3 -5 4 -17 3 -26 -2 -10 0 -18 3 -18 4 0 8 -10 8
-22 5 -78 8 -99 16 -104 5 -3 4 -12 -3 -20 -9 -11 -9 -14 1 -14 7 0 10 -8 7
-20 -3 -10 0 -21 7 -24 7 -3 7 -5 0 -5 -7 -1 -9 -16 -4 -45 3 -24 5 -51 4 -60
-1 -9 2 -18 7 -22 5 -3 5 -12 -1 -23 -5 -10 -6 -21 -3 -25 6 -6 9 -34 14 -148
1 -30 5 -45 12 -41 6 4 7 1 3 -6 -12 -18 -14 -61 -4 -61 5 0 4 -9 -2 -19 -6
-12 -6 -22 -1 -25 17 -11 5 -41 -15 -38 -15 3 -16 1 -5 -11 9 -12 9 -17 0 -23
-8 -4 -9 -3 -5 5 4 6 1 14 -8 17 -8 3 -12 13 -9 22 3 9 -3 6 -13 -8 -10 -14
-19 -28 -19 -32 0 -3 -3 -10 -7 -14 -4 -3 -6 3 -3 15 2 12 -1 21 -8 21 -7 0
-7 4 3 9 8 6 18 7 24 4 5 -3 6 -1 2 6 -4 6 -12 8 -18 5 -7 -5 -9 -1 -5 9 4 11
2 14 -7 11 -8 -3 -20 3 -27 13 -14 18 -45 31 -35 14 4 -5 2 -12 -4 -16 -5 -3
-10 2 -10 12 0 15 -2 16 -10 3 -8 -13 -10 -13 -10 2 0 17 -40 18 -85 3 -14 -5
-16 -4 -7 3 11 7 8 11 -12 14 -23 5 -24 3 -14 -10 16 -19 -5 -9 -35 16 -16 15
-17 14 -11 -2 6 -16 4 -17 -14 -7 -17 9 -23 8 -31 -6 -10 -17 -10 -17 -11 0 0
10 -5 15 -10 12 -6 -4 -8 -10 -6 -13 2 -4 -13 -7 -34 -7 -22 0 -36 -4 -33 -9
4 -6 -2 -6 -13 -2 -32 13 -55 15 -49 5 4 -5 1 -9 -4 -9 -6 0 -11 4 -11 9 0 6
-9 8 -21 6 -18 -4 -19 -2 -7 12 9 12 9 15 1 9 -8 -4 -13 -2 -13 5 0 9 -4 9
-15 -1 -12 -10 -13 -8 -10 10 3 18 2 20 -10 10 -8 -6 -19 -9 -25 -5 -5 3 -10
2 -10 -4 0 -5 -3 -17 -7 -27 -5 -13 -3 -15 8 -10 8 4 5 0 -5 -8 -18 -15 -15
-20 9 -17 6 1 1 -6 -9 -14 -14 -11 -16 -15 -5 -15 12 0 12 -2 -1 -9 -8 -6 -18
-7 -24 -4 -5 4 -6 1 -1 -7 6 -9 2 -10 -15 -5 -14 5 -20 3 -16 -3 4 -6 -2 -8
-14 -5 -11 3 -18 9 -15 13 4 7 -12 6 -70 -6 -23 -4 -26 -3 -15 5 18 13 1 14
-20 1 -10 -6 -20 -3 -32 10 -17 18 -48 18 -48 0 0 -4 -11 -5 -25 -2 -14 2 -33
-2 -42 -9 -11 -9 -14 -10 -9 -2 5 9 2 11 -8 7 -9 -3 -13 -11 -10 -16 4 -6 -1
-6 -13 1 -18 9 -20 7 -18 -13 3 -21 -1 -24 -25 -22 -17 1 -26 -2 -23 -8 4 -5
-1 -7 -11 -3 -11 4 -15 3 -11 -4 4 -6 14 -8 24 -5 14 5 14 4 -1 -7 -10 -8 -16
-17 -13 -20 3 -4 2 -5 -2 -2 -4 3 -13 -5 -20 -17 -7 -13 -12 -17 -13 -9 0 11
-3 11 -17 0 -9 -8 -14 -9 -11 -4 4 6 1 21 -6 34 -11 20 -14 21 -19 7 -4 -10
-3 -15 3 -11 6 3 10 1 10 -4 0 -16 -10 -14 -34 7 -19 15 -19 15 -7 0 11 -16 9
-17 -23 -14 -20 2 -33 0 -30 -5 3 -5 9 -7 13 -5 4 3 13 0 21 -5 11 -7 7 -8
-14 -5 -16 3 -38 13 -49 23 -12 11 -17 12 -12 4 6 -11 4 -13 -10 -7 -14 5 -16
4 -7 -7 9 -10 8 -14 -3 -14 -8 0 -15 4 -15 8 0 4 -12 1 -27 -7 -34 -17 -47
-18 -37 -2 4 7 3 8 -5 4 -9 -6 -9 -11 -1 -21 8 -10 8 -15 -1 -21 -7 -4 -10 -3
-7 2 3 5 0 15 -8 22 -12 11 -14 10 -14 -3 0 -8 -4 -15 -10 -15 -5 0 -7 8 -4
18 3 9 -2 6 -11 -8 -9 -14 -14 -17 -11 -7 3 9 3 17 -1 17 -3 0 -12 -8 -20 -17
-8 -10 -12 -13 -9 -7 3 7 -1 15 -10 18 -12 4 -15 2 -10 -9 4 -12 2 -13 -14 -3
-10 7 -17 16 -14 20 3 4 -2 5 -10 2 -9 -3 -16 -14 -16 -23 0 -13 -2 -14 -9 -1
-6 8 -7 18 -4 24 3 5 1 6 -6 2 -6 -4 -9 -12 -6 -17 4 -5 -1 -9 -10 -9 -10 0
-13 -5 -9 -12 4 -7 -3 -4 -16 7 -13 11 -20 14 -15 6 6 -11 1 -13 -23 -9 -23 3
-29 1 -24 -11 4 -10 1 -12 -9 -6 -11 7 -11 5 1 -10 14 -17 14 -18 -10 -5 -23
12 -24 12 -11 -3 15 -19 8 -22 -19 -7 -16 8 -18 8 -14 -5 4 -8 1 -15 -5 -15
-6 0 -11 5 -11 12 0 6 -3 8 -6 5 -4 -4 -1 -13 6 -22 11 -13 10 -14 -4 -9 -9 3
-16 10 -16 15 0 4 -7 6 -15 3 -8 -4 -13 -10 -10 -14 3 -5 1 -11 -5 -15 -5 -3
-10 1 -10 9 0 9 -5 16 -11 16 -5 0 -7 -6 -3 -12 5 -9 3 -9 -9 1 -9 7 -26 11
-37 8 -11 -3 -18 -2 -16 2 3 4 0 13 -6 21 -8 12 -9 12 -4 -2 6 -21 -4 -23 -23
-6 -11 10 -13 10 -7 1 4 -7 2 -13 -4 -13 -6 0 -9 -4 -6 -8 3 -5 -1 -9 -9 -9
-8 0 -11 5 -8 11 4 6 -1 5 -10 -2 -9 -8 -20 -11 -25 -8 -5 3 -20 -5 -32 -17
-13 -12 -29 -22 -36 -23 -23 -4 -64 -36 -57 -47 3 -6 1 -7 -6 -3 -6 4 -14 0
-17 -8 -3 -9 -10 -13 -15 -10 -5 3 -12 -2 -15 -11 -4 -9 -13 -14 -21 -10 -11
4 -13 1 -9 -10 4 -11 0 -15 -12 -13 -10 2 -16 -2 -14 -11 3 -12 0 -12 -12 -2
-11 9 -16 9 -22 0 -5 -8 -3 -10 7 -4 8 4 5 -1 -6 -12 l-20 -20 -11 20 c-7 12
-13 15 -15 8 -3 -7 -12 -13 -22 -15 -21 -3 -47 -26 -30 -26 6 0 14 6 17 13 3
6 3 0 1 -15 -2 -16 1 -28 6 -28 5 0 9 -8 9 -17 0 -15 -2 -14 -14 2 -8 11 -12
23 -10 26 2 4 -3 9 -11 13 -8 3 -12 12 -9 21 5 11 2 14 -10 9 -9 -3 -16 -11
-16 -16 0 -6 -7 -4 -16 3 -14 11 -18 10 -30 -6 -7 -10 -26 -20 -40 -21 -29 -3
-47 -22 -36 -39 3 -5 -3 -3 -14 5 -10 8 -16 10 -12 6 4 -5 2 -16 -5 -24 -10
-13 -9 -14 2 -7 10 5 12 4 7 -3 -4 -7 -14 -12 -23 -12 -12 0 -13 -3 -4 -14 14
-16 11 -47 -4 -58 -6 -5 -3 -8 7 -8 9 0 20 -4 23 -10 4 -6 -1 -7 -12 -3 -16 6
-16 5 -3 -10 35 -39 38 -44 28 -60 -6 -11 -5 -17 2 -17 5 0 10 5 10 12 0 6 2
9 5 6 7 -7 -5 -39 -14 -34 -9 6 -14 -44 -11 -117 1 -12 6 -17 16 -13 10 4 14
0 12 -12 -2 -10 2 -16 11 -14 9 2 11 -3 7 -13 -3 -9 -2 -14 2 -12 4 3 13 -1
20 -9 10 -10 10 -14 1 -14 -7 0 -9 -3 -6 -6 4 -4 13 -1 21 5 13 11 15 9 11 -8
-3 -18 -1 -20 15 -11 24 13 30 13 30 -1 0 -5 -4 -8 -9 -4 -5 3 -12 2 -15 -3
-5 -8 8 -12 48 -13 10 0 16 -3 12 -6 -13 -13 28 -32 43 -20 12 10 13 9 6 -2
-6 -11 -4 -13 10 -7 16 6 16 4 4 -10 -13 -16 -12 -16 8 -6 15 9 24 9 28 1 4
-6 14 -8 22 -4 14 5 14 3 2 -11 -13 -16 -12 -16 10 -5 13 7 21 9 17 3 -3 -5 1
-13 10 -16 9 -4 13 -2 8 5 -5 8 -1 8 14 0 11 -6 22 -14 24 -18 3 -5 3 -2 2 5
-5 17 6 15 25 -5 9 -10 22 -19 29 -20 6 -2 18 -4 25 -5 6 -2 18 -12 25 -23 10
-15 12 -16 8 -3 -3 10 0 20 6 24 7 4 8 3 4 -4 -4 -7 -2 -12 4 -12 6 0 8 -4 5
-10 -3 -6 -1 -10 5 -10 6 0 9 -4 6 -8 -2 -4 5 -9 17 -9 12 -1 42 -4 67 -8 25
-3 56 -6 70 -6 21 -1 22 -2 7 -10 -9 -6 -22 -7 -27 -4 -6 3 -10 1 -10 -5 0 -8
9 -10 25 -6 17 4 25 2 25 -6 0 -9 3 -8 10 2 9 14 15 7 11 -14 -1 -5 6 -3 15 5
16 12 17 12 11 -3 -3 -10 -1 -20 5 -24 7 -4 8 -3 4 4 -5 8 1 12 14 12 14 0 19
-4 14 -12 -5 -7 -2 -9 9 -5 8 3 21 -1 27 -8 7 -8 16 -12 21 -9 5 3 23 -2 41
-10 38 -20 72 -21 62 -3 -6 9 -5 9 8 0 8 -7 19 -9 24 -5 4 4 2 -2 -6 -13 -8
-11 -10 -17 -5 -12 4 4 17 -1 28 -10 11 -10 17 -12 13 -5 -4 6 -3 12 3 12 5 0
11 -6 14 -12 3 -10 9 -10 27 0 12 7 25 11 28 8 3 -3 1 -6 -5 -6 -6 0 -13 -7
-17 -15 -4 -12 -1 -12 22 2 24 16 25 16 14 1 -17 -22 2 -33 22 -13 9 9 17 11
21 5 3 -5 2 -10 -2 -10 -5 0 -10 -10 -10 -22 -2 -16 0 -19 6 -9 12 19 51 5 45
-17 -4 -14 -3 -13 6 2 10 14 9 20 -1 28 -11 8 -11 9 1 5 8 -2 15 -13 14 -23 0
-17 7 -20 48 -21 33 0 46 3 41 11 -4 7 -1 6 9 -1 8 -7 19 -9 24 -5 4 4 2 -1
-5 -10 -10 -14 -18 -15 -32 -7 -13 6 -19 6 -19 -1 0 -5 7 -10 16 -10 9 0 12
-5 8 -12 -4 -7 8 -1 27 12 19 13 28 17 22 10 -7 -8 -13 -21 -13 -29 0 -11 4
-10 14 5 8 10 18 16 22 11 4 -4 2 -7 -4 -7 -7 0 -12 -7 -12 -15 0 -8 5 -15 11
-15 5 0 7 5 4 10 -3 6 -1 10 4 10 6 0 11 -5 11 -11 0 -6 6 -9 13 -6 17 6 49
-12 42 -24 -4 -5 -11 -6 -17 -3 -7 4 -8 2 -4 -5 12 -19 38 8 31 33 -5 18 -5
19 5 4 6 -10 17 -15 27 -11 12 5 14 3 8 -7 -5 -8 -4 -11 3 -6 6 3 13 2 17 -3
3 -6 15 -7 28 -2 12 4 28 6 36 3 9 -3 11 0 6 8 -5 8 -4 11 3 6 6 -4 9 -13 5
-22 -4 -10 -9 -12 -18 -4 -9 7 -14 7 -18 -2 -3 -10 9 -13 45 -13 42 0 48 3 44
18 -2 9 0 15 4 12 5 -3 11 1 14 7 3 7 3 3 0 -9 -3 -14 -1 -23 6 -23 6 0 8 5 4
12 -5 8 -2 9 11 4 14 -5 15 -4 7 7 -7 8 -7 18 -2 27 9 13 10 13 10 0 0 -13 1
-13 10 0 13 21 12 33 -2 24 -6 -4 -4 3 5 15 8 13 13 29 11 36 -3 7 -1 16 5 20
6 3 11 1 11 -5 0 -6 4 -9 9 -6 10 7 9 -20 -2 -30 -4 -4 -7 -12 -7 -18 1 -6 10
0 20 13 11 13 20 18 20 13 0 -6 -5 -14 -10 -17 -6 -4 -7 -11 -4 -17 4 -7 2 -8
-5 -4 -8 6 -10 0 -6 -21 4 -15 7 -34 7 -40 1 -7 5 -13 10 -13 5 0 6 10 2 22
-6 19 -4 21 7 11 20 -16 41 -2 23 15 -8 7 -14 9 -14 4 0 -5 -7 -9 -16 -9 -15
0 -15 1 0 12 8 7 12 16 8 21 -4 4 1 2 10 -5 9 -7 23 -9 29 -5 7 4 9 3 5 -4 -3
-6 -2 -13 3 -16 6 -4 8 7 6 24 -5 41 23 57 63 36 24 -12 29 -13 29 -1 0 8 -4
12 -9 9 -4 -3 -5 2 -2 11 8 20 30 13 26 -9 -3 -18 13 -22 24 -4 5 7 3 8 -6 3
-9 -5 -11 -4 -6 3 4 6 2 22 -4 34 -11 22 -10 22 4 4 15 -18 20 -15 17 9 -1 6
8 -1 19 -14 11 -13 20 -28 20 -35 -1 -6 -6 -1 -13 12 -14 24 -30 20 -20 -5 4
-9 -3 -22 -17 -33 -17 -13 -20 -19 -10 -25 9 -5 11 -4 6 3 -7 11 6 17 27 13 5
-1 6 3 2 9 -3 5 -1 10 4 10 6 0 11 -4 11 -10 0 -5 5 -10 11 -10 5 0 7 5 3 12
-5 8 -2 9 10 5 10 -4 15 -3 11 3 -3 6 2 10 12 10 14 0 15 2 4 9 -9 6 -10 11
-2 15 6 4 14 5 19 3 4 -3 7 8 8 24 1 17 -3 26 -9 22 -6 -3 -7 -1 -3 5 4 6 13
9 21 5 8 -3 15 0 15 7 0 6 5 8 13 4 9 -6 9 -4 -1 8 -9 11 -10 18 -2 23 16 10
0 27 -21 22 -11 -3 -17 -1 -14 4 3 5 1 18 -6 30 -7 15 -8 19 0 15 7 -5 10 1 8
16 -1 18 2 22 18 20 16 -2 17 -1 6 7 -9 6 -21 6 -32 0 -10 -5 -21 -9 -24 -9
-12 0 1 25 13 26 7 1 18 2 25 3 9 1 8 4 -2 10 -8 5 -21 7 -29 4 -12 -5 -12 -3
-1 16 8 11 17 21 21 21 5 0 8 6 8 13 -1 6 -10 1 -20 -12 -15 -17 -20 -19 -20
-8 0 9 -8 21 -17 26 -17 10 -6 16 20 12 4 -1 10 6 13 14 3 8 11 12 16 8 7 -4
9 3 6 18 -4 21 0 25 21 27 23 2 40 17 41 35 0 4 -3 6 -7 6 -31 -5 -36 3 -13
20 26 21 48 18 30 -4 -8 -9 -8 -15 0 -20 5 -3 10 -2 10 2 0 5 7 18 15 29 14
18 15 17 6 -8 -11 -29 11 -58 42 -58 20 0 21 -9 6 -30 -10 -13 -10 -13 -6 1 3
9 -1 16 -8 16 -17 0 -15 -18 5 -34 10 -7 21 -8 32 -2 9 5 22 8 29 7 6 -2 14 4
16 12 4 13 3 13 -7 0 -10 -13 -11 -13 -7 0 2 8 12 14 21 12 10 -2 24 5 32 15
13 17 14 17 7 -2 -6 -18 -5 -18 10 -6 20 16 23 2 5 -19 -11 -12 -10 -12 3 -2
9 6 18 9 22 6 3 -3 3 5 0 18 -6 21 -5 22 10 9 9 -7 17 -10 17 -6 0 4 7 2 15
-5 10 -9 15 -9 15 -1 0 10 -12 15 -31 13 -3 -1 -6 5 -6 13 0 10 8 8 30 -7 17
-12 27 -16 22 -8 -6 10 -4 12 8 7 10 -3 17 -2 17 3 0 6 -4 10 -10 10 -5 0 -10
5 -10 12 0 9 3 9 12 0 14 -14 42 -16 33 -2 -3 6 -2 10 3 10 6 0 13 -7 16 -16
3 -8 2 -12 -3 -9 -5 3 -12 2 -15 -3 -8 -13 28 -11 37 2 6 7 7 4 3 -7 -3 -10
-6 -23 -6 -28 0 -6 -6 -7 -12 -3 -8 4 -10 3 -5 -2 5 -5 14 -9 20 -9 7 -1 11
-7 9 -14 -1 -7 2 -10 8 -6 8 5 7 12 -2 23 -12 15 -11 16 5 3 15 -12 20 -11 40
5 12 10 19 15 14 10 -14 -18 34 -57 52 -43 14 10 14 10 4 -4 -7 -9 -10 -19 -6
-22 3 -4 4 -7 0 -7 -3 0 -12 6 -20 14 -11 12 -15 11 -27 -8 -11 -18 -11 -19 1
-10 13 11 42 -4 36 -18 -1 -2 5 4 15 14 17 19 33 25 23 8 -6 -9 7 -14 31 -11
14 2 39 -27 30 -36 -3 -3 -6 -1 -6 5 0 6 -8 9 -17 6 -15 -5 -16 -4 -3 6 12 9
11 10 -7 5 -12 -3 -24 -1 -28 6 -8 12 -25 -6 -25 -26 0 -5 5 -3 10 5 6 9 13
11 18 5 7 -11 24 -16 57 -18 11 0 23 -6 27 -12 5 -6 8 -4 9 5 0 10 3 8 9 -5 7
-17 9 -17 9 -2 1 21 3 21 43 -3 18 -11 41 -20 51 -20 11 0 17 -6 15 -17 -2
-11 2 -17 10 -15 8 1 11 -2 7 -8 -3 -6 -10 -8 -15 -5 -4 3 -11 -2 -14 -11 -4
-9 -2 -13 5 -8 8 5 10 -3 7 -25 -3 -18 -1 -34 3 -37 5 -2 5 -12 2 -21 -5 -12
-3 -14 8 -9 8 4 5 0 -5 -8 -15 -12 -16 -16 -5 -16 8 0 15 -9 16 -20 1 -13 -2
-18 -10 -14 -8 5 -8 3 1 -7 6 -7 12 -23 12 -36 0 -13 4 -23 8 -23 4 0 9 -10 9
-22 1 -13 10 -29 20 -37 17 -13 17 -13 1 -8 -10 4 -18 2 -18 -3 0 -6 8 -10 18
-10 14 0 15 -2 2 -10 -12 -8 -12 -10 5 -11 l20 0 -20 -9 c-11 -5 -14 -9 -7 -9
7 -1 10 -5 7 -11 -3 -5 -2 -10 3 -10 6 0 13 -7 16 -16 3 -8 2 -12 -4 -9 -6 3
-10 1 -10 -4 0 -6 4 -11 9 -11 5 0 7 -9 4 -20 -3 -13 0 -20 8 -20 11 0 11 -2
-1 -10 -12 -8 -12 -10 5 -10 17 0 17 -2 5 -10 -13 -9 -7 -14 12 -11 4 0 3 -10
-1 -22 -5 -13 -5 -30 -1 -37 5 -8 7 -17 4 -21 -2 -4 1 -11 7 -15 8 -4 7 -9 -2
-15 -11 -7 -11 -9 -1 -9 7 0 10 -4 7 -10 -3 -5 -1 -10 6 -10 8 0 8 -4 -1 -15
-10 -12 -10 -15 1 -15 11 0 11 -2 -1 -10 -9 -6 -10 -10 -3 -10 6 0 12 -8 12
-17 1 -38 5 -53 12 -53 13 0 18 -29 7 -36 -7 -5 -8 -2 -3 7 5 8 4 10 0 6 -11
-10 -16 -39 -5 -32 4 3 14 -3 21 -12 8 -9 9 -14 3 -10 -7 4 -15 0 -18 -8 -3
-9 1 -18 9 -21 8 -4 12 -11 8 -18 -11 -16 -13 -37 -3 -31 4 3 10 -2 14 -10 3
-8 0 -15 -6 -15 -7 0 -6 -6 3 -17 8 -10 14 -33 13 -50 -1 -18 1 -33 5 -33 4 0
5 -16 3 -35 -3 -25 0 -35 9 -35 12 0 12 -2 0 -9 -8 -5 -10 -14 -5 -22 8 -13
14 -53 17 -119 1 -19 5 -40 9 -45 4 -6 3 -17 -2 -25 -5 -8 -5 -21 -1 -29 5 -9
7 -26 6 -39 -1 -13 2 -25 6 -28 4 -2 6 -13 4 -24 -2 -11 1 -20 6 -20 6 0 9 -6
6 -12 -2 -7 0 -23 4 -35 6 -15 5 -23 -2 -23 -7 0 -8 -5 -3 -13 5 -6 9 -24 8
-39 0 -16 3 -28 8 -28 5 0 4 -9 -2 -19 -5 -11 -6 -21 -1 -23 5 -2 10 -19 12
-38 2 -19 6 -40 10 -45 5 -6 4 -17 -1 -24 -5 -9 -3 -22 3 -33 9 -15 9 -20 -2
-27 -9 -6 -10 -10 -2 -12 6 -2 12 -25 13 -52 1 -26 6 -47 10 -47 4 0 7 -17 6
-37 0 -21 1 -40 2 -43 1 -3 3 -22 4 -43 2 -20 6 -40 9 -43 4 -4 2 -15 -4 -25
-5 -11 -6 -19 -1 -19 9 0 11 -35 14 -210 1 -60 6 -108 12 -112 8 -5 7 -8 0 -8
-7 0 -11 -20 -10 -55 0 -30 -3 -57 -9 -59 -5 -3 -5 -5 2 -5 8 -1 9 -10 3 -30
-5 -19 -4 -33 3 -40 8 -8 8 -11 -2 -11 -7 0 -9 -5 -5 -11 3 -6 0 -15 -7 -20
-12 -7 -12 -9 0 -9 11 0 11 -3 0 -17 -10 -11 -10 -14 -1 -9 15 9 16 -6 0 -22
-9 -9 -9 -12 1 -12 11 0 11 -3 0 -17 -8 -9 -9 -14 -2 -10 7 5 10 1 8 -10 -2
-10 -4 -21 -4 -25 -1 -5 -6 -8 -12 -8 -8 0 -7 6 2 18 13 15 12 16 -3 4 -16
-13 -16 -15 0 -40 12 -19 13 -24 3 -17 -11 6 -13 4 -8 -8 3 -9 2 -19 -4 -23
-6 -4 -5 -12 3 -22 10 -12 10 -14 1 -8 -13 7 -15 1 -15 -56 -1 -16 -6 -28 -12
-28 -6 0 -4 -5 4 -10 11 -7 11 -10 2 -10 -7 0 -10 -5 -6 -11 3 -6 0 -15 -7
-20 -12 -7 -11 -9 1 -9 12 0 13 -2 1 -9 -7 -5 -15 -20 -16 -34 -2 -14 -7 -32
-11 -39 -9 -14 -14 -32 -17 -64 -2 -12 -9 -29 -16 -38 -12 -14 -12 -16 0 -11
10 4 14 -2 14 -19 0 -19 -3 -22 -13 -14 -10 9 -11 6 -4 -13 4 -13 8 -31 7 -39
-1 -8 3 -20 7 -27 5 -6 5 -14 1 -16 -11 -7 -10 -68 2 -86 5 -9 4 -12 -3 -7 -7
4 -10 -7 -9 -34 1 -22 5 -40 10 -40 5 0 4 -6 -2 -14 -8 -10 -9 -16 -1 -21 5
-3 10 -12 10 -18 0 -7 -4 -6 -10 3 -6 9 -10 10 -10 3 0 -6 4 -14 9 -17 5 -3 8
-22 7 -42 -1 -20 2 -38 6 -41 5 -2 5 -9 2 -15 -4 -6 -2 -8 3 -5 6 4 13 -3 16
-14 4 -15 11 -20 22 -15 9 3 14 2 11 -3 -3 -5 5 -8 18 -7 20 1 22 4 13 15 -9
11 -9 13 0 8 7 -4 17 0 23 10 10 16 11 16 6 1 -3 -12 -1 -15 9 -11 8 3 13 8
11 12 -2 3 10 20 26 36 17 17 27 24 23 16 -5 -9 -4 -12 3 -7 7 4 12 14 12 22
0 8 -4 13 -9 9 -5 -3 -13 0 -17 7 -4 7 -4 10 1 6 4 -4 15 -2 23 5 11 8 14 8 9
0 -4 -6 -4 -14 1 -17 13 -8 13 46 0 61 -6 8 -7 13 -2 12 20 -4 26 2 15 15 -9
11 -9 16 0 22 7 4 10 3 7 -2 -3 -5 0 -14 7 -21 11 -10 15 -10 18 0 4 9 6 9 6
-1 1 -8 6 -10 14 -6 6 4 9 3 4 -1 -4 -5 1 -17 10 -28 10 -11 12 -17 6 -13 -8
4 -13 2 -13 -7 0 -16 29 -19 47 -5 7 6 14 4 19 -3 4 -8 3 -9 -4 -5 -18 11 -14
0 5 -15 9 -8 14 -9 10 -3 -4 7 2 14 13 17 11 3 23 0 27 -5 3 -7 1 -8 -5 -4 -7
4 -12 2 -12 -3 0 -13 17 -14 24 -2 10 16 56 20 56 5 0 -8 4 -14 10 -14 5 0 7
8 3 17 -3 10 -3 15 1 11 4 -3 9 -13 10 -22 2 -17 21 -23 21 -7 0 5 4 13 9 18
5 5 6 3 2 -4 -4 -7 -2 -13 3 -13 6 0 11 5 11 10 0 6 5 10 11 10 6 0 8 -8 5
-18 -5 -14 -4 -14 9 2 8 11 15 23 15 28 0 4 5 8 10 8 6 0 9 -5 8 -11 -2 -6 5
-13 15 -14 9 -2 15 0 13 4 -3 4 3 15 14 23 16 14 19 15 24 2 3 -9 10 -12 16
-9 5 3 10 1 10 -4 0 -14 -13 -14 -28 1 -9 9 -12 7 -12 -10 0 -12 -4 -22 -10
-22 -20 0 -9 -16 12 -17 16 -2 19 0 9 6 -9 6 -10 11 -2 15 6 4 11 2 11 -4 0
-6 6 -8 13 -5 6 4 1 -3 -12 -14 -13 -12 -17 -21 -10 -21 7 0 21 8 31 17 15 13
21 14 31 4 9 -10 8 -11 -7 -5 -15 6 -17 4 -11 -6 5 -8 4 -11 -2 -7 -6 4 -13 0
-16 -8 -5 -11 -1 -12 20 -4 22 8 24 7 14 -5 -9 -11 -8 -15 6 -21 26 -11 63
-13 57 -3 -3 4 0 9 5 9 6 1 15 2 20 3 5 0 13 5 18 10 5 5 3 6 -4 2 -21 -12
-15 4 10 26 20 18 20 19 2 14 -19 -6 -19 -6 -1 9 12 9 17 22 13 35 -3 11 -1
18 3 15 5 -3 11 -1 14 4 4 5 1 13 -5 17 -9 5 -7 11 6 21 18 12 18 13 1 13 -14
0 -16 3 -7 13 8 10 7 17 -2 27 -9 10 -9 11 1 6 8 -5 12 0 12 14 0 13 -4 19
-12 14 -7 -4 -8 -3 -4 4 4 7 15 12 24 13 11 1 8 4 -8 9 -19 6 -20 8 -6 9 15 1
16 4 7 15 -9 11 -9 15 0 18 7 2 13 16 15 32 2 24 1 26 -14 14 -15 -12 -15 -10
1 15 14 21 15 32 7 47 -7 14 -8 26 0 39 13 25 13 40 -1 21 -8 -11 -9 -6 -7 22
2 20 0 34 -4 32 -4 -3 -6 9 -4 26 2 17 -2 37 -8 43 -6 7 -12 19 -14 27 -2 8
-9 20 -17 26 -11 8 -11 12 3 22 14 9 14 11 1 6 -9 -3 -16 1 -17 8 0 7 -2 27
-3 45 -1 18 -5 30 -10 28 -4 -3 -6 9 -5 27 2 18 -1 39 -7 45 -7 9 -5 13 7 13
9 0 16 4 16 9 0 6 -10 8 -22 6 -22 -4 -22 -4 -4 10 14 11 16 15 5 15 -12 0
-12 2 0 9 11 7 12 13 3 23 -6 8 -7 19 -2 28 5 8 6 18 3 24 -10 16 -9 96 2 96
7 0 7 3 0 8 -17 12 -13 172 5 173 10 0 8 3 -5 9 -11 5 -15 9 -8 9 12 1 10 51
-2 71 -3 6 -1 10 5 10 8 0 7 6 -1 21 -8 15 -8 19 0 15 7 -5 7 2 -1 20 -9 19
-10 28 -2 31 6 2 9 15 6 28 -3 16 0 25 8 25 8 0 9 4 3 13 -15 21 -17 70 -1 61
10 -6 10 -5 -1 9 -7 9 -11 30 -9 47 3 22 1 30 -11 30 -10 0 -12 3 -5 8 6 4 10
22 8 40 -1 20 1 30 8 26 7 -4 7 0 0 13 -7 12 -7 24 0 37 7 13 7 17 0 12 -6 -3
-10 7 -11 27 0 17 -1 39 -1 47 -1 8 1 32 3 53 2 20 0 37 -4 37 -5 0 -5 10 0
23 5 13 5 30 0 39 -6 11 -5 19 2 24 8 4 7 9 -2 15 -12 8 -11 11 1 19 10 6 11
10 3 10 -10 0 -12 16 -8 58 3 31 5 62 6 67 1 15 -9 53 -17 68 -6 8 -3 8 9 -1
15 -12 15 -11 7 17 -6 21 -5 29 2 25 6 -4 8 1 3 16 -4 12 -3 20 1 17 5 -3 8
19 7 50 -2 37 0 52 8 47 6 -3 3 6 -7 22 -11 15 -13 25 -6 21 16 -10 16 5 0 22
-8 8 -8 11 -2 8 7 -4 12 3 12 17 0 14 -6 23 -12 22 -6 -2 -8 -1 -3 1 11 7 8
31 -5 37 -7 3 -2 3 12 -1 21 -5 23 -3 13 8 -6 8 -10 27 -9 42 3 24 1 26 -13
15 -12 -10 -12 -8 2 8 9 11 17 26 17 33 0 7 4 9 10 6 6 -3 7 1 4 10 -4 8 0 23
7 32 8 9 9 14 3 10 -7 -4 -14 2 -17 13 -3 11 0 20 6 20 8 0 7 4 -1 12 -14 14
-16 32 -3 23 10 -5 5 40 -5 57 -3 4 0 8 6 8 6 0 8 4 5 10 -3 5 0 10 7 10 9 0
9 3 -2 10 -12 8 -13 11 -1 19 9 6 10 10 2 16 -9 5 -9 11 1 23 10 12 10 14 1 8
-8 -4 -13 -2 -13 4 0 6 -5 8 -12 4 -7 -4 -8 -3 -4 5 4 6 12 9 17 6 5 -3 6 1 3
10 -4 8 0 23 7 32 11 13 11 15 1 9 -10 -6 -12 1 -8 33 3 26 1 39 -6 35 -5 -3
-7 -13 -4 -21 3 -8 1 -11 -5 -8 -5 4 -7 15 -4 26 13 39 15 69 6 69 -6 0 -8 -8
-6 -19 3 -15 -1 -18 -18 -13 -19 5 -19 7 -4 10 15 3 16 6 5 20 -11 13 -11 14
1 7 11 -6 13 -4 7 10 -6 16 -4 16 10 4 16 -13 16 -12 7 6 -11 22 -6 48 8 40 5
-4 6 1 3 9 -3 9 -11 13 -18 9 -6 -3 -2 4 9 16 14 16 15 22 5 19 -9 -2 -14 3
-12 11 3 12 1 12 -14 0 -16 -13 -16 -12 -2 16 8 17 13 40 12 53 0 12 2 22 6
22 7 0 8 56 0 63 -3 3 -6 -7 -7 -21 -3 -48 -9 -64 -29 -74 -18 -9 -18 -9 -1 5
12 10 14 17 8 22 -6 3 -11 12 -11 18 0 8 3 8 9 -1 7 -11 9 -11 14 2 4 9 -1 20
-11 26 -15 11 -15 11 2 6 13 -4 17 -2 13 7 -3 8 4 22 14 31 11 9 18 20 15 25
-3 4 1 8 7 8 7 0 14 -10 15 -21 1 -15 -1 -17 -7 -8 -7 11 -9 11 -14 0 -3 -9 1
-15 10 -15 9 0 18 9 21 19 2 10 8 18 13 18 5 0 6 -8 2 -17 -6 -16 -3 -15 18 2
14 12 19 14 11 4 -10 -14 -10 -18 3 -23 10 -4 15 1 15 14 0 10 4 21 8 24 5 3
8 -5 8 -17 -1 -13 5 -22 14 -22 8 0 14 6 13 13 -4 16 5 15 23 -3 9 -8 20 -15
27 -15 6 0 2 7 -9 16 -10 8 -14 13 -7 10 6 -4 15 -1 18 5 4 5 13 8 20 5 7 -2
16 -2 20 2 4 4 20 7 36 8 25 0 28 -3 24 -24 -3 -18 -1 -21 9 -13 7 6 17 7 22
3 4 -4 3 0 -4 10 -10 12 -10 18 -1 24 7 4 9 3 6 -3 -4 -6 0 -13 7 -16 10 -4
14 0 11 13 -2 11 0 22 4 24 7 5 9 -1 13 -43 1 -11 6 -17 10 -15 5 3 7 12 6 19
-2 8 2 14 7 14 6 0 9 -8 7 -17 -2 -15 -1 -15 8 -2 9 13 11 13 20 0 5 -8 10
-11 10 -6 0 5 -8 19 -17 30 -10 12 -11 15 -3 8 19 -16 35 -16 21 1 -8 10 -7
14 3 14 7 0 13 -7 12 -16 -1 -9 4 -16 9 -16 6 0 9 4 8 10 -2 6 10 11 26 10 22
0 27 -3 19 -12 -15 -18 2 -16 23 2 15 14 18 14 33 0 14 -14 16 -14 16 -2 0 9
-6 18 -12 20 -10 4 -10 6 -1 6 6 1 19 -9 27 -21 9 -12 16 -17 16 -11 0 7 9 10
20 8 11 -2 18 0 15 6 -9 13 9 11 24 -4 10 -10 12 -9 9 3 -2 8 3 14 10 13 16
-4 16 9 0 26 -11 10 -9 11 6 5 12 -4 17 -4 13 2 -3 6 4 11 15 11 20 2 20 1 2
-12 -11 -7 -16 -17 -12 -21 4 -4 2 -14 -5 -23 -11 -14 -10 -14 5 -2 10 7 16
17 13 21 -3 4 2 11 11 14 12 4 15 2 11 -9 -4 -8 -1 -17 5 -21 7 -4 8 -3 4 4
-4 7 -2 12 4 12 8 0 8 6 0 21 -7 11 -9 23 -6 27 3 3 6 0 6 -6 0 -13 36 -7 59
10 14 12 15 11 2 -5 -8 -9 -11 -20 -7 -24 3 -3 6 -1 6 6 0 7 5 9 10 6 6 -4 10
-3 9 2 -6 33 1 43 22 32 12 -6 19 -7 15 -1 -8 14 20 35 35 26 8 -4 9 -3 5 4
-4 7 -2 20 4 29 11 16 11 16 6 1 -3 -10 -1 -20 4 -23 6 -4 10 1 10 10 0 10 5
13 12 9 7 -5 9 -2 5 8 -7 19 11 38 29 31 16 -6 46 15 39 27 -2 4 7 6 20 4 14
-1 23 2 19 7 -6 11 37 29 50 21 5 -3 6 0 2 6 -4 7 -3 12 3 12 6 0 6 11 1 30
-5 19 -5 28 1 25 5 -4 9 -13 9 -21 0 -8 5 -14 11 -14 5 0 8 4 5 9 -4 5 5 8 19
6 14 -1 23 0 20 3 -3 3 5 12 17 19 23 13 23 13 -5 9 -16 -3 -25 -1 -22 5 4 5
11 7 16 4 5 -4 9 -2 9 3 0 5 13 8 29 6 25 -3 29 0 29 21 0 14 -5 25 -10 25 -6
0 -8 -9 -5 -19 4 -16 -15 -23 -30 -11 -2 2 -7 3 -12 4 -5 0 -12 4 -16 8 -9 9
17 4 34 -6 11 -7 13 -5 8 7 -7 18 20 32 37 19 17 -14 48 -23 42 -13 -7 11 22
23 36 14 7 -4 8 -1 3 7 -6 9 -1 10 16 5 17 -4 20 -3 10 3 -11 8 -11 10 0 15
11 4 11 6 1 6 -7 1 -11 5 -7 11 3 5 12 7 20 4 8 -4 12 -11 8 -18 -4 -6 1 -5
10 2 9 8 21 11 26 7 7 -3 8 0 5 9 -3 9 -2 16 4 16 6 0 13 -6 15 -12 3 -8 6 -6
6 4 1 9 -6 21 -15 26 -15 8 -15 10 0 15 12 5 15 3 10 -5 -5 -7 -2 -9 9 -5 11
4 14 2 10 -9 -3 -9 0 -14 8 -12 8 2 13 -3 11 -10 -1 -8 2 -11 8 -7 6 3 8 10 5
15 -7 11 17 19 53 16 17 -1 30 3 29 8 -1 6 6 10 15 10 11 -1 14 4 11 14 -4 9
-2 13 4 9 6 -4 10 1 9 11 0 9 5 16 12 14 8 -1 11 2 7 8 -3 6 -12 8 -18 4 -7
-3 -1 4 13 15 21 18 21 20 5 15 -11 -4 -17 -4 -13 1 4 4 2 17 -4 29 -7 11 -11
25 -10 29 1 5 -2 6 -6 3 -5 -3 -7 -18 -4 -33 2 -16 2 -26 -1 -23 -3 3 -7 18
-9 33 -3 16 -10 32 -17 36 -10 6 -9 10 4 14 10 5 14 3 9 -5 -4 -7 -3 -8 4 -4
9 5 9 13 2 27 -9 15 -7 19 5 19 15 0 15 1 1 16 -21 20 -20 24 5 19 16 -3 18
-1 10 9 -8 10 -7 17 4 26 13 11 14 10 9 -5 -6 -15 -4 -15 13 -5 17 11 23 10
41 -8 11 -11 18 -23 15 -25 -3 -3 2 -4 11 -3 8 1 18 5 22 9 4 4 13 -1 19 -10
10 -14 16 -15 27 -5 8 6 19 8 24 4 4 -4 2 2 -6 12 -13 17 -15 17 -18 3 -2 -10
-8 -17 -14 -17 -5 0 -8 6 -5 14 4 10 -3 13 -24 11 -16 -1 -32 2 -36 8 -3 6 -1
7 5 3 7 -4 12 -1 12 6 0 9 3 9 10 -2 8 -12 10 -12 11 5 0 15 2 16 7 5 10 -21
29 -23 36 -4 5 12 2 15 -11 10 -15 -6 -16 -5 -5 6 10 10 17 8 35 -12 12 -13
14 -18 5 -11 -12 9 -18 10 -18 3 0 -6 10 -16 21 -23 15 -8 19 -8 15 0 -12 19
36 6 50 -14 8 -10 14 -13 14 -7 0 16 22 11 38 -8 7 -8 12 -10 11 -5 -3 21 2
29 9 17 6 -9 12 -4 21 15 7 16 17 35 21 43 9 18 56 19 52 1 -1 -7 2 -10 7 -7
5 3 7 16 3 29 -5 19 -3 20 10 9 13 -10 18 -10 24 -1 4 8 3 9 -4 5 -7 -4 -12
-3 -12 1 0 5 9 14 21 21 12 8 18 9 15 3 -4 -5 -1 -13 5 -17 7 -4 9 -3 6 3 -4
6 1 19 9 29 9 10 13 14 10 7 -4 -6 -2 -15 4 -18 6 -4 10 -3 9 2 -4 21 2 32 15
27 12 -5 30 28 27 49 -1 5 3 6 9 2 7 -4 7 -13 -1 -28 -7 -15 -2 -13 15 8 14
17 26 35 26 40 1 6 7 -1 15 -15 15 -25 15 -24 11 15 -3 33 -2 36 9 22 6 -9 16
-13 20 -9 5 4 5 1 1 -6 -4 -7 -12 -9 -18 -6 -7 5 -8 2 -4 -5 5 -7 10 -10 13
-7 3 3 20 -2 37 -10 31 -15 31 -15 8 3 -13 10 -20 22 -16 26 4 4 14 1 22 -5
17 -15 44 -20 36 -7 -3 5 2 9 11 9 9 0 13 -4 10 -10 -3 -6 1 -7 10 -3 14 5 14
8 3 15 -9 7 -7 8 10 5 12 -3 20 -1 17 4 -8 11 24 59 39 59 7 0 7 -3 1 -8 -26
-19 -36 -40 -23 -48 7 -4 10 -4 6 1 -13 13 30 42 59 40 26 -1 28 2 29 32 0 18
-4 33 -9 33 -6 0 -8 3 -4 6 8 9 -16 33 -27 26 -5 -3 -6 0 -2 7 4 6 12 8 18 5
8 -5 9 -1 5 10 -4 10 -3 15 3 11 6 -3 10 -1 10 5 0 7 7 10 15 6 8 -3 19 2 24
12 9 16 11 15 25 -3 18 -23 19 -35 7 -54 -7 -11 -10 -10 -15 6 -6 19 -36 28
-36 11 0 -4 4 -8 8 -8 13 0 32 -48 26 -65 -4 -8 -1 -15 6 -15 6 0 8 5 5 10 -3
6 0 13 8 16 8 3 13 13 10 24 -3 10 -1 20 4 23 10 6 10 -40 0 -50 -18 -18 -4
-21 15 -3 14 13 24 16 29 9 4 -7 8 -5 13 6 3 9 10 14 15 10 6 -3 8 4 6 15 -3
14 0 20 8 17 7 -2 21 3 32 12 14 11 12 7 -4 -12 -14 -15 -21 -30 -18 -34 4 -3
7 -1 7 5 0 7 9 12 19 12 11 0 23 5 27 12 5 7 3 8 -6 3 -9 -5 -11 -4 -6 4 6 9
13 8 31 -3 17 -12 26 -13 31 -4 4 6 3 8 -3 5 -6 -4 -18 2 -27 12 -12 13 -14
21 -6 26 6 3 9 1 8 -6 -4 -15 50 -31 58 -17 4 7 2 8 -4 4 -7 -4 -12 -2 -12 4
0 6 -4 9 -9 5 -5 -3 -12 -1 -15 4 -3 4 2 8 12 7 9 0 19 4 20 9 2 6 9 16 15 23
6 7 6 12 1 11 -21 -4 -35 2 -29 11 3 6 2 10 -3 10 -6 0 -13 7 -16 16 -6 15 -4
15 10 3 16 -13 16 -12 4 11 -7 14 -18 29 -24 33 -7 6 -5 7 6 4 9 -3 21 0 27 7
8 10 4 12 -20 11 -16 -1 -32 1 -34 5 -2 3 8 6 23 7 15 0 37 3 50 7 14 5 22 3
22 -4 0 -6 -4 -8 -10 -5 -5 3 -10 1 -10 -4 0 -14 6 -14 31 0 11 5 16 15 13 21
-4 7 -3 8 5 4 6 -4 9 -11 6 -16 -3 -5 -1 -11 5 -15 5 -3 10 1 10 10 0 9 4 14
9 10 13 -8 19 26 9 53 -4 13 -4 21 0 18 5 -3 9 1 9 9 0 10 -5 11 -18 5 -12 -7
-21 -5 -29 5 -7 8 -16 12 -21 9 -5 -3 -9 0 -9 5 0 15 13 14 29 -1 8 -7 6 -2
-3 13 -14 22 -14 28 -2 45 11 14 11 22 3 32 -8 10 -4 20 17 40 28 27 28 27 21
4 -6 -21 -4 -23 15 -17 20 6 21 5 9 -8 -10 -10 -19 -12 -31 -6 -11 6 -18 6
-18 1 0 -6 9 -12 21 -15 17 -5 19 -9 9 -26 -7 -14 -7 -21 0 -21 5 0 10 7 10
16 0 8 5 12 10 9 6 -4 8 -10 6 -14 -3 -4 -1 -13 5 -21 6 -11 9 -12 9 -2 0 7 5
10 11 7 6 -4 13 3 16 15 3 12 11 19 19 16 9 -3 11 0 7 11 -4 11 -2 14 5 9 7
-4 12 -3 12 2 0 6 -7 12 -15 16 -9 3 -20 16 -25 28 -5 13 -9 17 -9 9 -1 -11
-5 -10 -17 5 -14 18 -15 18 -4 -4 15 -31 8 -36 -17 -12 -14 12 -19 27 -16 40
6 22 23 28 23 8 0 -9 4 -8 10 2 5 8 7 23 4 33 -3 9 0 17 6 17 6 0 8 5 4 13 -6
8 -3 8 9 -1 17 -15 18 -32 2 -44 -5 -4 0 -6 12 -5 12 0 19 5 17 9 -3 4 0 8 5
8 6 0 11 5 11 11 0 5 -4 7 -10 4 -5 -3 -10 -2 -10 3 0 15 28 22 34 9 3 -9 5
-9 5 0 1 6 -6 18 -14 26 -8 8 -12 17 -10 21 3 3 2 4 -2 1 -11 -9 -32 16 -26
31 4 11 -1 14 -21 10 -31 -5 -32 -3 -9 15 14 12 16 12 8 0 -5 -10 -4 -12 4 -7
6 4 9 12 5 17 -3 5 -9 7 -14 4 -5 -3 -11 -1 -15 5 -3 5 2 10 12 10 15 0 16 2
3 10 -9 6 -11 10 -3 10 7 0 10 7 6 17 -5 12 -3 14 8 8 12 -7 12 -6 1 7 -10 13
-10 17 0 21 10 4 10 6 -1 6 -11 1 -11 4 0 18 9 11 10 14 2 9 -9 -5 -11 -2 -7
8 3 9 9 14 13 11 4 -2 8 2 8 10 0 8 -4 12 -9 9 -4 -3 -8 0 -8 5 0 6 4 11 9 11
5 0 7 9 4 21 -4 12 0 25 8 30 11 7 10 9 -4 9 -17 0 -17 1 -3 16 18 17 21 28 6
19 -5 -3 -10 -2 -10 4 0 5 5 13 10 16 6 3 10 13 10 22 0 18 60 89 72 86 4 -2
8 2 8 7 0 6 -5 10 -11 10 -5 0 -8 4 -4 9 3 5 1 12 -5 16 -6 4 -8 11 -5 16 3 5
-1 6 -9 3 -9 -3 -16 -11 -16 -18 0 -6 -5 -4 -10 4 -5 8 -10 10 -10 5 0 -6 -9
-16 -21 -23 -12 -8 -18 -9 -14 -3 3 6 2 11 -4 11 -5 0 -12 -6 -14 -12 -4 -10
-8 -9 -16 2 -10 13 -15 8 -12 -12 2 -12 -6 -9 -23 8 -9 9 -16 11 -16 4 0 -6
-5 -8 -12 -4 -7 4 -8 3 -4 -5 6 -9 0 -10 -20 -5 -19 5 -25 4 -20 -5 4 -6 2
-11 -3 -11 -6 0 -11 4 -11 8 0 4 -9 8 -21 8 -21 0 -21 0 1 -18 12 -10 17 -18
12 -18 -6 0 -14 5 -17 10 -3 6 -17 8 -30 6 -14 -3 -27 0 -31 5 -3 6 -12 3 -21
-8 -8 -10 -11 -12 -8 -5 10 18 -26 12 -43 -8 -9 -10 -11 -10 -7 -2 6 11 3 12
-14 3 -11 -7 -21 -16 -21 -21 0 -5 -9 -7 -20 -5 -12 2 -24 -3 -29 -13 -6 -11
-20 -17 -38 -16 -15 0 -31 -4 -35 -10 -4 -6 -12 -12 -18 -12 -5 -1 -15 -2 -21
-3 -5 0 -8 -5 -4 -10 3 -5 0 -13 -6 -17 -7 -4 -9 -3 -5 4 4 6 -1 10 -13 9 -10
0 -17 -6 -14 -13 2 -6 -8 -14 -22 -18 -14 -4 -23 -10 -20 -15 2 -5 -2 -12 -11
-15 -8 -3 -12 -2 -9 4 3 6 1 10 -4 10 -6 0 -11 -5 -11 -10 0 -6 -12 -16 -27
-22 -16 -7 -39 -21 -52 -32 -13 -12 -21 -15 -16 -7 5 9 0 8 -17 -3 -14 -9 -29
-13 -33 -9 -5 5 -3 -1 5 -11 14 -18 14 -19 -9 -7 -15 8 -21 9 -17 2 4 -6 0
-11 -9 -11 -10 0 -13 -5 -9 -12 5 -8 0 -7 -11 2 -15 12 -17 12 -10 1 6 -11 4
-13 -8 -8 -10 4 -17 2 -17 -5 0 -21 -33 -38 -49 -25 -12 9 -13 9 -7 0 5 -9 0
-13 -14 -13 -12 0 -19 -4 -16 -8 3 -5 -13 -7 -34 -6 -22 1 -37 -2 -34 -7 3 -5
9 -7 14 -4 5 3 11 1 14 -4 4 -5 -2 -8 -11 -6 -10 1 -26 -7 -36 -19 -17 -20
-18 -20 -15 -1 2 11 8 23 13 27 6 5 5 8 -2 8 -7 0 -19 -13 -28 -30 -9 -16 -18
-30 -21 -30 -2 0 1 10 7 23 11 19 10 20 -3 10 -8 -7 -19 -9 -23 -5 -5 4 -5 1
0 -7 6 -11 3 -13 -13 -9 -19 5 -20 3 -12 -13 8 -15 7 -17 -5 -13 -8 4 -22 1
-30 -6 -8 -6 -19 -9 -25 -5 -6 3 -10 -4 -11 -17 -1 -20 -2 -20 -6 -4 -5 18 -6
18 -25 -5 -11 -13 -17 -18 -13 -11 7 14 -11 17 -20 2 -3 -5 -12 -10 -18 -10
-7 0 -6 4 3 10 9 6 10 10 3 10 -6 0 -15 -5 -19 -11 -3 -6 -14 -9 -24 -6 -13 3
-17 0 -13 -9 3 -9 -2 -14 -17 -14 -13 0 -19 -4 -14 -11 5 -8 -1 -10 -20 -7
-20 4 -26 2 -22 -9 4 -11 1 -11 -14 -3 -16 9 -18 8 -14 -5 4 -10 2 -15 -7 -13
-9 2 -13 -4 -11 -14 2 -10 -2 -18 -8 -18 -5 0 -9 3 -7 8 1 4 -2 7 -8 7 -5 0
-9 -4 -7 -8 1 -5 -2 -6 -7 -2 -6 3 -9 11 -7 18 1 7 1 9 -1 4 -3 -4 -9 -5 -14
-2 -5 4 -6 0 -3 -8 3 -8 -1 -14 -10 -14 -8 0 -13 5 -12 11 2 6 1 8 -1 4 -3 -5
-11 -8 -19 -8 -8 0 -14 -5 -14 -11 0 -5 5 -7 12 -3 7 5 8 3 3 -5 -5 -8 -11 -9
-17 -3 -11 11 -50 4 -43 -9 9 -13 -30 -30 -42 -18 -8 8 -13 7 -18 -2 -5 -8 -4
-10 3 -5 7 4 12 2 12 -3 0 -6 -9 -11 -21 -11 -13 0 -18 4 -13 12 4 7 3 8 -4 4
-7 -4 -12 -15 -12 -24 0 -15 -2 -15 -10 -2 -8 13 -10 12 -10 -2 0 -10 -5 -18
-11 -18 -5 0 -7 6 -4 13 4 6 -6 -1 -20 -18 -15 -16 -24 -24 -20 -16 5 9 1 9
-17 -3 -14 -9 -27 -14 -30 -11 -2 3 -5 -2 -5 -10 0 -11 4 -12 13 -4 9 7 14 6
20 -3 4 -7 4 -10 -1 -6 -4 4 -15 2 -23 -5 -12 -9 -16 -9 -19 1 -3 6 -9 12 -14
12 -6 0 -7 -4 -4 -10 9 -14 -8 -12 -24 3 -11 10 -12 9 -5 -3 13 -23 13 -39 2
-47 -6 -3 -8 -1 -5 4 4 6 0 16 -7 22 -11 9 -16 9 -22 0 -5 -8 -3 -9 6 -4 8 5
11 3 8 -6 -3 -8 -11 -13 -18 -11 -8 2 -10 -3 -7 -12 4 -9 1 -15 -6 -13 -7 1
-11 -3 -10 -9 1 -6 -5 -11 -13 -11 -11 0 -11 4 3 19 19 21 6 23 -21 3 -10 -8
-23 -12 -28 -9 -5 3 -8 2 -7 -3 4 -23 -1 -38 -10 -25 -6 11 -11 10 -25 -3 -9
-9 -14 -20 -12 -24 3 -4 -8 -6 -24 -5 -21 1 -27 -2 -23 -12 3 -10 0 -12 -10
-8 -8 3 -18 0 -23 -7 -4 -7 -3 -10 3 -6 5 3 10 0 10 -8 0 -8 -5 -11 -10 -8 -5
3 -12 2 -16 -3 -3 -5 -19 -15 -34 -22 -17 -7 -25 -17 -21 -24 5 -8 2 -9 -10
-5 -10 4 -15 3 -11 -3 5 -9 -15 -15 -37 -11 -4 0 -4 -7 -1 -16 4 -11 3 -14 -5
-9 -7 4 -12 3 -12 -2 0 -8 -24 -20 -52 -26 -3 0 -10 -5 -15 -10 -5 -5 -2 -6 6
-1 9 5 12 4 7 -3 -4 -7 -17 -17 -29 -24 -19 -10 -21 -9 -9 4 10 13 10 18 1 24
-8 4 -9 3 -5 -4 4 -7 1 -12 -8 -12 -8 0 -20 -8 -25 -17 -6 -10 -11 -13 -11 -7
0 6 -12 16 -26 22 -14 7 -23 8 -19 2 4 -6 -6 -8 -24 -6 -22 2 -28 0 -24 -11 3
-8 2 -13 -3 -12 -21 4 -35 -2 -29 -11 4 -6 -4 -9 -17 -7 -16 1 -22 -3 -20 -14
1 -9 -4 -16 -13 -16 -8 0 -12 4 -9 9 3 4 0 8 -5 8 -6 0 -11 -5 -11 -12 0 -6
-3 -8 -7 -5 -3 4 -12 -1 -20 -11 -13 -15 -13 -15 -8 8 l6 25 -14 -24 c-11 -18
-16 -20 -20 -10 -4 10 -6 10 -6 -3 -1 -9 -6 -20 -13 -24 -6 -4 -8 -3 -4 4 9
15 -14 20 -46 11 -16 -4 -28 -4 -28 0 0 4 -6 8 -14 8 -8 0 -12 -6 -10 -12 3
-6 -2 -12 -10 -12 -9 0 -12 6 -8 16 3 9 2 13 -3 9 -4 -4 -14 -3 -21 3 -9 7
-17 4 -28 -13 -9 -12 -16 -17 -16 -10 0 6 -7 12 -16 12 -11 0 -14 6 -10 18 5
14 4 14 -9 -2 -11 -15 -15 -16 -15 -5 0 16 -44 19 -57 4 -5 -4 -2 -5 6 0 10 5
12 4 7 -4 -4 -6 -12 -9 -17 -5 -5 3 -7 9 -4 14 3 5 1 11 -5 15 -5 3 -10 -1
-10 -9 0 -19 -16 -21 -26 -4 -5 7 -3 8 6 3 8 -5 11 -4 7 3 -4 5 -15 8 -25 5
-10 -2 -24 3 -31 11 -8 9 -22 16 -32 16 -11 0 -19 5 -19 11 0 8 -6 7 -17 -2
-10 -7 -8 -2 5 12 14 16 20 32 16 43 -3 9 -1 23 5 30 7 8 8 17 3 20 -7 4 -9
51 -2 51 1 0 3 8 5 18 2 9 0 15 -5 12 -5 -3 -7 10 -6 27 1 18 -2 41 -7 52 -6
13 -6 16 2 12 6 -4 11 -3 11 3 0 5 -6 12 -12 14 -10 4 -9 6 1 6 11 1 11 4 1
16 -9 11 -9 15 -1 15 8 0 9 5 2 19 -6 10 -8 21 -5 24 3 3 1 15 -6 26 -8 16 -8
21 1 21 8 0 9 4 0 13 -8 10 -7 17 2 27 9 10 9 11 0 6 -9 -5 -11 3 -9 28 1 20
-2 38 -8 40 -7 3 -6 8 3 14 8 6 9 12 3 16 -5 3 -9 28 -8 56 1 29 -2 50 -8 50
-6 0 -4 5 4 10 10 6 11 10 3 10 -7 0 -13 5 -13 11 0 5 4 8 8 5 11 -6 9 25 -3
43 -5 9 -4 12 3 7 12 -7 9 44 -4 65 -5 8 -3 9 6 4 9 -6 11 -4 5 5 -4 7 -8 48
-8 91 1 49 -3 76 -9 73 -6 -4 -6 2 1 13 6 11 8 23 6 25 -3 3 -7 36 -9 74 -2
38 -7 77 -11 86 -4 9 -4 22 0 28 3 5 0 10 -7 10 -9 0 -9 3 2 10 10 6 11 10 3
10 -7 0 -13 5 -13 11 0 5 4 7 10 4 6 -3 7 1 4 9 -3 9 -11 16 -18 16 -7 0 -7 3
-1 8 13 9 17 32 6 32 -5 0 -12 7 -15 16 -3 8 -2 12 4 9 5 -3 7 1 4 9 -3 8 -12
17 -20 20 -10 4 -13 13 -9 26 4 13 2 20 -6 20 -7 0 -4 7 7 15 14 11 15 14 3 9
-10 -3 -20 -1 -24 5 -3 6 -3 11 2 12 4 0 16 2 25 4 12 2 15 -3 13 -16 -2 -10
0 -19 6 -19 5 0 8 -3 6 -7 -1 -5 3 -9 8 -10 13 -4 14 17 2 40 -7 16 -6 17 10
9 18 -10 20 -4 14 50 -1 3 -9 8 -18 10 -14 3 -13 5 5 10 13 4 21 4 18 1 -3 -3
2 -12 10 -21 11 -11 18 -12 27 -3 6 6 8 11 4 11 -4 0 -2 10 4 23 l12 22 -24
-20 c-14 -12 -19 -13 -11 -4 13 17 12 45 -1 67 -5 7 -3 12 4 12 8 0 8 4 2 13
-6 6 -11 19 -11 27 -3 50 -9 88 -16 98 -4 7 -2 12 4 12 6 0 8 5 5 10 -12 20
-15 100 -4 100 8 0 8 4 2 13 -5 6 -9 28 -8 47 1 19 -3 41 -8 48 -6 7 -6 12 0
12 14 0 4 93 -11 102 -7 5 -8 8 0 8 6 0 11 7 11 15 0 8 -4 15 -9 15 -4 0 -8
14 -8 30 0 17 -4 30 -10 30 -5 0 -10 5 -10 11 0 5 6 7 13 3 6 -4 3 3 -8 16
-11 13 -14 20 -7 16 13 -8 17 10 4 18 -4 3 -6 21 -4 40 2 20 7 34 11 31 4 -2
8 2 8 10 0 8 -5 11 -11 8 -5 -4 -1 7 10 23 21 29 31 51 32 68 0 5 5 12 12 16
6 4 13 20 16 36 3 16 9 31 15 32 5 2 7 8 3 13 -3 5 0 9 7 9 8 0 8 4 1 13 -11
13 9 51 21 42 4 -3 5 -2 2 2 -3 3 3 15 12 25 16 18 16 19 -3 12 -15 -5 -14 -1
6 15 17 14 20 21 10 21 -9 0 -5 6 10 15 14 8 22 14 18 15 -4 0 4 12 18 27 13
14 23 33 22 42 -2 9 3 15 11 13 12 -3 12 0 1 13 -11 13 -10 15 4 9 11 -4 16
-2 14 7 -2 8 3 13 10 11 8 -1 11 2 8 7 -7 11 44 67 57 63 5 -1 6 2 2 8 -3 5
-1 10 6 10 7 0 9 3 5 7 -3 4 6 13 21 20 16 7 19 11 8 8 -15 -4 -11 2 13 25 19
16 38 28 43 24 5 -3 8 0 7 8 -2 7 3 12 10 10 6 -1 12 3 12 9 0 5 5 7 10 4 6
-4 9 -1 8 7 -2 7 3 12 10 10 8 -1 11 2 7 8 -4 6 7 15 24 21 17 6 31 16 31 21
0 6 -8 5 -17 -3 -15 -11 -16 -11 -6 1 16 17 57 25 47 8 -4 -7 -3 -8 5 -4 6 4
9 12 6 17 -4 5 2 9 12 9 10 0 26 7 36 14 19 15 24 31 5 20 -6 -4 -8 -3 -4 4 3
6 15 9 26 7 13 -3 20 2 21 13 0 10 3 12 6 5 3 -9 11 -7 26 7 12 12 28 18 39
14 13 -4 16 -1 12 10 -5 12 0 14 22 10 24 -4 26 -3 14 11 -12 14 -10 15 14 11
15 -3 24 -1 21 5 -4 5 -1 9 5 9 6 0 8 5 4 12 -5 7 -2 9 8 6 9 -4 24 5 39 23
13 16 30 29 37 29 7 0 10 5 7 10 -4 7 3 9 19 6 19 -3 23 -1 19 11 -5 12 -3 14
7 8 10 -6 12 -4 6 11 -6 16 -4 15 17 -4 18 -17 27 -20 32 -11 5 8 4 10 -3 5
-7 -4 -12 -3 -12 2 0 6 7 12 15 16 10 4 15 -1 15 -14 0 -22 15 -27 26 -9 4 8
9 7 16 -2 8 -11 9 -10 4 3 -8 27 21 50 46 37 16 -9 19 -8 13 2 -5 7 -4 10 3 5
6 -4 8 -14 5 -23 -4 -9 -2 -14 3 -10 6 3 10 -6 10 -21 -1 -17 4 -27 13 -27 8
0 15 -10 16 -22 1 -19 -1 -21 -14 -10 -14 11 -14 10 -2 -5 7 -10 20 -18 27
-18 8 0 14 -5 14 -11 0 -5 -5 -7 -12 -3 -7 4 -8 3 -4 -5 4 -6 12 -9 17 -6 5 4
9 2 9 -3 0 -24 40 -19 56 7 15 21 15 24 2 13 -13 -11 -18 -11 -24 0 -4 7 -4
10 1 6 15 -14 34 12 29 39 -5 25 -4 24 23 -8 15 -18 27 -37 25 -42 -1 -5 2 -6
8 -2 6 3 8 11 5 16 -4 5 5 5 20 -1 14 -5 24 -6 21 -1 -8 12 31 44 43 36 7 -3
8 0 5 9 -3 9 -11 13 -16 10 -6 -4 -5 3 1 15 9 16 9 21 0 21 -7 0 -9 3 -6 6 4
4 13 1 21 -5 12 -10 14 -9 12 11 -1 13 -5 29 -9 34 -3 6 0 11 8 11 8 0 12 -4
9 -8 -2 -4 5 -7 16 -6 26 2 26 14 0 22 -11 3 -20 11 -20 16 0 5 10 3 23 -6 13
-8 27 -12 30 -8 4 3 7 1 7 -5 0 -12 -18 -25 -38 -28 -21 -4 -29 -16 -14 -21
10 -4 9 -9 -4 -24 -13 -14 -15 -22 -7 -30 6 -6 10 -17 9 -23 -2 -6 -1 -7 2 -3
2 5 14 0 25 -10 19 -16 20 -16 8 0 -7 9 -10 17 -6 17 5 0 18 -8 29 -17 16 -14
18 -14 8 -2 -12 16 -7 29 10 29 5 0 6 -6 2 -12 -6 -10 -4 -10 7 0 18 17 34 15
19 -3 -16 -19 -3 -19 16 0 12 11 20 12 35 5 13 -7 19 -7 19 0 0 5 -7 10 -17
10 -22 0 -8 13 18 17 14 2 18 -1 13 -9 -6 -9 -3 -9 9 0 9 8 21 11 27 7 6 -4
10 -3 9 2 -4 21 2 24 19 12 15 -13 16 -12 4 3 -16 20 2 35 23 18 9 -8 15 -8
20 0 4 6 3 9 -2 8 -4 -2 -8 2 -8 7 0 6 4 9 8 7 5 -1 20 7 35 19 16 13 20 20 9
16 -10 -4 -16 -3 -12 2 3 5 0 13 -6 16 -5 4 -8 13 -5 21 3 8 -1 17 -9 20 -8 4
-12 10 -9 15 3 5 -2 6 -12 2 -15 -5 -15 -7 0 -15 9 -5 14 -14 10 -19 -3 -5 0
-16 6 -24 7 -8 10 -16 6 -16 -14 -3 -26 -7 -28 -9 -11 -8 -68 -6 -68 2 0 6 3
9 6 5 4 -3 13 1 21 9 8 8 19 11 25 8 6 -4 8 -1 6 7 -3 8 -10 13 -15 12 -5 -1
-10 5 -10 12 0 11 4 12 13 4 10 -8 13 -6 11 9 -1 16 -8 19 -39 17 -21 -1 -38
1 -38 5 0 4 17 8 38 8 76 2 75 1 60 20 -10 14 -8 13 9 -1 12 -11 26 -17 30
-14 13 8 39 -10 30 -20 -5 -4 -12 -1 -17 7 -7 11 -10 12 -10 2 0 -7 -5 -10
-11 -6 -7 4 -10 1 -7 -7 3 -8 14 -13 24 -11 18 2 18 2 2 -8 -10 -6 -18 -16
-18 -21 0 -6 5 -7 12 -3 7 4 8 3 4 -4 -4 -7 -1 -12 9 -12 9 0 13 4 10 10 -3 5
1 20 10 33 8 13 12 27 8 32 -5 4 -2 4 6 0 11 -6 13 -4 8 8 -4 11 -2 14 7 11 7
-3 20 2 29 10 13 14 16 14 22 -1 3 -10 3 -14 -1 -11 -10 11 -40 -9 -63 -41
-14 -19 -18 -32 -11 -36 6 -4 9 -3 8 2 -6 20 34 63 48 52 12 -10 13 -9 8 5 -4
11 -2 16 7 14 9 -2 13 5 12 22 -1 15 0 18 3 7 3 -9 9 -15 13 -13 4 3 13 0 21
-6 13 -8 13 -9 -1 -5 -8 3 -20 -3 -26 -12 -9 -14 -8 -18 3 -18 7 0 11 4 8 9
-3 4 0 8 7 8 6 0 9 -8 6 -20 -3 -11 0 -20 5 -20 6 0 17 -8 24 -17 10 -13 13
-14 14 -4 0 11 3 11 17 0 14 -12 15 -12 9 0 -7 10 -3 12 14 6 15 -5 20 -3 16
3 -6 10 30 28 47 24 5 -1 6 2 2 8 -3 6 -10 8 -15 5 -5 -3 -11 -1 -14 4 -4 5 2
8 11 6 10 -1 27 7 38 19 11 12 17 17 13 12 -17 -22 -6 -26 11 -5 14 17 16 28
9 36 -7 9 -5 15 7 19 12 5 13 9 5 14 -8 5 -5 14 12 30 12 13 17 19 10 15 -11
-6 -12 -3 -3 14 8 14 8 21 1 21 -6 0 -15 -10 -20 -22 l-9 -23 0 24 c-1 23 -2
23 -19 8 -10 -10 -22 -17 -27 -17 -5 0 0 7 11 16 19 15 19 16 -1 10 -17 -5
-18 -4 -4 6 8 7 21 22 28 33 12 19 12 19 6 -2 -5 -20 -4 -21 20 -10 14 7 23
17 21 23 -2 6 0 17 6 25 8 11 9 10 4 -3 -3 -10 -1 -18 5 -18 17 0 -2 -21 -28
-31 -14 -5 -23 -12 -20 -15 3 -3 21 2 41 11 19 9 40 13 47 9 7 -4 9 -3 6 2 -3
6 -2 16 3 24 5 9 4 20 -3 30 -11 13 -10 13 7 0 16 -13 20 -12 33 5 8 11 18 19
23 18 4 -1 6 6 3 17 -3 11 -9 17 -14 14 -5 -3 -6 2 -2 11 5 14 8 14 15 3 8
-10 11 -11 15 0 4 10 8 10 21 0 14 -12 14 -10 2 12 -12 23 -12 24 3 11 15 -12
17 -11 17 3 0 9 5 16 11 16 6 0 8 -8 5 -17 -6 -17 -5 -17 8 0 7 9 18 17 25 17
6 0 11 9 11 20 0 11 5 20 11 20 5 0 7 -6 3 -12 -4 -7 2 -5 13 5 11 9 22 14 26
11 4 -4 5 3 2 15 -4 20 9 27 38 22 5 -1 6 2 3 7 -3 5 6 19 19 30 27 23 32 42
13 42 -6 0 -8 3 -5 6 4 4 14 1 24 -7 11 -9 14 -10 9 -1 -4 6 -3 12 3 12 6 0
14 12 17 26 5 19 9 22 15 12 7 -10 9 -9 9 4 0 10 9 22 21 28 11 7 18 18 15 25
-3 9 0 12 10 8 8 -3 14 1 14 11 0 10 6 13 15 9 10 -3 15 0 13 8 -2 8 3 13 10
12 6 -2 12 2 12 8 0 5 6 7 13 3 10 -6 10 -4 0 7 -7 7 -13 18 -13 24 0 5 4 4 9
-4 5 -7 14 -10 20 -7 6 4 8 12 5 18 -5 7 -1 9 8 5 9 -3 23 2 33 13 13 14 13
19 3 23 -10 4 -10 6 1 6 8 1 20 9 28 19 10 11 12 12 8 2 -4 -8 1 -6 9 4 9 11
16 27 16 35 0 14 1 14 10 1 8 -13 10 -12 10 4 0 11 3 16 7 13 8 -9 44 44 37
55 -3 4 3 8 12 8 10 0 15 3 12 6 -4 3 2 14 13 25 11 11 17 24 14 29 -3 5 3 11
14 15 13 4 18 13 16 25 -2 11 1 19 8 17 7 -1 11 4 9 11 -1 6 3 12 9 12 5 0 7
5 4 10 -3 6 1 13 9 16 9 3 14 10 11 14 -3 5 2 16 11 24 8 9 12 16 8 16 -4 0 1
7 12 16 10 8 13 13 7 9 -9 -4 -11 -1 -7 10 4 9 13 14 20 11 9 -3 11 0 7 11 -5
12 -3 14 8 8 12 -8 12 -6 0 8 -11 14 -11 18 3 23 9 3 13 10 10 15 -3 6 0 16 6
24 10 12 10 15 -1 15 -11 0 -11 3 1 11 12 8 10 10 -10 5 l-25 -5 25 20 c14 12
19 18 13 14 -7 -3 -13 -2 -13 4 0 6 -7 8 -15 5 -8 -4 -13 -10 -10 -14 3 -5 1
-12 -5 -15 -6 -4 -10 -3 -9 2 3 19 -2 34 -9 29 -5 -3 -9 0 -9 7 0 7 -2 17 -3
22 -5 21 1 36 12 29 7 -4 8 -3 4 5 -4 6 -12 8 -18 5 -7 -5 -9 -2 -5 8 7 19
-11 38 -35 38 -10 0 -18 5 -18 10 0 6 -5 10 -11 10 -5 0 -7 -5 -3 -12 5 -7 3
-8 -6 -3 -10 6 -9 11 6 23 18 13 18 14 -5 7 -16 -5 -21 -4 -17 4 4 6 4 11 -1
10 -20 -3 -34 2 -28 11 6 9 -8 15 -29 11 -5 -1 -3 6 5 15 13 16 12 16 -8 5
-21 -10 -23 -9 -23 10 0 18 -2 19 -15 9 -8 -7 -12 -17 -8 -24 3 -6 2 -7 -2 -3
-13 11 -15 38 -3 31 7 -4 8 -2 4 5 -6 9 -11 9 -21 1 -10 -8 -14 -7 -17 2 -4
10 -8 10 -19 1 -12 -10 -17 -8 -28 9 l-14 22 -20 -25 c-11 -13 -18 -17 -15 -8
4 9 2 22 -3 30 -7 11 -9 11 -9 -2z m-250 -134 c6 -4 14 -4 18 0 3 3 0 10 -8
15 -8 6 -10 10 -4 10 5 0 21 -14 33 -31 13 -18 19 -29 12 -25 -6 4 -11 2 -11
-5 0 -6 8 -9 19 -6 10 2 18 -1 17 -7 0 -6 4 -11 9 -11 6 0 9 2 8 5 0 3 5 11
12 17 12 11 13 8 11 -15 -3 -21 0 -28 14 -28 10 0 16 6 13 13 -3 7 -10 10 -17
6 -7 -3 -6 -1 1 7 11 12 16 11 29 -6 8 -10 13 -13 9 -6 -5 10 0 11 19 6 15 -3
32 -1 40 5 10 8 16 5 25 -15 6 -15 7 -23 1 -19 -16 10 -12 -4 8 -26 10 -10 19
-35 20 -53 2 -46 5 -60 17 -68 6 -5 5 -8 -2 -8 -7 0 -10 -7 -7 -17 5 -17 5
-17 -6 -1 -6 9 -17 15 -25 12 -8 -4 -15 -1 -15 4 0 6 9 9 19 7 19 -3 23 16 7
32 -4 4 -7 4 -6 -2 5 -22 -1 -27 -15 -15 -13 11 -38 18 -81 22 -15 2 -13 25 2
25 7 0 11 -3 9 -7 -3 -4 9 -6 26 -4 16 2 28 0 25 -4 -3 -5 1 -9 8 -9 8 0 11 8
8 19 -5 20 14 25 21 6 3 -7 4 -3 4 9 -1 12 -5 19 -9 17 -4 -3 -5 1 -2 9 3 8 1
18 -5 22 -11 6 -15 -7 -12 -34 2 -8 -2 -10 -10 -5 -7 4 -10 3 -5 -4 4 -7 -7
-9 -34 -7 -22 2 -43 -1 -46 -6 -3 -5 -10 -9 -16 -9 -7 0 -6 5 1 14 9 11 9 16
0 22 -7 4 -9 3 -5 -4 10 -17 -10 -23 -24 -7 -6 7 -18 11 -26 8 -9 -3 -12 0 -9
8 4 10 -5 14 -34 14 -22 1 -37 -3 -35 -7 3 -5 10 -5 16 -2 7 4 8 2 4 -5 -5 -7
-13 -8 -23 -2 -18 10 -53 3 -53 -10 0 -5 -8 -9 -17 -9 -16 1 -16 2 1 15 11 8
15 15 9 15 -7 0 -18 -6 -25 -12 -7 -7 -20 -14 -28 -16 -8 -1 -4 7 10 18 14 11
21 20 16 20 -5 0 -1 8 8 19 15 16 15 19 1 24 -8 4 -15 11 -15 17 0 6 7 4 16
-5 15 -14 17 -14 31 2 8 10 12 13 9 6 -11 -21 26 -7 44 17 17 22 17 22 22 2 3
-11 15 -25 27 -31 17 -10 20 -9 15 4 -4 9 -9 13 -12 10 -3 -3 -11 5 -18 17 -7
13 -21 23 -31 23 -10 0 -17 6 -15 13 1 8 -2 11 -9 6 -8 -4 -9 -3 -5 4 4 7 2
12 -3 12 -14 0 -14 -13 0 -27 9 -9 7 -12 -10 -10 -14 1 -20 6 -16 15 3 8 0 21
-6 28 -9 12 -9 13 4 9 8 -4 18 -1 23 6 5 9 9 6 15 -8 4 -12 13 -24 19 -28z
m-836 -1176 c-10 -4 -15 -8 -10 -8 5 -1 3 -8 -4 -16 -10 -12 -10 -18 -1 -29
14 -16 -3 -17 -28 -1 -10 5 -16 4 -19 -3 -2 -7 -9 -9 -14 -6 -7 4 -8 2 -4 -4
4 -6 14 -8 24 -5 15 6 15 5 3 -11 -8 -9 -10 -16 -5 -14 5 2 9 -1 10 -7 0 -5
-9 -9 -20 -7 -12 2 -17 -1 -11 -5 21 -16 11 -38 -17 -36 l-26 2 23 -25 c20
-22 25 -54 8 -54 -3 0 -2 7 1 16 5 12 1 14 -16 8 -20 -6 -21 -5 -10 9 10 12
10 17 1 23 -7 4 -9 3 -5 -4 3 -6 2 -13 -4 -17 -13 -8 -9 -55 5 -55 5 0 2 -5
-8 -11 -17 -10 -15 -29 4 -29 6 0 7 6 3 13 -5 7 0 6 11 -3 16 -14 17 -13 11 7
-5 16 -2 23 14 28 11 4 17 11 14 17 -4 6 -2 8 4 4 6 -3 9 -15 7 -25 -2 -12 5
-22 22 -30 14 -7 23 -15 19 -18 -3 -3 -1 -12 4 -18 14 -17 -16 -43 -31 -28 -8
8 -7 11 2 10 19 -3 23 16 5 19 -7 1 -23 -11 -35 -27 -21 -28 -50 -34 -68 -14
-5 4 -2 5 5 1 6 -4 12 -3 12 3 0 5 3 18 7 28 6 16 4 16 -16 -2 -13 -11 -26
-19 -30 -18 -3 1 -8 -1 -11 -4 -3 -4 1 -3 8 1 6 4 12 2 12 -3 0 -13 -17 -14
-24 -2 -13 20 5 42 23 29 9 -7 13 -8 9 -4 -4 5 -2 16 5 24 10 13 9 14 -2 7 -8
-5 -12 -4 -8 1 3 6 -4 10 -16 11 -12 0 -16 -1 -9 -4 10 -4 10 -8 1 -19 -14
-18 -30 -9 -22 13 4 10 2 14 -4 10 -5 -4 -19 0 -29 8 -19 15 -19 15 0 8 13 -4
17 -3 12 5 -3 6 -1 14 5 17 5 4 8 14 4 22 -4 13 -3 14 10 3 16 -13 15 -14 19
43 1 17 7 22 26 20 15 -2 19 0 10 4 -8 3 -21 13 -28 22 -8 9 -11 11 -8 4 4 -6
1 -15 -5 -19 -8 -4 -9 -3 -5 4 4 7 2 12 -3 12 -6 0 -11 -4 -11 -10 0 -5 -5
-10 -11 -10 -5 0 -7 5 -4 10 6 9 -8 14 -28 11 -5 -1 -6 3 -2 9 4 6 12 7 24 1
21 -12 35 -3 39 24 2 19 2 19 -12 2 -12 -15 -18 -17 -33 -8 -17 11 -17 11 2 9
11 -2 20 3 21 10 1 6 2 18 3 25 1 7 5 6 12 -5 6 -11 16 -15 27 -11 16 6 16 5
-1 -14 -16 -19 -16 -20 7 -31 21 -9 24 -9 19 3 -3 8 -10 12 -15 9 -6 -4 -9 -1
-6 7 3 8 11 14 18 14 7 0 16 9 20 20 7 19 7 19 18 0 6 -11 11 -15 12 -10 0 17
-14 32 -31 32 -11 0 -15 -6 -11 -20 3 -13 1 -18 -6 -14 -5 4 -9 15 -7 25 2 9
4 24 5 32 1 12 3 11 8 -3 7 -16 9 -16 44 2 19 11 38 18 40 15 3 -2 10 2 17 10
7 8 21 12 33 8 21 -5 21 -6 2 -13z m-1967 -2781 c-4 -13 -1 -18 8 -15 7 3 22
-1 34 -9 11 -8 21 -11 21 -6 0 6 7 13 16 16 14 5 15 4 4 -9 -10 -12 -9 -16 5
-21 10 -4 21 -1 27 7 6 10 7 6 2 -11 -6 -22 -5 -23 10 -11 9 8 19 11 23 7 3
-3 1 -6 -6 -6 -7 0 -9 -5 -6 -10 4 -6 10 -8 15 -5 5 3 12 1 15 -5 4 -6 1 -9
-6 -8 -6 2 -14 -3 -17 -11 -3 -10 0 -11 9 -5 12 6 12 5 1 -8 -10 -13 -10 -17
0 -22 7 -3 4 -4 -7 -3 -12 1 -21 -5 -23 -18 -5 -28 -18 -39 -27 -24 -6 8 -4
10 5 4 10 -6 11 -2 6 19 -4 18 -3 25 3 21 7 -3 8 0 5 9 -3 9 -10 16 -16 16 -5
0 -6 -4 -3 -10 3 -5 -3 -10 -14 -10 -12 0 -21 4 -21 9 0 5 -9 13 -20 16 -11 3
-20 11 -20 16 0 6 5 7 10 4 6 -3 10 -2 10 4 0 5 -6 12 -12 15 -9 4 -8 5 2 5
35 -3 51 2 45 11 -4 6 -11 7 -17 4 -6 -4 -14 -1 -18 6 -4 7 -18 13 -31 14 -17
1 -23 7 -23 28 -1 14 2 24 7 21 5 -3 6 -14 4 -25z m143 -253 c11 2 18 0 15 -4
-2 -5 4 -19 16 -32 11 -12 17 -29 14 -37 -4 -10 0 -12 12 -8 17 6 17 5 1 -8
-10 -7 -18 -18 -18 -24 0 -6 -13 -9 -30 -7 -16 2 -30 -1 -30 -6 0 -5 -5 -9
-11 -9 -8 0 -8 5 1 15 15 18 0 20 -20 3 -12 -11 -12 -10 -2 3 10 13 9 19 -2
28 -8 7 -13 23 -10 37 3 17 1 23 -6 19 -7 -4 -6 1 1 13 7 12 17 18 21 16 4 -3
8 3 8 13 1 17 1 17 10 1 6 -10 19 -15 30 -13z m43 -162 c-17 -6 -16 -28 2 -43
18 -15 20 1 3 18 -7 7 -9 12 -4 12 19 0 39 -32 26 -40 -8 -5 -17 -7 -20 -5 -4
2 -7 -2 -7 -11 0 -9 7 -12 17 -9 23 7 44 -39 30 -66 -8 -13 -8 -19 0 -19 6 0
14 10 19 22 l8 22 5 -22 c4 -12 1 -20 -4 -19 -6 1 -12 -3 -15 -10 -3 -8 3 -11
16 -8 25 5 38 -12 22 -28 -9 -9 -11 -8 -6 5 5 12 2 16 -11 14 -10 -2 -20 -9
-22 -16 -3 -7 -1 -10 4 -7 5 2 15 -1 22 -9 8 -9 9 -14 2 -14 -6 0 -8 -4 -5
-10 3 -5 0 -7 -7 -5 -21 8 -23 -54 -3 -69 14 -10 14 -12 -4 -12 -11 0 -18 4
-15 7 2 4 0 10 -5 13 -10 7 -9 -13 1 -29 11 -17 -16 -42 -40 -38 -13 2 -35 -6
-49 -17 -14 -11 -29 -17 -34 -14 -12 7 -11 34 1 34 5 0 7 -7 4 -15 -8 -21 -2
-19 32 10 16 14 35 23 42 20 7 -3 10 0 7 6 -4 6 -14 8 -22 5 -11 -5 -13 -2 -9
10 6 15 4 15 -10 3 -16 -13 -16 -12 -5 9 7 13 17 20 23 15 7 -3 1 8 -11 26
-17 24 -21 35 -12 44 6 6 11 7 11 2 0 -6 5 -3 11 5 9 13 10 13 6 0 -2 -8 -10
-14 -16 -12 -13 2 -15 -14 -2 -23 5 -3 18 5 28 18 10 13 25 21 33 19 8 -3 12
-1 8 3 -4 4 -3 15 2 25 15 27 -18 53 -44 35 -10 -8 -23 -12 -29 -8 -5 3 -14
-1 -19 -8 -8 -11 -9 -11 -5 2 7 21 -11 39 -32 32 -11 -3 -10 -1 3 8 15 9 20 9
28 -5 6 -11 17 -14 36 -10 15 3 33 6 40 6 11 1 18 18 8 18 -2 0 -13 3 -23 6
-13 4 -14 3 -5 -4 11 -7 11 -10 -2 -15 -10 -4 -16 -1 -16 8 0 7 -4 16 -9 19
-5 4 -7 -3 -4 -14 3 -11 0 -20 -6 -20 -6 0 -12 7 -12 15 -3 29 -4 33 -12 42
-5 4 -7 4 -5 -2 2 -5 -1 -11 -6 -12 -5 -1 -12 -7 -16 -13 -4 -7 -7 -1 -7 15 0
19 2 23 8 14 5 -8 9 -12 10 -9 0 3 2 13 4 23 2 10 12 25 22 34 14 11 14 14 2
10 -9 -3 -16 1 -16 8 0 10 5 11 19 4 14 -7 18 -6 18 6 0 10 -5 13 -12 9 -6 -4
-8 -3 -5 2 3 5 16 10 29 11 13 0 17 -1 11 -4z m-587 -122 c-3 -5 1 -12 9 -15
12 -4 13 -10 6 -25 -6 -10 -7 -21 -4 -25 4 -4 8 -12 9 -19 1 -7 5 -21 9 -32 4
-11 3 -16 -2 -10 -12 14 -50 14 -50 0 0 -7 8 -10 18 -8 20 6 34 -13 18 -23 -7
-4 -9 -3 -5 4 4 7 -2 9 -19 6 -17 -3 -25 0 -24 8 3 24 -1 38 -10 38 -5 0 -8
-16 -8 -35 1 -24 6 -34 16 -32 7 1 16 -4 19 -12 3 -10 0 -12 -12 -8 -23 9 -20
0 5 -14 17 -9 20 -8 14 2 -6 8 -4 10 4 4 10 -6 11 -3 2 13 -15 29 -14 37 4 22
11 -9 19 -9 28 -2 10 8 13 6 14 -9 2 -16 -3 -19 -20 -14 -21 6 -22 6 -3 -9 11
-9 14 -16 7 -16 -7 0 -10 -3 -8 -7 2 -5 -2 -21 -9 -38 -7 -16 -13 -24 -14 -17
0 7 5 22 10 32 7 13 7 21 0 25 -5 3 -10 -1 -10 -10 0 -10 -5 -13 -12 -9 -8 5
-9 1 -5 -12 7 -18 6 -18 -7 -1 -11 14 -15 15 -20 5 -3 -7 -3 -2 0 11 5 17 3
21 -6 16 -20 -12 -60 -14 -60 -3 0 5 8 7 18 4 13 -4 19 -1 19 9 0 10 -6 13
-19 9 -17 -5 -23 5 -19 30 1 5 -4 6 -12 3 -8 -3 -20 -1 -28 5 -11 8 -11 9 3 4
20 -6 35 10 16 17 -7 2 -5 3 5 1 9 -1 22 6 27 17 7 13 7 19 0 19 -5 0 -10 -4
-10 -10 0 -5 -5 -10 -11 -10 -8 0 -8 5 1 15 9 10 9 15 1 15 -6 0 -11 5 -11 11
0 6 9 4 22 -5 14 -10 27 -12 38 -6 9 5 22 5 31 -1 26 -17 34 -8 10 12 -13 11
-21 22 -18 26 4 3 16 -5 27 -18 13 -15 20 -18 18 -9 -1 8 3 25 10 38 14 24 12
25 -12 16 -9 -3 -13 -11 -9 -18 3 -6 2 -7 -2 -3 -15 13 -14 36 1 30 8 -3 14
-2 13 3 -2 14 0 24 7 24 3 0 3 -4 0 -9z m672 -253 c-12 -7 -4 -12 15 -9 5 1 5
-4 1 -10 -5 -9 -2 -10 9 -6 10 4 16 2 14 -6 -1 -7 4 -11 12 -9 11 2 12 0 3
-11 -7 -8 -8 -18 -4 -22 4 -5 1 -5 -5 -1 -9 5 -13 1 -13 -11 0 -11 -6 -25 -12
-31 -10 -10 -10 -15 2 -22 10 -7 11 -10 3 -10 -7 0 -13 -5 -13 -11 0 -5 6 -7
13 -3 6 4 9 3 4 -1 -4 -5 6 -23 23 -40 27 -28 28 -32 11 -30 -12 1 -24 5 -28
10 -5 4 -2 5 6 0 9 -5 12 -3 9 6 -5 15 -58 21 -58 6 0 -5 7 -6 16 -3 11 4 15
2 11 -8 -3 -8 -1 -17 6 -20 9 -3 8 -5 -1 -5 -7 -1 -24 10 -37 24 -27 26 -31
25 -14 -7 11 -20 11 -20 -15 -2 -23 18 -38 43 -17 29 6 -3 8 6 5 21 -3 15 -1
23 5 20 10 -7 7 26 -4 44 -7 12 -26 14 -23 3 1 -5 -3 -18 -10 -30 -7 -13 -8
-24 -3 -28 5 -3 12 4 16 15 3 11 11 20 16 20 5 0 3 -10 -5 -22 -15 -23 -16
-26 -16 -50 0 -7 -6 -5 -17 4 -10 9 -28 14 -41 12 -19 -3 -21 -2 -10 10 9 10
15 11 20 2 4 -6 8 -7 8 -1 0 5 5 4 12 -3 19 -19 33 -14 16 6 -9 9 -13 24 -10
32 4 12 3 13 -10 3 -8 -7 -18 -10 -21 -6 -4 3 -9 -2 -13 -11 -3 -9 -10 -16
-15 -16 -5 0 -4 9 3 20 7 11 19 18 26 15 7 -2 17 5 22 18 8 19 9 20 9 3 1 -20
16 -13 16 7 0 7 10 13 22 13 12 1 20 -3 17 -7 -3 -5 -3 -9 0 -9 2 0 12 -3 22
-7 13 -5 15 -3 8 8 -12 19 -14 39 -4 39 4 0 8 11 8 24 0 18 -5 23 -19 21 -23
-5 -23 -2 -4 34 8 16 11 32 7 37 -4 5 3 0 16 -10 17 -15 19 -22 10 -28z
m-3007 -232 c-9 -11 -9 -20 -2 -34 6 -11 7 -23 3 -27 -4 -4 3 -6 15 -3 12 3
22 3 21 -1 -2 -17 3 -21 16 -9 8 7 11 18 8 23 -3 6 1 4 10 -3 17 -14 45 7 30
23 -4 5 -1 5 6 1 11 -6 10 -12 -4 -27 -16 -18 -16 -19 2 -20 11 0 14 -3 6 -6
-7 -3 -19 0 -26 7 -11 8 -17 6 -29 -10 -12 -17 -16 -18 -20 -6 -3 8 -13 13
-21 12 -22 -3 -29 -13 -15 -22 7 -4 10 -3 6 3 -3 5 0 10 8 10 19 0 19 -13 0
-21 -8 -3 -14 -11 -13 -18 2 -7 -4 -13 -12 -13 -9 0 -29 -13 -45 -28 -17 -15
-34 -27 -38 -27 -5 0 -6 -8 -2 -17 5 -14 3 -15 -6 -6 -6 6 -18 9 -25 6 -8 -3
-14 0 -14 6 0 6 3 10 8 10 19 -3 32 3 63 32 22 20 26 27 12 20 -12 -6 -25 -16
-28 -21 -3 -5 -16 -15 -27 -21 -18 -10 -20 -9 -15 5 4 9 3 16 -2 16 -9 0 -24
-38 -22 -53 1 -5 -4 -5 -10 -2 -7 5 -8 10 0 18 7 7 7 15 -2 26 -9 12 -9 13 1
7 11 -7 17 5 13 28 -1 5 4 4 12 -2 16 -14 28 -6 20 14 -3 8 -10 11 -17 7 -6
-3 -7 -2 -3 2 10 12 38 15 32 4 -4 -5 1 -6 9 -3 9 3 14 10 11 15 -6 9 35 34
52 31 6 -1 10 6 9 15 -2 10 -1 12 1 5 3 -7 9 -10 14 -7 5 4 5 14 -2 26 -10 19
2 49 18 49 3 0 0 -6 -6 -14z m1358 -606 c16 0 21 -15 9 -30 -8 -12 -9 -12 -4
3 3 11 0 17 -9 17 -8 0 -18 0 -22 1 -4 0 -9 -5 -12 -12 -2 -7 2 -9 10 -5 8 4
4 -1 -9 -12 -15 -14 -18 -22 -10 -25 7 -2 5 -3 -5 -1 -13 2 -17 -2 -13 -12 6
-16 -30 -39 -38 -25 -4 5 -3 17 1 28 6 15 4 16 -9 6 -8 -7 -18 -10 -21 -6 -4
3 -7 0 -7 -7 0 -7 -3 -10 -6 -7 -4 4 -1 13 6 22 7 8 9 15 4 15 -5 0 -2 5 6 10
11 8 8 9 -12 4 -24 -5 -27 -3 -23 15 2 12 0 21 -6 21 -9 0 -13 -14 -10 -38 2
-10 -5 -9 -23 4 -14 9 -26 21 -26 26 0 6 6 6 14 -1 11 -9 16 -9 22 0 4 8 3 9
-4 5 -8 -5 -10 -1 -5 9 3 9 9 13 12 8 3 -5 16 -8 29 -7 12 1 25 -3 29 -9 3 -6
1 -7 -5 -3 -7 4 -12 1 -12 -6 0 -22 46 -19 47 3 1 11 -2 17 -7 14 -5 -3 -11
-1 -14 4 -7 11 13 9 32 -3 7 -4 19 -3 26 3 7 6 17 7 21 3 5 -4 5 2 2 13 -6 18
-5 18 12 -2 11 -13 24 -23 30 -23z m1031 -309 c-13 -25 -13 -31 0 -31 6 0 10
7 10 16 0 10 6 14 15 11 8 -4 17 -1 21 5 9 14 25 -13 19 -33 -3 -9 1 -16 10
-16 8 0 14 7 13 16 -2 9 3 15 11 13 9 -2 11 3 7 13 -3 10 -2 13 5 10 5 -4 7
-16 3 -28 -6 -20 -5 -20 10 -8 15 12 16 12 10 -5 -6 -16 -5 -17 7 -6 7 6 17
12 23 12 5 0 2 -6 -9 -13 -10 -8 -15 -18 -12 -24 3 -5 0 -10 -8 -11 -8 -1 -21
-3 -29 -4 -16 -2 -16 -40 1 -51 6 -4 9 -20 6 -38 -3 -21 -1 -29 6 -24 6 3 11
12 11 19 0 8 7 19 15 26 11 9 12 17 5 30 -13 24 -13 33 -1 25 6 -3 8 3 6 15
-2 11 1 23 7 26 7 5 8 2 3 -6 -6 -10 -4 -12 11 -6 15 6 17 5 7 -5 -7 -7 -13
-17 -13 -22 0 -4 6 -5 13 -1 10 6 10 4 0 -7 -18 -18 -16 -34 1 -20 11 9 16 9
22 0 4 -8 3 -9 -4 -5 -7 4 -12 1 -12 -9 0 -9 -4 -14 -9 -11 -11 7 -47 -32 -38
-41 4 -3 7 0 7 8 0 12 2 11 11 -1 9 -13 10 -12 5 3 -4 12 -2 16 6 11 7 -4 8
-3 4 4 -5 8 -1 10 9 5 13 -5 14 -7 3 -14 -11 -7 -10 -11 2 -19 12 -8 9 -9 -12
-6 -24 4 -26 2 -23 -22 2 -18 8 -27 19 -26 22 2 20 -3 -6 -17 -13 -6 -20 -8
-16 -4 8 9 -14 35 -25 28 -4 -2 -3 -12 3 -23 8 -15 6 -17 -10 -13 -11 3 -23
10 -27 16 -3 5 -14 0 -25 -14 -15 -19 -18 -20 -14 -5 5 15 2 17 -14 13 -11 -3
-17 -1 -14 4 3 6 15 9 26 7 12 -2 23 2 25 8 2 7 -4 11 -14 10 -13 -1 -17 5
-16 22 2 12 -2 22 -7 22 -6 0 -10 -5 -10 -11 0 -5 -4 -7 -10 -4 -5 3 -10 14
-10 24 0 10 -7 24 -15 31 -8 7 -15 17 -15 23 0 5 9 -2 20 -16 11 -14 20 -30
20 -37 0 -6 5 -8 11 -5 7 5 5 15 -5 31 -9 13 -16 27 -16 31 0 4 5 0 11 -9 5
-10 15 -18 21 -18 7 0 6 5 -2 15 -10 12 -10 15 1 16 8 0 5 4 -6 8 -11 5 -28 7
-38 5 -10 -2 -15 1 -12 7 4 5 11 6 17 3 8 -5 9 -1 5 12 -7 18 -6 18 7 2 16
-22 30 -23 46 -3 8 9 9 15 2 15 -6 0 -14 -5 -18 -11 -4 -7 -14 0 -25 18 -10
15 -19 24 -19 18 0 -5 -5 -2 -11 7 -9 17 3 58 17 58 2 0 0 -9 -6 -19z m485
-151 c-18 -20 -5 -57 15 -45 5 3 12 0 16 -6 5 -8 3 -9 -6 -4 -10 6 -12 4 -7
-9 4 -10 3 -15 -3 -11 -10 6 -12 -1 -12 -45 -1 -28 -25 -50 -48 -43 -9 3 -8 0
3 -7 14 -9 22 -9 30 -1 7 7 15 7 26 -2 12 -10 14 -9 8 5 -5 15 -3 16 18 6 16
-7 22 -15 16 -22 -18 -24 -1 -84 20 -70 5 3 9 0 9 -5 0 -14 -13 -14 -28 1 -8
8 -12 8 -12 1 0 -15 27 -36 38 -29 6 3 17 -4 25 -17 13 -21 13 -25 -10 -52
-14 -17 -22 -23 -18 -15 5 8 15 23 23 33 10 11 11 17 4 17 -7 0 -12 7 -12 16
0 8 -5 12 -10 9 -6 -4 -17 -1 -25 5 -18 15 -20 -1 -3 -18 10 -10 8 -16 -6 -30
-11 -9 -16 -11 -12 -4 4 6 2 12 -3 12 -6 0 -11 5 -11 11 0 8 5 8 15 -1 9 -7
15 -8 15 -2 0 14 -52 46 -73 45 -9 -1 -15 3 -11 8 3 6 13 8 22 4 13 -5 12 -2
-3 15 -18 20 -18 21 1 36 18 15 18 15 -3 11 -13 -3 -26 -1 -29 5 -4 6 -10 5
-16 -3 -6 -10 -7 -7 -3 10 6 18 4 22 -6 15 -12 -6 -12 -5 0 9 15 18 3 23 -17
7 -6 -6 -10 -7 -7 -4 2 4 0 15 -6 26 -9 17 -8 18 10 9 29 -16 35 -14 20 7 -11
14 -11 15 1 5 19 -18 35 -16 21 1 -9 10 -9 16 -1 21 6 4 9 13 6 21 -7 19 4 18
21 -3 14 -17 14 -17 9 0 -4 12 -2 16 5 11 7 -4 10 -1 7 7 -3 8 -14 13 -24 12
-10 -1 -13 0 -6 3 6 3 9 10 6 15 -5 9 22 49 34 49 3 0 -3 -9 -13 -20z m-60
-2850 c3 -5 1 -10 -6 -10 -8 0 -8 -4 1 -15 7 -8 16 -13 20 -10 5 3 11 2 14 -3
2 -4 -4 -9 -15 -9 -10 -1 -19 3 -19 8 0 6 -5 7 -10 4 -8 -5 -7 -11 1 -21 6 -7
15 -12 19 -9 5 3 11 1 14 -4 3 -5 -10 -7 -30 -5 -30 3 -34 1 -24 -11 6 -8 9
-19 6 -24 -4 -5 -1 -13 5 -17 7 -4 9 -3 6 2 -3 5 3 10 13 10 11 0 16 -5 12
-15 -3 -7 3 -20 13 -27 10 -8 14 -14 8 -14 -7 0 -15 5 -18 10 -3 6 -11 10 -17
10 -6 0 -6 -6 2 -16 11 -12 10 -18 -5 -32 -11 -10 -15 -11 -10 -3 6 10 4 12
-4 7 -19 -12 -2 -27 19 -16 25 13 30 13 30 -4 0 -18 27 -29 34 -13 3 9 5 9 5
0 1 -6 -3 -15 -9 -18 -5 -3 -10 -11 -10 -17 0 -7 4 -7 13 -1 17 14 44 12 44
-3 0 -7 -3 -11 -7 -9 -3 2 -11 -5 -18 -16 -13 -21 -3 -26 16 -7 7 7 12 9 12 5
0 -4 -15 -21 -32 -37 -27 -24 -30 -31 -18 -39 8 -5 19 -7 25 -4 5 4 7 2 2 -2
-4 -5 -16 -9 -26 -10 -21 -2 -23 46 -2 53 15 5 14 23 -1 19 -19 -3 -36 -37
-30 -59 4 -16 0 -18 -23 -14 -33 6 -40 12 -26 21 6 3 11 2 11 -3 0 -5 7 -9 15
-9 36 0 8 28 -32 33 -19 2 -23 -1 -18 -14 5 -13 3 -14 -6 -5 -13 13 -3 37 12
28 5 -4 9 -1 9 5 0 6 5 8 10 5 6 -3 10 -3 10 0 0 9 -23 31 -40 38 -12 4 -12 6
1 6 9 1 22 -6 29 -14 11 -13 15 -13 21 -3 7 10 9 10 9 -1 0 -11 3 -11 15 -1 9
7 13 15 11 18 -3 2 -1 13 4 22 7 13 6 20 -5 24 -8 3 -15 1 -15 -5 0 -6 -5 -7
-12 -3 -9 6 -9 9 0 12 7 2 12 9 12 15 -1 14 -40 -30 -40 -44 0 -5 5 -9 11 -9
5 0 7 5 4 10 -3 6 -2 10 2 10 5 0 13 -8 20 -19 17 -27 -29 -25 -59 3 -12 11
-26 20 -31 18 -5 -1 -6 2 -2 8 5 8 11 7 21 -1 19 -16 37 1 23 21 -9 13 -10 12
-5 -2 7 -23 4 -23 -18 4 -14 16 -15 20 -3 15 9 -3 21 1 28 9 10 12 9 13 -6 8
-14 -6 -16 -3 -11 14 5 16 3 20 -11 17 -10 -2 -20 -4 -23 -4 -3 -1 2 -5 10
-11 8 -5 11 -13 6 -17 -5 -4 -11 -2 -13 5 -3 6 -9 9 -14 6 -6 -3 -5 -11 2 -20
10 -12 9 -17 0 -27 -10 -9 -11 -8 -5 7 5 13 4 17 -4 12 -6 -3 -13 -2 -17 4 -4
6 -10 8 -15 5 -5 -3 -12 -1 -15 5 -4 6 -3 9 2 8 4 -2 8 2 8 7 0 6 -4 9 -8 7
-5 -1 -6 2 -2 8 3 6 10 8 15 5 4 -3 10 5 13 16 4 16 2 19 -11 14 -13 -5 -14
-3 -6 5 6 6 20 13 30 15 11 1 18 8 16 15 -2 7 3 17 10 21 7 5 13 14 13 21 0 7
6 14 13 14 25 3 27 5 12 15 -13 9 -12 10 2 5 20 -6 34 10 16 17 -8 4 -7 6 4 6
9 1 20 -3 23 -9z m256 -247 c7 -13 16 -23 21 -23 5 0 6 5 3 10 -3 6 -2 10 3
10 6 0 12 -7 16 -15 3 -8 11 -15 17 -15 8 0 8 4 -1 15 -9 10 -9 15 -1 15 6 0
11 -5 11 -11 0 -6 6 -9 13 -6 7 3 21 -1 32 -9 14 -10 15 -14 4 -14 -10 -1 -8
-5 6 -16 20 -16 20 -16 -2 -10 -12 4 -24 2 -29 -5 -4 -8 -3 -9 4 -5 7 4 12 2
12 -4 0 -6 5 -8 13 -4 7 5 6 0 -3 -11 -13 -17 -13 -18 0 -13 11 4 16 -1 17
-16 0 -11 -1 -15 -4 -8 -6 15 -30 16 -39 0 -5 -8 -2 -9 10 -5 10 4 15 3 11 -3
-3 -6 0 -10 7 -10 10 0 9 -3 -1 -9 -12 -8 -12 -12 -2 -25 12 -15 8 -20 -11
-17 -12 2 -9 -13 5 -29 9 -11 8 -11 -7 0 -18 14 -18 13 -12 -10 6 -22 6 -23
-5 -6 -9 15 -13 16 -21 5 -8 -11 -9 -10 -4 3 3 11 -3 23 -17 33 -12 8 -16 15
-9 15 7 0 10 5 7 10 -4 6 -12 7 -18 3 -7 -3 -3 3 7 15 11 12 15 22 10 22 -14
-1 -44 -26 -38 -32 3 -4 1 -9 -4 -12 -6 -3 -9 1 -8 10 1 8 8 19 15 24 10 5 10
9 2 15 -7 4 -20 1 -29 -6 -16 -12 -16 -12 0 6 13 14 20 16 30 7 9 -7 19 -8 28
-2 15 9 13 11 -12 14 -7 0 -14 10 -15 21 -3 19 -3 19 5 1 6 -14 11 -16 16 -8
4 7 11 10 15 8 4 -3 13 0 21 6 12 8 12 9 -2 4 -10 -3 -18 -1 -18 5 0 6 -4 8
-9 5 -5 -3 -11 1 -15 9 -3 8 0 17 6 21 6 4 8 3 5 -3 -9 -15 14 -22 38 -12 14
5 15 8 5 9 -8 1 -4 5 10 9 16 4 21 9 13 14 -7 5 -21 -1 -32 -12 -19 -19 -19
-19 -25 2 -4 17 -8 18 -20 8 -12 -10 -16 -8 -21 9 -3 11 -11 18 -16 14 -5 -3
-7 -10 -4 -15 4 -5 -1 -12 -9 -15 -9 -3 -14 -9 -11 -13 2 -4 -2 -8 -9 -8 -8 0
-12 6 -9 14 3 7 12 13 21 13 8 0 12 3 9 7 -4 3 -1 13 5 20 10 12 8 14 -7 11
-10 -1 -20 2 -22 9 -8 22 36 9 48 -14z"/>
<path d="M8601 6123 c12 -14 12 -16 -1 -11 -8 3 -23 1 -32 -3 -11 -6 -21 -5
-29 4 -14 15 -49 -11 -49 -35 0 -9 -4 -8 -11 2 -8 12 -9 11 -5 -5 3 -11 1 -27
-4 -35 -8 -12 -10 -12 -10 -1 0 8 -9 2 -21 -13 -12 -15 -19 -30 -15 -33 3 -4
6 0 6 8 0 12 2 11 11 -1 9 -13 10 -12 5 2 -3 10 -1 20 4 23 6 4 10 0 10 -7 0
-10 2 -10 9 1 5 8 11 9 15 3 10 -16 41 -7 45 14 2 10 8 22 14 26 17 10 36 -2
29 -20 -5 -14 -4 -15 10 -2 8 8 13 22 11 30 -3 9 4 23 14 31 16 13 17 12 5 -3
-10 -12 -11 -22 -3 -35 8 -14 10 -15 11 -3 0 12 2 13 9 1 6 -9 11 -10 15 -2 7
10 -6 16 -27 12 -5 -1 -6 3 -2 9 4 6 16 8 28 5 15 -4 18 -3 9 3 -8 5 -14 13
-15 18 -1 5 -6 8 -10 6 -4 -1 -10 5 -13 13 -4 8 -11 15 -16 15 -6 0 -4 -7 3
-17z"/>
</g>
</svg>
