<?xml version="1.0" encoding="UTF-8" standalone="no"?>
<svg
   version="1.0"
   width="1024.000000pt"
   height="1024.000000pt"
   viewBox="0 0 1024.000000 1024.000000"
   preserveAspectRatio="xMidYMid meet"
   id="svg10"
   sodipodi:docname="f.svg"
   xmlns:inkscape="http://www.inkscape.org/namespaces/inkscape"
   xmlns:sodipodi="http://sodipodi.sourceforge.net/DTD/sodipodi-0.dtd"
   xmlns="http://www.w3.org/2000/svg"
   xmlns:svg="http://www.w3.org/2000/svg">
  <defs
     id="defs14" />
  <sodipodi:namedview
     id="namedview12"
     pagecolor="#ffffff"
     bordercolor="#666666"
     borderopacity="1.0"
     inkscape:pageshadow="2"
     inkscape:pageopacity="0.0"
     inkscape:pagecheckerboard="0"
     inkscape:document-units="pt" />
  <metadata
     id="metadata2">
Created by potrace 1.16, written by Peter Selinger 2001-2019
</metadata>
  <g
     transform="translate(0.000000,1024.000000) scale(0.100000,-0.100000)"
     fill="#000000"
     stroke="none"
     id="g8">
    <path
       d="m 7880,10089 c -77.2397,-19.635 -337.6964,-127.3631 -220,-74 -82.5377,36.984 -65.1239,-111.2777 -170,-48 -14.8113,6.4494 -235.0259,-85.9861 -225.375,-67.375 C 7113.99,9798.0721 7014.3223,9753.4325 7038,9764 c -74.2493,-64.5946 -279.5807,-140.3166 -245,-95 -40.0663,-24.9844 -134.2787,-65.1733 -146,16 -54.4147,17.7511 -168.9851,13.841 -138,20 26.3859,-48.1988 -189.8376,-121.2292 -119,-58 -113.9805,-52.4824 -248.2999,-109.3827 -179.5,-78.75 -6.8428,5.4789 -229.3885,-25.6771 -165,-29 60.6479,48.6449 -196.3507,-16.7356 -215.5,-37.25 -87.3258,-32.1587 -313.4423,-98.4432 -195,-82 2.1162,-34.394 -204.575,-169.4574 -169,-115 -45.6683,-36.7656 -280.2357,-201.6071 -193.625,-131.5 19.9387,16.5204 -202.8107,-199.738 -166.375,-135.5 -43.116,2.6367 -170.6862,-84.3721 -100,-68 -73.5946,-62.3654 -188.2936,-187.1026 -135.75,-130.125 C 4703.6633,8653.5995 4652.4751,8613.0605 4623,8533 c -94.1802,-122.5067 -160.0698,-248.4445 -139,-226 -48.0777,-56.063 -136.4604,-125.5222 -82.25,-119.125 4.079,-72.2291 -78.4972,-179.616 -76.75,-147.875 -30.2351,-25.6297 -134.0383,-171.244 -81,-128 -23.5482,-84.0502 -53.822,-344.2686 -56.125,-212.875 -47.6109,-41.7591 -63.3576,-200.4151 -60.875,-179.125 3.3265,-43.9914 7.2624,-164.9426 -17.25,-131.625 -52.5554,-79.242 -85.8044,-247.429 -39.125,-200.25 31.4387,-86.3312 15.3479,-326.61 5.375,-230.125 -43.4187,-58.4005 -98.5506,-412.376 -75,-304 59.1334,75.9852 -220.5539,-1022.9434 -13,-224 -22.0872,-176.1959 41.6975,-740.8647 -9,-546 22.7395,-171.3598 34.3246,-380.3966 46.375,-562.25 -39.9573,-61.2696 -93.0538,43.5495 -94,1.125 -47.4967,95.8891 -271.1038,126.2683 -205.375,69.125 -56.432,4.9719 -384.2405,-15.5035 -250.75,-16.875 -58.0401,-26.9732 -148.8747,-109.538 -134.25,-1.125 38.1908,-76.0199 -227.9366,-17.4066 -176.375,-64.75 -130.4377,12.2105 -393.7855,-132.3062 -299.625,-70.25 54.7199,-103.0581 -96.7413,-19.6183 -106,-31 -33.5141,-54.584 -292.9866,-75.1973 -193,-36 -24.7397,-42.2976 -152.1458,-35.6952 -122,-27 -53.5689,9.1745 -248.0486,-74.9456 -175.25,-33 -28.6456,-1.2346 -167.0621,-20.1506 -113.75,-38 -45.8044,-70.7902 -193.8809,-120.4108 -160,-21 -94.6344,-1.2404 -327.6485,-227.5658 -277.375,-171.25 -42.8677,-14.2393 -22.9301,-204.4374 -100.125,-99.375 -5.9193,153.6569 -205.2348,30.0948 -209.375,-14.375 -32.076,97.8975 -100.3109,-1166.4454 2.875,-242.875 -16.4199,-114.1382 142.7731,-215.2599 109,-195.125 -21.21,5.4505 219.4344,-89.5716 155.125,-65.125 56.0923,-51.233 329.4973,-205.7885 232.125,-111.875 35.0116,29.9345 244.6225,-36.5582 223.125,-56.875 11.597,-24.1797 294.4415,-44.5902 220.5,-66.375 75.611,-75.8048 210.6208,-104.6082 173.125,-74.75 60.5661,-71.4378 299.9433,-82.6807 169,-51 -64.7861,-37.4296 162.9057,-64.7417 76,-54 92.8503,-84.9265 348.3911,-82.7874 200,-38 -44.8975,-17.7649 107.5972,10.1323 93.75,-3.125 42.3276,-2.0144 119.589,-18.0439 87.25,80.125 2.0538,-63.6715 39.5297,48.0528 32,-28 55.3656,-4.9362 125.8226,64.3997 159.75,41 64.4803,150.957 86.9882,44.9164 33.25,-22 58.1928,-4.7564 230.1098,168.1352 128,114 -43.5425,65.9653 -94.4588,163.0007 -55,162 47.5908,44.5183 171.4731,250.8944 41,152 26.0229,120.4204 125.0221,25.4798 116,-11 48.9551,-87.8409 144.3679,-104.5089 146,-19 117.8566,52.6426 123.9779,87.1488 99,64 99.1423,10.5842 164.236,-111.3206 105.375,-77.75 11.6564,65.4285 -67.7799,-47.7505 55.625,-48.25 123.947,-3.3801 -31.9211,-40.0305 59,-36 77.2322,-32.5735 165.2377,-226.6024 224.375,-115.25 40.4971,-93.9207 175.7553,-393.9974 85.5,-284.5 -51.5044,2.3531 117.664,-308.6993 29.25,-152.25 -4.9865,-22.0041 40.6899,-248.4938 30.875,-193 14.9733,-91.711 59.0623,-307.6198 43,-229 52.7544,-379.4795 49.6279,-208.3208 62,-514 48.2828,-242.6491 54.0087,-466.837 98,-708 -6.475,-198.7003 -75.8162,-787.4627 -13,-612.125 35.9392,15.24 -1.5855,-78.679 -2,-109.875 -3.0729,-77.9976 -93.2239,-351.76754 -47.5,-260.125 -21.7644,-133.44723 -22.3525,-508.33754 -45.125,-363.75 C 4569.4613,514.40841 4702.7533,220.77023 4595,314 c 42.5279,0.01 92.9427,172.41275 129,108 80.2003,-2.59113 204.1459,-3.32393 103,73 43.8269,-113.49477 291.1391,-125.7613 193,-85 38.38,15.66635 234.1217,88.60315 160,42 59.4467,-16.92256 47.6788,-128.78926 21,-82 108.1672,70.34403 -21.7321,-76.65755 148,-26 21.6481,29.817 38.8941,232.9868 50,179 11.2228,80.35681 57.4769,253.29652 27,161 -11.0339,136.82762 -30.2497,317.2786 -47.375,342.25 -71.7176,129.684 -52.1198,363.159 -48.625,263.75 11.216,189.0446 8.7165,692.0041 2,515 11.9766,140.174 -50.4718,716.1533 -12,395 10.1758,172.8441 31.5228,605.102 5,470 18.6191,152.932 19.7383,443.2661 8.875,333.625 -8.5917,22.6015 91.3874,388.2807 34.625,248.75 -25.7931,74.3394 -21.2521,257.1322 -14.5,176.625 2.1076,61.6805 30.8392,156.2803 -18,120 19.0558,32.917 -7.8719,83.7157 -11.125,191.75 -54.7504,-65.0692 102.6128,36.3477 52.25,92.25 -13.984,24.5398 151.7549,42.9891 119.125,16.25 51.0977,-10.354 224.0192,-6.8735 198.125,-2.125 16.3434,29.4988 94.144,129.5783 89.625,39.875 102.9967,-58.9938 309.1937,-39.642 211,-16 90.2224,63.6778 137.7542,59.8172 91,33 109.2856,41.1201 -2.286,-8.5982 140,54 66.2007,65.5902 381.7756,217.2868 238,154 76.1221,102.7274 182.8783,224.881 134,148 -173.0468,-81.9047 251.9971,70.6599 123,18 20.9914,46.4926 112.5127,42.2852 83,80 20.0332,-71.6128 146.2706,126.2453 173,66 6.9777,97.5498 -34.7173,275.7558 -32.375,152.125 16.102,82.186 276.7004,-22.361 160.375,26.875 129.7622,-1.0387 106.5505,61.3938 -7,47 45.1985,23.3313 327.3755,-96.0478 191,-65 63.9587,75.3015 211.6111,120.7616 172,119 56.8742,92.2578 193.8744,214.1579 164,143 4.1954,-77.9128 139.4034,19.7961 128.25,-8.75 47.5701,40.6108 89.2096,295.8657 118.75,155.75 142.2837,88.1309 148.851,-127.6558 83,-74 -6.5426,45.5856 170.1743,115.6468 136,67 121.1124,-26.4558 -34.7874,53.3887 115,15 -31.0494,48.1496 -75.5886,202.3562 -44,155 -25.6716,82.1009 151.0691,225.1479 136,91 -57.5715,31.7537 67.1115,235.5267 -3,184 20.4651,-13.2885 173.3443,-40.3936 72,-82 101.2677,104.1351 47.2668,181.6581 -37,128 44.0087,87.0621 111.8693,184.8449 85,85 -82.7939,102.0816 -79.041,206.7247 -68,127 28.8033,45.3589 40.0577,198.5397 22,140 -43.595,100.4302 6.8192,394.3461 67,284 -84.9748,-46.486 -305.0216,-51.418 -211,-45.25 -23.6948,-49.4255 -300.1165,-125.2417 -215,-58.75 -246.1641,-91.2787 -409.1248,-208.2584 -359,-184 -87.3417,-39.3326 -295.9897,-124.0234 -207,-93 5.4506,-39.7864 -710.488,-248.5448 -189,-65 -53.5346,-76.3602 -180.1596,-88.7821 -175,-88 -46.717,-9.5818 -192.1969,-98.0717 -161,-78 -21.7401,-51.8265 -104.8529,-99.6431 -114,-41 -116.4851,-20.1047 -223.6218,-76.436 -175,-63 -94.6463,-39.9728 -202.7481,-94.2556 -137.625,-87.375 -54.985,-11.4862 -190.4171,-142.6825 -106.25,-73.75 15.306,47.2034 -181.3791,-135.8005 -169.125,-99.875 -176.2098,-125.7022 -162.8874,-72.55 -230,-159 -0.5485,24.7446 -274.819,-111.7275 -219,-49 -80.3101,-24.1927 -193.0567,-61.1354 -131.625,-36.5 -167.436,-19.9618 -318.493,40.6142 -250,22.125 -49.186,-24.2698 -279.6276,106.5867 -188.375,56.375 60.2146,117.71 47.9749,382.36 17.625,323.25 -23.1,125.0444 -50.5039,494.5801 -35.625,345.75 -2.4559,139.8203 -51.7853,706.5866 -25,512 -5.2105,132.8645 -74.346,295.262 -56,238 -20.3662,77.4101 -25.5973,260.0766 44.5,106.25 156.2438,-36.8547 41.8043,383.7188 32.5,231.75 8.0706,162.4486 -90.9998,617.1341 -48,488 -1.3098,122.7497 216.5385,524.5002 150.625,401.375 -9.7613,39.0731 183.4438,294.709 138.375,228.75 67.399,83.244 278.2502,274.7936 236,222.875 76.1051,39.8495 275.3888,136.1847 219,115 52.6222,27.2337 315.7939,204.4257 221,153 43.8724,25.4126 194.2132,-29.3826 125.875,-5.5 119.3482,131.5047 52.7527,-100.3277 131.125,-92.5 65.335,-102.8182 216.0572,-143.2319 130,-4 136.3839,31.242 260.2786,162.8919 149.5,156.75 7.7879,119.6725 59.3423,-46.1672 -4.5,-111.75 59.1165,-14.1473 225.1495,62.3715 159.625,26.25 52.6498,-2.8545 138.4255,185.1558 134.375,108.75 -25.6535,132.618 -48.8579,223.9856 -72.875,39.125 -106.3482,29.378 -20.9327,-50.7017 65.875,14.875 83.9875,-120.2647 162.9387,4.7004 132,33 -206.2908,-179.8576 120.4993,109.8565 13,-25.25 42.6155,-35.5234 190.6882,78.3543 163,-1.75 36.1135,-13.1212 31.9397,157.5646 80,163 -69.2587,-3.9493 124.6254,170.0761 38.875,100.5 -68.6551,-150.1203 88.9999,131.8408 98.125,66.5 80.0186,25.6759 229.4544,173.1887 144,85 94.0132,12.3622 257.2169,177.5687 187.125,161.375 37.7964,98.9467 143.8715,215.2311 144.625,167.25 81.6387,56.5979 255.2586,275.1582 183.25,181.375 74.7141,82.3203 135.4702,237.8699 185,285 -11.6031,132.989 107.3186,95.6265 -6,139 -55.8947,-62.8212 -207.3783,64.7487 -116.75,118 -0.2608,45.8313 -157.3536,133.39 -123.25,108 6.3524,-7.126 -162.8594,50.947 -146,41 l -7.125,8 z m -250,-134 c 20.8222,23.5969 144.5848,24.568 140.75,-47.125 106.8093,67.53 -23.278,-138.811 99.25,-199.875 70.8594,54.7178 -172.6575,51.2369 23,70 26.587,43.7063 -466.9527,26.8224 -189,25 -59.976,59.1282 -89.647,164.6422 -160,46 -45.0461,105.2834 273.7267,-20.9393 74,99 -15.4129,-25.2389 76.0081,33.4262 -7,35 z M 6794,8779 C 6706.3888,8696.0751 6569.5836,8561.3112 6673.6572,8628.8725 6757.678,8496.887 6624.5406,8672.5451 6671,8490 c 42.6206,134.2459 71.4183,-2.2658 96.375,-35.75 -102.0121,-13.8316 -52.1357,99.2185 -114.375,23.75 -29.777,6.1795 18.3808,150.3994 -58,82 144.3218,126.5725 -131.9876,46.889 13,125 -105.1832,50.1157 13.7274,55.3341 42,10 73.0879,35.6778 -87.4645,62.5897 158,91.25 z M 4827,5998 c 87.3411,-34.5204 203.4486,-137.6293 162,-86 -4.7115,-23.7567 -47.8501,117.9984 -61,-22 -141.8954,-1.6274 20.5866,91.8546 -101,108 z m 143,-253 c 162.5949,-94.7259 -24.1939,8.0029 -54,-86 -37.5204,48.1565 7.0401,141.2572 54,86 z m 43,-162 c -18.9113,-33.3273 40.7106,-210.1023 60,-170 75.6162,-27.5437 36.6905,-266.7666 8,-159 -107.7755,-66.2688 -200.2815,-95.6128 -88.125,-19.375 -39.0688,149.9974 99.8947,143.2911 65.125,120.375 -15.7559,99.8193 -244.3397,55.1281 -8.125,86.375 -42.8306,-6.6679 -84.7243,30.7862 -108.875,38.625 47.3688,97.7867 2.4172,73.4436 72,103 z m -587,-122 c 47.5917,-158.7877 -100.4326,-126.9572 -53,-136 52.3868,-126.1267 173.5868,-58.1823 94,-36 -51.7969,-71.0002 -158.6193,-34.032 -91,-60 -76.71,58.8421 -159.7189,18.5178 -56,112 -80.1638,50.9128 30.2032,175.3841 96,93 -47.307,-73.6283 9.3664,60.4771 10,27 z m 672,-253 c 69.4187,-25.326 -17.2513,-231.1821 12,-159 82.1552,-89.6893 -111.6927,-11.9479 -48.5,-45.75 -29.6607,-34.8635 -95.7706,-183.1701 -58.5,-1.25 -31.3383,49.3109 40.7723,174.2783 -5.5,96 135.8987,-90.7032 179.7044,91.2598 105.25,120.625 z M 2091,4976 c -19.188,-145.2381 -13.0071,-163.7153 85,-76 -151.7935,-27.8477 -103.9854,-129.8773 -212,-137 159.9962,145.9099 42.9235,152.0011 -23.875,45.75 -24.1155,36.0147 182.3903,103.2893 150.875,167.25 z m 1358,-606 c 21.2168,2.6462 -127.8679,-13.4769 -111,-67 -29.9478,11.5144 -57.7135,49.52 -82,58 56.6103,12.2978 236.8061,86.0754 151,34 -16.7632,47.6854 38.9933,-49.995 42,-25 z m 1031,-309 c 48.4471,0.7245 150.8971,-103.8369 130.75,-50.125 -6.6045,3.6027 -22.675,-242.7528 31.25,-4.875 15.9565,-39.8131 -106.6031,-210.6518 -19,-133 50.9519,41.6187 -14.1433,-118.4703 18.125,-51.125 106.3921,-100.6501 -45.1539,-21.9441 -98.125,4.125 -113.5906,120.018 -28.5087,206.183 -28,123 -94.4439,59.8229 64.1315,-47.0183 -35,112 z m 485,-151 c 85.9359,-45.8206 153.0179,-129.87 22,-168 62.8315,-29.1413 113.7982,-79.4956 85,-152 -77.4607,21.5395 -148.6597,174.0138 -117,70 20.0843,57.6042 47.0214,119.5275 -49.5,110.625 -6.8403,66.8754 24.608,244.4885 49.125,138.25 L 4978,3930 Z m -60,-2850 c 41.4673,-56.9289 55.9041,-161.08814 -5,-114 58.0285,-67.16155 224.5295,-112.95688 67.625,-106.25 25.6765,-40.7539 -88.8595,-116.52167 -23.375,-141.625 10.9925,47.21355 -115.7783,28.79758 -87,-6.875 -12.5451,158.38507 39.545,80.44141 87,124.125 -82.2202,44.68669 -176.9335,99.2173 -98.25,3.625 29.9531,-1.53155 -61.1451,6.10248 -23,59 3.6152,-82.05357 -6.1211,100.88188 -51,57 12.8785,67.4431 133.947,113.1229 133,125 z m 256,-247 c 21.9466,-18.43456 4.1421,-121.49843 93,-74 71.5059,-64.95182 60.0057,-188.45844 25,-113 3.4633,-83.10831 -100.65,124.82142 -85,22 -101.9824,8.10682 31.0934,49.16149 -16,68 68.5415,-11.19041 12.1558,39.46258 53,55 -144.9461,-19.49878 -163.926,226.60965 -115.5625,66.32812 L 5129.5,836.875 Z"
       id="path4" />
    <path
       d="m 8601,6123 c -114.5036,21.4754 -150.6971,-115.9487 -160,-123 15.6421,33.4428 149.4814,27.7155 162.75,80.875 57.7103,-56.4345 21.0613,3.3568 -2.75,42.125 z"
       id="path6" />
  </g>
</svg>
