<?xml version="1.0" encoding="UTF-8" standalone="no"?>
<svg
   version="1.0"
   width="1024.000000pt"
   height="1024.000000pt"
   viewBox="0 0 1024.000000 1024.000000"
   preserveAspectRatio="xMidYMid meet"
   id="svg10"
   sodipodi:docname="F.svg"
   xmlns:inkscape="http://www.inkscape.org/namespaces/inkscape"
   xmlns:sodipodi="http://sodipodi.sourceforge.net/DTD/sodipodi-0.dtd"
   xmlns="http://www.w3.org/2000/svg"
   xmlns:svg="http://www.w3.org/2000/svg">
  <defs
     id="defs14" />
  <sodipodi:namedview
     id="namedview12"
     pagecolor="#ffffff"
     bordercolor="#666666"
     borderopacity="1.0"
     inkscape:pageshadow="2"
     inkscape:pageopacity="0.0"
     inkscape:pagecheckerboard="0"
     inkscape:document-units="pt" />
  <metadata
     id="metadata2">
Created by potrace 1.16, written by Peter Selinger 2001-2019
</metadata>
  <g
     transform="translate(0.000000,1024.000000) scale(0.100000,-0.100000)"
     fill="#000000"
     stroke="none"
     id="g8">
    <path
       d="m 1563,9584 c -147.0646,-99.4017 -12.9257,146.5163 -225,-89.5 -59.6889,-115.7029 -176.2601,-122.7673 -75.625,-143.875 -50.0091,-5.6556 121.9792,-192.1655 62.625,-140.625 78.9288,-118.0983 319.9333,-252.6314 252.5,-225.75 -37.798,-19.2362 85.563,-47.0388 96.5,-60.25 62.3546,-54.0895 217.4982,-106.4665 142.625,-97.25 -30.3203,-61.3821 143.6212,-208.0827 124.375,-122.75 36.6224,26.4232 136.0282,-5.3756 114,-43 72.1806,-87.4982 253.9198,-210.2258 200,-161 104.8602,-82.414 237.0742,-132.3392 203,-3 46.8634,-9.9873 106.64,156.9489 142.875,72.5 47.6338,-33.3726 121.9804,27.9707 65.875,26.5 16.8093,65.7659 155.2749,216.8252 60.25,177 -60.1698,-11.8347 17.1373,27.4439 -66.375,17.375 43.0676,38.3096 130.6052,-58.6701 129.375,-31.375 -108.6593,-18.6667 71.9954,-574.7971 30.625,-183.9688 125.4813,-33.5165 5.9101,0.5219 67.5,55.4688 -61.6071,123.3097 111.7912,37.8403 25.5,63.625 -94.7237,-4.5491 594.0723,-291.2006 212.375,-148.125 28.4941,23.3676 441.9444,-46.1061 164,-21 17.5989,-64.985 321.0827,-219.5735 213.75,-115.5 5.4124,-42.2692 32.6949,-232.8896 66.5,-148.75 74.9837,-36.8798 72.9828,-227.4429 73.75,-213.75 -67.7858,-125.9854 -146.8537,-646.3061 -66,-501 -20.048,-101.9036 64.815,-60.2703 29,-83 53.4633,13.1577 28.4229,-192.6604 23,-163 -0.2993,-113.4895 -41.0666,-175.3543 -6,-210 -0.7236,-39.478 5.0073,-282.892 5,-244 1.4689,-53.5694 -63.6717,-205.8525 -16.25,-142.625 32.5713,2.7211 -43.3196,-115.8883 -9.625,-126.5 -16.5965,-218.0117 51.2781,-175.7168 -7.125,-231.875 -58.4371,-61.3525 -56.3907,-212.1997 -58,-203 223.1151,-189.0449 53.2351,-133.0475 15,-81 -51.6395,-50.996 -18.9786,-333.0562 -7.125,-262.75 14.1342,-69.0994 32.9707,-263.2725 13.125,-168.25 -1.6904,-58.8041 -7.1336,-181.3105 -8.5,-132.5 44.8423,-80.943 27.1584,-154.5057 2.5,-145.75 24.6714,-123.1405 80.8778,-398.6462 48,-292.75 -24.1792,-60.0032 -42.5409,-203.6592 -10,-134 12.7326,-88.4251 18.4254,-251.2653 13,-182 -12.545,-58.1255 -11.1829,-174.0923 -5,-136 -8.8988,-71.654 -8.4549,-204.1488 20.875,-187.5 5.7537,-25.4431 -19.9351,-259.8383 5.125,-207.5 17.1233,-144.1023 -89.8602,-494.8678 -32.5,-320.375 11.1289,20.7834 51.6616,-238.8977 27.5,-166.625 0.7466,-121.1416 -174.1921,-168.927 -177,-82 74.5856,-18.2821 -15.3752,6.0794 -58,-12 3.9912,-94.1833 28.244,-177.4585 58,-112 68.7452,-35.9304 69.2867,-272.8835 57,-198 27.1817,-53.5227 5.8585,-204.8265 6.75,-174.5 -24.6171,-75.462 -46.2349,-212.6779 -29.75,-179.5 -36.4526,115.4719 19.8801,-557.6151 -23.375,-163 -52.3988,-81.9173 -107.2187,-363.8872 -66,-224.25 12.105,-35.9993 -57.9478,-219.937 -74.875,-146.625 36.2594,-58.178 -89.287,-266.0225 -82.375,-201.5 13.0359,-19.9239 -6.4154,-129.1155 4.5,-101.875 -0.6196,-77.4902 -177.9935,-199.0743 -143.875,-222.75 -50.0936,24.2765 -194.0865,43.9715 -173,29 80.4083,112.3056 -923.6583,-120.4524 -255,1 -72.6751,14.3785 -236.8129,-2.1686 -188,-17 -91.8439,7.3326 -324.1001,-26.4656 -244,-10 -31.9379,21.3676 -238.9932,59.8535 -222.75,8 -51.3624,-62.5771 -254.5203,-124.6895 -172.25,-61.375 -40.4235,40.3868 -188.4093,-54.3961 -161,-59.625 -68.2433,-48.639 -176.3028,-217.9854 -129,-180 -80.8562,-205.8396 99.2186,-466.7184 38,-343 -2.9827,-34.6305 164.8663,-193.2508 121,-187 31.646,-41.6844 147.0921,-210.93546 101.125,-127.75 73.6582,-10.19891 231.457,-101.85727 191.875,-83.25 104.0655,-93.10688 291.7409,-112.49378 254,-113 17.2898,-4.37737 123.1255,-24.78622 96,-39 82.1079,-39.17863 344.4862,-57.39096 209,-49 100.0189,-10.22105 202.9029,-12.08765 198,6 132.2214,3.13591 141.5191,17.65983 132.875,14.375 57.1716,35.92332 221.1106,6.61857 154.125,11.625 94.1425,60.72017 115.6419,60.47563 142,75 43.1058,34.2552 108.5898,110.42513 107,86 51.7845,-1.14146 175.1544,76.79659 139.625,87.625 43.5996,43.57892 161.8619,305.353 150.375,209.375 9.8855,22.3982 81.2855,231.1125 69,232.75 1.4579,34.372 86.2506,210.0771 51,143.25 16.4392,85.5207 136.2691,354.1854 72,264 -99.3643,-152.1902 94.8945,431.2941 15.75,245.125 1.2576,63.5517 22.5111,243.4945 20.25,170.375 9.725,262.0556 -23.2866,633.4685 -5.875,465.75 27.1248,72.1164 -18.9634,156.1926 12.875,162.75 -34.7614,116.8554 -17.419,273.7053 7.75,224.375 17.3289,71.524 62.503,330.6683 43,194.375 109.8909,132.1791 35.1356,291.8226 47.25,271.25 -16.1708,46.7786 -106.61,114.4493 -112.375,87.125 -53.2872,88.4041 190.8924,13.8144 114.375,2.875 -22.0792,4.3247 98.8985,72.7818 86.5,38.75 83.9649,26.4571 228.7091,-91.85 122.5,-97.75 83.4872,-31.7221 50.1932,348.5515 63,256 9.8471,101.578 -65.3795,310.2848 -59,239 -61.875,130.6781 -108.2221,480.8322 -79,355 44.3839,13.526 -32.1635,242.8989 -7,193 20.7178,82.4115 33.1522,243.3069 14,160 5.8778,99.7654 33.7021,430.9406 16,274 36.6396,57.192 76.129,365.7384 31,256 -21.4113,56.4191 -15.1104,218.5223 8.75,160.25 22.4701,115.694 44.5393,357.5746 45.25,286.75 60.1795,76.5555 50.4792,299.9281 42,255 5.292,78.8522 38.8627,359.0625 26,241.375 -24.0874,94.1625 97.815,346.3224 57,249.625 31.022,116.8202 66.5051,246.1245 53.125,168.25 -1.4544,168.1933 48.1823,235.2398 9.875,310.75 34.0926,124.0884 49.0709,533.6219 37,436 -67.2089,90.2031 -117.5872,477.5521 -67,339 -9.2434,85.4811 0.7307,385.6187 -21,340 -2.0721,35.047 -72.6804,355.6491 -36,240 18.9243,69.0679 -6.3912,111.1644 77,52 40.1307,-3.2406 243.8769,-283.0568 157,-145 94.2524,-62.2843 284.8945,-45.3285 172,-47 60.9772,10.5791 278.1111,-31.5968 191,-11 51.6227,54.1246 278.4649,22.8885 220,-21 61.3458,-22.8789 158.7567,68.3468 165.875,12.125 56.3019,76.73 61.431,-18.6848 107.75,-10 -39.941,-81.8686 101.7788,-129.3983 84.375,-99.125 156.7347,-72.6037 -95.6095,229.9449 147,-68 53.645,-39.8999 229.2309,-182.4314 145,-157 56.9674,-111.8806 194.2331,-186.2874 174,-102 -19.2437,-1.8093 111.2728,4.3818 144,-7 101.9172,14.4247 260.8133,103.7132 241,53 25.0221,16.2872 259.8099,186.258 222.5,126.375 -44.021,-108.9536 228.2588,283.7695 125.5,81.625 80.159,63.2233 234.0426,172.0477 161,128 160.8262,61.2237 210.2314,99.2886 137,78 84.4549,40.7734 201.1426,182.8696 163,112 55.691,14.4448 103.3179,148.9224 98,156 110.6077,14.6637 203.2565,93.8868 119,14 52.6659,39.229 98.9046,-140.2413 108,-46 80.4163,33.499 81.0505,-135.8759 65,-95 -92.7662,48.8488 234.3033,-2.6941 112,-83 95.3147,-51.2252 371.6972,1.4287 269.375,42 58.6773,31.4154 300.3655,198.2507 206.625,114 58.6361,35.5945 206.9471,172.5332 184,147 59.4606,56.8336 169.8604,133.285 124,85 77.4357,68.495 211.4604,105.6177 173,130 33.9717,53.232 158.022,108.9017 138.375,107.25 62.8578,95.9357 166.9565,270.4962 141.375,181.625 73.6205,66.5894 26.0456,312.905 -31.75,218.125 -28.5131,114.8172 -246.2771,9.2018 -224,22 -104.8109,-9.9756 -191.3147,72.2907 -198,6 -55.8204,60.3904 -104.1905,-91.9482 -119,-70 -56.2042,23.0807 -203.9237,71.4293 -146,-14 73.9835,82.9361 -376.1791,-4.7865 -237,16 -186.7502,-6.2378 -180.8447,-22.9356 -292.5,-25.375 -63.1246,-56.1102 -234.0241,-99.0699 -164.5,-71.625 -68.366,-28.2754 -274.3534,-58.4807 -180,-43 -158.3295,2.5929 -293.9711,-168.7813 -248.75,-167.25 -8.8003,-69.811 -207.5153,-293.028 -131.25,-178.75 -53.9012,6.4404 -211.0481,-81.3337 -140,-102 -68.9456,-45.2986 -248.2255,-57.876 -180,-74 -55.8857,-70.9728 -195.3797,-169.6191 -177,-126 -43.5423,-5.5217 -144.6157,-67.4059 -100,-55 -46.4592,-16.476 -130.7668,-47.3307 -113,-64 -69.5171,-69.4631 -123.6578,-134.84 -116,-48 -58.5973,23.4138 -351.7253,281.877 -232,188 -151.9586,98.457 -240.8951,110.8583 -213,98 -97.453,24.7902 -389.7649,111.4042 -249,78 -35.4052,-29.6665 -236.087,-27.733 -170,-9 -94.6277,24.0057 -305.4926,66.4187 -263,36 -125.4914,-13.2793 -392.2453,5.223 -301.875,7.125 -93.6816,40.7362 -292.7976,20.9273 -228.125,15.875 -49.8886,7.119 -238.3089,-116.2647 -189,-79 -34.6194,-102.5731 -278.3138,299.6282 -212,206 -114.3026,210.3915 -399.6984,326.8472 -333.25,291.625 -83.2508,71.5011 -316.4382,179.4085 -217.75,124.375 -16.4338,-11.7711 -200.7607,69.7003 -148,54 -102.973,73.0019 -461.0992,-10.4394 -202,37 -16.6696,47.9171 -224.553,22.4607 -199,8 -199.9992,60.741 -353.9705,69.9949 -309,61 -42.9989,-18.7669 -184.6829,-42.214 -130.75,-26.375 -79.7706,65.2798 -388.9007,134.4565 -283.25,83.375 -83.7871,81.3315 -417.7828,138.9521 -315,93 -127.5907,40.3777 -162.2949,-9.3775 -275,35 z m 911,-8056 c 26.6678,69.1403 177.194,62.7288 140,-19 64.0925,-8.0176 218.4436,-22.5978 140.75,7.75 40.2981,19.4631 259.2492,66.9293 166.25,33.25 -31.6208,-78.4258 213.0125,-35.6962 7.375,-172.25 C 2861.8181,1295.3107 2680.7372,1108.3058 2739,1243 c -74.8145,-19.6025 -217.9319,64.8271 -182,35 -40.092,-41.3084 -162.6235,12.6308 -147,2 -73.0397,42.9172 -238.6333,5.296 -169,21 -23.7112,117.7541 -103.5363,184.7328 -86.375,89.125 -44.7209,81.3451 333.7361,96.0004 100.375,83.875 47.5512,67.2033 241.0732,61.141 193,82 z"
       id="path4" />
    <path
       d="m 7410,5619 c 38.3753,-8.5734 -110.8136,-35.0545 -162.375,-52.5 -107.4587,-48.1417 -168.5336,-64.9061 -153.625,-52.5 -49.8176,-20.4148 -225.6812,-83.0507 -169,-54 -135.6637,-17.9144 -525.488,-111.6754 -384.25,-119.625 C 6520.3555,5363.8656 6282.3736,5206.2664 6360,5250 6240.2004,5176.9986 5978.639,5041.8343 6080.75,5130.25 5995.1795,5085.4191 5764.2536,4936.7761 5875,5005 c -46.5882,-36.5136 -241.4052,-65.3582 -171.875,-61.25 -56.5329,-27.8895 -396.5305,30.2494 -300.125,-6.75 -89.1565,4.8581 -162.5028,90.6234 -160,46 -85.3007,-1.5822 -331.0593,134.6228 -205,81 -79.9681,80.1595 -234.7628,234.6547 -153,150 -62.2605,69.1867 -150.9537,233.3257 -128.375,200.375 -87.1085,42.6698 -240.7771,75.3402 -213.625,155.625 -7.2742,-145.1455 -172.9,-315.1166 -127,-217 23.0681,-107.765 230.1319,-323.5587 99,-237 71.7742,-10.3221 282.1336,-265.2927 198,-164 50.4567,-63.1085 110.3213,-188.9046 98.875,-129.625 80.6658,-24.8176 125.8981,-94.2465 108.125,-72.375 48.6152,-16.052 279.2669,-110.9841 185,-90 109.7213,-52.5432 271.4332,-115.5668 167,-63 145.8897,-46.1903 276.5289,-122.3393 205.75,-66.125 47.0443,-26.8005 248.6029,26.8113 164.25,21.125 76.4096,-5.6767 313.658,-60.575 223,-11 93.1233,-24.6826 328.8908,52.5824 225,39.875 45.9611,-46.8455 180.4796,155.1061 138.625,108.25 26.4093,-42.9722 179.6076,-1.1316 107.375,30.875 46.478,-34.6042 248.6049,164.9305 182,88.25 9.3254,-27.5037 174.9694,92.1112 137,95.75 36.3371,25.5606 235.5136,-2.9035 170.125,59.5 47.7363,44.6494 231.2793,67.6135 191.875,30.5 41.277,3.9439 251.5411,118.8279 176,83 94.3531,14.9744 282.9381,99.8577 188,63 46.2286,-38.3421 147.1715,55.1998 120.625,18 190.4908,-33.5419 334.5943,-187.6004 241.375,-102 85.106,104.2916 1.3445,1.9112 112,-96 -58.5898,-28.3417 -166.6808,-145.6527 -134,-90 -0.3933,42.3496 -129.2341,-188.3394 -57,-126 -79.45,-20.5518 -43.5161,135.0546 -124,21 90.7729,49.2435 -92.7129,-49.5249 -91,-9 -75.1153,-21.8537 -243.1512,-56.6127 -167.125,-87.5 -97.3127,-80.863 -208.0887,-230.7807 -187.875,-214.5 -62.7654,-93.7158 -104.4271,-373.5341 -88,-284 -31.4727,-55.0233 174.4312,-241.7628 100,-274.375 76.8669,79.0948 264.4818,149.765 174,98.375 -72.849,-27.0816 73.2538,88.8316 64.875,59.5 104.4754,26.9887 213.3103,215.4323 139.125,148.5 43.7306,24.1497 211.5644,104.703 159,104 10.4971,94.5745 138.2743,163.1379 74,113 133.0344,7.4152 272.3718,-1.2172 267,116 72.9532,35.9559 192.3341,117.6057 160.375,141.125 48.0118,137.097 141.1036,389.9254 107.625,261.875 21.38,90.3322 -29.661,345.8511 -12,232 -22.4463,102.9671 -144.8951,279.2536 -100,205 -90.1236,102.0911 -246.4532,230.3716 -191,162 -30.5873,-17.6907 -149.4035,-15.6933 -143,26.375 -103.9262,46.7453 -354.1069,39.8739 -232,34.625 -70.4926,-4.3213 -99.5237,18.3227 -164,21 z"
       id="path6" />
  </g>
</svg>
