<?xml version="1.0" encoding="UTF-8" standalone="no"?>
<svg
   version="1.0"
   width="1024.000000pt"
   height="1024.000000pt"
   viewBox="0 0 1024.000000 1024.000000"
   preserveAspectRatio="xMidYMid meet"
   id="svg12"
   sodipodi:docname="g.svg"
   xmlns:inkscape="http://www.inkscape.org/namespaces/inkscape"
   xmlns:sodipodi="http://sodipodi.sourceforge.net/DTD/sodipodi-0.dtd"
   xmlns="http://www.w3.org/2000/svg"
   xmlns:svg="http://www.w3.org/2000/svg">
  <defs
     id="defs16" />
  <sodipodi:namedview
     id="namedview14"
     pagecolor="#ffffff"
     bordercolor="#666666"
     borderopacity="1.0"
     inkscape:pageshadow="2"
     inkscape:pageopacity="0.0"
     inkscape:pagecheckerboard="0"
     inkscape:document-units="pt" />
  <metadata
     id="metadata2">
Created by potrace 1.16, written by Peter Selinger 2001-2019
</metadata>
  <g
     transform="translate(0.000000,1024.000000) scale(0.100000,-0.100000)"
     fill="#000000"
     stroke="none"
     id="g10">
    <path
       d="m 7045,9890 c -220.5432,-63.279 -92.6452,-135.6116 -62.375,-96.875 54.5908,94.0674 -297.4496,-40.1872 -154.75,-5 C 6777.6901,9738.8145 6607.9828,9545.806 6659,9636 c -63.0732,-23.4505 11.8109,-70.7166 -86,-83 -121.103,-68.4376 127.5932,-80.11 -93.75,-148.625 48.6408,-58.8828 -16.0534,87.8535 -47,14.75 126.6642,67.7817 -71.7037,-62.0076 -2.25,19.875 -88.7468,-84.4389 -197.0216,-181.7475 -149,-141 -74.9038,-11.8911 -166.9276,-191.1249 -145,-160 -72.8932,-74.5488 -134.8146,-199.0632 -205,-285.375 -19.9905,19.6216 -159.7126,-55.5796 -145,-40.625 -123.373,-46.9131 -231.7262,-226.8265 -202,-178 -58.172,-122.8963 57.9608,-346.7428 28.25,-263.125 67.0364,-48.3145 212.1524,-255.8509 122.75,-270.875 -55.135,-177.2489 106.4064,32.8138 30,-260 -73.4833,-182.9665 -60.754,-268.8093 119,-265 113.4369,28.6202 203.3563,16.2625 215.5,16.75 78.4664,13.13 193.2224,79.3686 152.5,104.25 21.0168,44.5233 35.8884,216.0752 -7,117.375 126.085,58.3753 17.1903,-49.2075 81,-68.375 -80.5675,-41.1911 -23.1244,-175.5506 -41.5,-148.5 7.1597,-87.8122 -111.0865,-185.1535 -68.5,-127.5 -193.0419,-56.9037 -61.0672,41.1105 -42,-30 95.0895,49.2558 -4.1977,-105.7 89.125,37.75 61.0296,1.4188 82.4831,191.6362 118.875,191.25 26.076,10.5765 125.304,-27.4807 78,34 -75.563,-186.6692 131.5821,-36.4416 86,6 -20.04,100.8953 164.8858,34.7088 135.75,-101.125 38.4883,17.4718 98.278,194.6899 59.375,131.875 57.6181,-99.7541 183.0863,119.7826 140.875,114.25 36.9847,62.4717 -167.3227,140.7664 -37,127 99.8787,-2.0317 194.0219,279.7191 144,141 -9.5175,15.6443 54.4054,243.5891 45,179 3.9925,49.254 92.1795,347.0153 66,235 46.295,136.4198 79.3935,236.9019 70,204 14.6965,31.1006 65.1926,221.3442 58,169 15.221,103.0342 52.9397,332.351 50,232 10.462,46.3254 32.2412,168.0206 10.75,117.5 -23.1091,36.8815 -23.7988,232.5338 -11.75,179.5 -70.3774,158.4296 247.9324,46.8008 -74.5,190 -11.8971,15.3147 29.9722,242.6854 22.5,146 5.6287,11.6996 11.7653,26.9152 -37,57.375 -25.2687,38.3637 -67.6577,42.6215 -143,59.625 z m -210,-370 c 70.259,-91.9122 140.873,79.2623 111.875,-136.5 -45.7574,103.2176 7.7355,-141.251 -45.625,-49.375 -79.1991,25.404 -59.4579,-181.1459 -74.25,-118.125 -55.8391,-158.7498 -87.2044,-81.1451 -92.375,-182 -140.0873,-28.1108 -41.0462,124.4865 25.375,141 -6.6919,109.0227 59.3677,37.8031 17.875,93 -88.2229,19.467 -122.9613,-125.4275 -115.875,-106 -166.2892,-48.1221 -19.5926,121.8133 29,172 15.4197,131.9039 62.2103,139.8821 77.5,126.75 -49.6469,57.8026 53.96,48.741 66.5,59.25 z m -69,-485 c 39.4929,-37.4306 162.1453,63.7965 144.75,15.125 C 7038.042,9013.6267 6785.7507,8944.9474 6804,8938 c -67.1763,-51.3637 64.1135,205.6902 -35,112 z"
       id="path4" />
    <path
       d="m 4370,7718 c -102.1753,-17.0851 -477.1354,-267.4422 -240,-120 -84.8431,-33.2738 -253.6149,-140.0919 -199,-105 -3.3397,-41.6031 -181.2242,-180.3784 -129,-97 -64.74,-21.6373 -105.9033,-55.1931 -111.625,-77 C 3551.5301,7170.3503 3434.0367,6960.1203 3470,7036 3324.113,6826.3881 3291.6803,6708.9454 3290.625,6679 3231.5196,6512.7886 3229.1476,5972.0524 3258,6158 c -18.1653,-11.5031 83.8525,-250.6265 65,-179 -35.1316,-32.3135 69.3349,-133.345 20,-113 -18.5326,-29.1539 45.7772,-196.2671 30,-148 -6.8112,-69.4688 -7.7279,-379.3338 13.875,-295.125 56.8956,-159.6604 -15.8905,-54.4491 71,-279.5 12.5913,-80.8662 105.1025,-259.3555 72.125,-234.375 10.8658,-68.7585 120.3245,-374.8704 83,-272 24.1583,-90.6822 156.8204,-221.6174 127,-168 75.673,-55.8078 205.8349,-155.2691 128.125,-115.75 20.0093,18.1644 491.0127,-257.9202 226.875,-92.25 64.7911,-50.1668 297.0299,-52.9871 201.5,-76 23.5561,-35.7042 268.465,-11.5901 225.5,-46 -15.6041,-63.602 151.1725,-73.2853 129,-35 30.4998,28.8787 333.7153,303.2152 122,69 69.3139,-13.4386 251.0523,68.1276 123,36 98.9794,85.1714 204.1122,284.901 168.25,198.75 43.879,40.1111 101.4904,216.1558 74.125,208.5 72.0252,113.9746 278.3847,330.1258 164.625,244.75 125.6981,126.492 156.6899,91.5184 133,185 41.3731,145.5555 129.5892,132.9434 77,82 40.63,23.931 191.8763,209.3686 148,126 58.2627,92.0665 -156.4864,195.2089 -96.625,153.625 C 5438.343,5442.2132 5040.5873,5255.6143 5148,5356 5094.9375,5273.1937 4964.5898,5092.043 5013.625,5193.125 5013.4504,5236.1952 4733.4143,4666.2885 4877,4924 c -71.4919,-107.9258 -228.2974,-56.8819 -173.125,-97 -74.4132,-19.0471 -96.7756,-254.9486 -70.25,-184.25 14.7467,-39.3799 -150.04,-52.1635 -98.625,-82.75 -94.7361,74.7488 -248.1694,21.2702 -201.625,27 -111.5337,8.6398 -104.5844,185.1453 -83.375,113 -12.2852,24.4864 -108.201,213.8548 -80.25,149.375 24.3744,46.9318 -139.4862,184.9336 -80.75,149.625 -33.4238,122.1367 -103.8998,472.8513 -80,371 -27.0632,61.0763 -96.4558,358.6274 -86,270 -78.7985,146.0668 -7.2305,60.222 -24.875,142 -41.91,68.2429 -204.6966,289.8141 -186.125,255 -71.8827,-40.4764 92.7096,220.0674 -7,133 95.1335,164.1955 124.156,793.0763 40,592 -14.7137,53.6133 82.5002,247.142 41,171 29.0865,128.3145 236.3922,318.2092 200,251 96.8767,12.8546 333.6078,256.5155 242,194 66.8981,25.3214 327.1669,163.9767 216,101 108.3372,59.4303 301.9729,98.5514 228.75,48.5 52.2047,-39.4171 241.5097,-83.7764 167.5,-46.25 2.2439,42.7585 197.8605,17.6281 143.875,-6 7.5598,-14.5784 249.7051,-13.2934 237.75,-37 93.8141,-67.3284 288.3365,-94.4762 208.25,-65.75 74.1876,-27.7207 263.0852,-20.3555 216.875,-28.5 -15.7346,17.3385 441.8402,-74.058 171.375,-13.75 12.7649,21.7297 -4.1755,128.7078 74.875,58.875 70.7762,37.2705 -103.1378,68.8973 -85.625,82 -115.2831,28.8079 -341.6715,-17.6654 -258.625,8.875 -87.3173,-23.2038 -424.3046,10.973 -296.5,11.375 -1.5228,86.3703 -153.7167,178.1736 -182.875,117.125 -114.3138,-24.8815 -198.7836,130.2124 -197.625,41.5 -39.1017,82.3724 -550.8256,18.0845 -353,57 -37.3951,34.0909 -117.009,0.5225 -149,11 z"
       id="path6" />
    <path
       d="m 6450,7325 c -19.8264,-88.8163 -240.506,-23.8291 -148,-89 -98.3815,71.2129 -60.8199,-164.346 -63,-139 -26.7067,-57.8212 157.0539,6.7008 -19,-71 -16.4013,9.8809 -7.4389,305.8892 -10,199 -57.2116,-34.8743 -81.7226,-229.4861 -133,-77 93.4894,119.5248 -177.9609,-219.7117 -139,-65 -54.8693,15.9718 -26.1583,-177.7827 -59.75,-131.125 40.312,-102.6698 38.0271,-303.3899 39.625,-234.625 21.531,-89.9305 2.7094,-335.6479 20.125,-247.25 -0.9895,30.4272 39.5015,-562.7626 12,-274 -6.5521,-184.9133 32.192,-700.8293 15.625,-540.25 1.2224,-118.4232 -28.4945,-460.1915 -30.625,-355.75 33.3221,-52.879 146.5608,-201.8871 43,-254 -6.7069,-13.0479 11.346,-123.6086 -29,-120 -38.0431,-103.263 -50.2097,-330.3595 -20,-229 -3.8172,-102.9799 30.1781,-331.8572 34,-274 72.8774,-88.5583 94.4251,-456.3281 35,-353 19.4965,-85.9035 -3.4091,-325.4068 3,-201 2.7462,-218.8182 -85.2506,32.9839 -29,-216.375 33.8478,-4.9025 103.8241,-215.3756 38,-178.625 -53.635,-68.0558 -15.5363,-350.3765 -6,-278 38.5365,-7.7963 -85.8903,-543.719 -15.875,-267.875 12.8843,-250.0479 -4.6488,-346.4854 -3.125,-374.125 -35.3378,-207.4543 -115.1947,-341.9215 -129.5,-538.625 -32.3828,-137.86 -139.0663,-294.5895 -91.5,-200.375 -17.1779,-32.9948 -51.7506,-221.193 -56.375,-153.125 -70.8231,-25.1092 -239.8184,-205.8564 -116.625,-131.25 29.2812,35.1968 -93.0855,-366.5051 -102,-208.625 -185.4137,82.6597 -202.0811,61.5592 -207,113 -28.5131,28.5687 108.9298,-10.8171 -19.5,54.75 -47.0586,3.6875 -9.429,142.289 -15.5,135.25 -80.6722,-36.4557 -84.1256,-113.8096 -43,-113 44.4182,-145.7392 -151.7004,-42.8668 -72,-67 -9.1433,-42.0412 -85.822,-137.5456 -56.625,-110.25 -50.8078,-26.855 -211.513,40.3839 -160.25,-10.625 -63.4232,-21.16 -110.8065,-112.9901 -100.125,-81.125 4.8931,-16.8838 69.8444,5.224 -25,97 -7.8653,92.0626 -27.9326,151.8423 -35,106 17.6757,59.5679 -87.2344,210.7177 -52,140 -92.4085,16.671 -123.7207,145.0815 -107.75,69 -51.982,-72.4306 -24.3147,64.2837 -98.25,80 -37.7495,-19.4468 -104.3368,47.7182 -142,-25 92.0603,53.2914 39.7059,80.9755 -65,1 -77.8337,-69.7712 -272.492,-163.167 -196.125,-68.125 -12.4136,12.2947 -118.5311,-17.3484 -87.875,-0.75 -41.2085,-31.1861 -236.568,27.6595 -147,-1.125 1.4936,-18.8874 -131.1397,68.0492 -73,0 -64.3536,-24.5339 -211.672,-67.3971 -143,-36 -47.5293,2.7419 -218.7941,-85.836 -142,-51 -126.8247,-48.6966 -167.7058,-48.3802 -159,-49 -121.9348,-168.528 71.7851,242.1956 10.875,103.625 54.2119,39.0573 13.684,319.4496 67.125,261.375 -12.5957,117.0486 -37.2313,20.1053 -65.875,180.125 41.1688,49.8396 48.3958,230.4026 43.875,182.875 -20.2352,155.2418 -51.1882,175.1422 57.3281,373.7969 52.6017,86.1012 141.0189,247.8044 99.6719,135.2031 63.2462,29.1215 75.1872,82.2068 127,48 -37.5757,-110.8285 156.7502,-40.4507 117,-46 -79.6812,94.9386 466.6141,-175.5062 146,-19 63.1309,-20.999 162.9551,-34.2755 50,25 52.8544,-82.5338 118.5634,-3.083 74,-8 2.572,-12.765 201.8278,77.8474 146.5,42.125 -74.8896,-51.9465 -83.7431,24.0984 36.125,-30.875 95.6051,9.9671 99.9271,-10.2458 162.875,10.25 -66.0526,-73.564 74.73,-97.1351 106.5,-43.5 -8.5707,-52.898 4.6173,-45.5811 60,27 81.162,-56.5565 131.1592,11.0989 89,-2 75.9114,-96.5868 244.6143,-139.2344 129,-83 34.3163,56.1781 -49.8154,1.3154 32,-4 116.4305,43.2132 236.2035,13.0086 164,-17 26.0292,11.7698 125.4335,15.7071 123,-40 61.2433,-4.0668 263.0489,35.1647 246,-31 -26.8944,52.3571 15.4293,-9.4816 106,29 -172.7587,-6.7539 -5.8149,61.1568 58,-4 154.9757,8.6543 221.2085,127.4886 216,78 44.4728,-72.6177 145.4645,32.1309 154,48.875 -0.033,151.2271 -42.5098,153.374 -74,66.125 -32.7939,48.2301 -255.2009,-40.5202 -211.625,21.125 -40.0847,-46.4053 -85.907,1.6688 -91.375,-38.125 -57.1846,-90.405 -163.5814,-161.2696 -121.125,-60.625 -122.1708,27.0131 -218.7248,3.2012 -162.375,41 8.105,65.1476 -244.0174,48.2987 -171.5,50.625 -95.7917,13.4989 -107.8236,88.4921 -128,33 -183.1769,104.0112 54.7984,4.046 -182.375,109.125 -19.108,-22.527 -151.0115,-35.8258 -163.625,3.875 163.508,17.5586 -206.5664,49.7082 -77.5,4.875 0.202,34.377 -95.6014,80.0997 -48.125,52.125 -94.0578,51.2376 -257.9626,7.4849 -153.375,14 -2.6726,6.7809 12.3602,125.6873 -123,77 19.398,25.2866 -159.4739,51.4378 -87.5,33.75 -76.9838,37.61 -345.2018,114.5945 -280.5,43.25 -145.0257,-73.5792 -99.7003,50.6302 -253.5781,-28.6406 -55.755,8.1396 -136.274,-30.9673 -115.5469,-11.6094 -43.3102,57.3534 -149.6372,-79.5672 -167.875,-38.75 -34.2722,-56.8525 -182.7186,-45.7073 -147,-98 -85.8836,-6.7844 -324.8318,-185.9808 -210.625,-142.875 C 2818.921,2708.5268 2456.9852,2487.4218 2612,2526 c -52.0671,-50.095 -205.7543,-289.4642 -162,-201 -42.2144,-72.8769 -89.9955,-287.3003 -73,-202 -32.7101,16.9895 -0.8169,-331.31 -13.625,-161.25 -23.992,-49.1811 50.074,-294.0079 19.625,-209.75 38.1638,-54.5287 85.6042,-145.5655 26,-144 2.0415,-36.1886 186.2109,-269.8516 87.625,-132.625 39.9055,-20.0142 218.2465,-182.8168 153.25,-155 -30.1971,-11.2302 59.7139,-64.303 57.5,-31.375 19.2096,15.4473 193.5409,-74.7062 115.625,-40 54.5509,48.1765 205.8499,98.8666 131,43 98.2635,-31.6135 221.422,97.4216 170,74 122.0079,76.8582 82.0183,-139.1479 63,-78 -20.0573,-105.7322 95.1289,-143.7851 20,-142 -5.5264,-172.56583 27.8576,-32.7994 90,-81 24.9257,3.7299 166.8388,-132.50427 99.625,-111.125 -22.144,9.81961 89.1817,51.5648 97.375,23.125 110.6736,47.6363 73.1695,21.79232 66,103 -1.8731,195.526 92.5738,-163.09621 86,5.5 123.848,-73.1684 258.859,147.7565 165.625,40.75 79.0702,17.6272 211.1728,-13.8674 95.375,39.75 -143.5876,-89.2826 -15.8024,-340.41225 3.125,-207.875 61.4264,-65.65957 241.9703,-148.33111 169.5,-97.5 21.6709,-28.17924 102.1347,45.12662 70.5,-80.5 82.9873,8.86677 232.5232,37.01529 143.5,8.125 40.4746,72.14881 123.0359,-26.19519 127.375,-52.25 181.9614,-10.25765 0.092,-72.01957 162,-44 61.152,6.69916 144.5298,-193.41769 130.5,-96.25 48.4141,42.35934 78.4575,102.18811 78.5,20.25 52.5608,-52.88962 107.4033,-110.79913 117.125,-53.75 15.1655,25.86771 184.6167,-24.51134 155.875,-12.25 -20.637,82.46694 204.3142,-35.61362 125,33 -111.1715,4.20192 103.673,-25.57622 104,7 50.5783,-42.98216 142.1591,38.05347 85,6 92.061,64.68877 153.7097,41.9611 65,-8 72.9254,59.53174 311.2618,185.14897 237,97 65.2709,-12.6727 246.9424,104.37195 175,57 120.282,2.06488 -40.3704,50.06336 108.875,40.25 -16.3311,69.00215 294.6681,126.89358 204.375,168 37.0688,86.4793 201.3591,296.6298 160.75,184.75 113.1706,110.3289 153.9403,166.5172 176.375,218.875 41.6315,122.6751 96.8652,220.6352 145.75,319.875 102.4617,367.8936 219.5781,753.4145 195.1406,1139.5625 15.6742,163.6576 118.3775,488.7847 86.7344,359.6875 7.3185,107.0143 -54.905,341.6709 -33,283 -13.5317,80.5919 -47.8396,357.4191 -28.375,260.875 31.0611,3.5936 -15.1187,218.9508 -9.625,173.125 -31.469,73.5558 -126.5813,382.8649 -76,280 -20.6434,169.4332 -55.8069,667.3971 -39.875,496.875 -50.6158,131.7219 -126.4036,461.7027 -92.125,341.125 -22.8676,120.1785 -102.9941,475.1375 -75,367 -37.1781,155.9958 -31.8518,174.2122 -67,324 -22.7456,137.2252 -51.0651,508.3377 -33,361 -31.158,197.8605 -24.1299,143.1821 -20,254 7.2422,133.9728 -27.9973,135.2861 1,299 -7.2621,32.5863 54.9592,432.9028 46,287 28.9757,105.4193 57.1924,275.6342 41,177.375 -48.3085,68.0763 37.5705,241.9685 -98,247.625 z m -380,-210 c 69.3053,-76.0174 8.838,-180.7631 29,-131 14.8806,-171.6257 -68.3966,-115.4328 -65,-2 -97.3777,30.3308 21.4519,170.8767 19,111 23.2684,30.4662 86.1891,88.722 -3,36.125 z M 2930,2484 c -31.1418,-65.2393 -129.1288,-303.8928 -71,-174 -117.6477,43.928 -198.8076,-152.4841 -79,-114 26.9549,-126.8827 -9.6319,-184.1839 -51.875,-63.75 -43.0915,-8.3556 -33.0912,-82.7104 0.875,-48.25 -66.4425,-61.7397 69.302,-74.7519 -98.75,-145.875 -140.5724,-1.6907 -25.3126,108.3871 -2.25,50.875 -7.5558,18.6452 131.6717,198.5671 56,148 18.7272,44.9708 82.8912,162.912 102,158 -47.7065,142.2824 -65.2246,226.2292 34.125,115.25 70.0181,-51.7862 47.6365,113.4953 109.875,73.75 z m 22,-333 c 1.983,-159.9644 89.5898,-155.7865 66.125,-213.375 -48.801,-77.1023 -76.7339,-155.2499 -46.125,-104.625 19.5797,-3.9655 -8.5682,-167.3656 -15,-132 -110.1449,-13.6691 -140.0181,258.3268 -114.75,227.875 27.8461,16.026 208.8523,282.2246 103.25,242.3594 z"
       id="path8" />
  </g>
</svg>
