<?xml version="1.0" encoding="UTF-8" standalone="no"?>
<svg
   version="1.0"
   width="1024.000000pt"
   height="1024.000000pt"
   viewBox="0 0 1024.000000 1024.000000"
   preserveAspectRatio="xMidYMid meet"
   id="svg12"
   sodipodi:docname="G.svg"
   xmlns:inkscape="http://www.inkscape.org/namespaces/inkscape"
   xmlns:sodipodi="http://sodipodi.sourceforge.net/DTD/sodipodi-0.dtd"
   xmlns="http://www.w3.org/2000/svg"
   xmlns:svg="http://www.w3.org/2000/svg">
  <defs
     id="defs16" />
  <sodipodi:namedview
     id="namedview14"
     pagecolor="#ffffff"
     bordercolor="#666666"
     borderopacity="1.0"
     inkscape:pageshadow="2"
     inkscape:pageopacity="0.0"
     inkscape:pagecheckerboard="0"
     inkscape:document-units="pt" />
  <metadata
     id="metadata2">
Created by potrace 1.16, written by Peter Selinger 2001-2019
</metadata>
  <g
     transform="translate(0.000000,1024.000000) scale(0.100000,-0.100000)"
     fill="#000000"
     stroke="none"
     id="g10">
    <path
       d="m 4655,9420 c -11.6088,-51.7617 -191.3607,-102.2764 -176,-40 -238.6691,16.2383 -33.4736,-34.7642 -272,-17 -34.8751,1.951 -387.7266,-71.791 -317,-45 -67.4395,5.4551 -231.0851,8.9092 -184,-3.5 -29.3059,-31.6851 -213.7902,-129.7494 -192,-96.5 -71.8387,-39.1589 -223.4999,-201.173 -157,-123 -10.6051,-64.8366 -214.7721,-128.0147 -147,-90 -84.1941,6.7422 -446.8727,-337.7282 -232.625,-158.875 89.4687,56.2363 -731.662,-253.8818 -277.375,-88.125 -48.8441,-20.9281 -217.5762,-107.6198 -165,-59 -114.4623,-24.6675 -228.273,-76.0742 -188.875,-64.375 -10.2675,34.8215 -348.8286,-147.8883 -204.125,-71.625 -44.1321,-33.0428 -189.7799,-153.0503 -117,-83 -147.9584,-65.1158 -485.6169,-278.6968 -361,-209 3.4681,-52.9997 -237.7796,-290.2507 -184,-190 -13.329,-12.0241 -301.4808,-249.0958 -135,-141 -86.0906,-56.6518 -239.6968,-222.1861 -174.25,-164.75 -18.8063,-60.4065 -85.5665,-203.8532 -80.75,-155.25 -50.9647,-76.7598 -25.8671,-304.45 -31,-270 -37.0209,6.131 187.4492,-261.216 155,-212 47.5943,-27.5462 374.6706,-33.3914 239,-49 31.5749,48.0206 91.1996,167.7878 52,109 9.1177,40.4148 157.9522,231.2994 101,155 -47.7371,-61.5689 9.8472,-46.7968 85.75,-70.875 68.1641,26.7233 9.5412,-41.8411 13.25,-92.125 -0.411,-65.7277 228.8787,-127.0441 146,-86 126.886,-7.5087 197.2113,-3.4299 223,8 54.9147,-12.8177 196.6463,134.2155 127,39 56.8224,4.1547 128.7275,126.1998 59,106 36.3456,97.2436 145.0543,236.257 95,133 26.8883,42.1472 10.1461,54.1793 95,56 259.9677,156.6196 -4.7899,-5.4465 112,128 -131.1904,139.57 138.2511,-27.1019 -38.625,101.25 -37.4859,21.1136 109.1822,81.9517 71.625,94.75 124.2712,-32.8012 154.6196,136.2608 93,96 109.8254,-6.7305 -12.2807,-1.8438 128.25,-1.25 -72.0728,-150.5285 -167.1438,68.9853 14.75,5.25 40.2062,-10.7383 126.7628,58.3859 105,52 124.1327,-100.705 123.4157,120.9764 42.125,-80.875 -173.6903,66.8087 -37.5657,-11.3105 -2.125,-27.125 27.1791,-52.2352 193.2053,-24.2181 106.75,38 83.6905,-15.7589 202.9015,13.3321 151.625,22.25 135.4138,67.5566 312.1005,38.4703 175.625,33.75 3.6758,48.7613 471.6763,-13.4584 216,38 19.0912,14.3604 -93.6799,105.3906 32,70 -98.4696,-102.8573 64.7164,-29.3939 31,98 20.4247,163.3159 99.6584,-94.8855 83.75,18.25 -23.544,100.1464 644.7658,-1.278 216.25,106.75 12.9695,46.701 138.4764,-114.6008 99,-18 -144.0766,31.5435 -8.9913,29.4981 -52,-24 138.0023,94.6717 138.2103,103.6469 106,76 200.4217,52.1068 -38.4224,-53.9294 177.125,-31.875 66.4504,-1.4995 115.2116,116.1489 62.875,101.875 31.6745,136.0318 137.7952,-18.834 78,-29 -82.1958,-46.1467 97.7983,-3.2646 -6,-44 69.0424,-79.2425 79.1581,2.8811 96,51 118.1826,-33.1705 265.9593,-121.0283 139.625,-74.875 94.0298,-31.6416 187.3142,24.2746 202.125,-4.875 124.8094,-139.7503 -69.1163,-107.2779 133.75,-104.875 -31.8859,-63.55 82.1268,-43.7126 111.3355,-34.6236 C 5249.7751,8015.4507 5358.4436,7929.3209 5285,8020 c 128.8049,42.3695 357.292,32.1075 245,-7 20.1113,12.6603 101.3715,149.9571 135,51 24.5444,-2.3462 -192.4384,4.661 -81.625,40.125 -91.5478,49.483 127.8902,35.4302 135.625,5.875 138.2842,6.438 164.8659,-98.3729 111,-78 -150.01,-49.9801 165.7837,-50.7991 137,-38 34.0105,100.3101 287.0694,62.9781 147,-30 11.4947,-42.4397 176.6857,-39.1521 111,-14 4.9599,-75.1669 147.9432,-42.4709 148,-64.625 122.1109,-83.4549 118.9348,-82.2468 136.875,-112.875 32.5056,60.9913 271.2923,-127.2111 191.75,-121.875 -61.9394,-3.1536 109.5614,-110.5605 132.375,-105.625 85.4895,-111.0004 176.8018,-31.9038 140.125,-133.875 25.2005,-21.8067 247.1039,-52.2544 150.125,16.125 56.9119,-42.7442 239.7933,-232.6033 83.75,-177.25 1.5595,15.1779 114.4267,-218.1153 113,-138.125 36.8826,41.0195 201.4901,-164.2407 140,-111.875 35.3844,-68.8483 136.6526,-188.7205 126,-176 52.6188,-74.6286 148.3705,-29.8675 132,42 -43.4985,-54.6842 202.7504,-140.2003 77,-127 54.8308,-38.836 95.742,-51.0114 128,-15 -24.6633,70.9602 203.9024,-32.4104 109,-49 58.2791,64.1129 291.3966,197.5865 197,137 8.7974,10.9371 130.6772,-27.6885 157,-36 45.4993,-23.0708 118.9057,33.2572 103,-36 39.4204,7.7854 76.4376,-1.2296 111,-4 122.3581,-95.5009 154.0769,-47.9102 72,51 -29.2506,-1.7459 -78.8705,133.2286 -108.125,118.875 -1.7197,-22.202 -422.1064,394.7403 -110.875,104.125 -24.9869,-22.3083 -86.4395,203.9774 -65,142 -71.0235,61.3618 -137.2751,376.6468 -136.125,119.5 46.6877,76.5641 -90.0883,211.7365 -47.875,143.5 -42.201,-22.8329 -213.7886,164.7029 -135,109 52.7934,-19.3782 -124.4873,26.8672 -133.375,60 -143.8188,54.4013 -510.1297,294.3306 -394.625,211 -74.1914,69.563 -218.7149,187.1235 -163,135 -76.5629,51.462 -213.0447,96.427 -140.125,86.25 -25.3034,83.3897 -290.6708,297.6957 -222.375,218.375 -2.2351,24.2677 -180.447,134.6191 -119.625,103.5 -101.5026,155.3279 -12.1019,17.8381 -172.875,180.875 -42.884,45.155 -198.4851,242.0642 -174.25,169.25 -80.7834,-1.5286 -257.0948,166.7367 -204.75,115.75 -24.5513,18.7067 -113.1117,19.9794 -122,36 -143.4559,97.8609 -410.0653,190.5281 -296.875,138.75 -49.1933,73.8005 -329.7339,50.1988 -250.625,77.625 -60.5109,55.0733 -233.5711,101.575 -188.5,84.625 -80.1232,17.5923 -309.2934,62.3843 -187,39 -70.8945,30.2677 -281.4682,23.8051 -195,13 -39.0897,18.4333 -181.9541,35.1132 -132,19.875 -51.7187,-20.7923 -285.7728,-6.6578 -201.125,17.625 -124.1442,121.2194 -138.4756,174.8637 -102.875,164.5 -0.154,10.5953 -21.7709,54.0804 -14,25 z M 3530,8105 c 78.5539,-46.8731 -43.2944,-107.0537 32,-115 38.0698,-43.6089 -628.9366,148.1385 -150.75,2.125 -13.8833,-91.6359 -88.1923,-109.4993 -59.25,-16.125 100.4341,210.1114 260.5602,253.2718 140,117 17.4253,11.1566 -13.1782,40.4865 38,12 z m 4354,-947 c 21.4189,-26.7449 113.1653,33.6088 67,-98 62.5906,-52.3774 -140.6003,-191.6806 -50.75,-144.875 138.5671,162.5581 78.8202,186.4823 12.75,68.875 -46.1366,30.138 -102.9595,-23.536 -108.375,39.375 -144.0858,97.8747 -33.9073,109.7102 47.375,70.625 -14.897,50.6572 -9.463,83.73 32,64 z m -226,1 c -47.4079,-0.419 -145.1339,-248.1741 55.25,-224.125 -23.4798,38.2551 -6.0347,273.2796 -68,134.25 -58.9091,-9.2036 19.1708,123.1497 12.75,89.875 z"
       id="path4" />
    <path
       d="m 2717,7826 c -0.846,-124.0831 -53.2722,-324.0022 -149,-162 21.335,96.9814 156.9682,67.4418 122,58 -88.4242,-154.1293 152.2521,133.4098 27,104 z"
       id="path6" />
    <path
       d="m 1725,6593 c -182.5926,-175.1239 -45.3561,250.3693 -99,-90 -55.1831,12.5098 -131.4576,-100.2056 -122,-98 -45.8255,-36.7642 -151.3083,-57.0074 -150,-95 -59.1849,-85.1569 -127.4693,-234.0803 -98,-157 -100.0846,-23.6941 -181.9264,-193.7218 -147.375,-140.5 C 1047.6481,5978.6219 896.51175,5820.7126 963,5877 908.60044,5817.9886 797.9052,5711.7509 868.93776,5741.3627 932.06935,5751.5722 802.29444,5530.8595 817.875,5597.25 833.73868,5521.156 796.85038,5352.7402 766,5421 c -94.38854,-25.3186 -14.74073,-309.3674 -18,-252 4.58546,-70.1898 67.16324,-375.966 52,-236 23.66857,-17.2778 101.72479,-315.9257 49.125,-221 -35.76647,-33.6846 28.19317,-173.2218 10.875,-132 -21.07279,-65.344 1.40215,-222.6616 -12.875,-192.75 C 813.0661,4246.237 905.55716,4116.7433 887,4175 c -34.3104,3.3012 5.2856,-78.0525 5.125,-106.75 -16.90753,-72.1127 -97.21063,-171.5834 -20,-124.25 72.79029,6.1045 44.61366,-163.6846 19.875,-141 -36.17306,-5.2933 -36.4168,-230.0281 -31,-220 15.02921,-66.2456 5.95935,-175.0968 15,-178 11.63858,-104.9212 214.4868,-70.6129 159,-54 30.9362,-30.5242 -30.2998,-157.0489 35,-58 -106.96138,106.8315 -84.9946,-81.008 -53,-63 25.0831,-139.8267 149.9163,-129.4615 121,-56 -37.345,-9.0521 147.1727,-137.6992 48,-144 33.9621,64.6362 121.1042,139.1306 79,161 75.3541,118.7797 -23.5339,-193.3187 96,-37 81.208,24.9336 243.6252,52.8605 127.875,76 96.2094,10.7203 -53.1957,28.0434 96.125,51 0.4532,-38.4284 95.3407,-120.6337 64,-135 136.3693,-176.1174 74.1341,-174.2539 147,-183 57.0808,-71.2432 180.238,-172.7834 123.125,-109.375 55.2452,-79.988 190.0578,-186.0062 130.875,-134.625 50.7656,-70.6997 82.744,-62.8882 86,-93 59.6818,-59.7787 181.0863,-252.8619 149,-161 49.0158,-61.2271 227.2342,-259.7997 140,-150 -159.99,154.7863 262.9767,-276.4654 90,-109 66.3171,-35.9057 180.9356,-50.3216 109.875,-83.75 24.6378,-129.573 63.3461,-37.3189 79.125,-75.5 84.6419,-28.2629 289.7662,-194.6495 186.1875,-121.6719 9.5404,-6.8724 76.5809,-32.509 112.0625,-37.8281 145.3634,-75.6996 117.0166,130.6467 32.75,-170.25 -42.6053,-55.7752 35.1365,-206.7751 35,-142 -10.8424,-52.8336 110.7587,-7.7715 94.75,-84.375 -67.9848,-3.5236 294.5349,-15.912 113.25,-94.625 71.7333,2.1977 109.2836,-176.224 112,-133 35.7061,-81.8391 -42.867,-187.3072 7,-115 -19.4801,-10.2673 153.5895,-104.246 25,-114 32.6619,24.1175 84.7653,96.2406 91,128 34.6991,59.8692 125.8755,245.9501 77,182 6.7442,55.917 89.2995,99.6459 114.375,119.75 45.7279,73.0942 158.8156,157.6859 139.625,98.25 5.8986,-43.6153 103.617,36.0838 111.75,26.125 39.5553,16.9806 300.0279,90.5663 208.125,78 14.6472,28.7985 162.0461,132.2204 133.25,67.875 169.2516,30.0549 224.3149,90.5997 197.875,66 46.5142,-5.6586 195.6325,47.2149 151,46 63.7844,20.5241 264.6098,57.5549 198,40 39.2886,41.736 161.1581,109.6749 153,50 8.4136,-31.9211 216.8724,32.678 160,10 40.3832,-18.5022 180.989,87.2244 126.5,50.75 38.4245,5.4716 156.7455,97.1174 136.5,63.25 56.5244,24.9905 340.996,150.7782 282.5,109.125 59.9105,-14.8095 203.6772,32.1591 154.25,17.0938 79.8544,27.9716 254.43,111.8193 189.5,87.7812 37.4174,26.9007 238.1602,160.9656 158.75,106 108.0415,50.1507 333.7718,315.498 254,236 10.0802,21.5537 183.7498,455.8973 81,190 80.1439,54.731 197.9259,178.7076 137,141 44.9462,137.5115 164.7833,277.4071 117,165 39.9703,47.6121 186.1806,101.7337 156,98 92.9994,192.1558 17.5685,-303.0085 64,125 113.1845,63.8296 48.0806,-138.2581 56.75,-115.5 27.5557,-89.3997 60.2452,-302.754 29.25,-225.5 -11.6536,-98.2493 21.5627,-371.8981 19,-258 40.1985,-93.0452 57.0533,-236.0556 32,-199 14.254,-221.1012 56.5662,-79.5323 22,-259 29.5957,-55.7374 77.5961,-254.5506 23,-200 -68.0551,-57.4203 -112.6126,-174.9746 -54.875,-131.5 44.387,-92.5638 4.6671,-346.5102 -32.125,-246.125 -59.6931,-68.4622 72.4664,-167.4369 49,-165.375 36.5851,-45.1959 196.3632,-93.2695 175,-90 64.3214,-48.1242 65.1251,-96.9208 77.5,12.125 7.3509,-25.4816 98.3194,11.0149 159.5,-30.125 71.5998,101.8842 162.4438,-89.9804 172,105 56.1222,-76.1738 -61.0527,-1.6275 -4,52 -43.0066,75.9118 -176.8775,172.4216 -120,185 -50.519,123.2231 -48.2941,286.986 -48,218 5.0756,49.0871 -31.4962,275.0023 -17.75,249.25 46.1569,1.0536 114.8537,123.0682 47.75,151.75 -35.1117,130.9774 -17.599,306.7668 1,232 9.18,54.3727 5.2416,162.5747 9,178 99.9988,75.4562 115.501,198.6259 73,156 -7.2969,195.9261 -49.813,26.4637 54.75,164.375 -48.1119,39.7256 -30.8564,150.4852 -7.75,116.625 13.9966,120.001 71.6806,300.9617 28,217 32.282,47.8034 282.8998,231.112 171.125,206.875 -3.9688,47.3871 266.8556,-13.4752 221.875,-42.875 -9.351,42.0307 308.4486,45.5828 211.625,43.875 91.0969,38.081 176.9426,15.5059 142.875,20.25 43.4096,82.8774 182.081,106.3702 126.75,46.125 74.1338,-51.9643 307.0227,197.882 215.375,60.75 121.2352,-69.967 18.3931,20.4951 141,6.25 -45.1847,8.3182 -38.832,55.0297 78.5312,9.2969 101.522,-48.3758 210.5366,-24.4777 186.7188,10.3281 81.0834,45.1042 195.2304,66.4419 134.125,73.125 54.2503,53.558 219.3426,229.5926 147,117 61.3262,-12.3886 132.0916,272.564 105,257 11.9634,83.5874 -16.0163,264.5905 -18,230 -47.5415,17.4404 -73.9784,142.1793 -80,133 -85.154,64.8457 -157.7017,177.0231 -144.75,155.875 -34.8545,-0.1515 -176.6604,83.4719 -114.5,76.125 -27.0267,56.9455 -224.74,158.8136 -148.75,99 -22.79,-25.8766 -276.1681,67.0382 -194,71 -38.0521,36.4637 -423.4027,66.7579 -239.75,55.375 -17.8813,32.2534 -379.1369,64.8054 -283.25,46.625 -4.5398,43.0172 -549.2626,-180.4705 -164.5,-16.5 -18.4851,47.382 -150.9421,-38.0784 -125.5,13.5 -47.8447,-51.8657 -320.0112,-109.5774 -198,-73 -83.6932,-34.4866 -289.2965,-50.9171 -188,-38 -22.6236,6.2889 -330.758,-256.6633 -197,-140 -91.1406,-94.9737 -277.4507,-234.0202 -218,-201 -79.5271,-66.3922 -193.4676,-327.5134 -154.125,-260 3.3288,-121.1128 -92.854,130.7002 -81.875,98 -15.8472,87.2203 -100.541,281.5969 -100,198.75 -73.0551,30.7816 -226.0714,104.8366 -154,89.25 -38.5589,18.2951 -248.1148,150.3607 -165,143.5 23.8958,99.1512 -239.191,95.073 -187,85.5 -58.524,-7.1131 -321.6125,10.4657 -218,1 -73.8891,10.1216 -244.5995,-39.8831 -189,-11 -108.8472,-13.1068 -587.6774,-177.1645 -388.25,-70.875 -57.4676,-32.8551 -315.6952,41.2595 -279.625,2.375 -58.7101,-13.4503 -263.9148,-45.6845 -184.125,-20.5 -64.2238,-7.7777 -271.2547,-51.3709 -224,-27 -137.1364,8.5579 -290.191,-51.154 -190,-33 -18.7074,-46.2661 -174.8432,-70.5212 -148.125,-62.75 -34.3924,-6.073 40.6911,-247.3479 -29.875,-175.25 57.915,-50.1517 220.646,-147.1287 163,-127 36.2892,-61.8485 188.6757,-123.2181 135,-97 76.6038,-43.9748 251.313,-104.1302 214,-106 16.5012,-27.76 228.2875,-140.3753 165,-80 62.5928,-21.068 167.3032,-68.1339 156,-84 28.3445,-34.4663 175.4905,-70.9284 180,-47 26.253,50.2467 175.3691,154.9815 181,130 48.6462,92.9101 194.1304,120.2775 96,77 22.2309,-108.3643 219.7438,560.5434 45,120 -29.4938,1.6186 -5.8172,-74.6272 67,-13 101.6266,-15.8257 108.9597,47.7784 141,34 50.3574,152.5855 28.4983,59.366 99,-22 85.2497,-7.389 296.5637,-134.2496 210,-35 -68.3226,-40.002 -94.2724,-142.6841 -8,-156.75 71.761,-120.1726 24.8845,-423.7579 20,-290.25 23.3675,-85.9606 -57.3556,-261.8742 -39,-203 -5.6538,-81.2546 -164.2879,-344.0987 -85,-225 -70.7113,-120.3996 -231.6912,-202.5298 -168,-150 -70.0813,-62.364 -131.756,-180.5096 -105,-105 -55.5935,-12.8983 -122.2765,-149.9025 -132,-106 -74.3492,22.0304 -226.4632,-101.1113 -134,-90 -2.3831,-46.1939 -184.3958,-150.6392 -138,-139 74.1526,-63.7287 58.5378,-258.0681 -19,-158 27.9522,-77.4979 -543.9752,27.7983 -192,-57 -45.6156,-16.4538 -259.2569,9.2148 -191,1 -156.9243,-96.7565 -272.5608,-224.2423 -227.375,-179.375 -43.2573,29.0883 -320.3502,2.4265 -245.625,-55.625 8.4778,-16.7819 -217.3831,-60.4451 -151,-37 -36.5377,19.1135 -175.13,103.129 -207,-33 173.2108,154.88 -171.0232,205.2292 -29,191 -58.8731,-1.2084 -149.5267,14.1449 -103,-12 -102.3252,-38.0696 -293.4827,-116.7779 -159,-60 -159.0482,20.7571 -42.2844,-11.048 -106,-20 -36.0399,65.384 -72.0715,87.7908 -95.875,35.125 -96.1013,-29.0232 -364.9215,-53.5108 -260.875,6.125 -54.6667,9.9205 -250.0902,101.4444 -186.25,44.75 1.2392,-29.9091 -133.2367,-71.6637 -128.8125,-7.9219 -87.7162,23.5433 -279.6705,6.9772 -169.1875,20.5469 -24.0511,83.8951 -377.2847,201.1778 -286,116.375 -118.4055,74.352 -238.7544,156.92 -125,89 -43.3474,50.6255 -232.4476,154.0399 -147.875,136.875 -31.7157,72.0192 -201.9905,327.5299 -149.125,233.125 -207.2074,176.4319 74.8152,119.0222 -200,194 -112.4556,9.2223 -258.7684,190.4884 -197,147 -34.9023,0.5662 -207.3926,36.9226 -150,80 -20.6077,164.6984 17.7063,-117.0256 -110,9 -98.6693,53.1565 -512.0755,150.7708 -307,86.125 -125.3792,-23.6208 -76.2076,274.9879 -100,262.875 -20.5593,109.4644 -59.9547,314.384 -33,197 -39.3139,145.9243 -48.2157,269.621 -53,262.125 -20.7479,43.6154 -11.1939,280.0829 -16,219.875 -33.8789,12.5422 -66.1163,124.1675 -20.375,113.25 15.3709,141.1199 28.5195,310.3766 15.625,234.375 -25.5623,254.4396 178.7295,125.7747 38.125,260.125 59.9355,39.5722 76.5632,149.7265 58.625,106.25 262.9083,268.6116 -41.6722,-48.9277 153,171 66.1475,31.5251 276.9567,207.8719 169,141 147.2357,318.2477 -286.536,-556.9331 87,172 3.8172,-4.7743 72.3711,331.1648 101,220 -63.9724,31.2851 -101.7937,180.1678 27,150 -130.529,248.5895 -158.0451,304.6692 -126.5,211 -40.4237,30.8672 -37.5621,183.895 -20.5,130 -31.4356,14.3536 -64.0339,51.8653 -108,57 z M 8450,4438 c 136.2586,11.1847 260.2327,-38.9554 210,-28 123.3713,-6.5214 290.676,-29.7859 237.625,-40.125 -19.007,-199.0399 -98.4163,-121.1384 -107.625,-178 -17.4033,2.4319 -135.4711,-10.1309 -123,-60.875 -107.7493,-43.9122 -143.9482,-14.1832 -151,7 -54.4885,-3.4208 -210.4932,61.1625 -143,38 -140.5111,-24.5022 -312.5529,-142.9934 -217,-86 4.9915,11.9487 -134.2784,-26.8686 -149.125,-17.375 -92.0803,51.2772 5.6228,240.0802 -54,124.5 92.0812,111.4383 34.3077,14.2445 181.125,160.875 32.3073,29.6566 142.4565,116.9581 84.375,70.125 49.4911,3.7688 174.0971,-7.1501 231.625,9.875 z"
       id="path8" />
  </g>
</svg>
