<?xml version="1.0" standalone="no"?>
<!DOCTYPE svg PUBLIC "-//W3C//DTD SVG 20010904//EN"
 "http://www.w3.org/TR/2001/REC-SVG-20010904/DTD/svg10.dtd">
<svg version="1.0" xmlns="http://www.w3.org/2000/svg"
 width="1024.000000pt" height="1024.000000pt" viewBox="0 0 1024.000000 1024.000000"
 preserveAspectRatio="xMidYMid meet">
<metadata>
Created by potrace 1.16, written by Peter Selinger 2001-2019
</metadata>
<g transform="translate(0.000000,1024.000000) scale(0.100000,-0.100000)"
fill="#000000" stroke="none">
<path d="M7045 9890 c-3 -5 -12 -7 -20 -3 -20 7 -19 -7 3 -24 9 -8 -1 -5 -22
7 -33 18 -37 18 -25 4 12 -16 12 -17 -3 -11 -21 8 -48 -1 -48 -15 0 -6 6 -6
14 1 11 10 19 7 36 -11 15 -17 19 -18 15 -5 -4 9 -3 17 3 17 13 0 10 -19 -7
-45 -9 -15 -11 -16 -7 -2 6 19 -4 23 -20 7 -7 -7 -11 -6 -11 4 0 8 4 13 9 10
4 -3 8 -1 8 5 0 14 -18 23 -25 12 -3 -6 -12 -8 -20 -4 -8 3 -15 0 -15 -7 0 -6
-4 -9 -9 -5 -5 3 -12 1 -16 -5 -4 -6 -11 -8 -16 -4 -5 3 -8 0 -7 -6 2 -6 -8
-19 -22 -28 -17 -12 -22 -13 -16 -3 6 10 5 12 -2 7 -7 -4 -12 -15 -12 -24 0
-13 -2 -14 -9 -3 -7 10 -12 8 -24 -9 -11 -15 -16 -18 -20 -8 -3 8 -6 6 -6 -6
-1 -12 -6 -16 -17 -12 -8 3 -12 2 -9 -4 3 -6 -2 -10 -11 -10 -10 0 -14 -3 -11
-7 4 -3 2 -12 -4 -20 -6 -7 -8 -13 -4 -13 5 0 0 -9 -10 -20 -10 -11 -22 -17
-26 -14 -5 3 -9 -2 -9 -10 0 -9 -7 -17 -15 -17 -28 -3 -33 -4 -41 -11 -12 -12
-26 -9 -18 4 5 7 3 8 -5 4 -7 -5 -10 -11 -7 -14 8 -8 -15 -33 -24 -27 -5 3
-11 1 -14 -4 -4 -5 -1 -13 5 -17 8 -5 9 -3 4 7 -5 8 -5 11 0 7 4 -4 14 -3 21
3 8 7 14 6 20 -2 4 -7 3 -9 -3 -6 -6 4 -16 0 -23 -7 -6 -8 -20 -13 -31 -11
-16 3 -17 1 -9 -15 15 -27 29 -33 45 -20 16 13 19 6 16 -30 -1 -11 3 -10 14 4
8 11 15 15 15 9 0 -6 -7 -16 -15 -23 -8 -7 -12 -17 -8 -24 4 -6 -4 -4 -18 6
-25 16 -53 11 -48 -8 1 -5 -7 -14 -18 -19 -16 -8 -18 -13 -8 -22 7 -7 16 -9
21 -5 4 4 4 1 0 -6 -6 -10 -11 -10 -22 -1 -11 9 -14 8 -14 -7 0 -11 -5 -26
-10 -34 -7 -11 -8 -6 -6 17 4 27 1 31 -15 28 -12 -2 -19 2 -19 11 0 9 5 12 12
8 7 -5 8 -3 3 6 -6 10 -4 12 8 7 18 -7 42 17 32 33 -4 6 -3 10 2 9 22 -4 32 3
27 19 -5 14 -4 14 5 2 5 -8 13 -11 17 -7 4 4 0 15 -9 24 -15 16 -18 15 -36 -2
-11 -9 -18 -22 -14 -28 4 -6 0 -8 -11 -4 -9 4 -15 3 -12 -1 2 -4 1 -14 -5 -22
-7 -12 -9 -12 -9 -1 0 8 -8 3 -20 -12 -11 -14 -20 -30 -20 -36 0 -6 -6 -8 -14
-5 -8 3 -17 0 -22 -7 -4 -7 -3 -10 4 -6 6 5 6 -2 -1 -18 -10 -21 -13 -22 -19
-7 -6 15 -7 15 -7 1 -1 -9 -9 -23 -18 -30 -14 -12 -16 -12 -8 0 5 10 4 12 -3
7 -7 -4 -12 -15 -12 -24 0 -13 -2 -14 -9 -4 -6 10 -10 8 -14 -9 -5 -19 -8 -20
-21 -9 -13 10 -16 10 -16 -2 0 -15 -35 -49 -43 -42 -3 3 -4 -3 -3 -13 0 -10
-4 -17 -11 -16 -6 1 -14 -4 -17 -13 -3 -8 -2 -12 3 -9 5 3 13 1 16 -5 4 -6 3
-10 -2 -9 -18 3 -33 -2 -33 -11 0 -5 3 -9 8 -7 4 1 7 -2 7 -8 0 -5 -8 -8 -19
-7 -11 2 -16 -1 -12 -7 4 -6 2 -11 -4 -11 -6 0 -8 -4 -5 -10 3 -5 -1 -10 -10
-10 -9 0 -14 -4 -11 -8 3 -5 -4 -14 -14 -22 -10 -8 -17 -17 -14 -22 3 -4 -2
-11 -10 -14 -9 -3 -14 -10 -11 -14 3 -4 -8 -22 -24 -39 -15 -16 -26 -33 -23
-36 3 -3 0 -5 -7 -5 -7 0 -9 -5 -6 -10 3 -6 -1 -13 -9 -16 -9 -3 -13 -10 -10
-15 3 -5 0 -9 -5 -9 -6 0 -11 -6 -11 -14 0 -8 -5 -18 -12 -22 -8 -5 -9 -2 -5
10 4 11 3 15 -4 10 -6 -3 -9 -14 -6 -23 5 -22 -42 -23 -68 -1 -15 12 -17 12
-10 1 6 -11 4 -13 -10 -7 -15 5 -16 4 -6 -8 11 -13 9 -15 -8 -11 -11 2 -20 1
-20 -3 3 -20 -2 -32 -11 -27 -6 4 -7 11 -4 17 5 7 2 8 -5 4 -7 -5 -10 -14 -8
-20 4 -9 -2 -11 -18 -9 -15 3 -27 -2 -36 -15 -8 -10 -24 -22 -36 -26 -13 -4
-23 -12 -23 -17 0 -6 -4 -7 -10 -4 -5 3 -10 -1 -10 -9 0 -9 -8 -16 -17 -16
-14 0 -15 -2 -5 -9 10 -6 8 -10 -8 -14 -13 -3 -19 -10 -15 -17 4 -6 -1 -18
-11 -26 -11 -9 -13 -12 -5 -9 10 6 10 2 -2 -16 -8 -13 -13 -32 -12 -41 2 -10
0 -18 -4 -18 -11 0 -10 -33 2 -47 6 -8 6 -13 0 -13 -5 0 -10 -7 -10 -15 0 -18
2 -19 20 -1 12 12 14 10 15 -15 5 -74 6 -77 21 -71 10 4 12 1 6 -8 -6 -10 -4
-12 8 -7 18 7 43 -48 26 -59 -6 -4 -6 -11 2 -20 7 -9 8 -14 1 -14 -6 0 -9 -8
-7 -17 2 -10 4 -31 4 -46 1 -16 5 -26 9 -23 4 2 8 -3 9 -12 4 -53 19 -74 46
-67 17 5 19 4 7 -4 -8 -5 -11 -13 -7 -17 3 -4 13 -1 22 6 20 17 16 -24 -5 -43
-9 -8 -11 -8 -6 0 3 6 2 14 -3 18 -6 3 -8 -3 -6 -15 2 -11 0 -22 -6 -25 -11
-7 16 -49 54 -86 19 -19 24 -29 15 -32 -10 -4 -10 -6 1 -6 11 -1 11 -4 1 -16
-7 -8 -9 -15 -5 -15 4 0 2 -7 -5 -15 -6 -8 -9 -19 -5 -25 3 -5 0 -13 -8 -16
-9 -3 -13 -13 -10 -25 3 -10 1 -19 -4 -19 -5 0 -9 -20 -8 -44 0 -25 -4 -44
-10 -43 -5 1 -10 -18 -11 -41 -1 -41 1 -43 23 -39 20 4 21 2 11 -12 -11 -13
-9 -13 14 2 23 14 26 14 22 2 -4 -10 0 -15 10 -15 9 0 16 -3 16 -8 0 -4 33 -7
74 -7 49 1 72 -3 68 -10 -3 -5 2 -4 11 4 18 14 23 26 8 16 -5 -3 -13 0 -17 6
-4 8 -3 9 4 5 7 -4 12 -1 12 6 0 8 3 9 8 3 10 -16 72 -18 72 -3 0 6 7 3 15 -8
8 -10 15 -14 14 -9 -3 22 2 29 10 16 8 -12 12 -12 24 -2 12 9 16 9 20 -1 4
-11 6 -10 6 0 1 7 5 10 11 7 5 -3 7 0 4 9 -3 9 2 17 15 21 12 3 19 11 16 16
-4 5 -2 9 3 9 5 0 8 12 6 26 -2 24 -1 25 15 10 10 -9 21 -13 26 -9 4 5 5 0 2
-9 -9 -25 0 -22 14 3 7 13 7 19 1 15 -6 -3 -13 -2 -17 3 -3 6 3 8 15 6 13 -2
20 1 20 11 0 8 5 14 11 14 5 0 7 5 4 10 -4 6 -20 -1 -41 -16 -26 -20 -34 -23
-34 -11 0 9 4 18 10 22 5 3 7 13 4 23 -5 14 -4 15 5 2 10 -13 15 -8 12 12 0 4
6 4 15 1 15 -6 15 -4 0 19 -16 25 -16 25 8 21 13 -3 27 0 30 6 4 6 3 11 -3 11
-11 0 -9 26 4 37 4 4 5 2 1 -4 -4 -7 -3 -13 3 -13 10 0 9 -25 -2 -36 -4 -4 -1
-14 6 -22 8 -11 8 -14 0 -9 -6 4 -14 3 -17 -2 -8 -13 19 -21 33 -10 8 6 8 5 1
-3 -6 -7 -4 -15 6 -23 14 -10 13 -14 -11 -29 -27 -18 -28 -18 -21 0 4 13 0 12
-13 -6 -11 -14 -18 -27 -15 -29 2 -2 -4 -13 -13 -23 -16 -18 -16 -18 0 -12 10
3 17 1 17 -5 0 -6 -6 -11 -12 -11 -7 0 -5 -5 5 -11 13 -8 22 -7 33 1 10 9 14
9 14 1 0 -6 -7 -14 -15 -17 -14 -6 -14 -8 0 -18 19 -14 6 -36 -23 -39 -12 -1
-22 -5 -22 -10 0 -5 7 -7 15 -3 9 3 15 0 15 -10 0 -9 -5 -12 -12 -8 -8 5 -9 2
-4 -11 6 -18 6 -18 -15 1 -12 10 -19 13 -15 7 4 -8 2 -13 -5 -13 -7 0 -9 -8
-6 -21 4 -15 2 -18 -7 -10 -13 11 -71 -31 -71 -50 0 -4 -3 -11 -7 -15 -5 -4
-8 -3 -8 3 0 6 -7 14 -16 17 -13 5 -14 4 -6 -7 7 -8 10 -16 7 -18 -2 -3 6 -5
20 -5 13 0 23 4 22 9 -1 5 4 12 11 14 8 3 10 -1 5 -14 -3 -10 -3 -15 1 -12 12
11 16 50 4 43 -7 -4 -8 -2 -4 5 4 6 12 8 18 5 7 -5 8 -2 3 5 -6 10 -3 11 11 3
11 -5 25 -7 32 -5 6 3 12 0 12 -5 0 -5 -12 -9 -26 -8 -21 1 -27 -4 -30 -24 -1
-14 0 -19 2 -12 3 6 10 10 15 7 5 -4 6 1 3 9 -4 11 0 14 16 11 12 -2 23 2 27
10 3 8 10 12 15 9 6 -4 5 3 -2 16 -11 20 -10 21 8 11 18 -10 20 -8 17 14 -2
26 10 34 19 13 2 -7 3 11 1 40 -2 28 0 50 4 47 4 -2 7 11 6 30 -3 32 -1 34 18
23 16 -8 22 -8 25 1 2 6 7 9 11 7 4 -3 13 0 21 5 11 7 7 8 -12 5 -15 -3 -31 0
-34 6 -4 7 5 9 28 6 25 -3 34 0 31 9 -3 6 -12 9 -21 6 -14 -4 -15 -3 -2 5 8 6
18 8 22 6 13 -8 9 10 -4 26 -10 11 -9 11 6 0 18 -14 19 -13 13 2 -4 12 -2 15
8 12 8 -3 11 -12 8 -20 -4 -10 0 -13 13 -8 15 5 16 4 4 -4 -8 -6 -17 -9 -21
-7 -3 3 -6 -6 -6 -20 0 -15 4 -22 11 -18 6 3 3 -3 -7 -14 -15 -17 -15 -22 -4
-31 16 -14 28 -6 20 14 -3 8 0 14 6 14 6 0 11 7 11 15 0 8 5 15 11 15 6 0 8 7
5 16 -3 8 -2 12 4 9 16 -10 23 24 9 43 -7 9 5 1 26 -18 22 -19 31 -25 21 -12
-16 18 -17 25 -7 35 10 10 12 8 9 -8 -1 -11 2 -19 7 -18 6 1 12 -8 12 -19 1
-12 7 -25 14 -29 7 -4 9 -15 5 -24 -6 -16 -4 -16 11 -4 11 9 14 10 9 2 -4 -8
3 -23 17 -37 14 -14 22 -28 18 -33 -3 -4 2 -1 12 6 11 9 17 10 17 2 0 -6 4
-11 9 -11 5 0 7 10 4 23 -3 16 -2 18 5 9 7 -11 10 -11 15 2 4 9 2 16 -3 16 -5
0 -8 9 -7 19 0 11 5 17 9 15 5 -3 5 -10 2 -16 -4 -7 -2 -8 5 -4 6 4 9 11 6 16
-3 5 0 12 6 16 9 5 6 11 -7 22 -18 14 -18 14 4 9 12 -3 20 -1 16 4 -3 5 -1 9
5 9 6 0 8 8 5 18 -5 14 -4 14 4 2 6 -8 8 -18 6 -22 -3 -4 -1 -8 4 -8 6 0 13 7
16 16 3 8 11 12 16 9 6 -4 18 -1 27 7 12 9 15 9 9 1 -5 -9 -2 -11 7 -7 8 3 17
19 21 35 3 18 10 28 17 24 5 -4 9 -1 8 6 -3 20 12 50 22 43 5 -3 6 2 3 10 -3
9 -12 12 -22 9 -9 -3 -5 4 11 16 15 12 27 28 27 34 0 7 -5 6 -11 -3 -9 -12
-10 -12 -5 3 3 10 6 21 6 23 0 3 5 2 12 -2 6 -4 8 -3 4 4 -3 6 2 16 11 21 15
9 14 10 -10 7 -20 -4 -30 1 -38 15 -8 16 -14 18 -24 9 -9 -8 -15 -8 -20 0 -4
6 -1 9 7 8 7 -2 12 3 10 10 -4 21 14 13 27 -12 8 -13 20 -23 30 -21 9 2 18 4
20 4 2 1 -2 8 -9 16 -11 13 -10 14 4 9 11 -4 16 -1 16 14 0 11 3 22 8 25 4 2
0 2 -8 0 -13 -3 -13 -1 1 9 18 15 34 49 38 79 0 5 6 7 13 3 7 -4 8 -3 4 5 -4
6 -12 9 -17 6 -5 -4 -9 -2 -9 4 0 5 6 12 13 14 9 4 8 8 -3 16 -13 9 -13 11 3
11 10 0 17 8 17 21 0 11 4 18 9 15 4 -3 7 8 5 24 -2 17 1 30 7 30 8 0 7 5 -1
15 -10 12 -9 15 4 15 16 0 16 1 2 16 -21 20 -21 30 0 14 8 -8 14 -9 13 -4 -4
23 2 55 10 50 5 -4 7 4 3 16 -4 16 -2 19 9 14 8 -4 5 0 -5 8 -18 15 -18 16 -2
16 9 0 14 5 11 10 -3 6 -2 10 4 10 6 0 8 6 5 14 -3 8 0 17 6 21 6 4 8 15 5 25
-3 10 -1 21 5 25 5 3 10 17 10 31 0 14 4 22 10 19 6 -4 7 1 3 11 -4 10 -2 15
4 11 5 -3 10 0 10 8 0 8 -5 12 -11 9 -6 -3 -3 1 7 9 14 11 15 16 5 20 -10 4
-10 6 0 6 6 1 12 8 12 17 0 8 5 12 11 8 7 -4 7 1 -1 16 -8 15 -8 20 -1 16 6
-4 11 -3 11 3 0 5 -6 12 -12 14 -7 3 -2 6 12 6 19 1 22 3 10 11 -12 8 -12 10
4 16 14 5 15 9 4 15 -10 7 -11 9 0 9 7 0 10 5 7 10 -3 6 -2 10 4 10 5 0 8 9 6
20 -3 13 2 20 13 20 12 0 13 3 4 12 -15 15 -16 31 -1 22 8 -5 10 3 7 24 -2 17
-2 31 1 30 19 -2 24 4 11 12 -12 7 -12 12 -2 22 6 6 12 20 12 31 0 10 4 16 8
13 4 -2 9 5 9 17 2 18 0 19 -8 7 -9 -12 -10 -12 -5 3 3 10 6 21 6 23 0 3 4 3
9 0 5 -3 11 1 15 9 3 8 1 17 -4 20 -7 4 -6 13 0 26 8 14 7 19 -2 19 -9 0 -9 3
2 10 12 8 12 10 1 10 -11 0 -11 3 -1 15 10 12 10 15 -1 15 -11 0 -11 2 1 10
13 9 13 10 0 10 -13 0 -13 1 0 10 12 8 12 10 1 10 -11 0 -11 3 0 17 10 11 10
14 2 9 -16 -9 -16 -1 -3 25 8 14 7 19 -1 19 -9 0 -9 3 0 14 9 10 9 16 1 21 -8
5 -8 11 1 21 9 11 8 14 -2 14 -9 0 -10 3 -4 8 16 11 17 33 3 50 -9 11 -9 13
-1 9 8 -5 11 0 10 13 -1 11 -6 20 -12 20 -5 0 -3 5 5 10 11 7 12 10 2 10 -10
0 -9 5 4 17 15 16 15 17 -2 24 -11 3 -22 5 -26 3 -3 -2 -5 10 -4 26 1 20 -2
30 -12 30 -9 0 -13 7 -10 18 4 13 -1 18 -16 20 -16 1 -18 -1 -6 -8 11 -7 10
-9 -7 -7 -15 1 -19 5 -13 13 6 6 7 14 3 18 -4 4 1 4 12 0 16 -5 18 -4 8 6 -6
7 -9 20 -5 29 5 14 4 14 -14 1 -19 -14 -19 -14 -1 7 11 12 26 19 35 17 15 -5
15 -4 0 5 -16 11 -17 27 -3 64 4 10 3 17 -5 17 -6 0 -8 -4 -5 -10 3 -6 -1 -7
-10 -4 -14 6 -14 8 2 21 17 14 17 14 -1 9 -17 -6 -17 -5 -5 11 12 15 12 16 -3
10 -10 -3 -20 -2 -23 4 -4 5 -12 6 -18 3 -8 -4 -7 -2 1 7 11 12 14 12 22 -1 8
-13 10 -13 10 1 0 25 -30 32 -47 12 -13 -17 -13 -16 -4 4 12 24 -8 40 -28 20
-8 -8 -16 -6 -29 6 -21 19 -28 21 -37 7z m-210 -370 c4 -6 11 -8 16 -5 5 4 12
-1 15 -10 6 -13 8 -14 15 -3 7 10 9 9 9 -4 0 -9 -6 -19 -12 -21 -10 -4 -10 -6
0 -6 7 -1 17 9 22 22 5 12 9 17 9 10 1 -14 24 -11 47 7 17 13 17 13 0 -8 -21
-25 -30 -68 -15 -77 5 -4 9 -16 8 -28 0 -19 -2 -19 -11 6 -5 15 -14 25 -18 22
-5 -3 -12 0 -16 6 -4 8 -3 9 4 5 7 -4 12 -2 12 4 0 7 -6 10 -12 7 -7 -2 -11
-12 -10 -22 3 -17 2 -17 -15 -4 -16 13 -17 13 -4 -3 11 -15 11 -18 0 -18 -12
0 -12 -2 0 -9 7 -5 11 -13 7 -19 -3 -6 0 -17 9 -25 13 -13 10 -15 -19 -19 -27
-3 -33 -1 -29 12 4 13 4 13 -6 0 -14 -20 -14 -43 1 -34 7 4 8 3 4 -4 -4 -7
-15 -12 -24 -13 -10 0 -12 -3 -5 -6 10 -3 9 -11 -2 -34 -12 -22 -12 -27 -2
-23 8 3 14 -2 14 -10 0 -8 -7 -12 -16 -9 -11 3 -10 0 3 -11 11 -9 14 -16 7
-16 -7 0 -9 -4 -6 -10 3 -6 -1 -7 -10 -4 -11 5 -16 2 -15 -7 5 -29 0 -50 -10
-44 -6 3 -10 -5 -10 -19 0 -14 -5 -28 -12 -32 -6 -4 -8 -3 -5 2 3 6 1 16 -5
24 -8 12 -9 12 -4 -2 3 -10 1 -18 -4 -18 -5 0 -7 -9 -5 -21 3 -16 0 -19 -12
-15 -11 4 -14 2 -9 -9 3 -8 1 -15 -5 -15 -6 0 -9 15 -7 33 2 22 -1 31 -10 29
-8 -1 -11 2 -7 8 3 6 10 8 15 5 6 -4 15 14 20 45 3 13 46 28 56 19 7 -6 10 -2
9 11 -1 22 -15 41 -15 21 0 -7 -5 -9 -10 -6 -6 4 -1 14 12 25 13 11 18 19 13
20 -6 0 -17 -6 -25 -12 -12 -11 -12 -10 -1 5 10 12 10 17 2 17 -7 0 -9 5 -6
10 5 8 11 8 20 0 9 -7 16 -6 25 5 9 10 9 15 1 15 -6 0 -11 -5 -11 -11 0 -5 -5
-7 -10 -4 -6 4 -7 11 -4 17 5 7 2 8 -6 3 -8 -5 -18 -1 -27 10 -7 11 -13 14
-13 9 0 -6 5 -15 11 -21 7 -7 3 -9 -14 -6 -14 3 -28 -1 -32 -8 -5 -8 -4 -10 4
-5 8 6 8 1 0 -18 -7 -14 -16 -23 -22 -19 -6 4 -8 -2 -4 -16 4 -18 3 -20 -9
-10 -17 14 -19 -2 -2 -19 9 -9 6 -11 -10 -7 -13 2 -25 -3 -30 -11 -6 -11 -9
-4 -10 23 -1 21 -6 39 -12 41 -6 2 -2 11 9 19 12 8 18 19 15 25 -4 6 -2 8 3 5
13 -8 37 19 29 32 -4 5 -2 12 4 16 6 4 8 11 4 16 -7 12 19 7 27 -5 4 -4 15 -3
25 4 15 9 15 10 2 6 -9 -2 -21 1 -27 8 -12 15 -10 57 3 49 5 -4 7 3 4 14 -5
17 -1 21 18 18 19 -2 22 0 13 11 -6 8 -16 11 -21 8 -5 -3 -4 3 3 14 12 20 13
20 29 -1 12 -14 19 -17 24 -8 4 7 2 10 -4 9 -7 -2 -14 5 -15 15 -3 15 -1 16
12 5 14 -11 15 -11 5 8 -14 26 -8 34 24 28 17 -3 24 0 24 11 0 17 16 20 25 5z
m-69 -485 c-9 -23 30 -40 43 -18 7 13 10 14 11 4 0 -8 3 -11 7 -8 3 4 13 1 21
-6 13 -10 14 -9 7 2 -6 11 -3 13 13 9 15 -4 22 -2 22 8 0 8 6 11 17 7 12 -5
14 -3 8 8 -8 12 -6 12 8 1 9 -8 21 -11 27 -7 5 3 10 1 10 -4 0 -6 -5 -11 -11
-11 -5 0 -7 -6 -3 -12 6 -10 3 -9 -8 0 -14 11 -20 10 -37 -7 -12 -12 -26 -21
-32 -21 -5 0 -8 -4 -4 -9 3 -6 -4 -8 -16 -6 -18 4 -19 2 -7 -12 10 -13 10 -15
0 -9 -7 4 -20 2 -29 -6 -12 -9 -15 -9 -9 0 4 6 2 12 -3 12 -6 0 -11 -6 -11
-14 0 -8 -5 -18 -12 -22 -7 -4 -8 -3 -4 4 4 7 2 12 -3 12 -6 0 -11 -6 -11 -12
0 -10 -2 -10 -9 0 -4 8 -17 12 -27 10 -13 -2 -19 3 -20 18 -1 15 4 21 15 19 9
-1 15 -8 13 -15 -1 -6 2 -9 8 -5 11 7 -9 45 -23 45 -7 0 43 58 52 60 2 0 1 -7
-3 -15z"/>
<path d="M4370 7718 c0 -11 -6 -16 -20 -13 -11 2 -20 0 -20 -6 0 -5 -10 -9
-23 -9 -13 0 -29 -6 -36 -12 -11 -11 -13 -10 -7 2 4 8 -2 4 -14 -10 -12 -14
-19 -19 -15 -12 3 6 1 12 -4 12 -6 0 -11 -7 -11 -15 0 -8 -6 -12 -13 -9 -8 3
-19 -5 -26 -18 -9 -18 -11 -19 -6 -3 5 19 4 19 -9 3 -7 -10 -18 -18 -25 -18
-6 0 -11 -5 -11 -12 0 -6 -3 -8 -7 -5 -3 4 -12 -1 -20 -11 -8 -9 -12 -11 -8
-4 12 23 -23 12 -39 -13 -14 -21 -20 -23 -36 -15 -23 12 -40 -7 -19 -22 11 -8
10 -9 -3 -4 -10 3 -20 1 -23 -5 -4 -5 -11 -7 -16 -4 -5 4 -9 1 -9 -5 0 -7 -7
-9 -16 -6 -15 6 -15 4 -3 -11 12 -14 12 -16 0 -8 -11 6 -13 4 -8 -11 7 -18 6
-18 -9 1 -16 20 -16 20 -11 -3 5 -20 3 -22 -11 -10 -14 11 -15 10 -8 -7 6 -16
5 -18 -5 -7 -7 6 -17 12 -23 12 -5 0 -6 -3 -3 -6 4 -4 -11 -16 -33 -26 -22
-11 -37 -24 -34 -29 3 -5 10 -6 16 -3 7 4 8 2 4 -4 -4 -6 -13 -9 -21 -5 -9 3
-21 0 -29 -6 -7 -6 -16 -7 -20 -3 -4 4 -6 0 -4 -8 2 -9 -3 -14 -11 -12 -12 3
-12 0 -1 -13 11 -13 10 -14 -5 -8 -14 5 -17 3 -12 -10 3 -9 1 -19 -5 -23 -7
-4 -8 -3 -4 4 14 23 -11 12 -38 -17 -20 -21 -27 -36 -23 -51 4 -17 3 -19 -9
-9 -11 9 -14 8 -14 -5 0 -9 -5 -16 -11 -16 -6 0 -9 -6 -6 -13 3 -9 -4 -13 -22
-12 -14 0 -27 -4 -28 -9 -1 -5 -7 -12 -14 -17 -12 -7 -19 -25 -21 -56 -1 -7
-5 -13 -10 -13 -6 0 -8 -6 -6 -12 3 -7 -5 -21 -16 -31 -12 -10 -14 -15 -6 -11
16 8 4 -11 -27 -44 -7 -7 -13 -21 -13 -29 0 -9 -3 -14 -6 -10 -8 7 -64 -72
-64 -90 0 -7 -4 -13 -10 -13 -5 0 -9 -3 -9 -7 1 -5 1 -10 -1 -13 -1 -3 -3 -16
-6 -29 -2 -14 -9 -30 -15 -38 -9 -9 -8 -13 0 -13 7 0 9 -5 6 -10 -4 -6 -10 -8
-15 -5 -4 3 -6 -4 -3 -16 4 -12 0 -25 -8 -31 -11 -8 -11 -11 -1 -15 8 -3 10
-9 4 -16 -11 -14 -21 -49 -29 -97 -3 -19 -9 -39 -13 -45 -4 -5 -6 -18 -5 -27
2 -10 -2 -18 -8 -18 -7 0 -3 -7 7 -15 11 -8 15 -15 10 -15 -6 0 -11 -7 -11
-15 0 -8 4 -15 9 -15 5 0 8 -8 6 -17 -1 -10 1 -24 5 -30 5 -7 4 -13 -2 -13 -7
0 -8 -9 -3 -22 4 -13 7 -41 5 -63 -2 -22 -3 -53 -3 -69 0 -16 -5 -33 -12 -38
-10 -6 -10 -8 1 -8 11 0 11 -3 0 -17 -12 -14 -12 -15 0 -9 10 7 12 3 6 -15 -4
-13 -4 -21 0 -16 14 13 44 -66 31 -82 -9 -12 -7 -13 8 -8 16 6 17 5 6 -8 -11
-14 -7 -19 13 -16 4 1 3 -8 -3 -19 -13 -25 -21 -26 -14 -2 5 14 4 14 -4 2 -8
-10 -8 -18 0 -27 7 -9 7 -18 -3 -30 -11 -15 -11 -16 1 -5 18 16 27 15 34 -4 3
-8 2 -12 -3 -9 -5 3 -13 0 -17 -6 -4 -8 -3 -9 4 -5 7 4 12 2 12 -4 0 -6 5 -8
13 -4 8 5 8 2 -2 -9 -10 -13 -10 -17 -1 -17 9 0 10 -3 1 -14 -9 -10 -8 -15 4
-19 9 -4 12 -13 8 -23 -4 -10 -2 -15 4 -11 5 3 10 0 10 -8 0 -8 -4 -12 -9 -9
-4 3 -8 1 -8 -4 0 -6 7 -12 15 -16 8 -3 15 -11 14 -18 0 -10 -2 -10 -6 0 -7
19 -22 14 -20 -7 0 -11 5 -17 9 -15 4 3 8 -5 8 -18 0 -13 4 -29 9 -37 5 -8 6
-24 2 -35 -11 -29 -3 -46 17 -39 10 3 13 1 7 -4 -18 -15 -41 -47 -27 -39 13 8
17 -6 5 -18 -12 -12 -10 -48 4 -53 7 -3 13 -9 13 -15 0 -5 -4 -6 -10 -3 -13 8
0 -28 14 -37 7 -5 7 -8 -1 -8 -17 0 -12 -30 11 -66 l19 -29 -23 20 -23 20 16
-25 c9 -14 17 -29 19 -35 2 -5 5 -9 8 -8 3 1 5 -20 4 -45 0 -28 5 -54 14 -64
13 -15 13 -18 1 -18 -10 -1 -9 -4 4 -11 9 -6 15 -14 12 -19 -3 -5 -2 -11 3
-14 5 -3 8 -21 7 -40 -1 -20 1 -36 4 -36 3 0 11 -11 18 -25 6 -14 7 -23 3 -20
-11 7 -7 -22 5 -32 4 -4 5 -1 0 7 -7 12 -6 13 6 2 12 -11 12 -14 -1 -22 -13
-8 -12 -10 3 -10 9 0 17 -5 17 -11 0 -5 -5 -7 -11 -4 -6 4 -5 -2 3 -14 7 -12
16 -21 20 -21 5 0 8 -5 8 -11 0 -5 -4 -7 -10 -4 -6 3 -7 -1 -4 -9 3 -9 10 -16
14 -16 5 0 7 -11 6 -25 -2 -15 1 -22 7 -18 6 4 8 0 4 -10 -3 -9 -2 -19 4 -23
6 -3 8 -12 5 -20 -3 -8 -1 -14 5 -14 6 0 9 -6 6 -14 -3 -8 4 -27 16 -42 13
-17 16 -25 7 -20 -8 4 -7 1 3 -7 9 -8 17 -22 17 -31 0 -9 5 -16 10 -16 6 0 10
-5 10 -11 0 -5 -5 -7 -12 -3 -6 4 -8 3 -4 -4 3 -6 16 -9 27 -7 15 3 18 1 11
-8 -9 -12 -13 -51 -4 -42 3 3 14 -3 25 -12 21 -20 26 -20 37 -3 5 8 9 7 13 -5
4 -9 3 -13 -3 -10 -6 3 -10 1 -10 -4 0 -6 5 -12 10 -12 6 -1 15 -3 20 -4 6 -1
12 -3 15 -4 3 0 1 -10 -5 -21 -9 -16 -8 -19 6 -13 11 4 15 2 11 -4 -4 -6 0
-14 9 -17 10 -4 13 -2 9 7 -4 6 -1 5 7 -4 7 -9 20 -19 28 -22 8 -4 2 -5 -15
-2 -22 4 -26 3 -15 -5 8 -5 23 -10 33 -10 10 0 16 -4 13 -8 -8 -13 28 -11 37
2 6 7 7 5 4 -6 -3 -9 3 -24 16 -35 21 -18 21 -18 7 1 -14 18 -13 19 5 12 11
-5 29 -9 40 -11 11 -1 31 -7 45 -12 14 -6 28 -9 33 -6 4 2 7 -1 7 -7 0 -7 -7
-10 -17 -6 -11 4 -9 -1 6 -13 14 -10 30 -17 37 -14 7 2 15 -1 19 -6 3 -6 10
-9 15 -6 5 3 12 0 16 -6 4 -8 3 -9 -4 -5 -7 4 -12 2 -12 -3 0 -6 5 -11 11 -11
5 0 8 -4 5 -8 -3 -5 14 -8 38 -8 43 1 49 -5 31 -34 -8 -13 -7 -13 8 -1 9 7 17
10 17 6 0 -4 7 -2 15 5 13 11 14 10 9 -5 -6 -14 -4 -16 7 -9 17 10 80 13 73 3
-2 -4 -1 -9 3 -12 5 -2 1 -2 -7 0 -12 3 -12 2 -3 -8 10 -10 16 -9 29 2 12 9
15 10 10 2 -4 -8 -1 -13 8 -13 9 0 15 -6 13 -12 -1 -8 6 -12 18 -10 11 1 32 3
48 3 15 0 27 6 28 12 0 7 7 -1 14 -18 13 -28 22 -17 16 18 -1 4 9 3 21 -4 33
-17 37 -23 11 -15 -15 5 -23 3 -23 -5 0 -7 3 -9 7 -6 3 4 18 0 32 -10 25 -16
25 -16 11 2 -14 16 -13 17 7 11 13 -4 28 -4 35 1 7 4 22 9 33 10 16 2 17 1 5
-6 -8 -5 -17 -8 -20 -6 -4 2 -7 -2 -7 -10 0 -11 4 -12 13 -4 7 6 19 7 25 3 8
-5 9 -3 4 6 -6 10 -4 12 8 7 9 -3 19 -2 22 4 4 5 10 7 15 4 10 -6 8 15 -5 35
-11 18 22 -5 41 -29 7 -10 13 -11 18 -3 3 6 2 13 -4 17 -5 3 -10 12 -10 18 0
8 3 7 9 -2 11 -16 34 -5 24 12 -3 7 4 3 17 -8 l23 -20 -13 25 -13 25 23 -20
23 -20 -13 25 c-12 23 -12 24 3 12 13 -11 20 -11 39 -1 13 7 27 12 31 11 5 -1
6 2 3 7 -9 14 38 61 60 61 16 0 17 2 4 10 -13 8 -13 10 1 10 20 0 52 34 42 45
-5 4 -1 6 7 3 18 -6 39 13 33 28 -2 7 1 15 8 20 8 5 10 3 4 -6 -5 -8 -4 -11 3
-6 6 4 9 13 6 21 -4 9 1 18 11 21 13 5 14 9 3 15 -10 7 -11 9 0 9 7 0 10 4 7
10 -3 6 -2 10 4 10 9 0 25 49 25 80 0 8 5 18 11 22 6 5 5 8 -4 8 -11 0 -11 3
0 16 10 13 10 17 -2 26 -11 8 -10 9 4 4 13 -4 20 0 24 14 3 11 10 20 15 20 6
0 8 11 6 25 -3 13 -2 22 2 20 4 -3 14 3 21 12 10 12 10 14 2 9 -7 -4 -13 -3
-13 1 0 5 9 14 21 21 16 10 18 16 9 27 -10 12 -8 13 9 10 14 -2 18 1 15 10 -3
8 6 24 20 36 14 12 23 26 20 31 -5 7 10 12 29 9 13 -2 49 20 43 27 -4 3 6 12
21 19 16 7 20 11 10 8 -10 -3 -15 -1 -12 5 3 6 13 10 22 10 9 0 13 6 10 15 -4
8 -1 17 5 21 7 5 8 2 3 -7 -6 -10 -5 -11 4 -3 6 6 14 21 16 34 2 13 10 27 17
32 9 5 7 8 -6 8 -20 0 -20 0 0 16 10 8 13 13 7 9 -9 -4 -13 1 -13 14 0 12 5
20 12 19 8 -2 12 8 12 24 -1 15 3 25 7 22 5 -3 9 -1 9 4 0 5 6 9 13 9 8 0 14
-6 14 -13 0 -7 -4 -11 -9 -8 -4 3 -12 3 -18 -1 -11 -7 -2 -35 12 -35 6 0 5 7
-2 15 -12 14 -10 15 13 11 21 -4 25 -1 20 12 -6 15 -4 15 10 4 14 -12 16 -11
12 9 -4 17 -2 20 7 11 7 -7 17 -12 23 -12 7 0 7 3 -1 8 -6 4 -3 14 10 26 16
16 18 16 13 3 -3 -9 -3 -18 1 -21 4 -3 9 4 9 16 2 24 51 71 68 65 6 -3 12 1
12 8 0 7 -7 11 -16 9 -9 -3 -6 1 7 7 22 12 26 38 7 51 -6 5 -5 8 3 8 10 0 10
3 0 14 -7 8 -16 12 -20 9 -5 -2 -8 2 -8 10 0 8 -7 18 -16 21 -10 4 -13 2 -8
-6 4 -7 3 -8 -4 -4 -7 4 -12 13 -12 21 0 8 -7 11 -20 8 -12 -3 -20 0 -20 7 0
8 -8 10 -21 7 -13 -4 -19 -1 -16 6 3 8 -7 13 -27 13 -42 2 -93 11 -105 18 -5
4 -16 0 -24 -8 -8 -8 -17 -13 -20 -10 -3 4 -12 2 -19 -2 -19 -12 -48 -15 -48
-5 0 16 -72 5 -82 -13 -5 -9 -13 -14 -17 -12 -5 3 -13 -6 -20 -20 -6 -15 -16
-22 -23 -18 -6 4 -8 3 -4 -4 8 -14 -23 -44 -37 -35 -7 4 -5 -2 3 -12 9 -11 10
-16 3 -11 -7 4 -13 3 -13 -3 0 -6 -7 -7 -17 -4 -12 5 -14 3 -8 -7 6 -10 4 -12
-10 -6 -15 5 -16 4 -6 -8 10 -12 8 -16 -9 -21 -11 -3 -17 -11 -14 -17 4 -6 -1
-17 -11 -25 -14 -9 -15 -13 -4 -13 12 0 12 -2 -1 -9 -8 -6 -18 -7 -24 -4 -5 3
-6 1 -2 -6 4 -6 0 -14 -8 -17 -9 -3 -13 -10 -10 -15 3 -5 1 -9 -5 -9 -6 0 -13
-11 -17 -25 -3 -14 -10 -25 -15 -25 -5 0 -8 -3 -7 -7 1 -5 -3 -18 -10 -29 -6
-12 -8 -24 -5 -28 3 -3 1 -6 -5 -6 -6 0 -13 -13 -17 -30 -4 -16 -12 -30 -18
-30 -7 0 -6 -4 3 -10 12 -8 12 -10 -3 -16 -9 -3 -14 -10 -11 -15 3 -5 -2 -9
-11 -9 -9 0 -14 -4 -11 -8 3 -5 -4 -19 -15 -30 -11 -12 -16 -22 -12 -22 4 0 0
-5 -10 -11 -9 -6 -15 -14 -12 -19 3 -4 -3 -7 -12 -5 -10 2 -22 4 -28 4 -5 1
-3 6 5 12 12 9 12 10 -3 5 -10 -3 -21 -6 -23 -6 -3 0 -2 -6 2 -12 6 -10 5 -10
-8 -1 -8 7 -19 9 -23 5 -5 -4 -5 -1 -1 6 5 8 0 12 -16 12 -18 0 -20 -2 -8 -10
13 -8 13 -10 -1 -10 -9 0 -20 -7 -23 -16 -9 -23 -8 -26 7 -18 13 9 -11 -26
-28 -38 -10 -7 7 -12 30 -9 6 1 2 -5 -9 -13 -10 -8 -15 -19 -11 -25 3 -6 0
-11 -7 -11 -9 0 -9 -3 2 -10 12 -8 13 -11 1 -19 -9 -6 -10 -11 -2 -15 6 -4 11
-13 11 -19 0 -7 -4 -6 -11 3 -9 12 -10 10 -6 -8 4 -19 3 -21 -8 -12 -11 9 -14
8 -14 -7 -1 -41 -5 -49 -22 -48 -10 1 -22 5 -26 10 -5 4 -2 5 6 0 10 -6 12 -4
6 4 -5 9 -10 10 -18 2 -14 -14 -30 -14 -22 -1 3 6 0 10 -8 10 -8 0 -18 7 -21
16 -3 9 -13 14 -20 11 -8 -3 -17 -1 -19 6 -3 9 -9 8 -22 -3 -15 -12 -17 -12
-10 -1 6 11 5 12 -6 5 -8 -4 -23 -10 -34 -11 -10 -2 -23 -9 -28 -16 -5 -7 -6
-2 -2 13 l6 25 -21 -25 c-12 -14 -19 -19 -15 -12 4 8 -2 12 -19 12 -14 0 -26
5 -26 10 0 6 -5 10 -10 10 -6 0 -9 -3 -8 -7 2 -5 0 -9 -4 -10 -19 -7 -20 -2
-3 17 18 20 18 21 -1 14 -16 -7 -17 -6 -6 8 10 13 10 17 -4 22 -13 5 -14 9 -4
21 10 12 10 15 -1 15 -11 0 -11 2 1 10 12 8 12 10 -5 10 -17 0 -17 2 -5 10 12
8 10 10 -9 10 -20 0 -21 2 -11 15 9 10 9 15 1 15 -6 0 -11 7 -11 16 0 8 -4 12
-10 9 -6 -4 -7 1 -3 11 5 13 3 15 -7 9 -9 -5 -11 -4 -6 4 4 6 2 19 -6 28 -11
14 -11 16 0 9 12 -7 12 -4 1 15 -7 13 -10 25 -8 26 2 1 0 5 -5 10 -5 5 -6 2
-1 -6 5 -9 4 -12 -3 -7 -7 4 -12 14 -12 22 0 10 -5 12 -12 8 -8 -5 -7 0 2 11
9 11 10 16 3 11 -9 -5 -13 1 -13 19 0 14 -4 24 -9 20 -5 -3 -13 4 -16 16 -6
17 -9 18 -16 8 -14 -24 -20 -3 -24 92 -4 102 -14 173 -22 165 -6 -5 -33 18
-33 29 0 3 6 3 13 -1 9 -6 9 -5 0 7 -10 12 -10 18 -1 27 9 9 9 12 -1 12 -8 0
-11 7 -8 20 3 11 1 20 -4 20 -4 0 -6 7 -3 15 4 8 1 15 -7 15 -7 0 -9 3 -6 7 4
3 2 12 -4 20 -6 7 -8 13 -4 13 4 0 1 10 -7 23 -8 12 -13 32 -12 45 1 12 -2 22
-7 22 -4 0 -6 9 -4 20 2 11 -1 20 -7 20 -5 0 -8 7 -4 15 3 8 1 15 -4 15 -5 0
-6 8 -3 18 6 14 4 15 -8 5 -13 -10 -16 -10 -16 2 0 8 5 15 10 15 6 0 0 8 -11
19 -21 18 -31 38 -14 27 5 -3 9 1 9 9 0 8 -3 12 -7 10 -3 -2 -12 5 -18 16 -12
19 -11 19 10 8 l23 -12 -20 23 c-11 13 -14 20 -7 16 6 -4 12 -2 12 3 0 6 -4
11 -10 11 -5 0 -10 5 -10 11 0 5 5 7 12 3 7 -4 8 -3 4 5 -4 6 -13 8 -19 4 -7
-4 -6 0 2 10 9 11 10 17 2 17 -6 0 -11 7 -11 15 0 20 -47 68 -59 60 -5 -3 -13
5 -17 17 -7 23 -34 49 -45 43 -3 -2 -3 9 -1 26 3 22 0 29 -12 29 -9 0 -16 5
-16 11 0 5 6 7 13 3 7 -5 6 0 -3 11 -13 16 -15 16 -18 2 -2 -10 -7 -17 -12
-17 -5 0 -6 8 -3 18 6 14 4 15 -9 5 -8 -7 -18 -10 -21 -6 -4 3 -7 2 -7 -3 0
-5 -9 -10 -20 -10 -12 0 -16 4 -11 9 5 5 7 16 4 23 -3 8 0 14 7 14 6 0 8 5 5
10 -3 6 -2 10 4 10 6 0 13 11 17 25 3 14 10 22 15 19 5 -3 6 2 3 10 -4 11 0
16 11 16 9 0 13 5 10 10 -3 6 -1 10 6 10 7 0 9 3 6 6 -3 4 0 15 7 26 8 11 11
29 8 40 -4 16 -2 19 8 13 10 -6 11 -4 4 6 -8 14 -12 46 -16 171 -2 38 -6 68
-10 68 -4 0 -6 9 -5 20 1 11 5 20 10 20 5 0 5 6 -1 13 -7 9 -9 62 -2 62 2 0 9
56 13 105 1 14 7 28 12 32 6 5 5 8 -4 8 -11 0 -11 3 -1 15 10 12 10 15 -1 15
-10 0 -10 3 -2 11 6 6 9 18 6 27 -5 11 -2 13 8 7 11 -6 11 -5 2 5 -9 10 -8 16
3 27 8 8 12 19 9 24 -4 5 -1 9 4 9 6 0 10 6 8 13 -1 6 3 11 9 10 7 -1 10 6 7
17 -3 12 0 20 6 20 7 0 10 3 7 8 -7 11 50 83 59 74 5 -4 5 1 2 11 -4 11 -1 17
8 17 8 0 14 3 13 8 -2 4 2 9 7 11 6 2 16 12 24 23 7 11 19 17 27 14 7 -3 16 0
20 6 4 7 3 8 -4 4 -7 -4 -12 -2 -12 3 0 6 7 11 16 11 8 0 13 4 10 9 -3 5 1 12
10 15 8 3 12 2 9 -4 -9 -15 -2 -12 33 13 17 13 28 28 24 32 -4 5 1 6 10 2 10
-3 19 0 22 9 3 9 11 12 16 9 6 -4 10 -3 9 2 -3 20 2 34 11 28 6 -3 10 1 10 10
0 9 4 14 9 11 9 -6 26 22 23 37 -1 4 7 7 18 7 11 0 19 3 18 8 -2 4 1 8 5 9 5
1 16 10 25 21 9 10 23 17 31 14 10 -3 11 0 5 9 -7 12 -5 12 9 0 14 -11 17 -11
17 0 0 11 2 11 10 -1 6 -10 10 -11 10 -2 0 6 7 12 15 12 8 0 15 7 15 16 0 8 4
13 9 10 5 -3 14 1 21 9 7 8 16 13 20 10 5 -3 16 2 24 11 9 8 16 12 16 8 0 -3
6 -1 14 5 8 6 20 10 27 9 8 -2 13 3 11 11 -2 11 0 12 10 3 8 -6 19 -7 27 -2 8
4 20 6 26 3 7 -2 20 3 29 12 9 9 16 13 16 8 0 -5 -5 -14 -12 -21 -9 -9 -9 -12
0 -12 6 0 16 8 21 19 11 20 58 23 54 3 -2 -7 2 -12 7 -12 6 0 10 8 10 17 0 15
2 14 16 -3 8 -10 12 -12 8 -4 -7 13 -5 13 9 1 14 -11 17 -11 17 0 1 9 4 8 11
-4 8 -14 14 -16 25 -6 11 9 14 8 14 -2 0 -11 2 -11 10 1 7 12 10 12 10 1 0 -7
6 -11 14 -8 7 3 19 0 25 -6 8 -8 14 -8 24 2 10 10 8 11 -8 6 -16 -6 -17 -5 -5
4 11 8 18 7 28 -6 6 -9 12 -13 12 -9 0 5 8 2 17 -5 11 -10 14 -10 9 -1 -8 14
28 12 41 -3 5 -4 2 -5 -6 0 -10 5 -12 4 -7 -4 4 -6 13 -8 19 -4 18 11 47 11
54 0 4 -6 1 -7 -7 -2 -8 5 -11 4 -6 -3 9 -14 38 -3 30 12 -3 6 4 0 16 -14 12
-14 19 -19 15 -12 -9 17 10 15 24 -2 7 -9 27 -13 49 -12 20 2 48 -1 61 -6 18
-7 22 -5 18 6 -6 15 17 16 30 1 4 -4 2 -5 -6 0 -10 6 -12 4 -7 -4 4 -6 15 -10
24 -7 21 6 56 -19 47 -33 -3 -7 0 -8 9 -5 9 3 13 11 10 18 -3 6 2 2 10 -8 15
-18 20 -15 17 9 -1 6 7 0 17 -12 15 -17 22 -19 32 -10 10 9 11 9 6 0 -3 -6 -2
-14 4 -18 5 -3 10 -2 10 3 0 14 40 2 41 -12 0 -6 4 -2 9 9 7 17 9 17 9 3 1
-20 21 -25 21 -5 0 9 3 8 9 -2 5 -7 14 -10 20 -7 6 4 11 2 11 -3 0 -6 5 -11
11 -11 6 0 7 6 2 13 -4 7 4 5 18 -4 18 -12 30 -14 43 -7 12 7 22 6 33 -4 15
-11 16 -11 10 6 -6 15 -5 17 6 8 8 -7 17 -9 20 -5 4 3 7 1 7 -6 0 -9 5 -9 20
-1 16 9 22 7 27 -6 6 -16 7 -16 14 2 6 14 8 15 8 3 1 -16 31 -23 31 -7 0 5 5
6 10 3 6 -3 10 0 10 7 0 9 3 9 10 -2 9 -13 10 -13 10 0 0 13 1 13 10 0 9 -13
10 -13 11 0 0 10 3 8 9 -5 5 -11 9 -15 9 -8 1 7 10 10 22 8 18 -4 19 -2 7 12
-12 15 -11 15 10 4 15 -8 22 -8 22 -1 0 6 6 8 13 5 6 -4 3 0 -7 9 -10 8 -23
13 -28 10 -10 -7 -5 33 7 43 4 5 5 3 2 -3 -3 -6 0 -11 7 -11 10 0 10 6 2 23
-6 13 -14 18 -17 12 -4 -6 -13 -1 -22 12 -11 15 -16 18 -20 8 -3 -8 -6 -6 -6
6 -1 16 -3 17 -18 5 -10 -8 -14 -9 -10 -2 4 6 3 14 -3 18 -5 3 -10 0 -10 -7 0
-10 -3 -9 -10 2 -5 8 -12 11 -15 8 -4 -4 -18 -3 -31 2 -17 7 -24 6 -24 -3 0
-8 -4 -7 -10 3 -5 8 -10 11 -10 5 0 -5 -20 -10 -45 -11 -39 -1 -43 1 -33 15
10 12 7 12 -8 -1 -24 -21 -38 -23 -28 -5 6 9 5 9 -8 0 -8 -7 -18 -10 -22 -6
-4 4 -11 1 -17 -7 -8 -13 -10 -13 -19 0 -9 13 -14 7 -11 -12 0 -4 -6 -5 -14
-2 -8 4 -15 10 -15 14 0 13 -46 5 -65 -10 -13 -11 -15 -10 -10 2 4 9 0 15 -9
15 -8 0 -13 -4 -10 -9 3 -4 1 -8 -5 -8 -5 0 -11 5 -13 11 -2 7 -25 12 -51 13
-26 1 -47 5 -47 10 0 5 -8 2 -17 -5 -11 -10 -14 -10 -9 -1 4 6 2 12 -4 12 -6
0 -15 10 -20 23 -8 20 -9 20 -10 2 0 -12 -3 -16 -8 -9 -10 15 -72 47 -72 37 0
-5 -5 -1 -10 7 -8 12 -13 13 -29 3 -17 -11 -19 -10 -14 3 5 13 2 15 -18 9 -22
-7 -23 -7 -9 10 14 17 14 17 -7 6 -20 -10 -23 -9 -24 6 0 11 -3 13 -6 6 -2 -7
-9 -13 -14 -13 -6 0 -7 5 -3 11 4 8 -1 9 -16 4 -17 -5 -21 -4 -15 6 6 9 4 11
-7 6 -9 -3 -26 2 -39 10 -17 13 -20 13 -14 2 6 -11 5 -12 -6 -1 -7 6 -24 12
-37 12 -15 0 -21 4 -16 12 4 6 3 8 -4 4 -6 -3 -13 -2 -17 3 -3 6 -12 8 -20 4
-9 -3 -22 1 -31 8 -19 15 -54 20 -54 6 0 -5 -7 -3 -16 4 -19 15 -62 20 -70 8
-3 -5 -17 -3 -32 4 -15 7 -34 13 -42 12 -8 -1 -21 4 -29 9 -12 9 -13 7 -9 -5
5 -13 2 -16 -13 -12 -10 3 -17 9 -14 12 6 11 -28 10 -42 -2 -8 -6 -13 -6 -13
0 0 5 -7 10 -15 10 -8 0 -12 -4 -9 -8 7 -12 -40 -6 -48 6 -5 6 -8 3 -8 -7z"/>
<path d="M6450 7325 c-7 -9 -8 -15 -1 -19 6 -4 8 -13 5 -21 -4 -8 -10 -13 -14
-10 -5 3 -10 -5 -12 -17 -2 -13 -9 -22 -17 -20 -8 2 -11 -3 -8 -12 4 -11 1
-13 -10 -9 -12 5 -14 3 -8 -8 8 -12 6 -12 -8 0 -9 7 -17 10 -17 7 0 -4 -7 0
-16 9 -9 9 -24 13 -32 10 -9 -3 -13 -3 -10 1 10 9 -14 31 -35 31 -9 0 -15 -3
-12 -5 3 -3 -3 -11 -13 -19 -10 -9 -11 -11 -2 -7 13 7 13 5 1 -9 -7 -9 -11
-17 -7 -17 3 0 1 -11 -4 -25 -7 -17 -6 -24 1 -22 6 1 13 -6 14 -16 2 -9 -1
-15 -6 -11 -5 3 -6 11 -3 17 4 7 3 8 -2 4 -17 -16 -13 -66 5 -60 13 4 14 3 1
-5 -12 -9 -12 -14 5 -31 20 -23 35 -20 16 3 -8 10 -9 16 -1 21 6 4 9 1 8 -6
-4 -18 24 -18 40 1 11 13 11 11 2 -8 -6 -12 -15 -20 -21 -17 -5 4 -9 -1 -9 -9
0 -11 -7 -15 -22 -12 -13 2 -30 -2 -38 -8 -13 -10 -13 -9 0 8 14 18 13 18 -10
12 -25 -7 -25 -7 -3 6 15 9 19 18 14 27 -7 11 -10 11 -15 0 -3 -8 -3 -4 0 9 3
12 1 22 -4 22 -5 0 -9 7 -9 15 0 8 4 12 9 9 4 -3 8 4 8 15 0 31 1 35 11 47 6
7 2 17 -11 29 -18 16 -25 14 -21 -8 1 -4 -6 -10 -14 -13 -10 -4 -12 -11 -7
-22 12 -25 -9 -80 -28 -74 -13 5 -13 3 -1 -12 12 -15 12 -16 -5 -9 -10 3 -22
11 -26 17 -5 7 -8 6 -8 -3 0 -8 -8 -4 -20 10 -17 22 -18 25 -3 37 9 6 12 12 7
12 -6 0 -14 -3 -20 -7 -5 -5 -1 0 9 9 11 10 22 16 26 14 3 -2 6 6 6 19 0 13
-4 21 -9 18 -4 -3 -5 5 -2 18 6 19 5 21 -3 7 -7 -10 -19 -14 -33 -11 -13 3
-20 3 -16 -2 9 -10 -53 -76 -65 -68 -6 3 -7 1 -3 -5 3 -6 -3 -14 -15 -17 -14
-5 -19 -13 -16 -26 3 -10 0 -22 -5 -26 -6 -3 -8 -1 -4 5 10 17 -7 22 -22 6 -7
-8 -9 -14 -5 -14 4 0 0 -5 -10 -11 -9 -6 -14 -15 -11 -21 5 -8 1 -9 -12 -4
-15 6 -16 5 -7 -5 9 -9 9 -17 2 -32 -8 -14 -8 -18 0 -13 14 9 14 -7 0 -21 -8
-8 -7 -13 2 -18 8 -6 10 -4 4 5 -5 8 -4 11 2 7 5 -4 9 -22 8 -42 -2 -19 1 -32
6 -29 6 3 8 -6 5 -20 -2 -14 1 -27 7 -29 9 -3 9 -8 -1 -18 -10 -11 -8 -17 10
-31 20 -16 20 -17 3 -11 -17 6 -18 4 -8 -9 7 -8 10 -18 6 -21 -3 -4 2 -7 13
-7 11 0 15 -3 8 -8 -19 -12 -22 -36 -6 -54 12 -14 12 -18 2 -18 -10 0 -11 -3
-3 -11 6 -6 9 -18 6 -27 -5 -11 -2 -13 6 -7 10 5 11 3 4 -11 -13 -28 -10 -54
7 -64 12 -8 11 -10 -5 -10 -11 0 -15 -4 -10 -8 6 -4 11 -16 11 -27 0 -11 -5
-23 -11 -27 -6 -5 -6 -8 3 -8 6 0 12 -5 12 -11 0 -5 -6 -7 -12 -3 -10 5 -10 4
-1 -6 8 -8 9 -20 3 -36 -6 -14 -5 -26 1 -29 5 -4 7 -11 3 -16 -3 -5 0 -16 6
-24 8 -9 8 -15 2 -15 -11 0 -11 -18 1 -36 3 -6 3 -14 0 -18 -12 -12 -12 -40 0
-48 9 -6 9 -8 0 -8 -9 0 -10 -7 -3 -24 5 -13 6 -27 2 -31 -8 -8 -5 -253 4
-266 3 -5 -1 -9 -8 -9 -8 0 -9 -3 -3 -8 6 -4 11 -35 10 -69 0 -36 4 -63 10
-63 7 0 7 -3 0 -8 -12 -8 -13 -37 -2 -48 4 -4 2 -13 -4 -21 -9 -9 -8 -13 0
-13 8 0 9 -5 2 -19 -6 -10 -7 -21 -4 -25 9 -8 11 -126 3 -121 -4 2 -7 -2 -7
-10 0 -8 5 -15 10 -15 5 0 5 -6 -2 -13 -6 -8 -9 -23 -6 -35 2 -12 0 -22 -5
-22 -5 0 -5 -13 0 -30 6 -19 5 -32 -2 -36 -6 -4 -8 -2 -4 4 3 6 2 13 -3 16
-14 9 -7 -19 9 -40 8 -10 10 -15 3 -11 -6 4 -14 3 -18 -3 -3 -5 -1 -10 6 -10
8 0 7 -5 -2 -17 -10 -11 -10 -14 -1 -9 13 8 17 -6 5 -18 -4 -4 -8 -44 -9 -90
0 -46 -4 -88 -8 -95 -5 -7 -1 -9 11 -4 15 6 16 4 5 -9 -18 -23 7 -30 28 -9 8
9 12 12 8 7 -12 -15 -9 -28 4 -20 6 4 8 3 4 -4 -3 -6 -18 -9 -31 -6 -25 4 -31
-13 -10 -28 6 -5 4 -8 -5 -8 -12 0 -12 -2 -1 -9 10 -6 11 -13 2 -29 -8 -15 -8
-23 1 -28 7 -5 8 -3 3 6 -5 9 -4 11 4 6 9 -6 9 -11 0 -22 -7 -8 -12 -28 -11
-45 0 -19 -3 -27 -10 -23 -7 4 -8 2 -4 -5 4 -6 11 -9 15 -7 4 3 8 -1 8 -9 0
-8 -4 -12 -9 -9 -4 3 -8 0 -8 -5 0 -6 5 -11 10 -11 6 0 10 -5 10 -11 0 -5 -4
-8 -9 -5 -4 3 -6 -11 -4 -30 2 -23 0 -33 -7 -29 -7 4 -7 -2 -1 -18 6 -14 7
-28 3 -31 -10 -11 -11 -37 -1 -30 6 3 8 -5 5 -20 -3 -16 0 -26 7 -26 7 0 6 -4
-3 -10 -11 -7 -11 -10 -2 -10 7 0 11 -4 7 -9 -3 -5 -1 -12 4 -15 5 -3 7 -15 4
-25 -3 -10 1 -29 7 -41 10 -18 10 -21 -2 -15 -10 6 -11 5 0 -6 6 -7 12 -17 12
-22 0 -4 -6 -5 -12 -1 -7 4 -5 -2 5 -13 9 -11 14 -23 10 -26 -3 -4 -1 -7 5 -7
7 0 12 -5 12 -11 0 -5 -6 -7 -12 -3 -7 4 -4 -3 7 -16 11 -13 14 -20 7 -16 -10
6 -11 2 -7 -16 12 -46 12 -63 4 -80 -6 -10 -5 -19 1 -23 6 -4 5 -16 -5 -34 -8
-16 -11 -31 -8 -35 4 -3 1 -6 -5 -6 -6 0 -10 -6 -8 -12 3 -7 7 -25 10 -40 4
-17 13 -28 24 -28 13 0 14 -2 3 -9 -7 -5 -9 -10 -4 -12 15 -6 26 -59 13 -59
-6 0 -9 4 -5 9 3 5 1 12 -4 15 -5 4 -8 -1 -7 -11 2 -9 11 -20 22 -24 16 -7 17
-8 2 -8 -12 -1 -15 -6 -11 -18 4 -9 2 -14 -3 -10 -5 3 -10 -3 -10 -14 0 -10 4
-19 9 -19 5 0 4 -7 -4 -16 -10 -13 -10 -17 2 -25 10 -6 10 -9 2 -9 -7 0 -13
-11 -13 -24 0 -13 6 -27 13 -29 10 -4 10 -6 0 -6 -7 -1 -13 -13 -13 -27 0 -16
-4 -23 -12 -18 -7 5 -8 3 -2 -7 13 -22 16 -51 3 -43 -8 5 -8 1 0 -13 7 -14 7
-23 -1 -31 -9 -9 -8 -12 3 -12 12 0 12 -2 -1 -10 -13 -9 -13 -10 0 -10 13 0
13 -1 0 -10 -12 -8 -12 -10 -1 -10 10 0 11 -3 2 -13 -7 -10 -7 -17 0 -24 8 -8
8 -13 0 -17 -7 -5 -7 -15 0 -33 5 -15 7 -33 4 -41 -3 -10 0 -12 10 -8 8 3 15
3 15 0 0 -2 -10 -9 -22 -14 -18 -7 -19 -9 -5 -9 9 -1 17 -6 17 -12 0 -5 -6 -7
-12 -3 -8 5 -7 0 2 -10 21 -27 22 -116 1 -108 -12 4 -12 0 3 -17 20 -22 20
-22 0 -15 -18 6 -17 5 2 -14 23 -22 23 -77 0 -66 -6 3 -2 -2 8 -10 20 -16 20
-16 0 -16 -14 0 -16 -2 -6 -9 20 -12 22 -83 3 -76 -11 4 -10 1 3 -14 12 -13
14 -21 6 -26 -7 -4 -10 -18 -7 -31 2 -13 1 -24 -2 -24 -4 0 -7 -9 -8 -20 -1
-11 4 -20 10 -20 9 0 9 -2 1 -8 -16 -11 -22 -35 -13 -53 4 -8 4 -21 0 -27 -4
-7 -5 -33 -1 -57 5 -30 3 -45 -4 -45 -6 0 -2 -8 9 -17 13 -10 14 -14 4 -10
-13 4 -14 -4 -11 -55 4 -50 2 -59 -9 -52 -11 6 -12 5 -2 -8 7 -8 10 -18 6 -22
-11 -11 -11 -46 0 -39 7 4 7 -1 2 -13 -5 -10 -9 -34 -9 -51 -1 -18 -4 -33 -7
-33 -3 0 -6 -6 -7 -12 -1 -16 -10 -53 -12 -53 -1 0 -3 -11 -5 -25 -8 -56 -31
-132 -44 -139 -7 -5 -13 -12 -14 -17 -1 -5 -6 -8 -10 -6 -5 1 -6 -2 -2 -8 3
-6 11 -7 17 -4 7 4 7 0 0 -12 -5 -11 -7 -25 -5 -31 3 -7 1 -13 -4 -13 -5 0 -8
-14 -7 -30 1 -17 -2 -30 -8 -30 -5 0 -7 -4 -4 -8 7 -12 -19 -121 -32 -134 -8
-8 -8 -17 -1 -31 8 -14 8 -18 0 -13 -6 4 -11 2 -11 -5 0 -8 -5 -7 -17 2 -17
13 -17 13 -3 -5 12 -15 12 -20 2 -23 -6 -3 -10 -9 -6 -14 3 -5 0 -9 -5 -9 -6
0 -11 -7 -11 -16 0 -9 -5 -12 -12 -8 -8 5 -9 2 -4 -11 5 -15 4 -16 -8 -6 -12
10 -14 9 -11 -6 1 -10 -3 -24 -9 -32 -9 -12 -8 -13 3 -6 10 6 12 4 7 -4 -5 -7
-13 -10 -20 -8 -6 3 -12 -6 -12 -19 -1 -14 2 -21 9 -17 6 3 7 1 3 -5 -4 -7
-15 -12 -24 -12 -10 0 -13 -3 -7 -8 6 -4 11 -13 13 -21 3 -12 1 -12 -15 -1
-10 8 -15 10 -10 5 4 -4 0 -16 -9 -26 -12 -13 -12 -19 -3 -25 8 -5 10 -3 4 6
-5 9 -4 11 4 6 9 -6 9 -11 0 -22 -14 -17 -23 -18 -13 -1 4 6 3 8 -1 4 -5 -4
-10 -15 -11 -23 -5 -31 -14 -44 -27 -38 -8 3 -20 -3 -27 -13 -12 -15 -12 -16
0 -6 8 7 19 13 24 13 6 0 2 -7 -8 -15 -17 -13 -22 -13 -36 0 -14 13 -16 12
-17 -8 -2 -17 0 -19 7 -7 5 8 10 10 10 4 0 -18 -13 -24 -27 -12 -8 6 -13 7
-12 2 3 -19 -2 -33 -17 -49 -16 -15 -26 -65 -26 -128 -1 -19 -3 -24 -9 -15 -5
7 -12 13 -16 14 -4 0 -16 4 -26 8 -9 5 -26 6 -37 3 -13 -3 -20 0 -20 9 0 8 -5
14 -11 14 -5 0 -7 5 -3 11 4 7 -1 7 -16 -1 -14 -8 -20 -8 -16 -1 5 7 -3 10
-21 7 -22 -2 -29 1 -30 16 -2 16 0 17 14 3 8 -9 18 -14 20 -11 8 8 -28 41 -45
41 -8 0 -16 8 -18 17 -1 11 3 15 13 11 12 -5 12 -7 1 -15 -9 -6 -6 -7 9 -3 14
4 25 0 31 -11 8 -15 9 -15 15 0 4 10 3 14 -3 11 -9 -6 -33 29 -25 37 3 3 -2 5
-10 5 -8 0 -12 -4 -9 -9 3 -4 1 -8 -5 -8 -5 0 -12 6 -14 13 -4 9 -6 9 -6 0 -1
-7 -6 -13 -12 -13 -5 0 -7 5 -3 12 4 7 3 8 -4 4 -13 -8 -17 16 -5 28 13 13 12
38 -2 32 -9 -3 -12 0 -8 9 3 8 10 12 16 8 6 -3 7 -1 3 5 -4 7 -1 12 6 12 8 0
6 5 -4 11 -10 5 -18 15 -18 20 0 6 4 8 8 5 5 -3 9 1 9 9 0 10 -4 12 -12 5 -7
-5 -15 -7 -19 -3 -4 4 -4 -1 0 -10 3 -10 3 -17 -2 -16 -21 4 -25 -2 -13 -18 8
-9 14 -26 14 -37 0 -12 6 -20 13 -18 8 1 11 -2 7 -8 -9 -15 -37 9 -31 26 3 7
1 16 -4 19 -9 6 -7 -36 4 -53 3 -5 3 -12 -1 -15 -5 -2 -2 -2 6 0 8 2 11 -2 7
-12 -3 -9 1 -26 8 -38 13 -19 13 -25 -1 -42 -13 -16 -15 -17 -10 -2 7 19 -9
24 -16 5 -3 -8 -6 -6 -6 5 -1 9 -6 17 -12 17 -6 0 -8 7 -4 18 5 13 3 14 -6 5
-6 -6 -19 -9 -28 -6 -9 4 -13 3 -9 -2 4 -4 2 -15 -5 -23 -10 -13 -9 -14 2 -7
10 6 12 4 7 -4 -5 -7 -15 -10 -23 -6 -14 5 -14 3 -2 -12 12 -14 12 -16 0 -8
-11 6 -13 4 -8 -9 4 -9 3 -15 -2 -12 -14 9 -21 -20 -8 -33 9 -9 8 -11 -6 -5
-11 4 -16 12 -12 22 5 13 3 13 -13 -1 -10 -9 -23 -17 -28 -17 -14 -1 -46 -49
-39 -60 3 -6 -1 -7 -10 -4 -9 4 -14 13 -11 20 3 8 0 13 -6 11 -12 -2 -14 4
-17 39 0 8 -6 12 -11 9 -6 -4 -8 -11 -5 -16 3 -5 0 -6 -8 -3 -9 3 -16 -3 -20
-15 -3 -12 -13 -21 -24 -20 -17 0 -17 1 1 8 14 5 16 10 8 15 -7 4 -17 4 -24 0
-6 -4 -8 -3 -4 4 3 6 2 13 -3 16 -5 4 -8 -4 -7 -17 2 -14 -3 -24 -11 -25 -7
-1 -20 -3 -28 -4 -8 -1 -12 -5 -9 -10 3 -5 9 -6 14 -3 11 7 7 -22 -5 -32 -4
-4 -5 -2 -1 5 11 18 -5 15 -21 -5 -13 -17 -14 -17 -5 1 5 10 7 27 5 37 -3 11
0 19 6 19 6 0 11 4 11 10 0 5 -10 9 -22 7 -15 -1 -27 8 -41 31 -16 28 -17 31
-3 26 9 -4 15 -9 12 -12 -7 -7 13 -42 24 -42 6 0 10 9 10 20 0 11 4 20 9 20 5
0 11 7 15 15 3 8 2 14 -2 14 -20 -3 -33 2 -27 11 8 13 -1 13 -25 0 -13 -7 -21
-7 -26 2 -4 6 -3 8 4 4 6 -3 17 0 25 8 8 8 17 13 19 11 3 -3 5 2 5 10 0 13 -3
13 -18 -1 -11 -10 -19 -12 -24 -5 -3 6 1 14 10 17 14 6 14 8 -2 20 -17 13 -17
14 1 7 14 -4 17 -2 14 8 -3 8 -12 13 -19 11 -11 -2 -11 1 1 10 8 7 16 20 18
28 3 10 -3 9 -19 -5 -12 -11 -19 -14 -15 -8 4 8 -2 17 -18 25 -29 13 -31 18
-13 37 8 10 8 12 0 7 -6 -3 -16 2 -22 11 -8 14 -10 15 -11 3 0 -13 -1 -13 -10
0 -8 13 -10 13 -10 -1 0 -11 -8 -16 -22 -15 -13 1 -29 -2 -36 -7 -8 -7 -8 -1
2 18 8 16 20 31 26 35 9 5 9 9 1 14 -6 4 -11 2 -11 -3 0 -6 -5 -11 -11 -11 -6
0 -8 7 -5 16 3 9 2 12 -5 9 -6 -4 -8 -13 -5 -20 2 -7 -1 -15 -8 -18 -8 -3 -11
5 -10 24 1 19 -3 29 -12 29 -8 0 -11 6 -7 17 5 12 2 15 -8 11 -11 -4 -15 1
-13 23 1 17 -2 26 -8 23 -5 -3 -7 -12 -4 -19 5 -14 -18 -14 -31 0 -4 4 -3 5 3
2 6 -3 11 0 11 8 0 11 -4 12 -14 4 -7 -6 -10 -16 -6 -22 4 -6 0 -8 -10 -4 -12
4 -17 1 -17 -11 -1 -13 -4 -11 -16 8 -8 14 -13 17 -10 7 3 -9 1 -17 -4 -17 -6
0 -10 5 -10 11 0 5 -16 -7 -36 -28 -27 -29 -32 -31 -19 -11 10 16 13 28 7 28
-6 0 -13 -6 -15 -12 -4 -8 -6 -9 -6 -2 -1 6 6 17 14 24 10 9 15 9 15 1 0 -6 4
-11 8 -11 5 0 9 7 9 15 0 8 -4 12 -9 9 -4 -3 -8 0 -8 7 0 7 -6 5 -14 -6 -8
-11 -19 -16 -30 -12 -9 4 -16 2 -16 -2 0 -5 6 -12 13 -14 6 -3 -3 -6 -21 -6
-19 -1 -31 -5 -27 -11 10 -16 -1 -12 -15 6 -8 8 -9 14 -4 13 19 -3 34 1 34 12
0 6 -5 7 -12 2 -7 -4 -17 -8 -23 -8 -5 0 -8 -9 -6 -20 3 -19 2 -19 -17 -2 -15
14 -22 15 -28 6 -5 -8 -3 -10 6 -4 8 5 11 4 7 -2 -9 -15 -57 -10 -69 7 -8 12
-9 11 -4 -4 5 -15 2 -17 -14 -13 -11 3 -18 2 -15 -3 3 -4 -2 -13 -10 -20 -13
-11 -14 -10 -8 6 6 17 5 17 -10 5 -9 -7 -14 -18 -10 -24 3 -6 1 -7 -6 -3 -6 4
-9 11 -6 16 3 5 1 11 -4 14 -5 4 -13 1 -17 -5 -4 -8 -3 -9 4 -5 8 5 10 1 5
-10 -5 -14 -8 -13 -19 7 -7 13 -13 18 -14 11 0 -7 -5 -10 -12 -6 -7 5 -8 3 -3
-6 5 -9 2 -10 -13 -6 -11 4 -23 2 -27 -3 -3 -6 0 -8 8 -5 8 3 18 -1 23 -8 4
-7 4 -10 -1 -6 -4 4 -16 3 -26 -3 -13 -7 -19 -6 -19 1 0 6 -5 8 -10 5 -6 -4
-7 -11 -4 -17 5 -7 2 -8 -5 -4 -7 5 -10 15 -7 23 3 8 2 11 -3 8 -5 -3 -13 -1
-16 5 -5 8 -11 7 -22 -1 -12 -10 -16 -10 -24 2 -7 11 -9 11 -9 0 0 -7 -6 -11
-14 -8 -10 4 -13 1 -10 -7 6 -15 34 -17 52 -3 6 5 12 5 12 1 0 -5 -9 -15 -20
-22 -12 -7 -20 -8 -20 -2 0 12 -22 9 -32 -5 -4 -5 -8 1 -8 15 0 20 -2 22 -11
10 -9 -12 -10 -10 -6 8 4 18 3 21 -7 13 -7 -6 -17 -7 -22 -3 -4 4 -2 -1 5 -10
17 -22 8 -23 -13 -2 -9 8 -16 11 -16 5 0 -6 -5 -11 -11 -11 -5 0 -7 5 -3 12 4
6 3 8 -4 4 -5 -3 -12 -2 -14 4 -2 6 -9 0 -17 -12 -13 -21 -13 -22 2 -9 10 7
17 9 17 3 0 -14 -28 -23 -35 -12 -4 6 -11 10 -16 10 -6 0 -8 -4 -5 -9 4 -5 -2
-8 -11 -6 -10 2 -22 4 -26 4 -5 1 -6 5 -3 10 7 11 -21 8 -31 -4 -4 -4 -3 -5 3
-2 7 4 17 0 24 -8 9 -11 9 -15 1 -15 -7 0 -9 -5 -5 -12 4 -7 3 -8 -5 -4 -6 4
-9 11 -7 15 3 3 -4 7 -15 7 -10 0 -19 -7 -20 -16 0 -11 -2 -11 -6 -2 -4 10 -8
8 -18 -5 -7 -10 -23 -19 -34 -19 -39 -3 -42 -4 -35 -16 4 -7 -3 -4 -17 7 -13
11 -18 13 -11 5 18 -21 15 -28 -13 -25 -13 2 -30 -4 -37 -13 -12 -16 -11 -16
7 -3 19 14 19 14 2 -5 -15 -16 -19 -17 -27 -4 -8 13 -10 12 -10 -2 0 -10 -4
-18 -10 -18 -5 0 -7 8 -3 18 4 12 3 14 -5 7 -5 -5 -12 -19 -14 -29 -3 -21 -28
-29 -49 -15 -11 7 -12 10 -1 21 11 11 16 9 29 -7 l16 -20 -8 20 c-15 40 -17
56 -9 53 5 -2 10 2 12 7 2 6 10 14 18 18 8 5 12 12 9 17 -3 5 -1 11 5 15 6 4
7 11 4 17 -5 7 -1 9 9 5 11 -4 14 -2 11 7 -3 8 5 24 18 36 13 13 17 20 11 16
-18 -10 -16 9 2 24 8 7 13 15 10 19 -2 4 2 18 9 32 7 13 11 30 8 37 -2 6 2 12
8 12 10 0 10 3 1 14 -8 10 -9 16 -1 21 16 10 12 23 -11 30 -15 5 -18 9 -9 15
19 12 7 45 -15 42 -18 -2 -19 -2 -2 8 9 6 17 16 17 22 0 6 -3 8 -7 5 -3 -4
-13 -1 -22 6 -14 11 -14 10 -2 -6 9 -11 10 -17 2 -17 -6 0 -12 5 -12 10 -3 20
-4 25 -12 38 -5 6 -4 12 2 12 13 0 5 42 -11 52 -13 7 -3 12 17 8 6 -1 5 4 -2
11 -12 12 -6 42 7 34 5 -3 6 4 3 15 -3 12 0 20 7 20 10 0 10 3 0 15 -9 11 -9
15 -1 15 9 0 9 5 1 20 -9 17 -8 19 7 13 16 -6 16 -5 4 10 -10 12 -10 21 -3 30
7 8 7 18 2 27 -5 8 -6 18 -3 23 13 21 9 87 -5 87 -7 0 -11 -4 -8 -9 7 -11 -20
-8 -31 3 -4 4 -1 6 7 4 8 -2 14 3 12 10 -1 8 2 11 8 7 13 -8 9 17 -4 27 -6 4
-5 12 2 21 7 7 9 17 5 21 -4 4 -3 10 3 14 22 15 81 150 76 174 -1 5 4 7 11 5
6 -1 11 4 9 11 -1 8 2 11 8 7 8 -5 5 -14 -7 -28 -17 -21 -16 -20 8 1 14 12 30
19 34 15 5 -5 3 1 -5 11 -14 18 -13 19 4 12 20 -7 20 -7 0 15 -19 22 -19 22 3
10 19 -10 22 -9 17 3 -3 8 2 25 11 38 12 15 15 17 12 6 -7 -21 2 -22 38 -6 14
6 25 18 26 27 1 9 5 5 9 -9 7 -22 8 -23 9 -4 1 12 8 27 16 34 15 13 39 5 30
-11 -4 -5 -1 -9 4 -9 6 0 11 -4 11 -8 0 -4 -9 -8 -20 -8 -23 0 -25 7 -8 24 9
9 9 12 0 12 -7 0 -13 -3 -13 -7 -6 -36 -4 -50 7 -50 7 0 11 4 8 9 -3 4 5 7 17
5 13 -2 26 -12 30 -23 7 -17 8 -18 8 -1 1 12 5 16 14 11 8 -5 8 -2 -2 9 -16
20 -2 23 18 4 11 -9 13 -9 7 1 -4 6 -2 12 3 12 6 0 11 -5 11 -11 0 -5 4 -8 9
-5 5 4 12 0 14 -6 4 -9 6 -10 6 -1 1 6 -9 19 -21 27 -12 9 -17 16 -11 16 7 0
14 -4 18 -9 3 -6 14 -8 25 -6 12 2 18 0 15 -5 -3 -5 3 -14 14 -20 14 -7 22 -7
27 2 4 6 3 8 -4 4 -6 -3 -13 -3 -16 2 -2 4 6 8 19 8 13 0 21 -4 19 -8 -5 -7
10 -11 21 -5 2 1 11 -7 20 -18 12 -16 14 -17 9 -2 -3 9 -1 17 5 17 6 0 11 -7
11 -17 0 -9 3 -14 6 -10 11 10 -7 48 -19 40 -25 -16 -37 -12 -27 8 13 24 21
25 14 2 -5 -15 -3 -15 10 1 9 11 16 14 16 7 0 -7 5 -9 12 -5 7 4 8 3 4 -4 -4
-7 -1 -12 9 -12 10 0 13 5 9 12 -4 7 -3 8 5 4 6 -4 9 -11 6 -16 -3 -5 -1 -12
5 -15 6 -4 8 -16 5 -28 -5 -19 -4 -20 5 -5 6 9 17 15 25 12 18 -7 20 12 3 22
-7 5 -8 3 -3 -7 8 -12 6 -12 -8 0 -9 7 -17 19 -17 25 0 7 3 7 8 1 4 -5 18 -11
31 -13 21 -2 22 0 10 15 -13 16 -12 17 4 4 11 -9 15 -21 11 -35 -6 -20 -6 -20
8 -2 9 11 20 16 27 12 8 -6 11 -2 9 10 -2 13 3 19 17 19 11 0 23 6 27 15 5 12
7 11 8 -5 1 -19 1 -19 14 -2 12 16 14 16 14 -7 0 -18 -5 -23 -17 -19 -14 4
-14 3 -1 -6 11 -8 18 -7 26 4 10 14 13 14 24 0 7 -8 17 -12 23 -8 6 4 8 -2 4
-17 -4 -17 -3 -20 6 -11 15 15 -4 48 -25 43 -9 -2 -9 1 3 13 16 16 49 11 49
-8 0 -7 -4 -7 -12 1 -7 7 -16 12 -20 12 -4 0 0 -8 10 -18 16 -17 18 -17 32 -2
8 9 23 17 34 17 17 0 17 -1 2 -12 -15 -11 -15 -13 -1 -19 9 -3 13 -2 10 4 -3
6 1 10 10 10 9 0 14 4 11 8 -2 4 4 8 15 8 19 0 18 -1 -3 -17 -12 -10 -19 -21
-15 -25 4 -4 7 -1 7 6 0 7 3 10 7 7 3 -4 13 -1 21 6 13 10 14 9 7 -2 -6 -11
-4 -13 8 -8 9 3 23 -1 32 -10 9 -8 19 -12 23 -8 4 3 -2 13 -12 21 -11 8 -15
14 -9 14 7 0 15 -5 19 -11 3 -6 18 -8 33 -5 l26 6 -24 -20 c-13 -11 -20 -20
-15 -20 4 0 16 7 26 17 10 9 21 13 25 9 4 -4 1 -11 -7 -16 -9 -6 -10 -10 -3
-10 19 0 26 20 12 36 -9 11 -9 18 -1 26 7 7 12 8 12 3 0 -6 5 -3 10 5 8 13 10
12 10 -4 0 -15 3 -16 14 -7 12 10 13 9 9 -8 -5 -19 -7 -19 -32 -4 -26 15 -26
15 2 -9 27 -24 62 -34 50 -15 -3 5 0 7 8 5 8 -3 13 -11 12 -17 -4 -17 14 -13
21 5 3 8 2 12 -3 9 -5 -3 -13 0 -16 6 -4 5 -13 8 -21 5 -8 -3 -11 0 -7 10 4
11 9 12 19 3 7 -6 18 -8 24 -4 5 3 10 2 10 -4 0 -6 8 -8 18 -5 11 4 13 3 5 -3
-7 -5 -12 -26 -11 -46 1 -39 10 -43 12 -6 1 27 30 33 48 11 12 -15 11 -16 -4
-3 -16 12 -18 11 -18 -2 0 -9 7 -14 18 -12 9 1 23 -2 30 -8 6 -5 12 -6 12 -1
0 5 4 3 9 -4 7 -11 9 -10 14 3 4 9 3 13 -3 10 -6 -3 -7 1 -4 9 3 9 10 16 16
16 5 0 6 -5 3 -10 -4 -7 3 -9 19 -6 18 3 24 1 20 -6 -5 -7 -1 -9 9 -5 10 3 17
2 17 -2 0 -16 -25 -18 -36 -3 -8 12 -12 11 -25 -5 -13 -16 -12 -17 2 -5 14 10
18 10 22 -2 6 -16 47 -11 47 6 0 5 4 7 9 3 5 -3 12 3 14 12 4 14 5 13 6 -4 0
-12 -4 -23 -11 -25 -7 -3 -5 -7 6 -11 9 -4 15 -3 11 2 -8 13 10 22 29 15 11
-4 15 -13 10 -27 -5 -17 -4 -18 9 -6 8 8 13 16 12 20 -2 3 7 5 20 5 13 0 21
-4 19 -8 -3 -4 0 -8 7 -8 7 0 9 -3 6 -6 -4 -4 -13 -1 -22 6 -12 10 -15 10 -15
-2 0 -13 15 -18 63 -21 10 -1 15 -7 13 -14 -3 -8 1 -10 11 -6 10 4 14 2 10 -4
-3 -5 0 -10 8 -10 12 0 12 4 -2 20 -18 19 -17 20 5 8 26 -14 45 -5 22 9 -8 6
-10 10 -5 10 6 0 17 -5 25 -10 10 -6 22 -4 37 5 20 13 23 13 31 -1 5 -9 13
-15 18 -15 18 2 44 -11 44 -21 0 -6 11 1 24 15 19 21 25 23 30 11 4 -10 2 -13
-7 -8 -8 5 -7 2 2 -9 7 -9 19 -17 25 -17 6 0 4 5 -4 10 -14 9 -7 15 14 11 5
-1 6 5 3 14 -4 8 -2 15 3 15 6 0 10 -7 10 -15 0 -8 5 -15 11 -15 5 0 8 4 5 8
-4 7 18 12 62 15 7 0 11 6 8 13 -3 8 -2 16 3 18 4 3 8 0 9 -7 0 -7 2 -21 5
-32 2 -11 2 -14 0 -6 -4 12 -6 12 -14 0 -7 -12 -9 -12 -9 0 0 11 -4 10 -16 -5
-8 -10 -13 -13 -9 -6 4 7 0 12 -10 12 -9 0 -14 -4 -11 -9 4 -5 -5 -8 -19 -6
-14 1 -25 -2 -25 -7 0 -5 34 -7 75 -5 62 4 77 2 85 -12 5 -9 10 -11 10 -5 0
15 -25 36 -33 27 -4 -3 -7 -1 -7 6 0 9 6 11 18 6 28 -12 121 -13 119 -2 -2 11
4 13 39 16 14 1 14 4 4 16 -7 9 -10 18 -6 22 3 3 6 1 6 -6 0 -8 8 -10 23 -6
17 5 18 4 7 -4 -8 -5 -11 -13 -7 -17 9 -10 37 28 29 40 -3 5 2 7 11 3 11 -4
14 -2 11 8 -3 8 -12 11 -20 8 -8 -3 -14 -1 -14 4 0 20 38 10 50 -13 11 -19 16
-21 28 -12 8 7 25 13 38 14 24 1 48 14 26 14 -6 0 -9 7 -6 15 4 8 11 12 16 9
6 -4 5 2 -1 14 -8 15 -8 23 1 28 6 4 8 3 4 -4 -3 -6 -1 -14 5 -18 8 -4 9 -3 5
4 -4 7 -1 12 6 12 10 0 10 2 0 9 -8 4 -13 11 -13 15 3 21 -1 28 -13 23 -7 -3
-19 0 -26 6 -10 9 -11 9 -6 0 5 -8 1 -13 -11 -13 -17 -1 -16 -2 2 -17 15 -12
16 -14 3 -10 -9 3 -19 1 -22 -6 -2 -7 -4 -3 -3 8 2 11 6 26 11 33 4 7 5 16 2
19 -3 4 -6 2 -6 -4 0 -6 -7 -14 -16 -17 -12 -5 -15 -2 -10 9 3 9 2 13 -3 10
-5 -3 -12 -1 -15 3 -7 11 -54 3 -62 -10 -3 -5 -13 -4 -22 4 -10 7 -14 9 -10 4
4 -4 2 -14 -5 -21 -9 -9 -15 -7 -29 9 -13 16 -17 17 -18 6 0 -13 -1 -13 -10 0
-7 12 -10 12 -10 1 0 -8 -6 -11 -16 -7 -8 3 -12 2 -9 -4 3 -6 0 -10 -7 -10 -9
0 -9 -3 2 -10 20 -13 4 -13 -20 0 -16 9 -18 8 -13 -6 4 -11 3 -15 -5 -10 -6 3
-15 -2 -21 -11 -6 -10 -11 -13 -11 -6 0 6 5 15 10 18 6 3 10 12 10 18 0 8 -3
7 -9 -2 -5 -7 -13 -11 -18 -8 -5 3 -10 1 -11 -6 -2 -24 -8 -47 -15 -53 -3 -4
-4 5 -2 19 3 16 -1 29 -13 38 -15 13 -16 12 -4 -3 9 -11 10 -18 2 -23 -5 -3
-10 -2 -10 3 0 6 -7 13 -16 16 -14 5 -15 4 -5 -7 9 -12 6 -14 -20 -11 -28 4
-30 2 -18 -13 12 -15 12 -16 -1 -8 -15 10 -30 14 -62 17 -20 2 -25 18 -6 18 6
0 8 3 5 7 -4 3 -16 -2 -26 -11 -19 -17 -19 -17 -14 6 4 18 3 20 -6 8 -9 -13
-11 -12 -12 5 l0 20 -9 -20 c-5 -11 -9 -14 -9 -7 -1 6 -6 12 -12 12 -5 0 -7
-6 -3 -12 5 -9 2 -9 -9 1 -18 15 -23 26 -7 16 6 -3 10 -2 10 2 0 5 -9 14 -20
21 -12 7 -20 8 -20 2 0 -5 -7 -10 -16 -10 -8 0 -13 4 -10 8 3 5 -1 9 -9 9 -8
0 -11 -5 -8 -11 4 -6 0 -5 -9 2 -13 10 -18 10 -24 1 -5 -9 -11 -7 -21 6 -12
17 -13 17 -13 2 0 -9 -5 -17 -11 -17 -5 0 -7 5 -3 12 5 8 2 9 -10 5 -10 -4
-15 -3 -11 3 3 6 -1 10 -10 10 -9 0 -13 -4 -10 -10 3 -5 4 -10 1 -10 -3 0 -12
12 -21 28 -15 25 -15 25 -9 2 6 -22 5 -23 -10 -8 -9 9 -16 23 -16 30 0 10 -3
9 -10 -2 -8 -12 -10 -12 -10 5 0 16 -2 17 -9 5 -6 -8 -7 -19 -3 -25 3 -5 -2
-4 -11 4 -9 7 -17 22 -17 32 0 11 -5 19 -11 19 -5 0 -8 -4 -5 -9 3 -5 -1 -11
-9 -15 -10 -3 -15 1 -15 12 -1 15 -3 15 -17 -3 -10 -13 -14 -14 -10 -4 3 9 -3
21 -14 28 -11 6 -17 17 -13 23 4 6 3 8 -4 5 -12 -8 -44 2 -37 12 2 4 -3 8 -11
8 -10 0 -11 -4 -4 -11 13 -13 13 -26 -1 -26 -5 0 -8 4 -5 9 8 12 -34 22 -62
14 -13 -3 -22 -1 -22 6 0 7 -5 9 -10 6 -6 -4 -8 -10 -5 -15 3 -5 0 -12 -6 -16
-7 -4 -9 -3 -6 2 3 6 -3 15 -14 22 -22 14 -23 10 -8 -21 9 -20 9 -20 -4 -5 -8
10 -16 16 -18 13 -3 -2 -6 8 -7 23 -1 21 0 24 8 12 5 -8 10 -11 10 -6 0 5 6 3
14 -3 9 -8 16 -8 20 -2 4 5 2 12 -4 16 -5 3 -10 4 -10 0 0 -3 -10 0 -22 7 -32
17 -54 20 -39 5 6 -6 11 -16 11 -21 0 -6 -8 -1 -17 11 l-17 21 -18 -22 c-13
-16 -17 -17 -18 -6 0 13 -1 13 -11 0 -9 -13 -10 -13 -6 0 2 8 11 14 21 12 10
-2 16 4 15 15 0 10 -3 13 -6 6 -3 -10 -10 -10 -25 -2 -16 9 -19 8 -13 -2 5 -7
4 -10 -3 -5 -5 3 -13 0 -16 -6 -3 -7 -3 -3 0 10 4 16 1 22 -12 22 -9 0 -26 10
-37 23 l-19 22 7 -25 8 -25 -22 25 c-13 14 -19 18 -15 10 6 -12 4 -13 -7 -2
-11 10 -16 8 -26 -10 -7 -13 -12 -17 -13 -9 0 11 -3 11 -17 0 -10 -7 -15 -10
-11 -5 4 5 -1 16 -10 25 -10 9 -12 12 -5 7 7 -5 13 -5 13 0 0 5 5 2 11 -6 9
-13 10 -13 6 2 -3 9 -1 19 6 22 7 3 6 5 -3 5 -32 -2 -39 2 -33 16 3 10 0 15
-8 13 -8 -2 -13 3 -11 10 1 9 -2 11 -10 6 -7 -5 -19 -9 -28 -9 -8 -1 -26 -5
-40 -9 l-25 -7 25 16 25 16 -24 -7 c-18 -5 -22 -3 -16 7 6 11 5 12 -6 2 -15
-15 -33 -18 -25 -5 3 5 -1 9 -9 9 -8 0 -12 -4 -9 -9 3 -4 1 -8 -5 -8 -5 0 -12
6 -14 13 -4 9 -6 9 -6 0 -1 -7 -6 -13 -12 -13 -5 0 -7 5 -4 10 3 6 3 10 -2 11
-53 3 -87 10 -98 19 -9 7 -15 8 -19 1 -4 -6 -14 -7 -23 -4 -12 5 -14 3 -8 -8
4 -8 4 -11 0 -6 -5 4 -16 0 -26 -9 -15 -14 -19 -13 -39 16 -12 16 -26 28 -31
25 -5 -4 -9 0 -9 7 0 10 -2 10 -8 1 -4 -7 -16 -10 -27 -9 -25 4 -51 -14 -34
-24 6 -4 -5 -7 -24 -6 -32 1 -34 3 -26 25 5 13 7 26 4 29 -3 3 -5 0 -5 -6 0
-7 -6 -11 -12 -9 -7 1 -12 -5 -10 -14 1 -9 -4 -16 -11 -16 -8 0 -13 9 -11 23
2 20 0 21 -23 9 -14 -8 -32 -11 -39 -8 -19 7 -46 -21 -32 -35 6 -6 6 -12 -1
-17 -7 -4 -10 -1 -9 7 2 7 -3 12 -10 10 -8 -1 -11 2 -7 8 3 5 1 10 -5 10 -6 0
-9 4 -5 9 3 5 0 13 -6 17 -7 4 -9 3 -6 -3 4 -6 0 -14 -9 -17 -8 -3 -12 -2 -9
3 3 5 1 12 -4 15 -5 4 -8 -4 -7 -17 2 -13 -2 -24 -9 -24 -7 0 -10 9 -8 21 4
18 2 18 -12 -4 -14 -22 -15 -23 -10 -3 5 17 2 21 -12 18 -10 -2 -22 -4 -28 -4
-5 -1 -3 -5 5 -11 8 -5 11 -12 7 -16 -3 -4 -14 -1 -22 6 -9 7 -15 9 -13 4 2
-5 -2 -11 -7 -13 -6 -2 -16 -11 -23 -20 -8 -9 -11 -11 -8 -4 4 6 2 14 -3 17
-5 3 -11 -3 -14 -14 -5 -20 -27 -28 -27 -10 0 6 -5 10 -11 10 -5 0 -7 -5 -3
-12 5 -8 2 -9 -11 -4 -16 6 -16 4 -4 -10 13 -16 12 -16 -8 -5 -19 10 -22 9
-17 -4 5 -11 2 -13 -10 -9 -10 4 -18 0 -22 -10 -3 -9 -11 -13 -17 -9 -6 4 -8
0 -5 -9 5 -12 0 -14 -23 -12 -24 3 -29 0 -29 -17 0 -13 -4 -18 -12 -13 -6 4
-17 -1 -24 -11 -12 -16 -16 -16 -30 -4 -16 13 -16 12 -6 -8 11 -19 10 -21 -8
-18 -11 2 -19 1 -17 -3 1 -4 -2 -8 -7 -9 -5 0 -13 -8 -18 -17 -5 -9 -13 -14
-19 -11 -5 4 -6 -2 -2 -11 4 -11 2 -15 -4 -11 -6 4 -14 0 -17 -9 -4 -9 -13
-14 -21 -10 -8 3 -14 0 -12 -7 1 -7 -6 -11 -15 -11 -11 1 -14 -4 -10 -14 4
-11 1 -14 -11 -9 -9 3 -16 3 -16 -1 3 -20 -2 -32 -12 -26 -6 4 -30 -14 -55
-41 -24 -25 -44 -43 -44 -39 0 4 -11 -6 -23 -24 -13 -17 -27 -29 -30 -25 -4 3
-7 1 -7 -6 0 -7 -6 -19 -14 -26 -7 -8 -16 -11 -20 -8 -3 4 -6 0 -6 -8 0 -8
-12 -25 -25 -38 -14 -13 -25 -29 -25 -37 0 -8 -9 -14 -20 -14 -11 0 -20 -5
-20 -11 0 -5 5 -7 12 -3 7 4 8 3 4 -4 -4 -6 -14 -8 -24 -5 -9 3 -14 3 -10 -2
10 -11 -11 -47 -23 -40 -5 4 -10 1 -10 -4 -1 -6 -2 -15 -3 -20 0 -5 -5 -13
-10 -18 -5 -5 -6 -3 -2 4 4 7 3 13 -3 13 -6 0 -13 -11 -17 -25 -3 -14 -10 -22
-15 -19 -5 3 -9 -2 -9 -10 0 -9 -5 -16 -12 -16 -6 0 -8 -3 -5 -6 11 -11 -13
-45 -26 -37 -7 4 -5 -2 3 -12 9 -11 10 -16 3 -11 -12 7 -18 -5 -14 -28 1 -5
-4 -6 -12 -3 -7 3 -14 -1 -14 -9 0 -7 5 -11 11 -8 6 3 0 -3 -13 -14 -17 -14
-20 -21 -11 -27 9 -6 9 -9 -1 -16 -11 -7 -11 -9 -1 -9 7 0 10 -5 7 -10 -4 -6
-11 -8 -16 -5 -5 4 -9 1 -9 -4 0 -6 5 -11 11 -11 6 0 4 -7 -5 -15 -8 -9 -12
-23 -9 -32 5 -12 3 -14 -8 -8 -12 8 -12 6 0 -8 9 -12 10 -17 2 -17 -7 0 -10
-4 -6 -9 3 -5 1 -13 -5 -16 -8 -5 -7 -12 2 -23 10 -12 10 -14 1 -8 -8 4 -13 1
-13 -8 0 -9 5 -16 12 -16 6 0 3 -7 -8 -16 -10 -8 -14 -13 -8 -10 7 3 15 -1 18
-9 3 -10 -1 -18 -11 -22 -15 -6 -14 -7 3 -14 17 -7 17 -8 2 -8 -21 -1 -22 -5
-8 -32 7 -12 7 -19 1 -19 -6 0 -8 -7 -5 -15 4 -8 11 -12 18 -8 6 4 5 -1 -3
-10 -11 -14 -11 -17 0 -17 12 0 12 -2 1 -9 -11 -7 -11 -9 1 -14 9 -3 14 -14
12 -24 -1 -10 2 -24 8 -31 7 -9 7 -16 -1 -24 -15 -15 -16 -32 -2 -23 6 3 10 1
10 -5 0 -6 5 -8 12 -4 7 4 8 3 4 -5 -4 -6 -12 -9 -17 -6 -5 4 -8 -4 -6 -16 2
-13 10 -25 17 -27 9 -3 5 -10 -11 -19 l-24 -14 23 6 c16 5 23 3 21 -7 -3 -25
1 -38 12 -38 8 0 8 4 0 14 -8 10 -9 16 -1 21 6 4 10 3 9 -2 -1 -4 0 -10 1 -13
6 -17 7 -39 1 -35 -4 2 -8 -2 -8 -10 0 -10 5 -11 18 -4 28 14 33 11 12 -8 -10
-10 -14 -15 -9 -11 16 13 28 9 22 -7 -3 -8 0 -15 7 -15 17 0 38 -48 24 -53 -6
-2 -3 -6 7 -10 9 -4 15 -3 13 1 -3 4 1 13 9 19 17 17 30 -3 14 -22 -9 -10 -7
-15 10 -20 12 -4 17 -11 14 -18 -4 -7 -4 -9 1 -5 12 11 35 -11 28 -28 -6 -17
13 -19 21 -1 3 6 3 -4 1 -23 -2 -19 -2 -30 1 -23 3 7 13 9 22 6 15 -6 16 -5 2
12 -14 17 -14 17 8 4 23 -14 30 -39 11 -39 -5 0 -7 4 -4 10 4 6 -1 7 -11 3
-15 -5 -15 -7 0 -15 17 -10 60 7 52 21 -3 4 2 8 10 8 10 0 8 -7 -8 -24 -20
-21 -20 -23 -4 -17 15 6 17 4 11 -6 -5 -9 -4 -11 4 -6 6 4 8 12 5 18 -4 6 -2
8 4 4 5 -3 12 -1 14 6 3 9 6 9 12 0 4 -7 2 -12 -3 -12 -6 0 -11 -4 -11 -10 0
-5 7 -10 15 -10 8 0 15 5 15 10 0 6 5 10 11 10 6 0 8 -7 5 -16 -3 -8 -2 -12 4
-9 6 3 10 1 10 -6 0 -7 3 -9 6 -6 4 3 16 2 27 -4 14 -8 18 -8 12 0 -4 8 3 10
24 6 17 -3 31 -1 31 4 0 6 -9 8 -20 6 -22 -4 -36 10 -19 21 6 3 15 0 20 -7 5
-8 9 -10 9 -5 0 5 7 3 15 -4 10 -9 15 -9 15 -1 0 6 4 11 10 11 5 0 7 -8 4 -17
-4 -14 -3 -15 4 -5 5 8 13 14 18 15 5 1 9 10 8 19 0 9 3 15 8 12 4 -3 8 -11 8
-19 0 -7 7 -15 15 -19 8 -3 14 0 12 7 -1 7 6 11 15 11 10 -1 15 5 13 16 -2 9
3 17 10 17 7 0 11 -7 8 -16 -3 -12 -2 -12 7 2 6 9 9 21 5 26 -3 5 0 13 6 17 7
4 9 3 6 -3 -4 -7 4 -10 22 -9 19 0 27 5 24 13 -3 7 2 16 11 19 9 3 14 10 11
14 -6 9 20 22 55 26 21 3 22 2 5 -5 -19 -8 -19 -8 0 -20 15 -9 16 -11 3 -7
-10 3 -20 0 -24 -6 -5 -7 -2 -8 6 -3 9 6 10 1 6 -16 -7 -23 -7 -23 9 -5 14 19
15 18 11 -14 -2 -18 -11 -37 -19 -42 -9 -4 -14 -17 -12 -28 2 -11 0 -22 -6
-25 -5 -4 -9 -1 -9 6 0 7 -3 9 -7 6 -3 -4 2 -16 12 -27 10 -11 15 -20 11 -20
-4 0 -2 -9 4 -19 5 -11 6 -22 2 -25 -5 -3 -9 1 -10 9 -1 8 -3 22 -4 30 -1 8
-5 15 -10 15 -8 0 -7 -15 7 -64 l8 -29 17 23 c13 17 17 18 17 6 0 -9 -4 -16
-9 -16 -4 0 -8 -7 -8 -16 0 -9 -5 -12 -12 -8 -7 4 -8 3 -4 -5 4 -6 22 -18 39
-27 18 -9 35 -22 39 -28 5 -8 8 -7 8 2 0 7 -7 15 -15 18 -8 4 -15 14 -15 23 1
14 2 14 11 -2 7 -12 17 -16 30 -12 13 4 21 1 26 -10 5 -15 8 -14 19 6 19 34
17 14 -2 -22 -8 -17 -13 -33 -10 -37 3 -3 6 -1 6 4 0 6 11 10 24 10 14 0 22
-4 20 -8 -3 -5 -10 -6 -15 -3 -5 4 -9 1 -9 -4 0 -6 4 -11 10 -11 5 0 9 -3 8
-7 -3 -19 15 -45 23 -32 11 18 39 20 32 2 -5 -12 -7 -12 -15 -1 -8 11 -9 11
-6 0 2 -8 7 -13 12 -12 5 1 13 -4 18 -12 7 -10 8 -8 4 5 -3 11 0 20 9 23 8 4
12 11 8 18 -4 7 -1 7 9 -1 8 -7 18 -9 23 -5 4 4 2 -3 -4 -15 -11 -21 -10 -22
13 -13 13 5 27 6 30 3 3 -4 6 -1 6 5 0 7 -5 12 -12 12 -6 0 -8 3 -4 7 4 5 15
-1 23 -12 16 -21 16 -19 -4 33 -4 11 2 8 16 -8 12 -14 20 -19 16 -12 -3 6 -1
12 5 12 6 0 8 5 5 10 -3 6 -1 11 4 11 6 1 16 2 23 3 6 0 13 8 15 16 3 9 1 11
-4 5 -15 -18 -42 -16 -53 5 -6 11 -8 21 -5 21 3 1 10 3 15 4 6 1 13 3 18 4 4
1 0 6 -8 11 -9 6 -11 10 -3 10 7 0 10 6 7 14 -3 8 0 17 6 21 9 6 9 10 -1 17
-11 8 -11 9 1 5 8 -2 14 -10 12 -16 -1 -6 9 -16 22 -22 30 -14 40 -56 17 -69
-13 -8 -11 -9 9 -6 14 1 24 6 23 9 -4 10 -4 10 -8 31 -3 16 -1 16 20 -4 13
-12 28 -19 34 -16 5 4 13 1 17 -5 4 -8 9 -7 16 2 8 11 9 11 5 -1 -2 -8 -9 -15
-15 -15 -7 0 -12 -3 -12 -7 0 -5 0 -11 0 -15 0 -3 10 3 23 15 12 11 27 22 32
24 6 2 9 7 7 12 -1 4 2 14 8 20 5 7 7 16 3 20 -4 4 1 4 12 0 11 -4 17 -4 13 1
-13 14 11 33 35 29 l22 -5 -22 10 c-24 11 -32 33 -11 28 11 -2 13 2 17 36 1 8
4 7 11 -3 6 -9 6 -18 0 -24 -16 -16 -11 -30 5 -16 8 7 15 9 15 5 0 -4 6 -2 13
4 10 8 14 7 14 -3 0 -7 -10 -13 -21 -12 -12 1 -21 -5 -22 -11 -1 -7 -2 -18 -3
-24 0 -5 -7 -7 -13 -4 -7 4 -5 0 5 -8 24 -20 21 -30 -5 -17 -22 11 -22 10 1
-10 19 -16 26 -18 32 -8 9 13 14 -2 10 -26 -1 -4 3 -14 9 -20 5 -7 7 -16 3
-19 -3 -4 2 -16 12 -27 14 -15 15 -20 4 -20 -12 0 -12 -2 1 -9 8 -6 18 -7 22
-5 11 7 10 -10 -2 -24 -6 -6 -7 -10 -4 -7 4 2 16 0 27 -6 14 -8 18 -8 13 0 -4
6 -2 11 3 11 6 0 11 -5 11 -11 0 -5 4 -8 8 -5 4 2 14 1 22 -5 10 -6 11 -9 3
-9 -7 0 -13 -5 -13 -10 0 -6 8 -5 21 2 17 11 22 10 30 -4 11 -20 29 -24 29 -7
0 5 -4 7 -10 4 -5 -3 -10 -1 -10 4 0 6 9 11 19 11 15 0 19 -5 16 -21 -3 -15 0
-19 10 -15 18 7 19 -6 3 -23 -11 -10 -10 -11 4 -6 9 4 19 14 21 23 3 10 5 5 6
-10 0 -16 6 -28 12 -28 8 0 7 -6 -2 -17 -13 -17 -13 -17 7 -1 28 24 37 23 29
-4 -6 -19 -5 -21 6 -10 19 17 34 15 19 -3 -7 -9 -10 -18 -6 -22 3 -3 6 -1 6 6
0 8 8 11 20 8 17 -4 18 -2 9 15 -7 13 -7 18 -1 14 6 -3 12 -1 15 6 2 7 3 6 2
-2 -1 -9 6 -16 16 -16 12 0 17 6 14 16 -2 8 7 23 20 33 31 22 32 15 2 -14 -17
-17 -18 -21 -4 -16 9 4 17 2 17 -4 0 -6 5 -7 11 -3 7 4 7 -1 -1 -16 -10 -19
-9 -22 10 -27 12 -3 17 -9 12 -12 -5 -3 0 -15 11 -26 20 -20 20 -20 8 3 -10
19 -9 23 5 29 10 4 19 2 22 -5 2 -7 8 -10 13 -6 5 3 9 0 9 -6 0 -6 4 -9 9 -5
5 3 12 1 15 -3 6 -11 36 -9 55 3 10 5 12 4 7 -3 -4 -7 -2 -12 3 -12 6 0 11 -5
11 -11 0 -6 -5 -7 -12 -2 -16 9 -54 16 -46 7 3 -3 13 -6 21 -8 8 -1 23 -8 33
-16 15 -13 16 -13 9 -1 -6 11 -4 13 9 8 10 -4 27 -2 39 5 12 7 31 13 42 15 19
3 19 2 2 -11 -16 -12 -16 -14 -2 -20 9 -3 13 -2 10 3 -11 18 14 21 31 4 16
-16 17 -16 11 -1 -4 11 -2 15 7 12 7 -3 11 -20 10 -45 -2 -35 0 -38 13 -27 14
11 15 10 9 -10 -5 -14 -3 -22 4 -22 6 0 9 4 6 9 -3 5 2 15 11 22 15 12 16 12
10 -5 -6 -14 -4 -17 8 -12 20 7 19 -4 -2 -21 -16 -13 -16 -13 3 -4 12 6 24 7
28 4 13 -14 35 -11 29 4 -3 8 -12 12 -21 8 -9 -3 -13 -3 -9 1 4 4 1 14 -6 22
-9 12 -6 11 15 -2 20 -13 27 -14 32 -4 3 7 4 4 3 -6 -1 -10 4 -21 12 -24 8 -3
11 0 7 6 -3 6 -1 14 5 18 8 4 9 3 5 -4 -4 -7 -2 -12 4 -12 6 0 8 -5 4 -12 -6
-10 -4 -10 8 0 21 17 56 23 63 12 3 -5 -3 -7 -14 -5 -15 3 -18 0 -14 -12 5
-12 3 -14 -7 -8 -9 6 -11 4 -5 -5 6 -10 11 -9 22 5 7 11 13 15 13 11 0 -5 8
-2 17 5 9 8 14 9 10 3 -4 -7 0 -15 9 -18 8 -3 12 -2 9 3 -3 5 4 13 16 16 27 9
43 -13 26 -35 -11 -13 -10 -13 5 -1 10 7 15 18 12 23 -3 5 3 4 14 -3 12 -7 19
-16 17 -19 -2 -3 5 -7 16 -7 18 -2 18 0 -3 18 l-23 19 29 -10 c27 -10 28 -9
15 7 -12 15 -12 16 4 10 13 -5 17 -2 15 10 -2 10 4 18 12 18 8 1 14 6 13 12
-2 7 13 2 32 -10 40 -25 43 -32 15 -34 -11 -1 -19 3 -17 10 1 6 -6 11 -15 12
-10 0 -18 -4 -18 -10 0 -5 3 -10 8 -10 4 0 13 -4 20 -8 6 -5 16 -6 21 -2 6 3
15 -3 21 -12 11 -17 11 -17 6 1 -5 14 -3 17 11 11 37 -14 52 -14 46 1 -3 7
-10 11 -16 7 -6 -3 -7 -1 -3 6 4 6 12 8 18 5 6 -4 15 0 20 7 6 10 7 6 2 -11
-6 -21 -5 -23 8 -12 16 13 48 7 48 -10 0 -6 -6 -6 -14 1 -15 12 -35 -3 -22
-16 3 -4 6 -1 6 7 0 10 3 10 14 1 19 -16 32 5 15 25 -10 12 -9 13 5 8 9 -3 16
-10 16 -16 0 -5 5 -6 10 -3 8 5 7 11 -1 21 -8 10 -8 14 0 14 6 0 11 -4 11 -10
0 -5 4 -10 10 -10 5 0 7 6 4 14 -8 22 12 28 27 8 13 -16 13 -16 -5 -2 -18 14
-19 13 -13 -2 3 -9 -1 -22 -9 -28 -8 -7 -14 -18 -14 -24 0 -6 5 -3 11 7 6 9
15 14 21 11 7 -4 8 -2 4 4 -6 10 6 17 18 10 2 -2 12 5 23 14 13 12 23 14 33 8
23 -15 36 -12 15 3 -11 9 -14 16 -7 21 6 3 18 -1 26 -10 9 -8 16 -11 16 -6 0
6 11 9 25 8 13 -2 22 0 20 5 -3 4 -1 10 5 14 5 3 10 0 10 -7 0 -10 2 -10 8 -1
4 6 21 13 37 16 30 4 44 20 26 32 -6 3 -11 11 -11 18 0 6 7 2 15 -10 12 -17
39 -24 53 -13 1 2 6 3 11 4 5 0 13 5 18 10 5 5 3 6 -4 2 -7 -4 -13 -2 -13 4 0
6 -5 8 -12 4 -6 -4 -8 -3 -5 3 3 5 20 8 36 5 17 -2 28 -8 25 -13 -9 -16 3 -10
17 8 10 11 10 14 2 9 -7 -4 -13 -5 -13 -2 0 3 14 13 31 22 17 8 28 11 25 6 -3
-6 1 -13 10 -16 8 -3 12 -2 9 4 -3 6 0 10 7 10 9 0 9 3 -2 11 -11 7 -7 9 17 5
32 -4 49 4 36 18 -3 3 -13 0 -21 -7 -13 -10 -14 -9 -8 2 7 10 3 12 -15 7 -19
-6 -20 -5 -8 3 14 9 24 9 64 1 24 -5 26 2 9 27 -15 24 -15 26 -1 14 13 -10 17
-10 17 -1 0 10 3 10 15 0 13 -10 19 -10 35 5 11 10 20 14 20 10 0 -4 8 -1 18
8 10 10 21 15 23 12 3 -2 6 6 6 18 2 23 30 50 44 41 8 -5 14 19 10 40 -1 5 4
4 11 -1 10 -9 21 -4 45 17 28 25 30 31 17 38 -15 8 -15 10 0 15 10 4 15 3 11
-3 -10 -16 12 -12 29 6 9 8 14 20 10 25 -3 5 0 8 8 7 7 -2 12 2 11 9 -2 8 4
10 14 6 10 -4 14 -2 10 4 -4 6 0 13 8 16 8 4 12 15 10 27 -2 11 0 18 5 15 6
-3 20 4 32 16 13 12 16 18 9 14 -9 -5 -5 5 8 23 12 18 25 32 28 32 3 0 -1 -8
-8 -17 -11 -16 -11 -16 1 -5 8 7 16 17 16 23 1 5 2 14 3 20 0 5 4 8 9 5 4 -2
15 9 25 25 10 18 12 28 4 24 -6 -4 -3 1 7 9 11 9 16 16 12 16 -5 0 -3 6 3 13
6 8 8 17 4 21 -4 4 0 4 10 0 13 -4 17 -1 17 14 0 11 7 28 16 36 8 9 13 20 9
25 -3 5 -1 12 5 16 6 4 8 11 5 16 -4 5 -1 9 4 9 6 0 11 7 11 16 0 8 4 13 9 10
5 -4 7 2 5 12 -3 9 4 27 16 40 13 14 16 22 8 22 -8 1 -7 6 5 14 10 8 16 20 15
27 -2 8 3 13 11 11 8 -2 11 3 8 12 -3 8 -2 16 3 18 9 3 17 33 19 66 1 7 4 11
9 9 7 -5 11 16 15 75 1 14 5 24 8 22 6 -4 37 103 45 156 2 14 6 35 9 48 3 12
7 30 9 40 2 9 10 31 17 47 6 17 13 35 14 40 4 16 16 88 20 115 2 14 6 36 9 50
11 45 18 104 19 148 0 23 4 42 7 42 4 0 7 7 7 15 0 8 -5 15 -10 15 -6 0 -6 5
0 13 5 6 9 35 8 62 0 28 5 53 10 57 7 5 7 8 0 8 -10 0 -12 150 -3 166 3 5 5
20 4 34 -2 14 3 34 9 45 7 11 11 28 9 38 -1 9 2 17 7 17 6 0 5 9 -2 22 -10 18
-9 20 5 15 14 -5 16 -3 11 12 -4 13 0 23 12 30 10 6 14 11 8 11 -5 0 -10 11
-10 24 0 13 5 22 11 19 6 -2 11 3 11 11 0 8 -5 12 -11 9 -6 -4 -3 3 7 14 9 11
14 22 11 26 -14 13 -9 85 5 79 9 -3 8 4 -5 24 -11 15 -14 25 -8 21 15 -9 5 85
-10 95 -7 5 -6 8 4 9 10 0 8 3 -5 9 -14 6 -15 9 -5 10 12 0 11 3 -3 11 -14 8
-16 14 -6 25 8 10 9 14 0 14 -9 0 -9 5 0 21 6 12 7 19 1 15 -5 -3 -13 1 -16
10 -3 8 -2 13 3 10 5 -3 9 5 9 19 0 15 -5 22 -12 18 -7 -4 -7 -2 1 7 12 13 6
43 -7 35 -12 -7 -6 25 6 33 14 10 11 46 -5 66 -12 15 -12 16 5 10 18 -7 18 -6
-1 16 -11 13 -14 20 -7 16 7 -4 12 -1 12 8 0 9 -6 16 -12 16 -10 0 -9 3 1 9
10 7 11 13 2 30 -7 12 -9 26 -6 31 3 6 0 10 -7 10 -9 0 -9 3 2 10 12 8 12 10
1 10 -8 0 -11 7 -8 20 3 11 2 18 -3 15 -4 -3 -11 2 -14 11 -4 10 -2 13 7 8 9
-6 9 -4 1 7 -6 8 -10 24 -9 36 1 13 -3 19 -8 16 -6 -4 -8 0 -5 9 4 8 2 21 -2
29 -5 8 -4 19 2 26 8 10 7 12 -3 8 -10 -4 -15 3 -16 22 -1 36 -6 57 -15 63 -4
3 -9 17 -11 30 -3 14 -10 37 -16 53 -7 18 -7 27 0 27 6 0 6 7 -1 20 -6 11 -7
20 -2 20 10 0 9 70 -1 87 -4 6 -1 14 5 16 9 4 9 6 1 6 -6 1 -9 10 -6 21 3 11
0 33 -5 50 -6 16 -7 30 -2 30 5 0 4 14 -2 30 -5 17 -7 37 -4 45 3 8 1 15 -5
15 -6 0 -9 6 -6 13 3 8 1 20 -3 28 -5 8 -4 19 2 26 7 9 7 13 -1 13 -6 0 -9 13
-7 30 2 17 -1 30 -7 30 -6 0 -8 3 -4 6 3 4 0 19 -8 34 -8 15 -11 30 -8 34 4 3
1 6 -5 6 -6 0 -9 6 -6 14 3 8 1 17 -5 21 -8 4 -8 12 0 27 7 13 7 18 1 14 -6
-3 -13 -2 -17 4 -3 5 -1 10 6 10 10 0 10 3 1 12 -7 7 -12 22 -12 33 0 12 -3
25 -7 29 -4 4 -8 19 -8 34 0 15 -4 33 -8 40 -5 6 -5 12 -1 12 3 0 0 8 -7 17
-12 14 -12 16 0 8 11 -6 12 -5 5 6 -9 15 -12 26 -19 79 -2 19 -9 50 -14 68 -5
17 -7 32 -4 32 3 0 -1 8 -8 17 -12 14 -12 16 1 9 12 -6 11 -4 -1 6 -9 7 -14
19 -11 26 2 7 -1 19 -8 26 -8 10 -8 16 0 21 7 4 8 11 1 18 -5 7 -11 26 -14 43
-3 17 -10 41 -16 52 -8 15 -8 22 2 25 9 4 9 6 -1 6 -7 1 -10 6 -7 11 4 6 1 18
-7 27 -11 14 -11 16 2 8 13 -8 13 -6 2 8 -8 9 -11 21 -7 27 3 5 2 10 -3 10 -5
0 -7 11 -4 25 2 14 0 25 -4 25 -5 0 -10 18 -11 39 -2 53 -10 97 -19 112 -5 8
-3 10 5 4 10 -6 11 -3 3 11 -5 11 -7 25 -5 32 3 6 -1 12 -9 12 -8 1 -6 6 6 15
12 9 15 15 7 15 -7 0 -11 6 -8 15 4 8 3 17 -2 19 -4 3 -7 26 -6 51 0 25 -3 45
-8 45 -5 0 -4 7 3 15 10 12 10 15 0 15 -7 0 -10 6 -7 14 3 7 0 19 -6 25 -8 8
-8 11 0 11 8 0 9 9 4 28 -4 15 -6 33 -4 40 3 6 -1 12 -9 12 -10 0 -9 3 2 10 9
6 11 10 3 10 -7 0 -11 6 -9 13 13 39 16 71 6 57 -13 -19 -13 1 0 34 6 16 6 27
0 31 -6 4 -10 15 -10 26 0 14 4 18 13 13 8 -6 8 -3 -1 9 -8 9 -11 21 -7 27 3
5 0 10 -7 11 -7 0 -4 4 7 9 19 8 19 9 1 9 -15 1 -16 4 -6 16 10 12 10 15 -1
15 -10 0 -10 3 -3 8 6 4 10 28 8 56 -2 27 2 58 7 69 8 15 8 18 -1 12 -9 -6 -9
-2 -1 14 7 11 8 21 3 21 -5 0 -9 7 -9 15 0 8 4 15 9 15 5 0 8 8 6 18 -2 9 3
23 12 30 8 8 10 11 3 8 -18 -10 -7 50 18 97 5 10 7 22 4 27 -4 6 0 10 7 10 9
0 9 3 -2 10 -9 6 -11 10 -3 10 7 0 10 7 7 15 -4 8 -1 15 5 15 6 0 11 5 11 11
0 5 -4 7 -10 4 -6 -3 -7 1 -4 9 3 9 11 16 18 17 6 0 2 4 -9 9 -16 7 -17 9 -3
9 9 1 20 6 24 13 5 7 3 8 -7 3 -12 -8 -12 -6 0 8 11 14 11 17 0 17 -11 0 -11
2 -1 8 14 9 13 72 -1 72 -5 0 -3 7 4 16 12 15 11 16 -11 11 -14 -4 -19 -4 -12
-1 6 3 12 16 12 29 0 13 3 25 8 28 4 2 1 2 -5 1 -15 -4 -18 13 -3 18 6 2 4 14
-4 30 -10 20 -11 29 -2 39 8 9 8 10 -1 5 -7 -4 -14 -2 -14 3 -3 26 -4 30 -12
37 -13 13 -36 13 -47 -1z m-380 -210 c7 -8 9 -15 6 -15 -4 0 -1 -6 6 -14 7 -8
15 -10 18 -5 3 4 12 4 20 -1 13 -8 12 -10 -3 -10 -10 0 -15 -5 -12 -10 4 -6
10 -8 14 -6 4 3 8 -1 8 -9 0 -15 -10 -19 -37 -15 -12 1 -13 -1 -2 -12 16 -16
34 -17 45 -3 5 6 7 4 4 -5 -2 -8 -9 -14 -15 -13 -5 1 -16 -5 -23 -13 -11 -13
-9 -15 12 -11 13 2 19 2 12 0 -7 -2 -15 -13 -18 -23 -3 -10 -13 -24 -23 -32
-16 -12 -16 -11 -2 6 13 16 12 20 -9 37 -14 12 -20 23 -15 31 15 24 12 37 -7
35 -21 -1 -26 -13 -7 -19 8 -3 8 -9 -1 -24 -10 -14 -11 -15 -7 -2 6 19 -9 34
-19 18 -8 -13 -25 -13 -25 1 0 5 5 7 11 3 7 -4 10 -1 7 7 -3 8 -14 13 -24 11
-15 -2 -16 -1 -4 7 8 5 18 7 22 5 4 -3 8 -1 8 5 0 5 -6 12 -12 15 -7 3 -1 3
14 1 17 -2 33 3 44 16 16 18 8 27 -12 12 -5 -5 -1 0 9 10 14 12 15 17 5 17 -8
0 -19 -5 -25 -11 -8 -8 -13 -7 -18 2 -5 8 -4 10 4 5 6 -4 14 0 17 8 8 20 18
20 34 1z m-3140 -4631 c11 -12 11 -15 0 -12 -7 2 -15 -3 -18 -11 -3 -9 0 -11
8 -6 9 5 11 4 6 -4 -4 -6 -12 -9 -17 -6 -5 4 -9 4 -9 1 0 -2 -3 -13 -7 -23 -6
-16 -5 -17 13 -3 18 14 18 14 5 -2 -7 -10 -10 -18 -6 -18 5 0 0 -9 -10 -20
-10 -11 -21 -17 -26 -14 -4 2 -6 -9 -4 -26 2 -16 -1 -30 -6 -30 -5 0 -9 7 -9
15 0 8 -5 15 -11 15 -6 0 -9 -7 -5 -15 5 -15 -5 -19 -33 -15 -13 1 -13 -1 -1
-15 9 -11 16 -13 24 -5 5 5 14 10 19 10 5 0 -1 -9 -14 -21 -14 -12 -18 -19 -8
-16 9 3 16 -1 16 -9 0 -7 -4 -11 -9 -8 -4 3 -9 -3 -9 -13 -3 -42 -5 -46 -21
-49 -10 -1 -18 4 -18 12 0 9 -4 13 -9 9 -6 -3 -4 -19 4 -39 11 -26 11 -33 1
-33 -8 0 -12 8 -9 21 4 16 2 18 -5 7 -8 -11 -11 -11 -13 4 -3 14 -49 32 -49
19 0 -20 14 -33 26 -23 10 8 14 8 14 0 0 -6 -5 -11 -11 -11 -5 0 -7 -5 -3 -12
4 -6 3 -8 -4 -4 -6 3 -13 2 -17 -4 -4 -6 -11 -7 -17 -4 -7 4 -8 2 -4 -4 9 -15
45 -10 55 7 6 10 10 8 15 -5 3 -9 4 -19 1 -22 -3 -3 -5 1 -5 8 0 10 -4 10 -17
-2 -10 -9 -24 -13 -32 -10 -9 3 -11 0 -6 -8 4 -7 18 -9 34 -6 25 5 24 4 -4 -9
-16 -8 -26 -14 -20 -15 5 0 4 -5 -3 -12 -7 -7 -12 -16 -12 -22 0 -6 5 -5 12 2
7 7 19 12 28 12 9 0 6 -5 -9 -13 -25 -13 -30 -29 -10 -36 7 -2 9 1 4 9 -5 9
-4 11 3 6 19 -11 14 -29 -6 -24 -10 3 -32 -7 -52 -23 -29 -24 -36 -27 -43 -14
-4 8 -13 15 -19 15 -6 0 -6 -6 2 -15 9 -11 10 -19 2 -27 -12 -12 -46 9 -49 32
-2 9 4 6 13 -7 21 -29 39 -30 24 -2 -15 26 -5 37 20 21 20 -12 54 -6 45 9 -3
4 -12 6 -20 2 -8 -3 -15 0 -15 6 0 6 3 10 8 10 18 -3 32 2 32 11 0 5 -6 7 -13
4 -8 -3 -25 4 -38 16 -19 16 -20 19 -5 13 13 -4 17 -3 12 5 -3 6 3 13 14 17
16 5 18 10 10 25 -9 17 -8 18 7 13 16 -6 17 -5 3 12 -9 11 -10 16 -2 11 7 -4
15 -1 18 9 4 9 12 14 18 12 7 -3 12 5 13 17 0 11 -1 15 -4 9 -3 -7 -9 -13 -13
-13 -5 0 -1 13 8 30 9 16 23 30 30 30 7 0 12 8 10 18 -2 9 4 18 12 18 32 3 34
5 20 14 -11 7 -11 10 -2 10 7 0 10 5 7 10 -3 6 -1 10 5 10 7 0 10 -7 6 -15 -6
-17 2 -19 23 -6 11 7 8 13 -13 26 -19 13 -24 21 -16 30 5 6 7 15 3 18 -6 6 11
11 30 8 12 -2 8 17 -5 21 -8 3 -6 7 4 11 10 3 22 -1 30 -11 7 -9 8 -13 2 -9
-7 4 -14 0 -18 -8 -10 -28 17 -15 44 19 14 18 13 19 -2 13 -10 -3 -22 1 -30
11 -12 16 -11 16 6 2 18 -14 19 -13 13 2 -4 11 -2 15 7 12 23 -9 41 23 25 44
-13 15 -12 16 2 4 16 -12 36 7 31 31 -3 11 5 8 18 -9z m22 -333 c2 -17 1 -28
-4 -25 -4 3 -8 0 -8 -5 0 -6 5 -11 10 -11 7 0 7 -6 0 -20 -9 -16 -8 -20 5 -20
12 0 14 -4 7 -17 -12 -20 8 -43 37 -46 11 0 17 -5 15 -9 -3 -4 1 -8 8 -9 10 0
10 -2 0 -6 -6 -2 -10 -9 -6 -14 3 -5 -2 -12 -10 -15 -9 -3 -13 -10 -10 -15 3
-5 10 -6 16 -3 7 4 8 2 4 -5 -4 -6 -12 -9 -17 -6 -5 4 -9 -1 -9 -10 0 -9 4
-14 9 -10 5 3 12 1 15 -4 4 -5 -5 -8 -19 -6 -14 1 -28 -2 -32 -8 -3 -6 -1 -7
5 -3 6 3 13 2 17 -3 3 -6 11 -9 18 -7 7 1 9 1 4 -1 -4 -3 -4 -10 -1 -16 5 -8
2 -8 -7 1 -7 6 -22 12 -33 11 -20 0 -20 -1 1 -11 21 -10 22 -12 5 -25 -16 -12
-15 -13 3 -6 18 6 19 5 5 -12 -9 -11 -10 -16 -2 -11 7 4 12 2 12 -5 0 -7 -8
-9 -21 -6 -17 5 -18 3 -8 -9 9 -11 9 -18 1 -26 -9 -9 -8 -15 1 -27 9 -12 9
-13 0 -7 -7 4 -13 3 -13 -3 0 -5 6 -12 13 -14 7 -3 4 -6 -6 -6 -10 -1 -16 -5
-12 -10 3 -5 1 -13 -5 -16 -6 -4 -10 -3 -9 2 5 28 -1 35 -17 22 -15 -12 -16
-11 -9 11 7 22 6 23 -7 12 -13 -11 -15 -8 -13 18 1 16 -1 28 -5 25 -4 -3 -14
3 -21 12 -8 9 -9 14 -3 10 16 -9 13 95 -3 111 -7 7 -13 19 -13 25 0 8 3 8 9
-1 7 -11 9 -11 14 2 4 9 1 15 -4 13 -6 -1 -13 8 -15 21 -2 12 1 22 7 22 5 0 7
5 3 11 -3 6 0 15 7 20 12 7 12 9 0 9 -11 0 -11 3 -1 15 6 8 9 19 5 25 -3 5 -1
10 4 10 6 0 11 7 11 15 0 8 4 15 9 15 7 0 14 13 25 50 11 37 33 37 38 1z"/>
</g>
</svg>
