<?xml version="1.0" encoding="UTF-8" standalone="no"?>
<svg
   version="1.0"
   width="1024.000000pt"
   height="1024.000000pt"
   viewBox="0 0 1024.000000 1024.000000"
   preserveAspectRatio="xMidYMid meet"
   id="svg10"
   sodipodi:docname="h.svg"
   xmlns:inkscape="http://www.inkscape.org/namespaces/inkscape"
   xmlns:sodipodi="http://sodipodi.sourceforge.net/DTD/sodipodi-0.dtd"
   xmlns="http://www.w3.org/2000/svg"
   xmlns:svg="http://www.w3.org/2000/svg">
  <defs
     id="defs14" />
  <sodipodi:namedview
     id="namedview12"
     pagecolor="#ffffff"
     bordercolor="#666666"
     borderopacity="1.0"
     inkscape:pageshadow="2"
     inkscape:pageopacity="0.0"
     inkscape:pagecheckerboard="0"
     inkscape:document-units="pt" />
  <metadata
     id="metadata2">
Created by potrace 1.16, written by Peter Selinger 2001-2019
</metadata>
  <g
     transform="translate(0.000000,1024.000000) scale(0.100000,-0.100000)"
     fill="#000000"
     stroke="none"
     id="g8">
    <path
       d="m 2923,9903 c -93.2232,-40.1365 -251.3955,-165.9506 -131.625,-110.125 112.201,78.8292 35.8626,-11.979 -15.875,14 -78.267,-11.0089 -118.218,-98.748 -70.5,-106.875 -135.7199,21.6631 -157.5878,-77.3418 -167,-88.25 -92.7636,85.7752 53.9728,-119.693 70,-175.75 9.8247,-5.0209 91.9732,-82.1855 72,-76 22.8206,-1.507 146.9498,-204.7268 77,-97 -27.7426,-46.1695 58.6394,-173.0441 24,-101 56.088,-98.3439 55.238,-268.1702 41,-173 38.8216,-148.1946 96.9968,-259.9672 78,-183 34.6031,10.067 157.798,-2.9892 90,-63 -63.3029,-100.4749 25.8829,-189.222 60,-128 59.7858,-8.578 98.7313,-300.1695 46,-225 -41.2069,-81.265 -55.3051,-286.5381 -6,-189.25 34.7981,-31.4146 6.1541,-209.1896 21,-159.75 45.5042,-101.5867 57.6067,-480.2765 31.375,-351.625 9.6172,-34.9713 126.9834,-202.9018 12.625,-138.375 4.7528,-75.9609 -150.0038,-210.7607 -49.375,-214.125 C 3099.2671,7211.2363 2881.5684,7019.668 2971,7084 c -13.1712,92.245 -51.9007,-109.6752 -36,-120 -3.3576,-121.7694 -60.2798,82.1131 -35,-164 9.2884,-110.0073 83.8637,-165.5495 104,-82 -76.1674,21.2476 -98.2079,-83.3462 -50.75,-73.5 -20.251,-17.6843 55.4586,-143.4997 30.75,-115.5 -21.5018,-138.364 55.4843,-298.0272 56,-224 -24.2211,20.7626 93.8992,-118.8484 84,-85 1.5862,-42.4691 69.4708,-182.1076 66,-185 41.2034,-42.903 106.1099,-214.4676 67.875,-167.375 -50.7419,-70.8531 -56.16,-287.8177 -29.125,-202.625 -6.0644,-96.5829 -22.8029,-228.7341 -11.875,-210 9.7494,-121.1365 -18.9819,-264.7521 -1.875,-225 -6.9264,-119.2018 -65.8724,-230.6198 -36.6094,-158.5312 6.8637,-75.0216 1.0427,-334.9129 17.6094,-248.4688 26.8563,-22.7674 -47.9308,-368.1321 -18,-249 17.9784,-95.4291 55.0837,-220.9109 46,-191 82.006,158.811 7.6569,-8.3678 16,-53 -0.5108,-78.6534 63.5576,-240.4097 35.875,-215.5 -43.1321,-52.1865 -45.0149,-265.7176 -35.875,-202.5 10.9146,2.5184 49.4204,-186.8994 1.5,-177.375 -36.8903,-27.6549 -27.2161,-150.2979 3.5,-134.625 0.3238,-72.6731 -1.8695,-254.6743 -3,-166 34.6328,-80.4528 47.7633,-213.066 2.125,-177.125 -17.7487,-108.6501 -13.0347,-433.8181 -31.25,-322.25 -15.3614,-73.2243 -0.078,-210.8439 -4.875,-168.625 -28.6791,-22.0872 -7.0198,-221.7664 -3,-156 -4.0542,-64.138 -10.6366,-282.5692 -4,-204 -8.1022,-68.8047 16.228,-177.7192 8,-148.25 15.2431,-107.3375 18.4958,-290.1225 0.875,-190.25 -20.9992,-46.4762 -68.8008,-286.1474 -25.125,-196.25 33.6861,-36.8611 -5.7936,-400.5802 -25.75,-287.25 46.2776,-80.0658 42.5581,-342.4215 36,-252 46.2599,-109.8014 13.2128,-159.6452 142.875,-79.125 16.4122,120.1469 -25.2285,-315.10429 -7.875,-253.875 -18.3648,-132.79138 172.9903,-135.59412 150,-144 46.1323,-101.72537 191.9393,234.4746 179,142 44.448,58.9904 75.5691,336.7062 40.625,261 -7.5567,88.8119 213.5215,41.9358 146.5,-48.25 -37.299,36.7301 -113.5587,142.6697 -7.6875,114.7656 -30.3515,121.0628 58.0284,-57.2594 44.5625,202.4844 42.965,136.1899 39.3513,250.3905 -15.625,126 6.4968,32.3676 -31.1548,134.8175 -10.375,88 19.0693,116.8337 -60.3752,73.8595 10.125,145.375 -62.2271,-1.4019 -75.9136,183.3897 -55.125,127.625 -1.8478,80.8665 -25.8153,260.866 -13,216 -16.9648,121.0718 -65.9199,353.8379 -27.75,238.25 127.6386,558.3378 -196.9176,-603.7954 53.75,421.75 60.5527,165.6484 178.9353,572.0164 131.125,427.625 46.0848,93.7116 186.4961,593.3032 107.875,336.375 73.2639,81.3304 113.1799,1001.8414 93,466 0.7273,145.0944 6.1375,373.8211 22,260 32.7859,309.8748 29.3059,323.425 45,478 28.5553,141.9518 -25.3625,520.9029 -4,402 21.6013,129.4007 -1.9379,354.5298 -4,320.125 4.1925,71.2012 10.0792,310.5624 -2,260.875 -24.0262,76.5485 -25.1064,344.6947 -24.875,246.625 -41.6569,45.1859 -30.5759,200.6879 -28.125,156.375 -13.0433,188.6134 18.9589,372.7851 14,342 25.0302,94.8906 17.2457,302.9609 0.625,268.5 -23.4475,113.4668 -2.9523,227.3857 -6.625,194.5 -29.0624,90.6141 -18.8373,318.8132 -3.5,216.875 -12.2979,170.5145 -16.586,481.9373 -16.5,440.125 -36.2372,-5.9301 28.243,262.4759 -3.375,187.125 -3.2635,170.4207 38.559,63.9482 -24.5,215.25 25.6525,15.268 -11.8648,198.072 -18.125,150.625 -4.5379,-2.3393 -142.2247,459.2399 -59,202 -38.1966,79.9615 -174.6484,299.466 -121.75,255.625 -19.6731,41.5475 -149.0085,463.5586 -152.375,342.75 -11.9918,78.1768 -81.2528,228.6206 -54.875,139.625 -19.0519,140.3934 -55.4677,284.6492 -85.375,221.625 -88.3226,72.0835 -177.4719,209.6267 -116.625,182.375 -52.0373,31.1615 -156.66,198.0846 -87.125,132.625 -98.4159,47.7479 -252.4104,117.7005 -213.25,102.25 130.3276,66.9281 -294.4357,-3.4013 -166.625,0.125 -80.9685,-74.4175 -87.0558,52.0916 -123,65 z"
       id="path4" />
    <path
       d="m 6041,6294 c -33.2934,-395.8238 -77.8769,-129.9801 -49,-52.125 -12.0697,21.4595 -152.8219,3.3978 -154.6845,-17.4008 C 5708.629,6167.1277 5779.2548,6165.0533 5722,6170 c 71.0417,71.7597 -207.7631,9.3434 -112,9.25 -49.2617,39.205 -181.2238,-78.3129 -144,-59.25 3.4898,83.7932 -154.7435,-37.0029 -119,-15 -28.7085,-24.0382 -100.4475,-141.635 -93,-101 -36.6549,-61.8343 -241.127,-276.4776 -160,-171 -44.5885,-44.3113 -132.6541,-205.4276 -95,-133 -52.0842,-69.0873 -174.3925,-280.8469 -124.5,-197.125 20.9278,-13.0222 2.077,-137.7919 -52.5,-120.875 -10.8378,-102.3953 -150.4604,-205.9252 -78,-101 132.9744,30.1441 -95.3825,-112.6948 14,-74 58.2887,-14.6104 -475.3584,-253.6817 -165.375,-140.75 6.0945,-75.9385 -133.5374,-196.1208 -97.625,-136.25 -37.9034,-55.878 -28.7531,-291.5021 -59.875,-225.25 40.9261,189.4935 -4.9917,-142.0951 12,-71.875 -51.0814,-112.2155 100.9933,112.2705 -37.125,32.125 -12.534,86.6701 -165.4325,-65.4942 -88,-13 -66.3804,-79.866 -82.76,5.4592 -32,-91 114.18,19.672 -29.3133,6.8605 -4.125,-54.75 -127.0309,-229.9911 14.2162,-6.6263 -28.875,-133.25 -65.9514,-62.8773 -71.1278,-214.2774 -33,-150 -7.1989,-26.9672 29.1515,-140.0935 6,-113 97.9619,-7.9882 338.6992,28.2301 205,9 71.1157,14.6315 309.1312,54.4309 240,51 28.684,68.0775 151.1184,128.0477 146.125,76.75 136.5189,68.9031 281.3356,132.1974 191.875,100.25 80.4515,54.0844 304.8192,99.2557 194.5,85.125 22.3031,13.894 183.9587,113.8752 161.5,100.875 -3.0189,33.947 154.6003,170.8959 96,68 -55.9569,31.71 20.8328,282.708 9,185.25 67.4219,47.3444 -41.7022,-95.7493 -15,-6.25 -157.879,129.5138 271.3483,-354.9752 -124,51 136.1694,-4.0353 235.6986,100.3921 111,65 9.9897,-35.6824 98.6604,47.9815 58,-18 -40.1452,93.986 -122.2738,309.5252 -44,320 -31.1908,121.9134 97.7861,-3.6381 73,-5 76.0482,122.0673 -91.7752,-7.8446 -13,80 17.49,30.0777 115.3426,140.9836 64,97 67.9155,43.3661 226.2169,42.1606 144,94 34.4621,96.8181 226.7647,196.038 140.875,125.25 80.6091,-87.1479 162.1968,-60.905 136,-84.625 59.5269,18.5575 220.7446,-51.4442 138.125,-45.625 79.3181,11.9425 237.7962,-89.6766 110,-60 -43.2016,73.7305 13.4091,-168.0291 40,-34 -8.2636,-59.5705 91.2973,-130.08 92,-100 96.99,-155.3914 192.2824,-93.5403 155,-94.875 -51.7045,-108.5105 137.1646,-105.304 147,-97.125 48.9222,-134.1509 44.8212,-135.1256 55,-134 14.4211,-45.408 24.3314,-130.5145 38.875,-90.75 30.5592,-59.1606 15.4461,-209.9644 27.125,-154.25 103.2084,-89.8426 128.2313,-245.3324 51.125,-133.5 -66.5581,60.0398 26.2149,-308.4361 3.875,-183.5 45.2431,-105.8589 141.9369,85.6141 62.875,48.75 -52.8687,56.2 16.1233,-258.5075 24.125,-130.75 -34.2718,37.3049 -133.5115,-49.3414 -33,-100 -58.4283,-2.5753 -190.8882,-45.056 -91.75,-79.375 62.6023,-68.4094 7.997,-102.0591 62.375,-96.5 -54.1779,73.0624 -46.7345,-221.1993 -60.125,-76 48.7974,-155.3664 154.037,-26.8467 68.2656,28.9219 0.2466,-89.8122 -87.8435,-48.4905 -61.7656,-99.0469 20.2416,-80.2011 93.1956,-239.2216 40.875,-196.125 116.8782,15.1816 113.7812,261.8291 93.375,226.5 43.0227,90.2976 113.3426,196.2436 55.75,130.25 3.5543,-118.5401 14.8599,-307.0241 125,-132.625 137.0652,41.5375 230.3784,-118.1831 137,-61 -16.8257,-103.8279 89.5616,-61.6605 18,-207 -60.9205,-116.4955 18.6225,-145.3475 -17.375,-178.5 14.8028,-29.1787 -41.7305,165.4991 -43.875,22 -57.68,-42.5281 -8.2501,290.8776 -0.75,129.5 -135.399,-58.3348 29.9405,-365.6099 -13,-217 12.3352,-141.9469 85.1307,-376.6077 49,-255 63.1923,-99.4229 99.5893,-268.4271 73,-201 -31.3342,-169.7986 1.0857,-45.548 5,-242 19.3185,-35.8472 -29.209,-236.0586 -23.25,-174.25 -11.4128,-52.0664 4.1437,-253.1767 22,-240.5 63.7286,-74.5248 101.2664,-425.3256 65.25,-336.25 32.0685,-111.7734 5.8965,-268.3504 51,-250 -17.0977,-86.1719 42.9045,-465.4551 27,-317 31.1041,-92.5961 59.3827,-223.8924 30,-185.5 6.5039,-78.7476 -7.3126,-286.86206 4,-228.5 29.7944,-132.12814 -55.8166,-498.56454 -36,-369 10.5751,-146.64626 122.6203,-366.99925 74,-271 -19.8121,-108.88925 193.0644,-41.24281 137.25,-77.125 69.6509,99.86707 271.1669,85.51789 160.625,47.125 24.1121,1.80036 -54.7766,38.08784 38.125,136 33.988,114.2893 186.1337,-25.46729 102,23 -55.2936,5.58705 3.4724,98.65125 76,51 9.9751,9.82586 230.6797,44.94346 173,28 51.6279,-57.7332 148.6254,-135.48906 92,-77 12.1037,-53.37243 114.1993,173.56056 84.375,74.375 -45.14,45.10905 -141.0599,208.28578 -112.375,96.625 -71.9183,28.84394 -195.2997,262.23834 -185,200 -17.8695,-27.31101 -238.9825,674.2686 -103,311.75 23.4892,56.1755 -3.5827,309.2059 -16,237.25 2.0779,93.6436 -0.9037,265.9895 1,210 14.3351,56.654 -42.5901,295.2908 -27.625,204.25 29.7135,59.9855 5.9656,295.8988 0.625,223.5 4.5338,62.3014 -2.0603,200.456 0,136.25 -8.4671,202.1482 50.9088,395.3139 10,363 -9.512,29.6055 60.8499,385.5468 40,296 -5.6723,61.8341 -43.8429,275.3222 -17.125,210.25 35.1304,23.2869 -30.0928,280.6297 -14.875,214.75 -3.8817,91.9237 20.2192,435.0729 1,312 -5.1036,126.5188 -23.9007,423.6976 -1,277 -6.2782,64.1616 -148.9471,578.1857 -68.875,451.875 11.9664,40.3497 -59.5945,304.5943 -56.125,205.125 -75.0759,148.6635 -161.0785,237.6941 -157,213 -61.8187,86.9944 -152.8079,322.473 -110.875,239.5 -64.4517,11.1744 -212.6384,217.6859 -142.125,214.5 28.7938,73.9028 -22.4789,227.4595 -35,171 28.0589,26.7729 -52.4745,129.7211 68,25 -27.444,104.161 -161.0906,209.8899 -119,154 41.0088,20.7946 -16.2452,5.6956 -85,82 -4.7019,-124.4498 -38.7719,111.0559 -94,120 -8.857,-12.8145 -98.2744,118.3646 -101.875,52.375 -87.5596,51.8981 -187.3237,163.6939 -141,111.25 -68.6665,66.0392 -112.0807,29.5344 -108.125,77.375 -76.7745,-15.8174 -241.3109,39.4557 -167,84 -140.0514,116.6928 -147.7706,167.5538 -124,129 -72.3423,-55.0179 -293.5684,81.6957 -175.125,71.125 -91.2692,-6.707 -327.9024,72.04 -175.875,56.875 -65.8296,-6.6495 -168.0906,23.679 -154,11 l -15,6 z"
       id="path6" />
  </g>
</svg>
