<?xml version="1.0" encoding="UTF-8" standalone="no"?>
<svg
   version="1.0"
   width="1024.000000pt"
   height="1024.000000pt"
   viewBox="0 0 1024.000000 1024.000000"
   preserveAspectRatio="xMidYMid meet"
   id="svg8"
   sodipodi:docname="H.svg"
   xmlns:inkscape="http://www.inkscape.org/namespaces/inkscape"
   xmlns:sodipodi="http://sodipodi.sourceforge.net/DTD/sodipodi-0.dtd"
   xmlns="http://www.w3.org/2000/svg"
   xmlns:svg="http://www.w3.org/2000/svg">
  <defs
     id="defs12" />
  <sodipodi:namedview
     id="namedview10"
     pagecolor="#ffffff"
     bordercolor="#666666"
     borderopacity="1.0"
     inkscape:pageshadow="2"
     inkscape:pageopacity="0.0"
     inkscape:pagecheckerboard="0"
     inkscape:document-units="pt" />
  <metadata
     id="metadata2">
Created by potrace 1.16, written by Peter Selinger 2001-2019
</metadata>
  <g
     transform="translate(0.000000,1024.000000) scale(0.100000,-0.100000)"
     fill="#000000"
     stroke="none"
     id="g6">
    <path
       d="m 2178,8472 c -122.8493,-19.5458 -429.9689,-306.8202 -365,-150 -56.9673,-40.7676 -338.7534,-48.4191 -285,-39 -148.1225,-77.2067 -162.4385,-53.5792 -214.75,-70.25 -21.0403,25.0932 -190.3147,-59.4935 -144.25,-24.75 -83.8183,-23.2363 -358.47198,-58.4427 -243,-49 C 757.31718,8069.1918 746.04853,7936.6705 630,7987 528.90311,7927.2954 586.1142,7673.9793 568,7774.25 670.39812,7647.6691 970.71085,7500.9477 874,7578 c 89.38927,1.0715 259.659,-72.1877 170,-39 157.0175,-36.4525 47.286,23.2764 201,-56 125.3045,-5.7913 350.6562,-105.3433 252.875,-52.375 11.4273,19.7721 235.1976,-21.9497 170.75,-34.25 -57.3005,-30.0674 849.721,135.6203 220.375,73.625 -23.9109,-58.1216 195.6613,49.1618 11,-41 -104.6883,15.4046 107.7241,-29.1173 29.25,-38.625 53.3765,60.3916 106.2188,74.0859 118.75,36.625 94.0426,-61.8592 85.7744,495.3834 76,181 13.3356,45.4351 -113.6668,-223.5292 -124,-128 -181.1395,171.513 -115.4624,182.8541 -52,104 -91.3023,120.9418 -23.6015,160.7501 69,68 137.4878,43.9942 63.7995,-37.9792 32,54 -58.3992,-11.2611 -152.161,150.5488 -151,142 -153.5661,78.7627 -42.3289,129.2457 19.5,78.625 69.7351,6.5332 198.4714,-140.5383 156.5,-21.625 -21.6726,7.4714 154.0101,-127.9329 153,-157 -23.1574,-113.067 118.6974,7.19 94.5,-8.875 30.3163,-67.8498 258.591,-244.6519 188.5,-178.375 -63.5948,-31.8419 -65.14,-203.6604 -64,-168.75 21.0264,-128.552 26.7855,-381.0923 20,-260 -15.1686,-99.8446 -35.7035,-277.562 -47.375,-199.125 -44.005,-54.0259 -86.8476,-217.7685 -67.375,-173 19.1974,-1.8356 -22.2184,-303.3362 -41.5,-248 -19.5223,-78.5438 -1.6174,-313.343 -22.125,-230.125 -25.3794,-126.0852 -24.979,-323.5997 -19.625,-221.75 6.0033,-122.0761 -62.0746,-416.3691 -32,-342 30.549,-55.4205 1.8162,-283.4701 -4,-245 4.6989,-104.026 -24.537,-243.8566 -16,-199 11.7626,-23.6702 -27.2997,-271.3876 -7,-144 -34.684,-127.3924 -55.5215,-209.2923 -40,-175 9.7802,-55.7809 0.626,-277.2053 -9,-185 -20.4685,-138.7628 23.2736,-93.1324 -13.625,-204.625 14.5408,-115.9208 76.92,-447.8659 54.625,-325.375 -11.1483,-133.0458 86.2944,-526.3771 60,-394 0.8511,-79.4294 54.5253,-278.2113 17,-192 33.675,-16.9911 100.7253,-244.469 62,-154 27.276,-99.6271 40.1472,-273.0069 42,-207 20.0551,13.4438 59.6909,-189.3244 63.75,-179.5 55.4947,-127.0875 110.3303,-185.3525 96.25,-173.5 -17.9627,-76.3587 41.1243,-116.1638 56,-156 25.9869,-110.5751 86.5921,-270.841 57,-174 83.6977,-103.9013 200.8678,-206.6648 134.625,-171.875 65.3719,-76.6587 212.9079,-207.413 137.375,-127.125 62.2497,27.1556 111.3169,-57.9582 82,-30 -23.2423,-17.8054 200.3169,-2.1032 30,69 104.8729,-60.4726 52.3413,63.3453 -37,26 -9.3104,-79.8501 74.9453,-107.8795 34.125,7.25 96.0553,5.5946 196.8287,-204.4383 129.875,-122.25 0.764,-23.2664 171.6806,-73.4863 120,-62 64.427,-42.5088 184.9361,-39.1516 84,67 -62.2391,54.2431 -231.4924,284.7824 -192,200 -46.0504,-5.3045 -170.4417,119.5591 -124,93 -43.2551,75.9144 -165.3859,237.5336 -144,175 -59.4901,70.5381 -212.4438,302.1892 -139,235 -45.3645,103.8517 -143.829,473.0964 -97.5,323 -52.4375,141.8232 -55.2543,273.1832 -55.5,238 -38.3338,113.109 2.8182,483.8077 -30,356.25 -53.2001,75.2057 -50.7955,356.2832 -22.875,294.25 29.0239,23.578 89.3431,390.0209 36.875,293.5 17.7362,59.7879 61.6603,357.2756 21,272 -26.4825,94.1026 7.64,242.4367 8,209 24.5837,47.8759 77.2123,216.4699 38.625,167 -59.2823,17.9262 -52.0167,180.1657 1.25,135.5 40.6721,42.3788 69.3124,374.578 69.125,277.5 -21.4459,58.0427 16.6728,209.7794 116,97 22.7273,154.3623 17.9409,94.9271 7.75,107.125 48.614,-112.7156 10.8578,-240.0426 56.25,-131.125 -21.6099,-12.6723 -153.3382,-301.7402 -109.75,-209.625 -1.6864,-53.877 -31.5845,-258.4241 3.75,-199.375 51.5411,-27.3445 166.5187,-196.3699 82,-169 16.733,-102.0912 221.9622,-318.8906 158,-217 92.2772,-51.9907 433.2345,-97.7511 353.25,-126 131.7172,-47.4573 329.4228,-66.1345 247.75,-47 34.3783,-19.2104 255.5278,37.8358 193.25,37.875 8.9015,2.2271 237.3032,62.5433 189.75,31.125 24.8953,32.1934 173.0317,50.0139 157,47 161.4512,42.4732 354.9072,110.1901 275,82 108.9499,82.7577 406.7292,164.4959 300,77 88.0466,67.5934 334.0149,175.6728 217.5,114.5 88.4187,-19.8102 280.6729,130.6388 217.5,86.375 27.6151,19.235 255.3418,158.7617 201,106.125 61.071,2.6577 317.8053,23.3821 240,44 67.3832,28.0577 309.9731,-35.6159 224,-1 130.2683,16.7537 159.1525,-315.7072 161,-155 -31.8025,-205.7878 10.1312,-243.7568 -90.5,-337.125 27.4475,-33.8296 46.7337,-466.3935 37.5,-396.875 0.6953,-99.3098 -2.274,-332.1468 4.25,-264.125 -39.6362,-16.8297 122.3771,-561.1004 68.5,-318.625 21.4768,-59.0296 125.2372,-346.718 72.25,-253.25 -2.9074,-80.7476 -16.4757,-376.4605 30.625,-287 38.8659,-13.6618 28.3643,-167.6046 27.375,-137 17.9244,-53.2 141.0015,-383.2528 99,-262 37.9031,-104.0628 241.6107,-275.5937 162.625,-230.625 48.1535,-99.1843 133.3328,-215.856 118.375,-166.375 52.9391,0.7491 190.9327,-140.3356 105.375,-111 8.4081,-77.1779 119.8365,-138.3212 113.625,-121 68.6979,-76.196 253.1969,-81.349 194,-92 45.9731,-66.5644 235.1466,-98.1301 176.5,-88.5 26.2078,-37.2691 271.6582,-79.0832 214.5,-64.5 33.0113,-11.1626 131.0149,-17.0631 117,-17 -12.4761,9.8232 415.5651,86.2959 340,17 117.5012,14.4046 271.6146,50.9052 255,4.75 98.4136,-38.7357 229.7591,-12.6759 163,15.25 89.9223,-39.4173 -33.7733,-99.164 -55,-50 75.6587,-8.7663 199.569,16.5287 153.875,30.25 -59.6188,-7.9522 315.3256,-34.9249 271.125,-22.25 -46.0676,111.3225 664.3233,-541.8297 107,-40 82.4179,8.2525 139.0988,-83.0732 103.0469,-28.5 176.0198,26.3454 343.2934,-32.3563 290.9531,-21.5 25.2744,40.9034 264.5709,34.3093 229,16 106.3254,34.7794 319.3644,250.7001 255,150 54.4918,118.3343 -6.0497,211.0096 -29,149 198.7595,-107.9534 -200.0414,256.3074 -101,187 -85.7986,88.7748 -398.992,235.0161 -285,185 -62.7158,28.5468 -212.4958,130.5759 -192.5781,116.8594 C 8890.9591,2737.0979 8552.5328,2934.8516 8639,2848 c -152.7559,79.2178 -310.3367,152.6536 -329,45 -133.2132,64.2297 -273.0471,-165.2659 -280,-108 -55.6195,-87.6088 -204.2043,-192.9258 -80,-205 17.3267,43.4811 -229.975,65.4169 -108.125,71.875 -35.4012,18.1299 -263.1117,68.624 -211.875,33.125 -75.3781,22.0855 -278.772,57.055 -205,63 -75.1375,27.1774 -211.1725,85.6783 -215,71 -82.1035,-5.6376 -177.1531,90.1513 -168,89 0.4441,56.0604 -139.9901,208.5653 -137,189 86.9524,-45.0157 106.0332,-1.7781 23,70 -103.3364,88.9986 -98.4229,318.5454 -57.625,244.75 38.076,118.0539 -8.3915,309.8103 -5.375,252.25 -26.2771,104.0333 -76.918,339.6079 -10.875,266 -45.9455,-60.2987 -73.1821,326.5731 -61.125,184 14.6577,73.6111 1.2857,249.658 8,173 -20.956,83.8553 83.5741,170.1742 18.125,159 4.6556,13.4941 8.76,167.4546 10.875,124 136.2417,26.6133 -30.0739,163.1396 115.9531,97.7969 63.9784,58.7152 31.0479,225.2975 21.0469,169.2031 -19.7427,63.9211 -166.4832,118.337 -104,118 -187.3124,183.082 -189.5414,42.7397 -108,262 66.2197,160.584 5.7319,468.0222 -10.5,335.875 -31.6335,72.8621 -25.2398,185.9931 -14.5,176.125 -48.0052,86.4857 -82.817,145.7342 -44,177 -7.2638,92.8097 -31.3873,294.8254 -19,213 -12.2057,84.7601 49.9741,155.1336 3,121 -75.0773,40.3592 -103.6635,298.4109 -71,225 -12.3688,63.2606 -12.4744,307.884 -22.25,221.25 -50.4015,42.1969 16.2655,136.7132 -24.75,125.75 -7.614,132.3996 -100.867,439.4544 -62,309 8.0395,82.5033 -69.292,339.7471 -42,249 0.831,74.8418 -50.1201,218.5911 -28,171 27.8059,8.395 -27.8255,364.4175 22,222 -16.8568,147.0535 -64.4372,307.3547 -39,227 -7.6069,147.5887 -159.3107,125.9136 -135,122 -61.6666,-95.9724 -215.4467,-98.6069 -115.5,-80.875 -61.9984,48.6417 -323.5938,-14.6801 -237.5,-18.125 -17.5001,120.607 -130.8769,-80.6425 -167,-2 6.265,-100.8009 22.4381,-356.4908 28,-256 57.9111,-101.4252 180.0438,-354.8343 134,-264 28.7767,-129.5429 129.5545,-244.794 71,-250 29.2008,-114.0896 75.6479,-317.7279 48,-236 17.4896,-122.5051 26.2786,-335.441 15,-270 -0.3926,-89.4691 -10.1107,-679.6825 2,-497 27.4989,-149.1644 40.8407,-485.9912 7.25,-380.75 -7.5022,-129.3623 -199.8636,-167.6919 -136,-212.125 27.2241,53.7625 -185.2295,27.6093 -201,42.125 -56.8009,-22.302 -234.6088,9.6047 -166.25,-6.25 14.2881,8.7662 -568.5399,112.8096 -226.5,33.125 -31.1732,17.6509 -184.8671,-12.7581 -121.75,-26.125 50.3317,153.3044 -386.133,-382.1676 -156.75,-108 -201.7178,-80.5493 2.2767,34.9935 -148,-32 -70.9083,-34.8766 -209.5187,-118.336 -185.375,-91.5 -93.4494,2.3604 -235.6711,-173.0774 -181.625,-118.5 -66.8772,-101.6998 -520.6442,-65.9323 -318,-41 -107.6064,3.0049 -283.6093,-155.752 -187,-71 -221.6946,-64.7895 -363.6275,-48.732 -312,-48 -78.8757,26.9845 -140.4171,60.5487 -136.375,-10.75 -71.655,-57.7863 -239.1486,80.5358 -203.625,74.75 -128.8343,-76.7285 -176.9037,227.1011 -142,107 -23.5907,122.8675 159.277,228.0203 133,112 174.0605,109.0836 -211.5789,-118.8758 102,97 44.6469,97.5889 181.316,-14.256 163.875,52.875 -60.0756,-111.2956 182.0853,62.5862 105.125,-2.875 26.7814,45.5982 207.6835,116.1881 158,74 125.6228,46.9673 301.9161,354.9469 245.75,265 -0.103,-7.271 70.8434,171.7215 73.25,170 27.8845,77.4654 54.3655,215.696 37.125,140.75 -30.8647,68.114 -69.1308,245.5884 -25.125,189.25 -36.927,123.4443 -316.8578,23.4861 -257,1 -57.6863,-12.1135 -227.7432,-196.8848 -168,-140 -28.2741,-58.5348 -338.1059,-286.6541 -203,-186 -93.2948,-32.0994 -341.0674,-175.158 -224.125,-171 -57.5809,63.7613 -274.3852,-33.8201 -209.125,-26 -37.1485,-112.86 -189.0665,-223.5677 -122.75,-155 -8.6887,107.3334 -39.4954,265.9029 -79,171 -49.9434,10.3888 -174.4426,172.8683 -144,135 -37.0215,145.7106 62.9336,-52.278 -9,147 65.7668,73.8286 117.3199,206.2167 71.125,172 -9.6158,90.8312 65.5924,262.3018 40.875,195 24.9672,85.4034 24.3111,330.8057 35,280 12.3113,80.7348 47.898,232.7893 15,145 16.4049,111.5049 111.7407,377.9324 89,268 21.444,60.9151 51.1021,270.7726 28.25,250.25 -14.2643,68.3468 -34.9181,341.0475 -15.25,246.75 2.8296,45.4761 -183.1629,294.5429 -128.25,213.875 -53.4404,45.244 -181.1683,167.4933 -168,161.375 -77.0675,76.925 -330.6173,274.164 -253.75,198.75 -78.3412,24.2941 -400.5196,107.5492 -299,121 l -34,7 z m -692,-887 c -6.6748,-129.8185 144.2413,-158.4039 107,-88 160.1085,-17.1728 -10.0304,-3.8393 -64,-14 -30.9501,86.7766 -243.8353,-45.1506 -121.875,65.75 16.7657,-68.4522 46.4969,18.8145 78.875,36.25 z M 9014,2063 c 43.4688,56.0247 -0.7141,-125.3454 80,-105 -82.9265,7.1354 -191.7014,134.2023 -174.375,84.25 -66.1203,-5.5979 116.6075,53.6185 94.375,20.75 z"
       id="path4" />
  </g>
</svg>
