<?xml version="1.0" encoding="UTF-8" standalone="no"?>
<svg
   version="1.0"
   width="1024.000000pt"
   height="1024.000000pt"
   viewBox="0 0 1024.000000 1024.000000"
   preserveAspectRatio="xMidYMid meet"
   id="svg8"
   sodipodi:docname="I.svg"
   xmlns:inkscape="http://www.inkscape.org/namespaces/inkscape"
   xmlns:sodipodi="http://sodipodi.sourceforge.net/DTD/sodipodi-0.dtd"
   xmlns="http://www.w3.org/2000/svg"
   xmlns:svg="http://www.w3.org/2000/svg">
  <defs
     id="defs12" />
  <sodipodi:namedview
     id="namedview10"
     pagecolor="#ffffff"
     bordercolor="#666666"
     borderopacity="1.0"
     inkscape:pageshadow="2"
     inkscape:pageopacity="0.0"
     inkscape:pagecheckerboard="0"
     inkscape:document-units="pt" />
  <metadata
     id="metadata2">
Created by potrace 1.16, written by Peter Selinger 2001-2019
</metadata>
  <g
     transform="translate(0.000000,1024.000000) scale(0.100000,-0.100000)"
     fill="#000000"
     stroke="none"
     id="g6">
    <path
       d="m 3906,9681 c -124.3962,-63.1603 -282.1607,-80.4331 -227.875,-56 -48.7701,0.6468 -224.4997,-90.6539 -199.125,-89 -45.6906,-71.3784 -291.0807,-146.598 -201,-156 -50.1098,1.0572 -223.6738,-128.0584 -192.625,-115.625 -49.2829,-112.1938 -241.7766,-22.1605 -201.75,-40 C 2826.3562,9211.7252 2619.6798,9042.3114 2656,9095 c -25.1299,-53.937 -226.6393,-185.5744 -156,-115 -44.4685,-17.4859 -207.4601,-246.772 -137,-173 -64.6684,-68.3771 -176.3499,-233.8785 -132.875,-187.25 41.2721,-83.434 30.3666,-301.4436 10.875,-215.75 9.5727,-49.6378 56.9233,-217.1661 31,-168 53.5764,-82.5837 112.8417,-131.6551 73.375,-115.125 -15.3227,-42.1601 100.0368,-234.6829 90.625,-163.875 61.3925,-12.7925 212.8491,-117.772 170,-116 82.6476,-42.9928 199.7716,-100.3809 156,-66 116.0183,7.7979 7.3041,-23.3743 140,-44 63.3107,1.7595 215.0798,-52.2624 199.125,-31.5 152.8486,-40.9211 35.9051,42.9452 148.5,-9.375 17.6433,77.8497 273.173,-1.6455 226,14.375 187.6797,64.8546 -90.3703,46.1622 160.375,35.5 104.911,37.9122 205.8375,12.6118 165,18 31.5855,-18.6751 396.4713,83.4131 282,54 -47.2789,-52.2133 -48.8127,-211.2904 -35,-137 -15.3892,-46.3139 93.3453,-269.5413 47,-201.125 -29.454,-48.4056 131.0109,-287.1466 81.125,-191.125 17.4471,-43.8308 120.7076,-375.8371 62.875,-168.75 50.8166,-41.7714 112.4417,-260.6653 59.125,-161.25 7.0548,-71.1457 18.6692,-212.6155 23.875,-151.75 -3.0228,-75.0131 -26.0908,-313.8012 29.25,-294.5 23.4743,-131.204 20.2222,-353.1787 29.75,-256.5 -4.8964,-74.2211 11.1899,-359.0454 9,-260 -25.1888,-118.0983 -45.7633,-382.6379 -3,-266 26.1405,-111.7407 7.6878,-245.9667 9.375,-179.625 0.5737,-56.9571 4.4919,-256.6401 -6.375,-249.375 22.7903,-3.3225 -134.3142,-465.2704 -14,-193 -14.2223,-72.9278 -17.8304,-240.3543 -13,-176 7.7141,-63.2603 1.0202,-290.7713 7,-201 1.5552,92.7194 1.266,-922.6669 -8,-160 75.7345,-108.456 -77.0977,-89.6993 46.125,-203.625 C 4374.3548,4341.1506 4293.2321,4205.4278 4346,4227 c 11.5293,-425.3458 -30.4301,353.8525 -37,-305 -5.7035,-148.8014 29.0127,-462.1895 25.75,-344 -11.2169,-83.517 48.5066,-354.1348 17.25,-191 -27.2381,-39.3706 -13.8733,-476.7734 -5,-309 55.5903,-83.1954 163.4275,-276.1074 86.875,-163.25 -20.0274,-66.5486 -31.8075,-257.4257 -9.5,-219.375 10.5231,-22.8216 -17.2321,-205.8439 -32.375,-153.375 6.3839,-91.7375 23.2978,-266.8335 -2.375,-170.75 -59.2546,-16.6096 -45.7808,-112.1739 -33.625,-110.25 -33.445,-47.8711 -101.1702,-283.4614 -68.75,-208 -11.197,-71.7665 -54.3988,-175.3878 -47.25,-147 -20.2116,-51.3895 -352.6308,-98.7531 -207.5,-147 -22.5211,-44.4782 -115.345,66.2068 -119.5,34 -95.1878,86.515 -24.9515,10.1965 -89,35 -12.0746,33.7172 -200.1283,52.0846 -119,42 -48.7198,5.4825 -95.8047,417.305 -135.25,186.5 -30.3696,52.7835 -242.8136,21.5781 -170.75,52.5 49.9698,97.13 -107.8139,132.0612 -79,56 -41.8983,-10.4713 -287.3813,-45.8742 -209,-39 -32.6393,-66.8804 -228.1739,-158.2165 -158.125,-91.875 -75.6327,-66.1985 -137.3706,-203.9758 -132.125,-154.125 -24.0848,28.8014 -54.8974,-32.5601 -53.75,-89 -12.4117,-93.2507 36.7969,-330.9864 17.25,-270.75 64.047,-144.3677 256.5119,-360.2179 150.75,-240.25 70.1172,-68.4072 181.4701,-163.8682 131,-131 88.3909,-47.7002 255.7476,-161.27233 149,-79 42.2917,-12.4482 190.6771,-64.8778 122,-13 16.5069,-39.4196 213.0558,-33.2065 212,-22 -23.8904,-41.31421 73.5285,81.7998 106.125,40.875 94.4974,-28.8578 194.9162,-4.2501 161.875,-0.875 99.2439,46.9038 357.679,141.2936 230.75,83.125 41.4556,39.3674 190.0318,156.105 171.125,92.25 48.8958,25.2103 194.3563,137.4362 151.125,99.625 60.8781,8.0686 145.7316,46.1561 96.25,64.75 45.3409,82.3284 121.5039,232.0881 93.75,145.25 19.0839,86.5093 69.6095,177.8513 62.5,169.25 30.3797,116.7581 150.6992,172.1195 55.625,192.125 -79.1342,53.8608 -6.4164,-134.4715 9.875,-14.375 20.6841,-27.1877 73.3166,-157.7169 77,-120 68.2278,-41.6379 192.5079,-178.3312 173,-159 53.5082,-83.0699 161.8899,-175.4757 152,-153 37.4129,-5.3991 90.8595,-12.0074 79,-59 45.688,-53.5483 150.678,-83.3515 112.875,-70.375 6.3732,-77.4626 161.0272,-123.734 147.125,-95.625 -29.8869,86.3475 83.1033,-53.4162 116.5,-60 69.2234,-10.5528 294.0799,-61.5581 188.5469,-39.9062 86.587,-16.5635 259.4803,-52.4047 170.9531,-59.0938 83.845,-11.1989 289.8937,29.2024 182,2 -76.6575,-78.6536 58.4943,-43.5189 61,-13 -5.5187,-74.0451 153.9158,6.4958 136.375,-25.25 58.5328,-11.9832 177.2137,32.3919 153.25,5.125 72.3283,-18.9324 271.4,-11.1377 191.375,-9.875 40.151,34.5894 273.2636,-15.7362 189.25,-9 80.9179,-9.2348 110.5171,-68.59945 113.75,10.875 174.8863,76.4778 437.4737,-37.9387 224.625,-15.5 86.3877,53.1065 226.3594,-87.77041 185.375,-42.375 41.3328,36.031 212.4966,96.1413 200.125,24.25 51.8156,-56.96032 216.5742,-53.0328 192.875,-47.25 73.8485,-0.3549 286.3438,27.88689 170,10 72.671,0.87414 259.283,17.48422 145,1 49.0137,41.2859 273.7617,140.852 185,58 82.2422,67.3229 85.8238,249.4424 94,177.5 -18.4531,102.6352 25.3601,-55.837 50,116.5 -54.8342,93.1497 -288.2759,288.7017 -184,176 -63.0255,64.4347 -335.002,221.7925 -260,190 -31.123,-13.4761 -476.5273,298.4992 -241,139 -77.1488,59.0481 -286.7367,173.7848 -222,122 -11.1388,-40.9385 -299.7673,124.5976 -168,59 -71.7422,49.6627 -261.1885,225.7551 -237.25,176.375 -88.7068,12.5571 -185.8278,-209.8794 -159.75,-101.375 -19.4053,56.2401 -135.9878,91.8477 -99,64 -104.4927,12.9142 -213.4296,-162.0102 -213.375,-183.25 1.2354,-55.413 -176.9986,-149.2861 -67.625,-151.75 8.2746,69.1609 -195.9909,80.756 -144.25,83 -140.6804,-2.9719 29.4353,-19.6922 -118.75,-29 -43.3161,39.154 -158.7646,155.4927 -167,78 -109.2267,-5.8295 -248.891,146.2828 -197,59 -58.879,8.0713 -285.1745,93.7834 -181,51 -89.9849,-54.0098 -231.5764,72.7643 -179,49 -42.4858,39.5111 -137.3767,80.4865 -135,84 18.1855,102.4136 75.6774,199.3769 -0.625,133.75 -81.7739,79.359 -53.9108,197.7224 -58.375,136.25 -3.8064,97.9072 -39.2512,366.6231 -11,302.375 14.072,47.9035 29.5299,201.5415 -6,162.625 13.9734,55.2984 -18.9041,124.9939 -14,168 70.5135,-23.5498 -35.5612,111.7609 -55,89 2.9373,58.0462 22.7375,253.7505 0,194 -48.4569,-13.3505 -66.9747,156.2492 -17,154 10.3923,88.3014 -43.8877,304.7933 -14.625,289 -55.7417,11.7782 32.6315,49.7405 -17.375,137 -75.061,89.7072 -78.9868,230.736 -54,191 55.9792,23.4639 -18.5305,178.1004 9,174 47.137,42.532 -16.5439,120.6018 -7,145 34.1465,44.1144 119.7748,268.4864 67.125,190.125 -53.766,108.3478 -82.1265,341.4423 -51.125,295.25 -23.6508,21.3911 1.0437,232.9812 -26.5,205.125 -3.8655,31.9451 -15.2181,196.2115 -41.5,203.5 -0.5326,78.7976 -48.535,260.8063 -15.125,166.875 -24.6196,110.0254 -128.058,400.4717 -61.25,300 33.6259,-35.8867 -19.544,127.7797 -8.625,122.125 -10.8701,34.4972 -51.5756,178.0258 -32,128 -3.0605,54.9645 -29.9203,237.116 -22,164 -20.548,48.2103 -4.3251,168.5861 -12.75,192.5 -28.393,112.7387 -44.7899,241.3117 -41.75,201.75 -32.1985,56.7366 -70.3003,260.5142 -38.5,179.75 -8.9835,74.3624 -24.5407,317.256 -32,239 -43.808,37.9058 -78.4948,151.9331 -35.125,125.125 -10.9194,77.0739 -41.4288,254.9397 -23.875,175.875 32.6806,61.2961 40.0384,242.5482 23,204 9.7885,-0.719 -45.4765,117.9914 -50.375,183.75 -31.9459,76.6653 109.9919,212.818 6.875,177.25 71.4958,23.5531 142.6623,46.8981 168.25,52.875 20.7683,13.6942 195.0994,47.548 170.625,40 99.0314,38.2316 288.9315,20.01 184.625,45.125 104.7573,7.0063 169.2184,-25.8578 155,-12 105.1675,28.8902 223.8684,-25.4469 185,-16 91.2696,26.6999 242.2957,-69.0298 188,-59 61.0778,2.1522 224.2512,-207.7345 177,-131 48.6701,27.9408 175.6264,-69.7779 103,-69 26.2151,5.7099 109.2504,-133.7684 86,-104 43.6505,-30.5363 139.8575,-327.7661 122.5,-243.625 41.2774,7.3661 72.8733,-184.967 86.5,-181.375 86.8506,-74.223 52.0332,-94.598 178,-197 -1.8753,46.7416 70.5934,135.8081 35,135 61.6706,58.6182 196.3976,108.8803 120.25,121 26.1069,6.6746 34.6872,175.813 47.125,127.75 3.3431,56.555 -71.7963,183.2658 -26.375,149.25 -20.0892,19.3409 -108.3367,96.0435 -113,88 -59.2091,44.3069 -153.6407,274.7147 -108,173 -21.994,53.8712 -120.8956,278.7059 -96.125,169.125 -24.5812,17.8668 -109.6481,91.3855 -115.875,107.875 -64.3673,112.0608 -170.0588,146.8814 -136.125,117.625 -42.1887,50.8568 -105.6258,27.1165 -159.875,89.375 0.045,72.1708 -468.2877,171.2355 -185,117 -60.4492,61.4735 -275.1822,156.2425 -235,115 -102.2219,3.4364 -211.7734,-65.9208 -157.5,-32.625 -2.9294,59.3235 -239.1835,24.1375 -132.875,33.625 -34.0254,20.5066 -222.2049,48.5111 -175.625,49 -144.844,53.8006 -154.0054,-54.9818 -203.25,29.875 -58.7821,-0.7266 -151.3519,-108.3979 -120.75,-85.875 -117.3596,-62.0747 -93.3491,-44.0232 -317,-79 -83.6499,-6.1681 -226.9564,-23.2235 -172,-34 48.4609,-27.4627 -181.2992,-15.5823 -104.875,-37.75 -16.916,-48.9493 -163.0599,-133.6838 -109.125,-98.25 -81.2178,-16.0456 -326.29,11.5539 -216.3281,12.0156 C 3821.9267,8364.7745 3528.3087,8298.7101 3616,8307 c -36.597,-19.0425 -107.6966,25.7117 -117.125,-18.5 -102.8561,-39.2949 -301.0101,-33.3104 -182.5,-25.5 -56.9647,6.8993 -271.7106,-46.2168 -180.375,1 -91.1796,-3.7079 -225.5595,6.9102 -175,22 -10.9777,42.6995 -166.7104,97.4297 -128,116.75 103.0508,-5.6692 -20.378,-67.6075 -53,-27.75 -92.4732,-10.4455 -147.0316,109.0517 -69,150 -58.8632,108.0183 191.1509,122.5763 148.375,65.25 -22.7151,63.1803 82.9974,-9.647 94.125,12.625 6.2294,35.1978 189.1691,87.1112 54.3762,107.5309 45.9637,166.8331 125.8845,225.7358 136.1238,124.5941 101.9113,26.6636 41.5546,-132.7065 69,-93 -82.0092,-32.632 100.4606,43.3304 37.875,-34.125 139.7835,49.3921 221.0581,51.2987 154.125,58.125 83.1099,23.6657 225.3074,74.3099 159,47.5 67.5734,23.3139 207.6425,186.2033 159,137.5 53.8707,75.4905 174.9204,237.1869 116,169 27.0475,36.2384 96.6025,146.3415 84.5,146.625 44.2806,132.6921 81.8308,323.482 57.5,227.375 -2.7477,84.5776 -99.8209,258.6897 -48.375,187.5 L 3919,9686 Z m 663,-1778 c 98.3053,39.9464 28.3936,33.8182 27,-50 -39.9703,-72.8244 -110.4476,-68.306 11,-95 124.7852,-47.3355 14.9878,-214.2304 58,-158 18.9092,-63.8136 69.6522,89.2456 -3,57 -98.6953,31.0282 -116.3723,160.1265 -82,90.5 -92.8748,-1.6287 -89.7154,105.6449 -70,35.5 -82.2037,-71.8436 46.6963,79.6262 -78,17 -119.4148,15.9604 43.6929,90.5423 13,68 80.7848,6.2249 132.6933,27.8236 124,35 z M 3194,1743 c 33.341,0.6347 -9.6103,-134.2607 56,-144 27.9471,36.9131 -12.7768,-45.8477 -53,5 -118.6057,-14.264 -10.049,275.1295 -3,139 z m 251,-102 c 52.6004,-127.5332 -18.7791,-201.5224 36,-182 -1.8037,64.3393 -280.9,46.3288 -133,177 33.7879,2.146 82.0462,22.0032 97,5 z m 4275,-482 c 54.3222,-108.6576 179.4572,-85.5371 96,-30 14.9056,5.0731 -97.9428,-54.8227 -49,-65 95.8016,-16.6002 -181.478,-30.5206 -32,6 -49.698,19.038 -86.4645,129.8497 -114,63 46.4956,-77.0093 -6.1243,89.2994 99,26 z"
       id="path4" />
  </g>
</svg>
