<?xml version="1.0" encoding="UTF-8" standalone="no"?>
<svg
   version="1.0"
   width="1024.000000pt"
   height="1024.000000pt"
   viewBox="0 0 1024.000000 1024.000000"
   preserveAspectRatio="xMidYMid meet"
   id="svg10"
   sodipodi:docname="j.svg"
   xmlns:inkscape="http://www.inkscape.org/namespaces/inkscape"
   xmlns:sodipodi="http://sodipodi.sourceforge.net/DTD/sodipodi-0.dtd"
   xmlns="http://www.w3.org/2000/svg"
   xmlns:svg="http://www.w3.org/2000/svg">
  <defs
     id="defs14" />
  <sodipodi:namedview
     id="namedview12"
     pagecolor="#ffffff"
     bordercolor="#666666"
     borderopacity="1.0"
     inkscape:pageshadow="2"
     inkscape:pageopacity="0.0"
     inkscape:pagecheckerboard="0"
     inkscape:document-units="pt" />
  <metadata
     id="metadata2">
Created by potrace 1.16, written by Peter Selinger 2001-2019
</metadata>
  <g
     transform="translate(0.000000,1024.000000) scale(0.100000,-0.100000)"
     fill="#000000"
     stroke="none"
     id="g8">
    <path
       d="m 5284,10032 c -36.5369,-63.7021 -78.9631,-179.9517 -76.4013,-133.3991 C 5234.414,9880.8833 5019.7595,9862.1232 5064,9877 4951.4449,9893.9113 4853.3517,9663.2425 4890.25,9678.375 4885.0756,9605.1646 4780.957,9265.5953 4802,9390 c -59.8725,-62.3553 -88.0618,-317.9966 -55,-167 -96.996,-63.6263 -189.2635,-214.7833 -94,-158 -18.4226,-73.2227 -54.9333,-199.0097 -23,-166 -20.9563,-15.1633 3.4428,-222.3416 -25,-199 10.2595,-106.8234 -74.6382,-176.1508 -42,-117 -62.7358,-85.3377 -9.5365,-379.8605 -47,-201 -28.3883,-44.6055 -62.7055,-277.5217 -48.5,-172.625 -30.4549,-106.2145 152.7729,-107.7681 96.25,-146.125 46.2006,-154.326 56.0301,-230.0053 33.25,-147.25 79.6926,-107.0871 71.8315,146.4198 95,29 36.8348,-54.0053 41.8004,-229.8996 63,-190 -8.4239,-37.9299 9.6222,-122.557 7,-117 -0.3882,-49.4956 94.2285,25.712 57.5,-36.5 -65.8263,96.16 -10.7497,94.8461 -2.5,108.5 97.5073,-28.3092 165.4063,-70.0987 133,-82 -23.0243,-85.3818 39.2196,9.8339 29,-112 76.223,-11.07 289.3132,-95.4731 185.125,-59.875 42.2044,42.6604 145.641,91.5516 138.875,98.875 69.4064,57.5666 138.6901,203.6334 83.6875,143.1562 50.1316,130.7748 46.096,100.2151 64.4375,270.5938 96.6954,-64.9093 271.2084,-125.1999 176.875,-128.75 41.3726,-8.1948 68.8626,164.2142 87,86.5 75.3404,29.2167 161.2128,88.3043 77,83.5 27.5331,-91.9495 53.9852,-110.3766 66.875,-37.625 150.8101,-17.4108 27.4964,33.6983 16.125,51.625 -25.3168,53.6181 50.4151,144.8715 62,99 42.8503,82.7144 -14.2308,83.0157 30.5,109.5 -31.2264,63.6148 -162.1536,158.8948 -91.5,162.5 50.1987,106.3188 -72.5123,210.2585 -84,160 -71.3636,75.5521 -87.4119,296.1914 -84,211 -20.7688,37.8924 -32.6574,222.6329 -16,170 93.9168,50.2195 88.9116,293.2068 56,190 -20.4688,-4.5744 -49.2669,144.2832 -37,117 -61.0678,-55.8419 -94.2519,258.5406 -51,180 98.7321,-23.9812 -21.8106,184.1232 -44,159 83.7365,-9.7405 49.3781,-13.9892 -43,214 -41.3147,109.405 -220.99,267.643 -150,198.25 -39.7369,60.372 -103.093,1.6963 -139,37.75 z m 120,-585 c -66.1282,-10.3971 -204.518,-47.4842 -133,-22 -83.6961,-45.8997 -33.0041,84.9811 -1,-23 61.5604,-2.888 181.4894,-149.5756 181.375,-41.875 -8.0334,-238.2699 -149.4728,82.3673 -113.375,0.875 623.6836,-100.5967 -1716.4732,208.7209 -105.875,-30 -115.451,-37.9307 72.9498,73.1583 -77.125,18 14.6953,42.7836 223.1563,105.241 171,112 12.9039,-17.5529 35.6311,105.6384 78,-14 z m 144,43 c 92.9651,-50.5885 49.3543,-122.3731 52,-120.5 -17.8151,-53.7286 -32.2019,-252.8622 -5,-209.5 -28.1485,-9.0257 -105.9614,-89.5755 -65,74 14.665,75.9771 39.2594,295.6363 15.5,201.625 -2.1257,15.7185 -70.1952,82.0938 2.5,54.375 z"
       id="path4" />
    <path
       d="m 5556,6922 c -11.5053,-29.0314 -60.6553,14.5852 -82,-100 -102.5353,71.2709 -230.6104,-181.1036 -164,-57 65.5049,-20.7986 -152.6551,-53.8948 -105,-62 -68.304,-135.1154 -16.5824,-135.1144 39,-36 -2.1734,-86.1764 -51.2589,-194.1941 -110,-34 91.8629,-8.8924 81.8463,141.7266 23.25,133.25 -76.4572,-9.3935 -125.1401,7.9526 -146.5,-174.75 -4.8877,-80.2051 20.0488,-392.6573 37,-277.875 -8.8085,-72.137 6.2322,-310.901 11.875,-218.5 -39.393,-33.8406 -57.0072,-241.6139 -18.625,-188.125 37.6564,-48.7951 21.1743,-322.5016 0,-247 -8.2182,-96.9686 -41.2991,-385.5019 -18.125,-246.25 40.3328,-56.4221 12.1465,-246.4759 11.125,-187.75 9.7468,-83.7779 -24.8509,-346.6844 -23,-234 -2.8205,-66.1848 -7.5286,-186.866 -3.125,-123.875 -14.8987,-94.4713 -10.4299,-276.0086 -8.875,-198.125 13.2721,-109.3204 -107.6216,-340.0826 -28.5,-197.5 11.344,-52.8278 30.894,-347.1181 5.5,-265.5 -1.9299,-53.0122 25.6261,-289.1603 34.75,-221.5 -5.1807,-184.2746 -9.7782,-280.5902 21.25,-319.5 34.6524,-8.1842 -0.714,-270.6106 -33.625,-153.625 -47.5108,-38.2829 -101.139,-309.2596 -55.875,-235 33.0413,-122.1801 -53.3273,-400.2751 -14.5,-291.375 67.2531,-120.6787 3.8116,-419.7814 2,-337 -14.2913,-80.4117 -6.9403,-324.9841 0,-259 -1.0721,-102.2675 -53.9308,-225.7174 -33.375,-175.875 38.1866,-21.166 -71.7292,-232.1948 -35.75,-196.375 -19.0895,0.4868 -113.4122,-206.0059 -91.875,-159.75 -10.4546,-42.7742 -47.5619,-197.6611 -47,-148 -44.2739,-92.3109 -103.3736,-217.9259 -89,-123 -28.2618,40.8058 -67.6652,-157.9595 -84,-110 -20.5243,-40.8324 -92.7514,-213.1655 -89,-137 -119.1325,-23.9499 -138.5301,-63.3199 -50,-56 -61.4712,97.7364 -194.4985,-138.3527 -139.625,-106.375 76.0098,-130.6657 -185.2217,216.6545 -184.75,91.75 -67.6474,-6.2095 -107.1907,-59.6564 -65.625,55.625 75.0684,-140.4147 -2.695,-221.0109 -21,-145 -37.6294,224.4535 -220.9501,-202.27017 -94.5,15 5.5262,44.4667 -102.6338,55.4672 -67.5,-18 -73.5318,-18.7059 -243.9805,-57.8965 -224,-67 64.7197,-20.3529 -40.8777,120.1911 -39,108 81.8642,54.2571 -136.198,249.3259 -84,193 -138.5116,52.7668 -107.2472,96.6994 -128.5,99.625 -66.6498,136.13 -20.0042,50.3956 -146.5,54.375 41.2156,38.0542 -24.6471,18.0935 -69.375,-0.125 -59.7736,-65.4542 -117.5622,-91.8162 -95.625,-19.875 -50.2329,29.111 -198.5065,34.429 -115,14 -122.8528,-21.979 -170.9338,-61.9487 -174,-35 -67.6321,-17.5833 -266.8822,-64.1154 -221,-19 -56.7357,76.9351 -246.3623,49.6854 -189,3 -12.8291,-53.7077 -218.2017,-115.1575 -161,-78 -106.5741,-16.6916 -185.3539,-168.4785 -182.875,-117.125 -3.5041,-66.3998 11.0323,-321.14521 -6.875,-229.125 44.2976,-63.9109 140.176,-118.72518 95,-90.375 69.3012,-31.76588 239.4656,-48.90062 193.75,-102.375 42.7711,-114.11362 29.1867,84.22526 102,86 -44.7848,-115.61014 89.0131,-3.00755 29,-57 -9.1742,83.2429 104.1658,3.90004 57,49 -3.6093,72.0048 14.9685,-46.43281 65,-32 130.7513,-37.63017 -42.4585,63.9836 90,49.125 -40.1681,-35.92839 -0.391,-185.20616 42,-107.125 166.116,-102.42708 239.0339,-62.58433 185,-74 61.529,-68.54533 202.5923,41.66186 178,-98 215.2367,-198.13531 75.5549,-114.17205 24,-70 109.3538,43.29191 168.2787,30.56438 119,-22 49.1193,19.84597 261.6292,-127.03356 143,-94 59.0508,125.44258 86.856,1.58596 110,3 39.7187,-69.05445 69.3533,-98.60578 97,-71 33.6595,-50.75006 132.8241,-65.87647 154,-41 46.442,40.93925 171.2121,42.14006 143,-5 30.3968,-39.56876 212.1931,133.54453 115,48 -13.7833,-80.27624 147.0577,-122.80827 107,-80 -14.0869,73.63422 164.0174,-60.45898 159.125,82.75 6.7434,-81.1575 105.7147,33.64846 120.875,12.625 132.8935,-86.97482 195.282,-42.59411 123,5.625 -73.1818,65.05237 167.1529,129.39778 84,43 103.7838,-4.03721 103.3786,30.79177 92,54 68.4569,-2.76956 154.3477,46.7114 134,38 -49.7493,39.83529 153.2404,114.62571 111,50 -84.9419,84.29951 -28.6781,181.68289 35.25,97 64.9321,-72.55425 231.2956,217.19764 175.75,109 32.9128,53.20102 103.9543,206.2928 97,143 69.5611,1.167 167.6842,125.5845 126,113 23.6308,122.4988 68.643,264.7547 54,123 44.6913,-38.8953 97.2389,155.8125 81,140 72.4873,8.0743 139.4787,92.8795 80,84 29.1857,101.3585 127.6778,240.4869 74,218 -20.115,59.0511 37.3984,208.7787 23.375,121.75 7.6929,-10.8381 89.9868,131.1336 40.625,123.25 12.2556,-70.147 91.3185,422.9225 56,239 41.3447,145.9925 48.0681,650.0106 35.375,495.375 36.2198,33.942 -1.8542,143.2639 19.875,152.5 32.0444,45.0326 72.3157,199.6209 25.25,183.25 -47.1636,7.9024 13.4645,339.8119 -9.5,187.875 35.069,133.9175 60.8152,335.5244 30,226 11.515,60.6743 -10.3834,401.8988 -27,343.75 -61.2944,160.457 -6.5563,323.6065 -53,493.25 5.1773,75.221 -22.3916,390.7118 -28.625,284 -51.3203,72.3824 -101.4302,562.4679 -63.375,326 -37.9311,170.9286 -83.2462,597.1666 -64,466 -1.2839,44.4118 -11.2549,399.5035 -19,320 -9.9146,139.4695 -10.1616,144.1944 -14.125,297 -4.4943,90.6075 33.8524,267.588 17.25,225.125 2.7928,24.8903 73.2156,169.5302 24.875,175.875 -32.3811,120.9578 -57.4214,184.0578 15,157 43.6609,58.6854 37.9806,349.9989 46,240 -3.4818,39.1585 -33.0205,177.4925 -95,177 z"
       id="path6" />
  </g>
</svg>
