<?xml version="1.0" encoding="UTF-8" standalone="no"?>
<svg
   version="1.0"
   width="1024.000000pt"
   height="1024.000000pt"
   viewBox="0 0 1024.000000 1024.000000"
   preserveAspectRatio="xMidYMid meet"
   id="svg8"
   sodipodi:docname="J.svg"
   xmlns:inkscape="http://www.inkscape.org/namespaces/inkscape"
   xmlns:sodipodi="http://sodipodi.sourceforge.net/DTD/sodipodi-0.dtd"
   xmlns="http://www.w3.org/2000/svg"
   xmlns:svg="http://www.w3.org/2000/svg">
  <defs
     id="defs12" />
  <sodipodi:namedview
     id="namedview10"
     pagecolor="#ffffff"
     bordercolor="#666666"
     borderopacity="1.0"
     inkscape:pageshadow="2"
     inkscape:pageopacity="0.0"
     inkscape:pagecheckerboard="0"
     inkscape:document-units="pt" />
  <metadata
     id="metadata2">
Created by potrace 1.16, written by Peter Selinger 2001-2019
</metadata>
  <g
     transform="translate(0.000000,1024.000000) scale(0.100000,-0.100000)"
     fill="#000000"
     stroke="none"
     id="g6">
    <path
       d="m 4012,9503 c -11.0125,-22.7144 -147.6215,-51.6632 -204,-56 -67.3886,-114.384 -95.6155,6.3932 -61,-100 -125.2668,46.2781 14.1628,190.9303 5,118 -154.5894,-55.9282 -9.3251,166.403 -102,-40 -15.9686,16.7207 -120.6586,-19.5008 -90.875,-43.875 -106.0194,37.0767 -348.3011,-149.7156 -222.75,-136.625 -30.9268,-42.361 -232.7863,-106.9604 -180.375,-58.5 -24.7987,18.637 -301.8847,-248.885 -191,-128 -156.9289,4.0203 -243.4061,9.838 -219,16 -5.7987,-18.4045 -231.3007,-199.4499 -190,-96 22.2104,12.2206 -320.8193,-148.485 -177,-88 -22.7301,16.7564 -179.9349,-202.1244 -115,-105 -287.2706,-251.4492 165.7045,63.274 -234,-248 -33.1577,-71.3671 -47.1463,-440.8428 -43.25,-321.625 -52.6755,-48.0918 -52.5631,-226.8093 -15.375,-145 27.5207,-9.8837 69.9494,-201.9608 48.625,-137.375 37.3973,-30.0128 162.7713,-144.5483 101,-120 -32.0903,-58.1001 185.3978,-315.6311 132.125,-194.125 C 2388.5214,7511.9753 2560.7001,7481.8999 2475,7500 c -20.8237,-6.2726 180.7925,0.7601 156.25,-55.625 39.3145,-47.6363 161.5147,-93.77 92.75,-63.375 34.2216,14.7411 346.2877,-74.4465 219,-60 16.6806,31.2261 -35.58,-31.3595 69,3 74.0956,-1.127 283.4423,-5.5418 234,10 35.7278,-12.031 175.2729,49.6498 112,21 72.3383,-19.4852 -14.3047,-16.4412 110.5,4.125 64.3292,-56.2521 90.3027,26.1191 137.5,-17.125 31.539,19.7312 175.8919,2.7699 173,8 30.9758,12.5995 242.9169,14.2983 169.125,12.25 77.4445,90.6959 194.8352,-16.8988 164.625,-16.875 47.3527,-41.1632 120.7121,-63.3075 123,-9.625 -31.5919,-2.4056 142.4218,-132.1842 80.25,-82.75 -23.8948,40.1496 17.3794,-128.3979 39,-177 65.0085,-170.5651 44.0164,-113.9031 99,-302 -15.3236,-50.5822 34.7853,-150.7664 4,-128 -20.9557,-64.6981 -29.8264,-298.1776 0,-215 34.3334,-50.3263 -3.2473,-420.5437 -1.125,-290.5 12.0918,-51.404 8.0175,-223.4925 1.125,-212.5 -11.1617,-91.6765 11.3735,-273.3414 -11.875,-241.125 -20.1244,-52.0796 -42.9543,-238.5381 -34.125,-171.875 -4.1114,-138.4791 -55.8371,-338.4952 -34,-242 -17.5214,-94.7427 -53.4168,-228.7965 -26.75,-157.75 19.2593,-89.2601 -4.4772,-218.8149 -16.3438,-197.7812 -17.6713,-87.3182 -23.8076,-219.2428 -30.75,-165.6876 C 4300.5516,4634.4973 4238.0925,4422.3925 4257,4514 c 29.2786,22.7339 8.8815,-164.7405 -2.625,-170.5 -8.2315,-59.2586 18.9752,-164.5438 5.625,-123.5 -7.1379,-89.3207 -32.7453,-291.6507 -33,-223 -42.2781,-65.1917 20.9634,-248.4517 -4,-154 -23.6453,-65.9121 -36.4412,-179.0668 -18,-104 -5.6736,-125.576 28.2485,-333.8686 1.625,-263.75 -13.1748,-87.9509 26.4342,-288.9669 53.375,-226.375 28.6292,-101.3244 52.3443,-353.6787 18,-264.875 18.5773,-105.023 68.1954,-153.668 57,-143 -6.8093,-77.6949 35.2472,-232.4445 45,-156 12.4786,-96.6521 67.3647,-252.0395 47.5871,-189.8226 C 4375.517,2472.7399 4375.5389,2331.055 4425,2370 c -7.6229,-7.6309 32.8087,-27.4482 26.375,-60.25 14.6091,-76.1391 85.7762,-353.7896 78.625,-240.75 80.3481,-62.2462 190.0543,-293.1769 94.375,-184.25 6.1951,-93.7238 64.543,-213.7934 50.625,-134.75 10.1305,-87.7785 131.611,-132.8204 93,-185 28.4072,-9.8127 130.1721,-132.6741 87.375,-90 -39.0675,-11.4963 19.6382,-32.2466 46.25,-88.25 17.6479,-84.7933 103.6639,-196.1786 104.375,-133.75 106.4425,-103.2998 7.5895,31.7183 102,-101.625 -25.6138,35.9061 131.7866,-71.893 69,-39.375 37.3686,-63.7905 142.0849,-137.67294 129.625,-97.125 63.7461,-69.45747 206.4391,-135.66336 122.25,-54.625 -97.2538,30.79697 74.2373,-24.14966 60.125,-30.25 2.7536,-87.72048 90.2822,-87.27117 64,-36 62.0435,-7.15044 298.8023,-66.2918 174,-59 27.8855,-51.85262 222.0675,-128.39849 173,-58 106.2525,17.48676 215.0212,1.16149 131,8 90.5562,4.81197 193.4055,41.98324 204.875,30.5 95.249,5.95495 358.235,83.59424 243.875,56.5 28.8034,-19.49521 248.4397,133.9551 227.125,134.375 166.4932,12.8881 292.1347,143.6813 209.125,127.625 37.4191,74.047 114.5388,104.4533 74,64 89.4175,43.6811 149.9191,132.3127 121,108 -20.5475,21.2411 65.3009,350.7529 30,136 40.875,-9.8463 173.8555,43.7787 162,82 25.7248,81.4847 127.7717,175.6132 85,113 10.4559,193.4074 27.5904,-79.3715 39.25,94.75 131.0629,-12.367 7.6739,94.811 27.75,68.25 65.4593,-37.2418 101.9997,173.5867 99,103 46.523,30.0534 167.2131,241.6003 121,140 65.9504,32.0109 65.3243,250.4876 38,173 -43.7434,45.6294 182.0692,-48.7067 143,53.5 -119.6251,-10.5968 -22.2578,115.0899 34.75,17.125 86.4444,-52.1667 197.4405,-12.1025 112.5,34 -35.0226,108.538 30.335,38.5695 0.75,28.375 85.8689,0.8142 124.1939,25.5429 106,46 43.9815,51.4096 164.2666,174.4932 117,190 47.7583,48.4592 -96.6423,366.29 -4,260 -4.3354,28.6439 -211.9089,112.1983 -142,143 -53.6173,-15.535 -311.5409,-51.7296 -233.125,-35.5 -55.5052,-36.3602 -186.5763,-57.2051 -120.25,-31 -53.8942,17.8527 -167.5232,-49.962 -141.875,-48.5 -65.6583,-37.2363 -237.1955,-133.0025 -165.75,-87 -95.2164,-39.5917 -369.1494,-155.148 -276,-111 3.3887,-10.1178 -219.9105,-161.2485 -109,-63 -55.5565,-21.2382 -199.0745,-148.6354 -164,-88 -125.6081,-44.0721 -218.4591,-245.9049 -198,-159 -14.5265,-146.6607 -105.4259,-358.0893 -68,-208 -62.5614,-96.6389 5.3133,-229.3883 -5.875,-172.25 65.119,-103.9391 -136.3634,-224.5921 -42.125,-193.75 34.3619,-44.3672 -18.8771,-0.2166 -47,-46 -148.2666,16.3995 -207.7163,31.9876 -227.375,-16 -140.6571,-77.1134 -289.6543,-444.5544 -131.625,-175 43.4317,73.1294 -106.7502,58.798 -96.5871,-2.8226 -20.9438,80.2465 -221.2288,122.7505 -138.9129,84.5726 -124.4694,-49.5535 -265.3947,86.4046 -185.5,59.25 -35.6613,79.2077 -157.4427,209.743 -185,215 -76.5185,44.4641 -130.5745,223.3683 -105,200 -42.9682,53.2974 -38.3875,157.6161 -50,110 -24.1073,15.9015 -123.6134,173.5001 -46.1719,26.875 -60.3646,55.1928 -236.9334,373.2572 -164.29,271.8245 50.8278,-9.4617 13.4245,76.1975 11.5869,81.3005 27.9355,25.8551 -102.955,309.393 -32.125,172 75.0468,16.94 -34.1193,243.2902 -4,204 10.0593,60.0502 -21.6782,144.7601 -5,135 -21.7294,77.1659 -36.6804,39.2024 -3,195 -76.4022,-21.8738 -39.3736,251.4549 -16,157 -22.7085,44.2095 -28.4807,216.235 -16,141 25.4539,43.7826 -54.2458,220.6687 -25.5,150.5 19.0545,81.2731 -2.2176,296.2732 -21.75,227.375 -29.6971,54.6822 -59.9748,199.7194 2.25,180.125 -40.5407,146.6357 -13.6783,195.343 -23,224 41.4339,37.8729 110.6341,330.5963 64,179 -23.2395,74.5845 -62.972,291.6068 -16,209.875 -27.8976,210.2804 39.9988,-38.5125 4.75,150.875 -33.4449,-147.7268 -12.5527,196.4018 -2.875,111.75 35.2832,11.609 28.0442,321.1495 -9.875,306.25 -12.7904,76.5287 -31.0052,179.1786 -15,139.25 -17.4492,89.1673 -20.2936,208.8634 -12,127 -32.2209,3.2245 -57.2843,242.3216 -24,197 8.9597,47.2874 11.1634,185.5573 2,138 8.5108,65.4314 -15.2591,225.6343 -3,185 37.6804,33.9127 -5.3322,192.4949 -13,160 41.6168,61.6309 -20.7917,129.2448 -6.625,105.75 18.6707,104.9832 17.1658,279.6674 9.625,148.25 42.5393,39.1755 4.5085,245.5379 5,161 3.3023,81.7459 -10.9027,221.7887 14.25,229.5 12.2873,95.623 86.7232,360.0551 50.375,229 38.9366,93.3479 -81.4325,262.8099 -56.625,203.5 -76.0129,94.8514 -102.6265,-64.2329 -99.75,-15.125 32.6834,-13.7632 -237.417,-11.4639 -175.75,-2.5 -65.7762,150.7172 8.3907,64.3332 41.625,114.625 -4.5369,-32.4211 94.6138,65.0846 110.25,41.25 29.1127,-43.2631 138.1827,-89.5934 113.625,-27.25 25.5046,-8.0123 149.5686,116.8632 133.625,80 114.2057,0.847 257.1052,77.4875 187.375,21.75 -91.774,-42.2232 -20.5511,14.2475 114,-42.75 -3.8212,15.3552 317.416,2.1901 247,-26 -24.0849,-63.6824 95.624,-22.3436 72,-15 -107.9908,-16.7114 97.2421,-88.7683 131,-81 -37.5181,14.1949 65.6626,-25.6875 64,-44 114.4411,-45.8134 33.6866,-69.2674 97,-58 31.3938,-23.2208 102.4904,-71.4776 67.125,-73.5 15.8533,-30.1037 171.3327,-224.0778 125,-136.375 -1.4508,-42.4366 180.5349,-192.1937 141.625,-194.125 -73.0086,-54.7359 80.4001,-109.319 30.375,-120.875 -71.3656,-39.6018 31.4902,-35.2619 16.125,-75.375 21.2915,-96.716 29.1271,-379.1584 37,-230.625 63.187,43.6468 125.0805,-98.3216 89.75,-77.125 12.4542,-61.1494 -1.0148,-113.0364 37.6875,-86.8281 45.2447,-228.9274 127.5454,118.9511 95.3125,30.8281 0.8468,75.7079 31.8348,136.8263 52,79 36.3915,2.354 150.1783,-88.7171 134,47 79.2589,62.6605 97.7377,192.0616 63.375,157.875 66.2368,182.3483 22.8965,358.0345 5.625,201.125 31.8577,-23.7317 -365.1426,208.0672 -169.5,139.1562 -22.9195,107.1008 -70.6058,205.7574 -94.5,165.8438 83.0807,63.0547 -43.4514,337.3404 -78,238 -21.2667,-21.2233 -46.6947,91.744 -90.125,106.5 -59.925,154.8289 -176.2042,246.5996 -132.875,165.5 -6.6916,-70.5642 -61.7601,41.7519 -37,38 -33.6169,10.1458 -167.5155,162.505 -143,103 -83.276,60.2365 -125.5249,95.2332 -98,63 -80.8745,-34.4843 -178.3602,86.7095 -82,76 10.9245,-39.7336 38.1752,39.0124 -44,11 -104.7826,115.8924 -52.3752,-124.6163 -113,85 -177.721,77.8323 -263.0534,136.2909 -140.375,79.75 -128.3259,30.4387 -341.6132,122.3901 -231.625,2.25 -29.1067,-57.1412 -215.6751,81.8312 -145,40 -95.3084,32.6772 -238.8681,38.3125 -167.375,52 -48.9199,6.7044 15.7961,98.8913 -103.625,-31 -93.3852,-14.7064 -109.5194,123.5989 -59,72 -140.9009,-34.3637 -381.6557,-186.1639 -240.125,-129.625 -130.7002,48.1232 33.16,-105.3208 -90.875,38.25 -84.0473,-59.1357 -356.6103,-78.1616 -225,-47.625 -99.4649,-23.7949 -301.6162,-19.0112 -224,-36 -67.6986,-23.9251 -162.0331,-84.6035 -109,-77 -69.1224,-80.1382 -244.5884,-95.7368 -141,-68.875 -86.0879,54.1379 -202.9896,49.4379 -117,36.875 -26.7729,-1.7476 -179.0529,44.1395 -157,49 -56.7536,0.7845 -171.0111,20.8978 -128,8 -28.1858,-59.1433 -156.3499,-67.1462 -101,-41 -77.5724,19.0634 -214.9425,-30.4018 -169.25,-15.75 -114.8829,47.0556 -300.0031,58.2838 -225.75,21.75 -42.614,45.3375 -188.9631,5.9062 -217,29 -46.1345,-28.9434 -196.8635,67.2955 -115,47 119.2614,-10.1252 -97.197,54.2841 -54.4219,44.0781 -45.3496,91.1603 -165.1296,82.3393 -66.5781,92.9219 -73.8236,-57.613 -176.9377,90.9238 -135.25,23.125 61.7315,68.3292 70.8459,164.5299 29.25,159.875 170.5387,-22.8574 393.9411,1.1996 251.375,22 -5.4434,63.8019 14.8264,86.7149 -70.375,26 -22.6549,-24.7551 156.3485,11.7692 116,81 75.7444,115.5411 136.3952,119.604 97.625,90.25 58.9485,-62.4421 213.1799,-82.5416 160.375,-2.75 77.0999,2.9663 38.5423,-99.8358 12,-70.5 -122.6663,127.4065 -90.6685,69.8542 -43,14 32.8544,-31.2614 49.5621,83.3515 55.375,-36 71.8671,-59.4395 344.4887,-1.663 222.625,30 48.5346,0.1222 197.2062,11.6126 136,12 81.6902,65.9574 108.915,79.5973 203,139 -17.0625,20.9809 128.6536,193.0686 111,143 32.0362,28.078 139.3823,140.0439 81,84 46.6709,102.9027 93.6685,237.392 76,153 43.4515,-52.469 113.6271,468.2075 62.875,175.625 49.687,118.2344 26.4257,290.7373 25.125,200.375 -2.7351,2.8843 -22.3305,95.6943 -38,68 z M 6799,6758 c 42.2797,6.9324 102.9128,-47.0107 90,-48 2.2651,-38.4205 -56.7178,-115.2203 -20,-95 -134.5275,85.8056 -107.7238,258.1614 -104.625,174.125 z"
       id="path4" />
  </g>
</svg>
