<?xml version="1.0" encoding="UTF-8" standalone="no"?>
<svg
   version="1.0"
   width="1024.000000pt"
   height="1024.000000pt"
   viewBox="0 0 1024.000000 1024.000000"
   preserveAspectRatio="xMidYMid meet"
   id="svg14"
   sodipodi:docname="K.svg"
   xmlns:inkscape="http://www.inkscape.org/namespaces/inkscape"
   xmlns:sodipodi="http://sodipodi.sourceforge.net/DTD/sodipodi-0.dtd"
   xmlns="http://www.w3.org/2000/svg"
   xmlns:svg="http://www.w3.org/2000/svg">
  <defs
     id="defs18" />
  <sodipodi:namedview
     id="namedview16"
     pagecolor="#ffffff"
     bordercolor="#666666"
     borderopacity="1.0"
     inkscape:pageshadow="2"
     inkscape:pageopacity="0.0"
     inkscape:pagecheckerboard="0"
     inkscape:document-units="pt" />
  <metadata
     id="metadata2">
Created by potrace 1.16, written by Peter Selinger 2001-2019
</metadata>
  <g
     transform="translate(0.000000,1024.000000) scale(0.100000,-0.100000)"
     fill="#000000"
     stroke="none"
     id="g12">
    <path
       d="m 2605,8779 c 25.6614,12.1301 -561.7641,-256.6839 -219,-126 -104.8162,-39.1039 -318.8672,10.8581 -286,-18 -169.9127,-51.3735 -492.2541,-34.1495 -336,-24 -22.8885,-14.3914 -193.3373,-54.709 -152,-28 -94.6602,-31.1537 -341.6457,-89.3367 -234.375,-52.75 C 1337.3509,8570.8856 981.17084,8380.1757 1148,8448 1076.6793,8441.1182 902.09318,8417.101 962.875,8386.625 803.78991,8384.785 794.02599,8134.0316 797,8177 812.99293,8052.9294 976.23283,7916.3698 955.48438,7989.5938 1064.8478,7965.8662 1309.9608,7838.4002 1206,7872 c 51.2005,-55.8441 154.8489,-67.6367 134,-37 52.3815,-25.741 169.5959,-23.4757 148.625,-36.375 238.1566,41.9 19.9593,-5.84 131.375,-50.625 -11.3107,23.9248 59.0339,-21.3576 60,-3 46.9961,-28.2965 107.9922,-28.4942 124,-38 -6.6775,32.9059 196.2843,118.4535 176,-2 101.1706,-110.3126 -97.3493,-125.8571 187,-104 78.7008,-21.465 159.8359,132.0441 129,67 109.8587,-49.1292 174.7336,-89.5112 104,-13 90.3877,10.4137 -94.4982,-10.4524 -42,70 -94.5014,-19.1297 -164.2285,-83.4619 -116,-53 -71.9089,171.8859 -57.7048,133.9137 48,92 71.9256,-41.4219 263.1519,129.858 120,96 -13.9891,-25.5545 133.9573,-131.8148 81,-19 184.9447,156.7383 -46.0051,69.9191 9,124 -94.5834,-3.7973 -15.7357,37.1416 8,23 94.5481,-38.3301 -64.5975,-38.7293 20.4792,4.849 -14.1469,46.333 -110.9522,187.018 -73.4792,109.151 -23.5529,12.2626 -57.4606,152.2183 -74,36 49.6209,-31.8001 295.7439,40.8018 154,34 58.0295,56.6605 103.9269,44.6425 97.875,4.1562 51.9919,-68.4274 158.4924,-176.6705 120.25,-170.4062 142.2694,-209.7462 45.667,60.6347 80.875,-138.5 39.155,-41.6003 111.4432,-96.9842 127.625,-38.25 75.8735,-60.4271 121.0828,-142.5404 104.375,-122.625 63.0268,-67.5421 139.162,-70.5894 -0.125,-172.75 -17.6821,-68.4562 -7.5468,-265.5466 -23.875,-143.625 6.8518,-51.7165 60.2236,-196.8148 28,-140 62.9269,30.1757 -62.4184,-181.6017 -56,-172 38.246,-25.5037 -11.407,-158.9704 -23,-115 -18.1042,-45.3237 -115.7624,-169.4484 -74,-130 -24.0409,-109.1278 -5.6278,-84.9703 -30,-124 -65.2,-104.388 -85.4733,-233.3979 -51,-172 -36.8689,-22.1859 -44.6565,-147.0241 -47.875,-145 -29.5469,-5.116 -37.2191,-101.3631 -27.2812,-95.2969 C 2689.541,6157.6687 2747.7834,6143.9724 2716,6109 c -11.9166,-93.002 -9.7948,-265.8899 -21,-221 -22.4318,-81.3828 -39.4808,-181.8381 -35,-138 -54.3392,-87.4869 35.1371,-219.6539 -20,-220 -80.6402,-81.3827 -128.4885,-152.7105 -67.625,-183.625 -9.5558,-98.5433 -11.4048,-273.245 -13.375,-219.375 -55.3954,-5.4091 -74.4136,-176.877 -55.375,-141.375 2.8543,-42.4788 -51.2281,-180.3576 -28.625,-135.625 1.3564,-9.041 -21.7756,-132.2075 -23,-117 -16.6089,17.2513 -73.1574,-198.9438 -42.375,-180.75 -18.304,-110.927 -80.1023,-183.838 -42.851,-134.179 82.5959,-23.1367 39.8227,-129.6125 2.226,-105.071 -47.8537,2.2699 24.7735,-147.0635 3.875,-161.875 C 2324.3316,4050.0158 2361.7115,3811.0587 2353,3933 c 34.0525,-28.6056 -9.8966,-127.2543 4,-149 9.1279,-123.0244 -28.3048,-249.4482 -7,-185 -23.3,-124.6463 39.209,-344.6212 48,-265 -2.3412,-93.9175 58.9098,-75.1986 4,-144 -13.6503,-54.2842 33.9341,-191.6277 7.875,-130.375 -6.6901,-76.1695 0.065,-289.5217 31.125,-147.625 19.2521,-53.9785 49.7034,-160.0626 51,-157 -15.6422,-31.0715 20.0584,-124.9826 28,-110 -7.9722,-58.5544 -2.8009,-245.7923 0,-164 41.4166,-48.5684 76.0527,-251.0834 70,-222 62.9109,21.8611 53.195,-541.1713 51,-185 77.9654,-76.8038 72.9169,-333.1678 99,-235 -3.7927,-12.171 17.4009,-76.1437 24,-95 -24.5999,-40.6532 75.2927,-147.549 76,-139 -6.1493,-68.8991 141.7201,-222.0281 110,-168 110.6345,-35.3209 -37.1552,-43.7541 127.75,-85.25 22.8602,-42.4055 57.619,-76.8615 76.25,-25.75 -35.7618,-122.8328 152.8963,-40.5916 147,-59 2.0864,22.6642 9.8698,-96.1689 43,-49 66.5825,-4.0124 232.8148,-112.4002 120,-79 191.1447,-53.9138 58.4015,-224.06986 219,8 -54.8388,37.309 -194.821,180.2775 -158,148 -23.1349,3.0013 -84.8255,127.4437 -95,124 -82.6012,28.1655 -201.4961,92.461 -163.625,131.875 24.4387,58.5681 -33.6362,138.7592 -56.375,123.125 -44.155,2.4183 -193.6053,291.7146 -113.875,160.125 44.6931,-21.8863 -12.1385,63.8739 -15.125,95.875 -39.1627,85.3584 -178.2433,222.7253 -116,180 70.3899,103.812 -52.8237,53.4109 -29,213 -20.8829,90.9189 -34.77,82.7409 -22,131 -20.7954,14.7795 -42.9,131.724 -32,126 -33.0318,83.7868 -7.6672,209.8189 -9,187 -24.7925,3.8854 -40.3183,151.4959 -48.4472,133.4303 72.9376,-4.1985 70.5276,81.4484 11.4472,144.5697 2.3458,70.7496 -9.8526,257.4295 -9,185 18.6827,145.3666 -34.4555,214.8732 -12,182.125 62.6409,94.6066 60.1275,294.6794 40,187.875 -2.0695,101.1143 -5.5999,213.9929 11.375,162.75 -6.431,55.6821 13.5453,216.5905 23.625,158.25 56.5763,79.4283 15.9571,265.8344 35.125,224.25 53.1239,124.3318 38.0159,329.4295 29.875,213.75 30.259,71.1019 16.8679,63.7532 35,101 20.7653,104.4169 57.6203,236.9193 43,182.75 30.4095,90.982 118.4267,281.0469 63,195.25 84.4283,221.5474 -160.2208,-176.1304 55,166 38.2629,82.2678 105.2324,192.5932 64.125,161.125 -58.3809,62.8323 2.7059,92.2325 -20.125,103.875 117.9237,17.2584 143.6706,68.5732 150,14 6.1733,64.4017 -27.8637,112.7853 -5.125,114.375 71.2645,64.4709 185.3251,75.1855 0.375,69.75 98.4445,20.5451 211.2246,42.63 150.25,62.625 -237.7556,17.7239 1144.5428,-716.4676 -15.625,81.75 24.8215,54.9925 -60.2146,263.0017 -38.875,174.5 -59.4647,7.2709 -111.094,38.7875 -75,50 10.7673,45.0359 56.8229,240.108 8.875,174.875 13.6801,64.919 139.4336,404.8708 97.5,234.125 50.3763,86.1819 57.408,257.6597 74.875,210.5 26.946,18.5245 111.5454,190.9635 77.375,147.5 5.1784,59.7025 72.3712,283.8255 28.375,223 -10.4149,101.9452 25.8858,258.2096 44,178 57.9611,118.289 118.098,246.3284 80,146 0.4021,301.2712 204.1767,-281.9043 32.125,205.5 42.9092,102.2209 75.1735,263.3499 59.875,188.5 -19.3925,26.9653 -28.1309,212.5736 -8,161 25.4784,66.2133 32.4809,208.2771 11,202 -36.9342,86.611 -139.1194,157.8545 -119,167 -56.9648,37.823 -102.8861,144.6897 -69,105 -57.5047,26.2534 -151.8619,160.2908 -91.875,88.375 -53.842,47.4652 -132.4152,121.3039 -131.125,129.625 -36.9894,38.6738 -128.8329,156.8823 -106,112 -97.0491,60.828 -163.3668,198.0053 -117,117 -121.9208,47.6164 -280.5342,149.1855 -235,123 50.2297,23.6012 -268.1185,57.9178 -216.125,28.75 -38.4618,15.182 -200.9577,49.483 -165,11.625 z m -640,-957 c 64.5248,-118.5082 149.0616,-146.8205 131,-67 121.9608,72.8663 40.8316,71.2618 58,1 -88.8637,-14.4003 51.943,-97.5109 23,-71 -115.737,-1.6536 -279.0398,87.3104 -167,37 -90.5771,3.5702 -187.1126,82.0478 -30.25,60.25 -29.1754,-14.4117 -29.0294,86.8079 -14.75,39.75 z"
       id="path4" />
    <path
       d="m 7450,8445 c -58.8237,25.7295 -163.1761,-308.8565 -115,-159 -48.7613,-76.4607 -158.9484,-213.6615 -75,-206 -57.9434,-14.4756 -323.6174,-69.8025 -178,-50 -29.5296,-12.8349 -163.0615,-34.425 -115,-32 -124.1259,-54.0824 -283.9489,-250.3915 -207,-181 34.3964,42.7283 -52.9734,-144.5281 -42,-143 -12.3307,-81.2755 -72.7019,-303.6617 -41,-198 -33.9325,-56.5025 -177.3521,-180.2417 -113.25,-148.625 -33.4174,-103.5478 -322.0405,-443.6843 -168.5,-234.125 -26.1359,-34.845 -153.6824,-160.2631 -111.25,-136.25 -9.02,-69.8869 -97.7318,-172.9897 -89.875,-110 -86.5546,-77.2044 -124.0049,-135.3072 -141.125,-144 -61.398,-126.0716 -85.3665,-155.1627 -81,-140 -22.2728,-34.5218 -134.396,-149.0858 -94,-98 -37.3147,-100.3622 -137.178,-215.1655 -78,-145 -76.7835,-83.9345 -101.4792,-172.9879 -76,-116 -15.252,-19.4946 -75.6259,-142.4126 -68.5405,-133.7474 C 5577.5396,6069.6199 5532.5208,5970.2724 5555,5990 5509.0887,5954.0525 5377.331,5911.3674 5427.25,5923.375 5409.3654,5876.0272 5280.9073,5734.7896 5313,5784 c -40.9412,-31.9778 -245.5464,-237.7948 -191,-187 -24.1408,-37.018 -113.3554,-89.6009 -93,-64 -11.1199,-14.9689 -136.596,-85.2295 -108,-83 -83.7212,-51.1138 -272.3941,-170.0174 -181.75,-145.75 -15.7901,-35.872 -213.4078,-234.3679 -140.25,-153.25 -17.0596,-28.3911 -74.6493,-172.288 -68,-110 -51.2333,-7.5329 -142.4334,-112.5756 -94,-82 -64.9495,-75.2904 -109.6643,-253.851 -120.375,-165.375 C 4250.6868,4832.143 4108.003,4617.7791 4184,4683 c -30.922,-38.6376 -169.2952,-105.7193 -129,-92 -26.4899,-43.6678 -127.7358,-118.0847 -83,-102 -27.083,-75.7601 -140.1081,-181.5029 -126,-128 -91.1643,-46.3817 -145.8437,-233.3795 -115,-161 -87.1482,-1.8037 -178.6654,-219.4128 -181,-160 46.6998,-46.001 12.902,-166.6195 15,-104 -74.6682,-29.6406 -65.9457,-320.7693 -163,-254 -42.0383,-44.7876 314.315,-6.4347 223,-68 66.9062,11.2552 243.612,237.8623 235,191 104.2754,10.2247 222.7692,-175.0805 87,-162 26.2376,-27.8248 213.7408,69.396 126.375,24.5 -3.8691,49.3095 111.5955,0.6787 64.625,44.375 -10.9507,101.9738 197.5811,87.5377 71,82.125 23.8859,44.8565 150.5035,212.6954 113,151 15.2378,23.6598 64.4767,111.617 62,79 -12.0424,79.562 191.3529,316.2401 97,186 25.8543,2.0543 167.3975,189.5112 119,145 97.9559,72.2468 227.9487,217.9998 153,165 61.895,50.5202 48.0307,205.2941 116,71 -17.9476,-129.0618 -90.8285,-293.8111 -96,-215 -11.8624,-87.6313 6.8009,-223.4255 -3.25,-216.75 -28.941,-117.3735 18.9352,-253.2857 -18.25,-174.625 30.8384,-61.8616 -124.6517,-201.768 54.5,-196.625 59.7866,-45.0935 140.076,-147.9771 81,-163 -3.3622,-91.0635 72.926,-172.1947 71.25,-167 24.2942,-135.0099 136.1839,-457.1746 101.75,-328 48.9255,-58.4055 8.9046,-126.9591 60,-163 60.9694,-123.3416 190.336,-258.5114 163,-240 27.0791,-111.4629 150.5393,-305.9206 122,-217 78.5841,-80.9797 258.7913,-283.8302 167,-207 36.0084,-53.3456 69.1291,-61.1154 83.625,-88.875 83.5632,-48.5815 244.7933,-175.2214 168.375,-148.125 36.7149,-50.3567 173.8568,-153.8811 149,-136 89.3752,-61.9833 322.7176,-229.7752 206,-143 63.4981,-44.5134 284.0079,-181.9492 181.5,-116.75 119.2487,-62.8543 251.8624,-113.0025 203.5,-81.25 68.6265,-8.6409 264.2813,-83.7609 189,-75 64.8428,-46.4219 230.1151,-99.3802 208,-77 30.9437,-24.8733 260.2262,-29.0986 209,-52 80.9727,-74.3689 201.7348,-37.4171 226.125,-45.5 75.411,-35.8876 256.7051,-39.2128 203.875,-24.5 35.1228,-35.0659 270.428,4.9425 258,11 55.4132,-41.6031 361.0912,13.0049 254.875,-1.375 35.5148,-10.6779 205.6727,42.1752 187.125,38.375 79.6804,-12.8272 357.569,105.0891 250,70 36.0843,26.3428 265.7192,155.664 168,98 58.6616,26.4917 69.7529,0.037 108,62 25.7686,-2.9099 136.4848,80.6242 135,81 116.7712,107.7298 84.5261,56.7194 163,158 72.5673,72.1277 113.4164,208.6386 93,145 -6.9188,4.0728 -24.9337,102.0302 34.875,94.875 80.6433,65.415 172.2146,259.7075 133.125,187.125 15.2642,119.4909 5.9329,286.973 23,223 69.4503,1.7858 13.2802,207.5741 30,138 -8.3708,78.7017 -36.9905,269.2995 -42.375,245.5 -230.7279,228.7004 12.257,73.2999 -143.625,158.5 0.6472,61.2955 -120.4795,169.9649 -76,117 5.9925,7.6941 -139.7619,90.1249 -102,77 -54.5207,54.8516 -298.2733,219.6329 -212.8125,153.9844 23.82,-51.7845 -121.3495,24.0719 -75.1875,12.0156 -11.504,-56.3121 -134.6889,-119.8304 -155.75,-34.25 -79.0704,42.3247 -246.0153,-8.0115 -171.25,0.25 -10.395,42.0999 -159.8595,7.725 -133.125,-4.5 -96.0426,5.9346 -203.4783,55.9346 -136.875,-1.5 -34.5092,-71.7448 -126.7905,-51.8833 -135,-46 -86.102,14.8318 -256.1221,140.8637 -227,65 -117.0059,0.096 -294.4455,25.4426 -201,16 -77.1197,-6.6872 -255.0757,26.9577 -196,8 -23.1189,-16.2919 -235.3813,-6.5587 -202,-5 -89.3099,4.7669 -276.063,-27.4162 -199,-26 -58.5176,-58.5622 -140.057,40.7339 -159,-14 -105.3247,33.2564 -302.1623,-223.4494 -260,-122 -75.1697,-47.646 -105.9533,-5.4916 -89,-96 -36.0975,-26.6045 6.8171,-65.2085 79.25,-123.75 109.8073,-70.6798 237.6712,-163.5966 163.5,-126 80.7623,-53.7684 269.1209,-129.8511 179.25,-112.25 70.7909,-21.6676 115.7436,-111.4607 167,-69 -50.9031,-70.9872 172.9,-156.0948 153,-110 30.7948,-19.23 124.0736,-112.8723 142,-64 43.7118,17.1898 111.6993,24.2524 121.25,-20.875 -48.4184,-36.259 423.9303,-98.6338 195.75,-69.125 44.5015,8.7789 128.9925,75.311 72,58 -4.5022,178.982 66.3035,196.0263 54.375,102.5 13.3148,-35.8065 46.3048,28.0313 76.625,47.5 150.0621,-126.8395 -155.3011,-170.3091 -35,-112 -224.3587,11.2268 206.0373,-255.2415 37.428,-74.2248 -52.894,133.9177 78.2929,98.522 84.572,8.2248 9.1028,-50.309 -46.3676,28.1458 47,-9 -66.8889,38.4962 205.8353,174.0164 97,136 228.8451,66.1301 -84.5037,63.774 93.5,85.125 -1.125,32.6349 23.8468,-3.9203 74.25,34.25 131.8252,-50.5178 -11.8202,-139.4767 -45.75,-86.375 -28.1214,-63.0475 229.9279,-11.4985 150,25 -56.6357,86.5505 -40.2446,138.5378 52,56 113.0206,80.5596 82.4403,-86.476 120,75 84.1943,-49.0416 294.8218,-366.7452 139.5,-150.125 -32.6724,-26.5991 -44.6758,-283.4809 -13.5,-174.875 26.396,47.1303 -129.033,1.9954 -79.875,-56 -35.6752,-68.9014 -149.6163,-155.3156 -114.125,-110 -69.0896,-79.5436 -183.1048,-90.0205 -136,-59 -58.6964,-59.0773 -177.3996,-116.1635 -110,-80 -139.7917,-43.3558 -335.4336,-102.3928 -226,-86 -42.0177,4.9008 -157.1946,16.7425 -131.125,2 -3.244,-34.5541 -120.0713,-10.5809 -123.875,-22 -28.7882,-23.5749 -212.0239,3.2484 -165,1 -43.224,1.2723 -107.446,-73.1176 -94.125,-13.625 -106.8078,114.0893 -357.2011,174.8352 -215.875,77.625 -171.0919,45.1827 -209.8852,-67.2964 -84,-45 -10.0722,34.3894 -101.4784,16.1582 -107.1786,73.0717 -109.3777,103.0389 23.3305,-29.2491 -144.4464,70.4283 14.5633,-22.8033 -95.5866,55.9894 -61.375,59.5 -79.2429,58.9382 -233.7701,160.5895 -153.875,83.125 -61.7082,23.5626 -177.0079,159.4101 -135.125,84.875 -85.3897,6.4188 -332.4747,134.5194 -279.875,102.875 -36.5328,3.0669 -183.1993,137.5768 -131.125,84.125 -131.8909,-61.2508 -15.4604,132.1916 -78,2 -104.4712,172.4921 -243.5586,167.9411 -139,92 79.9073,34.6556 40.4175,94.7572 -48.125,88 -69.3926,22.7389 -266.8253,230.3152 -189.25,152.125 -69.0436,69.012 -206.7649,159.1803 -133.25,123.875 -38.4464,8.1285 -169.177,236.5607 -115.375,196 9.4017,-9.7947 -121.6915,130.681 -54,100 72.8161,13.0423 63.6752,72.8721 3.125,100.125 -46.0152,96.2173 -82.6348,242.5317 -35.125,144.5 -14.081,44.5809 -4.9082,123.3548 -5.625,84 -24.5497,41.2104 36.3283,292.0952 0.75,170.25 -52.6372,27.0116 -71.5399,256.0254 -32.125,194.125 -65.2023,37.0456 -109.9541,339.1239 -124,202 -47.7559,-26.4599 -55.9574,159.469 -50.125,114.25 -24.356,-0.6097 -127.2627,204.3391 -49.875,162.75 -37.7664,21.0998 -214.2925,211.9331 -103,171 -90.5084,-8.7899 -109.8511,-57.7475 -105,-60 -132.6614,-49.848 35.5828,165.7423 13,139 162.4383,91.1275 -43.7002,25.1912 245,180 99.2465,53.736 307.0359,192.7457 206,119 32.2886,17.9202 112.478,50.1731 95,43 48.9806,34.4465 226.6055,98.3354 161.625,80.25 14.8162,30.6339 151.7376,110.6906 106.375,78.75 85.0657,39.8691 206.9388,113.3983 168,94 150.5584,71.3785 230.8156,183.2548 171,122 91.3401,5.5057 147.7416,206.8491 120,114 192.7646,0.527 287.654,116.0324 165,74 72.8628,69.8151 221.0132,135.1918 144,117 -0.3542,38.9102 166.3732,108.3171 105,85 126.2776,131.4148 -20.2338,10.5097 134.625,120.125 -46.8664,17.3912 66.5776,173.2304 80.375,118.875 40.61,16.2109 135.0214,165.5551 116,123 47.0943,9.7473 176.3094,245.6265 141.25,167.5 26.1497,34.2193 133.7234,143.2054 86.1875,100.4688 7.0356,66.6811 58.8379,365.8575 59.5625,219.0312 -5.2739,87.3255 93.8722,266.9537 36,231 33.2692,60.9004 202.7819,358.2941 165,247.625 73.0312,33.4543 168.2632,227.5896 84,148.375 22.964,33.5399 35.1077,232.3815 36,133 57.2709,48.4925 17.2535,145.2653 19,132 52.8381,-76.7099 -29.5565,58.0121 -6,50 60.1749,26.8165 54.289,95.9649 45,96 38.8986,51.3666 43.2071,159.7375 49,161 21.8367,47.6624 -12.7827,177.7 -15,158 -7.0361,115.3764 -16.1589,228.3677 -12,193 -102.2202,-19.4791 -220.3263,78.2942 -158.375,125.5 -15.397,6.7059 -101.7613,42.7537 -85.625,20.5 z"
       id="path6" />
    <path
       d="m 2429,7833 c -49.3552,-37.198 -240.0093,-109.6351 -199,-103 142.8604,-86.0777 237.7383,-70.2304 170.375,24.875 40.0463,96.822 165.1573,-87.7574 115.875,0.6562 51.8102,67.1843 -10.2861,-106.0992 8.25,-53.4062 -148.5313,-73.315 44.1305,-97.1361 75.875,-82.625 59.9542,26.4011 74.5543,148.8874 60.625,126.5 172.0897,28.3085 -125.4727,15.9685 -85,49 83.3275,95.8331 -88.9321,15.5785 -147,38 z"
       id="path8" />
    <path
       d="m 8139,2571 c -151.6353,-100.7532 -97.9634,-186.8655 -63,-94 87.5527,34.7153 208.1381,68.0972 110.4375,43.1875 -81.8417,34.9304 83.7429,-47.2775 71.6875,2.1875 -140.4416,-14.6241 72.0196,106.4415 21.875,24.625 9.9495,61.7064 -109.5436,2.632 -141,24 z"
       id="path10" />
  </g>
</svg>
