<?xml version="1.0" encoding="UTF-8" standalone="no"?>
<svg
   version="1.0"
   width="1024.000000pt"
   height="1024.000000pt"
   viewBox="0 0 1024.000000 1024.000000"
   preserveAspectRatio="xMidYMid meet"
   id="svg8"
   sodipodi:docname="L.svg"
   xmlns:inkscape="http://www.inkscape.org/namespaces/inkscape"
   xmlns:sodipodi="http://sodipodi.sourceforge.net/DTD/sodipodi-0.dtd"
   xmlns="http://www.w3.org/2000/svg"
   xmlns:svg="http://www.w3.org/2000/svg">
  <defs
     id="defs12" />
  <sodipodi:namedview
     id="namedview10"
     pagecolor="#ffffff"
     bordercolor="#666666"
     borderopacity="1.0"
     inkscape:pageshadow="2"
     inkscape:pageopacity="0.0"
     inkscape:pagecheckerboard="0"
     inkscape:document-units="pt" />
  <metadata
     id="metadata2">
Created by potrace 1.16, written by Peter Selinger 2001-2019
</metadata>
  <g
     transform="translate(0.000000,1024.000000) scale(0.100000,-0.100000)"
     fill="#000000"
     stroke="none"
     id="g6">
    <path
       d="m 5472,9160 c -41.9935,-29.7984 -105.438,-21.7406 -72,-61 -140.2207,11.123 -173.184,-65.1106 -64,-95 -78.8719,282.4648 -144.9803,170.1522 -95.625,95.125 32.6761,30.8048 -102.4929,-67.5027 -106.125,-32.125 -98.996,-22.6175 -203.2177,-85.0193 -135.25,-51 -54.524,-7.1182 -229.6362,-143.8884 -200,-111 -108.3708,-35.2458 -275.6063,-372.9788 -219,-289 -76.6202,-100.5738 -164.3505,-255.4731 -150.875,-223.625 C 4384.8073,8341.2659 4301.8634,8136.7582 4308,8204 4236.0789,8140.902 4161.6602,7981.2962 4170,8010.25 4095.5699,7973.8041 4002.7189,7773.6637 4033.875,7793.875 3996.6911,7697.2487 3913.657,7518.8373 3934,7593 c -64.1514,-67.6764 -153.4742,-333.5835 -117,-259 -25.9868,-38.7726 -111.4598,-262.0217 -71.25,-160.375 -61.3061,-78.4191 -70.2744,-192.8308 -61.125,-159.5 C 3632.3599,6923.1635 3581.0503,6708.954 3602,6747 c -12.5871,-91.0121 -99.0884,-449.1782 -58.75,-301 -3.2615,-31.3812 -70.7215,-366.9922 -35.25,-226 9.2314,-61.4854 45.2939,-342.104 -10,-256 12.6707,-100.6236 25.3319,-386.8057 12,-284 -3.339,-127.8094 52.7754,-221.459 37,-194 -11.37,-100.4429 1.4757,-204.9203 6,-181 46.7721,-74.9362 71.5996,-194.1149 26.625,-187.375 -45.9611,-65.4552 -50.8403,-282.8673 -9.625,-207.625 -23.9994,-102.6019 29.0027,-289.5245 34,-197 19.974,-18.4036 31.9517,-266.3235 31.125,-169.25 -22.6512,-7.6914 -52.8844,-159.354 -20.125,-153.75 1.1634,-33.6687 -40.2505,-145.1057 -0.875,-152 15.1208,-159.8028 106.0577,-326.4322 45.25,-276.875 -48.2493,-14.3615 -31.8107,-293.8811 1.625,-216.125 13.2089,-56.3097 21.0999,-232.4953 13,-196 6.0489,-39.0067 50.1122,-310.4977 36,-244 24.8731,-66.2647 18.7173,-201.8034 13.5,-140.8594 -71.5261,-52.2437 -127.4165,-208.9538 -68.5,-144.1406 -33.9895,-104.7685 26.5461,-252.5501 14.375,-178.125 0.3459,-90.8851 -160.6441,-174.1038 -87.5,-130 33.2879,-37.2446 -208.6162,-84.2232 -139.9561,-64.2561 C 3402.267,2589.5123 3228.723,2503.0272 3287.625,2582.5 3247.3552,2475.8284 3069.0328,2233.7442 3090,2365 c -24.4898,-56.3689 -125.0333,-32.1762 -89,-37 -89.9907,48.5407 21.8272,14.7596 -139,51 -63.7268,95.5914 76.7934,28.9753 46.875,88.625 75.4842,-49.7717 131.7407,7.7385 60.75,20.875 -26.1344,71.1482 -81.4597,199.0508 -31.625,147.5 -105.0498,19.3635 432.2455,203.0783 72,52 80.2788,68.8754 68.5477,251.3412 52,189 -4.5285,108.939 -238.4224,23.9508 -196,30 -27.6747,47.9909 -163.0276,91.7771 -157,46 77.5191,71.1769 -636.5882,213.1659 -169,90 -62.0843,-43.6259 -148.6885,25.6968 -170,-22 -109.7193,4.0593 -212.3439,-8.9686 -180,-9 -188.2788,-21.7474 -348.4651,-26.7077 -310,-22 -55.9497,3.0648 -225.3203,-11.092 -180.75,-20 -107.9791,-41.9802 -401.5602,-169.4213 -325.25,-130 -71.4368,-37.5193 -71.9738,-163.6988 -144.5,-157.875 -21.5753,-108.4889 44.6642,-218.6193 48.5,-153.125 141.6981,-24.3202 189.5702,-106.8842 160.875,-85.75 50.6103,-116.1123 236.3835,-183.0932 141.125,-123.25 46.2043,-43.3118 218.1389,-75.103 128.125,-38.375 101.2737,-165.6149 164.4289,-152.1583 96.375,-61 -1.2361,-27.6848 177.7535,-143.7898 105.5,-100.625 113.0928,-56.1643 274.5002,-65.0675 166,-58 -4.7776,-63.4664 151.8956,-93.2394 161,-36 87.6145,23.1624 179.2648,24.374 129,9 4.5605,18.4067 123.183,19.6587 122,-23 116.7527,-46.3778 256.6158,-118.2783 209,-125 46.6834,-39.5255 75.309,-172.927 97,-111 73.3909,-83.8131 186.5429,-166.0485 216.25,-116.25 68.6983,71.2468 158.2146,25.5535 98.75,24.25 25.396,-21.8689 150.8021,0.8753 150,9 28.7639,0.432 278.2745,100.18 225.6754,89.0572 110.0675,28.7174 179.6612,79.6395 194.0746,87.6928 0.3186,3.529 118.7944,84.8362 93.25,41.25 60.4791,62.5653 288.8855,150.9547 177,94 50.0485,123.8022 76.4952,52.1832 106.75,81.875 -49.184,14.5648 38.2815,-39.2615 52.25,11.125 -44.6675,-63.3603 -73.8142,-175.2573 -95.875,-167.125 C 3944.6755,1859.6943 3826.0241,1674.2473 3907,1761 c -19.8878,-93.0109 -250.0156,-231.6466 -190.75,-197.25 -44.8113,-90.9957 -62.0193,-128.2021 -55.375,-128.375 38.713,-77.662 202.8478,-247.6042 106.5,-249.75 24.2361,55.8474 109.9589,-121.657 137.625,-76.625 3.3756,-117.28655 189.3063,-152.3167 84,-123 22.8768,95.8657 167.1708,291.2673 114.875,212.625 67.1839,54.7831 73.6686,229.2273 63.125,155.375 45.8203,148.5894 -19.3462,-88.0576 77,213 25.9082,-8.1178 160.9117,213.3044 106,178 54.7075,43.4853 73.2407,144.1372 108,139 24.9278,17.8801 103.954,87.0825 78,81 35.4309,39.3299 175.0432,163.7923 163,145 25.2803,-4.3532 228.5122,99.0962 156,71 28.4247,-5.2793 141.4699,-14.5931 126,29 80.641,16.2053 272.5668,42.9331 213,44 49.3176,-5.8878 184.8617,39.7862 151,-3 23.3991,-2.0116 272.036,-25.6978 189,-27 53.7376,-45.3613 192.9065,-88.2545 139,-64 -48.4246,53.9196 138.9862,-48.0282 133,-59 118.107,-61.0735 204.8829,-14.5913 166.25,-21.5 67.2705,-24.1715 196.3362,-29.9273 141.75,-24.5 -40.0807,-12.5368 512.2352,-77.352 184,-53 45.007,-11.6658 208.3629,-49.9276 194,-40 -12.7418,-51.4037 139.9101,15.6305 112.625,2.5 -8.7429,67.3086 481.5176,-180.3201 207.375,-42.5 71.6639,-22.5431 221.4913,-52.2339 168,-22 59.1586,10.6845 225.129,17.7619 147,-1 66.8081,-18.5795 365.5486,-55.316 314,-46 19.3235,21.1459 269.9527,-10.0501 196,5 97.5796,7.0478 288.7509,34.8817 219,16 20.878,-2.1249 165.7157,10.5551 175,46 39.1976,28.1972 87.6161,25.0104 103,51 58.3772,13.74 216.8182,126.169 153.5,93 105.9426,33.9319 254.7754,221.7216 208.5,172 72.5557,59.1688 90.2106,194.6408 107,169 55.5415,47.5887 132.5343,321.7153 85.25,222.875 -11.2497,31.7929 4.3191,189.1896 4.75,173.125 -53.4775,141.6664 -60.9808,490.6921 -142.75,314.25 -27.8825,60.589 -168.8067,205.9842 -143.25,176.75 -42.0807,27.355 -189.5299,131.1429 -137,110 -89.9483,26.7946 -127.6476,85.9782 -129.9697,101.7027 -80.6159,80.8399 -304.3347,71.858 -215.0303,56.2973 -83.966,-34.7636 -251.7875,61.6056 -185,35 -84.6415,136.5979 -236.2532,111.6552 -191,115 -96.6157,19.5944 -198.4538,137.7776 -181.5,107.625 -74.9808,141.965 -285.8696,258.637 -241.5,173.375 -74.3731,19.2953 -220.5128,12.9841 -171,12 -170.1782,113.378 -128.1617,-337.8621 -186,-226 15.5509,-55.8519 133.0828,-281.1816 80.5,-221.125 -39.2699,-54.9052 72.3611,-181.8793 57.5,-125.875 64.062,-92.727 205.4127,-282.3805 91.125,-138.125 61.58,-19.3802 115.7894,-140.512 130.25,-110.5 8.9366,-48.165 206.6582,-112.3552 129.625,-73.25 -4.9108,68.7545 160.7296,93.1552 112.125,2 20.9108,-65.4202 199.0084,-112.7205 133.875,-49.125 36.9956,-101.8758 95.6513,17.1105 91,-7 42.2875,1.0371 151.0286,87.0005 54,84 -45.3795,-101.9144 79.8154,-3.5549 36,-28 54.7605,19.507 188.154,-72.8392 172,-47 -89.7526,61.9145 461.5956,-437.7876 130.625,-172.75 61.4157,-98.612 181.3442,17.1553 124.875,-17.375 53.6118,42.2473 -16.0799,-143.5232 18.625,-91 54.9556,-32.9126 -47.9755,-292.7951 -5.125,-139.875 -59.1317,-23.7429 -206.2858,-142.5493 -146,-17 -51.1224,-30.8082 -170.6392,-92.0239 -111,-83 2.2333,-37.7231 -247.5335,-29.6213 -132,-24 -64.399,19.2311 -220.1676,-29.9354 -191,-21 -114.0248,-32.7354 -305.0372,8.1878 -208.6406,17.2812 -40.4668,14.0689 -162.2398,82.3406 -112.3594,24.7188 -61.0111,-31.9302 -214.7756,14.634 -160,20 -99.1802,1.0822 -306.34,-64.0774 -221,-23 -60.2792,22.6224 -140.7789,-37.39 -132,-22 -95.2344,-30.5253 -230.1255,100.9618 -172,66 -18.0081,84.8362 -209.599,81.3875 -164,76 -31.1118,12.8436 -131.714,50.8139 -102.125,7.625 -94.0305,78.7903 -267.225,156.661 -208.875,83.375 -50.8526,-50.9595 -225.6881,65.7765 -149.375,-1.125 -11.0396,-5.392 -237.8709,126.5755 -185.625,119.125 -28.0702,-20.597 10.3726,-125.1485 -40.25,-93.375 -98.9966,152.8853 -267.3868,34.7892 -227.5,52.125 -15.7923,30.5557 -152.407,-63.7481 -120.25,-51.875 1.8066,15.7163 -183.851,-42.5943 -244,-32.875 -55.235,65.685 -223.7496,8.7388 -152,18 -47.3653,-85.4937 -221.8074,7.1968 -127,-101 -16.814,26.256 -144.2751,-89.8935 -103,-51 -130.285,-61.3919 -7.2279,93.137 -147.25,-84.375 -8.8708,5.8234 -127.9552,-71.0922 -124.75,-78.625 -61.1925,-24.4557 -138.0347,1.3212 -105,-43 53.3668,105.2166 138.2484,366.3934 96,261 10.6552,126.0691 84.5408,330.8903 64.5,313.5 -60.2425,70.2399 -100.9451,181.6762 -37.25,133.625 36.3842,37.5292 -35.6211,290.7684 -16.25,205.875 6.2357,51.4321 -9.6259,288.2561 -13,247 15.1633,72.6652 -22.1419,197.2822 -11,173 -2.8049,171.7284 -66.9065,-13.6639 -43,231 -43.5657,100.4124 -105.691,335.6748 -66.375,244.25 0.9603,35.4521 -38.9461,187.0589 -25.625,160.75 -84.0108,23.8551 43.7051,264.7629 -9,169.125 -36.5792,68.9995 -29.1957,442.1215 71,331.875 -70.1702,71.2859 20.2337,252.3938 7,195 67.8161,108.2591 -88.1514,64.8384 -62,61 -226.636,-36.6369 -133.5972,370.8045 -42.625,286.125 32.222,107.3402 44.6004,194.8445 4.625,169.875 -27.6902,86.4547 -72.3397,185.737 -44,139.875 16.2216,116.646 0.9183,339.526 1.125,250.25 41.8577,-0.8434 -70.5805,305.827 -6.125,177.875 18.8331,82.5111 33.3358,99.2612 2,125 25.5813,-0.5221 -18.0997,277.5704 15,224 26.1619,34.817 30.6014,191.4314 24.625,188.375 -32.3911,52.6062 -20.4385,180.9062 -8.625,132.625 14.2775,72.9552 52.5715,349.773 45,215 28.7317,102.6491 86.847,281.9318 58,231 14.526,73.0998 78.8998,298.1117 57,184 25.3057,75.1254 132.4419,249.8343 104,212 43.8558,69.4792 113.5165,142.9567 72,117 29.0576,176.1933 101.9804,242.4085 78,159 53.7423,62.741 200.26,218.0812 129,153 15.2128,61.9582 69.0307,186.9998 75,119 18.2363,14.722 113.4504,12.1671 88,82 121.0047,42.9254 146.312,106.876 116,86 53.7569,108.4331 75.9721,83.5039 32,141 102.5359,3.0465 67.339,138.001 156.125,149.5 128.6263,61.8921 46.1157,51.366 138.875,101.5 34.1183,35.0709 212.2198,149.7293 162.625,131.875 68.6242,78.966 280.7604,207.4415 176.375,143.125 98.9247,73.4461 -220.2024,110.6747 -135.625,94 -59.8859,-79.6422 -51.6909,12.294 -120.375,21 z m -221,-127 c 91.6688,-118.8642 -13.3385,-36.7886 12,-103 -69.9375,33.6935 -96.3327,82.4013 -111.375,-37.625 68.1451,92.7231 33.2293,142.382 -42.625,66.625 64.8673,10.316 77.9116,21.203 101,41 7.1797,35.4787 33.0483,27.3773 41,33 z m -184,-237 c 84.0886,39.8532 33.5126,-81.5078 11,-63 -130.424,-182.0877 -85.2503,-101.804 -143,-133 123.4886,94.334 166.3329,184.5636 69.625,149.125 -24.2145,-24.1834 90.4433,19.647 45.375,63.875 z"
       id="path4" />
  </g>
</svg>
