<?xml version="1.0" encoding="UTF-8" standalone="no"?>
<svg
   version="1.0"
   width="1024.000000pt"
   height="1024.000000pt"
   viewBox="0 0 1024.000000 1024.000000"
   preserveAspectRatio="xMidYMid meet"
   id="svg8"
   sodipodi:docname="l.svg"
   xmlns:inkscape="http://www.inkscape.org/namespaces/inkscape"
   xmlns:sodipodi="http://sodipodi.sourceforge.net/DTD/sodipodi-0.dtd"
   xmlns="http://www.w3.org/2000/svg"
   xmlns:svg="http://www.w3.org/2000/svg">
  <defs
     id="defs12" />
  <sodipodi:namedview
     id="namedview10"
     pagecolor="#ffffff"
     bordercolor="#666666"
     borderopacity="1.0"
     inkscape:pageshadow="2"
     inkscape:pageopacity="0.0"
     inkscape:pagecheckerboard="0"
     inkscape:document-units="pt" />
  <metadata
     id="metadata2">
Created by potrace 1.16, written by Peter Selinger 2001-2019
</metadata>
  <g
     transform="translate(0.000000,1024.000000) scale(0.100000,-0.100000)"
     fill="#000000"
     stroke="none"
     id="g6">
    <path
       d="m 2315,10024 c 30.879,-14.368 -16.4428,-141.5501 -79,-114 -50.0493,-74.8865 -117.3311,-110.8667 -38,-106 7.9085,-140.1481 270.41,-368.393 113,-191 29.7453,-48.2073 150.6644,-151.6401 125,-140 114.3584,-108.7872 112.2908,-184.2204 94,-163 61.3181,-76.5105 96.0483,-223.2259 92,-134 141.6248,-48.9491 98.4498,114.755 119,-86 -49.031,18.4571 130.5817,-169.2122 12.125,-77.5 -7.8262,-36.9413 25.4136,-134.924 69.875,-119.5 68.1168,-47.8763 173.4462,-190.7835 102.875,-149.125 -20.4264,-28.0257 146.9552,-190.3591 119.75,-145.25 -15.5392,-2.4047 62.031,-103.9264 52.375,-92.625 62.5715,-60.6328 191.147,-300.0147 123.375,-220 -22.2126,-47.0181 68.1451,-271.3345 75.625,-186 46.974,-75.4036 75.955,-127.5885 89,-135.875 -14.9607,-70.1724 56.9613,-271.665 69,-204.125 53.0591,-42.5338 159.5305,-285.1965 114.75,-241.625 -11.8721,-86.2814 91.1382,-352.891 69.25,-248.375 29.5145,-92.3588 85.6943,-302.8631 53.75,-221 0.768,-43.8493 104.9891,-309.6172 67.25,-218 -7.0101,-66.9997 51.3514,-524.9743 25,-338 -21.0173,-131.3565 23.0301,-480.0856 30,-324 53.9481,-82.985 -12.475,-329.3436 42.375,-285.25 -7.4659,-97.7908 39.5895,-482.5942 19,-371.25 8.2858,-211.8463 -2.2862,-393.2522 -0.375,-342.5 49.0488,-104.9317 -57.3797,-303.4576 -26,-255 -13.7683,-57.9735 -21.222,-330.9556 -27.875,-237.75 2.1127,-98.5464 14.2063,-283.954 11.875,-246.25 -3.185,-25.592 14.7839,-266.9925 15,-198 22.1127,-84.6979 34.2243,-288.0423 51.5,-270.5 33.5044,-69.2341 -61.0492,-312.511 -74.25,-283.375 -28.5098,-122.3148 -81.1533,-310.2666 -65.25,-229.125 -52.7286,-203.5762 -132.3496,-381.0827 -108,-335 2.0814,-63.7719 -53.2776,-223.8313 -36,-165 -24.4581,-151.1664 -119.7566,-442.195 -68.75,-318.125 -49.2713,-263.5452 -21.6654,-201.4763 -72.25,-377.875 8.1207,-138.3371 65.7709,-535.5404 34.125,-363.25 -18.4859,-137.3857 57.0021,-321.9701 57.875,-296.75 59.6704,-89.1941 113.8883,-202.6601 89,-160 51.5578,-57.558 203.9781,-180.9987 140,-140 9.7473,-43.3471 197.5876,-212.0923 118,-129 74.0372,-79.7904 206.8478,-214.69596 183,-181 73.6569,-67.30519 213.7054,-125.87578 156.625,-88.75 5.5422,-30.20037 115.3314,-86.59568 163.375,-95.25 -21.6419,-14.45277 87.3044,-42.33821 116.875,-55.875 68.2264,-57.50536 157.1897,-55.57248 118.125,-38.125 190.4005,59.3332 -95.9659,-289.16835 130,-3 2.3478,-132.55633 69.0182,-180.33526 77.625,-91.5 73.1597,51.20332 168.2671,61.83817 114.375,15.5 7.1249,5.17194 31.8793,50.26909 95,-3 -18.212,32.41615 68.3054,58.94358 90,21 84.7381,-90.84823 244.5198,-73.80343 232.375,20.125 4.642,-58.22847 249.9494,-31.17777 180.75,-8.75 28.3599,117.50009 196.5976,193.06323 159.875,102.625 62.7456,-33.48138 184.1096,-31.06521 116,9 32.3513,69.43429 139.6815,32.5624 125,50 -29.5803,135.7151 154.6872,-75.33221 84,56 56.1663,32.27918 114.6277,-26.70422 122.375,-10.25 38.486,70.52454 95.6764,76.95744 127.875,27.5 -18.0241,101.79187 72.8328,-0.19932 46.75,30.75 -26.6143,54.50502 62.9243,-85.99805 95,-1 -134.699,-0.55422 73.0694,-33.24744 101,50 75.8833,-113.93093 117.6651,-31.57922 36,21 40.0662,-83.78057 -14.3537,71.2622 51,74 89.3482,5.8261 214.7395,74.4382 112,15 126.1459,-34.2709 141.7574,-130.81338 120,-67 -159.0606,-32.7111 142.7079,-26.08628 96.375,-37.75 68.9581,24.7371 125.841,142.5126 79.625,76.75 65.4384,-5.4638 51.1927,85.7092 48.25,41.625 74.2703,-40.1138 77.4998,45.943 67.25,40.375 99.0276,-50.1676 251.0565,103.8682 146.25,75.875 -74.1863,-49.2365 -49.3222,90.6728 7.25,41.125 48.6978,88.2673 11.5504,355.8861 18,227 -64.2558,101.4428 -212.8131,204.8924 -159,153 -33.7492,-5.0661 -117.9729,78.6651 -84,65 -12.6199,-27.645 -144.665,34.5899 -127,61 -64.5395,16.6021 -193.0083,73.183 -138,63 -73.2052,15.2341 -274.4753,90.828 -196,69 -61.1539,15.2623 -161.4219,34.483 -105,47 -29.8761,-18.8498 -237.4535,197.0693 -131,41 -45.5629,-65.1784 -118.7857,-155.0338 -78,-28 -61.652,80.1995 -156.4567,33.2372 -118.375,33.875 -12.8255,66.6371 -356.7347,102.6909 -255.625,89.125 22.6695,20.2285 -162.0081,28.7707 -129,37 -26.5097,-19.4941 -149.0282,-125.8818 -145,-48 -122.5254,-3.4007 -146.1525,64.2797 -34,65 -51.3639,73.9808 -23.9866,-175.5279 -26.875,-79.625 9.6722,-102.1152 -43.2391,40.4993 -47.125,-79.375 -68.8575,31.7426 -22.7056,104.1503 -35,103 30.6042,130.6063 -150.5705,148.4724 -109.875,53.25 -31.1883,-38.6808 -64.0491,-137.9399 -56.125,-107.25 2.6027,-63.965 239.8718,-171.2437 128.75,-94.25 -89.3926,-62.3901 -176.587,22.0316 -84.75,20.25 -101.7759,19.373 65.2835,-63.5306 7.75,-59.875 73.2143,-94.5729 105.9792,108.7172 95.25,44.875 -35.1328,107.1898 -20.5123,-8.021 71.125,-48.25 -33.2826,-55.8619 -109.4702,-105.6 -62.125,-66.75 -90.8315,82.5105 7.3722,-152.0248 -51,-87 -68.9967,-95.9616 21.1281,58.0147 -37,63 -103.8505,111.7184 -34.4751,-135.6302 -41,-87 74.5186,-81.4162 49.2686,-312.1007 45.25,-182.25 -114.4522,-93.565 7.6699,161.2271 -62.25,35.25 -85.6408,90.7751 -139.1286,39.6393 -108,-33 -249.5952,-87.327 322.757,209.4677 -17,66 -32.4992,77.783 -140.3563,223.8411 -95,91.125 -60.8042,7.2252 -251.4304,218.0907 -182,130.875 -78.7527,80.1507 -202.2716,29.0595 -141,24 -14.6316,21.5766 -133.8639,129.3812 -84,101 -74.9609,-25.1217 -201.0784,167.9297 -171,130 -14.8216,52.3772 22.2458,226.0954 25,169 38.3662,51.4422 -83.1707,204.2031 -65,214 39.1813,109.7008 53.2953,171.518 0,142 15.029,78.6338 54.5524,345.1503 64.875,250.5 17.2871,160.8312 6.3472,302.9507 12.125,255.5 22.2976,49.2041 82.9268,277.4228 57,191 10.8145,47.2997 25.3849,198.1644 34,146 32.3434,75.2163 24.853,443.6834 37,327 6.5556,71.7542 -2.7902,283.2439 14,213 -34.945,58.9938 32.5669,335.8888 11,312 -21.8893,50.6228 14.5561,186.5303 30,156 -14.2016,21.0105 -52.1091,119.4792 8,125 -2.562,100.2605 -37.1357,384.0915 1,252 -11.4234,91.1514 -64.3198,271.3613 -54,224 19.6917,61.5768 3.9562,207.5343 3,129 9.2016,103.115 -18.8735,308.6282 -4,204.5 19.8545,32.702 -17.5546,201.4423 -13,171.5 -4.1071,108.7908 47.4303,239.0289 -2.75,120.25 -32.8122,65.141 -83.6705,310.2353 -46.25,182.75 32.6891,317.4767 -87.6966,-493.5994 -19,243 -16.5935,13.802 58.1133,215.0669 -17.875,152.125 -121.8986,-17.7868 -126.4686,172.7996 -48.125,105.875 3.5955,108.0808 -38.4599,200.2514 -41,134 22.0311,-0.9706 -28.1053,166.5679 -14,131 -27.926,86.8162 -54.4405,269.9332 -57.875,208.375 -64.9215,-6.1335 -74.9951,203.378 -38.125,128.625 -33.4817,-17.0087 18.8164,268.8849 -28,156.125 -48.8868,69.925 -72.5195,-15.8214 -46,76.875 25.0649,60.6436 -59.646,182.027 -64,132 -49.4093,87.6036 -125.9372,225.2535 -113,205 -37.9633,15.7641 -63.486,208.5865 -45,177 -30.5506,56.9461 -160.9303,345.8827 -108,173 -49.7862,48.4435 -122.3585,213.4194 -67,136 -45.9326,123.8087 -57.6724,49.1829 -89.0625,201.5469 -73.7494,90.8323 -31.8186,-15.6266 -47.9375,103.4531 -44.9969,74.6796 41.9987,101.5285 -79.875,156.625 -16.2802,67.5145 -28.4277,25.4674 -88.125,81.625 83.6872,-200.0632 -58.2773,-29.9979 -25,-71.25 -11.8863,-32.8084 -1.1822,194.3414 -35,165 -116.5139,19.0271 46.9278,175.9664 -150.0523,125.2267 112.4014,77.5007 -63.2971,-6.7239 7.0523,123.7733 -117.0313,105.5023 -149.1219,62.5036 -113,53 97.0706,8.3846 -14.3021,-3.2621 -22.25,114 -46.1495,98.287 -32.8181,-26.1053 -35.75,104 -121.6349,123.1006 105.5523,-159.2934 -87,27 58.5706,-106.4979 -54.7992,62.0989 -75,-31 133.2958,-112.6941 80.7722,-128.0015 28.5,-5.125 -146.7834,106.0453 -151.6655,167.2272 -20.5,110.25 -79.9847,66.0777 56.4285,-43.8726 71.5,-32 -7.8737,121.2877 -136.4785,63.7583 -145.5,69.875 -36.2475,-205.388 -278.8515,70.8852 -96.375,102.375 31.9231,77.1406 5.9647,119.5185 -71.625,112.625 -108.0787,69.6253 31.2015,-115.8429 -40,-55 62.484,-40.1248 70.1038,-208.6374 71.375,-84 100.1733,-38.7721 143.74,-105.9531 16.375,-63.75 8.6921,-94.2882 -147.3011,-69.3838 22.125,-115.25 -34.1089,-87.559 -32.6438,132.4579 10.125,3 -57.7666,86.6862 -9.742,10.3814 12,95 27.0589,-80.1391 17.8364,-179.1025 21.5,-165.125 120.9196,-35.2623 -10.3464,-60.2553 -26.5,-88.875 -23.9568,85.5946 -117.5826,186.9438 -87,69 13.1836,-90.9205 -74.5059,-139.0235 -73,-10 -66.178,-39.6037 27.0775,187.9831 -35,129 103.6922,93.068 206.3816,82.3715 154,-58 -95.1754,2.2017 -41.8222,148.8531 -86,139 -52.2479,49.4171 -160.4414,131.017 -0.875,125 -161.5573,26.8381 145.4126,-62.039 -76.125,-63 -73.296,113.0374 -361.2544,268.0234 -190.125,171.75 82.6913,-21.3977 -17.4715,84.5878 80.875,-19.875 60.5623,88.3112 134.3942,19.4751 110.25,-3.875 -76.0405,113.89 128.3212,-5.0419 24,40 -112.2571,111.0948 -330.1551,268.5503 -218,183 -27.4435,45.6527 -182.3524,175.2578 -143,126 -135.4242,12.4712 54.9963,43.3937 -110,109 60.9054,37.166 -103.0099,98.322 -22,41 z M 6605,1491 c 104.4929,-132.7915 144.0619,295.0598 141,-61 32.6997,-109.0918 -35.7607,-20.1197 -53.875,-108.125 -11.2877,40.8171 -184.0863,120.5755 -119.125,112.125 -27.7799,46.4674 -87.2424,-29.8724 32,57 z"
       id="path4" />
  </g>
</svg>
