<?xml version="1.0" encoding="UTF-8" standalone="no"?>
<svg
   version="1.0"
   width="1024.000000pt"
   height="1024.000000pt"
   viewBox="0 0 1024.000000 1024.000000"
   preserveAspectRatio="xMidYMid meet"
   id="svg12"
   sodipodi:docname="M.svg"
   xmlns:inkscape="http://www.inkscape.org/namespaces/inkscape"
   xmlns:sodipodi="http://sodipodi.sourceforge.net/DTD/sodipodi-0.dtd"
   xmlns="http://www.w3.org/2000/svg"
   xmlns:svg="http://www.w3.org/2000/svg">
  <defs
     id="defs16" />
  <sodipodi:namedview
     id="namedview14"
     pagecolor="#ffffff"
     bordercolor="#666666"
     borderopacity="1.0"
     inkscape:pageshadow="2"
     inkscape:pageopacity="0.0"
     inkscape:pagecheckerboard="0"
     inkscape:document-units="pt" />
  <metadata
     id="metadata2">
Created by potrace 1.16, written by Peter Selinger 2001-2019
</metadata>
  <g
     transform="translate(0.000000,1024.000000) scale(0.100000,-0.100000)"
     fill="#000000"
     stroke="none"
     id="g10">
    <path
       d="m 3884,7795 c -143.208,-86.8415 -380.7806,-125.2125 -278,-61 -57.4495,-20.4206 -252.6031,-108.1546 -169,-70 -47.5835,-16.2107 -199.7413,-203.4895 -172,-174 -34.3263,-38.3185 -174.5645,-199.3964 -111,-158 -58.475,-99.046 -237.4407,-299.9708 -178,-225 9.0511,11.1328 -353.4961,-560.6064 -145.5,-240 -49.0008,-67.2848 -235.7997,-343.4177 -164.5,-262 -0.4818,-82.6383 -177.0236,-356.4455 -123,-260 19.5885,-42.5102 -73.4197,-176.7075 -44,-114 -10.9025,-94.0552 -73.7758,-381.4154 -65,-285 3.5562,-78.0052 -31.5263,-342.1977 -39,-217 14.3439,-61.33 10.4045,-161.7563 -25,-146 -28.8435,-79.7932 -33.2763,-269.605 -12,-159 42.6094,-109.6367 -22.2584,-231.6838 3.75,-152 15.8284,-62.1471 76.2457,-243.1412 41.25,-176 -12.0584,-49.6475 -11.7482,-175.2682 -5,-119 8.897,-61.7491 8.501,-237.5444 3,-193 13.7713,-88.5458 41.1413,-115.7351 25.125,-148 15.5614,99.0691 75.7357,-807.5956 18.625,-214.5 -30.4171,-66.8362 -53.266,-202.9275 -24.75,-161.5 -13.1159,-39.8171 31.5141,-188.7947 24,-161 4.9532,-74.5799 -12.0774,-243.3802 -10,-188 8.0896,-36.1295 1.0917,-304.4276 3,-205 54.1985,-86.1986 13.5025,-285.8507 8,-234 -60.2281,-4.7062 -35.5226,-97.8097 -23.625,-97 10.4741,-66.6953 -70.949,-138.8106 -65.25,-133.4375 C 2266.0233,3211.4279 2162.0062,3125.2321 2180,3177 c -123.3093,-113.5754 -253.2314,-84.5011 -196.625,-179.75 -26.6124,49.1869 -75.7563,97.7169 -105.375,63.75 -48.3201,-16.7011 29.4955,240.7206 47,159 74.4544,39.0778 94.3988,273.7283 -82.75,181.875 -58.0789,38.5016 -315.5197,217.0805 -203.25,108.125 -48.9012,-25.8698 -207.0042,-26.7662 -149,-9 -77.1095,4.8652 -261.6494,44.7824 -186.875,14.75 4.6125,-29.3753 -322.92184,2.8949 -249.375,0.75 -64.12991,-18.4296 -311.34407,-95.85 -224.75,-60.5 -77.65033,24.1325 -231.65089,-337.1521 -159,-141 1.93619,-125.7436 108.41315,-197.9654 126,-152 74.43091,-120.4314 214.1986,-141.8123 201,-155 -1.93889,41.0629 4.1921,70.7874 85,-43 86.4015,-59.8825 223.8017,-146.1494 138,-119 101.0092,-38.4968 247.0023,-14.6859 210,-32.75 129.0448,-8.0516 205.3923,-88.1053 177,-64.25 59.6086,-65.413 218.466,-176.4563 163,-109 45.1549,-82.6231 219.3466,-132.0587 196,-114 94.1606,21.2734 155.1672,-0.1201 151,42 15.4653,-54.3769 71.1698,54.4572 146,58 179.4219,-18.0563 -82.2737,-37.2834 134.5,24.5 75.5374,29.0878 170.9492,139.2368 172.5,94.5 94.5197,56.0255 147.1525,108.3052 182,121 -11.4734,15.8141 94.5443,121.9925 82.5,72.25 88.6696,51.2021 73.7565,230.409 89,177.625 36.1906,8.9432 80.098,182.1066 62.5,135.125 21.7889,73.0844 21.1173,271.1235 29,201 22.3782,104.8942 -28.2429,348.2847 -6,335 -21.6087,52.0617 -21.8007,177.7684 -15,123 19.7098,56.2707 1.3819,269.7459 -15,196 -38.7755,-53.4521 -8.7464,124.0668 -22,101 -43.15,68.698 -95.3249,336.51 -46.625,201.75 -15.1922,22.2263 -10.8323,84.625 -5.375,103.25 117.192,208.7825 42.74,140.7193 44,261 15.6744,23.5079 -203.6891,87.8147 -94.625,159.625 37.007,103.9212 63.5621,355.9966 74.625,255.375 -14.1123,64.6892 -46.1855,263.7544 -21.375,175.875 -20.2052,9.4338 -20.8424,275.0015 -9.625,220.125 15.9902,98.0664 14.8536,253.3179 32,276 21.0747,108.781 27.7346,243.5477 18,207 -6.1221,125.2354 53.8213,365.5142 43,275.25 62.8319,181.6227 -7.0945,-20.0092 60,181.75 -5.6309,17.9315 203.5749,463.3783 109.875,237.125 44.7703,79.9314 140.6884,208.8521 115.125,181.875 15.3292,37.6447 167.5441,216.1165 104,128 -29.3692,14.0897 173.1754,156.7791 125,129 91.7391,66.6475 176.7722,184.3802 129,133 41.0796,39.7265 166.9276,89.3565 128.25,113.75 -26.7822,79.3191 106.1919,157.8849 83.75,110.25 16.2216,-1.6306 251.2021,162.1149 182,125 -15.5269,0.1141 147.4666,83.1355 -0.75,111 -43.9727,-21.7111 -120.4681,58.0482 -109.25,-1 -41.4199,-33.3654 -9.0567,52.8587 -34,3 z m -215,-92 c 152.0903,-36.2943 26.6362,-76.7152 11,-68 -25.9665,-58.2181 -154.8442,-187.266 -84.1719,-114.5469 -57.5391,169.236 25.9012,-57.3427 -18.8281,-42.4531 -73.256,-11.6753 -11.0342,193.7747 -26,100 24.6644,45.6917 146.6619,31.526 86,55 -2.0556,3.2913 11.555,69.5743 32,70 z"
       id="path4" />
    <path
       d="m 3266,6815 c -175.4138,-56.0067 -62.5307,-178.0529 -55,-104 70.7419,-147.4752 163.6845,-219.0359 104,-151 154.5798,-132.9129 70.6997,-256.8006 66,-230 -8.7009,-70.7085 77.6228,-282.6795 55,-213 37.8253,-66.3792 249.2463,-293.1385 201.25,-193.75 -9.3781,-26.6618 39.8302,-195.9606 54.625,-155.25 60.8993,-51.2306 111.2618,-186.5774 74.75,-123.125 43.4583,-43.4379 162.6172,-236.5525 112.25,-194 9.4458,-60.892 93.9661,-182.11 71.25,-129.625 70.6495,-74.7032 10.7142,-58.5267 112.875,-167.25 28.5771,-74.4264 189.976,-243.8339 131.625,-190.75 61.1295,-69.4512 40.6646,-45.2516 96.375,-168.25 70.4581,-92.4903 3.2797,-73.57 47,-121 8.823,-54.7344 91.3407,-266.7811 51,-160 23.6348,102.3228 113.233,50.3538 67,-87 -22.0096,-119.0737 74.844,-252.9207 41.625,-217 2.1822,-123.5743 76.9986,-145.772 50.875,-130.25 -25.462,-164.4321 44.2317,71.8682 9.5,-109.75 40.5184,-111.7119 89.0556,-127.942 65.375,-165.625 86.7728,-18.8429 237.7782,-152.0537 121.625,-142.375 -86.3829,-68.5476 79.7231,-149.9518 21.875,-129.625 31.6776,-48.0341 96.0431,-156.8496 60.125,-131.375 2.8361,-80.2791 90.0325,-182.9482 76.125,-170.25 -2.3974,-27.3327 79.0738,-201.1703 54.5,-181.75 12.2043,-35.7629 180.7591,-377.573 100.25,-226 27.3636,10.0386 96.0731,-199.4149 77.5,-158.625 80.5581,-240.8422 261.9767,316.7428 176.2188,83.3438 25.3259,172.491 -104.6363,156.7955 2.4062,218.2812 54.9242,-17.3937 118.774,-68.1619 109,88 -48.8508,-11.8823 -92.7046,165.5411 -58.875,140 -38.7559,115.6226 -226.7592,287.3985 -143.625,223.125 58.1246,-26.9736 -151.2417,258.0231 -88.5,182.875 -56.508,164.2512 -102.3161,166.2864 -117,241 -41.8987,60.3006 -42.4218,299.5849 -77.5,242.625 -57.0523,31.4452 -46.4575,192.4753 -63.767,195.8048 -26.3675,120.4144 -11.7156,205.9031 -13.733,178.5702 -25.0281,130.7777 -69.7133,500.8947 -53,366 17.4213,30.6062 27.1319,178.9442 3.5,147.125 -47.9332,35.7543 -45.207,555.5109 -48.5,236.875 -59.4496,89.602 -128.9003,344.0499 -89.5,262 24.4661,10.8213 -117.4645,290.4676 -42.5,150 -37.572,92.2254 -146.6672,378.118 -110,265 -74.0489,87.5195 -311.2871,329.0107 -200,255.25 34.7235,8.0299 -193.9532,133.2316 -164,79.75 -132.6945,81.7625 -377.7684,461.3878 -290,352 -52.1616,51.9306 -229.0601,114.9635 -170,82 -45.7235,101.5813 -248.2441,157.2633 -214,136 -34.7811,55.0689 -219.0298,48.7349 -200,22 21.4668,3.6517 -17.1037,26.5814 -16,3 z"
       id="path6" />
    <path
       d="m 7285,6398 c -34.4842,-51.8302 -256.0353,-43.8834 -160,-37 -36.9244,-43.841 -354.8746,-76.2281 -243,-12 -32.3211,31.0173 -245.3502,16.7009 -201,-21 10.7553,-26.6736 -164.171,-75.7493 -183.5,-54.375 -84.7509,-5.7867 -293.3537,-69.5012 -243.5,-50.625 -59.7772,-36.939 -189.448,-129.6341 -142,-89 -180.1419,-140.2672 -187.0328,-130.8028 -241,-264 -65.0444,-74.3153 -202.1748,-328.5173 -140,-240 -86.2179,-92.989 -200.1837,-228.6629 -141,-175 -66.0188,-68.004 -221.4532,-332.3143 -161,-240 -27.2566,-59.5193 -191.0487,-207.7578 -126,-165 -21.371,-52.2941 -211.9281,-280.8844 -180,-194 26.4288,-93.5718 -248.0987,-54.282 -18,-192 12.9786,-147.2314 116.4991,156.5663 66,-71 -67.279,-75.2214 -88.1305,-162.6275 -85,-32 -67.817,-77.0604 -19.1169,-183.1268 -22,-114 -73.7934,-88.9965 90.9455,-17.6398 71.875,-51.125 0.2163,-12.2271 28.8922,-53.23 48.125,9.25 108.7706,-63.8355 -101.5213,-192.3343 112,-12.125 -20.9632,-51.051 64.5732,-110.4759 85,-77 91.0512,108.0308 214.3744,300.8815 160.375,191.125 76.0024,60.2813 149.9078,290.1647 108.625,182.875 60.473,103.4961 194.1569,342.8772 163,273 52.8319,109.9797 86.119,214.7374 95.25,188.25 51.8315,97.794 244.8136,345.1895 170.75,224.75 53.716,76.2361 229.5906,210.9833 188,191 98.8178,41.6533 234.0032,95.4876 183,72 40.3529,-2.0579 229.8803,-9.738 184.75,21.5 72.482,40.6907 195.1238,49.221 141.25,37.5 52.518,33.1733 225.9533,75.0055 147,45 17.7842,-21.0362 86.2929,-103.172 113.875,5.375 25.8783,-56.7453 15.2848,-210.2493 22.125,-155.375 -10.4718,-39.5396 49.6338,-226.0026 26,-195.25 -9.7542,-67.5521 19.1036,-242.1312 15,-177.75 -18.3597,-74.0471 -39.0314,-227.7021 -9,-182.25 21.7428,-94.717 26.5285,-330.9997 15.75,-234.875 -26.9228,-79.8069 0.802,-313.6428 -6.75,-227.875 53.4833,-126.2205 -59.9439,-82.5969 48.25,-167.75 6.6514,-131.8545 51.2055,-542.3691 33.75,-399.25 21.2007,-75.2995 66.6877,-290.1854 61.875,-202.5 53.1655,-96.0002 248.43,-308.7776 172.125,-262.5 84.2368,-88.513 186.4663,-271.5584 181.5,-183.25 112.9322,-60.5234 261.2026,-295.7804 228.5,-270.75 -18.3773,-116.2833 124.5092,-143.5266 141.5,-143.875 50.0569,-74.3041 151.7038,-67.1244 138.5,-66.125 44.3174,-18.9118 257.7195,-95.4133 176,-71 58.6531,-20.9772 219.1809,-44.223 155,-44 69.2544,-27.3138 357.0539,-51.2871 262,-59 198.9569,60.8105 96.5294,-2.2993 201,55 61.1319,11.288 316.1155,287.9123 233,175 66.0588,104.4861 97.4813,6.6841 165,158 19.6505,57.7511 82.5196,332.4407 49.125,215.25 -7.0926,32.1831 -32.84,310.3616 -2.125,231.75 0.1685,104.8306 -80.7769,374.1804 -14.5,285.625 24.7776,28.8808 72.3481,265.1571 54.5,174.375 53.6329,122.8317 80.8844,246.2022 46.0938,260.9688 23.6533,90.6052 -52.1722,400.0627 -9.5938,287.6562 27.4973,129.7586 -287.1043,-27.0428 -192.5,86.375 -101.622,-64.1465 -296.7639,-352.1436 -240,-269 -71.0768,-108.5268 -270.6681,-366.6227 -203,-275 -33.2608,-31.1535 -67.0111,-180.2441 -76,-136 55.9737,-69.7797 162.8766,-63.0491 144.625,-165.875 87.5666,116.9522 117.3884,-206.5081 87.375,-142.125 -28.9892,-71.8635 -81.368,-228.259 -73,-113 20.3707,-71.0375 -90.9368,-207.4603 5,-120 -47.9576,-161.8098 -118.8507,-188.6275 -71,-140 -49.3362,-41.0013 -274.0809,-69.4793 -207,-10 8.2688,35.3971 -180.5816,77.5259 -146,51 -29.5996,-13.516 -228.0054,130.2417 -192.75,91.75 -135.6873,-20.4864 -267.3467,346.968 -209.25,214.25 -8.844,16.6924 -172.5303,291.9579 -113,199 -94.2088,141.5162 -78.9962,166.9136 -168,240 -48.3979,63.8594 -164.5929,238.5468 -137.375,162.5 -45.5595,103.978 79.6641,407.7513 18.5,269.375 -67.4949,76.8739 -151.5083,316.3986 -110.125,218.125 -25.8534,111.703 -34.6504,366.1939 -6,288 19.4943,85.7485 -36.3543,408.6494 -44,280 -51.0717,83.6212 -124.2407,211.7942 -56.625,175.5 39.7706,82.8441 -19.245,246.8838 -21,202.25 31.9789,197.5223 13.2381,393.8592 -19.375,256.25 -16.6744,64.6555 -6.2451,297.1378 11.75,246.125 16.5559,84.1941 -31.8409,216.3085 -12.75,161.875 2.2666,4.9739 -92.7683,89.0189 -105,78 z"
       id="path8" />
  </g>
</svg>
