<?xml version="1.0" standalone="no"?>
<!DOCTYPE svg PUBLIC "-//W3C//DTD SVG 20010904//EN"
 "http://www.w3.org/TR/2001/REC-SVG-20010904/DTD/svg10.dtd">
<svg version="1.0" xmlns="http://www.w3.org/2000/svg"
 width="1024.000000pt" height="1024.000000pt" viewBox="0 0 1024.000000 1024.000000"
 preserveAspectRatio="xMidYMid meet">
<metadata>
Created by potrace 1.16, written by Peter Selinger 2001-2019
</metadata>
<g transform="translate(0.000000,1024.000000) scale(0.100000,-0.100000)"
fill="#000000" stroke="none">
<path d="M6057 7347 c-3 -8 -14 -17 -25 -19 -16 -5 -19 -2 -14 11 5 14 4 14
-11 2 -9 -7 -17 -9 -17 -4 0 6 -15 10 -34 9 -23 -1 -31 -4 -25 -12 6 -7 -1 -9
-23 -6 -23 4 -29 2 -23 -8 6 -9 4 -11 -5 -5 -7 4 -15 2 -20 -5 -5 -8 -9 -8
-13 4 -4 9 -1 15 5 13 6 -1 13 5 15 13 3 9 1 11 -4 4 -4 -5 -24 -10 -45 -10
-20 1 -34 -2 -32 -6 9 -14 -32 -28 -46 -15 -10 9 -11 9 -5 -1 5 -10 1 -13 -16
-10 -17 2 -24 -2 -23 -12 1 -9 -7 -16 -17 -16 -14 0 -16 3 -6 16 6 8 -2 4 -17
-10 -16 -14 -26 -19 -22 -13 5 9 2 11 -9 7 -9 -4 -14 -13 -10 -22 4 -12 1 -12
-20 2 -14 9 -25 13 -24 9 4 -26 -1 -38 -11 -23 -8 13 -10 13 -10 -2 0 -12 -5
-16 -17 -11 -10 3 -15 3 -11 -2 13 -13 -25 -34 -43 -24 -19 10 -34 -14 -23
-34 5 -8 3 -8 -6 0 -11 10 -16 9 -27 -5 -9 -10 -12 -11 -7 -2 7 13 6 13 -12 0
-10 -8 -21 -16 -23 -17 -2 -1 0 -8 5 -16 5 -7 1 -4 -8 6 -16 17 -22 16 -19 -5
0 -4 -7 -4 -16 -1 -12 5 -15 2 -10 -10 7 -18 -8 -33 -18 -17 -8 14 -28 1 -22
-14 4 -11 -7 -15 -51 -18 -7 -1 -11 -7 -8 -15 3 -7 1 -13 -5 -13 -6 0 -7 -6
-3 -12 5 -8 2 -8 -10 1 -9 8 -16 10 -15 5 4 -21 -2 -28 -12 -14 -9 12 -10 11
-6 -7 3 -14 1 -20 -8 -17 -6 3 -18 -2 -25 -10 -7 -9 -17 -13 -24 -9 -6 4 -4
-2 4 -12 9 -11 10 -16 3 -11 -8 4 -13 2 -13 -4 0 -6 -4 -8 -10 -5 -5 3 -10 1
-10 -6 0 -8 -5 -8 -17 2 -15 11 -15 10 1 -8 18 -22 18 -22 -3 -18 -11 2 -21 0
-21 -6 0 -5 -7 -9 -15 -9 -8 0 -15 -7 -15 -17 0 -9 -3 -14 -6 -10 -3 3 -14 -3
-25 -14 -11 -11 -24 -17 -30 -14 -5 4 -14 -7 -20 -24 -8 -21 -15 -28 -26 -24
-12 5 -14 3 -8 -7 6 -10 4 -12 -9 -7 -10 4 -15 3 -11 -3 3 -6 1 -10 -5 -10 -7
0 -10 -7 -7 -14 4 -10 1 -13 -8 -9 -8 3 -12 10 -8 16 3 6 1 7 -6 3 -9 -6 -9
-11 1 -24 10 -12 10 -14 1 -8 -7 4 -13 2 -13 -3 0 -6 -5 -11 -11 -11 -5 0 -7
6 -4 13 4 6 -1 3 -9 -7 -9 -11 -16 -28 -16 -38 0 -10 -5 -18 -11 -18 -5 0 -8
4 -4 9 3 5 1 13 -5 16 -6 4 -9 1 -8 -7 2 -7 -3 -12 -10 -10 -8 1 -11 -2 -7 -8
3 -5 1 -10 -4 -10 -6 0 -10 -6 -8 -12 1 -8 -6 -12 -17 -10 -17 3 -18 2 -7 -12
12 -14 12 -16 -2 -11 -8 4 -18 1 -23 -6 -5 -8 -3 -10 7 -4 12 7 12 6 1 -7 -8
-9 -20 -14 -28 -11 -13 5 -20 -14 -15 -41 1 -5 -4 -4 -11 2 -16 13 -73 -26
-73 -50 -1 -7 -7 -12 -15 -10 -11 3 -11 0 1 -14 13 -16 12 -16 -11 -4 -23 12
-24 12 -11 -4 12 -14 12 -16 -4 -10 -13 5 -16 4 -11 -4 4 -7 1 -12 -8 -12 -9
0 -13 -7 -11 -20 2 -11 -1 -23 -7 -26 -6 -4 -8 -3 -5 3 4 6 0 14 -9 17 -8 3
-13 2 -10 -3 8 -12 -19 -33 -30 -23 -4 4 -3 0 4 -9 14 -18 7 -30 -14 -22 -9 3
-12 -2 -9 -17 3 -18 2 -20 -10 -10 -16 13 -22 4 -20 -32 1 -20 -3 -25 -18 -22
-16 3 -17 1 -5 -13 9 -12 9 -15 1 -9 -8 4 -13 2 -13 -6 0 -8 6 -20 13 -28 6
-8 1 -6 -13 5 -14 11 -22 16 -18 11 4 -5 1 -15 -7 -23 -18 -18 -20 -37 -2 -28
6 4 1 -3 -13 -14 -22 -18 -21 -26 3 -22 5 1 5 -4 2 -10 -5 -8 -10 -8 -18 0
-15 15 -24 14 -30 -3 -4 -10 -1 -13 9 -9 7 3 14 0 14 -6 0 -6 -3 -10 -7 -10
-21 3 -34 -2 -31 -13 3 -7 -5 -21 -16 -31 -12 -10 -15 -16 -8 -12 6 3 12 1 12
-4 0 -6 -8 -11 -17 -12 -11 0 -13 -3 -6 -6 10 -3 9 -8 -2 -20 -8 -8 -13 -19
-10 -24 4 -5 0 -9 -7 -10 -7 0 -4 -4 7 -9 19 -8 19 -9 -2 -9 -13 -1 -23 -6
-23 -12 0 -5 6 -7 13 -4 6 4 1 -3 -13 -14 -21 -18 -22 -20 -5 -15 20 5 20 5 1
-10 -10 -8 -23 -13 -29 -9 -6 3 -7 1 -3 -6 4 -6 13 -8 19 -5 7 4 2 -3 -10 -15
-27 -26 -31 -39 -5 -20 15 12 14 11 -1 -8 -11 -12 -16 -27 -12 -33 3 -6 1 -9
-7 -8 -8 2 -13 -6 -12 -19 1 -13 -3 -23 -8 -23 -5 0 -4 -9 2 -21 7 -11 9 -23
6 -27 -3 -3 -6 0 -6 6 0 7 -5 12 -11 12 -5 0 -8 -4 -4 -9 3 -6 -3 -15 -12 -21
-17 -11 -17 -11 0 -6 9 3 17 1 17 -4 0 -6 -6 -10 -12 -10 -8 0 -4 -8 7 -17 16
-13 17 -15 3 -10 -10 4 -18 2 -18 -4 0 -6 -5 -7 -12 -3 -7 4 -8 3 -4 -5 4 -6
13 -8 19 -5 8 5 8 3 0 -7 -7 -7 -13 -21 -13 -32 0 -12 -4 -16 -12 -11 -10 6
-10 4 0 -7 6 -7 12 -17 12 -22 0 -4 -6 -5 -12 -1 -7 4 -10 4 -6 -1 4 -4 3 -14
-4 -22 -9 -11 -7 -12 8 -7 18 5 18 5 2 -9 -13 -10 -15 -16 -6 -25 9 -9 9 -12
1 -12 -8 0 -9 -9 -3 -29 6 -23 5 -29 -5 -25 -9 4 -13 -2 -11 -20 2 -13 0 -30
-5 -37 -4 -8 -3 -19 3 -26 7 -9 7 -13 -1 -13 -7 0 -9 -5 -4 -12 12 -20 12 -39
1 -32 -6 4 -8 1 -6 -7 3 -8 10 -13 15 -12 5 1 9 -9 9 -22 0 -13 -4 -21 -8 -19
-4 3 -8 1 -8 -5 0 -5 6 -12 13 -14 9 -4 9 -6 -2 -6 -8 -1 -5 -9 10 -22 13 -11
18 -17 10 -13 -11 5 -13 3 -8 -9 3 -9 1 -19 -5 -23 -7 -4 -8 -3 -4 4 4 7 2 12
-3 12 -14 0 -14 -17 -1 -25 8 -5 7 -12 -2 -23 -10 -12 -10 -14 0 -8 6 4 12 2
12 -3 0 -6 -6 -11 -12 -11 -10 0 -9 -3 1 -9 11 -7 11 -9 0 -14 -9 -3 -7 -6 6
-6 16 -1 17 -3 5 -10 -8 -6 -18 -7 -22 -5 -13 9 -9 -4 8 -20 12 -12 12 -16 2
-16 -10 0 -9 -3 2 -10 13 -9 13 -10 0 -10 -13 0 -13 -1 0 -10 13 -9 12 -12 -4
-25 -17 -13 -18 -15 -3 -15 9 0 17 -5 17 -11 0 -5 -6 -7 -12 -3 -10 6 -10 5
-1 -7 8 -10 9 -19 1 -29 -8 -12 -9 -12 -4 3 3 11 2 16 -5 12 -13 -9 -2 -46 19
-63 10 -8 12 -12 3 -12 -7 0 -9 -5 -5 -12 4 -7 3 -8 -5 -4 -6 4 -8 12 -5 18 4
7 2 8 -4 4 -12 -7 -5 -36 9 -36 5 0 9 -5 9 -11 0 -5 -5 -7 -10 -4 -20 12 -5
-20 15 -33 19 -13 19 -13 -4 -8 l-23 5 23 -26 c13 -15 18 -23 11 -19 -10 6
-12 1 -9 -23 3 -17 0 -34 -5 -37 -7 -5 -8 -2 -3 6 5 9 4 11 -4 6 -6 -4 -9 -12
-5 -17 3 -5 9 -7 14 -4 5 3 11 1 15 -5 3 -5 -1 -10 -11 -10 -15 0 -15 -2 1
-26 9 -15 12 -23 6 -20 -6 4 -11 2 -11 -3 0 -6 6 -11 13 -11 8 0 8 -3 -2 -9
-13 -8 -13 -12 0 -27 9 -11 9 -15 2 -10 -7 4 -13 3 -13 -3 0 -5 6 -12 13 -14
9 -4 9 -6 -1 -6 -10 -1 -10 -5 2 -16 17 -17 11 -49 -8 -38 -6 4 -5 -1 3 -10 7
-9 17 -14 22 -11 5 3 9 0 9 -6 0 -7 -9 -9 -22 -5 -13 4 -18 3 -12 -2 7 -4 13
-24 15 -43 2 -19 8 -38 14 -42 6 -5 5 -8 -2 -8 -7 0 -13 -4 -13 -10 0 -5 8 -7
18 -4 14 5 14 4 3 -4 -13 -9 -13 -13 0 -28 9 -11 9 -15 2 -10 -7 4 -13 4 -14
-1 0 -4 -2 -18 -5 -30 -2 -13 1 -23 6 -23 6 0 9 -3 9 -7 -1 -5 0 -10 1 -13 7
-18 5 -52 -3 -57 -6 -3 -7 -1 -3 5 5 8 1 10 -10 5 -11 -4 -13 -8 -6 -11 7 -2
17 -13 24 -25 10 -20 9 -21 -5 -9 -13 11 -15 11 -13 -3 1 -9 9 -21 17 -27 12
-8 11 -9 -2 -5 -12 4 -15 -3 -15 -34 0 -21 4 -39 8 -39 4 0 8 -5 8 -11 0 -5
-4 -8 -9 -5 -5 3 -11 -3 -14 -14 -3 -11 0 -23 6 -27 7 -4 3 -9 -9 -14 -17 -7
-17 -8 -1 -8 9 -1 17 -6 17 -12 0 -5 -5 -7 -10 -4 -6 4 -6 -3 1 -18 8 -18 8
-30 -1 -48 -10 -20 -10 -22 1 -11 19 18 33 15 15 -4 -9 -8 -14 -20 -11 -25 11
-17 14 -50 4 -44 -5 4 -9 -1 -9 -10 0 -10 5 -13 13 -9 6 4 1 -6 -13 -22 -15
-16 -17 -22 -6 -14 18 14 18 13 11 -9 -5 -18 -4 -22 6 -17 8 4 6 1 -3 -7 -10
-8 -15 -17 -11 -21 10 -10 13 -37 3 -31 -5 3 -11 1 -15 -5 -3 -5 0 -10 7 -10
9 0 9 -3 -2 -10 -12 -8 -12 -10 -1 -10 11 0 11 -3 0 -17 -10 -11 -10 -14 -1
-9 6 4 12 3 12 -3 0 -5 -6 -12 -12 -14 -9 -4 -10 -8 -2 -14 13 -9 12 -49 -1
-60 -4 -5 -5 -3 -1 4 3 6 2 14 -2 17 -11 7 -10 -44 2 -62 7 -12 4 -12 -15 -1
-22 11 -23 11 -10 -4 7 -10 10 -17 5 -17 -5 0 -2 -5 6 -11 12 -9 10 -10 -8 -6
-19 5 -21 3 -11 -9 9 -11 8 -18 -2 -30 -10 -13 -10 -17 1 -24 10 -6 8 -12 -8
-25 -11 -10 -18 -24 -14 -33 3 -10 1 -13 -6 -8 -6 3 -14 1 -18 -5 -4 -7 -3 -9
2 -6 6 3 16 2 24 -4 13 -7 12 -9 -2 -9 -10 0 -18 -5 -18 -11 0 -5 5 -7 10 -4
6 3 10 1 10 -4 0 -6 -6 -11 -14 -11 -14 0 -30 -34 -26 -59 1 -7 -3 -11 -8 -7
-5 3 -9 -1 -9 -9 0 -8 5 -11 11 -8 6 3 8 3 4 -2 -4 -4 -2 -15 5 -24 11 -14 10
-14 -5 -2 -13 9 -18 10 -18 2 0 -7 -4 -10 -9 -7 -4 3 -5 -12 -1 -34 7 -36 6
-39 -8 -28 -13 11 -14 11 -8 0 4 -7 2 -20 -6 -30 -12 -15 -11 -16 5 -3 24 19
21 2 -5 -27 -13 -14 -17 -22 -10 -18 16 9 16 -16 0 -32 -9 -9 -9 -12 1 -12 7
0 9 -5 4 -12 -4 -7 -8 -17 -9 -23 0 -5 -2 -16 -2 -23 -1 -7 -7 -10 -14 -6 -7
4 -8 3 -4 -5 6 -9 11 -9 22 0 16 13 18 2 5 -20 -6 -9 -2 -25 11 -46 19 -33 12
-55 -14 -39 -7 4 -8 3 -4 -4 4 -7 18 -10 34 -6 15 4 24 3 20 -1 -8 -8 9 -35
22 -35 3 0 7 6 7 14 0 8 -6 12 -15 8 -9 -3 -13 -1 -9 5 4 6 18 10 33 10 18 0
22 -3 15 -10 -15 -15 -14 -30 2 -21 10 6 10 4 0 -7 -17 -17 -17 -53 -1 -43 7
5 9 2 5 -9 -3 -9 0 -18 9 -21 9 -3 12 -1 9 4 -6 10 9 15 30 10 5 -1 1 9 -10
21 l-20 22 26 -17 c26 -16 27 -16 25 1 0 10 5 18 12 18 6 0 11 3 10 7 -2 3 11
19 27 33 17 15 23 24 15 20 -10 -4 -9 -1 2 8 10 8 15 17 12 20 -14 14 8 28 24
15 15 -11 15 -11 5 2 -15 20 -13 59 3 53 7 -2 14 6 17 19 l4 23 2 -22 c1 -25
15 -30 27 -11 4 6 3 8 -3 5 -5 -3 -10 0 -10 7 0 18 24 9 31 -10 3 -8 1 -12 -4
-9 -5 3 -12 -6 -16 -21 -5 -19 -9 -22 -15 -13 -6 10 -8 7 -6 -9 1 -14 5 -18
11 -12 13 13 26 13 26 -1 0 -5 -3 -8 -7 -6 -5 2 -19 -7 -33 -21 -14 -13 -20
-22 -13 -18 6 3 14 2 18 -4 3 -5 -2 -10 -12 -10 -14 -1 -13 -4 7 -16 23 -14
23 -15 3 -11 -15 3 -20 1 -16 -9 3 -8 9 -12 13 -9 5 3 12 0 16 -6 4 -8 3 -9
-4 -5 -7 4 -12 1 -12 -9 0 -9 5 -13 10 -10 6 3 10 1 10 -4 0 -6 5 -11 12 -11
6 0 8 3 4 7 -3 4 6 13 21 20 16 7 20 11 11 9 -10 -3 -20 0 -24 6 -4 7 -3 8 4
4 7 -4 12 -2 12 4 0 6 3 9 8 7 4 -3 13 2 21 10 12 13 11 14 -10 8 -22 -7 -22
-7 -6 9 9 10 22 14 29 10 8 -5 9 -2 5 9 -4 11 -1 17 8 17 8 0 15 5 15 11 0 5
4 8 9 5 5 -3 12 1 15 10 3 9 11 12 18 8 9 -6 9 -3 -1 9 -11 14 -11 18 2 23 9
3 13 12 10 21 -4 11 -2 14 6 9 6 -4 11 -4 10 1 -3 20 2 34 11 28 6 -3 7 1 4 9
-3 9 -9 14 -13 12 -4 -3 -7 4 -8 14 -1 11 3 22 8 25 5 4 7 11 4 16 -4 5 -2 9
3 9 6 0 10 16 10 35 0 24 -4 33 -11 28 -8 -4 -8 -1 0 9 7 8 9 19 5 23 -4 5 -2
5 4 2 7 -4 14 -1 17 6 7 18 -8 43 -17 29 -3 -6 0 -13 6 -15 9 -4 10 -6 1 -6
-16 -1 -26 16 -13 24 5 3 10 17 10 31 0 13 6 24 13 24 8 0 8 3 1 8 -16 11 -22
35 -14 57 4 11 3 30 -1 43 -6 15 -5 21 1 17 6 -3 10 -1 10 4 0 6 -8 11 -17 11
-15 0 -15 1 2 13 11 8 14 16 8 20 -6 4 -8 18 -6 32 3 13 9 22 14 19 5 -3 9 0
9 5 0 6 -8 11 -17 11 -14 0 -15 2 -5 9 8 4 13 11 13 15 -3 20 0 26 12 20 9 -5
9 -4 1 5 -7 8 -9 25 -4 47 4 19 5 34 1 34 -3 0 1 5 9 10 11 7 11 10 2 10 -8 0
-10 5 -5 13 9 15 10 19 12 58 0 16 5 28 10 25 4 -3 8 11 7 32 -1 20 5 43 12
51 10 11 11 16 2 21 -9 6 -9 9 -1 11 7 3 13 14 14 27 0 12 6 22 12 22 6 0 7 3
0 8 -13 9 -18 35 -5 27 5 -3 10 2 10 12 0 11 6 25 13 32 10 11 9 12 -2 6 -10
-6 -12 -4 -5 6 5 8 9 22 10 32 1 9 3 19 4 22 1 3 3 9 4 14 0 5 4 13 9 17 4 4
7 17 7 29 0 11 6 27 13 34 10 11 9 12 -2 6 -10 -6 -12 -4 -5 6 5 8 7 22 6 32
-2 9 1 17 6 17 20 0 32 88 18 125 -5 15 -4 16 8 6 10 -8 16 -9 21 -1 3 5 -1
13 -9 16 -14 5 -14 8 -1 21 16 15 21 38 7 29 -5 -3 -9 1 -9 9 0 8 4 12 8 9 4
-2 6 14 5 36 -2 31 0 37 10 29 8 -7 14 -6 20 2 4 8 3 9 -4 5 -7 -4 -12 -1 -12
9 0 10 5 13 13 9 7 -5 6 0 -3 11 -14 17 -13 18 4 11 20 -7 20 -7 0 15 -19 22
-19 22 2 11 20 -10 21 -8 20 34 -1 33 2 43 12 39 8 -3 12 0 9 7 -2 7 -13 12
-23 10 -13 -2 -10 3 10 17 17 11 34 17 39 14 6 -3 7 -1 4 5 -8 11 -25 11 -44
-1 -8 -5 -13 -4 -13 2 0 6 5 12 10 12 6 1 16 2 23 3 6 0 12 8 12 16 0 8 5 21
12 28 8 9 9 20 3 37 -7 19 -6 26 7 34 17 9 27 41 13 41 -15 0 -21 -18 -8 -23
9 -4 10 -6 1 -6 -23 -2 -23 18 -1 33 12 9 17 16 10 16 -6 0 -12 5 -12 11 0 5
5 7 10 4 16 -10 7 18 -10 32 -13 11 -12 12 5 6 11 -3 17 -3 13 2 -4 4 -2 15 5
23 8 10 8 13 1 9 -7 -4 -15 0 -18 9 -3 8 -2 12 4 9 6 -4 10 5 10 20 0 14 -4
24 -8 21 -5 -3 -9 1 -9 9 0 11 5 12 21 4 18 -9 18 -7 -3 10 -21 19 -20 26 3
22 5 -1 4 4 -3 13 -9 11 -9 16 0 21 8 6 7 10 -2 17 -12 8 -12 10 0 15 10 4 8
9 -9 18 -19 10 -20 13 -6 18 11 5 15 3 10 -5 -4 -7 -3 -8 4 -4 6 4 9 13 6 21
-4 8 -11 12 -18 8 -6 -4 -4 2 4 12 9 11 10 16 3 11 -9 -5 -13 1 -13 19 0 18
-4 24 -12 19 -8 -5 -7 0 2 11 13 17 13 18 -1 13 -13 -5 -15 0 -13 23 2 18 0
28 -6 24 -7 -4 -7 3 0 19 7 19 6 26 -3 26 -7 0 -5 5 4 10 11 6 15 18 11 35 -2
14 0 25 6 25 5 0 9 13 8 29 -1 17 2 28 6 25 13 -8 9 11 -4 25 -10 11 -10 13 0
7 6 -4 12 -2 12 4 0 6 4 9 9 6 5 -4 7 3 4 14 -3 11 0 26 6 33 6 8 8 17 4 20
-3 4 0 7 7 7 7 0 10 3 7 7 -4 3 -1 13 6 21 9 13 9 14 0 8 -9 -5 -11 -2 -7 8 3
9 11 13 16 10 6 -4 8 -1 6 7 -3 8 -11 13 -17 11 -7 -1 -10 2 -6 8 3 5 13 10
21 10 9 0 14 6 12 13 -3 6 -10 12 -16 12 -5 0 -14 3 -18 7 -3 4 3 6 15 3 19
-4 26 5 22 29 -1 5 5 3 14 -4 9 -7 15 -9 14 -4 -4 20 2 34 12 32 6 -2 12 7 14
19 1 12 -2 20 -7 17 -4 -3 -5 2 -2 11 5 13 9 13 23 3 14 -11 14 -11 5 2 -18
25 -24 49 -11 44 8 -3 13 6 15 22 2 28 36 81 65 103 10 7 16 19 13 27 -3 8 -2
13 2 13 20 -3 33 2 27 11 -3 6 -2 10 3 10 6 0 13 11 16 25 4 14 11 23 16 20 6
-4 7 1 3 11 -4 12 -3 15 6 10 6 -4 11 -4 10 1 -6 32 2 52 19 47 14 -5 14 -3
-3 11 -20 17 -20 17 3 10 13 -4 22 -2 22 4 0 6 -4 12 -10 12 -5 1 -14 2 -19 3
-5 0 -13 4 -17 8 -6 7 2 6 41 -2 19 -4 35 0 35 10 0 5 -8 7 -17 3 -19 -7 -18
-5 11 17 18 13 19 13 12 0 -4 -8 1 -4 12 10 11 13 18 29 15 34 -3 5 -1 6 6 2
9 -6 9 -11 0 -24 -7 -10 3 -1 21 18 19 19 33 38 32 42 -1 5 1 7 6 6 13 -4 53
23 47 33 -4 5 1 9 9 9 9 0 16 5 16 11 0 5 5 7 12 3 7 -5 9 -2 5 9 -4 11 -2 14
7 11 8 -3 23 7 35 22 11 15 21 23 21 18 0 -4 12 8 26 27 16 20 24 26 20 14 -4
-15 0 -12 15 8 11 15 25 24 30 21 5 -3 8 0 7 8 -2 7 3 12 10 10 8 -1 11 2 7 8
-3 5 -1 10 5 10 6 0 8 5 4 12 -4 7 -3 8 5 4 6 -4 14 0 17 8 3 9 10 13 15 10 5
-3 9 0 9 6 0 6 4 8 10 5 5 -3 15 3 22 15 7 11 19 20 26 20 8 0 10 5 6 12 -5 8
-2 9 10 5 10 -4 15 -3 11 3 -3 6 -1 10 5 10 6 0 8 6 4 13 -4 6 -4 9 1 5 4 -4
15 -2 23 5 13 10 14 9 7 -2 -6 -10 -4 -12 4 -7 7 5 10 15 6 25 -5 13 -4 13 6
4 10 -10 16 -10 27 -1 13 12 32 18 59 20 7 1 10 5 7 10 -3 4 -15 3 -27 -3 -21
-9 -21 -9 -3 5 13 11 25 12 42 6 16 -7 23 -6 21 2 -1 6 4 13 12 16 8 3 11 0 7
-7 -5 -8 0 -8 17 -2 14 6 28 7 32 3 3 -3 3 2 -1 12 -6 15 -4 17 7 10 18 -11
59 -13 59 -4 0 4 11 10 24 12 19 4 23 1 19 -16 -4 -16 0 -14 16 9 23 33 26 30
11 -11 -10 -24 -9 -26 6 -13 9 7 23 15 33 17 43 9 61 10 56 2 -3 -5 -13 -9
-23 -9 -38 -1 -52 -5 -52 -13 0 -4 15 -7 33 -6 29 3 32 0 30 -22 -1 -14 1 -20
3 -13 4 9 13 9 31 2 20 -7 24 -6 20 4 -3 8 1 14 9 14 7 0 11 -4 8 -9 -3 -4 0
-8 7 -8 8 0 7 -5 -2 -17 -13 -16 -12 -17 3 -4 10 7 16 17 13 20 -2 4 2 8 11 8
9 0 13 -7 9 -21 -3 -12 -2 -15 1 -8 5 10 9 10 22 0 13 -11 14 -11 7 1 -6 11
-4 13 8 8 11 -4 14 -2 10 9 -4 11 -9 12 -19 3 -10 -8 -14 -8 -14 0 0 6 5 11
11 11 5 0 8 4 5 8 -3 5 1 9 9 9 8 0 12 -4 10 -8 -3 -3 2 -12 10 -19 8 -7 12
-16 9 -21 -3 -5 -1 -9 5 -9 5 0 12 8 14 18 3 9 4 5 4 -11 -1 -20 -5 -26 -17
-22 -11 5 -12 3 -4 -5 16 -16 54 -21 54 -7 0 7 4 6 10 -3 5 -9 5 -19 -1 -26
-7 -8 -6 -15 2 -20 8 -5 9 -3 4 6 -5 8 -4 11 3 6 6 -4 8 -14 5 -23 -4 -10 -2
-14 4 -10 5 3 10 0 10 -8 0 -8 -5 -12 -10 -8 -5 3 -6 -4 -2 -17 5 -17 4 -21
-6 -16 -8 4 -6 1 4 -7 16 -13 16 -15 1 -21 -13 -5 -14 -9 -4 -21 7 -8 9 -15 4
-15 -4 0 1 -6 11 -14 18 -13 18 -13 -1 -24 -10 -6 -14 -12 -9 -12 6 0 16 -10
24 -22 13 -21 13 -22 -3 -9 -9 8 -19 11 -23 7 -4 -3 2 -13 13 -21 10 -9 15
-14 9 -13 -5 2 -10 -2 -10 -7 0 -6 6 -9 13 -7 8 2 11 -1 8 -7 -4 -5 -1 -13 5
-17 8 -4 9 -3 5 4 -5 8 2 12 18 12 14 0 25 3 25 8 -5 28 2 35 17 14 8 -12 20
-20 25 -16 6 3 5 -3 -2 -14 -9 -15 -10 -24 -2 -34 8 -10 5 -18 -9 -33 -16 -17
-18 -17 -12 -2 5 13 2 16 -10 11 -19 -7 -22 -34 -3 -34 6 0 1 -6 -12 -13 -23
-12 -31 -32 -12 -32 5 0 13 -4 18 -9 4 -5 3 -6 -3 -3 -19 11 -37 -21 -40 -68
-1 -25 1 -43 5 -41 4 3 7 -4 7 -14 0 -15 -3 -17 -15 -7 -11 9 -10 4 3 -17 15
-23 16 -30 5 -38 -11 -8 -11 -11 -1 -15 10 -4 10 -8 1 -19 -9 -11 -9 -17 0
-28 9 -11 9 -15 -1 -19 -10 -4 -10 -7 1 -15 11 -8 11 -10 0 -15 -10 -4 -10 -6
-1 -6 6 -1 12 -6 12 -12 0 -5 -3 -8 -7 -6 -5 3 -9 -6 -9 -19 -1 -13 3 -24 8
-24 6 0 4 -8 -3 -17 -12 -14 -12 -16 2 -11 9 4 16 1 16 -7 0 -7 -7 -11 -16 -8
-14 4 -14 4 -1 -6 8 -6 16 -15 16 -21 1 -5 3 -12 4 -15 4 -8 7 -24 9 -40 0 -8
6 -15 12 -15 5 0 7 5 4 10 -3 6 -1 10 5 10 6 0 8 -11 6 -24 -4 -20 1 -27 22
-36 21 -8 22 -9 5 -6 -20 4 -21 2 -11 -17 6 -12 11 -24 10 -27 0 -3 7 -3 16
-2 13 3 14 1 6 -8 -9 -9 -5 -18 13 -36 14 -14 23 -31 20 -37 -3 -7 1 -21 9
-31 10 -14 10 -24 3 -38 -10 -18 -9 -19 13 -7 20 11 21 10 11 -3 -13 -15 -8
-28 11 -28 6 0 4 5 -4 10 -8 5 -10 10 -5 10 13 -1 45 -25 45 -35 0 -4 -8 -1
-17 6 -15 12 -16 12 -10 -3 3 -9 3 -19 -1 -21 -4 -2 -1 -2 6 -1 8 2 11 -5 8
-21 -4 -24 -4 -24 20 -8 14 9 24 12 23 7 -4 -22 2 -35 13 -28 7 4 8 3 4 -5 -4
-6 -11 -9 -16 -6 -5 3 -12 0 -16 -6 -4 -8 -3 -9 4 -5 7 4 12 3 12 -3 0 -5 8
-11 17 -13 17 -3 27 -48 10 -48 -6 0 -7 -3 -4 -6 4 -4 13 -1 21 5 12 10 14 8
9 -11 -4 -18 -2 -20 6 -8 5 8 13 12 16 8 3 -3 0 -12 -8 -20 -11 -11 -12 -16
-1 -25 9 -9 14 -9 18 3 4 10 2 13 -6 8 -7 -4 -8 -3 -4 4 4 6 14 8 22 5 9 -3
12 -9 7 -12 -5 -3 -8 -12 -7 -18 1 -7 2 -18 3 -24 0 -5 5 -8 10 -5 8 6 26 -21
23 -36 -1 -3 6 -12 16 -20 15 -12 16 -11 3 5 -7 9 -10 17 -5 17 15 -1 44 -27
38 -33 -4 -3 6 -4 21 -1 19 3 24 1 19 -7 -4 -8 -3 -9 4 -5 7 4 22 9 34 11 23
5 38 21 38 43 0 7 5 10 11 6 8 -5 8 -1 0 13 -7 14 -7 24 2 33 7 7 7 10 2 7
-15 -8 -38 30 -24 39 8 4 7 9 -2 15 -12 7 -11 9 0 9 11 0 10 4 -5 16 -19 15
-19 16 0 9 20 -6 20 -6 0 16 -10 12 -14 19 -8 16 16 -9 25 18 11 32 -6 6 -7
11 -2 11 6 0 3 5 -5 10 -11 8 -7 9 15 5 23 -5 26 -4 14 4 -11 7 -15 19 -11 36
2 14 -1 31 -7 39 -9 11 -8 15 4 20 9 3 13 2 10 -4 -3 -5 -2 -18 4 -27 7 -14 9
-11 8 12 -1 17 -6 33 -12 37 -6 5 -5 8 3 8 6 0 12 8 12 18 0 10 15 30 33 46
30 27 30 28 7 21 -25 -8 -25 -7 -6 13 18 21 18 21 -3 17 -12 -2 -19 0 -16 6 4
5 14 9 23 9 16 1 16 2 0 14 -19 14 -25 32 -8 21 6 -3 10 1 10 10 0 9 -4 13
-10 10 -5 -3 -10 -1 -10 4 0 6 5 11 11 11 6 0 4 7 -5 15 -16 17 -11 45 8 45 6
1 0 7 -14 15 -14 8 -20 14 -15 15 6 0 15 11 22 25 6 14 7 23 2 19 -5 -3 -9 2
-9 10 0 9 6 16 13 16 8 0 9 3 1 8 -17 11 -27 62 -12 62 9 0 9 3 2 8 -16 11
-24 41 -13 47 5 4 7 17 5 31 -3 14 0 24 7 24 7 0 4 5 -6 11 -9 6 -15 15 -11
20 3 5 0 16 -6 24 -10 12 -9 15 4 15 14 0 15 2 4 14 -7 8 -16 12 -20 9 -11 -6
-10 9 1 26 5 8 3 23 -4 38 -8 14 -11 32 -8 39 3 9 -2 14 -13 15 -18 0 -17 1 1
9 11 5 14 9 6 9 -10 1 -11 4 -2 15 9 11 9 16 0 22 -8 5 -9 3 -4 -6 5 -9 4 -11
-4 -6 -9 6 -9 11 0 22 9 11 8 14 -5 14 -10 0 -14 5 -11 10 4 6 10 8 15 5 9 -6
6 28 -4 44 -4 5 0 12 6 14 7 3 4 6 -7 6 -17 1 -17 3 -5 11 8 5 12 10 8 10 -5
0 0 8 10 18 9 11 20 17 24 15 4 -2 5 2 2 10 -3 8 2 20 11 27 10 9 12 16 5 25
-5 6 -8 28 -7 48 2 22 -2 42 -10 48 -7 6 -10 16 -6 23 11 17 12 37 2 30 -5 -3
-7 -9 -5 -13 3 -4 -1 -8 -9 -8 -12 0 -12 3 -2 15 9 12 9 16 -1 19 -6 3 -9 9
-6 15 4 6 -3 5 -16 -2 l-21 -11 18 27 c12 19 13 25 4 19 -11 -6 -13 -4 -8 9 4
11 3 15 -4 11 -6 -4 -9 -1 -8 6 3 21 -12 49 -26 49 -18 0 -24 21 -14 42 8 14
5 16 -13 13 -23 -4 -23 -4 -3 12 20 15 20 15 -1 11 -13 -3 -21 0 -21 8 0 7 5
10 11 7 6 -3 6 0 -1 7 -10 11 -15 11 -30 -1 -10 -7 -7 0 7 15 19 23 21 28 7
23 -11 -4 -17 -2 -16 6 3 18 -12 51 -28 60 -7 5 -11 12 -8 16 2 5 -3 8 -13 7
-9 0 -17 4 -18 9 0 6 9 9 20 8 19 -3 19 -2 -2 7 -13 6 -29 7 -35 4 -9 -5 -9
-3 0 6 14 16 -10 45 -31 37 -7 -3 -13 1 -13 9 0 7 4 11 9 8 4 -3 8 -1 8 4 0 6
-7 13 -16 16 -9 3 -14 12 -11 20 4 10 -1 12 -16 9 -18 -4 -19 -3 -7 6 13 9 13
11 -2 11 -9 0 -20 9 -23 21 -5 15 -10 17 -20 9 -11 -9 -12 -7 -8 11 6 20 4 22
-28 16 l-34 -7 25 16 25 15 -28 -4 c-21 -3 -25 -1 -16 9 8 9 5 16 -12 24 -17
10 -23 9 -30 -1 -5 -8 -9 -9 -9 -3 0 5 6 16 13 23 10 11 9 12 -2 6 -11 -6 -13
-4 -7 10 6 16 4 16 -10 4 -15 -12 -16 -11 -10 11 4 14 4 21 -1 15 -13 -16 -42
-15 -36 1 3 8 10 11 16 7 6 -4 7 -1 2 7 -6 10 -12 9 -24 -7 -21 -25 -43 -7
-34 28 5 23 5 23 -9 6 -14 -18 -14 -18 -29 0 -13 16 -13 17 4 4 9 -7 17 -9 17
-3 0 16 -25 21 -43 7 -9 -6 -15 -14 -12 -17 3 -2 -1 -5 -9 -5 -11 0 -12 4 -3
18 6 10 15 15 19 13 4 -3 8 5 7 18 0 13 -3 18 -5 12 -6 -14 -44 -6 -59 11 -5
7 -19 15 -29 19 -14 5 -16 4 -8 -6 8 -10 4 -13 -18 -13 -16 0 -28 4 -27 8 1 5
-8 13 -21 18 -14 5 -21 5 -17 0 3 -5 1 -13 -5 -16 -6 -4 -10 -3 -9 2 5 29 -2
33 -30 18 -22 -11 -32 -12 -37 -3 -4 6 -3 8 4 4 6 -3 13 -2 17 3 3 6 -6 8 -21
5 -15 -3 -30 0 -34 6 -5 8 -9 7 -13 -3z"/>
<path d="M2443 7325 c0 -8 5 -15 10 -15 6 0 8 -2 5 -5 -10 -10 -38 7 -31 19 4
6 -1 5 -11 -3 -15 -13 -19 -13 -28 0 -8 11 -8 9 -3 -6 4 -15 3 -17 -5 -9 -18
18 -59 5 -55 -17 2 -11 0 -17 -6 -14 -5 4 -7 10 -4 15 3 4 -2 13 -10 20 -13
11 -14 10 -10 -3 4 -8 1 -18 -6 -23 -8 -4 -10 -3 -5 4 5 8 2 10 -9 6 -12 -5
-13 -10 -4 -20 6 -8 16 -11 22 -7 6 3 7 1 3 -5 -7 -12 -46 5 -46 20 0 9 -28 4
-40 -8 -7 -7 -6 -11 4 -11 8 0 12 5 9 11 -4 6 1 5 10 -3 22 -18 21 -21 -3 -16
-11 2 -20 -1 -20 -7 0 -5 -9 0 -21 13 -11 13 -18 18 -14 12 4 -8 0 -13 -10
-13 -8 0 -18 7 -22 16 -4 12 -8 13 -14 3 -6 -10 -11 -10 -26 1 -15 12 -15 11
2 -9 l20 -24 -22 12 c-29 15 -58 4 -42 -15 10 -12 9 -13 -5 -8 -9 3 -16 1 -16
-5 0 -6 -5 -11 -11 -11 -5 0 -7 6 -3 13 6 9 5 9 -8 0 -8 -7 -19 -9 -24 -5 -4
4 -2 -1 5 -11 12 -15 12 -17 -3 -11 -9 3 -16 2 -16 -3 0 -4 -9 -14 -21 -21
-12 -8 -18 -9 -14 -3 3 6 2 11 -3 11 -16 0 -22 -13 -12 -26 8 -9 6 -12 -7 -10
-10 0 -22 6 -26 11 -5 6 -7 1 -4 -11 2 -11 -1 -21 -7 -22 -66 -7 -90 -18 -82
-38 3 -8 -1 -14 -8 -14 -8 0 -21 -10 -30 -22 -16 -23 -16 -23 -6 -1 5 12 15
25 20 28 6 3 10 11 10 17 0 6 -9 -1 -21 -16 -11 -14 -25 -23 -31 -20 -6 4 -8
-1 -4 -12 4 -13 -1 -24 -17 -33 -17 -11 -19 -11 -9 0 18 19 15 33 -4 15 -8 -9
-21 -13 -27 -9 -7 3 -3 -4 8 -18 11 -13 16 -21 11 -17 -5 4 -16 2 -24 -4 -8
-7 -21 -13 -30 -14 -40 -6 -62 -15 -62 -25 0 -8 4 -8 14 0 11 9 16 9 22 -1 4
-7 4 -10 -1 -6 -4 4 -14 3 -22 -3 -7 -6 -13 -8 -13 -5 0 4 -9 2 -20 -4 -11 -6
-18 -15 -15 -21 4 -5 3 -9 -2 -7 -4 1 -24 -6 -43 -15 -19 -10 -26 -15 -15 -12
20 6 20 6 0 -13 -11 -11 -24 -19 -30 -18 -5 0 -9 -5 -7 -12 1 -7 -9 -17 -23
-22 -14 -5 -25 -12 -25 -15 0 -4 6 -3 13 1 6 4 3 -2 -8 -13 -11 -11 -23 -18
-28 -16 -4 2 -10 -3 -13 -11 -3 -9 -11 -13 -18 -9 -6 4 -6 0 2 -9 11 -13 10
-16 -5 -14 -10 0 -18 -4 -18 -11 0 -15 -15 -30 -15 -14 0 7 -5 9 -10 6 -6 -4
-8 -10 -5 -15 7 -11 -30 -32 -39 -22 -4 3 -4 -2 0 -12 5 -13 4 -17 -4 -12 -6
3 -13 2 -17 -4 -3 -5 -1 -10 4 -10 6 0 11 -5 11 -11 0 -5 -4 -8 -9 -4 -5 3
-15 -1 -23 -8 -7 -7 -22 -19 -33 -26 -15 -9 -16 -11 -2 -7 11 3 17 0 17 -9 0
-9 -6 -12 -17 -8 -11 4 -14 3 -9 -5 6 -11 -5 -16 -26 -13 -4 0 -4 -7 -1 -16 4
-9 -1 -21 -12 -29 -10 -7 -23 -24 -29 -36 -7 -13 -19 -22 -28 -22 -9 1 -14 -4
-12 -10 3 -7 -9 -22 -27 -35 -22 -16 -29 -29 -26 -43 4 -14 2 -17 -7 -9 -9 8
-12 5 -12 -12 1 -16 -4 -22 -18 -20 -13 1 -15 -2 -7 -10 16 -16 13 -27 -6 -20
-11 4 -14 3 -9 -5 4 -7 3 -12 -2 -12 -6 0 -13 -7 -16 -16 -6 -15 -4 -15 11 -3
17 13 17 13 3 -6 -8 -11 -23 -30 -34 -42 -11 -13 -16 -23 -11 -23 4 0 0 -9
-10 -20 -10 -11 -21 -17 -26 -14 -4 2 -6 -5 -4 -17 2 -12 2 -19 -2 -15 -9 9
-35 -32 -28 -44 4 -6 3 -10 -2 -9 -19 3 -34 -2 -29 -10 3 -5 -1 -12 -10 -15
-9 -4 -14 -13 -10 -21 3 -9 -1 -18 -9 -21 -8 -4 -12 -10 -9 -15 3 -5 0 -9 -6
-9 -7 0 -9 -7 -6 -16 3 -8 2 -12 -4 -9 -6 3 -10 -1 -10 -9 0 -9 -4 -16 -9 -16
-5 0 -12 -7 -15 -16 -5 -14 -4 -15 8 -5 11 9 16 9 22 0 4 -8 3 -9 -4 -5 -7 4
-12 1 -12 -8 0 -9 -4 -16 -10 -16 -5 0 -10 -5 -10 -11 0 -5 4 -7 10 -4 6 3 7
-1 4 -9 -3 -9 -11 -13 -17 -9 -5 3 -7 1 -3 -5 3 -5 0 -13 -6 -16 -7 -3 -2 -3
12 0 24 5 24 4 6 -10 -11 -9 -16 -16 -10 -16 5 0 1 -5 -9 -11 -13 -8 -15 -14
-7 -29 13 -25 13 -33 -2 -24 -8 5 -7 0 2 -11 14 -17 13 -18 -4 -12 -15 6 -17
5 -7 -6 13 -17 -10 -72 -25 -59 -4 4 -2 -1 5 -10 7 -10 9 -23 5 -30 -12 -19
-14 -39 -3 -33 5 4 7 -12 5 -35 -2 -22 -1 -38 3 -35 4 2 8 -2 8 -10 0 -8 -4
-12 -7 -10 -4 3 -7 -6 -7 -19 0 -18 4 -23 16 -19 10 3 12 2 6 -4 -6 -4 -12
-21 -13 -38 -1 -28 -8 -70 -12 -70 -1 0 -3 -10 -4 -22 -2 -17 0 -20 10 -12 9
8 11 5 7 -10 -3 -12 -9 -19 -12 -16 -4 2 -8 -2 -8 -10 0 -8 5 -11 10 -8 6 4 8
0 4 -10 -4 -12 -2 -14 11 -10 15 6 15 5 3 -10 -9 -11 -10 -17 -2 -17 6 0 11
-5 11 -11 0 -5 -4 -7 -10 -4 -6 3 -10 -3 -10 -14 0 -11 4 -23 10 -26 6 -4 7 1
3 12 -3 10 -3 15 1 11 4 -3 9 -14 10 -23 1 -9 9 -21 17 -26 10 -8 7 -9 -11 -4
-24 6 -24 5 -6 -9 18 -15 15 -21 -7 -17 -5 1 -6 -3 -2 -9 3 -6 9 -9 13 -6 4 2
18 -10 32 -27 14 -17 18 -27 10 -22 -22 14 -50 16 -50 5 0 -6 3 -9 7 -9 22 4
32 -3 35 -23 2 -13 9 -22 16 -20 10 2 10 -2 0 -17 -7 -11 -16 -17 -22 -14 -5
4 -6 1 -2 -6 5 -7 14 -10 22 -7 7 3 16 1 19 -5 4 -5 1 -8 -7 -7 -16 4 -11 -53
6 -64 8 -6 8 -8 -1 -8 -7 0 -17 8 -22 18 -6 9 -11 12 -11 5 0 -6 5 -15 10 -18
8 -5 7 -11 -1 -21 -9 -11 -8 -14 5 -14 10 0 14 5 11 10 -3 6 -2 10 3 10 11 0
25 -30 17 -38 -3 -3 -5 0 -5 6 0 9 -5 9 -20 0 -22 -14 -7 -30 19 -20 9 3 5 -4
-9 -16 -14 -12 -19 -21 -11 -20 7 2 16 -3 18 -10 3 -8 -1 -10 -11 -6 -14 5
-15 2 -7 -18 6 -15 5 -31 -1 -44 -9 -18 -9 -18 6 -1 8 11 12 26 9 35 -4 14 -3
14 5 3 6 -9 7 -23 1 -38 -5 -12 -6 -23 -3 -23 4 0 0 -8 -7 -17 -13 -16 -12
-17 3 -4 10 7 15 17 12 22 -3 5 -1 9 5 9 5 0 9 -9 8 -20 -1 -11 -5 -20 -9 -20
-4 0 -8 -7 -8 -15 0 -8 3 -14 8 -13 4 2 7 -1 7 -7 0 -5 -7 -9 -15 -8 -10 1 -9
-3 5 -13 11 -8 25 -12 32 -10 7 3 15 1 18 -5 4 -5 3 -9 -2 -8 -19 3 -33 -2
-33 -12 0 -5 4 -8 9 -5 5 4 8 -2 7 -11 -2 -9 -8 -19 -15 -21 -8 -3 -6 -8 6
-17 15 -10 18 -24 17 -64 -1 -28 2 -51 7 -51 5 0 9 5 9 10 0 6 5 10 10 10 6 0
3 -11 -7 -24 -10 -13 -22 -21 -28 -18 -5 3 -4 -2 4 -11 14 -18 26 -24 17 -8
-3 5 2 15 12 22 15 13 16 12 3 -3 -13 -17 -8 -23 13 -19 5 1 4 -5 -3 -13 -7
-8 -9 -21 -5 -27 4 -7 3 -9 -3 -6 -6 4 -13 -2 -16 -14 -5 -17 -3 -18 9 -8 12
10 13 9 8 -5 -5 -12 -2 -15 12 -10 15 5 16 4 4 -4 -8 -6 -18 -8 -22 -6 -4 3
-8 1 -8 -5 0 -5 6 -11 13 -13 6 -3 13 -18 13 -34 1 -16 2 -37 3 -47 1 -10 6
-15 11 -12 6 4 8 10 6 14 -3 4 1 8 9 8 11 0 12 -4 4 -13 -7 -8 -7 -14 1 -19 5
-3 10 -12 9 -18 0 -9 -2 -9 -6 1 -7 19 -19 14 -20 -8 -1 -13 2 -18 10 -13 7 4
6 0 -2 -10 -7 -9 -10 -17 -5 -17 5 0 2 -5 -6 -10 -11 -7 -11 -10 -2 -10 7 0
10 -5 6 -12 -4 -7 -3 -8 5 -4 7 5 17 -5 26 -28 8 -19 23 -40 32 -45 10 -6 14
-11 9 -11 -5 0 -18 7 -28 17 -12 10 -18 12 -18 4 0 -7 -6 -9 -12 -5 -7 3 1 -6
17 -20 17 -14 25 -25 18 -24 -6 2 -11 -1 -11 -7 0 -5 4 -9 10 -7 5 1 6 -2 3
-8 -4 -6 -13 -9 -19 -7 -7 3 -13 -1 -13 -9 0 -7 4 -11 8 -8 4 2 7 -9 7 -25 -1
-19 -5 -28 -12 -24 -6 4 -5 -1 3 -10 7 -9 19 -17 25 -17 6 0 4 5 -4 11 -13 9
-13 10 0 6 9 -2 14 -14 13 -32 -3 -35 -11 -44 -23 -25 -7 11 -10 11 -10 2 0
-7 7 -15 15 -18 13 -5 13 -9 3 -22 -10 -12 -10 -14 0 -8 16 9 16 -16 0 -32 -8
-8 -9 -12 -1 -12 6 0 9 -9 6 -20 -3 -11 -9 -18 -13 -15 -11 7 1 -39 12 -46 6
-3 2 -9 -7 -12 -9 -4 -13 -3 -10 2 3 5 2 12 -3 15 -4 2 -8 -6 -8 -19 0 -13 4
-21 8 -19 4 3 8 -4 8 -16 0 -13 -4 -18 -11 -15 -6 4 -5 -2 3 -14 7 -12 16 -21
21 -21 4 0 5 -5 2 -10 -5 -8 -11 -8 -19 -1 -9 8 -13 7 -13 -4 0 -8 2 -13 5
-10 4 4 32 -20 32 -28 0 -2 -7 -4 -15 -4 -8 0 -12 5 -9 11 3 6 -1 3 -9 -6 -8
-10 -18 -14 -22 -10 -5 4 -5 1 -1 -6 4 -7 12 -10 17 -7 5 4 9 -1 9 -9 0 -10
-6 -13 -17 -9 -11 4 -14 3 -9 -5 4 -7 3 -12 -3 -12 -5 0 -8 -8 -6 -17 1 -10
-2 -23 -7 -30 -6 -7 -5 -14 2 -18 6 -4 9 -1 8 6 -2 7 5 15 16 17 12 3 16 0 11
-8 -6 -9 -3 -9 12 -1 11 6 23 7 27 3 4 -3 4 2 0 11 -3 10 -3 17 2 16 22 -4 34
2 34 19 0 14 2 15 10 2 6 -10 10 -11 10 -2 0 6 5 12 11 12 6 0 17 7 26 15 8 8
19 13 24 10 5 -4 9 -2 9 4 0 6 7 7 17 4 10 -4 14 -2 10 4 -3 5 0 10 8 10 12 0
12 -3 3 -15 -10 -12 -7 -13 20 -11 17 2 32 -1 32 -6 0 -6 -9 -9 -20 -9 -11 1
-17 -2 -15 -6 3 -5 13 -7 23 -6 9 2 20 -2 24 -8 4 -6 8 3 8 19 l1 30 11 -25
c6 -14 11 -35 12 -47 1 -12 6 -26 10 -30 5 -4 6 -3 3 3 -4 7 3 11 18 12 14 0
22 -5 18 -11 -4 -6 -1 -7 7 -2 10 6 12 4 7 -8 -3 -10 -2 -17 3 -17 6 0 10 7
10 15 0 8 5 15 11 15 5 0 8 -4 4 -9 -3 -6 5 -15 17 -22 22 -12 22 -11 8 6 -14
17 -14 17 18 1 17 -9 33 -14 33 -11 5 21 4 32 -5 44 -8 11 -8 13 0 8 7 -4 14
0 18 8 3 8 0 17 -6 21 -7 4 -8 3 -4 -4 5 -8 1 -10 -10 -5 -11 4 -13 8 -6 11 7
2 10 8 7 13 -4 5 2 6 11 2 11 -4 15 -3 11 4 -4 6 -1 14 5 17 7 3 1 3 -13 1
-16 -2 -26 2 -26 10 0 7 5 12 11 11 6 -2 7 -1 3 2 -4 2 -2 11 5 20 12 14 11
14 -10 1 -20 -12 -26 -12 -52 3 -31 18 -39 12 -17 -12 10 -12 9 -12 -5 -1 -9
7 -16 21 -15 32 2 23 -1 23 27 -1 28 -24 34 -25 50 -5 8 9 8 15 2 15 -6 0 -13
-6 -15 -12 -3 -8 -6 -5 -6 5 -1 10 -5 16 -10 12 -6 -3 -15 5 -21 17 -9 19 -9
21 2 8 7 -8 22 -16 33 -18 19 -2 19 -2 2 9 -14 8 -16 14 -6 25 6 8 7 14 2 14
-5 0 -9 9 -10 20 -1 11 2 18 6 16 4 -3 7 7 6 22 -1 15 3 30 9 34 7 5 3 8 -9 8
-18 1 -17 2 4 11 18 7 21 12 12 23 -9 11 -9 15 1 19 7 3 -1 4 -18 2 -29 -3
-31 -1 -28 27 2 16 7 34 11 40 4 8 0 9 -12 4 -15 -5 -16 -4 -5 9 7 8 16 12 21
9 5 -3 9 0 9 6 0 7 -6 10 -14 7 -15 -6 -16 48 -2 72 4 6 3 11 -3 11 -5 0 -9 9
-8 20 1 11 4 20 8 20 8 0 4 98 -4 107 -4 3 0 14 9 24 12 13 12 19 3 25 -7 4
-10 3 -6 -3 3 -5 0 -10 -8 -10 -11 0 -12 3 -3 14 6 8 16 12 23 9 7 -2 11 5 10
17 -1 12 2 30 7 41 7 13 7 16 -1 12 -6 -4 -11 -2 -11 3 0 6 4 11 8 11 5 0 9 7
9 15 0 12 -3 12 -16 2 -14 -11 -14 -10 -2 6 8 10 14 34 13 53 -1 33 0 35 16
23 15 -12 15 -11 -1 8 -10 11 -18 31 -18 44 0 13 1 35 1 48 0 14 6 28 12 33 9
5 9 11 3 16 -14 10 -17 32 -4 30 6 -2 14 3 17 11 2 8 0 11 -6 7 -16 -10 -8 36
12 66 12 19 14 27 5 30 -7 2 -13 14 -14 26 -1 16 1 19 11 11 8 -7 14 -6 20 2
4 8 3 9 -4 5 -13 -7 -17 6 -6 17 10 10 12 77 2 77 -5 0 -7 -4 -4 -8 2 -4 1
-14 -5 -22 -6 -10 -9 -11 -9 -2 0 6 1 14 3 15 1 2 -4 11 -10 19 -10 12 -10 15
2 15 8 0 11 -5 8 -10 -3 -6 -1 -7 5 -4 15 10 9 35 -14 53 -18 15 -18 15 3 5
28 -14 54 -14 31 0 -10 5 -18 15 -18 20 0 6 4 8 9 5 5 -3 12 1 15 10 3 8 2 12
-4 9 -17 -10 -11 7 8 22 9 8 11 12 5 8 -16 -8 -17 17 -1 33 9 9 9 12 -2 12
-10 0 -11 3 -3 11 13 13 6 42 -8 33 -11 -7 -6 33 6 43 4 5 5 3 1 -4 -3 -6 -3
-14 2 -17 4 -2 9 4 9 15 1 10 -2 19 -8 19 -5 0 -9 4 -9 9 0 6 9 8 19 6 18 -3
22 9 9 30 -3 6 -5 27 -3 47 2 33 0 36 -14 25 -14 -10 -14 -10 -4 4 7 9 9 20 5
24 -4 5 -2 5 4 2 7 -4 15 0 18 9 3 8 2 12 -4 9 -6 -3 -11 -1 -11 4 -3 26 -4
30 -11 36 -15 15 4 36 21 23 11 -8 10 -5 -3 10 -11 12 -15 22 -11 22 5 0 1 6
-10 13 -10 8 -15 19 -11 25 4 7 3 12 -3 12 -6 0 -7 7 -4 17 4 11 3 14 -5 9 -8
-5 -10 -1 -5 10 5 13 3 15 -8 9 -11 -6 -12 -5 -1 6 6 7 12 17 12 22 0 4 -6 5
-12 1 -9 -6 -9 -3 0 9 8 9 11 21 7 28 -6 8 -2 8 14 0 17 -10 20 -9 15 4 -4 8
-1 15 5 15 12 0 11 21 -2 31 -4 3 -5 14 -1 24 7 17 8 17 20 0 12 -15 13 -14
10 10 -2 15 -9 31 -17 37 -11 8 -10 8 5 4 15 -5 18 -2 14 19 -3 14 -1 28 5 32
6 4 7 1 2 -7 -5 -9 -4 -11 4 -6 9 6 9 11 -1 24 -11 14 -10 15 6 8 20 -7 20 -6
1 14 -18 20 -18 20 -1 14 15 -6 17 -3 11 16 -4 13 -3 20 2 17 5 -4 10 0 10 8
0 8 -5 11 -10 8 -6 -3 -7 -1 -3 5 4 7 14 12 22 12 14 0 13 2 0 16 -18 17 -21
28 -6 19 5 -3 15 5 21 19 7 14 16 23 22 19 6 -4 7 -1 2 6 -5 9 -14 6 -33 -11
-15 -13 -21 -16 -14 -7 6 9 8 20 4 24 -4 5 -1 5 6 1 7 -4 12 -1 12 9 0 9 5 13
10 10 6 -3 10 -1 10 5 0 6 4 8 10 5 6 -4 7 1 3 11 -4 11 -2 15 4 11 12 -8 36
17 26 26 -6 7 12 11 30 8 5 -1 6 3 2 9 -4 7 -12 7 -25 0 -24 -13 -30 -13 -30
1 0 5 4 8 8 5 4 -2 19 5 32 16 14 11 20 17 13 14 -16 -8 -10 24 6 34 8 4 11
12 7 18 -3 6 0 16 7 24 8 7 12 19 9 27 -3 10 0 11 9 5 11 -6 10 -3 -1 11 -11
14 -11 17 -2 11 11 -7 13 3 10 48 -2 40 1 57 11 61 11 4 11 8 1 20 -11 14 -7
19 12 16 4 0 5 6 2 13 -3 9 4 19 17 26 17 10 19 14 8 21 -11 7 -9 9 6 7 40 -3
56 2 49 15 -5 8 -2 7 9 -2 16 -12 17 -12 10 5 -6 17 -5 18 12 4 17 -14 17 -13
12 10 -4 14 -4 19 -1 12 5 -10 10 -9 21 5 13 16 13 16 3 -6 -9 -18 -9 -26 1
-35 8 -7 10 -7 6 0 -4 6 0 20 9 30 14 18 15 18 9 -6 -5 -19 -4 -22 4 -10 9 12
13 13 20 2 7 -11 9 -11 14 2 3 8 1 18 -5 22 -7 5 -8 2 -3 -7 5 -8 4 -10 0 -6
-12 10 -16 39 -5 32 5 -3 11 -1 15 4 3 6 13 7 23 4 15 -6 15 -5 3 10 -8 10
-11 20 -7 24 3 3 6 1 6 -6 0 -7 5 -9 10 -6 6 4 7 12 3 18 -4 7 2 5 12 -3 11
-9 16 -10 11 -2 -4 6 -2 12 3 12 6 0 11 7 11 15 0 8 5 15 11 15 5 0 7 -4 4
-10 -3 -5 -1 -10 5 -10 6 0 8 13 6 33 -3 17 -3 26 0 19 3 -6 11 -9 16 -6 6 4
8 2 4 -4 -3 -6 -2 -14 4 -17 6 -4 10 -3 9 2 -4 16 13 43 24 36 6 -4 8 0 4 10
-4 12 -2 14 11 10 15 -6 15 -5 3 10 -12 15 -12 17 4 11 13 -5 16 -4 11 5 -6 8
-2 11 9 9 10 -2 20 3 23 11 3 9 0 11 -8 6 -9 -5 -11 -4 -6 4 4 6 11 9 16 6 4
-3 14 3 21 12 12 14 12 15 1 9 -11 -7 -12 -4 -4 10 5 11 7 26 5 34 -4 13 -3
13 6 0 5 -8 7 -18 4 -24 -4 -5 -1 -6 6 -2 7 5 10 14 7 21 -3 9 2 12 14 10 14
-3 17 1 13 13 -3 9 -3 14 1 10 4 -4 22 9 38 28 18 20 37 33 45 30 8 -3 11 -1
8 4 -3 6 -2 10 4 10 6 0 8 8 4 18 -3 9 -3 14 2 10 4 -4 14 0 20 9 10 13 16 15
27 6 9 -8 19 -9 28 -3 21 14 32 12 24 -2 -6 -10 -5 -10 7 -1 9 8 20 9 29 3 20
-13 53 -13 45 0 -4 6 1 7 11 3 12 -5 15 -3 9 6 -6 10 -3 11 13 2 30 -16 39
-14 16 4 -18 15 -18 15 0 8 14 -5 17 -3 11 7 -5 8 -4 11 3 6 5 -3 13 0 15 6 4
10 6 10 6 0 1 -7 6 -10 13 -6 7 5 8 3 3 -6 -8 -13 42 -63 55 -55 5 3 10 0 12
-7 3 -8 7 -6 11 5 3 9 2 17 -3 17 -6 0 -10 5 -10 12 0 6 7 4 18 -5 10 -10 21
-15 24 -12 2 3 5 -2 5 -10 0 -11 -4 -12 -13 -4 -10 8 -10 6 -1 -15 11 -23 12
-24 19 -5 4 10 13 19 20 19 10 0 10 -2 -1 -9 -16 -10 -3 -20 22 -16 9 2 15 -1
11 -6 -3 -5 -10 -7 -15 -4 -5 4 -9 2 -9 -4 0 -5 9 -13 20 -16 18 -6 18 -8 5
-21 -20 -21 -19 -30 2 -13 15 12 16 12 10 -3 -7 -21 11 -36 41 -33 12 1 22 -3
22 -8 0 -5 8 -16 18 -23 16 -13 16 -14 -3 -8 -15 4 -13 1 5 -10 16 -10 19 -15
10 -16 -13 0 -13 -1 0 -10 8 -5 11 -10 6 -10 -5 0 -3 -6 3 -13 6 -8 8 -16 6
-19 -3 -3 6 -4 20 -2 22 2 24 0 14 -12 -10 -12 -9 -13 4 -9 9 4 21 -2 30 -15
11 -15 16 -18 20 -8 5 13 10 -11 8 -42 0 -9 2 -10 5 -3 3 7 12 9 20 6 7 -3 11
-9 8 -14 -6 -10 25 0 44 14 9 7 11 6 6 -7 -4 -10 2 -23 16 -34 18 -14 19 -19
7 -19 -9 0 -14 3 -12 7 2 3 -4 11 -14 17 -14 9 -18 8 -18 -3 0 -7 4 -11 9 -8
4 3 8 -2 8 -10 0 -9 7 -16 15 -16 9 0 12 -6 8 -17 -5 -13 -2 -15 11 -10 10 4
15 3 11 -3 -3 -6 -13 -10 -21 -10 -8 0 -14 -4 -14 -10 0 -5 3 -9 8 -9 21 4 28
-3 27 -23 -1 -13 2 -29 7 -35 6 -7 8 -20 4 -28 -3 -9 0 -15 10 -15 8 0 12 -5
9 -10 -4 -6 -11 -7 -17 -4 -6 4 -6 -1 1 -14 14 -26 14 -35 1 -27 -6 4 -7 -2
-1 -18 7 -17 6 -28 -2 -36 -7 -7 -7 -12 -2 -11 22 5 36 0 30 -10 -4 -6 -10 -8
-14 -6 -4 3 -8 -1 -8 -9 0 -8 5 -13 11 -12 6 1 10 -5 8 -13 -3 -11 1 -10 17 4
20 18 20 18 16 -15 -3 -21 -1 -29 4 -20 10 16 20 3 16 -22 -3 -15 -1 -16 11
-6 8 6 17 9 21 5 4 -3 -2 -13 -13 -21 -18 -14 -18 -14 4 -10 18 3 22 -1 22
-21 0 -17 4 -23 12 -18 6 4 8 3 5 -3 -3 -5 0 -20 7 -34 7 -13 11 -30 8 -37 -2
-6 5 -12 15 -12 15 0 16 2 3 10 -8 5 -10 10 -4 10 6 0 18 -8 25 -17 8 -10 9
-14 2 -10 -6 4 -14 3 -17 -2 -3 -5 4 -11 15 -14 12 -3 18 -10 14 -16 -3 -6 1
-18 9 -27 9 -9 14 -19 11 -24 -3 -5 4 -11 15 -15 11 -3 20 -13 20 -21 0 -8 7
-15 15 -15 8 -1 20 -2 27 -3 15 -1 22 -23 9 -31 -7 -4 -8 1 -4 12 6 15 5 16
-9 3 -11 -10 -12 -17 -4 -26 6 -6 13 -8 16 -4 3 4 14 4 25 -1 17 -6 17 -8 3
-8 -32 -2 -19 -21 15 -22 27 0 29 -2 12 -9 l-20 -9 20 0 c17 -1 17 -3 5 -11
-8 -5 -10 -10 -5 -10 6 0 17 6 24 13 11 10 13 9 7 -6 -4 -14 0 -20 14 -24 10
-3 22 -13 25 -22 3 -9 15 -17 27 -18 23 -2 23 -2 -2 18 -21 18 -22 19 -3 10
28 -14 54 -51 46 -65 -3 -6 -3 -8 2 -4 4 4 14 3 22 -3 7 -6 13 -8 13 -4 0 4
-8 14 -17 21 -17 13 -17 14 0 8 10 -4 17 -1 17 6 0 6 5 8 11 4 8 -4 7 -9 -2
-15 -10 -6 -11 -9 -1 -9 6 0 11 -5 10 -12 -4 -15 53 -19 71 -4 11 8 13 8 7 -1
-4 -7 -2 -13 3 -13 6 0 11 6 11 14 0 8 5 18 12 22 6 4 8 3 4 -4 -3 -6 -1 -14
5 -18 8 -4 9 -3 5 4 -4 7 -2 12 5 12 9 0 9 3 0 14 -10 12 -8 14 11 10 21 -5
21 -4 5 6 -14 9 -16 15 -6 26 9 11 8 14 -2 14 -11 0 -11 2 1 10 10 6 11 10 3
10 -7 0 -13 5 -13 11 0 6 8 8 18 5 14 -5 14 -4 -2 9 -11 8 -15 15 -9 15 6 0
10 8 8 18 -1 9 1 27 6 39 5 14 4 25 -2 29 -8 4 -7 9 1 14 8 5 7 12 -5 24 -9 9
-12 16 -6 16 6 0 11 5 11 11 0 5 -4 7 -10 4 -5 -3 -10 1 -10 9 0 8 5 18 10 21
7 4 5 14 -4 27 -8 11 -12 27 -9 34 3 8 0 14 -6 14 -6 0 -10 -5 -9 -11 2 -6 -4
-14 -12 -16 -12 -4 -12 -3 -2 5 8 5 13 12 13 16 -3 20 1 25 17 20 15 -5 15 -4
-1 6 -15 10 -16 14 -5 28 11 13 10 15 -5 9 -15 -5 -16 -4 -7 13 13 25 13 27
-6 34 -14 5 -15 4 -4 -9 7 -8 8 -15 2 -15 -14 0 -23 27 -15 47 5 12 3 14 -7 8
-10 -6 -12 -4 -7 8 3 8 -1 21 -9 27 -19 16 -18 28 4 33 16 4 16 5 0 6 -18 1
-22 11 -18 41 1 10 -3 9 -13 -5 -12 -15 -13 -23 -4 -34 10 -12 9 -12 -10 -1
-12 8 -20 17 -17 21 2 4 0 10 -6 14 -6 4 -8 11 -4 16 3 6 -2 19 -11 29 -16 18
-16 18 7 14 21 -4 20 -3 -4 9 -19 9 -24 17 -19 26 7 11 9 11 14 0 3 -8 4 -4 4
8 -1 12 -5 19 -9 17 -4 -3 -8 0 -8 6 0 6 -6 8 -12 4 -10 -6 -10 -4 0 7 6 7 12
21 12 30 0 10 6 20 13 22 9 4 9 6 -1 6 -7 1 -10 5 -7 11 4 6 -1 7 -12 4 -17
-5 -17 -5 0 9 16 13 16 15 1 21 -13 5 -14 9 -4 21 10 12 10 15 0 15 -8 0 -10
3 -7 7 4 3 0 17 -9 31 -9 13 -12 22 -7 19 5 -4 10 1 10 9 0 8 -6 13 -13 10 -9
-3 -11 1 -7 11 5 12 3 14 -7 8 -9 -5 -11 -4 -6 4 6 9 11 9 23 -1 15 -12 15
-11 3 9 -8 12 -19 19 -25 16 -5 -3 -4 0 3 8 17 18 15 29 -5 29 -14 0 -15 2 -4
9 11 7 10 11 -5 20 -17 9 -17 10 6 11 18 0 21 3 11 9 -7 5 -10 14 -7 20 9 14
-16 10 -26 -4 -5 -7 -8 -7 -9 0 0 6 -2 18 -4 28 -2 9 1 15 6 11 5 -3 7 -10 4
-15 -3 -5 1 -6 10 -3 13 6 13 8 -3 23 -11 9 -18 28 -18 43 1 14 -1 25 -4 23
-3 -2 -12 0 -20 6 -13 7 -13 9 0 9 13 0 13 1 0 10 -12 8 -12 10 5 11 11 0 14
3 7 6 -6 2 -10 8 -7 13 3 4 -4 19 -16 31 -15 18 -22 20 -26 11 -4 -10 -9 -7
-20 8 -12 17 -13 24 -4 33 9 9 11 8 6 -4 -4 -10 -2 -20 4 -24 17 -10 13 31 -4
45 -8 7 -13 23 -11 35 4 19 1 22 -16 17 -14 -3 -19 -1 -14 6 4 7 2 12 -3 12
-6 0 -11 -5 -11 -12 0 -6 -3 -8 -6 -5 -4 4 -2 12 4 20 7 8 7 18 2 27 -7 10
-10 11 -10 3 0 -7 -5 -13 -10 -13 -7 0 -7 6 -1 18 10 19 -13 50 -24 32 -3 -6
-1 -10 4 -10 6 0 11 -5 11 -11 0 -8 -4 -8 -14 0 -8 7 -12 21 -9 31 3 12 0 20
-6 20 -7 0 -9 5 -5 13 5 8 2 8 -9 -2 -18 -14 -24 -2 -7 15 6 6 3 10 -10 11
-13 1 -18 -2 -14 -9 4 -6 2 -8 -4 -4 -6 3 -9 15 -7 26 2 10 -3 24 -11 30 -7 7
-11 17 -8 22 4 6 -4 5 -16 -2 -12 -7 -20 -8 -17 -3 9 15 -33 55 -49 49 -10 -4
-14 0 -12 11 2 9 -3 18 -9 20 -7 3 -13 0 -13 -7 0 -6 5 -8 12 -4 7 5 8 3 3 -6
-6 -10 -11 -9 -21 4 -8 12 -13 13 -16 5 -3 -9 -7 -7 -11 5 -4 10 -3 15 3 11 6
-3 10 -2 10 2 0 5 -9 14 -21 21 -19 12 -20 11 -14 -10 4 -16 3 -19 -3 -10 -5
8 -12 13 -16 13 -17 -3 -18 1 0 22 10 12 12 16 4 10 -15 -14 -41 -17 -39 -5 4
25 -1 37 -11 22 -5 -8 -10 -11 -10 -6 0 5 -8 2 -17 -5 -10 -7 -7 -1 7 15 24
28 24 28 3 17 -16 -8 -23 -8 -23 -1 0 6 -4 9 -10 5 -5 -3 -6 -13 -3 -23 6 -16
6 -16 -11 1 -10 9 -22 14 -28 11 -7 -4 -8 -2 -4 4 10 16 -7 15 -23 0 -10 -11
-10 -8 -2 15 6 16 7 26 2 23 -5 -4 -11 0 -14 6 -3 9 -11 7 -28 -7 -20 -17 -21
-17 -9 -2 13 18 12 18 -17 14 -39 -6 -45 0 -31 27 11 21 11 21 -10 2 -12 -10
-19 -23 -16 -27 3 -5 0 -9 -5 -9 -14 0 -14 17 -1 25 6 3 10 11 10 17 0 6 -3 8
-7 5 -3 -4 -15 1 -26 10 -11 10 -17 12 -13 6 4 -8 1 -13 -9 -13 -9 0 -13 -5
-9 -11 3 -6 -5 -4 -18 5 -14 9 -33 14 -42 10 -9 -3 -16 -2 -16 4 0 11 39 10
58 -2 6 -3 13 -3 16 2 6 10 0 11 -61 15 -24 2 -43 0 -43 -4 0 -4 -7 -10 -16
-13 -15 -6 -15 -4 -3 10 13 16 12 16 -7 6 -15 -8 -24 -8 -32 0 -8 8 -13 7 -18
-6 -5 -14 -9 -15 -15 -4 -7 11 -9 10 -9 -1 0 -11 -4 -11 -18 2 -16 15 -19 15
-19 2z"/>
<path d="M7197 4623 c-9 -2 -14 -9 -11 -15 5 -7 2 -8 -7 -3 -24 15 -50 13 -44
-3 4 -11 2 -12 -7 -4 -9 7 -18 6 -32 -4 -10 -7 -22 -11 -27 -9 -4 3 -5 -5 -2
-17 3 -15 2 -19 -4 -11 -9 12 -33 3 -36 -13 -1 -5 -8 -8 -15 -7 -7 0 -11 -1
-8 -4 10 -10 -24 -34 -36 -27 -9 6 -9 3 1 -9 12 -15 9 -21 -11 -18 -5 0 -8 -5
-8 -13 0 -8 -4 -18 -10 -21 -6 -3 -7 1 -4 12 5 17 5 17 -6 0 -6 -9 -8 -22 -5
-27 3 -6 -1 -7 -9 -4 -11 4 -19 -3 -26 -21 -7 -18 -15 -25 -25 -21 -20 7 -19
-4 1 -19 15 -10 14 -12 -7 -11 -13 1 -24 -4 -24 -11 0 -6 -3 -14 -7 -18 -10
-11 3 -36 15 -28 6 3 7 1 3 -6 -4 -6 -11 -9 -15 -7 -4 3 -13 -5 -21 -17 -12
-20 -12 -21 3 -9 14 12 16 11 14 -6 0 -12 -6 -18 -14 -15 -9 4 -11 0 -7 -11 4
-10 1 -16 -7 -16 -12 0 -12 -2 -1 -9 11 -7 11 -9 -2 -14 -12 -5 -13 -13 -6
-37 5 -17 5 -28 0 -25 -4 3 -10 -2 -14 -10 -3 -8 -1 -17 5 -21 6 -4 6 -11 -2
-21 -10 -12 -10 -16 2 -24 10 -6 10 -9 2 -9 -7 0 -13 -7 -13 -15 0 -8 4 -15 8
-15 7 0 8 -33 2 -50 -6 -14 -4 -36 3 -47 4 -6 7 -20 5 -30 -2 -12 3 -18 14
-17 10 1 14 -4 11 -12 -2 -7 -12 -10 -21 -8 -14 5 -14 3 2 -10 12 -10 17 -23
14 -40 -4 -19 -1 -24 13 -21 10 2 22 -1 25 -7 4 -6 2 -8 -4 -4 -7 4 -10 -1 -9
-14 1 -15 6 -18 21 -14 16 5 17 4 5 -9 -8 -8 -17 -13 -21 -10 -5 2 -8 -1 -8
-7 0 -7 8 -9 22 -4 21 6 22 5 8 -11 -9 -12 -10 -16 -2 -11 9 6 11 0 7 -22 -4
-24 -1 -31 16 -35 13 -4 18 -10 13 -18 -4 -8 -3 -10 4 -5 7 4 12 2 12 -3 0 -6
7 -11 16 -11 8 0 12 -5 9 -10 -4 -6 -10 -8 -14 -6 -4 3 -8 -1 -8 -9 0 -12 3
-12 16 -2 12 10 14 9 9 -5 -9 -21 2 -31 19 -17 17 14 17 -2 1 -21 -11 -12 -10
-12 5 -1 20 16 27 12 30 -17 0 -11 4 -19 8 -16 4 2 10 -3 13 -12 3 -8 10 -12
16 -9 14 9 12 -8 -2 -25 -7 -8 -1 -4 13 8 23 20 27 21 33 7 9 -23 7 -32 -3
-17 -7 11 -9 10 -14 -3 -4 -9 -3 -13 3 -10 6 3 10 1 10 -6 0 -10 3 -10 12 -1
17 17 33 15 19 -2 -8 -10 -9 -16 -1 -21 6 -3 7 -12 4 -18 -4 -7 -4 -9 1 -5 16
15 37 -13 23 -31 -10 -13 -10 -14 2 -3 16 13 34 17 26 4 -2 -4 -1 -14 5 -22 7
-12 9 -11 9 5 0 25 20 6 23 -22 0 -11 7 -20 14 -20 10 0 10 4 1 14 -8 11 -7
12 6 7 10 -4 16 -15 14 -27 -2 -13 3 -21 16 -23 14 -2 16 0 7 9 -6 6 -11 16
-11 22 0 5 5 2 11 -8 6 -9 14 -15 19 -12 4 3 6 -4 3 -15 -3 -11 0 -20 6 -20 6
0 11 6 11 14 0 25 17 26 36 3 l19 -22 -22 19 c-20 16 -23 17 -23 3 0 -9 -8
-21 -17 -27 -16 -10 -16 -10 2 -8 11 2 19 -2 18 -8 -1 -7 11 -11 30 -10 19 0
33 -5 33 -12 1 -6 2 -18 3 -26 0 -8 8 -17 17 -20 14 -5 15 -4 4 9 -10 12 -11
18 -1 28 10 9 11 8 6 -5 -5 -13 -2 -18 10 -18 10 0 13 -5 9 -12 -5 -8 -2 -9
10 -5 31 12 77 -22 64 -47 -8 -17 -8 -19 2 -9 16 15 80 -14 80 -36 0 -14 1
-14 10 -1 8 13 10 13 10 -2 0 -19 49 -15 62 5 6 9 8 9 8 0 0 -7 6 -13 14 -13
7 0 19 -6 26 -14 6 -8 18 -12 26 -9 17 6 19 -13 2 -23 -7 -5 -8 -2 -3 7 6 11
5 11 -5 2 -10 -9 -9 -15 6 -30 16 -17 17 -17 11 0 -6 17 3 23 17 10 11 -12 37
-12 30 -1 -5 7 -2 8 5 4 7 -5 10 -15 7 -23 -3 -8 -1 -11 4 -8 16 10 12 33 -7
44 -10 6 -13 10 -8 10 13 0 42 -22 43 -32 0 -5 3 -11 6 -13 3 -2 4 -1 1 3 -7
8 35 53 49 53 6 0 3 -5 -7 -11 -9 -6 -14 -15 -11 -21 4 -6 3 -8 -3 -5 -5 3
-10 0 -10 -8 0 -12 3 -12 14 -3 11 9 17 8 24 -3 7 -11 9 -11 9 0 0 11 3 11 15
1 12 -10 15 -10 15 3 0 10 -7 15 -20 12 -24 -5 -25 1 -6 20 12 12 15 12 20 -2
5 -12 10 -13 18 -5 6 6 17 8 24 5 8 -3 14 1 14 8 0 7 3 9 6 6 4 -4 1 -14 -7
-24 -12 -14 -12 -16 0 -8 11 6 13 4 8 -11 -7 -19 -7 -19 8 0 8 10 12 23 9 27
-3 5 2 6 10 3 9 -4 16 -1 16 6 0 7 8 2 18 -9 l17 -22 23 21 c12 11 22 17 22
11 0 -5 7 -11 14 -14 11 -4 13 -1 9 11 -6 14 -4 15 9 4 13 -10 18 -10 24 -1 4
8 3 9 -4 5 -7 -4 -12 -3 -12 2 0 6 7 13 16 16 8 3 13 2 10 -2 -2 -4 -1 -14 5
-22 7 -12 9 -9 9 9 0 24 0 24 15 5 14 -18 14 -18 10 4 -2 12 0 20 6 17 5 -4 9
0 9 7 0 9 3 9 8 2 10 -15 42 -25 42 -13 0 6 4 8 9 4 5 -3 12 4 16 15 4 11 10
18 15 15 5 -3 11 -1 15 4 3 6 13 7 22 4 12 -5 14 -3 8 8 -7 12 -6 12 7 1 14
-11 18 -10 28 5 10 16 11 16 6 1 -3 -12 0 -18 10 -18 9 0 12 5 8 13 -5 7 0 6
11 -3 17 -14 18 -13 11 4 -7 20 -6 20 14 1 20 -18 21 -18 14 0 -6 14 -4 16 6
10 8 -5 18 -1 27 11 12 16 15 17 23 4 7 -11 10 -8 15 13 4 15 11 27 17 27 5 0
7 -4 4 -8 -2 -4 4 -8 14 -8 17 0 18 2 5 16 -13 15 -13 17 0 17 8 0 12 -4 9 -9
-3 -4 6 -7 20 -6 20 2 23 5 13 17 -10 12 -9 13 10 2 19 -10 22 -9 17 4 -7 17
15 17 29 0 4 -6 7 -2 5 9 -2 10 3 21 11 24 9 3 11 0 6 -8 -5 -9 -4 -11 4 -6 8
5 9 12 2 20 -7 8 -5 12 9 12 10 0 16 -5 12 -11 -3 -5 2 -4 11 3 9 8 20 11 25
8 6 -3 15 1 22 9 7 8 24 15 37 15 20 0 24 4 19 17 -4 10 -4 14 0 10 4 -4 14
-1 22 6 13 9 14 9 8 0 -4 -7 -2 -13 3 -13 10 0 15 14 12 33 -1 5 3 6 8 2 6 -3
8 -13 5 -23 -3 -9 2 -6 10 8 14 23 15 23 16 5 1 -19 2 -19 10 1 6 16 16 21 35
19 21 -3 24 -1 15 10 -10 11 -8 13 9 10 12 -2 20 1 18 8 -1 7 4 11 11 9 6 -1
12 5 12 14 0 8 4 13 9 9 6 -3 20 5 32 17 19 20 21 20 15 4 -6 -17 -5 -17 10
-5 10 8 20 13 23 11 3 -2 8 5 12 15 4 10 8 12 8 5 1 -7 6 -10 11 -7 6 4 7 12
3 18 -4 8 -1 7 9 -1 11 -9 18 -10 23 -2 3 6 11 7 17 4 7 -5 8 -2 3 6 -6 10 -3
12 13 8 12 -3 21 -3 20 1 -2 18 4 22 17 11 12 -10 16 -9 21 4 5 13 9 14 21 5
8 -7 13 -8 12 -3 -4 21 2 28 11 14 7 -11 10 -11 10 -2 0 8 5 10 13 6 8 -5 7
-2 -2 9 -12 15 -12 17 4 11 12 -5 16 -4 12 3 -7 11 34 10 52 -2 6 -3 11 -2 11
4 0 6 8 7 18 4 15 -6 15 -5 3 10 -17 22 -7 22 14 0 16 -16 18 -15 27 1 9 16
11 16 31 -5 12 -13 22 -18 25 -11 2 6 10 8 19 5 11 -4 14 -2 9 5 -5 9 -1 9 17
3 14 -6 28 -7 32 -3 3 3 3 -2 -1 -13 -6 -16 -5 -18 7 -7 7 6 20 12 28 12 14 0
14 -1 1 -10 -9 -6 -10 -10 -3 -10 6 0 15 5 18 10 3 6 11 10 16 10 6 0 7 -4 4
-10 -9 -14 8 -13 23 2 9 9 12 9 12 0 0 -7 5 -12 11 -12 5 0 7 5 3 11 -4 8 -1
8 12 1 30 -15 82 -6 125 22 21 15 39 29 39 32 0 4 -10 -1 -22 -10 -48 -34 -62
-38 -33 -9 17 16 32 30 35 30 3 0 14 1 25 2 18 2 18 4 -7 25 -15 13 -25 27
-22 30 2 3 -1 2 -7 -3 -6 -5 -18 -7 -27 -4 -11 5 -13 2 -7 -6 6 -10 3 -11 -13
-2 -28 15 -31 14 -26 -11 4 -22 4 -22 -6 1 -8 19 -13 21 -25 11 -13 -11 -14
-10 -9 4 4 10 12 15 20 12 8 -3 12 2 11 14 -1 18 -3 19 -27 3 l-25 -16 20 23
c19 22 19 23 1 16 -16 -5 -17 -4 -6 9 9 11 9 15 1 15 -7 0 -10 3 -8 8 3 4 -35
8 -84 9 -57 2 -88 -1 -84 -7 3 -6 -1 -7 -9 -4 -9 3 -13 10 -10 15 3 5 -2 6
-10 3 -9 -3 -13 -11 -9 -18 4 -6 0 -6 -9 2 -12 10 -18 10 -23 1 -6 -8 -10 -8
-15 2 -6 9 -12 10 -22 2 -17 -15 -50 -19 -65 -10 -9 6 -13 2 -13 -10 0 -14 -2
-15 -9 -4 -8 12 -12 12 -26 -2 -12 -13 -21 -15 -36 -7 -13 8 -19 7 -19 0 0 -6
-4 -9 -9 -5 -5 3 -13 0 -16 -6 -4 -5 -13 -8 -21 -5 -8 3 -14 1 -14 -3 0 -5 -8
-8 -17 -7 -10 2 -26 -6 -35 -17 -10 -11 -18 -15 -18 -8 0 9 -5 8 -15 -3 -9 -8
-22 -13 -29 -10 -7 3 -20 -1 -27 -9 -8 -8 -22 -13 -32 -11 -10 1 -14 -2 -11
-8 4 -6 1 -9 -7 -6 -8 3 -20 -2 -27 -11 -8 -9 -10 -10 -7 -3 6 11 3 11 -13 1
-12 -7 -19 -16 -17 -19 2 -3 -6 -7 -18 -7 -12 -1 -26 -8 -32 -16 -5 -8 -15
-12 -22 -10 -7 3 -22 -5 -34 -16 -13 -12 -25 -18 -28 -15 -3 4 0 9 7 11 20 8
14 22 -8 16 -11 -3 -17 -9 -14 -14 5 -9 -5 -12 -41 -11 -11 0 -26 -8 -33 -17
-7 -9 -11 -11 -8 -6 2 6 1 17 -5 25 -7 12 -9 11 -9 -5 -1 -20 -1 -20 -15 -1
-13 17 -15 18 -15 3 0 -9 -5 -17 -11 -17 -5 0 -7 5 -3 12 4 6 3 8 -4 4 -5 -3
-13 0 -16 6 -3 7 -4 2 -1 -12 3 -14 2 -19 -1 -12 -3 6 -11 9 -16 6 -7 -4 -8
-2 -4 4 4 7 2 12 -3 12 -6 0 -11 -5 -11 -10 0 -7 -7 -7 -21 1 -15 8 -19 8 -15
0 4 -6 -4 -15 -19 -21 -17 -6 -24 -14 -19 -22 4 -7 -3 -4 -16 7 -13 11 -20 14
-15 6 6 -11 4 -13 -8 -8 -9 3 -19 2 -22 -4 -4 -5 -11 -6 -17 -3 -7 5 -8 2 -3
-6 6 -9 2 -10 -15 -5 -15 5 -20 3 -16 -3 3 -6 1 -14 -5 -18 -8 -4 -9 -3 -5 4
4 7 2 13 -3 13 -6 1 -17 2 -23 3 -7 1 -16 -3 -20 -9 -4 -5 -8 -1 -8 10 0 12
-3 16 -8 9 -9 -14 -38 -24 -46 -16 -11 10 -65 9 -59 -1 4 -6 -1 -8 -10 -4 -10
3 -17 3 -17 -1 0 -4 -11 -7 -24 -7 -13 0 -21 4 -18 10 3 6 -2 4 -11 -4 -9 -7
-17 -10 -17 -5 0 4 -7 -1 -16 -12 -13 -16 -15 -16 -10 -2 3 10 1 20 -5 23 -5
4 -8 3 -7 -2 2 -4 -1 -8 -7 -8 -5 0 -9 4 -7 8 1 5 -2 5 -8 2 -6 -4 -9 -14 -5
-23 4 -11 -3 -8 -22 8 -15 14 -22 18 -15 9 16 -22 2 -33 -15 -11 -8 9 -12 12
-9 5 4 -6 2 -14 -4 -18 -5 -3 -10 -1 -10 5 0 7 -7 10 -15 6 -8 -3 -19 3 -25
12 -11 16 -11 16 -6 0 6 -19 -16 -21 -43 -4 -10 7 -12 6 -6 -4 6 -10 4 -12
-11 -6 -10 4 -23 8 -29 9 -5 1 -16 10 -23 20 -7 9 -18 17 -24 17 -7 0 -3 -6 8
-14 10 -8 16 -18 11 -22 -4 -4 -7 -2 -7 4 0 7 -7 12 -15 12 -8 0 -16 5 -16 10
-1 6 -2 14 -3 19 0 5 -5 13 -10 18 -5 5 -6 3 -2 -4 4 -7 2 -13 -3 -13 -6 0
-11 6 -11 14 0 8 -5 18 -12 22 -7 5 -8 3 -3 -5 6 -10 3 -11 -14 -2 -11 7 -21
14 -21 17 0 3 6 2 13 -2 6 -3 -1 6 -18 21 -16 14 -24 24 -18 20 8 -4 11 -1 7
9 -3 8 -12 12 -19 10 -8 -3 -12 2 -12 13 1 11 -4 18 -15 17 -10 -1 -15 2 -12
7 3 5 -5 9 -18 9 -17 0 -19 3 -9 9 9 6 10 11 2 15 -7 5 -7 13 2 27 10 16 9 21
-3 29 -13 9 -13 11 0 20 13 9 13 10 0 10 -9 0 -11 3 -4 8 18 12 13 64 -5 57
-10 -3 -9 0 3 10 14 11 16 15 5 15 -12 0 -12 2 0 9 11 7 11 9 0 13 -11 4 -11
10 -3 25 15 25 -7 58 -33 49 -12 -4 -10 0 6 12 15 12 20 22 13 26 -6 4 -9 13
-6 21 4 8 10 12 15 9 5 -3 6 1 4 9 -3 7 3 24 15 37 19 22 24 35 21 53 0 4 6 7
15 7 13 0 14 3 5 14 -9 10 -8 16 4 26 11 9 12 17 5 30 -7 13 -7 21 1 26 8 4 7
9 -2 14 -10 7 -10 12 -1 23 10 12 9 16 -3 20 -8 4 -12 13 -9 22 4 9 1 15 -7
15 -9 0 -10 3 -4 8 17 12 16 32 -1 32 -10 0 -14 6 -10 18 3 9 -4 28 -15 42
-11 14 -18 19 -14 13 4 -9 1 -11 -10 -6 -9 3 -12 9 -7 12 10 7 12 41 2 41 -14
0 -61 50 -56 59 4 5 -3 7 -14 4 -11 -3 -20 0 -20 6 0 6 -7 11 -16 11 -9 0 -12
-5 -8 -12 4 -8 3 -10 -2 -5 -12 11 -12 30 0 39 6 4 -2 10 -17 13 -16 4 -24 12
-20 19 3 6 2 7 -3 3 -5 -5 -9 -13 -9 -18 0 -12 -20 -12 -21 1 -1 6 -2 18 -3
28 -2 15 -3 14 -11 -3 -7 -16 -9 -17 -9 -3 -1 18 -54 61 -64 52 -3 -3 -3 -13
-1 -22 3 -10 -2 -6 -10 8 -8 14 -15 21 -16 16 0 -4 -12 0 -27 9 -25 17 -26 17
-19 0 5 -14 4 -16 -7 -7 -8 7 -16 9 -20 6 -3 -3 -15 0 -27 6 -15 8 -20 8 -16
1 4 -6 2 -11 -3 -11 -6 0 -11 5 -11 10 0 10 -3 11 -33 3z m136 -317 c21 3 22
-9 3 -25 -8 -7 -12 -21 -9 -32 4 -12 0 -25 -8 -30 -8 -5 -9 -9 -3 -9 7 0 11
-11 10 -24 -1 -18 -4 -22 -14 -14 -9 8 -11 7 -6 -6 3 -9 0 -24 -7 -33 -12 -14
-12 -16 0 -8 11 6 13 4 8 -8 -3 -9 -2 -19 4 -23 6 -3 8 -12 5 -19 -2 -7 2 -16
10 -19 9 -3 12 -11 8 -17 -4 -8 -3 -9 5 -5 9 6 9 11 -1 23 -12 15 -11 15 10 2
12 -8 22 -17 22 -22 0 -4 -4 -5 -10 -2 -5 3 -10 -1 -10 -10 0 -11 5 -15 14
-12 13 5 14 1 7 -32 -1 -2 -7 2 -15 8 -9 7 -17 8 -20 2 -3 -5 0 -12 6 -15 10
-3 8 -9 -4 -19 -20 -16 -25 -32 -6 -21 7 5 8 3 4 -5 -5 -7 -14 -10 -22 -7 -11
4 -12 2 -4 -14 9 -16 7 -18 -12 -15 -12 3 -26 10 -32 16 -8 9 -8 10 1 5 6 -3
15 -1 19 5 4 7 3 9 -2 6 -18 -11 -42 11 -24 22 12 9 12 11 -3 17 -9 3 -17 10
-17 16 0 5 4 6 10 3 6 -3 7 1 4 9 -3 9 -11 13 -18 9 -6 -4 -4 2 4 12 8 10 11
16 5 13 -5 -3 -17 1 -25 10 -13 14 -12 15 3 9 13 -5 16 -3 10 6 -14 23 -15 59
-1 51 9 -5 9 -2 -1 10 -12 14 -12 19 -2 25 14 9 14 20 0 38 -7 7 -6 14 2 19 8
5 9 3 4 -6 -5 -9 -4 -11 4 -6 7 5 9 12 3 19 -19 25 -22 46 -5 40 12 -5 14 -3
8 7 -6 10 -4 12 10 6 14 -5 16 -4 7 7 -14 17 -6 28 16 20 11 -5 13 -2 8 8 -4
8 0 5 9 -6 17 -19 17 -19 11 10 -4 17 -3 25 1 19 4 -6 16 -10 26 -8z"/>
</g>
</svg>
