<?xml version="1.0" encoding="UTF-8" standalone="no"?>
<svg
   version="1.0"
   width="1024.000000pt"
   height="1024.000000pt"
   viewBox="0 0 1024.000000 1024.000000"
   preserveAspectRatio="xMidYMid meet"
   id="svg12"
   sodipodi:docname="m.svg"
   xmlns:inkscape="http://www.inkscape.org/namespaces/inkscape"
   xmlns:sodipodi="http://sodipodi.sourceforge.net/DTD/sodipodi-0.dtd"
   xmlns="http://www.w3.org/2000/svg"
   xmlns:svg="http://www.w3.org/2000/svg">
  <defs
     id="defs16" />
  <sodipodi:namedview
     id="namedview14"
     pagecolor="#ffffff"
     bordercolor="#666666"
     borderopacity="1.0"
     inkscape:pageshadow="2"
     inkscape:pageopacity="0.0"
     inkscape:pagecheckerboard="0"
     inkscape:document-units="pt" />
  <metadata
     id="metadata2">
Created by potrace 1.16, written by Peter Selinger 2001-2019
</metadata>
  <g
     transform="translate(0.000000,1024.000000) scale(0.100000,-0.100000)"
     fill="#000000"
     stroke="none"
     id="g10">
    <path
       d="m 6057,7347 c -53.834,1.8197 -256.5595,-8.6581 -211.25,-22.375 57.7844,57.339 -177.7564,-49.47 -172.75,-34.625 -88.8663,-46.0549 -290.577,-138.217 -194,-89 -81.0224,-60.0637 -144.6784,-91.996 -146,-84 -70.2819,-55.3688 -237.9961,-172.7015 -183,-131 -73.9831,-67.1963 -325.8199,-260.2888 -201,-165 -52.5659,-42.2204 -261.6971,-281.1146 -110,-101 -38.8018,-19.5221 -178.0293,-156.1062 -137.125,-118.25 -16.4479,6.0973 -126.8949,-136.3879 -144.375,-148.25 -82.4342,-30.3155 -135.7436,-173.2279 -121.875,-129 -65.9431,-52.1674 -150.0882,-213.9705 -105.625,-153.5 -9.8116,-41.4618 -127.5009,-217.3033 -93,-138 -18.6877,-118.1667 -131.4685,-285.3593 -86.375,-188.875 36.5859,-1.6048 -63.1627,-167.4055 -46.25,-169.25 4.0932,-29.8865 -50.208,-207.5805 -36.375,-141.875 11.1053,-80.3798 -17.3156,-179.4723 -21,-215 -6.0453,-66.9182 -5.4491,-219.5058 17,-180 -25.5136,-69.9272 33.8379,-71.4572 -23.25,-102.625 43.5753,-69.6765 32.2911,-223.8839 17.25,-155.375 -6.3952,-10.3771 -32.5421,-120.5279 -6.9062,-103.2656 51.2587,-33.481 89.081,-181.9027 33.9062,-156.7344 -20.2934,-71.6296 5.2217,-274.4977 2.6562,-194.0938 -9.4785,-44.6814 -32.0878,-282.4632 6.3438,-212.9062 14.0355,-111.3052 -7.5425,-226.0411 3,-173.875 10.4846,-110.256 51.405,-280.6909 9,-245.125 -27.7579,-119.9757 -49.8895,-323.9156 -24,-224 -0.5154,-51.3972 2.8149,-258.3597 -5.75,-187.125 -46.8266,-25.7774 -79.3307,-171.2653 -64.25,-158.875 25.4461,-0.3621 -53.9228,-147.2381 -47.875,-157.625 C 3901.2334,2908.6068 3916.5516,2811.1935 3923,2858 c 7.8891,-140.3085 -70.9141,-149.1889 48.125,-193.5 29.7728,27.0711 54.3302,-171.128 55.875,-80.25 23.4652,34.9019 180.8543,269.0546 142.5938,148.8281 C 4542.0762,2575.6301 2861.5459,3945.717 4274,2804 c -54.4848,-74.3295 -32.2661,-184.6233 -41,-151 -13.8231,-48.9162 81.3929,54.815 65,-6 -16.4214,20.4218 111.5944,187.8413 105,129 47.1861,71.4042 66.8766,385.6975 43,241 -12.8798,74.4208 95.2074,134.5025 -3,233 16.0912,87.0897 76.2587,358.8024 45.5,247.625 9.0333,169.988 70.9023,346.801 61.5,309.375 23.2393,87.1995 116.6765,404.7777 79.75,301.625 18.7852,93.5768 117.5848,320.959 58.375,239.375 -50.2267,37.3212 -23.9581,222.9359 15.875,154 -8.8511,-111.2253 96.6473,275.6429 68,185 3.12,40.5365 30.1627,235.9645 18,168 -11.4539,45.7385 -48.1201,234.4816 -16,168 32.8708,2.291 -41.1688,200.0072 -34,152 8.146,102.8969 96.3351,368.0388 63,278 53.1557,71.996 96.101,221.1801 48,161 101.6978,52.5672 277.9859,421.408 157,285 67.0085,67.3448 3.7051,194.7392 76,183 115.0475,4.3708 371.9606,245.1364 230,158 71.6983,63.1499 279.7257,277.5672 220,192 64.9251,22.024 209.559,123.0307 171,119 61.6884,43.6963 252.5567,116.9889 162,77.25 109.8103,23.7494 235.8384,13.41 222,9.75 66.0379,27.6432 235.7921,-43.5858 98,-55 32.0826,-12.2177 159.7295,-10.6485 106.625,-17.125 -52.6335,68.4265 60.9309,-75.9453 55.375,-50.625 59.6906,-17.8474 79.5772,-197.8442 56.125,-131.375 0.7883,-104.6937 80.4811,-268.1092 32.875,-192 122.2115,118.3187 60.7775,-78.4514 45,-81.875 -60.992,-134.7045 -41.8183,-289.8411 -45,-257 2.0156,-74.5739 5.4345,-257.2284 3,-191 32.0496,-66.3877 79.2883,-232.9255 81,-202 86.7547,-87.3684 224.179,-215.1712 138,-205 -82.6032,-13.2506 -21.2378,-114.9464 30,-94 43.308,-71.9041 65.6368,-114.8591 71.875,-109.125 56.4844,-102.9025 209.6873,-165.6478 156.125,-127.875 140.5157,24.4665 54.5955,239.419 56,192 -12.1899,45.5795 -5.7724,295.1139 11,198 19.4716,-39.5305 46.7671,170.4704 63,170 -36.3355,74.1625 -55.2549,380.1244 -22.8438,277.8594 14.8978,121.7088 -52.1075,432.4948 -38.1562,314.1406 -19.6575,50.9724 -23.1645,153.0343 -17,109 30.1054,228.7934 55.5889,179.9677 29,329 -42.4105,-18.9872 -79.851,128.5423 -58,87 -49.8441,129.7668 -91.4812,258.62 -84,186 -69.1076,113.3543 -193.7651,254.3686 -135,177 -19.4237,66.922 -162.2645,136.3163 -139.4063,127.26 44.8091,17.9229 -91.0541,82.4256 -68.5937,87.74 -38.2626,31.7979 -187.8456,91.2145 -125,68 -13.9712,-49.162 -235.8835,20.6709 -139,58 -110.8265,39.8421 -102.5933,20.2054 -193,42 z"
       id="path4" />
    <path
       d="m 2443,7325 c -61.6936,13.6707 -126.6812,-77.5547 -149.375,-7.5 27.0106,-83.5215 30.1803,-113.2803 -44.875,-63.125 -143.3912,28.6996 -278.8134,-13.13 -192.0156,2.0938 -3.7873,-44.9703 -133.5119,-169.9382 -122.3594,-101.5938 C 1725.854,7113.3544 1826.0087,7029.6114 1738,7066 c -21.5224,-16.6892 -67.7908,-110.9349 -122,-118 -123.6281,-52.1161 -462.6947,-341.132 -270,-201 -42.1121,-63.3912 -227.0983,-228.4034 -161,-166 -14.9213,-52.9135 -186.36146,-267.2834 -172,-233 -61.50126,-58.0403 -142.05288,-215.5957 -97,-155 -57.19594,-101.5143 -228.24625,-376.0709 -176,-267 10.87758,-33.8533 29.82138,-147.4118 -11.25,-117.875 -62.99355,-107.9315 -108.38077,-372.6779 -74.875,-246 C 708.89159,5427.9093 636.8206,5184.0989 653,5245 c 49.10065,-48.1767 75.95084,-173.7162 47,-140 -10.97366,-58.3 51.71891,-220.3464 46,-181 39.34534,-85.5086 88.06446,-165.4283 24,-126 -39.30747,-9.8777 -7.37813,-185.9457 -1,-135 -41.58895,-59.2518 97.62213,-141.0674 21,-144 27.66091,-112.9544 52.19116,-196.4893 44.75,-208.375 12.52382,-102.9877 5.34601,-47.0394 24.25,-193.625 66.2219,1.9981 3.74221,-164.7796 9,-107 84.81914,-97.7429 25.63478,-271.6867 33,-174 33.07741,-246.399 14.82149,312.9661 17,-162 18.30454,-92.6556 58.56912,-307.8592 5,-224 -20.26434,-35.2024 -141.23332,-323.772 -52,-110 -34.85241,-125.2172 166.0687,22.3461 130,10 131.9416,114.5037 220.2975,148.3041 170,35 28.146,-148.7023 210.1567,-197.6926 148.5,-133.875 46.3014,9.6923 90.5988,115.7083 57.625,99.75 11.4811,104.2852 -20.9515,133.8263 -87.125,89.125 77.8974,-27.8624 51.263,70.2219 31,56 10.3144,136.2473 -73.8305,330.9671 -26,240 15.5233,-2.5014 3.9859,298.43 0,297 82.9109,68.0614 150.6625,230.2728 64.125,198.375 -63.7617,132.5199 -7.4196,441.1313 6.875,337.625 20.1102,31.6876 39.5647,193.9514 9.25,127.5 -37.1878,33.6431 -18.1607,240.9863 16.5,156 -13.1249,86.0555 -42.2159,298.2486 5.25,218.5 26.007,80.4015 -86.1448,290.9375 -32.375,214 -44.1743,-132.7686 176.4963,1386.8784 39.5,172.75 12.7886,-9.9032 39.6942,142.6132 40.875,122.25 -20.2057,23.793 -57.4561,93.3579 23,141 10.6,57.8529 -57.2837,105.0166 62,120 101.2865,72.243 136.1969,382.025 109,274 -3.7641,125.3576 175.9172,116.1112 140.25,116.125 28.5422,61.1536 151.2221,42.1486 83.75,12.875 -26.9143,54.5266 113.1868,163.9619 77,111 13.0812,38.8357 77.2821,170.869 92.5,101.375 60.8666,10.8705 96.4155,146.4002 86.5,103.625 35.4942,-46.6546 309.8651,113.4083 221,140 47.518,-5.5709 183.9775,2.6863 167,20.875 25.9751,60.1147 143.7181,-98.213 150,-45.875 -21.4084,-17.2283 37.6433,-157.7454 60,-94 105.2494,-34.5428 249.781,-204.088 157,-155.75 15.7846,-80.2722 197.7808,-174.1057 156,-123.25 -51.861,22.4726 74.6852,-169.9634 25,-114 35.532,-108.3041 73.1788,-319.7236 37,-248 28.3217,23.4906 355.6544,-423.8792 115,-127 50.1767,-93.5547 42.3838,-138.3875 180,-239.875 -63.882,-11.956 72.7413,-64.9789 48,-82.125 65.6794,-46.5861 268.4938,-199.1344 175,-126 -57.7684,97.4357 149.8667,120.6079 122,21 31.2668,-42.7269 56.5652,121.2761 36.25,81.25 -4.1064,79.3529 1.4178,261.2796 -4.25,237.875 -74.0934,76.6947 -48.1176,256.7245 -25,158.625 -62.6175,-23.9936 -134.408,166.5966 -82,151.25 -38.5704,-74.6655 -80.0246,144.6784 -67,125 11.6176,112.782 -32.8794,219.425 -26,188 -39.1101,85.9622 -76.2341,213.8027 -35,131 9.0898,84.3432 -42.6667,249.6108 -35,143 -33.1448,44.113 -64.0926,317.6301 -76.75,166.875 57.8602,-78.486 -66.3539,107.2013 -82.625,105.625 -7.113,34.7782 -123.9745,110.7491 -78.625,103.5 -11.566,61.896 -141.5113,153.5539 -152,136 -54.3602,44.948 -171.8178,142.9066 -114,86 2.3367,45.8479 -117.0757,150.4049 -119,56 -160.3804,29.1058 -214.9791,103.8067 -167,67 -143.6681,-55.4739 56.5589,51.7858 -151.625,-9.5 42.0041,53.5131 -117.6057,-18.7336 -109.375,11.5 z"
       id="path6" />
    <path
       d="m 7197,4623 c -122.7131,-25.3746 -250.0771,-144.5303 -202.75,-109.875 -32.3861,-42.3447 -115.3665,-228.5867 -118.25,-157.75 -126.0396,-152.4328 0.5251,-29.1283 -86.125,-147.25 3.2969,-92.148 10.0814,-410.0215 -6.875,-295.125 18.4405,-75.5475 116.5476,-222.4064 71,-177 -17.3773,-11.9733 108.9687,-182.73 56,-135 34.017,-70.5294 206.8153,-217.5089 120,-136 36.1771,-35.4351 105.2986,-177.2504 75,-93 35.5055,-30.4547 131.8834,-62.9655 109,-68 4.1559,-58.776 22.2642,-17.1955 90,-47.25 -44.8556,-106.2592 97.3759,-154.4211 110,-118.75 124.8117,-99.9712 299.3355,-88.8367 238,-95 130.467,-31.179 243.9538,-43.8106 132,-71 -7.6668,-27.1005 63.4784,-70.0645 83,-10 105.7482,-13.8773 255.6189,56.2172 119,45 -44.7127,-84.5105 200.2092,-19.156 147,-9 43.5787,32.6328 143.1028,127.9028 99.125,51 90.1573,-44.6211 232.2737,-38.9136 192.75,24.5 27.3574,2.3535 219.1076,80.8973 155.125,60.5 8.0316,58.5629 170.5666,138.8667 127.25,74.125 -23.6731,-6.0948 226.3303,77.2424 168.75,74.875 30.7122,12.9988 219.2368,128.7688 152,69 72.4759,56.3014 257.2501,111.4866 187,88 47.327,33.3226 145.6008,107.6462 140,64 115.3528,18.8683 332.1245,9.5654 221,14 71.9171,-20.699 235.3486,-15.0942 168,-17 93.8282,-20.0189 16.6408,-3.9879 121,36 176.596,128.843 -98.7107,48.6093 -89,77 17.3195,22.1386 25.648,107.3025 -161.875,92.5 -127.0342,2.1414 -173.5296,-37.2585 -223.875,-18.75 -115.0829,-32.0425 -244.6587,-76.3371 -355.25,-129.75 -105.8235,-58.2214 -351.4868,-75.1689 -275,-83 -44.3771,8.8321 -210.1152,25.7893 -135.625,2 -37.238,-79.7292 -197.898,-151.4456 -162.375,-85.125 -52.6353,52.3352 -369.983,-26.479 -278,-7.875 -44.4678,42.9012 -259.1079,95.561 -173,26 -111.1379,-15.666 -112.9111,-41.5803 -167,43 -50.7677,8.3224 -211.5539,188.8491 -138,128 -67.1385,36.7988 -92.5812,231.4801 -41.75,184.125 59.7114,58.3834 71.1253,253.0934 6.75,188.875 55.0957,92.0563 44.4931,346.5278 64,259 -35.1983,100.6783 -235.7285,346.3481 -145,260 -74.5176,13.1137 -184.2049,61.7512 -139,79 -82.6387,72.0991 -147.9047,61.0584 -254,71 z m 136,-317 c 13.6251,-116.2257 79.2804,-379.2467 1,-267 19.4106,39.2167 -84.1531,-153.9397 -13.625,-102.625 -5.4578,-48.6825 -101.4567,123.9062 -80.375,45.625 -14.0703,58.5354 -9.5487,289.6915 -11,195 13.5948,17.9707 98.5804,121.6569 49,106 59.4095,-20.733 -5.5739,39.6761 55,23 z"
       id="path8" />
  </g>
</svg>
