<?xml version="1.0" standalone="no"?>
<!DOCTYPE svg PUBLIC "-//W3C//DTD SVG 20010904//EN"
 "http://www.w3.org/TR/2001/REC-SVG-20010904/DTD/svg10.dtd">
<svg version="1.0" xmlns="http://www.w3.org/2000/svg"
 width="1024.000000pt" height="1024.000000pt" viewBox="0 0 1024.000000 1024.000000"
 preserveAspectRatio="xMidYMid meet">
<metadata>
Created by potrace 1.16, written by Peter Selinger 2001-2019
</metadata>
<g transform="translate(0.000000,1024.000000) scale(0.100000,-0.100000)"
fill="#000000" stroke="none">
<path d="M2270 8318 c0 -9 -5 -20 -12 -24 -6 -4 -8 -3 -4 4 3 6 2 13 -4 17 -5
3 -10 1 -10 -6 0 -7 -3 -9 -7 -6 -3 4 -12 2 -19 -4 -8 -7 -14 -7 -19 1 -8 13
-25 13 -25 -1 0 -5 5 -7 12 -3 6 4 8 3 5 -4 -9 -13 -43 -8 -39 7 3 16 -3 14
-19 -6 -12 -15 -12 -16 1 -8 13 7 13 6 1 -6 -10 -11 -15 -11 -18 -1 -3 6 -9
12 -14 12 -6 0 -8 -4 -4 -9 3 -5 1 -13 -5 -16 -6 -4 -9 -1 -8 6 5 22 -102 19
-114 -4 -5 -10 -12 -16 -15 -13 -3 3 -15 0 -27 -6 -11 -6 -40 -12 -63 -12 -38
-1 -42 1 -37 19 5 17 4 17 -11 -3 -13 -17 -20 -20 -30 -12 -10 8 -17 5 -30
-12 l-17 -23 7 25 6 25 -21 -25 c-12 -14 -19 -20 -16 -14 3 7 -1 14 -9 18 -9
3 -15 0 -15 -9 0 -8 -5 -15 -11 -15 -5 0 -8 4 -5 9 3 5 -1 11 -9 15 -8 3 -17
1 -20 -4 -4 -6 -11 -10 -16 -10 -6 0 -8 4 -5 9 9 14 -22 7 -37 -9 -9 -10 -9
-11 1 -6 18 10 15 1 -5 -15 -10 -9 -14 -9 -10 -2 5 7 -2 17 -15 24 -22 12 -22
11 -8 -6 14 -17 13 -18 -2 -12 -10 3 -18 2 -18 -3 0 -6 5 -10 12 -10 6 0 8 -3
4 -7 -4 -5 -14 1 -22 11 -13 19 -14 19 -14 2 0 -15 -3 -16 -15 -6 -13 11 -14
10 -10 -2 4 -9 0 -15 -9 -15 -8 0 -13 4 -11 8 3 4 -3 6 -12 5 -9 -2 -19 -8
-21 -14 -2 -6 -10 -8 -19 -5 -12 5 -14 3 -8 -8 8 -12 6 -12 -8 0 -14 11 -17
11 -17 0 0 -11 -2 -11 -10 1 -9 13 -10 13 -10 0 0 -13 -1 -13 -10 0 -5 8 -10
10 -10 4 0 -17 -43 -26 -52 -11 -6 9 -8 8 -8 -2 0 -11 -3 -12 -12 -3 -7 7 -17
8 -29 1 -10 -5 -30 -7 -44 -5 -14 3 -25 1 -25 -3 0 -4 -7 -8 -15 -8 -8 0 -15
3 -15 7 0 4 -7 7 -15 7 -8 0 -12 -4 -10 -8 3 -4 -2 -9 -10 -12 -9 -4 -12 -1
-9 7 3 7 -2 13 -11 13 -8 0 -15 -5 -15 -10 0 -5 -11 -7 -25 -5 -14 3 -25 1
-25 -3 0 -5 -8 -9 -17 -9 -15 0 -15 2 -4 9 10 7 7 9 -12 8 -14 -1 -23 -5 -20
-9 2 -5 0 -8 -6 -8 -5 0 -15 8 -20 18 -10 16 -10 16 -11 0 0 -9 -5 -20 -12
-24 -6 -4 -8 -3 -4 4 3 6 -3 13 -14 17 -11 4 -18 10 -15 15 3 5 0 12 -6 16 -8
4 -9 3 -5 -4 5 -8 -3 -12 -24 -12 -17 0 -29 4 -26 9 7 11 -13 9 -34 -3 -8 -5
-12 -6 -8 -1 13 13 -25 35 -39 23 -9 -7 -13 -7 -13 0 0 6 -7 9 -15 6 -8 -4
-12 -11 -8 -17 3 -6 1 -7 -6 -3 -9 6 -9 11 1 24 10 12 10 14 1 8 -8 -4 -13 -2
-13 4 0 6 -4 9 -9 5 -5 -3 -12 -1 -16 4 -3 6 -12 8 -20 4 -8 -3 -15 0 -15 6 0
6 -6 10 -12 9 -7 -2 -12 3 -10 10 1 8 -2 11 -8 7 -6 -3 -8 -10 -6 -14 3 -4 -1
-8 -9 -8 -8 0 -13 3 -10 5 3 3 -9 12 -27 19 -29 13 -34 12 -46 -4 -10 -14 -13
-14 -12 -3 5 34 0 37 -40 30 -23 -4 -43 -3 -46 2 -3 5 -13 1 -21 -9 -8 -10
-12 -12 -8 -5 8 15 -7 16 -23 0 -16 -16 -16 4 1 22 6 8 2 6 -10 -4 -13 -10
-21 -21 -19 -25 2 -3 -14 -5 -36 -4 -30 1 -38 -2 -34 -13 3 -8 1 -14 -5 -14
-6 0 -7 -6 -3 -12 6 -10 5 -10 -7 -1 -11 9 -14 7 -14 -12 0 -12 5 -21 10 -18
6 2 11 -6 11 -17 0 -11 -5 -20 -10 -20 -5 0 -6 -3 -3 -6 4 -4 14 -1 24 7 13
11 15 11 9 1 -5 -9 -3 -13 5 -11 29 3 41 -2 36 -16 -4 -8 -1 -17 5 -21 6 -4 8
-3 4 4 -3 6 -2 13 4 17 5 3 10 1 10 -5 0 -6 7 -18 15 -27 8 -8 13 -19 10 -24
-4 -5 -2 -9 3 -9 6 0 13 7 16 16 4 10 2 13 -6 8 -6 -4 -8 -3 -4 4 3 5 1 12 -6
14 -6 2 -12 13 -14 24 -2 16 0 16 18 -6 11 -14 24 -24 29 -23 4 1 4 -11 -1
-27 -7 -23 -5 -28 6 -23 8 3 11 10 7 17 -3 6 -2 7 2 3 12 -10 15 -38 4 -31 -5
3 -9 1 -9 -3 0 -10 42 -38 53 -35 5 1 5 -2 2 -8 -5 -8 -13 -6 -25 5 -17 15
-42 4 -26 -12 3 -4 6 -1 6 7 0 10 3 10 15 0 8 -7 13 -16 10 -19 -2 -4 2 -8 10
-8 8 0 12 4 9 9 -10 15 9 8 23 -9 14 -17 14 -17 9 0 -7 22 7 22 25 0 12 -15
12 -16 -1 -8 -8 4 -12 4 -7 0 10 -12 38 -15 31 -4 -3 5 0 9 7 9 6 0 9 -8 6
-19 -3 -14 -1 -18 9 -14 8 3 11 10 7 17 -4 6 5 3 21 -7 23 -15 30 -16 44 -5
11 9 14 10 8 1 -4 -8 -1 -13 9 -13 10 0 14 5 9 13 -6 10 -4 10 7 0 7 -7 17
-13 22 -13 4 0 5 6 1 13 -5 8 -2 8 9 -2 22 -18 22 -20 -8 -16 -14 1 -28 -1
-30 -5 -2 -4 6 -6 18 -5 12 0 31 -3 41 -8 15 -8 18 -6 13 7 -8 21 2 20 20 -1
8 -10 12 -13 9 -7 -3 7 1 15 10 18 8 3 12 2 9 -4 -3 -6 -1 -10 5 -10 6 0 8 -6
5 -12 -4 -7 2 -3 13 10 20 22 38 31 27 12 -4 -7 3 -9 19 -6 15 3 24 1 21 -5
-4 -5 -12 -7 -18 -3 -7 3 -3 -2 7 -10 23 -19 36 -20 36 -5 0 5 -6 7 -12 3 -10
-5 -10 -4 -1 6 12 13 37 5 28 -10 -3 -5 -1 -11 5 -15 6 -3 14 4 19 17 9 20 16
11 12 -15 -1 -4 11 0 26 10 28 17 28 17 13 -2 -8 -11 -11 -17 -6 -13 5 4 18 2
30 -4 20 -11 20 -10 6 7 -8 10 -10 16 -3 12 18 -11 73 -15 67 -6 -3 5 -1 9 5
9 5 0 11 -5 13 -12 3 -7 14 -5 34 8 29 18 29 18 14 -1 -14 -17 -13 -18 3 -12
10 4 21 7 23 7 3 0 3 4 -1 9 -5 9 9 9 45 -2 8 -2 12 -2 7 0 -4 3 -4 9 -1 14 3
6 12 5 22 -3 13 -11 15 -11 10 4 -6 14 -2 15 23 8 18 -5 29 -5 29 1 0 6 9 5
21 -2 15 -8 19 -8 15 0 -4 6 -2 11 4 11 6 0 8 4 5 10 -3 6 1 7 10 3 13 -4 14
-7 3 -14 -9 -6 -6 -8 8 -7 15 2 20 8 17 23 -2 11 -1 14 3 8 3 -7 12 -13 20
-13 9 0 12 5 8 12 -5 7 -3 8 7 2 21 -13 39 -14 39 -1 0 9 2 9 8 0 9 -14 44
-11 50 5 2 6 10 8 19 5 12 -5 14 -3 8 8 -7 12 -6 12 7 1 14 -11 18 -10 27 5
10 17 10 17 11 -2 0 -17 2 -17 10 -5 6 10 10 11 10 3 0 -7 5 -13 11 -13 6 0 8
7 5 16 -3 8 -2 12 4 9 18 -11 54 -18 105 -21 27 -1 51 -7 53 -13 2 -6 8 -11
13 -11 6 0 7 5 4 10 -3 6 -1 10 4 10 6 0 11 -5 11 -10 0 -6 6 -10 13 -9 25 3
48 -1 44 -8 -3 -5 2 -15 11 -23 14 -13 15 -12 9 3 -3 9 -2 19 3 22 6 4 10 -1
10 -9 0 -8 5 -18 12 -22 7 -4 8 -3 4 4 -5 8 0 12 13 12 10 0 22 6 24 13 4 10
6 10 6 0 1 -7 5 -13 11 -13 5 0 7 7 4 15 -5 11 -2 13 12 8 10 -4 15 -2 11 4
-3 5 0 10 8 10 8 0 12 -4 9 -9 -3 -4 0 -8 5 -8 6 0 11 5 11 11 0 6 6 4 14 -3
7 -8 28 -13 45 -12 17 1 31 -3 31 -9 0 -5 8 -3 18 6 15 14 19 15 19 2 0 -8 -5
-11 -11 -8 -6 4 -5 -1 3 -10 15 -18 26 -23 16 -7 -3 6 4 10 17 10 18 0 20 -2
8 -10 -8 -5 -10 -10 -5 -10 6 0 17 6 24 13 11 10 13 10 7 0 -9 -15 10 -18 19
-3 4 6 11 7 17 4 7 -4 6 -9 -2 -14 -8 -5 -7 -9 5 -13 9 -4 14 -3 12 1 -3 4 1
13 8 19 11 10 15 9 20 -7 4 -11 12 -20 20 -20 7 0 21 -3 31 -7 13 -5 15 -3 9
8 -8 12 -6 12 8 0 9 -7 17 -10 17 -6 0 5 10 0 22 -11 21 -19 21 -19 14 0 -7
19 -6 19 14 1 11 -10 20 -14 20 -9 0 5 5 2 11 -6 8 -12 9 -10 4 7 -3 12 -1 24
4 28 7 4 8 -1 4 -11 -4 -11 -3 -15 5 -10 6 3 13 2 17 -4 4 -6 11 -8 16 -5 5 4
9 1 9 -4 0 -6 4 -11 10 -11 5 0 7 8 4 18 -5 16 -5 16 6 -1 6 -10 16 -14 23
-10 16 10 38 13 33 4 -3 -4 -1 -13 5 -21 7 -13 9 -13 9 -1 0 11 4 10 16 -5 8
-10 13 -14 10 -8 -3 7 1 14 9 18 8 3 14 2 12 -2 -1 -4 3 -7 8 -7 6 0 9 4 7 8
-1 5 2 6 7 2 6 -3 8 -11 5 -19 -3 -7 2 -13 10 -13 8 0 13 4 10 9 -3 4 0 8 5 8
6 0 11 -5 11 -11 0 -8 6 -7 17 2 14 12 16 12 8 0 -6 -11 -3 -13 14 -8 17 4 20
2 12 -7 -7 -9 -3 -12 17 -14 18 -1 23 1 14 7 -11 7 -11 9 2 14 9 4 15 3 15 -1
-4 -23 3 -41 17 -46 14 -5 15 -4 5 8 -8 9 -8 16 -2 20 13 8 19 -4 16 -31 -1
-14 4 -23 12 -23 9 0 11 -5 7 -12 -6 -10 -4 -10 8 0 14 12 29 -2 29 -28 0 -3
8 -14 17 -24 9 -11 12 -16 6 -13 -21 12 -24 -33 -4 -50 14 -12 16 -22 9 -39
-6 -17 -5 -23 3 -21 7 1 14 -6 16 -17 2 -11 0 -16 -7 -12 -6 4 -11 2 -11 -5 0
-7 8 -9 21 -6 20 5 20 5 3 -14 -14 -16 -15 -20 -4 -17 9 2 14 -3 11 -12 -2 -8
-4 -21 -5 -28 -1 -8 -9 -18 -17 -23 -10 -8 -7 -9 11 -4 24 6 24 5 6 -9 -11 -9
-16 -22 -12 -31 3 -9 2 -13 -4 -10 -6 3 -10 1 -10 -4 0 -6 6 -11 13 -11 6 -1
1 -8 -13 -16 -14 -8 -17 -13 -7 -10 10 3 16 2 12 -3 -3 -5 -2 -11 2 -14 5 -2
2 -2 -6 0 -8 2 -11 -2 -7 -12 3 -9 2 -13 -4 -10 -13 8 -13 -25 0 -45 6 -10 4
-22 -5 -37 -12 -18 -12 -21 -2 -17 8 3 14 -2 14 -10 0 -8 -6 -12 -14 -9 -11 4
-11 0 -3 -22 6 -15 8 -30 5 -33 -3 -3 -5 0 -5 7 0 7 -4 10 -9 7 -5 -4 -12 0
-15 6 -2 7 -4 2 -3 -12 2 -20 -2 -24 -18 -22 -16 2 -17 1 -6 -7 16 -10 -3 -46
-19 -36 -4 3 -11 -3 -14 -12 -6 -14 -9 -15 -15 -4 -7 10 -10 9 -14 -3 -4 -9
-1 -16 6 -16 7 0 1 -6 -13 -13 -14 -7 -25 -21 -25 -32 0 -11 -6 -19 -13 -17
-10 2 -10 -2 -1 -19 6 -12 7 -19 1 -15 -5 3 -13 -1 -16 -10 -3 -9 -11 -12 -18
-8 -8 4 -10 3 -5 -2 5 -5 13 -9 18 -9 5 0 8 -4 7 -10 -2 -5 -8 -9 -14 -9 -7 1
-11 -6 -9 -15 1 -9 -2 -24 -7 -33 -7 -14 -5 -16 8 -11 14 5 14 2 -2 -23 -11
-15 -14 -25 -8 -21 7 4 14 -2 17 -14 5 -17 3 -18 -9 -8 -12 10 -13 9 -8 -5 3
-9 10 -16 15 -16 5 0 9 -5 9 -11 0 -5 -4 -7 -10 -4 -6 4 -7 -1 -3 -11 4 -12 3
-15 -5 -10 -8 5 -10 2 -6 -8 3 -9 9 -14 13 -11 4 2 8 -2 8 -10 0 -8 -3 -12 -7
-10 -3 2 -6 -5 -6 -16 0 -11 5 -18 11 -15 7 2 12 -2 12 -10 0 -7 -4 -11 -8 -8
-4 2 -11 0 -14 -6 -4 -6 -3 -10 2 -9 24 4 31 -3 27 -28 -5 -24 -3 -25 13 -13
15 12 16 12 6 0 -16 -17 -17 -34 -2 -24 8 5 10 -3 7 -25 -4 -30 -3 -32 21 -27
l26 6 -25 -15 c-21 -12 -22 -14 -6 -15 12 0 16 -5 12 -16 -5 -12 -2 -15 10
-10 12 5 14 1 9 -14 -4 -11 -3 -19 2 -18 18 5 51 -14 63 -37 7 -14 18 -25 23
-25 5 0 4 -6 -2 -14 -10 -12 -9 -14 7 -9 12 3 22 -1 25 -11 4 -11 1 -13 -11
-10 -14 4 -13 3 2 -6 15 -10 20 -9 27 1 5 8 9 12 10 9 0 -3 3 -14 5 -25 3 -11
6 -25 6 -32 1 -7 4 -11 7 -10 17 4 51 -16 56 -34 5 -15 10 -17 25 -9 13 7 21
7 26 -2 5 -7 3 -8 -7 -3 -8 5 -1 -4 14 -18 22 -22 32 -25 47 -17 15 8 22 5 34
-12 15 -21 16 -21 17 -3 0 18 1 18 11 4 11 -16 13 -16 27 0 9 9 12 11 7 4 -14
-22 3 -28 19 -7 11 14 13 14 9 3 -3 -10 1 -19 10 -22 11 -4 16 -1 16 11 0 14
2 15 9 2 6 -8 7 -18 4 -24 -4 -5 -1 -6 8 0 21 13 39 14 39 1 1 -7 9 -3 18 9
10 11 25 21 35 22 42 4 46 6 40 15 -4 6 3 8 16 4 18 -4 20 -3 11 8 -8 10 -8
15 1 21 7 4 9 3 6 -3 -4 -6 0 -14 9 -17 10 -4 13 -2 8 6 -5 8 -1 9 12 5 18 -7
18 -6 -1 9 -20 16 -20 16 4 9 18 -5 22 -4 17 6 -4 8 0 5 8 -5 15 -18 16 -19
16 -2 0 12 5 16 14 13 8 -3 20 2 28 11 11 13 11 14 0 8 -11 -7 -11 -4 -1 12 7
12 17 18 23 15 5 -3 15 2 23 12 9 14 13 15 13 4 0 -9 8 -5 19 11 11 13 17 28
14 32 -2 5 -1 8 4 7 21 -4 44 2 39 9 -3 5 6 15 20 22 13 8 22 20 20 27 -3 7
-1 13 5 13 6 0 7 5 3 11 -4 8 0 9 15 4 13 -4 21 -2 21 5 0 6 -4 8 -10 5 -5 -3
-10 -1 -10 4 0 6 6 11 13 11 8 0 7 4 -3 10 -14 9 -7 15 15 10 6 -1 4 4 -2 11
-7 7 -13 17 -13 23 0 5 10 -2 22 -15 14 -16 19 -19 15 -7 -4 11 1 25 12 35 10
10 17 26 16 35 -2 10 2 15 10 12 9 -4 13 2 11 19 -2 18 1 24 10 20 9 -3 14 2
14 12 0 10 -5 13 -12 9 -7 -4 -8 -3 -4 4 4 6 13 9 21 6 10 -4 13 0 10 16 -4
18 -2 20 11 9 13 -10 13 -8 5 14 -8 19 -7 30 2 39 7 7 13 24 12 38 0 14 4 33
8 44 6 12 5 21 -4 27 -11 6 -11 11 -1 21 13 13 17 32 5 25 -5 -3 -8 5 -8 18 0
18 3 21 13 13 14 -12 7 17 -10 39 -5 7 -5 14 1 17 7 4 7 15 1 31 -6 15 -6 27
0 30 17 10 11 28 -6 21 -14 -5 -15 -4 -4 9 7 8 9 15 4 15 -4 0 -3 5 3 11 8 8
7 20 -3 44 -7 18 -11 42 -9 54 2 12 0 19 -6 16 -13 -9 -11 9 4 24 10 10 9 12
-3 9 -10 -2 -14 3 -12 16 2 12 -1 17 -10 13 -9 -3 -14 3 -16 16 -1 17 1 19 8
7 5 -8 10 -10 10 -5 0 19 -36 65 -45 58 -5 -5 -3 1 5 11 10 13 10 17 3 12 -8
-4 -13 -1 -13 8 0 9 -4 16 -10 16 -5 0 -10 5 -10 11 0 5 6 7 13 4 6 -4 3 0 -7
9 -10 8 -24 12 -30 9 -6 -4 -5 0 2 9 9 11 10 18 2 23 -14 9 -32 -4 -24 -18 5
-9 3 -9 -6 0 -11 10 -16 9 -27 -5 -13 -15 -13 -15 -4 4 6 12 7 25 3 30 -4 5 0
3 9 -4 9 -6 19 -9 22 -5 11 10 8 53 -4 53 -5 0 -7 6 -3 13 5 8 2 8 -9 -2 -17
-13 -23 -6 -18 23 1 5 -7 15 -19 23 -11 8 -20 19 -20 25 0 7 7 3 16 -8 15 -18
15 -18 5 2 -6 12 -7 24 -4 28 12 12 -13 6 -27 -6 -12 -11 -12 -10 -1 5 8 9 11
20 7 24 -3 4 -12 -2 -20 -12 -13 -18 -14 -17 -11 7 2 15 6 32 11 39 4 8 3 9
-4 5 -8 -4 -12 0 -12 11 0 15 -2 16 -10 3 -6 -9 -10 -10 -10 -3 0 6 5 15 11
19 8 5 6 10 -5 16 -9 5 -14 13 -11 19 3 5 -1 6 -10 3 -11 -5 -14 -2 -9 9 9 25
-5 40 -24 25 -9 -8 -13 -8 -9 -2 4 7 -1 20 -11 31 -9 10 -12 12 -7 4 9 -12 7
-12 -12 0 -19 11 -20 15 -8 22 8 4 15 13 15 19 0 7 -6 6 -15 -2 -9 -7 -18 -10
-22 -6 -3 3 -1 6 6 6 9 0 9 5 1 21 -7 11 -17 18 -25 16 -9 -4 -11 1 -7 16 5
20 4 21 -12 8 -9 -8 -19 -11 -23 -7 -3 3 -1 6 5 6 7 0 12 7 12 16 0 9 -5 12
-12 8 -8 -5 -7 0 2 11 14 17 13 17 -8 10 -22 -6 -23 -5 -12 15 11 20 10 21
-10 10 -16 -8 -20 -9 -16 -1 4 6 0 14 -8 17 -9 3 -16 12 -16 20 0 8 -6 11 -15
8 -10 -4 -13 -2 -10 8 7 18 -33 61 -48 51 -7 -4 -5 2 3 13 8 10 11 16 6 12 -5
-4 -15 0 -23 8 -8 8 -20 11 -26 7 -8 -4 -7 -1 1 9 10 13 10 17 -3 22 -11 4
-14 2 -9 -6 4 -7 3 -8 -5 -4 -6 4 -10 15 -9 24 2 11 -4 17 -17 17 -11 0 -23 8
-28 18 -6 17 -9 17 -24 6 -12 -10 -14 -10 -9 -1 4 7 1 12 -8 12 -9 0 -16 6
-16 14 0 8 -7 17 -16 20 -8 3 -13 2 -10 -2 3 -5 -1 -9 -8 -9 -8 0 -12 7 -8 15
4 11 1 13 -8 7 -10 -6 -12 -4 -7 8 4 12 2 14 -10 10 -11 -4 -14 -2 -9 5 5 8 1
10 -11 5 -16 -6 -17 -5 -3 13 14 18 13 18 -9 -1 -14 -11 -21 -15 -18 -8 10 16
-13 28 -24 12 -6 -11 -14 -8 -36 11 -15 14 -22 18 -15 8 11 -13 11 -18 0 -24
-7 -4 -10 -4 -6 0 3 4 -1 16 -9 26 -16 18 -51 16 -66 -4 -5 -6 -6 -2 -3 9 5
16 1 21 -14 23 -44 4 -50 6 -50 14 0 5 -5 6 -10 3 -6 -4 -8 -10 -6 -13 4 -6
-14 -7 -57 -3 -5 1 -6 5 -3 9 2 4 -8 8 -24 7 -15 0 -26 -3 -23 -7 2 -5 0 -8
-6 -8 -5 0 -12 6 -14 13 -3 6 -6 3 -6 -8 -1 -16 -3 -17 -10 -6 -5 8 -7 21 -4
30 2 9 -2 5 -10 -9 -9 -14 -17 -24 -19 -24 -2 1 -20 9 -40 17 -34 14 -39 14
-53 1 -10 -10 -15 -11 -15 -4 0 7 -8 10 -20 7 -13 -3 -18 -1 -14 6 3 7 -2 3
-10 -7 -15 -18 -21 -13 -18 15 1 3 -6 6 -13 6 -11 0 -12 -4 -3 -14 6 -7 8 -16
4 -20 -3 -3 -6 -1 -6 5 0 7 -7 12 -16 12 -9 0 -12 5 -8 12 4 7 3 8 -4 4 -7 -4
-12 -14 -12 -23 0 -11 -5 -9 -20 8 -10 13 -19 19 -20 14 0 -6 -15 -12 -32 -13
-19 -1 -28 1 -21 6 7 5 -5 8 -29 9 -23 1 -45 8 -49 15 -7 10 -9 9 -9 -4z
m1151 -1325 c-11 -5 -11 -7 0 -14 10 -6 11 -9 2 -9 -7 0 -13 -5 -13 -11 0 -6
7 -8 16 -5 10 4 13 2 7 -7 -11 -17 -10 -31 2 -39 6 -5 4 -8 -4 -8 -11 0 -10
-3 3 -13 17 -13 18 -14 2 -20 -12 -5 -15 -3 -10 6 4 7 3 8 -2 4 -5 -5 -9 -29
-10 -55 -1 -62 -5 -75 -29 -90 l-20 -13 20 5 c11 3 27 1 35 -4 16 -10 4 -15
-27 -11 -6 1 -15 -4 -19 -10 -4 -8 -3 -9 5 -5 8 5 11 -3 8 -31 -2 -28 -7 -38
-19 -37 -10 1 -14 -4 -11 -12 2 -7 10 -12 16 -10 7 1 9 1 4 -1 -4 -3 -5 -9 -2
-13 3 -5 -4 -7 -16 -5 -18 4 -19 2 -7 -12 9 -12 9 -15 1 -9 -13 7 -18 -10 -13
-43 1 -11 -2 -10 -15 3 -21 21 -31 21 -14 -1 13 -15 12 -15 -7 -5 -16 9 -21 8
-21 -3 0 -8 4 -12 8 -9 4 2 10 0 13 -5 4 -5 -2 -8 -11 -6 -10 2 -21 4 -25 4
-4 1 -5 7 -2 15 3 8 1 17 -4 20 -5 3 -9 -2 -8 -11 0 -9 -5 -18 -11 -20 -7 -3
-13 0 -13 7 0 6 5 8 12 4 7 -4 8 -3 4 5 -4 6 -12 9 -17 6 -5 -4 -7 4 -5 17 3
13 5 29 5 36 1 6 8 12 16 12 8 0 15 5 15 11 0 5 -5 7 -11 3 -8 -5 -8 -1 0 14
6 12 19 25 27 30 11 6 13 11 5 16 -6 4 -11 2 -11 -3 0 -6 -5 -11 -12 -11 -6 0
-4 7 5 18 10 10 14 22 10 25 -3 4 2 7 12 7 14 0 15 -3 5 -15 -9 -10 -9 -15 -1
-15 6 0 11 3 12 8 0 4 2 15 4 25 2 10 -1 14 -8 10 -6 -4 -8 0 -4 9 3 9 0 21
-6 27 -9 9 -8 11 4 6 10 -4 16 0 16 9 0 8 -4 13 -9 10 -4 -3 -8 -1 -8 5 0 5
-8 11 -17 13 -15 3 -15 5 2 22 19 18 19 18 -4 11 -15 -5 -21 -4 -17 3 3 6 -2
13 -11 16 -14 4 -14 4 2 3 11 -2 28 8 38 20 10 13 23 20 29 17 7 -4 8 -2 4 5
-4 6 -11 9 -16 6 -5 -3 -11 -2 -14 3 -2 4 5 9 16 9 12 1 26 7 32 14 8 9 8 10
-1 5 -9 -5 -11 -2 -7 8 3 9 12 12 21 9 12 -5 14 -3 8 8 -7 11 -5 11 10 -1 10
-8 16 -10 13 -5 -11 19 9 51 33 52 13 0 18 -1 10 -4z"/>
<path d="M5833 7653 c2 -5 -4 -16 -14 -25 -15 -14 -18 -14 -23 -2 -4 10 -2 12
6 8 7 -4 8 -3 4 5 -6 9 -11 9 -21 1 -14 -12 -52 -10 -74 4 -10 6 -12 5 -7 -3
6 -8 2 -11 -10 -9 -12 2 -19 -3 -19 -14 0 -9 -4 -20 -8 -25 -5 -4 -7 -1 -5 7
5 24 -35 17 -61 -10 -16 -16 -23 -19 -19 -8 4 10 1 19 -7 22 -9 3 -12 0 -8
-10 4 -10 0 -12 -11 -8 -9 3 -13 11 -9 17 3 6 1 7 -6 3 -6 -4 -9 -17 -6 -29 2
-12 2 -16 -1 -9 -3 6 -13 12 -21 12 -13 0 -13 -2 -2 -17 13 -15 11 -15 -13 1
-20 13 -28 14 -34 5 -5 -8 -3 -9 6 -4 9 5 11 4 6 -3 -4 -7 -18 -12 -32 -12
-14 0 -22 -4 -19 -10 4 -6 -1 -7 -11 -3 -12 5 -15 3 -9 -6 6 -10 3 -11 -15 -1
-20 11 -21 10 -10 -12 10 -19 10 -21 0 -11 -11 10 -16 9 -25 -4 -10 -13 -14
-13 -20 -3 -6 9 -4 11 5 5 9 -5 11 -4 6 4 -4 6 -12 9 -17 5 -5 -3 -6 -10 -3
-16 5 -7 0 -9 -14 -6 -16 5 -20 2 -17 -13 3 -16 1 -18 -17 -8 -15 8 -19 8 -14
0 4 -6 2 -11 -4 -11 -6 0 -8 -5 -4 -12 4 -6 3 -8 -4 -4 -6 3 -13 2 -17 -4 -3
-5 -12 -10 -18 -10 -7 0 -6 4 3 11 13 9 13 10 0 6 -8 -2 -14 -11 -14 -20 1
-15 -12 -17 -33 -4 -7 5 -14 6 -14 3 -3 -12 -7 -26 -9 -33 -1 -5 -2 -11 -2
-14 1 -3 -14 -5 -33 -4 -30 1 -33 -1 -24 -18 10 -17 8 -17 -12 -7 -19 11 -21
10 -16 -4 6 -15 -9 -22 -36 -17 -5 1 -6 -3 -2 -9 3 -6 -4 -10 -17 -10 -18 0
-20 -2 -8 -10 13 -8 13 -10 -2 -11 -27 -2 -32 -4 -53 -17 -19 -12 -19 -13 5
-8 23 5 23 4 -2 -6 -16 -7 -28 -17 -28 -22 0 -6 -5 -4 -11 4 -9 12 -10 10 -6
-8 5 -20 3 -21 -9 -11 -12 10 -15 10 -12 -2 2 -8 -3 -13 -11 -11 -8 2 -11 -3
-8 -12 4 -9 -2 -21 -13 -29 -11 -8 -17 -16 -14 -20 3 -3 -4 -3 -17 0 -15 4
-20 3 -15 -5 4 -7 2 -12 -4 -12 -6 0 -8 -5 -4 -12 4 -7 3 -8 -4 -4 -6 4 -10
12 -9 19 2 7 -1 2 -7 -10 -5 -13 -14 -23 -19 -23 -4 0 -5 5 -2 10 10 16 -1 11
-16 -7 -12 -14 -12 -16 0 -8 10 5 12 4 7 -3 -4 -7 -14 -12 -22 -12 -10 0 -12
-5 -8 -12 5 -9 2 -8 -9 1 -15 12 -17 12 -11 -2 4 -12 1 -15 -15 -12 -14 2 -18
-1 -14 -11 3 -9 -1 -14 -12 -14 -9 0 -14 -4 -11 -9 3 -5 -2 -15 -11 -22 -14
-12 -16 -12 -8 0 5 10 4 12 -3 7 -7 -4 -12 -14 -12 -21 0 -9 -6 -12 -17 -8
-12 5 -14 3 -8 -7 6 -10 4 -12 -7 -7 -12 4 -14 1 -11 -14 3 -11 0 -19 -6 -19
-7 0 -10 4 -7 8 3 5 -1 9 -8 9 -8 0 -11 -8 -8 -19 3 -13 -1 -18 -17 -18 -11 0
-21 -5 -21 -11 0 -5 4 -8 9 -4 5 3 12 1 15 -4 3 -4 -2 -8 -12 -8 -33 0 -42 -3
-42 -14 0 -5 5 -7 10 -4 6 3 10 1 10 -6 0 -6 -8 -9 -20 -6 -11 3 -23 0 -27 -5
-3 -6 -1 -8 5 -4 6 3 13 3 16 -2 2 -4 -7 -9 -21 -10 -13 -1 -32 -7 -41 -12
-14 -9 -12 -10 8 -5 l25 7 -23 -17 c-19 -14 -26 -15 -40 -4 -12 10 -11 7 3
-10 11 -14 14 -21 8 -17 -7 4 -13 2 -13 -4 0 -6 -4 -9 -9 -5 -5 3 -13 0 -17
-6 -4 -7 -3 -9 4 -5 6 3 13 2 17 -4 5 -9 -15 -15 -38 -11 -4 1 -3 -8 3 -19 9
-16 8 -19 -6 -13 -10 4 -24 -4 -38 -20 -13 -15 -27 -23 -32 -19 -4 4 -2 -1 5
-11 12 -15 12 -17 -4 -11 -12 5 -16 4 -12 -3 8 -13 -20 -26 -36 -16 -7 4 -6
-1 2 -10 8 -10 11 -20 7 -24 -3 -3 -6 -2 -6 4 0 5 -7 10 -15 10 -11 0 -12 -3
-3 -14 6 -8 7 -13 2 -12 -22 4 -35 -2 -28 -13 5 -8 2 -9 -11 -4 -15 5 -16 4
-6 -8 11 -13 9 -15 -8 -11 -14 3 -18 0 -14 -11 3 -9 0 -14 -8 -12 -8 2 -13 -3
-11 -11 2 -9 -3 -11 -14 -7 -15 6 -15 4 -3 -11 9 -11 10 -14 2 -9 -8 4 -13 2
-13 -4 0 -6 -5 -8 -12 -4 -7 5 -9 1 -6 -13 5 -17 1 -21 -18 -18 -21 2 -22 0
-12 -13 11 -13 10 -15 -4 -9 -12 4 -18 2 -18 -7 0 -8 -5 -16 -11 -18 -5 -2
-12 -12 -14 -23 -2 -11 -4 -22 -4 -24 -1 -2 -8 2 -17 10 -13 11 -14 9 -9 -14
6 -22 4 -27 -11 -27 -14 0 -15 -3 -6 -8 9 -7 8 -13 -8 -27 -16 -14 -17 -20 -8
-27 9 -5 8 -8 -6 -8 -11 0 -16 -5 -13 -14 3 -8 -3 -22 -14 -32 -14 -12 -19
-13 -19 -4 0 7 -3 10 -6 7 -4 -4 -1 -13 6 -22 7 -9 10 -18 6 -22 -3 -3 -6 -2
-6 4 0 5 -7 10 -15 10 -11 0 -12 -4 -3 -14 8 -11 7 -12 -5 -7 -12 4 -20 -3
-29 -23 -7 -15 -19 -32 -26 -36 -10 -7 -10 -12 -1 -23 9 -11 8 -14 -7 -15 -11
0 -14 -3 -6 -6 8 -3 5 -11 -10 -25 -13 -11 -18 -17 -11 -14 6 4 14 2 18 -4 3
-5 -2 -10 -12 -10 -15 0 -16 -2 -3 -10 14 -9 7 -15 -14 -11 -5 1 -3 -6 5 -15
8 -10 9 -15 2 -11 -6 4 -14 3 -18 -3 -3 -5 -1 -10 5 -10 6 0 8 -5 5 -10 -4 -6
-11 -8 -16 -5 -13 9 -11 -9 4 -24 10 -11 8 -11 -13 -1 -23 12 -24 12 -11 -3
12 -15 11 -17 -5 -17 -13 0 -15 -3 -7 -8 12 -7 3 -35 -11 -33 -18 3 -20 0 -6
-9 10 -6 11 -10 3 -10 -7 0 -13 -9 -13 -20 0 -11 -6 -20 -12 -20 -9 0 -8 -4 2
-10 8 -5 10 -10 4 -10 -6 0 -11 -7 -12 -15 -1 -8 -3 -22 -4 -30 -1 -8 -8 -15
-17 -16 -12 0 -11 -3 4 -9 18 -7 19 -8 3 -15 -10 -4 -18 -11 -18 -17 0 -5 5
-6 10 -3 6 3 10 2 10 -4 0 -5 -8 -15 -17 -20 -13 -7 -14 -10 -4 -11 11 0 11
-4 -2 -18 -13 -15 -14 -21 -4 -32 10 -10 8 -12 -8 -6 -16 6 -18 5 -7 -5 14
-15 16 -33 3 -25 -5 4 -8 -2 -6 -11 1 -10 -2 -23 -7 -30 -5 -7 -5 -14 2 -18 7
-4 7 -12 0 -25 -7 -13 -7 -21 1 -26 9 -5 6 -11 -6 -21 -14 -9 -15 -13 -4 -13
10 -1 9 -4 -4 -11 -18 -10 -18 -11 0 -32 10 -11 12 -17 6 -13 -9 5 -13 1 -13
-11 0 -10 -3 -29 -7 -42 -4 -17 -3 -22 5 -17 8 5 10 2 6 -8 -3 -9 -9 -14 -13
-11 -4 2 -8 -2 -8 -10 0 -8 4 -12 9 -9 11 7 10 -3 -3 -28 -8 -15 -8 -19 0 -14
6 4 11 2 11 -3 0 -6 -4 -11 -8 -11 -5 0 -9 -7 -9 -15 0 -8 4 -12 8 -9 4 2 10
0 14 -6 3 -5 1 -10 -5 -10 -6 0 -8 -5 -4 -11 3 -6 0 -15 -7 -20 -11 -7 -11 -9
3 -9 14 0 15 -5 8 -30 -6 -21 -5 -34 5 -44 10 -10 11 -16 2 -25 -6 -6 -7 -11
-2 -11 4 0 0 -10 -11 -22 -12 -14 -13 -18 -3 -10 9 6 19 9 22 5 11 -10 8 -51
-3 -58 -13 -8 -13 -25 1 -25 5 0 7 5 3 12 -4 6 -3 8 3 5 11 -7 10 -43 -2 -54
-4 -5 -5 -3 -1 4 3 6 3 14 -2 17 -4 2 -8 -6 -8 -19 0 -14 4 -21 11 -17 5 3 4
-2 -4 -11 -10 -13 -10 -17 -1 -17 9 0 9 -4 -1 -17 -12 -15 -12 -16 6 -9 16 6
18 5 8 -5 -7 -7 -13 -17 -13 -22 0 -4 6 -5 13 -2 6 4 4 0 -5 -7 -15 -13 -15
-15 0 -26 9 -7 12 -10 5 -7 -7 3 -12 -2 -12 -12 0 -10 -2 -35 -5 -55 -2 -21 0
-38 5 -38 6 0 7 5 3 12 -4 7 -3 8 4 4 6 -4 8 -14 5 -23 -5 -12 -3 -14 7 -8 10
6 11 4 4 -6 -13 -22 -14 -42 -2 -56 8 -11 7 -12 -8 -6 -16 6 -17 5 -6 -9 10
-13 10 -17 0 -21 -9 -4 -8 -6 3 -6 15 -1 16 -12 10 -64 -1 -5 -6 -5 -13 -1 -7
4 -8 3 -4 -5 5 -8 12 -9 20 -2 8 7 12 4 12 -10 0 -10 -6 -19 -13 -19 -6 0 -14
-4 -17 -9 -3 -5 1 -8 10 -7 13 1 16 -11 18 -56 1 -31 -2 -54 -6 -52 -4 3 -8 0
-8 -5 0 -6 8 -11 18 -11 14 0 15 -2 2 -10 -13 -9 -13 -10 0 -10 13 0 13 -1 0
-10 -13 -9 -13 -10 0 -11 10 0 8 -3 -5 -9 -17 -7 -17 -9 -2 -9 20 -1 22 -12 5
-30 -11 -12 -10 -13 6 -7 20 7 20 7 0 -15 -15 -17 -15 -21 -3 -17 9 4 16 1 16
-8 0 -7 -4 -11 -8 -8 -4 2 -10 0 -13 -5 -4 -5 -2 -13 4 -16 8 -5 8 -11 0 -20
-7 -9 -6 -16 7 -26 14 -12 16 -12 8 0 -5 9 -4 12 3 8 11 -8 5 -44 -10 -53 -5
-3 -4 -12 3 -20 6 -8 9 -14 5 -14 -3 0 -1 -11 4 -25 6 -15 6 -25 0 -25 -5 0
-8 -9 -7 -20 1 -11 5 -20 10 -20 5 0 6 7 3 16 -6 15 -4 15 10 3 10 -8 12 -15
5 -17 -6 -2 -11 -10 -11 -18 0 -9 5 -13 13 -9 6 4 4 0 -6 -8 -18 -15 -18 -15
0 -20 13 -3 11 -5 -7 -6 -19 -1 -22 -3 -10 -10 8 -6 18 -7 24 -4 5 3 6 1 2 -6
-4 -6 -11 -9 -14 -7 -4 2 -7 -11 -6 -30 1 -19 -2 -34 -8 -34 -5 0 -2 -8 8 -17
11 -11 13 -18 5 -21 -6 -2 -11 -8 -11 -13 0 -6 5 -7 12 -3 6 4 8 3 4 -4 -3 -5
0 -13 6 -16 7 -3 3 -3 -9 0 -17 4 -21 1 -18 -13 2 -10 4 -22 4 -26 1 -5 6 -5
11 -2 6 3 10 1 10 -4 0 -6 -8 -11 -17 -11 -15 0 -16 -2 -3 -10 10 -6 11 -10 3
-10 -9 0 -10 -7 -3 -24 6 -16 5 -28 -3 -36 -9 -10 -9 -11 1 -6 6 4 12 3 12 -3
0 -5 -6 -11 -12 -13 -9 -3 -8 -9 5 -22 21 -21 23 -33 2 -16 -12 10 -13 8 -10
-10 2 -13 7 -25 10 -28 2 -3 0 -11 -6 -18 -7 -8 -6 -14 2 -20 8 -4 9 -3 5 4
-5 8 -1 10 10 5 14 -5 13 -8 -7 -19 -21 -12 -19 -19 4 -15 5 1 6 -3 3 -8 -4
-5 0 -12 6 -15 7 -3 4 -4 -7 -1 -16 4 -21 0 -22 -17 -2 -18 0 -20 8 -8 8 12
10 11 8 -5 -3 -37 1 -56 10 -51 5 4 4 -5 -2 -18 -7 -13 -16 -22 -20 -19 -5 3
-2 -6 7 -19 14 -22 14 -27 2 -37 -8 -7 -13 -23 -11 -37 1 -13 -2 -27 -7 -30
-5 -3 -4 -12 3 -20 8 -10 8 -14 0 -14 -6 0 -11 -4 -11 -10 0 -5 8 -6 18 -3 15
6 15 5 3 -10 -7 -9 -17 -15 -20 -12 -4 2 -8 -2 -8 -10 0 -8 3 -13 6 -12 3 1 6
-2 6 -8 0 -5 -4 -9 -8 -7 -5 1 -6 -2 -2 -8 3 -6 10 -8 15 -5 5 3 12 0 16 -6 4
-8 3 -9 -4 -5 -7 4 -12 3 -12 -3 0 -5 6 -12 13 -14 7 -4 6 -6 -5 -6 -9 -1 -19
5 -22 12 -2 6 -4 3 -3 -8 2 -11 7 -26 11 -34 6 -9 5 -12 0 -8 -6 3 -16 -4 -24
-16 -12 -21 -12 -21 5 -7 17 14 18 13 12 -3 -4 -10 -7 -27 -7 -38 0 -13 -5
-17 -17 -12 -16 5 -15 4 1 -9 13 -10 15 -17 8 -22 -7 -4 -12 -12 -12 -17 0 -6
5 -7 12 -3 7 4 8 3 4 -4 -4 -7 -14 -12 -21 -12 -11 0 -12 -6 -5 -26 14 -35 12
-41 -4 -18 -8 10 -18 16 -22 11 -4 -4 -2 -7 5 -7 7 0 9 -5 4 -12 -12 -20 -14
-48 -3 -48 6 0 10 -4 10 -10 0 -5 -7 -7 -16 -3 -14 5 -15 3 -4 -17 10 -18 9
-21 -1 -15 -9 6 -11 3 -6 -9 5 -11 3 -15 -5 -10 -7 5 -9 -1 -6 -20 3 -14 1
-29 -5 -33 -6 -4 -7 -1 -2 8 7 12 6 12 -7 1 -10 -8 -14 -21 -10 -34 3 -14 1
-19 -6 -14 -6 3 -13 2 -16 -3 -4 -5 -1 -13 5 -17 8 -5 9 -3 4 6 -5 9 -4 11 4
6 18 -11 1 -28 -23 -22 -19 5 -19 4 -4 -8 10 -7 15 -16 11 -19 -3 -4 -1 -7 6
-7 9 0 8 -4 -3 -15 -17 -18 -30 -20 -20 -3 4 7 3 8 -5 4 -6 -4 -8 -13 -4 -19
4 -7 8 -16 10 -22 1 -5 4 -20 7 -32 3 -13 1 -25 -4 -28 -5 -3 -7 4 -5 15 2 11
-1 20 -7 20 -5 0 -8 -6 -5 -14 3 -7 1 -18 -5 -24 -6 -6 -6 -12 3 -17 8 -6 10
-4 4 6 -5 8 -4 11 1 6 15 -14 11 -31 -14 -53 -19 -18 -20 -23 -7 -28 9 -3 13
-2 10 3 -3 5 -1 12 4 15 5 4 8 -2 6 -11 -2 -10 -4 -22 -4 -26 -1 -5 -7 -5 -13
-1 -8 5 -7 0 2 -11 14 -17 13 -18 -2 -12 -10 3 -20 1 -24 -5 -4 -7 -3 -8 4 -4
16 10 15 -7 0 -23 -11 -11 -10 -12 1 -6 11 6 13 4 8 -9 -4 -10 -7 -20 -7 -22
0 -3 -6 -2 -12 2 -7 4 -4 -3 7 -16 l20 -23 -20 7 c-17 6 -16 3 5 -16 14 -13
32 -32 40 -42 15 -19 14 -19 -13 -1 -24 15 -27 16 -21 1 3 -9 10 -16 15 -16 5
0 9 -5 9 -11 0 -5 -5 -7 -12 -3 -7 4 -8 3 -4 -5 6 -9 11 -9 22 0 11 9 14 8 14
-5 0 -9 -5 -16 -11 -16 -5 0 -7 -5 -4 -10 3 -5 11 -10 16 -10 6 0 8 4 5 8 -8
13 27 10 41 -3 7 -7 9 -16 5 -20 -4 -5 1 -5 11 -2 10 4 16 3 12 -2 -3 -5 -1
-12 4 -16 7 -3 7 -15 1 -30 -6 -15 -6 -27 1 -30 5 -4 7 -10 4 -15 -6 -10 15
-8 33 3 6 5 17 5 22 2 6 -3 13 1 16 9 3 9 10 16 16 16 5 0 6 -6 2 -12 -4 -8
-3 -9 2 -5 5 5 9 16 9 25 0 9 5 17 12 17 6 0 15 4 20 9 5 5 3 6 -4 2 -7 -4
-13 -2 -13 3 0 6 7 11 15 11 14 0 19 12 16 33 0 4 6 7 15 7 8 0 13 4 10 9 -3
5 1 14 10 21 10 9 12 15 4 20 -8 5 -6 12 5 23 9 9 14 21 10 26 -3 5 -1 12 5
16 6 3 11 -4 11 -17 1 -18 2 -19 6 -5 3 10 -1 25 -9 34 -9 12 -9 15 0 9 6 -4
12 -2 12 3 0 6 7 11 16 11 8 0 12 5 9 10 -4 7 -14 6 -28 -1 -20 -9 -20 -9 -4
4 19 16 24 42 5 31 -7 -4 -8 -3 -4 5 9 14 26 5 26 -13 0 -8 8 -20 17 -27 15
-12 16 -12 11 2 -5 13 -2 16 15 11 12 -3 16 -7 10 -9 -6 -2 -9 -15 -7 -29 4
-25 -2 -29 -30 -18 -9 3 -13 10 -10 16 4 5 11 5 18 -1 9 -8 13 -7 13 3 0 15
-14 16 -34 3 -18 -11 -16 -27 3 -27 12 0 15 -6 10 -22 -3 -13 -6 -27 -6 -32 0
-4 -6 -6 -12 -3 -8 3 -14 -5 -14 -20 -2 -23 -1 -23 13 -6 13 17 13 17 4 -3 -7
-15 -7 -24 1 -32 9 -9 9 -15 -1 -25 -10 -10 -11 -9 -6 3 3 9 -4 21 -17 29 -23
14 -23 14 -4 -8 11 -11 16 -21 11 -21 -4 0 -2 -7 5 -15 11 -13 10 -15 -6 -9
-18 5 -18 5 -2 -9 10 -8 15 -17 11 -20 -3 -4 -1 -7 6 -7 7 0 9 -5 5 -12 -4 -7
6 -2 22 12 16 14 23 18 17 10 -7 -8 -13 -21 -13 -30 0 -13 1 -13 10 0 5 8 10
11 10 6 0 -5 6 -3 13 3 8 6 18 7 22 3 5 -4 5 -1 1 6 -4 7 -12 10 -17 7 -14 -9
-11 5 6 21 11 11 15 12 15 3 0 -7 3 -9 7 -5 5 4 -1 15 -12 23 -20 15 -20 15 2
10 17 -4 20 -1 15 12 -5 13 -3 14 9 4 13 -10 16 -10 16 2 0 8 -4 12 -9 9 -4
-3 -8 0 -8 6 0 6 -4 9 -8 6 -5 -3 -9 2 -9 10 0 10 4 11 11 4 15 -15 29 -12 23
4 -5 11 0 13 25 6 26 -8 28 -7 17 6 -10 12 -9 13 5 8 12 -5 15 -2 10 12 -5 18
-5 18 6 1 12 -19 30 -14 30 9 0 9 -5 12 -11 8 -8 -4 -8 0 0 15 7 11 14 21 17
21 3 0 2 -4 -1 -10 -10 -16 1 -11 16 7 8 9 9 14 3 10 -12 -7 -29 21 -19 31 3
3 5 0 5 -6 0 -6 7 -9 16 -5 13 5 13 7 2 14 -7 5 -8 9 -3 9 6 0 3 5 -5 10 -13
8 -12 10 4 10 14 0 16 3 7 13 -13 16 19 53 34 40 5 -5 4 -1 -3 8 -6 9 -8 20
-4 24 4 5 1 5 -6 1 -7 -4 -10 -11 -7 -16 3 -5 1 -11 -4 -14 -15 -10 -6 26 10
38 10 7 15 27 14 58 -1 26 1 45 4 43 9 -5 4 72 -5 87 -4 6 -3 9 2 6 5 -4 9 4
9 17 0 13 -3 21 -7 18 -10 -5 -10 -5 1 35 6 20 6 30 0 27 -13 -8 -11 9 2 22 8
8 7 13 -2 18 -8 6 -10 4 -4 -5 5 -8 4 -11 -3 -6 -10 6 -9 36 3 55 3 5 1 13 -5
16 -8 5 -7 11 1 22 10 12 10 16 -2 24 -10 6 -11 9 -1 9 8 0 10 5 5 13 -10 17
-10 38 1 62 5 11 9 35 7 53 -1 19 2 31 6 29 5 -3 8 8 8 24 1 16 -4 29 -10 29
-5 0 -1 7 9 15 14 11 16 15 5 15 -12 0 -12 2 1 10 13 9 13 10 0 10 -11 0 -10
3 4 11 14 9 15 13 6 19 -8 5 -9 13 -4 21 5 8 9 21 9 29 0 8 4 21 9 29 6 10 5
12 -2 7 -17 -10 -15 10 3 27 8 8 11 18 8 21 -11 11 -12 36 -1 30 6 -4 8 1 4
14 -4 13 -1 22 9 26 12 4 14 10 6 25 -8 15 -7 20 5 25 13 5 14 9 4 21 -10 12
-10 15 0 15 8 0 10 3 7 7 -4 3 -2 12 4 20 6 7 8 13 4 13 -4 0 -1 8 6 17 8 9 9
14 2 10 -7 -5 -9 0 -6 13 3 11 9 17 14 14 5 -3 6 1 3 9 -3 8 0 18 6 22 8 5 8
11 -1 21 -8 10 -8 14 0 14 6 0 10 3 9 8 -1 4 2 27 6 52 5 25 8 48 7 53 0 4 3
7 8 7 5 0 8 8 6 18 -1 9 4 25 13 35 11 12 12 17 2 17 -9 0 -10 3 -1 13 6 8 8
17 4 20 -3 4 -1 7 6 7 7 0 9 5 6 10 -3 6 -1 10 5 10 6 0 8 5 5 10 -4 6 -2 17
5 25 8 10 8 15 -1 21 -9 5 -7 10 5 20 11 8 13 14 7 19 -6 3 -11 11 -11 16 0 6
3 8 8 5 4 -2 7 20 7 50 -1 51 3 59 30 55 6 -1 2 5 -7 12 -15 12 -15 14 0 25
15 10 15 11 -3 6 -19 -5 -19 -5 -3 9 10 8 15 17 11 20 -3 4 0 14 8 24 8 9 9
14 3 10 -8 -5 -11 4 -9 26 2 24 7 31 20 29 11 -2 15 2 13 10 -3 7 2 19 11 26
9 8 11 11 5 8 -8 -4 -11 3 -10 18 1 16 5 21 12 15 7 -6 10 1 9 22 -1 17 -6 34
-11 37 -13 10 -16 40 -4 47 6 4 7 -1 4 -12 -4 -14 -2 -13 14 5 21 23 42 32 23
9 -6 -8 -7 -18 -3 -22 4 -5 1 -5 -7 0 -10 6 -12 4 -6 -5 5 -9 4 -11 -3 -6 -17
10 -15 -9 2 -23 11 -9 16 -9 22 0 4 8 3 9 -4 5 -13 -8 -16 6 -4 18 4 4 8 12 8
17 1 5 3 11 4 14 7 14 5 31 -4 44 -9 12 -7 13 8 8 16 -7 17 -5 5 9 -16 20 -20
58 -4 44 7 -6 15 -3 22 9 9 14 8 18 -3 18 -7 0 -10 -5 -7 -10 3 -6 1 -7 -6 -3
-9 6 -9 11 0 22 6 7 15 11 20 8 5 -3 6 2 3 10 -3 9 -10 16 -15 16 -5 0 -9 4
-9 10 0 5 6 7 13 4 8 -3 14 2 14 10 0 8 -3 13 -7 11 -4 -2 -7 2 -7 10 0 8 4
12 9 9 4 -3 8 2 8 11 0 10 -5 13 -12 9 -9 -5 -9 -2 1 9 7 9 10 17 6 17 -4 0
-2 6 4 13 6 8 7 17 3 21 -12 12 -9 30 8 43 13 10 11 12 -10 8 -21 -4 -23 -2
-10 8 10 8 14 27 13 55 -1 26 2 40 8 36 6 -3 5 3 -2 14 -10 16 -10 24 -1 35
10 11 9 17 -1 25 -8 7 -12 26 -11 47 2 22 -1 33 -7 30 -6 -4 -8 4 -5 19 3 14
0 29 -6 32 -7 5 -8 2 -3 -6 5 -9 4 -11 -4 -6 -9 6 -9 11 0 22 6 8 7 14 3 14
-11 0 -34 70 -34 100 0 14 4 19 13 14 9 -6 9 -5 0 8 -7 8 -9 18 -5 22 7 8 9
14 11 47 0 11 5 18 10 14 11 -6 7 28 -5 47 -5 7 -3 8 6 3 9 -6 10 -2 5 15 -5
16 -4 20 5 15 9 -6 9 -3 1 14 -10 18 -9 20 5 14 12 -4 15 -3 10 6 -9 14 2 73
12 67 4 -2 8 10 9 27 0 17 5 33 11 35 5 1 7 12 4 24 -4 15 -2 19 7 13 10 -6
10 -3 0 16 -11 21 -10 23 3 11 13 -10 15 -9 13 13 -2 14 1 25 6 25 6 0 7 5 4
10 -4 6 -11 7 -17 4 -7 -5 -8 -2 -4 5 5 7 14 10 21 7 9 -3 12 4 11 24 -1 16 0
28 3 28 20 -2 44 4 33 9 -6 2 -9 9 -6 14 4 6 10 6 18 0 9 -8 13 -7 13 4 0 8
-4 12 -9 9 -4 -3 -8 -1 -8 5 0 5 5 13 11 16 6 4 8 13 5 21 -3 9 1 14 12 14 13
0 14 2 3 9 -8 5 -9 11 -3 15 5 3 10 17 10 31 0 14 -5 22 -11 18 -6 -3 -7 -1
-3 6 4 6 12 9 17 6 5 -4 9 1 9 9 0 9 -5 16 -12 16 -6 0 -8 3 -5 6 4 4 14 1 23
-7 16 -13 16 -12 4 11 -20 35 -20 48 -3 46 9 0 18 6 20 14 4 12 3 12 -5 1 -7
-9 -12 -10 -16 -2 -4 6 -2 11 4 11 7 0 9 9 5 23 -5 19 -5 20 5 4 10 -16 13
-16 27 -1 9 8 24 13 34 11 10 -3 16 0 14 7 -6 14 15 40 38 49 13 5 16 13 12
27 -5 16 -3 19 12 13 16 -6 16 -5 4 10 -12 15 -11 17 2 17 11 0 14 5 10 17 -4
11 -3 14 5 9 7 -4 12 -3 12 1 0 5 -9 14 -20 21 -11 7 -20 18 -20 25 0 6 5 4
11 -5 5 -10 15 -18 20 -18 6 0 7 6 3 13 -6 9 -5 9 7 0 19 -16 23 13 5 36 -8
11 -8 13 1 8 7 -4 14 1 18 14 4 12 10 17 14 12 8 -13 41 -13 41 0 0 5 -8 6
-17 3 -17 -6 -17 -5 -1 7 19 15 14 29 -7 21 -7 -3 -15 -1 -19 4 -9 15 36 6 48
-10 10 -14 13 -14 26 0 13 14 12 15 -2 10 -12 -5 -14 -2 -10 15 3 12 7 16 10
9 2 -6 8 -12 13 -12 4 0 6 7 3 15 -4 10 0 15 11 15 10 0 13 -5 9 -12 -5 -7 -3
-8 5 -4 9 6 9 12 -3 25 -14 15 -14 18 -1 18 8 0 12 -4 9 -9 -3 -4 2 -8 10 -8
8 0 18 5 22 12 5 7 2 9 -7 4 -8 -4 -5 0 5 8 11 9 24 16 29 16 5 0 4 6 -2 14
-9 11 -9 16 0 22 7 4 9 3 6 -3 -4 -6 0 -14 9 -17 10 -4 13 -2 8 6 -5 8 -2 9 9
5 10 -3 17 -2 17 3 0 6 -5 10 -11 10 -8 0 -8 5 1 15 7 8 18 15 24 15 7 0 6 -4
-2 -9 -11 -7 -11 -9 1 -14 11 -4 14 1 12 18 -1 15 2 22 8 18 6 -4 8 0 4 10 -8
21 -3 21 18 1 15 -16 16 -16 13 2 -2 13 3 19 14 18 10 -1 17 1 16 5 -2 18 3
31 13 31 5 0 7 -5 3 -12 -4 -6 -3 -8 4 -4 6 3 9 16 7 27 -3 16 -1 18 9 10 14
-12 36 4 36 26 0 7 7 10 15 7 10 -4 15 0 15 11 0 9 5 13 10 10 14 -9 12 8 -2
25 -11 12 -10 12 5 1 15 -12 21 -9 18 11 0 4 7 4 17 1 9 -3 14 -3 10 2 -10 10
19 38 32 30 6 -4 10 -3 9 2 -1 4 -1 17 0 27 1 20 1 20 16 0 14 -18 14 -18 10
4 -3 18 -1 21 8 14 9 -8 24 -2 51 19 22 16 36 29 32 29 -4 0 -19 -9 -33 -20
-14 -11 -31 -20 -37 -20 -6 0 4 9 22 20 17 11 32 28 32 37 0 14 2 15 9 5 7
-11 12 -12 29 -1 16 10 18 16 10 26 -8 10 -7 12 4 8 9 -4 19 3 26 17 12 23 12
23 6 -2 -6 -24 -6 -24 9 -5 12 15 13 24 4 35 -9 12 -9 13 3 3 11 -10 16 -9 27
5 12 15 13 14 3 -6 -7 -13 -9 -26 -6 -30 3 -3 6 0 6 7 0 7 4 10 9 7 5 -3 14 1
21 10 7 8 19 13 27 10 7 -3 13 -1 13 3 0 5 -6 11 -12 13 -7 3 -2 7 10 10 12 4
20 2 16 -3 -3 -5 2 -9 11 -9 9 0 13 5 10 10 -3 6 -1 10 4 10 6 0 11 4 11 9 0
6 -10 8 -21 6 -12 -3 -19 -1 -15 2 15 15 36 10 51 -14 12 -18 20 -22 29 -14 9
7 16 7 25 -2 11 -10 11 -8 2 10 -11 22 -10 22 14 13 19 -7 24 -7 19 2 -5 8 -1
9 12 4 15 -6 17 -5 7 5 -7 7 -13 18 -13 24 0 6 3 6 8 -1 4 -6 23 -14 42 -18
32 -6 33 -6 15 9 -20 16 -20 16 1 6 15 -7 25 -7 34 2 10 9 11 9 6 0 -4 -7 -2
-13 3 -13 6 0 11 -5 11 -11 0 -8 -5 -8 -15 1 -10 9 -15 9 -15 1 0 -6 5 -11 11
-11 5 0 7 -6 3 -12 -5 -8 -1 -8 12 2 10 8 20 15 22 16 2 1 -2 13 -8 26 -11 22
-11 22 10 -2 18 -21 21 -22 15 -5 -5 16 -4 18 7 7 10 -10 7 -17 -15 -36 -15
-13 -27 -27 -27 -31 0 -4 6 -2 14 4 10 8 16 9 21 1 3 -5 12 -10 18 -9 9 0 9 2
0 5 -7 3 -9 12 -6 20 5 13 7 13 14 2 7 -10 9 -10 9 0 0 6 5 12 11 12 5 0 7 -5
3 -12 -4 -7 -3 -8 5 -4 6 4 8 12 5 18 -5 7 0 9 15 5 19 -5 21 -3 9 11 -12 15
-11 16 5 3 10 -8 15 -21 12 -29 -3 -10 0 -12 10 -8 8 3 15 1 15 -5 0 -6 6 -7
13 -3 8 5 8 2 -2 -9 -12 -16 -8 -22 13 -18 5 1 18 -6 30 -16 12 -10 16 -12 9
-3 -9 13 -6 15 22 16 24 1 35 -4 38 -15 4 -13 5 -13 6 2 1 15 5 16 21 7 11 -6
18 -15 15 -20 -3 -5 -1 -12 5 -15 6 -4 9 -1 8 6 -2 6 3 14 10 16 7 3 11 -1 10
-9 -2 -7 3 -12 10 -11 6 2 12 -4 12 -12 0 -8 5 -15 11 -15 5 0 7 -6 3 -12 -5
-8 0 -7 11 2 10 8 16 10 12 3 -4 -7 0 -17 10 -23 16 -10 16 -11 1 -6 -12 3
-15 1 -11 -10 6 -17 15 -18 31 -2 9 9 12 9 12 0 0 -7 -4 -12 -10 -12 -5 0 -10
-7 -10 -16 0 -8 4 -13 8 -10 5 3 9 -1 9 -9 0 -8 -4 -12 -9 -9 -4 3 -8 0 -8 -5
0 -6 3 -11 8 -11 4 0 12 -8 19 -18 9 -15 8 -19 -3 -19 -7 0 -11 4 -8 8 2 4 -1
11 -7 15 -8 4 -9 3 -5 -4 4 -7 1 -12 -6 -12 -8 0 -7 -4 4 -11 11 -6 15 -16 11
-26 -4 -11 -3 -14 5 -9 9 5 9 0 1 -21 -19 -49 -20 -92 -1 -103 14 -10 13 -11
-8 -6 -22 4 -23 4 -7 -8 17 -13 25 -32 9 -22 -5 3 -9 -1 -9 -8 0 -8 7 -12 15
-8 10 3 13 1 8 -6 -5 -8 -2 -10 8 -6 9 3 13 11 9 18 -3 6 -2 7 3 3 5 -5 9 -13
9 -18 0 -5 4 -8 10 -6 5 1 9 7 7 12 -2 6 2 5 9 -2 6 -6 17 -9 24 -7 7 3 16 1
20 -5 3 -7 0 -8 -9 -5 -10 4 -18 -1 -22 -11 -6 -13 -9 -14 -16 -3 -8 10 -9 9
-4 -4 2 -9 0 -19 -7 -21 -7 -2 -1 -2 12 0 21 4 23 2 12 -11 -7 -9 -18 -13 -25
-9 -6 4 -5 -1 3 -10 9 -11 10 -17 2 -17 -8 0 -8 -5 0 -19 13 -20 5 -56 -11
-46 -5 3 -10 4 -10 1 0 -3 9 -10 20 -16 16 -9 19 -8 13 6 -4 11 -3 15 5 10 21
-13 10 -46 -11 -34 -13 7 -17 7 -13 0 3 -6 3 -12 -1 -15 -5 -2 -3 -2 4 -1 7 2
15 -2 19 -8 4 -7 3 -8 -4 -4 -7 4 -12 2 -12 -4 0 -6 -5 -8 -12 -4 -10 6 -10 5
-1 -8 7 -8 10 -18 6 -21 -3 -4 0 -7 8 -7 8 0 2 -8 -12 -18 -14 -9 -24 -23 -21
-31 3 -10 0 -11 -9 -5 -11 6 -12 5 -2 -7 10 -12 10 -18 0 -29 -9 -10 -9 -11 1
-6 18 11 15 -5 -5 -21 -10 -8 -12 -12 -5 -8 20 10 33 -4 22 -24 -6 -12 -5 -22
3 -31 10 -10 8 -12 -7 -6 -19 7 -19 6 -1 -14 10 -11 13 -20 8 -20 -6 0 -14 -7
-17 -16 -5 -14 -4 -15 8 -5 11 9 14 8 12 -6 0 -10 -7 -23 -15 -29 -11 -9 -12
-12 -1 -19 9 -6 11 -4 5 5 -5 9 -4 11 4 6 6 -4 9 -11 6 -16 -3 -5 -1 -12 5
-15 8 -5 7 -11 -1 -21 -6 -7 -9 -21 -5 -29 4 -11 2 -14 -7 -9 -9 6 -9 5 0 -8
7 -8 10 -18 6 -21 -3 -4 -1 -7 7 -7 10 0 10 -4 -1 -17 -10 -11 -10 -14 -1 -9
7 4 12 1 12 -9 0 -10 5 -13 13 -9 7 5 6 0 -3 -11 -8 -10 -10 -16 -3 -12 12 8
26 -8 30 -33 1 -8 7 -16 12 -18 6 -2 11 -8 11 -13 0 -6 -6 -7 -12 -3 -9 6 -9
3 0 -9 8 -9 10 -22 6 -28 -4 -8 -3 -9 5 -5 11 7 20 -7 25 -36 1 -7 12 -24 24
-36 25 -25 28 -38 10 -45 -8 -3 -6 -6 5 -6 15 -1 22 -12 18 -33 0 -5 4 -8 10
-8 5 0 8 -4 5 -9 -3 -5 1 -14 9 -21 8 -7 15 -21 15 -32 0 -14 5 -18 15 -14 20
7 19 1 -2 -20 -16 -16 -16 -17 -1 -12 10 4 23 -1 35 -15 14 -16 14 -19 1 -9
-11 9 -18 10 -23 2 -4 -6 -3 -9 2 -8 4 2 18 -7 31 -19 24 -25 29 -39 10 -27
-7 4 -8 3 -4 -4 4 -7 13 -12 20 -12 8 0 20 -8 27 -17 10 -11 10 -14 2 -9 -7 4
-13 3 -13 -3 0 -5 4 -12 10 -16 5 -3 7 -13 4 -23 -5 -15 -4 -15 6 -2 9 12 12
13 17 1 3 -7 14 -21 24 -29 11 -9 19 -21 19 -27 0 -5 -5 -3 -11 5 -9 13 -10
13 -6 0 2 -8 13 -16 25 -18 13 -2 19 -8 16 -17 -3 -8 4 -24 17 -37 12 -13 19
-16 15 -8 -4 8 1 4 12 -9 12 -15 24 -21 32 -16 8 5 11 4 6 -3 -3 -6 -2 -13 4
-17 6 -4 8 -10 5 -15 -3 -5 0 -12 6 -16 8 -4 9 -3 5 4 -4 7 -3 12 2 12 5 0 12
-9 15 -20 3 -11 13 -20 22 -20 9 0 13 -4 10 -10 -3 -6 4 -10 16 -10 22 0 22 0
3 -22 -10 -13 -12 -18 -4 -12 26 19 50 24 47 11 -1 -7 -6 -15 -12 -19 -9 -7 0
-10 21 -7 4 0 11 -5 16 -13 8 -10 9 -10 5 2 -2 8 -10 14 -16 12 -7 -1 -10 2
-6 8 4 7 12 7 26 0 11 -6 17 -15 15 -19 -3 -4 1 -8 9 -8 8 0 12 4 9 8 -2 4 0
10 6 14 5 3 10 1 10 -4 0 -6 5 -11 10 -11 6 0 5 8 -2 19 -9 15 -9 23 3 37 11
14 11 18 1 22 -10 3 -10 7 -1 18 9 11 9 14 0 14 -7 0 -11 6 -10 13 3 24 -1 38
-9 33 -5 -3 -9 1 -9 9 0 8 4 12 9 9 4 -3 8 0 8 5 0 6 -5 11 -11 11 -8 0 -7 6
2 17 11 13 11 17 1 21 -10 3 -10 7 0 20 11 14 10 15 -6 8 -20 -7 -20 -7 0 15
10 11 18 23 17 25 -2 2 -3 7 -2 12 1 4 0 20 -1 36 -1 21 2 26 12 21 10 -6 11
-5 1 6 -16 16 -17 43 -2 33 6 -3 3 6 -7 22 l-18 29 24 -20 24 -20 -17 25 c-20
29 -22 41 -4 38 6 -2 12 4 12 12 1 8 7 26 15 40 8 14 13 31 12 38 -2 6 2 12 9
12 9 0 9 3 0 14 -9 11 -9 16 0 22 8 5 9 3 4 -6 -5 -9 -4 -11 4 -6 8 5 9 12 2
20 -6 7 -6 17 -1 26 5 8 5 21 -1 32 -5 10 -7 18 -3 18 3 0 1 7 -6 15 -11 13
-10 14 3 9 11 -4 14 0 12 13 -2 10 -4 18 -6 18 -2 0 -7 54 -8 98 -1 16 -5 26
-9 23 -10 -6 -9 65 1 81 4 6 2 15 -4 19 -8 5 -9 3 -4 -6 5 -8 4 -11 -2 -7 -5
3 -8 20 -5 37 2 16 -1 36 -7 44 -8 10 -9 16 -1 21 5 3 10 11 10 16 0 6 -4 8
-8 5 -5 -3 -9 1 -9 9 0 8 4 12 8 9 4 -2 7 9 7 26 -1 16 -6 30 -12 30 -6 0 -4
5 4 10 12 8 12 10 1 10 -11 0 -11 3 -1 15 9 10 9 15 1 15 -12 0 -15 46 -3 53
4 2 1 2 -7 0 -8 -2 -11 2 -7 12 3 9 2 13 -4 10 -6 -3 -10 -1 -10 4 0 6 5 11
10 11 6 0 10 5 10 11 0 5 -5 7 -12 3 -7 -5 -9 -2 -5 8 3 9 0 21 -6 27 -8 8 -6
11 8 11 16 0 17 2 5 9 -8 6 -19 7 -25 3 -5 -3 -4 2 4 11 11 14 11 17 0 17 -11
0 -11 2 1 10 11 7 11 10 2 10 -7 0 -12 8 -11 18 3 36 -1 53 -13 46 -7 -5 -8
-3 -4 5 5 7 15 10 23 6 13 -4 14 -3 4 9 -7 8 -9 21 -5 27 4 8 3 9 -4 5 -7 -4
-12 -3 -12 3 0 5 6 12 13 14 7 3 5 6 -5 6 -10 1 -18 6 -18 12 0 5 5 7 11 3 6
-3 3 6 -6 20 -14 21 -15 26 -4 24 8 -2 14 5 14 17 1 11 6 19 12 18 6 -1 19 7
29 19 11 12 14 18 8 15 -7 -4 -14 -1 -17 7 -3 8 1 13 11 12 11 -1 16 5 14 17
-2 9 2 17 9 17 9 0 9 3 0 14 -9 11 -9 17 2 27 12 11 11 16 -3 29 -9 8 -10 11
-3 6 11 -7 12 -4 4 16 -5 14 -7 29 -4 32 4 3 1 6 -6 6 -8 0 -9 5 -2 18 7 13 4
24 -11 42 l-20 25 16 -27 c15 -26 15 -28 0 -28 -10 0 -15 3 -11 6 11 11 -23
66 -38 60 -15 -6 -10 18 9 43 8 11 8 13 -2 7 -7 -4 -14 -1 -18 8 -3 9 -13 12
-22 9 -13 -4 -12 -2 2 9 19 15 19 16 -2 27 -13 7 -19 17 -16 26 4 8 1 15 -5
15 -6 0 -8 8 -5 18 5 13 4 14 -4 3 -11 -15 -32 -7 -32 12 0 7 4 6 11 -3 9 -12
10 -12 5 3 -3 10 -6 23 -6 28 0 5 -5 9 -11 9 -5 0 -7 -4 -4 -10 10 -16 -1 -11
-16 7 -8 9 -9 14 -3 10 16 -9 13 44 -3 61 -7 7 -13 10 -13 5 0 -5 5 -14 12
-21 9 -9 8 -12 -4 -12 -12 0 -15 8 -14 29 1 17 -1 28 -5 25 -4 -2 -10 0 -14 6
-3 5 0 10 7 10 11 0 11 2 0 9 -7 4 -15 17 -16 27 -2 10 -9 18 -15 17 -15 -4
-14 10 2 26 8 9 9 12 0 9 -6 -2 -19 6 -28 17 -15 18 -15 17 0 -10 l17 -30 -25
25 c-19 19 -22 28 -13 39 9 12 8 13 -7 8 -13 -5 -17 -2 -15 10 2 9 -5 17 -15
19 -11 1 -22 6 -25 10 -4 4 1 4 10 1 10 -3 20 -2 23 4 4 5 3 9 -2 8 -19 -3
-34 2 -29 10 3 5 -1 12 -9 15 -8 3 -15 9 -14 13 3 20 -3 23 -23 12 -21 -11
-22 -11 -9 4 8 11 9 17 3 17 -6 0 -10 6 -8 13 1 6 1 9 -1 5 -8 -14 -25 -8 -20
6 4 9 -2 17 -14 21 -10 4 -19 11 -19 16 0 5 -5 9 -11 9 -5 0 -7 -4 -4 -10 3
-5 2 -10 -3 -10 -12 0 -26 30 -23 48 1 9 -6 11 -22 7 -14 -4 -28 -2 -31 3 -4
6 2 8 14 5 11 -3 20 0 20 6 0 6 -7 11 -16 11 -8 0 -13 4 -10 9 8 12 -20 22
-41 15 -11 -4 -14 -2 -8 3 14 11 15 43 1 40 -6 -1 -10 5 -8 13 3 12 1 13 -9 3
-19 -19 -34 -16 -18 4 10 12 11 15 1 9 -16 -9 -44 12 -35 27 3 6 1 7 -5 3 -7
-4 -12 -2 -12 5 0 8 -4 8 -16 -2 -17 -14 -38 5 -30 27 2 6 -2 11 -10 11 -7 0
-11 -5 -7 -10 3 -5 -4 -4 -16 2 -11 7 -21 14 -21 17 0 3 4 3 9 0 5 -3 15 2 22
11 12 15 12 16 -1 8 -22 -14 -52 -17 -45 -5 3 5 -1 10 -10 10 -9 0 -13 -4 -10
-10 3 -6 -1 -7 -9 -4 -9 3 -16 12 -16 20 0 8 -4 14 -10 14 -5 0 -10 -5 -10
-12 0 -6 -3 -8 -6 -5 -4 4 -1 14 7 24 8 9 9 14 2 10 -16 -10 -44 3 -36 17 4 8
2 8 -7 -1 -7 -6 -19 -9 -28 -6 -11 5 -13 2 -7 -6 6 -10 3 -11 -13 -2 -12 6
-24 16 -27 21 -4 6 -11 8 -16 5 -5 -4 -9 -2 -9 3 0 6 -7 13 -16 16 -13 5 -14
3 -6 -6 8 -10 4 -13 -15 -15 -20 -1 -23 1 -12 9 10 7 8 8 -9 5 -19 -5 -21 -3
-11 9 7 9 8 14 1 14 -6 0 -14 -5 -18 -11 -4 -8 -9 -7 -14 2 -5 7 -16 14 -24
15 -9 1 -14 -2 -10 -7 3 -5 10 -7 15 -4 5 4 9 1 9 -5 0 -7 -13 -9 -37 -5 -24
3 -40 1 -46 -7 -6 -9 -7 -7 -4 8 2 12 -1 21 -8 21 -7 0 -11 -6 -8 -13 5 -14
-14 -14 -36 0 -10 6 -12 5 -7 -2 4 -7 2 -12 -4 -12 -6 0 -8 -6 -4 -12 4 -7 -4
-3 -18 10 -13 12 -28 19 -31 15 -4 -3 -7 -1 -7 5 0 7 -5 12 -11 12 -5 0 -8 -3
-6 -7z m737 -1370 c10 10 10 8 1 -10 -11 -22 -8 -27 12 -24 5 1 6 -3 2 -9 -6
-9 8 -15 29 -11 5 1 4 -4 -2 -12 -7 -8 -9 -17 -5 -20 3 -4 1 -7 -6 -7 -7 0
-11 6 -8 14 7 18 -15 27 -34 15 -13 -8 -6 -13 14 -10 4 0 6 -2 5 -6 0 -5 2
-16 7 -26 4 -10 5 -21 1 -24 -3 -4 -6 1 -6 11 0 9 -4 15 -10 11 -5 -3 -6 -13
-3 -22 4 -11 3 -14 -5 -9 -7 4 -12 3 -12 -1 0 -13 56 -44 64 -36 4 4 -3 12
-15 18 -20 11 -20 12 -3 19 10 4 16 4 12 1 -6 -6 26 -45 37 -45 8 0 1 24 -12
38 -16 16 -17 32 -3 32 6 0 9 -3 9 -7 -3 -20 2 -26 11 -13 6 9 10 11 10 3 0
-8 7 -10 18 -6 11 4 9 -1 -8 -16 -14 -13 -18 -21 -9 -18 9 3 22 1 30 -4 11 -7
11 -9 1 -9 -8 0 -10 -5 -6 -12 6 -10 4 -10 -7 0 -16 15 -33 16 -24 2 9 -14
-31 -77 -49 -77 -8 0 -13 4 -10 9 3 5 9 6 13 4 4 -3 15 9 25 26 15 25 16 32 5
39 -22 14 -33 10 -19 -6 11 -13 11 -18 0 -28 -10 -10 -12 -8 -7 6 5 12 -4 24
-33 43 -22 15 -42 36 -46 47 -6 20 -7 20 -20 -4 -13 -24 -14 -22 -19 21 -2 18
13 40 27 40 6 0 8 -6 5 -14 -6 -16 2 -28 14 -20 5 3 4 14 -1 25 -6 10 -7 19
-2 19 10 0 9 50 -2 71 -4 8 -1 6 7 -3 11 -14 16 -15 27 -5z"/>
<path d="M6913 4650 c2 -8 13 -14 25 -14 12 1 19 -2 17 -7 -3 -4 3 -12 12 -18
11 -6 13 -11 5 -11 -7 0 -11 -4 -8 -9 7 -10 -20 -9 -30 2 -4 4 -12 7 -17 7 -6
0 0 -8 11 -19 23 -19 31 -48 10 -35 -7 5 -8 3 -4 -5 5 -7 14 -10 22 -7 10 4
14 -2 14 -19 0 -14 4 -25 10 -25 5 0 7 8 4 18 -5 14 -4 14 4 2 7 -9 8 -18 1
-26 -7 -9 -5 -14 8 -18 11 -3 7 -4 -8 -3 -14 1 -34 -4 -43 -12 -9 -7 -16 -10
-16 -7 0 4 -10 2 -22 -4 -21 -10 -21 -9 2 9 14 11 19 21 12 21 -7 0 -10 5 -6
12 4 7 3 8 -4 4 -7 -4 -12 -2 -12 5 0 8 -5 7 -17 -2 -11 -9 -14 -10 -9 -2 4 7
2 21 -4 30 -11 17 -11 17 -6 0 3 -11 2 -15 -4 -12 -6 3 -10 13 -10 21 0 9 -5
12 -12 8 -10 -6 -10 -4 0 7 6 7 12 18 12 24 0 5 -4 4 -9 -4 -7 -11 -13 -10
-32 3 -17 10 -29 12 -39 6 -8 -5 -11 -10 -6 -10 6 0 1 -7 -10 -15 -10 -9 -13
-14 -5 -13 7 2 16 -3 19 -11 3 -10 0 -12 -13 -7 -15 5 -16 4 -5 -9 7 -8 9 -15
5 -15 -4 0 -1 -8 6 -17 12 -15 12 -16 -1 -8 -13 8 -13 6 -1 -8 7 -9 18 -14 24
-10 6 3 7 1 3 -6 -4 -6 -11 -9 -16 -6 -5 3 -12 1 -15 -5 -4 -6 -3 -10 2 -9 21
4 22 -3 4 -22 -11 -12 -17 -28 -14 -37 4 -10 2 -13 -5 -8 -6 3 -13 2 -16 -3
-4 -5 -1 -13 5 -17 8 -5 9 -3 4 6 -5 9 -4 11 4 6 9 -6 9 -11 0 -22 -6 -8 -8
-14 -4 -14 4 0 2 -7 -5 -15 -11 -13 -10 -14 4 -9 19 7 21 -6 4 -25 -11 -11
-10 -13 4 -8 10 3 20 1 24 -5 4 -6 3 -8 -4 -4 -6 3 -13 2 -17 -4 -3 -5 1 -10
9 -10 9 0 16 -9 16 -21 0 -12 4 -17 11 -13 8 5 8 1 0 -13 -6 -11 -7 -23 -4
-27 4 -4 -3 -9 -15 -13 -12 -3 -19 -10 -15 -16 3 -6 1 -7 -6 -3 -9 6 -9 11 0
22 6 7 15 12 18 9 4 -2 8 2 8 10 0 8 -3 13 -5 10 -3 -3 -12 1 -21 8 -14 11
-14 10 -2 -6 13 -16 12 -19 -7 -24 -13 -3 -19 -10 -15 -17 4 -6 -2 -4 -13 4
-10 8 -16 10 -11 5 4 -4 -1 -17 -10 -27 -14 -16 -15 -21 -4 -27 11 -7 11 -10
0 -14 -11 -4 -11 -6 -1 -6 8 -1 10 -6 5 -13 -13 -22 -12 -40 2 -35 9 4 11 -1
8 -16 -4 -18 -3 -19 6 -7 6 8 11 10 11 4 0 -5 -5 -15 -12 -22 -8 -8 -8 -12 -1
-12 6 0 13 -9 16 -20 3 -11 0 -20 -6 -20 -6 0 -3 -6 7 -13 9 -7 18 -22 19 -35
0 -12 5 -22 10 -22 5 0 7 -11 5 -25 -3 -14 -1 -25 4 -25 5 0 7 -3 5 -7 -7 -11
19 -33 28 -25 4 4 6 0 3 -8 -5 -15 40 -67 55 -62 5 1 5 -3 1 -10 -12 -19 -14
-39 -3 -32 5 3 6 10 3 16 -4 7 -2 8 4 4 7 -4 12 -14 12 -22 0 -9 5 -12 12 -8
7 4 8 3 4 -5 -4 -6 2 -15 16 -21 23 -11 23 -11 1 -6 -13 2 -23 0 -23 -5 0 -5
9 -9 20 -9 11 0 20 -7 20 -15 0 -8 5 -15 11 -15 5 0 8 -4 4 -9 -7 -13 24 -43
37 -35 5 4 5 -4 -2 -16 -11 -20 -10 -22 4 -17 13 5 18 -1 23 -23 3 -18 10 -27
17 -23 6 4 6 0 -2 -9 -10 -13 -9 -18 5 -29 17 -13 17 -13 3 6 -14 19 -14 19 3
6 14 -11 15 -16 5 -29 -10 -13 -10 -14 0 -8 8 5 12 0 12 -18 0 -13 6 -31 13
-38 8 -7 13 -21 11 -31 -1 -9 2 -17 7 -17 5 0 9 -7 9 -16 0 -9 5 -12 13 -8 6
4 4 -2 -6 -13 -14 -16 -14 -20 -2 -20 8 0 12 4 9 9 -3 4 2 5 11 1 10 -3 12 -8
6 -12 -13 -8 -7 -47 7 -44 6 2 9 -4 6 -12 -4 -8 1 -31 11 -51 9 -20 14 -38 11
-41 -3 -4 3 -13 15 -21 16 -11 18 -17 8 -28 -9 -12 -9 -13 3 -9 11 4 14 -2 12
-25 -1 -22 2 -30 11 -26 8 3 11 -2 8 -14 -3 -10 1 -21 8 -25 8 -6 10 -4 4 6
-5 8 -4 11 1 6 5 -5 9 -16 9 -25 0 -9 5 -16 11 -15 7 1 10 -10 9 -28 -2 -24 0
-27 11 -18 12 10 13 9 8 -5 -3 -9 -1 -16 6 -16 6 0 8 -5 5 -10 -4 -6 -2 -17 4
-24 7 -8 10 -20 9 -27 -2 -8 2 -13 8 -12 7 1 10 -6 7 -17 -3 -11 0 -20 6 -20
6 0 11 -5 11 -11 0 -5 -6 -7 -12 -3 -7 4 -3 -4 9 -17 18 -20 20 -28 10 -39
-10 -10 -9 -11 2 -5 11 6 13 2 9 -18 -3 -16 -1 -25 6 -24 6 1 11 -8 10 -20 0
-13 3 -23 7 -23 4 0 10 -7 13 -16 4 -10 2 -13 -7 -9 -6 4 -4 0 6 -8 14 -11 15
-16 5 -20 -9 -4 -9 -6 2 -6 9 -1 16 -11 17 -23 1 -11 7 -24 14 -28 8 -6 8 -9
-2 -12 -11 -4 -9 -10 6 -24 12 -10 14 -14 6 -9 -12 8 -11 3 3 -19 11 -18 13
-25 5 -20 -11 6 -12 5 -3 -7 18 -24 26 -51 11 -43 -9 6 -9 5 0 -8 7 -8 9 -19
5 -23 -4 -5 -1 -5 6 -1 12 7 15 -3 15 -46 0 -10 7 -18 16 -19 12 0 11 -2 -4
-9 -17 -7 -17 -9 -2 -9 19 -1 23 -21 7 -37 -8 -8 -5 -15 7 -25 16 -13 17 -12
4 4 -9 11 -10 17 -2 17 11 0 15 -12 11 -43 -1 -10 6 -27 16 -38 10 -11 12 -19
6 -19 -7 0 -12 5 -12 12 0 6 -3 8 -7 5 -3 -4 4 -19 18 -34 13 -14 18 -23 12
-19 -9 5 -11 2 -7 -8 3 -8 12 -12 20 -9 10 4 12 0 8 -11 -3 -9 -2 -16 4 -16 6
0 8 -10 4 -22 -3 -14 -2 -19 6 -14 7 4 12 1 12 -9 0 -10 5 -13 12 -9 7 5 9 0
6 -14 -4 -15 -2 -19 8 -15 8 3 14 0 14 -7 0 -6 5 -8 13 -4 9 6 9 4 -1 -8 -10
-13 -10 -17 3 -21 9 -4 12 -13 8 -23 -5 -13 -2 -15 17 -9 15 5 20 4 16 -3 -9
-15 44 -61 63 -55 14 4 14 3 1 -6 -13 -10 -13 -12 0 -21 13 -9 12 -13 -5 -26
-12 -10 -14 -14 -5 -11 8 2 24 -3 35 -12 19 -15 19 -15 5 4 -14 18 -13 19 1 8
9 -7 19 -9 24 -5 4 4 3 -3 -4 -15 -9 -18 -8 -23 9 -28 11 -3 20 -13 20 -21 0
-8 10 -14 23 -15 l22 0 -22 -9 c-28 -11 -30 -20 -3 -13 21 6 54 -20 42 -32 -4
-5 -2 -5 5 -1 6 3 14 2 17 -3 3 -5 15 -7 26 -4 11 3 17 10 13 16 -3 6 -1 7 5
3 6 -4 8 -14 5 -23 -5 -12 -2 -15 10 -10 22 8 22 -1 -1 -21 -10 -10 -11 -12
-3 -7 10 7 16 6 18 -3 3 -6 10 -9 16 -5 7 4 5 -2 -3 -13 -8 -10 -11 -16 -6
-12 5 4 15 0 23 -8 17 -17 37 -8 29 13 -3 8 -1 11 5 8 5 -4 7 -16 3 -28 -6
-19 -5 -20 9 -9 13 11 15 10 10 -10 -5 -22 -5 -22 10 -3 8 10 13 26 10 35 -3
8 6 2 21 -15 14 -16 24 -35 21 -42 -2 -6 3 -14 11 -17 9 -3 12 -1 9 4 -3 6 -1
10 4 10 6 0 11 -9 11 -19 0 -24 12 -32 29 -21 8 4 10 13 6 20 -5 8 -4 11 3 6
6 -3 13 -2 17 4 3 5 11 10 18 10 6 0 3 -6 -8 -13 -11 -9 -15 -19 -10 -27 5 -8
4 -11 -3 -6 -6 3 -14 2 -17 -4 -4 -6 -3 -10 2 -9 20 3 27 -2 13 -11 -8 -5 -10
-10 -4 -10 6 0 18 8 25 17 8 9 9 14 2 10 -8 -5 -9 0 -5 15 4 16 7 18 10 8 3
-8 12 -24 21 -35 15 -19 15 -19 -3 -5 -18 14 -18 14 -6 -7 12 -18 17 -20 29
-10 12 10 13 9 6 -2 -6 -11 -4 -13 8 -8 9 3 19 1 23 -5 4 -7 3 -8 -4 -4 -7 4
-12 2 -12 -4 0 -7 6 -10 13 -7 6 2 11 12 9 22 -3 13 1 16 13 11 9 -3 19 -6 21
-6 2 0 4 -5 4 -11 0 -8 -5 -8 -15 1 -20 16 -19 6 1 -14 17 -18 39 -22 29 -6
-3 6 1 7 10 4 11 -5 13 -10 5 -19 -13 -16 0 -28 17 -14 10 9 13 8 13 -5 0 -9
-4 -16 -8 -16 -5 0 -9 -7 -9 -16 0 -14 2 -14 14 2 13 18 48 30 37 13 -3 -5 -9
-7 -13 -5 -4 3 -8 -1 -8 -9 0 -11 4 -12 13 -4 7 6 23 8 35 4 14 -5 19 -4 15 4
-5 7 -1 9 8 5 19 -7 21 -21 4 -27 -7 -2 -1 -4 15 -4 15 0 30 4 33 8 3 5 10 7
15 4 5 -4 9 -1 9 4 0 6 -5 11 -12 11 -6 0 -8 3 -4 7 4 5 14 -1 22 -11 12 -17
14 -18 14 -3 0 9 5 17 10 17 6 0 13 0 18 0 4 0 7 -6 7 -12 1 -7 6 -12 12 -11
6 1 9 -15 8 -43 -1 -25 1 -41 4 -36 8 11 42 12 35 0 -3 -5 -10 -5 -16 -2 -7 4
-8 2 -4 -5 4 -6 12 -8 18 -5 7 5 9 1 5 -9 -4 -12 -2 -14 10 -10 11 4 14 3 9
-6 -5 -8 -3 -12 5 -10 29 3 40 -1 33 -14 -6 -9 -4 -9 8 1 14 11 17 10 23 -8 6
-18 8 -18 21 -5 9 8 20 13 25 10 5 -4 9 -1 9 5 0 6 5 8 11 4 8 -4 7 -9 -2 -15
-7 -4 -16 -6 -19 -4 -4 2 -7 -2 -7 -10 0 -11 4 -12 13 -4 7 6 19 7 25 3 7 -4
9 -3 6 2 -3 6 -2 16 4 24 7 12 9 11 10 -5 0 -11 3 -14 6 -7 4 10 8 10 21 0 9
-7 13 -8 9 -2 -4 7 2 12 18 12 14 0 22 -4 19 -9 -3 -5 6 -14 20 -21 19 -8 23
-14 15 -24 -7 -8 -6 -14 2 -20 7 -4 9 -3 5 4 -3 6 -2 13 4 17 5 3 10 2 10 -3
0 -5 6 -9 14 -9 8 0 11 7 9 18 -6 20 15 35 29 21 6 -6 16 -8 23 -6 7 3 18 -8
25 -25 7 -17 19 -31 27 -31 9 0 11 -5 7 -12 -5 -8 0 -7 11 2 19 15 22 15 42
-1 7 -7 14 -6 19 2 5 8 3 9 -6 4 -9 -5 -11 -4 -6 4 4 6 12 9 17 6 5 -4 9 -1 9
5 0 6 5 8 10 5 8 -5 7 -12 -2 -23 -10 -12 -10 -14 0 -8 18 11 42 62 34 71 -4
5 -1 5 6 1 7 -4 9 -12 6 -18 -4 -7 -2 -8 4 -4 7 4 12 16 12 27 0 11 4 18 9 14
5 -3 13 0 17 6 4 7 3 9 -4 5 -6 -3 -13 -2 -17 4 -3 5 0 10 9 10 21 0 31 56 14
77 -11 14 -11 16 1 8 11 -6 13 -4 8 9 -4 10 -1 19 9 23 12 4 13 8 3 14 -18 11
-19 61 0 54 11 -4 11 -3 2 9 -13 15 -6 40 8 32 4 -3 8 1 8 9 0 8 -3 12 -6 11
-3 -2 -5 25 -4 60 1 35 -2 64 -7 64 -10 0 -8 19 3 38 6 8 2 12 -10 13 -11 0
-13 3 -5 6 10 4 10 8 1 19 -6 8 -8 14 -3 14 5 0 8 24 7 52 -1 45 -4 53 -20 51
-17 -1 -17 -1 1 13 11 8 14 14 7 14 -7 0 -9 5 -6 11 4 6 -2 13 -14 16 -11 3
-18 9 -15 14 3 5 1 9 -5 9 -5 0 -12 -6 -15 -12 -4 -7 -4 -3 -2 10 4 23 -9 31
-17 10 -4 -10 -6 -10 -6 -1 -1 6 4 15 9 18 8 5 7 11 -1 21 -9 11 -8 14 2 14 7
0 1 12 -14 28 -22 23 -25 31 -14 41 6 8 8 12 2 9 -10 -5 -62 42 -57 52 1 3 -2
6 -8 6 -5 1 -14 2 -20 3 -5 0 -9 4 -8 9 1 4 -10 20 -25 36 -14 16 -24 34 -20
40 4 6 -1 5 -10 -2 -14 -12 -16 -11 -12 7 2 11 1 20 -3 20 -4 -1 -9 0 -12 1
-24 9 -41 7 -36 -5 3 -10 0 -12 -11 -8 -12 5 -14 3 -8 -8 5 -8 -5 -3 -22 11
-17 14 -29 32 -28 41 2 9 -3 16 -11 16 -11 0 -11 -3 -1 -16 10 -12 9 -13 -1
-7 -7 4 -20 2 -30 -6 -15 -11 -15 -11 -6 2 15 20 14 53 0 41 -11 -8 -50 -11
-41 -3 8 8 -23 59 -37 59 -7 0 -17 2 -23 3 -20 5 -36 0 -30 -9 3 -5 1 -13 -5
-16 -6 -4 -10 -3 -9 2 4 26 -1 38 -11 23 -7 -11 -8 -6 -5 18 3 28 1 32 -11 21
-11 -9 -18 -7 -34 11 -13 15 -20 18 -20 9 0 -11 -2 -11 -10 1 -5 8 -10 10 -10
5 0 -6 -9 -11 -20 -12 -11 -1 -20 4 -20 12 0 8 -7 11 -20 8 -11 -3 -18 -9 -15
-12 2 -4 -2 -8 -10 -8 -8 0 -13 5 -12 10 1 5 -6 11 -16 12 -33 6 -49 26 -35
43 14 16 14 16 -37 -4 -13 -5 -19 7 -17 36 0 3 -13 6 -30 7 -20 0 -26 -2 -17
-7 7 -5 16 -7 20 -4 4 2 11 -1 15 -8 4 -7 4 -10 -1 -6 -4 4 -15 2 -23 -5 -13
-10 -14 -9 -7 2 6 11 4 13 -9 8 -10 -4 -15 -3 -11 3 3 6 1 10 -6 10 -9 0 -9 3
0 14 10 12 8 13 -8 9 -12 -3 -19 -9 -16 -12 2 -4 -2 -8 -10 -8 -8 0 -12 4 -9
8 2 4 0 10 -5 14 -6 3 -8 12 -4 20 3 10 -1 15 -12 15 -10 0 -13 4 -9 13 5 7 0
6 -11 -3 -17 -14 -18 -13 -12 2 3 10 1 20 -5 24 -7 4 -8 3 -4 -4 4 -7 1 -12
-9 -12 -9 0 -13 5 -10 10 3 6 -1 10 -10 10 -10 0 -13 -5 -9 -12 5 -9 2 -9 -9
1 -18 15 -23 26 -7 16 6 -3 10 -2 10 3 0 12 -29 24 -40 17 -4 -3 -6 5 -3 17 4
19 3 20 -7 8 -10 -13 -11 -11 -7 7 3 12 2 22 -2 21 -21 -4 -41 15 -30 29 7 8
8 13 3 12 -30 -5 -46 2 -40 18 4 10 4 14 0 10 -5 -4 -14 3 -22 15 -8 14 -11
16 -8 5 3 -11 2 -15 -4 -12 -6 3 -10 15 -10 25 0 13 -5 17 -15 14 -11 -5 -13
-2 -9 10 3 9 2 16 -4 16 -6 0 -8 9 -5 20 3 12 0 20 -6 20 -7 0 -10 -4 -7 -8 3
-5 -1 -9 -9 -9 -11 0 -12 5 -3 20 9 18 8 19 -11 14 -18 -4 -20 -3 -10 9 9 11
9 14 0 14 -7 0 -9 5 -6 10 3 6 -4 11 -17 11 -19 1 -20 2 -4 6 11 3 15 8 8 12
-6 3 -12 13 -14 21 -5 22 -22 39 -33 32 -5 -3 -3 3 5 13 8 10 10 16 3 12 -7
-5 -13 1 -15 15 -2 16 -9 22 -23 21 -20 -1 -20 -1 -1 13 18 12 18 14 2 14 -9
0 -16 6 -15 13 4 35 -1 52 -12 37 -9 -12 -10 -10 -6 8 4 16 2 22 -7 19 -7 -3
-13 1 -13 9 0 8 5 14 11 14 5 0 1 7 -10 15 -10 8 -15 15 -11 15 4 0 2 6 -5 14
-7 8 -17 11 -23 8 -5 -3 -7 -2 -3 3 4 4 3 14 -4 22 -9 11 -7 12 8 7 18 -5 18
-5 1 6 -9 6 -14 16 -11 22 5 7 2 8 -6 3 -10 -6 -12 -3 -7 14 3 14 0 24 -9 28
-8 3 -11 9 -8 14 3 5 -3 6 -13 2 -16 -6 -16 -5 -4 10 9 11 10 17 2 17 -6 0
-11 7 -11 16 0 8 -4 12 -10 9 -5 -3 -10 -2 -10 4 0 5 6 12 13 14 10 4 10 6 0
6 -7 1 -13 10 -13 21 0 11 -4 20 -9 20 -5 0 -8 14 -7 31 1 16 -1 32 -6 35 -5
3 -5 10 -2 16 4 7 2 8 -4 4 -7 -4 -12 -1 -12 8 0 9 -4 16 -9 16 -5 0 -12 7
-15 16 -5 14 -4 15 9 4 13 -11 14 -10 9 4 -3 9 -13 16 -21 16 -8 0 -11 5 -8
10 4 6 11 7 17 4 7 -4 8 -2 4 5 -4 6 -11 9 -16 6 -10 -6 -8 15 3 32 4 6 2 15
-4 19 -8 4 -7 9 2 16 11 8 10 9 -3 4 -10 -3 -20 0 -24 6 -4 7 -3 8 4 4 7 -4
12 -2 12 4 0 6 6 8 13 4 6 -4 4 2 -6 13 -10 11 -15 27 -11 37 3 9 1 16 -6 16
-6 0 -8 -5 -4 -12 4 -7 3 -8 -5 -4 -9 6 -9 11 -1 21 8 9 7 17 -4 28 -8 8 -12
18 -9 21 11 11 12 37 2 30 -5 -3 -6 -10 -3 -16 4 -7 2 -8 -4 -4 -6 4 -9 13 -6
20 3 7 -1 16 -9 19 -10 3 -13 14 -10 31 4 20 1 26 -11 26 -10 0 -14 5 -11 10
4 6 12 7 18 3 7 -4 6 1 -2 10 -12 16 -16 16 -31 2 -14 -13 -17 -13 -17 0 0 8
4 12 9 9 5 -3 7 8 6 25 -1 16 -6 27 -10 25 -5 -3 -5 -10 -2 -16 4 -7 2 -8 -4
-4 -6 4 -8 14 -5 24 6 15 5 16 -12 2 -17 -14 -17 -14 -5 7 8 12 18 19 24 16 5
-3 6 -1 2 6 -5 7 -17 9 -29 5 -22 -6 -22 -6 -2 10 11 8 16 16 10 16 -5 0 -3 4
5 10 8 5 11 12 7 16 -3 4 -15 1 -24 -7 -17 -13 -17 -12 -2 6 23 29 32 46 22
44 -21 -4 -29 3 -31 26 -1 14 3 25 9 25 6 0 3 7 -5 16 -21 20 -20 25 2 18 9
-3 6 2 -8 10 -16 10 -19 15 -10 16 13 0 13 2 1 9 -8 5 -11 16 -8 26 5 10 3 14
-5 9 -7 -5 -9 0 -6 14 4 12 2 20 -3 16 -5 -3 -9 -1 -9 5 0 5 -12 14 -27 20
-21 8 -22 10 -6 7 13 -2 26 1 30 6 3 6 1 8 -5 4 -6 -3 -13 -2 -17 3 -3 6 -13
8 -23 5 -14 -5 -14 -4 -3 4 8 6 21 8 29 5 12 -5 11 -1 -2 19 -9 15 -13 28 -9
30 4 3 2 3 -5 2 -24 -6 -55 35 -40 54 11 13 11 14 -1 7 -11 -6 -13 -4 -8 8 3
10 2 17 -3 17 -6 0 -10 5 -10 11 0 5 5 7 12 3 7 -4 8 -3 4 4 -4 6 -14 8 -23 5
-12 -5 -14 -3 -8 8 15 23 14 50 -1 38 -9 -7 -14 -4 -19 13 -4 12 -14 28 -21
35 -7 8 -10 21 -7 31 6 15 5 15 -10 3 -23 -18 -34 -7 -16 16 13 16 12 17 -3 5
-9 -8 -21 -11 -26 -8 -13 8 -41 -25 -45 -54 -4 -25 -25 -34 -48 -19 -10 6 -11
9 -1 10 6 1 17 2 24 3 6 0 12 7 14 14 1 7 0 8 -2 3 -3 -5 -19 -2 -37 7 -36 19
-48 32 -41 44 3 4 0 8 -6 8 -6 0 -8 6 -4 13 4 6 -3 3 -17 -8 -13 -11 -18 -13
-11 -5 16 19 15 33 -2 27 -13 -5 -33 26 -29 44 1 3 -17 5 -40 4 -23 0 -46 4
-50 10 -5 6 -7 4 -4 -5z m17 -659 c-5 -11 -15 -23 -20 -26 -16 -10 -12 -25 5
-19 8 4 21 2 28 -4 12 -10 17 -12 38 -12 5 0 7 -5 3 -12 -5 -7 -2 -9 9 -5 8 3
21 0 27 -8 6 -8 19 -11 28 -8 14 4 14 3 3 -5 -16 -12 -41 -5 -41 11 0 17 -14
-2 -17 -23 -2 -11 2 -20 7 -20 6 0 10 5 10 12 0 9 3 9 11 1 6 -6 19 -9 28 -6
13 4 13 3 2 -5 -8 -6 -21 -8 -29 -4 -10 3 -13 1 -8 -6 5 -8 1 -10 -11 -5 -16
6 -17 5 -3 -12 8 -10 10 -16 4 -12 -16 9 -38 -19 -28 -35 5 -10 4 -10 -6 -1
-7 6 -19 9 -26 6 -9 -3 -14 1 -14 12 0 10 -5 14 -12 9 -7 -4 -10 -4 -6 1 4 4
3 14 -4 22 -7 9 -8 13 -1 11 6 -2 10 2 10 7 -1 6 -7 10 -13 9 -6 -1 -11 4 -11
11 0 9 7 11 21 5 12 -4 20 -15 20 -24 -1 -9 2 -13 7 -10 5 3 9 0 9 -6 0 -7 -7
-10 -17 -6 -17 6 -17 5 -1 -7 10 -8 15 -17 11 -21 -4 -4 1 -4 11 0 10 4 14 10
9 13 -11 8 -13 42 -2 35 5 -3 9 -2 10 3 0 4 2 16 4 27 5 24 -5 47 -16 40 -5
-3 -6 -11 -2 -17 13 -21 12 -37 -2 -37 -8 0 -12 8 -10 20 2 11 -1 20 -7 20 -5
0 -8 -7 -4 -15 7 -20 -24 -4 -45 22 -13 16 -12 17 3 5 10 -8 18 -9 22 -3 4 6
14 7 24 4 9 -3 14 -2 9 2 -4 5 -17 9 -30 10 -16 1 -22 8 -21 26 0 13 5 23 12
22 7 -2 12 4 12 12 0 8 5 15 10 15 7 0 7 -6 0 -19z"/>
</g>
</svg>
