<?xml version="1.0" encoding="UTF-8" standalone="no"?>
<svg
   version="1.0"
   width="1024.000000pt"
   height="1024.000000pt"
   viewBox="0 0 1024.000000 1024.000000"
   preserveAspectRatio="xMidYMid meet"
   id="svg16"
   sodipodi:docname="N.svg"
   xmlns:inkscape="http://www.inkscape.org/namespaces/inkscape"
   xmlns:sodipodi="http://sodipodi.sourceforge.net/DTD/sodipodi-0.dtd"
   xmlns="http://www.w3.org/2000/svg"
   xmlns:svg="http://www.w3.org/2000/svg">
  <defs
     id="defs20" />
  <sodipodi:namedview
     id="namedview18"
     pagecolor="#ffffff"
     bordercolor="#666666"
     borderopacity="1.0"
     inkscape:pageshadow="2"
     inkscape:pageopacity="0.0"
     inkscape:pagecheckerboard="0"
     inkscape:document-units="pt" />
  <metadata
     id="metadata2">
Created by potrace 1.16, written by Peter Selinger 2001-2019
</metadata>
  <g
     transform="translate(0.000000,1024.000000) scale(0.100000,-0.100000)"
     fill="#000000"
     stroke="none"
     id="g14">
    <path
       d="m 8209,8618 c -17.2548,2.1555 -217.6604,-72.9771 -189,-38 -43.5315,-40.6962 -220.7027,-120.4229 -164,-74 -65.493,1.5157 -206.0138,-84.6031 -198,-78 -32.6631,4.4253 -171.6662,-117.6309 -108.75,-67.5 -97.0398,-23.4707 -179.8641,-186.1109 -150.25,-126.5 -24.6506,21.8199 -131.6514,-89.8351 -102,-61 -49.3814,-39.8109 -63.8803,-207.8526 -67,-149 -39.4444,-24.9967 -112.5263,-198.9015 -60,-149 -15.9936,-82.9251 -10.1273,-187.3754 -17,-199 -26.1682,-8.3639 -5.2505,-241.819 -23,-162 68.9373,22.2524 -130.5879,-1020.9515 -2,-329 20.0048,-37.2318 80.7728,-311.7495 37.375,-253.25 14.6825,-77.9266 51.5298,-238.7626 26.5,-154.75 13.8901,-82.4781 66.58,-253.9434 28.125,-198 -17.0572,-51.8903 -79.9869,-143.966 -6,-166 1.7874,-74.7831 -65.5855,-172.36 -59.75,-159.375 -28.2402,-141.5337 -150.1497,58.1497 18.75,-163.625 5.5321,-100.1935 105.4121,-172.339 33,-152 -21.2817,-57.0877 75.8277,-183.1233 62,-114 1.3852,96.81 60.5348,154.0412 29.125,173 53.6731,-67.1774 -2.2682,-125.2452 -19.125,-100 155.4398,-29.9542 -128.0048,-72.9062 -20,-96 -85.2256,4.8245 -166.0998,-112.9542 -61.0625,-95.4531 20.5376,-54.351 -23.2167,-226.0549 61.9063,-48.0625 -112.7367,104.5135 -156.2648,-37.7099 -22.2188,-80.3594 -10.8926,-35.2218 -127.3395,-72.4026 -37.625,-56.125 63.1417,-68.0694 37.5536,-305.8212 18,-274 -3.8596,-60.3961 10.772,-218.4276 -2,-159 -53.4807,54.6227 -11.1305,-195.8581 -12,-207 -46.6415,-81.841 -51.6767,-162.3206 -42,-191 -45.8403,-95.5941 -91.2124,-162.7058 -27,-188 -20.0949,-93.2277 -73.1397,-227.5763 -34.25,-153.125 29.6315,21.6811 -37.7822,13.9459 -13.75,-38.875 -33.6979,-166.9317 -162.9841,-365.3044 -81,-250 56.1039,27.1959 -98.9697,-14.1075 -48,-63 32.3382,-94.0463 -9.3651,-144.8404 -22,-97 69.0808,-77.8816 38.6189,-206.3319 -22,-87 49.814,-27.7291 -57.6156,-81.0333 -42,-79 -51.7467,73.0484 -152.308,-38.6031 -71,-39 -156.3741,-162.5551 -125.9912,-134.6721 -29.125,-71.75 -7.6162,-28.6935 -159.6803,-138.7914 -125.875,-153.25 -59.92,26.7677 -309.1115,-114.3171 -171.75,-102.5 2.539,-34.9646 -136.2489,-235.1753 -113.375,-124.75 C 6335.4275,3157.2672 6011.061,2960.6497 6165,3070 c -6.2503,-49.605 -176.2178,-132.6848 -97,-94 -27.4125,-56.4912 -310.9481,-273.1745 -194,-176 -147.541,-51.4516 26.0398,-144.7852 23,-138 110.028,36.0767 187.7174,-7.0156 146,-18 83.3828,51.6837 105.5026,141.5469 118.125,86 69.5926,-62.0336 125.1053,-80.7393 124.875,-40 24.8002,17.4869 100.8021,16.151 110.625,30.75 58.7318,43.1982 247.3522,159.5464 166.125,87.5 59.9599,17.8431 173.8104,159.9406 135.25,113.75 39.0095,89.5381 135.4604,225.4483 113,188 33.8673,50.4256 142.7305,195.2471 102,131 70.2891,50.7971 165.4061,212.5686 127,174 59.6312,25.912 176.9337,228.8851 96,140 119.0572,73.3598 202.2892,184.4489 122,151 21.5083,71.6548 131.3362,378.6634 138,299 -8.3468,87.2661 72.021,-3.0926 15.875,63 99.6553,26.7385 171.5132,174.6779 109.5,144.375 40.1373,-20.0816 90.6537,188.4353 56.625,157.625 64.2667,-8.2991 37.6563,125.6439 40,113 11.8933,101.6396 59.2345,256.6711 54.375,143.625 59.939,35.5062 76.344,96.3398 24.25,98.625 35.5174,96.396 2.8624,90.4206 19.375,104.75 65.8375,93.9051 138.854,406.2058 81,316 -1.9802,42.542 34.109,192.1519 0,149 -32.2904,44.2019 -76.3414,113.9365 -41,100 -38.0292,9.0515 -36.6776,291.5559 14,172 -23.0872,-15.9704 22.9908,360.1518 3,289 -5.7097,43.1744 2.5785,192.5127 0,151 49.4554,80.5025 -104.4426,443.0965 -38,223.625 20.5137,231.7064 12.3725,374.8301 15.375,326.625 15.6649,58.1512 -13.4405,290.4797 0.875,202.25 11.1886,117.9127 -8.3025,186.3091 -6,325.625 18.6817,87.4424 -49.8769,367.9942 -29.25,277.875 3.857,83.7812 84.1727,263.1322 50.375,161.375 26.6014,1.5612 40.6144,174.4917 27.625,149.625 -36.7875,100.5954 107.1772,162.2544 61,126 19.0607,47.1658 146.5081,131.3958 112,67 73.4218,27.4537 188.4672,156.0615 130.25,52.5 -6.4596,-7.8288 151.8632,115.1813 118.375,73.375 82.9412,36.3766 293.8677,102.9484 151.625,102.375 100.1881,-153.098 104.1312,-235.6785 105.75,-166.25 -109.1465,-69.8352 -52.0724,-214.316 -86,-115 89.7136,-73.9678 -164.0365,66.1549 -79,-96 29.2797,-29.9619 73.0964,-124.9528 3,-94.25 16.4811,9.9531 31.361,156.7273 91.75,75.75 100.7241,33.5076 85.1716,-89.5835 87.25,-78.5 -165.0371,59.735 215.5729,-136.7461 103,-88 -15.8246,-10.1639 895.6704,-240.3117 248,-43 99.5337,39.6568 487.5741,23.7194 331,22 31.0694,1.6687 200.964,-19.7122 149.875,1.875 103.4379,9.2085 373.3175,57.4338 270,56.25 80.6767,57.7882 147.7473,197.7682 156.125,131.875 -12.6789,104.1326 -278.7511,263.7649 -183.375,210.875 -8.3443,120.0513 -237.5411,137.2453 -185.625,101.125 -110.9439,19.1959 -1.6023,76.1614 -42.125,86.125 57.9766,-97.869 -163.998,29.3828 -69.875,48.875 -86.2229,75.961 -377.8714,131.184 -291,129 -70.2215,28.5657 -285.4072,90.1872 -199,48 -70.8201,31.4399 -377.4527,321.7836 -292,218 -96.3359,28.5893 -172.3262,89.2064 -276,74 z"
       id="path4" />
    <path
       d="m 3366,7738 c -75.8393,-32.5234 -182.1331,-124.085 -158,-66 -28.8928,-36.3598 150.6851,-198.811 68,-170 65.3578,-88.4986 100.2974,-362.1744 140.5,-226.5 -35.3956,-28.5348 28.4934,-120.0993 -14.5914,-126.5905 6.2792,-51.2585 22.5874,-212.6103 23.0914,-125.9095 60.141,120.0084 155.9461,52.2639 74,-53 5.4254,-71.9149 33.2541,56.6599 46.625,-13.75 68.2888,-8.2935 38.367,-96.9733 46.375,-100.25 -34.5438,0.5267 7.4251,-242.9703 110.7696,-201.6702 C 3794.5574,6617.8024 3895.1572,6362.3711 3825,6483 c 91.3605,-96.5667 38.3799,-36.4048 74,-118 3.1226,-56.6847 180.4999,-264.041 99,-191 44.7885,-25.1066 166.9981,-139.3729 96,-121 -33.856,12.1656 107.1975,-175.0952 100,-174 21.0014,-98.3595 2.5367,-192.4801 59,-97.5 111.4913,32.3736 92.4765,-45.5878 52.375,-37.25 73.2371,-44.9304 105.3576,-111.7045 71.625,-76.25 -5.3611,-102.1074 20.2665,-160.891 33.25,-71.125 76.9546,21.7454 112.373,-180.881 78.375,-109.125 115.8331,-84.062 118.5043,-212.5798 37,-111 36.7439,-13.8264 169.4948,-123.9631 100.875,-65.25 68.2691,-225.7445 -137.5084,103.1408 -57.5,-86.5 33.7767,-6.5466 59.2941,-228.0138 70.5,-35.375 -50.7479,40.7666 1.1864,-171.1174 21.625,-97.125 -50.1122,-22.6141 25.7161,-140.5278 1.875,-108.5 8.1523,-42.1953 70.3258,6.4775 50,-105 -9.581,32.6266 16.5819,152.2765 -17,127.125 38.257,-85.3167 -32.5535,-176.2549 17,-103.125 78.9159,-53.8035 93.7455,-169.0125 99,-113 -51.1886,-4.9295 44.7577,37.4513 37,-47 -16.8286,-56.9621 154.491,-232.0759 72,-163 -47.2348,14.2837 27.7894,-113.6165 57.5,-125.375 8.791,-87.3218 -5.6312,-172.8464 13.5,-137.625 -130.2899,-34.0233 1.8723,-105.4262 28,-62 -64.7762,105.7018 181.8869,-230.5997 44,-184 71.4653,116.9932 206.0233,-143.2524 75.875,-142.5 -74.8852,84.0374 15.515,101.5461 -5.875,97.5 -41.4952,100.3827 74.2486,-122.9775 54,-109 29.3631,45.6256 159.2881,-49.3694 85,-46 115.2101,-204.3262 80.8273,-182.5096 67.625,-210.625 50.3748,24.72 -43.7062,-65.8986 32.375,-87.375 11.3423,95.9136 -110.3277,20.6288 52,1 48.6602,-100.8794 319.4063,142.2985 9,-79.5 29.0861,-38.6411 -93.5098,-196.154 -9,-216.5 -43.5079,-8.71 -144.9014,311.7291 -87,214 335.6214,-265.5943 115.204,-107.4193 -3.125,-33.125 13.1492,-222.5719 91.6986,-156.3011 121.625,-283.625 31.5932,-36.0394 83.3065,-214.6098 56.625,-172.375 128.2955,5.2457 184.3553,262.9933 169.875,115.125 2.2213,47.2669 -92.9514,322.183 -46,255.25 12.7277,16.9342 111.8688,31.4189 77,26.75 -11.6997,-62.7082 -0.5313,147.9896 85,85 8.6813,31.8338 -10.3873,179.8807 -31,130 -32.8835,88.1591 -157.8911,315.4008 -114,230.125 -91.4234,57.868 -201.3588,251.4288 -163,201.875 -20.9558,91.4736 -157.0755,373.6315 -142,301 -46.8003,25.1215 -75.0408,137.201 -99,159 -26.2856,90.2717 -110.9397,272.6236 -85,278 -12.4102,51.2641 -70.7748,217.8416 -50,175 -1.8853,87.3071 -3.0643,271.0758 -11,249 -28.406,89.0563 -69.784,342.3979 -45,201 9.4676,33.0575 11.884,322.8135 -9,249 -22.2378,65.7506 -108.7915,307.9446 -66.125,249.25 -20.4994,133.8777 -118.5446,462.7275 -91.875,327.75 -5.338,49.6885 -128.4922,333.0154 -115,293 -26.9937,71.9564 -227.7967,386.1013 -138,269 -73.6111,157.3522 -473.2146,334.1408 -334.125,264.875 -63.0321,19.2093 -248.5922,263.5475 -204.875,192.125 -82.5117,158.9058 -253.6159,253.8082 -228.625,246.25 -100.3354,65.7827 -250.1447,215.8181 -185.375,122.75 -45.1514,53.8766 -180.5272,92.2619 -149,77 -83.4623,-1.521 -49.1485,37.1442 -171,37 z"
       id="path6" />
    <path
       d="m 3118,6783 c -74.0741,-50.5054 -175.4449,-184.7408 -157,-153 -33.1543,-106.0999 18.6617,-288.0141 22,-257 3.437,-71.9145 -40.9225,-195.6906 -6,-173 23.3265,-101.0095 -30.8801,-298.4143 -19,-188 -8.2259,-80.2859 -54.7711,-284.4695 -35,-205 -21.639,-13.7834 15.5144,-257.8145 -17.25,-155.375 -54.2241,-119.9443 -90.4036,-459.5622 -59.5,-347.375 4.622,-34.7369 -48.0963,-232.8687 -32.75,-159 36.445,-30.0411 65.2141,-150.7081 12.5,-122.25 2.2878,-45.9944 11.5087,-242.4418 28,-204 25.7132,-27.9923 -59.8525,-203.8464 -48.875,-165.5 -26.6899,-87.9885 -27.1921,-271.3767 -39.75,-186.375 -12.2288,-34.4034 9.5283,-133.5377 27.625,-96.125 16.6524,-88.1062 0.5102,-170.5259 33.8432,-165.6864 C 2843.5435,4090.0977 2800.1954,3935.3703 2715,4010 c -9.5918,-16.9746 -102.0643,-113.0317 -65,-140 167.081,-95.074 -454.488,-320.7571 -67,-129 30.6522,-37.4455 -74.2568,-10.3428 -69.4688,-163.25 68.3142,60.1479 21.4849,-117.8045 -17.5312,-77.75 13.6924,77.3133 39.1987,-42.2294 -18.125,-80.75 -24.7073,-101.5417 23.9162,-140.578 -34.875,-104.25 20.5487,-76.3635 -296.3168,-103.7934 -106.625,-102.125 38.9683,-15.6764 -157.7353,-80.5409 -145.375,-112.875 -25.0993,-47.3724 -181.019,-47.4975 -143,-47 -65.9927,-51.3562 -239.047,-165.085 -175.875,-101.25 -54.4413,40.9886 -303.0816,-33.811 -193.125,-21.75 -37.4535,-30.0223 -91.9446,198.8845 -102,108 -86.4914,83.3187 -46.9808,287.6979 -53,229 -56.3296,51.089 -53.1516,390.6547 -53.75,292.75 83.9941,119.9334 178.9506,45.2117 107.75,71 1.4912,35.5125 102.2672,57.0842 43,-20.75 -1.3215,61.6516 76.592,241.9883 56,150 20.5768,35.1417 -44.9435,129.5485 -21.625,104 -119.0366,195.6069 -144.7613,109.2144 -219.375,257 -63.3637,101.5361 -279.7584,290.7305 -223,230 -43.0337,22.577 -258.92304,171.7339 -208.5,133.5 -67.05285,9.7298 -251.29429,-89.2907 -184.75,-6 C 755.63962,4373.4708 777.28662,4105.3919 772,4175 c 111.99858,-165.0631 8.78842,-194.2454 92,-181 -44.94164,-48.8765 46.59484,-0.9721 9,-48.25 -54.86301,-159.0318 25.61074,-429.921 32,-274.75 76.01544,-85.2087 27.24113,-206.013 39,-150 25.16846,-108.9371 6.5181,-255.3879 8.75,-198.125 58.7647,-50.9609 5.43228,-271.1357 -15.625,-189.75 63.1015,-9.4019 121.1408,-131.6725 30.625,-116.625 -24.72591,-118.7629 98.7799,-166.7214 70.25,-195.5 -17.4748,-41.4925 74.6552,-241.9257 111,-171 1.6731,63.6102 29.9863,12.2512 95.625,-67.125 28.2046,-81.8117 35.9971,-137.1205 66.375,-88.875 54.4747,-26.143 160.962,-90.2757 115,-41 52.041,1.6509 293.2089,-146.1341 155.875,-101.125 60.1555,-3.8457 236.774,-28.5232 172.375,-16.625 39.7214,-8.049 341.5153,10.3946 200.75,15.75 107.6412,37.5765 82.1843,8.543 75,91 63.099,-157.469 63.8058,-67.2382 79,13 50.4719,-32.8061 185.1531,-33.0691 114.25,-1.625 24.957,64.6425 87.1613,77.552 128.125,105.875 -15.674,37.6641 621.2609,78.9463 276.125,92.625 158.3643,216.617 12.1731,-48.61 189.5,212.125 -42.6032,-14.353 -47.7408,71.6552 22,63 -50.7107,-31.4048 103.0827,46.126 -24,29 131.8007,56.9034 64.1169,33.0591 46,51 -51.2477,-48.7285 -9.1198,207.1739 22,128 -51.5481,-77.2005 25.4096,39.9421 49,31 -37.7523,-13.3198 56.6507,-21.2033 58,59 -78.6464,-126.6913 69.0943,101.6621 64,97 -70.578,113.7553 -89.7192,-95.1617 -48.25,62.625 65.4255,-148.5477 134.5746,-65.1936 133.25,42.375 96.3741,67.0385 87.1133,151.1481 69,157 27.29,-98.8929 102.0145,98.1228 61,56.5 10.8982,34.7467 79.8369,197.1497 69,186.5 -14.5433,28.2077 36.7181,168.103 30,139 -5.1136,117.3425 23.0346,275.4976 16,207 -10.543,64.677 39.7807,373.8252 -15.5,279.375 -24.9567,37.7163 14.8114,206.5277 16.5,157.625 -15.3707,106.7084 -47.2583,375.6618 -15,290 -12.795,95.3558 -41.0155,418.1509 -32,290 1.0006,80.9953 32.2072,371.33 8,253.875 -3.7888,98.835 75.9755,515.6103 41,401.125 -34.4656,47.9408 -10.1668,326.8769 9,256 26.9123,110.065 176.7486,428.0376 128,321 60.5481,55.442 93.775,72.0306 60,106 66.9256,26.6747 -199.9919,102.0579 -134,67 -91.5304,58.4465 -159.3122,105.3207 -136,78 1.2992,117.9415 -138.4504,73.7573 -196,110 z M 2493,3271 c 56.3878,-31.5891 76.581,-127.2467 31.625,-87.25 111.2773,-145.7772 -195.9676,-351.7156 -53.75,-173.5 19.4908,126.7597 62.6078,302.7395 17.25,217 -56.6327,-23.0121 14.5802,105.1746 4.875,43.75 z"
       id="path8" />
    <path
       d="m 4743,4849 c 2.3229,-28.3108 107.7392,-187.3497 42,-206 -55.466,88.7615 21.8684,-89.2771 -6,51 37.8259,-91.9216 86.0141,-199.5932 84,-105 -40.3235,-76.2561 24.293,-258.5846 -27,-139 32.1222,92.6946 63.5766,27.7002 112,39.125 -49.528,-47.5483 -154.7547,377.3728 -153.375,274.75 -22.1507,15.639 -24.1489,118.9139 -51.625,85.125 z"
       id="path10" />
    <path
       d="m 5134,3914 c -21.1337,-63.1929 128.7587,-168.8893 74.125,-144.875 -9.8674,-97.7346 30.4627,-161.1146 40.875,-179.125 85.0115,93.1812 98.0374,139.0524 15,96 2.2779,6.8011 -73.5385,223.6741 63,-1 -96.6285,-27.4101 151.6542,-447.5039 -19,81 81.659,-130.3707 -111.6099,197.6497 -174,148 z"
       id="path12" />
  </g>
</svg>
