<?xml version="1.0" encoding="UTF-8" standalone="no"?>
<svg
   version="1.0"
   width="1024.000000pt"
   height="1024.000000pt"
   viewBox="0 0 1024.000000 1024.000000"
   preserveAspectRatio="xMidYMid meet"
   id="svg12"
   sodipodi:docname="n.svg"
   xmlns:inkscape="http://www.inkscape.org/namespaces/inkscape"
   xmlns:sodipodi="http://sodipodi.sourceforge.net/DTD/sodipodi-0.dtd"
   xmlns="http://www.w3.org/2000/svg"
   xmlns:svg="http://www.w3.org/2000/svg">
  <defs
     id="defs16" />
  <sodipodi:namedview
     id="namedview14"
     pagecolor="#ffffff"
     bordercolor="#666666"
     borderopacity="1.0"
     inkscape:pageshadow="2"
     inkscape:pageopacity="0.0"
     inkscape:pagecheckerboard="0"
     inkscape:document-units="pt" />
  <metadata
     id="metadata2">
Created by potrace 1.16, written by Peter Selinger 2001-2019
</metadata>
  <g
     transform="translate(0.000000,1024.000000) scale(0.100000,-0.100000)"
     fill="#000000"
     stroke="none"
     id="g10">
    <path
       d="m 2270,8318 c -42.6424,-35.8645 -127.3601,-75.3501 -139,-39 -92.7449,6.3679 -444.535,-70.8899 -346,-39 -34.7684,-28.6962 -329.2838,4.9215 -161,-11 -55.6356,-49.6623 -279.9286,35.3094 -111.875,-20.5 -19.4288,-34.7983 -168.0672,-47.6587 -142.125,-48.5 -44.2562,-12.3216 -345.97,-61.6538 -265,-33 -47.4575,4.2018 -366.66898,3.0024 -205,8 -63.07185,33.4489 -187.73577,46.3654 -198,53 -40.56071,64.5067 -230.20792,142.4335 -215.125,82.375 C 349.43847,8269.4302 156.34334,8118.3932 225,8195 c 40.3374,-98.4953 241.29076,-179.5764 149,-129 -44.66924,114.4646 129.61137,-111.9051 81,-86 -136.43001,14.4916 28.51355,-31.747 55,-35 31.93416,-29.0227 162.17814,-16.7658 151,-22 30.40333,-21.1949 268.11822,27.4666 162.125,-13.625 60.3321,-52.9061 269.5896,-15.8484 166.5,-29.875 -44.25864,-80.0164 229.7115,30.8924 182.5,-4 63.8852,-18.263 217.81,-12.3155 193.875,16.5 53.4164,55.5223 268.4739,26.4583 201.375,42.75 40.1552,26.9205 415.0213,-57.4645 309.625,-31.75 43.4688,-42.4432 236.908,34.0483 147,15 122.9267,5.2147 246.64,-18.8087 202,-35 49.4009,-27.9419 285.0328,-119.1009 203.5,-63.25 23.9537,31.4154 161.8811,8.8641 120.5,7.25 80.1526,-36.2682 245.1502,-74.3072 180,-48 50.3201,-5.5266 146.3365,-71.1478 121,-45 115.6722,-141.7824 46.8631,-45.317 117,-238 -4.9077,-36.4499 -63.463,-230.9955 -18,-175 4.3175,-64.1796 0.8148,-329.7666 -15,-249 -63.4657,9.1502 -210.9658,-193.7673 -150,-137 -46.0998,-79.5063 -13.9184,-322.334 -40.125,-230.125 -34.6773,2.2156 -37.2949,-185.2089 -9.875,-144.875 45.1806,-70.0199 107.5644,-138.5967 69,-150 33.0378,-49.1002 161.9043,-161.6592 140,-170 71.7515,-37.9807 350.7675,-172.3282 250,-152 59.2063,3.7012 233.369,-33.4273 164.375,-21.75 88.5992,36.1257 114.3241,116.9259 152.125,82.875 92.0638,-31.2899 261.7867,104.3273 178.5,80.875 69.9899,77.4422 144.4596,226.6871 144,181 20.3841,-27.8342 147.1633,159.0209 111.875,153.5 15.7033,84.8403 62.4744,268.7522 49.8594,261.4375 -25.937,114.9548 -50.2082,422.8109 -34.7344,322.0625 -55.4072,50.5061 -192.2462,231.5012 -114,185 -67.9032,19.4245 -100.1287,164.5293 -56.25,93.75 -48.5794,242.9584 -38.3088,-170.3472 -67.75,159.25 -30.0359,24.5922 -174.6194,150.2961 -119,135 13.9143,62.982 -38.242,222.0569 -73.875,148 -50.7008,1.0575 -213.4128,244.0548 -184,187 -40.343,19.7767 -231.5183,140.325 -177.125,112 -175.3929,106.975 349.6828,-57.4965 -135,62 -44.9614,-19.8451 -401.0588,-12.0886 -292,40 -30.2222,27.9955 -313.0311,72.6619 -255,33.75 44.7073,-44.9093 -179.32,13.9596 -216,14.25 z M 3421,6993 c 1.1028,-53.2852 -44.2176,-230.6725 -7,-171 -47.6243,-188.6287 -30.4363,-206.8877 -37,-219 -55.8576,-82.3043 -163.6418,-123.4961 -109,-104 -83.6432,6.866 40.8081,228.6855 13,165 -9.2866,8.643 33.8187,167.5531 26,100 -159.9097,67.9823 156.3776,303.0643 27,157 -17.0498,6.9306 58.0533,51.015 87,72 z"
       id="path4" />
    <path
       d="m 5833,7653 c 364.1941,206.8461 -1749.5981,-983.9008 -171,-53 -116.2661,6.6349 -216.8067,-46.9506 -164,-36 -6.3306,34.647 -259.514,-124.5579 -143,-61 -22.9285,24.3099 -132.365,-96.6258 -103,-59 -45.9682,19.2796 -294.2225,-199.0525 -194.625,-114 -104.8452,-36.7539 -245.9273,-113.6858 -175,-101.75 C 4822.7499,7099.5893 4712.5104,7112.5988 4739,7095 c -17.8202,-23.5212 -142.2835,-140.9486 -114,-96 -38.6948,-25.0456 -153.431,-142.7723 -116,-104 -42.1032,-47.5994 -157.3324,-140.8073 -118.875,-101.375 C 4345.0315,6774.6112 4164.5455,6599.4213 4259,6657 c -28.3511,-48.2428 -109.9759,-163.749 -103.5,-112.875 -62.0385,-30.1327 -130.477,-169.5558 -116.125,-123.75 C 3952.4687,6383.8381 3884.2564,6180.5736 3916,6250 c -61.5824,-96.2322 -192.5041,-296.0053 -125,-176 -31.2688,-101.5972 -104.8672,-192.4554 -70.5,-152 7.3918,-28.9606 -74.3105,-231.8817 -60.5,-152 -26.6034,-103.5652 -40.8512,-310.1861 -41.25,-209 -36.009,-11.7959 -33.2173,-272.0109 -35.75,-227 -16.2281,-70.4178 25.0342,-250.9914 -8,-194 -59.1142,-10.9044 115.8977,-699.2272 6,-270 3.5892,-4.9329 -1.9785,-169.3532 -1,-133 -4.1337,-79.0047 2.3932,-294.3249 14,-230 -8.9965,-73.2037 35.5767,-306.6993 20,-209 7.3299,-100.7055 22.9831,-224.6045 10,-164 -9.5326,-37.6729 -8.6392,-212.7912 4,-160 -5.4944,-119.5561 -54.3857,-237.3258 5.375,-185.75 59.8969,-49.5861 73.9788,-242.3759 26.625,-207.25 -74.2204,-13.1208 46.8023,-367.8637 -15,-189 27.3461,-90.017 -42.6661,-82.3776 4,-117 1.195,-112.2754 -50.8413,-354.8912 -30,-302 65.5944,-41.8654 45.7759,-117.524 0.625,-113.25 -35.7863,-108.084 -38.0025,-232.5418 -56.625,-181.75 -7.684,-92.4038 -86.4848,-265.6024 -55,-190 -16.2961,-38.7463 -76.0486,-92.3941 -40,-89.875 5.095,-118.4585 -20.6378,-289.1627 -23,-189.125 -28.6937,-63.3232 -8.2698,-168.5267 -14.6258,-146.6803 8.3538,-41.8505 55.0498,-156.1518 28.6258,-112.3197 235.0935,-44.4328 -198.264,-178.5123 187,-117 31.6198,72.7137 119.5516,168.8332 126.875,190.5 25.0269,72.7479 149.5985,-26.0087 57.125,66.75 28.6287,-28.8785 -35.4307,-214.259 -32,-97.25 7.7667,-120.2139 -13.8923,-45.4914 -27.75,-104.375 70.7075,-93.0935 169.066,16.1989 126.75,-14.625 11.1715,50.3871 124.7722,114.0449 55,96 34.5395,22.2802 64.177,146.3132 74.25,96.125 6.4391,-3.7718 45.7073,109.5349 38.75,123.875 35.8063,50.451 20.0703,517.7731 24,355 -15.2775,24.9645 50.4798,391.7318 16,296 -7.4171,189.3975 77.7653,2.2992 30,222 35.5682,174.621 64.561,266.1961 58,244 14.087,75.9855 83.1915,374.8407 66,296 59.5893,186.9313 49.0534,246.6581 69,305 -9.5306,39.0525 63.8788,203.0421 58,201 -14.0203,130.3834 35.1491,-34.1876 30.875,45.25 28.8881,59.8702 106.8666,233.5239 46.125,189 -48.1761,-10.0209 -27.274,156.7172 -4,129.75 12.0653,117.0599 -34.2684,506.1683 0,352 -21.2657,67.8306 42.7984,404.2519 -13.875,294.125 -18.1452,83.5235 66.0543,408.2927 55.5,267.25 32.3251,27.6313 179.6137,205.4833 93.375,164.625 28.3156,24.5222 88.7161,177.5113 52,178 1.104,100.6502 256.0462,267.5352 127,174 57.4723,55.57 72.9684,142.49 47.75,136.75 66.3104,30.1696 138.7804,59.8243 93.25,88.25 45.1695,47.4786 84.522,39.5944 61,79 55.6791,-11.2506 108.3115,70.144 98.125,66.75 46.7027,19.9478 186.0564,127.4355 130.875,94.25 62.543,63.706 205.2555,195.8661 151.375,148.75 48.7479,50.2864 38.016,71.2955 102.625,83.25 118.8527,120.5918 123.7592,57.3494 132,123 2.276,-36.4332 55.4046,88.8946 114,54 129.3641,-73.4929 271.3174,-13.7489 196,9 53.2506,73.1274 109.0335,106.4417 80,16 53.2263,26.3992 132.6525,5.4569 58.125,-51.5 32.9113,33.508 122.1585,-115.4283 97,-30 108.6278,-32.2306 302.3042,-152.0056 225.875,-70.5 48.0734,-55.5281 49.0755,-211.2401 57,-120 1.6528,-6.6221 -6.1975,-283.2379 2,-206 -26.3266,-63.7408 155.5037,-94.9877 106,-68 -83.1636,-20.3772 -99.9907,-236.3098 -56,-151 58.5934,-8.9608 10.399,-157.3911 3,-98 -60.1738,-84.2746 -30.1037,-268.5375 -27,-193 -2.3604,-61.2123 36.1894,-218.8178 13,-150 -25.5697,-76.0971 86.6583,-243.869 48,-174 14.3173,-69.4198 164.4636,-329.6304 119,-249 56.8221,-127.9109 121.9584,-266.7508 88,-179 85.6275,-91.4193 266.0954,-374.6071 157,-204 117.7078,-130.6913 135.6896,-9.8711 149,-162 62.1828,5.7718 159.2369,91.9794 131.625,11.875 30.4004,72.3043 -12.1068,258.46 -17.125,196.375 13.5785,28.3996 10.2476,212.6715 19.4993,205.7506 13.3397,-70.4314 82.3153,125.6135 65.0007,163.9994 4.8606,169.7861 -34.8654,381.9707 -26,359 -23.1478,125.3006 -24.123,405.8591 -15,300 -45.5292,42.4019 -70.8481,171.0131 -39,137 -35.9099,67.0851 -85.4855,224.9235 -29,171 1.7108,88.6013 95.3888,320.8015 91.25,223.75 -95.572,310.0352 54.1623,7.0762 -86.25,171.25 11.6148,37.3912 -61.8598,166.8848 -76.25,165.375 -90.9632,174.1799 -19.0387,27.6753 -76.75,158.625 -52.6191,148.6049 -129.0259,238.4446 -85,137 -43.3955,66.0677 -201.2776,198.5167 -128.875,133.5 -87.3272,82.8333 -263.8408,193.9256 -173.125,146.5 11.2266,86.3057 -205.0917,173.9608 -148,130 -0.038,60.1437 -184.0368,181.9592 -150,97 -110.8431,4.1 -233.6366,32.5589 -181.375,21.125 -26.4107,47.6197 -245.3103,41.7412 -181.625,16.875 -0.7942,-62.5149 -66.0428,27.0273 -81,11 z m 737,-1370 c 88.1631,-174.8018 26.0445,-188.0491 10,-119 -46.8511,-68.4248 35.7352,-11.8853 60,-19.875 153.64,19.2079 72.064,-18.5883 -6,-92.125 42.6406,-2.2912 -4.6573,102.9109 -106.75,125 44.2125,4.0967 -28.7139,150.4975 42.75,106 z"
       id="path6" />
    <path
       d="m 6913,4650 c 101.1833,-61.1762 175.714,-176.9875 71,-142 117.3187,-209.8172 -488.6615,162.0261 -114,9 -29.262,36.7708 -103.4272,60.461 -127.25,-0.75 65.4778,-116.3447 -26.3638,-228.1229 -11.75,-182.25 9.8635,-8.0128 80.6556,-157.7185 39,-125 100.365,-59.2814 -20.0974,-54.2864 -53,-73 -105.4541,-24.8513 34.6003,-218.0751 -20,-166 25.6913,-113.9522 198.9587,-338.9479 163,-306 18.837,4.124 360.2211,-617.9488 134,-203.75 29.7119,-44.0322 168.7983,-325.5493 89,-194.25 -3.8225,-46.7484 104.6635,-369.9022 92.75,-288.75 49.3718,-58.2115 148.973,-312.6202 110.25,-210.25 31.6898,-86.2088 135.5661,-326.8452 88.5,-242.625 11.5287,-61.378 33.4143,-241.6119 45.75,-195.25 31.376,-85.9149 75.9138,-156.3375 69.875,-169 4.7554,-108.1375 130.7835,-327.1748 83.25,-224.875 53.3646,-38.5871 238.7877,-194.7039 156.625,-164.25 -11.9915,-94.5767 129.2624,-241.8017 103,-151 98.9434,-45.6621 151.2458,-124.5384 147,-116 75.2562,-50.8493 263.1598,-169.8651 170,-93 91.4614,39.9742 106.752,4.4413 66,-34 26.3776,31.1815 138.4617,0.3094 96,-42 31.2894,3.2897 112.6716,-120.1792 90,-75 14.535,-14.0935 214.643,-49.2963 144,-29 60.6935,91.389 138.9456,-115.0691 136,-85 -23.4094,-100.2992 417.7582,28.1989 159,-42 -53.8214,-80.7575 179.5665,-119.36165 123,-36 34.6061,-49.7297 353.1288,-126.4408 242,-67 4.6895,-12.74859 177.6135,136.1605 110,90 -15.716,45.7854 44.7647,258.199 31.5,202.5 1.8173,126.8166 -58.052,500.7561 -34.5,379.5 71.8614,-201.2306 -532.9966,1336.9724 -76,165 -59.4981,77.9025 -313.46,172.8892 -234,209 -111.2858,63.0232 -348.013,241.7801 -208,133 -72.1029,-46.168 -298.5593,38.321 -185,65 -113.5287,-16.8119 -231.1277,-42.1376 -209,55.125 -15.6631,56.7492 -147.8996,160.1236 -106,99.875 -44.3852,-39.2062 -237.4233,316.4229 -106.25,87.625 -32.458,27.0953 -191.3832,220.4779 -156.75,162.375 -30.4033,56.4609 -102.538,213.2223 -84,140 -60.4252,85.8232 -138.9941,269.3816 -102,197 -54.911,97.3701 -134.4366,288.0522 -90,194 -16.7399,16.1958 -211.9949,444.8463 -95,229 13.2898,19.1526 -90.4461,164.3143 -47,142 36.7578,39.3101 -34.1558,192.0546 -28,162 -29.2324,129.878 -77.2258,269.1763 -76.375,175.875 -35.0719,9.6085 -49.4239,270.8413 -28.625,170.125 16.2095,48.8406 -12.0222,184.808 -54,172 -47.2894,-3.3221 -131.6414,309.1075 -87,158 -5.6356,28.1157 -115.0386,169.6149 -102,172 -128.7469,-159.624 -292.5064,82.2933 -202,35 -24.1706,41.0665 -86.3497,71.0551 -123,53 z m 17,-659 c 26.5837,-178.4665 153.7981,33.6899 80,-119 46.0828,17.0052 -38.6993,-114.3143 -76.375,-78.25 -62.9011,110.14 39.2987,-48.6068 20.375,12.25 70.5114,160.5487 -16.3183,175.2641 -40,113 46.2841,-26.9443 -52.0313,102.2771 16,72 z"
       id="path8" />
  </g>
</svg>
