<?xml version="1.0" encoding="UTF-8" standalone="no"?>
<svg
   version="1.0"
   width="1024.000000pt"
   height="1024.000000pt"
   viewBox="0 0 1024.000000 1024.000000"
   preserveAspectRatio="xMidYMid meet"
   id="svg12"
   sodipodi:docname="p.svg"
   xmlns:inkscape="http://www.inkscape.org/namespaces/inkscape"
   xmlns:sodipodi="http://sodipodi.sourceforge.net/DTD/sodipodi-0.dtd"
   xmlns="http://www.w3.org/2000/svg"
   xmlns:svg="http://www.w3.org/2000/svg">
  <defs
     id="defs16" />
  <sodipodi:namedview
     id="namedview14"
     pagecolor="#ffffff"
     bordercolor="#666666"
     borderopacity="1.0"
     inkscape:pageshadow="2"
     inkscape:pageopacity="0.0"
     inkscape:pagecheckerboard="0"
     inkscape:document-units="pt" />
  <metadata
     id="metadata2">
Created by potrace 1.16, written by Peter Selinger 2001-2019
</metadata>
  <g
     transform="translate(0.000000,1024.000000) scale(0.100000,-0.100000)"
     fill="#000000"
     stroke="none"
     id="g10">
    <path
       d="m 3540,9835 c -36.492,-114.8969 -50.5405,-301.8408 -45.625,-230.625 -0.6635,-60.2432 -100.0736,-81.1943 -17.9844,-182.3906 -139.7571,-41.5865 -31.2245,-314.9442 -39.2656,-209.3594 -32.2552,-9.5067 15.0644,-263.3753 11.375,-212.375 -17.7103,-49.969 32.1855,-276.5654 34.75,-208.875 35.9417,-86.5498 55.3263,-278.2459 48.75,-218.375 -2.6676,-50.5696 66.5061,-314.54 32,-226 14.967,-104.0343 43.9436,-257.2912 9,-181 -2.1194,-80.2292 -62.0305,-256.5838 -21.25,-217.875 36.076,-60.338 34.9201,-257.261 8.25,-189.125 12.0613,-68.5385 -49.7643,-293.8066 -19.25,-172.625 13.1718,-41.1604 -115.7611,-221.9709 -69.375,-178.875 8.0128,-26.8296 -12.6716,-200.4809 -4.375,-153.5 -83.8642,-234.7475 88.701,27.3284 -68.875,-247.75 5.1487,-71.3169 -108.3194,-324.1452 -71.125,-262.25 10.4932,-59.2093 -6.1092,-217.9223 -16,-168 -37.5894,-212.2581 -8.4501,-130.7002 -5.75,-330.25 -0.6975,-73.4103 17.4931,-193.0549 -1.25,-149.75 -36.3572,-99.9169 -32.6944,-403.6515 -23,-261 16.7297,-124.0238 -32.6109,-338.2786 -22,-219 5.7605,-48.2938 -60.3972,-384.5656 -28,-174 -30.6754,-72.7983 -105.1456,-247.498 -53,-189 56.5778,1.5558 42.1662,-118.273 0,-112 -9.8176,-71.6659 34.678,-296.3075 21,-235 1.3411,-150.7987 -13.5676,-278.6146 -6.25,-264.125 20.1903,-190.7833 32.2634,-344.8347 20.25,-297.875 0.3941,-114.916 -23.0994,-264.9048 6,-179 23.3248,-74.858 92.684,-173.1378 51,-145 9.311,-83.5348 5.9091,-247.5414 24,-146 47.4565,-44.752 125.96,-292.341 82,-199 34.428,-60.8268 129.2859,-227.4872 97,-184 -13.6882,-54.8481 85.0343,-230.1287 80.75,-159.125 59.2959,-87.9421 131.2667,-343.8471 95.75,-269.375 -15.556,-59.9184 48.1784,-189.8612 23.5,-143.5 -21.0703,-45.4755 -21.0426,-209.6162 -23,-174 -19.9291,-63.8735 -40.727,-251.46 -21,-169 8.7005,-99.6085 -22.7251,-201.7377 -14,-177 10.5021,-12.9303 -19.6416,-185.2992 -18,-129 -14.4404,-119.1811 -29.035,-374.4826 -26,-247.5 21.3246,-50.4521 38.3219,-170.7142 19,-132.5 6.0205,2.0121 22.5598,-133.0848 21.75,-131.875 25.6768,-67.4292 92.6897,-308.0321 37,-222.375 15.0981,-136.1911 43.1883,-270.0869 58.25,-194.75 38.8024,-16.5011 88.546,-179.3225 77,-143 46.5139,-34.0685 143.6007,-227.56105 80.75,-153.75 35.5924,-70.22015 144.6634,-208.86024 115.25,-139.25 40.7543,-84.84974 145.9424,-221.65255 135,-127 40.5063,31.26362 229.4549,-73.74671 148,-82 67.2379,-48.69136 264.5393,-192.90397 218,-150 3.5955,-3.30287 196.4752,-163.26461 92.125,-49.75 C 4682.1537,473.29841 4731.1883,381.88373 4742,378 c 69.5705,24.91223 154.5701,-67.02783 127,-48 81.5304,65.49461 220.622,15.76204 145.5,-22.25 -26.5091,95.77474 169.23,265.65146 143.625,114.125 -60.6868,53.20539 242.1047,6.64268 182.75,48.5 100.8363,19.23817 44.6964,78.22682 61.5,64.375 25.6531,124.70115 -96.7505,336.46704 -104.375,221.25 -77.4301,3.21269 -197.4767,144.96326 -150,94 -34.5326,32.89018 -105.0284,195.75 -84,92 -107.1991,38.3802 -119.9593,208.3494 -98.625,171.375 -65.4786,168.1351 -80.0881,141.8118 -162.375,297.375 -38.4199,65.7633 -11.9934,98.802 -69.875,74.125 -89.0891,74.5945 -165.0103,233.613 -79.125,147.125 -1.4937,54.0829 -114.1579,268.0744 -87,218 -19.6825,74.9125 -85.0499,285.9169 -46,182 -33.2381,89.3573 2.6014,335.1347 -6,244.375 -18.6514,97.0902 24.0922,309.3782 23,231.625 30.6529,162.5754 28.847,343.1834 25,240 53.1934,75.9152 134.5924,284.9738 93,265 57.2901,81.3667 91.3079,237.5096 63,173 -3.5397,69.0521 14.417,127.0092 18,137 -1.9245,196.3658 36.3783,46.124 -33,102 -92.71,31.5396 -102.2446,-103.9623 -55.7031,-67.9062 -52.0726,-96.8696 -66.6396,53.6881 -68.2969,12.9062 14.9844,21.8475 -0.6303,174.1178 8,124 14.1859,114.9437 61.7177,261.8568 26,185 5.2198,137.2011 59.3014,257.2934 43.25,243.375 -47.7788,74.8156 -119.8907,239.4427 -82.875,189.75 10.1588,112.826 36.5002,179.868 15.625,149.875 -4.242,108.8516 -9.5659,185.3774 0.125,170 22.1313,65.742 46.9651,232.8761 14.875,127 -7.5713,79.7997 -17.1789,336.3163 -14,225 -23.1132,92.58 11.4925,319.182 -1,216 23.2568,60.9963 -34.179,78.8592 -11,98 -64.9515,93.9973 -49.123,-88.408 -25,-56 -82.8848,-222.9614 -295.8904,-108.8559 -169,-12 -136.7482,78.8686 -106.7204,34.8557 0.25,41.25 98.6875,103.4741 -124.0426,171.1012 -56.125,85.5 -25.7246,-15.8523 -68.1816,273.96 -71.125,179.25 18.6962,47.0276 39.3183,208.6652 -15,184 4.6309,53.2175 14.0432,188.3919 12,160 4.7544,41.2724 -9.947,181.9475 -2,134 -27.6337,90.0512 -64.5359,297.0969 -24.25,195.625 30.0293,121.152 199.9526,-23.2118 114.5824,24.8927 -101.8366,48.7586 107.0518,4.1693 118.6676,-16.5177 94.217,33.4775 269.5595,-62.9239 149,-18 95.7441,-51.0197 184.5802,-117.0578 146.375,-83.75 -18.403,80.131 289.5717,-241.8541 206.625,-138.25 40.6114,30.0972 163.5874,-104.381 140.875,-93.125 119.0491,-43.2799 243.9205,-129.7792 151.375,-71.75 -2.1426,-27.6051 375.6941,-162.0916 289.75,-130.125 64.6807,-2.3238 290.5019,14.0872 220,-16 24.6677,-21.557 209.7212,86.844 135,33 44.976,-14.5297 134.2241,44.7757 163,49 -4.6508,-48.5473 148.6596,-25.1697 134.4697,27.1784 11.4451,71.4634 206.4912,105.0345 128.5303,68.8216 62.7976,65.8888 251.1321,178.3114 167,105 34.9917,33.399 212.3498,202.6359 144,134 41.4524,32.7165 149.6894,178.4667 121,110 35.8123,120.0708 153.8087,275.6232 118.375,192.625 80.5637,60.9106 150.4349,346.7929 107.625,248.375 30.7116,133.3941 52.7567,355.8868 47.7344,241.6406 -42.6042,83.0712 -61.0026,317.0529 -37.1094,246.4844 41.2339,24.4969 32.1833,157.6089 2.375,131.875 -7.0797,66.9075 -18.0672,162.9431 -37,135 -1.8854,78.4161 -44.3841,273.2968 -43,206 -5.1639,168.7693 -62.8773,161.087 -9,206.125 -18.5584,100.8486 -0.037,297.2448 -6,241.875 -22.5002,144.0291 -80.6674,475.1417 -54,353 -56.7971,163.2399 -68.3272,243.1675 -121,431 -53.3246,123.4365 -168.548,201.3546 -127,158 0.1646,20.4909 -107.1578,149.0956 -103.625,103 -60.0688,35.8937 -156.2408,109.2345 -123.375,62 -34.7338,50.1256 -180.9888,103.1186 -164.625,72 -81.5041,43.8365 -272.5179,119.7976 -169.5312,79.4375 -130.9883,39.239 -232.9722,43.7672 -155.3438,34.6875 21.3374,-46.9225 -86.4334,-55.5222 -93.5,-10.125 14.4206,47.1019 -396.0265,-12.4267 -219,23 -127.5061,-99.7913 -327.0843,-159.5472 -197,-90 -20.6129,-23.9869 -173.9602,-200.1179 -118,-135 -33.1331,-93.4177 -101.2274,-228.4063 -85,-155 -25.0831,-59.5635 14.2668,-319.5199 -12,-225 0.1957,-51.8435 -26.5306,-154.2032 -10,-119 3.3036,-71.4165 -31.9151,-192.518 -20,-166 2.024,-32.1795 -121.8616,-142.9111 -104,-161 -3.94,-50.7728 -169.0223,-170.3486 -71,-119 34.6341,-84.7378 -54.9371,-222.6039 -18.1719,-149.625 -49.3458,-33.8196 -31.774,-172.6531 -78.2849,-115.9497 -35.4868,-12.438 145.2862,-207.1381 3.4568,-156.4253 35.6678,-62.463 152.9629,-93.9451 113.75,-40.25 29.6886,28.6743 142.28,57.1813 123.25,12.25 112.5629,-20.4202 256.4017,49.865 200,53 51.1658,41.2908 126.8959,111.9546 90.125,98.75 -19.5446,20.3605 105.5373,166.0551 70.875,133.25 -2.1252,34.4501 59.4116,232.303 50,180 9.4242,71.9971 34.4125,303.5985 22,225 18.8019,69.4485 114.3235,133.987 64.5,150.625 -8.1801,76.6687 -23.0213,-47.6184 36.5,24.375 131.445,20.0399 61.9403,214.0523 45,164 -13.7626,14.4872 -60.1635,103.2169 2.5,111.75 -16.2733,76.6065 89.4841,24.8908 84.5,42.25 125.0022,-61.3699 -44.1881,-85.6918 129,-34 32.9457,-6.7137 72.7222,45.3492 128,-18 8.9421,98.241 67.0486,-115.5357 49,-80 42.1001,-104.4898 176.6846,-341.0852 119,-266 44.1069,-8.4118 22.8246,-257.5058 53,-198.5 -9.6707,-105.8498 74.7896,-334.6742 70,-213.5 -60.5051,-4.8992 190.1409,-486.3801 55,-261 28.3395,-69.0663 63.4042,-260.0722 47.25,-172.125 -27.5451,-107.332 165.3867,-357.689 129.75,-266.875 65.1478,-47.415 53.0502,-258.9786 56.625,-207.25 -83.5846,-11.2638 -103.6459,-116.6295 -84.625,-119.75 63.089,-65.8466 49.883,-334.065 49.625,-251.875 C 6548.5952,6424.4247 6524.6406,6258.6611 6522,6250 6496.0802,6138.6852 6442.3423,6142.4371 6465.875,6105.125 6401.7223,6045.48 6285.4579,5975.4383 6323,6003 c -94.9308,-80.897 -92.1503,-55.1156 -142,-79 65.4034,96.5637 -106.6205,7.6033 -98,-47 33.4277,-17.2362 -204.0027,-175.4976 -122.5,-98.5 12.3389,-30.4 -100.8355,21.0025 -93.5,-4.5 -47.7547,-41.0926 -196.6551,-73.6771 -132,-45 -72.0921,11.976 -50.9379,-73.1457 -169,13 6.9251,-72.2034 -134.83,-15.132 -122,-7 -45.2173,19.8347 -123.7194,46.6546 -138,67 -44.8493,3.9641 -183.6909,48.7361 -122,43 -15.1815,24.4767 -221.2839,106.6696 -137,70 -56.1202,35.8875 -179.5769,-23.8756 -162,39 11.0668,-70.8644 -348.1603,501.7743 -186,106 -67.4826,94.8667 -283.7625,183.3108 -218.375,129.25 -96.6798,5.6372 -153.4011,55.6985 -116.625,37.75 -130.4595,86.0475 -93.5543,-82.7821 -168,82 19.8901,112.4119 49.5191,299.2478 9,231 -34.7743,71.9887 -52.6821,236.207 -22,154 -17.7181,93.437 -77.079,277.562 -29,182 -2.8864,30.6773 63.6454,130.8146 25.125,125.375 -16.3546,72.3805 14.9686,364.4284 -18.125,253.625 -47.144,-64.7475 117.7317,711.6108 7.25,225.375 -22.7589,44.3606 -30.3508,272.9157 -12.25,191.625 3.5293,62.0805 -19.3608,212.7729 0.75,163.5 10.3149,67.9204 2.4414,153.0819 4.25,133.5 5.0448,71.904 30.4201,185.045 9,134 -19.6026,69.4278 -16.291,225.4253 -9,237 -7.0008,77.6436 -22.3804,314.9195 -10.25,257.875 -42.9249,-92.405 242.7155,889.23 35.125,179.125 -38.7245,11.438 -32.7031,360.0087 -0.875,261 -23.3374,165.0548 -76.0492,223.5751 -63.875,194 5.9002,73.7148 -134.0999,250.2206 -92.125,195 -24.5946,89.8544 -32.3632,-259.8108 -100,-146 -48.0933,168.4444 -73.7236,-7.039 -49,24 126.7984,-78.1569 106.4626,-207.6099 70,-126 57.8759,6.9034 47.6921,-180.8148 74.875,-107.875 C 3888.0139,9218.972 3848.7314,9466.0575 3855,9389 c 50.8906,35.3664 19.1392,196.0989 6,141 -25.7042,175.8131 -154.0749,289.2972 -123,253 -73.0759,31.1768 -272.4886,135.2121 -168,59 l -10.125,7.375 z M 5201,7885 c 74.1425,-64.7091 -84.87,-201.5211 -92,-111 -9.7379,-137.3255 -110.5377,24.6859 -110,10 83.46,15.3329 197.232,3.1726 109.5,37.25 -57.9232,66.2924 36.7012,23.9045 92.5,63.75 z M 4374,4988 c 97.9752,-103.4847 87.5578,-121.6594 51,-155 -5.2834,-29.3725 -136.4258,53.7249 -95,-73 64.8733,44.3337 52.5323,229.7333 40,150 94.6619,-63.3534 -80.8806,175.0684 15,24 -33.284,-44.0984 -31.7953,145.2834 -11,54 z m 24,-501 c -20.6978,-165.0235 -30.0695,-336.2879 37,-228 38.6948,-92.4566 24.3956,-155.3784 11.625,-125.125 -87.5376,-8.1622 -189.0192,-184.1923 -62.625,-136.875 -17.6212,141.8328 -199.3654,73.9979 -45,209 -3.4712,106.4901 123.7133,213.456 13.625,201.625 133.7948,13.244 -38.1129,55.6982 45.375,79.375 z"
       id="path4" />
    <path
       d="m 4385,4400 c -69.4801,-14.0529 0.9101,-231.9596 -22,-196 74.9081,97.842 -33.5257,-159.9021 40,12 -23.001,-188.7579 85.7371,185.7517 -20,56 64.997,54.6094 2.2714,110.0006 2,128 z"
       id="path6" />
    <path
       d="m 4533,5314 c -62.7128,-88.996 43.9742,-187.4337 -71,-177 4.6693,51.7147 16.0076,-67.2812 36,43 65.6979,35.2965 105.6364,-73.9463 8,-85 -40.0933,-148.7753 107.3598,-50.4478 64,47 42.799,62.8337 -25.3131,154.95 -29,151 51.431,14.1226 38.9316,19.1614 -8,21 z"
       id="path8" />
  </g>
</svg>
