<?xml version="1.0" standalone="no"?>
<!DOCTYPE svg PUBLIC "-//W3C//DTD SVG 20010904//EN"
 "http://www.w3.org/TR/2001/REC-SVG-20010904/DTD/svg10.dtd">
<svg version="1.0" xmlns="http://www.w3.org/2000/svg"
 width="1024.000000pt" height="1024.000000pt" viewBox="0 0 1024.000000 1024.000000"
 preserveAspectRatio="xMidYMid meet">
<metadata>
Created by potrace 1.16, written by Peter Selinger 2001-2019
</metadata>
<g transform="translate(0.000000,1024.000000) scale(0.100000,-0.100000)"
fill="#000000" stroke="none">
<path d="M3640 9600 c0 -5 -9 -10 -20 -10 -12 0 -24 -10 -30 -24 -6 -18 -15
-23 -35 -21 -16 2 -25 -1 -22 -8 2 -7 13 -10 23 -9 10 2 17 2 14 0 -3 -2 -14
-10 -24 -18 -13 -10 -17 -10 -12 -2 10 17 -2 15 -20 -3 -14 -13 -14 -15 0 -15
9 0 16 -3 17 -7 8 -70 7 -74 -14 -82 -12 -5 -26 -6 -31 -3 -5 3 -6 0 -2 -6 3
-6 16 -9 28 -7 11 3 17 1 14 -3 -4 -4 -12 -8 -17 -8 -22 -3 -23 -5 -9 -14 13
-8 13 -10 -2 -10 -9 0 -20 -5 -24 -12 -4 -7 -3 -8 4 -4 7 4 12 1 12 -8 0 -9
-4 -16 -10 -16 -5 0 -10 -5 -10 -11 0 -5 5 -7 11 -3 8 5 9 2 1 -11 -7 -14 -6
-22 4 -32 7 -8 10 -21 7 -30 -5 -13 -2 -15 11 -10 11 4 15 3 11 -4 -4 -5 2
-18 14 -28 11 -10 17 -21 14 -25 -4 -4 0 -4 10 0 11 4 19 0 23 -10 3 -9 10
-14 14 -11 5 3 12 0 16 -6 4 -7 3 -9 -4 -5 -6 3 -14 2 -17 -4 -4 -6 -3 -10 2
-9 22 4 34 -2 27 -13 -5 -8 0 -7 11 2 11 9 16 10 11 3 -4 -8 -2 -13 4 -13 6 0
8 -4 5 -10 -3 -5 1 -10 9 -10 9 0 16 -4 16 -10 0 -5 7 -10 16 -10 8 0 12 -4 9
-10 -3 -5 -1 -10 5 -10 6 0 9 -4 6 -8 -2 -4 5 -14 17 -22 20 -12 21 -12 8 4
-8 9 -11 19 -9 22 3 3 12 -9 19 -25 8 -17 20 -31 27 -31 7 0 15 -7 19 -16 3
-8 12 -13 19 -10 8 3 11 0 7 -10 -3 -7 -10 -14 -16 -14 -6 0 -7 -3 -4 -6 4 -4
13 -1 21 6 13 10 15 7 11 -18 -2 -23 0 -29 11 -25 13 5 18 -7 15 -34 -1 -8 8
-10 26 -7 26 5 27 4 9 -9 -17 -13 -17 -14 -2 -20 10 -4 15 -11 12 -15 -3 -5 1
-9 9 -9 12 0 12 4 -2 19 -15 17 -15 18 0 13 9 -4 19 -15 22 -26 4 -10 11 -20
16 -20 5 -1 13 -2 18 -3 5 0 13 -5 18 -9 4 -5 2 -7 -6 -5 -19 4 -26 -29 -11
-47 7 -8 21 -15 32 -15 18 0 19 -2 7 -17 -13 -15 -12 -15 8 -5 12 7 28 12 35
11 7 0 3 -4 -9 -9 -13 -5 -23 -17 -22 -27 0 -16 1 -16 8 1 5 14 10 16 15 8 4
-7 12 -9 18 -6 7 4 8 2 4 -5 -11 -17 2 -48 19 -48 8 0 15 5 15 11 0 6 7 0 16
-12 15 -21 34 -22 34 -1 0 6 -4 8 -9 4 -5 -3 -12 -1 -15 4 -4 5 1 8 9 7 21 -3
28 -13 19 -28 -12 -19 -15 -50 -5 -43 6 3 15 -3 20 -14 8 -14 8 -21 -2 -24 -6
-3 -1 -5 13 -4 14 0 32 5 40 11 13 10 13 9 2 -6 -8 -10 -10 -23 -6 -30 6 -11
5 -11 -8 0 -13 11 -18 11 -24 0 -4 -7 -4 -10 1 -6 9 9 47 -31 40 -42 -6 -9 23
-22 34 -16 4 3 7 -6 7 -19 0 -17 -5 -22 -19 -19 -11 2 -16 0 -13 -4 4 -4 12
-8 17 -8 5 -1 10 -2 12 -4 9 -7 36 -6 31 1 -3 5 -10 7 -15 4 -5 -4 -6 2 -2 11
4 11 8 13 11 6 2 -7 8 -10 13 -6 5 3 8 0 7 -8 -2 -7 4 -12 12 -10 8 2 12 0 8
-3 -4 -4 -1 -20 7 -35 8 -15 11 -31 7 -35 -4 -5 -1 -5 6 -1 7 4 9 13 5 19 -4
7 4 5 17 -4 13 -9 25 -21 26 -28 1 -6 0 -7 -3 -1 -2 5 -10 7 -15 4 -7 -4 -8
-2 -4 4 4 7 3 12 -2 12 -6 0 -13 -7 -16 -16 -3 -8 -2 -13 2 -10 4 2 14 1 22
-4 8 -5 19 -5 26 1 8 6 14 4 18 -6 3 -9 2 -13 -3 -10 -5 3 -13 1 -16 -5 -4 -6
-1 -9 7 -8 7 2 12 -3 10 -10 -1 -8 2 -11 7 -8 5 3 11 -1 14 -9 4 -8 15 -12 26
-10 12 2 20 -1 18 -8 -1 -7 5 -11 13 -9 12 3 12 1 3 -9 -8 -8 -17 -9 -26 -3
-7 5 -6 2 3 -6 10 -9 20 -22 24 -30 3 -9 4 -5 2 8 -2 12 0 22 5 22 5 0 9 -6 9
-14 0 -8 6 -17 13 -19 10 -4 10 -6 0 -6 -18 -1 -16 -18 2 -18 8 0 15 5 15 10
0 6 3 7 6 4 4 -4 1 -14 -7 -24 -12 -15 -12 -16 3 -10 19 7 34 -8 18 -18 -5 -3
-10 -11 -10 -17 0 -6 6 -6 15 2 9 7 18 10 22 6 3 -3 1 -6 -6 -6 -7 0 -9 -5 -6
-10 4 -6 11 -7 17 -4 7 4 8 2 4 -4 -4 -7 -2 -12 3 -12 6 0 11 -5 11 -11 0 -5
-5 -7 -11 -4 -6 4 -5 -2 2 -13 7 -12 17 -18 22 -15 5 3 3 9 -4 14 -8 5 -9 9
-4 9 6 0 17 -5 25 -10 10 -6 11 -10 3 -10 -7 0 -13 -4 -13 -10 0 -5 6 -10 13
-10 6 0 21 -13 31 -28 l20 -27 -21 18 c-14 12 -23 15 -28 8 -3 -6 -1 -11 5
-11 6 0 8 -5 4 -12 -4 -6 -3 -8 3 -5 6 4 18 0 28 -7 14 -10 15 -15 5 -21 -9
-5 -11 -4 -6 3 4 7 3 12 -2 12 -6 0 -13 -7 -16 -16 -3 -8 -2 -13 2 -11 21 13
48 -12 46 -42 -1 -17 2 -34 7 -37 5 -3 7 -10 3 -15 -3 -5 0 -8 8 -7 7 2 12 -2
11 -9 -2 -7 7 -17 20 -23 21 -11 21 -10 3 4 -11 9 -15 16 -9 16 17 0 36 -27
24 -34 -15 -10 9 -58 25 -52 8 3 16 0 20 -6 4 -7 3 -8 -4 -4 -7 4 -12 1 -12
-9 0 -10 7 -15 18 -13 11 2 16 -3 14 -14 -1 -9 2 -19 7 -23 6 -3 7 -13 4 -22
-5 -12 -3 -14 8 -8 8 4 11 5 7 0 -4 -4 -3 -14 4 -22 9 -11 7 -12 -8 -7 -14 4
-16 3 -5 -4 8 -6 10 -15 5 -23 -6 -12 -5 -12 9 0 21 17 25 -7 5 -28 -7 -8 -8
-11 -3 -9 14 8 32 -14 29 -35 -1 -9 2 -15 7 -11 5 3 6 11 2 17 -4 7 1 6 10 -2
13 -10 15 -17 6 -27 -9 -11 -8 -14 5 -14 9 0 16 -5 16 -11 0 -5 -4 -7 -10 -4
-18 11 -11 -4 13 -26 16 -16 18 -20 5 -16 -15 5 -16 3 -6 -18 6 -14 18 -25 27
-25 14 0 14 -2 1 -10 -8 -5 -10 -10 -4 -10 7 0 14 -9 17 -20 3 -13 1 -18 -6
-14 -7 3 -1 -3 13 -14 14 -12 21 -24 17 -28 -4 -4 -7 -1 -7 6 0 7 -2 11 -5 8
-9 -9 7 -38 17 -32 7 4 9 -7 6 -30 -3 -25 0 -36 9 -36 13 0 15 -7 16 -47 0
-13 3 -23 6 -23 4 0 8 -12 9 -26 1 -15 10 -33 20 -40 14 -12 15 -13 1 -8 -10
3 -20 0 -25 -7 -4 -7 -3 -10 4 -5 6 3 16 -3 22 -15 10 -17 9 -20 -2 -14 -7 3
-5 0 5 -8 14 -11 15 -16 5 -20 -10 -4 -10 -6 0 -6 10 -1 10 -6 1 -23 -11 -20
-10 -21 3 -11 12 10 15 10 15 -2 0 -8 -5 -15 -11 -15 -6 0 -4 -5 4 -10 13 -9
13 -10 0 -10 -13 0 -13 -2 0 -9 8 -6 18 -7 24 -4 5 3 6 1 2 -6 -4 -6 -11 -9
-15 -7 -4 3 -7 -5 -6 -16 1 -12 7 -24 13 -26 7 -2 12 -8 12 -13 0 -6 -6 -7
-12 -3 -7 4 -5 -2 5 -13 14 -16 15 -23 6 -29 -8 -5 -10 -3 -4 6 5 9 4 11 -3 6
-9 -5 -9 -13 -2 -27 6 -11 15 -17 19 -15 5 3 7 -10 5 -29 -1 -19 2 -35 7 -35
6 0 7 -6 3 -12 -12 -19 -12 -48 -1 -41 6 4 8 -1 4 -12 -4 -9 -2 -24 4 -31 9
-11 7 -14 -7 -15 -18 0 -18 -1 1 -9 l20 -9 -20 0 c-12 -1 -16 -4 -10 -9 12 -8
18 -55 6 -48 -9 6 -7 -46 3 -62 4 -7 2 -12 -6 -12 -9 0 -10 -3 -2 -8 6 -4 10
-22 9 -39 -1 -18 1 -31 5 -28 5 3 6 -4 3 -15 -3 -11 -1 -20 4 -20 5 0 10 -7
10 -15 0 -11 -4 -12 -13 -4 -9 8 -11 5 -7 -10 3 -12 10 -18 16 -14 6 3 7 1 3
-5 -12 -20 -13 -83 -2 -79 6 3 11 -8 12 -24 1 -16 -3 -29 -8 -29 -4 0 -2 -16
6 -35 13 -30 13 -37 1 -49 -13 -12 -12 -15 1 -20 8 -3 12 -10 9 -16 -4 -6 -12
-7 -18 -4 -7 4 -2 -3 11 -15 25 -24 30 -40 7 -21 -13 11 -14 10 -9 -4 3 -9 11
-16 17 -16 6 0 2 -7 -9 -16 -10 -8 -14 -13 -7 -10 6 4 14 2 18 -4 3 -5 -1 -10
-11 -10 -13 0 -11 -4 7 -20 13 -10 19 -19 13 -20 -5 0 -16 6 -24 13 -12 10
-12 9 -1 -5 7 -9 10 -22 7 -27 -4 -5 -2 -12 2 -15 5 -3 8 -17 7 -31 -2 -14 1
-25 7 -25 6 0 3 -11 -6 -24 -15 -24 -15 -25 5 -21 20 4 20 3 5 -20 -11 -17
-13 -25 -5 -25 7 0 9 -3 6 -7 -4 -3 -1 -13 6 -21 10 -13 9 -14 -2 -7 -11 6
-13 4 -8 -7 3 -9 3 -19 -1 -22 -10 -10 -11 -37 -1 -30 5 3 9 0 9 -5 0 -6 -5
-11 -12 -11 -6 0 -4 -6 6 -13 15 -11 16 -16 5 -28 -16 -17 -24 -43 -10 -35 15
10 21 -22 6 -34 -8 -7 -12 -16 -9 -21 3 -5 1 -9 -5 -9 -6 0 -8 -8 -5 -17 3
-10 -2 -7 -11 7 -9 14 -14 17 -11 8 3 -10 1 -18 -5 -18 -6 0 -8 -4 -5 -9 4 -5
-2 -7 -13 -4 -13 3 -24 -5 -39 -29 -12 -18 -22 -28 -22 -23 0 6 6 17 13 24 10
11 8 11 -10 2 -30 -15 -38 -14 -23 4 11 13 10 14 -5 9 -13 -5 -16 -4 -11 4 12
19 -3 14 -27 -9 -12 -12 -16 -18 -8 -14 10 6 12 4 7 -4 -6 -9 -11 -9 -21 -1
-10 8 -14 7 -17 -2 -3 -7 2 -19 11 -26 13 -10 11 -10 -11 -1 -15 7 -25 16 -21
22 3 6 1 7 -6 3 -9 -6 -9 -11 0 -22 10 -12 10 -15 -2 -12 -8 2 -17 8 -21 13
-5 6 -8 5 -8 -2 0 -7 -5 -13 -11 -13 -5 0 -8 4 -5 8 3 5 -2 9 -10 9 -10 0 -11
-4 -4 -11 15 -15 12 -29 -5 -22 -9 3 -15 0 -15 -9 0 -8 -5 -15 -11 -15 -5 0
-7 5 -3 12 5 7 3 8 -5 4 -7 -5 -10 -15 -6 -23 5 -14 3 -14 -12 -2 -15 12 -16
12 -10 -5 7 -17 6 -17 -10 -5 -15 12 -16 12 -10 -3 6 -18 -2 -23 -32 -18 -9 1
-12 -4 -7 -16 5 -14 4 -15 -9 -4 -14 12 -20 7 -16 -14 1 -5 -5 -3 -14 4 -13
11 -15 10 -9 -4 4 -9 3 -16 -2 -14 -14 4 -55 -28 -46 -36 4 -4 3 -7 -3 -5 -15
3 -46 -12 -67 -33 -14 -14 -23 -16 -38 -8 -16 8 -22 6 -32 -10 -7 -11 -17 -20
-23 -20 -6 0 -23 -16 -39 -35 -22 -26 -33 -32 -42 -24 -8 7 -14 6 -20 -2 -5
-8 -3 -10 7 -4 12 7 12 5 1 -6 -11 -12 -14 -12 -21 0 -5 7 -10 9 -12 5 -5 -11
-81 -48 -91 -46 -5 1 -8 -6 -8 -16 0 -14 -2 -15 -10 -2 -9 14 -15 7 -11 -14 1
-5 -5 -4 -13 3 -12 10 -18 8 -31 -12 -16 -25 -29 -28 -53 -13 -7 4 -12 4 -11
-1 4 -20 -2 -33 -15 -33 -8 0 -17 -6 -19 -12 -4 -10 -6 -10 -6 0 -1 7 -6 10
-11 7 -8 -5 -8 -11 -1 -19 12 -14 -15 -16 -36 -3 -7 5 -19 -2 -29 -18 -12 -18
-20 -23 -32 -16 -11 6 -26 4 -44 -5 -15 -8 -28 -11 -28 -7 0 13 -58 12 -63 -2
-3 -6 1 -12 9 -12 7 0 11 4 9 8 -3 4 2 6 10 5 29 -4 20 -19 -12 -22 -18 -1
-33 1 -33 6 0 4 -7 11 -16 14 -14 6 -15 4 -4 -9 11 -13 11 -16 -1 -13 -8 2
-19 12 -26 23 -7 11 -12 14 -13 8 0 -7 -9 -13 -19 -13 -11 0 -21 -3 -24 -7 -2
-5 -2 -3 -1 4 3 13 -27 27 -35 16 -9 -12 -44 -16 -37 -5 3 5 -6 10 -20 10 -15
0 -30 6 -35 13 -6 10 -9 11 -9 2 0 -7 -5 -13 -11 -13 -5 0 -7 5 -4 10 9 14 -8
12 -24 -3 -11 -9 -13 -9 -7 1 4 7 1 12 -8 13 -9 1 -24 2 -34 3 -11 0 -26 7
-34 13 -11 10 -17 10 -26 1 -9 -9 -12 -7 -12 10 0 15 -8 24 -25 28 -14 3 -22
11 -18 17 3 6 1 7 -6 3 -6 -4 -9 -12 -5 -17 3 -6 -3 -5 -14 2 -12 7 -19 16
-17 19 2 3 -1 12 -7 20 -8 12 -9 12 -4 -2 3 -12 0 -18 -10 -18 -11 0 -14 6 -9
23 5 20 5 20 -10 -3 -12 -19 -15 -21 -11 -5 6 22 -2 39 -22 43 -8 1 -11 -2 -6
-9 4 -7 2 -10 -7 -7 -8 3 -13 11 -12 17 2 6 -2 11 -7 11 -6 0 -10 -6 -9 -12 3
-24 -1 -38 -11 -38 -5 0 -9 6 -7 13 1 6 -4 11 -11 9 -8 -1 -11 2 -7 8 3 6 11
8 16 5 5 -3 6 1 3 9 -3 9 -10 16 -16 16 -5 0 -6 -5 -2 -11 4 -7 1 -10 -7 -7
-8 3 -13 11 -11 17 1 7 -2 10 -7 6 -15 -9 -73 24 -65 37 4 7 3 8 -4 4 -7 -4
-12 -4 -12 1 0 8 -47 33 -63 33 -4 0 -5 -4 -2 -10 3 -5 1 -10 -5 -10 -7 0 -10
6 -7 14 7 17 -11 36 -28 30 -6 -3 -12 2 -12 10 0 11 5 13 19 5 11 -6 18 -6 18
0 0 5 -7 12 -16 15 -8 3 -12 10 -9 16 3 5 1 10 -4 10 -6 0 -11 -4 -11 -10 0
-5 -5 -10 -10 -10 -7 0 -7 8 1 23 9 18 9 20 -2 9 -18 -16 -34 -15 -20 2 9 10
8 16 -4 26 -8 7 -12 16 -9 21 3 5 0 8 -8 7 -7 -2 -12 4 -10 14 2 13 -4 16 -30
13 -18 -2 -27 -1 -20 2 10 4 9 9 -5 20 -17 13 -16 13 4 4 21 -11 43 2 29 16
-3 4 -6 1 -6 -6 0 -7 -5 -9 -10 -6 -6 4 -7 11 -4 17 4 7 2 8 -4 4 -6 -4 -11 1
-11 11 -1 38 -5 52 -12 48 -4 -3 -9 2 -13 10 -3 9 -12 12 -22 8 -13 -5 -11 0
6 17 22 22 22 24 5 36 -10 7 -22 11 -26 8 -5 -3 -6 2 -3 10 5 14 8 14 21 0 9
-8 18 -12 22 -8 3 4 0 9 -6 11 -7 3 -13 9 -13 14 0 6 5 7 12 3 7 -4 8 -3 4 4
-4 6 -13 9 -21 5 -8 -3 -15 0 -15 6 0 6 4 11 8 11 5 0 9 7 9 15 0 9 -6 14 -14
11 -7 -3 -13 -1 -13 4 0 6 8 10 18 10 15 0 15 2 2 11 -13 9 -13 11 -1 16 10 4
8 9 -10 20 -13 7 -17 12 -9 11 9 -2 15 1 15 7 0 5 -3 9 -6 8 -3 -1 -4 15 -2
35 2 29 1 34 -8 22 -9 -13 -10 -13 -6 0 2 8 12 14 22 13 12 -1 14 2 6 10 -7 7
-18 7 -38 -1 -26 -11 -27 -11 -9 3 11 8 25 15 30 16 6 0 2 4 -8 8 -11 4 -20
15 -22 24 -1 10 2 15 7 11 5 -3 7 -9 5 -13 -3 -4 1 -8 7 -8 14 0 17 40 5 53
-4 4 -3 13 3 21 14 16 5 17 -24 2 -21 -10 -21 -10 -3 5 11 9 24 16 30 16 5 0
1 7 -10 15 -18 14 -18 15 0 9 17 -6 17 -5 6 17 -12 21 -11 22 1 12 17 -14 21
31 5 56 -6 9 -5 12 2 7 6 -3 13 -2 17 4 3 5 1 10 -5 10 -6 0 -10 8 -9 18 3 31
-1 43 -11 37 -16 -10 -11 1 7 16 11 10 14 10 9 2 -4 -8 -2 -13 4 -13 14 0 8
25 -6 25 -5 1 -19 6 -30 13 -12 6 -25 8 -30 4 -5 -4 -2 1 5 11 8 9 11 20 7 24
-3 3 -6 1 -6 -5 0 -7 -8 -12 -17 -12 -15 0 -16 2 -3 10 12 7 12 10 1 10 -7 0
-11 6 -8 14 3 8 -5 22 -18 32 l-25 18 23 13 c12 7 31 10 42 7 18 -4 18 -4 2 6
-9 6 -21 9 -25 6 -4 -2 -16 2 -27 10 -11 8 -14 14 -6 14 11 0 11 3 1 15 -8 9
-8 15 -2 15 6 0 12 -5 14 -12 3 -8 7 -9 11 -2 3 6 -4 22 -16 34 -16 18 -17 22
-4 17 9 -3 19 -2 22 3 5 9 -6 14 -26 12 -3 -1 -6 5 -6 13 0 8 3 14 6 13 20 -2
31 3 26 12 -3 5 -13 6 -23 3 -13 -4 -13 -2 3 11 14 11 15 14 4 10 -23 -7 -32
22 -11 38 13 11 14 11 7 -1 -6 -10 -4 -12 4 -6 9 5 10 10 2 18 -7 7 -14 7 -23
-1 -10 -8 -18 -8 -28 0 -12 8 -12 9 2 4 14 -4 17 0 14 17 -4 27 11 60 25 52 5
-4 9 -12 9 -18 0 -7 -4 -6 -11 3 -9 13 -10 13 -6 -1 3 -9 0 -22 -6 -28 -8 -8
-5 -9 11 -6 12 2 22 -1 22 -7 0 -16 43 16 46 35 2 13 -1 14 -17 4 -13 -8 -15
-14 -6 -20 8 -5 5 -7 -8 -4 -11 2 -19 9 -17 15 1 7 -3 23 -9 34 -12 22 -12 22
-36 -8 -17 -20 -21 -22 -14 -7 6 12 16 25 21 28 7 4 6 14 -1 28 -7 12 -8 19
-4 15 5 -4 14 -3 22 3 8 8 13 8 13 1 0 -6 -6 -12 -12 -15 -10 -3 -10 -7 1 -20
13 -17 31 -14 31 4 0 6 -5 7 -12 3 -7 -4 -8 -3 -4 4 4 6 13 9 21 5 20 -7 19 2
-2 23 -17 17 -17 18 1 11 15 -6 17 -4 11 10 -14 33 -13 62 1 67 7 3 11 12 8
19 -6 16 24 52 35 42 3 -4 -2 -11 -12 -16 -9 -6 -17 -15 -17 -21 0 -7 4 -7 13
0 10 8 16 6 25 -9 7 -11 8 -19 2 -19 -5 0 -10 5 -10 10 0 6 -4 10 -10 10 -5 0
-8 -10 -6 -22 2 -13 9 -22 15 -20 6 1 11 -2 11 -8 0 -5 -8 -10 -17 -11 -12 0
-13 -2 -5 -6 10 -4 9 -9 -5 -19 -17 -13 -17 -14 0 -8 10 4 17 1 17 -6 0 -6 -4
-9 -9 -5 -6 3 -9 -4 -8 -15 1 -11 6 -20 12 -20 5 0 3 -4 -5 -10 -9 -6 -20 -5
-29 3 -12 10 -13 9 -6 -2 6 -10 4 -12 -5 -6 -9 6 -11 4 -5 -5 6 -9 4 -11 -6
-5 -12 7 -12 5 -1 -6 8 -9 15 -10 20 -4 4 6 18 11 32 12 20 2 21 1 7 -5 -22
-9 -24 -22 -5 -33 10 -7 10 -9 -2 -10 -10 0 -8 -3 5 -9 16 -7 17 -9 3 -9 -9
-1 -22 -9 -27 -18 -6 -10 -11 -12 -11 -5 0 6 -4 12 -10 12 -16 0 -5 -42 15
-56 10 -7 22 -11 28 -7 6 3 7 1 3 -6 -4 -6 -10 -9 -14 -7 -8 4 -42 -18 -45
-29 -1 -3 6 -11 16 -17 18 -9 18 -10 0 -31 -16 -18 -16 -20 -1 -14 22 8 29 -2
17 -26 -12 -22 2 -37 35 -37 20 0 20 0 0 15 -16 13 -16 14 -1 9 12 -4 17 -1
17 11 0 9 4 13 10 10 6 -4 7 1 3 11 -5 13 -3 15 7 9 10 -6 10 -4 2 11 -8 14
-6 21 6 32 13 10 13 12 2 7 -8 -4 -4 3 10 15 20 18 21 21 6 18 -11 -1 -21 4
-23 12 -4 12 -3 12 5 1 7 -10 11 -10 17 -1 4 6 13 9 20 6 14 -5 15 11 1 33 -5
8 2 6 20 -5 l29 -18 -20 23 -20 24 25 -13 c20 -10 22 -10 13 0 -14 15 14 83
30 73 6 -4 7 -1 2 8 -14 21 -14 50 0 39 7 -6 11 -3 11 11 0 10 -4 19 -9 19 -4
0 -5 5 -1 12 10 16 12 58 2 52 -11 -7 -6 39 6 55 8 11 8 13 -1 7 -9 -5 -11 -2
-7 9 4 10 13 14 22 10 12 -4 11 -1 -3 15 -14 15 -15 21 -5 18 8 -2 14 2 15 9
0 6 3 15 7 19 4 4 3 13 -3 20 -7 8 -6 14 2 20 8 5 9 3 4 -6 -6 -9 -4 -11 4 -6
13 8 6 21 -10 21 -5 0 -9 5 -8 10 1 6 5 9 9 8 4 -1 11 4 14 13 3 8 2 13 -3 10
-5 -3 -12 1 -15 10 -4 10 -2 13 6 8 8 -5 9 -2 5 10 -4 10 -4 23 0 29 20 32 30
76 19 88 -8 8 -8 13 2 16 10 4 8 9 -5 19 -15 12 -15 13 -1 8 16 -6 20 17 5 32
-12 12 -8 26 6 18 9 -6 9 -4 0 7 -7 7 -13 24 -13 37 0 16 4 21 13 16 10 -6 10
-4 0 7 -19 19 -16 42 3 35 13 -5 14 -4 6 7 -9 10 -8 17 1 26 9 10 8 11 -8 6
-19 -6 -19 -6 -2 8 17 15 24 33 8 23 -5 -4 -7 15 -4 42 3 26 5 68 6 94 1 48
11 56 44 35 8 -5 10 1 8 18 -2 22 0 23 13 13 12 -10 14 -10 8 -1 -4 8 3 23 20
38 15 14 21 25 15 25 -7 0 -9 5 -6 10 4 6 12 7 18 4 7 -4 9 -4 5 1 -4 4 -2 15
5 23 8 11 8 13 0 9 -8 -5 -8 -1 0 17 7 13 15 22 19 20 5 -3 8 0 8 5 0 6 -5 11
-11 11 -7 0 0 11 15 25 14 13 26 29 26 35 0 6 5 8 10 5 6 -3 10 -1 10 4 0 6
-6 11 -12 12 -7 0 -3 4 10 9 12 5 22 15 22 22 0 9 -3 9 -10 -2 -8 -13 -10 -12
-10 3 0 9 4 17 10 17 5 0 6 8 3 17 -5 12 -2 15 9 11 16 -7 18 17 3 41 -5 10
-4 12 3 7 7 -4 12 -1 12 8 0 10 -6 13 -17 9 -10 -3 -15 -3 -12 1 11 12 59 17
59 6 0 -6 -6 -8 -12 -4 -7 4 -10 3 -5 -1 14 -16 45 -13 39 4 -4 12 0 11 18 -4
13 -11 20 -14 16 -7 -4 6 -3 12 3 12 5 0 18 3 28 7 16 6 17 5 3 -12 -9 -11
-10 -16 -2 -11 7 4 12 2 12 -5 0 -8 5 -7 17 2 14 12 16 12 8 0 -6 -11 -4 -13
7 -9 8 4 21 2 29 -2 8 -6 16 -4 21 3 6 9 8 8 8 -2 0 -11 4 -9 15 5 14 18 21
10 16 -19 -1 -5 3 -6 8 -2 7 4 7 15 1 30 -9 23 -8 24 10 13 18 -11 25 -28 21
-51 0 -4 2 -6 6 -6 22 4 25 -3 7 -16 -13 -11 -14 -14 -4 -13 9 2 15 -5 15 -17
0 -11 7 -26 15 -33 8 -8 9 -11 3 -7 -8 4 -13 0 -13 -9 0 -8 6 -17 13 -19 9 -4
9 -6 -1 -6 -8 -1 -10 -6 -6 -13 5 -8 0 -7 -11 2 -17 14 -18 14 -6 -7 10 -19 9
-23 -4 -23 -9 0 -13 -5 -10 -10 4 -6 11 -8 16 -5 5 3 6 -2 2 -11 -5 -13 -3
-15 7 -9 9 5 11 4 6 -4 -4 -6 0 -14 8 -17 9 -3 13 -11 10 -16 -4 -7 -10 -4
-16 6 -5 9 -14 16 -20 16 -7 0 -7 -4 1 -13 6 -8 7 -17 3 -21 -4 -4 -2 -7 3 -6
20 4 36 0 31 -8 -6 -10 30 -9 40 1 10 10 26 9 20 -1 -3 -5 1 -9 8 -9 8 0 12 6
9 14 -4 9 0 11 11 7 9 -3 13 -10 10 -15 -3 -5 1 -9 9 -9 7 0 14 -7 14 -15 0
-10 -6 -14 -16 -10 -10 3 -9 -1 4 -11 11 -8 19 -21 17 -29 -1 -7 2 -16 8 -20
7 -4 7 -13 -1 -27 -6 -11 -7 -18 -1 -14 5 3 9 -6 9 -22 0 -15 3 -37 7 -49 4
-15 3 -23 -3 -23 -6 0 -11 -5 -11 -11 0 -5 4 -8 9 -5 4 3 8 -24 7 -59 -1 -50
-4 -65 -16 -65 -12 0 -13 -2 -1 -9 8 -5 10 -14 6 -21 -6 -9 -4 -11 5 -5 10 6
12 3 8 -13 -4 -15 0 -23 14 -27 14 -5 16 -10 9 -19 -8 -9 -5 -19 9 -34 14 -14
16 -22 7 -25 -7 -3 -4 -6 7 -6 13 -1 17 -6 13 -21 -3 -11 -1 -20 4 -20 5 0 9
-7 9 -16 0 -10 6 -14 15 -10 8 3 14 2 14 -2 -1 -4 0 -10 1 -14 4 -13 7 -28 9
-39 0 -6 8 -9 16 -6 17 7 30 -9 15 -18 -6 -4 -5 -11 3 -19 6 -8 15 -12 19 -9
4 2 5 -4 1 -13 -4 -11 -2 -15 4 -11 6 4 13 -3 16 -14 3 -12 10 -18 17 -14 6 4
9 1 8 -7 -2 -7 3 -12 11 -10 8 2 11 -3 8 -12 -3 -8 1 -17 9 -20 9 -3 12 -11 8
-17 -4 -8 -3 -9 5 -5 6 4 9 12 6 17 -4 5 -2 9 4 9 5 0 15 -8 20 -17 10 -17 10
-17 11 0 0 9 5 17 11 17 5 0 8 -4 4 -9 -3 -5 0 -13 6 -17 6 -3 15 -1 19 6 5 8
9 7 14 -5 4 -11 12 -15 22 -11 12 4 15 2 10 -9 -4 -13 -2 -14 14 -5 18 10 30
-2 13 -13 -5 -2 -3 -2 4 -1 6 2 14 -2 17 -9 3 -7 3 -1 0 13 -6 24 -6 25 10 5
13 -17 17 -18 26 -5 8 12 10 12 10 1 0 -8 7 -11 20 -8 11 3 18 2 15 -3 -3 -4
2 -13 10 -20 13 -11 14 -10 8 6 -6 16 -5 17 9 6 13 -10 18 -10 24 -1 4 8 3 9
-4 5 -7 -4 -12 -5 -12 -2 0 13 39 26 46 14 4 -7 3 -8 -4 -4 -7 4 -12 1 -12
-10 0 -13 3 -14 14 -5 9 7 17 8 20 2 7 -10 31 -9 42 2 4 3 -3 4 -15 2 -12 -2
-19 0 -16 6 4 5 11 7 16 4 5 -4 9 0 9 7 1 7 7 2 14 -11 11 -20 14 -21 19 -7 5
12 3 15 -6 10 -8 -5 -7 -2 2 9 14 18 23 22 19 10 -2 -5 2 -8 7 -8 6 0 9 4 7 8
-1 5 2 6 7 2 6 -3 8 -13 5 -23 -3 -9 1 -6 9 8 9 14 13 29 10 34 -4 5 -1 6 6 2
6 -4 8 -12 5 -18 -4 -5 4 -4 17 3 23 12 27 14 47 18 4 1 0 6 -8 12 -12 9 -10
10 8 6 19 -5 21 -3 11 9 -6 7 -16 11 -22 7 -6 -3 -7 -1 -3 5 4 6 12 10 19 8 7
-1 9 -1 4 1 -4 3 -4 9 -1 15 4 5 -4 4 -17 -2 -20 -10 -22 -10 -11 1 6 7 12 20
12 28 0 10 -8 4 -20 -14 l-21 -30 7 29 c4 16 3 27 -2 24 -5 -3 -15 1 -23 9
-12 13 -11 14 8 8 12 -4 21 -2 21 4 0 6 -3 10 -7 10 -25 -4 -36 3 -18 11 18 8
18 9 2 9 -12 1 -15 5 -10 14 11 17 11 57 0 50 -6 -4 -8 6 -5 21 4 19 1 29 -9
33 -8 3 -12 13 -9 22 4 11 1 10 -10 -4 -16 -20 -16 -20 -10 1 4 14 1 28 -9 38
-9 9 -12 16 -6 16 5 0 15 -8 20 -17 6 -10 11 -13 11 -7 0 12 -65 74 -77 74 -5
-1 3 -10 16 -20 13 -11 19 -20 14 -20 -6 0 -18 9 -28 20 -10 11 -22 17 -27 14
-6 -4 -5 -10 3 -15 11 -7 11 -9 1 -9 -7 0 -10 -5 -6 -12 5 -7 3 -8 -5 -4 -7 5
-10 10 -7 14 3 3 -2 11 -12 19 -14 10 -14 12 -1 8 11 -4 15 0 14 12 -1 25 -15
44 -25 38 -5 -3 -11 -1 -14 4 -7 10 20 9 30 -2 4 -4 12 -7 18 -7 6 0 0 7 -12
16 -12 8 -22 24 -22 35 0 10 -4 19 -8 19 -19 0 -53 38 -40 43 12 5 -16 11 -35
8 -5 -1 -6 3 -2 9 3 6 10 8 14 6 4 -3 8 1 8 8 0 8 -8 12 -21 9 -17 -4 -18 -3
-6 6 13 9 12 11 -3 11 -11 0 -15 5 -11 11 4 7 1 10 -7 7 -8 -3 -13 -11 -11
-17 1 -6 -2 -11 -7 -11 -6 0 -9 9 -8 19 0 11 4 18 8 15 4 -2 9 3 13 11 3 8 1
17 -5 20 -5 4 -7 11 -4 16 3 5 -1 6 -9 3 -11 -4 -13 0 -9 15 3 11 10 18 16 14
6 -3 7 -1 3 5 -4 6 -14 8 -23 5 -10 -4 -14 -2 -10 4 4 6 4 13 0 16 -5 2 -2 2
5 1 6 -2 12 1 12 6 0 6 -4 10 -10 10 -5 0 -10 9 -10 21 0 12 -4 17 -11 13 -8
-4 -8 0 0 15 9 16 9 21 -1 21 -6 0 -3 7 8 15 16 13 17 14 1 9 -10 -4 -17 -3
-16 2 6 36 -2 94 -13 88 -10 -6 -10 -4 0 8 11 14 10 18 -5 27 -11 6 -13 11 -5
11 7 0 10 5 6 12 -4 7 -3 8 5 4 6 -4 8 -12 5 -18 -4 -6 -3 -8 3 -5 5 3 8 20 5
38 -4 25 -2 30 9 24 11 -7 10 -4 -1 10 -9 11 -10 16 -2 11 6 -4 12 -3 12 3 0
5 -6 12 -12 14 -10 4 -9 8 2 16 8 6 10 11 4 11 -14 0 -14 33 0 42 7 5 4 8 -6
8 -12 0 -15 5 -11 17 5 12 3 14 -8 8 -12 -8 -12 -6 0 8 11 14 11 18 -4 23 -13
5 -14 9 -3 15 10 7 10 9 -2 9 -13 0 -13 1 0 10 13 8 12 10 -3 10 -10 0 -15 5
-12 10 3 6 0 10 -7 10 -9 0 -9 3 2 10 13 8 12 10 -2 10 -10 0 -18 7 -18 16 0
9 -5 12 -12 8 -10 -6 -10 -4 0 8 11 14 10 17 -7 23 -19 6 -26 17 -22 39 1 4
-6 15 -16 22 -17 13 -17 14 2 8 18 -5 18 -4 2 6 -9 6 -21 8 -27 5 -5 -3 -7 4
-5 15 2 11 1 18 -4 16 -4 -3 -13 4 -21 14 -8 10 -17 17 -22 14 -4 -3 -8 1 -8
8 0 7 -9 19 -21 26 -17 11 -20 11 -13 0 6 -10 5 -11 -8 -1 -8 7 -19 9 -24 5
-4 -4 -3 0 4 9 9 13 9 16 -3 16 -8 0 -15 -4 -15 -9 0 -5 -5 -6 -10 -3 -6 4 -8
10 -5 15 3 4 -3 14 -13 21 -15 13 -16 12 -3 -3 7 -10 10 -18 6 -18 -5 0 -17 8
-28 18 -11 9 -17 11 -13 5 4 -7 2 -13 -3 -13 -6 0 -11 7 -11 15 0 8 -5 15 -11
15 -5 0 -7 -5 -4 -11 4 -6 -2 -5 -13 2 -12 7 -19 16 -17 20 3 3 -10 6 -28 6
-20 -1 -31 4 -30 11 2 7 -2 12 -7 12 -6 0 -10 -7 -10 -15 0 -14 -3 -14 -24 0
-17 11 -26 13 -31 5 -5 -8 -11 -7 -23 2 -12 10 -14 10 -8 1 4 -8 1 -13 -9 -13
-9 0 -13 5 -9 11 3 6 -5 4 -19 -6 -17 -10 -27 -13 -32 -6 -4 8 -12 8 -24 1
-10 -5 -21 -6 -25 -2 -4 3 -11 0 -16 -8 -9 -13 -10 -13 -10 0 -1 12 -2 12 -10
-2 -8 -13 -17 -15 -40 -8 -21 6 -28 5 -24 -2 5 -7 0 -9 -13 -6 -17 4 -20 1
-17 -16 2 -11 2 -15 -2 -8 -3 6 -10 12 -15 12 -6 0 -7 -6 -3 -12 5 -8 0 -7
-11 2 -17 13 -18 13 -13 -1 4 -9 1 -16 -8 -16 -7 0 -10 5 -7 11 4 6 -1 5 -10
-3 -9 -7 -14 -18 -10 -24 3 -6 1 -7 -6 -3 -6 4 -9 12 -6 17 4 5 1 9 -4 9 -6 0
-11 -9 -11 -19 0 -11 -4 -23 -10 -26 -5 -3 -7 0 -4 8 3 8 -2 17 -10 20 -10 4
-13 1 -10 -8 4 -10 -1 -13 -23 -10 -15 2 -22 2 -15 -1 6 -3 12 -9 12 -13 0
-10 -31 -7 -50 4 -13 8 -13 6 -1 -8 7 -9 17 -15 21 -12 5 3 12 1 15 -5 4 -6 3
-10 -2 -9 -4 1 -19 1 -32 0 -21 -1 -22 -3 -10 -18 12 -16 12 -17 -2 -6 -12 10
-18 10 -29 0 -9 -8 -11 -9 -6 0 9 17 -11 26 -31 13 -16 -10 -15 -10 4 -5 18 5
20 2 16 -15 -4 -17 -8 -19 -14 -8 -8 11 -10 11 -18 -1 -6 -9 -11 -10 -15 -2
-9 13 -26 5 -26 -12 0 -7 4 -6 11 3 9 13 10 13 6 0 -2 -8 -10 -14 -16 -12 -7
1 -20 -2 -31 -8 -13 -7 -21 -7 -25 0 -10 16 -27 0 -20 -19 5 -12 3 -13 -5 -5
-16 16 -48 6 -61 -18 -5 -10 -14 -16 -20 -13 -5 4 -9 2 -9 -2 0 -5 -9 -14 -21
-21 -15 -10 -19 -10 -14 -1 5 8 4 10 -3 5 -7 -4 -12 -15 -12 -24 0 -10 -3 -13
-8 -7 -10 15 -38 12 -34 -4 2 -8 -3 -11 -12 -8 -11 4 -13 1 -9 -10 5 -12 3
-14 -7 -8 -10 6 -12 4 -7 -8 3 -9 -1 -18 -10 -21 -8 -4 -13 -13 -10 -20 9 -24
-19 -41 -32 -19 -6 11 -11 13 -12 6 -1 -7 -3 -17 -4 -23 -1 -5 -3 -16 -4 -22
-1 -10 -3 -10 -10 0 -6 10 -11 6 -19 -16 -6 -17 -7 -34 -4 -38 4 -4 2 -4 -4
-1 -7 4 -15 0 -18 -9 -3 -8 -2 -12 4 -9 6 4 5 -5 -2 -19 -6 -14 -18 -26 -27
-26 -14 0 -14 -2 -1 -10 10 -6 11 -10 3 -10 -7 0 -13 -9 -13 -20 0 -11 -5 -20
-11 -20 -5 0 -7 -5 -4 -10 4 -6 12 -8 18 -4 7 3 4 -1 -7 -10 -10 -8 -15 -19
-11 -25 3 -6 1 -11 -5 -11 -6 0 -9 -4 -5 -9 3 -5 -3 -12 -12 -14 -17 -4 -17
-5 0 -6 24 -1 21 -16 -5 -29 l-23 -11 23 0 c13 -1 20 -5 17 -11 -4 -6 -12 -7
-18 -3 -8 5 -8 2 0 -9 15 -17 5 -32 -11 -18 -8 6 -12 3 -13 -11 -1 -11 2 -17
6 -15 4 3 8 -1 8 -9 0 -8 -5 -11 -10 -8 -6 4 -8 -3 -5 -15 4 -14 2 -20 -5 -15
-7 4 -8 0 -4 -11 4 -9 3 -15 -1 -12 -4 3 -14 -4 -21 -16 -7 -11 -8 -17 -2 -14
5 4 12 2 16 -4 3 -5 0 -10 -7 -10 -9 0 -13 -10 -12 -29 1 -23 -2 -28 -13 -24
-13 5 -13 2 -4 -15 9 -16 8 -24 -3 -34 -11 -11 -11 -15 3 -26 9 -7 12 -12 6
-11 -22 3 -29 -2 -15 -11 13 -8 12 -10 -2 -10 -10 0 -18 -5 -18 -11 0 -5 5 -7
10 -4 17 10 11 -7 -7 -22 -17 -14 -17 -14 1 -8 19 6 19 5 1 -15 -11 -12 -13
-20 -6 -20 7 0 9 -5 6 -10 -4 -6 -10 -8 -14 -6 -4 3 -8 -1 -8 -9 0 -8 4 -12 9
-9 14 9 4 -40 -12 -54 -13 -12 -13 -13 4 -8 15 5 17 4 8 -7 -7 -8 -9 -17 -5
-20 3 -4 -2 -9 -11 -13 -14 -5 -14 -9 -4 -22 8 -10 8 -13 2 -9 -15 9 -28 -23
-15 -36 7 -7 7 -16 0 -29 -6 -12 -6 -18 1 -18 5 0 10 -5 10 -11 0 -5 -4 -8 -9
-5 -10 7 -9 -20 2 -30 15 -15 6 -26 -10 -13 -16 12 -17 12 -6 -2 7 -9 9 -20 5
-24 -4 -5 -1 -4 7 0 11 6 13 4 7 -11 -10 -23 -15 -84 -7 -84 3 0 7 -11 7 -26
2 -23 1 -24 -12 -7 -13 17 -14 17 -7 -2 3 -11 11 -26 17 -34 8 -11 8 -13 -1
-7 -7 4 -13 3 -13 -3 0 -5 6 -12 13 -14 9 -4 9 -6 0 -6 -7 -1 -13 -13 -13 -27
0 -17 -4 -23 -12 -18 -10 6 -10 5 -1 -7 10 -12 10 -18 0 -29 -9 -10 -9 -11 0
-6 9 5 11 2 7 -8 -3 -9 -9 -14 -14 -11 -4 2 -5 -7 -2 -20 2 -14 -2 -33 -9 -42
-12 -14 -12 -16 0 -8 11 6 13 4 8 -9 -4 -10 -7 -20 -7 -22 0 -3 -5 -2 -12 2
-7 5 -8 3 -2 -7 12 -20 14 -39 3 -39 -4 0 -5 -7 -2 -17 5 -12 3 -14 -8 -8 -12
8 -12 6 0 -8 11 -14 11 -20 0 -34 -12 -15 -12 -16 1 -8 12 7 13 6 3 -6 -6 -8
-10 -29 -9 -47 1 -17 -1 -32 -5 -32 -8 0 -3 -45 7 -61 4 -7 3 -9 -4 -5 -6 3
-13 2 -17 -4 -3 -5 -1 -10 5 -10 6 0 8 -5 5 -11 -11 -17 -13 -59 -3 -59 5 0 5
-8 1 -17 -13 -27 -10 -53 7 -63 8 -5 11 -10 5 -10 -5 0 -10 -11 -10 -24 0 -13
3 -22 7 -20 4 2 9 0 13 -6 3 -5 -1 -10 -9 -10 -9 0 -16 -4 -16 -10 0 -5 4 -9
9 -7 5 1 9 -2 9 -8 0 -5 -4 -9 -9 -8 -13 4 -11 -4 7 -21 8 -9 11 -16 6 -16 -6
0 -9 -13 -8 -30 1 -16 -3 -30 -8 -30 -6 0 -5 -4 2 -9 11 -7 10 -9 -3 -14 -12
-5 -14 -11 -5 -26 7 -14 7 -22 -1 -26 -7 -5 -5 -15 6 -31 14 -21 14 -24 0 -24
-8 0 -15 -4 -15 -10 0 -5 7 -7 15 -4 11 5 13 2 8 -12 -4 -12 -3 -15 6 -10 7 5
10 2 9 -6 -2 -7 3 -12 10 -10 8 1 11 -2 7 -8 -3 -6 -12 -7 -18 -3 -8 5 -8 2 0
-9 7 -8 9 -19 5 -23 -4 -5 -1 -5 6 -1 8 5 12 -2 12 -23 0 -18 5 -30 11 -28 6
1 12 -8 14 -20 1 -12 -2 -20 -7 -17 -5 4 -7 13 -3 23 5 13 4 14 -7 3 -11 -11
-9 -17 11 -33 13 -10 19 -19 14 -19 -5 0 -10 -7 -10 -15 0 -10 4 -12 12 -5 16
14 27 0 14 -17 -9 -10 -8 -13 2 -13 12 0 12 -2 0 -9 -11 -7 -10 -10 6 -15 10
-3 20 -15 21 -26 4 -45 6 -50 18 -50 8 0 11 -6 8 -13 -3 -8 5 -19 18 -26 13
-6 15 -9 6 -7 -10 3 -20 0 -24 -6 -4 -6 -3 -8 3 -5 6 4 13 0 17 -8 3 -8 12
-15 21 -15 8 0 15 -6 15 -14 0 -8 6 -17 13 -19 9 -4 8 -8 -3 -16 -8 -6 -10
-11 -4 -11 5 0 16 6 23 13 11 10 13 9 7 -1 -4 -7 0 -15 10 -19 16 -6 16 -7 -2
-15 -16 -7 -14 -8 7 -5 16 2 26 -1 26 -9 0 -7 -5 -10 -11 -7 -6 3 -5 0 2 -8
11 -12 14 -12 22 1 8 13 10 13 10 -2 0 -9 -6 -19 -12 -21 -8 -3 -5 -6 5 -6 12
-1 16 -5 11 -13 -5 -8 0 -7 11 2 10 8 16 10 12 3 -4 -6 -1 -14 5 -16 10 -4 9
-8 -2 -17 -13 -10 -13 -11 3 -6 9 3 17 1 17 -4 0 -5 10 -20 23 -32 13 -13 22
-29 19 -36 -2 -8 2 -10 15 -5 16 6 16 5 4 -10 -8 -10 -11 -20 -7 -24 3 -3 6
-2 6 4 0 6 7 14 16 17 14 5 15 4 4 -9 -7 -9 -10 -18 -6 -22 3 -3 6 -2 6 4 0 6
7 14 16 17 14 5 15 4 4 -9 -16 -19 -6 -20 14 0 13 14 15 13 15 -2 1 -39 5 -52
13 -47 4 3 8 0 8 -5 0 -12 26 -15 33 -3 2 4 2 1 0 -7 -2 -9 2 -11 13 -7 15 6
15 4 3 -11 -12 -15 -12 -16 4 -10 15 6 17 3 12 -13 -7 -21 9 -28 21 -8 5 7 2
8 -7 3 -8 -5 -10 -4 -6 0 9 11 37 16 34 6 -5 -16 41 -51 59 -45 16 5 16 4 4
-5 -12 -9 -11 -11 8 -11 12 0 22 -5 22 -11 0 -5 -5 -7 -12 -3 -7 4 -8 3 -4 -4
5 -9 13 -9 26 -2 30 16 57 -1 51 -33 -1 -5 3 -6 8 -3 5 4 14 -2 20 -11 6 -10
11 -12 11 -5 0 6 7 12 16 12 10 0 14 -5 10 -16 -3 -8 -2 -12 4 -9 6 3 10 13
10 21 0 8 4 14 9 14 12 0 9 -33 -4 -43 -6 -5 -4 -7 5 -4 8 2 14 11 12 18 -1 9
2 8 11 -3 11 -14 16 -15 26 -5 10 9 18 6 37 -18 14 -16 22 -22 18 -12 -4 10
-1 17 6 17 6 0 9 4 6 9 -4 5 2 8 11 7 10 -2 19 -11 20 -22 3 -18 3 -18 -5 0
-6 13 -11 16 -15 9 -4 -6 0 -19 9 -27 16 -17 29 -22 20 -8 -2 4 -1 14 5 22 8
14 15 -6 10 -33 -1 -5 3 -6 8 -3 5 4 11 3 14 -1 2 -5 2 -3 1 4 -2 6 3 14 10
16 9 4 12 -3 10 -19 -1 -13 2 -24 8 -24 6 0 8 6 5 13 -3 8 3 13 18 13 13 0 21
-4 19 -8 -3 -5 -10 -5 -16 -2 -7 4 -8 2 -4 -5 4 -6 12 -9 17 -6 5 4 9 1 9 -6
0 -7 9 -2 20 11 11 13 20 19 20 14 0 -6 -6 -16 -12 -23 -11 -11 -9 -12 11 -6
15 5 21 4 17 -3 -3 -6 -1 -14 5 -18 8 -4 9 -3 5 4 -4 7 -3 12 3 12 6 0 8 7 5
15 -4 8 -11 12 -17 8 -6 -4 -7 -1 -2 6 5 9 13 7 27 -9 16 -18 22 -19 29 -8 12
19 11 1 -1 -23 -13 -24 -2 -25 17 -1 8 9 12 12 9 6 -3 -6 4 -20 17 -30 13 -12
17 -13 10 -3 -11 13 -9 15 10 13 12 -1 24 -3 27 -4 3 -1 9 -2 13 -1 5 1 6 -3
3 -8 -9 -13 36 -22 51 -9 7 6 28 7 48 4 21 -4 35 -3 35 3 0 6 -8 8 -17 5 -15
-5 -16 -4 -3 5 12 8 19 6 31 -9 17 -19 17 -19 23 3 5 18 8 20 16 7 9 -13 12
-12 25 4 8 11 15 16 15 12 0 -4 8 0 17 9 16 16 17 16 30 -1 13 -17 13 -17 13
0 0 15 3 16 15 6 13 -11 14 -10 10 2 -3 8 2 21 12 29 17 13 17 13 3 -5 -14
-18 -13 -18 9 -11 14 4 21 3 18 -2 -4 -5 0 -10 8 -10 11 0 12 4 4 13 -7 8 -7
14 1 19 5 3 10 0 10 -7 0 -9 3 -9 10 2 5 8 15 15 22 16 37 3 39 5 33 27 -5 17
-4 19 4 7 6 -8 11 -10 12 -5 0 6 4 1 9 -10 7 -16 9 -16 9 -4 1 22 25 31 42 16
8 -7 3 2 -11 18 -14 17 -18 24 -10 18 18 -16 34 -17 24 -1 -4 7 -3 8 5 4 6 -4
9 -11 6 -16 -3 -4 4 -6 15 -3 11 3 20 10 20 15 0 5 -5 6 -12 2 -6 -4 -8 -3 -4
4 3 6 19 9 34 7 15 -2 22 -2 15 1 -7 3 -9 12 -6 20 5 13 7 13 14 2 7 -10 9 -9
9 5 0 9 5 17 12 17 6 0 19 6 28 12 9 7 5 3 -8 -10 -31 -29 -17 -28 19 2 15 13
25 27 21 31 -4 4 2 5 13 1 16 -5 25 1 39 24 9 17 22 28 27 25 5 -4 9 2 9 11 0
10 3 14 6 11 11 -10 46 13 41 27 -3 8 3 12 16 12 12 -1 22 5 22 12 0 6 5 12
10 13 6 0 17 6 25 12 13 10 13 10 2 -5 -10 -12 -10 -18 -1 -24 7 -4 9 -3 6 3
-8 12 27 46 36 36 4 -3 7 2 7 12 0 10 3 15 7 12 3 -4 13 2 20 13 8 11 18 18
23 15 4 -3 11 2 14 11 3 9 11 12 18 8 9 -5 8 -2 -1 9 -12 15 -12 17 3 11 9 -4
16 -1 16 6 0 10 3 10 15 0 13 -11 14 -10 9 4 -3 9 -2 16 3 16 6 0 15 10 21 23
6 12 11 16 11 8 1 -10 7 -7 20 8 14 16 21 18 24 9 4 -9 6 -7 6 4 1 9 6 20 13
24 7 4 8 3 4 -4 -4 -7 -2 -12 4 -12 8 0 10 9 5 28 -6 26 -6 26 9 7 15 -20 15
-20 16 4 0 17 4 22 16 17 11 -4 15 -2 11 7 -7 19 45 17 61 -2 11 -14 11 -14 7
-1 -4 11 1 16 15 17 11 1 20 -3 20 -8 0 -6 5 -7 10 -4 6 4 8 11 5 16 -4 5 6 5
22 -1 27 -10 27 -10 8 6 l-20 17 20 -8 c41 -15 66 -14 63 3 -2 12 3 16 15 14
10 -2 26 3 35 10 12 10 14 10 8 1 -4 -7 -3 -13 2 -13 6 0 12 7 16 15 10 26 46
-4 46 -38 0 -15 -4 -26 -8 -23 -5 3 -9 -1 -9 -9 0 -8 5 -11 11 -8 6 3 6 1 -1
-7 -6 -7 -9 -19 -6 -26 3 -8 0 -14 -7 -14 -6 0 -8 -5 -3 -12 11 -18 13 -39 3
-33 -4 3 -11 -2 -14 -11 -3 -8 -2 -12 4 -9 14 9 12 -8 -2 -24 -11 -11 -10 -12
2 -6 12 6 13 5 3 -6 -7 -7 -13 -17 -13 -22 0 -4 6 -5 13 -1 8 5 8 3 -2 -9 -7
-9 -18 -14 -23 -11 -6 4 -2 -5 7 -20 11 -17 13 -26 6 -26 -7 0 -9 -4 -6 -10 3
-5 0 -10 -7 -10 -10 0 -11 -2 0 -8 7 -5 10 -16 6 -25 -3 -9 -10 -14 -15 -11
-5 3 -6 -2 -3 -10 3 -9 11 -16 17 -16 6 0 2 -6 -8 -14 -18 -13 -18 -13 1 -24
11 -7 13 -12 6 -12 -7 0 -10 -5 -7 -10 4 -6 10 -8 14 -6 4 3 8 -1 8 -9 0 -8
-4 -12 -8 -9 -4 2 -11 -1 -15 -7 -4 -8 -3 -9 4 -5 7 4 12 2 12 -4 0 -6 5 -8
12 -4 7 4 8 3 4 -4 -4 -7 -2 -12 4 -12 6 0 8 -4 5 -10 -3 -5 -1 -10 5 -10 6 0
8 -4 5 -10 -3 -5 2 -10 12 -10 10 0 14 -4 8 -8 -5 -4 -11 -18 -13 -31 -2 -21
0 -22 15 -10 11 9 14 10 9 2 -4 -7 -3 -13 3 -13 10 0 9 -19 -2 -38 -5 -7 -13
-9 -19 -6 -7 4 -8 2 -4 -5 6 -9 11 -9 21 -1 9 8 14 6 19 -5 3 -9 0 -15 -10
-15 -13 0 -12 -6 6 -35 12 -19 17 -35 12 -35 -5 0 -12 9 -15 21 -3 12 -10 19
-14 16 -5 -3 -15 -1 -23 5 -12 8 -11 8 5 3 16 -5 16 -2 -5 18 -14 13 -29 21
-34 19 -5 -3 -7 1 -4 9 3 8 0 23 -8 33 -7 11 -11 23 -8 28 3 5 0 7 -7 6 -6 -2
-14 3 -16 10 -3 6 0 12 7 12 6 0 8 5 5 10 -4 6 -10 8 -15 5 -5 -3 -7 4 -5 16
4 17 2 19 -11 8 -12 -10 -13 -9 -8 4 6 16 -19 18 -33 2 -4 -4 -2 -5 6 0 10 6
12 4 7 -4 -5 -7 -15 -10 -23 -6 -13 4 -14 3 -4 -9 10 -12 8 -13 -11 -8 -21 5
-22 4 -9 -12 11 -13 11 -16 2 -14 -8 2 -15 -6 -17 -17 -1 -11 -10 -25 -19 -31
-10 -7 -12 -15 -6 -18 6 -4 8 -13 4 -21 -3 -9 1 -15 8 -16 8 0 5 -4 -6 -9
l-20 -9 20 0 c16 -1 17 -3 5 -11 -12 -8 -12 -10 2 -15 17 -7 18 -21 4 -44 -6
-10 -5 -12 2 -7 7 4 12 4 13 -1 1 -11 5 -29 23 -96 9 -32 13 -63 10 -69 -4 -7
-2 -8 4 -4 7 4 12 2 12 -3 0 -6 -5 -11 -11 -11 -6 0 -3 -7 5 -16 19 -19 21
-28 4 -18 -10 6 -10 4 -2 -7 25 -32 26 -97 1 -82 -6 3 -7 1 -3 -6 4 -6 11 -9
16 -6 4 3 10 -2 13 -10 4 -10 1 -12 -11 -8 -14 5 -15 4 -6 -8 6 -8 10 -22 9
-31 -2 -10 1 -20 6 -24 5 -3 4 -14 -2 -26 -8 -15 -8 -19 0 -14 6 4 11 3 11 -3
0 -5 -4 -12 -10 -16 -10 -6 -2 -36 14 -47 7 -5 7 -8 1 -8 -16 0 -11 -50 6 -61
12 -7 12 -9 -1 -9 -13 0 -13 -1 0 -10 12 -8 13 -11 1 -19 -11 -7 -11 -9 0 -13
7 -2 14 -19 15 -36 1 -20 -2 -29 -9 -25 -7 4 -8 0 -3 -12 6 -16 4 -16 -11 -4
-9 8 -14 9 -10 2 9 -14 -2 -45 -14 -38 -9 6 -39 -46 -39 -70 0 -9 -4 -14 -9
-11 -4 3 -7 -5 -7 -17 1 -12 -2 -28 -7 -35 -7 -9 -5 -11 9 -6 17 5 17 4 4 -8
-9 -7 -14 -21 -12 -31 2 -10 -2 -25 -10 -34 -7 -10 -8 -14 -1 -10 7 5 9 0 6
-13 -3 -11 -10 -17 -17 -13 -6 3 -8 3 -4 -2 4 -4 2 -15 -5 -23 -9 -13 -9 -14
1 -8 6 4 12 3 12 -3 0 -5 -4 -12 -9 -15 -5 -4 -8 -14 -6 -24 1 -9 -2 -26 -8
-37 -10 -19 -17 -52 -19 -85 0 -8 -5 -20 -10 -27 -5 -7 -6 -18 -2 -24 4 -7 3
-9 -3 -6 -6 4 -14 0 -17 -9 -4 -10 -2 -13 7 -8 9 6 9 5 1 -7 -7 -8 -11 -26 -9
-41 2 -20 -1 -25 -11 -21 -10 4 -12 0 -8 -11 3 -9 2 -16 -4 -16 -5 0 -9 -8 -8
-18 0 -9 -4 -16 -10 -15 -7 1 -10 -6 -7 -17 3 -11 0 -20 -6 -20 -5 0 -8 -7 -5
-15 4 -8 1 -15 -4 -15 -6 0 -9 -9 -7 -20 2 -11 1 -20 -3 -20 -4 0 -9 -14 -10
-32 -2 -17 -8 -38 -14 -46 -9 -10 -8 -16 3 -23 13 -8 6 -13 -13 -10 -4 0 -3
-11 2 -25 6 -14 6 -23 1 -20 -5 3 -12 -1 -15 -10 -4 -10 -2 -13 7 -8 8 5 7 2
-2 -9 -7 -9 -10 -17 -5 -17 4 0 0 -6 -11 -13 -12 -10 -14 -16 -7 -21 7 -4 12
-12 12 -17 0 -6 -6 -7 -12 -3 -9 5 -9 2 1 -9 7 -10 9 -17 3 -17 -6 0 -9 -11
-7 -25 1 -14 -2 -25 -7 -25 -5 0 -4 -9 2 -20 8 -14 8 -20 0 -20 -6 0 -8 -4 -5
-10 3 -6 0 -10 -7 -10 -8 0 -9 -3 -3 -8 13 -9 18 -35 5 -27 -6 4 -10 -6 -10
-25 0 -17 -9 -49 -19 -70 -11 -22 -15 -40 -10 -40 5 0 9 -5 9 -11 0 -5 -5 -7
-12 -3 -8 5 -9 0 -6 -14 4 -12 2 -20 -2 -17 -5 3 -11 1 -15 -5 -3 -5 -2 -10 3
-10 5 0 12 -11 14 -25 4 -19 2 -23 -7 -15 -9 7 -11 1 -10 -24 0 -19 -2 -33 -6
-30 -4 2 -10 -3 -13 -12 -4 -10 -2 -13 7 -8 8 6 8 3 -1 -9 -8 -9 -11 -21 -7
-27 3 -5 -2 -10 -12 -11 -11 0 -13 -3 -5 -6 10 -4 10 -8 0 -21 -10 -12 -10
-14 -1 -8 9 5 11 2 7 -8 -3 -9 -9 -14 -13 -11 -4 2 -7 -6 -7 -18 1 -12 8 -25
16 -29 13 -6 12 -7 -2 -7 -11 -1 -15 -7 -11 -22 4 -15 0 -27 -12 -35 -15 -11
-16 -14 -4 -14 9 0 16 -7 16 -15 0 -8 -4 -12 -9 -9 -4 3 -8 -2 -8 -11 0 -10 5
-13 13 -9 9 6 9 4 -1 -8 -8 -10 -9 -19 -3 -22 10 -7 9 -31 -2 -42 -4 -4 -2
-13 5 -21 7 -9 8 -13 1 -11 -6 2 -11 -1 -11 -7 0 -5 5 -9 12 -7 6 1 3 -4 -6
-11 -14 -11 -15 -16 -5 -27 10 -10 8 -12 -7 -6 -16 5 -17 4 -7 -8 15 -18 20
-124 7 -151 -8 -17 -7 -18 5 -8 12 10 15 8 16 -8 1 -12 -3 -17 -9 -13 -7 5 -8
2 -3 -7 5 -7 9 -28 8 -46 0 -20 4 -30 10 -26 6 4 8 -2 5 -15 -3 -12 -3 -21 1
-20 19 2 24 -3 11 -12 -10 -6 -11 -10 -2 -10 6 0 12 -5 12 -11 0 -5 -6 -7 -12
-4 -7 4 -5 0 5 -8 9 -8 17 -21 17 -29 0 -8 6 -20 13 -27 10 -10 8 -11 -8 -6
-11 3 -6 -1 10 -9 24 -12 26 -15 10 -16 -19 -1 -19 -1 -2 -14 9 -7 17 -20 17
-29 0 -8 4 -17 10 -19 5 -1 11 -15 12 -30 1 -15 6 -24 10 -22 5 3 6 10 3 15
-4 5 -4 9 -1 9 3 0 10 -10 17 -21 7 -13 7 -19 1 -15 -6 3 -14 2 -17 -4 -4 -6
-3 -10 2 -9 26 4 38 -1 23 -11 -13 -8 -13 -10 2 -10 9 0 18 6 21 13 3 6 4 2 4
-10 -1 -12 -5 -19 -10 -16 -5 3 -4 -4 2 -14 6 -11 7 -24 3 -28 -4 -5 -2 -5 4
-2 7 4 17 0 24 -8 10 -12 16 -13 28 -3 13 10 14 10 8 0 -4 -7 -2 -12 4 -12 6
0 9 -4 6 -9 -3 -5 2 -17 12 -28 9 -10 13 -12 7 -3 -9 13 -8 13 8 1 10 -8 16
-20 13 -28 -3 -7 -1 -13 5 -13 6 0 7 -6 3 -12 -6 -10 -4 -10 8 0 14 12 16 10
11 -10 -4 -19 -3 -20 7 -8 10 13 11 11 7 -7 -4 -17 -1 -21 14 -18 10 2 22 -1
25 -7 4 -7 2 -8 -4 -4 -7 4 -12 1 -12 -8 0 -8 5 -18 10 -21 6 -4 8 -11 4 -16
-3 -5 -2 -9 3 -8 33 6 45 -1 32 -18 -10 -11 -10 -14 -1 -9 6 4 12 2 12 -3 0
-6 5 -11 11 -11 5 0 7 6 4 12 -4 7 7 -1 23 -19 17 -17 42 -39 56 -48 22 -15
24 -20 14 -33 -10 -12 -10 -14 0 -8 7 4 12 2 12 -4 0 -6 5 -8 13 -4 9 6 9 5 0
-8 -13 -15 -8 -28 11 -28 6 0 4 5 -4 10 -13 8 -12 10 3 10 11 0 17 -8 17 -21
0 -11 5 -17 10 -14 6 4 7 12 3 18 -4 7 0 6 10 -2 18 -15 23 -26 7 -16 -6 3 -7
-1 -4 -9 5 -13 10 -13 27 -4 12 6 19 8 16 4 -10 -11 41 -58 57 -52 8 3 11 0 8
-8 -3 -7 2 -16 11 -20 9 -3 13 -2 10 3 -3 5 0 13 6 17 8 4 9 3 5 -4 -4 -7 -2
-12 5 -12 9 0 9 -3 0 -14 -10 -12 -8 -13 10 -9 17 5 21 3 16 -9 -7 -20 21 -18
34 3 8 12 10 12 8 -1 -1 -8 0 -24 1 -35 2 -17 3 -17 10 5 7 22 8 22 10 5 1
-11 2 -24 1 -28 -1 -5 3 -6 9 -2 6 4 17 2 25 -5 10 -8 20 -9 37 0 21 10 21 10
6 -3 -19 -15 -25 -32 -8 -22 5 3 10 -1 10 -10 0 -9 5 -13 10 -10 6 4 8 10 5
15 -3 5 0 12 6 16 8 4 9 3 5 -4 -4 -7 -2 -12 4 -12 7 0 9 -7 6 -16 -3 -9 -2
-12 5 -9 16 10 59 -4 55 -18 -1 -6 -1 -9 1 -4 3 4 15 7 27 7 12 0 27 5 33 11
8 8 13 8 18 0 3 -6 1 -10 -5 -9 -6 2 -18 -8 -27 -22 -13 -21 -13 -22 0 -7 13
16 16 16 30 2 9 -8 20 -15 26 -15 6 0 11 -5 11 -11 0 -8 13 -10 38 -6 21 4 31
3 24 -2 -11 -7 -11 -9 2 -14 9 -4 16 -1 16 5 0 6 3 8 6 5 4 -4 1 -14 -6 -22
-11 -13 -11 -16 1 -13 8 2 17 8 21 13 5 6 8 6 8 -1 0 -7 7 -15 16 -18 13 -5
14 -3 6 7 -8 10 -7 13 8 13 13 0 17 -6 14 -21 -3 -19 -2 -19 10 -2 7 9 16 17
20 17 3 0 6 -8 6 -17 0 -13 8 -18 30 -18 17 0 30 5 30 12 0 6 4 14 9 17 4 3 7
-6 5 -19 -1 -14 2 -23 7 -19 5 3 7 9 4 14 -3 5 -1 12 5 15 6 4 10 3 9 -2 -5
-29 3 -35 16 -13 8 14 14 19 15 13 0 -7 11 -13 24 -13 13 0 27 6 30 13 3 6 3
2 0 -10 -3 -13 -1 -23 5 -23 6 0 11 10 11 23 l1 22 13 -24 c8 -15 16 -20 20
-12 4 6 2 11 -4 11 -6 0 -8 5 -4 11 5 8 9 8 14 -1 6 -9 9 -9 14 1 3 8 4 5 1
-7 -4 -14 0 -21 9 -21 9 0 13 4 10 9 -7 12 14 10 39 -4 21 -10 21 -10 7 7 -14
17 -14 18 8 6 12 -7 20 -16 17 -22 -4 -5 -1 -9 5 -9 7 0 10 6 7 13 -2 6 2 18
10 25 11 11 13 10 9 -11 -4 -21 -1 -24 17 -19 12 3 26 10 30 16 6 7 7 5 4 -6
-3 -9 0 -19 8 -22 9 -3 12 0 9 8 -8 20 37 12 53 -10 15 -19 15 -19 9 1 -4 16
-1 20 17 21 33 1 51 7 62 22 9 11 14 10 26 -5 13 -16 13 -17 -3 -4 -12 9 -18
10 -18 2 0 -6 5 -11 11 -11 5 0 7 -6 3 -12 -4 -7 3 -4 16 7 13 11 20 15 17 9
-4 -7 1 -18 11 -25 15 -13 16 -12 3 4 -9 12 -10 17 -2 17 7 0 9 6 6 13 -4 6 1
3 9 -7 16 -19 16 -19 16 5 0 18 2 21 9 10 8 -13 12 -13 27 0 11 9 15 9 10 2
-4 -8 -1 -13 9 -13 9 0 14 4 10 9 -3 5 -1 12 5 16 9 6 14 -7 11 -30 -1 -5 5
-2 12 7 8 10 17 15 20 11 15 -14 6 12 -10 31 -14 17 -12 16 9 -2 l26 -24 7 22
c5 17 9 19 15 9 5 -7 6 -17 4 -21 -3 -4 0 -8 6 -8 6 0 8 10 4 25 -4 17 -2 25
7 26 8 1 26 2 42 3 30 3 34 -3 15 -24 -7 -7 -2 -6 11 3 23 15 26 15 45 -1 21
-17 21 -17 2 6 -20 23 -10 31 13 9 11 -10 12 -8 3 9 -9 16 -8 21 3 21 8 0 12
-4 9 -9 -3 -4 0 -8 6 -8 6 0 8 -5 4 -12 -4 -7 -3 -8 5 -4 6 4 19 2 28 -6 14
-11 16 -11 8 1 -6 11 -3 13 14 8 17 -4 20 -3 11 8 -8 10 -7 13 7 11 11 0 17 5
17 16 -1 10 2 15 7 12 12 -7 11 -34 -1 -34 -5 0 -10 -4 -10 -8 0 -5 7 -9 14
-9 8 0 14 5 13 11 -1 6 4 10 11 8 10 -2 10 2 3 16 -7 14 -6 19 4 19 8 0 13 -3
11 -6 -2 -3 3 -13 12 -21 14 -13 15 -12 9 3 -7 19 3 23 20 6 8 -8 13 -8 17 0
4 6 12 11 18 11 6 0 5 -7 -3 -18 -13 -15 -12 -16 3 -3 10 7 15 18 11 24 -4 7
5 8 25 4 20 -4 32 -2 32 4 0 6 -4 7 -10 4 -5 -3 -10 -2 -10 4 0 5 9 9 20 8 23
-1 26 -16 8 -37 -11 -12 -10 -12 5 -1 9 7 17 21 18 30 0 12 2 11 9 -4 5 -11 9
-16 9 -11 1 5 9 2 19 -5 13 -10 12 -8 -3 10 l-20 24 24 -13 24 -12 -22 33 -23
34 23 -25 c14 -17 23 -21 26 -12 6 17 20 15 20 -3 0 -8 -4 -12 -9 -9 -4 3 -8
1 -8 -4 0 -6 7 -13 16 -16 8 -3 12 -2 9 4 -3 6 -1 10 5 10 6 0 8 5 3 13 -4 7
4 5 18 -5 23 -15 26 -15 35 0 9 13 10 11 11 -9 1 -58 3 -65 13 -49 5 8 14 15
20 15 6 0 15 7 20 15 5 8 10 10 10 4 0 -5 -5 -15 -11 -21 -7 -7 -6 -12 6 -17
9 -3 13 -2 10 4 -3 5 3 15 15 22 22 14 27 29 8 24 -7 -1 -10 -1 -5 1 4 3 7 9
7 14 0 6 -6 7 -12 3 -7 -4 -4 2 6 14 11 12 21 20 24 17 3 -3 11 0 18 6 9 8 12
4 10 -15 -2 -15 1 -26 6 -26 5 0 6 -5 3 -10 -3 -6 -1 -10 5 -10 7 0 9 7 6 16
-5 12 -2 15 12 12 15 -4 18 0 16 24 -2 29 28 53 50 40 5 -3 7 2 3 11 -4 11 -2
14 9 10 7 -3 14 0 14 7 0 6 5 8 11 4 8 -5 6 -10 -5 -16 -9 -5 -16 -14 -16 -19
0 -6 7 -3 16 5 8 9 22 16 30 16 8 0 14 8 14 18 0 11 5 8 15 -12 19 -36 19 -42
0 -26 -9 7 -15 8 -15 2 0 -14 28 -23 35 -12 3 5 0 20 -6 32 -11 20 -10 21 3
11 11 -10 17 -10 27 0 7 7 6 0 -3 -17 -14 -27 -13 -31 2 -43 16 -12 16 -13 0
-7 -10 3 -18 1 -18 -5 0 -10 14 -15 33 -12 9 2 -9 -36 -22 -43 -5 -3 -12 1
-15 10 -4 12 -2 15 9 10 20 -7 19 0 -3 22 -31 31 -48 33 -48 6 0 -13 4 -24 9
-24 5 0 7 7 3 15 -6 17 9 21 19 5 4 -6 1 -18 -7 -27 -7 -10 -8 -14 -1 -10 6 4
13 2 15 -5 2 -6 12 -12 21 -14 9 -1 15 2 11 7 -3 5 1 9 10 9 8 0 16 5 18 12 3
7 7 5 11 -6 4 -10 3 -15 -3 -11 -6 3 -10 1 -10 -5 0 -15 25 -7 26 8 4 34 5 36
15 19 6 -9 15 -15 20 -12 5 4 6 11 3 17 -4 6 2 5 15 -2 13 -6 19 -16 14 -23
-5 -9 -3 -9 8 -1 8 6 24 10 36 9 21 -2 24 16 8 48 -4 6 3 1 14 -13 17 -20 21
-22 21 -7 0 9 3 16 8 16 20 -3 32 3 32 17 0 8 5 12 10 9 6 -4 7 -11 4 -17 -4
-5 5 -2 20 7 14 9 24 21 21 25 -3 4 3 14 12 21 12 10 14 10 9 2 -4 -8 -2 -13
4 -13 6 0 8 -5 4 -12 -4 -7 -3 -8 4 -4 7 4 12 14 12 22 0 8 5 14 11 14 5 0 7
-4 4 -10 -3 -5 -1 -10 5 -10 6 0 8 -5 4 -12 -4 -7 -3 -8 4 -4 6 4 9 14 6 24
-3 9 2 6 11 -8 9 -14 14 -17 11 -7 -3 9 0 17 6 17 6 0 3 10 -8 23 -19 22 -19
22 2 4 11 -9 25 -17 31 -17 5 0 15 -10 22 -22 6 -13 9 -15 7 -5 -5 14 -1 16
19 13 16 -3 23 -1 19 6 -4 6 2 8 17 3 16 -4 20 -3 10 3 -10 7 -10 14 -2 29 5
11 8 23 6 27 -3 3 -2 4 1 1 11 -8 35 25 28 37 -5 9 -2 8 9 -1 15 -12 17 -12
12 1 -3 8 1 21 9 28 9 7 13 16 10 21 -3 5 0 9 6 9 6 0 8 5 5 10 -4 6 -1 18 7
27 11 14 11 16 -2 9 -8 -4 -6 0 4 8 20 16 20 16 0 16 -16 0 -17 2 -4 10 13 9
13 10 0 10 -13 0 -13 1 0 10 12 7 12 10 1 10 -7 0 -11 6 -8 14 4 10 1 13 -9 9
-13 -5 -19 8 -15 30 1 5 -3 6 -9 2 -5 -3 -10 -2 -10 3 0 5 -13 15 -29 22 -19
7 -28 17 -24 26 3 8 -1 14 -11 14 -9 0 -16 6 -16 14 0 8 -7 17 -16 20 -9 4
-14 9 -11 13 9 8 -41 46 -52 39 -5 -3 -15 2 -22 12 -12 15 -12 16 2 5 13 -10
16 -10 16 1 0 9 -9 13 -24 11 -20 -2 -21 0 -11 13 11 13 11 14 0 8 -14 -9 -56
27 -45 38 4 3 2 6 -3 6 -6 0 -15 -5 -22 -12 -7 -7 -12 -8 -12 -2 0 6 6 16 13
23 10 10 8 11 -7 5 -14 -5 -17 -4 -11 5 6 10 3 11 -12 3 -15 -9 -20 -8 -20 3
0 8 5 11 10 8 6 -3 7 -1 3 5 -4 6 -14 8 -23 5 -10 -4 -14 -2 -10 4 7 11 -48
38 -67 34 -5 -1 -3 6 5 15 13 16 12 16 -6 7 -24 -13 -55 4 -47 25 2 7 0 12 -5
11 -28 -5 -47 2 -33 11 8 5 10 10 5 10 -6 0 -17 -6 -24 -12 -11 -11 -13 -10
-8 5 4 11 3 16 -3 12 -6 -3 -10 2 -11 12 -1 13 -3 11 -9 -7 -7 -22 -10 -21
-14 9 0 5 -5 13 -10 18 -5 5 -6 3 -2 -4 4 -7 3 -13 -3 -13 -5 0 -11 6 -13 12
-4 10 -11 10 -33 0 -24 -11 -27 -11 -17 1 14 16 6 28 -14 20 -8 -3 -16 2 -20
10 -3 9 -14 14 -26 12 -17 -4 -18 -2 -7 13 7 9 10 14 5 10 -5 -4 -17 -3 -27 3
-11 6 -19 6 -19 0 0 -5 -7 -12 -16 -15 -8 -3 -12 -2 -9 3 3 5 1 12 -4 16 -5 3
-15 -3 -21 -12 -10 -17 -10 -16 -8 2 2 12 -2 19 -9 17 -7 -1 -13 3 -13 9 0 6
-7 8 -17 5 -16 -6 -16 -6 0 12 14 15 14 19 2 19 -8 0 -12 -4 -9 -9 3 -4 0 -8
-5 -8 -6 0 -11 5 -11 10 0 6 -3 9 -7 9 -21 -3 -32 3 -36 19 -4 16 -5 16 -6 0
0 -10 -9 -18 -18 -17 -11 0 -13 3 -6 6 7 2 13 9 13 14 0 4 -7 5 -17 2 -11 -4
-14 -3 -9 5 5 8 0 12 -14 12 -12 0 -28 7 -36 15 -8 8 -22 11 -31 8 -11 -4 -14
-3 -9 5 5 8 0 12 -14 12 -14 0 -19 4 -14 13 4 6 3 9 -1 4 -5 -4 -20 0 -33 9
-24 16 -25 16 -19 -2 7 -18 6 -18 -7 -1 -17 22 -24 21 -44 -1 -10 -10 -13 -12
-8 -5 6 9 3 20 -8 32 -18 20 -60 36 -50 19 3 -5 -7 -3 -24 6 -16 8 -32 12 -36
9 -3 -4 -6 5 -7 18 0 13 -3 18 -6 12 -2 -7 -9 -13 -14 -13 -6 0 -7 4 -4 10 3
5 -1 10 -10 10 -9 0 -13 -5 -10 -11 4 -6 -3 -5 -14 3 -18 11 -23 11 -32 -2 -8
-11 -9 -9 -4 10 l7 25 -23 -22 c-20 -20 -24 -20 -34 -6 -10 13 -14 13 -20 3
-6 -9 -4 -11 5 -5 9 5 11 4 6 -3 -5 -8 -13 -9 -25 -2 -10 5 -21 6 -25 2 -4 -3
-4 2 -1 13 3 11 -1 8 -10 -7 -19 -33 -20 -34 -22 -8 -1 11 2 18 6 16 4 -3 8 1
8 9 0 8 -2 13 -5 10 -2 -2 -12 4 -21 13 -9 10 -15 16 -14 13 3 -4 -45 -31 -55
-31 -3 0 3 10 14 23 19 22 19 22 -2 4 -22 -18 -39 -23 -29 -8 3 5 0 13 -6 17
-8 4 -9 3 -5 -4 4 -7 1 -12 -9 -12 -10 0 -13 5 -9 12 4 7 3 8 -4 4 -15 -9 -4
-36 13 -30 8 3 19 -3 26 -14 13 -20 13 -20 37 -2 13 11 30 16 40 13 9 -4 11
-8 5 -10 -7 -3 -10 -10 -7 -18 3 -7 0 -16 -6 -20 -9 -6 -9 -10 1 -17 11 -8 11
-9 -1 -5 -9 2 -15 15 -14 30 0 15 -3 27 -6 27 -15 0 -18 -13 -10 -41 5 -18 5
-27 -1 -24 -5 4 -9 15 -9 26 0 11 -4 18 -9 14 -6 -3 -15 4 -21 15 -6 11 -15
20 -21 20 -6 0 0 -15 12 -32 14 -19 16 -28 7 -20 -10 8 -19 9 -22 3 -3 -5 0
-11 6 -14 7 -2 11 -7 8 -10 -3 -3 -16 3 -30 14 -20 15 -21 18 -5 12 17 -6 18
-5 7 9 -7 9 -24 14 -42 12 -30 -4 -65 20 -54 37 3 5 -6 4 -20 -2 -20 -10 -28
-9 -41 5 -15 14 -35 14 -35 0 0 -3 4 -3 9 1 5 3 12 1 16 -5 3 -5 0 -10 -8 -10
-8 0 -18 -7 -21 -16 -5 -12 -3 -14 7 -8 7 5 4 1 -6 -8 -11 -10 -17 -25 -14
-33 4 -8 1 -17 -5 -21 -6 -4 -8 -3 -4 4 3 6 3 13 -2 16 -10 6 -10 -45 1 -61 4
-6 2 -15 -4 -19 -8 -4 -9 -3 -5 4 5 8 1 10 -9 5 -13 -4 -14 -8 -4 -14 7 -4 17
-5 23 -2 5 4 7 -1 3 -10 -3 -9 0 -22 7 -30 10 -9 11 -19 4 -33 -6 -13 -2 -11
12 6 15 17 20 19 16 8 -7 -24 1 -23 14 3 12 21 -1 49 -23 49 -5 0 -3 -8 6 -18
14 -15 15 -19 2 -19 -8 0 -11 5 -8 10 3 6 2 7 -3 4 -6 -3 -10 4 -10 17 0 14 6
22 17 22 10 0 17 -3 17 -6 -2 -18 4 -23 12 -10 7 12 12 12 29 -4 24 -22 55 -6
46 24 -6 18 15 33 44 34 8 1 16 6 18 13 3 8 -3 11 -16 8 -12 -2 -21 1 -21 6 0
6 -4 7 -10 4 -5 -3 -10 -1 -10 5 0 7 8 9 22 4 20 -6 21 -5 9 10 -21 25 -5 19
22 -8 18 -18 21 -28 14 -35 -16 -16 6 -14 22 2 11 10 11 8 0 -10 -7 -12 -18
-19 -24 -15 -5 3 -19 8 -30 9 -12 2 -6 -5 15 -16 l35 -19 13 24 c7 13 15 24
18 24 2 0 -3 -15 -13 -33 -23 -43 -24 -55 -6 -61 8 -3 11 -11 8 -17 -4 -6 -13
-8 -20 -5 -8 3 -19 -1 -25 -9 -13 -16 26 -18 47 -3 7 6 14 4 19 -3 4 -7 3 -10
-2 -6 -5 3 -18 -1 -29 -9 -13 -10 -15 -14 -4 -14 10 -1 9 -3 -4 -11 -9 -6 -15
-14 -12 -20 4 -5 1 -9 -4 -9 -14 0 -14 13 1 28 14 14 -1 16 -21 3 -10 -7 -19
-4 -27 7 -11 14 -15 15 -26 4 -11 -11 -11 -13 1 -10 8 2 17 -5 19 -14 2 -10
-1 -18 -7 -18 -6 0 -8 7 -5 15 5 11 2 13 -10 9 -9 -3 -16 -1 -16 5 0 6 -7 8
-17 4 -11 -4 -14 -3 -9 6 5 7 15 10 25 7 15 -6 15 -5 -1 7 -15 12 -15 14 0 23
16 11 9 34 -11 34 -8 0 -8 -3 2 -9 8 -5 9 -11 3 -15 -10 -6 -27 21 -23 37 1 5
-3 6 -8 3 -10 -7 -3 -46 9 -46 5 0 7 -7 6 -16 -3 -20 -35 -46 -47 -38 -5 3 -6
-2 -3 -10 3 -9 2 -16 -4 -16 -6 0 -13 6 -15 13 -4 9 -6 8 -6 -2 -1 -11 -4 -11
-16 -1 -12 10 -21 7 -47 -15 -18 -16 -31 -29 -28 -31 3 -2 -2 -9 -10 -16 -8
-7 -14 -12 -11 -11 2 1 11 -8 21 -19 l17 -22 12 23 c11 20 11 22 -6 12 -16 -8
-19 -6 -19 14 0 16 4 21 15 17 10 -4 12 -1 6 8 -5 9 -4 11 4 6 6 -4 9 -12 6
-17 -4 -5 -2 -9 3 -9 6 0 13 -7 16 -16 4 -10 2 -13 -6 -8 -7 4 -8 3 -4 -5 11
-16 31 -8 31 12 0 9 5 17 10 18 6 0 15 10 22 22 7 12 12 18 13 14 0 -19 -22
-47 -32 -41 -7 5 -9 2 -5 -9 3 -9 2 -19 -3 -22 -6 -4 -10 -11 -10 -17 0 -7 5
-6 15 2 8 6 19 9 25 5 6 -4 17 -1 25 5 11 9 15 9 15 1 0 -6 -5 -11 -11 -11 -5
0 -7 -5 -3 -12 5 -7 11 -5 21 7 7 11 13 15 13 9 -1 -14 -30 -50 -30 -36 0 15
-38 35 -51 26 -8 -4 -7 -9 2 -16 9 -6 4 -7 -16 -3 -16 3 -24 2 -17 -1 6 -3 12
-12 12 -20 0 -9 -5 -12 -12 -8 -7 4 -6 -1 3 -12 14 -17 15 -25 10 -51 -1 -5
-6 -1 -11 7 -7 12 -9 10 -8 -7 2 -19 4 -20 25 -6 21 14 23 14 17 -1 -4 -12 -2
-15 9 -10 8 3 17 1 21 -4 6 -11 -24 -9 -43 3 -10 6 -13 4 -9 -6 4 -10 -1 -15
-12 -15 -10 0 -17 3 -14 7 2 4 -3 10 -12 13 -25 10 -27 7 -13 -11 13 -16 12
-17 -3 -5 -9 8 -21 11 -26 9 -4 -3 -14 -1 -22 5 -12 8 -12 9 3 4 9 -3 17 -1
17 3 0 5 11 8 23 7 14 -2 24 2 24 10 0 7 -7 10 -16 6 -14 -5 -14 -4 -1 14 14
18 14 18 -4 4 -18 -14 -18 -13 -12 10 6 25 6 25 -5 3 -7 -13 -17 -23 -23 -23
-6 0 -4 -5 4 -10 12 -8 10 -10 -9 -10 -16 0 -21 4 -17 15 6 18 -25 37 -42 26
-7 -4 -10 -14 -7 -23 4 -11 0 -14 -17 -13 -13 1 -30 -1 -38 -5 -8 -4 -26 -4
-40 1 -14 4 -19 7 -12 8 15 1 17 111 1 111 -5 0 -8 -4 -5 -8 3 -5 -2 -9 -10
-9 -10 0 -11 4 -4 11 13 13 13 36 -1 36 -5 0 -7 -6 -4 -12 4 -7 -1 -4 -9 6
-15 18 -20 38 -17 58 0 5 -4 8 -10 8 -6 0 -9 -6 -6 -13 3 -8 -1 -14 -7 -14 -8
0 -12 10 -10 24 2 20 0 22 -19 11 -21 -11 -21 -10 -7 7 12 15 12 17 1 10 -11
-6 -13 -4 -8 7 4 12 1 14 -14 11 -11 -3 -19 0 -19 6 0 7 5 9 10 6 6 -3 10 -1
10 4 0 15 -13 14 -29 -1 -11 -10 -13 -10 -7 0 4 7 1 12 -8 12 -14 0 -20 12
-17 33 0 4 -3 7 -8 7 -6 0 -8 9 -6 21 4 17 2 19 -10 9 -12 -10 -15 -10 -15 0
0 8 -8 10 -21 7 -15 -4 -19 -2 -15 8 3 9 -2 12 -16 10 -11 -3 -30 0 -40 6 -15
8 -19 8 -13 0 3 -6 3 -11 -2 -10 -19 3 -27 -2 -15 -10 11 -6 11 -10 0 -19 -10
-8 -13 -4 -13 18 -1 16 3 26 7 24 4 -3 8 -1 8 4 0 5 -10 14 -22 21 -19 9 -19
11 -3 6 19 -5 20 -5 1 10 -10 8 -23 12 -27 9 -5 -3 -6 3 -3 13 5 16 3 15 -12
-2 -14 -16 -16 -17 -11 -3 5 14 1 17 -18 16 -14 -1 -25 -6 -25 -11 0 -4 -5 -5
-11 -1 -8 4 -7 9 2 15 7 4 17 5 21 3 17 -11 7 12 -12 26 -14 10 -16 17 -9 26
7 8 7 14 -1 19 -6 3 -8 11 -5 16 4 5 -1 9 -9 9 -9 0 -16 5 -16 11 0 5 5 7 10
4 16 -10 11 1 -7 16 -9 8 -14 9 -10 3 7 -13 -20 -23 -41 -16 -9 3 -10 7 -2 17
8 10 8 15 -1 21 -8 5 -9 3 -4 -7 8 -12 6 -12 -8 0 -18 15 -23 26 -7 16 14 -9
12 8 -2 24 -11 11 -10 12 1 6 11 -6 13 -2 9 19 -5 26 6 37 15 14 3 -7 4 -3 4
9 -1 12 -4 20 -7 18 -3 -2 -6 7 -6 21 0 13 4 24 9 24 5 0 7 -6 4 -14 -3 -8 1
-17 9 -20 10 -4 12 -2 8 6 -5 8 -2 9 10 5 9 -4 15 -3 12 2 -3 4 1 17 8 27 10
13 11 23 4 31 -6 7 -7 20 -4 29 5 12 2 15 -11 10 -15 -6 -14 -4 2 14 19 21 19
21 -4 27 -14 4 -18 8 -11 13 8 5 7 11 -4 23 -12 11 -13 17 -3 20 7 4 6 6 -4 6
-12 1 -15 8 -11 27 3 19 1 25 -7 20 -6 -4 -11 -2 -11 3 0 6 6 11 14 11 8 0 18
5 22 12 4 7 3 8 -4 4 -8 -5 -12 0 -12 13 0 12 6 21 13 21 8 0 7 4 -3 10 -11 7
-11 10 -2 10 7 0 10 5 7 10 -3 5 -1 10 5 10 8 0 7 6 -1 21 -8 15 -8 19 0 15 6
-4 11 -4 12 1 0 4 2 16 4 26 2 9 0 15 -3 13 -4 -2 -7 6 -7 19 0 17 3 21 12 14
7 -7 13 -6 17 0 4 5 2 12 -4 16 -5 3 -10 11 -10 16 0 6 5 7 12 3 6 -4 8 -3 5
3 -4 6 3 24 15 39 15 19 16 24 5 15 -10 -8 -17 -9 -17 -3 0 6 5 14 11 17 6 4
8 13 5 21 -3 8 -1 14 4 14 5 0 6 7 3 17 -5 12 -3 14 7 8 10 -6 11 -4 4 6 -12
19 -12 33 1 41 6 5 5 8 -4 8 -11 0 -11 3 0 17 12 15 12 16 -1 8 -13 -8 -13 -7
-1 9 13 15 13 19 0 27 -10 6 -11 9 -1 9 7 0 10 4 7 10 -3 5 0 10 7 10 9 0 9 3
-2 10 -13 9 -13 10 0 10 13 0 13 1 0 10 -12 8 -12 10 3 16 17 6 17 7 0 21 -10
8 -13 12 -7 9 15 -8 27 21 12 30 -7 4 -2 14 13 26 13 11 18 17 12 13 -7 -3
-13 -1 -13 4 0 6 6 11 13 11 9 0 8 3 -2 9 -11 7 -11 9 0 14 11 4 11 6 1 6 -10
1 -10 4 0 15 7 8 16 12 20 9 4 -2 5 3 2 11 -3 9 -11 13 -18 9 -6 -3 -4 2 5 13
16 20 18 32 7 49 -4 6 -3 17 3 25 13 21 11 32 -3 24 -9 -6 -9 -3 1 9 7 9 11
23 7 32 -3 8 -2 14 2 14 20 -3 25 2 12 12 -12 9 -10 10 8 6 23 -6 24 -5 5 15
-10 12 -12 18 -4 13 11 -6 13 -3 8 14 -4 18 -3 20 9 10 12 -10 13 -9 8 6 -6
14 -4 16 7 10 12 -8 12 -6 0 8 -11 14 -11 17 0 17 11 0 11 2 -1 10 -13 8 -13
10 2 10 12 0 15 5 11 17 -4 11 -3 14 5 9 7 -4 12 -3 12 3 0 5 -6 11 -12 14
-10 3 -10 7 1 20 7 10 10 17 6 17 -5 0 -1 8 9 19 15 17 15 19 -1 32 -16 12
-17 12 -6 -2 12 -14 8 -29 -6 -29 -9 0 -6 79 4 87 4 5 5 2 0 -6 -5 -9 -4 -12
3 -7 7 4 12 14 12 22 0 8 -4 12 -10 9 -6 -3 -10 -1 -10 4 0 6 5 11 11 11 5 0
8 4 5 9 -4 5 0 12 6 14 10 4 10 6 1 6 -7 1 -10 8 -7 16 4 8 11 12 16 9 6 -4 5
4 -2 16 -7 12 -8 20 -2 16 5 -3 13 1 16 10 3 8 2 13 -3 10 -5 -3 -12 1 -15 10
-3 8 -2 13 3 10 5 -3 12 1 15 9 3 9 -1 18 -9 21 -8 4 -12 10 -9 16 3 5 12 4
22 -4 13 -11 14 -11 4 8 -12 24 -13 86 -1 78 5 -3 6 2 3 10 -3 9 -11 13 -18 9
-6 -4 -5 1 3 10 9 12 10 17 2 17 -7 0 -9 5 -6 10 4 6 12 7 18 3 7 -4 4 5 -5
19 -18 27 -9 46 14 32 7 -4 8 -3 4 4 -4 7 -14 12 -22 12 -12 0 -12 4 -4 20 7
14 7 20 0 20 -5 0 -10 5 -10 11 0 5 4 8 8 5 5 -3 9 1 9 9 0 8 -4 15 -9 15 -4
0 -8 5 -8 11 0 5 5 7 11 3 8 -5 8 -1 0 13 -8 16 -6 25 10 42 11 11 15 21 10
21 -6 0 -10 11 -9 24 2 21 5 23 17 13 12 -9 13 -9 7 1 -4 6 -4 18 1 25 8 12
13 32 15 55 1 6 6 12 12 12 8 0 8 2 0 8 -6 4 -14 16 -17 26 -6 16 -5 17 8 6
13 -11 16 -11 13 1 -2 8 -7 18 -13 22 -6 5 -1 7 11 4 22 -5 29 21 10 34 -5 4
1 10 13 14 l21 6 -22 21 c-16 13 -18 18 -6 15 24 -8 29 3 11 29 -8 13 -12 24
-8 24 4 0 0 11 -9 25 -11 16 -12 25 -5 25 8 0 9 4 0 13 -13 16 -5 28 14 21 7
-3 16 0 21 7 4 8 3 10 -4 5 -7 -4 -12 -2 -12 3 0 6 5 11 11 11 5 0 7 5 3 12
-5 7 -2 9 9 5 11 -4 14 -2 10 8 -3 8 -10 12 -16 8 -6 -3 -7 -1 -3 6 4 6 2 20
-6 29 -12 15 -11 16 5 3 10 -8 17 -9 17 -3 0 6 -8 16 -17 21 -17 10 -17 10 -1
11 9 0 20 5 24 12 4 7 3 8 -4 4 -7 -4 -12 -3 -12 3 0 5 6 12 13 14 6 3 1 6
-12 6 -24 1 -24 1 -5 16 18 15 18 15 0 8 -15 -5 -17 -3 -10 8 12 19 14 40 4
34 -5 -3 -8 8 -8 24 1 17 5 28 10 25 15 -9 9 3 -9 17 -15 12 -16 12 -8 -1 4
-8 4 -12 0 -7 -11 10 -16 39 -5 32 4 -2 8 6 8 20 0 16 -5 22 -12 18 -6 -4 -4
1 4 12 14 17 13 17 -10 12 -14 -4 -19 -4 -12 -1 10 5 10 9 0 22 -10 14 -10 15
2 5 8 -7 21 -13 29 -13 14 0 14 1 1 10 -8 5 -16 18 -16 29 -1 11 3 18 8 15 4
-3 6 -9 4 -13 -3 -4 1 -8 9 -8 11 0 12 4 4 14 -9 9 -8 17 1 28 9 10 9 15 1 15
-6 0 -11 -4 -11 -10 0 -5 -5 -10 -10 -10 -7 0 -7 6 -1 18 17 31 22 74 8 65 -7
-4 -4 6 7 21 10 16 13 25 7 22 -6 -4 -11 -2 -11 3 0 6 6 11 13 11 8 0 7 4 -3
10 -13 9 -13 10 0 10 9 0 11 3 5 8 -5 4 -11 13 -13 21 -2 11 0 12 11 3 12 -10
14 -8 12 12 -2 14 -6 30 -10 35 -3 6 0 11 7 11 9 0 9 3 -2 10 -14 9 -7 15 14
11 5 -1 4 5 -4 13 -7 9 -9 16 -5 16 4 0 2 7 -5 15 -11 13 -10 14 6 8 16 -6 17
-4 7 8 -10 12 -10 18 0 29 9 9 9 11 0 6 -9 -5 -11 7 -9 43 1 27 -2 47 -6 45
-5 -3 -6 -9 -3 -14 3 -5 1 -11 -4 -15 -6 -3 -8 4 -6 16 3 13 10 26 17 31 9 5
6 8 -10 8 -15 0 -21 -4 -16 -12 4 -7 3 -8 -4 -4 -6 4 -9 13 -6 21 4 8 10 13
14 10 5 -3 11 -1 14 4 4 5 1 13 -5 17 -8 5 -9 3 -4 -7 5 -8 4 -11 0 -6 -16 14
-13 46 4 39 14 -5 14 -4 1 10 -8 9 -19 13 -24 10 -5 -3 -6 0 -2 7 5 7 13 10
20 8 7 -3 12 5 11 22 0 26 -16 33 -24 10 -2 -7 1 -9 9 -4 9 6 11 4 5 -4 -5 -9
-10 -10 -18 -2 -7 7 -6 15 3 25 7 9 10 23 6 31 -3 9 0 15 10 15 8 0 12 5 9 10
-4 6 -10 8 -14 5 -13 -8 -5 53 10 73 7 9 9 14 5 10 -12 -10 -35 22 -29 39 3 7
10 10 16 6 6 -4 7 -1 2 8 -5 7 -8 26 -7 42 1 16 -1 26 -6 23 -4 -2 -9 4 -9 15
-1 10 3 19 8 19 6 0 7 -6 3 -12 -4 -7 -3 -10 1 -5 12 10 13 57 1 50 -5 -4 -6
5 -2 21 6 24 4 27 -13 21 -11 -3 -22 -1 -25 4 -7 10 20 41 35 41 5 0 9 5 9 11
0 8 -5 7 -15 -1 -9 -7 -18 -10 -22 -6 -4 3 2 13 13 21 14 11 14 13 3 9 -11 -3
-18 2 -22 15 -3 13 -1 19 5 15 6 -4 8 -1 6 7 -3 8 2 23 11 34 15 18 15 19 -1
7 -11 -9 -18 -10 -23 -2 -3 5 0 10 7 10 9 0 9 3 -2 10 -8 5 -10 10 -3 10 13 0
12 18 -1 39 -6 9 -5 12 2 7 6 -3 13 -2 17 4 3 5 -1 10 -9 10 -9 0 -16 5 -16
11 0 5 6 7 13 3 9 -5 9 -4 0 6 -6 7 -9 19 -6 27 5 12 1 14 -18 8 -13 -3 -19
-3 -13 2 19 14 25 43 9 43 -18 0 -20 26 -2 33 7 3 5 6 -5 6 -10 1 -18 -4 -18
-11 0 -6 -3 -8 -7 -4 -5 4 0 13 10 21 15 10 15 14 3 18 -15 6 -16 23 -3 45 5
7 3 12 -4 12 -8 0 -7 5 2 17 10 11 10 14 1 9 -13 -8 -13 19 1 42 5 7 4 12 -2
12 -10 0 -15 -14 -12 -32 0 -5 -4 -8 -10 -8 -6 0 -8 9 -4 23 4 12 9 29 11 38
3 9 -3 19 -12 23 -13 5 -14 3 -6 -7 8 -9 8 -17 0 -27 -8 -13 -9 -12 -5 2 3 9
3 19 -1 23 -4 4 -7 12 -7 18 -1 7 -7 11 -15 9 -9 -2 -5 7 10 24 14 15 19 24
13 20 -8 -4 -13 -1 -13 9 0 9 5 13 10 10 6 -3 10 -1 10 5 0 6 -11 8 -27 5 -27
-5 -27 -5 -4 5 18 8 21 13 12 24 -6 7 -7 16 -3 21 4 4 -4 5 -18 1 -14 -3 -19
-3 -12 0 6 3 10 10 7 15 -4 5 2 6 12 3 17 -5 17 -5 0 6 -12 8 -16 18 -11 33 5
18 4 20 -7 10 -7 -7 -18 -13 -23 -13 -6 0 -5 4 2 9 7 4 14 18 15 29 1 12 6 22
12 22 5 0 -3 12 -19 27 -27 25 -28 27 -10 40 11 8 13 13 5 13 -10 0 -11 3 -2
13 6 8 8 17 4 21 -4 3 -8 16 -10 28 -2 12 -8 27 -14 35 -9 10 -8 13 1 13 8 0
11 3 7 6 -14 15 -27 -8 -16 -29 7 -12 8 -19 4 -15 -5 4 -15 2 -23 -5 -13 -10
-14 -9 -7 3 13 22 12 41 -4 75 l-14 30 24 -20 24 -20 -15 20 c-21 28 -31 34
-52 30 -10 -2 -16 0 -13 5 3 5 14 7 25 5 11 -2 23 2 26 8 4 7 4 9 -1 5 -4 -4
-14 -1 -21 7 -15 15 -19 29 -6 21 5 -3 9 1 9 9 0 8 -5 11 -10 8 -6 -4 -8 0 -4
10 4 12 2 14 -10 10 -12 -5 -15 -2 -11 9 7 16 -9 38 -26 38 -6 0 -3 -7 7 -14
16 -12 16 -14 2 -20 -9 -3 -13 -2 -10 3 3 5 1 12 -4 16 -14 8 -1 36 13 28 10
-6 -10 21 -41 55 -17 18 -17 27 0 13 10 -8 14 -7 14 4 0 8 -4 15 -9 15 -5 0
-6 6 -2 13 5 7 0 6 -11 -3 -11 -9 -16 -10 -11 -2 7 11 -5 17 -27 13 -4 -1 -3
8 3 19 12 23 22 27 14 5 -4 -10 0 -15 12 -14 11 0 14 3 6 6 -6 2 -10 8 -7 13
3 4 -2 13 -10 20 -18 15 -20 34 -2 24 8 -5 8 -2 -2 9 -15 18 -26 23 -16 7 6
-10 5 -11 -32 -15 -20 -2 -21 0 -11 19 16 31 21 34 14 9 -5 -15 -3 -23 4 -23
7 0 10 12 9 28 -2 15 1 33 5 41 6 10 5 12 -2 7 -7 -4 -20 -2 -29 4 -16 11 -16
11 -1 6 10 -3 20 0 24 6 4 6 3 8 -3 5 -5 -3 -20 8 -33 26 l-23 32 25 -23 c18
-16 25 -18 25 -8 0 9 -7 18 -14 20 -8 3 -12 10 -8 16 3 5 0 20 -7 32 -7 13
-11 30 -10 38 2 13 1 13 -7 1 -6 -10 -5 -21 5 -35 16 -24 18 -36 4 -36 -6 0
-9 3 -9 8 3 20 -2 32 -13 26 -6 -4 -8 -3 -5 3 4 6 0 16 -8 23 -18 15 -21 45
-3 34 6 -4 8 -3 4 4 -4 8 -15 8 -36 0 -17 -5 -27 -14 -24 -20 3 -5 -4 -12 -16
-15 -16 -4 -18 -8 -8 -14 7 -5 9 -9 3 -9 -29 0 -38 19 -12 25 15 4 25 11 22
15 -3 5 2 13 11 18 11 6 13 11 5 16 -6 4 -11 13 -11 19 0 8 3 8 9 -1 5 -9 8
-4 7 16 -1 17 -3 30 -6 30 -19 -1 -23 4 -10 12 11 7 11 10 2 10 -7 0 -11 4 -7
9 3 5 1 12 -4 16 -6 3 -8 -3 -6 -15 2 -11 -1 -20 -7 -20 -6 0 -8 14 -6 35 3
27 1 32 -9 23 -7 -5 -11 -13 -8 -17 2 -4 -6 -7 -18 -6 -26 2 -35 30 -12 39 9
3 20 4 25 1 4 -3 10 2 13 10 4 9 1 12 -8 9 -18 -7 -65 24 -65 43 0 17 -22 12
-28 -7 -3 -7 -1 -11 4 -8 5 2 18 -5 29 -17 18 -19 19 -23 6 -35 -13 -12 -14
-12 -9 2 4 8 1 21 -5 27 -16 16 -32 14 -18 -2 6 -8 9 -24 6 -36 -3 -17 0 -21
11 -17 12 4 12 2 4 -14 -6 -11 -7 -20 -3 -20 4 0 0 -5 -9 -10 -10 -6 -15 -19
-13 -32 3 -11 1 -18 -2 -14 -10 9 -12 56 -2 51 4 -3 10 2 13 10 3 9 -1 18 -10
22 -13 5 -13 7 -2 14 10 7 10 9 1 9 -7 0 -13 5 -13 11 0 5 5 7 10 4 6 -3 10
-1 10 4 0 6 -4 11 -9 11 -6 0 -9 12 -7 28 1 15 -2 33 -8 41 -14 18 -16 41 -4
41 6 0 8 -6 5 -14 -7 -18 12 -36 30 -29 9 4 16 -2 20 -16 3 -13 11 -20 19 -17
8 3 13 0 11 -6 -1 -6 5 -13 13 -15 12 -4 12 -3 2 5 -8 5 -13 12 -13 16 3 23 0
30 -9 16 -8 -12 -10 -9 -10 12 0 14 6 28 13 31 6 3 2 4 -10 4 -12 -1 -20 -4
-18 -7 2 -3 -6 -7 -17 -7 -20 -2 -20 -1 -2 12 11 7 16 17 12 21 -4 4 -2 14 4
23 7 9 8 13 4 9 -5 -4 -15 -3 -23 3 -17 15 -95 19 -90 5 2 -6 13 -10 23 -9 10
1 13 0 6 -3 -17 -8 -5 -24 13 -18 8 4 12 10 9 15 -3 5 -2 9 2 9 9 0 33 -32 33
-45 0 -5 -4 -2 -10 8 -16 27 -53 4 -38 -24 16 -32 20 -67 8 -75 -8 -4 -7 -9 2
-16 11 -8 11 -9 1 -6 -8 2 -13 7 -12 11 0 4 -6 15 -15 24 -12 11 -13 19 -6 26
16 16 13 44 -4 51 -18 7 -20 -5 -3 -22 7 -7 10 -12 8 -13 -56 -9 -55 -9 -37 2
9 6 15 15 11 20 -3 5 0 17 7 25 9 11 9 18 1 26 -24 24 -13 38 22 33 28 -3 34
-1 29 10 -3 8 -10 12 -16 8 -6 -3 -7 -1 -3 5 4 7 3 12 -3 12 -5 0 -12 -6 -14
-12 -4 -10 -6 -10 -6 -1 -2 26 23 25 45 -2 13 -16 26 -26 30 -22 4 4 2 7 -5 7
-6 0 -11 8 -9 17 2 10 -3 18 -12 18 -9 0 -15 9 -14 22 1 13 -3 20 -7 17 -5 -3
-6 -10 -3 -16 4 -7 2 -8 -5 -4 -7 5 -9 16 -5 29 l7 22 -24 -20 c-13 -11 -21
-16 -17 -11 4 5 2 16 -5 24 -9 13 -9 14 1 8 6 -4 12 -2 12 3 0 6 -7 11 -15 11
-8 0 -15 5 -15 11 0 8 -6 7 -17 -2 -16 -12 -17 -12 -6 2 7 9 9 20 5 25 -4 4 1
2 12 -6 10 -8 25 -15 33 -16 21 -3 -3 23 -29 32 -17 5 -18 8 -7 16 10 7 8 8
-9 5 -20 -5 -21 -3 -10 10 11 14 10 15 -12 8 -25 -8 -25 -8 -5 11 11 11 16 16
11 12 -16 -12 -28 -9 -19 5 11 18 13 38 2 31 -5 -3 -6 -10 -3 -16 4 -7 2 -8
-5 -4 -7 4 -10 13 -8 19 6 16 -11 47 -25 47 -6 0 -3 -10 8 -22 19 -23 19 -23
-1 -7 -22 18 -58 21 -52 5 2 -6 11 -10 19 -8 9 1 22 -6 29 -15 12 -16 12 -17
-2 -5 -9 7 -24 10 -33 6 -10 -4 -16 -1 -16 7 0 16 -13 3 -16 -17 -2 -11 3 -14
14 -9 30 12 36 10 39 -10 2 -17 2 -17 -5 -3 -5 12 -11 15 -22 8 -8 -5 -10 -10
-4 -10 17 0 14 -48 -4 -62 -13 -11 -14 -10 -5 7 21 39 4 66 -27 42 -13 -10
-13 -10 -4 3 13 16 -7 46 -20 32 -4 -3 -4 1 0 11 6 16 17 21 38 18 5 -1 6 5 2
14 -3 9 -6 19 -6 21 0 2 -5 4 -10 4 -6 0 -9 -3 -8 -7 2 -5 -8 -19 -21 -32 -15
-15 -22 -18 -18 -8 7 18 -15 41 -29 29 -5 -4 0 4 11 17 18 22 18 24 2 18 -10
-4 -16 -3 -12 2 3 5 -1 12 -7 15 -7 3 -3 3 8 1 34 -9 20 55 -15 67 -8 2 -15
15 -17 29 -1 13 0 19 2 12 3 -7 12 -9 20 -6 7 3 12 8 10 12 -3 4 -1 13 3 20 6
9 11 10 15 2 4 -6 2 -11 -5 -11 -7 0 -4 -7 7 -15 11 -9 13 -13 4 -10 -9 3 -24
-1 -35 -9 -17 -13 -18 -15 -3 -16 9 0 20 5 23 10 8 13 25 3 25 -13 0 -8 -3 -8
-9 2 -5 7 -11 9 -14 4 -3 -5 -3 -13 1 -18 12 -18 30 -15 35 5 3 11 1 20 -3 20
-5 0 -7 9 -5 19 2 11 -5 27 -16 36 -10 10 -16 22 -13 26 3 5 -2 12 -11 15 -8
4 -14 14 -13 23 2 9 -3 15 -9 13 -14 -2 -18 14 -5 21 9 5 -13 -1 -34 -9 -13
-6 -15 -1 -12 21 2 17 -2 30 -11 33 -9 3 -11 -2 -7 -19 3 -13 3 -18 0 -11 -3
6 -11 9 -17 5 -7 -4 -4 5 6 20 12 18 13 26 5 25 -8 -2 -13 6 -12 19 0 12 -3
20 -7 18 -4 -3 -14 6 -23 20 -12 18 -13 25 -4 25 9 0 9 3 -2 9 -20 13 -34 2
-19 -15 7 -8 7 -14 1 -14 -17 0 -23 32 -10 48 11 13 10 14 -9 4 -25 -14 -45
-16 -24 -3 8 5 16 17 17 25 1 9 -2 13 -9 9 -7 -4 -8 0 -4 11 4 9 3 15 -2 11
-5 -3 -11 0 -13 7 -3 7 -7 5 -11 -6 -4 -10 -3 -15 3 -11 6 3 10 1 10 -4 0 -6
-5 -11 -11 -11 -5 0 -8 -4 -5 -8 3 -5 -1 -9 -9 -9 -8 0 -15 4 -15 9 0 4 5 8
12 8 6 0 9 3 5 6 -3 3 -2 17 3 30 7 19 6 24 -5 24 -8 0 -15 5 -15 11 0 5 5 7
12 3 7 -4 8 -3 4 5 -6 9 -11 9 -24 -1 -13 -11 -14 -11 -7 1 11 19 15 62 5 56
-5 -3 -11 -1 -15 4 -3 6 -13 8 -23 5 -9 -3 -7 1 6 8 12 8 19 17 16 21 -11 11
-26 8 -19 -3 3 -5 1 -10 -4 -10 -6 0 -10 10 -8 23 1 16 -3 22 -18 22 -15 0
-19 6 -17 23 2 13 -3 25 -12 28 -9 3 -13 11 -9 17 3 6 1 7 -5 3 -6 -4 -9 -13
-6 -21 4 -8 11 -12 17 -8 6 4 7 1 2 -7 -6 -10 -11 -9 -22 5 -9 14 -13 15 -13
4 0 -12 -2 -12 -10 1 -5 8 -15 15 -21 15 -7 0 -13 6 -15 13 -1 7 0 8 3 2 3 -7
10 -7 21 2 10 8 13 9 9 1 -4 -6 -3 -15 3 -18 13 -8 9 40 -5 52 -4 4 -5 3 -1
-4 5 -9 -2 -12 -23 -10 -16 1 -27 6 -24 10 3 5 11 6 17 4 7 -3 13 1 13 8 0 7
-7 11 -14 8 -8 -3 -13 -2 -11 3 2 5 -2 10 -7 11 -6 1 -9 -4 -9 -12 1 -8 -4
-11 -13 -8 -10 4 -11 9 -4 16 14 14 14 30 1 22 -5 -3 -10 -2 -10 4 0 5 5 11
12 13 9 3 9 6 0 12 -7 4 -12 2 -12 -3 0 -6 -11 -11 -25 -11 -14 0 -25 4 -25
10 0 5 6 7 14 4 8 -3 17 -1 20 4 3 5 -2 9 -12 8 -9 0 -16 4 -15 11 2 8 -4 10
-14 6 -11 -4 -14 -3 -9 6 5 7 2 10 -6 9 -7 -2 -12 3 -10 11 3 12 0 12 -12 1
-19 -15 -21 -24 -4 -14 7 4 8 3 4 -4 -5 -9 -14 -7 -31 4 -13 9 -29 13 -34 10
-5 -4 -13 -1 -17 5 -4 7 -3 9 4 5 11 -7 11 48 -1 60 -3 4 -5 -3 -2 -15 2 -13
-1 -21 -11 -21 -8 0 -14 10 -14 23 -1 20 -2 20 -11 4 -5 -9 -7 -22 -3 -29 5
-7 3 -8 -5 -4 -7 5 -10 15 -7 23 3 8 2 11 -3 8 -5 -3 -12 4 -16 15 -4 11 -10
18 -15 15 -5 -3 -11 -1 -15 5 -3 5 -1 10 6 10 7 0 10 3 6 6 -3 3 -10 3 -16 0
-14 -9 9 -47 24 -39 5 4 6 2 2 -2 -14 -16 -36 -14 -30 3 4 9 2 13 -5 8 -7 -4
-9 4 -7 24 3 25 2 28 -9 17 -8 -6 -12 -15 -10 -18 2 -3 -3 -6 -11 -6 -8 0 -12
4 -9 9 3 4 -2 11 -11 14 -12 5 -13 10 -4 20 8 10 6 12 -10 9 -13 -2 -27 4 -37
18 -12 15 -15 17 -11 5 4 -10 2 -18 -2 -18 -12 0 -23 29 -16 41 4 5 -1 6 -9 3
-9 -3 -14 -9 -12 -13 3 -4 0 -13 -6 -21 -8 -13 -9 -13 -5 1 3 9 1 22 -3 30 -5
8 -4 20 3 29 10 13 10 13 -4 3 -9 -7 -20 -9 -25 -5 -4 4 -2 -1 6 -11 11 -16
11 -18 -1 -15 -8 2 -16 14 -19 28 -3 14 -10 24 -15 23 -17 -2 -46 18 -40 28 4
5 3 9 -2 8 -19 -3 -34 2 -29 10 3 4 -5 7 -19 6 -16 -2 -22 1 -19 10 3 7 0 16
-7 21 -8 4 -10 3 -5 -4 4 -7 3 -12 -2 -12 -6 0 -12 7 -16 15 -6 18 -33 20 -38
3 -3 -7 -7 -5 -11 6 -4 9 -3 15 2 11 5 -3 13 0 17 7 4 7 4 10 -1 6 -16 -15
-46 12 -40 35 5 19 5 20 -5 5 -6 -10 -16 -18 -23 -18 -7 0 -6 4 3 10 8 5 12
10 8 11 -5 1 -12 3 -18 4 -5 1 -17 3 -25 4 -8 0 -14 7 -12 14 1 6 -4 11 -11 9
-7 -1 -12 4 -10 12 2 8 1 14 -2 14 -16 -4 -48 24 -44 37 4 8 3 15 0 15 -3 0
-6 -4 -6 -10z m540 -504 c-6 -8 -19 -12 -28 -9 -14 5 -15 3 -5 -7 11 -11 17
-11 39 0 24 14 27 13 45 -12 11 -15 26 -25 34 -22 12 5 32 -30 27 -48 -2 -8
13 -12 33 -9 6 1 0 -7 -13 -17 l-23 -18 26 -2 c15 -1 24 2 20 8 -3 6 -2 10 4
10 15 0 9 -39 -8 -45 -7 -3 -24 2 -37 10 -13 9 -24 13 -24 10 0 -12 6 -20 13
-17 4 1 7 -3 7 -9 0 -5 4 -7 10 -4 5 3 17 -3 27 -14 9 -11 21 -18 27 -15 6 3
2 -2 -8 -10 -12 -10 -28 -14 -40 -10 -18 6 -19 5 -7 -10 11 -13 11 -19 1 -31
-11 -13 -9 -15 11 -13 30 4 53 29 36 40 -9 6 -9 8 0 8 16 0 26 -17 13 -25 -5
-3 -10 -11 -10 -17 0 -7 4 -7 13 1 14 11 27 5 27 -13 0 -6 -4 -4 -10 4 -8 12
-10 12 -16 -4 -5 -14 -9 -15 -16 -4 -8 10 -9 10 -5 -2 2 -9 14 -14 28 -12 19
2 21 0 11 -10 -17 -17 -15 -33 3 -18 9 7 18 10 22 6 3 -3 1 -6 -6 -6 -7 0 -10
-4 -6 -9 3 -6 -7 -8 -22 -5 l-28 4 25 -14 c13 -8 32 -12 42 -11 10 2 18 -1 18
-7 0 -5 -7 -8 -15 -5 -22 9 -26 -8 -4 -21 11 -7 19 -8 19 -2 0 5 5 10 11 10 6
0 2 -12 -9 -27 -10 -16 -17 -33 -15 -40 6 -16 -14 -26 -33 -15 -11 6 -13 11
-5 16 6 4 11 2 11 -3 0 -6 4 -11 9 -11 6 0 9 9 8 19 -1 24 -31 24 -46 -1 -9
-14 -7 -19 9 -28 23 -12 26 -26 7 -33 -24 -9 -50 19 -38 42 7 13 8 22 1 26 -5
3 -10 -1 -10 -9 0 -9 -5 -16 -11 -16 -5 0 -7 -6 -3 -12 6 -10 5 -10 -8 -1 -8
7 -18 9 -23 5 -4 -4 0 7 8 24 15 29 15 33 1 45 -22 18 -38 50 -23 47 6 -2 14
3 16 10 3 7 1 12 -4 11 -27 -5 -36 1 -20 14 15 11 15 15 2 41 -19 37 -19 42 6
77 l20 29 -33 -4 c-28 -3 -30 -2 -15 9 15 11 15 14 3 24 -11 9 -15 9 -20 -1
-3 -7 -4 -4 -3 6 1 14 -6 22 -23 26 -14 4 -24 13 -22 20 2 8 -3 10 -15 6 -14
-6 -15 -4 -6 5 13 13 37 3 28 -12 -4 -5 1 -9 11 -9 15 0 15 2 1 23 -8 12 -21
21 -27 19 -6 -1 -9 2 -6 7 3 5 -7 14 -24 21 -28 12 -29 12 -10 32 10 11 23 17
29 13 6 -3 11 -1 11 4 0 6 5 11 11 11 8 0 8 -4 -1 -14z m3463 -8183 c-5 -11
-3 -14 6 -8 8 4 17 2 22 -6 8 -11 13 -10 27 6 20 23 43 31 40 14 -4 -14 30
-21 38 -8 8 14 34 -10 34 -32 0 -12 5 -16 14 -13 29 11 46 -65 20 -90 -9 -9
-11 -16 -4 -16 6 0 8 -5 5 -10 -4 -6 -10 -8 -15 -5 -4 3 -6 -4 -3 -15 3 -11 0
-20 -6 -20 -6 0 -12 5 -12 10 -1 6 -2 14 -3 19 0 5 -4 13 -8 17 -12 11 0 -37
13 -52 10 -12 9 -13 -6 -8 -14 6 -16 4 -10 -7 7 -11 6 -12 -7 -2 -8 7 -18 9
-23 5 -4 -4 -3 3 4 15 14 28 15 54 1 33 -8 -11 -9 -8 -4 12 4 21 1 27 -15 33
-21 6 -25 33 -8 46 5 3 -2 18 -16 33 -25 27 -49 37 -28 12 8 -9 8 -16 2 -20
-5 -4 -16 3 -24 14 -7 11 -17 17 -20 13 -4 -3 -2 -12 4 -20 7 -8 8 -13 1 -13
-5 0 -12 7 -16 15 -3 9 -12 12 -23 9 -17 -5 -17 -5 0 6 9 6 15 15 12 21 -4 5
-3 14 0 19 10 16 15 12 8 -7z"/>
<path d="M4280 8880 c-22 -31 -22 -33 -6 -67 14 -29 14 -38 4 -52 -7 -9 -8
-13 -4 -9 5 4 15 3 23 -3 11 -10 11 -14 -3 -23 -14 -11 -14 -14 4 -36 15 -19
18 -29 10 -43 -5 -10 -7 -21 -5 -24 3 -2 11 5 17 17 9 17 14 19 26 9 12 -10
13 -9 9 3 -5 12 2 15 29 13 40 -2 46 9 16 25 -11 6 -18 15 -15 21 4 5 1 9 -4
9 -11 0 -15 -13 -12 -36 1 -6 -6 -11 -14 -11 -9 0 -14 6 -11 13 3 8 0 16 -6
20 -7 5 -8 2 -3 -6 6 -10 4 -11 -6 -4 -8 5 -17 9 -21 9 -3 0 -10 4 -15 9 -5 5
-3 6 5 2 7 -4 12 -2 12 6 0 9 3 9 10 -2 9 -13 10 -13 10 0 0 13 1 13 10 0 5
-8 12 -11 16 -7 4 4 -1 14 -12 21 -18 14 -18 15 -1 22 17 6 17 7 -3 21 -11 8
-17 19 -13 26 4 7 -1 6 -11 -2 -22 -18 -42 4 -24 27 8 9 8 16 0 24 -16 16 -3
42 14 27 21 -17 31 -2 12 17 -14 14 -18 13 -38 -16z"/>
</g>
</svg>
