<?xml version="1.0" encoding="UTF-8" standalone="no"?>
<svg
   version="1.0"
   width="1024.000000pt"
   height="1024.000000pt"
   viewBox="0 0 1024.000000 1024.000000"
   preserveAspectRatio="xMidYMid meet"
   id="svg10"
   sodipodi:docname="S.svg"
   xmlns:inkscape="http://www.inkscape.org/namespaces/inkscape"
   xmlns:sodipodi="http://sodipodi.sourceforge.net/DTD/sodipodi-0.dtd"
   xmlns="http://www.w3.org/2000/svg"
   xmlns:svg="http://www.w3.org/2000/svg">
  <defs
     id="defs14" />
  <sodipodi:namedview
     id="namedview12"
     pagecolor="#ffffff"
     bordercolor="#666666"
     borderopacity="1.0"
     inkscape:pageshadow="2"
     inkscape:pageopacity="0.0"
     inkscape:pagecheckerboard="0"
     inkscape:document-units="pt" />
  <metadata
     id="metadata2">
Created by potrace 1.16, written by Peter Selinger 2001-2019
</metadata>
  <g
     transform="translate(0.000000,1024.000000) scale(0.100000,-0.100000)"
     fill="#000000"
     stroke="none"
     id="g8">
    <path
       d="m 6303,9694 c -64.8928,-44.7054 -204.7736,-48.8533 -193,-44 -19.3631,49.6211 -221.4665,-20.1254 -124.75,-28.75 -76.2068,1.7139 -77.1403,-13.1403 -130.25,-22.25 -69.4509,-6.7423 -98.6881,-101.9509 -98.75,-48.375 -16.5744,69.6037 -138.6084,54.4933 -117.375,9.25 -96.7677,-56.1648 -213.4996,-48.1331 -159.875,-52.875 -18.324,-36.2463 -176.2416,-88.1865 -135,-68 8.6903,-26.4377 -216.3592,-46.6423 -165,-41 153.6802,46.0238 -37.2204,-34.8202 -48,-13 -57.6306,-40.9282 -339.7752,-50.9071 -254,-30 4.3795,60.0386 -198.5639,-11.5136 -131,-13 -179.2183,35.2624 -153.8746,-35.8853 -216,18 1.5907,-86.505 -109.1396,-37.462 -156,37 13.8457,-57.5052 -209.9517,75.1334 -84,-5 -121.9589,15.8038 -389.2372,238.8126 -169,68 -78.2133,-33.1658 -235.6562,-117.8449 -175.625,-66.875 C 3841.4155,9302.9524 3797.1171,9366.4661 3789,9299 c -4.4565,-104.0628 -159.9362,-62.1448 -88.25,-64.5 -18.2206,-74.597 106.6762,-157.622 47.25,-120.5 -35.1071,-76.7011 -323.848,-183.8298 -239,-138 15.5594,-75.304 218.9476,-99.5722 142,-116 105.0598,31.4619 169.8138,85.9828 93,27.25 97.3395,-152.4318 49.5148,103.1495 -9.25,-70.25 62.8994,-43.4155 -462.1354,-216.5239 -253.75,-121.875 -50.0429,-55.46 -170.7243,-25.1431 -135,-107.125 -97.6368,-8.9132 -310.8777,-183.6308 -243,-114 -76.5309,-76.5269 -203.5246,-237.1161 -177,-213 -50.7074,-52.6639 -207.0298,-151.7885 -203.25,-152.75 -174.8124,-107.5818 -316.3009,-167.5655 -250.75,-126.375 -59.169,27.7855 -153.8347,-44.5069 -118,-59.875 -77.7508,-110.5224 -123.7574,-384.6026 -124,-252 -50.8225,-75.125 -72.4168,-205.5793 -36,-142 -28.3176,-6.705 -61.6554,-46.8557 -13.75,-83.75 -15.9008,-79.5024 6.0149,-187.5582 -7.25,-134.25 -12.6217,-20.3408 -30.9477,-251.5422 -22,-189 -8.9281,-96.081 0.857,-210.4823 12,-159 9.4566,77.0229 78.77,-210.4306 37,-144 -35.9209,-54.1617 -19.7138,-238.5801 11.25,-127.5 19.991,36.6604 16.8586,-40.2202 39.9531,-114.9062 93.4263,-109.3421 85.3246,-205.1239 80.0469,-123.8438 26.1264,-2.6549 78.1416,-179.9956 121.375,-139.875 80.8422,0.5961 149.9376,-102.4163 157.375,-108.875 62.6714,-53.2869 187.0898,-130.5096 146.875,-88.625 -34.0123,-5.9218 87.6577,-66.6415 106.125,-63.375 181.7147,-73.3097 99.8685,-31.0237 149,-42 -63.5465,-85.6931 114.8383,-196.2938 132,-111 58.3481,41.4126 171.2848,-12.0662 96,-33 36.3462,31.2417 177.6124,39.4493 177.375,-44.125 31.6478,-51.8289 235.3286,-159.6556 193.625,-102.875 88.7418,19.4267 252.1876,-97.1118 213,-71 61.0416,21.5233 155.5905,-36.5689 108.5,-15.625 71.542,2.6465 201.7991,-112.3565 116.5,-88.375 76.0092,-75.3445 112.8217,-171.7771 98.75,-146.375 49.1524,-28.1457 134.3376,-30.6084 119.5,-23.625 35.8553,-41.2366 127.7061,-67.9862 140.75,-47 96.0131,-105.4954 183.4964,68.2362 127,41 20.4015,-59.7975 -31.2192,-198.3067 94,-78.25 -25.5186,-87.1348 -159.6272,135.8722 21,-108.75 47.892,-6.7756 197.207,-127.8381 155,-68 39.6582,23.5611 179.2391,-34.9223 125.875,-29.75 -1.1489,-32.8967 162.6876,-163.1696 127.125,-90.125 32.1792,24.1885 212.549,-97.2304 127,-72.125 51.8131,-39.5349 179.5439,-135.3463 154,-85 87.02,-14.0526 289.7703,-66.9109 210.875,-95.125 -144.6169,-64.7835 -59.6,-144.4295 19.125,-69 115.6664,-37.5579 259.4669,-138.3499 158,-89.875 33.7172,-7.4388 197.3052,-217.4664 149.75,-127.375 -14.1167,63.5891 27.5837,-44.3426 81.75,-72.75 -25.3326,24.9695 60.8616,-72.7984 64.25,-42.375 76.0067,-86.3814 170.5643,-85.4921 137.25,-103.5 -11.163,-0.1982 387.2798,-1166.0591 66,-133 29.7583,-5.0324 149.1305,-204.1407 107.125,-129.5 127.8376,70.7445 249.9347,-13.0044 141.875,-20.5 -55.95,-47.6839 64.3577,-149.5613 41,-104 -16.4282,29.3033 28.6215,52.9051 34,-77 10.9739,-177.4779 -82.8004,31.125 -45,-101 -29.9729,-62.8241 117.1666,-322.5981 46.375,-120.625 30.4306,-8.0755 38.9748,40.9132 78.625,31.625 50.0717,-76.7082 -53.6426,-126.1229 123.5,-120.375 74.4058,-157.1945 225.1058,-184.5462 149.5,-54.625 42.7432,-43.4727 19.7963,-88.1017 -3,-101 -132.1216,112.953 -173.6998,28.6766 -100,-33 5.9462,3.013 -173.1258,48.3469 -106.875,-36.875 47.2536,-13.6917 37.7972,41.1917 61.75,41.125 -73.6155,-21.3275 -83.1786,124.9476 -85.875,57.75 56.7614,69.9215 -52.9025,11.9827 -64.875,69.8438 54.8488,78.3037 17.7007,-52.1492 -4.125,-28.8438 48.2272,-108.4851 -33.5334,-117.5657 1,-92 -56.1067,37.1542 -184.1927,-130.4066 -127,-105 -116.3008,-139.9163 -220.2398,-147.4035 -116,-109 39.6082,-139.2848 -77.1004,-27.382 -132,-214 38.7095,-8.3519 -49.6692,-49.5884 -42.75,-43.625 -21.9342,48.4521 -58.1107,-62.5516 -75.125,-43.25 C 6024.4736,2711.8021 5963.5504,2641.3819 6032,2636 c -34.9609,-37.0689 16.3941,-58.6173 -4.25,-71.875 51.4623,-43.704 82.804,108.4884 -9.75,-47.125 -12.5438,37.7057 61.4491,-86.8915 -39.875,-115.25 -103.1024,-79.8054 -70.3742,-212.8295 -102.875,-158.875 -67.2386,13.9928 -126.727,-127.1032 -114.25,-97.875 -125.521,-32.358 -119.8871,-75.3961 -43.75,-50.75 -123.2087,-26.9452 -120.7049,-118.4274 -73.25,-67.25 -148.4045,2.6492 -214.5976,-123.6307 -140,-65 -5.1714,19.7099 -115.4595,-86.6283 -100.75,-27.375 9.3169,-6.6925 -220.8006,-80.292 -189.25,-64.625 51.7191,-11.1448 -116.1027,-46.5788 -90,-51 5.3297,80.5252 -150.8499,30.0147 -114,-6 10.188,-18.75 -57.0064,-68.0708 -96.125,-36.25 1.2208,-28.1721 -220.0349,-100.2084 -158.875,-37.75 -33.3738,-41.2246 9.6234,72.7595 -101,-8 -126.5569,-23.6926 -129.5788,77.7914 -138,-16 70.6609,-11.1539 -33.5469,-32.3217 51,17 -174.2427,-31.8975 -523.7346,233.0582 -155,-6 -62.6032,-5.3926 -270.5749,-115.8649 -194.75,-55.125 21.6128,86.172 -228.697,8.0591 -173.375,9.625 -49.3571,36.255 -187.2178,44.8833 -51.875,-8.25 -40.8164,-113.8255 -169.1745,-69.9145 -92,2.75 97.3113,-49.6575 -159.9759,31.535 -2,-48 -118.8482,89.1749 -397.0696,89.3249 -292.625,73.625 -17.1565,46.6021 -12.9775,91.8323 -70.125,25.5 -124.813,27.2913 -222.9975,75.6908 -161.25,34.875 3.1349,-51.9496 -89.4676,52.9869 -82,45 34.512,-95.0424 -58.7965,29.874 -148,55 -105.8625,10.0205 -216.7384,108.1951 -153.375,77.875 -60.9544,32.9134 -79.583,101.2092 -93.625,104.5 -53.1899,6.3738 -182.3024,185.2953 -111,126.625 -47.7768,72.3936 -103.9746,163.5698 -78.75,113.625 -76.6147,75.5249 -28.4337,278.1162 -31.25,159.375 -56.3299,61.4977 41.3266,98.0332 46,102 20.1453,38.2849 140.2477,-12.6579 75,43.75 109.0289,-42.4185 307.4299,-37.3136 204.25,-61.5 167.4284,-82.6955 278.5764,-258.0353 161.75,-206.25 34.4951,37.4525 23.3836,-88.7043 58,3 -16.5984,-100.5574 99.5473,-240.5207 132,-130 119.1278,39.7942 104.0173,-112.0956 93,-38 38.9572,82.3746 113.4977,-91.29 121.125,-68.875 3.9415,-27.6399 50.5315,-11.039 62.875,-12.125 45.4215,47.9005 310.8333,72.4294 193,14 27.1913,-45.2021 162.4355,-33.0225 108.875,-1.125 87.0791,-5.4396 268.5121,30.1144 155.125,33.125 39.6487,-13.0781 307.447,-33.1217 179.5,-2.875 48.1612,19.3965 287.9473,66.7631 162.259,44.1649 -3.057,-53.0953 171.1013,-6.9072 98.241,-6.2899 -79.2398,-14.3784 -43.6724,-57.9582 50,23 101.7063,25.3137 264.5728,56.9862 197,65 14.2742,115.9349 139.3411,-213.0393 68,129 -20.4164,48.0974 -48.5468,194.7959 -54,116.125 -4.3319,8.7246 -151.0818,187.0129 -85,145.875 -69.4854,0.9704 -159.5034,-30.846 -116,4 -87.9106,39.0879 -182.7336,167.3246 -140,115 -131.726,11.0205 -63.1782,-18.1964 -25,-32 -29.868,-81.6093 -15.8994,90.5266 -57,32 20.3358,46.2026 -68.1181,46.4022 -61,20.5 -32.9585,78.6757 -58.6715,-15.3693 -108,59.375 -4.8844,37.1249 -213.0485,163.0347 -210.25,103.25 -75.9046,-15.2028 -178.675,49.2211 -121.75,35.875 3.6048,-19.8788 -271.3587,2.759 -227,17 -109.3436,23.0126 -387.0632,132.1993 -266,75 -126.1759,70.239 -205.5978,120.5212 -214,113 -35.4342,2.7212 -239.263,31.1868 -132,45 -228.606,88.5295 -418.232,177.767 -136,68 -14.1115,-42.4863 -170.9073,-26.8563 -156.875,-41.5 -160.4394,-38.4419 -292.9435,-67.5303 -267.875,-64 12.5804,-29.0077 -79.3411,-84.8914 -71.25,-59.5 -95.4551,-94.7537 -281.2452,-248.9912 -188,-162.125 -2.5468,-55.0123 -43.4264,-35.6935 -34,-73.875 -67.1521,42.5464 -189.5518,-98.2408 -99.25,-92.125 22.16,-82.2968 -56.9222,-305.9391 -45.625,-171 12.0592,-89.3348 -17.6364,-159.5338 -18.625,-117.75 -20.072,-101.5842 69.2941,-323.1058 17.5,-193.125 21.4228,-51.5869 83.3842,-260.9346 41.625,-191.25 17.9819,-85.7947 -23.2977,181.1324 27.375,10.25 42.7324,-27.3531 41.5311,-166.5064 33,-33.875 -112.179,-47.6931 81.3933,-295.7342 45,-187.125 -55.4012,75.8924 -4.0125,-37.1877 -42,7 34.6303,-33.7186 49.9869,-61.5153 61.375,-92.875 20.6363,-150.5148 118.7938,-50.3403 107.625,-152.125 -37.7783,-7.8567 -117.0295,-120.4893 18,-65 55.9592,12.7408 101.9528,18.5717 83,-44 3.1112,-57.5502 141.4966,-124.2024 141.4429,-89.9012 -14.0277,-146.8499 42.6238,-51.5311 22.5571,-34.0988 35.7268,-64.2916 224.1161,-158.4172 140.75,-136.375 27.0922,31.7249 294.1191,-25.1491 211,-69.75 -3.3732,-107.3002 89.5946,-14.9551 76.25,-24.875 39.7103,-80.5499 161.3211,-90.4137 88,-54 -69.4141,-88.4774 298.5579,79.821 86.375,-10.875 -11.0506,-79.4391 141.5669,-134.0298 139.625,-78.125 25.9648,-22.1418 -42.5862,-117.83931 46.875,-45.625 121.3389,17.1236 217.5616,32.4013 181.5,23.5 103.3323,-84.68379 53.0938,24.2026 184.625,-58.875 -21.3356,24.9107 62.3721,82.6815 111,23 95.4463,-31.8364 137.2194,-15.7564 196,7 49.0999,-25.74814 137.2833,11.0809 108,-6 43.2435,-6.9306 212.0953,-61.97888 129,-17 110.023,-22.75901 -5.364,208.958 93,6 106.5031,-12.85163 180.1829,-53.24332 115,-5 121.7634,20.2659 222.8125,46.2547 199,43 85.135,-53.07509 30.1538,47.9664 91.625,10.75 68.3266,11.0497 250.7352,96.6482 159.375,68.25 -97.2707,-104.6668 5.9242,-43.1494 55,15 106.2362,-44.1027 213.8365,-26.5625 136,23 83.7177,14.7649 236.886,7.9515 156,41 8.7788,43.1018 167.9233,88.3126 93.5,54.25 106.917,89.1551 190.0973,184.7049 172.25,115.625 107.5605,14.2891 255.5292,119.7927 119.25,72.125 100.3657,89.2628 177.0103,191.0425 131,113 31.9728,40.188 127.7335,116.6643 89,52 66.2487,132.3385 153.1073,196.4023 86,86 40.9232,21.7268 132.7497,110.4562 84,53 -28.981,-30.8602 6.5206,-89.0696 40,25 49.8939,101.9332 126.6439,198.5633 91,146 28.4217,-25.9699 94.0079,190.3866 43.875,37.75 -92.8141,70.494 67.8495,84.3471 51.25,112.5 -85.9872,-114.1862 -109.2857,19.0008 23.75,36.25 15.8017,42.416 185.3931,50.1885 90,55.25 92.2381,138.8914 165.4994,215.0018 115.125,151.25 26.5781,9.7793 143.9928,65.6494 69,80 67.064,20.1023 84.3235,107.3014 70,86 49.883,58.0887 45.7796,151.7725 43,118 -27.1513,11.9203 61.0811,139.7342 46,80 -53.9604,136.0481 -3.0563,-73.56 71.75,-14.25 32.3193,-54.3263 52.3122,-290.5402 40.25,-206.75 -39.3705,-52.1176 83.56,-81.5387 63,-114 81.4376,-95.0799 101.598,180.8813 60,77 50.3306,160.1715 189.9443,151.1522 105,44 13.1401,51.8708 -30.2472,97.8922 24.125,112.75 -44.1282,97.2777 146.1198,136.5375 47.875,85.25 29.4753,43.8926 16.6094,208.9473 21,175 11.9807,69.7298 57.6341,275.8199 29.625,177.875 -25.341,40.6392 -24.8386,309.9899 -31.625,205.125 -17.6342,49.8576 -90.4872,197.5974 -66.75,136.75 -23.2779,36.3065 -62.9469,63.3929 -59.25,84.25 -32.6508,78.9256 -73.9985,195.9672 -58,139 -11.2817,33.084 -77.2653,227.9352 -65,167 -22.1759,129.0984 -87.5408,-42.9078 -64,151 -62.0692,62.0947 -98.3825,188.7176 -70.75,126 0.2212,52.4574 -174.571,326.134 -148.25,280 -61.2907,29.3159 -151.2803,253.1537 -88,156 -32.8184,60.6018 -84.802,227.2091 -73.125,131 -89.6834,-4.7549 -221.1317,260.4988 -149.875,193 -48.2239,51.4184 -121.0649,241.7771 -111,170 -83.7104,38.3314 -216.9367,199.586 -158,133 -44.0345,49.285 -204.83,147.9304 -145,116 -42.0665,83.7757 -167.0298,196.9041 -119,129 -96.1332,89.1669 -172.6456,234.3218 -122,124.625 -83.3104,0.8315 -236.8991,115.1494 -171.25,84.375 -75.3113,-9.0382 -286.416,113.4342 -181.75,84 -63.9866,24.0946 -193.5911,61.1591 -144,66 -89.0643,58.693 -86.8965,72.221 -127,49 -15.3346,45.5403 -170.3974,120.9155 -91,60 -79.0803,28.004 -249.5127,150.07 -180,102 -41.3529,32.3141 -270.2145,122.5791 -214,99 -193.7065,42.6516 -157.8866,37.4562 -175,61 -93.3828,20.513 -308.3718,148.6228 -240,135 -40.7785,-5.9012 -191.3311,130.602 -149,98 -73.0285,75.1274 -374.9936,166.9702 -251,101 -56.4211,47.0369 -165.4092,115.7476 -133,85 -132.7831,56.921 -267.4979,102.3555 -205,82 -96.8644,32.0877 -155.8849,82.266 -133,66 -62.9071,-9.0538 -252.2956,200.4858 -195,156 -61.9068,46.451 -232.6038,114.4266 -174.875,85.5 -4.4773,76.2135 18.5746,182.4031 -4.125,156.5 -47.0551,37.3121 64.7383,121.0649 36,131 -9.5665,37.9852 -22.1396,266.1095 -20.75,186.75 18.1629,101.9037 -95.0884,223.2248 -96.4429,224.7829 -13.6587,56.578 162.9473,104.1597 85.1929,74.4671 28.0018,34.8807 273.6681,68.4627 172,92 58.5586,-73.487 84.023,-232.7954 3,-117 41.3815,-49.9687 166.1293,-159.7875 112,-135 -36.1071,-118.3862 91.2139,-150.1369 83,-159 48.6308,-6.8926 82.3092,-32.2181 67,-33 -11.1829,91.9478 -76.6187,161.4962 -24,109 86.8109,13.5661 149.1681,187.5892 148,145 80.4762,1.801 223.1711,52.2844 161.875,31.5 14.1966,14.7517 92.426,193.5642 102.125,209.5 37.191,40.3121 185.8266,237.1908 123,204 -2.8154,82.1544 93.1098,243.0139 46,131 22.9464,7.652 144.6377,123.2677 82,135 -28.4224,78.3601 27.369,271.832 30,215 1.5549,39.0236 -0.5501,241.9304 2,183 -23.1126,72.4507 42.3655,84.9358 -29,112 -72.7195,61.1131 -64.9162,135.043 -33,85 91.5682,-4.583 247.8908,53.9107 203,38 41.9307,-39.9186 149.2178,-51.0432 138.375,8.25 91.3452,68.8442 253.672,92.8646 225.625,81.75 131.242,10.3278 510.3818,-13.3768 347,-22 112.0299,-11.5374 440.0504,-17.8154 335.5,-0.25 72.306,20.1546 176.0194,-97.447 170.5,-85.75 0.9196,4.2234 253.3908,-537.8121 85,-159 12.1347,59.4981 322.6191,-242.4051 235.75,-186.375 67.9231,-61.4932 260.5416,-148.4155 149.25,-87.625 100.7881,-57.635 76.649,-130.9417 104.75,-106.25 78.0695,-0.8731 170.7338,-110.9381 94.25,-95.75 -42.6594,21.8636 325.7799,-509.3347 70,-162 -60.4576,27.1976 13.1553,-173.6929 -1.625,-143.375 51.2114,-91.331 249.3165,-258.748 166.625,-185.625 87.1804,-49.5207 290.5764,-178.4297 159.125,-125.875 7.1579,-59.0087 205.8292,-136.9475 132,-88.5 5.5504,14.7182 145.1504,-58.572 162.875,-60.625 39.7555,-31.1277 257.4597,-40.8717 218.625,-26 103.1912,-3.5603 229.3729,45.1553 208.375,62 57.5575,-0.7063 147.3819,87.246 94,55 87.8495,36.6095 242.9662,125.3725 151,113 17.6143,52.1165 93.0255,185.8803 69,127 40.3206,120.3897 63.1795,115.2442 76,225 37.3215,84.6603 17.817,182.7514 25.125,128.625 54.0471,-16.4778 103.4221,50.5122 37.875,86.375 -25.9448,100.3505 -28.6154,282.9951 -4,206 -5.0879,71.3665 -59.2754,313.0553 -39,199 -22.7679,84.0784 -77.2255,293.9031 -71,207 -44.0059,55.8832 -187.5058,281.0363 -114,188 -75.3681,120.9773 -196.0065,263.7118 -160,219 -70.2341,80.9573 -277.3505,264.4946 -194,200 -70.3079,23.2916 -256.2796,125.3847 -176,108 7.0874,38.8603 -178.1809,74.83 -140,63 -127.5383,24.3567 -120.2851,89.0917 -184.875,31.5 -65.6973,29.2394 -83.3176,15.2179 -212.125,37.5 z m -322,-604 c 86.0692,-5.298 184.545,0.61 201.625,-4.625 322.9172,8.9553 -69.3402,-56.3403 193.375,2.625 -67.8891,105.1221 299.111,-182.1264 155.875,-57.875 68.6726,18.7965 326.8125,-182.0704 237.875,-142.25 -0.9086,-18.3591 148.3959,-138.4022 131.875,-125.75 25.9877,-42.0805 114.6604,-188.997 74.25,-119.625 17.9848,-10.1518 53.6278,-419.0204 43.875,-342.5 -11.2603,-47.5033 -157.335,-258.4205 -95.75,-220 -20.2998,-33.9767 -90.562,-82.7686 -79,-67 -120.0966,-95.425 -175.9126,34.636 -154,65.25 17.2659,61.1099 -116.8956,297.257 -90,244.25 -8.4483,53.5528 -72.3746,216.1936 -57.875,142.75 -47.9485,30.0355 -99.1856,200.4124 -73.125,162.75 30.9645,12.9397 -58.9518,252.386 -66,193 -45.5682,53.6572 -225.5975,99.2152 -180,118 -120.8018,21.0018 16.8006,57.4771 -123,48 -15.7937,16.1777 -82.9124,83.2094 -192,69 5.4591,9.1874 26.1481,66.1444 72,34 z m 899,-5941 c 2.4505,-116.0234 37.7446,-228.6874 39.625,-126.5 42.0974,51.042 130.508,-190.5805 85.375,-128.5 13.9045,-170.1449 -49.16,50.3138 -54,22 -32.7435,87.1526 -74.7271,270.6703 -65,138 -70.9271,142.4471 -116.1243,44.3453 -6,95 z"
       id="path4" />
    <path
       d="m 6353,3948 c -48.0624,-46.8804 25.3823,2.6152 52,-62 24.4462,-67.335 130.2269,-206.5274 75.0781,-163.3438 119.5216,69.9994 4.4089,162.9785 -39.0781,118.3438 38.1921,57.8728 -77.9982,146.1841 -88,107 z"
       id="path6" />
  </g>
</svg>
