<?xml version="1.0" encoding="UTF-8" standalone="no"?>
<svg
   version="1.0"
   width="1024.000000pt"
   height="1024.000000pt"
   viewBox="0 0 1024.000000 1024.000000"
   preserveAspectRatio="xMidYMid meet"
   id="svg26"
   sodipodi:docname="s.svg"
   xmlns:inkscape="http://www.inkscape.org/namespaces/inkscape"
   xmlns:sodipodi="http://sodipodi.sourceforge.net/DTD/sodipodi-0.dtd"
   xmlns="http://www.w3.org/2000/svg"
   xmlns:svg="http://www.w3.org/2000/svg">
  <defs
     id="defs30" />
  <sodipodi:namedview
     id="namedview28"
     pagecolor="#ffffff"
     bordercolor="#666666"
     borderopacity="1.0"
     inkscape:pageshadow="2"
     inkscape:pageopacity="0.0"
     inkscape:pagecheckerboard="0"
     inkscape:document-units="pt" />
  <metadata
     id="metadata2">
Created by potrace 1.16, written by Peter Selinger 2001-2019
</metadata>
  <g
     transform="translate(0.000000,1024.000000) scale(0.100000,-0.100000)"
     fill="#000000"
     stroke="none"
     id="g24">
    <path
       d="m 4405,9909 c -242.5821,-57.3722 -195.6575,-45.9013 -225,-36 -17.1003,5.2572 -89.6694,-55.5955 -180.125,-51.75 -136.4331,-1.6648 -317.3164,-35.8138 -206.625,-54.25 -79.7924,7.8652 -211.1649,-46.929 -184.2031,-74.3594 -6.0864,-61.0011 43.7411,-87.7137 -66.0469,-76.6406 -23.722,-68.7794 -65.7825,-146.1949 -105,-90 -141.7425,5.1929 -163.0838,-98.46 -105,-79 -9.1654,-1.1726 -1.6515,-108.1229 -49,-46 -89.5242,43.167 -346.8689,-585.732 -139,-132 -22.4127,5.5952 -72.7702,-138.1888 -97.2656,-133.3906 C 2980.8482,9064.2265 2885.1858,8912.3847 2933,8953 c 3.1806,-117.5112 -68.7297,-320.0747 -57,-232 -4.7869,17.2182 -35.7393,-335.5825 -53.125,-224.875 14.7617,-138.1386 8.6272,-557.0429 -11.875,-412.125 -11.1725,-70.54 17.3803,-361.7612 20.5,-311.625 30.9249,-96.0377 35.7643,-306.9218 38.75,-200.75 -2.7662,-19.5423 5.8835,-182.7445 33.875,-165.125 85.5563,-72.8703 118.9761,-236.1282 65.625,-169.875 22.0796,-97.9811 57.2127,-221.3181 60.25,-142.625 36.0558,-60.636 174.1594,-278.3624 125.625,-228.375 17.3999,-73.8081 122.4763,-244.4193 69.375,-155.625 49.8698,-45.4319 229.5272,-270.4923 152,-176 55.3717,12.5979 -8.6184,-118.6711 34.875,-55.625 122.7458,-83.42 167.6209,-192.7073 124.25,-145.875 -12.9981,-41.3881 22.9991,-102.266 93.875,-72.5 -12.273,-20.1061 175.7476,-263.5486 115.75,-160.25 90.5255,-25.9946 207.6717,-161.3614 145.5,-116.75 88.9509,-65.6038 249.4012,-248.7963 182.75,-173 9.7805,27.183 104.7171,-89.137 123,-110 126.81,-106.8674 125.9004,-42.5912 154,-123 34.9173,-127.3915 200.3727,-273.3188 205,-209 95.1022,12.9611 174.4204,-93.7663 126,-119 39.0137,-140.8478 254.3083,-222.072 164.375,-152.875 -113.4917,-28.0512 -109.0751,-74.7095 2.125,-48.75 83.3907,-91.3462 94.4738,-80.4015 58.5,7.625 154.0988,-161.1404 338.407,-283.9866 274,-218 46.4216,-28.8189 53.9517,-58.0986 74.625,-44.75 73.6001,-82.5781 319.6581,-188.0246 233.5,-202.75 20.4551,-104.7442 103.6625,-131.4216 122.875,-23.5 121.2425,15.2786 175.4911,-28.5941 18,-43 -27.8986,-58.7726 159.5677,-59.9116 128,-78 120.1328,62.0929 -43.9822,-140.2893 86.5156,-16.2344 72.8749,-62.6849 17.5111,-119.5347 21.4844,-98.7656 129.3296,-80.1593 149.8348,36.0064 110.5,12.625 -14.7758,-133.4193 73.1618,-113.2172 92.5,-107.625 -37.3797,68.0047 188.6621,-208.4071 93.375,-27.375 -80.9005,-40.9721 66.1334,25.9828 46.625,16.375 95.038,-31.411 203.7365,58.8191 33,-90 27.394,38.2974 87.786,-124.671 21,-31 42.8516,18.9863 130.1565,11.5894 166.875,-73 161.6145,36.8163 227.4653,-89.1542 184.125,-80 94.9503,8.6437 -60.8272,-120.6384 9,-78 24.8496,-10.6792 208.5465,18.294 150,-25 148.058,-174.5217 -221.9005,-11.0292 -30.25,-94 -1.7593,41.6814 -1.3411,-23.1717 -54.5,33.75 61.2249,-107.7149 282.0928,-334.0181 234.75,-246.75 3.7834,-23.0437 -123.2694,185.1246 -22,89 70.4673,-117.1044 -348.0897,262.1105 -81,61 121.5544,-6.4233 184.0195,-109.9675 119,-26 3.7602,4.8266 90.8809,-60.1006 79,-73 -43.2916,-158.4736 79.079,-54.9909 -63,-109 87.4977,-51.4921 47.0874,-200.6713 72.25,-110.625 6.2551,-117.7276 99.6842,-335.9099 106.75,-222.375 95.6111,-50.7569 229.0248,-229.3544 157,-172 44.0863,21.0898 193.1791,-133.6233 124.75,-120.75 -129.7727,61.9387 9.2435,-197.775 19.25,-156.25 52.3946,-10.1458 68.5921,-281.8694 63,-210 94.4106,-44.5194 87.7321,-226.954 36.2812,-166.9531 C 7497.3408,2052.1007 7369.3988,2104.5777 7403,2157 c -164.0428,-7.188 -282.1782,-29.8296 -200,-71 -52.0423,-60.997 -223.4358,-134.0512 -112.625,-127 30.6605,-86.9215 -142.4463,-54.3278 -137.375,-49 -73.9258,-83.6613 -74.6352,-41.7653 -63.25,66.375 -67.7077,-94.8773 60.9168,-81.6034 -17.75,-155.375 -13.0488,19.1571 -82.315,-201.2958 -49,-74 -27.2641,-30.4228 -107.9825,-50.1655 -54.625,-57.25 -88.0155,20.0796 -160.528,49.0895 -104.375,-27.75 -66.6059,-35.3422 -134.4294,-23.7598 -126.375,-21.125 -35.91,-33.0076 -54.6204,-86.4314 -153.625,-41.875 -61.4317,-27.2871 11.2931,46.6281 -80,12 -115.2347,67.42 -386.2595,22.4141 -234,-46 118.0158,-72.2792 112.2391,5.1031 -6,-24 -257.2979,-83.3934 -6.6517,-3.1286 -245.5,-25.125 -78.9842,33.3687 -151.2783,136.1902 -93,21.375 -86.9807,-37.8666 -189.8663,-86.8576 -143.5,-43.25 -29.1795,62.1945 -258.1019,17.7339 -199.875,10.5 -200.0507,23.7856 -225.8118,-11.2124 -102.125,-60.5 -62.8848,-4.5052 -260.3945,70.2318 -122,96 0.032,26.5419 -98.6636,183.0873 -98,125 -3.5657,-123.3679 6.801,-183.5726 -55,-34 -129.2111,-79.5611 -285.2971,-29.433 -155,-74 -175.506,-7.5007 -173.3691,117.067 -104,102 -28.5053,88.6915 -50.9275,-5.5996 -127.375,-13.875 -30.7107,-21.4334 -51.2953,-17.9954 -136.625,-0.125 99.4164,12.7197 -76.4416,-100.7194 136.125,-53.125 89.1696,21.6969 -791.5299,-728.32929 -87.125,-103.875 -63.0046,-5.4845 -71.951,111.8111 -66,108.875 -65.7861,-59.7768 -293.8534,-95.5214 -188,-42.875 44.7642,161.0983 252.7394,-142.6319 92.75,27 -72.6263,78.3675 -58.4179,76.4509 25.25,79 -144.0743,14.6002 -114.044,223.3883 -226,34 -63.3058,-55.9708 76.3912,-5.7006 106,-4 65.1444,-27.2688 25.974,-58.7267 -18,-66 -266.2006,-21.1931 -100.1356,-195.7649 -10.375,-98.625 -89.3298,56.0361 -206.8368,99.9507 -133.875,53.375 -34.5464,127.847 -81.9134,-11.3356 -38.75,92.25 -191.5675,94.9533 663.5407,-130.9912 32,55 -125.4378,49.3743 -175.3392,-162.1887 -177,18 -313.8559,-22.0163 -45.2734,38.4292 -63,-10 22.0811,-70.149 -25.2894,-175.6094 38,-71 145.4957,-179.5821 -147.6522,59.4675 -17,-48 1.0396,-146.6928 -331.0925,-41.5999 -228.625,1.375 166.4645,-10.0834 -141.5205,-54.344 -108.375,-1.375 -8.9304,92.4058 -30.6231,86.3302 -89.625,33.25 15.1512,-1.5207 -14.421,-147.1833 -52.375,-18.25 21.0457,-118.292 -30.7378,112.7902 -44.375,85.625 129.4976,6.7208 -59.3278,63.6688 21.875,30 -75.3644,-1.0415 -139.8834,41.4257 -95.5,7.375 -81.1497,-58.1851 -154.2194,-129.0458 -205,-73 -92.5052,43.3687 -172.6388,-219.4342 -124,-81 -122.6425,-83.8329 98.3857,-10.79 -50.625,-79.625 -46.5313,-53.0742 -71.1084,147.1257 -88.375,95.625 -111.3883,-36.5062 -156.9045,-93.6921 -96,-96 -97.5327,6.0006 -278.0263,164.8763 -149.75,49.25 76.8435,-50.369 -9.1984,122.1304 -53.25,-18.25 78.7519,13.9667 60.4075,122.5176 7,107 -54.8725,16.1093 -14.6159,128.0143 -73,43 -15.6156,96.826 -239.1348,5.6265 -159.375,-8.375 111.5365,-134.8443 31.1088,1.5022 -43.625,-189.625 -71.8898,26.5055 -258.7932,19.4848 -125.5,54 -14.6212,76.986 -112.3316,-11.9817 -113.6875,-4.6875 -46.8416,104.6396 -48.3798,205.3262 62.0625,142.4375 -67.2497,74.8093 -193.8378,118.5056 -115.875,22.25 110.2998,42.912 49.4165,-34.1908 -25,23 -126.905,38.1084 -158.761,-101.8265 -83,-93 -33.7425,-23.5906 3.2851,-104.6988 -3,-167 -24.1571,70.4809 -32.6307,263.6735 -59,165 -19.1624,94.2212 -19.494,-8.8483 9,-144 95.1903,-106.8608 183.4521,-157.6076 110,-118 7.3966,-76.7508 42.8583,-232.131 36,-161 -87.6376,-135.3311 -115.9787,-84.7886 -76.625,-50.25 C 1767.4583,1076.5695 1709.5755,1064.9767 1762,1038 c 15.6936,-76.71181 -5.4522,-210.98379 -33.875,-131.375 7.7912,-100.08084 137.3194,94.2113 144.5,-104.75 50.3672,3.14388 136.6713,150.38395 57.375,164.125 67.4649,32.58632 -37.0756,-116.18947 -26,-83 -56.0384,22.21879 -16.2713,131.3748 40,18 74.7438,-124.06229 113.6816,-133.37082 96.75,-10.5 39.1139,-25.21232 163.0745,-18.71812 92.25,-16.5 31.3117,23.86708 -172.6918,172.7296 -47.2031,112.48438 C 1950.9383,970.00083 2112.1712,943.63153 2148,1021 c 11.2934,-110.90261 206.3213,39.7521 132,-6 68.9869,29.0794 -6.8954,156.3529 23,-18 -89.0571,-51.12166 -89.1668,-66.18828 -102,-53 -43.7678,-73.85889 213.0497,-73.16442 168.625,9.25 18.2714,-19.39399 215.468,44.93757 149.5,-12.5 81.4132,-91.25068 75.6036,40.42758 7.875,35.25 -23.2164,152.096 63.8157,118.7923 16,100 -55.5807,-95.64928 61.7565,-177.61683 87,-80 -89.2213,-20.56611 49.5416,-66.77626 23,-72 -86.4474,4.03045 59.9479,66.07145 76,21 -14.5628,-96.90934 102.2577,-10.82324 104,-17 39.6401,-60.95066 29.0447,61.42731 62,52 0.5794,58.4266 -20.0947,-34.76966 -71.125,13.875 9.852,-42.60912 -34.5662,-26.31924 -103.875,20.125 122.7939,60.063 314.7727,8.6317 240.125,36.5 43.5744,53.0032 -99.8704,6.0978 44.875,-15.5 -88.7092,-4.3425 25.3325,6.0301 -61.75,-26.625 14.914,-38.40671 175.0301,-44.52563 120.75,-95.375 -71.33,13.05224 -43.0601,-46.14339 34,4 114.335,27.2417 21.3997,-67.46295 72,-3 122.2159,-28.46252 322.1465,-94.09144 263,-61 -31.0373,62.03453 141.4231,-33.77784 157,-35 112.7261,-16.386 47.2414,165.99118 102,69 -42.0329,81.51584 41.4304,104.22943 26,90 77.048,14.08358 165.7078,-81.85337 52,-117 50.8762,-30.17048 97.844,84.05246 70,30 25.8639,-63.57051 99.4622,125.54 53,-32 45.1685,-176.20695 27.878,-11.09015 64,-96 14.8706,-43.48085 67.5083,54.15367 90.25,0 8.8587,29.51714 -94.1538,180.13925 -37.25,122 19.2829,-76.11523 -201.1013,57.31001 -195,60 -128.2813,80.7505 175.7407,-84.5008 179,-44 99.7295,-1.11886 132.8592,-71.135 110,-65.25 -92.3261,94.86918 227.2312,-31.45512 116,-4.75 135.5407,-48.97272 49.7663,85.37467 193,-25 57.6935,-41.36474 136.1769,-92.38476 152.25,-64.625 61.386,66.1967 -64.8009,-65.54031 36.75,-46.375 32.3716,-135.20697 58.4187,-239.76436 -1,-118 56.7846,33.54195 129.6289,-10.77667 104,-16 -14.7561,53.76092 28.6449,-99.37934 47,-18 55.1426,56.25894 150.6748,-27.42253 94,28 90.0773,-164.14304 -117.7543,79.66316 188,-148 -20.6919,56.33789 98.0663,108.50429 154,6.25 -108.5191,21.77637 -145.9438,55.85836 -30,81.75 -46.1232,17.23907 96.6171,86.94433 -46,54 89.3078,-10.35545 111.2096,-28.15334 105.875,-106.875 C 5243.3823,431.3184 5351.8021,281.05299 5341,394 c -165.6086,-40.01459 -251.0865,-82.24544 -118,-2 15.8766,-41.96457 206.8413,-24.89905 146,-24 50.8526,-65.65032 100.6469,-41.801 28.625,62.375 158.0587,8.3268 175.4295,-82.94048 66.375,-108.375 107.9106,16.77456 183.2347,-30.61993 173.75,-8.375 157.0812,-49.80129 69.1743,34.88306 225.375,-78.5 62.2303,68.18436 142.8527,-63.67968 74.875,36.875 69.4467,-4.0681 165.1548,-15.03269 99,-44 28.5367,-26.81425 86.7409,-133.533112 88,-25 93.0991,56.47499 209.6184,153.81521 185,114 53.033,-73.81363 -10.1799,33.01441 36,17 113.5763,-18.54307 173.4612,-13.47817 29,35 133.6409,-45.6778 348.7948,13.67931 205,40 -11.4459,-81.64053 98.7408,-94.61117 83.625,-73.875 -27.4659,61.16648 85.8752,109.15911 143.375,39.875 -29.6358,35.37098 175.3251,14.07009 158,15 181.6109,105.55432 217.4808,48.12835 172,63 20.5816,156.22894 -69.11,-62.43711 -32.375,73.125 -84.4554,64.86336 92.2963,-61.97855 107.375,5.75 112.8244,61.45991 196.0302,70.31302 153,56.125 99.1275,34.35793 259.0715,121.16035 134,107 62.6839,28.36253 299.7781,101.22024 184,77 -57.9524,-1.61155 94.1098,56.41265 94,102 25.7009,49.19109 48.8108,58.77447 91,44 -77.5657,110.9419 -5.127,26.16778 44,29 -69.0429,52.75002 -34.1841,-18.35684 23,23 47.0825,3.66586 217.5976,177.7603 120,134 141.4098,101.5679 10.0361,96.3214 38,-33 -16.2669,47.9436 -154.1911,19.8718 -85.75,-23.375 20.1967,-26.1933 73.5341,-176.21638 75.75,-151.625 -10.6765,-49.35253 98.6523,28.47976 79,-25 87.7483,125.97766 -13.1632,90.67272 -34,30 -94.4126,103.4624 62.9114,60.07181 22,98 12.614,-51.99591 153.4798,57.3093 60,-24 5.4347,49.7637 101.0622,190.4625 50,110 24.0098,58.27 46.3776,204.126 -20,10 -12.4007,32.6397 -52.6071,108.5575 -15,142 44.008,139.9772 143.3182,-4.6782 95,14 -44.9279,-70.2337 -103.642,19.4981 -15,82 58.053,109.1616 168.5648,137.1643 96,155 24.3606,119.0424 166.3145,278.8388 109,202 16.4172,46.1637 60.2548,283.8343 92,241.875 38.7691,77.2004 136.0679,298.604 106,236.375 -7.2224,-5.7277 86.4441,286.8142 91,222.75 24.2553,65.3237 74.3481,369.1033 61,259 26.9437,98.1498 22.4947,252.5985 20,340 7.4443,37.1035 -41.295,239.0603 -28.25,180.375 -7.1833,-14.1397 0.7642,224.8253 -9.625,177.75 -30.7155,52.3207 -76.3983,245.9257 -52.125,191.875 79.3819,-32.7082 -161.5433,585.7107 -66,303 -14.1769,81.7682 -186.468,213.0046 -153.125,207.75 -7.1434,73.7567 -53.5293,66.518 -89.875,73.25 49.9716,80.6833 -150.1769,265.6383 -87,202 -14.0181,2.2983 -81.9833,63.2243 -45.5,62.75 -62.9877,-72.6354 -120.3141,-19.5899 -61.5,63.25 -16.853,-64.5718 -285.9383,149.016 -167.25,160 -60.2203,85.6517 -181.4971,201.6866 -99.75,133 -93.7477,10.9832 -25.84,56.1489 -197,129 -53.9551,41.9263 61.552,-52.6445 -29,-16 19.4799,-106.563 -89.5212,101.3972 -94,82 48.4546,-24.5794 -68.0944,63.5821 -184,84 -49.4986,-78.4341 -147.3584,94.7829 -100,78 -10.7254,-63.4142 -163.5023,12.3784 -103,29 70.0981,34.2313 -89.5499,206.1415 -61.875,114 22.2179,34.9503 -119.7755,69.8124 -116.5,70 152.9812,64.6784 -63.5822,17.5276 -45.625,19 -7.9635,-33.3619 -57.0288,57.5857 -121.25,-4.125 -59.0779,-1.7496 -141.6493,52.968 -96.75,28.125 -27.5569,33.4355 -98.3211,98.893 -63,46 -93.5015,-94.177 176.8916,-8.4442 51,86 48.5302,-23.5415 -142.0041,103.2818 -92,123 -17.1281,73.6288 -293.0005,122.4121 -174.375,82.25 -32.8656,-16.1721 -200.7826,77.2108 -161,40 -51.6012,53.0246 -178.1765,127.4356 -138.625,54.75 -12.3756,2.3631 -197.3864,237.3233 -166.25,169.75 -115.2472,18.3557 -191.9644,58.6165 -109.75,43.25 -88.5074,68.7187 -230.0315,240.2075 -169,158 -85.0793,57.2099 -167.3565,121.1321 -187,79 -64.9451,75.501 -308.3068,168.8043 -194,102 123.5721,-12.7023 -42.4797,161.3837 8,78 -62.9426,-138.0445 -254.3498,117.8551 -120,80 46.8115,93.8928 -69.9927,64.2217 -117,38 83.5134,47.3964 -22.1933,113.8168 -58,107 8.8402,-22.8482 -151.4941,173.804 -85.875,90 43.4926,-112.0993 -42.0687,84.2321 -64.125,81 -305.6094,374.2571 1125.905,-1713.9045 -146.625,135.625 -148.7107,21.6767 -156.2234,129.2547 -101,79.25 7.2394,17.9876 -76.964,113.3742 -113.375,79.125 -103.5387,117.1273 -37.2944,-71.0039 -114,80 -0.4468,44.3955 -4.5598,98.7051 -65,83 -59.7686,42.0394 -109.6636,322.7309 -98,229 -48.6127,49.4966 -165.3496,121.2979 -167,125 -21.4527,40.5976 -124.8255,362.4266 -115,222 -33.9395,41.8302 -95.3522,457.401 -83,341 17.6079,93.1807 -63.5046,125.5361 68.75,92.5 -54.9762,45.5161 17.6236,191.5083 7.25,103.5 -22.3294,97.2694 -89.1045,75.0332 -70,-21 47.9486,103.0242 220.9616,221.0407 168,141 148.7284,-40.563 -15.5994,-170.6623 -58,-119 -0.8874,-50.9039 134.8855,4.4835 84,-89 -113.5073,47.9907 143.304,238.7021 56,163 61.7137,71.5416 212.1357,127.2291 127,78 198.6542,18.1501 5.8179,227.232 -14.375,109.375 125.6372,-23.3871 210.0969,-68.9933 129.375,-37.375 11.64,15.7014 77.5518,36.8685 92.125,56 38.7617,-77.6425 61.3624,38.1129 114,21.25 55.3699,24.4988 204.8096,-148.5126 93.875,-5.25 -12.4104,26.2579 123.3946,-120.9864 98,1 -84.6804,-60.4298 147.3289,10.1095 57,-24.875 -102.0386,128.4575 10.4936,132.347 13,91.875 124.2904,-33.3365 48.7889,-81.6308 18,-48 -68.5762,-16.8121 100.8923,-93.6545 38.75,-67.25 161.1983,4.6466 -3.5365,-97.22 37.25,-68.375 135.0704,44.3529 141.7915,-131.3292 -45,-129.375 -112.1651,331.1985 28.5005,-1.4118 25,-27 121.1986,-88.5251 51.6176,-9.2741 44,24 76.0324,-3.3703 -30.2041,98.6113 -35.625,60 -189.7144,57.3505 465.2177,-35.8764 199.625,-21 24.938,103.96 81.2835,-95.0375 57,-30 68.8625,10.5622 169.3132,-123.6638 64,5 45.8762,60.6335 147.1237,50.299 92,7 -3.1079,6.4024 16.5447,39.1597 -66.375,73 69.6117,-65.5245 -5.9404,-266.6125 55.875,-117.625 22.2609,9.8692 -254.9829,14.3423 -133.25,-24.125 82.3651,-51.6319 265.5236,-121.4873 132.75,-46.25 104.2108,-78.4836 -72.7692,112.4695 73,-23 -1.263,3.5904 -98.0915,200.1321 -23,166 78.9033,4.9421 15.2222,-205.4066 88.0863,-60.0731 50.0395,-45.6162 280.0786,-1.1936 173.9137,25.9481 21.1145,-75.0344 -74.4885,141.7533 -42,-30.875 -0.996,44.4279 -64.9633,-61.6108 -46,-54 -78.786,-35.9272 -185.0797,18.2919 -122,28 -1.275,-190.9747 212.3818,-87.8013 178.5,-61.625 42.2827,67.5792 102.2583,126.324 74.25,30.625 84.3318,107.8741 95.449,57.876 38.625,124.875 112.7153,-32.7052 202.0315,49.2488 160.625,43.125 88.3935,-4.6136 4.8007,-94.8296 -56,-1 -9.2294,22.2829 -26.5583,87.6384 -54,25 57.6929,51.5697 157.9453,82.5777 104,76 -26.1108,54.7655 243.6703,-19.8563 181,3 -109.1382,-11.6224 -113.7796,0.4519 -67.125,56.75 45.7532,-80.0856 204.9745,-117.8566 117.125,22.875 -18.9367,155.9452 -15.0121,69.3344 41,17 75.8297,-3.7389 182.1956,-15.8415 91,64.375 49.2209,63.1347 169.5532,16.9541 91,50 -31.6666,-43.2449 58.601,302.3573 94,216 51.8005,-13.1836 147.0718,109.1131 124,83 8.6036,98.7096 43.7341,5.3006 37,-45 40.5982,47.2487 0.849,123.8175 28,126 75.6184,69.8355 113.0649,195.8503 51,159 69.9283,32.6002 -72.4378,153.683 -39,137 -86.5962,-30.1241 -102.3708,117.5717 -168,106 71.0379,28.0407 166.2438,58.7888 107,22 -161.1822,83.1027 -223.4542,202.1483 -146,77 -110.413,-88.0285 -110.338,-60.2491 -60.5,10.25 -86.1695,-40.0975 -796.8609,1067.168 -197.5,152.75 35.5008,-3.0862 52.8182,-61.6455 -58,-79 54.2662,67.397 83.1477,-33.0403 3,-58 -153.9251,-41.4603 -158.3497,115.0749 -132,83 -70.1133,39.0461 -189.2602,-7.9425 -192.125,-3.875 -88.9813,4.7873 -216.9257,-21.7449 -136.875,-27.125 105.3785,42.9757 -394.8248,-101.6254 -111,5 -80.4152,9.1498 -253.0804,28.7195 -233.5,22.625 -127.6378,2.9281 -349.4082,27.4274 -234.5,7.375 -147.0007,18.4326 -258.2623,138.4991 -227,40 -59.8324,-19.3503 52.6716,-102.9778 -111.25,6.75 -23.2403,-52.1096 -264.858,-9.5714 -138.75,-8.75 -159.3723,13.5391 -262.5682,18.6876 -257,4 45.4505,36.3583 -88.359,38.7634 -75,29 z m 1645,-63 c 83.7606,36.9972 227.6045,-43.5599 125,-125 -57.1014,-123.1776 -140.587,-24.2652 -97.125,5.75 -10.3326,-42.9934 -87.0946,-99.0569 -64.875,-91.75 -64.2865,104.9658 45.4401,226.4034 32.625,116.375 -37.4615,55.5142 -156.655,60.7755 4.375,94.625 z M 3296,1717 c 70.5258,-63.9299 84.0654,-161.764 -35,-31 94.6667,-249.1592 -9.3044,-65.5811 -15,-51.375 -66.1237,-183.5644 -334.314,-102.9518 -184.375,-27.875 62.4003,-59.4589 0.113,-4.9206 -26.625,-66.75 52.7506,42.613 -152.7869,128.5509 33.5,114 33.5008,26.1212 172.5743,93.0127 227.5,63 z m -923,-629 c 105.2372,19.5017 7.5374,-72.2075 -5,-49.75 27.4271,-68.55706 290.8492,-66.26073 165.7812,-34.2188 C 2496.1015,908.30865 2360.3039,906.37617 2368,961 c -74.2013,-74.91275 -4.2756,212.9723 5,127 z m 873,-53 c 14.7417,10.7947 76.2755,-75.84012 -12,-59 -111.4422,-96.50946 222.8872,-88.14733 160.375,-56.875 C 3275.3027,856.50695 3023.1105,992.87914 3056,978 c 126.7357,15.08917 179.9796,114.3491 135.875,22.375 -77.7363,-4.80584 -193.684,15.3716 -207.875,10.625 101.7586,-47.20329 209.162,134.3896 262,24 z m 87,-6 c 103.3147,-32.67393 -115.5688,-159.05386 9.125,-77.75 10.0849,-11.34286 157.8033,-48.88854 135.875,-1.25 161.247,19.64424 -47.9564,-80.7454 -39,-45 62.3442,-60.3339 -264.905,108.7215 -106,124 z m 247,-69 c 11.2101,-180.65586 65.1366,-182.71921 76.125,-55.5 C 3816.7962,754.95338 3443.5171,900.74232 3508,875 c -102.4548,-7.35887 142.2896,135.7588 72,85 z M 4647,690 c -119.0528,-187.79153 559.1526,201.54404 96,20 43.6922,-46.30062 -226.9796,-62.30175 -113.875,-98.75 -4.8074,21.78114 -37.4353,137.18694 17.875,78.75 z m 287,-91 c 224.5141,-26.25105 41.4173,-91.82114 34.25,-59.125 -80.4006,50.39941 106.6677,-59.63731 33.875,-38.375 45.8327,-10.92854 -66.7104,96.12899 94.875,-31.5 95.1156,-122.09433 -293.6143,78.50003 -163,129 z m 622,-148 c 54.9041,-51.45997 44.087,-182.19986 81.75,-60.25 19.0143,-9.97626 -101.6783,-66.24698 -123.75,-6.75 1.1335,-44.03653 83.9913,0.25834 -5,44 -4.9963,-5.15964 58.9203,55.07455 47,23 z"
       id="path4" />
    <path
       d="m 5249,8454 c -91.7061,80.9079 -67.8022,-158.1313 -113.9531,-139.5938 33.9825,-50.8739 71.6603,-79.2491 67.9531,27.5938 40.788,9.3004 276.1607,151.3677 197.25,82.25 123.7638,-17.9494 -82.953,-114.0047 -92.875,-28.375 -72.4849,76.849 -73.2328,73.4283 -58.375,58.125 z"
       id="path6" />
    <path
       d="m 6619,6568 c -76.4375,-69.4268 -207.1574,-242.8172 -147,-181 -9.384,-87.7525 132.5375,102.386 116.5312,40.1094 56.0161,-38.4505 -131.7237,39.9809 -18.5312,70.8906 117.4255,-29.5738 24.1515,93.4719 56,58 l -1,24 z"
       id="path8" />
    <path
       d="m 6842,5583 c 80.4921,-148.1222 114.0404,-162.4714 119.875,-131 100.3456,-19.4439 -5.7231,-28.626 0.125,-64 -128.5623,27.2601 -342.5404,143.4733 -149.2378,106.3792 C 6702.7757,5388.739 6863.2438,5406.0947 6962,5353 c 47.0399,-82.9078 -6.4465,80.0383 138,62 -134.4459,11.9376 -2.5358,-14.1076 -60,60 -180.0829,16.5608 20.286,128.9523 -184.5,95.25 -7.4709,9.6846 18.7413,33.3459 -13.5,12.75 z"
       id="path10" />
    <path
       d="m 6513,4036 c -155.67,-44.9839 -15.8573,-55.714 66,-128 162.0588,-29.0493 -32.0991,135.2437 -33,77 34.6124,4.5051 -20.3439,93.8757 -33,51 z"
       id="path12" />
    <path
       d="m 3755,1740 c -126.0657,-75.2727 -56.4745,-108.4455 -5,-55 2.8318,-8.7164 -198.0269,40.6995 31.25,-63.625 74.5365,23.3792 44.3768,-5.8914 47.125,1.625 152.6267,105.277 -19.4074,203.809 -60.375,122 z"
       id="path14" />
    <path
       d="m 2110,1690 c -26.6909,-186.0432 226.81,-95.8447 200,-82 -9.8384,143.6891 -155.1307,22.6676 -150,22 50.5822,-53.1663 -65.8484,134.1994 -50,60 z"
       id="path16" />
    <path
       d="m 4746,1687 c 129.7451,-46.3256 167.9277,-66.5235 80,-79 83.3584,-3.0811 -108.0036,-66.1878 51,-40 118.6076,116.6583 -80.6027,40.9333 -4,70 54.6438,73.0688 -131.5398,82.8464 -78,52 -14.3505,-23.1025 -56.2511,41.8325 -49,-3 z"
       id="path18" />
    <path
       d="m 4322,818 c 6.3482,-39.77451 150.9863,-61.63646 111,-76 59.0962,-10.54743 102.3867,-176.9158 105,-117 -70.9599,-91.69108 173.8717,154.06309 -24.875,116 41.0014,57.32231 -153.9117,-5.56372 -191.125,77 z"
       id="path20" />
    <path
       d="m 4086,797 c 8.7728,-156.32506 176.2115,-47.91225 187,-140 47.7094,93.36681 85.236,91.97135 87,8 -54.8353,58.43697 168.6567,-49.15433 69,13 124.2709,43.4491 -215.6655,10.81153 -34.4531,35.92188 C 4312.1361,832.12346 4089.8796,818.94754 4160,804 c -29.1628,34.48114 -25.8171,-58.63152 -74,-7 z m 144,2 c 115.3281,26.24805 -8.8226,-70.52699 29.875,-98.625 19.3731,131.93475 -160.376,122.19249 -134,41.75 C 3970.9479,756.09948 4275.4826,794.17285 4230,799 Z"
       id="path22" />
  </g>
</svg>
