<?xml version="1.0" encoding="UTF-8" standalone="no"?>
<svg
   version="1.0"
   width="1024.000000pt"
   height="1024.000000pt"
   viewBox="0 0 1024.000000 1024.000000"
   preserveAspectRatio="xMidYMid meet"
   id="svg22"
   sodipodi:docname="t.svg"
   xmlns:inkscape="http://www.inkscape.org/namespaces/inkscape"
   xmlns:sodipodi="http://sodipodi.sourceforge.net/DTD/sodipodi-0.dtd"
   xmlns="http://www.w3.org/2000/svg"
   xmlns:svg="http://www.w3.org/2000/svg">
  <defs
     id="defs26" />
  <sodipodi:namedview
     id="namedview24"
     pagecolor="#ffffff"
     bordercolor="#666666"
     borderopacity="1.0"
     inkscape:pageshadow="2"
     inkscape:pageopacity="0.0"
     inkscape:pagecheckerboard="0"
     inkscape:document-units="pt" />
  <metadata
     id="metadata2">
Created by potrace 1.16, written by Peter Selinger 2001-2019
</metadata>
  <g
     transform="translate(0.000000,1024.000000) scale(0.100000,-0.100000)"
     fill="#000000"
     stroke="none"
     id="g20">
    <path
       d="m 2547,10226 c -133.4697,-1.705 -121.1377,-215.444 -141,-145 -76.9535,-18.931 -0.1745,-52.157 -62.5,-63 -15.5834,-57.7295 -139.8408,-240.2421 -96.5,-196 104.1408,-74.3028 20.0379,-122.5252 6.5,-66.75 152.5966,-76.3692 185.2631,-202.4133 82.875,-97.875 57.6909,-52.5907 114.9161,-177.7141 94.625,-100.375 93.4744,-59.2952 75.9165,-158.4774 76.125,-80 144.7066,18.6583 199.1036,-166.9628 94.875,-101 -2.4661,34.2204 169.4399,-47.7663 98,-68 -10.2219,61.2383 64.1479,-246.3577 50,-27 -9.0154,-10.1084 -53.0415,-155.3617 47,-83.875 37.5902,-141.6153 -55.8256,148.2888 -1,-67.125 23.6734,-119.2223 -34.0857,-114.9642 75,-66 9.9583,81.9616 30.6281,151.9327 -23,106 57.2174,-33.0308 137.9281,16.9207 109.25,-56.625 -37.5613,15.5927 25.3716,-178.1537 9.5,-120.375 -60.0309,81.9453 85.9187,-55.024 -18.75,-8 167.1991,-51.0743 30.8894,78.023 26.5,42.125 72.6658,22.8469 -67.3069,-152.3787 58.375,-71 30.2228,-123.3958 -65.4725,-23.6051 -42.875,-35.125 -88.3739,-44.6127 53.1394,-55.9776 85,-80 11.6385,24.9349 225.4801,207.9727 65.75,18.25 150.4156,67.9161 -195.904,-75.4893 84.25,-13.25 -2.2284,84.6521 206.6418,209.7988 -16,-75 -36.936,-52.0686 214.5165,111.9522 24,5 185.7942,-78.1495 134.4655,-217.0945 81.5,-172.375 121.7413,73.0885 291.3261,-32.7582 135.5,-13.625 -127.1364,-67.3411 -7.0716,13.0708 28,10 -9.9198,-137.1734 -91.8428,142.7834 -190.25,73.625 -44.5664,77.1579 -273.0005,38.3882 -144.75,95.375 -68.3112,25.1669 -37.9145,97.772 -6.25,73.75 -116.1476,-26.1722 77.6431,-170.8579 20.25,-120.75 -11.5004,-22.7733 85.3419,-63.1466 73,-61.75 23.5921,-59.7193 126.5136,-136.6978 80,-101.25 126.31,-163.8851 -30.9743,6.2521 135,-49 40.8188,106.3201 66.3163,0.02 63.625,-56.5 -53.8823,110.7512 -20.9125,-277.2171 39.375,-131.5 70.8834,10.2479 71.64,-135.9261 103.8125,-134.5 -68.2351,64.7046 -89.3706,91.0567 -32.8125,-21.5 12.3274,-68.62 -73.9647,108.3214 -82,110 -10.9592,-66.328 104.6373,-198.9088 91.25,-185 -41.1385,-24.7394 53.8162,-102.6176 66.75,-101 1.0532,-71.5264 -29.1802,-315.8432 20,-170 71.256,-30.8638 27.1009,-116.6209 79,-64 90.2274,-522.0136 44.4485,-294.0094 48,-175 144.191,-23.2176 43.5037,-211.1507 57,-146 -26.2433,107.8865 24.514,-80.0153 38,-110 46.304,-122.3453 20.6618,-239.8835 25.75,-200.875 37.4176,18.0147 42.631,-202.2109 38.25,-179.125 -23.0028,-63.8758 12.4791,-110.993 -2.125,-135.25 -55.6795,-79.8467 -18.0859,-141.2661 -123.875,-20.75 51.0748,-21.2979 -29.6023,-43.5231 -0.25,-64.375 -51.5212,-31.1276 -350.6301,83.7545 -158.25,49.75 -188.9389,-58.8031 -180.5664,174.4785 -153.125,85.375 -110.302,-38.7328 -99.4507,81.2198 -47.375,68.25 -47.1598,-74.2039 92.9108,-94.8801 63.125,-9.625 -34.7841,-11.9818 129.9312,-124.6047 82.625,-72.125 40.551,-11.9751 227.5027,-79.9542 138.25,-41.25 -37.908,16.0652 43.7198,39.4731 38,-35 10.6926,128.3359 -131.7662,97.8399 -96.5,101.125 -66.6493,22.0178 -194.975,77.8179 -111.5,55.875 -187.4107,93.286 -181.5371,159.6114 -253,111 -86.4877,22.7226 -195.2228,-10.0011 -122,22 -24.0666,42.9683 -131.126,22.9502 -112,-3 -57.1938,143.618 -184.1163,75.2998 -174.375,57.625 -76.3123,-9.1903 -197.149,19.4215 -109.375,31.125 73.379,151.9636 -39.5161,40.0253 -49,23.625 -6.8023,172.0139 -174.7777,127.1028 -114.25,98.875 -22.8501,85.4229 -15.9922,-81.7795 28,-148.25 -53.2582,-24.3192 -90.6123,83.7314 -84,55 -62.7862,42.8066 -200.1432,156.6483 -95,125 -133.3082,74.9986 -20.9089,-15.5933 41,-15 160.0705,5.0277 -222.6526,-6.3398 -171,53 -58.1676,-0.2828 -144.3813,-64.6078 -68.375,-122.75 -6.0982,117.3652 -147.9137,66.3027 -76.625,20.75 60.122,-35.2657 -92.9584,47.4202 -82.625,-19 -89.4442,-6.1867 -162.0914,-27.3191 -83.375,-76 32.6069,89.4014 -44.0463,-69.7269 -84,-62 151.5964,38.4062 41.1585,-36.3433 21.875,-63.375 -61.8338,35.3915 99.9599,-74.2205 30.75,-108.75 -4.4106,-87.7218 72.7433,-175.9805 81.25,-73.25 -43.0002,31.1871 -79.4276,-118.9418 -26.5,-79.875 1.7966,98.4 -82.09,191.1126 -100.375,96.25 -126.4321,29.4415 -35.6561,-135.3988 -55,-111 35.6519,33.5006 253.5989,31.3935 111,51 60.2811,-175.8122 -169.181,-149.887 -105,-84 21.3456,-21.8644 15.5327,-94.4622 114,-49 11.9845,-75.7564 189.9822,-139.2382 95,-107 91.4445,39.3767 -2.3974,171.5306 -51.75,105.875 116.3664,-31.9441 205.1651,8.8558 156.75,-0.875 112.9236,-34.3918 -84.9759,-58.3238 -51,-140 -38.8463,80.5527 182.6615,-55.3049 107,-41 -99.1263,-15.4484 -100.0593,-181.5729 -78,-114 59.7274,95.1713 130.7325,29.1067 81,-2 5.5822,-72.9139 24.1359,-187.8656 42,-76.75 67.642,105.6122 260.6119,-9.2452 154,-38.25 64.4461,-9.301 -15.4685,-27.6552 67.5,1.75 -36.093,132.155 -1.6141,126.9147 95.5,71.25 109.1684,-1.3325 213.1487,178.4242 171,75 65.2234,-17.3362 195.6392,-7.9352 112,-29 156.5164,-58.6264 37.4386,-291.8266 35.375,-28.25 6.0424,-117.2647 -96.2629,29.5762 -75.375,-46.75 -103.7016,-39.3605 -124.0345,16.0313 -103.25,12.375 -64.5026,-74.6938 65.8877,-229.5373 -45.75,-83.5 75.4411,36.7862 199.5478,-45.6325 144.25,-2 116.2637,-53.0049 240.694,-66.26 148.75,-17.875 122.573,-2.9231 62.7405,-79.7083 13,62 -9.076,84.208 75.0075,116.8732 -17.875,121.875 88.4564,-17.3693 152.5673,-149.5683 114.875,-116.875 216.9287,66.0323 180.3056,62.7996 120.625,55.125 56.2639,-128.6646 270.908,-60.4656 121.375,-73.125 -15.7578,-35.6723 113.0839,-101.2189 46,-105 31.8719,32.5686 -62.8363,53.1735 40.5,-34 22.367,-127.5416 41.0854,-225.3777 78.75,-89.375 33.5917,93.0205 102.8805,159.456 158.75,-4.625 241.4918,5.2317 158.3436,-73.3484 67,-42 118.5324,-16.2201 133.7938,45.803 81,100 19.7333,-110.1463 -138.2846,-232.2534 -2,-110 -135.9934,10.652 129.005,3.5133 113.125,-24.25 78.1347,-5.6192 111.3974,-193.2944 56.125,-148.5 -0.165,-60.4036 -51.6094,-319.4313 -29.25,-234.25 -10.4928,-57.0882 -22.8049,-244.1643 -27,-161.125 -10.7179,-7.0178 -42.8601,-295.1346 -42,-231.875 -15.9644,-66.3934 7.7053,-209.0529 -5,-140 -15.4241,-81.3582 -100.1472,-261.2436 -61.125,-152.25 -135.2051,-14.8972 -26.8369,-239.4639 -67.875,-186.75 -55.2152,-93.4083 107.268,-337.7239 46,-225 -57.1186,-18.2358 -24.6809,-208.7364 18,-146 4.4636,-32.3228 16.0535,-207.9704 23.75,-166.5 -20.3175,-46.507 -3.8193,-273.9729 3.25,-170.5 38.1863,-85.6607 -91.3299,-342.2664 -37,-205 -31.1766,-18.69 -39.252,-292.37 -36,-234 -41.9263,-71.6645 -91.6794,-160.6904 -47.25,-121.125 -7.3786,-104.0129 -57.5215,-272.2979 -38.875,-214.625 -29.8495,-76.5339 -58.4486,-230.38 -65.875,-216.25 -10.409,-23.3044 -60.5134,-276.4724 -33,-159.625 -9.4762,-44.6028 -27.3152,-253.7907 -29,-208.375 -18.0067,-165.4217 -30.6623,-97.5164 -38,-327 -36.9925,-46.9248 -79.8856,-237.3301 -47,-165 5.6128,-148.7343 -18.0083,-327.8877 -17,-222 18.013,-92.7412 55.8804,-271.3977 27.125,-187.5 -51.0378,0.056 -10.565,-65.6695 -1.125,-95.5 -21.4723,-105.1388 -46.5408,-295.2621 7,-215.5 57.7964,-31.355 -41.0779,-52.1363 39.875,-75.25 26.7727,-62.8378 -28.0143,-98.905 60.875,-94.25 52.6536,-56.9492 69.7237,-75.0846 87.25,-98 108.2219,-128.7979 158.6716,-229.05963 151.625,-180.625 -0.8096,27.23058 -143.905,24.09268 12.375,-36.375 9.2056,-91.15217 123.3923,-158.16357 144,-156 0.8737,105.83766 -116.8577,58.34139 38.625,103.125 24.6066,-37.12189 14.6049,-152.09639 -18.125,-135.25 37.4308,20.16518 135.9446,-98.23313 86.5,-77.375 162.0626,-29.58773 188.4635,-82.70237 116,-86.5 90.5559,10.01859 178.5988,-56.03928 90,6 76.6439,19.58353 163.1065,19.10873 73,-96 46.5702,-111.19353 27.8658,-102.31259 55.875,-22.625 -91.7084,19.10888 113.8114,77.90683 28.75,74.125 -3.7,-93.49502 246.9339,-52.07535 130.375,-41.5 75.6481,55.73282 -92.1548,-107.57451 63,-12 118.5919,-76.75318 -127.8281,-101.82928 -186,-63.875 40.1194,-7.77703 121.6779,-135.34427 125,-71.125 158.8167,-29.35102 357.6359,-57.33205 214,-77 65.5634,-53.23788 77.5503,-27.98747 131.5,2.75 -110.2543,-37.672 -102.7171,70.96033 -116.25,61.875 -68.4043,8.24996 -159.5834,3.05293 -109.25,-10.625 -152.8012,108.25097 -74.1403,115.90198 9.5,96 -4.934,76.00194 154.185,-110.31298 -6,-35.375 118.3002,-6.55862 128.5043,40.63857 141.5,-36.625 83.5376,13.20349 239.1855,165.18548 203.75,40.5 38.5123,-162.57665 182.2859,-182.14512 138.625,-56.5 -8.5977,25.27607 -98.5969,-38.32268 2.75,-59.625 -71.9423,-99.35799 31.6754,110.00344 84.875,56.625 15.6526,94.30998 297.99,97.1396 191,33 25.6571,36.80923 99.5095,201.20575 130,82 -43.8391,79.69764 656.7385,-11.1484 293,56.25 19.8046,-12.91812 232.9942,-30.71164 130.625,5.5 -60.9647,54.08056 28.1745,-34.83775 90.375,-16.75 103.0107,98.65215 -97.8678,4.26496 -15,-30 -54.6109,7.44638 -173.8811,69.99221 -111,22 -48.6625,-20.58536 -125.6641,48.27344 -139,-2 7.0297,-111.49816 -127.8247,-120.99648 -112,-30 51.0353,-14.04471 30.1499,82.25653 76.375,-26.125 91.571,-26.22058 162.7898,54.79957 112.875,12.875 96.6516,-84.29889 203.8784,-0.78869 108.875,-19 -46.6465,-117.41369 159.3589,-5.85576 87.375,21.125 144.2089,6.81229 355.5125,20.75458 235.375,1 -18.5818,-21.681 11.4067,-185.58298 47.125,-39.875 -129.4912,2.65363 186.6299,-68.02506 39,30 80.7342,-82.9332 136.6057,263.39548 111,50 83.4954,10.98246 259.7194,73.7065 168,55 30.9987,-28.68478 61.9029,-32.42294 64,20 74.7214,75.5567 98.6957,-59.67527 64,-44 101.9236,-85.63207 -77.9586,-97.2694 -69.5,-18 40.2741,-103.56982 201.6957,-277.04488 158.5,-115 153.2524,32.97406 118.6467,119.95973 24,110 -43.9434,55.33172 69.0271,-134.03071 84,47 72.135,49.58498 178.8311,51.04647 134,-29 87.9564,14.00408 209.3099,-6.81145 154,16 100.9991,48.47685 8.5999,63.17394 88,98 57.1882,9.17569 74.1111,174.92939 67,130 134.4837,43.24354 204.3472,256.60029 104,141 -43.6668,18.33526 -201.1184,188.0868 -86,148 -22.3965,12.6677 -193.7176,96.2846 -124,106 -118.9532,136.6063 -234.6697,219.0582 -164,153 -23.9929,-14.5588 -76.4526,-4.7388 -76,17 58.243,27.5937 -62.8573,40.9479 -148,116 -133.342,-18.4375 -11.2468,113.921 -234,44 -152.7815,68.9157 42.784,54.6597 -140,146 -96.4373,34.9198 44.9352,-80.8732 32,-55 -105.9236,-18.8291 -236.3636,-70.5357 -122,-71 -133.6675,133.9653 178.9157,-16.4076 15,149 -12.1422,13.1947 -52.1864,-134.8951 -94,-35 88.0321,-10.0661 -133.6799,-123.4078 -66,-69 28.4912,99.4197 -227.8298,88.6332 -155,68 23.673,36.4556 -187.7741,48.1627 -13,147 -67.5029,-57.533 45.1818,84.0781 92,-16 41.2038,18.3747 -136.1263,54.8397 -104,40 -66.2504,7.4094 -118.0353,-238.5561 -89,-79 18.2055,-77.4133 -162.5836,0.1604 -84.75,-30.625 -3.7631,-40.8296 50.8645,79.7826 90.75,70.625 -6.0285,109.1746 -227.2718,135.7159 -117,86 18.2163,-82.1942 -17.4795,-75.4286 -101,-86 -247.0795,75.4092 -126.9889,-57.8546 -52,-58 -160.7472,8.9353 -59.9815,158.0808 -106,78 -84.9948,66.1189 -53.7969,-41.8504 -96,46 -45.7154,37.8475 -185.1054,-27.0557 -138,-39 -67.36,-86.7542 79.1705,101.1688 40,-2 186.8528,-56.2824 71.4346,-47.0467 86.2969,-67.6094 -99.3112,-70.7284 197.8389,-56.7739 -7.2969,-162.3906 -111.0389,15.6641 -58.0195,-125.6012 -99,-91 58.2963,16.5212 12.5735,-206.7215 16.25,-138.75 101.9166,-65.1945 54.9997,165.1468 -27.125,64.375 29.5932,52.466 26.6409,171.1702 -21.625,112.75 -73.587,-24.2736 43.9941,134.1808 21.5,129.625 30.4773,-39.0712 221.0994,19.1754 104,12 -86.7704,-138.4615 145.1908,26.7468 -49,26 -113.4053,-21.5648 -166.0065,-3.7927 -22,56 -97.1996,-33.9119 -116.1958,-154.1507 -100,-122 -23.6558,-4.5367 79.1926,-89.9384 23,-163 16.3614,-28.2377 -109.8225,-220.818 -8,-75 2.1086,-33.8086 -22.9179,-165.8239 -1.375,-179.625 -2.664,39.8316 -86.6885,60.7369 -34.625,-58.375 -193.6847,-23.8144 99.0874,79.9239 -114,47 -99.9482,90.3936 178.9152,4.3395 -71,75 45.7889,-34.6929 -122.8334,-86.0489 17,78 -48.8152,157.3761 101.9021,-333.43351 -36,96 -32.4827,36.6114 -131.8691,-16.9843 -151.5,68.75 -62.6501,29.8327 -89.8233,-109.0176 -61.5,27.25 64.093,-79.3744 25.3029,97.6294 -31,-4 -120.9549,-48.4714 -117.6558,117.178 17,146 -55.653,-66.9984 -122.7171,-80.4758 -76,-82 -90.4401,-15.2995 -205.9832,-103.9043 -103.125,-58.875 9.1873,-22.0695 -145.0743,6.8941 -72.125,129.375 53.8277,-70.8799 82.544,85.3821 -15.75,18.5 95.0007,107.3578 184.7571,21.9837 126,-9 48.8866,-43.4597 -54.9532,24.7189 -3.875,44.625 -50.7716,30.2462 69.6085,75.69 -104.125,19.375 -88.7892,55.7673 -115.9837,135.6952 -4,88 -104.2274,95.7892 -160.9715,-32.714 -198,1 93.5588,101.4861 144.6638,328.0004 74.5,212.125 11.9889,95.482 23.2544,198.0576 4.5,146.875 -56.0275,40.801 -54.9687,183.4972 -42,121 41.0642,78.2342 -4.2363,268.7395 13.75,185.5 86.552,-69.1497 113.4424,39.4283 73.125,-43 -53.7844,41.6481 -97.5306,112.1649 -2,96.5 34.8762,-37.5045 12.5301,87.6739 -37.875,14 68.5544,85.43 19.4863,157.7073 80,70 7.3244,159.3574 40.9842,1.0494 23,113 60.0076,106.1041 -46.693,206.326 -21,174 59.3694,-51.468 -74.6127,177.1717 -3,125 -46.4298,50.2568 -88.1892,-91.4977 24.375,-7.25 100.1136,-47.2281 -4.5907,71.8892 -6.375,109.25 14.8619,60.6598 146.1968,-43.2734 80,-4 -83.1863,129.6485 257.1851,27.5069 -60,92 30.2778,119.2377 120.6441,248.0703 66.5,85 16.555,62.352 19.4563,190.4369 -44.5,108 52.2712,5.9011 46.529,-121.7921 65.125,121.625 26.1962,-46.3382 50.7126,193.3368 37.875,56.375 -99.2513,-6.83 124.8714,379.7343 20.625,219.25 -64.6135,-57.214 7.8325,106.6421 -46.625,26.75 -87.0056,169.2456 -24.2591,257.1029 -11,162 92.9261,-2.8059 111.1059,-82.6008 55,-142 23.8295,249.5922 -26.8373,292.184 -34,205 89.6693,-82.5653 -66.5926,162.5032 -48,110 13.4074,53.1353 89.0264,26.1673 65,116 -27.2749,-84.9534 -33.9406,-222.9343 -31.625,-154.125 113.6648,-161.2995 53.3377,141.0107 37.625,105.125 13.4123,157.8135 93.9601,106.746 -16,189 78.9655,-28.2267 137.3529,211.0783 108,107 -19.0655,50.1498 -102.8177,185.7282 -28.75,191 -102.0501,65.6468 64.9473,97.0518 56.75,44 6.1606,78.5212 -66.454,-8.1449 -90,58.625 73.816,51.6647 71.2027,139.9786 90.125,38.75 -24.1097,88.1623 6.0137,271.0971 -3,193.75 -40.5375,9.0471 25.4282,155.2883 -6.125,146.875 20.6864,152.2039 -136.3192,-182.3833 -51,-32 -77.7426,-122.077 -40.7339,-191.0252 7.125,-134.5 1.6173,-92.117 -10.7046,7.7333 -41.125,-1.5 1.8787,28.4004 86.6097,129.9597 24,138 -26.6369,59.1875 117.975,244.8806 38,163 -74.4547,-187.063 86.5493,83.4212 44,60 52.8753,170.084 -58.8081,173.6199 -62,72 85.9007,1.7889 -71.3572,180.9734 37,138 -16.1844,51.6497 52.0704,177.7194 61.875,174.75 76.1291,65.1792 152.544,78.4153 15.875,-42.5 -143.316,-101.2133 71.0542,-100.8609 165.25,41.75 -27.9529,17.9531 100.9187,0.9865 112,30 -41.3637,26.3209 -42.2945,38.4835 -34,-53.5 90.4292,-14.637 130.2594,-15.5485 132,99.5 70.964,-42.1946 27.3699,36.0226 73,17 -112.998,11.4987 66.1146,86.2028 75.9316,69.1141 98.5757,35.5615 274.1564,210.8328 158.0684,90.8859 27.3719,-64.5201 93.6329,142.2007 90,34 -39.7001,-101.3344 6.9435,30.6456 53,-17 -173.3353,-33.091 428.4367,171.7076 100.125,87.125 54.7163,-66.3264 212.1028,76.3563 96.875,58.625 137.5641,-46.1802 20.8591,-113.9033 -2,-55.75 137.4155,-67.5926 161.5939,-61.8572 105,45 105.822,45.1419 153.4953,168.2627 117,116 30.4385,30.0192 69.1736,72.201 90,76 51.3123,-5.4204 174.5382,-121.9851 97.25,22.625 43.2776,32.2066 -74.9465,19.3926 -18.25,48.375 3.4291,77.7111 67.757,124.2068 69,59 73.4431,79.7633 -27.0703,-167.001 76,55 35.3093,53.7078 113.0352,119.7038 116,133 -51.6896,-27.4995 29.2614,202.3952 -52,162 -49.0145,9.7084 -220.9736,197.7236 -144.375,108 75.4523,43.3472 -142.4313,108.056 -156.625,104.875 -101.3448,28.0469 -215.6309,-4.7282 -143,100.125 -9.1611,-53.0415 -476.827,203.2462 -139,29 -39.7066,5.9529 -321.7307,-33.5747 -248,-10 -262.3988,-81.84 184.468,-70.0417 -203,-102 -104.3331,-12.551 -273.0444,-75.0298 -157.5938,-52.375 C 5418.1909,6940.4647 5303.7207,6877.8172 5462,6924 c -95.2119,-50.2157 -334.1248,-177.6443 -232,-134 -16.6689,13.402 -146.1822,-72.0051 -150,-80 -45.64,5.9646 -13.1966,176.8777 -54.5,76.375 -74.7906,170.2418 -255.7885,69.5746 -107.5,39.625 86.8831,9.7902 121.6452,94.3237 17,127 -23.5788,105.2695 -14.0049,222.4373 -5,147 -217.1182,129.0503 -127.0299,233.2168 -103,160 -91.5868,45.8149 -124.7192,169.5279 -57,121 93.6658,-23.5352 86.0027,-184.7828 75,-125 72.1364,10.0143 -26.131,59.4436 -36,159 -15.3273,47.9647 -63.1853,143.2211 -67,53 12.8242,21.0386 151.8349,-107.4407 45.5,4.375 -145.4195,263.0965 -16.5333,-93.0446 -57.5,184.625 -94.6017,-57.4345 -240.0318,184.2961 -176.75,69.875 16.9023,-3.5081 -130.6573,52.3501 -71.25,127.125 162.0214,102.7634 165.0274,245.7813 31.125,137 -96.7673,125.519 32.4796,56.1025 -102.125,152 -28.5706,83.254 -102.4031,183.6386 -72,150 -89.1572,45.6019 -20.8736,188.5898 -55,59 -16.2874,-59.6405 -158.7525,85.2366 -44,38 -31.5585,39.5461 -2.0873,174.7474 -31,72 -96.1783,-62.6534 27.6078,-61.4099 -11,48 14.8039,55.9966 -150.5837,62.9638 -82,98 40.3588,-38.2531 -158.4104,-28.214 -54,-40 23.2894,-1.557 -156.1299,180.0991 -20.875,181.625 43.3476,30.0033 20.0104,92.3496 -27.125,55.375 -3.386,140.3015 -68.368,-13.316 -21.5,100.25 -100.6248,9.1936 -181.6539,126.0628 -156.5,122.75 124.9997,67.0164 -6.7522,110.0502 -88,60 -71.1947,18.2344 -293.2775,178.0545 -148,140 58.7538,-101.8155 -142.6712,71.3274 65.625,46.625 -147.6613,-1.4237 78.044,-6.1417 7.375,13.375 59.0256,-46.3683 247.7529,-8.6856 96.5,-59.125 -67.0361,34.0981 -77.2078,128.6804 -64.5,104.125 -138.8006,15.5128 -82.5808,146.6828 -62,71 -54.5421,8.7768 -81.5059,95.6142 0,65 -115.5054,56.5578 -123.035,119.7329 -70,87 -21.2814,83.7659 -216.9805,-84.2138 -158.375,-121.5 124.2425,114.0719 -29.4545,104.279 77.375,139.5 98.3032,13.8395 -60.5536,87.0728 -55,56 29.0967,56.5616 -159.5005,-43.3609 -103.0066,33.272 58.0106,54.5853 -168.8927,175.5741 -79.9934,137.728 -69.3351,25.4384 -173.784,156.7255 -107,63 -157.2064,32.935 -195.8978,-11.0121 -176.25,37.625 -51.7193,83.3783 -109.4454,143.08 -44.375,95.625 -114.5054,-49.3414 -252.0468,49.098 -124.375,62.75 -83.2086,70.695 -190.3524,113.38 -136,86 -32.9332,64.474 -28.1233,76.764 -119,80 z M 3896,8958 c 5.4676,-51.0856 197.2427,-331.8389 142,-224 100.451,-160.0986 -43.8018,-28.8188 -42,-58 -41.0381,121.6054 -66.1954,-0.032 -25.5,93.125 -67.4789,-24.1519 35.631,32.3082 -42.5,35.875 -76.8307,81.6775 -59.9015,270.605 -49,158 l 10,7 z m 364,-658 c 86.3269,-21.8532 159.6615,-234.0973 96,-119 31.3281,-20.8818 -88.9534,-146.6043 68.7656,-203.9688 -19.3431,72.259 -126.5354,119.3869 -45.7656,-2.0312 23.41,54.9624 -19.5753,133.5602 -43,149 -98.1833,103.3887 -54.9923,102.8774 -51,118 -4.1644,23.8646 -104.0912,70.4157 -25,58 z M 2136,7104 c -14.9541,-12.5167 321.1951,95.0084 82.25,-96.375 -49.3506,-3.5011 -9.7549,84.2252 -113.25,26.375 52.3287,36.5215 84.1487,-18.1365 40,6 54.1156,22.6856 -58.8892,4.7963 -75,59 -79.389,23.0947 54.4954,72.0142 66,5 z m 1161,-100 c 83.478,26.5608 120.5174,-12.5694 275.25,-66.75 -126.5278,28.4876 -277.1006,0.8061 -238.25,12.75 44.7364,-10.2974 -195.4045,57.9713 -37,54 z M 7427,644 c -133.2819,-137.74359 71.7961,-40.9019 -17,-103 -135.8446,-7.36884 -176.3757,52.21397 -171.625,-0.125 22.8775,83.66039 93.6774,29.30853 188.625,103.125 z m -960,-88 c 27.9102,-109.01613 -83.2847,-19.43604 -94,-71 -72.0215,110.00429 -84.5842,-13.31779 -22.375,-39 -107.0801,-32.91391 -52.9046,162.52773 -43.625,104 148.6353,-31.97686 104.0421,-28.52947 160,6 z"
       id="path4" />
    <path
       d="m 3430,8475 c -63.5733,-71.2493 27.4569,-235.7875 26,-143 47.0209,-48.0953 222.5763,-131.6139 64,-21 -83.8077,94.4155 -105.2577,131.4327 -39,79 -126.6923,56.1967 130.8232,-5.2368 -51,85 z"
       id="path6" />
    <path
       d="m 3299,6277 c -124.3706,-67.3477 -96.6636,-100.5383 -4,-44 -80.5801,-63.213 106.2662,-70.4946 63.25,-111 14.0646,46.3249 88.0401,21.4059 75.75,-32 48.6269,-93.6776 -62.7337,-12.1396 45.125,10.25 -112.3086,217.4091 -135.8268,76.4708 -163.125,130.75 87.3549,-15.3156 4.7372,91.0766 -17,46 z"
       id="path8" />
    <path
       d="m 4725,2284 c -13.2166,-80.646 44.3331,-340.3911 36,-210 -54.3833,-222.0294 -156.5704,-335.0064 -63.75,-258.375 36.374,48.4127 21.5467,32.6457 112.75,23.375 -17.8973,34.345 51.8044,154.7552 -11.625,194 6.6143,23.2812 -111.087,139.5281 -35.75,153.875 132.0036,-20.4437 86.8713,2.4241 3.375,49 66.9083,-0.2156 -7.9606,83.8717 -41,48.125 z"
       id="path10" />
    <path
       d="m 5909,1840 c -127.1974,-5.2794 -231.6877,81.0318 -123,-5.75 39.791,-127.7553 307.159,-107.497 222,-76.25 159.8498,67.7303 9.2084,87.6943 -20.75,73.875 -28.5236,28.2068 -16.4603,-10.4231 -78.25,8.125 z"
       id="path12" />
    <path
       d="m 6463,1729 c -116.1462,-58.4185 -7.9268,-138.0881 -79,-121 64.4595,-43.5102 141.9385,15.5557 100,57 -66.3396,-9.4233 60.6051,141.5418 54,-3 35.3541,-30.4888 -52.3807,70.2267 -75,67 z"
       id="path14" />
    <path
       d="m 5429,330 c -24.6273,-74.08556 -76.0743,-83.07463 -67,-103.25 81.099,-32.19622 177.1977,148.08787 174.625,59.5 8.4447,-25.55048 -164.5113,44.37861 -69.0938,54.4375 l -7.7812,3.5625 z"
       id="path16" />
    <path
       d="m 5175,320 c -116.4066,19.06991 88.9071,-12.94118 -25,-71 105.5556,-18.48031 -31.3092,75.81981 113,11 170.6383,18.69493 -75.3989,68.08207 -88,60 z"
       id="path18" />
  </g>
</svg>
