<?xml version="1.0" standalone="no"?>
<!DOCTYPE svg PUBLIC "-//W3C//DTD SVG 20010904//EN"
 "http://www.w3.org/TR/2001/REC-SVG-20010904/DTD/svg10.dtd">
<svg version="1.0" xmlns="http://www.w3.org/2000/svg"
 width="1024.000000pt" height="1024.000000pt" viewBox="0 0 1024.000000 1024.000000"
 preserveAspectRatio="xMidYMid meet">
<metadata>
Created by potrace 1.16, written by Peter Selinger 2001-2019
</metadata>
<g transform="translate(0.000000,1024.000000) scale(0.100000,-0.100000)"
fill="#000000" stroke="none">
<path d="M2547 10226 c-3 -8 -14 -13 -24 -12 -10 2 -25 0 -34 -5 -10 -5 -21
-3 -28 4 -10 9 -12 9 -9 -3 2 -8 -3 -14 -9 -12 -7 1 -12 -4 -10 -10 1 -8 -8
-13 -20 -12 -13 0 -23 -1 -23 -3 0 -2 10 -8 23 -13 18 -7 18 -9 4 -9 -10 -1
-15 -6 -12 -12 4 -6 -1 -16 -11 -23 -18 -14 -11 -41 8 -30 7 4 8 2 4 -5 -6 -9
-11 -9 -23 1 -14 11 -15 10 -9 -12 4 -14 4 -20 -1 -15 -13 18 -38 11 -35 -9 2
-10 -1 -15 -7 -12 -5 4 -12 2 -16 -4 -4 -6 -11 -7 -17 -4 -7 4 -8 2 -4 -5 6
-9 11 -9 22 0 8 6 14 8 14 3 0 -5 7 -1 14 9 8 10 17 14 20 9 3 -6 -1 -13 -10
-16 -13 -5 -14 -9 -3 -22 10 -12 10 -15 -2 -12 -9 2 -13 -4 -12 -17 1 -11 0
-14 -3 -7 -9 19 -24 14 -24 -7 0 -11 -5 -23 -10 -26 -7 -4 -7 -12 -2 -18 15
-21 8 -42 -16 -45 -12 -2 -20 -8 -16 -13 3 -5 10 -6 16 -3 7 4 8 2 4 -4 -4 -6
-14 -8 -24 -5 -9 3 -14 3 -10 -2 4 -4 2 -15 -5 -23 -10 -13 -9 -14 12 -3 15 8
21 9 17 2 -4 -6 -2 -11 5 -11 8 0 9 -3 0 -14 -12 -14 9 -42 22 -29 4 3 7 1 7
-5 0 -16 -6 -15 -36 5 -19 12 -22 18 -12 24 7 4 10 10 7 14 -3 3 -14 -5 -25
-17 -10 -12 -13 -18 -6 -14 7 4 12 1 12 -9 0 -10 5 -13 13 -9 8 6 8 3 -1 -9
-12 -15 -11 -16 17 -12 19 2 29 0 25 -6 -3 -6 5 -8 19 -5 16 3 24 -1 24 -10 0
-10 -4 -11 -10 -5 -7 7 -17 6 -30 0 -13 -8 -17 -8 -13 -1 3 6 2 13 -3 16 -5 4
-12 2 -15 -3 -8 -12 13 -26 39 -26 14 0 20 -7 19 -23 0 -16 3 -19 10 -12 16
16 30 12 16 -6 -8 -8 -9 -14 -4 -13 19 3 34 -1 34 -12 0 -5 -4 -7 -10 -4 -5 3
-10 1 -10 -5 0 -6 8 -10 18 -8 11 2 16 -3 15 -16 -1 -13 2 -15 10 -7 7 7 6 15
-3 26 -11 13 -10 14 4 9 14 -5 22 -38 17 -67 -1 -5 3 -6 8 -3 5 3 14 -1 21 -9
9 -11 9 -15 1 -15 -7 0 -9 -4 -6 -10 4 -6 15 -1 27 10 25 23 52 10 29 -12 -10
-11 -11 -9 -5 6 5 13 4 17 -4 12 -7 -4 -12 -16 -12 -27 0 -17 3 -18 20 -9 23
13 27 2 5 -14 -13 -9 -11 -11 9 -12 18 -1 23 2 19 15 -4 14 -3 14 6 1 6 -8 11
-11 11 -6 0 5 9 -1 20 -14 26 -30 26 -38 0 -15 -24 22 -39 13 -16 -10 21 -22
21 -31 -1 -14 -15 13 -15 12 0 -12 10 -14 14 -29 10 -34 -5 -4 -2 -5 5 -1 6 4
12 2 12 -4 0 -6 5 -8 12 -4 7 5 5 11 -7 21 -14 9 -15 13 -4 13 8 0 20 -9 27
-21 8 -12 9 -18 4 -15 -6 3 -13 -1 -16 -10 -5 -13 -2 -15 15 -11 20 5 20 5 2
-15 -18 -21 -18 -21 5 -9 12 7 22 8 22 2 0 -5 -6 -12 -12 -14 -7 -3 -3 -6 8
-6 12 -1 29 9 38 22 9 12 14 16 11 10 -3 -7 -1 -23 5 -35 10 -21 10 -22 -3 -5
-9 10 -18 14 -20 9 -3 -4 5 -21 19 -37 24 -28 27 -27 25 10 -1 16 1 15 10 -5
7 -17 7 -26 0 -28 -7 -2 -6 -10 2 -23 9 -15 9 -23 0 -39 -11 -16 -10 -18 2
-14 8 4 15 15 15 25 0 10 6 19 13 19 8 0 7 3 -3 10 -8 5 -12 12 -8 15 3 4 2
20 -2 36 -5 18 -5 27 1 24 5 -4 9 -16 9 -27 0 -21 0 -21 20 -3 20 18 21 18 14
0 -5 -13 -4 -16 4 -11 7 4 12 2 12 -3 0 -6 -5 -11 -11 -11 -5 0 -7 -5 -4 -11
5 -7 13 -5 25 6 14 12 20 13 26 4 4 -7 3 -10 -4 -5 -6 3 -20 -7 -32 -24 -15
-21 -17 -30 -8 -30 10 0 9 -3 -2 -10 -13 -8 -13 -11 -1 -22 10 -10 12 -10 7 0
-4 6 -2 12 4 12 7 0 10 -6 8 -12 -7 -21 -33 -15 -33 7 -1 11 -4 26 -9 33 -4 8
-3 11 5 10 6 -2 14 3 16 10 4 11 1 12 -15 3 -20 -11 -22 -25 -7 -72 4 -10 13
-19 21 -19 12 0 18 -12 16 -32 -1 -3 6 -12 15 -20 12 -9 15 -9 9 0 -4 6 -2 12
3 12 6 0 11 -6 11 -14 0 -17 27 -29 36 -15 3 5 15 7 26 3 17 -5 18 -3 9 15
-13 23 -33 29 -28 9 1 -7 -4 -12 -11 -10 -8 1 -11 -2 -6 -9 4 -8 3 -9 -5 -5
-6 4 -9 12 -6 17 4 5 1 9 -6 9 -18 0 -4 11 17 14 10 2 20 8 22 15 5 14 -18 10
-36 -6 -19 -19 -30 -16 -42 10 -11 21 -10 21 4 3 9 -11 19 -17 22 -13 4 4 1
13 -6 22 -10 12 -10 21 4 48 8 17 16 26 16 19 0 -7 -6 -21 -12 -32 -18 -29 3
-48 31 -28 12 8 19 17 16 19 -2 3 5 11 17 18 11 7 17 8 13 2 -6 -11 4 -14 35
-12 10 0 11 -1 3 -5 -7 -3 -13 -10 -13 -15 0 -6 4 -8 9 -5 5 3 12 -1 15 -9 4
-13 2 -13 -14 -5 -27 15 -38 12 -16 -5 18 -13 18 -14 -2 -12 -11 0 -18 5 -16
9 3 4 0 8 -6 8 -6 0 -10 -8 -8 -17 3 -17 45 -26 54 -11 3 4 11 8 17 8 7 0 4
-7 -6 -15 -11 -7 -25 -11 -33 -8 -8 3 -14 0 -14 -5 0 -6 9 -14 20 -17 11 -3
20 -10 20 -15 0 -5 -8 -6 -17 -3 -15 6 -16 4 -6 -9 7 -8 10 -18 6 -21 -3 -4
-1 -7 5 -7 7 0 12 -5 12 -11 0 -8 -4 -8 -14 0 -8 6 -19 10 -26 9 -7 -2 -14 2
-17 9 -3 8 3 11 17 8 23 -5 18 10 -10 25 -13 7 -21 5 -31 -8 -13 -15 -12 -16
4 -3 19 15 24 2 5 -17 -9 -9 -9 -12 0 -12 6 0 9 -8 6 -17 -4 -11 -2 -14 3 -8
10 13 31 13 41 0 14 -20 83 -26 89 -7 3 8 -2 10 -14 6 -17 -5 -17 -5 0 6 12 8
15 15 9 23 -6 7 -11 20 -13 31 -4 17 -5 17 -24 -5 -18 -20 -18 -22 -2 -16 10
4 16 3 12 -2 -3 -5 1 -12 7 -14 7 -3 8 -6 2 -6 -5 -1 -18 5 -28 12 -16 12 -16
14 4 35 23 24 40 21 40 -7 0 -28 12 -33 34 -14 20 17 20 17 7 1 -12 -16 -11
-18 3 -18 9 0 16 5 16 10 0 6 5 10 11 10 17 0 -1 -21 -27 -31 -16 -5 -24 -15
-22 -26 2 -11 -2 -17 -11 -15 -8 2 -11 -3 -8 -12 4 -10 1 -13 -7 -10 -7 3 -13
-2 -13 -11 0 -9 6 -14 14 -11 8 3 11 2 8 -3 -3 -5 -1 -12 5 -16 5 -3 10 -12
10 -18 0 -7 -4 -6 -10 3 -9 13 -10 13 -10 0 -1 -9 -6 -5 -15 10 -8 14 -14 19
-15 11 0 -8 -3 -11 -6 -8 -4 4 -1 13 6 22 8 10 9 15 1 15 -6 0 -11 -4 -11 -9
0 -6 -9 -8 -20 -6 -11 2 -20 -1 -20 -7 0 -5 7 -8 14 -5 11 5 14 -1 13 -21 -1
-20 2 -26 13 -23 47 11 73 6 49 -10 -10 -6 -11 -9 -1 -9 6 0 12 -5 12 -11 0
-5 -4 -8 -9 -5 -11 7 -8 -21 4 -31 4 -4 5 -3 1 4 -4 7 2 17 14 23 11 6 18 15
15 21 -4 5 0 9 7 9 8 0 6 5 -4 11 -10 5 -18 14 -18 18 0 11 49 11 56 0 3 -5
10 -9 15 -9 6 0 7 5 4 10 -3 6 -2 10 4 10 6 0 18 14 26 31 9 17 19 28 22 25 3
-3 12 2 20 12 13 15 13 15 3 -6 -6 -13 -16 -20 -22 -16 -8 5 -9 1 -4 -12 4
-10 4 -15 0 -11 -4 4 -16 -5 -26 -20 -22 -34 -23 -44 -3 -36 9 3 13 8 11 11
-8 7 14 32 27 32 6 0 2 -7 -9 -15 -10 -8 -15 -15 -11 -15 4 0 3 -8 -2 -18 -10
-19 2 -42 23 -42 6 0 5 5 -1 11 -16 16 -5 39 15 33 13 -5 13 -2 -2 10 -11 9
-15 16 -9 16 14 0 34 -25 28 -34 -3 -3 0 -2 7 4 9 7 7 14 -6 29 -16 18 -5 44
11 27 4 -3 1 -6 -6 -6 -7 0 -10 -4 -6 -10 3 -5 12 -7 20 -4 8 4 12 11 8 17 -4
6 -1 7 7 2 10 -6 10 -10 -3 -20 -15 -11 -15 -14 0 -36 9 -13 13 -21 9 -18 -13
12 -65 -43 -57 -60 5 -9 6 -23 3 -31 -5 -13 -3 -13 11 -1 13 10 14 17 6 27
-11 14 -3 38 11 29 4 -3 10 2 14 10 7 19 30 19 48 2 7 -8 20 -16 28 -19 8 -3
-11 -5 -43 -3 -39 2 -57 -1 -54 -9 2 -6 20 -11 40 -11 40 0 55 -11 62 -44 6
-34 -4 -54 -21 -40 -8 6 -14 7 -14 2 0 -5 9 -17 21 -26 11 -10 18 -21 14 -25
-3 -3 -10 0 -14 7 -5 7 -11 9 -13 5 -3 -5 -3 -3 -2 4 4 13 -8 16 -19 6 -12
-13 13 -43 31 -38 13 4 14 4 4 -4 -11 -7 -10 -10 3 -16 23 -8 23 -8 21 12 0 9
5 16 12 15 12 -3 16 9 12 37 -1 11 1 12 10 4 14 -14 -5 -58 -21 -49 -5 4 -9 2
-9 -4 0 -17 14 -20 32 -7 10 7 14 16 10 21 -4 4 3 2 15 -6 12 -7 19 -17 16
-23 -4 -5 1 -7 10 -3 10 3 17 2 17 -3 0 -16 -28 -12 -37 5 -8 13 -12 13 -27 2
-11 -8 -16 -19 -12 -25 11 -18 26 -14 20 6 -5 14 -3 14 10 -2 9 -11 16 -16 16
-12 0 5 6 3 14 -3 13 -11 27 3 30 31 3 26 46 11 46 -16 0 -6 -5 -3 -11 7 -5 9
-15 17 -21 17 -6 0 -6 -6 2 -16 8 -8 9 -14 4 -12 -5 2 -10 -1 -11 -6 -2 -15
-35 -29 -42 -19 -7 10 -51 10 -68 0 -6 -4 -14 -3 -18 3 -4 6 -10 8 -15 5 -4
-3 -10 2 -14 10 -3 8 0 15 7 15 6 0 0 8 -13 17 -14 10 -29 17 -33 15 -4 -1 -7
6 -5 15 2 12 -2 17 -12 15 -8 -2 -11 0 -7 5 5 4 14 8 20 8 16 0 21 33 7 50
-10 12 -16 12 -38 -2 -15 -9 -24 -13 -20 -8 15 16 -13 37 -31 23 -15 -12 -15
-11 -1 6 9 13 10 17 2 12 -7 -4 -12 -4 -11 1 4 24 -1 38 -10 24 -6 -9 -11 -10
-15 -2 -4 6 -2 11 4 11 6 0 8 5 4 11 -4 8 -12 3 -21 -12 -11 -21 -13 -21 -11
-4 2 12 -2 19 -10 17 -8 -1 -11 2 -6 9 4 8 3 9 -4 5 -8 -5 -10 -2 -6 9 7 17
30 14 27 -4 -2 -6 0 -11 3 -11 8 0 37 30 30 31 -3 1 -10 3 -16 4 -5 1 -17 3
-25 4 -8 0 -15 5 -15 11 0 5 8 7 18 3 13 -5 12 -1 -5 16 -30 29 -34 27 -28
-14 2 -19 1 -34 -3 -34 -20 3 -28 -3 -28 -21 0 -10 2 -17 5 -15 2 3 11 -1 19
-8 13 -10 14 -9 4 10 -18 33 -14 41 5 13 10 -14 17 -27 16 -31 -1 -3 7 -11 19
-18 11 -7 17 -8 13 -2 -3 6 -2 11 3 11 17 0 22 -13 9 -28 -9 -13 -9 -14 1 -8
6 4 12 3 12 -1 0 -5 -6 -15 -12 -23 -11 -12 -10 -12 3 -2 9 6 19 9 22 5 4 -3
7 -1 7 6 0 7 5 9 10 6 8 -5 7 -11 -1 -21 -8 -10 -8 -14 0 -14 6 0 11 5 11 11
0 5 5 7 10 4 7 -4 7 -12 0 -25 -7 -13 -7 -21 0 -25 6 -4 10 -3 9 2 -3 18 2 33
11 33 11 0 9 -28 -3 -47 -5 -8 -4 -13 2 -13 6 0 11 6 11 13 0 8 3 7 10 -3 6
-9 5 -17 -3 -22 -9 -6 -9 -8 0 -8 6 0 15 5 18 10 4 6 11 8 16 4 6 -3 3 -12 -8
-20 -17 -13 -17 -14 1 -7 14 5 17 3 11 -7 -5 -9 -4 -11 3 -6 7 4 12 2 12 -5 0
-6 8 -18 18 -26 16 -14 16 -14 -1 -9 -11 3 -16 2 -12 -4 4 -6 12 -10 18 -9 29
3 42 -1 29 -10 -11 -7 -11 -9 1 -14 21 -8 16 20 -6 35 -15 11 -11 13 25 13 38
-1 43 -3 41 -22 -2 -16 2 -21 12 -17 8 4 13 10 10 14 -3 5 0 12 6 16 8 4 9 3
5 -4 -4 -7 -3 -12 2 -12 5 0 12 9 15 20 3 11 11 20 19 19 10 0 10 -2 1 -6 -7
-2 -13 -11 -13 -18 0 -8 -7 -18 -16 -23 -22 -12 -19 -19 16 -48 30 -26 60 -21
60 8 0 6 -7 5 -15 -2 -13 -10 -19 -9 -35 5 -11 10 -18 20 -16 23 3 2 12 -3 21
-12 9 -9 21 -13 27 -10 5 3 0 12 -11 21 -12 8 -21 22 -20 31 0 13 3 12 11 -5
6 -13 17 -23 23 -23 7 0 16 -7 19 -16 3 -8 10 -13 15 -9 5 3 13 0 17 -6 4 -7
3 -9 -3 -6 -20 12 -51 -21 -46 -50 2 -15 5 -43 5 -61 0 -28 2 -31 16 -20 12
10 16 10 19 0 3 -6 9 -10 14 -7 5 4 6 -2 2 -12 -6 -16 -5 -16 11 -4 22 19 44
0 23 -20 -8 -8 -13 -22 -11 -32 1 -9 -3 -17 -9 -17 -5 0 -7 -3 -3 -7 4 -4 22
-8 39 -8 20 0 31 -5 29 -12 -1 -7 2 -13 6 -13 4 0 14 6 22 13 8 6 6 2 -5 -11
-17 -20 -43 -13 -30 9 3 3 -7 7 -21 7 l-26 0 26 -25 c14 -13 26 -25 26 -27 0
-10 -38 -45 -43 -39 -4 3 2 13 14 21 20 14 12 42 -13 42 -6 0 -6 -6 1 -14 9
-11 9 -16 0 -22 -7 -4 -9 -3 -5 4 3 6 2 13 -3 17 -6 3 -8 12 -5 19 6 17 -22
40 -37 30 -8 -5 -9 -3 -4 6 5 8 4 11 -2 7 -5 -3 -10 0 -10 8 0 8 4 15 9 15 5
0 7 4 3 10 -3 5 -13 7 -23 4 -15 -5 -15 -4 -2 6 13 10 12 11 -3 6 -10 -3 -22
-6 -25 -6 -4 0 4 -7 16 -16 12 -8 20 -20 16 -25 -3 -6 -12 -3 -20 8 -10 13
-14 14 -12 3 5 -23 41 -50 55 -39 7 7 14 6 19 -3 15 -24 14 -43 -4 -57 -15
-12 -14 -12 8 -6 23 7 24 7 10 -10 -8 -11 -10 -16 -4 -12 7 4 18 -1 25 -10 12
-14 11 -15 -11 -9 -23 6 -23 6 -5 -5 33 -21 64 -53 43 -46 -10 3 -20 2 -23 -3
-3 -4 7 -7 21 -5 22 2 25 -1 20 -21 -5 -19 -2 -24 11 -24 12 0 14 3 6 8 -9 6
-7 11 7 20 12 7 20 8 20 2 0 -5 -4 -10 -9 -10 -6 0 -8 -9 -6 -20 2 -13 0 -18
-7 -14 -7 4 -7 0 1 -13 6 -11 7 -23 4 -27 -3 -3 2 -6 12 -6 14 0 15 3 6 14
-15 17 -1 28 19 15 11 -6 12 -9 2 -9 -7 0 -11 -4 -7 -9 3 -5 1 -12 -4 -16 -5
-3 -7 -15 -4 -28 3 -12 6 -30 6 -39 1 -9 5 -14 10 -11 5 3 7 0 5 -8 -3 -8 -11
-13 -17 -11 -7 1 -10 -2 -6 -8 3 -6 10 -8 15 -5 5 3 11 1 15 -5 3 -5 12 -10
18 -10 7 0 6 4 -3 10 -8 5 -10 10 -4 10 5 0 19 -7 30 -15 19 -15 19 -15 -1 -9
-19 6 -19 6 -3 -11 19 -20 40 -12 32 13 -4 13 -3 12 7 -2 9 -15 9 -21 1 -24
-7 -2 -12 -11 -12 -20 0 -13 -3 -13 -16 4 -15 18 -15 18 -9 -4 4 -13 8 -35 10
-48 1 -13 8 -30 14 -38 7 -8 14 -27 15 -42 4 -35 24 -43 24 -10 -1 14 -4 23
-9 20 -5 -3 -9 -1 -9 3 0 5 9 14 20 21 12 7 20 8 20 2 0 -5 -4 -10 -9 -10 -4
0 -7 -13 -5 -30 2 -20 -2 -32 -14 -39 -22 -14 -6 -14 18 -1 16 8 22 6 32 -10
7 -11 18 -20 25 -20 7 0 13 -4 13 -10 0 -5 -8 -7 -17 -3 -15 5 -16 3 -5 -8 6
-7 12 -17 12 -23 0 -5 -7 -1 -15 10 -13 17 -14 17 -15 2 0 -9 8 -23 18 -30 18
-12 28 -53 10 -42 -4 3 -8 0 -8 -6 0 -6 -5 -8 -11 -5 -6 5 -4 11 6 19 16 11
15 13 -1 27 -16 12 -17 12 -11 -3 3 -10 2 -20 -4 -24 -6 -4 -4 -13 7 -25 10
-11 12 -19 6 -19 -7 0 -12 -5 -12 -11 0 -5 4 -8 9 -4 10 6 41 -21 41 -35 0 -5
-4 -12 -10 -15 -5 -3 -7 0 -4 8 3 8 1 17 -4 21 -5 3 -8 -5 -7 -17 2 -12 8 -21
15 -19 8 2 10 -3 7 -13 -4 -8 -2 -15 3 -15 5 0 6 -7 3 -17 -5 -12 -3 -14 7 -8
10 6 11 4 4 -6 -12 -20 -14 -38 -4 -44 5 -3 7 3 5 13 -2 11 3 19 10 19 7 0 12
-5 10 -11 -2 -6 -6 -24 -10 -41 -6 -29 -6 -29 9 -10 15 19 16 19 6 -7 -6 -18
-6 -29 1 -34 6 -4 4 -13 -7 -25 -14 -16 -15 -19 -3 -14 9 3 22 -2 30 -12 13
-16 12 -17 -2 -5 -14 10 -18 10 -23 -3 -3 -8 0 -15 6 -15 6 0 5 -6 -3 -17 -10
-11 -10 -14 -1 -9 11 7 17 -5 13 -28 -1 -4 4 -14 10 -22 7 -8 9 -17 6 -21 -4
-3 -1 -15 5 -27 10 -19 10 -20 -5 -7 -10 8 -17 9 -17 3 0 -6 5 -14 11 -17 6
-5 4 -12 -8 -21 -15 -12 -16 -13 -1 -8 19 7 22 -35 3 -48 -6 -5 -5 -8 4 -8 11
0 9 -4 -5 -15 -19 -15 -19 -15 1 -9 19 5 19 5 3 -9 -10 -8 -18 -20 -18 -28 0
-11 2 -11 11 1 9 13 10 13 6 0 -2 -8 -10 -14 -17 -12 -7 1 -19 -3 -27 -10 -14
-11 -15 -10 -9 12 6 19 5 21 -3 10 -8 -11 -11 -12 -11 -2 0 7 -4 11 -8 8 -4
-2 -14 -1 -22 4 -7 4 -25 4 -39 -1 -22 -8 -23 -7 -11 3 13 11 24 48 15 48 -4
0 -35 -60 -35 -67 0 -2 11 -1 25 1 14 3 23 1 20 -5 -4 -5 -1 -9 4 -9 6 0 11 5
11 10 0 6 4 10 8 10 11 0 9 -31 -3 -49 -6 -10 -4 -12 5 -6 9 6 11 4 5 -5 -5
-9 -4 -11 3 -6 8 5 10 2 6 -8 -3 -9 -10 -16 -16 -16 -5 0 -7 4 -4 9 3 5 -2 15
-11 22 -15 12 -16 12 -10 -4 6 -15 4 -16 -16 -6 -19 11 -20 10 -10 -2 6 -8 9
-20 5 -26 -5 -8 -14 -2 -27 17 -25 37 -34 38 -27 3 2 -16 2 -26 -1 -23 -3 3
-7 17 -9 32 -4 28 -18 51 -18 30 0 -7 -8 -12 -17 -12 -17 1 -17 1 0 11 9 5 17
15 17 21 0 7 -4 7 -12 0 -14 -11 -68 -10 -86 2 -7 4 -12 3 -12 -1 0 -5 -9 -14
-21 -21 -12 -8 -18 -9 -15 -3 11 18 -34 41 -58 30 -17 -8 -16 -6 4 11 l25 21
-25 -5 c-14 -3 -19 -3 -12 0 6 3 12 10 12 15 0 6 -6 7 -12 3 -9 -5 -9 -2 1 9
16 20 2 23 -19 5 -12 -11 -12 -10 -1 5 15 19 2 24 -17 5 -9 -9 -15 -9 -24 1
-11 11 -10 13 4 8 11 -4 22 3 32 18 21 32 20 41 -1 24 -16 -13 -17 -12 -5 2
10 14 10 18 -3 23 -11 4 -14 2 -9 -6 4 -7 3 -8 -4 -4 -15 9 -15 1 -1 -27 11
-21 10 -21 -6 -5 -15 14 -16 21 -6 46 12 28 47 43 37 15 -3 -8 -1 -11 4 -8 6
3 10 -1 10 -9 0 -8 5 -18 12 -22 8 -5 9 -1 4 12 -6 16 -5 17 6 6 11 -11 10
-16 -6 -28 -11 -8 -15 -14 -10 -14 6 0 16 6 23 13 11 10 12 9 6 -2 -5 -9 -4
-12 3 -7 8 5 10 1 5 -10 -5 -13 -3 -16 10 -11 9 3 19 2 22 -3 4 -6 12 -10 18
-10 8 0 8 3 -2 9 -9 6 -10 11 -2 15 6 4 11 2 11 -3 0 -26 20 -52 34 -44 4 3 2
9 -5 14 -7 4 -10 11 -6 16 13 12 27 -19 17 -38 -5 -9 -6 -19 -3 -23 12 -11 19
-6 20 16 2 20 18 38 37 38 5 0 1 -9 -8 -19 -17 -19 -17 -19 1 -17 10 2 23 -1
30 -6 7 -5 17 -7 22 -4 5 4 13 1 17 -5 5 -8 3 -9 -6 -4 -9 5 -11 4 -6 -3 5 -8
1 -10 -11 -6 -14 5 -15 4 -4 -4 8 -6 21 -8 29 -4 10 4 13 1 8 -7 -5 -7 -15
-10 -25 -7 -12 5 -12 3 3 -9 10 -8 23 -12 27 -9 5 3 6 -3 3 -13 -5 -14 -4 -15
4 -4 5 7 16 10 23 7 8 -4 5 0 -5 8 -11 9 -14 16 -8 16 7 0 3 9 -8 20 -23 23
-26 41 -7 37 6 -1 11 4 9 12 -2 8 3 18 10 22 8 5 5 8 -10 6 -12 0 -22 -5 -22
-10 0 -4 -5 -5 -10 -2 -8 5 -7 12 2 23 11 14 10 14 -12 -1 -28 -19 -50 -23
-32 -5 7 7 12 16 12 22 0 5 -7 1 -15 -10 -12 -16 -16 -17 -24 -4 -6 8 -13 11
-18 7 -4 -5 -1 -12 7 -17 21 -13 6 -12 -24 1 -14 7 -23 16 -20 21 3 4 9 6 14
3 5 -3 14 5 20 17 11 22 10 22 -4 4 -9 -11 -16 -16 -16 -12 0 5 -7 3 -15 -4
-14 -12 -35 -6 -35 10 0 5 8 7 18 4 14 -5 14 -4 2 4 -8 6 -18 8 -22 6 -4 -3
-8 -1 -8 3 0 5 -16 17 -35 27 -19 11 -32 24 -28 30 3 6 3 8 -2 4 -4 -4 -15 -2
-23 4 -18 15 -44 20 -36 6 4 -6 1 -8 -7 -6 -8 3 -13 12 -11 19 3 11 1 11 -9 2
-11 -11 -27 -5 -68 24 -2 1 2 11 10 20 13 16 12 17 -4 4 -10 -8 -16 -20 -13
-28 7 -18 -4 -16 -27 5 -15 12 -21 14 -24 5 -3 -7 -9 -13 -14 -13 -6 0 -8 4
-4 9 3 6 -3 15 -12 21 -16 10 -16 11 3 7 11 -2 21 1 21 7 0 6 -10 11 -23 11
-17 0 -21 -5 -18 -23 4 -20 2 -21 -15 -10 -14 9 -17 14 -8 20 9 5 9 10 -2 20
-8 7 -11 8 -8 2 4 -6 -5 -22 -18 -34 -29 -27 -34 -17 -8 14 10 12 11 16 4 9
-11 -10 -17 -9 -25 1 -8 10 -17 11 -31 5 -19 -9 -19 -9 2 -5 13 2 24 -2 27
-10 5 -14 -3 -14 -54 -2 -8 1 -18 12 -23 22 -4 10 -10 16 -13 13 -10 -10 17
-48 29 -41 7 4 6 1 -2 -7 -10 -10 -15 -11 -18 -2 -8 22 -40 53 -48 45 -4 -4
-3 3 3 14 14 27 5 36 -20 23 -11 -6 -22 -8 -25 -5 -4 3 -12 1 -19 -5 -10 -9
-15 -7 -20 5 -3 9 -10 13 -16 10 -5 -3 -4 -13 4 -22 10 -14 10 -15 -2 -4 -19
17 -35 15 -21 -2 8 -10 9 -16 1 -21 -6 -4 -10 -3 -9 2 3 20 -2 23 -22 12 -17
-9 -20 -8 -14 2 6 9 3 11 -9 6 -10 -4 -15 -3 -11 4 4 5 16 7 28 3 18 -5 20 -4
10 7 -15 15 -43 21 -43 9 0 -4 -8 -11 -17 -14 -16 -6 -16 -6 0 12 24 26 21 39
-3 17 -28 -26 -45 -8 -27 28 9 18 17 23 24 16 7 -7 10 -3 9 12 0 12 -8 23 -18
25 -11 1 -15 -3 -11 -12 3 -8 0 -14 -6 -14 -6 0 -11 -6 -11 -14 0 -8 -5 -18
-11 -22 -8 -4 -9 0 -4 15 7 24 2 27 -14 7 -9 -11 -8 -18 4 -30 9 -9 12 -16 6
-16 -15 0 -33 37 -22 44 15 9 1 45 -20 51 -10 4 -19 13 -19 22 0 13 3 13 15 3
13 -11 14 -10 10 2 -9 23 -57 21 -50 -2 6 -20 -20 -35 -31 -18 -4 7 -3 8 4 4
7 -4 12 -2 12 4 0 7 -6 10 -14 7 -21 -8 -28 4 -13 22 10 14 10 14 -5 3 -13
-10 -17 -10 -21 0 -3 8 -6 9 -6 2 -1 -7 11 -25 27 -41 30 -33 61 -72 48 -61
-5 4 -15 0 -22 -10 -17 -22 -17 -32 0 -32 7 0 20 -7 27 -17 13 -15 12 -15 -18
0 -18 10 -35 17 -38 17 -13 0 8 -22 29 -30 l21 -9 -21 0 c-12 -1 -24 6 -28 14
-3 8 -10 15 -16 15 -6 0 -9 -4 -6 -8 2 -4 0 -14 -6 -22 -8 -12 -9 -11 -4 4 5
14 2 17 -11 12 -16 -5 -16 -4 -3 6 18 15 23 51 6 45 -6 -3 -10 -10 -8 -16 1
-6 -2 -11 -8 -11 -13 0 -13 17 0 25 6 4 8 11 4 16 -3 6 -12 3 -20 -8 -11 -14
-14 -15 -13 -3 3 29 -1 41 -11 35 -5 -3 -10 -1 -10 5 0 6 8 9 18 6 14 -5 17 1
18 29 1 27 -2 32 -12 24 -7 -6 -10 -18 -7 -26 5 -11 0 -10 -15 5 -12 12 -30
19 -42 17 -11 -2 -20 0 -20 6 0 5 5 9 11 9 5 0 8 4 4 10 -3 5 -12 7 -20 3 -9
-3 -15 1 -15 11 0 9 -4 16 -10 16 -5 0 -10 5 -10 11 0 8 5 8 15 -1 8 -7 15 -9
15 -6 0 4 9 2 20 -4 11 -6 18 -15 15 -19 -2 -5 3 -15 13 -22 16 -13 16 -12 2
6 -8 11 -10 17 -6 13 5 -4 15 -3 22 3 8 7 14 7 19 -1 3 -5 -1 -10 -9 -10 -10
0 -13 -6 -10 -15 5 -13 9 -13 21 -3 8 7 22 13 30 14 8 2 18 6 21 9 4 4 0 6 -8
5 -27 -4 -41 0 -35 9 3 6 -4 8 -15 6 -13 -2 -23 2 -27 11 -5 13 -7 13 -14 2
-7 -10 -9 -11 -9 0 0 7 -4 11 -8 8 -5 -3 -19 1 -33 7 -26 14 -35 14 -61 3 -9
-4 -21 -5 -27 -2 -6 4 -8 -3 -6 -16 5 -26 -10 -56 -22 -45 -4 5 -1 12 7 17 8
5 11 12 7 17 -5 4 -12 2 -16 -6 -5 -7 -12 -12 -17 -12 -5 1 -9 -12 -10 -29 -1
-29 5 -35 35 -30 11 1 10 -2 -2 -15 -9 -8 -14 -23 -10 -33 5 -14 2 -13 -11 3
-17 20 -17 20 -13 -3 3 -12 1 -20 -4 -16 -5 3 -9 12 -9 20 0 10 -5 12 -12 8
-9 -5 -9 -2 1 9 7 9 10 17 6 17 -4 0 -2 6 4 14 12 15 -3 35 -16 22 -4 -3 -1
-6 6 -6 7 0 9 -5 6 -10 -4 -6 -11 -7 -17 -4 -7 4 -8 2 -4 -4 4 -7 2 -20 -4
-29 -10 -15 -11 -15 -6 -1 5 16 -9 19 -31 5 -9 -5 -13 -2 -13 9 0 10 -3 15 -6
11 -13 -13 6 -40 19 -28 10 8 14 7 14 -4 0 -8 -4 -12 -8 -10 -10 7 -30 -21
-21 -30 4 -5 1 -5 -6 -1 -7 4 -10 12 -7 17 4 5 -1 9 -9 9 -8 0 -20 -8 -26 -17
-9 -15 -10 -14 -4 7 5 20 4 23 -7 13 -19 -18 -29 -16 -23 5 4 13 2 12 -7 -3
-7 -11 -14 -26 -15 -33 -5 -27 -13 -24 -11 3 1 16 -3 30 -10 32 -7 3 -10 -3
-6 -15 2 -11 -1 -23 -7 -27 -9 -6 -6 -13 10 -25 15 -11 19 -19 11 -24 -6 -4
-11 -1 -11 6 0 10 -3 9 -11 -2 -9 -13 -10 -12 -5 3 3 10 2 15 -3 12 -5 -3 -13
0 -17 6 -4 7 -3 9 4 5 12 -7 8 32 -4 43 -4 3 -4 -2 -1 -11 3 -10 2 -20 -3 -23
-6 -4 -10 -1 -10 4 0 6 -5 11 -12 11 -6 0 -8 -3 -5 -7 8 -8 -34 -39 -48 -35
-5 2 -1 -6 9 -17 19 -21 9 -30 -11 -10 -8 8 -13 8 -18 0 -3 -6 -3 -11 2 -10
20 3 27 -2 13 -12 -11 -8 -9 -9 10 -3 22 6 23 5 12 -9 -8 -9 -21 -13 -30 -10
-13 4 -12 2 3 -10 25 -21 39 -21 32 -2 -4 8 -2 17 3 20 4 3 10 -1 13 -7 4 -10
7 -11 18 0 18 16 34 16 20 -1 -6 -8 -7 -18 -3 -22 4 -5 -1 -5 -10 -2 -10 3
-21 1 -25 -6 -8 -12 -34 -16 -43 -7 -26 26 -41 30 -20 6 21 -25 22 -28 6 -22
-15 5 -13 1 7 -18 29 -27 35 -41 14 -33 -10 4 -13 -6 -14 -35 0 -24 3 -35 7
-28 5 7 6 19 3 26 -2 6 0 15 6 19 7 3 8 0 5 -9 -3 -9 -1 -16 5 -16 6 0 11 6
11 13 0 7 5 5 11 -5 6 -11 16 -15 27 -11 16 5 16 5 0 -8 -16 -13 -16 -16 -2
-34 16 -20 16 -19 9 4 -5 17 -4 22 6 19 8 -3 12 -13 11 -23 -3 -16 -1 -17 12
-6 9 8 16 21 17 30 0 13 2 14 6 1 4 -8 13 -20 21 -26 12 -9 12 -12 -2 -23 -11
-9 -16 -10 -16 -2 0 6 5 11 12 11 6 0 8 3 4 7 -4 5 -14 -1 -22 -11 -8 -11 -14
-14 -14 -7 0 7 -5 9 -11 5 -16 -10 8 -23 37 -19 13 1 24 -2 24 -6 0 -9 -15
-13 -37 -10 -19 3 -16 -16 3 -23 9 -4 14 -9 11 -13 -4 -3 -14 0 -23 8 -15 12
-16 11 -9 -9 6 -19 4 -23 -11 -20 -9 1 -19 9 -20 16 -1 7 0 8 3 2 2 -5 9 -10
14 -10 6 0 6 8 -1 19 -5 11 -7 28 -3 38 6 15 4 16 -9 5 -8 -7 -23 -10 -32 -6
-12 5 -15 2 -10 -10 7 -17 -28 -18 -43 -1 -5 4 -1 4 7 0 13 -8 13 -7 1 8 -8
10 -9 17 -3 17 6 0 10 9 9 20 -1 11 -5 20 -10 20 -5 0 -7 -7 -4 -14 4 -10 1
-13 -9 -9 -8 3 -22 -3 -30 -13 -13 -16 -15 -16 -10 -2 2 9 -2 19 -9 22 -11 4
-12 0 -5 -19 7 -19 6 -26 -6 -33 -15 -8 -15 -10 0 -15 22 -9 20 -28 -1 -21
-10 3 -8 -1 5 -8 12 -8 19 -18 15 -23 -4 -5 0 -3 9 4 10 7 24 11 31 8 8 -3 14
1 14 9 0 21 -25 25 -37 6 -9 -15 -10 -15 -8 3 1 11 -1 26 -5 33 -5 6 -4 12 2
12 5 0 13 -5 16 -10 4 -6 10 -8 15 -5 4 3 10 -2 13 -10 7 -16 40 -13 66 7 13
10 14 10 4 -2 -18 -20 -16 -38 5 -44 17 -6 26 -46 9 -46 -4 0 -5 -6 -1 -12 4
-7 4 -10 0 -6 -4 3 -8 10 -8 15 0 20 -21 33 -34 22 -11 -9 -14 -8 -14 2 0 12
-2 12 -9 1 -7 -11 -9 -11 -14 2 -4 9 -13 13 -22 10 -8 -3 -13 -10 -10 -14 3
-5 -1 -11 -7 -14 -7 -3 -1 -3 15 1 23 4 26 3 21 -13 -5 -16 -4 -16 5 -4 6 8
11 11 11 6 0 -5 6 -3 14 3 10 8 16 9 21 1 3 -5 1 -10 -6 -10 -19 0 -4 -10 22
-15 13 -3 26 1 31 8 5 9 10 9 20 -2 10 -11 10 -12 0 -7 -7 4 -15 1 -18 -8 -3
-8 -13 -12 -22 -9 -9 3 -4 -4 11 -15 16 -11 24 -22 19 -26 -6 -3 -13 -2 -17 4
-3 5 -14 10 -23 10 -10 -1 0 -10 21 -21 20 -11 37 -22 37 -24 0 -3 -14 2 -31
10 -17 9 -33 14 -36 12 -2 -3 5 -8 16 -12 11 -3 23 -15 26 -26 7 -20 7 -20 26
2 19 22 22 20 21 -16 -1 -17 0 -17 4 -2 7 24 28 22 21 -3 -3 -11 -1 -18 4 -14
5 3 9 12 9 20 0 9 5 12 12 8 7 -4 8 -3 4 5 -4 6 -13 8 -19 4 -7 -4 -6 1 2 10
8 10 11 20 7 24 -3 4 -13 -2 -21 -13 -11 -14 -14 -15 -9 -3 7 23 -13 34 -32
18 -13 -11 -15 -10 -14 2 4 28 0 40 -12 33 -7 -4 -9 -3 -5 1 11 13 37 15 34 3
-1 -6 5 -13 13 -15 9 -3 11 -1 5 4 -5 4 -11 16 -13 27 -4 20 9 16 44 -16 14
-13 24 -16 29 -9 3 6 1 11 -4 11 -6 0 -11 5 -11 10 0 6 8 5 20 -2 11 -7 15
-15 9 -19 -7 -4 -5 -9 5 -12 10 -4 16 -1 16 8 0 8 3 15 8 16 4 0 15 2 24 4 10
2 15 -2 12 -9 -3 -7 2 -13 11 -13 8 0 15 4 15 9 0 4 5 8 10 8 22 0 8 -18 -22
-31 -39 -16 -59 -17 -75 -6 -7 5 -15 1 -22 -11 -12 -22 7 -36 33 -26 17 6 16
-11 -1 -41 l-12 -20 -16 20 c-16 20 -16 19 -5 -2 6 -13 15 -23 20 -23 10 0 35
41 32 53 -3 9 12 9 21 0 4 -3 -1 -15 -10 -26 -10 -12 -12 -17 -4 -12 9 5 12 3
9 -6 -3 -8 -12 -13 -19 -11 -8 2 -10 0 -6 -4 8 -8 25 -13 70 -18 15 -2 31 -7
35 -10 3 -4 -5 -5 -20 -2 -15 2 -29 -1 -32 -7 -3 -9 -5 -9 -5 1 -1 17 -21 15
-21 -2 0 -8 -6 -17 -12 -20 -7 -3 -3 -3 10 0 12 3 22 1 22 -5 0 -6 -7 -12 -15
-12 -28 -3 -33 -4 -41 -11 -3 -4 3 -6 15 -3 14 2 21 -1 21 -11 0 -9 -5 -12
-12 -8 -6 4 -8 3 -4 -4 3 -6 2 -13 -4 -17 -5 -3 -10 -12 -10 -18 0 -7 4 -6 10
3 9 13 10 13 10 0 0 -13 2 -13 9 0 6 8 7 18 5 22 -3 4 0 8 5 8 6 0 10 5 8 11
-1 6 4 13 11 15 7 1 8 0 2 -3 -7 -3 -7 -10 2 -21 8 -9 8 -13 2 -9 -19 11 -25
-23 -9 -46 8 -12 15 -16 15 -9 0 6 3 11 8 11 18 -3 22 2 13 19 -7 14 -5 17 15
17 20 0 22 -2 9 -11 -8 -6 -12 -14 -8 -17 3 -4 0 -13 -7 -22 -7 -9 -10 -18 -6
-22 3 -3 6 -1 6 5 0 7 5 12 11 12 5 0 7 -4 4 -10 -3 -5 -2 -10 4 -10 6 0 9 12
8 27 -1 16 4 28 13 30 9 3 11 1 5 -4 -14 -11 -17 -33 -5 -33 7 0 7 -7 0 -22
-10 -21 -10 -22 4 -5 8 11 12 25 10 32 -3 7 -1 16 4 19 6 4 9 -9 7 -33 -3 -37
10 -49 31 -28 4 4 14 7 23 7 11 0 10 -3 -5 -14 -10 -8 -16 -18 -11 -22 4 -4 7
-2 7 4 0 7 5 12 11 12 5 0 7 -5 3 -12 -4 -6 -3 -8 3 -5 6 4 14 -1 17 -10 5
-12 9 -14 18 -5 13 13 32 16 25 5 -3 -5 6 -9 19 -9 20 -2 23 2 20 21 -3 18 -1
22 10 18 10 -3 12 -12 8 -26 -5 -16 -3 -19 10 -14 10 4 19 1 23 -8 5 -13 7
-13 18 2 13 18 1 63 -17 63 -12 0 -10 -14 4 -28 7 -7 10 -12 7 -13 -2 0 -12
-2 -23 -4 -13 -3 -15 0 -8 7 13 13 4 40 -12 31 -6 -4 -5 1 3 10 10 13 17 14
34 6 17 -10 19 -9 13 7 -6 15 -5 17 5 7 18 -18 30 -16 23 2 -4 8 -1 15 5 15 6
0 10 -5 8 -11 -1 -6 13 -20 31 -30 17 -10 32 -15 32 -11 0 12 -38 41 -44 35
-3 -4 -6 -2 -6 3 0 23 36 32 49 12 7 -11 18 -17 26 -14 9 3 12 0 9 -8 -3 -7 2
-13 11 -13 9 0 14 6 11 13 -3 7 2 10 15 7 11 -3 19 0 19 6 0 7 -5 9 -12 5 -7
-4 -8 -3 -4 5 4 6 11 9 16 6 5 -3 11 -1 15 5 3 5 2 10 -3 10 -5 0 -9 7 -9 15
0 8 3 13 5 10 3 -2 13 5 23 16 l17 20 7 -21 c3 -11 11 -17 17 -14 7 4 8 2 4
-5 -4 -6 -12 -9 -17 -6 -5 4 -9 1 -9 -4 0 -18 28 -13 39 7 6 9 11 12 11 7 0
-6 -5 -16 -12 -23 -8 -8 -9 -12 -1 -12 6 0 21 12 33 28 13 16 19 20 16 9 -4
-11 -1 -17 7 -15 7 2 29 -7 49 -19 38 -22 41 -37 16 -69 -4 -6 -6 -18 -3 -26
4 -9 0 -15 -9 -15 -18 0 -16 28 2 50 14 16 13 38 -3 49 -11 8 -25 1 -25 -13 0
-6 5 -7 11 -3 7 4 6 -3 -2 -17 -7 -13 -12 -25 -11 -26 1 -2 1 -6 1 -10 -1 -5
-2 -14 -3 -22 0 -8 -8 -16 -16 -18 -13 -4 -13 -3 0 6 13 10 13 12 0 20 -9 6
-19 6 -26 0 -8 -7 -14 -6 -19 1 -3 5 0 10 7 10 10 0 10 2 -1 9 -11 7 -11 9 0
14 8 3 4 4 -8 4 -13 -1 -23 -6 -23 -11 0 -5 -7 -1 -16 10 -8 10 -13 13 -9 7 3
-7 2 -20 -3 -29 -8 -14 -10 -13 -23 2 -13 16 -12 17 5 11 14 -6 17 -4 12 9 -3
8 -6 18 -6 20 0 2 -4 4 -10 4 -5 0 -9 -6 -7 -12 1 -7 -4 -12 -11 -10 -8 1 -11
-1 -8 -6 3 -5 -1 -9 -9 -9 -12 0 -12 3 -2 15 10 13 9 14 -3 10 -8 -3 -14 -12
-14 -21 1 -9 -3 -14 -9 -10 -5 3 -7 2 -4 -3 3 -5 -3 -10 -14 -10 -10 0 -19 4
-19 8 0 4 7 8 15 8 8 0 15 5 15 11 0 5 -4 8 -9 5 -4 -3 -19 6 -31 19 -29 31
-51 33 -23 3 22 -25 30 -73 10 -61 -7 4 -6 0 2 -10 7 -9 17 -15 21 -12 5 3 12
0 16 -6 4 -8 11 -4 19 11 l12 23 22 -22 c13 -13 25 -21 27 -18 3 3 -7 14 -21
25 -14 11 -21 23 -16 26 5 3 21 -7 34 -24 14 -16 29 -30 33 -30 3 0 1 6 -5 13
-11 14 -5 27 11 27 5 0 6 -4 3 -10 -3 -5 -1 -10 5 -10 6 0 10 7 8 16 -2 10 2
19 8 21 7 2 11 -9 10 -29 -1 -22 3 -32 12 -31 6 2 12 -2 12 -8 0 -8 4 -8 14 0
11 10 17 8 25 -6 6 -11 11 -13 11 -5 0 7 5 10 12 6 7 -4 8 -3 4 5 -4 6 -12 9
-17 6 -5 -4 -9 -2 -9 4 0 20 20 21 32 1 7 -11 17 -20 22 -20 4 0 3 7 -4 15
-17 21 -1 19 23 -2 11 -10 18 -13 14 -7 -8 14 38 35 60 27 14 -6 14 -3 -3 19
-18 25 -19 25 -27 6 -4 -12 -10 -18 -13 -15 -3 3 -1 14 5 25 15 29 14 35 -6
28 -12 -4 -9 1 7 15 14 11 19 18 11 14 -7 -4 -18 -1 -23 6 -8 11 -9 11 -5 -2
3 -9 1 -21 -5 -27 -6 -6 -6 -12 1 -16 6 -4 11 -12 11 -18 0 -7 -4 -7 -13 1 -8
6 -17 8 -20 4 -4 -3 -7 -1 -7 5 0 6 7 17 15 25 8 8 11 17 8 21 -3 3 0 13 8 22
12 15 12 16 -6 11 -26 -9 -85 27 -61 36 9 4 15 3 15 -1 -3 -19 2 -25 11 -12 8
13 10 12 10 -2 0 -10 5 -18 10 -18 6 0 10 8 10 18 1 16 1 16 11 -1 6 -9 15
-15 21 -11 7 4 6 9 -3 15 -7 4 -11 10 -8 13 2 3 18 -5 34 -18 25 -20 28 -26
16 -40 -8 -10 -9 -16 -3 -16 6 0 16 8 21 18 6 9 11 12 11 7 0 -6 -6 -17 -12
-24 -11 -12 -10 -13 6 -7 18 6 18 5 2 -18 -21 -32 -20 -42 1 -25 12 11 17 11
20 2 3 -8 14 -2 30 15 14 15 20 19 13 10 -14 -21 -1 -24 19 -5 11 10 13 10 7
0 -4 -7 -3 -13 2 -13 6 0 13 7 16 16 8 22 8 24 -6 19 -17 -6 -45 12 -34 22 5
4 11 2 13 -4 3 -7 9 -13 14 -13 6 0 7 6 3 13 -6 8 -3 8 9 -1 9 -8 22 -10 28
-6 7 4 9 3 5 -4 -3 -6 5 -23 19 -39 13 -15 25 -22 25 -15 0 6 5 12 10 12 6 0
3 -11 -6 -25 -12 -19 -20 -23 -29 -15 -9 7 -16 6 -24 -3 -9 -11 -5 -14 19 -15
18 0 35 6 42 17 7 10 23 17 36 16 13 -1 27 5 32 14 5 9 10 11 10 4 0 -6 -5
-15 -11 -18 -6 -5 -4 -12 8 -21 10 -7 13 -14 7 -14 -5 0 -15 5 -22 12 -9 9
-12 9 -12 0 0 -6 8 -16 18 -21 9 -6 12 -11 5 -11 -6 0 -15 5 -18 10 -3 6 -10
10 -16 10 -5 0 -4 -9 3 -19 7 -11 15 -18 18 -16 3 2 14 -3 25 -11 10 -8 14
-14 8 -14 -7 0 -15 5 -18 10 -4 6 -10 8 -15 5 -11 -7 29 -55 46 -55 7 0 11 12
9 30 -1 16 1 27 6 24 5 -3 6 -10 3 -16 -5 -8 -1 -9 10 -5 10 4 15 3 11 -3 -6
-10 7 -14 31 -11 7 1 14 -7 18 -16 3 -10 9 -25 12 -33 5 -13 4 -13 -5 0 -10
13 -11 13 -11 0 0 -13 -2 -13 -9 -1 -5 8 -7 20 -4 28 4 9 0 11 -11 7 -12 -5
-14 -10 -6 -19 6 -7 10 -17 9 -21 -1 -5 -1 -18 1 -29 l1 -20 8 20 c5 11 13 21
20 21 6 1 15 2 21 3 5 0 9 4 9 9 -4 25 1 37 10 22 6 -8 7 -18 5 -22 -3 -4 -1
-8 5 -8 7 0 7 -8 0 -24 -8 -16 -17 -23 -28 -19 -14 4 -14 3 -1 -6 11 -8 18 -6
27 7 7 9 17 22 22 28 6 8 5 16 -2 25 -10 11 -9 11 6 0 19 -15 24 -2 5 17 -9 9
-9 12 0 12 7 0 12 -5 12 -11 0 -8 4 -8 15 1 8 6 19 9 25 5 5 -3 10 2 11 12 0
16 1 16 8 -2 5 -11 6 -24 4 -28 -3 -5 5 -19 16 -31 12 -13 23 -33 24 -44 1
-16 4 -18 14 -10 7 6 25 12 40 13 16 2 35 6 44 10 10 4 19 0 23 -10 3 -9 2
-13 -4 -10 -6 3 -10 0 -10 -7 0 -9 -3 -9 -10 2 -7 12 -12 12 -21 3 -8 -8 -17
-9 -23 -4 -7 5 -16 4 -23 -4 -10 -10 -9 -14 3 -19 8 -3 12 -2 9 4 -3 5 4 8 15
7 20 -1 29 -17 10 -17 -5 0 -10 -4 -10 -10 0 -18 18 -10 25 10 4 11 9 19 13
16 4 -2 17 0 30 5 19 7 21 12 12 28 -12 23 -13 42 -1 23 6 -10 10 -10 21 3 10
13 9 15 -8 15 -12 0 -24 5 -27 10 -4 6 -10 8 -15 5 -5 -3 -11 -1 -14 4 -7 10
20 9 30 -2 4 -4 15 -7 25 -7 26 0 32 -16 12 -35 -14 -14 -14 -18 -2 -26 18
-11 32 -11 25 0 -4 5 -1 20 4 33 10 22 10 22 5 -4 -3 -15 0 -30 7 -34 6 -4 8
-3 5 3 -4 6 0 16 8 23 8 7 16 11 16 9 13 -42 6 -56 -27 -55 -19 1 -34 4 -34 8
0 5 -4 8 -9 8 -6 0 -8 -9 -6 -20 2 -11 0 -20 -6 -20 -5 0 -9 5 -9 10 0 6 -5
10 -11 10 -5 0 -7 -5 -3 -12 5 -8 2 -9 -9 -5 -23 9 -30 -8 -10 -24 12 -10 14
-10 9 -1 -8 13 0 15 49 14 16 -1 31 -6 33 -11 2 -7 15 -8 29 -5 17 5 24 3 19
-4 -3 -6 -1 -14 5 -18 7 -4 9 -3 5 4 -8 13 10 25 43 28 15 2 21 0 14 -4 -7 -5
-11 -18 -8 -30 3 -16 -1 -22 -13 -22 -15 0 -15 -2 -2 -10 13 -9 13 -11 0 -21
-13 -9 -12 -10 3 -5 15 5 17 2 12 -14 -4 -11 -2 -20 4 -20 6 0 11 -5 11 -11 0
-5 -4 -7 -10 -4 -5 3 -10 1 -10 -4 0 -6 6 -11 13 -11 8 0 7 -4 -3 -10 -12 -8
-12 -10 5 -10 17 0 17 -2 5 -10 -18 -11 -21 -49 -6 -69 8 -11 8 -13 -1 -8 -8
5 -11 -1 -10 -20 2 -16 -4 -34 -13 -41 -8 -8 -10 -11 -4 -8 7 3 15 -1 18 -10
3 -8 2 -13 -3 -10 -14 9 -21 -20 -8 -34 9 -10 8 -12 -4 -7 -13 4 -15 1 -12
-14 3 -10 9 -16 14 -13 5 3 9 0 9 -5 0 -6 -6 -11 -14 -11 -8 0 -18 -5 -22 -12
-4 -7 -3 -8 4 -4 7 4 12 2 12 -3 0 -6 -6 -11 -12 -11 -9 0 -8 -4 2 -10 13 -9
8 -14 -12 -11 -10 1 -4 -25 10 -42 10 -12 10 -17 1 -23 -8 -4 -9 -3 -5 4 4 7
3 12 -2 12 -5 0 -12 -9 -15 -20 -3 -11 0 -20 6 -20 7 0 5 -5 -3 -10 -13 -9
-13 -10 0 -10 9 0 11 -3 5 -8 -5 -4 -12 -18 -14 -32 -2 -14 -4 -29 -5 -35 -1
-5 -5 -16 -9 -22 -5 -7 -5 -13 -1 -13 3 0 1 -7 -6 -15 -11 -13 -10 -14 2 -10
20 8 18 -43 -2 -55 -11 -7 -12 -10 -2 -10 7 0 10 -5 7 -10 -4 -6 -10 -8 -14
-6 -4 3 -8 -2 -8 -10 0 -9 6 -13 16 -9 11 4 10 0 -5 -16 -11 -14 -13 -19 -4
-14 13 8 13 7 1 -8 -10 -13 -10 -17 -1 -17 10 0 10 -3 0 -15 -9 -11 -9 -15 -1
-15 7 0 9 -5 6 -10 -4 -6 -11 -8 -16 -5 -5 3 -6 -1 -3 -9 3 -9 9 -14 13 -11 4
2 7 -6 6 -17 -2 -22 -25 -39 -25 -18 0 6 5 8 12 4 7 -4 8 -3 4 5 -9 15 -29 3
-22 -14 2 -7 -1 -18 -7 -25 -7 -8 -7 -10 -1 -7 6 3 11 0 11 -8 0 -7 -8 -12
-17 -10 -13 2 -16 -3 -14 -20 1 -18 -2 -22 -14 -18 -11 5 -13 3 -7 -7 6 -10 4
-12 -8 -7 -19 7 -33 -10 -28 -37 1 -11 -2 -16 -8 -12 -6 4 -11 2 -11 -4 0 -6
-5 -8 -12 -4 -10 6 -10 4 0 -8 8 -10 9 -19 3 -22 -5 -4 -8 -16 -6 -27 2 -11
-2 -22 -11 -26 -12 -4 -12 -7 3 -18 10 -7 22 -11 27 -8 5 4 6 1 2 -6 -4 -6
-11 -9 -16 -6 -10 6 -19 -16 -13 -33 3 -6 9 -9 15 -6 5 3 4 -3 -3 -14 -7 -12
-17 -18 -23 -15 -5 3 -6 1 -2 -5 5 -8 13 -9 25 -3 13 7 17 5 18 -9 1 -10 -5
-21 -13 -24 -8 -3 -14 -11 -14 -18 0 -9 3 -8 10 2 10 15 15 3 11 -22 -1 -7 13
-12 30 -10 6 1 9 -16 10 -51 0 -10 5 -15 11 -11 7 4 8 2 4 -5 -6 -9 -11 -9
-23 1 -15 12 -15 11 -2 -12 8 -14 18 -28 23 -31 5 -4 6 -15 2 -24 -5 -15 -4
-16 8 -6 11 9 16 9 22 0 4 -7 3 -9 -3 -6 -6 4 -14 -1 -18 -10 -3 -10 -1 -19 5
-21 8 -3 7 -8 -1 -18 -9 -11 -9 -14 1 -14 10 0 10 -3 0 -15 -11 -13 -10 -14 5
-9 15 6 16 4 5 -16 -10 -18 -9 -21 1 -15 9 6 11 2 7 -13 -4 -12 -3 -22 1 -22
4 0 8 -7 8 -15 0 -9 -6 -14 -14 -11 -10 4 -10 1 0 -14 6 -11 19 -20 27 -21 10
0 9 -3 -4 -8 -14 -5 -16 -10 -8 -15 7 -4 12 -13 12 -19 0 -9 -2 -9 -8 0 -5 8
-13 9 -22 3 -11 -7 -12 -10 -2 -10 7 0 10 -5 6 -12 -4 -7 -3 -8 4 -4 16 10 15
-7 0 -23 -10 -11 -10 -13 0 -7 12 7 16 -4 12 -38 -1 -10 3 -15 8 -12 6 4 8 -2
5 -14 -3 -11 -10 -23 -16 -27 -5 -3 0 -14 14 -25 13 -10 17 -16 7 -12 -13 4
-16 0 -14 -20 2 -17 -2 -26 -10 -26 -8 0 -14 -5 -14 -11 0 -5 4 -8 9 -4 5 3
13 0 17 -6 4 -8 3 -9 -4 -5 -22 13 -45 -49 -28 -73 8 -11 8 -13 -1 -7 -9 5
-13 0 -13 -16 0 -19 -2 -20 -11 -8 -8 12 -9 10 -4 -9 5 -17 4 -21 -5 -16 -9 6
-9 3 -1 -13 8 -15 8 -21 0 -24 -15 -5 -18 -69 -5 -87 9 -12 8 -13 -2 -7 -10 6
-13 2 -10 -15 2 -13 -4 -30 -12 -37 -8 -8 -10 -11 -4 -8 7 3 15 -1 18 -10 3
-8 2 -12 -4 -9 -9 6 -12 -1 -9 -22 1 -5 5 -7 11 -5 5 1 7 -2 3 -8 -3 -6 -11
-8 -16 -5 -5 4 -9 -1 -9 -10 0 -10 -5 -13 -12 -9 -7 4 -8 3 -4 -4 4 -6 14 -8
23 -5 15 6 16 5 3 -9 -8 -9 -19 -13 -25 -10 -5 3 -3 -3 5 -13 13 -17 13 -18
-1 -13 -13 5 -16 2 -11 -14 3 -12 1 -19 -4 -16 -5 4 -9 -7 -10 -23 -1 -16 3
-29 9 -29 6 0 7 -3 3 -7 -4 -5 -12 -8 -17 -8 -5 0 -9 -4 -8 -10 0 -5 8 -9 17
-8 10 1 11 0 4 -3 -6 -3 -9 -11 -6 -16 4 -6 2 -8 -4 -4 -6 3 -13 2 -17 -4 -3
-5 0 -10 7 -10 9 0 9 -3 2 -8 -6 -4 -10 -20 -10 -35 1 -16 -3 -31 -8 -34 -5
-4 -6 -1 -1 7 5 9 4 11 -4 6 -9 -6 -9 -11 -1 -21 8 -10 6 -18 -11 -33 -11 -11
-19 -25 -15 -30 3 -5 -1 -17 -8 -28 -8 -10 -12 -24 -9 -31 3 -7 -2 -16 -11
-19 -15 -6 -15 -7 0 -19 14 -9 14 -14 4 -20 -9 -6 -11 -4 -5 5 5 9 4 11 -4 6
-9 -6 -9 -11 1 -24 11 -13 10 -15 -4 -9 -12 4 -15 2 -11 -8 3 -8 10 -12 17 -8
7 4 7 1 -1 -9 -7 -8 -9 -19 -5 -24 4 -4 0 -3 -8 3 -12 9 -15 7 -16 -13 -1 -13
2 -24 8 -24 5 0 6 -5 3 -10 -4 -6 -12 -7 -18 -3 -7 3 -3 -4 7 -16 17 -19 17
-21 3 -15 -13 5 -16 2 -10 -12 5 -13 3 -15 -8 -9 -12 8 -12 6 0 -8 7 -9 18
-14 25 -11 6 3 1 -3 -12 -14 -15 -14 -18 -22 -10 -25 10 -4 10 -6 0 -6 -7 -1
-10 -5 -7 -11 3 -5 2 -10 -4 -10 -5 0 -7 -13 -5 -30 4 -20 1 -30 -8 -30 -9 0
-9 -3 2 -10 11 -7 12 -12 3 -21 -8 -8 -9 -19 -3 -35 6 -14 6 -26 0 -29 -6 -4
-10 -15 -10 -25 0 -10 -3 -20 -7 -23 -5 -2 -3 -3 4 -1 6 1 13 -5 16 -15 2 -10
-1 -18 -9 -18 -7 0 -10 5 -7 10 4 6 1 7 -6 2 -9 -5 -10 -10 -2 -18 18 -18 12
-31 -6 -16 -17 13 -17 13 -1 -7 12 -14 15 -23 7 -31 -5 -5 -11 -37 -12 -69 -2
-33 -6 -64 -10 -71 -4 -6 -1 -14 5 -16 8 -3 6 -6 -5 -6 -15 -1 -16 -4 -6 -22
9 -17 8 -20 -2 -14 -9 6 -10 3 -6 -9 6 -14 3 -17 -10 -12 -14 6 -15 5 -6 -5 8
-8 9 -18 2 -31 -8 -14 -6 -20 7 -25 16 -6 16 -7 -1 -13 -10 -4 -19 -16 -20
-28 -1 -12 3 -18 8 -15 7 4 7 -1 2 -13 -4 -10 -7 -27 -7 -37 0 -9 -2 -16 -6
-13 -4 2 -7 -9 -8 -26 -1 -20 2 -25 7 -16 6 9 9 9 9 1 0 -7 -8 -17 -17 -23
-17 -11 -17 -11 0 -6 12 4 17 2 14 -6 -2 -7 -11 -12 -18 -10 -11 3 -12 1 -1
-9 16 -17 16 -49 0 -49 -9 0 -8 -4 2 -10 13 -9 13 -11 0 -20 -8 -5 -10 -10 -5
-10 6 0 11 -8 11 -17 1 -10 5 -27 9 -38 8 -17 7 -18 -7 -7 -14 11 -16 10 -14
-5 2 -10 10 -17 19 -15 11 2 15 -2 11 -12 -3 -9 -10 -14 -14 -13 -4 1 -8 -2
-8 -8 0 -5 4 -9 8 -8 4 1 11 -5 14 -13 4 -12 2 -15 -9 -11 -8 4 -17 1 -21 -5
-4 -6 -3 -8 4 -4 6 3 13 2 17 -4 3 -5 1 -10 -6 -10 -8 0 -7 -5 2 -17 12 -15
12 -16 -6 -10 -17 6 -18 5 -4 -5 9 -7 14 -19 11 -27 -3 -8 0 -11 6 -7 6 3 13
2 16 -3 4 -5 1 -13 -5 -17 -8 -5 -9 -3 -4 6 5 8 4 11 -1 7 -19 -11 -16 -67 3
-68 16 0 16 -1 2 -7 -14 -6 -15 -9 -3 -20 10 -10 14 -10 14 -1 0 7 3 9 6 6 4
-4 2 -13 -5 -21 -14 -16 -24 -59 -12 -52 4 3 17 -1 27 -9 18 -15 18 -15 -1 -8
-11 3 -17 3 -13 -2 4 -4 2 -15 -5 -23 -8 -11 -8 -14 0 -9 11 7 30 -28 25 -46
-1 -5 2 -6 8 -2 6 3 8 10 5 15 -3 5 -1 12 5 15 6 4 10 3 9 -2 -4 -21 2 -44 10
-39 11 7 36 -22 28 -31 -4 -3 -9 2 -13 11 -3 9 -10 13 -15 10 -5 -3 -6 -10 -3
-16 4 -7 2 -8 -5 -4 -6 4 -9 12 -6 17 4 5 1 9 -4 9 -18 0 -12 -24 9 -38 11 -7
20 -21 20 -32 0 -11 5 -20 10 -20 13 0 13 6 0 31 -7 13 -7 19 0 19 5 0 10 -7
10 -15 0 -8 5 -15 11 -15 5 0 8 -4 4 -10 -3 -5 6 -15 21 -23 17 -9 23 -17 15
-21 -6 -4 -11 -2 -11 4 0 7 -7 9 -16 6 -10 -4 -13 -2 -8 6 5 7 3 8 -6 3 -9 -5
-11 -4 -6 3 5 8 1 10 -10 5 -15 -5 -14 -7 2 -17 11 -6 24 -11 29 -11 6 0 10
-10 9 -22 0 -13 4 -19 12 -16 8 3 12 10 11 15 -1 6 5 13 13 15 13 4 13 3 0 -6
-12 -8 -12 -11 -1 -11 8 0 11 -6 7 -15 -3 -9 1 -18 9 -22 12 -4 13 -9 4 -19
-6 -8 -8 -14 -4 -14 4 0 1 -8 -6 -17 -9 -10 -9 -14 -2 -10 7 5 18 -3 27 -20 8
-15 15 -23 16 -18 0 16 58 14 64 -2 5 -11 10 -12 28 -2 22 12 22 12 4 -15 -22
-35 -6 -62 26 -45 17 9 18 8 9 -10 -16 -29 -13 -39 4 -17 13 17 15 18 15 3 0
-9 -5 -17 -12 -17 -9 0 -8 -3 1 -12 11 -11 14 -11 18 0 3 6 9 12 15 12 7 0 6
-5 -1 -14 -14 -17 13 -37 39 -28 12 3 12 2 3 -8 -9 -10 -19 -8 -49 11 -31 19
-36 20 -31 6 4 -10 2 -17 -5 -17 -6 0 -1 -8 10 -19 12 -10 18 -21 14 -25 -4
-4 0 -6 8 -4 10 2 15 -4 14 -19 0 -16 5 -20 19 -17 15 2 18 -1 14 -16 -3 -11
-1 -18 4 -14 5 3 9 0 9 -6 0 -6 4 -8 10 -5 5 3 11 1 11 -4 1 -6 2 -15 3 -21 2
-18 46 -6 46 12 0 7 -5 6 -13 -1 -17 -13 -28 -4 -20 17 4 8 2 13 -3 9 -6 -3
-16 -1 -24 5 -13 8 -12 9 2 5 9 -3 19 1 22 9 3 9 10 13 15 10 5 -3 15 2 22 11
12 14 11 15 -9 9 -14 -5 -29 -3 -37 4 -16 13 -10 34 6 24 5 -3 7 -10 4 -15 -9
-14 18 -11 42 6 16 11 24 12 29 4 4 -7 3 -9 -4 -5 -6 3 -13 2 -17 -4 -3 -5 0
-10 7 -10 9 0 9 -3 2 -8 -13 -8 -15 -42 -2 -42 4 0 8 -5 8 -11 0 -8 -6 -7 -17
2 -15 12 -16 12 -10 -5 5 -12 1 -26 -10 -38 -16 -18 -16 -19 2 -12 14 6 16 4
10 -7 -4 -8 -5 -11 0 -7 4 4 14 3 22 -3 7 -6 13 -8 13 -4 0 4 -7 13 -17 20
-13 9 -13 14 -3 20 7 5 11 4 8 -1 -5 -10 28 -45 35 -37 3 2 8 -5 12 -17 4 -12
4 -24 1 -27 -3 -4 -6 1 -6 10 0 10 -4 17 -10 17 -13 0 -13 -17 0 -25 6 -4 7
-12 3 -18 -4 -8 -1 -7 9 1 17 14 34 1 23 -17 -3 -6 4 -8 15 -6 11 2 20 0 20
-5 0 -10 40 -7 60 5 8 4 12 5 8 0 -4 -4 0 -13 9 -20 14 -11 14 -12 -3 -10 -11
0 -25 4 -31 8 -6 4 -15 2 -18 -4 -9 -13 -2 -20 22 -23 11 -2 18 -11 17 -25 -1
-17 1 -19 12 -10 10 8 11 15 4 24 -15 18 21 16 43 -3 9 -8 20 -13 23 -9 8 8
-33 47 -42 39 -3 -4 -1 3 5 15 14 27 23 31 14 6 -4 -11 -3 -14 5 -9 8 5 10 1
5 -10 -4 -11 -3 -15 5 -10 6 3 13 -3 17 -14 3 -11 11 -20 16 -20 6 0 5 8 -1
21 -7 11 -9 23 -7 26 3 2 8 -5 12 -16 3 -12 10 -19 15 -16 15 10 43 -42 32
-60 -5 -9 -13 -18 -18 -18 -5 -1 -8 -5 -6 -9 1 -5 -3 -8 -10 -8 -6 0 -8 -3 -5
-7 4 -3 16 2 27 12 25 22 26 9 3 -19 l-18 -21 24 20 24 20 -7 -25 c-5 -17 -4
-20 2 -12 8 11 10 11 15 -1 3 -7 16 -13 29 -11 12 1 28 3 35 3 23 2 -5 71 -28
71 -5 0 -3 -10 5 -23 9 -13 12 -28 7 -36 -6 -9 -11 -10 -15 -2 -4 6 -1 11 6
11 10 0 9 3 -2 10 -9 5 -19 5 -27 -2 -9 -7 -13 -7 -13 1 0 6 4 11 10 11 5 0 7
7 4 15 -8 21 -25 19 -18 -3 5 -14 4 -14 -4 -2 -15 20 -4 32 21 24 18 -5 20 -4
10 7 -7 7 -13 17 -13 23 0 5 6 1 14 -10 13 -17 17 -17 38 -5 18 10 20 10 11 0
-7 -7 -13 -18 -13 -23 1 -6 10 0 20 13 11 13 20 19 20 13 0 -6 -7 -17 -15 -26
-10 -10 -12 -17 -4 -21 6 -4 8 -13 5 -21 -3 -7 -1 -16 3 -19 11 -6 22 21 16
38 -11 29 12 40 35 17 12 -12 25 -19 28 -15 4 3 0 10 -8 15 -11 7 -7 8 13 6
15 -1 30 -6 35 -11 4 -4 2 -5 -5 -1 -6 3 -14 2 -18 -4 -7 -11 28 -14 38 -3 4
3 2 12 -4 20 -15 18 -1 17 17 -1 16 -16 19 -30 5 -21 -6 3 -13 0 -18 -7 -4 -7
-14 -13 -22 -13 -8 0 -17 -7 -19 -15 -5 -13 -3 -13 11 -1 14 11 17 11 17 0 0
-8 6 -5 14 7 8 10 18 16 21 12 4 -4 16 3 26 15 10 12 18 17 19 10 0 -6 -5 -13
-11 -15 -5 -2 -7 -11 -3 -22 5 -14 9 -15 15 -4 5 7 9 9 9 3 0 -25 -18 -39 -33
-27 -8 7 -31 11 -51 9 -21 -3 -44 2 -56 10 -12 8 -24 12 -28 8 -3 -3 0 -10 8
-15 10 -7 4 -8 -21 -6 -37 4 -79 -17 -60 -29 6 -3 11 -1 11 4 0 17 24 13 48
-9 12 -11 25 -20 29 -20 4 1 -2 9 -14 19 l-23 19 31 4 c16 3 33 0 36 -5 3 -6
1 -7 -5 -3 -6 3 -13 3 -16 -2 -3 -5 1 -9 9 -10 8 -1 21 -3 29 -4 7 -1 19 -10
26 -21 10 -17 10 -19 -2 -14 -8 3 -21 1 -29 -5 -11 -8 -10 -9 4 -4 9 3 17 0
17 -6 0 -7 5 -6 15 2 13 11 20 9 43 -12 15 -14 35 -24 45 -23 10 2 16 -2 14
-8 -2 -6 -13 -11 -25 -12 -36 -3 -35 -12 2 -11 19 1 32 4 30 8 -3 4 5 6 16 5
11 -1 20 -7 20 -15 0 -8 -5 -10 -12 -6 -7 4 -10 4 -6 -1 4 -4 2 -15 -4 -24 -8
-10 -4 -9 10 3 12 11 22 15 22 10 0 -5 4 -2 10 6 7 12 12 12 34 1 14 -8 23
-19 19 -24 -3 -6 -1 -7 6 -3 6 4 9 11 6 16 -3 5 -1 11 5 15 5 3 10 2 10 -3 0
-6 7 -13 16 -16 8 -3 12 -2 9 4 -3 6 -1 10 5 10 6 0 13 -7 16 -15 4 -9 15 -13
29 -11 13 3 26 -1 29 -7 3 -7 4 -2 2 10 -1 12 -5 25 -8 29 -4 3 -4 12 -1 20 6
16 -5 18 -26 5 -11 -7 -10 -10 4 -18 12 -7 14 -12 6 -17 -6 -4 -14 -1 -17 7
-6 16 -20 17 -43 3 -9 -6 -12 -5 -7 2 4 7 -1 10 -14 7 -11 -2 -22 1 -26 7 -4
7 -9 6 -14 -2 -5 -8 -9 -7 -13 4 -4 9 -3 15 1 15 25 -4 37 2 22 10 -8 6 -18 7
-22 5 -4 -3 -8 0 -8 6 0 7 7 10 15 6 22 -8 18 2 -6 15 -17 9 -20 8 -14 -2 6
-8 4 -10 -5 -4 -9 6 -11 4 -5 -5 6 -9 4 -11 -6 -6 -8 4 -6 1 4 -7 16 -13 16
-15 1 -21 -21 -8 -26 -8 -20 2 7 11 -22 52 -36 52 -6 0 -3 -9 6 -19 10 -11 13
-22 8 -25 -5 -3 -15 1 -22 9 -7 8 -10 15 -6 15 3 0 -2 8 -12 18 -11 11 -20 14
-24 8 -4 -6 -10 -7 -14 -3 -4 3 -2 13 4 20 7 8 8 18 4 23 -4 5 -3 6 2 2 5 -4
15 0 23 10 12 16 13 16 7 0 -4 -13 -1 -16 15 -13 12 2 21 -1 21 -7 0 -19 14 1
17 25 3 17 1 19 -9 9 -17 -17 -24 -15 -25 8 -1 11 3 20 8 20 6 0 7 -5 3 -12
-5 -7 -2 -9 9 -5 24 9 43 -19 26 -40 -12 -15 -12 -16 4 -10 20 8 47 -1 47 -15
0 -6 -7 -4 -16 3 -14 11 -18 10 -30 -6 -10 -14 -14 -15 -14 -4 0 8 -10 15 -21
16 -21 2 -21 2 2 -23 21 -23 25 -23 35 -9 10 13 17 14 32 6 17 -9 22 -8 26 7
4 14 5 13 4 -3 -1 -39 2 -46 15 -39 10 6 10 4 0 -7 -22 -23 -14 -31 12 -12 31
23 31 33 3 34 -22 0 -22 1 -3 8 15 6 22 4 29 -10 9 -18 27 -27 25 -12 -4 26 1
38 10 23 6 -8 7 -18 4 -23 -3 -5 5 -7 18 -5 17 2 23 9 21 23 -2 18 -2 19 8 2
7 -10 16 -14 23 -10 30 19 43 6 25 -23 -4 -6 -1 -11 6 -11 7 0 13 5 14 11 2
11 8 54 11 69 2 13 18 7 18 -8 0 -8 -4 -12 -7 -10 -4 3 -7 -7 -8 -22 0 -24 2
-25 13 -10 15 20 52 30 60 16 4 -5 11 -7 16 -3 5 3 8 0 7 -7 -2 -6 2 -13 8
-16 6 -2 11 4 11 13 0 9 -9 19 -19 22 -10 2 -18 9 -18 15 0 6 3 7 7 4 3 -4 12
-2 20 5 10 8 12 8 8 -4 -3 -8 3 -22 14 -32 19 -17 21 -17 27 -2 3 9 13 16 21
16 11 0 7 -7 -11 -21 -14 -11 -23 -25 -20 -31 4 -6 9 -5 15 3 4 7 11 10 16 6
4 -5 1 -12 -6 -16 -7 -5 -10 -14 -7 -20 9 -14 27 -14 24 0 -2 6 4 14 12 16 13
4 13 3 0 -6 -8 -6 -11 -11 -5 -11 5 0 4 -5 -3 -12 -8 -8 -15 -8 -27 2 -17 14
-21 1 -5 -18 7 -9 7 -9 -1 -3 -8 6 -17 5 -25 -4 -19 -19 -18 -31 1 -15 9 7 18
10 22 7 3 -4 12 -2 20 4 7 6 13 8 13 3 0 -5 5 -2 10 6 5 8 14 16 20 16 23 3
24 5 10 14 -17 11 6 34 23 23 5 -3 7 0 5 8 -3 8 -11 13 -17 11 -7 -1 -10 2 -6
8 3 5 1 10 -4 10 -6 0 -11 5 -11 12 0 7 7 5 18 -5 23 -20 44 0 30 29 -9 17 -8
17 7 -1 12 -16 18 -17 24 -7 8 13 22 -4 25 -30 2 -15 16 -20 16 -6 0 20 21 28
55 22 17 -3 24 -1 20 6 -4 6 1 7 11 3 11 -4 15 -2 11 4 -4 6 0 16 8 23 10 9
15 9 15 1 0 -6 -6 -11 -12 -11 -15 -1 9 -17 32 -22 8 -2 19 -7 23 -13 4 -6 7
-1 5 10 -2 14 2 20 14 19 10 -1 14 4 11 12 -6 17 18 18 37 2 7 -7 3 2 -10 21
-13 19 -18 31 -10 26 10 -6 12 -4 6 10 -5 14 -4 16 7 6 11 -8 18 -7 31 8 13
15 14 20 4 24 -7 3 -3 5 9 3 11 -1 27 -7 35 -13 20 -16 50 -12 55 8 3 10 12
18 21 18 44 2 58 5 71 15 11 8 13 8 7 -2 -4 -6 -3 -12 3 -12 5 0 13 5 16 10 5
8 12 7 22 -2 14 -11 15 -10 9 9 -4 12 -2 24 4 28 6 4 8 -6 6 -29 -3 -20 0 -38
6 -42 6 -4 8 -3 4 4 -3 6 -2 13 2 16 5 3 8 19 7 35 -1 17 2 28 7 25 5 -3 6
-14 3 -23 -9 -28 17 -44 41 -25 18 15 18 15 -3 9 -13 -4 -23 -2 -23 3 0 14 46
8 65 -8 18 -15 20 0 3 19 -10 11 -10 13 0 7 7 -4 12 -2 12 6 0 10 2 10 9 -1 5
-8 7 -21 4 -29 -5 -12 -2 -12 15 -3 17 9 27 9 44 0 18 -10 20 -9 14 7 -6 18
-5 18 8 1 9 -11 16 -14 19 -7 3 6 4 5 2 -2 -1 -7 -8 -12 -14 -10 -6 1 -11 -2
-11 -8 0 -12 11 -13 30 0 18 11 20 29 6 50 -6 8 2 4 17 -9 27 -24 36 -38 17
-26 -6 4 -7 -1 -3 -11 5 -13 3 -16 -10 -11 -12 4 -14 2 -10 -11 6 -14 4 -15
-8 -5 -16 13 -55 -7 -41 -22 4 -5 1 -5 -6 -1 -7 4 -10 11 -7 16 3 4 -2 10 -10
14 -8 3 -17 1 -20 -4 -4 -6 -1 -10 4 -10 6 0 11 -5 11 -11 0 -8 -4 -9 -13 0
-8 6 -16 8 -20 5 -8 -8 -3 18 6 33 5 8 4 13 -2 13 -10 0 -15 -14 -12 -34 1 -5
-5 -6 -14 -2 -13 4 -14 2 -5 -14 8 -15 8 -18 -3 -14 -8 3 -14 15 -13 26 0 12
-5 23 -13 26 -8 3 -11 0 -7 -6 3 -6 1 -14 -5 -18 -7 -4 -9 -3 -5 4 3 6 1 14
-5 18 -7 4 -9 3 -6 -3 3 -5 -4 -9 -16 -8 -26 2 -51 -20 -42 -37 4 -7 -4 1 -19
17 -14 17 -25 25 -26 19 0 -5 5 -15 10 -20 7 -7 6 -11 -4 -11 -8 0 -12 5 -9
10 4 6 1 7 -6 2 -10 -6 -11 -3 -2 13 6 11 11 24 11 29 -1 4 -7 -3 -15 -17 -10
-19 -11 -28 -2 -40 10 -13 10 -13 -4 -3 -9 7 -20 9 -24 5 -5 -4 -4 0 0 8 8 13
7 13 -9 1 -9 -8 -16 -10 -15 -5 3 18 -1 37 -8 31 -3 -4 -13 -1 -21 6 -11 8
-14 8 -9 0 11 -18 -3 -48 -15 -31 -8 10 -9 10 -5 -2 2 -8 12 -14 22 -12 12 2
15 -1 9 -10 -6 -10 -5 -11 8 -1 22 18 31 4 10 -16 -10 -9 -12 -12 -5 -7 8 5
15 3 19 -8 4 -10 13 -15 21 -11 11 3 13 1 9 -10 -3 -8 -1 -15 4 -15 6 0 10 6
10 14 0 17 -24 38 -33 29 -4 -3 -7 -2 -7 4 0 20 14 23 33 6 11 -10 17 -12 13
-5 -4 6 -2 12 3 12 6 0 11 -6 11 -14 0 -8 5 -18 12 -22 7 -5 9 -2 6 7 -3 8 -9
22 -13 31 -5 11 -2 16 9 14 19 -3 34 -16 18 -16 -9 0 -9 -5 0 -19 16 -25 42
-8 32 21 -6 19 -5 19 19 4 13 -9 32 -14 41 -10 21 8 21 -5 -1 -21 -14 -11 -20
-10 -30 4 -7 9 -13 11 -13 5 0 -28 27 -34 54 -13 21 17 25 24 14 30 -7 5 -8 9
-3 9 33 0 35 -18 5 -44 -17 -14 -28 -26 -24 -26 4 0 16 8 27 17 19 17 20 17
14 1 -3 -10 -2 -20 3 -23 4 -3 7 6 5 20 -1 14 2 28 6 31 5 3 4 15 -2 27 -12
22 -11 22 9 4 13 -12 22 -15 27 -8 3 6 11 11 17 11 6 0 5 -7 -3 -17 -8 -9 -9
-14 -2 -10 6 4 13 4 16 0 2 -5 2 -2 1 4 -5 18 28 33 47 22 17 -9 39 -7 74 7
18 7 18 6 6 -9 -9 -11 -10 -17 -2 -17 6 0 11 5 11 11 0 5 5 7 12 3 7 -4 8 -3
4 4 -4 7 -3 12 3 12 5 0 14 -7 19 -16 8 -15 10 -15 15 0 4 9 13 13 22 10 8 -3
12 -11 8 -18 -3 -6 -1 -6 8 1 17 17 37 17 21 1 -7 -7 -12 -16 -12 -20 0 -4 9
1 20 12 21 21 27 35 11 26 -5 -3 -12 1 -15 10 -9 24 -7 28 8 15 11 -9 15 -8
20 5 8 20 36 1 36 -25 -1 -14 -3 -13 -15 3 -13 17 -14 17 -11 -6 1 -13 6 -29
10 -36 4 -7 3 -12 -3 -12 -5 0 -13 5 -16 10 -8 13 -25 3 -25 -13 0 -7 4 -6 10
3 9 14 15 7 11 -14 -1 -5 5 -6 13 -3 8 3 17 -1 20 -10 5 -11 10 -12 19 -4 9 7
17 7 25 1 7 -6 10 -7 7 -3 -3 3 3 15 12 25 16 18 16 18 0 12 -12 -4 -17 -2
-15 7 2 8 -3 13 -9 11 -7 -1 -13 2 -13 8 0 15 17 12 46 -6 22 -15 24 -15 18 0
-3 9 -10 14 -14 11 -4 -3 -10 6 -12 19 -4 22 -3 23 18 14 13 -6 21 -15 17 -21
-3 -6 -1 -7 6 -3 6 4 20 2 29 -6 16 -12 16 -11 2 6 -14 18 -13 19 2 13 10 -3
20 -2 23 3 3 5 -8 7 -25 5 -18 -3 -28 0 -25 5 4 6 15 10 26 10 10 0 19 6 19
13 0 7 3 8 8 2 17 -24 39 -35 39 -20 0 8 -4 12 -8 10 -4 -3 -9 2 -12 10 -7 16
22 9 36 -9 5 -6 6 2 2 19 l-7 30 20 -23 c13 -14 22 -18 24 -11 4 11 23 18 55
21 7 1 10 5 7 10 -3 5 -10 6 -15 3 -5 -4 -9 -2 -9 3 0 6 7 12 14 15 17 7 31
-26 20 -44 -5 -8 -3 -9 5 -4 8 4 11 18 7 36 -3 15 -1 31 4 34 6 4 8 11 5 16
-4 5 -1 9 4 9 14 0 14 -13 1 -26 -7 -7 -6 -19 3 -38 13 -25 15 -25 20 -6 3 11
2 18 -2 15 -4 -2 -8 2 -8 10 0 11 4 12 14 4 10 -9 13 -7 13 9 0 25 16 37 26
21 4 -8 3 -9 -4 -5 -8 5 -12 -1 -12 -14 0 -14 4 -19 13 -14 7 5 6 0 -3 -11
-14 -17 -13 -18 5 -11 16 6 18 5 8 -5 -19 -19 -16 -34 4 -18 11 10 14 10 9 2
-7 -13 4 -17 32 -14 15 2 16 -15 0 -25 -7 -5 -8 -2 -3 7 5 8 5 11 0 7 -4 -4
-16 -3 -26 3 -14 7 -19 6 -19 -3 0 -6 -6 -3 -14 7 -8 11 -12 28 -10 39 2 10 0
16 -3 12 -12 -11 -13 -46 -2 -46 5 0 7 -5 4 -10 -5 -8 -11 -8 -19 -1 -17 15
-27 2 -16 -19 5 -10 6 -20 3 -24 -3 -3 -1 -6 6 -6 7 0 10 7 7 18 -5 15 1 18
37 19 38 1 40 0 24 -12 -11 -7 -26 -11 -35 -8 -10 4 -7 -2 7 -16 22 -22 23
-22 36 -4 7 10 19 18 27 18 7 1 12 7 10 14 -1 7 3 11 10 9 7 -3 13 -23 13 -50
0 -26 4 -50 9 -55 5 -5 6 -3 2 5 -4 7 -2 19 4 27 15 19 54 20 44 2 -4 -6 -4
-9 1 -5 4 4 15 2 24 -4 10 -8 9 -4 -3 10 -11 12 -25 22 -32 22 -7 0 -11 6 -8
14 3 8 1 17 -5 21 -7 4 -9 -1 -5 -12 4 -14 3 -14 -6 2 -7 11 -20 26 -28 32 -9
7 -11 13 -5 13 7 0 15 -4 18 -10 8 -12 25 -13 25 -2 0 5 -10 14 -22 20 -17 8
-19 11 -6 11 19 1 61 -52 50 -63 -8 -9 19 -27 30 -20 13 9 9 26 -5 21 -18 -7
-15 32 4 43 8 5 14 15 14 22 0 7 9 13 19 13 11 0 21 5 23 12 3 9 10 9 29 1 13
-6 23 -16 22 -20 -4 -12 -24 -9 -20 3 1 5 -5 9 -13 9 -21 0 -14 -22 10 -36 15
-9 25 -8 43 3 23 14 30 6 12 -15 -6 -6 -7 -10 -4 -7 4 3 13 -3 21 -13 13 -15
13 -15 4 5 -9 17 -7 22 7 29 28 12 42 13 42 3 0 -5 5 -9 11 -9 8 0 9 4 0 13
-6 8 -8 17 -4 20 10 11 45 8 38 -3 -3 -5 -1 -10 5 -10 7 0 10 7 7 14 -4 10 -1
13 8 10 8 -3 14 -9 13 -12 -3 -26 3 -37 11 -22 6 8 7 18 5 22 -3 4 3 5 12 1
11 -4 13 -8 6 -11 -14 -4 -16 -22 -2 -22 5 0 12 11 16 24 4 17 11 23 22 19 12
-3 13 -2 5 4 -8 6 -9 14 -3 23 9 13 10 13 10 0 1 -12 3 -11 11 3 6 9 14 15 20
12 5 -4 9 -1 9 5 0 7 -8 9 -21 5 -16 -5 -20 -3 -17 6 3 8 12 13 22 11 9 -2 16
2 16 8 0 6 5 8 12 4 7 -4 8 -3 4 4 -4 6 -14 8 -24 5 -16 -6 -16 -6 0 11 10 9
27 18 37 19 11 0 17 5 15 9 -8 13 11 9 25 -4 11 -10 10 -8 0 10 -8 12 -18 22
-24 22 -5 0 -2 5 8 11 10 6 14 15 10 22 -4 7 1 6 10 -2 15 -12 17 -12 11 3 -3
9 -11 16 -17 16 -6 0 -7 3 -4 6 4 4 12 2 20 -4 18 -15 59 -12 46 4 -13 16 -8
35 15 57 10 9 15 17 9 17 -14 0 -44 -35 -36 -43 3 -4 1 -7 -5 -7 -16 0 -15 6
4 35 9 14 22 25 30 25 7 0 16 5 20 12 4 6 3 8 -4 4 -6 -3 -9 1 -8 10 1 8 9 20
17 25 14 9 0 15 -26 9 -5 -1 -7 2 -3 6 4 4 3 12 -2 19 -7 8 -5 12 5 12 7 0 13
-4 12 -8 -1 -4 3 -8 8 -9 6 -1 17 -7 25 -13 8 -7 4 3 -9 21 -12 18 -26 30 -30
27 -5 -2 -8 10 -7 28 0 22 -4 32 -14 32 -8 1 -14 6 -12 13 1 7 -4 11 -10 10
-7 -2 -12 3 -10 10 1 8 -2 11 -8 7 -6 -3 -8 -11 -5 -16 3 -5 -1 -6 -10 -3 -14
6 -14 8 0 24 16 17 15 18 -1 16 -10 -2 -21 -11 -25 -22 -6 -14 -7 -11 -5 11 1
17 6 36 10 43 4 7 4 11 -1 10 -13 -5 -53 28 -45 37 4 5 1 5 -6 1 -7 -4 -9 -13
-6 -19 4 -7 4 -9 -1 -5 -4 4 -15 2 -23 -5 -11 -8 -14 -8 -9 0 4 6 3 14 -2 18
-6 3 -8 12 -4 20 5 14 -12 20 -45 16 -20 -3 -41 30 -36 55 2 12 -2 26 -9 32
-10 8 -13 6 -14 -11 -2 -17 0 -19 7 -7 5 8 10 11 10 5 0 -5 -4 -16 -9 -24 -11
-17 -20 -3 -23 37 -1 20 -6 28 -13 23 -5 -4 -18 -11 -28 -14 -16 -6 -16 -5 0
21 l17 27 -29 -25 c-16 -14 -23 -17 -16 -7 21 27 4 33 -19 6 l-21 -24 17 28
c15 24 15 30 3 38 -22 14 -33 11 -19 -6 14 -17 8 -28 -15 -31 -8 -1 -13 2 -9
7 3 5 10 7 15 4 17 -11 9 8 -13 34 -19 21 -20 23 -3 11 19 -14 19 -14 5 5 -23
30 -29 33 -71 31 -21 -1 -36 1 -33 6 3 4 0 16 -5 25 -6 10 -11 14 -11 9 0 -5
-9 -1 -20 9 -11 10 -18 21 -15 25 2 4 -3 7 -11 7 -11 0 -9 -6 7 -23 l22 -23
-34 5 c-19 3 -42 5 -51 5 -10 0 -18 4 -18 8 0 12 43 8 53 -4 5 -6 7 -4 4 5 -2
8 -13 16 -25 16 -35 2 -37 3 -18 17 16 12 16 13 -3 13 -11 0 -17 -4 -15 -8 7
-11 -26 -5 -54 11 -21 11 -26 10 -44 -8 -10 -12 -23 -19 -29 -16 -5 4 -9 2 -9
-4 0 -6 -11 1 -25 15 -14 14 -29 23 -34 20 -11 -7 -22 20 -15 37 9 23 32 15
29 -10 -2 -24 3 -28 21 -15 8 5 5 16 -7 37 -11 17 -19 25 -19 19 0 -18 -29
-12 -36 8 -3 10 -10 18 -15 18 -6 0 -7 5 -3 12 5 7 3 8 -6 3 -7 -4 -16 -2 -21
6 -7 12 -9 12 -9 0 0 -11 -3 -11 -15 -1 -9 7 -14 18 -11 25 2 6 -2 12 -8 12
-8 0 -12 -10 -10 -25 3 -25 14 -44 14 -23 0 7 5 9 11 5 8 -4 7 -9 -2 -15 -9
-6 -2 -7 19 -4 24 4 32 2 26 -6 -4 -7 -3 -9 4 -5 6 3 13 2 16 -3 4 -5 2 -12
-3 -15 -5 -4 -12 -2 -16 4 -3 5 -11 10 -17 10 -6 0 -6 -6 2 -15 14 -16 -10
-55 -34 -55 -6 0 0 7 12 16 12 8 22 20 22 26 0 6 -9 3 -20 -7 -11 -10 -20 -14
-20 -9 0 5 -4 2 -10 -6 -10 -16 6 -44 20 -35 5 3 11 1 14 -4 8 -12 -18 -8 -35
5 -32 25 -43 28 -36 10 4 -11 3 -15 -4 -11 -6 4 -8 14 -5 22 5 11 2 13 -11 9
-16 -6 -33 9 -33 29 1 6 5 2 11 -7 14 -24 38 -12 33 17 -6 33 16 43 36 17 10
-12 21 -18 24 -14 4 3 4 -2 0 -13 -7 -18 -6 -18 9 -6 15 12 14 16 -14 42 -17
16 -28 33 -25 38 3 5 -1 12 -10 15 -24 9 -31 7 -14 -5 13 -9 13 -10 0 -6 -9 2
-14 14 -13 28 1 13 -1 18 -4 11 -3 -8 -9 -10 -16 -3 -7 5 -16 10 -22 11 -5 1
-9 7 -7 14 1 6 -7 0 -18 -13 -24 -28 -26 -43 -5 -35 8 4 15 1 15 -6 0 -6 -4
-8 -10 -5 -5 3 -10 1 -10 -4 0 -6 6 -11 13 -11 8 0 7 -4 -3 -11 -12 -8 -11 -9
5 -6 11 2 19 9 17 16 -1 7 2 9 9 6 8 -5 8 -10 0 -18 -6 -6 -11 -16 -11 -21 1
-6 10 0 21 13 11 13 22 21 25 18 9 -9 -48 -56 -68 -57 -9 0 -20 5 -23 10 -4 7
3 9 22 5 27 -6 27 -6 9 9 -27 22 -33 20 -51 -14 -9 -16 -18 -30 -21 -30 -3 0
-2 5 2 11 4 7 9 25 10 42 3 24 2 27 -10 17 -8 -6 -12 -19 -10 -28 5 -15 4 -15
-6 1 -9 13 -15 15 -31 7 -10 -6 -18 -7 -17 -3 4 16 -14 53 -23 47 -6 -4 -6
-11 2 -20 13 -16 14 -15 -24 -20 -18 -2 -30 2 -34 12 -5 13 -7 13 -14 2 -6 -9
-9 -9 -9 -1 0 6 4 15 10 18 5 3 10 13 10 22 0 11 -5 9 -19 -8 -18 -23 -20 -23
-38 -6 -11 9 -23 14 -28 10 -4 -5 -5 -2 -1 5 4 6 2 12 -3 12 -6 0 -11 5 -11
11 0 8 4 8 14 0 12 -10 14 -5 10 29 -3 36 -1 41 16 38 10 -2 26 6 36 17 15 19
15 18 0 -7 -9 -15 -12 -29 -7 -33 5 -3 12 0 14 5 3 6 4 5 2 -2 -1 -7 -8 -12
-14 -10 -6 1 -11 -5 -11 -13 0 -21 16 -19 33 6 14 20 15 20 35 -8 l20 -28 26
28 c31 34 32 40 6 32 -11 -4 -20 -2 -20 4 0 6 3 10 8 10 19 -3 32 2 32 12 0 8
-4 8 -14 0 -11 -9 -18 -8 -32 6 -17 17 -18 17 -11 0 5 -13 3 -17 -5 -14 -7 2
-11 13 -10 23 4 17 3 17 -15 -2 -10 -11 -14 -14 -10 -8 5 8 1 15 -13 19 -12 4
-17 11 -14 18 4 7 3 8 -2 4 -5 -5 -10 -13 -10 -18 -1 -5 -2 -13 -3 -19 0 -5
-6 -10 -13 -10 -9 0 -9 3 -1 11 14 14 6 39 -12 39 -7 0 -16 6 -18 13 -4 9 -6
8 -6 -2 -1 -11 -4 -11 -16 -1 -10 9 -15 9 -15 1 0 -10 14 -15 33 -12 4 1 3 -7
-2 -17 -5 -10 -8 -33 -6 -50 4 -35 -9 -50 -30 -32 -11 9 -14 7 -12 -9 1 -14 6
-20 15 -16 7 2 10 1 7 -4 -3 -5 -1 -12 5 -16 5 -3 10 -12 10 -18 0 -7 -5 -4
-11 6 -12 21 -29 22 -29 3 0 -8 -4 -18 -10 -21 -6 -4 -7 1 -3 11 5 13 3 15 -8
10 -8 -4 -5 0 5 8 21 17 11 22 -14 6 -9 -6 -20 -5 -29 3 -12 10 -14 9 -8 -6 3
-9 2 -17 -3 -17 -11 0 -13 23 -3 33 3 4 13 1 21 -6 13 -10 15 -9 8 8 -4 11
-10 25 -12 30 -2 6 6 21 17 35 15 18 19 20 15 7 -4 -12 -2 -17 6 -15 7 3 20
-5 29 -16 10 -12 21 -17 26 -12 4 5 2 11 -5 13 -6 3 -10 9 -6 14 3 5 0 9 -5 9
-6 0 -11 5 -11 11 0 5 4 8 9 5 5 -3 12 1 15 10 8 22 8 26 -3 19 -5 -3 -12 3
-16 14 -3 10 -15 21 -26 24 -20 5 -20 5 2 -20 l24 -26 -27 19 c-15 10 -28 22
-28 27 0 4 -5 7 -11 7 -5 0 -7 -6 -3 -13 4 -6 -2 -4 -14 7 -20 17 -22 17 -28
2 -3 -9 -4 -23 -1 -30 4 -10 1 -13 -9 -9 -10 4 -13 0 -8 -13 5 -15 4 -16 -4
-5 -9 12 -13 12 -27 -3 -11 -11 -24 -14 -38 -10 -19 6 -20 5 -10 -8 7 -8 10
-18 6 -21 -10 -11 -41 -8 -48 3 -4 7 3 8 22 4 22 -5 26 -4 16 6 -17 19 -66 22
-59 4 5 -12 0 -12 -25 1 -16 9 -33 23 -36 30 -3 8 -9 12 -15 9 -12 -8 10 -34
40 -45 13 -5 20 -14 16 -20 -4 -8 0 -9 15 -4 20 6 26 -2 22 -28 -1 -5 9 -5 21
-2 22 7 22 7 4 -8 -18 -13 -21 -13 -35 5 -15 18 -58 17 -47 -1 3 -4 -10 -7
-27 -6 -26 0 -32 4 -30 21 1 13 -4 21 -13 21 -8 0 -13 -6 -10 -13 3 -8 0 -11
-9 -8 -7 3 -15 -2 -18 -13 -3 -12 -5 -13 -6 -3 -1 25 37 63 64 63 21 0 23 2
14 13 -8 10 -15 11 -24 4 -14 -12 -81 43 -71 59 3 5 -1 12 -10 15 -8 3 -12 11
-8 17 4 7 3 9 -4 5 -5 -3 -12 -3 -15 1 -2 5 -2 2 0 -6 2 -8 -2 -11 -10 -8 -8
3 -14 0 -14 -7 0 -7 6 -13 14 -13 7 0 13 4 13 9 0 5 5 6 11 2 8 -5 8 -9 -1
-14 -9 -5 -9 -9 -1 -14 6 -4 11 -12 11 -19 0 -6 -7 -1 -16 11 -8 12 -20 20
-25 17 -5 -4 -12 1 -15 9 -3 9 -10 16 -15 16 -5 0 -3 -10 5 -23 13 -20 13 -24
-3 -43 -17 -22 -42 -12 -33 14 2 6 -1 12 -8 12 -6 0 -9 -4 -5 -9 3 -5 1 -12
-5 -16 -6 -4 -8 -11 -5 -16 4 -5 1 -9 -4 -9 -6 0 -11 8 -12 18 0 16 -1 16 -8
-1 -4 -10 -11 -19 -16 -19 -6 0 -9 -4 -7 -9 1 -5 -4 -9 -10 -9 -9 0 -8 -3 2
-9 8 -6 18 -7 22 -5 4 3 8 0 8 -5 0 -6 -9 -11 -20 -11 -13 0 -18 -5 -14 -15
10 -25 53 10 46 37 -4 17 -2 20 11 15 12 -4 15 -1 12 14 -2 11 0 17 6 14 5 -4
7 -11 4 -16 -6 -9 0 -11 47 -12 15 -1 25 -4 22 -8 -2 -4 3 -13 12 -20 14 -11
20 -9 45 19 16 18 29 28 29 23 0 -6 -11 -21 -24 -34 -18 -18 -22 -27 -13 -36
8 -8 8 -11 0 -11 -6 0 -14 6 -17 13 -5 9 -7 9 -12 0 -3 -7 -10 -13 -16 -13 -6
0 -6 6 2 15 20 24 -5 17 -28 -8 l-22 -24 52 3 c79 4 95 -3 63 -28 -14 -11 -22
-24 -19 -29 3 -6 12 -2 21 8 13 17 13 17 4 -2 -23 -45 -52 -70 -62 -54 -8 13
-14 5 -9 -16 1 -5 -7 -1 -18 9 -20 17 -21 17 -43 -5 -15 -15 -24 -18 -27 -11
-2 7 -8 10 -13 7 -5 -4 -1 -17 7 -31 9 -13 14 -27 11 -30 -3 -3 -8 4 -12 15
-4 12 -12 18 -21 14 -12 -4 -12 -8 -2 -21 8 -10 8 -13 2 -9 -7 4 -14 1 -17 -7
-4 -11 1 -13 19 -10 13 2 24 0 24 -6 0 -6 -4 -9 -9 -6 -5 3 -8 -6 -8 -19 0
-31 13 -33 20 -3 4 12 9 19 13 15 4 -4 13 1 21 11 13 15 13 15 3 -6 -6 -12
-15 -20 -21 -17 -5 4 -9 0 -10 -7 0 -7 -2 -24 -5 -37 -4 -21 -3 -22 13 -10 17
13 17 13 1 -7 -10 -11 -18 -24 -18 -29 0 -4 8 -14 18 -21 13 -11 14 -13 1 -9
-10 4 -16 0 -16 -10 0 -19 7 -19 37 2 23 15 24 16 12 0 -8 -9 -22 -19 -32 -22
-11 -4 -17 -12 -13 -21 3 -7 0 -14 -7 -14 -6 0 -8 4 -5 10 3 5 2 10 -4 10 -6
0 -8 18 -6 42 3 24 1 39 -3 33 -4 -5 -16 -11 -27 -13 -13 -1 -7 5 14 16 24 13
30 21 20 25 -12 5 -12 7 1 17 13 10 12 11 -3 6 -11 -3 -16 -2 -12 4 3 6 1 10
-6 10 -8 0 -7 5 2 17 12 14 12 16 0 8 -11 -6 -13 -4 -8 9 5 13 3 15 -12 7 -13
-8 -18 -6 -18 5 0 7 4 14 9 14 5 0 6 5 3 10 -3 6 0 10 7 10 9 0 9 3 -2 10 -11
7 -11 10 -2 10 7 0 10 5 7 11 -10 15 -34 -21 -27 -41 4 -12 2 -12 -8 -3 -8 7
-10 19 -5 30 4 10 8 27 9 38 1 20 36 78 36 59 0 -5 -5 -15 -12 -22 -8 -8 -8
-12 -1 -12 22 0 34 27 23 54 -6 18 -6 25 0 21 6 -3 10 -14 10 -23 1 -15 3 -14
17 3 14 18 15 18 9 1 -5 -14 -2 -17 9 -12 10 3 13 2 10 -5 -4 -6 -13 -8 -21
-5 -8 3 -14 1 -14 -4 0 -19 19 -19 41 -1 22 18 22 20 7 26 -10 4 -18 12 -18
17 0 6 6 5 15 -2 11 -9 18 -10 29 -1 11 9 15 8 20 -5 7 -18 -11 -37 -26 -28
-12 8 -9 -10 5 -30 13 -17 14 -17 28 0 13 16 12 17 -4 11 -11 -4 -16 -3 -12 4
4 6 13 8 20 5 8 -3 21 7 30 21 16 24 16 25 -4 18 -15 -4 -23 -1 -27 10 -5 11
-14 15 -30 11 -12 -3 -26 -2 -29 4 -4 7 -13 7 -26 0 -12 -7 -25 -7 -36 -1 -15
8 -13 9 7 10 49 1 61 4 56 17 -3 8 0 11 8 8 20 -8 43 25 25 37 -22 14 -33 11
-19 -6 8 -9 8 -15 2 -15 -6 0 -12 5 -14 12 -2 6 -14 12 -26 13 -13 1 -21 -3
-19 -9 2 -6 11 -10 20 -10 9 1 13 -4 10 -11 -6 -16 -31 -27 -44 -19 -6 3 -16
0 -24 -6 -8 -6 -19 -9 -24 -6 -5 4 -13 1 -17 -5 -4 -8 -3 -9 4 -5 7 4 12 2 12
-4 0 -6 5 -8 11 -4 8 4 8 0 0 -15 -7 -12 -9 -26 -6 -31 3 -5 0 -12 -6 -16 -7
-4 -9 -3 -6 3 4 6 0 16 -7 22 -15 13 -18 -11 -3 -25 15 -15 6 -26 -10 -13 -10
7 -15 9 -11 5 4 -5 2 -16 -5 -24 -9 -12 -9 -14 0 -9 7 5 16 -1 23 -12 7 -14 7
-22 -1 -26 -5 -4 -8 -14 -6 -23 2 -10 -3 -30 -11 -46 -7 -15 -9 -25 -3 -22 6
4 11 2 11 -3 0 -6 5 -11 12 -11 9 0 9 3 0 12 -17 17 -15 33 2 19 8 -6 18 -11
22 -10 24 4 26 -3 7 -16 -14 -10 -20 -21 -16 -32 4 -11 3 -14 -5 -9 -8 5 -10
2 -6 -8 4 -10 1 -16 -9 -16 -21 0 -32 -19 -19 -32 6 -6 8 -18 5 -27 -4 -13 -3
-14 5 -2 7 10 7 21 1 33 -7 14 -6 18 5 18 8 0 19 7 24 16 6 11 12 13 16 6 3
-6 -4 -18 -16 -26 -17 -12 -19 -16 -6 -21 8 -3 15 -13 15 -21 0 -8 -6 -13 -13
-10 -10 4 -11 -1 -4 -19 8 -21 6 -25 -8 -25 -12 0 -10 -4 8 -13 15 -8 24 -20
22 -31 -2 -11 1 -15 7 -11 6 3 11 2 11 -3 0 -6 -6 -12 -14 -15 -16 -6 -29 19
-20 36 5 8 2 8 -6 0 -12 -11 -10 -18 8 -42 18 -25 19 -30 5 -35 -11 -5 -12
-10 -5 -19 8 -9 8 -17 0 -27 -8 -12 -9 -12 -4 2 3 10 1 20 -4 23 -6 4 -10 1
-10 -6 0 -7 -3 -9 -6 -6 -4 4 -1 13 6 22 15 18 -1 20 -18 3 -9 -9 -12 -9 -12
2 0 7 -3 10 -6 7 -4 -3 -15 -2 -25 3 -12 7 -20 7 -24 0 -3 -5 1 -10 9 -10 8 0
17 -4 20 -8 5 -8 -41 -9 -49 0 -3 3 1 11 9 17 8 7 12 20 10 29 -5 15 -4 15 9
-1 13 -15 16 -16 27 -2 7 9 20 13 29 10 8 -3 12 -2 7 2 -11 12 -110 10 -118
-2 -5 -6 -8 -5 -8 3 0 7 -10 17 -22 22 -17 6 -19 9 -6 9 12 1 16 7 12 18 -4
12 2 9 18 -8 22 -25 61 -31 77 -12 3 3 -3 4 -15 1 -20 -5 -61 16 -56 30 1 4
-6 7 -15 7 -10 0 -24 4 -31 9 -8 5 -18 3 -25 -4 -9 -10 -9 -11 1 -6 6 4 12 2
12 -4 0 -6 5 -8 10 -5 6 3 10 2 10 -4 0 -5 -9 -9 -20 -8 -11 1 -20 5 -20 10 0
4 -5 5 -10 2 -8 -5 -7 -12 2 -23 10 -14 10 -15 -1 -5 -7 6 -21 9 -30 6 -13 -4
-13 -2 2 7 15 10 48 61 53 83 1 4 3 9 4 12 1 3 3 8 4 13 1 4 5 13 10 21 6 10
5 12 -2 7 -7 -4 -12 -2 -12 3 0 6 -5 11 -11 11 -8 0 -8 -5 1 -15 8 -9 8 -15 2
-15 -13 0 -20 20 -14 43 4 15 7 16 14 5 8 -10 9 -10 5 2 -2 8 -10 14 -17 12
-8 -2 -10 3 -6 13 4 11 2 14 -6 9 -7 -5 -9 -2 -5 8 3 10 -3 24 -15 35 -15 13
-22 15 -25 6 -3 -7 -9 -13 -14 -13 -6 0 -7 5 -4 10 3 6 -1 10 -10 10 -9 0 -14
4 -11 9 8 12 -22 23 -37 15 -8 -5 -7 -2 1 7 16 18 15 34 -2 20 -7 -6 -20 -9
-29 -5 -8 3 -18 0 -22 -6 -3 -6 -1 -9 6 -8 6 2 14 -3 16 -11 4 -9 0 -11 -16
-6 -12 4 -21 2 -21 -4 0 -6 -5 -11 -11 -11 -6 0 -4 9 4 21 8 11 13 30 11 42
-2 12 -2 16 2 10 3 -7 10 -13 14 -13 13 0 -9 58 -25 64 -15 5 -29 -20 -15 -29
4 -3 11 1 13 7 3 8 6 8 6 2 1 -6 -8 -19 -19 -29 -11 -10 -20 -28 -20 -39 1
-20 2 -19 15 4 8 14 14 21 14 15 0 -5 -6 -21 -14 -35 -18 -32 -19 -41 -1 -34
18 7 30 -12 15 -22 -8 -4 -9 -3 -5 4 10 16 -7 15 -23 -1 -11 -9 -13 -9 -7 1 7
11 -4 16 -31 13 -6 -1 -14 2 -17 7 -3 5 1 9 9 10 8 1 22 3 30 4 19 2 19 9 -1
34 -12 15 -15 15 -10 2 5 -16 -21 -35 -32 -23 -3 3 0 5 6 5 7 0 12 5 12 10 0
6 11 28 24 49 17 26 21 42 14 49 -7 7 -4 14 11 22 17 8 21 8 19 -2 -2 -7 8
-13 22 -15 14 -1 18 0 9 3 -9 3 -22 16 -29 29 -12 23 -32 35 -29 17 4 -23 -3
-30 -26 -26 -26 5 -34 -9 -13 -22 6 -4 8 -3 5 3 -3 5 0 10 7 10 13 0 14 -43 0
-55 -4 -4 -5 0 -2 9 4 9 -2 21 -14 28 -19 12 -20 11 -14 -6 12 -30 12 -35 -4
-40 -10 -3 -11 -2 -3 4 7 5 9 14 4 22 -7 10 -11 8 -16 -9 -7 -23 -8 -23 -19
-4 -14 24 -32 28 -40 8 -4 -12 -2 -15 9 -11 19 8 31 -11 16 -26 -9 -9 -10 -7
-5 7 5 14 4 17 -5 12 -7 -5 -11 -17 -8 -27 3 -11 1 -17 -4 -13 -5 3 -9 14 -9
25 0 10 -5 19 -11 19 -5 0 -8 -4 -5 -9 3 -4 -2 -17 -10 -27 -14 -17 -15 -17
-10 -1 7 22 -3 22 -21 0 -13 -17 -13 -16 -4 2 5 12 21 27 36 35 32 17 29 46
-5 44 -29 -2 -42 13 -30 36 5 9 5 22 0 30 -10 17 -43 23 -37 7 3 -7 10 -11 16
-9 6 1 11 -3 11 -9 0 -6 -7 -9 -15 -5 -18 6 -41 -29 -25 -39 5 -3 10 1 10 9 0
9 4 16 10 16 15 0 -8 -44 -31 -58 -15 -10 -19 -10 -17 0 2 7 -3 12 -10 10 -8
-1 -11 2 -7 8 3 5 1 10 -5 10 -6 0 -8 5 -4 11 4 8 9 7 15 -2 5 -8 9 -11 10 -6
5 24 4 33 -4 38 -5 3 -1 9 8 12 10 5 14 3 9 -4 -4 -7 -1 -10 7 -7 8 3 13 12
11 20 -1 8 8 23 20 34 12 10 18 14 14 7 -4 -8 0 -11 13 -8 18 3 38 -21 26 -33
-3 -3 -5 0 -5 6 0 7 -5 12 -10 12 -7 0 -7 -6 -2 -17 5 -10 7 -24 5 -31 -4 -11
-1 -11 15 -1 11 7 18 19 15 26 -3 7 -1 13 5 13 5 0 12 -7 16 -15 3 -8 1 -15
-4 -15 -5 0 -7 -7 -3 -15 6 -17 18 -11 18 7 0 6 7 13 15 15 12 4 12 3 1 -5 -8
-6 -9 -12 -3 -16 5 -3 13 1 16 10 9 24 8 27 -14 21 -13 -3 -20 0 -20 9 0 8 7
11 18 8 10 -4 13 -3 6 3 -6 4 -14 15 -17 23 -4 12 -6 12 -6 -2 -1 -17 -25 -18
-41 -2 -7 7 -6 11 4 11 8 0 12 -5 9 -10 -3 -6 -1 -7 6 -3 6 4 9 11 6 16 -3 4
1 11 7 13 8 3 6 6 -4 6 -10 1 -18 -5 -18 -11 -1 -8 -6 -6 -14 5 -7 9 -17 17
-21 17 -4 0 -2 -6 4 -14 7 -9 8 -17 2 -20 -5 -3 -11 -1 -13 5 -3 9 -10 8 -28
-1 -14 -7 -22 -9 -18 -6 10 12 -23 45 -38 39 -8 -3 -14 -3 -14 0 0 15 31 13
48 -3 17 -16 22 -17 32 -5 8 10 8 15 -1 21 -8 4 -9 3 -5 -4 4 -7 2 -12 -3 -12
-6 0 -11 9 -11 20 0 11 5 20 10 20 6 0 10 5 10 12 0 9 -3 9 -12 0 -7 -7 -17
-12 -22 -12 -6 0 -5 5 2 12 18 18 15 25 -13 30 -14 3 -25 1 -25 -6 0 -6 -5 -4
-10 4 -14 23 -72 22 -65 -1 4 -11 2 -19 -5 -19 -6 0 -9 4 -6 9 3 5 -5 9 -18 9
-13 0 -23 -7 -23 -15 0 -8 7 -12 16 -8 11 3 10 0 -3 -10 -25 -19 -31 -19 -47
3 -11 14 -11 15 1 5 8 -7 18 -13 23 -13 6 0 6 5 0 13 -15 20 -10 72 7 72 21 1
40 14 40 28 0 8 -3 8 -12 -1 -17 -17 -25 -15 -31 7 -3 13 -1 18 8 14 10 -3 12
2 9 19 -4 20 -3 20 4 4 8 -19 9 -19 17 0 14 34 12 118 -2 97 -7 -9 -13 -12
-13 -6 0 6 12 20 28 31 l27 21 -35 16 c-32 15 -33 16 -6 10 26 -5 28 -4 17 9
-7 9 -18 13 -25 9 -6 -3 -5 0 3 8 10 11 15 11 18 1 3 -6 9 -9 15 -6 7 4 1 14
-13 26 -13 10 -17 16 -8 13 10 -4 16 0 16 10 0 18 -2 18 -29 4 -16 -9 -19 -8
-13 2 6 9 3 10 -10 5 -18 -6 -18 -6 -2 12 9 10 14 22 10 26 -4 4 1 4 12 0 18
-7 19 -6 5 12 -21 26 -32 34 -44 27 -5 -3 -6 -1 -2 5 4 6 14 8 23 5 11 -4 14
-3 9 5 -4 7 -1 15 8 18 9 3 16 13 16 22 0 13 -3 12 -20 -3 -11 -10 -20 -13
-20 -8 0 6 7 13 15 17 16 6 16 26 0 39 -6 5 -3 7 8 3 20 -6 22 5 5 23 -11 10
-10 12 2 9 19 -4 20 23 1 46 -16 19 -15 19 11 2 15 -10 32 -15 38 -11 5 3 10
1 10 -4 0 -6 -9 -11 -20 -11 -11 0 -19 -3 -19 -7 1 -5 0 -10 -1 -13 -11 -29
-5 -48 17 -46 31 4 41 15 23 26 -9 6 -17 5 -22 -3 -5 -8 -8 -9 -8 -1 0 6 8 18
17 25 9 8 14 9 11 4 -4 -6 3 -12 14 -12 20 -2 20 -1 2 12 -11 9 -14 14 -6 15
10 0 10 4 0 20 -9 14 -14 16 -20 7 -5 -7 -8 -8 -8 -1 0 21 14 24 34 7 12 -10
15 -11 9 -3 -15 16 -17 34 -4 26 5 -3 15 1 22 10 10 12 10 15 -2 12 -9 -2 -13
4 -11 14 3 20 -13 24 -24 6 -5 -7 -3 -8 7 -3 11 7 11 5 -1 -10 -12 -15 -12
-17 -1 -10 10 5 12 4 7 -4 -4 -6 -11 -9 -16 -6 -5 3 -15 -4 -23 -15 -7 -11
-17 -17 -20 -14 -3 4 4 15 16 25 12 10 17 18 10 19 -6 0 -15 -4 -18 -10 -3 -5
-12 -10 -18 -9 -9 0 -8 2 1 6 7 2 17 14 23 25 10 18 9 20 -7 14 -18 -6 -18 -5
0 9 10 8 23 12 27 9 5 -3 9 0 9 5 0 6 -4 11 -9 11 -14 0 -7 30 9 40 8 5 18 6
22 4 4 -3 8 2 8 11 0 9 -4 14 -9 11 -5 -3 -11 1 -15 9 -5 15 11 31 21 21 4 -3
0 -6 -7 -6 -9 0 -8 -5 5 -14 11 -8 16 -20 12 -29 -4 -11 -2 -14 7 -11 8 3 12
14 8 26 -3 13 -1 19 5 15 14 -9 10 43 -5 71 -9 16 -10 27 -2 42 13 25 2 26
-17 3 -13 -16 -13 -16 -3 5 12 24 46 32 36 7 -3 -8 3 -19 12 -25 14 -9 14 -10
-6 -5 -26 7 -29 -7 -5 -26 9 -8 14 -9 10 -3 -4 7 0 15 9 18 12 5 14 10 5 20
-6 7 -8 16 -4 19 3 4 0 14 -8 24 -9 11 -10 14 -1 9 8 -5 12 1 12 19 0 17 4 24
12 19 7 -4 8 -3 4 4 -4 6 -14 8 -23 5 -10 -4 -14 -2 -10 4 4 6 -2 13 -13 16
-13 3 -18 11 -14 20 6 16 44 19 44 4 0 -5 -7 -7 -15 -4 -8 4 -17 2 -20 -3 -4
-6 -2 -10 4 -10 5 0 18 -3 28 -7 10 -3 15 -3 11 2 -4 4 -3 16 2 26 7 12 7 20
0 24 -6 4 -7 12 -3 18 14 22 13 39 -1 27 -10 -7 -17 -6 -26 5 -7 8 -17 12 -24
8 -6 -3 -6 0 2 8 16 17 16 29 -1 25 -6 -1 -8 -1 -4 2 4 2 0 10 -10 18 -17 13
-17 14 1 7 14 -5 17 -3 11 7 -5 9 -4 11 3 6 7 -4 12 -2 12 3 0 6 5 11 12 11 6
0 3 -9 -7 -20 -10 -11 -13 -20 -7 -20 6 0 17 8 24 18 7 10 20 22 28 27 10 5 9
1 -3 -13 -11 -11 -16 -25 -12 -31 3 -6 0 -9 -8 -5 -20 7 -29 -32 -10 -47 12
-10 13 -8 9 14 -4 22 -1 25 17 22 15 -3 18 -2 10 6 -12 12 -6 42 6 35 4 -3 7
4 8 15 1 14 -4 18 -20 15 -22 -3 -81 13 -74 20 2 3 16 0 31 -5 36 -14 33 4 -3
19 -26 10 -28 15 -19 30 11 17 13 17 24 2 7 -9 10 -20 8 -24 -3 -5 -1 -8 5 -8
6 0 15 9 21 21 10 17 9 20 -6 17 -9 -2 -19 4 -21 12 -3 9 -1 11 4 5 4 -5 14
-10 22 -10 8 0 15 -10 16 -22 1 -12 -1 -20 -5 -18 -3 2 -6 -6 -7 -18 0 -12 1
-16 4 -9 3 6 8 10 13 7 4 -3 14 2 21 11 10 12 10 15 -1 12 -7 -2 -15 3 -18 11
-2 8 0 11 5 8 5 -3 10 0 10 8 0 8 -4 12 -9 9 -17 -11 -7 9 15 27 l22 20 -22
-11 c-13 -6 -23 -7 -23 -3 0 4 -5 1 -11 -7 -8 -11 -12 -12 -16 -2 -2 6 -9 9
-15 6 -5 -3 -4 3 3 14 7 12 17 18 21 16 4 -3 8 -1 8 5 0 5 -8 12 -18 15 -10 4
-19 13 -19 20 0 8 6 12 14 9 7 -3 10 -10 6 -16 -3 -6 -1 -7 5 -3 6 3 15 -2 21
-11 7 -14 5 -21 -12 -31 -20 -11 -21 -12 -2 -10 28 4 36 20 21 43 -10 16 -10
25 0 43 8 17 13 20 17 10 4 -8 6 -7 6 5 1 10 5 16 9 13 5 -3 9 1 9 9 0 10 -4
12 -12 5 -7 -5 -15 -7 -18 -3 -4 3 -7 2 -7 -3 0 -5 -9 -10 -19 -11 -22 -2 -36
23 -19 33 6 4 8 3 4 -4 -3 -6 -2 -14 4 -17 7 -4 9 7 7 32 -2 24 -8 37 -16 35
-7 -1 -9 2 -6 9 5 8 10 8 18 0 17 -17 31 -13 17 4 -17 20 -7 30 17 16 10 -6
13 -11 6 -11 -6 0 -10 -8 -8 -17 1 -10 8 -17 15 -15 6 1 9 -2 5 -8 -4 -7 -11
-8 -18 -1 -9 6 -12 2 -13 -14 -2 -29 16 -28 33 0 8 13 8 24 1 32 -7 8 -5 19 5
33 12 17 13 30 5 57 -11 41 3 66 25 44 10 -10 9 -11 -5 -6 -20 8 -26 -19 -8
-30 6 -4 7 -11 4 -17 -5 -7 -2 -8 5 -3 9 5 10 10 2 18 -16 16 -13 31 3 18 12
-10 14 -9 11 6 -1 10 2 23 7 30 5 7 5 14 -2 18 -6 3 -7 12 -4 18 4 7 4 9 0 6
-4 -4 -18 4 -31 17 -13 13 -30 24 -37 24 -7 -1 0 -12 17 -25 26 -22 27 -24 8
-22 -12 0 -20 4 -17 8 2 4 -5 14 -16 22 -24 17 -4 32 28 20 15 -6 15 -5 3 10
-7 9 -16 15 -20 13 -3 -2 -6 13 -6 35 -1 22 3 35 8 30 15 -15 44 -1 57 27 7
15 17 36 22 46 8 16 7 18 -8 12 -10 -4 -21 -1 -25 6 -4 7 -12 9 -16 4 -4 -4 0
-14 10 -21 18 -13 17 -14 -2 -20 -12 -3 -19 -10 -17 -14 3 -4 0 -13 -5 -21 -7
-11 -8 -9 -6 8 2 13 8 27 14 30 8 5 8 12 -1 24 -7 10 -15 16 -18 13 -2 -3 -5
2 -5 10 0 10 4 12 12 5 9 -7 16 -6 25 5 10 12 9 16 -4 21 -12 4 -15 13 -10 28
6 19 5 20 -12 6 -18 -14 -18 -14 -5 2 11 15 11 19 -3 24 -9 3 -14 10 -11 14 3
5 16 -2 30 -16 30 -29 50 -32 33 -4 -7 10 -14 17 -17 15 -5 -5 -51 55 -51 66
0 4 18 7 39 6 22 -1 38 -3 36 -6 -2 -2 0 -12 6 -22 8 -15 6 -17 -6 -13 -20 8
-16 -15 5 -34 13 -12 13 -13 0 -7 -9 4 -8 1 3 -8 16 -13 16 -15 2 -21 -9 -3
-13 -10 -10 -16 3 -5 2 -10 -2 -10 -12 0 -14 -38 -2 -45 5 -4 9 3 9 15 0 12 4
18 10 15 6 -3 7 1 4 10 -4 8 -1 21 4 28 6 7 7 18 2 26 -4 8 -6 24 -4 37 2 12
-1 26 -6 29 -8 5 -7 11 1 21 6 7 16 11 22 7 6 -3 7 -1 3 6 -6 9 -11 9 -22 0
-11 -9 -14 -9 -14 1 0 8 -3 10 -7 7 -3 -4 -12 -2 -20 4 -10 9 -13 8 -13 -1 0
-8 -3 -11 -6 -8 -8 8 14 48 26 48 6 0 10 -5 10 -11 0 -5 -5 -7 -11 -3 -7 4
-10 1 -7 -6 6 -18 31 -20 53 -4 10 8 14 14 9 14 -6 0 -16 -6 -23 -13 -10 -10
-11 -7 -7 15 3 18 -1 28 -10 32 -9 3 -13 9 -10 14 2 4 -5 14 -16 21 -18 11
-20 11 -15 -3 4 -9 2 -16 -4 -16 -6 0 -8 13 -5 30 3 21 -1 33 -12 40 -15 8
-15 9 2 10 11 0 16 3 13 6 -3 4 -2 14 3 24 5 10 6 20 3 24 -11 11 -13 45 -3
51 6 4 7 -1 3 -11 -9 -23 13 -10 27 16 8 16 8 18 -5 14 -8 -4 -15 -1 -15 6 0
6 4 9 9 5 5 -3 12 -1 16 5 12 19 26 11 16 -9 -6 -10 -7 -21 -4 -25 3 -3 1 -6
-5 -6 -7 0 -11 -3 -11 -7 1 -5 0 -10 -1 -13 -8 -21 -7 -39 2 -34 7 4 8 2 4 -5
-4 -6 -12 -9 -17 -6 -5 4 -9 1 -9 -5 0 -7 7 -10 14 -7 10 4 13 1 10 -8 -3 -8
-11 -13 -16 -12 -6 1 -13 -4 -15 -11 -3 -8 1 -10 11 -6 18 7 21 -7 5 -23 -8
-8 -5 -14 10 -23 12 -6 19 -15 16 -20 -3 -5 4 -12 16 -15 17 -6 19 -9 8 -17
-12 -8 -11 -9 1 -5 8 2 15 10 15 18 -1 25 -28 88 -36 83 -4 -2 -7 5 -6 16 1
22 13 27 20 8 4 -10 6 -10 6 0 1 7 -6 15 -14 18 -13 5 -13 9 -3 22 9 11 9 13
1 9 -6 -4 -14 -3 -18 3 -3 5 -1 10 4 10 6 0 11 7 11 16 0 8 4 13 9 9 5 -3 13
0 18 7 12 21 12 37 -1 32 -8 -3 -12 3 -10 18 1 13 3 28 3 35 1 7 8 10 19 6 9
-3 14 -3 11 1 -4 4 -17 9 -29 11 -12 2 -25 7 -29 11 -3 4 2 4 12 1 13 -5 17
-3 14 5 -2 7 -11 12 -20 12 -9 -1 -13 4 -10 12 6 16 23 19 23 4 0 -5 6 -8 13
-6 6 1 9 1 4 -1 -9 -6 1 -23 14 -23 6 0 7 5 3 12 -5 7 -2 9 8 6 8 -4 15 -1 15
7 0 8 -7 11 -16 7 -13 -4 -12 -1 3 16 10 12 24 19 30 15 8 -4 8 -2 0 6 -12 13
-7 54 5 46 4 -2 7 6 6 18 -1 12 3 29 9 37 9 13 9 13 -6 2 -15 -12 -17 -11 -15
7 1 12 6 20 13 17 7 -3 10 5 7 22 -3 15 -5 37 -6 49 0 12 -5 19 -9 17 -4 -3
-8 2 -8 10 0 19 12 20 29 4 10 -11 11 -10 6 4 -7 19 -35 33 -35 17 0 -6 -5 -7
-11 -4 -6 5 -4 12 8 21 10 7 13 14 6 14 -6 0 -19 -7 -27 -15 -14 -14 -16 -13
-22 10 -3 14 -11 22 -17 18 -6 -3 -7 -1 -3 6 10 15 26 4 26 -17 0 -10 3 -13 8
-7 10 15 48 13 45 -2 -2 -7 2 -13 7 -13 6 0 10 5 10 11 0 5 6 7 13 4 6 -4 1 3
-13 14 -28 23 -21 27 13 9 20 -10 21 -10 8 5 -12 15 -11 17 5 18 18 0 18 1 -1
9 -28 12 -43 12 -25 0 12 -8 11 -9 -7 -7 -11 2 -28 9 -37 16 -21 18 -21 3 1
-21 9 -11 11 -18 5 -18 -7 0 -12 5 -12 11 0 5 -6 7 -13 3 -6 -4 -9 -4 -5 1 4
4 3 17 -3 28 -8 14 -8 18 0 13 6 -4 11 -2 11 3 0 6 5 11 11 11 5 0 7 -4 4 -10
-3 -5 -2 -10 3 -10 5 0 15 11 22 25 7 13 17 22 21 19 5 -2 -1 -14 -11 -24 -29
-29 -24 -43 7 -23 15 10 24 12 20 6 -6 -9 -3 -11 7 -7 16 6 23 25 9 23 -21 -3
-24 3 -12 18 10 11 10 14 2 9 -9 -5 -13 -1 -13 13 0 10 3 21 8 24 4 2 1 2 -5
1 -14 -4 -18 12 -5 19 4 2 2 2 -5 1 -6 -2 -14 3 -17 11 -3 9 0 12 8 9 7 -3 13
2 13 11 0 8 -4 15 -8 15 -4 0 -6 8 -4 18 2 9 4 19 4 22 1 3 6 -2 11 -10 5 -8
10 -10 10 -4 0 6 -7 17 -15 24 -12 10 -13 16 -3 28 11 13 11 14 -1 8 -10 -7
-12 -3 -6 15 7 23 7 24 -9 4 -18 -24 -22 -4 -4 25 11 17 10 22 0 29 -9 6 -8
13 8 31 26 30 26 38 0 15 -11 -10 -20 -13 -20 -7 0 6 5 14 10 17 6 4 7 11 4
17 -5 7 -1 9 9 5 12 -4 14 -2 10 10 -5 12 -3 14 8 8 11 -6 12 -5 2 6 -16 16
-17 33 -1 23 6 -4 8 -3 5 4 -4 5 -15 9 -25 7 -9 -2 -19 -4 -21 -4 -3 -1 4 -8
15 -16 19 -15 19 -15 0 -8 -15 5 -18 3 -13 -10 3 -9 2 -19 -4 -22 -5 -4 -7
-11 -4 -16 4 -5 1 -9 -6 -9 -7 0 -9 -3 -6 -6 3 -4 1 -16 -5 -28 -7 -11 -11
-25 -10 -29 1 -5 -3 -5 -10 -1 -11 6 -11 5 0 -8 7 -8 10 -23 6 -32 -3 -9 -2
-16 4 -16 6 0 9 11 7 25 -1 14 1 28 5 30 10 6 21 -21 12 -29 -10 -10 -11 -37
-1 -30 5 3 9 0 9 -6 0 -6 4 -9 8 -6 5 3 9 -1 9 -9 0 -12 -3 -12 -16 -2 -12 10
-14 9 -9 -5 4 -10 1 -19 -9 -22 -8 -4 -13 -13 -9 -21 3 -8 1 -15 -4 -15 -13 0
-13 27 0 35 6 3 10 15 10 26 0 11 -5 17 -10 14 -6 -4 -8 -10 -5 -15 3 -4 -2
-13 -10 -20 -11 -9 -15 -9 -15 -1 0 7 -5 9 -12 5 -7 -4 -8 -3 -4 4 4 6 14 8
22 5 14 -5 14 -3 3 15 -7 11 -17 19 -21 16 -4 -3 -5 2 -1 11 4 12 8 13 13 5 5
-8 9 -7 14 5 8 23 8 27 -4 20 -5 -3 -10 0 -10 9 0 8 -3 16 -7 19 -5 2 -3 2 4
1 19 -5 25 13 7 20 -12 5 -13 10 -5 19 8 10 7 17 -2 27 -6 8 -3 7 9 -3 11 -9
24 -14 27 -11 4 4 -1 13 -11 20 -14 10 -15 15 -4 26 11 11 12 10 7 -4 -5 -13
-2 -18 11 -18 9 0 14 3 11 6 -3 4 -2 15 4 26 9 17 8 19 -10 13 -12 -3 -21 -3
-22 2 0 4 -2 16 -4 25 -2 10 2 16 8 15 7 -1 11 6 11 15 -1 10 3 16 10 15 6 -1
10 6 10 15 -1 14 2 16 17 7 11 -5 19 -12 19 -15 0 -3 -4 -3 -9 1 -11 6 -53
-49 -44 -59 10 -10 25 -7 18 3 -9 15 35 50 54 43 14 -5 14 -4 -1 12 -19 18
-25 41 -9 31 5 -3 12 -1 15 4 4 5 2 12 -4 16 -5 3 -10 11 -10 17 0 6 7 5 18
-3 13 -10 12 -8 -3 10 -18 22 -18 24 -2 18 14 -5 16 -3 8 11 -13 24 -12 34 7
57 14 16 14 17 1 7 -9 -6 -18 -9 -22 -6 -3 3 -10 -4 -17 -15 -6 -12 -7 -21 -2
-21 10 0 12 -29 3 -31 -40 -9 -50 -5 -40 13 8 14 7 24 -3 36 -12 15 -11 16 5
3 9 -8 21 -11 24 -7 4 4 1 12 -7 17 -12 9 -12 10 3 5 9 -3 17 -2 17 3 0 16
-13 20 -34 10 -20 -10 -20 -10 -2 5 13 11 23 13 30 6 5 -5 16 -10 23 -10 30 0
-12 105 -44 113 -14 4 -13 5 5 6 12 0 22 -4 22 -10 0 -5 5 -7 10 -4 7 4 6 14
-2 28 -15 28 -17 56 -5 64 6 4 7 1 2 -7 -5 -8 -3 -11 4 -9 7 3 11 7 9 11 -2 3
5 15 14 25 14 15 15 22 5 33 -9 10 -9 11 1 6 6 -4 12 -2 12 4 0 7 6 10 14 7 8
-3 17 1 20 10 5 11 2 14 -11 9 -15 -5 -15 -4 1 9 12 9 28 12 40 9 19 -6 19 -5
7 10 -10 12 -11 20 -4 27 8 8 11 6 10 -6 -1 -10 4 -20 12 -23 8 -2 11 0 8 5
-3 5 -1 15 5 23 8 12 9 12 5 -2 -3 -9 -1 -19 6 -22 7 -3 3 -7 -9 -11 -12 -4
-27 -18 -35 -31 -7 -14 -19 -22 -26 -20 -7 3 -13 0 -13 -7 0 -8 -3 -8 -9 2 -6
9 -11 10 -15 2 -4 -6 -2 -11 5 -11 6 0 1 -9 -12 -20 -13 -10 -20 -19 -16 -20
4 0 17 9 29 20 12 11 27 20 34 20 6 0 29 16 50 35 21 19 45 34 53 32 9 -1 15
4 13 11 -2 10 2 10 18 2 20 -11 27 -3 13 16 -5 5 0 1 10 -9 21 -24 22 -47 1
-47 -14 0 -14 3 -4 15 11 13 10 14 -4 9 -10 -4 -15 -13 -12 -21 3 -8 6 -17 6
-19 0 -3 14 2 30 11 17 9 30 18 30 21 0 3 -5 2 -10 -1 -6 -3 -10 -1 -10 4 0 6
7 11 15 11 8 0 15 -4 15 -10 0 -5 5 -10 12 -10 6 0 8 3 5 6 -9 10 12 44 26 43
9 0 9 -2 0 -6 -18 -7 -16 -20 2 -20 8 0 15 5 15 10 0 6 3 7 7 4 9 -9 -27 -48
-38 -41 -5 3 -9 1 -9 -5 0 -6 -6 -8 -14 -5 -8 3 -17 1 -21 -5 -3 -7 0 -8 9 -5
11 4 14 0 11 -15 -3 -15 0 -18 12 -14 12 5 14 3 8 -7 -6 -9 -4 -11 5 -5 10 6
9 11 -6 22 -18 13 -18 14 4 19 12 4 22 11 22 16 0 5 4 6 10 3 5 -3 18 -1 27 5
15 9 15 10 -5 5 -23 -7 -23 -7 -7 19 10 14 21 23 26 21 4 -3 15 8 24 24 18 36
19 44 3 35 -7 -4 -9 -3 -5 1 10 12 38 15 31 4 -3 -5 0 -9 6 -9 6 0 8 -5 5 -10
-4 -6 -10 -8 -14 -6 -4 3 -8 -4 -8 -15 -1 -10 3 -19 8 -19 6 0 8 4 4 9 -13 22
16 19 43 -4 28 -23 31 -24 43 -7 12 15 12 15 -1 6 -11 -9 -18 -9 -27 1 -14 15
-7 26 13 18 17 -6 19 13 2 23 -7 4 -8 3 -4 -4 5 -8 2 -10 -8 -6 -9 3 -14 9
-11 13 2 4 -3 8 -11 8 -10 0 -11 -4 -4 -11 14 -14 13 -26 -3 -20 -7 2 -13 15
-13 29 0 14 4 21 11 17 15 -10 65 -10 71 -1 3 5 0 9 -7 9 -7 0 -10 3 -7 6 4 3
15 1 26 -5 19 -10 20 -8 16 17 l-4 27 15 -25 c12 -22 20 -21 16 3 0 4 4 7 10
7 5 0 8 4 5 9 -10 16 22 35 37 22 8 -6 16 -10 18 -8 2 1 1 -2 -4 -8 -4 -5 -15
-10 -24 -10 -9 0 -17 -8 -19 -17 -3 -22 12 -19 44 9 14 13 22 29 18 38 -3 8
-1 15 5 15 6 0 8 4 4 9 -3 5 8 8 24 6 28 -4 30 -2 21 21 -13 34 -4 30 14 -8
18 -34 21 -51 6 -28 -6 9 -10 10 -10 3 0 -17 20 -27 57 -28 24 0 29 3 21 13
-8 8 -14 9 -23 2 -22 -18 -27 18 -6 39 11 11 19 21 18 23 -1 2 2 0 8 -4 17
-15 27 -8 14 10 -13 15 -12 16 3 3 16 -12 10 -51 -8 -51 -3 0 -2 6 2 13 5 9 3
8 -7 -1 -12 -11 -11 -15 3 -23 22 -12 33 -12 34 1 3 23 5 24 15 10 9 -13 10
-13 6 2 -3 9 1 22 9 28 8 7 14 18 13 24 0 7 -2 6 -6 -2 -2 -6 -10 -9 -15 -6
-6 4 -8 2 -5 -3 4 -6 -1 -17 -10 -24 -15 -12 -16 -12 -10 5 5 12 1 27 -10 40
-10 12 -11 15 -3 9 8 -7 21 -13 30 -13 13 0 13 1 0 10 -12 8 -9 10 10 8 14 -2
28 -10 33 -18 5 -10 6 -9 4 6 -3 12 0 29 6 39 6 12 6 16 -1 11 -6 -3 -13 -2
-16 2 -3 5 5 9 17 9 55 1 63 3 47 13 -8 5 -10 10 -5 10 14 -1 51 -30 39 -31
-5 -1 -12 -1 -16 0 -4 0 -5 -6 -2 -14 4 -8 10 -15 16 -15 5 0 7 4 3 9 -3 5 -1
12 4 16 6 3 8 12 5 20 -4 8 -10 12 -15 9 -5 -3 -6 2 -3 10 3 9 10 16 16 16 5
0 6 5 2 11 -5 8 -1 8 13 0 14 -7 23 -7 31 1 9 9 15 9 24 0 8 -8 17 -8 30 -1
11 6 22 8 25 5 8 -7 -17 -36 -30 -36 -6 0 -2 7 9 16 18 15 18 15 -2 5 -12 -6
-25 -7 -30 -3 -5 4 -2 -2 6 -12 13 -17 13 -19 0 -14 -8 3 -14 13 -13 23 1 12
-2 14 -10 6 -7 -7 -6 -15 4 -27 12 -16 12 -17 -3 -11 -10 3 -20 2 -23 -3 -3
-4 7 -6 22 -3 16 2 41 5 58 6 16 0 38 8 47 16 20 18 24 36 6 24 -20 -12 -39
-12 -32 -1 4 6 -2 18 -12 26 -16 12 -16 14 -2 9 11 -4 22 1 28 11 8 13 9 9 5
-17 -5 -28 -3 -32 8 -23 8 7 17 8 23 2 5 -5 17 -3 28 6 11 8 14 14 7 14 -7 0
-9 5 -6 10 4 6 10 8 15 5 5 -3 11 -1 15 5 3 5 1 10 -4 10 -6 0 -11 5 -11 11 0
5 5 7 12 3 8 -5 9 0 5 15 -5 19 -3 20 11 9 13 -11 14 -11 7 1 -6 11 -4 13 8 8
13 -5 15 -2 7 17 -7 21 -6 23 16 20 22 -2 23 0 12 13 -12 14 -11 15 9 5 19
-11 21 -10 18 7 -3 15 0 18 12 14 12 -5 14 -3 8 8 -7 12 -6 12 7 1 16 -13 38
1 24 15 -3 4 -6 0 -6 -8 0 -11 -2 -11 -10 1 -5 8 -10 20 -10 25 0 6 5 3 10 -5
5 -8 10 -11 10 -6 0 5 7 3 16 -4 12 -11 15 -11 12 1 -2 8 -7 17 -12 20 -16 12
2 39 21 32 17 -6 17 -5 0 14 -14 16 -14 20 -3 20 8 0 15 -3 14 -6 0 -3 1 -9 2
-13 1 -5 3 -18 4 -30 1 -15 8 -23 21 -25 16 -1 16 -1 2 3 -9 3 -15 10 -12 15
4 5 14 5 26 -1 14 -8 19 -8 17 2 -2 6 3 12 11 13 8 0 16 7 18 15 4 12 3 12 -5
1 -7 -9 -12 -10 -16 -2 -4 6 -12 9 -17 6 -5 -3 -6 2 -3 12 5 15 4 15 -4 3 -8
-10 -8 -18 0 -27 7 -9 7 -13 0 -13 -6 0 -16 10 -23 21 -8 17 -8 20 1 14 9 -5
10 -1 5 16 -5 19 -4 21 4 9 10 -13 11 -13 12 0 0 9 4 7 11 -7 6 -13 15 -23 20
-23 11 0 10 17 -2 25 -5 3 -10 12 -10 18 0 7 5 4 11 -6 6 -9 15 -15 21 -11 6
4 5 10 -3 15 -11 7 -11 9 -1 9 7 0 10 4 7 10 -3 5 0 7 8 4 8 -3 18 5 25 18 6
13 11 17 11 11 1 -7 -8 -22 -19 -33 -11 -11 -15 -20 -8 -20 6 0 4 -6 -6 -13
-13 -10 -16 -18 -10 -28 8 -13 11 -13 27 3 9 10 13 18 8 18 -5 0 -8 6 -7 13 2
18 32 58 38 52 3 -3 4 6 2 20 -2 21 1 25 13 21 14 -6 14 -4 2 11 -13 15 -12
16 9 11 17 -5 21 -3 13 6 -7 8 -4 12 10 14 40 4 48 5 47 11 -2 20 3 31 12 26
6 -3 10 -1 10 4 0 6 -4 11 -10 11 -5 0 -10 4 -10 10 0 5 8 7 18 4 14 -5 14 -4
2 4 -8 6 -18 8 -22 6 -4 -3 -8 0 -8 5 0 6 10 11 23 11 17 0 19 2 8 9 -8 5 -20
7 -28 4 -15 -6 -18 13 -4 21 5 4 8 14 7 24 -2 9 4 23 13 30 13 10 14 12 1 10
-10 -2 -15 5 -14 19 1 14 -3 20 -10 16 -18 -12 -48 -14 -41 -3 3 5 14 10 23
10 14 0 15 2 2 10 -10 6 -21 4 -35 -8 -19 -16 -19 -16 -5 2 14 18 13 18 -10
13 -14 -4 -19 -4 -12 -1 21 10 13 22 -10 17 -17 -3 -19 -2 -10 5 11 7 11 10
-3 15 -9 4 -13 3 -10 -3 11 -18 -3 -11 -27 13 -28 28 -34 71 -9 63 13 -5 13
-4 -1 7 -10 8 -15 17 -11 21 4 4 -1 4 -10 0 -12 -4 -17 -2 -15 7 2 8 -7 15
-19 17 -13 2 -23 8 -23 13 0 5 -3 8 -7 8 -29 -5 -53 2 -47 14 5 7 0 6 -11 -3
-10 -8 -16 -10 -13 -5 4 6 3 17 -3 25 -7 12 -9 11 -9 -5 -1 -17 -3 -17 -12 5
-6 15 -12 20 -15 13 -3 -7 -9 -13 -14 -13 -4 0 -6 7 -2 16 5 14 2 16 -23 10
-16 -4 -24 -3 -18 1 15 11 23 59 10 61 -47 4 -59 14 -40 30 4 4 5 2 1 -3 -3
-6 4 -12 15 -12 26 -2 10 16 -19 21 -17 4 -21 0 -19 -18 2 -13 -3 -23 -10 -23
-6 0 -10 6 -7 13 2 6 0 15 -6 19 -6 3 -9 0 -5 -8 3 -10 -4 -17 -20 -21 -14 -3
-26 -12 -26 -18 0 -9 3 -9 12 0 16 16 25 15 25 -2 0 -7 -11 -13 -24 -13 -21 0
-28 8 -24 31 1 5 -4 4 -12 -2 -17 -14 -31 -4 -17 13 7 8 5 12 -5 13 -8 1 -22
3 -30 4 -8 1 -15 5 -15 10 0 4 -7 8 -15 8 -8 0 -15 -5 -15 -11 0 -5 4 -8 8 -5
5 3 9 -1 9 -8 0 -9 -6 -10 -23 -2 -12 6 -20 15 -17 20 4 6 -2 6 -13 2 -24 -10
-34 -10 -58 0 -13 5 -17 4 -13 -3 7 -11 -20 -23 -61 -28 -17 -1 -21 2 -17 14
4 10 -3 7 -18 -7 -16 -15 -27 -20 -31 -13 -10 15 -46 -9 -46 -31 0 -9 -5 -20
-11 -24 -8 -4 -9 1 -5 17 6 22 6 22 -7 7 -8 -10 -16 -15 -19 -13 -3 3 -17 -1
-32 -9 -16 -8 -23 -17 -17 -21 14 -8 14 -25 0 -25 -5 0 -7 5 -3 12 5 8 2 9
-10 5 -10 -4 -20 -7 -22 -7 -3 0 -3 -4 0 -9 7 -11 -13 -9 -31 2 -9 5 -13 2
-14 -10 -1 -13 -3 -11 -9 7 -5 16 -8 19 -9 8 -1 -9 -6 -20 -13 -24 -7 -4 -8
-3 -4 4 4 7 3 12 -3 12 -21 0 -21 -21 1 -29 13 -6 17 -10 10 -10 -7 -1 -22 4
-33 9 -20 11 -66 -10 -52 -23 3 -4 1 -7 -4 -7 -6 0 -13 5 -15 10 -2 6 -19 -3
-39 -19 -29 -24 -39 -28 -50 -18 -11 10 -11 9 0 -6 13 -17 15 -17 40 5 14 13
20 16 13 7 -6 -9 -8 -19 -4 -23 4 -4 2 -7 -3 -6 -6 1 -12 1 -15 0 -14 -5 -49
-6 -45 0 2 4 -2 7 -9 7 -8 0 -12 -7 -8 -15 3 -10 1 -13 -6 -8 -6 3 -13 2 -17
-4 -4 -6 -11 -8 -16 -5 -5 3 -6 0 -3 -8 3 -8 0 -18 -7 -23 -7 -4 -10 -3 -6 3
3 5 0 10 -8 10 -8 0 -17 -9 -21 -19 -5 -16 -8 -17 -22 -6 -10 7 -13 8 -9 3 4
-5 -3 -15 -15 -23 -13 -7 -16 -11 -7 -9 9 3 16 0 16 -6 0 -7 -15 -13 -34 -14
-62 -4 -71 -7 -65 -22 3 -9 1 -12 -6 -7 -7 4 -12 2 -12 -4 0 -6 -5 -8 -10 -5
-6 4 -7 11 -4 17 4 7 2 8 -4 4 -6 -4 -9 -13 -5 -21 3 -9 -1 -15 -11 -15 -9 0
-16 -4 -16 -9 0 -5 -13 -7 -30 -6 -16 1 -27 -1 -25 -6 3 -4 1 -10 -5 -14 -5
-3 -10 -1 -10 5 0 6 -4 8 -10 5 -5 -3 -10 -11 -10 -16 0 -6 5 -7 10 -4 6 3 10
2 10 -3 0 -11 -30 -25 -38 -17 -3 3 1 5 8 5 19 0 3 13 -20 17 -11 2 -20 -2
-20 -8 0 -5 4 -7 10 -4 6 3 7 -1 4 -9 -6 -16 -25 -23 -23 -8 3 18 -2 32 -12
32 -5 0 -8 -4 -5 -9 3 -5 -1 -12 -9 -15 -18 -6 -1 33 19 46 7 5 6 8 -3 8 -10
0 -11 3 -2 14 8 10 9 16 1 21 -5 3 -10 11 -10 16 0 6 5 7 11 4 6 -4 5 2 -3 14
-7 12 -16 21 -20 21 -5 0 -8 5 -8 11 0 5 4 8 9 5 5 -4 8 1 7 9 -4 26 -14 27
-26 4 -11 -19 -9 -24 10 -39 l23 -18 -29 4 c-15 1 -34 -2 -41 -8 -9 -7 -13 -7
-13 0 0 6 -6 10 -12 8 -7 -1 -10 -1 -5 1 4 3 5 8 3 12 -3 4 1 8 9 8 8 0 12 -4
9 -9 -3 -4 -1 -8 4 -8 6 0 13 7 16 16 8 22 8 22 -11 20 -12 -1 -18 6 -18 21 0
12 -8 30 -16 40 -24 28 -31 43 -20 43 6 0 11 -7 11 -16 0 -9 5 -12 12 -8 7 4
8 3 4 -4 -4 -7 -3 -12 2 -12 5 0 13 10 17 23 11 31 11 37 2 35 -5 -2 -15 8
-22 22 -20 36 -18 46 3 20 16 -20 20 -21 25 -7 4 12 2 14 -10 10 -11 -4 -14
-2 -9 5 4 7 1 12 -6 13 -7 0 -3 5 10 11 12 6 22 16 22 22 0 6 -5 5 -12 -2 -17
-17 -28 -15 -28 4 0 8 5 12 10 9 6 -3 10 -1 10 5 0 7 -7 9 -16 6 -22 -8 -66
38 -51 53 7 7 7 11 1 11 -6 0 -14 -4 -20 -9 -5 -6 -16 1 -29 17 -15 21 -15 24
-2 13 15 -12 17 -11 17 3 0 9 -4 16 -10 16 -5 0 -10 6 -10 13 1 6 10 1 20 -12
13 -15 20 -18 20 -9 0 8 -4 18 -10 24 -5 5 -11 20 -13 34 -2 13 -10 26 -17 28
-7 3 -10 0 -6 -7 4 -6 2 -11 -3 -11 -11 0 -15 13 -12 39 2 8 -2 10 -10 5 -8
-4 -10 -3 -5 4 4 7 14 12 22 12 17 0 19 16 2 26 -7 5 -8 3 -3 -6 5 -9 4 -11
-4 -6 -6 4 -9 12 -6 17 4 5 1 9 -4 9 -6 0 -11 5 -11 11 0 8 5 7 15 -1 13 -10
19 -9 37 6 13 11 18 13 13 4 -12 -19 -17 -109 -5 -90 4 7 5 20 2 29 -5 14 -4
14 11 2 17 -13 16 -15 0 -34 -10 -11 -13 -17 -6 -14 6 4 15 2 19 -4 4 -7 3 -9
-4 -5 -6 3 -13 2 -16 -3 -3 -5 1 -11 9 -15 14 -5 17 -1 14 21 0 4 8 10 18 14
16 7 16 8 1 8 -12 1 -16 8 -13 22 3 12 2 19 -2 16 -3 -3 -12 0 -19 8 -16 15
-19 29 -5 20 15 -8 9 38 -6 54 -8 7 -11 23 -8 35 5 18 4 17 -9 -4 -17 -29 -20
-44 -7 -35 16 9 22 -12 7 -24 -18 -15 -25 -4 -21 31 2 15 -3 32 -12 40 -14 11
-15 10 -9 -9 4 -12 2 -24 -5 -28 -8 -6 -7 -10 2 -16 8 -5 10 -9 4 -9 -17 0
-39 18 -41 34 -1 9 2 16 8 16 6 0 8 -7 4 -15 -6 -18 10 -20 20 -3 4 6 -1 17
-11 25 -17 12 -17 13 -2 13 9 0 17 5 17 11 0 5 -5 7 -10 4 -6 -4 -9 -1 -8 6 2
6 -3 14 -11 17 -8 3 -11 0 -7 -7 5 -7 1 -9 -9 -4 -13 5 -14 7 -3 14 11 7 10
11 -2 19 -8 5 -10 10 -4 10 6 0 17 -7 24 -15 7 -8 17 -12 23 -8 5 3 8 2 4 -3
-3 -5 1 -18 9 -29 12 -16 14 -17 14 -2 0 9 -4 17 -10 17 -5 0 -7 7 -4 15 6 14
-6 20 -30 16 -5 -1 -6 5 -3 14 11 27 -2 46 -25 34 -11 -6 -22 -8 -25 -5 -3 3
7 10 22 16 22 8 30 8 37 -2 6 -10 8 -10 8 -1 0 7 -9 17 -20 23 -20 11 -23 29
-5 43 6 5 4 7 -5 4 -8 -2 -15 -14 -15 -27 0 -19 -5 -23 -32 -24 -26 -1 -30 2
-22 16 14 26 10 35 -6 14 -14 -19 -17 -17 -19 13 -1 8 -6 16 -12 18 -13 4 -15
-28 -1 -44 19 -26 -2 -12 -36 22 -19 19 -32 35 -28 35 4 0 8 7 8 15 0 8 -4 15
-9 15 -4 0 -8 5 -8 11 0 8 4 8 14 -1 12 -9 15 -8 13 8 0 11 -6 18 -12 16 -5
-2 -16 5 -23 17 -12 18 -11 21 7 26 26 7 26 15 2 37 -15 13 -20 14 -24 4 -3
-7 -4 -3 -4 9 1 12 4 20 8 17 4 -2 10 0 13 4 3 5 -6 14 -21 21 -27 13 -49 -1
-36 -23 3 -5 1 -6 -5 -2 -17 10 5 49 24 42 51 -21 50 -21 34 -1 -8 10 -10 16
-4 12 16 -9 26 19 11 31 -21 17 -74 1 -62 -19 10 -15 -5 -11 -22 7 -12 12 -13
15 -2 13 8 -2 29 11 48 29 18 18 25 29 16 25 -12 -4 -16 -3 -11 5 4 6 -5 17
-21 26 -15 8 -22 15 -14 16 8 0 3 9 -13 21 -14 11 -23 25 -20 30 3 6 12 2 20
-8 7 -10 14 -13 14 -8 0 6 5 3 11 -5 9 -13 10 -13 6 0 -2 8 -10 14 -17 12 -7
-2 -10 3 -7 11 3 9 -1 14 -11 14 -35 0 -41 4 -37 23 3 13 0 18 -7 14 -8 -5 -9
-1 -5 10 4 9 3 14 -2 11 -5 -3 -12 -1 -15 4 -4 5 -1 11 6 14 7 2 5 3 -4 2 -20
-3 -30 16 -17 36 12 19 11 29 -2 29 -5 0 -7 -4 -4 -10 3 -5 2 -10 -3 -10 -6 0
-13 7 -16 16 -8 21 -8 26 2 20 5 -3 9 1 9 9 0 8 -4 15 -9 15 -4 0 -8 -5 -8
-11 0 -5 -5 -7 -10 -4 -7 5 -8 11 -1 18 6 8 5 19 -5 31 -12 17 -14 18 -14 3 0
-9 -7 -17 -16 -17 -14 0 -14 3 -4 15 10 12 10 18 0 30 -6 8 -9 19 -6 24 4 5 1
13 -4 16 -7 5 -5 12 7 22 17 14 17 14 -1 5 -21 -11 -34 -82 -15 -82 6 0 7 5 3
12 -5 7 -3 8 5 3 17 -10 -1 -27 -22 -20 -9 4 -13 13 -10 20 6 17 -30 12 -56
-7 -15 -11 -15 -11 0 6 9 9 22 18 30 19 24 4 40 18 33 29 -4 6 -9 5 -15 -3 -7
-12 -10 -12 -21 0 -8 9 -9 11 -1 7 6 -3 14 -2 17 3 3 5 -4 11 -15 14 -21 6
-22 34 -1 30 6 -1 9 10 7 25 -2 15 2 30 9 34 8 6 7 8 -2 8 -7 0 -15 -6 -18
-14 -3 -8 -12 -12 -20 -9 -10 4 -12 0 -8 -11 5 -13 9 -14 20 -5 8 6 14 7 14 3
0 -5 -9 -15 -21 -22 -12 -8 -18 -9 -14 -3 3 6 1 11 -5 11 -6 0 -8 5 -5 10 3 6
2 10 -3 10 -5 0 -14 -10 -19 -22 l-11 -23 0 25 c0 14 -2 35 -5 48 -4 14 -2 20
4 16 6 -3 13 3 16 15 7 26 23 18 18 -9 -3 -13 0 -18 7 -14 7 4 8 3 4 -4 -4 -7
-3 -12 2 -12 11 0 25 30 17 38 -3 3 -5 0 -5 -7 0 -7 -4 -10 -10 -6 -5 3 -7 12
-4 19 3 7 -2 16 -11 20 -9 3 -13 10 -10 16 4 6 11 7 17 4 7 -4 8 -2 4 5 -6 8
-12 9 -20 2 -13 -11 -26 -5 -26 11 0 5 5 6 10 3 6 -3 10 -1 10 5 0 8 -7 9 -17
5 -10 -4 -23 -8 -30 -8 -7 0 -10 -4 -7 -9 3 -5 9 -6 14 -3 5 3 11 1 14 -4 3
-5 -4 -11 -15 -14 -20 -5 -18 -27 2 -27 6 0 7 5 3 12 -4 6 -3 8 4 4 5 -3 12
-1 14 6 3 9 6 9 12 0 4 -7 2 -12 -4 -12 -6 0 -9 -4 -6 -8 2 -4 -11 -8 -30 -9
-19 0 -34 4 -34 9 0 6 -6 6 -14 -1 -10 -8 -16 -9 -21 -1 -4 6 -1 9 7 8 8 -2
12 5 10 17 l-4 20 16 -20 c18 -23 21 -13 6 16 -8 15 -8 19 2 17 8 -2 14 9 15
32 2 54 3 56 13 40 5 -8 10 -10 10 -3 0 6 -15 20 -32 32 -18 11 -27 21 -20 21
6 0 12 5 12 10 0 7 -6 7 -18 1 -19 -10 -52 2 -34 13 6 3 12 2 14 -2 1 -5 17 0
33 11 29 18 25 19 -20 1 -18 -7 -18 -6 -7 9 8 9 12 22 9 29 -4 9 -6 8 -6 -3
-1 -9 -9 -23 -18 -30 -18 -15 -18 -16 4 38 4 11 3 14 -5 9 -7 -4 -12 -14 -12
-22 0 -8 -5 -14 -11 -14 -6 0 -8 7 -5 15 3 8 9 22 12 30 3 8 1 15 -6 15 -6 0
-8 -4 -5 -10 3 -5 2 -10 -3 -10 -15 0 -22 28 -9 33 7 2 8 8 4 13 -11 11 -27
-15 -20 -34 5 -12 3 -12 -16 -1 -11 8 -21 17 -21 22 0 4 5 5 11 2 6 -4 13 2
16 13 3 13 11 18 19 15 8 -3 14 -1 14 5 0 18 -33 6 -41 -14 -4 -10 -8 -16 -10
-11 -5 21 -7 28 -8 40 -1 9 -3 9 -10 -2 -6 -9 -11 -10 -15 -2 -4 6 -1 14 7 17
24 9 16 31 -10 26 -13 -2 -23 -1 -22 4 5 27 -1 36 -16 24 -9 -8 -15 -9 -15 -2
0 6 5 14 11 17 6 5 4 12 -8 20 -10 7 -21 11 -25 9 -4 -2 -9 -1 -12 4 -2 4 4
13 15 20 16 10 19 9 19 -5 0 -9 3 -14 6 -10 15 14 -6 40 -21 27 -9 -7 -19 -9
-23 -5 -4 4 -1 10 6 12 6 3 12 8 12 13 0 5 -21 -3 -46 -17 -43 -24 -46 -25
-35 -5 15 29 14 37 -4 22 -9 -7 -18 -10 -22 -7 -3 4 -13 1 -22 -6 -14 -11 -14
-10 -2 6 7 9 20 16 29 15 8 -2 17 2 19 9 4 12 -35 12 -55 -1 -7 -4 -12 -2 -12
3 0 6 8 11 17 11 9 0 13 3 9 8 -7 7 -12 8 -38 11 -6 0 -1 12 12 26 13 14 21
27 18 30 -3 3 -11 -1 -18 -10 -14 -17 -30 -20 -30 -4 0 5 5 7 10 4 18 -11 10
5 -15 33 -14 15 -25 23 -25 18 0 -5 -6 -4 -13 2 -9 8 -17 8 -27 0 -13 -8 -12
-9 2 -5 20 7 32 -18 19 -40 -7 -13 -11 -12 -29 8 -16 16 -19 26 -11 35 7 8 7
14 -1 19 -5 3 -10 1 -10 -5 0 -6 -5 -8 -11 -4 -17 10 10 23 35 17 20 -4 31 -5
60 -1 14 1 16 41 3 55 -6 6 -9 -4 -6 -23 2 -13 -25 -23 -40 -15 -9 4 -25 7
-36 6 -14 -2 -21 4 -22 16 -1 11 2 19 8 19 5 0 8 -5 6 -12 -1 -6 9 -12 23 -12
14 0 28 -5 32 -10 5 -7 8 -5 8 5 0 25 33 50 50 39 8 -5 10 -10 5 -10 -6 0 -12
-10 -12 -22 -2 -15 1 -18 6 -10 5 9 11 5 19 -13 16 -34 15 -44 -2 -22 -9 12
-16 14 -21 8 -3 -6 1 -14 9 -17 9 -3 16 -10 16 -15 0 -4 -8 -5 -17 -2 -16 6
-16 5 -4 -10 18 -23 31 -21 31 3 0 22 10 26 26 10 6 -6 15 -5 24 1 13 9 13 10
-2 6 -19 -7 -53 27 -43 43 3 5 11 8 16 4 5 -3 7 -9 4 -14 -3 -5 -1 -11 4 -14
11 -7 9 13 -3 32 -6 10 -11 10 -22 1 -20 -16 -17 0 4 25 l17 21 -24 -20 c-23
-20 -23 -20 -20 0 2 11 9 24 14 28 6 5 -1 5 -14 2 -16 -5 -21 -4 -17 4 5 8 -1
8 -19 -1 -21 -9 -29 -9 -41 4 -13 13 -13 15 0 15 8 0 13 -4 10 -9 -3 -4 2 -8
10 -8 10 0 13 6 10 18 -4 12 -3 13 3 4 7 -9 10 -4 10 18 0 16 -5 30 -10 30 -6
0 -8 -3 -4 -6 3 -4 0 -13 -8 -20 -21 -21 -27 -17 -11 9 13 20 13 24 -4 47 -17
21 -21 23 -30 10 -7 -11 -10 -11 -10 -2 0 7 7 15 15 18 8 4 15 10 15 16 0 5
-5 6 -12 2 -7 -5 -8 -3 -3 5 9 16 24 2 30 -29 2 -12 7 -25 11 -29 4 -3 5 1 1
10 -3 9 0 22 6 28 8 8 8 14 -1 23 -7 7 -12 8 -12 4 0 -5 -7 -3 -15 4 -12 10
-18 10 -32 -1 -9 -8 -14 -9 -10 -3 4 7 0 15 -9 18 -8 3 -12 11 -8 17 5 9 11 6
21 -6 7 -11 13 -13 13 -6 0 7 4 10 9 6 5 -3 13 0 17 6 4 7 3 9 -3 6 -12 -8
-36 17 -26 26 3 4 1 7 -6 7 -7 0 -11 -7 -8 -14 4 -10 1 -13 -8 -9 -11 4 -12
10 -4 26 10 21 9 21 -5 3 -9 -10 -13 -22 -11 -27 3 -4 1 -10 -5 -14 -5 -3 -10
-2 -10 4 0 13 -40 10 -41 -4 -3 -20 -1 -50 2 -64 2 -7 -5 -15 -16 -17 -10 -1
-27 -13 -37 -26 -15 -18 -17 -19 -11 -4 4 13 3 17 -5 12 -8 -5 -10 -2 -5 9 5
13 7 14 14 3 8 -12 13 -4 10 15 -1 5 3 6 9 2 6 -4 9 3 7 17 -1 14 3 22 11 21
6 -2 12 0 12 5 0 13 -38 41 -46 34 -4 -4 -4 -1 0 6 6 11 12 10 27 -4 10 -9 19
-12 19 -7 0 6 -7 16 -15 23 -25 21 -6 31 27 14 30 -15 32 -15 45 2 7 10 13 23
13 28 0 6 -5 4 -10 -4 -9 -13 -10 -13 -10 0 0 12 -2 13 -9 1 -5 -7 -11 -9 -13
-5 -3 5 -3 3 -1 -4 1 -7 -2 -10 -8 -7 -6 4 -8 13 -5 21 7 18 -3 44 -16 44 -6
0 -4 -8 3 -17 7 -10 9 -15 5 -11 -5 4 -14 4 -21 -2 -7 -6 -17 -3 -28 10 -9 11
-12 20 -7 20 6 0 13 -7 16 -15 4 -8 10 -12 15 -9 5 2 3 13 -3 24 -7 10 -16 16
-22 13 -5 -4 -6 -1 0 8 10 16 15 44 7 35 -4 -3 -15 2 -26 11 -11 10 -17 13
-14 6 4 -6 3 -14 -3 -18 -5 -3 -10 -1 -10 4 0 6 -5 11 -10 11 -7 0 -7 -6 0
-19 13 -25 13 -41 0 -41 -5 0 -7 7 -3 16 5 15 3 15 -23 -1 l-29 -17 25 22 c17
14 21 23 13 27 -7 2 -13 9 -13 14 0 6 5 7 10 4 6 -3 10 -1 10 5 0 7 -7 9 -16
6 -12 -4 -15 -2 -10 9 5 13 2 14 -15 4 -13 -7 -19 -7 -15 -1 3 6 2 13 -4 17
-6 4 -7 12 -4 18 4 7 3 9 -1 4 -5 -4 -19 0 -33 9 -13 9 -21 11 -18 5 4 -6 0
-11 -9 -11 -12 0 -13 4 -6 18 7 14 6 19 -4 19 -7 0 -11 -6 -8 -14 3 -7 -3 -16
-13 -20 -10 -4 -19 -2 -22 5 -2 7 -9 9 -14 6 -7 -4 -8 -2 -4 5 6 9 11 9 22 0
11 -9 14 -8 14 5 0 10 -4 15 -9 12 -11 -7 -53 29 -44 38 4 4 0 4 -10 0 -9 -3
-17 -2 -17 4 0 6 -8 9 -17 7 -10 -1 -24 2 -30 8 -7 5 -13 6 -13 2 0 -4 -7 -2
-15 5 -8 7 -13 16 -10 20 11 18 -29 2 -45 -18 -10 -12 -20 -18 -24 -15 -3 3 3
12 13 20 26 17 25 56 -1 42 -20 -11 -33 -29 -21 -29 5 0 14 4 21 10 7 5 5 2
-3 -7 -12 -14 -17 -15 -27 -4 -10 11 -10 14 0 18 6 3 12 9 12 14 0 6 -4 7 -10
4 -5 -3 -10 -1 -10 5 0 6 -5 8 -12 4 -7 -4 -8 -3 -4 4 5 9 13 9 28 1 11 -6 24
-7 29 -2 5 5 -1 9 -13 10 -13 1 -24 7 -26 13 -3 8 -8 7 -18 -1 -8 -7 -18 -9
-21 -5 -4 4 -1 11 6 15 9 6 10 11 2 15 -6 4 -11 2 -11 -5 0 -6 -8 -9 -20 -6
-12 3 -24 -1 -30 -11 -5 -10 -10 -12 -10 -5 0 6 5 15 10 18 6 4 7 12 3 18 -4
8 -1 7 9 -1 11 -9 18 -10 23 -2 6 10 5 11 -17 14 -7 1 -11 8 -10 16 2 8 1 12
-3 8 -4 -4 -14 0 -23 9 -14 14 -17 14 -29 -3 -13 -17 -13 -17 -11 6 3 21 -1
25 -24 25 -15 0 -31 5 -35 9 -4 5 -1 6 7 2 9 -5 8 -2 -2 7 -10 8 -15 17 -11
20 14 15 -12 6 -31 -10 -20 -17 -20 -17 -7 0 9 11 10 17 2 17 -6 0 -11 5 -11
11 0 5 6 7 13 3 6 -4 8 -3 4 1 -10 12 -38 15 -32 4 4 -5 -1 -6 -9 -3 -19 7
-20 16 -3 33 10 10 6 11 -18 7 -16 -4 -24 -3 -17 0 21 10 13 21 -15 20 -16 -1
-28 5 -30 14 -4 12 -3 12 5 1 7 -9 12 -10 16 -2 4 6 4 11 -1 12 -4 0 -18 2
-30 5 -12 2 -23 -2 -26 -10z m1349 -1268 c-1 -7 -5 -19 -10 -26 -7 -11 -4 -12
12 -3 28 15 37 14 23 -3 -12 -14 9 -43 22 -30 3 3 4 -1 3 -10 -1 -8 -5 -18 -8
-22 -10 -9 3 -35 13 -28 5 3 15 2 22 -3 6 -4 17 -8 22 -8 6 -1 9 -7 7 -14 -2
-8 4 -21 12 -30 14 -16 16 -20 16 -42 0 -5 3 -8 8 -5 22 14 57 -23 57 -63 1
-22 -3 -37 -7 -35 -5 3 -11 -2 -14 -10 -5 -14 -9 -14 -26 -2 -11 8 -28 12 -37
9 -13 -4 -14 -3 -1 5 8 6 18 8 24 5 5 -3 6 -1 2 5 -4 7 -2 12 5 12 7 0 10 3 7
6 -4 3 -15 1 -26 -5 -18 -9 -19 -8 -15 12 4 21 4 22 -11 3 -9 -11 -16 -15 -16
-9 0 7 5 15 10 18 6 3 10 11 10 17 0 7 -6 6 -15 -2 -9 -8 -15 -8 -15 -2 0 6 5
12 11 14 6 2 1 12 -11 23 l-21 19 6 -26 c4 -14 3 -28 -2 -31 -4 -3 -7 8 -7 24
2 45 3 49 15 49 5 0 8 -4 4 -9 -6 -10 13 -26 21 -18 7 7 -33 47 -46 47 -5 0
-9 -3 -9 -7 5 -29 -25 -43 -35 -17 -3 8 3 10 17 7 21 -4 21 -4 3 11 -12 10
-23 12 -31 6 -7 -6 -11 -3 -11 10 0 15 4 16 18 9 10 -5 18 -6 18 -2 0 4 5 1
11 -7 8 -12 10 -11 7 5 -2 11 -9 21 -16 21 -6 1 -19 2 -27 3 -8 0 -15 5 -15
11 0 5 7 6 17 3 11 -4 14 -3 9 6 -4 6 -2 18 4 26 8 10 9 15 2 15 -6 0 -16 -8
-21 -17 -6 -11 -11 -13 -11 -5 0 7 -4 10 -10 7 -6 -3 -7 1 -3 10 3 10 8 12 12
7 4 -7 12 -6 23 2 20 14 14 28 -8 19 -10 -4 -13 1 -10 18 3 13 5 27 5 32 1 4
5 7 10 7 5 0 8 -6 7 -12z m364 -658 c8 -5 11 -10 5 -10 -5 0 -2 -5 8 -11 23
-13 37 -2 17 12 -13 9 -12 10 2 5 10 -3 20 -1 23 4 4 6 12 10 18 10 7 -1 6 -5
-4 -13 -17 -13 -39 -50 -39 -64 0 -4 5 0 11 10 6 9 15 14 21 11 7 -5 9 -1 5 9
-11 29 2 19 20 -15 21 -40 22 -49 9 -67 -9 -12 -7 -13 5 -9 20 8 39 -9 32 -29
-3 -8 0 -13 8 -11 9 2 14 -5 13 -20 -1 -16 3 -22 13 -18 8 3 12 2 9 -3 -3 -4
3 -16 14 -26 11 -10 17 -22 14 -26 -3 -5 6 -14 19 -20 28 -13 31 -36 5 -45
-10 -3 -16 -9 -14 -13 3 -4 -6 -8 -19 -9 -26 -2 -43 26 -20 34 8 4 12 11 9 16
-4 6 -10 5 -15 -3 -8 -12 -11 -11 -19 1 -8 11 -9 8 -6 -15 3 -16 17 -40 31
-52 14 -13 22 -23 17 -23 -13 0 -52 39 -52 53 0 8 -3 8 -9 -1 -7 -11 -9 -10
-14 3 -4 9 -3 13 2 10 5 -3 12 -1 16 5 3 5 1 10 -6 10 -7 0 -9 3 -6 7 4 3 3
11 -2 17 -13 18 -22 48 -12 41 5 -3 12 -1 16 5 6 9 -8 14 -28 11 -5 -1 -5 4
-1 10 5 9 2 10 -9 6 -10 -4 -16 -2 -14 6 1 7 -3 11 -8 10 -6 -1 -12 8 -12 19
-2 20 -1 20 13 2 15 -19 15 -19 10 0 -4 10 -1 24 5 32 8 10 6 13 -10 11 -12
-1 -21 -4 -21 -8 0 -4 -7 -10 -16 -13 -14 -5 -15 -4 -5 8 9 11 8 15 -4 20 -16
6 -21 36 -5 36 5 0 7 -8 4 -17 -5 -17 -5 -17 9 0 8 9 20 17 26 17 7 0 9 5 6
10 -4 6 -14 9 -23 8 -10 -2 -17 4 -17 14 0 22 -10 30 -35 32 -11 0 -20 4 -20
9 0 4 0 12 0 17 0 13 11 13 30 0z m-2124 -1196 c8 -1 20 6 27 17 6 10 16 19
21 19 4 0 3 -7 -4 -15 -8 -10 -9 -15 -2 -15 6 0 16 8 21 18 10 16 10 16 11 0
0 -20 11 -23 26 -8 6 6 10 3 11 -10 1 -11 -4 -20 -10 -20 -7 0 -6 -4 3 -10 8
-5 11 -10 6 -10 -5 0 -3 -7 4 -15 7 -8 16 -12 21 -9 5 3 9 3 9 1 0 -3 -15 -14
-34 -25 -30 -18 -34 -19 -30 -4 4 12 -1 9 -15 -7 -12 -13 -21 -18 -21 -11 0
10 -3 10 -14 1 -24 -20 -56 -22 -49 -3 5 14 3 15 -8 5 -14 -14 -49 -18 -49 -5
1 17 18 34 24 23 4 -6 2 -11 -5 -11 -7 0 -10 -3 -6 -6 10 -10 33 10 32 30 0
11 7 21 15 23 12 4 12 2 2 -5 -10 -7 -10 -11 3 -22 8 -7 15 -9 15 -5 0 4 8 1
17 -6 14 -12 16 -12 8 0 -6 10 -4 12 5 6 9 -6 11 -4 5 5 -5 8 -4 11 2 7 5 -3
10 0 10 8 0 11 -4 12 -14 4 -7 -6 -13 -8 -13 -4 0 4 -7 2 -15 -5 -13 -11 -15
-9 -12 8 3 24 17 42 17 24 0 -7 4 -12 8 -12 5 0 9 6 9 14 0 8 -8 13 -19 11
-10 -2 -16 0 -14 4 3 5 -6 7 -20 5 -21 -2 -24 1 -20 19 3 12 3 16 0 9 -5 -10
-9 -10 -22 0 -15 12 -16 11 -3 -5 8 -9 11 -20 7 -24 -3 -3 -6 -1 -6 6 0 7 -4
10 -9 6 -21 -12 -20 15 1 30 22 15 24 14 41 -7 10 -12 25 -23 33 -24z m1161
-100 c4 -12 8 -13 14 -3 6 10 11 10 23 0 9 -8 16 -10 16 -6 0 4 6 3 13 -2 6
-6 22 -9 34 -8 12 1 20 -2 17 -7 -8 -12 7 -9 36 7 18 9 29 10 37 3 9 -7 17 -7
26 0 10 8 22 3 49 -22 20 -19 39 -32 41 -30 5 6 24 -17 29 -35 2 -7 -5 -15
-15 -16 -9 -2 -15 0 -12 5 7 11 -67 87 -82 84 -7 -1 -18 -2 -24 -3 -5 0 -8 -4
-5 -9 2 -4 -2 -15 -9 -25 -12 -16 -13 -16 -19 -1 -6 15 -8 15 -24 1 -15 -14
-19 -14 -40 4 -13 10 -21 23 -17 29 3 5 4 10 1 10 -3 0 -12 -12 -21 -27 -15
-27 -16 -27 -9 -3 l6 25 -28 -25 c-22 -19 -25 -20 -11 -3 11 12 14 24 9 27 -6
3 -12 -1 -16 -9 -6 -17 -26 -20 -26 -4 0 5 5 7 10 4 6 -3 10 -2 10 4 0 20 -20
21 -31 3 -12 -19 -12 -19 -30 -1 -23 23 -25 43 -4 36 8 -4 17 -2 20 3 9 15 25
12 32 -6z m4130 -6360 c-3 -3 -13 -7 -23 -8 -10 -2 -20 -8 -22 -14 -2 -7 3
-10 12 -6 9 3 16 1 16 -6 0 -6 -4 -9 -9 -6 -5 3 -15 -2 -22 -11 -12 -14 -11
-15 9 -9 14 5 22 3 22 -4 0 -6 5 -8 10 -5 6 4 10 3 9 -2 -3 -18 2 -33 11 -33
5 0 7 6 4 14 -3 8 3 19 15 25 22 12 21 -7 -1 -36 -10 -12 -48 -14 -48 -2 0 14
-59 3 -79 -15 -20 -18 -20 -18 -16 3 3 14 0 21 -8 18 -7 -2 -12 -10 -13 -18
-2 -31 -5 -33 -19 -15 -8 11 -15 15 -15 8 0 -6 -10 -16 -22 -22 -22 -11 -22
-10 -4 4 11 9 16 16 10 16 -5 0 -1 5 9 11 9 5 17 15 17 21 0 9 -3 9 -12 0 -17
-17 -27 -15 -25 7 1 14 8 18 29 16 15 -1 28 1 28 6 0 5 -7 9 -17 9 -9 0 -14 3
-10 6 3 4 14 3 24 -1 31 -14 43 -14 43 0 0 8 4 17 10 20 6 4 7 -1 3 -12 -6
-16 -5 -16 10 -4 10 8 15 16 12 19 -7 8 24 28 47 29 11 1 18 0 15 -3z m-960
-88 c-4 -9 3 -16 19 -20 27 -7 24 -20 -8 -37 -18 -10 -19 -8 -14 13 7 22 6 22
-8 -2 -9 -14 -15 -19 -16 -11 0 8 -8 4 -20 -10 -10 -13 -19 -19 -20 -13 0 5 4
14 10 20 5 5 5 15 1 23 -6 9 -11 10 -15 2 -4 -6 -2 -11 3 -11 7 0 7 -7 -1 -20
-15 -24 -25 -26 -25 -5 0 8 4 15 9 15 10 0 6 23 -6 32 -13 9 -37 -2 -30 -13 3
-5 10 -7 15 -4 5 4 9 1 9 -5 0 -6 -11 -8 -24 -6 -18 3 -23 0 -22 -12 3 -18 26
-30 26 -13 0 6 5 11 10 11 6 0 9 -6 8 -12 -2 -7 4 -13 12 -13 8 0 18 -4 22
-10 10 -14 -2 -27 -16 -16 -13 11 -56 9 -76 -4 -8 -5 -11 -3 -8 6 3 8 11 13
17 11 7 -1 10 2 6 7 -8 14 -35 2 -35 -15 0 -8 -4 -14 -10 -14 -15 0 -12 7 12
40 17 24 19 32 8 45 -8 10 -9 15 -1 15 6 0 11 -5 11 -11 0 -5 5 -7 12 -3 7 5
5 11 -7 21 -11 7 -14 13 -8 13 7 0 15 -5 18 -10 4 -7 12 -7 24 0 10 5 21 7 24
4 3 -3 13 -7 22 -8 9 -1 20 -7 23 -12 8 -11 32 -17 32 -8 0 4 -8 13 -17 20
-17 13 -17 14 0 8 10 -4 17 -3 16 2 -3 17 1 24 12 24 6 0 9 -6 6 -14z"/>
<path d="M3430 8475 c0 -9 -11 -20 -25 -25 -31 -12 -33 -20 -3 -12 16 4 19 2
13 -8 -5 -9 -4 -11 3 -6 16 10 15 -6 0 -24 -10 -11 -9 -11 6 0 18 14 19 13 13
-3 -4 -10 -3 -16 2 -12 5 3 12 1 16 -5 3 -5 -2 -10 -11 -10 -17 0 -16 -1 1
-13 10 -8 15 -19 11 -25 -5 -8 -1 -10 9 -6 10 4 15 2 13 -7 -2 -9 4 -13 15
-11 10 2 17 -3 17 -14 0 -11 5 -14 16 -10 21 8 55 -21 47 -40 -3 -8 0 -14 7
-14 6 0 8 5 5 10 -3 6 -2 10 4 10 6 0 1 16 -10 35 -15 25 -25 33 -33 26 -7 -6
-17 -6 -26 0 -13 7 -13 10 -1 18 9 6 10 11 2 15 -6 4 -11 3 -11 -3 0 -10 -18
-10 -37 2 -18 12 -11 43 10 43 16 0 17 -2 3 -12 -9 -6 -16 -14 -16 -17 0 -8
49 -1 58 8 4 5 -2 5 -12 1 -16 -5 -17 -4 -6 9 13 16 5 20 -29 15 -9 -1 -12 4
-7 17 6 17 5 17 -8 0 -12 -16 -14 -16 -20 -2 -4 11 -2 14 7 10 6 -4 4 0 -6 8
-14 12 -15 16 -3 20 14 5 51 -25 41 -34 -2 -3 5 -5 15 -5 28 0 25 7 -20 40
-21 16 -37 33 -34 38 3 4 0 8 -5 8 -6 0 -11 -7 -11 -15z"/>
<path d="M3299 6277 c-10 -22 -15 -25 -27 -14 -13 9 -14 9 -8 0 4 -8 2 -13 -4
-13 -6 0 -8 -5 -4 -11 4 -8 9 -7 15 2 7 12 9 12 9 0 0 -8 7 -4 18 10 15 17 21
19 27 9 6 -9 4 -11 -5 -5 -9 6 -11 4 -5 -6 5 -8 5 -11 0 -7 -4 4 -14 0 -20 -9
-11 -14 -10 -20 4 -30 16 -12 6 -19 -21 -14 -5 0 -8 -4 -8 -10 0 -6 -7 -9 -15
-6 -8 4 -17 2 -19 -2 -7 -11 32 -46 41 -38 3 4 15 -1 26 -10 11 -10 17 -12 13
-5 -4 6 -2 12 3 12 6 0 11 -6 11 -14 0 -8 5 -18 11 -22 8 -4 9 1 4 16 -5 17
-4 21 5 15 9 -5 11 -4 6 3 -4 7 -5 12 -2 12 2 0 13 3 23 7 15 6 16 4 6 -9 -7
-8 -10 -18 -6 -21 3 -4 0 -7 -7 -7 -7 0 -10 -3 -7 -6 4 -4 13 -1 21 5 16 14
43 -20 31 -39 -3 -6 -1 -10 5 -10 8 0 10 10 6 28 l-6 27 14 -25 c8 -14 12 -28
9 -33 -9 -15 22 -2 35 16 7 9 18 17 24 17 7 0 6 -5 -1 -14 -10 -12 -8 -17 8
-26 14 -7 21 -7 21 0 0 5 -7 10 -17 10 -16 0 -10 14 8 16 20 3 21 4 11 17 -6
6 -10 16 -10 22 0 5 -6 11 -13 14 -6 2 -9 -1 -6 -7 4 -5 1 -15 -6 -21 -10 -8
-22 -2 -47 24 -19 19 -31 35 -26 35 4 0 0 10 -8 22 -14 20 -14 24 1 40 18 21
1 25 -19 5 -26 -26 -56 -38 -61 -24 -4 9 -6 8 -6 -2 -1 -11 -4 -11 -16 -1 -14
12 -14 15 1 31 13 14 20 16 31 8 9 -8 13 -8 13 -1 0 6 -6 15 -13 19 -8 4 -19
17 -25 28 -10 19 -11 18 -23 -8z"/>
<path d="M4725 2284 c-13 -10 -15 -14 -4 -14 12 0 12 -2 -1 -10 -10 -6 -11
-10 -2 -10 6 0 11 -4 10 -9 -2 -5 6 -17 17 -25 11 -9 14 -14 5 -11 -18 6 -47
-11 -37 -22 5 -4 12 -2 16 5 10 17 30 -6 26 -30 -2 -10 1 -20 6 -24 5 -3 6
-11 2 -17 -12 -19 -12 -36 -2 -43 6 -3 5 -11 -2 -20 -7 -8 -13 -37 -13 -64 -1
-35 -9 -59 -26 -82 -13 -18 -17 -27 -8 -20 14 11 18 10 26 -4 8 -15 13 -16 25
-6 10 9 17 10 22 2 3 -5 -2 -11 -12 -12 -10 0 -24 -2 -31 -2 -8 -1 -19 -9 -26
-19 -14 -18 -32 -24 -21 -7 3 6 2 10 -4 10 -5 0 -9 -8 -8 -18 1 -19 22 -22 45
-8 7 4 10 12 7 17 -4 5 -1 9 4 9 6 0 11 -6 11 -12 0 -9 4 -8 10 2 9 13 11 13
20 0 9 -13 10 -13 10 0 0 13 2 13 9 1 16 -25 51 -24 50 2 0 16 -2 18 -7 7 -8
-17 -32 -25 -32 -11 0 5 3 11 8 14 4 2 2 2 -5 1 -7 -2 -15 1 -18 6 -4 6 -1 10
6 10 7 0 2 9 -11 20 -13 11 -20 20 -16 20 4 0 2 8 -3 18 -7 13 -6 23 1 30 7 7
8 12 4 12 -5 0 -2 8 5 17 10 11 10 14 2 9 -7 -4 -13 -2 -13 3 0 6 6 11 13 11
6 0 4 5 -5 11 -10 5 -18 15 -18 22 0 8 3 8 8 2 4 -5 14 -11 22 -13 12 -2 11 1
-2 11 -23 18 -11 29 16 16 21 -10 21 -10 1 6 -20 16 -20 16 4 36 13 10 18 19
12 19 -8 0 -9 5 -1 19 14 27 13 44 -4 38 -7 -3 -19 0 -26 6 -10 9 -12 8 -7 -5
3 -10 1 -20 -6 -24 -7 -4 -9 -4 -5 1 4 4 3 14 -3 22 -9 9 -8 13 0 13 6 0 10 3
9 8 -2 4 2 7 7 7 6 0 9 -4 7 -8 -1 -5 3 -5 9 -1 8 5 9 3 4 -6 -5 -8 -4 -11 3
-6 13 8 5 35 -12 38 -6 0 -15 2 -21 3 -5 2 -16 3 -23 4 -7 0 -10 6 -7 11 3 6
1 10 -5 10 -6 0 -8 5 -4 11 4 8 11 4 19 -11 8 -15 15 -19 19 -11 4 6 12 8 18
5 6 -4 6 2 -1 15 -17 32 -43 42 -66 25z"/>
<path d="M5909 1840 c-1 -8 -1 -18 -1 -21 1 -4 -10 -6 -23 -5 -14 0 -23 6 -21
12 5 13 -26 13 -36 0 -9 -13 2 -37 14 -30 6 4 5 10 -3 16 -12 8 -12 9 0 6 8
-2 15 -15 17 -29 1 -13 0 -18 -2 -11 -3 6 -10 10 -15 6 -5 -3 -12 2 -15 10 -3
9 -10 14 -14 11 -5 -3 -6 3 -3 13 3 12 -1 19 -12 19 -10 0 -12 -4 -6 -10 5 -5
7 -16 4 -23 -3 -8 1 -14 9 -14 7 0 19 -10 27 -22 l14 -22 16 20 c18 23 55 29
47 7 -7 -16 30 -38 39 -23 4 6 11 8 16 5 5 -4 9 -1 9 6 0 8 5 7 17 -2 13 -11
17 -11 21 -1 3 10 7 10 18 1 15 -13 66 21 70 46 3 18 -16 31 -25 19 -8 -12
-31 -16 -31 -6 0 4 6 14 13 22 10 12 9 12 -5 1 -10 -7 -18 -10 -18 -5 0 5 -11
-4 -25 -21 -27 -33 -34 -23 -9 13 8 12 10 22 5 22 -6 0 -11 -6 -11 -12 0 -9
-4 -8 -10 2 -8 13 -10 12 -10 -2 0 -10 -5 -18 -11 -18 -6 0 -8 7 -5 16 5 13 4
14 -7 6 -10 -9 -17 -8 -25 0 -9 9 -12 9 -13 -2z"/>
<path d="M6463 1729 c-4 -49 -93 -100 -93 -53 0 20 -14 17 -36 -8 -17 -19 -17
-21 -2 -15 21 8 46 -28 25 -36 -9 -4 -9 -6 1 -6 7 -1 10 -5 7 -11 -3 -5 -1
-10 5 -10 7 0 10 7 6 18 -6 16 -5 16 8 0 7 -10 17 -18 21 -18 4 0 3 6 -3 13
-7 8 -6 17 3 30 13 18 14 17 20 -2 3 -12 11 -21 16 -21 6 0 7 -4 4 -10 -3 -5
-1 -10 4 -10 15 0 14 6 -5 41 -16 32 -4 66 19 52 5 -3 7 -1 3 5 -3 6 0 9 9 8
25 -4 29 -16 9 -31 -17 -13 -17 -14 -1 -15 9 0 17 -5 17 -10 0 -7 -6 -7 -19 0
-24 12 -31 13 -31 2 0 -5 10 -14 23 -21 12 -6 14 -9 5 -7 -12 4 -15 1 -11 -10
5 -13 8 -13 23 1 19 18 36 5 25 -17 -4 -7 0 -5 8 4 8 10 17 14 21 10 4 -4 2 5
-5 21 -9 21 -10 30 -1 39 14 14 16 28 4 28 -5 0 -14 -10 -19 -22 -10 -22 -11
-22 -9 4 0 14 4 24 9 21 4 -2 7 1 7 7 0 7 -8 9 -20 5 -14 -4 -19 -2 -17 7 2 7
2 10 0 6 -8 -14 -25 -8 -20 7 4 8 3 16 -1 19 -4 3 -9 -4 -9 -15z"/>
<path d="M5429 330 c-15 -12 -19 -19 -10 -20 11 0 11 -3 1 -15 -7 -8 -17 -12
-23 -8 -6 4 -8 0 -4 -10 3 -9 2 -19 -4 -22 -5 -4 -6 -11 -3 -17 4 -6 10 -5 15
3 6 10 9 10 9 2 0 -20 -17 -24 -33 -8 -13 13 -16 13 -21 -1 -9 -23 -7 -34 4
-34 5 0 7 7 3 16 -5 14 -3 14 16 2 14 -9 24 -10 29 -3 12 18 37 11 35 -10 -1
-18 0 -18 10 -4 7 9 20 15 30 13 10 -1 14 2 10 9 -4 7 0 8 11 4 11 -5 15 -3
10 5 -5 8 -2 9 11 4 14 -5 15 -3 8 6 -6 7 -7 22 -3 32 4 14 9 16 14 8 4 -7 4
-18 0 -24 -5 -10 -4 -10 5 -2 15 14 3 47 -15 40 -7 -3 -16 -1 -19 4 -4 6 1 10
9 10 9 0 16 6 16 13 0 8 4 7 11 -3 9 -13 10 -13 6 0 -4 16 -47 21 -46 6 0 -5
-5 -12 -12 -17 -15 -9 -42 8 -34 21 12 19 -14 19 -36 0z"/>
<path d="M5175 320 c-10 -11 -22 -17 -27 -14 -4 3 -7 0 -6 -7 2 -7 -6 -13 -17
-13 -15 0 -19 5 -17 23 2 21 0 22 -14 10 -10 -8 -20 -14 -23 -14 -10 0 -11
-34 -1 -40 5 -3 7 -12 4 -19 -3 -8 0 -17 7 -22 8 -4 10 -3 5 4 -14 23 5 32 32
14 14 -9 23 -12 19 -5 -4 6 -3 14 3 18 5 3 10 1 10 -6 0 -8 4 -8 15 1 12 10
15 10 15 -3 0 -9 8 -15 19 -14 11 0 17 5 15 9 -3 5 -9 6 -14 3 -8 -5 -20 17
-27 49 -3 16 -1 17 12 6 8 -7 13 -16 10 -20 -3 -5 0 -12 6 -16 7 -4 9 -3 5 4
-3 6 -2 13 4 17 5 3 10 1 10 -5 0 -7 7 -10 15 -6 8 3 20 -3 28 -14 13 -18 13
-18 25 1 7 11 9 25 5 32 -4 7 -8 15 -8 19 0 3 -3 9 -7 13 -9 9 -5 -16 5 -32
14 -22 -9 -14 -33 12 -25 27 -45 33 -37 12 3 -8 -1 -14 -8 -14 -7 0 -10 8 -7
19 6 23 -1 23 -23 -2z"/>
</g>
</svg>
