<?xml version="1.0" encoding="UTF-8" standalone="no"?>
<svg
   version="1.0"
   width="1024.000000pt"
   height="1024.000000pt"
   viewBox="0 0 1024.000000 1024.000000"
   preserveAspectRatio="xMidYMid meet"
   id="svg18"
   sodipodi:docname="T.svg"
   xmlns:inkscape="http://www.inkscape.org/namespaces/inkscape"
   xmlns:sodipodi="http://sodipodi.sourceforge.net/DTD/sodipodi-0.dtd"
   xmlns="http://www.w3.org/2000/svg"
   xmlns:svg="http://www.w3.org/2000/svg">
  <defs
     id="defs22" />
  <sodipodi:namedview
     id="namedview20"
     pagecolor="#ffffff"
     bordercolor="#666666"
     borderopacity="1.0"
     inkscape:pageshadow="2"
     inkscape:pageopacity="0.0"
     inkscape:pagecheckerboard="0"
     inkscape:document-units="pt" />
  <metadata
     id="metadata2">
Created by potrace 1.16, written by Peter Selinger 2001-2019
</metadata>
  <g
     transform="translate(0.000000,1024.000000) scale(0.100000,-0.100000)"
     fill="#000000"
     stroke="none"
     id="g16">
    <path
       d="m 4230,8825 c -122.4656,-10.2939 -214.4476,-21.804 -177,-24 -10.4649,4.4782 -35.466,-107.241 -89,-53 -109.0061,-9.4096 -283.4449,-131.4756 -204,-88 -77.8543,-14.3157 -166.8785,-51.5363 -133,-77 -48.2875,-59.9767 -216.9708,-142.3274 -142.375,-108.625 -26.7591,-61.5155 -104.8384,-116.4649 -70.625,-89.375 -80.9554,-44.3006 -171.9141,-114.637 -149,-105 -68.7952,-30.6045 -341.5482,-141.3905 -242.125,-134.5 -23.404,-40.3455 -106.8654,-130.0169 -92.875,-120.5 -84.5652,-76.0381 -251.9167,-101.812 -133,-93 -60.7541,-22.1774 -248.7134,-103.2486 -141,-70 -106.3334,35.5658 73.9575,42.4427 34,57 -166.2873,39.2304 -49.3377,205.465 -30.875,122.625 -73.6214,73.7199 -227.4312,175.9094 -187.125,121.375 -25.9249,-20.391 -241.2004,-15.0731 -158,-9 -169.168,-36.4877 -251.8176,-44.548 -232.25,-47.5 -105.8072,-62.6484 -261.1747,-139.6892 -186.75,-69.5 -56.5353,-3.9382 -252.7209,-133.1562 -172.75,-108.875 2.8334,-59.4588 -160.6945,-170.7365 -117.25,-108.125 -118.6616,-116.1438 -84.6341,-52.4651 -206,-185 -13.6432,33.3783 -217.015,-176.6045 -185,-148 -31.915,-26.5931 -246.3944,-264.1843 -209,-203 -95.64728,-41.7968 -135.53206,-302.3229 -115,-165 -49.22579,-56.9621 56.09275,-138.531 60.125,-123.125 76.6539,12.2012 152.24,-174.1606 73.125,-179.375 54.9803,-52.3975 262.8603,6.6464 196.75,1.5 80.7315,15.3174 223.674,-35.5218 179.625,32.5 58.1784,88.8068 260.2514,174.9961 155.375,88.5 3.7204,-16.2654 168.8639,62.7017 127,49 122.4037,-7.2344 280.2954,-69.1249 230,-41 18.541,28.8649 104.7295,3.7913 76,9 92.7944,19.6703 156.0071,170.0134 141,59 85.9708,-161.9005 147.0825,-141.2843 109.0368,-45.7403 43.3241,84.9242 250.3067,68.6395 179.9632,53.7403 49.8514,31.3408 251.9236,46.8176 119.125,-9.125 90.3652,109.8651 313.0091,90.4933 184.875,49.125 88.8987,79.0076 268.655,196.6406 234,112 4.6055,-66.7495 81.787,-56.0303 60,-32 -9.6226,129.6882 -22.6176,161.5969 63,93 30.5267,-6.5379 81.2497,69.369 12.25,80.875 -20.7377,-55.0616 29.4643,35.8154 48.75,42.125 149.7384,96.9565 128.5727,220.0546 130,196 26.6756,38.3847 107.9884,110.0044 90,60 -50.3732,57.203 1.7086,101.2183 59,23 103.8339,7.904 334.4318,143.156 214,103 10.8289,77.3116 119.749,250.794 117,103 72.6565,-13.9617 35.3798,120.9927 160,128 44.5504,62.6798 184.4328,193.774 150,75 36.5589,14.9918 160.3927,48.294 102,39 -29.0324,39.5848 116.578,-3.0959 118.0156,29.2031 96.7709,-23.2884 94.7453,27.3874 126.9844,-14.2031 42.2378,-12.3738 209.3882,-49.3514 133,-58 -20.3959,-54.968 131.366,-168.3854 114,-111 163.5299,-50.685 407.736,-75.2882 291,-72 81.503,-13.0704 209.1104,-3.9429 185,-37 137.2154,-57.8213 342.2491,-56.6615 235.75,-36.25 97.0341,4.1145 279.994,35.0262 221.25,8.25 15.0291,-35.7697 135.2876,-18.1345 133,-15 92.3998,-1.7275 211.541,-149.0545 288.125,-62 -82.4938,-56.2663 -187.2271,-162.5638 -124.125,-117 -38.3565,-77.7029 -226.3942,-212.1515 -149,-126 3.0678,-11.9213 -70.8638,-163.4047 -57,-110 -32.5684,-18.9928 -14.7,-166.8226 -61,-104 -86.8219,-32.1656 -118.9692,-161.1617 -102,-151 14.4309,1.9873 65.3603,-144.9377 -25.5,-130.75 -131.5485,-118.533 35.7483,111.2013 -72.5,-96.25 0.5093,-48.3144 -91.8991,9.5516 -14,-59 56.5853,-122.5393 -35.6715,-240.9556 -32.875,-163 -58.7505,-124.2608 -32.08,-206.1637 -47.125,-130 -62.4569,-67.0753 -89.1357,-300.7789 -76.25,-213 -39.6064,-24.6033 -93.6926,-128.1574 -42.125,-132.25 -35.0183,-142.5225 -137.2379,-137.1923 -63.5,-190.5 -28.4259,-72.2031 -48.5488,-216.0914 -18.125,-162.25 8.333,-12.126 -45.0823,-111.7034 -5,-111 21.5905,-72.838 -50.1596,-233.0563 -13.25,-171.25 7.3433,-24.2187 28.2467,-296.6596 -16.75,-174.75 -5.0585,-110.004 -48.3821,-174.9034 -19.5,-127.25 36.5141,-50.9806 133.3285,-320.4147 60.875,-198.25 -39.0927,-24.7416 166.6905,-165.5722 70.625,-148.5 -49.0869,-0.256 -116.1721,-78.8299 -40,-62 61.3063,-71.2072 30.064,-297.3558 6,-174 -3.5337,-83.4167 -20.9929,-188.0171 1.125,-149 -10.0113,-107.7412 2.4188,-243.5465 -2.125,-207 -22.3793,-48.7395 32.4283,-348.646 5,-211 -26.7342,-73.1954 -27.7182,-306.1716 -11,-196 30.0461,-94.4208 67.4731,-431.1738 34.625,-242 -36.8841,-108.0824 -46.976,-202.0735 -19.625,-169 26.0791,-71.2581 -53.0729,-288.8406 -18.25,-224.5 2.1098,-29.6707 -35.0428,-91.163 17.25,-124.5 -18.9799,-46.4369 2.3139,-225.8594 0,-188 16.7187,-1.6366 34.7855,-185.611 -4,-131 11.6145,-128.5929 32.4801,-277.3849 2,-188 -67.2582,-68.4897 -7.4155,-269.7073 -23.5,-225.625 -34.556,4.9131 -104.4365,-107.5376 -55,-111.625 9.8483,-0.079 -1.7986,-375.4985 -19.5,-184.75 -51.8825,-78.217 -46.2398,-234.2559 -39,-175 -44.7304,72.3027 -139.317,-175.539 -78,-115 33.0459,-14.0038 -61.4216,-203.0793 -73,-138 -17.5658,-91.2883 -44.8339,-140.8968 -34,-139 28.7711,-88.6333 -7.3219,-260.4767 -11,-161 76.7615,-168.9303 -128.3655,-215.4926 121,-140 86.4844,35.981 104.4361,63.4477 106,74 101.3736,-1.1883 50.1743,-77.6808 138.875,-26.125 66.3779,-33.8861 112.1503,58.6977 108.5,-5.75 73.461,-36.8994 205.2117,-159.7546 117.625,-101.125 54.865,-69.852 100.2762,-35.4268 110,-12 30.9073,-10.8169 38.0602,99.0291 50,95 -3.2868,203.3433 109.0435,-27.9569 17.2458,151.9218 79.9517,43.9111 84.7442,178.0721 45.7542,153.0782 -5.0754,82.7842 -43.5522,236.3924 -49.108,184.6436 10.5864,41.6777 10.7352,176.0207 18.108,114.3564 46.7112,77.5005 7.1673,227.1979 12,170 16.5811,64.6976 50.0658,324.8578 49.75,214.375 -15.2545,25.683 9.6921,276.0148 31.25,162.625 -44.1027,75.9859 -42.8812,189.3634 -3.5,140.125 88.0266,84.1715 148.4825,217.1466 58.625,132.75 -95.3467,3.2451 88.4574,346.5559 14.875,185.125 -55.8854,41.197 -79.1201,305.2886 -26.25,116.5 -4.5079,6.8224 54.0246,62.8738 37.25,64.5 -24.6918,45.0329 20.8901,184.2263 21,187 -60.6685,104.9879 89.0252,29.1712 -42,80 56.7233,33.5245 142.9941,83.7877 79,76 60.9958,64.4235 135.1623,171.1941 34.375,104.75 -76.8147,-11.5778 36.5145,79.9862 1.625,73.25 -32.7371,0.1694 51.108,132.4998 10.75,147.875 -58.4328,-36.5125 -40.9742,100.3119 -30.75,56.125 8.6591,28.7603 44.9708,147.7111 60,90 -24.9825,-52.6944 32.7868,63.7685 -23,79 25.7912,41.2284 85.2597,134.4936 71,128.125 -11.5037,66.6296 3.8123,126.6258 -3,119.875 4.29,216.5019 -186.7813,176.8265 -103,96.25 49.081,149.6427 40.5762,210.9272 99.875,89.75 30.0972,22.3117 18.0534,133.7389 34.125,77 53.2179,60.5578 -56.3543,165.9088 -51,175 -84.2034,61.0014 38.6,387.8528 23.375,312.625 -58.656,71.2691 -115.4513,142.4935 -33,138.5 -16.4252,-29.8067 55.1175,140.3349 63.375,110 -92.1504,-152.4622 -55.3717,417.2537 -28.75,128.875 19.7145,29.7146 41.9888,150.7339 40,115 -61.0973,10.7315 -26.0986,145.7394 15.875,120.875 -43.6918,-18.7573 43.1288,-72.6677 25.125,56.125 -24.4161,109.2531 -1.5464,309.7189 -13,234 83.4056,31.4242 -78.6316,231.3765 44.875,172.5 2.4788,53.6721 42.6569,219.7818 53.125,138.5 11.0246,63.733 59.9155,271.3065 16.625,155.875 4.9764,94.9152 4.5554,222.9799 3.375,174.125 -22.4493,-83.3359 54.502,-176.3016 -35.2031,-120.8438 C 6085.4861,6254.3857 6050.2395,6017.891 6099,6090 c -51.4519,3.2214 -109.6529,10.7173 -53,62 -150.39,-34.2756 -248.1518,-112.389 -122,-113 -117.705,46.2971 117.9406,-40.191 -61.1719,-85.0938 -46.5438,-67.4047 60.4155,37.3382 77.1719,5.0938 110.9846,-174.1336 -83.1292,5.5703 15.2809,-130.4972 -111.4455,40.5381 -113.3438,-92.1597 -18.1559,-92.6278 135.9651,-94.8081 93.53,-107.384 -7.625,-54.25 -49.8844,-189.2628 -106.8172,-47.1282 -60.25,-41.375 -74.111,125.0249 -129.2856,260.8131 -83.25,164.75 -17.7366,-108.2032 102.6426,42.1001 9.5938,70.5625 14.9537,55.5363 48.3028,172.5204 45.2812,98.9375 -49.3531,129.0513 -23.1501,187.1834 -37.25,159.375 -84.9346,129.432 4.0807,75.6139 15.375,123.125 0.7695,102.3104 -4.6088,201.9822 -7,99 37.2783,50.6025 112.0791,163.0568 29.75,149.5 30.9047,-3.357 116.5378,96.5206 43.875,99.125 -9.5334,56.2955 32.8545,22.2823 89.5,-11.5 -45.2169,196.9655 119.871,-173.1403 33.875,-58.125 -114.4872,52.4112 14.375,-163.4338 -35,-124 13.299,50.399 82.6937,112.6924 48.875,120.5 94.6129,7.1318 121.6639,-2.7514 108.125,-20.5 -107.4764,59.4046 -101.5342,176.107 11.875,65.875 22.465,65.6092 50.2756,81.7878 51.75,17 -28.4038,129.2914 64.5463,266.0935 15.375,214.125 -9.899,103.829 -21.9445,146.6865 -2,101 102.1621,-9.3466 159.1962,171.6692 105.5,105.125 -32.2135,-12.0954 -109.2672,27.1155 7.5,48.875 -36.4949,32.2978 115.2937,19.4787 127,60 66.6385,-2.3531 -32.7165,187.9139 135,125 -128.3598,46.8452 105.2909,80.9561 39.625,59.375 32.1626,-176.7095 229.3314,-71.8501 185.375,-48.375 -8.4425,39.9855 -43.7722,89.2915 25,42 165.8179,-16.7759 166.2966,-52.1673 133,-17 40.5865,85.0964 220.9224,144.872 135,69 -45.3494,-128.799 301.809,378.5094 87,99 26.4276,-125.3723 268.1113,-74.0606 171.5,-12.5 -216.2804,-40.0391 38.0698,-12.2122 25.5,-5.5 33.7751,-52.4297 256.6188,-47.629 145,-35 9.9521,11.3754 204.1234,145.6245 167,109 48.2589,76.0928 213.0997,-320.6927 116.75,-247.375 71.7876,-49.3865 281.7518,-180.1295 165.5,-175.375 -88.8791,-107.638 -64.8421,3.7296 61.75,28.75 -53.9716,-123.4891 -52.8634,-60.8306 -37,29 125.728,7.8735 197.3744,219.5049 151.8134,188.8245 80.4085,-125.0728 -47.5902,129.9502 94.1866,-51.8245 67.5557,117.6629 -8.8772,-92.636 82,-14 62.8054,16.0269 261.163,276.104 168,181 -61.0512,-148.0308 168.9965,-27.1505 114.375,24.375 76.2181,75.5261 184.2392,53.2277 153.875,50.75 -71.9183,-7.6173 118.6731,53.649 28.75,-7.125 100.0239,7.4041 256.0793,30.5845 154,52 64.6288,79.6539 217.885,147.0142 176,137 -14.421,16.3966 125.3549,80.8723 97,81 48.1406,28.1448 -47.9644,211.2983 16,150 12.7855,72.3599 -106.3053,220.2671 -100,207 -87.1656,105.8045 -491.265,157.9611 -351,124 -182.6622,-9.5295 -203.7121,-71.7469 -296.875,3.625 -13.4161,-36.1986 -391.1742,-94.0021 -230.125,-58.625 -69.1544,-82.9905 -372.2267,-91.8019 -302.625,-38.25 -124.3327,32.0119 -128.3675,-17.9155 -200.375,37.25 -51.9311,-29.7463 -241.9125,-79.7338 -155,-27 -93.7502,-51.7755 -337.293,-9.1492 -243.875,7.75 -115.1795,80.8447 -324.8881,36.5137 -256.125,44.25 -98.6936,-12.0711 -335.308,-56.9122 -233.875,-34 25.0997,26.5858 -210.554,-69.3847 -177.125,-55 -27.331,40.5636 -252.0135,93.6188 -181.875,-4 -5.4491,58.2614 -224.9519,128.8714 -166.125,61 16.9779,21.683 -224.2267,127.2033 -60,47 -65.9199,-7.6045 -244.6359,126.6063 -160,181 -51.0494,23.847 -306.8741,-10.9059 -233.125,-3 -20.952,17.4514 -260.5777,18.264 -170.875,-3 -94.838,-15.0907 -499.2912,71.5786 -286,45 -65.0812,15.4803 -301.9056,-27.1237 -209,-29 67.3477,-59.4304 -39.2706,-198.5497 -40.125,-111.25 -92.1911,72.2246 -59.2796,156.5055 -72.875,163.25 -43.806,40.6926 -163.6714,16.2654 -168,53 -50.6604,-24.1451 -212.6591,104 -155,62 -63.561,11.3384 -198.9018,102.0371 -160,107 -59.1279,58.0426 -195.0902,101.9902 -183,87 -6.131,8.4175 -260.677,67.3637 -201.5,37.125 z m 4513,-752 c 62.6794,-50.0054 139.9761,26.0039 141,-75 -31.6936,-24.5429 -201.9391,7.6074 -38,-63.75 -28.3181,-37.657 -139.552,-153.0194 -79.25,-98.25 -33.2993,38.1071 96.427,185.142 -5,62.25 41.1541,13.1698 -52.5366,124.0437 -16.75,91.75 -95.1879,85.5111 21.7297,99.5751 -9.875,75.5 z m -758,-624 c -61.1978,-40.0473 48.315,-43.413 66,-51 66.3451,24.1994 -10.4977,-137.6069 29,-88 4.9086,-50.628 -159.5384,-119.0697 -28.5,-81.5 20.2791,22.2433 77.0268,77.808 -20.5,36.5 11.4716,68.99 -141.3471,-3.9334 -49,47 -74.9219,3.0399 -88.8206,150.8724 3,137 z m -88,-74 c 113.1121,-52.558 111.8667,-125.6047 22.125,-103.375 -2.7483,-45.0378 131.2729,115.6999 70,-60.875 -130.318,9.3537 -126.4904,-26.3484 -193.125,139.25 49.1669,-40.4287 89.096,21.6649 101,25 z m -6271,-74 c 217.8711,12.9211 149.6006,-55.7219 104.625,-40.125 119.7293,88.3335 -21.0392,-2.0093 30.875,-5.625 1.9268,-46.6188 75.921,63.1065 69.5,-20.25 7.15,120.3478 -77.707,-2.4139 -27,-95 72.1505,121.7997 -57.2761,51.7579 -84,-60 -3.7365,64.0812 -95.62,200.3716 -105,152 27.2407,9.8372 -28.4026,93.4374 11,69 z m 4850,-87 C 6446.0838,7037.7248 6107.057,7100.6049 6325.5758,7057.7345 6238.6784,6937.3762 6204.5834,7041.1258 6215,6969 c -96.9067,3.728 -25.7186,-227.4083 -46.5,-200.25 10.8293,-68.5688 -116.6401,-21.8966 -81.25,-112 6.9585,118.9771 7.0092,-153.5509 -20.25,-68.75 55.9692,85.1973 -92.0854,140.6192 -33,1 16.3561,34.4457 -69.0547,124.9743 -89,111 -86.8411,-22.1422 38.1667,131.1574 8,70 54.5494,40.8536 213.0369,125.441 140,65 89.523,-24.4905 -45.8119,-30.7939 2.8281,60 84.9063,-108.079 -1.558,142.6354 -67.8281,45 -146.5121,37.1381 -109.5109,84.8671 -24.875,47.875 -66.1366,79.8276 95.8469,55.8476 76.875,27.125 89.2003,43.8434 164.1986,9.6562 46,-38 35.9099,-21.3371 17.8352,59.0266 71,46 -11.0512,126.716 117.5034,119.8608 75.125,89 66.3993,21.8283 117.437,49.9645 72.875,58 0.036,6.0304 124.766,65.0076 131,44 z M 5949,5016 c 27.4704,-80.0304 -40.7967,-233.281 -50,-278 -67.6836,-67.0714 -22.8246,244.3564 5,130 -52.55,-16.8022 64.9504,252.4608 45,148 z"
       id="path4" />
    <path
       d="m 6075,6794 c -164.4309,-31.3978 -163.8713,-123.6775 -77,-81 11.1863,-132.6545 100.221,140.8053 129.875,-89.875 11.9845,75.1843 50.5029,248.6935 -52.875,170.875 z"
       id="path6" />
    <path
       d="m 8643,7494 c -83.7777,17.3015 -135.3632,-122.5831 -173,-154 -32.3574,73.3819 174.5337,212.4174 116.875,86.875 47.8675,11.6879 210.0271,54.0533 56.125,67.125 z"
       id="path8" />
    <path
       d="m 5885,6590 c -61.3021,-66.7049 -126.566,-65.1484 -54.75,-131.125 -24.9709,-22.4193 224.207,-494.6728 52.75,-181.875 -7.2252,71.2368 -38.1884,134.6467 73.75,19.25 120.6788,53.8959 -79.5595,45.5734 18.25,85.75 96.3816,-40.7288 -48.7186,-91.1864 14,52 15.5809,-3.6823 -88.9669,55.5024 -118,-64 -10.7692,-70.5719 119.0633,391.3787 69.125,219.625 17.1623,-65.4585 -26.7927,33.3706 -55.125,0.375 z"
       id="path10" />
    <path
       d="m 5995,6360 c 64.6823,-82.452 -132.146,65.1136 -81.5,-86.375 -26.1693,-91.3984 -104.1677,-21.7048 -87.75,-6.125 38.3855,-180.6468 -22.3266,-36.1343 19.25,-247.5 196.0282,-143.7046 -69.4482,36.2488 54,63.25 -160.7096,-36.3821 -72.6176,-83.9566 1.5,19.375 141.4261,-163.861 141.1601,-26.2193 74.5,37.375 28.5604,46.9336 155.1947,-21.066 142,168 -48.4752,44.9046 -81.5891,-31.1852 -122,52 z"
       id="path12" />
    <path
       d="m 5845,5892 c -53.5757,-106.1152 -1.7531,-113.0056 9.625,-76.75 -19.432,-34.1481 11.9703,-162.0476 1.375,-138.25 63.0974,-33.9236 42.2026,199.666 51,147 -36.4036,8.612 -8.9054,95.9326 -62,68 z"
       id="path14" />
  </g>
</svg>
