<?xml version="1.0" encoding="UTF-8" standalone="no"?>
<svg
   version="1.0"
   width="1024.000000pt"
   height="1024.000000pt"
   viewBox="0 0 1024.000000 1024.000000"
   preserveAspectRatio="xMidYMid meet"
   id="svg8"
   sodipodi:docname="U.svg"
   xmlns:inkscape="http://www.inkscape.org/namespaces/inkscape"
   xmlns:sodipodi="http://sodipodi.sourceforge.net/DTD/sodipodi-0.dtd"
   xmlns="http://www.w3.org/2000/svg"
   xmlns:svg="http://www.w3.org/2000/svg">
  <defs
     id="defs12" />
  <sodipodi:namedview
     id="namedview10"
     pagecolor="#ffffff"
     bordercolor="#666666"
     borderopacity="1.0"
     inkscape:pageshadow="2"
     inkscape:pageopacity="0.0"
     inkscape:pagecheckerboard="0"
     inkscape:document-units="pt" />
  <metadata
     id="metadata2">
Created by potrace 1.16, written by Peter Selinger 2001-2019
</metadata>
  <g
     transform="translate(0.000000,1024.000000) scale(0.100000,-0.100000)"
     fill="#000000"
     stroke="none"
     id="g6">
    <path
       d="m 2115,9180 c -57.0823,-45.5156 -65.592,-267.6832 -66.5,-188 -71.8789,-33.6404 -39.3802,-161.2377 -48.5,-132 -40.9022,-43.8685 -117.0523,-226.9226 -94,-172 -123.1734,-110.41 -172.2574,-159.1382 -134.75,-135.375 -0.9677,-88.3864 -100.8073,-326.4649 -79,-199.75 13.2027,-5.9969 -51.1646,-184.1152 -45.25,-151.875 -5.1805,-101.7785 8.4135,-269.5554 2,-225 -2.53,-87.494 62.6082,-217.5872 39,-171 5.2167,-35.6892 20.7703,-202.2768 -11,-158 -40.3743,-38.5238 -128.2252,-373.7298 -74,-287 13.8746,-28.8378 6.2849,-100.268 10,-91 -39.9788,14.9799 -104.7427,-210.3362 -47,-167 -15.5384,-108.039 -87.6447,-209.0717 -51,-163 23.2349,-113.1322 18.4597,-283.9212 -15.5,-185.125 -68.063,58.1762 -146.7756,-203.0103 -81.5,-177.875 -19.5865,-54.5968 -13.2568,-216.3688 -43,-196 -49.2493,-54.5719 -87.0022,-229.6774 -44.125,-139.875 9.3966,-19.8238 33.0413,-182.7654 -2.875,-105.125 -36.7933,-6.0421 -72.0954,-197.688 -47,-151 10.0223,-14.9145 -28.0681,-223.3202 -1,-204 8.4511,-55.4317 13.2446,-161.3009 6,-125 18.1683,-53.4489 -5.9132,-265.9135 -4,-141 6.0577,-89.6955 54.213,-191.864 26.25,-133.375 -35.3333,-58.774 -7.5103,-316.6804 19.75,-245.625 -5.8734,-74.1483 -48.0426,-203.004 1.875,-175 82.9421,-164.5378 62.7839,-341.7515 37.125,-207 88.1884,-76.8163 127.3671,-230.4632 71,-149 20.5928,-24.7985 46.7537,-97.2811 22,-84 33.937,-30.7205 120.1105,-174.4417 52.375,-106.625 38.1146,-51.2406 41.5975,-158.2621 32.875,-116.75 73.3961,27.749 176.5027,-72.1158 62.75,-160.625 -8.3534,-11.5328 5.9438,-89.2683 -10,-80 25.2275,70.067 -9.6858,-151.3776 19,-100 -57.0085,-25.8723 62.7447,-159.2843 26,-99 -28.2155,-102.8019 -6.4532,-148.8463 37,-82 20.6726,-103.0062 -13.9457,-277.9695 32,-193.125 -52.3208,17.9088 -75.5394,-84.6367 26,-86.875 35.6254,23.6212 194.307,-184.1823 149,-179 -91.7914,-30.2872 22.8767,-97.3566 61,-130 -56.3843,5.7864 157.9805,100.2823 46,4 -19.9769,-109.6068 98.2498,-187.8972 23,-127 59.3922,-44.7109 184.4511,-100.8202 126,-72 64.5019,-63.7008 271.9327,-228.4395 165.5,-183.375 63.557,-13.9794 108.5513,-20.3236 122.5,-26.625 153.3019,-61.7444 -29.3817,4.9891 119,-86 78.0266,-83.4797 219.5377,-124.0231 172.25,-125.625 138.3479,-41.4751 -50.3931,-63.0371 140.75,-44.375 25.9426,-35.585 171.9439,-108.9072 71,-84 -12.6965,-64.961 48.1141,-180.3368 53,-83.5 41.294,-16.2319 130.887,-8.48 105,-39.5 15.7871,-108.5345 163.8247,-245.9866 108,-143 -2.0483,-2.2351 153.8055,-147.3644 100,-85 52.654,10.8619 178.6222,-88.5492 104,-81 104.0907,-93.1457 205.4303,-215.1873 136,-132 -50.7114,37.9089 168.8344,-65.6985 107,-51 -85.649,-38.7316 54.2946,-90.683 82,-68 -14.6239,-68.7719 144.5014,-211.6369 125.375,-115.125 90.2875,14.7494 -38.3005,55.6952 140.625,-33.875 -40.0921,-48.4595 112.0539,-139.0097 97,-74 33.7722,11.5907 113.3369,-39.3976 73,-25 49.1433,3.2815 116.5038,-92.4886 97,-58.375 60.76,58.1372 229.258,15.9054 116,-4.625 115.744,-24.4661 198.5159,-88.7293 212,-52 97.3429,-99.3662 38.2747,17.7482 162,-100 23.6406,80.5388 113.965,4.3137 118,-8 47.8453,53.5865 218.979,100.8336 127.625,39.5 12.1803,-73.6892 104.8794,-88.0528 82.75,-20.875 47.9422,58.2019 252.8028,116.7646 194.125,87.875 96.9529,105.5216 228.8304,319.9473 130,202.875 31.7461,155.2728 38.2308,39.0579 19.375,197.125 12.88,72.7079 -180.2708,159.5564 -130.875,148.5 -171.9041,-27.6805 -83.4064,29.7421 -208.5,-6.625 -28.5374,8.6617 29.7289,164.6847 -16.375,123 4.2687,6.3972 172.8466,101.2567 132.875,67.625 20.1924,-33.9131 132.9345,-179.936 130,-73.625 35.0469,-18.7634 157.56,-149.8158 109.625,-91.375 134.4253,-88.4454 191.3713,-133.5623 150.375,-51 75.3308,58.2033 28.237,-8.673 82.375,-24.875 87.0477,-0.1108 239.9682,-19.7161 116.625,-53.125 59.3317,36.4184 80.2579,-103.676 45.046,-67.8806 58.965,-8.1327 323.0602,-102.3851 200.954,-70.1194 100.2169,13.5873 472.7796,-17.1258 259,-12 46.0986,69.9039 74.7409,21.0222 59.875,-16.625 82.2027,67.3323 146.1015,-1.5554 92.125,0.625 11.3202,-3.8089 236.4371,-64.5568 148,-79 41.0593,-96.2392 110.6069,-200.2299 119.75,-119 19.5564,175.7857 137.1816,-696.13557 99.25,-60 93.3152,26.1431 181.1427,-11.2533 102,-20 99.5719,38.4872 1033.9362,122.297 138,-9 134.8172,3.6056 232.8581,96.7032 163.5,89.25 67.0676,4.1678 142.9677,0.1716 146,78.75 29.4547,32.3301 50.1809,121.5285 64.5,39 55.4273,-26.5028 194.718,78.3583 134,53 31.5732,-3.8012 141.742,37.9001 98,64 7.2753,14.6763 -24.5429,71.8254 65,67 -47.158,74.425 66.4754,178.6615 89,73 57.9693,-40.74 14.862,37.5726 76,32 45.9312,94.7948 181.1493,168.3355 124,98 75.9233,80.008 179.1294,290.9831 130.25,203.75 -0.7542,131.705 51.6884,308.768 32.75,190.25 28.7598,87.3538 22.2939,281.7128 23.7969,215.0469 10.6855,128.3566 19.9588,352.7427 2.2031,277.9531 -78.2803,73.3135 -55.7441,254.3923 -50,195 -57.7961,125.0555 -103.0891,234.7934 -48,145 -7.5423,80.549 75.7867,217.2173 -11,245 4.9458,70.5478 -28.9494,132.5175 -21,123 7.5269,90.7648 -83.3534,62.4868 -20,151 -51.7524,60.4338 -52.2434,168.3929 -53,161 -14.7949,19.064 -145.5011,145.6106 -69.625,137 -0.8272,152.5843 154.396,392.1641 124.625,243 59.9686,27.906 61.4878,217.8719 93.125,171.625 -37.9353,43.266 -17.0191,124.3553 -90.125,131.5 -85.5703,41.212 -140.6754,273.2887 -75,179.875 -11.1347,-6.955 -62.1834,68.6414 -84,22 7.4216,98.9884 -33.1548,230.5787 11,174 20.2598,62.7927 35.8436,326.0669 -1.75,249 -69.162,5.123 -24.1038,166.5691 -35.25,123 -26.8054,86.9927 -69.764,239.0262 -37.5,158.75 28.1999,75.5037 35.1704,186.5741 14.5,129.25 -25.5901,46.6227 43.8069,293.6269 9.25,209.75 -72.2425,-34.3883 35.1043,309.9993 5.75,168.25 -60.4507,35.0159 -112.0246,188.1132 -41,174 35.7205,49.986 71.1709,236.254 28.125,205.625 -29.2361,30.1893 52.1867,313.574 23.125,236 14.7261,61.9837 88.5216,268.5916 49.375,272.5 -45.1955,67.6002 -40.1829,196.868 -0.625,116.875 11.4447,-4.8845 5.8113,33.2184 38,83 51.081,84.9984 160.3468,245.1428 91,185 2.4062,54.2215 82.4899,234.6087 39,125 37.4296,46.8482 161.9634,255.5855 107.7344,200.0156 -46.0323,-42.7292 90.4469,95.3872 45.3906,74.1094 -40.3564,6.4357 140.156,159.6507 82.875,149.875 12.4104,19.935 103.2173,100.9219 85.7349,59.8048 -10.6103,-24.7357 257.7774,397.7759 112.2651,188.1952 88.3162,-11.3091 140.398,30.2436 86.5,72 53.5962,43.4315 148.5735,167.6528 106.5,114 35.3173,26.2776 199.2074,155.8789 135,102 26.0777,66.478 203.1004,188.609 156,125 16.4638,67.3146 133.3812,177.5101 99,80 45.0883,49.5012 -104.4638,112.6672 -51,94 -55.9926,-28.2031 -201.8367,16.3447 -169.125,-6.375 -65.3715,-21.2088 -198.1618,-61.2295 -148.875,-89.625 19.8248,54.0773 -110.5639,100.145 -93,46 -120.678,-35.6131 9.7038,-134.6054 -134,-50 -41.7337,-111.9889 -284.6804,-257.1874 -208,-151 -51.2447,-3.5896 -165.0202,-147.1472 -118,-102 -40.4738,-6.4239 -133.3441,-211.3594 -73.8125,-125.9688 C 8103.0614,8124.0875 8055.8267,8006.0267 8063,8050 7986.9419,7927.1769 7911.3686,7812.9836 7930,7845 7863.1678,7736.6528 7696.4835,7557.0596 7791.25,7638.875 7803.3342,7577.6377 7698.9926,7398.2013 7740,7500 7676.8443,7379.101 7668.4744,7327.2224 7644.625,7325.75 7629.5427,7241.8381 7580.1142,7129.5 7584,7154 c -36.6637,-64.7417 -28.456,-175.0281 -38,-117 -66.7749,-104.9514 -159.93,-108.0406 -64.625,-201.5 -15.2025,-23.7486 -55.8736,-191.724 -51.375,-146.5 -87.6614,-81.7787 -134.3151,-374.8026 -96.0625,-251.4844 12.8548,-88.085 42.3062,-220.4153 2.9375,-139.5156 -67.9756,-66.008 -108.7878,-279.0454 -66.375,-195.5 9.4142,-44.8473 -71.4744,-209.0483 -25.5,-162.5 28.5519,-48.5016 3.1648,-284.3685 -5,-160 -20.7252,-48.2148 -89.1405,-109.6088 -27.9219,-175.5312 21.9904,-41.4753 27.4282,-274.0231 31.9219,-234.4688 2.9286,-33.1371 4.1354,-139.4606 15,-160 -24.6067,-120.2409 42.1649,-275.5396 21,-240 34.0091,-17.2731 60.206,-220.8644 22,-130 27.7995,-118.9246 17.0558,-214.9513 7.0156,-174.3594 19.8156,-117.9952 80.7553,-408.3132 24.9844,-265.6406 -41.0466,51.5767 -11.5496,-89.3534 -8,-119 66.0136,35.675 31.8394,-143.2919 33,-116 26.0704,-48.7773 98.3217,-115.7665 44,-121 -139.6764,15.0377 69.9637,-68.6561 -13,-62 -87.3959,-123.3982 0.277,-45.8311 -21,-117 33.5458,-70.8851 97.1327,-263.9444 11,-180 3.1204,-38.2176 115.254,-113.0886 38.125,-77.375 -15.923,-113.1918 -91.6505,4.9977 51.875,-146.875 -92.2864,-16.501 -88.0385,-72.6893 -32,-186.75 -21.6919,-93.3354 20.2972,-363.6408 43,-224 -52.9509,-10.3722 -62.2975,-84.4148 -3,-106 48.853,-82.1845 -76.8025,-368.2922 -39,-271 4.5638,-64.1941 46.3881,-242.1298 21,-158 70.052,-12.8472 -47.5348,-170.3109 -45,-115 -53.7752,-34.3361 -264.5759,-185.8573 -192.625,-128.375 -1.7385,44.0696 -144.8366,-178.0903 -132.375,-76.625 2.8975,60.0233 -182.1665,-53.304 -126.375,-67.375 C 6926.891,2014.4603 6744.949,2015.4798 6816,2022 c -50.0927,68.7162 -30.884,222.2747 -95,116 66.7331,49.0926 194.7468,180.6774 126,126 46.3132,58.0768 97.435,163.7444 87.5,113.375 30.5391,88.8155 -265.7417,115.5134 -136.5,188.625 -117.6053,-19.5376 -215.7503,14.2987 -274,81 -124.9987,18.5753 -504.2918,-67.2687 -362.25,-35 -19.7917,32.2251 -164.2764,55.7057 -152.625,17.75 -76.9121,-38.1903 -232.0434,-62.889 -173.125,-31.75 -75.2978,4.6313 -306.6598,1.8553 -226,-12 -97.9523,-27.3614 -400.2403,-158.945 -304,-103 -92.2746,-92.6913 -144.731,-37.1437 -180,-61 -88.1956,43.5812 -169.4117,-68.1239 -118.75,116.75 -70.7525,108.083 -227.6739,101.4473 -188.25,65.25 -1.1312,83.0925 -166.6153,89.8472 -141.625,49 -88.9166,-24.6818 -153.1548,36.7325 -167,57.625 -120.7573,93.2339 -382.3927,106.554 -275.375,83.375 -61.1836,21.3369 -141.0749,121.2403 -187,63.875 -64.094,-10.6722 -136.6647,181.2886 -98.375,111.625 -75.3452,30.3367 -171.8404,160.4833 -139.625,125.5 -55.5528,96.5715 -239.9044,342.674 -190,240 -60.3285,82.4186 -228.0422,313.321 -160,206 -45.675,87.6028 -233.2748,256.0109 -192.125,225.125 -131.2751,-58.1528 21.1532,-299.7956 22.125,-237.125 -26.4159,-79.0736 -122.9789,30.5433 -88,37 -3.258,21.787 -176.4783,246.1434 -149.25,207.25 -17.5269,53.8709 -91.6438,212.2828 -84.75,142.75 -96.5024,-63.8882 -205.2197,3.5638 -104,41.375 2.8435,24.1617 -69.9274,112.5526 -54,115.625 -41.5037,77.1704 -105.0036,113.4716 -109,152 -43.5993,36.2135 -24.5473,217.6277 -16,136 -77.7422,-49.3516 -11.9614,180.3062 -39,69 -75.9048,216.8733 43.1993,36.4919 -92,160 -58.3762,29.5507 65.6408,131.0073 22.5,151 27.2019,89.5601 37.298,243.5689 8.5,190 -71.1155,47.519 -92.8362,274.0753 -89.625,184.375 -62.1038,82.3977 -144.9601,303.3843 -92.375,229.625 36.6719,28.3791 -16.4495,160.6897 -34.5,122.625 -61.2691,37.7453 -128.1789,197.1646 -60.5,147.375 23.7811,98.2415 -12.4389,219.1703 -27,144 -41.2558,34.4923 -34.2915,182.5902 -21.375,129.625 -33.2444,82.1171 -149.1813,241.6134 -72.625,162.375 -24.2663,61.484 -34.6333,197.6505 -32,132 -55.3473,37.5267 -19.8597,208.1718 -15,131 7.7745,223.1018 46.9505,310.7357 39,257 24.8522,37.1192 51.9647,201.9883 25,179 19.741,23.3659 -41.6458,175.1674 8,142 99.8446,67.3198 180.7737,160.9702 76.375,118.375 -56.1116,194.541 -2.0347,376.9121 10.625,275.625 -82.1081,-37.5923 20.2926,80.1306 36,81 -24.4192,71.289 36.7628,187.6651 23,143 19.8803,121.9259 17.9795,185.8877 32.25,138.875 13.1743,43.2022 81.7836,176.5002 59.75,135.125 33.7459,36.3671 97.7695,135.4217 80,116 7.7894,36.6037 33.8564,153.5402 38,106 8.0716,93.7839 -73.2365,503.6113 -23,363 -28.3918,-24.6714 -46.9503,205.5697 -37,147 -0.8725,-76.648 -160.9305,41.1429 -110,62 -75.4667,70.1109 -113.6079,187.5625 -130,96 -95.235,77.5241 -32.858,277.0493 -54,188 -87.093,88.7159 -115.7745,293.0804 -47,195 -28.2611,35.6855 -11.6709,119.859 -52,123 z m 6525,-736 c 47.995,-51.3446 -70.1349,-60.7359 -66.5,-83.75 15.1053,8.3719 -50.147,-193.3408 -48.5,-136.25 -60.7535,13.3888 106.2337,100.1602 14.625,105.875 -80.2926,25.8032 88.6664,132.7772 50.375,70.125 -19.6413,2.6069 25.8952,69.2442 50,44 z M 5643,2277 c -61.3648,-75.2571 -305.9513,-79.9736 -156.125,-112.5 -10.8273,24.7418 138.0653,90.3731 63.125,85.5 52.1013,24.2928 59.4698,5.3247 93,27 z"
       id="path4" />
  </g>
</svg>
