<?xml version="1.0" standalone="no"?>
<!DOCTYPE svg PUBLIC "-//W3C//DTD SVG 20010904//EN"
 "http://www.w3.org/TR/2001/REC-SVG-20010904/DTD/svg10.dtd">
<svg version="1.0" xmlns="http://www.w3.org/2000/svg"
 width="1024.000000pt" height="1024.000000pt" viewBox="0 0 1024.000000 1024.000000"
 preserveAspectRatio="xMidYMid meet">
<metadata>
Created by potrace 1.16, written by Peter Selinger 2001-2019
</metadata>
<g transform="translate(0.000000,1024.000000) scale(0.100000,-0.100000)"
fill="#000000" stroke="none">
<path d="M7307 9554 c-3 -3 -3 -13 0 -22 4 -15 3 -15 -10 1 -8 9 -18 17 -22
17 -4 0 -4 -8 0 -17 5 -14 3 -15 -6 -6 -6 6 -18 9 -27 6 -9 -4 -13 -2 -9 4 3
5 0 10 -8 10 -8 0 -12 -4 -9 -9 5 -8 -10 -12 -35 -8 -13 2 -13 -1 0 -17 13
-16 12 -17 -3 -5 -9 8 -15 19 -12 26 3 7 -5 12 -18 13 -13 0 -17 -1 -10 -4 23
-9 12 -20 -14 -15 -16 3 -25 1 -21 -5 3 -5 -5 -9 -18 -9 -13 0 -21 4 -19 8 3
5 9 6 13 4 4 -3 8 1 8 9 0 13 -3 13 -16 1 -9 -7 -23 -11 -31 -9 -9 3 -11 1 -4
-4 12 -9 14 -54 1 -46 -5 3 -6 11 -3 18 3 8 -5 15 -19 17 -23 5 -27 -5 -10
-32 5 -9 -1 -7 -15 5 -18 15 -22 16 -18 4 4 -9 1 -16 -8 -16 -7 0 -11 3 -9 7
2 4 -2 7 -10 7 -18 0 -19 -9 -2 -26 10 -10 8 -11 -8 -5 -11 4 -26 14 -32 22
-7 9 -13 11 -13 5 0 -6 7 -16 15 -23 11 -9 13 -16 5 -24 -7 -7 -14 -6 -22 3
-11 10 -9 11 7 6 16 -5 17 -5 5 3 -17 13 -33 5 -26 -14 3 -9 0 -11 -11 -7 -10
4 -14 2 -10 -4 4 -7 0 -10 -10 -9 -10 2 -21 -2 -25 -8 -5 -7 -8 -5 -8 5 0 20
-30 20 -50 0 -13 -13 -13 -14 2 -9 19 8 33 -18 16 -28 -7 -4 -8 -3 -4 4 5 9
-7 12 -39 12 -43 0 -45 -1 -34 -21 6 -12 7 -19 1 -15 -5 3 -13 -1 -16 -10 -3
-9 -11 -12 -18 -8 -8 5 -9 2 -5 -9 3 -9 2 -19 -4 -22 -5 -4 -9 -3 -8 2 3 18
-1 36 -7 30 -4 -3 -16 -1 -28 5 -19 10 -19 9 -8 -4 16 -20 6 -27 -35 -24 -17
1 -30 -1 -28 -4 2 -3 -5 -11 -15 -18 -16 -10 -19 -9 -14 6 2 9 -1 7 -7 -5 -6
-12 -18 -24 -27 -28 -13 -5 -13 -3 -1 11 13 16 12 16 -8 4 -12 -8 -19 -18 -17
-22 3 -4 -2 -8 -11 -8 -10 0 -13 -5 -9 -12 4 -7 3 -8 -4 -4 -6 3 -16 -3 -22
-14 -8 -14 -17 -19 -28 -15 -9 3 -13 3 -10 -1 10 -9 -17 -34 -36 -34 -19 0
-21 -17 -4 -22 7 -3 5 -7 -6 -11 -10 -4 -15 -3 -11 3 3 6 1 10 -5 10 -6 0 -8
5 -5 10 3 6 1 10 -6 10 -6 0 -9 -8 -6 -20 6 -22 -8 -37 -18 -20 -5 8 -11 7
-21 -1 -7 -6 -11 -15 -8 -20 11 -18 -7 -29 -28 -18 -12 7 -18 7 -14 1 3 -6 3
-12 -1 -15 -5 -2 -3 -2 4 -1 7 2 10 -3 6 -11 -4 -12 -9 -12 -26 -3 -20 10 -21
10 -8 -6 12 -14 12 -16 -4 -10 -14 6 -16 4 -10 -6 5 -9 4 -11 -3 -6 -7 4 -12
2 -12 -3 0 -6 -5 -11 -11 -11 -5 0 -7 6 -3 13 4 6 -3 3 -15 -8 -12 -11 -20
-27 -18 -36 3 -12 0 -16 -10 -12 -7 3 -13 2 -12 -3 4 -22 -2 -33 -16 -28 -10
4 -13 0 -10 -15 4 -19 -6 -26 -29 -22 -5 1 -4 -5 4 -13 7 -9 10 -17 6 -17 -3
-1 -10 -2 -15 -3 -5 0 -13 -5 -18 -10 -4 -5 -3 -6 4 -2 6 3 14 2 18 -4 6 -9
-14 -14 -40 -11 -5 1 -2 -5 8 -13 16 -12 16 -14 1 -20 -9 -3 -20 -3 -26 0 -5
4 -5 -4 2 -16 11 -20 10 -22 -3 -17 -22 8 -40 -16 -24 -33 10 -10 9 -12 -5 -7
-10 3 -20 1 -24 -5 -4 -6 -3 -8 4 -4 6 3 13 2 17 -4 3 -5 1 -10 -5 -10 -6 0
-8 -5 -4 -12 5 -8 2 -9 -11 -4 -16 6 -16 4 -4 -11 8 -9 9 -14 2 -10 -6 4 -14
3 -18 -3 -3 -5 0 -10 7 -10 9 0 10 -3 2 -8 -6 -4 -10 -15 -8 -25 1 -9 -2 -14
-8 -11 -15 10 -29 -18 -16 -33 8 -10 7 -12 -5 -7 -11 4 -15 0 -13 -13 2 -10
-2 -21 -7 -25 -15 -9 -17 -38 -4 -38 7 0 7 -4 -2 -9 -8 -5 -11 -16 -7 -27 5
-17 4 -17 -10 1 l-16 20 6 -20 c12 -44 14 -75 5 -70 -5 4 -6 11 -3 17 4 6 2 8
-3 5 -6 -4 -9 -20 -8 -37 1 -17 -1 -33 -6 -36 -5 -3 -9 0 -9 7 0 7 -3 9 -7 6
-3 -4 2 -17 13 -29 10 -12 13 -18 5 -13 -11 6 -13 3 -8 -14 4 -16 2 -21 -7
-18 -7 3 -13 -1 -13 -9 0 -9 6 -13 16 -9 11 4 10 0 -4 -15 -15 -17 -16 -23 -6
-29 11 -7 11 -10 0 -14 -10 -4 -10 -6 -1 -6 6 -1 12 -6 12 -12 0 -5 -4 -8 -8
-5 -4 2 -8 -4 -8 -14 0 -10 4 -16 8 -14 13 8 9 -11 -4 -25 -8 -8 -8 -11 -2 -8
19 11 24 -42 5 -53 -13 -8 -12 -9 6 -10 23 0 27 -20 9 -49 -7 -10 -3 -12 15
-6 17 4 20 3 10 -3 -8 -6 -10 -15 -5 -23 6 -12 5 -11 -9 0 -15 12 -17 12 -11
-3 3 -9 9 -16 13 -16 4 0 7 -9 8 -20 1 -11 -2 -18 -7 -15 -6 3 -7 -1 -4 -9 3
-9 11 -13 18 -9 6 4 5 -1 -3 -10 -10 -13 -10 -17 -1 -17 9 0 9 -4 -1 -17 -8
-9 -9 -14 -3 -10 7 4 15 0 18 -9 3 -8 2 -12 -4 -9 -6 3 -10 1 -10 -4 0 -6 7
-11 16 -11 8 0 12 -5 9 -10 -4 -6 -10 -8 -15 -5 -4 3 -7 -3 -5 -12 1 -10 7
-17 12 -16 6 1 15 -10 22 -25 11 -25 10 -26 -4 -8 -8 11 -15 15 -15 9 0 -7 7
-18 15 -27 9 -9 11 -17 5 -21 -6 -4 -4 -15 5 -29 8 -12 12 -26 8 -31 -5 -4 -2
-5 6 0 11 6 13 2 7 -21 l-6 -29 15 25 c12 19 15 20 11 5 -7 -26 17 -71 35 -67
8 2 11 0 7 -3 -4 -4 -3 -16 2 -26 7 -12 7 -20 0 -24 -6 -4 -10 -3 -9 2 4 21
-3 33 -23 44 l-23 11 23 -21 c12 -12 20 -26 17 -31 -3 -5 5 -16 17 -25 18 -12
20 -17 9 -24 -11 -7 -9 -10 8 -16 11 -3 21 -13 21 -21 0 -10 5 -12 13 -8 7 5
6 0 -3 -11 -8 -10 -10 -16 -4 -12 7 4 15 0 18 -9 3 -8 10 -13 14 -10 5 3 7 -6
4 -19 -2 -15 0 -25 7 -25 6 0 11 -5 11 -11 0 -5 -4 -7 -10 -4 -5 3 -10 4 -10
1 0 -3 15 -13 33 -21 17 -8 24 -13 15 -11 -29 8 -9 -21 23 -35 21 -8 27 -15
20 -22 -6 -6 -11 -16 -11 -21 0 -6 5 -3 11 7 13 22 30 22 22 0 -4 -11 -3 -14
5 -9 19 11 35 -3 22 -19 -7 -8 -7 -15 -1 -19 5 -4 12 -2 16 4 3 5 12 10 18 10
8 0 8 -3 2 -8 -16 -11 -15 -41 1 -35 8 3 11 10 7 16 -3 6 -1 7 5 3 9 -5 9 -13
2 -26 -12 -23 -13 -40 -1 -21 9 13 39 5 40 -11 1 -7 6 -10 14 -7 13 4 59 6 50
2 -16 -6 -17 -33 -2 -33 5 0 7 -5 3 -11 -4 -7 2 -6 17 1 l24 13 -20 -22 c-14
-16 -15 -22 -5 -19 8 2 14 -3 12 -10 -1 -8 2 -11 7 -8 5 4 12 0 14 -6 4 -9 6
-10 6 -1 1 6 -3 15 -9 18 -5 3 -10 12 -10 18 0 7 5 4 11 -6 6 -9 14 -15 18
-12 5 2 7 -7 5 -20 -1 -14 2 -25 8 -25 6 0 8 6 5 14 -4 10 0 14 12 13 10 0 18
-7 18 -14 0 -6 -4 -10 -9 -7 -4 3 -8 0 -8 -5 0 -14 17 -14 25 -1 3 6 11 10 17
10 6 0 6 -6 -2 -15 -7 -9 -10 -18 -6 -22 3 -3 6 -1 6 6 0 7 5 9 10 6 6 -4 7
-11 4 -17 -4 -6 -2 -8 4 -4 6 3 13 2 17 -4 3 -5 12 -10 18 -10 7 0 1 9 -12 19
-18 14 -21 20 -11 26 9 6 11 4 5 -5 -6 -10 -4 -12 11 -6 10 4 15 4 12 0 -4 -3
0 -13 8 -21 8 -8 11 -19 8 -25 -4 -7 -2 -8 5 -4 6 4 8 12 5 18 -5 7 -2 8 5 4
7 -5 10 -14 7 -22 -3 -7 0 -16 6 -20 6 -4 8 -3 5 3 -4 6 0 19 8 29 12 15 14
15 9 3 -3 -10 0 -20 5 -24 6 -3 9 -11 6 -16 -10 -15 2 -10 16 8 12 14 12 16 0
8 -10 -5 -12 -4 -7 4 10 15 29 3 22 -14 -3 -8 2 -11 15 -8 10 3 16 10 12 16
-3 6 4 3 17 -6 17 -12 28 -13 42 -6 11 6 18 6 18 0 0 -5 -6 -11 -12 -14 -7 -2
1 -4 19 -3 17 0 29 4 27 8 -8 13 11 9 25 -4 11 -11 12 -10 7 0 -6 9 -1 11 19
8 20 -4 25 -2 21 9 -3 8 -1 17 5 20 5 4 9 3 8 -2 -4 -23 3 -40 16 -40 11 0 12
4 3 14 -6 7 -8 16 -4 20 3 3 6 1 6 -6 0 -8 6 -11 16 -7 10 4 13 2 8 -6 -4 -6
-3 -8 4 -4 5 3 12 0 15 -6 2 -7 8 -9 13 -5 5 4 2 12 -6 17 -8 5 -11 12 -7 17
5 4 12 1 16 -6 7 -11 10 -11 15 0 3 8 3 4 0 -8 -3 -13 -1 -23 5 -23 5 0 12 8
14 18 4 15 5 15 6 1 1 -21 24 -30 42 -17 11 7 9 8 -6 3 -16 -5 -17 -4 -8 6 10
10 15 9 27 0 17 -14 40 -5 30 11 -4 7 -2 8 5 4 6 -4 9 -12 6 -17 -4 -5 1 -9
10 -9 9 0 14 4 10 9 -3 5 0 13 6 17 8 4 9 3 5 -4 -4 -7 -2 -12 5 -12 8 0 8 -5
-2 -17 -11 -15 -10 -14 9 1 23 20 30 32 12 21 -11 -7 -14 8 -3 19 4 3 13 -4
21 -16 l13 -23 -4 27 c-3 20 0 25 11 20 9 -3 13 -1 9 5 -3 5 0 10 7 10 7 0 13
-6 13 -13 0 -7 -4 -11 -8 -8 -4 2 -11 -1 -15 -8 -4 -7 -3 -10 1 -5 5 4 16 0
25 -8 16 -14 17 -14 16 6 0 12 6 24 14 26 13 4 13 3 0 -6 -29 -20 10 -25 98
-11 1 0 2 8 3 18 0 11 2 12 6 4 3 -7 -1 -20 -9 -29 -12 -15 -11 -15 10 -4 12
7 33 9 45 6 22 -7 22 -7 2 9 -19 15 -19 15 5 10 14 -4 36 -7 50 -8 14 -1 31
-6 39 -10 9 -6 12 -5 8 1 -4 6 0 14 9 17 14 5 14 9 3 23 -10 12 -10 14 -1 9 7
-4 12 -1 12 8 0 9 5 15 11 14 11 -3 13 2 21 42 2 8 7 20 11 27 4 6 4 13 0 16
-5 2 -3 2 4 1 6 -2 13 2 16 9 2 6 6 3 10 -7 5 -11 3 -15 -5 -10 -7 4 -8 3 -4
-4 15 -24 28 -12 22 21 -5 28 -5 29 4 8 8 -18 13 -21 24 -12 11 9 16 9 22 0 4
-8 3 -9 -4 -5 -8 5 -10 1 -5 -9 4 -13 8 -14 14 -4 4 7 5 17 3 21 -3 4 2 8 11
8 9 0 14 -4 11 -8 -3 -5 2 -9 10 -9 8 0 13 6 10 13 -3 9 1 11 11 7 12 -5 14
-3 8 8 -5 8 4 3 18 -10 15 -14 27 -19 27 -13 0 7 7 12 15 12 8 0 15 6 15 13 0
8 3 7 9 -3 6 -8 7 -18 4 -24 -3 -5 -1 -6 5 -2 6 4 9 13 5 21 -3 8 0 15 6 15 6
0 11 -8 12 -17 0 -16 1 -16 8 1 7 18 8 18 14 3 3 -9 12 -17 19 -17 8 0 9 3 3
8 -5 4 -11 13 -13 21 -3 12 0 12 12 2 8 -7 21 -9 27 -5 7 4 9 3 6 -2 -3 -6 4
-16 16 -24 20 -12 21 -12 8 4 -12 14 -12 19 -1 29 8 8 11 8 7 1 -4 -7 0 -17 8
-24 12 -10 15 -10 15 3 0 9 5 19 12 23 7 4 8 3 4 -4 -11 -19 3 -34 22 -23 11
6 24 4 41 -8 14 -9 22 -11 18 -3 -5 7 -3 12 7 12 9 0 16 6 16 13 0 6 5 4 11
-6 8 -14 14 -16 25 -6 8 6 17 9 21 5 3 -3 1 -6 -5 -6 -7 0 -12 -5 -12 -11 0
-5 4 -8 9 -4 5 3 17 -2 25 -11 9 -8 16 -11 16 -5 0 6 5 11 11 11 5 0 8 -4 5
-9 -8 -13 18 -21 49 -15 15 3 24 1 21 -4 -6 -10 99 -10 109 0 9 8 33 -13 30
-27 -1 -5 0 -6 3 -2 2 4 10 3 18 -4 12 -9 13 -9 9 4 -4 8 -1 18 6 23 8 4 10 3
5 -4 -4 -7 -2 -12 4 -12 6 0 8 -6 4 -12 -4 -8 -3 -10 2 -5 5 5 10 13 10 18 1
5 2 14 3 19 0 6 6 10 12 10 8 0 8 -5 -1 -15 -9 -11 -9 -15 -1 -15 7 0 10 -4 6
-9 -3 -5 -1 -12 4 -16 6 -3 8 3 6 14 -4 19 17 23 32 6 4 -4 3 -5 -3 -2 -6 3
-11 0 -11 -7 0 -7 6 -13 13 -13 8 0 11 11 8 31 l-4 31 19 -31 c10 -17 26 -31
35 -31 12 0 13 4 5 14 -6 7 -16 10 -23 6 -6 -3 -8 -3 -4 2 4 4 3 14 -3 22 -9
9 -8 13 0 13 6 0 11 -5 11 -11 0 -5 4 -8 9 -5 5 3 14 -1 21 -9 7 -8 9 -15 5
-15 -4 0 -1 -8 6 -17 8 -10 9 -14 2 -10 -6 4 -14 3 -18 -3 -3 -5 -1 -10 6 -10
10 0 10 -3 1 -12 -7 -7 -12 -17 -12 -22 0 -6 5 -4 10 4 10 15 15 -10 10 -53
-1 -10 4 -25 11 -33 10 -12 9 -13 -4 -8 -23 8 -10 -36 17 -59 l21 -18 -25 12
c-14 6 -22 8 -18 4 4 -5 3 -14 -4 -22 -9 -11 -8 -13 3 -11 9 2 15 -7 17 -26 3
-28 2 -29 -14 -15 -10 8 -15 9 -11 2 4 -6 4 -13 0 -16 -5 -2 -3 -3 4 -1 22 5
23 -10 2 -21 -19 -11 -19 -13 -5 -18 10 -4 15 -3 11 3 -3 6 -2 10 4 10 5 0 11
-3 14 -7 2 -5 2 -2 0 5 -1 7 2 10 8 7 5 -4 7 -15 4 -26 -5 -15 -3 -18 12 -13
14 5 15 4 4 -4 -22 -15 -23 -45 -3 -38 15 5 15 5 1 -6 -9 -7 -14 -20 -12 -28
3 -10 0 -9 -7 3 -9 14 -15 15 -33 5 -19 -10 -20 -9 -10 4 7 8 10 18 6 22 -4 4
1 4 12 0 18 -6 18 -5 -3 15 -12 13 -19 27 -15 34 4 7 -1 6 -11 -2 -12 -10 -14
-17 -6 -25 15 -15 12 -30 -3 -18 -10 9 -13 0 -12 -42 0 -43 -2 -52 -14 -48
-10 4 -12 1 -6 -7 4 -8 2 -17 -6 -23 -11 -8 -11 -9 2 -5 17 6 39 -10 39 -27 0
-5 -7 -1 -15 10 -11 14 -14 15 -14 4 0 -16 22 -50 33 -50 4 0 4 4 1 10 -3 6 1
7 10 4 18 -7 18 -7 -14 -24 -13 -6 -21 -8 -17 -2 3 5 -1 12 -8 15 -11 4 -13 0
-11 -15 3 -11 1 -18 -2 -14 -17 16 -13 48 4 42 13 -5 15 -4 7 4 -17 17 -43 2
-36 -22 4 -16 2 -19 -9 -13 -11 7 -11 5 1 -10 8 -10 10 -16 3 -12 -6 4 -14 3
-18 -3 -3 -5 -1 -10 5 -10 6 0 8 -5 5 -10 -4 -6 -10 -8 -14 -6 -9 6 -7 -31 2
-40 4 -4 -1 -13 -11 -20 -16 -13 -16 -13 1 -14 11 0 15 -5 11 -11 -3 -6 0 -16
7 -21 11 -8 10 -9 -3 -4 -10 3 -18 1 -18 -5 0 -6 -5 -7 -12 -3 -6 4 -8 3 -4
-4 3 -5 0 -13 -6 -15 -10 -4 -10 -6 0 -6 7 -1 10 -5 7 -11 -3 -5 -1 -19 5 -30
9 -16 8 -18 -5 -14 -8 3 -13 9 -10 14 2 4 -1 15 -8 24 -11 15 -13 13 -12 -16
1 -19 -6 -39 -14 -46 -9 -8 -10 -11 -3 -7 7 4 12 0 12 -9 0 -9 -4 -16 -9 -16
-5 0 -11 -15 -13 -34 -2 -19 0 -32 4 -30 15 10 8 -9 -9 -23 -10 -8 -13 -12 -6
-9 6 4 14 2 18 -4 3 -5 0 -10 -7 -10 -10 0 -9 -3 2 -10 12 -8 12 -10 -3 -16
-9 -3 -17 -10 -17 -16 0 -5 4 -7 9 -3 5 3 13 1 16 -5 4 -6 1 -9 -6 -8 -7 2
-13 -3 -14 -10 0 -7 -7 -17 -15 -23 -11 -8 -9 -9 10 -4 l25 7 -24 -17 c-15
-12 -19 -20 -11 -25 8 -5 7 -17 -6 -43 -10 -20 -21 -34 -26 -31 -4 3 -5 -3 -1
-12 4 -12 3 -15 -5 -10 -8 5 -10 1 -5 -10 5 -13 3 -15 -8 -9 -8 4 -11 5 -7 1
4 -5 3 -19 -3 -33 -5 -14 -5 -22 0 -19 5 4 7 -3 4 -14 -3 -11 -10 -20 -15 -20
-5 0 -6 5 -2 12 4 7 3 8 -5 4 -9 -6 -9 -11 -1 -21 8 -9 8 -15 0 -20 -5 -3 -10
-11 -10 -16 0 -6 5 -7 12 -3 7 4 8 3 4 -4 -4 -7 -14 -12 -21 -12 -9 0 -12 -6
-8 -17 4 -11 3 -14 -5 -9 -8 5 -10 1 -5 -10 5 -13 3 -15 -8 -9 -11 7 -11 5 1
-10 14 -17 13 -18 -2 -12 -10 3 -20 2 -23 -3 -3 -4 0 -10 6 -12 8 -3 6 -10 -5
-21 -10 -9 -22 -15 -27 -11 -5 3 -8 2 -7 -3 4 -16 -23 -53 -35 -48 -7 4 -3 -1
8 -11 16 -14 17 -16 3 -11 -12 4 -21 -1 -28 -14 -6 -11 -15 -17 -19 -15 -4 3
-6 -6 -3 -21 4 -22 2 -25 -12 -20 -9 4 -15 3 -12 -2 3 -5 -1 -14 -9 -21 -11
-9 -12 -16 -5 -25 7 -9 6 -16 -5 -25 -9 -7 -14 -19 -11 -26 3 -8 0 -13 -7 -11
-7 1 -11 -3 -10 -10 2 -8 -4 -10 -14 -6 -11 4 -14 3 -9 -5 4 -7 2 -12 -5 -12
-8 0 -7 -5 2 -17 13 -15 12 -15 -9 -4 -22 12 -23 11 -13 -8 8 -13 8 -22 1 -26
-6 -4 -7 -11 -4 -17 4 -7 2 -8 -4 -4 -6 3 -16 -3 -22 -14 -6 -11 -19 -20 -28
-20 -11 0 -18 -8 -19 -20 -1 -11 3 -20 9 -20 6 0 8 -3 5 -6 -4 -4 -14 -1 -24
7 -11 9 -14 10 -9 2 4 -8 2 -13 -5 -13 -9 0 -9 -3 0 -14 10 -12 8 -13 -8 -9
-12 3 -31 -4 -48 -18 -15 -12 -20 -19 -11 -16 10 3 20 2 23 -3 5 -9 -19 -15
-28 -7 -10 7 -35 -27 -30 -40 5 -12 3 -14 -7 -8 -10 6 -12 4 -7 -8 3 -9 3 -16
-1 -15 -12 3 -62 -25 -62 -34 0 -5 -7 -2 -16 6 -8 9 -20 14 -25 11 -5 -4 -9 0
-9 7 0 10 -3 9 -10 -2 -5 -8 -12 -11 -16 -7 -4 3 -1 14 7 24 12 15 11 15 -13
-1 -16 -10 -28 -15 -28 -10 0 4 -5 3 -11 -3 -6 -6 -18 -9 -25 -6 -18 7 -18 20
1 20 8 0 11 -5 8 -11 -3 -6 -2 -7 2 -3 12 11 15 37 4 37 -5 0 -9 -5 -9 -11 0
-5 -5 -7 -10 -4 -6 4 -8 10 -5 15 5 8 -45 3 -54 -6 -4 -4 26 -8 42 -5 5 1 6
-3 2 -8 -3 -6 -13 -8 -23 -5 -14 5 -14 3 2 -10 11 -9 16 -16 11 -16 -5 0 -20
10 -34 23 -19 16 -22 17 -11 3 14 -18 13 -19 -9 -13 -18 4 -21 3 -12 -6 13
-13 15 -31 2 -23 -4 3 -6 -7 -3 -22 5 -25 4 -26 -13 -12 -17 14 -17 14 -4 -7
7 -13 20 -22 29 -20 8 1 15 -3 15 -10 0 -6 4 -15 8 -20 5 -4 7 -2 5 6 -2 7 3
16 11 19 9 3 11 0 6 -8 -5 -9 -4 -11 4 -6 6 4 9 11 6 16 -3 5 -1 12 5 15 8 5
7 11 -1 21 -9 11 -8 15 5 20 9 3 13 10 10 15 -3 5 3 6 12 2 11 -4 13 -8 6 -11
-7 -2 -10 -8 -7 -13 4 -5 -2 -6 -11 -2 -13 5 -15 3 -8 -8 4 -8 7 -22 6 -31 -5
-29 8 -21 23 14 8 19 14 26 15 16 0 -21 20 -24 20 -4 0 8 -4 18 -10 21 -15 9
-12 22 6 29 10 4 13 2 8 -6 -5 -7 -3 -8 6 -3 9 5 11 4 6 -4 -9 -14 16 -11 26
4 4 6 8 2 8 -9 0 -13 -5 -16 -16 -12 -12 5 -15 2 -10 -9 3 -9 2 -14 -3 -11
-14 9 -23 -25 -10 -40 9 -11 9 -14 0 -14 -7 0 -10 -4 -6 -9 3 -6 -3 -14 -12
-20 -10 -6 -12 -11 -5 -11 6 0 12 -7 12 -16 0 -9 -5 -12 -12 -8 -7 4 -5 -2 5
-13 14 -16 15 -23 6 -29 -8 -4 -10 -3 -5 4 4 7 3 12 -3 12 -5 0 -13 -9 -16
-20 -4 -12 -11 -17 -18 -14 -8 5 -8 2 1 -7 14 -16 16 -33 2 -24 -9 6 -14 -8
-11 -28 1 -5 -4 -5 -11 -1 -23 14 -40 14 -29 0 6 -7 8 -16 4 -20 -4 -4 -1 -5
7 -3 8 2 12 2 7 0 -4 -3 -5 -9 -2 -14 4 -5 -1 -6 -9 -3 -9 3 -16 11 -16 17 0
6 -3 7 -6 4 -4 -4 -2 -13 5 -20 15 -18 -11 -42 -35 -33 -15 6 -15 4 -1 -17 14
-21 13 -23 -6 -25 -17 -1 -19 1 -7 8 12 8 11 10 -6 10 -11 0 -29 -7 -40 -16
-18 -14 -18 -15 6 -4 24 11 24 10 5 -5 -11 -8 -25 -13 -31 -11 -9 3 -11 -4 -8
-22 3 -19 2 -23 -5 -13 -5 7 -14 10 -21 6 -9 -6 -9 -10 1 -17 10 -7 9 -8 -5
-4 -18 6 -54 -29 -48 -47 1 -4 -5 -10 -13 -13 -18 -7 -20 -25 -2 -21 7 1 12
-8 11 -20 0 -16 5 -23 17 -23 10 0 21 -5 24 -10 4 -6 11 -7 17 -4 7 5 8 2 3
-6 -5 -8 -3 -11 5 -8 7 2 15 15 17 28 4 29 13 40 13 16 0 -9 4 -15 10 -11 5 3
6 13 3 23 -4 13 -2 13 10 -3 8 -11 19 -16 23 -12 5 4 2 12 -6 17 -8 5 -12 11
-9 14 6 6 59 -38 59 -49 0 -4 -6 -3 -12 3 -11 8 -36 9 -68 3 -3 -1 1 -5 9 -10
9 -6 10 -14 3 -27 -11 -22 8 -59 24 -46 5 4 0 -4 -11 -18 -27 -33 -36 -39 -52
-33 -9 4 -11 0 -7 -11 3 -8 11 -14 16 -13 6 1 13 -5 15 -13 3 -10 2 -11 -4 -4
-4 6 -16 10 -26 8 -9 -1 -14 2 -11 7 3 6 1 15 -4 22 -5 7 -8 20 -7 29 2 10 -1
20 -6 24 -5 3 -9 -2 -9 -10 0 -19 -16 -21 -26 -3 -4 6 -4 9 1 5 5 -5 14 1 22
11 13 19 53 25 53 9 0 -4 4 -8 9 -8 6 0 9 9 8 20 -1 13 -6 19 -16 15 -8 -3
-24 3 -35 14 -12 10 -30 21 -41 23 -15 3 -19 10 -17 28 2 14 0 22 -4 17 -4 -4
-19 3 -33 15 -15 14 -20 16 -12 5 13 -16 12 -18 -12 -13 -15 2 -26 2 -26 -2 3
-22 -2 -42 -12 -42 -5 0 -7 5 -4 10 4 6 -5 5 -19 -2 -14 -6 -26 -18 -26 -27
-1 -13 -4 -12 -17 4 -13 16 -15 17 -10 3 6 -17 -9 -24 -38 -18 -5 1 -7 -2 -3
-6 4 -4 3 -13 -3 -21 -9 -10 -8 -17 2 -30 10 -11 10 -14 2 -9 -7 4 -13 2 -13
-3 0 -6 5 -11 12 -11 6 0 9 -3 6 -6 -4 -3 -15 -1 -27 5 -11 6 -22 7 -25 2 -8
-12 38 -30 55 -21 11 6 15 3 15 -10 0 -13 -4 -16 -12 -10 -11 10 -24 3 -24
-12 0 -5 5 -6 12 -2 7 4 8 3 4 -5 -4 -6 -11 -9 -16 -6 -4 3 -11 -2 -14 -11 -3
-8 -11 -12 -16 -9 -6 4 -10 3 -9 -2 1 -4 1 -14 0 -22 -2 -24 -15 -2 -16 27 -2
39 -15 73 -26 66 -5 -3 -6 -11 -2 -17 5 -8 2 -8 -9 0 -8 7 -19 9 -23 5 -5 -4
-5 -1 -1 6 4 7 12 9 18 6 7 -5 8 -2 3 6 -6 9 -4 11 5 5 9 -6 11 -4 5 5 -6 9
-4 11 5 5 8 -5 11 -4 7 2 -3 5 1 10 9 10 9 0 11 -4 5 -10 -11 -11 8 -59 20
-51 5 3 5 13 -1 23 -5 10 -7 21 -4 24 3 3 1 14 -5 24 -6 11 -11 13 -11 5 0 -7
-4 -10 -10 -7 -5 3 -19 -5 -31 -19 -12 -14 -29 -23 -40 -21 -13 3 -16 -1 -12
-13 3 -9 3 -14 -2 -10 -4 4 -14 3 -22 -3 -7 -6 -13 -8 -13 -3 0 5 -7 -2 -16
-14 -13 -19 -19 -21 -30 -11 -9 7 -14 8 -13 3 5 -26 -1 -39 -11 -24 -7 11 -9
10 -7 -9 1 -22 2 -22 17 -4 22 25 34 25 50 0 12 -20 11 -21 -2 -9 -9 7 -23 10
-32 6 -21 -8 -10 -25 12 -18 14 5 14 4 2 -4 -10 -8 -19 -7 -29 1 -12 10 -14 9
-8 -6 4 -10 3 -16 -2 -12 -5 3 -11 0 -13 -7 -3 -7 -9 -8 -19 -3 -24 16 -38 14
-44 -6 -5 -15 -10 -17 -20 -9 -10 8 -15 8 -21 -1 -4 -7 -3 -10 2 -7 5 3 15 -1
23 -9 11 -13 10 -14 -10 -11 -13 2 -26 6 -29 10 -3 4 -11 -2 -19 -13 -7 -12
-8 -18 -2 -14 6 3 11 -1 11 -9 0 -8 -5 -18 -12 -22 -7 -4 -8 -3 -4 4 4 8 2 10
-8 6 -8 -3 -17 -17 -20 -30 -4 -16 -11 -22 -19 -18 -9 5 -9 4 0 -6 10 -11 9
-18 -4 -34 -10 -12 -11 -15 -3 -9 18 17 38 17 22 1 -18 -18 -15 -28 11 -29 21
-1 21 -1 -3 -9 -16 -5 -19 -8 -8 -9 10 -1 15 -7 12 -15 -4 -10 2 -12 20 -9 21
4 24 2 19 -16 -3 -12 -1 -21 6 -21 5 0 8 6 5 14 -3 8 0 17 7 22 8 4 10 3 5 -4
-6 -11 0 -14 20 -11 4 0 10 -5 14 -11 5 -8 9 -7 13 5 4 9 3 14 -1 11 -4 -2
-14 0 -22 6 -13 8 -12 9 1 5 9 -3 21 -1 27 5 6 6 9 0 7 -21 -1 -17 1 -28 6
-25 5 3 7 9 4 14 -3 4 6 7 20 6 14 0 25 -4 25 -8 0 -5 5 -8 11 -8 8 0 8 5 -1
15 -7 8 -19 14 -28 13 -8 -2 -17 4 -19 12 -3 9 -1 11 4 5 4 -5 18 -11 31 -12
20 -3 22 -1 11 20 -12 22 -12 22 8 2 14 -14 17 -23 9 -28 -7 -6 -4 -7 7 -3 10
3 20 6 23 6 2 0 1 8 -3 18 -5 14 -3 13 10 -3 21 -25 21 -39 2 -32 -8 4 -17 1
-21 -5 -4 -7 -3 -8 4 -4 7 4 12 2 12 -4 0 -6 5 -8 10 -5 6 3 10 1 10 -4 0 -6
-4 -11 -10 -11 -5 0 -10 -5 -10 -10 0 -7 7 -7 23 0 21 11 21 10 3 -4 -20 -16
-20 -16 0 -32 10 -8 14 -13 8 -10 -7 3 -14 -3 -17 -14 -3 -12 -1 -18 5 -14 6
4 8 -4 7 -17 -4 -28 8 -52 22 -44 8 6 13 -8 10 -28 -1 -4 8 -3 19 3 22 12 22
11 24 -22 0 -13 8 -23 16 -24 8 -1 25 -2 38 -2 12 -1 22 -8 22 -16 0 -8 4 -17
9 -20 5 -4 7 4 5 16 -2 13 -2 17 2 11 4 -10 12 -9 34 2 15 8 30 11 34 8 3 -4
6 0 6 7 0 7 3 10 6 7 11 -10 -16 -36 -31 -31 -17 7 -29 -12 -14 -22 8 -5 9 -3
4 6 -6 10 -4 12 7 7 9 -3 26 2 39 11 22 15 23 15 11 0 -11 -14 -10 -18 5 -27
11 -6 13 -11 5 -11 -7 0 -10 -5 -6 -12 4 -6 3 -8 -4 -4 -18 11 -55 -49 -38
-63 7 -6 15 -9 18 -6 2 3 5 -2 5 -10 0 -11 -4 -12 -11 -5 -5 5 -14 10 -19 10
-5 0 -1 -7 7 -16 9 -8 14 -19 11 -23 -2 -5 6 -7 18 -7 12 1 29 -3 37 -8 13
-10 13 -9 2 6 -8 9 -21 14 -30 12 -14 -5 -14 -4 1 6 14 9 22 9 34 -2 14 -11
16 -11 8 1 -6 11 -4 13 8 8 11 -4 14 -2 11 8 -3 8 -13 11 -22 8 -9 -4 -14 -3
-11 1 4 4 19 9 35 12 38 8 58 12 64 14 3 1 9 2 13 1 5 -1 6 3 2 9 -5 9 18 15
29 8 2 -2 13 5 23 15 11 9 23 15 26 12 4 -3 5 -2 2 2 -3 3 3 12 13 20 9 8 11
11 3 7 -10 -5 -12 -3 -7 7 4 8 -2 2 -14 -14 -12 -15 -26 -25 -30 -22 -5 3 -11
1 -15 -5 -8 -13 -25 -13 -25 1 0 5 3 8 8 5 9 -5 48 22 45 32 -2 4 2 8 7 8 23
3 24 5 10 14 -11 7 -11 10 -2 10 7 0 17 10 22 23 5 13 9 16 9 7 1 -9 -5 -22
-11 -29 -11 -11 -8 -12 12 -6 20 5 22 4 10 -5 -13 -9 -12 -13 7 -29 30 -25 66
-17 58 13 -5 18 -3 17 9 -4 8 -14 12 -29 9 -34 -4 -5 0 -6 7 -1 8 5 11 4 7 -2
-3 -5 0 -10 8 -10 13 0 13 3 1 16 -15 17 -19 71 -5 71 5 0 6 8 3 18 -4 10 -2
13 3 7 7 -10 19 -11 41 -6 4 1 -3 6 -15 11 -13 5 -23 15 -23 22 0 9 3 10 8 2
10 -16 59 -23 59 -9 0 7 -11 11 -24 9 -13 -1 -21 2 -18 6 3 5 11 7 18 4 7 -2
21 2 32 11 20 15 20 15 0 8 -21 -7 -20 -5 7 15 12 10 18 10 24 1 4 -8 3 -9 -4
-5 -8 5 -10 1 -5 -9 4 -13 8 -14 14 -4 4 7 3 22 -3 33 -10 20 -10 20 7 6 17
-14 18 -13 12 4 -5 14 -3 17 8 13 18 -7 30 9 14 19 -8 5 -9 3 -4 -6 5 -9 4
-11 -3 -6 -8 5 -9 13 -3 24 6 11 5 24 -1 36 -9 16 -8 17 11 6 12 -6 27 -8 34
-5 6 4 2 -2 -11 -12 -22 -18 -22 -20 -7 -33 9 -7 15 -9 14 -4 -4 21 2 35 11
29 6 -4 10 -3 9 2 -1 4 0 11 1 16 7 20 4 33 -10 45 -13 11 -13 12 0 10 8 -2
20 -12 27 -23 11 -19 12 -19 18 7 4 16 4 35 1 44 -5 14 -4 15 8 5 11 -9 16 -9
22 0 4 7 3 9 -3 6 -6 -4 -13 -1 -16 7 -4 9 2 12 19 10 13 -1 22 2 18 7 -3 5
-9 7 -13 5 -4 -3 -8 2 -8 10 0 8 6 13 14 10 8 -3 13 2 13 14 0 11 -5 20 -11
20 -5 0 -7 -5 -3 -12 4 -7 3 -8 -5 -4 -17 11 -2 28 20 21 14 -5 17 -3 13 9 -3
9 -11 13 -17 9 -5 -3 -7 -1 -4 5 4 5 16 8 27 5 18 -5 25 4 21 29 0 4 5 5 13 2
8 -3 17 0 22 7 4 7 3 10 -4 5 -12 -7 -10 20 3 31 4 4 5 2 1 -4 -4 -7 -2 -13 3
-13 15 0 14 27 -1 33 -7 3 2 4 20 2 18 -2 30 0 27 5 -3 5 2 15 10 24 8 8 15
19 14 23 -4 21 2 33 13 27 7 -4 8 -3 4 4 -4 8 0 12 11 12 15 0 16 2 3 10 -12
8 -12 10 -1 10 8 0 20 8 28 18 10 11 12 12 8 2 -4 -8 2 -5 13 7 11 12 23 19
27 15 5 -4 5 -1 1 6 -6 10 -11 10 -22 1 -8 -6 -16 -10 -18 -8 -2 2 7 12 20 22
13 10 24 13 24 7 0 -6 5 -8 12 -4 8 5 6 11 -6 19 -15 11 -15 13 -1 19 9 3 13
2 10 -4 -3 -6 -1 -10 4 -10 10 0 15 13 13 32 -1 3 5 9 14 12 8 3 13 2 10 -2
-3 -5 1 -9 9 -9 11 0 12 5 3 21 -10 19 -10 20 6 7 15 -12 17 -12 14 0 -2 8 -7
18 -13 22 -5 5 1 5 14 2 14 -5 21 -3 17 3 -3 5 2 16 11 23 11 10 14 10 9 2 -5
-9 -2 -11 9 -7 11 5 13 10 5 19 -8 10 -3 18 20 35 26 19 29 19 23 3 -3 -10 -2
-15 2 -10 5 4 9 17 10 30 2 12 8 21 14 20 6 -2 11 2 11 8 0 5 4 8 9 4 5 -3 13
0 17 6 4 8 3 9 -4 5 -7 -4 -12 -2 -12 4 0 7 9 14 19 17 11 3 17 11 15 18 -3 7
0 16 5 20 6 3 8 12 4 18 -5 8 -2 8 9 -1 28 -23 60 37 35 67 -10 12 -9 13 3 6
20 -13 40 -15 37 -5 -1 5 7 16 18 25 11 9 14 14 8 10 -8 -4 -11 -1 -7 9 3 9
11 14 17 13 7 -1 11 4 10 11 -2 6 5 12 15 12 14 0 15 2 2 10 -13 8 -13 10 2
10 11 0 15 5 12 14 -3 8 0 17 7 22 8 5 10 3 4 -6 -5 -9 -4 -11 4 -6 6 4 10 15
9 24 -2 9 2 16 9 15 8 -2 10 4 6 14 -4 11 -3 14 5 9 7 -4 12 -1 12 7 0 8 10
21 22 29 17 11 19 16 8 23 -9 6 -11 4 -5 -5 5 -9 4 -11 -4 -6 -16 10 5 37 23
30 7 -3 12 5 13 18 1 12 9 28 17 34 12 8 13 13 3 24 -10 10 -7 10 13 0 14 -7
22 -9 18 -5 -4 5 -2 15 5 23 6 9 7 13 1 9 -6 -3 -11 0 -11 7 0 8 8 12 21 9 15
-3 17 -2 8 5 -10 7 -9 12 4 23 15 12 17 12 9 0 -5 -10 -4 -12 4 -7 6 4 9 12 6
17 -4 5 -2 9 3 9 6 0 13 7 16 16 5 13 4 14 -7 6 -10 -9 -14 -8 -14 3 0 8 4 12
8 9 9 -5 59 42 60 59 1 7 1 16 0 21 -1 5 5 4 13 -3 12 -10 14 -9 9 8 -3 12
-10 18 -16 14 -6 -3 -7 -1 -3 6 6 9 11 9 22 0 11 -9 14 -9 14 0 0 7 5 9 12 5
7 -4 8 -3 4 5 -4 6 -11 9 -15 7 -4 -3 -8 1 -8 8 0 9 7 12 15 8 11 -4 14 -1 9
12 -4 10 -3 15 3 11 6 -3 10 -1 10 5 0 6 5 8 10 5 6 -4 10 -3 9 2 -2 9 8 39
21 63 4 8 15 14 24 14 16 -2 16 0 1 23 l-16 24 28 -17 c15 -10 23 -12 16 -4
-10 11 -8 16 10 25 13 6 21 18 19 29 -2 10 1 15 6 12 6 -3 13 1 16 10 4 10 2
13 -6 8 -7 -5 -8 -3 -4 5 5 7 14 10 22 7 8 -3 13 -2 13 2 -4 27 3 44 16 38 8
-3 14 0 12 7 -1 7 4 11 11 9 8 -1 11 2 7 8 -3 6 -11 7 -17 4 -7 -4 -8 -2 -4 4
4 7 13 12 21 12 8 0 17 5 21 12 4 6 3 8 -3 5 -5 -3 -10 0 -10 7 0 8 7 12 15 8
10 -3 13 -1 8 6 -4 8 0 12 11 12 15 0 16 2 3 11 -12 8 -8 9 15 6 26 -4 27 -3
12 8 -21 15 -22 26 -2 19 11 -5 13 -2 8 12 -4 12 -3 15 5 10 7 -4 12 -1 12 9
0 9 4 14 9 10 6 -3 8 3 6 14 -2 14 1 18 11 14 9 -3 14 2 14 15 0 39 11 54 28
40 10 -8 13 -9 9 -1 -4 6 0 19 9 27 8 9 11 16 5 16 -6 0 -11 4 -11 10 0 5 7 7
15 3 9 -3 15 -2 14 3 -4 22 2 34 19 34 14 0 15 2 2 9 -8 6 -18 7 -24 4 -5 -3
-6 -1 -2 5 4 6 14 8 23 5 13 -5 15 -2 10 16 -5 19 -3 21 11 9 9 -7 14 -8 9 -3
-4 4 0 17 10 27 9 11 11 18 5 18 -7 0 -12 -5 -12 -12 0 -6 -2 -9 -5 -6 -9 8 6
38 16 32 5 -3 9 4 9 14 0 11 6 25 14 31 7 6 12 22 10 36 -1 17 4 29 18 36 15
8 17 14 8 24 -8 10 -8 15 1 21 8 4 9 3 5 -4 -4 -7 -2 -12 3 -12 11 0 14 12 12
45 -2 17 0 17 8 5 11 -15 16 -4 12 23 0 4 6 7 14 7 8 0 15 5 15 11 0 5 -4 8
-8 5 -5 -3 -9 1 -9 9 0 8 4 12 9 9 4 -3 8 2 8 10 0 9 5 16 10 16 6 0 10 5 10
11 0 5 -5 7 -11 3 -7 -4 -6 3 2 17 7 13 12 28 11 33 -2 5 5 3 14 -5 14 -11 16
-11 10 0 -5 8 -3 17 5 23 11 8 10 9 -3 4 -12 -3 -15 -1 -11 10 3 7 10 14 15
14 6 0 8 6 5 13 -5 12 17 40 25 31 3 -2 5 2 5 10 0 8 -7 12 -16 9 -9 -2 -5 3
9 11 16 10 19 15 10 16 -10 0 -11 3 -4 8 6 4 10 15 8 24 -1 10 3 21 8 25 7 3
8 1 4 -5 -4 -7 -2 -12 3 -12 14 0 14 6 1 31 -8 14 -8 19 1 17 6 -2 14 3 17 11
3 9 0 11 -9 6 -8 -5 -6 1 4 13 12 12 16 26 11 34 -6 10 -5 11 7 1 12 -10 15
-8 15 7 0 10 -4 16 -8 14 -6 -4 -3 36 4 41 2 1 12 8 23 14 19 12 19 12 -2 8
-21 -5 -22 -4 -5 21 21 32 24 53 9 71 -10 12 -9 13 2 6 11 -6 13 -4 8 8 -3 9
-2 19 2 21 5 3 7 19 5 36 -2 17 0 29 4 26 5 -3 6 9 4 26 -3 18 -1 28 5 25 5
-3 10 0 10 8 0 8 -5 11 -10 8 -6 -4 -7 -1 -1 8 14 23 15 52 2 61 -10 6 -10 8
0 8 8 0 10 5 6 13 -5 7 0 6 11 -3 17 -14 18 -14 7 6 -8 16 -8 24 1 33 9 9 8
14 -3 21 -9 6 -10 10 -3 10 7 0 10 10 7 26 -3 17 -1 23 7 19 8 -5 8 -1 -1 15
-8 15 -9 25 -2 32 6 6 8 17 5 26 -5 11 -2 13 6 7 11 -6 11 -3 0 16 -7 13 -12
24 -12 24 0 0 5 10 12 23 8 15 8 22 1 22 -7 0 -8 5 -3 13 4 6 6 20 4 31 -2 12
1 16 9 11 9 -6 9 -2 1 12 -6 11 -7 23 -3 27 3 4 0 11 -8 16 -13 8 -12 10 3 10
14 0 16 4 7 19 -7 14 -7 22 2 27 7 5 8 3 3 -6 -5 -8 -4 -11 3 -6 6 4 9 13 6
21 -4 8 -11 12 -16 9 -6 -4 -6 1 1 13 7 14 7 24 -2 33 -9 10 -9 11 0 6 6 -3
14 -2 18 4 3 5 2 10 -4 10 -10 0 -7 32 5 52 5 7 3 8 -5 3 -9 -5 -12 -1 -11 11
4 32 0 45 -9 40 -5 -4 -7 3 -4 14 3 12 0 20 -8 20 -8 0 -6 5 5 13 17 12 17 14
-1 28 -17 13 -17 13 -3 -6 14 -19 14 -19 -2 -6 -10 7 -15 18 -11 25 4 6 6 19
4 30 -2 12 1 16 10 11 8 -5 10 -4 5 4 -4 6 -10 9 -14 7 -4 -2 -14 3 -22 12
-13 14 -13 15 1 10 9 -4 16 -1 16 7 0 7 -6 11 -12 9 -6 -3 -12 2 -12 11 0 8 5
15 11 15 7 0 7 3 1 8 -5 4 -16 15 -24 25 -12 16 -12 17 5 10 17 -6 17 -5 5 10
-7 9 -10 17 -5 17 4 0 -1 7 -12 16 -19 15 -19 16 0 9 19 -6 19 -5 1 15 -10 11
-14 20 -9 20 5 0 2 5 -6 10 -8 5 -10 10 -5 10 6 0 11 9 11 19 0 11 -4 17 -8
15 -4 -3 -8 4 -8 16 0 14 -4 19 -12 14 -9 -5 -9 -2 1 9 10 13 10 17 1 17 -9 0
-9 4 1 17 12 14 12 16 0 8 -11 -6 -13 -3 -9 13 4 12 2 20 -3 16 -5 -3 -10 1
-11 8 0 7 -2 18 -3 23 -2 6 -3 16 -4 23 -1 8 -6 10 -13 6 -10 -6 -10 -4 0 8
10 13 10 17 0 21 -10 4 -10 6 0 6 11 1 10 4 -1 16 -9 8 -13 24 -10 35 3 11 0
20 -6 20 -7 0 -11 6 -9 14 2 8 -6 22 -17 31 -11 9 -13 13 -5 9 12 -7 13 -5 3
8 -7 8 -9 19 -5 23 4 5 1 5 -5 1 -9 -5 -13 0 -13 14 0 12 -7 28 -15 37 -14 14
-14 17 2 29 16 13 16 13 1 8 -13 -4 -16 -1 -13 15 2 12 -1 21 -7 21 -5 0 -8 6
-5 14 3 8 -1 17 -9 20 -11 4 -13 13 -9 28 5 18 4 20 -4 8 -10 -15 -13 -11 -15
20 -1 8 -9 14 -18 14 -11 -1 -14 4 -11 14 5 11 3 13 -8 7 -11 -7 -11 -5 1 10
9 11 10 16 2 11 -7 -4 -15 -1 -18 8 -3 9 -11 13 -18 9 -19 -12 -36 -12 -33 0
1 7 -4 11 -11 9 -8 -1 -11 2 -7 8 5 8 13 5 26 -6 18 -16 19 -16 13 -1 -3 9
-11 18 -18 19 -6 0 -16 2 -22 2 -15 2 -48 36 -34 36 6 0 9 4 5 10 -3 5 -12 7
-20 3 -11 -3 -13 -1 -10 10 6 15 -19 47 -37 47 -6 0 -6 6 2 15 15 18 -1 20
-18 3 -11 -11 -17 4 -14 33 1 4 -9 5 -21 3 -12 -2 -16 -1 -9 2 9 4 7 11 -9 25
-12 10 -26 16 -30 13 -5 -3 -9 2 -9 11 0 9 4 13 10 10 6 -3 7 1 3 10 -4 12 -8
13 -13 5 -6 -9 -9 -9 -15 -1 -3 7 -16 9 -28 6 -12 -2 -16 -2 -9 1 6 3 10 10 7
15 -4 5 1 6 9 3 10 -4 16 -1 16 7 0 7 -3 9 -7 6 -3 -4 -12 -2 -19 4 -8 7 -14
6 -20 -2 -4 -8 -3 -9 4 -5 16 10 15 1 -1 -13 -11 -9 -13 -4 -12 24 2 19 -1 32
-6 30 -4 -3 -12 2 -17 11 -6 11 -11 13 -16 5 -4 -6 -12 -11 -18 -11 -6 0 -6 6
2 15 7 9 10 18 6 22 -3 3 -6 0 -6 -7 0 -8 -7 -5 -18 8 -13 15 -22 18 -29 11
-8 -8 -13 -7 -18 2 -5 7 -4 10 1 7 5 -3 15 1 23 10 13 13 11 14 -15 8 -28 -7
-28 -7 -9 8 14 11 15 15 5 14 -9 -2 -14 4 -14 15 2 13 -1 15 -11 7 -10 -8 -15
-8 -21 1 -4 8 -3 9 4 5 7 -4 12 -3 12 2 0 6 -7 13 -16 16 -8 3 -12 2 -9 -4 3
-6 1 -10 -5 -10 -6 0 -13 7 -16 15 -4 8 -14 15 -23 15 -14 0 -14 -2 -1 -10 8
-5 11 -10 5 -10 -5 0 -17 5 -25 10 -10 6 -11 10 -2 10 6 0 12 5 12 11 0 6 -7
8 -16 5 -12 -4 -15 -2 -11 9 7 18 -8 30 -44 34 -5 0 -7 7 -3 14 4 6 4 9 -1 5
-4 -4 -14 -3 -22 4 -10 8 -13 8 -10 -3 2 -8 2 -11 0 -7 -3 5 -13 3 -23 -2 -13
-7 -21 -7 -25 0 -4 6 -3 10 2 9 30 -5 47 21 23 36 -5 3 -7 0 -4 -9 5 -12 -20
-16 -33 -6 -2 2 -6 3 -10 4 -5 1 -14 5 -22 10 -11 7 -13 5 -8 -7 3 -9 2 -19
-2 -21 -5 -3 -7 5 -6 17 3 31 3 31 20 17 12 -10 15 -10 15 4 0 9 -3 15 -7 15
-21 -3 -33 2 -27 13 4 6 3 8 -4 4 -6 -3 -13 -2 -17 3 -6 11 -36 3 -48 -13 -5
-6 -6 -2 -3 9 3 11 1 27 -4 35 -6 10 -10 11 -10 3 0 -7 -7 -13 -16 -13 -8 0
-13 -4 -10 -8 3 -5 -1 -9 -9 -9 -18 0 -20 14 -3 19 6 2 12 12 14 22 2 14 0 15
-13 5 -15 -13 -38 6 -27 23 3 4 0 8 -6 8 -7 0 -10 -6 -7 -13 3 -8 -1 -14 -9
-14 -8 0 -13 6 -10 14 3 7 -1 13 -9 13 -8 0 -15 4 -15 8 0 18 -40 50 -57 46
-10 -3 -27 2 -38 11 -19 16 -19 16 4 5 18 -9 26 -9 35 1 8 9 8 10 -1 5 -16 -9
-44 4 -36 18 4 6 0 6 -9 -2 -13 -10 -17 -10 -22 0 -3 7 -3 3 0 -9 3 -14 1 -23
-6 -23 -6 0 -8 5 -5 10 3 6 -3 10 -14 10 -22 0 -36 16 -22 24 5 4 11 0 14 -6
2 -7 8 -9 13 -5 14 14 -19 27 -35 14 -12 -10 -14 -9 -9 4 4 9 1 16 -7 16 -8 0
-11 -7 -7 -15 4 -12 1 -14 -14 -8 -10 5 -25 9 -31 9 -7 0 -13 5 -13 11 0 6 -5
3 -11 -7 -7 -12 -17 -16 -31 -11 -18 5 -19 4 -7 -9 11 -11 17 -12 28 -3 12 9
12 8 0 -11 -9 -16 -16 -19 -21 -10 -6 9 -10 8 -18 -3 -9 -13 -10 -13 -10 0 0
13 -1 13 -11 0 -9 -13 -10 -13 -6 0 2 8 10 14 16 13 21 -5 11 6 -21 22 -18 9
-27 10 -20 3 17 -17 15 -24 -8 -25 -11 -1 -20 3 -20 8 0 6 4 7 10 4 6 -3 7 1
3 10 -3 11 -8 13 -12 6 -4 -6 -25 -13 -46 -15 -22 -2 -34 -2 -27 1 6 2 12 9
12 14 0 4 -7 5 -17 2 -12 -5 -14 -3 -8 7 5 8 4 11 -3 6 -6 -4 -9 -14 -6 -24 4
-10 3 -13 -3 -6 -4 5 -23 10 -41 9 -18 0 -35 2 -38 6 -2 4 12 6 31 4 28 -1 33
1 24 11 -7 9 -17 11 -28 5 -9 -5 -20 -10 -26 -10 -5 -1 -10 -8 -10 -15 0 -8
-3 -18 -7 -21 -3 -4 -5 5 -4 19 3 26 -4 33 -18 19 -4 -5 -13 -8 -19 -8 -7 0
-12 -5 -12 -12 0 -6 -3 -14 -7 -18 -9 -9 -5 17 5 33 5 7 13 10 18 7 5 -4 9 -2
9 3 0 6 -7 13 -16 16 -8 3 -13 2 -10 -3 3 -5 -1 -12 -10 -15 -8 -3 -13 -2 -10
3 3 5 -1 12 -10 15 -8 3 -13 2 -10 -3 6 -10 -24 -25 -32 -16 -3 3 0 5 6 5 7 0
12 4 12 10 0 5 -6 7 -13 4 -8 -3 -20 2 -27 11 -12 14 -15 14 -33 -2 -11 -10
-17 -12 -13 -5 4 7 1 12 -9 12 -10 0 -14 -5 -9 -12 6 -10 4 -10 -7 0 -7 6 -19
12 -27 12 -8 0 -10 -5 -6 -12 6 -10 4 -10 -8 0 -11 9 -18 10 -23 2 -3 -5 -17
-8 -30 -6 -13 3 -26 0 -29 -5 -2 -5 -3 -4 -1 3 1 7 8 12 14 10 7 -1 10 2 7 6
-3 5 -18 7 -32 4 -21 -4 -25 -2 -20 9 4 8 -2 3 -13 -11 -12 -14 -20 -19 -19
-11 2 7 -3 16 -11 19 -8 2 -11 0 -8 -5 3 -5 -7 -9 -22 -8 -17 0 -27 4 -24 11
5 13 -11 27 -20 18z m423 -780 c-12 -19 -20 -38 -17 -41 3 -3 15 10 26 28 12
20 22 28 22 19 1 -8 3 -19 4 -25 2 -5 3 -14 4 -19 0 -6 7 -1 15 9 12 17 12 21
-2 31 -12 9 -12 13 -2 19 8 5 11 4 6 -3 -3 -6 3 -14 15 -17 19 -6 19 -8 3 -20
-19 -13 -6 -45 18 -45 6 0 5 7 -2 15 -7 9 -10 18 -7 22 4 3 9 -1 12 -9 6 -14
24 -15 90 -6 11 2 20 -1 20 -7 0 -5 4 -16 8 -22 5 -8 4 -13 -3 -13 -6 0 -8 -5
-4 -11 5 -8 13 -4 24 11 13 17 19 20 25 10 5 -8 4 -11 -3 -6 -7 4 -10 -2 -8
-17 3 -32 15 -49 29 -40 7 4 6 0 -2 -10 -15 -19 -26 -23 -15 -5 4 7 3 8 -5 4
-6 -4 -10 -4 -9 1 2 4 -1 9 -5 10 -5 1 -15 10 -23 20 -7 10 -14 13 -14 6 0 -6
5 -15 10 -18 6 -4 7 -11 4 -17 -4 -6 -2 -8 3 -5 6 4 16 0 23 -8 11 -14 15 -14
36 0 13 9 24 11 24 6 0 -5 -6 -11 -12 -14 -7 -2 -10 -8 -6 -12 13 -14 39 17
33 39 -3 12 -2 15 1 9 3 -7 10 -13 15 -13 6 0 8 4 5 9 -8 13 18 21 35 11 7 -5
10 -12 6 -17 -5 -4 -11 -2 -15 4 -6 9 -11 7 -19 -6 -7 -11 -8 -23 -2 -32 7
-12 9 -12 9 1 0 13 2 13 11 0 9 -13 10 -13 6 2 -4 12 0 16 14 15 10 -1 19 -8
19 -17 0 -13 2 -13 10 0 10 16 -7 33 -23 23 -5 -3 -4 4 2 16 10 17 9 21 -3 21
-8 0 -18 4 -21 10 -4 7 3 7 19 0 19 -7 26 -6 26 2 0 6 3 8 6 5 4 -4 1 -13 -6
-22 -7 -9 -9 -19 -5 -23 4 -4 10 -1 12 6 3 6 9 12 15 12 7 0 6 -5 -1 -14 -8
-10 -9 -16 -1 -21 5 -3 10 -12 10 -18 0 -8 -3 -8 -9 1 -6 10 -10 9 -14 -7 -8
-30 24 -62 34 -35 6 14 8 15 8 4 1 -9 -4 -21 -10 -27 -9 -9 -7 -12 8 -10 30 2
59 47 31 47 -7 0 -5 5 5 11 9 6 14 15 11 21 -5 7 -2 8 6 3 9 -6 12 -4 8 7 -4
9 0 15 8 15 8 0 13 -6 10 -13 -3 -7 4 -16 15 -19 15 -5 18 -12 14 -28 -6 -21
-6 -21 9 -3 9 11 18 17 21 14 8 -8 -25 -33 -44 -33 -8 0 -16 -7 -17 -15 0 -9
1 -10 3 -2 3 6 9 12 14 12 6 0 7 -5 4 -10 -3 -6 5 -14 19 -20 29 -11 36 -22 9
-14 -15 5 -15 3 1 -10 15 -12 16 -16 5 -16 -12 0 -12 -2 1 -11 12 -8 9 -9 -10
-5 -14 3 -19 3 -12 0 6 -3 10 -10 7 -15 -4 -5 2 -6 12 -3 14 5 15 4 4 -4 -8
-6 -10 -15 -6 -22 5 -8 4 -11 -3 -6 -6 3 -13 2 -17 -4 -3 -5 -1 -10 4 -10 6 0
11 -5 11 -11 0 -8 -5 -8 -15 1 -18 15 -20 0 -2 -20 10 -12 9 -12 -5 -1 -14 10
-18 9 -27 -6 -6 -10 -11 -13 -11 -6 0 6 5 15 10 18 6 3 10 11 10 17 0 7 -5 6
-14 -1 -12 -10 -20 -9 -40 4 -24 16 -38 34 -16 20 6 -3 10 -2 10 3 0 6 -7 12
-15 16 -8 3 -15 11 -14 18 0 10 2 10 6 1 7 -20 23 -15 23 7 0 13 -5 17 -14 14
-8 -3 -19 3 -25 14 -8 16 -7 19 6 18 9 0 18 4 20 10 2 7 -6 10 -22 8 -22 -2
-24 0 -14 12 7 9 8 14 1 14 -15 0 -20 -22 -11 -47 5 -13 5 -23 1 -23 -4 0 0
-5 8 -11 11 -8 9 -9 -10 -3 -23 6 -24 5 -11 -10 12 -15 12 -17 0 -14 -8 2 -13
-3 -11 -12 2 -8 0 -11 -5 -7 -4 5 -8 12 -8 16 0 4 -9 16 -19 27 -11 10 -23 19
-27 19 -4 0 -11 4 -16 9 -5 5 -3 6 5 2 7 -5 12 -1 12 10 0 12 6 15 21 11 16
-4 19 -3 11 5 -8 8 -18 8 -35 1 -14 -7 -29 -8 -38 -2 -8 5 -9 9 -4 10 27 2 59
10 64 16 3 3 -4 3 -16 0 -18 -4 -23 -1 -23 15 0 10 -5 16 -10 13 -6 -4 -8 -10
-5 -15 3 -5 2 -11 -3 -14 -4 -2 -8 4 -9 14 -2 23 24 34 34 16 7 -12 11 -11 23
2 13 14 12 15 -3 9 -13 -5 -17 -1 -17 14 0 19 -1 19 -16 5 -19 -19 -26 -20
-42 -4 -9 9 -12 7 -12 -9 0 -12 -5 -25 -11 -29 -7 -4 -9 0 -5 14 4 12 2 24 -6
28 -19 12 -38 14 -38 3 0 -6 8 -9 18 -7 11 2 17 -4 18 -17 2 -47 3 -50 16 -37
15 15 28 15 28 0 0 -6 -3 -8 -7 -5 -3 4 -12 2 -19 -4 -8 -7 -14 -7 -19 1 -3 5
-11 10 -17 10 -6 0 -3 -10 8 -22 12 -14 13 -18 3 -10 -9 6 -20 8 -24 4 -5 -4
-5 -2 -2 4 8 14 -20 27 -28 14 -3 -4 0 -10 7 -12 7 -3 5 -7 -6 -11 -9 -4 -15
-3 -12 2 7 11 -18 33 -27 24 -4 -3 -7 -1 -7 5 0 7 4 12 10 12 6 0 9 3 9 8 -1
4 0 9 1 12 9 25 7 41 -6 36 -12 -4 -12 -2 -4 14 13 24 3 25 -30 4 l-25 -16 24
22 c25 21 48 22 43 1 -1 -7 2 -10 7 -6 6 3 8 -3 6 -15 -4 -21 9 -28 20 -10 3
6 2 10 -2 10 -5 0 -9 10 -10 23 -2 21 -1 21 13 3 8 -11 14 -15 14 -9 0 7 -5
15 -10 18 -6 4 -8 10 -6 14 3 4 0 13 -5 21 -8 13 -9 13 -7 0 3 -16 -2 -20 -24
-20 -9 0 -8 3 2 10 8 5 12 12 8 15 -3 4 -16 -3 -27 -14 -12 -12 -21 -19 -21
-17 0 2 -3 12 -7 22 -4 12 -2 15 8 12 18 -7 51 10 44 23 -4 5 -11 9 -16 9 -6
0 -7 -4 -4 -10 3 -5 1 -10 -4 -10 -6 0 -11 5 -11 12 0 6 -13 -1 -30 -17 -30
-29 -43 -58 -16 -36 18 15 34 -5 17 -22 -9 -9 -10 -7 -5 8 7 18 6 18 -9 6 -9
-7 -17 -10 -17 -6 0 5 -2 6 -5 3 -8 -8 6 -39 14 -33 4 2 8 -2 8 -9 0 -7 -6
-13 -13 -13 -7 0 -10 5 -7 10 3 5 0 7 -8 5 -8 -3 -13 -12 -11 -22 2 -9 -2 -16
-8 -16 -6 0 -9 4 -5 9 3 5 1 12 -5 16 -6 4 -8 11 -5 16 4 5 0 12 -9 15 -8 3
-13 14 -11 24 2 10 -3 21 -12 24 -11 5 -12 10 -4 19 8 10 6 19 -5 35 -10 15
-11 22 -3 22 6 0 8 7 5 16 -3 8 -2 12 4 9 5 -3 14 4 20 15 6 11 13 20 16 20 3
0 -4 -16 -16 -36z m-492 -238 c6 -4 12 -13 11 -19 0 -8 -3 -7 -6 2 -4 11 -7
11 -13 1 -5 -8 -1 -20 9 -29 9 -9 11 -12 4 -7 -8 5 -17 6 -21 2 -4 -4 1 -12
11 -17 9 -6 17 -17 17 -26 0 -9 6 -13 15 -9 16 6 34 -20 29 -42 -1 -7 0 -8 3
-2 3 7 10 7 21 -2 10 -8 13 -9 9 -1 -7 11 8 27 28 28 15 2 35 -16 35 -29 -1
-6 -6 -5 -13 4 -17 22 -33 22 -33 0 0 -13 4 -16 12 -9 8 7 13 6 16 -3 4 -10 8
-10 21 1 16 13 25 2 10 -13 -11 -11 -12 -36 -2 -36 6 0 9 7 7 16 -2 10 3 19
11 22 8 3 11 0 7 -6 -3 -6 1 -9 11 -7 10 2 22 4 26 4 5 1 6 5 3 10 -4 5 3 7
14 4 11 -3 20 -10 20 -16 0 -6 7 -2 16 9 8 10 13 14 10 8 -3 -6 1 -20 9 -30
13 -18 14 -18 8 4 -3 13 -1 22 6 22 7 0 9 5 5 13 -6 9 -4 9 7 1 8 -6 26 -10
41 -9 24 2 26 0 17 -17 -17 -32 -2 -32 16 -1 l16 28 -6 -30 c-4 -19 -2 -25 3
-17 10 15 59 14 80 -1 6 -5 12 -6 12 -3 0 4 10 1 23 -6 30 -17 46 -18 54 -6 4
7 1 8 -7 3 -9 -5 -11 -4 -6 4 4 6 13 8 19 4 7 -4 15 -8 20 -9 4 -1 8 -2 10 -4
1 -1 11 -3 21 -5 10 -2 22 -7 25 -12 3 -4 17 -9 31 -11 19 -2 22 0 10 8 -11 7
-11 10 -2 10 20 0 103 -90 95 -103 -4 -7 1 -6 10 2 9 7 15 16 13 20 -3 4 -1
13 5 21 6 11 8 5 5 -19 -3 -24 2 -39 16 -53 21 -21 8 -45 -16 -31 -5 3 -6 1
-2 -6 4 -6 12 -9 17 -6 5 4 9 1 9 -6 0 -6 -8 -9 -19 -6 -14 3 -17 0 -13 -15 3
-15 7 -16 13 -7 4 8 11 10 16 6 4 -5 1 -12 -6 -16 -24 -15 4 -49 36 -44 15 3
38 5 51 5 20 0 21 2 10 17 -12 14 -11 14 4 3 9 -8 22 -11 27 -8 5 4 13 1 17
-5 4 -8 3 -9 -4 -5 -7 4 -12 1 -12 -8 0 -8 3 -16 8 -19 4 -2 1 -2 -5 -1 -13 3
-13 -22 0 -43 12 -20 -2 -36 -18 -23 -8 7 -19 9 -24 6 -5 -4 -12 -2 -16 3 -3
6 -11 9 -18 7 -7 -1 -9 -1 -4 1 12 8 -3 22 -17 17 -8 -3 -17 -1 -21 5 -3 6
-12 11 -18 11 -7 -1 -1 -10 12 -20 13 -11 19 -20 13 -20 -5 0 -15 7 -22 15
-11 14 -15 14 -36 0 -15 -10 -25 -11 -29 -4 -5 7 -12 6 -23 -3 -10 -7 -14 -8
-10 -4 4 5 0 15 -10 23 -16 12 -15 13 3 6 18 -6 18 -5 6 10 -7 9 -18 14 -25
10 -6 -3 -6 0 2 8 14 16 16 33 2 24 -5 -3 -10 0 -10 7 0 10 -3 9 -11 -2 -9
-13 -10 -13 -6 0 2 8 12 14 22 12 11 -2 14 1 9 9 -4 7 -3 10 4 6 5 -4 9 -18 7
-32 -1 -14 2 -28 6 -31 5 -3 9 1 9 8 0 8 5 6 11 -4 5 -10 15 -18 20 -18 6 0 7
5 2 13 -11 17 -11 57 1 50 5 -3 6 -2 3 4 -3 5 0 10 7 10 7 0 13 -6 14 -14 1
-7 3 -20 4 -28 1 -8 4 -15 8 -15 18 0 17 16 -1 51 -19 38 -34 54 -22 24 6 -17
-16 -17 -30 0 -5 6 -7 3 -3 -7 3 -12 0 -18 -9 -18 -9 0 -12 6 -9 18 4 10 2 13
-3 7 -4 -5 -12 -11 -18 -12 -5 -1 -19 -5 -29 -9 -13 -5 -17 -4 -12 4 3 6 2 13
-3 17 -6 3 -8 -4 -6 -16 3 -15 0 -19 -10 -15 -9 3 -15 -1 -15 -10 0 -8 -5 -12
-10 -9 -6 4 -8 10 -5 15 3 5 0 12 -6 16 -8 5 -9 3 -4 -6 6 -10 4 -12 -8 -7 -9
3 -19 1 -23 -5 -4 -7 -9 -6 -15 3 -7 11 -9 11 -9 1 0 -7 -5 -10 -10 -7 -8 5
-8 11 0 20 8 9 8 15 0 20 -6 4 -9 1 -8 -7 2 -7 -4 -12 -12 -10 -12 3 -13 1 -2
-9 6 -7 12 -21 12 -31 0 -10 4 -18 10 -18 5 0 9 5 7 11 -5 24 57 18 76 -7 13
-18 14 -22 3 -18 -8 3 -17 13 -20 21 -6 14 -10 13 -29 -5 -15 -14 -27 -18 -37
-12 -8 5 -18 6 -23 3 -6 -3 1 -12 14 -20 17 -10 18 -12 4 -8 -48 17 -58 18
-51 7 4 -7 13 -12 21 -12 8 0 17 -4 20 -10 4 -7 -2 -7 -18 -1 -14 5 -33 8 -43
7 -11 -2 -13 -1 -6 1 22 8 13 25 -10 18 -23 -6 -23 -6 -2 7 12 7 19 19 17 26
-4 10 -9 8 -20 -5 -13 -16 -13 -16 -2 6 11 24 12 24 28 4 9 -10 22 -19 30 -19
19 1 23 36 5 43 -8 3 -11 10 -7 17 3 6 2 7 -3 3 -5 -5 -10 -13 -10 -18 -1 -5
-2 -12 -3 -16 0 -3 -10 4 -20 16 -20 23 -41 21 -41 -2 0 -8 3 -8 9 2 5 8 11 9
15 3 3 -5 -1 -12 -9 -16 -9 -3 -21 5 -31 22 -8 15 -13 19 -10 10 3 -10 2 -17
-2 -17 -19 3 -25 -2 -12 -11 13 -8 12 -10 -2 -10 -10 0 -18 -7 -18 -16 0 -14
2 -15 18 -3 16 13 16 13 -1 -7 -9 -11 -14 -24 -10 -29 5 -4 2 -5 -5 -1 -7 4
-10 11 -8 15 3 4 -1 8 -9 8 -8 0 -11 -5 -8 -10 10 -16 12 -58 3 -52 -5 3 -11
1 -15 -5 -3 -5 -12 -10 -18 -10 -7 0 -1 9 12 19 17 13 20 20 12 26 -7 4 -15 4
-18 1 -4 -3 0 -6 8 -6 8 0 4 -6 -9 -16 -12 -8 -20 -19 -18 -23 3 -4 -5 -13
-17 -21 -19 -11 -20 -11 -10 1 10 13 8 15 -15 14 -15 -1 -33 4 -41 9 -12 9
-13 8 -7 -3 7 -10 3 -11 -15 -6 -22 7 -22 6 -10 -9 11 -13 12 -19 2 -29 -10
-9 -11 -8 -6 5 5 14 2 16 -15 13 -22 -4 -22 -4 -5 15 10 11 13 20 7 20 -6 0
-9 8 -6 18 4 10 3 13 -3 6 -4 -5 -23 -10 -40 -9 -24 1 -32 -3 -30 -15 3 -20
-39 -26 -61 -8 -14 10 -13 8 1 -9 11 -13 26 -19 35 -16 14 4 14 3 3 -5 -7 -5
-10 -16 -7 -23 4 -8 1 -5 -8 5 -13 16 -18 17 -32 5 -15 -12 -16 -12 -10 8 4
12 2 24 -3 28 -6 3 -8 0 -5 -8 9 -25 -14 -29 -31 -5 -14 21 -15 21 -12 3 4
-32 16 -45 35 -38 9 3 14 3 10 -2 -4 -4 -3 -14 3 -22 14 -16 5 -17 -21 -3 -16
8 -21 6 -30 -12 -10 -20 -9 -21 2 -6 17 20 50 6 42 -17 -4 -8 -1 -15 6 -15 6
0 9 -4 5 -10 -3 -5 -13 -6 -23 -3 -16 6 -16 6 1 -11 9 -10 15 -21 12 -26 -3
-5 -2 -10 2 -13 5 -2 2 -2 -5 -1 -7 2 -16 -6 -21 -18 -6 -17 -9 -18 -14 -5 -3
9 0 18 9 21 8 3 14 10 14 16 0 6 -10 2 -22 -9 -11 -11 -25 -18 -30 -15 -4 3
-8 -3 -9 -13 0 -14 -2 -13 -9 5 -8 19 -13 21 -30 12 -11 -6 -20 -7 -20 -3 0 4
-7 -1 -15 -11 -14 -18 -15 -18 -15 -2 0 9 -4 15 -9 12 -11 -7 -9 13 3 32 4 7
5 16 1 20 -3 3 -10 0 -15 -8 -6 -8 -10 -10 -10 -5 0 12 20 43 20 31 0 -5 7 -3
15 4 12 10 13 16 4 26 -9 11 -8 14 2 14 9 1 8 4 -4 11 -23 13 -63 -17 -48 -35
7 -8 4 -12 -9 -12 -18 0 -18 2 -5 23 9 13 11 23 6 23 -6 0 -15 -8 -20 -17 -9
-16 -10 -16 -11 3 0 11 7 21 15 22 8 1 22 3 30 4 20 2 19 14 -1 22 -8 3 -12 2
-9 -4 3 -6 1 -11 -4 -11 -6 -1 -15 -3 -21 -4 -5 -1 -15 -3 -21 -4 -5 0 -7 -7
-3 -13 4 -7 -3 -4 -16 7 l-23 20 12 -22 c6 -13 10 -23 9 -24 -36 -9 -61 2 -37
17 8 5 9 3 4 -6 -5 -9 -4 -11 4 -6 20 12 2 27 -20 16 -18 -10 -29 3 -11 13 4
2 2 2 -5 1 -6 -2 -13 2 -15 7 -2 5 -13 11 -26 12 -23 1 -27 7 -14 23 4 5 5 8
3 7 -2 -2 -10 2 -17 8 -10 8 -12 6 -9 -10 2 -11 -1 -24 -7 -27 -7 -4 -8 -2 -4
4 4 7 2 12 -4 12 -6 0 -8 5 -4 12 4 7 3 8 -5 4 -6 -4 -9 -11 -6 -16 3 -5 0
-12 -6 -16 -8 -4 -9 -3 -5 4 3 6 -2 16 -13 21 -25 14 -31 14 -31 1 0 -6 5 -9
11 -8 6 2 14 -4 16 -12 3 -9 1 -11 -4 -5 -7 9 -27 12 -35 5 -2 -1 -11 -3 -21
-5 -14 -3 -16 0 -7 10 8 10 8 15 -1 21 -7 4 -9 3 -6 -2 3 -6 -4 -16 -16 -23
-18 -11 -20 -11 -9 0 18 20 15 33 -5 18 -10 -7 -15 -9 -11 -5 4 5 2 16 -5 24
-10 13 -8 14 12 7 21 -6 22 -5 10 8 -8 8 -21 12 -29 9 -9 -3 -7 2 5 12 11 10
14 14 6 10 -11 -5 -13 -3 -8 9 4 12 1 17 -11 17 -13 1 -11 4 8 16 14 8 17 13
8 10 -10 -3 -18 -1 -18 4 0 6 5 10 11 10 8 0 8 4 0 13 -8 10 -7 14 4 14 8 0
15 -5 15 -10 0 -6 3 -7 6 -4 4 4 1 14 -7 24 -12 15 -12 16 3 10 12 -4 15 -2
11 8 -3 8 -10 12 -16 8 -6 -3 -7 -1 -3 6 6 9 11 9 24 -1 14 -11 15 -10 9 6 -6
14 -4 17 9 12 14 -5 15 -4 4 9 -11 13 -10 14 4 9 11 -4 16 -1 16 10 0 9 4 16
10 16 5 0 7 -8 4 -17 -5 -15 -4 -15 4 -3 8 10 8 18 0 27 -8 11 -7 12 7 7 14
-6 16 -4 10 6 -6 9 -4 11 5 5 10 -6 12 -4 7 8 -3 9 -1 19 5 23 7 4 8 3 4 -4
-10 -17 29 -15 43 1 6 8 8 17 4 20 -3 4 1 7 10 7 11 0 14 -6 10 -17 -3 -12 0
-10 11 5 10 12 21 20 25 18 4 -3 8 1 8 9 0 10 -5 11 -18 4 -23 -12 -26 -12
-26 5 0 8 8 11 19 8 10 -2 18 1 18 7 0 8 4 8 14 -1 8 -7 12 -16 9 -20 -2 -4 4
-5 13 -1 11 4 13 8 6 11 -7 2 -16 11 -21 21 -11 20 37 26 52 7 5 -7 7 -2 4 11
-3 13 1 24 10 27 8 3 11 11 7 18 -4 7 -3 10 1 5 5 -4 20 3 33 15 14 13 22 17
18 11 -7 -13 4 -17 33 -14 8 2 10 -2 5 -10 -4 -8 -3 -10 4 -5 9 5 8 15 -3 36
-19 37 -19 38 10 38 26 0 33 -12 13 -24 -6 -4 -8 -3 -5 3 3 5 -1 10 -9 10 -22
0 6 -26 34 -32 12 -2 27 -7 34 -11 6 -4 8 -3 4 4 -9 15 15 21 38 10 12 -7 22
-6 29 1 18 18 31 13 16 -6 -13 -17 -12 -17 4 -4 16 13 20 13 27 0 7 -10 9 -8
7 8 0 12 -4 20 -8 17 -14 -8 -38 8 -32 22 3 8 1 14 -5 14 -5 0 -9 -10 -8 -22
0 -11 -5 -23 -13 -26 -8 -3 -11 0 -7 7 5 7 1 9 -11 5 -16 -5 -16 -4 1 10 16
13 17 19 8 28 -10 10 -18 6 -9 -5 4 -7 -25 -37 -36 -37 -7 0 -7 4 1 12 14 14
16 32 3 24 -5 -3 -14 8 -20 24 -6 18 -6 28 -1 25 6 -4 10 -13 10 -21 0 -8 4
-14 8 -14 16 0 9 32 -9 43 -16 10 -16 12 -1 23 18 13 69 14 90 0z m-18 -4286
c-8 -6 -20 -8 -27 -5 -7 2 -15 -1 -19 -7 -4 -7 -3 -8 4 -4 7 4 12 2 12 -3 0
-6 3 -10 8 -10 21 4 32 -2 26 -13 -5 -8 -2 -9 9 -5 10 3 17 2 17 -3 0 -16 -30
-11 -36 5 -4 8 -10 12 -15 9 -11 -6 -12 -34 -1 -33 26 4 32 -2 22 -21 -12 -22
-10 -23 14 -14 8 3 12 13 9 22 -4 14 -3 15 5 2 6 -8 8 -18 5 -22 -2 -5 1 -15
7 -23 7 -9 8 -15 2 -15 -5 0 -13 7 -16 16 -4 9 -9 14 -12 11 -10 -10 17 -49
31 -43 12 4 12 0 3 -19 -8 -19 -14 -22 -24 -14 -10 8 -12 6 -11 -10 1 -13 6
-19 14 -17 8 3 10 -1 6 -12 -6 -15 -5 -15 10 -3 19 15 34 -5 24 -31 -3 -7 -6
-3 -6 10 -1 14 -5 20 -12 17 -6 -4 -8 -14 -5 -22 4 -9 1 -22 -5 -29 -14 -17 2
-19 19 -2 7 7 12 9 12 5 0 -15 -83 -87 -93 -80 -6 4 -8 0 -4 -10 4 -11 2 -14
-9 -10 -26 10 -13 28 17 25 4 -1 15 8 24 18 17 19 9 28 -10 13 -6 -5 -7 -4 -2
2 19 24 4 27 -18 2 -14 -15 -29 -27 -34 -27 -18 0 -20 14 -5 31 9 10 14 25 10
34 -4 13 -2 14 14 5 15 -8 21 -6 30 9 14 26 13 31 -5 25 -8 -4 -12 -11 -9 -16
4 -6 -1 -6 -13 1 -11 6 -23 7 -27 4 -3 -3 -6 -1 -6 6 0 8 7 10 22 5 20 -6 21
-5 9 10 -9 10 -10 16 -2 16 6 0 11 -4 11 -10 0 -5 5 -10 11 -10 5 0 7 4 4 10
-3 5 0 7 9 4 11 -4 14 0 11 16 -2 13 0 31 6 41 8 15 5 24 -15 42 -13 12 -40
37 -59 55 -35 31 -54 42 -42 22 3 -5 1 -10 -5 -10 -6 0 -8 -4 -5 -10 9 -15 -1
-12 -14 4 -10 12 -7 18 17 30 16 8 32 13 35 10 3 -3 11 4 17 16 8 14 17 19 30
15 10 -3 21 -1 25 5 4 6 10 9 13 5 4 -3 0 -10 -8 -15z m-132 -205 c0 -14 -5
-25 -10 -25 -5 0 -6 4 -3 10 3 6 -1 7 -9 4 -9 -3 -16 -8 -16 -9 0 -6 63 -35
76 -35 7 0 15 -4 19 -9 3 -6 -6 -7 -23 -2 -23 7 -32 4 -48 -14 l-20 -22 28 0
c22 0 25 3 17 14 -8 9 -8 13 0 13 6 0 12 -4 12 -10 1 -5 2 -16 3 -22 3 -16
-12 -48 -22 -47 -19 3 -33 -2 -28 -10 7 -10 -22 -25 -43 -22 -8 2 -10 -2 -5
-11 4 -7 4 -10 -1 -6 -4 4 -15 2 -23 -5 -11 -8 -14 -8 -9 0 4 6 1 14 -5 17 -7
3 -4 4 7 3 12 -1 20 5 23 18 2 16 1 17 -7 5 -9 -13 -11 -12 -11 3 0 10 -4 16
-9 13 -5 -4 -4 5 2 19 7 14 15 25 20 25 4 0 7 7 7 15 0 8 -8 15 -17 15 -15 0
-15 -2 -4 -9 10 -6 2 -9 -24 -8 l-38 1 34 16 c32 14 54 53 27 48 -7 -2 -14 8
-15 22 l-2 25 7 -25 c6 -17 10 -21 16 -12 4 7 12 10 17 6 5 -3 7 -10 4 -15 -4
-5 -1 -9 4 -9 6 0 11 5 11 10 0 12 37 50 49 50 5 0 9 -11 9 -25z m712 -75 c9
-1 5 -5 -9 -11 -15 -6 -21 -14 -17 -25 3 -8 2 -13 -3 -10 -4 3 -13 -6 -20 -20
-15 -33 -14 -39 4 -24 11 9 19 10 26 3 8 -8 7 -13 -2 -18 -8 -5 -10 -4 -5 3 8
13 -6 16 -18 5 -4 -5 -12 -9 -17 -9 -5 -1 -13 -2 -18 -3 -10 -1 -9 -27 2 -37
4 -4 7 -12 7 -18 0 -6 -5 -3 -11 7 -5 9 -15 17 -21 17 -9 0 -9 -3 0 -12 8 -8
8 -15 1 -24 -7 -9 -7 -20 2 -36 l11 -23 -21 23 c-12 12 -27 22 -34 22 -7 0 -4
5 5 11 9 5 15 16 12 24 -4 8 -11 12 -17 8 -6 -4 -1 7 11 24 26 37 27 43 7 43
-21 0 15 36 38 38 10 1 24 3 32 4 19 2 19 13 0 32 -13 13 -12 14 12 11 16 -2
35 -4 43 -5z m-467 -18 c-8 -5 -6 -13 7 -29 9 -12 20 -19 24 -16 6 6 10 -12 7
-29 0 -5 4 -8 9 -8 6 0 10 -5 10 -11 0 -8 -5 -8 -15 1 -9 8 -15 9 -15 2 0 -6
5 -14 10 -17 6 -4 8 -10 5 -15 -3 -5 4 -8 15 -7 15 1 19 7 15 24 -2 13 1 23 6
23 5 0 9 -5 9 -12 0 -6 3 -8 7 -5 3 4 12 2 20 -5 10 -8 12 -8 8 4 -4 9 -16 21
-28 27 l-22 11 22 -5 c12 -3 24 -1 28 5 3 5 -1 10 -9 10 -9 0 -16 5 -16 10 0
7 8 6 23 -2 12 -7 25 -12 28 -11 3 1 6 -5 6 -13 0 -7 -3 -14 -7 -14 -11 0 -7
-34 5 -47 7 -7 14 -10 17 -8 2 2 3 -10 3 -27 0 -17 -7 -34 -14 -36 -10 -3 -12
1 -8 12 5 11 3 15 -5 10 -7 -5 -8 -3 -3 6 5 8 4 11 -3 6 -6 -4 -9 -13 -5 -21
3 -8 0 -15 -7 -15 -6 0 -9 4 -5 9 3 5 1 12 -4 15 -5 4 -8 -2 -7 -11 2 -10 10
-18 19 -18 8 0 19 -4 23 -8 4 -4 14 -1 23 6 14 10 14 10 4 -4 -7 -9 -11 -18
-8 -20 2 -3 -6 -6 -18 -6 -17 -2 -19 0 -7 7 12 8 10 10 -8 10 -13 0 -22 -6
-21 -12 3 -26 -1 -39 -11 -33 -5 3 -15 -3 -22 -15 -7 -11 -21 -20 -31 -20 -10
0 -16 -4 -13 -9 8 -13 43 -2 50 15 3 8 10 14 16 14 6 0 4 -7 -4 -16 -9 -8 -14
-19 -11 -24 3 -4 -4 -6 -15 -3 -19 5 -21 3 -24 -34 -1 -7 -5 -13 -9 -13 -4 0
-11 0 -17 0 -5 0 -10 5 -10 11 0 5 5 7 10 4 6 -3 10 -4 10 -1 0 2 3 13 7 23 6
16 5 16 -10 4 -9 -7 -17 -10 -17 -5 0 5 -5 2 -10 -6 -7 -11 -10 -11 -10 -2 0
7 -4 10 -10 7 -5 -3 -11 -1 -11 4 -3 26 -4 30 -11 37 -7 7 -12 -10 -9 -29 2
-11 -36 10 -45 25 -4 7 -3 8 4 4 6 -4 20 -2 31 4 23 12 25 51 3 42 -10 -3 -13
0 -10 9 3 8 10 15 16 15 25 3 27 5 12 14 -12 8 -12 10 -1 10 9 0 10 4 4 13
-14 19 -10 33 17 56 24 21 24 22 3 16 -13 -4 -23 -2 -23 3 0 5 10 9 23 8 16
-1 21 -7 19 -21 -3 -16 -2 -17 12 -6 14 12 14 16 -5 42 -12 17 -26 26 -32 23
-7 -4 -9 -4 -5 1 4 4 3 17 -3 29 -9 20 -9 20 4 3 9 -11 18 -14 21 -8 4 5 -3
16 -15 24 -15 11 -17 16 -7 20 20 8 34 8 21 -1z m-187 -148 c-3 -7 -1 -16 4
-19 6 -4 10 -1 10 6 0 7 3 9 7 5 5 -4 -1 -14 -11 -22 -11 -7 -17 -17 -13 -20
4 -4 12 -2 19 3 15 12 49 13 42 2 -2 -5 -12 -5 -22 -2 -15 6 -15 5 -3 -10 9
-11 10 -17 2 -17 -6 0 -11 5 -11 11 0 5 -5 7 -10 4 -6 -4 -8 -11 -5 -16 3 -5
-2 -6 -11 -2 -11 4 -15 2 -11 -4 4 -6 -2 -22 -13 -34 -17 -21 -19 -21 -13 -4
6 18 5 18 -10 6 -14 -11 -15 -16 -5 -29 11 -14 9 -14 -11 0 -13 9 -31 28 -40
42 -16 25 -17 25 -29 5 -11 -17 -10 -20 2 -17 8 2 15 0 15 -4 2 -22 0 -28 -10
-28 -5 0 -8 4 -5 9 3 5 -1 12 -10 15 -14 5 -14 9 -3 23 12 15 12 16 -4 10 -11
-4 -16 -3 -12 3 3 6 11 10 17 10 5 0 23 9 39 21 20 14 34 18 42 11 16 -13 48
-11 44 2 -2 6 -11 10 -20 8 -8 -1 -18 1 -21 6 -7 12 26 11 42 -1 8 -6 12 -6
12 1 0 6 -8 16 -17 22 -17 11 -17 11 1 6 14 -5 17 -2 12 9 -3 10 -2 13 5 10 6
-4 8 -13 5 -21z"/>
<path d="M7419 3837 c18 -18 13 -23 -21 -22 -18 1 -37 -1 -43 -4 -5 -3 -14 -6
-20 -7 -5 0 -15 -2 -22 -2 -11 -2 -12 -18 -2 -37 5 -9 4 -32 -1 -37 -6 -8 -5
-70 2 -74 5 -3 6 -10 3 -15 -4 -5 -3 -9 2 -10 4 0 16 -2 25 -4 10 -2 20 1 24
6 3 5 -1 9 -8 9 -12 1 19 24 32 25 12 0 62 45 50 45 -10 0 -10 3 0 15 12 14 7
20 -14 16 -5 -1 -5 4 1 11 6 7 13 18 15 23 1 6 7 9 11 7 4 -1 10 5 13 13 6 14
8 13 21 -2 13 -16 13 -16 3 4 -10 22 -42 45 -69 49 -10 2 -11 0 -2 -9z m-29
-36 c0 11 2 11 10 -1 8 -12 10 -12 10 -1 0 20 10 8 15 -18 2 -12 0 -19 -4 -16
-5 3 -11 -2 -15 -10 -6 -18 9 -29 27 -19 8 5 8 2 -2 -9 -7 -9 -10 -17 -6 -17
5 0 0 -9 -10 -20 -9 -10 -20 -18 -24 -17 -3 0 -16 -4 -29 -11 -15 -9 -27 -10
-40 -3 -11 7 -13 10 -3 11 9 0 10 4 4 13 -13 18 -9 43 7 39 10 -2 11 0 2 11
-7 8 -9 17 -5 21 4 4 1 11 -7 16 -8 6 -10 10 -5 10 13 0 37 -16 36 -24 -3 -19
0 -26 10 -26 8 0 8 5 -1 15 -7 8 -9 15 -5 15 4 0 3 6 -4 13 -15 19 7 41 26 26
10 -9 13 -8 13 2z"/>
<path d="M834 8232 c3 -6 1 -14 -4 -17 -8 -5 -6 -13 4 -24 14 -15 14 -18 1
-18 -8 0 -12 4 -10 8 3 4 -2 10 -11 13 -23 9 -34 7 -34 -5 0 -5 6 -7 13 -3 6
4 2 -4 -10 -17 -21 -22 -24 -22 -39 -7 -16 15 -15 16 10 14 15 -2 24 -1 21 3
-4 3 -19 6 -34 7 -24 0 -27 -3 -24 -25 3 -24 3 -25 -6 -5 -5 12 -14 24 -19 28
-13 8 -11 -26 2 -44 9 -13 9 -13 -6 -2 -13 10 -17 10 -21 0 -4 -10 -7 -10 -18
1 -8 8 -9 11 -2 7 16 -9 28 13 14 27 -9 9 -11 8 -6 -5 5 -14 2 -16 -14 -13
-12 2 -19 0 -16 -4 2 -5 -6 -8 -20 -8 -13 0 -23 2 -22 6 1 3 -2 6 -8 6 -5 0
-9 -4 -7 -8 1 -5 -8 -6 -20 -2 -13 4 -18 3 -11 -2 8 -6 6 -15 -8 -33 -18 -21
-19 -22 -10 -3 8 15 8 24 1 28 -6 4 -10 3 -9 -2 4 -21 -2 -34 -12 -28 -6 4 -5
-2 3 -14 7 -12 18 -21 25 -21 6 0 14 -4 17 -9 4 -5 -3 -7 -14 -4 -17 4 -20 1
-18 -21 2 -16 7 -25 15 -22 7 3 15 0 19 -6 4 -7 3 -8 -4 -4 -7 4 -12 1 -12 -8
0 -9 -5 -16 -12 -16 -6 0 -8 -3 -5 -6 4 -4 13 -1 22 6 13 11 15 10 12 -9 -2
-11 -12 -28 -23 -36 -18 -15 -18 -15 0 -8 14 5 17 3 11 -7 -5 -9 -4 -11 4 -6
6 4 8 12 5 18 -4 7 -2 8 4 4 7 -4 10 1 7 14 -2 11 1 20 7 20 5 0 8 -6 5 -14
-3 -7 2 -24 10 -37 10 -15 11 -19 3 -11 -16 14 -34 16 -26 3 3 -5 -8 -8 -24
-7 -19 1 -27 -1 -21 -7 5 -5 7 -16 4 -25 -5 -11 -3 -13 7 -7 9 5 11 4 6 -4 -6
-9 -11 -9 -22 0 -12 10 -13 8 -6 -12 5 -13 8 -36 6 -51 -1 -15 2 -30 7 -34 5
-3 6 -11 2 -17 -4 -7 -8 -20 -9 -29 -2 -29 -3 -29 -26 -17 -22 12 -22 11 -8
-6 14 -17 14 -17 -6 -7 -12 6 -24 8 -28 5 -12 -12 -60 -11 -76 1 -13 10 -13 9
-1 -6 15 -21 2 -24 -18 -5 -10 8 -12 8 -7 0 3 -6 -2 -17 -11 -23 -16 -10 -16
-11 -1 -6 12 3 16 -1 15 -14 -1 -13 -5 -16 -13 -10 -16 14 -25 0 -14 -21 7
-12 6 -20 -2 -25 -7 -5 -8 -3 -3 7 5 8 4 11 0 6 -5 -4 -10 -18 -12 -30 -2 -16
-1 -18 6 -8 14 22 40 6 35 -21 -5 -20 -4 -21 6 -6 6 10 17 15 27 11 10 -4 14
-2 10 4 -5 7 1 9 14 6 21 -6 21 -6 -2 -20 -22 -13 -22 -13 -2 -8 43 12 63 14
59 6 -3 -4 1 -17 9 -27 8 -10 15 -14 15 -7 0 7 10 10 27 7 33 -6 45 -13 39
-23 -3 -4 6 -7 19 -7 13 0 21 4 19 8 -3 4 0 8 7 8 8 0 7 5 -2 17 -13 15 -12
15 9 2 12 -8 22 -21 22 -29 0 -13 -1 -13 -10 0 -5 8 -10 11 -10 5 1 -5 7 -19
15 -29 8 -11 15 -14 15 -7 0 7 5 9 10 6 6 -4 7 -12 4 -18 -5 -8 -3 -8 7 1 17
16 37 16 21 0 -16 -16 -15 -33 1 -19 14 11 37 -3 37 -23 0 -5 -6 -2 -13 8 -12
16 -13 16 -13 -3 0 -11 3 -19 6 -19 3 0 7 -1 10 -2 19 -7 39 -7 34 1 -3 5 2 9
11 9 9 0 14 -4 11 -8 -2 -4 4 -8 14 -8 14 0 16 3 8 13 -8 11 -7 12 8 6 17 -6
18 -5 4 12 -13 17 -13 18 0 10 20 -13 34 -13 42 0 4 5 6 0 6 -11 -1 -11 -8
-21 -15 -21 -6 0 -9 5 -6 10 3 6 1 7 -5 3 -24 -15 -11 -23 33 -21 24 0 47 4
50 7 3 3 -4 5 -16 4 -12 0 -24 6 -26 14 -3 9 -1 11 4 5 11 -15 59 -12 56 3 -4
16 0 15 27 -8 13 -11 27 -20 31 -20 15 0 21 22 10 33 -9 9 -11 8 -6 -5 4 -10
3 -18 -2 -18 -18 0 -23 13 -10 28 10 13 9 15 -4 10 -9 -4 -16 -1 -16 7 0 16
28 7 40 -11 4 -7 14 -11 22 -8 8 4 12 10 9 15 -3 5 3 6 12 2 11 -4 15 -2 11 4
-4 6 -1 13 6 16 8 3 14 -1 14 -9 0 -7 -9 -16 -19 -20 -10 -3 -15 -10 -12 -16
4 -6 -1 -17 -11 -25 -11 -7 -14 -13 -8 -13 7 0 15 5 19 11 4 8 9 7 15 -2 6
-10 9 -11 9 -1 0 6 4 12 10 12 5 0 8 -6 6 -12 -1 -7 -1 -10 1 -5 3 4 10 4 15
1 7 -4 8 -2 4 4 -4 7 -2 12 3 12 6 0 11 -3 11 -8 0 -4 10 -13 23 -21 22 -14
22 -14 3 8 -17 19 -10 31 8 14 4 -5 13 -8 19 -8 7 -1 11 -7 9 -15 -3 -12 -1
-13 9 -2 20 18 33 14 18 -5 -12 -16 -12 -17 2 -6 12 10 18 10 29 0 10 -9 11
-9 6 1 -4 7 -2 12 6 12 10 0 9 3 -2 9 -8 6 -18 7 -22 5 -4 -3 -8 0 -8 5 0 6
-6 10 -12 8 -7 -1 -13 5 -13 13 0 19 -16 31 -35 25 -22 -7 -44 11 -37 30 4 9
11 14 16 11 5 -3 20 5 34 18 25 23 26 23 32 5 4 -11 11 -17 16 -14 5 3 6 -2 2
-11 -4 -12 -3 -15 5 -10 7 4 12 3 12 -2 0 -6 -7 -12 -15 -16 -8 -3 -15 -11
-15 -17 0 -7 9 -5 25 5 21 14 24 14 19 1 -4 -8 -12 -15 -20 -15 -8 0 -14 -5
-14 -11 0 -7 9 -9 21 -6 12 3 18 3 15 0 -9 -10 15 -33 27 -26 6 3 7 1 3 -6 -4
-6 -12 -9 -17 -6 -5 4 -9 2 -9 -3 0 -6 8 -13 17 -16 10 -4 14 -4 11 0 -4 3 0
13 8 21 8 8 12 18 9 23 -3 4 3 14 13 21 15 12 16 12 6 -1 -14 -20 -12 -42 5
-48 9 -3 11 0 6 8 -5 9 -4 11 3 6 7 -4 12 -1 12 6 0 8 5 6 11 -5 9 -15 13 -16
27 -5 15 12 16 11 4 -4 -7 -9 -22 -15 -33 -13 -10 2 -19 0 -19 -6 0 -5 11 -10
25 -10 42 -2 45 -3 56 -19 9 -13 10 -12 5 3 -3 9 -1 17 4 17 9 0 14 -14 11
-32 -1 -10 28 -3 41 10 9 9 6 11 -10 7 -12 -2 -22 0 -22 4 0 5 11 9 25 9 21 0
24 -4 19 -22 -6 -19 -5 -20 11 -6 17 14 17 13 11 -10 -5 -17 -4 -21 2 -11 13
18 33 5 26 -17 -5 -15 -4 -14 6 1 10 15 9 21 -5 31 -10 7 -15 20 -12 32 4 16
5 16 6 -4 0 -13 5 -21 10 -17 5 3 12 -4 16 -15 5 -17 10 -18 28 -9 21 10 21
10 3 -5 -11 -9 -17 -19 -13 -22 4 -4 14 -1 23 7 15 12 16 11 10 -9 -6 -17 -4
-21 8 -16 9 3 13 10 10 15 -3 5 2 6 11 3 14 -6 14 -8 -2 -19 -16 -12 -15 -13
10 -8 17 3 27 1 27 -6 0 -7 -4 -10 -8 -7 -5 3 -9 -1 -9 -9 0 -12 3 -12 16 -3
9 7 17 13 19 14 2 1 -4 9 -13 18 -9 9 -12 16 -6 16 14 0 32 -35 23 -46 -4 -5
-5 -8 -3 -6 2 1 13 -5 23 -15 10 -9 18 -14 19 -12 10 53 9 55 -6 35 -13 -17
-15 -18 -15 -3 0 9 3 17 8 18 4 0 15 2 24 4 10 2 21 -2 25 -7 3 -6 1 -8 -4 -5
-12 8 -22 -12 -16 -30 3 -7 9 -13 14 -13 6 0 8 4 4 9 -3 6 5 15 17 21 22 11
22 10 4 -4 -11 -9 -15 -16 -8 -16 6 0 18 -12 26 -27 8 -16 15 -25 16 -20 0 4
13 1 30 -8 16 -8 38 -15 50 -15 13 0 19 -4 14 -11 -4 -8 1 -9 17 -4 17 4 20 3
10 -3 -8 -6 -10 -15 -6 -22 6 -10 12 -8 23 6 14 18 14 18 8 -3 -7 -23 8 -40
20 -22 5 8 3 9 -6 4 -9 -5 -11 -4 -6 4 11 16 26 3 19 -16 -4 -11 -3 -14 5 -9
7 4 12 3 12 -3 0 -5 -6 -12 -12 -15 -7 -2 -2 -4 12 -3 15 1 24 -3 23 -10 -2
-7 6 -10 18 -8 16 3 19 0 14 -12 -5 -15 -3 -15 14 1 11 10 26 16 33 13 8 -4 7
-6 -4 -6 -39 -2 -10 -31 40 -40 4 -1 1 -5 -7 -10 -10 -6 -6 -12 15 -21 16 -7
46 -33 66 -57 21 -24 41 -45 45 -46 4 -1 6 -6 5 -12 -2 -5 -1 -7 3 -3 10 10
45 -24 38 -36 -3 -6 -3 -8 2 -4 16 15 46 -12 35 -32 -8 -15 -6 -21 6 -28 11
-6 15 -17 11 -31 -3 -14 0 -21 9 -21 8 0 14 -4 14 -9 0 -4 11 -26 25 -47 l26
-39 -26 28 c-14 15 -25 24 -25 19 0 -15 48 -54 59 -48 7 5 8 1 4 -10 -5 -13
-3 -15 8 -9 8 4 11 5 7 0 -4 -4 -2 -15 5 -23 10 -13 9 -14 -3 -7 -12 7 -13 6
-3 -7 7 -8 9 -19 5 -23 -4 -5 -1 -5 6 -1 7 4 12 1 12 -8 0 -9 5 -16 10 -16 6
0 10 -9 10 -20 0 -11 7 -20 16 -20 9 0 12 -5 8 -12 -5 -7 -2 -9 9 -5 11 4 14
2 11 -7 -3 -7 2 -16 11 -20 9 -3 13 -2 10 3 -3 5 -1 12 5 16 5 3 10 1 10 -4 0
-6 5 -11 11 -11 5 0 8 4 4 9 -3 5 -1 12 4 16 6 3 8 -3 6 -15 -2 -11 1 -23 7
-26 7 -4 8 -2 4 4 -4 7 -2 12 4 12 6 0 13 -7 16 -15 4 -8 11 -15 16 -15 6 0 6
6 -1 14 -9 11 -9 16 0 22 7 4 9 3 5 -4 -3 -6 -2 -14 4 -17 8 -5 8 -11 0 -20
-8 -10 -8 -15 1 -21 8 -4 9 -3 5 4 -4 7 -2 12 3 12 18 0 12 -18 -11 -35 -21
-14 -22 -15 -3 -13 11 2 20 -1 20 -7 0 -5 -3 -9 -7 -7 -12 3 -9 -13 5 -27 6
-8 7 -11 1 -8 -6 3 -11 0 -11 -8 0 -8 4 -12 9 -9 13 8 9 -11 -4 -25 -11 -10
-9 -11 6 -5 15 6 17 4 11 -7 -7 -11 -5 -11 10 1 11 9 16 10 11 3 -4 -8 -2 -13
5 -13 9 0 9 -3 0 -14 -10 -12 -8 -13 8 -9 16 4 18 9 11 22 -6 13 -5 18 5 18 8
0 12 -4 9 -9 -3 -5 -1 -15 6 -23 7 -9 8 -15 0 -20 -13 -8 -13 -25 1 -25 5 0 8
4 5 9 -3 5 0 11 8 14 19 7 15 -26 -4 -35 -12 -5 -12 -7 3 -7 19 -1 22 -11 7
-29 -7 -9 -7 -9 2 -2 7 6 16 10 20 10 11 0 6 -33 -7 -43 -6 -5 -4 -7 5 -4 8 2
15 9 15 15 0 5 3 13 7 17 3 4 5 -1 4 -12 -2 -10 2 -24 8 -32 6 -9 7 -12 1 -9
-6 4 -11 -2 -11 -12 0 -10 3 -17 6 -15 3 2 12 0 20 -6 12 -7 12 -9 -4 -9 -16
0 -16 -2 5 -20 21 -17 21 -19 4 -13 l-20 6 20 -20 c11 -11 23 -19 27 -16 4 2
5 -3 2 -12 -6 -14 -8 -14 -20 2 -13 16 -13 15 -3 -9 7 -16 17 -28 22 -28 5 0
7 -9 4 -20 -4 -17 -2 -18 14 -9 13 6 19 6 19 -1 0 -5 -6 -10 -12 -11 -7 0 -4
-4 7 -9 19 -8 19 -9 1 -9 -15 -1 -16 -4 -6 -16 7 -8 17 -12 23 -8 6 3 7 1 3
-6 -4 -6 -11 -9 -16 -6 -4 3 -10 -2 -13 -10 -4 -10 -1 -12 10 -8 13 5 15 1 11
-19 -4 -20 -1 -25 10 -21 11 5 12 2 4 -13 -7 -14 -6 -24 4 -39 9 -12 14 -14
14 -5 0 7 3 11 6 7 3 -3 2 -12 -2 -19 -12 -18 -14 -38 -4 -38 4 0 8 -22 7 -48
0 -27 3 -54 7 -60 4 -7 2 -12 -4 -12 -6 0 -8 -5 -5 -10 4 -6 10 -8 14 -6 9 6
8 -45 -2 -61 -4 -6 -1 -14 5 -16 10 -4 10 -6 1 -6 -7 -1 -13 -6 -13 -12 0 -5
4 -8 9 -5 5 4 8 -1 7 -10 -1 -8 -9 -20 -17 -25 -12 -7 -12 -9 1 -9 19 0 24
-41 7 -52 -8 -5 -5 -8 8 -8 17 0 17 -2 5 -10 -13 -9 -13 -10 0 -10 9 0 11 -3
5 -8 -11 -8 -16 -54 -5 -47 4 3 8 -6 8 -20 0 -16 -5 -22 -12 -18 -6 4 -4 -2 4
-12 14 -17 13 -18 -4 -11 -18 6 -19 5 -4 -11 8 -10 13 -24 10 -32 -2 -8 -1
-11 4 -8 8 4 11 -26 15 -136 0 -9 4 -15 10 -12 9 6 13 -7 9 -39 -1 -10 3 -15
9 -12 6 4 8 -2 6 -15 -2 -11 3 -32 11 -45 9 -12 12 -29 8 -35 -4 -7 -3 -9 3
-6 15 9 23 -29 10 -42 -7 -7 -4 -9 12 -6 12 2 19 0 16 -6 -9 -14 5 -70 16 -63
13 8 11 -10 -3 -24 -9 -9 -8 -12 8 -12 13 0 15 -3 6 -8 -10 -7 -7 -15 10 -37
12 -16 17 -26 11 -22 -6 4 -14 3 -18 -3 -3 -5 1 -10 9 -10 10 0 13 -6 9 -17
-5 -11 -3 -14 6 -8 10 6 11 2 6 -15 -4 -14 -3 -20 2 -17 6 4 15 -5 22 -19 6
-14 7 -23 2 -19 -5 3 -13 0 -17 -7 -4 -7 -4 -10 1 -6 12 11 36 -12 28 -25 -12
-19 -11 -48 1 -38 8 6 11 -3 11 -29 1 -21 -3 -36 -7 -34 -4 3 -5 -2 -2 -10 3
-9 10 -16 15 -16 6 0 5 -8 -1 -19 -7 -13 -7 -20 0 -23 6 -2 11 -29 12 -61 1
-33 5 -52 10 -45 4 8 8 8 8 2 0 -6 -3 -14 -7 -18 -11 -11 -10 -30 1 -38 6 -4
8 -9 5 -12 -8 -8 -62 42 -55 52 5 9 -28 42 -43 42 -5 0 -12 7 -15 16 -3 8 -10
13 -15 10 -11 -7 -9 13 3 32 4 7 4 12 -1 11 -21 -4 -33 2 -33 16 0 18 -47 17
-54 -2 -8 -19 4 -44 18 -37 6 3 2 -2 -8 -10 -17 -14 -18 -16 -3 -16 20 0 22
-20 5 -39 -11 -11 -9 -11 9 -2 33 17 38 13 12 -10 -19 -16 -20 -19 -6 -15 15
5 17 2 12 -14 -7 -22 5 -26 23 -8 7 7 12 9 12 4 0 -13 -27 -35 -35 -28 -4 4
-2 -3 4 -16 7 -12 16 -20 22 -17 5 4 9 0 9 -8 0 -8 8 -21 18 -28 15 -13 16
-12 4 2 -10 14 -10 18 1 22 10 4 13 -3 12 -23 -1 -21 2 -27 13 -22 10 3 13 1
8 -6 -4 -7 -3 -12 2 -12 6 0 8 -10 5 -22 -5 -23 -5 -23 10 -3 8 11 19 17 23
12 4 -4 2 -7 -4 -7 -19 0 -14 -24 9 -38 12 -7 18 -16 15 -19 -3 -3 -14 0 -23
8 -16 12 -15 11 1 -8 10 -13 23 -20 28 -17 4 3 8 2 7 -3 -4 -14 24 -67 45 -86
12 -10 16 -16 10 -13 -6 3 -11 -1 -11 -8 0 -7 7 -13 16 -12 8 0 21 -11 29 -26
7 -16 22 -32 32 -38 11 -6 32 -22 47 -37 15 -14 22 -23 16 -19 -9 5 -11 2 -7
-8 3 -9 12 -16 20 -16 8 0 14 -5 14 -11 0 -5 -4 -8 -8 -5 -4 2 -8 -4 -8 -14 0
-13 4 -16 12 -10 8 7 10 2 9 -18 -1 -15 1 -31 4 -37 8 -15 10 -36 3 -31 -9 5
-8 -66 1 -81 4 -6 1 -13 -5 -16 -10 -3 -10 -8 2 -22 8 -10 13 -29 12 -43 -2
-13 0 -22 5 -19 6 4 10 0 10 -8 0 -8 -4 -12 -8 -10 -4 3 -6 -6 -5 -19 0 -13 4
-22 8 -19 5 2 8 -5 8 -17 0 -14 4 -19 13 -14 8 5 8 2 -2 -9 -12 -15 -11 -17 2
-17 10 0 14 -6 11 -15 -3 -8 1 -21 10 -30 8 -9 13 -22 10 -30 -4 -8 -2 -15 4
-15 5 0 13 -7 16 -16 6 -15 4 -15 -10 -3 -16 13 -16 12 -4 -8 8 -12 18 -19 23
-16 5 3 4 -4 -2 -15 -8 -15 -8 -23 0 -28 6 -3 9 -19 5 -35 -3 -16 -2 -29 3
-29 15 0 31 -48 18 -54 -7 -2 -4 -5 6 -5 16 -1 20 -14 20 -73 0 -10 4 -15 10
-11 6 4 8 0 4 -10 -4 -10 -2 -14 7 -11 7 3 13 -2 13 -10 0 -8 -4 -13 -9 -10
-4 3 -8 0 -8 -5 0 -6 4 -11 9 -11 5 0 12 -7 15 -16 3 -8 2 -12 -4 -9 -6 3 -10
1 -10 -4 0 -6 4 -11 9 -11 5 0 12 -7 15 -16 5 -12 3 -14 -7 -8 -7 5 -5 2 5 -8
13 -12 15 -18 6 -21 -9 -4 -9 -6 -1 -6 6 -1 9 -10 6 -23 -4 -19 -3 -20 6 -8 9
13 11 13 11 -2 0 -9 -4 -20 -10 -23 -5 -3 -10 -12 -10 -18 0 -7 4 -6 10 3 8
12 10 11 10 -7 0 -13 5 -23 11 -23 6 0 9 -8 7 -17 -2 -10 3 -24 12 -31 8 -8 9
-11 3 -7 -8 4 -13 0 -13 -10 0 -9 5 -13 10 -10 7 4 9 -3 6 -18 -2 -14 1 -33 8
-43 24 -35 27 -54 8 -47 -15 6 -15 4 -4 -10 8 -9 11 -21 7 -26 -3 -7 0 -8 10
-5 13 5 14 2 5 -22 -10 -28 -9 -28 6 -9 15 18 16 18 10 2 -6 -19 9 -57 27 -68
5 -4 4 -16 -4 -30 -12 -23 -11 -23 6 -9 14 11 17 11 11 1 -5 -8 -3 -17 5 -22
9 -5 10 -9 2 -9 -15 0 -11 -19 12 -53 16 -24 16 -30 4 -39 -11 -8 -10 -9 4 -4
11 3 17 0 17 -10 0 -9 -5 -12 -12 -8 -7 4 -8 3 -4 -5 6 -9 11 -9 21 -1 11 9
12 7 8 -9 -3 -12 -1 -21 6 -21 6 0 11 -5 11 -11 0 -5 -4 -7 -10 -4 -6 3 -7 -1
-4 -10 4 -9 12 -14 19 -11 9 3 11 -2 7 -16 -4 -15 -7 -17 -13 -6 -5 7 -9 8 -9
3 0 -15 37 -45 46 -37 4 4 4 1 0 -6 -15 -25 -15 -63 0 -52 10 9 11 6 7 -9 -3
-13 -1 -21 6 -21 7 0 9 5 5 12 -4 7 -3 8 5 4 9 -6 9 -11 -1 -24 -11 -14 -10
-15 7 -9 19 7 19 6 2 -7 -17 -13 -17 -14 2 -19 15 -4 18 -12 14 -42 -3 -27 0
-35 9 -30 7 4 4 -1 -6 -9 -20 -16 -13 -21 24 -17 12 2 12 0 2 -7 -11 -7 -10
-12 3 -26 9 -9 11 -16 5 -16 -6 0 -13 6 -16 13 -3 8 -11 14 -20 14 -11 0 -9
-5 5 -19 11 -10 24 -18 29 -18 18 0 34 -28 21 -36 -7 -4 -9 -3 -5 4 3 6 2 13
-3 16 -5 4 -8 -2 -7 -11 2 -12 10 -17 24 -15 11 2 23 -2 27 -7 4 -7 -1 -9 -12
-5 -17 5 -17 5 1 -10 10 -8 15 -19 12 -24 -8 -13 30 -46 43 -37 7 4 8 0 5 -10
-4 -10 -2 -15 7 -13 9 2 13 -5 11 -23 -2 -17 3 -29 12 -32 10 -4 13 -13 9 -24
-5 -15 -3 -15 11 2 13 16 15 16 10 3 -3 -10 1 -24 10 -33 8 -9 13 -23 10 -33
-3 -9 1 -6 9 7 12 20 15 21 20 7 4 -10 3 -15 -3 -11 -6 3 -10 -1 -10 -10 0
-11 5 -15 14 -12 10 4 14 0 11 -14 -2 -10 1 -19 7 -19 6 0 8 -9 5 -20 -3 -13
0 -20 8 -20 13 0 31 -36 27 -52 -3 -11 37 -30 48 -23 5 3 12 0 16 -6 4 -8 3
-9 -4 -5 -7 4 -12 1 -12 -8 0 -10 6 -13 15 -10 10 4 13 2 10 -8 -3 -8 3 -23
15 -33 11 -10 20 -15 20 -10 0 4 -8 14 -17 22 -16 12 -15 13 7 1 14 -7 29 -11
34 -10 5 2 4 -3 -2 -11 -10 -11 -8 -19 9 -38 11 -13 17 -18 14 -11 -6 11 -3
12 12 3 11 -6 22 -8 25 -6 7 7 3 -29 -5 -41 -4 -7 5 -10 28 -9 19 1 31 -3 28
-7 -3 -5 -11 -7 -19 -4 -8 3 -14 1 -14 -4 0 -9 30 -15 53 -11 4 0 7 -4 7 -10
0 -5 4 -8 9 -5 5 3 8 -7 7 -23 -1 -17 2 -27 8 -24 5 4 7 -1 3 -10 -4 -12 -2
-14 10 -10 12 5 14 3 8 -8 -8 -12 -6 -12 8 0 9 7 14 18 10 24 -3 6 -1 7 6 3 9
-6 9 -11 0 -22 -8 -10 -8 -14 0 -14 6 0 11 -5 11 -11 0 -5 -4 -7 -10 -4 -15 9
-12 -1 4 -14 11 -9 16 -9 22 0 4 8 3 9 -4 5 -8 -5 -10 -2 -6 8 5 13 8 13 20 1
16 -15 19 -29 5 -21 -5 3 -11 -1 -14 -9 -5 -12 -1 -12 21 -4 l26 10 -19 -22
-20 -22 23 12 c22 12 23 11 17 -11 -5 -20 -4 -20 5 -5 6 9 16 17 23 17 8 0 7
-4 -2 -9 -12 -8 -12 -12 -2 -24 9 -12 9 -16 -1 -20 -7 -3 2 -3 21 0 24 4 32 3
27 -5 -4 -7 -2 -12 3 -12 6 0 11 5 11 10 0 15 14 12 37 -9 12 -11 24 -17 29
-13 4 4 4 2 1 -4 -4 -6 2 -19 13 -29 11 -10 20 -15 20 -10 0 4 6 2 13 -4 8 -6
17 -9 20 -6 4 3 5 2 3 -1 -2 -3 3 -14 12 -24 16 -19 26 -54 13 -46 -4 3 -7 -4
-7 -15 0 -10 5 -19 11 -19 5 0 3 -5 -5 -10 -11 -7 -11 -10 -2 -10 7 0 10 -5 7
-10 -4 -6 -11 -8 -16 -5 -5 3 -6 -1 -3 -10 5 -13 9 -13 22 -3 13 12 14 11 2
-9 -8 -12 -19 -19 -25 -15 -5 3 -4 -1 3 -10 7 -8 10 -24 6 -34 -5 -18 -5 -18
6 -1 6 9 8 23 4 30 -4 6 4 1 17 -13 27 -27 30 -41 4 -20 -10 8 -15 9 -15 1 0
-6 5 -11 11 -11 5 0 7 -4 4 -10 -11 -17 3 -11 29 13 14 13 24 26 21 29 -3 2
10 4 28 4 30 -1 32 1 32 30 -1 22 3 30 12 27 7 -3 10 -10 6 -17 -4 -6 1 -5 10
2 9 8 22 10 28 6 8 -4 9 -3 5 4 -9 15 6 16 21 1 8 -8 13 -7 18 2 6 8 4 10 -6
4 -12 -7 -12 -6 -1 7 9 11 9 18 2 21 -6 3 -5 4 2 3 7 -2 13 -14 13 -27 0 -13
5 -25 10 -25 6 -1 9 2 8 7 -2 4 4 6 12 2 12 -4 13 -8 4 -19 -10 -12 -9 -13 5
-8 9 3 24 0 33 -7 14 -12 15 -11 9 11 -6 19 -5 21 3 10 9 -13 12 -12 24 4 11
15 14 16 14 3 0 -9 -6 -18 -14 -21 -7 -3 -13 -13 -12 -23 0 -16 1 -15 9 2 8
19 8 19 19 -5 10 -23 11 -23 7 -3 -5 29 8 38 25 16 10 -12 10 -14 2 -9 -7 4
-13 3 -13 -2 0 -6 7 -13 16 -16 8 -3 12 -2 9 4 -3 6 -1 10 4 10 6 0 11 -4 11
-10 0 -5 5 -10 11 -10 5 0 7 4 4 10 -3 6 1 7 9 4 9 -3 13 -11 9 -17 -6 -10 33
-6 72 9 18 7 19 6 5 -11 -9 -11 -10 -16 -3 -11 21 12 52 15 58 5 10 -16 25
-10 19 9 -5 14 -4 14 4 2 8 -10 8 -18 0 -27 -6 -8 -8 -16 -4 -20 3 -3 6 -1 6
5 0 6 7 9 17 5 10 -4 14 -2 10 4 -7 12 29 10 40 -2 5 -4 3 -6 -2 -2 -6 3 -19
-1 -30 -9 -10 -8 -14 -14 -9 -14 6 0 14 3 18 7 3 4 16 8 28 10 18 3 19 1 7
-14 -13 -17 -13 -17 5 -3 11 8 21 13 23 12 3 -2 8 0 11 4 4 4 1 4 -7 -1 -9 -5
-12 -4 -8 2 8 13 42 10 61 -6 11 -10 16 -10 16 -2 0 8 6 9 18 3 9 -4 28 -7 42
-6 14 1 29 -3 33 -10 6 -7 7 -4 3 7 -3 9 -1 17 4 17 6 0 10 -4 10 -8 0 -5 7
-9 15 -9 8 0 12 4 10 8 -3 4 2 10 11 13 8 3 12 2 9 -3 -12 -21 15 -20 35 1 12
13 21 19 20 13 -5 -21 1 -27 14 -16 8 6 18 11 22 10 23 -4 35 2 28 14 -5 7 0
6 11 -3 10 -8 16 -10 12 -4 -4 7 3 15 16 19 30 10 36 12 42 15 14 7 31 5 44
-4 12 -9 12 -7 3 11 -12 22 7 28 25 8 4 -4 2 -5 -6 0 -10 5 -12 4 -7 -4 10
-16 29 -3 22 16 -3 8 -2 11 3 8 6 -3 14 3 20 12 6 10 11 13 11 7 0 -5 -5 -15
-12 -22 -9 -9 -9 -12 -1 -12 7 0 15 5 19 11 3 6 14 9 24 6 13 -3 17 0 13 9 -3
9 1 14 12 14 10 0 13 -5 9 -12 -4 -7 -3 -8 5 -4 9 6 9 11 0 22 -10 12 -10 15
2 12 8 -2 13 3 11 12 -2 8 0 11 5 7 4 -5 8 -14 8 -20 0 -5 7 -12 15 -14 13 -4
13 -3 0 6 -14 10 -7 16 13 12 5 -1 6 3 2 9 -3 5 -1 18 5 27 11 17 11 17 6 1
-3 -10 -1 -18 4 -18 6 0 10 6 10 13 0 8 4 7 10 -3 8 -12 10 -10 10 8 0 13 4
20 10 17 6 -4 7 -12 3 -18 -3 -7 2 -4 13 5 15 13 23 15 31 7 8 -8 13 -8 18 0
3 6 3 10 -2 9 -4 -2 -10 2 -11 7 -2 6 -9 16 -15 24 -10 12 -9 12 10 0 12 -7
26 -10 30 -6 4 5 1 12 -7 17 -11 7 -8 9 10 8 14 -1 31 -6 38 -11 9 -7 11 -6 7
5 -3 8 2 21 12 29 17 13 17 13 3 -5 -10 -13 -11 -17 -2 -12 7 4 21 2 30 -5 14
-11 15 -11 5 1 -17 19 -16 30 3 30 9 0 12 -5 8 -12 -4 -7 -3 -8 5 -4 9 6 9 11
-1 24 -11 13 -10 15 10 10 26 -7 46 19 36 49 -4 12 -3 14 3 6 7 -9 17 -8 41 8
18 10 37 17 41 15 5 -3 18 5 31 19 13 14 29 21 39 18 13 -4 13 -3 2 5 -20 14
1 40 32 38 24 -2 60 31 51 46 -4 6 3 5 14 -1 32 -17 37 -13 11 10 -13 11 -17
17 -9 13 28 -15 42 -14 29 2 -10 12 -9 13 6 8 13 -5 16 -4 11 4 -5 8 -2 10 8
6 11 -4 16 0 16 10 0 9 -5 16 -12 16 -6 0 -8 3 -5 6 4 4 14 1 24 -7 11 -9 14
-10 9 -2 -4 8 -2 13 4 13 7 0 10 7 6 15 -3 9 0 15 9 15 9 0 12 6 8 18 -5 15
-4 15 8 2 8 -8 13 -13 12 -11 -2 2 5 10 15 18 15 11 15 12 1 7 -10 -3 -20 -1
-24 5 -3 7 0 8 9 5 9 -3 16 -1 16 6 0 6 4 9 9 5 5 -3 12 -1 16 5 4 6 11 7 17
4 7 -4 8 -2 4 5 -4 6 -13 9 -19 5 -7 -3 -3 1 7 10 10 8 22 13 27 11 4 -3 11 0
15 6 4 7 3 9 -4 5 -6 -4 -10 1 -9 12 1 14 7 18 22 15 16 -4 17 -3 5 6 -14 10
-7 16 13 12 5 -1 6 3 2 9 -10 16 6 34 17 19 6 -10 7 -7 3 10 -5 16 -4 21 4 17
7 -5 10 -2 9 6 -2 7 3 12 10 10 8 -1 11 2 7 7 -3 6 -11 9 -18 7 -7 -1 -9 -1
-4 1 4 3 5 9 2 14 -4 5 2 6 11 2 13 -5 16 -3 11 10 -4 12 -1 17 11 17 15 0 15
2 2 10 -14 9 -13 11 9 14 15 2 26 16 26 34 0 11 7 16 20 14 20 -3 20 -3 1 11
-13 10 -16 16 -7 21 6 4 8 12 5 18 -4 7 -2 8 4 4 7 -4 12 -2 12 3 0 6 3 10 8
10 19 -3 33 2 27 11 -3 5 -13 7 -23 4 -14 -5 -15 -4 -2 5 8 6 24 11 35 11 17
0 17 2 5 10 -13 8 -13 10 2 10 9 0 20 5 24 12 4 7 3 8 -4 4 -8 -5 -10 -2 -6 8
3 9 10 13 16 10 5 -3 8 2 6 12 -2 11 2 18 9 17 8 -2 10 4 6 14 -5 12 -3 14 7
8 10 -6 12 -4 7 9 -4 10 -3 15 3 11 5 -3 14 4 20 15 6 11 15 18 21 15 5 -4 9
0 9 9 0 8 -6 17 -12 20 -7 3 -3 3 9 0 18 -4 21 -1 18 14 -2 10 1 25 7 33 8 12
9 11 5 -2 -3 -9 1 -16 8 -16 8 0 11 9 9 25 -4 19 -1 23 10 19 11 -4 13 -1 9
10 -5 12 -2 14 8 9 8 -4 5 0 -5 8 -18 14 -18 16 -3 16 15 0 16 3 6 23 -11 19
-10 20 3 10 12 -10 15 -10 15 2 0 8 -3 15 -6 15 -3 0 -6 11 -6 24 0 13 3 22 8
19 4 -2 7 2 7 11 0 8 -3 16 -7 19 -5 2 -2 2 6 0 12 -3 12 -1 0 14 -11 13 -11
15 -1 9 9 -6 12 -3 10 10 -2 12 2 18 11 16 8 -2 11 3 8 12 -4 9 3 23 17 33 12
10 20 25 18 33 -5 13 -3 13 12 1 14 -12 16 -12 11 2 -4 8 -1 18 6 23 8 5 10 3
4 -6 -6 -9 -4 -11 4 -6 9 6 9 12 -3 25 -14 15 -14 18 -1 18 8 0 12 -4 9 -9 -3
-4 0 -8 5 -8 11 0 15 14 11 39 -1 9 4 12 16 7 15 -6 15 -5 0 19 -9 14 -13 24
-9 24 13 -3 43 12 43 22 0 4 -8 6 -17 3 -10 -3 -3 4 15 16 28 19 47 41 22 25
-12 -7 -8 31 5 42 4 5 5 3 1 -4 -3 -6 -2 -14 3 -17 11 -7 24 21 24 52 0 17 3
20 12 12 9 -7 15 -7 19 -1 4 5 2 12 -4 16 -7 4 -7 12 0 24 5 10 6 22 2 26 -4
5 -1 5 6 1 9 -5 9 -12 2 -26 -9 -16 -8 -18 5 -14 9 4 13 9 11 12 -3 3 -1 11 5
19 6 7 8 13 3 13 -5 1 2 7 15 14 15 8 20 16 12 20 -6 4 -11 2 -11 -3 0 -6 -8
-11 -17 -11 -15 0 -14 2 2 14 11 8 23 12 27 10 17 -11 29 8 16 24 -10 12 -10
14 0 8 6 -4 12 -2 12 3 0 6 -5 11 -12 11 -6 0 -9 2 -6 5 11 12 37 -7 31 -23
-4 -14 -3 -15 5 -2 6 8 8 18 6 22 -5 7 11 12 29 9 5 -1 6 3 2 8 -3 6 3 15 14
21 31 16 72 60 66 70 -8 12 6 41 16 34 8 -5 13 10 10 30 -1 4 4 15 11 24 11
14 10 15 -7 8 -14 -5 -12 0 9 19 16 14 25 25 20 25 -6 0 -14 -4 -20 -10 -6 -6
-15 -5 -24 1 -12 9 -12 10 4 5 13 -5 17 -2 12 9 -3 9 6 26 25 42 16 15 27 33
25 40 -4 10 -1 11 14 3 29 -15 33 -13 28 19 -3 18 0 28 6 24 5 -4 7 0 3 10 -4
11 -1 15 12 12 10 -2 24 1 32 7 11 8 11 9 -3 4 -10 -3 -20 -1 -23 4 -4 6 1 10
9 10 10 0 13 6 9 17 -5 12 -3 14 8 8 12 -8 12 -6 0 8 -12 16 -12 17 5 10 17
-6 18 -5 4 12 -8 10 -10 16 -3 12 8 -5 11 3 9 28 -2 19 0 32 5 30 4 -3 10 -1
14 5 3 5 0 10 -7 10 -8 0 -6 5 5 11 13 8 15 14 7 30 -6 10 -7 19 -2 19 5 0 8
14 7 30 -1 17 2 30 7 30 6 0 5 7 -2 15 -7 9 -8 15 -2 15 6 0 7 13 2 36 -7 30
-6 35 7 29 13 -4 13 -3 4 9 -13 15 -11 37 4 48 6 5 6 8 -1 8 -12 0 -13 38 -1
57 4 6 3 14 -2 17 -4 3 -11 20 -15 38 -5 24 -9 29 -15 19 -7 -11 -10 -9 -15 7
-4 11 -14 26 -24 34 -15 12 -16 11 -4 -4 8 -9 11 -21 8 -27 -3 -5 -1 -12 4
-14 6 -3 5 -4 -2 -2 -7 1 -12 8 -10 14 3 13 -9 18 -60 24 -21 3 -38 1 -38 -3
0 -12 -52 -2 -61 12 -7 10 -9 10 -9 1 0 -7 -5 -13 -11 -13 -5 0 -7 6 -4 13 4
6 0 4 -8 -5 -15 -19 -32 -25 -22 -8 3 6 0 10 -7 11 -7 0 -21 2 -31 4 -9 2 -15
-1 -11 -6 3 -5 9 -7 14 -4 5 3 12 0 16 -6 5 -8 3 -9 -6 -4 -10 6 -12 4 -6 -11
6 -16 4 -15 -14 4 -15 16 -25 20 -34 13 -13 -11 -34 -10 -53 2 -7 5 -13 4 -13
0 0 -10 -64 -8 -81 2 -7 5 -10 4 -5 -3 3 -6 2 -13 -4 -17 -9 -6 -14 8 -11 28
1 5 -3 6 -8 2 -6 -3 -7 -13 -4 -23 6 -15 5 -16 -12 -2 -11 9 -16 10 -11 3 4
-8 1 -13 -9 -13 -10 0 -13 -5 -9 -12 5 -9 2 -8 -9 1 -16 12 -17 12 -10 -5 6
-16 4 -17 -8 -7 -10 8 -19 9 -29 1 -12 -8 -11 -8 5 -3 16 5 17 4 8 -6 -10 -9
-15 -10 -27 0 -11 9 -16 9 -22 0 -5 -8 -3 -9 6 -4 9 5 11 4 6 -4 -6 -8 -12 -9
-20 -2 -9 7 -17 7 -26 -2 -9 -8 -11 -9 -6 0 3 6 2 14 -4 18 -6 4 -8 11 -5 16
4 5 -3 5 -18 0 -18 -7 -31 -5 -47 6 -13 9 -20 12 -17 6 4 -6 4 -13 0 -16 -5
-2 -3 -2 4 -1 15 4 43 -22 43 -39 0 -8 -3 -8 -9 1 -11 18 -58 23 -58 6 0 -7 4
-11 8 -9 3 3 9 -5 12 -17 4 -16 3 -18 -6 -9 -13 13 -31 15 -22 2 3 -5 0 -13
-6 -17 -8 -4 -9 -3 -5 4 4 7 1 12 -9 12 -9 0 -13 -5 -10 -10 6 -10 -1 -12 -43
-13 -19 0 -20 -2 -10 -15 11 -13 10 -14 -10 -3 -12 6 -22 8 -21 4 3 -18 -2
-33 -11 -33 -5 0 -7 6 -4 13 3 8 -2 14 -10 14 -8 0 -12 -6 -8 -15 3 -10 1 -13
-7 -8 -15 10 -43 -13 -34 -28 3 -6 2 -7 -3 -3 -5 5 -9 14 -9 20 0 7 -10 13
-23 13 -17 1 -18 1 -3 -3 20 -4 19 -33 -1 -33 -5 0 -6 5 -2 12 5 7 3 8 -5 4
-7 -5 -10 -14 -7 -21 5 -14 -17 -27 -49 -30 -11 0 -19 -7 -17 -15 3 -11 0 -11
-14 1 -12 9 -15 9 -10 2 4 -8 2 -13 -7 -13 -8 0 -18 -7 -21 -16 -3 -9 -11 -12
-18 -8 -7 5 -9 2 -5 -8 4 -12 1 -14 -13 -11 -10 3 -21 0 -25 -7 -5 -8 -11 -8
-21 1 -12 10 -15 10 -12 -2 2 -8 -4 -13 -16 -12 -10 0 -28 -10 -41 -24 -16
-20 -22 -22 -22 -10 0 9 5 13 11 10 6 -4 5 1 -3 10 -15 18 -26 23 -16 7 3 -6
-1 -13 -9 -16 -9 -3 -13 -11 -9 -18 4 -6 0 -6 -9 2 -13 10 -18 10 -24 1 -4 -7
-3 -9 3 -6 11 7 28 -22 18 -31 -3 -3 -5 -1 -5 5 0 5 -6 10 -14 10 -8 0 -12 -6
-8 -15 3 -10 1 -13 -7 -8 -6 4 -11 4 -10 -1 3 -18 -1 -36 -8 -30 -8 9 -33 -12
-33 -27 0 -6 7 -2 15 8 8 11 15 16 15 10 0 -5 7 0 15 10 8 11 15 15 15 9 0 -7
-4 -15 -10 -18 -6 -3 -10 -11 -10 -16 0 -6 5 -7 12 -3 7 4 8 3 4 -5 -6 -9 -11
-9 -21 -1 -10 8 -17 6 -29 -11 -8 -13 -19 -19 -23 -15 -4 4 -1 12 7 17 13 9
13 10 -1 6 -9 -3 -21 -1 -26 4 -6 6 -10 4 -10 -5 0 -8 4 -13 9 -10 4 3 8 0 8
-5 0 -6 -7 -11 -16 -11 -14 0 -15 -2 -3 -17 12 -15 12 -16 -3 -11 -20 8 -25
-5 -24 -54 1 -26 -3 -38 -12 -38 -7 0 -11 -4 -7 -10 3 -5 13 -7 23 -4 9 3 4
-2 -11 -11 -24 -14 -27 -19 -15 -33 20 -27 22 -28 15 -10 -3 10 1 22 11 30 15
11 15 11 5 -3 -7 -9 -10 -19 -6 -22 3 -4 1 -13 -5 -20 -7 -8 -9 -17 -5 -20 3
-4 0 -13 -7 -22 -7 -8 -8 -15 -3 -15 5 0 10 -7 10 -16 0 -15 -2 -14 -13 1 -9
12 -10 22 -4 30 11 14 7 42 -8 57 -9 9 -12 9 -12 0 0 -7 5 -12 11 -12 5 0 7
-5 4 -10 -4 -6 -11 -7 -17 -4 -7 4 -8 2 -4 -5 4 -6 12 -8 18 -5 7 4 8 2 4 -5
-4 -6 -13 -11 -19 -10 -34 4 -40 -3 -17 -16 l25 -15 -33 5 c-28 5 -31 3 -20
-9 7 -8 17 -11 22 -8 5 3 6 0 2 -6 -8 -14 -41 0 -49 20 -3 7 -4 -7 -1 -32 2
-30 0 -40 -6 -30 -5 8 -6 18 -4 22 3 4 0 8 -6 8 -6 0 -8 5 -4 12 4 6 3 8 -4 5
-11 -7 -5 -44 10 -64 6 -8 4 -10 -9 -8 -10 1 -17 7 -16 13 1 5 -7 12 -19 15
-15 4 -18 3 -10 -5 8 -8 7 -15 -6 -25 -9 -8 -11 -12 -4 -8 6 3 12 1 12 -4 0
-6 -7 -11 -15 -11 -8 0 -19 -9 -25 -20 -6 -11 -15 -18 -20 -15 -11 7 -7 -22 5
-32 4 -4 5 -2 0 6 -6 10 -4 12 5 6 9 -5 11 -4 6 3 -5 8 -1 10 9 5 13 -5 14 -7
3 -14 -7 -5 -13 -14 -13 -21 0 -7 -10 -14 -23 -16 -12 -2 -20 -8 -17 -13 4 -5
1 -9 -5 -9 -21 0 -4 24 21 30 16 4 20 8 12 13 -14 9 -53 -9 -53 -24 0 -6 -5
-7 -12 -3 -8 5 -9 2 -5 -10 5 -14 3 -17 -8 -13 -8 4 -17 1 -21 -5 -4 -7 -3 -8
4 -4 17 10 15 -4 -2 -23 -15 -17 -5 -53 11 -38 4 5 2 12 -6 16 -10 7 -10 9 1
14 16 5 18 -1 21 -62 1 -24 6 -37 12 -33 5 4 19 5 30 4 15 -2 16 0 7 6 -11 7
-10 10 3 15 9 4 13 3 10 -2 -9 -15 14 -24 29 -12 7 6 16 7 20 3 4 -4 6 0 4 8
-2 10 4 14 17 12 16 -2 17 -1 5 7 -8 5 -17 8 -21 5 -14 -8 -20 16 -9 33 10 16
10 16 5 -2 -4 -16 0 -21 20 -23 14 -1 25 3 25 9 0 5 -4 8 -9 4 -5 -3 -12 -2
-15 3 -2 4 4 9 15 9 10 1 19 -2 19 -8 0 -5 7 -9 15 -9 8 0 15 5 15 11 0 5 -5
7 -12 3 -7 -4 -8 -3 -4 4 4 7 2 12 -5 12 -7 0 -10 2 -7 5 10 10 38 -7 38 -24
0 -14 2 -14 10 -1 8 13 10 12 10 -3 0 -10 6 -17 13 -15 6 1 26 -6 42 -15 27
-16 28 -17 5 -12 -17 4 -21 3 -12 -3 17 -11 17 -22 2 -32 -8 -5 -7 -9 3 -13
11 -4 15 0 12 14 -2 10 0 19 6 19 5 0 7 -11 5 -24 -2 -14 1 -27 7 -29 8 -2 8
-5 -1 -11 -7 -4 -12 -2 -12 4 0 6 -5 8 -12 4 -7 -5 -8 -2 -3 7 5 8 5 11 0 7
-4 -4 -14 -3 -21 3 -10 8 -11 6 -1 -14 6 -14 16 -23 21 -20 5 4 6 0 1 -7 -6
-10 -3 -12 11 -7 17 6 17 6 3 -5 -9 -7 -17 -17 -17 -23 -1 -5 -13 -9 -26 -10
-13 0 -28 -3 -32 -7 -3 -4 2 -6 13 -4 11 3 20 -1 20 -8 0 -8 -10 -11 -26 -9
-14 2 -20 0 -13 -3 18 -9 15 -25 -5 -22 -13 2 -17 -5 -18 -27 -1 -31 -23 -75
-38 -75 -4 0 -6 4 -2 9 3 5 1 12 -4 15 -11 7 -9 -13 2 -31 6 -9 3 -11 -7 -7
-15 6 -20 17 -17 37 0 4 -4 7 -10 7 -6 0 -9 -8 -7 -18 3 -11 0 -19 -8 -19 -7
0 -12 5 -11 10 3 13 -32 17 -40 5 -4 -7 -1 -8 7 -3 9 6 11 4 6 -4 -5 -7 -14
-10 -22 -7 -8 3 -13 2 -13 -2 3 -21 -2 -32 -13 -26 -8 5 -9 2 -5 -9 4 -12 1
-17 -11 -17 -13 0 -14 -2 -4 -9 10 -6 10 -10 -3 -21 -11 -10 -13 -16 -4 -26 9
-11 7 -15 -5 -20 -9 -3 -13 -10 -10 -15 3 -5 11 -7 17 -3 7 3 1 -4 -13 -16
-14 -12 -20 -19 -13 -16 6 4 14 2 18 -4 3 -5 -1 -10 -9 -10 -10 0 -14 -8 -11
-27 2 -16 2 -22 -1 -15 -7 16 -25 16 -22 0 2 -7 -3 -12 -11 -10 -12 3 -12 0
-1 -13 11 -13 10 -14 -5 -9 -13 5 -16 4 -11 -5 4 -6 4 -11 -1 -10 -22 4 -34
-2 -27 -13 4 -7 4 -10 -1 -6 -4 4 -14 3 -22 -4 -9 -7 -13 -8 -11 -1 2 6 -1 11
-7 11 -5 0 -9 -4 -7 -10 1 -5 -2 -7 -8 -3 -6 3 -8 11 -5 16 4 5 1 9 -6 9 -7 0
-9 -8 -6 -21 4 -17 3 -18 -9 -8 -12 10 -13 9 -8 -6 6 -14 4 -16 -7 -11 -8 4
-5 0 6 -10 18 -15 18 -16 1 -10 -14 5 -17 3 -12 -10 5 -14 4 -15 -9 -4 -13 11
-14 10 -9 -4 4 -10 0 -18 -11 -22 -13 -5 -14 -9 -3 -15 8 -6 9 -12 3 -16 -5
-5 -10 -14 -11 -20 -2 -29 -4 -34 -13 -28 -5 3 -12 1 -16 -5 -3 -6 4 -10 17
-10 18 0 20 -2 8 -9 -8 -6 -18 -7 -22 -5 -4 3 -8 0 -8 -5 0 -6 5 -11 11 -11 8
0 8 -4 -1 -15 -6 -8 -9 -18 -7 -22 3 -5 -3 -10 -14 -10 -17 -2 -18 0 -4 13 19
19 19 20 1 27 -10 4 -13 1 -9 -9 3 -7 1 -14 -5 -14 -5 0 -9 13 -8 30 2 21 -2
30 -13 31 -12 0 -11 2 3 8 11 4 20 15 22 25 2 11 -2 16 -11 12 -9 -3 -12 0 -9
9 3 8 9 14 12 13 19 -2 22 4 11 24 -10 18 -9 20 5 15 9 -4 16 -2 16 2 0 5 -7
12 -16 15 -13 5 -14 9 -4 21 10 12 9 15 -4 15 -9 0 -16 4 -16 10 0 5 8 7 18 4
14 -5 15 -4 2 5 -8 6 -10 11 -5 11 6 0 3 5 -5 10 -8 5 -24 7 -35 3 -17 -5 -18
-4 -7 10 10 12 10 17 1 23 -8 4 -9 3 -5 -5 4 -6 0 -14 -8 -17 -9 -3 -13 -10
-10 -15 3 -5 -2 -6 -11 -3 -14 6 -14 9 2 28 10 11 11 15 3 8 -18 -15 -34 -16
-24 0 4 6 3 8 -4 5 -14 -9 -9 -36 9 -48 8 -5 9 -9 3 -9 -6 0 -17 7 -24 15 -7
8 -17 12 -22 9 -5 -3 -16 3 -24 15 -14 20 -16 20 -40 5 -22 -15 -24 -15 -18 0
3 9 10 14 14 11 5 -3 11 -1 15 5 4 6 10 8 15 5 14 -9 23 16 11 28 -9 9 -11 8
-6 -5 5 -13 2 -16 -14 -13 -23 4 -55 -31 -44 -48 4 -6 0 -8 -9 -4 -16 6 -19
-8 -5 -30 4 -6 2 -15 -4 -19 -8 -5 -9 -3 -4 7 8 12 6 12 -8 0 -10 -8 -15 -16
-12 -19 3 -3 -2 -16 -10 -28 -10 -15 -11 -25 -4 -29 7 -5 7 -11 0 -19 -6 -7
-9 -15 -6 -18 3 -3 -1 -11 -10 -18 -9 -7 -15 -8 -15 -2 0 6 3 12 8 15 4 2 0 1
-8 -1 -8 -3 -28 -5 -45 -6 -16 0 -36 -7 -43 -15 -10 -14 -11 -13 -5 4 6 18 5
18 -10 6 -12 -9 -17 -10 -17 -2 0 7 -4 9 -10 6 -6 -3 -10 -1 -10 5 0 6 -4 9
-9 6 -5 -3 -12 1 -15 10 -3 8 -2 12 4 9 6 -3 10 -2 10 3 0 6 -7 13 -15 16 -9
3 -15 11 -14 18 5 43 -2 78 -17 78 -10 0 -14 6 -11 14 4 9 0 13 -11 11 -9 -2
-32 -4 -50 -4 -19 -1 -31 -5 -27 -11 3 -6 -1 -7 -10 -4 -14 6 -14 8 2 21 10 8
12 12 5 8 -7 -4 -16 3 -22 17 -11 23 -11 23 -6 1 2 -13 0 -26 -5 -29 -5 -3 -9
-2 -8 3 5 32 -2 52 -18 46 -10 -4 -14 -2 -9 5 3 6 2 13 -4 17 -6 4 -7 11 -4
17 4 6 2 8 -4 4 -6 -3 -16 2 -22 11 -10 16 -11 16 -6 1 3 -10 2 -19 -2 -22 -4
-3 -9 5 -9 16 -1 12 -7 26 -14 32 -9 8 -10 8 -5 -1 5 -9 2 -11 -9 -7 -12 5
-13 10 -4 20 8 10 6 12 -11 9 -18 -3 -20 -1 -14 18 6 22 6 22 -11 2 -9 -11
-14 -14 -10 -7 3 6 0 15 -9 18 -8 3 -12 12 -9 20 4 10 0 12 -13 7 -17 -6 -18
-5 -4 12 9 11 10 16 3 11 -12 -6 -17 4 -15 25 1 4 -9 4 -21 1 -21 -5 -21 -5
-4 12 21 21 22 27 2 20 -14 -6 -21 18 -16 49 1 5 -3 6 -9 2 -5 -3 -10 3 -10
14 0 12 -4 21 -9 21 -5 0 -12 7 -15 16 -3 8 -2 12 4 9 6 -3 10 -1 10 4 0 6 -5
11 -11 11 -5 0 -7 5 -4 10 3 6 2 10 -2 10 -5 0 -14 10 -22 22 -13 21 -13 22 3
9 9 -8 19 -11 23 -7 3 3 1 6 -5 6 -7 0 -12 7 -12 15 0 8 -4 15 -8 15 -5 0 -9
14 -10 31 0 18 -6 37 -11 42 -6 6 -11 16 -11 22 0 5 5 3 10 -5 5 -8 10 -10 10
-3 0 15 -59 65 -70 58 -4 -3 -14 3 -21 12 -10 12 -10 14 -1 9 6 -4 12 -2 12 3
0 6 -5 11 -11 11 -7 0 -9 9 -6 21 5 17 3 18 -10 7 -15 -12 -15 -11 -4 9 7 15
8 23 1 23 -5 0 -10 7 -10 15 0 8 -6 15 -12 15 -9 0 -8 4 2 10 10 6 11 10 3 10
-7 0 -13 7 -13 15 0 8 -5 15 -11 15 -6 0 -9 6 -6 14 8 19 -3 28 -19 15 -9 -8
-11 -5 -7 9 2 11 0 23 -7 27 -8 5 -8 10 1 21 9 11 8 14 -2 14 -10 0 -14 13
-14 46 1 25 -3 48 -7 50 -5 3 -6 9 -3 14 3 5 0 12 -6 16 -8 5 -8 9 1 14 10 6
9 13 -3 31 -13 18 -14 26 -4 38 9 11 9 13 0 8 -9 -6 -11 2 -9 27 1 19 -1 33
-5 31 -12 -8 -17 33 -6 44 8 8 8 11 0 11 -7 0 -12 8 -12 18 -1 39 -5 52 -14
52 -5 0 -4 7 3 15 9 11 10 15 1 15 -7 0 -11 10 -9 25 2 15 -4 30 -17 40 -11 9
-15 14 -9 11 7 -3 15 1 18 10 4 11 2 15 -8 11 -10 -4 -12 0 -8 15 4 16 2 19
-9 13 -11 -6 -12 -5 -1 6 13 14 17 53 5 46 -5 -3 -9 6 -9 19 -1 13 2 24 8 24
5 0 6 -5 2 -12 -4 -7 -3 -8 5 -4 14 9 5 26 -15 26 -8 0 -12 5 -9 10 4 6 11 7
17 4 7 -4 8 -2 4 4 -4 6 -14 8 -24 5 -15 -6 -15 -5 -3 10 8 10 11 20 7 24 -3
3 -6 0 -7 -8 0 -8 -4 -5 -8 6 -5 11 -5 25 0 30 5 7 0 11 -13 12 -28 3 -34 11
-18 26 10 10 11 9 5 -2 -5 -9 -4 -12 3 -7 6 4 9 13 6 21 -4 8 -11 12 -17 8 -6
-4 -8 2 -5 15 7 26 -8 30 -16 5 -3 -10 -4 -6 -2 10 2 15 0 30 -5 33 -4 2 -6
11 -2 19 3 8 0 15 -7 15 -6 0 -8 5 -4 12 4 7 3 8 -5 4 -6 -4 -8 -12 -5 -18 4
-7 2 -8 -5 -4 -6 4 -11 13 -10 19 4 32 -1 40 -16 27 -13 -11 -14 -10 -10 2 4
9 0 18 -9 21 -12 5 -14 12 -6 32 7 19 6 25 -4 25 -8 0 -17 7 -20 16 -4 10 -2
13 7 8 8 -6 8 -3 -1 9 -8 9 -10 22 -6 28 4 8 3 9 -4 5 -8 -5 -12 1 -12 16 0
13 -6 30 -12 36 -10 10 -10 15 0 21 11 7 10 10 -3 15 -9 3 -13 10 -10 16 3 5
-3 10 -13 10 -16 0 -20 6 -18 29 2 24 -1 28 -14 21 -10 -5 -22 -3 -35 7 -16
12 -16 14 -3 10 10 -3 20 -3 22 2 5 7 -9 11 -48 12 -18 0 -18 0 0 14 11 7 16
17 11 21 -4 4 -7 2 -7 -4 0 -7 -5 -12 -11 -12 -6 0 -8 7 -5 16 3 8 2 13 -3 10
-5 -4 -11 17 -13 44 -2 36 0 49 9 46 7 -3 10 1 6 9 -3 8 -10 12 -17 9 -6 -3
-3 1 6 8 11 10 14 19 8 28 -6 10 -4 23 6 39 9 13 11 20 5 17 -6 -4 -11 0 -11
9 0 10 5 14 13 9 9 -5 9 -4 0 6 -9 10 -9 16 2 27 8 7 12 20 9 28 -4 8 -1 15 5
15 6 0 8 7 5 15 -4 8 -2 15 4 15 5 0 9 16 8 35 -1 19 2 35 6 35 3 0 3 13 -2
29 -4 16 -6 32 -2 35 3 3 0 6 -8 6 -9 0 -9 4 -2 13 7 8 6 18 -3 31 -8 10 -11
25 -8 34 4 8 2 13 -3 9 -5 -3 -11 6 -12 21 -3 52 -5 62 -16 62 -6 0 -5 5 2 12
15 15 16 31 0 22 -7 -5 -9 -2 -5 8 3 9 0 21 -6 28 -9 10 -9 11 3 5 11 -6 10
-3 -3 12 -9 11 -14 23 -10 26 3 4 1 7 -5 7 -6 0 -9 7 -5 17 4 11 3 14 -6 9 -8
-5 -10 0 -7 18 3 14 0 28 -5 31 -14 9 -11 27 4 20 6 -4 4 0 -6 8 -12 10 -15
17 -7 22 8 5 8 10 0 20 -7 8 -9 19 -5 25 4 6 1 9 -6 8 -6 -2 -14 3 -17 11 -2
8 0 11 5 8 5 -3 10 0 10 8 0 8 -4 12 -9 9 -4 -3 -8 3 -8 13 0 11 -5 24 -12 31
-7 7 -8 12 -3 12 4 0 0 9 -10 20 -18 20 -18 21 1 14 18 -7 18 -7 -1 16 -12 14
-14 20 -5 15 12 -7 11 -3 -3 18 -17 26 -17 27 0 27 17 1 17 1 0 11 -9 6 -14
15 -11 21 4 6 0 14 -7 19 -12 7 -12 9 0 9 11 0 10 4 -5 16 -10 8 -13 13 -6 9
6 -3 12 -1 12 4 0 6 -7 11 -15 11 -8 0 -15 5 -15 11 0 5 4 8 8 5 4 -2 8 4 8
14 0 10 -4 16 -8 14 -4 -3 -8 0 -8 6 0 6 -5 8 -11 5 -13 -9 -8 27 6 38 6 5 4
7 -5 4 -8 -2 -15 -9 -15 -14 0 -6 -3 -14 -8 -17 -4 -3 -5 -3 -2 0 2 4 0 16 -6
27 -8 14 -8 18 0 13 6 -4 11 -4 12 1 0 4 2 18 3 30 1 12 -1 20 -4 18 -4 -3 -7
6 -7 20 -1 14 3 23 7 20 4 -3 6 12 4 32 -2 20 2 44 9 52 9 12 9 13 0 7 -7 -4
-13 -3 -13 3 0 5 4 12 8 15 10 6 6 71 -4 88 -4 6 -3 8 2 5 6 -3 8 15 5 46 -2
29 -5 67 -5 85 -1 17 -5 32 -11 32 -5 0 -3 5 5 10 10 6 11 10 3 10 -7 0 -13 7
-13 16 0 9 -5 12 -12 8 -8 -5 -8 -1 2 12 8 10 11 16 6 12 -5 -4 -18 -2 -30 4
-19 10 -20 10 -7 -5 17 -21 8 -22 -13 -1 -12 12 -16 12 -16 2 0 -10 -3 -9 -10
2 -6 9 -13 11 -17 5 -5 -5 -15 -11 -23 -13 -13 -2 -13 -1 0 10 16 13 23 88 8
88 -4 0 -8 5 -8 11 0 5 4 8 9 5 8 -5 8 15 1 34 -1 3 -2 9 -1 13 1 4 -6 10 -14
13 -8 4 -15 10 -15 16 0 5 4 6 10 3 6 -3 7 1 4 10 -6 14 -8 14 -19 -2 -13 -17
-13 -17 -12 2 2 16 -3 19 -23 18 l-25 -3 24 14 c14 8 19 16 13 20 -6 3 -12 0
-15 -6 -2 -7 -8 -10 -12 -6 -4 4 -2 15 6 25 12 14 12 16 0 8 -11 -6 -13 -4 -8
8 3 9 -1 21 -11 29 -13 11 -14 11 -7 -1 5 -10 4 -12 -3 -7 -7 4 -12 14 -12 22
0 8 -5 14 -11 14 -5 0 -7 5 -4 10 3 6 1 10 -5 10 -6 0 -8 6 -4 13 6 10 4 10
-7 0 -16 -15 -39 -17 -39 -3 0 5 7 6 17 3 10 -4 14 -2 10 4 -4 6 -3 13 3 15 6
2 0 9 -12 17 -21 13 -22 13 -9 -2 7 -10 9 -17 3 -17 -5 0 -15 7 -22 15 -7 8
-18 15 -24 15 -6 0 -4 -5 4 -10 22 -14 21 -61 -1 -50 -9 5 -20 6 -24 2 -5 -4
-5 -2 -1 5 3 6 2 15 -4 18 -8 5 -7 12 2 23 11 13 11 14 0 8 -9 -5 -15 -1 -19
13 -3 11 -9 18 -14 15 -5 -3 -6 -10 -3 -16 4 -7 2 -8 -4 -4 -9 5 -9 13 0 29
11 21 10 21 -7 7 -10 -8 -16 -10 -12 -4 8 14 -50 84 -71 85 -10 0 -12 3 -5 6
10 3 10 7 0 18 -7 7 -15 11 -19 8 -4 -2 -5 4 -1 13 4 11 3 15 -4 11 -7 -4 -10
0 -9 10 2 10 -2 21 -8 26 -8 5 -6 10 4 18 13 9 12 10 -2 5 -10 -3 -18 -1 -18
5 0 6 -4 7 -10 4 -6 -3 -7 1 -4 9 3 9 1 16 -6 16 -6 0 -8 4 -5 10 4 6 -1 7
-11 3 -11 -4 -15 -3 -10 5 3 6 2 13 -4 17 -6 4 -8 11 -5 16 3 5 -2 6 -11 2
-12 -4 -15 -3 -10 5 4 7 2 12 -3 12 -6 0 -11 9 -11 20 0 12 -7 20 -17 20 -15
0 -16 2 -3 10 15 9 4 15 -22 11 -4 0 -4 11 -2 25 4 20 1 25 -9 21 -7 -3 -14 1
-14 9 0 7 5 10 11 7 6 -4 5 1 -3 10 -12 15 -11 17 5 17 16 0 17 2 4 10 -13 9
-8 14 11 12 9 -2 -1 40 -15 58 -10 13 -9 13 7 1 25 -20 30 -8 7 16 -14 15 -16
23 -7 26 7 3 4 6 -5 6 -10 1 -18 5 -18 10 0 5 -7 12 -16 15 -15 6 -15 4 -3
-10 13 -16 12 -16 -8 -4 -12 8 -19 18 -17 22 3 4 -5 8 -18 9 -22 0 -22 1 -3 9
18 8 18 9 2 9 -12 1 -16 5 -11 14 5 7 1 7 -12 -3 -10 -8 -16 -10 -12 -6 4 5 0
15 -10 23 -16 12 -15 13 3 7 12 -4 6 4 -14 20 -37 28 -46 32 -36 16 3 -5 2
-10 -4 -10 -5 0 -11 6 -14 13 -3 8 -10 6 -22 -8 -9 -11 -13 -14 -9 -6 4 9 0
19 -11 28 -11 7 -14 13 -8 13 7 0 11 9 10 19 0 11 -5 17 -9 15 -4 -3 -8 1 -8
8 0 8 -3 9 -8 3 -10 -14 -32 -17 -32 -5 0 5 5 10 10 10 6 0 10 4 10 10 0 5 -7
6 -17 3 -11 -4 -14 -3 -9 6 4 6 4 11 -1 10 -19 -3 -33 2 -33 12 0 5 4 8 8 5 5
-3 9 1 9 8 0 16 -58 16 -70 1 -5 -5 -5 0 -2 13 5 18 2 22 -16 22 -19 0 -20 2
-8 17 10 11 10 14 2 9 -7 -4 -13 -2 -13 3 0 6 -8 11 -17 11 -15 0 -16 2 -3 10
13 8 13 10 -2 10 -9 0 -20 9 -23 20 -4 11 -11 18 -16 15 -5 -4 -9 -2 -9 4 0 5
-11 8 -25 7 -13 -2 -22 0 -20 5 3 4 -1 14 -9 22 -8 8 -12 17 -9 21 4 3 1 6 -6
6 -7 0 -9 4 -6 10 4 6 -1 7 -12 3 -16 -6 -16 -5 -4 11 8 9 10 16 5 15 -24 -4
-34 3 -34 26 0 14 -4 25 -10 25 -5 0 -8 -6 -6 -12 1 -7 1 -10 -1 -5 -3 4 -9 5
-14 2 -5 -4 -6 2 -2 11 4 12 3 15 -5 10 -8 -5 -10 -1 -5 10 5 13 3 15 -7 9 -9
-6 -11 -4 -5 5 6 10 11 10 20 -3 7 -10 16 -17 20 -17 4 0 2 6 -4 13 -6 8 -8
17 -5 20 4 4 -4 4 -17 1 -13 -3 -35 -7 -49 -8 -14 -1 -32 -6 -40 -11 -13 -8
-13 -6 0 10 14 17 13 18 -3 12 -10 -4 -21 -7 -23 -7 -3 0 -2 -4 1 -10 10 -16
-1 -11 -16 7 -8 9 -9 14 -4 11 6 -4 17 -2 25 3 11 7 9 8 -9 6 -30 -5 -37 -20
-16 -37 8 -7 15 -17 15 -23 0 -22 -35 38 -35 61 -1 17 3 21 18 16 13 -4 17 -2
13 5 -4 6 -14 11 -23 11 -9 0 -21 7 -27 16 -10 13 -12 13 -12 -5 0 -11 5 -17
10 -14 5 3 6 1 2 -5 -3 -5 -1 -12 6 -14 8 -3 8 -9 -1 -24 -7 -10 -10 -12 -8
-4 8 26 -22 51 -47 39 -20 -10 -20 -9 -2 5 10 9 23 13 29 9 6 -4 7 -1 1 8 -4
8 -9 20 -10 27 -3 18 -14 29 -14 14 0 -7 -4 -12 -10 -12 -5 0 -10 7 -10 15 0
18 -16 20 -26 3 -4 -7 -3 -8 4 -4 8 5 10 1 6 -9 -6 -14 -8 -13 -21 5 -8 11
-18 18 -22 15 -5 -2 -6 6 -4 19 3 13 -1 27 -8 31 -9 6 -11 3 -6 -9 5 -11 3
-15 -5 -10 -7 5 -9 2 -5 -9 4 -11 2 -14 -9 -10 -11 4 -12 9 -4 18 13 16 -2 28
-24 19 -9 -3 -13 -11 -9 -18 11 -17 12 -37 2 -30 -5 3 -7 10 -4 15 4 5 -1 12
-9 15 -13 5 -12 9 7 25 14 12 17 18 7 17 -8 -2 -14 2 -13 9 2 7 -4 10 -12 6
-13 -5 -13 -7 2 -20 12 -9 13 -12 3 -9 -8 3 -23 9 -33 12 -20 7 -22 20 -5 30
7 5 8 3 3 -7 -8 -12 -6 -12 8 0 22 18 21 21 -3 16 -13 -2 -20 2 -20 11 0 8 -7
14 -15 14 -8 0 -15 -6 -15 -12 0 -8 -3 -9 -8 -3 -4 6 -17 11 -29 13 -18 2 -21
-1 -19 -23 2 -14 -2 -28 -8 -32 -6 -3 -8 -2 -3 2 4 5 -1 17 -10 27 -14 15 -14
18 -2 13 10 -4 16 0 16 9 0 11 -8 14 -24 12 -16 -3 -23 0 -23 11 0 13 3 13 15
3 13 -11 14 -10 9 4 -8 21 -20 20 -33 -1 -9 -15 -10 -15 -11 -2 0 8 5 20 10
25 7 7 6 11 -4 11 -8 0 -13 -4 -10 -9 3 -4 -7 -13 -22 -18 -20 -8 -29 -8 -35
1 -4 6 -12 8 -19 4 -9 -5 -11 -4 -6 3 4 7 3 12 -3 12 -5 0 -12 -6 -15 -12 -3
-7 -4 -4 -3 7 1 11 -3 19 -9 18 -6 -1 -11 5 -11 12 0 10 4 12 12 5 6 -5 16 -5
25 2 13 8 12 9 -2 5 -9 -3 -22 1 -29 9 -10 13 -14 12 -32 -3 -11 -10 -18 -13
-14 -7 8 14 -40 37 -56 27 -7 -4 -5 2 3 13 14 17 13 18 -1 7 -12 -10 -18 -10
-27 -1 -9 9 -15 9 -24 0 -7 -7 -21 -12 -33 -12 -19 -1 -19 -1 -2 -14 15 -12
15 -14 2 -19 -8 -4 -14 -3 -14 1 1 4 0 9 -1 12 -9 25 -7 41 6 36 8 -3 14 -1
14 5 0 6 5 7 12 3 6 -4 8 -3 5 3 -10 15 -70 6 -85 -14 -14 -17 -14 -17 -7 2
17 48 16 59 -4 41 -16 -14 -20 -15 -30 -2 -13 16 -41 11 -41 -6 0 -6 8 -4 18
3 15 13 16 12 3 -3 -16 -21 -31 -15 -31 13 0 11 -5 17 -10 14 -6 -4 -7 -12 -4
-18 5 -9 3 -8 -6 0 -11 10 -10 17 6 35 l19 23 -22 -19 c-13 -11 -23 -15 -23
-9 0 5 -7 10 -16 10 -15 0 -15 -1 0 -12 15 -11 15 -13 1 -19 -10 -4 -14 -2 -9
5 4 7 1 10 -7 7 -8 -3 -13 -11 -11 -17 1 -7 -3 -9 -9 -6 -8 5 -8 10 0 18 17
17 13 31 -5 16 -15 -12 -16 -11 -11 11 4 14 4 19 1 12 -3 -6 -10 -10 -15 -6
-5 3 -4 -7 1 -21 7 -17 7 -24 0 -20 -6 3 -10 12 -10 19 0 8 -9 24 -21 37 l-20
24 11 -24 c8 -15 9 -26 2 -33 -7 -7 -10 -4 -9 8 1 11 -3 18 -10 17 -8 -2 -10
4 -7 15 4 13 4 14 -4 4 -13 -19 -16 -19 -36 1 -10 9 -22 15 -27 12 -5 -4 -9
-1 -9 5 0 7 -7 9 -17 6 -9 -4 -20 -1 -25 6 -6 9 -7 5 -3 -9 3 -13 1 -31 -5
-40 -10 -16 -10 -16 -5 3 4 14 1 21 -10 21 -8 0 -15 -4 -15 -9 0 -4 -5 -8 -11
-8 -5 0 -7 5 -4 10 3 6 -1 10 -9 10 -8 0 -20 -8 -25 -17 -6 -10 -10 -13 -10
-8 0 17 23 40 43 43 10 2 16 -1 12 -6 -3 -5 1 -9 9 -9 8 0 15 4 15 9 0 4 -6 8
-12 8 -9 0 -8 3 2 10 11 7 9 8 -11 6 -13 -1 -31 -6 -39 -11 -10 -6 -12 -4 -7
11 6 16 5 17 -6 4 -18 -22 -35 -22 -42 1 -4 11 -13 18 -20 15 -7 -2 -16 -2
-20 2 -4 4 -12 7 -18 7 -7 0 -11 8 -9 18 4 23 -5 21 -19 -4 -9 -17 -8 -20 2
-14 8 5 10 4 5 -3 -12 -19 -29 -14 -23 7 2 10 1 25 -4 32 -6 10 -9 10 -9 2 0
-7 -7 -10 -15 -7 -21 8 -45 -14 -38 -34 4 -13 3 -14 -5 -4 -10 15 7 64 20 56
5 -3 8 -1 8 5 0 12 -20 26 -20 14 -1 -21 -37 -55 -45 -43 -5 8 -4 11 2 7 6 -4
17 13 26 36 11 27 12 36 4 25 -12 -15 -15 -14 -31 13 -10 17 -20 28 -24 25 -3
-3 -11 -1 -18 5 -11 9 -16 6 -23 -12 -7 -18 -10 -19 -10 -6 -1 9 -5 17 -11 17
-5 0 -10 5 -10 11 0 8 5 8 15 -1 10 -9 15 -9 15 -1 0 11 -13 15 -39 12 -8 -2
-10 2 -5 10 4 8 3 10 -4 5 -6 -4 -25 0 -41 8 -29 15 -29 15 -27 -9 2 -13 -1
-22 -5 -19 -5 3 -9 14 -9 25 0 10 -4 19 -10 19 -5 0 -10 -9 -10 -20 0 -11 -5
-20 -11 -20 -5 0 -7 5 -4 10 3 6 -4 10 -16 10 -17 0 -19 -3 -10 -14 9 -11 9
-16 -1 -22 -7 -4 -10 -4 -6 1 4 4 0 14 -8 22 -8 8 -12 18 -9 23 3 5 0 12 -6
16 -7 4 -9 3 -5 -4z m49 -209 c-7 -3 -13 -9 -13 -14 0 -6 5 -7 10 -4 6 3 10 1
10 -5 0 -7 -6 -10 -13 -7 -7 3 -21 -1 -32 -9 -18 -13 -17 -14 11 -12 16 1 34
5 40 10 7 5 14 3 17 -6 4 -10 1 -13 -9 -9 -14 5 -14 3 -4 -14 17 -26 40 -25
37 1 -1 12 5 22 15 24 11 2 17 -3 16 -15 -1 -26 5 -47 17 -55 16 -12 27 -9 19
5 -6 9 -5 9 8 0 8 -7 19 -9 23 -5 5 4 5 2 1 -5 -4 -7 4 -29 17 -50 24 -38 24
-38 4 -53 -19 -15 -19 -16 -1 -30 16 -13 17 -13 11 2 -10 27 14 34 33 10 10
-12 19 -19 22 -17 2 2 5 -6 5 -18 2 -18 0 -19 -7 -6 -6 11 -20 15 -40 13 -19
-2 -30 1 -30 9 0 8 -4 7 -10 -3 -9 -15 -15 -4 -12 21 1 4 -10 6 -23 5 -14 0
-24 -5 -22 -9 1 -5 6 -8 11 -7 12 2 30 -30 22 -37 -3 -4 -6 -1 -6 5 0 7 -5 12
-11 12 -6 0 -8 -7 -5 -16 3 -9 2 -12 -4 -9 -6 4 -9 14 -8 22 2 9 -3 18 -11 21
-9 3 -11 0 -6 -9 6 -11 5 -12 -6 -1 -7 6 -18 12 -23 12 -6 0 2 -12 17 -26 15
-14 24 -30 21 -36 -5 -7 -1 -9 9 -5 17 6 14 -15 -6 -40 -6 -9 -6 -13 1 -13 12
0 34 25 27 31 -2 3 5 5 16 6 19 2 18 1 -3 -17 -13 -11 -17 -19 -10 -20 6 0 12
-5 12 -11 0 -8 -4 -8 -14 0 -10 8 -15 9 -18 1 -2 -6 -12 -13 -23 -15 -11 -2
-20 -4 -20 -5 0 -1 -8 -3 -18 -5 -9 -2 -15 1 -11 6 13 22 15 61 2 53 -10 -6
-11 -5 -1 8 7 8 10 18 7 21 -8 8 -33 -16 -27 -25 2 -5 -1 -8 -6 -8 -6 0 -11 5
-11 11 0 5 -4 7 -10 4 -6 -4 -7 1 -3 12 6 16 5 16 -10 5 -8 -8 -14 -19 -11
-25 8 -23 -31 -37 -55 -20 -29 20 -11 45 28 37 14 -3 22 -2 16 3 -15 12 -15
42 1 36 7 -2 10 -12 7 -21 -5 -13 -3 -14 6 -6 10 10 10 17 0 35 -7 13 -12 28
-11 32 1 5 -3 5 -9 1 -8 -4 -9 -3 -5 5 4 6 12 9 17 6 15 -10 10 12 -7 29 -8 9
-21 13 -27 9 -19 -12 -38 -12 -31 -1 4 7 2 8 -4 4 -7 -4 -10 -2 -9 6 2 7 2 9
-1 4 -2 -4 -8 -2 -13 5 -7 10 -8 9 -6 -6 1 -11 7 -27 12 -35 14 -23 16 -50 4
-50 -6 0 -9 9 -6 20 3 11 1 20 -4 20 -5 0 -9 -2 -9 -4 0 -2 -3 -11 -6 -20 -4
-11 3 -19 22 -27 l29 -10 -25 -20 c-15 -11 -18 -17 -7 -13 9 3 17 2 17 -4 0
-14 -33 -8 -38 6 -2 7 -9 9 -14 6 -7 -4 -8 -2 -4 4 4 6 13 9 20 6 8 -3 17 -1
21 5 3 6 1 11 -5 11 -22 0 -40 26 -27 39 9 9 8 14 -3 22 -12 9 -12 10 4 5 14
-5 17 -2 12 10 -3 8 -6 23 -6 32 0 14 -2 15 -9 2 -6 -8 -8 -17 -5 -21 2 -4 -4
-10 -13 -13 -10 -4 -14 -4 -10 0 9 9 -13 35 -24 28 -5 -3 -9 0 -9 5 0 14 17
14 25 1 9 -15 25 -12 25 5 0 8 6 15 13 15 8 0 7 4 -3 10 -8 5 -10 10 -4 10 6
0 17 -7 24 -15 7 -9 15 -13 18 -10 3 3 -3 14 -13 25 -16 18 -16 20 -1 26 20 8
49 -3 42 -15 -7 -11 18 -33 27 -24 4 3 7 1 7 -6 0 -6 -7 -11 -16 -9 -10 2 -19
-2 -20 -7 -2 -6 9 -11 25 -11 26 -1 29 1 26 25 -2 14 -2 20 1 13 3 -6 10 -10
15 -6 5 3 9 0 9 -5 0 -6 -4 -11 -9 -11 -6 0 -8 -9 -6 -20 7 -35 15 -41 36 -29
12 6 23 8 26 5 3 -3 -3 -9 -13 -13 -10 -3 -22 -11 -26 -16 -8 -14 2 -38 13
-31 5 3 7 9 4 14 -3 5 4 14 15 20 21 11 27 35 10 45 -5 3 -19 1 -30 -5 -13 -7
-20 -7 -20 0 0 5 6 10 14 10 8 0 18 5 22 12 5 7 2 9 -8 6 -8 -4 -15 0 -16 8
-1 8 -3 21 -4 29 -1 9 -7 14 -15 11 -14 -6 -62 40 -63 58 0 6 6 1 14 -10 8
-10 17 -16 20 -13 3 3 -4 16 -16 28 l-21 23 -13 -23 c-7 -13 -13 -19 -14 -13
0 7 9 22 21 35 11 13 18 19 15 13 -7 -14 21 -27 29 -14 4 6 1 10 -4 10 -6 0
-11 5 -11 12 0 6 3 9 6 5 4 -3 12 -1 19 6 6 7 23 13 36 14 13 0 18 -1 12 -4z
m347 -23 c0 -5 -3 -9 -7 -8 -5 0 -16 -2 -25 -6 -21 -10 -12 -37 10 -29 12 3
13 2 4 -4 -16 -12 65 -90 88 -85 12 3 12 1 3 -9 -10 -10 -15 -9 -28 1 -8 7
-18 10 -21 8 -3 -3 7 -15 22 -27 15 -11 22 -21 16 -21 -6 0 -14 5 -18 12 -5 7
-11 5 -21 -8 -12 -16 -15 -17 -23 -4 -5 8 -10 11 -10 6 0 -5 -9 -1 -20 9 -11
10 -23 16 -26 13 -3 -3 7 -15 22 -27 15 -11 22 -21 16 -21 -6 0 -18 8 -28 17
-9 10 -23 18 -31 18 -7 0 -13 3 -13 8 0 4 0 12 0 17 0 6 7 10 16 10 8 0 12 5
9 10 -3 6 -1 10 5 10 7 0 10 -6 7 -14 -3 -8 0 -17 7 -19 9 -4 11 2 8 21 -4 19
-2 24 10 20 8 -4 15 0 15 8 0 7 -5 10 -11 7 -18 -11 -76 -11 -69 0 4 7 -1 8
-13 3 -15 -6 -16 -5 -7 5 10 10 15 9 28 -1 8 -7 15 -8 15 -2 0 5 -11 17 -25
26 -14 9 -25 22 -25 28 0 7 6 3 14 -7 13 -18 15 -17 52 13 40 33 54 39 54 22z
m997 -805 c4 -4 3 -5 -3 -2 -8 5 -11 -5 -11 -28 1 -20 6 -34 12 -32 5 2 9 13
7 23 -2 16 -1 16 7 4 7 -9 7 -18 1 -24 -16 -16 -12 -30 4 -17 15 13 18 -10 3
-25 -3 -4 -4 -11 -1 -15 6 -11 24 -12 23 -1 -3 17 2 32 9 32 4 0 8 -11 8 -24
0 -14 -3 -23 -7 -20 -4 2 -12 -3 -19 -12 -12 -13 -9 -14 18 -9 20 3 32 1 32
-5 0 -6 -4 -9 -9 -5 -5 3 -12 1 -16 -5 -4 -6 -11 -8 -16 -5 -19 13 -30 -7 -14
-25 11 -12 13 -20 5 -25 -6 -4 -9 -1 -8 7 2 7 -5 12 -14 12 -14 -1 -15 2 -8
16 13 25 -7 42 -34 29 -19 -9 -20 -9 -3 4 9 8 17 18 17 22 0 5 -3 5 -7 2 -3
-4 -17 0 -29 8 -16 10 -24 11 -26 3 -3 -7 -7 -5 -11 6 -4 9 -3 15 2 11 5 -3
12 -1 15 4 8 12 -19 22 -31 10 -5 -5 -9 -1 -9 10 0 15 4 17 17 11 19 -11 39 6
39 31 0 10 4 20 9 24 6 3 8 -11 6 -35 -4 -42 9 -60 28 -41 9 9 8 11 -5 6 -21
-8 -24 5 -6 23 9 9 9 12 -2 12 -11 0 -11 3 -2 12 7 7 8 17 2 29 -10 18 11 22
27 4z"/>
<path d="M907 7879 c-4 -13 1 -35 11 -52 17 -28 16 -29 -7 -48 -13 -10 -20
-19 -16 -19 4 0 2 -7 -5 -15 -7 -8 -16 -12 -21 -9 -5 3 -4 -6 3 -20 10 -24 13
-25 28 -11 12 11 19 12 27 4 7 -7 17 -8 27 -2 14 8 12 12 -12 33 l-28 24 33
29 c27 23 35 26 50 17 17 -11 17 -11 -1 -6 -19 7 -46 -9 -46 -27 0 -5 8 -3 18
6 10 10 22 14 25 11 4 -4 13 -1 22 6 12 10 15 10 15 -1 0 -10 4 -9 16 3 26 26
-17 97 -55 91 -39 -6 -45 -6 -62 1 -12 5 -18 1 -22 -15z"/>
</g>
</svg>
