<?xml version="1.0" encoding="UTF-8" standalone="no"?>
<svg
   version="1.0"
   width="1024.000000pt"
   height="1024.000000pt"
   viewBox="0 0 1024.000000 1024.000000"
   preserveAspectRatio="xMidYMid meet"
   id="svg14"
   sodipodi:docname="v.svg"
   xmlns:inkscape="http://www.inkscape.org/namespaces/inkscape"
   xmlns:sodipodi="http://sodipodi.sourceforge.net/DTD/sodipodi-0.dtd"
   xmlns="http://www.w3.org/2000/svg"
   xmlns:svg="http://www.w3.org/2000/svg">
  <defs
     id="defs18" />
  <sodipodi:namedview
     id="namedview16"
     pagecolor="#ffffff"
     bordercolor="#666666"
     borderopacity="1.0"
     inkscape:pageshadow="2"
     inkscape:pageopacity="0.0"
     inkscape:pagecheckerboard="0"
     inkscape:document-units="pt" />
  <metadata
     id="metadata2">
Created by potrace 1.16, written by Peter Selinger 2001-2019
</metadata>
  <g
     transform="translate(0.000000,1024.000000) scale(0.100000,-0.100000)"
     fill="#000000"
     stroke="none"
     id="g12">
    <path
       d="m 7307,9554 c 16.6545,-84.3376 -224.733,49.2363 -159,-7 -78.9322,-27.0499 -208.813,-94.6829 -158,-62 -60.2281,-8.0998 -80.7892,-24.4048 -90,-37 -182.8458,-57.8927 -182.3482,-93.897 -199,-79 -58.9929,-92.2791 -313.0975,-210.394 -219,-104 22.4895,14.5919 -162.3113,-82.3285 -177,-105 -44.1307,-37.7207 -169.7258,-112.6119 -142.5,-111 -44.2794,-41.0985 -165.2766,-228.8416 -141.5,-173 -5.9631,-27.7854 -83.7368,-174.0317 -86,-146 -39.6248,-38.334 -128.3489,-205.5524 -81,-157 -28.9987,-143.5671 -51.1156,-371.3271 -53,-248 -20.4804,-47.5777 9.0935,-222.1578 -11.25,-163.25 -20.941,-108.0751 27.106,-271.4957 27.25,-211.75 5.1771,-86.0689 98.6031,-298.0281 49.375,-208.125 -26.5144,-67.8266 128.7573,-290.6536 83.625,-202.875 -82.9887,70.8153 139.025,-223.7104 78,-155 103.8506,-125.1021 -13.4597,-222.4951 143,-169.375 23.4285,-77.5973 232.8358,-231.576 153,-155.625 52.4381,-36.8391 142.4225,-127.2398 83,-65 20.8542,25.1254 64.0073,68.7157 83,-19 40.769,-76.8371 117.229,-164.2114 104,-94.375 33.8293,51.422 254.0253,-19.1237 204.5,-10.5 67.6882,43.2837 212.3107,-24.2591 127.5,2.875 11.8722,55.8523 185.5335,21.8584 123.125,2.25 65.7467,-4.2238 123.219,27.3825 98.0066,15.8617 51.9116,43.6609 301.1046,80.1337 173.8684,26.8883 54.3243,-18.2981 150.7262,-64.0498 190,50 62.8837,113.1746 190.4453,73.6024 121,86 -1.4176,-15.7884 195.5874,-54.5463 161,2 45.1086,20.546 103.071,55.4139 118.875,24 20.0265,1.5162 217.4724,-15.0406 198.125,-21 90.3947,-34.8231 352.3149,-53.8642 320,-59 68.4678,14.5332 51.0125,-28.1517 93.7939,12.4941 35.2371,-54.034 74.9626,-205.3271 58.2061,-74.4941 -11.6731,-86.6721 73.0429,-205.8723 9,-206 8.6946,-78.9177 139.8188,-145.1245 57.375,-113.125 -31.9693,-125.6346 -131.9575,21.7298 -92.875,-11.125 -84.6325,-146.9089 68.9977,-384.6206 8.5,-217.75 -18.527,-33.9321 -97.3129,-105.0186 -74,-25 -29.4888,-114.1193 -36.2318,-170.0704 -52,-184 -10.17,-54.4756 -56.0192,-172.5085 -50,-221 -10.7866,-86.8951 -56.5851,-281.6844 -34,-173 -51.2692,-76.6697 -72.542,-267.7922 -72,-201 -55.5568,-77.8261 -187.2706,-258.6851 -111.5,-164.875 -31.8848,-54.3411 -168.3026,-330.0583 -133.5,-228.125 -50.4531,-87.9072 -174.5412,-176.9249 -143,-170 -52.1952,-70.761 -310.2623,-233.9392 -200,-179 -74.3135,55.4578 -137.8986,78.7983 -134,41 -102.5849,-22.8895 -95.9331,-86.4113 -90.25,-93.625 -14.0448,-26.1789 111.0248,172.0885 96.25,51.625 -43.5667,-131.2119 75.1268,-8.9699 60,-2 66.2246,7.8504 42.9042,-250.9215 -11.375,-186.25 -53.8993,-15.7166 -137.4695,-88.9325 -104.625,-111.75 -41.9991,-109.7793 -188.9492,-154.4006 -124.5,-112.125 3.8776,-44.0962 148.5544,-248.517 -20.5,-190.875 105.4021,85.1026 93.9146,-180.7665 81,-62 -64.1293,-152.2259 -122.2904,36.6291 -109,1 220.9488,48.7659 -88.637,83.9443 -142,91 -132.2121,5.8622 -116.6523,-189.4869 -140.875,-137.375 123.3204,22.5729 -86.8817,-198.846 -65.125,1.375 -74.3369,17.2866 2.359,36.1391 37,19 -48.4344,33.0697 -215.2675,-156.5109 -219.75,-119 125.8714,29.1625 -171.6715,-100.6744 -79.375,-58.125 C 6699.8351,3972.129 6561.4777,3803.7269 6607,3860 c 5.2398,-46.2784 138.6054,-78.9879 84,-114 34.4116,-10.3183 93.5322,24.1033 101,-8 -2.5944,31.2532 46.415,-81.6124 78,-28 56.5401,1.8236 222.6387,-190.9297 99.5,-184.125 39.6286,-138.0556 30.9787,-136.7476 132.625,-76.75 134.4967,67.9171 16.4555,-117.2657 21.875,-135.125 84.0631,-75.0436 146.7075,44.4518 102,22 233.1306,58.0157 117.2152,79.2598 119,70.375 68.0329,152.0945 222.2759,113.6701 138.125,40.25 105.983,-197.1997 -16.8403,88.5494 113.875,68.375 -37.4932,48.2005 74.1969,84.4565 62.625,65.375 16.3191,129.9181 54.7632,92.272 60.375,74.625 10.9786,99.0837 109.9577,152.5091 94,136 -25.7933,68.994 149.0412,199.2796 78,135 3.711,33.5778 173.474,234.1956 135,182 70.7059,50.4817 171.1098,188.908 99,116 34.7474,9.4449 161.9205,186.4923 114,116 55.3463,24.475 179.787,293.0843 157,209 54.5648,-11.5907 148.9248,151.653 128,131 51.3911,77.6125 171.1753,267.9919 119,186 26.1324,45.7277 104.5458,153.0002 84,114 21.5439,17.221 83.3007,185.6186 114,144 -1.2462,25.3224 141.4746,119.9432 111,166 43.8781,89.6227 195.0636,247.2202 143,192 34.7543,65.6112 131.8436,191.876 83,123 24.6564,72.6668 44.072,229.7965 95,193 86.5047,33.9366 198.8513,349.5448 126,227 13.7032,45.419 84.7394,259.0789 81,176 47.0637,37.3674 99.7975,247.8309 75,177 47.4575,80.6709 89.4461,370.498 66,207 43.2988,58.6339 55.7718,388.6076 54,286 12.6954,98.6322 31.9832,417.1075 35.125,276.875 17.2462,64.0689 33.3873,317.7115 20.875,248.125 -13.1325,39.455 -78.5557,312.2961 -23,224 14.4344,40.5446 -38.6027,191.3021 -24,144 -23.8882,97.4296 -65.9115,324.355 -47,210 -24.9727,70.1076 -96.8939,244.5066 -60,178 87.6871,-48.4322 -391,804.9505 -93.25,250.25 57.1815,37.1435 -150.6851,258.7526 -85.75,182.75 -85.7291,66.6472 -232.7877,208.1968 -134,118 -36.7285,87.9134 -184.772,262.906 -155,187 -80.8825,23.5351 -237.8084,109.4428 -132,80 -49.3528,76.7091 -118.8458,186.235 -83,120 -42.9956,44.2112 -133.4277,175.6168 -117.875,87.25 -142.6667,49.2444 -309.9218,107.2279 -176.125,70.375 62.9104,-36.7918 -184.2131,21.1169 -117,54.375 -10.8353,54.4793 -207.8,148.5078 -185,138 90.0253,28.8058 22.2809,93.3134 -59.25,40.125 -78.2761,8.9776 -163.483,7.2981 -142.75,-41.5 -78.1886,-1.0513 -129.221,53.6 -106,42.375 -243.9081,-15.9428 -57.6485,38.4984 -197,-7 -51.9124,13.8841 -184.3779,51.9596 -117,40 -137.7944,69.617 -237.774,-139.0295 -233,18 -40.9174,7.1746 -93.3557,-22.4733 -137,22 z m 423,-780 c 21.8469,-26.5025 108.1053,-83.997 95,-36 112.7602,-6.654 89.6272,-143.389 147,-111 -70.3564,24.9356 177.9198,101.724 129,23 -88.6032,-50.9295 -34.7342,59.2381 18,-11 -4.6344,86.059 90.0037,-89.5347 62,-83 -8.1962,-107.3841 95.7316,176.8033 110.625,-5.125 -19.8438,10.7758 22.629,-81.2577 18.375,-96.875 19.0547,-29.957 -73.444,-46.403 -50,-89 -78.4674,38.9662 -104.2188,197.0585 -85,149 -44.6517,33.4921 7.4144,-192.3466 -122,-30 83.8406,49.2854 70.9333,113.959 4,82 77.6238,43.6205 -17.9934,40.2831 -96.25,23.125 88.7963,-82.2509 -109.6861,-44.5686 -74.25,-60.625 13.5693,82.1976 138.5496,28.6916 8.5,81.5 44.4567,2.3026 -125.8907,-26.5134 -55,44 44.62,113.5518 -10.1883,34.611 -33,-3 0.2271,-87.2879 -94.9119,196.6608 -93.375,57.25 -59.501,28.736 75.602,158.0925 16.375,65.75 z m -492,-238 c -72.5163,-60.1651 192.7899,-162.2615 152,-150 -65.7672,24.4241 159.5142,53.9358 90,-13 61.831,-19.7712 189.7322,6.0967 165,-18 98.6359,-24.6273 346.4479,-51.954 286.5,-47.375 142.9072,-76.1052 95.4485,-318.1846 131.875,-212.125 143.8211,-548.5424 194.2121,1910.634 149.625,-112.5 -112.7145,-5.8196 -364.7965,25.5174 -241,14 1.6223,2.9052 72.8601,-101.2882 9,27 67.7362,16.675 -93.249,19.2469 14,56 -80.5102,31.1195 -227.6656,-7.0234 -161,-12 -142.6907,74.6611 13.6413,22.4104 32,-31 -97.3582,-18.9179 -139.5469,108.9031 -143,1 12.7883,-25.4172 -103.0945,-44.6634 -28,18 -95.4951,28.6044 -140.8853,-164.9276 -95,-101 -12.3029,52.3755 -233.8356,22.3891 -151,-20 -18.4077,-83.5464 -318.602,-64.5059 -177,12.625 149.1423,-121.268 131.6437,-170.7544 -14,-62.625 -94.4779,-55.521 -122.7755,-288.7706 -34.375,-170.75 32.6336,77.6518 -131.6348,183.1453 -153.625,65.75 86.4817,112.3659 -60.8956,68.1116 -57.5,51.375 73.2595,90.8595 -67.128,29.4018 -64.625,26.875 12.4052,-10.3127 -114.5614,40.4483 -127.875,51.75 -52.5429,-3.4987 -220.5172,-43.2513 -148.375,-17.25 2.5019,93.6388 -4.1734,154.836 -13.625,143.25 -56.6132,-5.0059 209.7069,316.3553 36.375,101.125 48.1602,14.7158 131.6012,82.5982 84.75,65.125 18.1297,57.4559 37.1441,131.4653 92.875,89.75 75.3846,-52.4929 323.6873,11.2895 206,82 -142.9263,139.8105 311.1883,-31.2049 152.125,15.75 115.8898,60.494 13.1344,115.9131 -37.125,67.25 -48.603,-80.872 -99.9983,103.2985 45,79 z m -18,-4286 c -20.7325,-53.4066 37.9338,-171.0254 14,-104 39.7968,20.4897 22.5221,-211.7781 16.125,-135.625 133.5327,46.5801 121.6054,80.2151 -16.625,-81.125 -152.6811,-53.3099 -140.9326,58.2789 -61.5,74.75 104.6791,-46.4846 -143.2436,49.3935 -65.75,166.375 -80.5919,26.8434 140.6366,119.1354 113.75,79.625 z m -132,-205 c 10.165,49.522 -136.3634,-467.5023 -6,-102 131.9077,58.299 16.5355,95.9188 -73.75,-55 6.4985,78.6125 57.9212,210.6857 -20.25,130 -66.7648,62.9976 89.7211,-44.9316 100,27 z m 712,-75 c -63.6054,-121.6164 -145.6885,-241.5838 -81,-157 -11.7483,-145.1105 183.5328,166.014 26,119 40.5813,23.3774 -55.9046,74.3094 55,38 z m -467,-18 c 60.3711,-121.3595 216.9644,-81.0304 122,-100 -27.117,149.1667 12.8899,-25.5398 23,-78 -75.6085,-10.4965 -159.829,-54.7416 -27,-56 -56.2757,-64.255 -102.1117,-65.2817 -74,-101 -88.1897,-13.4728 -41.1074,185.4317 -89,109 -1.4839,125.0136 -59.6069,244.1039 24,159 7.0518,50.2306 -10.543,45.6151 21,67 z m -187,-148 c 37.7045,-77.2738 -143.261,-251.1092 -41.125,-131.25 -20.1992,9.8616 -82.7833,38.4821 -103.875,34.25 53.9122,70.0792 141.4003,190.4596 140,118 z"
       id="path4" />
    <path
       d="m 7419,3837 c -196.209,23.3019 -88.4972,-394.4676 26.375,-97.25 -8.5088,51.7543 104.3737,80.3486 -26.375,97.25 z m -29,-36 c 81.8489,20.9434 -142.513,-27.9337 -67,-118 5.5816,132.0324 14.9396,23.4868 67,118 z"
       id="path6" />
    <path
       d="m 834,8232 c -61.62311,-111.958 -94.5833,-59.3303 -115.5,-90 -64.17923,-5.4503 -205.82087,-27.56 -113.5,1 -138.20516,-8.7488 -117.07974,-186.927 -93,-107 59.82823,-32.2444 110.60264,-5.6353 43,-86 52.1787,-48.5391 20.78754,-311.8319 -44,-186 -50.22371,-136.1163 -199.10325,-113.8564 -189,-110 -4.08508,-35.8743 202.07232,-39.7688 69,-101 -31.51409,-72.0805 178.39737,-38.5907 209,-73 84.97796,-93.5249 192.85757,-91.8061 135,-90 99.40967,19.5536 282.2163,-23.5901 150,-8 -44.60284,56.3999 -26.91437,142.8851 63.5,60.25 239.0992,-15.3926 171.5166,-64.5454 123.5,-68.25 67.1485,3.0294 229.7582,-58.265 146.625,-33.625 -49.2448,40.4611 118.8221,16.9446 -27.625,112.25 12.9795,-1.17 119.5846,-73.809 75,-95.625 92.9051,49.6242 56.3525,-19.2102 108.625,-32.25 79.8978,-39.6812 211.5557,-94.4862 133.875,-39.25 -21.3928,17.6866 83.1277,-129.6323 74.75,-49.75 75.6618,-28.447 170.3856,-120.4791 108.75,-52.75 13.0258,39.069 163.0122,-145.7353 108,-50 140.58,-54.4796 187.4834,-145.7213 171,-100.5 73.5494,-75.2886 205.9178,-218.6134 165,-112.5 120.6277,-56.1865 292.4664,-361.751 259,-337 36.4892,-14.566 191.8906,-279.7041 119,-185 50.6131,-17.8719 133.4399,-15.4853 120.25,-31.125 49.2257,-50.6308 80.1125,-229.3017 35.5,-155.125 10.8545,-99.2758 57.896,-6.4299 70.25,-56.75 15.1834,-40.4207 97.6519,-128.0257 55,-117 44.7582,-97.7784 67.1791,-195.091 61.25,-163.25 44.1127,72.5406 5.22,-402.617 30.125,-139 82.2314,-46.8974 123.5412,-413.438 78.75,-304 8.6106,-171.3828 -78.87,-100.5607 9.875,-209.75 -27.8831,-181.9309 59.3137,-416.1684 44,-358 56.9108,-185.5486 115.6435,-342.848 103,-299 10.9181,-61.9413 96.5572,-282.5255 70.5,-208.5 -4.0346,-156.0174 105.2288,-418.5923 -91.5,-180.5 -78.4032,162.6007 -52.6146,-67.709 -67.375,-72 79.0238,-102.1742 72.6278,-81.8156 93.375,-134.75 88.4212,-84.3296 267.8441,-374.3852 147,-215.25 80.2629,-116.3353 128.7777,-485.472 161.75,-323 6.3284,-131.6557 126.8446,-447.822 78.25,-336 19.525,-44.7411 134.0397,-446.7915 91.625,-328.375 23.4702,-48.187 83.2731,-254.1888 53.375,-166.625 -9.2901,-24.5351 37.039,-327.3952 59,-263 44.5298,-86.667 134.2329,-371.3289 97,-250 36.1314,-73.2775 46.5422,-226.717 54,-155 23.4617,-69.3852 29.3602,-191.5738 55.5,-158.5 96.5613,-129.2111 177.6406,-240.7484 85.625,-178.5 -30.0722,-21.528 144.1802,-294.6758 113.875,-188 51.3679,-54.9389 190.6826,-322.4193 130.875,-197 97.8121,-130.3707 235.2865,-292.82485 160.125,-182 54.6577,-42.93126 214.0892,-257.46229 160,-169 44.0473,33.47683 139.0269,-31.43212 74.75,-43.125 -15.7423,-33.49243 73.4316,-104.11294 49.25,-68.875 39.8969,-38.35958 198.4233,-320.27777 215,-188 28.6865,-88.31056 143.267,-174.70286 48.875,-147 -49.4574,-43.78551 243.9603,34.76474 184.25,81.625 -18.7414,97.96591 107.7257,87.24618 95.125,-7.375 63.5274,-51.94186 114.5874,-66.87998 92.75,-56.25 59.6795,-34.31397 177.0573,-146.43856 199,-57 96.1796,37.2611 222.378,70.43163 135.375,11.875 142.6013,-42.1367 393.1824,11.50567 296.625,4.125 129.0861,45.22736 289.1371,162.81644 224,95 14.7814,-82.28418 122.225,-48.44776 110,15 7.9597,80.85569 152.2004,129.78171 122,76 -22.0596,72.06153 107.1615,130.59994 124,75 -12.833,36.59159 231.8079,226.85152 211.875,163 194.3786,140.5708 115.4969,-32.10838 155.125,133 106.4277,35.19299 241.1237,130.4595 143,103 38.3132,78.8647 119.5133,178.2543 102,153 -26.1294,39.7759 89.0108,177.8721 78,141 41.9039,136.0898 21.0505,8.1422 78.5,121.375 44.9598,90.168 162.5083,295.3373 134.5,205 39.5312,-30.2937 45.3369,174.9359 52,110.625 -9.5308,79.0991 149.9323,230.7322 94,203 11.0786,36.4652 97.5457,195.2814 68.375,132.125 3.6518,56.0007 81.3659,115.4998 100.875,170.375 55.9799,93.0706 77.8926,212.2936 67.75,139.5 55.7985,-106.4853 250.7837,282.3361 192,220 -51.5448,47.5004 182.0878,213.8752 144.875,193.875 -47.4749,30.193 15.1929,243.5859 19.125,151.125 29.9144,134.9604 35.9305,481.2899 33,354 -69.8068,154.8978 -421.8357,175.4527 -241,99 22.4816,-27.8208 -1575.1107,9.8135 -148.25,-19.625 -137.7022,9.2727 -258.1325,-108.3598 -212,-42.625 -52.097,27.2201 -175.7518,48.4626 -119.75,4.25 -130.4776,49.4385 -208.6854,-104.7374 -121,-71 -92.7526,-15.9926 -261.1463,-140.6771 -185,-81 -50.4541,43.8394 -214.3794,-101.9064 -191,-95 -108.2523,-40.4871 -279.8877,-88.5044 -209,-69 22.1421,-66.6061 67.0597,-125.016 -12,-103 -90.7375,-20.0975 -164.2256,-239.0268 -128,-118 -27.2014,-187.3245 -54.1302,-282.1169 -20,-193 -38.9323,191.5949 -168.223,62.5186 -76.625,11.875 -8.5035,-19.1096 -150.4443,-57.902 -89.375,-68.875 -59.1229,-105.0965 -106.6449,-214.2599 -66,-146 9.6833,2.9896 -102.0944,-206.5049 -92.125,-92 24.4817,38.3842 236.0849,54.3081 151,-39.5 -20.9688,58.9754 98.6117,75.2773 63.125,47.5 -4.8899,41.303 121.8444,-68.1352 111,-87 -16.66,-37.0022 -92.6427,-178.3788 -39,-106 -28.1422,21.6311 -152.3235,-29.9867 -127,-132 -47.8903,-16.1632 -154.7632,-161.8699 -131,-92 -24.1997,-82.3268 -158.5496,-220.4581 -76.125,-183.5 24.3508,-63.8375 -115.601,-87.3464 -117.875,-66.5 1.2821,-48.9852 -69.0249,-272.5267 -63.875,-155.125 -17.3631,-32.4923 -92.0952,31.0597 -66.125,-45.875 -28.9278,80.9275 -25.2464,255.1545 12,190 14.4545,61.5953 -125.4851,58.7229 -98.5,60.375 22.1127,-53.1863 35.6812,83.2925 -72.5,47.625 -107.0092,-74.3142 -223.1059,-351.119 -145,-240 -81.0682,-12.9301 -203.6985,314.5625 -196,152 -137.5468,54.2274 -234.8327,233.729 -178,112 -62.6714,9.3592 -153.9913,104.5024 -111,83 -110.2376,104.8881 -141.3014,217.5076 -115,184 -41.2865,108.174 -67.2254,326.8403 -60,228 -124.552,89.6529 -208.9382,343.8345 -151,233 -53.3731,54.4083 -91.4472,413.5871 -76,309 -42.7993,57.7765 -49.7903,554.1806 -57.75,318.125 -66.8871,35.4689 -103.296,166.2217 -43.25,155.875 -15.6477,70.9765 -101.2106,256.5694 -73,183 -26.8212,62.4928 -103.3714,268.3962 -96,178 -27.2247,92.5388 -202.5412,243.0157 -131,223 -39.407,-5.0378 -25.4911,384.6456 -42,268 83.2207,113.7701 10.166,436.0101 24,342 -35.4569,113.4656 -116.6807,328.6037 -70,247 -13.6452,144.3418 -86.8749,266.1733 -68,260 -7.4315,45.7756 -104.1647,236.3257 -56,187 -0.7169,99.1887 12.0574,379.8827 -26,216 -4.8321,102.3802 -181.7921,465.9999 -63.5,411.875 -59.9142,-74.9066 -127.031,276.988 -90.5,173.125 -21.8099,19.1099 -60.8513,135.1111 -57,91 -41.0489,79.9526 -129.5956,118.3522 -94,124 -51.5028,-54.8948 -183.5835,67.0341 -113.75,27.375 -19.8011,63.856 -209.4573,260.0023 -145.25,226.625 -43.1213,31.2904 -213.8196,308.5564 -132,160 -18.088,133.7899 -17.6446,220.1166 -10.125,203.5 -56.5559,49.0438 -186.2679,155.4255 -125.875,102.5 -39.6734,31.8322 -181.0899,169.4852 -152,123 -27.7461,54.2142 -204.5904,201.9945 -157,130 -20.9844,47.5615 -183.4426,246.524 -173,185 -70.4314,38.5287 -57.6057,87.5206 -41,69 -173.6321,4.8413 -220.199,63.0372 -154,14 30.5743,108.9893 -5.8598,228.5195 -51,70 -49.6271,1.0574 -157.2625,71.5909 -122.625,59.5 -43.1991,-25.1969 -121.9564,103.5846 -75.875,48.5 12.658,56.4083 -302.7925,-147.8974 -132.5,-1 -14.3071,112.8044 -68.5635,185.315 -57,112 -237.4746,-78.3704 -162.2799,2.4311 -159,36 -57.607,111.0183 -132.242,138.5698 -161,43 -66.8189,34.7689 -176.2989,23.9149 -156,59 10.5108,13.5334 -135.0305,-83.6813 -81,-20 -4.0208,48.7711 -82.1361,81.0028 -86,58 -117.8085,66.4585 -161.3575,28.7607 -187,27 9.6518,-11.7682 -204.0542,29.339 -71,41 -97.5779,75.1969 -216.2213,105.2341 -171.625,53.625 16.2053,12.0981 -226.25522,148.7679 -133.375,116.375 16.4433,23.8341 -143.23523,-53.0962 -154.375,2.125 C 852.29314,8140.801 851.53673,8248.9077 834,8232 Z m 49,-209 c -75.50213,-96.9663 108.69911,-172.8165 88.625,-94.25 109.662,-29.3937 253.5648,-214.9052 155.25,-196.375 C 962.08874,7832.2923 896.66017,7816.9804 965,7759 c -64.08901,-66.7086 -149.0712,-181.2262 0,-134 -70.53888,16.1278 -210.89966,-79.3801 -134.5,27 -86.51637,44.7553 -145.95267,263.5129 -23.5,171 -94.15199,29.7856 36.04302,-121.0514 -22,-94 -70.20553,-156.1914 -63.98426,208.1493 -49,77 -84.13151,31.19 54.4385,112.7696 9,74 216.91023,-160.0591 -221.20982,323.362 136,-79 53.01695,-75.8082 -173.40783,230.8757 -91,153 3.59203,3.609 -68.89411,10.9021 93,69 z m 347,-23 c -88.099,-79.8097 -157.7631,-215.7227 10,-188.875 -78.9203,15.227 33.9159,140.1668 -38,86.875 -90.6456,6.1635 -129.293,63.5685 28,102 z m 997,-805 c -34.0718,-61.6098 -10.6865,-180.8768 33,-141 99.7265,-40.1739 0.823,124.6281 -50,11 -176.5437,25.2461 -0.1061,-50.3714 -2,50 -6.5821,-15.7362 -30.7203,122.7034 19,80 z"
       id="path8" />
    <path
       d="m 907,7879 c -19.39979,-195.4292 147.1942,83.196 69.5,-65.5 -50.53691,-97.8789 248.0542,77.267 -69.5,65.5 z"
       id="path10" />
  </g>
</svg>
