<?xml version="1.0" standalone="no"?>
<!DOCTYPE svg PUBLIC "-//W3C//DTD SVG 20010904//EN"
 "http://www.w3.org/TR/2001/REC-SVG-20010904/DTD/svg10.dtd">
<svg version="1.0" xmlns="http://www.w3.org/2000/svg"
 width="1024.000000pt" height="1024.000000pt" viewBox="0 0 1024.000000 1024.000000"
 preserveAspectRatio="xMidYMid meet">
<metadata>
Created by potrace 1.16, written by Peter Selinger 2001-2019
</metadata>
<g transform="translate(0.000000,1024.000000) scale(0.100000,-0.100000)"
fill="#000000" stroke="none">
<path d="M8085 8156 c-11 -6 -23 -15 -26 -19 -7 -10 -20 -9 -35 4 -11 9 -21 2
-39 -30 -6 -10 -4 -12 5 -6 8 5 11 4 6 -3 -3 -6 -2 -13 4 -17 5 -3 10 -10 10
-16 0 -5 -9 0 -20 11 -11 11 -24 20 -29 20 -14 0 -5 -40 13 -59 14 -15 13 -17
-4 -18 -11 -1 -23 3 -26 9 -4 6 -10 5 -15 -3 -6 -10 -9 -10 -9 -2 0 16 17 26
25 13 3 -5 11 -10 16 -10 5 0 3 10 -6 23 -8 13 -12 27 -8 31 4 3 -4 5 -18 3
-13 -2 -22 -8 -19 -13 3 -5 9 -8 13 -6 5 1 6 -2 2 -8 -5 -8 -11 -7 -21 1 -17
14 -19 -2 -2 -19 8 -8 9 -12 1 -12 -6 0 -14 6 -16 13 -4 7 -6 6 -6 -5 -1 -9 5
-19 12 -21 9 -4 9 -6 -1 -6 -7 -1 -17 9 -22 22 -5 13 -9 16 -10 7 0 -12 -2
-12 -8 -2 -15 22 -50 23 -45 1 3 -10 9 -16 14 -13 5 3 6 10 3 16 -5 7 -2 8 5
4 9 -6 8 -12 -4 -26 -10 -11 -14 -24 -9 -32 4 -7 4 -10 -1 -6 -4 4 -14 3 -21
-3 -10 -8 -18 -7 -30 5 -15 16 -14 16 10 12 32 -6 32 -2 4 26 -17 17 -20 18
-15 4 5 -12 3 -16 -5 -13 -7 2 -12 10 -10 16 1 7 -2 10 -8 6 -8 -5 -8 -11 0
-20 8 -9 8 -15 0 -20 -5 -3 -10 -2 -10 3 0 6 -8 13 -17 17 -14 5 -15 4 -6 -6
10 -10 9 -15 -5 -25 -10 -8 -12 -13 -4 -14 6 0 12 -7 12 -17 0 -9 3 -13 7 -10
8 8 33 -12 33 -26 0 -6 -6 -2 -14 8 -13 18 -13 18 -24 -1 -7 -11 -12 -14 -13
-6 -1 6 -2 17 -3 23 0 6 -11 18 -23 26 -20 14 -21 13 -19 -12 2 -14 1 -23 -2
-21 -2 3 -14 0 -26 -6 -26 -15 -48 -19 -41 -8 3 5 0 12 -6 16 -8 4 -9 3 -5 -4
4 -7 -4 -23 -19 -36 -16 -15 -22 -27 -15 -31 14 -9 3 -25 -13 -19 -7 2 -22 -6
-33 -18 l-19 -23 22 18 c14 12 23 15 28 8 3 -6 0 -11 -8 -11 -8 0 -20 -7 -27
-15 -15 -18 -35 -20 -24 -3 4 7 3 8 -5 4 -9 -6 -9 -11 1 -24 8 -9 8 -13 2 -9
-7 4 -15 0 -18 -9 -4 -10 -12 -14 -22 -10 -14 5 -15 4 -5 -8 10 -12 8 -14 -14
-12 -19 3 -23 0 -15 -9 8 -10 8 -15 -1 -21 -8 -4 -9 -3 -5 4 4 7 2 12 -3 12
-10 0 -15 -14 -12 -32 0 -4 -5 -5 -13 -2 -8 3 -17 0 -22 -7 -4 -7 -3 -10 3 -6
5 3 10 0 10 -7 0 -8 -7 -12 -14 -9 -17 7 -44 -27 -38 -45 3 -7 0 -10 -5 -7 -6
3 -14 -5 -20 -19 -5 -14 -14 -26 -20 -26 -6 0 -8 -5 -5 -11 4 -6 -1 -17 -11
-25 -11 -9 -13 -13 -7 -9 9 4 11 1 7 -9 -3 -9 -10 -14 -15 -11 -4 3 -6 -3 -4
-14 2 -11 -3 -22 -12 -25 -8 -4 -13 -13 -9 -21 3 -8 0 -15 -6 -15 -6 0 -8 -3
-5 -7 4 -3 2 -12 -4 -20 -9 -9 -8 -13 0 -13 6 0 2 -9 -9 -20 -12 -12 -17 -26
-13 -36 5 -12 3 -15 -6 -9 -10 6 -11 3 -2 -13 9 -17 8 -23 -6 -31 -12 -7 -14
-10 -4 -11 11 0 11 -3 1 -15 -10 -12 -10 -15 1 -15 9 -1 8 -4 -4 -11 -17 -10
-17 -12 -2 -29 16 -18 16 -18 -7 -14 -12 2 -17 1 -10 -2 10 -5 10 -9 0 -22
-11 -13 -11 -14 1 -8 9 6 12 5 9 -5 -3 -8 -11 -13 -17 -11 -7 1 -10 -2 -6 -8
3 -6 10 -8 14 -6 4 3 8 -2 8 -10 0 -8 -6 -13 -13 -10 -16 6 -10 -29 8 -52 10
-12 10 -14 1 -8 -7 4 -13 3 -13 -3 0 -5 6 -12 13 -14 10 -4 10 -6 0 -6 -7 -1
-13 -6 -13 -12 0 -5 5 -7 10 -4 6 3 10 2 10 -4 0 -5 -6 -12 -12 -14 -7 -3 -3
-6 10 -6 12 -1 22 -6 22 -12 0 -5 5 -7 12 -3 7 4 8 3 4 -5 -6 -9 -11 -9 -22 0
-19 16 -16 -8 4 -29 7 -8 10 -18 7 -23 -4 -5 2 -9 12 -9 14 0 15 -2 4 -9 -11
-7 -10 -10 5 -14 18 -4 18 -5 1 -6 -17 -1 -17 -3 -3 -16 17 -18 10 -50 -8 -38
-7 5 -3 0 7 -9 12 -12 17 -24 12 -35 -7 -19 -4 -29 7 -26 4 2 12 -6 18 -17 9
-16 8 -20 -7 -21 -16 0 -15 -1 2 -8 11 -5 25 -5 30 -1 6 5 20 -2 33 -17 12
-14 17 -23 10 -21 -16 6 -51 -29 -38 -37 6 -4 10 -1 10 5 0 6 4 9 9 6 5 -4 8
-17 6 -31 -2 -21 0 -23 12 -13 12 10 14 9 11 -7 -1 -10 3 -20 10 -22 19 -7 14
15 -8 37 -11 11 -15 20 -8 20 6 0 3 7 -8 16 -18 14 -18 15 4 4 16 -8 22 -8 22
1 0 7 3 9 6 6 4 -4 1 -13 -5 -21 -8 -9 -8 -16 -2 -20 5 -4 13 3 16 15 4 11 9
18 12 16 2 -3 -1 -15 -7 -27 -12 -23 3 -46 22 -34 5 3 7 0 6 -8 -2 -7 2 -12 8
-11 6 1 11 -4 11 -12 0 -8 -5 -13 -10 -12 -5 1 -12 -4 -15 -12 -3 -9 0 -11 8
-6 9 5 11 4 6 -4 -10 -16 -27 -3 -24 17 2 11 -4 17 -18 18 -11 1 -21 -5 -21
-12 0 -11 3 -11 16 -1 10 8 13 9 8 0 -4 -6 -3 -14 3 -18 6 -4 7 -11 4 -17 -4
-7 -2 -8 4 -4 11 6 16 -5 13 -26 0 -3 7 -5 16 -4 8 2 26 -7 40 -20 13 -12 31
-21 41 -20 10 0 16 -6 16 -16 -1 -10 2 -15 7 -12 5 3 9 0 9 -7 0 -7 2 -10 5
-7 3 3 1 17 -4 31 -10 25 7 33 26 12 4 -4 2 -5 -6 0 -11 6 -13 3 -8 -16 4 -13
7 -28 7 -32 0 -5 5 -5 10 -2 6 4 7 11 4 17 -4 6 0 6 13 -1 20 -10 33 -6 33 11
0 5 -5 6 -12 2 -7 -5 -8 -3 -4 5 5 7 11 10 14 7 3 -4 14 6 24 21 10 16 18 24
18 18 -1 -5 -7 -18 -15 -29 -10 -14 -12 -24 -4 -38 8 -15 6 -26 -7 -45 -14
-22 -14 -25 -1 -20 8 3 18 3 22 -1 4 -4 10 -7 13 -7 25 -2 51 -18 46 -28 -4
-7 -4 -9 1 -5 4 4 14 3 21 -3 18 -15 33 -3 30 25 -4 30 19 64 27 41 4 -8 13
-12 21 -9 19 7 27 -8 14 -26 -8 -12 -9 -12 -4 3 3 9 1 17 -4 17 -17 0 -22 -21
-9 -38 11 -14 11 -15 -1 -4 -21 18 -36 15 -37 -9 -2 -16 1 -19 9 -11 8 8 15 7
25 -6 8 -9 11 -11 7 -3 -6 11 -3 13 12 7 10 -4 24 -9 31 -10 7 -1 16 -5 19 -9
10 -9 35 13 28 24 -3 5 0 9 5 9 6 0 11 -4 11 -9 0 -6 9 -9 19 -8 11 0 17 5 15
9 -3 5 -10 5 -16 2 -7 -4 -8 -2 -4 4 4 7 2 12 -5 12 -7 0 -10 3 -7 6 7 7 47
-15 66 -36 9 -9 8 -4 -2 12 -22 38 -20 41 9 12 20 -20 29 -23 40 -14 9 7 15 8
20 1 7 -12 40 -9 52 4 5 4 1 5 -7 1 -8 -4 -7 -1 3 7 10 8 27 12 38 10 16 -5
18 -8 7 -15 -10 -8 -10 -9 2 -5 8 2 14 12 13 22 -1 12 2 14 9 7 12 -12 38 -5
38 10 0 6 -6 5 -15 -2 -9 -7 -15 -8 -15 -2 0 12 26 23 35 14 11 -12 56 -10 51
3 -2 6 2 12 10 12 7 0 11 -4 8 -9 -3 -4 -1 -8 4 -8 6 0 13 7 16 16 6 15 8 15
25 0 18 -17 20 -17 30 2 6 11 7 23 3 27 -4 5 -1 5 6 1 7 -4 10 -11 7 -16 -12
-19 13 -18 33 1 23 21 29 39 12 39 -6 0 -9 -3 -8 -7 2 -5 0 -9 -4 -10 -17 -6
-28 -3 -28 8 0 5 4 8 8 5 5 -3 20 5 32 17 18 16 22 17 17 4 -7 -18 24 -20 40
-2 5 4 3 6 -2 2 -6 -3 -16 3 -23 14 -7 11 -8 19 -2 19 5 0 10 -4 10 -10 0 -5
7 -10 15 -10 8 0 15 4 15 10 0 5 7 7 15 3 9 -3 15 -2 14 3 -3 20 2 32 17 38
15 6 15 4 3 -11 -12 -15 -12 -16 4 -10 10 4 21 7 23 7 3 0 2 6 -2 13 -4 6 2 3
14 -7 12 -11 22 -17 23 -15 0 2 2 14 3 26 3 25 16 44 16 24 0 -7 5 -9 12 -5 7
4 8 3 4 -5 -4 -6 -12 -8 -18 -5 -7 4 -8 2 -4 -4 5 -8 13 -9 25 -3 9 5 23 6 30
1 8 -4 27 -4 42 0 17 5 31 5 35 -1 3 -6 11 -6 17 -1 7 4 22 7 34 6 13 -1 20 3
16 9 -4 6 0 8 10 4 9 -3 19 -2 22 3 4 6 1 10 -6 10 -7 0 -9 3 -6 6 4 4 13 1
22 -6 11 -10 18 -10 29 -1 15 12 35 -3 22 -16 -3 -4 -6 -1 -6 7 0 10 -3 10
-15 0 -8 -6 -19 -9 -25 -5 -5 3 -10 2 -10 -4 0 -13 69 -11 76 1 3 5 12 4 20
-3 8 -6 14 -8 14 -3 0 5 5 2 11 -6 9 -13 10 -13 6 2 -3 9 1 24 8 35 13 17 14
17 10 -5 -2 -12 0 -20 6 -17 5 4 9 2 9 -3 0 -5 10 -12 22 -15 27 -8 61 20 53
42 -5 12 -3 13 5 5 9 -9 9 -17 0 -34 -10 -18 -9 -24 1 -31 8 -5 10 -9 5 -9 -5
0 -4 -6 1 -12 6 -7 9 -21 8 -31 -2 -9 1 -15 6 -11 5 3 9 -4 9 -15 0 -12 -5
-21 -12 -21 -15 0 -4 -11 14 -13 7 -2 14 -6 15 -11 1 -5 7 -13 15 -18 10 -8
10 -9 -2 -5 -8 2 -14 9 -13 15 2 7 -4 9 -13 5 -15 -5 -15 -7 0 -15 14 -8 15
-12 4 -26 -7 -9 -8 -13 -3 -10 6 3 18 -4 27 -16 13 -18 13 -23 3 -23 -8 0 -12
4 -10 8 3 4 -2 9 -10 13 -8 3 -14 0 -12 -6 3 -17 21 -37 28 -32 3 2 6 -3 6
-10 0 -7 -6 -13 -13 -13 -7 0 -11 4 -8 9 3 4 1 8 -4 8 -5 0 -12 -9 -15 -20 -3
-13 -1 -18 6 -13 7 3 4 -2 -5 -13 -14 -16 -15 -23 -5 -34 10 -10 9 -11 -2 -5
-11 6 -13 4 -8 -8 4 -10 0 -17 -11 -20 -16 -4 -15 -5 1 -6 9 0 17 -6 17 -12 0
-6 -6 -9 -13 -6 -8 3 -14 -1 -14 -9 0 -9 6 -13 16 -9 11 4 10 0 -5 -16 -11
-14 -13 -19 -4 -14 9 5 7 -1 -5 -15 -13 -15 -15 -21 -5 -16 8 4 6 0 -4 -8 -15
-12 -16 -16 -5 -16 12 0 12 -2 -1 -10 -10 -6 -11 -10 -2 -10 6 0 12 -5 12 -11
0 -5 -4 -8 -8 -5 -5 3 -9 -1 -9 -9 0 -8 4 -12 8 -10 10 7 5 -22 -6 -32 -4 -4
-5 -2 -1 4 5 9 2 11 -8 7 -9 -3 -16 -10 -16 -16 0 -5 4 -7 8 -4 4 2 14 1 22
-5 13 -7 12 -9 -2 -9 -9 0 -20 -5 -24 -12 -5 -7 -3 -8 7 -3 12 8 12 6 0 -8
-11 -14 -11 -17 0 -17 10 -1 8 -4 -3 -11 -10 -5 -18 -15 -18 -20 0 -6 5 -7 10
-4 15 9 12 -2 -6 -19 -8 -9 -10 -16 -4 -16 7 0 8 -6 1 -18 -7 -13 -6 -23 1
-30 9 -9 9 -12 -1 -12 -11 0 -11 -3 -2 -14 10 -12 8 -19 -8 -35 -12 -12 -17
-21 -11 -21 5 0 7 -7 4 -15 -4 -8 -11 -12 -18 -8 -7 4 -7 2 1 -7 9 -10 8 -16
-3 -27 -17 -18 -19 -37 -1 -27 8 6 8 3 -1 -9 -8 -9 -10 -22 -6 -29 6 -10 5
-11 -7 -1 -14 11 -16 9 -14 -17 1 -17 -2 -30 -7 -30 -4 0 -8 -7 -8 -16 0 -9
-5 -12 -12 -8 -8 5 -8 2 1 -10 12 -14 12 -17 1 -14 -8 2 -14 -3 -15 -10 0 -7
-7 -17 -15 -22 -13 -9 -13 -11 0 -20 13 -8 12 -10 -3 -10 -10 0 -16 -4 -12 -9
3 -5 -1 -16 -9 -24 -8 -8 -12 -17 -9 -21 4 -3 0 -6 -8 -6 -11 0 -11 -2 1 -10
13 -8 12 -10 -2 -10 -10 0 -18 -7 -18 -15 0 -8 -4 -15 -9 -15 -5 0 -7 -10 -4
-22 4 -19 3 -20 -6 -8 -9 13 -11 12 -11 -3 0 -12 -4 -16 -12 -11 -8 5 -7 0 2
-11 9 -11 10 -16 3 -11 -7 4 -13 3 -13 -1 0 -5 6 -15 13 -22 10 -10 9 -11 -5
-6 -13 5 -18 2 -18 -10 0 -9 -4 -14 -9 -10 -5 3 -12 -4 -16 -14 -3 -11 -15
-23 -26 -26 -10 -4 -17 -11 -14 -16 6 -8 -8 -13 -27 -10 -5 0 -8 -6 -8 -15 0
-9 5 -12 13 -8 8 5 8 3 -2 -9 -7 -9 -17 -15 -21 -12 -4 3 -10 -2 -14 -10 -3
-8 -1 -17 5 -20 14 -9 1 -25 -15 -19 -9 4 -13 -2 -11 -19 2 -13 -2 -24 -9 -24
-6 0 -17 -2 -25 -4 -7 -2 -16 3 -18 11 -4 12 -3 12 5 2 7 -11 10 -11 16 3 3 9
10 14 15 11 5 -3 9 5 9 19 0 14 -4 22 -9 19 -5 -3 -9 1 -9 8 0 8 -5 6 -11 -5
-6 -9 -14 -15 -20 -12 -5 4 -9 1 -9 -5 0 -6 -5 -8 -10 -5 -8 5 -7 11 1 21 19
23 2 16 -25 -11 -14 -14 -22 -25 -18 -25 5 0 13 5 19 11 8 8 13 7 18 -2 12
-19 14 -59 3 -59 -5 0 -7 9 -3 19 8 25 -9 35 -28 17 -8 -8 -18 -12 -22 -8 -5
4 -5 2 -2 -4 4 -7 0 -17 -8 -24 -12 -10 -12 -15 2 -38 l17 -27 -23 23 c-29 30
-35 28 -14 -5 l17 -28 -22 19 c-22 19 -22 19 -16 1 5 -13 4 -16 -5 -11 -8 6
-11 2 -9 -10 2 -12 -2 -18 -10 -16 -8 1 -11 -2 -7 -8 3 -5 -1 -13 -9 -16 -9
-3 -16 -12 -16 -20 0 -8 -5 -14 -11 -14 -5 0 -7 5 -3 12 4 7 3 8 -4 4 -7 -4
-12 -13 -12 -20 0 -7 -11 -22 -25 -32 -14 -10 -25 -24 -25 -31 0 -7 -4 -13
-10 -13 -5 0 -9 -5 -7 -11 1 -6 -4 -14 -12 -17 -9 -3 -11 0 -6 9 5 8 4 10 0 6
-5 -4 -10 -15 -11 -25 -2 -9 -8 -18 -14 -20 -7 -3 -7 -9 2 -20 12 -14 10 -14
-12 -2 -24 13 -24 12 -10 -5 9 -11 10 -16 3 -11 -8 4 -13 2 -13 -4 0 -6 -5 -8
-12 -4 -9 5 -9 2 1 -9 12 -15 11 -17 -9 -17 -18 0 -20 -3 -11 -14 9 -11 9 -16
0 -22 -7 -4 -9 -3 -5 4 4 6 -1 10 -13 9 -15 -1 -17 -4 -9 -14 7 -9 7 -13 -1
-13 -7 0 -9 -5 -5 -12 6 -10 4 -10 -8 0 -13 11 -16 10 -14 -5 0 -11 -5 -17
-13 -15 -12 3 -12 1 0 -14 8 -10 9 -15 3 -11 -20 12 -39 -20 -23 -40 7 -10 9
-15 5 -11 -13 11 -36 -11 -30 -27 3 -7 0 -16 -5 -20 -6 -3 -9 -11 -6 -16 4 -5
2 -9 -2 -9 -5 0 -9 -10 -10 -21 -1 -12 -10 -30 -20 -41 -15 -16 -15 -21 -3
-28 13 -8 13 -10 0 -10 -9 0 -11 -3 -5 -8 13 -9 19 -35 6 -28 -9 6 -24 -30
-21 -53 1 -7 -3 -10 -9 -6 -7 3 -11 -3 -11 -15 0 -12 -11 -41 -25 -66 -14 -25
-21 -43 -16 -40 18 11 5 -24 -15 -40 -18 -14 -18 -15 6 -9 17 4 21 3 11 -3 -8
-6 -10 -15 -6 -22 5 -9 4 -11 -3 -6 -7 4 -12 2 -12 -4 0 -6 -3 -9 -7 -7 -5 3
-8 -11 -7 -31 0 -21 -5 -41 -10 -45 -7 -5 -4 -7 7 -3 19 6 24 -10 5 -17 -7 -3
-4 -6 7 -7 l20 -1 -20 -9 -20 -9 20 -1 20 -1 -20 -9 c-17 -7 -17 -9 -2 -9 9
-1 17 -6 17 -12 0 -5 -4 -7 -10 -4 -5 3 -10 -1 -10 -9 0 -9 5 -16 11 -16 6 0
3 -7 -6 -16 -14 -15 -14 -18 -1 -38 9 -11 21 -30 26 -41 10 -18 10 -19 -3 -2
-16 19 -33 22 -42 7 -4 -6 -1 -9 6 -8 6 2 14 -3 17 -11 3 -10 0 -12 -11 -8
-14 5 -15 3 -5 -13 7 -10 16 -18 21 -17 5 1 16 -9 25 -22 16 -24 16 -24 -6
-12 -13 7 -20 17 -16 24 4 8 2 7 -7 -1 -12 -11 -11 -15 4 -23 9 -6 17 -15 17
-21 0 -6 -7 -5 -17 3 -17 13 -17 13 0 -7 9 -11 14 -24 10 -29 -5 -4 1 -5 11
-1 20 7 20 7 0 -15 l-19 -22 23 12 c19 10 22 9 22 -8 0 -13 -5 -19 -14 -15 -8
3 -17 1 -20 -4 -3 -5 6 -9 20 -9 32 0 41 -10 24 -26 -7 -6 -10 -7 -7 -2 3 6
-3 11 -13 11 -10 0 -17 -3 -14 -7 2 -4 -2 -10 -8 -13 -7 -3 -3 -3 9 -1 12 3
24 1 28 -6 5 -7 14 -1 27 18 11 15 17 20 14 9 -5 -14 -2 -17 10 -12 9 4 23 1
30 -5 9 -8 14 -8 14 -1 0 6 -4 14 -10 17 -5 3 -10 11 -10 18 0 6 7 2 16 -9 14
-17 15 -17 10 -1 -4 11 -2 16 5 12 6 -4 8 -13 5 -20 -2 -7 2 -22 10 -34 9 -12
11 -20 6 -19 -6 2 -10 -1 -10 -7 0 -5 4 -9 9 -8 15 5 10 -14 -5 -20 -15 -6
-16 -23 -2 -46 6 -9 5 -12 -1 -8 -6 4 -19 -3 -29 -14 -18 -20 -18 -20 8 -15
22 4 25 1 20 -17 -5 -18 -7 -19 -10 -5 -2 10 -9 15 -18 11 -11 -4 -12 -9 -4
-18 9 -10 6 -16 -8 -24 -17 -9 -24 -5 -48 27 -17 23 -20 30 -8 20 19 -17 21
-17 37 2 15 18 15 20 -6 35 -12 8 -15 15 -8 15 7 0 11 6 8 14 -4 11 -1 13 11
9 15 -6 15 -5 3 10 -7 9 -17 15 -21 12 -5 -3 -12 0 -16 6 -4 7 -3 9 4 5 17
-10 24 11 11 35 -9 17 -13 19 -20 8 -4 -8 -4 -16 2 -20 7 -4 4 -9 -6 -12 -9
-4 -13 -3 -10 2 3 5 1 12 -5 16 -10 6 -14 -7 -11 -32 2 -14 -39 -44 -51 -37
-4 3 -8 0 -8 -6 0 -8 7 -9 18 -5 29 11 34 11 40 -4 3 -8 0 -11 -7 -7 -7 5 -9
1 -4 -10 4 -12 3 -15 -5 -10 -7 4 -12 2 -12 -3 0 -6 -4 -11 -10 -11 -5 0 -7 8
-4 17 5 17 5 17 -6 0 -6 -9 -16 -14 -22 -11 -7 4 -8 2 -4 -5 4 -6 11 -9 16 -6
5 3 8 -10 6 -28 -4 -37 25 -48 44 -17 6 9 10 10 10 3 0 -6 -5 -15 -12 -19 -7
-5 -5 -11 7 -21 23 -16 12 -17 -15 -1 -16 10 -22 10 -32 -1 -8 -9 -9 -11 -1
-7 6 3 17 0 25 -7 7 -8 20 -16 28 -20 13 -5 13 -6 -1 -6 -8 -1 -20 4 -26 10
-9 9 -10 6 -6 -11 4 -15 2 -21 -5 -16 -6 3 -13 3 -16 -2 -7 -12 27 -11 35 0 3
5 9 2 12 -7 4 -9 3 -13 -3 -10 -6 3 -10 1 -10 -5 0 -6 -5 -8 -11 -4 -7 4 -7
-1 1 -16 10 -19 9 -22 -10 -27 -11 -3 -19 -11 -17 -17 2 -6 -3 -17 -12 -24
-10 -8 -10 -11 -2 -6 9 5 12 3 7 -4 -4 -7 -15 -12 -24 -12 -16 -1 -16 -1 1
-11 9 -5 17 -15 17 -22 0 -7 -4 -6 -10 3 -5 8 -10 11 -10 6 0 -5 -8 -2 -17 5
-16 13 -17 12 -4 -4 13 -16 12 -20 -4 -35 -18 -16 -18 -16 -4 3 13 18 12 19
-2 8 -9 -7 -18 -10 -21 -8 -3 3 -13 -6 -23 -21 -9 -15 -12 -23 -6 -20 6 4 11
2 11 -3 0 -14 -6 -14 -32 0 -17 9 -20 9 -15 -3 3 -8 1 -21 -4 -29 -8 -12 -10
-12 -8 1 3 29 -1 41 -11 35 -6 -4 -8 -10 -5 -14 2 -5 -7 -7 -20 -5 -14 1 -25
-2 -25 -7 0 -6 -5 -7 -10 -4 -8 5 -7 11 1 21 6 8 8 14 4 14 -4 0 -1 8 6 18 13
15 12 16 -3 3 -10 -7 -15 -17 -13 -22 3 -4 -3 -13 -14 -18 -25 -14 -44 -14
-36 -1 3 5 1 10 -5 10 -7 0 -9 -7 -6 -16 4 -10 2 -13 -7 -8 -28 16 -46 37 -41
48 3 6 -2 2 -10 -8 -9 -11 -16 -24 -16 -29 0 -4 -4 -6 -10 -2 -5 3 -7 12 -3
20 3 8 -9 2 -27 -15 -18 -16 -37 -27 -43 -23 -8 5 -7 8 1 11 10 3 10 7 1 19
-11 12 -9 13 13 8 27 -7 47 8 27 21 -8 4 -9 3 -5 -4 11 -18 -19 -15 -34 3 -9
11 -9 15 -1 15 7 0 9 5 5 11 -9 16 -24 -9 -17 -30 3 -11 0 -10 -13 4 -14 17
-16 17 -11 3 6 -17 -3 -23 -26 -19 -5 1 -6 -3 -2 -8 3 -6 13 -7 23 -4 9 3 14
2 9 -2 -12 -14 -51 -13 -65 2 -8 7 -18 10 -24 7 -6 -4 -8 2 -3 17 7 23 7 23
-8 4 -8 -11 -12 -22 -8 -25 9 -6 6 -38 -4 -48 -4 -4 -6 0 -5 8 4 26 0 41 -8
36 -4 -2 -9 -19 -10 -36 -2 -22 1 -29 9 -24 8 4 9 3 5 -5 -12 -18 -28 -1 -23
25 2 14 -2 29 -11 36 -13 11 -14 10 -8 -10 4 -13 3 -22 -3 -22 -5 0 -13 -9
-16 -21 -4 -11 -9 -18 -12 -16 -2 3 0 15 7 26 7 14 7 21 0 21 -5 0 -10 -4 -10
-10 0 -5 -9 -14 -20 -20 -11 -6 -20 -7 -19 -3 4 22 -2 34 -13 27 -10 -6 -10
-5 -1 8 13 15 8 28 -9 28 -5 0 -6 -6 -2 -13 4 -6 -2 -4 -13 6 -11 9 -23 14
-27 10 -4 -4 -3 4 2 17 6 15 16 24 26 22 29 -5 17 14 -19 28 -35 14 -51 35
-34 45 11 7 2 25 -12 25 -6 0 -8 -4 -4 -9 3 -5 2 -12 -2 -14 -5 -3 -9 8 -9 24
-2 35 2 36 31 5 18 -20 20 -26 8 -30 -15 -6 -9 -26 8 -26 6 0 8 4 4 9 -3 5 0
13 6 17 8 5 9 3 5 -5 -5 -8 -1 -14 12 -18 23 -6 35 -39 22 -63 -10 -18 13 -22
38 -7 8 6 10 3 6 -8 -4 -10 -13 -14 -23 -10 -12 5 -13 3 -5 -5 9 -9 17 -9 33
0 12 6 27 8 34 5 6 -4 3 1 -7 9 -11 9 -16 19 -12 23 4 5 18 -5 30 -20 20 -25
24 -26 36 -13 8 11 9 16 1 17 -20 3 -26 4 -38 12 -7 5 -13 13 -13 19 0 7 5 7
14 -1 7 -6 22 -8 31 -4 12 4 16 3 11 -5 -3 -6 -2 -13 4 -17 5 -3 10 1 10 10 0
8 7 18 15 21 8 4 15 11 15 17 0 6 -3 7 -7 4 -3 -4 -15 1 -25 10 -18 16 -18 16
-12 0 3 -9 10 -17 16 -17 5 0 6 -5 2 -12 -5 -7 -11 -5 -21 7 -12 17 -13 17
-13 2 0 -21 -19 -22 -27 -2 -5 13 -8 13 -20 -5 -8 -11 -19 -20 -25 -20 -6 0
-5 7 3 17 10 11 10 14 2 9 -7 -4 -13 -2 -13 3 0 6 -5 11 -11 11 -8 0 -8 -4 0
-14 8 -10 9 -16 1 -21 -11 -7 -11 -7 -15 45 -3 31 -2 33 11 15 10 -14 14 -15
14 -4 0 15 -39 45 -54 41 -5 -2 -6 4 -2 13 3 10 2 13 -5 10 -5 -4 -7 -16 -4
-26 6 -18 5 -19 -14 -7 -12 7 -21 16 -21 21 0 4 5 5 10 2 6 -3 11 0 11 7 1 15
5 31 8 38 10 21 8 41 -2 31 -16 -16 -32 -14 -17 3 10 13 7 14 -15 10 -15 -3
-24 -1 -21 5 3 5 -1 12 -10 15 -8 3 -12 10 -9 16 13 21 -26 22 -41 1 -21 -30
-38 -26 -18 4 9 13 14 30 11 37 -3 7 -6 4 -7 -7 0 -17 -2 -18 -10 -4 -6 10
-20 15 -35 14 -34 -4 -49 24 -30 52 13 18 13 22 0 27 -8 3 -17 0 -21 -6 -4 -7
-3 -8 4 -4 7 4 12 2 12 -3 0 -12 -23 -15 -33 -4 -4 3 -1 13 6 21 10 13 9 14
-2 7 -11 -6 -13 -4 -8 9 4 9 3 14 -2 11 -5 -3 -12 -1 -16 5 -4 6 -11 8 -16 5
-8 -6 -13 7 -10 27 0 3 -11 5 -24 3 -19 -2 -23 1 -15 10 13 15 -3 30 -20 20
-5 -3 -10 -2 -10 4 0 5 8 12 18 14 16 4 16 5 -1 6 -10 0 -20 -6 -23 -14 -9
-21 -19 -19 -21 5 -1 11 2 18 8 15 5 -4 9 -2 9 4 0 19 -19 21 -24 3 -6 -17
-46 -26 -46 -10 0 4 6 8 14 8 8 0 17 7 20 16 10 26 7 29 -10 8 -8 -10 -13 -13
-9 -6 3 6 -1 15 -9 18 -9 3 -13 10 -10 15 3 5 0 9 -5 9 -16 0 -13 -20 3 -26 8
-3 12 -12 9 -20 -6 -16 -29 8 -35 37 -6 27 -46 51 -66 40 -11 -6 -23 -7 -27
-3 -5 4 -5 2 -1 -5 9 -17 -12 -27 -29 -13 -17 14 -67 8 -73 -10 -3 -8 0 -10 8
-5 8 5 11 4 6 -3 -3 -6 -2 -13 4 -17 5 -3 10 0 10 8 0 18 27 30 35 17 3 -5 1
-18 -4 -28 -6 -11 -7 -23 -3 -27 4 -5 1 -5 -6 -1 -8 5 -9 13 -2 26 16 30 11
37 -9 12 -16 -22 -19 -22 -33 -8 -9 8 -17 13 -20 11 -2 -2 -4 5 -5 15 -1 11 2
22 8 25 5 4 9 11 9 17 0 6 -9 3 -20 -7 -11 -10 -23 -15 -27 -12 -3 4 -1 7 5 7
7 0 11 6 9 13 -2 13 26 14 55 2 12 -5 16 -2 13 12 -2 10 -4 20 -4 23 -1 3 -5
-1 -10 -9 -7 -10 -13 -11 -27 -2 -12 6 -14 11 -5 11 11 0 11 3 0 17 -10 11
-10 14 -1 9 8 -5 12 0 12 16 0 18 -2 20 -10 8 -6 -9 -10 -10 -10 -3 0 6 5 15
10 18 7 4 6 13 -1 27 -8 15 -8 23 1 32 8 8 10 7 5 -6 -5 -13 -2 -18 9 -18 9 0
16 -5 16 -11 0 -5 -5 -7 -12 -3 -7 4 -8 3 -4 -5 4 -6 12 -8 18 -5 5 4 4 -4 -3
-17 -13 -25 -13 -27 3 -47 8 -9 14 -10 25 0 8 6 13 7 12 2 -5 -27 1 -39 12
-24 9 13 10 13 6 0 -2 -8 -13 -14 -23 -12 -17 2 -17 1 -2 -8 19 -12 51 -3 41
13 -3 5 3 17 13 25 17 13 17 14 1 9 -13 -5 -20 0 -27 18 -12 31 -24 33 -14 3
6 -20 5 -21 -9 -9 -10 8 -15 24 -13 42 2 16 0 27 -3 25 -8 -6 -43 20 -42 31 1
4 -8 9 -19 9 -14 1 -19 -3 -16 -12 6 -15 -10 -29 -44 -38 -17 -4 -14 -1 9 10
32 14 33 16 16 34 -10 11 -23 17 -29 13 -6 -4 -3 3 7 14 16 18 16 21 2 27 -9
3 -14 2 -11 -3 3 -5 -2 -15 -11 -22 -12 -10 -14 -10 -9 -1 4 7 2 12 -7 12 -10
0 -14 -7 -11 -22 5 -23 4 -23 -5 -2 -9 21 -31 41 -31 29 0 -4 5 -15 11 -26 11
-22 -3 -49 -25 -49 -6 0 -3 5 7 11 9 5 17 15 17 21 0 7 -5 6 -15 -2 -22 -18
-38 -3 -21 22 8 11 12 27 9 35 -3 7 3 23 13 34 20 22 27 49 13 49 -5 0 -9 7
-9 16 0 8 -4 13 -9 10 -5 -4 -7 4 -3 16 3 13 1 19 -5 15 -18 -11 -50 20 -35
34 20 21 14 33 -8 14 -11 -10 -20 -13 -20 -7 0 7 5 12 11 12 5 0 7 5 3 12 -4
6 -3 8 4 4 6 -3 13 -2 16 3 4 5 -3 12 -14 16 -11 3 -20 11 -20 18 0 8 3 8 12
-1 7 -7 17 -12 22 -12 6 1 0 10 -13 21 -19 15 -26 17 -32 7 -7 -11 -9 -11 -9
0 0 7 -4 11 -9 8 -4 -3 -17 1 -27 9 -19 15 -19 15 0 8 15 -5 17 -3 10 8 -4 8
-10 23 -11 34 -2 16 -1 17 6 5 5 -8 7 -18 5 -22 -3 -4 -1 -8 4 -8 6 0 13 7 16
16 3 8 11 12 17 8 6 -3 7 -9 3 -13 -23 -16 -34 -38 -19 -38 8 0 11 5 8 10 -4
6 -1 7 7 2 9 -6 11 -4 4 6 -6 10 -1 9 16 -3 14 -9 24 -22 22 -28 -1 -6 2 -9 7
-5 6 3 8 -3 6 -15 -5 -26 7 -26 23 0 7 11 9 20 5 19 -22 -4 -25 3 -7 16 19 15
19 15 -1 8 -18 -6 -19 -5 -6 11 8 9 10 16 5 15 -20 -4 -28 2 -14 11 8 5 11 12
8 15 -4 4 -15 -3 -25 -14 -21 -25 -42 -29 -22 -4 12 14 12 16 0 8 -11 -6 -13
-4 -8 10 7 17 6 17 -18 1 -20 -13 -25 -14 -25 -3 0 8 -8 25 -18 38 -21 26 -25
57 -10 76 5 7 5 14 -2 18 -5 3 -10 1 -10 -6 0 -7 -3 -10 -6 -6 -3 3 -2 13 4
22 11 21 25 -2 26 -44 1 -25 33 -40 33 -15 0 7 -5 10 -10 7 -6 -4 -8 4 -5 20
3 14 2 26 -1 25 -19 -2 -22 4 -11 17 11 13 10 14 -2 10 -8 -3 -26 6 -40 20
-25 24 -27 25 -37 8 -6 -10 -10 -13 -11 -8 0 18 16 35 37 39 12 3 20 -1 20 -9
0 -8 -5 -11 -10 -8 -6 3 -7 1 -3 -5 4 -6 14 -8 22 -5 9 3 12 9 7 12 -13 10
-14 31 0 31 6 1 3 6 -8 13 -23 14 -31 37 -12 37 6 1 0 8 -15 16 -34 18 -39 40
-5 23 l22 -11 -22 21 c-24 23 -38 28 -27 9 4 -7 3 -8 -5 -4 -6 4 -17 4 -24 -2
-23 -18 -46 -22 -41 -7 3 8 13 11 22 8 9 -4 14 -3 10 2 -4 4 -3 14 3 22 12 14
0 18 -17 6 -5 -5 -1 0 9 10 14 12 15 17 6 18 -8 0 -4 5 9 11 23 12 30 28 11
28 -8 0 -8 4 -2 13 6 6 9 20 8 30 -2 9 0 17 4 17 8 0 10 8 14 58 1 17 6 32 12
32 5 0 3 5 -5 10 -12 8 -12 10 5 10 11 0 16 4 10 8 -17 12 -11 46 10 64 19 17
19 19 -7 22 -6 0 -13 7 -16 14 -2 8 2 10 13 5 15 -5 16 -3 6 15 -7 12 -14 22
-17 22 -3 0 -3 -4 0 -8 3 -5 -1 -9 -9 -9 -8 0 -15 4 -15 8 0 10 30 20 41 13 5
-3 9 0 9 6 0 7 -12 9 -31 6 -25 -4 -28 -2 -19 9 6 8 19 11 28 8 13 -4 14 -3 3
5 -7 5 -10 15 -7 21 4 6 1 13 -6 16 -16 6 -21 42 -8 50 5 3 6 13 3 22 -4 10
-2 14 4 10 5 -3 10 0 10 8 0 8 -5 11 -10 8 -6 -4 -8 0 -4 10 3 10 2 17 -3 17
-5 0 -6 7 -3 17 5 12 3 14 -8 8 -11 -7 -12 -6 -2 7 7 8 10 18 6 21 -3 4 -1 7
5 7 9 0 9 5 0 19 -7 11 -15 18 -18 16 -3 -2 -11 5 -18 16 -13 21 -3 26 16 7 9
-9 9 -5 0 15 -7 15 -17 27 -21 27 -5 0 -5 5 -1 12 4 7 3 8 -4 4 -7 -4 -12 -2
-12 5 0 7 -3 9 -6 6 -4 -4 -1 -13 6 -22 13 -15 3 -20 -15 -7 -13 9 -19 42 -8
42 5 0 9 10 10 23 0 12 -1 16 -4 10 -3 -7 -11 -13 -19 -13 -8 0 -14 -5 -14
-11 0 -5 4 -8 8 -5 4 2 8 -4 8 -14 0 -10 -4 -16 -8 -14 -14 9 -9 -7 7 -23 8
-8 13 -19 10 -24 -4 -5 -1 -9 5 -9 7 0 10 7 7 14 -4 10 -1 13 7 10 7 -3 13
-11 13 -19 0 -8 -5 -11 -10 -8 -6 3 -7 1 -3 -5 5 -8 1 -10 -11 -6 -15 5 -15 4
-3 -4 8 -6 18 -8 22 -6 4 3 8 0 8 -6 0 -6 5 -8 12 -4 7 4 8 3 4 -4 -4 -8 -2
-10 8 -6 10 4 14 0 13 -15 -1 -14 -5 -17 -13 -10 -6 5 -18 7 -27 3 -8 -3 -18
-1 -21 5 -4 6 -14 8 -24 5 -9 -3 -6 1 7 9 20 12 21 15 7 20 -10 4 -14 11 -11
17 3 5 1 10 -5 10 -6 0 -10 7 -8 16 2 10 -3 19 -10 21 -8 3 -10 -2 -6 -14 5
-15 4 -16 -5 -3 -10 13 -12 13 -21 0 -5 -8 -10 -11 -10 -5 0 5 12 19 27 31 24
19 25 22 11 42 -8 12 -18 19 -23 14 -5 -4 -5 -1 -1 6 6 10 11 10 22 1 11 -9
14 -9 14 0 0 7 5 9 11 5 8 -5 8 -1 0 14 -14 26 -14 35 0 27 6 -4 5 2 -2 13 -7
12 -17 18 -21 16 -4 -3 -8 0 -8 5 0 6 6 11 13 11 7 0 13 9 13 20 0 13 -5 19
-14 15 -7 -3 -16 -5 -18 -5 -3 0 -3 -4 0 -9 3 -5 -1 -12 -9 -15 -12 -4 -13 -2
-6 13 6 10 17 21 24 24 8 3 16 14 19 24 7 25 -35 27 -50 2 -7 -11 -8 -19 -3
-19 6 0 13 5 16 10 3 6 12 10 18 10 7 0 0 -8 -15 -17 -15 -10 -29 -22 -31 -28
-2 -5 -3 -2 -2 7 2 10 -1 21 -7 24 -5 4 -3 13 6 23 16 18 11 34 -14 44 -12 4
-11 6 3 6 11 1 16 6 12 14 -4 6 1 3 9 -7 9 -11 16 -23 16 -27 0 -4 6 -9 13
-12 8 -3 14 1 14 9 0 7 -4 11 -9 8 -4 -3 -13 6 -20 20 -12 28 -33 34 -41 14
-3 -9 -12 -5 -28 12 -21 21 -21 22 -2 6 21 -17 23 -17 29 -2 4 11 14 15 28 11
11 -2 15 -2 9 1 -7 3 -13 12 -13 20 0 8 -5 14 -11 14 -5 0 -7 -6 -3 -12 5 -10
4 -10 -6 -1 -7 6 -19 9 -26 6 -8 -3 -14 0 -14 7 0 6 5 8 10 5 6 -3 10 3 10 15
0 12 -4 19 -9 16 -10 -7 -24 22 -16 34 3 5 1 11 -5 15 -5 3 -10 1 -10 -5 0 -6
-5 -8 -11 -5 -6 5 -4 12 8 20 17 13 17 14 -7 24 -18 7 -20 10 -7 10 9 1 17 6
17 12 0 5 4 7 10 4 6 -3 7 1 4 10 -4 9 -9 14 -11 11 -3 -2 -13 4 -24 15 -11
11 -23 18 -28 15 -4 -3 -8 1 -8 9 0 8 4 12 9 9 4 -3 8 0 8 5 0 6 -6 11 -14 11
-8 0 -17 7 -20 16 -5 14 -4 15 8 5 8 -7 17 -8 20 -3 6 9 -21 27 -36 24 -4 -1
-5 5 -1 14 3 9 9 12 12 7 8 -10 32 -10 49 1 11 6 10 12 -2 31 -11 17 -12 25
-3 34 7 7 8 12 2 11 -20 -4 -35 0 -35 11 0 5 5 7 10 4 6 -3 10 -2 10 4 0 5 -4
13 -10 16 -5 3 -10 1 -10 -6 0 -15 -13 -4 -16 14 -2 7 -5 22 -8 34 -3 14 1 24
11 27 14 6 14 8 -1 25 -9 9 -13 21 -9 26 5 4 3 5 -4 1 -7 -4 -12 1 -13 11 -1
44 -5 61 -11 57 -4 -2 -10 3 -13 12 -4 12 -2 15 9 10 22 -8 19 1 -4 14 -14 7
-22 7 -27 -2 -4 -7 -3 -8 4 -4 7 4 10 -1 7 -14 -2 -11 0 -20 6 -20 16 0 10
-15 -11 -28 -15 -9 -19 -9 -18 0 2 7 -2 12 -9 13 -6 0 -15 4 -20 9 -4 5 -3 6
4 2 6 -3 14 -2 18 4 3 5 1 10 -4 10 -6 0 -11 5 -11 12 0 9 3 9 12 0 7 -7 17
-12 23 -12 5 1 -1 9 -14 20 -12 11 -27 17 -33 14 -5 -3 -8 2 -6 12 2 11 -2 18
-8 17 -6 -1 -11 5 -11 12 0 11 4 12 13 4 9 -7 19 -7 35 1 12 7 19 7 15 2 -4
-6 3 -8 16 -4 21 5 21 6 2 12 -10 4 -22 6 -26 3 -5 -2 -8 1 -8 6 0 6 5 11 10
11 6 0 10 4 10 8 0 10 -50 9 -71 -2 -8 -4 -3 1 11 12 18 15 27 17 32 9 4 -7 8
-7 9 -2 0 6 2 18 4 27 3 16 1 16 -20 2 -16 -10 -25 -12 -30 -4 -3 6 -3 9 2 8
11 -3 53 25 53 35 0 4 -12 0 -27 -10 l-28 -17 20 24 c11 13 14 20 8 16 -9 -5
-13 2 -13 24 0 22 4 29 13 24 6 -4 5 1 -4 12 -9 10 -14 25 -12 32 6 15 -13 16
-23 0 -4 -6 -3 -8 3 -5 5 3 10 0 10 -6 0 -15 -34 -20 -42 -6 -3 5 2 6 12 3 16
-5 16 -4 -1 10 -11 9 -23 16 -28 16 -4 0 -8 5 -8 12 0 9 3 9 12 0 7 -7 17 -12
23 -12 5 1 -1 10 -14 20 l-24 20 24 -4 c13 -2 23 -9 21 -15 -4 -18 12 -13 26
9 7 12 8 20 2 20 -5 0 -10 -5 -10 -11 0 -5 -5 -7 -10 -4 -6 4 -7 12 -3 18 15
24 10 44 -9 39 -10 -2 -18 1 -18 8 0 9 -4 9 -17 -1 -16 -13 -17 -12 -5 2 7 10
21 15 31 12 32 -8 33 14 1 37 -19 13 -30 17 -30 9 0 -7 -3 -9 -6 -6 -4 4 -3
12 3 19 11 16 11 28 -2 48 -13 21 -15 39 -5 45 5 3 7 -3 5 -14 -5 -25 16 -43
35 -31 8 6 10 10 4 10 -7 0 -15 7 -18 16 -6 14 -4 15 9 4 14 -12 15 -11 4 13
-7 15 -17 23 -23 20 -6 -4 -6 0 1 8 9 12 10 18 1 27 -8 8 -8 15 1 26 10 12 9
17 -6 26 -16 10 -16 11 0 6 11 -3 17 0 17 10 0 8 -4 12 -10 9 -5 -3 -10 -4
-10 0 0 3 10 10 23 16 19 8 18 9 -10 5 -18 -3 -35 0 -39 6 -4 6 -3 8 3 5 5 -3
23 -2 39 3 16 4 23 9 17 9 -7 1 -13 8 -13 17 0 9 5 12 13 8 8 -6 8 -3 -1 9 -8
9 -11 21 -7 27 3 5 2 10 -4 10 -6 0 -16 10 -22 23 -11 19 -10 20 3 9 13 -10
18 -9 28 3 11 13 10 14 -3 10 -20 -8 -34 15 -16 26 10 6 10 9 2 9 -8 0 -11 9
-9 23 3 12 5 26 5 30 1 5 5 6 10 2 5 -3 13 0 16 6 11 17 -2 22 -25 9 -27 -14
-81 -25 -62 -12 8 5 12 12 10 15 -6 9 49 47 58 39 5 -4 2 1 -5 11 -14 18 -47
5 -35 -14 3 -5 0 -9 -6 -9 -6 0 -10 8 -8 18 2 10 -2 16 -10 14 -8 -1 -11 2 -7
7 3 6 12 8 19 5 8 -3 17 -1 21 5 4 7 0 8 -11 4 -13 -5 -16 -3 -11 10 3 9 0 23
-8 31 -8 7 -13 15 -12 17 1 3 -2 1 -7 -3 -15 -12 -28 -9 -20 4 4 6 3 8 -4 4
-5 -3 -13 0 -16 6 -3 7 -3 3 0 -9 4 -18 -1 -25 -30 -37 -28 -12 -34 -19 -29
-33 6 -16 5 -17 -12 -3 -17 14 -18 14 -6 -8 11 -20 10 -23 -6 -20 -10 2 -17
-2 -16 -9 2 -6 -6 -15 -17 -18 -11 -4 -18 -11 -15 -16 4 -5 1 -9 -5 -9 -6 0
-8 -5 -4 -12 5 -7 2 -9 -8 -6 -8 4 -15 0 -15 -7 0 -20 34 0 42 24 3 11 13 22
23 27 23 10 57 16 50 8 -3 -3 -14 -7 -25 -8 -10 -2 -17 -10 -17 -19 1 -10 -4
-13 -14 -9 -11 4 -14 1 -9 -12 4 -10 3 -15 -3 -11 -6 3 -10 1 -10 -4 0 -6 -7
-11 -15 -11 -11 0 -12 -5 -5 -25 5 -14 7 -25 5 -25 -3 0 -10 11 -15 25 -10 25
-32 36 -26 13 1 -7 1 -10 -1 -5 -3 4 -9 5 -14 2 -5 -4 -6 2 -3 12 4 14 1 12
-13 -5 -18 -21 -19 -22 -19 -3 0 11 4 18 7 15 4 -2 10 0 14 5 3 6 13 8 23 5
15 -5 15 -5 -1 6 -9 6 -21 9 -26 5 -5 -3 -13 0 -17 6 -4 8 -3 9 4 5 7 -4 12
-2 12 4 0 7 6 8 18 1 14 -8 19 -6 19 5 0 8 -6 13 -13 10 -8 -3 -18 3 -23 12
-8 12 -10 13 -11 3 0 -8 -3 -12 -6 -8 -12 12 7 28 20 18 9 -8 13 -7 13 4 0 8
-10 15 -21 16 -20 0 -20 1 -2 8 15 6 16 10 7 16 -10 6 -10 9 -1 15 8 5 3 15
-16 34 -35 32 -37 32 -49 4 -6 -13 -17 -22 -24 -20 -7 1 -10 -2 -7 -7 3 -5
-10 -22 -31 -38 -23 -19 -30 -30 -20 -30 9 0 14 4 11 9 -3 4 -1 8 4 8 6 0 13
-7 16 -16 3 -8 2 -12 -3 -9 -5 3 -12 1 -16 -5 -4 -6 -15 -4 -30 6 -14 9 -26
11 -29 5 -3 -5 -1 -11 6 -13 8 -3 8 -9 -1 -24 -9 -13 -11 -14 -7 -2 6 19 -11
35 -36 35 -10 0 -14 -6 -10 -15 3 -10 1 -13 -6 -8 -15 9 -23 -7 -10 -24 8 -12
9 -12 4 3 -3 11 -2 16 4 12 17 -10 11 -25 -12 -35 -21 -8 -21 -9 -3 -10 16 0
17 -2 6 -9 -8 -5 -19 -7 -25 -5 -6 2 -12 -7 -12 -21 -2 -23 0 -24 15 -13 14
12 15 11 2 -5 -11 -14 -16 -15 -29 -5 -13 11 -14 11 -8 0 4 -7 2 -20 -6 -29
-12 -15 -11 -15 9 -4 20 10 22 9 16 -5 -4 -10 0 -22 11 -29 15 -11 15 -13 1
-19 -11 -4 -14 -2 -9 6 5 7 3 8 -6 3 -8 -5 -11 -4 -6 3 3 6 2 13 -3 16 -8 5
-8 -15 -1 -34 1 -3 2 -8 1 -13 0 -4 4 -6 10 -5 15 4 19 -45 5 -55 -7 -6 -5 -7
6 -4 24 8 49 -65 26 -79 -4 -3 -6 -10 -2 -15 3 -5 10 -7 15 -4 5 4 9 -1 9 -10
0 -10 -5 -13 -12 -9 -7 5 -1 -8 14 -28 15 -19 24 -39 20 -43 -4 -3 0 -5 8 -3
8 2 14 -3 12 -11 -1 -7 2 -19 8 -25 5 -7 8 -15 5 -18 -3 -2 2 -5 10 -5 8 0 11
5 8 10 -4 6 -1 7 7 2 8 -5 18 -1 27 10 7 11 13 15 13 9 0 -5 -14 -21 -32 -37
-32 -27 -33 -27 -6 -17 37 13 66 3 42 -15 -12 -8 -14 -14 -6 -19 7 -4 12 -2
12 3 0 6 8 11 18 11 15 0 15 -2 2 -11 -12 -9 -11 -10 6 -6 16 3 20 0 19 -17
-3 -30 5 -47 18 -39 6 3 7 1 3 -6 -4 -6 -11 -9 -16 -6 -5 3 -18 1 -28 -4 -14
-7 -19 -6 -20 5 -1 7 -3 21 -4 29 -1 8 -5 12 -10 9 -4 -3 -5 3 -2 13 5 15 4
16 -5 3 -13 -18 -11 16 2 38 5 7 4 12 -2 12 -10 0 -13 -7 -10 -26 0 -4 -4 -10
-10 -13 -6 -4 -1 -18 14 -35 29 -34 31 -40 10 -32 -8 3 -15 2 -15 -3 0 -5 9
-11 21 -14 12 -3 18 -10 15 -15 -3 -5 1 -18 9 -28 20 -26 19 -39 -2 -23 -10 7
-8 2 4 -11 19 -20 25 -22 35 -11 11 12 10 13 -5 8 -11 -4 -16 -3 -12 4 4 5 16
7 27 3 15 -5 19 -3 13 7 -5 8 -4 11 0 6 15 -13 14 -48 -2 -36 -10 9 -15 6 -22
-12 -6 -16 -5 -26 3 -29 6 -3 12 -11 14 -19 3 -12 1 -12 -14 0 -16 13 -16 12
-5 -8 9 -18 9 -23 -1 -23 -7 0 -2 -8 11 -17 23 -16 23 -17 5 -24 -18 -7 -18
-8 1 -9 11 -2 23 -2 28 -1 12 2 8 -6 -10 -20 -9 -8 -14 -9 -10 -3 3 6 0 11 -8
11 -13 0 -13 -3 1 -18 9 -10 13 -23 9 -29 -5 -9 -1 -10 16 -6 19 6 21 5 7 -3
-16 -11 -14 -51 3 -51 5 0 9 -5 9 -11 0 -5 -4 -8 -9 -4 -6 3 -9 -9 -8 -29 1
-19 5 -32 10 -29 4 2 4 9 1 15 -4 6 -3 9 2 5 5 -3 9 -21 8 -41 -1 -20 2 -36 6
-36 9 0 7 -41 -4 -58 -4 -7 -3 -12 3 -12 5 0 12 6 14 13 4 9 6 9 6 0 1 -6 -4
-15 -9 -18 -7 -4 -7 -13 0 -26 6 -10 7 -19 2 -19 -11 0 -10 -59 1 -77 4 -6 1
-14 -5 -16 -8 -3 -6 -6 5 -6 9 -1 17 -6 17 -12 0 -5 -4 -7 -10 -4 -15 9 -12
-4 5 -21 11 -11 12 -21 5 -40 -7 -17 -7 -23 0 -19 6 3 10 3 11 -2 0 -4 2 -16
4 -25 2 -10 -1 -20 -6 -24 -12 -7 -11 -24 2 -24 5 0 7 4 4 10 -4 6 1 7 11 3
13 -5 14 -7 2 -14 -9 -5 -13 -20 -10 -43 3 -24 8 -33 16 -29 6 4 6 0 -2 -9
-10 -13 -10 -17 0 -21 10 -4 9 -6 -1 -6 -11 -1 -10 -5 5 -17 10 -8 13 -12 5
-8 -11 5 -13 3 -8 -9 3 -10 2 -17 -3 -17 -6 0 -10 -5 -10 -11 0 -5 5 -7 10 -4
14 9 12 -8 -2 -24 -9 -10 -9 -12 -1 -7 14 8 14 -36 0 -45 -5 -4 0 -10 12 -14
l21 -6 -22 -20 c-13 -12 -17 -18 -10 -14 6 3 12 3 13 -2 0 -4 2 -18 3 -31 2
-17 -1 -21 -13 -17 -13 5 -14 4 -3 -6 13 -14 17 -33 4 -25 -11 7 -8 -31 3 -41
4 -5 5 -3 1 4 -3 6 -3 14 2 17 4 2 8 -6 8 -19 0 -13 -4 -21 -8 -19 -13 8 -9
-11 5 -25 10 -12 9 -13 -7 -7 -14 5 -16 3 -9 -6 12 -15 12 -77 0 -95 -4 -6 -2
-15 4 -19 8 -5 9 -3 4 6 -6 9 -4 11 5 5 10 -6 10 -10 -2 -19 -13 -10 -13 -13
-2 -24 10 -9 11 -18 4 -31 -5 -10 -6 -21 -2 -25 3 -4 0 -11 -8 -16 -12 -8 -12
-10 -1 -10 7 0 11 -6 8 -13 -3 -8 -1 -20 4 -28 5 -9 3 -22 -6 -36 -8 -12 -11
-24 -6 -27 5 -4 8 -33 7 -66 -1 -33 3 -62 9 -64 6 -3 6 -5 0 -5 -6 -1 -9 -20
-7 -46 3 -31 8 -43 16 -38 8 5 8 3 -1 -8 -6 -8 -10 -31 -9 -52 2 -21 -2 -40
-7 -44 -6 -3 -2 -12 9 -20 16 -12 17 -15 4 -23 -12 -7 -11 -12 5 -31 11 -12
15 -19 8 -16 -6 4 -14 3 -18 -3 -3 -5 0 -10 7 -10 7 -1 3 -9 -11 -20 -13 -11
-19 -20 -14 -20 5 0 14 5 20 11 8 8 13 7 18 -2 5 -8 4 -10 -3 -5 -7 4 -12 1
-12 -9 0 -10 -5 -13 -12 -9 -10 6 -10 4 -2 -7 13 -17 12 -40 -1 -36 -5 1 -9 5
-8 10 2 4 -1 7 -6 7 -5 0 -11 -6 -14 -12 -3 -10 -7 -10 -20 1 -9 7 -14 18 -10
24 3 6 1 7 -5 3 -9 -5 -8 -13 2 -29 13 -20 12 -24 -12 -41 l-27 -20 19 22 c16
19 17 25 6 35 -10 9 -11 9 -6 0 4 -7 3 -13 -2 -13 -15 0 -22 28 -9 33 7 2 0 4
-16 4 -15 0 -30 -3 -33 -8 -3 -5 2 -6 10 -3 16 6 21 -5 17 -35 -2 -7 2 -10 8
-6 7 4 8 0 4 -11 -4 -11 -8 -13 -11 -6 -2 7 -8 9 -14 6 -5 -4 -5 4 2 16 12 22
11 23 -21 16 -23 -4 -29 -3 -19 3 8 6 12 13 8 16 -3 4 -16 -4 -28 -17 -12 -13
-20 -18 -18 -13 2 6 -1 11 -7 12 -5 1 -9 -6 -7 -15 2 -16 1 -16 -11 0 -13 17
-15 17 -31 -1 -11 -12 -14 -21 -7 -26 6 -3 11 1 11 9 0 9 5 16 10 16 7 0 7 -7
0 -21 -9 -16 -14 -18 -26 -9 -7 7 -12 16 -9 20 3 5 1 11 -5 15 -5 3 -10 2 -10
-4 0 -6 -7 -7 -17 -4 -12 5 -14 3 -8 -8 7 -11 5 -11 -10 1 -11 9 -16 10 -11 3
4 -7 2 -13 -3 -13 -6 0 -11 5 -11 10 0 6 -5 10 -10 10 -7 0 -6 -8 1 -22 12
-22 11 -22 -6 -8 -17 13 -18 13 -13 0 4 -12 -2 -15 -33 -13 -36 2 -68 -23 -62
-47 1 -3 -7 -7 -18 -7 -11 -1 -19 5 -19 13 0 8 -5 12 -10 9 -6 -4 -8 -11 -5
-16 9 -13 -9 -11 -24 4 -11 10 -11 8 -2 -10 12 -24 3 -35 -34 -41 -19 -3 -19
-2 0 12 11 8 24 12 30 9 5 -4 6 -2 2 2 -4 5 -15 10 -23 11 -9 1 -14 0 -11 -3
12 -12 -28 -40 -42 -29 -12 9 -12 7 -1 -14 l13 -25 -23 20 -23 20 12 -22 c14
-27 4 -31 -15 -5 -12 15 -13 14 -9 -13 4 -28 4 -28 -7 -7 -13 26 -21 27 -38 7
-7 -8 -16 -12 -21 -9 -5 3 -9 0 -9 -5 0 -14 13 -14 28 1 9 9 12 9 12 -1 0 -7
5 -9 12 -5 7 4 8 3 4 -4 -4 -6 -13 -9 -21 -5 -20 7 -19 -7 3 -24 15 -13 15
-13 -4 -4 -12 6 -25 7 -29 3 -5 -4 -5 -1 -1 6 4 6 2 12 -3 12 -20 0 -11 -19
17 -34 15 -8 23 -15 19 -16 -5 0 -17 5 -28 11 -12 6 -28 7 -37 3 -9 -4 -21 -6
-25 -5 -5 1 -5 -4 -1 -10 5 -9 2 -10 -9 -6 -12 4 -14 2 -10 -10 4 -11 3 -14
-6 -9 -6 4 -11 4 -10 -1 4 -26 -1 -38 -11 -23 -6 11 -8 3 -6 -26 2 -29 -1 -41
-10 -41 -10 0 -11 4 -3 13 7 8 7 14 -1 19 -6 4 -9 1 -8 -7 2 -7 -3 -12 -9 -11
-18 4 -16 -2 4 -23 17 -16 16 -17 -9 -12 -25 5 -26 3 -16 -15 8 -17 8 -19 -6
-14 -8 3 -18 1 -22 -5 -4 -7 -3 -8 4 -4 7 4 12 2 12 -4 0 -6 5 -8 12 -4 7 4 8
3 4 -4 -4 -6 -14 -8 -24 -5 -15 6 -15 4 2 -16 14 -15 16 -25 9 -32 -8 -8 -11
-6 -10 6 1 10 -4 20 -12 23 -9 3 -11 0 -7 -7 4 -7 0 -23 -9 -37 -14 -22 -19
-23 -33 -12 -13 11 -14 11 -8 0 13 -22 15 -65 3 -53 -13 13 -31 15 -23 3 2 -4
1 -14 -3 -21 -6 -10 -10 -9 -14 4 -4 9 -3 13 3 10 6 -4 7 1 3 12 -6 15 -9 14
-17 -9 -5 -16 -13 -28 -18 -28 -4 0 -8 -9 -8 -21 0 -11 -4 -17 -10 -14 -6 3
-7 -1 -4 -10 5 -12 9 -13 20 -4 12 10 13 9 8 -5 -3 -9 -10 -16 -14 -16 -5 0
-12 -9 -15 -20 -3 -11 -11 -20 -16 -20 -5 0 -3 11 6 24 14 21 14 24 -2 37 -11
9 -14 10 -9 2 4 -8 2 -13 -6 -13 -10 0 -9 -3 2 -10 12 -8 12 -11 -3 -28 -21
-23 -22 -34 -1 -30 10 2 18 -5 20 -15 2 -15 0 -16 -13 -5 -14 11 -15 10 -9
-10 5 -14 3 -22 -4 -22 -6 0 -8 4 -5 10 7 11 -8 14 -18 3 -13 -12 27 -32 45
-22 11 6 21 4 32 -7 15 -14 16 -13 17 8 1 20 2 19 15 -9 20 -46 26 -41 9 7 -8
22 -10 40 -5 40 5 0 12 -9 15 -20 3 -11 11 -20 16 -20 6 0 7 4 4 10 -3 5 -1
18 4 27 6 11 11 13 11 5 0 -7 5 -10 10 -7 6 4 8 10 6 14 -3 4 1 8 9 8 13 0 12
-3 -1 -18 -9 -10 -21 -16 -25 -13 -5 3 -9 1 -9 -4 0 -16 13 -21 31 -12 12 7
20 7 24 0 4 -6 3 -10 -2 -9 -22 4 -32 -3 -28 -20 4 -22 -19 -46 -35 -36 -17
11 -11 -7 8 -21 15 -12 15 -12 -5 -7 -13 3 -23 8 -23 12 0 4 -7 16 -16 27 -14
18 -15 18 -4 -3 6 -13 7 -23 3 -23 -4 0 1 -8 12 -17 18 -14 18 -15 2 -9 -10 3
-23 6 -28 6 -4 0 -6 8 -3 18 5 16 5 16 -9 0 -8 -10 -16 -16 -19 -13 -2 3 -5
-2 -5 -10 0 -8 5 -11 11 -8 6 3 5 0 -1 -8 -15 -15 -18 -43 -4 -35 5 4 6 -4 3
-16 -5 -19 -7 -20 -10 -5 -2 9 -8 17 -13 17 -5 0 -11 0 -14 0 -3 0 -4 -3 -3
-7 2 -5 7 -7 13 -5 5 2 1 -7 -10 -19 -11 -12 -14 -19 -6 -14 9 5 7 -1 -4 -19
-9 -14 -21 -23 -26 -20 -5 3 -9 0 -9 -6 0 -6 -5 -8 -12 -4 -8 5 -9 2 -5 -9 3
-10 2 -17 -2 -17 -11 0 -9 -19 3 -38 4 -7 4 -12 -1 -11 -20 4 -44 -2 -39 -9 2
-4 0 -14 -5 -22 -7 -11 -8 -8 -5 12 3 20 1 25 -10 21 -8 -3 -11 -10 -7 -16 4
-6 -2 -8 -16 -4 -18 4 -20 3 -10 -9 9 -11 9 -14 -1 -14 -9 0 -9 -4 1 -17 13
-15 12 -15 -9 -4 -23 12 -29 -4 -7 -22 6 -4 1 -7 -10 -5 -12 2 -19 -2 -18 -9
2 -7 -6 -17 -17 -23 -16 -9 -18 -8 -14 5 5 11 2 14 -12 8 -14 -5 -14 -3 4 15
28 28 28 91 0 89 -10 -1 -18 -5 -18 -10 0 -4 -5 -5 -10 -2 -8 5 -8 11 -1 19
14 16 4 26 -17 19 -10 -4 -13 -2 -8 5 4 7 2 12 -4 12 -7 0 -9 -7 -6 -16 4 -10
1 -14 -6 -12 -7 3 -13 9 -13 14 -1 14 -24 50 -25 37 0 -6 5 -15 10 -18 12 -7
4 -25 -11 -25 -6 0 -8 4 -5 9 3 5 -1 12 -9 15 -12 4 -13 2 -6 -13 10 -18 6
-31 -11 -31 -5 0 -6 4 -3 10 3 6 -1 7 -10 3 -9 -3 -13 -9 -8 -12 16 -12 14
-34 -2 -27 -11 4 -14 2 -8 -7 11 -18 13 -38 2 -31 -5 3 -7 10 -4 15 4 5 -1 9
-9 9 -8 0 -18 -5 -22 -12 -5 -7 -3 -8 7 -3 11 7 12 6 2 -7 -7 -8 -11 -18 -8
-21 3 -4 2 -4 -2 -1 -8 6 -9 9 -12 42 -2 13 -4 12 -12 -6 -5 -13 -6 -29 -2
-35 3 -7 2 -9 -2 -4 -16 14 -45 -24 -34 -45 6 -11 8 -22 6 -25 -3 -2 -8 5 -12
16 -3 12 -11 21 -16 21 -6 0 -8 -4 -5 -9 3 -5 -1 -12 -9 -15 -13 -4 -13 -2 -5
14 12 23 13 33 2 26 -5 -3 -9 1 -9 9 0 8 4 12 7 10 4 -3 8 7 8 21 0 23 -2 24
-18 9 -15 -13 -17 -13 -17 0 0 8 3 13 5 10 3 -3 11 0 18 6 16 13 0 54 -17 44
-5 -4 -9 -1 -9 5 0 7 9 9 23 6 12 -3 16 -3 10 0 -7 3 -13 15 -13 27 0 11 -3
17 -7 14 -3 -4 -15 1 -25 10 -14 13 -21 14 -30 5 -9 -9 -8 -12 5 -12 9 0 17
-4 17 -10 0 -5 -7 -7 -15 -4 -10 4 -13 0 -10 -15 3 -15 0 -18 -12 -14 -12 5
-14 3 -8 -7 6 -9 4 -11 -5 -5 -11 7 -10 10 1 19 24 18 17 41 -11 38 -32 -3
-14 16 20 21 26 4 37 21 21 32 -7 4 -9 -1 -5 -12 5 -16 4 -16 -10 1 -8 10 -13
23 -10 27 3 5 1 9 -4 9 -6 0 -13 -7 -16 -16 -9 -22 -7 -31 3 -16 7 11 9 11 14
-1 4 -10 0 -14 -11 -12 -9 1 -20 -2 -23 -8 -4 -5 -10 0 -14 12 -3 11 -11 21
-17 21 -5 0 -8 7 -5 14 4 10 1 13 -7 10 -8 -3 -17 -1 -20 4 -3 6 -15 8 -25 5
-10 -3 -22 0 -25 5 -4 6 3 8 16 5 13 -3 19 -1 13 4 -5 4 -11 15 -13 23 -3 12
-1 13 9 3 15 -15 29 -17 29 -5 0 5 -10 14 -23 21 -18 9 -18 11 -2 6 15 -4 14
0 -7 16 -16 11 -28 30 -28 40 0 14 -4 18 -12 13 -8 -5 -7 0 2 11 12 15 12 17
1 10 -10 -6 -13 -4 -9 6 4 9 -2 14 -18 15 -13 1 -22 -2 -19 -6 3 -4 -3 -14
-12 -21 -15 -12 -16 -12 -8 1 6 8 10 22 10 30 0 8 6 24 12 35 6 11 10 34 9 50
-2 27 -5 30 -30 27 -33 -4 -57 13 -49 35 4 11 2 14 -5 9 -7 -4 -12 -2 -12 4 0
7 7 9 16 6 10 -4 13 -2 8 7 -5 9 -4 9 6 0 10 -10 11 -15 1 -27 -8 -10 -9 -16
-1 -21 5 -3 10 1 10 10 0 9 5 13 10 10 6 -4 8 -11 5 -16 -3 -5 1 -6 8 -3 8 3
17 14 20 24 3 13 0 17 -9 13 -9 -3 -13 0 -11 8 2 8 2 11 0 7 -3 -5 -9 -8 -14
-8 -6 0 -7 5 -3 12 4 6 3 8 -4 4 -6 -3 -13 -2 -17 4 -3 5 0 10 7 10 7 0 2 7
-10 16 -12 8 -20 19 -17 24 3 5 -6 17 -20 28 -24 19 -36 40 -15 27 6 -3 10 1
10 9 0 21 -17 20 -29 -1 -8 -14 -11 -15 -11 -3 -1 8 -3 26 -5 40 -2 14 -1 19
1 12 3 -6 11 -9 17 -5 7 4 6 -1 -2 -10 -9 -11 -10 -17 -2 -17 6 0 11 5 11 11
0 5 6 7 13 3 6 -4 4 2 -6 13 -9 11 -14 23 -10 28 5 4 2 5 -6 0 -10 -6 -11 -2
-6 15 5 15 3 20 -3 16 -6 -3 -14 -1 -18 5 -4 8 -3 9 4 5 6 -3 16 2 21 13 14
25 -14 38 -29 13 -9 -14 -10 -13 -4 7 4 17 3 21 -6 16 -8 -5 -11 -4 -6 3 4 6
13 9 20 6 8 -3 17 0 22 7 4 7 3 10 -4 6 -15 -10 -39 2 -39 20 0 14 2 14 13 -1
9 -13 13 -14 16 -4 3 7 -2 18 -10 24 -12 9 -12 13 3 27 14 15 15 17 1 17 -9 0
-16 5 -16 11 0 5 5 7 12 3 7 -5 8 -3 3 6 -4 7 -2 16 5 20 9 5 9 9 1 14 -6 4
-11 2 -11 -3 0 -6 -4 -11 -10 -11 -5 0 -8 14 -6 30 2 22 0 28 -8 21 -6 -6 -17
-6 -25 -2 -9 6 -3 12 19 21 28 12 29 14 15 29 -11 13 -12 20 -3 29 9 9 6 10
-11 7 -23 -4 -23 -4 -5 17 11 12 14 18 8 15 -16 -9 -24 28 -10 44 9 11 8 11
-6 1 -11 -9 -18 -10 -23 -2 -3 5 -1 10 4 10 6 0 11 5 11 11 0 5 -5 7 -11 4 -6
-4 -9 0 -7 8 2 9 -1 16 -7 16 -5 0 -8 -8 -7 -17 3 -14 1 -14 -12 -3 -9 8 -19
11 -23 7 -3 -3 -1 -6 5 -6 7 0 11 -5 9 -12 -1 -7 4 -12 11 -13 6 0 12 -3 12
-7 0 -5 0 -13 0 -20 0 -6 -7 -3 -16 8 -14 18 -15 18 -8 -6 3 -14 3 -22 -1 -18
-7 6 -14 37 -17 76 -1 6 -5 12 -9 12 -4 0 -5 9 -2 20 7 26 23 26 18 0 -2 -11
0 -20 6 -20 5 0 7 10 5 23 -2 13 -10 21 -20 21 -9 -1 -16 2 -16 7 0 5 -3 8 -7
8 -28 -4 -36 3 -18 14 24 14 26 29 5 55 -21 25 -23 42 -5 36 8 -4 12 -10 9
-15 -3 -5 0 -9 5 -9 6 0 10 -5 8 -11 -1 -6 5 -14 13 -16 9 -3 11 -1 5 4 -6 4
-10 17 -10 28 0 11 -6 28 -14 38 -12 14 -12 17 0 17 12 0 12 2 0 9 -9 6 -10
11 -2 15 20 13 1 27 -20 16 -21 -12 -39 -6 -39 13 0 7 4 6 10 -3 8 -13 11 -13
26 2 14 14 15 20 4 32 -8 11 -9 16 -1 16 6 0 11 4 11 10 0 5 -3 9 -7 8 -15 -3
-43 14 -38 22 3 5 1 12 -5 15 -6 4 -9 1 -8 -6 2 -6 -3 -14 -10 -16 -8 -3 -10
1 -6 11 3 9 2 16 -4 16 -12 0 -24 -29 -16 -41 3 -5 2 -9 -3 -8 -20 3 -23 -2
-9 -17 9 -8 16 -20 16 -26 0 -6 -9 -1 -20 11 -17 21 -18 25 -4 46 10 15 12 25
5 30 -6 3 -11 12 -11 18 0 7 4 6 10 -3 6 -9 10 -10 10 -3 0 6 -4 15 -10 18 -5
3 -10 11 -10 16 0 6 4 8 9 5 5 -4 7 3 4 13 -3 10 0 28 6 39 8 15 8 22 -2 25
-9 4 -8 6 2 6 11 1 11 4 1 17 -11 12 -11 15 1 12 10 -2 13 6 12 30 -1 18 3 32
10 32 8 0 8 3 0 11 -9 9 -8 15 3 27 8 8 12 17 9 20 -3 4 -10 0 -14 -7 -5 -8
-7 6 -4 33 4 34 2 46 -7 46 -7 0 -10 3 -7 7 4 3 2 12 -5 20 -8 10 -8 12 3 8
10 -4 15 1 15 15 0 14 -5 19 -14 15 -12 -4 -11 -1 1 19 9 13 13 27 10 30 -7 6
-13 28 -15 52 -1 6 -7 11 -15 11 -9 0 -10 -4 -2 -14 6 -7 8 -13 3 -13 -5 0 -3
-4 4 -9 11 -6 9 -9 -5 -13 -15 -4 -19 0 -17 26 0 17 -3 40 -8 51 -9 19 -8 19
5 2 14 -17 15 -16 13 7 0 15 -5 26 -10 26 -5 0 -2 8 5 17 12 14 12 16 0 8 -11
-6 -13 -4 -8 8 3 10 2 17 -4 17 -6 0 -7 5 -4 10 6 9 -8 14 -27 11 -5 0 -8 4
-8 10 0 6 6 9 14 6 9 -4 13 0 12 11 -2 9 -8 18 -14 20 -7 2 -10 8 -6 13 3 5
-2 12 -10 15 -9 3 -16 11 -16 16 0 6 6 6 14 -1 11 -9 16 -9 22 0 4 8 3 9 -4 5
-7 -4 -12 -1 -12 9 0 9 -4 13 -10 10 -5 -3 -10 1 -10 9 0 19 -16 21 -23 4 -4
-10 -6 -10 -6 -1 -1 18 18 26 33 14 9 -8 13 -7 13 4 0 7 -3 13 -6 12 -3 -1 -6
3 -6 8 0 6 3 9 7 8 13 -5 9 4 -9 18 -9 8 -14 9 -10 3 4 -7 -5 -11 -23 -11 -16
0 -27 4 -24 9 3 4 12 8 20 8 8 0 14 5 14 11 0 5 -4 8 -9 4 -16 -9 -22 12 -6
25 7 6 11 19 8 27 -4 9 -2 14 3 11 12 -8 12 55 -1 64 -6 5 -5 8 4 8 11 0 11 3
1 15 -7 9 -8 15 -2 15 6 0 8 18 5 44 -2 25 0 47 6 51 6 3 11 12 11 18 0 7 -4
6 -10 -3 -8 -12 -10 -11 -10 7 0 12 4 24 10 28 14 9 -9 52 -31 58 -11 3 -19 2
-20 -1 0 -4 -2 -17 -3 -29 -2 -13 -6 -26 -9 -29 -4 -4 -5 7 -2 25 2 17 -1 33
-6 36 -5 4 -9 1 -9 -4 0 -6 -7 -11 -16 -11 -9 0 -12 -5 -8 -12 4 -7 3 -8 -4
-4 -17 10 -15 26 3 26 8 0 15 5 15 11 0 5 -4 7 -10 4 -6 -4 -9 5 -8 19 1 15 7
26 13 26 5 0 3 5 -5 10 -13 8 -13 10 2 10 9 0 20 5 24 12 4 7 3 8 -4 4 -8 -5
-12 1 -12 17 0 14 -7 27 -15 30 -18 7 -30 -9 -14 -19 8 -5 9 -3 4 6 -6 9 -4
11 4 5 9 -5 8 -13 -7 -29 -11 -11 -17 -27 -15 -33 3 -7 1 -13 -4 -13 -5 0 -9
11 -9 24 0 14 3 23 7 20 4 -2 10 0 14 6 4 6 -5 10 -20 10 -25 0 -27 2 -22 40
4 39 -2 46 -35 41 -5 0 -8 4 -8 9 0 12 2 12 35 0 14 -5 24 -14 21 -19 -3 -4 7
-13 22 -20 24 -10 25 -10 8 3 -10 9 -15 20 -10 27 4 8 3 10 -4 5 -7 -4 -12 -3
-12 2 0 5 -9 12 -20 15 -11 3 -19 10 -18 15 2 5 -9 21 -24 35 -23 22 -28 23
-34 8 -4 -9 -6 -20 -5 -25 1 -5 -5 -4 -13 4 -17 14 -22 25 -7 15 5 -3 12 -1
16 5 6 9 -7 14 -27 11 -5 0 -7 2 -7 7 3 20 -2 32 -13 26 -6 -4 -8 -3 -4 4 8
13 -22 44 -35 37 -5 -4 -9 -1 -9 5 0 6 7 10 16 8 10 -2 19 4 21 12 3 9 1 11
-4 5 -10 -12 -54 -15 -47 -3 3 4 13 8 22 8 14 0 15 2 2 9 -8 6 -19 7 -25 3 -5
-3 -3 3 5 13 8 10 10 16 4 12 -7 -4 -15 0 -18 9 -5 12 -9 14 -20 5 -10 -9 -17
-7 -27 6 -12 16 -12 17 1 6 12 -9 19 -8 34 3 19 13 19 14 -5 14 -17 0 -20 3
-11 9 10 6 9 10 -7 14 -13 3 -25 -1 -31 -11 -5 -10 -10 -14 -10 -9 0 4 6 16
12 27 11 16 9 22 -7 35 -11 9 -15 14 -8 10 16 -8 8 36 -9 47 -10 6 -10 8 0 8
7 0 11 4 8 9 -4 5 0 12 6 14 7 3 2 6 -12 7 -14 1 -19 4 -12 7 6 2 12 11 12 19
0 8 -6 14 -12 15 -7 0 -4 4 7 9 16 7 16 9 4 9 -9 1 -20 8 -23 17 -3 8 -10 13
-15 10 -5 -3 -11 1 -15 9 -3 8 0 15 6 15 6 0 8 3 5 6 -4 4 -13 1 -21 -5 -9 -7
-17 -8 -20 -2 -3 5 0 11 6 14 8 2 9 8 4 13 -5 5 -11 4 -13 -4 -3 -6 -10 -9
-16 -5 -7 3 -9 3 -5 -2 4 -4 3 -14 -2 -20 -7 -9 -5 -17 7 -26 15 -12 16 -12 9
1 -4 8 0 6 8 -4 9 -11 16 -14 16 -8 0 7 4 12 10 12 5 0 9 -6 7 -12 -1 -7 6
-12 15 -12 15 1 16 -2 6 -20 -6 -11 -11 -23 -11 -26 1 -3 0 -6 -2 -8 -1 -1 -2
5 -1 15 0 10 -3 18 -9 18 -5 0 -9 -7 -7 -15 2 -12 1 -12 -6 -2 -5 8 -13 13
-18 12 -5 -1 -10 4 -12 12 -3 10 -2 10 6 -1 6 -8 12 -9 16 -3 3 5 -6 17 -20
27 -26 16 -26 16 -19 -7 8 -26 6 -24 -19 16 -10 16 -13 25 -7 22 6 -4 12 -2
12 3 1 6 2 15 3 21 0 5 10 16 21 25 19 14 19 15 1 8 -14 -5 -17 -3 -11 7 5 8
4 11 -3 6 -5 -3 -12 -3 -15 1 -2 5 -2 3 -1 -4 2 -7 -1 -15 -6 -18 -10 -6 -14
6 -11 37 1 9 -2 19 -8 22 -5 4 -7 -3 -3 -16 5 -20 4 -21 -11 -9 -9 7 -14 18
-10 25 4 6 -1 5 -10 -3 -18 -14 -5 -47 13 -36 5 3 12 0 16 -6 5 -8 2 -10 -7
-4 -8 4 0 -5 16 -19 17 -14 26 -26 20 -25 -25 3 -36 -2 -29 -13 5 -7 -8 -2
-27 10 -18 12 -33 26 -32 31 1 5 -9 9 -23 9 -19 0 -22 -3 -13 -14 6 -8 7 -14
3 -14 -5 0 -14 8 -21 18 -10 17 -8 19 25 18 22 -1 36 -6 35 -13 -1 -6 4 -14
13 -17 10 -4 14 0 12 12 -4 22 -21 41 -31 35 -5 -3 -4 4 2 15 18 34 1 41 -39
18 -8 -5 -12 -6 -8 -1 4 4 -4 14 -18 22 -34 17 -39 17 -24 -2 7 -9 10 -18 6
-22 -3 -3 -6 -1 -6 6 0 7 -4 10 -8 7 -4 -2 -9 4 -9 15 -1 10 3 19 8 19 6 0 7
5 4 10 -4 6 -11 7 -17 4 -15 -10 -75 -15 -63 -6 19 14 17 42 -2 36 -12 -4 -14
-3 -6 3 10 7 8 13 -7 26 -11 9 -20 22 -21 29 0 7 -2 21 -4 31 -2 9 1 15 6 11
5 -3 6 -11 3 -17 -4 -7 -4 -9 1 -5 4 4 16 -3 26 -15 14 -16 19 -18 19 -7 1 11
3 10 9 -3 7 -18 8 -18 21 -1 8 10 10 15 3 11 -7 -4 -16 0 -22 10 -6 11 -11 13
-11 5 0 -7 -5 -10 -10 -7 -6 4 -7 11 -4 17 4 6 3 9 -2 6 -12 -8 -35 18 -26 28
4 5 0 3 -10 -4 -11 -9 -18 -10 -23 -2 -3 5 -13 10 -21 10 -8 0 -12 -5 -9 -10
4 -6 11 -8 16 -5 15 10 23 -25 9 -38 -10 -10 -11 -7 -5 13 7 21 6 23 -7 13
-10 -9 -18 -9 -25 -2 -8 8 -13 8 -17 0 -4 -6 -1 -11 6 -11 8 0 7 -4 -4 -11
-11 -6 -15 -16 -11 -27 7 -18 5 -17 -17 12 -8 11 -10 17 -3 13 6 -4 14 -3 18
3 3 5 1 10 -5 10 -7 0 -9 7 -6 16 4 10 2 14 -6 11 -7 -2 -12 -10 -11 -16 2 -6
-2 -11 -7 -11 -14 0 -13 13 2 28 7 7 8 12 2 12 -5 0 -15 -5 -22 -12 -7 -7 -12
-9 -12 -4 0 9 32 42 38 39 2 -1 10 -10 19 -20 8 -10 12 -13 9 -7 -3 6 1 11 9
11 8 0 11 -5 8 -10 -3 -6 -1 -7 5 -3 18 11 14 29 -4 22 -9 -3 -25 4 -40 19
-13 13 -24 20 -24 14 0 -6 -5 -7 -10 -4 -8 5 -7 11 1 21 8 10 8 14 0 14 -10 0
-15 -13 -12 -32 2 -16 -15 -7 -27 13 -11 17 -11 24 0 37 9 12 6 12 -10 -2 -23
-20 -29 -38 -11 -33 6 1 13 -9 15 -23 3 -21 2 -22 -6 -8 -6 9 -18 15 -28 13
-11 -2 -19 3 -19 10 0 8 3 12 7 10 3 -2 6 8 7 23 0 17 -1 20 -4 8 -4 -13 -7
-15 -13 -7 -5 9 -9 8 -13 -4 -4 -9 -3 -14 2 -11 5 4 7 -3 4 -14 -8 -31 -21
-24 -19 12 0 17 -5 33 -12 35 -7 3 -10 -1 -7 -10 13 -32 -21 -37 -44 -7 -24
33 -41 32 -42 -3 0 -22 0 -22 -10 1 -5 13 -6 29 -3 34 4 6 1 9 -7 6 -17 -6
-21 -48 -5 -48 6 0 4 -4 -4 -9 -19 -13 -34 -3 -20 14 8 9 8 14 0 17 -12 4 25
48 40 48 5 0 7 -9 5 -20 -2 -12 0 -18 6 -15 5 4 7 11 4 16 -4 5 -1 9 4 9 6 0
11 -6 11 -12 0 -9 4 -8 10 2 5 8 10 20 10 25 0 6 -4 4 -9 -4 -7 -11 -10 -9
-16 8 -3 11 -11 21 -16 21 -6 0 -7 -5 -3 -11 4 -7 1 -10 -7 -7 -8 3 -13 11
-11 17 1 8 -2 9 -10 4 -7 -4 -21 -6 -30 -5 -10 2 -18 -2 -18 -8 0 -6 -4 -9 -9
-6 -5 4 -8 17 -7 29 2 14 -2 24 -10 24 -9 0 -10 -5 -3 -19 6 -12 6 -18 -1 -18
-5 0 -10 4 -10 9 0 11 -29 23 -40 16 -10 -6 -1 -45 11 -45 11 0 7 23 -6 32 -6
5 -6 8 2 8 6 0 19 -10 27 -22 9 -12 16 -19 16 -14 0 5 6 3 14 -3 8 -7 17 -8
20 -3 6 10 42 9 52 -1 7 -6 -10 -11 -29 -8 -4 0 -6 -2 -6 -6 3 -20 -2 -24 -17
-12 -13 10 -17 10 -25 -2 -8 -10 -8 -7 -4 11 6 20 5 23 -6 13 -19 -18 -25 -17
-59 17 -17 17 -26 30 -20 30 5 0 10 5 10 12 0 9 -3 9 -12 0 -21 -21 -32 -13
-13 8 17 18 17 20 2 14 -9 -3 -17 -10 -17 -14 0 -12 -31 -5 -39 9 -6 10 -10 9
-15 -4 -9 -25 -8 -26 19 -21 17 3 23 1 19 -6 -4 -6 -3 -8 2 -5 17 10 32 -7 23
-28 -7 -18 -8 -18 -8 4 -1 13 -4 21 -8 18 -3 -4 -13 -1 -21 6 -13 10 -14 8 -8
-11 5 -14 3 -22 -4 -22 -6 0 -9 4 -6 9 3 5 -1 14 -9 21 -12 10 -14 7 -12 -16
1 -17 -4 -29 -13 -31 -12 -4 -12 -3 -2 5 18 12 18 13 3 40 -7 12 -16 20 -22
16 -5 -3 -16 0 -24 6 -11 9 -15 9 -15 1 0 -6 -10 -1 -22 11 -20 20 -22 20 -34
3 -7 -10 -11 -22 -7 -28 3 -6 1 -7 -5 -3 -6 4 -8 14 -5 24 6 15 5 16 -13 2
-18 -14 -18 -14 -5 3 8 10 9 17 3 17 -6 0 -15 -7 -20 -16 -7 -12 -9 -9 -10 15
0 18 4 29 9 25 5 -3 7 -9 5 -13 -3 -3 4 -7 14 -7 10 0 16 4 14 8 -3 4 -1 8 5
8 5 0 11 -4 13 -9 2 -5 9 -3 16 5 11 12 7 13 -24 9 l-37 -4 19 22 19 22 -24
-20 -24 -20 6 20 c7 19 6 19 -7 2 -8 -10 -17 -18 -20 -17 -21 5 -27 -8 -12
-23 10 -9 12 -17 6 -17 -6 0 -13 7 -16 15 -4 8 -11 12 -16 9 -6 -4 -4 4 3 17
11 22 11 23 -4 11 -9 -8 -22 -10 -28 -6 -8 5 -9 3 -4 -6 5 -9 2 -10 -14 -5
-22 7 -27 -12 -6 -27 5 -4 6 -10 2 -15 -9 -8 -28 17 -21 28 2 4 -5 7 -16 6
-10 -1 -22 -8 -25 -15 -3 -10 0 -12 10 -9 8 4 17 2 19 -2 4 -6 -29 -8 -42 -2
-1 0 4 14 12 30 15 28 15 28 -10 23 -19 -3 -22 -7 -12 -13 10 -7 10 -9 0 -9
-6 0 -11 -3 -11 -7 5 -28 -2 -34 -22 -19 -12 8 -28 12 -37 9 -10 -4 -13 -2 -8
5 4 7 2 12 -6 12 -9 0 -9 3 2 10 13 8 12 10 -4 10 -12 0 -16 5 -12 16 4 11 1
14 -12 10 -17 -6 -44 6 -43 18 3 18 0 20 -10 6 -12 -16 -10 -8 6 33 4 10 3 17
-4 17 -6 0 -11 -6 -11 -14 0 -20 -17 -29 -26 -15 -5 8 -3 9 5 4 9 -5 12 -2 9
11 -2 11 -8 18 -13 17 -6 -1 -15 8 -22 20 -7 12 -12 16 -13 9 0 -7 5 -22 10
-32 7 -13 7 -21 0 -25 -6 -4 -10 -3 -9 2 4 21 -2 34 -13 27 -8 -5 -9 -2 -5 9
5 13 2 15 -18 7 -16 -6 -27 -6 -31 1 -4 7 -18 -1 -37 -18 -16 -15 -27 -23 -24
-17 4 7 0 14 -8 17 -10 4 -12 1 -8 -10 5 -12 3 -14 -8 -7 -20 12 -40 14 -33 3
3 -5 11 -6 17 -3 7 4 8 3 4 -2 -5 -5 -9 -7 -10 -5 -1 2 -12 -1 -24 -7 -16 -9
-23 -9 -26 1 -4 9 -6 9 -6 -1 -1 -8 -6 -10 -13 -6 -10 6 -10 4 0 -8 9 -11 10
-18 2 -23 -5 -3 -13 1 -16 10 -10 25 -37 -19 -29 -47 6 -18 5 -19 -8 -7 -8 8
-12 18 -9 23 3 5 0 6 -6 2 -6 -3 -9 -18 -6 -32 3 -19 1 -24 -8 -18 -10 6 -11
5 -1 -7 10 -12 10 -18 0 -29 -8 -9 -9 -11 0 -6 15 8 27 -10 13 -19 -8 -5 -7
-11 1 -21 6 -7 14 -12 18 -10 4 3 7 -8 6 -23 0 -15 -5 -28 -12 -28 -6 0 -9 5
-7 11 2 6 -4 21 -14 33 l-17 23 -2 -27 c-1 -19 1 -22 8 -12 7 11 9 11 9 -2 0
-20 -27 -33 -34 -16 -2 7 -4 2 -2 -10 1 -12 6 -26 11 -30 4 -5 5 -3 1 4 -9 17
11 26 31 13 16 -9 15 -10 -5 -5 -16 5 -22 3 -20 -7 2 -8 -6 -12 -22 -10 -19 1
-21 0 -10 -7 12 -9 12 -11 -3 -17 -9 -3 -17 -12 -17 -20 0 -13 -12 -18 -33
-15 -4 0 -6 -5 -5 -11 2 -7 -2 -12 -9 -11 -6 1 -17 -5 -25 -15 -12 -16 -11
-16 6 -2 18 13 19 13 14 0 -7 -18 17 -55 35 -55 7 0 12 -5 12 -12 0 -6 4 -15
9 -20 5 -5 6 -2 1 6 -6 10 -2 12 16 6 23 -6 23 -6 -3 12 -20 14 -24 23 -18 33
8 13 10 12 10 -2 0 -18 15 -25 23 -10 2 4 2 1 1 -6 -5 -16 29 -11 36 5 4 9 10
6 18 -8 8 -12 9 -18 3 -15 -6 4 -18 3 -27 -2 -11 -6 -13 -11 -5 -16 6 -4 11
-2 11 3 0 6 5 11 11 11 5 0 7 -6 3 -12 -5 -9 -2 -9 9 1 11 9 17 10 17 2 0 -6
5 -11 11 -11 6 0 0 15 -12 33 -19 27 -20 29 -3 16 10 -9 25 -14 32 -12 6 3 12
0 12 -7 0 -6 4 -9 9 -6 5 3 7 16 5 29 l-5 22 10 -22 c7 -15 16 -21 26 -17 8 3
15 1 15 -4 0 -6 -9 -9 -20 -7 -13 2 -23 -2 -27 -11 -3 -9 -15 -20 -27 -24 -19
-8 -19 -9 7 -9 15 -1 26 -5 25 -10 -2 -5 1 -9 6 -9 5 0 12 -6 16 -12 5 -8 11
-1 18 19 13 36 22 41 15 9 -4 -19 -3 -20 7 -8 10 13 11 13 7 0 -2 -8 -10 -14
-16 -12 -17 3 -13 -15 5 -22 8 -3 13 -2 10 3 -13 20 24 18 39 -2 9 -12 13 -16
9 -8 -14 28 -13 60 2 54 8 -3 12 -13 9 -22 -4 -13 1 -17 19 -17 14 0 22 4 19
10 -4 5 0 7 9 4 9 -4 15 0 15 8 0 12 -5 11 -26 -2 l-26 -16 25 25 c22 22 26
23 33 8 5 -9 18 -23 30 -31 19 -12 21 -11 10 2 -7 8 -9 19 -5 23 4 5 1 5 -7 0
-9 -5 -12 -4 -7 3 3 5 1 12 -5 14 -7 2 -6 8 4 16 12 10 15 10 13 -2 0 -8 4
-15 9 -14 6 0 9 4 7 10 -1 5 3 6 10 1 7 -4 21 -6 31 -5 9 2 17 -2 17 -8 0 -6
-4 -9 -9 -5 -6 3 -15 -3 -20 -14 -14 -25 -14 -31 -1 -31 6 0 9 3 9 8 -5 28 2
36 15 19 15 -20 30 0 20 27 -3 8 -1 17 5 21 7 3 8 0 5 -9 -3 -9 -1 -16 5 -16
6 0 11 10 12 23 l0 22 10 -24 c8 -19 12 -21 24 -11 9 7 18 10 22 6 3 -3 0 -6
-7 -6 -7 0 -10 -3 -6 -7 10 -11 50 -12 62 -1 8 5 14 3 17 -7 4 -8 13 -12 22
-9 16 6 17 -27 2 -42 -4 -4 -7 -12 -7 -18 0 -6 5 -3 11 7 12 21 29 22 29 1 0
-9 -5 -12 -12 -8 -7 4 -9 3 -5 -1 14 -16 36 -14 30 3 -4 14 -1 13 11 -2 12
-15 18 -17 30 -7 10 8 16 9 21 1 3 -5 1 -10 -5 -10 -6 0 -8 -5 -4 -11 5 -8 9
-8 14 1 4 7 13 9 19 6 6 -4 9 -12 6 -17 -4 -5 -2 -9 3 -9 6 0 13 7 16 16 3 8
2 12 -4 9 -5 -3 -7 1 -4 9 3 8 -3 19 -15 26 -12 6 -21 7 -21 2 0 -5 -7 -9 -15
-9 -8 0 -11 5 -8 10 4 6 1 7 -7 2 -9 -5 -11 -4 -6 4 5 7 2 10 -6 9 -7 -2 -12
3 -10 10 2 10 -2 10 -19 2 -11 -7 -23 -9 -27 -6 -3 3 0 6 7 6 7 0 10 4 7 9 -3
5 6 9 19 9 14 0 25 -4 25 -8 0 -10 26 -7 36 3 4 4 12 7 17 7 5 0 -1 -9 -14
-20 -13 -10 -19 -19 -13 -20 5 0 16 6 23 13 11 10 13 10 7 0 -7 -13 5 -17 32
-14 10 2 12 -4 7 -19 -4 -11 -3 -20 2 -19 17 3 33 -1 33 -9 0 -5 -7 -9 -15 -9
-8 0 -11 5 -8 11 3 6 2 7 -2 3 -14 -12 -15 -37 -2 -34 7 1 11 -4 9 -12 -3 -12
0 -12 13 -1 8 7 13 15 11 18 -3 2 -1 13 4 23 8 14 6 19 -10 24 -11 3 -20 11
-20 16 0 5 11 2 25 -7 14 -9 22 -20 20 -25 -3 -4 4 -13 15 -19 12 -6 20 -7 20
-1 0 5 -6 12 -12 14 -10 4 -10 6 -1 6 21 2 25 -20 7 -40 -12 -14 -13 -19 -4
-19 7 0 10 -3 7 -7 -4 -3 -16 2 -27 12 -11 10 -20 13 -20 7 0 -7 5 -12 11 -12
5 0 8 -4 5 -8 -3 -5 0 -9 7 -10 15 -1 52 -10 52 -12 0 -1 8 -3 17 -5 10 -2 29
-16 44 -32 15 -15 21 -20 14 -10 -18 24 -4 21 34 -8 18 -14 36 -22 41 -17 4 4
5 -1 2 -10 -4 -10 -2 -18 4 -18 6 0 9 9 6 20 -3 11 -1 18 3 15 5 -3 11 4 15
15 3 11 11 20 16 20 6 0 8 4 5 8 -2 4 10 8 27 9 19 0 23 -1 10 -4 -19 -4 -21
-8 -13 -28 7 -18 6 -23 -4 -19 -7 3 -13 -2 -13 -11 0 -21 13 -19 38 8 17 17
21 18 16 4 -5 -14 -2 -16 18 -13 14 3 25 1 25 -4 0 -5 -12 -8 -27 -8 -44 1
-55 -1 -49 -11 3 -5 21 -8 39 -7 34 3 45 -14 27 -39 -4 -5 -6 -18 -5 -28 2 -9
-1 -15 -6 -11 -5 3 -6 11 -3 17 4 7 4 9 -1 5 -4 -4 -14 -3 -22 3 -8 7 -13 8
-13 1 0 -5 7 -13 16 -16 14 -5 14 -9 3 -23 -12 -15 -12 -16 1 -8 30 18 39 14
36 -16 -2 -17 -1 -27 2 -24 9 8 32 -17 25 -28 -3 -6 -1 -7 6 -3 6 4 8 13 4 19
-4 7 0 6 10 -2 9 -7 17 -10 17 -7 0 15 -30 64 -42 69 -10 4 -10 6 0 6 7 1 21
-14 32 -31 20 -33 21 -55 3 -51 -5 1 -15 -8 -22 -20 -8 -12 -10 -19 -6 -15 4
4 19 -4 33 -17 21 -19 29 -22 41 -13 14 10 14 10 3 -2 -17 -19 -34 -19 -50 0
-11 13 -11 11 -2 -8 6 -12 16 -20 22 -16 7 5 9 -1 4 -20 -5 -20 -3 -26 10 -26
10 0 14 -5 10 -16 -3 -8 -2 -12 4 -9 5 3 12 -5 16 -19 3 -14 15 -28 26 -31 14
-5 16 -10 8 -20 -8 -10 -8 -15 1 -21 8 -4 9 -3 5 4 -5 8 0 12 13 12 10 0 22
-6 24 -12 3 -8 6 -5 6 5 1 10 -4 27 -9 37 -8 16 -8 18 5 14 8 -3 13 -9 11 -13
-3 -4 4 -12 15 -19 21 -14 26 -3 7 17 -9 10 -9 12 -1 7 6 -3 16 0 20 9 7 12
11 11 21 -6 8 -12 9 -18 3 -15 -6 4 -9 -4 -7 -21 1 -16 -1 -36 -6 -45 -5 -11
-5 -18 1 -18 5 0 11 6 14 13 2 6 4 0 3 -15 -1 -20 -4 -24 -14 -16 -9 8 -11 7
-6 -6 6 -15 25 -21 49 -16 6 1 7 -1 3 -5 -14 -14 16 -34 32 -21 13 9 13 9 3
-5 -10 -12 -9 -20 4 -40 16 -23 16 -24 -2 -9 -10 8 -16 10 -12 3 4 -6 1 -14
-5 -17 -9 -4 -8 -5 2 -5 29 2 40 -1 40 -12 0 -5 -4 -8 -9 -4 -5 3 -13 0 -17
-6 -4 -7 -3 -9 3 -6 10 6 25 -15 27 -38 1 -5 6 -10 13 -10 23 0 38 -24 20 -31
-22 -8 -12 -25 11 -18 9 2 7 -1 -6 -7 -25 -14 -29 -26 -7 -26 8 0 15 5 15 10
0 6 3 7 6 4 4 -4 1 -13 -5 -21 -13 -16 0 -55 19 -57 6 -1 14 -2 19 -3 5 0 13
-4 17 -8 7 -8 -18 -4 -51 7 -11 4 -16 3 -10 -2 6 -4 10 -15 10 -23 -1 -8 3
-20 7 -27 5 -6 8 -17 7 -25 -3 -27 2 -38 19 -39 14 0 14 -2 -3 -9 -14 -6 -15
-9 -5 -10 10 -1 9 -4 -5 -10 l-20 -9 20 -1 c11 -2 24 -2 28 -1 5 1 6 -3 2 -9
-3 -6 -10 -8 -15 -5 -5 3 -11 1 -15 -5 -3 -5 -1 -10 4 -10 6 0 11 -5 11 -11 0
-5 -4 -8 -8 -5 -5 3 -8 -8 -8 -24 0 -16 3 -27 8 -24 4 3 8 1 8 -5 0 -5 -4 -13
-10 -16 -11 -7 -9 -39 3 -42 16 -6 19 -2 7 12 -7 9 -11 17 -9 20 3 2 10 -5 17
-15 10 -17 9 -22 -8 -32 -11 -7 -20 -16 -20 -21 0 -4 4 -6 8 -3 4 2 8 -6 8
-19 0 -16 -4 -21 -15 -18 -9 3 -6 -2 7 -12 21 -16 22 -18 7 -35 -12 -14 -13
-19 -3 -28 8 -6 13 -31 12 -61 -1 -28 3 -48 8 -45 4 3 6 9 3 14 -7 12 5 40 17
40 6 0 5 -7 -2 -15 -11 -13 -10 -18 6 -30 16 -13 17 -14 1 -9 -11 4 -17 1 -17
-10 0 -9 7 -16 15 -16 8 0 16 -3 16 -7 6 -32 5 -52 -1 -48 -4 2 -7 -2 -7 -10
0 -8 5 -11 10 -8 6 4 8 -2 5 -15 -4 -12 -1 -25 4 -29 7 -4 8 -1 3 7 -5 8 -4
11 3 6 11 -6 9 -37 -3 -56 -4 -6 -1 -17 5 -25 10 -12 10 -15 -1 -15 -11 0 -11
-2 -2 -8 7 -5 15 -29 17 -55 2 -26 6 -50 9 -54 4 -3 5 7 4 23 -1 20 3 30 16
32 9 2 17 -1 17 -7 0 -6 -7 -8 -15 -5 -10 4 -13 0 -10 -15 3 -12 7 -31 10 -43
3 -16 2 -19 -7 -10 -7 7 -21 11 -33 11 -16 -1 -17 -2 -3 -6 10 -2 18 -9 18
-14 0 -6 -6 -7 -12 -3 -7 4 -10 4 -6 -1 4 -4 1 -17 -7 -29 -18 -25 -19 -36 -3
-36 6 0 8 3 5 6 -12 13 13 43 30 37 10 -4 14 -2 10 4 -3 5 0 10 8 10 11 0 12
-4 4 -13 -6 -7 -7 -19 -3 -26 4 -7 -2 -4 -14 6 -12 11 -22 14 -22 8 0 -6 5
-14 10 -17 6 -3 10 -12 9 -18 0 -9 -2 -8 -6 1 -2 6 -9 10 -13 7 -5 -3 -7 -12
-4 -19 3 -7 -2 -19 -11 -26 -14 -11 -14 -14 1 -25 15 -11 15 -14 0 -37 -16
-25 -16 -26 10 -47 14 -11 31 -18 36 -14 6 3 8 0 6 -8 -3 -8 -12 -12 -19 -11
-8 2 -10 0 -6 -4 11 -11 38 -14 32 -4 -3 5 0 12 7 16 7 4 10 4 6 -1 -4 -4 -2
-15 5 -23 6 -9 7 -13 2 -10 -6 4 -16 -2 -23 -13 -7 -10 -9 -19 -5 -18 28 5 47
-2 33 -10 -8 -6 -18 -7 -23 -4 -5 3 -1 -9 7 -26 9 -17 22 -30 29 -28 7 1 11
-6 9 -17 -3 -18 -2 -18 13 -2 9 9 22 16 28 15 8 0 8 -2 -1 -6 -6 -2 -9 -10 -6
-15 5 -7 2 -8 -7 -3 -12 8 -12 6 0 -8 16 -20 32 -22 27 -4 -1 6 -1 9 1 4 3 -4
8 -5 12 -3 4 3 13 0 21 -6 12 -8 12 -9 -2 -4 -22 7 -23 -1 -4 -19 7 -8 17 -11
21 -7 5 4 4 0 -1 -8 -12 -21 -14 -41 -3 -34 5 3 7 10 4 15 -4 5 -2 9 4 9 6 0
7 -15 4 -37 -5 -29 -3 -35 8 -29 8 4 6 1 -4 -7 -15 -13 -16 -16 -2 -27 21 -18
10 -26 -12 -9 -15 11 -16 11 -5 -1 6 -8 12 -27 12 -43 0 -20 4 -26 13 -21 9 6
10 4 0 -7 -15 -15 -18 -53 -4 -44 6 3 8 -7 6 -22 -3 -27 21 -67 35 -58 4 2 7
-3 7 -11 0 -10 -4 -11 -11 -4 -5 5 -14 10 -20 10 -5 0 1 -8 12 -19 22 -18 31
-38 13 -26 -5 3 -13 1 -16 -5 -4 -6 -3 -10 2 -9 20 4 24 -2 12 -18 -12 -15
-12 -16 3 -10 20 7 34 -8 17 -19 -8 -5 -9 -3 -4 6 5 9 4 11 -3 6 -8 -5 -9 -13
-2 -25 5 -10 7 -28 5 -40 -2 -12 0 -19 6 -16 5 4 7 10 5 14 -3 4 -1 13 3 20 6
9 11 10 15 2 4 -6 3 -11 -1 -11 -5 0 -9 -9 -10 -20 -1 -12 4 -20 13 -20 8 0
13 4 10 9 -7 11 20 8 31 -3 4 -4 1 -6 -7 -4 -8 1 -14 -3 -15 -11 0 -8 -9 -17
-20 -22 -17 -6 -15 -8 10 -9 28 -1 29 -2 8 -10 -28 -11 -30 -20 -3 -15 11 2
23 -1 26 -7 4 -6 3 -8 -2 -5 -6 3 -16 2 -24 -4 -12 -7 -12 -9 -1 -9 11 0 11
-3 0 -17 -10 -11 -10 -14 -1 -9 7 4 12 1 12 -9 0 -9 4 -14 9 -11 5 3 11 -3 14
-15 5 -17 3 -18 -9 -8 -13 11 -14 9 -3 -14 7 -15 18 -27 25 -27 21 0 25 -17 6
-31 -15 -13 -16 -12 -3 4 12 15 11 17 -2 17 -15 0 -18 -23 -4 -36 4 -4 1 -14
-6 -22 -6 -9 -7 -13 -2 -10 12 7 30 -12 30 -32 0 -8 5 -14 11 -13 6 1 10 -8
10 -20 -1 -12 2 -28 7 -34 6 -9 5 -19 -4 -30 -12 -14 -12 -16 0 -8 11 6 13 4
8 -9 -7 -17 24 -56 44 -56 6 0 0 -14 -12 -32 -13 -17 -18 -28 -11 -24 7 4 12
1 12 -8 0 -8 4 -17 8 -20 4 -2 8 4 8 15 0 10 -5 19 -10 19 -5 0 -7 2 -4 5 3 3
13 2 22 -1 14 -5 15 -9 4 -16 -10 -7 -10 -11 5 -22 16 -12 16 -14 2 -20 -9 -3
-13 -2 -10 4 3 6 -1 7 -10 4 -9 -4 -15 -7 -13 -8 2 -1 12 -8 22 -16 16 -12 18
-12 11 -1 -5 10 -4 12 4 7 9 -6 9 -11 0 -22 -10 -12 -9 -13 6 -8 14 6 16 4 9
-7 -18 -29 -12 -58 10 -53 20 3 21 3 2 -11 -11 -8 -17 -18 -13 -21 4 -4 15 -1
24 7 14 11 14 8 -2 -10 -11 -14 -14 -21 -7 -17 6 4 12 2 12 -4 0 -6 5 -8 12
-4 7 4 8 3 4 -4 -4 -6 -12 -10 -19 -8 -7 1 -9 1 -4 -1 4 -3 5 -8 2 -12 -2 -5
7 -7 20 -5 14 1 23 -2 19 -7 -3 -5 -9 -7 -14 -4 -5 3 -11 1 -14 -4 -3 -5 8
-14 25 -21 18 -8 28 -18 25 -26 -3 -7 -1 -16 4 -19 6 -4 10 -11 10 -16 0 -6
-7 -3 -16 5 -25 25 -30 19 -6 -7 23 -24 46 -28 72 -12 13 7 13 6 2 -7 -7 -8
-9 -23 -6 -33 5 -13 9 -14 16 -3 6 8 7 4 2 -12 -12 -41 -10 -54 8 -58 12 -2
16 1 12 11 -7 18 12 32 22 16 5 -8 3 -9 -5 -5 -8 5 -12 3 -10 -5 3 -29 -1 -40
-13 -33 -9 5 -8 2 1 -10 8 -9 20 -15 27 -12 22 9 38 -21 17 -33 -16 -9 -16
-10 5 -11 13 0 22 -6 22 -16 0 -9 5 -12 12 -8 7 5 8 3 3 -5 -4 -8 2 -21 15
-33 24 -22 40 -17 20 7 -7 9 -10 18 -6 22 3 3 6 1 6 -6 0 -7 5 -9 12 -5 7 4 8
3 4 -4 -4 -7 -3 -12 1 -12 5 0 10 -10 10 -22 2 -18 0 -20 -7 -8 -7 11 -10 11
-10 2 0 -7 -5 -10 -12 -6 -6 4 -8 3 -5 -4 8 -12 25 -11 46 2 9 6 12 5 8 -1 -4
-6 2 -18 13 -28 10 -9 16 -23 13 -31 -9 -23 7 -16 18 9 8 19 9 18 4 -8 -5 -24
-4 -28 6 -18 7 7 18 13 23 13 7 0 8 -3 1 -8 -13 -9 -37 -53 -28 -50 13 5 53
-28 45 -37 -4 -4 3 -2 16 4 25 13 30 23 7 15 -8 -4 -15 -1 -15 6 0 6 -6 8 -12
4 -7 -4 -10 -4 -6 1 4 4 3 14 -4 22 -6 7 -8 16 -4 20 3 3 6 1 6 -6 0 -7 5 -9
13 -5 6 4 9 4 5 -1 -12 -13 12 -35 29 -28 16 6 16 5 -3 -43 -3 -6 6 -16 20
-22 18 -8 24 -17 21 -32 -3 -17 -1 -19 9 -11 13 11 43 -9 31 -21 -3 -2 2 -5
10 -5 13 0 13 3 -2 19 -9 10 -11 18 -6 18 14 0 36 -28 39 -47 2 -9 8 -21 15
-27 9 -8 9 -6 0 12 -10 18 -9 22 4 22 8 0 15 -7 15 -16 0 -14 3 -14 15 -4 13
11 13 15 3 23 -9 6 -8 7 5 3 10 -3 21 -6 25 -6 3 0 -2 -6 -11 -12 -22 -17 -25
-98 -3 -98 6 0 4 -5 -4 -10 -12 -7 -12 -10 -1 -10 7 0 11 -6 7 -15 -3 -9 3
-19 17 -26 20 -11 21 -11 8 5 -8 9 -11 19 -7 23 3 3 6 1 6 -6 0 -8 6 -11 16
-7 8 3 13 2 10 -2 -3 -5 1 -9 8 -9 9 0 12 7 8 15 -4 11 -1 14 10 9 13 -5 16 0
12 21 -3 15 -1 22 4 15 8 -13 36 -12 49 1 4 4 3 7 -2 6 -20 -4 -35 0 -35 11 0
5 4 8 9 5 5 -4 12 0 14 6 4 10 6 9 6 -1 1 -11 6 -10 24 5 22 19 22 19 5 -2
-14 -16 -15 -23 -5 -34 7 -8 8 -11 1 -7 -7 4 -15 0 -18 -8 -4 -13 -2 -14 15
-5 11 6 18 18 17 27 -2 9 3 17 10 19 7 1 8 0 3 -2 -12 -6 -3 -34 10 -34 5 0 8
3 8 8 -4 26 1 34 16 22 9 -7 13 -20 11 -27 -5 -11 0 -13 16 -7 16 5 20 3 15
-9 -3 -8 1 -24 8 -35 8 -10 12 -22 10 -26 -3 -3 1 -2 7 4 15 13 31 13 23 0 -3
-5 -1 -10 5 -10 6 0 10 8 8 17 -2 12 3 18 15 17 19 -2 23 11 7 19 -6 3 -5 4 2
3 7 -2 13 -9 13 -17 0 -8 4 -19 7 -25 4 -6 1 -11 -7 -11 -8 0 -12 4 -10 8 3 4
-2 10 -10 13 -12 4 -13 2 -5 -13 7 -15 17 -18 45 -14 26 3 37 0 41 -11 5 -13
9 -12 26 9 10 14 16 30 12 37 -5 10 -4 10 5 2 10 -9 9 -17 -4 -38 -10 -15 -15
-29 -11 -33 3 -3 6 -1 6 5 0 7 11 12 25 12 19 0 23 4 18 18 -7 18 -5 17 17
-12 8 -11 10 -17 3 -13 -6 4 -14 3 -17 -2 -4 -5 2 -8 11 -7 10 2 19 8 19 14 3
25 6 26 13 8 6 -17 9 -17 23 -3 18 19 33 10 16 -10 -8 -11 -7 -12 6 -7 10 4
15 12 12 19 -3 8 1 16 9 19 10 3 12 0 8 -12 -5 -14 -3 -15 8 -5 7 7 21 13 32
13 10 0 16 4 13 8 -2 4 0 14 5 22 7 12 8 11 6 -5 -1 -11 -6 -26 -11 -33 -4 -7
-5 -16 -2 -19 3 -4 6 -1 6 6 0 7 5 9 12 5 7 -4 8 -3 4 4 -10 16 7 15 23 -1 11
-9 13 -9 7 0 -4 7 -2 13 3 13 6 0 11 4 11 8 0 5 -7 9 -15 9 -8 0 -11 -5 -8
-10 3 -6 1 -7 -5 -3 -14 8 -1 40 21 52 9 5 9 4 0 -7 -19 -20 -16 -34 4 -18 11
10 14 10 9 2 -4 -8 -2 -13 4 -13 6 0 8 -4 5 -10 -3 -5 -1 -10 4 -10 6 0 9 10
7 23 -3 12 -5 22 -6 22 -1 0 -3 8 -5 18 -2 11 0 16 3 12 4 -4 7 -12 7 -18 0
-5 6 -12 14 -15 8 -3 11 0 8 5 -4 6 7 9 28 7 19 -1 35 2 35 7 0 6 5 7 10 4 6
-4 7 -12 4 -18 -4 -7 4 -2 18 11 13 12 28 19 32 15 4 -5 6 -1 4 7 -1 8 -7 18
-13 22 -6 5 -6 8 2 8 7 0 17 -8 23 -17 10 -16 11 -16 7 4 -3 15 -1 20 9 16 7
-3 10 -12 6 -21 -5 -16 -5 -16 11 0 18 18 23 33 8 23 -11 -6 -26 13 -17 22 3
4 14 -2 25 -11 13 -12 21 -14 26 -6 3 5 11 7 17 4 6 -4 8 -2 5 3 -4 6 3 14 16
17 12 3 30 18 41 32 l18 26 -23 -12 c-24 -13 -24 -13 -4 7 20 20 20 20 31 0
10 -17 12 -18 17 -3 5 12 3 15 -6 10 -8 -5 -8 -2 2 9 12 15 31 15 31 1 0 -3
-5 -2 -12 2 -6 4 -8 3 -5 -4 4 -5 17 -8 29 -4 20 5 21 6 3 12 -13 5 -15 9 -7
14 7 4 10 12 7 17 -4 5 -1 9 5 9 7 0 10 -7 6 -15 -3 -8 -1 -15 4 -15 6 0 10 7
10 15 0 8 5 15 11 15 5 0 7 -5 3 -12 -5 -7 -3 -8 5 -4 7 5 10 14 7 22 -3 8 -1
14 3 14 5 0 12 -6 14 -12 4 -10 6 -10 6 0 1 7 5 10 11 7 6 -3 7 1 4 9 -4 12 0
16 16 16 14 0 19 4 14 12 -5 8 -2 9 11 4 16 -6 16 -4 4 11 -7 10 -10 15 -5 11
12 -10 46 10 46 26 0 8 7 16 15 20 8 3 14 11 13 18 -2 7 3 13 10 14 6 1 16 2
21 3 5 0 11 10 14 22 4 13 10 18 18 13 8 -5 10 -3 4 5 -4 8 1 19 15 28 12 8
19 21 16 28 -2 7 7 17 20 24 13 6 24 14 23 18 -5 29 2 45 17 39 14 -5 15 -4 5
7 -13 16 10 44 28 33 5 -3 7 3 4 15 -4 15 0 22 15 26 11 3 23 12 26 20 4 9 1
12 -7 7 -6 -4 -2 3 11 15 12 13 19 27 15 34 -4 7 1 6 10 -2 15 -12 17 -12 11
3 -4 11 -1 16 12 16 15 0 16 2 5 9 -11 7 -10 11 5 20 11 6 15 11 9 11 -5 0 -3
5 5 10 9 6 11 10 3 10 -7 0 -10 7 -7 15 6 14 8 13 19 -2 13 -17 13 -17 12 2
-1 11 -6 23 -12 27 -6 5 -3 8 6 8 19 0 36 33 20 38 -7 2 -6 8 2 17 7 7 17 10
22 7 6 -3 4 1 -3 10 -10 12 -9 18 3 28 8 7 12 17 8 24 -3 6 0 6 8 -2 7 -6 18
-12 23 -12 6 0 4 5 -4 10 -13 9 -13 11 0 20 8 5 11 10 6 10 -6 0 -1 7 10 16
10 8 12 13 4 9 -8 -4 -6 0 4 9 10 8 23 13 27 10 14 -8 10 3 -6 19 -13 13 -13
16 1 21 8 3 12 2 9 -3 -3 -5 -1 -12 4 -15 5 -4 8 5 7 19 -2 13 0 22 4 20 13
-8 43 34 36 50 -3 9 -2 13 4 10 6 -3 10 -1 10 5 0 6 5 8 13 4 9 -6 9 -4 -1 8
-14 17 -1 35 17 24 5 -4 8 2 6 11 -4 27 5 35 23 21 9 -7 13 -8 9 -2 -4 7 0 17
8 24 8 7 15 17 15 22 0 11 26 39 37 39 14 0 24 39 10 39 -8 0 -6 4 3 10 8 5
20 10 25 10 6 0 3 -5 -5 -10 -8 -5 -10 -10 -4 -10 15 0 36 25 28 33 -3 3 -13
3 -22 0 -15 -4 -15 -3 -2 6 8 6 24 8 34 5 16 -5 17 -4 5 9 -8 8 -18 12 -23 9
-5 -3 -6 0 -2 7 4 6 12 8 18 5 6 -4 14 0 19 7 12 20 11 37 -2 19 -8 -12 -12
-12 -16 -2 -4 10 -8 10 -19 1 -10 -8 -14 -8 -14 0 0 6 5 11 11 11 5 0 7 6 3
13 -6 9 -4 9 8 -1 27 -22 61 1 37 25 -8 8 -8 13 0 18 6 3 10 1 9 -5 -2 -7 5
-14 14 -15 14 -3 16 0 8 15 -15 28 -12 34 7 19 14 -12 16 -12 8 0 -6 11 -4 13
7 9 8 -4 21 -2 29 4 11 8 11 9 -3 4 -10 -3 -20 -1 -23 5 -4 5 -3 9 2 8 25 -4
38 1 23 11 -12 7 -10 9 8 7 22 -1 32 -17 11 -17 -5 0 -7 -5 -4 -10 5 -8 12 -7
23 2 15 12 16 11 4 -4 -12 -15 -12 -20 2 -33 18 -18 21 -29 6 -20 -5 3 -10 1
-10 -4 0 -21 -2 -26 -13 -41 -10 -13 -10 -13 6 -1 17 13 23 7 18 -21 0 -5 4
-8 10 -8 5 0 7 -4 4 -10 -3 -5 1 -10 10 -10 10 0 13 5 9 12 -4 6 -3 8 4 4 6
-3 15 1 19 9 8 14 12 13 28 -7 11 -13 13 -17 5 -10 -18 16 -31 16 -27 0 1 -7
-3 -12 -10 -11 -14 3 -25 -24 -12 -32 5 -4 7 -10 4 -15 -3 -5 -1 -11 4 -15 6
-3 8 -12 5 -19 -6 -17 23 -29 32 -14 5 7 2 8 -6 3 -9 -6 -11 -4 -5 5 5 8 4 11
-3 6 -11 -7 -9 31 3 42 5 5 7 -14 3 -22 -2 -2 6 -13 16 -25 15 -16 21 -18 28
-9 5 8 8 9 8 2 0 -6 -6 -17 -14 -24 -8 -6 -12 -19 -9 -28 6 -15 5 -16 -13 -2
-17 14 -18 13 -7 -1 7 -9 11 -18 8 -20 -2 -3 5 -5 16 -6 12 -1 17 2 12 10 -4
7 0 6 10 -2 19 -15 22 -37 8 -45 -5 -4 -7 4 -3 16 5 20 3 21 -10 11 -8 -7 -19
-9 -23 -5 -4 4 2 -8 15 -26 22 -30 33 -36 53 -33 5 1 6 -3 2 -9 -3 -6 -11 -7
-17 -4 -7 5 -8 2 -3 -5 4 -7 15 -11 25 -8 11 3 21 -2 24 -10 3 -8 2 -11 -3 -8
-5 3 -13 0 -17 -7 -4 -7 -4 -10 1 -6 4 4 14 0 22 -10 9 -11 12 -12 8 -2 -4 8
9 -2 29 -23 36 -38 45 -57 26 -57 -5 0 -9 3 -8 8 2 4 -6 18 -16 32 -10 14 -16
17 -13 8 3 -9 3 -19 -1 -21 -4 -2 -2 -3 5 -1 18 4 24 -8 10 -24 -9 -13 -9 -14
1 -8 6 4 12 2 12 -4 0 -13 46 -6 66 11 12 10 13 9 8 -5 -3 -9 -12 -16 -20 -16
-8 0 -14 -5 -14 -11 0 -5 4 -8 8 -5 4 2 9 -5 9 -17 1 -12 -3 -25 -10 -29 -9
-6 -9 -8 0 -8 7 0 10 -7 7 -17 -4 -11 -3 -14 3 -7 15 21 68 22 67 1 -1 -10 3
-16 10 -14 6 2 10 11 8 19 -1 9 5 18 13 22 11 4 14 2 8 -7 -4 -6 -8 -18 -9
-25 -3 -20 -11 -25 -28 -19 -9 4 -14 12 -12 19 1 7 1 10 -1 6 -2 -4 -10 -5
-18 -2 -7 3 -16 1 -19 -4 -3 -5 2 -9 12 -8 9 0 16 -5 14 -12 -1 -8 2 -11 7 -8
5 3 12 -1 15 -10 5 -13 9 -14 22 -3 8 7 14 8 13 3 -5 -26 2 -35 21 -29 13 4
20 2 20 -6 0 -10 3 -10 12 -1 7 7 16 12 22 12 5 0 1 -6 -10 -14 -13 -10 -23
-11 -31 -4 -9 7 -13 7 -13 0 0 -17 32 -23 48 -10 12 10 14 10 8 1 -7 -13 4
-17 34 -13 8 1 12 -1 8 -5 -10 -10 -58 -13 -52 -4 9 15 -3 10 -16 -7 -11 -12
-11 -15 1 -12 8 2 13 -2 12 -9 -3 -14 16 -8 57 15 22 12 23 12 8 0 -14 -12
-15 -17 -5 -28 10 -12 9 -12 -3 -3 -9 7 -21 9 -28 5 -7 -5 -1 -12 18 -19 23
-9 33 -8 52 6 13 9 32 16 43 16 12 1 19 7 17 15 -2 8 0 11 4 7 19 -18 11 -33
-17 -33 -16 1 -29 -3 -29 -9 -1 -5 -8 -20 -16 -32 -13 -20 -13 -23 1 -23 8 0
15 -4 15 -10 0 -5 5 -10 12 -10 9 0 9 3 0 12 -7 7 -12 17 -12 23 0 5 7 1 15
-9 8 -10 12 -24 8 -29 -4 -6 0 -8 11 -4 11 4 25 -1 39 -13 12 -11 27 -18 34
-16 21 8 15 -2 -8 -15 -15 -7 -19 -8 -15 0 5 7 1 9 -11 5 -12 -4 -14 -3 -6 3
9 6 7 12 -7 21 -12 7 -20 8 -20 2 0 -5 5 -10 11 -10 5 0 8 -4 5 -8 -5 -9 52
-56 69 -57 6 -1 9 -7 7 -15 -3 -11 0 -11 12 0 18 14 22 1 6 -18 -6 -6 -7 -10
-4 -7 12 8 45 -16 38 -28 -4 -7 -4 -9 1 -5 4 4 14 0 22 -8 9 -9 22 -12 32 -8
9 4 24 6 34 6 15 -1 16 2 7 13 -8 10 -8 15 1 21 7 4 9 3 6 -3 -4 -6 1 -17 10
-24 15 -12 16 -12 10 4 -4 11 -3 16 3 12 6 -4 9 -14 8 -22 -2 -9 3 -18 11 -21
8 -3 11 0 7 6 -3 6 -1 14 5 18 8 5 9 3 4 -6 -5 -9 -1 -11 16 -6 13 3 18 3 11
0 -18 -8 -4 -24 16 -18 14 5 14 4 2 -4 -10 -8 -18 -8 -27 -1 -7 6 -17 8 -23 4
-6 -4 -20 1 -31 11 -11 10 -19 12 -19 6 0 -7 9 -17 20 -24 11 -7 20 -17 20
-22 0 -4 -6 -4 -13 2 -9 8 -16 6 -25 -8 -10 -16 -9 -18 13 -14 20 3 23 1 19
-13 -5 -15 -4 -15 4 -3 6 8 8 18 5 24 -3 5 -1 6 6 2 6 -4 23 -1 36 8 13 9 28
16 32 16 4 0 0 -5 -9 -11 -10 -5 -18 -15 -18 -21 0 -9 3 -9 12 0 7 7 16 12 22
12 7 0 6 -4 0 -10 -14 -14 -56 -22 -49 -10 3 6 -1 7 -9 4 -9 -3 -16 -10 -16
-16 0 -5 4 -7 9 -4 10 7 34 -18 25 -26 -3 -3 3 -5 13 -5 10 1 17 -4 16 -10 -2
-7 2 -13 7 -13 6 0 10 7 10 16 0 8 5 12 11 9 6 -4 8 -13 5 -21 -3 -8 0 -11 8
-8 8 3 17 0 22 -7 4 -7 3 -10 -4 -5 -6 3 -13 3 -16 -2 -2 -4 4 -9 15 -9 21 -2
26 12 8 22 -7 5 -4 14 7 26 10 12 13 19 5 19 -6 0 -14 -7 -17 -15 -4 -8 -10
-12 -16 -9 -5 3 0 13 11 21 25 17 48 8 31 -12 -7 -9 -6 -16 7 -26 15 -12 16
-12 11 3 -4 9 0 24 8 35 9 10 12 12 9 5 -4 -7 -8 -24 -10 -38 -1 -14 -8 -31
-14 -37 -9 -9 -11 -7 -6 8 5 15 4 16 -3 6 -5 -7 -16 -18 -23 -23 -11 -8 -11
-9 1 -5 8 2 24 -4 35 -14 20 -18 21 -18 21 0 0 12 -6 17 -16 14 -13 -4 -13 -4
0 6 21 15 33 14 27 -4 -4 -8 -2 -17 4 -21 6 -4 5 -12 -3 -22 -7 -10 1 -5 17
10 23 21 34 25 45 17 13 -9 12 -10 -2 -6 -11 4 -22 -4 -34 -21 -9 -15 -13 -24
-9 -20 4 4 16 3 26 -3 21 -11 53 38 43 65 -3 9 -2 16 3 16 5 0 9 -13 9 -30 0
-16 -3 -30 -6 -30 -4 0 -12 -12 -18 -26 -8 -16 -17 -22 -25 -18 -7 4 -9 3 -4
-2 5 -5 13 -10 18 -10 5 -1 11 -3 14 -4 6 -3 12 -5 42 -15 13 -4 20 -12 16
-18 -3 -6 -1 -7 6 -3 6 4 8 13 5 19 -4 7 -4 9 1 5 4 -4 17 -3 28 3 14 8 18 8
13 0 -7 -10 6 -16 27 -12 5 1 6 -3 2 -9 -3 -5 -1 -10 4 -10 15 0 7 -40 -10
-50 -10 -7 -8 -9 9 -7 22 1 26 9 23 36 -2 7 2 10 8 6 6 -3 11 -1 11 4 0 6 5
11 10 11 6 0 3 -11 -6 -25 -9 -14 -13 -25 -9 -25 4 0 4 -6 -1 -13 -5 -7 -2 -5
6 4 8 9 20 25 27 35 9 14 11 15 7 3 -3 -10 -1 -20 5 -24 6 -3 11 1 11 11 0 10
3 15 6 11 15 -14 -6 -40 -21 -27 -18 15 -19 7 -4 -23 9 -20 9 -21 -4 -4 -13
16 -15 16 -21 2 -3 -9 -2 -13 4 -10 6 3 10 1 10 -5 0 -6 8 -10 18 -8 10 2 16
-2 14 -10 -1 -8 2 -11 8 -7 7 4 7 12 0 25 -7 13 -7 21 2 26 7 4 8 3 4 -4 -4
-7 -3 -12 2 -12 5 0 12 8 14 18 3 10 12 19 21 19 9 0 14 -4 11 -9 -3 -5 -10
-5 -16 -2 -6 4 -9 1 -6 -7 3 -8 -2 -19 -10 -25 -12 -9 -12 -12 1 -26 9 -9 13
-19 9 -23 -4 -5 -1 -5 6 -1 7 4 10 12 7 17 -4 5 -2 9 2 9 5 0 14 -12 20 -27
l12 -28 -4 27 c-2 15 1 30 6 34 16 10 23 -4 10 -20 -11 -13 -8 -14 16 -12 15
1 36 -1 46 -6 9 -5 17 -6 17 -2 0 4 -8 13 -17 20 -17 13 -17 14 1 7 13 -4 17
-3 12 5 -3 6 -3 13 2 16 11 6 10 -70 -1 -81 -5 -4 -7 -3 -5 2 2 6 -1 11 -6 12
-5 1 -12 7 -16 13 -5 9 -9 9 -14 1 -4 -6 -2 -11 4 -11 6 0 8 -5 5 -10 -4 -6
-3 -10 2 -9 4 1 11 0 16 -1 4 -1 13 -3 20 -4 6 -1 11 -8 9 -15 -1 -7 2 -10 8
-6 8 5 7 11 -1 21 -8 10 -8 14 -1 14 6 0 10 6 8 13 -1 6 -1 9 1 4 3 -4 10 -4
16 0 7 4 6 -1 -2 -10 -9 -12 -10 -17 -2 -17 8 0 9 -5 2 -18 -7 -14 -6 -19 4
-19 8 0 11 7 8 16 -5 13 -4 14 8 3 8 -7 14 -18 14 -25 0 -7 5 -12 10 -12 6 0
16 -4 23 -8 7 -5 14 -3 17 5 6 16 45 22 45 7 0 -5 -6 -9 -14 -9 -8 0 -18 -4
-21 -10 -11 -17 14 -11 34 9 19 19 19 18 29 -3 6 -11 11 -15 11 -8 1 7 5 11
10 7 6 -3 8 4 6 15 -3 13 2 23 13 27 9 4 20 11 24 17 5 7 8 6 8 -2 0 -8 -9
-16 -20 -19 -15 -4 -17 -9 -10 -24 8 -13 6 -20 -6 -27 -15 -8 -14 -10 2 -16
10 -4 15 -4 11 0 -11 12 26 34 40 23 7 -7 14 -6 18 1 7 12 25 4 25 -11 0 -6
-4 -7 -10 -4 -5 3 -10 1 -10 -5 0 -7 6 -10 13 -8 19 7 16 46 -6 76 l-21 27 25
-22 c30 -27 47 -30 28 -5 -7 9 -9 14 -5 10 5 -4 16 -2 24 5 13 10 14 9 7 -3
-16 -26 -27 -93 -15 -85 5 3 6 13 3 23 -5 14 -4 15 8 6 26 -20 49 -24 42 -9
-3 8 -8 13 -12 11 -4 -3 -13 -1 -19 3 -17 10 -3 42 17 39 27 -4 44 11 30 28
-10 12 -9 13 4 8 9 -3 19 -14 22 -24 4 -12 12 -17 21 -13 13 5 13 8 2 15 -10
8 -9 9 4 5 9 -3 19 -1 22 6 2 7 5 5 5 -4 1 -9 8 -23 17 -30 15 -12 16 -11 9
11 -7 24 -7 24 9 5 16 -19 16 -19 12 8 -3 15 -1 25 3 22 19 -11 4 -47 -28 -68
-19 -12 -32 -16 -28 -10 5 8 1 11 -13 8 -22 -4 -28 10 -7 19 6 3 -1 3 -17 1
-16 -2 -31 -7 -34 -9 -3 -3 -11 -1 -19 6 -11 8 -17 8 -26 -2 -10 -10 -9 -11 2
-5 9 5 12 4 7 -3 -5 -8 -2 -10 8 -6 9 4 18 -1 22 -10 3 -9 11 -13 17 -9 6 4 8
0 5 -9 -4 -8 0 -15 7 -15 10 0 11 5 4 19 -5 10 -15 18 -22 18 -8 0 -6 4 3 10
11 7 18 3 27 -13 8 -14 12 -17 13 -7 0 12 2 12 9 1 6 -10 13 -11 29 -2 24 13
66 15 58 3 -3 -5 1 -9 7 -9 7 0 14 10 15 21 1 15 -1 17 -7 7 -6 -9 -11 -10
-15 -2 -4 6 -2 11 3 11 20 0 26 3 39 19 10 14 11 14 7 1 -4 -12 1 -16 22 -14
15 1 28 3 28 4 0 8 52 6 63 -2 7 -7 12 -7 12 -1 0 22 -47 32 -70 16 -13 -9
-20 -11 -16 -4 4 6 3 18 -4 26 -8 10 -8 15 1 21 8 4 9 3 5 -5 -11 -17 22 -25
41 -10 12 10 15 10 9 2 -4 -7 -4 -13 1 -14 4 0 19 -2 33 -5 14 -2 21 -1 15 3
-5 5 -11 25 -11 47 -1 21 2 33 6 26 4 -7 7 -23 5 -35 -2 -24 13 -27 37 -7 8 6
18 8 22 4 4 -4 6 0 4 8 -2 9 4 14 15 14 9 -1 17 2 17 7 0 5 7 9 15 9 18 0 19
11 3 30 -11 12 -10 12 6 0 21 -16 49 -22 40 -9 -3 5 -11 6 -17 2 -8 -5 -8 -2
0 9 7 8 12 17 10 19 -1 2 4 -3 12 -11 12 -13 13 -12 8 7 -3 15 -1 20 8 17 7
-3 16 0 21 7 4 7 3 10 -4 5 -6 -3 -13 -2 -17 3 -3 6 3 8 15 6 11 -2 20 0 20 6
0 5 5 9 11 9 5 0 7 -5 3 -12 -5 -7 -3 -8 5 -4 7 5 10 15 7 23 -5 11 -2 13 9 9
11 -4 14 -2 9 6 -5 8 0 9 17 5 23 -6 23 -5 5 8 -19 15 -19 15 2 15 12 0 22 5
22 11 0 5 5 7 10 4 6 -3 10 -2 10 4 0 5 -6 12 -12 15 -7 3 -2 4 12 3 16 -1 24
3 23 11 -2 6 3 12 10 12 7 0 8 3 2 8 -5 4 -17 16 -25 27 -14 19 -14 19 5 4 30
-24 49 -34 41 -21 -8 13 20 42 37 38 7 -1 9 -1 5 1 -14 8 -8 23 8 23 14 0 13
2 -1 17 -16 15 -16 17 4 32 11 9 27 25 34 35 11 15 16 16 22 6 5 -9 4 -11 -3
-6 -11 7 -17 -6 -13 -27 1 -5 -4 -5 -10 -1 -8 5 -9 3 -4 -6 5 -8 4 -11 -1 -7
-6 3 -16 2 -23 -2 -9 -6 -10 -11 -2 -15 6 -4 11 -2 11 4 0 6 4 9 9 6 5 -3 14
1 21 9 7 8 9 15 6 15 -4 0 9 14 29 31 20 18 33 34 30 37 -2 3 3 11 13 19 9 8
11 12 5 8 -27 -13 -11 6 19 25 30 18 30 19 7 18 -13 -1 -33 -9 -44 -17 -20
-16 -20 -16 -1 7 11 12 24 22 30 21 24 -3 37 2 31 11 -3 5 -2 10 4 10 6 0 13
11 17 25 4 15 11 22 18 18 6 -4 5 1 -3 10 -12 15 -12 17 3 11 13 -5 15 -2 9
12 -6 16 -5 17 9 6 13 -10 18 -10 24 -1 4 7 3 9 -3 6 -6 -4 -17 1 -24 11 -7 9
-10 14 -5 10 7 -6 24 9 66 60 8 8 8 12 0 12 -6 0 -13 -7 -16 -15 -9 -22 -41
-38 -49 -25 -4 6 -3 10 2 9 23 -4 35 2 29 17 -3 8 -2 12 4 9 6 -3 10 -2 10 4
0 5 9 13 20 16 17 5 18 10 9 27 -8 15 -8 19 0 13 13 -8 41 12 41 29 0 6 -5 4
-10 -4 -7 -11 -10 -11 -10 -2 0 7 10 17 23 22 12 5 16 9 9 9 -7 1 -10 6 -7 11
4 6 12 7 18 4 9 -5 9 -4 0 6 -9 10 -6 21 15 48 15 20 22 33 16 29 -6 -3 -20 0
-30 8 -12 10 -14 13 -4 10 9 -3 26 5 38 18 17 17 18 24 8 24 -8 0 -12 -5 -9
-11 3 -6 2 -7 -2 -3 -15 13 -15 39 0 33 9 -3 12 1 10 15 -2 10 0 19 5 19 5 0
-2 11 -16 25 -14 14 -22 30 -18 37 5 7 10 4 15 -9 9 -26 26 -37 26 -18 0 8 -4
12 -9 9 -4 -3 -8 3 -8 14 0 10 -3 22 -7 26 -8 7 -9 11 -12 37 0 5 -5 8 -10 4
-6 -3 -15 3 -21 12 -10 16 -10 15 -5 -4 4 -14 2 -23 -5 -23 -6 0 -8 -5 -4 -11
4 -8 9 -8 17 0 6 6 15 11 21 11 5 0 1 -7 -10 -15 -16 -13 -16 -14 -1 -9 10 4
17 1 17 -7 0 -7 -3 -9 -6 -6 -4 3 -15 2 -25 -3 -12 -7 -20 -6 -25 2 -4 7 -3 8
4 4 7 -4 12 -3 12 3 0 5 -4 12 -9 16 -10 5 -5 50 6 68 3 6 1 7 -5 3 -6 -3 -14
-1 -18 5 -4 7 -3 9 4 5 6 -3 13 -2 17 4 3 5 0 10 -7 10 -9 0 -9 3 2 10 10 6
11 10 3 10 -7 0 -13 5 -13 11 0 5 4 8 9 5 5 -3 8 2 7 12 0 9 -8 20 -16 24 -12
5 -11 7 3 7 10 1 15 6 12 11 -4 6 -12 7 -18 4 -7 -4 -8 -3 -4 2 5 5 13 9 18 9
5 0 9 5 8 10 0 6 -9 9 -20 8 -11 -2 -17 1 -14 7 3 6 14 10 23 11 11 0 13 2 4
6 -10 4 -10 8 0 21 10 12 10 14 1 8 -9 -5 -13 0 -13 14 0 12 4 19 8 16 5 -3 9
1 9 9 0 8 -4 12 -9 9 -4 -3 -8 0 -8 5 0 6 5 11 11 11 8 0 7 5 -1 15 -11 13
-10 14 1 10 10 -4 14 3 14 25 0 16 -5 30 -11 30 -6 0 -11 7 -11 15 0 10 4 12
12 5 7 -6 11 -3 12 10 1 11 -3 23 -9 26 -7 5 -8 2 -3 -6 5 -9 4 -11 -4 -6 -6
4 -9 12 -5 17 3 5 10 7 15 4 5 -4 10 0 10 7 2 24 -3 43 -14 50 -9 6 -8 8 1 8
7 0 11 4 7 9 -3 5 -1 12 4 15 5 3 7 16 3 28 -3 14 -1 19 6 14 9 -5 9 0 2 20
-9 24 -9 25 5 14 13 -11 14 -10 9 5 -6 14 -4 16 7 10 12 -8 12 -6 0 8 -9 11
-10 17 -2 17 6 0 11 5 11 11 0 5 -6 7 -12 3 -7 -4 -5 1 4 12 10 11 19 31 22
45 2 13 9 23 15 22 6 -2 10 0 9 5 -1 4 4 18 11 31 7 13 9 21 3 17 -5 -3 -12 1
-15 9 -4 9 -1 12 9 8 7 -3 14 0 14 6 0 6 5 11 11 11 5 0 7 -6 3 -12 -4 -7 -3
-9 1 -5 12 10 15 38 4 31 -5 -3 -9 0 -9 5 0 6 6 11 13 11 8 0 22 9 32 20 10
11 13 20 7 20 -6 0 -13 -6 -16 -12 -3 -7 -3 -3 0 10 3 14 1 22 -7 22 -7 0 -9
3 -6 6 4 4 14 1 24 -7 9 -8 14 -9 10 -2 -4 6 -1 18 7 26 8 7 16 25 18 38 2 13
9 23 15 22 7 -2 10 4 7 12 -4 9 -1 21 5 29 6 7 8 16 4 20 -4 4 0 4 8 1 12 -5
16 0 15 17 -2 26 12 50 24 43 5 -3 11 -1 14 4 4 5 1 13 -5 17 -8 5 -9 3 -4 -7
8 -12 6 -12 -8 0 -23 18 -22 20 10 15 23 -4 25 -3 13 11 -11 13 -10 14 5 9 12
-5 16 -4 12 3 -4 6 1 17 10 24 14 12 16 12 8 -1 -7 -13 -6 -13 7 -2 16 13 18
28 5 48 -4 7 2 11 16 10 17 -1 22 4 21 21 -1 13 3 20 11 16 8 -2 12 3 12 14
-1 9 4 18 11 19 6 1 15 2 18 3 4 0 0 9 -7 18 -12 15 -12 16 8 11 14 -4 20 -2
17 7 -3 6 2 18 11 25 12 10 13 16 3 28 -10 12 -10 14 -1 9 7 -5 21 1 33 13 11
11 15 20 9 20 -5 0 -7 5 -4 10 4 6 11 7 17 4 6 -4 9 -1 6 6 -2 7 6 23 19 36
12 12 25 35 29 51 4 15 11 31 16 34 5 3 10 17 11 31 1 13 10 33 20 43 10 9 16
24 13 31 -3 8 0 13 7 11 7 -1 11 6 11 16 -1 10 5 17 15 17 14 0 14 2 1 10 -13
8 -12 10 3 10 10 0 15 4 12 10 -3 5 2 24 12 42 9 18 16 36 15 41 -1 4 3 7 9 7
5 0 8 4 5 9 -3 5 1 11 9 15 8 3 15 11 15 18 0 9 -3 9 -10 -2 -5 -8 -11 -12
-14 -9 -3 3 8 20 24 37 16 18 26 32 23 32 -3 0 2 10 13 22 13 14 14 19 4 14
-9 -5 -9 -2 2 7 14 11 15 16 5 26 -9 10 -9 11 4 6 11 -4 18 1 22 15 3 12 10
19 16 15 7 -3 8 0 5 9 -3 9 -1 16 5 16 6 0 8 7 4 17 -4 10 -2 14 4 10 6 -4 14
0 17 9 3 8 10 13 15 10 5 -3 7 2 4 12 -3 12 4 23 19 30 13 7 15 10 6 8 -10 -3
-20 0 -24 6 -4 7 -3 8 4 4 7 -4 12 -2 12 4 0 6 5 8 13 4 8 -5 8 -3 -2 9 -11
14 -11 18 3 23 9 3 13 10 10 15 -3 5 3 9 13 10 10 0 13 3 6 6 -10 3 -10 7 0
18 7 7 17 10 22 7 6 -3 4 2 -3 11 -12 14 -10 20 15 43 15 15 22 24 16 20 -7
-4 -13 -2 -13 4 0 6 7 13 15 16 13 5 13 9 3 22 -10 12 -10 14 0 8 8 -5 12 -1
12 12 0 11 7 25 15 32 12 10 13 16 3 28 -9 11 -9 14 -1 9 6 -4 14 -3 18 3 3 5
1 10 -5 10 -7 0 -5 7 4 16 19 19 21 28 4 18 -7 -4 -4 3 7 16 13 15 15 21 5 16
-12 -6 -12 -5 1 6 18 15 34 52 19 43 -18 -11 -11 4 13 26 20 20 20 21 2 15
-18 -6 -19 -5 -3 7 10 8 15 17 11 21 -4 4 -1 11 7 16 13 8 13 10 1 10 -11 0
-9 4 5 15 13 10 14 14 5 15 -11 0 -11 3 -1 15 6 8 9 19 5 25 -3 5 -1 10 6 10
7 0 9 3 6 7 -4 3 1 12 11 20 16 12 16 13 -3 7 -19 -5 -19 -5 -3 9 10 8 15 17
12 20 -3 3 0 15 6 27 10 18 10 21 -2 14 -11 -6 -11 -5 1 9 11 14 11 17 0 17
-10 0 -10 3 -3 8 15 9 15 102 1 122 -9 12 -9 13 3 3 8 -7 18 -13 23 -13 6 0 5
5 0 13 -17 20 -24 60 -9 48 9 -8 13 -7 13 4 0 8 -4 15 -9 15 -4 0 -8 5 -8 11
0 5 4 8 8 5 4 -2 8 6 8 19 0 13 -3 22 -7 19 -4 -2 -11 0 -14 6 -4 6 -1 9 6 8
6 -2 14 3 17 11 3 10 0 12 -14 8 -18 -7 -18 -7 0 7 18 14 14 42 -5 31 -5 -3
-6 1 -3 9 3 9 10 16 16 16 5 0 6 -6 2 -12 -4 -8 -3 -10 2 -5 5 5 9 12 9 15 0
4 3 12 7 18 4 6 1 11 -7 11 -8 0 -12 -3 -10 -7 2 -4 -2 -7 -10 -7 -10 0 -9 7
6 25 18 23 18 27 3 50 -12 18 -13 27 -4 36 8 8 10 6 5 -9 -5 -15 -5 -17 3 -6
6 8 7 22 3 30 -5 9 -6 23 -4 31 4 13 3 13 -6 0 -7 -9 -11 -10 -11 -3 0 6 5 15
12 19 7 5 5 12 -8 22 -18 13 -18 14 4 7 13 -4 22 -2 22 5 0 6 -4 8 -10 5 -13
-8 -13 8 0 21 7 7 6 11 -4 11 -8 0 -13 -4 -10 -8 8 -13 -17 -22 -29 -10 -9 9
-8 11 4 6 11 -4 15 1 15 20 0 23 -8 30 -29 26 -5 -1 -6 3 -2 9 4 7 13 6 28 -1
12 -7 19 -8 15 -4 -4 4 -3 15 2 25 8 14 5 17 -13 16 -32 -3 -46 11 -41 40 3
15 1 23 -5 20 -11 -7 -9 13 2 32 6 8 0 15 -15 21 -16 7 -18 10 -6 10 18 1 33
-16 33 -39 0 -8 4 -21 8 -27 5 -7 5 -18 1 -25 -5 -7 -3 -8 6 -3 8 5 11 4 6 -3
-7 -12 20 -10 31 3 5 4 2 5 -6 0 -11 -6 -13 -4 -8 8 4 10 2 16 -4 14 -6 -1
-13 9 -15 22 -3 14 -9 30 -15 38 -8 9 -8 17 -1 26 8 10 6 13 -11 14 -17 2 -19
0 -7 -7 8 -5 11 -10 5 -10 -5 1 -19 7 -29 15 -19 15 -17 16 24 19 10 0 25 8
32 16 11 12 11 12 -4 2 -11 -9 -18 -10 -23 -2 -3 5 -1 10 6 10 6 0 0 12 -15
26 -26 27 -34 54 -16 54 6 0 9 -3 8 -7 -2 -5 1 -10 6 -13 5 -3 10 3 12 13 1 9
-2 15 -7 11 -5 -3 -9 -1 -9 4 0 6 -7 13 -16 16 -10 4 -13 2 -9 -7 4 -6 -1 -3
-9 7 -18 22 -21 14 -6 -14 11 -20 4 -50 -12 -50 -6 0 -5 7 3 16 16 19 -2 34
-35 27 -20 -3 -20 -3 2 6 12 6 22 14 22 19 0 5 -10 14 -22 21 l-23 11 24 -6
c17 -5 21 -3 16 6 -5 9 -4 11 3 6 7 -4 12 -1 12 6 0 10 3 9 9 -2 6 -8 7 -18 5
-22 -3 -4 4 -8 15 -8 23 0 28 15 9 26 -7 5 -8 3 -3 -6 5 -9 4 -11 -4 -6 -7 4
-9 17 -6 29 4 12 3 18 -2 12 -4 -5 -19 -11 -33 -13 -19 -2 -22 0 -10 8 16 10
4 15 -27 11 -6 -1 -14 3 -18 9 -4 6 1 7 11 3 13 -5 15 -3 9 8 -7 11 -6 12 6 2
13 -10 15 -8 13 18 -3 38 -9 45 -27 30 -11 -8 -18 -7 -31 7 -13 15 -13 19 -2
19 8 0 15 -3 14 -6 -2 -19 4 -22 17 -11 22 18 59 -15 45 -39 -10 -19 4 -50 17
-38 4 5 1 12 -7 17 -8 6 -10 10 -4 10 5 0 10 11 10 24 0 14 -5 24 -10 23 -6
-1 -10 4 -8 11 1 8 -2 11 -7 8 -5 -4 -16 0 -23 7 -8 8 -27 13 -43 11 -19 -2
-25 0 -16 5 11 7 11 10 0 14 -9 4 -6 6 5 4 10 -1 21 4 23 11 3 8 -2 10 -14 6
-14 -5 -15 -4 -3 4 10 8 18 7 28 -1 9 -7 10 -13 3 -15 -6 -2 -11 -8 -11 -13 0
-6 4 -8 9 -4 5 3 12 1 16 -4 7 -12 35 -3 35 11 0 7 -5 6 -13 -1 -8 -6 -17 -8
-20 -4 -4 3 1 12 11 20 16 12 16 13 0 7 -12 -4 -18 -1 -18 7 -1 21 -65 50 -79
36 -6 -6 -11 -9 -12 -6 0 2 -2 12 -4 22 -2 10 1 14 8 10 6 -4 8 0 4 10 -16 42
13 55 34 15 9 -16 8 -19 -2 -13 -8 6 -10 4 -4 -5 6 -9 4 -11 -5 -5 -9 5 -11 4
-6 -4 4 -6 11 -9 16 -6 5 3 13 -3 19 -12 10 -17 10 -17 11 0 0 9 -6 17 -12 17
-9 0 -8 4 2 10 11 7 11 10 2 10 -7 0 -10 5 -7 10 3 6 1 10 -5 10 -6 0 -8 5 -5
10 4 6 1 9 -6 8 -7 -2 -13 2 -14 7 -1 15 -29 55 -38 55 -4 0 -5 -4 -2 -10 3
-5 1 -10 -4 -10 -6 0 -11 5 -11 10 0 6 -4 10 -10 10 -5 0 -9 -5 -7 -11 1 -6
-4 -14 -11 -16 -8 -3 -10 1 -6 11 3 9 1 16 -6 16 -6 0 -8 -4 -5 -10 8 -12 -5
-13 -24 -1 -15 9 16 25 60 30 5 0 7 6 3 12 -3 6 -9 7 -13 3 -16 -22 -61 -7
-61 19 0 7 4 7 12 -1 15 -15 28 -15 28 -1 0 5 -5 7 -10 4 -6 -3 -13 1 -16 10
-9 24 -25 -3 -18 -30 5 -20 5 -20 -10 -1 -12 15 -13 23 -4 35 10 13 10 14 -1
4 -20 -17 -55 15 -38 36 10 14 10 14 -5 3 -14 -11 -18 -10 -30 7 -8 12 -18 18
-21 14 -4 -3 -7 -2 -7 3 0 5 -9 20 -20 34 -17 21 -19 22 -14 5 5 -18 4 -18
-15 3 -11 13 -18 32 -16 44 3 11 2 18 -2 15 -3 -4 -14 -2 -24 3 -19 11 -46
-19 -31 -35 4 -5 -2 -5 -12 -1 -19 6 -19 6 -4 -11 9 -10 18 -22 20 -28 2 -5
13 -10 25 -9 12 1 20 -2 18 -7 -3 -4 0 -11 5 -14 8 -5 6 -13 -6 -26 -9 -10
-12 -19 -6 -19 14 0 34 35 25 44 -3 3 -1 6 5 6 16 0 24 -17 12 -25 -6 -4 -8
-11 -4 -16 3 -5 9 -7 13 -4 5 2 13 -7 19 -20 8 -17 17 -23 32 -20 17 3 20 1
15 -13 -7 -19 -8 -22 -6 -39 0 -7 5 -13 10 -13 4 0 7 11 6 25 -2 14 1 27 5 30
5 3 7 -6 4 -19 -5 -30 11 -42 33 -24 14 11 16 11 8 -1 -6 -10 -4 -12 5 -6 9 6
11 4 5 -5 -6 -9 -4 -11 6 -5 12 8 12 6 1 -8 -12 -14 -17 -14 -35 -4 -25 15
-45 15 -67 3 -12 -7 -13 -6 -2 5 14 16 16 33 2 24 -5 -3 -11 0 -12 7 0 7 -2
18 -3 23 -2 6 -3 14 -4 19 0 6 -8 1 -16 -10 -8 -10 -15 -14 -14 -9 3 22 -2 35
-12 35 -6 0 -9 -6 -6 -13 3 -8 -1 -14 -8 -14 -10 0 -11 5 -4 19 5 10 14 18 20
18 6 0 7 5 4 10 -5 8 -11 7 -20 0 -20 -16 -40 -3 -24 16 11 13 6 18 -15 15 -4
-1 -15 4 -23 11 -14 11 -15 10 -9 -12 7 -22 5 -21 -16 7 -21 30 -48 48 -32 21
4 -7 3 -8 -5 -4 -15 10 -3 29 14 22 8 -3 19 3 27 11 11 15 11 16 -6 10 -12 -5
-24 -1 -36 13 -9 11 -21 16 -25 12 -5 -4 -5 -2 -2 4 10 18 -23 57 -37 45 -7
-6 -16 -8 -19 -4 -4 3 -7 1 -7 -5 0 -7 -5 -12 -11 -12 -8 0 -9 4 0 13 11 14 5
27 -12 27 -6 0 -7 -3 -4 -7 9 -8 -12 -33 -27 -33 -6 0 -3 5 6 11 10 5 15 16
12 24 -4 9 0 16 7 17 8 0 21 2 29 3 8 1 21 -4 29 -9 12 -9 13 -8 6 4 -7 12 -6
13 7 3 8 -7 19 -9 23 -5 5 4 4 0 0 -8 -8 -13 -7 -13 9 -1 22 18 48 -1 27 -21
-10 -11 -11 -10 -6 5 8 19 -10 24 -21 5 -4 -6 -3 -8 3 -5 6 4 9 -3 8 -16 -1
-12 6 -31 16 -41 16 -16 19 -17 19 -4 0 9 5 18 12 20 7 3 5 7 -6 11 -10 4 -15
3 -11 -3 3 -6 1 -10 -4 -10 -12 0 -15 23 -4 33 3 4 12 2 20 -5 11 -8 17 -8 26
2 10 10 9 12 -5 7 -16 -5 -43 24 -41 43 1 3 -3 4 -9 2 -11 -3 -39 23 -33 32 3
3 2 4 -2 1 -3 -3 -13 1 -21 8 -11 8 -14 9 -9 0 5 -8 0 -11 -13 -10 -15 1 -19
6 -14 22 4 16 3 17 -5 5 -6 -8 -11 -11 -11 -7 0 4 -10 3 -22 -4 -18 -10 -20
-9 -15 5 4 10 3 15 -1 13 -9 -6 -33 19 -25 26 2 3 -3 4 -14 2 -10 -1 -17 -8
-16 -14 2 -6 -6 -15 -16 -20 -21 -12 -34 -1 -45 34 -3 11 -16 26 -28 34 l-23
14 23 -25 c15 -17 20 -31 16 -43 -6 -14 -4 -16 7 -10 12 8 12 6 0 -8 -11 -14
-11 -17 0 -18 8 -1 21 -3 29 -4 8 -1 20 -3 27 -4 7 0 10 -8 7 -16 -6 -14 -8
-13 -20 2 -12 17 -13 16 -9 -5 5 -27 -3 -52 -17 -52 -6 0 -5 7 2 15 17 21 5
31 -14 12 -8 -8 -13 -17 -11 -19 3 -3 -2 -5 -10 -5 -12 0 -10 6 6 23 20 21 20
24 5 30 -18 7 -66 -13 -66 -28 0 -5 4 -6 10 -3 6 4 7 -1 3 -11 -5 -14 -8 -12
-20 10 -8 15 -19 24 -25 20 -7 -5 -8 -2 -3 6 6 10 4 12 -8 7 -11 -4 -14 -2
-10 8 3 8 9 13 13 10 5 -3 11 -1 14 4 3 5 -1 12 -9 15 -9 3 -18 0 -21 -8 -7
-17 -61 -16 -61 1 0 9 4 10 14 2 9 -9 13 -8 13 0 0 6 -7 14 -15 17 -8 4 -15
10 -15 16 0 5 4 7 9 4 5 -3 11 2 13 12 7 24 37 24 35 0 -1 -20 -13 -24 -19 -6
-3 8 -7 6 -10 -4 -5 -12 -1 -15 18 -13 13 1 27 -2 30 -6 3 -5 10 -9 15 -9 6 0
8 4 4 9 -3 5 0 13 6 17 8 5 9 3 4 -6 -6 -9 -4 -11 5 -5 8 5 11 4 7 -1 -3 -5 3
-10 14 -10 18 0 18 1 -3 18 -18 13 -19 16 -6 14 24 -3 33 -14 33 -39 0 -11 7
-22 15 -25 12 -4 12 -2 3 8 -8 9 -9 19 -3 30 11 20 -23 60 -35 41 -4 -8 -12
-8 -26 -1 -11 6 -18 14 -15 18 2 4 -2 16 -10 27 -8 10 -14 14 -14 8 0 -7 5
-15 10 -18 6 -4 8 -11 5 -16 -7 -11 -26 -12 -24 -1 3 18 -2 35 -8 29 -3 -4
-12 -2 -20 5 -11 9 -12 7 -6 -8 5 -16 4 -17 -8 -8 -16 13 -57 13 -77 0 -8 -5
-18 -4 -25 3 -6 6 -20 10 -31 10 -18 -1 -18 -2 -3 -6 9 -2 15 -9 12 -14 -4 -5
-18 -3 -34 6 -21 10 -31 11 -39 3 -8 -8 -15 -8 -24 0 -8 7 -19 7 -28 2 -16
-10 -30 -4 -30 12 0 6 8 7 18 3 13 -5 14 -3 5 6 -14 14 -36 2 -29 -17 3 -8 -1
-14 -10 -14 -9 0 -12 5 -8 12 4 7 3 8 -4 4 -20 -12 -2 -37 18 -26 12 6 20 6
22 0 4 -14 48 -22 48 -9 0 6 5 7 10 4 16 -10 -40 -50 -67 -49 -22 1 -31 -10
-15 -19 4 -2 1 -2 -7 0 -8 2 -11 -2 -7 -12 3 -9 2 -14 -3 -10 -5 3 -12 -1 -14
-7 -4 -10 -6 -10 -6 -1 -1 7 -8 10 -18 7 -15 -5 -15 -4 -3 5 8 5 11 13 7 17
-3 4 -13 1 -22 -6 -19 -16 -20 -3 0 17 8 8 12 19 9 25 -3 5 -12 0 -21 -11 -19
-28 -55 -48 -47 -26 3 8 10 13 14 10 5 -3 11 -1 14 4 10 16 -14 24 -30 10 -12
-10 -17 -10 -27 1 -9 10 -9 13 1 17 6 3 12 9 12 14 0 6 -6 7 -12 2 -7 -4 -5 5
5 21 14 21 16 31 7 40 -8 8 -10 7 -5 -5 3 -9 0 -16 -7 -17 -7 0 -23 -3 -35 -6
-13 -2 -25 -1 -28 5 -4 5 -1 9 6 9 7 0 9 3 6 7 -4 3 -15 -2 -26 -11 -11 -10
-22 -13 -25 -8 -3 6 0 12 6 15 7 2 11 7 8 9 -3 3 -14 1 -25 -6z m565 -26 c3
-1 14 -1 25 0 11 1 17 -1 13 -5 -3 -4 -10 -7 -15 -7 -4 1 -16 -7 -25 -15 -10
-9 -18 -12 -18 -7 0 5 -5 2 -10 -6 -6 -10 -10 -11 -10 -2 0 6 -5 12 -11 12 -6
0 -9 -7 -5 -15 3 -8 1 -15 -4 -15 -6 0 -10 5 -10 11 0 5 -4 8 -10 4 -5 -3 -7
-13 -4 -23 5 -16 5 -16 -6 0 -6 10 -17 15 -28 11 -13 -4 -13 -2 3 10 20 16 20
16 -2 14 -13 -1 -23 -7 -23 -13 0 -6 -13 -17 -30 -24 -16 -7 -30 -17 -30 -22
0 -13 33 -5 46 11 6 8 17 11 25 8 10 -4 8 -6 -5 -6 -14 -1 -16 -4 -7 -15 9
-11 6 -13 -14 -10 -22 2 -25 -1 -20 -19 5 -19 5 -20 -5 -4 -6 9 -16 15 -21 12
-5 -4 -7 -10 -5 -14 3 -4 -1 -8 -9 -8 -11 0 -12 3 -3 14 14 18 20 63 7 63 -5
0 -9 -4 -9 -10 0 -5 -5 -10 -10 -10 -35 0 38 57 81 63 8 2 19 6 26 10 6 4 18
4 26 1 8 -3 17 -1 21 4 4 7 59 9 76 2z m-693 -822 c-8 -5 -4 -8 11 -8 30 0 38
3 34 15 -2 5 6 1 17 -9 15 -14 24 -16 33 -8 10 8 20 5 38 -8 28 -22 40 -25 40
-9 0 5 -5 7 -12 3 -7 -4 -8 -3 -4 5 6 9 14 8 32 -3 25 -17 59 -22 49 -7 -3 5
0 13 6 17 7 4 9 3 6 -2 -3 -6 -2 -16 4 -24 7 -13 9 -13 9 0 0 13 1 13 10 0 9
-13 10 -13 10 0 1 12 3 12 14 -3 13 -17 14 -16 19 3 3 11 11 20 19 20 9 0 10
-2 1 -8 -8 -5 -3 -11 13 -19 13 -6 24 -7 24 -2 0 5 -4 9 -8 9 -4 0 -8 10 -9
23 l-1 22 10 -22 c6 -13 19 -23 30 -23 10 0 18 -6 18 -12 0 -9 4 -8 10 2 5 8
10 11 10 6 0 -4 12 -1 26 9 17 11 24 12 18 4 -13 -22 -14 -40 -1 -32 16 10 50
4 60 -11 5 -6 5 0 1 14 -6 22 -5 23 9 12 9 -8 13 -21 10 -30 -4 -14 -3 -14 5
-3 13 18 72 -40 72 -69 0 -22 -16 -35 -25 -20 -3 5 -14 10 -23 10 -16 -1 -16
-1 0 -13 11 -9 14 -18 7 -28 -7 -12 -9 -12 -9 2 0 9 -7 16 -15 16 -18 0 -20
-13 -2 -20 8 -4 8 -6 1 -6 -7 -1 -22 8 -35 20 -13 11 -17 17 -9 13 13 -7 13
-6 0 12 -13 17 -13 18 0 8 19 -13 30 -12 55 5 18 11 18 12 1 7 -14 -5 -17 -2
-12 11 6 17 5 17 -8 0 -8 -11 -17 -14 -20 -8 -4 6 -14 7 -23 4 -12 -5 -14 -3
-8 8 7 11 6 12 -7 2 -15 -13 -28 -8 -28 9 0 5 4 7 9 3 6 -3 15 5 21 17 10 21
10 21 -3 6 -8 -10 -17 -15 -20 -11 -4 3 -9 -1 -13 -10 -3 -10 -12 -13 -22 -10
-10 4 -7 -3 8 -16 14 -13 18 -21 9 -18 -19 6 -45 -8 -32 -16 5 -3 21 0 35 7
16 8 31 10 39 5 8 -5 10 -9 6 -9 -4 0 -3 -9 3 -20 9 -16 8 -18 -5 -14 -8 4
-15 12 -15 19 0 8 -9 10 -25 7 -14 -2 -22 -9 -19 -14 4 -6 -6 -2 -22 8 -15 11
-26 15 -22 9 3 -5 1 -21 -4 -35 -9 -23 -10 -24 -23 -7 -11 16 -13 16 -19 2 -3
-9 -2 -14 2 -12 4 3 13 -2 21 -10 12 -13 11 -14 -7 -9 -15 5 -24 1 -32 -14 -6
-11 -15 -18 -21 -15 -5 4 -3 13 6 21 18 18 18 20 5 45 -7 11 -7 19 -1 19 5 0
12 -5 14 -10 3 -6 4 -5 3 2 -6 29 -31 12 -31 -20 0 -18 -7 -37 -15 -42 -11 -7
-12 -10 -2 -10 7 0 11 -4 7 -9 -3 -5 0 -13 6 -17 8 -5 9 -3 4 6 -5 8 -4 11 3
6 6 -3 18 1 27 10 9 9 18 14 21 11 9 -8 -47 -46 -61 -41 -8 3 -12 -1 -12 -12
3 -31 -19 -25 -36 11 -10 20 -22 33 -27 30 -15 -9 -12 -22 10 -42 18 -18 19
-19 0 -19 -10 0 -16 4 -14 8 6 10 -30 11 -40 1 -10 -11 -36 -12 -36 -2 0 5 -5
9 -11 9 -8 0 -9 -4 0 -13 6 -8 9 -16 6 -19 -3 -2 2 -5 10 -5 8 0 11 5 8 10 -3
6 -1 7 5 3 6 -3 13 -2 17 4 3 5 11 10 16 10 5 0 -4 -14 -21 -30 -19 -19 -28
-35 -23 -43 5 -9 8 -7 11 6 2 9 8 17 14 17 6 0 8 -3 5 -7 -4 -3 -2 -12 5 -20
9 -11 7 -12 -7 -7 -12 5 -16 4 -12 -3 4 -6 -1 -17 -11 -24 -15 -13 -16 -12 -3
4 7 9 9 17 5 17 -5 0 -15 9 -22 21 -8 12 -9 18 -3 14 6 -3 11 -2 11 3 0 20
-14 20 -41 1 -15 -10 -34 -18 -41 -17 -9 2 -12 -7 -11 -27 1 -16 -1 -22 -4
-12 -2 9 -9 15 -14 12 -5 -3 -6 1 -3 10 5 11 2 14 -12 9 -11 -3 -15 -2 -9 3 6
4 11 17 13 28 2 18 0 17 -19 -5 -12 -14 -20 -19 -19 -10 4 27 0 41 -10 35 -5
-3 -10 -1 -10 4 0 17 -19 13 -46 -8 -13 -10 -20 -22 -16 -27 4 -5 3 -6 -2 -2
-5 4 -17 3 -27 -3 -13 -6 -19 -6 -19 1 0 5 7 10 15 10 10 0 7 7 -9 25 -28 30
-41 33 -26 6 13 -25 13 -41 -1 -18 -10 17 -20 51 -21 75 -1 6 -7 12 -14 12 -7
0 -16 5 -20 12 -5 8 -2 9 10 5 13 -5 17 -3 13 7 -6 15 9 16 32 2 10 -6 12 -5
7 2 -4 7 -2 12 3 12 6 0 11 4 11 9 0 10 -19 9 -35 -1 -6 -4 -17 -3 -25 3 -13
7 -13 9 1 9 10 0 15 8 14 23 -3 32 4 40 23 25 13 -11 15 -10 9 5 -3 9 -2 17 4
17 6 0 7 5 4 10 -3 6 1 10 10 10 10 0 13 -5 9 -12 -4 -7 -3 -8 4 -4 7 4 12 14
12 22 0 8 -4 13 -8 10 -4 -2 -8 4 -8 14 0 18 19 21 33 5 4 -4 2 -5 -4 -1 -7 4
-13 3 -13 -2 0 -16 25 -20 43 -7 15 11 16 14 2 25 -13 11 -15 10 -9 -6 4 -14
3 -16 -4 -5 -5 7 -16 18 -23 23 -11 8 -11 9 2 5 15 -5 89 36 89 49 0 3 -10 3
-22 0 l-23 -6 23 11 c12 7 22 19 22 28 0 14 2 14 10 1 6 -9 5 -17 -3 -22z
m-1353 -3850 c12 -17 13 -25 3 -37 -10 -12 -9 -14 5 -8 13 5 22 -2 32 -22 12
-21 21 -28 40 -26 15 2 24 -2 23 -8 -1 -8 11 -11 33 -10 24 2 31 -1 20 -7 -8
-5 -17 -7 -21 -4 -4 2 -7 -5 -6 -16 1 -13 6 -19 15 -15 8 3 22 0 30 -7 14 -11
15 -10 9 7 l-7 20 15 -20 c9 -11 20 -20 25 -20 6 0 10 -4 9 -9 0 -5 5 -13 13
-17 10 -7 10 -9 1 -9 -7 0 -23 10 -35 22 -16 16 -20 17 -15 4 5 -12 3 -15 -6
-10 -8 6 -8 3 1 -9 8 -9 10 -22 6 -28 -5 -8 -3 -10 7 -4 11 6 12 5 2 -6 -7 -7
-13 -17 -13 -23 0 -5 6 -1 14 9 8 11 12 26 9 35 -3 9 -1 11 4 5 4 -5 15 -10
23 -10 8 0 14 -6 12 -14 -2 -8 3 -11 12 -8 10 4 14 0 12 -11 -2 -9 5 -25 16
-34 10 -10 18 -13 18 -7 0 5 5 7 11 3 6 -3 7 -9 3 -13 -5 -3 -10 -13 -12 -21
-1 -10 2 -9 13 4 8 11 15 25 15 30 0 6 5 3 11 -7 7 -12 7 -22 0 -30 -6 -8 -6
-18 -1 -27 7 -11 13 -9 30 13 12 15 26 27 32 27 6 0 8 -3 5 -6 -4 -4 3 -20 14
-35 11 -16 16 -29 10 -29 -5 0 -17 10 -25 22 -18 25 -26 21 -30 -15 -4 -36 8
-54 27 -39 7 7 18 8 22 4 5 -4 5 -1 1 6 -8 13 -6 14 37 16 26 2 27 1 10 -11
-14 -11 -15 -15 -5 -22 11 -7 11 -9 -2 -14 -8 -3 -18 -2 -21 3 -4 6 -15 10
-26 10 -18 0 -20 -5 -15 -37 4 -24 3 -33 -3 -24 -7 10 -12 8 -25 -10 -9 -13
-16 -19 -16 -13 0 5 6 16 13 23 10 11 8 12 -10 6 -15 -4 -23 -2 -23 5 0 6 -5
8 -12 4 -7 -5 -5 3 4 16 9 14 21 24 27 23 6 -2 8 4 5 12 -7 17 -24 20 -24 5 0
-5 -5 -10 -11 -10 -5 0 -7 5 -4 10 3 6 -3 10 -14 10 -28 0 -34 15 -13 31 15
12 16 12 4 -2 -11 -14 -9 -17 11 -21 28 -5 47 0 47 14 0 5 -8 7 -19 3 -13 -4
-20 0 -24 17 l-6 22 -24 -22 c-13 -12 -27 -22 -32 -22 -5 0 0 7 11 16 18 15
18 15 -5 8 -16 -4 -21 -3 -17 5 4 6 14 11 23 11 25 0 6 14 -25 18 -14 2 -32 8
-38 13 -8 7 -14 6 -19 -1 -3 -5 -1 -10 4 -10 6 0 11 -4 11 -10 0 -5 -13 -1
-30 8 -16 9 -25 19 -19 21 6 2 2 12 -8 24 -16 19 -16 20 0 8 20 -15 23 -2 5
19 -11 12 -10 12 4 1 15 -11 17 -10 15 8 -1 13 -6 20 -14 17 -7 -3 -15 -1 -18
5 -4 5 -3 9 2 8 18 -3 33 1 33 10 0 5 -8 7 -19 4 -10 -3 -22 0 -25 6 -4 6 -2
11 4 11 6 0 8 5 4 11 -4 7 -12 5 -23 -6 -12 -13 -13 -19 -3 -22 6 -3 12 -9 12
-14 0 -6 -6 -7 -12 -2 -28 17 -42 11 -18 -8 l25 -20 -27 12 c-16 7 -29 18 -29
26 -1 7 -2 18 -3 25 0 6 -7 13 -15 16 -9 3 -11 0 -6 -9 7 -12 6 -12 -6 0 -11
10 -11 15 -1 18 6 3 10 9 7 14 -4 5 2 6 11 2 15 -6 14 -1 -5 25 -12 18 -27 32
-33 32 -6 0 -4 -8 5 -17 13 -16 14 -22 2 -43 -10 -19 -11 -29 -2 -40 9 -12 9
-13 -3 -3 -17 15 -22 43 -9 43 6 0 7 5 4 10 -3 6 -1 10 6 10 7 0 9 3 5 8 -7 7
-12 8 -38 11 -7 0 -3 8 8 17 15 13 16 15 2 10 -11 -3 -19 2 -23 15 -4 10 -13
19 -21 19 -19 0 -18 -16 1 -24 8 -3 15 -10 15 -16 0 -6 -7 -4 -16 5 -13 13
-19 13 -32 3 -10 -8 -13 -9 -9 -1 4 6 1 13 -5 16 -7 2 -9 8 -5 13 4 5 12 3 16
-5 7 -10 9 -9 14 3 4 9 3 15 -1 13 -4 -1 -7 3 -7 8 0 6 6 9 13 7 8 -2 11 1 8
7 -6 10 19 41 34 41 5 0 16 -10 24 -22z m802 -623 c-6 -18 20 -40 29 -25 3 6
10 8 15 5 4 -3 11 2 14 11 5 13 9 14 20 5 11 -10 17 -8 25 6 11 17 12 17 29
-2 22 -25 37 -28 63 -15 15 9 25 7 46 -9 14 -12 21 -21 16 -21 -5 0 -15 6 -22
13 -10 10 -12 8 -9 -8 2 -13 -2 -19 -11 -17 -9 2 -11 -3 -7 -15 3 -10 -3 -6
-15 10 -11 15 -26 24 -31 21 -7 -5 -8 -2 -3 6 6 9 4 11 -5 5 -10 -6 -8 -12 8
-26 18 -14 19 -18 6 -23 -26 -10 -32 -7 -32 17 0 28 -6 55 -15 63 -7 8 -1 -31
8 -45 8 -13 -12 -24 -27 -15 -20 12 -49 12 -45 0 2 -6 13 -10 23 -8 15 2 16 1
4 -7 -9 -7 -19 -6 -27 0 -20 17 -65 19 -59 3 3 -8 1 -14 -4 -14 -5 0 -9 11 -8
24 2 16 7 22 17 18 9 -3 12 -1 7 6 -4 7 -13 12 -21 12 -8 0 -17 5 -21 12 -4 7
-3 8 4 4 11 -7 17 6 13 27 -1 5 3 5 9 2 6 -4 9 -13 6 -20z"/>
<path d="M8027 7048 c4 -23 4 -23 -12 -3 -17 20 -17 20 -11 -5 7 -24 6 -24 -8
-6 -9 11 -16 14 -16 7 0 -7 -5 -9 -10 -6 -6 4 -10 3 -9 -2 3 -20 -2 -27 -11
-13 -6 10 -10 11 -10 3 0 -15 -26 -17 -35 -3 -4 6 1 7 11 3 14 -5 16 -3 11 11
-4 9 -3 15 2 11 5 -3 12 -2 15 3 10 16 -29 9 -41 -7 -11 -14 -12 -14 -13 4 -1
16 -4 14 -15 -10 l-14 -30 4 28 c2 15 -1 27 -6 27 -5 0 -9 -6 -8 -12 3 -28 -2
-38 -18 -38 -13 0 -14 3 -6 11 6 6 9 18 6 26 -4 11 -8 10 -19 -4 -12 -16 -15
-16 -23 -3 -8 12 -10 11 -9 -7 2 -14 7 -19 18 -15 12 5 13 3 3 -9 -10 -12 -8
-17 7 -27 16 -10 22 -8 35 10 8 13 15 17 15 10 0 -10 4 -9 16 2 19 20 24 20
24 1 0 -8 -6 -14 -12 -12 -7 1 -12 -6 -12 -15 1 -10 -2 -16 -6 -13 -5 3 -11
-1 -14 -7 -3 -7 -3 -2 0 12 6 24 6 24 -12 7 -16 -15 -17 -19 -5 -27 17 -10 49
4 58 25 6 17 63 -7 63 -26 0 -8 4 -8 13 0 10 8 19 7 33 -4 18 -13 18 -14 1
-15 -11 0 -15 -5 -11 -11 4 -7 10 -7 16 -1 6 6 17 8 24 5 8 -3 17 2 20 11 3 9
10 14 14 11 11 -7 23 12 15 25 -4 6 -13 7 -24 1 -22 -12 -44 1 -48 30 -3 18
-1 20 11 10 26 -21 55 20 35 49 -8 12 -9 11 -4 -6 3 -13 -1 -26 -10 -34 -14
-12 -15 -10 -10 12 4 14 2 29 -3 32 -6 4 -8 -3 -5 -16z"/>
</g>
</svg>
