<?xml version="1.0" encoding="UTF-8" standalone="no"?>
<svg
   version="1.0"
   width="1024.000000pt"
   height="1024.000000pt"
   viewBox="0 0 1024.000000 1024.000000"
   preserveAspectRatio="xMidYMid meet"
   id="svg10"
   sodipodi:docname="w.svg"
   xmlns:inkscape="http://www.inkscape.org/namespaces/inkscape"
   xmlns:sodipodi="http://sodipodi.sourceforge.net/DTD/sodipodi-0.dtd"
   xmlns="http://www.w3.org/2000/svg"
   xmlns:svg="http://www.w3.org/2000/svg">
  <defs
     id="defs14" />
  <sodipodi:namedview
     id="namedview12"
     pagecolor="#ffffff"
     bordercolor="#666666"
     borderopacity="1.0"
     inkscape:pageshadow="2"
     inkscape:pageopacity="0.0"
     inkscape:pagecheckerboard="0"
     inkscape:document-units="pt" />
  <metadata
     id="metadata2">
Created by potrace 1.16, written by Peter Selinger 2001-2019
</metadata>
  <g
     transform="translate(0.000000,1024.000000) scale(0.100000,-0.100000)"
     fill="#000000"
     stroke="none"
     id="g8">
    <path
       d="m 8085,8156 c -162.4479,-40.9783 -266.2568,-155.5872 -156,-127 48.0219,50.1655 -72.3972,0.2241 -46.5,18.25 8.069,-72.5171 -38.5255,-194.7751 -66.5,-59.25 -81.2308,-31.4824 -144.1658,-72.0709 -86,10 -71.8144,18.1808 66.7932,-169.7282 -74.75,-22.375 46.8484,56.3353 -79.6528,-77.1584 -140.875,-141.5 C 7470.6037,7808.2811 7342.2535,7697.6403 7390,7725 c -14.862,-33.2059 -203.9678,-309.0273 -156,-201 -21.8592,0.5462 -143.937,-431.5097 -79.375,-240.875 -20.868,-46.7745 -20.3208,-148.5219 -26.625,-135.625 -21.5933,-73.1993 -17.1319,-213.8991 -10,-170.5 60.593,26.8121 39.9769,-196.2591 45.875,-119.5 0.3088,-169.3223 156.3253,-239.2659 76.125,-242.5 98.2203,-117.6772 109.5926,-41.5737 61,1 17.1784,40.6346 -75.3,35.2714 13,-80 -71.2367,-5.4653 116.1183,-121.8399 157,-133 -1.6302,-42.6938 71.4274,-34.4958 95.25,-6 -33.2616,-205.3382 212.9896,-154.0193 191.75,-97 -26.2318,3.0429 -93.2027,-63.7072 68.375,-58.5 72.0823,52.3425 329.5259,-7.0633 182.75,12.125 108.2104,21.7015 302.1168,73.5649 186.875,61.375 46.4009,2.8261 48.1219,44.9327 121.625,45.625 85.2552,64.5522 262.3671,190.1932 160,105.75 10.4819,-29.1705 228.412,-33.0019 121.375,3.625 85.068,-10.8404 47.5617,-37.8869 181,11 154.8066,-14.3275 339.1804,20.5393 246.75,19 -39.3011,-98.1112 -33.6728,-167.4886 27.25,-192 37.9695,-94.5054 -34.712,-222.8335 -6,-144 -27.7559,-76.7796 -50.6116,-237.2442 -33,-154 -71.6532,-120.5717 126.3326,-33.5503 -45,-132 52.9495,-25.5529 9.6697,-202.9096 -4.25,-132.5 8.7843,-95.9978 -33.2513,-350.8006 -46.5,-255.5 -59.9779,-40.0771 -164.7278,-280.2406 -112.25,-204 -5.8362,-59.3082 -19.3925,-220.1586 -57.5,-153.625 -102.9727,-30.5539 -221.8237,-223.3683 -173.125,-178 -68.8484,-93.8379 -134.6837,39.975 -70.625,34.875 -69.715,-197.6039 63.7169,229.1458 -68.75,-137.25 -13.6657,-50.7749 8.6178,33.4484 -72,-62 -44.9396,-58.0557 -173.98,-279.1618 -163,-208 -39.0268,28.6556 -118.0881,-52.026 -81,-75 -31.6521,-53.0112 -125.8931,-246.5971 -95,-162 22.5145,-15.2954 -467.9738,-1178.9453 -127,-361 -20.1809,-85.7271 -24.9627,-173.7893 -24,-194 -18.2464,37.3492 -33.6436,-140.8063 -1.625,-160.75 7.8786,-130.3601 35.686,-55.9264 9.625,-125.25 9.1843,-70.8044 -30.6958,-151.5933 23,-115 63.3464,-39.6375 148.0702,-26.9104 140,6 18.1262,-99.1712 -68.5636,-173.6169 -31.125,-189.125 -112.2095,-6.8012 67.8098,57.7795 -53,121.75 87.2506,101.3693 107.1578,-43.5006 -33.875,-56.625 -77.1669,-59.4747 -88.0093,-8.1986 -23.4531,-106.625 -15.5468,-46.8532 50.837,-8.5287 -12.5469,-80.375 77.3592,3.9112 18.7398,-204.071 -32,-167 -77.2748,31.3938 -235.0249,-66.9291 -137,-69 -52.1259,-72.1185 -212.0222,-93.0415 -138,-8 -2.7597,36.7155 19.2224,75.7567 -121.875,18 -37.9137,77.3488 -155.013,-9.9548 -106.125,1 -4.8554,-4.3713 -39.2705,-146.8669 -89,-71 -41.899,102.5227 -147.6019,178.8276 -124.25,53.625 -43.4858,18.2224 -130.149,228.4591 -105.875,176.625 81.4042,-86.4775 101.5941,-150.1339 126.875,-163.5 17.725,-2.4586 75.5047,74.8532 90.25,42.25 72.6085,32.6626 -104.014,34.0363 -39.375,27.125 -110.1836,-42.6113 -195.6516,149.9273 -101.625,80.875 -49.4583,-51.2569 -210.7468,175.7612 -99,141.25 -21.709,-23.4064 -127.4429,27.123 -137.75,84.125 10.9766,55.9248 -50.7264,193.8585 -107.375,146.75 -141.4802,-7.8179 -181.2204,79.5482 -129.375,62.125 91.7428,-34.6953 -89.6452,-99.1011 -180.5,-6.25 100.6572,-71.7351 -111.6405,68.6332 -63,60 117.8989,-0.4433 -0.1851,60.7348 13,84 21.3879,149.6668 60.4517,-72.3995 79,-33 -9.183,-115.6504 -91.8673,-26.56 -2,15 -163.2818,234.4139 -6.5005,-54.9022 -154,130 -55.7374,37.8028 -84.455,180.9438 -80,28 77.803,137.1925 12.1282,276.4835 -43,228 18.345,9.4945 -6.8253,81.5332 -66,83 8.8583,35.158 98.6367,14.451 100.5,-47.375 24.3888,63.8671 -150.6431,57.2351 -89.5,64.875 -100.4198,225.3644 -4.9862,155.6003 -3,117.5 -124.9003,168.2755 -9.6169,171.9913 -29,127 -40.8821,114.4414 -185.25,105.4683 -115,103 4.7695,49.8549 42.8599,377.436 53.625,265 67.1744,105.3199 20.2207,185.5546 7.375,168 -6.7135,-15.2722 -79.1737,227.2444 -28.875,205 38.5733,64.3452 -32.0017,68.6961 -36,130 -63.1776,160.7995 30.299,-34.9672 -7.125,-34 -41.0003,-9.1786 139.9599,-92.1779 -35,-53 1.7506,125.1591 -33.4215,291.3316 -48,164 88.3497,-39.0916 -28.0798,13.2109 1,98 69.9724,189.7467 -44.2331,198.0818 -42,123 170.7312,-46.8313 -162.8531,56.0357 30,47 -59.2361,20.0213 -115.444,205.7653 -103,153 45.103,63.0263 -140.1286,168.9743 -73,167 147.8893,40.5215 46.8702,273.9617 10,188 -1.3209,71.4243 2.3805,-24.9886 -47.625,106.875 -96.1717,-25.1524 -142.0229,141.7434 -83.375,98.125 144.599,3.8741 79.4145,117.8038 19,85 -41.8004,-15.587 -114.2939,216.0021 -41,144 -19.7327,-70.1967 -164.1724,57.5819 -5.75,22.5 -22.5017,118.2485 -41.2894,103.6447 -54.25,142.5 -22.2559,178.1542 71.4086,4.1158 8.125,176.875 34.6374,99.6905 98.29,199.9464 30.875,134.125 -30.1408,109.3205 34.2963,321.8603 2.25,202.75 -146.2691,-44.4194 -134.9315,81.0545 -71.25,67.25 -20.889,145.9957 -160.4027,-73.8053 -124.375,-13.75 -28.3633,7.9571 -193.0992,-192.2429 8.375,-36.25 -102.9858,-48.1038 -215.8562,-12.9704 -152,-77 -19.1513,-17.5137 38.3783,73.9799 8,59 -81.2741,2.3064 -220.4763,135.6777 -89,122 102.6805,-212.8057 -644.6261,48.1285 -167,-101 -32.6349,-61.7723 -67.7536,-186.3668 -49,-125 -58.5317,5.6508 -35.7971,-66.1566 -19,-87 -32.8515,4.2999 65.1145,-265.1332 56.625,-209.75 97.7607,-162.9073 127.6375,-225.1794 116.875,-180.875 88.3509,46.5583 75.8337,-183.7486 2.5,-27.375 -40.839,149.2079 32.3833,-251.2335 31,-147 103.0438,57.5016 64.7609,-307.4259 50.75,-88 -39.123,-34.7762 -17.1596,-207.4324 7,-139.875 56.9376,-18.8858 120.7833,-262.8067 64.25,-239.125 -47.9916,-150.7649 -15.139,-455.1226 11.625,-323.625 56.5903,28.3632 11.41,-202.0926 32.375,-152.375 -20.6867,-73.3917 -67.8181,-256.5112 -12.5,-209.375 43.0438,-100.5129 40.4244,-390.4336 17.375,-245.875 3.6955,-74.5762 -30.053,-373.0282 7.125,-345.75 -7.6998,-124.9154 13.4236,-315.6199 12.125,-319.625 -6.4698,-37.4799 -147.6009,-3.8771 -91.25,-50.75 12.0594,-185.0599 -41.8027,-194.1167 -44.875,-44.625 12.6883,11.32 -212.6403,1.2943 -145,0 34.8114,-42.6254 -154.8032,0.4559 -106,-1 20.6499,-76.4588 -165.5322,-190.8735 -189.625,-124.25 -25.0013,34.2431 -123.7228,-19.1985 -102.4272,-30.821 -20.4163,-35.1324 -26.9676,-81.2675 -62.9478,-47.929 -36.287,-41.0362 -150.5596,-94.4381 -108,-74 -47.7352,-94.3333 -74.7192,-140.3324 -69,-121 -63.7637,-9.8664 -96.7106,-31.453 -47,-74 -83.8473,-108.6077 -51.0306,-132.952 -105,-110 -31.3101,-140.0665 -60.9918,-138.3881 -57.375,-108.625 5.0829,-89.6819 187.4218,-108.6914 52.375,-107.375 16.3599,-56.6847 88.4345,-90.6929 90,8 -49.7976,-167.3247 -55.0189,-0.2991 -92,-100 -20.1156,3.874 -67.7749,-118.0362 -70,-105 -67.4795,-46.3803 -166.6375,-91.7789 -122,-138 -46.4493,-22.876 -209.3431,-72.5925 -123,-95.125 73.509,135.6618 -106.5484,223.9404 -81.5,162.75 -7.3231,-30.5953 -70.6586,-209.0437 -73.5,-118.625 -52.3219,51.261 -121.0279,-92.1608 -104,-77 -61.6087,14.4307 -81.8207,199.3277 -56,146 27.8835,76.4917 -66.663,-81.9357 -70.875,-3.125 -43.0342,98.5145 -34.5709,96.1122 -19.125,106.125 26.5357,-42.643 32.8799,39.888 -87.875,72.375 -13.2062,141.5642 -267.5722,62.2208 -130.75,109.75 100.8583,101.8402 24.0236,70.68 -35.875,173.5 96.2483,2.1779 -57.1599,172.367 -19.5,106.375 -76.1111,117.4085 -38.4898,226.7204 -48,135 -40.8597,54.255 -102.3647,116.8373 -53,93 57.8092,20.7408 50.4285,182.1605 21,122 -36.6089,57.8829 -53.703,229.7048 -39,172 13.5425,65.9561 -82.4218,35.8755 -69,76 -3.1007,-101.2274 -130.5804,113.6691 -62,105 14.9289,117.0802 7.2589,321.3344 19.375,168 -103.3659,-44.7047 -212.824,79.0829 -88.375,103 -51.0375,-100.182 -27.9326,169.0215 -33,75 -9.0025,92.8166 -6.5222,323.7113 24,245 -9.8254,57.3217 -15.0468,129.764 -29,187 -76.0033,19.4216 -163.0724,216.6721 -60,170 -7.0353,63.1507 -129.2179,148.2133 -51,127 112.9919,40.7189 -66.5338,74.2414 -21,91.25 25.2145,140.7657 -56.4903,470.9976 3,363.75 -50.1394,-68.6556 -39.4646,170.8548 -67,77 6.752,60.6293 -12.4434,45.3418 -27,30 -193.5913,183.6413 124.1238,-15.4313 -87,163 -43.0836,-36.2633 -70.4849,169.7209 -101,117 2.1733,-17.2384 -6.5218,61.7115 -73,76 -22.4739,24.5029 -28.3927,271.0727 -62,167 -1.2126,108.6141 -154.0052,138.943 -120,132 4.8863,-62.4109 -50.642,-108.6823 40,-107 -64.0855,43.9575 -29.2219,234.3464 -44,149.875 -88.0768,43.9919 -4.4572,-87.5437 -43,-31.875 -64.4498,-31.6822 54.6888,57.5007 -50.25,30 -69.0523,90.3812 -228.5237,203.4853 -176.5,117.5 -133.1946,157.815 62.8567,102.0756 34.75,73.5 -85.6371,81.1189 -79.225,54.7874 -114,41.125 -94.0836,-42.5894 -138.7738,32.0733 -92,-7.125 -71.8737,48.2019 141.0751,1.4409 -26,95 -46.7244,65.8789 -112.6191,128.346 -84,22 -34.0686,-35.335 -237.2227,-19.1586 -158,0 -47.0587,51.7775 -114.1858,-100.4785 51,67 -42.8834,4.5191 -163.6846,11.9204 -160,34 -171.0994,4.9544 -86.2543,-95.0706 44,-58 -102.8304,73.8464 -226.1214,106.3583 -183,98 69.3101,-90.5381 -63.9465,-23.7402 -27.25,-34.625 -5.6225,-34.1189 -144.1627,22.972 -173.875,15.5 -19.0937,67.3517 5.9359,166.8929 31.0685,90.428 -73.0084,-29.6903 -220.14519,19.9719 -138.8185,-22.053 -55.31514,-96.443 -89.23359,-7.376 -100.125,-9.25 -63.99954,-96.4239 -230.65706,68.9141 -153,55 -4.68819,19.6996 -71.95367,86.3581 -78.875,57 -57.1758,45.8534 -162.22013,-16.4199 -173.125,-22 -181.93767,-54.5735 39.83785,13.3184 -141,-95 -45.74184,-22.4595 -120.69998,40.3137 -21,-94 -28.28557,-90.3227 -100.06604,-130.9507 -25,-102 -53.04371,-75.6636 107.00699,-263.7432 -25,-179 -47.33387,52.7244 -3.88492,-43.3283 49.375,4.625 73.59614,-19.0897 162.4188,32.6761 114.625,39.375 10.85349,-36.8991 148.11991,-20.9009 54,-75 59.76733,-89.9636 -23.28294,16.9542 110,-24 -60.18609,46.6947 -15.29027,115.4019 46,38 84.32823,66.2241 156.25593,121.177 105,2 61.4398,43.5411 188.27203,-40.3968 183.625,-31.125 C 849.03328,6710.0134 1018.1237,6666.2654 990,6720 c 99.1631,-29.084 -151.18374,39.8426 -98,64 133.7557,43.4562 291.4907,-123.5737 188,-62 -53.1389,-88.1044 73.0879,-78.5428 48,1 86.6826,-161.9853 -351.96514,60.29 187,-155 49.7192,46.6713 118.8737,-26.0856 96,5 59.5714,-19.5527 82.7891,-232.1742 38,-117 -93.1715,81.5734 41.3621,85.4649 64.5,-43.75 -82.5274,67.7224 -107.1817,-53.9195 6.5,-120.25 73.4144,-82.2692 90.1833,-211.0119 143,-174 -6.5572,93.6392 65.0398,-147.7634 83,-50 -45.9137,-41.5012 -67.7092,-188.4403 45.875,-136 43.3156,-21.0074 104.9647,-115.8835 104.125,-145 -3.752,-89.8968 -57.0751,-315.6898 -1,-236 42.5291,3.8626 60.9939,-159.0659 49.125,-159.625 -69.2366,-72.8795 11.5096,-280.5762 21.875,-246.375 -11.1331,-51.1284 40.6691,-315.8865 41.375,-232 19.2853,-111.2798 -25.3832,-227.24 12.625,-154 -80.5573,-115.9522 -76.8679,-180.3365 3,-71 -96.2106,-88.7169 59.8129,-234.1958 52,-206 -52.6581,-79.3291 77.2669,-196.5185 75.375,-151.25 58.671,27.0135 46.4111,-190.6548 54.75,-128 -0.9097,-16.4851 89.0819,-296.117 50.875,-232.75 8.8006,-21.2359 -11.0112,-167.8524 14,-109 30.054,-46.9607 41.0357,-175.3235 53,-121 -11.3833,-15.1018 22.3691,-160.5413 18,-123 42.8795,-52.5729 111.7327,-371.6368 68,-242 85.9492,-216.8991 60.8375,-222.5803 66,-165 27.1637,4.8973 12.5674,-209.2125 28,-136 59.4875,-15.3776 161.8075,-217.0332 87,-139 9.1052,37.8381 158.2197,-97.7602 118.375,-123 -66.7414,-37.8241 77.4804,-170.5362 56.625,-131 91.4416,-3.5105 163.3551,-66.6902 82,-68 64.0169,-58.5478 58.3237,-130.1365 103,-133 -80.6203,125.0797 197.0885,-217.3691 115,-127 -8.981,84.7142 164.6728,-168.0129 102,-15 -26.9486,-127.9695 135.7861,-136.0396 65.875,-150.5 45.255,75.2939 113.7518,86.6312 95.125,86.5 -37.7092,-109.1182 147.2862,-154.4731 99,-57 21.735,-124.2382 -1.9385,-136.9913 73,-56 170.3504,-18.8075 269.857,-84.8233 183,-38 47.9305,-3.2472 190.4943,44.2876 153,35 -33.1375,1.7096 -28.812,100.175 33,20.5 75.8796,-2.1509 308.4113,57.4622 151,36.5 48.514,54.2327 69.196,146.6165 94,72 144.9207,-36.0196 203.7514,28.4418 163,67 58.5304,0.8243 149.364,21.796 92,40 43.2589,51.1174 199.6093,213.086 146,140 29.818,-15.2703 479.0267,632.9514 204,252 40.9912,98.9887 150.6115,265.7641 121,184 15.4119,23.2163 120.8434,257.404 81,182 55.1226,41.9156 185.9517,259.0492 125,183 37.9768,58.7802 185.2323,311.4203 154,215 34.8212,-3.7977 39.7054,112.1431 53,88 -29.9126,-7.1786 40.6364,121.303 47.75,87.625 73.0237,9.5355 236.6381,-13.067 97.25,16.375 18.0767,-30.88 130.0523,-113.3611 50,-136 72.1921,78.9749 104.3957,-28.7737 40,-98.125 63.5978,65.5548 130.3539,-52.8376 55,-86.875 -19.0895,-34.1961 120.1935,-206.7227 74,-149 154.656,-82.3252 -80.1803,-77.963 129.375,-74.5 -119.3558,-119.4572 116.1961,-147.3975 86.625,-100.5 -110.1907,-46.5374 129.1384,-170.0536 39.625,-105.625 -27.1616,0.514 -21.2815,-63.3123 8.375,-49.375 81.2556,-19.2438 217.5616,-30.5172 158,-28 -89.8299,-78.9196 19.9876,-109.0868 55.875,-128.375 -101.6193,51.0665 105.8141,-164.0727 100.125,-123.625 122.7528,-0.4074 201.8528,-53.4264 159.75,-20.25 117.2539,-22.7189 91.9743,-118.2928 -21.25,-65.875 74.4224,12.4874 11.8148,-84.1558 45.125,-29.25 74.542,-33.1557 137.3454,96.1696 116.625,-11.625 -49.8234,-4.5292 -78.2849,-78.4285 6.75,-54 -15.6941,-66.1724 157.8887,-74.145 106,-48 -89.2655,-106.1265 140.9923,110.3927 -15,-69 117.8488,-38.8902 218.432,-178.1953 195.875,-102.75 18.3845,31.5714 27.4796,-122.7886 58.375,-40.125 -51.4381,-19.2712 53.2069,47.2883 60.75,34.875 -11.5717,-154.707 200.0046,-140.565 115,-88 54.3958,70.0753 103.6983,-53.1056 20,-42 54.3886,47.4775 144.7023,-85.4184 72,-39 102.2301,-15.5657 305.2794,149.934 192.875,41.625 -112.4983,-115.4356 63.3466,-50.9451 67.5,-67.25 -23.5401,161.3892 134.1243,21.3131 77.625,-6.375 -56.3022,91.4786 175.9872,-19.9796 125.75,36.75 59.4861,91.2106 -271.9871,61.397 -151.75,-1.75 58.5951,-58.7186 137.9587,-45.483 93,-30 123.0063,-35.0171 244.1183,7.5925 167,36 225.143,-20.5347 -132.3128,93.9113 103,28 -43.3675,56.3127 288.1403,88.4549 174,97 -22.5916,5.4948 101.5756,37.3326 75,63 44.0951,69.6359 193.9437,196.4049 124,126 -29.176,19.6185 170.3057,222.4818 135,161.75 -126.3708,-94.07 67.765,165.6068 53.125,73.75 51.7707,66.6367 221.2482,241.0623 92.875,117.5 -24.798,12.9291 -130.5647,15.1944 11,97 87.3832,66.5717 190.2324,212.3825 138,164 -11.0512,120.916 2.0425,342.0825 31,221 56.4895,8.0044 35.201,-18.4057 -30,70 -13.095,-94.7434 -9.7117,122.983 -36,95 11.0473,58.6409 48.2331,170.2281 9.5,142.5 -24.4783,58.8723 -10.0621,251.8883 -3.5,177.5 6.5491,52.0362 34.8775,246.9963 15,154 21.908,108.1241 86.845,307.326 55,187 30.8757,108.7674 100.3619,238.327 92,177 -2.1758,39.8732 210.9806,330.888 126.125,250.125 -26.3317,-1.2179 51.6641,180.9169 66.125,105.875 95.1225,49.7102 221.9507,234.2596 151.75,186 69.6187,115.7981 241.0251,481.4474 197,382 45.8098,102.8387 122.4182,297.2347 104,223 92.9024,78.1274 107.7382,182.2572 120,178 32.4959,65.4323 111.8214,242.4584 96,202.25 34.1623,102.8821 102.585,287.1403 73,209.75 22.3016,48.9701 88.1067,270.2625 57,182 31.4399,123.2864 33.1792,211.0569 23,256 31.3646,-8.8544 13.9318,173.1654 14,161 21.0278,78.0564 23.7868,311.3223 13.375,184.125 -5.0559,6.4329 9.0846,162.5407 -1.375,128.875 -98.9739,-27.5371 -198.4945,217.1595 -72.25,145.25 -33.8437,166.9307 40.8401,113.891 55.25,-15.25 -101.7042,205.0078 -87.457,277.407 -53,169 3.7627,119.6218 -49.4415,70.625 -54.125,53.25 -87.291,12.5075 125.7331,-8.534 47.375,49.625 -1.8156,30.079 2.6726,76.6612 -76.125,69.625 -194.185,119.5008 42.8968,58.5593 22.875,11.5 -8.4347,86.3397 54.9975,83.5477 -55,112 134.0711,-104.6323 -150.278,208.7398 -78,81 20.5915,117.9898 47.3126,87.157 48.875,-0.25 30.0606,89.8616 -147.981,130.608 -121.875,117.25 -13.5211,-4.6873 -101.5964,88.3384 -41,69.125 -3.0802,-56.7164 -240.7014,179.9783 -154.25,117.625 -51.7573,73.5851 63.4832,-189.8061 -40.75,-77.75 23.3777,60.4619 128.5758,-91.7093 136.375,-113 139.4603,20.439 -42.4352,92.7638 -50.375,9 -84.6896,72.4225 -182.4889,183.7413 -114,116 -145.6059,0.2624 -231.7992,140.5505 -113,95 -58.053,73.6024 140.7768,93.1003 -23.875,64.125 73.3156,7.6079 135.7046,-151.5806 80.875,-78.125 -2.997,53.9729 -217.363,226.846 -78,141 -76.8003,26.3597 -258.3507,-12.1532 -187.25,17.375 -137.3487,192.9813 14.3098,2.4627 19.25,-43.375 -31.8727,-94.2097 -186.5103,-78.516 -121,-33 -59.1557,101.4213 -101.7259,26.5483 -98,82 15.4534,90.5245 136.6809,35.5205 86.875,5.875 25.4535,14.5564 -124.8615,119.8848 7.125,38.125 -43.6605,72.8568 -400.8563,73.9014 -236.875,47.125 -32.9442,-38.7377 -176.7626,-29.9839 -160.125,-1.125 139.6857,-37.3702 -85.9174,-189.501 -21,-129 -97.3194,98.3144 -26.722,1.1661 -130.625,63.75 87.7674,150.6917 -83.3592,25.2775 -105.375,75.25 z m 565,-26 c 31.0274,-17.9014 -163.9934,-33.0663 -127.375,-58 46.6977,68.4286 27.9942,-8.5994 -6.625,-21 -45.4785,-95.7743 -56.8015,85.0744 -84.75,28.25 64.4878,47.3933 142.4407,51.5633 218.75,50.75 z m -693,-822 c 155.9325,-22.4634 277.6105,-31.8694 238,-29 29.8052,-27.1714 197.2164,-54.0374 135,-18 -48.7335,80.7264 189.4246,68.0917 173,1 95.9898,-89.2622 -5.2447,-181.0217 21,-161 -139.6917,120.5026 -81.7619,114.6467 -55,88.875 -11.1195,59.786 135.7009,-87.7633 1,-69.875 -80.664,23.4009 -195.3788,-113.6267 -170,-70 22.5058,125.8063 16.9417,-54.2939 -22,-24 103.3753,-43.1978 7.7627,-111.5306 -78,-52 -184.177,26.0113 -131.0102,-109.5426 -72,-61 42.086,-90.784 -186.2521,-138.2524 -111,-28 -47.9051,42.4405 -330.3368,-33.1521 -197,35 31.4571,24.2657 119.7763,169.6105 -11,150 -92.205,-13.6278 61.4888,77.7522 29,94 54.6893,98.817 132.9277,179.7154 73.125,100.75 45.3356,28.5927 -27.4148,49.1583 45.875,43.25 z M 6604,3458 c 110.965,-161.1199 155.8756,-81.8222 186,-167 16.4002,26.8501 -80.8075,-19.1653 -2,-34 3.4466,-91.404 216.8981,-214.5874 133,-93 -9.3621,-82.1074 -38.2124,-250.1181 69.875,-125.625 192.4396,39.4547 8.1637,-93.4528 -4.875,-79.375 -23.2001,0.4301 -111.6949,75.1187 -80.125,105.75 103.4644,35.8334 -33.2912,123.0533 -53.875,63.25 -139.0529,-4.178 -147.7626,155.6465 -105,111 -4.2975,103.8586 -132.0073,96.608 -78,8 -69.6192,125.699 -38.6978,221.1969 -39.625,13.25 -58.4862,146.7047 -7.4627,167.1345 -107.375,117.75 -27.6402,-4.2456 30.9112,116.333 82,80 z m 802,-623 c 50.2489,-22.2448 154.9949,-128.0591 224.625,-54.125 -103.9469,23.6183 -130.4098,45.9096 -95.625,10.125 -71.5764,-30.2 -202.4633,114.0114 -161,31 20.9335,-9.5803 14.2893,72.0868 32,13 z"
       id="path4" />
    <path
       d="m 8027,7048 c 10.1324,14.2312 -62.0643,63.7186 -98,-3 -31.785,17.0369 -93.2254,62.0573 -96,2 -119.1953,-56.9445 90.4021,-44.0191 67,-42 -152.4078,-63.8299 213.8182,-117.4295 119.625,-72 52.0542,-48.7813 23.2959,58.7346 23.625,72.7188 41.8924,119.0837 -16.9437,-36.2537 -16.25,42.2812 z"
       id="path6" />
  </g>
</svg>
