<?xml version="1.0" standalone="no"?>
<!DOCTYPE svg PUBLIC "-//W3C//DTD SVG 20010904//EN"
 "http://www.w3.org/TR/2001/REC-SVG-20010904/DTD/svg10.dtd">
<svg version="1.0" xmlns="http://www.w3.org/2000/svg"
 width="1024.000000pt" height="1024.000000pt" viewBox="0 0 1024.000000 1024.000000"
 preserveAspectRatio="xMidYMid meet">
<metadata>
Created by potrace 1.16, written by Peter Selinger 2001-2019
</metadata>
<g transform="translate(0.000000,1024.000000) scale(0.100000,-0.100000)"
fill="#000000" stroke="none">
<path d="M7086 8495 c-3 -8 -10 -15 -16 -15 -6 0 -8 5 -5 10 3 6 2 10 -4 10
-5 0 -9 -9 -8 -20 1 -22 8 -25 24 -9 7 7 12 6 16 -3 4 -12 -34 -18 -53 -8 -5
2 -34 6 -83 9 -10 0 -16 5 -12 10 3 5 1 13 -5 16 -6 4 -10 3 -9 -2 5 -27 -2
-47 -10 -33 -6 8 -7 18 -4 24 3 5 1 6 -5 2 -6 -3 -9 -18 -6 -31 2 -14 0 -25
-6 -25 -5 0 -9 3 -9 8 4 23 -4 32 -25 30 -17 -2 -22 -7 -19 -23 l4 -20 -13 20
c-14 22 -30 26 -45 12 -4 -5 -3 -8 2 -7 20 4 35 0 35 -11 0 -6 -5 -7 -12 -2
-7 4 -17 8 -23 9 -29 5 -41 10 -47 19 -5 6 -8 5 -8 -3 0 -7 -5 -10 -12 -6 -6
4 -8 3 -4 -4 3 -6 15 -9 26 -7 11 2 20 0 20 -6 0 -5 -12 -7 -27 -5 -36 7 -48
-3 -26 -21 17 -13 16 -13 -4 -3 -13 6 -23 8 -23 4 0 -3 -7 0 -16 7 -14 11 -19
10 -33 -6 -9 -11 -23 -21 -31 -23 -9 -1 -5 5 8 15 l22 18 -22 14 c-21 13 -22
13 -9 -3 13 -16 13 -18 0 -16 -28 4 -39 0 -39 -15 0 -8 -5 -15 -11 -15 -5 0
-7 5 -3 12 5 7 3 8 -7 2 -8 -5 -21 -9 -29 -9 -8 0 -21 -4 -27 -8 -7 -5 -13 -5
-13 -1 0 3 -11 -1 -24 -9 -18 -12 -26 -13 -37 -4 -11 10 -11 9 0 -5 15 -19 0
-48 -23 -48 -6 0 -3 5 8 11 19 11 7 29 -19 29 -5 0 -5 -4 2 -8 9 -6 6 -15 -13
-35 -32 -35 -39 -35 -17 1 17 25 17 26 0 13 -9 -7 -17 -10 -17 -6 0 4 -6 2
-13 -4 -8 -6 -18 -7 -22 -3 -5 4 -5 1 -1 -6 5 -9 1 -15 -13 -19 -26 -7 -26
-12 -3 -30 9 -8 11 -12 5 -8 -29 14 -50 12 -74 -7 l-24 -20 28 16 c16 10 27
12 27 6 0 -6 5 -8 12 -4 7 4 8 3 4 -4 -4 -6 -14 -8 -24 -5 -14 6 -15 4 -4 -9
9 -11 10 -18 2 -23 -6 -4 -9 -1 -8 7 2 9 -6 12 -25 10 -21 -2 -27 0 -21 10 4
7 -2 5 -13 -5 -11 -9 -23 -14 -27 -10 -4 4 -4 0 -1 -9 4 -9 13 -14 21 -11 8 3
11 10 7 16 -4 6 -1 7 7 2 10 -6 10 -11 -3 -20 -9 -7 -14 -15 -10 -18 3 -4 -4
-5 -16 -2 -15 3 -21 -1 -21 -13 0 -15 -2 -15 -10 -2 -15 23 -12 29 11 25 17
-3 19 -2 9 10 -13 15 -59 -8 -76 -38 -4 -7 2 -3 14 7 12 11 22 14 22 8 0 -6
-9 -16 -20 -22 -12 -7 -17 -16 -13 -28 7 -18 5 -17 -17 12 -9 12 -10 17 -3 12
9 -5 11 -2 6 10 -5 14 -7 14 -14 1 -6 -9 -20 -14 -36 -12 -25 2 -26 2 -8 -11
14 -10 22 -11 32 -2 11 9 12 7 7 -7 -6 -14 -4 -16 6 -10 9 5 11 4 6 -3 -5 -9
-13 -9 -26 -2 -23 12 -33 13 -26 1 3 -5 0 -9 -7 -8 -32 1 -48 -4 -42 -13 4 -6
16 -8 28 -4 12 3 19 3 15 -1 -11 -11 -59 -15 -52 -4 3 5 -1 9 -8 9 -8 1 -6 6
6 15 10 8 22 12 27 10 4 -3 10 -1 13 4 7 10 -6 9 -41 -3 -22 -7 -26 -27 -10
-53 4 -7 1 -10 -10 -9 -12 2 -17 11 -16 27 2 17 1 19 -5 8 -4 -9 -15 -15 -24
-14 -12 2 -15 -3 -13 -17 4 -19 3 -19 -20 -4 -17 11 -26 13 -31 4 -4 -6 -3 -8
4 -4 6 3 13 2 17 -3 6 -11 -29 -34 -38 -25 -5 6 -28 -30 -24 -37 1 -2 -4 3
-12 11 -12 13 -13 13 -7 -3 6 -20 -19 -54 -28 -38 -4 5 0 11 6 14 10 3 10 8
-1 18 -8 8 -11 9 -8 3 8 -14 -17 -37 -28 -26 -5 4 -5 2 -2 -4 8 -14 -20 -27
-35 -17 -6 3 -8 1 -5 -4 7 -11 -16 -37 -24 -28 -11 10 -7 -40 4 -55 6 -8 2 -6
-11 4 -13 12 -22 14 -22 7 0 -7 -4 -10 -9 -6 -5 3 -12 -4 -16 -15 -3 -11 -11
-20 -16 -20 -5 0 -9 -5 -9 -11 0 -5 4 -7 10 -4 6 3 7 -1 3 -10 -3 -9 -9 -13
-12 -8 -5 7 -26 10 -33 3 -10 -7 -38 -6 -38 2 0 6 7 8 15 4 13 -4 14 -2 5 14
-6 11 -13 20 -16 20 -3 0 -2 -4 1 -10 3 -5 1 -10 -4 -10 -6 0 -11 -9 -11 -21
0 -13 -4 -18 -12 -14 -7 4 -4 -1 6 -9 17 -14 15 -20 -5 -18 -4 1 -5 -8 -2 -18
3 -13 0 -20 -8 -20 -12 0 -12 -2 0 -9 11 -7 8 -10 -9 -16 l-23 -7 24 -14 c13
-8 17 -14 9 -13 -32 3 -51 -1 -45 -11 3 -5 11 -8 18 -6 7 1 9 1 4 -1 -4 -3 -4
-9 -1 -15 4 -6 -2 -6 -14 1 -18 10 -20 8 -17 -8 2 -11 -3 -25 -11 -31 -7 -7
-12 -16 -9 -19 2 -4 -2 -8 -10 -8 -11 0 -12 4 -4 13 7 8 6 14 -2 20 -7 4 -9 3
-6 -3 4 -6 0 -16 -8 -23 -11 -9 -12 -17 -4 -31 7 -15 7 -19 -3 -17 -7 2 -12
-3 -10 -11 2 -11 0 -12 -10 -3 -11 8 -14 7 -15 -8 -1 -13 3 -17 15 -13 12 3
13 2 4 -4 -6 -5 -18 -17 -25 -27 -12 -16 -14 -16 -14 -2 0 9 4 16 9 16 5 0 6
5 2 11 -11 18 -22 -9 -19 -47 2 -39 2 -40 -16 -17 -9 11 -10 14 -2 9 9 -5 11
-2 7 9 -6 14 -8 14 -20 -2 -11 -15 -11 -20 3 -30 25 -19 1 -16 -27 4 l-25 16
24 -26 c14 -15 19 -27 13 -27 -7 0 -12 4 -12 9 0 5 -7 11 -15 15 -13 4 -13 2
-5 -14 7 -13 7 -21 -2 -26 -6 -4 -8 -3 -4 4 3 6 2 13 -4 17 -10 6 -13 -3 -13
-37 0 -14 -3 -15 -19 -7 -22 12 -39 4 -32 -14 2 -7 -5 -22 -17 -33 -13 -10
-19 -13 -15 -6 4 6 2 12 -3 12 -12 0 -14 -13 -4 -24 13 -12 11 -33 -3 -33 -11
0 -11 3 -1 15 10 13 9 14 -9 4 -12 -6 -24 -8 -28 -5 -3 3 -6 2 -6 -4 0 -5 10
-15 23 -22 l22 -11 -22 6 c-19 4 -22 2 -17 -13 5 -15 4 -16 -5 -3 -10 13 -13
13 -25 -2 -7 -10 -16 -15 -19 -11 -4 3 -8 1 -8 -5 -1 -7 -2 -17 -3 -22 -2 -19
-30 -30 -45 -17 -11 9 -13 9 -8 0 4 -7 -2 -18 -14 -27 -12 -8 -18 -19 -15 -25
4 -5 1 -13 -5 -17 -7 -4 -9 -3 -6 3 3 5 0 10 -8 10 -13 0 -13 -4 1 -25 15 -23
15 -23 -3 -14 -13 8 -22 7 -33 -3 -8 -8 -27 -24 -41 -37 -14 -13 -31 -22 -38
-20 -6 2 -16 -10 -22 -27 -6 -17 -16 -31 -21 -31 -6 0 -5 6 2 15 7 9 10 18 6
22 -3 3 -6 1 -6 -6 0 -7 -5 -9 -10 -6 -6 4 -10 3 -9 -2 4 -22 -3 -33 -18 -34
-11 0 -13 -3 -5 -6 6 -2 12 -9 12 -14 0 -6 -4 -8 -9 -5 -5 3 -11 -4 -14 -15
-4 -14 -10 -18 -18 -13 -9 5 -10 2 -6 -9 3 -9 2 -19 -3 -22 -4 -3 -7 6 -5 20
1 14 -2 28 -8 32 -6 3 -7 1 -3 -5 4 -7 1 -12 -8 -12 -10 0 -13 6 -9 17 4 10 2
14 -4 10 -12 -8 -26 20 -17 34 3 5 0 9 -5 9 -6 0 -11 9 -11 20 0 11 -6 20 -12
20 -9 0 -8 4 2 10 10 6 11 10 3 10 -7 0 -13 9 -13 21 0 11 -4 18 -10 14 -5 -3
-8 7 -5 25 3 22 -1 30 -12 30 -12 0 -13 3 -4 14 9 11 9 16 0 22 -8 5 -9 3 -4
-6 5 -8 4 -11 -3 -6 -6 3 -9 15 -7 26 2 11 -1 20 -7 20 -6 0 -5 7 3 17 12 14
12 16 0 8 -11 -6 -13 -4 -8 8 3 10 2 17 -3 17 -5 0 -15 14 -24 30 -8 17 -10
30 -5 30 5 0 0 9 -11 20 -12 12 -18 26 -14 32 5 8 2 9 -10 5 -9 -4 -15 -3 -11
2 8 15 -6 42 -19 34 -6 -4 -5 1 3 11 12 15 12 17 0 14 -8 -2 -13 4 -13 14 1
10 -2 16 -6 13 -5 -3 -11 4 -15 15 -3 11 -11 20 -17 20 -5 0 -7 8 -4 17 4 10
4 14 0 10 -10 -9 -34 12 -34 30 0 19 -25 44 -36 35 -5 -4 -2 2 6 12 14 18 13
18 -10 12 -16 -5 -20 -4 -12 2 14 9 6 42 -10 42 -5 0 -6 -5 -2 -12 5 -7 3 -8
-6 -3 -10 6 -9 11 6 23 18 14 18 14 -2 10 -17 -4 -20 -2 -17 12 3 10 -2 20
-12 24 -9 3 -13 11 -9 17 4 8 3 9 -4 5 -7 -4 -12 -1 -12 8 0 9 -5 16 -11 16
-5 0 -8 4 -4 9 3 5 0 13 -6 17 -8 4 -9 3 -5 -4 4 -7 2 -12 -3 -12 -6 0 -11 9
-11 21 0 13 -4 18 -12 13 -7 -5 -9 -2 -6 7 3 8 0 23 -8 34 -8 10 -14 14 -14 9
0 -6 3 -14 8 -20 8 -10 -23 24 -36 41 -5 6 -8 18 -6 27 1 11 -3 15 -12 11 -12
-4 -19 7 -15 29 0 4 -7 4 -16 1 -12 -5 -15 -2 -10 11 5 12 0 19 -18 26 -18 7
-23 14 -18 27 5 15 3 15 -10 -2 -16 -20 -16 -19 -10 5 5 24 5 24 -10 5 -16
-20 -16 -20 -11 1 6 22 -23 67 -37 58 -4 -2 -17 12 -29 31 -18 29 -25 33 -36
24 -11 -9 -14 -9 -14 0 0 7 -5 9 -12 5 -8 -5 -7 0 2 11 9 11 10 16 3 11 -9 -5
-13 -1 -13 10 0 14 -3 13 -20 -6 -11 -13 -20 -18 -20 -12 0 6 5 14 10 17 6 3
10 11 10 17 0 6 -6 6 -15 -2 -9 -7 -18 -10 -22 -6 -3 3 -1 6 5 6 7 0 12 4 12
9 0 6 -9 8 -20 6 -11 -2 -22 1 -25 6 -4 5 -10 7 -14 4 -5 -2 -7 10 -5 27 4 30
3 31 -10 12 -12 -16 -17 -17 -28 -6 -11 11 -10 12 7 7 11 -3 7 1 -8 8 -16 8
-28 17 -28 20 1 4 -1 7 -4 7 -3 0 -15 9 -27 20 -24 22 -34 25 -43 10 -4 -6 1
-7 11 -3 14 5 14 3 -2 -15 -23 -27 -22 -27 -18 4 2 18 -2 24 -11 20 -9 -3 -12
0 -8 10 3 10 0 12 -10 8 -8 -3 -18 -1 -22 5 -3 6 -13 11 -22 11 -8 0 -26 10
-38 22 -13 13 -32 23 -42 23 -11 0 -17 6 -15 15 2 8 0 12 -4 8 -4 -4 -14 -2
-23 5 -14 10 -14 10 -3 -4 15 -20 -14 -37 -32 -19 -8 8 -6 9 8 4 13 -5 17 -4
12 4 -4 7 -15 12 -24 12 -15 0 -15 2 -2 11 12 9 12 10 -4 5 -10 -4 -30 1 -43
9 -23 15 -23 15 -11 -4 6 -11 15 -18 19 -15 5 2 13 -6 19 -18 11 -22 10 -22
-4 -4 -9 11 -16 16 -16 11 0 -5 -5 -4 -11 2 -6 6 -19 9 -28 6 -14 -4 -14 -3
-1 6 13 9 13 11 -2 11 -10 0 -18 -5 -18 -12 0 -6 -3 -8 -6 -5 -4 4 -1 13 6 22
15 18 -1 20 -18 3 -11 -11 -16 -3 -14 23 1 3 -6 6 -13 6 -11 0 -12 -4 -4 -14
6 -7 8 -13 4 -13 -4 0 -1 -8 6 -17 11 -15 11 -16 0 -6 -7 6 -21 9 -30 6 -11
-4 -10 -1 4 10 19 16 19 16 -14 17 -28 0 -31 -2 -22 -14 9 -11 9 -16 -1 -22
-7 -4 -10 -4 -6 1 4 4 3 14 -3 21 -10 12 22 40 33 29 3 -3 5 1 5 9 0 11 -4 12
-18 3 -13 -8 -21 -8 -32 2 -11 8 -17 9 -22 1 -5 -8 -11 -8 -20 0 -9 7 -16 6
-26 -7 -13 -16 -12 -17 2 -5 14 10 18 10 23 -4 9 -23 7 -31 -3 -15 -8 12 -12
12 -25 2 -13 -11 -19 -11 -32 0 -20 16 -42 20 -50 8 -3 -5 -17 -3 -33 5 -16 9
-33 11 -41 6 -17 -10 -42 -1 -33 13 4 6 1 7 -8 1 -22 -13 -43 -14 -51 -1 -5 7
-8 2 -9 -13 0 -14 -3 -19 -6 -12 -2 6 -9 12 -14 12 -6 0 -8 -4 -5 -9 3 -5 -2
-15 -12 -22 -15 -13 -16 -12 -3 4 7 9 10 17 6 17 -4 0 -2 6 4 14 9 11 9 16 0
22 -7 4 -10 3 -7 -2 9 -15 -29 -48 -38 -33 -5 8 -3 10 6 4 8 -5 11 -4 7 3 -8
11 -25 11 -44 -1 -6 -4 -15 -2 -19 4 -5 8 -3 9 6 4 9 -5 11 -4 6 3 -9 15 -11
15 -27 -5 -12 -15 -12 -16 1 -8 9 5 8 0 -4 -13 -21 -25 -36 -31 -16 -7 8 10 9
15 2 15 -6 0 -10 6 -8 13 1 6 1 9 -1 4 -3 -4 -8 -5 -12 -3 -4 3 -8 -1 -8 -9 0
-8 4 -12 9 -9 4 3 5 -2 1 -12 -5 -14 -7 -14 -18 5 -6 12 -15 18 -20 14 -4 -4
-5 0 -2 10 4 11 3 16 -4 12 -6 -4 -8 -13 -5 -21 8 -20 -22 -46 -42 -35 -20 10
-42 4 -42 -11 0 -6 8 -5 17 3 16 13 17 12 4 -4 -11 -14 -16 -15 -29 -5 -13 11
-15 10 -9 -4 3 -10 2 -18 -3 -18 -10 0 -14 15 -10 35 1 6 -11 -2 -27 -16 -15
-15 -35 -24 -43 -21 -8 2 -4 -6 10 -18 14 -13 18 -21 9 -17 -9 3 -22 1 -29 -3
-8 -5 -21 -5 -31 0 -14 8 -16 5 -14 -20 1 -17 -1 -33 -6 -36 -5 -3 -8 -1 -7 4
3 8 -5 14 -14 11 -27 -8 -46 -5 -57 9 -12 15 -12 15 -6 -7 5 -17 4 -21 -5 -16
-9 6 -9 2 0 -16 7 -13 9 -21 5 -16 -5 4 -17 -1 -28 -10 -11 -10 -17 -12 -13
-5 5 7 1 12 -10 12 -15 0 -15 -2 0 -25 9 -14 14 -25 11 -25 -3 0 -14 14 -24
31 -15 24 -20 27 -25 14 -3 -9 -10 -14 -15 -10 -5 3 -12 1 -16 -5 -4 -6 -12
-7 -18 -3 -7 4 -6 0 2 -10 15 -19 26 -23 15 -5 -5 7 -3 8 6 3 8 -5 11 -4 7 3
-5 6 0 8 13 5 11 -3 23 -9 26 -14 3 -5 -2 -6 -11 -3 -9 4 -25 -2 -37 -12 -12
-11 -18 -14 -15 -8 4 7 1 14 -6 16 -19 8 -36 -2 -30 -18 3 -7 8 -12 12 -10 4
3 13 1 20 -4 9 -5 3 -7 -17 -7 -17 1 -28 6 -25 11 3 5 0 7 -8 4 -8 -3 -14 -10
-14 -16 0 -14 -14 -17 -23 -6 -4 4 -2 5 3 1 6 -3 11 3 11 14 0 19 -1 19 -17
-2 -9 -12 -21 -19 -27 -15 -6 3 -14 1 -18 -5 -5 -8 -3 -9 6 -4 10 6 12 4 7 -7
-3 -9 -1 -20 4 -25 6 -6 4 -10 -5 -10 -8 0 -13 4 -10 8 2 4 0 10 -6 14 -5 3
-10 1 -10 -5 0 -7 -7 -10 -17 -6 -17 6 -17 5 0 -8 9 -7 17 -16 17 -20 0 -8
-24 -3 -31 8 -4 5 -10 -1 -14 -13 -3 -12 -10 -19 -15 -16 -4 3 -7 -6 -6 -19 3
-20 -1 -23 -21 -21 -20 2 -21 0 -11 -13 12 -14 10 -14 -12 -2 -24 13 -24 12
-10 -5 14 -17 13 -18 -7 -13 -13 4 -26 2 -29 -3 -3 -5 0 -8 6 -7 7 2 14 -5 15
-15 3 -14 0 -15 -9 -8 -9 8 -18 6 -32 -5 -18 -14 -18 -15 4 -4 12 6 22 7 22 1
0 -5 -7 -12 -16 -15 -8 -3 -12 -10 -9 -16 4 -6 10 -8 15 -5 5 3 11 1 14 -4 4
-5 -2 -8 -11 -6 -10 1 -27 -6 -39 -16 -16 -15 -21 -16 -21 -5 0 8 5 12 10 9 6
-3 7 -1 3 6 -12 19 -24 3 -21 -26 2 -24 1 -25 -10 -10 -12 17 -13 17 -20 0 -5
-10 -7 -22 -6 -26 1 -5 -8 -11 -19 -14 -11 -3 -20 -10 -20 -15 0 -5 3 -7 8 -5
4 3 13 -2 20 -9 11 -12 10 -14 -12 -10 -14 3 -30 -2 -37 -10 -10 -12 -9 -13 7
-8 10 4 16 4 12 0 -3 -4 -12 -8 -20 -10 -21 -3 -39 -17 -33 -26 3 -5 0 -12 -6
-16 -8 -5 -10 -2 -5 7 4 8 1 6 -7 -3 -8 -10 -18 -14 -22 -10 -5 4 -5 2 -1 -5
4 -7 14 -9 24 -6 9 3 2 -6 -17 -21 -19 -14 -31 -26 -26 -26 5 0 16 7 26 16 13
12 19 12 25 3 4 -7 3 -10 -4 -5 -10 6 -26 -10 -27 -26 0 -3 -4 -10 -9 -15 -5
-5 -6 -3 -2 5 4 6 2 12 -4 12 -6 0 -10 -8 -8 -17 4 -21 -20 -53 -42 -54 -10 0
-9 -3 5 -9 11 -5 14 -9 6 -9 -10 -1 -11 -4 -2 -15 9 -11 6 -13 -13 -11 -19 2
-23 -1 -19 -13 5 -11 3 -13 -7 -7 -8 5 -11 4 -6 -3 4 -6 12 -10 19 -8 7 1 9 1
4 -1 -4 -3 -5 -9 -2 -14 4 -5 -2 -6 -12 -2 -16 6 -16 5 -4 -10 12 -15 12 -17
-2 -12 -18 8 -32 -11 -16 -21 8 -5 9 -3 4 6 -5 9 -4 11 4 6 8 -5 3 -18 -16
-41 -28 -34 -57 -50 -32 -17 13 15 12 16 -4 3 -14 -11 -15 -16 -5 -29 11 -13
10 -15 -4 -9 -10 3 -18 2 -18 -3 0 -6 5 -10 12 -10 6 0 3 -6 -8 -14 -12 -9
-21 -11 -25 -4 -4 6 -9 3 -12 -5 -6 -16 8 -17 33 -3 8 5 4 -3 -10 -16 -14 -14
-29 -23 -34 -20 -5 3 -6 0 -2 -6 3 -6 2 -13 -3 -17 -6 -3 -7 -15 -1 -29 6 -17
5 -23 -5 -23 -8 0 -11 5 -8 11 4 6 -1 5 -10 -3 -10 -7 -17 -19 -16 -25 4 -30
-2 -47 -13 -40 -6 4 -8 3 -4 -4 3 -6 2 -13 -4 -17 -6 -4 -8 -11 -5 -16 4 -5 1
-9 -6 -9 -9 0 -9 -3 0 -14 9 -11 9 -16 0 -22 -7 -4 -9 -3 -6 3 4 6 1 13 -7 16
-10 4 -12 0 -8 -15 3 -14 1 -19 -6 -14 -7 4 -12 3 -12 -3 0 -5 6 -11 13 -14 8
-3 4 -12 -13 -28 -23 -23 -24 -23 -5 -1 15 19 16 22 3 17 -20 -8 -31 -32 -18
-40 6 -4 10 -12 10 -18 0 -8 -3 -8 -8 -2 -13 19 -29 14 -27 -8 3 -33 -14 -51
-33 -35 -13 12 -14 10 -3 -11 11 -19 11 -22 0 -16 -8 6 -11 4 -7 -7 4 -9 -6
-28 -23 -47 -16 -18 -27 -36 -24 -41 3 -4 -2 -13 -9 -19 -16 -13 -17 3 -3 27
5 6 4 12 -2 12 -5 0 -13 -9 -16 -20 -4 -11 -10 -18 -15 -15 -5 3 -12 0 -16 -6
-4 -8 -3 -9 4 -5 17 10 15 -9 -3 -24 -8 -6 -19 -9 -25 -5 -6 4 -10 3 -9 -2 3
-18 -2 -33 -11 -33 -5 0 -7 8 -4 18 5 14 4 14 -6 -2 -10 -15 -9 -20 1 -27 11
-7 11 -9 1 -9 -7 0 -11 -4 -7 -9 3 -5 0 -13 -6 -17 -7 -4 -9 -3 -6 3 4 6 1 13
-7 16 -11 4 -13 -1 -10 -18 2 -14 -2 -25 -10 -28 -9 -4 -14 -1 -12 6 1 7 1 9
-1 4 -3 -4 -8 -5 -13 -2 -4 3 -6 -4 -3 -14 3 -13 -2 -23 -17 -31 -12 -6 -19
-18 -16 -25 3 -8 0 -17 -6 -21 -7 -5 -8 -2 -3 7 8 12 6 12 -8 0 -18 -14 -24
-26 -8 -17 5 3 14 -1 21 -9 11 -13 10 -14 -6 -8 -16 6 -17 4 -7 -9 15 -18 7
-29 -15 -21 -11 5 -13 3 -6 -8 4 -8 10 -23 11 -34 2 -16 1 -17 -6 -5 -5 8 -7
18 -4 24 3 5 1 6 -5 2 -6 -3 -9 -19 -6 -34 2 -15 1 -22 -4 -15 -8 13 -29 12
-51 -1 -11 -7 -13 -5 -8 8 4 10 3 15 -4 11 -5 -4 -7 -16 -3 -27 3 -12 2 -18
-3 -15 -5 3 -9 -4 -8 -15 1 -12 7 -24 13 -26 7 -2 12 -8 12 -13 0 -5 -11 -2
-25 7 -23 15 -24 15 -20 -7 3 -12 -1 -29 -8 -38 -9 -12 -9 -13 1 -7 6 4 12 2
12 -3 0 -6 -6 -11 -12 -11 -8 0 -9 -3 -3 -8 15 -10 18 -35 4 -26 -8 5 -10 2
-6 -9 3 -8 0 -18 -7 -20 -14 -6 -15 -35 -1 -56 5 -9 4 -12 -2 -8 -6 4 -13 0
-17 -8 -3 -8 0 -15 7 -16 7 0 3 -4 -8 -9 -11 -5 -14 -9 -7 -9 6 -1 12 -8 12
-16 0 -8 -6 -15 -12 -15 -10 0 -9 -3 1 -9 11 -7 11 -9 0 -14 -9 -4 -10 -6 -2
-6 7 -1 10 -8 6 -17 -5 -13 -7 -13 -14 -2 -6 8 -7 1 -3 -18 4 -19 1 -34 -5
-39 -9 -5 -9 -10 -1 -20 8 -10 8 -15 0 -20 -8 -5 -7 -11 2 -23 8 -9 8 -13 2
-9 -7 4 -15 0 -18 -8 -3 -9 1 -18 9 -21 21 -8 19 -25 -2 -18 -17 5 -17 5 0 -6
9 -6 17 -22 17 -35 0 -16 6 -25 16 -25 14 0 14 -3 4 -15 -11 -13 -10 -14 4 -9
10 4 16 1 16 -7 0 -7 3 -9 7 -6 3 4 13 1 21 -6 10 -8 13 -8 9 -1 -4 7 0 14 8
18 9 3 15 0 15 -9 0 -7 4 -16 9 -19 5 -4 7 4 4 16 -3 14 -1 19 4 12 12 -16 97
-12 118 6 11 8 16 10 12 4 -4 -7 0 -15 9 -18 8 -3 12 -2 9 4 -3 6 -1 10 4 10
6 0 11 -6 11 -12 0 -9 3 -8 9 2 6 8 7 18 4 24 -3 5 -1 6 6 2 6 -4 8 -12 5 -18
-5 -7 -1 -9 9 -5 8 3 21 -1 27 -9 7 -8 18 -14 24 -13 7 0 6 3 -2 6 -7 2 -17
14 -24 26 -10 21 -10 21 8 6 35 -29 50 -34 29 -8 -20 24 -20 24 0 9 11 -8 26
-21 34 -28 10 -10 16 -10 27 -1 8 6 21 9 29 5 9 -3 13 -2 10 4 -9 14 9 12 24
-2 11 -11 12 -9 3 7 -9 17 -7 21 9 22 10 1 19 -3 19 -8 0 -6 -5 -7 -12 -3 -7
4 -8 3 -4 -4 4 -6 13 -9 21 -6 8 4 12 10 9 15 -3 5 0 9 6 9 6 0 9 4 5 9 -3 6
4 8 17 5 13 -3 30 -7 38 -8 9 -1 21 -5 28 -9 8 -6 10 -3 6 7 -4 9 1 18 10 22
9 3 13 11 9 18 -3 6 3 2 15 -8 20 -17 22 -17 22 -2 0 9 7 19 15 22 8 4 12 11
8 18 -3 6 -3 8 2 4 4 -4 15 -2 24 5 14 10 14 10 3 -5 -7 -9 -9 -19 -4 -22 5
-3 15 6 22 19 7 13 17 22 23 18 5 -3 4 -9 -3 -13 -9 -5 -9 -9 -1 -14 6 -4 11
-2 11 5 0 8 5 7 17 -2 15 -13 15 -12 2 11 -7 14 -14 32 -14 40 0 8 -4 22 -10
30 -7 13 -6 13 7 2 9 -7 15 -22 13 -32 -2 -10 6 -27 17 -37 21 -18 21 -18 9 4
-11 21 -10 21 21 12 44 -12 48 -11 18 6 l-25 14 29 1 c24 0 27 2 16 15 -11 13
-10 14 4 9 9 -3 16 -11 16 -18 0 -7 4 -6 9 2 4 8 12 14 17 14 14 1 54 29 54
38 0 5 -11 3 -24 -3 -13 -7 -22 -16 -19 -21 4 -5 0 -6 -7 -1 -8 5 -11 4 -6 -3
7 -12 -20 -10 -31 3 -4 4 -3 5 3 2 7 -4 17 0 24 8 7 8 18 15 26 15 7 0 20 10
28 22 9 12 16 18 16 13 0 -6 9 3 19 19 11 17 17 34 14 39 -3 6 -1 7 5 3 8 -5
9 -13 2 -25 -5 -10 -6 -22 -2 -26 4 -5 0 -4 -8 0 -13 8 -13 7 0 -10 13 -17 13
-18 -1 -13 -9 3 -22 2 -30 -3 -9 -5 -4 -7 16 -5 19 1 29 7 27 15 -2 8 3 11 12
8 9 -4 15 -1 13 6 -1 7 4 11 11 9 8 -1 11 2 7 8 -6 10 6 14 35 11 9 -1 11 1 5
6 -16 12 -16 53 1 60 7 3 11 10 7 17 -4 7 -1 7 9 -1 15 -13 28 -8 28 9 0 5 -4
6 -10 3 -6 -4 -7 1 -3 11 5 15 7 15 15 0 7 -12 14 -14 27 -7 10 6 29 8 42 5
l24 -6 -25 21 c-14 12 -18 19 -10 16 11 -4 16 1 17 15 1 11 -2 20 -8 20 -5 0
-9 -4 -9 -10 0 -5 -5 -10 -11 -10 -8 0 -7 5 1 15 12 14 9 15 -17 11 -21 -4
-30 -2 -30 8 0 8 6 12 15 8 11 -4 13 -2 7 9 -8 12 -6 12 8 1 9 -8 22 -10 28
-6 7 4 9 3 6 -3 -4 -6 0 -14 8 -17 10 -3 15 -1 13 7 -2 6 0 13 5 15 17 5 27 1
38 -19 9 -17 8 -20 -3 -16 -7 2 -12 10 -11 16 2 6 -2 11 -8 11 -6 0 -8 -7 -5
-16 4 -10 2 -13 -6 -8 -7 4 -8 3 -4 -4 4 -7 3 -12 -2 -12 -15 0 -10 -29 6 -35
8 -3 17 -3 20 0 3 3 0 5 -6 5 -7 0 -12 8 -11 18 0 9 3 12 5 5 8 -18 43 17 37
36 -5 13 -3 14 8 4 19 -19 31 -16 24 6 -3 11 0 23 6 27 8 5 9 3 4 -6 -5 -9 -4
-11 4 -6 14 9 5 26 -15 26 -8 0 -12 5 -9 10 4 6 10 8 15 5 5 -3 12 0 16 6 4 8
3 9 -4 5 -7 -4 -12 -3 -12 2 0 17 13 22 29 9 14 -11 14 -10 2 6 -11 13 -11 17
-1 17 21 0 5 10 -24 16 -28 5 -33 -4 -14 -25 10 -11 10 -12 1 -7 -9 5 -11 1
-7 -11 4 -14 3 -15 -4 -4 -7 9 -12 10 -16 2 -4 -6 -3 -11 1 -11 5 0 10 -14 11
-31 1 -18 -2 -28 -7 -24 -6 3 -7 13 -4 23 4 14 2 13 -11 -3 -17 -20 -17 -20
-7 2 15 30 14 38 -4 23 -8 -7 -12 -16 -9 -21 3 -5 0 -9 -5 -9 -6 0 -11 6 -11
13 0 8 -3 7 -10 -3 -5 -8 -12 -11 -16 -7 -4 4 -5 10 -2 13 5 5 14 7 48 13 3 1
-2 6 -10 12 -11 8 -12 12 -2 16 6 2 10 9 7 14 -4 5 2 6 12 2 16 -6 16 -5 4 10
-11 14 -11 20 0 33 19 23 21 47 3 40 -11 -4 -12 -2 -1 15 10 16 13 17 15 4 2
-8 8 -13 13 -10 5 4 5 14 -1 26 -6 11 -15 17 -20 14 -5 -3 -11 -1 -14 4 -7 10
13 9 30 -2 17 -10 26 4 10 17 -10 8 -11 17 -5 31 9 19 9 18 5 -2 -4 -20 4 -27
26 -25 3 1 12 -5 18 -13 9 -11 9 -15 1 -15 -6 0 -11 5 -11 11 0 5 -5 7 -11 3
-6 -3 -7 -9 -3 -13 5 -3 10 -15 12 -26 2 -17 0 -16 -13 5 -11 16 -14 18 -10 6
3 -11 1 -23 -6 -26 -8 -5 -8 -9 0 -14 5 -4 19 2 30 13 11 11 22 16 26 13 3 -4
3 2 -1 13 -6 16 -5 18 7 8 7 -7 18 -13 24 -13 5 0 -1 9 -15 20 -21 16 -22 20
-7 20 14 0 17 5 12 23 -6 21 -5 21 9 3 16 -20 53 -15 40 6 -5 8 -2 9 10 5 10
-4 19 -1 22 7 5 14 34 18 34 4 0 -4 5 -8 11 -8 8 0 8 5 -1 15 -7 8 -17 12 -23
8 -6 -3 -7 -1 -3 6 4 6 12 9 17 6 15 -10 49 -14 48 -7 -4 24 2 36 10 23 6 -9
11 -10 15 -2 4 6 2 11 -3 11 -6 0 -11 5 -11 11 0 5 6 7 13 3 8 -5 8 -2 -2 9
-15 19 -1 23 17 5 8 -8 12 -8 12 -1 0 6 -7 14 -16 17 -11 4 -13 11 -7 19 13
18 10 47 -6 56 -17 11 -7 42 11 37 7 -1 10 -1 5 1 -4 3 -5 8 -3 12 3 4 -1 8
-9 8 -8 0 -12 -4 -9 -9 3 -4 -1 -11 -10 -14 -9 -3 -12 -12 -9 -21 4 -11 2 -14
-5 -9 -7 4 -10 2 -6 -7 3 -8 -2 -14 -11 -14 -10 0 -14 6 -10 15 4 12 1 12 -19
-1 -25 -17 -56 -2 -38 18 4 5 1 5 -6 1 -11 -6 -10 -12 4 -27 15 -17 15 -19 2
-14 -9 4 -19 2 -23 -4 -3 -7 2 -11 14 -11 11 0 22 -4 25 -9 3 -4 -6 -6 -19 -3
-14 2 -28 8 -31 13 -3 5 -19 0 -35 -12 -27 -19 -31 -39 -8 -39 6 0 8 4 4 9 -3
6 4 15 15 21 13 7 20 7 20 0 0 -5 -7 -10 -16 -10 -8 0 -13 -4 -9 -9 8 -15 -14
-24 -29 -12 -7 6 -16 8 -19 4 -4 -3 2 -13 14 -21 15 -10 24 -11 32 -3 8 8 17
5 34 -11 26 -25 31 -14 6 14 -9 10 -14 21 -11 24 4 3 14 -8 24 -25 13 -21 20
-27 26 -18 4 6 8 8 8 2 0 -5 -5 -17 -10 -25 -7 -10 -10 -11 -10 -2 0 9 -7 8
-26 -5 -25 -16 -27 -16 -40 2 -10 14 -14 15 -14 4 0 -12 -2 -12 -10 1 -8 12
-10 12 -10 1 0 -10 -3 -11 -14 -2 -15 13 -18 -3 -3 -25 7 -12 -1 -24 -16 -24
-6 0 -7 3 -4 6 3 4 2 15 -4 26 -9 16 -13 17 -27 6 -15 -12 -16 -11 -3 5 8 9
16 15 18 13 3 -3 11 0 17 7 10 9 9 15 -5 31 -11 11 -16 22 -13 25 3 3 9 0 13
-7 5 -9 12 -7 26 9 19 20 19 20 -7 14 -14 -4 -29 -2 -32 3 -4 6 3 8 16 5 22
-5 22 -5 4 9 -13 11 -16 17 -7 22 6 4 9 12 6 17 -4 5 -1 9 4 9 14 0 14 -13 -1
-28 -8 -8 -8 -12 -1 -12 16 0 31 23 28 42 -2 12 2 15 13 10 15 -5 16 -4 2 14
-14 18 -14 18 3 5 17 -14 17 -16 3 -27 -15 -11 -15 -12 0 -18 9 -3 21 -3 26 1
6 3 8 1 4 -5 -3 -6 1 -9 9 -8 17 2 21 21 5 21 -18 0 -30 28 -18 42 6 8 8 16 4
20 -3 3 -6 1 -6 -5 0 -7 -4 -12 -10 -12 -5 0 -7 7 -4 15 5 11 1 14 -12 9 -15
-5 -16 -4 -4 4 8 6 18 8 22 6 4 -3 8 2 8 10 0 9 -4 16 -10 16 -5 0 -10 5 -10
12 0 6 9 3 21 -8 15 -14 20 -15 17 -4 -2 8 -7 18 -12 21 -4 4 -1 18 8 31 9 14
13 28 9 33 -5 4 -2 5 5 1 7 -4 10 -11 8 -15 -3 -4 1 -8 9 -8 10 0 12 4 5 12
-13 16 -1 48 14 42 11 -4 15 7 18 50 1 7 5 10 10 7 5 -3 6 -10 3 -15 -3 -5 1
-6 9 -3 9 3 16 10 16 16 0 5 -4 7 -9 4 -5 -3 -11 1 -15 9 -3 8 -2 14 3 12 5
-1 18 9 30 23 l22 25 -16 -27 c-9 -15 -12 -29 -7 -32 5 -3 12 3 15 14 6 25 27
22 44 -5 12 -19 13 -18 9 7 -4 25 -2 27 14 18 15 -8 17 -7 12 12 -3 12 -1 19
4 15 6 -3 11 4 11 16 2 16 0 18 -6 8 -7 -10 -9 -6 -8 12 1 17 6 22 13 16 14
-12 24 -1 17 19 -5 11 -3 13 7 7 9 -5 11 -4 6 4 -6 9 -12 9 -24 -1 -15 -11
-15 -11 -5 3 7 8 11 25 8 38 -2 12 0 19 6 16 5 -4 10 -1 10 4 1 6 3 16 4 21 1
6 3 16 4 23 1 7 4 8 9 2 12 -17 35 -17 29 0 -8 18 4 20 23 3 11 -10 11 -9 0 6
-13 17 -13 19 0 14 8 -3 24 -1 35 4 19 8 19 8 -1 4 -22 -4 -27 15 -9 31 4 4 5
2 1 -4 -5 -9 1 -13 19 -13 17 0 24 -4 19 -12 -4 -7 -3 -8 5 -4 6 4 8 12 5 18
-4 7 2 8 17 3 21 -7 22 -6 11 8 -11 13 -10 15 10 10 18 -4 20 -3 8 6 -13 9
-13 11 1 11 25 0 41 24 26 39 -9 10 -8 11 6 6 9 -4 17 -3 17 3 0 6 -8 13 -17
15 -13 3 -14 5 -3 6 8 0 21 10 28 22 10 15 10 19 1 14 -7 -5 -10 -3 -7 6 3 8
12 13 19 11 11 -3 12 -1 1 10 -10 10 -8 16 10 31 13 10 18 16 11 13 -6 -4 -15
-1 -19 5 -4 8 -3 9 4 5 7 -4 12 -3 12 3 0 5 -3 11 -7 14 -5 2 -3 2 4 1 6 -2
14 2 17 9 3 7 3 2 1 -10 -3 -12 0 -25 6 -29 7 -4 9 -3 5 4 -3 6 -2 14 4 17 6
4 9 1 8 -7 -2 -7 2 -12 9 -11 14 3 11 -20 -5 -40 -11 -13 -10 -15 11 -13 14 2
24 -2 24 -10 0 -7 -7 -10 -16 -6 -13 5 -14 3 -5 -9 6 -8 10 -22 9 -31 -3 -18
15 -20 27 -3 5 6 8 5 8 -3 0 -7 5 -10 10 -7 8 5 8 11 0 20 -8 9 -8 15 0 20 15
10 12 23 -7 28 -17 4 -17 5 0 6 10 0 15 6 12 11 -4 6 -11 8 -16 5 -5 -4 -9 -1
-9 4 0 6 7 11 16 11 8 0 13 4 9 9 -3 5 -1 12 4 16 6 3 8 -6 5 -21 -4 -22 -2
-25 9 -16 7 6 12 25 11 41 -1 18 5 36 14 43 13 11 14 11 7 -2 -17 -28 -17 -60
0 -54 8 3 15 1 15 -5 0 -6 5 -11 11 -11 5 0 8 4 5 8 -7 12 12 38 21 29 4 -5 1
-12 -6 -16 -18 -12 -2 -19 37 -16 18 1 36 -3 39 -8 4 -6 1 -7 -7 -2 -8 5 -11
4 -7 -1 3 -6 -5 -10 -19 -10 -13 0 -24 5 -24 11 0 5 -4 4 -9 -4 -6 -10 -13
-11 -29 -2 -14 7 -23 8 -27 1 -4 -6 -11 -7 -17 -4 -7 4 -8 2 -4 -5 4 -6 11 -9
16 -6 5 3 11 1 15 -5 3 -5 1 -10 -6 -10 -8 0 -9 -3 0 -13 6 -8 8 -17 4 -21 -4
-4 1 -4 11 0 13 5 17 4 12 -4 -10 -17 38 -61 52 -46 8 9 7 14 -3 18 -8 3 -15
10 -15 16 0 6 5 8 12 4 18 -11 48 -12 42 -2 -4 5 -12 7 -20 4 -7 -3 -16 -1
-19 4 -5 9 6 14 26 12 3 -1 6 6 6 14 0 8 -4 14 -9 14 -4 0 -8 -4 -8 -10 0 -19
-16 -10 -17 9 -1 14 4 19 17 16 11 -2 22 1 25 6 4 5 11 6 17 3 6 -4 8 2 4 17
l-7 24 22 -25 c12 -14 20 -18 17 -10 -9 23 -15 46 -10 37 2 -4 13 -12 24 -18
12 -6 18 -7 14 -1 -3 5 2 16 12 23 16 13 16 12 2 -5 -13 -17 -13 -18 5 -14 11
2 19 10 17 17 -1 7 2 10 8 6 6 -3 8 -11 5 -16 -4 -5 0 -9 7 -9 8 0 9 -3 3 -8
-6 -4 -10 -14 -10 -22 0 -8 -3 -18 -8 -21 -5 -4 -4 -16 2 -28 7 -12 9 -26 6
-31 -3 -6 1 -7 9 -4 12 4 16 0 17 -17 0 -23 1 -23 9 -4 5 11 9 14 9 6 1 -7 7
-11 15 -8 10 4 13 1 9 -8 -3 -8 -10 -12 -15 -9 -6 4 -3 -5 6 -18 9 -14 13 -28
9 -33 -5 -4 -2 -5 5 -1 7 4 10 12 7 17 -10 15 2 10 16 -8 10 -11 10 -14 2 -9
-8 4 -13 1 -13 -8 0 -10 6 -13 15 -10 11 5 14 2 9 -12 -6 -16 -5 -17 7 -6 16
15 33 16 23 1 -3 -6 6 -3 22 7 24 16 27 16 16 2 -10 -12 -10 -18 -1 -24 7 -4
9 -3 6 3 -4 6 0 14 9 17 24 9 31 7 14 -4 -12 -8 -11 -10 7 -10 13 0 24 -8 28
-19 4 -13 12 -18 22 -14 11 4 14 2 9 -5 -4 -7 -3 -12 3 -12 6 0 8 -8 5 -17 -5
-14 -4 -15 4 -4 8 11 16 7 42 -18 18 -17 39 -31 46 -31 8 0 14 -5 14 -11 0 -5
-5 -7 -10 -4 -5 3 -10 1 -10 -4 0 -6 5 -11 11 -11 6 0 9 -7 5 -15 -3 -8 -2
-14 2 -12 4 1 8 -2 10 -8 2 -5 12 -13 23 -17 11 -4 17 -13 14 -18 -4 -6 3 -20
16 -31 12 -10 17 -19 10 -19 -7 0 -9 -5 -6 -10 4 -6 10 -8 15 -5 4 3 6 -4 3
-15 -3 -11 0 -20 6 -20 6 0 11 -12 11 -26 0 -14 4 -23 8 -20 5 3 9 -1 9 -9 0
-8 -4 -12 -8 -9 -4 2 -11 0 -14 -6 -4 -6 -3 -10 2 -9 26 5 37 -2 20 -12 -18
-10 -18 -12 4 -36 21 -22 22 -24 4 -18 -20 7 -20 6 -1 -9 12 -10 15 -16 7 -16
-9 0 -6 -6 6 -17 10 -10 12 -14 3 -8 -9 6 -8 1 4 -13 11 -12 25 -21 31 -18 7
2 12 -2 12 -10 0 -7 -5 -10 -10 -7 -6 3 -7 1 -3 -5 4 -7 16 -12 27 -12 10 0
18 -3 18 -7 -4 -26 3 -43 19 -44 14 0 14 -2 -3 -9 -19 -8 -18 -11 4 -14 5 0
13 -5 18 -10 5 -5 3 -6 -4 -2 -7 4 -13 2 -13 -3 0 -6 5 -11 10 -11 6 0 10 -9
10 -21 0 -11 4 -18 8 -15 13 8 34 -36 35 -75 1 -19 7 -37 12 -41 6 -5 4 -8 -5
-8 -13 0 -13 -1 0 -10 13 -9 13 -11 0 -21 -12 -9 -10 -10 8 -6 19 5 21 3 11
-9 -6 -7 -16 -11 -23 -8 -6 3 -1 -3 11 -14 14 -12 21 -28 19 -46 -2 -17 2 -26
11 -26 8 0 11 -5 8 -10 -4 -6 -10 -8 -15 -5 -4 3 -6 -4 -3 -15 3 -11 10 -17
16 -13 6 4 7 1 1 -8 -11 -18 -14 -40 -5 -35 4 3 13 -4 20 -16 7 -11 8 -17 3
-14 -5 3 -9 -6 -9 -19 0 -14 3 -25 8 -25 5 0 9 -7 9 -16 0 -8 -4 -12 -10 -9
-6 3 -7 -1 -4 -9 3 -9 9 -14 13 -11 4 2 6 -14 5 -36 -1 -21 3 -42 9 -46 6 -4
7 -1 2 7 -5 9 -4 11 3 6 8 -4 8 -15 2 -31 -6 -16 -6 -27 2 -31 7 -4 8 -3 4 4
-4 7 -2 12 3 12 14 0 14 -13 -1 -28 -9 -9 -9 -12 2 -12 10 0 11 -3 3 -11 -9
-9 -8 -18 4 -35 11 -18 12 -24 2 -24 -7 0 -9 -3 -6 -6 4 -4 13 -1 22 6 9 7 18
10 22 6 3 -3 1 -6 -5 -6 -7 0 -12 -5 -12 -11 0 -5 4 -8 8 -5 5 3 9 -1 9 -8 0
-8 -7 -12 -16 -9 -13 4 -13 2 2 -10 20 -16 23 -31 5 -22 -7 4 -3 -2 10 -13 23
-21 30 -38 10 -26 -7 4 -8 3 -4 -5 4 -6 12 -9 17 -6 5 3 6 -2 3 -12 -5 -16 -3
-15 12 2 13 16 16 17 11 3 -7 -19 8 -35 16 -18 3 6 4 5 3 -2 -2 -7 -11 -11
-21 -10 -15 3 -17 1 -7 -11 6 -7 8 -18 4 -22 -4 -5 0 -4 8 1 22 12 60 17 40 5
-8 -5 -18 -7 -24 -4 -6 4 -6 -1 -2 -13 11 -28 17 -96 8 -90 -10 6 -8 -56 3
-74 5 -8 4 -11 -2 -7 -7 5 -10 -8 -9 -36 1 -23 -2 -50 -7 -61 -6 -12 -5 -16 1
-12 11 7 6 -55 -6 -63 -4 -3 -7 -19 -7 -36 0 -16 -7 -36 -15 -43 -13 -12 -13
-13 4 -8 16 6 17 4 6 -9 -7 -8 -17 -12 -24 -8 -7 4 -7 1 1 -7 10 -11 7 -18
-15 -39 -16 -15 -20 -22 -10 -18 10 3 20 1 24 -6 4 -7 3 -9 -1 -4 -5 4 -17 -1
-28 -10 -12 -11 -17 -12 -12 -4 5 10 4 12 -3 7 -18 -11 -14 -26 6 -27 12 0 11
-3 -6 -10 -13 -5 -28 -6 -34 -3 -5 4 -5 -4 2 -16 8 -15 8 -20 1 -16 -6 4 -11
2 -11 -4 0 -6 -4 -9 -8 -6 -4 3 -7 -9 -6 -25 2 -22 -1 -27 -10 -20 -8 7 -12 5
-12 -9 0 -10 5 -16 11 -13 5 3 -3 -6 -19 -19 -27 -23 -33 -37 -38 -90 -1 -10
-9 -18 -18 -18 -13 0 -13 -1 0 -10 12 -8 11 -10 -5 -10 -14 0 -21 -7 -21 -19
0 -11 5 -17 10 -14 5 4 6 1 2 -6 -5 -7 -15 -10 -23 -6 -13 4 -14 3 -4 -9 9
-11 9 -16 1 -21 -7 -4 -10 -16 -7 -26 3 -12 1 -17 -6 -12 -7 4 -8 0 -3 -12 5
-15 4 -16 -9 -5 -14 11 -14 10 -5 -14 6 -18 6 -25 0 -21 -6 3 -10 1 -10 -5 0
-6 -4 -8 -10 -5 -5 3 -7 0 -4 -8 3 -8 0 -18 -7 -23 -8 -4 -10 -3 -5 4 8 14
-29 11 -41 -3 -5 -4 -2 -5 6 0 9 5 12 3 9 -6 -3 -8 -12 -13 -19 -11 -8 2 -6
-5 6 -19 l20 -22 -23 12 c-23 12 -29 -5 -7 -21 6 -5 5 -8 -2 -8 -7 0 -10 -7
-6 -17 4 -11 3 -14 -5 -9 -8 5 -10 2 -6 -8 3 -9 10 -14 15 -11 4 3 5 -5 2 -17
-3 -13 -5 -33 -5 -45 0 -13 -4 -21 -8 -18 -5 3 -12 0 -16 -6 -4 -7 -3 -9 4 -5
6 3 13 2 17 -4 3 -5 0 -10 -7 -10 -9 0 -9 -3 2 -10 11 -7 11 -10 2 -10 -10 0
-10 -5 -2 -20 9 -16 8 -18 -5 -14 -11 5 -14 2 -8 -12 5 -13 3 -15 -8 -9 -12 8
-12 6 0 -8 8 -11 9 -17 3 -17 -7 0 -9 -7 -5 -17 4 -11 3 -14 -6 -9 -14 9 -11
-16 4 -26 6 -4 2 -8 -8 -8 -10 0 -16 -3 -14 -8 3 -4 -3 -24 -13 -45 -10 -20
-14 -35 -9 -32 5 4 6 -1 3 -9 -3 -9 -11 -13 -16 -10 -6 4 -7 -2 -3 -16 6 -17
4 -21 -6 -14 -12 7 -12 5 0 -9 11 -14 11 -18 -3 -23 -9 -3 -13 -10 -11 -15 3
-5 -2 -21 -12 -36 -10 -15 -12 -24 -5 -20 6 5 12 4 12 -2 0 -6 -6 -11 -14 -11
-9 0 -12 -12 -11 -36 1 -20 -4 -38 -10 -40 -6 -3 -12 -14 -12 -27 -1 -12 -7
-23 -13 -25 -5 -2 -10 -8 -10 -13 0 -6 6 -7 13 -3 10 6 10 4 0 -7 -7 -7 -13
-21 -13 -32 0 -10 -4 -16 -9 -13 -5 4 -7 -4 -3 -16 4 -15 2 -19 -7 -13 -10 6
-11 3 -1 -15 7 -12 8 -20 2 -16 -5 3 -13 -1 -16 -10 -4 -10 -2 -13 7 -9 6 4 4
0 -7 -9 -10 -8 -18 -27 -18 -41 0 -14 -5 -25 -10 -25 -6 0 -5 -7 2 -16 8 -8 9
-14 4 -13 -21 4 -26 -2 -14 -16 11 -13 10 -14 -6 -8 -17 6 -17 5 -5 -10 10
-13 10 -17 1 -17 -7 0 -10 -7 -6 -16 5 -13 4 -14 -7 -5 -12 9 -13 7 -9 -14 3
-16 0 -25 -9 -25 -7 0 -9 -3 -6 -7 4 -3 1 -13 -6 -21 -7 -9 -7 -13 -1 -9 7 4
10 -2 6 -18 -2 -14 -8 -25 -12 -25 -4 0 -10 -9 -13 -21 -5 -18 -3 -18 11 -7
15 11 14 10 -1 -8 -9 -11 -14 -24 -10 -29 5 -4 0 -5 -10 -2 -15 6 -16 4 -6
-15 9 -17 9 -20 -3 -15 -8 3 -15 -1 -15 -9 0 -7 5 -11 11 -8 6 3 3 -1 -6 -9
-23 -18 -23 -28 0 -21 9 3 7 -1 -6 -8 -12 -8 -19 -17 -16 -21 4 -4 3 -7 -3 -7
-6 0 -9 -12 -7 -26 2 -19 -1 -24 -12 -20 -10 4 -13 2 -7 -7 13 -21 12 -36 -3
-30 -8 3 -14 1 -14 -5 0 -6 6 -13 13 -15 7 -3 5 -6 -5 -6 -10 -1 -18 -6 -18
-12 0 -5 6 -7 13 -3 9 6 9 5 0 -8 -7 -8 -10 -17 -7 -20 3 -3 -6 -14 -19 -25
-21 -16 -23 -23 -14 -39 9 -16 8 -17 -4 -7 -12 10 -15 7 -17 -14 -1 -15 -7
-30 -13 -34 -8 -4 -7 -8 2 -12 10 -4 8 -6 -4 -6 -10 -1 -16 -5 -12 -10 3 -5 1
-12 -5 -16 -5 -3 -10 -16 -10 -28 0 -18 -2 -20 -11 -7 -9 12 -10 11 -6 -8 3
-12 1 -20 -4 -16 -5 3 -9 -7 -9 -23 0 -19 -3 -24 -9 -15 -7 11 -10 10 -15 -3
-9 -24 -8 -27 7 -19 9 6 9 4 1 -7 -6 -8 -10 -21 -9 -30 2 -9 -3 -16 -11 -16
-10 0 -11 4 -3 13 7 8 6 14 -2 20 -7 4 -9 3 -5 -4 3 -6 2 -13 -4 -17 -6 -4 -7
-12 -3 -18 12 -19 12 -38 1 -30 -7 4 -9 -1 -6 -14 3 -12 0 -20 -8 -20 -7 0
-10 5 -7 10 3 6 1 7 -6 3 -6 -4 -9 -11 -7 -15 7 -10 -23 -53 -33 -47 -3 3 -7
-4 -7 -15 0 -10 4 -19 8 -19 4 0 8 -4 8 -9 0 -5 -10 -7 -22 -4 -23 5 -23 5 -3
-10 18 -15 18 -16 2 -17 -11 0 -17 -6 -15 -17 2 -10 -2 -18 -9 -18 -6 0 -15
-4 -20 -9 -4 -5 -3 -6 4 -2 6 3 14 2 18 -4 3 -6 -4 -10 -17 -10 -18 0 -20 -2
-8 -10 12 -8 12 -10 1 -10 -10 0 -11 -3 -2 -14 9 -11 9 -16 0 -22 -8 -4 -9 -3
-5 4 4 7 1 12 -9 12 -9 0 -14 -4 -11 -9 8 -13 -4 -42 -15 -35 -5 3 -9 1 -9 -5
0 -5 -3 -17 -7 -27 -5 -13 -3 -15 7 -9 9 5 11 4 6 -4 -6 -9 -11 -9 -22 0 -12
10 -13 9 -8 -5 4 -10 1 -16 -7 -16 -11 0 -11 -3 1 -10 13 -8 13 -10 -2 -10
-11 0 -15 -5 -12 -14 3 -8 0 -17 -5 -21 -6 -3 -8 -12 -4 -18 4 -8 1 -7 -9 1
-14 11 -16 10 -13 -14 2 -19 -3 -28 -16 -31 -11 -3 -15 -11 -12 -21 4 -10 2
-13 -5 -8 -15 9 -16 -6 -1 -21 9 -9 6 -10 -12 -6 -22 6 -23 5 -10 -10 12 -15
12 -17 -2 -11 -12 4 -15 1 -12 -15 3 -15 0 -18 -13 -14 -14 6 -15 4 -5 -8 9
-11 7 -19 -8 -38 -10 -13 -19 -20 -19 -15 0 4 7 16 17 26 9 10 11 18 6 18 -6
0 -18 -16 -27 -35 -9 -19 -21 -35 -27 -35 -6 0 -7 -4 -4 -10 3 -5 -1 -10 -9
-10 -8 0 -18 -5 -22 -12 -5 -8 -2 -9 9 -5 9 3 19 1 23 -5 4 -7 3 -8 -4 -4 -7
4 -12 2 -12 -4 0 -7 -9 -9 -22 -5 -18 5 -20 4 -8 -4 13 -9 11 -12 -9 -17 l-23
-7 23 -13 c23 -14 23 -14 -8 -9 -32 5 -37 -4 -20 -32 6 -10 2 -11 -17 -3 -34
13 -33 5 1 -15 l28 -15 -30 6 c-16 4 -37 12 -45 18 -8 6 -6 1 4 -12 18 -21 13
-28 -16 -23 -5 0 -8 -6 -8 -15 0 -10 5 -12 12 -7 22 13 42 13 29 0 -7 -7 -17
-12 -24 -12 -7 0 -12 -6 -12 -14 0 -8 -7 -16 -15 -18 -9 -3 -11 -1 -5 4 14 11
13 29 -3 45 -11 11 -12 10 -6 -6 5 -13 4 -17 -4 -12 -8 5 -10 1 -5 -11 6 -16
5 -17 -13 -3 -18 14 -18 14 -3 -5 31 -38 34 -48 10 -36 -11 7 -21 17 -21 24
-1 7 -6 2 -13 -11 -7 -12 -17 -19 -22 -15 -4 5 -5 2 0 -6 6 -10 4 -13 -7 -9
-14 6 -48 -23 -48 -40 1 -4 9 3 20 16 11 13 21 18 25 12 3 -5 1 -10 -5 -10 -6
0 -8 -5 -5 -10 4 -6 1 -9 -7 -8 -8 2 -12 -5 -10 -17 3 -20 3 -20 -11 -1 -17
23 -51 31 -43 10 3 -8 1 -14 -5 -14 -6 0 -7 -5 -3 -12 5 -8 2 -9 -9 -5 -10 3
-17 2 -17 -4 0 -6 -4 -7 -10 -4 -6 4 -7 -1 -3 -12 6 -16 5 -17 -13 -3 -18 14
-18 14 -3 -5 26 -32 29 -42 15 -42 -8 0 -12 6 -9 14 4 9 0 11 -13 6 -12 -4
-15 -3 -10 5 5 8 2 10 -9 5 -13 -5 -14 -7 -3 -14 12 -8 4 -13 -14 -10 -4 0 -4
-7 -1 -16 4 -11 3 -14 -5 -9 -8 5 -10 2 -6 -8 5 -12 11 -13 25 -5 28 15 23 4
-7 -16 -15 -9 -24 -12 -20 -7 3 6 2 13 -3 17 -14 8 -5 -33 11 -54 12 -15 11
-15 -7 -1 -11 8 -23 20 -27 25 -5 6 -8 5 -8 -2 0 -7 10 -22 23 -33 12 -12 15
-19 7 -15 -11 4 -16 -1 -17 -16 -1 -15 2 -19 13 -15 9 3 12 1 9 -4 -3 -6 -12
-10 -20 -10 -8 0 -17 -5 -21 -12 -4 -7 -3 -8 4 -4 7 4 12 1 12 -9 0 -10 -5
-13 -12 -9 -6 4 -8 3 -4 -4 3 -6 2 -13 -4 -17 -15 -9 -2 -25 21 -25 10 0 19
-5 19 -11 0 -5 -4 -8 -8 -5 -4 2 -14 1 -21 -3 -9 -6 -10 -11 -2 -15 6 -4 11
-3 11 3 0 6 7 8 15 5 8 -4 12 -10 9 -15 -9 -15 3 -10 17 8 9 11 10 14 2 9 -9
-5 -11 -2 -7 8 5 13 9 12 26 -7 11 -12 17 -16 13 -9 -9 17 5 15 28 -5 20 -18
20 -18 3 9 -16 25 -16 26 1 23 10 -2 22 -4 26 -4 5 -1 5 -5 2 -11 -3 -6 1 -7
9 -4 9 3 16 1 16 -5 0 -6 5 -11 11 -11 5 0 7 5 4 10 -3 6 -1 10 4 10 6 0 11
-5 11 -11 0 -5 4 -8 9 -5 5 4 7 -3 4 -14 -3 -12 0 -20 6 -20 7 0 9 5 5 12 -4
6 -3 8 4 5 5 -4 9 -15 7 -25 -1 -9 7 -23 19 -30 14 -9 15 -12 4 -8 -10 3 -20
0 -24 -6 -4 -7 -3 -8 4 -4 7 4 12 2 12 -4 0 -6 4 -9 9 -5 5 3 12 1 15 -4 4 -5
1 -13 -5 -17 -8 -5 -9 -3 -4 6 5 9 4 11 -4 6 -6 -4 -9 -12 -5 -17 3 -5 10 -7
15 -4 5 4 9 1 9 -4 0 -6 4 -11 10 -11 5 0 7 7 4 15 -4 8 -1 15 5 15 6 0 11 -4
11 -9 0 -5 7 -11 15 -15 13 -4 14 -2 5 14 -12 22 7 25 22 5 5 -6 8 -5 8 2 0 8
7 10 17 6 15 -6 16 -5 3 9 -8 9 -19 13 -25 10 -6 -3 -6 -1 -2 4 5 5 14 9 20 9
7 1 11 5 10 11 -2 12 42 13 53 1 5 -4 1 -5 -9 -1 -10 3 -17 1 -17 -6 0 -6 -4
-9 -9 -5 -5 3 -13 0 -17 -7 -4 -7 -4 -10 1 -6 4 4 14 3 22 -4 9 -7 13 -8 11
-1 -2 6 2 11 7 11 6 0 9 -4 8 -9 -2 -4 4 -6 13 -2 11 4 12 8 4 13 -8 5 -8 10
-2 14 5 3 8 18 6 34 -5 42 53 101 71 72 3 -5 0 -7 -8 -4 -17 6 -43 -21 -27
-31 5 -3 10 -1 10 5 0 7 6 10 14 7 7 -3 20 0 27 6 11 10 11 9 1 -4 -9 -13 -9
-23 4 -49 9 -17 19 -28 23 -23 3 5 12 8 19 7 6 -1 17 -2 23 -3 5 0 7 -6 3 -12
-4 -8 0 -8 15 0 23 13 29 26 8 18 -8 -3 -14 1 -14 9 0 8 6 13 13 10 8 -3 17 1
21 9 7 12 11 11 20 -5 11 -16 9 -20 -7 -25 -23 -7 -26 -30 -6 -38 10 -4 13 -1
10 8 -7 17 34 41 48 27 6 -6 5 -12 -3 -17 -8 -6 -10 -4 -4 5 6 10 4 12 -9 7
-10 -4 -20 -7 -22 -7 -2 0 -4 -5 -4 -10 0 -6 6 -9 12 -8 7 2 13 -4 13 -12 0
-8 -7 -14 -16 -12 -9 1 -16 -4 -16 -12 0 -7 7 -13 15 -12 8 0 17 -5 20 -13 3
-9 0 -11 -7 -6 -9 5 -9 1 1 -14 7 -12 17 -21 22 -21 4 0 2 8 -5 17 -13 16 -12
17 4 4 12 -10 14 -17 7 -26 -7 -9 -6 -16 3 -24 17 -13 27 -5 21 17 -3 10 1 6
9 -7 12 -20 15 -21 20 -7 4 9 3 16 -2 16 -4 0 -8 6 -8 13 0 8 6 14 12 14 7 0
11 -12 9 -31 -3 -28 -2 -29 9 -11 7 11 18 21 25 23 8 1 11 -2 6 -9 -4 -8 1 -9
17 -5 13 3 18 3 12 0 -7 -3 -13 -10 -13 -15 0 -6 4 -8 9 -4 5 3 13 1 16 -5 5
-8 11 -7 21 1 8 6 14 9 14 5 0 -4 12 1 26 10 17 11 24 24 21 36 -3 10 -1 16 3
13 5 -3 11 -1 15 5 4 6 11 8 16 5 5 -3 6 1 3 9 -3 9 -10 13 -15 10 -15 -9 -10
3 8 17 14 12 16 12 9 -1 -4 -8 2 -4 13 10 12 15 18 33 15 44 -4 10 -2 16 3 13
5 -3 10 3 10 14 1 13 -2 17 -10 12 -7 -4 -7 -1 1 10 8 9 11 21 7 26 -3 6 0 8
8 5 19 -7 32 12 16 22 -8 5 -9 3 -4 -6 6 -9 4 -11 -5 -5 -9 6 -6 13 12 29 13
11 19 17 12 13 -8 -5 -11 0 -10 17 0 13 4 22 9 19 4 -2 7 2 7 11 0 8 -3 16 -7
19 -5 2 -3 2 4 1 14 -3 22 7 28 33 2 10 7 27 11 37 5 13 4 17 -4 12 -8 -5 -10
-2 -6 8 3 9 10 13 15 10 5 -3 9 2 9 11 0 11 -7 14 -26 11 -16 -3 -27 0 -31 10
-3 7 -10 11 -17 7 -6 -3 -8 -3 -4 2 4 4 2 15 -5 24 -11 14 -10 15 7 1 11 -8
22 -15 25 -15 3 0 5 -5 3 -12 -1 -6 5 -10 15 -8 10 2 22 4 26 4 5 1 5 6 1 13
-4 7 -3 8 5 4 6 -4 9 -11 6 -16 -3 -5 -2 -11 3 -14 4 -2 9 6 10 19 1 13 -3 27
-8 30 -13 8 -13 25 1 25 5 0 8 -4 5 -9 -6 -10 24 -25 32 -16 3 3 -1 5 -8 5 -7
0 -10 3 -7 7 4 3 2 12 -4 20 -14 16 2 18 19 1 8 -8 10 -5 6 16 -3 18 -1 25 6
21 6 -3 10 4 10 17 0 18 -2 20 -10 8 -15 -23 -12 -6 5 31 15 32 16 32 10 6 -4
-21 -2 -28 7 -24 7 2 12 12 10 22 -2 9 1 15 5 12 5 -3 9 3 10 13 1 14 -3 17
-15 13 -14 -5 -15 -3 -5 7 10 11 15 11 29 -1 12 -9 15 -10 10 -1 -4 6 -2 12 3
12 6 0 11 7 11 15 0 17 -16 20 -23 5 -3 -6 -4 -5 -3 2 1 7 13 14 25 14 27 2
50 31 46 61 -2 20 0 21 13 11 13 -12 14 -10 3 11 -8 15 -9 21 -2 17 22 -14 33
6 14 27 -14 17 -14 19 -1 9 11 -9 18 -10 23 -2 3 5 2 10 -4 10 -5 0 -9 8 -8
18 0 10 7 19 14 19 10 0 10 -4 1 -14 -8 -11 -7 -12 6 -7 11 4 15 13 11 25 -5
14 -1 19 12 19 15 0 16 2 3 10 -14 9 -13 11 10 14 6 0 9 4 8 7 -2 3 5 13 15
23 18 18 14 41 -5 30 -7 -4 -8 -2 -4 4 5 8 13 9 24 3 15 -8 18 -5 20 15 1 17
-2 23 -10 18 -7 -5 -8 -3 -4 5 5 7 14 10 22 7 7 -3 16 0 20 6 4 6 3 8 -4 4 -6
-3 -13 -2 -17 4 -3 5 1 10 10 10 8 0 18 7 21 15 4 8 10 12 15 9 6 -3 8 5 5 19
-3 17 2 31 15 43 10 9 16 21 12 27 -3 6 -1 7 6 3 9 -6 9 -11 0 -22 -6 -8 -8
-14 -4 -14 17 0 33 35 23 47 -8 10 -6 13 7 13 15 0 16 2 4 17 -8 9 -9 14 -4
11 6 -3 19 -2 30 3 19 7 19 8 1 8 -20 1 -20 1 0 17 10 8 13 13 7 9 -7 -3 -13
-2 -13 3 0 6 7 12 15 15 8 4 12 15 10 26 -3 14 1 18 11 14 10 -4 12 0 8 11 -4
10 0 18 10 22 13 5 14 9 5 20 -10 12 -8 13 6 8 13 -5 16 -4 11 4 -4 7 -2 12 6
12 10 0 9 3 -2 11 -12 9 -11 10 7 6 20 -4 21 -2 12 14 -9 18 -3 24 22 21 4 -1
5 12 4 28 -1 17 2 30 7 30 5 0 6 6 2 13 -5 7 -2 7 10 -2 15 -12 17 -12 14 0
-2 8 -7 17 -13 21 -5 4 0 8 13 8 13 0 20 4 17 10 -4 6 -12 8 -18 4 -7 -3 -4 1
7 10 11 9 15 20 10 28 -6 10 -4 10 9 -1 16 -13 17 -12 8 11 -7 19 -6 25 4 25
8 0 11 -5 8 -11 -4 -6 -2 -7 3 -3 5 5 10 13 10 18 1 5 2 14 3 20 0 5 7 7 14 3
7 -5 7 -2 -2 10 -8 9 -10 16 -5 15 21 -4 24 2 14 22 -10 19 -10 20 9 10 18
-10 19 -9 11 19 -6 20 -5 28 1 24 18 -10 41 17 28 33 -9 11 -9 12 4 8 8 -4 18
-1 23 6 5 8 3 10 -6 4 -8 -5 -11 -3 -8 6 3 8 11 13 17 11 9 -2 9 3 0 19 -7 15
-8 19 0 15 6 -4 19 -2 28 4 16 11 16 11 1 6 -10 -3 -20 -1 -23 5 -4 5 -1 8 6
7 7 -2 13 2 14 9 0 6 4 15 9 20 5 5 6 3 2 -4 -10 -17 2 -16 20 1 19 20 18 27
-3 19 -10 -3 -15 -3 -11 1 5 7 27 13 51 15 5 1 6 5 2 11 -3 5 -13 7 -23 4 -14
-5 -14 -4 -2 4 8 6 18 8 22 6 4 -3 8 0 8 5 0 6 -5 11 -12 11 -6 0 -8 3 -5 6 4
4 14 1 22 -6 14 -12 15 -10 11 13 -4 24 -3 26 14 17 16 -9 18 -8 13 6 -4 11 2
24 18 36 13 11 18 17 11 13 -11 -6 -11 -3 -1 13 7 12 16 19 20 16 11 -6 18 23
8 33 -5 5 -1 9 11 10 13 1 18 -2 14 -9 -4 -7 -2 -8 5 -4 6 4 9 11 6 16 -3 5 3
13 12 19 10 6 13 11 7 11 -5 0 -15 -5 -21 -11 -8 -8 -13 -8 -18 0 -3 6 -3 11
2 10 23 -6 43 13 31 29 -10 12 -10 14 0 8 12 -7 16 3 13 34 -2 13 -1 13 8 0 8
-12 13 -12 23 -2 8 8 8 12 1 12 -6 0 -14 7 -17 16 -6 15 -4 15 19 0 22 -15 24
-15 18 0 -4 10 1 20 11 26 9 5 14 14 10 20 -4 6 3 5 16 -2 15 -8 20 -8 16 -1
-12 19 -18 69 -7 51 5 -8 7 -18 4 -24 -3 -5 -1 -6 5 -3 5 4 9 18 8 32 -2 13 0
22 5 20 4 -3 10 -1 14 5 3 5 0 10 -7 11 -7 0 -5 4 5 8 10 4 18 10 18 14 -2 12
28 65 40 73 8 5 8 1 0 -14 -18 -34 -12 -37 13 -7 14 16 23 32 20 36 -2 4 1 11
7 15 7 4 9 3 6 -2 -3 -6 3 -15 13 -22 12 -7 21 -8 25 -2 3 6 11 10 18 10 6 0
2 -6 -8 -14 -18 -13 -18 -13 1 -24 14 -9 15 -12 4 -12 -9 0 -6 -6 10 -16 14
-8 17 -13 8 -10 -12 3 -15 1 -11 -9 3 -8 10 -12 17 -8 6 3 7 2 3 -2 -13 -15
-35 -14 -41 2 -4 8 -2 11 5 7 8 -5 8 -1 0 13 -6 11 -7 24 -3 28 4 5 1 5 -7 0
-9 -5 -12 -4 -7 3 5 8 1 10 -11 6 -15 -5 -15 -4 -3 5 12 8 11 10 -8 8 -29 -2
-28 -11 4 -25 14 -7 22 -17 19 -22 -14 -22 -13 -51 0 -57 8 -3 12 -9 9 -14 -3
-5 3 -6 12 -2 13 5 15 3 9 -7 -6 -9 -4 -11 5 -5 10 6 9 11 -5 22 -17 12 -13
18 9 14 4 -1 16 4 25 11 13 10 14 10 4 -2 -26 -28 -2 -73 28 -55 5 4 6 -1 3
-10 -5 -13 -9 -13 -22 -3 -13 11 -14 10 -6 -7 12 -24 11 -45 0 -65 -7 -11 -5
-11 10 2 28 24 57 2 40 -30 -7 -13 -14 -20 -17 -17 -3 3 -6 -2 -6 -10 0 -8 4
-12 8 -9 4 2 10 1 13 -4 3 -5 19 -7 35 -6 17 1 28 -2 25 -7 -3 -5 0 -9 7 -9 8
0 7 -5 -2 -16 -12 -15 -11 -16 11 -9 20 6 23 5 13 -5 -15 -16 31 -77 54 -72 8
2 13 -6 13 -20 0 -19 2 -20 10 -8 8 12 10 12 10 -5 0 -11 8 -25 18 -31 9 -6
18 -23 20 -38 2 -30 25 -59 38 -48 5 4 3 0 -4 -10 -11 -13 -10 -19 7 -30 12
-8 18 -18 14 -21 -6 -7 12 -11 31 -8 5 1 6 -5 3 -13 -4 -9 5 -23 21 -36 15
-12 22 -19 15 -16 -6 4 -15 2 -18 -4 -4 -6 -3 -10 2 -9 19 3 33 -2 33 -12 0
-5 -4 -8 -8 -5 -5 3 -9 -1 -9 -9 0 -8 4 -12 8 -10 12 8 17 -43 5 -55 -8 -8 -7
-11 3 -8 7 2 16 -3 19 -11 3 -8 0 -11 -7 -7 -15 10 -14 -3 3 -19 7 -8 17 -11
22 -7 5 4 2 -2 -6 -12 -12 -15 -12 -20 -2 -23 6 -3 9 -10 5 -16 -4 -7 1 -6 10
2 17 14 21 10 18 -20 -1 -10 8 -19 24 -23 14 -4 25 -11 25 -17 0 -8 -5 -7 -15
1 -9 7 -18 10 -21 7 -3 -3 18 -18 48 -33 29 -14 50 -23 46 -19 -9 10 10 35 26
35 6 0 4 -5 -6 -10 -10 -7 -14 -17 -10 -32 3 -14 2 -19 -6 -14 -7 4 -12 3 -12
-3 0 -5 9 -9 19 -8 12 1 17 7 14 17 -3 10 0 9 7 -3 10 -15 8 -21 -7 -32 -10
-8 -13 -15 -7 -15 5 0 15 5 22 12 9 9 12 9 12 0 0 -7 8 -12 18 -12 16 1 16 1
0 11 -20 11 -24 29 -7 29 5 0 7 -4 4 -10 -8 -13 8 -13 22 1 8 8 13 8 18 0 4
-7 1 -10 -7 -9 -8 2 -12 -5 -10 -19 3 -18 -1 -22 -15 -17 -10 3 -6 -3 10 -12
15 -10 27 -22 27 -26 0 -5 6 -8 13 -8 6 1 2 9 -10 19 -15 12 -18 22 -12 32 7
11 9 10 9 -4 0 -12 4 -16 13 -11 6 4 9 3 4 -1 -4 -5 1 -17 10 -28 10 -11 13
-18 7 -14 -6 3 -11 0 -11 -7 0 -8 8 -11 19 -8 20 5 25 -13 6 -21 -7 -3 3 -4
22 -1 27 3 31 2 15 -5 -19 -9 -19 -10 2 -10 12 -1 25 -6 29 -13 5 -8 2 -9 -11
-4 -18 7 -18 6 0 -14 18 -20 31 -27 21 -12 -2 4 3 8 13 8 10 0 18 -6 18 -13 0
-7 -5 -9 -10 -6 -6 3 -7 1 -3 -6 4 -6 15 -10 24 -9 9 2 17 -4 17 -12 0 -8 10
-16 23 -18 13 -2 20 -8 16 -14 -5 -7 -2 -9 8 -6 11 5 14 0 12 -18 -1 -13 2
-22 7 -18 5 3 9 0 9 -7 0 -7 3 -9 6 -6 4 4 1 13 -5 21 -9 11 -9 16 0 22 7 4 9
3 5 -4 -3 -6 -2 -13 4 -17 5 -3 10 -14 10 -25 0 -21 23 -33 38 -18 7 7 10 3 8
-15 -2 -15 1 -24 5 -21 5 3 9 11 9 19 0 8 5 17 11 21 7 4 9 0 5 -13 -4 -13 0
-25 11 -34 16 -13 17 -12 4 4 -9 12 -10 17 -2 17 7 0 9 4 6 10 -3 6 1 7 9 4 9
-3 16 -10 16 -16 0 -5 -4 -7 -9 -4 -5 4 -4 -5 2 -19 7 -14 16 -25 20 -25 4 0
3 9 -3 20 -8 14 -8 20 0 20 6 0 8 6 4 13 -4 6 2 4 14 -7 12 -10 21 -21 20 -25
-4 -22 15 -41 31 -29 9 7 13 8 9 4 -11 -13 33 -48 51 -41 10 3 9 0 -3 -10 -27
-21 -6 -19 24 2 25 16 25 16 7 -4 -17 -19 -17 -21 0 -34 16 -13 17 -12 4 4 -9
11 -10 17 -2 17 19 0 26 -5 23 -17 -1 -7 8 -17 20 -23 21 -10 21 -10 5 3 -16
13 -16 15 -2 21 9 3 13 2 10 -4 -3 -6 -2 -10 3 -10 5 0 12 -9 15 -20 3 -11 13
-20 22 -20 9 0 14 -4 11 -9 -3 -4 6 -7 20 -5 22 2 23 0 12 -14 -11 -14 -10
-15 5 -9 10 4 27 2 37 -3 11 -6 21 -6 25 -1 3 5 0 11 -7 14 -8 2 -7 3 2 3 8
-1 14 -9 12 -19 -2 -9 2 -17 8 -17 6 0 8 -6 4 -12 -6 -10 -4 -10 8 0 13 10 17
10 21 0 3 -8 6 -6 6 6 1 12 -4 16 -14 12 -8 -3 -15 -2 -15 3 0 5 9 11 20 14
10 3 19 2 18 -2 -3 -25 6 -38 35 -51 41 -19 51 -19 59 0 6 13 7 12 7 -2 1 -9
-7 -22 -16 -28 -16 -10 -15 -10 3 -5 14 4 24 0 28 -10 3 -8 11 -15 18 -14 10
0 10 2 1 6 -7 2 -13 9 -13 14 0 16 21 9 41 -14 10 -12 18 -16 19 -9 0 6 6 12
14 12 8 0 16 3 19 8 2 4 2 2 1 -5 -3 -12 18 -24 39 -22 7 0 3 5 -8 10 l-20 9
20 -3 c12 -2 19 -9 17 -18 -1 -9 4 -16 13 -16 8 0 12 4 9 8 -2 4 0 10 6 14 5
3 19 -9 31 -27 12 -18 19 -25 15 -15 -7 23 3 22 25 -5 11 -11 19 -17 19 -12 0
6 -6 16 -12 23 -11 11 -9 11 9 0 12 -7 19 -17 17 -21 -3 -4 0 -8 5 -8 6 0 11
6 11 13 0 8 3 7 9 -3 6 -8 8 -17 6 -20 -2 -3 11 -5 28 -5 22 0 31 -4 29 -14
-2 -11 0 -12 11 -3 19 16 30 3 14 -17 -11 -14 -10 -14 6 -2 19 15 24 47 5 35
-7 -5 -8 -3 -3 6 6 10 11 10 20 -3 7 -9 15 -15 19 -12 3 3 2 -1 -4 -7 -13 -16
-13 -28 1 -28 5 0 7 5 4 10 -3 5 1 10 9 10 9 0 16 -6 16 -14 0 -8 4 -18 10
-21 6 -4 7 1 3 12 -3 10 -2 15 2 10 5 -4 17 1 28 10 19 17 20 17 9 -3 -9 -17
-8 -20 11 -21 12 0 30 -4 40 -8 9 -4 17 -3 17 2 0 5 -7 10 -15 11 -8 1 -22 3
-30 4 -10 1 -12 5 -6 11 7 7 15 6 26 -3 8 -7 15 -9 15 -4 0 5 11 -4 25 -20 14
-16 25 -24 25 -17 0 8 5 8 19 -1 11 -7 17 -17 14 -23 -4 -5 -2 -6 3 -2 5 5 9
13 9 19 0 6 8 12 19 14 14 2 16 0 7 -9 -20 -20 -13 -36 15 -31 23 4 24 3 14
-18 -9 -19 -9 -21 2 -7 7 9 19 14 26 11 9 -3 10 -8 2 -17 -8 -9 -4 -11 16 -7
19 3 25 1 20 -7 -4 -6 -2 -11 4 -11 6 0 9 -4 6 -8 -8 -13 47 -13 56 0 5 8 7 2
4 -14 -3 -15 0 -30 5 -34 5 -3 6 -10 3 -16 -4 -7 -2 -8 5 -4 6 4 9 11 6 16 -3
4 4 6 14 3 11 -3 22 -12 26 -20 4 -13 3 -14 -10 -3 -13 11 -14 10 -9 -4 7 -19
9 -19 36 -5 15 8 19 8 14 0 -4 -6 -4 -11 1 -12 4 0 16 -2 26 -4 9 -2 15 1 11
6 -3 5 -10 7 -15 4 -5 -4 -9 -2 -9 4 0 5 9 9 20 8 11 -1 20 -4 20 -7 0 -3 11
-6 24 -6 16 0 22 5 19 13 -4 9 0 11 11 7 9 -3 13 -11 9 -17 -3 -6 -1 -7 5 -3
7 4 12 15 12 24 0 10 3 13 8 7 4 -5 14 -11 22 -13 12 -3 13 -1 3 9 -7 7 -13
18 -13 23 0 6 5 4 10 -4 9 -13 11 -13 20 0 10 15 16 2 10 -25 -1 -5 8 -1 19 9
14 13 18 23 11 31 -7 8 -5 12 5 12 8 0 11 -5 8 -10 -4 -6 1 -8 11 -4 10 4 22
7 27 7 6 0 7 6 3 12 -4 7 1 6 12 -3 10 -9 27 -15 37 -13 9 2 25 6 35 7 9 2 18
9 18 15 1 7 3 13 4 15 6 5 7 46 1 42 -4 -2 -12 5 -19 16 -14 21 -3 25 18 6 11
-9 11 -8 0 8 -8 11 -19 23 -23 26 -5 3 -10 15 -12 25 -2 10 -4 19 -5 19 -1 0
-3 13 -4 28 -3 30 8 42 38 42 11 0 21 7 23 15 4 13 3 13 -6 0 -7 -9 -11 -10
-11 -3 0 6 4 14 9 17 14 9 21 48 7 43 -13 -5 -15 38 -1 50 4 5 5 2 1 -4 -4 -7
-3 -13 3 -13 6 0 8 14 6 33 -3 17 -3 26 1 20 9 -19 25 -16 22 4 -2 10 4 18 12
18 24 2 33 -7 19 -16 -10 -6 -10 -9 -2 -9 6 0 15 5 18 10 4 6 12 8 18 4 7 -3
3 2 -7 10 -11 9 -15 16 -9 16 7 0 19 -7 27 -16 9 -8 16 -11 16 -5 0 5 10 11
22 13 26 4 34 38 12 54 -13 10 -13 12 1 18 11 4 14 2 9 -6 -4 -7 -3 -8 4 -4
17 10 -18 55 -38 48 -12 -5 -13 -3 -3 9 14 17 -21 21 -46 5 -11 -7 -13 -5 -8
6 4 12 1 14 -14 11 -10 -3 -16 -10 -13 -17 3 -6 -1 -3 -9 6 -8 10 -18 14 -22
10 -5 -4 -5 -2 -2 4 5 10 -50 37 -70 33 -20 -3 -34 2 -28 11 3 6 1 10 -5 10
-6 0 -8 5 -4 12 4 7 3 8 -4 4 -6 -4 -10 -12 -8 -19 1 -7 1 -8 -2 -4 -2 4 -11
2 -20 -5 -13 -11 -14 -11 -7 2 18 29 14 39 -10 30 -18 -7 -22 -5 -21 8 0 9 -4
17 -11 17 -6 0 -15 4 -20 9 -4 5 -3 6 4 2 6 -3 14 -2 17 3 4 5 -1 8 -10 7 -8
-1 -19 -8 -23 -15 -6 -10 -10 -9 -14 4 -5 11 -3 14 6 9 8 -5 8 -2 -2 9 -7 9
-17 14 -22 11 -14 -8 -11 -16 4 -8 6 4 8 3 4 -1 -10 -12 -37 -15 -37 -5 0 4
-7 11 -16 14 -15 6 -15 4 0 -18 10 -16 12 -27 6 -31 -6 -4 -9 -3 -8 2 3 7 -7
15 -14 12 -25 -7 -48 -7 -48 0 0 6 9 8 20 6 13 -3 18 0 14 7 -5 7 -2 8 7 3 12
-8 12 -6 0 8 -14 18 -22 22 -20 10 3 -21 -3 -24 -18 -12 -14 12 -16 12 -8 0 6
-11 4 -13 -10 -7 -14 5 -15 4 -7 -7 8 -9 8 -17 0 -27 -8 -13 -9 -13 -5 1 3 9
-4 21 -15 28 -11 7 -17 8 -14 3 3 -6 -1 -13 -10 -16 -8 -3 -12 -2 -9 3 3 5 0
13 -6 17 -7 4 -9 3 -6 -2 3 -6 2 -16 -4 -24 -7 -13 -9 -12 -9 3 0 21 -13 22
-29 3 -15 -18 -51 -17 -51 1 0 7 -4 13 -9 13 -15 0 -41 -42 -34 -53 3 -6 1 -7
-5 -3 -9 5 -6 19 9 49 12 26 14 34 4 23 -11 -14 -15 -16 -15 -5 0 12 -2 12
-10 -1 -9 -13 -10 -13 -10 0 0 13 -1 13 -10 0 -12 -18 -47 0 -42 22 2 7 0 10
-4 5 -4 -4 -19 0 -33 10 -24 15 -25 15 -12 0 18 -22 9 -21 -40 3 -37 19 -42
20 -71 6 -25 -13 -28 -13 -18 -1 10 12 7 15 -14 21 -14 3 -26 9 -26 13 0 4 -6
8 -14 8 -8 0 -12 -6 -9 -14 3 -7 8 -11 12 -9 3 2 15 0 26 -5 18 -7 17 -8 -5
-6 -14 1 -30 6 -37 10 -6 4 -14 1 -17 -5 -3 -7 -3 -3 0 10 4 17 1 22 -14 22
-10 0 -24 10 -31 22 -6 13 -9 15 -7 6 3 -10 1 -20 -5 -23 -5 -4 -9 -3 -8 2 4
25 -1 38 -10 23 -6 -8 -7 -19 -4 -25 4 -5 3 -7 -2 -3 -4 4 -15 2 -24 -4 -9 -7
-7 -2 4 11 19 23 19 23 0 37 -13 9 -22 11 -29 4 -16 -16 -30 -12 -16 5 11 13
10 14 -4 9 -9 -3 -16 -11 -16 -17 0 -6 -3 -7 -6 -4 -4 4 -1 14 7 24 8 9 9 14
2 10 -6 -4 -15 -3 -18 3 -5 8 -11 7 -21 -1 -9 -7 -14 -8 -13 -3 3 20 -2 32
-17 38 -14 5 -15 4 -5 -8 9 -11 9 -16 -1 -22 -7 -4 -10 -4 -6 1 4 4 0 14 -8
22 -8 8 -11 19 -8 25 4 6 2 8 -3 5 -6 -4 -16 0 -23 8 -9 11 -17 12 -33 4 -16
-9 -19 -9 -14 4 8 21 -3 29 -21 14 -13 -10 -15 -9 -9 6 4 11 3 16 -3 12 -6 -3
-10 -1 -10 6 0 8 -3 9 -13 0 -19 -15 -30 -1 -14 17 10 13 8 14 -12 7 -16 -5
-21 -4 -17 4 5 7 1 8 -11 4 -15 -6 -16 -4 -6 8 13 16 -31 19 -58 4 -8 -5 -5 2
6 15 11 13 14 20 7 16 -15 -9 -45 12 -36 25 3 5 0 9 -6 9 -17 0 -40 26 -32 36
4 5 0 3 -9 -4 -13 -9 -16 -9 -16 3 0 8 5 15 10 15 6 0 7 3 4 6 -4 4 -14 1 -23
-7 -16 -13 -16 -12 -5 9 6 12 8 21 4 20 -13 -4 -54 28 -46 36 4 4 -1 4 -12 0
-17 -7 -18 -6 -7 8 10 13 9 18 -5 29 -14 12 -16 12 -8 0 5 -10 4 -12 -3 -7 -7
4 -12 15 -12 25 0 9 -6 23 -12 30 -10 11 -10 13 0 7 21 -12 13 4 -15 31 -16
15 -22 23 -16 19 9 -5 11 -2 7 9 -4 10 -14 15 -25 12 -15 -4 -16 -1 -8 20 5
13 5 22 1 19 -4 -2 -14 -1 -22 5 -8 5 -10 9 -4 9 6 0 11 7 11 15 0 12 -3 12
-16 2 -12 -9 -13 -9 -7 1 4 7 2 12 -4 12 -6 0 -8 5 -5 10 3 6 -2 10 -12 10
-15 0 -16 2 -3 10 13 8 8 14 -11 12 -4 -1 -6 6 -5 16 0 10 -6 16 -16 16 -10
-1 -16 2 -13 6 3 5 1 11 -5 15 -6 4 -8 10 -6 14 11 17 -47 4 -61 -14 -13 -16
-15 -17 -10 -3 3 10 2 20 -3 23 -6 4 -10 12 -10 18 0 7 4 6 10 -3 5 -8 10 -10
10 -4 0 20 -27 37 -34 22 -3 -7 -3 -2 1 12 5 23 5 24 -13 10 -17 -13 -17 -12
1 9 11 14 14 21 8 17 -8 -4 -13 -1 -13 9 0 10 -5 14 -12 10 -7 -4 -4 1 6 9 18
15 19 16 2 16 -12 0 -16 5 -12 15 3 8 -4 24 -15 34 -13 12 -18 24 -14 32 5 8
4 10 -3 5 -7 -4 -12 -2 -12 3 0 6 -7 11 -15 11 -9 0 -12 6 -9 15 4 9 -4 23
-17 35 -21 18 -22 19 -4 14 19 -5 19 -5 3 9 -10 8 -18 24 -18 36 0 12 -4 19
-10 16 -14 -9 -12 8 3 24 10 11 10 13 0 7 -11 -6 -15 4 -12 30 0 3 -9 13 -20
23 -14 12 -17 21 -11 29 6 7 7 10 4 7 -4 -2 -13 2 -20 10 -16 16 -19 29 -4 20
6 -3 10 -1 10 4 0 6 -5 11 -11 11 -5 0 -8 4 -4 9 3 5 -2 16 -10 24 -8 9 -15
20 -15 26 0 6 -5 11 -12 11 -6 0 -8 3 -4 7 4 5 14 -1 22 -11 8 -11 14 -15 14
-9 0 7 -5 15 -10 18 -6 4 -8 11 -5 16 3 5 -1 6 -9 3 -9 -3 -16 -1 -16 5 0 6 6
11 13 11 9 0 8 3 -2 9 -8 5 -10 14 -6 22 6 9 3 11 -10 5 -13 -5 -15 -3 -8 6 8
11 9 26 4 69 -1 8 -7 7 -18 -2 -16 -12 -17 -12 -7 1 19 26 23 70 6 70 -12 0
-12 2 -1 17 12 15 12 16 -5 10 -16 -6 -17 -5 -7 7 13 15 6 40 -8 32 -4 -3 -8
2 -8 10 0 10 4 11 11 4 5 -5 14 -10 20 -10 5 0 -1 9 -13 19 -20 18 -21 20 -4
24 17 4 17 5 1 6 -19 1 -23 12 -11 25 11 10 12 37 2 30 -5 -3 -6 -10 -3 -16 4
-7 2 -8 -4 -4 -15 9 -15 12 4 30 14 15 14 16 -1 16 -12 0 -14 4 -5 19 7 15 6
23 -5 35 -18 17 -20 30 -3 20 8 -5 9 0 6 14 -4 12 -2 22 4 22 5 0 6 5 3 11 -4
6 -14 8 -22 5 -8 -3 -11 -1 -8 4 3 6 13 10 21 10 8 0 14 5 14 11 0 5 -4 7 -10
4 -14 -9 -13 8 2 23 9 9 7 13 -5 18 -23 8 -22 25 1 17 15 -5 14 -4 -2 9 -10 8
-16 20 -12 26 3 5 0 13 -6 15 -9 4 -9 6 1 6 11 1 10 5 -5 17 -15 13 -16 15 -2
10 12 -3 15 -1 11 10 -3 7 -9 14 -15 14 -5 0 -7 8 -4 18 4 11 -1 25 -13 36
-12 11 -17 25 -13 38 4 16 2 19 -9 13 -12 -8 -12 -6 0 8 7 9 9 17 4 17 -10 0
-12 7 -15 54 -1 14 -6 22 -10 20 -7 -5 -12 10 -9 29 0 4 -4 7 -11 7 -6 0 -8 3
-5 7 4 3 1 13 -6 21 -9 13 -9 14 0 8 9 -5 11 -2 7 8 -3 8 -12 17 -21 20 -13 5
-13 9 -2 23 12 14 12 16 0 8 -11 -6 -13 -4 -8 8 4 10 1 17 -6 17 -8 0 -6 4 3
10 9 6 10 10 3 10 -6 0 -10 9 -8 20 2 11 0 20 -4 20 -5 0 -6 12 -3 26 3 16 1
25 -5 21 -6 -4 -10 9 -11 29 -1 19 -5 40 -9 47 -11 17 -11 47 0 40 5 -3 4 4
-2 15 -9 18 -10 33 -1 72 0 3 7 -3 14 -13 12 -16 14 -16 20 -2 4 11 2 14 -7 9
-6 -4 -9 -4 -5 1 4 4 0 14 -10 22 -15 12 -14 13 8 1 14 -7 29 -11 33 -10 5 1
6 -2 2 -8 -3 -5 -1 -10 4 -10 6 0 11 -5 11 -11 0 -5 -6 -7 -12 -4 -7 4 -2 -3
12 -16 14 -12 24 -26 22 -31 -1 -5 2 -7 8 -3 5 3 11 1 11 -4 1 -6 3 -15 4 -21
1 -5 3 -16 4 -22 1 -9 4 -8 11 2 9 13 11 13 20 0 6 -9 10 -11 10 -3 0 7 -9 17
-20 23 -21 11 -27 30 -9 30 5 0 7 -4 4 -10 -3 -5 1 -10 9 -10 10 0 13 6 9 17
-5 12 -3 14 7 8 8 -5 11 -4 6 3 -4 6 -14 8 -23 5 -12 -5 -14 -3 -8 7 6 9 4 11
-5 5 -10 -6 -12 -4 -7 8 3 9 2 19 -4 22 -5 4 -6 11 -3 17 4 6 2 8 -3 5 -13 -8
-36 17 -25 28 4 4 -4 4 -18 0 -24 -7 -24 -6 -6 7 20 16 14 43 -7 32 -7 -3 -4
1 6 9 18 15 18 16 0 27 -16 10 -16 11 0 6 9 -3 17 -1 17 4 0 5 8 7 18 4 9 -3
6 1 -7 9 -20 12 -21 15 -6 21 9 3 21 4 26 1 5 -4 6 1 3 9 -3 9 -10 14 -14 11
-5 -3 -11 -1 -14 4 -3 5 7 7 23 6 21 -2 28 1 24 11 -3 8 -10 11 -15 8 -6 -4
-2 5 7 20 16 24 34 39 20 16 -3 -5 -1 -10 4 -10 15 0 14 13 -1 29 -11 11 -10
13 3 8 15 -5 19 3 20 46 0 19 19 24 19 5 0 -6 2 -9 5 -7 9 10 -8 49 -19 42 -6
-4 -5 1 3 10 7 9 22 17 33 17 10 0 17 4 13 10 -3 5 -13 7 -23 4 -9 -3 -6 1 7
9 14 8 26 22 27 31 1 9 -2 14 -6 11 -5 -3 -12 0 -16 6 -4 7 -3 9 3 6 6 -4 17
1 24 10 8 9 9 14 3 10 -6 -3 -11 0 -11 8 0 8 4 12 8 10 3 -3 12 2 18 9 10 11
8 17 -6 26 -16 10 -16 11 0 6 9 -3 17 -1 17 5 0 6 7 9 14 6 10 -4 13 -1 9 8
-3 8 -10 12 -17 9 -6 -3 -2 2 8 10 11 9 16 16 10 17 -5 0 1 4 14 9 12 5 22 15
22 22 0 9 -3 9 -10 -2 -5 -8 -10 -10 -10 -4 0 5 9 20 20 32 12 12 16 22 10 22
-6 0 -8 5 -5 10 4 6 11 8 16 5 5 -3 6 0 3 8 -3 8 0 18 5 22 6 3 9 10 6 15 -3
5 3 15 13 22 10 7 22 20 27 28 8 13 7 13 -10 0 -17 -14 -17 -14 -5 7 8 11 19
19 25 16 8 -3 11 5 9 22 -1 15 3 28 11 31 7 3 12 14 10 24 -3 13 1 17 11 13 9
-3 14 1 14 12 0 10 5 13 12 9 8 -5 9 -2 5 10 -6 14 -3 17 8 12 9 -3 13 -2 10
4 -3 6 2 10 12 11 10 0 13 3 6 6 -9 3 -3 15 17 35 17 16 28 33 25 38 -3 4 2
10 10 14 8 3 15 13 15 21 0 10 -5 13 -12 9 -7 -4 -8 -3 -4 5 4 6 12 9 17 6 5
-4 9 1 9 9 0 9 8 16 18 16 14 0 15 2 2 10 -10 6 -11 10 -2 10 6 0 12 7 12 16
0 8 4 13 9 9 6 -3 8 3 6 14 -2 11 3 22 11 25 8 3 14 15 14 26 0 11 7 23 16 27
8 3 13 11 10 19 -3 7 2 18 9 24 8 7 12 17 8 23 -4 6 -1 7 6 3 9 -6 8 -13 -5
-27 -9 -10 -12 -19 -7 -19 10 0 25 24 27 43 1 4 6 11 12 15 6 4 10 15 8 25 -2
12 2 17 11 13 8 -3 17 -1 20 4 4 6 1 10 -5 10 -6 0 -8 5 -5 10 4 6 11 7 17 4
8 -5 9 -1 4 11 -5 14 -4 15 7 7 10 -9 13 -6 13 16 -1 21 3 26 18 24 17 -3 18
-2 7 12 -12 14 -11 16 3 10 9 -3 16 -2 16 4 0 6 -5 12 -12 14 -7 3 -5 7 6 11
10 4 15 3 11 -3 -11 -18 5 -11 32 14 17 16 24 30 19 42 -5 13 -4 15 7 5 18
-15 35 5 32 37 -1 13 2 25 7 28 5 3 7 0 6 -7 -2 -6 3 -14 11 -17 8 -3 11 0 7
7 -4 6 -2 11 4 11 6 0 10 8 8 18 -1 9 2 18 7 19 6 1 9 -6 7 -15 -3 -14 -1 -13
11 3 8 11 13 27 12 37 -2 10 1 21 7 24 6 4 8 3 5 -3 -4 -6 -1 -13 7 -16 10 -4
13 3 10 31 -2 27 -1 33 6 22 8 -12 11 -13 19 -1 7 11 10 11 15 0 3 -8 4 -4 2
7 -2 14 1 21 9 20 18 -3 47 -28 40 -34 -3 -3 -12 3 -20 14 -13 18 -14 18 -8
-3 3 -12 14 -25 24 -28 10 -4 19 -13 19 -21 0 -8 6 -14 13 -14 8 0 8 -3 -2 -9
-8 -5 -11 -16 -8 -25 4 -9 1 -16 -5 -16 -6 0 -8 -3 -5 -6 4 -4 13 -1 21 5 8 7
20 10 26 6 13 -8 41 25 35 42 -2 6 1 14 8 17 9 3 8 8 -3 16 -13 10 -12 11 3 6
10 -3 21 -6 23 -6 3 0 2 -5 -2 -12 -4 -7 -3 -8 5 -4 9 6 9 11 1 21 -8 10 -8
15 1 21 7 4 9 3 6 -3 -4 -6 0 -14 9 -17 12 -4 15 -2 10 9 -3 8 -1 15 4 15 5 0
7 12 5 28 -2 15 -2 21 1 14 5 -10 9 -10 20 -1 12 9 12 15 2 27 -10 13 -10 14
0 8 8 -5 12 0 12 13 0 12 9 26 20 33 11 7 20 16 20 21 0 4 -5 5 -12 1 -6 -4 4
15 23 42 18 27 32 53 31 59 -2 5 0 7 4 3 4 -4 13 -3 20 3 8 7 14 6 20 -2 4 -7
3 -9 -3 -6 -6 4 -18 -2 -27 -12 -13 -14 -14 -21 -5 -27 7 -4 10 -3 6 3 -4 6 5
15 18 21 16 8 23 17 19 27 -4 9 -3 15 2 14 21 -4 28 2 14 11 -13 8 -13 10 2
10 21 0 32 16 17 26 -8 5 -9 3 -4 -6 5 -9 4 -11 -4 -6 -6 4 -9 12 -5 17 3 5
10 7 15 4 5 -4 9 -1 9 5 0 6 5 8 13 4 8 -5 7 -2 -2 10 -13 15 -12 19 5 34 10
9 13 10 6 2 -16 -18 -15 -27 3 -34 8 -3 14 -2 14 2 -4 27 3 44 16 38 8 -3 15
-1 15 5 0 6 5 7 10 4 9 -6 15 8 11 29 -1 5 7 6 19 3 11 -3 23 -1 26 4 3 5 10
6 16 3 7 -4 8 -2 4 5 -6 9 -11 9 -22 0 -8 -6 -14 -8 -14 -5 0 11 30 39 30 29
0 -4 7 1 15 11 8 11 15 15 15 10 0 -6 -5 -15 -11 -21 -7 -7 -6 -12 5 -16 9 -4
15 -3 14 1 -1 4 3 17 10 28 6 12 9 24 7 28 -3 3 -2 3 2 0 4 -3 8 -13 8 -21 0
-9 8 -17 18 -19 9 -1 15 2 11 7 -3 5 -10 6 -16 3 -7 -5 -8 -2 -4 5 5 7 14 10
21 7 7 -2 16 2 19 10 4 9 11 12 18 8 8 -5 7 0 -2 11 -14 17 -14 18 7 7 16 -9
24 -9 29 0 5 7 3 8 -6 3 -8 -5 -11 -3 -8 6 3 8 11 14 19 14 8 1 13 7 11 14 -1
7 2 10 7 6 6 -3 8 -13 5 -23 -5 -13 -4 -14 4 -4 5 8 13 13 18 12 5 -1 10 4 12
12 3 11 2 11 -6 0 -7 -11 -10 -11 -15 3 -4 9 -3 13 2 10 5 -3 12 -1 16 5 3 5
12 10 18 10 8 0 8 -3 -1 -9 -10 -6 -9 -10 7 -14 12 -3 24 0 28 5 3 7 1 8 -5 4
-12 -7 -8 32 4 43 4 3 5 -2 1 -11 -3 -10 0 -19 10 -22 13 -5 13 -9 2 -24 -11
-14 -11 -15 1 -5 10 9 17 10 27 2 7 -7 14 -9 14 -5 1 3 3 11 4 16 1 6 3 13 4
16 0 4 13 -1 27 -11 18 -11 24 -13 19 -4 -5 8 -4 11 0 6 5 -4 18 1 29 10 21
18 21 18 4 -3 -22 -25 -22 -30 -4 -37 8 -3 13 1 12 10 0 9 6 18 14 20 12 4 12
3 2 -5 -11 -7 -8 -11 12 -14 20 -4 24 -2 16 7 -7 8 -4 11 13 10 12 -1 25 2 28
7 3 5 9 3 12 -5 4 -11 0 -15 -14 -12 -10 2 -19 0 -19 -6 0 -11 28 -7 56 9 12
6 24 9 27 6 3 -3 3 5 0 18 -5 23 -5 23 10 3 16 -20 16 -20 12 2 -4 24 31 25
47 1 5 -8 8 -9 8 -2 0 6 -7 17 -15 24 -8 7 -15 18 -14 24 0 7 2 6 6 -2 2 -6
10 -9 15 -6 6 4 8 2 5 -3 -4 -6 2 -13 13 -16 11 -3 23 -1 26 4 3 5 2 8 -3 7
-4 -2 -8 2 -8 7 0 6 4 9 9 7 5 -2 6 3 3 11 -3 7 1 14 9 14 7 0 10 -5 7 -10
-12 -19 -15 -87 -4 -87 6 0 11 -5 11 -11 0 -5 -4 -8 -8 -5 -5 3 -9 -2 -9 -10
0 -8 6 -13 12 -10 18 6 35 -14 28 -32 -4 -9 -2 -13 4 -9 14 9 20 -9 17 -50 -1
-18 3 -33 8 -33 5 0 6 4 3 10 -3 6 1 7 10 3 9 -3 13 -9 8 -12 -4 -3 -15 -15
-23 -26 -13 -18 -13 -19 0 -9 11 9 18 9 27 -1 10 -11 9 -15 -5 -18 -11 -3 -9
-5 7 -6 23 -1 24 -2 6 -14 -14 -11 -15 -16 -5 -22 9 -5 11 -4 6 3 -4 7 -2 12
3 12 10 0 16 -29 12 -52 0 -5 4 -8 10 -8 5 0 7 -6 3 -12 -5 -10 -4 -10 6 -1
18 16 43 6 27 -12 -7 -7 -16 -10 -21 -7 -5 3 -6 0 -2 -7 6 -9 11 -9 22 0 12
10 15 10 12 -2 -2 -8 -7 -17 -13 -21 -6 -5 -6 -8 2 -8 7 0 17 8 23 18 12 18
10 9 -7 -35 -6 -16 -5 -17 12 -3 10 8 16 10 12 4 -4 -7 1 -18 10 -25 9 -8 14
-9 10 -3 -7 12 29 33 56 32 9 -1 17 -6 17 -11 0 -5 8 -3 17 4 11 10 14 10 9 2
-7 -13 4 -17 34 -13 10 1 9 -3 -5 -14 -22 -17 -13 -21 14 -6 15 8 17 6 14 -14
-3 -13 1 -27 8 -31 7 -5 10 -4 6 3 -10 15 2 39 21 47 9 3 13 3 9 -1 -4 -4 -2
-13 5 -21 6 -7 8 -16 5 -20 -12 -11 14 -32 31 -26 15 6 16 5 2 -12 -14 -17
-13 -18 4 -12 16 6 17 5 6 -7 -6 -9 -10 -21 -7 -28 4 -8 6 -7 6 5 2 30 17 18
19 -15 2 -25 0 -29 -8 -18 -5 8 -10 10 -10 4 0 -6 7 -17 15 -24 9 -7 14 -19
11 -27 -3 -8 -1 -11 4 -8 6 3 10 2 10 -4 0 -5 -5 -13 -10 -16 -6 -4 -8 -10 -5
-15 3 -5 -3 -16 -12 -26 -16 -16 -16 -17 -1 -12 17 7 28 -8 21 -29 -3 -7 -9
-13 -15 -13 -7 0 -7 5 1 13 8 10 7 14 -4 14 -7 0 -13 -5 -12 -11 1 -6 -4 -10
-12 -8 -12 3 -12 0 -1 -12 15 -19 24 -21 14 -3 -4 7 -3 9 2 4 14 -13 6 -22
-18 -22 -13 0 -24 -6 -24 -12 -3 -26 -5 -28 -15 -13 -8 12 -9 9 -4 -9 6 -19 4
-23 -9 -18 -13 5 -14 3 -4 -13 7 -10 16 -16 22 -13 5 4 6 1 2 -6 -5 -7 -14
-10 -22 -7 -8 3 -11 0 -7 -10 3 -7 10 -14 17 -15 6 0 2 -4 -9 -9 -13 -6 -15
-9 -5 -9 13 -1 13 -2 0 -11 -10 -6 -11 -10 -2 -10 6 0 12 -5 12 -11 0 -6 -7
-8 -17 -4 -14 5 -15 4 -6 -6 8 -8 9 -18 2 -31 -5 -10 -6 -18 -2 -17 22 4 25
-3 7 -17 -10 -8 -13 -13 -6 -9 6 3 12 0 12 -7 1 -8 6 -6 15 6 13 18 14 18 12
-2 0 -11 -4 -20 -7 -20 -19 2 -30 -3 -25 -12 4 -6 11 -7 17 -4 7 4 8 2 4 -5
-4 -6 -11 -9 -16 -6 -5 3 -12 1 -15 -5 -4 -6 -3 -10 2 -9 20 4 24 -2 12 -18
-12 -14 -12 -16 0 -9 9 6 12 5 9 -5 -3 -8 -12 -13 -19 -11 -8 1 -5 -4 5 -13
14 -11 16 -15 5 -15 -8 0 -10 -3 -4 -8 6 -4 11 -13 13 -21 3 -12 1 -12 -13 -1
-15 12 -15 11 -4 -13 10 -23 9 -30 -7 -49 -10 -13 -12 -17 -4 -10 8 6 18 12
23 12 6 0 5 -5 0 -12 -18 -23 -25 -52 -10 -40 10 8 13 6 13 -9 0 -10 -4 -19
-9 -19 -5 0 -1 -7 7 -16 9 -8 20 -13 25 -10 5 3 7 -4 3 -16 -4 -18 -2 -20 14
-14 10 4 16 4 12 1 -8 -8 28 -45 45 -45 8 0 7 -4 -3 -10 -14 -9 13 -16 43 -11
4 0 6 -2 6 -6 -6 -35 2 -55 16 -43 9 7 18 10 22 6 3 -3 1 -6 -5 -6 -7 0 -12
-5 -12 -10 0 -6 8 -10 17 -8 12 2 18 -4 18 -19 0 -12 4 -25 9 -30 5 -5 6 -3 2
5 -4 6 -2 12 3 12 11 0 15 -15 12 -34 -1 -5 6 -3 15 5 12 9 15 9 10 2 -5 -9 0
-13 14 -13 12 0 19 -4 16 -9 -3 -4 2 -17 10 -27 12 -14 14 -15 11 -3 -3 9 0
16 7 16 7 0 13 -12 14 -25 3 -34 12 -41 13 -11 l1 24 7 -25 c4 -14 17 -30 29
-36 12 -6 19 -14 14 -19 -4 -4 1 -5 10 -2 12 4 15 2 11 -9 -4 -10 -1 -14 8
-13 25 5 59 -23 47 -38 -8 -11 -7 -12 7 -7 14 6 16 4 10 -7 -7 -11 -5 -11 10
1 15 12 17 12 10 1 -6 -11 -4 -13 10 -7 14 5 16 4 6 -7 -9 -11 -7 -17 6 -28
11 -9 14 -10 9 -1 -4 6 -2 12 3 12 6 0 11 -7 11 -16 0 -10 6 -14 14 -11 8 3
23 -3 34 -13 11 -10 24 -16 28 -12 5 4 2 -2 -6 -12 -14 -18 -13 -19 8 -14 21
6 27 -2 22 -27 -1 -5 1 -7 5 -3 9 8 35 -14 28 -24 -2 -5 3 -8 12 -8 10 0 13
-5 9 -12 -5 -8 -2 -9 10 -5 9 4 14 3 11 -2 -3 -5 -1 -12 5 -16 6 -4 8 -10 5
-15 -3 -5 0 -12 6 -16 8 -5 9 -3 4 6 -6 9 -4 11 4 6 7 -5 10 -14 7 -22 -3 -9
0 -11 12 -7 9 3 14 3 10 -2 -9 -10 16 -35 36 -35 14 0 21 -18 17 -43 -1 -5 3
-6 9 -2 5 3 10 1 10 -6 0 -7 3 -9 6 -6 4 4 2 13 -4 20 -9 10 -8 14 3 14 8 0
12 -4 10 -8 -3 -4 7 -14 20 -23 15 -10 23 -22 19 -28 -5 -8 -2 -9 9 -5 15 6
22 -3 18 -25 0 -4 14 -17 31 -29 17 -13 28 -18 24 -11 -4 7 -1 12 9 12 9 0 13
-4 10 -10 -3 -5 -1 -10 5 -10 7 0 10 -6 7 -13 -3 -8 1 -14 9 -14 7 0 11 4 8 9
-3 4 3 5 12 1 13 -5 15 -3 9 8 -5 8 -4 11 0 6 11 -10 16 -39 6 -32 -4 2 -8 -2
-8 -9 0 -7 6 -13 13 -13 7 0 11 4 8 9 -3 4 -1 8 4 8 5 0 14 -10 20 -22 6 -13
11 -17 11 -10 1 6 6 12 12 12 5 0 7 -6 3 -12 -6 -10 -4 -10 8 0 13 10 18 10
24 1 5 -8 3 -9 -6 -4 -8 5 -11 4 -6 -3 4 -6 14 -8 23 -5 11 4 14 3 9 -5 -5 -8
2 -12 21 -12 22 0 25 -2 13 -10 -8 -5 -11 -10 -6 -10 5 0 19 8 30 18 16 13 18
14 8 1 -15 -20 8 -45 34 -35 12 5 15 2 10 -11 -4 -10 -4 -14 0 -10 4 4 14 1
23 -6 14 -10 14 -10 4 4 -11 13 -9 15 9 14 12 -1 25 -11 30 -25 8 -22 9 -22
28 -5 11 10 21 15 21 12 1 -4 2 -11 3 -17 3 -22 36 -49 52 -43 13 5 15 3 10
-8 -4 -8 0 -5 10 6 14 16 16 17 11 3 -6 -15 -1 -17 33 -14 26 2 38 0 33 -7 -3
-6 -1 -7 5 -3 7 4 12 17 12 29 0 18 -2 19 -10 7 -5 -8 -10 -10 -10 -4 0 16 25
35 35 26 5 -4 5 -1 1 6 -4 7 -11 10 -16 7 -10 -6 -8 15 3 33 5 7 14 9 20 5 23
-14 45 -10 39 6 -5 14 -4 14 13 1 11 -9 16 -10 11 -2 -4 6 -2 12 3 12 6 0 11
-6 11 -12 0 -9 3 -8 10 2 6 9 5 20 -3 30 -10 13 -10 13 5 2 9 -8 15 -19 12
-26 -3 -9 6 -12 30 -12 23 1 32 4 26 10 -16 16 -11 30 5 16 12 -10 15 -9 15 4
0 10 4 15 9 12 5 -3 11 1 14 9 4 10 1 12 -11 9 -15 -5 -15 -4 1 6 9 6 23 8 30
3 6 -4 3 6 -7 22 -13 20 -14 26 -4 18 8 -7 18 -10 21 -7 3 4 -3 14 -15 24 -17
13 -18 17 -5 17 9 0 13 -5 10 -11 -4 -6 1 -5 10 3 20 16 22 22 5 18 -7 -1 -13
5 -13 13 0 8 -4 21 -9 29 -6 9 -5 12 1 8 6 -4 9 10 9 33 -1 28 -5 40 -16 40
-13 0 -13 1 0 10 10 6 11 10 3 10 -7 0 -13 5 -13 11 0 5 5 7 10 4 6 -3 10 -1
10 4 0 6 -8 11 -17 12 -15 0 -15 2 2 9 13 6 15 9 5 9 -13 1 -13 2 0 11 10 6
11 10 3 10 -7 0 -13 5 -13 11 0 5 5 7 10 4 6 -3 10 -1 10 4 0 6 -4 11 -10 11
-5 0 -10 5 -10 11 0 5 4 8 9 5 5 -4 7 3 4 13 -3 11 -10 18 -16 17 -7 -2 -9 -1
-4 1 4 3 4 9 1 15 -4 5 4 4 17 -3 21 -11 22 -10 12 3 -7 8 -10 18 -6 21 3 4
-2 10 -11 13 -14 5 -15 9 -4 15 11 7 11 9 0 9 -9 0 -11 8 -8 23 3 12 3 16 0
10 -4 -10 -9 -9 -20 2 -9 8 -12 20 -8 26 5 8 3 9 -6 4 -9 -5 -11 -1 -6 16 l6
24 -11 -22 c-12 -24 -29 -31 -29 -13 0 6 5 10 10 10 6 0 10 9 10 20 0 11 -4
20 -10 20 -5 0 -9 -3 -7 -7 1 -5 -1 -9 -6 -10 -18 -7 -19 -1 -1 19 10 12 14
18 8 15 -14 -8 -37 17 -26 27 4 4 0 6 -8 4 -9 -2 -14 3 -12 12 3 12 1 13 -9 3
-20 -20 -31 -15 -18 8 7 13 7 19 1 15 -6 -3 -14 -1 -18 5 -4 8 -9 7 -15 -2
-11 -18 -45 2 -43 24 1 9 -3 15 -10 14 -6 -1 -10 3 -9 9 1 7 -6 10 -17 7 -18
-5 -25 5 -21 30 0 4 -4 7 -10 7 -6 0 -8 -10 -5 -22 3 -13 3 -17 0 -10 -3 6
-11 9 -16 6 -6 -4 -8 -2 -5 4 10 16 -4 44 -19 38 -7 -3 -17 2 -22 11 -6 11
-11 12 -16 4 -4 -6 0 -14 9 -17 10 -4 12 -10 6 -18 -6 -7 -6 -17 0 -26 8 -13
10 -13 20 0 9 13 10 12 5 -2 -3 -10 0 -20 6 -24 7 -4 8 -3 4 4 -4 7 -1 12 8
12 18 0 21 -11 6 -26 -6 -6 -5 -15 1 -24 9 -13 10 -12 5 2 -3 11 2 21 14 28
20 11 50 4 50 -12 0 -6 -6 -5 -15 2 -8 6 -19 9 -25 5 -15 -9 -2 -25 15 -18 24
9 17 -7 -7 -18 l-23 -10 22 5 c13 2 26 0 29 -5 3 -5 0 -9 -7 -9 -7 0 -9 -3 -6
-7 4 -3 2 -11 -3 -18 -7 -8 -5 -12 5 -12 8 0 11 5 8 10 -4 6 0 8 10 4 10 -4
16 -2 14 5 -1 6 3 12 10 15 18 7 9 -25 -13 -43 -16 -13 -14 -13 9 1 42 25 74
28 81 9 4 -9 4 -19 1 -22 -3 -3 -5 0 -5 7 0 7 -5 9 -10 6 -7 -4 -7 -12 0 -25
12 -22 4 -46 -16 -54 -10 -4 -12 -2 -8 6 4 6 3 8 -3 5 -5 -3 -10 0 -10 8 0 8
8 12 20 10 14 -3 17 0 12 13 -4 9 -8 23 -8 30 0 15 -17 15 -37 -1 -17 -14 -26
-42 -10 -32 5 3 10 1 10 -4 0 -20 2 -26 11 -38 6 -7 6 -13 1 -17 -6 -3 -13 1
-16 10 -3 9 -11 12 -18 8 -8 -5 -9 -2 -5 9 3 9 2 19 -2 21 -5 3 -8 -5 -7 -17
1 -12 7 -21 13 -20 6 1 14 -4 17 -12 9 -26 -13 -16 -50 20 -29 29 -38 33 -54
25 -11 -6 -17 -17 -14 -25 4 -10 0 -13 -15 -10 -12 2 -19 0 -16 -6 4 -5 11 -7
16 -4 5 4 9 1 9 -4 0 -6 8 -11 18 -11 14 0 15 -2 2 -10 -10 -6 -11 -10 -2 -10
6 0 12 -5 12 -11 0 -5 -5 -7 -12 -3 -7 4 -8 3 -4 -4 4 -6 14 -9 24 -6 9 3 6
-2 -8 -11 -14 -9 -17 -14 -7 -11 9 3 17 1 17 -4 0 -9 -15 -14 -33 -11 -5 1 -6
-3 -2 -9 3 -6 11 -8 16 -4 6 3 5 -3 -2 -14 -7 -12 -16 -19 -20 -16 -4 2 -5 -5
-2 -16 3 -11 10 -20 17 -20 6 0 5 -4 -3 -9 -8 -5 -20 -7 -27 -4 -9 3 -12 -2
-9 -16 2 -12 0 -19 -6 -16 -5 4 -9 1 -9 -6 0 -7 -3 -9 -6 -6 -4 4 -1 13 6 22
8 9 8 15 2 15 -6 0 -14 -4 -17 -10 -3 -5 -11 -10 -16 -10 -6 0 -7 5 -4 10 3 6
1 10 -5 10 -7 0 -9 8 -5 20 5 15 3 18 -9 14 -9 -3 -16 -1 -16 6 0 6 5 8 11 4
7 -4 10 -1 7 7 -3 8 -12 13 -21 11 -21 -3 -28 10 -15 28 8 12 9 11 4 -3 -5
-15 -2 -17 14 -12 12 4 20 2 20 -5 0 -6 4 -9 10 -5 5 3 7 13 4 23 -5 14 -4 14
4 2 7 -10 8 -18 1 -27 -7 -8 -7 -18 0 -31 6 -11 7 -22 4 -26 -3 -3 -1 -6 5 -6
7 0 12 5 12 11 0 5 5 7 12 3 7 -4 8 -3 4 5 -4 6 -11 9 -16 6 -4 -3 -10 2 -14
10 -3 8 -1 17 4 20 4 3 10 0 12 -7 3 -7 7 -5 11 6 4 9 3 15 -2 12 -22 -14 -17
25 5 50 15 16 19 24 10 21 -9 -4 -16 -2 -16 3 0 5 -7 6 -17 3 -11 -4 -14 -3
-9 6 5 7 14 10 22 7 10 -4 14 2 14 19 0 14 -4 25 -10 25 -5 0 -10 4 -10 9 0 6
9 8 21 6 15 -3 19 0 15 10 -3 8 0 14 6 12 6 -1 13 4 16 12 3 9 0 11 -8 6 -8
-5 -11 -4 -6 3 4 6 12 9 20 6 7 -3 13 2 13 11 0 11 -6 13 -21 9 -17 -5 -19 -4
-8 7 16 17 15 29 -2 29 -8 0 -18 4 -21 10 -4 6 1 7 12 3 17 -6 17 -5 -1 15
-15 17 -16 25 -7 36 9 11 9 16 0 22 -8 4 -9 3 -5 -4 5 -8 1 -10 -9 -5 -13 5
-14 7 -3 14 9 6 7 9 -9 9 -13 0 -23 4 -23 10 0 5 8 6 18 3 16 -7 16 -5 1 17
-16 25 -41 35 -37 15 2 -5 7 -9 13 -7 5 2 6 0 2 -4 -12 -13 -37 -13 -34 -1 1
6 -4 11 -12 12 -8 0 -15 10 -16 22 -1 13 -5 26 -10 30 -4 5 -4 -2 0 -15 7 -23
-12 -28 -27 -7 -5 6 -8 5 -8 -2 0 -7 -7 -10 -17 -7 -14 5 -15 4 -4 -4 8 -6 22
-9 32 -7 13 3 16 -1 12 -12 -5 -12 -3 -14 7 -8 9 6 11 4 5 -5 -6 -10 -10 -10
-19 2 -6 8 -21 13 -34 11 -13 -1 -21 1 -18 6 3 5 -1 11 -9 15 -21 8 -19 -21 3
-33 16 -10 16 -10 0 -11 -10 0 -18 5 -18 11 0 5 -5 7 -10 4 -6 -4 -8 -10 -6
-14 3 -4 0 -8 -7 -8 -7 0 -18 -2 -26 -4 -7 -2 -15 4 -16 14 -3 15 -1 16 11 6
16 -13 44 3 44 26 0 7 7 18 15 25 11 9 12 16 5 25 -8 10 -8 15 1 21 8 4 9 3 5
-4 -11 -18 3 -14 22 5 16 16 16 16 0 10 -10 -3 -20 -2 -23 4 -4 5 -12 6 -18 2
-7 -4 -6 0 2 10 16 20 25 23 15 5 -5 -10 -3 -10 7 0 9 9 10 15 3 20 -5 4 -11
25 -12 47 -2 31 0 37 9 25 9 -13 10 -13 6 0 -2 8 -12 14 -22 12 -10 -2 -14 1
-10 7 3 6 14 11 23 11 15 0 15 2 2 10 -13 8 -8 14 11 12 3 -1 5 18 4 41 -2 23
-3 52 -4 65 -1 15 -5 21 -13 16 -10 -6 -10 -4 0 7 6 7 12 18 12 24 0 5 -5 3
-10 -5 -9 -14 -16 21 -11 53 0 4 -3 7 -9 7 -6 0 -6 9 0 26 6 14 6 23 1 20 -5
-3 -11 3 -14 14 -3 11 -2 18 3 15 4 -3 11 2 14 11 3 8 2 12 -4 9 -6 -3 -10 -1
-10 5 0 6 -4 9 -8 6 -5 -3 -9 1 -9 9 0 11 4 12 13 4 8 -7 14 -7 19 1 3 5 1 10
-6 10 -8 0 -7 5 2 17 10 11 10 14 2 9 -14 -8 -18 6 -5 18 10 11 9 30 -3 39 -6
4 -5 10 5 17 13 9 13 10 0 10 -13 0 -13 1 0 11 12 8 10 9 -7 4 -16 -4 -23 -1
-28 15 -4 12 -9 19 -12 17 -2 -3 0 -14 6 -26 7 -13 8 -22 1 -26 -5 -3 -10 -1
-10 4 0 6 -5 11 -11 11 -8 0 -8 -5 1 -15 7 -8 16 -13 20 -10 4 3 13 -2 20 -10
9 -10 9 -15 1 -15 -6 0 -11 5 -11 12 0 9 -3 9 -12 0 -17 -17 -31 -15 -24 3 3
9 -1 18 -9 21 -7 3 -11 12 -8 20 3 8 9 11 14 8 5 -3 6 2 3 11 -5 12 -9 13 -20
4 -8 -7 -17 -9 -21 -5 -3 3 -2 6 4 6 5 0 10 18 11 40 1 22 -3 40 -8 40 -6 0
-10 5 -10 11 0 5 4 8 8 5 5 -3 9 1 9 9 0 20 -14 19 -26 -2 -6 -10 -11 -13 -11
-6 0 6 5 15 10 18 6 3 10 11 10 16 0 6 -4 7 -10 4 -5 -3 -10 -2 -10 3 0 5 8
12 18 14 10 3 19 12 19 21 0 9 -4 14 -9 11 -5 -3 -6 -9 -3 -14 7 -11 -22 -7
-32 5 -5 4 -2 5 6 0 11 -6 13 -4 8 9 -4 9 -3 15 2 12 11 -7 23 22 15 35 -3 5
-10 7 -15 4 -5 -4 -9 -2 -9 4 0 6 -6 9 -12 7 -7 -1 -10 -1 -5 1 4 3 4 10 0 16
-4 7 1 6 10 -2 20 -16 22 -8 5 22 -10 20 -10 21 6 8 14 -12 16 -12 10 3 -3 9
-11 16 -17 16 -6 0 -7 3 -4 6 7 8 -53 42 -68 39 -5 -1 -6 0 -2 3 4 2 2 11 -5
20 -7 9 4 3 25 -12 l38 -29 -12 26 c-7 15 -16 24 -22 20 -6 -4 -8 2 -4 16 5
19 3 20 -10 9 -14 -11 -16 -10 -9 15 4 16 2 27 -4 27 -5 0 -9 6 -8 13 2 7 -6
11 -19 9 -18 -3 -22 1 -17 15 5 14 4 15 -4 4 -9 -12 -13 -12 -26 -2 -9 7 -24
10 -33 7 -15 -6 -16 -5 -5 6 10 10 16 10 32 0 11 -7 20 -8 20 -3 0 10 -39 27
-53 23 -5 -1 -6 2 -2 7 7 12 -29 33 -40 23 -5 -4 -5 -1 -1 6 6 11 12 10 31 -2
20 -13 25 -13 41 0 18 14 18 15 -3 5 -18 -9 -23 -8 -29 12 -4 12 -11 25 -16
28 -5 4 -4 9 4 11 8 3 23 -1 33 -9 13 -11 15 -14 4 -10 -9 3 -16 0 -16 -8 0
-16 26 -5 46 18 15 19 23 60 10 52 -9 -6 -13 15 -9 44 1 9 -4 12 -16 7 -15 -6
-15 -4 -3 11 12 14 12 16 -1 11 -11 -4 -16 0 -16 13 0 15 3 16 16 6 13 -11 13
-10 0 7 -8 10 -15 24 -16 32 -3 20 -30 44 -40 36 -5 -4 -2 2 6 12 13 17 13 18
1 11 -11 -6 -13 -4 -8 9 6 14 3 16 -16 11 -20 -5 -20 -5 -3 6 18 11 7 29 -19
29 -5 0 -3 -5 5 -10 9 -6 10 -10 3 -10 -6 0 -15 5 -18 10 -5 8 -12 7 -23 -2
-10 -7 -6 0 7 15 25 27 18 38 -9 15 -8 -7 -7 -4 3 8 14 17 15 21 2 21 -8 0
-15 -4 -15 -9 0 -5 -5 -6 -11 -2 -8 4 -4 11 10 19 l22 11 -25 14 c-14 7 -22
18 -19 23 4 6 0 8 -9 4 -21 -7 -31 3 -18 18 7 9 5 17 -7 26 -9 8 -14 9 -10 2
4 -6 3 -15 -3 -18 -6 -4 -10 -3 -9 2 4 21 -2 34 -13 27 -7 -5 -8 -3 -4 5 5 7
0 18 -10 27 -18 14 -18 14 0 12 10 -2 21 4 23 12 4 12 3 12 -5 1 -7 -9 -12
-10 -16 -2 -4 6 -12 8 -18 5 -8 -5 -9 -1 -5 10 4 10 -1 23 -13 33 -20 18 -54
27 -45 13 3 -5 2 -10 -2 -13 -5 -2 -3 -3 3 -1 7 1 10 -5 7 -17 -3 -10 -10 -19
-15 -19 -5 0 -7 4 -3 9 3 5 1 12 -4 16 -6 3 -8 12 -4 20 3 9 -1 15 -10 15 -9
0 -18 4 -22 9 -3 6 4 8 16 6 12 -2 18 -1 15 3 -4 4 -11 7 -14 8 -30 4 -42 17
-30 32 10 12 10 14 1 8 -7 -4 -13 -2 -13 3 0 6 -7 11 -16 11 -8 0 -13 4 -9 9
3 5 1 12 -5 16 -6 4 -8 11 -5 16 3 5 -1 6 -10 2 -13 -5 -14 -7 -3 -14 7 -5 9
-9 3 -9 -22 0 -37 17 -21 23 9 4 16 12 16 19 0 9 -3 9 -10 -2 -7 -11 -11 -9
-19 13 -7 18 -15 25 -26 21 -11 -5 -14 -2 -9 12 5 15 4 16 -5 4 -5 -8 -13 -11
-17 -7 -4 3 -1 14 6 22 11 13 11 16 -1 13 -8 -2 -13 2 -12 8 1 6 -6 11 -15 11
-35 0 -43 3 -36 15 4 6 3 8 -3 5 -6 -4 -20 5 -33 18 -21 23 -48 26 -34 4 3 -5
10 -7 15 -4 5 4 6 -2 2 -11 -4 -11 -8 -13 -11 -6 -2 7 -8 10 -13 6 -5 -3 -9
-2 -8 3 4 22 -2 32 -16 27 -12 -5 -14 -2 -8 12 6 17 5 17 -10 5 -18 -15 -47
-1 -47 23 0 6 5 4 10 -4 5 -8 10 -10 10 -4 0 20 -27 37 -36 23 -5 -8 -3 -9 6
-4 9 5 11 4 6 -4 -10 -16 -29 -2 -22 16 5 11 2 13 -10 9 -11 -4 -15 -2 -11 8
4 10 1 13 -8 9 -8 -3 -13 -8 -11 -12 3 -4 0 -13 -5 -21 -7 -12 -8 -11 -6 5 1
11 7 26 11 34 6 10 5 12 -2 7 -7 -4 -12 -3 -12 2 0 6 -10 8 -22 4 -15 -4 -19
-2 -13 7 6 10 3 11 -12 2 -25 -13 -35 -4 -23 19 6 12 5 17 -5 17 -8 0 -12 -4
-9 -9 3 -4 -2 -5 -10 -2 -10 4 -16 1 -16 -7 0 -7 -3 -9 -6 -6 -4 4 -1 14 7 24
8 9 9 14 2 10 -6 -4 -14 -1 -16 5 -4 10 -6 10 -6 0 -1 -7 -5 -11 -11 -7 -5 3
-7 13 -4 23 5 14 4 15 -5 2 -7 -10 -11 -11 -11 -2 0 6 -5 12 -10 12 -7 0 -7
-8 1 -22 l12 -23 -20 20 c-14 13 -17 24 -11 32 6 7 5 14 -3 19 -8 4 -9 3 -5
-4 9 -16 -7 -15 -22 0 -7 7 -12 9 -12 5 0 -10 -63 23 -72 37 -5 6 -8 7 -8 1 0
-5 -12 -11 -27 -12 -19 -1 -22 1 -12 8 10 7 4 8 -19 5 -18 -2 -30 0 -26 5 3 5
9 7 14 4 5 -3 11 -1 14 4 7 10 -26 8 -59 -4 -17 -6 -17 -5 -5 5 12 9 9 11 -17
7 -31 -3 -38 3 -35 34 0 3 -10 5 -23 5 -13 0 -21 -4 -19 -8 3 -5 9 -6 14 -3
16 10 20 -13 4 -26 -12 -10 -15 -10 -12 1 2 8 -5 16 -16 18 -10 2 -16 0 -13
-5 4 -5 0 -10 -8 -10 -13 0 -12 4 2 19 18 20 5 25 -16 6 -11 -11 -13 -10 -8 4
3 10 1 20 -5 24 -7 4 -8 3 -4 -4 4 -7 3 -12 -3 -12 -5 0 -12 6 -14 13 -4 10
-6 10 -6 0 -1 -7 -6 -13 -12 -13 -6 0 -9 6 -6 13 3 8 -1 14 -9 14 -7 0 -11 -4
-8 -9 3 -5 -5 -6 -18 -4 -52 12 -88 14 -82 5 3 -5 9 -7 13 -5 4 3 13 0 21 -5
10 -6 4 -8 -19 -4 -32 5 -33 5 -20 -12 13 -16 12 -17 -3 -5 -10 8 -14 20 -11
29 4 10 2 14 -4 10 -6 -4 -14 -1 -17 5 -3 7 -4 4 -1 -7 3 -13 -2 -25 -15 -33
-12 -7 -20 -8 -20 -2 0 5 5 10 10 10 6 0 10 4 10 10 0 5 -7 7 -15 4 -11 -5
-13 -2 -8 12 4 12 3 15 -6 10 -7 -4 -9 -17 -6 -29 4 -12 3 -17 -2 -12 -4 6
-14 10 -20 9 -7 -1 -18 -2 -24 -3 -5 0 -7 -7 -3 -13 4 -7 -2 -4 -15 6 -14 13
-18 22 -10 27 7 4 8 9 1 13 -5 3 -12 -1 -16 -9z m-4325 -7096 c5 -11 15 -19
21 -19 7 0 7 4 -1 13 -8 11 -6 16 12 24 19 9 23 8 23 -8 0 -14 -3 -16 -15 -6
-12 10 -14 9 -9 -4 4 -9 2 -21 -4 -27 -6 -6 -6 -12 1 -16 6 -4 11 -3 11 2 0 6
8 13 17 16 14 6 13 2 -4 -16 -15 -15 -19 -28 -14 -37 7 -11 10 -10 14 5 3 11
5 6 4 -11 -1 -19 2 -29 11 -27 6 1 12 -3 12 -8 0 -13 -17 -13 -25 0 -3 6 -12
10 -18 10 -7 -1 -2 -9 11 -20 22 -18 22 -19 2 -25 -11 -3 -20 -10 -20 -15 0
-4 -7 -11 -16 -14 -14 -5 -15 -4 -4 9 14 17 -10 33 -31 19 -8 -4 -9 -3 -5 4 4
7 3 19 -2 28 -6 11 -11 13 -16 5 -4 -6 -2 -11 4 -11 6 0 8 -5 4 -11 -4 -8 -10
-6 -17 7 -7 13 -7 19 2 22 9 3 7 10 -6 25 -10 11 -12 17 -5 13 7 -4 12 -2 12
4 0 7 7 9 16 6 9 -3 14 -1 12 5 -2 6 -7 10 -12 9 -11 -2 -26 22 -31 50 -3 17
-1 18 15 10 11 -6 21 -6 25 -1 3 5 -4 12 -15 16 -11 3 -20 11 -20 16 0 14 49
-20 61 -42z"/>
</g>
</svg>
