<?xml version="1.0" encoding="UTF-8" standalone="no"?>
<svg
   version="1.0"
   width="1024.000000pt"
   height="1024.000000pt"
   viewBox="0 0 1024.000000 1024.000000"
   preserveAspectRatio="xMidYMid meet"
   id="svg28"
   sodipodi:docname="X.svg"
   xmlns:inkscape="http://www.inkscape.org/namespaces/inkscape"
   xmlns:sodipodi="http://sodipodi.sourceforge.net/DTD/sodipodi-0.dtd"
   xmlns="http://www.w3.org/2000/svg"
   xmlns:svg="http://www.w3.org/2000/svg">
  <defs
     id="defs32" />
  <sodipodi:namedview
     id="namedview30"
     pagecolor="#ffffff"
     bordercolor="#666666"
     borderopacity="1.0"
     inkscape:pageshadow="2"
     inkscape:pageopacity="0.0"
     inkscape:pagecheckerboard="0"
     inkscape:document-units="pt" />
  <metadata
     id="metadata2">
Created by potrace 1.16, written by Peter Selinger 2001-2019
</metadata>
  <g
     transform="translate(0.000000,1024.000000) scale(0.100000,-0.100000)"
     fill="#000000"
     stroke="none"
     id="g26">
    <path
       d="m 1961,8614 c -124.9306,-13.3412 -340.8049,-58.6164 -241,-34 -84.3223,3.685 -418.9034,-135.1664 -319,-92.625 -212.3693,-139.7111 114.694,9.4692 -185.75,-132.75 C 1202.8352,8317.0053 1003.0176,8117.7056 1055,8160 c -34.2554,-116.6137 -133.18783,-322.5655 -96,-235 18.06879,-34.8677 -23.29619,-163.1302 -34,-131 -87.21652,-87.6237 -56.55859,-241.5426 9,-188 -120.62404,-74.0765 -127.81372,-91.7228 -26,-125 12.44827,-38.4504 40.09653,-112.3917 -6,-97 -7.48393,-82.4479 52.34345,-276.8741 -2,-169 9.89379,-121.0192 -85.26592,-271.3651 -11,-179 104.07081,-73.388 124.1328,-78.9512 134,-83 -4.9374,31.314 -99.62477,121.9977 -77.5,102.625 -51.13868,52.8003 265.1238,70.4363 159.5,39.375 -127.32394,-37.7375 -113.88849,-133.1893 -52,-145 89.7245,26.7269 23.4461,11.6626 33,-29 -6.9939,-44.5413 -144.71054,-36.8936 -81,-41 -124.49073,29.8191 -42.1233,-30.9103 -82.75,-93.5 50.82104,29.0947 84.5661,-142.6867 88.75,-33.5 -97.27613,-105.4807 -106.32681,48.0085 9,-48 179.0825,-5.6737 -150.09704,4.7004 129,-28 63.1073,125.2537 163.897,-59.2646 190,143 57.1443,3.576 114.0004,151.8079 88,150 51.1864,77.1854 171.4027,299.6323 141,236 -92.7937,-15.8535 128.6022,91.5188 -28,229 -38.1229,70.0408 -228.3763,101.6553 -160,100 -67.6281,190.0177 -82.2195,137.3753 -70,-3 -41.4372,56.1936 17.9628,212.2445 43,169 -80.7132,-114.8232 239.483,144.5452 117,84 -1.2172,-36.6335 3.5829,41.9695 45,65 97.9149,34.5987 1.3076,-23.6653 -26,53 33.8948,-43.4675 -59.0853,-46.7169 -99.25,-34.5 40.0481,-76.4212 -55.7558,5.8341 -62.5,-34 82.6091,195.801 161.2539,292.9613 115.75,139.5 5.9815,-6.5724 -16.5402,-36.0646 70,-17 24.3004,184.9051 92.653,112.9805 47,53 98.3339,130.7 -86.1397,-183.1754 156,86 -1.3237,-78.601 147.2543,-97.02 89.2969,-30.2031 79.1303,23.833 386.4947,62.3767 248.7031,6.2031 104.8419,-81.5871 -16.0979,128.1286 101,-42 -27.0682,10.7585 132.3859,-30.023 138,-44 -64.3639,87.2283 96.9691,114.5069 121,-4 6.0324,-105.6436 120.1878,-80.4667 84,-58 71.585,-36.7447 -23.0376,-73.0741 -7,-49 93.1915,-90.1292 219.6587,-177.1246 144,-55 97.8204,-37.4312 137.0507,-121.6994 3,-58 -5.3019,-52.3356 152.0675,-129.555 121,-73 -55.5265,-109.5751 58.705,-211.8785 69.75,-97.375 -49.1554,-52.2878 50.5851,-25.4534 41.875,-89.5 120.4663,-64.848 256.5083,36.5261 151.375,-57 -84.955,67.2845 14.6585,2.3511 45.5,50.625 63.5514,-4.0324 142.1434,-45.0069 86.5,-85.75 21.0516,-187.1694 42.9513,143.8306 40,-37 69.1904,26.3552 88.7321,-71.3588 66,-64 -3.7398,-16.308 -6.2134,-89.0834 58,-85 -81.158,-99.3408 -211.9625,7.5709 -156.375,-14.375 60.4211,-106.8655 214.6746,-291.5483 178.375,-221.625 101.1762,-0.1797 2.5267,95.7688 10,51 -59.7716,5.3099 198.8384,-7.8631 -63,44 101.3516,53.8494 261.8098,-66.3198 148.125,-17.125 -39.7218,110.5154 -6.4176,-8.4264 9.875,64.125 6.0961,-84.6337 100.7148,-107.0772 83,-43 -35.022,-80.6244 76.4935,-137.8203 -23,-64 28.1936,-58.6645 -54.4138,8.0572 -63,-9 -124.7745,-137.9298 8.0194,-116.4877 19.5,-134.125 -87.3035,92.3695 82.2425,107.676 52.5,60.125 -57.4624,60.4763 163.9362,43.4523 103,-7 88.5402,2.4975 -2.6614,93.5431 -48,-60 101.3329,66.015 -146.8276,16.049 -90,3 14.4635,-39.3493 54.605,-211.8571 7,-144 59.0398,43.3701 -51.7828,-81.6527 144,-72 -139.0839,-6.397 83.6327,-166.1897 69,-166 -14.1319,-55.2264 188.8302,-86.1453 140.875,-104.25 57.6741,159.3705 -65.3373,9.5211 17.875,158.625 -79.3488,40.1075 50.849,-78.3567 22.25,-13.375 10.0186,-112.2178 32.1254,-211.0709 64,-200 54.5374,76.3422 135.7392,-38.6817 66,60 -39.9067,-6.0365 32.1009,-30.8046 34,-102 24.4328,-15.1534 115.8471,-132.5846 58.5,-2.375 -103.5646,-36.5061 -157.6061,-108.9204 -87.5,-134.625 -159.9682,19.2153 29.4509,-47.4702 50.875,-55.25 44.1149,-75.9412 -165.5047,91.1755 30.375,-69.5 -102.5901,26.671 -158.4186,130.4131 -82.25,31.75 -60.8384,-120.6969 59.078,-183.6618 65,-121 -63.8034,-1.4748 -41.5136,-103.3511 -20,-76 163.2009,9.7655 89.0586,-149.3062 -17,-87 166.4104,60.6814 81.8663,-107.9613 16,-73 36.2725,10.4887 140.8896,-2.9063 42,-51 90.723,-8.9458 -69.8823,-43.3459 -81.25,-53.375 -14.0355,-68.4644 198.253,-34.2922 23.25,-52.625 126.5265,-56.3874 172.5509,-148.6366 91,-88 -118.3032,41.0865 82.116,-127.3052 -75,56 10.7374,-228.6118 -74.9077,-130.5732 -65.75,-88.625 127.9683,-64.3441 216.2473,-76.0106 108.75,-64.375 -33.53,-43.0214 72.5681,-166.0877 -26,-78 -184.4826,3.5058 -166.5412,308.014 -60.625,-67.875 116.6435,136.1123 -76.4192,-110.3831 -79.125,-133.375 6.8256,69.0379 -12.0904,-0.5209 -41.25,-39.75 -27.6257,-55.4813 -190.1628,-277.9967 -169,-142 50.8649,-5.7231 -138.2962,-351.0729 -119,-239 -53.1922,-6.6591 -216.5285,-279.7548 -155.625,-212.5 31.0888,-325.4344 -186.4227,373.5298 -33.875,-188 -119.2046,-70.6009 -69.0194,-128.0629 84.375,-78.75 57.7919,-49.4921 -2.4489,-63.1473 -50.875,-3.75 -37.489,-24.2785 -55.2522,-148.5828 -76,-27 112.7029,-337.9227 -408.2698,802.4363 59,-87 77.0415,135.8242 -46.2005,94.708 30,24 -86.3911,-47.7068 -152.036,-182.5203 -96,-144 26.0399,-70.1865 75.1579,66.8575 -20,30 -64.701,23.0473 -76.7172,83.099 -7,93 -151.2509,-230.8936 59.5058,-200.0237 -135.5,-294.25 -18.613,-53.4953 -46.1856,-141.301 -27.5,-105.75 31.5771,-103.7097 -242.383,-277.8663 -171.875,-192.75 -18.865,-59.1612 -162.7841,-230.4022 -112.625,-139 -69.4854,-10.4109 -250.7172,-120.2299 -167.5,-83.375 15.5691,-24.7748 -348.2289,-152.9164 -278,-118.875 -97.5787,-43.2473 -192.618,-29.6302 -138,-60 -45.9986,-47.619 -205.5239,-145.8909 -191.375,-126.875 -59.2283,-0.8402 -181.3068,-6.0048 -135.625,-23.125 -58.1669,-98.5058 -434.4357,-102.1804 -297.625,-60.125 -50.336,-20.1121 -146.2734,-35.8491 -134.375,-15.875 -80.9557,-22.6121 -174.3899,-15.3992 -62,51 3.6786,-85.4722 -88.7071,12.5152 -54.125,-38.25 -147.7254,-51.2012 -212.1205,-10.6558 -191.8551,-35.3995 77.6028,-67.8998 -85.4493,78.2734 -94.0199,94.6495 -68.974,-50.2599 -62.5584,-266.759 -46,-253 29.9056,-91.7428 62.2095,-44.5634 115.375,55.625 C 1191.1738,2653.8517 1039.2822,2656.5301 1089,2605 c 65.7636,31.0529 -97.76333,69.555 -90,-69 -46.11292,80.1777 -173.41265,-88.1571 -121.73438,-84.3906 C 859.07718,2362.4785 991.08584,2177.728 935,2240 c 96.8326,-40.5525 336.2192,-81.9232 212,-77 -131.2182,-46.0068 -111.0805,-47.1604 71,-34.875 28.377,-64.9545 179.2721,-44.652 150,9.875 54.7244,42.8933 127.0678,-1.8745 134,28 -2.9821,32.2921 158.2727,26.6146 134,27 137.3712,175.6674 -184.9167,59.2564 -33,-24.75 -79.8765,-45.6651 -210.3394,-61.262 -100,-49.25 -5.9859,42.3015 -294.3559,-23.0941 -198,-9 -88.0587,-19.0268 153.3291,-42.2521 111,-9 33.814,-35.5584 125.8968,-27.9813 99,-12 17.171,7.9368 171.5484,57.415 163,19 72.3756,-3.0138 201.4498,10.1055 127,15.125 -25.3557,101.4955 93.3817,127.3168 92,35.875 20.7002,6.671 17.2632,-173.2551 62,-10 29.1795,26.0623 90.7383,-5.2453 62.75,63 68.2786,-0.8824 207.629,35.2864 127.25,78 -104.2946,-161.6975 -14.3365,31.0916 51.875,92.625 74.7113,-57.4385 214.0728,66.3634 99.125,56.375 38.5597,108.3836 122.7466,212.9227 84,94 35.2335,-31.7362 67.9272,-103.5356 81.5,-8.375 67.8363,11.4774 19.8481,-86.2102 -50.5,-54.625 -105.1733,-48.753 -131.5487,-203.9959 -149,-129 -5.1695,-57.2077 103.8811,151.5283 39,-14 87.4851,-6.6929 57.521,104.5323 157,74 56.0143,2.6806 127.4389,-15.4164 114,67 159.4999,110.2462 97.0084,-141.5605 139,111 41.8123,47.5435 171.5669,54.5496 122.5,-9.375 50.5502,-25.7205 -16.9765,81.492 48,85.25 -43.9932,37.9209 -82.2653,-17.2421 -103.5,-34.875 -16.8297,37.1311 -80.1842,15.2172 -77,0 45.1404,-81.1305 -187.52,-154.2412 -179,-66 -155.9625,154.9323 408.61,67.3559 178.5483,109 -57.2332,31.8597 72.876,68.2691 77.4517,82 95.8858,-22.0614 213.6414,1.832 189,-15 66.5043,-50.3605 229.9217,-40.5989 94,10 -93.9002,144.8484 15.1972,-92.2213 67.5,74.875 8.7841,86.4695 -65.7628,-98.0781 35.5,-46.875 15.2671,-42.502 -76.3274,-115.1959 -48,-75 -114.8634,17.1654 110.105,99.2544 74,21 56.38,43.8834 82.797,86.9354 77.875,78.25 66.1434,28.3101 138.5569,110.5709 -17.75,31.375 -56.1397,-33.3757 226.5168,-18.1746 113.875,56.375 92.5033,86.6885 170.7991,139.4314 97,110 -3.3366,50.831 130.2856,263.2674 114,158 93.3807,22.7178 -137.9437,-171.6057 -84.375,-43.5 17.2296,-37.7155 -47.1221,-88.7713 -74.625,-34.5 23.1257,69.6496 100.2003,207.4469 91,130 22.325,1.0647 106.3239,172.7274 80,95 15.2013,11.7196 19.8905,167.8371 33,92 -52.504,82.7067 -62.6615,193.5775 33.75,98.75 112.2399,36.5444 125.7739,9.6191 130.25,-0.75 -106.2392,-62.0821 -89.444,243.4246 12.75,122.75 54.5266,-67.1262 30.8207,145.1829 48.25,79.25 -0.4724,-24.6009 -126.1672,-130.8227 -110,43 84.6035,-12.201 24.1157,324.9522 59,206 13.6136,84.1854 12.1028,227.3813 20.875,127.375 43.4936,4.692 11.9384,72.7768 4.125,136.625 30.8603,-208.488 -26.9927,-31.9687 25,69 -97.3093,75.6004 -24.4939,-64.2448 76,3 23.6699,-6.5232 24.356,-81.7199 -23,-67 -37.0361,-167.6355 93.2972,-177.0843 62,-79 45.8621,-78.0569 -138.9866,-11.0833 -57,-33 -8.5104,-89.9393 10.5835,-263.7502 -21,-174 -35.2753,-105.7483 -51.8308,-22.3551 24.75,-79.625 -1.9886,-108.3308 -35.3461,33.2544 21.25,-2.375 81.7967,-12.6676 149.963,255.7064 85,246 -18.7651,-3.9047 -78.0134,70.8072 -19,114 -69.8395,147.4588 39.4433,60.8714 60,36 -32.6075,185.2414 37.5727,286.1493 -0.25,231.125 16.4613,-143.4673 48.0842,13.615 67.25,56.875 -33.4777,-35.2881 98.8582,194.366 92.125,172.75 66.2161,165.6861 -3.9213,189.1416 82,194.25 -0.439,83.1403 79.3953,191.5159 19.875,135 -64.4482,18.3803 -252.0864,-27.8556 -145,-38 74.0792,-69.6453 69.0634,15.0965 -55,-1 -77.7871,-64.8456 117.1304,-115.4483 18,15 91.5977,62.5568 -141.8114,8.2584 71,55 -141.9296,24.3246 -179.4428,77.1605 -138.375,48.875 -23.8491,39.6597 -29.3251,-121.4778 -57.625,-104.875 -48.9579,-89.4413 -13.4123,-58.2895 19,-85 86.0201,23.7552 289.5188,24.775 103,-36 -96.7758,-101.9949 -16.5378,-89.4628 68.875,-78.875 -17.5378,-47.402 -89.1559,-57.3162 -80.875,-66.125 -177.9767,26.929 -41.1857,46.3166 -17,6 48.6998,-128.227 6.9241,-15.196 -86,-67 -90.1808,138.401 -12.5351,-284.0308 -58.125,-120.375 1.356,85.0385 -20.0656,-108.6004 6.125,-76.625 -118.9023,-96.1315 -107.3253,-161.7936 -34,-84 17.2109,-43.0427 6.1318,78.6782 -69,-4 147.5227,162.587 -23.0051,99.9347 70,114 -55.6262,69.6874 -132.2451,270.1193 -42.125,136.75 159.2389,96.7747 16.0426,-16.7815 34.5,46.5 -16.6507,53.5609 -129.8119,249.9226 -5.5,92.375 -25.2564,83.2709 84.5472,188.6211 70,59.375 -83.1474,71.177 -163.9589,-114.7662 -195.875,-63 102.1674,65.0873 155.8734,-73.2776 82.375,-66 -50.4914,-150.0546 -136.2378,73.764 -91.375,14 96.765,-108.9538 78.2727,114.9623 -68,-7 -39.6322,8.2911 81.8063,150.2015 64,112 -68.6591,-49.7811 4.923,182.2121 0,125 79.0298,-77.3827 45.0557,3.0248 55,30 32.7647,13.755 200.0437,256.9997 160,134 59.2465,3.0006 -5.9959,39.9167 44.5,69 98.2141,-135.3506 186.845,-0.2623 194.5,-23 -48.8087,83.1507 -217.868,94.2783 -91,78.375 113.8352,16.0016 -51.1567,38.0881 111.5,95.375 -100.4998,-61.1485 118.3139,88.1749 84.5,27.25 44.775,-128.9034 10.889,-93.3839 0,49 60.5043,38.8613 103.4272,209.5991 46,176 93.3207,76.1412 182.4086,-176.7821 86.625,-98.375 43.1647,-30.5119 96.5033,-212.2119 86.375,-192.625 -10.3531,-96.4374 96.3621,-163.2481 118,-105 128.0551,113.078 208.1284,208.2173 87,133 74.1234,-79.8111 365.9203,302.8978 35,-80.75 -3.1561,-87.1281 -186.5032,-193.6364 -152,-98.25 -100.0372,29.0871 16.0553,-48.0598 -66,-111 100.7294,-19.4523 465.0381,-33.0244 375,-5 29.6323,-9.4652 156.3368,-61.7463 139.5,-23.25 106.5213,9.9166 474.0007,-85.0035 344.5,-59.75 14.7693,-4.1245 313.6978,-121.7212 159,-52 65.0483,-33.7816 202.943,-101.8854 148,-75 118.7722,-68.278 -48.7738,-10.0878 162,-86 57.375,-62.4108 214.4662,-188.3608 130,-102 7.4554,0.3714 104.7681,-110.2405 89,-81 77.879,-33.0563 288.6795,-167.7685 188.875,-142.875 21.8066,-104.2462 129.7864,-255.1394 109.125,-156.125 40.3145,-70.477 125.5589,-164.7488 104,-132 15.0002,-11.789 126.6565,-69.2297 104.875,-82 3.3008,-51.0338 64.9427,-135.2289 60.125,-100 61.3689,-74.0133 192.8735,-312.2919 154.5,-234.75 74.0284,-52.725 195.1459,-286.0149 133.5,-202.25 10.6851,21.9821 -6.0034,-36.7275 63,-85 -45.2549,96.1165 48.271,24.8695 22,-76 40.4474,-81.4934 2.6652,-99.2067 77,-100 21.4297,1.085 101.774,-119.3533 -2,-82 20.2825,-53.4166 121.3817,-82.9129 -30,70 139.0926,-129.2442 253.7163,-152.9543 222,-140 114.3209,-7.3268 141.3669,-340.5903 80,-156 28.6265,32.027 161.4537,-241.0709 82,-124 81.3568,-103.2209 -49.6762,-90.4147 78,-112 -115.3575,-52.0177 -108.2446,-102.106 19,-115 29.0341,-70.1829 29.7391,-172.6454 49,-84.875 103.7335,17.0639 114.3691,-108.2973 100,-97.5 24.4285,-201.2445 211.6976,207.0947 100,-186.625 55.4307,-31.462 107.6098,-222.468 59,-124 43.2138,105.1717 26.8698,172.3503 44,16 110.985,-285.1995 115.3062,-131.9009 98,-79 30.1301,-115.7913 119.2668,-191.5181 73,-119 60.2821,31.1537 234.0618,-132.4818 113,-94 72.187,23.5365 195.471,49.0989 168,-7 92.0112,-20.7199 379.7609,-31.0503 213,-16 139.338,17.757 266.1412,80.7273 193,44 120.5908,39.2799 234.5317,115.6537 190,68 79.4881,7.1308 240.4617,305.4208 191,188 86.2206,49.0818 115.0982,128.6964 85,102 12.5313,225.5387 -62.1516,-33.5909 -27,149 85.4808,6.8282 161.7417,34.6557 105,93 -10.2616,90.8895 9.1982,172.8548 30,103 -112.0907,29.4021 13.139,167.5911 57,66 18.6472,110.5451 96.2601,123.7249 19,142 54.3808,88.382 -7.8822,31.4592 100,181 141.6797,144.607 200.2414,59.109 83,-26 99.0843,135.6967 184.7798,359.9938 153,327 81.1484,205.5729 -253.7215,179.6231 -200,184 -193.0577,-33.2399 -551.8722,-240.3648 -416.375,-182.25 -136.3417,-116.4017 -319.0649,-159.9147 -420.625,-312 -28.8065,-76.4274 -5.906,-133.5638 -65,-127.75 -10.4413,-19.1677 61.1077,-190.3238 -44.125,-182 61.7714,-79.2956 191.1888,-28.1907 119.125,-8 1.6635,-54.1364 211.5931,-109.6906 203,-66 74.8583,-179.7954 -268.1076,-132.1114 -190,-138 -61.2266,-26.8138 -317.3479,-111.7067 -220.6562,-39.0625 21.2971,11.3039 -131.9871,-42.4516 -84.3438,-8.9375 -119.178,-4.4175 -326.9614,244.621 -231,194 -72.0439,7.2895 -209.6892,285.0931 -168,212 -68.2927,146.4798 -297.46,497.987 -217,371 -77.1148,95.2593 -332.1685,349.7992 -158,189 -18.0227,-7.8076 -289.9627,459.7305 -155,210 -63.4302,88.1423 -297.4173,376.4235 -236,282 -92.3917,104.3562 -227.076,304.9019 -222.75,283.625 147.2634,-103.4926 -517.9793,508.4621 -93.25,137.375 -31.6853,37.2626 -159.2333,195.7315 -116.5,131.625 -144.5023,159.5459 -300.3533,257.8299 -219.5,195.375 -96.2984,67.2132 -276.4306,185.0281 -225.125,180.125 -71.0935,49.462 -243.3034,240.0241 -182.875,140.875 -72.2217,57.1691 -234.6559,113.7273 -183,66 -125.6491,85.011 -297.3571,227.363 -214.75,141 -138.3637,24.6724 -464.6521,188.4936 -367.25,141.75 -30.9197,-27.3415 -299.8029,97.8008 -211,79.25 -118.8181,28.0142 -286.9952,-15.7999 -229.5,11.75 -65.7563,-8.2674 -109.8079,-12.2847 -108.5,-14.75 -88.3177,-51.1117 34.4145,258.8201 101,206 -5.8578,130.0148 -221.3138,273.3875 -211,222 -34.269,15.1781 -104.8692,147.9944 -99.5,104.5 -75.7016,78.5532 -161.4767,240.1694 -136.25,156.875 -65.1748,38.6516 -89.8275,73.9943 -95.75,85.75 2.4289,60.6074 -48.0407,131.5769 -53.5,85.375 -63.0739,93.9713 -143.7709,340.7758 -98,197.5 -12.6402,123.803 -32.4386,190.2313 2.75,128 -132.2721,-27.2246 -61.6941,8.7039 -123.75,28 -37.3751,49.8202 15.6634,77.7517 -150,-1 -78.1205,99.3602 162.3682,124.6808 87,61 92.3824,77.1763 70.7131,-72.1915 6,16 -42.0204,15.0847 -10.5551,-170.0597 -124,-79 100.9835,-98.4587 -39.1003,-142.5716 -46,-53 -50.6296,81.9465 32.9542,238.8961 33.625,201.875 96.7475,-96.0074 90.9648,160.5895 23.375,97.125 169.5744,-90.2684 97.6519,195.0287 82,52 -58.5577,-37.854 -73.4749,-123.4084 -47,-16 -9.2051,-51.3391 -51.4975,31.0224 -73,96 -32.2158,98.2615 -35.168,247.8008 -51.875,142.75 -40.7142,42.1201 -106.4266,163.7883 -108.125,151.25 -49.1905,89.659 -231.6332,415.4377 -186,305.125 -66.0862,32.9681 -214.6726,228.6645 -150.25,179.75 -65.7564,60.8066 -242.5753,209.6101 -185.75,147.125 -169.0447,181.9992 -382.889,367.0658 -315,311 -31.0339,59.3732 -157.9405,162.7819 -110.25,108.5 -105.3137,89.6487 -174.9557,129.4686 -146.75,110.5 -25.7644,16.8975 -196.0382,110.4848 -197.875,111 -185.2221,90.3653 -226.7943,104.6559 -297.125,108 -122.3742,71.4259 -299.9576,59.3657 -257,53 5.4213,-33.0304 -32.4269,2.0828 -43,1 z m -452,-730 c 41.2452,-127.4851 -356.4555,-220.4147 -116,-106 -43.1051,44.7942 134.5666,156.6144 116,106 z m 1196,-76 c 75.4104,-47.9176 91.4468,-81.6108 105,-85 97.0613,-13.7882 49.619,-198.8303 63,-96 50.4283,27.3384 79.7363,35.5497 75.75,-12.375 80.5664,-75.5576 -85.5236,-8.4147 -39,-94.25 -119.3537,37.7543 -166.4826,62.7236 -106.75,147.625 40.1229,-87.0863 -213.3231,197.7868 -98,140 z M 1380,7551 c -5.4586,-41.3639 45.4359,-179.7179 125,-141 209.5858,-108.1351 -313.646,13.7794 -6.3438,30.1875 C 1383.2613,7418.7741 1322.9193,7487.2073 1398,7496 c -7.564,-70.5297 -121.6121,1.8054 -18,55 z m 2175,-703 c 63.9984,-71.1567 -140.5138,-68.9071 26,-87 145.2147,-79.1743 -10.103,33.3422 -31,-44 -97.0758,68.1385 -70.5573,116.4279 5,131 z m 119,-143 c -32.494,-76.7895 -30.857,-133.389 1,-120 45.2415,-88.0662 103.5127,-79.963 117,-66 11.0258,-20.6055 -24.3194,140.9952 -22,115 -19.521,52.8328 87.0877,-212.1228 66.569,-106.3104 -49.9401,-332.2074 -216.5448,370.4701 -192.819,136.4354 -21.4463,0.9301 20.864,85.9686 30.25,40.875 z m 595,-1751 c 20.4228,-160.559 -218.9564,-161.1119 -40,-26 -42.2823,17.8977 27.7482,89.8524 40,26 z m -44,-181 c -49.4864,-109.535 -139.6848,-296.4351 -98,-219 -156.9287,-17.4657 -74.0958,169.4773 -11,129 117.7469,1.3231 -68.9278,69.5905 109,90 z m -431,-115 c 140.336,-164.9609 -80.748,-13.1816 43,-178 -89.6501,155.3505 -48.726,-29.8409 -79,-11 18.4948,89.6362 113.8456,65.7331 -18,92 -15.6328,117.1334 -12.241,55.826 54,97 z m -135,-81 c -30.2339,-38.165 -93.9553,-256.3605 -91,-199 -75.0287,-186.888 -161.1169,-143.4424 -71,-33.875 23.5256,77.0193 117.686,199.083 72.125,168 24.7491,15.7843 95.3867,132.5729 89.875,64.875 z m 407,-34 c -53.1286,-18.0087 -78.0053,-163.3657 -60.0938,-116.0625 -69.7264,-101.7109 5.2288,-221.986 13.5938,-136.6875 -55.4301,27.049 -71.474,-8.1817 -50.5,92.75 28.9379,57.2658 -9.0412,207.3042 97,160 z m -73,-480 c -31.7219,-88.9026 -65.7915,-354.9411 -87.625,-90.625 -101.9274,74.1866 86.6092,64.0589 87.625,90.625 z m -913,-911 c 75.2346,40.4739 1.0748,-16.787 30,-91 -19.1949,-57.8005 -1.7341,111.7052 -72,53 -7.826,0.4602 45.9212,129.5308 42,38 z m -558,-640 c 61.3563,-99.0966 -60.5685,-40.316 -163,-92 39.0039,-63.7323 60.7625,131.6963 163,92 z m -537,-152 c 12.0112,-44.604 50.1386,-103.3593 68.5,-44.875 64.1735,-50.0832 -43.5877,-101.9156 -127.75,-102.375 4.6222,79.5555 -78.6763,-97.2488 -92.125,-20 120.7196,100.9558 -14.73,-142.621 -57.625,57.25 20.9709,68.7503 40.5291,-42.8501 183.125,73.625 11.5737,19.0517 -26.8523,66.2652 25.875,36.375 z"
       id="path4" />
    <path
       d="m 7476,8274 c 0.1335,-6.0846 -107.5224,-29.8386 -130.375,-20.875 -58.5025,-0.2623 -323.6153,-31.2123 -241.625,-31.125 -154.0881,-42.1683 -317.332,-86.8118 -250,-74 -11.9179,-14.8768 -347.5965,-171.5788 -269,-120 -2.7894,-35.5304 -175.2931,-123.3218 -184,-122 -70.0226,-117.915 -262.9074,-0.9182 -159,-151 2.5555,38.7766 -23.6244,-65.4712 -73.875,-52.625 C 6063.8086,7721.8347 5817.7705,7439.6895 5932,7514 c -73.6245,-83.7747 -170.5842,-194.3814 -126,-165 -75.3984,-132.7603 -155.6283,-203.0488 -131,-180 -62.0639,-120.648 -169.5456,-375.3762 -122.25,-265.5 12.861,-55.4498 -74.5319,-290.9065 -64.875,-209 -42.949,-78.3431 -80.3421,-367.13 -65.875,-338.5 43.0161,12.1355 -28.327,-166.3616 7,-168 -63.991,-64.4705 18.3607,-126.0814 -33,-153 68.6124,-143.5877 29.0694,126.0595 -1.125,-106.5 -111.9181,-74.2779 76.0743,-259.6579 9.125,-187.5 -42.3882,-103.8408 10.447,-185.2767 30,-150 -54.0468,7.1228 15.2514,-111.3778 29,-97 26.0648,-88.6438 285.6535,2.7852 204.625,-53.625 75.2744,89.6146 74.8147,304.6155 53.5,251.5 40.372,24.6729 -68.4418,103.306 -7.125,116.125 129.3026,-275.3684 1.188,-40.7997 -15,-39 -10.4726,144.2888 -9.5581,-56.2897 -82,117 -39.2092,14.9783 94.2943,58.814 26,61 145.4337,-63.6151 263.1812,-62.8718 195.5,-114.625 -2.1534,36.8855 -113.5623,288.5841 -55,223.25 -106.8567,87.612 -69.373,178.3116 -56.5,141.375 55.1219,-16.8671 25.8247,361.5835 26.75,-45 37.6759,-145.762 -105.4751,11.8757 -36.75,124 81.5969,40.7588 128.9107,327.7798 81,246 37.1058,25.2165 153.6416,176.224 90.125,146 -11.0955,54.66 144.3846,168.2868 89.5,133.375 -24.0586,59.6716 166.4318,196.7154 79.375,133.625 -19.9492,-24.8067 100.2658,100.844 123,130 59.66,31.3596 149.287,121.6307 104,101 24.3189,-27.976 154.3199,125.694 106,95 26.8271,-1.5121 698.5416,394.859 247,176 -9.8713,71.3178 91.4101,70.8154 71,43 132.9531,137.1962 135.602,12.5495 219,143 59.5056,13.8888 239.9923,82.5568 209.75,72.375 46.2382,-27.8511 258.6014,68.6202 216.5,50.375 43.1376,54.1088 277.652,-19.9607 236.75,-20.75 125.9956,-1.8031 348.0201,-96.0029 224,-78 44.9944,-8.5246 172.0541,-173.5244 159,-159 -36.2924,4.0376 -307.853,-50.3692 -165,-119 -21.404,42.1235 127.0771,19.593 -45,-16 -155.2998,-65.9734 -191.6617,51.775 -139,45 -61.0702,-59.734 -266.2145,-12.0833 -226,-12 -7.1547,-35.0103 -171.4985,29.0496 -115,-3 -249.9606,-30.0077 -478.4434,-220.3788 -426,-206 -95.4541,-84.5514 -371.0105,-375.3358 -275,-264 -47.0912,-104.5335 -150.8128,-305.7957 -103,-204 -23.015,-86.5581 139.2129,-17.3067 109.125,-17.125 -90.8045,-114.1352 25.8904,-122.9447 41.875,-66.875 4.3477,-60.4808 78.3982,-7.9024 94,16 87.6988,-7.802 133.9764,-13.9459 66,48 18.8578,77.6316 -1.7031,137.8241 -19,133 -20.9433,79.1166 199.9766,77.414 96,82 -90.2667,19.5069 323.823,205.5874 76.75,62 110.0171,-37.4753 -146.1523,-169.3311 -23.125,-98.875 -102.6711,-94.2215 59.9226,-293.4514 32,-203.25 19.3433,71.152 257.0426,3.0965 114.25,47.875 -145.4395,-2.8689 130.7806,69.6695 36.875,-31.75 -77.9636,65.599 54.3,174.449 74.5,79.125 -160.6598,-10.7028 51.4442,-48.4869 3.75,-55.125 71.5348,29.8335 226.9997,77.4623 169.25,53.875 35.8664,141.2452 312.8116,169.1356 135.75,121.125 104.1752,-45.0642 265.1071,53.7615 181.75,22.125 -0.2881,46.1624 -38.12,-34.808 53.25,50.875 74.0359,-7.8996 178.4082,5.5801 141.75,-44.375 -33.0012,60.3978 41.4984,116.5631 56.25,36.375 83.0768,-156.5026 2.1899,-179.3892 88,-30 -40.8215,-11.2789 40.8525,-51.9194 -35.375,27 -88.3352,271.5672 130.2178,-236.6376 72.375,-2 124.5093,-24.4497 165.2989,-41.6151 127,45 61.8361,94.3976 163.3842,224.098 124.625,157.125 35.1268,31.2921 -17.2221,163.6085 37.375,117.875 69.7261,-13.7219 59.3045,82.5274 58.125,62.75 50.6629,101.4182 21.85,378.827 26.875,248.25 8.2876,88.5231 -79.9376,277.3565 -69.375,262.625 -38.8532,41.8688 -195.285,155.8403 -138.625,117.375 2.1735,23.4915 -145.2182,128.3345 -125,115 -21.7491,1.0768 -221.8266,139.8302 -154,104 -91.0243,10.8977 -298.9405,74.4782 -225.125,64.125 -57.1901,18.8265 -272.9518,97.3247 -221,47.625 z m 10,-352 c 60.3747,-82.6691 195.4124,-91.0398 64,-67 -51.9427,-73.0763 -210.3426,-26.1728 -155.5,-7.875 -57.0863,-10.7343 -225.8176,-29.7402 -160.5,-36.125 -75.5867,-27.3935 -207.4877,-79.925 -120,-58 -86.8137,0.7539 -138.4296,102.2229 -116,17 75.0123,-19.1647 147.9675,1.9929 99,26 54.2839,4.7465 304.4793,82.6425 199,67 26.0245,49.347 226.5971,36.2886 184,32 -27.8265,-1.7901 12.8052,56.1877 6,27 z"
       id="path6" />
    <path
       d="m 3095,7410 c -169.4249,41.7829 -46.9021,0.713 -50,-83 73.479,97.2174 121.9741,22.0134 62,-5 35.0298,12.5249 20.1637,-73.9853 -18.375,-63.25 0.8133,-57.5945 142.0672,-59.9073 146.375,-67.75 133.7383,-17.4429 -13.5748,155.0185 -41.625,136 -53.6134,-23.7974 -76.0008,116.4025 -98.375,83 z"
       id="path8" />
    <path
       d="m 4307,7253 c -2.6666,-13.5433 -78.2907,-254.4752 -86,-238 -87.9448,-166.8732 155.2554,-15.8615 -59.375,-96.125 100.6315,-41.5404 52.3151,-218.5802 -26.125,-133.375 4.6778,41.8076 96.7655,-328.9852 61.5,-132.5 34.6721,80.1771 34.8058,87.7219 60,109 -71.4814,84.0289 -86.4309,-82.3373 2,-36 57.787,-18.0132 126.807,-211.6446 76,-116 -114.1958,130.6846 -100.2087,88.0459 -95,0 53.5874,-237.9568 144.2793,-45.5468 165,-2 9.7534,61.625 -80.1633,34.2195 -39,106.125 49.0097,1.8703 51.0808,-137.8635 10,-96.125 -54.5012,-11.2451 -75.507,134.9427 -6.625,151.625 -79.4867,-39.625 84.5085,64.6401 -27.5,136.625 -145.8449,-106.6558 2.1685,-58.9164 18.125,-46.25 -7.1928,35.9049 122.7516,14.0347 -73,112 62.2814,42.7158 19.944,285.4567 45,197.875 69.2793,-31.8769 8.173,80.0761 -25,83.125 z"
       id="path10" />
    <path
       d="m 1159,6695 c -141.5346,-143.8337 -1.668,-106.1183 -90,-146 -59.7868,15.0298 94.5652,162.392 92,31 -23.0856,16.5011 -14.8799,121.2352 3,71 2.7013,-27.5374 156.4338,0.2677 -5,44 z"
       id="path12" />
    <path
       d="m 3864,6448 c -34.4528,-113.8558 -23.4162,-187.7228 -9,-148 -147.953,176.1634 49.0666,-21.9965 10,-23 152.8164,49.6937 46.8525,-28.9657 12,182 l -11.375,4.625 z"
       id="path14" />
    <path
       d="m 3938,5761 c 24.2957,-23.4337 -16.6617,-270.7154 -3,-194 2.1519,-88.685 -5.174,-260.2706 -8,-180.125 -24.2621,-124.7338 -97.5411,-371.7213 -69,-253.875 -16.9654,6.9563 -62.1187,-145.6963 -44,-111 -113.9785,-1.1943 -20.5547,351.1191 66.75,187 76.5409,-115.5606 85.8744,85.5106 56.25,78 65.507,-35.7975 91.1724,132.0376 57,67 -129.292,52.9471 -36.6649,-47.4025 -10,20 50.7186,124.0604 53.1729,307.3291 10.125,199.625 1.9946,82.1525 112.823,208.5379 -56.125,187.375 z"
       id="path16" />
    <path
       d="m 4315,5322 c 70.3628,-16.2475 37.8992,-101.6033 -48,-118 8.9138,88.6104 69.5561,63.2865 54,-3 -101.7028,-42.6317 -114.0789,-161.988 -10.5,-81 -37.886,-31.2465 -2.5795,274.0502 44.25,149.375 54.0561,-10.4666 -21.8943,77.058 -39.75,52.625 z"
       id="path18" />
    <path
       d="m 4070,4920 c 169.7791,-53.2661 49.9035,-162.8461 -92.75,-72.5 41.3981,133.2298 102.3938,-95.7021 120.7344,-51.6719 -167.116,2.3328 -155.3153,-61.0658 32.0156,-14.8281 32.2336,-66.8681 -11.6389,182.1518 -60,139 z"
       id="path20" />
    <path
       d="m 3829,3859 c -17.8331,-93.7087 141.8613,-83.121 3.25,-165.25 208.5358,-46.1485 127.9293,-94.6104 38.75,35.25 -116.5326,-47.7844 -5.8587,-57.3949 1,64 82.5638,28.7087 -14.1398,48.1929 -43,66 z"
       id="path22" />
    <path
       d="m 3692,3450 c -94.1749,-98.1044 -173.9967,-281.2095 -83,-201 62.7659,59.451 135.023,65.2314 91,61 33.2754,47.4354 130.7469,157.1739 73,116 51.544,32.8873 -73.9471,39.2906 -81,24 z"
       id="path24" />
  </g>
</svg>
