<?xml version="1.0" ?>
<svg xmlns="http://www.w3.org/2000/svg" xmlns:ev="http://www.w3.org/2001/xml-events" xmlns:xlink="http://www.w3.org/1999/xlink" baseProfile="full" height="600px" version="1.1" viewBox="209.55936990990864 -2683.2197764656366 5638.314832421626 6008.821408310724" width="564px">
	<defs/>
	<path d="M 2528.4,-2180.4 C 2500.73934,-2075.5328999999997 2609.9230199999997,-1811.3263200000006 2577.0,-1905.6 C 2607.16872,-1839.4520399999997 2715.5664,-1888.3563599999998 2673.0,-1852.1999999999998 C 2696.53404,-1826.22126 2731.09488,-1720.6848000000005 2723.4,-1764.0 C 2732.5785,-1746.7578000000005 2723.90868,-1757.7454800000003 2772.6,-1759.8 C 2745.36024,-1769.52084 2706.52266,-1832.2801800000004 2760.15,-1794.75 C 2855.97,-1780.36806 2895.0613800000006,-1769.9545800000003 2863.125,-1772.475 C 2915.1486600000003,-1763.52144 3032.0300399999996,-1683.92376 2976.6,-1684.8 C 2952.5922,-1701.64104 2957.7565199999995,-1575.4345799999999 2959.7999999999997,-1599.6 C 2986.5728999999997,-1542.07362 3002.23818,-1460.6332199999997 3032.1375,-1530.1031399999995 C 3030.89898,-1497.9828599999998 3005.04738,-1456.1351399999992 3009.9,-1442.3999999999999 C 2973.93252,-1483.7549399999998 2937.56382,-1401.91464 2950.2,-1413.6 C 2963.52282,-1350.8019600000002 2844.23982,-1279.0272599999998 2855.4,-1313.3999999999999 C 2860.89864,-1282.6057799999999 2758.5818999999997,-1212.82482 2796.0,-1241.3999999999999 C 2716.61742,-1185.72684 2528.4027,-1154.0894999999998 2600.4,-1173.0 C 2496.99552,-1171.9821 2598.85878,-1138.1335199999999 2528.4,-1140.0 C 2479.93062,-1121.1079799999998 2455.95174,-1191.41274 2450.25,-1194.675 C 2355.3518400000003,-1226.1817800000001 2512.21884,-1143.6010199999998 2415.0,-1173.6 C 2375.93814,-1208.94606 2301.20604,-1222.4421599999996 2355.6,-1224.6 C 2274.56952,-1215.71274 2240.41212,-1335.6475799999996 2257.7999999999997,-1191.6 C 2305.008,-1162.2301199999997 2419.0612199999996,-1110.7419 2400.6,-1113.0 C 2418.1476,-1141.07424 2332.06272,-1194.2001599999999 2343.6,-1166.3999999999999 C 2349.0885599999997,-1206.0928199999998 2320.11168,-1245.4490400000002 2292.6,-1209.0 C 2377.7395199999996,-1188.46758 2435.32422,-1089.5837999999999 2426.4,-1112.3999999999999 C 2451.01788,-1128.3914399999999 2351.9496000000004,-1092.28068 2360.4,-1080.6 C 2318.79384,-1067.38632 2016.6627600000002,-1023.8810399999998 2105.4,-1057.8 C 2011.24878,-1028.2582200000002 2019.57864,-1037.7135600000001 1914.975,-1014.3 C 1777.94202,-1020.7947599999999 1526.53866,-1025.3108999999997 1536.3,-1023.4499999999999 C 1461.9421799999998,-978.4465800000002 1324.908,-1008.9036599999997 1407.6,-1011.0 C 1373.75334,-962.5217400000001 1218.4323,-891.3371999999999 1222.8,-962.4 C 1207.674,-975.0375 1122.7076399999999,-935.9442 1160.25,-982.275 C 1137.62928,-1027.9269000000002 1013.50698,-977.5490400000002 1012.5749999999999,-1001.025 C 988.08966,-1060.6399199999998 899.9234999999999,-1098.8232599999997 889.8,-1076.3999999999999 C 864.2395799999999,-1082.90322 742.2265199999999,-1150.5748799999997 785.4,-1130.3999999999999 C 681.89112,-1212.67428 631.6579199999999,-1093.3240199999998 750.0,-1062.6 C 813.63156,-1019.0855400000002 828.64284,-969.5923199999996 779.4,-967.8 C 830.7417,-950.2841399999998 752.25516,-1076.5140599999997 808.1999999999999,-1031.3999999999999 C 754.4904599999999,-975.9387000000002 842.8549199999999,-1017.5347199999999 818.4,-1042.8 C 843.96672,-1023.46296 934.56084,-1044.9721200000001 879.8249999999999,-1032.075 C 893.9445,-970.72122 824.1451199999999,-944.1184800000003 831.0,-957.5999999999999 C 772.32564,-939.7510199999998 669.4539599999999,-932.6610000000002 724.9499999999999,-927.525 C 654.069,-868.7420400000001 805.6584,-891.0427200000001 798.6,-875.4 C 864.03324,-848.001 1171.35942,-813.09714 1095.0,-826.1999999999999 C 1262.36508,-777.7681800000001 1852.0488,-757.7470199999997 1667.3999999999999,-766.1999999999999 C 1798.5322199999998,-738.9694200000001 1925.9074799999999,-680.8058400000001 1848.3,-733.425 C 1896.6522,-709.5649199999998 1985.7981,-748.5312599999999 1963.8,-750.0 C 2001.0484199999999,-723.6838199999999 2212.0557599999997,-740.7134399999999 2162.4,-761.4 C 2250.33336,-738.8381399999998 2524.2635400000004,-813.4159799999999 2429.4,-790.1999999999999 C 2495.7627,-805.2081 2643.30576,-858.7520399999997 2585.4,-828.6 C 2661.7719,-874.0714200000002 2758.25544,-886.4300999999999 2733.6,-884.4 C 2661.76062,-811.4222399999999 2589.5451599999997,-728.5295400000001 2540.4,-627.6 C 2507.9451599999998,-574.6547999999999 2459.7592799999998,-396.07068000000004 2481.0,-471.59999999999997 C 2462.19468,-412.8192600000002 2467.49868,-266.65962000000013 2468.4,-315.59999999999997 C 2465.54352,-170.5425600000002 2469.55704,-152.28030000000015 2478.0,-202.79999999999998 C 2457.42048,-143.69507999999985 2504.59074,50.55438000000015 2497.2,-9.0 C 2486.72178,25.651559999999883 2526.6513,201.11046000000022 2524.65,146.475 C 2562.46044,166.9377000000002 2628.9364800000003,292.58094 2556.75,249.89999999999998 C 2552.4115199999997,271.1183999999997 2488.17516,234.70962000000014 2513.4,245.39999999999998 C 2488.66806,163.84464000000025 2357.91546,170.57885999999996 2418.0,168.6 C 2381.43138,139.19993999999988 2345.78538,114.53268000000025 2321.4,164.4 C 2354.63682,161.53014000000022 2272.3655400000002,136.37916000000007 2279.625,152.4 C 2235.24618,209.43041999999988 2155.37598,187.42560000000014 2204.5499999999997,162.29999999999998 C 2173.18236,144.63047999999998 1909.7209799999998,145.18116000000006 1996.6499999999999,131.775 C 1907.5804199999998,137.45333999999986 1770.1016399999999,131.33225999999996 1827.6,138.0 C 1795.21914,154.42674000000025 1537.2351599999997,156.51149999999998 1588.2,144.6 C 1517.32848,178.08413999999973 1377.7984800000002,182.51777999999976 1430.25,180.75 C 1234.31484,268.9921800000002 1206.804,359.04984 1150.2,382.8 C 1125.65514,406.10813999999976 1064.439,479.05386 1081.2,459.59999999999997 C 1117.70568,522.3559800000003 1063.92126,494.39507999999984 1071.0,512.4 C 1069.95654,524.8495200000001 1030.63812,648.0427799999998 1039.5,645.225 C 1048.6722,684.79074 1189.45596,864.5356799999997 1086.0,837.6 C 1011.38478,787.4137200000001 1045.89498,856.0566599999999 1052.3999999999999,893.4 C 1098.1032599999999,900.20394 1017.3239399999999,950.2059599999999 1104.0,1039.875 C 1181.7957,1000.9415399999998 1092.45888,1023.3088799999999 1110.0,1060.2 C 1140.06168,1115.1397200000001 1171.53102,1230.45738 1182.45,1235.175 C 1198.125,1233.5979599999998 1156.2633,1275.85566 1199.3999999999999,1275.0 C 1233.0502199999999,1321.1396399999999 1296.64698,1398.26898 1264.6704599999998,1315.55562 C 1177.9017,1412.4897 1198.0676399999998,1370.385 1260.0,1345.2 C 1281.01578,1356.65538 1462.02384,1583.79966 1266.0,1415.3999999999999 C 1226.7981,1168.29372 1390.30476,2185.48044 1255.2,1448.3999999999999 C 1336.3978200000001,1460.2422 1281.41382,1555.8901799999996 1294.2,1496.3999999999999 C 1284.6930000000002,1503.98946 1293.60306,1492.12128 1348.8,1479.6 C 1360.69074,1496.6573399999997 1428.07248,1598.9599199999998 1357.8,1530.6 C 1494.9807,1498.3935000000001 1333.3873199999998,1487.5768199999998 1348.2,1561.2 C 1306.58322,1563.39228 1347.67536,1663.63248 1351.95,1638.6 C 1381.5964800000002,1629.9010199999998 1529.69292,1693.2695999999999 1469.55,1695.1499999999999 C 1479.54186,1630.87722 1535.8476,1633.7495999999999 1495.8,1705.8 C 1516.0155,1621.3823399999999 1532.90322,1568.16072 1530.6,1564.8 C 1519.82694,1539.56916 1526.8902600000001,1511.6360399999999 1513.8,1485.0 C 1544.58018,1417.12302 1523.13546,1355.48778 1514.0249999999999,1299.6 C 1531.02672,1296.03846 1447.6596599999998,1167.24732 1465.8,1204.8 C 1476.7855200000001,1149.7040399999998 1432.1745600000002,1093.3725000000002 1428.6,1130.3999999999999 C 1360.88772,1042.34628 1293.9277199999997,994.36926 1342.2,1023.5999999999999 C 1304.7154200000002,1003.9821 1227.46416,900.24774 1269.0,956.4 C 1237.1069400000001,905.6764799999999 1290.70626,822.8342400000001 1278.0,830.4 C 1302.6654600000002,789.6614999999999 1318.68474,736.4602799999999 1316.3999999999999,760.35 C 1349.3152199999997,750.1817399999999 1383.13602,612.5116200000002 1351.8,650.4 C 1368.8667,601.3272599999998 1413.86772,525.9859200000003 1396.8,546.0 C 1406.68074,501.75419999999974 1484.45766,462.01842000000016 1461.45,475.95 C 1497.8635199999999,437.5657200000001 1622.30424,393.0360599999998 1584.0,415.2 C 1616.1692400000002,431.8747199999998 1700.64,448.6720799999999 1687.2,409.875 C 1757.77044,407.2835400000002 1905.3428399999998,460.51758000000007 1856.85,412.65 C 1910.8365,362.61126 1959.0013199999999,432.34283999999985 1941.0,372.0 C 2016.13314,309.68675999999977 2076.68178,303.2101199999999 2061.0,352.2 C 2118.2979,342.3429600000001 1975.16574,296.3129999999997 2012.3999999999999,360.59999999999997 C 1926.14952,408.0266399999998 2091.11322,410.74775999999997 2061.0,402.59999999999997 C 2087.9871000000003,384.59783999999996 2178.95778,387.9459600000002 2228.4,362.4 C 2177.24202,362.61804000000006 2188.55022,262.7731200000002 2240.7,312.675 C 2287.49754,336.48972000000015 2313.5525399999997,323.50098000000014 2325.0,324.0 C 2430.6594,317.7039599999998 2349.9273000000003,446.1710400000002 2352.6,368.4 C 2287.77144,321.60954000000015 2449.80402,363.6696600000001 2353.2,373.8 C 2461.84566,381.92886 2346.9059399999996,352.0159199999998 2443.7999999999997,378.0 C 2470.9073999999996,358.95822000000027 2506.6949999999997,368.5902600000001 2461.875,340.275 C 2466.88134,424.69169999999974 2597.63742,344.2166999999998 2575.7999999999997,360.59999999999997 C 2585.4542399999996,385.11905999999993 2616.53694,655.0120200000001 2616.0,569.4 C 2633.03622,661.5438599999998 2624.4510600000003,760.7232599999998 2640.0,679.8 C 2692.81572,716.65902 2723.1627599999997,828.5427599999998 2695.7999999999997,798.0 C 2752.11402,823.1003999999999 2821.21548,1055.2250399999998 2792.4,990.0 C 2817.04902,1098.9791400000001 2811.56712,1076.3835 2847.0,1156.2 C 2864.54928,1212.76608 2957.4948000000004,1395.5107799999998 2921.4,1335.6 C 2925.20208,1361.29134 2992.5834600000003,1529.43702 2968.2,1460.3999999999999 C 3041.5514999999996,1547.37342 3031.26564,1682.67606 2884.6968599999996,1703.7187199999998 C 2782.01394,1730.5492199999999 2084.78136,1800.97974 2436.0,1745.3999999999999 C 2462.14266,1775.5443599999999 2404.99338,1712.62962 2413.2,1710.0 C 2404.2506999999996,1717.1230799999998 2359.18602,1644.94188 2342.1749999999997,1670.85 C 2307.4132799999998,1769.0285999999999 2394.80574,1735.7725799999998 2372.4,1699.2 C 2262.588,1796.0848200000003 2241.02946,1684.78692 2274.075,1670.0249999999999 C 2270.96748,1708.5581399999999 2248.23762,1778.86458 2259.0,1752.6 C 2224.65054,1756.5494399999998 2259.52332,1672.81182 2251.2,1698.6 C 2215.71456,1685.229 2360.70774,1604.4394799999998 2250.525,1648.2749999999999 C 2299.1463,1610.32572 2084.3293200000003,1542.2644799999998 2101.7999999999997,1592.3999999999999 C 2020.5439199999996,1608.83442 1986.5924999999997,1630.8544799999997 1988.3249999999998,1624.875 C 1905.4700399999997,1628.18958 1889.9787,1642.14606 1887.0,1644.6 C 1808.62212,1642.7973 1730.92146,1653.4089 1771.1718600000002,1652.2031399999998 C 1729.7276400000003,1681.52766 1609.08426,1705.53462 1648.8,1688.85 C 1607.05986,1709.01048 1596.85638,1791.6314399999999 1560.0,1752.6 C 1554.4833600000002,1713.9167999999997 1431.1464,1745.2363799999998 1459.8,1777.8 C 1428.73344,1820.41902 1474.3359,1909.43472 1491.0,1852.8 C 1448.94864,1818.35724 1557.8033400000002,1968.0548999999999 1545.0,1948.8 C 1617.18054,1975.6720799999998 1699.0971,1968.85314 1635.975,1925.7749999999999 C 1681.11324,1976.04174 1778.97138,1976.1657599999996 1740.0,1969.8 C 1781.9444999999998,1945.40868 1729.6698,1988.4885599999998 1790.475,1998.3 C 1777.24788,1972.03854 1836.38016,2035.50984 1761.6,2005.8 C 1821.13776,2006.23338 1856.4400199999998,1919.1844800000001 1866.6,1986.6 C 1904.8270199999997,2102.919 1863.3008399999999,1887.44382 1899.6,2043.6 C 1941.6796199999999,1966.74732 2082.0204599999997,2046.8741999999997 2014.8,2012.3999999999999 C 2044.98048,2044.8792599999997 2053.37112,2095.4657399999996 2000.3999999999999,2061.6 C 2007.58368,1994.6523599999998 1767.9567,2039.15706 1940.3999999999999,2038.8 C 1882.3312799999999,2039.74542 1983.13086,2064.77742 1986.0,2073.6 C 2024.0592,2074.82028 2137.9361400000003,2137.5393 2088.6,2116.2 C 2177.26368,2133.78264 2050.33128,2051.57148 2148.6,2101.7999999999997 C 2144.30712,2162.9671799999996 2271.94374,2216.73672 2225.775,2156.475 C 2227.2250200000003,2128.01532 2336.66118,2056.93902 2329.7999999999997,2138.4 C 2335.5861,2143.18464 2371.40424,2178.18186 2382.75,2198.475 C 2459.9728800000003,2193.76806 2533.0226399999997,2178.5388599999997 2496.0,2192.475 C 2470.85232,2226.10878 2518.5346799999998,2224.60308 2533.35,2215.875 C 2572.89258,2226.19386 2703.47124,2246.24598 2652.6749999999997,2228.1 C 2721.1992,2211.91728 2788.2409799999996,2213.2155599999996 2773.7999999999997,2217.0 C 2747.3624999999997,2145.61116 2932.79544,2238.59724 2895.0,2190.0 C 2964.45234,2169.99018 3086.5938,2141.70252 3012.0,2150.4 C 3057.20778,2137.0996800000003 3168.3615600000003,2120.20062 3090.0,2122.2 C 3143.9610000000002,2083.77414 3188.8947,2162.46288 3221.4,2106.0 C 3229.6288799999998,2157.39774 3277.4718000000003,2056.7014799999997 3249.0,2124.0 C 3286.46292,2087.41206 3254.6883,2189.44182 3231.375,2206.4249999999997 C 3231.6605999999997,2252.82348 3222.7099200000002,2403.0325799999996 3235.7999999999997,2348.4 C 3220.5075599999996,2460.2134800000003 3336.4625999999994,2489.25774 3312.0,2469.0 C 3277.5575999999996,2553.27924 3413.3296800000003,2321.19288 3421.65,2414.85 C 3496.81902,2457.99792 3452.17104,2306.7942 3474.375,2305.0499999999997 C 3528.5445600000003,2229.7005599999998 3560.39394,2231.37828 3538.95,2121.6749999999997 C 3513.28008,2094.5435999999995 3480.84396,2023.7875199999996 3490.95,2062.35 C 3469.90116,2146.1119799999997 3438.80808,2035.95798 3452.7,2038.35 C 3563.78874,2098.518 3476.26782,1946.75694 3465.0,1952.3999999999999 C 3417.1250999999997,1903.7575199999999 3475.77462,1819.2080399999998 3520.2,1846.1999999999998 C 3514.9989,1845.51624 3611.93184,1734.1535399999998 3602.4,1778.3999999999999 C 3638.94174,1750.7668199999998 3724.3389,1664.5677599999997 3690.0,1691.3999999999999 C 3740.9230199999997,1685.86176 3803.9827800000003,1701.57468 3747.0,1630.8 C 3778.33596,1604.1801600000001 3841.46958,1519.1466 3833.3999999999996,1540.8 C 3858.6859799999993,1506.75462 3920.6103599999997,1448.94486 3897.6,1477.2 C 3927.9737999999998,1450.42272 3935.38008,1352.7576600000002 3955.2,1375.125 C 3977.2938,1321.88832 3970.97808,1423.48668 4027.575,1287.45 C 4074.55692,1245.34914 4102.35948,1054.5607200000002 4135.95,1105.2749999999999 C 4146.1671,1079.1441599999996 4179.60942,935.6646599999999 4186.05,1019.8499999999999 C 4195.81494,1014.66504 4286.14848,862.0114199999999 4261.724999999999,898.725 C 4325.15136,794.7577800000001 4399.7571,828.8877000000002 4377.525,709.5 C 4425.72672,713.06976 4554.21966,534.6453 4497.599999999999,592.1999999999999 C 4552.672799999999,578.7848999999998 4645.80606,597.9993 4596.599999999999,576.6 C 4518.5547,591.8986800000001 4651.538459999999,595.96104 4618.575,596.25 C 4663.41606,612.4243199999999 4783.28886,625.3066200000001 4739.4,618.6 C 4796.081459999999,628.2818400000002 4911.73794,772.1461200000001 4886.4,743.55 C 4931.40828,803.9635199999998 5051.288159999999,1006.5685800000001 5017.8,938.4 C 5009.959500000001,982.9740600000001 5084.124000000001,1274.4957 5025.0,1065.6 C 5004.003180000001,1024.73202 4999.704659999999,1184.0032199999998 4999.8,1118.3999999999999 C 4975.06686,1181.50416 4913.50554,1270.14918 4965.599999999999,1233.6 C 4949.0403,1311.0555599999998 4963.72404,1408.1999399999997 4936.8,1353.0 C 5013.5379,1350.26676 4855.1034,1488.98256 4932.224999999999,1443.45 C 4950.1275,1463.65044 4993.390259999999,1334.1036 4916.175,1406.25 C 4883.63094,1404.7467 4926.05274,1532.4097800000002 4888.5,1482.675 C 4834.29066,1487.20002 4809.8235,1588.73514 4834.2,1560.0 C 4819.1772,1604.99568 4725.79788,1795.92936 4761.599999999999,1738.2 C 4723.320239999999,1831.3624200000002 4655.80794,2086.56072 4689.0,2007.6 C 4681.7505599999995,2066.92506 4672.58226,2165.47914 4684.8,2144.4 C 4721.309700000001,2081.97204 4788.59268,2028.34398 4756.8,2040.0 C 4782.10836,1985.61276 4804.02522,2141.26638 4765.575,2089.7999999999997 C 4749.87204,2079.6118199999996 4823.250959999999,2135.0435399999997 4726.8,2102.4 C 4708.704000000001,2166.4332000000004 4886.29758,2072.8648200000002 4766.925,2157.375 C 4761.74298,2207.6988 4677.32916,2195.90922 4755.0,2192.4 C 4768.72866,2281.371 4730.7777,2136.10986 4740.0,2149.2 C 4700.17332,2078.1890999999996 4692.2379,2144.6883 4726.8,2166.0 C 4711.18074,2112.23028 4685.39754,2282.01654 4665.45,2242.35 C 4701.24438,2288.45214 4704.00408,2397.69594 4673.4,2357.4 C 4711.801079999999,2384.44806 4734.4177199999995,2510.74836 4685.775,2438.9249999999997 C 4662.18708,2449.1058 4716.63264,2418.3151199999998 4689.0,2474.4 C 4693.0671,2461.24506 4739.59668,2439.95946 4720.8,2449.2 C 4719.745260000001,2386.8465 4790.81706,2539.52604 4749.825,2503.2 C 4747.30926,2515.05474 4738.1817,2586.00324 4774.8,2517.6 C 4734.049980000001,2546.7885 4661.84268,2448.7963799999998 4680.0,2521.7999999999997 C 4710.39672,2487.5797199999997 4564.99368,2496.2042399999996 4689.599999999999,2548.2 C 4649.826419999999,2648.52156 4604.160779999999,2640.01428 4648.2,2579.4 C 4600.69488,2451.4462200000003 4658.66388,2639.36526 4693.2,2637.525 C 4786.43466,2588.3019600000002 4712.61708,2663.6418599999997 4764.0,2617.7999999999997 C 4767.6171,2582.49504 4689.904140000001,2453.3006399999995 4766.4,2461.2 C 4763.02902,2457.0404399999998 4826.66388,2298.9833399999998 4838.4,2389.2 C 4864.76286,2326.0557599999997 4829.77824,2263.94514 4822.2,2321.4 C 4770.969239999999,2403.04794 4801.82424,2488.5774 4815.599999999999,2435.4 C 4792.756199999999,2436.97866 4756.060619999999,2308.98948 4770.45,2350.125 C 4787.3877,2252.97156 4759.18092,2439.7010999999998 4765.2,2413.2 C 4719.4515599999995,2445.1856399999997 4673.0823,2358.52296 4722.599999999999,2362.7999999999997 C 4659.09858,2295.2719199999997 4727.55246,2241.5177999999996 4761.9,2292.6749999999997 C 4794.4376999999995,2334.2288399999998 4787.633819999999,2358.33648 4831.8,2316.6 C 4864.65534,2395.06644 4920.2350799999995,2228.7726599999996 4902.0,2243.4 C 4919.00376,2202.99666 4960.43124,2117.64102 4941.599999999999,2147.4 C 4967.397059999999,2089.04262 5049.417779999999,1944.63204 5019.0,1988.3999999999999 C 5040.1623,1918.81962 5142.365400000001,1759.63038 5114.775,1811.25 C 5171.064839999999,1741.6095 5267.15472,1521.68034 5239.8,1612.2 C 5262.0294,1457.1264600000002 5408.66016,1506.9062400000003 5310.599999999999,1383.6 C 5336.230139999999,1350.50142 5361.24672,1215.0046799999998 5337.9,1246.6499999999999 C 5336.445119999999,1176.5943599999998 5361.3366,1028.79576 5368.2,1090.8 C 5423.390939999999,1075.53774 5159.21664,611.5798199999997 5325.0,908.4 C 5270.078640000001,819.2432399999998 5093.46528,590.8843200000001 5173.8,676.8 C 5118.52776,586.5594000000001 5046.718980000001,483.18011999999976 4975.8,419.4 C 4948.4376600000005,387.8882999999998 4742.1027,294.97674000000023 4833.599999999999,331.8 C 4774.887599999999,289.98413999999974 4718.564759999999,141.1042200000002 4698.599999999999,220.2 C 4643.990159999999,276.72438 4543.112579999999,265.97592000000003 4611.0,288.0 C 4689.166859999999,252.41928000000007 4678.50942,181.41504000000003 4626.825,212.7 C 4654.10964,301.1149199999998 4662.21306,232.67957999999982 4672.8,216.6 C 4686.2367,175.6007999999998 4693.86792,333.50141999999977 4711.8,266.4 C 4783.48332,167.39334000000014 4855.2262200000005,54.351119999999696 4934.4,-36.0 C 4968.01212,-90.04158000000007 5146.15782,-241.7213400000002 5101.2,-187.2 C 5156.77098,-199.50624000000005 5311.562999999999,-366.3192600000002 5229.0,-291.59999999999997 C 5273.33238,-345.42960000000016 5188.9801800000005,-292.1685000000001 5225.25,-332.175 C 5167.8155400000005,-289.2980999999998 5175.47544,-183.19115999999977 5166.0,-262.2 C 5131.04634,-328.60757999999987 5150.37558,-281.3627399999999 5100.599999999999,-266.4 C 5204.46174,-285.14814 5110.9567799999995,-291.33222000000023 5079.599999999999,-254.39999999999998 C 5056.99518,-303.00570000000005 5094.517499999999,-334.0816200000001 5113.8,-301.2 C 5169.38118,-314.0024400000002 5151.8225999999995,-355.09194000000025 5118.599999999999,-346.8 C 5124.141839999999,-380.40594000000004 5041.511399999999,-282.56340000000023 5070.0,-322.8 C 5108.69844,-394.66404 5053.502699999999,-366.69282000000004 5103.224999999999,-398.55 C 5065.3582799999995,-428.65997999999985 5155.396979999999,-605.6629199999998 5193.599999999999,-558.0 C 5249.462999999999,-654.9470400000002 5142.908519999999,-545.8125600000001 5127.0,-537.6 C 5098.8606,-556.3180799999999 4985.83578,-456.48774 5032.2,-501.59999999999997 C 4991.36898,-456.2426999999998 4896.96822,-290.30201999999986 4877.4,-332.84999999999997 C 4807.84002,-239.90490000000023 4839.1254,-257.6926199999998 4753.05,-207.825 C 4715.027160000001,-166.5452399999998 4604.9427,-144.49199999999982 4640.4,-184.79999999999998 C 4628.433359999999,-129.98958000000002 4714.769219999999,-175.35671999999994 4670.925,-71.175 C 4634.13468,-74.94485999999979 4588.9996200000005,-136.69782000000015 4643.4,-129.0 C 4639.92624,-152.80085999999991 4533.9909,39.908160000000095 4538.4,0.6 C 4460.80146,111.71429999999982 4798.146479999999,-23.67353999999995 4473.599999999999,64.2 C 4490.472719999999,94.83564000000005 4377.486359999999,185.12021999999996 4389.0,146.4 C 4381.59924,173.14992 4293.23808,225.79968000000008 4300.724999999999,231.14999999999998 C 4196.0121,319.96728 4097.657939999999,273.1995599999998 4072.2,270.59999999999997 C 3943.4236199999996,248.61689999999996 3890.53464,366.8878199999999 3988.2,414.59999999999997 C 4045.4742,408.0112799999999 4096.98558,394.7729399999998 4055.3999999999996,464.84999999999997 C 4074.76494,573.1108199999999 4005.1130999999996,572.3785799999997 4017.6,538.1999999999999 C 3967.4442,539.4641399999998 3867.18804,676.7171399999999 3909.0,614.4 C 3898.17378,659.7826200000001 3922.11126,710.2271999999997 3899.625,705.975 C 3881.4638999999997,783.9950400000001 3911.8466399999998,727.47276 3859.7999999999997,743.4 C 3894.6471599999995,680.9212800000001 3780.88872,739.5395999999998 3831.225,798.15 C 3720.97734,818.3743199999999 3627.42204,987.8588999999998 3630.6,984.0 C 3594.9344399999995,1008.7493999999999 3525.15864,1115.8638 3539.4,1090.8 C 3498.11238,1132.3978200000001 3393.4881,1317.7777199999998 3429.6,1270.8 C 3350.4737999999998,1339.9082999999998 3353.7218399999997,1244.62716 3306.6,1295.3999999999999 C 3310.84068,1232.9005199999997 3274.9135199999996,988.3041599999999 3280.7999999999997,1060.8 C 3266.4331799999995,977.33772 3147.1303199999998,720.2396999999996 3192.0,818.4 C 3156.6651599999996,657.3338400000002 3068.85984,478.5282599999999 3102.075,507.15 C 3082.83786,454.4655 3147.18702,439.7497199999998 3127.7999999999997,402.075 C 3265.00656,403.5401399999999 3286.3043999999995,418.06589999999994 3418.7999999999997,420.0 C 3508.4453399999998,449.51081999999985 3673.84836,482.3491200000002 3602.5499999999997,437.4 C 3675.0186,445.0801199999998 3761.2493399999994,498.43956000000014 3714.6,478.79999999999995 C 3820.4172,512.8136400000001 3742.82628,429.72228000000007 3714.0,410.4 C 3794.7426,401.6852999999997 2713.3889400000003,178.92438 3479.25,354.825 C 3414.1018200000003,347.34576 3225.38148,285.4403400000001 3253.2,304.8 C 3197.18106,293.9930400000001 3114.5381399999997,275.3881800000001 3150.0,283.8 C 3121.32276,302.7014999999998 3058.56096,284.8634399999999 3087.0,278.4 C 3035.94066,225.07865999999973 2964.3465,72.51797999999997 2978.4,93.6 C 2926.3749599999996,-10.378680000000173 2846.3215800000003,-384.59916 2903.4,-282.0 C 2876.2760399999997,-347.0065799999999 2937.9060000000004,-579.4420799999998 2930.4,-492.0 C 2962.3446,-613.5942600000002 3065.44578,-665.78094 3060.0,-651.0 C 3105.13056,-697.0244400000001 3246.5793599999997,-779.0261400000002 3205.2,-788.4 C 3330.29142,-830.2835400000001 3213.5047799999998,-750.1156799999999 3222.825,-776.6999999999999 C 3309.6276,-774.9301199999998 3348.62292,-869.4654000000002 3442.7999999999997,-870.6 C 3509.92458,-903.1058400000002 3597.2346599999996,-896.7203999999998 3651.0,-915.6 C 3763.9341,-948.7438800000002 3924.4713,-1021.5463199999998 3896.3999999999996,-1011.0 C 4095.4669799999997,-1111.7536800000003 3680.2925999999998,-1204.04136 3795.6749999999997,-1203.075 C 3725.1341999999995,-1219.0668000000003 3554.1721199999997,-1188.5399400000003 3621.0,-1201.8 C 3495.32736,-1227.8246399999998 3196.67214,-1120.0277400000002 3304.7999999999997,-1148.3999999999999 C 3237.14544,-1111.2749999999999 3070.88658,-1131.9910799999996 3125.4,-1088.3999999999999 C 3062.71128,-1093.3178399999997 3239.15718,-1266.2096999999999 3220.7999999999997,-1220.3999999999999 C 3378.28746,-1353.98052 3394.13376,-1597.0565399999994 3303.6749999999997,-1771.425 C 3296.70324,-1838.9533800000002 3021.8872799999995,-1968.90834 3105.0,-1932.0 C 2993.36172,-1977.6387599999998 2697.09126,-2122.0850999999993 2810.4,-2084.4 C 2756.7429,-2128.7164199999997 2677.2592200000004,-2147.5663200000004 2683.7999999999997,-2139.0 C 2652.35112,-2170.97994 2579.5583399999996,-2162.3806199999995 2528.3999999999996,-2180.4 M 5100.0,-489.0 C 5078.16516,-464.43851999999987 4995.20328,-432.5372999999998 5058.45,-428.325 C 5088.00156,-360.95400000000006 5075.1846,-165.5008200000002 5062.2,-227.4 C 5018.952839999999,-196.94166000000007 4922.6451,-237.8849400000001 4954.8,-220.2 C 4999.869540000001,-269.32169999999985 4861.60326,-327.82368 4873.2,-237.0 C 4791.125099999999,-294.3856200000002 4929.081539999999,-367.21583999999984 4956.0,-397.2 C 5070.71436,-464.8652999999998 4912.96962,-315.57839999999993 4972.8,-374.4 C 4946.5046999999995,-233.01564000000016 4874.4132,-297.20873999999986 4913.849999999999,-373.05 C 4871.683319999999,-300.52325999999977 4895.83332,-404.0317800000001 4924.8,-360.0 C 4962.02136,-95.11332000000021 5036.43408,-937.7946 4914.224999999999,-261.675 C 4976.62602,-318.4034400000002 4991.63358,-256.0182600000002 4933.8,-235.79999999999998 C 4977.39174,-341.8533000000001 4916.84556,-120.97944000000025 4972.2,-275.4 C 4939.66032,-260.67744000000016 4926.56556,-277.0426799999999 4974.9,-244.2 C 4996.835099999999,-294.6622799999999 4992.97572,-407.36573999999996 5033.925,-357.525 C 4977.2349,-381.19979999999975 5023.75926,-481.92762 5038.8,-420.59999999999997 C 4997.42082,-379.08678000000015 5075.37012,-338.7104999999999 5053.8,-438.59999999999997 C 5098.836660000001,-457.3604399999998 5075.6639399999995,-488.37180000000023 5056.875,-484.5 C 5055.19968,-512.3482200000001 5091.353279999999,-508.2166799999999 5100.0,-489.0 M 4845.0,-240.0 C 4853.13462,-189.25956000000005 4774.10808,-138.02177999999986 4837.95,-174.45 C 4762.724099999999,-86.5533000000001 4760.424959999999,-189.98154000000008 4797.599999999999,-171.0 C 4837.929659999999,-182.09520000000012 4767.702539999999,-246.30054 4810.875,-220.725 C 4710.568560000001,-191.21507999999977 4838.06568,-186.75911999999988 4762.8,-203.4 C 4845.91854,-228.79428000000007 4818.96168,-216.5186999999998 4845.0,-240.0 M 4938.0,-183.6 C 4940.60592,-199.40009999999984 4935.35736,-242.6790000000001 4970.925,-174.75 C 4992.73014,-202.12584000000007 4940.997300000001,-33.62339999999986 4986.599999999999,-99.6 C 4934.46972,-130.58351999999977 4808.981819999999,-21.435659999999913 4867.05,-29.025 C 4895.3838000000005,-17.773680000000056 4853.83998,75.6235200000001 4861.2,29.4 C 4815.28056,95.54159999999993 4730.623259999999,8.50236000000022 4759.125,67.2 C 4750.11618,29.527019999999908 4832.32902,-38.379240000000024 4811.625,-15.075 C 4764.64734,-47.09328000000005 4865.5995,124.07106000000003 4828.2,-42.0 C 4834.445159999999,-116.40702 4891.25286,-124.00379999999986 4902.0,-72.6 C 4876.68996,-57.17058000000015 4888.80102,-144.40055999999987 4919.099999999999,-144.75 C 4907.8767,-92.23433999999997 4968.461339999999,-184.00049999999973 4929.0,-133.79999999999998 C 4956.1839,-155.0095799999999 4883.2524,-187.37687999999977 4938.0,-183.59999999999997 M 2173.7999999999997,318.0 C 2166.9412799999996,358.37592000000006 2246.2108799999996,363.7760999999999 2226.6,331.05 C 2238.7214999999997,359.43989999999997 2159.7373199999997,392.9002800000002 2161.7999999999997,362.4 C 2216.3158799999997,359.01203999999996 2062.7489399999995,349.96974000000006 2119.2,372.0 C 2178.98814,371.9879999999997 2102.25384,381.81497999999993 2116.7999999999997,348.0 C 2113.6324799999998,393.9777600000001 2056.3711799999996,317.3896799999999 2156.4,325.8 C 2179.75158,343.2389400000002 2155.0105200000003,292.48524000000015 2173.8,318.0 M 4215.0,332.4 C 4238.59086,406.4555400000001 4231.24254,485.01558 4235.7,471.59999999999997 C 4202.36502,470.87808 4219.26132,437.5304999999998 4204.2,419.4 C 4123.43202,403.7165399999998 4223.7085799999995,433.7797199999999 4211.4,438.0 C 4170.67008,457.3756800000001 4092.3347999999996,461.19660000000005 4131.599999999999,412.2 C 4177.78176,418.9108199999999 4101.39264,478.96404 4108.8,418.2 C 4103.597040000001,433.7357399999999 4142.79648,362.9499000000002 4081.2,357.59999999999997 C 4077.2963999999997,350.53980000000007 4205.245379999999,317.0688000000002 4215.0,332.4 M 1509.0,1736.3999999999999 C 1474.95408,1778.11188 1555.3944000000001,1771.8867599999999 1554.3,1772.55 C 1565.13642,1843.71672 1565.2845,1851.78996 1528.575,1834.2 C 1534.56108,1899.79734 1450.69176,1787.3061 1482.975,1813.2 C 1522.9687199999998,1851.24522 1443.80304,1719.97092 1509.0,1736.4 M 1647.0,1814.3999999999999 C 1707.23388,1824.1341599999998 1650.5727,1850.1851999999997 1643.3999999999999,1874.3999999999999 C 1597.7141399999998,1886.3366999999998 1603.1797199999999,1899.76848 1585.8,1947.0 C 1557.00744,1932.8074199999999 1589.84442,1866.07302 1536.0,1882.1999999999998 C 1562.81394,1933.7533199999998 1555.10562,1832.2467599999998 1554.0,1856.3249999999998 C 1592.09394,1868.3911199999998 1658.8041600000001,1867.6817999999998 1617.6,1830.6 C 1646.1817199999998,1857.48588 1639.8151799999998,1786.91664 1647.0,1814.3999999999999 M 3469.7999999999997,1985.3999999999999 C 3516.0943199999997,2065.1043 3407.9664,2006.91852 3441.9,2114.25 C 3514.6248,2098.30266 3477.10374,2182.1706 3476.7,2172.0 C 3419.52282,2170.53132 3492.15834,2123.96862 3415.7999999999997,2115.6 C 3364.5674999999997,2117.86878 3383.9173199999996,2081.8583399999998 3422.9249999999997,2089.95 C 3390.99576,2038.5087599999997 3446.5039199999997,1970.3954399999998 3406.2,2008.8 C 3495.03924,2012.06838 3417.39714,1963.78422 3469.7999999999997,1985.3999999999999 M 3357.6,2074.7999999999997 C 3429.52644,2116.46748 3281.95956,2118.8169 3394.2,2129.4 C 3388.4368799999997,2098.6924200000003 3327.1129199999996,2012.47188 3412.875,2077.2 C 3389.4098400000003,2071.5216 3358.3792200000003,2202.35172 3388.125,2158.0499999999997 C 3397.82184,2182.8246599999998 3355.4029800000003,2250.5352 3400.2,2218.7999999999997 C 3422.4564,2185.65438 3332.5609799999997,2270.49882 3344.9062799999997,2211.9187199999997 C 3354.6062999999995,2152.4227799999994 3366.05304,2190.54972 3326.4,2173.2 C 3302.31306,2182.4993999999997 3216.21072,2235.1870799999997 3294.6,2152.7999999999997 C 3286.2508799999996,2168.0466599999995 3343.41684,1988.6468999999997 3357.6,2074.7999999999997 M 4902.0,2108.4 C 4896.2439,2158.35132 4859.93142,2205.4278600000002 4884.599999999999,2175.0 C 4920.12666,2183.90718 4822.909259999999,2152.63926 4830.0,2189.4 C 4842.97212,2293.9694400000003 4938.08562,2244.65214 4896.0,2211.0 C 4886.91246,2234.09826 4895.3595,2329.5552000000002 4873.2,2282.4 C 4827.95868,2228.62416 4784.44038,2267.4163200000003 4810.5,2255.4 C 4876.7751,2292.57798 4739.85444,2300.70282 4797.0,2294.4 C 4752.29796,2238.4051200000004 4764.65316,2321.62902 4726.8,2263.7999999999997 C 4752.6,2186.8932 4763.07912,2361.2904 4701.0,2276.4 C 4613.73582,2272.08204 4734.02652,2050.77804 4735.2,2216.4 C 4750.5587399999995,2251.25106 4865.14098,2187.59556 4818.0,2235.6 C 4837.19754,2161.33896 4834.60134,2077.6236599999997 4842.599999999999,2133.0 C 4891.690799999999,2202.1029 4830.999779999999,2110.2702 4901.999999999999,2108.4 M 3321.0,2192.4 C 3209.56188,2295.3295200000002 3344.9283600000003,2210.8612200000002 3311.4,2298.0 C 3322.90092,2328.0255 3264.25716,2323.65702 3268.2,2310.6 C 3225.0655199999997,2262.1041 3273.3727199999994,2263.74792 3286.65,2277.525 C 3324.71274,2228.8140000000003 3311.4300000000003,2179.45968 3261.0,2222.4 C 3235.95084,2203.2659400000002 3320.78424,2205.4578 3321.0,2192.4" id="path4"/>
	<path d="M 4624.2,2607.0 C 4626.53502,2673.03036 4709.4186,2765.2948800000004 4685.025,2692.79064 C 4660.3805999999995,2747.49174 4726.29966,2719.71312 4731.0,2664.0 C 4748.03106,2679.05118 4689.66918,2666.89116 4704.599999999999,2705.4 C 4697.951999999999,2688.9532799999997 4626.580319999999,2755.2891600000003 4659.599999999999,2751.6 C 4648.664999999999,2803.8265799999995 4644.21594,2850.1636799999997 4682.099999999999,2778.6 C 4648.0296,2817.22212 4567.9589399999995,2793.7234799999997 4610.4,2763.0 C 4618.53708,2731.1299200000003 4491.66468,2834.0996999999998 4522.00314,2788.02186 C 4499.39076,2859.47004 4605.4569599999995,2800.04508 4612.2,2791.35 C 4635.008339999999,2789.68548 4721.4892199999995,2815.77822 4687.125,2804.1 C 4737.4875600000005,2777.70168 4734.4848600000005,2562.79794 4752.0,2651.4 C 4698.16698,2659.38702 4647.0876,2623.75734 4624.2,2607.0" id="path6"/>
</svg>
