<?xml version="1.0" encoding="UTF-8" standalone="no"?>
<svg
   version="1.0"
   width="1024.000000pt"
   height="1024.000000pt"
   viewBox="0 0 1024.000000 1024.000000"
   preserveAspectRatio="xMidYMid meet"
   id="svg10"
   sodipodi:docname="ã‚.svg"
   xmlns:inkscape="http://www.inkscape.org/namespaces/inkscape"
   xmlns:sodipodi="http://sodipodi.sourceforge.net/DTD/sodipodi-0.dtd"
   xmlns="http://www.w3.org/2000/svg"
   xmlns:svg="http://www.w3.org/2000/svg">
  <defs
     id="defs14" />
  <sodipodi:namedview
     id="namedview12"
     pagecolor="#ffffff"
     bordercolor="#666666"
     borderopacity="1.0"
     inkscape:pageshadow="2"
     inkscape:pageopacity="0.0"
     inkscape:pagecheckerboard="0"
     inkscape:document-units="pt" />
  <metadata
     id="metadata2">
Created by potrace 1.16, written by Peter Selinger 2001-2019
</metadata>
  <g
     transform="translate(0.000000,1024.000000) scale(0.100000,-0.100000)"
     fill="#000000"
     stroke="none"
     id="g8">
    <path
       d="m 4214,9658 c -46.1011,-174.7785 135.8717,-615.1228 81,-458 50.2812,-110.2466 230.944,-28.7394 160,-89 39.2234,-43.2979 96.8248,-219.192 84,-147 15.2975,-28.737 0.8478,-10.4242 82,-7 -45.3996,16.2014 -110.1289,120.8003 -20.75,58.25 159.7,-23.9699 224.8523,-41.3257 171.625,-37.125 86.7061,-14.9226 281.5084,-147.5854 189.125,-146.125 -40.013,28.0684 -31.4058,-182.2757 -28,-142 44.6215,-95.8773 70.7303,-231.6113 120.5625,-115.8281 -2.0642,-53.5338 -45.1502,-123.28 -37.0625,-146.1719 -59.9458,68.9249 -120.5603,-67.4756 -99.5,-48 22.2047,-104.6634 -176.6003,-224.2879 -158,-167 9.1644,-51.3237 -161.3635,-167.6253 -99,-120 -132.3043,-92.7886 -445.9955,-145.5175 -326,-114 -172.3408,-1.6965 -2.5687,-58.1108 -120,-55 -80.7823,-31.4867 -120.7471,85.6879 -130.25,91.125 -158.1636,52.5113 103.2814,-85.1233 -58.75,-35.125 -65.1031,58.9101 -189.6566,81.4036 -99,85 -135.0508,-14.8121 -191.9798,185.0793 -163,-55 78.68,-48.9498 268.7687,-134.7635 238,-131 29.246,46.7904 -114.2288,135.3336 -95,89 9.1476,66.1547 -39.1472,131.7484 -85,71 141.8992,-34.2207 237.8737,-199.027 223,-161 41.0298,26.6524 -124.084,-33.5322 -110,-53 -69.3436,-22.0228 -572.8954,-94.5316 -425,-38 -156.9187,-49.2363 -143.0356,-33.4774 -317.375,-72.5 -228.3883,10.8246 -647.3939,18.3515 -631.125,15.25 -123.9297,-75.0057 -352.32,-24.2439 -214.5,-20.75 -56.4111,-80.7971 -315.2795,-199.438 -308,-81 -25.21,21.0625 -166.8206,-44.093 -104.25,33.125 -37.7012,76.0865 -244.5717,-7.8766 -246.125,31.25 -40.8089,99.3582 -187.7525,162.9971 -204.625,125.625 -42.6007,10.8387 -245.9558,123.6248 -174,90 -172.5148,137.1238 -256.2368,-61.7933 -59,-113 106.0526,-72.5241 131.0714,-155.0128 49,-158 85.5695,-29.1931 -45.2414,181.1901 48,106 -89.5159,-92.4355 57.7582,-23.1088 17,19 42.6112,-32.2284 193.6014,3.6202 102.375,-17.875 23.5325,-102.2563 -92.7998,-146.5942 -81.375,-124.125 -97.7906,-29.7483 -269.2434,-41.565 -176.75,-50.125 -118.135,-97.9716 134.514,-60.8038 122.75,-86.875 109.0554,-45.665 621.2657,-103.8381 494,-82 278.9418,-80.7197 1261.748,-114.0883 954,-100 218.5537,-45.3843 430.8458,-142.3236 301.5,-54.625 80.587,-39.7668 229.1635,25.1771 192.5,27.625 62.0807,-43.8603 413.7596,-15.4776 331,19 146.5556,-37.6031 603.1059,86.6933 445,48 110.6045,25.0135 356.5096,114.2534 260,64 127.2865,75.7857 288.0924,96.3835 247,93 -119.7323,-121.6296 -240.0914,-259.7841 -322,-428 -54.0914,-88.242 -134.4012,-385.8822 -99,-260 -31.3422,-97.9679 -22.5022,-341.5673 -21,-260 -4.7608,-241.7624 1.9284,-272.1995 16,-188 -34.2992,-98.5082 44.3179,-422.2573 32,-323 -17.4637,-57.7526 49.0855,-350.1841 45.75,-259.125 63.0174,-34.1045 173.8108,-243.5099 53.5,-172.375 -7.2308,-35.364 -114.2914,25.3173 -72.25,7.5 -41.2199,135.9256 -259.1409,124.7019 -159,128 -60.9477,49.0001 -120.3577,90.1122 -161,7 55.3947,4.7831 -81.7241,46.7014 -69.625,20 -73.9647,-95.0507 -207.0817,-58.376 -125.125,-16.5 -52.2794,29.4492 -491.3817,28.5314 -346.5,50.875 -148.4493,-9.4639 -377.5806,0.7379 -281.75,-10.375 -53.9681,-27.3779 -483.9414,-30.8525 -399,-11 -118.1192,-55.8069 -350.6692,-63.1963 -263.25,-60.25 C 2057.1914,5575.6797 2011.34,5425.5836 1917,5386 c -40.9081,-38.8469 -142.935,-160.4231 -115,-128 60.8428,-104.5933 -28.7979,-57.9918 -17,-88 -1.7391,-20.7492 -67.2698,-226.0713 -52.5,-221.375 15.287,-65.9429 249.9266,-365.5178 77.5,-320.625 -124.3587,83.6438 -66.8417,-30.7611 -56,-93 76.1721,-11.3399 -58.4601,-94.6766 86,-244.125 129.6595,64.8891 -19.2352,27.6102 10,-33.875 50.1028,-91.5662 102.5517,-283.7623 120.75,-291.625 26.125,2.6284 -43.6445,-67.8011 28.25,-66.375 56.0837,-76.8994 162.0783,-205.4483 108.7841,-67.5927 C 1963.1695,3669.8505 1996.7794,3740.025 2100,3782 c 35.0263,-19.0923 336.7064,-397.6661 10,-117 -65.3365,411.8438 207.1746,-1283.4674 -18,-55 135.3297,-19.737 43.6897,-179.1503 65,-80 -15.845,-12.6491 -0.9949,7.1312 91,28 19.8179,-28.4289 132.1208,-198.9332 15,-85 228.6345,53.6775 -40.6878,71.7053 -16,-51 -69.3613,-3.6538 -0.8744,-170.7208 6.25,-129 49.4108,14.4983 296.2382,-91.116 196,-94.25 16.6531,107.1213 110.496,102.334 43.75,-17.75 33.6925,140.6961 61.8387,229.3988 58,235 -17.9551,42.0514 -6.1829,88.6066 -28,133 51.3003,113.1283 15.5591,215.8537 0.375,309 28.3362,5.9359 -110.6089,220.5878 -80.375,158 18.3092,91.8266 -56.0424,185.7125 -62,124 -112.8538,146.7562 -224.4538,226.7179 -144,178 -62.4743,32.6965 -191.2264,205.5871 -122,112 -53.1551,84.5392 36.1771,222.6096 15,210 41.1091,67.8975 67.8079,156.5662 64,116.75 54.8587,16.9471 111.2267,246.3973 59,183.25 28.4445,81.7879 103.4462,207.3568 75,174 16.4679,73.743 146.0961,139.9693 107.75,116.75 60.6892,63.9738 268.0904,138.1899 204.25,101.25 53.6154,-27.7912 194.4,-55.7868 172,8.875 117.6174,4.3191 363.5714,-84.4043 282.75,-4.625 89.9775,83.3979 170.2522,-32.8214 140.25,67.75 125.2219,103.8554 226.1363,114.6498 200,33 95.4965,16.4284 -143.0571,93.145 -81,-14 -143.7508,-79.0444 131.1887,-83.5796 81,-70 44.9785,30.0036 196.5963,24.4234 279,67 -85.2633,-0.3634 -66.4163,166.0448 20.5,82.875 77.9959,-39.6912 121.4209,-18.0433 140.5,-18.875 176.099,10.4934 41.5455,-203.6184 46,-74 -108.0476,77.9841 162.0067,7.8839 1,-9 181.0761,-13.5481 -10.4901,36.3068 151,-7 45.179,31.7363 104.825,15.6829 30.125,62.875 8.3439,-140.6945 226.2707,-6.5695 189.875,-33.875 16.0904,-40.8651 67.8949,-490.6867 67,-348 28.3937,-153.5731 14.0851,-318.8721 40,-184 88.0262,-61.4317 138.6046,-247.9046 93,-197 93.8567,-41.834 209.0258,-428.7084 161,-320 41.0817,-181.6319 31.9452,-143.9725 91,-277 29.2488,-94.2768 184.158,-398.8513 124,-299 6.3368,-42.8189 118.6391,-323.0617 78,-208 122.2525,-144.9557 105.1094,-370.4601 -139.1719,-405.5312 C 4636.6899,3139.7513 3474.6356,3022.3671 4060,3115 c 43.5711,-50.2406 -51.6777,54.6173 -38,59 -14.9155,-11.8718 -90.0233,108.4302 -118.375,65.25 -57.9362,-163.631 87.7179,-108.2043 50.375,-47.25 -183.02,-161.4747 -218.9509,24.0218 -163.875,48.625 -5.1792,-64.2219 -43.0623,-181.3993 -25.125,-137.625 -57.2491,-6.5824 0.8722,132.9803 -13,90 -59.1424,22.285 182.5129,156.9342 -1.125,83.875 81.0355,63.2488 -276.9928,176.6842 -247.875,93.125 -135.4268,-27.3907 -192.0125,-64.0908 -189.125,-54.125 -138.0916,-5.5243 -163.9105,-28.7851 -168.875,-32.875 -130.6298,3.0045 -260.1309,-14.6815 -193.0469,-12.6719 -69.0737,-48.8742 -270.146,-88.8858 -203.9531,-61.0781 -69.5669,-33.6008 -86.5727,-171.3024 -148,-106.25 -9.1944,64.472 -214.756,12.2727 -167,-42 -51.7776,-71.0317 24.2265,-219.3912 52,-125 -70.0856,57.4046 111.3389,-192.0915 90,-160 120.3009,-44.7868 256.8285,-33.4219 151.625,38.375 75.2304,-83.7779 238.3273,-83.9846 173.375,-73.375 69.9075,40.6522 -17.217,-31.1476 84.125,-47.5 -22.0452,43.7691 76.5086,-62.0164 -48.125,-12.5 99.2296,-0.7223 158.0667,144.3592 175,32 63.7117,-193.865 -5.4986,165.2603 55,-95 70.1327,128.0878 304.0341,-5.457 192,52 50.3008,-54.1321 64.2852,-138.4429 -24,-82 11.9728,111.5794 -387.4055,37.4049 -100,38 -96.7812,-1.5757 71.2181,-43.2957 76,-58 63.432,-2.0338 253.2269,-106.5655 171,-71 147.7728,-29.3044 -63.7812,107.7142 100,24 -7.1548,-101.9453 205.5729,-191.5612 128.625,-91.125 2.4167,47.4328 184.8103,165.8933 173.375,30.125 9.6435,-7.9744 69.3404,-66.3031 88.25,-100.125 128.7048,7.8449 250.4544,33.2269 188.75,10 -41.9128,-56.0563 37.5578,-53.5468 62.25,-39 65.9043,-17.1981 283.5354,-50.6183 198.875,-20.375 114.207,26.9712 225.9433,24.8074 201.875,18.5 -44.0625,118.9814 264.9924,-35.9954 202,45 115.7539,33.3497 319.323,80.4958 195,66 75.3463,22.1672 260.6026,50.3323 130,47 89.935,64.0431 164.8245,-67.1048 219,27 13.7148,-85.6629 93.453,82.1642 46,-30 62.4382,60.9799 9.4805,-109.0697 -29.375,-137.375 0.476,-77.3308 -14.4418,-327.6793 7.375,-236.625 -25.4874,-186.3558 167.771,-234.7629 127,-201 -57.404,-140.4654 168.8828,246.3452 182.75,90.25 125.2817,-71.9132 50.8684,180.093 87.875,183 90.2826,125.5824 143.3649,122.7862 107.625,305.625 -42.7832,45.219 -96.8434,163.1458 -80,98.875 -35.0814,-139.6033 -86.9032,43.9867 -63.75,40 185.1479,-100.28 39.2797,152.6551 20.5,143.25 -79.7915,81.0708 17.9577,221.9866 92,177 -8.6685,1.1396 152.8864,186.7441 137,113 60.9029,46.0553 203.2315,189.7204 146,145 84.8717,9.2304 189.9713,-16.9578 95,101 52.2266,44.3664 157.4493,186.089 144,150 42.1433,56.7423 145.3506,153.0919 107,106 50.623,44.6288 62.9668,207.4039 96,170.125 36.823,88.7278 26.2968,-80.6028 120.625,146.125 78.3032,70.1681 124.6408,388.1488 180.625,303.625 17.0285,43.5514 72.7657,282.6839 83.5,142.375 16.2749,8.6416 166.8308,263.0643 126.125,201.875 105.7106,173.2787 230.0535,116.3955 193,315.375 80.3362,-5.9496 294.4911,291.4245 200.125,195.5 91.788,22.3585 247.0101,-9.6655 165,26 -130.0755,-25.4978 91.5641,-32.2684 36.625,-32.75 74.7351,-26.9572 274.5231,-48.4277 201.375,-37.25 94.4691,-16.1364 287.2299,-255.9102 245,-208.25 75.0138,-100.6892 274.8136,-438.3643 219,-324.75 -13.0675,-74.2901 110.54,-560.1595 12,-212 -34.9947,68.1133 -42.1589,-197.3387 -42,-88 -41.2219,-105.1736 -143.8241,-252.9153 -57,-192 -27.5995,-129.0926 -3.1266,-290.9999 -48,-199 127.8965,4.5554 -136.161,-226.6376 -7.625,-150.75 29.8375,-33.6674 101.9421,182.244 -26.75,62 -54.2401,2.5055 16.4629,-210.2663 -46.125,-127.375 -90.3489,-7.5417 -131.1275,-176.7669 -90.5,-128.875 -25.038,-74.9928 -180.6702,-393.2156 -121,-297 -63.7996,-155.2707 -176.3201,-580.6012 -121,-449 -12.0824,-98.8751 -27.3629,-263.1319 -7,-228 60.8495,104.0466 172.9878,193.4267 120,174 42.1806,90.6454 78.7087,-168.7773 14.625,-83 -26.1716,16.9803 96.1266,-75.4059 -64.625,-21 -30.16,-106.722 265.8293,49.2253 66.875,-91.625 -8.6367,-83.873 -149.3264,-64.2237 -19.875,-58.375 22.8811,-148.285 -40.3705,93.8169 -25,72 -66.3778,118.3515 -79.6035,7.5195 -22,-28 -26.0321,89.6162 -69.0041,-193.3609 -102.25,-127.25 59.6573,-76.8369 64.2568,-258.9099 13.25,-191.75 64.0018,-45.0801 101.6962,-255.5806 20.625,-135.875 -39.3132,-16.968 51.4294,34.3498 5.375,-59.125 6.7785,21.9249 84.3278,57.4009 53,42 -1.7579,103.9225 116.6951,-150.5434 48.375,-90 -4.1929,-19.7579 -19.4055,-138.0054 41.625,-24 -67.9167,-48.6475 -188.2622,114.6727 -158,-7 50.6612,57.0338 -191.6772,42.6596 16,-44 -66.2893,-167.2026 -142.3987,-153.0238 -69,-52 -79.1752,213.2563 17.4398,-99.9421 75,-96.875 155.3911,82.0384 32.3618,-43.5281 118,32.875 6.0285,58.8416 -123.4931,274.1656 4,261 -5.6183,6.9326 100.4398,270.3611 120,120 43.9381,105.2404 -14.3696,208.7581 -27,113 -85.3846,-136.0799 -33.9596,-278.629 -11,-190 -38.073,-2.6311 -99.2323,210.6842 -75.25,142.125 28.2295,161.9224 -18.7818,-149.2935 -8.75,-105.125 -76.2474,-53.3094 -153.5295,91.1284 -71,84 -105.8357,112.5468 8.2541,202.137 65.5,116.875 54.2295,-69.2564 42.8897,-109.4358 116.5,-39.875 54.7589,-130.7774 147.3918,146.3789 117,122 28.3396,67.3389 97.3854,209.5983 66,160 42.9951,97.2623 179.6963,337.9466 129,265 35.2705,115.9673 205.609,381.2827 159.625,295.25 93.8164,116.0675 253.9662,482.6161 208.375,331.75 37.049,258.4559 281.4336,175.4896 118,381 42.7169,55.1643 84.4112,280.9922 45.5,228.25 -2.4248,116.7594 39.061,363.0904 50.5,259.75 91.9849,25.4371 -348.3056,798.7003 -72,304 -91.5356,148.5946 -385.8912,529.1928 -252,386 -92.1204,150.401 -211.8017,322.6998 -330,429 -45.6039,52.5195 -389.4955,207.3721 -237,146 -97.854,69.6931 -191.7254,317.8263 -225,186 -91.0164,-94.2073 -259.1457,-76.2932 -146,-113 130.2781,59.3012 112.5157,177.6416 26.375,125.5 45.4744,-147.3582 58.9801,-33.2993 76.625,-6.5 22.3945,68.332 35.1132,-194.8357 65,-83 119.4722,165.0111 239.0437,353.4148 371,504 56.0202,90.0693 352.9297,342.8689 278,252 92.6183,20.5104 350.605,298.5321 213,174 73.8873,89.716 -66.6997,0.9475 -6.25,67.625 -95.7241,-71.4615 -82.9576,-248.3064 -98.75,-116.625 -58.2561,110.6793 -26.0407,31.9379 -109,7 173.1029,31.2469 17.2613,41.5537 -35,-20 -37.6747,81.0095 24.8625,132.8027 57,78 92.6353,21.3374 63.371,89.8199 8,76 9.2364,56.0099 -128.481,-107.061 -81,-40 64.4974,119.7734 -27.4955,73.1547 55.375,126.25 -63.1112,50.1833 86.9533,345.1882 150.625,265.75 93.105,161.5784 -84.4858,-20.3124 -111,-34 -46.899,31.1968 -235.2737,-135.1871 -158,-60 -68.0517,-75.5955 -225.3863,-352.1633 -258,-281.25 -115.9333,-154.9085 -63.791,-125.2623 -207.25,-208.375 C 7858.3786,6301.5754 7674.9045,6264.82 7734,6332 c -19.9444,-91.3507 123.9487,-15.7388 50.875,-189.375 -61.3172,6.2831 -136.5423,109.2047 -45.875,96.375 -5.7896,39.6681 -182.3485,-281.5136 -175,-216 -129.3309,-185.1905 432.9108,40.4559 -108,-106 28.1212,-51.0594 -160.1894,-201.5337 -141,-137 -12.3346,-44.5832 -159.6032,-132.3328 -147.125,-141.25 C 6993.3535,5490.7212 6829.4299,5568.6674 6787,5573 c -214.6273,36.6385 -302.7756,-160.4797 -140,-240 95.457,10.9812 181.3093,33.0451 112,-83.75 32.2749,-180.4347 -83.8115,-179.2143 -63,-122.25 -83.593,-2.1069 -250.6866,-230.8619 -181,-127 -18.0437,-75.6377 21.8521,-159.712 -15.625,-152.625 -30.2685,-130.0334 20.3694,-35.8296 -66.375,-62.375 58.0786,104.1312 -131.5188,6.434 -47.625,-91.25 C 6201.6289,4660.0428 6045.7034,4377.5685 6051,4384 c -59.4426,-41.249 -175.7356,-219.773 -152,-178 -68.8127,-69.3297 -243.1865,-378.2962 -183,-300 -131.877,-115.1805 -126.4636,43.6214 -205,-41 7.0678,104.1658 -52.8108,511.8264 -43,391 -23.9447,139.1038 -222.7828,567.6005 -148,404 -58.8914,268.4436 -205.2336,566.4529 -149.875,518.75 -32.0619,87.8075 75.1867,112.3338 42.875,175.125 228.6776,-2.4419 264.174,-26.6515 485,-29.875 149.4089,-49.1847 425.0806,-103.9152 306.25,-29 120.781,-12.8002 264.4989,-101.7326 186.75,-69 176.362,-56.6894 47.0438,81.7962 -1,114 134.571,14.5245 -1667.6851,385.7927 -391.25,92.625 -108.5803,12.4654 -423.1142,115.6411 -376.75,83.375 -93.3649,18.0116 -231.1031,49.0197 -172,35 -47.7954,-31.5025 -152.3984,-1.7724 -105,9 -85.0989,88.8689 -204.4225,343.1367 -181,308 -86.7084,173.2978 -220.1307,796.9986 -125,626 -45.2066,108.3443 57.51,495.7368 45,350 53.241,202.6571 225.0763,289.6349 216,265 75.2176,76.7074 310.9656,213.3769 242,229 208.4857,69.8059 13.8413,-63.8072 29.375,-19.5 144.671,-2.9498 209.6632,154.609 366.625,156.5 111.8743,54.1764 257.3911,43.534 347,75 188.2235,55.2398 455.7855,176.5772 409,159 331.7783,167.9228 -360.179,321.7356 -167.875,320.125 -117.568,26.653 -402.5048,-24.2251 -291.125,-2.125 -209.4544,43.3744 -707.2131,-136.2871 -527,-89 -112.7576,-61.875 -389.8557,-27.3482 -299,-100 -104.4812,8.1964 189.5953,296.3495 159,220 262.4791,222.6342 288.8896,627.7609 138.125,918.375 -11.6196,112.5473 -469.6462,329.1389 -331.125,267.625 -186.0638,76.0646 -679.8479,316.8085 -491,254 -89.4285,73.8607 -221.9013,105.2772 -211,91 -52.4148,53.2999 -173.7361,38.9677 -259,69 z M 8500,6839 c -36.3914,-40.9358 -174.6612,-94.1045 -69.25,-101.125 49.2526,-112.285 27.891,-438.0403 6.25,-334.875 -72.0786,-50.7639 -232.5915,17.4749 -179,-12 75.1159,81.8695 -155.3279,179.3728 -136,28 -136.7915,95.6427 93.1359,217.0264 138,267 191.1906,112.7755 -71.7173,-136.036 28,-38 -43.8255,-235.6406 -163.978,-128.6521 -98.25,-2.25 -70.2778,-120.8779 -30.0278,51.6363 18.25,-21.75 62.0356,-441.4778 186.0568,962.991 -17.625,-163.875 104.0017,94.5474 129.0143,-9.4279 32.625,-43.125 72.6529,176.7555 -28.2574,-191.3676 64,66 -54.2328,-24.5376 -76.0574,2.7378 4.5,-52 36.5585,84.1038 30.1262,271.9429 98.375,188.875 -94.4835,39.458 -16.9429,207.3377 8.125,105.125 -68.9653,-69.1887 60.9502,-136.4825 25,30 75.0611,31.2674 36.4399,82.953 5.125,76.5 -2.7922,46.4137 57.4638,39.5278 71.875,7.5 z m -425,-415 c 13.5577,-84.5674 -118.1532,-169.9637 -11.75,-109.25 -125.3765,-146.4945 -129.2084,25.8859 -67.25,-5.75 67.2161,18.492 -49.8291,125.5009 22.125,82.875 -167.1774,-49.1832 45.3178,-56.6098 -80.125,-28.875 138.5309,42.3238 93.6028,21.8645 137,61 z m 155,-94 c 4.3432,26.3335 -4.4044,98.465 54.875,-14.75 36.3419,45.6264 -49.8795,-235.211 26.125,-125.25 -86.8838,51.6392 -296.0303,-130.2739 -199.25,-117.625 47.223,-18.7522 -22.0167,-174.4142 -9.75,-97.375 -76.5324,-110.236 -217.6279,34.8294 -170.125,-63 -15.0147,62.7883 122.0067,175.9654 87.5,137.125 -78.2961,53.3638 89.9575,-231.9101 27.625,44.875 10.4086,124.0117 105.0881,136.673 123,51 -42.1834,-25.7157 -21.9983,119.6676 28.5,120.25 -18.7055,-87.5261 82.2689,65.4175 16.5,-18.25 45.3065,35.3493 -76.246,89.2948 15,83 z M 3623,5494 c -11.4312,-67.2932 120.6848,-76.2935 88,-21.75 20.2025,-47.3165 -111.4378,-103.0838 -108,-52.25 90.8598,5.6466 -165.0851,20.7171 -71,-16 99.6469,0.02 -28.2436,-16.3583 -4,40 -5.2792,-76.6296 -100.7147,51.0172 66,37 38.9193,-29.0649 -2.3158,55.5246 29,13 z m 3402,-24 c 39.3181,-123.4259 27.0709,-254.3593 34.5,-232 -55.5583,1.2032 -27.3978,56.7825 -52.5,87 -134.6133,26.1391 32.5143,-23.9662 12,-31 -67.8832,-32.2928 -198.442,-38.661 -133,43 76.9696,-11.1847 -50.3456,-111.2734 -38,-10 -8.6716,-25.8929 56.6608,92.0835 -46,101 -6.506,11.767 206.7423,67.552 223,42 z M 2515,3130 c -56.7432,-69.5198 77.324,-59.1446 75.5,-60.25 18.0607,-118.6112 18.3075,-132.0666 -42.875,-102.75 9.9768,-109.3289 -129.8054,78.1565 -76,35 66.6562,-63.4087 -65.2866,155.3818 43.375,128 z m 230,-130 c 100.3898,-16.2236 5.9545,-59.642 -6,-100 -76.1431,-19.8945 -67.0338,-42.2808 -96,-121 -47.9876,23.6543 6.7407,134.8783 -83,108 44.6899,-85.9222 31.8427,83.2554 30,43.125 63.4899,-20.1102 174.6736,-18.928 106,42.875 47.6362,-44.8098 37.0253,72.8056 49,27 z m 3038,-285 c 77.1572,-132.8405 -103.056,-35.8642 -46.5,-214.75 121.208,26.5789 58.6729,-113.201 58,-96.25 -95.2953,2.4478 25.7639,80.0523 -101.5,94 -85.3875,-3.7813 -53.1378,56.2361 11.875,42.75 -53.2154,85.7354 39.2982,199.2576 -27.875,135.25 148.0654,-5.4473 18.6619,75.0263 106,39 z m -187,-149 c 119.8774,-69.4458 -126.0674,-73.3615 61,-91 -9.6052,51.1793 -111.8118,194.8802 31.125,87 -39.1086,9.464 -90.8263,-208.5862 -41.25,-134.75 16.1614,-41.2911 -54.5367,-154.142 20.125,-101.25 37.094,55.2427 -112.7317,-86.1647 -92.1562,11.4688 16.1667,99.1599 35.2446,35.615 -30.8438,64.5312 -40.1449,-15.499 -183.6488,-103.3118 -53,34 -13.9152,-25.4111 81.3614,273.5885 105,130 z m 2574,-56 c -9.5935,-83.2522 -70.1143,-161.7131 -29,-111 59.2111,-14.8453 -102.8179,37.2679 -91,-24 21.6202,-174.2824 180.1427,-92.0869 110,-36 -15.1459,-38.4971 -1.0675,-197.592 -38,-119 -75.4022,89.6264 -147.9327,24.9728 -104.5,45 110.4585,-61.9633 -117.7426,-75.5047 -22.5,-65 -74.5034,93.3248 -53.9114,-45.3817 -117,51 43,128.178 60.4652,-162.484 -43,-21 -145.4403,7.1966 55.0442,376.0366 57,100 25.5979,-58.0851 216.5683,48.0074 138,-32 31.9959,123.7684 27.6689,263.2939 41,171 81.818,-115.1715 -19.3337,37.883 99,41 z M 5535,2370 c -185.7302,-171.5492 39.8806,-30.7687 -16,-176 19.1682,-50.0425 -78.5714,-42.7617 -72,-21 -71.8908,80.8265 8.6212,78.0868 30.75,55.125 63.4379,81.185 41.3,163.4422 -42.75,91.875 -41.7486,31.8901 99.6404,28.237 100,50 z"
       id="path4" />
    <path
       d="m 7707,1679 c 3.8917,-110.0506 142.031,-263.8248 101.375,-142.9844 -41.074,-91.1685 68.7911,-44.8708 76.625,47.9844 28.3851,-25.0853 -68.8847,-4.8186 -44,-69 -11.08,27.4112 -130.0328,-83.1486 -75,-77 -18.225,-87.0443 -25.6401,-164.2728 37.5,-45 -56.784,-64.3702 -190.2351,-25.2058 -119.5,26 13.5618,53.1168 -197.8922,-118.4995 -147.3281,-41.7031 -37.6873,-119.0803 139.0897,-20.0387 150.3281,-5.5469 38.0139,2.7742 182.1487,-40.7137 124.875,-21.25 83.9376,43.9972 78.9331,402.1701 108.125,254.5 -89.7217,-13.3117 -174.854,46.0711 -213,74 z"
       id="path6" />
  </g>
</svg>
