<?xml version="1.0" standalone="no"?>
<!DOCTYPE svg PUBLIC "-//W3C//DTD SVG 20010904//EN"
 "http://www.w3.org/TR/2001/REC-SVG-20010904/DTD/svg10.dtd">
<svg version="1.0" xmlns="http://www.w3.org/2000/svg"
 width="1024.000000pt" height="1024.000000pt" viewBox="0 0 1024.000000 1024.000000"
 preserveAspectRatio="xMidYMid meet">
<metadata>
Created by potrace 1.16, written by Peter Selinger 2001-2019
</metadata>
<g transform="translate(0.000000,1024.000000) scale(0.100000,-0.100000)"
fill="#000000" stroke="none">
<path d="M2793 9525 c0 -8 4 -12 9 -9 5 3 6 10 3 15 -9 13 -12 11 -12 -6z"/>
<path d="M433 9475 c0 -8 4 -12 9 -9 5 3 6 10 3 15 -9 13 -12 11 -12 -6z"/>
<path d="M6206 9278 c3 -4 9 -8 15 -8 5 0 9 4 9 8 0 5 -7 9 -15 9 -8 0 -12 -4
-9 -9z"/>
<path d="M6148 9260 c-7 -11 -19 -20 -26 -20 -7 0 -10 -6 -7 -12 4 -7 -5 1
-20 17 -18 21 -24 24 -18 10 6 -18 5 -19 -12 -5 -17 14 -17 13 -11 -10 6 -24
6 -24 -9 3 -19 33 -23 34 -20 2 2 -14 -1 -23 -6 -19 -5 3 -7 9 -4 14 3 4 -3
14 -13 21 -15 12 -16 12 -5 -2 20 -25 3 -31 -19 -6 -11 12 -17 17 -15 12 3 -6
-4 -22 -15 -35 -11 -14 -17 -19 -13 -12 3 6 2 12 -2 12 -5 0 -15 -6 -23 -12
-8 -7 -7 -4 3 8 25 30 21 41 -5 13 -13 -14 -27 -27 -33 -29 -5 -3 -9 -9 -7
-13 1 -5 -2 -6 -8 -2 -6 3 -7 12 -3 18 4 7 -1 6 -10 -2 -10 -8 -20 -11 -24 -8
-3 4 -12 2 -20 -4 -9 -9 -13 -8 -13 0 0 6 4 11 9 11 5 0 9 12 9 26 0 17 -3 22
-9 13 -4 -7 -6 -16 -3 -20 6 -10 -26 -20 -38 -13 -5 3 -8 -2 -6 -12 3 -21 -24
-27 -28 -6 -1 7 0 8 3 2 2 -5 9 -10 15 -10 6 0 6 6 -2 15 -9 10 -17 12 -30 5
-9 -5 -20 -7 -23 -4 -3 3 -11 3 -17 -1 -8 -5 -7 -11 2 -23 7 -10 8 -14 4 -10
-5 4 -15 0 -22 -10 -12 -15 -12 -14 -8 8 l6 25 -20 -22 c-18 -20 -19 -20 -32
-3 -15 21 -38 20 -55 -3 -16 -22 -64 -22 -81 1 -13 16 -14 16 -8 -1 5 -13 1
-20 -15 -24 -11 -3 -21 -12 -21 -19 0 -8 -5 -14 -11 -14 -6 0 -9 7 -5 15 3 8
1 15 -4 15 -6 0 -10 -6 -10 -14 0 -8 -5 -18 -12 -22 -7 -5 -8 -3 -3 6 5 8 3
11 -6 8 -8 -3 -13 -11 -11 -17 1 -8 -2 -9 -9 -5 -9 5 -10 2 -6 -10 4 -11 3
-15 -4 -10 -6 3 -9 15 -6 25 3 10 1 22 -4 25 -5 3 -9 2 -8 -3 3 -20 -2 -27
-11 -13 -8 11 -9 8 -4 -11 3 -17 1 -30 -7 -34 -8 -5 -10 -4 -5 3 4 7 3 12 -3
12 -5 0 -12 -4 -16 -9 -3 -6 -19 -8 -35 -6 -16 2 -33 -1 -36 -7 -4 -6 -2 -8 4
-4 6 3 13 2 16 -3 4 -5 -2 -8 -11 -7 -9 2 -19 8 -21 14 -2 7 -8 10 -12 7 -5
-3 -7 -12 -3 -20 3 -10 -1 -15 -12 -15 -9 0 -13 5 -9 11 3 6 -8 3 -25 -5 -17
-9 -31 -23 -31 -31 0 -10 -6 -12 -17 -8 -16 6 -17 5 -3 -13 10 -13 7 -12 -12
4 -19 17 -28 20 -33 11 -5 -8 -4 -10 3 -5 7 4 12 2 12 -5 0 -6 -8 -9 -20 -6
-11 3 -18 1 -14 -4 3 -5 -1 -9 -10 -9 -8 0 -16 -6 -19 -12 -2 -7 -7 -10 -11
-6 -4 3 -3 17 4 30 10 21 10 21 -3 6 -8 -10 -19 -18 -26 -18 -6 0 -11 -5 -11
-11 0 -5 4 -7 10 -4 6 3 7 -1 3 -10 -5 -13 -7 -14 -14 -3 -8 12 -13 4 -10 -14
0 -4 -6 -5 -14 -1 -9 3 -24 -2 -34 -11 -14 -13 -21 -14 -27 -5 -5 8 -3 10 6 4
9 -5 11 -4 6 4 -6 9 -11 9 -22 0 -15 -13 -19 -23 -5 -15 5 3 11 -1 15 -9 3 -8
0 -17 -6 -21 -6 -4 -8 -3 -5 2 3 6 -3 16 -15 23 -11 7 -17 8 -13 2 3 -7 -2
-11 -14 -11 -12 0 -21 -5 -21 -11 0 -5 5 -7 12 -3 7 4 8 3 4 -4 -9 -15 -39 -3
-33 13 3 6 -1 12 -8 12 -8 0 -11 -7 -7 -16 5 -14 3 -14 -10 -3 -14 11 -16 10
-11 -7 3 -13 1 -21 -6 -21 -7 0 -9 -5 -5 -12 4 -6 3 -8 -3 -5 -5 3 -21 8 -36
11 -24 4 -25 3 -16 -21 7 -19 6 -29 -2 -37 -9 -8 -10 -8 -5 1 3 6 3 19 -1 28
-5 16 -8 15 -25 -6 -14 -17 -18 -19 -16 -7 2 9 -1 17 -7 17 -5 0 -9 -8 -7 -18
3 -20 -32 -40 -63 -35 -11 2 -34 -6 -51 -17 -34 -21 -48 -24 -39 -10 3 5 1 13
-5 16 -6 4 -9 1 -8 -6 4 -15 -43 -19 -55 -4 -5 6 -7 4 -5 -4 3 -9 17 -15 35
-15 65 -2 43 -16 -29 -19 -15 0 -24 -5 -21 -11 4 -5 -1 -7 -12 -3 -14 6 -16 3
-12 -13 4 -17 2 -18 -15 -9 -15 8 -19 8 -14 0 10 -15 -7 -14 -24 2 -8 6 -6 2
5 -11 16 -20 17 -22 2 -16 -10 4 -17 1 -17 -6 0 -7 -9 -2 -20 11 l-20 24 10
-27 c5 -15 6 -30 1 -32 -13 -8 -20 4 -14 22 4 10 3 14 -2 10 -4 -4 -15 -2 -23
5 -13 11 -14 9 -2 -13 13 -24 12 -24 -5 -10 -14 11 -17 11 -11 1 7 -10 3 -12
-13 -6 -14 4 -23 1 -27 -9 -3 -9 -14 -16 -23 -16 -14 0 -14 2 -1 11 13 9 13
10 0 6 -8 -2 -15 -10 -15 -18 -1 -8 -6 -13 -13 -11 -7 1 -12 -2 -12 -8 0 -5
-16 -10 -35 -10 -19 0 -35 -5 -35 -11 0 -5 4 -7 10 -4 6 3 7 -1 3 -10 -5 -13
-7 -14 -14 -3 -5 7 -9 9 -9 3 0 -5 -8 -1 -16 10 -15 19 -15 19 -12 1 2 -10 -3
-21 -11 -24 -9 -3 -11 0 -6 9 5 8 5 11 0 7 -4 -4 -15 -2 -23 5 -13 10 -14 9
-3 -11 7 -13 10 -26 7 -30 -3 -3 -6 -1 -6 5 0 6 -9 13 -21 16 -17 5 -18 3 -7
-11 10 -12 10 -14 1 -8 -8 4 -13 2 -13 -6 -1 -7 -7 -2 -15 12 l-15 25 3 -25
c2 -22 -2 -25 -26 -23 -18 1 -25 -2 -21 -9 5 -7 3 -8 -5 -4 -7 5 -10 15 -6 24
3 9 3 13 -1 9 -4 -4 -13 1 -20 11 -10 12 -9 6 2 -21 8 -22 11 -36 5 -33 -5 3
-12 0 -14 -6 -4 -10 -6 -10 -6 0 -1 7 -6 10 -13 6 -7 -4 -8 -3 -4 5 4 6 12 8
18 5 6 -4 6 2 -1 15 -14 25 -23 28 -14 4 5 -13 2 -15 -11 -10 -13 5 -17 2 -14
-15 2 -14 -3 -22 -14 -24 -22 -3 -33 12 -17 22 8 5 9 3 4 -6 -6 -9 -4 -11 4
-6 7 5 10 10 7 13 -3 3 -1 15 5 27 9 19 9 19 -4 4 -8 -10 -17 -14 -21 -10 -4
4 -6 0 -4 -8 1 -8 -3 -14 -9 -12 -18 3 -16 -8 4 -32 10 -12 11 -15 3 -8 -17
14 -54 16 -45 2 3 -5 0 -7 -9 -4 -8 3 -12 12 -9 20 10 26 -4 14 -31 -27 -20
-29 -31 -38 -39 -30 -9 7 -13 2 -14 -21 0 -17 2 -25 7 -18 5 9 9 8 13 -4 6
-14 -26 -33 -45 -28 -5 1 -8 -3 -8 -9 0 -6 6 -9 13 -6 6 3 20 8 30 12 10 4 17
3 17 -4 0 -6 -6 -11 -14 -11 -8 0 -18 -5 -22 -11 -4 -8 0 -9 15 -4 16 5 20 3
15 -9 -3 -9 -9 -14 -13 -12 -3 2 -7 -8 -7 -22 -1 -15 1 -21 3 -14 3 6 9 12 14
12 11 0 7 -22 -6 -33 -6 -5 -2 -6 9 -3 14 5 17 2 12 -11 -6 -17 -5 -17 8 0 10
13 16 15 21 6 4 -6 2 -15 -5 -19 -8 -5 -8 -10 -2 -14 13 -8 23 19 15 40 -3 8
-12 13 -20 10 -9 -4 -11 -2 -7 6 5 7 3 8 -7 3 -12 -7 -12 -6 -1 7 9 11 10 18
2 23 -19 12 -10 26 12 19 20 -6 21 -5 9 9 -7 9 -16 15 -20 13 -3 -2 -6 15 -7
39 0 24 3 42 7 39 5 -2 5 -12 2 -22 -6 -14 -4 -15 8 -5 15 12 64 11 77 -2 4
-4 -2 -5 -14 -1 -14 4 -30 0 -45 -13 -23 -19 -23 -20 -6 -38 17 -17 18 -17 15
7 -2 20 2 25 22 27 22 1 22 1 3 -4 -13 -2 -23 -8 -23 -13 0 -5 6 -8 13 -6 6 1
9 1 5 -1 -5 -3 -8 -9 -8 -14 0 -6 5 -7 12 -3 7 4 8 3 4 -5 -4 -6 -12 -9 -17
-6 -5 4 -9 1 -9 -6 0 -7 -9 -9 -22 -6 -23 6 -23 6 -3 -9 11 -9 19 -20 17 -25
-1 -5 2 -9 8 -9 9 0 14 14 11 33 0 4 4 7 10 7 7 0 8 -7 4 -17 -4 -10 -9 -27
-11 -38 -1 -11 -5 -31 -8 -44 -5 -22 -4 -23 13 -7 19 17 24 46 8 46 -6 0 -7 3
-4 6 4 4 13 1 22 -6 8 -7 15 -9 15 -5 0 4 6 2 14 -4 10 -8 16 -9 21 -1 3 5 1
10 -6 10 -7 0 -10 3 -6 6 3 3 13 2 22 -4 16 -8 16 -10 -1 -17 -28 -12 -45 -14
-39 -6 2 4 -2 8 -9 8 -11 0 -12 -4 -3 -18 8 -13 13 -15 19 -6 7 11 12 2 9 -16
-1 -5 3 -6 8 -3 5 3 14 -1 21 -10 11 -12 15 -12 21 -2 5 7 6 21 3 31 -3 9 -1
17 5 17 6 0 12 -7 12 -15 3 -28 4 -33 11 -40 3 -4 5 1 4 12 -4 23 14 35 31 21
9 -7 13 -7 13 1 0 7 5 9 11 5 7 -4 10 -1 7 7 -3 8 -14 13 -24 11 -16 -2 -16
-1 -4 7 10 7 20 5 31 -5 16 -14 18 -14 21 8 2 17 9 23 28 23 14 0 30 3 35 7 6
4 11 -1 11 -11 0 -12 -6 -17 -18 -13 -10 2 -18 0 -18 -5 0 -12 38 -14 45 -2 4
5 11 6 17 3 7 -4 8 -2 4 5 -4 6 -12 8 -18 5 -7 -4 -8 -2 -4 4 5 9 13 9 26 2
19 -10 53 -3 45 10 -2 4 7 5 20 2 15 -2 22 -9 18 -16 -4 -7 -1 -6 9 1 8 7 17
11 20 8 2 -3 5 2 5 10 0 12 -3 12 -16 3 -9 -7 -13 -8 -9 -4 4 5 2 16 -5 25
-11 14 -10 14 6 2 14 -11 17 -11 17 0 1 8 7 3 14 -10 7 -13 15 -19 17 -13 2 7
16 13 32 14 15 1 27 6 27 10 0 4 4 8 10 8 5 0 7 -8 4 -17 -5 -17 -5 -17 6 0 6
9 15 15 21 12 5 -4 9 2 9 11 0 16 1 16 15 -2 14 -18 15 -17 5 8 -7 22 -7 26 6
21 9 -3 14 0 12 7 -2 7 4 15 12 17 13 4 13 3 0 -6 -8 -6 -11 -11 -6 -11 5 0 2
-8 -5 -17 -10 -14 -8 -13 10 2 21 17 23 17 18 3 -4 -12 -2 -15 8 -12 8 3 12
11 9 18 -6 16 32 51 41 37 4 -7 13 -4 26 8 11 10 28 18 37 16 9 -2 22 -4 27
-4 6 -1 3 -5 -5 -10 -8 -6 -18 -7 -24 -4 -5 3 -6 1 -2 -5 4 -7 -1 -10 -14 -7
-11 2 -18 0 -15 -5 3 -5 -4 -7 -15 -5 -11 2 -20 -1 -20 -7 0 -5 -7 -8 -14 -5
-10 4 -13 1 -9 -9 4 -11 9 -12 19 -3 11 9 18 8 31 -2 9 -8 14 -9 11 -4 -8 14
19 38 27 25 4 -6 11 -8 16 -4 5 3 7 10 4 15 -4 5 1 10 9 10 9 1 22 2 29 3 6 1
18 -3 26 -8 12 -9 12 -8 0 11 -10 16 -16 19 -22 10 -6 -8 -7 -7 -4 4 3 9 -1
27 -10 40 -10 18 -8 16 10 -4 21 -25 25 -26 37 -13 7 9 17 16 22 16 6 0 0 -8
-12 -18 -21 -17 -21 -18 -4 -32 17 -14 18 -14 5 3 -15 20 -2 23 19 5 11 -10
11 -9 0 6 -14 18 -13 19 4 13 12 -5 26 -1 39 10 19 18 20 17 8 -4 -14 -27 -14
-44 0 -20 10 18 12 18 37 -5 14 -12 21 -16 16 -8 -15 26 -13 40 7 40 22 0 23
3 8 33 -8 19 -8 20 3 7 17 -20 43 -19 42 1 -1 9 5 16 13 16 8 0 12 -5 10 -12
-3 -6 1 -19 9 -30 8 -10 14 -14 14 -7 0 6 6 9 14 6 8 -3 17 0 21 5 3 6 11 9
16 6 5 -4 9 2 9 11 0 15 -2 16 -17 2 -19 -16 -53 -20 -53 -6 0 4 11 8 25 8 19
0 23 4 19 18 -5 14 -4 15 5 2 6 -8 11 -11 11 -6 0 5 7 3 15 -4 8 -7 19 -8 27
-3 7 4 24 8 38 8 18 0 24 5 22 17 -3 21 15 33 31 21 17 -13 57 -14 57 -2 0 6
-4 8 -9 4 -5 -3 -13 0 -17 6 -5 8 -3 9 6 4 9 -5 11 -1 6 16 l-6 24 11 -22 c7
-13 21 -23 33 -23 17 0 18 -2 6 -10 -12 -8 -11 -10 5 -7 25 4 60 23 60 34 0 4
4 7 9 5 5 -2 6 4 3 12 -9 22 4 26 32 12 20 -11 21 -14 7 -19 -10 -4 -15 -3
-11 3 3 6 2 10 -3 10 -6 0 -13 -7 -16 -16 -3 -9 -11 -12 -18 -8 -10 6 -11 5
-1 -8 7 -8 9 -19 5 -23 -4 -5 -1 -5 6 -1 7 4 10 11 7 16 -3 5 10 12 30 16 19
3 32 10 29 15 -3 5 -1 9 5 9 5 0 12 -8 14 -17 4 -15 5 -15 6 2 1 17 3 18 11 5
8 -13 10 -13 10 2 0 9 10 20 21 23 17 6 19 9 8 16 -16 10 23 6 53 -6 10 -4 25
2 39 16 15 15 20 17 16 6 -8 -21 11 -33 26 -17 9 10 9 11 0 6 -9 -5 -11 -2 -7
8 3 9 10 13 15 10 14 -8 40 16 32 30 -3 6 4 2 17 -9 13 -11 20 -14 16 -7 -9
15 30 17 39 2 5 -8 11 -8 19 -1 9 7 17 7 26 -2 10 -9 11 -9 6 1 -4 6 -3 12 1
12 5 0 15 -6 23 -12 12 -11 12 -10 1 4 -11 15 -9 17 22 14 32 -3 34 -2 32 25
-2 26 -1 28 13 17 14 -11 15 -10 8 7 -5 15 -4 17 4 9 9 -9 9 -17 1 -32 -14
-26 -14 -32 1 -32 6 0 8 3 5 7 -8 7 11 33 25 33 5 0 6 -5 2 -12 -4 -7 -3 -8 5
-4 6 4 9 11 7 14 -2 4 7 7 21 6 13 0 29 -7 34 -15 6 -10 9 -8 9 11 0 19 2 22
9 10 6 -8 7 -18 4 -24 -3 -5 -1 -6 6 -2 6 4 9 11 6 16 -3 4 2 11 11 14 24 9
36 7 29 -4 -4 -6 -10 -8 -15 -5 -10 6 -7 -21 4 -32 4 -4 7 -3 6 2 -5 21 1 29
10 15 8 -13 10 -12 11 5 1 11 1 24 0 28 -1 5 3 6 9 2 6 -3 8 -10 6 -14 -3 -4
0 -13 6 -21 8 -12 9 -12 4 3 -7 21 12 23 21 1 4 -12 8 -13 14 -3 6 10 11 10
25 -2 16 -13 16 -12 4 8 -8 12 -21 20 -31 18 -10 -2 -23 3 -30 11 -8 10 -8 14
0 14 6 0 11 -5 11 -11 0 -8 4 -8 14 0 11 9 16 9 21 0 6 -8 10 -7 16 2 7 11 9
11 9 -1 0 -13 1 -13 11 0 9 13 10 13 6 0 -2 -8 -10 -14 -16 -12 -7 1 -10 -2
-7 -7 9 -14 47 -9 42 6 -3 7 1 10 10 6 10 -4 12 0 8 12 -6 16 -5 16 14 -1 26
-22 27 -25 7 -18 -8 4 -15 1 -15 -6 0 -6 5 -8 10 -5 6 3 10 0 10 -7 0 -7 7 -3
15 9 9 12 22 20 29 17 8 -3 16 -1 20 4 6 10 -24 9 -42 -2 -6 -4 -12 -2 -12 3
0 10 14 15 34 12 4 -1 14 4 22 10 8 6 14 8 15 3 0 -5 4 0 9 11 7 16 9 16 9 4
1 -18 25 -32 36 -21 9 10 55 10 49 0 -3 -4 -10 -6 -15 -3 -5 3 -6 -1 -2 -10 4
-12 8 -13 13 -5 5 7 13 9 20 5 8 -5 11 -4 7 2 -7 11 22 28 31 18 3 -3 0 -5 -6
-5 -7 0 -12 -4 -12 -10 0 -5 8 -6 17 -3 12 5 15 2 10 -10 -3 -9 -3 -18 1 -21
4 -2 9 7 10 22 1 14 7 31 13 37 7 7 8 4 3 -9 -6 -15 -4 -18 9 -13 12 4 14 2
10 -11 -6 -15 -5 -15 10 -3 9 7 31 15 48 16 29 3 30 2 15 -14 -14 -13 -18 -14
-25 -2 -5 8 -11 9 -15 3 -9 -15 23 -23 45 -12 20 11 43 5 35 -9 -6 -10 55 -8
72 2 6 5 16 6 21 3 5 -4 12 -1 14 4 3 6 4 5 3 -2 -2 -7 -8 -13 -14 -13 -7 0
-12 -3 -12 -7 0 -5 0 -11 0 -15 0 -4 5 -2 12 5 8 8 17 8 31 1 14 -8 18 -8 13
0 -10 15 37 14 52 -1 9 -9 15 -8 27 8 9 12 14 14 15 6 0 -8 5 -10 12 -6 8 5 9
2 5 -9 -3 -9 -1 -19 5 -23 6 -4 8 -3 5 3 -4 6 2 13 13 16 11 3 18 1 15 -3 -3
-5 3 -13 12 -19 10 -6 13 -11 8 -11 -6 0 -15 3 -21 8 -5 4 -5 2 1 -5 5 -7 27
-13 47 -15 20 -1 35 -5 32 -10 -3 -4 -11 -5 -18 -2 -8 3 -17 1 -21 -5 -3 -7 0
-8 9 -5 9 3 16 2 16 -3 0 -5 7 -10 15 -10 8 0 12 4 9 9 -3 4 0 8 5 8 6 0 11
-8 11 -17 0 -15 2 -16 10 -3 8 13 10 13 10 -2 0 -21 16 -32 26 -17 5 8 3 9 -6
4 -9 -5 -11 -4 -6 3 11 19 29 14 24 -6 -3 -11 0 -19 8 -19 7 0 11 4 8 8 -2 4
0 10 5 13 15 10 6 -25 -10 -36 -11 -8 -10 -9 4 -4 9 3 23 9 31 12 13 5 32 -24
21 -34 -3 -3 -5 0 -5 6 0 7 -6 12 -12 12 -7 -1 4 -16 26 -35 25 -22 36 -40 33
-50 -4 -8 -2 -15 2 -15 5 0 11 6 14 13 3 6 4 2 4 -10 -1 -12 -6 -19 -12 -17
-5 3 -2 -1 8 -9 21 -18 22 -31 1 -23 -9 3 -12 2 -9 -5 4 -5 15 -7 25 -4 20 6
21 -7 4 -49 -5 -13 -4 -17 4 -12 8 5 10 1 5 -10 -4 -12 -3 -15 5 -10 8 5 10 2
6 -8 -5 -13 -9 -12 -26 7 l-19 22 13 -23 c11 -20 11 -24 -4 -33 -10 -6 -18
-15 -18 -20 0 -6 7 -3 16 5 17 17 39 22 29 7 -3 -6 3 -14 12 -20 25 -14 7 -14
-20 1 -20 10 -21 10 -8 -5 9 -11 10 -17 2 -18 -26 -3 -30 -4 -36 -11 -4 -3 6
-5 21 -3 23 2 25 0 14 -9 -15 -11 -22 -29 -23 -53 0 -6 -7 -9 -15 -5 -9 3 -13
1 -9 -5 4 -6 0 -13 -8 -17 -8 -3 -15 -12 -15 -21 0 -8 -7 -15 -16 -15 -8 0
-12 -5 -9 -10 4 -6 10 -8 15 -5 5 3 11 1 14 -4 4 -5 -2 -8 -11 -6 -26 4 -36
-5 -22 -21 11 -14 3 -19 -26 -15 -5 1 -1 -6 10 -14 16 -13 18 -19 7 -35 -8
-13 -8 -21 -1 -25 5 -4 7 -15 4 -24 -3 -10 1 -24 10 -31 17 -14 20 -50 4 -50
-5 0 -7 -5 -3 -11 3 -6 9 -7 13 -3 3 5 15 10 26 12 19 3 19 3 1 -11 -16 -11
-17 -17 -7 -36 10 -17 15 -20 26 -11 9 8 15 8 20 0 3 -6 11 -7 17 -4 7 4 8 2
4 -5 -6 -9 -11 -9 -21 -1 -10 9 -13 7 -11 -7 2 -10 7 -18 12 -18 5 0 16 -4 24
-10 13 -8 13 -7 0 10 -14 17 -13 18 5 11 30 -13 55 -9 72 11 14 17 14 17 8 -1
-6 -19 -5 -19 14 -2 14 13 21 14 27 5 5 -8 3 -10 -6 -4 -9 5 -11 4 -6 -3 5 -9
13 -9 29 0 12 7 31 13 42 15 10 2 30 13 42 25 13 12 23 18 23 13 0 -5 11 2 24
14 15 14 22 29 19 39 -4 10 -2 13 5 8 11 -7 17 6 13 28 -1 5 4 4 13 -3 18 -15
30 1 21 32 -3 12 -3 18 2 12 13 -16 40 -17 46 0 4 8 12 13 19 11 7 -1 10 -1 6
1 -5 3 -8 9 -8 14 0 6 5 7 10 4 6 -3 10 -1 10 5 0 6 5 8 12 4 7 -4 8 -3 4 5
-4 6 -12 9 -17 6 -5 -3 -6 1 -3 10 4 8 0 23 -7 33 -11 14 -11 15 1 5 19 -17
30 -16 30 2 0 8 -5 15 -12 15 -6 0 -8 3 -5 6 4 4 14 1 24 -7 9 -8 14 -9 10 -2
-4 6 -3 15 3 18 8 5 7 11 -1 21 -6 8 -8 14 -3 14 5 0 2 5 -6 10 -10 6 -11 10
-2 10 6 0 12 8 12 18 0 14 2 15 10 2 12 -19 13 -33 2 -26 -5 3 -9 -1 -9 -9 0
-21 10 -19 25 5 7 12 8 20 2 20 -5 0 -10 7 -10 15 0 8 5 15 12 15 6 0 3 7 -8
15 -18 14 -18 14 2 9 12 -3 25 0 29 7 5 7 4 10 -1 6 -6 -3 -16 -2 -24 4 -12 7
-12 9 3 9 10 0 15 5 12 10 -4 6 -11 7 -17 4 -7 -4 -8 -2 -4 5 4 6 12 8 18 5 6
-4 8 1 3 16 -5 15 -4 20 4 16 7 -5 9 -1 5 8 -3 9 -11 13 -17 9 -6 -3 -7 -1 -3
6 4 6 11 9 16 6 4 -3 10 2 14 10 3 8 0 17 -6 21 -7 4 -8 3 -4 -4 4 -7 2 -12
-3 -12 -13 0 -14 17 -2 24 5 3 11 14 14 25 3 15 1 18 -12 14 -9 -3 -12 -2 -6
4 12 9 13 23 2 39 -4 7 0 15 8 18 12 4 13 10 6 25 -8 14 -7 21 2 24 6 3 3 6
-7 6 -11 1 -16 4 -13 7 3 4 1 16 -5 28 -10 20 -10 20 11 -1 28 -30 36 -29 16
0 -8 13 -13 27 -10 30 3 4 2 5 -2 2 -11 -8 -42 47 -35 63 4 11 2 13 -8 7 -8
-5 -11 -4 -6 3 3 6 -4 18 -16 26 -12 9 -18 16 -12 16 5 0 15 -5 21 -11 7 -7
12 -6 17 6 3 9 2 13 -3 10 -5 -3 -12 -1 -16 4 -3 6 -13 8 -23 5 -14 -5 -14 -4
-3 4 8 6 21 8 30 4 9 -3 13 -2 9 2 -3 4 -13 9 -22 10 -9 1 -16 5 -16 9 0 4 0
9 0 12 0 3 15 -2 33 -10 30 -15 22 -6 -20 22 -10 7 -12 12 -4 10 7 -1 15 4 17
11 1 7 0 8 -3 2 -3 -7 -11 -4 -20 7 -8 10 -12 12 -8 6 3 -7 1 -21 -4 -30 -6
-10 -11 -13 -11 -6 0 7 -7 10 -17 7 -16 -5 -16 -4 0 6 18 11 18 13 -2 32 -12
10 -19 23 -16 29 4 5 -1 19 -9 31 -17 24 -22 17 -7 -10 6 -12 4 -21 -6 -31
-13 -12 -14 -11 -9 7 5 15 1 24 -14 32 -11 6 -18 15 -15 21 4 5 2 9 -3 9 -6 0
-13 7 -16 16 -5 14 -4 15 9 4 9 -7 18 -10 22 -6 3 3 1 6 -6 6 -7 0 -9 5 -6 10
4 6 3 10 -2 9 -4 -1 -21 -1 -38 0 -21 1 -26 4 -17 10 10 6 7 10 -12 15 -17 4
-24 11 -20 18 5 8 2 9 -10 5 -11 -5 -15 -3 -10 5 5 8 2 9 -9 5 -10 -4 -16 -2
-14 6 1 7 -3 11 -10 10 -7 -2 -10 4 -7 12 5 11 1 14 -12 9 -14 -4 -16 -3 -5 4
16 12 4 20 -26 17 -18 -1 -21 3 -17 27 1 16 6 33 10 39 4 7 -1 7 -15 0 -11 -7
-21 -14 -21 -17 0 -3 5 -2 10 1 6 3 10 1 10 -5 0 -7 -7 -10 -15 -6 -8 3 -15 1
-15 -5 0 -6 -7 -4 -15 5 -8 8 -15 19 -15 24 0 6 -7 13 -16 16 -8 3 -12 2 -9
-4 3 -6 1 -10 -4 -10 -11 0 -15 19 -12 50 1 11 -2 10 -10 -3 -6 -10 -8 -24 -6
-31 3 -7 -1 -13 -8 -13 -8 0 -11 7 -7 16 5 14 4 14 -14 1 -18 -14 -18 -14 -5
3 8 10 9 17 3 17 -6 0 -14 10 -17 21 -6 17 -9 18 -15 8 -7 -11 -13 -10 -29 5
-11 10 -19 22 -16 26 2 3 -6 6 -18 5 -24 -2 -50 13 -42 25 6 10 -15 8 -32 -3
-6 -4 -14 -3 -18 3 -9 15 -22 12 -29 -6 -3 -8 -2 -13 3 -10 5 3 11 -1 15 -9 3
-8 0 -17 -6 -21 -7 -5 -8 -2 -3 6 6 9 1 10 -16 5 -13 -3 -19 -3 -14 2 17 14
17 36 1 30 -9 -4 -18 -1 -22 5 -4 6 -3 8 3 5 6 -4 17 1 24 10 12 15 12 16 -1
8 -21 -13 -40 -15 -40 -4 0 5 -5 9 -10 9 -6 0 -3 -12 7 -27 14 -23 15 -26 2
-16 -9 7 -20 9 -24 5 -5 -4 -5 -2 -2 4 4 7 -3 12 -18 12 -14 0 -22 -4 -19 -9
3 -5 0 -9 -5 -9 -14 0 -14 13 1 28 9 9 9 12 -3 13 -7 1 -17 1 -21 0 -5 0 -8 4
-8 10 0 8 -6 7 -17 -2 -15 -12 -16 -12 -10 3 5 15 2 16 -18 8 -14 -5 -25 -7
-25 -4 0 2 -9 0 -21 -6 -17 -10 -20 -9 -17 5 5 26 -39 39 -51 16 -7 -13 -6
-18 4 -18 7 0 11 7 8 16 -4 13 -3 13 5 2 5 -7 16 -10 23 -7 8 4 6 1 -4 -7 -14
-11 -15 -16 -5 -20 9 -4 9 -6 1 -6 -6 -1 -14 3 -18 9 -3 5 -12 7 -19 4 -7 -3
-16 2 -19 10 -4 9 -1 16 5 16 6 0 9 3 5 6 -3 3 -12 2 -19 -2 -22 -14 -40 -13
-34 1 3 9 0 12 -9 8 -8 -3 -13 -9 -10 -13 3 -4 -11 -10 -29 -12 -21 -2 -32 0
-29 6 4 5 -1 7 -9 3 -9 -3 -20 -1 -26 5 -8 8 -9 4 -5 -12 l6 -23 -21 21 c-12
12 -32 22 -44 22 -18 0 -20 -2 -8 -9 8 -6 17 -8 21 -5 4 2 12 -3 18 -10 9 -11
9 -14 -1 -12 -7 1 -19 5 -25 9 -8 5 -13 3 -13 -5 0 -7 -7 -2 -16 10 -8 12 -20
20 -25 17 -13 -9 -11 9 3 23 7 7 9 12 5 12 -4 0 -12 -9 -19 -20z m-177 -37
c-12 -20 -14 -14 -5 12 4 9 9 14 11 11 3 -2 0 -13 -6 -23z m171 -5 c-7 -7 -12
-8 -12 -2 0 14 12 26 19 19 2 -3 -1 -11 -7 -17z m33 13 c3 -5 2 -12 -3 -15 -5
-3 -9 1 -9 9 0 17 3 19 12 6z m242 -18 c0 -9 -4 -10 -14 -2 -10 9 -13 8 -14
-2 0 -10 -2 -10 -5 -2 -3 7 -13 9 -22 6 -12 -3 -13 -2 -5 4 19 13 60 11 60 -4z
m153 -2 c0 -5 -7 -11 -14 -14 -10 -4 -13 -1 -9 9 6 15 23 19 23 5z m52 -20
c-4 -10 -7 -11 -10 -3 -2 7 -9 9 -14 6 -6 -4 -8 -3 -5 3 10 16 36 11 29 -6z
m-912 -1 c0 -5 -5 -10 -11 -10 -5 0 -7 5 -4 10 3 6 8 10 11 10 2 0 4 -4 4 -10z
m-110 -36 c0 -3 -4 -3 -9 0 -5 4 -12 0 -14 -6 -3 -8 -6 -6 -6 5 -1 11 -6 15
-13 11 -7 -4 -8 -3 -4 4 5 9 13 9 27 2 10 -6 19 -13 19 -16z m1251 -12 c-5 -2
-7 -11 -4 -20 4 -14 3 -14 -5 -2 -6 8 -8 18 -5 24 4 5 -1 7 -10 3 -11 -4 -17
-1 -17 7 0 23 13 26 32 9 11 -10 15 -19 9 -21z m-1141 18 c0 -5 -5 -10 -11
-10 -5 0 -7 5 -4 10 3 6 8 10 11 10 2 0 4 -4 4 -10z m-250 -30 c-24 -15 -36
-11 -14 4 10 8 21 12 24 10 2 -3 -2 -9 -10 -14z m1454 -9 c3 -5 -1 -11 -9 -14
-9 -4 -12 -1 -9 8 4 10 0 13 -15 10 -14 -2 -18 1 -14 11 4 10 10 11 23 4 11
-6 21 -14 24 -19z m-1759 -101 c3 -5 2 -10 -4 -10 -5 0 -13 5 -16 10 -3 6 -2
10 4 10 5 0 13 -4 16 -10z m-24 -17 c8 -9 9 -14 2 -10 -6 4 -13 1 -16 -5 -3
-7 -4 -3 -4 10 1 26 1 26 18 5z m49 3 c0 -2 -8 -10 -17 -17 -16 -13 -17 -12
-4 4 13 16 21 21 21 13z m-130 -40 c0 -2 -7 -7 -16 -10 -8 -3 -12 -2 -9 4 6
10 25 14 25 6z m480 -40 c0 -2 -7 -7 -16 -10 -8 -3 -12 -2 -9 4 6 10 25 14 25
6z m1783 -79 c3 -8 -1 -14 -8 -14 -7 0 -11 6 -8 14 3 7 6 13 8 13 2 0 5 -6 8
-13z m-1569 -25 c3 -5 -1 -9 -9 -9 -8 0 -12 4 -9 9 3 4 7 8 9 8 2 0 6 -4 9 -8z
m-250 -20 c3 -5 -1 -9 -9 -9 -8 0 -12 4 -9 9 3 4 7 8 9 8 2 0 6 -4 9 -8z m80
-4 c-3 -4 -9 -8 -15 -8 -5 0 -9 4 -9 8 0 5 7 9 15 9 8 0 12 -4 9 -9z m171 -18
c3 -5 1 -10 -4 -10 -6 0 -11 5 -11 10 0 6 2 10 4 10 3 0 8 -4 11 -10z m61 -2
c3 -4 -1 -5 -10 -4 -8 1 -18 5 -22 8 -3 4 1 5 10 4 8 -1 18 -5 22 -8z m-559
-23 c0 -8 -4 -12 -9 -9 -5 3 -6 10 -3 15 9 13 12 11 12 -6z m327 7 c3 -5 -1
-9 -9 -9 -8 0 -12 4 -9 9 3 4 7 8 9 8 2 0 6 -4 9 -8z m126 2 c0 -8 -19 -13
-24 -6 -3 5 1 9 9 9 8 0 15 -2 15 -3z m170 -4 c0 -5 -5 -10 -11 -10 -5 0 -7 5
-4 10 3 6 8 10 11 10 2 0 4 -4 4 -10z m-1346 -8 c2 -4 -5 -9 -17 -9 -17 -2
-19 0 -7 7 18 12 18 12 24 2z m983 -17 c0 -8 -4 -12 -9 -9 -5 3 -6 10 -3 15 9
13 12 11 12 -6z m318 5 c3 -5 1 -10 -4 -10 -6 0 -11 5 -11 10 0 6 2 10 4 10 3
0 8 -4 11 -10z m-361 -26 c3 -8 2 -12 -4 -9 -6 3 -10 10 -10 16 0 14 7 11 14
-7z m256 12 c0 -2 -8 -10 -17 -17 -16 -13 -17 -12 -4 4 13 16 21 21 21 13z
m610 0 c0 -3 -4 -8 -10 -11 -5 -3 -10 -1 -10 4 0 6 5 11 10 11 6 0 10 -2 10
-4z m118 -13 c-2 -12 2 -17 12 -15 8 2 12 0 8 -4 -4 -4 -3 -13 2 -19 7 -9 3
-12 -15 -11 -33 2 -38 9 -24 40 14 30 21 34 17 9z m77 7 c3 -5 1 -10 -4 -10
-6 0 -11 5 -11 10 0 6 2 10 4 10 3 0 8 -4 11 -10z m-998 -15 c0 -8 -4 -15 -9
-15 -10 0 -11 14 -1 23 9 10 10 9 10 -8z m298 -5 c-3 -5 -14 -10 -23 -9 -14 0
-13 2 3 9 27 11 27 11 20 0z m-81 -15 c-7 -17 -34 -21 -34 -4 0 5 4 8 9 4 5
-3 12 -1 16 5 9 15 15 12 9 -5z m786 11 c0 -2 -7 -7 -16 -10 -8 -3 -12 -2 -9
4 6 10 25 14 25 6z m48 -16 c-7 -10 -15 -16 -18 -12 -3 4 -9 11 -15 15 -6 5
-3 7 7 3 10 -3 20 -1 23 4 4 6 8 10 11 10 2 0 -1 -9 -8 -20z m-1134 -2 c-3 -4
1 -8 8 -8 8 0 5 -5 -5 -11 -14 -8 -22 -8 -30 1 -9 8 -7 9 8 4 17 -7 18 -5 8 7
-10 13 -10 16 2 16 8 0 12 -4 9 -9z m60 1 c3 -3 -4 -5 -14 -6 -11 -1 -22 2
-24 6 -5 8 30 8 38 0z m-109 -27 c-3 -3 -11 0 -18 7 -9 10 -8 11 6 5 10 -3 15
-9 12 -12z m178 -4 c-4 -22 -4 -23 11 -4 9 11 16 14 16 8 0 -7 0 -15 0 -19 1
-11 -29 -12 -36 -2 -3 6 -3 16 0 24 8 23 15 18 9 -7z m1057 14 c0 -13 -12 -22
-22 -16 -10 6 -1 24 13 24 5 0 9 -4 9 -8z m-1088 -17 c3 3 5 -2 5 -10 0 -8 -4
-12 -9 -9 -4 3 -8 0 -8 -7 0 -7 -3 -9 -7 -6 -3 4 -12 2 -19 -4 -10 -8 -16 -5
-26 10 -12 19 -13 19 -32 3 -18 -16 -18 -16 -5 6 17 27 24 28 42 1 16 -22 26
-15 22 13 -3 14 0 16 15 8 9 -5 19 -7 22 -5z m-1152 1 c0 -2 -7 -7 -16 -10 -8
-3 -12 -2 -9 4 6 10 25 14 25 6z m-227 -41 c-3 -9 -8 -14 -10 -11 -3 3 -2 9 2
15 9 16 15 13 8 -4z m47 -5 c0 -5 -6 -9 -12 -7 -7 1 -12 -4 -10 -11 1 -8 -2
-11 -7 -7 -14 8 -2 35 15 35 8 0 14 -4 14 -10z m320 4 c0 -8 -19 -13 -24 -6
-3 5 1 9 9 9 8 0 15 -2 15 -3z m176 -9 c-1 -8 -5 -17 -8 -21 -5 -4 -4 16 1 34
3 9 9 -1 7 -13z m39 -14 c3 -5 2 -12 -3 -15 -5 -3 -9 1 -9 9 0 17 3 19 12 6z
m45 3 c0 -8 -19 -13 -24 -6 -3 5 1 9 9 9 8 0 15 -2 15 -3z m505 -4 c3 -6 -1
-7 -9 -4 -18 7 -21 14 -7 14 6 0 13 -4 16 -10z m35 0 c0 -5 -4 -10 -10 -10 -5
0 -10 5 -10 10 0 6 5 10 10 10 6 0 10 -4 10 -10z m-1217 -21 c-8 -8 -13 -7
-18 2 -5 8 -4 10 3 5 7 -4 12 -2 12 5 0 7 3 9 7 6 4 -4 2 -12 -4 -18z m492 2
c3 -5 2 -12 -3 -15 -5 -3 -9 1 -9 9 0 17 3 19 12 6z m582 -13 c-3 -8 -6 -5 -6
6 -1 11 2 17 5 13 3 -3 4 -12 1 -19z m-240 -13 c0 -8 -4 -12 -9 -9 -5 3 -6 10
-3 15 9 13 12 11 12 -6z m-302 -14 c3 -5 2 -12 -3 -15 -5 -3 -9 1 -9 9 0 17 3
19 12 6z m262 -6 c0 -8 -4 -12 -9 -9 -4 3 -8 9 -8 15 0 5 4 9 8 9 5 0 9 -7 9
-15z m138 -5 c-3 -5 -1 -10 5 -10 6 0 8 -5 4 -11 -4 -8 -9 -7 -15 2 -12 19
-11 29 2 29 5 0 7 -4 4 -10z m-305 -4 c0 -2 -8 -10 -17 -17 -16 -13 -17 -12
-4 4 13 16 21 21 21 13z m30 -6 c0 -5 -5 -10 -11 -10 -5 0 -7 5 -4 10 3 6 8
10 11 10 2 0 4 -4 4 -10z m97 -4 c4 -4 1 -6 -7 -4 -9 2 -14 -4 -14 -14 1 -10
-4 -14 -12 -11 -10 4 -11 9 -4 18 5 6 7 14 4 18 -3 3 1 4 10 3 8 -1 19 -6 23
-10z m-362 -8 c5 4 5 1 1 -6 -6 -10 -11 -10 -22 -1 -8 6 -14 14 -14 16 0 3 6
0 13 -6 8 -6 18 -7 22 -3z m188 -10 c-6 -7 -9 -21 -8 -31 2 -9 0 -15 -5 -12
-13 8 1 55 17 55 3 0 1 -6 -4 -12z m117 8 c0 -2 -7 -7 -16 -10 -8 -3 -12 -2
-9 4 6 10 25 14 25 6z m2159 -20 c11 -14 6 -15 -27 -7 -4 1 8 21 12 21 2 0 9
-6 15 -14z m-2709 -2 c0 -8 -19 -13 -24 -6 -3 5 1 9 9 9 8 0 15 -2 15 -3z
m270 -9 c-6 -7 -7 -21 -4 -31 4 -11 4 -16 -1 -12 -14 13 -14 55 1 55 10 0 11
-4 4 -12z m45 5 c-3 -5 -12 -10 -18 -10 -7 0 -6 4 3 10 19 12 23 12 15 0z m39
-5 c-4 -8 -11 -12 -16 -9 -6 4 -5 10 3 15 19 12 19 11 13 -6z m46 12 c0 -2 -9
-12 -20 -22 -24 -21 -27 -14 -4 9 15 15 24 20 24 13z m110 -7 c0 -5 -2 -10 -4
-10 -3 0 -8 5 -11 10 -3 6 -1 10 4 10 6 0 11 -4 11 -10z m-1145 -30 c3 -5 -1
-10 -10 -10 -9 0 -13 5 -10 10 3 6 8 10 10 10 2 0 7 -4 10 -10z m948 3 c-7 -2
-19 -2 -25 0 -7 3 -2 5 12 5 14 0 19 -2 13 -5z m-888 -13 c3 -5 0 -7 -9 -4
-12 4 -14 0 -10 -21 3 -17 1 -24 -6 -20 -8 5 -8 28 -1 53 2 6 21 1 26 -8z
m731 -3 c4 -3 -4 -4 -16 -2 -30 6 -40 16 -12 12 12 -2 24 -6 28 -10z m74 3 c0
-5 -2 -10 -4 -10 -3 0 -8 5 -11 10 -3 6 -1 10 4 10 6 0 11 -4 11 -10z m120 0
c0 -5 -4 -10 -10 -10 -5 0 -10 5 -10 10 0 6 5 10 10 10 6 0 10 -4 10 -10z
m-443 -15 c0 -8 -4 -15 -9 -15 -10 0 -11 14 -1 23 9 10 10 9 10 -8z m334 -8
c-10 -9 -11 -8 -5 6 3 10 9 15 12 12 3 -3 0 -11 -7 -18z m-894 -1 c0 -8 -6
-12 -14 -9 -7 3 -10 9 -7 14 8 14 21 11 21 -5z m27 -1 c-4 -8 -8 -15 -10 -15
-2 0 -4 7 -4 15 0 8 4 15 10 15 5 0 7 -7 4 -15z m89 0 c4 -8 3 -16 -1 -19 -4
-3 -9 4 -9 15 -2 23 3 25 10 4z m604 0 c0 -8 -4 -12 -9 -9 -4 3 -8 9 -8 15 0
5 4 9 8 9 5 0 9 -7 9 -15z m57 7 c3 -5 -1 -9 -9 -9 -8 0 -12 4 -9 9 3 4 7 8 9
8 2 0 6 -4 9 -8z m196 4 c0 -2 -7 -9 -15 -16 -13 -11 -14 -10 -9 4 5 14 24 23
24 12z m60 -6 c-20 -13 -33 -13 -25 0 3 6 14 10 23 10 15 0 15 -2 2 -10z
m-435 -9 c3 -5 2 -12 -3 -15 -5 -3 -9 1 -9 9 0 17 3 19 12 6z m255 -13 c0 -4
-4 -8 -9 -8 -6 0 -12 4 -15 8 -3 5 1 9 9 9 8 0 15 -4 15 -9z m-157 -26 c-6
-16 -5 -16 14 1 11 9 24 17 29 17 4 0 -3 -8 -16 -17 -30 -21 -35 -20 -36 7 -1
11 2 17 7 14 4 -2 5 -12 2 -22z m82 18 c-3 -5 -12 -10 -18 -10 -7 0 -6 4 3 10
19 12 23 12 15 0z m-255 -4 c0 -2 -7 -7 -16 -10 -8 -3 -12 -2 -9 4 6 10 25 14
25 6z m40 -4 c0 -5 -7 -9 -15 -9 -8 0 -12 4 -9 9 3 4 9 8 15 8 5 0 9 -4 9 -8z
m100 -12 c-6 -11 -13 -20 -16 -20 -2 0 0 9 6 20 6 11 13 20 16 20 2 0 0 -9 -6
-20z m-200 -10 c0 -5 -2 -10 -4 -10 -3 0 -8 5 -11 10 -3 6 -1 10 4 10 6 0 11
-4 11 -10z m-335 -20 c3 -6 -1 -7 -9 -4 -18 7 -21 14 -7 14 6 0 13 -4 16 -10z
m472 -5 c0 -8 -4 -15 -9 -15 -10 0 -11 14 -1 23 9 10 10 9 10 -8z m20 -7 c-3
-8 -6 -5 -6 6 -1 11 2 17 5 13 3 -3 4 -12 1 -19z m-542 -6 c-3 -3 -1 -10 5
-16 6 -8 3 -12 -8 -12 -10 0 -18 8 -18 16 0 9 6 17 13 17 7 0 11 -3 8 -5z m65
-16 c0 -3 -4 -8 -10 -11 -5 -3 -10 -1 -10 4 0 6 5 11 10 11 6 0 10 -2 10 -4z
m264 -4 c3 -5 -1 -9 -9 -9 -8 0 -15 4 -15 9 0 4 4 8 9 8 6 0 12 -4 15 -8z
m110 -7 c-4 -8 -8 -15 -10 -15 -2 0 -4 7 -4 15 0 8 4 15 10 15 5 0 7 -7 4 -15z
m96 11 c0 -11 -19 -15 -25 -6 -3 5 1 10 9 10 9 0 16 -2 16 -4z m-292 -41 c-3
-3 -9 2 -12 12 -6 14 -5 15 5 6 7 -7 10 -15 7 -18z m-230 -5 c-14 -22 -17 -23
-37 -11 -9 6 -10 11 -2 15 6 4 15 5 20 1 5 -3 12 -1 16 5 3 5 8 10 11 10 2 0
-1 -9 -8 -20z m307 -19 c-6 -5 -25 10 -25 20 0 5 6 4 14 -3 8 -7 12 -15 11
-17z m-191 1 c3 -5 -1 -9 -9 -9 -8 0 -15 4 -15 9 0 4 4 8 9 8 6 0 12 -4 15 -8z
m-68 -70 c-4 -3 -14 2 -24 13 -9 10 -11 15 -4 11 7 -4 12 -2 12 6 0 8 5 6 11
-5 6 -10 8 -21 5 -25z m3237 -97 c-3 -9 -8 -14 -10 -11 -3 3 -2 9 2 15 9 16
15 13 8 -4z m440 -117 c-4 -7 -8 -17 -8 -23 0 -5 -9 -11 -20 -12 -18 -3 -18
-2 -2 5 10 4 18 11 18 15 -2 20 0 27 10 27 6 0 7 -5 2 -12z m-496 -15 c-4 -3
-2 -12 4 -19 10 -12 7 -12 -30 -5 -5 1 20 31 27 31 3 0 2 -3 -1 -7z m3 -74 c0
-6 -4 -7 -10 -4 -5 3 -10 11 -10 16 0 6 5 7 10 4 6 -3 10 -11 10 -16z m360
-64 c-10 -12 -15 -13 -21 -3 -11 17 11 42 24 29 7 -7 6 -15 -3 -26z m-40 -14
c0 -13 -20 -25 -42 -26 -14 -1 -15 1 -6 12 9 11 13 12 19 1 8 -12 13 -4 10 15
0 4 4 7 9 7 6 0 10 -4 10 -9z m-282 -36 c-3 -3 -9 2 -12 12 -6 14 -5 15 5 6 7
-7 10 -15 7 -18z m101 -12 c14 11 14 10 2 -6 -10 -13 -17 -15 -27 -6 -8 6 -14
14 -14 17 0 3 5 1 12 -6 9 -9 15 -9 27 1z"/>
<path d="M6430 8682 c0 -5 7 -9 15 -9 8 0 12 4 9 9 -3 4 -9 8 -15 8 -5 0 -9
-4 -9 -8z"/>
<path d="M7275 7800 c-3 -5 -1 -10 4 -10 6 0 11 5 11 10 0 6 -2 10 -4 10 -3 0
-8 -4 -11 -10z"/>
<path d="M5850 9260 c0 -5 5 -10 11 -10 5 0 7 5 4 10 -3 6 -8 10 -11 10 -2 0
-4 -4 -4 -10z"/>
<path d="M5881 9253 c-5 -10 -19 -18 -32 -18 -12 0 -24 -7 -26 -15 -4 -12 -3
-12 5 -2 5 8 15 13 23 12 28 -4 39 0 39 16 0 9 5 12 12 8 7 -4 8 -3 4 4 -10
16 -13 15 -25 -5z"/>
<path d="M6554 9262 c3 -5 0 -13 -6 -15 -9 -4 -10 -6 -1 -6 17 -1 25 16 12 25
-7 4 -9 3 -5 -4z"/>
<path d="M6588 9253 c7 -3 16 -2 19 1 4 3 -2 6 -13 5 -11 0 -14 -3 -6 -6z"/>
<path d="M6640 9240 c-9 -6 -10 -10 -3 -10 6 0 15 5 18 10 8 12 4 12 -15 0z"/>
<path d="M5618 9191 c4 -10 1 -12 -8 -6 -9 5 -11 4 -6 -3 9 -15 9 -15 28 7 16
18 15 20 -2 18 -11 -1 -16 -6 -12 -16z"/>
<path d="M6660 9199 c0 -5 5 -7 10 -4 6 3 10 8 10 11 0 2 -4 4 -10 4 -5 0 -10
-5 -10 -11z"/>
<path d="M5525 9179 c-4 -6 -5 -12 -2 -15 2 -3 7 2 10 11 7 17 1 20 -8 4z"/>
<path d="M6926 9138 c3 -5 10 -6 15 -3 13 9 11 12 -6 12 -8 0 -12 -4 -9 -9z"/>
<path d="M6977 9134 c-8 -9 11 -44 23 -44 6 0 10 5 10 11 0 5 -4 7 -10 4 -9
-6 -14 8 -11 28 1 9 -4 9 -12 1z"/>
<path d="M5256 9102 c-2 -4 -1 -14 4 -22 7 -11 9 -9 7 8 -1 24 -3 26 -11 14z"/>
<path d="M7071 9094 c-1 -7 5 -24 13 -38 11 -22 15 -24 20 -11 8 23 8 27 -4
20 -6 -3 -14 4 -19 17 -6 13 -10 18 -10 12z"/>
<path d="M350 9079 c0 -5 5 -7 10 -4 6 3 10 8 10 11 0 2 -4 4 -10 4 -5 0 -10
-5 -10 -11z"/>
<path d="M5073 9025 c0 -8 4 -15 9 -15 4 0 8 4 8 9 0 6 -4 12 -8 15 -5 3 -9
-1 -9 -9z"/>
<path d="M7146 9014 c-3 -8 -2 -13 3 -9 5 3 11 -1 14 -7 3 -7 4 -3 4 10 -1 25
-12 29 -21 6z"/>
<path d="M7180 9003 c0 -11 59 -73 71 -73 4 0 11 5 14 10 4 6 3 10 -2 9 -4 -1
-15 -1 -23 0 -13 1 -13 2 0 12 13 8 13 9 -2 7 -9 -2 -26 8 -37 21 -12 13 -21
20 -21 14z"/>
<path d="M4906 8958 c3 -5 10 -6 15 -3 13 9 11 12 -6 12 -8 0 -12 -4 -9 -9z"/>
<path d="M4880 8950 c10 -6 11 -10 3 -10 -7 0 -13 -5 -13 -11 0 -8 5 -8 15 1
16 13 11 30 -8 30 -7 0 -6 -4 3 -10z"/>
<path d="M7294 8920 c0 -13 4 -16 10 -10 7 7 7 13 0 20 -6 6 -10 3 -10 -10z"/>
<path d="M4690 8858 c0 -4 4 -8 9 -8 6 0 12 4 15 8 3 5 -1 9 -9 9 -8 0 -15 -4
-15 -9z"/>
<path d="M7375 8840 c3 -5 8 -10 11 -10 2 0 4 5 4 10 0 6 -5 10 -11 10 -5 0
-7 -4 -4 -10z"/>
<path d="M7355 8820 c-3 -5 -1 -10 4 -10 6 0 11 5 11 10 0 6 -2 10 -4 10 -3 0
-8 -4 -11 -10z"/>
<path d="M4570 8808 c0 -11 -6 -16 -18 -13 -11 2 -19 -3 -19 -10 0 -14 13 -14
39 1 12 6 14 14 8 24 -8 13 -10 13 -10 -2z"/>
<path d="M4467 8779 c7 -7 15 -10 18 -7 3 3 -2 9 -12 12 -14 6 -15 5 -6 -5z"/>
<path d="M7424 8768 c3 -15 26 -23 26 -8 0 6 -4 9 -9 6 -5 -4 -12 -1 -14 4 -3
6 -4 5 -3 -2z"/>
<path d="M6086 8685 c4 -9 17 -12 35 -10 18 2 29 -1 29 -8 0 -7 4 -6 9 3 13
19 3 34 -13 21 -7 -6 -15 -8 -18 -6 -3 3 -15 7 -26 10 -15 2 -19 -1 -16 -10z"/>
<path d="M5716 8633 c-6 -14 -5 -15 5 -6 7 7 10 15 7 18 -3 3 -9 -2 -12 -12z"/>
<path d="M7517 8623 c-10 -9 -9 -23 1 -23 5 0 9 7 9 15 0 17 -1 18 -10 8z"/>
<path d="M4047 8589 c7 -7 15 -10 18 -7 3 3 -2 9 -12 12 -14 6 -15 5 -6 -5z"/>
<path d="M5413 8575 c-3 -9 -3 -18 -1 -21 3 -3 8 4 11 16 6 23 -1 27 -10 5z"/>
<path d="M7518 8579 c-10 -27 6 -40 21 -18 7 12 8 18 3 15 -6 -3 -12 -1 -14 6
-3 8 -6 7 -10 -3z"/>
<path d="M5245 8544 c-16 -12 -17 -16 -5 -27 8 -6 12 -8 8 -3 -12 15 15 35 35
25 9 -6 17 -7 17 -5 0 16 -37 23 -55 10z"/>
<path d="M5310 8546 c0 -2 7 -7 16 -10 8 -3 12 -2 9 4 -6 10 -25 14 -25 6z"/>
<path d="M7546 8542 c-3 -5 1 -9 9 -9 8 0 15 4 15 9 0 4 -4 8 -9 8 -6 0 -12
-4 -15 -8z"/>
<path d="M3824 8512 c4 -3 14 -7 22 -8 9 -1 13 0 10 4 -4 3 -14 7 -22 8 -9 1
-13 0 -10 -4z"/>
<path d="M4910 8471 c0 -5 6 -12 13 -14 9 -4 9 -6 -1 -6 -7 -1 -10 -5 -7 -11
4 -6 11 -5 19 2 11 10 11 15 0 25 -15 15 -24 17 -24 4z"/>
<path d="M3579 8443 c-13 -16 -12 -17 4 -4 9 7 17 15 17 17 0 8 -8 3 -21 -13z"/>
<path d="M4860 8430 c8 -5 20 -10 25 -10 6 0 3 5 -5 10 -8 5 -19 10 -25 10 -5
0 -3 -5 5 -10z"/>
<path d="M7565 8420 c3 -5 11 -10 16 -10 6 0 7 5 4 10 -3 6 -11 10 -16 10 -6
0 -7 -4 -4 -10z"/>
<path d="M4705 8410 c-4 -6 -11 -8 -16 -4 -6 3 -5 -3 2 -14 12 -19 39 -20 39
-1 0 4 -8 5 -17 2 -16 -6 -16 -5 -4 10 7 9 11 17 8 17 -3 0 -9 -5 -12 -10z"/>
<path d="M4660 8380 c-12 -7 -10 -9 7 -7 12 0 19 5 17 9 -6 10 -6 10 -24 -2z"/>
<path d="M7550 8380 c0 -5 5 -10 11 -10 5 0 7 5 4 10 -3 6 -8 10 -11 10 -2 0
-4 -4 -4 -10z"/>
<path d="M266 8358 c3 -5 10 -6 15 -3 13 9 11 12 -6 12 -8 0 -12 -4 -9 -9z"/>
<path d="M3589 8343 c-13 -16 -12 -17 4 -4 16 13 21 21 13 21 -2 0 -10 -8 -17
-17z"/>
<path d="M3470 8246 c0 -2 7 -7 16 -10 8 -3 12 -2 9 4 -6 10 -25 14 -25 6z"/>
<path d="M3510 8226 c0 -2 7 -7 16 -10 8 -3 12 -2 9 4 -6 10 -25 14 -25 6z"/>
<path d="M3883 8198 c1 -10 2 -18 4 -18 1 0 7 8 12 18 7 14 6 19 -4 19 -7 0
-13 -9 -12 -19z"/>
<path d="M4032 8211 c-11 -7 -11 -9 0 -14 9 -3 15 1 15 9 0 8 -1 14 -1 14 -1
0 -7 -4 -14 -9z"/>
<path d="M3855 8161 c-3 -5 -2 -12 3 -15 5 -3 9 1 9 9 0 17 -3 19 -12 6z"/>
<path d="M6960 8120 c-13 -8 -12 -10 3 -10 9 0 17 5 17 10 0 12 -1 12 -20 0z"/>
<path d="M4690 6780 c-9 -6 -10 -10 -3 -10 6 0 15 5 18 10 8 12 4 12 -15 0z"/>
<path d="M4757 6773 c3 -7 6 -13 8 -13 2 0 5 6 8 13 3 8 -1 14 -8 14 -7 0 -11
-6 -8 -14z"/>
<path d="M4703 6761 c-21 -10 -31 -21 -27 -31 3 -8 2 -11 -2 -8 -7 8 -34 -14
-28 -24 2 -4 0 -10 -6 -13 -6 -4 -10 -3 -9 2 3 20 -2 27 -11 13 -8 -12 -10
-12 -10 -1 0 11 -3 11 -15 1 -9 -7 -18 -10 -22 -6 -3 3 -1 6 6 6 7 0 10 4 6 9
-3 6 4 8 15 6 11 -2 20 1 20 6 0 6 -6 9 -12 6 -7 -2 -26 2 -41 10 -16 8 -31
12 -34 10 -2 -3 5 -8 16 -12 12 -3 21 -11 21 -16 0 -6 -4 -8 -9 -5 -5 4 -11 1
-13 -6 -2 -6 -12 -12 -21 -14 -9 -1 -15 2 -11 7 3 5 10 7 15 4 5 -4 9 1 9 9 0
21 -22 16 -38 -9 -13 -20 -13 -20 -7 1 4 15 0 24 -11 28 -9 4 -19 4 -22 1 -3
-3 -1 -5 5 -5 5 0 10 -6 10 -13 0 -8 -9 -12 -21 -11 -12 1 -25 3 -29 3 -5 1
-6 5 -3 10 3 5 -1 11 -9 14 -10 4 -12 1 -8 -11 5 -14 3 -15 -8 -4 -18 17 -32
15 -25 -4 5 -12 2 -15 -12 -12 -15 4 -18 0 -16 -18 1 -13 -3 -27 -8 -31 -7 -3
-8 -1 -4 5 5 8 -1 12 -16 13 -23 1 -23 1 2 9 24 8 23 8 -8 9 -22 1 -31 -3 -26
-10 4 -7 1 -10 -7 -7 -8 3 -14 10 -14 16 0 5 -3 14 -7 18 -4 3 -5 -3 -3 -16 3
-18 1 -21 -15 -17 -11 3 -18 2 -15 -3 3 -4 -2 -11 -11 -14 -8 -3 -12 -2 -9 4
3 6 1 10 -4 10 -6 0 -11 -9 -11 -19 0 -11 -4 -22 -9 -25 -4 -3 -7 5 -6 17 2
19 -2 22 -32 23 -22 1 -30 -2 -22 -7 7 -4 17 -5 23 -2 5 3 6 1 2 -5 -5 -8 -1
-10 11 -5 10 3 15 3 11 -1 -3 -4 -12 -8 -20 -10 -7 -1 -20 -6 -28 -11 -13 -8
-13 -7 -1 8 12 15 11 17 -3 17 -9 0 -16 -4 -16 -9 0 -13 -28 -22 -35 -10 -4 5
-1 8 5 7 7 -2 14 5 15 15 3 17 2 17 -14 3 -23 -21 -37 -20 -51 2 -11 16 -11
16 -6 -2 5 -13 2 -17 -9 -12 -8 3 -15 2 -15 -3 0 -15 13 -21 25 -11 8 6 18 5
31 -6 18 -14 18 -15 -3 -5 -12 6 -24 7 -27 3 -9 -14 -59 -7 -64 8 -3 12 -2 12
6 2 8 -11 10 -11 15 1 4 10 0 14 -11 13 -9 -2 -18 -8 -20 -14 -2 -7 -11 -12
-20 -12 -15 0 -15 2 -2 10 12 8 9 10 -10 8 -16 -2 -24 2 -22 10 1 8 -2 11 -8
7 -8 -5 -8 -11 0 -20 9 -11 2 -13 -34 -12 -25 0 -49 -3 -53 -8 -5 -4 -3 -5 4
-1 6 3 15 1 19 -6 4 -7 4 -10 -1 -6 -4 4 -15 2 -23 -5 -9 -6 -13 -7 -10 -2 4
6 0 19 -8 30 -8 10 -14 13 -14 6 0 -7 -5 -9 -12 -5 -7 4 -8 3 -4 -4 4 -7 2
-12 -3 -12 -6 0 -10 -5 -8 -11 1 -6 -5 -14 -13 -16 -9 -3 -11 -1 -5 4 18 15
15 31 -5 26 -11 -3 -17 -9 -14 -14 3 -5 -3 -6 -12 -2 -13 5 -15 3 -9 -7 6 -9
4 -11 -5 -5 -10 6 -7 13 11 27 14 10 17 17 9 16 -21 -4 -43 -36 -34 -51 5 -8
2 -8 -9 2 -9 7 -17 10 -17 6 0 -5 -9 0 -20 10 -11 10 -23 15 -27 12 -3 -4 -1
-7 5 -7 7 0 12 -5 12 -11 0 -8 -7 -7 -22 2 -32 19 -61 17 -64 -4 -2 -13 1 -15
10 -8 14 12 39 9 58 -7 8 -6 19 -8 23 -4 5 4 5 1 1 -6 -7 -11 -11 -10 -25 2
-10 9 -20 13 -23 10 -13 -12 -44 -11 -59 2 -13 12 -16 12 -16 -1 0 -8 5 -11
10 -8 6 3 7 1 3 -5 -9 -16 -36 -3 -29 14 3 8 1 14 -5 14 -12 0 -11 -18 2 -38
7 -11 4 -12 -13 -3 -15 8 -21 9 -21 1 0 -6 -5 -8 -10 -5 -6 4 -8 10 -6 14 3 4
-1 8 -9 8 -10 0 -12 -4 -5 -12 18 -22 -2 -24 -22 -2 -11 12 -17 16 -13 10 3
-7 2 -13 -2 -13 -5 0 -15 6 -23 13 -12 10 -12 9 -1 -5 15 -21 2 -24 -19 -5 -8
6 -6 2 4 -11 11 -12 16 -25 13 -29 -4 -3 -7 -1 -7 5 0 9 -26 18 -77 28 -7 1
-9 -4 -6 -14 4 -10 2 -13 -5 -8 -7 4 -12 2 -12 -4 0 -7 -7 -10 -15 -7 -8 4
-17 1 -21 -5 -5 -7 -2 -8 6 -3 9 5 11 4 6 -4 -4 -6 -11 -9 -16 -6 -4 3 -11 -1
-13 -7 -4 -9 -6 -8 -6 3 -1 8 4 20 11 27 18 18 1 14 -22 -5 -11 -10 -20 -23
-20 -30 0 -9 -7 -10 -25 -3 -20 8 -27 6 -31 -5 -4 -8 -10 -12 -15 -9 -5 3 -9
0 -9 -5 0 -6 -4 -11 -10 -11 -5 0 -7 8 -4 18 5 16 5 16 -6 -1 -6 -9 -9 -21 -6
-26 3 -5 -1 -12 -10 -15 -8 -3 -12 -11 -8 -17 4 -8 3 -9 -5 -5 -6 4 -8 12 -5
18 6 10 -9 9 -61 -5 -20 -5 -35 -18 -35 -30 0 -7 8 -3 17 8 14 18 15 18 9 1
-5 -14 -2 -17 9 -12 9 3 13 2 10 -4 -7 -11 -33 -9 -54 4 -10 6 -12 5 -7 -2 10
-16 -6 -15 -24 1 -12 10 -12 9 -1 -5 14 -19 7 -38 -14 -38 -22 0 -35 -32 -22
-55 9 -17 8 -18 -5 -8 -12 10 -15 10 -15 -2 0 -8 7 -17 15 -20 8 -3 12 -12 8
-20 -3 -8 -1 -17 4 -20 4 -3 10 1 13 7 3 7 4 -4 2 -24 -1 -25 4 -44 16 -57 19
-21 25 -36 11 -27 -4 2 -13 -3 -19 -13 -9 -14 -7 -17 11 -19 17 -1 18 1 6 9
-13 9 -13 10 0 6 10 -2 14 -14 12 -38 l-2 -34 15 30 c11 23 13 24 9 6 -4 -16
-3 -21 5 -17 6 4 11 2 11 -3 0 -6 -6 -11 -12 -11 -9 0 -8 -3 2 -10 10 -6 22
-3 40 13 17 15 20 16 10 3 -19 -24 -21 -43 -5 -43 7 0 11 6 8 14 -4 9 0 11 11
7 9 -3 13 -10 10 -15 -3 -5 1 -9 8 -9 10 0 9 -3 -2 -11 -13 -9 -12 -10 3 -5
11 3 27 -2 39 -13 11 -11 27 -17 36 -14 9 4 13 2 9 -4 -4 -6 1 -10 11 -9 9 0
16 -5 14 -12 -1 -8 2 -11 8 -7 6 3 8 11 5 16 -3 5 1 6 9 3 9 -3 16 -12 16 -18
0 -8 11 -11 31 -8 21 3 30 1 25 -6 -4 -6 -14 -8 -23 -5 -15 6 -16 5 -3 -9 12
-13 17 -13 28 -1 15 15 26 17 17 4 -3 -6 11 -9 34 -7 22 2 38 -1 35 -6 -3 -4
-10 -6 -15 -3 -15 10 -10 -2 8 -16 9 -8 14 -9 10 -3 -4 8 2 11 18 10 20 -1 24
-5 19 -21 -4 -18 -4 -18 6 -3 6 10 17 15 27 11 12 -5 14 -3 8 8 -5 9 -1 7 10
-3 17 -16 19 -16 32 0 13 15 13 15 4 -4 -6 -12 -7 -25 -3 -30 4 -5 0 -3 -9 4
-9 6 -20 8 -24 4 -5 -4 -5 0 0 8 5 8 4 12 0 7 -5 -4 -10 -13 -11 -21 -2 -14
32 -16 53 -3 6 4 19 4 29 0 13 -5 15 -3 9 8 -7 11 -6 12 6 2 12 -10 18 -10 28
0 10 9 12 9 9 -3 -2 -8 3 -14 10 -12 8 1 11 -2 8 -7 -4 -5 -2 -12 4 -16 6 -4
7 -11 4 -17 -5 -7 -2 -8 5 -3 7 4 11 18 9 30 -3 16 -1 22 8 18 7 -3 11 -15 8
-31 -2 -15 -1 -22 3 -16 13 17 42 24 49 12 5 -7 2 -8 -7 -4 -8 4 -6 1 3 -7 10
-8 14 -18 10 -22 -4 -5 -1 -5 6 -1 7 4 9 12 6 18 -4 6 -1 9 7 6 8 -3 13 -14
11 -24 -2 -18 -2 -18 8 -1 13 20 5 37 -16 37 -17 0 -18 16 -1 26 6 4 9 4 5 -1
-4 -4 4 -17 18 -27 20 -16 22 -23 13 -34 -8 -10 -8 -14 0 -14 6 0 11 4 11 8 0
4 17 7 38 6 20 -1 44 4 52 10 13 10 13 9 1 -6 -7 -10 -18 -15 -24 -11 -6 3 -7
1 -3 -6 4 -6 11 -9 16 -6 5 3 11 1 14 -3 3 -5 17 -7 32 -4 16 3 29 -1 35 -9 7
-12 9 -11 9 1 0 12 2 12 9 1 6 -9 11 -10 15 -2 4 6 2 12 -3 12 -6 1 -15 2 -21
3 -5 0 -10 4 -10 9 0 28 2 30 11 14 6 -9 14 -15 19 -12 4 3 11 -2 14 -11 3 -8
11 -12 17 -8 8 4 9 3 5 -4 -4 -7 -2 -12 3 -12 6 0 11 7 11 15 0 8 4 15 10 15
5 0 7 -7 4 -15 -4 -10 0 -15 11 -15 9 0 14 4 11 8 -3 5 5 8 17 7 12 -1 29 3
37 9 13 10 13 9 1 -6 -9 -13 -10 -18 -2 -18 7 0 10 -4 7 -9 -8 -13 60 -7 77 7
11 10 17 9 27 -3 14 -17 34 -10 24 8 -4 8 -2 7 7 -1 12 -11 12 -14 -1 -22 -8
-5 -18 -6 -22 -4 -5 3 -7 0 -6 -7 2 -6 -3 -14 -10 -16 -11 -4 -12 -1 -3 15 13
25 3 35 -17 16 -13 -14 -13 -17 0 -30 14 -15 48 -10 48 7 0 5 5 9 11 9 6 0 9
-7 5 -15 -3 -8 0 -14 7 -12 7 1 11 -4 9 -12 -3 -12 -1 -12 15 -1 28 22 29 24
11 17 -9 -3 -19 0 -22 9 -8 20 2 41 19 41 8 0 12 -4 9 -8 -2 -4 2 -10 8 -13 7
-3 3 -3 -9 0 -13 3 -23 1 -23 -4 0 -5 6 -9 13 -10 52 -7 60 -6 64 8 4 13 3 13
-6 0 -6 -8 -11 -10 -11 -4 0 6 8 18 18 27 18 17 32 14 32 -7 0 -6 -4 -5 -9 3
-6 9 -11 10 -15 2 -4 -6 -2 -11 4 -11 6 0 9 -4 5 -9 -3 -5 -1 -13 5 -16 6 -4
9 -1 8 6 -2 6 3 14 11 17 9 3 11 0 6 -9 -5 -8 -4 -10 0 -6 12 10 15 38 4 31
-5 -3 -9 0 -9 6 0 7 7 10 15 7 8 -4 17 -2 20 3 14 23 35 10 31 -20 -2 -16 1
-27 6 -24 5 3 7 13 4 21 -5 11 -1 14 14 10 12 -3 29 4 45 19 14 12 25 20 25
17 0 -4 7 2 16 13 15 18 15 18 5 -2 -7 -15 -7 -25 2 -34 9 -10 9 -11 -1 -5
-11 6 -12 3 -3 -14 7 -11 14 -21 17 -21 3 0 2 5 -1 10 -4 6 -1 17 5 25 9 11 9
15 1 15 -6 0 -11 4 -11 9 0 11 30 7 59 -8 24 -13 39 3 21 24 -8 10 -8 15 1 21
7 4 9 3 5 -4 -8 -13 14 -28 23 -15 7 10 26 11 37 1 14 -14 27 -8 15 6 -10 12
-8 17 9 26 12 6 24 9 28 6 3 -3 0 -6 -7 -6 -7 0 -9 -4 -6 -10 4 -6 -1 -7 -12
-3 -15 6 -16 4 -6 -8 8 -9 9 -20 3 -29 -15 -24 -11 -36 5 -14 13 17 14 17 15
2 0 -10 4 -18 10 -18 12 0 9 22 -4 31 -5 4 -2 17 6 28 13 18 17 19 21 7 4 -10
13 -13 24 -9 16 6 16 5 4 -10 -13 -16 -14 -16 -26 -1 -6 10 -15 13 -18 8 -3
-6 3 -15 13 -22 14 -9 21 -8 30 3 7 8 15 13 19 11 3 -2 7 7 7 20 2 21 0 23
-14 12 -11 -9 -10 -4 3 14 11 14 21 22 23 18 2 -5 10 -6 19 -3 10 4 14 2 9 -5
-3 -6 -2 -13 2 -16 12 -7 9 41 -2 51 -5 4 -6 3 -3 -4 5 -8 0 -9 -15 -5 -21 6
-21 7 -4 10 14 3 15 6 6 12 -8 5 -9 9 -1 14 6 4 11 2 11 -4 0 -6 5 -8 12 -4 6
4 8 3 5 -3 -4 -6 -1 -13 7 -16 15 -6 16 9 2 32 -6 9 -5 12 1 8 6 -4 13 0 17 8
3 8 12 12 21 9 17 -7 21 -34 4 -34 -5 0 -8 4 -4 9 3 5 1 12 -4 15 -5 3 -11 0
-14 -8 -7 -18 8 -23 61 -21 36 2 45 -1 52 -19 7 -17 9 -18 9 -3 1 23 -2 33
-11 30 -4 -2 -5 4 -2 11 3 8 12 12 20 9 8 -3 11 -9 8 -14 -8 -14 40 -11 55 4
10 10 11 9 6 -5 -4 -9 -13 -19 -21 -22 -8 -3 -14 -11 -14 -17 0 -8 5 -7 17 2
10 8 14 9 10 2 -4 -6 -2 -15 4 -19 7 -4 9 -3 6 3 -4 6 0 16 8 23 8 7 13 16 10
20 -3 5 -2 11 3 14 4 2 8 -6 8 -19 0 -13 -4 -21 -8 -19 -4 3 -8 0 -8 -6 0 -7
7 -9 16 -6 9 3 21 6 27 6 7 0 6 4 -3 10 -13 8 -12 10 4 10 12 0 16 -5 12 -15
-3 -8 -1 -15 5 -15 6 0 7 -5 3 -12 -5 -7 -3 -8 5 -4 7 5 10 15 6 24 -3 9 -3
13 1 10 4 -4 16 -3 28 3 18 9 19 8 6 -3 -8 -7 -16 -20 -18 -28 -3 -12 -1 -13
9 -2 15 14 39 16 39 3 0 -5 -8 -11 -17 -13 -13 -3 -10 -6 9 -10 15 -3 25 -1
22 3 -3 5 -1 9 5 9 5 0 18 3 28 6 16 5 17 5 1 -6 -10 -6 -15 -17 -11 -26 5
-15 7 -15 15 0 5 9 13 16 18 16 16 0 11 -22 -7 -37 -14 -10 -14 -13 -3 -11 8
2 21 9 28 16 29 27 48 -2 29 -43 -10 -18 -9 -19 8 -5 17 14 17 14 7 -7 -7 -12
-12 -28 -12 -35 1 -7 8 -1 16 15 8 15 20 27 27 26 9 0 9 -2 0 -6 -7 -2 -13 -9
-13 -15 0 -6 7 -7 16 -4 14 5 15 4 4 -9 -10 -12 -10 -15 0 -15 8 0 10 -3 6 -7
-4 -5 -14 1 -22 11 -14 20 -14 20 -14 0 0 -11 -6 -26 -12 -33 -11 -10 -10 -12
2 -9 8 2 15 -3 16 -9 1 -7 2 -17 3 -23 0 -5 6 -10 12 -10 5 0 7 5 4 10 -3 6 0
10 7 10 9 0 9 3 -2 10 -11 7 -11 10 -2 10 7 0 10 5 6 12 -4 7 -3 8 5 4 6 -4 9
-12 6 -17 -4 -5 -1 -9 4 -9 6 0 11 -5 11 -11 0 -5 -4 -7 -10 -4 -5 3 -10 1
-10 -4 0 -6 5 -11 11 -11 5 0 8 -4 5 -8 -2 -4 4 -9 15 -9 17 -2 18 1 8 13 -6
8 -9 17 -5 21 3 3 6 1 6 -6 0 -7 4 -10 9 -6 5 3 12 1 16 -5 4 -6 11 -7 17 -4
6 4 8 2 4 -4 -3 -6 -2 -13 4 -17 5 -3 10 -1 10 6 0 7 2 10 5 7 3 -3 2 -13 -1
-22 -5 -12 -9 -14 -14 -6 -5 8 -9 8 -13 -3 -4 -10 3 -14 26 -13 21 1 31 6 29
14 -1 8 2 11 8 7 7 -4 7 -12 0 -25 -7 -13 -7 -21 2 -26 6 -4 8 -3 4 4 -3 6 -2
14 4 17 6 4 10 3 9 -2 -4 -25 3 -35 21 -30 12 3 18 1 14 -5 -3 -5 -17 -7 -31
-3 -21 5 -23 4 -11 -9 7 -7 21 -12 31 -10 10 1 15 -1 12 -6 -3 -5 0 -10 7 -13
7 -2 5 -3 -4 -2 -10 2 -21 -2 -25 -7 -4 -7 -1 -8 7 -3 10 6 12 4 7 -8 -3 -10
-2 -17 3 -17 6 0 10 -7 10 -15 0 -8 4 -15 8 -15 5 0 9 7 9 15 0 8 -4 15 -9 15
-19 0 -6 16 14 17 13 1 18 -1 13 -5 -6 -4 -11 -15 -12 -24 -1 -36 -3 -39 -15
-32 -9 5 -8 2 1 -9 14 -18 9 -32 -12 -32 -7 0 -12 -5 -12 -12 0 -6 -3 -15 -7
-19 -5 -4 -8 -12 -8 -18 0 -6 5 -4 10 4 15 23 12 6 -5 -31 -13 -26 -15 -28
-11 -9 2 14 0 34 -5 45 -9 18 -9 18 -5 -3 3 -15 0 -22 -7 -19 -7 3 -11 11 -9
18 3 11 1 12 -10 1 -11 -11 -10 -14 1 -22 13 -8 20 -26 23 -57 2 -16 11 -16
25 -2 8 8 13 7 18 -3 5 -7 5 -10 0 -6 -4 4 -14 3 -21 -3 -15 -12 -37 -3 -29
12 4 5 2 9 -4 9 -20 0 -21 -20 -1 -32 11 -7 20 -19 20 -27 0 -7 -10 -1 -22 15
-13 16 -22 32 -21 36 2 5 -2 8 -7 8 -6 0 -10 -5 -10 -11 0 -8 -5 -8 -15 1 -10
9 -15 9 -15 1 0 -6 5 -11 11 -11 5 0 7 -6 3 -12 -5 -9 -2 -9 9 1 14 11 17 11
19 0 0 -8 2 -18 3 -24 2 -5 3 -14 4 -20 1 -5 6 -3 12 5 9 12 10 12 5 -4 -4
-13 -2 -17 7 -13 8 3 14 -1 14 -8 0 -11 -5 -12 -21 -2 -12 6 -24 10 -28 9 -5
-1 -8 2 -8 8 0 5 -5 10 -11 10 -5 0 -8 -4 -5 -9 4 -5 3 -11 -1 -14 -5 -2 -2
-2 5 -1 6 2 12 -1 12 -7 0 -6 5 -7 12 -3 7 5 8 3 3 -5 -4 -7 -17 -11 -30 -9
-12 3 -22 0 -22 -6 0 -12 42 -14 54 -3 3 4 11 7 17 7 6 0 3 -5 -6 -10 -10 -6
-15 -19 -13 -30 2 -11 0 -20 -6 -20 -5 0 -9 4 -9 9 0 5 -9 11 -19 14 -14 3
-18 1 -14 -9 3 -8 10 -11 17 -7 6 3 8 3 4 -2 -4 -4 3 -16 15 -26 12 -10 16
-18 10 -19 -7 0 -13 5 -13 10 0 6 -5 10 -11 10 -5 0 -7 -5 -3 -12 4 -7 3 -8
-5 -4 -6 4 -9 12 -6 17 4 5 2 9 -3 9 -6 0 -12 -7 -16 -15 -3 -8 0 -14 6 -12
15 3 17 -24 4 -42 -8 -11 -8 -13 2 -7 7 4 19 3 26 -3 7 -6 20 -10 27 -8 8 2
11 2 7 0 -5 -3 -8 -9 -8 -14 0 -6 4 -8 9 -5 12 8 17 -11 16 -56 0 -20 2 -35 5
-33 9 5 29 -22 22 -30 -11 -10 -10 -65 0 -65 6 0 8 6 5 14 -3 8 0 26 6 40 13
28 30 36 20 9 -5 -12 -3 -14 8 -8 8 4 11 5 7 0 -4 -4 -3 -16 3 -26 8 -15 6
-17 -6 -12 -11 4 -18 -1 -22 -16 -3 -11 -10 -18 -15 -15 -6 4 -5 -3 1 -15 7
-11 14 -21 17 -21 3 0 3 4 -1 9 -3 5 -1 12 5 16 6 4 8 10 6 14 -3 4 1 8 9 8 9
0 11 -4 6 -11 -5 -6 -7 -19 -5 -29 1 -11 0 -16 -3 -13 -11 11 -53 -52 -46 -70
5 -13 3 -15 -7 -9 -8 5 -11 4 -6 -3 3 -5 1 -12 -6 -14 -7 -3 -5 -7 6 -11 10
-4 15 -3 11 3 -3 6 -2 10 4 10 5 0 9 -9 8 -19 -1 -14 -5 -17 -13 -10 -8 7 -14
6 -19 -1 -3 -6 -10 -8 -15 -5 -9 5 -4 -41 6 -57 3 -4 -2 -5 -10 -2 -9 3 -14
10 -11 14 3 5 0 12 -7 16 -7 4 -10 4 -6 -1 4 -4 3 -14 -3 -21 -6 -8 -7 -14 0
-18 6 -4 8 -13 5 -21 -4 -8 -11 -12 -16 -9 -6 4 -5 10 3 15 11 7 10 9 -5 9
-11 0 -16 -5 -13 -14 7 -19 -22 -59 -39 -52 -7 3 -16 1 -20 -5 -4 -6 -11 -5
-21 3 -15 12 -15 11 -3 -9 8 -12 20 -19 29 -16 14 4 14 3 1 -5 -10 -8 -19 -7
-29 1 -12 10 -13 9 -2 -11 10 -18 9 -25 -3 -37 -12 -13 -15 -12 -20 2 -5 12
-9 14 -18 5 -14 -14 -20 -44 -7 -36 5 3 6 11 2 17 -4 7 0 6 10 -2 18 -14 23
-26 7 -16 -5 3 -16 -7 -25 -22 -9 -15 -14 -20 -11 -11 3 10 1 20 -4 23 -6 4
-11 -1 -11 -9 -2 -17 -5 -33 -9 -41 -1 -3 -3 -9 -4 -15 0 -5 -8 -15 -16 -22
-12 -11 -12 -11 0 6 14 18 13 19 -3 13 -10 -4 -23 -7 -28 -7 -5 0 -9 -5 -9
-11 0 -5 6 -7 13 -3 6 4 4 -2 -6 -12 -14 -15 -19 -16 -26 -5 -6 9 -11 10 -15
2 -4 -6 -2 -11 3 -11 6 0 11 -5 11 -11 0 -7 -9 -9 -21 -6 -17 4 -19 3 -10 -6
12 -12 15 -31 3 -23 -4 2 -15 -2 -25 -9 -18 -13 -17 -14 2 -20 12 -3 21 -14
21 -23 0 -15 -2 -15 -10 -2 -8 13 -11 12 -24 -5 -9 -11 -16 -15 -16 -9 0 5 5
15 12 22 7 7 9 12 5 12 -4 0 -15 -8 -24 -17 -17 -17 -17 -19 -1 -35 9 -9 20
-13 24 -10 4 4 4 1 0 -6 -4 -7 -12 -10 -17 -7 -5 4 -18 8 -29 10 -17 3 -19 1
-10 -16 6 -10 8 -19 5 -19 -3 0 0 -10 6 -22 6 -13 8 -20 4 -16 -5 4 -15 2 -24
-5 -14 -11 -14 -10 -2 6 10 12 11 21 4 25 -5 4 -13 14 -17 22 -3 8 -4 3 -1
-12 3 -15 0 -30 -7 -34 -6 -4 -9 -3 -5 2 3 5 -6 15 -20 21 -25 12 -25 12 -8
-7 14 -16 15 -20 4 -20 -10 -1 -8 -6 6 -16 20 -16 19 -16 -4 -9 -18 6 -22 4
-16 -6 5 -8 5 -11 0 -7 -4 4 -16 3 -26 -3 -15 -8 -17 -14 -8 -37 8 -20 7 -24
-1 -16 -6 6 -12 21 -13 33 -1 11 -5 21 -10 21 -4 0 -5 5 -1 12 4 6 3 8 -3 5
-6 -4 -8 -18 -5 -33 4 -24 3 -25 -17 -14 -20 10 -21 10 -9 -9 6 -11 16 -17 22
-14 5 4 6 1 2 -6 -6 -9 -12 -8 -26 4 -14 12 -20 13 -26 4 -4 -7 -3 -10 3 -6 5
3 10 0 10 -8 0 -10 -5 -11 -19 -4 -14 8 -18 6 -18 -8 0 -15 -2 -15 -15 3 -15
18 -15 18 -8 0 5 -14 3 -17 -7 -11 -9 6 -11 4 -5 -5 6 -10 4 -12 -8 -7 -10 3
-17 2 -17 -4 0 -6 -4 -7 -10 -4 -5 3 -10 1 -10 -5 0 -7 6 -10 14 -7 8 3 17 0
19 -7 6 -14 -20 -15 -43 -1 -8 4 -12 5 -8 0 11 -12 -30 -38 -45 -29 -9 6 -8 3
1 -8 8 -9 21 -14 30 -11 14 4 14 3 3 -5 -10 -7 -21 -7 -33 -1 -12 7 -18 6 -18
-1 0 -6 -4 -8 -10 -5 -5 3 -10 1 -10 -5 0 -7 8 -9 21 -5 19 6 20 5 8 -8 -8 -9
-26 -13 -44 -10 -20 2 -26 1 -16 -5 10 -7 10 -11 1 -17 -9 -6 -9 -9 0 -15 8
-5 3 -7 -14 -7 -22 2 -24 4 -11 13 14 10 14 13 0 24 -13 11 -14 10 -9 -4 4
-10 1 -16 -10 -17 -37 -3 -41 -5 -40 -21 1 -10 -4 -14 -12 -11 -10 4 -12 0 -8
-13 5 -15 4 -16 -4 -4 -6 8 -8 18 -6 22 3 4 0 8 -5 8 -6 0 -11 -4 -11 -10 0
-5 -7 -10 -15 -10 -8 0 -15 6 -15 12 0 7 -7 2 -16 -10 -9 -13 -22 -21 -29 -18
-7 2 -28 -3 -46 -13 -32 -17 -65 -18 -55 -2 3 4 -1 8 -9 8 -11 0 -12 -4 -4
-14 9 -9 7 -14 -5 -18 -9 -3 -24 -8 -33 -12 -10 -3 -22 -5 -26 -4 -5 1 -6 -3
-2 -9 4 -7 13 -7 27 1 12 7 18 7 14 1 -3 -6 0 -13 6 -15 14 -6 -37 -2 -62 4
-9 3 -14 -2 -11 -11 2 -8 3 -21 2 -27 0 -7 -2 -21 -3 -30 -1 -18 -25 -42 -42
-43 -4 0 2 9 15 20 13 10 20 19 14 20 -5 0 -23 -11 -39 -25 -34 -29 -46 -33
-23 -7 10 10 14 21 11 24 -3 3 3 5 13 4 10 0 17 5 15 13 -2 9 3 11 14 7 14 -5
15 -4 4 9 -12 15 -44 15 -57 0 -5 -4 -3 -5 3 -2 7 4 17 0 24 -9 12 -13 10 -14
-12 -10 -19 3 -25 0 -24 -12 0 -10 -5 -16 -13 -14 -9 2 -11 -3 -7 -13 3 -9 2
-13 -4 -10 -6 3 -10 1 -10 -6 0 -7 -7 -4 -16 7 -15 19 -15 18 -9 -3 5 -19 3
-21 -21 -17 -37 7 -46 13 -38 27 3 7 -3 2 -13 -11 -15 -18 -21 -20 -31 -10 -9
9 -12 9 -12 0 0 -7 5 -12 10 -12 6 0 10 -6 10 -13 0 -7 9 -18 20 -25 23 -14
27 0 5 18 -24 20 -2 35 26 19 13 -7 28 -12 33 -11 11 4 36 -18 36 -32 0 -6 -5
-3 -11 7 -6 9 -14 15 -20 12 -5 -4 -19 1 -31 9 -37 26 -45 18 -13 -12 17 -15
26 -24 20 -20 -6 4 -16 3 -22 -3 -8 -8 -13 -8 -17 0 -4 6 -12 11 -18 11 -7 0
-6 -6 2 -15 9 -10 9 -15 1 -15 -6 0 -11 5 -11 10 0 6 -5 10 -11 10 -5 0 -7 -5
-3 -12 5 -7 3 -8 -6 -3 -10 6 -12 4 -7 -8 3 -10 2 -17 -3 -17 -13 0 -13 27 -1
34 5 4 8 17 6 31 -3 28 -15 47 -15 24 0 -11 -2 -11 -10 1 -6 9 -10 10 -10 3 0
-6 5 -15 10 -18 13 -8 13 -35 0 -35 -5 0 -9 5 -7 11 1 6 -8 12 -20 14 -19 1
-20 -1 -11 -18 9 -17 8 -19 -7 -14 -9 4 -19 7 -21 7 -3 0 -2 5 2 12 4 7 3 8
-5 4 -6 -4 -9 -11 -6 -16 3 -5 1 -11 -5 -15 -5 -3 -10 -1 -10 4 0 6 -5 11 -11
11 -8 0 -8 -4 1 -14 6 -8 19 -12 28 -9 15 6 15 5 3 -10 -11 -14 -11 -18 3 -23
9 -3 16 -10 16 -16 0 -5 -5 -6 -12 -2 -8 5 -9 2 -5 -10 4 -11 3 -15 -4 -11 -6
4 -8 13 -5 21 3 8 -1 14 -10 14 -8 0 -13 4 -10 9 3 5 -2 15 -12 22 -15 13 -16
12 -4 -2 11 -14 9 -20 -13 -37 -17 -14 -21 -22 -13 -25 10 -4 8 -10 -5 -20
-11 -9 -14 -18 -8 -21 5 -4 12 -2 16 4 3 5 11 10 18 10 6 0 2 -6 -8 -14 -11
-8 -23 -12 -27 -10 -5 3 -8 -2 -8 -11 0 -10 5 -13 13 -9 8 5 8 2 -2 -9 -7 -9
-16 -17 -19 -17 -3 0 -3 2 0 6 3 3 2 20 -2 39 -4 19 -5 33 -1 31 4 -3 13 -1
20 3 10 6 9 10 -3 14 -8 3 -22 -1 -31 -9 -8 -9 -15 -12 -15 -8 0 4 -8 0 -18
-9 -10 -10 -22 -14 -26 -10 -4 4 -4 0 -1 -9 4 -9 1 -19 -6 -24 -7 -4 -10 -3
-5 4 3 6 2 14 -4 17 -6 4 -10 3 -9 -2 3 -19 -2 -34 -10 -29 -4 3 -17 -1 -27
-8 -15 -11 -22 -12 -34 -3 -13 10 -13 10 -3 -3 7 -9 11 -25 10 -37 -1 -18 -5
-20 -24 -12 -26 10 -29 6 -9 -14 12 -11 11 -15 -3 -24 -14 -9 -18 -8 -18 3 0
7 5 10 10 7 6 -3 7 -1 3 5 -10 17 -36 3 -28 -16 5 -15 3 -15 -10 -4 -14 11
-16 10 -12 -10 5 -20 4 -21 -6 -5 -6 9 -15 15 -21 12 -5 -4 -9 0 -9 7 0 9 -3
9 -10 -2 -5 -8 -10 -11 -10 -5 0 5 -7 -1 -16 -14 -13 -18 -18 -20 -26 -10 -8
11 -9 11 -5 -1 2 -8 10 -14 16 -13 6 2 10 -2 8 -9 -1 -6 8 -17 21 -23 19 -10
20 -14 8 -18 -9 -4 -16 -2 -16 4 0 6 -5 7 -10 4 -6 -4 -9 -1 -8 6 2 6 -3 14
-11 17 -9 3 -11 0 -6 -8 6 -10 4 -11 -6 -4 -18 11 -40 14 -35 6 2 -4 0 -17 -5
-29 -7 -19 -12 -21 -33 -13 -17 6 -27 6 -32 -2 -4 -7 -3 -8 5 -4 6 4 14 0 17
-8 3 -9 11 -13 17 -9 6 3 7 1 3 -6 -6 -9 -11 -9 -21 -1 -9 8 -17 6 -30 -7 -10
-9 -25 -18 -34 -20 -9 -1 -23 -11 -33 -22 -16 -21 -34 -29 -23 -11 4 6 -2 7
-17 1 -16 -6 -23 -16 -22 -34 0 -17 -4 -23 -14 -20 -14 6 -55 -31 -45 -41 4
-3 1 -6 -5 -6 -15 0 -15 17 -1 26 8 5 6 10 -5 16 -10 6 -20 7 -23 4 -4 -3 -1
-6 5 -6 7 0 12 -5 12 -11 0 -5 -4 -7 -10 -4 -13 8 -13 -1 -1 -24 7 -13 6 -18
-4 -18 -8 0 -11 7 -7 16 3 9 2 13 -3 9 -4 -4 -17 -3 -29 3 -18 9 -19 8 -6 -3
17 -14 20 -32 7 -45 -5 -4 -7 -1 -5 7 2 9 -4 15 -17 15 -16 0 -20 -6 -18 -30
1 -18 0 -22 -4 -10 -3 11 -10 25 -15 30 -7 7 -9 5 -6 -5 8 -25 -10 -49 -32
-43 -11 3 -18 9 -15 12 2 4 -2 8 -10 8 -10 0 -12 -4 -5 -12 14 -17 -13 -27
-30 -12 -10 10 -10 7 -1 -10 7 -13 8 -23 2 -23 -5 0 -7 -10 -4 -22 3 -15 -1
-12 -13 10 -11 21 -20 29 -24 22 -4 -7 -11 -11 -15 -11 -14 2 -15 -33 -2 -42
7 -5 2 -7 -15 -4 -23 3 -26 2 -18 -13 10 -20 -10 -46 -25 -32 -5 4 -5 -1 -2
-11 4 -11 3 -16 -3 -12 -6 3 -10 12 -10 20 0 7 -6 16 -12 19 -7 3 -3 3 9 1 12
-3 25 0 29 6 5 9 2 10 -9 6 -12 -4 -17 -1 -17 10 0 14 -2 14 -14 -2 -12 -17
-12 -24 -1 -46 12 -21 12 -26 0 -26 -7 0 -11 6 -8 13 3 9 -2 12 -16 9 -12 -2
-21 1 -21 7 0 5 7 8 14 5 10 -4 13 -1 10 8 -8 20 -44 -3 -37 -24 4 -13 2 -13
-9 1 -13 16 -15 16 -28 -3 -8 -10 -22 -19 -31 -19 -9 0 -29 -10 -45 -22 -34
-27 -27 -26 -50 -8 -15 11 -16 11 -6 0 14 -17 16 -34 2 -25 -6 3 -7 -1 -4 -9
5 -12 0 -16 -17 -16 -19 0 -21 -2 -9 -10 19 -13 8 -13 -27 0 l-28 10 24 -20
c13 -11 18 -20 12 -20 -7 0 -9 -5 -5 -12 4 -7 3 -8 -5 -4 -6 4 -9 12 -6 17 4
5 1 9 -4 9 -21 0 -26 2 -39 12 -7 6 -15 8 -19 4 -3 -3 -1 -6 6 -6 7 0 9 -5 5
-12 -4 -6 -3 -9 2 -6 5 3 15 0 21 -8 11 -11 7 -12 -20 -9 -17 1 -41 6 -52 10
l-20 8 20 -16 c11 -9 15 -17 8 -17 -7 0 -10 -7 -7 -17 4 -13 3 -14 -3 -5 -8
10 -15 7 -34 -12 -22 -22 -25 -22 -25 -6 0 10 3 17 6 15 3 -2 16 5 29 15 l24
18 -29 -1 c-16 0 -23 -2 -16 -4 6 -3 9 -9 6 -14 -3 -6 -12 -5 -22 3 -9 7 -13
8 -9 2 4 -7 0 -17 -8 -24 -14 -11 -19 -7 -16 12 0 4 -6 5 -14 1 -13 -5 -13 -7
2 -18 14 -10 21 -11 33 -2 12 10 13 10 3 -3 -6 -8 -11 -19 -11 -23 0 -5 -3
-12 -7 -15 -4 -4 -5 0 -3 8 2 11 -4 14 -22 11 -14 -1 -27 -6 -30 -10 -3 -3
-11 -7 -19 -9 -9 -2 -11 3 -7 15 6 17 5 17 -7 1 -8 -10 -18 -14 -23 -10 -4 4
-2 -1 5 -10 12 -16 11 -18 -3 -18 -10 0 -14 -5 -11 -10 10 -16 -2 -12 -21 8
-17 16 -18 16 -11 0 5 -14 0 -19 -21 -24 -15 -4 -32 -11 -39 -16 -7 -5 -17 -7
-23 -3 -8 5 -7 0 1 -12 9 -15 9 -24 0 -39 -11 -18 -12 -18 -6 3 6 21 -6 35
-33 39 -10 2 -10 -1 -2 -11 8 -9 7 -14 -4 -18 -8 -3 -17 -3 -19 1 -2 4 -2 1
-1 -5 2 -7 -9 -19 -24 -27 -25 -14 -25 -15 -4 -13 12 1 22 5 22 10 0 5 7 7 14
4 9 -4 13 -1 10 6 -2 7 6 18 18 26 23 14 23 14 4 -8 -11 -11 -14 -21 -8 -21 7
0 12 -8 12 -17 0 -14 -2 -15 -9 -5 -9 16 -18 15 -45 -3 -10 -8 -23 -12 -30
-11 -6 2 -8 1 -3 -1 13 -8 7 -23 -10 -24 -11 0 -13 -3 -5 -6 6 -2 9 -9 6 -14
-3 -6 -12 -5 -22 3 -15 12 -16 11 -3 -4 7 -10 17 -16 20 -13 4 2 8 -2 8 -10 0
-10 -6 -10 -26 3 -14 10 -22 12 -18 5 4 -7 0 -16 -10 -22 -15 -8 -16 -12 -5
-22 10 -11 8 -15 -10 -25 -21 -11 -21 -11 5 -11 19 -1 25 4 22 18 -2 10 1 21
6 24 5 4 6 12 3 18 -5 9 -4 9 6 0 8 -8 9 -16 2 -29 -7 -13 -6 -24 5 -41 9 -13
12 -23 7 -21 -5 2 -20 -5 -34 -15 -13 -9 -19 -17 -13 -17 7 0 14 4 18 9 7 12
45 10 45 -2 0 -5 -7 -7 -15 -4 -8 4 -17 1 -21 -5 -4 -7 -3 -8 4 -4 7 4 12 1
12 -8 0 -9 -8 -13 -25 -12 -20 3 -23 0 -15 -14 5 -10 7 -20 5 -24 -3 -3 -2 -3
2 0 5 3 8 11 8 17 0 7 10 11 22 11 13 -1 20 3 16 9 -3 6 -1 7 5 3 7 -4 12 -1
12 8 0 23 16 28 31 8 12 -15 12 -15 -1 -5 -12 9 -17 7 -27 -13 -12 -26 -5 -31
17 -12 12 11 12 10 1 -5 -8 -10 -21 -15 -32 -12 -20 7 -33 -10 -34 -41 0 -11
-7 -29 -15 -40 -14 -19 -14 -19 7 0 12 10 28 16 36 13 7 -3 14 1 14 8 0 7 -8
10 -20 7 -13 -3 -18 -1 -13 6 3 6 19 8 33 6 32 -6 43 -14 20 -14 -9 0 -16 -5
-14 -11 1 -6 -7 -13 -17 -15 -10 -1 -26 -9 -34 -18 -13 -13 -13 -17 -1 -32 19
-23 20 -67 2 -60 -8 3 -11 1 -8 -4 3 -6 0 -10 -7 -10 -7 -1 -4 -6 7 -13 11 -7
22 -21 23 -32 3 -16 1 -18 -9 -8 -16 16 -29 17 -29 3 0 -5 6 -9 13 -7 6 1 11
-5 11 -14 -1 -12 7 -16 29 -15 17 0 32 -5 34 -12 3 -8 -1 -10 -14 -5 -19 6
-18 5 8 -15 13 -10 16 -9 16 6 0 9 -4 23 -10 30 -6 8 -6 12 1 12 6 0 15 -8 21
-17 5 -10 12 -17 15 -15 3 1 9 2 14 1 4 0 -2 -4 -13 -9 -19 -8 -19 -9 3 -9 12
-1 22 4 22 10 0 5 5 7 11 3 8 -4 8 -9 0 -17 -6 -6 -11 -16 -11 -21 0 -6 7 -1
15 11 15 21 52 22 39 2 -3 -5 -10 -7 -15 -3 -6 3 -13 -3 -16 -15 -3 -12 -10
-18 -17 -14 -6 3 -7 2 -3 -2 16 -19 35 -13 30 9 -5 21 -5 21 11 1 12 -16 15
-16 10 -3 -4 13 -1 16 15 13 12 -2 21 1 21 7 0 6 3 8 7 5 3 -4 12 -2 18 3 9 7
16 6 25 -5 17 -20 5 -32 -15 -15 -14 12 -19 7 -16 -13 1 -5 -8 -6 -19 -2 -11
3 -20 2 -20 -3 0 -12 32 -12 48 1 8 6 12 6 12 -2 0 -7 4 -10 9 -6 5 3 11 0 14
-7 2 -7 3 -6 2 3 -1 9 2 24 8 34 7 13 6 16 -2 11 -6 -4 -11 -3 -11 2 0 6 7 13
16 16 8 3 12 2 9 -4 -3 -6 -2 -10 4 -10 5 0 12 8 14 17 4 17 5 17 6 0 0 -10 5
-16 11 -12 5 3 7 12 3 20 -3 10 1 15 13 15 12 0 15 -3 8 -8 -6 -4 -10 -14 -9
-23 2 -9 -4 -16 -14 -16 -32 0 -37 -3 -38 -23 -1 -11 2 -18 8 -15 5 4 9 14 9
23 1 15 2 15 15 -2 8 -10 12 -23 8 -29 -3 -5 6 -2 20 7 20 14 26 14 31 4 3 -7
3 -2 -1 12 -5 22 -4 23 11 11 13 -11 20 -11 28 -3 11 11 0 17 -24 13 -5 0 -8
4 -8 9 0 6 -5 10 -11 10 -5 0 -7 -5 -3 -12 4 -7 3 -8 -4 -4 -9 5 -9 13 -2 27
6 10 13 19 16 19 3 0 3 -4 -1 -9 -3 -6 3 -15 14 -21 17 -9 19 -8 15 5 -4 8 -1
15 6 15 6 0 9 -4 6 -9 -3 -5 1 -14 9 -21 12 -10 13 -16 4 -27 -7 -7 -9 -16 -6
-20 4 -3 9 2 13 11 3 9 9 14 13 12 4 -3 7 9 6 25 0 26 -1 27 -12 12 -12 -16
-13 -16 -13 0 0 9 5 17 11 17 5 0 7 5 4 11 -4 6 2 5 14 -3 12 -7 21 -16 21
-21 0 -4 -4 -5 -10 -2 -6 4 -7 -1 -3 -11 4 -12 8 -14 11 -6 3 10 7 10 17 2 9
-8 15 -8 20 0 3 6 11 8 16 4 5 -3 8 0 7 8 -2 8 6 12 22 11 15 -1 18 0 7 3 -14
5 -16 9 -6 20 14 17 33 19 23 2 -4 -7 -3 -8 5 -4 6 4 9 11 6 16 -3 5 3 15 15
22 11 7 20 17 20 21 0 5 -14 -3 -30 -17 -18 -14 -37 -23 -46 -19 -11 4 -15 0
-12 -13 2 -15 -3 -19 -27 -19 -24 1 -30 6 -31 23 -1 12 2 19 7 16 4 -2 5 -12
2 -21 -5 -11 -3 -14 6 -9 7 5 11 17 8 27 -3 11 -1 17 4 13 5 -3 9 -14 9 -25 0
-10 4 -19 10 -19 5 0 7 6 4 14 -3 7 7 21 22 31 14 9 23 12 20 6 -4 -6 -3 -11
1 -11 12 0 45 40 47 56 1 7 6 17 10 21 4 4 7 3 6 -2 -4 -20 0 -35 11 -35 6 0
9 7 5 15 -3 8 -2 14 2 14 21 -3 32 2 26 13 -6 11 -4 11 7 0 14 -13 33 -17 25
-4 -2 4 4 8 15 8 19 0 19 -1 3 -13 -26 -19 -25 -38 1 -38 12 0 22 5 22 11 0 6
-10 9 -21 6 -20 -4 -20 -4 -2 10 10 8 36 14 57 13 21 -1 36 2 34 6 -3 4 -13 6
-23 5 -11 -2 -21 8 -29 27 -17 39 -16 48 2 17 12 -22 20 -17 17 11 -1 3 5 6
13 6 8 0 12 -4 9 -9 -6 -10 10 -11 19 -1 4 3 2 12 -4 20 -9 9 -8 13 0 13 9 0
13 -9 13 -30 0 -3 9 -14 20 -25 l21 -20 -12 22 c-13 26 -14 36 -2 29 5 -3 15
2 22 11 10 12 10 14 2 9 -8 -4 -13 -2 -13 5 0 8 -5 7 -17 -2 -16 -13 -17 -12
-4 3 10 13 18 15 31 8 26 -14 30 -13 24 8 -5 14 -4 14 4 2 7 -8 7 -19 2 -25
-6 -7 -2 -11 9 -11 11 0 17 6 14 12 -3 8 4 11 21 10 14 -2 23 0 21 4 -7 11 42
33 57 25 7 -4 2 3 -12 15 -23 20 -23 20 -2 10 21 -10 62 0 62 16 0 3 -4 2 -10
-1 -6 -3 -7 1 -4 9 3 9 10 16 16 16 5 0 7 3 5 8 -3 4 6 8 20 9 19 1 22 -1 12
-8 -11 -7 -11 -9 -1 -9 7 0 10 -5 6 -12 -4 -6 -3 -8 3 -5 6 4 10 20 9 36 -1
22 2 27 13 23 9 -3 12 -1 7 6 -3 6 -1 14 6 18 7 4 10 4 6 -1 -4 -4 -2 -15 5
-23 10 -13 9 -14 -2 -7 -10 5 -12 4 -7 -3 12 -20 29 -13 23 8 -4 15 0 20 16
20 22 1 22 1 3 15 -11 8 -15 15 -9 15 7 0 18 -7 26 -15 12 -11 17 -12 20 -2 3
7 6 5 6 -5 1 -9 6 -20 12 -24 7 -4 9 0 5 14 -6 17 -3 20 14 17 13 -3 18 0 14
7 -5 7 -2 9 8 6 11 -5 14 0 10 19 -3 18 -1 24 7 19 6 -4 9 -11 6 -16 -3 -5 -1
-11 4 -14 5 -4 8 4 7 17 -2 17 3 23 18 25 15 1 17 -1 8 -7 -11 -7 -11 -9 2
-14 9 -4 15 -3 15 1 -4 22 2 42 11 37 5 -3 7 -13 4 -23 -5 -15 -5 -15 6 1 6 9
9 21 5 26 -3 5 -1 12 5 16 5 3 10 1 10 -4 0 -6 8 -11 18 -11 15 -1 15 -2 -2
-15 -11 -8 -15 -15 -9 -15 7 0 15 5 18 10 4 6 11 8 16 5 5 -4 9 -1 9 4 0 6 -5
11 -11 11 -5 0 -7 5 -4 10 4 7 13 7 26 0 10 -6 19 -9 20 -8 6 25 5 39 -3 45
-7 4 -8 1 -3 -7 6 -9 4 -11 -5 -5 -9 5 -11 4 -6 -3 4 -7 3 -12 -1 -12 -5 0
-14 9 -21 20 -7 12 -8 20 -2 20 5 0 10 -6 10 -12 1 -7 10 -2 22 12 14 16 19
19 15 8 -7 -21 -3 -22 24 -7 12 6 18 17 15 25 -3 9 -2 12 5 9 6 -4 8 -13 5
-21 -3 -8 -1 -14 4 -14 6 0 10 7 10 16 0 14 3 14 15 4 18 -15 24 -11 30 19 2
12 0 19 -6 16 -5 -4 -7 -10 -4 -15 3 -5 2 -11 -3 -14 -4 -2 -9 4 -9 15 -2 16
9 25 20 17 1 -1 13 4 26 11 19 11 22 11 18 -1 -2 -7 -10 -12 -16 -11 -19 5
-12 -11 12 -26 20 -13 21 -13 9 2 -9 10 -10 17 -2 22 5 3 10 1 10 -6 0 -7 3
-9 7 -6 3 4 11 2 18 -3 8 -7 12 -5 12 5 0 8 -4 12 -9 9 -4 -3 -8 -1 -8 5 0 13
15 22 24 14 10 -11 37 -12 30 -2 -3 5 -9 7 -14 4 -5 -3 -11 -1 -15 5 -3 5 1
10 9 10 9 0 16 5 16 10 0 7 -8 6 -22 -2 -13 -7 -27 -11 -31 -10 -5 1 -6 -2 -3
-7 4 -5 2 -12 -4 -16 -5 -3 -10 1 -10 10 0 9 13 21 30 26 18 7 27 15 23 22 -7
13 38 -22 49 -37 3 -5 5 8 3 29 -3 26 -1 35 7 27 6 -6 17 -8 24 -5 8 3 21 0
29 -7 8 -7 15 -11 16 -9 6 31 6 38 -1 34 -4 -3 -6 4 -3 15 3 11 10 20 15 20 5
0 7 -4 4 -9 -4 -5 -3 -17 0 -26 5 -13 8 -14 15 -3 7 10 9 10 9 1 0 -7 5 -13
11 -13 8 0 8 5 -1 15 -7 8 -17 12 -23 8 -6 -3 -7 -1 -3 5 10 16 33 15 39 0 4
-10 6 -10 6 0 1 7 5 11 10 7 5 -3 12 -1 15 4 4 5 1 13 -5 17 -7 4 -9 3 -5 -4
4 -7 -1 -9 -15 -7 -28 6 -41 18 -14 13 15 -2 19 2 17 17 -2 14 0 16 6 7 10
-15 66 -46 57 -33 -7 13 21 21 34 10 6 -5 9 -6 6 -2 -3 3 4 13 16 21 20 14 20
15 2 35 l-18 20 29 -19 29 -19 -18 28 c-10 15 -15 30 -12 33 3 3 8 -4 12 -15
4 -12 12 -18 21 -14 12 4 12 8 2 22 -11 14 -11 14 4 3 12 -9 18 -10 23 -2 4 6
13 9 21 6 8 -3 14 -1 14 4 0 6 4 10 8 10 5 0 9 -6 9 -14 0 -10 -9 -13 -26 -10
-20 3 -23 2 -11 -6 14 -9 11 -12 -19 -14 -21 -2 -25 -22 -6 -30 11 -4 14 -2 9
6 -5 8 -2 9 10 5 9 -4 15 -3 12 2 -3 5 2 15 11 22 15 12 16 12 10 -6 -7 -20
-7 -20 8 -1 8 11 15 23 15 28 0 12 38 10 45 -2 3 -5 12 -10 18 -10 8 0 8 3 2
8 -15 11 -18 35 -3 26 30 -19 49 0 23 23 -4 4 -5 3 -2 -4 5 -7 0 -9 -15 -5
l-22 5 21 8 c12 4 26 16 32 26 6 10 11 13 11 8 0 -6 -5 -16 -11 -22 -7 -7 -6
-12 6 -17 9 -3 18 0 21 9 7 17 44 21 44 4 0 -5 5 -7 12 -3 8 5 9 1 4 -12 -6
-16 -5 -17 6 -6 11 11 10 16 -5 27 -10 7 -18 16 -18 19 2 18 0 19 -9 6 -6 -9
-10 -10 -10 -3 0 23 18 22 44 -2 15 -14 32 -25 39 -25 8 0 8 3 -2 9 -10 7 -10
10 -1 16 7 4 16 2 21 -6 7 -12 10 -12 21 0 8 9 9 11 1 7 -6 -3 -14 -2 -18 4
-3 5 -1 10 4 10 6 0 11 8 11 18 1 15 2 15 15 -2 8 -11 15 -16 15 -11 0 5 7 0
16 -11 15 -18 15 -18 5 2 -6 12 -7 25 -3 29 4 5 2 5 -5 1 -16 -9 -22 5 -12 29
7 18 8 18 8 2 1 -11 6 -15 13 -11 7 4 8 3 4 -4 -5 -8 2 -12 19 -12 l26 0 -27
23 c-20 17 -23 24 -11 24 9 0 14 -4 11 -8 -6 -10 3 -14 41 -23 19 -4 25 -3 17
2 -8 5 -12 18 -10 28 3 16 6 15 19 -10 13 -23 17 -25 22 -12 4 9 -2 24 -16 37
-24 23 -4 16 26 -9 9 -8 17 -11 17 -6 0 5 5 2 10 -6 7 -11 10 -11 10 -2 0 7 5
10 12 6 7 -5 8 -3 3 6 -6 10 -4 12 9 7 9 -4 15 -3 11 2 -3 6 2 14 10 19 15 8
15 10 -1 23 -16 12 -17 12 -11 -3 4 -11 2 -15 -7 -12 -7 3 -13 11 -13 19 0 8
4 12 9 9 4 -3 8 1 8 8 0 8 3 9 8 3 7 -10 26 -15 77 -18 32 -2 34 5 21 53 -6
24 -6 24 9 -2 9 -16 21 -28 28 -28 8 0 7 3 -2 9 -11 7 -12 13 -3 23 9 11 9 18
-1 28 -10 12 -9 12 6 1 14 -11 15 -16 5 -29 -11 -13 -11 -14 0 -8 7 4 20 2 28
-5 8 -6 17 -9 21 -5 3 3 2 6 -4 6 -6 0 -13 9 -16 19 -3 12 0 18 7 15 6 -2 16
6 21 18 7 17 17 22 37 20 14 -2 29 2 33 8 3 5 11 8 16 5 5 -4 9 -1 9 4 0 6 5
11 11 11 5 0 8 -4 5 -9 -3 -4 1 -17 10 -27 14 -18 15 -18 4 4 -8 16 -8 22 1
22 7 0 4 9 -7 23 l-19 22 25 -22 c30 -26 56 -17 47 16 -3 12 -1 19 3 16 16
-10 39 7 33 23 -4 15 -3 15 6 2 8 -12 5 -19 -12 -32 -21 -16 -21 -18 -4 -35
10 -10 17 -13 17 -5 0 7 -5 12 -12 12 -6 0 -4 8 7 20 9 10 20 19 24 18 19 -2
41 3 41 10 0 13 -30 10 -30 -2 0 -6 -5 -3 -11 7 -6 10 -8 21 -5 24 3 4 6 0 6
-7 0 -9 5 -7 15 6 15 19 15 19 8 -1 l-6 -20 24 20 c18 15 20 16 10 3 -11 -15
-11 -18 2 -18 8 0 20 7 27 15 7 8 16 13 20 10 5 -3 10 -1 12 4 1 5 10 11 18
13 8 2 18 8 22 13 5 6 8 4 8 -5 0 -13 1 -13 10 0 7 11 10 11 10 2 0 -7 5 -10
12 -6 7 5 8 3 3 -5 -6 -10 -3 -11 14 -2 11 7 21 14 21 17 0 3 -5 2 -12 -2 -7
-5 -8 -3 -3 5 4 7 16 11 26 8 11 -3 19 -2 19 2 0 4 9 7 20 8 11 1 20 -3 20 -8
0 -6 5 -7 10 -4 6 3 10 0 10 -7 0 -10 2 -10 9 0 4 8 11 13 15 13 19 -3 26 0
26 10 0 8 -6 7 -17 -2 -16 -13 -17 -12 -4 4 13 17 15 17 34 0 12 -11 17 -12
12 -4 -6 11 -3 13 14 8 14 -3 24 0 28 9 4 12 8 12 22 2 14 -11 14 -11 4 3 -7
9 -9 20 -5 25 4 5 -2 1 -14 -9 -24 -20 -34 -22 -34 -6 0 5 4 8 9 5 5 -3 12 1
15 10 3 8 14 14 23 12 13 -2 18 3 17 19 -1 18 2 21 16 13 17 -9 30 -4 30 12 0
5 -4 7 -8 4 -5 -3 -9 2 -9 10 0 11 6 9 23 -7 22 -21 24 -21 49 -5 25 17 26 19
11 41 -15 22 -15 24 1 18 11 -5 14 -3 8 6 -6 11 -3 11 16 1 13 -7 28 -18 32
-24 6 -7 7 -4 3 6 -3 10 1 24 9 32 18 17 19 27 4 23 -6 -1 -14 5 -16 13 -3 9
-1 11 4 5 4 -5 17 -12 27 -13 16 -3 18 -1 8 10 -9 12 -9 15 3 15 8 0 12 -4 9
-9 -6 -9 20 -11 29 -1 4 3 -1 12 -11 20 -15 13 -15 13 5 4 12 -6 23 -16 25
-22 2 -6 15 -1 31 11 27 22 28 23 10 43 -10 11 -12 17 -5 13 7 -4 15 -1 18 9
5 11 9 13 14 5 5 -7 11 -6 21 6 8 10 9 15 2 11 -6 -4 -14 -3 -18 2 -3 6 3 8
13 6 22 -4 46 13 56 40 7 19 8 19 27 -5 12 -14 18 -19 14 -12 -9 17 23 65 37
56 7 -5 8 -2 3 6 -6 10 -14 7 -32 -14 -12 -15 -23 -23 -23 -19 1 11 37 53 46
53 4 0 17 -8 28 -17 15 -13 14 -10 -3 10 -14 15 -20 27 -13 27 6 0 14 9 17 21
4 11 9 18 12 16 2 -3 -1 -15 -7 -27 -7 -13 -7 -20 -2 -16 6 3 13 0 16 -6 3 -7
4 -4 3 7 -1 13 3 19 12 17 11 -2 10 3 -4 24 -9 14 -12 23 -6 20 6 -4 11 -3 11
3 0 6 7 7 17 4 12 -5 14 -3 8 7 -5 9 -4 11 4 6 6 -4 9 -12 6 -17 -3 -5 1 -6 9
-3 9 3 16 13 16 21 0 8 -5 11 -10 8 -6 -4 -9 -1 -8 7 2 7 -3 12 -10 10 -8 -1
-11 2 -7 8 9 14 11 13 33 -10 18 -20 19 -20 46 15 16 19 32 32 37 29 12 -7 11
9 -1 24 -7 8 -7 9 1 3 17 -13 49 -1 42 16 -5 12 -7 12 -14 1 -6 -9 -9 -9 -9
-1 0 19 17 24 30 8 7 -8 16 -15 20 -15 12 0 20 28 14 45 -5 12 -9 13 -20 4 -8
-7 -17 -9 -21 -6 -3 4 2 9 11 13 9 3 14 10 11 14 -3 4 2 13 9 19 10 8 16 9 21
1 3 -5 11 -10 18 -10 8 0 8 3 -1 12 -7 7 -12 19 -12 27 0 10 6 6 14 -9 7 -14
9 -30 4 -36 -5 -7 -2 -16 7 -24 10 -9 15 -9 15 -1 0 6 -5 11 -11 11 -5 0 -7 5
-4 10 4 6 11 7 17 4 5 -4 4 4 -3 17 -20 36 -21 53 -3 38 12 -10 16 -9 20 7 3
11 15 26 27 34 20 12 21 11 9 -2 -10 -13 -10 -17 1 -21 10 -4 13 2 11 19 -1
16 5 29 17 37 10 6 19 17 19 24 0 7 7 10 18 7 14 -5 15 -4 2 5 -11 8 -18 7
-26 -5 -7 -8 -14 -11 -16 -7 -3 4 -3 2 -1 -5 1 -8 -2 -10 -9 -6 -6 4 -8 3 -4
-4 9 -15 -7 -23 -24 -11 -11 6 -12 9 -2 9 7 0 10 5 6 12 -4 6 -3 8 3 5 6 -4
14 0 17 9 3 8 10 13 15 10 5 -3 14 1 21 9 7 8 17 12 24 9 6 -3 2 2 -9 11 -20
17 -20 17 5 10 22 -7 23 -6 12 8 -15 17 -7 41 9 31 11 -6 39 13 39 26 0 5 -8
11 -17 14 -10 3 0 3 22 0 40 -4 40 -4 15 11 l-25 16 26 -4 c19 -3 26 1 25 12
0 9 4 15 10 14 7 -1 11 5 10 15 0 9 4 16 9 15 6 -1 10 16 8 40 -1 29 1 37 7
27 7 -12 12 -12 22 -2 9 9 9 12 0 12 -7 0 -11 6 -10 13 2 6 -2 11 -9 10 -7 -2
-10 4 -6 13 3 9 9 12 12 7 12 -17 40 -13 51 8 12 22 8 35 -9 25 -6 -4 -7 -14
-4 -23 4 -11 3 -14 -5 -9 -17 10 -8 51 11 51 9 0 16 3 14 7 -1 3 8 17 21 30
12 14 19 28 15 32 -5 4 1 14 11 22 11 8 14 14 7 14 -7 0 -9 5 -4 13 12 19 12
36 1 44 -7 4 -8 1 -3 -8 5 -8 4 -11 0 -6 -14 12 -13 44 1 44 7 0 11 -4 9 -8
-3 -3 3 -13 13 -20 15 -13 16 -12 3 4 -7 9 -10 17 -5 17 5 0 0 7 -10 15 -11 8
-17 18 -13 21 3 4 13 -1 22 -10 23 -22 28 -20 13 7 -11 20 -19 57 -12 57 2 0
10 -12 17 -26 12 -22 15 -24 20 -10 4 10 3 15 -3 11 -6 -3 -10 -2 -10 4 0 5 4
12 9 16 6 3 7 15 5 28 -3 12 -6 28 -6 35 -1 6 -5 12 -10 12 -4 0 -8 5 -8 11 0
5 4 8 9 4 5 -3 16 4 24 15 7 11 16 18 19 15 2 -3 5 2 5 10 0 8 -5 11 -10 8 -6
-4 -8 1 -4 11 4 10 7 20 7 22 0 3 4 3 9 0 5 -4 7 4 3 16 -5 21 -5 21 -13 1 -4
-11 -16 -23 -26 -27 -17 -6 -17 -5 1 8 10 8 19 28 19 43 0 15 2 22 4 16 6 -16
33 -17 33 -2 0 5 -4 7 -10 4 -5 -3 -10 1 -10 10 0 10 -5 13 -12 9 -8 -4 -10
-3 -5 2 5 5 14 9 20 9 7 0 10 9 9 20 -3 17 -2 17 15 4 16 -12 17 -12 7 1 -7 8
-12 28 -12 44 0 15 -6 32 -13 37 -11 6 -10 9 4 15 9 3 17 10 17 16 0 5 -4 7
-9 3 -5 -3 -12 -1 -15 4 -4 5 -2 13 4 16 8 5 7 12 -2 23 -12 15 -11 16 4 3 10
-7 16 -17 13 -20 -2 -4 3 -8 11 -8 10 0 11 4 4 11 -17 17 -11 30 7 15 15 -13
15 -12 2 9 -14 23 -36 32 -23 10 4 -7 3 -10 -1 -5 -5 4 -9 16 -10 27 -2 19 -1
19 24 3 20 -13 23 -13 14 -2 -10 12 -10 18 0 29 10 12 9 12 -3 3 -11 -9 -20
-8 -33 2 -15 11 -15 14 -3 18 9 4 14 17 13 34 -1 20 2 27 13 26 10 -2 16 5 17
17 1 11 -3 20 -8 20 -6 0 -7 -4 -4 -10 3 -5 1 -10 -5 -10 -7 0 -10 7 -6 15 3
8 -2 18 -10 23 -13 7 -13 10 -1 21 12 9 15 9 13 -5 0 -9 6 -19 14 -21 13 -4
13 -3 0 6 -10 7 -11 13 -4 19 12 8 12 48 0 75 -5 9 -6 28 -4 42 4 21 2 23 -13
15 -26 -15 -36 -12 -14 3 10 8 15 19 11 25 -3 6 -2 13 4 17 5 3 10 11 10 16 0
6 -6 7 -12 2 -19 -11 -39 -13 -32 -2 3 5 10 6 16 3 7 -5 9 -1 5 9 -3 9 -2 19
4 23 6 3 3 12 -8 21 -15 12 -15 14 -2 10 13 -4 15 -1 12 14 -7 24 -19 24 -32
2 -6 -10 -11 -13 -11 -6 0 6 5 15 10 18 17 11 11 28 -7 20 -13 -4 -15 -3 -7 5
6 6 21 12 33 13 20 1 21 2 5 14 -9 6 -16 24 -16 38 0 23 -2 24 -13 8 -10 -14
-10 -20 -2 -26 9 -6 8 -8 -1 -5 -8 2 -13 7 -12 12 1 5 -4 13 -12 18 -10 7 -9
8 5 4 17 -5 25 10 7 16 -5 2 -11 14 -14 28 -2 14 -8 24 -14 23 -5 -1 -8 6 -5
16 3 11 -1 29 -7 41 -9 17 -9 24 0 30 19 12 -18 22 -39 10 -15 -8 -18 -5 -15
16 2 18 -4 28 -19 35 l-22 10 23 -5 c12 -2 22 0 22 5 0 5 -5 9 -11 9 -5 0 -7
5 -4 10 3 6 -1 10 -9 10 -9 0 -16 5 -16 11 0 5 -4 8 -8 5 -4 -2 -9 4 -9 15 -2
19 -1 19 15 -1 12 -14 21 -17 32 -10 10 6 11 10 3 10 -25 0 -28 3 -39 29 -8
19 -8 28 0 33 10 7 -6 12 -26 9 -5 0 -8 8 -8 19 0 14 -6 20 -16 18 -10 -2 -19
3 -21 10 -3 6 0 12 7 12 6 0 8 -5 4 -12 -5 -7 -3 -8 6 -3 10 6 10 10 -2 19
-15 11 -18 16 -18 39 0 6 -5 4 -11 -6 -5 -9 -8 -21 -5 -25 3 -5 -1 -9 -9 -9
-17 0 -20 13 -5 22 11 7 9 54 -2 58 -4 1 -10 -2 -15 -7 -4 -5 -3 -7 3 -3 6 3
11 0 11 -8 0 -11 -4 -12 -13 -4 -10 8 -11 16 -3 31 9 16 8 19 -3 12 -19 -12
-39 -14 -32 -3 3 5 10 7 15 4 16 -11 10 7 -8 21 -14 11 -14 13 -3 11 8 -2 12
-2 7 0 -4 3 -5 8 -3 12 3 4 -1 8 -8 8 -9 0 -13 -9 -11 -23 2 -20 -1 -22 -16
-13 -11 5 -19 12 -19 15 0 3 5 2 10 -1 20 -12 9 18 -14 40 -16 15 -21 26 -15
32 6 6 4 14 -6 23 -10 8 -15 9 -15 1 0 -6 5 -11 11 -11 5 0 7 -4 4 -10 -4 -6
-15 -4 -29 5 -12 8 -25 12 -29 9 -3 -3 -4 8 -2 25 2 17 -1 31 -6 31 -6 0 -7
-4 -4 -10 3 -5 1 -10 -5 -10 -6 0 -9 10 -8 23 2 12 -1 24 -7 26 -5 3 -16 11
-24 18 -10 11 -16 11 -27 2 -8 -7 -17 -9 -21 -5 -3 3 -2 6 4 6 15 0 23 39 11
47 -6 3 -8 2 -5 -3 3 -6 2 -16 -4 -24 -7 -12 -9 -11 -9 6 0 16 -6 20 -29 18
-22 -1 -28 2 -24 12 4 11 9 12 19 3 8 -6 14 -7 14 -2 0 5 -12 16 -27 24 -16 8
-32 18 -36 24 -5 5 -6 1 -3 -11 4 -14 2 -21 -7 -21 -9 0 -12 7 -9 19 2 11 -1
18 -9 18 -11 0 -11 2 1 10 8 5 10 10 5 10 -6 0 -17 -6 -24 -12 -10 -11 -12 -9
-9 7 2 12 -2 19 -9 18 -15 -3 -17 13 -3 20 6 3 5 4 -2 3 -7 -2 -13 -9 -13 -17
0 -8 6 -13 13 -11 8 1 11 -2 7 -8 -5 -8 -11 -7 -21 1 -13 10 -18 6 -15 -13 1
-9 -27 -4 -36 7 -4 4 -3 5 4 1 7 -4 17 2 22 13 16 28 13 35 -6 20 -14 -12 -16
-12 -11 1 4 11 -1 16 -15 18 -15 1 -18 -1 -9 -7 11 -6 10 -10 -4 -15 -9 -3
-19 -4 -22 -1 -3 3 0 5 7 5 7 0 9 5 6 10 -3 6 4 14 16 18 l23 9 -22 5 c-12 4
-20 3 -18 0 5 -9 -15 -26 -34 -30 -10 -1 -8 3 5 13 19 15 19 17 2 26 -9 6 -14
15 -11 21 4 7 2 8 -5 4 -9 -6 -9 -11 -1 -21 8 -10 8 -15 -1 -21 -8 -4 -9 -3
-5 4 9 15 -6 16 -20 2 -6 -6 -10 -2 -11 12 -2 19 0 20 8 8 9 -13 10 -13 6 0
-2 8 -10 14 -16 13 -6 -2 -11 3 -11 11 0 8 -4 17 -9 20 -12 8 -8 -27 4 -36 6
-5 6 -8 -1 -8 -24 0 -36 27 -24 52 9 18 6 17 -15 -7 -19 -22 -23 -24 -16 -8
15 30 14 40 -2 18 -11 -14 -16 -15 -22 -5 -6 9 -4 11 6 5 8 -5 5 1 -5 13 -22
25 -35 30 -15 6 12 -15 11 -16 -11 -10 -24 7 -24 6 -6 -8 11 -9 16 -19 12 -23
-4 -4 -12 0 -17 10 -6 10 -16 14 -22 10 -7 -3 -3 4 8 16 14 16 15 22 5 19 -8
-2 -20 -12 -27 -23 -11 -18 -12 -17 -8 13 2 18 0 30 -5 27 -5 -3 -13 3 -19 12
-6 10 -11 14 -11 9 0 -5 -6 -3 -13 3 -10 8 -14 7 -14 -4 0 -8 5 -11 10 -8 6 3
7 1 3 -5 -4 -7 -2 -10 7 -6 8 3 20 -3 28 -12 13 -16 12 -16 -8 -5 -20 10 -23
9 -24 -6 0 -14 -2 -13 -9 4 -6 16 -15 21 -27 17 -15 -5 -15 -4 -3 5 12 8 12
13 3 22 -20 20 -44 20 -34 0 8 -13 4 -16 -21 -18 -20 0 -26 2 -17 7 7 5 18 6
24 3 5 -4 6 -2 2 3 -5 5 -14 9 -20 9 -7 1 -11 7 -9 15 3 11 0 11 -13 0 -9 -7
-14 -19 -11 -27 8 -21 -2 -15 -15 8 -9 17 -8 20 3 13 10 -6 11 -5 1 8 -7 8 -9
19 -5 23 4 5 1 5 -6 1 -7 -4 -10 -12 -7 -17 4 -5 1 -9 -5 -9 -6 0 -9 -4 -5 -9
3 -5 1 -12 -4 -16 -6 -3 -8 6 -5 22 3 15 2 24 -2 20 -4 -4 -16 0 -26 10 -17
16 -24 9 -19 -19 0 -5 -4 -8 -10 -8 -6 0 -9 7 -6 15 4 8 1 17 -5 21 -7 4 -8 3
-4 -4 4 -7 2 -12 -3 -12 -6 0 -11 5 -11 10 0 6 -5 10 -11 10 -6 0 -8 -7 -5
-16 3 -9 2 -12 -5 -9 -5 4 -16 2 -24 -5 -11 -9 -13 -6 -11 14 2 17 -1 23 -10
19 -8 -3 -14 -1 -14 4 0 5 -9 9 -20 10 -11 1 -18 -2 -16 -6 3 -4 1 -13 -3 -20
-6 -9 -11 -10 -15 -2 -4 6 -2 11 4 11 6 0 8 4 5 10 -4 6 -15 4 -29 -5 -20 -13
-23 -13 -24 0 -1 8 -3 22 -4 29 -1 11 -6 12 -19 6 -12 -7 -19 -6 -23 3 -4 6
-4 2 -2 -10 2 -13 1 -25 -3 -27 -4 -3 -8 5 -8 16 -1 12 -7 26 -14 32 -9 8 -10
7 -6 -7 6 -16 5 -16 -24 -1 -17 8 -28 11 -25 6 3 -6 -1 -12 -9 -15 -10 -4 -12
-1 -8 11 6 15 5 15 -14 -1 -17 -15 -22 -15 -31 -4 -7 8 -8 18 -4 23 4 4 0 4
-8 -2 -8 -6 -21 -9 -27 -8 -7 1 -18 2 -24 3 -5 0 -8 5 -5 9 3 5 -1 9 -9 9 -8
0 -11 -5 -8 -10 4 -6 0 -8 -10 -4 -12 4 -17 1 -18 -11 -1 -11 -4 -8 -9 8 -5
16 -8 19 -9 8 -1 -14 -6 -16 -23 -9 -13 5 -24 13 -24 20 -3 22 -4 23 -17 12
-8 -6 -18 -7 -22 -3 -5 4 -5 1 -1 -5 4 -7 4 -13 -1 -14 -4 0 -18 -2 -30 -3
-13 -2 -23 3 -23 10 0 16 -28 26 -36 13 -4 -7 -12 -5 -22 4 -15 13 -21 12 -49
-2z m43 -3 c4 -6 3 -8 -4 -4 -6 3 -17 -1 -25 -9 -9 -8 -19 -15 -24 -15 -7 1
35 40 43 40 1 0 6 -5 10 -12z m52 -23 c-3 -3 -9 2 -12 12 -6 14 -5 15 5 6 7
-7 10 -15 7 -18z m97 16 c-3 -5 5 -17 17 -25 12 -9 18 -16 12 -16 -6 0 -14 3
-18 7 -11 12 -36 12 -36 0 0 -5 -3 -7 -7 -4 -3 4 2 16 12 27 19 21 30 27 20
11z m-497 -62 c-3 -8 -7 -3 -11 10 -4 17 -3 21 5 13 5 -5 8 -16 6 -23z m624 9
c-7 -7 -12 -8 -12 -2 0 14 12 26 19 19 2 -3 -1 -11 -7 -17z m-592 -3 c11 -13
10 -14 -4 -9 -9 3 -16 10 -16 15 0 13 6 11 20 -6z m640 5 c0 -5 -5 -10 -11
-10 -5 0 -7 5 -4 10 3 6 8 10 11 10 2 0 4 -4 4 -10z m100 -4 c0 -2 -7 -9 -15
-16 -13 -11 -14 -10 -9 4 5 14 24 23 24 12z m-793 -28 c-3 -8 -6 -5 -6 6 -1
11 2 17 5 13 3 -3 4 -12 1 -19z m997 -6 c3 -5 -1 -9 -9 -9 -8 0 -15 4 -15 9 0
4 4 8 9 8 6 0 12 -4 15 -8z m-1134 -22 c0 -5 -2 -10 -4 -10 -3 0 -8 5 -11 10
-3 6 -1 10 4 10 6 0 11 -4 11 -10z m1275 0 c3 -5 1 -10 -4 -10 -6 0 -11 5 -11
10 0 6 2 10 4 10 3 0 8 -4 11 -10z m-1630 -38 c-3 -3 -11 0 -18 7 -9 10 -8 11
6 5 10 -3 15 -9 12 -12z m-508 -65 c0 -8 -6 -14 -14 -14 -9 0 -10 4 -2 14 6 7
12 13 14 13 1 0 2 -6 2 -13z m167 4 c4 -5 -3 -7 -14 -4 -23 6 -26 13 -6 13 8
0 17 -4 20 -9z m-252 -16 c2 3 5 -2 5 -10 0 -11 -4 -12 -13 -4 -9 7 -15 5 -23
-8 -6 -10 -11 -13 -11 -6 0 6 5 15 10 18 6 4 7 12 3 18 -5 8 -2 8 9 0 8 -7 17
-11 20 -8z m152 -7 c-3 -5 -10 -6 -15 -2 -5 3 -18 0 -27 -8 -15 -12 -16 -11
-4 4 13 16 56 22 46 6z m-339 -47 c3 -5 1 -12 -5 -16 -5 -3 -10 1 -10 9 0 18
6 21 15 7z m385 -15 c0 -2 -8 -10 -17 -17 -16 -13 -17 -12 -4 4 13 16 21 21
21 13z m19 -13 c-5 -29 1 -35 19 -22 15 13 16 12 3 -4 -13 -16 -16 -16 -29 -3
-8 8 -11 19 -8 25 8 13 17 15 15 4z m-67 -32 c-4 -10 -7 -11 -10 -3 -2 7 -9 9
-14 6 -6 -4 -8 -3 -5 3 10 16 36 11 29 -6z m-452 -5 c0 -8 -4 -17 -8 -20 -4
-2 -8 4 -8 15 0 10 4 19 8 19 4 0 8 -6 8 -14z m473 -6 c-3 -12 -8 -19 -11 -16
-5 6 5 36 12 36 2 0 2 -9 -1 -20z m24 -5 c0 -8 -4 -12 -9 -9 -5 3 -6 10 -3 15
9 13 12 11 12 -6z m-580 -60 c0 -8 -4 -12 -9 -9 -5 3 -6 10 -3 15 9 13 12 11
12 -6z m-31 -17 c4 -6 3 -8 -4 -4 -6 3 -13 2 -17 -4 -3 -5 -11 -10 -16 -10
-11 0 12 29 23 30 4 0 10 -5 14 -12z m-13 -63 c-3 -9 -8 -14 -10 -11 -3 3 -2
9 2 15 9 16 15 13 8 -4z m3397 9 c0 -8 -19 -13 -24 -6 -3 5 1 9 9 9 8 0 15 -2
15 -3z m85 -27 c4 5 6 1 3 -7 -5 -17 -33 -21 -33 -5 0 6 -4 17 -9 25 -7 10 -3
10 11 -3 11 -9 23 -14 28 -10z m-3461 -68 c-3 -5 -11 -9 -17 -8 -8 0 -8 2 1 6
10 4 10 8 0 21 -12 15 -11 16 4 3 10 -7 15 -17 12 -22z m3564 -90 c-3 -8 -7
-3 -11 10 -4 17 -3 21 5 13 5 -5 8 -16 6 -23z m-3402 -81 c3 -4 -1 -5 -10 -4
-8 1 -18 5 -22 8 -3 4 1 5 10 4 8 -1 18 -5 22 -8z m69 -38 c13 -6 15 -9 5 -9
-8 0 -22 4 -30 9 -18 12 -2 12 25 0z m1619 -38 c3 -5 -1 -9 -9 -9 -8 0 -15 4
-15 9 0 4 4 8 9 8 6 0 12 -4 15 -8z m176 -2 c0 -5 -5 -10 -11 -10 -5 0 -7 5
-4 10 3 6 8 10 11 10 2 0 4 -4 4 -10z m44 -34 c-4 -10 -24 -13 -53 -7 -2 1 3
9 12 19 10 10 14 23 10 28 -5 5 2 1 14 -10 12 -10 20 -23 17 -30z m-129 25 c3
-5 0 -13 -6 -17 -7 -4 -9 -3 -5 4 3 6 -2 13 -11 15 -16 4 -16 5 -1 6 9 0 19
-3 23 -8z m190 -11 c3 -6 -1 -7 -9 -4 -18 7 -21 14 -7 14 6 0 13 -4 16 -10z
m1570 0 c3 -6 -1 -7 -9 -4 -18 7 -21 14 -7 14 6 0 13 -4 16 -10z m-1930 -20
c10 -11 16 -20 13 -20 -3 0 -13 9 -23 20 -10 11 -16 20 -13 20 3 0 13 -9 23
-20z m123 -10 c-7 -11 -14 -17 -17 -15 -2 3 1 11 7 18 7 8 8 18 4 22 -4 5 -1
5 5 1 10 -5 10 -11 1 -26z m-25 5 c-3 -9 -8 -14 -10 -11 -3 3 -2 9 2 15 9 16
15 13 8 -4z m397 0 c0 -2 -9 -3 -19 -2 -11 0 -18 5 -15 9 4 6 34 0 34 -7z
m1489 -11 c4 3 8 -4 8 -15 1 -10 -2 -19 -8 -19 -5 0 -8 6 -6 13 1 6 -3 11 -8
10 -6 -1 -12 8 -12 20 -2 20 -1 20 8 4 6 -9 14 -15 18 -13z m-1999 0 c0 -8
-19 -13 -24 -6 -3 5 1 9 9 9 8 0 15 -2 15 -3z m81 -41 c-12 -20 -14 -14 -5 12
4 9 9 14 11 11 3 -2 0 -13 -6 -23z m-75 -8 c0 -13 -2 -22 -5 -20 -2 3 -9 0
-16 -5 -8 -7 -12 -5 -12 5 0 7 5 13 11 12 5 -1 11 4 12 11 4 31 10 30 10 -3z
m122 14 c-2 -6 -8 -10 -13 -9 -6 1 -13 -9 -17 -22 -7 -22 -7 -22 -5 2 1 14 8
24 15 23 6 -2 12 2 12 7 0 6 3 10 6 10 3 0 4 -5 2 -11z m467 1 c3 -5 1 -10 -4
-10 -6 0 -11 5 -11 10 0 6 2 10 4 10 3 0 8 -4 11 -10z m-765 -6 c0 -8 -19 -13
-24 -6 -3 5 1 9 9 9 8 0 15 -2 15 -3z m856 -20 c1 -9 0 -13 -4 -10 -3 4 -7 14
-8 22 -1 9 0 13 4 10 3 -4 7 -14 8 -22z m-936 2 c0 -3 -4 -8 -10 -11 -5 -3
-10 -1 -10 4 0 6 5 11 10 11 6 0 10 -2 10 -4z m-600 -20 c0 -2 -7 -7 -16 -10
-8 -3 -12 -2 -9 4 6 10 25 14 25 6z m-60 -14 c0 -5 -7 -9 -15 -9 -8 0 -12 4
-9 9 3 4 9 8 15 8 5 0 9 -4 9 -8z m656 -17 c1 -9 -4 -11 -14 -7 -10 4 -12 7
-4 10 7 2 9 9 5 15 -3 7 -2 8 2 4 5 -4 10 -14 11 -22z m999 15 c4 -6 -1 -7
-12 -3 -15 5 -16 3 -5 -8 18 -19 15 -33 -4 -15 -8 9 -12 20 -9 26 8 13 22 13
30 0z m-942 -14 c4 -11 1 -13 -10 -9 -9 4 -14 2 -10 -3 3 -6 1 -16 -4 -24 -7
-12 -8 -11 -6 5 3 20 15 45 22 45 1 0 5 -7 8 -14z m121 -2 c3 -8 2 -12 -4 -9
-6 3 -10 10 -10 16 0 14 7 11 14 -7z m-738 -6 c4 -7 4 -10 -1 -6 -4 4 -14 3
-22 -3 -8 -8 -13 -8 -13 -1 0 6 6 13 13 15 6 3 13 6 14 6 1 1 5 -5 9 -11z
m309 -8 c-3 -5 -12 -10 -18 -10 -7 0 -6 4 3 10 19 12 23 12 15 0z m69 2 c3 -5
-1 -9 -9 -9 -8 0 -12 4 -9 9 3 4 7 8 9 8 2 0 6 -4 9 -8z m141 -2 c-3 -5 -12
-10 -18 -10 -7 0 -6 4 3 10 19 12 23 12 15 0z m-275 -20 c0 -5 -5 -10 -11 -10
-5 0 -7 5 -4 10 3 6 8 10 11 10 2 0 4 -4 4 -10z m180 -10 c0 -5 -5 -10 -11
-10 -5 0 -7 5 -4 10 3 6 8 10 11 10 2 0 4 -4 4 -10z m2496 -47 c1 -10 4 -27 8
-38 4 -11 0 -7 -9 8 -9 15 -21 25 -28 22 -7 -4 -3 1 7 9 11 9 20 16 21 16 0 0
1 -8 1 -17z m-1376 -23 c0 -5 -2 -10 -4 -10 -3 0 -8 5 -11 10 -3 6 -1 10 4 10
6 0 11 -4 11 -10z m55 0 c3 -5 1 -10 -4 -10 -6 0 -11 5 -11 10 0 6 2 10 4 10
3 0 8 -4 11 -10z m42 -25 c0 -8 -4 -12 -9 -9 -5 3 -6 10 -3 15 9 13 12 11 12
-6z m1313 -71 c0 -8 -19 -13 -24 -6 -3 5 1 9 9 9 8 0 15 -2 15 -3z m8 -89 c-3
-3 -9 2 -12 12 -6 14 -5 15 5 6 7 -7 10 -15 7 -18z m-1144 -101 c3 -8 2 -12
-4 -9 -6 3 -10 10 -10 16 0 14 7 11 14 -7z m-10 -39 c-3 -8 -9 -14 -12 -13
-22 2 -32 -3 -26 -14 4 -7 3 -9 -1 -5 -11 10 -16 39 -5 32 4 -3 13 2 20 10 15
18 31 10 24 -10z m-14 -51 c0 -8 -19 -13 -24 -6 -3 5 1 9 9 9 8 0 15 -2 15 -3z
m-15 -32 c-3 -3 -11 0 -18 7 -9 10 -8 11 6 5 10 -3 15 -9 12 -12z m1272 -63
c3 -19 2 -19 -13 -5 -8 9 -12 21 -9 27 9 13 18 4 22 -22z m-1267 -25 c0 -8
-19 -13 -24 -6 -3 5 1 9 9 9 8 0 15 -2 15 -3z m-110 -180 c-6 -6 -7 -14 -3
-17 3 -4 3 -7 0 -7 -3 0 -11 9 -17 19 -8 17 -7 20 9 18 14 -1 17 -5 11 -13z
m84 -82 c2 -4 -5 -9 -17 -9 -17 -2 -19 0 -7 7 18 12 18 12 24 2z m-19 -42 c16
-17 16 -20 3 -15 -9 4 -19 13 -22 21 -7 19 -2 18 19 -6z m1278 -70 c-3 -12 -8
-19 -11 -16 -5 6 5 36 12 36 2 0 2 -9 -1 -20z m-118 -10 c3 -5 1 -10 -4 -10
-6 0 -11 5 -11 10 0 6 2 10 4 10 3 0 8 -4 11 -10z m110 -30 c3 -6 -1 -7 -9 -4
-18 7 -21 14 -7 14 6 0 13 -4 16 -10z m-1232 -90 c-3 -12 -8 -19 -11 -16 -5 6
5 36 12 36 2 0 2 -9 -1 -20z m-23 -20 c0 -5 -5 -10 -11 -10 -5 0 -7 5 -4 10 3
6 8 10 11 10 2 0 4 -4 4 -10z m1219 -46 c-6 -8 -17 -14 -23 -14 -6 0 -3 5 7
11 9 6 14 15 11 21 -4 7 -2 8 5 4 9 -6 9 -11 0 -22z m-1255 -49 c-4 -8 -10
-12 -15 -9 -11 6 -2 24 11 24 5 0 7 -7 4 -15z m1226 -25 c0 -5 -5 -10 -11 -10
-5 0 -7 5 -4 10 3 6 8 10 11 10 2 0 4 -4 4 -10z m17 -25 c0 -8 -4 -15 -9 -15
-10 0 -11 14 -1 23 9 10 10 9 10 -8z m-59 -172 c-6 -7 -7 -13 -3 -13 4 0 2 -7
-5 -15 -6 -8 -9 -19 -6 -24 10 -15 -27 -32 -45 -19 -11 8 -11 9 4 4 17 -5 19
-1 20 41 0 12 4 21 10 20 5 -1 12 4 15 12 2 8 0 11 -5 8 -5 -3 -10 0 -10 7 0
11 4 12 18 3 13 -8 15 -15 7 -24z m-1468 -137 c0 -2 -7 -7 -16 -10 -8 -3 -12
-2 -9 4 6 10 25 14 25 6z m-43 -48 c-3 -8 -6 -5 -6 6 -1 11 2 17 5 13 3 -3 4
-12 1 -19z m1383 -83 c0 -17 -46 -65 -62 -64 -7 0 -3 5 10 11 22 11 30 28 12
28 -5 0 -10 5 -10 11 0 8 5 8 15 -1 21 -17 32 14 14 38 -13 15 -12 16 4 3 9
-7 17 -19 17 -26z m-1718 -227 c-6 -6 -22 -13 -34 -15 -18 -2 -19 -1 -8 6 8 5
18 7 22 5 5 -3 11 2 14 11 4 9 9 13 12 10 3 -3 0 -11 -6 -17z m-72 -49 c0 -4
-9 -7 -19 -6 -11 0 -18 4 -16 7 6 9 35 8 35 -1z m1493 -14 c-3 -9 -8 -14 -10
-11 -3 3 -2 9 2 15 9 16 15 13 8 -4z m-1516 -27 c-3 -8 -6 -5 -6 6 -1 11 2 17
5 13 3 -3 4 -12 1 -19z m-27 -12 c0 -2 -7 -7 -16 -10 -8 -3 -12 -2 -9 4 6 10
25 14 25 6z m1540 -1 c0 -1 -9 -10 -19 -19 -13 -12 -21 -14 -26 -6 -4 6 -1 9
7 8 7 -2 12 2 11 8 -1 6 5 11 13 11 8 0 14 -1 14 -2z m-1680 -80 c0 -5 -5 -3
-10 5 -5 8 -10 20 -10 25 0 6 5 3 10 -5 5 -8 10 -19 10 -25z m80 21 c0 -2 -8
-10 -17 -17 -16 -13 -17 -12 -4 4 13 16 21 21 21 13z m1516 -44 c-17 -16 -18
-16 -5 5 7 12 15 20 18 17 3 -2 -3 -12 -13 -22z m66 -14 c-7 -7 -12 -8 -12 -2
0 14 12 26 19 19 2 -3 -1 -11 -7 -17z m-1912 -26 c0 -4 -10 -9 -22 -9 -18 -2
-20 0 -8 7 18 12 30 13 30 2z m1820 -2 c0 -5 -5 -10 -11 -10 -5 0 -7 5 -4 10
3 6 8 10 11 10 2 0 4 -4 4 -10z m-18 -27 c-6 -2 -10 -9 -6 -14 3 -5 0 -9 -5
-9 -12 0 -14 13 -4 23 3 4 11 7 17 6 6 0 5 -3 -2 -6z m-1878 -21 c3 -5 -1 -9
-9 -9 -8 0 -12 4 -9 9 3 4 7 8 9 8 2 0 6 -4 9 -8z m-27 -44 c-3 -8 -6 -5 -6 6
-1 11 2 17 5 13 3 -3 4 -12 1 -19z m-24 -43 c-3 -9 -8 -14 -10 -11 -3 3 -2 9
2 15 9 16 15 13 8 -4z m25 -30 c-3 -3 -9 2 -12 12 -6 14 -5 15 5 6 7 -7 10
-15 7 -18z m-94 6 c4 -5 -4 -7 -16 -3 -16 4 -19 2 -13 -8 5 -9 4 -11 -4 -6 -6
4 -9 12 -6 17 8 12 32 12 39 0z m1810 1 c3 -5 -1 -9 -9 -9 -8 0 -12 4 -9 9 3
4 7 8 9 8 2 0 6 -4 9 -8z m-2034 -73 c0 -5 -3 -8 -7 -8 -19 3 -34 -2 -29 -9 3
-5 -1 -9 -9 -9 -10 0 -12 4 -5 12 5 7 8 14 6 16 -2 2 7 5 20 5 13 1 24 -2 24
-7z m1971 -12 c-10 -9 -11 -8 -5 6 3 10 9 15 12 12 3 -3 0 -11 -7 -18z m-154
-2 c0 -8 -4 -12 -9 -9 -5 3 -6 10 -3 15 9 13 12 11 12 -6z m-1742 -23 c-3 -3
-11 0 -18 7 -9 10 -8 11 6 5 10 -3 15 -9 12 -12z m-172 -22 c-3 -11 -9 -17
-15 -14 -5 3 -4 12 3 20 16 19 18 18 12 -6z m151 4 c3 -8 2 -12 -4 -9 -6 3
-10 10 -10 16 0 14 7 11 14 -7z m-69 -14 c-3 -5 -12 -10 -18 -10 -7 0 -6 4 3
10 19 12 23 12 15 0z m-60 -20 c3 -5 1 -10 -4 -10 -6 0 -11 5 -11 10 0 6 2 10
4 10 3 0 8 -4 11 -10z m1931 -5 c-1 -8 -5 -17 -8 -21 -5 -4 -4 16 1 34 3 9 9
-1 7 -13z m-2032 -28 c-2 -11 -6 -22 -10 -26 -4 -3 -4 2 -1 12 6 17 -3 23 -16
11 -9 -10 12 -46 24 -39 17 11 9 -2 -13 -21 -15 -12 -18 -13 -10 -3 18 23 -9
47 -28 24 -7 -8 -17 -12 -23 -8 -7 4 -8 0 -3 -12 5 -15 4 -16 -9 -5 -12 10
-15 10 -16 -1 0 -10 -2 -11 -6 -1 -2 6 -10 9 -15 6 -7 -4 -8 -2 -4 5 4 6 12 9
17 6 5 -4 9 -2 9 4 0 5 9 8 20 6 15 -3 27 6 42 29 24 36 48 44 42 13z m85 -20
c0 -9 -2 -8 -6 1 -2 6 -10 9 -15 6 -7 -4 -8 -2 -4 5 9 13 26 5 25 -12z m1916
13 c3 -6 -1 -7 -9 -4 -18 7 -21 14 -7 14 6 0 13 -4 16 -10z m57 -5 c0 -14 -29
-31 -38 -22 -9 8 16 39 28 35 5 -2 10 -8 10 -13z m-2027 -63 c-3 -3 -11 0 -18
7 -9 10 -8 11 6 5 10 -3 15 -9 12 -12z m-71 -10 c2 -4 -4 -8 -14 -8 -10 0 -16
4 -14 8 3 4 9 8 14 8 5 0 11 -4 14 -8z m1953 -6 c0 -8 -6 -12 -14 -9 -7 3 -10
9 -7 14 8 14 21 11 21 -5z m-2019 -41 c-3 -3 -9 2 -12 12 -6 14 -5 15 5 6 7
-7 10 -15 7 -18z m1967 -26 c-4 -5 -10 -7 -15 -4 -4 3 -10 0 -12 -6 -2 -6 -12
0 -23 12 -11 12 -15 19 -8 16 6 -4 14 -3 18 3 4 7 13 7 26 0 11 -6 17 -15 14
-21z m-2118 0 c-1 -4 6 -14 15 -21 13 -10 15 -17 7 -28 -9 -13 -10 -12 -5 3 5
15 2 17 -17 12 -17 -5 -19 -4 -7 4 8 6 13 11 10 12 -3 0 -15 2 -28 5 -20 4
-22 2 -12 -19 11 -21 11 -21 -5 -2 -14 17 -14 21 -1 31 17 12 46 14 43 3z m67
-10 c3 -3 -4 -5 -14 -6 -11 -1 -20 2 -20 7 0 8 25 8 34 -1z m-171 -56 c-4 -10
-2 -14 4 -10 12 8 12 -19 0 -28 -4 -3 -5 -2 -2 2 3 3 0 12 -6 19 -6 7 -8 18
-4 24 10 16 15 12 8 -7z m1977 -28 c0 -5 -5 -3 -10 5 -5 8 -10 20 -10 25 0 6
5 3 10 -5 5 -8 10 -19 10 -25z m-17 -9 c4 -10 0 -12 -15 -8 -15 4 -17 7 -6 13
17 11 15 11 21 -5z m-121 -13 c-6 -2 -9 -10 -6 -15 4 -7 2 -8 -5 -4 -13 9 -5
26 12 25 9 0 8 -2 -1 -6z m-105 -38 c4 -4 2 -5 -4 -1 -7 4 -13 2 -13 -4 0 -6
-4 -8 -10 -5 -5 3 -10 10 -10 15 0 10 27 7 37 -5z m-1872 -15 c-3 -5 -12 -10
-18 -10 -7 0 -6 4 3 10 19 12 23 12 15 0z m-65 -31 c0 -5 6 -7 13 -3 6 4 8 3
4 -1 -13 -15 -34 -14 -34 1 0 8 4 14 9 14 4 0 8 -5 8 -11z m75 2 c3 -5 2 -12
-3 -15 -5 -3 -9 1 -9 9 0 17 3 19 12 6z m1688 -46 c4 -8 1 -17 -5 -21 -7 -4
-8 -3 -4 4 4 7 2 12 -4 12 -6 0 -8 5 -5 10 8 14 12 13 18 -5z m-269 -137 c-3
-4 0 -8 5 -8 6 0 11 -4 11 -9 0 -11 -51 -4 -63 8 -4 4 3 7 15 7 18 -1 22 4 20
19 -2 16 -1 17 7 5 5 -8 7 -18 5 -22z m-1739 12 c3 -5 1 -10 -4 -10 -6 0 -11
5 -11 10 0 6 2 10 4 10 3 0 8 -4 11 -10z m-92 -35 c3 -6 -3 -11 -12 -12 -10
-1 -18 4 -18 11 0 16 25 17 30 1z m1721 -49 c-29 -16 -44 -16 -44 0 0 9 5 12
10 9 6 -3 10 -2 10 3 0 6 10 8 21 5 20 -6 20 -6 3 -17z m-1921 -63 c-5 -12 -3
-14 8 -8 12 7 12 6 -1 -11 -22 -29 -24 -30 -16 -10 5 14 3 17 -11 12 -15 -6
-15 -4 2 14 22 24 26 25 18 3z m1637 7 c0 -5 -2 -10 -4 -10 -3 0 -8 5 -11 10
-3 6 -1 10 4 10 6 0 11 -4 11 -10z m37 -15 c0 -8 -9 -22 -19 -32 -11 -9 -18
-11 -18 -5 0 7 6 12 13 13 9 0 9 2 -1 6 -10 4 -9 8 5 19 10 7 18 14 19 14 0 0
1 -7 1 -15z m-1720 -20 c0 -11 -6 -13 -20 -9 -14 4 -17 3 -12 -6 5 -8 4 -11
-3 -6 -6 3 -13 2 -17 -4 -8 -14 -25 -13 -25 2 0 6 3 8 6 5 4 -3 18 3 32 13 30
24 39 25 39 5z m1537 -23 c3 -5 -1 -9 -9 -9 -8 0 -12 4 -9 9 3 4 7 8 9 8 2 0
6 -4 9 -8z m-46 -42 c-7 -10 -14 -17 -17 -15 -4 4 18 35 25 35 2 0 -1 -9 -8
-20z m26 -16 c3 -8 2 -12 -4 -9 -6 3 -10 10 -10 16 0 14 7 11 14 -7z m-179
-73 c15 -2 -9 -21 -32 -25 -14 -3 -23 2 -26 13 -4 18 -1 18 58 12z m-68 -26
c0 -8 -4 -12 -9 -9 -5 3 -6 10 -3 15 9 13 12 11 12 -6z m-1703 -56 c-10 -11
-20 -17 -23 -14 -3 4 1 10 8 14 7 5 11 14 7 20 -5 7 -1 9 9 5 14 -6 14 -8 -1
-25z m1553 24 c-4 -3 0 -17 8 -30 15 -23 15 -23 -3 -12 -16 10 -20 23 -13 47
1 1 4 2 8 2 3 0 3 -3 0 -7z m-1493 -15 c-3 -4 -11 -5 -19 -1 -21 7 -19 12 4
10 11 0 18 -5 15 -9z m-100 -36 c3 -5 -1 -9 -9 -9 -8 0 -15 4 -15 9 0 4 4 8 9
8 6 0 12 -4 15 -8z m1526 -2 c0 -5 -2 -10 -4 -10 -3 0 -8 5 -11 10 -3 6 -1 10
4 10 6 0 11 -4 11 -10z m-1600 -10 c-11 -7 -11 -10 -2 -10 7 0 10 -5 6 -11 -4
-8 -9 -7 -15 2 -9 15 -3 29 14 29 7 0 6 -4 -3 -10z m41 -17 c13 -16 12 -17 -3
-4 -10 7 -18 15 -18 17 0 8 8 3 21 -13z m-51 -54 c0 -5 -4 -9 -8 -9 -5 0 -9 7
-9 15 0 8 4 12 9 9 4 -3 8 -9 8 -15z m-76 -35 c5 -14 4 -15 -7 -5 -11 9 -17 8
-26 -3 -6 -8 -11 -18 -10 -22 1 -5 1 -16 0 -24 -1 -13 -3 -13 -10 -1 -14 21
15 70 40 71 4 0 10 -7 13 -16z m46 1 c0 -2 -6 -8 -13 -14 -10 -8 -14 -7 -14 2
0 8 6 14 14 14 7 0 13 -1 13 -2z m25 -25 c3 -5 1 -10 -4 -10 -6 0 -11 5 -11
10 0 6 2 10 4 10 3 0 8 -4 11 -10z m1307 -25 c0 -5 -5 -11 -11 -13 -6 -2 -11
4 -11 13 0 9 5 15 11 13 6 -2 11 -8 11 -13z m-1342 -9 c0 -3 -4 -8 -10 -11 -5
-3 -10 -1 -10 4 0 6 5 11 10 11 6 0 10 -2 10 -4z m-89 -39 c-10 -9 -11 -8 -5
6 3 10 9 15 12 12 3 -3 0 -11 -7 -18z m1276 -17 c-2 -11 -8 -25 -13 -30 -15
-15 -14 21 0 37 15 17 16 16 13 -7z m-1287 -11 c0 -6 -4 -7 -10 -4 -5 3 -10
11 -10 16 0 6 5 7 10 4 6 -3 10 -11 10 -16z m35 1 c3 -5 1 -10 -4 -10 -6 0
-11 5 -11 10 0 6 2 10 4 10 3 0 8 -4 11 -10z m1215 -19 c0 -5 -9 -7 -20 -4
-11 3 -20 7 -20 9 0 2 9 4 20 4 11 0 20 -4 20 -9z m-1204 -15 c18 5 18 5 0 -6
-15 -10 -21 -9 -35 6 -14 16 -14 17 0 6 9 -7 25 -10 35 -6z m994 -91 c-5 -7
-9 -14 -7 -16 1 -2 0 -3 -2 -1 -11 7 -7 29 5 29 9 0 11 -4 4 -12z m-66 -4 c3
-5 -2 -15 -12 -22 -15 -12 -16 -12 -5 2 7 9 10 19 6 22 -3 4 -4 7 0 7 3 0 8
-4 11 -9z m-974 -21 c0 -5 -7 -7 -15 -4 -8 4 -12 10 -9 15 6 11 24 2 24 -11z
m37 4 c-3 -3 -12 -4 -19 -1 -8 3 -5 6 6 6 11 1 17 -2 13 -5z m881 -39 c-3 -3
-9 2 -12 12 -6 14 -5 15 5 6 7 -7 10 -15 7 -18z m55 13 c-2 -5 -12 -12 -21
-17 -14 -7 -18 -5 -18 7 0 11 8 17 22 17 12 0 20 -3 17 -7z m-922 -21 c-10 -9
-11 -8 -5 6 3 10 9 15 12 12 3 -3 0 -11 -7 -18z m104 -6 c3 -5 2 -12 -3 -15
-5 -3 -9 1 -9 9 0 17 3 19 12 6z m-115 -23 c0 -5 -4 -6 -10 -3 -5 3 -11 1 -11
-4 -3 -21 -4 -26 -12 -38 -4 -7 0 -16 10 -22 11 -6 13 -11 5 -11 -7 0 -11 -4
-7 -10 3 -5 12 -7 19 -4 21 8 39 -21 27 -45 -14 -26 -14 -28 4 -28 9 0 14 6
11 13 -3 8 0 11 10 7 11 -4 12 -9 4 -18 -8 -9 -8 -15 0 -20 5 -3 10 -1 10 4 0
6 5 11 11 11 5 0 7 -5 3 -12 -5 -7 -2 -9 9 -5 12 4 14 2 10 -10 -4 -11 -2 -14
5 -9 6 4 21 2 32 -4 11 -6 20 -7 20 -1 0 5 -7 11 -15 15 -8 3 -15 10 -15 16 0
5 9 2 20 -7 26 -23 25 -37 -4 -51 -22 -10 -24 -9 -21 8 3 15 -1 19 -18 16 -12
-2 -28 1 -34 6 -7 6 -13 7 -13 4 0 -4 -13 2 -29 14 -30 21 -50 23 -63 5 -4 -5
-10 -6 -14 -2 -4 3 -1 13 6 22 10 12 10 15 -1 16 -12 0 -12 2 0 6 10 4 8 9
-10 19 l-24 13 23 1 c16 0 21 4 15 12 -13 23 -13 70 1 65 7 -3 13 1 13 8 0 11
-5 11 -20 4 -24 -14 -36 -3 -14 14 21 15 67 19 67 5z m15 -18 c-3 -5 -12 -10
-18 -10 -7 0 -6 4 3 10 19 12 23 12 15 0z m0 -30 c-3 -5 -14 -10 -23 -9 -14 0
-13 2 3 9 27 11 27 11 20 0z m695 -25 c0 -5 -5 -3 -10 5 -5 8 -10 20 -10 25 0
6 5 3 10 -5 5 -8 10 -19 10 -25z m-669 12 c-6 -8 -8 -17 -4 -20 3 -4 1 -7 -5
-7 -15 0 -15 13 0 28 16 16 23 15 9 -1z m39 -39 c0 -4 -4 -8 -9 -8 -6 0 -12 4
-15 8 -3 5 1 9 9 9 8 0 15 -4 15 -9z m80 2 c0 -5 -5 -10 -11 -10 -5 0 -7 5 -4
10 3 6 8 10 11 10 2 0 4 -4 4 -10z m-47 -34 c3 3 4 -2 3 -12 -2 -10 -8 -19
-15 -20 -7 -2 -7 -1 -1 3 7 3 5 13 -7 26 -12 15 -13 18 -2 9 9 -6 18 -9 22 -6z
m132 -65 c-3 -2 -11 1 -18 7 -8 7 -18 8 -22 4 -5 -4 -5 -1 -1 5 5 10 11 10 26
1 11 -7 17 -14 15 -17z m-45 -13 c0 -4 -4 -8 -9 -8 -6 0 -12 4 -15 8 -3 5 1 9
9 9 8 0 15 -4 15 -9z m255 -17 c-3 -6 -11 -8 -17 -5 -6 4 -5 9 3 15 16 10 23
4 14 -10z m-155 -31 c0 -14 -28 -19 -33 -6 -3 6 4 13 14 13 10 1 19 -2 19 -7z"/>
<path d="M4921 5896 c-10 -12 -8 -13 8 -9 12 3 18 9 15 14 -7 12 -10 11 -23
-5z"/>
<path d="M5595 3060 c-3 -5 -1 -10 4 -10 6 0 11 5 11 10 0 6 -2 10 -4 10 -3 0
-8 -4 -11 -10z"/>
<path d="M3926 2338 c3 -5 10 -6 15 -3 13 9 11 12 -6 12 -8 0 -12 -4 -9 -9z"/>
<path d="M1924 1708 c1 -7 4 -17 7 -23 3 -5 4 -20 3 -32 0 -13 3 -23 8 -23 5
0 6 -5 2 -11 -5 -8 -1 -8 14 0 34 18 40 70 7 57 -13 -5 -44 22 -37 31 2 3 1 7
-1 10 -3 3 -5 -1 -3 -9z m38 -63 c-8 -16 -9 -16 -15 -1 -4 10 -3 15 3 11 6 -3
10 -1 10 6 0 7 3 10 6 6 3 -3 2 -13 -4 -22z"/>
<path d="M1990 1606 c0 -2 8 -10 18 -17 15 -13 16 -12 3 4 -13 16 -21 21 -21
13z"/>
<path d="M4633 6729 c-2 -23 3 -25 10 -4 4 8 3 16 -1 19 -4 3 -9 -4 -9 -15z"/>
<path d="M5090 6724 c0 -8 5 -12 10 -9 6 4 8 11 5 16 -9 14 -15 11 -15 -7z"/>
<path d="M4315 6721 c-3 -5 -2 -12 3 -15 5 -3 9 1 9 9 0 17 -3 19 -12 6z"/>
<path d="M5283 6697 c-9 -14 1 -15 32 -1 l30 13 -28 -2 c-16 -1 -31 -5 -34
-10z"/>
<path d="M5407 6671 c-4 -17 -3 -21 5 -13 5 5 8 16 6 23 -3 8 -7 3 -11 -10z"/>
<path d="M5533 6675 c0 -8 4 -12 9 -9 5 3 6 10 3 15 -9 13 -12 11 -12 -6z"/>
<path d="M3560 6640 c-9 -6 -10 -10 -3 -10 6 0 15 5 18 10 8 12 4 12 -15 0z"/>
<path d="M3830 6636 c7 -7 13 -7 20 0 6 6 3 10 -10 10 -13 0 -16 -4 -10 -10z"/>
<path d="M3616 6605 c4 -8 8 -15 10 -15 2 0 4 7 4 15 0 8 -4 15 -10 15 -5 0
-7 -7 -4 -15z"/>
<path d="M3123 6513 c-15 -5 -17 -23 -4 -23 5 0 11 7 15 15 3 8 4 15 3 14 -1
0 -8 -3 -14 -6z"/>
<path d="M3007 6455 c-4 -8 -3 -16 1 -19 4 -3 9 4 9 15 2 23 -3 25 -10 4z"/>
<path d="M2850 6360 c0 -5 5 -10 11 -10 5 0 7 5 4 10 -3 6 -8 10 -11 10 -2 0
-4 -4 -4 -10z"/>
<path d="M2815 6239 c-4 -6 -5 -12 -2 -15 2 -3 7 2 10 11 7 17 1 20 -8 4z"/>
<path d="M2817 6199 c7 -7 15 -10 18 -7 3 3 -2 9 -12 12 -14 6 -15 5 -6 -5z"/>
<path d="M6385 6181 c-6 -11 13 -26 22 -17 4 3 0 6 -8 6 -11 0 -11 2 1 10 9 6
10 10 3 10 -6 0 -14 -4 -18 -9z"/>
<path d="M3230 5862 c0 -4 9 -8 19 -8 11 0 17 4 15 8 -3 4 -12 8 -20 8 -8 0
-14 -4 -14 -8z"/>
<path d="M4996 5845 c4 -8 8 -15 10 -15 2 0 4 7 4 15 0 8 -4 15 -10 15 -5 0
-7 -7 -4 -15z"/>
<path d="M4860 5845 c0 -2 6 -8 13 -14 10 -8 14 -7 14 2 0 8 -6 14 -14 14 -7
0 -13 -1 -13 -2z"/>
<path d="M4840 5826 c0 -2 7 -7 16 -10 8 -3 12 -2 9 4 -6 10 -25 14 -25 6z"/>
<path d="M5096 5814 c-5 -14 -4 -15 9 -4 17 14 19 20 6 20 -5 0 -12 -7 -15
-16z"/>
<path d="M3429 5803 c-13 -16 -12 -17 4 -4 9 7 17 15 17 17 0 8 -8 3 -21 -13z"/>
<path d="M3461 5806 c-9 -11 -7 -13 11 -12 13 1 29 -3 37 -8 12 -9 12 -7 1 14
-8 15 -15 20 -18 12 -2 -6 -8 -12 -13 -12 -6 0 -7 5 -4 10 9 15 -1 12 -14 -4z"/>
<path d="M4787 5801 c6 -7 9 -19 7 -26 -3 -7 -1 -15 3 -18 17 -10 12 32 -5 44
-14 11 -15 11 -5 0z"/>
<path d="M4604 5738 c-29 -24 -54 -32 -54 -18 0 4 -7 11 -16 14 -8 3 -12 2 -9
-3 3 -5 1 -13 -5 -16 -8 -5 -8 -11 -1 -19 6 -7 7 -17 3 -21 -4 -5 -1 -5 6 -1
7 4 10 11 7 16 -3 5 -1 11 5 15 5 3 10 2 10 -4 0 -5 9 -9 19 -8 11 0 17 5 15
9 -8 13 21 9 36 -4 12 -11 12 -10 1 4 -7 9 -10 22 -6 28 9 15 25 12 19 -3 -3
-8 3 -20 12 -28 16 -13 16 -12 7 6 -6 11 -8 25 -6 32 8 22 -15 23 -43 1z"/>
<path d="M5300 5740 c0 -5 7 -7 15 -4 8 4 15 8 15 10 0 2 -7 4 -15 4 -8 0 -15
-4 -15 -10z"/>
<path d="M6727 5739 c7 -7 15 -10 18 -7 3 3 -2 9 -12 12 -14 6 -15 5 -6 -5z"/>
<path d="M4448 5716 c-22 -16 -23 -27 -3 -20 10 4 14 1 12 -7 -2 -8 -2 -10 1
-6 2 4 11 2 20 -5 15 -11 15 -11 6 2 -6 8 -10 23 -9 33 4 20 -4 21 -27 3z"/>
<path d="M6714 5712 c2 -9 6 -16 10 -15 23 6 24 9 7 20 -16 10 -19 9 -17 -5z"/>
<path d="M3980 5709 c-11 -8 -12 -12 -2 -16 6 -2 10 -8 8 -12 -3 -4 4 -7 14
-7 15 0 17 3 7 15 -7 8 -10 16 -9 18 8 10 -5 11 -18 2z"/>
<path d="M4349 5718 c0 -2 -2 -13 -3 -25 -2 -18 0 -20 11 -11 10 8 11 13 2 18
-8 6 -8 9 2 13 10 4 10 6 2 6 -7 1 -13 0 -14 -1z"/>
<path d="M3930 5691 c0 -7 -5 -9 -12 -5 -7 5 -8 3 -3 -5 5 -9 10 -10 18 -2 6
6 8 14 4 18 -4 3 -7 1 -7 -6z"/>
<path d="M6776 5647 c3 -10 9 -15 12 -12 3 3 0 11 -7 18 -10 9 -11 8 -5 -6z"/>
<path d="M6800 5599 c0 -5 -6 -7 -12 -3 -7 4 -9 3 -5 -1 13 -15 36 -14 30 1
-6 17 -13 18 -13 3z"/>
<path d="M5443 5583 c4 -7 0 -16 -10 -22 -16 -10 -16 -10 4 -8 32 4 36 12 16
28 -9 8 -14 9 -10 2z"/>
<path d="M5375 5569 c-4 -6 -5 -12 -2 -15 2 -3 7 2 10 11 7 17 1 20 -8 4z"/>
<path d="M6866 5355 c-11 -8 -15 -15 -9 -15 6 0 16 7 23 15 16 19 11 19 -14 0z"/>
<path d="M6891 5274 c0 -11 3 -14 6 -6 3 7 2 16 -1 19 -3 4 -6 -2 -5 -13z"/>
<path d="M5498 5241 c8 -5 13 -11 13 -15 -1 -3 2 -6 6 -6 18 -1 8 26 -11 28
-14 1 -17 -1 -8 -7z"/>
<path d="M5475 5160 c-16 -7 -17 -9 -3 -9 9 -1 20 4 23 9 7 11 7 11 -20 0z"/>
<path d="M5470 5066 c0 -2 7 -7 16 -10 8 -3 12 -2 9 4 -6 10 -25 14 -25 6z"/>
<path d="M6863 5035 c0 -7 6 -11 14 -8 7 3 13 6 13 8 0 2 -6 5 -13 8 -8 3 -14
-1 -14 -8z"/>
<path d="M6865 5000 c-10 -11 -14 -20 -9 -20 5 0 15 9 22 20 7 11 11 20 9 20
-2 0 -12 -9 -22 -20z"/>
<path d="M5510 4889 c0 -5 5 -7 10 -4 6 3 10 8 10 11 0 2 -4 4 -10 4 -5 0 -10
-5 -10 -11z"/>
<path d="M6855 4820 c3 -5 8 -10 11 -10 2 0 4 5 4 10 0 6 -5 10 -11 10 -5 0
-7 -4 -4 -10z"/>
<path d="M5575 4769 c-10 -15 3 -25 16 -12 7 7 7 13 1 17 -6 3 -14 1 -17 -5z"/>
<path d="M5553 4676 c11 -9 14 -16 7 -19 -6 -3 -6 -5 2 -3 22 4 19 23 -4 29
-21 6 -22 5 -5 -7z"/>
<path d="M6793 4525 c0 -8 6 -16 14 -19 11 -4 11 -1 3 14 -13 24 -17 25 -17 5z"/>
<path d="M6810 4480 c0 -5 5 -10 11 -10 5 0 7 5 4 10 -3 6 -8 10 -11 10 -2 0
-4 -4 -4 -10z"/>
<path d="M5435 4450 c3 -5 8 -10 11 -10 2 0 4 5 4 10 0 6 -5 10 -11 10 -5 0
-7 -4 -4 -10z"/>
<path d="M5427 4425 c3 -8 9 -12 14 -9 12 7 11 11 -5 17 -10 4 -13 1 -9 -8z"/>
<path d="M5350 4360 c0 -5 5 -10 11 -10 5 0 7 -5 3 -12 -4 -7 -3 -8 5 -4 9 6
9 11 0 22 -14 17 -19 18 -19 4z"/>
<path d="M5270 4239 c0 -5 5 -7 10 -4 6 3 10 8 10 11 0 2 -4 4 -10 4 -5 0 -10
-5 -10 -11z"/>
<path d="M6647 4109 c7 -7 15 -10 18 -7 3 3 -2 9 -12 12 -14 6 -15 5 -6 -5z"/>
<path d="M6660 4079 c0 -5 5 -7 10 -4 6 3 10 8 10 11 0 2 -4 4 -10 4 -5 0 -10
-5 -10 -11z"/>
<path d="M6628 4043 c7 -3 16 -2 19 1 4 3 -2 6 -13 5 -11 0 -14 -3 -6 -6z"/>
<path d="M4999 3953 c-1 -5 -1 -12 0 -17 1 -5 -4 -6 -12 -3 -7 3 -14 -1 -14
-9 0 -19 30 -1 33 20 1 9 0 16 -2 16 -2 0 -5 -3 -5 -7z"/>
<path d="M4879 3873 c-13 -16 -12 -17 4 -4 16 13 21 21 13 21 -2 0 -10 -8 -17
-17z"/>
<path d="M6480 3881 c0 -5 7 -12 16 -15 14 -5 15 -4 4 9 -14 17 -20 19 -20 6z"/>
<path d="M6370 3695 c-7 -8 -17 -12 -24 -8 -6 3 -6 1 1 -7 21 -22 38 -19 39 6
2 28 1 29 -16 9z"/>
<path d="M4580 3696 c0 -2 7 -7 16 -10 8 -3 12 -2 9 4 -6 10 -25 14 -25 6z"/>
<path d="M6286 3651 c-3 -4 6 -19 20 -31 l24 -24 -16 32 c-17 34 -20 37 -28
23z"/>
<path d="M4450 3641 c0 -6 4 -13 10 -16 6 -3 7 1 4 9 -7 18 -14 21 -14 7z"/>
<path d="M4395 3620 c-3 -5 -1 -10 4 -10 6 0 11 5 11 10 0 6 -2 10 -4 10 -3 0
-8 -4 -11 -10z"/>
<path d="M6250 3539 c0 -5 5 -7 10 -4 6 3 10 8 10 11 0 2 -4 4 -10 4 -5 0 -10
-5 -10 -11z"/>
<path d="M4220 3526 c0 -2 8 -10 18 -17 15 -13 16 -12 3 4 -13 16 -21 21 -21
13z"/>
<path d="M6195 3520 c-2 -3 5 -6 15 -7 11 -1 22 2 24 5 3 4 -4 8 -15 8 -11 0
-22 -3 -24 -6z"/>
<path d="M6180 3490 c-8 -5 -10 -10 -5 -10 6 0 17 5 25 10 8 5 11 10 5 10 -5
0 -17 -5 -25 -10z"/>
<path d="M4139 3483 c-1 -5 -1 -11 0 -15 0 -5 -6 -8 -14 -8 -9 0 -12 -6 -8
-16 5 -15 7 -15 15 0 5 9 15 13 21 9 9 -5 8 -2 0 9 -7 8 -10 18 -6 21 3 4 3 7
0 7 -4 0 -8 -3 -8 -7z"/>
<path d="M6165 3460 c-3 -6 1 -7 9 -4 18 7 21 14 7 14 -6 0 -13 -4 -16 -10z"/>
<path d="M4066 3434 c-3 -8 -2 -13 3 -9 5 3 11 -1 14 -7 3 -7 4 -3 4 10 -1 25
-12 29 -21 6z"/>
<path d="M6075 3430 c3 -5 8 -10 11 -10 2 0 4 5 4 10 0 6 -5 10 -11 10 -5 0
-7 -4 -4 -10z"/>
<path d="M6090 3399 c0 -5 5 -7 10 -4 6 3 10 8 10 11 0 2 -4 4 -10 4 -5 0 -10
-5 -10 -11z"/>
<path d="M3821 3324 c0 -11 3 -14 6 -6 3 7 2 16 -1 19 -3 4 -6 -2 -5 -13z"/>
<path d="M3774 3299 c-4 -8 -3 -9 4 -5 19 11 14 -5 -5 -21 -16 -13 -16 -13 5
-3 12 6 22 15 22 20 0 15 -18 21 -26 9z"/>
<path d="M5850 3221 c0 -5 5 -13 10 -16 6 -3 10 -2 10 4 0 5 -4 13 -10 16 -5
3 -10 2 -10 -4z"/>
<path d="M5760 3140 c-8 -5 -11 -13 -6 -17 5 -4 11 -2 13 5 3 6 10 9 15 6 7
-4 8 -2 4 4 -9 14 -7 14 -26 2z"/>
<path d="M5724 3116 c-11 -12 -16 -51 -5 -40 3 3 6 9 6 12 0 4 4 13 9 20 11
18 4 23 -10 8z"/>
<path d="M3515 3100 c-3 -5 -1 -10 4 -10 6 0 11 5 11 10 0 6 -2 10 -4 10 -3 0
-8 -4 -11 -10z"/>
<path d="M5650 3083 c0 -5 4 -14 9 -21 7 -11 9 -11 14 1 3 8 3 18 0 21 -9 8
-23 7 -23 -1z"/>
<path d="M5566 3011 c-3 -4 6 -8 20 -9 13 -1 24 0 24 2 0 7 -40 14 -44 7z"/>
<path d="M5535 3001 c3 -5 1 -12 -4 -16 -12 -7 -3 -35 11 -35 5 0 6 5 3 10 -3
6 1 13 9 16 13 5 13 8 1 20 -15 16 -29 19 -20 5z"/>
<path d="M3348 2983 c6 -2 18 -2 25 0 6 3 1 5 -13 5 -14 0 -19 -2 -12 -5z"/>
<path d="M3292 2961 c-11 -7 -11 -9 0 -14 9 -3 15 1 15 9 0 8 -1 14 -1 14 -1
0 -7 -4 -14 -9z"/>
<path d="M3263 2926 c0 -7 9 -12 19 -12 10 0 18 3 18 7 0 4 -8 9 -18 11 -10 3
-19 0 -19 -6z"/>
<path d="M3227 2913 c3 -7 8 -13 12 -13 4 0 8 6 8 13 0 8 -6 14 -13 14 -7 0
-10 -6 -7 -14z"/>
<path d="M5479 2913 c-13 -16 -12 -17 4 -4 16 13 21 21 13 21 -2 0 -10 -8 -17
-17z"/>
<path d="M5320 2911 c-8 -6 -17 -8 -20 -6 -3 2 -11 -5 -18 -16 -7 -11 -8 -19
-2 -19 5 0 10 5 10 11 0 8 5 7 15 -1 13 -11 14 -10 9 4 -3 9 -2 16 4 16 6 0
12 -6 15 -12 3 -7 4 -3 4 10 -1 12 -1 22 -2 22 0 0 -7 -4 -15 -9z"/>
<path d="M5168 2873 c-5 -7 -14 -11 -18 -8 -4 3 -13 -1 -19 -9 -9 -10 -8 -15
3 -19 11 -4 13 -1 9 11 -6 15 -4 15 10 4 13 -12 18 -11 33 6 16 19 50 20 38 1
-3 -5 2 -6 10 -3 11 4 12 9 4 18 -15 16 -56 15 -70 -1z m22 3 c0 -2 -8 -10
-17 -17 -16 -13 -17 -12 -4 4 13 16 21 21 21 13z"/>
<path d="M3015 2780 c-3 -5 -1 -10 4 -10 6 0 11 5 11 10 0 6 -2 10 -4 10 -3 0
-8 -4 -11 -10z"/>
<path d="M4878 2743 c-14 -13 -20 -14 -32 -4 -11 10 -17 7 -28 -17 -12 -23
-12 -29 -2 -29 7 0 12 3 10 6 -6 10 18 26 43 29 19 2 22 0 12 -12 -8 -10 -9
-16 -1 -21 6 -4 10 -3 9 2 -1 4 0 10 1 13 2 6 7 50 5 50 0 0 -8 -7 -17 -17z"/>
<path d="M2905 2740 c-3 -6 1 -7 9 -4 18 7 21 14 7 14 -6 0 -13 -4 -16 -10z"/>
<path d="M2956 2741 c-3 -4 1 -16 8 -26 12 -16 13 -16 19 -1 4 10 1 16 -9 16
-8 0 -12 5 -9 10 3 6 4 10 1 10 -3 0 -7 -4 -10 -9z"/>
<path d="M4910 2741 c0 -6 4 -13 10 -16 6 -3 7 1 4 9 -7 18 -14 21 -14 7z"/>
<path d="M4642 2626 c7 -8 15 -12 17 -11 5 6 -10 25 -20 25 -5 0 -4 -6 3 -14z"/>
<path d="M2476 2464 c-5 -13 -4 -14 7 -6 8 7 18 8 22 4 5 -4 5 -1 1 6 -10 17
-23 15 -30 -4z"/>
<path d="M2390 2460 c0 -5 5 -10 11 -10 5 0 7 5 4 10 -3 6 -8 10 -11 10 -2 0
-4 -4 -4 -10z"/>
<path d="M4110 2396 c0 -2 8 -10 18 -17 15 -13 16 -12 3 4 -13 16 -21 21 -21
13z"/>
<path d="M2216 2342 c-3 -4 4 -9 15 -9 23 -2 25 3 4 10 -8 4 -16 3 -19 -1z"/>
<path d="M2095 2289 c-4 -6 -5 -12 -2 -15 2 -3 7 2 10 11 7 17 1 20 -8 4z"/>
<path d="M2045 2260 c-16 -7 -17 -9 -3 -9 9 -1 20 4 23 9 7 11 7 11 -20 0z"/>
<path d="M3706 2227 c2 -7 15 -12 29 -12 28 0 19 13 -13 20 -13 2 -19 -1 -16
-8z"/>
<path d="M1930 2178 c0 -4 4 -8 9 -8 6 0 12 4 15 8 3 5 -1 9 -9 9 -8 0 -15 -4
-15 -9z"/>
<path d="M3551 2124 c0 -11 3 -14 6 -6 3 7 2 16 -1 19 -3 4 -6 -2 -5 -13z"/>
<path d="M1885 2120 c-3 -6 1 -7 9 -4 18 7 21 14 7 14 -6 0 -13 -4 -16 -10z"/>
<path d="M3496 2102 c-2 -4 -1 -14 4 -22 7 -11 9 -9 7 8 -1 24 -3 26 -11 14z"/>
<path d="M3445 2089 c-11 -16 -1 -19 13 -3 7 8 8 14 3 14 -5 0 -13 -5 -16 -11z"/>
<path d="M1835 2060 c-3 -5 -1 -10 4 -10 6 0 11 5 11 10 0 6 -2 10 -4 10 -3 0
-8 -4 -11 -10z"/>
<path d="M1833 2025 c0 -8 4 -15 9 -15 4 0 8 4 8 9 0 6 -4 12 -8 15 -5 3 -9
-1 -9 -9z"/>
<path d="M1880 1980 c-9 -6 -10 -10 -3 -10 6 0 15 5 18 10 8 12 4 12 -15 0z"/>
<path d="M1820 1964 c0 -1 8 -8 17 -15 14 -12 16 -12 8 0 -6 11 -4 13 9 8 9
-4 15 -3 11 2 -4 8 -45 12 -45 5z"/>
<path d="M3144 1928 c3 -15 26 -23 26 -8 0 6 -4 9 -9 6 -5 -4 -12 -1 -14 4 -3
6 -4 5 -3 -2z"/>
<path d="M3070 1900 c0 -5 5 -10 11 -10 5 0 7 5 4 10 -3 6 -8 10 -11 10 -2 0
-4 -4 -4 -10z"/>
<path d="M3009 1888 c0 -2 -2 -13 -3 -26 -2 -14 1 -19 7 -13 5 5 15 8 21 7 6
-2 8 -1 4 1 -5 3 -8 11 -8 19 0 11 -18 21 -21 12z"/>
<path d="M3065 1860 c-3 -6 1 -7 9 -4 18 7 21 14 7 14 -6 0 -13 -4 -16 -10z"/>
<path d="M2926 1812 c-2 -4 -1 -14 3 -21 6 -10 10 -9 14 3 6 16 -8 32 -17 18z"/>
<path d="M2707 1736 c-4 -9 0 -14 11 -14 9 0 24 -1 32 -4 8 -3 12 -3 7 -1 -4
3 -5 9 -2 13 3 5 0 12 -6 16 -8 4 -9 3 -5 -4 9 -15 -6 -16 -21 -1 -7 7 -12 6
-16 -5z"/>
<path d="M1874 1731 c4 -6 2 -19 -5 -27 -10 -12 -9 -13 5 -8 19 7 21 30 4 40
-7 4 -8 3 -4 -5z"/>
<path d="M2601 1682 c-1 -8 -6 -10 -13 -6 -10 5 -10 4 -1 -6 15 -16 28 -8 20
12 -4 11 -6 11 -6 0z"/>
<path d="M2547 1644 c7 -20 30 -24 43 -8 7 8 9 14 4 15 -5 0 -19 2 -31 3 -13
2 -19 -2 -16 -10z"/>
<path d="M2530 1610 c-9 -6 -10 -10 -3 -10 6 0 15 5 18 10 8 12 4 12 -15 0z"/>
<path d="M1933 1530 c-1 -11 2 -20 7 -20 4 0 7 7 6 15 -3 23 -12 26 -13 5z"/>
<path d="M1970 1499 c0 -5 5 -7 10 -4 6 3 10 8 10 11 0 2 -4 4 -10 4 -5 0 -10
-5 -10 -11z"/>
<path d="M2415 1501 c-3 -5 -2 -12 3 -15 5 -3 9 1 9 9 0 17 -3 19 -12 6z"/>
<path d="M2055 1461 c-3 -5 -2 -12 3 -15 5 -3 9 1 9 9 0 17 -3 19 -12 6z"/>
<path d="M2116 1458 c3 -4 11 -5 19 -1 21 7 19 12 -4 10 -11 0 -18 -5 -15 -9z"/>
</g>
</svg>
