<?xml version="1.0" encoding="UTF-8" standalone="no"?>
<svg
   version="1.0"
   width="1024.000000pt"
   height="1024.000000pt"
   viewBox="0 0 1024.000000 1024.000000"
   preserveAspectRatio="xMidYMid meet"
   id="svg14"
   sodipodi:docname="ã­.svg"
   xmlns:inkscape="http://www.inkscape.org/namespaces/inkscape"
   xmlns:sodipodi="http://sodipodi.sourceforge.net/DTD/sodipodi-0.dtd"
   xmlns="http://www.w3.org/2000/svg"
   xmlns:svg="http://www.w3.org/2000/svg">
  <defs
     id="defs18" />
  <sodipodi:namedview
     id="namedview16"
     pagecolor="#ffffff"
     bordercolor="#666666"
     borderopacity="1.0"
     inkscape:pageshadow="2"
     inkscape:pageopacity="0.0"
     inkscape:pagecheckerboard="0"
     inkscape:document-units="pt" />
  <metadata
     id="metadata2">
Created by potrace 1.16, written by Peter Selinger 2001-2019
</metadata>
  <g
     transform="translate(0.000000,1024.000000) scale(0.100000,-0.100000)"
     fill="#000000"
     stroke="none"
     id="g12">
    <path
       d="m 4470,9691 c -160.0754,-26.9275 -267.8411,-132.7632 -398,-227 -169.2391,-223.5096 -399.6954,-404.9441 -481,-684 -91.1107,-174.4761 -117.8586,-317.3896 -180,-500 -94.9324,-179.746 -138.7013,-379.7069 -215,-566 -67.935,-116.1401 -404.6443,-244.6711 -311.5,-148.75 -109.6039,-52.6437 -486.7356,-183.8711 -385.5,-149.25 -18.2137,-62.5104 -352.9126,-112.1574 -179,-103 -79.9843,-16.9641 -397.4893,-164.6275 -317,-132 -131.3471,-57.0844 -299.2973,-82.3391 -213.75,-51.25 -103.4238,63.9212 -801.02876,-483.9242 -403,-123 24.6032,-16.9947 135.2387,-103.1692 19.75,-100 9.6462,-83.6338 143.4676,-432.107 108,-337.75 49.6617,55.646 122.6098,110.7541 127.4436,97.3319 90.6275,56.0667 -30.8202,20.0442 -52.4436,12.6681 -120.5016,-182.3355 30.3335,478.1884 -52,111 -7.3504,-213.0993 -124.8943,-10.8363 30,75 -30.8981,159.9899 138.2701,139.9364 77,66 37.0893,1.2456 242.587,-115.2612 116.125,-21 -24.6061,-30.4045 -80.6821,-87.4741 -103.8594,-136.3125 14.9682,-158.2403 183.713,-102.3107 167.7344,-20.6875 103.881,65.9031 374.3701,228.0596 315,153 104.0443,-63.2227 507.7973,110.3876 376,104 245.4756,-28.747 283.9851,178.4199 357,55 105.1184,-83.845 -158.9586,-975.1899 8.7656,-724.3438 C 2821.8748,6133.4328 3062.1788,5678.2486 3012,5818 c 46.6971,-152.7166 120.1605,-573.9611 111,-410 67.4828,-283.4739 177.0358,-609.4472 251,-911 12.5044,-161.9924 227.3533,-509.4563 167,-412 52.0297,-98.8065 310.4216,-475.7345 210,-339 23.9812,-78.5808 159.8201,-319.2597 153,-255 88.3691,-38.7674 390.9073,-724.4222 208,-327 83.7812,-86.7791 201.9009,-377.6771 150,-278 87.1365,-130.4156 134.1444,-429.3388 79,-247.5 59.6637,-87.0777 218.4995,-367.6502 149,-268.5 17.2976,-70.7995 131.5623,-262.7721 127,-201 138.5871,-139.927 391.4959,-620.4193 250.125,-501.875 12.5256,-54.4505 63.0324,-306.8894 47.375,-232.875 118.5112,-65.7248 47.1173,321.0694 4.5,326.75 -22.0073,48.45 -97.4565,96.6736 -43.75,94.25 12.9876,168.6063 -112.4622,779.5047 -60.25,576.75 -71.4289,362.6722 355.4547,-110.3921 -22,528 -175.0132,348.942 -268.742,181.2792 -289,428 -189.5797,279.7963 -320.7029,585.4565 -470.875,885.75 -4.7887,89.3541 -58.0586,220.7983 -38.125,223.25 -33.2264,179.2928 -1.3188,645.8311 -23.75,582.75 -17.5645,111.076 186.3822,341.7816 94.75,288.25 33.0035,61.263 46.6615,51.2787 154,97 -67.6895,58.8552 72.3821,17.943 37,57 95.4601,-75.1458 305.3244,119.6898 215,107 -71.4044,68.6106 -6.4233,228.7307 42,123 77.209,-178.4625 27.9415,125.914 111,88 115.7693,6.4628 146.4942,139.9776 81,58 128.8768,156.7534 145.8921,95.7535 40,-26 33.4915,14.9364 252.77,167.8126 196,177 122.1219,33.9013 284.0912,271.301 210,212 89.984,172.0622 155.6053,328.3282 145,306 173.5156,229.3781 -68.6433,604.4238 5.375,465.875 -151.6515,302.0978 -523.9668,333.3623 -770.75,496.875 -29.2613,-31.8344 -11.1071,-85.3297 -123.625,-3.75 49.1494,-71.6067 -96.111,37.6938 -79.75,-18 -45.2497,-58.2156 -45.9279,-243.9443 4.125,-135 -88.796,-26.6854 -62.1294,28.8169 -85.375,57 163.4568,240.3502 -107.3383,96.9964 -97,42 -53.0592,2.829 -77.3546,23.1251 -50,38 -15.1427,120.2511 163.2992,2.3156 117.125,17.25 -20.2896,42.0434 94.3952,-3.8359 29.875,51.75 19.111,-4.6731 -75.3868,102.6999 67,25 -105.7264,72.7526 -276.1368,169.7259 -210,91 -39.6261,111.8499 8.9169,398.9027 7,248 57.6616,101.838 243.917,296.5999 165,245 -41.0709,-45.6758 621.346,1061.6186 179,350 144.4947,35.2698 255.9244,120.8836 180,58 135.7195,193.0429 -225.473,403.0295 -149,327 -72.1208,91.6368 60.767,127.7311 58,89 32.2575,-46.7634 77.2846,-69.0084 113,2 11.6934,-19.4304 -120.5236,-126.0938 -38,-90 -199.5723,18.5355 50.4467,128.7495 79.5,-0.625 61.3477,8.3534 12.1097,283.9637 46.625,123.875 -57.6078,56.4132 -109.1543,135.0158 -79.625,86.25 -119.4922,-110.8909 -170.4448,161.108 -145.5,83.5 -94.8936,107.0862 129.2105,289.9561 140,198 99.764,97.6075 -101.6285,254.6028 -190,276 z M 4070,7358 c 33.4374,-191.8014 181.6272,-126.3041 108,-53 120.99,-81.0415 37.3323,-262.8821 8,-165 -17.945,35.7966 32.1135,-183.6644 21,-141 409.6951,-141.5211 186.3162,6.6313 103,4 90.3457,-73.4522 190.5247,82.4449 96.75,115 8.734,-179.5191 115.4859,-152.4377 114.25,-41 -79.7599,-183.3169 -19.88,-116.1937 22,-84 -82.8744,-24.7594 -185.0079,-54.3132 -96,-42 -102.3089,20.1402 189.8487,-62.1749 48,-41 22.8539,-28.0519 253.4113,-51.1765 189,-58 6.9962,-14.6525 226.0656,-224.7131 130.75,-87.375 32.9322,-81.1865 41.3864,-276.9153 97.75,-167.625 1.6535,-94.833 -177.7655,-339.2643 -135.5,-296.5 -144.3916,-166.5149 -344.3344,-64.2652 -478.0781,-244.0938 C 4200.6806,5943.6576 3711.7407,5887.3656 3822,5754 c -14.1981,154.8117 -42.4855,699.2007 -30.8672,522.1035 C 3773.4541,6604.1278 3767.545,6928.4321 3939,7165 c 57.6582,173.9519 9.4318,-37.4027 24,7 -47.5535,-173.4389 69.666,82.097 24,42 46.6341,131.6645 78.5876,176.2062 61,182 z m 83,-1632 c -49.089,-20.8036 -189.4912,-162.801 -85.25,-138.25 -185.8323,-78.3548 26.5447,223.8323 16.25,132.25 -4.6675,33.4686 59.6425,-4.8707 69,6 z m 395,-2928 c 62.7226,-20.3652 299.237,-98.4523 172.75,-51.625 27.4152,-77.0854 -173.4396,-20.8299 -67.875,-53.25 -37.2638,34.6895 -171.577,94.806 -104.875,104.875 z"
       id="path4" />
    <path
       d="m 4015,7330 c -6.1647,-149.7991 208.4194,-139.2035 132,-133 131.0661,153.4835 -89.8759,303.5311 -112.25,136.75 z"
       id="path6" />
    <path
       d="m 6954,7019 c 21.5588,1.382 -179.2073,-33.6551 -169,-29 -238.1993,4.8744 -534.885,-228.0454 -398,-158.875 -123.718,-72.8554 -428.2013,-266.7858 -301,-223.125 -112.551,-32.9039 -399.6231,-118.3935 -286,-96 -145.7939,-14.4418 -259.3078,-116.0552 -256,-110 -62.3419,71.4968 -136.9296,-165.854 -101,-132 22.0583,-138.2546 402.8396,-233.2566 307,-210 80.2197,-14.4316 303.7008,-11.8031 237,-32.5 104.0286,-25.8246 334.5079,-118.9535 248,-87.5 138.1309,-40.5307 439.1692,86.0683 332,73 105.5533,110.2911 -109.784,1.075 -47,94 -166.6069,-47.81 162.1342,227.4822 105,153 61.0151,176.5918 538.8662,177.5263 360,106 47.8082,119.3577 303.109,-75.7077 268,-32 74.1158,-13.131 199.4005,30.2002 122,1 113.0319,-83.3771 247.9807,-352.8236 195.5,-213.875 -7.2085,-29.343 147.4123,-208.0557 145.25,-158 -81.0009,84.1681 293.0127,-588.1554 158.25,-349.125 -8.9247,-68.0322 82.3654,-172.1306 91.375,-198.875 113.05,70.2294 99.0299,-353.4337 18.625,-221.125 -13.3681,-8.4104 36.0514,-284.8632 19,-224 -0.354,-121.5155 55.7317,-400.9607 22.5,-306.125 -35.555,-79.2987 -75.2322,-272.331 -40.5,-202.875 38.7097,-90.0447 -131.4247,-395.6251 -102,-334 -45.8809,-166.6773 -174.3308,-301.6596 -162,-327 -161.1152,-105.8954 -658.8202,-208.4098 -499,-118 -283.259,-62.0546 -585.5869,-116.182 -837,-271 -127.839,-138.279 -108.6807,-354.8708 -222.125,-502.75 -32.1439,-168.953 -33.3424,-429.4279 -43.875,-339.25 -88.3061,-205.744 138.9447,-530.8225 251.125,-258.5 55.3383,143.0756 171.8604,449.8097 106.875,305.5 109.1552,164.526 199.4715,394.4479 173,359 -7.338,89.7132 111.1026,186.8282 150,202 165.3815,44.5863 235.5129,-19.2352 249,-1 234.1274,6.2147 186.5741,59.1302 311,129 33.4123,-9.6956 279.9268,-22.2842 272.125,66.75 C 7612.2213,3355.8299 7483.641,3077.8099 7527,3158 c -62.2657,-181.1491 -78.3871,-359.1689 -154,-527 -46.0175,-105.7345 -285.8804,-453.5939 -203,-332 -80.5102,-100.4005 -369.4328,-572.8089 -307,-381 -51.1866,-167.7122 -145.0196,-262.7761 -123,-233 -24.9187,-79.9669 -10.4403,-288.0475 -80,-244 159.3526,-1.2331 183.4239,66.8192 180,79 15.2453,50.9802 112.7625,229.6792 93,179.875 41.9587,46.9413 100.653,122.3531 101,139.125 13.8611,-6.1838 166.6426,-110.962 30,-159 107.085,16.6915 496.7934,362.5472 380,210 72.4899,248.6463 215.3094,438.6837 310,680 57.6016,104.4934 163.9855,390.6921 125,303 62.081,117.5508 217.0005,426.3243 154,334 -5.587,67.7133 318.0889,-84.3481 207,-2 84.1773,-52.0942 416.2923,-148.7657 300,-97 135.5633,-43.7163 251.507,-111.3501 233,-99 14.7079,-42.8302 54.7572,-170.2731 66,-154 65.037,-105.654 121.2675,-193.1462 113,-172 -1.1562,-65.5172 31.2504,-299.685 64.125,-257.125 26.5884,-86.5803 19.3517,-300.6312 21.875,-216.875 -20.1993,-76.3449 58.0478,-97.0321 42,-199 26.7801,15.5457 162.0528,37.6322 96.125,-46.25 -6.5295,121.314 40.9209,298.3448 36,234.5 9.0765,-36.8467 100.2136,201.7549 58.375,140.5 51.1387,70.1052 15.171,221.5623 20.5,208.25 -73.5177,115.7093 -190.1822,229.3237 -173,207 -38.1559,72.7889 -126.2563,229.1751 -80.5,154.75 -35.0235,93.3033 -263.0865,306.047 -176.5,249.25 -76.5949,81.5221 -339.6615,206.7249 -235,143 -112.0417,71.9555 -303.7416,226.3902 -208,129 -265.1273,178.6073 -35.7175,421.8565 -13,440 52.9871,156.6518 112.3081,330.3313 179,458 55.9993,449.4401 76.2164,-92.1993 45.625,554.75 8.0697,251.5103 -110.3389,535.4303 -159.875,753.875 -48.0541,67.515 -121.4208,348.8337 -99.75,253.375 -90.0106,212.7661 -53.9035,82.3958 -145,290 -71.6005,116.1352 -441.4354,456.6952 -315,350 -175.2411,128.2384 -357.0771,241.4131 -524.25,380.625 -51.459,35.327 -318.6381,74.4255 -253.75,94.375 -60.0962,2.5 -99.6184,12.2707 -178,14 z M 9134,2600 c 22.5963,-82.371 120.2677,-218.7234 40,-234.25 -132.6573,8.086 -147.3752,39.5917 -107.875,0 37.9798,212.3601 -24.1394,78.0796 3.875,180.25 47.0106,-74.8462 33.4766,154.7676 64,54 z"
       id="path8" />
    <path
       d="m 2740,4713 c -193.205,-58.2367 -371.9718,-198.2421 -462,-362 -35.5984,-175.9443 -82.6963,-433.5793 -212,-605 -33.0705,-104.7501 -168.8936,-264.7692 -130,-217 -61.9248,-97.102 -170.1391,-422.0957 99,-298 159.8462,40.7357 252.7775,172.1162 382,265 -65.5429,-83.8439 -422.4667,-449.6456 -286,-306 -151.0442,-87.6916 -291.8319,-211.1578 -304,-246 -52.1941,-61.4177 -259.5607,-65.5207 -321.125,-187 C 1403.9496,2630.9842 1101.7366,2373.3408 1195,2474 1038.9709,2399.4961 650.31656,2084.7916 820,2144 688.00805,2059.6758 625.86446,1938.4309 486,1848 357.435,1751.1658 206.15342,1588.8606 242,1660.625 47.220888,1564.4239 492.31235,1665.5934 376,1538 c -53.77317,134.2182 785.9333,-366.2545 201,-35 162.30292,163.9417 235.83143,300.3989 343,297 194.6108,125.457 410.6973,213.0094 594.875,356.75 112.405,39.9602 444.328,226.539 325.125,163.25 158.9551,78.1184 612.4907,212.8708 439,165 181.403,166.4302 660.4451,749.4577 533,529 74.9414,115.1331 353.5915,531.3049 267.125,378.25 -12.5184,139.8998 232.0208,571.0276 180.875,422.75 165.5559,255.3789 63.4815,636.1845 -160,820 -104.6865,87.2198 -240.3154,71.679 -360,78 z m 45,-623 c -0.5854,-179.6377 -85.0491,-318.8613 -75,-367 -122.049,-206.1415 -171.1997,15.6748 -159,-7 92.279,49.1167 193.9495,229.1967 117.375,258.25 -26.5369,6.0547 122.275,81.5257 116.625,115.75 z M 346,1701 c -49.43163,-116.5552 155.50926,64.0844 6,-129.25 -100.22971,199.8975 -16.37859,-77.0628 -77,116.25 43.72713,-49.7897 35.99749,13.747 71,13 z"
       id="path10" />
  </g>
</svg>
