<?xml version="1.0" standalone="no"?>
<!DOCTYPE svg PUBLIC "-//W3C//DTD SVG 20010904//EN"
 "http://www.w3.org/TR/2001/REC-SVG-20010904/DTD/svg10.dtd">
<svg version="1.0" xmlns="http://www.w3.org/2000/svg"
 width="1024.000000pt" height="1024.000000pt" viewBox="0 0 1024.000000 1024.000000"
 preserveAspectRatio="xMidYMid meet">
<metadata>
Created by potrace 1.16, written by Peter Selinger 2001-2019
</metadata>
<g transform="translate(0.000000,1024.000000) scale(0.100000,-0.100000)"
fill="#000000" stroke="none">
<path d="M4470 9691 c0 -5 -8 -8 -17 -8 -40 0 -54 -3 -49 -12 3 -5 -6 -8 -20
-8 -15 0 -30 -7 -35 -14 -5 -8 -9 -10 -9 -5 0 5 -6 3 -13 -3 -8 -6 -17 -8 -20
-4 -4 3 -7 1 -7 -5 0 -6 -7 -9 -17 -5 -9 4 -14 2 -11 -3 6 -9 -8 -26 -27 -35
-5 -2 -9 -7 -8 -10 1 -3 -3 -6 -10 -6 -15 0 -107 -64 -107 -75 0 -4 -7 -8 -16
-8 -8 0 -12 -4 -9 -10 3 -5 -2 -10 -11 -10 -10 0 -15 -2 -12 -6 3 -3 -9 -21
-28 -41 -19 -19 -31 -40 -27 -46 3 -5 2 -8 -3 -5 -5 2 -23 -10 -41 -29 -18
-18 -30 -33 -27 -33 6 0 -7 -13 -59 -57 -21 -18 -35 -33 -31 -33 4 0 -6 -11
-22 -25 -16 -14 -25 -25 -20 -25 5 0 -1 -9 -14 -20 -13 -11 -19 -20 -14 -20 5
0 2 -6 -7 -13 -8 -7 -18 -20 -22 -30 -4 -10 -11 -16 -16 -13 -5 3 -7 -3 -4
-14 3 -12 1 -20 -5 -18 -5 2 -11 -1 -13 -7 -2 -5 -13 -19 -25 -30 -11 -11 -19
-26 -17 -32 3 -7 0 -13 -5 -13 -5 0 -13 -10 -17 -22 -4 -13 -8 -25 -9 -28 -1
-3 -10 -21 -21 -40 -19 -34 -25 -53 -27 -77 -1 -7 -4 -13 -7 -13 -9 0 -36 -63
-33 -77 2 -7 -1 -13 -7 -13 -5 0 -12 -13 -16 -30 -4 -16 -10 -30 -14 -30 -5 0
-7 -11 -6 -25 2 -14 -1 -25 -6 -25 -5 0 -9 -9 -9 -19 0 -11 -6 -22 -12 -24
-10 -4 -9 -6 1 -6 11 -1 10 -6 -4 -21 -10 -11 -15 -20 -12 -20 3 0 -1 -19 -9
-42 -9 -24 -17 -50 -19 -58 -2 -8 -4 -17 -5 -20 -1 -3 -2 -9 -1 -14 1 -4 -4
-14 -10 -22 -6 -8 -8 -14 -4 -14 4 0 2 -6 -4 -13 -6 -8 -8 -17 -4 -20 3 -4 1
-7 -6 -7 -7 0 -10 -4 -6 -9 3 -5 0 -13 -6 -16 -5 -4 -8 -13 -5 -21 3 -7 1 -16
-3 -19 -5 -2 -12 -17 -16 -32 -3 -16 -18 -43 -33 -62 -14 -19 -19 -31 -11 -26
8 4 4 -3 -9 -17 -13 -14 -22 -29 -20 -34 1 -5 -3 -19 -10 -30 -6 -12 -9 -24
-5 -27 3 -4 0 -13 -7 -22 -7 -8 -10 -22 -6 -30 3 -8 1 -15 -4 -15 -5 0 -7 -11
-4 -25 2 -14 0 -25 -6 -25 -6 0 -8 -4 -5 -10 3 -5 1 -10 -5 -10 -6 0 -10 -8
-9 -17 2 -10 -7 -37 -19 -59 -11 -23 -18 -44 -15 -48 3 -3 -2 -8 -11 -12 -9
-3 -16 -12 -16 -20 0 -8 -5 -14 -11 -14 -5 0 -8 -4 -5 -9 13 -20 -82 -46 -96
-26 -5 6 -8 5 -8 -3 0 -7 -4 -10 -10 -7 -5 3 -10 1 -10 -5 0 -8 -6 -8 -20 0
-11 6 -19 7 -18 3 2 -4 -1 -10 -7 -11 -5 -2 -19 -9 -30 -15 -11 -6 -23 -10
-27 -9 -5 1 -8 -3 -8 -9 0 -5 -4 -7 -10 -4 -5 3 -10 2 -10 -3 0 -10 -47 -27
-63 -23 -5 1 -6 -3 -2 -9 5 -8 -10 -15 -18 -7 -1 1 -13 -7 -25 -19 -13 -12
-33 -20 -47 -19 -13 2 -26 -3 -29 -10 -3 -8 -13 -11 -27 -8 -13 4 -20 2 -16
-4 3 -5 -4 -9 -16 -7 -12 1 -32 -5 -45 -13 -12 -7 -27 -11 -32 -8 -6 3 -10 1
-10 -4 0 -6 -5 -11 -11 -11 -7 0 -18 -8 -26 -17 -8 -11 -11 -12 -7 -3 7 13 5
13 -9 2 -9 -8 -22 -10 -28 -6 -8 4 -9 3 -5 -4 4 -7 2 -12 -4 -12 -6 0 -9 -4
-6 -9 4 -5 -4 -7 -16 -3 -14 3 -19 2 -14 -6 5 -8 -2 -12 -18 -12 -14 0 -26 -5
-26 -10 0 -6 -11 -8 -25 -6 -13 3 -24 2 -24 -2 3 -19 -3 -23 -16 -12 -13 11
-14 10 -9 -5 5 -13 4 -16 -4 -11 -8 4 -12 0 -12 -11 0 -14 -2 -15 -9 -5 -10
17 -22 17 -32 1 -4 -7 -18 -14 -30 -16 -13 -2 -26 -8 -30 -14 -3 -6 -12 -11
-20 -13 -36 -6 -59 -18 -53 -28 4 -6 3 -8 -3 -5 -5 3 -21 0 -36 -8 -15 -8 -27
-11 -27 -8 0 3 -10 -2 -22 -13 -13 -12 -18 -13 -13 -4 7 12 6 13 -7 3 -8 -7
-18 -10 -21 -6 -4 3 -7 1 -7 -5 0 -7 -3 -11 -7 -11 -5 1 -10 1 -13 -1 -3 -1
-16 -3 -30 -6 -14 -2 -34 -14 -44 -27 -14 -16 -18 -17 -13 -4 4 9 2 17 -3 17
-6 0 -10 -6 -10 -12 0 -9 -4 -8 -10 2 -5 8 -10 10 -10 4 0 -7 -7 -15 -16 -18
-15 -6 -15 -4 -3 11 11 15 10 15 -9 -1 -12 -11 -25 -16 -29 -13 -3 4 -12 -1
-20 -11 -9 -10 -11 -11 -7 -2 6 12 5 13 -7 3 -8 -6 -27 -10 -42 -9 -15 2 -27
-2 -27 -7 0 -7 -4 -7 -12 1 -9 9 -15 7 -25 -6 -14 -16 -14 -16 -9 2 5 16 4 17
-8 6 -9 -6 -45 -13 -81 -13 -36 -1 -65 -5 -65 -9 0 -4 -9 -5 -20 -3 -11 2 -20
0 -20 -4 0 -5 -14 -11 -30 -15 -17 -3 -29 -11 -28 -18 2 -7 -2 -12 -8 -11 -7
1 -14 -7 -17 -17 -3 -13 -1 -18 6 -13 7 3 9 3 5 -2 -4 -4 -3 -13 2 -20 7 -8 5
-12 -5 -12 -8 0 -12 4 -10 8 3 4 -2 10 -11 13 -9 3 -12 2 -9 -5 4 -5 1 -17 -7
-26 -11 -14 -11 -15 0 -9 11 7 11 4 1 -12 -10 -17 -10 -23 4 -37 15 -15 21
-13 18 7 0 4 6 5 15 1 13 -5 13 -7 2 -14 -10 -7 -9 -9 5 -9 15 0 16 -3 7 -20
-8 -16 -8 -20 2 -18 8 2 13 -8 14 -24 1 -15 6 -33 12 -40 6 -8 13 -26 16 -42
3 -15 11 -35 18 -44 11 -13 11 -14 -2 -7 -13 8 -13 6 1 -15 9 -14 14 -42 13
-63 -1 -22 0 -36 3 -33 3 3 12 -2 20 -12 8 -9 11 -11 7 -3 -5 11 -3 13 10 8 9
-4 15 -3 11 2 -3 5 0 11 6 13 6 2 12 17 12 32 0 18 2 24 8 15 4 -7 6 -16 3
-20 -2 -4 1 -11 7 -15 8 -4 9 -3 5 4 -4 7 -2 12 4 12 6 0 8 5 5 10 -3 6 1 10
9 10 8 0 22 12 31 28 15 26 16 26 10 2 l-6 -25 14 24 c9 16 17 20 21 12 4 -6
12 -9 17 -5 5 3 7 10 3 15 -3 5 -10 7 -15 4 -5 -4 -9 -1 -9 5 0 7 -6 8 -19 0
-23 -12 -34 -13 -27 -2 2 4 -4 8 -15 8 -18 0 -18 -2 -5 -12 9 -6 12 -15 8 -19
-4 -5 -1 -5 5 -1 9 5 11 2 7 -9 -5 -13 -10 -10 -25 14 -10 17 -21 31 -24 31
-11 0 0 -35 15 -49 9 -8 5 -7 -11 2 -28 17 -41 14 -33 -8 3 -7 0 -16 -7 -21
-8 -4 -10 -3 -5 4 4 6 -1 23 -10 37 -15 23 -15 25 0 19 12 -5 16 0 16 21 0 16
-4 24 -11 19 -6 -3 -4 5 5 18 9 14 13 28 9 31 -3 4 -2 7 4 7 7 0 10 -20 8 -52
-2 -29 0 -46 5 -38 4 7 7 26 5 41 -3 22 0 27 15 26 10 -1 17 -4 15 -7 -2 -3 5
-12 17 -19 11 -7 17 -8 13 -2 -3 6 -2 11 2 11 5 0 9 12 10 28 1 15 3 36 5 47
3 11 -4 27 -16 37 -20 17 -20 18 -1 11 17 -6 18 -5 7 10 -14 16 -43 13 -39 -5
1 -6 -6 -12 -16 -13 -11 -2 -16 -1 -13 2 3 4 -2 15 -11 26 -10 11 -12 17 -5
13 11 -7 17 12 13 37 -1 5 3 6 9 2 5 -3 10 -2 10 4 0 6 7 8 15 5 8 -4 12 -10
9 -15 -3 -5 -9 -7 -14 -4 -13 8 -21 -11 -14 -30 6 -14 10 -13 32 7 23 21 25
21 18 3 -5 -16 -3 -16 15 5 11 14 17 19 13 11 -5 -10 -3 -12 6 -6 9 6 11 4 5
-6 -7 -11 -5 -11 11 1 29 22 30 23 14 18 -17 -5 -53 30 -44 43 3 5 10 7 15 3
5 -3 7 -9 4 -14 -3 -5 8 -7 25 -5 17 2 28 0 25 -5 -3 -5 2 -15 10 -24 9 -8 16
-18 15 -21 -1 -24 1 -26 18 -14 15 13 16 12 4 -3 -8 -9 -11 -23 -7 -30 4 -7 0
-5 -8 5 -13 16 -15 16 -21 1 -9 -23 -8 -26 7 -18 9 6 9 5 0 -7 -11 -13 -13
-20 -13 -36 0 -3 -9 2 -19 11 -10 10 -21 14 -23 9 -3 -4 -3 -2 -1 5 1 8 -2 12
-9 10 -18 -6 -33 -124 -17 -134 4 -2 7 3 5 13 -5 29 9 61 17 40 3 -9 2 -17 -2
-17 -24 0 -1 -35 27 -41 31 -6 40 7 17 23 -6 5 -6 8 2 8 7 0 17 -8 22 -17 6
-10 11 -13 11 -7 0 6 14 14 31 18 28 5 31 9 25 33 l-6 28 15 -27 c16 -29 28
-38 19 -15 -3 9 6 12 31 12 19 -1 35 2 35 7 0 5 13 14 30 19 16 6 27 15 24 20
-3 5 5 9 18 9 37 0 68 11 62 22 -4 5 4 8 17 6 17 -2 23 1 21 11 -2 11 0 12 10
3 8 -6 19 -7 28 -2 8 5 18 6 24 3 5 -3 6 -1 2 5 -3 6 -2 13 4 17 6 4 7 11 4
17 -4 7 -2 8 5 4 6 -4 9 -11 6 -16 -3 -5 -1 -11 5 -15 5 -3 10 -2 10 3 0 5 6
9 13 10 28 3 62 10 62 11 0 2 7 4 15 6 36 8 90 36 90 48 0 9 3 8 9 -1 7 -11 9
-10 15 3 3 9 10 14 14 11 13 -8 83 19 75 29 -5 4 0 5 9 2 10 -3 20 -2 23 4 4
5 10 7 15 4 5 -3 11 -1 15 5 4 6 10 8 15 5 5 -3 20 -1 34 5 14 5 26 6 26 1 0
-5 9 -11 20 -14 11 -3 20 0 20 6 0 6 3 8 6 4 10 -10 64 14 64 29 0 8 5 14 11
14 5 0 8 -4 5 -9 -3 -5 1 -11 9 -15 8 -3 17 -1 20 4 4 6 23 10 44 10 45 0 67
19 48 40 -9 11 -7 10 8 0 11 -8 23 -19 27 -25 4 -5 8 -1 8 10 0 15 2 17 9 6 7
-11 10 -10 14 5 2 10 4 -10 4 -46 0 -36 -6 -81 -12 -100 -7 -19 -11 -43 -9
-52 1 -10 -2 -20 -7 -24 -5 -3 -5 -13 1 -25 6 -10 7 -19 3 -19 -9 0 -10 -40
-2 -56 3 -5 4 -119 2 -254 -4 -289 -4 -303 1 -308 2 -2 0 -17 -4 -33 -5 -16
-6 -29 -2 -29 4 0 7 -24 8 -53 1 -68 4 -78 32 -104 13 -13 19 -23 15 -24 -4
-1 3 -4 17 -8 17 -5 24 -13 22 -25 -2 -10 1 -15 6 -12 9 5 24 -32 21 -50 0 -4
5 -11 13 -15 10 -7 10 -9 0 -9 -10 0 -10 -4 0 -22 6 -13 12 -34 13 -48 0 -14
5 -24 11 -23 5 1 11 -10 12 -25 1 -14 8 -29 15 -34 9 -6 8 -8 -3 -8 -13 0 -13
-2 -1 -9 8 -5 11 -16 8 -26 -4 -9 -3 -14 3 -10 6 3 10 3 11 -2 0 -4 3 -19 5
-33 3 -14 6 -33 8 -43 1 -10 9 -23 17 -28 11 -7 11 -9 1 -9 -7 0 -11 -3 -9 -7
6 -9 19 -79 20 -105 1 -10 5 -18 9 -18 4 0 8 -5 8 -11 0 -5 -5 -7 -11 -3 -6 3
-3 -5 6 -20 11 -16 13 -26 6 -26 -7 0 -5 -9 5 -25 9 -14 13 -25 9 -25 -4 0 -1
-8 6 -17 9 -10 9 -14 2 -10 -8 5 -8 -1 2 -19 8 -15 12 -31 9 -36 -3 -4 0 -8 6
-8 6 0 9 -4 6 -8 -3 -5 1 -21 9 -36 8 -14 9 -24 4 -20 -8 4 -7 0 0 -14 6 -11
11 -30 11 -41 0 -10 4 -21 9 -23 5 -1 10 -16 12 -33 2 -16 6 -34 10 -40 3 -5
10 -23 14 -40 11 -40 12 -44 15 -52 1 -5 2 -12 1 -17 -1 -4 3 -14 10 -22 6 -7
8 -18 4 -24 -3 -5 -2 -10 3 -10 5 0 9 -6 10 -12 2 -23 7 -43 15 -55 5 -7 5
-13 1 -13 -3 0 -1 -7 6 -15 8 -10 9 -15 1 -15 -7 0 -8 -7 -2 -22 20 -49 24
-63 22 -72 -1 -4 3 -14 9 -20 5 -7 7 -16 3 -19 -3 -4 -1 -7 4 -7 6 0 10 -12 8
-26 -1 -14 3 -31 9 -37 6 -7 12 -21 13 -32 1 -21 11 -70 13 -70 1 0 3 -16 5
-35 1 -19 8 -36 13 -38 6 -2 9 -9 6 -17 -3 -7 -1 -16 5 -19 6 -4 7 -14 4 -24
-3 -9 -3 -14 2 -10 9 8 35 -36 35 -59 0 -8 4 -12 9 -8 5 3 11 -5 13 -17 2 -13
8 -23 15 -23 6 0 15 -4 20 -9 5 -5 3 -6 -4 -2 -7 4 -13 2 -13 -3 0 -6 3 -11 8
-11 4 0 13 -9 20 -21 8 -12 9 -18 3 -14 -16 9 -14 -4 3 -20 7 -8 17 -11 21 -7
4 4 6 2 5 -3 -6 -26 1 -45 16 -45 10 0 14 -6 10 -15 -3 -8 -1 -15 4 -15 6 0
10 -7 10 -15 0 -8 4 -15 9 -15 5 0 14 -13 21 -30 7 -16 16 -30 21 -30 5 0 8
-3 7 -7 -5 -15 24 -73 33 -67 5 3 9 -2 9 -12 0 -9 9 -25 21 -35 11 -9 20 -20
20 -23 -3 -20 0 -26 9 -21 9 6 14 -8 11 -27 0 -5 4 -8 9 -8 6 0 10 -6 10 -14
0 -8 7 -17 16 -20 9 -3 14 -12 11 -19 -3 -8 4 -19 14 -25 10 -7 19 -19 19 -28
0 -8 4 -12 10 -9 5 3 10 -4 10 -15 0 -16 4 -20 16 -16 9 3 12 2 9 -5 -4 -6 1
-20 12 -31 10 -12 12 -18 4 -13 -10 6 -12 4 -7 -4 5 -7 14 -10 21 -7 9 3 12
-3 10 -19 -1 -14 2 -22 6 -19 5 3 9 0 9 -5 0 -6 6 -11 14 -11 8 0 17 -7 20
-16 10 -26 7 -29 -10 -8 -11 14 -11 11 2 -13 10 -18 22 -29 27 -26 6 4 8 -3 5
-15 -3 -12 -2 -20 3 -19 5 1 17 -11 27 -28 9 -16 20 -32 25 -33 4 -2 7 -8 7
-13 0 -5 11 -27 24 -48 14 -21 22 -42 18 -47 -4 -4 -1 -4 6 0 7 4 12 1 12 -9
0 -9 4 -14 9 -11 5 4 7 -3 4 -14 -4 -14 0 -20 11 -20 10 0 15 -4 11 -9 -3 -5
2 -16 11 -25 8 -9 16 -25 17 -36 1 -11 4 -20 7 -20 3 0 11 -9 18 -21 11 -17
11 -20 0 -13 -10 6 -10 4 1 -9 7 -9 10 -17 6 -17 -5 0 1 -8 12 -18 11 -9 19
-27 18 -39 -1 -12 2 -20 7 -17 4 3 8 -4 8 -15 0 -12 5 -21 11 -21 5 0 7 -4 4
-10 -3 -5 0 -10 7 -10 9 0 9 -3 -2 -10 -13 -8 -12 -10 3 -10 9 0 17 -5 17 -11
0 -8 4 -8 14 0 8 7 17 8 20 3 9 -14 -3 -21 -30 -16 -24 4 -24 4 -10 -30 8 -19
12 -37 8 -40 -3 -3 -1 -6 4 -6 5 0 11 -11 12 -26 2 -30 19 -64 41 -82 9 -8 10
-11 4 -7 -9 4 -11 1 -7 -9 3 -9 10 -13 15 -10 5 3 6 -1 3 -9 -3 -8 2 -21 10
-30 9 -9 16 -23 16 -32 0 -10 5 -13 13 -9 9 6 9 5 0 -7 -10 -12 -8 -18 7 -29
11 -8 20 -20 20 -27 0 -7 5 -13 10 -13 6 0 10 -7 10 -15 0 -8 5 -15 11 -15 5
0 7 -4 4 -10 -3 -5 -1 -10 5 -10 7 0 10 -7 6 -15 -3 -9 0 -15 9 -15 9 0 12 -6
8 -17 -4 -11 -3 -14 5 -9 7 4 12 1 12 -7 0 -8 7 -18 16 -21 8 -3 12 -10 9 -16
-3 -5 -1 -10 4 -10 6 0 11 -7 11 -15 0 -8 7 -15 16 -15 8 0 12 -4 9 -10 -3 -5
-1 -10 5 -10 6 0 8 -4 5 -10 -3 -5 2 -10 12 -10 14 0 15 -2 4 -9 -7 -5 -9 -10
-4 -12 5 -2 23 -32 40 -66 17 -34 34 -59 39 -55 4 4 4 2 0 -5 -3 -6 2 -27 13
-46 11 -19 17 -38 14 -41 -4 -3 -2 -6 4 -6 9 0 11 -6 15 -49 1 -11 6 -17 11
-14 5 3 7 -1 6 -8 -2 -8 3 -25 10 -38 7 -13 8 -21 3 -17 -6 3 1 -15 14 -40 14
-26 23 -53 20 -61 -3 -8 -2 -12 2 -9 10 6 43 -30 35 -38 -4 -3 2 -6 12 -6 15
0 16 -2 4 -17 -10 -11 -10 -14 -1 -9 7 4 12 1 12 -9 0 -10 5 -14 12 -9 10 5
10 4 1 -6 -10 -11 -9 -17 4 -32 10 -12 12 -18 4 -18 -7 0 -9 -5 -4 -12 4 -7 8
-17 9 -23 1 -5 6 -19 10 -29 6 -15 4 -17 -7 -11 -12 8 -12 6 -1 -8 8 -9 11
-20 8 -25 -8 -13 18 -45 38 -48 9 -1 16 4 16 12 0 8 4 14 8 14 13 0 5 170 -8
185 -8 10 -7 16 5 23 16 8 16 10 0 25 -9 10 -13 17 -9 17 3 0 0 8 -7 17 -10
11 -10 14 -2 9 10 -5 11 -1 3 19 -6 15 -8 30 -5 35 7 11 -12 23 -25 15 -6 -4
-7 -13 -1 -24 7 -13 6 -18 -4 -18 -7 0 -11 6 -8 14 3 7 -1 13 -8 13 -9 1 -8 4
4 11 9 5 17 17 17 24 0 8 6 15 13 15 6 0 4 5 -6 11 -9 6 -15 14 -12 19 8 13
-15 24 -27 12 -6 -6 -3 -15 11 -24 20 -14 19 -28 -2 -28 -6 0 -7 3 -4 7 4 3 0
14 -9 24 -10 11 -12 19 -4 24 5 3 7 11 4 17 -5 7 -1 9 9 5 25 -9 0 38 -27 51
-11 6 -15 11 -8 11 13 1 17 61 4 61 -5 0 -9 21 -11 47 -1 26 -4 49 -6 51 -2 3
2 10 9 17 13 13 13 69 1 135 -4 19 -7 43 -7 52 1 10 -3 18 -8 18 -5 0 -9 8 -9
18 1 24 -7 64 -16 84 -4 10 -5 23 -2 30 2 7 -3 22 -12 32 -11 14 -12 17 -2 11
11 -6 13 -4 8 9 -5 14 -3 17 8 12 9 -3 15 0 15 10 0 8 5 12 10 9 7 -4 8 12 4
47 -3 29 -8 91 -10 138 -8 121 -8 130 -14 130 -3 0 -6 10 -7 23 -3 28 -7 46
-20 77 -6 14 -8 29 -5 34 3 5 0 6 -5 3 -6 -4 -14 5 -18 20 -3 15 -15 33 -26
41 -11 7 -17 18 -14 23 4 5 1 9 -5 9 -6 0 -8 5 -5 10 4 6 3 9 -2 8 -11 -4 -83
68 -83 82 0 5 -4 10 -10 10 -5 0 -10 6 -10 14 0 8 -3 16 -7 18 -13 5 -60 72
-67 96 -4 12 -12 20 -17 17 -8 -6 -14 17 -9 40 1 6 -2 7 -6 3 -7 -8 -15 4 -60
89 -12 23 -24 39 -28 36 -3 -4 -6 2 -6 11 0 10 -9 31 -21 47 -11 16 -17 29
-12 29 4 0 0 6 -9 14 -9 7 -19 26 -22 42 -3 16 -10 30 -16 32 -5 2 -8 8 -4 13
3 5 -2 9 -10 9 -9 0 -16 3 -15 8 2 15 -14 52 -22 52 -5 0 -9 9 -9 20 0 11 -4
20 -10 20 -5 0 -9 3 -8 8 4 13 -13 52 -23 52 -5 0 -8 3 -7 8 4 14 -13 52 -23
52 -6 0 -7 5 -4 10 3 6 1 10 -5 10 -6 0 -8 5 -5 10 3 6 1 10 -6 10 -7 0 -10 3
-6 6 3 3 -5 26 -19 51 -13 25 -24 52 -24 59 0 8 -4 14 -10 14 -5 0 -10 7 -10
15 0 8 -4 15 -8 15 -5 0 -9 7 -10 15 -1 8 -3 22 -4 30 -1 8 -8 17 -15 19 -8 3
-12 10 -8 15 3 5 1 12 -5 16 -5 3 -10 15 -10 26 0 10 -5 19 -11 19 -8 0 -8 5
1 15 10 12 9 16 -3 20 -8 4 -15 17 -16 31 -3 47 -4 54 -13 54 -5 0 -6 4 -3 10
3 6 2 10 -4 10 -11 0 -9 19 3 39 6 9 5 12 -1 8 -6 -4 -13 0 -17 8 -3 8 0 17 6
21 7 5 8 2 3 -6 -6 -9 -4 -11 5 -5 10 6 9 11 -5 22 -11 7 -15 13 -9 13 15 0 8
107 -14 221 -5 25 -8 53 -6 62 1 9 -1 17 -6 17 -4 0 -7 17 -6 38 1 20 0 41 -3
47 -10 19 -11 135 0 135 5 0 7 6 3 13 -5 7 0 6 11 -3 17 -14 18 -13 12 4 -6
14 -4 17 10 12 15 -5 14 -3 -2 9 -17 14 -18 17 -5 25 13 9 13 11 0 20 -13 9
-13 10 0 10 12 0 12 2 1 9 -9 6 -10 10 -2 16 8 4 9 11 2 19 -16 19 -19 147 -3
141 7 -2 11 -1 8 4 -3 4 6 18 19 29 14 12 25 19 25 16 0 -4 6 -1 13 5 8 6 18
7 22 3 5 -4 5 -1 1 6 -4 7 -1 12 8 12 10 0 13 6 9 17 -5 13 -2 15 11 10 10 -4
15 -3 11 3 -11 18 6 32 22 18 19 -16 13 -17 48 6 18 12 30 15 33 8 4 -14 62
19 62 36 0 6 -3 12 -7 13 -5 0 -21 2 -38 4 -21 3 -26 2 -15 -5 8 -5 11 -10 6
-10 -5 0 -3 -7 4 -15 7 -8 8 -15 2 -15 -14 0 -28 21 -36 55 -5 22 -4 26 4 15
8 -12 10 -10 10 10 l1 25 13 -24 c11 -20 14 -21 19 -7 4 10 3 15 -3 11 -6 -3
-10 -1 -10 5 0 7 6 10 13 7 6 -2 11 -12 11 -21 -2 -14 1 -14 13 -4 12 10 14 9
11 -6 -2 -11 3 -20 12 -21 8 -2 22 -4 30 -6 9 -2 14 2 12 10 -4 19 17 41 34
34 9 -3 14 1 14 12 0 11 5 15 15 11 13 -4 14 -2 5 14 -6 11 -7 20 -3 19 29 -5
45 2 39 17 -5 13 -2 15 13 11 12 -3 26 2 33 12 12 14 11 15 -4 2 -11 -8 -18
-9 -18 -3 0 6 5 14 10 17 8 5 7 11 -1 21 -10 12 -10 15 2 12 8 -2 13 3 12 10
-2 6 2 12 8 12 6 0 9 -6 6 -14 -4 -9 2 -13 19 -13 13 0 24 4 24 9 0 5 -5 6
-10 3 -11 -7 -9 23 3 42 5 8 3 12 -5 10 -7 -2 -10 -2 -5 0 4 3 4 9 1 15 -4 6
3 5 15 -1 17 -10 19 -15 11 -32 -7 -13 -8 -25 -1 -37 9 -14 10 -14 11 -1 0 8
9 25 20 37 19 20 15 28 -12 23 -12 -2 -10 17 2 24 6 4 8 11 5 16 -4 5 -1 9 5
9 6 0 9 4 6 9 -10 16 23 34 49 27 15 -4 25 -2 25 4 0 6 -4 9 -9 5 -5 -3 -12
-1 -16 5 -3 5 0 10 8 10 8 0 17 7 21 15 3 8 11 15 17 15 8 0 8 -4 1 -12 -12
-16 -9 -61 5 -65 15 -5 26 14 13 22 -8 5 -7 12 2 23 12 15 11 16 -4 3 -11 -8
-18 -9 -18 -3 0 6 5 14 10 17 8 5 7 12 -2 22 -11 14 -10 15 11 8 15 -5 21 -4
17 3 -3 6 4 23 17 37 21 25 24 26 37 10 7 -9 9 -15 4 -14 -20 4 -26 -2 -15
-15 9 -11 6 -17 -15 -31 -15 -9 -23 -11 -19 -4 5 7 4 10 -3 5 -13 -8 -5 -36
12 -36 6 0 4 -5 -4 -11 -13 -9 -13 -10 0 -6 8 2 14 11 12 20 -1 8 3 19 9 23 7
4 9 3 5 -4 -3 -6 -2 -14 4 -17 6 -4 10 -3 9 2 -4 24 2 43 13 37 8 -5 9 0 5 15
-6 23 28 55 47 44 6 -3 8 -3 4 2 -8 8 15 35 31 35 5 0 13 9 16 20 3 11 11 20
17 20 6 0 5 -7 -3 -17 -7 -10 -1 -7 13 7 16 16 21 27 14 32 -17 12 3 9 26 -3
15 -8 19 -8 14 0 -4 6 -1 11 8 11 8 0 24 12 35 26 13 16 21 21 22 13 0 -8 5
-3 10 10 6 15 14 21 25 17 10 -4 13 -2 8 6 -4 6 1 17 11 25 11 7 15 13 10 13
-5 0 0 7 11 16 10 8 13 12 6 9 -17 -9 1 30 18 40 6 4 8 11 5 16 -6 8 8 13 27
10 4 0 5 6 2 14 -6 16 20 48 30 38 3 -4 6 -1 6 5 0 7 -6 12 -12 13 -7 0 -3 4
10 9 19 8 27 26 23 53 0 4 4 7 9 7 6 0 10 7 10 15 0 8 4 15 10 15 5 0 9 3 9 8
-3 20 2 42 14 54 15 14 17 20 17 44 0 8 4 12 10 9 6 -4 7 1 3 11 -4 10 -2 15
4 11 5 -3 10 -1 11 6 3 36 9 64 17 77 5 8 10 20 11 25 0 6 2 16 2 23 1 7 7 10
14 6 6 -4 8 -3 4 4 -3 6 -2 13 3 17 6 3 7 13 4 21 -3 9 0 20 8 25 8 5 9 9 3 9
-8 0 -9 11 -4 37 5 20 7 41 4 45 -3 4 -1 8 5 8 5 0 9 9 8 20 -1 11 -5 20 -10
20 -4 0 -6 4 -3 9 3 4 -6 19 -19 31 -14 13 -25 27 -25 32 0 7 -43 78 -92 152
-34 50 -53 67 -98 92 -28 15 -50 31 -50 36 0 5 -4 6 -10 3 -5 -3 -10 -1 -10 5
0 6 -4 8 -10 5 -5 -3 -10 -2 -10 4 0 12 -141 82 -152 75 -4 -3 -8 0 -8 5 0 6
-4 11 -9 11 -5 0 -22 5 -38 12 -15 6 -31 11 -35 10 -5 -1 -8 3 -8 9 0 6 -7 9
-15 5 -8 -3 -15 -1 -15 5 0 6 -4 8 -9 4 -5 -3 -13 0 -16 6 -4 5 -14 8 -22 5
-8 -3 -11 -1 -8 4 4 6 -7 13 -24 16 -18 4 -28 11 -24 17 4 6 0 8 -10 4 -9 -3
-23 1 -32 9 -8 9 -15 11 -15 4 0 -7 -5 -6 -14 2 -8 7 -12 16 -10 20 2 3 -4 5
-13 4 -10 -2 -24 4 -31 13 -12 15 -13 14 -8 -1 3 -12 1 -15 -10 -11 -7 3 -14
10 -14 17 0 6 -5 4 -10 -4 -8 -13 -10 -12 -10 3 0 10 -4 15 -10 12 -5 -3 -10
-1 -10 5 0 6 -4 9 -9 5 -5 -3 -16 2 -25 10 -21 21 -76 10 -76 -16 0 -5 11 -2
25 7 14 9 28 14 31 11 3 -3 -4 -8 -15 -12 -12 -3 -19 -10 -16 -15 3 -5 13 -7
23 -4 16 5 16 5 0 -9 -23 -18 -12 -29 16 -16 20 10 20 9 2 -5 -10 -9 -22 -13
-27 -11 -11 7 -22 -32 -13 -46 5 -8 3 -9 -5 -4 -7 4 -10 17 -7 29 2 11 -2 32
-9 46 -8 14 -14 19 -15 11 0 -7 -6 -11 -15 -8 -8 4 -17 1 -21 -5 -5 -7 -2 -8
6 -3 9 5 11 4 6 -3 -5 -8 -1 -10 11 -6 14 5 15 4 4 -4 -8 -6 -10 -15 -5 -23 5
-9 -1 -8 -18 3 -26 17 -27 17 -25 -1 1 -15 8 -18 33 -16 25 1 34 -2 37 -17 5
-16 3 -17 -10 -6 -14 11 -15 10 -9 -9 4 -13 2 -31 -4 -40 -9 -15 -10 -14 -4 7
6 22 5 23 -10 11 -9 -8 -14 -16 -12 -19 6 -5 -38 -42 -50 -42 -5 0 2 7 14 16
12 8 22 20 22 27 0 8 -3 8 -12 -1 -7 -7 -16 -12 -21 -12 -5 0 2 10 17 21 15
12 25 24 22 27 -3 3 -16 -3 -28 -14 -14 -12 -18 -13 -10 -3 6 9 8 20 4 24 -4
5 -1 5 6 1 7 -4 12 -1 12 8 0 18 -16 21 -25 6 -3 -5 -11 -10 -18 -10 -6 0 -3
6 6 13 9 6 17 18 19 26 5 23 49 62 61 55 9 -5 9 -4 1 5 -10 10 -17 10 -35 0
-13 -7 -27 -13 -30 -12 -3 1 -5 -8 -4 -20 3 -25 -13 -49 -26 -41 -5 3 -9 -3
-10 -13 0 -16 -1 -16 -9 2 -5 11 -9 16 -9 11 -1 -5 -8 -3 -16 4 -8 6 -18 9
-23 7 -4 -3 -14 -1 -22 5 -12 8 -12 9 3 4 9 -3 17 -1 17 4 0 16 -18 20 -32 7
-16 -15 -55 -19 -63 -6 -4 5 2 6 11 2 11 -4 15 -3 10 5 -4 7 1 10 15 7 15 -3
19 0 15 11 -3 9 -1 12 4 9 6 -3 10 -1 10 4 0 6 -7 11 -15 11 -8 0 -15 -4 -15
-10 0 -5 -4 -10 -10 -10 -18 0 -10 18 10 25 11 4 18 11 14 16 -3 6 -12 5 -22
-3 -16 -12 -16 -11 -1 7 9 11 21 29 27 40 10 17 11 16 7 -12 -3 -30 -2 -32 25
-28 18 2 34 -3 42 -13 11 -13 11 -15 -4 -9 -12 4 -15 2 -11 -9 4 -11 9 -12 19
-3 11 9 14 8 14 -1 0 -8 3 -10 6 -7 4 4 2 13 -4 20 -7 8 -8 18 -4 22 4 5 1 5
-7 0 -9 -5 -12 -4 -7 3 4 7 -1 10 -14 7 -19 -4 -19 -3 -4 26 8 17 20 29 26 27
16 -6 22 -28 8 -28 -6 0 -8 5 -5 10 3 6 2 10 -3 10 -8 0 -22 -22 -22 -34 0 -2
10 -2 23 -1 12 1 27 3 34 4 7 0 10 7 7 15 -3 8 -1 16 3 19 5 3 9 -6 9 -21 -1
-23 3 -27 26 -26 15 1 26 -2 23 -5 -2 -4 5 -12 16 -19 10 -7 19 -8 19 -3 0 6
-4 13 -10 16 -5 3 -10 11 -10 18 0 6 6 3 13 -7 12 -16 14 -16 31 3 11 12 14
21 8 21 -6 0 -14 -5 -18 -11 -5 -8 -10 -6 -16 5 -5 9 -13 14 -19 11 -5 -4 -12
1 -15 9 -3 9 -10 13 -15 10 -6 -3 -16 0 -24 6 -8 7 -22 10 -30 6 -9 -3 -15 0
-15 9 0 7 -5 17 -12 21 -8 5 -9 2 -4 -11 6 -18 6 -18 -12 -2 -10 9 -22 14 -25
10 -4 -3 -7 -1 -7 5 0 7 -5 12 -11 12 -5 0 -7 -6 -3 -12 6 -9 3 -9 -9 0 -9 8
-22 10 -28 6 -8 -5 -9 -3 -5 5 5 7 0 18 -10 26 -11 7 -16 17 -12 21 4 4 2 14
-5 22 -10 13 -9 14 2 8 16 -10 5 35 -11 45 -5 3 -2 9 7 12 10 5 14 3 9 -5 -5
-7 -3 -8 5 -4 9 6 8 13 -6 29 -10 11 -12 17 -5 13 12 -7 13 -5 18 49 1 17 3
35 4 40 1 6 2 13 1 18 0 4 3 7 9 7 5 0 12 16 16 35 3 19 10 35 16 35 5 0 6 5
3 10 -3 6 -1 10 5 10 6 0 9 4 5 9 -3 5 1 16 9 24 8 8 12 17 9 21 -4 3 1 6 11
6 9 0 14 5 11 10 -3 6 2 10 12 10 14 0 15 2 4 9 -11 7 -10 11 5 20 11 6 15 11
11 11 -5 0 -1 7 7 16 9 8 21 12 27 8 7 -4 9 -3 5 4 -3 6 -2 13 4 17 5 3 10 16
10 27 0 12 3 19 6 15 9 -9 32 16 27 29 -2 6 3 14 12 18 9 3 13 10 10 16 -3 5
-1 10 5 10 6 0 9 4 6 9 -3 5 1 14 9 21 8 7 12 16 9 21 -3 5 -1 9 3 9 14 0 33
60 20 60 -7 0 -4 5 6 11 9 6 15 14 13 18 -3 5 6 18 19 31 13 13 22 28 18 34
-3 6 -3 8 2 4 4 -4 15 0 24 10 17 18 47 29 37 14 -3 -5 6 -14 20 -21 15 -6 23
-7 19 -1 -3 5 1 10 10 10 10 0 14 -5 10 -12 -4 -7 1 -4 9 6 23 28 20 39 -6 26
-21 -10 -22 -10 -5 4 20 16 51 11 40 -7 -4 -6 -1 -7 6 -3 7 5 10 10 7 13 -3 3
1 12 9 19 14 14 9 54 -6 54 -5 0 12 21 38 46 31 31 42 49 34 53 -7 5 -11 14
-9 21 2 9 -6 14 -18 15 -11 0 -28 6 -37 13 -9 8 -21 11 -27 7 -6 -4 -10 -3 -8
2 5 19 -31 80 -47 80 -16 0 -16 -1 1 -14 17 -13 17 -13 -6 -9 -14 2 -24 9 -23
15 4 13 -33 52 -41 44 -3 -4 -16 5 -30 19 l-23 26 31 6 c24 5 28 9 16 16 -8 5
-10 10 -5 10 6 0 21 -12 34 -25 13 -14 28 -25 33 -25 6 0 -1 9 -16 21 -20 16
-24 24 -16 38 5 10 6 22 2 26 -4 5 -1 5 6 1 7 -4 9 -12 6 -18 -5 -7 2 -9 20
-6 18 4 26 1 26 -8 0 -8 4 -14 10 -14 5 0 6 8 3 18 -6 15 -5 16 12 2 17 -14
18 -13 12 4 -7 17 -6 17 10 5 11 -9 14 -10 9 -1 -4 7 -2 13 6 14 7 0 18 2 23
2 6 1 17 6 25 11 13 8 13 7 1 -8 -7 -9 -17 -14 -22 -11 -5 3 -6 -3 -2 -12 5
-13 3 -15 -8 -9 -12 7 -12 6 0 -6 10 -11 15 -11 18 -1 3 6 9 12 15 12 6 0 5
-7 -3 -16 -10 -13 -10 -17 2 -25 10 -6 11 -9 1 -9 -7 0 -10 -5 -6 -12 4 -7 3
-8 -5 -4 -23 15 -62 15 -51 1 8 -10 8 -15 -1 -21 -7 -4 -9 -3 -6 3 4 6 -10 10
-38 9 -42 0 -43 -1 -23 -13 13 -7 17 -12 11 -13 -7 0 -13 -5 -13 -11 0 -5 4
-8 9 -5 5 3 20 -5 35 -19 14 -13 26 -19 26 -12 0 7 4 6 10 -3 8 -13 10 -13 10
1 0 9 10 24 22 35 12 10 19 14 15 9 -3 -6 3 -12 14 -12 10 -1 19 3 19 8 0 6
-4 8 -8 5 -5 -3 -9 1 -9 9 0 10 6 11 26 4 l25 -10 -19 23 c-20 23 -20 23 0 8
11 -8 23 -19 27 -25 5 -6 12 -5 20 4 10 10 10 12 1 7 -7 -4 -13 -2 -13 3 0 6
5 11 11 11 6 0 3 7 -5 16 -9 8 -17 20 -17 25 -1 5 -2 13 -3 18 0 5 -4 13 -8
17 -4 4 -3 13 3 21 9 10 6 13 -12 13 -19 0 -21 2 -9 10 10 6 11 10 3 10 -7 0
-13 5 -13 11 0 5 6 7 13 3 8 -5 8 -2 -2 9 -7 9 -19 17 -25 17 -6 0 -4 -5 4
-10 13 -8 12 -10 -4 -10 -12 0 -16 -5 -12 -16 3 -8 2 -12 -4 -9 -8 5 -7 50 1
50 1 0 3 9 4 21 1 11 -4 21 -10 21 -7 0 -11 -6 -8 -14 3 -8 -2 -13 -15 -13
-11 0 -23 -6 -26 -12 -5 -10 -7 -10 -12 -1 -4 10 -8 10 -19 0 -7 -7 -11 -15
-8 -20 6 -10 -18 -4 -33 8 -7 6 -10 14 -7 19 3 4 0 12 -8 16 -10 7 -10 11 0
23 8 11 9 17 1 22 -6 4 -8 15 -5 26 4 11 2 19 -5 19 -6 0 -8 -6 -4 -12 5 -10
4 -10 -6 -1 -11 10 -11 15 0 27 10 13 9 17 -3 22 -9 3 -18 13 -21 21 -5 13 -4
14 9 3 12 -10 15 -10 15 4 0 9 6 17 13 18 6 0 17 2 22 2 6 1 23 14 39 29 16
14 32 25 36 22 4 -2 16 3 26 11 10 9 12 12 4 8 -12 -6 -13 -4 -2 7 14 16 16
33 2 24 -16 -10 -12 0 10 25 20 23 27 65 13 72 -10 4 -48 58 -56 81 -3 9 -13
17 -22 17 -8 0 -15 5 -15 10 0 6 -7 10 -15 10 -9 0 -19 8 -22 18 -13 33 -83
69 -83 43z m-400 -2333 c0 -10 -5 -18 -11 -18 -5 0 -7 -5 -4 -10 4 -6 2 -16
-3 -23 -7 -8 0 -19 25 -34 32 -22 34 -22 28 -4 -4 15 -1 20 12 20 41 1 53 5
50 15 -3 6 -11 9 -18 8 -38 -10 -46 -9 -46 4 0 10 4 11 10 5 7 -7 16 -7 28 -1
14 8 22 4 37 -15 11 -13 23 -21 27 -17 4 4 2 -3 -4 -15 -10 -19 -9 -23 4 -23
10 0 13 5 9 13 -6 9 -5 9 8 0 8 -7 17 -11 19 -8 3 2 5 -7 5 -20 0 -14 -4 -25
-9 -25 -5 0 -7 6 -4 14 3 8 3 16 1 19 -8 7 -59 -44 -56 -55 1 -5 -2 -7 -7 -4
-16 10 -23 -12 -11 -34 9 -17 14 -19 26 -10 7 7 11 16 8 21 -3 5 -1 9 5 9 18
0 21 -18 5 -34 -14 -15 -28 -20 -46 -17 -5 0 -8 -4 -8 -10 0 -6 7 -8 15 -5 50
20 48 20 34 -2 -7 -11 -17 -18 -22 -15 -5 3 -1 -6 8 -20 9 -15 13 -32 9 -38
-4 -7 -3 -9 3 -6 6 4 17 -1 24 -10 12 -15 12 -16 -6 -9 -15 5 -17 4 -8 -5 13
-13 37 -3 28 12 -4 5 -1 9 4 9 10 0 16 -21 12 -42 0 -5 6 -8 15 -8 9 0 12 -5
8 -12 -4 -7 -3 -8 4 -4 7 4 12 2 12 -3 0 -6 8 -3 18 7 23 21 18 36 -8 22 -19
-10 -32 -1 -36 25 -1 6 -5 19 -9 30 -4 11 2 5 14 -12 21 -34 41 -43 41 -20 0
6 5 4 11 -5 5 -10 15 -18 21 -18 9 0 9 3 0 12 -7 7 -12 16 -12 22 0 5 6 2 13
-9 10 -12 16 -14 21 -7 4 7 3 12 -2 12 -5 0 -9 14 -9 30 0 17 5 30 10 30 5 0
4 7 -3 15 -11 13 -10 14 6 8 17 -6 17 -5 5 10 -8 10 -11 20 -7 24 3 3 6 1 6
-6 0 -8 8 -10 23 -6 16 5 18 4 8 -3 -12 -8 -10 -15 8 -37 12 -16 21 -22 21
-14 1 8 6 4 13 -9 7 -12 16 -20 20 -16 4 4 2 13 -5 21 -6 7 -8 16 -4 20 3 3 6
1 6 -6 0 -7 5 -9 10 -6 6 4 8 10 5 15 -3 5 7 21 21 35 15 15 24 20 21 11 -4
-9 -1 -16 6 -16 8 0 6 -4 -3 -10 -12 -8 -12 -10 -1 -10 10 0 11 -3 2 -13 -6
-8 -8 -17 -4 -20 3 -4 1 -7 -6 -7 -7 0 -10 -4 -7 -9 4 -5 0 -11 -6 -14 -10 -4
-11 -7 0 -18 9 -10 12 -10 12 0 0 8 7 10 21 6 16 -5 19 -4 14 5 -5 9 -4 11 4
6 6 -4 9 -12 5 -17 -3 -6 2 -9 11 -7 10 2 20 -3 23 -11 3 -11 0 -12 -14 -6
-11 4 -25 8 -31 8 -7 0 -13 5 -13 10 0 5 -6 4 -13 -2 -8 -6 -16 -9 -19 -6 -3
3 -11 -1 -18 -10 -8 -10 -9 -15 -1 -15 6 0 11 4 11 8 0 4 9 8 21 9 21 2 21 1
3 -19 -11 -12 -14 -18 -7 -15 14 9 28 -9 14 -18 -6 -3 -20 4 -31 15 -12 12
-26 18 -33 13 -7 -4 -7 0 2 10 7 9 9 17 3 17 -23 0 -34 -28 -15 -39 10 -6 14
-11 9 -11 -5 0 -18 7 -28 17 -20 18 -25 4 -6 -15 7 -7 9 -12 4 -12 -10 0 -36
26 -31 31 2 2 -12 5 -31 5 -19 1 -34 -3 -34 -8 0 -5 8 -8 18 -7 31 3 42 -1 40
-13 -2 -7 3 -12 10 -10 6 1 12 -2 12 -6 0 -12 41 -12 62 -1 12 6 18 6 18 -1 0
-5 -5 -10 -12 -10 -6 0 -8 -3 -5 -6 4 -4 13 -1 22 6 13 11 14 10 8 -6 -6 -17
-5 -17 10 -5 12 9 17 10 17 2 0 -7 4 -10 9 -6 5 3 17 -2 26 -12 14 -14 20 -14
37 -4 11 7 23 10 26 7 3 -3 -1 -6 -8 -6 -9 0 -7 -5 5 -14 21 -15 39 -11 29 6
-4 7 -2 8 4 4 7 -4 12 -14 12 -22 0 -8 5 -14 11 -14 5 0 7 5 3 12 -4 7 -3 8 5
4 6 -4 9 -12 6 -17 -4 -5 2 -9 12 -9 14 0 15 -2 4 -9 -9 -6 -10 -11 -2 -15 6
-4 16 -4 23 0 7 4 8 3 4 -4 -4 -7 -2 -12 4 -12 6 0 9 -4 6 -8 -3 -5 1 -9 9 -9
8 0 11 5 8 11 -4 6 0 5 9 -1 8 -7 18 -10 22 -6 4 4 4 -1 0 -12 -7 -17 -6 -18
8 -7 14 11 16 10 12 -10 -2 -13 -2 -17 2 -10 4 9 15 2 36 -20 21 -23 26 -26
18 -10 -16 33 -5 27 19 -10 11 -18 21 -27 21 -20 0 6 4 12 8 12 4 0 8 -9 8
-19 0 -11 -3 -18 -6 -16 -4 2 -7 -3 -7 -11 0 -9 6 -13 15 -9 12 4 12 2 4 -8
-7 -8 -9 -17 -5 -20 3 -4 1 -7 -7 -7 -10 0 -10 -3 0 -15 11 -13 10 -14 -5 -9
-12 5 -16 4 -11 -4 3 -6 2 -13 -3 -17 -6 -3 -7 -13 -4 -22 5 -12 3 -14 -8 -8
-11 6 -12 5 -1 -6 14 -16 16 -33 2 -24 -5 3 -10 0 -11 -7 -2 -36 -11 -74 -21
-85 -6 -7 -7 -13 -2 -13 5 0 1 -5 -8 -11 -10 -5 -18 -14 -18 -20 0 -18 -94
-98 -142 -120 -27 -12 -48 -26 -48 -31 0 -5 -4 -6 -10 -3 -5 3 -10 1 -10 -5 0
-6 -4 -8 -10 -5 -5 3 -10 1 -10 -5 0 -8 -6 -7 -21 1 -15 8 -19 8 -15 0 4 -6 2
-11 -3 -11 -6 0 -11 3 -11 8 0 4 -13 7 -29 7 -16 0 -29 -4 -28 -10 1 -5 -6
-10 -15 -10 -10 0 -27 -8 -38 -18 -11 -9 -20 -14 -20 -12 0 27 -112 -69 -175
-150 -59 -76 -95 -117 -95 -108 0 4 -5 0 -11 -9 -5 -10 -17 -18 -25 -18 -8 0
-12 -4 -9 -10 3 -5 -1 -10 -9 -10 -9 0 -16 -3 -16 -8 0 -4 -13 -13 -28 -20
-16 -6 -38 -21 -50 -32 -12 -11 -24 -20 -28 -19 -3 0 -21 -13 -40 -31 -47 -42
-77 -47 -94 -15 -7 13 -16 22 -20 20 -4 -2 -7 2 -7 10 0 8 4 12 9 9 4 -3 8 0
8 5 0 6 -4 11 -10 11 -5 0 -6 7 -3 17 4 10 2 14 -4 10 -7 -5 -9 0 -6 13 3 11
10 20 17 20 8 0 8 2 -1 8 -6 4 -13 42 -16 89 -2 51 0 80 5 76 6 -3 6 2 0 13
-5 11 -7 25 -4 33 3 10 0 11 -9 5 -11 -6 -11 -4 0 10 9 10 11 20 5 24 -12 9
-26 582 -14 582 3 0 6 35 7 78 4 127 8 172 14 172 4 0 9 18 13 39 3 22 11 43
18 47 7 4 8 3 4 -4 -8 -13 4 -16 19 -4 21 15 50 56 35 48 -8 -4 -6 1 5 11 12
11 21 34 23 58 2 21 7 44 11 50 5 5 7 18 6 28 -2 10 3 21 10 23 7 3 12 14 10
25 -2 10 1 22 7 25 7 5 8 2 3 -6 -6 -10 -4 -12 10 -6 15 5 16 4 5 -9 -7 -8 -9
-15 -4 -15 5 -1 -2 -7 -16 -15 -15 -9 -19 -14 -10 -15 13 0 13 -1 0 -10 -13
-9 -13 -10 0 -10 11 0 12 -2 3 -8 -7 -4 -14 -17 -16 -27 -1 -11 -5 -25 -9 -30
-4 -6 4 -11 20 -12 24 -2 24 -1 7 7 -13 6 -15 9 -5 9 13 1 13 2 0 11 -10 6
-11 10 -2 10 6 0 12 7 12 16 0 11 6 14 20 9 11 -4 20 -2 20 4 0 6 -3 10 -7 10
-30 -5 -43 25 -16 35 8 3 11 10 8 16 -3 5 0 10 8 10 7 0 14 7 14 15 0 8 -6 15
-13 15 -16 0 -14 50 3 67 6 7 19 10 29 6 15 -6 15 -4 -1 23 l-17 29 21 -25
c25 -30 28 -15 4 20 l-17 25 22 -19 c12 -11 22 -27 22 -38z m83 -1632 c2 3 2
-7 -1 -21 -2 -14 -9 -28 -15 -32 -6 -3 -7 -1 -3 5 4 7 2 12 -5 12 -8 0 -7 5 2
18 13 15 12 16 -3 3 -18 -14 -16 -23 10 -54 14 -16 14 -17 0 -12 -9 4 -19 2
-23 -4 -3 -6 -1 -11 4 -11 6 0 11 -5 11 -12 0 -6 -3 -8 -6 -5 -4 4 -20 -8 -36
-26 -20 -23 -27 -26 -22 -12 5 18 4 17 -13 -3 -18 -22 -64 -26 -82 -6 -3 4 3
4 13 0 16 -5 17 -4 6 9 -9 10 -9 15 -1 16 6 1 17 2 24 3 6 0 13 7 13 14 1 6 2
17 3 23 0 5 6 7 13 3 8 -5 9 -2 5 10 -6 14 -3 17 8 12 9 -3 14 -2 11 2 -3 5 1
20 9 35 8 15 12 27 9 27 -3 0 -3 4 1 9 3 6 17 6 34 1 16 -4 31 -6 34 -4z m395
-2928 c8 -8 15 -8 29 3 16 13 17 12 5 -3 -13 -16 -11 -17 18 -13 27 3 30 1 25
-17 -6 -18 -5 -19 15 -8 15 8 20 8 16 1 -10 -15 7 -14 24 2 12 10 12 9 1 -5
-14 -19 -2 -25 15 -8 18 18 40 -16 24 -35 -15 -18 0 -20 20 -2 12 10 12 9 1
-5 -11 -15 -11 -18 0 -18 12 0 12 -2 1 -9 -8 -4 -13 -11 -13 -15 3 -18 0 -26
-7 -26 -12 0 -11 34 0 41 5 3 3 9 -6 12 -9 4 -16 1 -16 -6 0 -7 -5 -4 -11 6
-8 14 -14 16 -25 6 -11 -9 -14 -8 -14 4 0 10 -7 15 -19 12 -11 -2 -30 7 -45
22 -15 14 -30 22 -37 17 -8 -4 -9 -3 -5 4 4 7 1 12 -6 13 -11 0 -11 2 0 6 10
4 9 8 -5 19 -10 7 -13 14 -7 14 5 0 15 -5 22 -12z"/>
<path d="M4015 7330 c-13 -21 -14 -49 -1 -44 15 6 17 -48 2 -58 -8 -5 -7 -8 1
-8 6 0 15 5 18 10 4 7 13 6 27 -1 21 -11 21 -12 3 -25 -10 -8 -14 -14 -8 -14
6 0 16 7 23 15 7 8 18 15 24 15 6 0 4 -5 -4 -11 -11 -8 -12 -12 -2 -16 6 -2
10 -9 7 -14 -9 -14 29 2 42 18 6 8 13 13 15 11 1 -1 13 5 26 14 16 11 19 17
10 20 -7 3 -13 13 -13 23 0 10 -8 19 -18 21 -9 1 -14 -2 -11 -7 3 -6 -6 -8
-22 -5 -20 4 -24 2 -16 -6 8 -8 7 -14 -3 -24 -16 -16 -29 -19 -20 -4 3 5 -10
20 -30 31 -26 15 -33 25 -26 32 6 6 11 14 11 18 0 12 -29 19 -35 9z"/>
<path d="M6954 7019 c-5 -8 -3 -9 6 -4 9 5 11 4 6 -4 -4 -6 -13 -8 -19 -4 -19
12 -59 15 -53 4 3 -5 -3 -7 -14 -4 -13 3 -20 0 -20 -8 0 -11 -2 -11 -10 1 -7
11 -10 11 -10 2 0 -7 -5 -10 -10 -7 -6 4 -18 1 -27 -7 -14 -11 -16 -11 -8 2 8
13 7 13 -10 0 -18 -15 -115 -23 -115 -9 0 4 -9 5 -20 2 -11 -3 -20 -10 -20
-16 0 -6 -3 -7 -7 -4 -3 4 -13 1 -21 -6 -13 -10 -15 -9 -8 3 4 9 2 8 -7 -2 -8
-10 -17 -15 -20 -11 -4 3 -7 1 -7 -6 0 -7 -4 -9 -10 -6 -5 3 -10 1 -10 -5 0
-6 -13 -16 -29 -21 -16 -6 -32 -17 -35 -25 -3 -8 -12 -14 -21 -14 -8 0 -15 -4
-15 -10 0 -6 -3 -9 -7 -8 -12 4 -83 -42 -83 -53 0 -5 -3 -8 -7 -7 -16 4 -53
-14 -48 -23 4 -5 -1 -9 -10 -9 -9 0 -13 -4 -10 -10 3 -5 1 -10 -4 -10 -6 0
-11 -7 -11 -15 0 -13 -12 -19 -32 -16 -4 0 -5 -6 -1 -15 3 -8 2 -14 -3 -12
-21 5 -55 -14 -50 -28 3 -9 1 -12 -4 -9 -16 10 -50 -5 -50 -22 0 -9 -3 -13 -6
-10 -4 3 -16 1 -28 -5 -11 -7 -24 -11 -28 -10 -5 1 -8 -3 -8 -9 0 -6 -8 -8
-19 -4 -11 3 -22 1 -26 -5 -3 -6 -11 -8 -16 -5 -5 4 -9 0 -9 -7 0 -9 -3 -9
-10 2 -9 13 -10 13 -10 0 0 -10 -10 -17 -27 -18 -15 -1 -30 -7 -33 -13 -4 -5
-16 -11 -28 -12 -11 0 -18 -6 -14 -12 3 -5 -2 -4 -11 4 -13 10 -17 10 -17 1 0
-8 -10 -11 -30 -8 -20 3 -31 0 -36 -11 -5 -14 -7 -13 -14 4 -8 18 -9 18 -9 2
-1 -10 -5 -15 -11 -12 -5 3 -10 1 -10 -5 0 -8 -6 -7 -21 1 -17 8 -20 8 -14 -1
5 -9 2 -10 -13 -6 -21 7 -72 -11 -72 -26 0 -5 -3 -7 -7 -5 -8 4 -44 -29 -42
-39 0 -3 -3 -9 -7 -12 -4 -4 -4 0 0 8 5 9 2 8 -7 -2 -18 -23 -31 -23 -23 -2 5
13 4 14 -7 6 -8 -7 -18 -8 -22 -4 -5 4 -5 1 -1 -5 4 -8 1 -13 -8 -13 -9 0 -16
-1 -16 -3 0 -1 -4 -17 -9 -35 -7 -24 -7 -31 2 -26 7 3 5 0 -3 -8 -20 -17 -26
-53 -8 -43 10 6 10 5 1 -5 -14 -15 21 -95 37 -85 6 4 10 1 10 -4 0 -6 6 -11
13 -11 6 0 28 -14 47 -30 19 -17 41 -28 48 -25 7 3 10 0 7 -5 -5 -9 2 -12 21
-9 3 0 16 -7 30 -15 13 -9 24 -13 24 -9 0 5 5 1 10 -7 7 -11 10 -11 10 -2 0 9
5 10 19 3 10 -6 21 -7 25 -4 3 3 6 0 6 -7 0 -7 3 -10 6 -7 4 3 16 2 27 -4 14
-8 18 -8 13 0 -5 7 -1 9 8 5 9 -3 16 -10 16 -14 0 -13 49 -18 54 -6 3 7 5 7 5
-1 1 -7 8 -13 17 -13 9 0 12 5 8 13 -4 6 1 4 12 -5 16 -14 23 -15 32 -6 9 9
12 9 12 -1 0 -11 3 -11 15 -1 12 10 15 10 15 0 0 -7 8 -10 20 -7 11 3 26 0 33
-7 14 -14 27 -14 46 -2 10 6 12 5 7 -2 -4 -7 -1 -12 8 -12 9 0 16 -5 16 -11 0
-8 5 -8 15 1 12 10 15 9 15 -5 0 -10 3 -15 7 -12 3 4 12 2 20 -5 7 -6 16 -8
20 -4 3 3 15 -2 26 -11 15 -13 18 -14 12 -3 -7 12 -6 13 6 4 17 -13 79 -24 79
-13 0 4 16 3 35 -1 20 -4 35 -4 35 1 0 5 7 9 15 9 8 0 15 6 15 14 0 8 7 17 16
20 8 3 12 11 8 17 -4 7 1 7 16 -1 20 -11 22 -10 17 4 -4 10 -3 15 3 11 6 -3
10 -14 11 -23 0 -10 3 -12 5 -5 3 7 11 10 18 7 8 -3 22 3 31 13 10 10 20 17
22 16 13 -11 43 1 49 20 14 40 12 77 -5 77 -10 0 -12 3 -6 8 15 10 13 28 -4
44 -12 11 -13 11 -6 -1 6 -11 4 -13 -9 -8 -10 4 -15 3 -11 -3 3 -6 -2 -10 -11
-10 -16 0 -16 -1 2 -15 18 -14 18 -14 -3 -8 -13 3 -23 1 -23 -5 0 -6 -9 -8
-20 -5 -13 3 -20 0 -20 -8 0 -11 -2 -11 -10 1 -8 12 -10 8 -11 -15 -1 -25 -3
-26 -6 -7 -3 13 1 30 7 38 9 10 9 14 1 14 -13 0 -9 33 7 52 6 8 11 17 9 19 -1
2 4 -2 11 -10 7 -9 12 -10 12 -3 0 6 16 19 36 28 20 9 41 25 47 36 7 10 15 18
20 18 4 0 5 -4 2 -10 -12 -19 0 -10 40 32 22 23 35 39 29 35 -7 -4 -14 -1 -17
7 -4 9 2 12 19 10 22 -2 23 0 12 14 -12 15 -10 15 14 -1 15 -9 29 -13 32 -9 2
4 17 7 33 6 41 -2 45 -3 40 -11 -3 -5 11 -7 31 -6 21 1 37 2 37 3 0 1 13 4 30
6 16 3 35 9 41 15 6 5 14 7 17 4 4 -3 5 -2 2 1 -7 11 15 45 26 39 5 -4 9 -1 9
4 0 6 6 11 14 11 8 0 16 3 19 8 2 4 3 3 2 -3 -3 -14 53 -65 57 -53 2 6 11 3
21 -6 11 -12 29 -16 52 -15 18 2 38 -1 42 -5 5 -5 2 -6 -6 -1 -10 5 -12 4 -7
-3 5 -9 13 -9 26 -2 16 9 18 8 13 -6 -4 -11 -2 -15 4 -11 6 4 14 1 16 -5 4
-10 8 -10 16 2 5 8 7 18 4 24 -3 5 -1 6 5 2 6 -4 9 -13 6 -20 -7 -18 12 -30
22 -15 5 8 3 9 -6 4 -9 -5 -11 -4 -6 4 6 9 11 9 22 0 11 -9 14 -7 14 12 0 13
4 20 8 14 4 -5 12 -10 17 -10 19 -1 85 -47 79 -56 -3 -5 -2 -9 3 -8 26 4 38
-1 23 -11 -12 -8 -10 -10 8 -10 15 0 21 -4 16 -12 -5 -8 -2 -9 10 -5 14 5 17
3 12 -8 -3 -8 -1 -15 5 -15 6 0 9 -7 5 -15 -3 -8 -1 -15 4 -15 6 0 10 -8 10
-18 0 -10 6 -24 13 -31 10 -11 10 -13 0 -7 -7 4 -13 3 -13 -3 0 -5 9 -13 20
-16 11 -3 20 -11 20 -16 0 -22 27 -38 40 -26 10 9 11 9 6 0 -4 -7 -2 -13 4
-13 6 0 8 -4 5 -10 -3 -5 1 -10 9 -10 9 0 16 -4 16 -10 0 -5 10 -10 21 -10 17
0 19 -3 10 -14 -8 -10 -9 -16 -1 -21 6 -3 7 -11 4 -17 -4 -7 -2 -8 5 -4 9 6 9
11 0 22 -9 11 -8 14 3 14 10 0 14 -10 13 -32 -1 -18 7 -54 16 -79 10 -26 15
-49 12 -53 -3 -3 1 -8 10 -12 9 -3 14 -14 12 -25 -2 -10 1 -18 8 -16 7 1 11
-4 10 -10 -3 -12 10 -17 30 -14 5 1 6 -3 2 -9 -8 -13 13 -90 25 -90 5 0 6 -7
3 -17 -4 -10 -2 -14 4 -10 6 4 14 0 17 -9 4 -10 2 -13 -7 -9 -6 4 -3 -1 7 -9
15 -12 16 -16 5 -17 -8 0 -6 -4 6 -9 11 -5 15 -9 8 -9 -7 -1 -10 -8 -7 -16 4
-8 11 -12 18 -8 6 4 5 -1 -3 -10 -10 -13 -10 -17 -1 -17 8 0 10 -8 7 -21 -3
-12 -3 -18 0 -15 8 8 53 -66 47 -76 -3 -5 0 -8 6 -8 7 0 10 7 6 15 -4 12 -2
13 13 6 26 -14 34 -1 14 21 -13 14 -13 18 -2 13 19 -7 41 -43 34 -55 -4 -6
-14 -6 -27 1 -18 10 -20 9 -15 -5 5 -11 3 -15 -4 -10 -8 5 -10 -5 -7 -30 2
-20 1 -36 -2 -36 -4 0 -4 -20 0 -45 4 -27 3 -49 -4 -56 -8 -9 -8 -10 0 -6 7 4
15 0 18 -9 9 -23 7 -31 -3 -15 -7 10 -9 7 -8 -12 1 -14 5 -23 9 -20 5 2 8 -6
8 -19 1 -61 2 -68 10 -63 10 6 7 -21 -3 -31 -4 -4 -2 -13 4 -20 7 -8 6 -14 -2
-20 -8 -5 -9 -3 -4 6 6 9 4 11 -5 5 -10 -6 -9 -11 5 -22 11 -7 14 -13 8 -13
-6 0 -10 -15 -10 -34 1 -19 5 -32 9 -30 4 3 8 0 8 -5 0 -6 -5 -11 -11 -11 -8
0 -7 -6 2 -17 8 -9 9 -14 3 -10 -12 7 -13 -37 -1 -49 11 -11 8 -36 -3 -29 -6
3 -7 -1 -4 -9 3 -9 10 -13 15 -10 5 3 6 -2 3 -10 -3 -9 -11 -13 -18 -10 -6 3
-3 -1 7 -9 19 -15 24 -32 6 -21 -6 3 -3 -8 6 -25 14 -28 14 -32 0 -37 -13 -5
-13 -9 -3 -21 10 -12 9 -18 -6 -28 -16 -12 -16 -14 4 -20 20 -6 20 -8 4 -20
-18 -12 -30 -50 -13 -39 5 3 9 0 9 -5 0 -6 -6 -11 -12 -11 -9 0 -8 -4 2 -10
13 -8 8 -14 -10 -12 -10 1 -5 -53 5 -60 6 -5 5 -8 -2 -8 -7 0 -13 -5 -13 -11
0 -5 5 -7 12 -3 7 5 8 3 3 -5 -4 -7 -9 -28 -11 -45 -3 -37 -35 -116 -46 -116
-5 0 -8 -6 -8 -13 0 -7 -9 -23 -20 -35 -13 -14 -16 -22 -8 -22 10 0 10 -2 -1
-9 -8 -5 -10 -14 -6 -21 6 -9 4 -11 -5 -5 -10 6 -12 4 -7 -8 4 -10 2 -17 -4
-17 -6 0 -8 -7 -5 -16 3 -8 2 -13 -3 -10 -11 7 -24 -41 -16 -55 4 -5 1 -8 -7
-7 -7 2 -12 -3 -10 -9 1 -7 -3 -13 -10 -13 -6 0 -8 -3 -5 -7 4 -3 2 -12 -4
-20 -6 -7 -8 -13 -4 -13 5 0 -1 -8 -12 -18 -19 -16 -55 -84 -57 -107 -1 -5 -6
-10 -13 -10 -6 0 -15 -4 -20 -9 -5 -5 -3 -6 5 -2 6 4 12 2 12 -3 0 -6 -4 -11
-9 -11 -5 0 -17 -8 -27 -17 -10 -10 -20 -18 -23 -19 -3 0 -13 -3 -21 -7 -38
-15 -130 -23 -141 -13 -9 8 -10 8 -6 0 5 -8 -11 -11 -53 -10 -37 2 -60 -2 -60
-8 0 -6 -5 -4 -10 4 -8 12 -10 12 -10 1 0 -8 -3 -11 -7 -8 -3 4 -12 2 -20 -4
-7 -6 -13 -9 -13 -6 0 3 -16 -1 -35 -9 -20 -8 -41 -12 -47 -8 -6 4 -8 3 -5 -3
4 -6 -6 -11 -21 -11 -50 -3 -77 -9 -101 -21 -14 -8 -21 -9 -17 -2 7 10 -14 6
-39 -8 -10 -5 -17 -7 -45 -13 -8 -2 -19 -6 -25 -9 -16 -10 -108 -31 -137 -33
-10 0 -18 -3 -18 -6 0 -6 -26 -10 -90 -14 -36 -2 -111 -36 -142 -64 -10 -8
-18 -12 -18 -8 0 3 -16 -1 -36 -9 -20 -8 -40 -12 -45 -9 -5 3 -9 0 -9 -5 0 -6
-4 -10 -8 -8 -11 3 -82 -36 -82 -45 0 -5 -7 -8 -16 -8 -8 0 -13 -4 -9 -9 3 -5
-4 -12 -15 -16 -11 -3 -20 -12 -20 -19 0 -8 -7 -19 -15 -26 -8 -7 -13 -16 -10
-20 3 -5 1 -11 -5 -15 -5 -3 -10 -15 -10 -25 0 -10 -5 -31 -12 -47 -6 -15 -13
-36 -15 -46 -1 -10 -12 -36 -22 -58 -11 -21 -14 -36 -8 -32 7 4 6 -1 -2 -10
-7 -9 -10 -17 -6 -17 4 0 2 -6 -4 -13 -6 -8 -8 -17 -4 -20 3 -4 2 -7 -4 -7
-10 0 -24 -30 -27 -55 -1 -5 -9 -19 -18 -29 -10 -10 -15 -23 -12 -28 3 -4 1
-8 -4 -8 -8 0 -12 -14 -13 -52 0 -10 -3 -18 -7 -18 -4 0 -7 -19 -7 -42 1 -41
-2 -52 -25 -98 -6 -13 -6 -21 1 -25 6 -4 3 -12 -8 -21 -17 -13 -17 -14 2 -8
16 6 18 5 8 -7 -7 -7 -13 -19 -13 -27 0 -8 5 -10 13 -6 9 6 9 4 -1 -8 -10 -12
-10 -18 -1 -23 8 -6 7 -10 -2 -16 -8 -5 -9 -9 -4 -9 12 0 13 -169 2 -187 -4
-6 -3 -14 2 -17 5 -4 8 -18 6 -32 -1 -15 3 -28 11 -31 8 -3 12 -9 9 -13 -3 -4
9 -23 25 -41 16 -19 30 -37 30 -40 0 -14 41 -16 54 -3 8 8 20 14 26 14 6 0 8
5 5 10 -3 6 -1 10 4 10 6 0 13 0 16 0 5 0 25 19 65 65 14 15 18 24 10 20 -13
-8 -13 -7 -1 9 13 15 20 41 23 84 1 6 6 12 11 12 5 0 4 6 -2 14 -9 11 -9 16 0
22 8 5 9 3 4 -6 -5 -8 -4 -11 2 -7 16 10 23 47 10 47 -7 0 -5 5 4 10 11 6 16
20 14 40 -1 16 1 30 6 30 5 0 9 9 9 20 0 11 5 20 12 20 6 0 9 3 5 6 -8 8 22
67 40 77 7 5 11 12 8 18 -4 5 2 9 11 9 10 0 14 3 11 7 -4 3 2 13 13 20 11 8
18 18 15 23 -3 4 2 13 11 21 8 7 14 22 13 33 0 12 0 24 1 29 6 17 8 29 9 53 1
20 5 25 17 20 14 -5 15 -4 4 9 -10 12 -10 15 4 15 10 0 15 4 11 9 -3 5 -1 12
5 16 5 3 10 11 10 17 0 7 -4 7 -13 -1 -10 -8 -14 -7 -14 4 0 7 5 13 11 12 6
-1 10 4 8 12 -2 8 3 11 11 8 10 -4 13 1 9 19 -3 16 1 26 12 30 9 3 16 12 16
19 0 8 6 20 13 27 7 7 18 22 25 33 6 11 12 14 12 7 0 -10 4 -9 16 2 8 9 20 14
25 11 5 -4 9 -2 9 2 0 5 9 9 20 9 11 0 20 -4 20 -9 0 -4 6 -5 13 0 18 11 36
12 43 2 3 -5 13 -5 25 2 11 5 25 8 32 6 7 -2 19 4 28 15 16 18 17 18 22 -3 4
-14 10 -18 19 -13 7 4 4 -2 -6 -14 -11 -12 -17 -22 -15 -23 2 0 12 -2 22 -4 9
-2 15 1 11 6 -3 5 0 9 6 9 6 0 8 5 4 12 -4 7 -3 8 5 4 6 -4 9 -12 6 -17 -4 -5
-2 -9 4 -9 5 0 11 5 13 10 2 6 13 11 26 10 12 0 32 0 44 -1 11 0 24 5 28 12 5
6 13 8 21 4 8 -6 11 -4 7 7 -4 8 0 15 8 16 8 1 21 3 29 4 8 1 12 5 10 9 -4 6
22 22 28 16 5 -4 35 28 31 34 -2 4 3 10 12 13 10 4 13 2 9 -7 -4 -6 3 -1 14
12 12 13 21 20 21 16 0 -4 8 -1 17 6 15 12 16 12 8 -1 -6 -11 -3 -10 12 2 11
10 24 18 30 18 5 0 18 9 27 19 10 11 25 17 37 14 11 -3 19 0 19 7 0 7 7 10 16
6 8 -3 28 1 45 9 16 9 29 12 29 8 0 -5 5 -1 10 7 7 11 10 11 10 2 0 -7 4 -11
9 -7 5 3 12 1 15 -4 4 -5 1 -13 -5 -17 -8 -5 -9 -3 -4 6 5 8 4 11 -3 6 -6 -3
-9 -15 -7 -25 2 -13 -1 -17 -13 -14 -13 3 -17 -3 -18 -26 -1 -21 2 -28 10 -24
6 4 5 -1 -3 -10 -7 -9 -17 -14 -22 -11 -5 3 -6 -3 -2 -12 4 -12 3 -15 -5 -10
-11 7 -13 3 -16 -36 -1 -7 -7 -18 -14 -24 -8 -5 -15 -22 -15 -36 -1 -14 -6
-24 -11 -20 -5 3 -7 -2 -3 -11 4 -10 2 -17 -4 -17 -6 0 -8 -7 -5 -16 3 -8 2
-13 -3 -10 -5 3 -9 -7 -9 -22 -2 -64 -12 -112 -28 -138 -14 -20 -15 -29 -6
-32 9 -3 8 -7 -3 -18 -8 -8 -12 -21 -9 -29 4 -8 1 -15 -6 -15 -6 0 -9 -4 -6
-8 4 -7 -11 -50 -35 -94 -5 -10 -5 -18 -1 -18 5 0 9 -7 9 -15 0 -8 -4 -12 -8
-9 -7 4 -25 -36 -20 -45 2 -2 -1 -7 -6 -10 -15 -11 -38 -45 -25 -37 6 4 12 2
12 -3 0 -6 -5 -11 -11 -11 -6 0 -9 -6 -6 -14 3 -8 -1 -17 -10 -20 -9 -4 -13
-9 -10 -12 9 -9 -17 -33 -28 -26 -5 3 -3 -3 5 -13 8 -10 10 -16 3 -12 -7 4
-14 -1 -18 -13 -4 -11 -10 -18 -14 -16 -4 3 -8 -4 -8 -16 -1 -11 -15 -31 -30
-45 -15 -14 -21 -22 -13 -18 8 5 5 -3 -7 -17 -13 -13 -23 -30 -23 -36 0 -7 -4
-12 -10 -12 -5 0 -10 -5 -10 -11 0 -5 6 -7 13 -3 6 4 -1 -5 -16 -20 -16 -14
-34 -23 -40 -20 -7 4 -9 4 -5 0 8 -9 -31 -56 -46 -56 -6 0 -4 5 4 10 8 5 11
10 6 10 -12 0 -85 -66 -118 -107 -12 -15 -13 -24 -5 -32 8 -8 6 -11 -6 -11 -9
0 -29 -19 -43 -42 -15 -24 -31 -45 -36 -46 -4 -2 -6 -8 -2 -13 3 -5 2 -9 -3
-9 -4 0 -9 -19 -10 -42 -1 -22 -7 -44 -14 -48 -7 -5 -8 -14 -4 -21 5 -8 5 -11
1 -7 -10 8 -36 -14 -29 -25 3 -4 -1 -14 -7 -22 -6 -8 -8 -20 -4 -26 4 -8 3 -9
-4 -5 -8 5 -12 -1 -12 -14 0 -13 -4 -19 -12 -14 -7 5 -9 0 -6 -14 4 -15 2 -19
-8 -15 -9 3 -14 -1 -14 -12 0 -9 -4 -13 -10 -10 -9 5 -15 -15 -11 -37 0 -5 -6
-8 -15 -8 -8 0 -13 -4 -9 -9 3 -5 0 -13 -6 -16 -5 -4 -8 -13 -5 -21 3 -8 1
-14 -5 -14 -6 0 -8 -3 -6 -7 7 -11 -19 -33 -29 -25 -5 4 -2 -2 6 -12 10 -13
10 -17 3 -12 -8 4 -13 1 -13 -8 0 -9 -4 -16 -9 -16 -17 0 -22 -34 -7 -46 9 -6
13 -14 9 -17 -3 -4 -1 -7 5 -7 7 0 12 5 12 11 0 6 7 4 15 -5 12 -11 22 -13 39
-6 13 5 27 6 30 3 3 -4 6 -1 6 6 0 7 5 9 12 5 7 -5 8 -3 4 5 -6 8 -2 11 10 9
15 -2 19 3 18 25 -1 15 3 27 8 27 6 0 8 -7 4 -15 -3 -8 -1 -15 4 -15 6 0 11 5
11 10 1 6 2 14 3 19 2 16 16 25 16 11 0 -7 3 -10 6 -7 4 4 1 13 -6 22 -10 13
-9 15 9 15 12 0 19 4 16 10 -9 15 14 52 28 43 8 -4 8 -2 -1 9 -10 13 -10 18
-1 24 8 4 9 3 5 -4 -4 -7 -2 -12 3 -12 6 0 11 8 11 18 0 10 6 24 13 31 8 10 8
12 0 7 -7 -4 -11 1 -10 13 1 13 5 17 12 11 7 -6 11 0 10 17 0 14 7 28 15 31
13 4 13 3 2 -11 -15 -17 -8 -37 11 -37 8 0 7 3 -2 9 -16 11 -5 34 12 24 7 -3
4 3 -6 14 -19 22 -14 35 10 26 13 -5 13 -3 4 16 -9 17 -9 21 1 19 7 -2 12 2
11 7 -1 6 9 15 23 22 13 6 22 7 18 2 -3 -5 0 -9 5 -9 6 0 11 -5 11 -11 0 -6
-9 -8 -22 -4 -13 3 -18 3 -13 -2 23 -19 13 -44 -11 -26 -5 5 -1 0 9 -10 18
-15 15 -22 -6 -18 -5 1 -6 -3 -2 -9 3 -5 3 -16 -2 -22 -13 -21 -15 -58 -3 -58
6 0 8 -5 4 -11 -4 -8 0 -8 15 0 11 7 21 8 21 4 0 -4 7 2 16 13 8 10 12 12 8 4
-4 -8 5 -3 20 12 31 30 59 27 51 -6 -2 -11 -2 -15 1 -8 3 6 12 12 20 12 8 0
14 6 14 13 0 9 2 9 9 -1 6 -10 10 -9 14 7 3 12 13 21 22 21 9 0 14 4 11 8 -3
5 12 8 34 8 21 -1 36 2 34 5 -2 4 10 12 28 18 18 6 47 27 63 47 17 19 38 44
48 55 9 10 14 19 11 19 -4 0 -1 7 6 15 6 8 9 19 5 25 -3 5 -2 10 3 10 5 0 9
10 8 22 -1 13 2 25 6 28 4 3 9 17 12 30 2 14 8 24 14 23 5 -1 8 6 5 16 -3 11
5 24 22 35 15 10 24 23 21 31 -3 8 -1 17 3 19 5 3 11 19 15 36 4 22 10 29 18
24 7 -4 10 -3 5 1 -4 5 0 19 8 32 9 13 13 28 10 33 -3 6 -1 10 5 10 6 0 8 5 5
10 -3 6 2 10 11 10 10 0 14 3 11 6 -4 4 7 31 23 60 16 30 27 54 24 54 -3 0 2
7 10 16 9 8 14 19 11 24 -3 5 -2 10 2 12 5 1 16 18 25 36 11 20 13 30 5 26 -6
-4 -3 2 7 14 11 12 15 22 10 22 -5 0 -1 5 8 11 10 5 15 16 12 24 -4 8 -1 15 6
15 6 0 9 4 5 9 -3 5 1 15 8 23 8 7 12 19 9 27 -3 8 0 11 6 7 7 -4 9 1 7 14 -2
11 1 20 6 20 6 0 7 5 4 10 -3 6 -2 10 4 10 5 0 8 9 6 20 -2 11 0 20 5 20 5 0
6 8 3 17 -5 12 -2 15 10 10 11 -4 14 -2 11 8 -3 7 4 33 15 58 12 25 21 51 21
57 0 6 5 8 12 4 6 -4 9 -3 5 2 -3 5 3 27 14 48 10 21 16 43 13 47 -3 5 0 9 6
9 6 0 8 5 5 10 -3 6 -2 10 4 10 5 0 8 9 6 21 -3 16 -1 18 8 10 10 -7 13 -4 15
15 1 13 9 35 17 48 8 12 12 26 8 29 -3 4 -1 7 6 7 7 0 9 5 5 12 -5 7 -2 9 9 5
12 -4 14 -2 10 10 -4 11 -2 14 5 9 8 -5 10 -2 6 8 -3 9 -9 14 -13 11 -4 -2 -8
2 -8 10 0 12 4 12 19 -2 13 -11 18 -13 16 -4 -2 7 7 17 20 22 13 5 22 5 22 -1
0 -5 7 -6 17 -3 10 4 14 2 10 -4 -4 -7 7 -16 27 -23 19 -6 40 -17 46 -25 6 -7
20 -12 30 -10 11 2 23 -1 26 -7 5 -7 2 -8 -6 -3 -8 5 -11 4 -7 -2 3 -5 20 -9
36 -8 17 1 28 -1 26 -5 -2 -3 5 -12 17 -19 11 -7 17 -8 14 -2 -4 6 6 4 21 -4
31 -17 56 -20 33 -5 -9 6 -10 10 -3 10 6 0 18 -7 27 -15 9 -9 17 -11 21 -5 9
15 25 12 25 -6 0 -8 5 -12 10 -9 6 4 16 2 23 -3 7 -6 23 -12 37 -14 14 -1 32
-11 41 -20 12 -13 19 -14 27 -6 9 9 12 9 12 0 0 -6 7 -9 15 -6 8 4 15 1 15 -6
0 -7 7 -10 16 -6 8 3 12 2 9 -4 -3 -6 1 -10 10 -10 10 0 13 -5 9 -12 -5 -8 0
-7 11 2 11 9 16 10 11 3 -6 -12 5 -18 27 -14 4 0 7 -4 7 -10 0 -8 4 -8 14 0
12 10 13 8 9 -10 -5 -17 -3 -20 7 -14 10 6 12 4 7 -8 -3 -10 -2 -17 4 -17 6 0
7 -4 4 -10 -3 -5 -1 -10 5 -10 7 0 9 -7 6 -16 -4 -10 -2 -13 6 -8 7 5 9 2 6
-7 -3 -8 0 -23 8 -34 9 -12 14 -14 14 -5 0 7 3 10 6 7 4 -4 1 -14 -7 -24 -12
-14 -12 -16 0 -8 11 6 13 4 8 -8 -4 -11 -1 -17 8 -17 8 0 15 -9 15 -20 0 -11
5 -20 11 -20 5 0 7 -5 4 -10 -4 -6 -1 -9 6 -8 6 2 14 -3 17 -11 3 -9 0 -11 -8
-6 -9 5 -11 4 -6 -4 5 -8 12 -9 20 -2 11 10 14 2 18 -46 1 -7 8 -13 17 -14 11
0 12 -2 3 -6 -10 -4 -9 -10 5 -26 10 -11 13 -18 7 -14 -6 3 -11 0 -11 -8 0 -8
4 -12 9 -9 4 3 8 -2 8 -10 0 -9 4 -16 10 -16 5 0 7 -7 4 -15 -4 -8 -1 -15 5
-15 6 0 8 -7 4 -17 -4 -10 -2 -14 5 -9 7 4 10 -6 9 -33 -1 -22 2 -37 7 -34 5
3 6 0 4 -8 -3 -8 2 -22 10 -32 14 -16 14 -17 0 -12 -13 5 -15 2 -11 -14 3 -12
10 -18 17 -14 7 4 7 1 -1 -8 -10 -12 -10 -18 -1 -27 9 -9 9 -12 -2 -12 -9 0
-8 -6 6 -22 10 -12 13 -18 7 -14 -8 4 -13 1 -13 -8 0 -8 6 -17 13 -19 10 -4
10 -6 0 -6 -7 -1 -13 -8 -13 -16 0 -8 6 -15 13 -15 8 0 7 -4 -3 -10 -13 -8
-13 -13 -2 -31 8 -11 9 -18 3 -15 -5 4 -9 -2 -8 -14 1 -11 5 -20 10 -20 5 0 4
-7 -3 -15 -7 -8 -9 -15 -5 -15 4 0 2 -7 -5 -15 -11 -13 -10 -14 5 -9 14 6 16
4 10 -6 -16 -26 -15 -100 2 -120 20 -23 50 -16 31 8 -10 12 -10 14 0 8 6 -4
12 -2 12 3 0 6 -4 11 -10 11 -5 0 -10 4 -10 8 0 5 7 9 15 9 8 0 12 -4 9 -9 -3
-4 0 -8 7 -8 8 0 8 -4 -1 -15 -8 -10 -9 -15 -2 -15 7 0 9 -7 5 -17 -5 -13 -2
-15 12 -10 14 6 16 5 6 -6 -9 -12 -7 -14 11 -13 17 1 23 7 22 24 -1 18 1 20
12 11 12 -10 13 -8 6 12 -7 18 -5 27 7 37 9 7 10 11 4 7 -8 -4 -13 0 -13 10 0
9 4 14 8 11 5 -3 9 1 9 9 0 8 -5 15 -11 15 -8 0 -8 2 0 8 19 13 24 51 5 46 -9
-3 -5 2 9 10 14 8 20 15 14 16 -6 0 -11 7 -11 15 0 9 6 14 13 11 17 -7 28 10
13 20 -8 5 -9 3 -4 -6 5 -9 4 -11 -4 -6 -9 6 -9 11 0 22 9 12 15 12 27 2 11
-9 13 -9 9 -1 -4 6 0 19 9 27 8 9 11 16 5 16 -6 0 -11 5 -11 11 0 5 4 8 9 5
11 -7 9 13 -3 33 -6 10 -5 12 2 7 20 -12 35 4 20 22 -10 12 -10 14 0 8 6 -4
12 -2 12 3 0 6 -4 11 -10 11 -5 0 -10 5 -10 11 0 5 5 7 10 4 6 -3 10 -1 10 5
0 6 4 9 8 6 10 -6 9 30 -1 40 -3 4 -1 16 4 27 8 15 8 22 -2 28 -12 7 -11 9 0
9 11 0 12 3 3 12 -8 8 -8 17 -1 30 9 16 7 20 -10 25 -11 3 -19 9 -16 13 3 5
-2 15 -10 23 -8 9 -15 21 -15 27 0 6 -10 15 -22 20 -13 5 -17 9 -9 9 9 1 2 12
-17 30 -16 16 -35 38 -42 48 -11 17 -11 17 -6 0 4 -11 2 -16 -5 -11 -6 3 -8
15 -6 26 5 16 3 17 -9 7 -8 -6 -17 -9 -21 -5 -3 3 -1 6 5 6 7 0 12 5 12 11 0
5 -6 7 -12 3 -8 -5 -7 0 2 11 8 10 10 16 4 12 -7 -4 -15 0 -18 9 -3 8 -11 12
-17 8 -8 -4 -9 -3 -5 5 4 6 11 9 15 7 4 -3 8 1 8 9 0 8 -4 12 -9 9 -4 -3 -16
0 -25 6 -17 11 -17 11 0 6 16 -5 16 -4 1 19 -9 14 -21 22 -26 19 -6 -4 -5 4 2
16 10 19 10 22 -2 18 -9 -4 -14 1 -15 15 -1 11 -7 23 -13 27 -6 4 -8 14 -4 23
4 13 2 16 -9 12 -8 -4 -17 1 -21 10 -4 11 -2 14 7 10 6 -4 5 -1 -3 7 -8 7 -16
20 -18 28 -2 8 -11 21 -20 28 -9 7 -16 20 -14 29 2 9 -1 12 -7 8 -6 -3 -14 1
-17 9 -3 9 -10 13 -15 10 -5 -3 -9 -2 -8 3 4 23 -2 35 -16 29 -8 -3 -14 -2
-14 2 3 19 -2 33 -10 27 -5 -3 -16 2 -24 10 -9 8 -20 15 -26 15 -6 0 -11 5
-11 10 0 6 -5 10 -11 10 -5 0 -8 -4 -5 -8 3 -5 -1 -9 -9 -9 -8 0 -14 3 -13 6
2 19 -4 30 -18 35 -9 4 -13 2 -8 -5 4 -8 0 -7 -15 0 -11 7 -21 16 -21 22 0 6
-4 7 -10 4 -5 -3 -10 -1 -10 5 0 7 -6 10 -14 7 -7 -3 -21 4 -30 14 -9 11 -21
17 -26 14 -6 -3 -10 -1 -10 5 0 6 -4 8 -10 5 -5 -3 -10 0 -10 9 0 9 -8 13 -25
11 -14 -1 -28 2 -32 8 -4 6 -1 7 7 2 9 -5 11 -4 6 4 -6 9 -11 9 -24 -1 -12
-10 -14 -10 -8 0 5 8 -2 16 -19 22 -14 5 -23 15 -20 20 4 6 3 9 -2 8 -5 -2
-21 8 -35 22 -14 14 -41 36 -59 50 -18 14 -38 31 -46 38 -7 7 -17 11 -22 7
-31 -18 -17 75 14 97 5 4 7 8 3 8 -4 0 6 26 22 57 16 31 27 60 24 65 -3 4 0 8
6 8 6 0 8 5 5 10 -3 6 -1 10 4 10 6 0 10 3 10 8 -4 22 2 42 10 37 6 -3 8 4 6
15 -2 11 1 20 6 20 6 0 7 5 4 10 -3 6 -2 10 2 10 5 0 9 10 10 22 1 11 8 25 15
29 7 5 9 9 4 9 -5 0 -4 6 1 13 5 6 8 22 7 35 0 12 3 22 7 22 5 0 8 3 8 8 -1 4
-1 9 1 12 1 3 3 16 6 30 2 14 8 34 14 45 17 37 43 100 44 108 1 4 8 12 16 17
8 5 11 10 5 10 -5 0 -1 7 9 15 14 11 16 15 5 15 -10 1 -8 6 7 18 13 11 20 26
18 40 -2 12 0 22 4 22 5 0 8 10 7 23 -1 12 2 30 7 41 8 14 7 17 -3 11 -8 -6
-10 -4 -4 5 5 7 9 25 11 39 1 14 3 28 4 31 3 7 7 23 8 38 1 7 7 10 14 6 7 -5
8 -3 2 7 -12 20 -12 162 1 171 6 5 5 8 -3 8 -7 0 -11 4 -7 9 11 19 4 268 -8
289 -5 7 -3 12 5 12 8 0 9 3 3 8 -5 4 -11 21 -13 37 -1 17 -3 42 -4 58 -2 15
-6 27 -10 27 -5 0 -8 11 -8 25 0 14 -4 25 -9 25 -4 0 -7 11 -6 24 2 13 -4 37
-12 52 -8 16 -15 41 -16 56 -1 15 -4 28 -7 28 -3 0 -6 16 -7 35 -1 19 -8 44
-17 56 -8 12 -12 28 -9 36 3 8 1 18 -5 22 -6 3 -12 18 -14 31 -2 14 -7 31 -11
38 -5 6 -5 12 -1 12 4 0 -1 7 -12 16 -10 8 -13 13 -6 9 18 -9 15 6 -5 22 -10
8 -12 12 -6 8 9 -4 11 -1 7 9 -3 9 -11 13 -17 9 -6 -4 -8 0 -4 10 4 10 2 17
-4 17 -6 0 -9 7 -5 15 3 8 1 15 -4 15 -6 0 -10 7 -10 15 0 8 -6 15 -12 15 -9
0 -8 4 2 10 8 5 10 10 4 10 -11 0 -13 7 -16 54 -1 14 -6 22 -12 19 -5 -4 -7 1
-3 10 3 10 2 17 -3 17 -5 0 -6 7 -3 17 5 12 3 14 -7 8 -10 -6 -12 -4 -7 8 3 9
2 19 -4 23 -6 3 -8 12 -5 20 3 8 2 13 -2 13 -26 -4 -37 1 -22 11 10 6 11 10 3
10 -7 0 -13 12 -13 26 0 14 -4 23 -9 19 -5 -3 -13 5 -17 17 -4 13 -14 29 -23
36 -9 8 -10 10 -3 7 15 -8 -2 27 -26 53 -7 7 -10 18 -7 22 3 5 -6 17 -20 26
-25 16 -60 64 -36 50 6 -4 11 -2 11 3 0 6 -5 11 -11 11 -13 0 -33 21 -37 40
-2 7 -11 21 -21 29 -9 9 -20 23 -23 32 -4 9 -26 31 -49 50 -24 19 -39 27 -35
19 5 -8 -2 -4 -15 10 -13 13 -23 28 -21 33 1 5 -2 6 -8 2 -5 -3 -10 -1 -10 6
0 7 -3 10 -6 6 -8 -8 -34 18 -34 33 0 6 -4 9 -10 5 -5 -3 -18 3 -30 15 -11 11
-23 20 -28 20 -4 0 -13 9 -20 20 -7 11 -18 20 -25 20 -7 0 -20 9 -30 20 -10
12 -23 18 -29 14 -6 -4 -8 -3 -5 3 4 6 0 16 -8 23 -8 7 -15 9 -15 6 0 -4 -15
7 -32 23 -18 17 -39 31 -46 31 -7 0 -15 7 -19 16 -3 8 -12 13 -20 10 -8 -3
-11 -1 -8 4 3 6 -3 10 -15 10 -12 0 -18 5 -15 10 3 6 -1 10 -9 10 -9 0 -16 5
-16 11 0 6 -7 8 -16 5 -8 -3 -12 -2 -9 3 3 5 -5 13 -17 17 -12 3 -27 12 -33
18 -7 6 -23 20 -38 30 -14 11 -24 23 -21 28 5 7 -19 13 -40 9 -5 -1 -3 6 5 15
9 12 9 15 2 10 -7 -4 -13 -3 -13 3 0 6 -6 8 -14 5 -7 -3 -21 2 -30 11 -9 9
-25 17 -36 18 -11 1 -20 5 -20 10 0 4 -4 5 -10 2 -5 -3 -10 2 -10 12 0 10 -3
14 -8 8 -8 -13 -22 -13 -41 -1 -11 7 -12 6 -6 -5 5 -8 -1 -5 -13 5 -17 14 -22
16 -22 5 0 -8 -3 -10 -8 -4 -11 15 -64 17 -55 2 5 -9 3 -9 -8 -1 -8 6 -30 10
-49 10 -19 -1 -40 2 -47 7 -6 4 -14 3 -19 -4z m2180 -4419 c-2 -20 1 -29 9
-27 6 1 12 -5 12 -14 0 -9 7 -25 15 -35 8 -11 3 -9 -13 5 -15 14 -27 19 -27
13 0 -6 4 -14 10 -17 6 -4 5 -16 -4 -33 -7 -15 -11 -33 -9 -39 3 -7 0 -13 -7
-13 -6 0 -8 -5 -5 -10 4 -6 12 -7 18 -3 7 4 6 0 -2 -10 -7 -9 -17 -14 -22 -11
-5 3 -9 3 -9 0 0 -7 57 -37 67 -35 22 4 43 -2 43 -11 0 -7 -6 -7 -20 0 -16 9
-20 8 -20 -5 0 -8 -4 -15 -10 -15 -5 0 -10 6 -10 13 0 8 -11 19 -25 25 -16 7
-25 8 -25 1 0 -5 6 -12 14 -15 20 -8 27 -31 10 -31 -7 0 -11 4 -8 9 6 10 -10
11 -19 1 -4 -3 0 -14 9 -24 9 -10 11 -19 5 -23 -5 -4 -12 -2 -16 4 -4 6 -10 8
-15 5 -4 -3 -7 3 -5 12 1 10 -5 27 -14 37 -9 11 -10 16 -3 12 8 -5 11 -1 8 16
-3 13 -5 23 -6 23 -14 0 -4 64 11 73 10 7 19 8 19 3 0 -5 -5 -12 -10 -14 -6
-3 -5 -4 2 -3 18 4 16 31 -2 32 -23 1 -50 15 -50 26 0 5 4 7 9 4 5 -4 12 0 15
6 3 7 4 6 3 -4 -2 -17 0 -18 31 -18 16 1 16 1 0 14 -10 7 -18 17 -18 22 0 4 5
3 12 -4 18 -18 32 -14 17 5 -10 11 -10 14 -1 9 7 -4 12 -2 13 6 0 7 2 21 4 31
2 9 -2 17 -8 18 -7 0 -3 4 8 9 11 5 21 9 21 9 1 1 0 -12 -2 -29z"/>
<path d="M2740 4713 c0 -7 -7 -10 -15 -7 -8 4 -15 2 -15 -4 0 -6 -11 -9 -24
-8 -14 2 -27 -3 -30 -10 -3 -8 -12 -14 -20 -14 -24 0 -96 -43 -89 -53 4 -6 0
-8 -10 -4 -10 4 -17 2 -17 -4 0 -6 -7 -9 -15 -5 -8 3 -14 2 -14 -2 3 -21 -3
-30 -26 -36 -14 -4 -24 -12 -22 -19 1 -6 -4 -11 -10 -9 -7 1 -13 -4 -14 -10 0
-7 -21 -30 -45 -50 -25 -21 -42 -38 -37 -38 4 0 -3 -7 -15 -16 -12 -8 -20 -19
-17 -24 3 -4 -2 -11 -11 -14 -8 -3 -13 -10 -10 -15 4 -5 0 -12 -6 -14 -10 -4
-10 -6 0 -6 10 -1 9 -6 -4 -18 -11 -11 -13 -18 -5 -21 7 -2 5 -9 -5 -19 -11
-12 -12 -18 -4 -23 9 -6 9 -9 0 -12 -7 -2 -13 -20 -14 -41 0 -20 -3 -37 -6
-37 -3 0 -5 -16 -4 -35 1 -19 -1 -35 -5 -35 -3 0 -7 -14 -8 -32 -1 -17 -8 -35
-15 -40 -7 -4 -9 -8 -5 -8 5 0 0 -12 -11 -27 -10 -16 -17 -34 -14 -42 2 -8 0
-11 -6 -7 -6 3 -13 -10 -17 -34 -4 -22 -11 -42 -16 -46 -5 -3 -7 -10 -4 -15 4
-5 1 -9 -4 -9 -6 0 -11 -9 -11 -21 0 -11 -4 -17 -10 -14 -6 3 -7 -1 -4 -9 3
-9 1 -16 -4 -16 -6 0 -14 -9 -17 -20 -4 -11 -11 -18 -16 -15 -5 3 -6 -1 -3 -9
4 -9 0 -18 -9 -22 -10 -4 -14 -14 -11 -31 3 -15 1 -22 -6 -18 -5 3 -11 -3 -11
-14 -1 -12 -2 -26 -3 -31 -2 -15 -28 -30 -40 -23 -5 3 -6 1 -2 -5 4 -7 1 -12
-6 -12 -9 0 -9 -3 2 -10 12 -8 10 -10 -8 -10 -13 0 -20 -4 -17 -10 3 -5 1 -10
-5 -10 -7 0 -9 -7 -6 -16 5 -14 4 -15 -8 -5 -13 11 -14 9 -10 -13 3 -16 -1
-28 -9 -31 -11 -5 -16 -19 -19 -62 -1 -7 -5 -13 -9 -13 -4 0 -8 -8 -8 -17 -1
-38 -5 -53 -12 -53 -5 0 -6 -6 -3 -14 3 -7 -1 -20 -8 -27 -7 -8 -13 -20 -12
-26 1 -7 2 -22 3 -34 0 -11 6 -17 11 -14 6 3 10 1 10 -4 0 -15 83 -14 99 2 10
8 15 9 18 1 2 -6 15 -9 28 -6 14 2 22 8 20 13 -3 4 3 6 15 4 11 -2 22 1 25 6
4 5 11 6 17 3 7 -4 8 -2 4 4 -4 7 3 14 19 18 14 3 25 10 25 16 0 5 4 7 9 3 5
-3 12 -1 16 5 4 6 11 8 16 4 5 -3 8 0 7 8 -2 7 5 12 14 12 10 -1 15 2 12 7 -3
5 2 12 10 15 9 3 13 11 10 16 -4 6 1 8 13 4 14 -4 23 2 36 24 10 16 23 29 30
27 6 -1 11 3 12 8 0 13 48 61 57 58 5 -2 8 2 8 8 0 5 5 7 10 4 6 -3 10 -1 10
6 0 7 3 9 7 5 5 -4 -1 -14 -11 -22 -13 -9 -15 -14 -6 -14 7 0 10 -3 7 -6 -4
-4 -14 -1 -24 7 -15 12 -16 12 -10 -4 7 -19 5 -22 -38 -71 -22 -26 -30 -27
-26 -3 1 5 -3 6 -9 2 -6 -3 -8 -10 -5 -15 9 -14 -7 -41 -21 -36 -8 3 -13 2
-11 -2 1 -4 -15 -24 -35 -44 -21 -20 -38 -39 -38 -43 0 -10 -48 -55 -59 -55
-5 0 -17 -10 -27 -22 -15 -20 -16 -21 -10 -3 5 17 4 18 -6 5 -19 -23 -92 -75
-100 -72 -5 1 -8 -2 -8 -8 0 -6 -6 -9 -12 -8 -7 2 -12 -3 -10 -10 1 -8 -1 -11
-6 -8 -4 2 -30 -9 -57 -26 -28 -16 -41 -27 -30 -24 15 5 13 1 -9 -19 -16 -14
-24 -25 -17 -25 7 0 9 -5 6 -10 -4 -6 -11 -8 -16 -5 -5 3 -6 -2 -2 -11 5 -13
3 -15 -7 -9 -9 6 -12 4 -8 -7 5 -11 -1 -14 -23 -13 -15 1 -26 -2 -23 -7 5 -8
-9 -11 -48 -11 -10 0 -15 -4 -12 -8 3 -5 -3 -9 -12 -9 -26 0 -84 -23 -84 -33
0 -4 -4 -6 -9 -3 -5 3 -12 -1 -15 -10 -3 -8 -10 -12 -16 -9 -5 3 -10 -1 -10
-10 0 -9 -4 -13 -10 -10 -5 3 -10 1 -10 -5 0 -6 -4 -8 -10 -5 -5 3 -12 -6 -16
-20 -4 -17 -11 -24 -20 -21 -8 3 -14 -1 -14 -8 0 -17 -46 -67 -54 -59 -6 6
-10 -12 -7 -30 0 -4 -2 -6 -6 -5 -11 4 -53 -39 -46 -46 3 -3 -6 -8 -21 -12
-14 -3 -26 -11 -26 -18 0 -6 -5 -4 -10 4 -8 13 -10 12 -10 -2 0 -16 -11 -23
-25 -15 -9 5 -53 -66 -49 -78 4 -10 -4 -13 -31 -11 -19 2 -34 1 -31 -1 6 -6
-43 -53 -56 -53 -6 0 -8 -3 -5 -6 4 -4 -10 -23 -31 -43 -40 -38 -78 -91 -74
-103 1 -4 -5 -5 -13 -2 -14 6 -20 -6 -16 -29 1 -5 -3 -6 -9 -2 -5 3 -10 1 -10
-4 0 -6 -6 -11 -13 -11 -7 0 -23 -9 -35 -20 -12 -11 -25 -20 -31 -20 -5 0 -12
-7 -15 -16 -4 -9 -13 -14 -21 -10 -9 3 -15 0 -15 -10 0 -8 -5 -12 -10 -9 -6 3
-10 1 -10 -4 0 -6 -7 -11 -15 -11 -8 0 -15 -5 -15 -11 0 -5 -4 -7 -10 -4 -5 3
-10 1 -10 -4 0 -16 -37 -50 -46 -43 -4 4 -4 -1 -1 -11 4 -10 3 -16 -2 -13 -12
8 -33 -19 -23 -29 4 -5 1 -5 -6 -1 -7 4 -15 1 -18 -8 -3 -9 -12 -16 -20 -16
-8 0 -13 -6 -11 -12 1 -7 -4 -12 -10 -11 -7 2 -13 -1 -13 -5 0 -5 -9 -19 -20
-32 -11 -13 -20 -20 -20 -16 0 4 -14 -8 -30 -26 -17 -18 -30 -29 -30 -25 0 4
-6 2 -14 -5 -8 -7 -12 -15 -11 -18 2 -3 -6 -7 -17 -7 -12 -1 -24 -7 -28 -13
-4 -7 -10 -12 -13 -11 -18 1 -75 -30 -80 -44 -4 -8 -14 -15 -22 -15 -12 0 -15
-6 -10 -22 7 -23 7 -23 -10 -3 -15 18 -16 18 -11 1 5 -13 2 -17 -8 -13 -8 3
-22 -4 -33 -15 -10 -12 -12 -18 -5 -14 6 4 12 2 12 -3 0 -10 -13 -15 -25 -8
-8 4 -34 -38 -35 -56 0 -10 -6 -20 -14 -23 -9 -3 -12 -12 -9 -21 4 -10 2 -14
-4 -10 -5 3 -10 0 -10 -8 0 -8 5 -15 10 -15 5 0 7 -6 4 -13 -4 -11 6 -13 44
-11 27 1 47 -1 44 -6 -3 -4 4 -10 15 -13 11 -3 20 -1 20 4 0 5 3 8 7 7 16 -4
51 13 57 28 3 9 11 12 17 8 8 -4 9 -3 5 4 -9 15 36 12 46 -3 5 -6 8 -5 8 3 0
6 6 12 14 12 8 0 18 5 22 12 4 6 3 8 -3 5 -5 -3 -25 -9 -44 -12 -30 -4 -31 -4
-14 7 24 14 65 16 66 3 1 -15 41 -33 62 -29 15 2 16 0 8 -10 -13 -16 13 -31
31 -19 6 3 8 1 5 -4 -4 -6 2 -13 12 -16 14 -3 18 -1 14 9 -3 8 0 14 7 14 6 0
9 4 6 9 -3 5 6 21 19 35 14 15 25 31 25 37 0 5 5 9 11 9 5 0 8 4 4 9 -3 6 4
15 15 21 18 10 19 14 8 28 -9 11 -9 14 -1 8 7 -4 20 2 30 14 10 11 23 20 30
20 13 0 136 80 141 93 2 4 8 5 13 1 5 -3 9 0 9 6 0 6 5 8 10 5 6 -3 10 -2 10
3 0 14 79 64 90 57 6 -3 10 -1 10 5 0 7 7 9 16 6 9 -3 12 -2 9 5 -4 6 2 13 14
16 12 3 21 10 21 15 0 5 4 7 9 3 5 -3 13 0 16 6 4 5 14 8 22 5 8 -3 11 -2 8 4
-7 11 29 32 39 23 3 -3 6 -1 6 5 0 7 7 12 15 12 8 0 15 4 15 8 0 8 60 36 73
33 4 0 7 3 7 8 0 5 9 13 20 16 12 4 30 16 40 28 11 11 20 17 20 13 0 -4 10 3
22 14 12 11 28 18 35 16 7 -3 13 -1 13 4 0 6 7 10 15 10 8 0 15 5 15 10 0 6 6
9 13 8 6 -2 11 3 9 10 -2 9 4 12 17 7 12 -3 21 0 25 10 3 9 10 14 15 10 6 -3
15 4 21 15 9 17 14 19 26 9 11 -9 14 -8 14 6 0 10 3 15 6 12 4 -4 19 2 34 13
15 11 30 17 34 13 3 -3 6 -1 6 6 0 7 5 9 10 6 6 -3 13 0 16 9 3 8 12 12 20 9
8 -3 14 -1 14 4 0 10 50 38 63 35 4 -1 7 2 7 8 0 6 3 10 8 9 15 -2 52 14 52
23 0 6 6 8 14 5 8 -3 17 0 19 8 3 7 21 16 39 20 18 4 39 12 47 19 12 9 13 8 6
-3 -6 -11 -3 -11 14 2 13 8 29 13 36 11 7 -3 15 2 19 11 3 9 10 14 15 11 5 -4
15 0 23 7 7 8 22 13 32 11 22 -3 86 26 86 39 0 5 8 3 17 -4 9 -8 14 -9 12 -4
-3 6 2 18 13 28 10 9 18 14 18 10 0 -4 9 2 20 13 31 31 50 45 50 37 0 -4 7 2
15 13 8 10 15 16 15 12 0 -4 22 15 49 41 28 27 52 46 55 43 4 -3 6 1 6 9 0 8
12 20 28 27 44 20 91 56 92 71 0 8 3 11 6 8 4 -4 15 10 25 31 17 34 76 113
114 153 8 9 15 21 15 28 0 7 5 9 12 5 6 -4 8 -3 4 4 -3 6 5 22 19 36 14 14 25
30 25 35 0 5 5 13 12 17 7 5 8 3 3 -6 -5 -9 -4 -11 4 -6 6 4 9 12 6 17 -4 5 0
15 7 22 7 8 27 31 43 52 17 21 36 44 43 51 7 8 11 14 7 14 -3 0 8 14 25 30 17
17 28 30 24 30 -3 0 1 11 10 25 9 13 16 31 16 40 0 8 6 15 13 15 9 0 8 3 -2 9
-9 6 -9 10 -2 12 6 2 12 16 13 32 1 15 7 27 13 27 5 0 3 5 -5 10 -10 6 -11 10
-2 10 6 0 12 5 12 11 0 17 42 103 54 111 6 4 11 12 11 18 0 6 7 15 15 20 8 5
11 10 6 10 -5 0 -1 9 9 20 10 11 15 20 11 20 -4 0 2 15 13 33 11 19 18 37 14
40 -3 4 -1 7 5 7 6 0 16 16 22 35 6 19 16 35 21 35 5 0 8 3 7 8 -1 4 6 20 17
36 22 33 22 34 31 141 3 44 8 83 11 87 2 5 0 8 -4 8 -5 0 -9 10 -10 23 -2 70
-22 177 -33 177 -3 0 -7 6 -8 13 -2 23 -7 42 -17 57 -30 48 -53 99 -47 106 4
4 2 4 -4 1 -6 -3 -19 8 -29 26 -10 18 -27 39 -37 48 -10 9 -15 19 -12 22 3 3
-4 8 -15 12 -12 3 -21 11 -21 16 0 6 -4 7 -10 4 -5 -3 -10 -1 -10 4 0 6 -7 11
-16 11 -8 0 -12 5 -9 10 4 6 -5 10 -20 10 -15 0 -24 4 -20 10 6 10 -8 12 -87
15 -20 0 -43 7 -52 14 -12 10 -16 10 -16 2 0 -7 -5 -9 -10 -6 -17 10 -62 16
-57 8 8 -12 -47 -10 -55 2 -5 6 -8 5 -8 -2z m45 -623 c-10 -11 -13 -20 -7 -20
6 0 9 -11 6 -27 -5 -28 -13 -95 -18 -150 -3 -37 -23 -66 -40 -56 -6 4 -6 0 2
-9 10 -13 10 -17 -4 -22 -13 -5 -14 -9 -4 -21 7 -8 10 -16 6 -16 -3 -1 -10 -2
-15 -3 -15 -2 -26 -16 -12 -16 7 0 3 -9 -9 -22 -11 -12 -17 -24 -14 -27 3 -3
12 3 20 13 8 11 14 15 14 9 0 -5 -9 -20 -20 -33 -11 -12 -17 -28 -13 -34 4 -7
2 -7 -7 1 -17 15 -40 5 -33 -14 4 -10 2 -14 -4 -10 -6 4 -13 0 -17 -8 -3 -8
-10 -15 -16 -15 -6 0 -8 6 -4 13 6 9 5 9 -8 0 -13 -11 -15 -9 -13 15 3 39 -5
58 -17 40 -7 -9 -8 -4 -3 15 3 17 2 26 -4 23 -5 -3 -11 0 -14 8 -3 8 1 13 10
12 9 0 17 8 19 19 1 11 10 25 18 31 9 6 12 15 8 19 -4 5 1 5 11 2 10 -4 16 -3
13 2 -3 5 0 14 8 20 7 6 12 24 10 41 -2 18 1 30 8 30 7 0 3 7 -8 15 -10 8 -14
15 -9 15 6 0 11 11 11 24 1 19 -2 23 -15 19 -13 -4 -14 -3 -1 5 8 6 19 8 25 4
19 -12 34 -10 28 4 -3 8 -10 11 -17 7 -6 -3 -5 0 3 8 10 11 15 11 18 2 3 -7 9
-13 14 -13 6 0 7 5 4 10 -9 14 8 13 23 -2 9 -9 11 -6 7 10 -3 15 1 22 13 23 9
0 12 3 6 5 -17 7 4 48 31 61 29 15 30 15 10 -7z m-2439 -2389 c-4 -5 0 -11 6
-14 7 -2 9 -8 5 -13 -4 -5 -12 -2 -17 6 -7 11 -10 6 -10 -19 0 -31 1 -33 13
-17 11 15 17 17 35 7 26 -14 30 3 5 18 -19 11 -4 31 22 31 6 0 4 -4 -4 -9 -9
-6 -10 -14 -5 -22 15 -23 12 -83 -5 -95 -24 -18 -63 3 -51 27 12 21 13 29 3
28 -22 -4 -33 2 -27 14 5 8 3 8 -7 -1 -12 -11 -12 -15 2 -25 17 -13 22 -47 6
-47 -5 0 -7 7 -3 15 3 8 -2 18 -10 23 -8 5 -16 18 -17 30 -1 14 -6 21 -15 17
-8 -3 -10 0 -6 6 4 6 1 15 -6 19 -7 5 -2 8 15 8 18 0 25 -5 21 -14 -3 -8 -1
-14 4 -14 6 0 10 5 10 11 0 7 8 18 18 25 20 16 25 17 18 5z"/>
</g>
</svg>
