<?xml version="1.0" standalone="no"?>
<!DOCTYPE svg PUBLIC "-//W3C//DTD SVG 20010904//EN"
 "http://www.w3.org/TR/2001/REC-SVG-20010904/DTD/svg10.dtd">
<svg version="1.0" xmlns="http://www.w3.org/2000/svg"
 width="1024.000000pt" height="1024.000000pt" viewBox="0 0 1024.000000 1024.000000"
 preserveAspectRatio="xMidYMid meet">
<metadata>
Created by potrace 1.16, written by Peter Selinger 2001-2019
</metadata>
<g transform="translate(0.000000,1024.000000) scale(0.100000,-0.100000)"
fill="#000000" stroke="none">
<path d="M1516 9320 c6 -8 10 -25 9 -37 -1 -12 2 -20 7 -17 4 3 8 -1 9 -8 4
-62 21 -94 43 -81 5 3 6 1 2 -6 -4 -6 -11 -9 -16 -6 -4 3 -6 -4 -3 -15 3 -11
9 -20 13 -20 5 0 7 -11 6 -24 -2 -19 1 -23 13 -18 14 5 14 3 3 -10 -8 -10 -9
-19 -3 -22 10 -7 9 -25 -3 -44 -5 -9 -1 -15 14 -19 16 -4 18 -8 8 -14 -10 -7
-10 -9 0 -9 6 0 12 -5 12 -11 0 -5 -4 -7 -10 -4 -6 3 -7 -1 -4 -10 4 -10 13
-14 23 -11 13 5 12 3 -2 -8 -16 -12 -16 -15 -3 -29 8 -8 13 -17 9 -20 -3 -3 2
-19 10 -35 8 -17 11 -36 7 -43 -8 -13 9 -51 20 -44 4 2 7 -2 7 -10 0 -8 -5
-15 -10 -15 -5 0 1 -9 14 -21 13 -11 19 -18 14 -15 -6 2 -11 -4 -11 -15 0 -12
5 -18 13 -14 11 3 11 0 2 -16 -9 -17 -8 -20 2 -14 9 6 11 3 6 -8 -3 -9 -2 -19
3 -22 5 -3 7 -16 4 -29 -2 -14 3 -31 11 -40 9 -8 11 -17 6 -21 -17 -10 -1 -34
17 -27 16 5 16 5 1 -11 -20 -20 -18 -95 2 -108 12 -7 12 -9 0 -9 -10 0 -11 -3
-2 -14 9 -10 9 -16 1 -21 -8 -5 -8 -10 0 -20 8 -10 8 -15 0 -20 -7 -4 -8 -11
-1 -18 14 -18 14 -29 -1 -38 -7 -5 -8 -9 -2 -9 11 0 12 -75 1 -86 -4 -4 -2
-13 4 -21 6 -7 8 -13 5 -13 -4 0 -2 -10 5 -21 7 -13 7 -19 1 -15 -6 3 -13 2
-17 -4 -3 -5 -1 -10 5 -10 6 0 8 -4 5 -10 -3 -5 0 -10 7 -10 9 0 9 -3 -2 -10
-13 -9 -13 -10 0 -10 13 0 13 -1 0 -10 -12 -8 -12 -10 -1 -10 11 0 11 -3 0
-17 -8 -9 -9 -14 -3 -10 7 4 14 -2 17 -14 4 -15 2 -19 -9 -15 -12 5 -12 2 -2
-17 18 -34 18 -60 0 -44 -13 10 -14 9 -4 -10 7 -12 9 -35 5 -54 -5 -26 -3 -31
8 -25 9 5 9 3 -1 -6 -9 -7 -15 -25 -13 -41 1 -17 -2 -25 -9 -21 -6 4 -6 -2 1
-15 8 -14 8 -27 2 -39 -6 -11 -6 -24 -1 -32 6 -9 5 -17 -3 -22 -9 -6 -8 -8 2
-8 11 0 11 -3 1 -15 -10 -12 -10 -15 1 -15 10 0 10 -3 1 -12 -14 -14 -16 -32
-3 -24 5 4 7 -3 4 -14 -3 -11 -9 -17 -14 -14 -12 7 -11 -3 2 -28 9 -16 8 -19
-2 -13 -8 6 -11 4 -6 -7 3 -9 0 -21 -6 -27 -8 -8 -8 -11 2 -11 11 0 11 -3 1
-15 -6 -8 -9 -19 -5 -25 3 -5 1 -10 -5 -10 -6 0 -9 -4 -5 -9 3 -5 0 -13 -6
-17 -8 -4 -7 -9 2 -15 12 -8 12 -10 0 -18 -7 -5 -10 -14 -7 -20 4 -6 0 -14 -8
-17 -9 -3 -13 -10 -10 -15 3 -5 11 -7 17 -3 7 3 5 0 -3 -8 -9 -8 -15 -30 -15
-58 0 -25 -6 -56 -15 -70 -13 -21 -13 -23 0 -15 9 5 8 0 -4 -13 -11 -12 -17
-25 -13 -28 3 -3 2 -16 -3 -29 -6 -15 -4 -27 3 -34 9 -9 8 -11 -4 -6 -16 6
-17 2 -21 -50 -1 -14 -6 -25 -12 -25 -5 0 -7 -3 -4 -6 4 -3 -1 -22 -9 -42 -18
-42 -25 -77 -32 -155 -1 -5 -5 -6 -9 -3 -7 4 -12 -13 -15 -56 -1 -10 -5 -18
-10 -18 -5 0 -7 -6 -4 -14 3 -7 0 -19 -6 -26 -9 -10 -9 -11 3 -6 12 6 11 4 -1
-6 -9 -7 -17 -16 -17 -20 -4 -17 -4 -24 -3 -40 1 -10 -3 -18 -8 -18 -6 0 -11
-5 -11 -11 0 -5 5 -7 11 -3 6 3 3 -5 -6 -20 -10 -14 -14 -26 -10 -26 4 0 3 -6
-3 -12 -5 -7 -12 -24 -14 -38 -1 -14 -9 -31 -16 -38 -7 -8 -10 -18 -6 -23 3
-6 0 -16 -6 -24 -7 -8 -10 -22 -6 -30 3 -8 1 -15 -4 -15 -5 0 -7 -9 -5 -20 2
-11 0 -22 -6 -25 -5 -4 -9 -17 -9 -31 0 -14 -4 -22 -10 -19 -5 3 -7 0 -4 -8 3
-8 1 -18 -4 -21 -6 -3 -8 -15 -5 -26 3 -11 0 -20 -6 -20 -6 0 -11 -10 -11 -23
0 -13 -5 -28 -12 -35 -7 -7 -9 -12 -5 -12 4 0 1 -13 -8 -30 -9 -16 -12 -30 -8
-30 4 0 -2 -7 -13 -16 -10 -8 -13 -13 -6 -9 6 3 12 1 12 -4 0 -6 -4 -11 -10
-11 -5 0 -13 -12 -16 -27 -4 -16 -10 -30 -13 -33 -20 -17 -48 -89 -38 -99 7
-7 8 -11 1 -11 -6 0 -10 -13 -9 -30 1 -16 -1 -30 -5 -30 -4 0 -7 -6 -8 -12 -1
-7 -3 -24 -4 -38 -2 -14 -6 -27 -9 -30 -4 -3 -9 -22 -12 -43 -3 -20 -10 -43
-16 -51 -6 -7 -8 -16 -4 -19 3 -4 0 -7 -7 -7 -7 0 -10 -3 -7 -7 4 -3 -1 -12
-11 -20 -11 -10 -12 -12 -2 -8 8 4 5 -2 -7 -13 -17 -15 -19 -22 -10 -32 9 -10
9 -11 0 -6 -12 6 -18 -5 -14 -26 0 -5 -4 -7 -10 -5 -6 1 -13 -6 -15 -15 -6
-28 -12 -52 -14 -58 -1 -3 -2 -8 -1 -12 0 -5 -3 -8 -8 -8 -13 0 -21 -40 -8
-40 7 0 3 -7 -7 -15 -11 -8 -17 -15 -13 -15 4 0 3 -9 -3 -20 -7 -13 -7 -20 -1
-20 6 0 8 -7 5 -15 -4 -8 -9 -13 -13 -11 -6 4 -10 -15 -12 -66 0 -10 -4 -18
-7 -18 -4 0 -9 -15 -10 -32 -4 -52 -12 -92 -21 -98 -4 -3 -6 -20 -5 -38 0 -18
-5 -39 -11 -46 -8 -8 -10 -18 -5 -26 5 -8 6 -18 4 -22 -5 -7 -12 -49 -16 -95
-1 -7 -4 -13 -8 -13 -3 0 -6 -18 -5 -40 1 -22 -4 -40 -9 -40 -6 0 -5 -4 2 -9
11 -6 10 -10 -3 -15 -14 -5 -15 -9 -5 -21 10 -12 10 -15 0 -15 -9 0 -9 -4 -2
-13 7 -8 7 -18 2 -27 -5 -9 -5 -19 1 -26 7 -8 6 -14 -1 -19 -7 -4 -7 -12 0
-24 5 -10 6 -21 3 -25 -10 -10 -9 -117 1 -123 5 -3 -2 -15 -15 -25 -13 -11
-19 -17 -13 -14 7 3 11 -6 10 -24 -1 -17 -5 -30 -9 -30 -4 0 -3 -8 2 -18 6
-11 6 -24 0 -34 -6 -11 -6 -19 1 -23 6 -4 7 -11 3 -18 -4 -6 -8 -25 -10 -41
-2 -17 -9 -34 -16 -38 -6 -4 -7 -8 -2 -8 6 0 10 -11 10 -25 0 -14 -2 -25 -5
-25 -10 0 -5 -105 5 -112 6 -5 6 -8 -1 -8 -6 0 -11 -12 -12 -28 0 -56 -2 -63
-14 -56 -7 5 -8 3 -2 -7 12 -20 14 -38 3 -45 -5 -3 -5 -12 0 -23 5 -9 6 -23 1
-31 -4 -7 -6 -24 -4 -37 3 -14 1 -22 -5 -19 -8 5 -8 -14 -1 -34 7 -19 3 -106
-5 -112 -6 -5 -4 -8 5 -8 13 0 13 -1 0 -10 -13 -9 -13 -11 0 -20 13 -9 13 -10
0 -10 -9 0 -11 -3 -5 -8 6 -4 10 -41 10 -82 0 -41 -4 -78 -10 -82 -7 -5 -7 -8
0 -8 6 0 10 -15 10 -34 0 -19 -3 -32 -7 -29 -5 2 -4 -6 0 -19 5 -13 8 -38 6
-55 -1 -18 1 -33 5 -33 9 0 7 -43 -2 -57 -4 -7 -3 -14 3 -18 5 -3 10 -20 10
-36 0 -18 4 -28 10 -24 7 4 7 -2 1 -19 -8 -19 -6 -26 6 -30 12 -5 13 -9 3 -21
-8 -9 -8 -15 -2 -15 6 0 9 -8 7 -17 -1 -10 4 -35 12 -56 9 -20 13 -48 11 -62
-3 -13 -1 -22 3 -19 8 4 14 -35 10 -59 -1 -5 3 -6 9 -2 6 3 10 -3 10 -15 0
-14 4 -19 12 -14 7 5 9 2 5 -8 -3 -9 2 -26 10 -39 13 -17 13 -20 2 -14 -16 10
7 -23 26 -37 6 -5 4 -8 -5 -8 -12 -1 -11 -3 3 -11 9 -6 15 -14 12 -20 -4 -5
-1 -9 4 -9 6 0 11 -7 11 -15 0 -8 6 -15 13 -15 9 0 9 -2 0 -8 -10 -6 -9 -14 2
-35 8 -15 10 -25 5 -22 -6 4 -10 1 -10 -4 0 -6 9 -11 21 -11 11 0 17 -4 14
-10 -3 -5 -1 -10 4 -10 6 0 10 -6 9 -12 -2 -7 3 -12 11 -10 12 3 12 1 1 -15
-8 -10 -11 -15 -6 -11 12 10 34 -14 29 -33 -3 -9 1 -20 8 -24 8 -6 10 -4 4 6
-5 8 -4 10 0 6 5 -4 10 -15 11 -23 5 -31 14 -45 25 -38 8 4 9 3 5 -4 -8 -14 6
-45 20 -42 5 1 10 -4 13 -11 2 -7 -1 -9 -9 -4 -9 5 -11 4 -6 -4 6 -9 11 -9 21
-1 11 9 13 6 11 -14 -2 -14 0 -24 3 -23 9 3 61 -45 61 -56 0 -6 15 -23 33 -39
17 -16 32 -35 32 -41 0 -7 8 -11 18 -9 11 2 17 -4 17 -16 0 -24 25 -48 35 -32
3 5 12 10 18 10 8 0 8 -3 -2 -9 -9 -6 -10 -11 -2 -15 6 -4 11 -4 11 0 0 3 7 1
15 -6 9 -7 14 -19 11 -27 -4 -9 0 -13 12 -11 9 2 16 -2 15 -9 -2 -8 4 -10 14
-6 11 4 14 3 9 -5 -5 -8 0 -12 13 -12 12 0 21 5 21 12 0 6 3 9 6 6 3 -4 0 -16
-6 -28 -7 -13 -8 -20 -2 -16 6 3 14 1 17 -5 4 -5 13 -8 20 -5 7 2 16 -2 19
-11 4 -8 13 -13 21 -9 8 3 14 2 14 -2 -4 -24 3 -35 11 -17 8 18 9 18 9 -5 1
-20 3 -22 11 -10 8 12 10 12 10 -5 0 -17 2 -17 10 -5 8 12 10 12 10 -5 0 -17
2 -17 10 -5 9 14 14 7 12 -20 0 -3 11 -6 25 -7 14 0 29 -7 34 -15 8 -12 13 -5
10 14 0 4 6 5 15 1 9 -3 11 -9 6 -12 -6 -4 -4 -11 4 -19 12 -11 14 -10 14 5 0
15 2 15 15 -3 8 -10 15 -15 15 -10 0 5 7 3 15 -4 8 -7 15 -9 15 -5 0 5 10 0
22 -11 l22 -19 -18 30 c-19 30 -19 30 1 12 11 -9 23 -14 27 -10 4 4 4 0 1 -9
-5 -13 0 -15 25 -13 17 1 29 0 26 -3 -13 -13 29 -30 54 -21 24 9 24 9 5 -7
-19 -15 -19 -15 8 -10 15 2 27 1 27 -2 0 -4 12 -9 28 -10 15 -1 29 -7 30 -12
2 -6 8 -10 13 -10 6 0 7 5 4 10 -3 6 -2 10 4 10 5 0 11 -5 13 -10 6 -19 48
-20 49 -2 0 12 3 10 10 -6 6 -15 13 -21 21 -15 23 14 38 12 38 -5 0 -11 7 -7
20 13 16 25 19 26 17 8 0 -12 -5 -19 -9 -17 -4 3 -5 -2 -1 -11 3 -9 9 -12 12
-7 3 6 21 9 38 7 18 -1 30 1 28 6 -3 4 -14 6 -25 4 -11 -2 -20 0 -20 6 0 11
47 4 64 -10 7 -6 16 -8 20 -4 7 7 31 14 58 16 13 1 16 7 13 22 -5 15 -2 14 9
-5 14 -22 22 -17 17 12 0 4 6 5 14 2 8 -4 15 -14 15 -23 0 -12 2 -13 9 -3 12
19 15 19 36 2 17 -14 18 -14 6 9 -9 15 -9 21 -2 17 6 -4 23 -10 38 -12 24 -5
25 -3 12 13 -13 17 -13 17 5 3 22 -17 46 -22 46 -9 0 6 4 8 8 5 19 -12 61 -14
59 -3 -3 14 24 16 43 3 13 -10 13 -9 1 6 -7 10 -18 15 -25 11 -6 -3 -7 -2 -3
2 11 13 37 15 37 3 0 -6 6 -6 15 2 8 6 20 8 26 4 8 -4 9 -3 5 4 -4 7 -2 13 3
13 26 3 30 4 37 12 11 11 14 38 3 31 -5 -3 -6 -10 -3 -16 4 -7 2 -8 -4 -4 -15
9 -3 38 14 32 7 -3 15 0 17 7 2 7 2 1 0 -12 -4 -21 -2 -23 11 -12 9 7 13 18 9
24 -3 6 -1 7 5 3 6 -3 9 -14 7 -24 -3 -18 47 -24 63 -7 4 5 0 5 -8 0 -9 -5
-12 -4 -7 1 9 10 77 12 77 2 0 -4 9 -6 19 -5 11 0 17 5 15 9 -3 5 -10 5 -16 2
-7 -4 -8 -2 -4 4 9 16 11 15 32 -5 17 -17 17 -17 12 5 -3 12 -2 20 3 16 5 -3
9 -12 9 -20 0 -8 5 -12 10 -9 6 4 8 10 5 15 -3 4 3 14 13 21 15 12 16 12 4 -2
-10 -14 -10 -18 3 -23 8 -3 15 -1 15 5 0 6 13 8 31 5 17 -2 28 -2 25 1 -3 3 2
13 12 21 11 9 8 9 -11 -2 -36 -22 -35 -13 2 14 21 14 32 17 37 9 5 -8 3 -9 -6
-4 -9 5 -11 4 -6 -4 10 -16 38 6 30 23 -3 6 2 2 11 -9 17 -20 17 -20 10 3 -5
18 -2 22 15 22 15 0 20 5 17 14 -4 9 2 16 15 19 15 4 19 11 14 24 -5 16 -5 16
9 -1 13 -18 16 -18 32 -4 10 9 26 14 36 13 14 -3 15 0 8 9 -6 7 -8 16 -4 19 3
4 1 7 -4 7 -6 0 -20 -12 -30 -26 -11 -15 -20 -20 -20 -13 0 8 13 24 28 37 27
22 28 22 34 2 8 -25 17 -25 40 0 10 11 22 17 26 14 5 -3 6 1 3 9 -4 11 4 14
30 12 19 -1 35 1 34 4 -2 19 4 24 13 11 9 -12 10 -11 5 5 l-6 20 16 -20 c13
-16 15 -16 11 -3 -3 10 -2 20 3 23 6 4 10 -1 10 -9 0 -8 4 -18 10 -21 5 -3 7
0 4 8 -3 9 4 22 18 31 12 9 17 16 10 16 -18 0 -27 -4 -25 -11 1 -3 -11 -6 -26
-6 -15 0 -28 6 -28 12 0 7 8 10 19 7 10 -2 25 1 33 8 8 7 22 9 31 6 14 -5 15
-4 4 9 -7 8 -16 12 -21 9 -5 -3 -9 -1 -9 5 0 5 9 9 19 8 11 0 18 -4 15 -8 -2
-4 5 -9 16 -12 22 -6 56 26 45 42 -3 6 -1 11 5 11 6 0 8 5 4 12 -4 6 -3 8 4 4
6 -3 13 -2 17 4 4 6 9 8 13 6 4 -2 16 3 27 11 19 15 19 15 -5 9 l-25 -7 23 17
c12 9 22 25 22 36 0 18 2 19 18 7 9 -7 14 -9 10 -5 -11 13 12 37 26 29 6 -4 5
1 -3 10 -7 9 -17 14 -22 11 -5 -3 -9 0 -9 7 0 10 -3 10 -12 1 -7 -7 -16 -12
-20 -12 -12 0 34 44 49 46 6 1 9 -4 7 -11 -3 -7 -1 -16 5 -20 7 -4 8 0 4 11
-5 12 -3 15 6 9 10 -6 11 -3 2 13 -7 14 -18 19 -29 16 -16 -5 -16 -5 1 6 9 6
21 9 25 6 5 -3 9 1 9 9 0 8 -5 11 -10 8 -6 -3 -7 -2 -4 4 12 19 15 63 6 69 -6
3 -3 12 8 21 10 8 12 12 6 8 -7 -3 -14 -1 -14 4 -3 21 -4 26 -12 39 -5 7 -13
10 -18 7 -5 -4 -9 -1 -9 4 0 6 -5 11 -11 11 -8 0 -8 -5 1 -15 7 -8 16 -12 21
-9 5 3 9 1 9 -4 0 -5 -9 -12 -19 -15 -13 -3 -18 0 -15 8 3 7 1 16 -4 19 -6 3
-8 16 -5 27 5 18 3 20 -17 14 -19 -6 -21 -4 -15 17 7 22 6 22 -7 4 -12 -15
-17 -16 -23 -6 -6 9 -4 11 6 6 8 -4 5 0 -6 8 -11 9 -25 14 -31 12 -7 -3 -18 3
-26 12 -12 16 -11 16 7 2 19 -14 20 -14 2 6 -9 11 -14 24 -10 29 5 4 -4 0 -19
-9 -20 -13 -28 -14 -34 -5 -4 8 -3 9 4 5 7 -4 12 -2 12 5 0 6 -8 9 -20 6 -10
-3 -19 -2 -18 2 2 18 -4 22 -17 11 -13 -11 -14 -10 -9 6 7 18 6 18 -17 -1 -13
-11 -18 -13 -11 -5 16 18 15 27 -2 33 -11 4 -13 1 -9 -11 6 -15 5 -16 -13 -2
-10 8 -22 20 -26 25 -5 6 -8 4 -8 -5 -1 -12 -3 -11 -11 3 -6 9 -14 15 -20 12
-5 -4 -9 -1 -9 5 0 7 -5 6 -14 -2 -8 -7 -11 -17 -8 -22 3 -5 0 -6 -6 -2 -6 3
-9 14 -7 24 2 13 -4 17 -30 17 -24 0 -31 -4 -28 -15 2 -8 -1 -6 -8 5 -18 29
-17 29 -34 15 -12 -10 -15 -10 -15 0 0 7 -8 10 -20 7 -11 -3 -20 -1 -20 4 0 5
-4 9 -10 9 -5 0 -7 -8 -3 -17 4 -12 -1 -10 -14 6 -15 19 -22 21 -28 11 -6 -9
-4 -11 5 -5 9 6 11 4 5 -4 -5 -9 -11 -9 -17 -3 -6 6 -17 8 -24 5 -8 -3 -14 1
-14 8 0 11 -3 11 -10 -1 -5 -8 -10 -10 -10 -3 0 6 -13 10 -30 9 -16 -1 -30 1
-30 6 0 4 -5 8 -11 8 -5 0 -7 -5 -3 -11 5 -8 1 -8 -13 0 -11 6 -23 8 -26 4 -4
-3 -14 0 -24 8 -11 9 -14 10 -9 2 4 -7 3 -13 -1 -13 -5 0 -15 6 -22 13 -8 6
-11 7 -8 2 3 -6 -3 -11 -13 -11 -10 0 -16 5 -13 11 2 8 -7 10 -28 7 -21 -3
-30 -1 -25 6 4 6 -3 6 -19 -1 -14 -7 -25 -16 -25 -20 0 -5 -4 -6 -9 -3 -5 3
-12 -1 -15 -10 -3 -8 -10 -13 -15 -10 -5 3 -12 -1 -15 -10 -4 -9 -9 -14 -13
-11 -3 4 -12 -1 -20 -11 -9 -11 -12 -11 -7 -2 5 12 4 12 -6 3 -7 -6 -19 -9
-27 -6 -8 3 -13 0 -11 -8 3 -15 -21 -19 -38 -7 -7 5 -16 2 -23 -6 -7 -8 -20
-12 -28 -9 -10 4 -14 2 -10 -4 4 -6 0 -14 -9 -17 -8 -3 -12 -10 -9 -16 3 -6
-1 -7 -9 -4 -9 3 -16 1 -16 -5 0 -6 -6 -11 -14 -11 -7 0 -20 -8 -27 -17 -12
-14 -12 -16 0 -8 9 5 12 4 7 -3 -4 -6 -13 -9 -21 -6 -8 4 -12 10 -9 15 3 5 -2
6 -11 2 -10 -3 -21 0 -26 8 -7 11 -9 10 -9 -4 0 -10 -5 -15 -11 -12 -5 4 -19
-1 -30 -11 -10 -9 -22 -14 -26 -11 -3 4 -1 7 5 7 7 0 12 5 12 11 0 5 -5 7 -10
4 -6 -4 -18 -1 -27 7 -14 11 -16 11 -8 -2 7 -12 6 -13 -7 -3 -8 7 -18 10 -21
6 -4 -3 -7 -2 -7 4 0 6 -7 13 -14 16 -11 4 -13 1 -9 -10 4 -11 2 -14 -5 -9 -7
4 -12 14 -12 22 0 8 -4 12 -10 9 -5 -3 -10 2 -10 12 0 15 -2 16 -10 3 -7 -11
-10 -11 -10 -2 0 7 -4 10 -10 7 -5 -3 -10 1 -10 10 0 9 -5 13 -11 10 -5 -4
-20 1 -31 12 -12 10 -18 12 -14 6 9 -17 -6 -17 -23 -1 -12 11 -13 10 -7 -6 5
-14 3 -16 -6 -9 -13 10 -53 14 -43 5 3 -3 -2 -16 -11 -30 -9 -13 -12 -22 -7
-19 5 3 9 -3 9 -14 0 -10 -3 -19 -7 -19 -4 0 -6 -17 -5 -39 3 -38 2 -39 -33
-32 -2 1 3 9 10 18 12 16 12 17 -1 7 -8 -6 -23 -10 -33 -9 -9 2 -15 0 -13 -3
2 -4 -2 -15 -9 -25 -8 -12 -15 -14 -20 -8 -3 6 -1 11 6 11 8 0 8 4 -1 15 -10
12 -10 18 0 30 9 11 9 15 1 15 -7 0 -10 4 -6 9 3 5 -2 16 -10 24 -18 19 -20
31 -2 21 8 -5 8 -2 -2 9 -15 18 -26 23 -16 7 3 -5 -1 -10 -9 -10 -8 0 -18 5
-22 12 -5 7 -3 8 6 3 9 -6 11 -4 6 4 -5 7 -14 10 -21 7 -9 -3 -12 2 -10 14 2
11 -1 23 -7 26 -7 5 -8 2 -3 -6 5 -9 4 -11 -3 -6 -7 4 -12 14 -12 22 0 8 -5
12 -10 9 -6 -4 -10 -3 -9 2 3 17 -14 52 -27 57 -8 3 -14 11 -14 18 0 9 3 8 10
-2 5 -8 10 -10 10 -4 0 6 -10 19 -22 28 -21 14 -21 15 -3 10 18 -5 18 -4 2 6
-9 6 -17 18 -17 26 0 18 -25 46 -33 37 -7 -6 -22 46 -19 63 1 6 -5 17 -13 24
-8 7 -15 17 -15 23 0 6 7 2 16 -9 13 -16 13 -14 -1 9 -9 16 -14 35 -11 42 3 9
0 12 -10 8 -8 -3 -14 1 -15 8 -1 8 -2 29 -3 48 -1 19 -7 36 -13 38 -6 2 -8 13
-5 25 4 16 2 19 -9 13 -12 -8 -12 -6 0 8 8 11 9 17 2 17 -7 0 -8 8 0 27 7 20
7 29 -1 31 -8 3 -8 8 1 18 9 11 8 14 -2 14 -9 1 -8 5 5 15 20 15 20 15 0 16
-10 0 -14 3 -8 5 6 3 10 20 8 39 -1 22 1 33 8 29 6 -4 6 1 -1 13 -6 11 -8 23
-4 26 3 4 0 13 -7 22 -11 13 -10 19 6 37 11 12 14 18 7 15 -6 -4 -14 -3 -18 3
-3 5 -2 10 3 10 5 0 9 40 8 89 0 49 -5 87 -9 84 -5 -3 -7 5 -6 18 2 13 0 30
-4 37 -5 6 -5 12 0 12 12 0 3 113 -10 129 -9 12 -9 13 1 7 7 -4 12 -2 12 8 0
8 -5 18 -10 21 -7 4 -6 13 1 27 7 13 7 18 1 14 -6 -3 -13 -2 -17 4 -3 5 2 10
12 10 15 0 15 2 4 9 -16 10 -23 51 -9 51 5 0 6 5 3 10 -4 6 -2 17 5 25 8 9 8
15 0 20 -8 5 -7 11 2 23 10 12 10 14 1 8 -9 -5 -11 -2 -7 8 3 9 10 14 14 11 4
-3 5 10 0 28 -4 18 -3 43 1 55 6 17 5 24 -6 29 -12 4 -13 8 -3 20 9 11 9 16
-1 23 -10 5 -10 9 -2 15 7 4 8 11 3 18 -14 19 -13 59 1 50 7 -4 6 0 -2 10 -11
14 -11 20 -1 32 9 10 9 15 1 15 -13 0 -10 22 4 32 6 5 5 8 -4 8 -10 0 -11 3
-2 14 9 10 9 16 1 21 -7 4 -8 11 -2 18 5 7 8 21 6 31 -1 11 2 28 8 39 5 11 6
17 0 14 -5 -4 -7 4 -4 18 2 14 8 23 12 20 4 -3 7 16 6 40 -1 34 2 44 12 40 8
-3 10 0 5 7 -10 17 -11 48 -2 53 4 3 6 21 5 40 -1 19 2 35 7 35 4 0 5 11 3 24
-2 14 1 27 7 30 9 5 9 7 0 12 -9 4 -10 11 -3 23 5 10 11 38 12 62 2 24 7 50
11 57 5 6 5 16 2 22 -3 6 0 10 7 10 9 0 9 3 -2 10 -13 9 -13 10 0 10 13 0 13
1 0 10 -11 7 -11 10 -2 10 7 0 10 5 7 10 -3 6 -3 15 1 22 5 7 9 30 10 52 1 21
8 43 16 47 10 7 10 9 0 9 -10 0 -10 5 -2 20 6 11 7 20 2 20 -5 0 -9 7 -9 15 0
8 4 15 8 15 3 0 9 9 12 21 3 12 10 18 16 14 7 -3 8 0 5 9 -4 9 -1 16 6 16 7 0
10 7 7 15 -4 8 -1 18 5 21 8 5 5 10 -8 15 -18 7 -18 8 0 8 16 1 16 3 6 17 -11
12 -11 15 -1 12 8 -2 15 5 16 15 2 10 12 34 23 55 10 20 17 43 15 50 -3 6 0
12 7 12 6 0 9 4 5 9 -3 5 -1 12 5 16 6 4 8 11 5 16 -4 5 -2 9 3 9 6 0 9 8 8
18 0 9 5 16 12 14 8 -1 11 2 7 8 -3 5 3 23 14 39 11 15 18 31 14 35 -3 3 -1 6
6 6 7 0 10 4 6 9 -3 5 -1 12 5 16 6 3 8 17 6 30 -3 14 0 28 6 31 6 4 5 10 -3
15 -9 5 -10 9 -3 9 7 0 15 7 18 16 4 10 2 13 -6 8 -7 -5 -8 -3 -4 5 9 14 19
64 20 104 1 18 5 26 14 22 8 -3 6 5 -5 19 -17 23 -18 23 -25 5 -8 -21 -23 -25
-33 -9 -3 6 1 10 9 10 9 0 13 6 10 14 -3 8 0 17 6 21 8 5 8 11 -1 21 -10 12
-10 15 2 12 9 -2 13 4 11 16 -2 11 1 15 7 11 8 -4 8 2 1 19 -6 18 -6 26 1 26
6 0 9 6 6 14 -3 7 0 19 6 26 9 10 9 11 0 6 -7 -4 -13 -2 -13 3 0 6 5 11 11 11
6 0 9 6 6 14 -3 7 0 19 6 26 9 10 9 11 0 6 -7 -4 -13 -2 -13 3 0 6 4 11 8 11
5 0 7 18 5 41 -3 32 -1 39 9 33 11 -6 11 -5 0 8 -7 8 -9 24 -5 33 4 13 3 16
-5 11 -7 -4 -12 -2 -12 3 0 6 3 11 8 11 4 0 9 21 10 48 5 104 7 122 13 122 3
0 4 14 3 30 -1 17 2 30 6 30 5 0 7 12 4 26 -3 18 -1 23 7 18 8 -5 9 -3 3 7
-12 19 -12 30 -1 53 6 11 5 16 -1 13 -5 -4 -9 7 -8 23 1 17 3 30 6 30 3 0 6
21 6 48 1 26 5 67 9 92 4 25 7 57 7 73 0 15 4 27 8 27 3 0 7 7 7 15 0 8 -4 15
-9 15 -5 0 -6 6 -1 13 4 6 8 23 9 37 0 14 3 30 6 35 3 6 4 31 3 57 -1 26 1 46
4 43 4 -2 7 5 7 15 0 10 -5 16 -10 13 -5 -4 -6 -1 -1 8 13 20 13 129 1 129 -6
0 -4 5 4 10 12 8 12 10 1 10 -10 0 -11 3 -2 13 6 8 8 17 4 21 -4 4 -8 28 -9
54 -3 54 -10 97 -19 112 -3 5 -1 10 6 10 7 0 8 4 2 13 -5 6 -11 29 -12 50 -1
20 -6 49 -11 62 -7 17 -6 25 1 25 8 0 7 5 -1 15 -7 9 -10 18 -7 22 4 3 2 12
-4 20 -6 7 -8 13 -5 13 4 0 2 9 -4 20 -8 15 -8 20 2 20 9 0 10 2 1 8 -6 4 -13
21 -16 37 -5 28 -10 45 -24 85 -8 20 -12 39 -18 70 -2 14 -4 25 -5 25 -2 0
-10 38 -12 63 -1 12 -5 22 -8 22 -6 0 -8 11 -12 88 -1 23 -7 42 -11 42 -5 0
-7 7 -3 15 4 10 -1 15 -17 16 -12 0 -16 3 -9 6 10 4 9 9 -5 20 -17 14 -17 14
1 9 16 -6 17 -4 6 9 -7 8 -16 12 -21 10 -4 -3 -6 3 -4 14 2 11 -3 25 -11 31
-7 7 -11 16 -8 21 3 5 0 8 -8 7 -7 -2 -12 3 -10 10 1 8 -2 11 -9 6 -6 -3 -15
0 -20 7 -6 10 -9 11 -9 2 0 -7 -7 -13 -15 -13 -14 0 -20 13 -16 34 1 5 -5 4
-13 -4 -16 -12 -17 -12 -20 13 -1 6 -9 11 -19 9 -19 -3 -18 -4 -20 55 -2 32 1
39 11 31 9 -8 11 -7 6 6 -6 15 -17 20 -39 17 -5 -1 1 8 14 19 23 19 23 20 2
20 -18 0 -19 3 -10 26 5 15 7 29 4 32 -3 3 -5 0 -5 -6 0 -7 -4 -12 -10 -12 -5
0 -6 7 -3 17 5 11 3 14 -6 8 -10 -6 -11 -2 -6 15 6 19 4 22 -9 17 -13 -5 -15
-3 -8 11 10 18 5 43 -10 53 -8 5 -14 25 -17 52 -1 4 -9 7 -18 7 -15 0 -14 2 3
15 13 11 14 13 3 9 -10 -3 -19 1 -22 10 -4 11 -1 13 11 10 15 -5 15 -4 0 9
-10 8 -18 21 -18 30 0 9 -5 19 -11 23 -8 4 -7 9 2 16 10 7 8 8 -8 5 -16 -4
-20 -1 -16 11 4 9 2 13 -4 9 -7 -5 -10 4 -9 23 1 18 -3 30 -10 30 -17 0 -24
26 -11 40 9 10 9 11 0 6 -7 -4 -13 -3 -13 3 0 5 6 12 13 14 9 4 9 6 -1 6 -7 1
-10 6 -6 13 4 7 3 8 -5 4 -6 -4 -9 -11 -7 -15 3 -4 0 -13 -5 -21 -6 -11 -8 -5
-4 18 3 18 1 32 -5 32 -5 0 -9 3 -9 8 4 21 -2 32 -13 26 -8 -5 -7 0 2 11 9 11
10 16 3 11 -8 -4 -13 -2 -13 4 0 6 -7 18 -15 26 -10 10 -15 11 -15 3 0 -8 -5
-8 -17 2 -16 12 -17 12 -7 -1z"/>
<path d="M5503 8989 c-13 -5 -23 -13 -23 -19 0 -6 -5 -8 -12 -4 -7 5 -9 2 -5
-8 8 -21 -3 -31 -19 -17 -9 8 -12 4 -10 -15 3 -22 1 -23 -20 -15 -39 14 -69
-24 -46 -60 16 -25 16 -25 -1 -12 -15 12 -17 12 -11 -4 6 -14 4 -16 -7 -10 -8
4 -11 5 -7 0 4 -4 0 -14 -10 -21 -9 -8 -12 -14 -5 -14 6 0 15 5 18 10 3 6 13
10 21 10 8 0 14 -4 14 -10 0 -5 -3 -9 -7 -8 -14 2 -43 -14 -38 -21 2 -4 -2 -8
-10 -8 -8 0 -12 4 -10 8 3 4 -1 9 -9 12 -10 4 -13 -1 -11 -18 1 -13 -1 -24 -4
-23 -19 2 -24 -4 -11 -12 10 -6 11 -10 3 -10 -7 0 -13 -7 -13 -16 0 -9 5 -13
13 -9 6 4 3 -1 -7 -9 -17 -14 -18 -16 -3 -16 9 0 17 -5 17 -11 0 -5 -6 -7 -12
-3 -7 4 -5 -2 5 -13 9 -11 14 -23 10 -26 -3 -4 -1 -7 6 -7 7 0 9 -4 6 -10 -3
-5 -1 -10 6 -10 6 0 9 8 7 18 -3 11 0 19 7 19 7 0 10 -8 7 -19 -2 -10 0 -18 6
-18 5 0 13 -8 16 -17 6 -15 5 -15 -11 -2 -19 16 -58 14 -48 -2 4 -5 0 -9 -8
-9 -8 0 -18 -7 -21 -16 -3 -8 -9 -13 -14 -10 -4 2 -13 -4 -20 -14 -9 -14 -9
-21 0 -26 7 -5 8 -3 3 6 -5 9 -4 11 3 6 9 -5 8 -14 -4 -31 -17 -26 -3 -45 20
-26 9 8 13 7 13 -4 0 -8 -3 -13 -6 -11 -3 2 -15 0 -26 -5 -15 -6 -16 -8 -4 -8
12 -1 15 -8 11 -26 -2 -14 0 -25 7 -25 5 0 8 -6 5 -14 -3 -8 -1 -17 5 -21 6
-3 11 -16 11 -28 0 -18 2 -19 11 -7 8 12 9 12 7 -5 -3 -25 31 -78 46 -72 7 3
13 -5 14 -16 1 -17 -1 -19 -8 -7 -5 8 -10 10 -10 4 0 -6 7 -17 15 -24 8 -7 12
-16 9 -21 -3 -5 -1 -9 3 -9 12 0 34 -61 26 -73 -3 -6 -1 -7 5 -3 12 7 26 -29
17 -44 -4 -6 -1 -9 6 -8 6 2 13 -8 14 -21 1 -13 11 -32 23 -41 16 -13 18 -20
9 -29 -8 -8 -8 -11 1 -11 7 0 12 -7 12 -15 0 -8 6 -15 13 -15 8 0 7 -4 -3 -10
-11 -7 -11 -10 -2 -10 7 0 10 -5 7 -10 -4 -6 -3 -10 2 -9 20 4 24 -2 12 -18
-12 -14 -12 -16 0 -8 11 6 13 4 8 -8 -4 -11 -2 -14 9 -10 16 6 16 -17 -1 -29
-6 -4 -2 -8 8 -8 10 0 15 -4 12 -10 -3 -5 -1 -10 4 -10 6 0 11 -9 11 -20 0
-11 7 -20 15 -20 8 0 15 -5 15 -11 0 -5 -6 -7 -12 -3 -7 4 -4 -4 8 -17 30 -35
41 -54 23 -44 -12 8 -12 6 0 -8 7 -9 18 -14 25 -10 8 4 7 2 -1 -7 -15 -16 -6
-40 16 -40 12 0 13 -2 3 -9 -11 -6 -10 -10 3 -15 10 -4 15 -12 11 -22 -3 -8
-2 -12 4 -9 6 3 10 -1 10 -9 0 -9 5 -16 11 -16 5 0 7 -4 4 -10 -3 -5 -1 -10 5
-10 7 0 10 -7 6 -15 -3 -8 -1 -15 4 -15 6 0 10 -7 10 -16 0 -9 5 -12 13 -8 9
5 9 4 0 -6 -10 -11 -8 -17 8 -31 12 -10 16 -20 10 -24 -7 -4 -7 -12 1 -25 7
-10 17 -16 23 -12 5 3 4 -1 -2 -10 -7 -8 -10 -18 -6 -22 4 -4 0 -4 -10 0 -11
4 -17 1 -17 -7 -1 -9 -4 -8 -11 4 -8 14 -14 16 -25 6 -12 -9 -13 -9 -9 3 4 9
-1 18 -10 22 -11 4 -14 2 -9 -7 4 -6 -2 -4 -13 6 -11 10 -30 19 -42 20 -11 1
-21 5 -21 10 0 5 -7 7 -15 3 -8 -3 -14 -2 -14 2 3 19 -2 23 -17 12 -8 -8 -14
-9 -12 -4 5 14 -40 55 -46 41 -2 -7 -5 -4 -5 5 -1 11 -6 15 -16 12 -8 -4 -15
-2 -15 4 0 5 -13 8 -30 7 -22 -2 -30 2 -31 14 0 10 -2 11 -6 4 -5 -14 -39 -18
-46 -5 -2 4 -2 1 0 -6 1 -7 -1 -11 -6 -7 -5 3 -12 -1 -15 -7 -3 -7 -4 -4 -1 7
2 11 -3 31 -11 45 -11 18 -14 20 -10 5 6 -19 5 -19 -11 1 -11 13 -28 21 -44
20 -20 -1 -25 2 -21 13 3 9 1 12 -6 7 -7 -4 -12 -2 -12 3 0 6 -5 11 -11 11 -5
0 -7 -6 -4 -12 4 -7 -1 -4 -9 6 -9 11 -19 17 -22 13 -4 -3 -13 0 -20 8 -8 8
-22 11 -31 8 -11 -4 -14 -3 -9 5 4 7 1 12 -9 12 -9 0 -14 3 -12 8 3 4 -6 8
-20 9 -14 0 -29 6 -33 13 -6 9 -9 9 -12 -1 -4 -11 -8 -10 -22 4 -19 19 -31 23
-21 7 3 -6 -1 -7 -9 -4 -9 3 -13 10 -10 15 3 5 -2 9 -10 9 -9 0 -16 5 -16 12
0 6 -3 8 -7 5 -3 -4 -12 -2 -20 4 -7 6 -13 8 -13 5 0 -4 -7 -1 -15 8 -8 8 -24
13 -35 11 -11 -2 -18 0 -15 6 4 5 -6 9 -20 9 -15 0 -24 4 -20 10 3 6 -3 10
-14 10 -12 0 -21 6 -21 13 0 9 -3 8 -9 -2 -7 -11 -10 -9 -16 8 -4 13 -9 20
-13 17 -3 -3 -13 1 -23 10 -9 8 -26 16 -38 17 -11 1 -21 5 -21 9 0 4 -7 8 -16
8 -8 0 -13 4 -10 8 4 7 -10 11 -51 14 -7 1 -13 8 -13 17 0 13 -2 13 -9 3 -7
-11 -9 -11 -14 2 -4 9 -14 13 -27 11 -19 -4 -20 -2 -8 12 12 15 11 15 -8 5
-19 -10 -24 -8 -39 14 -12 19 -20 23 -29 15 -18 -15 -28 -1 -13 17 9 13 9 14
0 8 -8 -4 -13 -2 -13 5 0 6 -8 9 -19 6 -14 -3 -18 -1 -14 9 3 8 0 14 -7 14 -6
0 -8 5 -4 12 5 7 3 8 -7 2 -24 -14 -37 -13 -55 7 -11 12 -25 17 -38 14 -12 -3
-15 -2 -8 1 18 8 15 22 -8 29 -11 3 -20 14 -20 23 0 15 -2 15 -10 2 -8 -13
-10 -13 -10 1 0 27 -37 54 -82 58 -5 1 -7 4 -5 9 1 4 -1 7 -5 7 -4 0 -14 9
-23 20 -9 11 -14 15 -11 8 4 -6 3 -14 -2 -17 -5 -3 -9 1 -10 9 -1 8 -3 22 -4
30 -1 12 -4 12 -17 2 -12 -9 -13 -9 -7 1 11 18 -19 15 -38 -4 -9 -8 -14 -19
-11 -24 3 -4 -2 -11 -11 -14 -13 -5 -14 -9 -5 -20 13 -16 11 -37 -4 -48 -6 -5
-4 -8 5 -8 9 0 7 -5 -8 -16 -18 -13 -21 -19 -11 -30 11 -13 6 -18 -14 -15 -4
1 -3 -8 4 -20 10 -19 9 -21 -5 -16 -10 4 -16 1 -16 -8 0 -8 -5 -15 -11 -15 -5
0 -7 5 -4 10 3 6 1 10 -4 10 -6 0 -11 -4 -11 -10 0 -5 -5 -10 -11 -10 -5 0 -7
6 -3 13 4 6 3 9 -1 4 -11 -9 -14 -48 -4 -41 4 2 11 0 14 -6 4 -6 3 -10 -2 -9
-26 5 -37 -2 -20 -12 9 -5 22 -7 29 -3 7 4 8 3 4 -5 -4 -6 -1 -18 8 -26 18
-18 30 -20 20 -2 -5 7 -1 7 12 -3 29 -22 30 -24 12 -17 -10 3 -20 1 -24 -5 -4
-6 -3 -8 4 -4 6 3 17 -1 25 -9 9 -8 23 -15 31 -15 9 0 16 -5 16 -11 0 -6 7 -9
14 -6 10 4 13 1 9 -9 -3 -9 1 -14 14 -14 11 0 25 -10 32 -22 7 -14 9 -16 6 -5
-3 13 4 9 26 -12 17 -17 28 -35 25 -40 -3 -5 4 -7 16 -3 14 3 19 2 14 -6 -4
-7 -1 -12 8 -12 9 0 16 -5 16 -11 0 -5 5 -7 10 -4 6 3 10 1 10 -5 0 -15 25
-40 40 -40 6 0 9 -4 6 -9 -3 -5 1 -12 10 -15 8 -3 12 -11 8 -17 -4 -8 -3 -9 5
-5 7 5 32 -13 63 -46 28 -29 48 -47 44 -40 -7 11 -4 11 13 0 12 -7 19 -18 17
-23 -2 -6 7 -12 21 -13 34 -3 45 -11 39 -29 -3 -8 -2 -12 3 -8 14 8 42 -6 34
-18 -4 -6 0 -8 10 -4 10 3 17 2 17 -3 0 -6 7 -10 15 -10 8 0 15 -8 15 -17 0
-15 2 -16 10 -3 8 13 10 13 10 -2 0 -12 6 -16 20 -13 11 2 18 1 16 -4 -7 -11
11 -34 28 -37 10 -1 13 2 9 9 -4 7 1 6 11 -2 13 -11 14 -16 4 -23 -9 -6 -5 -7
10 -3 16 5 22 2 22 -10 0 -9 5 -13 10 -10 6 3 13 -1 16 -9 3 -9 10 -13 15 -10
12 7 51 -21 42 -30 -4 -4 0 -4 10 -1 9 4 23 0 33 -9 8 -9 20 -14 25 -11 5 4 9
-1 9 -9 0 -9 7 -13 20 -11 11 2 20 0 20 -6 0 -5 6 -9 14 -9 7 0 19 -6 25 -14
7 -8 26 -18 42 -21 17 -4 33 -13 36 -22 3 -8 12 -12 19 -9 8 3 14 2 14 -2 0
-4 15 -13 33 -21 17 -8 41 -21 51 -30 11 -9 16 -10 12 -4 -5 9 -2 11 8 7 9 -3
13 -11 9 -17 -4 -6 2 -8 16 -4 15 4 28 -1 39 -13 8 -11 19 -17 23 -14 4 2 10
-5 14 -16 4 -11 11 -18 16 -15 5 4 9 1 9 -5 0 -6 5 -8 13 -4 8 5 7 2 -2 -9
-12 -15 -12 -17 4 -11 13 6 16 4 10 -5 -5 -10 -2 -11 14 -6 15 4 21 3 19 -6
-2 -7 6 -15 16 -17 11 -2 28 -14 39 -26 10 -11 15 -15 11 -7 -5 9 -3 12 4 7 7
-4 12 -13 12 -21 0 -8 7 -11 20 -8 16 4 19 2 14 -11 -4 -9 -3 -16 2 -15 23 4
45 -2 39 -11 -3 -5 3 -10 14 -10 12 0 21 -4 21 -10 0 -5 7 -10 15 -10 8 0 15
-5 15 -11 0 -5 5 -7 10 -4 6 3 10 1 10 -5 0 -6 5 -8 10 -5 6 3 10 1 10 -5 0
-6 5 -8 10 -5 6 3 10 1 10 -6 0 -6 8 -9 20 -6 11 3 25 -2 32 -12 12 -15 11
-15 -7 -1 -18 14 -19 14 -7 -2 8 -9 19 -15 27 -12 7 3 16 0 21 -7 5 -8 3 -10
-6 -4 -9 5 -11 4 -6 -4 6 -9 11 -9 22 0 10 8 14 8 14 0 0 -6 7 -11 16 -11 8 0
13 -4 9 -9 -3 -6 3 -8 14 -6 11 2 25 -3 31 -10 9 -11 17 -12 33 -4 17 10 19 9
14 -5 -3 -8 -1 -18 5 -22 7 -4 8 -3 4 4 -10 17 32 15 49 -2 8 -7 11 -17 7 -22
-4 -5 0 -3 8 3 11 8 20 9 30 1 12 -8 11 -9 -5 -4 -18 6 -18 5 2 -11 14 -11 20
-23 15 -31 -5 -7 -7 -28 -6 -47 2 -19 -1 -35 -7 -35 -6 0 -7 -5 -4 -10 4 -7
14 -6 28 1 21 9 21 9 4 -5 -15 -12 -16 -18 -7 -35 6 -12 7 -21 3 -21 -4 0 2
-7 13 -15 16 -13 16 -14 1 -9 -13 5 -16 2 -11 -10 3 -9 10 -16 15 -16 6 0 5
-8 -1 -19 -7 -14 -7 -22 0 -26 6 -4 9 -24 7 -45 -2 -22 -1 -37 3 -35 4 3 8 -6
8 -20 0 -15 -5 -22 -12 -19 -6 3 -3 -1 7 -9 11 -10 15 -21 10 -33 -6 -16 -4
-17 8 -7 13 10 16 10 16 -2 0 -8 -5 -15 -10 -15 -6 0 0 -8 11 -19 12 -10 22
-25 22 -34 0 -8 4 -17 10 -19 5 -1 11 -20 14 -42 3 -21 7 -41 10 -44 3 -3 1
-11 -5 -18 -6 -8 -6 -14 0 -18 6 -4 6 -18 0 -39 -6 -21 -6 -33 1 -35 7 -3 7
-9 -1 -19 -8 -9 -9 -17 -3 -21 5 -4 10 -18 10 -32 2 -35 8 -63 18 -79 7 -10 5
-12 -5 -6 -8 5 -5 -2 6 -15 13 -15 15 -21 5 -16 -8 4 -6 0 4 -8 11 -9 16 -16
10 -16 -5 0 -8 -19 -7 -42 1 -24 2 -43 3 -43 3 0 11 -41 14 -76 2 -19 9 -46
16 -58 10 -19 10 -22 -2 -15 -11 6 -11 5 1 -9 7 -9 10 -17 6 -17 -4 0 -2 -6 4
-14 9 -11 9 -16 0 -21 -6 -4 -7 -10 -2 -14 15 -11 35 -64 21 -55 -9 6 -9 3 1
-9 7 -9 10 -17 6 -17 -4 0 -3 -6 3 -13 9 -10 7 -20 -5 -38 -15 -21 -15 -22 -1
-11 11 9 18 10 23 2 3 -5 2 -10 -2 -10 -5 0 -8 -16 -8 -35 0 -19 5 -35 10 -35
7 0 7 -3 0 -8 -11 -8 -15 -62 -5 -62 4 0 7 -7 7 -15 0 -9 -6 -14 -13 -11 -9 3
-11 -3 -8 -20 3 -17 1 -23 -7 -19 -8 6 -8 2 0 -13 7 -13 7 -23 1 -27 -5 -3 -7
-12 -4 -20 3 -8 2 -20 -2 -27 -12 -19 -14 -38 -3 -38 5 0 9 -5 9 -11 0 -5 -6
-7 -12 -3 -9 5 -9 2 1 -9 7 -9 10 -17 6 -17 -4 0 -2 -6 4 -13 6 -8 8 -17 4
-20 -3 -4 -2 -7 4 -7 5 0 9 -10 8 -23 -1 -12 1 -29 6 -38 5 -9 6 -19 2 -22 -9
-10 -9 -87 1 -87 5 0 3 -7 -4 -15 -9 -11 -10 -15 -1 -15 7 0 10 -8 7 -17 -3
-10 -6 -34 -8 -53 -1 -19 -6 -40 -11 -47 -5 -7 -6 -17 -2 -23 3 -5 1 -10 -6
-10 -8 0 -8 -4 1 -15 10 -12 10 -15 0 -15 -9 0 -10 -3 -1 -14 9 -11 8 -15 -5
-20 -13 -5 -14 -9 -4 -21 10 -12 10 -15 -1 -15 -11 0 -11 -2 1 -10 12 -7 12
-10 1 -10 -7 0 -11 -6 -8 -15 4 -8 2 -17 -4 -21 -7 -4 -6 -10 1 -19 8 -10 8
-15 0 -20 -7 -4 -10 -16 -7 -26 3 -12 1 -17 -6 -12 -6 4 -8 -2 -5 -15 4 -12 2
-22 -4 -22 -6 0 -8 -6 -5 -14 3 -7 -1 -23 -9 -35 -8 -11 -12 -21 -7 -21 4 0 0
-5 -11 -11 -15 -9 -16 -13 -5 -20 11 -7 11 -9 1 -9 -7 0 -11 -4 -8 -9 3 -5 -1
-12 -10 -15 -8 -3 -13 -10 -9 -15 3 -5 0 -13 -6 -16 -5 -4 -8 -13 -5 -21 3 -8
1 -14 -5 -14 -6 0 -7 -4 -4 -10 3 -5 1 -10 -6 -10 -7 0 -9 -3 -6 -6 3 -4 2
-15 -3 -25 -7 -12 -7 -20 0 -24 6 -4 8 -11 5 -16 -4 -5 2 -9 12 -9 15 0 16 -2
3 -10 -12 -8 -12 -10 5 -10 11 0 27 -5 35 -11 12 -9 11 -10 -5 -5 -20 6 -20 6
-1 -9 11 -8 20 -23 21 -32 1 -10 7 -31 14 -46 6 -16 9 -32 6 -37 -3 -5 0 -12
6 -16 8 -5 8 -9 -1 -14 -9 -6 -6 -10 9 -15 11 -3 21 -13 21 -22 0 -13 2 -14
17 -2 15 12 16 12 10 -3 -9 -26 2 -22 25 8 11 14 23 23 26 19 3 -3 -3 -12 -14
-21 -18 -15 -18 -15 2 -5 12 6 25 7 29 3 5 -4 5 -1 1 6 -6 9 -2 10 18 1 15 -7
22 -17 19 -26 -3 -7 -2 -13 3 -12 28 5 36 -1 24 -16 -7 -9 -10 -18 -6 -22 3
-3 6 -1 6 5 0 7 5 12 11 12 15 0 35 -23 33 -37 -3 -26 -5 -28 -13 -14 -7 11
-13 11 -32 0 -23 -12 -23 -11 -9 6 14 17 14 18 -7 6 -13 -6 -23 -9 -23 -6 0 3
-9 1 -20 -5 -13 -7 -20 -7 -20 -1 0 7 -9 7 -25 1 -14 -5 -32 -7 -42 -3 -12 5
-14 3 -8 -7 6 -10 4 -12 -8 -7 -9 3 -19 2 -23 -4 -4 -7 -10 -7 -18 0 -9 7 -16
7 -24 -1 -8 -8 -12 -9 -12 -1 0 6 -7 14 -16 17 -8 3 -12 2 -9 -4 9 -14 -9 -12
-23 2 -8 8 -12 9 -12 1 0 -6 -8 -10 -17 -8 -10 1 -28 -2 -40 -6 -15 -6 -23 -5
-23 2 0 8 -4 8 -13 0 -8 -6 -17 -8 -20 -4 -4 3 -7 1 -7 -5 0 -7 -10 -12 -22
-12 -45 0 -63 -3 -75 -13 -7 -5 -13 -7 -13 -3 0 3 -11 1 -24 -4 -16 -6 -27 -5
-35 3 -9 9 -11 8 -5 -6 4 -13 2 -16 -9 -11 -8 3 -18 0 -22 -6 -6 -9 -10 -9
-16 1 -7 11 -9 11 -9 1 0 -7 -4 -10 -10 -7 -5 3 -10 2 -10 -2 0 -5 -10 -9 -22
-10 -11 -1 -25 -8 -29 -15 -5 -7 -9 -9 -9 -4 0 5 -7 3 -15 -4 -8 -7 -15 -9
-15 -5 0 4 -6 2 -13 -4 -8 -6 -17 -8 -20 -4 -4 3 -7 1 -7 -6 0 -8 -6 -11 -16
-7 -8 3 -12 2 -9 -4 5 -9 -16 -15 -38 -11 -5 1 -6 -3 -3 -8 4 -5 -9 -15 -28
-22 -19 -7 -32 -17 -29 -23 4 -5 -1 -7 -11 -3 -10 4 -15 3 -11 -3 3 -5 -7 -16
-22 -24 -40 -20 -175 -155 -168 -167 4 -5 3 -9 -2 -8 -20 3 -27 -2 -13 -12 12
-8 11 -9 -6 -4 -15 4 -24 0 -28 -10 -4 -11 -2 -14 7 -9 6 4 -1 -5 -16 -21 -15
-16 -26 -34 -23 -42 3 -7 0 -12 -7 -10 -7 1 -11 -6 -10 -16 0 -10 -2 -16 -5
-13 -8 8 -42 -46 -36 -56 3 -4 0 -8 -5 -8 -6 0 -10 -3 -10 -7 3 -19 -2 -34 -9
-29 -4 2 -9 -7 -10 -20 -1 -17 2 -23 10 -18 7 4 8 3 4 -4 -4 -6 -13 -9 -20 -6
-9 3 -12 -4 -11 -25 1 -17 -2 -28 -8 -24 -5 3 -7 -3 -5 -13 2 -11 -3 -24 -12
-31 -8 -7 -10 -13 -4 -13 8 0 12 -45 4 -45 -1 0 -3 -9 -5 -19 -2 -10 -9 -22
-15 -26 -9 -6 -9 -9 0 -12 10 -3 10 -9 2 -24 -8 -15 -8 -24 -1 -31 8 -8 7 -13
-2 -18 -8 -5 -10 -4 -5 3 11 18 0 14 -15 -5 -8 -9 -9 -14 -3 -10 7 4 14 0 18
-8 3 -8 1 -15 -4 -15 -6 0 -6 -9 0 -25 6 -17 6 -25 -1 -25 -6 0 -7 -6 -2 -13
12 -19 14 -49 3 -42 -6 3 -7 -1 -4 -9 3 -9 11 -16 18 -16 7 0 7 -3 1 -8 -12
-8 -16 -42 -6 -42 10 0 8 -31 -3 -48 -4 -7 -2 -12 4 -12 6 0 8 -5 5 -11 -4 -6
1 -17 11 -25 18 -13 18 -14 -1 -7 -17 6 -18 4 -8 -9 7 -8 10 -18 6 -21 -3 -4
0 -7 8 -7 11 0 11 -2 -1 -10 -11 -7 -11 -10 -2 -10 8 0 10 -5 6 -12 -5 -8 -2
-9 10 -5 14 5 15 3 6 -13 -8 -15 -6 -23 12 -40 15 -14 17 -20 7 -20 -12 0 -12
-2 1 -10 9 -6 17 -5 23 3 6 8 7 6 3 -6 -8 -26 12 -60 31 -53 14 6 14 4 2 -11
-9 -11 -10 -14 -1 -9 11 7 17 -5 13 -27 -1 -5 8 -6 19 -2 11 4 20 3 19 -2 -3
-20 2 -34 11 -28 6 3 10 1 10 -4 0 -6 10 -11 23 -11 18 0 19 -2 7 -10 -12 -8
-11 -10 8 -10 12 0 21 -3 20 -7 -2 -5 0 -9 5 -10 4 -2 18 -13 31 -26 16 -16
34 -23 49 -22 19 2 24 -1 20 -12 -5 -13 -3 -13 17 -3 15 8 20 8 16 1 -4 -6 -2
-12 3 -12 21 -3 26 -4 40 -13 10 -6 12 -5 7 2 -10 17 9 15 23 -2 14 -16 63
-19 55 -2 -3 6 1 3 9 -7 14 -17 16 -17 32 0 17 16 17 16 10 -7 -6 -21 -5 -23
6 -13 7 7 21 13 32 13 10 0 15 5 12 10 -3 6 -1 10 4 10 6 0 11 -8 12 -17 0
-15 2 -15 9 2 5 11 9 14 9 6 1 -11 4 -11 18 0 10 8 14 9 10 2 -4 -6 -2 -15 4
-19 7 -4 9 -3 5 4 -10 16 13 25 29 12 12 -10 16 -9 21 3 4 12 12 13 35 7 16
-5 27 -5 24 0 -3 4 -2 15 1 24 6 15 7 15 19 0 14 -20 31 -2 19 18 -5 8 0 7 11
-2 10 -8 16 -10 13 -5 -4 6 -3 17 3 25 5 9 9 10 9 3 0 -13 25 -12 37 2 4 4 2
5 -6 0 -10 -6 -12 -4 -7 4 5 7 15 10 23 6 13 -5 14 -3 3 10 -7 9 -9 15 -4 14
15 -4 44 12 39 21 -3 5 -1 11 5 15 5 3 10 1 10 -5 0 -6 4 -9 10 -5 5 3 6 13 3
23 -6 15 -5 15 10 3 15 -12 17 -11 17 8 0 12 5 19 10 16 9 -6 14 8 11 28 -1 5
3 6 9 2 6 -3 8 -12 4 -18 -3 -7 1 -3 10 7 8 10 13 23 10 27 -3 5 2 6 10 3 11
-4 16 0 16 11 0 10 5 13 12 9 8 -5 9 -2 4 11 -6 16 -4 16 11 4 11 -9 14 -10 9
-1 -5 8 -1 12 11 12 15 0 16 2 3 10 -12 8 -10 10 10 10 20 0 22 2 10 10 -13 8
-13 10 1 10 9 0 24 9 34 20 10 11 22 17 28 13 6 -4 7 -1 2 7 -6 10 -4 12 8 7
9 -3 19 -1 23 5 5 7 2 8 -7 4 -8 -4 -6 -1 3 7 10 8 14 18 10 23 -4 4 2 2 12
-6 18 -14 19 -13 13 4 -7 17 -6 17 9 5 16 -13 16 -12 4 11 -12 23 -12 24 3 11
14 -11 17 -11 17 0 1 16 34 59 46 59 4 0 -1 -10 -12 -23 -10 -13 -4 -8 14 10
19 20 30 39 26 46 -4 7 -4 9 1 5 4 -4 14 0 22 10 8 9 11 11 7 3 -4 -9 -3 -12
4 -7 6 4 9 13 6 20 -3 8 4 16 15 19 12 3 21 10 21 17 0 6 -5 8 -12 4 -7 -4 -8
-3 -4 5 6 9 11 9 24 -1 14 -11 15 -10 9 6 -5 13 -3 17 6 13 8 -3 14 1 14 9 0
7 -5 10 -10 7 -6 -4 -7 -1 -3 6 5 7 15 10 23 7 9 -4 13 -1 10 6 -2 7 -10 12
-16 10 -7 -1 -10 2 -6 8 3 6 11 8 16 5 5 -4 9 -2 9 4 0 5 9 9 19 8 11 0 17 -6
13 -12 -10 -16 31 18 48 40 8 11 14 23 12 28 -1 4 3 7 9 7 5 0 7 5 4 10 -3 6
-2 10 4 10 5 0 12 -6 15 -12 4 -7 4 -3 2 10 -3 17 -1 22 9 18 9 -3 12 0 8 9
-3 8 -10 12 -16 8 -6 -3 -7 -1 -3 6 4 6 12 9 17 5 10 -6 22 21 19 40 -1 5 14
19 34 31 20 12 33 25 28 30 -4 4 4 4 18 1 22 -6 23 -6 6 5 -15 9 -16 13 -5 20
12 7 12 9 0 9 -11 0 -11 3 -1 16 11 13 10 16 -8 20 -12 4 -19 11 -15 20 3 8 9
12 13 9 5 -3 11 -1 15 5 11 17 24 11 20 -10 -2 -11 1 -23 7 -26 6 -4 8 -3 5 2
-3 6 -2 16 4 24 7 13 9 12 9 -2 0 -10 10 -23 23 -29 l22 -12 -20 23 -20 23 23
-14 c12 -8 22 -17 22 -21 0 -5 7 -8 16 -8 9 0 12 -5 8 -12 -5 -8 0 -7 11 2 15
12 17 12 10 1 -6 -11 -4 -13 8 -8 9 3 19 1 23 -5 4 -6 3 -8 -3 -5 -5 3 -10 0
-10 -7 0 -8 8 -11 19 -8 12 3 18 -1 18 -14 0 -17 1 -16 15 2 13 16 14 16 9 2
-3 -10 -1 -18 5 -18 6 0 11 -6 11 -14 0 -22 17 -28 33 -11 13 13 16 13 21 -1
3 -8 2 -12 -4 -9 -6 3 -10 1 -10 -4 0 -6 6 -11 14 -11 8 0 18 -9 21 -20 4 -11
11 -18 16 -15 5 4 9 -2 9 -12 0 -14 2 -15 9 -4 6 9 10 9 12 2 2 -6 18 -12 34
-13 41 -2 48 -7 34 -24 -7 -9 -8 -14 -3 -13 26 5 39 -1 24 -11 -12 -8 -11 -10
8 -10 13 0 22 -6 22 -16 0 -10 6 -14 15 -10 8 3 14 2 13 -2 -3 -14 14 -42 23
-36 5 3 9 0 9 -5 0 -6 9 -11 20 -11 12 0 20 -7 20 -16 0 -10 5 -14 16 -10 8 3
13 2 10 -2 -2 -4 -1 -14 5 -22 7 -13 9 -12 9 3 0 9 4 17 10 17 5 0 6 -8 3 -17
-5 -13 -2 -15 11 -10 9 4 15 3 11 -2 -3 -5 1 -12 7 -15 7 -3 2 -4 -12 -1 -14
3 -19 2 -12 -1 6 -3 9 -11 6 -16 -4 -7 -2 -8 4 -4 13 8 35 -28 24 -39 -4 -3 0
-5 8 -3 8 1 14 -2 13 -8 -1 -6 5 -11 13 -12 7 -1 20 -3 28 -4 8 -1 11 -9 8
-20 -2 -10 1 -18 7 -18 7 0 9 5 6 10 -3 6 1 10 9 10 9 0 15 -6 14 -12 -2 -7 3
-12 11 -10 9 2 12 -4 8 -18 -5 -18 -3 -19 9 -9 12 10 17 9 27 -1 7 -7 7 -10 1
-7 -6 3 -11 0 -11 -8 0 -8 3 -12 6 -10 4 2 17 -3 31 -11 14 -7 21 -13 17 -14
-13 0 13 -40 26 -40 7 0 6 4 -3 10 -13 8 -12 10 3 10 9 0 17 -7 17 -16 0 -8 4
-13 9 -9 5 3 13 -4 16 -15 5 -16 10 -18 19 -11 16 13 27 4 19 -15 -3 -8 0 -14
7 -14 6 0 8 -4 5 -10 -3 -5 -3 -10 2 -10 4 0 19 -10 33 -23 14 -12 21 -19 16
-14 -6 4 -15 7 -21 7 -5 0 -2 -5 8 -11 9 -6 15 -14 12 -20 -4 -5 2 -6 11 -2
12 4 15 3 10 -5 -4 -7 -2 -12 3 -12 6 0 11 -5 11 -11 0 -5 -5 -7 -12 -3 -7 4
-8 3 -4 -4 4 -6 14 -8 24 -5 15 6 16 5 2 -12 -8 -10 -10 -16 -4 -12 11 6 29
-19 26 -35 -1 -4 11 -14 27 -23 17 -8 33 -21 37 -27 6 -10 4 -11 -7 -1 -21 20
-31 15 -11 -5 9 -10 23 -16 31 -14 11 4 11 1 2 -17 -7 -12 -8 -20 -4 -19 4 1
17 -2 28 -8 26 -14 51 -11 47 5 -1 7 2 10 7 6 15 -9 1 -36 -17 -33 -8 2 -17
-2 -19 -9 -3 -7 3 -11 15 -8 14 2 19 -1 15 -14 -2 -9 7 -27 23 -41 15 -14 24
-19 20 -13 -4 7 -5 13 -2 13 3 0 13 -12 21 -27 9 -16 14 -20 11 -11 -3 10 -1
20 5 23 5 4 8 3 7 -2 -6 -24 14 -49 43 -51 22 -2 28 1 23 10 -4 7 -3 9 1 5 12
-10 16 -39 5 -32 -5 3 -11 1 -14 -4 -4 -5 5 -8 19 -6 18 1 22 -1 16 -9 -11
-13 9 -46 28 -46 6 0 10 -6 9 -12 -2 -7 6 -13 17 -14 35 -2 54 -15 48 -31 -5
-12 -3 -14 7 -8 10 6 12 4 7 -8 -3 -9 -1 -19 5 -23 7 -4 8 -3 4 4 -10 16 2 15
19 -2 8 -7 11 -17 7 -20 -3 -4 1 -4 11 0 12 4 17 1 17 -12 0 -16 2 -17 10 -4
7 11 10 11 10 2 0 -7 4 -10 10 -7 6 3 7 -1 4 -10 -4 -10 -2 -15 7 -13 8 2 13
-4 11 -12 -3 -12 -1 -13 9 -2 21 20 45 16 28 -6 -13 -15 -12 -16 3 -4 12 10
22 11 37 3 25 -14 41 -14 21 -1 -10 7 -11 10 -2 10 7 0 15 -7 18 -15 4 -8 10
-15 15 -15 6 0 5 9 -1 20 -18 34 -3 22 19 -15 13 -22 26 -33 36 -30 50 16 48
14 34 32 -8 9 -9 14 -3 10 7 -4 14 0 17 7 3 8 1 16 -5 18 -6 2 -12 12 -14 21
-1 9 1 15 6 12 4 -3 10 1 13 9 3 8 -1 13 -11 12 -9 0 -17 6 -17 14 0 10 9 15
27 14 15 -1 27 2 26 5 0 3 1 8 2 11 9 24 5 42 -11 53 -10 8 -16 16 -14 19 3 3
-1 8 -10 12 -11 4 -14 2 -10 -7 4 -6 0 -4 -9 7 -8 10 -19 15 -25 11 -6 -3 -11
1 -11 9 0 9 -4 16 -10 16 -5 0 -10 7 -10 15 0 8 -5 15 -11 15 -5 0 -7 6 -3 13
5 8 2 7 -9 -2 -15 -12 -17 -12 -11 3 4 12 0 16 -16 16 -11 0 -18 5 -15 10 3 6
0 10 -8 10 -8 0 -20 6 -27 14 -6 8 -18 12 -26 9 -10 -3 -14 2 -15 18 l0 24
-10 -23 c-10 -26 -24 -23 -32 8 -7 27 1 25 13 -2 8 -19 10 -20 7 -3 -1 11 -12
25 -25 31 -12 6 -19 14 -14 18 4 4 2 7 -3 6 -20 -4 -36 0 -31 9 3 5 -4 11 -15
14 -15 4 -20 11 -15 22 4 11 2 14 -6 9 -7 -5 -9 -2 -6 8 4 8 -2 19 -13 26 -12
8 -16 18 -12 29 4 11 3 14 -5 9 -7 -4 -12 -1 -12 9 0 9 -4 13 -10 10 -5 -3
-10 1 -10 9 0 23 -31 55 -47 49 -9 -4 -11 0 -7 11 4 10 -2 19 -20 27 -14 7
-23 15 -21 20 8 13 -6 39 -18 32 -6 -4 -8 0 -4 10 4 10 2 16 -6 14 -6 -1 -13
9 -15 22 -3 19 -6 21 -13 10 -7 -11 -9 -11 -9 -1 0 7 -4 11 -9 8 -5 -3 -8 2
-7 12 0 10 -6 17 -14 16 -9 -1 -22 6 -29 14 -12 12 -11 13 10 7 23 -7 24 -7 4
9 -11 8 -16 16 -11 16 6 0 1 7 -10 16 -10 8 -13 13 -7 9 9 -4 11 -1 7 9 -3 9
-12 16 -20 16 -8 0 -11 6 -8 15 4 8 1 15 -6 15 -6 0 -9 4 -6 9 3 5 -1 12 -10
15 -9 4 -14 13 -10 22 3 8 2 13 -2 11 -4 -3 -16 5 -27 16 -11 11 -13 16 -5 12
13 -8 13 -6 1 8 -7 9 -17 14 -22 11 -5 -3 -6 1 -3 9 3 8 0 18 -7 23 -8 5 -10
3 -5 -7 4 -8 1 -5 -8 5 -8 10 -13 23 -10 27 3 5 -5 9 -16 9 -16 0 -20 4 -16
16 5 12 2 15 -10 10 -11 -4 -15 -2 -11 8 4 11 1 13 -10 9 -10 -4 -14 -2 -10 4
4 5 -5 15 -19 22 -14 6 -23 15 -20 20 3 5 -1 12 -10 15 -9 4 -13 2 -8 -5 4 -8
0 -7 -15 0 -11 7 -21 14 -21 17 0 3 5 2 10 -1 6 -4 10 5 10 19 0 14 -4 26 -9
26 -5 0 -12 7 -15 16 -4 10 -2 13 7 8 6 -4 4 2 -6 14 -11 12 -16 26 -11 33 4
7 3 10 -3 6 -10 -6 -43 26 -43 42 0 11 -29 23 -40 16 -5 -3 -7 4 -5 15 2 11 0
18 -6 15 -5 -4 -9 -1 -9 4 0 6 -7 11 -16 11 -10 0 -14 6 -11 14 4 9 0 13 -11
12 -19 -3 -42 16 -43 36 0 7 -4 4 -9 -7 -8 -18 -9 -18 -9 -2 -1 10 -6 15 -11
12 -6 -3 -10 1 -10 9 0 8 -5 18 -12 22 -7 4 -8 3 -4 -4 4 -7 3 -12 -2 -12 -5
0 -12 9 -15 20 -3 11 -12 20 -21 20 -10 0 -13 6 -10 15 4 8 1 15 -5 15 -6 0
-11 5 -11 10 0 17 -42 70 -52 64 -4 -3 -8 2 -8 11 0 8 -10 20 -22 25 -13 5
-17 9 -10 9 16 1 -32 51 -49 51 -6 0 -8 7 -5 16 3 8 2 12 -3 9 -5 -3 -12 4
-16 15 -4 11 -15 20 -26 20 -12 0 -27 13 -37 30 -9 16 -20 30 -24 30 -12 0
-56 48 -50 54 5 6 -23 10 -41 7 -5 -1 -6 3 -2 9 3 5 0 10 -7 10 -10 0 -9 3 2
11 12 8 8 10 -17 6 -23 -2 -30 0 -23 8 6 7 2 15 -10 23 -16 10 -19 9 -14 -6 2
-9 -2 -3 -10 13 -8 17 -15 23 -16 15 0 -10 -8 -5 -21 13 -11 15 -26 27 -32 27
-6 0 -2 -7 9 -16 18 -14 18 -15 -3 -4 -13 6 -23 15 -23 20 0 6 -8 10 -17 10
-15 0 -16 2 -3 10 14 9 -4 16 -32 11 -5 0 -8 4 -8 10 0 8 -4 8 -14 0 -11 -9
-15 -9 -18 0 -2 6 -16 12 -31 12 -15 0 -25 2 -23 6 2 3 -10 7 -27 8 -18 2 -33
7 -35 13 -2 5 -10 10 -18 10 -8 0 -14 5 -14 10 0 7 -7 7 -21 -1 -16 -8 -20 -8
-14 1 5 8 -2 10 -23 7 -18 -3 -39 1 -49 9 -21 16 -57 19 -48 4 3 -5 1 -10 -4
-10 -6 0 -12 10 -12 23 -1 16 -2 18 -6 5 -2 -10 -8 -18 -11 -18 -11 0 -38 20
-28 20 5 0 3 7 -4 15 -7 8 -9 15 -4 16 5 0 18 3 29 5 45 11 60 9 63 -10 3 -11
0 -16 -7 -11 -6 3 -9 11 -6 16 3 5 -2 6 -11 2 -15 -6 -15 -7 2 -20 12 -9 21
-10 28 -3 15 15 36 12 36 -5 0 -8 -5 -15 -11 -15 -5 0 -7 5 -3 12 5 7 3 8 -5
4 -21 -13 -2 -20 57 -22 41 -1 51 1 34 7 -12 5 -28 6 -36 3 -7 -3 -16 2 -19
10 -6 14 27 15 41 1 3 -2 11 0 18 6 10 9 15 7 20 -5 3 -9 10 -13 15 -10 5 3 7
10 3 15 -3 5 -2 8 3 7 5 -2 24 13 42 32 18 19 30 29 26 22 -3 -6 -1 -12 4 -12
6 0 11 6 11 14 0 8 9 12 25 11 13 -2 24 0 24 3 -4 24 3 42 14 39 6 -1 11 4 10
11 -2 6 3 12 11 12 9 0 12 7 9 23 -3 16 -2 18 5 9 7 -11 11 -9 15 8 3 13 10
19 17 15 6 -3 10 -3 9 2 -4 21 2 34 12 27 7 -4 10 -1 7 7 -3 8 2 19 9 24 8 6
16 19 17 30 2 11 9 19 14 18 6 -2 9 3 6 11 -3 7 2 20 10 28 11 12 12 18 3 28
-8 9 -8 11 -1 7 13 -8 27 20 18 34 -3 5 3 9 13 10 10 0 13 3 6 6 -9 3 -9 11 3
29 13 19 14 24 3 24 -9 0 -10 3 -4 8 6 4 10 17 9 30 -1 15 3 21 12 18 13 -5
12 23 -1 44 -3 6 -1 10 6 10 7 0 10 3 7 6 -9 8 12 78 26 86 8 6 7 8 -1 8 -18
0 -16 15 3 34 9 9 11 16 4 16 -6 0 -8 5 -5 10 3 6 0 10 -7 10 -8 0 -9 3 -3 8
6 4 17 16 25 26 14 18 13 19 -4 13 -15 -6 -17 -5 -8 6 7 8 9 17 5 20 -3 4 -2
7 4 7 5 0 9 23 9 50 -1 28 1 50 4 50 3 0 5 27 4 60 -1 38 2 57 9 53 6 -4 7 -1
2 8 -11 16 -14 69 -5 69 4 0 6 16 5 35 -1 19 2 35 6 35 5 0 6 6 3 14 -3 8 0
17 6 21 8 5 8 11 -1 22 -8 9 -9 17 -3 21 13 10 14 42 2 42 -6 0 -5 7 3 16 8
10 9 18 3 22 -5 4 -10 34 -11 67 -1 33 -2 60 -3 60 -1 0 -3 11 -4 25 0 14 -5
31 -9 38 -5 7 -3 12 5 12 9 1 8 3 -3 10 -9 5 -14 21 -13 39 1 18 -3 31 -9 31
-7 0 -5 5 3 10 8 5 10 10 4 10 -7 0 -15 7 -18 16 -3 8 -2 12 4 9 6 -3 10 -1
10 4 0 6 -6 11 -12 11 -9 0 -8 4 2 10 8 5 10 10 3 10 -6 0 -9 9 -6 20 3 11 0
20 -6 20 -6 0 -11 5 -11 11 0 5 6 7 13 3 8 -5 8 -2 -2 9 -7 9 -10 17 -6 17 4
0 1 8 -6 17 -10 11 -10 14 -1 9 6 -4 12 -2 12 3 0 6 -8 11 -17 11 -15 0 -16 2
-3 10 12 8 12 10 -5 10 -11 0 -15 4 -10 8 6 4 10 13 9 20 -1 6 -2 16 -3 21 0
5 -9 12 -18 14 -17 4 -17 5 0 6 10 0 15 6 12 11 -4 6 -11 8 -16 5 -5 -3 -6 2
-2 11 5 13 3 15 -8 10 -8 -4 -6 -1 4 7 21 17 22 27 2 27 -8 0 -15 5 -15 11 0
5 5 7 11 3 8 -4 8 0 0 15 -7 11 -12 37 -13 56 -1 19 -5 35 -9 35 -4 0 -7 10
-7 23 -1 25 -8 72 -12 72 -1 0 -4 13 -6 29 -2 16 -9 33 -16 37 -10 7 -10 9 1
9 11 0 11 3 1 15 -6 8 -9 19 -5 25 3 5 1 10 -5 10 -7 0 -10 6 -7 14 3 8 1 16
-4 18 -5 2 -11 13 -12 26 0 12 -6 22 -11 22 -5 0 -6 3 -3 7 4 3 2 12 -4 20 -9
10 -8 13 2 13 10 0 11 2 2 8 -7 4 -16 18 -20 30 -11 29 -4 104 9 96 6 -4 7 0
1 12 -5 11 -9 44 -9 76 1 31 -2 54 -6 51 -10 -5 -10 1 -13 107 -1 47 2 91 8
98 7 9 6 11 -5 7 -10 -4 -14 2 -14 18 0 16 6 23 21 24 20 2 20 2 1 -13 -11 -8
-15 -14 -9 -14 5 0 18 9 27 19 11 12 25 17 38 13 13 -3 19 -1 15 5 -5 8 25 10
43 3 3 -1 8 -2 11 -2 3 1 25 2 47 3 30 2 39 6 32 15 -8 8 -3 10 15 6 19 -3 27
1 34 19 5 13 10 18 10 11 1 -7 6 -10 11 -7 6 4 7 11 4 17 -4 6 3 5 16 -2 18
-9 21 -9 15 0 -10 17 16 32 32 18 9 -7 13 -7 13 2 0 7 7 10 16 6 8 -3 12 -2 9
4 -3 6 1 10 10 10 10 0 13 5 9 13 -6 9 -5 9 8 -1 12 -10 18 -9 28 3 7 8 16 12
21 9 5 -3 6 2 3 11 -7 17 15 17 29 0 5 -6 7 0 4 13 -4 18 -2 22 9 18 8 -3 14
1 14 9 0 9 6 12 17 8 12 -5 14 -3 8 8 -7 12 -6 12 7 1 13 -10 18 -10 24 -1 5
8 3 10 -7 4 -8 -5 -11 -4 -6 1 5 5 16 9 25 9 9 0 16 6 14 13 -2 10 2 10 18 2
16 -8 20 -8 18 2 -2 7 5 12 14 12 10 -1 16 3 15 10 -1 6 6 10 16 10 9 -1 17 2
17 7 0 5 6 9 14 9 8 0 17 8 21 18 7 16 8 15 15 -3 7 -17 9 -17 9 -2 1 16 13
22 35 18 4 -1 18 9 31 23 13 14 26 22 29 19 3 -4 18 4 33 18 14 13 22 17 18 9
-6 -11 -3 -10 12 3 11 9 23 14 28 10 4 -5 5 -3 1 4 -3 6 -2 14 4 18 6 4 8 11
5 16 -3 5 1 6 9 3 9 -3 16 -1 16 6 0 6 4 9 9 6 5 -3 11 1 15 9 3 8 12 15 21
15 8 0 15 5 15 10 0 6 7 10 16 10 9 0 12 5 8 12 -5 7 -2 9 9 5 9 -3 18 1 22
11 5 14 7 14 15 2 7 -11 10 -12 10 -2 0 7 5 10 10 7 6 -4 10 -3 9 2 -3 20 2
34 11 28 6 -3 13 1 16 9 3 9 12 16 19 16 8 0 17 5 21 12 5 7 3 8 -6 3 -9 -6
-11 -4 -6 4 5 7 15 10 23 7 8 -3 12 -2 9 3 -7 11 36 61 52 61 7 0 10 5 7 10
-3 6 -1 10 5 10 6 0 9 4 5 9 -3 5 0 13 6 17 8 4 9 3 5 -4 -4 -7 -4 -12 1 -12
4 0 14 14 21 30 8 17 18 28 23 25 5 -4 6 2 2 11 -5 13 -3 16 10 11 11 -4 14
-2 10 9 -3 8 1 14 8 14 11 0 11 3 -1 10 -12 8 -11 10 8 10 14 0 22 6 22 18 0
14 -2 15 -10 2 -5 -8 -10 -10 -10 -5 0 23 17 37 24 20 3 -9 11 -13 17 -10 7 5
4 13 -7 26 -10 11 -12 19 -6 19 7 0 12 -4 12 -9 0 -5 7 -12 16 -15 8 -3 13 -2
10 3 -3 4 6 18 19 31 25 24 24 46 -2 36 -8 -3 -11 -1 -8 4 3 6 13 10 21 10 8
0 15 7 15 15 3 30 4 34 19 47 12 11 12 11 1 -4 -9 -12 -10 -18 -2 -18 11 0 15
12 11 44 -1 10 3 15 8 12 6 -4 14 -1 18 5 4 7 3 9 -3 6 -6 -4 -13 0 -17 8 -3
8 -2 14 2 14 19 -3 23 2 13 15 -10 11 -7 17 11 30 12 9 18 16 13 16 -5 0 0 7
11 15 18 14 18 15 0 9 -15 -6 -17 -4 -9 12 6 10 8 25 5 33 -3 10 0 11 9 5 12
-7 12 -5 0 9 -9 12 -10 17 -2 17 7 0 9 5 5 12 -4 6 -1 16 7 22 8 6 15 18 15
26 3 28 15 83 20 91 2 4 0 10 -5 13 -14 9 -5 90 13 119 12 18 14 27 6 32 -8 5
-6 12 5 25 9 10 12 20 8 23 -5 3 -10 23 -11 43 -2 21 -8 42 -15 46 -9 6 -8 8
2 8 11 0 10 4 -4 14 -20 14 -31 51 -12 39 6 -4 8 0 4 10 -3 9 -2 19 2 22 5 2
11 14 14 25 3 11 2 18 -3 15 -4 -3 -11 2 -14 11 -3 8 -2 12 4 9 6 -3 10 -1 10
5 0 6 5 8 12 4 7 -4 8 -3 4 5 -4 6 -12 9 -17 6 -5 -4 -5 3 0 18 5 13 5 30 1
37 -5 8 -7 17 -4 21 2 4 0 10 -5 14 -6 3 -8 12 -4 20 3 8 0 15 -7 15 -6 0 -8
5 -5 10 3 6 -1 10 -10 10 -12 0 -13 4 -6 18 7 13 3 21 -17 36 -16 12 -23 14
-18 5 4 -8 -1 -3 -13 11 -11 14 -25 26 -30 26 -6 1 -16 2 -22 3 -5 0 -7 7 -3
14 5 7 2 7 -10 -2 -14 -12 -17 -12 -14 -1 2 8 -4 15 -12 16 -33 3 -59 17 -53
28 4 6 -2 4 -12 -4 -11 -9 -16 -10 -11 -2 5 8 0 12 -14 12 -12 0 -18 5 -15 10
4 6 -5 10 -20 10 -17 0 -24 4 -19 12 4 6 3 8 -4 4 -6 -3 -13 -2 -17 3 -3 6
-13 7 -22 4 -12 -5 -14 -3 -8 7 6 10 4 12 -9 7 -10 -4 -27 -2 -38 4 -15 8 -19
8 -14 0 9 -14 4 -14 -29 -1 -23 9 -26 8 -22 -4 4 -10 1 -13 -8 -9 -8 3 -12 10
-8 17 5 8 3 8 -8 0 -8 -6 -23 -10 -33 -8 -11 1 -28 -1 -37 -7 -13 -7 -21 -5
-28 8 -9 15 -10 15 -11 3 0 -11 -9 -16 -27 -15 -16 0 -36 -7 -45 -15 -10 -8
-28 -24 -40 -34 -17 -16 -20 -16 -15 -3 3 9 2 19 -4 22 -5 4 -8 1 -7 -7 2 -7
-3 -12 -11 -10 -12 3 -12 1 0 -14 8 -10 9 -15 3 -11 -7 4 -15 0 -18 -9 -9 -23
-7 -31 3 -16 6 10 10 7 13 -12 3 -14 1 -23 -4 -20 -5 3 -12 -3 -15 -15 -3 -12
-9 -21 -14 -21 -5 0 -8 -3 -8 -7 3 -21 -2 -33 -13 -27 -6 4 -8 3 -4 -4 3 -6 0
-17 -8 -25 -8 -8 -12 -17 -9 -21 4 -3 -1 -6 -10 -6 -11 0 -14 -5 -10 -17 4
-11 3 -14 -5 -9 -7 4 -12 1 -12 -9 0 -9 -4 -13 -10 -10 -5 3 -11 1 -11 -4 -1
-6 -2 -16 -3 -21 0 -6 -5 -14 -11 -18 -18 -13 -36 -53 -29 -64 4 -7 3 -8 -4
-4 -13 8 -31 -23 -24 -43 2 -8 0 -11 -6 -7 -11 6 -34 -48 -25 -58 4 -3 1 -6
-6 -6 -8 0 -11 -6 -7 -16 3 -8 2 -12 -4 -9 -5 3 -14 -3 -20 -14 -6 -12 -16
-18 -25 -15 -9 4 -23 0 -32 -7 -9 -8 -14 -9 -10 -3 4 7 0 14 -8 18 -9 3 -15 0
-15 -9 0 -7 -5 -17 -10 -20 -6 -4 -9 -1 -8 5 2 7 -5 14 -15 15 -15 3 -16 1 -6
-11 10 -12 9 -13 -5 -8 -9 3 -16 14 -16 23 0 10 -3 12 -8 5 -4 -6 -15 -10 -25
-8 -9 1 -15 -2 -11 -7 3 -5 -1 -9 -8 -10 -7 0 -4 -4 7 -9 19 -8 19 -9 -2 -9
-13 -1 -24 -9 -28 -21 -4 -12 -11 -17 -18 -14 -7 4 -9 4 -5 -1 4 -4 0 -22 -9
-39 -10 -17 -16 -34 -15 -39 1 -4 -4 -6 -10 -5 -7 2 -12 -5 -12 -14 1 -10 -1
-16 -5 -14 -4 3 -13 -4 -20 -16 -10 -16 -10 -19 1 -13 7 3 4 -1 -6 -9 -11 -9
-17 -16 -13 -16 4 0 3 -10 -4 -21 -8 -16 -8 -20 1 -14 9 5 9 3 2 -11 -5 -11
-8 -29 -6 -41 2 -13 0 -23 -5 -23 -5 0 -8 -11 -6 -25 1 -14 -1 -25 -5 -25 -5
0 -6 -10 -2 -22 3 -13 1 -19 -5 -15 -6 4 -10 -7 -11 -26 0 -17 -6 -33 -11 -35
-6 -2 -8 -8 -5 -13 3 -6 0 -16 -6 -24 -7 -8 -9 -15 -5 -15 4 0 1 -8 -6 -17
-11 -13 -11 -15 -1 -9 10 6 10 1 -2 -22 -8 -16 -12 -32 -9 -36 4 -3 2 -6 -4
-6 -6 0 -9 -11 -8 -25 2 -14 0 -25 -5 -25 -4 0 -6 -11 -5 -25 2 -14 -1 -23 -6
-19 -8 5 -13 -10 -10 -30 1 -4 -3 -14 -10 -22 -13 -16 -19 -92 -8 -115 9 -18
-17 -62 -32 -53 -5 3 -9 2 -8 -3 4 -26 -1 -38 -11 -23 -8 12 -10 12 -10 1 0
-8 -7 -11 -20 -8 -11 3 -20 1 -20 -5 0 -5 -5 -6 -10 -3 -6 4 -16 2 -23 -3 -19
-16 -77 -22 -78 -9 0 7 -4 3 -9 -8 -6 -13 -9 -15 -9 -5 -1 13 -2 13 -11 0 -7
-11 -10 -11 -10 -2 0 9 -5 10 -19 2 -14 -7 -22 -7 -26 0 -5 8 -11 8 -20 0 -9
-7 -21 -7 -39 0 -15 5 -30 9 -34 9 -19 -3 -22 3 -12 21 9 16 8 22 -5 26 -8 4
-14 11 -13 18 1 6 -4 21 -11 34 -11 20 -15 21 -29 10 -12 -8 -11 -5 3 11 11
14 14 21 8 17 -12 -6 -18 5 -14 27 0 4 -4 7 -10 7 -5 0 -7 5 -3 12 5 8 2 9
-10 5 -14 -6 -15 -4 -5 14 7 15 7 19 0 15 -6 -4 -13 4 -17 19 -3 14 -10 25
-15 25 -5 0 -9 10 -9 23 0 18 -2 19 -10 7 -8 -13 -10 -13 -10 1 0 24 -26 70
-34 62 -4 -4 -4 0 -1 9 3 8 0 22 -8 29 -8 8 -13 22 -11 31 1 10 -3 16 -9 15
-7 -1 -11 4 -9 11 1 7 -4 15 -12 18 -8 3 -12 12 -9 20 3 9 -1 14 -12 14 -9 0
-13 5 -10 10 4 6 1 17 -5 25 -7 8 -9 15 -5 15 5 0 1 8 -8 18 -10 10 -14 22
-10 26 5 4 1 6 -7 4 -8 -2 -14 3 -13 10 2 6 -1 12 -6 12 -5 0 -14 14 -21 30
-7 17 -17 30 -22 30 -5 0 -7 4 -3 9 3 6 -2 14 -11 19 -11 6 -15 17 -11 31 5
19 3 20 -9 10 -8 -7 -14 -8 -13 -3 4 22 -2 35 -13 28 -7 -5 -8 -3 -3 6 5 8 1
18 -10 27 -14 9 -15 13 -4 13 12 0 12 2 -1 9 -8 6 -18 7 -22 5 -4 -3 -5 2 -2
10 3 9 -5 26 -19 40 -16 16 -21 27 -14 30 8 3 8 5 -1 5 -7 1 -10 6 -7 11 3 6
1 10 -5 10 -6 0 -8 5 -4 13 6 9 4 9 -8 -1 -14 -11 -16 -10 -11 7 3 12 1 21 -6
21 -6 0 -11 5 -11 11 0 7 -8 18 -17 25 -17 13 -17 14 1 7 13 -4 17 -3 12 5 -4
7 -14 12 -22 12 -8 0 -12 5 -9 10 3 6 -1 13 -10 16 -12 5 -13 9 -5 14 9 5 6
10 -9 15 -11 3 -21 11 -21 16 0 6 6 7 13 3 8 -5 8 -3 -2 9 -7 9 -18 14 -25 10
-6 -4 -5 1 3 10 12 15 11 17 -5 17 -16 0 -16 2 -4 10 12 8 12 10 -2 15 -10 4
-14 13 -11 23 5 12 2 14 -12 8 -11 -4 -16 -4 -13 0 4 4 3 16 -3 27 -9 15 -8
18 3 11 8 -5 7 0 -4 16 -9 14 -22 24 -29 22 -10 -3 -10 0 0 12 10 12 8 19 -8
35 -12 12 -21 28 -21 37 0 9 -8 23 -17 31 -10 8 -12 12 -6 8 9 -4 11 -1 7 9
-3 9 -11 13 -16 10 -6 -4 -6 1 1 13 6 12 6 24 1 29 -5 5 -11 21 -14 34 -2 14
-5 25 -6 25 -3 0 -12 39 -13 57 -1 9 -5 14 -9 12 -4 -3 -8 2 -8 11 0 9 -4 13
-10 10 -5 -3 -10 1 -10 10 0 10 5 13 13 9 8 -5 7 -2 -2 10 -8 9 -20 15 -26 12
-8 -3 -11 4 -10 19 3 19 -1 22 -19 17 -19 -5 -20 -4 -7 11 12 15 12 17 -3 11
-9 -3 -16 -11 -16 -17 0 -6 -3 -7 -6 -4 -4 4 -1 14 7 24 9 11 10 14 2 9 -8 -4
-13 -1 -13 8 0 9 4 16 9 16 5 0 -4 14 -21 31 -26 25 -29 33 -17 41 11 8 10 8
-5 4 -11 -4 -22 -3 -25 2 -4 6 -16 6 -28 1z m446 -6096 c-3 -20 2 -31 17 -37
8 -3 12 -2 9 4 -3 6 -1 10 4 10 6 0 11 -9 11 -19 0 -10 7 -22 16 -25 14 -5 15
-4 5 8 -9 10 -9 15 1 19 9 3 13 -5 13 -24 1 -15 -3 -25 -8 -22 -5 3 -8 0 -5
-7 4 -14 -32 -57 -44 -52 -5 1 -7 -1 -7 -5 4 -23 -2 -43 -11 -38 -5 3 -12 -6
-16 -20 -3 -13 -10 -23 -14 -20 -5 3 -6 -5 -2 -17 3 -14 2 -19 -6 -14 -7 4
-12 1 -12 -9 0 -9 -12 -28 -27 -42 -16 -15 -21 -23 -13 -19 8 4 6 0 -5 -9 -11
-9 -19 -21 -17 -26 1 -5 -3 -9 -9 -9 -5 0 -7 -4 -4 -10 3 -5 1 -10 -6 -10 -7
0 -10 -3 -6 -6 6 -6 -41 -56 -58 -62 -6 -2 -18 -8 -27 -13 -12 -7 -18 -6 -18
2 0 8 -5 7 -17 -2 -12 -11 -17 -11 -20 -2 -4 10 -8 9 -20 -2 -8 -8 -18 -13
-23 -10 -4 3 -13 -2 -20 -10 -7 -8 -17 -12 -23 -8 -6 3 -7 1 -3 -5 8 -13 -48
-45 -59 -34 -3 4 -5 0 -3 -8 1 -8 -3 -14 -10 -12 -6 1 -11 -1 -10 -5 2 -5 -5
-19 -15 -33 -9 -13 -17 -21 -17 -16 0 5 -11 1 -24 -7 -26 -18 -42 -11 -25 10
9 10 6 13 -12 13 -19 0 -21 2 -9 10 8 5 10 10 4 10 -7 0 -14 20 -15 44 -3 33
-1 42 8 35 13 -11 13 7 -1 29 -5 8 -3 12 6 10 7 -2 12 3 10 10 -1 7 8 12 23
12 14 0 25 5 25 11 0 5 4 8 9 4 5 -3 12 4 16 15 3 11 11 20 17 20 6 0 8 3 5 6
-9 9 12 46 23 39 4 -3 6 4 3 15 -3 12 0 20 6 20 7 0 10 4 6 9 -3 6 4 15 15 21
11 6 18 15 15 20 -3 4 0 10 5 12 6 2 12 10 13 18 4 20 26 58 27 45 0 -6 -5
-16 -10 -21 -7 -7 -6 -11 4 -11 8 0 13 3 11 7 -8 13 27 51 41 46 9 -3 14 1 14
12 0 14 2 15 10 2 8 -12 10 -12 16 3 3 9 10 14 15 11 5 -3 9 0 9 6 0 7 7 9 16
6 8 -3 12 -2 9 4 -3 6 1 10 11 10 13 0 14 3 5 13 -8 10 -7 14 4 14 8 0 15 -4
15 -9 0 -4 5 -8 11 -8 6 0 9 7 5 15 -7 19 -1 19 18 0 13 -13 15 -13 21 5 5 16
10 18 25 10 16 -9 18 -7 15 10 -2 11 0 18 4 15 5 -3 12 2 15 11 4 10 12 14 22
10 11 -4 15 -2 11 8 -3 8 -3 17 0 20 8 8 13 8 12 -1z"/>
</g>
</svg>
