<?xml version="1.0" standalone="no"?>
<!DOCTYPE svg PUBLIC "-//W3C//DTD SVG 20010904//EN"
 "http://www.w3.org/TR/2001/REC-SVG-20010904/DTD/svg10.dtd">
<svg version="1.0" xmlns="http://www.w3.org/2000/svg"
 width="1024.000000pt" height="1024.000000pt" viewBox="0 0 1024.000000 1024.000000"
 preserveAspectRatio="xMidYMid meet">
<metadata>
Created by potrace 1.16, written by Peter Selinger 2001-2019
</metadata>
<g transform="translate(0.000000,1024.000000) scale(0.100000,-0.100000)"
fill="#000000" stroke="none">
<path d="M3975 9217 c-48 -29 -70 -64 -68 -109 1 -24 2 -43 3 -43 2 0 11 -38
12 -52 1 -7 5 -13 10 -13 4 0 8 -7 8 -15 0 -8 10 -25 23 -37 12 -13 22 -25 22
-28 0 -3 10 -16 23 -30 12 -13 22 -27 22 -32 0 -4 4 -8 10 -8 14 0 90 -77 90
-91 0 -7 3 -10 6 -6 3 3 16 -4 29 -16 12 -12 40 -35 60 -52 21 -16 44 -36 51
-42 7 -7 16 -13 19 -13 14 0 64 -48 57 -54 -3 -4 1 -4 9 -1 9 3 23 -3 34 -15
10 -11 23 -20 30 -20 7 0 25 -11 41 -25 46 -41 54 -46 54 -39 0 3 20 -10 44
-29 24 -20 46 -34 49 -30 4 3 9 -2 13 -11 3 -9 13 -16 21 -16 8 0 11 -4 8 -10
-3 -5 -2 -10 3 -10 5 0 28 -17 50 -37 22 -21 53 -48 69 -60 15 -12 39 -31 52
-42 13 -12 28 -21 33 -21 5 0 6 -4 3 -10 -3 -5 -1 -10 5 -10 6 0 43 -32 81
-71 38 -40 69 -68 69 -64 0 4 11 -4 25 -19 13 -14 27 -26 31 -25 10 2 62 -59
56 -65 -3 -3 2 -6 11 -6 9 0 20 -6 24 -14 4 -7 23 -21 41 -30 19 -10 31 -20
28 -23 -3 -4 2 -12 12 -19 12 -8 18 -23 16 -44 -1 -22 1 -28 9 -22 20 14 42 8
39 -12 -2 -10 1 -15 6 -12 5 3 12 -2 15 -12 2 -9 8 -26 13 -36 6 -15 4 -17 -7
-11 -11 7 -11 5 1 -10 12 -15 12 -17 1 -10 -11 6 -13 4 -8 -8 4 -11 2 -14 -8
-10 -8 3 -12 10 -9 15 4 6 -5 2 -20 -7 -14 -10 -26 -13 -26 -9 0 5 -7 1 -14
-8 -7 -10 -22 -19 -32 -21 -10 -2 -33 -10 -49 -19 -17 -9 -45 -18 -63 -21 -18
-3 -40 -11 -48 -17 -11 -10 -14 -10 -14 1 0 8 -6 6 -16 -7 -8 -10 -13 -13 -9
-6 3 6 2 12 -3 12 -6 0 -12 -6 -15 -14 -4 -9 -16 -12 -34 -9 -22 4 -25 2 -13
-6 8 -6 10 -11 4 -11 -6 0 -17 7 -24 15 -9 11 -17 12 -31 4 -10 -5 -19 -6 -19
-2 0 4 -37 7 -82 7 -46 -1 -93 3 -105 9 -17 7 -27 6 -40 -4 -14 -12 -16 -12
-8 0 6 11 5 12 -6 5 -8 -5 -25 -10 -39 -10 -48 -3 -51 -4 -46 -13 3 -4 -5 -8
-17 -8 -53 -1 -68 -4 -63 -12 4 -5 -5 -8 -19 -6 -14 1 -25 -2 -25 -6 0 -5 -3
-8 -7 -8 -5 1 -11 0 -15 -1 -5 -1 -11 -3 -15 -4 -22 -6 -63 -30 -63 -38 0 -4
-6 -8 -13 -8 -7 0 -18 -9 -25 -20 -7 -11 -19 -20 -27 -20 -9 0 -12 -6 -9 -15
4 -8 2 -15 -3 -15 -5 0 -9 -13 -8 -30 0 -16 4 -30 8 -30 5 0 6 -4 3 -9 -4 -5
5 -8 18 -7 14 2 27 -3 30 -10 3 -8 12 -14 21 -14 8 0 15 -4 15 -10 0 -5 7 -6
17 -3 10 4 14 2 10 -4 -6 -10 34 -26 68 -28 6 0 16 -4 23 -8 6 -5 12 -5 12 -1
0 3 8 0 17 -7 15 -12 16 -12 10 6 -6 18 -5 17 9 -2 13 -18 20 -21 35 -12 15 7
21 6 25 -5 3 -8 12 -12 21 -9 8 3 19 0 24 -8 5 -8 9 -9 9 -3 0 6 7 11 15 11 8
0 12 -4 9 -9 -3 -4 2 -8 10 -8 9 0 16 6 16 13 0 7 3 8 8 2 10 -14 46 -19 37
-6 -3 7 0 8 9 5 10 -4 16 -1 16 7 0 11 3 11 10 -1 8 -12 10 -12 10 -1 0 11 3
11 16 1 8 -8 14 -9 13 -4 -4 21 2 28 11 14 6 -10 10 -11 10 -2 0 6 7 12 15 12
8 0 25 11 37 23 20 20 26 22 37 10 10 -11 16 -11 27 -2 11 9 14 9 14 0 0 -8 8
-10 22 -5 21 6 22 5 8 -12 -14 -18 -14 -18 8 0 12 11 22 15 22 10 0 -5 5 -2
10 6 5 8 10 10 10 5 0 -6 9 -11 19 -11 11 0 18 3 15 7 -4 7 35 22 51 19 6 -1
16 -3 23 -4 8 -1 18 -9 23 -17 7 -11 9 -10 9 6 1 20 1 20 15 1 8 -11 15 -14
15 -8 0 21 28 13 35 -9 6 -17 9 -19 16 -8 4 8 13 15 19 15 5 1 11 3 13 4 1 1
12 4 23 5 12 1 33 5 48 9 15 4 25 3 22 -2 -3 -5 1 -9 8 -9 8 0 12 6 9 14 -5
12 9 17 45 16 6 -1 12 6 12 14 0 9 6 13 15 9 8 -3 15 -1 15 5 0 6 4 7 10 4 37
-23 79 -3 45 21 -16 12 -15 13 9 20 14 3 26 10 26 15 0 8 99 109 107 109 2 0
1 -6 -3 -12 -4 -8 -3 -9 2 -5 5 5 9 14 10 20 1 22 26 77 32 73 4 -2 8 10 9 27
1 35 6 57 14 72 12 23 -23 199 -42 211 -5 3 -9 12 -9 20 0 9 -14 35 -30 60
-17 24 -28 44 -25 44 4 0 -1 7 -9 16 -9 8 -16 22 -16 30 0 8 -4 14 -10 14 -5
0 -12 11 -16 25 -3 14 -11 25 -17 25 -6 0 -8 3 -4 6 8 8 -16 33 -25 27 -5 -2
-8 3 -8 11 0 8 -25 41 -55 73 -30 32 -53 63 -50 70 2 7 -2 10 -9 7 -8 -3 -34
15 -59 40 -25 25 -50 46 -56 46 -7 0 -10 4 -7 8 3 5 -6 15 -19 22 -13 7 -22
18 -18 23 3 6 1 7 -5 3 -6 -3 -17 1 -25 9 -9 8 -20 15 -26 15 -6 0 -11 7 -11
16 0 8 -4 12 -10 9 -5 -3 -10 -1 -10 5 0 6 -4 9 -9 6 -5 -3 -12 1 -15 10 -3 9
-12 14 -19 12 -15 -5 -48 27 -39 38 4 4 2 4 -5 1 -6 -4 -18 0 -26 8 -9 8 -23
15 -32 15 -9 0 -13 5 -10 10 3 6 -2 10 -13 10 -10 0 -27 8 -38 18 -10 9 -40
28 -66 41 -27 13 -48 28 -48 33 0 5 -4 7 -9 3 -5 -3 -12 -1 -16 5 -3 5 -16 15
-28 20 -21 11 -21 11 -3 -4 11 -9 15 -16 9 -16 -6 0 -16 7 -23 15 -7 9 -20 13
-28 10 -13 -5 -13 -3 -1 12 9 11 10 14 2 9 -7 -4 -13 -3 -13 3 0 6 -7 8 -15 5
-8 -4 -15 -1 -15 7 0 7 -3 10 -6 7 -8 -9 -51 35 -46 47 3 6 -1 5 -8 -2 -10 -9
-16 -9 -26 0 -33 30 -42 35 -48 30 -3 -4 -6 -1 -6 5 0 7 -7 12 -16 12 -8 0
-12 5 -9 10 3 6 -3 10 -15 10 -12 0 -18 5 -15 10 3 6 -1 10 -9 10 -9 0 -16 5
-16 11 0 5 -4 8 -9 5 -5 -3 -14 1 -21 9 -7 8 -17 12 -23 8 -6 -3 -7 -1 -3 5 4
7 -3 17 -18 24 -14 6 -26 17 -26 25 0 7 -7 13 -15 13 -8 0 -15 5 -15 10 0 6
-6 10 -13 10 -12 0 -48 27 -104 79 -15 14 -23 17 -26 8 -3 -7 -6 -4 -6 6 -1 9
-5 17 -11 17 -5 0 -7 8 -3 18 5 14 3 13 -10 -3 -16 -19 -16 -19 -17 -1 0 11
-3 16 -6 13 -11 -10 -45 13 -38 25 4 7 3 8 -4 4 -11 -7 -51 11 -63 27 -7 10
-17 9 -43 -5 -13 -7 -16 -7 -12 1 9 14 -3 13 -29 -2z"/>
<path d="M3740 6845 c-1 -5 -2 -13 -1 -17 0 -5 -2 -8 -6 -8 -5 0 -8 -17 -7
-37 0 -21 -4 -44 -10 -52 -8 -11 -8 -13 2 -7 6 4 12 3 12 -3 0 -5 -5 -13 -10
-16 -6 -4 -8 -11 -4 -16 3 -5 2 -15 -3 -22 -5 -7 -9 -47 -9 -89 1 -43 -2 -78
-6 -78 -4 0 -3 -11 2 -25 7 -18 6 -23 -3 -19 -10 3 -12 -7 -10 -38 2 -24 3
-53 3 -66 0 -13 4 -21 9 -17 16 9 23 -13 10 -36 -6 -13 -7 -19 -1 -15 6 3 13
2 17 -4 4 -6 12 -7 18 -4 8 5 7 2 -1 -7 -14 -15 -46 -2 -48 20 -1 6 -3 14 -4
19 -1 4 -2 10 -2 14 1 3 -6 9 -14 12 -12 5 -14 0 -10 -24 3 -21 0 -30 -10 -30
-15 0 -15 -21 1 -32 6 -5 5 -8 -4 -8 -7 0 -11 -6 -7 -15 3 -8 1 -15 -4 -15 -9
0 -5 -38 5 -48 2 -3 -1 -12 -8 -20 -10 -13 -9 -14 2 -7 11 6 13 4 8 -10 -4 -9
-2 -24 5 -32 7 -9 13 -27 14 -42 2 -39 3 -41 18 -41 8 0 17 -4 20 -9 4 -5 -3
-7 -14 -4 -25 7 -20 -32 7 -53 13 -10 14 -13 3 -9 -12 4 -16 -1 -16 -19 0 -20
3 -23 14 -14 10 9 12 8 10 -3 -2 -8 -7 -17 -13 -21 -6 -5 -6 -8 2 -8 6 0 10
-9 8 -20 -2 -11 3 -24 13 -30 16 -9 16 -9 -1 -10 -10 0 -15 -5 -12 -10 4 -6
10 -8 14 -5 5 2 7 -7 5 -21 -1 -15 4 -28 12 -31 9 -3 11 -10 5 -21 -5 -9 -5
-23 -1 -31 12 -22 22 -52 27 -76 2 -10 7 -22 11 -25 4 -3 9 -16 10 -30 2 -14
8 -26 13 -28 13 -5 11 -39 -3 -46 -7 -3 -2 -3 11 0 19 5 23 3 18 -10 -3 -8 -1
-18 5 -22 7 -5 8 -2 3 6 -5 9 -4 11 3 6 7 -4 12 -13 12 -21 0 -7 6 -16 13 -18
6 -3 7 -6 2 -6 -6 -1 -23 10 -38 24 -31 30 -37 14 -12 -34 8 -16 11 -31 8 -35
-4 -3 1 -6 10 -6 9 0 17 -3 17 -8 0 -16 39 -32 46 -19 4 6 4 9 -1 5 -4 -4 -14
-3 -22 3 -15 13 -18 59 -3 59 5 0 6 -8 3 -17 -5 -12 -2 -15 10 -10 12 4 14 2
10 -10 -5 -12 -3 -14 7 -8 10 6 12 2 8 -18 -4 -18 -1 -24 9 -20 13 5 19 -12 6
-20 -5 -2 -3 -3 4 -1 13 3 43 -27 43 -44 0 -7 5 -12 10 -12 6 0 10 -7 10 -15
0 -8 5 -15 10 -15 6 0 10 -7 10 -15 0 -8 5 -15 11 -15 5 0 7 -4 4 -10 -3 -5
-1 -10 4 -10 6 0 11 -4 11 -10 0 -17 33 -49 44 -43 6 4 4 -2 -4 -12 -9 -11
-10 -16 -2 -11 7 4 12 2 12 -4 0 -6 12 -28 28 -47 15 -20 26 -39 24 -42 -2 -3
5 -8 15 -12 13 -6 14 -8 3 -8 -9 -1 -11 -4 -4 -9 5 -4 18 -24 28 -45 10 -21
24 -41 32 -44 8 -3 12 -9 9 -14 -3 -4 4 -13 15 -19 11 -6 20 -17 20 -25 0 -8
3 -14 8 -14 22 4 31 -3 25 -18 -4 -10 -2 -14 4 -10 6 4 14 0 17 -9 3 -8 2 -12
-4 -9 -5 3 -8 -3 -7 -14 1 -11 6 -17 14 -14 8 3 11 0 8 -9 -3 -8 1 -21 10 -28
8 -7 15 -18 15 -26 0 -7 16 -25 35 -40 19 -14 32 -31 28 -37 -3 -5 -1 -7 4 -4
12 8 65 -38 55 -47 -3 -4 2 -4 12 0 14 5 17 4 12 -4 -4 -7 -1 -12 8 -12 8 0
20 -8 25 -17 6 -10 11 -14 11 -9 0 4 13 -6 29 -23 16 -17 33 -31 39 -31 5 0
13 -7 16 -16 3 -9 11 -12 18 -8 9 5 8 2 -1 -10 -8 -9 -10 -16 -5 -14 5 2 11
-1 13 -7 9 -20 26 -33 36 -27 6 3 7 2 3 -3 -8 -9 22 -65 34 -65 4 0 8 -7 8
-15 0 -8 4 -15 9 -15 5 0 13 -9 16 -20 4 -11 19 -33 33 -47 15 -15 26 -30 25
-33 -1 -3 6 -15 17 -27 10 -12 16 -24 13 -27 -4 -3 -1 -6 6 -6 7 0 10 -4 7 -9
-3 -5 0 -11 7 -14 8 -3 27 -30 43 -61 16 -31 33 -56 37 -56 5 0 5 -4 2 -10 -3
-5 -1 -10 4 -10 6 0 10 -3 9 -7 -1 -5 8 -30 21 -58 12 -27 23 -58 24 -67 1 -9
5 -14 9 -12 4 3 8 -4 8 -15 0 -12 5 -21 11 -21 5 0 7 -4 4 -10 -3 -6 -2 -10 3
-10 10 0 25 -37 23 -54 -1 -4 3 -14 8 -20 6 -7 12 -21 14 -32 4 -18 6 -26 30
-89 6 -16 12 -34 13 -40 1 -5 7 -23 14 -40 6 -16 12 -32 12 -35 0 -3 8 -21 19
-41 10 -20 15 -39 12 -43 -4 -3 -1 -6 5 -6 9 0 21 -23 27 -50 1 -3 8 -21 17
-41 32 -74 40 -185 19 -267 -5 -20 -9 -50 -9 -67 0 -28 -1 -34 -7 -52 -2 -5
-6 -18 -10 -30 -4 -13 -12 -23 -17 -23 -5 0 -6 -4 -3 -10 3 -6 2 -10 -3 -10
-5 0 -9 -18 -8 -40 2 -38 1 -39 -17 -22 -15 12 -21 14 -24 5 -3 -7 -9 -13 -14
-13 -6 0 -8 4 -5 9 3 4 0 15 -7 23 -18 23 -73 4 -96 -32 -10 -17 -21 -27 -24
-24 -4 4 -9 -1 -13 -10 -3 -9 -12 -16 -20 -16 -8 0 -14 -5 -14 -11 0 -5 -4 -7
-10 -4 -5 3 -10 2 -10 -4 0 -6 -7 -7 -17 -4 -12 5 -14 3 -8 -7 6 -10 4 -11 -6
-4 -8 5 -30 9 -49 10 -19 1 -30 -1 -23 -3 7 -2 9 -11 6 -20 -5 -12 -3 -14 7
-8 9 5 11 4 6 -3 -4 -7 -14 -12 -22 -12 -10 0 -13 -6 -10 -18 5 -13 0 -18 -16
-19 -16 -2 -19 0 -9 6 19 12 9 47 -12 43 -9 -2 -17 2 -17 9 0 8 -4 8 -12 1 -7
-5 -28 -13 -46 -17 -18 -3 -30 -10 -27 -15 3 -5 -9 -6 -26 -3 -24 3 -29 2 -23
-9 6 -10 5 -11 -7 -1 -18 14 -41 12 -63 -6 -11 -9 -16 -10 -16 -2 0 6 5 11 10
11 6 0 10 5 10 12 0 6 -13 -1 -29 -16 -18 -17 -34 -25 -42 -21 -7 5 -10 4 -6
-2 8 -13 -20 -26 -35 -16 -6 3 -8 2 -5 -4 4 -6 -14 -21 -39 -34 -26 -13 -49
-29 -51 -36 -3 -7 -14 -13 -25 -13 -10 0 -16 -5 -13 -10 3 -5 0 -10 -8 -10 -8
0 -20 -7 -27 -15 -7 -9 -15 -13 -17 -11 -3 2 -15 -5 -28 -16 -13 -11 -27 -20
-32 -21 -13 -1 -31 -21 -26 -30 2 -4 -1 -7 -8 -7 -23 0 -134 -126 -166 -188
-17 -34 -27 -59 -21 -56 7 5 8 2 2 -7 -13 -21 -14 -39 -1 -39 7 0 5 -5 -3 -10
-10 -6 -11 -10 -2 -10 6 0 12 -9 12 -21 0 -11 4 -18 9 -15 5 3 12 -1 15 -10 4
-9 9 -14 13 -11 3 4 14 -3 24 -14 9 -11 30 -22 45 -25 16 -3 31 -10 35 -15 3
-6 16 -11 27 -12 12 -1 22 -6 22 -11 0 -6 5 -5 12 2 18 18 32 14 17 -5 -13
-15 -12 -15 9 -4 17 9 22 9 22 -1 0 -8 3 -9 8 -3 4 6 13 10 20 11 28 2 33 4
28 12 -2 4 0 14 5 22 8 12 9 11 7 -5 -2 -12 2 -19 10 -17 10 2 11 -4 7 -19 -6
-19 -5 -20 7 -8 8 7 13 26 12 41 -2 15 1 28 7 28 6 0 8 -4 5 -9 -23 -37 100
-48 126 -11 16 23 17 23 15 3 0 -12 -4 -20 -7 -18 -4 2 -7 -2 -7 -10 0 -11 4
-12 14 -4 7 6 13 17 13 25 0 7 4 15 9 18 4 3 7 -9 5 -27 l-2 -32 14 33 c16 36
29 44 18 10 -6 -20 -5 -21 9 -10 9 8 21 11 26 8 5 -4 13 -2 16 4 5 8 11 7 21
-1 9 -7 14 -8 13 -3 -4 21 2 26 17 14 12 -11 18 -11 31 2 19 19 9 39 -15 32
-14 -5 -14 -4 -2 4 9 7 18 7 26 1 22 -18 53 -19 47 -2 -4 11 -2 14 5 9 7 -4
12 -1 12 7 0 19 26 40 51 42 14 1 16 -1 8 -12 -8 -9 -8 -13 0 -14 6 -1 17 -2
24 -3 6 -1 25 6 41 16 24 14 33 15 45 5 12 -10 14 -9 8 5 -4 12 -2 15 8 11 8
-3 12 -10 8 -17 -3 -6 4 -1 16 12 12 12 27 19 33 16 7 -5 8 -2 3 6 -6 10 -4
12 9 7 14 -5 17 -3 12 8 -7 20 4 19 20 -2 13 -17 14 -17 8 0 -4 10 -3 17 2 16
21 -4 28 2 14 11 -11 7 -7 9 15 7 21 -1 29 2 27 12 -3 12 0 12 12 1 9 -7 16
-8 16 -3 0 5 10 10 22 10 13 1 24 7 26 13 2 5 8 10 13 10 6 0 7 -5 3 -12 -4
-7 -3 -8 4 -4 7 4 12 15 12 24 0 13 2 13 15 -4 13 -16 14 -16 9 -1 -5 13 -1
17 17 15 17 -2 23 2 21 13 -2 15 26 48 35 42 10 -8 23 -1 17 9 -4 6 -3 8 3 5
6 -4 16 0 23 8 6 7 19 11 28 8 13 -4 12 -2 -3 11 -11 10 -14 15 -8 11 7 -3 22
3 34 14 12 11 27 18 32 14 6 -4 7 -1 2 7 -6 10 -4 12 10 6 14 -5 15 -3 7 6 -7
9 -6 17 4 26 8 7 14 10 14 6 0 -4 11 5 25 20 14 16 30 24 37 20 7 -5 9 -2 5 9
-4 11 1 18 14 22 10 4 17 10 14 15 -5 8 23 25 36 22 4 -1 5 8 2 18 -4 14 0 20
11 20 9 0 15 3 15 8 -4 22 3 34 16 29 8 -4 17 -1 21 5 4 6 3 8 -3 5 -6 -4 -14
0 -17 9 -3 8 -2 12 3 9 5 -3 12 4 16 15 3 11 11 20 16 20 6 0 7 4 4 10 -4 6 1
7 11 3 10 -4 15 -2 11 3 -3 6 -2 16 2 23 6 9 9 4 9 -13 0 -14 -5 -26 -10 -26
-6 0 -8 -7 -4 -15 3 -8 1 -15 -5 -15 -6 0 -7 -5 -4 -10 3 -5 1 -10 -5 -10 -6
0 -8 -4 -5 -10 3 -5 1 -10 -4 -10 -6 0 -11 -5 -11 -11 0 -8 4 -9 13 0 8 6 18
7 22 3 5 -4 5 1 2 11 -5 12 -1 17 11 17 10 0 13 3 7 8 -19 13 -17 35 2 28 9
-4 14 -4 10 0 -4 4 -2 13 4 21 9 9 8 17 0 27 -10 12 -8 14 11 9 17 -3 19 -2 9
5 -9 7 -10 12 -2 16 6 4 9 12 6 17 -4 5 -1 9 4 9 6 0 11 7 11 15 0 8 4 15 8
15 5 0 9 6 10 13 0 6 4 23 7 37 5 20 4 22 -4 10 -9 -13 -10 -12 -8 5 6 33 19
55 28 50 4 -3 6 3 4 14 -2 11 3 44 11 75 8 30 16 70 17 88 2 18 5 38 8 43 10
17 7 315 -3 321 -5 3 -4 13 4 22 7 10 8 13 3 9 -10 -8 -37 71 -29 85 3 4 1 8
-4 8 -5 0 -9 10 -9 23 1 12 -22 70 -51 129 -29 59 -53 118 -54 132 -1 13 -6
24 -10 23 -9 -2 -14 5 -80 128 -23 44 -42 83 -40 88 1 4 -2 7 -6 7 -4 0 -19
22 -33 50 -13 27 -27 50 -31 50 -5 0 -8 9 -8 20 0 11 -4 20 -9 20 -8 0 -16 18
-26 56 -1 6 -14 29 -28 51 -14 23 -23 44 -20 47 4 3 1 6 -5 6 -7 0 -12 7 -12
17 0 9 -3 13 -6 10 -4 -4 -26 22 -50 56 -62 89 -85 120 -149 196 -61 74 -156
161 -174 161 -12 0 -29 9 -38 20 -10 11 -23 20 -30 20 -7 0 -13 4 -13 8 0 7
-24 39 -72 95 -10 11 -15 24 -12 28 3 5 -2 9 -11 9 -10 0 -13 -4 -8 -12 4 -7
-7 -2 -24 12 -17 14 -29 28 -27 31 4 7 -26 23 -38 21 -5 -1 -8 5 -8 15 0 9 -3
14 -6 11 -7 -8 -54 36 -54 50 0 6 -9 14 -20 17 -20 6 -26 20 -12 28 4 2 1 2
-7 0 -18 -5 -323 306 -314 320 3 6 1 7 -5 3 -10 -6 -142 114 -142 129 0 3 -12
17 -26 32 -14 14 -23 31 -20 39 3 8 0 11 -10 7 -10 -4 -17 2 -21 16 -3 11 -10
21 -17 21 -6 0 -20 15 -31 32 -11 18 -27 42 -35 54 -67 99 -127 214 -116 224
8 10 7 11 -4 8 -14 -4 -46 45 -42 65 1 4 -2 7 -8 7 -5 0 -10 7 -10 15 0 8 -5
15 -11 15 -5 0 -8 4 -4 9 3 5 0 13 -6 16 -5 4 -8 13 -5 21 3 8 0 13 -6 11 -6
-1 -16 12 -22 28 -6 17 -15 33 -21 37 -6 5 -5 8 4 8 10 0 11 4 3 13 -9 11 -24
73 -24 107 -1 8 -4 20 -8 25 -4 6 -4 20 1 33 8 22 10 22 38 7 44 -22 48 -18
12 15 -34 33 -39 42 -17 34 7 -3 16 2 19 10 5 12 1 13 -25 4 -29 -10 -60 7
-40 22 11 8 13 30 4 30 -5 0 -10 44 -11 98 -1 53 -3 113 -4 132 -1 20 4 40 13
48 8 8 10 11 3 8 -6 -4 -14 2 -16 11 -3 10 -6 14 -7 8z m600 -4640 c-8 -10 -9
-15 -2 -15 6 0 14 10 18 23 l8 22 6 -25 c5 -20 2 -26 -14 -32 -20 -6 -20 -6 1
-7 12 -1 25 -5 28 -11 3 -5 12 -10 18 -10 8 0 8 3 -2 9 -8 5 -9 11 -3 15 6 4
9 15 7 26 -2 11 1 23 7 26 6 4 8 3 4 -4 -3 -5 0 -12 6 -15 10 -4 11 -7 1 -18
-7 -7 -13 -17 -13 -22 0 -4 6 -5 13 -2 6 4 2 -2 -11 -13 -15 -14 -18 -22 -10
-25 14 -6 8 -7 -52 -12 -19 -1 -46 -5 -60 -9 -18 -5 -31 -1 -48 14 -23 21 -23
22 -4 53 10 18 23 33 30 33 7 1 15 3 20 4 4 1 15 1 25 1 9 -1 20 6 24 15 4 12
8 14 11 6 2 -7 -2 -19 -8 -27z m150 -153 c0 -7 -4 -10 -10 -7 -5 3 -10 0 -10
-7 0 -7 -9 -19 -20 -26 -12 -7 -18 -18 -14 -24 5 -7 3 -8 -5 -4 -7 5 -10 15
-7 23 4 8 1 11 -5 7 -6 -3 -9 -15 -6 -25 4 -15 1 -17 -11 -11 -21 10 -32 9
-59 -6 -18 -10 -24 -9 -37 4 -9 8 -20 12 -26 9 -6 -4 -10 -3 -9 2 5 28 -2 36
-16 17 -15 -18 -15 -18 -8 0 5 15 3 17 -8 12 -8 -4 -6 -1 4 7 10 9 18 19 18
24 1 4 3 10 6 13 2 3 3 -2 1 -10 -4 -19 30 -20 60 -2 12 8 22 11 22 6 0 -4 5
-3 10 2 16 16 130 12 130 -4z"/>
<path d="M684 5275 c-3 -8 -2 -20 2 -27 6 -10 4 -10 -9 1 -21 17 -22 8 -1 -13
12 -12 12 -16 2 -17 -7 0 -5 -4 6 -8 17 -7 17 -8 2 -24 -10 -9 -13 -17 -7 -17
6 0 7 -7 4 -17 -5 -12 -3 -14 7 -8 10 6 12 4 7 -8 -3 -10 -3 -17 1 -17 4 0 8
-8 9 -17 1 -32 29 -124 35 -118 3 4 5 -5 4 -19 0 -14 -5 -26 -10 -26 -5 0 -3
-6 3 -13 6 -8 8 -16 5 -20 -3 -3 0 -15 6 -27 8 -15 8 -20 1 -16 -7 5 -11 -1
-11 -14 0 -13 4 -19 12 -14 7 5 8 3 2 -7 -12 -19 -13 -70 -1 -93 5 -10 5 -16
0 -13 -4 3 -8 -60 -8 -140 0 -80 -3 -147 -7 -149 -4 -3 -3 -16 2 -29 7 -18 6
-25 -3 -25 -8 0 -7 -4 3 -10 13 -8 13 -10 1 -10 -12 0 -12 -3 -3 -12 9 -9 8
-14 -4 -22 -19 -15 -20 -112 0 -144 4 -7 2 -12 -4 -12 -6 0 -9 -12 -7 -27 2
-16 0 -38 -4 -50 -5 -13 -4 -25 2 -28 5 -4 6 -12 2 -18 -4 -6 -7 -23 -7 -37
-1 -14 -4 -30 -9 -37 -4 -6 -3 -14 2 -17 5 -3 7 -15 4 -26 -3 -13 0 -20 8 -20
9 -1 8 -4 -4 -11 -10 -6 -14 -15 -10 -22 13 -20 14 -49 2 -41 -8 4 -8 1 -2
-12 5 -11 9 -36 8 -56 0 -21 2 -38 5 -38 3 0 6 -10 7 -22 5 -67 20 -183 23
-183 1 0 4 -17 5 -39 2 -21 8 -50 13 -65 6 -14 10 -33 10 -41 0 -8 3 -35 7
-60 4 -25 9 -55 10 -67 5 -34 28 -97 44 -115 8 -10 11 -18 8 -18 -3 0 3 -21
14 -46 11 -25 18 -52 15 -60 -3 -8 1 -17 9 -20 8 -4 15 -15 15 -25 0 -10 5
-19 10 -19 6 0 9 -3 8 -7 -1 -5 15 -44 36 -88 22 -44 39 -86 39 -92 0 -7 3
-13 6 -13 4 0 17 -18 31 -40 14 -22 29 -40 34 -40 5 0 6 -3 3 -6 -4 -4 2 -15
14 -24 11 -10 18 -22 17 -28 -2 -5 8 -21 22 -34 49 -49 80 -86 80 -98 0 -6 5
-8 10 -5 6 3 10 1 10 -5 0 -6 19 -32 43 -57 23 -25 41 -50 39 -55 -1 -5 2 -7
8 -3 5 3 13 -1 16 -9 3 -9 10 -13 15 -10 5 3 9 -2 9 -11 0 -12 5 -15 17 -11
10 4 14 4 10 0 -8 -8 30 -44 47 -44 6 0 4 -5 -4 -10 -12 -8 -10 -10 8 -10 13
0 20 -4 17 -10 -5 -9 16 -15 38 -11 5 1 6 -3 2 -9 -3 -6 -11 -7 -17 -4 -7 4
-8 2 -4 -5 4 -6 11 -9 16 -6 4 3 10 2 12 -2 6 -15 76 -62 82 -56 3 4 6 1 6 -7
0 -10 4 -10 17 1 9 8 14 9 10 3 -4 -7 3 -14 19 -18 21 -6 23 -10 14 -21 -9
-11 -7 -12 9 -8 13 3 21 1 21 -8 0 -7 3 -9 7 -6 3 4 12 2 19 -4 8 -6 21 -9 29
-5 9 3 13 2 10 -4 -3 -6 -3 -10 2 -11 4 0 16 -2 26 -4 9 -2 15 1 11 6 -8 14 9
11 34 -7 20 -14 22 -14 22 3 0 15 2 15 9 3 6 -8 7 -18 4 -24 -3 -5 -1 -6 6 -2
6 4 9 12 6 17 -4 5 -1 9 4 9 6 0 11 -6 11 -12 0 -10 2 -10 9 0 6 11 10 10 15
-3 5 -14 9 -15 21 -5 9 7 15 8 15 2 0 -16 33 -24 42 -10 4 7 8 9 8 5 0 -4 10
-3 21 4 12 6 19 7 16 2 -4 -5 0 -10 8 -10 8 0 12 4 10 8 -3 3 6 9 20 11 13 3
22 1 19 -3 -3 -5 0 -9 5 -9 6 0 11 4 11 9 0 4 11 6 25 3 14 -2 25 0 25 7 0 5
-8 8 -17 5 -15 -5 -16 -4 -3 5 11 8 18 7 26 -3 9 -12 11 -12 20 0 8 12 13 12
37 0 30 -17 36 -10 10 10 -16 12 -14 12 14 4 18 -4 38 -11 45 -15 7 -4 4 1 -6
9 -11 9 -24 16 -30 16 -5 0 -7 2 -4 5 7 8 58 -16 58 -27 0 -5 10 -3 23 3 20
11 21 11 8 -5 -8 -9 -10 -16 -5 -15 5 1 11 0 14 -1 19 -7 39 -7 34 1 -5 8 8
13 27 11 4 -1 5 6 2 16 -2 9 5 27 16 38 11 12 18 24 15 27 -2 2 2 10 11 17 8
7 15 19 15 26 0 8 6 13 13 11 6 -1 11 4 10 11 -2 6 1 12 5 12 5 0 17 15 27 34
11 19 23 33 27 30 7 -5 9 2 8 21 -1 3 8 17 19 32 12 14 18 29 15 34 -3 5 0 18
6 29 6 11 13 33 15 48 2 15 7 44 11 65 5 26 3 37 -5 37 -7 0 -10 4 -7 9 10 16
-18 18 -33 3 -10 -10 -16 -11 -19 -3 -2 6 -10 11 -18 11 -8 0 -14 9 -14 21 0
16 -5 20 -22 17 -13 -2 -22 -9 -20 -16 6 -31 -16 -8 -27 28 -13 45 -17 47 -49
24 l-23 -16 2 46 c2 30 7 45 14 42 7 -2 10 6 7 25 -2 16 -8 29 -12 29 -4 0
-10 13 -13 29 -4 16 -22 45 -41 64 -19 19 -36 42 -38 51 -1 9 -7 16 -12 16 -5
-1 -13 5 -18 14 -5 9 -13 14 -17 12 -4 -3 -14 7 -22 21 -19 36 -77 94 -97 98
-9 2 -19 4 -22 5 -3 1 -11 3 -18 4 -7 0 -23 19 -35 41 -12 22 -25 42 -29 43
-5 2 -8 12 -8 22 0 10 -7 20 -15 24 -13 5 -14 2 -4 -17 11 -19 10 -20 -3 -9
-18 15 -32 56 -16 45 7 -3 8 -1 4 5 -4 7 -1 12 6 12 9 0 9 3 -2 10 -8 5 -15
15 -15 22 0 7 -7 13 -15 14 -35 2 -41 4 -36 13 7 11 -13 9 -31 -2 -9 -6 -11
-3 -6 10 3 10 3 15 -1 11 -5 -4 -19 -3 -33 3 -17 6 -22 6 -18 -2 4 -6 1 -10
-6 -8 -36 4 -57 -4 -93 -36 -22 -19 -34 -35 -27 -35 9 0 9 -5 1 -20 -6 -12
-10 -28 -9 -38 3 -37 -2 -61 -16 -76 -20 -19 -19 -27 3 -19 16 6 16 5 -1 -15
-18 -20 -18 -20 1 -15 11 2 31 -1 43 -8 13 -7 27 -13 31 -14 4 0 16 -8 27 -17
11 -9 22 -14 25 -11 3 4 6 1 6 -6 0 -8 -7 -10 -20 -6 -11 4 -20 2 -20 -4 0 -6
3 -10 8 -10 22 4 31 -5 47 -43 9 -24 19 -54 22 -68 2 -13 6 -26 8 -29 3 -2 -3
-10 -12 -16 -15 -11 -13 -12 11 -10 15 2 25 1 22 -2 -3 -3 9 -19 27 -35 17
-17 26 -27 20 -23 -7 3 -13 1 -13 -4 0 -6 5 -11 11 -11 6 0 8 -7 5 -16 -3 -9
-2 -12 5 -9 6 4 13 -2 16 -14 3 -12 9 -21 14 -21 5 0 9 -5 9 -11 0 -5 -4 -8
-8 -5 -4 2 -8 -4 -8 -15 0 -19 1 -19 12 -4 12 16 15 15 40 -9 21 -18 31 -22
41 -15 9 8 11 6 8 -9 -3 -16 1 -19 17 -14 15 4 19 1 16 -9 -3 -8 -11 -13 -17
-11 -19 4 -3 -17 22 -28 20 -10 20 -10 5 3 -25 20 -11 29 16 11 13 -8 25 -11
29 -8 3 3 3 -3 1 -13 -4 -13 -16 -20 -40 -21 -20 -2 -33 1 -30 6 3 5 -10 8
-28 5 -21 -2 -40 2 -49 11 -8 8 -17 12 -21 9 -3 -4 -6 -1 -6 6 0 7 -6 11 -12
8 -7 -2 -20 8 -29 22 -9 14 -33 32 -54 40 -47 17 -75 41 -128 111 -50 65 -67
81 -87 77 -17 -3 -55 35 -76 75 -8 15 -28 47 -44 72 -17 25 -36 59 -42 76 -7
20 -15 29 -24 26 -8 -3 -15 0 -16 7 -3 25 -4 33 -12 55 -4 12 -11 20 -16 17
-5 -3 -12 7 -16 22 -4 15 -14 37 -23 47 -9 11 -11 16 -4 13 6 -4 15 -2 19 4 4
8 3 9 -4 5 -7 -4 -12 -2 -12 4 0 6 -6 8 -12 4 -10 -6 -10 -4 0 7 17 18 15 29
-5 29 -10 0 -14 4 -8 8 19 14 15 32 -7 32 -21 0 -21 0 -2 16 10 8 12 12 4 8
-12 -6 -13 -4 -2 7 16 17 16 32 0 23 -9 -5 -9 -2 1 9 12 15 11 17 -3 17 -10 0
-14 5 -11 10 3 6 0 10 -7 10 -10 0 -9 3 2 11 13 9 12 10 -2 5 -10 -3 -20 -1
-24 5 -3 6 -13 8 -21 5 -8 -3 -12 -2 -9 3 3 5 -4 20 -15 35 -11 14 -17 26 -14
26 4 0 0 12 -10 26 -9 15 -12 23 -5 19 9 -5 10 -1 5 16 -4 13 -11 25 -16 27
-4 2 -5 10 -2 19 5 12 3 14 -7 8 -9 -5 -11 -4 -6 4 14 22 17 64 6 97 -10 29
-7 42 18 100 23 51 27 70 18 79 -8 10 -15 8 -30 -9 -18 -20 -19 -20 -11 -1 10
29 14 75 5 75 -13 0 -27 80 -33 178 -1 17 -4 32 -7 32 -3 0 -5 26 -5 58 1 65
-3 84 -16 76 -14 -8 -29 5 -22 22 4 12 8 12 22 2 9 -7 6 -1 -6 13 -14 15 -23
38 -23 57 0 18 -5 32 -11 32 -6 0 -9 7 -6 14 7 19 -20 76 -36 76 -9 0 -9 2 0
8 13 8 11 41 -3 64 -4 7 -3 8 4 4 15 -9 15 -1 2 25 -8 13 -7 19 0 19 7 0 8 6
0 19 -8 16 -6 21 10 26 21 7 28 25 10 25 -5 0 -10 -4 -10 -10 0 -5 -4 -10 -10
-10 -19 0 -10 27 12 37 19 8 20 10 4 16 -10 4 -15 3 -11 -3 3 -6 1 -10 -4 -10
-6 0 -11 16 -11 36 0 25 4 33 13 29 6 -4 2 2 -10 13 -12 11 -20 22 -17 24 2 3
0 17 -5 32 -8 18 -7 26 0 26 8 0 8 4 0 13 -6 8 -8 17 -5 20 4 3 2 19 -4 36 -8
22 -7 31 1 35 8 3 9 7 1 13 -11 9 -15 65 -3 57 4 -2 9 3 12 11 4 8 1 12 -7 9
-8 -3 -12 5 -12 26 0 16 4 30 9 30 5 0 -1 9 -14 21 -13 11 -17 17 -9 13 13 -7
13 -6 0 12 -29 37 -55 55 -72 51 -10 -3 -18 0 -18 5 0 6 -8 4 -17 -3 -9 -8
-14 -9 -11 -4 7 11 -82 12 -100 1 -6 -3 -14 -2 -17 4 -5 8 -11 7 -21 -1 -11
-9 -14 -8 -14 5 0 10 -4 15 -9 11 -5 -3 -12 -1 -16 5 -9 15 -35 12 -41 -5z"/>
<path d="M7866 4803 c-4 -5 -16 -9 -27 -9 -10 -1 -28 -2 -40 -3 -11 0 -18 -5
-15 -9 3 -4 -13 -7 -34 -6 -24 1 -38 -2 -37 -9 1 -6 -9 -11 -23 -12 -25 -2
-103 -34 -85 -35 6 0 2 -5 -7 -11 -10 -5 -19 -8 -21 -7 -2 2 -12 -4 -22 -12
-17 -13 -18 -13 -11 0 4 9 2 8 -7 -2 -8 -10 -17 -15 -20 -11 -4 3 -7 1 -7 -6
0 -7 -4 -10 -9 -7 -5 3 -12 -1 -15 -10 -3 -8 -10 -13 -15 -9 -5 3 -12 1 -16
-5 -4 -6 -12 -7 -18 -4 -7 4 -9 4 -5 -1 4 -4 -11 -21 -33 -37 -28 -20 -39 -34
-35 -45 6 -14 4 -14 -11 -2 -15 12 -16 12 -11 -3 5 -12 1 -16 -17 -14 -17 2
-22 -1 -17 -12 3 -9 1 -13 -5 -9 -6 4 -14 0 -17 -9 -3 -8 -10 -12 -16 -9 -6 4
-7 -1 -3 -11 4 -12 3 -15 -5 -10 -7 4 -15 0 -18 -9 -4 -9 -18 -21 -31 -26 -15
-5 -21 -14 -17 -21 5 -8 2 -9 -9 -5 -11 4 -17 1 -17 -8 0 -8 5 -15 10 -15 6 0
10 -5 10 -11 0 -8 -5 -7 -16 2 -28 23 -43 19 -38 -10 5 -25 5 -25 -10 -6 -12
15 -15 16 -10 3 4 -13 1 -16 -15 -13 -15 3 -18 0 -14 -12 5 -11 3 -14 -6 -8
-10 6 -11 3 -1 -15 10 -18 10 -21 -2 -14 -19 12 -39 14 -32 2 3 -5 -3 -12 -15
-15 -12 -3 -21 -9 -21 -14 0 -5 -7 -6 -15 -3 -9 4 -15 0 -15 -9 0 -10 -7 -15
-19 -12 -11 2 -22 -3 -25 -11 -3 -8 -10 -14 -16 -14 -6 0 -8 6 -5 13 4 6 -1 3
-9 -8 -9 -11 -28 -32 -41 -47 -15 -16 -21 -29 -15 -33 6 -4 8 -10 5 -15 -3 -5
0 -12 6 -16 7 -4 9 -3 5 4 -11 17 18 20 37 3 10 -8 18 -11 17 -6 -5 24 1 27
15 9 13 -16 14 -16 9 -1 -5 13 -2 16 9 11 8 -3 18 0 22 5 3 6 11 8 17 5 7 -4
8 -2 4 5 -6 9 -11 9 -24 0 -10 -7 -6 -2 7 12 24 24 87 37 74 15 -4 -6 1 -5 10
3 9 7 14 18 10 23 -3 6 0 9 8 6 7 -2 25 6 39 19 14 13 30 21 37 19 7 -3 10 1
6 10 -3 9 0 14 8 12 8 -2 14 2 13 7 -1 6 8 19 19 29 20 19 20 19 14 0 -7 -18
-6 -18 8 1 14 17 17 18 25 5 5 -8 10 -10 10 -4 0 5 -6 16 -12 23 -11 10 -9 11
6 5 13 -5 17 -4 12 4 -4 7 -2 12 4 12 6 0 18 7 26 15 9 8 24 15 34 15 10 0 22
5 25 10 4 6 11 8 16 5 5 -4 12 0 15 9 3 8 12 12 20 9 8 -3 14 1 14 8 0 7 3 9
7 6 3 -4 13 -1 21 6 13 10 15 9 8 -3 -4 -8 -1 -6 8 4 8 10 28 19 44 20 18 1
28 6 25 13 -3 7 6 10 26 9 17 -1 27 2 24 8 -4 5 1 7 10 3 11 -4 14 -2 10 9 -4
10 0 12 11 8 9 -3 13 -11 9 -17 -3 -6 -1 -7 6 -3 6 4 9 11 6 16 -6 10 23 22
36 14 5 -3 9 0 9 6 0 6 5 8 10 5 6 -4 7 -12 4 -18 -4 -7 4 -1 19 12 14 12 30
20 36 16 6 -3 11 -2 11 4 0 5 9 8 20 6 11 -2 22 0 24 4 3 4 24 7 48 6 36 0 43
-4 41 -20 -1 -19 -1 -19 12 -2 9 13 15 15 20 7 6 -9 10 -9 16 1 5 8 9 9 9 3 0
-6 6 -11 14 -11 8 0 12 7 9 16 -3 11 0 10 11 -3 9 -11 16 -14 16 -8 0 9 5 10
19 2 14 -7 21 -6 24 3 4 9 6 9 6 0 1 -7 6 -13 12 -13 5 0 7 6 3 13 -4 6 1 5
12 -4 19 -17 57 -22 48 -7 -3 4 2 8 11 8 9 0 13 -4 10 -10 -8 -13 8 -13 22 1
8 8 13 7 18 -2 6 -8 4 -10 -5 -4 -8 5 -11 4 -7 -1 3 -5 21 -9 41 -8 20 1 36
-1 36 -5 0 -4 6 -8 13 -8 71 -5 130 -19 123 -32 -2 -3 3 -13 12 -21 14 -13 15
-12 9 3 -3 9 -1 19 5 23 7 4 8 3 4 -4 -7 -11 6 -17 28 -13 5 1 4 -4 -2 -11 -9
-11 -6 -14 18 -12 17 1 28 -1 26 -4 -4 -7 25 -38 33 -35 2 1 8 7 13 15 8 10 9
9 4 -4 -3 -10 -1 -20 5 -23 5 -4 6 -11 3 -17 -4 -6 -3 -8 3 -5 11 7 43 -27 43
-47 0 -18 23 -37 48 -39 12 0 18 -6 15 -14 -3 -7 0 -20 7 -28 7 -8 9 -15 5
-15 -4 0 5 -14 19 -31 14 -17 24 -35 20 -40 -3 -5 2 -9 10 -9 9 0 15 -3 14 -7
-4 -15 14 -53 24 -53 6 0 9 -3 5 -6 -3 -4 12 -24 34 -45 22 -22 37 -39 34 -39
-4 0 -1 -8 6 -17 12 -15 12 -16 -1 -8 -12 7 -11 3 3 -18 9 -14 17 -33 17 -42
0 -9 4 -14 9 -10 5 3 12 1 15 -4 4 -5 2 -12 -3 -15 -5 -4 -12 -2 -16 4 -3 5
-10 10 -16 10 -11 0 -7 -22 6 -32 5 -4 2 -10 -8 -14 -9 -3 -17 -10 -17 -16 0
-5 6 -6 13 -2 8 5 8 2 -2 -9 -7 -9 -10 -17 -6 -17 4 0 3 -6 -4 -13 -8 -10 -7
-17 1 -25 8 -8 8 -15 -1 -26 -10 -11 -8 -17 11 -30 12 -9 19 -16 15 -16 -5 0
-1 -7 7 -16 19 -18 21 -38 4 -28 -9 5 -9 3 1 -9 7 -9 18 -14 23 -11 5 3 8 0 7
-7 -2 -8 2 -24 9 -37 7 -12 11 -26 8 -31 -3 -5 1 -14 9 -21 8 -7 12 -16 9 -21
-3 -5 0 -9 6 -9 7 0 10 -7 6 -15 -3 -8 -2 -15 3 -15 5 0 7 -11 5 -25 -1 -14 3
-31 10 -38 6 -6 13 -30 15 -51 1 -22 7 -50 12 -63 5 -15 5 -23 -2 -23 -5 0 -4
-6 3 -14 7 -8 15 -13 18 -11 3 2 5 -12 6 -30 0 -22 -3 -32 -10 -28 -6 4 -5 -1
3 -10 16 -20 36 -23 25 -4 -4 6 -3 8 1 4 14 -12 14 -36 0 -31 -14 6 -23 -28
-20 -81 1 -19 -3 -35 -9 -35 -7 0 -8 -3 -1 -8 12 -9 14 -92 2 -92 -4 0 -5 -4
-2 -10 3 -5 0 -10 -7 -10 -9 0 -9 -3 2 -10 11 -7 11 -10 2 -10 -8 0 -10 -5 -6
-12 5 -7 2 -9 -9 -5 -11 4 -14 2 -11 -7 3 -9 -9 -20 -35 -32 -23 -10 -37 -22
-34 -28 4 -6 -2 -4 -12 4 -10 8 -16 10 -12 4 4 -7 -2 -14 -14 -17 -15 -4 -20
-11 -15 -23 5 -14 4 -15 -8 -5 -8 7 -20 10 -26 6 -17 -11 -11 7 8 21 15 12 14
12 -8 8 -20 -5 -22 -3 -10 5 13 9 13 11 -1 11 -9 0 -20 7 -23 16 -3 9 -13 14
-20 11 -8 -3 -16 -2 -18 3 -2 5 -14 11 -28 13 -26 5 -54 -15 -42 -29 4 -5 -1
-2 -10 5 -10 7 -18 10 -18 6 0 -4 -8 -1 -17 6 -9 8 -14 9 -10 3 3 -6 0 -11 -8
-11 -8 0 -12 4 -9 9 3 4 0 8 -6 8 -6 0 -8 5 -5 10 3 6 -1 10 -10 10 -9 0 -13
5 -10 10 3 6 -3 10 -14 10 -12 0 -21 7 -21 15 0 8 -4 15 -10 15 -5 0 -10 5
-10 11 0 15 -26 39 -34 32 -3 -4 -6 4 -6 17 0 19 -2 21 -15 10 -13 -11 -14
-10 -9 3 4 12 1 15 -15 12 -12 -2 -19 0 -16 6 4 5 -2 12 -12 16 -10 4 -21 10
-24 15 -3 5 -15 10 -27 11 -11 0 -19 4 -17 8 3 3 -13 12 -35 19 -22 7 -37 16
-35 20 13 20 -92 46 -175 43 -129 -4 -170 -7 -170 -15 0 -3 -8 -5 -17 -3 -26
4 -36 -5 -22 -21 10 -12 9 -13 -4 -8 -21 8 -32 -32 -18 -68 5 -14 7 -29 4 -32
-4 -3 1 -6 10 -6 11 0 17 -8 17 -22 0 -17 3 -19 9 -9 7 11 10 9 16 -8 3 -11
13 -21 21 -21 8 0 13 -4 10 -9 -9 -14 5 -42 17 -34 6 4 8 0 4 -10 -4 -11 -2
-14 7 -11 8 3 17 0 22 -7 4 -8 3 -10 -4 -5 -18 11 -14 0 5 -15 11 -10 14 -10
9 -1 -4 6 -3 12 3 12 5 0 13 -9 16 -20 8 -25 35 -27 35 -2 0 13 -2 14 -9 3 -5
-8 -11 -9 -15 -3 -3 5 1 13 10 16 10 4 18 -3 26 -24 9 -26 12 -29 26 -18 13
11 14 10 8 -10 -6 -16 -3 -22 8 -22 9 0 16 -4 16 -10 0 -5 9 -10 20 -10 14 0
20 -7 20 -22 0 -16 3 -19 11 -11 9 9 17 6 31 -10 11 -12 17 -16 13 -9 -3 6 -2
12 3 12 6 0 13 -7 16 -16 5 -14 9 -14 23 -3 9 8 14 9 10 3 -4 -7 0 -15 9 -18
9 -3 14 -13 11 -21 -4 -9 -1 -12 9 -8 7 3 14 -1 14 -8 0 -7 3 -9 6 -6 12 12
44 -13 44 -34 0 -11 5 -17 10 -14 6 3 10 -1 10 -10 0 -9 5 -13 10 -10 6 3 10
1 10 -5 0 -6 5 -8 10 -5 6 3 10 0 10 -7 0 -8 9 -20 19 -28 11 -7 17 -18 14
-24 -4 -6 1 -5 10 3 15 12 17 11 17 -3 0 -9 7 -19 15 -22 8 -4 12 -10 9 -15
-3 -5 5 -9 18 -9 13 0 34 -9 48 -20 18 -13 28 -16 37 -8 10 8 13 6 13 -6 0
-19 22 -17 32 4 5 11 7 9 7 -7 1 -16 7 -23 20 -23 11 0 22 -6 24 -12 4 -10 6
-10 6 0 1 6 6 12 12 12 5 0 7 -6 3 -12 -5 -8 0 -7 11 2 17 14 18 13 11 -4 -7
-20 -7 -20 15 0 l22 19 -7 -25 c-6 -20 -5 -22 4 -8 6 9 17 15 25 11 9 -3 21 0
28 5 15 13 32 11 67 -7 24 -12 24 -12 5 5 -20 16 -20 16 3 11 16 -4 22 -1 23
11 0 11 2 12 6 5 6 -16 33 -17 33 -2 0 5 -5 7 -12 3 -7 -4 -8 -3 -4 5 6 9 11
9 22 0 7 -6 11 -16 8 -21 -7 -10 19 2 46 23 13 9 12 10 -2 5 -10 -3 -18 -1
-18 4 0 6 5 10 11 10 5 0 7 6 3 13 -4 6 -4 9 0 5 4 -3 26 2 49 12 23 10 46 16
52 12 5 -3 4 2 -4 11 -12 15 -12 17 3 11 9 -3 16 -1 16 5 0 6 5 11 10 11 7 0
7 -7 0 -22 -10 -21 -10 -21 3 -6 8 10 18 14 23 10 4 -4 3 1 -4 10 -11 14 -10
18 5 27 10 5 25 21 33 35 7 14 20 26 27 26 8 0 11 5 7 12 -4 7 -3 8 4 4 7 -4
12 -1 12 8 0 9 5 16 11 16 5 0 7 -5 3 -12 -4 -6 -3 -8 4 -5 5 4 9 15 7 25 -1
9 6 29 16 43 10 14 15 30 11 35 -4 5 -3 6 2 2 5 -4 20 1 34 12 13 11 29 17 35
13 6 -3 7 -1 3 6 -4 6 -12 8 -18 5 -7 -4 -8 -2 -4 5 5 7 17 9 29 5 22 -6 22
-6 2 9 -19 14 -19 16 -3 22 10 4 15 12 11 19 -4 6 2 4 12 -4 11 -9 16 -10 11
-3 -13 23 -16 54 -4 47 7 -5 9 -1 5 9 -4 10 -2 16 6 14 7 -1 12 10 13 26 1 15
7 33 14 40 10 10 11 7 5 -10 -3 -13 -3 -23 2 -23 5 0 10 11 11 25 1 14 -4 25
-11 25 -8 0 -8 3 2 9 8 5 10 14 6 21 -5 8 -4 11 3 6 6 -3 13 -2 17 4 3 5 -2
10 -12 11 -10 0 -13 3 -7 5 6 3 10 20 8 39 -1 20 1 33 5 31 4 -3 7 4 7 14 0
10 -4 16 -9 13 -5 -3 -6 9 -4 26 3 17 2 33 -2 35 -3 2 -6 28 -5 58 0 29 -3 56
-8 59 -5 3 -9 22 -10 42 -1 20 -4 37 -7 37 -4 0 -7 10 -8 22 -1 11 -7 24 -13
28 -8 5 -6 9 5 13 11 5 14 3 9 -6 -4 -7 -3 -9 2 -4 5 5 9 14 9 20 0 7 5 12 12
12 6 0 15 4 20 8 4 5 4 8 -2 7 -22 -5 -36 1 -29 12 4 7 3 8 -4 4 -6 -4 -9 -13
-5 -21 3 -8 1 -15 -5 -15 -6 0 -9 8 -8 18 2 9 -2 20 -8 24 -7 5 -7 8 2 8 10 0
9 4 -3 16 -14 15 -14 17 1 29 13 9 14 14 4 20 -9 5 -11 4 -6 -3 4 -7 3 -12 -3
-12 -8 0 -8 19 -2 60 1 3 6 -2 12 -10 9 -13 10 -13 6 0 -2 8 -12 13 -23 12
-10 -2 -16 -1 -12 3 4 4 3 18 -3 32 -5 13 -5 22 0 19 4 -3 7 9 5 26 -2 18 1
36 8 41 8 5 5 6 -9 2 -14 -4 -23 -2 -23 4 0 6 8 11 18 12 11 0 8 4 -9 10 -28
11 -45 45 -25 53 7 3 4 10 -8 20 -17 14 -18 16 -3 16 9 0 17 4 17 10 0 5 -7 7
-15 4 -15 -6 -20 5 -16 35 2 7 -2 10 -8 6 -7 -3 -11 2 -11 14 0 12 -9 26 -20
33 -11 7 -20 23 -20 35 0 13 -6 23 -13 23 -12 0 -52 67 -49 81 1 4 -9 4 -21 1
-19 -5 -20 -3 -9 10 10 13 10 18 1 24 -8 5 -9 3 -4 -6 5 -8 4 -11 -3 -6 -6 4
-8 14 -5 22 4 10 -2 17 -16 21 -11 3 -21 10 -21 15 0 5 6 6 13 3 6 -4 3 0 -7
9 -10 8 -23 13 -29 9 -6 -3 -7 -1 -3 5 4 7 2 12 -3 12 -6 0 -11 9 -11 21 0 13
-4 18 -12 13 -8 -5 -7 0 2 11 10 13 11 16 2 11 -14 -8 -36 11 -60 53 -11 19
-11 22 0 15 10 -6 10 -4 -1 9 -7 9 -17 14 -22 11 -5 -3 -9 4 -9 15 0 12 -5 21
-11 21 -5 0 -7 4 -4 10 3 6 -1 7 -9 4 -9 -3 -16 -1 -16 6 0 6 -4 9 -9 5 -5 -3
-12 4 -16 15 -3 11 -13 20 -21 20 -8 0 -12 5 -9 10 3 6 -1 10 -9 10 -9 0 -16
7 -16 16 0 8 -4 13 -8 10 -5 -3 -15 4 -22 15 -8 10 -20 19 -28 19 -7 0 -10 5
-7 10 3 6 -1 10 -10 10 -9 0 -13 5 -10 10 5 8 -15 13 -41 9 -4 0 -10 3 -13 8
-12 16 -45 39 -37 25 6 -9 -3 -8 -25 4 -19 10 -40 17 -46 16 -18 -4 -16 8 5
32 16 20 16 20 -1 6 -16 -12 -20 -12 -28 1 -7 12 -9 12 -9 -1 -1 -10 -5 -7
-13 8 -7 12 -17 19 -22 15 -4 -4 -5 0 -2 10 5 12 3 16 -5 11 -8 -5 -9 -2 -5 9
3 10 2 17 -3 17 -6 0 -10 -7 -10 -15 0 -8 -5 -15 -11 -15 -5 0 -7 -4 -4 -10 9
-15 -2 -12 -19 5 -8 8 -26 16 -41 17 -16 2 -24 7 -20 15 3 10 0 11 -15 3 -12
-7 -21 -7 -25 0 -3 5 -11 10 -16 10 -6 0 -7 -6 -3 -12 5 -8 1 -7 -10 2 -20 16
-34 19 -88 23 -21 1 -38 6 -38 12 0 5 -5 4 -12 -3 -8 -8 -17 -8 -30 -1 -11 6
-22 8 -25 5 -3 -3 -15 -1 -26 5 -15 8 -18 8 -12 -1 6 -9 3 -9 -12 -1 -11 6
-23 7 -27 4 -3 -3 -6 -1 -6 5 0 8 -32 12 -106 12 -81 0 -104 -3 -98 -12 6 -10
4 -10 -7 0 -15 14 -23 15 -33 5z"/>
</g>
</svg>
