<?xml version="1.0" standalone="no"?>
<!DOCTYPE svg PUBLIC "-//W3C//DTD SVG 20010904//EN"
 "http://www.w3.org/TR/2001/REC-SVG-20010904/DTD/svg10.dtd">
<svg version="1.0" xmlns="http://www.w3.org/2000/svg"
 width="1024.000000pt" height="1024.000000pt" viewBox="0 0 1024.000000 1024.000000"
 preserveAspectRatio="xMidYMid meet">
<metadata>
Created by potrace 1.16, written by Peter Selinger 2001-2019
</metadata>
<g transform="translate(0.000000,1024.000000) scale(0.100000,-0.100000)"
fill="#000000" stroke="none">
<path d="M3567 8104 c-3 -3 -36 -8 -74 -10 -114 -8 -132 -10 -139 -17 -4 -4
-14 -1 -22 6 -13 10 -15 9 -9 -7 6 -14 4 -17 -8 -12 -8 3 -15 0 -15 -7 0 -8
-4 -6 -10 3 -6 9 -10 11 -10 3 0 -7 -6 -10 -14 -7 -8 3 -26 -2 -40 -12 -25
-16 -26 -16 -20 2 4 13 1 12 -8 -4 -11 -17 -16 -20 -26 -10 -9 9 -12 9 -12 1
0 -7 -8 -12 -17 -12 -45 -2 -63 -6 -63 -13 0 -4 -7 -5 -15 -2 -8 4 -15 2 -15
-3 0 -8 -20 -13 -66 -17 -14 0 -20 -6 -16 -15 4 -10 1 -13 -11 -8 -9 3 -17 2
-17 -2 0 -5 -13 -8 -29 -7 -22 1 -27 -2 -23 -13 3 -9 1 -12 -6 -7 -7 4 -12 2
-12 -4 0 -6 -4 -9 -9 -5 -5 3 -16 -2 -25 -11 -9 -8 -20 -12 -26 -9 -6 4 -9 2
-8 -3 2 -6 1 -10 -2 -10 -3 1 -31 -15 -62 -36 -31 -20 -62 -36 -68 -36 -6 0
-9 -4 -6 -9 4 -5 -5 -8 -19 -7 -13 2 -22 0 -20 -4 6 -9 -63 -53 -83 -53 -6 0
-10 -3 -7 -5 6 -7 -38 -38 -48 -34 -5 1 -6 -1 -3 -6 3 -5 -10 -17 -29 -28 -18
-10 -32 -22 -29 -26 3 -4 1 -8 -5 -8 -5 0 -39 -29 -75 -65 -36 -36 -70 -65
-76 -65 -6 0 -9 -4 -5 -9 3 -5 -6 -18 -20 -29 -13 -11 -21 -22 -18 -26 3 -3
-1 -6 -11 -6 -9 0 -15 -4 -11 -9 3 -6 -4 -15 -16 -21 -11 -7 -18 -14 -16 -17
9 -9 -33 -44 -45 -37 -7 4 -8 3 -4 -4 4 -6 -9 -27 -27 -46 -19 -19 -32 -38
-29 -41 3 -3 0 -5 -6 -5 -7 0 -9 -7 -5 -17 3 -10 3 -15 -1 -11 -11 9 -53 -38
-73 -82 -4 -8 -14 -20 -22 -27 -9 -7 -12 -13 -7 -13 5 0 -1 -9 -13 -19 -12
-11 -22 -22 -22 -25 3 -20 0 -26 -9 -21 -6 3 -10 0 -10 -8 0 -8 -7 -20 -15
-27 -8 -7 -12 -17 -8 -23 4 -6 0 -8 -11 -4 -9 4 -15 3 -12 -1 2 -4 -2 -18 -10
-32 -7 -14 -13 -21 -14 -15 0 5 -9 -8 -21 -30 -11 -22 -26 -44 -32 -50 -7 -5
-20 -27 -31 -47 -10 -20 -28 -47 -40 -60 -21 -23 -22 -26 -25 -54 0 -8 -5 -13
-10 -10 -5 3 -12 -5 -15 -19 -4 -14 -11 -25 -17 -25 -6 0 -7 -4 -4 -10 3 -5 2
-10 -4 -10 -6 0 -8 -6 -5 -14 3 -7 -2 -16 -10 -19 -9 -4 -16 -11 -16 -17 0 -6
6 -8 13 -4 6 4 2 -4 -10 -17 -12 -13 -23 -33 -25 -44 -1 -11 -10 -26 -18 -33
-8 -8 -9 -11 -2 -7 7 4 -2 -13 -20 -38 -18 -24 -37 -42 -43 -39 -5 3 -7 2 -3
-3 4 -4 3 -14 -3 -22 -6 -7 -8 -13 -3 -13 5 0 -2 -7 -14 -16 -12 -8 -22 -21
-22 -28 0 -7 -10 -24 -22 -38 -13 -13 -34 -40 -48 -60 -13 -20 -28 -34 -32
-32 -4 3 -8 0 -8 -5 0 -22 -2 -26 -16 -34 -8 -4 -14 -15 -14 -22 0 -8 -7 -15
-16 -15 -8 0 -12 -4 -9 -10 3 -5 1 -10 -5 -10 -6 0 -8 -5 -5 -10 3 -6 -1 -13
-10 -16 -9 -4 -14 -12 -12 -19 3 -6 -3 -17 -14 -23 -11 -7 -16 -18 -13 -27 4
-9 -2 -25 -12 -37 -11 -12 -13 -18 -7 -14 8 4 13 1 13 -8 0 -9 -5 -16 -11 -16
-5 0 -7 -4 -4 -10 3 -5 1 -10 -6 -10 -8 0 -8 -4 1 -15 9 -10 9 -15 1 -15 -6 0
-11 -8 -11 -18 0 -10 -6 -24 -12 -31 -10 -11 -10 -12 -1 -7 9 5 11 2 7 -8 -3
-9 -10 -13 -15 -10 -5 3 -6 -1 -3 -9 3 -8 0 -18 -6 -22 -9 -6 -9 -10 1 -16 11
-7 11 -9 1 -9 -7 0 -10 -4 -7 -10 3 -5 1 -10 -6 -10 -8 0 -8 -5 2 -17 7 -10
10 -15 5 -11 -18 15 -35 -16 -18 -35 15 -17 15 -17 -3 -11 -13 5 -16 4 -11 -4
4 -7 2 -12 -5 -12 -8 0 -8 -4 1 -15 10 -12 9 -15 -5 -15 -10 0 -15 -3 -12 -7
4 -3 1 -13 -6 -21 -9 -13 -9 -14 0 -8 9 5 11 2 7 -8 -3 -9 -10 -16 -14 -16 -5
0 -7 -11 -6 -25 2 -13 -2 -23 -8 -22 -6 1 -10 -10 -9 -26 1 -17 -4 -30 -12
-34 -8 -3 -12 -9 -9 -14 3 -5 2 -9 -3 -9 -4 0 -9 -17 -11 -37 -1 -20 -6 -39
-10 -43 -7 -5 -9 -13 -17 -50 -2 -8 -4 -15 -5 -15 -1 0 -3 -34 -5 -75 -2 -41
-4 -76 -5 -77 -2 -2 -3 -6 -4 -10 -1 -5 -5 -14 -10 -22 -6 -9 -5 -12 2 -7 6 4
10 -1 9 -13 0 -11 -5 -17 -9 -15 -4 3 -8 -9 -8 -25 0 -18 -5 -31 -12 -31 -9 0
-9 -3 -3 -8 6 -4 11 -26 12 -50 2 -40 20 -72 42 -72 6 0 11 -4 11 -10 0 -5 10
-10 22 -10 12 0 18 -3 15 -6 -9 -9 33 -45 44 -38 5 3 9 -1 9 -8 0 -9 3 -9 10
2 8 13 13 9 12 -10 0 -3 10 -5 23 -5 13 0 21 3 19 6 -2 4 3 10 12 13 23 9 26
8 18 -6 -6 -10 -4 -10 7 0 7 6 25 12 40 12 15 0 31 5 34 10 5 8 11 8 20 0 11
-9 16 -6 25 10 8 14 18 20 30 17 13 -3 17 0 13 10 -3 7 -2 13 3 12 27 -5 46 4
54 24 5 12 9 16 9 8 1 -9 6 -8 19 6 9 10 13 12 8 3 -5 -8 3 -3 16 11 14 15 35
30 47 34 12 3 19 9 17 13 -4 7 19 33 25 28 2 -2 13 6 24 17 12 11 14 17 5 13
-9 -5 -8 -2 2 7 10 8 14 18 10 23 -4 4 0 3 10 -4 14 -11 17 -10 23 7 3 12 11
21 16 21 6 0 7 5 4 10 -3 6 1 10 9 10 19 0 21 11 5 27 -8 8 -8 13 0 18 6 3 10
3 9 -2 -3 -8 5 -13 23 -13 5 0 8 3 6 8 -7 10 19 32 29 24 5 -4 2 2 -6 12 -10
13 -10 17 -2 12 19 -11 35 3 22 19 -9 11 -7 12 9 8 15 -4 21 -1 21 11 0 10 4
15 9 12 9 -6 26 22 22 37 -1 5 3 5 9 2 12 -8 41 25 34 37 -3 4 2 5 10 2 11 -4
16 0 16 11 0 10 5 13 12 9 7 -5 9 -1 6 13 -4 17 -2 19 15 15 14 -3 18 -1 13 6
-4 7 -2 12 5 12 7 0 10 3 6 6 -10 10 17 32 32 26 9 -3 12 -1 7 6 -4 8 0 12 11
12 15 0 16 2 3 10 -14 9 -7 15 14 11 5 -1 6 5 3 13 -4 9 -1 18 5 22 7 4 8 3 4
-4 -4 -7 -1 -12 9 -12 10 0 13 5 9 12 -5 8 0 9 15 5 13 -3 20 -3 17 0 -3 4 2
15 11 26 10 10 17 21 16 23 -8 13 -1 34 9 28 7 -4 8 -3 4 5 -4 6 -2 19 6 28 9
12 9 15 1 9 -7 -4 -13 -3 -13 3 0 5 6 12 13 14 7 4 6 6 -4 6 -18 1 -33 -25
-23 -40 3 -6 0 -16 -6 -24 -7 -8 -9 -15 -5 -15 4 0 2 -6 -4 -13 -6 -8 -7 -18
-3 -22 4 -5 1 -5 -7 0 -8 5 -12 4 -9 -1 4 -5 -6 -10 -20 -11 l-27 -1 25 14
c14 7 21 13 16 14 -5 0 -3 7 4 15 9 11 9 15 1 15 -6 0 -14 -7 -17 -15 -4 -8
-11 -15 -16 -15 -7 0 -6 5 1 13 6 8 7 18 3 22 -4 5 -1 5 6 1 18 -10 15 15 -4
28 -13 10 -13 12 5 12 11 0 18 -2 16 -4 -2 -3 0 -13 6 -24 10 -18 29 -16 29 3
0 6 -5 7 -10 4 -6 -4 -8 7 -5 30 4 31 2 35 -10 25 -16 -13 -35 -5 -34 13 0 9
2 9 6 0 8 -21 22 -15 16 7 -3 11 0 20 6 20 6 0 8 -7 4 -17 -4 -11 -3 -14 5 -9
7 4 15 0 18 -9 5 -11 10 -13 19 -5 6 5 14 8 16 5 3 -2 5 4 5 15 0 10 -5 16
-11 14 -5 -3 -1 1 9 10 18 15 18 16 -10 27 -16 7 -36 11 -44 10 -13 -2 -13 -1
0 8 8 5 17 8 21 5 4 -2 10 0 14 6 3 5 1 10 -4 10 -6 0 -11 5 -11 11 0 5 10 3
22 -5 21 -15 58 -23 45 -10 -9 9 25 44 36 37 6 -3 7 -1 3 6 -4 6 -3 17 2 24 6
7 12 17 14 22 1 6 6 9 10 8 4 -2 5 4 2 12 -4 8 -1 15 5 15 6 0 10 6 9 13 -2 7
5 11 17 9 18 -2 18 -1 -4 18 -13 11 -18 20 -11 20 7 0 10 7 7 15 -4 8 -1 17 5
21 7 5 8 2 3 -6 -6 -10 -4 -12 10 -6 18 6 18 6 2 -11 -15 -18 -15 -20 6 -32
18 -11 20 -11 10 0 -19 20 -16 33 5 18 15 -13 16 -12 3 4 -7 9 -10 17 -5 17 5
1 -1 9 -13 19 l-22 19 26 0 c19 0 22 -3 12 -10 -11 -8 -11 -9 1 -5 16 4 22 55
8 63 -11 7 -10 34 2 34 5 0 6 -8 3 -17 -6 -15 -4 -16 9 -6 8 7 19 9 23 5 5 -4
5 1 2 10 -4 11 0 21 10 26 10 6 12 12 5 16 -6 4 -8 14 -5 24 5 14 4 15 -8 4
-8 -7 -14 -20 -14 -30 0 -9 -7 -18 -15 -18 -8 -1 -20 -2 -27 -3 -6 0 -10 -10
-7 -21 2 -11 6 -29 8 -40 7 -28 -8 -25 -24 5 -7 13 -16 23 -19 20 -15 -9 -35
13 -24 27 6 7 9 23 8 35 -1 12 2 20 7 17 5 -3 18 2 28 11 15 13 22 14 37 5 16
-10 16 -10 -3 -5 -12 3 -26 0 -33 -9 -9 -11 -6 -13 18 -12 34 2 74 34 66 53
-2 8 0 11 5 8 6 -3 10 1 10 10 0 10 -5 13 -12 9 -7 -4 -9 -3 -5 1 19 21 36 13
26 -12 -12 -33 -11 -37 6 -23 10 9 15 9 15 1 0 -6 -5 -11 -11 -11 -5 0 -7 -5
-4 -10 3 -6 -1 -13 -10 -16 -13 -6 -14 -9 -3 -16 10 -7 9 -11 -5 -22 -26 -20
4 -51 34 -36 10 6 19 8 19 4 0 -3 7 -1 15 6 8 7 12 16 9 21 -3 5 2 9 10 9 9 0
16 7 16 15 0 8 5 15 11 15 12 0 44 30 32 30 -4 0 -1 5 7 10 12 8 12 10 1 10
-11 0 -10 4 3 19 22 24 -1 24 -30 1 -18 -14 -18 -14 -2 11 11 17 13 30 7 40
-8 11 -9 10 -7 -5 2 -10 -7 -25 -22 -34 -22 -15 -23 -15 -13 -1 16 19 5 33
-14 18 -7 -6 -13 -8 -13 -4 0 4 -8 1 -17 -6 -16 -13 -17 -12 -4 4 8 9 16 15
19 12 3 -3 11 0 18 6 20 16 6 33 -14 17 -14 -11 -14 -9 1 8 9 11 15 23 12 26
-3 2 2 5 10 5 18 0 20 -14 3 -19 -8 -3 -7 -6 3 -10 12 -5 15 3 15 41 -1 40 2
46 20 47 12 1 26 4 33 8 6 4 11 3 11 -3 0 -5 -6 -12 -12 -15 -7 -3 -2 -3 12 1
22 5 23 4 12 -10 -9 -10 -10 -17 -2 -22 6 -4 9 -1 8 7 -2 7 4 12 12 10 10 -3
9 2 -5 18 -14 16 -15 21 -5 18 8 -2 14 2 13 9 -2 8 4 10 14 6 10 -4 14 -2 10
4 -3 5 0 10 7 10 7 0 13 -6 13 -13 0 -7 -4 -11 -8 -9 -3 3 -12 -2 -18 -9 -9
-11 -9 -16 0 -22 7 -4 9 -3 6 3 -4 6 6 13 24 17 17 3 28 10 24 16 -3 5 -1 10
5 10 6 0 8 5 5 10 -3 6 1 10 9 10 9 0 16 5 16 11 0 5 -5 7 -12 3 -7 -4 -8 -3
-4 5 4 6 12 9 17 6 5 -4 9 -1 9 6 0 7 3 10 6 6 4 -3 13 1 21 9 8 8 18 12 23 9
5 -3 12 0 16 6 4 8 3 9 -4 5 -7 -4 -12 -2 -12 3 0 6 7 11 15 11 8 0 15 5 15
11 0 5 5 7 10 4 6 -4 9 -1 8 7 -2 7 3 12 10 10 8 -1 11 2 8 7 -4 5 0 16 8 24
8 8 12 18 8 22 -4 5 1 5 10 2 11 -4 17 -2 15 6 -1 7 4 11 11 9 8 -1 11 2 7 8
-3 5 5 21 19 35 15 14 26 30 26 36 0 6 5 7 10 4 6 -3 10 2 10 11 0 10 3 15 6
11 9 -9 54 44 47 56 -3 6 -1 7 5 3 6 -3 25 8 43 26 17 18 28 26 23 18 -7 -13
-5 -13 9 -1 9 7 17 10 17 6 0 -4 7 -2 16 6 13 10 17 10 24 0 5 -9 10 -10 14
-3 3 6 14 11 24 10 9 0 32 3 49 5 18 3 35 1 39 -4 3 -6 10 -6 17 -1 20 15 46
11 39 -7 -5 -14 -3 -14 11 -2 13 11 17 11 17 1 0 -8 3 -10 7 -7 3 4 13 1 21
-6 13 -9 14 -9 8 1 -11 18 4 15 27 -5 19 -18 20 -17 7 7 l-13 25 26 -23 c17
-17 27 -20 32 -12 6 9 10 9 16 -1 7 -11 11 -12 17 -1 10 15 45 5 35 -11 -4 -6
2 -8 15 -5 12 4 22 2 22 -3 0 -5 8 -9 18 -9 10 0 23 -5 28 -10 6 -6 24 -12 41
-13 17 -1 30 -4 28 -7 -3 -5 21 -31 30 -30 20 1 25 -1 24 -7 -3 -17 1 -33 9
-32 26 4 44 -4 52 -23 5 -13 9 -17 9 -10 1 16 44 -25 54 -51 3 -9 11 -17 18
-17 6 0 9 -7 5 -15 -3 -8 -2 -14 2 -13 16 4 52 -14 52 -27 0 -8 6 -12 14 -9 9
3 17 -3 21 -17 6 -17 9 -19 16 -8 7 11 9 10 9 -4 0 -10 4 -15 10 -12 5 3 17
-3 27 -15 10 -11 23 -20 30 -20 7 0 13 -4 13 -10 0 -5 7 -10 15 -10 8 0 20 -9
27 -19 6 -10 18 -17 25 -14 7 3 13 -2 13 -12 0 -9 5 -13 10 -10 6 3 10 2 10
-4 0 -5 9 -13 20 -16 11 -3 20 -13 20 -22 0 -9 6 -13 14 -10 9 4 28 -10 49
-34 24 -26 37 -35 41 -27 4 7 4 3 2 -9 -3 -16 0 -20 12 -16 11 5 13 3 7 -7 -5
-8 -4 -11 3 -6 6 3 13 2 17 -4 3 -5 13 -10 21 -10 8 0 13 4 10 8 -3 5 2 9 10
9 9 0 13 -6 9 -15 -4 -10 0 -13 14 -9 15 3 18 1 14 -11 -4 -10 -2 -13 5 -8 7
4 12 2 12 -4 0 -6 5 -8 10 -5 6 3 10 -1 10 -9 0 -9 4 -15 9 -14 4 2 18 -8 30
-22 13 -14 19 -19 15 -11 -5 10 -3 12 5 7 9 -6 9 -11 -1 -24 -9 -12 -10 -14
-1 -8 8 4 22 -2 35 -15 13 -12 17 -19 11 -15 -9 5 -11 2 -7 -8 3 -9 10 -13 15
-10 5 3 9 -2 9 -11 0 -8 10 -20 23 -25 12 -5 16 -9 8 -9 -22 -1 19 -30 43 -31
11 0 17 -3 13 -6 -8 -8 18 -34 33 -34 6 0 8 -5 5 -10 -4 -6 -3 -10 2 -9 20 3
34 -2 28 -11 -4 -6 -3 -10 2 -9 4 1 11 0 16 -1 4 -1 13 -3 20 -4 6 0 13 -7 13
-13 3 -26 4 -28 12 -15 6 9 13 7 30 -8 12 -11 27 -19 34 -18 7 2 12 -4 12 -13
-1 -9 5 -16 12 -16 7 0 11 4 8 9 -3 4 2 5 10 2 9 -3 16 -11 16 -16 0 -6 9 -8
21 -5 16 4 18 3 9 -8 -13 -15 5 -16 29 -1 10 7 12 6 6 -4 -6 -10 -4 -12 9 -7
9 4 14 3 11 -2 -3 -5 0 -21 6 -35 12 -24 22 -31 43 -27 5 1 4 -4 -3 -13 -10
-12 -8 -16 8 -21 12 -3 21 -12 21 -19 0 -7 10 -18 23 -24 14 -7 16 -11 7 -11
-12 -1 -12 -3 -2 -10 7 -4 15 -17 17 -27 2 -10 4 -21 6 -24 3 -7 7 -23 8 -38
0 -7 6 -10 13 -6 7 5 8 3 3 -5 -4 -7 3 -23 16 -39 19 -21 20 -23 4 -12 -11 8
-6 -1 10 -19 17 -19 23 -31 15 -27 -8 4 -6 0 4 -8 14 -11 15 -16 6 -16 -9 0
-7 -5 6 -15 10 -8 15 -15 10 -15 -5 0 -3 -7 5 -16 10 -13 10 -17 -2 -25 -11
-7 -11 -9 4 -9 10 0 15 -4 12 -10 -3 -5 -1 -10 5 -10 6 0 9 -3 7 -7 -4 -9 24
-37 41 -41 7 -1 11 4 10 10 -2 7 7 14 20 16 14 2 20 8 15 15 -4 7 1 6 10 -2
15 -12 17 -12 12 2 -4 8 -1 18 6 23 8 5 10 3 4 -6 -6 -10 -4 -12 10 -6 16 6
16 4 4 -11 -13 -15 -12 -16 9 -11 12 4 20 2 16 -3 -3 -5 0 -9 6 -9 6 0 9 -4 6
-9 -4 -5 4 -7 16 -4 17 3 19 2 9 -5 -10 -8 -6 -12 19 -17 24 -5 29 -10 19 -16
-14 -8 0 -13 38 -12 6 0 9 -6 6 -13 -3 -8 0 -15 6 -15 6 -1 16 -2 22 -3 7 0
16 -10 21 -21 8 -19 8 -19 5 1 -3 13 3 25 17 34 17 10 19 10 9 -1 -7 -7 -13
-17 -13 -22 0 -4 6 -5 13 -1 9 6 9 5 -1 -8 -10 -13 -9 -18 5 -29 17 -13 17
-13 3 6 -15 20 -14 20 8 1 23 -20 30 -32 12 -21 -5 3 -10 1 -10 -4 0 -6 4 -11
10 -11 5 0 9 -3 9 -7 -3 -21 2 -33 16 -33 8 0 15 -5 15 -11 0 -5 -6 -7 -12 -4
-7 4 -2 -3 12 -15 14 -12 18 -19 10 -15 -13 6 -13 5 0 -7 9 -7 14 -21 12 -30
-2 -12 3 -18 13 -18 11 0 15 -5 11 -16 -3 -8 -2 -13 2 -10 5 3 14 -4 22 -14 8
-10 18 -16 24 -13 5 4 7 -1 3 -10 -4 -12 -1 -17 9 -17 11 0 15 -6 11 -20 -4
-17 -2 -18 15 -9 18 10 18 9 8 -10 -9 -17 -8 -21 5 -21 12 0 15 -6 10 -22 l-7
-23 17 23 c9 12 21 22 27 22 7 0 3 -7 -8 -15 -18 -14 -18 -16 -1 -29 9 -7 17
-23 17 -36 0 -20 2 -21 17 -9 11 10 14 10 9 2 -4 -8 -2 -13 6 -13 9 0 9 -3 -2
-10 -13 -8 -13 -10 2 -10 18 0 42 -33 32 -43 -3 -3 4 -8 15 -12 12 -3 19 -10
16 -15 -5 -9 24 -25 40 -21 5 2 7 -1 3 -5 -4 -4 -2 -14 4 -23 7 -9 -1 -5 -17
9 l-30 25 25 -28 c13 -15 30 -25 38 -22 7 2 10 1 7 -4 -3 -5 0 -13 6 -17 6 -3
15 0 20 7 6 10 9 7 9 -11 0 -19 3 -21 12 -12 7 7 17 12 22 12 6 0 4 -5 -4 -10
-8 -5 -10 -10 -4 -10 6 0 21 -9 34 -20 12 -11 27 -17 32 -14 4 3 8 2 7 -3 -1
-4 0 -17 1 -28 2 -17 3 -17 10 5 6 19 8 20 9 6 1 -21 39 -58 52 -50 5 3 9 0 9
-7 0 -8 5 -7 17 2 11 10 14 10 9 2 -5 -9 -1 -13 10 -13 10 0 14 -3 11 -7 -4
-3 3 -11 16 -18 12 -6 21 -17 19 -24 -1 -7 2 -10 7 -7 5 4 16 0 24 -8 8 -8 17
-12 21 -9 3 4 6 -1 6 -9 0 -9 7 -18 14 -21 10 -4 14 -1 10 11 -2 9 2 5 9 -11
7 -15 16 -24 20 -21 4 4 7 1 7 -7 0 -11 2 -11 10 1 7 11 10 11 10 2 0 -7 5
-10 10 -7 6 3 10 2 10 -4 0 -5 9 -13 20 -16 11 -4 18 -11 15 -16 -4 -5 3 -9
15 -9 12 0 19 -4 16 -8 -3 -5 1 -9 9 -9 8 0 12 4 9 9 -8 13 10 9 31 -9 16 -13
17 -15 3 -10 -10 4 -18 4 -18 1 0 -10 28 -34 40 -34 7 0 10 -7 7 -14 -4 -11
-1 -13 10 -9 12 5 14 3 8 -7 -5 -8 -4 -11 2 -7 11 7 46 -30 39 -41 -3 -5 8 -7
25 -6 16 1 26 -2 23 -7 -3 -5 2 -9 10 -9 9 0 16 -5 16 -11 0 -5 5 -7 10 -4 6
3 10 1 10 -4 0 -6 5 -11 11 -11 5 0 7 6 4 13 -4 6 3 1 14 -13 12 -14 19 -18
16 -9 -4 10 0 16 9 16 8 0 12 -6 8 -15 -4 -11 -1 -14 12 -9 10 4 15 3 11 -3
-3 -6 -1 -10 4 -10 6 0 11 -7 11 -16 0 -8 4 -13 8 -10 5 3 14 -4 22 -14 8 -10
17 -17 22 -14 4 3 5 -2 2 -10 -3 -9 -1 -16 6 -16 6 0 8 -5 4 -12 -5 -8 0 -7
11 2 11 9 16 10 11 3 -8 -14 17 -57 27 -46 4 3 7 -1 7 -10 0 -10 6 -17 13 -17
13 0 43 -40 39 -53 -1 -5 2 -6 7 -3 5 3 24 -8 42 -26 19 -17 26 -25 17 -18
-11 7 -18 8 -18 2 0 -12 28 -24 40 -17 4 3 6 -4 3 -15 -4 -16 -2 -19 13 -13
14 5 16 3 10 -12 -4 -11 -4 -16 0 -13 11 12 46 -12 40 -28 -3 -7 -2 -13 2 -12
12 4 52 -26 52 -39 0 -6 9 -15 20 -18 11 -3 20 -11 20 -16 0 -5 8 -9 18 -7 11
2 16 -3 14 -14 -2 -11 3 -18 13 -18 8 0 15 -7 15 -15 0 -20 45 -66 56 -57 4 4
4 -2 0 -12 -6 -17 -5 -17 11 -5 11 9 14 10 9 2 -4 -8 -2 -13 7 -13 8 0 17 -9
20 -20 3 -11 12 -20 20 -20 7 0 19 -10 25 -22 7 -16 11 -18 12 -8 1 8 5 4 9
-9 4 -14 12 -26 19 -27 7 -1 8 0 2 3 -5 2 -10 10 -10 16 1 7 9 2 19 -10 11
-13 24 -23 29 -23 5 0 16 -8 23 -17 11 -15 11 -16 -1 -6 -20 18 -34 16 -16 -2
8 -8 22 -15 32 -15 14 0 15 -2 3 -17 -10 -12 -10 -15 -1 -9 14 9 44 -18 34
-30 -4 -5 1 -3 10 4 14 12 16 10 11 -10 -4 -18 -3 -20 6 -8 9 13 11 13 11 -2
0 -20 48 -60 62 -52 6 4 8 -3 4 -17 -3 -13 -3 -18 0 -11 3 6 10 12 15 12 6 0
7 -5 3 -12 -5 -8 -2 -9 10 -5 10 4 15 3 11 -3 -4 -6 0 -17 9 -25 16 -17 41
-21 31 -5 -3 5 -1 10 4 10 14 0 14 -13 1 -26 -6 -6 -5 -15 1 -24 9 -12 10 -11
5 5 -5 17 -3 16 12 -4 11 -13 24 -21 31 -17 7 4 9 2 5 -8 -10 -26 42 -73 66
-59 12 8 21 9 25 3 3 -6 11 -10 16 -10 6 0 7 6 2 13 -4 6 -8 17 -8 22 0 6 -8
9 -18 9 -9 -1 -17 2 -17 7 0 13 24 11 37 -2 13 -13 37 0 39 21 1 8 5 24 9 35
6 16 5 17 -4 5 -11 -15 -17 -3 -11 25 1 6 -2 7 -6 2 -12 -12 -12 -47 0 -40 6
4 5 0 -1 -9 -7 -8 -10 -18 -6 -21 3 -4 1 -7 -6 -7 -7 0 -10 10 -7 25 3 13 0
28 -6 31 -7 4 -8 2 -4 -4 8 -13 -34 -13 -52 1 -9 7 -12 4 -10 -13 2 -13 -3
-24 -10 -26 -7 -1 -8 0 -2 3 5 2 10 9 10 14 0 6 -4 7 -10 4 -6 -3 -10 -1 -10
5 0 6 -4 9 -9 6 -11 -7 -23 22 -14 37 4 6 0 8 -10 4 -17 -6 -52 47 -41 64 7
12 34 11 34 -1 0 -5 -7 -7 -14 -4 -13 5 -13 1 -3 -25 8 -23 14 -28 24 -19 10
8 13 7 13 -2 0 -13 15 -5 15 8 0 4 4 13 8 20 5 8 3 12 -7 12 -9 0 -16 -4 -16
-10 0 -5 -5 -10 -12 -10 -8 0 -6 6 4 16 19 19 54 12 41 -8 -14 -24 -15 -52 -1
-40 17 14 53 -11 42 -30 -4 -7 3 -4 17 7 13 11 26 22 29 24 3 2 -4 1 -16 -3
-21 -6 -54 18 -37 26 25 13 81 8 87 -7 3 -9 14 -15 23 -14 31 3 44 -1 38 -11
-3 -5 -12 -7 -20 -3 -13 4 -20 -8 -12 -21 1 -2 -7 -14 -17 -25 -17 -18 -17
-21 -3 -15 10 3 17 1 17 -6 0 -6 -4 -8 -10 -5 -5 3 -10 1 -10 -5 0 -7 6 -10
13 -7 6 2 11 15 9 28 -2 19 0 21 8 9 7 -12 10 -12 10 -1 0 7 6 11 15 7 8 -3
18 2 23 11 6 11 11 12 16 4 4 -6 1 -11 -6 -11 -8 -1 -5 -7 7 -16 19 -14 19
-16 3 -28 -10 -7 -15 -16 -11 -19 3 -4 -2 -9 -11 -13 -14 -5 -14 -9 -4 -22 8
-9 8 -13 2 -9 -13 8 -40 -20 -30 -30 4 -4 11 -1 16 7 6 8 10 11 10 6 0 -5 -8
-18 -17 -28 -15 -17 -15 -20 -3 -28 11 -7 11 -10 2 -10 -7 0 -15 6 -18 14 -3
8 -13 12 -22 9 -15 -4 -15 -3 -2 7 12 9 12 11 1 8 -24 -7 -25 -28 -1 -28 12 0
19 -4 16 -9 -4 -5 5 -8 19 -6 30 3 67 33 58 48 -3 6 -1 7 5 3 7 -4 12 -2 12 5
0 7 3 9 7 6 3 -4 -2 -15 -11 -26 -19 -21 -9 -35 14 -20 11 6 12 9 2 9 -7 0
-10 5 -7 10 4 6 11 8 16 5 12 -8 -2 27 -18 43 -7 8 -11 18 -8 23 4 5 2 9 -4 9
-5 0 -12 -6 -14 -12 -3 -7 -6 -8 -6 -2 -1 5 6 19 15 30 8 10 13 14 10 7 -4 -6
-2 -14 4 -18 6 -4 8 -10 6 -14 -3 -4 4 -12 14 -19 14 -9 21 -9 26 0 4 6 3 8
-3 5 -6 -4 -18 4 -26 17 -19 28 -10 44 10 18 11 -15 12 -13 1 11 -8 20 -14 24
-20 15 -6 -10 -8 -9 -8 4 0 24 15 30 30 13 7 -8 20 -15 29 -14 13 0 14 1 1 6
-8 3 -23 13 -33 21 -16 14 -19 14 -27 2 -6 -8 -10 -13 -11 -10 0 3 -2 13 -4
23 -2 13 1 16 15 12 10 -3 24 1 32 8 7 8 21 13 30 11 11 -1 15 3 11 13 -4 10
-8 11 -13 3 -4 -6 -7 9 -6 33 1 25 4 43 7 41 4 -2 6 7 5 21 -1 18 -5 24 -16
20 -11 -5 -12 -3 -3 6 14 14 34 3 27 -15 -3 -7 2 -18 10 -25 12 -10 14 -9 12
11 -1 13 -6 29 -10 36 -4 7 -4 12 1 12 4 0 1 5 -7 10 -8 5 -10 10 -4 10 26 0
49 -27 35 -44 -11 -13 -11 -19 -1 -31 13 -15 30 -12 30 6 0 6 -4 7 -10 4 -5
-3 -10 -1 -10 4 0 6 4 11 9 11 16 0 23 -20 12 -34 -6 -7 -8 -16 -4 -19 3 -4 1
-7 -5 -7 -7 0 -12 4 -12 9 0 5 -11 9 -25 9 -13 -1 -22 -4 -19 -9 3 -5 1 -9 -5
-9 -8 0 -8 -16 -1 -40 1 -3 6 4 11 15 8 17 9 16 4 -6 -5 -27 19 -59 33 -44 4
4 1 10 -5 12 -7 3 -13 9 -13 15 0 6 6 6 15 -2 8 -7 15 -8 15 -2 0 5 -7 15 -15
22 -8 7 -15 18 -15 24 0 6 6 3 14 -6 12 -16 14 -16 29 0 9 9 17 11 17 5 0 -6
-7 -14 -15 -17 -18 -6 -4 -46 16 -46 6 0 7 5 3 12 -4 7 -3 8 5 4 6 -4 8 -12 5
-18 -5 -7 -1 -9 9 -5 12 4 14 2 10 -10 -4 -11 -2 -14 5 -9 6 3 16 -2 22 -13
15 -29 -24 -65 -53 -50 -15 9 -18 8 -12 -2 5 -7 4 -10 -3 -5 -6 3 -13 2 -17
-3 -12 -21 -35 0 -24 21 8 15 8 19 -1 13 -7 -4 -10 -1 -8 10 2 12 -5 19 -19
21 -13 2 -23 -1 -23 -7 0 -5 4 -8 9 -5 14 9 21 -20 8 -35 -10 -11 -9 -11 6 0
10 8 17 9 17 3 0 -6 -4 -14 -10 -17 -5 -3 -10 -14 -9 -23 0 -16 1 -16 7 0 5
13 11 15 22 7 11 -8 12 -12 3 -16 -7 -2 -13 -10 -13 -16 1 -7 10 -1 20 12 15
17 20 19 20 8 0 -9 -5 -19 -10 -22 -19 -12 -10 -24 18 -23 46 1 54 -1 46 -14
-4 -7 -3 -10 1 -5 5 4 19 0 33 -9 14 -9 21 -11 17 -4 -6 9 0 11 23 8 17 -2 29
-1 26 4 -3 4 2 11 10 14 9 3 16 10 16 16 0 5 -4 7 -8 4 -4 -2 -14 -1 -22 5
-10 6 -11 9 -2 9 17 0 15 27 -3 34 -17 6 -21 -9 -5 -17 6 -3 5 -4 -2 -3 -7 1
-14 15 -15 30 -1 18 2 26 10 23 7 -2 24 3 39 11 28 16 65 2 52 -19 -3 -5 0 -9
5 -9 15 0 14 13 -1 29 -11 11 -9 12 11 6 15 -4 21 -3 17 3 -3 5 2 16 12 23 15
13 16 12 3 -3 -8 -11 -9 -18 -3 -18 6 0 14 5 17 10 5 8 11 7 21 -1 11 -9 14
-7 14 10 0 15 -4 20 -12 15 -10 -6 -10 -5 0 8 10 12 9 18 -3 28 -8 7 -13 16
-10 20 6 9 -12 23 -33 26 -7 2 -11 -3 -9 -9 3 -7 10 -11 16 -9 6 1 11 -2 11
-7 0 -6 -9 -9 -20 -8 -10 1 -17 3 -14 6 2 2 -8 12 -23 22 -27 18 -43 17 -43
-2 0 -6 5 -7 10 -4 15 9 40 -14 33 -31 -3 -8 -10 -14 -15 -14 -7 0 -6 5 1 13
11 14 5 27 -11 27 -5 0 -7 -4 -3 -9 11 -20 -15 -21 -32 -2 -9 11 -21 17 -26
14 -6 -3 -7 -1 -3 6 6 9 11 9 24 -1 13 -11 14 -11 10 2 -9 26 11 52 35 45 21
-6 22 -6 3 9 -11 9 -16 16 -10 17 5 0 17 2 26 4 10 2 16 -2 15 -7 -1 -6 4 -13
12 -16 8 -3 11 0 7 7 -4 6 -2 11 4 11 6 0 9 4 6 9 -7 11 20 8 31 -3 4 -4 4 -6
-2 -4 -14 4 -57 -40 -45 -47 5 -3 16 5 24 17 9 12 16 17 16 10 0 -6 6 -11 13
-10 6 2 12 -5 12 -15 0 -21 25 -38 61 -42 18 -2 24 2 20 11 -3 8 1 14 9 14 8
0 15 5 15 11 0 5 -6 7 -12 3 -9 -5 -9 -2 1 9 7 9 11 17 7 17 -3 0 -1 11 4 25
6 16 6 27 -2 31 -7 4 -8 3 -4 -4 4 -7 2 -12 -3 -12 -11 0 -15 15 -11 35 1 6
-2 7 -5 3 -10 -10 -47 11 -40 22 3 5 1 11 -4 14 -5 4 -13 1 -17 -5 -5 -8 -3
-9 6 -4 8 5 11 4 6 -3 -3 -6 3 -17 15 -26 22 -15 22 -15 1 -13 -11 0 -19 4
-16 8 2 4 -2 11 -9 17 -13 11 -17 82 -4 82 4 0 10 0 13 0 4 0 0 -8 -7 -17 -13
-17 -12 -17 4 -4 11 8 16 22 14 33 -3 10 -1 16 3 13 24 -15 18 20 -9 54 -17
21 -27 41 -23 45 4 4 3 7 -3 6 -5 -1 -12 -1 -15 0 -10 3 -45 11 -57 12 -9 1
-10 5 -2 15 9 10 5 12 -19 9 -28 -3 -30 -2 -20 20 6 13 16 20 22 17 6 -4 5 1
-3 10 -13 16 -37 14 -26 -2 8 -13 -21 -45 -34 -37 -6 4 -8 12 -5 18 5 7 2 9
-8 6 -8 -4 -21 -2 -29 3 -9 5 -4 7 16 5 17 -1 29 -8 27 -14 -3 -17 15 -15 22
3 3 8 1 15 -5 15 -6 0 -8 4 -5 9 4 5 -5 8 -19 6 -19 -2 -25 2 -26 19 l0 21 -9
-21 c-10 -25 -30 -41 -30 -25 0 6 4 11 8 11 5 0 9 7 9 15 0 8 -4 12 -9 9 -4
-3 -8 -1 -8 4 0 21 -36 0 -37 -21 -2 -20 -1 -21 11 -4 7 9 17 17 21 17 4 0 2
-7 -5 -15 -6 -8 -9 -19 -5 -24 3 -6 2 -18 -3 -27 -8 -15 -10 -15 -15 0 -4 10
-3 15 3 11 6 -3 10 -2 10 3 0 8 -22 22 -35 22 -13 0 15 -61 42 -90 25 -27 30
-22 11 10 -17 26 -4 35 24 16 12 -9 18 -16 12 -16 -5 0 -15 5 -22 12 -9 9 -12
9 -12 1 0 -7 5 -15 10 -18 15 -9 12 -38 -2 -32 -7 3 -20 8 -29 12 -11 4 -19 0
-23 -11 -5 -13 -4 -15 7 -5 23 19 43 -12 24 -39 -7 -11 -17 -17 -22 -12 -4 4
-5 0 -3 -8 3 -8 12 -13 19 -12 8 2 11 0 7 -4 -4 -4 -3 -12 2 -19 7 -8 5 -12
-5 -12 -8 0 -12 4 -9 9 3 4 0 8 -7 8 -6 0 -9 -8 -6 -20 5 -20 -2 -19 -31 3
-11 8 -11 12 0 18 9 6 9 9 1 9 -25 0 -25 -24 0 -45 15 -11 27 -24 27 -29 0 -4
-7 0 -16 8 -11 12 -20 13 -34 6 -24 -13 -30 -13 -30 0 0 6 3 9 8 9 18 -3 35 2
28 8 -30 31 -68 -8 -38 -40 16 -17 18 -26 11 -37 -9 -13 -10 -12 -6 2 3 9 -2
22 -10 30 -15 11 -16 11 -10 -4 3 -10 4 -18 0 -18 -3 0 -12 8 -20 18 -14 16
-14 16 -9 0 3 -10 1 -18 -5 -18 -6 0 -9 8 -7 18 2 10 11 16 23 14 19 -2 19 -2
2 12 -16 13 -16 14 4 19 20 5 21 8 8 23 -12 16 -12 17 1 9 21 -13 40 -15 40
-4 0 5 -4 9 -10 9 -5 0 -10 8 -10 18 0 13 -2 14 -9 4 -6 -11 -10 -10 -15 4 -3
9 -4 19 -1 22 3 3 5 0 5 -6 0 -7 3 -11 8 -11 16 3 32 -1 31 -8 -3 -20 2 -24
16 -13 12 10 18 10 30 0 18 -15 20 1 3 18 -7 7 -8 12 -2 12 22 0 48 27 34 35
-8 5 -11 4 -7 -2 10 -15 -29 -23 -44 -9 -11 9 -11 8 -1 -5 10 -13 9 -19 -2
-28 -10 -8 -16 -9 -21 -1 -3 5 -1 10 6 10 9 0 9 3 0 14 -9 10 -9 20 1 41 9 21
9 28 -1 34 -7 5 -12 11 -11 15 3 14 -8 31 -16 23 -5 -4 -3 -12 5 -16 10 -6 9
-10 -4 -15 -23 -9 -25 -8 -19 7 3 8 -3 20 -12 28 -12 9 -15 10 -10 2 4 -7 3
-13 -3 -13 -15 0 -21 14 -12 29 10 15 22 13 36 -6 12 -16 60 11 50 28 -3 5 0
6 8 3 8 -3 20 2 27 11 15 18 0 21 -18 3 -8 -8 -12 -9 -12 -1 0 6 3 13 8 16 4
2 2 2 -5 1 -7 -2 -15 1 -18 6 -10 16 -21 11 -33 -12 -8 -18 -11 -19 -11 -5 -1
9 -5 17 -11 17 -5 0 -7 -8 -4 -17 5 -16 4 -16 -6 -3 -10 13 -11 12 -6 -5 5
-17 4 -18 -6 -5 -14 16 -68 24 -68 10 0 -5 8 -7 18 -5 10 2 25 -1 33 -6 8 -5
12 -9 9 -10 -3 0 -13 -2 -22 -4 -10 -2 -18 1 -18 6 0 6 -5 7 -11 3 -8 -5 -8
-9 1 -14 9 -5 9 -9 1 -14 -6 -4 -11 -2 -11 3 0 6 -8 3 -18 -6 -16 -16 -16 -19
-2 -31 10 -9 10 -11 1 -6 -9 5 -12 3 -7 -5 4 -6 3 -17 -2 -24 -5 -7 -8 -20 -7
-30 2 -10 -1 -14 -7 -11 -7 4 -8 2 -4 -5 4 -7 2 -10 -5 -9 -6 2 -13 -2 -16 -8
-2 -6 3 -11 12 -11 8 0 15 3 15 7 0 4 7 7 15 7 9 0 14 -5 12 -11 -2 -6 -14
-10 -25 -10 -28 2 -28 -3 1 -26 12 -10 19 -22 14 -26 -4 -4 -14 1 -22 12 -10
13 -14 14 -12 4 2 -8 2 -12 0 -7 -3 4 -11 7 -18 7 -8 0 -17 5 -21 11 -4 8 0 9
15 4 16 -5 20 -3 15 9 -3 9 -9 14 -14 11 -4 -2 -6 7 -4 20 1 14 -3 25 -9 25
-5 0 -7 3 -4 6 4 4 13 1 22 -6 8 -7 15 -8 15 -2 0 15 -23 28 -47 26 -12 0 -20
2 -17 7 2 4 12 5 22 2 15 -6 15 -5 3 10 -9 11 -10 17 -2 17 6 0 11 5 11 11 0
6 -7 9 -15 5 -20 -7 -19 4 3 21 14 12 14 14 1 10 -9 -3 -16 1 -16 9 0 12 5 11
25 -2 22 -15 26 -15 41 1 15 16 14 17 -6 10 -15 -4 -23 -2 -23 5 0 6 5 8 10 5
6 -3 10 2 10 11 0 16 1 16 15 -2 14 -19 15 -19 34 5 10 13 23 21 29 17 6 -3
13 2 17 13 9 28 31 45 41 30 4 -7 3 -9 -3 -6 -6 4 -10 -3 -10 -17 -1 -21 2
-23 17 -14 18 12 20 24 7 45 -6 9 -3 11 9 6 11 -4 15 -3 10 5 -3 6 -2 13 3 17
5 3 9 14 8 25 -1 10 -5 16 -11 13 -5 -4 -7 1 -3 10 3 8 -1 21 -9 27 -8 7 -14
9 -14 5 0 -4 -7 -2 -15 5 -12 10 -19 10 -27 2 -17 -17 -33 -15 -19 1 6 8 8 17
4 20 -14 15 -20 5 -19 -31 1 -22 6 -39 13 -39 6 0 9 6 6 13 -2 6 1 15 8 20 9
5 10 2 6 -9 -3 -9 -1 -19 5 -23 7 -5 8 -2 3 6 -6 9 -4 11 5 5 8 -5 11 -4 7 2
-3 5 0 10 8 10 8 0 16 -6 19 -13 3 -8 0 -11 -10 -7 -10 4 -13 0 -8 -13 4 -14
3 -16 -4 -5 -8 11 -10 11 -15 0 -4 -11 -6 -11 -6 -1 -1 7 -6 10 -11 7 -6 -4
-7 -12 -3 -18 10 -16 13 -41 5 -32 -4 4 -8 11 -8 16 -1 5 -2 12 -3 15 0 4 -9
0 -18 -7 -16 -12 -17 -12 -5 2 10 13 9 19 -3 29 -8 7 -12 17 -8 24 12 18 12
36 2 36 -6 0 -7 5 -4 10 3 6 -3 10 -14 10 -12 0 -21 4 -21 8 0 18 -54 72 -72
72 -11 0 -16 5 -13 10 6 10 -7 14 -32 11 -7 -1 -13 3 -13 9 0 5 -8 10 -17 11
-15 0 -15 2 2 9 19 8 18 9 -4 9 -21 1 -22 3 -10 18 13 15 12 15 -11 3 -14 -7
-22 -9 -18 -5 4 5 2 15 -5 24 -11 14 -10 14 6 2 15 -12 17 -12 11 3 -7 19 -30
21 -38 4 -3 -7 -3 -3 0 10 4 16 1 22 -12 22 -10 0 -15 3 -11 6 9 9 -21 36 -32
29 -6 -3 -8 4 -6 15 2 11 1 19 -3 17 -4 -3 -16 4 -27 15 -20 19 -20 19 0 13
11 -3 5 2 -12 11 -18 10 -33 24 -33 31 0 7 -9 18 -20 25 -11 7 -20 19 -20 26
0 8 -5 10 -12 6 -7 -5 -9 -2 -5 8 4 11 -1 18 -15 21 -11 3 -18 9 -15 14 2 4
-5 17 -16 28 -11 11 -16 14 -12 6 5 -9 4 -12 -3 -7 -6 4 -8 14 -5 23 5 12 2
15 -10 10 -12 -4 -14 -2 -10 10 5 12 3 14 -7 8 -10 -6 -12 -4 -7 8 4 11 1 17
-8 17 -13 0 -31 36 -26 54 1 5 -5 4 -13 -4 -14 -11 -16 -9 -16 9 0 12 -7 24
-16 28 -8 3 -13 12 -9 21 4 12 3 13 -10 2 -13 -11 -14 -10 -9 5 5 13 4 16 -4
11 -11 -6 -17 5 -13 27 1 7 -15 11 -33 8 -5 -1 -3 6 5 15 9 12 9 15 2 10 -8
-4 -13 -2 -13 4 0 6 -4 8 -10 5 -6 -3 -7 1 -4 9 3 9 1 16 -6 16 -6 0 -8 5 -4
13 5 8 2 7 -9 -2 -15 -12 -17 -12 -11 4 6 14 4 16 -6 10 -10 -6 -12 -3 -8 13
4 12 3 20 -2 17 -4 -2 -16 7 -26 20 -10 14 -24 25 -31 25 -7 0 -13 5 -13 11 0
5 6 7 13 3 8 -5 8 -2 -2 9 -7 9 -19 17 -27 17 -8 0 -11 8 -9 21 4 18 2 19 -12
7 -10 -8 -14 -8 -10 -1 4 7 0 16 -10 22 -10 6 -12 11 -6 11 7 0 -3 16 -22 36
-19 20 -35 42 -35 50 0 8 -7 14 -15 14 -8 0 -15 7 -15 15 0 9 -7 18 -15 21 -8
4 -12 10 -9 15 3 5 -2 9 -10 9 -10 0 -13 7 -11 21 3 12 2 19 -2 16 -10 -11
-42 13 -37 27 3 9 -3 17 -17 21 -15 5 -18 9 -9 15 9 6 7 10 -8 15 -12 3 -21 9
-21 13 3 20 -2 32 -11 27 -5 -3 -10 1 -10 10 0 9 -4 14 -9 11 -5 -3 -11 3 -14
14 -4 14 -11 18 -24 14 -15 -5 -15 -4 -3 5 13 9 12 12 -5 26 -11 9 -14 13 -6
9 10 -5 12 -3 7 5 -5 7 -15 10 -23 7 -8 -3 -11 -1 -8 4 4 6 -7 23 -24 39 -17
16 -27 31 -24 35 3 3 1 6 -6 6 -7 0 -9 5 -6 10 3 6 -1 10 -9 10 -10 0 -13 6
-9 17 4 11 3 14 -5 9 -7 -4 -12 -2 -12 4 0 6 -5 8 -12 4 -8 -5 -9 -2 -5 9 4
11 1 17 -8 17 -7 0 -17 5 -21 12 -4 7 -3 8 4 4 8 -5 10 -2 6 8 -3 9 -9 16 -13
16 -4 0 -16 7 -27 16 -10 8 -12 13 -4 9 10 -4 9 -2 -2 8 -10 8 -18 22 -18 31
0 9 -7 16 -15 16 -9 0 -20 12 -25 26 -6 14 -14 22 -20 19 -6 -4 -7 1 -3 11 5
13 3 16 -10 11 -12 -4 -14 -2 -10 10 4 11 2 14 -5 9 -11 -6 -17 12 -13 37 1 5
-3 6 -9 2 -5 -3 -10 -1 -10 5 0 6 -4 8 -10 5 -5 -3 -10 3 -10 15 0 12 -4 18
-10 15 -6 -3 -10 4 -10 17 0 18 -2 20 -10 8 -9 -13 -10 -13 -10 0 0 9 -9 23
-20 33 -12 10 -18 21 -16 26 3 5 -4 11 -15 14 -15 4 -20 11 -15 22 3 9 2 14
-3 11 -5 -3 -12 1 -15 9 -3 8 -11 14 -18 13 -7 -2 -13 3 -14 10 -1 6 -2 17 -3
23 0 5 -5 7 -11 4 -5 -3 -12 6 -16 21 -4 17 -9 22 -14 14 -8 -13 -26 26 -21
45 1 5 0 7 -4 4 -9 -10 -52 34 -47 49 3 8 -2 10 -12 6 -11 -4 -16 -1 -16 10 0
10 -9 16 -22 16 -19 0 -20 2 -8 10 8 5 10 10 4 10 -5 0 -19 7 -30 16 -10 8
-13 13 -6 9 6 -3 12 -1 12 4 0 6 -9 11 -21 11 -11 0 -18 4 -15 9 3 4 -2 17
-10 27 -9 10 -12 13 -8 5 5 -9 3 -12 -4 -7 -7 4 -12 14 -12 23 0 9 -3 13 -7
10 -3 -4 -17 6 -31 21 -14 15 -28 26 -31 25 -10 -2 -26 21 -26 37 0 8 -11 20
-23 26 -15 7 -20 14 -13 18 17 11 13 26 -6 19 -10 -4 -14 -2 -9 5 3 6 -2 15
-11 21 -10 6 -14 11 -9 11 5 0 -1 12 -15 27 -13 15 -16 21 -6 14 15 -12 17
-12 11 3 -6 15 -17 20 -37 17 -4 -1 -2 9 4 21 12 22 11 22 -6 8 -17 -14 -18
-14 -6 7 10 20 9 22 -6 17 -17 -5 -17 -5 0 9 18 15 24 33 8 22 -5 -3 -12 -1
-16 5 -3 5 -2 10 4 10 12 0 5 40 -10 54 -9 8 -9 6 0 -11 11 -21 -2 -44 -16
-29 -4 3 -1 6 6 6 8 0 9 5 2 18 -7 13 -7 22 0 29 10 10 -53 83 -73 83 -5 0 -6
6 -2 13 6 9 4 9 -8 -1 -14 -11 -17 -10 -23 8 -5 15 -13 20 -26 17 -10 -3 -18
-2 -17 2 3 25 -4 41 -14 36 -7 -4 -6 0 3 7 14 12 14 15 2 27 -11 10 -12 16 -4
24 6 6 11 15 11 21 0 5 -3 6 -6 3 -13 -12 -43 13 -37 30 5 13 2 15 -16 10 -18
-4 -20 -3 -10 9 9 11 8 14 -8 14 -10 0 -25 9 -33 20 -8 11 -24 20 -35 20 -16
0 -17 2 -5 10 12 8 11 10 -7 10 -13 0 -23 6 -23 14 0 8 -9 18 -20 21 -11 3
-20 13 -20 21 0 8 -4 14 -10 14 -5 0 -10 6 -10 14 0 16 -27 29 -42 19 -7 -3
-8 -1 -4 5 4 7 1 12 -9 12 -9 0 -23 7 -32 15 -8 8 -19 13 -24 10 -5 -4 -9 -1
-9 4 0 6 -7 11 -16 11 -8 0 -12 5 -9 10 3 6 -3 10 -14 10 -12 0 -21 5 -21 11
0 6 -7 8 -16 5 -11 -4 -18 1 -21 14 -3 11 -9 18 -13 15 -4 -3 -10 4 -13 15 -3
13 -10 18 -21 14 -11 -4 -16 -1 -16 11 0 11 -5 15 -15 11 -9 -3 -19 3 -26 16
-8 15 -8 19 0 14 7 -5 10 1 7 16 -3 13 -5 31 -5 41 -1 11 -5 15 -13 11 -8 -5
-9 -2 -5 10 4 9 3 15 -2 11 -5 -3 -11 -2 -14 2 -2 5 -2 2 0 -6 3 -11 1 -12
-12 -1 -13 11 -15 8 -15 -23 0 -19 -3 -37 -7 -40 -5 -2 -2 -2 4 -1 7 2 18 -6
24 -18 9 -16 8 -19 -3 -12 -20 13 -48 15 -48 4 0 -6 -4 -10 -10 -10 -5 0 -6 8
-3 18 6 15 5 16 -12 2 -19 -15 -19 -14 -1 14 11 18 13 26 5 21 -8 -4 -4 2 9
14 12 12 22 33 22 47 l0 25 -22 -21 c-12 -11 -18 -23 -14 -27 4 -4 11 -1 16 7
6 10 10 11 10 3 0 -13 -34 -35 -42 -27 -3 2 -4 -6 -3 -19 4 -34 -22 -30 -62
10 -18 18 -33 29 -33 26 0 -3 -9 4 -20 17 -11 13 -20 27 -20 32 0 4 -3 7 -7 5
-5 -1 -9 3 -11 8 -2 6 -10 14 -18 18 -8 4 -14 15 -14 23 0 8 -4 12 -10 9 -5
-3 -10 0 -10 8 0 8 -9 22 -20 32 -11 10 -20 24 -20 31 0 7 -9 16 -21 19 -11 4
-25 17 -31 31 -6 13 -15 21 -19 18 -5 -3 -9 0 -9 6 0 13 -57 70 -70 70 -5 0
-14 8 -19 19 -6 10 -24 21 -41 25 -20 4 -29 10 -24 17 4 7 3 9 -3 6 -6 -4 -23
5 -37 18 -15 14 -31 25 -36 25 -6 0 -15 9 -22 20 -7 11 -18 20 -25 20 -7 0
-13 5 -13 10 0 6 -7 10 -15 10 -8 0 -15 7 -15 17 0 9 -3 14 -6 10 -3 -3 -15 3
-27 14 -11 10 -27 19 -34 19 -8 0 -11 5 -8 10 4 6 3 10 -2 9 -22 -4 -43 2 -38
11 5 9 -15 15 -38 11 -4 0 -6 5 -5 11 2 7 -7 14 -19 16 -13 2 -23 8 -23 13 0
6 -4 8 -8 5 -5 -3 -15 4 -22 15 -8 10 -22 19 -32 19 -10 0 -18 5 -18 10 0 6
-7 10 -15 10 -8 0 -15 5 -15 11 0 5 -4 8 -9 4 -5 -3 -13 0 -16 6 -4 5 -13 8
-20 5 -14 -5 -39 17 -30 26 3 3 -2 5 -12 5 -35 0 -44 3 -38 13 5 8 -13 14 -36
12 -4 -1 -14 7 -24 18 -9 10 -23 16 -31 13 -8 -3 -22 1 -31 8 -9 8 -14 9 -10
2 5 -7 0 -9 -13 -6 -11 3 -18 9 -15 13 4 7 -58 24 -93 25 -7 0 -17 7 -22 15
-8 12 -10 12 -10 1 0 -11 -3 -11 -15 -1 -8 7 -15 9 -15 6 0 -4 -9 -2 -19 4
-13 6 -21 6 -23 0 -2 -6 -14 -4 -30 4 -22 12 -26 12 -22 1 4 -10 -1 -12 -15
-8 -11 3 -18 9 -15 14 6 10 0 12 -9 3z m-2180 -2499 c3 -8 10 -12 17 -8 6 3 7
2 3 -3 -5 -5 -14 -9 -20 -9 -7 -1 -11 -6 -9 -13 3 -15 -14 -16 -23 -1 -4 6 1
16 10 23 16 11 16 13 1 13 -9 0 -16 -4 -16 -9 0 -5 -5 -6 -12 -2 -7 4 -8 3 -4
-4 5 -8 2 -10 -8 -6 -9 3 -16 1 -16 -6 0 -6 5 -8 10 -5 6 3 10 2 10 -4 0 -13
-17 -23 -23 -14 -2 5 -2 2 0 -5 1 -8 -2 -10 -9 -6 -7 5 -8 3 -3 -6 5 -8 4 -11
-2 -7 -5 3 -10 0 -10 -8 0 -8 5 -12 11 -9 6 3 2 -2 -8 -10 -19 -15 -19 -16 -1
-16 18 0 13 -14 -6 -16 -19 -3 -20 -4 -14 -14 5 -8 11 -7 21 1 11 9 15 8 20
-5 3 -9 11 -13 16 -10 6 4 5 9 -3 14 -21 13 -22 50 -1 44 13 -5 14 -4 3 4 -9
7 -10 12 -2 16 6 4 14 0 17 -8 3 -9 10 -13 16 -10 5 3 1 13 -9 21 -17 14 -17
14 2 9 19 -6 19 -5 2 8 -10 8 -14 17 -9 20 23 14 37 -32 19 -61 -5 -7 -5 -19
-1 -25 6 -10 4 -10 -7 0 -20 18 -31 14 -19 -7 9 -19 -1 -35 -22 -36 -11 0 -22
-15 -10 -15 16 0 6 -40 -15 -57 -16 -13 -16 -14 -1 -9 22 7 34 -12 19 -27 -9
-9 -11 -8 -5 6 6 16 4 16 -20 6 -29 -14 -36 -32 -8 -23 10 4 13 3 6 -3 -6 -4
-10 -16 -8 -26 1 -11 -1 -16 -4 -12 -4 4 -7 12 -7 18 0 5 -7 12 -15 14 -9 3
-11 1 -5 -4 6 -4 11 -24 12 -43 1 -23 -1 -30 -7 -20 -5 8 -6 18 -3 24 4 5 -1
7 -12 2 -15 -5 -16 -4 -5 9 10 12 10 18 0 30 -7 8 -10 16 -6 16 6 1 18 5 34 8
4 2 -2 6 -13 11 l-20 9 20 1 c20 1 20 1 1 15 -11 8 -14 15 -8 15 7 0 12 5 12
11 0 5 -5 7 -12 3 -7 -5 -8 -3 -2 7 4 8 10 23 11 33 2 11 8 25 14 33 6 7 8 13
5 13 -4 0 0 10 8 21 8 12 12 28 9 35 -3 8 0 14 5 14 10 0 28 38 24 52 -1 4 6
4 15 1 9 -4 14 -2 11 3 -4 5 7 10 23 11 19 1 32 -3 36 -12z m6883 -2287 c0 -5
-4 -6 -10 -3 -5 3 -10 -1 -10 -10 0 -10 5 -13 13 -9 8 5 8 3 -2 -9 -7 -9 -17
-14 -22 -11 -5 3 -10 0 -10 -5 -2 -13 -5 -28 -9 -38 -5 -13 -8 -27 -9 -44 0
-9 -11 -21 -23 -27 -21 -10 -21 -11 -3 -9 11 1 25 11 32 22 11 19 12 19 10 -2
-1 -13 -4 -23 -8 -23 -4 0 -6 -8 -4 -17 1 -10 7 -17 11 -16 14 2 9 -93 -5
-110 -7 -9 -24 -14 -39 -12 -15 1 -31 0 -37 -3 -19 -12 -57 -13 -50 -2 3 6 10
8 15 5 10 -6 35 23 27 32 -4 3 -20 6 -37 5 -27 -1 -35 7 -31 31 1 5 -8 6 -19
2 -11 -3 -20 -3 -21 2 0 4 -2 18 -3 31 -3 21 -1 21 20 7 32 -21 44 -18 17 4
-21 17 -21 20 -5 27 9 4 20 6 25 6 4 -1 7 5 7 14 0 9 -5 12 -12 8 -7 -4 -8 -3
-4 4 4 7 9 20 11 29 2 10 6 25 10 35 4 11 1 16 -11 15 -9 -1 -19 5 -21 13 -4
13 -3 13 5 1 9 -12 13 -12 26 -2 18 15 36 6 35 -17 -1 -15 -2 -15 -6 1 -2 9
-8 17 -13 17 -5 0 -7 -7 -4 -15 3 -8 2 -20 -2 -27 -17 -26 -16 -52 1 -38 8 7
12 17 8 23 -3 5 -1 7 5 3 5 -3 12 -3 15 1 2 5 2 2 0 -5 -1 -7 2 -10 8 -6 6 3
8 15 6 26 -4 12 -1 18 6 15 7 -2 11 -14 9 -25 -2 -12 1 -22 6 -22 5 0 8 11 7
25 -2 14 1 27 6 31 5 3 9 0 9 -5 0 -6 4 -11 9 -11 4 0 8 12 7 27 -1 19 4 28
14 28 8 0 15 9 16 20 1 11 2 23 3 27 2 11 31 -2 31 -14z"/>
<path d="M8105 2934 c-9 -14 -22 -23 -29 -21 -17 7 -62 -18 -48 -27 6 -4 9
-13 5 -22 -5 -13 -8 -13 -23 1 -17 16 -19 15 -30 -5 -7 -13 -8 -20 -2 -16 6 3
17 -3 25 -14 10 -14 20 -18 33 -13 17 6 17 5 5 -10 -7 -9 -10 -17 -6 -17 4 0
15 10 25 22 16 20 20 21 35 8 16 -14 17 -13 11 6 -4 14 -1 26 9 34 8 7 12 16
9 21 -3 5 2 12 10 15 12 5 13 9 3 19 -7 7 -16 10 -21 7 -5 -3 -6 0 -2 7 5 8
12 9 20 2 6 -5 17 -7 23 -3 8 5 7 10 -1 17 -21 18 -34 15 -51 -11z"/>
</g>
</svg>
