<?xml version="1.0" standalone="no"?>
<!DOCTYPE svg PUBLIC "-//W3C//DTD SVG 20010904//EN"
 "http://www.w3.org/TR/2001/REC-SVG-20010904/DTD/svg10.dtd">
<svg version="1.0" xmlns="http://www.w3.org/2000/svg"
 width="1024.000000pt" height="1024.000000pt" viewBox="0 0 1024.000000 1024.000000"
 preserveAspectRatio="xMidYMid meet">
<metadata>
Created by potrace 1.16, written by Peter Selinger 2001-2019
</metadata>
<g transform="translate(0.000000,1024.000000) scale(0.100000,-0.100000)"
fill="#000000" stroke="none">
<path d="M3524 8112 c3 -6 -11 -9 -38 -8 -24 1 -42 -2 -40 -6 3 -5 1 -8 -5 -8
-5 0 -13 5 -16 10 -5 8 -11 8 -20 0 -10 -8 -14 -7 -18 2 -3 8 -6 6 -6 -6 -1
-15 -4 -16 -15 -7 -10 8 -16 9 -21 1 -3 -6 -10 -8 -15 -5 -5 3 -11 1 -15 -4
-3 -6 -13 -7 -22 -4 -10 4 -14 2 -10 -4 4 -6 -3 -11 -16 -11 -20 -1 -54 -7
-67 -12 -3 -1 -8 -2 -12 -1 -5 0 -8 -5 -8 -11 0 -9 -4 -8 -11 2 -8 11 -12 12
-16 2 -2 -6 -9 -10 -14 -6 -5 3 -9 1 -9 -4 0 -5 -9 -12 -20 -15 -11 -3 -20 0
-20 6 0 7 -5 5 -10 -3 -8 -13 -10 -13 -10 -1 0 11 -4 10 -16 -5 -8 -10 -12
-13 -8 -5 5 10 3 12 -7 5 -14 -9 -19 -10 -40 -13 -5 0 -7 -6 -3 -13 4 -6 3 -8
-3 -5 -6 4 -26 -2 -46 -12 -20 -10 -34 -14 -30 -7 4 7 1 6 -9 -1 -8 -7 -18
-10 -21 -6 -4 3 -7 1 -7 -6 0 -7 -5 -9 -10 -6 -6 3 -13 -1 -16 -10 -4 -9 -13
-14 -20 -11 -8 3 -14 1 -14 -4 0 -6 -5 -10 -11 -10 -6 0 -17 -6 -24 -12 -44
-40 -122 -81 -135 -73 -6 4 -9 3 -8 -2 2 -4 -2 -10 -7 -12 -5 -3 -16 -11 -23
-18 -8 -7 -17 -11 -22 -8 -4 3 -10 -2 -14 -10 -3 -8 -13 -15 -21 -15 -10 0
-13 -5 -9 -11 4 -7 2 -10 -6 -7 -7 2 -26 -9 -42 -24 -17 -15 -35 -25 -42 -21
-6 3 -8 3 -4 -1 6 -8 -26 -46 -38 -46 -4 0 -17 -10 -29 -22 -12 -13 -41 -40
-64 -62 -22 -21 -41 -43 -41 -48 0 -5 -4 -7 -9 -3 -5 3 -12 -4 -16 -15 -3 -11
-11 -20 -16 -20 -5 0 -9 -5 -9 -11 0 -16 -26 -39 -35 -31 -5 4 -5 2 -2 -4 6
-11 -33 -50 -46 -46 -5 1 -6 -2 -3 -7 4 -5 -2 -14 -11 -20 -10 -6 -14 -11 -9
-11 5 0 -6 -13 -24 -30 -18 -16 -30 -30 -26 -30 4 0 -5 -11 -20 -25 -15 -14
-24 -25 -20 -25 4 0 -5 -12 -19 -27 -14 -15 -25 -32 -25 -38 0 -6 -13 -25 -29
-42 -16 -18 -26 -34 -23 -37 3 -3 1 -6 -5 -6 -6 0 -18 -16 -27 -35 -10 -20
-22 -33 -27 -29 -5 3 -8 2 -7 -3 4 -14 -13 -53 -23 -53 -5 0 -9 -5 -9 -10 0
-6 -11 -21 -25 -34 -13 -13 -22 -26 -18 -29 3 -4 1 -7 -5 -7 -7 0 -19 -18 -28
-40 -9 -22 -20 -40 -25 -40 -5 0 -9 -5 -9 -10 0 -6 -9 -20 -20 -32 -10 -12
-17 -25 -14 -30 3 -4 0 -8 -5 -8 -6 0 -11 -7 -11 -15 0 -8 -8 -15 -17 -15 -15
0 -16 -2 -3 -10 11 -7 11 -10 2 -10 -7 0 -10 -4 -7 -10 3 -5 1 -10 -5 -10 -6
0 -17 -15 -25 -34 -8 -19 -19 -37 -24 -41 -6 -3 -8 -12 -4 -20 3 -8 0 -15 -6
-15 -6 0 -10 -3 -10 -7 1 -5 0 -11 -1 -15 -1 -5 -3 -12 -4 -16 0 -5 -9 -16
-18 -26 -10 -10 -18 -23 -18 -29 0 -7 4 -6 10 3 6 9 10 10 10 3 0 -7 -6 -16
-13 -20 -20 -12 -87 -99 -87 -112 0 -6 -5 -11 -11 -11 -5 0 -7 -4 -4 -10 3 -5
3 -10 -2 -10 -4 0 -17 -12 -27 -27 -11 -14 -13 -23 -6 -18 9 6 11 4 5 -4 -4
-7 -16 -10 -27 -8 -16 4 -17 3 -7 -9 9 -11 9 -14 -1 -14 -8 0 -11 -3 -8 -6 3
-3 -9 -21 -28 -39 -18 -19 -35 -40 -36 -46 -2 -7 -14 -24 -28 -37 -14 -13 -18
-21 -10 -17 10 4 9 1 -2 -8 -10 -8 -18 -19 -18 -26 0 -6 -4 -11 -9 -11 -8 0
-24 -37 -22 -53 1 -4 -5 -23 -13 -42 -9 -21 -11 -35 -5 -35 6 0 7 -5 4 -10 -4
-6 -12 -7 -18 -3 -7 4 -6 0 2 -10 8 -11 9 -17 3 -17 -6 0 -9 -7 -6 -15 4 -8 1
-15 -7 -15 -7 0 -9 -3 -6 -7 4 -3 1 -13 -6 -21 -10 -13 -9 -14 2 -8 9 6 8 1
-3 -16 -9 -14 -13 -28 -9 -31 3 -4 1 -7 -6 -7 -7 0 -9 -5 -6 -10 4 -6 -3 -26
-14 -45 -18 -32 -19 -35 -3 -35 16 -1 16 -1 -1 -11 -9 -6 -15 -14 -12 -20 4
-5 1 -9 -6 -9 -7 0 -10 -11 -7 -29 2 -17 1 -28 -4 -25 -4 3 -8 -2 -8 -10 0 -9
-6 -16 -12 -16 -10 0 -9 -3 1 -9 9 -6 10 -11 2 -15 -6 -4 -8 -12 -5 -18 4 -7
2 -8 -4 -4 -12 7 -16 -5 -13 -31 1 -7 -2 -13 -7 -13 -5 0 -9 -6 -10 -12 -2
-23 -7 -43 -15 -55 -5 -7 -5 -17 -2 -23 3 -5 2 -10 -3 -10 -6 0 -8 -10 -4 -22
3 -13 1 -19 -5 -15 -15 9 -20 -9 -18 -60 0 -24 -1 -43 -4 -43 -4 0 -6 -23 -6
-50 0 -28 -2 -50 -6 -50 -3 0 -5 -12 -4 -27 1 -16 -4 -40 -12 -55 -9 -19 -10
-28 -3 -28 7 0 8 -5 3 -12 -12 -21 -14 -48 -2 -48 8 0 8 -5 -1 -15 -7 -8 -8
-15 -3 -15 5 0 9 -10 10 -22 2 -21 21 -40 34 -32 4 2 9 -6 12 -17 5 -17 9 -19
25 -10 17 9 19 8 15 -9 -4 -15 0 -20 16 -20 18 0 25 -10 23 -31 -1 -4 7 -5 18
-2 11 3 17 10 13 17 -4 7 -1 6 9 -1 8 -7 18 -10 22 -6 4 4 11 1 16 -7 8 -13
10 -12 10 3 0 10 4 16 9 13 15 -9 42 5 34 18 -4 6 4 3 19 -6 19 -13 28 -14 37
-5 9 9 14 8 21 -3 8 -13 10 -13 10 2 0 9 10 20 23 24 12 4 25 12 29 18 6 8 8
7 8 -1 0 -7 4 -13 10 -13 5 0 6 7 3 17 -4 11 -3 14 5 9 7 -4 12 -2 12 6 0 9 3
9 10 -2 8 -13 10 -13 10 2 0 9 5 20 12 24 7 4 8 3 4 -4 -4 -7 -3 -12 3 -12 5
0 13 9 16 21 4 11 9 18 12 15 3 -3 12 2 20 10 8 8 19 11 25 8 7 -4 8 -2 4 4
-4 7 -1 12 9 12 9 0 13 4 10 10 -3 6 -1 10 5 10 6 0 8 6 4 13 -4 6 -4 9 1 5 4
-4 14 0 22 10 10 11 12 12 8 2 -4 -8 1 -6 10 5 9 11 21 20 28 20 7 1 11 7 9
14 -2 9 3 11 15 7 9 -4 14 -4 11 0 -10 9 42 75 53 68 5 -3 6 3 2 12 -5 13 -3
15 7 9 10 -6 12 -4 7 8 -4 11 -1 17 8 18 29 3 33 4 42 13 5 5 3 6 -4 2 -7 -4
-13 -4 -13 0 0 9 49 54 57 51 3 -1 7 6 9 17 1 10 8 24 15 30 9 8 10 6 5 -9 -6
-16 -5 -18 6 -7 7 7 13 17 13 22 0 5 9 16 20 25 11 9 15 14 9 11 -6 -3 -11 1
-11 9 0 11 5 12 20 3 15 -7 18 -7 15 3 -5 16 21 49 39 49 7 0 15 11 19 25 3
14 10 23 14 20 15 -9 33 26 34 64 1 31 4 37 18 33 10 -2 18 -8 18 -13 0 -5 -6
-6 -13 -3 -8 3 -14 -2 -14 -10 0 -8 6 -17 14 -20 7 -3 13 -1 13 5 0 5 14 15
31 21 22 8 27 13 18 19 -11 6 -10 9 4 15 9 3 14 10 11 15 -3 5 -1 9 3 9 17 0
8 55 -11 71 -17 14 -17 16 -3 22 11 4 14 2 10 -9 -3 -7 0 -14 7 -14 6 0 9 4 6
9 -4 5 0 12 6 14 10 4 10 6 1 6 -7 1 -10 8 -7 16 4 8 11 12 18 8 6 -4 5 1 -3
10 -7 9 -17 14 -22 11 -5 -3 -9 -1 -9 4 0 6 7 13 16 16 10 4 13 2 8 -6 -4 -7
-3 -8 4 -4 7 4 12 14 12 22 0 8 4 12 10 9 17 -10 11 7 -7 22 -10 8 -12 12 -6
8 17 -8 55 13 47 27 -4 5 0 14 7 19 12 7 12 10 1 18 -11 7 -10 9 3 14 10 5 14
3 9 -5 -5 -7 -3 -8 5 -4 7 5 10 14 7 22 -3 8 -1 15 4 15 6 1 15 2 21 3 13 1
39 36 39 50 -1 6 -7 0 -14 -13 -11 -19 -14 -21 -19 -7 -4 9 -2 16 3 16 6 0 10
7 10 15 0 8 5 14 11 13 6 -2 14 4 16 12 3 9 1 11 -4 5 -4 -5 -17 -11 -28 -13
-20 -3 -20 -2 -1 13 11 8 23 15 28 15 4 0 5 6 2 14 -3 8 4 24 15 35 19 19 19
25 -1 22 -4 0 -5 6 -1 14 5 13 7 13 19 -2 7 -10 14 -14 14 -9 0 5 10 0 23 -12
20 -19 24 -19 47 -6 14 9 17 13 8 10 -9 -3 -19 0 -22 7 -2 7 -5 4 -5 -6 -1
-10 -6 -15 -12 -11 -8 4 -8 9 0 17 6 6 11 16 11 21 0 6 -7 2 -15 -8 -8 -11
-15 -15 -15 -9 0 21 29 37 36 19 3 -9 10 -16 16 -16 5 0 6 6 2 13 -5 7 0 6 11
-3 17 -14 18 -13 12 3 -5 14 -3 16 12 8 13 -7 18 -6 18 4 0 8 -5 12 -11 9 -6
-3 -2 1 8 10 10 8 23 13 27 10 5 -3 11 7 15 21 3 14 10 25 15 25 12 0 7 21 -9
39 -11 11 -11 15 0 22 11 7 11 9 0 9 -7 0 -11 4 -8 9 3 4 -6 18 -19 31 -13 13
-22 27 -18 33 4 6 1 7 -6 2 -10 -5 -9 -2 0 13 7 12 18 18 24 14 5 -3 3 3 -5
13 -14 17 -14 18 5 8 11 -6 27 -8 35 -6 10 3 8 -2 -5 -13 -15 -13 -16 -15 -3
-11 9 3 19 3 21 -1 2 -4 2 -1 0 6 -2 9 3 11 17 7 12 -4 20 -2 20 5 0 6 -4 9
-9 5 -5 -3 -13 -1 -16 5 -4 6 -1 9 6 8 7 -2 13 2 14 9 0 7 6 18 14 25 9 8 11
9 7 1 -3 -6 2 -16 11 -22 17 -10 6 -17 -20 -12 -5 1 -6 -3 -2 -8 3 -6 13 -8
23 -5 14 5 14 3 -2 -10 -27 -22 -13 -20 26 3 17 11 36 17 42 14 6 -4 2 3 -8
15 -12 14 -14 22 -7 22 7 0 9 5 5 13 -4 6 3 3 17 -8 14 -12 19 -14 11 -4 -18
23 -5 47 23 44 18 -2 22 1 18 13 -4 10 -2 13 5 8 6 -3 16 3 22 14 6 11 15 18
21 15 5 -4 9 0 9 7 0 8 9 20 20 28 11 8 20 19 20 26 0 16 35 45 45 37 4 -5 5
-2 1 5 -4 6 -2 12 3 12 6 0 10 6 8 13 -1 6 4 11 11 10 11 -3 17 10 13 31 -1 5
5 6 13 3 11 -4 13 -1 9 10 -4 11 -2 14 5 9 7 -4 12 -2 12 4 0 6 4 9 8 6 4 -2
18 11 31 30 13 19 28 34 33 34 5 0 7 4 4 9 -7 11 22 23 35 16 5 -4 6 1 3 10
-5 11 -2 14 12 8 13 -5 15 -3 9 7 -6 9 -4 11 4 6 7 -5 10 -15 7 -25 -5 -12 -2
-11 9 3 14 18 15 18 15 2 0 -9 5 -14 10 -11 6 4 7 11 4 17 -4 7 -2 8 4 4 7 -4
18 -4 25 1 6 4 15 8 20 9 4 1 10 3 15 4 26 9 89 3 89 -8 0 -7 -7 -10 -14 -8
-8 4 -11 1 -8 -5 4 -6 13 -8 20 -5 7 2 19 -1 26 -7 12 -10 12 -9 1 3 -23 26
-12 34 15 9 14 -13 23 -19 19 -12 -3 6 -2 15 4 18 6 4 10 3 9 -2 -3 -19 2 -33
12 -33 6 0 9 6 6 14 -11 28 32 26 48 -2 10 -20 14 -22 15 -9 0 9 5 17 11 17 5
0 8 -4 5 -9 -3 -4 11 -6 30 -4 20 2 33 0 30 -6 -3 -5 1 -11 9 -15 8 -3 15 -1
15 5 0 6 5 7 10 4 6 -4 7 -12 3 -18 -4 -7 0 -6 10 2 15 12 21 9 18 -11 0 -4 6
-5 14 -2 8 3 24 -4 36 -15 17 -16 26 -18 36 -10 10 9 13 8 13 -5 0 -9 5 -15
12 -13 6 1 16 -7 22 -19 6 -11 17 -19 24 -16 6 2 15 -3 18 -12 3 -9 10 -14 14
-11 4 3 13 -2 20 -10 7 -8 17 -12 23 -8 6 3 7 1 3 -5 -4 -7 -2 -12 4 -12 6 0
8 -4 5 -10 -3 -5 1 -10 10 -10 9 0 13 -4 10 -10 -3 -5 0 -10 7 -10 10 0 10 -2
0 -8 -9 -6 -5 -12 13 -22 14 -8 23 -20 21 -27 -3 -7 -1 -13 4 -13 6 0 10 7 10
15 0 8 5 15 10 15 6 0 9 -3 9 -7 -3 -20 2 -34 10 -29 9 6 55 -26 79 -54 12
-13 12 -13 6 0 -6 11 -2 10 13 -2 11 -10 25 -18 31 -18 6 0 9 -7 5 -15 -3 -9
-2 -15 3 -14 33 6 56 -2 45 -15 -8 -10 -9 -16 -1 -21 5 -3 10 -3 10 1 0 4 10
-1 22 -12 22 -19 22 -19 8 1 -8 11 4 5 28 -14 23 -18 42 -37 42 -42 0 -5 11
-14 25 -19 14 -5 30 -21 36 -34 7 -14 17 -22 25 -19 8 3 14 -1 14 -11 0 -9 8
-16 21 -16 11 0 18 -4 15 -9 -3 -4 2 -8 12 -8 34 0 43 -3 37 -13 -3 -5 -1 -10
4 -10 17 0 13 18 -6 29 -10 6 -13 11 -7 11 15 0 46 -35 37 -43 -3 -4 1 -7 9
-7 9 0 18 -7 22 -15 3 -8 12 -15 19 -15 15 0 79 -65 71 -73 -2 -2 2 -10 11
-17 8 -7 15 -17 15 -22 0 -14 27 -38 34 -31 3 4 6 -1 6 -11 0 -9 5 -14 10 -11
6 3 10 1 10 -4 0 -6 5 -11 11 -11 5 0 7 5 3 12 -5 7 -3 8 5 4 7 -5 17 -19 22
-33 6 -17 14 -23 25 -19 12 4 15 2 10 -9 -3 -8 0 -14 7 -12 7 1 11 -5 9 -13
-3 -12 -1 -12 9 -3 10 10 15 9 26 -5 10 -12 12 -12 8 -2 -5 13 -4 13 7 0 7 -9
28 -22 45 -29 18 -7 30 -17 27 -22 -3 -5 0 -9 7 -9 6 0 17 -7 24 -16 10 -15
13 -15 29 2 18 17 18 17 11 -6 -7 -23 -7 -24 10 -10 11 9 16 10 11 3 -4 -8 -2
-13 4 -13 6 0 8 -5 4 -12 -4 -6 -3 -8 4 -4 5 3 12 3 15 -1 2 -5 2 -3 1 4 -2 6
5 17 14 25 9 8 13 8 9 1 -4 -6 -1 -14 5 -16 10 -4 9 -6 -1 -6 -11 -1 -10 -6 5
-23 19 -22 19 -23 -1 -8 -20 14 -20 14 -1 -7 10 -13 22 -20 27 -17 4 2 6 -5 4
-17 -4 -18 -2 -19 11 -8 8 7 14 8 13 3 -5 -26 1 -39 11 -24 8 12 10 11 10 -7
0 -13 5 -23 10 -23 6 0 10 -6 10 -14 0 -8 5 -18 12 -22 7 -5 8 -3 3 6 -5 9 -4
11 3 6 8 -4 8 -15 2 -31 -7 -17 -6 -25 1 -25 6 0 9 -7 5 -15 -3 -8 -1 -15 3
-15 5 0 12 -7 15 -16 4 -10 2 -13 -6 -8 -6 4 -3 -5 8 -19 10 -15 23 -27 27
-27 5 0 5 -4 2 -10 -3 -5 -1 -10 5 -10 6 0 8 -4 5 -10 -3 -5 -1 -10 4 -10 6 0
11 -7 11 -15 0 -8 4 -15 9 -15 5 0 11 -9 14 -21 5 -17 3 -18 -11 -7 -9 7 -7 1
6 -14 15 -17 20 -28 13 -33 -8 -4 -7 -10 1 -19 7 -8 19 -23 27 -34 15 -21 37
-20 24 1 -4 7 0 6 10 -2 14 -11 17 -11 17 0 0 11 2 11 10 -1 9 -13 14 -7 11
13 0 4 8 7 19 7 14 0 18 5 13 17 -5 12 -1 11 15 -5 12 -12 22 -26 22 -31 0
-15 27 -20 40 -8 10 9 11 9 6 0 -4 -7 -2 -13 3 -13 6 0 11 -7 11 -16 0 -13 3
-14 14 -5 11 9 16 9 22 0 4 -8 3 -9 -4 -5 -7 4 -12 2 -12 -3 0 -6 10 -11 21
-11 17 0 20 -5 16 -21 -4 -16 -3 -19 5 -11 7 7 17 4 32 -12 11 -12 18 -17 14
-12 -5 6 -8 17 -8 25 0 11 4 10 14 -5 8 -10 19 -20 25 -20 6 -1 15 -2 19 -3 5
0 8 -11 8 -23 -1 -13 4 -22 11 -21 6 1 10 -8 8 -22 -1 -13 2 -22 6 -19 5 3 9
-2 9 -10 0 -8 9 -20 21 -27 15 -8 18 -14 10 -22 -8 -8 -6 -16 7 -30 9 -10 16
-22 15 -26 -2 -3 0 -6 5 -6 9 0 82 -71 82 -80 0 -3 -6 -3 -12 1 -7 4 -2 -3 10
-16 19 -18 21 -24 10 -32 -10 -7 -10 -9 2 -7 35 3 46 -1 30 -11 -11 -7 -11
-10 -2 -10 7 0 11 -4 8 -9 -6 -8 30 -25 47 -22 5 1 6 -3 2 -9 -5 -8 -11 -7
-21 1 -8 7 -14 7 -14 1 0 -5 7 -13 16 -16 9 -3 12 -11 8 -18 -6 -10 -4 -10 8
0 13 10 18 10 24 1 4 -8 3 -9 -4 -5 -7 4 -12 3 -12 -2 0 -6 7 -13 16 -16 8 -3
13 -10 10 -15 -3 -5 2 -15 11 -22 12 -10 14 -10 9 -1 -4 6 -2 12 3 12 6 0 12
-4 12 -10 1 -5 2 -16 3 -22 1 -7 8 -12 15 -10 8 2 11 -3 8 -13 -4 -8 -2 -15 3
-15 6 0 10 -6 10 -14 0 -9 7 -13 19 -11 14 3 18 -1 14 -11 -3 -9 1 -14 12 -14
10 0 14 -5 9 -12 -5 -10 -4 -10 5 -2 9 8 20 4 43 -18 17 -16 34 -26 37 -22 3
4 1 9 -5 11 -6 2 -20 11 -30 19 -18 14 -17 14 6 3 34 -16 70 -50 70 -66 0 -7
7 -13 15 -13 9 0 12 -6 9 -15 -5 -11 -2 -13 12 -8 13 5 15 3 9 -8 -5 -8 2 -5
15 6 13 11 20 15 17 8 -4 -6 -3 -14 3 -18 6 -4 7 -11 4 -17 -4 -7 -2 -8 5 -4
6 4 9 12 6 17 -3 5 1 6 10 3 11 -5 15 -14 11 -27 -3 -14 -2 -17 6 -9 13 13 38
4 38 -14 0 -8 7 -14 16 -14 8 0 12 -4 9 -10 -3 -6 1 -10 9 -10 9 0 16 -4 16
-10 0 -5 6 -10 13 -10 7 0 18 -10 26 -21 10 -18 15 -19 22 -8 7 11 9 10 9 -5
0 -15 3 -16 15 -6 8 7 12 17 8 24 -4 6 1 5 10 -3 18 -14 23 -26 8 -16 -16 9
-24 -15 -11 -31 10 -12 16 -12 28 -2 10 8 13 8 9 2 -4 -7 1 -18 10 -25 20 -17
17 -18 42 5 12 11 21 15 21 10 1 -5 7 2 15 16 8 14 15 21 15 15 1 -5 3 -18 5
-27 2 -10 -2 -21 -7 -25 -7 -3 -8 -1 -4 5 4 7 -1 10 -14 9 -10 -1 -22 -7 -25
-15 -2 -7 0 -10 5 -7 9 6 14 -8 11 -27 0 -5 5 -7 12 -5 6 1 11 -6 11 -16 -1
-10 1 -16 4 -13 3 3 12 0 20 -7 13 -10 15 -9 9 5 -4 11 -2 17 6 15 7 -1 11 6
9 15 -3 21 10 29 28 16 12 -8 11 -9 -3 -4 -12 4 -17 2 -14 -6 2 -7 13 -12 23
-10 15 2 16 1 4 -7 -8 -5 -18 -7 -22 -5 -9 6 -10 2 -12 -38 -2 -21 1 -25 11
-16 10 8 13 6 13 -6 0 -10 5 -14 10 -11 6 3 10 1 10 -5 0 -6 5 -8 10 -5 6 3
10 -1 10 -9 0 -19 16 -21 26 -4 4 6 3 8 -3 5 -5 -3 -10 0 -10 8 0 11 4 12 14
4 7 -6 11 -14 9 -18 -1 -3 6 -15 17 -25 17 -16 19 -17 14 -3 -3 9 -2 17 3 17
6 0 10 -4 10 -10 0 -5 9 -10 19 -10 11 0 22 -6 24 -12 4 -10 8 -10 15 1 7 9
12 10 16 2 4 -6 1 -11 -6 -11 -8 -1 -4 -8 9 -19 12 -10 20 -21 17 -24 -3 -3 4
-8 15 -12 12 -3 19 -11 16 -16 -4 -5 -1 -9 6 -9 9 0 9 -3 0 -14 -10 -12 -9
-13 7 -9 11 2 23 -1 27 -8 5 -8 4 -10 -3 -5 -8 5 -10 2 -6 -8 3 -9 11 -13 17
-9 7 4 8 0 3 -12 -5 -15 -4 -16 9 -5 14 12 21 -1 16 -32 0 -5 2 -8 7 -7 15 2
52 -14 52 -23 0 -5 -5 -6 -12 -2 -7 5 -8 3 -3 -6 6 -10 11 -9 22 6 13 18 14
17 9 -8 -2 -15 0 -31 6 -34 7 -4 8 -2 4 4 -4 7 -2 12 3 12 6 0 11 -9 11 -21 0
-11 4 -18 9 -14 11 6 78 -72 74 -86 -2 -5 4 -6 12 -3 8 4 15 1 15 -5 0 -6 6
-11 14 -11 7 0 20 -8 27 -17 11 -15 11 -16 -1 -6 -20 18 -34 16 -16 -2 8 -8
23 -15 33 -15 15 0 16 -2 3 -11 -12 -9 -10 -10 8 -6 18 4 21 3 12 -7 -7 -10
-6 -17 7 -27 11 -9 14 -10 9 -1 -4 7 -1 12 9 12 9 0 13 -4 10 -10 -3 -5 -1
-10 6 -10 9 0 9 -3 0 -14 -10 -12 -8 -13 11 -9 13 3 20 3 16 -2 -9 -9 19 -38
30 -31 5 3 9 -1 9 -9 0 -8 -4 -12 -9 -9 -4 3 -5 -2 -2 -11 5 -12 10 -13 20 -4
10 9 12 6 9 -13 -4 -22 -4 -22 10 -4 11 15 15 16 15 5 0 -8 -4 -20 -10 -27 -7
-8 -7 -9 1 -3 6 5 19 7 28 4 14 -4 14 -3 1 7 -12 9 -12 11 -1 8 8 -2 15 -11
17 -20 1 -11 -3 -15 -14 -11 -14 4 -15 3 -2 -5 8 -6 18 -8 22 -6 4 3 16 0 25
-6 16 -11 16 -11 1 -6 -10 3 -20 1 -23 -5 -4 -5 -3 -9 2 -8 22 4 34 -2 27 -13
-5 -9 -2 -9 9 1 15 11 17 11 17 -2 0 -8 7 -17 15 -21 8 -3 15 0 15 6 0 6 3 8
6 5 4 -4 1 -14 -7 -23 -12 -15 -11 -16 9 -10 18 6 21 4 15 -11 -6 -16 -5 -17
12 -3 10 8 16 10 12 4 -4 -6 2 -22 13 -34 12 -14 20 -18 20 -10 0 7 3 10 6 7
4 -4 1 -14 -7 -24 -9 -11 -10 -14 -1 -9 6 4 12 2 12 -3 0 -6 5 -11 11 -11 5 0
7 4 4 10 -3 6 1 7 9 4 9 -3 16 -10 16 -16 0 -5 -4 -6 -10 -3 -5 3 -7 0 -4 -9
3 -8 12 -12 20 -9 9 3 14 -2 14 -16 0 -23 14 -28 26 -9 4 7 3 8 -4 4 -8 -5
-10 -2 -6 8 3 9 11 16 18 16 6 0 12 9 12 20 0 15 -5 19 -21 14 -24 -8 -19 -1
14 16 13 6 21 8 17 2 -7 -12 18 -35 27 -25 4 3 7 1 7 -5 0 -16 -13 -15 -29 0
-11 11 -13 10 -8 -5 4 -11 1 -20 -8 -24 -11 -4 -13 -9 -5 -18 5 -6 7 -15 3
-18 -3 -4 -1 -7 6 -7 7 0 10 -4 7 -9 -7 -10 19 -23 28 -14 10 10 7 35 -3 28
-5 -3 -12 -1 -15 4 -4 5 2 8 11 7 22 -4 27 -20 13 -46 -11 -20 -10 -21 12 -15
21 6 21 6 6 -6 -13 -11 -15 -18 -7 -29 9 -13 10 -12 5 3 -3 9 -1 17 4 17 6 0
10 -10 10 -22 0 -19 2 -20 10 -8 10 15 16 2 11 -24 -1 -5 6 -6 15 -2 11 4 15
2 11 -8 -3 -8 1 -17 10 -20 11 -5 14 -2 9 9 -3 9 -2 13 4 10 6 -3 10 -13 10
-22 0 -22 39 -53 64 -52 21 0 21 1 1 9 -16 7 -16 9 -4 9 9 1 20 8 23 17 5 12
1 14 -17 9 -12 -3 -17 -3 -12 2 12 10 16 53 4 53 -4 0 -7 8 -6 18 0 10 7 19
14 19 17 0 17 -14 0 -20 -6 -2 0 -4 15 -3 14 0 24 3 22 5 -2 2 0 9 6 15 5 7 5
17 -2 26 -8 13 -9 12 -5 -2 8 -25 -4 -30 -26 -11 -12 11 -17 12 -12 4 5 -10 4
-12 -4 -7 -6 4 -25 0 -43 -8 -17 -9 -32 -15 -33 -14 -1 2 -8 13 -14 26 -7 14
-18 21 -26 18 -9 -3 -12 0 -8 10 5 13 8 13 24 -2 21 -19 26 -6 7 15 -8 9 -8
11 -2 8 7 -4 15 0 18 9 4 9 9 14 13 11 3 -4 0 -13 -7 -22 -8 -9 -9 -15 -2 -15
6 0 16 8 21 18 6 9 11 12 11 5 0 -6 -4 -15 -10 -18 -6 -3 -10 -11 -10 -17 0
-7 4 -7 13 1 8 6 17 7 21 3 10 -10 56 -10 50 0 -3 4 0 8 5 8 6 0 11 5 11 11 0
6 -5 7 -12 2 -22 -13 -54 -15 -42 -3 6 6 20 13 30 14 12 2 19 11 18 24 0 13 4
18 14 15 12 -5 12 -3 0 17 -10 18 -10 24 0 27 6 3 10 9 7 14 -4 5 2 6 12 2 16
-6 17 -5 4 11 -14 17 -16 17 -28 0 -7 -10 -16 -14 -20 -11 -4 4 3 14 15 23 26
18 28 30 6 38 -12 5 -15 2 -10 -9 3 -9 2 -14 -3 -10 -5 3 -12 -1 -14 -7 -3 -8
-6 -9 -6 -2 -1 6 8 23 19 37 19 24 22 25 48 11 24 -12 28 -12 34 4 5 14 7 14
7 2 1 -9 -4 -21 -11 -28 -6 -6 -8 -15 -3 -19 4 -5 10 -2 12 5 3 6 9 12 15 12
6 0 5 -6 -2 -15 -7 -8 -19 -14 -28 -13 -8 2 -17 -3 -20 -11 -3 -9 0 -11 8 -6
8 5 11 4 7 -2 -4 -6 1 -17 10 -24 14 -12 15 -11 10 6 -9 27 25 50 53 35 20
-11 36 2 25 19 -8 14 14 24 28 13 7 -6 15 -10 19 -9 3 1 10 -2 15 -6 4 -5 4
-7 -2 -6 -5 2 -21 -3 -34 -10 -28 -16 -15 -33 26 -35 16 -1 28 -7 28 -14 0 -7
7 -17 15 -22 8 -5 11 -10 5 -10 -19 0 -38 18 -31 29 5 7 -4 10 -26 8 -20 -2
-38 3 -46 13 -11 13 -11 11 -2 -7 8 -17 8 -23 -1 -23 -7 0 -9 -3 -6 -6 4 -4
13 -1 22 6 11 9 15 9 15 1 0 -7 5 -9 13 -5 7 4 9 3 4 -2 -5 -5 -12 -9 -15 -9
-4 0 -20 -13 -35 -29 -16 -15 -31 -25 -35 -21 -4 4 2 13 12 21 11 7 17 16 14
19 -3 3 -13 -1 -22 -10 -9 -9 -16 -12 -16 -7 0 5 -9 12 -20 15 -13 3 -18 1
-13 -5 4 -7 1 -8 -7 -3 -9 6 -11 4 -5 -6 8 -12 6 -12 -8 -1 -20 17 -38 7 -30
-15 4 -11 3 -14 -5 -9 -8 5 -10 2 -5 -9 3 -9 9 -13 12 -8 10 14 32 9 47 -11
12 -18 11 -22 -8 -43 -19 -20 -20 -26 -8 -33 11 -7 9 -12 -11 -29 -13 -11 -19
-20 -13 -21 18 0 47 38 38 51 -5 8 -3 10 6 4 9 -5 11 -4 6 4 -4 6 0 14 9 17
12 5 13 9 5 14 -9 5 -9 9 -1 14 6 4 11 2 11 -5 0 -8 4 -8 15 1 9 7 18 10 21 7
3 -3 -4 -10 -15 -17 -12 -6 -19 -15 -16 -20 3 -6 0 -7 -7 -5 -9 4 -14 -2 -15
-15 -2 -19 -1 -19 25 -2 14 9 23 12 19 5 -4 -7 1 -14 13 -18 11 -4 18 -10 15
-15 -3 -5 -1 -11 5 -15 6 -4 8 -12 4 -18 -3 -7 2 -3 10 7 9 11 16 25 15 30 0
6 -3 5 -6 -1 -7 -18 -20 -16 -20 2 0 8 9 17 19 21 19 6 25 24 7 24 -5 0 -8 4
-5 9 11 16 45 0 39 -17 -4 -10 3 -6 16 8 18 21 21 22 19 6 -2 -10 2 -21 9 -23
7 -3 10 6 8 24 -3 32 4 55 15 48 4 -3 10 2 14 10 3 8 11 15 17 15 7 0 0 -11
-16 -26 -30 -28 -28 -43 3 -23 17 10 25 10 46 -4 27 -18 40 -22 32 -9 -2 4 0
14 5 22 7 11 8 8 6 -10 -4 -28 -11 -30 -50 -10 -25 12 -29 11 -48 -8 -13 -14
-15 -22 -7 -22 7 -1 4 -6 -8 -13 -12 -7 -19 -18 -16 -27 5 -13 3 -13 -13 0
-11 9 -16 10 -11 3 4 -8 2 -13 -6 -13 -10 0 -9 -3 2 -10 9 -5 19 -5 27 1 9 8
11 5 10 -10 -1 -12 -5 -21 -9 -21 -4 0 -8 -5 -8 -12 0 -6 9 -3 20 7 11 10 20
13 20 8 0 -6 -7 -16 -15 -23 -8 -7 -15 -18 -15 -24 0 -8 2 -8 8 0 4 6 16 9 27
7 11 -3 28 -4 38 -4 11 0 15 -5 10 -12 -4 -7 0 -6 10 2 9 7 17 19 17 25 0 7
-3 7 -8 -1 -6 -9 -11 -7 -20 7 -7 11 -8 20 -3 20 5 0 12 -6 14 -12 4 -10 6
-10 6 -1 2 19 -19 26 -37 11 -16 -12 -16 -11 -2 7 14 19 14 19 -5 5 -18 -13
-19 -13 -8 0 9 12 8 19 -2 33 -10 13 -14 15 -18 5 -2 -7 -8 -10 -13 -5 -4 4 2
14 14 23 12 8 20 19 18 23 -13 20 11 27 39 10 17 -11 24 -19 18 -19 -7 0 -13
-5 -13 -11 0 -5 5 -7 10 -4 5 3 10 1 10 -4 0 -6 -5 -11 -11 -11 -5 0 -7 -5 -3
-12 4 -6 3 -8 -4 -4 -6 3 -13 2 -17 -4 -6 -10 5 -13 35 -11 10 0 11 -1 3 -5
-10 -4 -10 -11 -2 -25 8 -15 7 -26 -4 -43 -13 -19 -13 -23 -2 -23 8 0 12 3 10
6 -2 4 3 15 11 26 8 10 14 13 14 6 0 -7 5 -9 12 -5 7 4 8 3 4 -4 -4 -7 -1 -12
8 -12 10 0 13 6 10 15 -4 8 1 17 10 21 9 3 13 10 10 16 -3 5 -13 4 -22 -4 -14
-10 -15 -10 -4 2 14 16 16 44 3 35 -6 -3 -8 6 -5 21 3 18 1 24 -8 19 -7 -3 -6
0 4 6 14 11 15 15 1 38 -12 21 -12 23 -1 9 8 -10 19 -14 23 -10 5 4 5 2 1 -5
-3 -6 -1 -15 5 -19 8 -4 7 -9 -2 -16 -11 -8 -11 -9 1 -5 9 2 14 14 13 28 -1
13 0 17 3 9 3 -9 15 -20 27 -26 12 -5 21 -15 19 -22 -1 -7 2 -12 8 -12 14 0
13 7 -6 35 -9 14 -12 25 -6 25 5 0 12 -7 16 -15 3 -8 10 -15 16 -15 6 0 9 4 5
9 -3 5 0 13 6 17 8 4 9 3 5 -4 -4 -7 -2 -12 3 -12 6 0 11 5 11 12 0 6 6 3 14
-8 11 -15 12 -22 3 -34 -10 -13 -10 -13 5 -1 10 7 15 18 11 24 -4 6 0 8 10 4
11 -4 14 -2 11 8 -3 8 -11 13 -17 11 -7 -1 -9 -1 -4 1 16 10 6 25 -13 20 -11
-3 -18 -1 -14 4 3 5 12 9 20 9 8 0 17 7 21 16 5 13 10 12 31 -8 15 -13 21 -16
14 -7 -6 9 -9 19 -5 23 4 4 13 -4 20 -16 l14 -23 -7 24 c-4 17 -3 21 6 16 9
-5 11 -4 6 3 -4 7 -1 12 6 12 10 0 10 2 -1 9 -8 5 -16 17 -17 25 -1 9 2 14 7
10 5 -3 7 -9 5 -13 -3 -4 1 -8 9 -8 12 0 11 5 -1 29 -8 16 -19 26 -24 23 -5
-3 -12 0 -16 6 -4 8 -3 9 4 5 7 -4 12 -2 12 5 0 8 5 6 13 -5 12 -16 14 -16 32
4 14 16 15 21 5 18 -8 -2 -19 -7 -23 -13 -5 -5 -5 1 -2 14 5 16 4 21 -4 17 -6
-4 -11 -3 -11 3 0 5 6 12 13 14 9 4 9 6 0 6 -6 1 -15 -4 -19 -10 -4 -8 -12 -3
-21 12 -8 13 -12 16 -9 7 3 -12 1 -15 -9 -11 -8 3 -13 9 -10 13 3 5 -1 15 -9
23 -19 19 -8 31 13 15 9 -7 7 -2 -4 11 l-20 24 22 -12 c15 -7 24 -8 28 -1 4 6
1 9 -5 8 -7 -2 -14 5 -15 14 -2 11 2 15 13 11 11 -5 13 -3 7 7 -6 10 -4 12 10
6 18 -6 18 -6 2 12 -13 15 -14 21 -4 32 10 10 9 11 -2 5 -11 -6 -13 -4 -8 9 4
9 3 15 -2 11 -5 -3 -22 10 -37 27 -15 18 -34 32 -42 30 -8 -2 -11 1 -7 7 3 6
3 11 -2 12 -39 5 -70 4 -81 -4 -9 -7 -11 -5 -6 7 3 9 10 16 16 16 5 0 6 5 2
12 -5 7 -11 5 -21 -8 -14 -19 -14 -19 -11 1 2 16 -3 20 -26 20 -19 0 -30 6
-31 16 -2 9 3 16 11 16 10 0 11 -4 3 -14 -8 -9 -8 -13 -1 -13 18 0 24 19 13
37 -6 11 -11 13 -11 5 0 -7 -4 -11 -9 -7 -6 3 -14 -2 -19 -12 -9 -15 -12 -15
-27 -3 -14 11 -18 11 -33 -4 -16 -16 -15 -16 8 -14 19 2 26 -2 28 -20 2 -12 7
-20 12 -17 5 3 17 -8 26 -25 19 -32 29 -37 39 -20 3 6 16 10 28 9 20 -1 20 -2
-3 -9 -23 -7 -23 -11 -1 -14 5 0 12 -4 16 -8 4 -3 0 -5 -9 -4 -8 1 -18 5 -22
8 -3 4 -12 4 -20 1 -7 -3 -21 7 -31 25 -10 16 -22 30 -28 30 -5 1 -11 10 -13
22 -2 11 -8 20 -14 20 -5 0 -7 -8 -4 -17 6 -15 4 -15 -14 2 -11 10 -22 16 -25
13 -3 -3 4 -13 15 -23 11 -10 20 -24 20 -32 0 -7 4 -13 9 -13 5 0 11 -7 14
-14 4 -10 1 -13 -9 -9 -8 3 -17 16 -20 30 -5 18 -9 22 -18 13 -8 -8 -4 -18 17
-36 30 -25 47 -31 47 -14 0 6 5 10 10 10 6 0 6 -7 -2 -19 -6 -10 -17 -17 -24
-14 -6 2 -14 0 -18 -5 -8 -13 30 -8 48 8 9 7 19 10 23 7 3 -4 -2 -9 -11 -13
-16 -6 -16 -8 0 -25 10 -11 12 -19 6 -19 -7 0 -12 4 -12 8 0 19 -69 13 -80 -7
-7 -13 -7 -22 0 -26 6 -4 8 -11 5 -16 -3 -5 1 -6 10 -3 12 5 13 9 4 21 -9 11
-9 17 0 26 10 9 11 8 6 -5 -4 -10 -3 -18 3 -18 6 0 10 -9 9 -20 -1 -11 -6 -19
-12 -19 -26 3 -36 -2 -29 -13 6 -10 4 -10 -8 0 -8 7 -23 10 -32 6 -9 -3 -16
-1 -16 6 0 6 5 8 10 5 6 -3 10 -1 10 6 0 8 4 8 15 -1 9 -8 15 -9 15 -2 0 6 -5
14 -10 17 -7 4 -6 13 1 26 10 19 9 19 -10 9 -15 -8 -27 -8 -41 0 -22 12 -26
21 -7 18 7 -2 11 6 10 18 -1 12 4 21 12 21 15 0 15 -22 1 -46 -6 -9 -1 -8 16
3 14 9 28 13 33 9 4 -5 5 -3 1 4 -4 7 -14 9 -24 6 -14 -6 -15 -4 -5 8 10 12 8
17 -8 27 -11 7 -17 18 -13 24 4 7 10 4 17 -7 13 -23 29 2 17 26 -5 9 -6 20 -2
24 4 5 0 4 -8 0 -13 -8 -13 -7 0 10 13 17 13 18 0 10 -13 -8 -13 -7 0 10 8 10
10 16 3 12 -8 -5 -11 -1 -8 13 2 12 -3 24 -13 29 -14 7 -18 5 -20 -10 -4 -42
-6 -47 -18 -42 -14 5 -39 -35 -36 -57 3 -13 2 -13 -8 0 -8 12 -10 12 -8 -5 2
-11 -1 -21 -6 -22 -5 -1 -13 -7 -18 -15 -8 -10 -9 -10 -5 2 2 8 10 14 16 12
13 -2 14 8 3 26 -6 9 -12 5 -20 -13 -18 -38 -15 -47 10 -39 19 6 21 5 11 -8
-7 -8 -9 -18 -5 -22 4 -5 -4 -6 -18 -4 -20 2 -25 9 -26 34 0 17 -5 37 -9 44
-5 9 -4 11 3 6 7 -4 12 -3 12 3 0 6 -8 15 -18 20 -16 9 -19 6 -19 -19 0 -16 4
-27 8 -24 4 2 11 -1 15 -7 4 -8 3 -9 -5 -5 -14 9 -11 -16 4 -26 6 -5 4 -8 -5
-8 -13 0 -13 -1 0 -10 13 -9 13 -10 0 -10 -13 0 -13 -1 0 -10 8 -5 22 -7 30
-5 11 3 16 -2 16 -15 0 -11 -4 -20 -8 -20 -4 0 -8 5 -8 11 0 5 -4 8 -9 4 -5
-3 -12 -1 -16 5 -4 6 -11 7 -17 4 -7 -5 -8 -2 -3 6 6 10 4 12 -9 7 -10 -4 -24
1 -36 13 -11 11 -16 20 -12 20 4 0 13 -5 20 -12 9 -9 12 -9 12 -1 0 7 -4 14
-9 18 -10 5 -11 14 -13 66 0 21 -4 25 -19 22 -15 -4 -17 -8 -8 -19 7 -8 13
-26 15 -40 2 -22 0 -24 -14 -12 -27 20 -28 22 -9 15 21 -8 22 2 1 31 -14 21
-14 23 8 31 16 6 28 4 41 -7 22 -20 22 -4 0 21 -10 11 -12 17 -5 13 14 -8 45
11 38 23 -7 11 12 36 21 27 4 -5 2 -11 -5 -13 -6 -3 -9 -9 -6 -15 3 -5 14 -2
25 8 11 9 22 15 25 11 3 -3 16 3 27 14 16 15 23 16 30 7 6 -9 7 -6 4 9 -5 22
-4 22 26 7 28 -15 31 -15 44 2 7 10 13 22 13 28 0 5 -6 2 -13 -8 -11 -14 -18
-16 -31 -9 -17 9 -17 10 -1 17 14 5 15 9 6 20 -9 11 -9 16 0 22 8 5 9 3 4 -6
-6 -9 -4 -11 5 -5 9 6 11 4 5 -6 -6 -11 -5 -12 5 -2 12 11 11 15 -6 27 -12 9
-23 11 -28 5 -13 -12 -26 -11 -26 2 0 5 3 8 8 6 4 -3 12 1 19 8 10 10 9 14 -3
19 -10 4 -13 1 -9 -7 4 -6 0 -4 -8 6 -8 9 -16 17 -18 17 -7 0 -3 -65 5 -81 4
-8 1 -6 -7 4 -8 9 -21 17 -29 17 -9 0 -15 8 -14 20 0 11 6 19 11 18 6 -1 9 -9
7 -16 -2 -8 1 -11 8 -7 8 5 9 27 1 64 -1 2 -7 -2 -14 -8 -17 -13 -27 -5 -21
17 3 10 -1 7 -7 -5 -15 -28 -33 -30 -24 -3 5 15 3 18 -9 14 -15 -6 -21 6 -17
29 1 4 -9 2 -21 -4 -20 -11 -21 -10 -10 3 10 13 9 16 -8 21 -11 3 -20 13 -20
22 0 15 -6 17 -36 12 -33 -6 -35 -5 -18 8 18 14 17 14 -9 15 -15 0 -30 7 -33
15 -4 8 -9 13 -13 10 -4 -2 -8 3 -8 11 0 10 4 11 11 4 5 -5 15 -10 21 -10 5 0
2 5 -8 11 -9 6 -15 14 -12 19 3 5 0 12 -6 16 -8 4 -9 3 -5 -4 4 -7 1 -12 -8
-12 -9 0 -15 6 -13 13 1 6 -5 12 -13 12 -8 0 -14 -6 -12 -13 1 -8 -2 -11 -9
-7 -7 5 -8 10 0 18 7 7 5 14 -7 24 -16 12 -15 13 3 7 15 -4 13 -1 -5 9 -14 9
-29 13 -33 10 -5 -3 -3 5 3 18 7 13 9 21 5 17 -4 -4 -20 6 -35 22 -15 16 -30
26 -34 22 -4 -3 -4 1 0 11 4 12 1 17 -10 17 -9 0 -16 7 -16 16 0 8 -4 12 -10
9 -6 -3 -10 0 -10 8 0 24 -60 79 -78 72 -13 -5 -12 -1 3 17 11 13 16 20 11 16
-5 -4 -16 1 -25 10 -10 11 -12 12 -6 2 9 -13 8 -13 -8 -1 -10 8 -16 23 -14 33
4 15 2 16 -16 7 -18 -10 -20 -9 -9 2 12 13 18 38 6 26 -16 -15 -43 14 -38 40
5 27 5 27 -11 8 -9 -11 -14 -15 -11 -8 9 17 -4 43 -22 43 -8 0 -13 3 -9 6 3 3
-4 17 -16 31 -12 13 -22 28 -22 31 -1 18 -19 33 -32 27 -13 -4 -14 -3 -3 10
10 12 10 15 -4 15 -10 0 -14 5 -11 10 3 6 1 10 -5 10 -17 0 -40 26 -40 46 0
14 -3 15 -12 6 -7 -7 -17 -12 -22 -12 -6 0 -4 5 4 11 12 8 12 12 2 16 -10 4
-10 8 -1 19 14 17 -2 19 -20 1 -10 -8 -12 -8 -7 0 3 6 2 14 -3 18 -6 3 -8 12
-4 21 3 9 0 14 -8 12 -8 -2 -14 4 -14 12 0 16 -35 47 -47 42 -5 -1 -8 3 -8 9
0 5 -6 7 -12 3 -10 -6 -10 -4 0 7 12 13 18 38 6 26 -10 -9 -32 16 -27 30 5 14
-12 18 -20 6 -2 -5 -3 -3 -1 3 1 6 -5 18 -14 26 -10 8 -24 25 -32 38 -8 12
-21 28 -27 36 -7 7 -13 18 -13 24 0 7 -7 9 -16 6 -14 -6 -15 -4 -4 9 11 13 11
16 0 13 -8 -2 -15 4 -15 12 0 8 -6 14 -13 13 -7 -2 -12 6 -12 18 0 14 -5 19
-14 16 -11 -4 -13 -1 -9 11 3 9 3 14 -2 10 -4 -4 -19 7 -32 24 -17 24 -20 34
-10 41 8 6 5 7 -10 4 -20 -4 -21 -3 -12 14 5 11 6 19 2 18 -21 -4 -33 2 -33
16 0 8 -5 15 -11 15 -5 0 -7 5 -4 10 4 6 3 10 -2 9 -26 -4 -38 1 -23 11 13 9
13 10 0 10 -8 0 -21 14 -28 30 -8 17 -20 30 -27 30 -8 0 -17 4 -20 10 -4 6 1
7 12 4 15 -6 15 -4 -2 9 -11 8 -24 13 -29 9 -5 -3 -7 1 -4 9 6 16 -16 41 -27
31 -5 -4 -5 3 -2 16 3 12 2 20 -1 18 -7 -3 -44 31 -52 49 -3 6 -10 9 -17 9 -6
-1 -9 5 -6 12 3 8 -9 27 -26 43 -17 16 -31 34 -31 41 0 6 -4 8 -10 5 -5 -3
-10 1 -10 10 0 10 -14 30 -31 46 -17 16 -29 35 -26 42 3 8 -1 14 -9 14 -7 0
-10 -5 -7 -10 3 -6 1 -7 -6 -3 -6 4 -9 11 -6 16 3 5 -3 15 -15 22 -11 7 -20
18 -20 25 0 7 -4 13 -10 13 -5 0 -10 7 -10 16 0 8 -4 13 -9 10 -5 -3 -16 10
-25 29 -9 19 -19 35 -22 35 -3 0 -2 -5 2 -12 4 -7 3 -8 -4 -4 -7 4 -12 14 -12
22 0 8 -4 12 -10 9 -5 -3 -12 6 -16 20 -3 14 -9 24 -11 21 -6 -6 -33 19 -33
29 0 15 -83 84 -93 78 -5 -3 -7 -1 -4 4 6 10 -25 55 -34 50 -2 -1 -1 2 3 7 8
11 -31 48 -43 41 -4 -3 -11 0 -15 6 -5 8 -2 10 7 5 8 -4 6 -1 -3 7 -10 8 -15
17 -11 21 4 4 0 4 -10 0 -10 -3 -17 -1 -17 6 0 6 -4 8 -10 5 -9 -6 -14 8 -11
28 0 4 -3 7 -9 7 -5 0 -10 9 -10 21 0 11 -3 18 -7 16 -5 -2 -21 12 -38 31 -16
20 -25 33 -19 29 6 -3 11 0 11 7 0 9 -7 12 -16 8 -14 -5 -14 -3 -2 11 9 12 10
17 2 17 -7 0 -9 5 -6 10 3 6 1 10 -5 10 -6 0 -8 5 -4 13 5 7 2 7 -10 -2 -15
-12 -17 -12 -14 0 2 9 -4 13 -17 11 -15 -2 -17 -1 -6 7 8 5 21 7 30 4 14 -5
14 -4 0 8 -9 8 -19 23 -23 34 -6 19 -5 19 8 2 13 -17 14 -16 12 7 0 13 -4 22
-8 19 -9 -4 -11 10 -9 42 2 17 0 17 -8 5 -11 -15 -15 -3 -14 37 1 7 -4 10 -10
6 -6 -4 -8 0 -4 11 4 9 3 15 -2 11 -6 -3 -14 2 -19 11 -5 9 -12 15 -15 15 -21
-3 -27 1 -28 17 0 10 -3 12 -6 5 -6 -16 -33 8 -33 29 0 8 -3 9 -8 3 -4 -5 -13
-11 -21 -13 -12 -3 -12 -1 0 14 8 10 9 15 3 11 -7 -4 -14 0 -18 8 -3 8 -1 15
3 15 5 0 7 9 4 20 -3 11 -10 17 -16 13 -6 -3 -7 -1 -3 6 6 9 11 9 21 1 11 -9
14 -7 12 9 -1 12 -7 21 -14 21 -6 0 -15 4 -18 10 -4 6 1 7 12 4 15 -5 15 -4 3
4 -18 13 -33 5 -26 -15 3 -8 1 -11 -4 -8 -6 4 -10 12 -9 18 3 28 -2 48 -11 42
-5 -3 -10 -2 -10 4 0 5 -9 8 -20 6 -11 -2 -18 0 -15 6 4 5 -1 9 -9 9 -9 0 -16
7 -16 15 0 9 -12 20 -26 25 -15 6 -24 16 -21 23 3 8 -1 14 -9 14 -7 0 -11 -5
-8 -11 3 -6 -1 -3 -9 6 -8 10 -18 14 -22 10 -5 -4 -5 -2 -2 4 4 7 1 14 -7 17
-8 3 -16 16 -18 29 -2 13 -10 23 -19 23 -9 0 -23 6 -32 14 -9 7 -21 10 -27 6
-5 -3 -13 1 -16 9 -3 9 -15 16 -26 16 -10 0 -16 5 -13 10 3 6 -1 10 -9 10 -9
0 -16 5 -16 10 0 6 -7 10 -15 10 -9 0 -18 7 -22 16 -3 8 -12 13 -20 10 -8 -3
-11 -1 -8 4 3 6 1 11 -4 11 -6 1 -15 2 -20 3 -5 0 -13 5 -18 10 -4 5 -3 7 3 3
6 -3 11 0 11 8 0 11 -5 12 -20 3 -11 -5 -17 -6 -14 -1 3 5 2 15 -4 23 -6 11
-9 12 -9 2 0 -7 -4 -11 -9 -7 -12 7 -3 57 12 67 9 6 9 8 -1 8 -7 0 -11 4 -8 9
7 11 -13 9 -34 -4 -13 -8 -13 -7 -1 9 12 15 12 19 1 26 -13 8 -39 3 -41 -9 -6
-47 -5 -52 10 -46 13 5 13 3 -2 -12 -15 -16 -19 -16 -28 -3 -9 13 -10 13 -6 0
2 -9 14 -14 27 -12 13 1 21 -1 17 -4 -11 -12 -75 -15 -82 -4 -3 5 1 10 9 10 9
0 13 7 11 20 -2 13 2 20 11 20 8 0 14 5 14 11 0 5 -4 8 -9 5 -5 -4 -4 5 2 18
7 13 14 23 17 21 3 -2 6 8 6 22 0 21 -2 22 -11 9 -7 -9 -16 -12 -20 -8 -5 4
-5 1 -1 -5 4 -7 4 -13 -1 -13 -15 0 -42 -58 -30 -64 7 -2 4 -5 -6 -5 -9 -1
-16 -4 -16 -8 4 -26 -5 -23 -38 12 -21 22 -37 43 -36 47 2 4 -4 5 -12 2 -8 -4
-17 1 -21 10 -3 9 -11 13 -17 9 -5 -3 -7 -1 -3 5 3 6 1 14 -5 17 -5 4 -8 13
-5 21 3 8 0 11 -9 8 -7 -3 -18 4 -25 15 -6 12 -8 21 -4 21 4 0 -3 8 -14 19
-12 10 -22 24 -22 30 0 7 -4 9 -10 6 -5 -3 -10 1 -10 10 0 8 -7 18 -16 22 -8
3 -13 11 -10 18 3 9 -3 11 -17 9 -12 -2 -17 -2 -10 1 7 4 -4 22 -30 49 -23 24
-45 41 -49 39 -5 -2 -8 2 -8 10 0 17 -54 42 -69 32 -6 -3 -11 1 -11 9 0 14
-11 20 -32 17 -4 0 -10 8 -13 19 -4 11 -11 18 -16 15 -5 -4 -9 1 -9 9 0 9 -6
15 -12 13 -7 -1 -12 5 -10 13 2 8 0 12 -4 8 -4 -4 -13 -3 -21 3 -7 6 -13 8
-13 4 0 -4 -13 7 -29 24 -16 17 -37 31 -48 31 -15 0 -16 2 -3 11 12 9 11 10
-8 6 -12 -3 -20 -1 -17 3 3 5 -4 11 -15 15 -11 3 -20 11 -20 16 0 5 -9 9 -20
9 -10 0 -24 9 -30 20 -6 11 -16 18 -21 14 -6 -3 -17 2 -25 12 -9 11 -12 13 -9
6 6 -11 3 -11 -13 -1 -12 7 -18 18 -15 24 4 5 3 7 -2 3 -4 -4 -20 1 -34 11
-32 22 -91 51 -103 51 -5 0 -16 7 -25 15 -8 9 -20 14 -26 12 -6 -2 -19 5 -29
15 -10 10 -23 16 -28 13 -6 -4 -10 -2 -10 4 0 6 -7 8 -15 5 -8 -4 -15 -1 -15
7 0 7 -3 9 -7 6 -3 -4 -16 -1 -27 6 -34 22 -58 29 -49 14 4 -6 -5 -4 -20 6
-15 10 -32 15 -37 12 -6 -3 -10 -2 -10 4 0 6 -7 7 -17 4 -10 -4 -14 -2 -10 4
4 6 -6 9 -23 8 -17 -1 -30 1 -30 5 0 4 -13 6 -30 5 -16 -1 -30 3 -30 9 0 6 -5
4 -10 -4 -5 -8 -10 -10 -10 -4 0 5 -10 10 -22 10 -13 0 -38 4 -57 8 -21 5 -31
5 -27 -2z m-2175 -2608 c4 3 7 -4 7 -15 0 -12 -4 -15 -10 -9 -15 15 -26 12
-20 -5 5 -11 1 -14 -12 -9 -12 3 -10 -1 6 -11 14 -9 18 -14 8 -11 -19 6 -31
-27 -15 -43 7 -7 7 -14 -1 -24 -7 -8 -9 -17 -5 -20 6 -7 -12 -11 -31 -8 -5 1
-6 -5 -3 -13 4 -10 1 -13 -9 -9 -9 3 -14 -1 -14 -12 0 -10 -5 -13 -12 -9 -7 4
-8 3 -4 -5 4 -6 13 -8 19 -4 18 11 36 12 42 3 3 -5 -4 -7 -16 -5 -17 3 -20 0
-16 -15 3 -13 -1 -24 -12 -29 -14 -8 -17 -5 -19 16 -1 14 -8 33 -15 41 -7 10
-8 13 -1 9 7 -4 18 1 25 10 12 14 11 15 -11 9 -21 -6 -22 -5 -7 4 9 6 22 8 27
5 6 -3 7 1 4 9 -3 9 -9 14 -13 12 -4 -3 -7 11 -8 30 0 19 3 34 8 34 5 0 5 7 2
17 -4 11 -3 14 5 9 16 -10 15 6 0 24 -10 11 -9 11 6 0 18 -14 19 -13 13 3 -3
9 -2 17 3 17 14 0 21 -18 9 -25 -5 -4 -8 -14 -5 -22 3 -8 1 -11 -4 -8 -6 3
-10 -1 -10 -9 0 -9 -5 -16 -11 -16 -5 0 -7 -5 -3 -12 5 -8 11 -6 19 5 7 10 18
17 24 17 9 0 9 5 2 18 -8 13 -4 23 17 45 15 15 28 23 30 17 2 -5 7 -8 11 -6z"/>
<path d="M8050 2970 c-6 -11 -16 -17 -25 -14 -8 4 -15 2 -16 -2 0 -5 -2 -17
-4 -26 -2 -9 4 -19 12 -22 8 -3 11 -11 7 -18 -4 -7 -4 -10 1 -6 4 4 15 2 23
-5 12 -10 16 -9 20 2 3 10 9 7 19 -10 8 -13 12 -17 10 -9 -5 16 10 44 28 51 6
2 9 8 7 12 -1 5 2 6 8 2 6 -4 5 -13 -2 -25 -10 -15 -10 -22 1 -32 10 -11 12
-10 9 6 -1 10 3 20 10 22 7 1 8 0 3 -2 -6 -3 -8 -11 -5 -19 9 -23 -14 -26 -30
-3 -14 20 -21 18 -17 -6 1 -4 -4 -14 -10 -22 -13 -16 2 -19 18 -3 8 8 13 7 18
-2 5 -7 4 -10 -3 -5 -6 3 -13 2 -17 -4 -3 -5 -1 -10 4 -10 6 0 11 -5 11 -11 0
-5 -4 -7 -10 -4 -17 10 -11 -7 8 -22 15 -13 15 -13 -6 -3 -13 7 -21 17 -18 25
6 16 -20 29 -29 15 -4 -6 -1 -10 6 -10 7 0 10 -3 6 -6 -15 -16 -27 9 -12 26
14 16 14 18 0 24 -9 3 -13 2 -10 -3 3 -5 1 -13 -5 -16 -6 -4 -8 -16 -4 -28 6
-19 5 -20 -10 -8 -13 11 -14 16 -4 29 11 13 11 14 -1 7 -10 -6 -12 -4 -6 5 6
9 4 11 -5 5 -9 -5 -11 -4 -6 4 4 6 12 9 17 6 10 -7 13 8 3 18 -9 9 -35 -4 -28
-14 3 -5 -2 -12 -10 -15 -19 -7 -21 -30 -4 -40 8 -5 9 -2 5 9 -3 9 -1 19 5 23
6 4 8 3 4 -4 -3 -6 -2 -13 3 -17 6 -3 9 -11 7 -18 -1 -7 -1 -8 2 -4 2 5 14 -1
27 -13 17 -16 25 -18 30 -9 5 7 4 10 -3 5 -6 -3 -13 -2 -17 4 -7 11 28 14 38
3 4 -3 1 -13 -6 -21 -9 -13 -9 -14 1 -8 6 4 12 2 12 -3 0 -6 5 -11 11 -11 8 0
7 5 -1 15 -12 14 -9 15 17 11 24 -5 32 -1 43 19 7 13 17 22 21 19 9 -5 4 30
-7 49 -5 7 0 6 11 -3 11 -9 16 -10 11 -2 -14 23 5 34 27 15 15 -12 18 -13 9
-2 -6 9 -9 18 -6 22 3 3 -2 4 -13 2 -10 -2 -18 -4 -18 -6 0 -1 -10 -3 -23 -4
-18 -2 -20 0 -11 11 9 11 7 15 -5 20 -9 3 -14 10 -11 14 8 12 -32 19 -44 7 -6
-6 -11 -7 -11 -2 0 5 -11 -2 -25 -15 -25 -23 -26 -23 -43 -6 -9 11 -12 16 -5
12 15 -8 27 11 29 47 2 32 -2 34 -16 7z"/>
</g>
</svg>
