<?xml version="1.0" encoding="UTF-8" standalone="no"?>
<svg
   version="1.0"
   width="1024.000000pt"
   height="1024.000000pt"
   viewBox="0 0 1024.000000 1024.000000"
   preserveAspectRatio="xMidYMid meet"
   id="svg10"
   sodipodi:docname="ã¸.svg"
   xmlns:inkscape="http://www.inkscape.org/namespaces/inkscape"
   xmlns:sodipodi="http://sodipodi.sourceforge.net/DTD/sodipodi-0.dtd"
   xmlns="http://www.w3.org/2000/svg"
   xmlns:svg="http://www.w3.org/2000/svg">
  <defs
     id="defs14" />
  <sodipodi:namedview
     id="namedview12"
     pagecolor="#ffffff"
     bordercolor="#666666"
     borderopacity="1.0"
     inkscape:pageshadow="2"
     inkscape:pageopacity="0.0"
     inkscape:pagecheckerboard="0"
     inkscape:document-units="pt" />
  <metadata
     id="metadata2">
Created by potrace 1.16, written by Peter Selinger 2001-2019
</metadata>
  <g
     transform="translate(0.000000,1024.000000) scale(0.100000,-0.100000)"
     fill="#000000"
     stroke="none"
     id="g8">
    <path
       d="m 3567,8104 c -183.7735,-0.9277 -472.3255,-70.9036 -361,-58 -106.9612,-31.1349 -315.6866,-97.8297 -295,-92 -105.6297,-54.5719 -499.0851,-280.0655 -376,-212 -132.5479,-113.6592 -475.945,-515.9089 -376.625,-373.5 -94.1261,-75.5155 -329.5561,-422.7799 -248.375,-323.5 -73.2366,-86.8345 -502.2896,-775.8249 -275,-415 -114.8589,-244.1853 -262.2611,-436.9961 -230.625,-389.375 -94.9845,-7.9517 -301.541,-646.2074 -187.875,-305.75 -19.7573,-81.2439 -69.3705,-264.7642 -55.5,-195.875 -14.4523,-55.8375 -54.7096,-177.9773 -41,-134 -25.3559,-59.5938 -133.27786,-396.1225 -98,-285 -12.5365,-180.2503 -85.56915,-289.7174 -41.5,-449 82.418,-78.1445 282.6857,-68.8405 230.5,-93 176.7969,41.3776 294.1784,131.4324 271,123 156.8927,85.9452 209.2642,317.5032 191,216.125 79.8918,10.8584 217.1663,205.8514 148,135.875 69.1256,49.6543 167.4217,194.523 132.625,132 75.0999,19.0304 167.0489,78.1668 105.375,82 87.6803,49.9302 68.4394,239.204 22,50 -77.1611,-76.8028 -71.2314,34.3879 -43,29 40.4312,17.6829 -39.455,130.4971 -1,87 18.3304,-16.9358 162.7982,17.0384 33,76 63.207,17.4191 199.5913,276.1525 168,154 9.1373,116.3348 24.8136,65.5283 32.5,50.125 14.0709,-11.9657 7.9015,131.3978 29.875,107.5 135.2404,146.8591 -27.3191,-47.2778 -40.375,-15.625 -116.481,77.4214 -48.7762,20.245 19,89 140.4548,167.0873 37.7866,-55.7993 75.5,2.375 -37.4888,-147.5365 128.3476,110.4998 149,57.5 -14.7876,62.924 -216.6295,1.1264 -113.375,26.25 81.7449,102.2915 27.6598,16.7438 95.875,145.875 80.9691,6.3166 50.1923,-79.4396 79.5,28.5 43.68,-10.3254 6.1982,-69.2274 104.5,36.5 23.5835,24.4653 123.7512,104.7207 118,101 54.1614,76.5161 248.3043,310.3995 190,234 71.5959,70.5253 396.3715,31.0324 325,53 146.2021,-29.0771 217.7386,-56.1339 156.875,-28.75 155.963,0.1186 373.2003,-182.762 310.125,-142.25 62.1608,-70.8776 249.3859,-217.9816 202.75,-181.875 126.7826,-63.29 217.3795,-155.9018 323.25,-233.125 22.1714,-52.6669 164.1085,-125.4736 134,-73 99.6851,-70.1869 249.2046,-255.0058 163,-170 65.5237,-92.9283 362.6563,-227.6073 225,-160 82.3036,-76.6795 212.9994,-195.5399 183,-114 69.8249,-60.428 169.681,-328.6764 145.625,-241.125 48.5085,-55.5986 128.0585,-260.3662 93.375,-204.875 56.3218,-112.7178 103.9575,-120.8798 130.75,-20 255.572,-164.2861 -190.9712,247.2617 207.875,-139.125 30.9191,101.3199 29.6051,-39.8562 51.375,-40.875 48.8787,-67.5576 220.9848,-261.9571 137,-203 41.2425,-58.9226 67.7817,-107.43 73.375,-106.875 72.7522,-68.9661 52.1525,-114.2598 167.625,-186.125 -106.7187,17.2589 79.164,-95.0499 88,-84 95.5982,-59.8605 292.1777,-164.3013 201,-127 -24.805,-44.0294 734.7569,-415.3997 213,-148 129.8798,-56.0819 204.8219,-166.3835 145,-115 44.3575,-60.9203 222.0499,-111.5932 197,-108 79.2939,-75.6452 169.3073,-175.5176 151,-155 122.1947,-153.8511 274.1863,-264.7096 210.8281,-210.1875 -5.7456,-47.0025 418.1021,-328.501 233.6719,-218.4375 78.5672,-114.5798 263.2483,-244.218 181.625,-167.75 -24.4231,4.5501 152.8723,-171.3846 106.625,-119.125 75.1614,-151.6754 215.1569,165.881 125.25,-121.5 -10.0301,26.4205 226.1447,-170.327 119,-39 129.51,1.527 19.8078,-105.1223 43.75,15.875 -13.4077,128.3737 -104.3439,-70.2654 -116.75,76.125 -92.9855,151.8057 70.626,148.338 28.125,54 -111.7406,26.261 -53.1729,36.759 46.125,-43.25 122.5594,70.9248 34.4091,-134.5407 88.75,-93.75 13.6703,43.9792 158.3295,80.6222 76,-36 -25.1396,-83.6141 -148.9728,-74.5995 -83.5,-92.625 99.6012,-18.8988 113.2502,-26.0063 132.5,8.625 1.649,87.5179 127.6739,13.4507 38,57 -106.3172,75.1112 -163.3661,125.0226 -43,93 63.7928,-27.5633 93.7792,127.2362 74,166 28.7682,-22.526 1.1877,104.8465 55.875,-30.375 -9.5721,31.6697 7.6106,-141.1752 -23.6406,-103.875 2.408,81.175 82.0801,-10.7665 55.7656,26.375 71.2332,-80.8748 61.7972,-102.0964 -27,-117.125 -38.8091,57.396 -5.9693,-59.6224 -45,4 19.4375,-47.8759 252.7397,-163.5988 138,-101 130.4013,158.7188 81.0017,-140.5288 36.625,119.375 139.6664,-6.4872 234.5287,48.8605 169,42.125 92.4006,12.6914 -99.0871,157.8764 -70.625,95.5 -8.1785,-33.828 -88.1953,35.3492 -65,-3 41.3316,63.4243 218.9495,87.783 139,78 -127.3602,-29.2429 82.3456,88.9921 119,-26 52.3684,62.1969 -153.2913,160.427 -38.375,63.125 -146.147,112.8804 87.8762,90.1611 -67.625,236.875 -139.4935,50.0387 -46.0863,92.4995 -181,71 130.8569,-37.5034 -17.4857,-33.7407 -21,29 -12.2772,53.2774 -24.6952,-37.2703 -63,-10 48.7157,-154.9801 130.6459,-20.3922 8.5,-127.125 27.1176,-17.2345 79.0225,-120.451 -21.5,-99.875 -12.8591,72.0506 -123.2613,59.8286 -44,-24 6.3122,68.3518 -48.4667,55.0204 -25,-41 -65.5767,-41.0301 60.3696,82.8987 27,82 -91.6474,94.2715 106.8683,192.3324 93.6875,66.1562 -65.0239,14.6845 -82.7046,-95.4176 -72.6875,62.8438 -10.3799,28.5597 -151.9107,49.5567 -12.75,55.625 135.0006,78.2161 -73.6666,56.1958 -58.25,45.375 -93.4978,-0.9851 -190.8363,-89.6483 -98,-47 22.5664,-46.1374 97.1989,-118.7859 5,-137 -30.5209,-92.4419 -30.6972,103.5492 -62,34 -50.4733,19.6951 -64.957,174.1142 -37,124.375 69.3074,-1.7077 51.5713,-0.2725 167.125,85.75 19.3861,-59.3847 31.2195,138.3862 46,73 -76.8564,110.7135 22.0476,-28.6501 -53.125,-1 39.296,42.5228 -63.6278,-24.1985 -21,-25.125 -9.4207,25.0278 -187.3125,203.0195 -160.75,186.125 -90.5888,46.9846 -83.3313,94.9979 -92.25,100.875 -90.6304,46.0011 -301.2237,322.3949 -217.375,231.5 -49.9884,35.5832 -140.6315,149.7769 -113.625,127.5 -50.9482,87.4226 -168.9145,245.4735 -133.375,177.75 -40.4262,40.8311 -93.2454,114.7131 -87.625,97.25 -80.0164,109.5704 -108.7189,107.5306 -192,248 -77.6698,86.7974 -235.1691,302.2634 -180,229 -82.7746,69.9921 -55.8781,85.923 -149,185 -50.7315,63.6211 -164.7174,189.9129 -117,136 -85.7823,110.4398 -135.7022,218.1432 -125,187 -73.3037,53.3668 -204.1583,259.8927 -148,173 -89.2308,56.7819 -272.3502,255.8543 -191,208 -72.4932,58.5067 -321.1827,275.2752 -205.75,200.75 -52.0874,99.9218 -117.964,300.4783 -115.375,224.75 -49.3644,-53.101 -110.3466,-24.8809 -55.875,74.5 44.1056,127.4618 -173.6781,294.5827 -152,218 25.0651,104.8097 -200.748,248.9664 -141,188 -57.052,63.9769 -328.3254,227.0692 -235,180 -61.5591,33.4663 -175.5103,170.6427 -168.75,136.5 -36.9041,208.2973 -109.3258,23.8419 -79.75,0.5 -93.457,-60.3507 -42.6764,-15.9655 -16.5,86 -25.3853,-324.5767 -655.9673,711.8684 -342,223 -112.3207,129.7873 -258.2648,192.7622 -381,305 -97.8819,56.9106 -414.6756,243.1817 -302,180 -118.7364,71.1801 -514.349,218.5574 -383,158.125 -27.5514,-17.8796 -149.8536,10.7745 -165,14.875 z M 1387,5605 c 13.6367,-70.5727 -128.1548,-80.0348 -77,-25 -29.1006,-58.1197 1.1684,-100.3363 -47.375,-110.375 80.5788,-51.9283 82.1287,69.075 67.875,69 75.0558,113.9941 -42.9631,-307.5363 -26.125,-140.75 -29.3263,-73.1459 -138.5158,-80.0963 -72.5,-89.875 34.5651,-156.3828 95.0016,20.3065 18.25,44.625 -54.6118,29.7479 30.9598,312.2436 136.875,252.375 z M 8270,3318 c -31.2316,-45.5148 12.9696,-148.7691 -51,-168 83.4315,-153.9635 -83.2956,-24.5548 -119,-118 -137.904,88.8472 -1.3217,53.8124 -5,200 -52.4215,61.6612 -52.3969,-122.7104 10,-52 80.701,76.6133 144.9842,156.2396 115,105 23.4857,13.883 15.1517,81.2358 50,33 z"
       id="path4" />
    <path
       d="m 8105,2934 c -152.4446,-52.0954 94.6016,-73.1363 -10,-114 11.2159,37.1923 94.44,179.5742 10,114 z"
       id="path6" />
  </g>
</svg>
