<?xml version="1.0" standalone="no"?>
<!DOCTYPE svg PUBLIC "-//W3C//DTD SVG 20010904//EN"
 "http://www.w3.org/TR/2001/REC-SVG-20010904/DTD/svg10.dtd">
<svg version="1.0" xmlns="http://www.w3.org/2000/svg"
 width="1024.000000pt" height="1024.000000pt" viewBox="0 0 1024.000000 1024.000000"
 preserveAspectRatio="xMidYMid meet">
<metadata>
Created by potrace 1.16, written by Peter Selinger 2001-2019
</metadata>
<g transform="translate(0.000000,1024.000000) scale(0.100000,-0.100000)"
fill="#000000" stroke="none">
<path d="M7716 9442 c-3 -5 -17 -7 -32 -4 -16 3 -29 -1 -35 -9 -5 -8 -9 -9 -9
-4 0 6 -9 11 -19 11 -16 0 -18 -3 -8 -15 10 -12 9 -13 -2 -6 -19 11 -87 8
-165 -9 -36 -7 -68 -11 -71 -8 -3 3 -5 1 -5 -4 0 -6 -27 -16 -60 -23 -33 -8
-60 -17 -60 -22 0 -5 -3 -8 -7 -8 -26 4 -63 -2 -59 -10 3 -5 -7 -11 -22 -14
-67 -14 -89 -21 -114 -38 -14 -11 -31 -19 -37 -19 -6 0 -11 -4 -11 -9 0 -5
-16 -15 -34 -22 -19 -7 -32 -17 -29 -22 3 -5 0 -8 -8 -5 -11 4 -149 -79 -186
-112 -7 -6 -13 -8 -13 -5 0 4 -6 0 -14 -7 -34 -33 -67 -58 -77 -58 -5 0 -7 -4
-4 -10 5 -8 -10 -15 -18 -7 -5 5 -244 -238 -240 -245 2 -5 -1 -8 -6 -8 -6 0
-11 -5 -11 -11 0 -15 -26 -39 -34 -32 -3 4 -6 -1 -6 -10 0 -11 -5 -14 -17 -10
-12 5 -14 3 -9 -8 4 -8 0 -5 -8 5 -11 14 -16 15 -16 6 0 -37 -21 11 -23 53 -1
25 -5 49 -9 52 -4 4 -3 18 3 32 5 14 5 22 0 19 -5 -4 -11 18 -14 46 -6 65 -15
104 -32 143 -8 17 -14 33 -14 37 -2 19 -146 170 -176 185 -39 20 -151 56 -185
59 -111 10 -287 -3 -314 -25 -6 -5 -19 -7 -28 -6 -10 2 -20 -1 -24 -6 -3 -5
-10 -7 -15 -4 -5 4 -9 1 -9 -5 0 -6 -4 -9 -9 -5 -5 3 -12 1 -16 -5 -4 -6 -11
-8 -16 -5 -5 4 -12 -1 -15 -9 -3 -9 -10 -13 -16 -10 -5 3 -18 -2 -29 -12 -10
-9 -19 -13 -19 -8 0 5 -7 1 -14 -9 -8 -10 -20 -16 -27 -15 -8 2 -13 -3 -11
-11 3 -12 0 -12 -12 -2 -13 11 -17 10 -22 -3 -3 -9 -10 -14 -14 -11 -5 3 -11
1 -15 -4 -3 -6 -13 -7 -22 -4 -11 4 -14 3 -9 -5 4 -7 1 -12 -8 -12 -28 0 -31
-1 -38 -14 -4 -7 -21 -12 -37 -11 -17 1 -29 -3 -28 -9 1 -6 -6 -10 -16 -8 -11
2 -37 -9 -59 -23 -22 -15 -37 -21 -33 -14 9 14 -10 5 -37 -19 -13 -11 -18 -11
-18 -3 0 8 -5 7 -16 -4 -9 -8 -13 -22 -10 -31 3 -8 2 -12 -4 -9 -6 3 -10 13
-10 20 0 20 -47 -2 -53 -24 -4 -13 -5 -12 -6 3 -1 15 -4 16 -16 6 -8 -7 -15
-9 -15 -4 0 5 -5 2 -10 -6 -9 -13 -11 -13 -21 0 -8 12 -9 12 -6 -5 2 -11 9
-19 16 -17 7 1 9 -2 6 -9 -5 -8 -10 -8 -18 0 -13 13 -47 15 -47 3 0 -5 -6 -9
-12 -10 -30 -2 -73 -14 -98 -27 -15 -8 -31 -11 -35 -7 -5 4 -6 0 -3 -9 4 -9 1
-16 -8 -16 -7 0 -11 4 -8 9 3 4 -2 5 -11 2 -12 -5 -13 -9 -4 -20 10 -12 9 -13
-5 -8 -11 4 -23 -1 -32 -12 -9 -11 -13 -14 -10 -8 3 6 -1 11 -9 11 -8 0 -12
-4 -9 -8 3 -5 -8 -12 -23 -15 -15 -4 -33 -14 -40 -23 -7 -9 -13 -12 -13 -8 0
5 -7 1 -16 -8 -9 -9 -22 -14 -29 -11 -8 3 -16 -1 -18 -8 -3 -7 -19 -16 -37
-19 -20 -5 -29 -11 -24 -18 4 -7 3 -9 -3 -6 -11 7 -63 -14 -63 -25 0 -5 -9 -8
-19 -8 -11 0 -22 -4 -26 -10 -3 -5 -12 -7 -21 -3 -8 3 -23 -2 -33 -11 -15 -14
-20 -14 -24 -4 -4 9 -6 9 -6 1 -1 -7 -8 -10 -16 -7 -10 4 -15 0 -15 -12 0 -15
-2 -16 -9 -5 -6 9 -11 10 -15 2 -4 -6 -12 -9 -17 -6 -5 4 -9 1 -9 -5 0 -7 -7
-10 -15 -6 -8 3 -15 1 -15 -5 0 -5 -11 -7 -25 -5 -14 3 -25 0 -25 -6 0 -5 -7
-8 -15 -5 -8 4 -17 2 -19 -2 -3 -5 -22 -6 -42 -4 -34 4 -36 3 -23 -14 12 -16
12 -17 -1 -7 -23 17 -63 25 -51 10 10 -12 -55 -13 -86 -2 -7 3 -13 1 -13 -5 0
-6 -4 -8 -9 -4 -5 3 -12 1 -16 -5 -4 -7 -12 -7 -26 0 -14 8 -19 7 -19 -2 0 -9
-3 -9 -11 -1 -9 9 -15 8 -26 -3 -11 -11 -19 -12 -28 -4 -10 8 -14 7 -18 -2 -4
-8 -6 -9 -6 -1 -1 6 -10 9 -21 6 -11 -3 -17 -9 -14 -14 3 -5 -2 -6 -10 -3 -10
4 -16 1 -16 -7 0 -11 -2 -11 -10 1 -8 12 -10 12 -16 -3 -3 -9 -10 -14 -15 -11
-5 3 -31 -18 -58 -45 -28 -28 -48 -51 -45 -51 2 0 -3 -11 -12 -25 -8 -13 -13
-29 -9 -35 3 -5 2 -10 -4 -10 -5 0 -8 -9 -6 -19 3 -15 -1 -18 -12 -14 -13 5
-14 3 -6 -12 6 -10 8 -26 6 -35 -8 -29 15 -64 33 -49 12 10 13 9 9 -3 -6 -16
20 -32 36 -22 5 3 9 -2 9 -11 0 -9 5 -13 10 -10 6 4 18 1 27 -7 14 -11 16 -11
8 2 -4 8 4 4 20 -10 16 -14 25 -20 21 -13 -5 9 9 12 56 11 41 -1 63 2 66 11 3
8 8 7 16 -5 10 -13 15 -14 21 -4 6 9 4 11 -5 5 -9 -6 -11 -4 -6 4 6 9 13 8 27
-5 16 -14 19 -15 14 -3 -3 9 2 22 12 30 17 13 17 13 3 -5 -16 -21 -6 -21 43
-1 14 6 16 4 10 -11 -7 -18 -6 -18 11 -1 18 18 41 24 32 8 -4 -5 3 -7 14 -4
11 3 18 8 15 12 -5 10 27 7 42 -2 7 -5 22 -3 34 4 16 8 23 8 29 -1 5 -8 10 -9
14 -2 4 6 24 10 46 9 28 -2 41 2 44 13 2 10 4 9 5 -4 1 -20 1 -20 17 0 8 10
13 14 10 8 -3 -7 1 -14 9 -18 8 -3 14 0 12 6 -1 6 4 13 12 16 9 3 11 0 6 -8
-5 -8 1 -7 15 3 18 12 27 14 37 5 8 -6 13 -7 13 0 0 8 19 12 72 13 10 0 17 3
17 7 -3 20 3 25 12 12 8 -11 12 -12 16 -2 5 13 29 16 36 5 2 -5 2 -3 1 4 -4
17 21 24 36 10 7 -7 10 -7 7 -1 -3 5 7 15 24 21 22 9 28 8 23 0 -3 -7 2 -3 10
7 9 11 16 14 16 8 0 -10 3 -10 14 0 8 7 12 16 10 19 -2 3 7 5 19 4 12 -1 35 7
51 18 16 12 26 15 22 8 -7 -10 -4 -10 12 0 12 7 18 18 14 24 -3 5 2 4 11 -4
12 -9 17 -10 17 -2 0 7 4 10 9 7 5 -3 12 2 15 11 6 15 8 15 16 3 8 -12 10 -12
10 -1 0 8 6 11 16 7 10 -4 13 -2 8 6 -5 8 -2 9 9 5 10 -3 17 -2 17 4 0 6 4 8
9 4 6 -3 14 3 20 12 7 12 10 13 11 4 0 -11 3 -11 15 -1 9 7 18 10 21 7 4 -3
15 2 26 12 11 11 28 17 39 14 10 -3 26 0 34 7 8 6 18 9 24 6 5 -4 17 1 25 10
12 11 16 12 16 2 0 -10 3 -9 10 2 8 13 10 13 10 0 0 -11 3 -11 12 -2 15 15 31
16 22 0 -4 -7 -3 -8 5 -4 6 4 9 12 6 17 -4 5 1 9 9 9 9 0 16 6 16 13 0 9 2 9
9 -1 6 -11 10 -10 15 4 3 9 9 14 13 10 3 -3 16 0 28 8 14 9 27 11 36 5 18 -11
32 -11 25 0 -4 5 4 7 16 3 14 -3 19 -1 14 6 -8 14 36 27 59 18 10 -3 13 -2 10
5 -6 9 25 24 41 19 4 -1 10 4 14 11 5 6 19 13 32 13 12 1 29 5 36 9 6 5 17 5
24 1 7 -4 8 -3 4 4 -6 11 5 15 30 11 4 0 11 5 15 13 7 10 9 10 9 -2 0 -11 2
-12 8 -2 5 7 18 14 31 17 12 2 19 0 16 -5 -3 -6 1 -7 9 -4 9 3 16 11 16 16 0
6 8 4 17 -3 11 -9 14 -10 10 -2 -9 14 34 29 58 19 8 -3 15 -2 15 3 0 4 7 8 15
8 10 0 14 -6 10 -16 -3 -8 -3 -12 1 -9 13 14 35 -23 37 -62 1 -22 5 -40 9 -40
4 0 8 -7 8 -16 0 -11 5 -14 16 -10 11 4 15 2 11 -8 -4 -11 -1 -13 10 -9 12 5
14 3 8 -8 -6 -11 -5 -12 5 -2 12 11 11 15 -6 28 -18 14 -18 15 0 8 13 -4 17
-2 14 8 -3 8 -1 23 5 34 9 18 9 19 -6 6 -10 -8 -17 -9 -17 -3 0 6 8 16 18 21
15 9 15 10 1 11 -19 0 -31 -23 -23 -43 3 -8 -3 -20 -12 -28 -16 -12 -17 -12
-11 3 3 10 0 28 -7 42 -16 31 -9 99 10 92 7 -3 16 0 20 6 4 6 3 8 -4 4 -6 -3
-13 -2 -17 4 -3 6 2 13 12 17 10 4 23 14 30 22 10 14 12 13 8 -7 -4 -20 -2
-22 11 -11 8 7 14 8 13 3 -4 -16 13 -44 22 -38 5 3 9 1 9 -3 0 -12 -38 -43
-53 -43 -9 0 -9 -2 0 -8 14 -9 10 -116 -5 -135 -5 -7 -8 -22 -7 -34 1 -12 -3
-21 -8 -20 -5 1 -16 -9 -25 -23 -9 -13 -11 -21 -4 -16 6 4 12 2 12 -3 0 -6 -4
-11 -8 -11 -4 0 -8 -8 -9 -17 -3 -44 -8 -63 -15 -63 -4 0 -8 -7 -8 -16 0 -9
-8 -23 -17 -31 -10 -8 -12 -12 -6 -8 9 4 11 1 7 -9 -3 -9 -11 -13 -17 -9 -7 4
-8 0 -3 -12 6 -16 4 -16 -11 -4 -9 8 -14 9 -10 2 4 -6 3 -14 -3 -18 -5 -3 -10
-1 -10 5 0 6 -11 -1 -25 -16 -14 -15 -25 -31 -25 -36 0 -5 -4 -6 -10 -3 -5 3
-10 2 -10 -3 0 -14 -82 -102 -96 -102 -7 0 -16 -9 -19 -20 -4 -11 -11 -18 -16
-14 -5 3 -15 -8 -22 -25 -7 -17 -15 -29 -18 -27 -3 3 -6 -11 -7 -32 -2 -20 -6
-39 -10 -42 -4 -3 -8 -10 -9 -16 -7 -37 -13 -63 -22 -91 -5 -18 -7 -33 -4 -33
3 0 1 -6 -4 -12 -5 -7 -10 -29 -12 -48 -2 -19 -8 -41 -14 -49 -9 -12 -9 -13 1
-7 6 4 12 2 12 -3 0 -6 -4 -11 -8 -11 -11 0 -11 -9 -12 -155 -1 -143 3 -174
21 -186 9 -5 10 -9 2 -9 -19 0 8 -58 49 -104 37 -42 48 -44 51 -7 1 11 5 21
10 21 4 0 6 4 3 9 -10 15 5 40 20 34 8 -3 14 0 14 6 0 6 7 11 16 11 8 0 13 4
10 9 -4 5 5 8 19 6 16 -1 25 3 25 11 0 8 4 14 9 14 5 0 12 11 15 25 4 14 11
25 17 25 6 0 7 -5 3 -12 -4 -7 -3 -8 5 -4 8 6 9 12 2 20 -8 9 -6 18 4 32 11
13 14 15 13 4 -2 -8 -7 -18 -11 -21 -5 -3 -1 -9 8 -12 9 -4 13 -3 10 3 -3 6 0
10 7 10 8 0 9 3 3 8 -14 10 -18 42 -5 42 6 0 8 6 4 13 -6 9 -5 9 7 0 19 -15
49 -11 64 10 7 9 16 13 20 9 5 -4 5 1 2 10 -4 13 -2 15 10 11 10 -4 14 -2 10
4 -4 6 -1 18 7 26 8 8 12 18 8 22 -4 5 -1 5 6 1 7 -4 12 -1 12 8 0 9 4 16 9
16 13 0 0 -41 -15 -47 -7 -2 -11 -13 -9 -24 2 -10 -1 -18 -8 -16 -7 1 -11 -4
-9 -10 1 -7 -3 -13 -9 -13 -5 0 -8 -4 -4 -9 3 -5 0 -13 -6 -16 -5 -4 -8 -13
-5 -20 2 -7 -2 -16 -11 -20 -12 -4 -13 -9 -5 -17 8 -8 8 -17 1 -30 -5 -10 -7
-18 -3 -18 3 0 1 -7 -6 -15 -11 -13 -10 -14 6 -9 15 5 14 3 -3 -10 -22 -17
-33 -43 -13 -31 13 8 9 -17 -4 -27 -5 -3 -11 -14 -13 -22 -5 -28 -9 -40 -22
-81 -8 -22 -16 -44 -20 -50 -3 -5 -4 -18 -3 -27 2 -10 -1 -18 -6 -18 -5 0 -9
-6 -9 -12 -3 -35 -11 -79 -17 -85 -3 -3 -1 -12 5 -20 9 -10 8 -13 -2 -13 -11
0 -11 -2 1 -10 8 -5 10 -10 4 -10 -7 0 -14 -20 -16 -45 -2 -25 1 -45 5 -45 5
0 5 -6 1 -12 -5 -9 -2 -8 9 1 14 11 15 16 5 29 -11 13 -10 15 4 9 12 -4 15 -2
11 8 -3 8 -10 12 -15 9 -6 -4 -2 6 8 21 10 16 20 34 21 42 2 7 4 20 6 28 2 8
9 21 17 28 10 10 11 9 4 -3 -11 -19 -15 -37 -17 -77 -1 -18 -4 -33 -8 -33 -3
0 -4 -16 -3 -35 2 -20 0 -34 -4 -31 -4 2 -7 -225 -6 -505 0 -330 -3 -509 -9
-509 -6 0 -7 -3 -4 -7 4 -3 -1 -15 -10 -26 -10 -11 -12 -17 -5 -13 6 4 12 5
12 2 0 -9 -62 -36 -71 -30 -5 3 -9 1 -9 -5 0 -10 -38 -27 -52 -23 -5 1 -8 -3
-8 -8 0 -6 -9 -10 -21 -10 -11 0 -18 -3 -16 -7 2 -5 -15 -17 -39 -29 -24 -11
-40 -16 -37 -11 4 6 -4 3 -18 -6 -13 -9 -29 -17 -37 -17 -12 0 -23 -7 -57 -38
-8 -7 -17 -13 -20 -12 -21 1 -25 -1 -19 -11 4 -7 -1 -10 -12 -7 -10 2 -26 -4
-36 -12 -35 -31 -44 -36 -57 -32 -8 3 -11 0 -7 -6 3 -6 -3 -13 -14 -17 -11 -3
-20 -11 -20 -16 0 -5 -4 -8 -9 -6 -5 1 -18 -9 -30 -22 -12 -13 -21 -19 -21
-12 0 9 -3 9 -12 1 -7 -6 -28 -20 -46 -31 -18 -11 -30 -24 -27 -29 4 -6 -1 -7
-11 -3 -12 4 -15 3 -10 -5 5 -8 0 -12 -14 -12 -14 0 -19 -4 -14 -12 5 -8 2 -9
-9 -5 -12 5 -17 1 -17 -13 0 -11 -3 -19 -7 -19 -21 3 -32 -3 -38 -21 -4 -11
-11 -17 -17 -14 -8 5 -9 1 -4 -11 6 -16 4 -16 -11 -4 -9 8 -14 9 -10 3 3 -6
-5 -17 -18 -24 -13 -7 -22 -16 -20 -21 3 -4 -6 -6 -19 -5 -18 2 -23 -1 -18
-12 3 -9 1 -13 -5 -9 -6 4 -14 0 -17 -9 -3 -8 -10 -13 -14 -10 -5 3 -21 -4
-38 -15 -16 -10 -33 -19 -39 -19 -5 1 1 8 15 16 17 10 18 13 5 8 -11 -3 -25
-7 -32 -7 -7 0 -10 -4 -7 -9 3 -4 1 -8 -5 -8 -11 0 -29 -62 -28 -93 0 -10 6
-16 13 -13 9 3 11 -3 8 -20 -2 -13 0 -24 6 -24 6 0 8 5 5 10 -3 6 -1 10 4 10
14 0 14 -6 -1 -30 -9 -14 -10 -23 -3 -28 6 -4 10 -29 10 -57 0 -27 4 -56 10
-64 7 -11 7 -13 -2 -7 -9 5 -13 0 -13 -14 0 -12 4 -19 9 -15 5 3 13 0 17 -6 4
-7 3 -9 -4 -5 -6 3 -13 2 -17 -4 -3 -5 -1 -10 5 -10 6 0 8 -5 4 -11 -9 -15 17
-60 30 -52 6 4 5 -1 -3 -10 -9 -11 -10 -17 -2 -17 6 0 11 -11 11 -25 0 -14 5
-25 10 -25 7 0 7 -6 1 -18 -7 -14 -5 -22 9 -32 14 -10 16 -17 9 -26 -7 -9 -4
-14 10 -19 11 -3 20 -11 18 -17 -1 -6 12 -18 28 -28 27 -15 32 -15 53 -2 29
19 21 28 -10 11 -23 -12 -23 -12 2 14 23 25 26 25 39 9 13 -16 13 -16 8 1 -4
9 -2 17 3 17 6 0 10 4 10 10 0 5 -6 8 -12 6 -7 -1 -9 -1 -5 2 4 2 1 9 -8 16
-15 10 -14 12 4 12 11 0 18 -3 15 -7 -2 -4 3 -9 11 -13 17 -6 30 10 15 19 -6
4 -8 11 -5 16 4 5 1 9 -6 9 -32 0 12 17 51 19 13 1 13 2 0 11 -13 8 -13 10 2
10 9 0 19 -6 21 -12 3 -8 6 -6 6 5 1 9 6 17 11 17 6 0 10 9 10 20 0 14 5 18
17 13 12 -5 14 -3 8 7 -6 10 -4 12 9 7 10 -4 15 -3 11 3 -3 6 -1 10 6 10 8 0
8 4 -2 16 -11 13 -11 15 2 14 25 -4 39 0 39 10 0 5 -8 7 -17 4 -17 -5 -17 -5
0 6 9 6 14 16 11 22 -4 7 -2 8 5 4 6 -4 9 -12 6 -17 -10 -15 3 -11 40 13 19
13 35 27 35 32 0 5 -9 1 -19 -8 -12 -11 -21 -14 -26 -7 -6 11 -5 12 14 15 5 0
13 4 17 8 4 4 13 3 21 -3 10 -9 13 -8 13 0 0 7 5 9 13 5 7 -5 6 0 -3 11 -14
17 -14 18 10 5 22 -12 24 -12 12 2 -10 13 -9 15 13 13 14 -2 23 2 22 8 -1 7 4
11 11 10 6 -2 12 1 12 6 0 5 -6 12 -12 15 -7 3 2 3 21 0 28 -4 32 -2 27 12 -5
14 -4 15 8 5 10 -8 16 -9 21 -1 3 6 10 8 15 5 5 -3 7 4 5 16 -4 21 -4 21 15 4
21 -19 28 -7 9 12 -9 9 -5 11 15 9 18 -2 26 1 22 9 -3 8 4 11 20 9 13 -1 24 2
24 7 0 6 5 7 10 4 6 -3 13 1 16 10 5 13 9 13 22 3 11 -9 13 -9 9 -1 -4 6 -3
14 3 18 5 3 10 0 10 -7 0 -9 3 -10 8 -2 4 6 15 10 24 9 10 -2 15 2 12 10 -4 8
3 11 23 9 16 -1 36 5 47 14 15 13 17 13 11 2 -7 -13 -6 -13 7 -2 8 7 23 10 32
6 12 -5 15 -2 10 12 -3 11 1 8 9 -6 10 -15 12 -29 6 -36 -5 -6 -6 -14 -2 -18
4 -4 8 -52 8 -106 0 -54 4 -102 8 -106 4 -4 2 -13 -4 -21 -9 -10 -8 -13 2 -13
9 0 10 -3 4 -8 -14 -9 -13 -65 0 -74 6 -5 6 -8 -1 -8 -14 0 -13 -182 1 -192 7
-5 6 -8 -1 -8 -12 0 -13 -78 -1 -97 5 -8 3 -13 -4 -13 -8 0 -7 -5 2 -17 8 -9
9 -14 4 -11 -11 7 -12 -83 -1 -101 4 -5 3 -12 -1 -14 -10 -6 -9 -260 1 -276 4
-6 1 -11 -6 -11 -10 0 -10 -2 -1 -8 8 -5 9 -13 3 -22 -13 -21 -13 -63 1 -55 6
4 5 -3 -3 -14 -11 -18 -11 -23 2 -31 8 -5 10 -10 4 -10 -7 0 -11 -39 -12 -114
0 -63 -3 -120 -7 -125 -3 -6 -3 -11 2 -11 4 0 9 -24 10 -53 2 -51 8 -99 13
-104 4 -4 7 -20 9 -39 0 -8 5 -13 10 -9 5 3 12 1 16 -5 3 -5 2 -10 -4 -10 -6
0 -8 -6 -5 -13 8 -22 -21 -53 -38 -39 -11 9 -17 9 -26 0 -7 -7 -12 -8 -12 -3
0 6 -16 10 -35 10 -19 0 -35 -4 -35 -8 0 -5 -6 -5 -12 0 -16 9 -98 12 -98 3 0
-4 -7 -7 -15 -7 -8 0 -15 4 -15 9 0 5 -5 6 -10 3 -6 -4 -25 -9 -43 -11 -38 -5
-72 -12 -72 -14 0 -1 -9 -3 -20 -5 -11 -1 -33 -6 -50 -10 -16 -4 -38 -7 -47
-8 -9 -1 -14 -6 -11 -11 4 -5 -1 -7 -10 -3 -9 3 -23 0 -31 -8 -7 -8 -16 -11
-20 -8 -3 3 -12 0 -21 -7 -8 -7 -15 -9 -15 -5 0 4 -7 2 -15 -5 -8 -7 -15 -10
-15 -6 0 4 -11 -1 -25 -10 -14 -9 -28 -14 -31 -11 -3 3 -14 -3 -25 -14 -11
-11 -24 -17 -28 -14 -5 2 -14 -2 -21 -10 -7 -8 -18 -15 -26 -15 -7 0 -18 -8
-23 -17 -6 -10 -11 -14 -11 -9 0 4 -11 1 -25 -8 -14 -9 -25 -13 -25 -9 0 5 -5
0 -11 -9 -5 -10 -17 -18 -24 -18 -8 0 -15 -5 -15 -11 0 -5 -5 -7 -10 -4 -6 3
-13 -1 -16 -9 -3 -9 -12 -16 -19 -16 -7 0 -15 -7 -19 -15 -3 -8 -10 -15 -16
-15 -7 0 -25 -13 -42 -29 -16 -16 -43 -41 -59 -57 -16 -15 -29 -31 -29 -36 0
-5 -4 -6 -10 -3 -5 3 -10 2 -10 -3 0 -6 -22 -32 -50 -60 -27 -27 -47 -52 -44
-55 3 -3 -4 -10 -15 -17 -12 -6 -19 -15 -16 -19 3 -5 -2 -12 -11 -15 -9 -4
-14 -9 -11 -12 3 -4 -3 -15 -14 -27 -10 -11 -19 -27 -19 -34 0 -8 -4 -11 -10
-8 -5 3 -10 -1 -10 -9 0 -9 -4 -16 -10 -16 -5 0 -10 -7 -10 -15 0 -8 -5 -15
-12 -15 -6 0 -9 -3 -5 -6 3 -4 -1 -21 -10 -38 -10 -17 -18 -33 -18 -36 -4 -13
-17 -47 -26 -62 -5 -10 -9 -24 -9 -32 0 -8 -7 -22 -16 -30 -8 -9 -11 -16 -5
-16 5 0 2 -19 -9 -42 -10 -23 -17 -45 -14 -49 2 -4 -2 -9 -9 -12 -7 -3 -12
-18 -11 -33 0 -16 -2 -31 -7 -34 -4 -3 -10 -23 -12 -45 -3 -22 -9 -53 -14 -70
-5 -16 -8 -41 -7 -55 1 -14 -2 -29 -6 -35 -9 -12 -8 -201 2 -210 4 -4 3 -16
-3 -26 -5 -11 -6 -19 -1 -19 6 0 10 -27 10 -60 0 -34 2 -64 6 -67 3 -3 0 -13
-7 -21 -9 -13 -9 -14 1 -8 6 4 12 4 13 -1 0 -4 2 -15 4 -23 2 -8 5 -26 8 -40
8 -35 28 -93 38 -106 5 -6 6 -14 3 -17 -3 -3 -2 -12 2 -19 5 -7 9 -19 10 -26
2 -8 6 -21 10 -30 4 -9 8 -24 9 -32 5 -30 10 -45 23 -58 7 -8 10 -18 7 -23 -4
-5 1 -9 9 -9 10 0 13 -7 11 -20 -2 -11 0 -18 4 -16 4 3 14 -6 21 -19 7 -14 17
-25 22 -25 5 0 6 -4 3 -10 -3 -5 2 -10 11 -10 10 0 15 -3 12 -6 -4 -3 2 -14
13 -25 11 -11 17 -24 14 -29 -3 -5 3 -7 15 -5 11 2 19 1 19 -3 -4 -22 3 -33
15 -29 10 4 13 1 9 -9 -3 -8 1 -14 11 -14 9 0 16 -7 16 -16 0 -10 5 -14 16
-10 8 3 13 2 11 -2 -6 -9 39 -52 47 -45 3 4 6 1 6 -6 0 -7 5 -9 10 -6 6 3 10
1 10 -4 0 -6 7 -11 15 -11 8 0 15 -5 15 -11 0 -5 4 -8 10 -4 5 3 19 -4 30 -15
12 -12 28 -19 36 -16 9 3 12 1 9 -4 -6 -9 23 -15 54 -10 12 1 12 -1 3 -12 -9
-12 -6 -14 18 -12 16 1 33 5 40 9 6 3 10 3 9 -2 -3 -20 2 -25 16 -13 12 10 15
10 15 0 0 -10 3 -10 15 0 13 11 18 8 17 -10 0 -3 11 -5 24 -5 21 0 22 1 8 12
-14 10 -12 11 11 9 15 -2 31 -9 37 -17 8 -11 9 -10 4 4 -5 15 -1 17 24 13 17
-2 30 0 30 6 0 6 7 4 17 -3 14 -12 15 -12 9 0 -7 10 -4 12 12 7 11 -4 23 -2
27 3 4 7 -1 8 -12 5 -15 -5 -15 -4 -3 4 10 7 18 8 26 1 9 -7 19 -4 33 10 13
13 21 16 25 8 2 -7 5 -4 5 7 1 15 4 16 15 7 10 -8 16 -9 21 -1 3 6 11 7 17 4
7 -4 8 -2 4 5 -6 9 -12 9 -24 -1 -15 -10 -15 -10 -4 2 7 8 18 15 25 16 7 0 20
2 30 2 11 1 15 7 11 13 -5 8 1 10 20 7 22 -5 24 -3 14 10 -11 13 -9 14 12 7
24 -7 24 -7 5 9 -19 15 -19 16 -1 9 14 -5 17 -3 11 6 -6 10 -3 11 13 2 18 -9
20 -8 17 7 -1 10 3 26 11 37 8 10 14 14 14 9 0 -6 -5 -15 -10 -20 -7 -7 -6
-11 4 -11 8 0 13 4 10 9 -3 4 10 22 28 40 18 17 25 26 15 18 -15 -11 -17 -11
-11 4 3 9 10 16 16 16 5 0 7 4 4 9 -3 5 2 15 12 22 15 13 16 12 3 -3 -7 -10
-9 -18 -3 -18 5 0 17 12 27 26 9 15 11 23 4 19 -8 -5 -10 -4 -5 3 4 7 14 12
23 12 9 0 13 6 9 15 -3 9 0 15 9 15 13 0 20 19 16 43 -1 5 3 6 9 2 5 -3 10 1
10 9 0 8 5 18 12 22 7 5 8 3 3 -6 -5 -9 -4 -11 4 -6 9 6 9 11 -1 24 -11 13
-11 14 1 7 11 -6 13 -3 9 12 -3 12 0 20 8 20 7 0 11 -4 8 -8 -2 -4 0 -11 6
-14 6 -4 10 -3 9 2 -5 31 2 45 16 33 18 -15 20 1 3 19 -7 7 -8 12 -3 11 22 -5
35 1 35 15 0 9 6 12 15 9 8 -4 15 -1 15 5 0 6 -4 11 -10 11 -5 0 -10 5 -10 11
0 5 5 7 10 4 6 -3 10 -1 10 4 0 6 5 11 11 11 5 0 7 -6 3 -12 -6 -11 6 -2 46
31 3 2 -3 1 -13 -2 -11 -4 -16 -3 -12 3 3 6 12 10 20 10 7 0 16 7 19 16 4 10
2 13 -7 9 -6 -4 -4 0 5 8 14 11 15 16 5 26 -9 10 -8 11 6 6 12 -5 17 -2 17 10
0 9 5 13 10 10 6 -4 10 5 10 20 0 14 4 24 8 21 4 -2 9 5 9 17 2 17 0 19 -7 7
-5 -8 -10 -10 -10 -4 0 6 10 19 23 28 12 9 16 14 10 11 -15 -7 -18 11 -3 20 6
3 10 15 10 26 0 10 5 19 12 19 6 0 9 3 6 6 -4 3 -17 0 -30 -7 -20 -11 -21 -10
-11 2 7 9 11 32 9 52 -2 21 0 40 5 43 5 3 7 10 4 15 -4 5 1 12 9 15 9 3 16 10
16 16 0 5 -5 6 -11 2 -6 -3 -3 5 6 20 17 26 35 34 35 16 0 -5 -6 -13 -14 -17
-12 -7 -12 -10 1 -22 14 -12 15 -12 11 0 -2 7 1 20 9 27 7 8 11 17 9 21 -3 4
1 8 9 8 8 0 11 -5 8 -10 -3 -6 -1 -7 6 -3 6 4 10 15 9 23 -2 9 4 18 12 20 12
4 12 3 2 -5 -11 -7 -11 -10 3 -15 9 -4 14 -3 10 2 -3 5 1 12 7 14 10 4 10 6 1
6 -7 1 -13 6 -13 12 0 5 4 8 8 5 4 -2 9 7 10 22 1 14 -4 29 -10 34 -10 6 -10
8 0 8 13 0 17 32 5 44 -13 13 -24 126 -12 126 5 0 7 6 4 13 -15 45 -13 96 3
102 13 5 14 3 5 -6 -9 -9 -8 -15 3 -26 8 -8 11 -20 7 -26 -4 -7 1 -6 10 2 16
12 22 8 18 -12 -1 -5 3 -6 9 -2 6 3 7 11 4 17 -4 5 5 2 20 -7 14 -10 26 -13
26 -9 0 5 5 2 10 -6 8 -12 10 -12 10 5 1 19 2 19 10 -1 9 -23 46 -26 60 -5 5
9 10 10 14 2 4 -6 2 -11 -3 -11 -18 0 -12 -14 10 -29 19 -11 21 -11 16 3 -5
13 -3 15 12 7 10 -6 22 -7 26 -3 3 4 5 1 3 -6 -5 -22 30 -40 42 -22 9 14 14 7
11 -13 -1 -5 3 -6 9 -2 6 3 8 10 5 15 -3 4 3 7 12 5 10 -2 20 -4 23 -4 3 -1
-1 -5 -8 -10 -11 -7 -10 -9 3 -14 9 -4 14 -3 11 2 -6 10 24 25 32 16 3 -3 1
-5 -5 -5 -5 0 -10 -7 -10 -15 0 -14 2 -14 16 0 14 14 17 13 29 -7 7 -13 11
-15 8 -6 -3 12 -1 15 10 11 7 -3 14 -11 14 -19 0 -8 5 -14 11 -14 5 0 7 6 4
13 -4 6 0 4 8 -5 8 -10 22 -18 31 -18 10 0 24 -7 33 -16 9 -8 22 -13 30 -9 10
3 13 1 10 -9 -4 -11 1 -13 20 -10 19 4 24 1 20 -10 -4 -10 1 -13 18 -11 14 1
22 -2 19 -6 -3 -5 0 -9 5 -9 6 0 11 -7 11 -16 0 -10 5 -14 16 -10 8 3 13 2 9
-3 -3 -5 1 -16 9 -24 8 -8 12 -18 8 -22 -4 -5 -1 -5 6 -1 6 4 12 2 12 -4 0 -6
4 -9 9 -6 5 3 12 -1 15 -10 3 -9 12 -14 18 -12 7 3 19 -2 27 -9 11 -12 15 -12
22 -1 8 12 14 0 11 -23 -1 -4 12 -5 28 -4 17 1 30 -1 30 -6 0 -5 6 -9 14 -9 8
0 17 -6 19 -12 4 -10 6 -10 6 0 1 7 9 4 21 -8 12 -12 26 -18 32 -14 8 5 9 2 5
-10 -4 -10 -3 -15 3 -11 6 3 10 1 10 -6 0 -7 3 -9 7 -6 3 4 15 -1 26 -10 15
-13 18 -14 12 -3 -8 13 -7 13 8 1 9 -7 17 -10 17 -5 0 4 7 -1 16 -12 8 -10 13
-14 10 -7 -4 6 -2 15 4 18 6 4 10 3 9 -2 -5 -27 1 -35 16 -23 8 7 15 8 15 4 0
-5 9 -15 21 -22 12 -8 18 -9 15 -3 -4 5 -1 13 5 17 8 4 9 3 5 -4 -9 -14 22
-30 54 -27 14 1 28 -3 32 -9 5 -7 8 -6 8 3 0 11 4 10 16 -5 8 -10 13 -12 9 -4
-4 10 -2 9 8 -3 8 -9 19 -17 26 -17 6 0 11 -4 11 -10 0 -5 7 -10 16 -10 9 0
12 -5 8 -12 -4 -7 -4 -10 1 -6 4 4 14 3 21 -3 8 -6 20 -9 28 -6 8 3 17 3 21
-1 4 -4 12 -7 18 -7 7 -1 11 -7 9 -15 -3 -12 -1 -12 9 -3 10 10 15 9 26 -5 9
-11 12 -11 7 -2 -5 10 0 9 14 -4 12 -11 22 -16 22 -11 0 4 12 0 26 -10 15 -9
24 -12 20 -7 -4 6 2 10 13 9 11 0 19 -4 19 -7 -2 -20 4 -21 17 -4 12 16 14 16
9 2 -5 -15 -1 -17 26 -14 25 3 30 0 25 -12 -5 -13 -3 -13 12 -1 15 12 16 12
10 -5 -7 -17 -6 -17 9 -5 21 17 16 17 36 -1 9 -8 14 -19 11 -23 -3 -5 4 -4 15
2 16 8 21 7 26 -5 4 -11 13 -13 27 -9 13 5 19 3 15 -3 -3 -5 1 -13 10 -16 23
-9 26 -8 18 7 -6 9 -5 9 8 0 8 -7 18 -10 21 -6 4 3 7 1 7 -6 0 -7 4 -10 9 -6
5 3 17 -2 25 -11 9 -9 16 -11 16 -4 0 7 6 6 15 -4 9 -8 27 -13 45 -11 18 2 29
0 27 -7 -1 -6 4 -13 12 -16 9 -3 11 0 7 9 -4 8 2 3 14 -11 12 -14 19 -19 15
-12 -3 6 -1 12 4 12 6 0 11 -4 11 -9 0 -5 14 -8 30 -7 21 2 29 -2 26 -11 -3
-7 0 -15 6 -19 6 -4 8 -3 5 3 -4 6 0 14 8 17 9 3 18 -1 21 -9 4 -8 10 -12 15
-9 5 3 9 0 9 -5 0 -6 5 -11 10 -11 7 0 7 8 -1 23 -9 19 -8 18 13 -4 24 -28 78
-45 78 -25 0 6 5 3 11 -7 9 -15 13 -16 27 -5 12 10 14 10 8 1 -4 -7 -2 -13 3
-13 19 0 26 -2 45 -12 13 -7 16 -7 12 1 -5 7 -1 9 8 5 9 -3 14 -10 11 -14 -3
-5 0 -12 6 -16 8 -5 9 -3 4 5 -9 15 36 12 47 -3 9 -13 47 -15 54 -4 3 5 12 4
20 -3 8 -6 14 -8 14 -4 0 5 8 1 19 -9 10 -9 28 -18 40 -21 11 -2 25 -6 29 -9
5 -3 22 2 38 10 18 10 24 10 17 3 -20 -21 -15 -32 12 -27 14 3 28 1 32 -5 3
-5 1 -7 -5 -3 -6 3 -13 2 -16 -3 -7 -11 13 -9 32 3 8 4 11 3 10 -5 -2 -6 3
-14 11 -17 9 -3 11 0 6 8 -6 9 -3 9 12 1 11 -6 23 -7 27 -4 3 3 6 1 6 -5 0 -7
5 -12 11 -12 5 0 7 6 3 13 -6 8 -3 8 9 -1 9 -8 25 -11 36 -7 10 3 22 1 26 -4
4 -7 -1 -8 -12 -4 -15 6 -16 5 -3 -9 13 -13 16 -13 33 6 l18 21 -10 -22 c-9
-19 -8 -20 11 -15 16 4 19 2 13 -9 -7 -12 -6 -12 7 -1 14 11 17 10 23 -8 6
-20 7 -21 21 -3 13 17 13 17 14 -3 0 -25 35 -28 51 -4 9 13 10 12 5 -3 -7 -21
24 -55 44 -49 9 3 10 0 4 -9 -6 -11 -3 -10 11 1 11 9 16 10 11 3 -5 -9 1 -13
19 -13 18 0 24 -4 19 -12 -6 -10 -4 -10 7 0 7 6 18 12 24 12 5 0 3 -5 -5 -10
-11 -7 -11 -10 -2 -10 8 0 10 -5 6 -13 -5 -8 -2 -8 9 2 12 9 17 10 17 2 0 -7
4 -10 9 -7 5 3 14 -1 21 -9 7 -8 17 -15 23 -15 6 0 2 7 -9 15 -19 15 -19 15 1
8 11 -3 23 -11 27 -17 11 -15 10 6 -1 22 -4 8 -12 13 -17 12 -5 -1 -9 3 -10 9
-2 8 -1 8 3 1 3 -7 10 -4 18 7 13 17 13 17 12 -1 -1 -10 4 -21 12 -24 8 -3 11
0 7 7 -5 7 -1 9 9 5 14 -6 14 -8 0 -24 -13 -14 -13 -17 0 -17 8 0 12 4 9 9 -3
4 2 8 10 8 20 0 16 23 -4 32 -11 5 -9 7 7 7 12 1 25 -3 28 -9 3 -5 1 -10 -6
-10 -7 0 -9 -3 -5 -7 8 -8 13 -9 41 -12 8 0 15 -6 15 -12 0 -5 -4 -7 -10 -4
-16 10 -11 -1 7 -16 10 -8 14 -9 10 -2 -4 6 -3 14 3 18 5 3 10 0 10 -8 0 -7 6
-14 13 -14 14 0 16 24 3 45 -4 7 -4 12 1 11 19 -3 33 2 33 12 0 5 -4 8 -9 4
-5 -3 -13 0 -17 6 -5 8 -3 9 6 4 9 -6 12 -4 8 6 -3 9 3 26 14 40 l20 24 -16
-27 c-10 -17 -12 -29 -6 -33 6 -4 9 -1 8 7 -2 7 2 12 7 11 6 -1 12 7 13 18 1
10 2 27 3 37 1 9 6 23 11 29 7 9 3 15 -15 22 -14 5 -28 16 -32 23 -6 10 -5 11
6 1 7 -7 20 -13 29 -13 12 1 11 4 -5 16 -21 16 -25 111 -3 98 4 -3 8 0 8 5 0
6 5 11 11 11 5 0 8 -4 4 -9 -3 -5 0 -13 5 -16 8 -5 6 -13 -5 -25 -15 -17 -4
-42 12 -26 4 3 1 6 -6 6 -7 0 -9 5 -6 11 4 6 13 8 21 5 9 -3 11 0 7 12 -6 14
-4 15 8 5 9 -8 20 -9 29 -3 26 17 46 12 24 -6 -18 -15 -18 -15 3 -4 14 6 20
16 16 26 -3 9 -1 14 7 12 7 -2 14 5 15 14 3 17 -20 41 -80 83 -15 11 -35 28
-44 38 -8 9 -21 17 -28 17 -7 0 -13 5 -13 11 0 5 -5 7 -10 4 -6 -3 -10 1 -10
9 0 9 -9 16 -21 16 -13 0 -18 4 -13 12 5 7 2 9 -8 5 -23 -8 -31 30 -10 42 9 5
13 13 9 17 -11 11 -36 -28 -29 -46 5 -12 2 -11 -12 3 -10 9 -22 14 -28 11 -7
-5 -8 -2 -4 5 5 7 15 10 23 7 9 -4 13 -1 10 6 -2 7 -11 13 -19 12 -8 -1 -15 4
-15 11 0 12 25 14 43 2 7 -4 11 5 12 23 0 17 -4 30 -9 30 -6 0 -8 -4 -5 -8 2
-4 -4 -9 -15 -9 -10 -1 -24 8 -31 20 -14 25 -20 52 -10 42 4 -4 7 -12 7 -18 0
-5 6 -12 14 -15 9 -3 11 0 6 8 -5 9 -4 11 4 6 9 -6 9 -11 0 -22 -7 -8 -7 -14
-1 -14 26 0 31 27 7 40 -14 7 -25 17 -25 22 0 4 -6 8 -14 8 -8 0 -17 7 -20 16
-3 8 -10 13 -15 9 -5 -3 -13 0 -16 5 -4 7 -25 9 -52 6 -24 -2 -42 -2 -39 1 10
11 -16 45 -30 39 -8 -3 -14 -2 -14 2 0 4 -13 7 -30 8 -16 1 -27 -3 -24 -7 2
-4 -8 -2 -22 6 -18 9 -33 11 -44 5 -11 -6 -22 -5 -30 3 -10 10 -11 9 -5 -3 6
-11 3 -10 -12 3 -25 22 -39 22 -22 -1 12 -14 10 -14 -8 2 -12 10 -29 16 -38
12 -9 -3 -14 -2 -11 3 7 11 -22 25 -45 22 -9 -1 -22 5 -29 14 -7 8 -16 12 -22
9 -5 -3 -20 2 -35 11 -17 12 -23 13 -18 4 5 -8 -1 -6 -12 4 -11 10 -24 17 -29
15 -5 -1 -19 3 -32 10 -12 7 -27 10 -32 7 -5 -3 -11 -1 -15 5 -3 5 -15 10 -26
10 -10 0 -19 4 -19 8 0 5 -6 9 -12 10 -35 3 -54 8 -58 14 -3 4 -15 9 -25 12
-11 2 -30 7 -42 11 -12 4 -25 7 -28 6 -3 -1 -13 5 -21 14 -9 8 -19 13 -24 10
-5 -3 -11 -1 -15 5 -4 6 -11 8 -16 5 -5 -4 -9 -1 -9 5 0 6 -4 8 -10 5 -5 -3
-10 -1 -10 6 0 8 -4 8 -16 -1 -12 -11 -15 -11 -12 1 2 8 -4 13 -14 13 -10 -1
-20 7 -24 18 -5 16 -8 18 -15 7 -6 -10 -9 -11 -9 -1 0 6 -6 12 -12 12 -7 0
-24 9 -38 20 -14 11 -31 20 -39 20 -8 0 -29 12 -48 26 -19 14 -41 23 -49 20
-8 -3 -13 -2 -10 2 3 4 -4 14 -16 21 -16 10 -19 10 -12 -1 4 -7 -2 -5 -14 5
-11 11 -25 16 -31 13 -5 -3 -16 1 -25 10 -9 8 -20 13 -24 10 -5 -3 -14 3 -22
14 -7 10 -19 16 -27 13 -7 -3 -13 0 -13 7 0 6 -4 8 -10 5 -5 -3 -10 -1 -10 5
0 6 -4 8 -10 5 -5 -3 -10 -1 -10 5 0 6 -4 9 -9 5 -5 -3 -12 -1 -16 5 -4 6 -11
8 -16 5 -5 -4 -12 1 -15 9 -3 9 -12 16 -20 16 -8 0 -14 4 -14 10 0 5 -7 7 -15
4 -8 -4 -15 -1 -15 5 0 6 -10 16 -22 21 -13 6 -32 16 -43 22 -65 42 -96 58
-90 46 3 -7 -2 -4 -12 7 -10 11 -25 21 -33 23 -8 2 -23 11 -32 19 -10 9 -18
13 -18 9 0 -4 -12 5 -27 19 -16 14 -35 24 -44 22 -10 -3 -16 1 -15 11 0 8 -6
17 -14 19 -13 4 -13 3 0 -6 10 -7 11 -11 3 -11 -7 0 -17 9 -23 20 -6 11 -15
18 -20 15 -5 -3 -21 7 -36 22 -16 16 -29 27 -31 25 -4 -3 -53 28 -71 45 -13
12 -27 17 -44 14 -5 0 -8 3 -8 9 0 5 -7 10 -15 10 -8 0 -15 5 -15 11 0 5 -4 7
-10 4 -5 -3 -10 -1 -10 5 0 7 -7 9 -16 6 -8 -3 -12 -2 -9 4 3 6 1 10 -5 10 -6
0 -8 5 -5 10 6 9 -8 14 -27 11 -5 0 -8 8 -8 19 0 13 -5 18 -15 14 -8 -4 -15
-1 -15 5 0 6 -8 11 -18 11 -10 0 -24 6 -31 12 -10 9 -12 9 -7 1 3 -6 2 -15 -4
-18 -6 -4 -10 -3 -9 2 5 26 -26 52 -53 45 -5 -1 -8 4 -8 11 0 7 -18 20 -40 30
-22 9 -40 22 -40 28 0 5 -5 7 -10 4 -6 -3 -12 0 -15 7 -3 8 -28 22 -55 33 -28
11 -50 23 -50 27 0 4 -7 8 -15 8 -8 0 -15 5 -15 10 0 6 -5 10 -11 10 -6 0 -24
9 -40 21 -16 11 -38 21 -49 22 -11 1 -20 8 -20 15 0 9 -7 12 -20 9 -11 -3 -20
-1 -20 4 0 5 -6 9 -13 9 -7 0 -19 6 -25 13 -7 6 -16 12 -20 12 -4 1 -17 6 -29
13 -13 7 -23 9 -23 5 0 -4 -4 -3 -8 4 -4 6 -16 13 -27 15 -26 4 -44 20 -37 32
3 5 -2 6 -12 3 -10 -4 -24 1 -35 12 -11 11 -22 16 -26 13 -3 -4 -10 0 -15 8
-9 13 -10 13 -10 0 0 -13 -2 -13 -9 -1 -5 8 -18 16 -28 17 -9 2 -19 8 -21 14
-2 5 -8 8 -13 4 -5 -3 -9 -1 -9 5 0 6 -7 7 -17 4 -11 -5 -14 -3 -8 6 6 10 2
11 -15 6 -17 -5 -21 -4 -15 6 6 8 4 11 -7 7 -9 -4 -15 0 -15 8 0 9 6 13 15 9
12 -4 12 -2 4 8 -9 10 -8 14 3 14 14 0 19 -11 16 -30 -1 -5 3 -6 9 -2 6 3 8
11 5 16 -4 5 1 9 10 9 10 0 13 -5 9 -12 -4 -8 -3 -10 2 -5 5 5 9 12 10 15 0 4
4 15 8 24 4 9 5 21 2 27 -4 5 -2 13 4 16 6 4 8 16 4 27 -4 14 -2 18 5 14 6 -4
11 -2 11 3 0 6 -8 11 -17 11 -14 0 -15 2 -4 9 7 5 9 11 4 14 -15 9 -9 62 6 59
11 -2 10 3 -2 22 -14 21 -16 42 -11 118 4 51 6 117 5 147 -1 29 3 59 9 66 8 9
8 15 0 20 -6 3 -7 11 -3 18 3 6 8 36 9 66 5 90 10 137 18 149 3 6 2 13 -4 17
-6 4 -8 11 -4 17 3 5 8 46 11 91 6 112 10 162 13 162 3 0 10 121 12 232 2 62
5 113 8 113 3 0 6 12 6 28 3 75 4 83 16 76 8 -5 9 0 6 14 -4 14 -2 20 4 16 6
-4 8 1 4 14 -4 12 -2 31 4 43 10 17 9 20 -2 13 -10 -6 -10 -4 1 10 10 11 11
20 4 24 -12 8 -13 43 -1 36 5 -3 5 -10 2 -16 -4 -6 -3 -8 3 -5 5 3 9 25 8 47
-1 27 3 44 12 47 10 4 11 9 2 19 -9 11 -9 14 0 14 7 0 9 5 5 12 -5 8 -1 9 12
5 17 -6 17 -6 3 5 -11 9 -14 19 -8 33 4 11 8 14 8 7 1 -7 6 -10 11 -7 6 4 9 1
8 -7 -2 -7 6 -13 17 -13 11 0 23 -5 28 -12 10 -15 39 -5 30 11 -3 6 4 2 17 -9
13 -11 20 -14 16 -7 -11 19 3 35 19 22 8 -7 19 -9 25 -5 5 3 10 1 10 -5 0 -7
7 -10 15 -6 8 3 14 2 14 -2 -3 -18 2 -26 9 -15 6 10 14 9 35 -2 15 -8 29 -10
32 -4 4 5 18 9 32 9 23 0 24 2 12 18 -12 15 -12 16 2 5 9 -7 19 -9 23 -5 4 4
6 0 4 -8 -2 -11 5 -15 25 -15 15 0 32 -7 38 -15 9 -13 10 -12 5 2 -4 13 -1 15
11 11 12 -5 14 -3 8 7 -5 9 -4 11 4 6 8 -5 9 -12 2 -20 -7 -8 -4 -12 10 -12
10 0 19 4 19 9 0 4 5 5 12 1 17 -11 78 -11 71 -1 -3 5 -12 6 -20 3 -8 -3 -12
-2 -9 3 11 18 46 20 46 3 0 -15 2 -15 10 -2 8 12 10 12 10 1 0 -10 3 -11 14
-2 11 10 17 8 26 -6 10 -16 11 -16 6 5 -4 23 -4 23 21 7 15 -10 22 -12 18 -4
-6 9 -3 11 9 6 14 -5 17 -3 13 8 -4 8 3 21 14 29 15 10 17 15 7 19 -7 3 -8 6
-2 6 6 1 17 -6 24 -14 10 -12 16 -13 28 -3 13 11 14 11 7 -1 -6 -11 -4 -13 10
-7 14 5 16 4 7 -7 -9 -10 -8 -14 3 -14 14 0 20 11 15 32 -1 5 2 6 7 2 4 -5 8
-14 8 -19 0 -21 51 -14 76 11 15 16 17 19 4 10 -18 -13 -19 -13 -6 3 17 22 31
14 31 -18 0 -17 -4 -23 -12 -18 -7 4 -8 3 -4 -5 4 -6 12 -8 18 -5 6 4 18 -2
26 -12 11 -14 13 -15 9 -3 -4 12 -1 15 13 12 12 -3 16 -11 13 -24 -3 -10 0
-19 6 -19 6 0 11 -7 11 -16 0 -8 5 -12 10 -9 6 3 10 2 10 -3 0 -6 7 -13 16
-16 8 -3 12 -2 9 4 -3 6 1 7 9 4 9 -3 16 -11 16 -18 0 -6 5 -4 10 4 7 11 10
11 10 2 0 -7 5 -10 10 -7 6 4 8 11 5 16 -4 5 -1 9 4 9 6 0 11 -8 11 -17 0 -15
1 -15 13 2 11 14 16 15 22 5 6 -9 4 -11 -5 -5 -9 5 -11 4 -6 -3 5 -9 14 -7 33
5 l26 17 -13 -24 c-12 -22 -12 -24 2 -12 12 10 18 10 23 1 6 -8 10 -7 17 5 8
14 12 15 25 5 18 -16 65 -18 75 -4 5 6 8 5 8 -2 0 -7 7 -13 15 -13 14 0 20 12
16 33 -1 5 3 6 8 3 5 -4 13 -1 17 5 5 8 9 7 14 -2 7 -10 11 -10 24 0 19 16 21
1 4 -19 -11 -12 -10 -12 4 -2 9 7 18 9 20 5 3 -4 4 -3 2 3 -2 12 43 11 54 -1
4 -4 -3 -15 -16 -25 -21 -17 -21 -19 -5 -29 10 -6 13 -11 6 -11 -19 0 -8 -34
15 -46 12 -6 19 -14 14 -19 -4 -5 -1 -5 6 -1 7 4 20 2 29 -6 14 -11 16 -11 11
3 -5 14 -3 15 18 5 13 -6 24 -15 24 -20 0 -5 8 -2 17 5 14 12 16 12 8 0 -6
-11 -3 -13 13 -9 16 5 22 2 22 -10 0 -14 2 -14 9 -3 6 9 10 10 12 2 3 -7 19
-13 36 -13 18 -1 30 -5 27 -10 -3 -4 9 -8 25 -8 17 0 31 -5 31 -11 0 -8 6 -7
17 2 11 10 14 10 9 2 -5 -9 0 -13 13 -13 12 0 21 -4 21 -10 0 -5 9 -10 20 -10
11 0 20 -6 20 -12 0 -9 4 -8 10 2 8 13 10 12 10 -4 0 -13 5 -17 20 -13 14 4
20 0 21 -11 0 -11 2 -12 6 -5 3 9 10 10 24 3 10 -6 20 -8 20 -5 1 3 3 10 4 15
1 6 3 15 4 21 0 5 6 7 12 3 8 -5 8 -9 -1 -14 -8 -5 -8 -10 -2 -14 12 -7 24 22
16 37 -5 8 -2 7 7 -1 18 -16 29 -15 29 3 0 8 5 15 11 15 6 0 9 -6 6 -13 -3 -7
3 -13 13 -13 10 0 16 6 13 13 -3 7 0 13 6 13 6 0 11 -4 11 -9 0 -5 7 -12 16
-15 8 -3 13 -2 10 2 -2 4 -1 14 5 22 5 9 9 10 9 4 0 -17 28 -25 36 -12 5 7 2
8 -6 3 -9 -5 -11 -4 -6 4 4 6 12 8 18 5 15 -10 98 -11 98 -1 0 4 5 5 10 2 6
-3 10 -1 10 4 0 6 8 11 17 11 9 0 13 3 10 7 -4 3 -2 12 4 20 9 10 8 13 -1 13
-10 0 -10 3 -1 14 7 8 8 17 3 20 -5 3 -9 17 -9 30 0 14 -8 32 -17 41 -18 19
-13 37 8 29 9 -3 13 1 13 13 -1 11 4 17 12 15 12 -3 12 0 1 13 -7 8 -10 18 -6
22 3 3 6 1 6 -6 0 -9 4 -9 14 1 16 15 10 32 -7 21 -9 -5 -9 -3 0 8 14 17 1 45
-15 35 -7 -4 -9 1 -7 14 2 13 -1 20 -11 20 -8 0 -13 4 -9 9 3 6 -3 14 -12 20
-10 6 -12 11 -6 11 12 0 15 50 3 50 -3 0 -7 12 -8 27 -1 15 -5 29 -10 32 -11
9 -10 71 1 71 6 0 1 8 -11 18 -11 10 -24 30 -27 45 -4 15 -11 27 -17 27 -5 0
-7 4 -4 9 3 5 -3 20 -14 34 -11 14 -20 28 -20 32 0 13 -143 154 -152 149 -5
-3 -7 -1 -6 5 4 13 -63 62 -75 54 -6 -4 -7 -1 -2 7 6 10 4 12 -9 7 -9 -4 -15
-3 -12 1 5 9 -23 35 -43 40 -7 1 -20 9 -28 17 -8 8 -23 15 -34 15 -10 0 -19 5
-19 10 0 6 -9 10 -20 10 -11 0 -20 5 -20 12 0 6 -3 9 -6 5 -3 -3 -15 3 -27 14
-11 10 -27 19 -34 19 -8 0 -30 7 -51 17 -20 9 -40 15 -44 15 -5 -1 -8 3 -8 9
0 5 -5 7 -10 4 -6 -3 -13 1 -16 9 -3 9 -10 14 -14 11 -5 -3 -11 -1 -15 5 -4 6
-11 7 -17 4 -6 -4 -6 0 1 13 6 11 7 23 3 27 -3 4 1 4 10 1 9 -4 19 -1 24 6 4
7 2 15 -4 17 -7 2 -10 7 -7 12 3 4 -3 14 -12 21 -11 10 -14 10 -9 2 5 -9 2
-11 -8 -7 -9 3 -14 10 -11 14 3 5 -3 7 -12 6 -10 -2 -28 0 -39 5 -13 4 -26 3
-33 -4 -8 -8 -15 -6 -26 9 -8 10 -15 16 -15 12 0 -4 -30 3 -67 16 -38 13 -78
22 -90 21 -12 -1 -20 2 -17 7 3 4 -2 8 -10 8 -9 0 -16 4 -16 8 0 7 -22 7 -85
-1 -11 -1 -23 -7 -27 -14 -5 -6 -16 -9 -27 -6 -10 3 -32 -2 -49 -11 -16 -8
-32 -12 -36 -9 -3 4 -6 2 -6 -4 0 -6 -16 -14 -35 -17 -19 -4 -35 -11 -35 -16
0 -5 -9 -7 -20 -5 -11 2 -18 0 -15 -4 3 -5 -2 -12 -11 -15 -9 -3 -12 -2 -8 5
5 9 -34 -9 -46 -21 -3 -3 -18 -5 -35 -5 -16 0 -36 -6 -44 -13 -12 -11 -15 -11
-22 0 -7 10 -9 10 -9 -1 0 -8 -3 -11 -6 -8 -12 12 -46 -13 -35 -27 7 -8 6 -16
-1 -26 -8 -13 -9 -12 -5 2 8 24 -20 46 -29 23 -5 -13 -9 -14 -15 -3 -5 7 -9 9
-9 3 0 -5 -25 -10 -55 -11 -30 0 -55 3 -55 8 0 5 -9 4 -20 -2 -15 -8 -20 -8
-20 1 0 8 -4 8 -12 2 -7 -5 -52 -9 -100 -8 -49 0 -84 -3 -81 -8 3 -5 -5 -2
-19 7 -13 8 -35 18 -48 20 -14 2 -26 5 -27 7 -2 1 -6 2 -10 3 -22 6 -63 30
-63 38 0 4 -9 8 -19 8 -17 0 -21 14 -11 40 1 3 3 10 5 15 1 6 3 15 4 20 5 19
-1 80 -9 90 -9 13 -9 45 1 45 4 0 11 10 15 23 4 12 12 25 18 29 8 6 7 8 -1 8
-10 0 -10 7 -2 28 9 24 20 85 22 120 0 6 5 12 11 12 7 0 7 3 1 8 -12 8 -16 42
-6 42 4 0 8 19 10 42 1 23 5 46 9 52 4 6 7 13 7 16 3 23 19 50 28 50 7 0 6 4
-3 10 -10 7 -11 10 -2 10 8 0 11 9 8 26 -3 14 -1 33 4 42 11 22 24 74 21 90
-1 6 3 12 10 12 6 0 9 7 5 15 -3 8 -1 15 5 15 6 0 7 5 4 10 -3 6 -1 10 4 10 6
0 10 3 10 8 -3 15 14 72 20 68 3 -2 7 6 7 19 1 13 8 36 16 52 8 16 14 39 13
51 -1 11 1 19 4 17 4 -2 11 8 18 21 8 18 8 22 0 17 -7 -3 -3 3 7 15 11 12 16
22 12 22 -3 0 1 11 10 25 9 14 13 25 9 25 -4 0 -1 10 7 23 8 12 14 30 12 40
-1 11 0 16 3 13 9 -8 35 44 37 75 2 14 6 31 9 36 4 6 8 23 9 37 1 14 6 26 11
26 4 0 5 5 2 10 -3 6 -1 10 5 10 6 0 8 5 5 11 -4 5 0 18 8 27 21 25 27 50 14
56 -7 2 -4 5 6 5 10 1 17 9 17 21 0 11 5 20 11 20 5 0 8 4 4 9 -3 6 3 14 12
20 10 6 13 11 6 11 -7 0 -1 12 12 26 13 14 24 29 23 33 -1 3 2 14 5 24 17 45
20 53 23 66 1 8 8 17 14 21 6 3 12 21 13 38 2 29 3 30 23 17 20 -13 22 -12 17
8 -3 16 -2 18 5 8 11 -15 36 -6 27 10 -4 5 0 12 8 14 7 3 13 16 12 28 -1 12 3
25 9 29 7 5 6 8 -4 8 -11 0 -12 3 -3 8 6 4 13 19 15 32 2 14 10 36 18 50 8 14
15 34 17 45 2 11 10 25 18 31 18 14 20 28 3 19 -7 -4 -4 1 6 9 11 9 16 16 11
16 -5 0 8 16 29 35 21 19 42 32 47 29 5 -3 9 0 9 6 0 6 5 8 10 5 6 -3 10 -1
10 5 0 6 5 8 10 5 6 -3 10 1 10 9 0 10 7 13 21 11 12 -3 19 -2 16 2 -4 3 8 15
26 27 17 12 37 33 44 46 14 28 49 41 75 28 14 -7 16 -5 11 8 -4 12 -3 15 5 10
7 -4 12 -2 12 5 0 6 8 9 20 6 10 -3 18 -2 17 2 -1 3 18 25 41 48 23 23 42 39
42 36 0 -4 6 1 13 12 9 11 19 15 27 10 9 -5 11 -4 6 3 -4 7 -2 13 3 13 6 1 16
3 21 4 6 1 19 3 31 4 11 0 18 5 15 10 -4 5 3 7 14 4 12 -3 20 0 20 8 0 7 3 10
6 6 3 -3 16 5 29 19 12 13 28 24 34 24 7 0 10 4 7 9 -3 4 3 16 14 26 11 10 17
22 13 28 -3 6 -1 7 5 3 7 -4 12 -3 12 2 0 5 14 9 30 10 54 3 60 5 60 19 0 8 5
11 10 8 6 -3 10 -1 10 5 0 6 4 9 9 5 5 -3 15 0 23 7 7 7 20 15 28 17 8 2 23 6
33 8 9 3 17 0 17 -7 0 -9 3 -10 14 -1 10 9 16 8 25 -3 7 -8 20 -12 28 -9 11 4
14 2 9 -5 -4 -7 -1 -12 6 -12 8 0 20 -9 28 -20 11 -15 17 -17 29 -7 12 10 13
9 7 -3 -4 -8 0 -6 9 5 14 18 14 20 -1 25 -10 4 -18 14 -20 23 -1 10 2 15 7 11
5 -3 7 -9 4 -14 -3 -5 5 -10 17 -12 16 -2 22 -9 20 -22 -2 -11 1 -15 7 -11 6
3 11 0 11 -7 0 -9 3 -9 10 2 9 13 12 13 23 -1 8 -11 20 -14 39 -8 15 4 30 4
33 1 3 -4 3 1 0 10 -4 11 1 20 16 28 18 10 21 10 16 -2 -3 -9 1 -15 9 -15 8 0
14 7 14 14 0 8 5 11 10 8 6 -3 11 0 11 7 1 7 3 24 5 38 2 14 5 40 7 58 1 18 9
37 17 42 8 5 10 10 4 10 -6 0 -11 8 -11 18 1 55 -4 83 -13 77 -17 -10 -11 14
8 33 9 9 18 28 20 42 1 14 3 34 5 45 1 11 8 24 15 28 7 5 10 12 7 18 -4 5 -1
9 4 9 6 0 11 16 11 35 0 24 -5 35 -15 35 -8 0 -15 5 -15 10 0 6 -6 10 -13 10
-7 0 -19 9 -27 20 -16 22 -45 28 -35 8 4 -7 0 -5 -8 4 -8 10 -18 14 -23 10 -5
-4 1 5 14 19 l23 26 -23 -1 c-13 -1 -22 -7 -20 -14 3 -15 -15 -16 -20 -1 -2 7
-17 13 -33 14 -17 1 -37 5 -46 9 -9 4 -29 8 -45 10 -16 2 -29 5 -29 6 0 4 -32
8 -98 14 -31 3 -62 8 -67 11 -6 3 -10 1 -10 -6 0 -7 -6 -5 -13 6 -11 14 -16
15 -22 5 -6 -10 -9 -9 -16 1 -7 11 -9 11 -9 1 0 -9 -5 -10 -17 -4 -10 5 -26 8
-35 7 -10 -2 -20 1 -24 6 -3 5 -11 6 -17 2 -19 -11 -60 -13 -73 -2 -7 6 -15 6
-18 1z m-2485 -7265 c-11 -14 -5 -27 11 -27 5 0 7 4 3 9 -3 5 -1 12 4 16 6 3
8 -3 6 -14 -3 -14 1 -18 16 -14 21 6 27 -21 7 -33 -7 -4 -8 -3 -4 4 12 19 -12
14 -24 -5 -11 -17 -11 -17 -6 -1 7 24 -9 31 -25 11 -12 -14 -12 -16 0 -9 9 6
12 5 9 -5 -3 -8 -15 -13 -29 -11 -16 2 -20 0 -11 -6 10 -7 10 -11 -3 -22 -8
-7 -15 -19 -15 -26 0 -8 -5 -14 -11 -14 -6 0 -9 -6 -6 -14 4 -9 -3 -13 -24
-12 -35 1 -38 13 -6 26 12 5 16 9 9 9 -7 1 -23 -4 -34 -10 -18 -10 -20 -9 -15
5 4 9 2 16 -3 16 -13 0 -13 -27 1 -35 7 -5 3 -14 -10 -26 -11 -10 -18 -27 -16
-38 2 -11 -3 -22 -12 -25 -13 -5 -13 -9 -2 -23 12 -15 12 -16 -3 -10 -12 4
-15 2 -11 -9 5 -14 16 -18 42 -14 12 1 13 -1 2 -14 -11 -13 -17 -13 -35 -4
-27 15 -48 19 -40 7 3 -5 9 -7 13 -4 5 2 16 -4 26 -15 13 -14 14 -20 5 -20 -7
0 -10 -3 -7 -6 3 -4 0 -16 -8 -28 -8 -11 -15 -31 -15 -43 0 -13 -5 -23 -11
-23 -5 0 -8 -4 -5 -8 2 -4 -9 -8 -25 -7 -25 0 -27 2 -13 12 15 11 14 12 -5 10
-11 -1 -21 -8 -21 -17 0 -13 -1 -13 -10 0 -5 8 -10 11 -10 6 0 -5 -7 -3 -15 4
-11 10 -18 9 -30 -4 -14 -13 -45 -13 -45 1 0 3 7 3 15 0 8 -4 17 -2 20 4 4 5
3 9 -2 8 -22 -4 -34 2 -27 14 4 7 3 9 -2 4 -5 -5 -9 -14 -9 -20 0 -6 -12 -13
-28 -14 -24 -2 -26 0 -12 13 8 9 15 20 15 25 0 21 2 25 22 47 12 12 17 22 12
22 -5 0 -2 5 6 10 17 11 22 72 7 82 -7 4 -7 11 2 22 11 12 11 16 1 16 -9 0
-10 3 -1 13 6 8 7 18 3 22 -4 5 -2 6 3 3 6 -3 18 5 28 18 10 13 13 24 7 24 -6
0 -8 5 -4 11 4 8 11 4 19 -11 11 -20 13 -21 19 -5 3 10 9 15 13 12 3 -4 12 1
20 11 10 14 12 14 8 1 -4 -10 0 -16 10 -16 10 0 14 6 10 15 -4 12 -3 13 10 2
13 -11 15 -10 10 1 -6 16 31 24 40 9 7 -11 35 -1 35 12 0 6 -6 5 -15 -2 -10
-9 -15 -9 -15 -1 0 6 5 11 11 11 5 0 7 5 4 10 -12 19 4 10 30 -17 14 -15 25
-22 25 -15 0 6 -4 12 -10 12 -5 0 -10 4 -10 10 0 5 9 9 20 7 23 -4 39 -17 20
-17 -11 0 -11 -3 -2 -12 16 -16 40 6 40 38 0 27 19 47 36 37 5 -3 6 -1 2 5 -4
7 -2 12 5 12 7 0 9 3 6 7 -7 6 10 33 20 33 3 0 0 -6 -6 -13z"/>
<path d="M693 8667 c4 -10 7 -23 7 -28 0 -5 7 -9 16 -9 8 0 12 -5 9 -10 -4 -6
-12 -7 -18 -3 -7 3 -3 -4 8 -17 11 -13 14 -20 6 -15 -10 5 -12 4 -7 -3 4 -7
14 -12 22 -12 8 0 13 -4 9 -9 -3 -5 1 -16 9 -24 8 -8 12 -17 9 -21 -4 -3 2 -6
12 -6 15 0 16 -3 7 -12 -9 -9 -6 -16 11 -33 12 -11 23 -28 25 -36 2 -7 8 -16
13 -17 5 -2 16 -19 24 -38 8 -19 19 -34 24 -34 6 0 11 -9 11 -21 0 -13 4 -18
12 -13 8 5 9 2 5 -9 -4 -11 -1 -17 8 -17 8 0 15 -5 15 -11 0 -5 -5 -7 -12 -3
-7 4 -8 3 -4 -4 4 -7 14 -12 22 -12 8 0 13 -3 13 -7 -4 -22 2 -33 13 -27 8 5
9 2 5 -9 -4 -11 -1 -17 9 -17 8 0 12 -4 9 -10 -3 -5 -1 -10 4 -10 6 0 11 -5
11 -11 0 -6 10 -25 22 -42 13 -18 23 -36 23 -40 0 -5 8 -14 17 -21 10 -7 14
-17 10 -21 -4 -5 -1 -5 6 -1 8 5 12 -1 12 -18 0 -14 5 -26 10 -26 6 0 10 -6
10 -14 0 -8 7 -16 15 -20 21 -8 19 4 -7 32 -13 13 -18 23 -13 22 24 -5 24 2 1
27 -18 19 -22 32 -17 47 5 12 6 27 4 34 -3 7 1 20 8 30 11 14 11 15 -1 5 -20
-18 -35 -16 -20 2 9 10 9 15 1 15 -6 0 -11 7 -11 16 0 8 -5 12 -11 8 -8 -4 -9
1 -4 16 5 15 4 20 -4 16 -5 -4 -17 7 -26 25 -12 23 -13 29 -3 24 7 -4 -3 7
-22 25 -19 18 -29 29 -22 26 6 -4 12 -2 12 3 0 6 -4 11 -10 11 -5 0 -10 7 -10
15 0 8 -5 15 -11 15 -5 0 -8 4 -4 9 3 5 -2 17 -11 25 -8 9 -12 16 -7 16 4 1
-3 10 -16 20 -13 11 -19 20 -15 20 5 0 -7 11 -26 24 -19 13 -39 22 -43 19 -5
-3 -4 4 2 16 10 18 9 20 -5 14 -13 -5 -15 -3 -9 7 6 10 3 12 -13 8 -12 -4 -19
-2 -16 3 3 5 -2 12 -11 15 -9 4 -12 10 -7 13 5 3 0 15 -11 26 -11 11 -17 14
-13 8 5 -9 2 -11 -8 -7 -9 3 -14 9 -13 13 1 3 -9 20 -22 36 -13 17 -21 22 -18
12z"/>
<path d="M1097 8077 c-3 -9 6 -26 24 -43 16 -15 28 -35 28 -43 -1 -12 -2 -12
-6 2 -2 9 -9 14 -14 11 -6 -4 -4 -13 6 -24 13 -14 14 -23 6 -37 -6 -10 -11
-12 -11 -5 0 6 -5 12 -11 12 -8 0 -8 -5 1 -15 7 -8 17 -12 22 -9 6 4 8 -1 4
-13 -7 -21 26 -59 42 -49 5 3 8 -4 7 -15 -1 -11 -8 -25 -16 -30 -11 -7 -11 -9
0 -9 8 0 11 -7 8 -19 -3 -13 1 -21 12 -24 12 -4 12 -5 -3 -6 -20 -1 -20 -1 0
-17 10 -8 13 -13 7 -9 -7 3 -13 1 -13 -4 0 -6 5 -11 11 -11 5 0 7 -5 4 -10 -4
-6 -11 -8 -16 -5 -5 4 -9 4 -9 0 0 -3 11 -9 23 -14 20 -8 35 -41 18 -39 -19 2
-22 -4 -10 -19 8 -9 10 -14 4 -11 -8 5 -10 -16 -6 -65 1 -5 7 -5 14 -1 9 6 9
5 0 -7 -12 -16 -13 -69 0 -69 5 0 5 -5 2 -10 -4 -6 -2 -17 5 -25 9 -10 7 -16
-7 -24 -12 -7 -13 -10 -4 -11 7 0 11 -6 8 -14 -3 -7 0 -19 6 -26 8 -9 8 -11 1
-7 -7 4 -11 -3 -11 -19 0 -24 0 -24 21 -7 20 17 20 17 -1 -7 -25 -28 -26 -39
-10 -59 8 -10 8 -12 1 -8 -13 8 -12 -142 1 -163 5 -9 4 -11 -3 -6 -7 4 -12 1
-12 -9 0 -10 5 -14 13 -9 9 5 9 4 0 -6 -10 -11 -9 -16 5 -27 15 -11 15 -12 1
-7 -14 4 -16 -1 -12 -38 3 -24 9 -48 14 -54 5 -7 3 -11 -6 -11 -8 0 -11 5 -8
10 3 6 1 7 -5 3 -9 -5 -8 -15 4 -38 9 -16 11 -28 6 -24 -5 3 -12 -3 -15 -14
-3 -11 -2 -20 3 -20 4 0 7 -13 6 -30 -1 -16 -4 -30 -8 -30 -4 0 -3 -13 2 -29
6 -23 5 -29 -5 -25 -9 4 -13 -2 -11 -20 2 -14 -1 -26 -7 -26 -5 0 -4 -6 2 -14
8 -10 9 -16 1 -21 -6 -3 -8 -11 -5 -16 4 -5 1 -9 -6 -9 -8 0 -7 -5 2 -17 8 -9
9 -14 3 -10 -13 7 -27 -17 -16 -27 11 -12 9 -48 -4 -53 -7 -3 -11 -15 -8 -30
3 -18 1 -23 -8 -17 -10 5 -10 4 -1 -6 8 -9 9 -19 2 -32 -7 -13 -6 -18 3 -18 8
0 7 -4 -3 -10 -12 -7 -17 -22 -15 -49 0 -21 -2 -37 -6 -34 -5 2 -9 -1 -9 -6
-3 -21 -4 -26 -12 -38 -4 -6 -3 -14 2 -18 6 -3 8 -12 5 -20 -4 -8 -11 -12 -18
-8 -6 4 -4 -2 4 -12 8 -10 10 -16 3 -12 -7 5 -12 1 -12 -10 -2 -60 -6 -83 -12
-83 -4 0 -6 -11 -3 -25 2 -14 0 -25 -5 -25 -5 0 -7 -10 -3 -22 3 -14 1 -19 -6
-14 -6 4 -11 -1 -11 -11 0 -24 -7 -61 -29 -149 -25 -97 -32 -136 -27 -145 4
-5 1 -9 -6 -9 -9 0 -9 -3 0 -14 9 -11 8 -15 -4 -20 -9 -3 -14 -10 -10 -16 3
-5 1 -19 -5 -30 -8 -15 -8 -20 1 -20 8 0 8 -4 2 -12 -20 -26 -32 -77 -20 -82
8 -3 6 -9 -6 -16 -11 -7 -16 -22 -15 -38 1 -15 -1 -33 -6 -40 -4 -7 -2 -12 6
-12 7 0 2 -7 -10 -16 -17 -11 -20 -20 -13 -32 7 -12 3 -25 -11 -44 -12 -17
-15 -28 -7 -28 8 0 8 -4 2 -12 -6 -7 -9 -21 -8 -31 2 -9 0 -15 -5 -12 -10 6
-33 -60 -27 -78 2 -6 -3 -21 -12 -31 -9 -11 -10 -16 -3 -12 6 4 12 2 12 -3 0
-6 -5 -11 -11 -11 -6 0 -9 -7 -5 -15 3 -8 0 -15 -7 -15 -8 0 -6 -4 3 -10 11
-7 11 -10 2 -10 -7 0 -11 -4 -8 -9 3 -5 -1 -12 -9 -15 -12 -4 -14 -10 -5 -25
6 -12 6 -22 1 -25 -5 -3 -7 -15 -4 -26 3 -12 0 -20 -7 -20 -7 0 -10 -7 -6 -15
3 -8 1 -15 -5 -15 -6 0 -8 -7 -5 -16 3 -8 2 -12 -4 -9 -9 5 -14 -22 -13 -62 1
-7 -3 -10 -8 -7 -9 5 -13 -15 -10 -48 1 -10 -2 -18 -7 -18 -5 0 -9 -6 -10 -12
0 -7 -2 -30 -3 -50 -1 -22 -6 -35 -12 -31 -6 4 -8 0 -4 -10 3 -9 2 -19 -4 -23
-7 -4 -6 -10 0 -18 6 -7 9 -15 6 -18 -3 -3 -6 -21 -7 -41 -1 -20 -5 -34 -9
-31 -4 2 -6 -5 -4 -17 2 -12 0 -29 -5 -39 -6 -11 -5 -21 2 -28 7 -7 8 -12 2
-12 -5 0 -10 -10 -11 -22 -1 -11 -6 -24 -12 -27 -6 -4 -6 -12 -1 -20 4 -8 5
-24 1 -35 -4 -12 -6 -36 -4 -53 1 -18 -1 -33 -5 -33 -5 0 -10 -26 -11 -57 -1
-31 -4 -60 -7 -65 -3 -4 1 -8 8 -8 10 0 10 -2 0 -8 -16 -11 -23 -43 -24 -109
-1 -29 -4 -50 -8 -48 -3 2 -6 -20 -5 -48 1 -29 0 -55 -2 -60 -3 -4 -7 -40 -9
-80 -6 -80 -10 -122 -14 -122 -1 0 -3 -10 -4 -22 -2 -13 0 -23 3 -23 6 0 4
-86 -3 -132 -2 -15 -1 -29 2 -33 8 -8 10 -45 2 -45 -7 0 -3 -74 5 -97 2 -7 1
-13 -3 -13 -4 0 -8 -16 -8 -35 -1 -23 2 -32 10 -28 8 5 8 3 0 -8 -6 -8 -10
-27 -9 -42 1 -15 -2 -30 -7 -33 -4 -3 -5 -11 -1 -17 10 -16 13 -58 4 -53 -4 3
-6 -20 -6 -50 1 -33 -2 -54 -9 -54 -8 0 -8 -3 0 -8 12 -9 16 -170 3 -177 -5
-3 -3 -14 3 -25 9 -14 9 -22 -1 -33 -8 -11 -9 -17 -1 -22 6 -4 8 -15 5 -25 -3
-10 -1 -22 6 -25 8 -6 8 -10 -2 -15 -10 -7 -10 -12 0 -23 9 -12 9 -16 -1 -20
-8 -4 -9 -8 -3 -14 6 -4 10 -19 10 -33 -1 -14 4 -28 10 -32 6 -5 5 -8 -3 -8
-9 0 -10 -5 -2 -19 7 -14 7 -22 0 -26 -6 -4 -7 -11 -3 -18 11 -17 10 -57 -2
-57 -5 0 -3 -4 4 -9 13 -9 17 -28 23 -118 1 -13 6 -23 10 -23 4 0 8 -5 8 -11
0 -5 -6 -7 -12 -3 -8 5 -7 0 2 -10 8 -10 15 -24 15 -30 2 -33 19 -103 29 -115
9 -12 8 -13 -4 -7 -13 7 -13 6 0 -6 8 -7 16 -24 18 -38 2 -14 4 -35 6 -47 1
-13 10 -31 19 -41 9 -10 17 -24 17 -30 0 -7 4 -12 10 -12 5 0 7 -7 4 -15 -4
-8 -1 -15 6 -15 6 0 8 -4 5 -10 -3 -5 -1 -10 4 -10 6 0 10 -3 9 -7 -4 -17 26
-82 35 -76 6 3 7 2 4 -4 -3 -5 3 -26 13 -46 11 -21 17 -37 13 -37 -3 0 4 -9
17 -20 13 -11 19 -20 14 -20 -5 0 4 -12 19 -26 15 -14 25 -29 22 -34 -3 -5 3
-15 12 -22 10 -7 19 -20 21 -28 5 -24 50 -62 56 -47 3 7 3 2 0 -10 -4 -17 -1
-23 10 -23 9 0 15 -6 14 -12 -2 -7 3 -12 10 -10 11 2 16 -10 13 -30 0 -5 8 -8
18 -8 10 0 22 -7 25 -16 3 -8 11 -12 17 -8 8 4 9 3 5 -5 -4 -6 -13 -9 -19 -5
-7 3 3 -8 21 -25 18 -17 29 -31 25 -31 -4 0 8 -11 27 -25 19 -14 36 -28 39
-33 9 -12 63 -33 56 -22 -3 5 -2 10 4 10 5 0 12 -6 14 -12 4 -9 6 -8 7 2 0 10
6 6 16 -10 11 -18 14 -20 10 -5 -5 17 -3 16 14 -5 17 -21 19 -22 14 -5 -5 20
-5 20 7 0 20 -31 52 -53 71 -50 10 2 18 -1 18 -6 0 -6 4 -8 9 -5 5 3 12 -1 15
-9 5 -13 10 -14 27 -4 15 8 19 8 15 0 -4 -6 -2 -11 4 -11 6 0 8 -6 4 -13 -5
-9 -4 -9 6 0 10 9 16 8 28 -3 10 -11 18 -12 25 -5 15 15 27 14 27 -3 0 -8 7
-17 16 -20 22 -8 26 -8 20 3 -4 5 3 7 14 4 11 -3 17 -9 14 -14 -3 -5 7 -4 23
1 26 9 27 9 9 -5 -18 -13 -16 -14 18 -10 26 4 35 2 30 -6 -4 -8 0 -8 15 0 12
7 21 8 21 2 0 -5 -6 -11 -12 -13 -7 -3 -2 -7 10 -10 12 -4 25 -1 29 4 4 7 1 8
-7 3 -9 -5 -11 -4 -6 4 6 8 12 9 20 2 9 -7 16 -7 25 2 10 9 11 8 6 -5 -8 -20
4 -24 23 -8 6 6 10 7 7 3 -7 -9 37 -31 52 -25 7 2 10 8 7 13 -3 5 2 6 10 3 9
-3 16 -9 16 -13 0 -4 7 -8 15 -8 8 0 12 4 9 9 -3 4 0 8 5 8 6 0 11 -4 11 -10
0 -5 5 -10 11 -10 5 0 8 4 5 8 -3 5 1 9 9 9 8 0 12 -3 10 -7 -2 -4 2 -7 10 -7
8 0 11 5 8 10 -4 6 3 8 15 5 13 -4 22 -1 22 5 0 7 5 5 10 -3 8 -12 10 -12 10
-1 0 9 7 11 21 8 16 -4 19 -2 14 11 -5 14 -4 15 6 4 18 -17 29 -15 29 5 0 15
1 15 14 -2 13 -17 14 -17 23 -1 9 16 13 17 34 5 22 -11 23 -11 10 5 -12 14
-12 16 3 10 9 -3 24 0 33 7 10 8 14 9 10 2 -4 -6 -2 -15 4 -19 8 -4 9 -3 5 5
-5 8 0 10 18 7 15 -3 24 -1 21 5 -9 14 29 11 44 -4 11 -10 11 -8 1 13 -11 21
-11 23 1 14 8 -6 23 -14 34 -17 19 -7 19 -7 1 7 -18 14 -18 15 3 13 11 -1 21
-5 21 -10 0 -4 5 -5 10 -2 6 4 8 11 5 16 -6 8 8 13 28 10 4 0 7 4 7 11 0 6 3
8 6 5 4 -3 23 7 42 23 26 22 38 26 44 17 6 -9 8 -9 8 0 0 7 9 10 21 8 17 -4
19 -2 9 11 -9 10 -16 11 -25 4 -9 -7 -15 -7 -19 -1 -7 10 10 24 32 27 6 1 9
-2 6 -8 -4 -6 2 -8 16 -3 16 5 20 4 15 -5 -5 -9 -1 -10 15 -5 17 6 21 4 14 -6
-6 -12 -5 -12 9 0 14 11 17 11 18 0 0 -8 4 -5 9 6 8 18 9 18 9 2 1 -14 5 -16
19 -9 9 5 27 8 40 6 12 -2 22 1 22 7 0 5 -6 7 -12 3 -10 -5 -10 -3 0 7 11 12
14 12 22 -1 7 -11 10 -11 10 -2 0 7 5 10 10 7 6 -3 10 -1 10 5 0 6 5 8 10 5 6
-4 18 -1 27 7 15 11 16 11 9 -6 -7 -19 -6 -19 14 -1 22 20 27 30 8 19 -7 -4
-8 -3 -4 5 6 9 11 9 22 0 11 -9 14 -9 14 0 0 7 5 9 10 6 6 -3 10 -1 10 5 0 7
-7 10 -15 7 -8 -4 -16 -3 -19 1 -3 4 5 9 16 9 12 1 25 8 31 15 6 9 7 8 3 -4
-7 -23 7 -23 25 -1 8 9 9 14 3 10 -6 -3 -11 0 -11 7 0 8 6 12 13 9 9 -3 12 2
9 16 -2 14 1 18 11 14 7 -3 11 -10 7 -16 -3 -5 -1 -7 5 -4 11 8 11 25 -2 45
-7 11 -4 11 12 1 12 -7 18 -18 15 -24 -4 -5 3 -2 14 8 11 9 22 14 26 11 3 -3
4 2 3 12 -2 10 -8 20 -14 22 -7 2 -10 7 -7 12 3 5 -2 16 -11 24 -10 11 -11 16
-3 16 7 0 -4 15 -23 34 -27 26 -31 34 -17 33 10 -1 16 -3 14 -5 -2 -2 4 -12
13 -22 13 -16 19 -17 31 -7 14 11 14 10 2 -5 -8 -11 -9 -18 -3 -18 6 0 14 5
17 11 4 6 13 8 21 5 8 -3 14 -1 14 5 0 6 4 8 9 5 5 -3 12 6 15 19 6 25 41 47
80 51 10 1 28 13 40 27 46 55 52 62 53 70 4 23 10 23 28 -1 12 -17 13 -22 4
-15 -16 13 -52 -12 -48 -33 4 -22 -2 -33 -16 -28 -10 4 -15 0 -15 -11 0 -9 -4
-14 -9 -10 -5 3 -13 1 -16 -5 -4 -6 -1 -9 6 -8 6 2 14 -3 16 -10 3 -8 -2 -10
-14 -6 -13 4 -15 3 -4 -4 20 -14 -6 -21 -42 -11 -16 5 -25 4 -22 -2 4 -5 15
-9 26 -9 13 0 18 -4 13 -12 -4 -7 7 -2 24 11 18 12 32 27 32 32 0 5 5 9 11 9
5 0 8 -4 5 -8 -3 -5 1 -9 9 -9 8 0 12 3 10 7 -7 11 30 41 39 33 4 -5 6 -1 4 7
-2 8 2 14 7 13 6 -1 12 8 12 20 2 20 1 20 -8 4 -6 -9 -15 -14 -21 -11 -7 4 -8
2 -4 -4 5 -8 1 -10 -9 -5 -13 4 -14 8 -4 14 7 4 16 6 20 3 4 -2 13 9 21 26 15
34 24 38 24 11 0 -11 -4 -17 -8 -15 -4 3 -5 -3 -1 -12 4 -11 8 -13 11 -6 2 7
9 9 15 5 8 -5 8 -2 0 9 -15 18 -7 29 15 21 9 -4 13 -2 9 4 -4 6 0 16 8 23 23
19 19 43 -5 37 -11 -3 -18 -1 -14 4 3 5 17 9 32 9 20 0 23 3 12 9 -8 6 -19 7
-25 3 -5 -3 -4 1 2 9 10 12 10 18 0 29 -9 10 -9 11 1 6 7 -5 12 -1 13 11 0 10
3 27 5 38 3 11 6 29 6 40 0 11 2 15 5 8 2 -7 12 -9 21 -6 13 4 12 2 -3 -11
-11 -10 -15 -15 -8 -12 6 4 14 2 18 -4 10 -16 25 -12 19 5 -4 9 0 15 7 15 11
0 11 3 -1 10 -12 8 -13 11 -1 19 9 6 9 10 2 12 -8 3 -8 14 -2 35 10 36 -2 56
-28 46 -13 -5 -14 -3 -4 9 10 13 10 16 -2 16 -8 0 -12 -4 -9 -9 3 -4 -2 -8
-10 -8 -9 0 -16 7 -16 15 0 8 -5 15 -11 15 -5 0 -7 6 -3 13 6 9 4 9 -8 -1 -13
-10 -18 -10 -24 -1 -5 8 -3 9 7 4 12 -8 12 -6 0 8 -15 18 -26 23 -16 7 3 -5 1
-10 -4 -10 -10 0 -15 14 -12 33 1 5 -3 6 -8 2 -6 -3 -9 -11 -8 -18 2 -7 -1 -2
-7 11 -5 12 -14 22 -19 22 -4 0 -5 -6 -1 -13 6 -9 4 -9 -7 -1 -8 6 -22 10 -32
9 -9 -2 -15 1 -11 6 3 5 11 7 17 3 7 -3 -1 6 -18 20 -32 28 -45 32 -45 15 0
-5 4 -7 10 -4 6 3 7 -1 4 -9 -6 -16 -25 -23 -23 -8 1 4 1 16 0 26 -1 20 -1 20
-15 1 -8 -11 -12 -24 -9 -29 4 -5 1 -6 -5 -2 -9 5 -8 12 1 26 10 16 8 23 -7
37 -10 10 -16 12 -12 6 9 -16 -10 -17 -19 -3 -5 8 -12 7 -23 -2 -10 -8 -13 -9
-9 -1 4 6 2 15 -4 19 -8 4 -9 3 -5 -4 4 -7 1 -12 -9 -12 -9 0 -14 4 -11 8 2 4
-8 7 -22 6 -15 0 -30 4 -34 10 -5 8 -8 7 -8 -1 0 -7 -5 -13 -11 -13 -5 0 -8 4
-5 9 3 5 -3 11 -14 14 -22 6 -28 -8 -7 -16 7 -3 5 -6 -5 -6 -10 -1 -18 3 -18
8 0 4 -10 7 -22 7 -13 -1 -27 0 -33 3 -20 10 -71 5 -83 -9 -8 -8 -11 -9 -7 -2
7 13 7 13 -55 16 -25 1 -51 5 -57 9 -8 5 -13 4 -13 -3 0 -7 -6 -8 -18 -1 -11
6 -24 6 -35 0 -12 -7 -17 -6 -17 2 0 7 -3 9 -7 6 -3 -4 -13 -1 -21 6 -13 9
-14 9 -8 0 8 -15 -3 -17 -23 -4 -10 6 -25 4 -43 -5 -15 -8 -28 -11 -28 -7 0 4
-5 2 -12 -5 -8 -8 -8 -15 3 -29 13 -16 12 -17 -2 -5 -18 14 -46 -7 -31 -23 4
-5 -1 -5 -10 -2 -13 5 -18 1 -18 -11 0 -13 -2 -14 -9 -3 -7 11 -11 10 -20 -5
-6 -11 -11 -15 -11 -10 0 5 -8 2 -17 -5 -14 -12 -15 -12 -9 -1 7 11 4 12 -13
3 -11 -7 -21 -9 -21 -6 0 3 -12 -3 -27 -12 -15 -10 -28 -17 -30 -15 -2 1 -2 1
0 -1 6 -6 -29 -34 -37 -29 -5 3 -6 -3 -3 -12 5 -14 3 -17 -8 -12 -8 3 -15 1
-15 -4 0 -6 -3 -9 -7 -9 -20 3 -31 -2 -37 -17 -5 -14 -4 -15 8 -4 9 6 21 10
28 7 8 -3 6 -6 -5 -6 -10 -1 -22 -11 -27 -23 -7 -19 -9 -19 -9 -5 -1 10 -5 16
-10 12 -5 -3 -13 0 -17 6 -4 8 -3 9 4 5 7 -4 12 -2 12 3 0 6 -7 11 -15 11 -21
0 -66 -30 -60 -40 3 -5 1 -11 -4 -14 -5 -3 -11 1 -14 9 -4 8 -15 12 -27 10
-11 -2 -20 1 -20 6 0 6 -5 7 -12 3 -17 -11 -58 -11 -58 -1 0 5 -8 1 -17 -10
-10 -10 -15 -14 -11 -8 12 18 -3 26 -20 12 -13 -9 -14 -9 -8 1 10 17 -14 15
-44 -4 l-25 -16 24 21 24 21 -23 20 c-17 15 -27 17 -41 9 -28 -14 -54 -68 -26
-54 6 4 3 -1 -7 -9 -11 -9 -15 -16 -8 -16 6 0 9 -7 5 -15 -3 -9 -13 -15 -22
-14 -23 3 -52 -11 -45 -22 3 -5 0 -9 -5 -9 -6 0 -11 9 -11 20 0 11 -5 20 -11
20 -5 0 -8 4 -4 9 7 12 -44 53 -56 45 -5 -3 -6 3 -2 12 5 13 2 16 -9 12 -10
-4 -19 2 -27 19 -8 17 -17 23 -28 19 -13 -5 -14 -4 -3 9 10 12 10 15 -4 15
-10 0 -15 4 -12 9 9 14 -5 42 -17 34 -6 -4 -8 0 -4 10 3 9 0 23 -8 31 -8 8
-15 22 -15 31 0 8 -6 18 -14 21 -9 3 -12 12 -9 21 5 12 3 14 -7 8 -9 -5 -11
-4 -6 3 4 7 4 18 -1 25 -4 6 -8 14 -9 17 -6 35 -19 62 -33 70 -10 6 -12 9 -3
10 7 0 10 5 7 10 -4 6 -10 8 -14 6 -4 -3 -8 7 -9 22 -1 15 -7 29 -12 30 -6 2
-10 11 -10 21 0 9 -5 22 -10 27 -6 6 -12 35 -14 66 -1 30 -6 60 -9 65 -4 6 -4
13 0 17 7 7 10 186 3 186 -3 0 -5 21 -5 47 1 27 -3 58 -7 71 -5 15 -4 22 5 22
8 0 8 3 2 8 -6 4 -10 17 -9 29 1 13 -3 23 -9 23 -5 0 -4 7 3 15 7 8 8 15 3 15
-5 0 -10 12 -11 28 -2 27 -9 67 -12 67 0 0 -3 31 -5 69 -3 41 -10 73 -17 78
-8 4 -8 8 -2 8 6 0 11 7 11 15 0 8 -4 15 -8 15 -5 0 -6 7 -3 15 4 8 1 22 -6
30 -7 8 -8 15 -3 15 5 0 10 24 11 53 1 28 3 63 5 77 2 14 -1 31 -6 38 -5 6 -6
12 -1 12 5 0 9 16 9 35 0 19 -2 35 -5 35 -12 0 -17 351 -6 369 4 6 3 11 -3 11
-6 0 -6 11 -1 30 5 17 9 33 9 35 1 3 1 6 2 8 6 21 5 37 -2 37 -6 0 -7 5 -4 10
4 6 8 39 10 74 5 77 7 89 20 98 6 5 5 8 -3 8 -9 0 -10 5 -4 18 5 9 10 46 12
82 4 95 8 155 10 155 1 0 3 14 5 30 1 17 6 59 10 95 4 36 7 72 8 80 0 8 5 18
11 22 6 4 11 29 12 56 0 27 4 53 7 59 4 6 9 29 12 51 3 23 9 51 13 64 5 13 8
30 7 38 -1 8 4 27 11 41 7 15 10 29 7 33 -4 3 -1 6 5 6 6 0 9 7 6 15 -4 8 -1
15 5 15 6 0 10 3 10 8 -4 21 3 34 24 42 17 7 18 9 5 9 -21 1 -22 5 -6 34 6 12
12 64 14 117 1 52 5 106 8 120 8 34 -3 68 -15 49 -7 -11 -9 -11 -9 2 0 9 3 19
7 22 3 4 8 21 10 39 2 18 9 36 16 40 7 5 8 8 1 8 -8 0 -8 19 0 68 6 37 11 78
10 92 -1 14 3 31 8 38 6 7 7 12 1 12 -5 0 -10 7 -10 15 0 8 5 15 10 15 5 0 4
6 -2 13 -6 8 -8 17 -5 20 6 6 14 154 15 270 1 29 5 45 11 41 6 -4 6 2 -1 14
-13 24 -14 35 -3 29 4 -3 7 34 8 81 2 172 10 368 17 379 4 5 4 13 0 17 -11 10
-10 150 1 165 8 11 8 13 -1 7 -12 -6 -19 18 -14 47 1 4 -3 25 -8 47 -5 24 -5
42 0 46 5 3 2 12 -6 21 -11 10 -13 19 -6 27 6 7 7 16 2 22 -16 16 -31 85 -18
77 7 -4 4 5 -6 20 -10 15 -15 32 -12 37 3 6 0 10 -7 10 -8 0 -9 3 -3 8 13 9
15 51 2 49 -9 -2 -19 30 -21 70 -1 12 -5 21 -11 20 -5 -1 -9 8 -9 21 1 12 -2
22 -5 22 -4 0 -13 21 -20 48 -7 26 -15 54 -18 62 -4 8 -5 19 -4 23 0 4 -6 10
-14 13 -12 5 -13 9 -4 20 9 11 7 14 -12 14 -19 0 -21 2 -9 10 13 9 13 11 0 20
-13 9 -13 10 0 10 13 0 13 2 1 9 -8 5 -12 18 -8 30 3 11 0 19 -5 18 -6 -1 -12
3 -15 10 -3 7 4 10 19 7 18 -4 16 -1 -7 10 -16 8 -23 15 -15 15 13 1 13 3 0
12 -13 9 -12 10 3 5 12 -4 16 -2 11 6 -4 7 -3 8 4 4 6 -4 9 -12 6 -20 -3 -7 1
-13 9 -13 20 0 10 30 -15 46 -11 7 -17 8 -13 2 3 -6 0 -11 -8 -11 -7 0 -14 7
-14 15 0 17 30 31 35 16 2 -6 8 -11 14 -11 6 0 5 8 -4 18 -16 19 -17 30 -4 50
4 7 5 16 2 19 -3 4 -6 1 -6 -6 0 -7 -5 -9 -10 -6 -8 5 -7 12 2 23 8 9 8 13 2
9 -7 -4 -14 0 -18 8 -3 8 3 19 12 24 9 6 12 11 7 11 -6 0 -16 -5 -23 -12 -19
-19 -14 3 6 25 9 11 12 17 5 14 -6 -4 -14 -3 -18 3 -4 6 -11 8 -16 5 -5 -4 -9
-2 -9 2 0 5 -17 9 -37 10 -21 0 -39 6 -41 12 -3 9 -8 9 -17 1 -10 -8 -15 -8
-21 1 -4 8 -3 9 4 5 7 -4 12 -1 12 7 0 21 -26 28 -40 12 -13 -15 -44 -9 -34 7
4 6 9 6 14 -2 5 -9 9 -9 14 -1 4 6 4 11 -1 12 -4 0 -16 2 -26 4 -10 2 -14 -1
-11 -7 4 -6 1 -9 -7 -6 -8 3 -14 9 -14 14 -1 23 -22 47 -28 31z"/>
</g>
</svg>
