<?xml version="1.0" encoding="UTF-8" standalone="no"?>
<svg
   version="1.0"
   width="1024.000000pt"
   height="1024.000000pt"
   viewBox="0 0 1024.000000 1024.000000"
   preserveAspectRatio="xMidYMid meet"
   id="svg8"
   sodipodi:docname="ã¾.svg"
   xmlns:inkscape="http://www.inkscape.org/namespaces/inkscape"
   xmlns:sodipodi="http://sodipodi.sourceforge.net/DTD/sodipodi-0.dtd"
   xmlns="http://www.w3.org/2000/svg"
   xmlns:svg="http://www.w3.org/2000/svg">
  <defs
     id="defs12" />
  <sodipodi:namedview
     id="namedview10"
     pagecolor="#ffffff"
     bordercolor="#666666"
     borderopacity="1.0"
     inkscape:pageshadow="2"
     inkscape:pageopacity="0.0"
     inkscape:pagecheckerboard="0"
     inkscape:document-units="pt" />
  <metadata
     id="metadata2">
Created by potrace 1.16, written by Peter Selinger 2001-2019
</metadata>
  <g
     transform="translate(0.000000,1024.000000) scale(0.100000,-0.100000)"
     fill="#000000"
     stroke="none"
     id="g6">
    <path
       d="m 4107,9489 c -140.2838,-113.196 31.3759,-580.5548 -22,-446 -5.2262,-0 49.7262,-170.6778 67.25,-139.375 86.4834,-94.5249 38.7417,-112.9966 127.75,-98.625 -48.3525,-76.4896 179.577,-202.7469 123,-139 130.5802,-66.155 193.2652,-98.4204 243,-250 34.6745,-27.4249 123.5076,-227.4076 92,-152 24.583,-157.5667 250.8039,-117.1795 -23,-183 -146.5836,-30.0078 -743.678,19.4511 -561.6406,16.4219 -143.4445,13.4227 -756.7669,95.9859 -570.3594,65.5781 -199.974,1.9196 -825.993,120.8202 -642,105 -85.2094,17.9201 -423.0304,19.7464 -318,22 -177.1935,125.079 -1072.0857,-452.4613 -595,-163 -5.8088,-98.2937 253.2195,-203.1741 202,-166 160.7142,-37.3653 509.3051,-90.1963 363,-57.625 156.3666,-15.7881 120.9211,10.4944 287,-38.375 67.9008,-14.814 246.0014,-69.3773 166,-40 91.2839,-19.1368 321.7071,-120.8216 217,-68 40.8408,7.188 286.6403,-60.8288 244,-74 99.0138,-15.6996 305.6066,-44.4647 256,-52 107.245,-20.5177 200.4217,-45.1197 147,-29 115.8188,-11.7004 228.6417,-25.7995 200,-25 164.4075,1.5566 630.9308,25.2666 478,-2 -47.124,36.1894 116.7132,11.0383 92.125,15.25 66.4416,36.5873 240.7102,79.8714 167.875,52.75 53.0753,9.5311 151.0894,68.593 149,22 6.9348,-35.1777 -251.6067,-352.7187 -177,-279 -107.3029,-165.6104 -183.5469,-230.7614 -193.75,-242.25 -31.4029,-96.8915 -162.292,-343.2836 -139,-232.625 -24.6648,-14.5127 -126.7943,-227.2096 -89.25,-164.125 -47.4011,-105.5988 -94.2581,-263.0137 -76.75,-216.25 32.2752,52.3923 6.5089,-350.1384 7.75,-200.75 -5.8331,-266.7919 -47.7865,151.314 -29,-236 9.0324,-74.0155 -21.1425,-274.0985 -30,-224 17.7386,-22.4629 18.0634,-234.113 1,-166 144.5571,-124.7403 -925.6353,-392.6447 -337.9375,-199.7656 C 3769.6695,5467.3006 3363.0357,5285.7455 3495,5339 c -120.7943,-70.8998 -81.9368,-49.6091 -200,-99 -92.2969,-2.7065 -135.0981,21.7833 -116,-25 -90.1264,-90.8682 -56.7586,-250.5381 -16,-157 56.9881,31.2622 54.1928,-142.5737 72,-161 37.5703,-169.5269 106.6923,-67.6813 59,-205 46.3915,-14.4793 206.0628,-28.8794 131,-32 8.4891,27.9998 -18.1917,33.9053 -53.25,22.75 132.5465,31.2996 257.6676,61.6408 135.25,50.25 58.3668,51.6522 136.1863,92.0853 92.5,66.875 99.5776,37.6252 155.8927,106.703 134.5,80.125 97.8124,-37.2367 132.0157,64.1775 118.875,39.75 67.8881,-37.2222 268.723,30.7918 179.625,24.5 108.133,29.5823 182.7004,-72.6426 159.125,-32.25 64.3746,-62.4951 24.2528,-195.4831 14.375,-152 -12.9923,-60.1904 -22.8487,-160.5072 -7,-163 -46.346,-76.8271 -101.7024,-253.5154 -31,-172 4.1775,-41.9855 -60.536,-199.8053 -16.375,-147 11.2564,-148.5238 -0.2403,-235.2401 -2.625,-191 -19.8867,-19.5688 -23.4786,-202.0361 -19.25,-175.375 -17.7975,-45.2091 -52.7331,-317.3503 -31.75,-198.625 2.0177,-134.1686 84.6987,-397.0627 49.8438,-279.7344 -59.351,30.1187 -426.9578,48.0012 -317.8438,19.7344 -279.9874,-34.2357 -181.83,28.5114 -350,-28 -194.7376,-20.8971 -339.8608,-94.4077 -340.25,-84.375 C 2974.0303,3266.6587 2799.4126,3171.8034 2675,3050 c -201.4877,-204.7142 -120.5954,-10.0681 -217.75,-268.875 -43.4195,-8.435 -162.7834,-216.5897 -105.75,-183.5 8.797,-43.8492 -39.9984,-208.0587 -31.5,-152.625 -15.9907,-106.2954 -39.7621,-280.935 -13,-189 23.5169,-93.7131 48.0449,-213.1834 43.375,-196.875 -18.1317,-23.0482 38.8021,-118.4101 38.625,-123.125 -1.9611,-71.9404 95.2046,-177.1298 65,-130 30.0316,-144.4251 60.1159,-180.3779 64,-70 43.1485,-43.8117 315.5449,-326.0002 130.75,-145.125 388.2874,-163.3399 -300.8261,38.9099 168.25,-85.875 30.658,1.4976 109.8947,24.9683 60,-38 122.5989,16.4998 219.6695,-23.8337 142,-4 48.4777,9.3753 167.6255,-1.309 116,-12 23.7457,86.2421 230.6578,135.3285 173.375,37.375 -40.9368,-41.4479 291.2337,48.5167 181.625,49.625 101.9829,34.5456 194.1212,223.4848 188,152 -9.7245,50.5475 43.6101,78.3112 42,40 8.0155,2.7721 69.9279,88.1986 55,50 26.7393,48.9005 47.5387,151.0795 58,75 126.063,-32.4764 43.7399,112.1686 109,45 -7.3711,105.1333 45.9755,-61.7463 47,90 137.2502,19.5723 37.9455,21.8811 99,74 -28.2341,85.2345 -124.2778,30.4244 -21,126 -23.8165,68.4868 76.4815,182.8963 88,120 -8.375,-61.1702 -10.2673,80.5589 104,90 110.4976,16.3843 241.7725,24.4129 112.875,82.375 141.7881,26.2855 95.5287,-4.6749 107.125,13.625 -8.7211,-89.0058 73.2134,-130.0596 60,-69 25.1913,-16.0531 259.2587,-132.241 240,-74 13.2505,-53.191 33.9583,-65.1003 95,-39 94.7013,4.2025 176.2449,-79.0763 116.5,-69.5 90.178,-39.1495 216.4866,-171.2949 123.5,-109.375 128.3683,39.4066 -120.5318,44.5393 48.625,41.75 -64.8688,-91.151 207.7974,-97.1643 63.375,-54.875 -4.0134,62.9381 124.7438,-69.445 87,-20 -63.5982,-38.6016 194.3886,-109.7723 102,-83 88.8531,-86.384 136.7142,-88.6287 130,-19 50.8776,-82.5147 250.3386,-169.0289 170,-59 15.0558,-46.2428 110.2639,-67.4771 68,-34 56.6665,-29.0541 226.6451,-74.3 222,-77 26.5197,30.1231 22.4902,-39.4789 51,-23 62.6811,-21.54 164.5188,29.7085 179,12.75 26.039,-54.0703 264.1227,-24.0329 130,-73.75 -36.0219,-69.1255 75.0278,-117.2384 71,-68 5.7416,107.8037 56.8452,94.7701 84.25,30.875 76.2715,-133.1926 364.2238,-45.676 213.75,-74.6406 13.2682,19.7675 79.8233,-26.1476 60.125,-30.9844 117.889,-59.7328 260.8724,-41.2191 172.75,-7.625 76.7571,-77.3917 19.9792,29.0176 158.125,-68.625 123.4783,-25.514 44.2457,96.4587 135.25,-36.375 -16.7935,55.0452 186.5379,-43.4295 154.75,-20.625 71.6645,-13.2214 87.2565,-98.9223 85,-31 44.5557,42.0048 253.1332,199.7927 98,31 12.286,-62.863 105.2295,-160.4792 153.625,-44.625 28.1298,-48.0174 248.2266,15.9672 151.375,-9.375 43.3781,37.2731 138.9555,81.4747 -3.75,136.375 -2.8394,56.5834 202.5974,79.3844 129.75,41.625 7.157,89.6135 54.1767,156.7286 58,112 20.6661,-26.7914 -204.2342,147.0734 -191,93 13.4413,85.3297 -320.6721,187.1317 -214,177 -264.0317,44.1938 -119.0599,-16.5016 -356,57 -85.6015,17.3422 -387.8483,122.9442 -277,80 -20.7405,-31.6354 -141.0144,67.4668 -124,44 -113.0005,5.8349 -261.9563,76.6041 -155,53 -161.1122,67.4884 -260.1061,81.7672 -212.375,80.625 -41.8441,39.7559 -260.9804,141.3591 -201,109.75 -59.337,0.054 -317.8592,112.2151 -245.625,105.625 -5.9185,22.4463 -206.7151,110.6445 -164,88 -82.8845,29.9877 -312.3775,133.3698 -227,121 -20.27,61.323 -148.9461,123.86 -130,83 -94.7534,29.869 -63.4663,45.3305 -205,122 -87.1133,-26.7808 -12.0044,22.1024 -139.125,81.75 106.4153,-135.144 -153.6513,58.3309 -121.875,55.25 -118.765,25.275 -66.7297,69.1072 -216,117 -147.7179,44.0545 -119.0567,40.9726 -143,69 -68.36,-8.3705 -119.7038,136.9342 -81,71 -96.5924,-53.3743 25.9538,-81.7887 -25,21 81.2889,-26.3295 -46.4406,50.7223 -74,105 32.713,64.3644 76.2167,279.0236 17,175 6.263,86.312 71.296,60.6415 8,125 31.5999,226.883 4.3463,-66.7001 -27,107 19.5827,55.4157 -0.9695,135.0866 36,83 25.2738,1.6926 124.5701,89.6439 38.625,57.75 -121.4612,-19.5802 -78.8417,172.9469 -6.625,151.25 80.0989,4.6427 0.9568,106.3412 -24,75 107.671,-60.7109 184.8161,314.3998 60.75,74.125 24.5342,-15.4683 -102.0861,-95.4559 -31.75,12.875 64.4282,91.5013 91.2166,285.4629 71.375,195.5 53.0961,-44.7546 158.5126,166.1126 47.625,173.5 -71.8723,-182.7332 75.3511,99.3251 19,42 58.499,204.4941 6.0845,324.9513 -12,114 99.4071,4.9381 210.7536,8.8233 116.75,74.75 -35.7333,77.3374 219.7541,78.5512 173.25,17.375 42.1142,-69.8908 233.5594,-78.7142 184.875,-46 75.3128,16.8065 303.8898,1.3909 175.125,-27.125 16.1479,-24.5501 19.7735,-100.6103 83.875,-28.75 85.5154,23.0779 129.1183,17.9275 132.125,49.75 153.3709,-73.0408 13.2166,-6.0098 216,-36 -40.9278,35.9261 54.584,-42.2044 96,-70 58.6351,-48.354 179.9448,-74.1089 135,-53 157.9453,15.0617 -98.5176,-35.8233 163,-6 45.2233,-33.8065 174.3971,-9.0997 183.75,2.5 112.8425,-66.1006 258.6225,-95.8496 132.25,-87.5 -67.3064,-66.8802 27.1992,-153.1035 86,-89 111.3677,-67.4029 171.8068,38.4762 86.125,60.0625 -118.6767,-12.9683 171.4464,-142.366 16.5,-50.3125 -17.4033,-106.603 60.8824,-31.271 82.25,-33.375 -28.4876,-103.9086 14.2074,-192.2384 65.125,-63.375 54.3273,71.3551 149.1676,48.3007 92,16 126.1377,15.1323 294.7816,64.2494 187.125,51.875 -50.887,-63.7993 105.0299,211.0418 153.875,116.125 45.4875,68.0327 21.7008,264.8248 25.75,163.25 -69.1527,94.2603 -124.3849,175.0852 -103.75,153.75 100.4248,-40.1757 12.179,77.4083 -7,65 -6.3591,46.1755 -197.0457,204.5346 -132,166 -69.8378,99.6026 -154.4248,142.0273 -126,112 -29.7522,-20.2281 -198.0074,24.8701 -136,50.125 -34.8406,58.6423 -229.2656,90.825 -192,86.25 -84.7598,23.8889 -96.5406,163.2616 -79.625,138.125 -67.1468,-3.1948 -219.2626,26.7616 -159.5,17 -66.9475,43.8992 -173.6073,80.6947 -151.875,54.5 -20.9511,-22.187 -232.0433,-74.9835 -185,-12 -40.9156,47.4804 -293.7436,17.4468 -214,-8.875 -71.8786,-43.1652 -342.2656,-51.7408 -256.9062,-41.375 -59.7335,-3.9786 -247.8867,27.6846 -164.0938,19.25 -79.0006,-17.3772 -351.2487,53.5311 -259.125,43.5 -108.0858,25.7537 -212.4517,158.2589 -178,163.75 5.7796,50.9325 16.6734,240.2255 54.125,135.75 54.4695,-1.8998 127.4804,29.7014 41,48 21.0192,75.6135 58.7832,232.1572 49,171 33.2078,35.1581 78.286,198.2115 53,118 49.2442,64.6392 43.0542,223.7341 79.625,171.5 67.4523,-20.9915 150.0697,81.0447 75.375,87.5 31.5697,79.7176 129.9166,174.3576 58.875,128.375 71.1922,76.57 111.3929,121.8718 69.125,86.625 44.3842,8.2002 64.7681,138.3865 52,125 49.7374,-19.1005 87.6857,72.0832 51,74 67.0061,-69.822 126.3935,293.9907 121.6875,171.3125 -81.3472,12.8589 116.2459,204.3713 103.3125,95.1875 40.8152,28.7978 77.8674,148.4363 79.5,91.125 -9.2304,20.5947 156.9534,201.5365 121.5625,132.125 -9.4292,94.5198 152.3131,175.794 144.9375,106.25 59.2417,4.3108 283.0845,74.9573 220,72 81.2768,33.7828 273.3042,56.4428 180.625,62.375 35.0059,19.1944 180.6433,54.3556 200.375,92.625 176.1009,100.8721 624.2954,-74.9395 516,-33 130.972,-25.0869 161.0156,193.4607 153,121.375 45.4478,25.7614 150.6942,285.3936 94.5,246 -3.0649,109.9234 -130.5186,196.0563 -105.5,155.625 -218.3161,50.2892 -489.5627,171.1066 -745,157 -508.397,41.0339 -992.1459,-159.9776 -1385.2188,-465.7656 C 5193.3048,7928.2515 5249.0204,8105.5229 5259,8045 c 27.2251,25.0443 8.8451,183.8151 2,191 8.0655,169.4344 80.9125,206.6171 54,87 20.7147,39.6345 -25.8527,104.7207 -25.375,85 -43.0038,67.5869 -99.9719,236.5529 -94.2344,136.6562 C 5133.5579,8586.1341 4966.1425,8788.9336 5010,8710 c -139.3058,115.0019 -237.7613,262.0784 -229.75,250.5 -72.477,37.3314 -201.7529,254.7516 -144.75,175.125 -102.5061,106.1556 -278.6185,213.1967 -211.7812,160.4375 C 4433.9345,9241.7802 3172.9519,9942.8317 4231,9410 c -65.2866,22.4816 -93.7987,75.5542 -124,79 z M 3555,2553 c -14.5096,-38.4854 -194.1603,-267.1768 -135,-208 -27.9617,-93.2986 -206.6829,45.0323 -204,-66 4.2365,109.534 2.0589,284.1382 24,196 87.2234,37.8282 149.189,70.1356 150,55 162.419,35.4531 214.7606,-30.8616 98.75,-27.75 -36.1427,62.7067 79.836,93.5443 66.25,50.75 z m 412,-98 c 41.5065,-48.0133 -112.2457,-131.0299 -85,-128 -92.0183,79.0089 23.2047,172.8038 19.875,141 30.6245,22.6478 26.3412,-20.337 65.125,-13 z"
       id="path4" />
  </g>
</svg>
