<?xml version="1.0" encoding="UTF-8" standalone="no"?>
<svg
   version="1.0"
   width="1024.000000pt"
   height="1024.000000pt"
   viewBox="0 0 1024.000000 1024.000000"
   preserveAspectRatio="xMidYMid meet"
   id="svg10"
   sodipodi:docname="む.svg"
   xmlns:inkscape="http://www.inkscape.org/namespaces/inkscape"
   xmlns:sodipodi="http://sodipodi.sourceforge.net/DTD/sodipodi-0.dtd"
   xmlns="http://www.w3.org/2000/svg"
   xmlns:svg="http://www.w3.org/2000/svg">
  <defs
     id="defs14" />
  <sodipodi:namedview
     id="namedview12"
     pagecolor="#ffffff"
     bordercolor="#666666"
     borderopacity="1.0"
     inkscape:pageshadow="2"
     inkscape:pageopacity="0.0"
     inkscape:pagecheckerboard="0"
     inkscape:document-units="pt" />
  <metadata
     id="metadata2">
Created by potrace 1.16, written by Peter Selinger 2001-2019
</metadata>
  <g
     transform="translate(0.000000,1024.000000) scale(0.100000,-0.100000)"
     fill="#000000"
     stroke="none"
     id="g8">
    <path
       d="m 7750,8568 c 53.4562,-26.8093 -58.0184,-220.7691 -75,-116 3.9744,-157.9455 -14.2625,-346.1067 37.125,-323.75 6.9584,-58.3369 96.95,-161.3598 147.875,-243.25 74.7995,-111.2214 194.5116,-216.279 298.625,-334.25 96.5591,-48.4559 369.6765,-336.6062 266.375,-251.75 91.7231,10.4619 213.8494,-196.9546 114,-113 -42.2543,172.9691 -36.9832,89.5754 12,38 -13.6537,-99.2121 143.2227,-227.8644 83,-161 63.2582,-84.2197 307.6583,-342.5799 258,-270 95.5474,-98.235 332.4383,-480.7518 198,-259 69.988,-111.7786 288.6437,-368.3791 222,-279 21.6808,-63.7114 87.3408,-292.7668 74.375,-167.75 -13.2355,-69.3283 -91.3258,-102.7877 -102.375,-89.25 -175.2277,-95.4258 190.3637,20.19 -187,-113 -60.7661,-15.6801 -219.2064,-15.9687 -161,-7 -57.8772,25.1918 -284.7228,116.7711 -217,32 -2.8032,-37.5923 -835.5868,208.9949 -342.125,95.375 C 8249.1723,5991.4342 7978.1793,5972.3045 7870,5905 c -95.7087,-37.887 -175.7509,-149.6417 -135.25,-180.625 -49.7731,11.2067 42.6683,-59.7964 7.125,-72.75 84.1321,11.8058 336.1157,-51.1326 261.125,-79.625 42.8175,-32.782 89.7622,-42.776 116,-37 -42.6076,-82.1074 90.2399,-128.9065 111,-77 128.9497,3.8314 329.3869,9.973 262,3 146.5115,75.4979 247.7277,38.6039 164,26 58.9076,-70.6558 316.4544,-70.4238 242,-46 55.0077,-16.013 193.9133,-92.6431 130,-31 107.932,-45.9047 470.0433,9.3735 327,-19 136.9887,25.4553 233.09,127.5415 177,93 87.4333,-10.6853 -43.2631,98.535 38.375,80.25 171.2933,35.6031 324.3544,149.1942 215.625,60.75 53.7216,60.7748 198.1981,218.8413 104.4482,134.7654 -59.7784,-38.1108 61.9405,178.7065 8.5518,144.2346 16.0467,176.3919 -41.8213,201.0833 -35,290 -52.0353,118.0002 -70.8665,250.1881 -61,174 -18.1163,153.2139 -7.7556,297.6114 -60,213 -19.7822,73.1648 -128.0554,201.9987 -102,211 -115.9876,135.3796 -185.9151,313.0716 -134,209 -76.5706,52.9511 -214.8135,261.3164 -124,158 -30.8018,-39.2708 -181.9501,14.8913 -139.625,79.25 6.2654,51.1236 -63.4134,97.0586 -43.375,91.75 -17.6935,100.5272 43.9421,155.4199 -26.125,14.25 -39.8459,170.1034 -486.6782,375.3614 -291.875,269.75 -13.0345,33.9832 -51.1298,148.9527 -112.6644,121.8624 C 8723.3914,7813.1856 8438.484,8086.8975 8499,8000 c -4.9032,29.2935 71.6277,37.6442 -79,54 -126.7726,74.3412 -292.7545,182.8034 -203,144 1.0856,56.7749 -91.4387,131.2536 -56,83 -54.7781,29.947 -269.6109,243.0674 -198,185 -92.2591,25.646 -108.7488,128.556 -213,102 z"
       id="path4" />
    <path
       d="m 3225,8430 c -70.8945,-49.2709 -114.0366,-121.3627 -52.375,-110.625 -123.6859,73.7169 -146.4011,131.0069 -170.125,-12.375 56.8255,-94.7958 153.381,-421.7595 23.5,-329 25.9725,20.1512 -229.7874,-974.825 29,23 -12.8216,-11.2355 178.0343,-44.5077 49,27 176.6275,18.5155 -304.8239,343.3885 123,28 -39.543,23.5354 39.4841,-218.4599 -21,-125 -70.543,-57.9141 -86.0295,-193.7026 -60.75,-33.875 20.336,-197.4933 -116.903,252.9226 -89.25,-58.125 59.4747,-88.3608 63.8749,-16.0744 65,-69 34.6322,-50.0939 -38.6342,-155.7296 47.5,-128.875 -105.7675,5.3448 -167.6868,-37.2577 -74.375,30.625 49.0944,159.9108 -45.1211,-218.2108 -61.5,-134.75 16.0257,-66.9739 17.4932,-217.61 5.375,-160 -11.5249,-68.8061 -21.9499,-224.8666 -25,-190 -19.6206,-90.3584 -67.7091,-346.6036 -43,-239 -50.1496,-67.1529 -158.2789,-32.257 -169.5,-38.375 -28.6723,-27.7772 -945.9389,-87.7015 -380.5,0.375 -77.9799,-38.0341 -265.0701,-83.7403 -213,-61 -70.4606,-29.4301 -200.3347,-19.3275 -238.125,1.25 -66.8605,73.2215 -231.994,25.1784 -181.875,42.75 -106.1485,7.9051 -404.1523,219.5042 -304,135 -110.4184,5.8109 -131.3666,279.455 -176.375,199.125 -58.5412,81.5792 228.9303,9.7363 163.375,53.875 350.9603,-14.3527 -191.1897,37.344 338,17 32.5994,26.6567 199.136,127.6158 157,72 117.3151,50.3139 15.5409,53.8719 43.625,60.375 -37.0506,52.9452 71.5076,44.8971 -6.625,73.625 -48.8011,117.0862 113.0534,-209.1488 191,-88 15.4484,-60.636 50.4688,149.7305 107,60 75.6712,20.319 207.8177,116.6049 170,79 -13.3643,109.8371 -111.496,464.7862 -162.6094,265.9375 C 2109.8369,7842.8406 1957.3176,7746.0097 1959,7750 c -154.0418,48.3299 -730.5319,-33.3275 -552.375,27.5 C 1214.1172,7635.7924 698.13495,7833.7595 869,7746 706.81942,7601.8993 537.53543,7303.0498 625,7440 498.54886,7299.669 563.23874,6819.8389 525,7030 602.52772,6924.526 763.56939,6625.306 718,6763.625 700.53853,6700.7191 862.15754,6536.0754 814,6579 c 76.68778,-80.6872 275.9651,-273.2884 199,-221 36.698,-59.7155 128.9683,-110.3475 107,-58 33.2745,-22.7229 184.5524,-66.1069 160,-60 119.0921,-25.2792 134.8376,-71.2552 218.125,-52.875 18.5166,-37.4013 255.0279,-65.8577 221.875,-57.125 91.9475,-23.4684 288.5722,-67.7732 200,-44 -18.5867,21.9732 630.2309,-87.7593 228,-12 7.6363,-34.3537 220.439,-57.1529 193.875,-33.5 126.5887,43.7564 390.5141,48.1235 281.375,23.25 40.4376,-30.1956 304.9843,-181.4057 306.75,-45.75 -16.3739,-27.7685 2.8897,-330.957 -4.25,-216.375 -40.0042,-119.4656 -49.097,-238.2815 -11.75,-187.625 -21.9514,-80.0796 -29.0278,-344.1419 -21,-251 4.6986,-15.5442 7.4693,-337.3508 13,-264 9.0905,-30.3919 65.6899,-228.0883 23.75,-189.875 -19.141,-131.8845 -18.6874,-442.9262 -4.75,-299.125 -38.9259,-45.642 -153.4181,-229.7487 -99,-177 -90.0229,-52.7241 -400.4691,74.3491 -295,22 -156.6908,58.3325 -434.782,-222.4938 -380,-184 -71.0183,41.1785 -268.7859,-150.2046 -208,-119 71.6702,13.313 -1540.40851,-1134.8555 -520,-387 -202.1027,-182.6248 -368.5854,-424.6822 -386,-707 -27.6736,-151.4427 48.3545,-513.6756 30,-407 14.3865,-71.0559 65.0552,-221.2158 50,-161 64.0815,-139.2357 262.6473,-238.1292 193,-209 -11.2633,-102.2382 154.0094,-136.6537 165,-140 37.4137,-36.3118 194.9405,-108.8554 200,-101 11.1786,2.2684 171.8302,-10.3748 163,-14 -0.9236,-9.3746 101.9731,-10.8518 84,-12 30.0917,14.3512 88.5762,137.2714 173.875,40.75 189.8831,-2.5106 285.3714,-7.882 263.25,-4.625 77.9342,32.4414 187.0831,184.1737 204.875,113.875 38.3189,133.4847 35.1481,-82.9587 99.375,92.375 93.3053,-20.6278 278.2715,90.2392 140.625,45.625 -83.634,-98.298 275.602,236.6044 101,94 64.284,66.2084 23.4211,29.6412 165,152 15.794,-62.8438 120.7788,189.9259 107.0469,108.7344 70.9924,89.7977 503.3987,348.2197 131.9531,120.2656 28.6042,101.7689 216.0989,364.5035 155.75,269.25 -66.9744,171.0416 421.9904,-263.5975 212.25,-95.25 98.9195,-31.0337 313.5415,-233.489 203,-151 52.2536,-46.5997 285.8665,-208.8016 223.125,-167.375 73.3468,-84.3686 260.303,-202.7642 216.875,-167.625 36.9473,-49.4662 225.187,-171.2806 170,-125 72.4753,-61.6546 241.3016,-197.2568 167,-124 59.2265,-54.8769 296.0945,-220.8338 217,-146 94.2705,-38.1689 246.1194,-106.2075 201,-109 35.7198,-39.1111 189.7009,-143.3707 142,-90 105.3165,-45.7897 262.7448,-139.838 180,-88 99.7942,-54.8232 267.1817,-141.3388 153,-103 34.697,-9.5203 304.7561,-47.0382 213,-43 92.4856,-32.5562 269.1396,-46.7629 187,-38 -28.492,-56.1426 166.6975,-115.4932 166,-41 99.0727,23.0392 179.8591,-7.6265 154,-10 80.4406,8.7327 332.2108,5.3835 187,-17 63.6862,-16.0342 415.1772,-23.9645 163.875,-13.375 29.6249,36.135 201.2181,84.1557 146.625,35.625 58.5393,-5.2119 284.6922,-16.9741 206.5,-4.25 97.1852,-4.0262 166.6478,-33.4064 209.75,-15.5 131.6511,22.4897 349.1253,65.6789 213.25,47.5 98.406,5.178 269.5298,118.4016 217,86 42.7724,24.5314 160.4031,85.2719 116.875,60.75 84.8928,26.2207 197.8546,47.6306 135.375,55 12.2646,46.7238 206.2154,132.1083 136.75,93.25 27.1109,49.7272 212.7766,197.6585 187,129 33.0216,-15.2383 132.9046,159.6854 160,145 81.8273,-6.1114 228.8037,133.0651 154,87 26.1257,15.4256 181.8621,114.5306 131.625,96.375 -0.5347,32.7949 190.8639,180.9351 119.375,102.625 47.8827,16.1739 199.0875,86.0923 110,75 5.477,54.1114 119.2516,143.8993 95.625,119.375 77.3043,60.8623 274.6904,159.8944 126.375,85.625 51.3882,91.8807 184.9775,220.1844 139,191 33.1087,60.1518 127.0591,292.155 110,207 91.1954,132.7505 -303.4996,191.7862 -228,224 -244.8711,-55.3729 -277.9936,-23.0108 -376,-139 -148.8876,-44.616 -281.0556,-102.0166 -382,-204 -108.3264,-53.7822 -430.6701,-270.4797 -324,-185 -134.5776,-104.7554 -440.9732,-334.0595 -335,-246 -259.1477,-137.9017 -468.1879,-222.428 -488.375,-144.75 -143.3504,-41.3762 -702.8502,97.8417 -539.625,11.75 -252.0994,21.3839 -533.6899,97.7878 -799,134 -158.0967,44.6141 -314.2793,105.7536 -456,169 -108.6674,115.0111 -340.9032,241.3467 -286,144 -128.235,74.1049 -342.0641,207.9669 -224,132 -163.4874,71.1453 -361.6658,208.7337 -314,177 -89.7817,79.5154 -247.8612,166.2373 -197.25,102.25 -54.2797,-41.3998 -502.5195,278.1622 -290.75,118.75 -116.0947,76.4841 -453.5475,303.2232 -301,195 -73.9822,-10.7856 -93.4478,83.2816 -88,74.25 0.7438,84.7916 50.354,195.814 32,214.5 61.0909,75.6008 117.9367,133.3851 17,133.25 -3.601,164.541 -35.5888,314.5199 -20,278 23.8309,108.0773 0.2223,61.6497 -3.25,110.125 -2.4081,50.9533 -69.1504,119.7119 -31.75,117.875 59.7459,205.236 -22.2727,343.8975 -7,308 -14.644,132.893 -31.6877,492.138 -10.375,333 -33.8263,88.3115 -37.0909,294.7035 -27.625,233 -27.4246,116.1742 -19.523,310.1432 -21,234 -35.3446,78.1788 -35.9442,352.4694 -25.5,233.375 -11.7207,124.8287 -7.1814,332.9071 -10.125,235.125 -25.206,55.0492 181.7229,185.2174 63.625,178.5 184.0512,58.3544 360.2288,69.0898 532,171 98.6071,27.3178 415.9314,188.0548 325,138 130.2915,54.4674 233.8208,60.0086 256,108 174.4985,62.1734 369.2545,149.5281 521,220 145.2253,111.2899 569.0506,108.1736 507.75,63.75 107.6843,-72.1047 322.8725,5.7222 119.25,86.25 -36.825,-15.647 -71.5687,145.5919 -82,131 8.5384,78.6549 -178.1217,177.7392 -139.75,167 -9.8785,24.6128 -97.458,-77.9332 -121.25,-29 -52.7408,-81.9005 -271.7664,-79.7306 -199,-52 -79.8912,-74.8402 53.93,-146.9319 86,-45 -52.8196,-12.3021 -298.2853,-77.658 -207,-22 -106.6999,143.5797 25.9496,-96.953 -131.5469,63.7188 C 5186.2257,7258.9297 4811.2352,7249.286 4833,7190 c -46.2442,18.7118 -236.8476,14.6679 -211.625,4.875 C 4502.872,7171.3686 4298.4634,7167.6186 4360,7169 c -113.565,-11.1362 -424.7042,-133.5484 -327,-117 -184.5773,-11.4738 -458.839,-149.1823 -336,-29 -85.2656,-40.7897 -230.1033,-62.7595 -179,27 -6.9529,51.0452 -19.5489,201.4055 0,166 -15.7504,51.1974 10.1608,184.1973 -3.5,157 37.2009,151.3941 -36.9281,61.0501 -79.5,154 -10.5083,-46.8969 -48.6383,-113.5353 -51,64 -11.16,108.9251 95.2503,24.2862 33.5,79.625 87.9196,95.5194 10.1745,49.2493 40.5,-35.625 -67.6781,-123.4122 1.4849,162.5057 51,67 17.5825,147.2887 -9.2755,305.5943 -19,268 -42.6142,18.5607 -84.0461,180.4594 -43,126 -133.1836,4.0569 -143.1859,223.69 -124,118 -41.1691,37.7802 -190.7174,243.8658 -103.125,199.875 9.308,1.2858 44.0971,49.309 5.125,16.125 z m 26,-400 c 41.8122,16.4395 161.1635,25.4745 92.125,-16 -16.88,-76.3533 -57.7581,-168.6053 -5.125,-90 37.5123,60.8134 -57.1936,-105.758 8.125,-90.625 -39.7889,153.5001 -171.5443,100.8499 -121.125,126.625 -18.7632,-68.866 -143.9009,-105.3218 -9,-68 -17.002,105.9892 -32.6787,169.716 35,138 z m -63,-136 c 101.5486,17.3068 94.173,-254.6565 173,-146 -135.9242,-100.3641 108.762,43.0881 -124,-46 -82.9485,50.5289 57.522,-1.8708 73.5,61 72.1179,45.8853 35.5612,77.6875 7.5,80 -29.9181,96.7132 -95.1279,178.6762 -104.375,21.75 -63.6908,67.1043 -115.2827,5.6713 -58.125,-67 65.9412,26.3195 -47.8793,133.3073 32.5,96.25 z M 2021,7751 c 127.8913,-75.1376 38.2236,-199.3608 43,-190 99.3108,-24.7107 110.8507,76.2358 -11,58 -36.3951,-19.1853 -121.0384,147.9048 -32,132 z m 3700,-396 c 96.9985,-31.6621 -94.5831,-141.617 -15,-108 -195.8887,-79.1001 118.5918,135.0077 -12,109 -13.2043,47.7039 23.9081,-52.4021 27,-1 z m 74,-133 c 35.8242,-62.9191 173.0208,-80.4744 54,-134.125 -72.8004,-103.7253 10.7862,172.7095 -67,116.125 -34.4835,27.5502 -55.2868,-206.8603 -48.75,-131.25 -82.0692,-23.8476 -129.5258,132.2413 -32.25,133.25 -58.8055,-175.4834 -34.1486,10.3533 -77,0 -12.0096,8.4321 147.391,43.7265 171,16 z M 2659,3798 c -19.7683,57.7164 -32.3153,-187.4698 65.625,-153 -23.1882,-82.8881 -148.3625,-269.4029 -89.625,-175 -57.7298,-128.6561 -207.0369,-368.9175 -118,-220 -111.9602,-130.3668 -262.7828,-208.7081 -168.375,-134 -20.2221,-131.6438 -37.1188,-5.9384 -67.625,-119 -57.3829,-42.8477 -298.9153,-90.1913 -170,-59 -70.1417,-180.2991 -38.8193,612.638 -54,153 -71.4598,-60.9049 253.8421,844.8191 33,259 39.241,27.2344 143.5511,217.9419 178.4714,144.0571 44.3095,-69.1391 60.9175,1.8175 140.5286,37.9429 98.1734,2.6797 167.5382,103.2232 133,96 47.605,12.8847 31.7169,184.8214 22,122 -8.1095,74.6818 75.6731,65.5815 66,84 z"
       id="path6" />
  </g>
</svg>
