<?xml version="1.0" standalone="no"?>
<!DOCTYPE svg PUBLIC "-//W3C//DTD SVG 20010904//EN"
 "http://www.w3.org/TR/2001/REC-SVG-20010904/DTD/svg10.dtd">
<svg version="1.0" xmlns="http://www.w3.org/2000/svg"
 width="1024.000000pt" height="1024.000000pt" viewBox="0 0 1024.000000 1024.000000"
 preserveAspectRatio="xMidYMid meet">
<metadata>
Created by potrace 1.16, written by Peter Selinger 2001-2019
</metadata>
<g transform="translate(0.000000,1024.000000) scale(0.100000,-0.100000)"
fill="#000000" stroke="none">
<path d="M5355 9610 c-10 -11 -26 -20 -37 -20 -10 0 -18 -4 -18 -10 0 -5 7 -6
17 -3 10 4 14 2 9 -5 -3 -6 -2 -13 3 -17 5 -3 8 -14 6 -25 -2 -11 0 -20 4 -20
16 0 20 13 10 32 -9 17 -8 18 10 9 29 -16 33 -14 20 10 -9 17 -8 20 2 14 7 -5
10 -4 6 2 -3 5 0 10 8 10 8 0 14 -3 13 -6 -2 -25 3 -33 15 -22 10 8 14 7 14
-4 0 -8 -5 -12 -11 -9 -6 3 -2 -2 8 -10 11 -9 17 -16 14 -16 -4 0 -14 -3 -24
-7 -14 -5 -16 -3 -10 12 3 10 -12 -1 -34 -24 -22 -22 -40 -37 -40 -32 0 5 7
14 15 21 8 7 15 17 15 23 0 5 -8 3 -18 -6 -16 -15 -19 -15 -29 2 -9 14 -9 21
0 31 9 10 7 11 -12 5 -13 -4 -21 -3 -18 2 3 5 2 15 -2 22 -6 9 -11 10 -15 2
-4 -6 -3 -11 2 -11 13 0 11 -30 -2 -31 -36 -2 -77 -19 -47 -19 7 0 9 -4 6 -10
-3 -5 -1 -10 5 -10 7 0 9 7 6 16 -3 8 -2 12 4 9 5 -3 19 -1 31 6 12 6 19 7 15
1 -3 -5 1 -13 10 -16 9 -4 14 -9 11 -13 -4 -3 -13 0 -22 7 -13 11 -19 10 -35
-5 -16 -15 -22 -16 -35 -5 -13 11 -16 11 -13 -1 2 -8 -2 -13 -9 -12 -6 1 -14
-4 -17 -13 -4 -12 -2 -12 14 -4 34 18 36 11 3 -10 -18 -11 -33 -25 -33 -30 0
-6 -5 -8 -11 -5 -6 5 -4 12 8 21 12 9 13 13 5 14 -7 0 -10 5 -6 12 4 7 3 8 -5
4 -6 -4 -9 -11 -6 -16 3 -5 -3 -13 -12 -19 -10 -6 -12 -11 -5 -11 6 0 12 -4
12 -10 0 -5 -6 -7 -13 -4 -13 5 -54 -31 -50 -45 0 -3 -3 -5 -7 -4 -9 3 -8 -17
2 -32 4 -6 2 -17 -4 -25 -8 -12 -9 -12 -4 3 7 23 -7 22 -30 -4 -16 -17 -16
-22 -4 -29 13 -8 12 -10 -2 -10 -9 0 -20 -5 -24 -12 -4 -6 -3 -8 4 -4 6 4 10
-1 9 -13 -1 -15 -4 -17 -14 -9 -8 6 -16 8 -20 4 -3 -3 -2 -6 4 -6 6 0 13 -11
15 -24 4 -17 1 -23 -9 -19 -7 3 -10 10 -6 17 4 7 1 6 -9 -2 -8 -6 -14 -23 -13
-37 2 -14 -1 -27 -6 -31 -5 -3 -7 -9 -5 -13 3 -4 -1 -8 -8 -8 -8 0 -12 6 -9
14 3 7 8 13 12 13 4 0 8 7 8 15 0 21 -5 19 -21 -14 -12 -22 -12 -31 -3 -40 9
-10 8 -11 -7 -5 -13 5 -17 4 -12 -4 4 -7 2 -12 -3 -12 -6 0 -11 -5 -11 -11 0
-5 5 -7 11 -3 6 3 4 -5 -6 -19 -10 -17 -13 -27 -6 -32 6 -3 11 -12 11 -18 0
-8 -4 -7 -9 2 -11 17 -53 23 -48 7 2 -6 12 -10 21 -10 9 1 16 -2 16 -7 0 -5
-8 -9 -17 -9 -16 -1 -16 -2 2 -17 16 -13 17 -15 3 -10 -10 4 -18 2 -18 -3 0
-6 5 -10 12 -10 6 0 9 -3 6 -6 -4 -3 -16 -1 -27 6 -15 7 -21 7 -21 0 0 -6 7
-13 16 -17 14 -5 13 -8 -6 -18 -19 -10 -20 -13 -6 -24 13 -11 16 -11 16 3 0
19 16 21 26 4 4 -7 3 -8 -4 -4 -7 4 -13 2 -13 -3 -1 -6 -2 -17 -3 -23 -1 -15
-76 -20 -76 -6 0 5 10 6 22 2 20 -6 21 -5 9 10 -9 11 -10 16 -2 16 7 0 10 4 6
10 -3 5 -12 7 -19 4 -8 -3 -17 -1 -21 5 -3 6 0 9 8 5 8 -3 18 -1 21 5 4 6 14
8 24 5 13 -4 14 -3 4 4 -7 5 -25 8 -40 6 -15 -2 -19 -1 -9 2 9 3 15 10 12 15
-4 5 2 6 12 2 16 -6 16 -5 4 10 -7 9 -10 17 -5 18 5 1 -2 5 -16 9 -24 8 -24 8
-2 9 19 1 21 4 12 20 -5 11 -7 26 -4 35 3 9 0 14 -8 12 -26 -3 -36 -16 -34
-41 2 -13 -1 -22 -5 -19 -23 14 11 74 39 69 9 -2 21 -4 25 -4 5 -1 6 -5 2 -10
-3 -5 -1 -12 4 -15 5 -4 8 2 6 11 -2 10 -4 21 -4 24 -3 17 -85 3 -92 -16 -4
-11 -8 -14 -8 -7 -1 6 -6 12 -12 12 -5 0 -7 -5 -3 -12 5 -8 2 -9 -9 -5 -12 4
-17 1 -17 -11 0 -15 -2 -15 -10 -2 -8 13 -10 12 -10 -3 0 -10 -5 -15 -10 -12
-6 3 -13 -1 -16 -9 -3 -9 -14 -16 -23 -15 -10 0 -11 2 -3 6 6 2 12 10 12 16 0
6 -10 1 -23 -11 -13 -12 -29 -22 -37 -22 -9 0 -8 -6 5 -20 10 -11 13 -20 7
-20 -7 0 -12 5 -12 10 0 6 -4 10 -10 10 -5 0 -7 -6 -4 -13 3 -8 -3 -20 -13
-28 -16 -12 -17 -12 -7 1 6 8 11 26 12 38 l1 24 -24 -26 c-12 -13 -27 -22 -31
-18 -5 4 -2 -2 6 -12 10 -13 10 -17 3 -12 -8 4 -13 2 -13 -4 0 -6 -4 -9 -9 -5
-6 3 -8 -4 -6 -16 4 -17 2 -19 -11 -8 -12 10 -13 9 -8 -7 4 -10 3 -16 -1 -12
-5 5 -15 -1 -23 -13 -10 -14 -17 -17 -26 -10 -7 6 -15 8 -19 5 -8 -9 4 -35 13
-29 5 3 11 1 14 -4 7 -11 -13 -9 -32 3 -7 4 -19 3 -26 -3 -7 -6 -16 -7 -20 -3
-4 4 -6 0 -4 -8 2 -8 -2 -14 -7 -15 -6 0 -21 -10 -34 -22 -13 -12 -28 -20 -32
-17 -5 3 -6 -3 -2 -12 4 -12 3 -15 -5 -10 -8 4 -16 -2 -21 -16 -6 -13 -10 -19
-10 -14 -1 11 -31 -13 -31 -25 0 -5 5 -9 11 -9 5 0 7 5 3 12 -4 7 -3 8 5 4 6
-4 18 -4 24 1 7 4 1 -2 -13 -14 -14 -13 -31 -23 -38 -23 -7 0 -10 -5 -7 -10 4
-6 10 -8 15 -5 4 3 14 -3 21 -12 12 -15 12 -16 -1 -8 -22 14 -39 15 -47 3 -3
-7 -1 -8 5 -4 8 5 11 0 9 -15 -2 -13 -10 -25 -18 -27 -11 -3 -12 -2 -1 6 11 8
11 10 -1 15 -10 4 -14 0 -12 -11 1 -9 -3 -21 -9 -25 -7 -6 -4 -7 7 -3 10 3 15
2 12 -3 -3 -5 -1 -12 5 -16 5 -3 10 -12 10 -18 0 -7 -5 -4 -11 6 -10 17 -29
15 -29 -4 0 -6 5 -7 10 -4 11 7 9 -70 -3 -81 -4 -4 -1 -14 6 -22 10 -13 9 -14
-12 -3 -13 7 -21 8 -17 3 3 -6 3 -12 -1 -15 -5 -2 -2 -2 6 0 11 3 12 1 1 -12
-8 -10 -9 -15 -1 -15 6 0 11 -5 11 -12 0 -6 -3 -8 -7 -5 -13 13 -36 -33 -24
-47 9 -11 5 -19 -18 -39 -17 -14 -27 -28 -23 -32 4 -5 -2 -5 -12 -1 -16 5 -17
4 -6 -9 10 -12 10 -15 0 -15 -7 0 -10 -7 -6 -15 3 -10 -1 -15 -12 -16 -10 0
-12 -3 -4 -6 6 -2 12 -9 12 -14 0 -6 -4 -8 -9 -4 -5 3 -13 0 -17 -6 -4 -7 -3
-9 3 -6 6 4 14 0 17 -9 9 -23 7 -31 -4 -14 -8 13 -11 13 -22 1 -11 -11 -11
-13 1 -6 10 6 13 4 8 -7 -3 -9 -1 -20 5 -26 6 -6 6 -12 -3 -17 -8 -6 -10 -4
-4 6 8 12 6 12 -8 0 -18 -14 -23 -26 -8 -16 5 3 12 1 16 -5 3 -5 -1 -10 -9
-10 -10 0 -13 -7 -10 -25 3 -15 0 -25 -7 -25 -7 0 -10 -12 -7 -29 3 -20 0 -27
-8 -24 -19 7 -27 -16 -12 -34 9 -12 9 -15 1 -9 -12 7 -17 -4 -14 -31 1 -6 -4
-15 -10 -19 -8 -5 -9 -3 -4 7 5 8 4 11 0 6 -5 -4 -10 -16 -12 -27 -6 -36 -10
-55 -18 -72 -4 -10 -5 -25 -2 -33 4 -8 1 -17 -5 -21 -7 -4 -8 -3 -4 4 15 24
-2 11 -19 -14 -9 -15 -12 -24 -7 -20 6 3 13 2 16 -3 3 -5 -1 -12 -10 -15 -14
-5 -14 -9 -3 -23 8 -9 9 -14 3 -10 -7 4 -14 0 -18 -8 -3 -8 0 -17 6 -21 7 -5
5 -11 -6 -20 -9 -6 -18 -23 -18 -36 -1 -12 -8 -31 -17 -41 -14 -16 -13 -17 5
-12 18 6 18 6 -1 -10 -11 -9 -19 -23 -17 -32 2 -8 -1 -12 -7 -8 -7 3 -8 0 -5
-9 3 -9 11 -13 18 -9 7 4 7 1 -1 -9 -7 -8 -9 -19 -5 -24 4 -4 -1 -2 -11 6 -16
11 -18 11 -15 -1 2 -8 12 -20 23 -27 15 -10 16 -12 3 -8 -23 7 -33 -10 -12
-22 15 -8 15 -10 0 -15 -12 -5 -15 -3 -10 6 4 7 3 9 -2 4 -5 -5 -9 -12 -9 -15
0 -4 -4 -13 -9 -21 -7 -11 -5 -13 7 -8 24 9 21 -1 -5 -25 -13 -11 -18 -17 -11
-14 6 4 14 2 18 -4 3 -5 -1 -10 -9 -10 -8 0 -18 -5 -22 -12 -5 -7 -2 -8 7 -3
11 6 12 5 2 -6 -7 -7 -13 -21 -13 -30 0 -18 -26 -33 -41 -24 -5 4 -6 -2 -2
-11 4 -11 3 -15 -5 -10 -6 3 -13 2 -17 -4 -4 -6 -10 -8 -15 -5 -5 3 -11 1 -15
-5 -3 -5 -11 -10 -18 -10 -6 0 -3 6 8 13 12 10 14 16 7 21 -7 4 -12 2 -12 -5
0 -6 -8 -9 -20 -6 -11 3 -18 1 -14 -4 8 -13 -10 -11 -25 4 -10 10 -11 9 -6 -5
4 -10 12 -18 18 -18 6 0 8 -3 4 -6 -3 -3 -11 -3 -18 2 -16 10 -72 9 -89 -1 -8
-5 -11 -4 -7 2 11 17 -21 24 -37 8 -12 -13 -15 -12 -20 1 -5 12 -10 13 -28 3
-16 -9 -23 -9 -26 0 -2 6 -8 11 -13 11 -6 0 -7 -5 -3 -12 4 -7 3 -8 -5 -4 -6
4 -18 2 -26 -4 -12 -10 -13 -8 -10 10 4 22 4 22 -17 4 -18 -16 -20 -17 -15 -2
5 14 1 15 -26 7 -18 -5 -33 -9 -35 -9 -2 0 -1 -4 2 -8 3 -5 -1 -9 -9 -9 -19 0
-19 2 1 21 8 9 11 16 5 16 -5 0 -13 -5 -16 -10 -4 -7 -13 -6 -27 1 -11 6 -18
7 -14 1 3 -5 -4 -18 -17 -28 -12 -10 -16 -12 -9 -4 16 18 15 27 -3 27 -8 0
-12 -4 -10 -8 3 -4 -2 -9 -10 -12 -9 -4 -12 -1 -9 7 3 8 -3 12 -18 11 -13 -1
-23 -7 -23 -12 0 -6 -4 -15 -8 -20 -5 -4 -7 -2 -5 6 2 7 -3 16 -11 19 -10 3
-11 0 -5 -9 6 -12 5 -12 -10 0 -12 10 -20 11 -28 3 -13 -13 -40 -4 -32 12 3 6
-4 0 -17 -14 l-22 -25 8 25 c7 22 6 23 -8 12 -12 -10 -17 -10 -23 -1 -5 8 -3
10 7 4 8 -5 10 -4 6 0 -12 14 -36 14 -31 1 2 -6 -5 -12 -16 -13 -11 -1 -20 3
-20 8 0 6 4 7 10 4 6 -4 7 1 3 11 -4 11 -8 13 -11 6 -2 -7 -9 -9 -15 -5 -18
11 -47 11 -54 0 -4 -6 -1 -7 8 -2 11 7 12 6 2 -6 -6 -8 -11 -18 -11 -22 0 -5
-3 -11 -6 -14 -3 -3 -4 3 -2 14 3 11 0 26 -5 34 -5 8 -9 9 -9 3 0 -6 -10 -10
-22 -10 -13 1 -29 -3 -37 -8 -12 -9 -12 -7 -2 11 10 19 9 22 -4 17 -8 -4 -15
-11 -15 -18 0 -6 -4 -5 -9 4 -6 8 -8 17 -6 20 2 4 -2 7 -10 7 -11 0 -12 -5 -4
-21 8 -17 6 -16 -12 4 -25 29 -22 29 -43 11 -14 -12 -16 -12 -10 3 4 12 2 15
-9 10 -9 -3 -24 -1 -36 5 -16 9 -21 8 -26 -9 -8 -27 -20 -25 -22 2 -2 18 0 20
7 8 6 -9 10 -10 10 -3 0 26 -71 40 -99 19 -9 -6 -12 -7 -9 -1 4 6 -5 15 -18
22 -14 6 -26 7 -30 2 -3 -5 -10 -9 -15 -9 -6 0 -7 5 -4 11 4 6 1 10 -6 8 -28
-3 -40 1 -33 13 4 7 3 8 -4 4 -6 -4 -9 -13 -5 -21 3 -8 0 -15 -6 -15 -6 0 -10
6 -8 13 1 6 -4 11 -12 9 -12 -3 -12 0 -1 13 11 13 10 14 -6 8 -10 -3 -23 -11
-27 -17 -5 -6 -5 0 -1 14 6 23 6 24 -11 10 -11 -9 -16 -10 -11 -2 4 7 2 12 -4
12 -6 0 -8 6 -4 13 4 6 4 9 -1 5 -4 -4 -15 -2 -24 5 -14 10 -14 10 -4 -4 7 -9
10 -19 6 -22 -3 -4 0 -7 7 -7 7 0 11 -2 8 -5 -3 -3 -13 -2 -22 1 -10 4 -13 10
-8 13 17 11 -15 44 -43 44 -22 0 -23 1 -9 12 12 8 14 14 5 19 -6 4 -9 12 -6
17 4 5 0 9 -8 9 -8 0 -22 10 -31 23 -9 12 -14 16 -10 8 5 -11 3 -13 -9 -8 -10
3 -17 2 -17 -4 0 -6 -6 -7 -12 -3 -10 6 -10 4 0 -8 10 -13 10 -18 1 -24 -7 -4
-9 -3 -6 2 3 6 -2 15 -12 21 -15 10 -18 9 -17 -5 0 -9 -5 -16 -11 -15 -7 2
-12 -3 -10 -10 1 -6 -4 -11 -11 -9 -8 1 -11 -2 -7 -8 5 -8 11 -8 20 0 9 8 15
8 20 0 4 -6 1 -9 -7 -8 -7 2 -12 -4 -10 -13 1 -9 -5 -19 -13 -23 -10 -3 -13
-11 -9 -18 5 -8 0 -7 -11 2 -17 14 -18 14 -6 -9 7 -13 8 -21 3 -17 -6 3 -13 2
-17 -4 -3 -5 0 -10 7 -10 9 0 9 -3 2 -8 -15 -10 -24 -51 -13 -57 4 -3 6 -13 3
-23 -5 -14 -4 -15 5 -2 6 9 11 10 11 3 0 -6 9 -14 19 -18 11 -3 23 -15 26 -25
4 -13 12 -17 23 -13 9 3 14 3 11 -1 -14 -16 -48 -15 -42 1 5 12 3 14 -7 8 -8
-5 -11 -4 -6 3 7 11 -11 28 -20 19 -8 -8 27 -58 36 -52 5 3 11 -1 13 -7 4 -10
6 -10 6 0 1 6 6 12 11 12 6 0 10 -6 9 -12 -3 -28 2 -40 15 -35 9 4 17 -1 19
-11 3 -12 5 -11 6 5 1 15 7 21 20 20 11 0 17 -5 15 -9 -5 -7 9 -12 28 -10 3 1
12 -6 20 -16 12 -16 11 -16 -6 -2 -18 14 -19 13 -13 -5 7 -19 6 -19 -7 -1 -15
18 -36 14 -36 -7 0 -7 4 -6 10 3 9 14 15 6 10 -15 -1 -5 2 -7 5 -3 4 4 17 3
28 -3 15 -9 18 -8 12 3 -4 7 4 0 19 -16 28 -31 36 -25 11 8 -8 11 -15 25 -15
30 1 6 8 -2 16 -17 13 -24 18 -27 32 -15 11 9 14 10 8 1 -4 -8 -2 -13 4 -13 6
0 8 -5 4 -11 -4 -8 -9 -7 -15 2 -7 11 -9 11 -9 -2 0 -9 8 -20 17 -23 10 -4 14
-4 11 0 -4 3 0 13 8 21 8 9 18 12 22 9 3 -4 0 -12 -8 -17 -11 -8 -12 -12 -2
-16 6 -2 9 -10 6 -15 -4 -7 -2 -8 5 -4 6 4 9 12 6 17 -4 5 -1 9 6 9 6 0 9 -8
7 -18 -4 -14 1 -18 19 -18 13 0 22 5 19 11 -2 7 2 12 9 12 17 0 2 -33 -17 -39
-9 -3 -9 -6 0 -12 7 -4 12 -2 12 3 0 6 7 11 16 11 8 0 12 5 9 11 -4 6 2 5 14
-3 12 -7 21 -18 21 -25 0 -7 7 -10 17 -6 12 5 14 3 8 -7 -6 -10 -4 -11 6 -4 8
5 21 9 29 9 8 0 14 6 12 14 -3 12 0 12 12 1 9 -7 16 -9 16 -6 0 4 8 3 17 -3
13 -7 23 -5 38 7 20 17 20 17 1 -5 -18 -22 -18 -22 3 -20 12 1 21 5 21 9 0 4
5 8 12 8 9 0 9 -3 0 -12 -17 -17 -15 -28 4 -28 8 0 13 -4 10 -9 -3 -4 9 -7 26
-5 17 2 37 -1 45 -7 7 -6 13 -8 13 -4 0 4 6 3 13 -3 6 -5 27 -8 46 -7 21 2 29
0 20 -6 -7 -4 -10 -11 -6 -15 3 -4 14 -1 23 7 15 12 16 11 10 -11 -5 -17 -4
-21 2 -11 8 11 10 11 15 0 4 -10 6 -10 6 -1 1 6 6 12 12 12 5 0 7 -4 4 -10 -3
-5 0 -10 9 -10 8 0 17 -6 19 -12 4 -10 6 -10 6 -1 1 7 8 10 16 7 11 -5 14 -1
9 12 -5 16 -4 16 5 4 8 -11 6 -18 -7 -29 -16 -13 -16 -13 2 -7 11 4 22 2 26
-4 4 -7 28 -13 54 -16 29 -2 45 0 41 6 -4 6 -11 7 -17 4 -7 -4 -8 -2 -4 4 9
15 47 -7 40 -23 -3 -5 3 0 14 12 17 19 21 20 26 7 3 -8 2 -13 -2 -10 -5 3 -9
-1 -9 -9 0 -10 5 -11 18 -4 12 6 22 5 33 -6 17 -17 30 -20 21 -5 -3 6 -1 10 4
10 6 0 11 -4 11 -9 0 -5 12 -11 26 -14 18 -3 24 -1 20 8 -3 8 1 16 9 19 9 3
12 0 9 -8 -3 -7 3 -19 12 -27 15 -13 16 -11 10 11 -5 17 -4 20 2 12 5 -8 12
-13 16 -13 20 3 26 0 20 -11 -5 -9 -2 -9 9 1 12 9 17 10 17 2 0 -7 5 -9 10 -6
8 5 7 12 -2 23 -12 15 -11 16 4 3 10 -7 16 -17 13 -21 -3 -5 -1 -11 4 -14 5
-4 12 -2 16 3 3 5 14 8 25 6 14 -3 18 0 13 8 -4 7 0 6 10 -2 9 -7 17 -10 17
-5 0 5 5 1 11 -8 8 -14 15 -15 35 -8 32 13 47 13 39 1 -6 -11 28 -7 47 5 7 4
8 3 4 -4 -5 -8 3 -12 23 -12 17 0 31 -5 31 -11 0 -5 4 -8 9 -4 5 3 17 -3 27
-12 10 -10 20 -18 23 -18 10 0 8 -66 -2 -72 -6 -3 -7 -2 -4 4 3 5 1 10 -6 10
-8 0 -12 -16 -11 -43 0 -32 -3 -41 -13 -37 -11 4 -12 -1 -7 -21 4 -18 2 -26
-7 -26 -11 0 -11 -3 1 -10 13 -8 12 -10 -4 -10 -15 0 -17 -3 -8 -12 9 -9 6
-17 -13 -34 -16 -15 -20 -24 -12 -27 9 -4 8 -8 -3 -16 -8 -6 -10 -11 -5 -11 6
0 3 -5 -6 -10 -9 -5 -14 -21 -13 -39 1 -17 -2 -28 -7 -25 -9 5 -11 0 -13 -28
-1 -7 -8 -19 -16 -26 -11 -10 -12 -12 -1 -6 11 6 13 3 7 -12 -5 -10 -9 -26
-10 -34 0 -8 -8 -21 -16 -28 -8 -8 -10 -11 -4 -8 12 6 29 -23 19 -32 -3 -3 -5
0 -5 7 0 25 -23 4 -24 -21 -1 -16 3 -24 9 -21 5 4 2 -3 -8 -14 -18 -21 -18
-22 0 -33 17 -11 17 -11 -1 -6 -15 5 -18 2 -14 -19 3 -14 3 -23 0 -20 -8 8
-32 -16 -26 -27 3 -5 -2 -16 -12 -23 -11 -8 -14 -15 -9 -15 6 0 3 -5 -5 -11
-13 -9 -13 -10 1 -6 13 4 15 1 12 -14 -3 -10 -10 -16 -17 -12 -6 3 -8 2 -3 -2
4 -5 0 -16 -8 -25 -13 -14 -13 -17 0 -17 8 0 12 3 10 7 -2 4 3 7 11 7 10 0 8
-7 -8 -24 -21 -22 -35 -78 -17 -67 5 3 6 -2 3 -10 -3 -9 -11 -13 -18 -10 -6 3
-2 -2 8 -10 17 -14 17 -16 3 -16 -10 0 -14 -5 -11 -15 4 -8 1 -15 -6 -15 -7 0
-6 -6 4 -16 21 -21 20 -30 -1 -13 -15 13 -15 12 -3 -11 12 -23 12 -24 -4 -11
-15 13 -16 12 -6 -14 9 -25 9 -27 -5 -15 -13 11 -14 10 -9 -5 6 -14 4 -16 -6
-10 -9 5 -11 4 -6 -3 4 -7 3 -20 -3 -29 -7 -14 -4 -24 12 -42 12 -13 16 -21
10 -17 -7 4 -13 2 -13 -4 0 -6 -5 -8 -12 -4 -6 4 -8 3 -4 -4 3 -6 -2 -16 -11
-22 -16 -10 -16 -11 -1 -6 10 3 20 1 23 -4 3 -5 -4 -12 -16 -15 -19 -6 -20 -7
-2 -21 11 -8 13 -13 6 -14 -7 0 -13 -5 -13 -11 0 -5 5 -7 11 -3 8 5 8 1 0 -13
-6 -11 -7 -24 -3 -28 4 -5 -2 -5 -13 -2 -19 7 -19 6 -2 -7 17 -13 24 -32 8
-22 -5 3 -11 -1 -14 -9 -4 -8 -1 -12 6 -9 7 2 13 -6 13 -21 2 -23 1 -24 -11
-9 -11 15 -12 14 -11 -9 1 -14 5 -29 9 -33 4 -4 -1 -16 -10 -27 -10 -11 -13
-17 -7 -14 12 7 29 -21 19 -31 -3 -3 -5 0 -5 6 0 7 -4 12 -9 12 -5 0 -7 -10
-4 -22 4 -19 3 -20 -6 -8 -9 12 -10 9 -7 -13 3 -16 11 -36 18 -45 8 -11 4 -10
-11 3 -14 11 -21 14 -17 8 13 -23 15 -52 4 -59 -7 -5 -8 -2 -3 6 6 9 4 11 -4
5 -9 -5 -10 -10 -2 -18 7 -7 7 -14 -2 -21 -7 -6 -10 -10 -8 -9 2 2 11 -2 18
-9 12 -10 11 -15 -9 -31 -13 -10 -17 -15 -9 -11 11 5 13 3 8 -10 -4 -9 -3 -14
2 -11 5 3 13 0 17 -6 4 -8 3 -9 -4 -5 -7 4 -12 2 -12 -4 0 -6 -4 -9 -9 -6 -4
3 -8 -5 -7 -17 1 -12 7 -21 14 -20 17 4 15 -2 -5 -18 -9 -8 -14 -9 -10 -3 3 6
1 11 -6 11 -7 0 -13 -9 -13 -19 0 -10 5 -18 10 -18 5 0 1 -7 -10 -15 -11 -8
-14 -15 -6 -15 6 0 12 -5 12 -11 0 -5 -6 -7 -12 -4 -7 4 -4 -1 6 -9 17 -14 17
-16 4 -16 -9 0 -19 -4 -22 -9 -3 -5 8 -7 24 -6 25 2 28 0 19 -11 -7 -8 -14
-12 -17 -9 -13 12 -30 -30 -20 -49 8 -15 8 -21 -1 -24 -8 -3 -6 -9 6 -19 10
-8 13 -12 7 -9 -7 3 -14 -3 -17 -14 -3 -11 0 -20 6 -20 7 0 6 -5 -3 -11 -11
-8 -12 -12 -2 -16 6 -2 12 -9 12 -14 0 -6 -4 -8 -9 -5 -9 6 -22 -16 -28 -49
-2 -14 0 -16 5 -7 6 8 8 -2 8 -27 0 -22 -3 -38 -7 -35 -4 2 -13 -4 -20 -13
-11 -13 -11 -17 -1 -20 6 -3 12 -9 12 -14 0 -6 -5 -7 -12 -3 -6 4 -8 3 -4 -4
3 -5 0 -13 -6 -16 -7 -4 -3 -4 10 -2 19 4 21 2 11 -10 -6 -7 -16 -11 -22 -7
-6 4 -8 0 -4 -10 5 -14 -17 -33 -35 -29 -5 1 -8 -3 -8 -9 0 -8 -6 -7 -17 2 -9
8 -14 9 -11 4 4 -6 3 -17 -3 -25 -7 -13 -9 -13 -9 -1 0 11 -4 10 -13 -4 -8
-10 -19 -15 -25 -11 -6 3 -14 1 -18 -5 -5 -8 -3 -9 6 -4 9 6 11 4 5 -5 -6 -10
-11 -9 -23 6 -14 18 -14 18 -10 -1 4 -16 0 -21 -16 -23 -17 -1 -18 1 -6 8 12
8 11 10 -6 10 -11 0 -26 6 -33 12 -11 10 -13 10 -7 1 4 -7 2 -13 -3 -13 -10 0
-15 14 -12 33 1 4 -8 3 -20 -4 -16 -8 -20 -8 -14 1 4 7 1 10 -10 8 -10 -2 -20
4 -22 12 -4 13 -3 13 6 0 6 -8 11 -10 11 -4 0 21 -14 24 -33 7 -14 -13 -18
-14 -12 -3 14 22 15 39 3 47 -6 3 -8 1 -4 -5 3 -6 2 -13 -4 -17 -5 -3 -10 3
-10 15 0 12 -4 18 -10 15 -5 -3 -10 0 -10 7 0 9 -3 9 -10 -2 -8 -12 -10 -11
-10 8 0 12 -5 22 -11 22 -5 0 -8 -4 -4 -9 3 -5 0 -13 -6 -17 -7 -4 -9 -3 -6 3
4 6 -1 17 -10 24 -15 12 -16 12 -10 -3 3 -10 4 -18 1 -18 -2 0 -9 11 -14 24
-7 18 -14 22 -34 19 -14 -3 -26 -1 -26 5 0 5 -7 13 -16 16 -14 5 -15 4 -4 -9
11 -13 10 -14 -4 -9 -9 3 -16 12 -16 20 0 8 -5 14 -11 14 -5 0 -7 -6 -3 -12 6
-10 4 -10 -8 0 -13 10 -17 10 -21 0 -3 -10 -9 -9 -22 4 -14 13 -24 14 -43 7
-23 -9 -24 -8 -11 7 13 16 12 16 -7 6 -16 -8 -24 -8 -34 1 -10 9 -11 9 -5 -2
5 -9 3 -12 -6 -9 -8 3 -13 11 -11 17 1 7 -2 10 -8 6 -6 -4 -16 -2 -23 3 -7 5
-20 8 -31 6 -14 -2 -17 2 -14 21 4 16 1 22 -9 18 -7 -3 -10 -9 -7 -14 3 -5 -2
-6 -11 -3 -9 4 -12 11 -7 18 14 19 12 59 -4 71 -13 9 -12 11 5 11 11 0 18 -4
15 -7 -2 -4 0 -10 5 -14 12 -7 7 26 -9 55 -6 11 -8 26 -4 32 4 6 3 8 -4 4 -6
-3 -14 3 -17 15 -4 11 -9 18 -12 16 -2 -3 1 -15 7 -27 7 -13 8 -20 2 -16 -6 3
-12 -1 -14 -11 -2 -11 -13 -18 -30 -18 -15 -1 -25 2 -22 6 2 4 13 6 24 4 11
-2 20 0 20 5 0 4 3 15 6 24 4 11 1 16 -10 16 -9 0 -16 5 -16 11 0 5 5 7 12 3
6 -4 8 -3 4 4 -3 5 0 12 6 15 7 3 3 4 -9 4 -12 -1 -20 -4 -18 -7 2 -3 0 -12
-4 -19 -7 -10 -9 -10 -13 1 -6 15 11 45 27 46 5 0 10 5 12 12 1 6 0 7 -4 0 -2
-5 -9 -8 -14 -4 -5 3 -5 12 0 23 14 25 6 56 -13 55 -9 -1 -16 5 -16 13 0 8 5
11 12 7 7 -4 8 -3 4 5 -6 9 -11 9 -24 -1 -14 -11 -15 -10 -9 7 7 20 7 20 -8 0
-15 -18 -15 -17 -11 20 4 29 3 34 -3 20 -9 -18 -16 -8 -12 17 0 5 -2 7 -7 7
-26 -4 -40 4 -44 26 -3 13 -2 22 2 20 4 -3 6 9 4 25 -2 19 1 30 9 30 8 0 8 3
-2 9 -8 5 -14 23 -13 39 0 19 -5 33 -15 36 -12 5 -13 3 -6 -6 12 -17 14 -56 3
-63 -15 -9 -33 34 -21 49 7 9 6 19 -5 35 -18 25 -11 42 9 21 10 -10 9 -11 -2
-5 -9 5 -12 4 -7 -3 14 -22 23 -12 22 23 -1 25 -4 32 -11 23 -8 -10 -15 -8
-32 9 -12 13 -18 23 -13 23 17 0 25 -5 23 -12 -2 -5 2 -8 7 -8 6 0 10 7 10 15
0 8 -5 15 -11 15 -5 0 -7 5 -3 11 4 7 -1 7 -16 -1 -20 -11 -22 -10 -17 3 6 17
-15 41 -27 30 -10 -10 -46 -11 -40 -1 4 5 13 7 21 4 8 -3 11 -1 8 4 -3 6 -13
10 -21 10 -8 0 -17 7 -21 16 -5 14 -8 13 -20 -7 -8 -13 -12 -17 -9 -8 5 20
-36 62 -50 51 -5 -4 -8 -5 -6 -3 1 2 -6 13 -15 24 -10 11 -13 17 -6 14 6 -4
14 -3 18 3 3 5 -3 10 -15 10 -17 0 -19 4 -14 25 4 15 2 25 -5 25 -6 0 -11 4
-11 10 0 5 3 9 8 7 4 -1 7 3 7 8 0 6 -9 9 -20 8 -11 -1 -14 1 -7 3 6 3 13 15
13 27 1 17 2 18 6 5 5 -21 19 -23 29 -6 4 7 3 8 -4 4 -11 -7 -16 7 -15 41 1 7
-4 10 -9 7 -6 -4 -8 -1 -6 7 8 20 -10 49 -26 43 -8 -3 -17 0 -22 7 -4 7 -3 10
3 6 5 -3 10 1 10 10 0 11 -8 7 -25 -13 -16 -20 -20 -22 -13 -7 23 46 10 72
-26 50 -6 -4 -15 -2 -19 4 -4 8 -3 9 4 5 15 -9 16 16 1 31 -6 6 -18 9 -25 6
-10 -4 -12 0 -7 13 6 17 5 18 -12 4 -10 -8 -16 -10 -13 -5 4 6 -2 17 -14 24
-11 7 -17 8 -13 2 3 -6 2 -11 -4 -11 -5 0 -13 5 -16 10 -4 6 -14 10 -23 8 -10
-1 -23 1 -29 5 -8 5 -13 3 -13 -4 0 -10 -3 -10 -12 -1 -7 7 -17 8 -30 1 -10
-5 -18 -7 -18 -4 0 4 -7 -1 -16 -10 -12 -11 -20 -13 -29 -5 -10 8 -15 8 -21
-1 -5 -8 -3 -9 6 -4 9 5 11 4 6 -4 -6 -9 -11 -9 -24 1 -13 11 -14 11 -7 -1 6
-11 4 -13 -9 -8 -13 5 -19 1 -23 -12 -3 -13 -10 -18 -21 -14 -14 5 -13 2 3
-18 11 -13 13 -18 4 -11 -13 10 -19 8 -34 -8 -10 -11 -25 -20 -33 -20 -10 0
-13 -7 -9 -21 4 -16 3 -19 -5 -11 -12 12 -38 5 -38 -10 0 -5 5 -6 12 -2 7 5 8
3 4 -5 -5 -7 -15 -10 -23 -7 -9 4 -11 2 -7 -6 5 -8 1 -9 -12 -4 -10 4 -15 4
-11 0 4 -4 1 -14 -6 -23 -11 -14 -10 -15 8 -1 18 14 19 14 7 -2 -8 -9 -20 -14
-28 -11 -13 5 -20 -14 -15 -41 1 -5 -5 -3 -14 4 -14 11 -16 11 -13 -1 2 -8 -3
-13 -10 -11 -8 1 -11 -2 -7 -8 4 -6 1 -17 -5 -25 -10 -12 -10 -15 1 -15 12 0
12 -2 0 -9 -8 -5 -11 -16 -8 -24 3 -9 0 -14 -11 -13 -9 0 -16 -5 -15 -11 2 -7
-3 -13 -10 -13 -8 0 -7 -4 3 -10 11 -7 11 -10 2 -10 -7 0 -10 -4 -7 -10 4 -6
-1 -7 -12 -3 -16 6 -17 5 -3 -13 8 -10 11 -16 6 -12 -15 12 -35 -18 -29 -42 4
-15 2 -21 -5 -16 -6 3 -14 1 -18 -5 -4 -7 -3 -9 4 -5 16 10 20 -17 5 -32 -7
-8 -11 -18 -7 -23 3 -6 1 -16 -6 -24 -8 -10 -8 -15 1 -21 8 -4 9 -3 5 4 -4 7
-2 12 3 12 15 0 14 -6 -5 -34 -16 -25 -5 -44 18 -30 7 4 8 3 4 -4 -4 -7 -13
-12 -20 -12 -7 0 -12 -10 -10 -22 1 -13 3 -27 3 -32 1 -5 9 -2 19 5 16 13 16
13 -1 -7 -21 -25 -22 -38 -2 -30 8 3 15 1 15 -4 0 -6 -7 -10 -15 -10 -8 0 -15
-5 -15 -11 0 -6 6 -9 13 -6 8 3 12 -7 13 -29 0 -29 -1 -31 -13 -16 -13 15 -13
15 -4 -4 7 -14 7 -24 0 -31 -8 -8 -7 -13 2 -18 7 -5 10 -4 5 3 -3 6 -1 14 5
18 8 5 10 -1 7 -20 -5 -23 -3 -26 16 -21 16 5 17 4 7 -4 -13 -8 -13 -16 -1
-53 7 -24 14 -51 15 -60 2 -23 8 -29 32 -31 13 0 19 -8 19 -24 0 -12 -2 -20
-5 -17 -4 3 -6 11 -6 17 0 7 -9 13 -20 14 -15 2 -16 1 -5 -5 14 -7 22 -23 23
-49 0 -7 3 -13 6 -13 3 0 16 -8 29 -18 21 -17 22 -18 3 -18 -11 0 -18 3 -15 7
2 4 -3 10 -11 13 -13 4 -14 2 -5 -15 6 -11 15 -17 21 -13 6 3 8 -5 5 -20 -5
-31 -3 -32 15 -9 12 14 12 16 0 8 -10 -5 -12 -4 -7 4 12 19 22 4 20 -28 -1
-17 2 -31 8 -31 5 0 6 -4 3 -10 -3 -5 0 -7 9 -4 11 4 14 0 11 -15 -5 -25 12
-38 28 -22 9 9 8 11 -3 8 -8 -2 -12 -2 -7 0 4 3 4 10 0 16 -3 7 3 3 15 -7 23
-20 30 -32 12 -21 -5 3 -10 -1 -10 -9 0 -9 7 -16 16 -16 9 0 12 -5 8 -12 -5
-8 0 -7 11 2 17 14 18 13 12 -2 -3 -10 -2 -20 3 -23 6 -4 10 1 10 9 0 8 4 18
10 21 11 7 2 -23 -13 -42 -12 -17 5 -17 22 -1 11 11 13 9 9 -7 -4 -16 0 -21
16 -23 14 -1 17 1 8 7 -11 7 -11 9 1 14 16 6 16 -20 1 -45 -4 -7 -3 -8 4 -4 7
4 12 2 12 -3 0 -6 5 -11 11 -11 8 0 8 4 0 14 -8 10 -9 16 -1 21 6 4 9 1 8 -7
-2 -7 3 -12 10 -10 10 2 11 -4 7 -19 -6 -19 -5 -20 15 -9 15 8 20 8 16 1 -4
-6 -2 -11 5 -11 8 0 7 -5 -2 -17 -13 -17 -12 -16 14 0 19 12 26 14 25 5 -2 -7
3 -12 10 -10 8 1 11 -2 7 -8 -5 -8 -11 -8 -20 0 -9 8 -15 8 -20 0 -3 -5 1 -10
9 -10 15 0 21 -12 17 -33 -1 -5 2 -6 7 -3 5 3 18 -1 28 -9 24 -18 51 -19 57
-2 3 6 8 -3 12 -21 5 -19 11 -30 14 -25 11 15 45 38 37 26 -4 -7 -2 -13 3 -13
6 0 11 -4 11 -8 0 -5 -7 -9 -15 -9 -8 0 -11 5 -8 11 3 6 2 7 -2 3 -17 -15 -13
-36 6 -32 10 2 21 -1 25 -6 8 -13 34 22 27 36 -3 5 0 4 8 -3 16 -14 33 -16 24
-2 -3 6 -1 10 5 10 7 0 9 -7 6 -16 -3 -9 -6 -18 -6 -21 0 -3 -6 0 -14 6 -10 9
-15 8 -19 -3 -4 -11 -1 -13 10 -9 12 5 14 3 8 -8 -7 -11 -6 -12 7 -2 16 14 28
8 24 -10 -2 -7 -1 -9 1 -4 8 12 31 8 37 -8 4 -12 11 -13 31 -5 34 13 45 12 23
-1 -10 -5 -18 -15 -18 -20 0 -6 6 -7 12 -3 16 10 48 13 43 3 -3 -4 2 -12 10
-19 12 -10 13 -16 3 -29 -12 -14 -11 -14 5 -2 9 7 17 10 17 6 0 -4 7 -2 15 5
13 11 14 10 9 -5 -6 -14 -4 -16 6 -10 10 6 12 4 7 -8 -4 -11 -1 -17 7 -17 8 0
14 11 13 25 0 16 -4 22 -11 18 -6 -4 -5 1 3 10 17 22 18 21 18 -5 1 -63 3 -68
27 -68 13 0 27 6 29 13 4 7 6 6 6 -5 1 -9 -5 -19 -11 -21 -8 -3 -5 -6 5 -6 11
-1 15 -6 11 -13 -4 -7 -3 -8 5 -4 6 4 9 16 6 26 -3 10 -1 21 4 25 6 3 8 0 5
-8 -3 -8 0 -18 5 -22 6 -3 8 -12 4 -18 -5 -9 -3 -9 8 -1 8 6 26 10 41 9 16 -1
28 3 28 8 0 6 3 8 6 4 3 -3 1 -14 -5 -24 -6 -10 -11 -13 -11 -7 0 5 -11 10
-25 10 -21 0 -26 -9 -7 -12 7 -1 42 -14 54 -21 4 -2 5 3 2 11 -3 9 -1 16 5 16
6 0 11 -7 11 -16 0 -10 6 -14 15 -10 8 3 19 -2 24 -12 6 -9 11 -12 11 -5 0 13
17 12 40 -2 13 -7 13 -6 2 7 -7 9 -22 15 -32 13 -11 -2 -22 1 -26 6 -3 5 -2 9
3 8 4 -1 10 0 13 1 19 7 39 7 34 -1 -3 -5 9 -9 26 -9 22 0 29 -4 24 -12 -4 -7
3 -4 16 7 l24 20 -18 -30 -19 -30 25 23 c27 24 47 30 29 8 -9 -11 -9 -16 0
-22 8 -5 9 -3 4 6 -6 10 -4 12 8 7 8 -3 18 0 20 7 7 17 54 27 54 11 0 -6 -10
-10 -22 -7 -14 2 -22 -1 -22 -10 0 -8 6 -15 13 -15 7 0 11 4 8 9 -8 12 10 10
23 -3 8 -8 13 -7 18 2 6 8 4 10 -5 4 -9 -6 -11 -4 -5 5 6 10 13 8 28 -11 12
-14 18 -17 14 -7 -3 9 0 18 6 21 18 6 38 -3 31 -15 -4 -6 -10 -5 -16 3 -8 12
-9 12 -6 0 2 -8 12 -15 21 -17 9 -1 15 2 11 7 -3 5 5 7 18 5 13 -2 35 5 49 15
26 18 27 18 44 -1 10 -11 23 -20 28 -20 6 0 4 6 -4 13 -8 6 -19 19 -24 27 -6
10 -3 9 7 -2 9 -10 23 -18 32 -18 9 0 16 -4 16 -10 0 -5 6 -10 13 -10 6 0 -1
12 -16 25 -15 14 -24 25 -18 25 5 0 13 -5 16 -10 4 -6 15 -8 26 -5 11 4 19 2
19 -5 0 -6 -6 -8 -12 -4 -7 4 -5 -2 5 -12 18 -19 19 -19 33 0 14 19 14 19 14
-3 0 -23 0 -23 18 -4 9 10 14 14 10 9 -7 -9 16 -38 28 -36 4 1 11 -4 16 -12 8
-10 9 -9 4 4 -3 10 -1 20 5 23 5 4 9 3 8 -2 -4 -25 3 -37 11 -18 7 17 9 17 9
3 1 -10 7 -18 15 -18 8 0 17 -6 20 -12 3 -7 3 -2 0 12 -4 17 -2 21 4 11 8 -11
10 -11 15 0 4 8 4 1 1 -16 -4 -25 -3 -27 6 -12 6 9 16 17 23 17 7 0 6 -4 -3
-10 -13 -9 -13 -10 0 -10 13 0 13 -1 0 -10 -12 -7 -10 -9 8 -7 17 1 21 6 16
22 -4 14 -3 16 4 6 5 -7 12 -9 14 -5 3 5 3 3 2 -3 -4 -14 12 -18 19 -5 2 4 2
2 1 -5 -6 -26 25 -37 48 -17 l21 19 -17 -27 c-17 -27 -17 -27 3 -23 11 2 23
-1 26 -6 4 -5 11 -7 16 -4 5 4 9 1 9 -4 0 -6 -5 -11 -11 -11 -6 0 -3 -7 6 -16
13 -14 18 -14 32 -2 15 12 15 11 3 -9 -12 -18 -12 -24 0 -40 12 -15 12 -16 0
-6 -22 20 -33 15 -17 -8 8 -11 13 -29 10 -40 -3 -11 0 -19 6 -19 7 0 9 4 6 10
-4 6 1 7 11 3 11 -4 13 -8 6 -11 -14 -4 -17 -52 -3 -52 5 0 7 -9 4 -20 -3 -11
-10 -17 -17 -13 -6 4 -6 0 2 -9 7 -9 11 -22 10 -29 -2 -9 4 -13 17 -11 19 2
19 2 1 -9 -13 -8 -15 -13 -7 -19 7 -4 13 -13 14 -21 2 -8 6 -19 10 -26 5 -7 0
-10 -15 -6 -20 4 -21 3 -5 -7 19 -12 24 -35 5 -24 -9 5 -9 3 1 -9 7 -9 11 -27
9 -40 -3 -15 0 -24 8 -24 7 0 10 5 7 10 -3 6 -1 7 6 3 6 -4 8 -12 4 -19 -14
-22 -9 -55 7 -49 11 4 10 0 -4 -16 -11 -12 -16 -25 -13 -29 4 -3 7 0 7 7 0 7
3 10 7 7 3 -4 16 1 27 10 20 18 20 17 6 -2 -8 -11 -22 -26 -30 -33 -8 -8 -9
-11 -2 -7 6 3 12 1 12 -4 0 -6 -4 -11 -8 -11 -5 0 -9 -7 -9 -15 0 -11 4 -12
14 -3 7 6 16 8 20 4 3 -3 1 -6 -5 -6 -7 0 -12 -9 -12 -21 0 -11 -4 -18 -8 -15
-4 2 -8 -4 -8 -14 0 -10 3 -17 6 -15 3 2 11 -8 17 -22 10 -20 9 -24 -2 -19 -9
3 -12 0 -8 -10 6 -16 15 -18 29 -4 6 6 10 3 11 -11 2 -16 -3 -19 -20 -15 -12
3 -16 3 -9 0 6 -3 12 -12 12 -20 0 -9 4 -13 8 -10 4 2 14 1 21 -3 10 -6 9 -10
-4 -14 -11 -5 -14 -3 -9 6 5 9 4 9 -6 0 -10 -9 -10 -15 2 -27 9 -8 17 -13 19
-12 2 2 12 -6 21 -18 13 -18 13 -23 3 -23 -8 0 -13 5 -12 10 1 5 -5 12 -13 14
-12 4 -12 3 -2 -5 8 -5 13 -12 13 -16 -3 -20 0 -26 11 -20 7 5 8 3 2 -7 -12
-20 -14 -40 -3 -33 5 3 6 11 3 17 -4 7 -3 8 2 4 5 -5 9 -14 9 -20 0 -7 9 -11
20 -9 16 2 17 1 5 -7 -8 -5 -17 -8 -21 -5 -4 2 -11 -1 -15 -7 -4 -7 -3 -9 4
-5 13 8 26 -29 16 -46 -4 -7 -4 -10 0 -6 11 9 46 -29 40 -45 -3 -8 7 -18 23
-24 l28 -12 -30 5 c-25 3 -26 3 -10 -5 11 -5 16 -10 11 -10 -5 -1 -3 -7 3 -14
6 -8 7 -17 3 -22 -4 -4 4 -5 18 -1 14 3 19 3 13 0 -20 -9 -16 -55 3 -52 10 2
19 -3 21 -9 3 -7 0 -13 -7 -13 -6 0 -8 5 -4 13 5 8 2 8 -9 -2 -18 -15 -23 -26
-7 -16 6 3 10 -1 10 -9 0 -9 5 -16 11 -16 8 0 8 -5 -1 -15 -15 -18 1 -20 19
-2 10 10 12 9 9 -3 -2 -8 -10 -18 -18 -22 -11 -5 -10 -7 5 -7 12 -1 27 5 35
12 10 8 9 5 -1 -8 -25 -32 -30 -55 -14 -61 8 -4 15 -12 15 -20 0 -20 17 -17
29 4 6 9 11 12 11 5 0 -6 -5 -15 -10 -18 -6 -4 -8 -11 -5 -16 3 -5 0 -7 -7 -6
-7 2 -10 2 -5 0 4 -3 5 -8 3 -12 -3 -4 8 -6 25 -5 16 1 27 -2 24 -7 -3 -4 -12
-6 -19 -3 -32 12 -25 -47 8 -68 8 -5 7 -8 -2 -8 -10 0 -10 -3 0 -14 7 -8 18
-11 23 -8 6 3 4 -1 -3 -10 -11 -14 -10 -18 6 -30 10 -7 22 -20 27 -28 7 -13 6
-13 -7 -2 -12 10 -11 3 5 -33 12 -27 27 -44 35 -42 8 1 17 -5 19 -13 3 -11 2
-11 -4 -3 -6 8 -14 9 -23 3 -11 -7 -12 -10 -2 -10 7 0 11 -4 7 -9 -3 -5 -1
-12 5 -16 6 -4 7 -11 4 -17 -4 -7 2 -8 17 -3 22 7 22 7 6 -9 -23 -23 -21 -29
4 -16 18 10 19 9 11 -7 -10 -20 -6 -43 9 -43 5 0 9 7 9 16 0 9 -5 12 -12 8 -7
-4 -8 -3 -4 4 12 19 37 2 26 -18 -5 -9 -6 -21 -2 -25 4 -5 2 -5 -4 -2 -6 3
-11 0 -11 -8 0 -8 5 -13 11 -12 6 1 10 -3 9 -10 -2 -8 4 -10 15 -6 14 5 15 3
5 -8 -18 -18 -16 -27 7 -34 11 -3 20 -10 20 -15 0 -5 -8 -7 -17 -4 -15 5 -15
4 -3 -4 9 -7 18 -8 26 -1 8 7 15 6 20 -2 4 -8 3 -9 -4 -5 -7 4 -12 3 -12 -2 0
-5 11 -15 25 -22 14 -8 23 -20 21 -27 -7 -17 3 -43 16 -43 6 0 6 6 -1 14 -9
11 -9 16 0 22 7 4 9 3 5 -4 -3 -5 0 -12 6 -15 10 -3 9 -8 -2 -22 -9 -11 -10
-16 -2 -11 7 4 15 1 18 -8 3 -9 10 -13 15 -10 5 3 9 0 9 -6 0 -6 4 -9 8 -6 5
3 9 -2 9 -10 0 -10 -4 -11 -11 -4 -5 5 -14 10 -19 10 -5 0 -1 -7 8 -16 9 -9
14 -22 12 -29 -3 -6 1 -12 9 -13 8 -1 21 -3 28 -4 12 -1 13 -6 4 -21 -8 -15
-7 -18 3 -12 9 6 11 3 6 -8 -3 -9 -1 -19 5 -23 7 -4 8 -3 4 4 -4 7 -2 12 3 12
6 0 11 -7 11 -15 0 -8 5 -15 11 -15 5 0 7 6 3 13 -4 7 -3 9 2 4 5 -5 9 -18 9
-30 1 -26 33 -67 53 -67 7 0 10 -4 7 -10 -3 -5 3 -15 14 -21 10 -7 17 -19 14
-28 -4 -14 -4 -14 6 -1 8 12 5 19 -12 32 -12 10 -17 18 -12 17 21 0 45 -27 39
-43 -3 -9 -1 -16 5 -16 6 0 11 5 11 10 0 6 5 10 11 10 5 0 8 -4 4 -9 -3 -5 -1
-12 5 -16 7 -4 6 -13 -1 -27 -8 -15 -8 -19 0 -14 6 4 11 3 11 -1 0 -5 9 -9 20
-10 13 -1 18 2 14 9 -4 7 -2 8 4 4 6 -4 9 -13 6 -21 -4 -8 -9 -13 -13 -10 -4
2 -8 -2 -8 -9 0 -7 6 -13 13 -13 7 0 11 4 8 9 -3 4 0 8 5 8 10 0 15 -14 12
-32 0 -5 4 -8 10 -8 5 0 7 -6 3 -12 -4 -7 -4 -10 0 -6 5 4 20 2 34 -3 21 -8
29 -7 39 8 13 16 13 16 10 -4 -2 -13 -7 -26 -12 -30 -4 -5 -6 -3 -2 2 3 6 -3
11 -14 11 -19 0 -19 -1 -4 -12 9 -7 24 -10 33 -7 10 4 13 2 8 -6 -5 -7 -2 -10
6 -9 7 2 12 -2 11 -9 -2 -8 4 -10 14 -6 10 4 14 2 10 -4 -4 -6 11 -26 33 -45
29 -27 40 -32 44 -21 4 9 2 11 -6 7 -7 -5 -8 -3 -3 6 5 9 4 11 -3 6 -8 -5 -10
-1 -5 10 5 15 7 14 17 -2 6 -11 11 -23 11 -29 1 -5 6 -9 13 -7 11 2 17 -11 13
-32 -1 -5 6 -3 15 5 13 10 16 10 10 1 -8 -14 10 -42 27 -42 6 0 3 6 -7 13 -16
12 -16 14 -2 14 8 0 18 -9 22 -19 3 -10 12 -18 21 -18 13 0 14 2 2 17 -13 17
-12 17 4 4 18 -14 18 -16 1 -28 -16 -11 -16 -13 -2 -13 9 0 20 5 23 10 5 8 11
7 21 -1 11 -9 18 -8 32 2 15 13 16 12 4 -3 -11 -14 -10 -18 8 -28 12 -6 19
-14 17 -17 -3 -3 -22 7 -41 22 -29 22 -36 24 -36 11 0 -9 3 -15 8 -15 21 4 32
-2 26 -13 -4 -7 -4 -10 1 -6 11 11 36 -12 28 -25 -3 -5 -1 -7 5 -3 6 3 14 2
17 -4 4 -6 15 -8 26 -5 15 5 18 3 13 -12 -5 -14 -4 -15 4 -4 6 8 8 21 5 30 -4
13 -3 13 5 2 6 -8 9 -19 8 -25 -2 -6 -1 -8 2 -3 2 4 13 12 24 18 13 7 18 7 14
1 -3 -6 0 -13 6 -16 7 -3 2 -3 -12 0 -24 5 -24 4 -4 -8 12 -7 20 -21 18 -31
-2 -14 1 -16 11 -7 22 18 55 21 48 3 -4 -9 -8 -11 -12 -4 -4 6 -12 1 -20 -12
-12 -19 -12 -20 0 -11 19 15 50 9 68 -13 13 -17 13 -17 7 2 -5 17 -4 18 6 5
19 -22 53 -48 44 -32 -4 6 -3 12 3 12 6 0 8 8 4 18 -3 9 -3 14 2 10 4 -4 8
-18 9 -30 0 -13 6 -23 13 -23 6 0 15 -3 19 -7 12 -13 24 -9 24 6 0 8 5 18 11
22 8 4 9 -1 4 -16 -6 -18 -4 -22 8 -17 11 4 15 1 12 -13 -2 -11 1 -23 7 -26 7
-4 8 -2 4 4 -4 7 -2 12 4 12 6 0 9 4 6 8 -2 4 4 8 15 8 10 0 19 -4 19 -8 0 -4
-7 -8 -15 -8 -8 0 -15 -5 -15 -12 0 -6 3 -8 7 -5 3 4 18 0 32 -10 18 -11 23
-12 15 -2 -15 19 -14 46 3 46 7 0 13 -4 13 -9 0 -4 -5 -8 -11 -8 -5 0 -7 -5
-4 -10 4 -6 10 -8 15 -5 4 3 7 -3 6 -13 -1 -19 43 -19 57 2 6 7 7 5 4 -5 -9
-29 11 -47 28 -25 18 23 20 14 4 -17 -12 -22 -12 -22 9 -3 12 10 19 24 15 30
-4 7 -1 6 8 -1 12 -10 18 -10 28 0 7 6 11 8 9 2 -2 -5 8 -21 21 -34 22 -22 14
-50 -10 -35 -10 6 -5 -24 6 -33 4 -4 5 -2 1 5 -4 7 -1 15 9 18 9 4 21 16 26
28 10 21 10 21 5 -1 -3 -16 2 -23 20 -27 23 -6 35 -36 14 -36 -6 0 -9 5 -8 11
2 6 -3 13 -10 14 -7 2 -8 1 -2 -2 5 -2 8 -9 5 -13 -8 -13 26 -28 58 -24 15 1
25 -1 22 -6 -6 -9 21 -7 31 2 3 4 12 4 19 2 16 -6 28 23 13 32 -7 5 -8 2 -3
-6 6 -9 4 -11 -5 -5 -9 6 -11 4 -5 -5 5 -9 4 -11 -4 -6 -8 6 -9 12 -2 20 6 7
8 16 4 19 -3 4 -3 7 1 7 4 0 14 -7 23 -15 14 -14 34 -15 83 -4 9 3 14 -2 12
-10 -3 -12 0 -12 12 -2 9 7 13 18 9 24 -4 6 0 8 11 4 11 -5 15 -3 10 5 -5 8
-2 9 9 5 16 -6 16 -4 1 17 -11 18 -12 26 -3 32 7 4 9 3 6 -2 -22 -37 46 -52
72 -16 18 25 20 25 14 5 -3 -13 -9 -23 -14 -23 -5 0 -9 -5 -9 -11 0 -5 4 -8 9
-5 5 4 11 1 13 -6 3 -7 7 -5 11 6 4 10 3 15 -3 11 -6 -3 -7 1 -3 10 4 13 8 14
14 4 4 -7 6 -16 3 -20 -2 -4 4 -13 13 -20 14 -12 16 -12 8 1 -12 19 -14 50 -3
50 4 0 8 -5 8 -11 0 -6 7 -9 15 -5 9 3 15 0 15 -9 0 -8 5 -15 10 -15 7 0 7 7
-1 21 -8 16 -8 24 2 33 9 8 11 7 6 -7 -4 -11 -1 -20 8 -23 8 -4 13 -9 11 -13
-3 -4 4 -7 14 -7 11 0 17 2 15 5 -3 2 3 14 12 25 17 20 17 20 1 7 -10 -7 -18
-9 -18 -3 0 15 26 22 38 10 8 -8 15 -8 26 1 12 10 18 9 33 -6 16 -16 22 -17
31 -7 17 19 15 29 -3 14 -10 -9 -15 -9 -15 -1 0 6 5 11 11 11 5 0 8 4 5 9 -3
4 4 8 17 7 15 -1 21 4 19 14 -3 12 -1 13 9 2 16 -15 33 -16 23 0 -4 6 -3 8 4
5 5 -4 18 -4 27 -1 13 5 14 8 3 15 -7 5 -8 9 -2 9 6 0 19 -10 30 -22 10 -13
12 -18 5 -11 -10 8 -20 9 -37 1 -27 -13 -33 -31 -7 -21 10 4 14 2 10 -4 -3 -5
0 -10 8 -10 11 0 12 4 4 14 -9 10 -8 13 1 13 7 0 19 -8 26 -17 13 -17 14 -17
7 1 -4 14 -3 17 6 12 20 -12 42 13 31 34 -7 13 -6 21 2 26 7 4 10 3 5 -1 -4
-5 0 -19 8 -32 9 -13 11 -23 5 -23 -5 0 -10 -5 -10 -12 0 -6 7 -4 18 5 10 10
23 14 27 10 5 -5 4 -1 -3 9 -9 11 -10 18 -2 23 6 3 8 10 5 15 -3 5 0 12 6 16
7 4 9 3 5 -4 -3 -6 2 -16 11 -22 16 -10 16 -11 1 -6 -10 3 -20 1 -23 -4 -4 -6
5 -10 19 -10 20 0 24 -4 19 -17 -5 -15 -3 -15 9 1 15 19 15 19 26 0 6 -10 12
-14 12 -7 0 6 9 10 19 8 11 -2 26 4 33 13 10 12 10 14 1 8 -7 -4 -13 -3 -13 3
0 5 9 9 19 8 11 0 17 -5 15 -9 -3 -4 0 -8 6 -8 6 0 8 -5 4 -12 -4 -6 -3 -8 4
-5 5 4 8 16 5 27 -3 12 0 20 6 20 7 0 10 -4 7 -9 -4 -5 -3 -17 0 -26 6 -14 8
-14 27 2 20 17 20 17 13 -1 -5 -15 -4 -17 7 -8 8 7 16 10 19 7 2 -3 5 1 5 9 0
8 -6 12 -14 9 -7 -3 -13 1 -13 8 -1 10 -5 9 -14 -3 -7 -10 -17 -18 -21 -18 -4
0 -2 6 4 13 6 8 8 16 5 20 -8 8 18 3 34 -6 7 -5 12 -3 12 5 1 7 8 2 16 -12 8
-14 13 -17 10 -8 -10 33 53 28 76 -6 6 -8 8 -7 8 1 0 6 -5 15 -10 18 -15 9 -1
27 16 21 7 -3 20 5 29 17 8 12 15 17 15 11 0 -5 -6 -16 -12 -23 -11 -11 -10
-13 2 -9 8 3 25 1 37 -3 15 -6 22 -5 20 3 -1 6 4 13 12 16 9 3 11 0 6 -9 -5
-8 3 -4 17 9 32 29 47 29 22 0 -19 -23 -19 -23 2 -5 11 9 24 14 29 10 4 -5 5
-3 2 3 -4 7 0 15 9 18 9 4 14 13 10 21 -7 20 4 19 19 -2 11 -15 13 -15 11 7 0
14 -5 29 -11 33 -9 8 6 5 39 -9 10 -4 13 2 11 20 -2 15 1 24 5 21 5 -3 7 -12
4 -19 -7 -19 18 -37 36 -26 15 10 2 15 -23 11 -5 -1 -6 3 -2 8 3 6 13 7 22 4
10 -4 14 -2 10 4 -4 6 1 17 11 24 15 13 16 12 3 -3 -9 -13 -10 -18 -2 -18 7 0
10 -4 7 -8 -3 -5 1 -9 9 -9 11 0 12 4 4 14 -9 9 -7 14 5 18 9 3 23 7 32 10 13
4 14 8 4 20 -8 9 -8 15 -2 15 6 0 12 -6 15 -12 3 -10 7 -10 20 1 9 7 15 16 13
20 -3 4 0 13 5 21 6 11 8 4 5 -20 -3 -19 -3 -29 0 -22 3 6 13 12 22 12 12 0
13 3 5 8 -12 8 -12 36 0 48 3 4 5 -3 2 -15 -2 -11 0 -21 6 -21 5 0 9 5 9 10 0
6 5 10 11 10 5 0 7 -4 4 -10 -3 -5 -1 -10 6 -10 6 0 9 8 6 19 -3 12 1 22 10
25 8 3 12 2 9 -3 -3 -5 2 -12 11 -15 10 -4 14 -4 10 0 -4 4 1 13 11 21 9 8 11
12 5 8 -7 -3 -21 -1 -30 4 -16 9 -15 10 7 8 21 -2 25 2 23 23 -2 22 -2 23 6 5
5 -11 7 -23 4 -27 -2 -5 1 -8 6 -8 10 0 16 23 11 45 -1 5 2 7 5 3 4 -4 15 1
24 10 9 10 12 12 7 5 -5 -8 -4 -13 3 -13 7 0 10 -4 6 -9 -3 -5 0 -13 6 -17 7
-4 9 -3 5 4 -3 6 -2 13 3 17 6 3 8 12 4 20 -4 11 -1 13 11 9 12 -5 15 -2 10
10 -5 12 -2 15 10 10 12 -5 15 -2 10 12 -6 17 -5 17 10 -1 16 -19 16 -19 12 9
-5 27 -5 28 14 11 13 -12 20 -14 20 -6 0 7 4 10 9 6 5 -3 12 -1 16 5 4 6 10 8
14 6 10 -7 8 36 -3 54 -8 13 -7 13 6 2 20 -16 45 7 26 26 -10 10 -6 10 31 3 2
-1 -2 -8 -9 -16 -9 -11 -10 -19 -2 -27 12 -12 35 -1 27 13 -4 5 -1 9 5 9 7 0
4 7 -5 16 -9 9 -13 19 -10 22 3 4 9 1 13 -5 17 -28 64 0 53 31 -7 17 -8 18
-14 3 -4 -10 -2 -17 5 -17 15 0 1 -13 -17 -16 -12 -2 -12 2 -4 17 5 11 7 25 3
32 -4 6 -4 9 1 5 11 -10 46 32 38 46 -3 6 -2 8 2 3 5 -4 17 1 28 10 11 10 17
12 13 6 -4 -8 -1 -13 8 -13 10 0 13 6 9 18 -6 14 -4 15 9 4 11 -9 18 -10 23
-2 3 6 11 8 16 4 6 -3 5 3 -3 15 -7 12 -16 21 -20 21 -5 0 -8 5 -8 10 0 6 6 9
13 8 6 -2 11 3 9 10 -1 6 4 11 10 10 7 -2 12 4 10 12 -2 8 0 12 4 8 4 -4 14
-2 22 5 10 8 13 8 9 1 -4 -7 0 -14 8 -17 10 -4 12 -1 8 11 -6 15 -5 16 12 2
10 -8 16 -10 12 -3 -4 6 -3 15 3 18 16 10 -8 35 -26 28 -8 -3 -14 0 -14 6 0 6
3 10 8 10 4 -1 9 0 12 1 25 9 41 7 36 -6 -3 -9 -2 -12 5 -9 6 4 8 13 5 20 -6
16 17 38 29 27 5 -4 4 0 -1 8 -12 22 -11 43 4 62 11 14 11 18 -5 27 -10 6 -13
11 -8 11 6 0 17 -6 24 -13 11 -10 13 -9 8 4 -3 9 0 16 8 16 19 0 14 -18 -9
-37 -17 -15 -17 -17 -3 -23 11 -4 14 -2 10 9 -5 14 12 20 20 7 2 -5 2 -3 1 4
-2 6 2 14 9 17 9 3 8 5 -1 5 -9 1 -10 6 -2 20 5 11 7 27 4 35 -4 11 -1 16 10
16 19 0 21 11 4 28 -8 8 -8 12 -1 12 6 0 14 -8 18 -17 6 -16 8 -16 26 6 14 17
16 27 9 36 -8 10 -5 19 11 34 27 25 44 27 35 5 -3 -9 -6 -19 -6 -22 0 -4 -4
-1 -9 7 -6 9 -11 10 -15 2 -4 -6 -2 -11 4 -11 6 0 8 -5 5 -11 -4 -6 2 -5 13 2
12 7 19 15 18 19 -2 3 0 15 5 28 8 20 12 21 31 12 21 -10 21 -10 6 3 -23 19
-23 27 1 22 15 -3 18 1 14 12 -4 11 -2 14 5 9 8 -5 10 -2 5 9 -5 13 -7 14 -14
3 -5 -7 -9 -8 -9 -2 0 18 12 24 31 13 15 -8 17 -6 12 7 -4 10 -2 15 3 11 6 -3
11 4 11 16 2 21 1 21 -12 3 -8 -11 -18 -16 -22 -11 -5 4 -2 10 5 12 6 3 10 8
7 13 -6 10 15 8 32 -3 7 -4 10 -1 9 10 -4 26 25 45 44 30 9 -7 8 -4 -2 9 -25
29 -22 41 5 18 12 -10 19 -15 15 -10 -4 5 -1 14 8 21 14 10 15 13 1 26 -12 12
-12 18 -2 32 14 20 26 12 18 -11 -4 -14 -3 -14 5 -3 11 15 -22 69 -42 70 -5 1
-3 -5 3 -13 9 -11 9 -15 -1 -19 -10 -4 -10 -6 0 -6 6 -1 12 -6 12 -12 0 -8 -4
-8 -14 0 -7 6 -12 23 -10 37 2 18 -2 24 -11 21 -8 -4 -11 1 -8 13 3 11 -4 24
-17 33 -18 12 -19 15 -5 21 9 3 13 2 10 -3 -3 -5 5 -17 17 -25 12 -9 18 -16
13 -16 -5 0 -4 -5 2 -11 8 -8 19 -7 39 4 l28 15 -27 0 c-34 -1 -59 20 -52 41
3 12 -1 17 -15 17 -11 0 -20 -4 -20 -8 0 -4 -10 -8 -22 -7 l-23 0 23 9 c29 12
28 24 -2 16 -24 -6 -31 13 -11 31 4 4 5 2 1 -4 -5 -9 0 -13 15 -13 21 0 21 1
5 19 -13 14 -14 21 -5 27 7 4 10 3 5 -4 -8 -13 43 -54 57 -45 5 3 -2 12 -17
20 -15 8 -25 17 -23 20 3 3 16 -2 28 -10 11 -9 28 -13 35 -10 8 3 21 0 28 -6
11 -9 16 -9 22 0 4 7 3 9 -4 5 -6 -3 -16 3 -22 14 -9 16 -8 20 5 20 14 0 14 3
-1 29 -10 17 -22 27 -27 24 -6 -4 -7 -1 -2 7 6 10 11 9 22 -6 13 -18 14 -18
19 4 4 12 10 22 16 22 5 0 4 9 -2 21 -10 17 -8 21 9 26 11 3 23 14 27 25 4 14
12 19 29 16 16 -3 22 -1 18 8 -2 7 -12 10 -21 7 -15 -4 -15 -3 -2 6 8 6 11 11
7 11 -4 0 -3 9 3 21 10 17 14 18 27 7 15 -12 15 -11 4 10 -15 27 -5 45 20 39
10 -3 22 -1 25 4 3 5 0 8 -7 7 -6 -2 -14 3 -16 10 -3 6 0 12 7 12 6 0 8 5 5
10 -4 6 -10 8 -14 6 -4 -3 -8 1 -8 9 0 11 4 12 14 3 7 -6 17 -7 21 -3 4 4 1
10 -5 12 -7 3 -13 9 -13 15 0 6 6 5 15 -2 9 -7 13 -21 10 -31 -4 -11 -2 -19 3
-19 11 0 9 33 -3 65 -7 16 -4 15 14 -5 12 -14 20 -20 17 -13 -4 6 -3 13 1 16
5 2 2 2 -4 1 -18 -5 -16 25 2 32 8 4 12 10 9 16 -3 5 -13 4 -22 -4 -12 -9 -11
-6 2 10 11 12 21 22 24 22 3 0 3 -3 -1 -6 -3 -4 0 -13 8 -20 18 -19 31 -18 15
1 -7 8 -9 15 -4 15 5 0 0 7 -10 15 -11 8 -15 15 -8 15 6 0 18 -10 27 -22 l16
-23 -3 25 c-2 16 2 24 10 22 6 -1 11 3 10 10 -2 7 2 12 9 13 6 0 15 4 20 9 4
5 3 6 -4 2 -8 -4 -11 1 -10 14 1 12 7 18 14 16 16 -6 27 10 13 19 -8 5 -8 11
0 20 8 9 8 15 0 20 -9 5 -15 -14 -11 -37 0 -4 -10 -10 -24 -14 -14 -3 -25 -10
-25 -15 0 -5 6 -7 12 -5 7 1 10 1 5 -1 -4 -3 -4 -10 -1 -15 5 -7 2 -8 -6 -3
-9 6 -11 4 -5 -5 6 -9 4 -11 -5 -5 -8 5 -11 4 -6 -3 3 -6 2 -13 -3 -16 -16
-10 -22 11 -7 23 7 6 12 22 11 35 -2 19 1 23 16 19 11 -3 19 0 19 6 0 7 -5 9
-12 5 -7 -4 -8 -3 -4 5 4 6 12 8 18 5 7 -5 9 -2 6 8 -4 8 3 20 15 27 20 13 20
14 2 27 -15 12 -16 14 -3 14 19 0 25 -14 23 -58 -1 -26 2 -30 10 -19 5 7 17
12 25 9 8 -3 4 4 -9 15 -17 13 -21 22 -13 27 7 4 12 2 12 -3 0 -6 5 -11 11
-11 5 0 7 5 4 10 -3 6 -1 10 4 10 6 0 11 5 11 11 0 6 -5 7 -13 2 -18 -11 -38
-13 -31 -2 3 5 -5 13 -18 18 -16 7 -18 10 -6 10 9 1 20 -4 23 -9 7 -12 25 -13
25 -2 0 5 -11 15 -25 22 -23 12 -23 14 -7 26 16 12 15 14 -7 38 -14 14 -21 29
-18 33 4 3 7 0 7 -7 0 -9 6 -7 19 6 10 10 17 29 15 40 -6 32 42 61 70 44 17
-10 19 -10 9 1 -15 15 -17 33 -3 24 6 -4 7 1 3 11 -4 12 -3 15 5 10 7 -4 12
-2 12 3 0 6 -10 9 -22 7 -14 -2 -22 -10 -22 -20 1 -9 -2 -16 -7 -16 -5 0 -9 7
-9 15 0 20 -17 19 -30 -2 -8 -15 -9 -13 -6 10 3 15 0 27 -5 27 -6 0 -7 5 -3
11 5 8 10 6 16 -5 5 -9 14 -16 19 -16 6 0 0 15 -12 33 -12 17 -16 26 -9 19 16
-14 34 -16 26 -3 -11 17 5 40 22 33 14 -5 15 -3 4 10 -10 13 -10 17 1 21 9 3
13 -2 12 -16 -1 -12 -9 -23 -18 -25 -9 -2 -17 -8 -17 -13 0 -13 24 -11 37 2 7
7 19 8 30 4 10 -5 21 -9 25 -9 3 -1 10 -5 15 -10 5 -5 -2 -6 -17 -2 -42 12
-53 12 -58 -4 -4 -12 -2 -13 9 -3 10 8 20 9 29 3 11 -7 11 -10 3 -11 -28 -3
-32 -4 -40 -13 -5 -5 4 -6 20 -2 19 4 26 3 22 -3 -4 -7 0 -8 10 -4 12 4 13 8
5 13 -8 5 -3 9 11 13 13 4 20 9 16 13 -4 4 1 13 11 21 15 13 15 13 -5 3 -17
-8 -23 -8 -23 0 0 6 -4 9 -9 5 -6 -3 -15 5 -21 17 -9 19 -9 21 2 8 17 -19 44
-24 46 -8 0 7 3 23 6 35 3 14 0 23 -7 23 -8 0 -7 4 2 9 8 5 23 8 33 6 15 -3
16 -1 8 15 -7 14 -5 24 11 42 l20 23 -17 -27 c-21 -35 -12 -37 10 -3 12 19 14
30 6 44 -7 14 -7 22 2 27 6 4 8 3 4 -4 -4 -6 1 -10 13 -9 19 1 19 2 4 20 -16
17 -16 17 2 11 13 -5 16 -4 11 4 -4 7 -2 12 5 12 7 0 1 10 -12 21 -22 20 -22
21 -3 15 14 -4 21 -2 21 8 0 9 -5 12 -10 9 -5 -3 -7 0 -5 8 3 8 11 13 18 11
11 -3 11 0 1 12 -10 12 -9 17 6 26 16 10 16 11 1 6 -23 -7 -23 2 -1 28 10 12
14 18 9 14 -5 -4 -14 -4 -21 2 -8 7 -11 0 -10 -23 1 -38 -4 -57 -15 -57 -8 0
-8 7 0 45 1 6 1 12 0 15 -7 19 -7 39 1 34 5 -3 9 2 9 11 0 9 -4 13 -10 10 -5
-3 -10 -1 -10 4 0 6 5 11 10 11 6 0 10 14 10 31 0 17 4 28 10 24 6 -4 7 1 3
11 -5 13 -3 15 7 9 8 -5 11 -4 6 3 -3 6 2 13 11 15 16 4 16 5 1 6 -9 0 -25
-10 -36 -24 -16 -20 -21 -22 -26 -9 -3 8 -2 13 3 10 4 -3 17 8 29 24 21 27 21
30 4 46 -9 10 -17 20 -17 23 0 3 -8 7 -17 8 -10 2 -16 -3 -14 -10 1 -6 1 -9
-1 -4 -3 4 -10 4 -16 0 -7 -3 -3 3 7 15 16 19 17 22 3 22 -8 0 -17 -3 -20 -7
-2 -5 -2 -2 -1 4 2 7 -1 13 -6 13 -6 0 -10 5 -10 11 0 5 5 7 10 4 6 -3 10 -2
10 3 0 6 -18 9 -39 8 -27 -1 -37 2 -34 10 2 7 -1 15 -8 20 -8 5 -10 3 -5 -7 4
-8 1 -6 -7 3 -8 10 -17 15 -20 11 -4 -3 -7 -1 -7 5 0 6 -7 9 -17 5 -12 -5 -14
-3 -9 8 4 8 1 6 -7 -4 -11 -14 -16 -15 -20 -4 -5 14 -54 16 -75 3 -7 -4 -12
-2 -12 6 0 10 -2 10 -9 -1 -6 -10 -10 -10 -16 -1 -5 8 -11 6 -22 -7 -8 -10
-12 -12 -8 -6 5 10 0 11 -19 3 -14 -5 -26 -7 -26 -3 0 4 -7 -2 -15 -13 -11
-14 -14 -15 -9 -2 6 17 -18 20 -33 3 -4 -4 -2 -5 6 0 9 5 12 4 8 -3 -4 -5 -15
-9 -25 -7 -9 1 -23 -3 -31 -9 -10 -7 -13 -7 -8 0 3 6 0 11 -8 11 -8 0 -12 -4
-9 -9 6 -9 5 -9 -44 -13 -19 -1 -39 -8 -45 -14 -6 -6 -16 -11 -21 -11 -6 0 -4
5 4 10 9 6 10 10 3 10 -7 0 -17 -8 -22 -17 -7 -12 -11 -13 -11 -5 0 10 -4 10
-16 -2 -8 -9 -20 -16 -25 -16 -6 0 -7 -6 -3 -12 5 -8 1 -7 -10 2 -17 13 -21
12 -43 -15 -14 -17 -22 -25 -19 -18 4 7 -1 11 -13 10 -16 -1 -18 -4 -8 -16 10
-12 9 -13 -11 -2 -26 14 -57 -2 -45 -23 3 -6 -4 -2 -16 8 -17 16 -20 16 -16 4
4 -9 1 -19 -6 -24 -7 -4 -10 -3 -5 4 3 6 1 14 -5 18 -8 5 -9 3 -5 -5 5 -8 0
-14 -14 -18 -11 -3 -19 -11 -16 -18 3 -8 -2 -11 -15 -8 -11 3 -19 0 -19 -6 0
-7 -5 -9 -12 -5 -8 5 -9 2 -4 -11 6 -15 4 -16 -10 -4 -14 11 -15 10 -12 -6 2
-14 -3 -20 -17 -21 -35 -2 -57 -16 -50 -32 3 -9 3 -13 -1 -10 -4 4 -15 3 -25
-2 -12 -7 -20 -7 -24 0 -4 6 -11 8 -16 4 -6 -3 -5 -12 3 -22 12 -14 10 -14
-10 -3 -17 9 -22 9 -20 0 2 -6 -3 -14 -11 -17 -9 -3 -11 0 -6 8 5 8 4 11 -3 6
-6 -3 -9 -15 -7 -26 2 -11 -1 -23 -7 -26 -6 -4 -8 -2 -4 4 3 6 2 13 -4 17 -5
3 -10 1 -10 -4 0 -6 -6 -10 -12 -8 -7 1 -12 -4 -10 -12 2 -8 -3 -11 -12 -8
-10 4 -14 0 -11 -14 3 -13 0 -17 -8 -12 -22 14 -36 11 -30 -5 4 -10 2 -13 -5
-8 -7 4 -12 3 -12 -3 0 -6 -7 -8 -15 -5 -11 5 -13 2 -9 -10 3 -9 1 -16 -5 -16
-6 0 -11 5 -11 11 0 5 -4 8 -10 4 -5 -3 -6 -13 -3 -23 5 -14 3 -13 -9 2 -15
19 -16 19 -33 -8 -11 -17 -24 -25 -33 -21 -13 5 -13 3 -1 -11 12 -15 12 -17
-1 -12 -8 2 -21 -3 -30 -12 -8 -9 -11 -10 -6 -3 11 17 -4 16 -26 -1 -10 -7
-15 -16 -11 -19 3 -4 1 -7 -5 -7 -7 0 -12 5 -12 11 0 6 -7 3 -16 -5 -8 -9 -20
-16 -25 -16 -5 0 -18 -9 -30 -21 -11 -11 -29 -21 -39 -22 -10 -1 -17 -4 -14
-8 4 -8 -35 -25 -48 -21 -13 3 -9 -16 5 -21 9 -3 9 -8 -2 -18 -9 -9 -11 -9 -7
-2 4 7 2 13 -3 13 -6 0 -11 -5 -11 -11 0 -5 -6 -7 -12 -3 -9 5 -8 2 1 -9 12
-15 12 -17 -4 -11 -15 6 -16 4 -6 -14 8 -15 8 -23 -1 -28 -6 -4 -8 -3 -4 4 3
6 2 13 -3 16 -5 4 -12 2 -15 -3 -4 -5 -2 -12 3 -16 6 -3 8 -12 4 -20 -3 -9 1
-15 10 -15 9 0 18 -4 21 -8 3 -5 -5 -8 -17 -8 -12 1 -22 -5 -23 -11 -1 -7 -2
-18 -3 -24 0 -5 -6 -7 -13 -3 -7 5 -8 3 -3 -6 6 -10 11 -9 21 5 7 10 10 23 7
29 -4 6 1 5 10 -2 9 -8 22 -10 28 -6 8 5 9 3 5 -5 -5 -7 -14 -10 -21 -7 -8 3
-17 -4 -20 -15 -5 -14 -13 -19 -25 -16 -14 3 -17 1 -13 -11 5 -11 3 -13 -7 -7
-9 5 -11 4 -6 -3 4 -7 2 -12 -4 -12 -6 0 -8 -5 -4 -11 4 -7 0 -9 -14 -5 -12 4
-23 2 -28 -5 -4 -7 -3 -9 4 -5 6 3 13 2 17 -4 5 -8 -13 -14 -36 -12 -3 1 -6
-6 -6 -13 0 -11 4 -12 14 -3 11 8 12 7 7 -5 -3 -8 -12 -18 -20 -21 -8 -3 -14
-11 -14 -18 0 -9 3 -8 10 2 7 11 10 11 10 2 0 -7 5 -10 12 -6 6 4 8 3 5 -4 -4
-5 -18 -9 -30 -8 -18 2 -23 -2 -22 -18 1 -12 0 -25 -3 -30 -10 -17 -7 -66 3
-67 6 0 1 -4 -10 -9 l-20 -9 20 -1 c11 -2 24 -2 29 -1 5 1 4 -4 -2 -12 -7 -8
-8 -18 -4 -22 4 -5 1 -5 -6 -1 -7 4 -10 11 -8 15 3 4 -1 8 -8 8 -7 0 -13 -6
-13 -13 0 -7 4 -11 9 -8 4 3 8 1 8 -4 0 -6 -7 -13 -16 -16 -8 -3 -13 -10 -10
-15 3 -5 -1 -12 -10 -15 -9 -4 -14 -9 -11 -12 3 -4 -5 -18 -19 -33 -22 -24
-23 -27 -7 -39 9 -6 15 -12 12 -13 -35 -7 -49 -4 -45 8 4 8 1 11 -5 8 -6 -4
-8 -13 -5 -20 6 -16 -13 -35 -34 -35 -12 1 -12 2 3 11 9 5 17 15 17 22 0 8 -3
7 -9 -2 -5 -8 -14 -10 -21 -6 -9 6 -11 4 -5 -5 5 -9 2 -10 -14 -5 -12 4 -21 2
-21 -4 0 -6 3 -10 8 -9 16 4 52 -14 46 -24 -4 -7 -2 -8 4 -4 7 4 12 3 12 -3 0
-19 -19 -21 -29 -4 -6 10 -11 13 -11 6 0 -6 7 -19 16 -28 9 -9 13 -19 9 -23
-4 -4 -15 3 -24 14 -17 21 -18 21 -29 3 -8 -12 -8 -19 -2 -19 5 0 10 5 10 11
0 6 7 3 16 -6 9 -9 23 -14 31 -11 8 3 17 6 20 6 3 0 0 6 -7 14 -9 12 -8 15 9
13 12 -1 19 -7 17 -13 -6 -17 19 -25 33 -11 6 6 11 7 11 1 0 -19 -23 -33 -40
-24 -27 14 -50 -7 -26 -25 16 -12 22 -12 35 -2 12 10 14 9 8 -7 -5 -12 -1 -23
10 -33 17 -14 17 -14 -4 -10 -15 3 -20 1 -16 -9 3 -8 9 -12 13 -9 5 3 13 -2
18 -10 4 -9 15 -13 23 -10 19 7 21 35 3 35 -7 0 -15 4 -19 9 -3 6 4 9 15 8 19
-1 25 -10 21 -31 -1 -5 6 -5 16 -2 9 4 14 4 10 0 -4 -4 0 -16 10 -26 9 -10 13
-21 10 -25 -4 -3 -7 -1 -7 6 0 7 -13 2 -31 -13 -17 -14 -40 -26 -51 -26 -12 0
-18 -3 -14 -7 4 -5 13 -8 18 -8 6 0 13 -7 15 -15 3 -9 1 -11 -4 -5 -4 6 -24
11 -43 11 -19 1 -29 0 -22 -3 6 -3 12 -9 12 -14 0 -4 -7 -6 -15 -3 -8 4 -17
-1 -21 -10 -5 -13 -9 -14 -20 -5 -12 9 -13 9 -9 -4 4 -8 1 -18 -6 -23 -8 -4
-10 -3 -5 4 4 7 1 12 -8 12 -9 0 -15 -6 -14 -12 2 -7 -5 -12 -14 -12 -10 1
-16 -3 -15 -9 1 -6 -2 -12 -8 -12 -23 -3 -45 -18 -39 -26 3 -5 0 -9 -6 -9 -6
0 -8 -5 -4 -12 5 -8 2 -9 -11 -4 -15 5 -16 4 -6 -8 13 -16 1 -28 -33 -33 -25
-4 -25 -4 -29 -34 -3 -16 -11 -24 -25 -25 -12 -1 -19 2 -16 7 2 4 10 6 17 3 7
-2 13 4 14 15 2 19 1 19 -22 -1 -14 -12 -21 -26 -18 -31 4 -7 -1 -8 -12 -3
-16 6 -16 4 -4 -11 12 -15 12 -16 -2 -11 -17 7 -20 -17 -4 -41 5 -10 4 -12 -3
-7 -7 4 -12 1 -12 -9 0 -9 3 -14 8 -12 4 3 7 -5 7 -18 0 -19 -3 -21 -17 -14
-11 6 -19 5 -24 -3 -4 -6 -3 -8 3 -5 6 4 16 1 22 -7 9 -11 6 -13 -14 -11 -14
2 -23 -1 -19 -6 3 -5 9 -7 14 -4 5 3 11 2 14 -3 2 -4 -18 -7 -45 -6 -27 1 -47
-2 -43 -7 3 -5 -2 -9 -10 -9 -9 0 -16 -5 -16 -12 0 -6 -3 -8 -6 -5 -4 4 -1 13
6 22 8 9 8 15 2 15 -6 0 -13 -4 -17 -10 -3 -5 -13 -6 -22 -3 -12 5 -14 3 -8
-8 7 -12 6 -12 -7 -1 -13 10 -17 10 -22 -3 -3 -9 -10 -13 -16 -10 -6 4 -7 11
-4 17 4 5 -5 2 -20 -7 -14 -10 -26 -22 -26 -29 0 -7 -4 -6 -9 2 -6 11 -10 10
-15 -3 -4 -12 -10 -14 -19 -7 -14 12 -52 -10 -39 -23 4 -4 -3 -6 -15 -3 -17 5
-20 2 -16 -11 4 -9 3 -13 -2 -9 -4 4 -14 0 -22 -10 -8 -9 -12 -11 -8 -4 3 6 1
12 -4 12 -6 0 -11 -8 -11 -17 0 -14 -2 -15 -9 -4 -6 9 -10 10 -16 2 -5 -9 -11
-9 -23 1 -12 10 -14 10 -8 1 4 -7 2 -13 -3 -13 -6 0 -11 6 -11 13 0 8 -4 7
-10 -3 -5 -8 -10 -10 -10 -4 0 7 -7 15 -16 18 -10 4 -13 2 -8 -6 5 -8 2 -9
-10 -5 -10 4 -20 7 -22 7 -3 0 -2 4 1 10 4 7 -2 7 -19 0 -17 -6 -26 -6 -29 3
-3 9 -10 9 -27 -1 -12 -8 -19 -9 -16 -4 9 15 -15 20 -47 11 -26 -7 -27 -6 -15
8 9 12 9 15 1 9 -7 -4 -13 -3 -13 3 0 6 -7 7 -17 4 -9 -4 -14 -2 -10 3 3 6 -4
11 -15 11 -12 1 -25 8 -30 15 -6 9 -7 5 -4 -12 3 -14 3 -19 0 -12 -3 6 -11 9
-16 6 -7 -4 -8 -2 -4 5 4 6 0 13 -11 17 -10 3 -26 10 -35 15 -13 7 -21 4 -30
-11 -12 -19 -13 -19 -24 2 -12 23 -64 34 -64 14 0 -6 -8 -2 -16 9 -16 19 -16
19 -11 -8 3 -18 1 -25 -5 -19 -5 5 -10 18 -11 29 -1 13 -8 19 -21 18 -12 -1
-25 3 -29 9 -5 6 -5 0 -2 -14 4 -17 3 -21 -3 -11 -8 11 -11 11 -16 0 -3 -8 -3
-3 1 11 5 21 4 23 -9 13 -12 -10 -15 -10 -15 2 0 8 4 12 9 9 4 -3 8 0 8 6 0 6
4 9 8 6 4 -2 14 0 22 5 11 7 7 8 -13 5 -24 -4 -27 -2 -22 15 4 11 2 19 -5 19
-6 0 -9 4 -5 9 3 5 0 13 -6 17 -7 4 -9 3 -6 -3 4 -6 -2 -18 -13 -28 -12 -10
-20 -13 -20 -7 0 7 5 12 10 12 6 0 10 9 10 20 0 12 7 20 18 21 13 0 11 3 -6
10 -14 5 -20 13 -16 20 4 8 3 9 -4 5 -7 -4 -12 0 -13 11 0 16 -1 16 -9 -2 -5
-13 -3 -26 7 -37 13 -15 13 -19 -1 -40 -9 -12 -16 -17 -16 -11 0 7 4 15 10 18
6 3 10 11 10 17 0 7 -5 6 -14 -1 -9 -8 -16 -8 -20 -2 -4 5 -2 13 4 16 8 5 7
11 -1 21 -8 10 -8 18 0 27 8 10 7 17 -1 25 -15 15 3 16 20 2 7 -5 6 -3 -1 5
-8 10 -20 13 -31 9 -14 -5 -15 -9 -5 -15 8 -4 10 -11 6 -15 -9 -9 -37 27 -30
39 2 4 8 5 13 2 4 -3 13 2 19 9 8 10 9 16 1 21 -6 3 -8 11 -4 16 3 5 2 9 -3 8
-24 -4 -31 3 -28 29 2 15 2 21 -1 15 -8 -18 -25 -16 -18 2 4 9 -1 18 -11 21
-13 6 -14 9 -3 16 9 7 8 8 -5 4 -10 -3 -23 -6 -28 -6 -6 0 -7 -5 -4 -10 4 -6
11 -7 17 -4 7 4 8 2 4 -4 -5 -8 -1 -10 10 -5 14 5 16 3 11 -11 -4 -10 -1 -19
7 -22 7 -3 13 -11 13 -19 0 -8 -3 -13 -5 -10 -3 3 -11 0 -19 -6 -9 -9 -13 -8
-13 0 0 6 5 11 10 11 6 0 10 4 10 9 0 5 -10 7 -22 5 -18 -4 -19 -3 -5 4 16 7
14 11 -14 37 -20 19 -30 24 -26 13 3 -10 1 -20 -6 -24 -7 -4 -9 -4 -5 1 4 4 3
17 -3 28 -7 12 -7 17 -1 13 6 -3 13 0 15 6 4 9 6 9 6 1 1 -13 51 6 51 20 0 5
-5 5 -11 1 -7 -4 -27 -8 -46 -10 -29 -2 -32 0 -22 12 7 9 8 19 2 26 -8 11 -10
33 -3 41 8 10 6 36 -3 34 -7 -1 -12 10 -11 26 0 23 -2 26 -11 15 -6 -7 -17
-19 -25 -26 -13 -12 -12 -13 4 -10 10 2 21 -4 23 -12 4 -13 3 -13 -7 0 -10 13
-11 13 -7 0 2 -8 12 -14 22 -12 10 2 14 -1 10 -7 -9 -16 -23 -13 -42 9 -18 20
-27 54 -13 45 5 -3 11 -1 15 5 3 5 -3 10 -14 10 -10 0 -21 -3 -24 -7 -4 -9 0
7 9 34 4 12 -1 10 -16 -7 -21 -24 -21 -24 -10 -2 17 34 4 39 -14 5 -8 -15 -15
-23 -16 -17 0 5 6 19 14 30 11 14 11 22 3 32 -5 7 -6 12 -1 10 5 -1 19 3 31
10 18 10 21 9 18 -6 -1 -9 0 -21 4 -27 9 -15 8 -29 -4 -37 -5 -4 0 -6 12 -5
17 1 19 4 11 14 -6 7 -6 13 -1 13 5 0 9 10 10 23 0 12 -1 16 -4 10 -9 -24 -21
-13 -18 17 1 16 -3 35 -11 41 -10 8 -12 7 -9 -9 2 -14 -1 -19 -13 -17 -9 1
-21 -3 -25 -9 -6 -7 -7 -6 -4 4 2 8 9 14 15 13 16 -4 21 45 4 52 -10 3 -12 0
-8 -10 3 -9 -3 -19 -17 -25 -18 -9 -20 -9 -7 2 19 17 19 43 -1 66 -12 15 -13
20 -3 30 20 18 28 14 13 -5 -9 -11 -10 -14 -2 -9 8 4 11 2 7 -7 -9 -23 24 -43
42 -25 13 13 13 15 0 15 -8 0 -13 -4 -10 -9 3 -4 1 -8 -4 -8 -18 0 -22 30 -4
31 14 0 14 2 2 7 -20 9 -26 36 -6 29 9 -4 18 -1 22 5 4 7 3 8 -4 4 -11 -7 -17
6 -13 27 1 5 -3 6 -9 2 -5 -3 -10 -1 -10 4 0 6 -4 11 -8 11 -5 0 -9 -7 -9 -14
0 -8 4 -14 8 -13 4 1 7 -2 8 -8 1 -5 -4 -10 -9 -10 -6 0 -15 -6 -19 -14 -6 -9
-8 -5 -8 13 0 14 4 26 9 26 5 0 6 5 3 10 -5 8 -11 7 -21 0 -7 -7 -19 -10 -26
-7 -8 4 -7 6 4 6 12 1 16 7 12 19 -5 13 -4 14 4 3 6 -8 12 -9 16 -3 7 12 -19
36 -31 29 -5 -3 -10 4 -10 16 -2 17 0 18 7 7 7 -11 9 -10 7 7 0 12 -4 20 -7
18 -25 -16 -70 -14 -70 2 0 10 4 14 8 8 11 -15 29 -16 29 -1 0 6 -12 12 -26
11 -19 0 -26 5 -25 18 2 15 -1 16 -14 5 -14 -11 -15 -10 -8 7 6 16 5 18 -6 7
-11 -11 -9 -16 9 -30 17 -13 20 -20 12 -32 -9 -13 -10 -12 -5 2 3 11 -2 19
-15 23 -25 8 -27 55 -1 56 13 0 13 2 -4 9 -12 5 -25 14 -30 21 -5 9 -2 10 11
5 15 -5 16 -4 5 9 -14 17 -20 15 -24 -7 -3 -21 -16 -38 -29 -38 -8 1 -7 5 3
13 8 7 16 21 18 32 2 18 0 17 -17 -5 -11 -14 -23 -21 -27 -17 -4 4 -2 7 4 7 7
0 12 5 12 11 0 5 -4 8 -9 5 -5 -3 -15 2 -22 12 -12 15 -12 16 2 5 16 -13 29
-8 29 9 0 5 -4 7 -9 4 -5 -3 -7 8 -6 24 2 29 -8 40 -18 20 -3 -6 -4 -5 -3 2 2
7 9 13 17 13 8 0 13 -6 11 -14 -2 -11 0 -12 11 -2 12 9 16 8 21 -4 4 -11 2
-14 -7 -10 -6 4 -3 -1 7 -9 11 -9 15 -16 9 -16 -7 0 -15 5 -18 10 -3 6 -10 10
-16 10 -5 0 -4 -8 2 -18 13 -20 39 -25 39 -8 0 6 5 5 12 -2 7 -7 17 -12 23
-12 5 0 2 5 -8 11 -9 6 -14 15 -11 21 4 7 2 8 -4 4 -11 -7 -16 5 -13 31 1 7
-7 10 -19 8 -15 -3 -20 1 -18 12 2 9 -4 18 -12 20 -13 4 -13 3 0 -6 8 -6 10
-11 5 -11 -14 0 -35 21 -35 34 0 6 5 4 11 -4 9 -12 10 -11 6 5 -3 15 1 21 15
22 16 2 17 -1 8 -13 -9 -10 -9 -14 -1 -14 6 0 11 3 12 8 0 4 2 15 4 25 2 9 -1
15 -6 11 -5 -3 -14 -2 -21 2 -8 5 -6 10 8 15 17 7 17 8 1 8 -10 1 -16 5 -12
11 3 5 13 7 23 4 13 -5 14 -4 4 4 -15 10 -64 -7 -55 -20 2 -5 9 -6 14 -2 10 6
8 -17 -2 -26 -3 -3 -11 -14 -18 -25 -12 -20 -10 -8 5 30 3 8 1 15 -4 15 -6 0
-14 -9 -17 -20 -3 -11 -11 -20 -17 -20 -6 0 -6 6 2 15 16 19 22 65 8 65 -6 0
-4 7 3 17 12 15 12 16 -4 10 -15 -6 -16 -4 -7 13 9 17 7 22 -12 29 -22 8 -22
8 3 13 22 4 26 1 23 -18 -1 -16 2 -21 12 -17 8 3 14 9 14 15 0 5 -4 6 -10 3
-5 -3 -10 -1 -10 4 0 6 5 11 10 11 6 0 10 5 10 12 0 6 -3 8 -7 5 -3 -4 -13 -1
-21 6 -11 8 -13 8 -9 0 5 -7 0 -9 -15 -5 l-22 5 23 9 c13 4 28 5 34 1 7 -4 6
1 -2 10 -12 15 -9 21 12 18 4 0 7 4 7 9 0 16 -18 12 -32 -8 -7 -9 -22 -18 -33
-19 -20 -3 -20 -2 0 8 12 6 27 19 34 31 7 11 8 17 2 14 -5 -4 -9 2 -8 14 1 21
7 25 23 12 5 -4 -1 3 -15 15 -24 21 -58 12 -43 -12 3 -5 7 -4 10 3 5 16 19 15
19 -1 0 -7 -9 -14 -19 -14 -10 -1 -18 3 -18 8 0 6 -4 7 -10 4 -5 -3 -10 -2
-10 3 0 6 7 12 15 16 8 3 15 13 15 23 0 15 -2 16 -10 3 -5 -8 -10 -10 -10 -5
0 6 6 17 13 24 6 6 12 17 12 24 1 7 6 11 13 9 10 -2 10 2 0 17 -7 11 -16 17
-22 14 -5 -4 -7 1 -3 10 3 9 1 19 -5 23 -7 4 -5 10 6 16 9 5 13 14 10 20 -5 8
-1 9 10 5 9 -4 15 -3 11 2 -3 6 -14 9 -25 8 -14 -1 -16 -4 -8 -14 7 -9 7 -13
-2 -13 -6 0 -14 9 -17 20 -3 11 -9 17 -15 14 -5 -3 -5 -11 2 -19 8 -9 7 -14
-4 -18 -11 -4 -13 -1 -9 10 5 12 3 14 -8 8 -12 -8 -12 -6 0 9 15 18 -1 42 -20
30 -4 -2 -12 3 -19 11 -7 8 -17 12 -23 8 -6 -4 -7 -1 -3 6 6 9 13 8 27 -5 10
-9 19 -14 19 -10 0 4 10 1 22 -5 18 -10 106 -23 96 -14 -17 14 -49 25 -43 14
5 -8 4 -10 -4 -5 -19 12 -2 26 22 18 12 -4 37 -7 55 -6 17 1 30 -2 26 -7 -3
-5 0 -9 5 -9 6 0 11 5 11 10 0 13 32 9 42 -5 5 -6 8 -5 8 3 0 6 7 12 15 12 8
0 15 -6 15 -12 0 -9 3 -8 10 2 12 19 30 20 50 4 11 -9 20 -10 30 -3 13 9 12
10 -2 5 -20 -6 -32 9 -21 27 11 18 12 37 2 37 -5 0 -9 -5 -9 -12 0 -6 -3 -8
-6 -5 -11 10 -45 -13 -38 -25 4 -7 3 -8 -5 -4 -6 4 -9 11 -6 16 3 5 0 12 -6
16 -9 5 -10 0 -7 -14 4 -12 3 -22 -2 -22 -4 0 -10 11 -12 24 -5 24 5 28 30 12
10 -6 11 -1 7 21 -5 25 -4 26 4 5 12 -26 26 -30 16 -4 -5 13 -4 14 6 5 9 -9
16 -10 26 -2 9 8 13 8 14 0 5 -42 19 -60 47 -56 18 2 30 -4 37 -16 10 -18 11
-18 23 1 8 14 9 21 0 26 -6 4 -8 3 -4 -4 3 -6 2 -13 -3 -16 -5 -3 -11 1 -14 8
-8 21 15 26 35 9 9 -8 32 -16 50 -17 19 -1 40 -6 47 -10 7 -5 15 -5 18 -2 4 3
1 6 -6 6 -8 0 -11 6 -7 16 3 8 2 12 -3 9 -5 -3 -12 -1 -15 4 -4 5 5 8 19 7 14
-2 36 3 50 10 14 7 25 10 25 7 0 -3 7 0 15 7 8 7 15 9 15 4 0 -5 5 -2 11 6 9
13 10 13 6 0 -2 -8 -10 -14 -16 -12 -7 1 -10 -2 -6 -7 3 -6 -4 -8 -16 -6 -12
2 -18 1 -15 -3 4 -4 11 -7 14 -7 4 0 13 -4 20 -8 8 -6 12 -4 10 5 -2 7 3 12
10 11 6 -2 12 6 12 18 0 19 1 19 16 4 11 -11 20 -13 27 -6 5 5 16 7 23 4 8 -3
14 -1 14 5 0 5 11 9 25 8 31 -1 32 -12 3 -20 -18 -4 -20 -8 -10 -18 15 -15 52
-21 52 -9 0 6 -9 8 -20 6 -12 -2 -18 0 -15 6 4 5 11 7 16 4 5 -4 9 -1 9 6 0 7
6 4 14 -6 8 -11 12 -23 10 -27 -3 -5 0 -8 6 -8 7 0 9 7 6 16 -4 10 -1 14 6 11
7 -2 11 -13 10 -23 -2 -10 -1 -16 2 -13 4 4 9 17 11 29 2 12 7 25 11 29 4 3 4
-2 1 -12 -7 -20 3 -22 22 -5 11 10 13 10 7 1 -4 -7 -2 -13 3 -13 6 0 11 8 11
18 0 14 2 15 10 2 9 -14 14 -7 11 13 -1 5 3 6 9 2 6 -4 18 -1 26 6 13 10 17
10 23 0 9 -14 25 13 30 49 0 6 5 10 11 10 5 0 7 -8 4 -17 -5 -15 -4 -15 6 1
10 14 10 20 0 26 -8 5 -7 9 5 14 24 9 25 8 18 -11 -5 -15 -3 -14 10 2 l16 20
1 -20 c1 -16 3 -17 8 -5 4 9 15 16 25 16 9 1 23 2 31 3 7 0 19 15 26 31 12 29
30 41 30 20 0 -5 -4 -10 -10 -10 -17 0 -11 -14 11 -28 12 -8 18 -9 15 -4 -3 6
1 13 10 16 9 4 14 9 11 13 -4 3 -14 0 -23 -8 -16 -13 -16 -12 -4 7 13 21 40
29 37 10 -2 -11 32 -15 48 -5 23 13 54 8 48 -9 -5 -14 -3 -15 7 -5 11 10 10
17 -5 35 -11 13 -13 17 -5 10 8 -6 21 -12 29 -12 13 1 12 4 -4 16 l-20 16 20
-4 c14 -2 19 2 17 12 -3 12 -1 13 10 2 11 -11 10 -15 -2 -23 -13 -9 -12 -10 2
-6 9 3 19 1 22 -6 4 -7 4 -1 0 13 -3 14 -6 31 -6 38 -1 7 -7 11 -15 8 -7 -3
-13 -1 -13 4 0 18 26 11 46 -12 10 -12 13 -18 6 -14 -11 7 -12 4 -3 -12 6 -12
17 -24 24 -28 8 -6 8 -3 -1 9 -8 9 -11 21 -7 27 4 6 -1 20 -11 31 -16 18 -16
21 -2 36 15 15 16 14 14 -11 -2 -16 1 -25 8 -23 6 3 10 9 9 14 -1 5 5 10 13
10 12 0 12 -3 0 -16 -20 -23 -24 -53 -6 -58 12 -4 12 -2 2 5 -10 7 -9 14 7 33
11 13 20 19 21 13 0 -6 7 -11 15 -12 8 -1 22 -3 30 -4 10 -1 14 -8 10 -17 -4
-12 -2 -12 9 2 10 14 15 15 19 5 4 -11 6 -11 6 0 1 7 5 11 10 7 6 -3 8 6 5 21
-6 31 13 49 33 32 9 -7 14 -6 18 4 6 16 65 13 65 -3 0 -5 5 -9 11 -9 8 0 8 5
-1 15 -11 13 17 35 52 39 3 1 10 5 15 10 5 5 3 6 -4 2 -8 -4 -13 -2 -13 6 0 8
-5 6 -11 -4 -11 -20 -29 -24 -29 -6 0 6 3 8 7 4 4 -3 13 4 20 16 7 13 12 17
13 10 0 -7 5 -10 10 -7 6 4 7 11 4 17 -4 7 -2 8 5 4 6 -4 9 -11 6 -16 -3 -5
-1 -11 3 -14 8 -5 9 12 3 47 0 5 -7 5 -13 1 -7 -4 -9 -3 -5 1 13 15 34 13 33
-3 -1 -10 8 -16 27 -17 19 -1 25 1 17 9 -17 17 -11 29 14 24 25 -5 25 -5 10
26 l-15 31 20 -25 c11 -14 21 -19 21 -12 0 7 3 11 8 9 4 -3 16 0 27 4 18 9 18
9 -3 5 -18 -4 -21 -2 -12 9 8 10 7 14 -2 18 -7 3 2 4 19 2 21 -2 32 1 30 8 -1
7 7 11 18 9 16 -2 17 -1 5 7 -14 10 -13 12 10 15 14 1 17 13 6 23 -5 5 -6 2
-1 -6 5 -10 4 -12 -4 -7 -6 4 -9 12 -6 17 4 5 1 9 -5 9 -7 0 -9 -7 -6 -16 4
-10 2 -13 -6 -8 -7 5 -8 3 -3 -6 5 -9 4 -11 -3 -6 -17 10 5 49 23 42 8 -3 17
-1 20 4 3 4 0 10 -7 12 -7 3 -5 7 6 11 11 4 15 3 10 -4 -4 -7 -1 -10 6 -7 8 2
14 14 15 26 1 13 8 28 15 35 10 10 10 8 1 -10 -6 -12 -8 -29 -5 -37 4 -10 1
-16 -7 -16 -12 0 -12 -2 -1 -9 11 -7 10 -9 -3 -14 -9 -4 -13 -3 -10 3 3 6 2
10 -4 10 -17 0 -20 -14 -5 -28 9 -8 14 -9 14 -2 0 6 3 9 8 7 4 -3 13 1 20 9 8
9 9 14 2 14 -7 0 -8 6 -2 18 5 9 9 32 10 49 2 30 0 32 -20 24 -13 -5 -23 -14
-23 -21 0 -7 -6 -14 -13 -16 -7 -1 -8 0 -2 3 5 2 8 9 5 13 -3 5 5 16 17 24 12
9 19 17 15 17 -26 5 -33 3 -39 -11 -5 -13 -7 -12 -7 2 -1 11 -6 15 -16 12 -8
-4 -15 -1 -15 5 0 6 -4 11 -10 11 -5 0 -9 -3 -9 -7 3 -20 -2 -33 -12 -33 -8 0
-7 6 2 17 12 15 12 16 -6 9 -11 -4 -16 -4 -12 0 3 4 -2 15 -13 24 -18 15 -18
19 -5 24 9 3 13 2 10 -3 -3 -5 -1 -12 5 -16 13 -8 13 15 0 35 -6 10 -10 11
-10 3 0 -8 -15 -13 -41 -13 -33 0 -40 -3 -35 -16 3 -8 2 -12 -3 -9 -5 3 -11 0
-14 -7 -2 -7 -3 -6 -2 2 1 12 -7 15 -34 14 -53 -3 -53 -3 -45 -16 4 -6 3 -8
-4 -4 -6 3 -13 2 -16 -3 -4 -5 3 -12 14 -16 23 -7 27 -22 5 -22 -8 0 -12 4 -9
9 3 4 1 8 -5 8 -5 0 -11 -3 -14 -7 -2 -5 -2 -3 -1 4 2 7 -1 15 -5 18 -11 6
-23 -23 -15 -36 3 -5 0 -9 -6 -9 -8 0 -10 9 -5 27 5 23 4 25 -9 14 -11 -9 -16
-10 -16 -2 0 6 4 11 9 11 5 0 8 11 7 25 -3 21 -1 23 15 14 11 -5 19 -12 19
-15 0 -3 -6 -2 -12 2 -7 4 -9 3 -5 -1 4 -5 14 -10 22 -11 18 -3 8 23 -11 30
-9 3 -12 11 -9 16 4 7 -3 9 -19 6 -16 -3 -24 -1 -20 5 3 6 8 8 11 5 3 -3 14
-1 24 4 15 8 17 7 14 -8 -2 -11 3 -19 11 -19 9 0 11 4 5 10 -5 5 -7 16 -4 25
4 10 1 13 -8 10 -22 -8 -49 10 -42 28 5 14 3 15 -18 3 -13 -7 -30 -12 -38 -10
-10 2 -10 -2 3 -14 9 -9 16 -19 16 -23 0 -3 -5 -1 -12 6 -16 16 -31 15 -25 -1
4 -10 -2 -13 -20 -9 -22 4 -25 2 -21 -15 3 -12 0 -20 -8 -20 -7 0 -11 3 -9 7
2 4 -2 7 -10 7 -8 0 -12 -4 -9 -9 3 -4 0 -8 -6 -8 -6 0 -8 -5 -4 -13 5 -7 0
-6 -11 3 -17 14 -18 13 -12 -4 6 -16 5 -17 -8 -6 -9 7 -15 9 -14 4 4 -24 -2
-33 -18 -27 -15 6 -16 4 -5 -9 10 -13 10 -18 1 -24 -7 -4 -10 -3 -7 2 16 25
-20 32 -41 8 -12 -14 -27 -22 -33 -18 -6 4 -8 3 -5 -3 4 -6 -8 -17 -25 -24
l-32 -13 30 -13 c22 -11 24 -13 6 -9 -19 4 -22 1 -18 -12 5 -13 3 -13 -9 2
-20 26 -33 11 -16 -17 13 -19 12 -21 -1 -9 -17 14 -45 -7 -30 -23 4 -5 1 -5
-6 -1 -11 6 -10 12 5 29 12 15 13 18 2 9 -9 -6 -18 -9 -22 -6 -3 3 -4 -6 -3
-19 3 -23 0 -24 -19 -17 -19 7 -22 6 -18 -10 3 -10 0 -21 -6 -24 -7 -5 -9 0
-5 11 5 17 5 17 -9 1 -8 -10 -18 -14 -22 -10 -5 4 -5 -2 -1 -12 6 -16 4 -17
-9 -6 -14 11 -17 10 -22 -9 -5 -18 -8 -19 -21 -9 -13 11 -12 7 2 -22 9 -19 11
-28 4 -19 -15 18 -49 33 -45 20 1 -5 -2 -10 -8 -11 -5 -1 -14 -8 -18 -16 -5
-8 -13 -11 -19 -8 -7 4 -8 2 -4 -4 4 -7 18 -4 44 11 29 17 34 18 23 4 -7 -9
-19 -17 -27 -17 -7 0 -16 -5 -20 -12 -5 -8 -1 -9 12 -4 14 5 16 4 8 -4 -9 -9
-18 -8 -38 5 -14 10 -26 13 -26 7 0 -19 -40 -20 -64 -1 -22 18 -24 18 -22 2 2
-10 8 -18 14 -18 6 0 13 -3 17 -7 4 -3 -1 -5 -10 -4 -10 1 -24 11 -31 21 -9
12 -14 14 -14 6 0 -11 -3 -11 -17 0 -14 12 -16 12 -8 0 6 -11 2 -13 -18 -9
-15 3 -24 1 -21 -3 3 -5 -2 -10 -10 -10 -17 -2 -33 -5 -41 -9 -3 -1 -8 -3 -12
-4 -18 -3 -33 -18 -28 -27 4 -5 -1 -9 -10 -9 -21 0 -66 -30 -60 -40 3 -5 0
-12 -6 -16 -7 -4 -9 -3 -6 3 4 6 0 14 -9 17 -8 3 -12 2 -9 -3 3 -5 1 -12 -4
-15 -5 -4 -12 -2 -15 2 -3 5 -15 8 -28 6 -13 -1 -27 -3 -32 -3 -5 -1 -2 -9 5
-18 11 -15 10 -14 -9 1 -12 11 -22 16 -22 11 0 -4 -8 -1 -17 6 -15 12 -16 12
-8 -1 7 -12 6 -13 -6 -3 -9 7 -32 11 -52 10 -28 -3 -37 0 -38 12 0 10 -4 7
-10 -7 -5 -13 -13 -20 -19 -17 -15 9 -12 17 3 9 10 -6 10 -4 0 7 -10 10 -16
10 -25 1 -7 -7 -17 -12 -22 -12 -6 0 -4 5 4 10 21 14 -5 13 -31 0 -14 -8 -19
-7 -19 2 0 7 -11 18 -25 25 -17 7 -23 8 -18 0 4 -6 0 -8 -10 -4 -10 4 -21 -1
-27 -11 -8 -14 -9 -11 -5 12 2 16 1 26 -2 23 -3 -4 -14 -2 -24 3 -12 7 -20 7
-24 0 -9 -15 -38 -12 -29 3 6 9 4 9 -7 0 -7 -7 -18 -13 -23 -13 -6 0 -4 5 4
10 10 6 11 10 3 10 -18 0 -28 -4 -26 -10 1 -3 -7 -6 -17 -6 -11 0 -17 2 -15 5
3 2 -3 10 -13 18 -9 8 -12 12 -5 9 6 -4 14 -2 17 3 3 5 -8 7 -25 6 -23 -2 -39
5 -62 26 -16 16 -35 29 -41 29 -6 0 -1 -7 11 -15 14 -10 20 -22 17 -33 -5 -15
-4 -15 6 -2 8 10 10 11 8 2 -5 -17 -23 -11 -23 7 0 8 -6 16 -13 19 -8 2 -10
-3 -6 -15 5 -14 4 -15 -4 -3 -6 8 -9 17 -6 21 5 9 -14 22 -34 25 -8 2 -17 6
-20 9 -4 4 2 5 12 3 10 -1 21 3 24 11 2 8 0 11 -5 8 -5 -3 -10 0 -10 8 0 8 4
12 8 9 4 -2 10 0 14 5 3 6 13 8 23 5 14 -5 15 -4 2 5 -8 5 -31 9 -50 6 -19 -2
-29 -1 -22 2 6 2 10 8 7 13 -2 4 10 6 28 4 17 -2 28 0 22 4 -14 10 -20 56 -6
48 18 -12 12 2 -12 26 -24 24 -30 28 -48 28 -6 0 -8 7 -5 16 4 12 1 14 -13 9
-11 -3 -22 -1 -26 4 -4 7 1 8 12 4 10 -3 15 -3 11 2 -4 4 -3 14 3 21 17 21 23
70 6 56 -11 -9 -14 -8 -14 3 0 8 5 11 10 8 5 -3 7 0 5 8 -3 8 -14 12 -24 11
-15 -3 -16 -1 -7 9 9 9 16 9 26 1 8 -7 17 -9 21 -5 4 4 -4 13 -16 20 -13 7
-17 12 -10 13 7 0 10 5 6 12 -4 7 -3 8 5 4 6 -4 8 -13 5 -19 -4 -7 -4 -9 1 -5
4 4 15 2 24 -4 12 -10 12 -8 -1 8 -14 16 -15 23 -5 34 10 12 9 12 -3 3 -9 -6
-23 -7 -35 -2 -19 7 -19 8 2 8 12 1 25 6 29 13 4 7 3 8 -4 4 -16 -10 -10 27 7
48 8 9 9 16 3 16 -6 0 -12 -6 -14 -12 -3 -7 -7 -2 -11 11 -3 13 -3 20 1 16 4
-4 12 13 18 37 6 24 15 42 21 41 5 -1 10 5 10 12 0 11 -4 12 -14 4 -9 -9 -13
-8 -13 0 0 7 -5 9 -12 4 -19 -11 -39 -13 -32 -2 3 5 9 7 14 4 12 -8 33 23 26
40 -3 10 -2 14 5 9 6 -3 9 -15 6 -25 -3 -11 -1 -17 4 -13 5 3 9 16 9 29 0 13
4 26 10 30 11 7 -9 55 -23 55 -6 0 -7 3 -4 7 4 3 17 -2 29 -13 13 -10 17 -12
11 -4 -19 21 -16 34 5 19 14 -11 15 -11 5 1 -18 20 -16 30 5 24 14 -5 15 -4 2
5 -13 9 -13 12 -1 20 22 14 22 56 0 69 -13 8 -19 9 -19 1 0 -5 -5 -7 -11 -3
-8 5 -6 10 5 16 11 6 22 6 31 -2 10 -8 15 -8 21 1 4 8 3 9 -4 5 -7 -4 -12 -1
-12 9 0 9 4 13 10 10 7 -4 7 3 0 20 -6 15 -10 27 -10 29 0 1 9 2 21 3 15 1 18
-1 10 -10 -7 -9 -7 -17 1 -27 8 -12 9 -12 4 2 -3 10 -1 20 5 23 5 4 6 11 3 17
-4 6 1 17 11 25 11 7 14 13 8 13 -7 0 -15 -5 -19 -11 -7 -12 -33 25 -33 46 0
6 6 -1 14 -15 8 -14 14 -19 15 -12 0 7 4 11 9 8 5 -3 15 2 22 12 7 9 9 14 5
10 -5 -4 -16 -2 -24 5 -13 9 -14 9 -8 0 4 -7 2 -13 -3 -13 -6 0 -11 7 -11 16
0 11 6 14 20 9 22 -7 28 10 8 19 -7 3 -1 4 14 1 15 -3 30 -1 33 5 3 6 -1 7 -9
4 -9 -3 -16 -1 -16 5 0 6 -8 7 -17 4 -15 -6 -16 -5 -3 9 8 9 17 12 20 8 3 -4
12 -7 21 -7 12 0 14 10 11 50 -2 34 0 47 7 42 6 -3 9 -11 6 -16 -4 -5 2 -6 11
-2 10 4 13 8 7 10 -7 3 -9 12 -6 21 4 15 3 15 -6 2 -9 -12 -11 -11 -11 7 0 16
4 21 15 17 8 -4 15 -1 15 6 0 6 -4 9 -9 6 -5 -3 -12 1 -15 10 -3 8 -2 13 3 9
22 -13 40 6 29 31 -13 27 -19 29 -36 12 -9 -9 -12 -9 -12 -1 0 7 5 15 10 18
17 11 11 25 -20 44 -16 10 -27 21 -23 25 4 4 0 4 -8 1 -10 -4 -16 0 -16 10 0
9 6 14 14 11 9 -4 11 -1 7 6 -5 8 -1 9 12 5 17 -6 17 -6 3 6 -10 7 -15 23 -13
40 2 17 -2 27 -11 27 -17 0 -26 23 -15 40 10 16 2 42 -11 35 -4 -3 -6 -12 -3
-19 3 -8 1 -17 -5 -21 -7 -4 -5 -14 5 -30 9 -14 19 -23 23 -21 3 2 6 -8 6 -24
1 -24 -2 -27 -24 -23 -21 3 -22 2 -12 -11 7 -8 10 -20 6 -26 -3 -5 -2 -10 3
-10 5 0 9 -7 9 -15 0 -8 -4 -15 -9 -15 -4 0 -8 7 -8 16 0 8 -4 13 -9 10 -4 -3
-13 7 -20 22 -10 25 -10 26 4 8 8 -11 18 -17 22 -13 3 4 -2 17 -13 29 -10 12
-14 19 -8 15 6 -3 19 0 29 7 18 13 17 14 -3 44 -14 19 -18 33 -12 37 5 3 10
11 10 17 0 7 -6 6 -15 -2 -8 -7 -15 -9 -14 -4 0 15 56 54 57 41 0 -7 3 -22 6
-34 3 -14 0 -23 -7 -23 -7 0 -4 -5 7 -11 25 -15 41 9 21 31 -8 9 -13 27 -10
39 2 13 -2 36 -11 52 -8 16 -11 29 -6 29 5 0 14 -10 20 -22 10 -21 11 -21 9
-3 -1 11 -11 25 -21 31 -19 11 -19 12 2 18 12 4 22 12 22 19 0 8 -3 8 -12 -1
-23 -23 -29 -12 -9 17 12 16 21 33 21 38 0 16 36 44 45 36 4 -5 5 -2 1 5 -5 7
-11 11 -14 8 -3 -3 -11 -1 -18 5 -14 11 -8 42 7 33 5 -3 6 2 3 10 -3 9 -10 16
-15 16 -5 0 -7 14 -5 30 2 17 0 32 -4 35 -4 2 -6 16 -4 31 1 14 -1 23 -4 19
-4 -3 -7 -14 -7 -22 0 -9 -6 -18 -12 -20 -7 -3 -13 0 -13 7 0 6 5 8 10 5 6 -3
10 -2 10 4 0 17 -17 21 -30 6 -6 -8 -8 -20 -4 -27 5 -10 4 -10 -5 -2 -15 14 7
57 25 50 6 -2 16 5 22 15 7 11 9 19 5 18 -22 -4 -25 2 -8 14 14 11 15 16 5 22
-9 5 -11 4 -6 -3 4 -7 2 -12 -3 -12 -6 0 -11 5 -11 11 0 8 -6 7 -17 -2 -12
-10 -15 -11 -9 -1 4 7 2 21 -5 30 -11 14 -11 15 1 5 8 -7 23 -13 34 -12 19 0
19 1 3 8 -10 4 -18 11 -17 15 1 5 -4 13 -12 18 -9 6 -6 7 9 3 12 -3 24 -1 28
4 3 7 0 8 -9 5 -20 -8 -21 3 -2 21 7 8 17 11 22 7 4 -4 -3 8 -15 25 -13 20
-19 38 -14 45 14 23 12 40 -3 34 -8 -3 -12 -2 -9 3 3 6 14 9 25 8 14 -1 16 -4
8 -14 -6 -7 -7 -13 -4 -13 4 0 2 -8 -3 -18 -7 -14 -6 -19 2 -19 7 0 14 12 15
25 1 14 7 31 13 38 6 8 8 14 4 14 -4 0 -2 7 5 15 10 12 8 14 -8 10 -15 -3 -18
1 -14 21 2 13 -2 32 -9 41 -13 15 -12 15 11 3 14 -7 22 -9 18 -5 -4 5 -3 14 3
21 7 8 7 14 -1 19 -7 4 -8 11 -2 18 13 17 3 79 -12 70 -6 -3 -5 0 2 8 11 12
14 12 22 -1 5 -8 10 -10 10 -4 0 6 -3 14 -7 18 -11 11 -12 36 -1 36 6 0 5 7
-3 18 -11 14 -11 15 1 5 17 -15 34 -17 25 -3 -11 18 4 11 25 -12 16 -17 19
-18 15 -5 -5 12 -2 17 10 17 10 0 13 -4 9 -12 -5 -9 -2 -9 9 1 14 11 17 11 17
0 0 -11 2 -11 10 1 5 8 10 10 10 4 0 -7 10 -14 23 -17 21 -6 21 -6 3 8 -24 18
-13 20 17 3 33 -18 66 -17 60 2 -3 8 5 4 17 -10 14 -16 20 -19 16 -8 -4 13 -1
15 11 11 12 -5 14 -3 8 7 -5 8 -4 11 3 6 6 -4 9 -12 6 -20 -7 -18 28 -16 42 2
9 12 13 12 19 2 6 -9 4 -11 -5 -5 -8 5 -11 4 -7 -1 7 -12 107 -12 125 -1 6 5
12 4 12 -2 0 -11 39 -9 58 3 7 4 12 2 12 -5 0 -8 5 -7 17 2 10 8 14 9 10 2 -4
-6 -3 -14 3 -18 5 -3 10 -1 10 6 0 8 5 7 17 -2 9 -8 14 -9 10 -3 -4 7 0 15 9
18 8 3 13 2 10 -2 -2 -4 -1 -14 5 -22 7 -13 9 -12 9 1 0 9 7 20 16 23 8 3 12
2 9 -3 -3 -5 -1 -12 5 -16 5 -3 10 0 10 7 1 8 7 5 17 -7 12 -15 14 -16 10 -3
-3 9 0 19 9 22 9 3 12 1 9 -4 -4 -6 5 -10 20 -10 15 0 24 -4 20 -10 -3 -5 -1
-10 4 -10 6 0 11 6 11 13 0 8 3 8 9 -2 5 -8 16 -11 25 -8 8 3 18 1 22 -5 4 -7
3 -8 -4 -4 -7 4 -12 2 -12 -4 0 -7 7 -9 16 -6 9 3 21 3 27 -1 20 -13 39 -12
34 1 -3 7 1 13 8 13 8 0 14 -3 13 -6 -3 -27 3 -33 16 -16 13 18 13 18 24 -1 7
-12 12 -14 12 -5 0 8 8 4 21 -10 11 -13 18 -18 14 -12 -9 18 54 10 66 -8 4 -8
19 -14 33 -14 14 -1 34 -9 45 -19 12 -11 21 -15 21 -10 0 5 5 1 11 -9 5 -9 7
-22 4 -27 -4 -6 1 -7 11 -3 13 5 16 3 11 -10 -4 -11 -2 -14 8 -10 8 3 12 10 8
17 -3 6 -2 7 3 3 5 -5 9 -14 9 -20 1 -7 7 -11 14 -9 7 1 10 -2 6 -8 -5 -8 -11
-8 -20 0 -10 8 -15 8 -21 -1 -4 -8 -3 -9 5 -5 6 4 14 0 17 -8 3 -9 10 -13 15
-10 9 5 13 -10 10 -30 -1 -5 4 -4 13 3 11 9 16 9 22 0 4 -8 3 -9 -4 -5 -7 4
-12 1 -12 -8 0 -9 4 -16 9 -16 5 0 12 -7 15 -16 6 -15 4 -15 -10 -3 -16 13
-16 12 -5 -9 14 -26 7 -57 -9 -47 -12 8 -9 -17 3 -26 5 -3 1 -9 -8 -12 -10 -5
-14 -3 -9 5 5 8 0 9 -17 4 -13 -5 -32 -8 -42 -9 -11 -1 -15 -7 -12 -16 4 -10
2 -11 -7 -4 -7 6 -24 8 -38 6 -14 -2 -33 -4 -42 -5 -9 -1 -14 -6 -11 -11 3 -5
-5 -6 -18 -2 -23 7 -24 7 -4 -9 19 -15 18 -15 -12 -6 -23 6 -35 5 -40 -3 -13
-20 -12 -39 1 -34 7 3 13 0 13 -7 0 -7 -6 -13 -14 -13 -7 0 -13 4 -13 8 0 5
-8 6 -17 2 -15 -5 -14 -3 2 10 11 9 15 17 9 17 -16 0 -45 -35 -37 -45 5 -4 0
-5 -9 -2 -10 3 -20 1 -24 -5 -4 -7 -3 -8 4 -4 7 4 12 3 12 -3 0 -6 8 -7 17 -4
15 6 16 5 3 -9 -8 -9 -18 -12 -21 -7 -7 12 -39 1 -39 -13 0 -6 6 -5 15 2 18
15 20 5 3 -14 -11 -11 -15 -11 -24 2 -10 14 -13 13 -23 -6 -7 -13 -17 -20 -22
-16 -7 4 -6 -2 1 -16 6 -12 9 -24 6 -28 -3 -3 -6 0 -6 7 0 7 -4 9 -10 6 -5 -3
-10 -1 -10 4 0 6 -4 11 -9 11 -4 0 -7 -11 -6 -24 3 -20 -1 -24 -16 -21 -11 2
-23 -3 -26 -11 -3 -9 -12 -13 -22 -10 -13 5 -13 4 2 -8 23 -18 21 -25 -5 -19
-23 5 -23 5 -3 -10 20 -16 20 -16 -2 -11 -31 8 -56 -16 -34 -33 14 -10 12 -11
-8 -6 -19 5 -22 3 -16 -8 7 -11 5 -11 -10 1 -10 8 -16 10 -12 3 4 -6 2 -13 -3
-15 -6 -2 -12 -10 -13 -18 -5 -32 -18 -42 -35 -28 -10 7 -14 9 -10 4 13 -15
-15 -35 -31 -22 -12 8 -13 8 -7 -1 4 -8 1 -13 -8 -13 -9 0 -16 -6 -16 -14 0
-7 -7 -19 -15 -26 -9 -8 -15 -8 -15 -2 0 6 6 13 13 15 9 4 9 6 -1 6 -7 1 -15
-5 -18 -13 -3 -8 -15 -13 -26 -11 -17 4 -18 2 -6 -12 9 -12 9 -15 1 -9 -7 4
-13 2 -13 -3 0 -6 -6 -10 -12 -8 -7 1 -12 -6 -12 -15 1 -11 -5 -15 -18 -13
-20 4 -20 4 -2 -16 10 -11 14 -20 9 -19 -21 5 -27 -1 -16 -14 14 -16 -12 -17
-26 -1 -5 4 -1 5 7 0 8 -5 12 -5 8 0 -4 4 -3 14 4 22 8 11 7 12 -6 7 -15 -6
-20 -16 -17 -40 1 -6 -6 -17 -14 -24 -8 -7 -15 -19 -15 -27 0 -8 -4 -12 -8 -9
-5 3 -9 -1 -9 -9 0 -8 3 -14 6 -13 29 3 38 -27 18 -59 -4 -6 -2 -15 4 -19 7
-4 9 -3 6 3 -3 5 0 10 8 10 19 0 19 -13 1 -20 -16 -6 -28 -47 -14 -47 6 0 4
-8 -5 -17 -15 -18 -17 -22 -17 -44 0 -5 -4 -8 -8 -5 -4 2 -8 -4 -8 -14 0 -10
4 -16 8 -14 4 3 8 1 8 -5 0 -5 8 -12 18 -14 9 -3 6 -5 -8 -4 -14 1 -26 -2 -27
-8 -1 -5 6 -8 15 -7 12 3 13 1 5 -10 -15 -19 -12 -48 5 -48 12 0 12 3 2 15
-12 14 -7 20 14 16 5 -1 6 5 3 13 -3 8 0 17 8 20 15 5 11 -18 -7 -41 -5 -7 -5
-14 1 -17 5 -4 12 2 15 12 3 10 16 18 28 19 l23 1 -22 -10 c-22 -11 -39 -38
-24 -38 5 0 18 -3 28 -7 16 -6 17 -5 3 12 -14 17 -14 17 6 5 16 -10 19 -16 11
-25 -13 -14 -39 -16 -30 -3 3 6 -5 8 -18 6 -17 -2 -23 1 -21 11 2 11 0 12 -11
3 -8 -7 -18 -8 -23 -4 -5 4 -1 -3 9 -14 12 -14 25 -20 38 -17 15 4 18 2 13
-13 -6 -18 -6 -18 8 0 15 19 15 19 27 0 7 -10 10 -12 8 -4 -3 14 12 37 24 36
16 -2 37 28 34 49 -1 14 1 22 6 20 4 -3 11 4 14 16 l7 21 15 -21 c8 -12 18
-19 23 -16 4 3 11 -1 13 -7 3 -8 6 -5 6 6 1 12 -4 16 -14 12 -9 -3 -15 0 -15
9 0 8 0 18 -1 22 0 4 5 9 13 11 11 3 11 2 0 -6 -11 -7 -11 -10 3 -15 11 -5 14
-3 9 5 -5 7 -2 9 8 5 11 -4 15 0 13 11 -1 9 3 20 9 24 6 4 7 10 3 15 -9 9 -28
-17 -21 -29 7 -11 -8 -10 -26 2 -13 8 -12 10 3 10 10 0 15 5 12 10 -3 6 -2 10
4 10 6 0 19 9 30 21 11 12 24 18 30 14 6 -3 11 -2 11 4 0 5 -6 12 -12 14 -8 3
-5 6 5 6 10 1 16 5 12 10 -3 5 4 12 14 16 14 4 18 11 14 23 -6 16 -5 16 11 0
14 -14 22 -16 38 -7 13 7 18 7 14 1 -3 -6 -2 -13 4 -17 5 -3 10 -1 10 6 0 7 3
9 6 6 4 -4 2 -13 -5 -21 -21 -25 -21 -52 0 -52 10 0 16 2 14 5 -6 6 15 31 26
31 5 0 9 -7 9 -16 0 -9 -5 -12 -12 -8 -7 5 -8 3 -3 -6 6 -10 11 -9 22 5 9 13
13 14 13 5 0 -9 5 -8 16 6 14 18 15 18 9 -6 -4 -14 -3 -20 2 -15 4 6 17 17 27
25 18 14 19 13 12 -5 -6 -18 -5 -18 14 3 17 18 19 26 10 37 -8 10 -8 15 1 21
7 4 9 3 5 -4 -3 -6 -2 -13 4 -17 6 -3 13 0 16 8 6 16 28 17 41 2 4 -4 3 -5 -3
-2 -6 4 -17 1 -25 -6 -8 -7 -12 -11 -10 -10 2 2 10 -2 18 -9 10 -8 12 -8 8 4
-5 12 0 15 24 13 18 -1 29 2 28 9 -1 6 6 10 15 10 10 -1 15 3 12 8 -3 5 -12 7
-20 4 -8 -3 -17 1 -20 9 -4 8 -11 12 -18 9 -6 -4 -3 1 6 12 17 17 18 17 42 -5
17 -16 26 -19 31 -10 5 8 4 10 -3 5 -17 -10 -9 52 8 67 12 10 12 9 1 -5 -10
-14 -11 -18 -1 -18 9 0 10 -3 1 -13 -8 -10 -7 -14 4 -14 8 0 11 5 8 10 -4 6 1
8 11 4 9 -4 15 -3 11 2 -3 5 -2 11 2 14 5 2 3 3 -2 1 -6 -1 -11 6 -11 16 0 16
2 16 23 3 18 -12 23 -12 23 -2 0 7 3 9 7 6 3 -4 12 -2 20 4 10 9 17 8 31 -2
15 -12 16 -12 5 1 -14 18 -7 32 26 50 19 9 21 14 10 21 -9 6 -10 9 -2 9 24 0
23 -20 -2 -36 -14 -9 -25 -21 -25 -28 0 -6 5 -4 10 4 5 8 10 11 10 5 0 -5 5
-2 11 8 6 9 15 14 21 11 7 -5 8 -2 3 6 -6 10 -4 12 10 6 18 -7 18 -6 2 12 -16
17 -16 20 -2 32 9 7 15 9 14 4 -3 -19 1 -34 11 -34 5 0 7 7 4 15 -4 11 -2 13
9 9 8 -3 18 -1 22 5 3 6 15 11 25 11 12 0 17 5 14 13 -3 9 3 13 18 12 26 -3
51 13 42 26 -3 5 0 9 5 9 6 0 11 5 11 11 0 8 -5 8 -15 -1 -8 -7 -12 -17 -8
-24 3 -6 3 -8 -2 -4 -4 4 -15 2 -23 -5 -11 -8 -14 -8 -9 0 4 6 3 14 -3 18 -5
3 -10 12 -10 18 0 7 5 4 11 -6 10 -17 12 -16 33 4 26 25 53 32 62 18 3 -5 0
-8 -7 -7 -7 2 -14 -7 -15 -19 -1 -12 2 -20 7 -17 4 2 5 12 2 21 -4 10 -2 14 4
10 6 -4 22 4 35 16 14 13 31 21 39 19 9 -2 10 -1 3 5 -6 4 -11 15 -11 23 0 22
35 23 40 2 4 -15 5 -15 6 1 1 12 5 15 14 10 6 -4 3 6 -7 22 -12 18 -14 25 -5
18 16 -13 26 -8 47 19 10 12 10 18 1 24 -8 5 -9 3 -4 -6 6 -9 4 -11 -5 -5 -9
5 -11 4 -6 -3 5 -8 2 -10 -9 -6 -14 6 -14 8 2 19 10 7 21 11 25 9 5 -3 8 -1 8
5 0 20 -23 24 -37 6 -7 -11 -13 -14 -13 -8 0 20 29 36 43 24 8 -6 18 -7 22 -3
5 4 5 2 2 -4 -3 -6 0 -11 7 -11 7 0 13 7 12 16 -1 11 6 15 19 13 16 -2 17 -1
5 7 -15 10 -13 12 13 15 12 1 14 5 16 52 1 20 5 25 18 20 10 -4 14 -4 10 0 -4
4 -2 14 5 21 7 9 8 17 2 21 -5 4 -10 14 -12 22 -3 11 2 10 17 -4 12 -11 21
-14 21 -8 0 7 -4 12 -9 12 -5 0 -11 7 -15 15 -3 8 -1 14 3 12 5 -1 9 3 9 8 0
6 -4 9 -9 7 -5 -1 -2 9 7 22 9 14 12 31 8 38 -5 8 -1 8 11 -2 17 -14 18 -14 7
7 -13 24 -1 39 21 27 6 -4 3 3 -8 16 -17 20 -18 23 -2 17 24 -9 22 5 -3 21
-25 15 -18 32 13 33 16 0 18 2 7 7 -22 10 -21 54 1 70 19 13 18 14 -6 46 -18
23 -21 33 -10 33 7 0 13 -3 12 -6 -1 -3 1 -7 6 -8 16 -6 19 -2 8 11 -6 8 -11
18 -10 22 1 5 1 20 0 34 -1 21 -3 23 -14 10 -7 -8 -19 -16 -27 -18 -8 -1 -4 6
10 17 13 11 28 17 32 15 3 -2 10 1 14 7 4 7 3 9 -3 6 -6 -4 -14 0 -17 9 -3 8
-2 12 3 9 5 -3 13 0 17 6 5 8 3 9 -6 4 -9 -6 -12 -4 -8 7 8 19 -7 42 -21 34
-6 -4 -8 -13 -4 -19 10 -17 11 -47 1 -53 -11 -7 -38 15 -38 30 0 6 5 3 11 -6
5 -10 15 -18 21 -18 7 0 7 4 1 13 -10 12 -13 28 -13 65 0 45 2 52 11 52 5 0 9
5 9 10 0 6 -6 9 -12 8 -8 -2 -12 8 -11 30 1 17 -3 32 -8 32 -6 0 -7 -4 -4 -10
5 -9 -14 -15 -37 -12 -13 2 -16 -27 -2 -32 8 -3 14 -10 14 -16 0 -5 -9 -2 -19
7 -19 16 -12 61 8 49 4 -3 12 4 19 15 11 17 9 19 -10 19 -19 0 -20 -2 -8 -10
12 -8 13 -10 1 -10 -8 0 -24 -8 -35 -17 -21 -18 -21 -18 -3 3 16 19 16 22 2
34 -10 8 -12 17 -6 24 5 6 10 16 11 21 1 6 3 12 5 13 6 6 0 -23 -8 -34 -7 -12
1 -24 15 -24 5 0 7 4 4 9 -4 5 2 7 13 4 10 -3 22 0 25 5 4 6 -2 8 -14 5 -11
-3 -20 -1 -21 3 -2 30 -9 49 -19 52 -5 2 -7 9 -4 14 4 7 2 8 -5 4 -9 -6 -9
-11 0 -22 8 -10 8 -14 0 -14 -6 0 -11 -6 -11 -14 0 -8 -7 -17 -16 -20 -21 -8
-24 -8 -24 5 0 5 4 8 9 4 12 -7 34 32 26 46 -4 5 -1 17 7 27 11 14 8 14 -17
-2 -30 -19 -30 -19 -12 1 19 22 22 33 6 33 -5 0 -8 -4 -5 -8 2 -4 -4 -13 -15
-20 -11 -7 -19 -8 -19 -2 0 5 5 10 10 10 6 0 10 14 10 31 0 20 -4 28 -12 23
-7 -5 -9 -2 -6 7 4 10 -1 15 -13 15 -15 0 -16 -3 -6 -16 10 -13 10 -13 -5 -2
-18 15 -34 0 -22 -20 5 -10 4 -10 -5 -2 -10 9 -10 16 0 32 11 18 10 23 -11 40
-25 20 -65 16 -65 -6 0 -6 -4 -14 -9 -19 -5 -5 -6 -3 -2 5 4 7 2 12 -6 12 -9
0 -9 3 2 10 8 5 16 18 16 30 1 17 -1 18 -15 8 -26 -20 -27 -22 -6 -14 11 4 16
3 11 -1 -4 -4 -19 -8 -32 -8 l-24 -1 23 21 c13 11 18 16 11 12 -7 -5 -14 -2
-17 5 -4 11 -6 10 -6 0 -1 -7 -6 -10 -11 -7 -6 4 -17 2 -24 -4 -11 -9 -12 -6
-8 14 5 27 0 30 -28 15 -13 -7 -21 -7 -26 2 -4 7 -3 8 4 4 7 -4 12 -2 12 3 0
6 -12 11 -26 11 -17 0 -23 -4 -18 -12 6 -10 5 -10 -8 -1 -8 7 -18 10 -22 6 -4
-4 -4 0 -1 9 7 18 -7 30 -39 32 -11 1 -20 8 -18 15 1 7 -2 10 -8 6 -7 -4 -8
-11 -1 -18 7 -9 2 -12 -16 -14 -19 -1 -22 1 -12 8 12 7 12 10 0 21 -10 10 -12
10 -7 1 4 -7 2 -13 -3 -13 -6 0 -11 4 -11 8 0 4 -17 14 -37 22 -49 18 -64 20
-57 9 3 -5 11 -6 17 -3 7 4 9 3 5 -1 -5 -5 -20 -10 -35 -11 -21 -2 -24 -1 -13
7 11 7 3 9 -28 7 -29 -2 -46 2 -52 12 -8 13 -10 12 -10 -2 0 -10 -4 -18 -10
-18 -5 0 -7 6 -4 14 6 16 -12 16 -35 2 -10 -6 -12 -5 -7 2 8 13 -7 16 -59 13
-23 -1 -26 1 -15 9 8 5 10 10 5 10 -6 0 -16 -5 -23 -12 -9 -9 -12 -9 -12 1 0
11 -3 11 -15 1 -14 -12 -19 -7 -16 13 1 5 -3 6 -9 2 -6 -3 -8 -11 -5 -16 4 -5
1 -9 -4 -9 -6 0 -11 4 -11 9 0 6 -9 8 -20 6 -11 -2 -20 2 -20 8 0 7 -4 6 -10
-3 -5 -8 -10 -11 -10 -6 0 5 -6 3 -14 -3 -11 -9 -16 -9 -22 0 -5 8 -3 9 6 4 9
-5 11 -4 6 4 -5 7 -12 9 -19 3 -7 -5 -25 -8 -40 -7 -15 1 -30 -2 -33 -7 -3 -4
-10 -8 -15 -8 -6 0 -7 6 -3 13 5 8 2 8 -9 -2 -13 -10 -20 -11 -31 -2 -11 9
-13 6 -11 -14 2 -14 -1 -23 -6 -19 -5 3 -7 10 -4 15 4 5 -1 10 -9 10 -9 1 -26
2 -38 4 -13 1 -34 -5 -47 -13 -17 -10 -26 -11 -34 -3 -17 17 -30 13 -23 -6 5
-15 4 -15 -9 1 -8 11 -15 16 -15 12 0 -5 -6 -4 -13 3 -10 8 -17 7 -25 -1 -7
-7 -12 -8 -12 -2 0 5 -12 9 -27 8 -16 -1 -34 4 -42 10 -11 9 -13 6 -7 -14 4
-14 4 -20 -1 -14 -11 14 -62 24 -69 12 -3 -4 -11 -5 -17 -1 -7 4 -6 -1 2 -10
12 -15 12 -17 -3 -11 -9 3 -16 11 -16 17 0 6 -7 2 -15 -9 -13 -16 -14 -16 -9
-1 4 12 1 17 -11 17 -12 0 -15 -5 -11 -17 4 -11 -2 -8 -14 7 -11 14 -20 30
-20 37 0 6 -6 14 -12 16 -8 4 -5 8 9 12 13 4 21 14 20 25 -1 10 -5 16 -10 13
-5 -3 -2 6 7 20 16 23 16 26 0 41 -9 9 -14 20 -10 23 3 3 1 12 -6 20 -8 11 -7
12 6 7 10 -4 15 -12 13 -19 -3 -6 1 -12 8 -12 9 0 11 6 6 16 -5 9 -8 29 -7 44
1 19 -6 34 -19 44 -20 15 -19 15 4 8 17 -5 21 -4 16 4 -10 16 3 63 15 56 6 -3
10 -1 10 4 0 14 -17 14 -25 1 -8 -13 -25 -13 -25 1 0 5 3 8 8 6 7 -5 32 17 33
30 1 5 6 7 12 5 6 -2 6 3 -2 12 -8 9 -8 16 -2 20 16 10 1 35 -17 29 -14 -4
-15 -3 -2 5 10 8 19 7 29 -1 12 -10 13 -9 3 8 -7 15 -7 26 1 40 6 11 11 29 12
40 0 12 6 19 15 17 12 -3 13 -1 3 9 -15 15 -17 33 -4 24 6 -3 8 6 5 22 -4 19
0 32 13 42 12 9 13 12 3 9 -8 -3 -21 1 -29 9 -12 13 -11 14 10 8 19 -6 21 -5
12 5 -6 7 -9 19 -6 28 4 8 2 13 -3 9 -6 -3 -11 4 -11 15 -2 20 -1 20 13 2 15
-18 15 -18 11 4 -4 18 -3 21 8 12 8 -7 15 -7 19 -1 4 5 -3 12 -14 16 -28 9
-25 21 10 34 17 5 30 13 30 16 0 3 -4 4 -8 1 -4 -2 -13 3 -19 13 -9 14 -8 18
3 18 7 0 11 -4 8 -9 -3 -4 2 -8 10 -8 9 0 16 -5 16 -12 0 -6 3 -9 6 -6 3 4 -2
17 -10 30 -9 14 -13 28 -9 31 3 4 1 7 -6 7 -7 0 -9 5 -6 10 3 6 -1 13 -9 16
-9 3 -16 11 -16 16 0 6 6 5 15 -2 17 -14 50 4 39 22 -4 6 -10 5 -15 -3 -4 -7
-11 -10 -16 -6 -10 10 18 28 31 20 5 -4 7 1 2 12 -5 14 -4 15 7 7 7 -6 18 -7
26 -3 9 6 10 10 2 15 -6 4 -9 12 -5 17 3 6 12 3 21 -8 8 -10 11 -12 7 -4 -9
17 -14 61 -7 61 2 0 14 -5 26 -11 21 -10 21 -10 3 5 -18 15 -15 21 7 17 5 -1
6 3 2 9 -3 5 -1 10 4 10 6 0 11 9 11 21 0 11 5 17 10 14 6 -3 10 -1 10 4 0 6
-4 11 -9 11 -14 0 -32 -26 -23 -35 4 -5 1 -5 -7 0 -9 5 -12 4 -8 -2 9 -15 -15
-33 -50 -38 -15 -2 -22 -2 -15 1 6 3 9 11 6 17 -5 9 -3 8 6 0 17 -15 52 1 44
21 -3 7 3 16 13 20 14 6 15 9 3 16 -16 10 -23 40 -8 40 6 0 7 -7 4 -16 -4 -10
-1 -14 6 -11 7 2 12 15 10 28 -1 13 1 19 5 13 5 -6 18 -13 30 -16 20 -5 21 -4
12 14 -6 10 -17 22 -25 25 -18 7 -18 20 1 20 8 0 12 -4 10 -8 -3 -4 2 -9 10
-13 8 -3 17 -1 20 5 4 5 10 7 15 4 5 -3 12 -1 15 5 4 6 3 10 -2 9 -20 -3 -27
2 -13 11 10 6 11 10 3 10 -7 0 -13 5 -13 11 0 6 6 9 14 6 18 -7 14 22 -5 34
-9 5 -10 9 -2 9 6 0 19 -10 27 -21 15 -22 15 -22 12 5 -1 14 -6 29 -11 34 -4
4 -5 1 0 -7 5 -9 4 -12 -3 -7 -19 11 -14 28 6 22 9 -3 24 -1 32 4 11 7 11 10
2 10 -7 0 -10 5 -7 10 4 6 12 7 18 4 8 -5 8 -3 0 7 -19 20 -16 33 5 18 9 -7
14 -9 10 -5 -4 5 -2 16 5 24 9 13 9 14 0 8 -7 -4 -13 -2 -13 3 0 6 8 11 18 11
14 0 15 2 2 10 -20 13 -33 12 -24 -2 5 -7 3 -8 -6 -3 -9 5 -11 4 -6 -4 4 -6 0
-18 -8 -27 -10 -9 -14 -26 -12 -41 4 -19 2 -22 -8 -14 -7 6 -16 8 -19 4 -4 -3
-7 -1 -7 5 0 7 5 12 10 12 6 0 10 6 10 14 0 7 7 19 15 26 8 7 12 17 9 22 -4 6
0 14 7 19 8 4 15 13 15 19 3 21 4 22 19 10 18 -15 20 0 3 20 -7 7 -2 6 12 -3
29 -20 41 -21 37 -4 -1 6 7 12 17 12 24 0 32 21 11 29 -9 3 -14 2 -11 -2 11
-18 -30 -30 -55 -16 -13 7 -20 13 -16 14 5 0 17 -5 27 -10 13 -7 21 -7 25 0 9
15 -14 41 -29 33 -6 -3 -7 -2 -3 2 10 12 39 16 32 5 -3 -5 -1 -11 5 -15 5 -3
10 0 10 7 0 8 3 9 8 3 10 -15 35 -18 26 -4 -5 9 -2 10 11 5 13 -5 15 -3 8 6
-12 16 -13 49 -1 42 4 -3 8 0 8 5 0 6 5 11 12 11 6 0 4 -8 -6 -19 -14 -15 -15
-21 -4 -27 7 -4 10 -4 6 1 -4 4 0 14 8 22 8 8 11 19 8 25 -4 6 1 17 12 25 15
11 16 17 6 33 -8 14 -9 21 0 26 6 4 8 3 4 -4 -3 -6 -2 -13 4 -17 10 -6 13 5
11 35 0 10 1 11 5 2 3 -6 10 -9 16 -6 5 3 3 -7 -6 -23 -12 -24 -12 -30 -1 -30
7 0 11 6 8 14 -3 8 0 12 8 10 8 -2 11 -2 7 0 -14 8 -8 25 7 20 8 -4 17 -1 21
5 4 6 3 8 -4 4 -6 -3 -17 3 -25 14 -7 11 -17 17 -22 12 -5 -4 -5 -2 -2 4 4 6
18 10 32 8 17 -1 25 2 22 9 -2 7 -11 11 -19 9 -8 -1 -15 4 -15 12 0 11 5 12
16 6 9 -4 21 -9 26 -10 6 -1 12 -4 15 -7 3 -4 -2 -3 -10 2 -8 5 -12 4 -7 0 14
-16 46 -13 39 3 -3 9 -1 13 4 9 5 -3 11 6 12 21 l1 27 -15 -27 c-18 -35 -26
-36 -20 -4 2 14 -1 27 -7 30 -7 3 -1 3 12 0 18 -5 22 -3 15 7 -6 11 -5 12 8 2
8 -7 19 -9 23 -5 5 4 6 2 2 -3 -3 -6 -2 -17 4 -25 7 -12 9 -10 9 7 0 13 5 21
13 19 6 -1 9 -1 4 1 -4 3 -5 9 -1 14 3 5 13 5 25 -1 22 -12 21 -13 24 17 1 12
-1 20 -6 17 -4 -2 -6 -12 -3 -22 3 -9 -2 -5 -10 10 -19 31 -12 59 12 52 12 -4
10 0 -6 14 -13 13 -20 26 -16 36 6 15 8 15 21 -1 8 -10 12 -13 9 -6 -4 6 -2
14 3 17 5 3 11 0 14 -8 3 -8 -1 -17 -9 -20 -9 -3 -12 -10 -9 -16 8 -14 26 -13
23 1 -2 6 4 14 12 16 13 4 13 3 0 -6 -13 -10 -13 -11 0 -11 13 0 13 -1 0 -10
-11 -7 -12 -10 -2 -10 10 0 10 -4 -2 -16 -18 -18 -21 -34 -6 -34 6 0 9 5 8 11
-2 6 3 14 10 16 8 3 10 -2 6 -14 -5 -14 -4 -15 4 -4 7 9 7 21 2 32 -9 16 -4
29 11 29 5 0 6 -8 2 -17 -3 -10 -3 -15 1 -12 12 11 15 48 4 55 -7 5 -8 2 -3
-6 5 -8 3 -11 -6 -8 -8 3 -14 10 -14 15 0 6 -4 15 -9 20 -5 5 -6 3 -2 -4 4 -7
2 -13 -3 -13 -10 0 -15 13 -13 31 1 3 -5 6 -13 6 -8 0 -12 -4 -9 -9 3 -4 1 -8
-3 -8 -5 0 -17 14 -26 30 -10 17 -15 30 -11 30 3 0 0 8 -7 17 -12 15 -12 16 3
10 10 -3 20 -1 24 5 4 7 3 8 -4 4 -18 -11 -14 5 6 28 15 18 15 19 0 8 -15 -12
-17 -11 -15 7 1 12 4 21 7 21 4 0 7 7 7 15 0 8 -4 12 -9 9 -5 -3 -6 8 -3 25 3
18 1 31 -5 31 -7 0 -8 6 -1 19 8 14 6 25 -9 44 -25 31 -26 44 -2 26 10 -8 9
-4 -4 11 -12 14 -21 36 -20 50 4 43 -10 58 -49 54 -19 -1 -33 2 -29 7 9 16 -2
10 -21 -11z m132 -285 c0 -8 -4 -12 -9 -9 -4 3 -8 1 -8 -5 0 -5 5 -13 11 -16
7 -5 5 -13 -5 -24 -12 -13 -13 -20 -4 -29 7 -7 8 -12 4 -12 -5 0 -1 -12 9 -26
15 -23 15 -28 1 -48 -10 -16 -12 -26 -4 -34 12 -12 1 -35 -13 -27 -17 11 -9
-8 14 -33 12 -14 17 -22 11 -19 -7 4 -17 0 -24 -8 -14 -17 -51 -3 -49 18 0 9
2 9 6 -1 2 -6 9 -10 14 -6 5 3 9 0 9 -6 0 -7 5 -6 14 2 12 11 12 15 -1 30 -15
17 -9 43 8 33 5 -4 9 -2 9 4 0 15 -51 51 -63 44 -6 -4 -2 -10 11 -16 25 -11
26 -15 12 -37 -10 -15 -16 -2 -11 24 1 5 -5 6 -14 2 -11 -4 -14 -2 -9 6 5 8 2
9 -9 5 -9 -3 -19 -1 -23 5 -4 7 -3 8 4 4 7 -4 10 0 7 12 -3 19 18 24 41 9 12
-7 53 -2 63 8 3 3 -10 3 -28 0 -29 -5 -32 -4 -22 9 7 8 18 14 24 12 7 -1 9 -1
4 1 -4 3 -5 9 -1 14 3 5 1 9 -5 9 -6 0 -9 6 -7 13 1 6 1 9 -1 5 -2 -3 -16 -4
-31 -2 -32 6 -42 14 -18 14 11 0 15 5 10 13 -6 10 -4 10 7 0 19 -18 34 -16 19
2 -7 9 -10 18 -6 22 3 3 6 1 6 -6 0 -7 5 -9 10 -6 8 5 7 12 -2 23 -11 13 -11
14 1 7 11 -6 13 -4 8 9 -4 10 -3 15 3 11 6 -3 10 -1 10 4 0 6 4 11 8 11 5 0 9
-7 9 -15z m-618 -542 c1 4 11 2 24 -5 12 -7 26 -11 31 -10 4 2 14 -3 22 -9 11
-9 14 -9 14 0 0 6 -7 14 -15 17 -8 4 -12 11 -9 16 4 6 11 4 16 -6 8 -14 13
-15 24 -5 19 15 18 2 -1 -17 -20 -21 -19 -35 3 -27 18 7 -12 -24 -58 -57 -14
-10 -22 -21 -19 -24 3 -4 18 3 32 15 20 15 25 16 21 5 -3 -9 -10 -16 -16 -16
-5 0 -7 -4 -3 -10 3 -5 13 -6 22 -3 11 4 14 3 9 -6 -4 -6 -15 -10 -23 -9 -9 2
-18 -3 -21 -11 -3 -8 0 -11 7 -7 6 4 19 2 28 -4 16 -10 16 -10 -3 -5 -16 4
-23 0 -27 -14 -5 -21 9 -41 30 -41 7 0 13 -5 13 -11 0 -11 -15 -4 -42 19 -11
9 -18 11 -18 4 0 -6 4 -13 9 -16 5 -3 11 -15 14 -26 3 -11 1 -18 -4 -14 -5 3
-9 11 -9 19 0 8 -5 17 -10 20 -7 4 -9 -2 -5 -18 4 -15 2 -28 -5 -32 -9 -5 -10
-1 -6 13 5 15 3 20 -8 18 -18 -2 -34 -16 -20 -16 5 0 10 -12 11 -27 1 -16 -1
-21 -4 -13 -6 16 -23 30 -35 30 -4 0 -5 -6 -2 -14 4 -9 -3 -13 -23 -13 -15 0
-22 2 -15 4 6 3 12 8 12 12 0 4 -6 8 -12 8 -7 0 -22 4 -33 8 -18 6 -18 5 -2
-5 9 -6 17 -15 17 -19 0 -14 -75 -7 -93 8 -10 8 -17 9 -17 3 0 -6 4 -14 10
-17 5 -3 15 -15 21 -27 9 -16 8 -19 -2 -13 -9 6 -11 3 -6 -8 9 -24 0 -21 -14
4 -8 17 -8 20 1 14 8 -5 11 -3 8 5 -6 18 -78 22 -84 5 -3 -7 2 -25 11 -39 10
-14 13 -26 9 -26 -5 0 -2 -5 6 -11 10 -7 11 -9 2 -7 -8 2 -12 6 -11 8 2 3 -5
19 -16 37 -15 25 -16 35 -6 46 7 10 8 18 2 21 -5 4 -12 -3 -16 -14 -4 -11 -11
-18 -16 -15 -17 11 -9 -12 11 -30 22 -20 26 -35 9 -35 -5 0 -8 3 -6 8 5 8 -18
33 -25 27 -2 -3 -4 8 -4 24 0 22 3 28 15 24 13 -5 13 -3 4 7 -14 15 -44 6 -39
-12 1 -7 1 -10 -1 -5 -7 12 -24 8 -22 -5 3 -25 -1 -38 -12 -38 -8 0 -7 6 2 16
12 15 11 16 -9 10 -14 -5 -22 -3 -22 4 0 6 4 9 9 6 5 -3 14 1 20 8 10 11 6 18
-18 32 -23 14 -28 21 -19 31 7 9 7 13 -1 13 -20 0 -24 -30 -7 -43 17 -13 12
-52 -5 -41 -5 3 -9 -2 -9 -11 0 -9 5 -13 10 -10 6 4 5 -5 -2 -19 -6 -14 -15
-26 -20 -26 -5 0 -7 4 -4 9 4 5 3 11 -1 14 -5 2 -3 3 3 1 9 -2 10 23 5 102 -2
20 -34 26 -50 9 -14 -14 -14 -15 8 -13 22 3 25 -1 27 -31 1 -27 0 -31 -8 -18
-5 10 -13 15 -19 12 -14 -9 -11 -27 4 -19 6 4 3 -3 -8 -17 -11 -13 -21 -26
-22 -28 -2 -3 -10 4 -17 15 -8 10 -13 22 -10 25 2 3 -8 11 -21 17 -30 14 -31
23 -5 47 15 14 17 21 9 32 -7 7 -9 16 -5 20 3 3 6 0 6 -8 0 -12 2 -11 11 1 10
13 10 13 6 -1 -3 -8 3 -21 14 -27 22 -14 24 -9 7 18 -11 17 -10 22 1 29 8 5 9
11 3 15 -6 3 -13 2 -17 -4 -3 -5 -11 -10 -18 -10 -6 0 -2 6 9 14 13 10 23 11
32 4 7 -6 16 -8 19 -4 4 4 2 11 -6 15 -16 10 12 23 33 15 8 -3 17 0 22 7 4 7
3 10 -2 6 -6 -3 -16 -2 -23 2 -9 6 -4 9 13 9 15 0 27 -6 27 -14 1 -8 2 -20 3
-26 0 -7 10 -14 21 -16 16 -3 17 -1 5 7 -8 6 -10 11 -4 11 5 0 14 -4 20 -9 19
-18 51 -22 51 -6 0 10 -6 14 -15 10 -19 -7 -32 3 -26 20 4 8 10 12 15 9 5 -3
9 0 9 5 0 6 -4 11 -10 11 -5 0 -14 10 -21 21 -9 17 -8 20 2 14 9 -6 11 -3 6 9
-4 10 -3 15 4 11 5 -4 7 -16 3 -27 -4 -13 -2 -18 4 -14 11 7 25 -21 16 -35 -3
-5 -1 -9 5 -9 19 0 22 20 7 49 -15 29 -15 29 11 26 32 -3 55 4 48 15 -3 5 -2
16 1 25 6 15 8 14 25 -1 21 -19 26 -6 7 16 -11 12 -10 12 5 0 10 -7 16 -19 13
-27 -3 -7 -4 -13 -2 -13 3 0 12 -3 21 -7 15 -5 16 -3 6 15 -7 13 -8 22 -2 22
5 0 11 -8 13 -17 3 -14 8 -10 21 15 10 17 20 32 23 32 2 0 0 -9 -6 -19 -8 -16
-5 -23 20 -41 17 -12 30 -17 30 -11 0 6 -9 15 -20 21 -11 6 -20 16 -20 23 0 7
3 8 8 2 4 -5 15 -16 25 -24 15 -12 17 -11 15 9 -2 13 3 25 10 27 6 3 12 0 12
-7 0 -6 -4 -8 -10 -5 -12 7 -12 3 -4 -19 6 -16 25 -23 23 -8 -5 29 3 32 30 10
20 -16 26 -27 18 -35 -15 -20 7 -15 24 5 23 27 29 48 16 61 -17 17 -31 13 -17
-4 22 -26 -4 -43 -30 -20 -11 10 -20 23 -20 28 0 6 9 0 20 -13 11 -13 23 -20
27 -17 3 4 -3 17 -15 30 -12 13 -22 30 -21 38 0 8 4 6 9 -6 5 -11 9 -16 9 -12z
m-285 -3384 c33 -15 40 -36 16 -49 -11 -6 -17 -16 -14 -25 4 -8 1 -15 -5 -15
-6 0 -11 5 -11 11 0 5 -5 7 -11 3 -16 -10 15 -26 35 -18 14 5 14 9 4 23 -11
14 -11 14 4 3 11 -9 18 -10 23 -2 8 14 25 3 25 -16 0 -11 -6 -13 -19 -9 -16 5
-20 1 -20 -17 -1 -56 -2 -57 -32 -56 -16 1 -29 5 -29 10 0 5 5 6 12 2 8 -5 9
-1 5 12 -7 18 -6 18 7 2 18 -24 29 -23 17 1 -6 10 -7 22 -3 26 4 5 -1 5 -11 2
-12 -5 -16 -3 -11 5 5 8 1 9 -12 4 -10 -4 -23 -8 -28 -9 -13 -3 -17 51 -5 58
5 4 9 11 9 18 0 8 -3 8 -12 -1 -7 -7 -17 -12 -22 -12 -6 0 -3 5 6 11 10 5 15
17 12 27 -5 16 -5 16 6 0 9 -15 14 -16 30 -6 14 9 16 14 7 20 -18 12 -1 10 27
-3z m1634 -1150 c10 -16 17 -18 25 -10 14 14 27 14 27 1 0 -5 -6 -9 -12 -7 -7
1 -12 -6 -10 -15 1 -9 -2 -19 -8 -23 -5 -3 -10 -11 -10 -17 0 -7 5 -6 15 2 12
10 16 9 21 -5 9 -24 -9 -51 -32 -47 -15 3 -16 1 -5 -12 7 -9 17 -14 21 -11 4
3 11 -2 14 -11 6 -15 4 -15 -19 0 -14 9 -25 12 -25 7 0 -6 8 -15 18 -20 15 -9
16 -10 0 -11 -9 0 -20 9 -23 20 -4 11 -11 18 -16 14 -7 -4 -6 -10 0 -18 6 -7
6 -17 1 -26 -10 -15 -15 -3 -11 22 2 13 -43 2 -47 -10 -2 -8 3 -10 15 -6 15 5
15 4 3 -5 -13 -9 -12 -11 5 -12 11 0 14 -3 7 -6 -7 -3 -19 0 -26 6 -16 13 -27
4 -19 -15 3 -8 1 -14 -5 -14 -14 0 -10 22 11 53 22 34 22 34 -14 52 -24 13
-28 19 -19 30 7 8 8 20 4 27 -5 10 -4 10 6 1 11 -10 11 -15 0 -28 -7 -8 -8
-15 -2 -15 12 0 34 25 27 32 -10 9 17 58 28 51 6 -4 8 0 4 10 -3 10 -2 17 2
17 13 0 21 -28 14 -47 -4 -11 -3 -14 5 -9 7 4 10 2 6 -7 -3 -8 1 -14 10 -14 8
0 14 9 13 19 -1 10 -5 18 -9 18 -4 0 -5 9 -3 20 2 11 0 20 -6 20 -5 0 -9 5 -9
10 0 17 14 11 28 -11z m2342 -1054 c0 -5 -4 -5 -8 2 -6 9 -11 7 -19 -6 -10
-16 -9 -19 5 -16 9 2 20 4 25 4 4 1 7 7 7 15 0 8 4 18 10 21 15 10 -1 -28 -18
-43 -16 -12 -23 -30 -25 -69 0 -12 -4 -20 -8 -17 -4 2 -10 -3 -13 -12 -4 -12
-2 -15 9 -10 8 3 15 1 15 -4 0 -6 -7 -10 -16 -10 -8 0 -12 -4 -9 -10 9 -15 19
-12 43 10 12 12 22 16 22 11 0 -6 -9 -15 -19 -21 -11 -5 -27 -17 -35 -26 -9
-8 -17 -11 -17 -5 -1 6 -3 16 -4 21 -1 6 -3 13 -4 18 -1 4 -5 0 -11 -8 -5 -9
-5 -19 2 -28 8 -9 8 -16 0 -24 -7 -7 -12 -8 -12 -4 0 5 -7 3 -14 -4 -10 -8
-21 -8 -32 -2 -11 6 -13 11 -5 16 6 4 11 2 11 -4 0 -7 6 -8 19 -1 10 6 21 7
25 4 3 -3 6 -1 6 5 0 15 -17 24 -25 13 -3 -6 -12 -8 -19 -5 -7 3 -19 -2 -26
-10 -7 -9 -16 -13 -21 -10 -5 3 2 15 16 27 19 17 23 25 14 37 -9 13 -10 13 -6
0 3 -13 -14 -40 -27 -40 -2 0 -4 9 -3 20 1 11 6 20 11 20 5 0 6 3 3 6 -13 14
-37 -17 -27 -36 6 -11 5 -21 -3 -30 -9 -10 -9 -11 2 -5 10 6 12 4 6 -5 -6 -9
-4 -11 5 -5 8 5 11 4 7 -2 -3 -5 0 -10 8 -10 8 0 11 5 8 11 -3 6 0 5 7 -1 15
-14 10 -23 -12 -27 -7 -1 -19 -5 -26 -10 -7 -4 -16 -5 -19 -2 -4 3 -1 6 6 6 7
0 10 4 6 10 -3 5 -13 6 -23 3 -14 -5 -13 -2 3 11 l20 18 -20 -6 c-19 -6 -19
-5 -2 8 17 14 24 32 8 22 -8 -5 -8 15 -1 34 1 3 2 9 1 13 -1 5 3 6 9 2 13 -8
13 1 -1 27 -7 13 -7 18 -1 14 6 -3 13 -2 17 4 3 5 1 10 -5 10 -6 0 -8 5 -4 11
4 8 9 7 15 -2 4 -7 11 -10 15 -6 4 3 1 13 -6 22 -11 13 -10 14 6 8 17 -6 17
-5 5 10 -12 15 -12 17 3 11 15 -6 21 5 17 29 -1 5 3 6 9 2 6 -3 8 -10 5 -15
-3 -5 0 -12 7 -16 7 -4 10 -4 6 1 -4 4 -2 15 5 23 9 13 9 14 0 8 -7 -4 -13 -2
-13 3 0 6 7 11 16 11 8 0 12 5 9 10 -3 6 1 13 9 16 9 3 13 11 9 17 -3 6 10 -3
30 -19 20 -16 37 -33 37 -39z m-1439 -325 c6 0 7 4 4 10 -4 6 1 7 11 3 11 -4
13 -8 6 -11 -7 -2 -9 -8 -6 -13 4 -6 11 -6 19 1 8 7 16 7 19 2 3 -6 -1 -15 -9
-22 -17 -14 -21 -55 -5 -45 6 4 8 10 5 15 -3 5 0 12 7 16 7 4 10 4 6 -1 -4 -4
-3 -16 3 -26 7 -15 6 -17 -5 -13 -11 4 -14 0 -11 -15 2 -12 0 -19 -4 -16 -18
11 -33 -23 -21 -47 9 -19 9 -21 -2 -7 -7 9 -21 15 -31 13 -15 -2 -16 0 -6 12
18 22 -4 40 -24 20 -11 -12 -17 -13 -20 -3 -2 6 -4 -2 -3 -20 0 -17 5 -29 10
-26 5 4 6 0 1 -7 -6 -9 -4 -11 6 -5 11 7 11 5 -1 -10 -14 -17 -14 -18 8 -6
l23 12 -22 17 c-20 17 -20 19 -3 32 16 14 17 13 11 -3 -4 -11 -1 -20 7 -23 8
-3 14 -14 13 -24 -1 -10 -5 -16 -9 -14 -4 3 -9 0 -9 -5 -4 -29 -28 -80 -28
-60 -1 9 2 19 6 23 12 12 11 35 -1 30 -7 -3 -13 -10 -14 -17 0 -7 -3 -24 -5
-39 -4 -29 5 -42 38 -52 12 -3 9 -4 -7 -2 -16 2 -33 -3 -40 -12 -11 -13 -9
-14 11 -7 16 5 21 4 17 -4 -4 -6 -15 -11 -24 -11 -10 0 -18 -8 -19 -18 -1 -10
5 -19 13 -19 9 0 13 6 9 16 -3 11 -1 10 10 -3 17 -22 9 -42 -10 -26 -8 6 -16
7 -19 2 -3 -5 -15 -12 -26 -15 -12 -3 -17 -1 -14 5 10 15 -30 5 -42 -12 -10
-12 -16 -13 -38 0 -22 11 -28 11 -39 0 -10 -10 -9 -12 5 -7 9 3 23 -2 33 -13
10 -11 22 -17 28 -13 6 3 7 1 3 -5 -8 -13 -46 5 -46 21 0 4 -5 5 -10 2 -7 -5
-8 -11 -1 -19 5 -6 6 -18 2 -25 -9 -14 -26 13 -22 36 1 6 -5 10 -13 9 -19 -3
-33 -16 -18 -16 7 0 12 -5 12 -11 0 -8 -5 -8 -15 1 -11 9 -15 9 -15 1 0 -7 -5
-9 -11 -5 -8 5 -8 9 1 14 9 6 9 9 1 15 -9 5 -9 10 0 21 6 7 15 12 19 9 9 -6
23 25 15 33 -3 3 -5 -1 -5 -8 0 -11 -3 -11 -12 -2 -9 9 -15 9 -26 -1 -12 -10
-14 -9 -10 3 3 9 16 15 34 14 16 0 33 4 37 10 5 6 5 1 2 -11 -4 -14 -2 -23 5
-23 6 0 8 5 4 12 -4 7 -3 8 5 4 6 -4 9 -12 6 -17 -7 -11 -3 -11 19 -3 22 8 20
25 -1 17 -14 -4 -15 -3 -7 6 13 15 47 3 37 -13 -13 -19 -12 -36 1 -36 8 0 12
12 11 30 -1 16 2 27 7 24 12 -8 9 9 -6 29 -12 15 -14 16 -20 2 -3 -8 -11 -15
-17 -15 -9 0 -8 4 0 14 10 11 8 17 -6 25 -16 9 -16 12 -3 20 8 6 16 15 16 21
1 5 2 14 3 19 1 12 50 20 57 10 3 -5 -2 -9 -10 -9 -9 0 -16 -5 -16 -11 0 -10
14 -5 40 16 18 15 52 16 47 1 -2 -6 -11 -10 -21 -8 -20 4 -21 -21 -1 -38 14
-11 14 -14 0 -24 -9 -6 -18 -20 -20 -31 -2 -11 -4 -22 -4 -25 -1 -3 -5 1 -9 8
-6 9 -12 5 -20 -15 -11 -26 -11 -27 3 -9 8 11 15 14 15 8 0 -7 5 -12 10 -12 6
0 9 4 8 9 -2 5 5 16 15 23 10 7 19 20 20 28 2 8 6 20 10 26 4 7 -1 14 -13 17
-11 3 -20 10 -20 16 0 13 22 10 32 -4 4 -5 6 4 5 20 -2 19 -8 30 -17 30 -8 0
-15 5 -15 12 0 7 -9 19 -20 28 -20 16 -20 16 2 6 27 -14 33 -14 33 -1 0 6 -7
10 -15 10 -8 0 -15 5 -15 10 0 7 6 7 18 2 19 -11 45 -5 37 8 -3 5 -13 7 -23 4
-14 -5 -13 -2 3 11 12 11 16 19 9 22 -7 2 1 16 18 33 16 17 26 35 23 41 -4 6
-15 -2 -27 -21 -10 -18 -22 -30 -25 -26 -3 3 -11 1 -18 -4 -8 -7 -12 -5 -12 4
0 9 8 13 19 11 14 -3 24 8 40 41 21 41 38 57 38 33 0 -5 4 -8 9 -5 5 3 8 14 6
24 -1 9 0 11 2 5 3 -7 9 -13 14 -13z m-219 -164 c7 4 8 2 4 -5 -4 -6 -11 -9
-15 -7 -4 3 -13 1 -21 -4 -12 -7 -11 -10 5 -16 11 -4 23 -12 27 -18 10 -15 70
-15 64 0 -3 8 0 11 9 8 11 -5 12 -12 6 -43 -1 -2 -7 1 -13 6 -24 18 -77 0 -74
-25 2 -9 -4 -23 -13 -29 -15 -12 -14 -14 1 -26 10 -8 15 -17 11 -21 -3 -3 -15
1 -24 10 -18 16 -18 18 3 47 12 17 16 27 7 22 -12 -8 -12 -6 0 8 9 11 10 17 2
17 -6 0 -11 -4 -11 -9 0 -6 -9 -8 -20 -6 -12 2 -18 0 -15 -6 4 -5 10 -7 15 -4
5 3 12 0 15 -6 5 -7 -1 -9 -16 -7 -17 2 -24 -2 -23 -14 1 -12 -5 -15 -27 -13
-16 2 -31 0 -34 -5 -3 -6 1 -7 10 -4 11 5 14 2 9 -9 -3 -9 -13 -14 -22 -10
-13 4 -14 3 -3 -5 8 -6 10 -15 6 -23 -6 -9 -11 -6 -17 11 -10 26 16 64 38 56
7 -3 18 2 24 9 10 12 9 16 -4 21 -15 6 -14 10 9 34 14 14 22 30 18 35 -5 4 -2
5 5 1 11 -7 17 5 13 28 -1 5 5 6 14 3 8 -4 15 -1 16 6 0 9 2 9 6 -1 2 -6 10
-9 15 -6z"/>
</g>
</svg>
