<?xml version="1.0" standalone="no"?>
<!DOCTYPE svg PUBLIC "-//W3C//DTD SVG 20010904//EN"
 "http://www.w3.org/TR/2001/REC-SVG-20010904/DTD/svg10.dtd">
<svg version="1.0" xmlns="http://www.w3.org/2000/svg"
 width="1024.000000pt" height="1024.000000pt" viewBox="0 0 1024.000000 1024.000000"
 preserveAspectRatio="xMidYMid meet">
<metadata>
Created by potrace 1.16, written by Peter Selinger 2001-2019
</metadata>
<g transform="translate(0.000000,1024.000000) scale(0.100000,-0.100000)"
fill="#000000" stroke="none">
<path d="M5295 9571 c-3 -5 -1 -12 5 -16 6 -4 8 -11 5 -16 -3 -5 0 -7 7 -6 7
2 9 2 5 -1 -4 -2 -3 -10 4 -18 7 -8 7 -14 1 -14 -5 0 -13 7 -16 16 -5 14 -9
14 -23 3 -12 -10 -14 -10 -9 -1 4 6 3 12 -2 12 -6 0 -13 -7 -16 -16 -3 -8 -11
-12 -17 -8 -8 4 -9 3 -5 -4 4 -7 4 -12 -1 -12 -4 0 -14 -13 -21 -30 -8 -16
-18 -30 -24 -30 -6 0 -3 9 7 20 29 32 10 23 -25 -11 -19 -19 -29 -38 -25 -47
5 -13 3 -13 -12 -1 -11 9 -14 10 -9 2 4 -7 2 -13 -3 -13 -6 0 -10 -5 -8 -12 1
-7 -4 -12 -10 -13 -15 0 -18 -13 -7 -23 4 -4 5 -2 1 3 -3 6 6 11 21 12 l27 2
-25 -11 c-14 -6 -27 -12 -30 -13 -39 -14 -41 -17 -23 -32 10 -8 12 -12 6 -8
-7 3 -13 1 -13 -4 0 -6 -7 -11 -15 -11 -8 0 -14 -3 -14 -7 1 -5 0 -11 -1 -15
-1 -5 -3 -14 -4 -20 -1 -7 -7 -12 -14 -11 -7 2 -9 -4 -5 -14 5 -12 3 -14 -7
-8 -8 5 -11 4 -6 -3 4 -6 14 -9 24 -6 9 2 4 -2 -13 -10 -16 -8 -30 -18 -30
-23 0 -4 -4 -14 -8 -20 -5 -7 -5 -18 -1 -25 5 -7 2 -9 -9 -5 -9 3 -18 -1 -21
-9 -10 -25 -7 -27 12 -13 15 12 16 12 5 -2 -7 -9 -9 -19 -5 -24 4 -4 -4 -2
-18 5 l-25 13 20 -24 c16 -18 16 -21 2 -10 -9 8 -19 12 -22 10 -6 -6 -17 -60
-18 -91 0 -15 -4 -25 -8 -22 -4 2 -11 -1 -15 -7 -5 -8 1 -10 20 -7 15 3 24 2
19 -3 -4 -4 -20 -9 -35 -11 -28 -4 -51 -18 -29 -18 7 0 9 -5 4 -12 -4 -7 -8
-16 -9 -20 -1 -5 -2 -11 -3 -15 0 -3 -10 2 -20 11 -12 11 -21 14 -26 7 -3 -6
-12 -11 -18 -10 -8 0 -8 2 1 6 10 4 10 8 0 21 -11 15 -11 15 2 5 33 -25 90 51
63 84 -8 10 -12 12 -8 5 4 -7 1 -20 -7 -29 -11 -14 -11 -16 0 -9 11 7 12 4 3
-12 -13 -24 -38 -35 -47 -21 -3 6 -3 13 0 16 3 4 6 1 6 -5 0 -6 7 -9 15 -6 8
4 15 10 15 16 0 5 -4 6 -10 3 -5 -3 -10 -2 -10 3 0 6 7 12 15 16 8 3 15 11 15
18 0 8 -3 9 -8 3 -10 -14 -42 -18 -42 -5 0 6 4 9 9 6 9 -6 51 26 51 39 0 4 -7
5 -15 2 -21 -9 -30 12 -12 30 10 10 17 11 21 4 4 -6 0 -11 -8 -11 -9 0 -16 -5
-16 -10 0 -7 6 -7 19 0 25 13 41 13 21 0 -9 -6 -10 -10 -3 -10 6 0 10 -8 8
-18 -6 -31 9 -44 24 -21 10 17 10 20 -1 14 -7 -3 -4 1 6 9 11 9 14 16 8 16 -7
0 -12 5 -12 11 0 5 5 7 12 3 7 -4 8 -3 4 4 -4 6 -13 9 -21 5 -8 -3 -15 0 -15
7 0 6 -4 9 -9 5 -5 -3 -13 -1 -16 5 -5 8 -11 7 -21 -1 -11 -9 -15 -8 -20 6 -6
16 -8 16 -16 1 -5 -9 -14 -16 -19 -16 -6 0 -7 5 -3 12 4 7 3 8 -5 4 -9 -6 -9
-11 1 -24 10 -12 10 -14 1 -8 -29 17 -52 15 -48 -5 3 -16 1 -18 -17 -8 -16 9
-19 8 -13 -2 6 -9 3 -11 -9 -6 -9 4 -15 3 -12 -1 3 -5 -8 -16 -25 -26 -16 -9
-29 -14 -29 -10 0 4 -8 0 -18 -9 -10 -10 -21 -15 -24 -12 -3 3 -11 -1 -18 -10
-11 -13 -10 -15 1 -12 8 2 11 2 6 0 -4 -3 -4 -9 -1 -15 4 -6 -2 -6 -14 1 -18
10 -20 8 -17 -9 2 -11 -1 -23 -7 -26 -7 -4 -8 -2 -4 4 4 7 2 12 -3 12 -6 0
-11 -6 -11 -14 0 -7 -8 -20 -17 -27 -17 -13 -17 -13 -3 5 14 18 14 19 -8 7
-18 -9 -21 -16 -13 -25 9 -10 5 -13 -15 -10 -19 2 -28 -3 -31 -17 -3 -10 -10
-16 -16 -12 -7 4 -8 0 -3 -12 5 -15 4 -16 -9 -5 -11 9 -15 9 -15 1 0 -7 -4 -9
-10 -6 -5 3 -8 0 -5 -7 9 -25 -11 -44 -31 -27 -15 13 -16 12 -9 -11 7 -21 6
-23 -6 -13 -10 8 -19 9 -29 1 -12 -8 -11 -9 4 -4 16 5 17 4 6 -9 -7 -8 -16
-13 -20 -10 -4 2 -16 -5 -26 -17 -11 -12 -14 -18 -7 -15 8 5 11 0 10 -12 -1
-16 -4 -18 -16 -8 -12 10 -14 9 -8 -7 6 -14 4 -17 -10 -12 -14 6 -15 5 -6 -5
10 -10 9 -15 -5 -26 -15 -12 -14 -13 13 -8 l30 5 -28 -11 c-23 -9 -28 -16 -24
-35 5 -27 -7 -41 -19 -23 -5 8 -3 9 6 4 9 -6 11 -4 6 4 -13 20 -19 4 -20 -54
-1 -45 -4 -54 -16 -50 -9 3 -7 -1 4 -10 18 -13 15 -20 -7 -16 -4 1 -3 -8 3
-19 6 -11 15 -18 21 -15 5 4 7 10 4 15 -3 4 3 14 13 21 15 13 16 12 3 -3 -7
-10 -10 -18 -6 -18 4 0 2 -7 -5 -15 -7 -8 -16 -12 -21 -9 -18 11 -29 -7 -18
-28 8 -15 8 -19 0 -14 -10 7 -16 -17 -12 -54 2 -12 0 -12 -7 -1 -7 9 -12 10
-16 2 -4 -6 -4 -11 -1 -11 4 0 -1 -7 -9 -16 -18 -18 -22 -39 -4 -28 7 4 8 3 4
-4 -4 -7 -14 -12 -22 -12 -8 0 -13 -3 -12 -7 1 -5 -3 -18 -10 -30 -7 -13 -9
-23 -5 -23 4 0 1 -5 -7 -11 -13 -9 -13 -10 0 -6 8 2 15 9 15 15 0 5 3 13 7 17
15 16 0 -26 -16 -44 -10 -11 -16 -28 -14 -38 2 -10 -3 -24 -12 -31 -8 -8 -9
-11 -2 -7 15 8 15 0 2 -25 -9 -16 -8 -18 6 -13 14 5 14 3 -2 -15 -20 -24 -30
-29 -18 -10 4 7 3 8 -4 4 -9 -5 -9 -13 -1 -28 7 -13 7 -18 1 -14 -6 3 -13 2
-17 -4 -3 -5 -1 -10 4 -10 6 0 11 -5 11 -11 0 -5 -5 -7 -12 -3 -8 5 -9 2 -5
-9 4 -12 1 -17 -11 -17 -13 0 -14 -2 -4 -9 11 -7 11 -9 -2 -14 -9 -4 -13 -13
-10 -22 3 -8 1 -15 -4 -15 -6 0 -9 -9 -7 -20 2 -11 1 -20 -3 -20 -4 0 -9 -12
-10 -26 -1 -15 -7 -33 -13 -40 -6 -8 -8 -14 -3 -14 5 0 1 -5 -9 -11 -14 -8
-16 -14 -6 -25 9 -11 8 -15 -5 -20 -15 -6 -15 -8 1 -20 16 -13 16 -13 1 -8
-16 6 -34 -47 -28 -80 1 -5 -3 -12 -9 -15 -5 -4 -12 -21 -16 -38 -3 -18 -9
-42 -14 -55 -4 -13 -6 -29 -3 -37 2 -8 0 -11 -5 -8 -6 4 -9 -4 -7 -18 1 -14
-2 -25 -7 -25 -5 0 -9 -5 -9 -11 0 -5 4 -8 9 -5 4 3 5 -9 1 -27 -4 -19 -12
-31 -20 -29 -11 3 -11 0 0 -12 10 -13 10 -16 0 -16 -8 0 -10 -3 -7 -7 4 -3 0
-14 -9 -24 -12 -13 -12 -19 -3 -25 8 -5 10 -3 4 6 -5 9 -4 11 4 6 6 -4 9 -12
5 -17 -3 -5 -10 -7 -15 -4 -5 4 -9 1 -9 -5 0 -6 -5 -8 -12 -4 -6 4 -9 3 -5 -2
9 -16 -21 -47 -39 -40 -12 4 -15 2 -10 -9 7 -19 -17 -15 -26 5 -5 12 -7 11 -7
-3 -1 -10 -5 -15 -11 -12 -5 3 -10 0 -10 -7 0 -9 -3 -9 -8 -2 -8 12 -46 28
-38 16 3 -4 -4 -13 -14 -20 -12 -7 -21 -8 -25 -2 -3 6 -11 10 -16 10 -6 0 -8
-4 -5 -9 7 -11 -21 -8 -31 4 -4 4 -2 5 6 0 10 -6 12 -4 7 4 -6 9 -11 9 -23 -1
-18 -15 -43 -20 -43 -8 0 4 -7 10 -14 13 -11 4 -13 1 -9 -11 6 -15 5 -15 -10
-3 -14 11 -17 11 -17 0 -1 -10 -4 -9 -11 3 -7 14 -15 15 -34 8 -18 -7 -25 -6
-25 3 0 8 -4 7 -10 -3 -5 -8 -10 -10 -10 -5 0 16 -54 12 -68 -5 -9 -11 -12
-12 -10 -1 2 8 -6 14 -19 16 -26 2 -29 -5 -10 -24 10 -11 8 -11 -10 0 -12 7
-19 19 -16 28 3 10 2 12 -4 5 -13 -17 -41 -24 -47 -11 -4 7 -4 2 -2 -10 2 -13
-1 -26 -7 -30 -7 -3 -9 -3 -5 2 4 4 3 16 -3 26 -9 18 -11 18 -37 2 -21 -14
-24 -14 -15 -2 10 12 8 15 -7 15 -10 0 -16 -4 -14 -8 3 -4 1 -8 -5 -8 -5 0
-13 5 -16 10 -4 7 -12 7 -25 0 -22 -12 -33 -13 -26 -2 2 4 -20 6 -51 4 -30 -2
-53 1 -50 5 3 5 -3 10 -14 10 -10 1 -19 -2 -19 -8 0 -5 -5 -9 -11 -9 -5 0 -7
5 -3 12 8 13 -10 4 -41 -21 -18 -15 -19 -15 -6 2 12 15 12 20 1 30 -10 9 -11
9 -6 0 4 -7 4 -13 -1 -14 -4 0 -16 -2 -26 -4 -9 -2 -15 1 -12 5 3 5 1 11 -5
15 -5 3 -10 -1 -10 -9 0 -9 -4 -16 -9 -16 -6 0 -8 9 -6 21 4 17 2 19 -10 9
-11 -9 -15 -9 -15 -1 0 6 -7 11 -15 11 -8 0 -15 -5 -15 -11 0 -5 -5 -7 -10 -4
-6 4 -8 11 -5 16 3 5 -2 6 -11 2 -10 -4 -15 -2 -11 3 8 14 -34 15 -50 2 -8 -6
-16 -8 -20 -4 -3 3 -1 6 5 6 7 0 12 4 12 9 0 5 -9 7 -20 4 -11 -3 -20 -10 -20
-17 0 -6 -11 1 -24 15 -24 26 -86 31 -86 6 0 -6 -3 -7 -6 -4 -4 4 -2 13 4 20
9 11 3 13 -31 14 -23 0 -46 -4 -50 -11 -6 -7 -7 -5 -4 6 8 25 -17 42 -33 23
-7 -8 -18 -15 -24 -14 -7 0 -6 2 2 6 21 8 13 21 -13 19 -13 -2 -22 1 -19 5 3
5 -2 9 -10 9 -9 0 -16 5 -16 10 0 6 -11 10 -25 10 -19 0 -25 5 -25 22 0 21 0
21 -15 2 -13 -18 -14 -18 -10 7 3 18 0 26 -10 26 -8 0 -12 -4 -9 -9 3 -4 0 -8
-6 -8 -7 0 -9 7 -6 16 4 10 -3 25 -18 39 l-24 22 -11 -21 c-7 -14 -10 -16 -8
-4 2 19 -2 22 -25 13 -9 -4 -15 -12 -12 -19 2 -6 -3 -20 -11 -31 -16 -19 -16
-19 -5 3 6 12 7 22 3 22 -13 0 -32 -50 -26 -67 5 -12 3 -14 -7 -8 -10 6 -12 4
-7 -9 5 -12 0 -19 -16 -26 -22 -9 -22 -9 3 -10 19 0 22 -2 10 -9 -8 -6 -19 -7
-25 -4 -5 4 -1 -4 10 -17 11 -13 14 -20 7 -16 -19 11 -7 -41 14 -65 9 -11 13
-19 8 -19 -5 0 -1 -5 9 -11 9 -5 23 -7 30 -4 6 4 3 -1 -8 -10 -20 -17 -20 -17
3 -10 16 5 22 3 20 -7 -2 -7 3 -12 10 -11 6 2 12 -2 12 -7 0 -6 7 -10 16 -10
9 0 12 -5 8 -12 -5 -8 -1 -7 10 2 14 11 15 15 5 18 -8 2 -21 6 -29 9 -8 4 -19
5 -25 4 -5 -2 -6 1 -2 5 11 11 38 14 31 3 -3 -5 4 -9 15 -9 23 0 36 -16 21
-25 -5 -3 -10 -11 -10 -17 0 -7 5 -6 14 1 15 13 43 -19 29 -33 -3 -3 -1 -6 5
-6 7 0 12 6 12 13 1 6 6 2 13 -11 10 -18 15 -20 26 -10 8 8 11 8 8 2 -4 -7 3
-14 16 -18 32 -8 39 -7 31 6 -5 7 -3 8 6 3 10 -6 9 -11 -6 -22 -18 -13 -17
-14 7 -8 15 4 30 2 33 -4 5 -7 0 -9 -11 -5 -15 5 -15 4 -3 -4 9 -7 19 -7 26
-2 12 11 24 3 24 -14 0 -6 -5 -4 -10 4 -5 8 -10 10 -10 4 0 -25 41 -37 68 -20
9 6 12 3 10 -9 -2 -13 4 -19 20 -20 15 -1 21 3 18 12 -3 7 -1 13 4 13 6 0 10
-7 10 -15 0 -8 7 -15 16 -15 9 0 12 -5 8 -12 -4 -7 3 -4 16 7 18 15 22 16 18
4 -5 -12 2 -15 33 -14 27 1 43 -4 50 -14 8 -13 9 -11 4 7 -4 13 -2 22 4 22 6
0 10 -3 10 -7 -3 -20 2 -31 17 -37 8 -3 12 -2 9 4 -8 13 2 13 28 -2 24 -13 28
-14 70 -16 19 -2 26 -6 21 -14 -4 -7 -3 -10 1 -5 5 4 19 0 32 -9 20 -13 27
-13 41 -2 10 8 13 9 9 1 -4 -6 -3 -14 3 -18 5 -3 10 -1 10 5 0 6 20 -1 45 -14
25 -14 52 -23 60 -20 12 5 14 2 8 -12 -6 -17 -5 -17 10 -5 9 7 17 9 17 4 0 -5
9 -9 20 -10 20 -2 20 -1 2 15 -10 9 -12 13 -5 8 7 -4 19 -6 27 -3 10 4 13 1 9
-9 -3 -7 0 -14 7 -14 6 0 8 -5 4 -12 -6 -10 -5 -10 7 -1 16 13 36 12 58 -1 10
-7 12 -5 6 5 -5 8 2 5 14 -5 22 -20 22 -20 15 0 -7 17 -6 17 9 5 9 -7 14 -18
11 -25 -3 -6 2 -2 10 8 14 17 20 16 18 -4 0 -3 13 -6 29 -5 16 0 29 4 29 9 0
6 6 2 13 -9 11 -14 16 -15 22 -5 6 9 4 11 -5 5 -9 -6 -11 -4 -6 4 6 9 13 8 29
-6 20 -17 20 -17 13 1 -6 16 -4 17 10 5 19 -15 54 -20 54 -6 0 5 6 4 13 -2 8
-6 17 -8 20 -4 4 3 7 0 7 -8 0 -11 2 -11 10 1 8 13 10 13 10 1 0 -11 3 -12 11
-4 9 9 18 7 37 -5 15 -10 23 -11 19 -4 -5 6 -4 12 2 12 6 0 11 -5 11 -11 0 -5
4 -8 9 -5 5 4 12 0 14 -6 3 -8 6 -9 6 -2 1 14 51 6 51 -8 0 -5 5 -6 10 -3 6 4
8 11 5 16 -10 15 2 10 16 -8 12 -15 12 -16 -1 -8 -11 6 -12 5 -4 -4 6 -7 21
-13 33 -14 22 -1 28 -12 11 -22 -6 -4 -7 -13 -1 -23 9 -19 4 -45 -9 -37 -4 3
-6 -4 -3 -15 3 -11 0 -20 -6 -20 -6 0 -11 -14 -11 -31 0 -21 -4 -28 -12 -23
-10 6 -10 5 -1 -7 13 -16 -7 -55 -22 -41 -5 4 -5 2 -1 -5 10 -18 -4 -64 -18
-56 -6 4 -5 0 2 -9 11 -14 9 -19 -10 -32 -15 -11 -17 -16 -8 -16 13 0 13 -2 0
-10 -8 -5 -10 -10 -5 -10 6 0 4 -4 -4 -9 -8 -5 -16 -17 -17 -26 -1 -9 -6 -24
-10 -33 -11 -25 -11 -36 -1 -50 7 -9 5 -11 -8 -6 -14 6 -16 3 -10 -15 4 -12 2
-28 -5 -36 -6 -8 -9 -19 -5 -25 3 -5 2 -10 -4 -10 -6 0 -7 -7 -4 -17 4 -10 2
-14 -4 -10 -5 3 -10 0 -10 -8 0 -8 5 -15 11 -15 6 0 5 -4 -3 -9 -7 -5 -11 -15
-9 -22 3 -8 -2 -20 -11 -26 -14 -11 -14 -14 -1 -23 12 -7 12 -10 1 -10 -8 0
-11 -6 -7 -16 3 -8 2 -13 -3 -10 -5 3 -14 -1 -20 -8 -9 -11 -9 -16 0 -22 9 -5
7 -11 -6 -21 -11 -7 -13 -13 -6 -13 7 0 9 -5 6 -10 -4 -6 -10 -8 -14 -6 -4 3
-6 -9 -5 -26 3 -40 -5 -60 -20 -51 -6 4 -3 -5 6 -19 16 -25 16 -27 0 -40 -16
-12 -16 -11 -2 7 14 19 14 19 -3 6 -11 -9 -14 -18 -8 -24 6 -6 4 -22 -6 -45
-13 -32 -13 -35 0 -24 12 10 17 10 23 1 4 -7 3 -10 -2 -7 -5 3 -15 0 -22 -8
-7 -8 -9 -14 -5 -14 4 0 1 -5 -7 -10 -13 -9 -13 -10 0 -10 10 0 7 -7 -10 -21
-14 -11 -19 -17 -11 -13 11 6 12 0 6 -32 -5 -21 -9 -49 -9 -61 -1 -13 -5 -23
-9 -23 -4 0 -4 -8 2 -17 7 -13 5 -23 -7 -37 -13 -15 -13 -17 -2 -11 13 8 13 6
1 -8 -7 -9 -11 -28 -9 -42 3 -14 2 -25 -2 -25 -3 0 -5 -13 -2 -29 2 -16 -1
-32 -7 -35 -14 -9 -14 -26 0 -26 5 0 7 5 3 12 -5 7 -3 8 6 3 10 -6 9 -11 -4
-21 -13 -9 -14 -13 -4 -17 11 -4 11 -6 0 -6 -7 -1 -10 -5 -7 -11 3 -5 0 -10
-7 -10 -9 0 -9 -3 2 -10 9 -6 11 -10 3 -10 -7 0 -10 -7 -7 -15 4 -9 0 -15 -7
-15 -11 0 -11 -3 1 -10 12 -8 12 -10 1 -10 -11 0 -11 -3 0 -17 8 -9 9 -14 3
-10 -13 7 -27 -17 -16 -27 8 -9 10 -46 1 -41 -4 3 -10 -2 -13 -11 -5 -12 -2
-15 11 -10 15 5 15 4 -1 -9 -12 -9 -15 -15 -7 -15 11 0 11 -3 0 -16 -10 -13
-10 -17 2 -25 11 -7 11 -9 0 -9 -9 0 -12 -9 -9 -30 4 -24 1 -30 -10 -25 -12 4
-12 3 -3 -9 7 -8 8 -15 2 -18 -5 -1 -12 -15 -15 -30 -2 -15 -8 -33 -12 -39 -4
-8 -3 -9 4 -5 16 10 15 -7 0 -23 -11 -11 -8 -12 12 -6 24 7 24 6 6 -7 -14 -11
-16 -17 -7 -22 9 -6 8 -13 -5 -28 -14 -15 -15 -21 -6 -27 7 -4 10 -15 6 -24
-3 -9 -11 -14 -18 -10 -6 4 -5 -1 3 -10 10 -13 10 -17 1 -17 -10 0 -10 -3 0
-15 10 -12 10 -15 0 -15 -8 0 -10 -3 -7 -7 4 -3 2 -12 -4 -19 -6 -8 -9 -21 -5
-29 3 -8 1 -15 -4 -15 -5 0 -7 -10 -5 -21 3 -12 1 -27 -3 -33 -11 -18 -11 -37
0 -30 6 4 8 1 6 -7 -3 -8 -12 -13 -19 -11 -8 1 -5 -4 5 -13 11 -8 14 -15 8
-15 -7 0 -12 -7 -12 -16 0 -9 -5 -12 -12 -8 -8 5 -7 0 2 -11 14 -17 13 -18 -4
-12 -17 7 -17 6 -5 -10 8 -9 9 -14 3 -10 -7 4 -15 0 -18 -9 -3 -8 -14 -14 -23
-12 -10 2 -17 -2 -16 -8 1 -7 -6 -10 -17 -7 -12 3 -20 0 -20 -6 0 -7 -4 -9
-10 -6 -5 3 -10 1 -10 -4 0 -6 -7 -11 -16 -11 -8 0 -13 -4 -9 -9 3 -5 0 -13
-6 -17 -7 -4 -9 -3 -6 3 4 6 0 13 -8 16 -10 4 -12 1 -8 -11 5 -14 3 -15 -8 -5
-16 15 -33 17 -24 3 3 -6 -1 -7 -9 -4 -9 3 -13 10 -10 15 3 5 -4 9 -15 9 -12
0 -21 6 -21 13 0 8 -4 7 -10 -3 -7 -12 -10 -12 -10 -1 0 8 -6 11 -16 7 -13 -5
-14 -4 -6 7 9 11 8 14 -6 14 -9 0 -21 -5 -25 -11 -5 -6 -5 0 -2 13 5 16 4 21
-4 17 -6 -4 -11 0 -11 10 0 14 -2 15 -17 3 -11 -10 -14 -10 -9 -1 4 7 2 12 -4
12 -6 0 -8 5 -4 12 5 8 2 9 -9 5 -12 -4 -17 -1 -17 10 0 14 -3 14 -22 -3 -19
-15 -20 -16 -9 -1 10 12 10 17 2 17 -7 0 -9 5 -6 10 4 6 3 10 -2 9 -24 -4 -43
2 -37 13 5 7 3 8 -7 3 -20 -13 -48 -13 -43 -1 2 6 -6 12 -18 12 -43 3 -93 16
-99 26 -7 11 -16 10 -43 -4 -14 -8 -17 -7 -11 2 5 8 3 11 -6 8 -8 -3 -26 -1
-41 3 -18 5 -29 3 -32 -4 -2 -7 -5 -2 -5 11 -1 12 -5 22 -11 22 -5 0 -7 -8 -4
-17 5 -17 5 -17 -6 0 -6 9 -15 15 -20 12 -12 -7 -40 34 -34 50 3 7 0 16 -7 21
-7 4 -10 3 -6 -3 3 -5 0 -10 -8 -10 -10 0 -12 4 -5 12 5 7 6 16 2 21 -4 4 0 3
9 -4 22 -16 33 -2 11 15 -13 11 -13 13 -2 10 8 -2 21 2 29 10 12 13 11 14 -10
8 -23 -7 -23 -7 -6 12 17 19 14 33 -7 33 -6 0 -5 -4 3 -9 9 -6 10 -11 2 -15
-11 -7 -15 5 -12 32 3 21 -16 13 -22 -10 -4 -12 -9 -19 -13 -15 -4 3 0 17 9
30 14 21 13 23 -4 24 -11 1 -17 -2 -15 -6 3 -4 -1 -8 -9 -8 -8 0 -12 4 -9 9 3
4 0 8 -5 8 -6 0 -11 5 -11 11 0 5 5 7 10 4 6 -3 10 1 10 9 0 9 5 16 12 16 6 0
8 3 5 6 -4 4 -13 1 -22 -6 -9 -7 -18 -10 -22 -6 -3 3 -1 6 6 6 7 0 9 5 6 10
-4 6 -10 8 -14 6 -4 -3 -8 1 -8 8 0 11 4 12 18 3 14 -9 21 -8 29 1 6 6 7 10 4
7 -10 -7 -44 14 -44 28 0 7 3 8 8 2 4 -5 14 -11 22 -13 12 -3 12 -1 3 9 -6 6
-9 19 -6 28 4 14 3 14 -6 1 -9 -13 -11 -12 -11 3 0 12 -4 16 -12 11 -8 -5 -8
-2 1 10 12 15 12 17 0 14 -9 -2 -13 4 -11 17 2 18 2 18 -8 3 -6 -10 -16 -18
-23 -18 -8 0 -7 3 2 9 17 11 6 45 -12 38 -8 -3 -20 -1 -28 4 -8 5 -9 9 -3 9
16 0 10 43 -7 48 -11 3 -11 1 1 -7 11 -8 12 -11 2 -11 -7 0 -10 -4 -7 -10 3
-5 1 -10 -5 -10 -6 0 -8 12 -4 33 3 17 6 39 6 47 1 8 6 21 12 29 9 12 7 12
-14 1 l-24 -13 17 27 c10 14 14 26 10 25 -21 -4 -33 2 -33 16 0 8 -5 15 -11
15 -6 0 -9 -9 -6 -20 7 -29 -2 -25 -14 7 -7 18 -6 30 1 37 14 14 13 29 -2 20
-7 -4 -10 -3 -5 1 4 5 -1 18 -10 29 -14 15 -14 18 -2 8 9 -6 20 -8 24 -4 5 4
5 1 0 -7 -6 -10 -4 -12 6 -6 8 5 11 5 7 0 -4 -4 -3 -16 3 -26 7 -14 7 -19 -2
-17 -6 2 -14 -3 -16 -10 -4 -10 1 -10 22 0 15 7 22 14 16 16 -6 2 -11 8 -11
13 0 6 6 7 13 3 9 -6 9 -5 0 8 -7 8 -9 19 -5 23 4 5 2 6 -3 2 -6 -3 -19 1 -30
9 -16 12 -17 14 -2 14 9 0 17 5 17 11 0 5 -4 8 -9 5 -20 -12 -42 5 -29 22 11
13 10 14 -9 3 -20 -10 -23 -9 -23 6 0 15 -2 16 -10 3 -8 -13 -10 -13 -10 2 0
9 -5 20 -12 24 -7 4 -8 3 -4 -4 4 -7 3 -12 -3 -12 -5 0 -11 6 -14 13 -3 9 -8
8 -22 -3 -17 -14 -18 -14 -5 10 13 24 12 24 -5 10 -10 -8 -16 -10 -13 -5 4 6
3 17 -3 25 -6 11 -9 11 -9 2 0 -10 -3 -10 -14 0 -8 7 -12 16 -9 21 2 4 -3 7
-13 7 -14 0 -15 2 -3 17 12 14 12 16 0 8 -11 -6 -13 -4 -7 10 6 18 6 18 -12 2
-10 -9 -23 -17 -28 -17 -5 0 -1 5 9 11 9 6 15 14 12 20 -4 5 -1 9 4 9 6 0 11
5 11 11 0 5 -5 7 -10 4 -13 -8 -13 1 1 27 8 15 8 19 0 14 -6 -4 -11 -3 -11 3
0 5 6 12 13 14 7 3 8 6 1 6 -7 1 -10 14 -8 31 2 16 0 31 -5 34 -4 3 -7 -6 -5
-19 1 -14 -2 -27 -6 -30 -5 -3 -7 4 -5 17 5 23 -29 101 -53 120 -10 9 -19 9
-35 -2 l-22 -13 20 22 c14 16 15 22 5 19 -8 -2 -14 3 -13 10 2 6 -1 12 -6 12
-5 0 -12 -6 -14 -12 -3 -7 -6 -2 -7 12 -1 23 -2 23 -10 5 -5 -11 -9 -14 -9 -7
-1 21 -30 45 -46 38 -8 -3 -17 -1 -20 4 -3 5 -12 7 -20 3 -9 -3 -15 1 -15 8 0
9 -3 10 -8 4 -11 -15 -64 -17 -56 -2 4 7 -2 4 -13 -6 -16 -14 -22 -15 -26 -5
-4 11 -6 11 -6 0 -1 -7 -5 -10 -11 -7 -5 3 -10 1 -10 -5 0 -6 -4 -9 -9 -6 -4
3 -16 -3 -26 -14 -10 -11 -23 -20 -29 -20 -6 0 -22 -12 -36 -28 -14 -15 -21
-22 -16 -15 5 8 4 13 -3 13 -6 0 -11 -4 -11 -10 0 -5 -13 -22 -30 -36 -16 -15
-27 -31 -24 -35 3 -5 -3 -6 -12 -2 -11 4 -15 3 -10 -5 3 -6 -3 -13 -14 -17
-18 -6 -19 -9 -8 -23 10 -12 10 -14 0 -8 -7 4 -24 -2 -40 -15 -20 -17 -22 -20
-7 -16 18 7 18 6 -2 -12 -12 -10 -23 -25 -25 -32 -2 -8 -10 -20 -18 -27 -8 -8
-9 -11 -2 -7 20 10 14 -9 -8 -25 -11 -8 -20 -23 -20 -33 0 -10 -5 -15 -10 -12
-6 4 -10 3 -9 -2 4 -26 -2 -44 -13 -37 -10 6 -10 4 0 -8 11 -14 9 -20 -10 -39
-13 -12 -16 -18 -8 -14 13 8 13 6 2 -7 -11 -14 -11 -21 -1 -40 10 -20 10 -21
-2 -11 -12 9 -14 5 -14 -27 0 -23 4 -36 10 -33 5 2 1 -3 -9 -11 -11 -9 -14
-16 -8 -16 7 0 12 -7 12 -15 0 -8 -5 -15 -11 -15 -5 0 -7 -5 -4 -10 5 -8 11
-7 21 1 12 10 13 9 8 -5 -3 -9 -11 -16 -18 -16 -6 0 -4 -5 4 -10 12 -8 12 -10
-5 -10 -15 0 -17 -2 -6 -9 8 -5 11 -16 8 -25 -3 -8 -2 -18 3 -21 5 -3 7 -12 3
-20 -3 -9 1 -23 8 -32 10 -12 10 -15 2 -9 -7 4 -13 3 -13 -2 0 -6 7 -12 15
-16 8 -3 15 -11 15 -18 0 -10 -2 -10 -9 0 -7 11 -9 10 -14 -3 -4 -9 -3 -14 1
-11 4 2 14 1 22 -5 8 -5 10 -9 4 -9 -6 0 -11 -6 -11 -14 0 -8 6 -12 13 -9 6 2
15 -1 20 -8 4 -8 3 -10 -4 -5 -7 4 -12 1 -12 -8 0 -9 5 -16 11 -16 8 0 7 -5
-1 -15 -7 -9 -10 -18 -6 -22 3 -3 6 0 6 8 0 12 2 12 9 0 5 -8 7 -20 4 -28 -3
-7 0 -13 6 -13 6 0 11 -5 11 -11 0 -5 -6 -7 -12 -3 -9 5 -9 2 1 -9 15 -19 26
-23 15 -5 -4 7 -3 8 5 4 9 -6 9 -11 0 -22 -13 -16 2 -19 17 -4 7 7 11 6 11 -4
0 -8 -4 -13 -8 -11 -4 3 -9 -2 -13 -10 -3 -8 3 -19 12 -24 10 -6 12 -11 5 -11
-7 0 -13 -5 -13 -11 0 -5 5 -7 10 -4 9 5 14 -7 11 -27 0 -4 10 -15 22 -25 13
-10 22 -24 19 -32 -3 -8 0 -11 7 -7 7 5 11 -1 12 -16 l0 -23 9 23 c12 27 20
29 13 2 -3 -11 0 -26 6 -33 6 -8 9 -16 6 -18 -2 -3 5 -6 17 -6 12 -1 26 -9 30
-18 5 -8 13 -13 19 -10 5 4 6 -2 2 -12 -6 -15 -4 -16 9 -5 13 10 18 10 24 1 4
-8 3 -9 -4 -5 -7 4 -12 2 -12 -5 0 -6 8 -9 18 -7 15 4 18 0 16 -19 -2 -20 0
-22 12 -12 11 9 14 8 14 -4 0 -17 25 -40 48 -43 18 -3 33 -24 25 -37 -3 -5 4
-4 15 2 25 13 43 15 23 2 -18 -11 2 -41 26 -41 8 0 11 -5 7 -12 -4 -6 -3 -8 4
-4 5 3 13 0 16 -6 3 -7 3 -2 0 11 -4 16 -3 21 5 17 6 -4 11 -14 11 -22 0 -8 6
-14 13 -14 8 0 7 -4 -3 -10 -8 -5 -10 -10 -4 -10 6 0 14 3 18 7 3 4 17 8 29
10 17 2 19 1 7 -6 -8 -5 -18 -7 -24 -4 -5 3 -6 1 -3 -5 4 -5 17 -8 30 -4 18 5
20 3 10 -9 -10 -13 -7 -14 23 -11 30 4 33 2 28 -14 -4 -13 -3 -15 3 -6 12 15
46 5 36 -12 -3 -6 -3 -8 2 -4 4 4 14 3 22 -3 7 -6 13 -8 13 -3 0 4 12 -3 27
-17 14 -13 23 -18 19 -12 -4 7 -2 13 3 13 6 0 11 -4 11 -10 0 -5 5 -10 11 -10
5 0 8 4 5 8 -2 4 6 8 20 8 13 0 24 -4 24 -9 0 -5 -6 -7 -13 -4 -7 3 -21 -1
-30 -8 -15 -11 -12 -12 20 -10 53 3 65 -3 57 -29 -5 -16 -4 -18 6 -9 17 16 40
5 40 -18 0 -10 5 -19 11 -19 5 0 8 4 5 8 -2 4 0 14 6 22 8 12 9 12 4 -2 -3
-10 -1 -18 5 -18 6 0 7 -5 3 -11 -5 -8 1 -10 20 -7 22 4 26 2 21 -10 -3 -9 -3
-13 1 -9 4 4 14 1 23 -6 14 -10 14 -10 6 3 -5 9 -2 7 8 -3 9 -11 17 -14 17 -8
0 6 5 11 11 11 5 0 7 -4 4 -10 -5 -9 1 -12 21 -9 4 0 11 -5 16 -13 6 -9 7 -6
3 10 -4 13 -2 22 4 22 6 0 10 -6 8 -12 -1 -7 4 -12 11 -11 6 2 12 -1 12 -5 0
-4 11 -8 24 -8 14 0 22 4 20 8 -3 4 0 8 5 8 6 0 11 -6 11 -14 0 -8 7 -17 16
-20 15 -6 15 -4 3 11 -7 10 -9 15 -5 11 5 -4 16 -2 24 5 13 9 14 9 8 -1 -4 -7
-2 -12 4 -12 6 0 8 -5 4 -12 -4 -7 -3 -8 5 -4 6 4 8 13 4 19 -5 8 -2 8 9 -1 8
-7 24 -9 33 -5 14 5 16 3 10 -7 -5 -9 -4 -11 4 -6 6 4 18 3 26 -4 10 -8 15 -8
21 1 4 8 3 9 -4 5 -7 -4 -12 -3 -12 2 0 6 8 13 17 16 10 4 14 4 10 0 -14 -14
14 -34 33 -24 13 7 20 6 24 -3 3 -6 3 -1 0 13 -4 21 -3 22 6 8 13 -21 41 -23
58 -6 9 9 11 6 7 -10 -6 -32 3 -27 20 10 l14 33 -4 -30 c-3 -16 -2 -24 1 -17
3 6 11 9 17 5 19 -12 36 -12 43 -2 3 6 12 5 22 -3 13 -11 14 -11 7 1 -6 11 -4
13 10 7 18 -6 18 -6 -1 16 -19 23 -19 23 1 8 11 -8 23 -19 27 -24 4 -6 13 -4
22 3 19 16 21 1 4 -19 -11 -12 -10 -12 5 -1 9 8 20 11 24 8 3 -4 12 -2 20 5 8
6 13 7 11 2 -2 -5 2 -10 7 -11 6 -2 10 1 10 6 0 5 4 13 8 18 5 4 8 3 7 -2 -5
-23 1 -46 10 -40 6 3 10 0 10 -7 0 -9 3 -9 10 2 6 10 10 11 10 3 0 -7 12 -13
26 -13 15 0 23 4 19 11 -4 6 2 5 13 -2 12 -7 18 -17 16 -21 -3 -4 0 -8 6 -8 6
0 8 -5 4 -12 -4 -7 -3 -8 5 -4 6 4 8 13 4 19 -3 7 4 3 17 -8 13 -11 20 -14 16
-8 -5 9 -2 11 8 7 9 -3 14 -10 11 -15 -3 -4 4 -6 15 -4 13 2 20 -1 20 -11 0
-8 5 -14 11 -14 5 0 7 5 4 10 -10 17 0 11 31 -15 16 -14 35 -23 43 -20 11 5
12 3 1 -10 -11 -13 -11 -16 1 -13 8 2 13 -4 13 -14 -1 -10 3 -15 8 -12 6 4 8
-3 4 -17 -3 -13 -3 -18 0 -11 10 22 24 13 16 -10 -12 -33 -9 -45 13 -63 11 -9
13 -13 5 -9 -10 5 -8 0 4 -15 17 -18 17 -21 3 -15 -15 6 -16 4 -2 -22 13 -26
13 -29 -3 -35 -14 -5 -13 -7 7 -14 19 -6 21 -9 10 -17 -11 -7 -11 -11 -2 -15
9 -3 10 -10 3 -23 -7 -13 -7 -21 0 -25 5 -3 10 -20 10 -36 0 -22 4 -28 13 -23
8 5 8 2 -2 -9 -9 -11 -10 -17 -2 -17 6 0 11 -5 11 -11 0 -5 -4 -8 -8 -5 -5 3
-9 -1 -9 -9 0 -8 4 -12 9 -9 4 3 8 -4 8 -15 0 -12 6 -21 13 -21 8 0 7 -4 -3
-10 -12 -8 -12 -10 5 -10 18 -1 18 -1 3 -11 -13 -7 -15 -15 -9 -27 25 -46 30
-73 18 -90 -6 -7 -6 -12 0 -12 5 0 10 -7 10 -15 0 -9 -6 -14 -14 -11 -10 4
-10 -1 2 -24 8 -16 15 -37 15 -47 0 -15 2 -16 10 -3 5 8 10 10 10 4 0 -5 -6
-16 -12 -23 -11 -11 -10 -13 3 -8 10 3 16 -1 16 -9 0 -9 -7 -13 -16 -9 -11 3
-10 0 4 -13 11 -10 21 -24 23 -32 2 -8 8 -18 14 -21 7 -4 6 -9 -1 -13 -14 -9
-14 -26 0 -26 5 0 7 6 3 13 -4 7 -3 9 2 4 5 -5 10 -13 10 -18 1 -5 3 -11 4
-14 7 -14 5 -31 -5 -37 -6 -5 -5 -8 3 -8 7 0 10 -4 7 -10 -5 -9 7 -14 26 -12
4 1 4 -8 1 -20 -4 -16 -2 -19 9 -13 12 8 12 6 0 -8 -9 -11 -10 -17 -2 -17 6 0
11 -7 11 -15 0 -8 4 -15 9 -15 5 0 12 -7 15 -16 6 -15 4 -15 -11 -3 -17 13
-17 12 -2 -6 9 -11 20 -30 23 -42 4 -13 13 -23 19 -23 7 0 6 -4 -3 -10 -13 -9
-13 -10 0 -10 13 0 13 -1 0 -10 -12 -8 -12 -10 5 -10 17 0 17 -2 5 -10 -13 -8
-12 -10 3 -10 20 0 24 -35 5 -44 -7 -3 -2 -3 11 0 18 5 22 3 15 -7 -12 -20
-14 -40 -3 -33 5 3 12 -3 16 -13 4 -10 14 -24 22 -31 14 -12 14 -13 -2 -8 -16
5 -16 4 0 -27 9 -17 16 -38 14 -46 -1 -7 2 -10 8 -6 7 3 11 -3 11 -15 0 -14 4
-19 13 -14 9 6 9 4 0 -7 -16 -16 -17 -29 -2 -29 5 0 7 4 4 10 -3 6 1 7 10 3
11 -4 13 -8 6 -13 -19 -11 -6 -55 15 -53 11 1 13 0 7 -3 -19 -8 -16 -24 4 -24
15 0 14 -2 -3 -15 -18 -14 -18 -14 4 -8 13 3 22 1 22 -6 0 -7 -5 -9 -12 -5 -9
6 -9 3 0 -9 8 -9 10 -22 6 -28 -5 -8 -2 -10 8 -7 8 4 15 0 15 -8 0 -7 -5 -11
-11 -8 -6 3 -1 -3 11 -14 16 -14 19 -22 11 -30 -8 -8 -7 -13 6 -18 11 -4 13
-10 7 -18 -6 -7 -4 -18 6 -31 12 -16 14 -16 10 -3 -3 10 -1 20 5 24 6 4 8 3 4
-4 -3 -6 -2 -13 3 -17 5 -3 8 -15 6 -26 -2 -12 2 -22 11 -26 13 -5 13 -7 2
-14 -10 -7 -9 -9 5 -10 30 -3 35 -4 42 -11 4 -4 -5 -5 -21 -3 -16 2 -23 2 -16
-1 6 -3 9 -11 5 -17 -4 -6 0 -8 10 -4 9 3 19 1 23 -5 4 -6 3 -8 -4 -4 -6 3
-13 2 -17 -4 -3 -5 -1 -10 5 -10 6 0 8 -5 4 -12 -5 -9 -2 -8 9 1 15 12 17 12
11 -4 -5 -12 -4 -16 3 -12 6 4 14 0 17 -9 3 -8 2 -12 -3 -9 -5 3 -13 0 -17 -7
-4 -7 -4 -10 1 -6 4 4 13 0 20 -9 6 -8 26 -16 42 -17 30 -1 37 -16 7 -16 -8 0
-14 -5 -14 -11 0 -6 9 -8 23 -4 17 5 19 4 7 -5 -13 -9 -13 -12 3 -21 9 -6 15
-14 12 -18 -2 -5 2 -14 10 -21 8 -7 12 -17 8 -23 -3 -6 -1 -7 5 -3 11 6 17
-13 13 -37 -1 -5 3 -6 8 -3 5 4 12 -3 16 -14 3 -11 13 -20 21 -20 8 0 12 -4 9
-10 -9 -14 8 -12 25 3 8 6 7 3 -3 -9 -19 -23 -14 -36 11 -27 10 4 14 2 10 -2
-10 -11 52 -66 65 -58 6 4 7 1 2 -6 -5 -9 -10 -10 -18 -2 -19 19 -28 12 -9 -7
12 -14 22 -16 36 -9 12 6 16 6 12 -1 -3 -6 -3 -12 1 -15 5 -2 3 -3 -4 -1 -12
3 -12 -21 2 -33 4 -4 5 -2 1 5 -4 6 -2 12 3 12 6 0 11 -10 12 -22 0 -13 3 -17
6 -10 8 20 22 14 16 -8 -6 -21 12 -29 19 -8 3 9 6 9 12 0 4 -7 2 -12 -3 -12
-6 0 -11 -5 -11 -11 0 -6 6 -9 14 -6 27 10 52 -18 36 -39 -8 -11 -10 -16 -6
-12 5 4 17 -2 27 -14 11 -11 19 -16 19 -10 0 6 -4 14 -10 17 -5 3 -9 14 -9 23
1 15 2 15 6 -1 2 -9 9 -14 15 -11 6 4 8 2 4 -4 -3 -6 0 -17 8 -25 8 -8 12 -18
8 -22 -4 -5 3 -5 15 -2 13 3 26 0 30 -5 3 -7 1 -8 -5 -4 -7 4 -12 2 -12 -3 0
-6 5 -11 11 -11 5 0 7 -6 3 -13 -4 -6 -3 -9 1 -4 5 4 16 0 26 -9 13 -12 19
-12 25 -3 4 8 3 10 -4 5 -8 -5 -10 -2 -6 9 6 14 8 14 19 -2 7 -10 11 -21 9
-25 -3 -4 0 -16 6 -25 10 -16 11 -16 5 2 -6 20 -6 20 13 0 11 -11 17 -24 14
-30 -3 -5 1 -4 10 2 12 11 18 9 33 -7 10 -11 25 -20 34 -21 11 0 12 -2 3 -6
-7 -3 -25 5 -40 18 -14 13 -21 17 -14 8 6 -9 8 -20 4 -24 -4 -5 -2 -5 5 -1 6
3 14 2 18 -4 3 -5 15 -10 26 -10 10 0 19 -5 19 -11 0 -5 -5 -7 -12 -3 -7 4 -8
3 -4 -4 4 -6 13 -9 20 -6 8 3 17 0 22 -7 5 -8 3 -10 -7 -4 -12 8 -12 6 0 -8 7
-9 17 -15 21 -12 4 3 13 -2 20 -10 7 -8 16 -12 21 -9 14 8 50 -16 44 -29 -4
-7 0 -4 8 6 10 12 17 14 22 8 3 -6 1 -11 -4 -11 -24 0 -9 -19 24 -30 21 -7 32
-16 29 -22 -4 -7 -2 -8 5 -4 9 6 9 11 0 22 -15 18 -2 18 16 0 9 -8 10 -17 4
-23 -6 -6 3 -9 25 -8 20 1 33 -1 31 -6 -3 -4 -2 -9 2 -12 5 -2 3 -2 -4 -1 -7
2 -15 -2 -19 -9 -4 -7 -4 -9 1 -5 4 4 17 3 28 -3 14 -8 18 -8 13 0 -5 7 1 10
15 8 13 -2 25 -10 27 -18 3 -12 2 -12 -6 0 -7 9 -12 10 -16 2 -6 -10 6 -15 27
-12 4 0 7 -3 7 -9 0 -5 5 -10 11 -10 5 0 7 5 4 10 -3 6 -1 10 4 10 6 0 11 -4
11 -10 0 -5 5 -10 11 -10 5 0 7 4 4 10 -3 5 -1 10 4 10 15 0 14 -13 -1 -29 -7
-7 -8 -12 -3 -11 21 4 36 0 31 -9 -4 -5 2 -8 11 -7 10 2 22 -2 26 -8 5 -6 5 0
2 14 l-7 25 18 -25 c11 -14 18 -27 17 -31 -1 -3 10 -5 25 -5 16 1 26 -4 25
-11 -2 -7 4 -10 12 -7 8 4 15 1 15 -4 0 -6 9 -9 19 -7 11 2 25 -3 31 -11 7 -7
16 -12 20 -9 5 3 11 1 14 -4 3 -5 16 -7 28 -3 15 3 19 2 14 -7 -5 -7 -2 -10 6
-9 7 2 12 -4 10 -12 -2 -8 0 -12 3 -8 4 4 15 3 25 -2 12 -6 17 -5 17 5 0 7 -6
11 -12 9 -7 -3 -18 2 -25 11 -8 10 -9 15 -1 15 6 0 11 -4 11 -9 0 -5 11 -8 25
-8 15 0 22 4 18 11 -3 6 -2 7 2 3 14 -12 15 -38 2 -30 -7 4 -6 -1 2 -10 14
-18 41 -19 53 -2 5 6 8 6 8 -2 0 -7 -8 -17 -17 -23 -19 -12 -10 -10 35 7 14 6
15 4 5 -8 -13 -16 -1 -39 21 -39 5 0 1 7 -10 16 -18 15 -18 15 2 5 15 -7 25
-7 35 2 12 10 12 10 2 -3 -20 -22 -15 -32 8 -19 13 7 19 7 15 1 -3 -6 -1 -14
5 -18 8 -4 9 -3 5 4 -4 7 -1 12 8 12 10 0 13 -6 10 -18 -5 -16 -5 -16 6 0 6
10 18 15 28 12 10 -4 13 -2 7 3 -5 4 -11 15 -13 23 -3 11 2 10 17 -4 23 -21
29 -9 9 14 -7 8 0 4 16 -10 16 -14 26 -19 21 -11 -6 11 -4 13 8 8 9 -3 19 -1
23 5 4 6 3 8 -4 4 -6 -3 -14 -1 -18 6 -4 7 -4 10 1 6 4 -4 21 2 38 14 17 12
27 17 24 10 -5 -6 1 -16 13 -22 16 -8 22 -8 26 4 3 8 13 17 21 20 13 5 14 4 3
-9 -7 -9 -10 -18 -6 -22 3 -3 6 -2 6 4 0 18 38 21 61 5 12 -8 19 -11 16 -5 -4
6 0 14 8 17 9 3 18 -1 22 -9 5 -13 7 -13 18 2 7 10 11 22 8 27 -4 5 -1 6 6 2
7 -5 10 -15 6 -23 -4 -13 -3 -14 10 -3 8 7 12 16 9 21 -3 5 -1 9 4 9 6 0 12
-6 15 -14 3 -8 14 -13 24 -12 10 2 17 6 16 9 -2 4 -3 12 -3 18 0 5 -5 7 -12 3
-7 -5 -8 -3 -4 5 6 9 13 8 27 -5 17 -15 21 -15 37 -2 9 8 23 13 30 12 6 -1 17
-2 23 -3 5 0 7 -5 4 -11 -3 -5 -1 -10 5 -10 6 0 10 7 8 16 -2 10 3 19 10 21 8
3 10 -2 6 -14 -4 -11 -3 -14 3 -7 4 6 18 10 30 9 12 -1 20 2 17 7 -4 5 -13 7
-21 4 -8 -3 -11 -1 -8 4 9 14 21 12 41 -7 16 -16 16 -16 9 7 -7 23 -7 24 10
10 11 -8 16 -10 13 -5 -3 6 1 16 8 23 13 12 14 10 9 -11 -4 -15 -2 -28 6 -32
8 -5 10 -4 5 4 -12 19 14 44 30 30 16 -14 19 2 3 18 -8 8 -7 13 2 18 7 5 10 4
7 -1 -5 -8 23 -43 29 -36 2 1 6 2 11 2 4 0 0 -5 -8 -11 -13 -9 -13 -10 0 -6 8
2 14 10 12 16 -1 6 3 11 9 11 5 0 7 4 4 10 -3 6 1 7 9 4 9 -3 16 -10 16 -16 0
-5 -4 -7 -8 -4 -5 3 -9 -1 -9 -9 0 -8 4 -15 9 -15 4 0 8 5 8 11 0 6 7 8 16 5
15 -6 15 -4 0 18 -11 18 -13 27 -4 32 6 4 8 3 5 -3 -7 -11 28 -45 37 -36 3 4
0 13 -7 22 -11 14 -10 14 5 2 10 -7 15 -17 12 -22 -3 -5 0 -9 7 -9 6 0 9 8 7
18 -3 12 0 19 9 19 8 0 11 -7 7 -19 -3 -10 -1 -18 5 -18 5 0 13 9 16 20 7 23
22 27 22 5 0 -8 -4 -12 -9 -9 -4 3 -8 1 -8 -4 0 -6 7 -12 15 -16 8 -3 14 0 12
6 -1 5 6 12 16 13 9 2 17 -1 17 -7 0 -5 5 -8 11 -6 18 6 10 23 -10 23 -11 0
-22 3 -26 6 -3 4 8 5 26 4 18 -2 36 -10 41 -19 8 -15 11 -15 30 -1 17 11 25
12 35 3 8 -6 13 -7 12 -2 -4 21 2 26 19 13 9 -7 14 -9 10 -5 -13 16 13 38 28
25 11 -9 18 -8 29 1 14 12 19 7 16 -13 -1 -5 3 -6 9 -2 6 3 7 11 4 17 -5 7 -1
9 9 5 11 -4 14 -2 10 9 -4 11 -9 12 -19 3 -11 -9 -14 -9 -14 0 0 7 -4 9 -10 6
-6 -3 -7 1 -3 10 5 14 8 14 15 3 7 -10 11 -10 15 0 5 13 24 17 22 5 -4 -24 4
-23 28 3 15 17 24 22 20 12 -3 -10 -2 -18 4 -18 6 0 7 -5 3 -12 -4 -7 -3 -8 4
-4 6 4 9 13 5 21 -4 11 -1 13 13 8 12 -4 15 -3 10 5 -4 7 -1 12 8 12 9 0 16 5
16 12 0 6 3 8 6 5 4 -4 1 -13 -5 -21 -9 -11 -9 -16 0 -22 7 -4 9 -3 6 3 -4 6
0 14 9 17 9 3 12 11 8 18 -5 9 -2 8 9 -1 15 -12 17 -12 12 2 -5 10 -1 15 12
14 10 -1 17 3 16 9 -1 6 4 11 12 11 8 0 12 -4 9 -9 -3 -4 0 -8 5 -8 6 0 11 6
11 14 0 8 5 18 12 22 7 4 8 3 4 -4 -4 -7 -3 -12 2 -12 6 0 13 7 16 16 4 10 13
13 27 9 17 -6 20 -4 13 6 -12 20 -14 38 -4 44 5 3 7 -3 5 -14 -2 -11 2 -22 10
-25 18 -6 27 4 15 18 -6 8 -3 12 10 12 10 0 16 -5 13 -10 -4 -5 -1 -6 6 -1 7
4 10 16 8 27 -4 16 -3 17 9 7 9 -7 14 -8 14 -1 0 5 8 8 18 5 11 -2 26 5 37 19
15 17 16 20 3 9 -10 -7 -18 -9 -18 -3 0 14 28 23 36 11 3 -6 19 0 39 15 18 14
36 22 40 18 5 -4 5 -1 1 6 -6 10 -11 10 -22 1 -8 -6 -14 -7 -14 -2 0 5 12 15
26 21 14 7 23 8 19 3 -3 -5 -1 -12 4 -15 5 -4 8 5 6 19 -1 14 0 23 3 20 3 -2
12 1 21 8 14 10 14 10 4 -4 -10 -13 -10 -16 1 -16 9 0 13 9 11 24 -2 17 1 21
10 13 12 -10 25 -4 25 12 0 5 -5 6 -12 2 -7 -4 -8 -3 -4 5 6 9 11 9 22 0 7 -6
11 -16 7 -22 -3 -6 -1 -7 5 -3 9 5 9 13 0 29 -10 20 -10 21 7 7 17 -14 17 -13
10 10 -7 24 -7 24 8 5 9 -11 19 -16 23 -12 5 4 3 12 -5 16 -10 7 -10 9 3 14 8
3 17 1 20 -6 2 -7 5 -5 5 5 1 9 -3 20 -9 23 -5 3 -10 12 -9 18 0 9 2 8 6 -1 2
-7 14 -17 26 -24 l22 -11 -20 23 -20 23 22 -12 c25 -13 34 -14 31 -3 -4 19 15
40 30 34 15 -5 15 -4 3 11 -18 22 -7 22 15 0 17 -17 17 -17 11 -1 -4 11 0 22
12 30 10 7 17 23 16 36 -1 20 0 21 15 7 14 -13 16 -12 16 5 0 10 -5 16 -11 13
-5 -3 -4 0 3 8 11 12 14 12 23 -1 9 -12 10 -12 5 4 -5 14 -2 17 10 12 15 -6
15 -4 3 11 -12 15 -12 16 4 10 13 -5 17 -3 14 5 -2 7 -9 12 -14 11 -5 -1 -10
5 -10 12 0 11 4 12 14 4 7 -6 13 -8 13 -3 0 5 5 2 10 -6 8 -13 10 -12 10 3 0
12 4 16 13 11 8 -5 7 -2 -2 10 -12 15 -12 19 4 34 16 16 17 16 6 -5 -8 -15 -8
-23 -1 -23 5 0 10 5 10 11 0 5 4 8 9 5 5 -3 13 0 19 7 11 13 12 17 12 45 0 14
2 15 10 2 5 -8 10 -10 10 -4 0 6 -3 14 -7 18 -4 3 -8 17 -10 29 -2 17 -1 19 6
7 5 -8 8 -17 6 -20 -2 -4 2 -7 8 -7 7 0 14 9 14 19 2 22 28 50 38 40 4 -4 2 3
-4 16 -7 12 -17 20 -23 16 -7 -5 -8 -2 -4 5 6 9 12 9 25 -3 15 -14 17 -13 18
5 1 10 -2 17 -8 14 -5 -4 -9 -2 -9 3 0 6 7 13 16 16 9 3 12 11 8 18 -5 10 -4
10 7 0 12 -11 12 -14 0 -21 -7 -5 -9 -11 -4 -14 6 -4 15 5 21 18 7 14 17 25
24 25 9 0 8 3 -2 10 -13 8 -13 10 -1 10 11 0 10 4 -4 14 -18 13 -17 14 7 11
20 -2 25 1 21 11 -3 9 1 14 11 14 13 0 15 4 6 19 -14 27 -13 34 6 27 11 -4 15
-2 11 7 -3 8 1 14 8 14 7 0 11 -7 8 -16 -4 -14 -3 -14 5 -1 6 8 9 17 6 21 -4
8 26 23 39 20 5 -1 6 3 2 9 -5 8 -12 7 -23 -2 -13 -11 -14 -11 -7 1 6 11 4 13
-8 8 -10 -3 -17 -2 -17 4 0 5 16 8 35 6 19 -2 32 -1 30 3 -3 5 2 10 10 14 8 3
15 12 15 21 0 13 12 19 32 16 4 0 5 5 2 13 -3 7 2 16 10 19 10 4 13 13 9 24
-6 16 -5 17 13 3 17 -12 17 -12 6 0 -7 8 -17 16 -23 16 -5 1 -15 2 -21 3 -10
1 -9 4 1 10 8 5 20 7 28 4 7 -3 13 0 13 6 0 6 -4 11 -10 11 -5 0 -10 5 -10 11
0 8 4 9 13 0 8 -6 17 -7 22 -3 4 4 2 -3 -4 -16 -8 -14 -8 -22 -1 -22 5 0 10 7
10 15 0 8 6 12 14 9 8 -3 17 -1 21 5 4 7 0 8 -11 4 -13 -5 -15 -3 -9 7 5 9 4
11 -3 6 -7 -4 -12 -2 -12 4 0 6 -5 8 -12 4 -7 -4 -8 -3 -4 5 4 6 13 9 19 5 7
-3 -1 6 -18 21 -16 14 -22 23 -12 19 13 -5 16 -2 11 9 -3 8 -1 18 5 22 13 7
15 25 3 25 -5 0 -14 -10 -20 -22 -6 -13 -11 -17 -11 -10 -1 6 8 21 19 32 21
21 27 35 10 25 -5 -3 -10 -1 -10 5 0 7 7 9 16 6 12 -5 15 -2 10 10 -3 8 -6 18
-6 20 0 2 -5 4 -11 4 -5 0 -7 -6 -3 -12 5 -9 2 -8 -9 1 -10 8 -21 11 -24 7 -4
-4 -1 -12 7 -17 13 -9 13 -10 0 -6 -8 2 -15 10 -15 18 0 8 7 15 15 15 8 1 21
2 28 3 7 0 11 5 7 11 -3 5 -12 7 -19 4 -7 -3 -23 3 -35 13 -22 18 -22 20 -5
33 11 9 15 10 10 3 -4 -7 -3 -13 3 -13 5 0 11 6 14 13 2 6 3 4 2 -6 -4 -23 8
-22 31 5 17 19 17 21 2 15 -10 -4 -18 -2 -18 3 0 11 23 13 33 3 4 -3 1 -13 -6
-21 -10 -12 -9 -14 2 -11 8 3 21 16 30 29 15 22 15 24 -1 17 -10 -3 -20 -2
-22 2 -3 5 12 8 33 7 32 -2 37 1 33 16 -5 20 -18 24 -25 8 -3 -6 -4 -5 -3 2 3
13 8 14 51 17 16 1 17 3 5 10 -8 6 -18 7 -23 4 -5 -3 -4 4 2 15 11 21 37 35
44 24 2 -4 2 -1 1 5 -2 7 5 17 14 22 14 8 15 12 3 23 -10 9 -12 9 -7 1 5 -9 2
-11 -10 -6 -11 4 -13 8 -6 11 7 2 9 8 6 14 -4 6 0 6 13 0 15 -9 20 -8 20 3 0
8 -4 12 -8 9 -4 -2 -10 0 -13 5 -4 5 5 8 19 6 20 -2 23 0 14 11 -10 13 -6 18
13 15 4 0 4 7 1 16 -4 11 -3 14 5 9 8 -5 10 -2 6 9 -4 8 0 23 7 32 12 14 12
16 -1 9 -8 -4 -7 -1 3 7 10 9 15 21 11 31 -3 9 -1 16 5 16 8 0 9 5 1 19 -8 16
-7 19 8 16 9 -1 22 2 28 7 7 5 16 7 22 6 5 -2 11 2 12 7 1 6 9 19 18 29 9 11
12 17 6 13 -6 -3 -16 4 -22 17 -8 17 -7 23 3 23 7 0 11 -5 9 -12 -3 -6 4 -11
15 -11 15 0 17 3 9 13 -8 10 -6 13 8 13 16 0 16 2 4 9 -8 6 -18 7 -22 5 -4 -3
-5 1 -3 8 3 7 15 20 28 27 22 14 22 14 3 -8 -11 -11 -14 -21 -9 -21 6 0 13 7
17 15 3 8 11 14 18 13 8 -2 13 6 12 19 -1 13 4 19 11 17 8 -3 12 7 13 30 1 26
-2 34 -13 30 -7 -3 -22 -1 -31 4 -15 8 -12 10 12 8 17 -2 36 -6 42 -10 7 -4
12 -2 12 3 0 6 -4 11 -10 11 -5 0 -10 9 -10 21 0 22 -21 22 -28 -1 -3 -8 0
-10 8 -5 9 6 11 4 5 -4 -5 -9 -10 -10 -18 -2 -8 8 -6 16 6 29 17 16 19 16 38
-8 17 -21 19 -22 10 -3 -14 28 -14 36 0 27 8 -4 8 0 0 15 -13 23 -26 29 -18 8
4 -10 -3 -13 -21 -12 -45 3 -47 4 -26 19 10 8 21 12 24 10 2 -3 -2 -9 -10 -14
-13 -8 -12 -10 3 -10 17 0 19 4 19 40 0 32 -1 32 -28 3 l-26 -28 21 29 c16 22
18 32 10 47 -9 19 -12 18 -42 -13 -18 -18 -31 -36 -29 -40 2 -5 -2 -8 -7 -8
-6 0 -11 5 -11 11 0 5 -5 7 -10 4 -8 -5 -8 -11 0 -20 8 -10 8 -15 -1 -21 -7
-4 -9 -3 -5 4 3 6 2 13 -3 16 -5 4 -13 2 -16 -4 -5 -8 -12 -7 -23 2 -14 11
-15 10 -8 -7 5 -15 4 -17 -4 -9 -9 9 -9 17 -1 32 8 15 8 22 -2 25 -9 4 -8 6 2
6 11 1 11 4 1 16 -9 11 -10 18 -1 28 6 8 7 18 3 22 -4 5 5 1 20 -8 34 -21 50
-22 20 -1 -12 8 -22 20 -22 26 0 6 10 3 23 -8 l22 -19 -19 22 c-13 16 -23 20
-31 13 -8 -7 -12 -5 -12 5 0 8 2 13 5 10 7 -7 42 15 42 27 0 7 -5 6 -15 -2
-13 -11 -18 -11 -28 0 -9 10 -9 11 1 6 14 -8 45 18 34 28 -3 4 1 4 11 0 9 -3
15 -9 12 -13 -2 -4 2 -8 10 -8 10 0 12 4 5 12 -7 9 -6 14 4 18 10 4 13 16 11
36 l-4 30 24 -21 c13 -12 21 -26 18 -32 -3 -6 -2 -8 2 -3 13 11 16 45 5 52 -6
3 -10 1 -10 -5 0 -6 -5 -8 -11 -4 -7 4 -7 9 -2 13 5 3 15 15 22 26 11 19 12
19 6 -2 -4 -14 -2 -23 4 -23 11 0 15 15 11 35 -1 6 2 7 5 3 4 -4 16 -3 26 3
13 6 19 6 19 -1 0 -5 -7 -10 -15 -10 -23 0 -36 -34 -21 -56 13 -21 14 -33 3
-51 -4 -6 -2 -15 4 -19 8 -4 9 -3 5 4 -4 8 -2 10 8 6 10 -4 14 0 13 14 0 12
-4 19 -9 16 -4 -2 -5 5 -3 16 3 13 0 18 -7 14 -7 -4 -8 -2 -4 5 4 6 12 9 17 6
5 -4 9 -1 9 5 0 7 -8 9 -20 5 -14 -5 -18 -2 -15 7 6 15 48 18 61 5 5 -4 0 -5
-10 -1 -16 6 -17 4 -7 -15 7 -12 17 -19 24 -15 8 5 8 2 -1 -7 -11 -12 -14 -12
-21 0 -6 9 -11 10 -15 3 -4 -6 4 -16 16 -23 32 -17 36 -26 33 -70 -2 -35 17
-61 33 -44 3 3 0 5 -6 5 -6 0 -10 9 -9 20 1 20 12 27 20 13 2 -5 2 -2 1 4 -2
7 5 18 15 25 18 13 21 18 21 39 0 5 4 7 10 4 6 -4 7 1 3 11 -4 10 -2 15 3 11
6 -3 16 -1 24 5 12 8 12 9 -2 4 -20 -6 -25 10 -5 17 10 4 10 6 0 6 -7 1 -13 6
-13 12 0 5 5 7 10 4 6 -3 10 -1 10 5 0 6 4 9 9 6 10 -7 9 20 -2 30 -4 4 -7 12
-7 18 0 6 5 4 10 -4 8 -13 11 -13 22 -1 7 8 8 11 2 8 -12 -7 -29 21 -19 31 3
3 5 1 5 -5 0 -5 6 -10 13 -10 8 0 12 11 11 29 -2 25 0 27 14 16 14 -11 14 -11
5 7 -9 15 -8 22 5 33 10 7 12 11 5 8 -6 -4 -15 -2 -18 4 -4 6 -3 10 2 9 19 -3
33 2 33 12 0 5 -5 7 -10 4 -5 -3 -10 -1 -10 5 0 6 -4 9 -9 5 -5 -3 -12 -1 -16
4 -3 6 6 8 22 5 25 -4 26 -3 10 10 -17 13 -16 14 2 19 19 5 22 21 9 42 -4 6
-3 17 3 25 11 19 11 30 1 30 -5 0 -9 -7 -10 -15 -1 -8 -3 -22 -4 -30 -1 -8 -5
-15 -10 -15 -10 0 -10 11 2 30 6 9 5 20 -3 29 -9 12 -9 13 1 7 7 -4 12 -2 12
4 0 6 5 8 12 4 7 -5 8 -3 3 7 -15 23 -13 50 2 45 8 -4 11 -1 8 5 -4 6 -13 8
-20 5 -7 -2 -12 2 -11 11 0 9 -4 18 -10 20 -6 2 -10 -6 -10 -18 1 -13 -6 -23
-17 -25 -9 -1 -15 2 -11 7 3 5 10 6 16 3 7 -5 9 0 5 15 -3 14 0 24 9 28 8 3
14 9 14 15 0 5 -5 6 -12 2 -7 -4 -8 -3 -4 4 4 6 14 8 24 5 9 -3 14 -3 10 2 -4
4 0 14 10 22 16 12 16 13 -2 6 -13 -4 -17 -3 -12 5 4 8 2 10 -8 6 -9 -3 -17 2
-21 15 -3 12 -11 21 -16 21 -6 0 -7 -5 -4 -10 3 -6 1 -10 -4 -10 -6 0 -12 7
-12 15 -4 39 -15 56 -35 48 -9 -3 -21 3 -30 16 -10 13 -26 21 -44 21 -15 0
-30 6 -33 13 -3 9 -8 8 -22 -3 -15 -12 -17 -12 -10 -1 6 11 4 13 -8 8 -9 -3
-18 -1 -21 6 -3 8 -5 8 -5 1 -1 -8 -14 -9 -41 -4 -25 5 -37 4 -33 -3 3 -6 -6
-8 -25 -5 -17 2 -29 1 -26 -4 3 -4 -12 -8 -33 -8 -21 0 -48 -7 -60 -15 -16
-11 -24 -12 -29 -4 -5 8 -3 9 6 4 9 -6 11 -4 5 5 -6 10 -10 10 -20 -3 -10 -14
-78 -34 -97 -29 -5 1 -8 -2 -8 -7 0 -5 -9 -11 -20 -14 -12 -3 -18 -1 -14 5 4
6 -3 5 -15 -1 -11 -7 -21 -9 -21 -5 0 3 -6 1 -13 -5 -8 -6 -17 -8 -21 -4 -4 4
-4 -1 0 -12 4 -11 4 -17 -1 -13 -4 4 -15 2 -23 -5 -13 -10 -15 -9 -8 3 4 8 -2
4 -13 -9 -12 -13 -21 -17 -21 -10 0 8 -6 5 -16 -7 -14 -17 -15 -17 -10 -1 4
14 -2 12 -31 -10 -20 -15 -34 -23 -30 -16 5 8 0 9 -23 0 -16 -6 -30 -15 -30
-20 0 -4 5 -5 12 -1 7 4 8 3 4 -5 -4 -6 -11 -9 -16 -6 -4 3 -11 -1 -13 -7 -4
-9 -6 -9 -6 1 -1 11 -5 10 -17 -5 -8 -10 -13 -14 -10 -8 3 6 -1 11 -8 11 -8 0
-12 -7 -8 -15 4 -11 1 -13 -8 -7 -10 6 -12 4 -7 -7 6 -16 -8 -19 -30 -5 -8 5
-11 1 -8 -13 4 -22 -10 -36 -20 -20 -4 6 -11 7 -17 4 -6 -4 -5 -10 3 -16 10
-7 4 -8 -17 -6 -23 3 -31 1 -27 -9 3 -7 10 -13 16 -13 6 0 7 -3 4 -6 -4 -4
-14 -1 -24 7 -15 12 -16 12 -9 -6 4 -11 4 -16 0 -13 -4 4 -16 3 -28 -3 -20
-10 -20 -10 -2 5 11 9 15 16 9 16 -5 0 -18 -9 -28 -20 -16 -18 -14 -25 8 -21
5 1 6 -3 2 -9 -3 -6 -11 -7 -17 -4 -6 4 -18 -2 -26 -12 -14 -18 -14 -18 -8 -1
3 11 2 17 -5 15 -6 -2 -9 -7 -7 -12 2 -5 -7 -13 -20 -17 -14 -5 -20 -14 -16
-20 4 -7 0 -9 -14 -5 -12 4 -23 2 -28 -5 -5 -8 -3 -9 6 -4 9 5 11 4 6 -4 -6
-9 -11 -9 -22 0 -11 9 -14 8 -14 -7 0 -16 -2 -17 -10 -4 -8 12 -10 10 -10 -8
0 -13 -4 -20 -10 -17 -6 4 -8 12 -4 18 3 7 -1 3 -10 -7 -8 -10 -13 -23 -9 -28
3 -6 -5 -5 -17 2 -15 8 -20 8 -16 1 4 -6 2 -11 -3 -11 -6 0 -10 -6 -8 -12 1
-9 -8 -12 -28 -10 -23 2 -27 1 -15 -7 12 -9 9 -11 -13 -11 -16 0 -26 -3 -24
-7 3 -5 -2 -15 -11 -23 -14 -13 -15 -12 -9 3 5 15 -1 13 -37 -8 -23 -14 -46
-22 -50 -18 -4 4 -4 0 -1 -9 6 -14 2 -16 -17 -13 -23 4 -23 4 -3 -11 20 -16
19 -16 -4 -9 -18 6 -22 4 -15 -6 6 -10 3 -10 -11 1 -10 8 -16 10 -12 3 4 -7
-1 -14 -13 -18 -11 -4 -17 -11 -14 -17 5 -8 1 -9 -10 -5 -11 5 -15 3 -10 -5 4
-6 -2 -18 -12 -26 -19 -14 -18 -15 1 -8 19 6 19 5 2 -8 -13 -10 -15 -16 -6
-22 9 -5 7 -11 -6 -21 -11 -7 -15 -13 -11 -13 5 0 3 -7 -4 -15 -11 -13 -10
-14 4 -9 9 3 16 1 16 -5 0 -6 -7 -11 -16 -11 -8 0 -12 -4 -9 -10 3 -5 1 -10
-5 -10 -6 0 -8 -5 -5 -10 3 -5 0 -10 -8 -10 -18 0 -27 -22 -22 -50 2 -11 0
-18 -6 -15 -5 4 -7 10 -4 15 3 5 0 12 -6 16 -8 4 -9 3 -5 -4 3 -6 -3 -16 -14
-22 -11 -6 -20 -16 -20 -22 0 -7 5 -6 15 2 9 7 18 10 21 8 3 -3 -8 -12 -25
-19 -20 -9 -26 -16 -18 -21 9 -6 9 -8 0 -8 -7 0 -13 -5 -13 -11 0 -5 6 -7 13
-4 6 4 1 -2 -13 -13 -19 -16 -24 -28 -22 -61 2 -25 -2 -41 -8 -41 -6 0 -4 -7
4 -16 18 -17 12 -38 -8 -31 -7 3 -13 -1 -13 -9 0 -7 4 -11 8 -8 4 2 6 -7 3
-21 -3 -16 0 -25 8 -25 7 0 2 -7 -10 -16 -12 -8 -26 -13 -30 -10 -4 2 -14 0
-22 -6 -13 -8 -12 -9 2 -5 9 4 19 -1 22 -10 4 -11 2 -14 -9 -9 -8 3 -14 0 -12
-6 1 -6 -4 -13 -12 -16 -8 -3 -11 0 -7 7 4 6 2 11 -3 11 -14 0 -14 -13 1 -28
9 -9 9 -12 1 -12 -7 0 -15 5 -18 10 -9 15 -25 2 -19 -15 4 -9 -2 -13 -20 -11
-21 3 -24 1 -16 -15 13 -23 13 -32 0 -24 -6 4 -7 -1 -3 -12 3 -10 3 -15 -2
-11 -11 11 -35 -11 -35 -31 1 -11 5 -8 15 9 9 15 14 19 15 10 0 -8 9 0 20 18
20 33 37 44 26 16 -3 -9 -2 -12 5 -9 5 4 7 14 5 23 -9 29 7 44 30 27 19 -15
19 -15 0 -8 -15 5 -18 3 -14 -9 4 -8 2 -21 -2 -28 -5 -8 -4 -22 1 -31 5 -11 5
-20 0 -24 -5 -3 -13 4 -16 15 -8 24 -29 22 -31 -4 -2 -13 -1 -13 3 -1 2 8 9
13 14 9 5 -3 7 -10 4 -15 -4 -5 -1 -9 5 -9 6 0 9 -4 5 -10 -3 -5 -12 -7 -19
-4 -8 3 -17 1 -21 -5 -4 -7 0 -8 11 -4 13 5 15 3 9 -8 -5 -8 3 -4 16 7 27 24
56 27 63 8 3 -8 -2 -11 -16 -9 -26 5 -55 -20 -33 -29 8 -3 15 -11 15 -18 0 -9
-3 -9 -12 0 -7 7 -16 12 -22 12 -5 0 -1 -6 9 -14 11 -8 23 -12 27 -10 5 3 8 0
8 -5 0 -6 -6 -11 -12 -12 -7 0 -3 -5 10 -11 14 -7 22 -20 22 -35 0 -16 -4 -22
-12 -17 -6 4 -8 3 -4 -4 3 -6 -1 -17 -9 -25 -17 -18 -20 -31 -5 -22 6 3 10 1
10 -5 0 -6 4 -9 8 -6 5 3 9 0 9 -7 0 -7 -8 -13 -18 -13 -10 0 -16 3 -14 6 2 3
-5 6 -15 6 -10 0 -16 -4 -14 -8 3 -4 0 -8 -6 -8 -6 0 -8 -5 -4 -12 5 -8 2 -9
-9 -5 -10 3 -17 2 -17 -4 0 -6 -4 -8 -9 -5 -5 3 -12 -1 -15 -10 -4 -9 -13 -14
-21 -10 -8 3 -15 1 -15 -4 0 -6 -7 -10 -15 -10 -14 0 -20 -13 -16 -34 1 -5 -6
-3 -15 5 -10 8 -15 9 -11 2 8 -13 -26 -37 -37 -26 -3 3 -6 1 -6 -5 0 -7 5 -12
11 -12 5 0 7 -5 4 -10 -4 -6 -11 -8 -16 -5 -5 4 -12 -1 -15 -10 -6 -13 -8 -14
-15 -3 -6 9 -9 6 -9 -10 0 -13 -4 -20 -10 -17 -5 3 -10 1 -10 -5 0 -6 -6 -8
-12 -4 -7 4 -10 3 -5 -1 4 -5 -5 -17 -20 -27 -16 -10 -23 -18 -18 -18 6 0 17
6 25 12 8 7 6 3 -4 -9 -10 -13 -22 -20 -26 -18 -4 3 -11 -2 -14 -11 -3 -8 -2
-12 4 -9 6 3 10 2 10 -4 0 -5 -4 -12 -9 -16 -12 -7 -6 -42 9 -60 9 -11 7 -12
-9 -8 -13 3 -21 1 -21 -6 0 -7 6 -9 13 -5 9 5 9 3 -1 -7 -11 -12 -14 -12 -23
1 -9 12 -10 10 -6 -8 4 -18 2 -21 -7 -13 -9 7 -16 7 -26 -2 -10 -10 -11 -9 -6
3 4 8 -2 4 -13 -10 -12 -14 -20 -19 -19 -11 2 7 -5 15 -15 16 -15 3 -16 1 -5
-12 12 -15 11 -15 -9 -4 -18 9 -23 9 -23 -1 0 -8 -3 -9 -8 -3 -10 15 -35 18
-26 4 5 -9 2 -10 -9 -6 -10 4 -17 1 -17 -6 0 -9 -3 -8 -9 1 -6 11 -10 10 -15
-4 -5 -13 -9 -15 -18 -6 -7 7 -17 12 -23 12 -5 0 -3 -5 5 -10 12 -8 11 -10 -7
-10 -13 0 -23 -4 -23 -9 0 -6 -9 -8 -21 -6 -15 3 -19 0 -15 -10 3 -9 0 -12
-10 -8 -7 3 -14 0 -14 -7 0 -6 -4 -9 -9 -5 -5 3 -16 -1 -24 -9 -8 -8 -17 -12
-21 -9 -3 4 -6 1 -6 -6 0 -9 -11 -12 -35 -9 -20 2 -35 0 -35 -7 0 -6 -3 -7 -8
0 -4 6 -24 10 -44 10 -20 -1 -34 3 -31 8 3 6 -10 8 -30 5 -20 -2 -33 0 -31 4
3 4 1 8 -5 8 -5 0 -12 -6 -14 -12 -4 -8 -6 -7 -6 3 -1 9 -8 19 -15 22 -10 4
-13 1 -9 -9 7 -18 -28 -7 -40 13 -5 7 -13 11 -18 7 -5 -3 -16 0 -24 6 -12 10
-15 9 -15 -4 0 -10 -5 -14 -10 -11 -6 4 -7 12 -3 18 4 7 -1 6 -10 -2 -15 -12
-17 -12 -10 4 5 14 3 17 -10 12 -9 -3 -17 -2 -17 3 0 5 -12 7 -26 4 -16 -3
-23 -1 -19 6 3 5 2 10 -4 10 -5 0 -13 -5 -16 -10 -4 -7 -14 -5 -27 4 -11 8
-27 12 -36 9 -9 -4 -13 -2 -9 4 3 5 0 10 -8 10 -8 0 -12 -4 -10 -8 3 -4 -2 -9
-10 -12 -9 -4 -12 -1 -9 7 3 8 1 17 -5 21 -6 3 -11 1 -11 -5 0 -6 -5 -8 -10
-5 -6 4 -7 12 -3 18 4 7 -2 5 -12 -3 -10 -8 -16 -10 -12 -3 4 6 2 15 -4 19 -8
4 -9 3 -5 -4 4 -7 1 -12 -9 -12 -9 0 -14 4 -10 9 3 5 1 12 -5 16 -6 4 -7 11
-4 17 4 6 3 8 -3 5 -15 -9 -47 34 -48 66 -2 32 -20 48 -43 39 -11 -4 -13 -1
-7 8 5 8 4 11 -2 7 -6 -4 -14 0 -17 9 -4 11 -2 15 7 11 24 -9 15 21 -10 32
-12 6 -23 15 -23 21 0 7 6 8 19 0 14 -7 22 -7 27 2 4 6 3 8 -2 5 -14 -8 -38 9
-30 22 4 6 12 8 18 5 7 -4 8 -2 4 5 -6 8 -12 9 -20 2 -7 -6 -16 -8 -20 -4 -4
4 -4 -1 0 -12 5 -17 4 -17 -10 3 -10 12 -22 20 -27 17 -5 -3 -6 1 -3 10 4 10
1 14 -7 12 -8 -2 -11 -2 -6 0 4 3 7 12 7 21 0 8 3 12 8 8 7 -7 8 -11 11 -38 1
-9 4 -9 12 2 9 13 10 12 5 -2 -3 -12 -1 -15 9 -12 15 6 -1 44 -18 44 -4 0 -6
4 -2 9 3 6 -4 8 -15 6 -23 -4 -26 5 -7 24 10 10 8 11 -8 5 -18 -7 -18 -6 -6 9
14 17 12 18 -26 20 -10 1 -21 6 -25 11 -4 6 -9 8 -12 6 -2 -3 7 -18 20 -35 14
-16 22 -23 19 -14 -4 10 -2 20 3 23 15 9 11 -42 -4 -55 -11 -9 -13 -9 -9 2 3
8 -6 27 -20 43 -13 16 -22 33 -19 37 3 5 0 9 -5 9 -6 0 -11 -4 -11 -10 0 -5
-4 -10 -10 -10 -21 0 -9 18 21 31 27 11 29 14 15 24 -8 7 -13 15 -9 18 3 4 1
7 -6 7 -7 0 -9 5 -4 13 10 17 12 57 2 63 -4 2 -6 -4 -4 -16 2 -11 0 -22 -5
-25 -11 -7 -5 -42 12 -64 7 -9 8 -13 4 -9 -5 4 -16 2 -25 -5 -14 -10 -14 -10
-3 5 9 11 9 18 3 23 -6 3 -9 21 -6 40 2 21 -1 35 -9 38 -10 4 -13 25 -7 57 1
3 5 -2 11 -10 5 -8 11 -12 14 -9 3 3 -3 15 -15 27 -11 13 -17 28 -13 35 4 6
-2 4 -13 -5 -28 -26 -38 -22 -13 4 l21 23 -21 9 c-11 5 -20 13 -20 18 0 4 -5
8 -11 8 -5 0 -7 -5 -3 -12 4 -7 3 -8 -5 -4 -6 4 -8 12 -5 18 5 7 1 9 -9 5 -11
-4 -14 -2 -10 8 3 8 9 12 14 9 5 -3 9 2 9 11 0 9 -4 13 -10 10 -6 -3 -10 -2
-10 3 0 14 28 23 35 12 3 -5 2 -18 -4 -28 -11 -21 17 -45 39 -32 9 6 7 10 -9
15 -11 3 -21 11 -21 16 0 6 5 7 10 4 6 -3 10 -2 10 4 0 5 -4 13 -10 16 -5 3
-10 11 -10 17 0 6 7 5 18 -3 15 -12 16 -12 5 2 -7 9 -9 20 -5 25 4 4 0 3 -9
-4 -9 -7 -25 -9 -34 -5 -13 4 -16 3 -11 -5 5 -8 1 -10 -10 -5 -10 4 -15 2 -11
-3 3 -5 -3 -10 -14 -10 -19 0 -19 1 -1 16 10 8 17 25 16 38 0 12 2 22 5 22 4
0 7 9 8 20 1 11 -2 18 -7 15 -6 -3 -7 0 -4 8 3 8 -1 17 -9 20 -10 4 -13 0 -10
-13 3 -10 -1 -21 -8 -25 -8 -5 -10 -4 -5 4 16 25 -13 61 -45 57 -14 -2 -48 37
-42 48 3 6 3 8 -1 4 -5 -4 -18 -3 -31 2 -27 10 -38 3 -22 -15 8 -8 16 -10 23
-4 7 6 16 3 25 -8 13 -16 12 -17 -3 -5 -12 9 -18 10 -23 2 -5 -8 -12 -7 -24 4
-10 9 -21 13 -24 9 -4 -3 -7 -2 -7 4 0 12 26 26 52 27 9 1 20 4 24 8 3 4 -3 6
-14 3 -23 -4 -39 23 -18 31 7 3 13 11 13 19 0 8 -4 12 -8 9 -4 -2 -10 0 -14 6
-3 5 -1 10 4 10 6 0 11 5 11 11 0 8 -5 7 -15 -1 -9 -7 -19 -10 -22 -6 -4 4 -1
11 6 15 8 5 9 11 3 15 -5 3 -13 -1 -16 -10 -3 -8 -10 -12 -16 -9 -5 3 -10 1
-10 -4 0 -6 7 -11 15 -11 8 0 15 -5 15 -11 0 -5 4 -7 10 -4 6 3 7 -1 3 -10 -5
-13 -7 -14 -14 -3 -5 7 -16 13 -26 13 -19 0 -25 31 -10 52 4 6 4 20 -1 30 -5
10 -15 30 -23 46 -7 15 -16 27 -21 27 -5 0 -6 -4 -3 -10 3 -5 1 -10 -5 -10 -6
0 -9 -4 -6 -8 3 -5 -1 -9 -9 -9 -10 0 -10 5 3 25 29 44 24 66 -8 37 -14 -13
-17 -13 -17 -1 0 8 3 14 6 14 14 -3 40 15 35 23 -3 5 -15 5 -27 -2 -21 -10
-21 -9 2 10 26 24 42 20 36 -9 -2 -12 0 -18 6 -15 5 4 8 1 7 -7 -2 -7 3 -12
10 -10 8 1 11 -2 7 -8 -3 -6 -11 -8 -16 -5 -12 8 -11 -6 1 -25 9 -13 10 -13
10 0 0 13 1 13 10 0 5 -8 7 -23 4 -32 -4 -13 0 -18 13 -18 15 0 16 2 3 10 -13
8 -13 10 0 10 11 0 11 3 2 12 -17 17 -15 33 2 19 11 -9 16 -9 22 0 4 7 3 9 -4
5 -6 -3 -13 -2 -17 4 -4 6 -11 8 -16 5 -10 -7 -7 19 6 48 4 10 5 21 1 24 -3 4
-6 -1 -6 -9 0 -10 -7 -15 -17 -13 -10 2 -20 4 -22 4 -3 1 3 7 14 14 14 11 15
16 5 22 -9 5 -11 4 -6 -3 4 -7 3 -12 -2 -12 -6 0 -12 7 -16 15 -6 16 -26 16
-38 0 -11 -14 -10 7 1 24 7 11 13 11 32 1 23 -13 24 -12 7 7 -22 24 -23 44 -3
37 8 -4 12 -10 9 -15 -3 -5 0 -9 5 -9 14 0 14 17 1 25 -21 13 -74 15 -62 3 15
-15 15 -28 2 -28 -5 0 -9 6 -7 12 1 8 -7 12 -18 11 -20 -2 -20 -1 0 13 11 8
25 12 31 10 8 -3 10 3 7 17 -5 22 -5 22 11 2 17 -20 17 -20 7 1 -6 12 -8 24
-4 27 3 4 0 13 -6 21 -15 17 -5 39 12 30 7 -4 6 -1 -2 7 -10 11 -15 11 -18 1
-3 -6 -9 -10 -14 -6 -5 3 -6 11 -2 17 12 19 12 57 0 57 -8 0 -8 3 1 12 7 7 12
17 12 23 0 5 -5 2 -11 -7 -11 -20 -18 -22 -37 -9 -11 6 -9 15 7 44 11 20 17
36 13 36 -18 -3 -32 2 -32 12 0 5 5 7 10 4 6 -3 10 -1 10 4 0 6 -5 11 -11 11
-5 0 -7 5 -4 10 5 8 12 7 23 -2 10 -8 13 -9 9 -1 -4 6 -3 14 3 18 5 3 10 0 10
-7 0 -9 3 -9 10 2 11 18 29 20 50 6 8 -6 12 -7 8 -2 -8 9 31 50 40 41 4 -3 0
-10 -8 -15 -13 -8 -13 -11 -1 -22 8 -7 11 -8 8 -2 -4 7 0 15 9 18 23 9 56 7
50 -2 -3 -5 5 -8 16 -7 12 1 24 7 26 13 2 7 8 12 13 12 6 0 7 -6 3 -12 -6 -10
-4 -10 7 -3 12 9 71 12 89 5 23 -9 38 -6 33 5 -3 10 -17 13 -44 10 -21 -2 -41
0 -44 6 -4 5 -11 6 -17 3 -7 -5 -8 -2 -3 6 5 9 0 7 -15 -3 -18 -12 -27 -14
-37 -5 -9 7 -13 7 -13 -1 0 -6 5 -11 10 -11 6 0 10 -5 10 -12 0 -8 -6 -7 -16
4 -21 21 -9 45 13 26 14 -11 15 -10 10 7 -7 23 8 54 20 41 4 -5 2 -11 -4 -13
-18 -6 -16 -20 2 -20 14 0 19 10 16 30 -1 5 3 6 9 2 5 -3 10 3 10 14 0 11 4
22 9 26 6 3 7 -6 2 -22 -10 -34 -4 -56 12 -46 7 4 6 -1 -2 -10 -9 -12 -10 -17
-2 -17 6 0 14 7 18 16 4 12 8 13 14 3 15 -24 47 -18 46 9 -2 19 3 25 23 28 14
1 19 0 12 -2 -6 -3 -9 -11 -5 -17 4 -7 -1 -6 -10 2 -18 14 -22 5 -11 -23 5
-12 10 -14 19 -6 10 9 16 6 25 -12 10 -21 10 -21 -3 -5 -10 12 -17 14 -22 7
-3 -5 -12 -7 -18 -4 -7 4 -8 3 -4 -1 4 -5 13 -10 20 -11 7 -1 17 -3 22 -4 20
-5 46 0 42 8 -3 4 2 13 10 21 13 12 14 11 9 -6 -5 -17 -2 -20 16 -19 13 1 29
-3 37 -8 12 -9 13 -8 6 3 -6 11 -3 13 12 9 15 -4 20 -1 19 11 -1 10 5 15 18
13 10 -2 15 1 12 7 -4 5 -2 12 3 15 5 4 13 1 17 -5 5 -8 3 -9 -6 -4 -8 5 -11
4 -7 -2 4 -6 20 -9 37 -7 21 3 29 0 24 -8 -4 -7 -3 -8 4 -4 6 4 9 14 6 24 -5
13 -4 14 4 3 7 -10 22 -12 53 -8 32 4 39 3 27 -4 -10 -6 -18 -15 -18 -22 0 -8
3 -8 9 2 7 11 11 10 20 -5 10 -18 10 -18 11 3 0 15 6 21 19 20 11 0 18 -4 16
-7 -2 -3 6 -12 18 -20 21 -12 21 -12 7 5 -14 17 -13 17 6 7 12 -6 26 -7 34 -2
9 5 20 4 30 -3 13 -11 13 -10 0 7 -14 18 -13 19 4 13 14 -6 17 -4 12 9 -6 15
-4 15 11 3 15 -12 16 -12 11 2 -4 9 -1 16 7 16 8 0 11 -7 7 -15 -3 -10 -1 -13
6 -8 7 4 12 14 12 23 0 9 6 13 15 9 13 -5 14 -2 4 17 -12 21 -11 21 6 7 11 -9
16 -10 11 -2 -4 7 -2 12 4 12 6 0 9 4 6 9 -11 18 27 21 40 4 12 -17 13 -16 7
5 -3 12 -10 22 -16 22 -6 0 -7 3 -4 7 4 3 19 -4 34 -18 14 -13 23 -18 19 -11
-4 7 -1 12 8 12 24 0 48 30 37 44 -8 9 -6 13 7 13 25 0 44 -18 37 -36 -4 -14
-4 -14 7 -1 17 20 54 48 46 35 -4 -6 1 -19 9 -30 9 -12 13 -14 11 -5 -5 15 13
40 28 40 5 0 3 -5 -4 -12 -17 -17 -15 -24 8 -25 11 -1 20 3 20 8 0 6 -5 7 -12
3 -6 -4 -8 -3 -5 4 8 12 25 11 47 -3 13 -8 13 -7 0 10 -14 17 -13 18 20 12 25
-5 31 -4 20 3 -13 8 -8 14 11 12 3 -1 6 6 6 13 0 12 -3 12 -15 3 -16 -14 -53
-19 -46 -6 4 5 12 7 19 4 17 -6 39 19 30 34 -3 6 -11 7 -17 4 -7 -4 -8 -2 -4
5 4 6 13 8 19 4 25 -16 80 -10 85 9 2 10 8 18 14 18 5 0 4 -8 -1 -19 -6 -10
-8 -21 -5 -24 3 -3 -2 -4 -13 -3 -10 2 -24 -4 -31 -13 -11 -14 -11 -14 -6 2 4
10 1 17 -6 17 -6 0 -8 -5 -4 -12 4 -7 3 -8 -4 -4 -8 5 -10 2 -6 -8 7 -19 14
-19 36 -3 9 7 35 13 57 12 22 -1 37 3 34 8 -3 4 3 7 13 5 11 -2 18 2 17 10 -4
17 14 15 24 -3 7 -12 10 -11 21 5 9 14 9 21 0 26 -7 4 -14 2 -16 -4 -2 -7 -8
-9 -13 -6 -6 3 -2 12 8 19 15 11 20 10 33 -4 21 -25 49 -23 44 2 -3 17 1 19
29 13 23 -4 28 -3 17 4 -14 9 -7 14 13 11 5 -1 6 3 2 9 -3 6 -12 7 -18 3 -22
-14 -36 -11 -29 5 4 10 7 12 10 4 2 -7 8 -9 13 -6 6 4 6 10 0 18 -7 8 -6 17 1
26 8 12 9 12 4 -2 -6 -21 25 -41 48 -32 16 6 19 15 17 49 -1 17 1 17 14 -5
l15 -25 6 23 c5 18 9 21 16 10 7 -9 9 -8 5 7 -3 17 1 21 25 23 17 1 37 9 45
17 8 8 19 13 24 9 5 -3 9 -2 8 3 -4 21 3 31 21 36 11 3 20 11 20 17 0 9 -5 9
-17 -1 -16 -12 -17 -12 -6 2 7 9 10 19 6 23 -4 4 0 4 9 1 9 -4 19 -1 23 5 5 8
11 8 21 -1 9 -7 14 -8 13 -3 -4 23 3 35 27 44 18 7 24 16 22 32 -2 17 2 22 13
20 9 -1 20 5 23 14 5 14 4 15 -8 5 -19 -16 -31 3 -16 26 10 16 11 16 6 1 -3
-12 -1 -15 10 -11 13 5 12 9 -5 27 -11 11 -20 26 -20 31 -1 6 -4 10 -8 10 -5
0 -15 4 -23 9 -12 7 -13 6 -2 -5 16 -18 16 -34 -1 -20 -10 8 -14 7 -14 -3 0
-10 9 -13 26 -10 21 4 23 2 11 -7 -13 -9 -12 -10 3 -5 11 4 16 2 12 -5 -4 -5
-12 -8 -18 -6 -7 2 -21 -3 -32 -12 -11 -8 -15 -9 -8 -2 13 15 1 45 -26 67 -15
11 -61 -3 -61 -19 0 -5 4 -5 10 -2 5 3 7 0 5 -7 -4 -9 2 -14 16 -15 16 -2 18
1 9 12 -6 8 -8 20 -4 26 10 17 34 -18 27 -39 -5 -11 -3 -13 8 -7 8 4 11 4 7 0
-18 -20 -59 -13 -75 12 -16 24 -16 26 3 41 15 12 16 14 2 9 -10 -3 -20 -2 -23
3 -7 11 -35 2 -35 -12 0 -6 6 -5 15 2 9 7 15 8 15 2 0 -16 -30 -23 -36 -8 -4
11 -39 16 -39 5 0 -1 -9 -3 -20 -5 -86 -14 -97 -11 -101 33 -5 54 -11 66 -32
68 -24 2 -30 -10 -9 -18 6 -3 2 -4 -10 -4 -12 1 -19 6 -17 12 3 5 -1 2 -10 -9
-8 -10 -19 -15 -24 -12 -5 3 -15 -1 -22 -9 -7 -8 -17 -12 -24 -8 -6 3 -2 -4 9
-18 11 -13 13 -18 4 -11 -12 9 -19 9 -35 -4 -10 -8 -12 -12 -4 -8 8 4 11 3 7
-1 -7 -9 -28 -15 -55 -17 -7 -1 -11 -7 -8 -14 7 -19 -5 -24 -28 -12 -19 10
-20 10 -8 -5 12 -14 11 -16 -7 -12 -14 3 -19 0 -15 -7 5 -7 2 -9 -8 -5 -17 6
-19 -8 -4 -32 6 -9 5 -12 -2 -7 -5 3 -12 1 -14 -6 -3 -7 -7 -5 -11 6 -4 10 -3
15 3 11 6 -3 7 1 4 10 -6 14 -8 13 -21 -5 -8 -11 -18 -18 -22 -15 -5 2 -23
-11 -40 -31 -18 -19 -37 -31 -43 -28 -6 4 -8 3 -5 -3 4 -6 0 -14 -9 -17 -9 -3
-14 -13 -10 -21 3 -8 1 -17 -5 -20 -5 -4 -8 -1 -7 6 2 6 -3 14 -11 17 -8 3
-11 0 -7 -7 4 -6 -3 -15 -18 -21 -14 -5 -26 -12 -26 -15 0 -4 5 -3 12 1 7 4 8
3 4 -4 -4 -6 -13 -9 -21 -5 -8 3 -15 0 -15 -6 0 -6 5 -11 12 -11 6 0 9 -3 6
-6 -4 -3 -17 0 -30 7 -20 11 -21 10 -11 -3 10 -12 10 -15 0 -16 -30 -2 -47 -9
-64 -24 -10 -9 -22 -17 -28 -18 -5 -1 -9 -7 -7 -12 2 -6 -4 -8 -12 -5 -9 4
-18 1 -22 -5 -4 -7 -3 -8 4 -4 8 5 10 1 5 -9 -4 -13 -8 -14 -13 -4 -5 7 -6 18
-3 26 3 7 0 13 -6 13 -6 0 -11 -6 -11 -14 0 -8 -5 -18 -12 -22 -6 -4 -9 -3 -6
2 3 5 -1 16 -10 23 -14 13 -15 13 -10 -5 4 -16 0 -20 -21 -21 -23 -2 -24 -1
-6 7 18 8 17 9 -7 9 -22 1 -25 -3 -22 -21 4 -21 4 -21 -7 2 -10 21 -13 22 -16
7 -3 -9 -9 -15 -14 -11 -5 3 -22 -4 -38 -16 -19 -13 -32 -17 -36 -10 -5 8 -11
8 -19 1 -7 -6 -17 -7 -21 -3 -5 4 -5 2 -1 -5 3 -7 -2 -14 -14 -18 -11 -4 -18
-9 -16 -13 2 -4 -3 -13 -11 -21 -13 -12 -14 -11 -8 9 l7 22 -24 -24 c-12 -12
-22 -27 -20 -31 1 -5 -2 -6 -8 -2 -6 3 -8 11 -5 16 11 16 -7 9 -21 -8 -8 -11
-13 -13 -14 -5 0 6 -5 12 -11 12 -5 0 -7 -6 -3 -12 5 -9 2 -8 -9 1 -10 8 -20
11 -24 8 -3 -4 -12 -2 -20 4 -10 9 -13 8 -13 -5 0 -9 -4 -16 -10 -16 -5 0 -9
6 -7 13 1 7 -7 11 -22 9 -13 -2 -28 2 -32 10 -7 10 -9 10 -9 1 0 -7 -7 -13
-16 -13 -8 0 -13 4 -10 8 2 4 -4 9 -15 9 -18 2 -19 0 -7 -15 11 -15 11 -15 -3
-5 -9 7 -20 9 -24 5 -5 -4 -5 -2 -2 4 6 10 -36 17 -100 16 -13 0 -20 4 -17 9
3 5 0 9 -5 9 -6 0 -11 -6 -11 -12 0 -9 -3 -8 -9 2 -6 8 -7 18 -4 24 3 5 1 6
-5 2 -6 -4 -10 -12 -8 -19 1 -7 1 -9 -1 -4 -3 4 -9 5 -14 2 -5 -4 -6 2 -2 12
6 17 5 17 -15 -1 -12 -10 -19 -24 -15 -30 3 -6 2 -7 -2 -3 -12 10 -15 38 -4
31 5 -3 9 0 9 6 0 12 -37 9 -58 -3 -7 -5 -9 -13 -6 -19 5 -7 2 -8 -5 -3 -9 5
-7 13 10 31 22 24 17 32 -10 15 -9 -6 -22 -4 -35 4 -12 8 -27 11 -34 6 -13 -8
4 -22 30 -25 3 -1 9 -4 13 -8 11 -10 -17 -3 -43 11 -19 10 -21 15 -11 27 6 8
9 17 5 21 -3 3 -6 1 -6 -5 0 -7 -5 -12 -11 -12 -5 0 -7 6 -3 13 4 6 -4 0 -19
-16 -25 -26 -44 -37 -33 -18 3 5 -1 11 -9 15 -8 3 -15 10 -15 16 0 6 7 4 16
-4 8 -9 20 -16 27 -16 6 0 0 10 -13 22 -13 13 -31 23 -39 23 -8 0 -15 6 -17
13 -1 7 0 8 3 2 2 -5 9 -10 14 -10 6 0 7 6 3 13 -4 6 6 0 23 -15 31 -30 43
-34 43 -18 0 6 -7 10 -16 10 -10 0 -14 6 -11 14 4 11 1 13 -10 9 -12 -5 -14
-3 -8 7 5 8 4 11 -1 7 -22 -13 -38 10 -20 28 10 11 14 24 10 34 -3 9 -7 22 -7
29 0 6 -3 12 -6 13 -48 6 -60 15 -41 32 10 9 11 9 6 0 -4 -7 -2 -13 4 -13 7 0
9 7 6 16 -3 9 -6 20 -6 25 0 5 -4 9 -10 9 -5 0 -9 -5 -7 -11 1 -6 -5 -14 -13
-16 -12 -4 -12 -3 -1 5 11 8 11 10 0 14 -11 4 -12 8 -2 20 7 8 10 18 6 21 -3
4 -12 -1 -20 -11 -12 -16 -13 -16 -6 2 4 13 3 17 -5 12 -6 -3 -13 -2 -16 3 -3
4 2 8 12 8 33 0 42 3 42 14 0 6 -10 8 -22 5 -13 -3 -17 -3 -10 0 6 3 12 10 12
15 0 6 -7 6 -18 0 -13 -7 -19 -6 -19 2 0 7 13 12 28 12 15 1 26 -2 23 -6 -2
-4 0 -10 5 -14 6 -3 8 -19 6 -35 -2 -17 0 -30 5 -30 5 0 7 16 6 35 -2 21 1 35
8 35 6 0 3 5 -6 11 -9 5 -15 16 -12 23 3 8 1 17 -5 20 -6 4 -8 13 -4 21 3 8 0
15 -6 15 -7 0 -11 14 -9 35 1 19 -1 37 -5 41 -4 4 1 16 10 26 10 11 13 19 8
18 -20 -4 -35 0 -35 11 0 6 9 8 23 4 12 -3 18 -3 12 2 -16 13 -37 54 -31 61 3
3 6 0 6 -7 0 -7 5 -9 12 -5 6 4 8 3 4 -4 -3 -6 -3 -13 2 -16 4 -2 9 4 9 15 1
10 -2 19 -8 19 -5 0 -9 5 -9 11 0 5 4 7 10 4 6 -4 7 1 3 12 -6 16 -5 17 13 3
17 -14 18 -14 6 1 -7 9 -10 25 -6 35 5 16 4 16 -5 4 -9 -13 -12 -13 -23 -1
-11 11 -11 13 1 6 11 -6 13 -4 8 9 -6 14 -3 16 16 10 19 -6 18 -3 -8 21 -30
28 -30 28 -2 11 30 -18 35 -2 7 22 -13 11 -13 12 0 10 8 -2 14 3 13 10 -2 6 1
12 6 12 4 0 8 8 8 18 0 35 3 43 16 37 6 -4 4 0 -5 8 -22 17 -23 28 -4 21 8 -3
17 0 22 7 4 8 3 10 -4 5 -7 -4 -12 -2 -12 4 0 6 -6 8 -12 4 -7 -4 -4 2 6 14
22 25 11 30 -14 7 -14 -13 -17 -13 -17 0 0 8 4 12 9 9 4 -3 11 2 14 11 4 8 16
20 28 26 20 10 20 9 2 -5 -18 -15 -18 -15 1 -13 17 1 20 7 17 44 -1 24 2 41 6
38 5 -3 12 0 16 6 4 8 3 9 -4 5 -7 -4 -12 -3 -12 2 0 6 7 13 16 16 8 3 13 10
9 15 -3 5 -1 12 5 16 5 3 10 1 10 -6 0 -7 3 -9 7 -5 5 4 0 13 -9 20 -21 15
-17 48 6 52 17 2 17 2 0 -17 -9 -10 -12 -19 -6 -19 6 0 16 9 21 19 12 22 -26
82 -39 61 -5 -8 -9 -6 -14 6 -4 10 -4 15 0 11 4 -4 12 0 18 8 8 11 15 12 26 4
13 -9 12 -10 -2 -5 -27 8 -22 -7 13 -40 l32 -29 -19 30 c-17 27 -17 29 -1 16
10 -8 20 -11 24 -7 3 3 1 6 -5 6 -7 0 -12 9 -12 21 0 11 3 18 8 16 4 -3 14 2
22 11 13 14 12 15 -3 9 -9 -3 -16 -3 -16 1 3 18 -2 22 -15 10 -8 -7 -12 -16
-9 -20 2 -5 -1 -8 -6 -8 -6 0 -11 5 -11 11 0 6 -6 7 -12 2 -7 -4 -5 5 5 21 24
35 16 45 -10 12 l-20 -24 -29 24 -29 25 28 -17 c28 -17 29 -16 51 7 28 29 16
54 -49 102 -22 16 -32 27 -23 24 9 -3 19 -3 21 1 2 4 2 1 0 -7 -2 -8 2 -11 12
-7 9 3 14 2 11 -3 -3 -5 1 -15 10 -22 13 -11 14 -9 8 16 -5 20 -4 26 5 21 6
-4 9 -11 6 -16 -9 -15 15 -22 30 -10 19 16 19 1 0 -24 -8 -11 -15 -25 -15 -30
0 -6 4 -5 9 3 6 9 8 2 7 -22 0 -19 -4 -39 -9 -43 -15 -16 -6 -26 11 -11 12 11
22 13 32 7 8 -5 20 -10 25 -10 6 0 3 5 -5 10 -13 9 -13 11 -1 19 17 11 24 41
10 41 -6 0 -7 5 -4 10 4 6 11 7 17 4 6 -4 6 0 -1 13 -6 11 -7 24 -3 28 4 5 1
5 -5 1 -7 -4 -13 -3 -13 3 0 5 6 12 13 14 6 3 -3 4 -20 3 -33 -3 -67 13 -69
33 -1 6 -2 16 -3 22 -1 14 -31 -8 -31 -23 0 -7 5 -6 13 1 10 8 14 7 14 -2 0
-7 -9 -14 -19 -14 -20 -2 -24 17 -7 34 8 8 8 13 0 17 -6 4 -11 2 -11 -3 0 -6
-5 -11 -10 -11 -6 0 -5 8 2 19 11 18 13 18 25 3 7 -10 13 -12 13 -5 0 6 -7 19
-16 27 -18 18 -11 21 16 6 20 -11 34 1 35 30 0 8 5 15 12 15 6 0 15 4 20 9 5
5 3 6 -4 2 -19 -11 -15 5 5 20 9 7 13 14 9 14 -4 0 -20 -12 -34 -27 -17 -18
-24 -22 -20 -10 7 20 3 21 -23 7 -13 -7 -21 -7 -25 0 -4 6 -10 8 -15 5 -5 -3
-12 0 -16 6 -5 8 -3 9 6 4 10 -6 12 -3 7 14 -3 14 0 24 12 30 14 8 17 5 18
-17 0 -15 -1 -19 -4 -9 -2 9 -8 17 -13 17 -5 0 -6 -9 -2 -21 5 -11 11 -20 15
-20 4 1 11 1 15 1 19 0 6 65 -13 68 -11 2 -24 9 -30 14 -7 7 -2 8 13 3 22 -6
23 -5 13 14 -7 12 -17 21 -24 21 -7 0 -6 4 3 10 14 9 6 15 -15 10 -5 -1 -1 8
9 19 18 20 11 29 -10 14 -5 -5 -2 -1 8 8 9 9 14 20 10 24 -4 4 3 1 16 -6 17
-11 19 -16 10 -24 -18 -14 -22 -39 -6 -29 10 6 10 4 0 -8 -9 -11 -10 -18 -2
-23 9 -6 15 14 11 44 -2 7 2 11 6 8 5 -3 15 -2 23 4 10 6 11 9 3 9 -7 0 -13 7
-13 16 0 8 -3 13 -8 10 -4 -2 -16 2 -27 10 -10 8 -14 14 -8 14 7 0 15 -5 19
-12 5 -8 11 -5 20 7 15 20 3 45 -22 45 -7 0 -16 4 -19 10 -4 7 2 7 19 1 26
-10 54 7 38 24 -4 5 -1 5 6 1 7 -4 10 -11 8 -15 -3 -4 7 -7 22 -8 15 0 19 1 9
4 -9 2 -14 9 -11 15 4 7 2 8 -4 4 -7 -4 -12 -3 -12 2 0 17 13 22 29 9 14 -11
15 -10 1 7 -8 11 -14 22 -14 25 1 3 -1 12 -4 20 -3 7 1 23 8 35 12 18 11 19
-2 9 -8 -7 -18 -10 -21 -6 -4 3 -13 0 -22 -7 -9 -7 -18 -10 -21 -7 -3 3 4 10
15 17 23 12 29 32 7 24 -16 -6 -28 19 -20 41 6 14 18 19 37 16 4 0 7 4 7 10 0
6 -7 9 -15 5 -17 -6 -19 2 -6 23 5 8 14 10 21 6 9 -6 11 -4 6 4 -5 7 -14 10
-22 7 -8 -3 -14 -1 -14 5 0 6 -4 8 -8 5 -5 -3 -8 8 -8 24 0 16 3 27 7 24 5 -2
6 -11 3 -18 -3 -7 2 -16 12 -20 12 -5 14 -3 8 6 -16 21 -17 68 -2 68 7 1 2 7
-11 14 -23 13 -23 14 -5 20 11 3 20 16 20 31 2 22 0 24 -15 13 -11 -9 -10 -6
3 10 19 22 19 22 0 23 -13 0 -15 2 -5 6 8 3 21 -3 29 -13 13 -18 14 -18 7 4
-4 14 -2 22 6 22 7 0 5 8 -7 22 -10 12 -13 18 -5 13 14 -8 14 -4 -3 80 -5 21
-4 26 3 15 5 -8 7 -18 5 -22 -3 -4 2 -8 12 -8 12 0 14 3 5 13 -8 10 -7 17 2
27 9 10 9 11 0 6 -8 -5 -13 -1 -13 9 0 9 5 13 10 10 6 -3 10 -1 10 4 0 6 -3
11 -8 11 -4 0 -13 10 -21 23 l-14 22 23 -20 c13 -11 20 -14 16 -7 -4 7 -3 18
3 25 7 9 7 17 -1 27 -8 12 -9 12 -4 -2 3 -10 2 -19 -2 -22 -4 -3 -8 4 -9 14
-1 11 3 22 8 25 5 4 7 12 3 18 -3 7 1 5 8 -4 12 -15 15 -15 28 -1 13 14 12 15
-3 9 -9 -3 -17 -2 -17 3 0 11 12 13 49 10 16 -1 21 2 16 11 -5 8 -4 10 4 5 6
-4 9 -11 6 -16 -3 -5 -1 -11 5 -15 5 -3 10 0 10 8 0 10 7 13 20 10 11 -3 17
-10 13 -17 -4 -7 -1 -6 7 1 11 10 17 10 29 0 12 -9 13 -9 7 1 -4 7 -1 12 9 12
10 0 13 -5 9 -12 -5 -9 -2 -9 9 1 9 7 17 9 17 4 0 -5 6 -10 13 -11 6 0 25 -3
40 -5 22 -4 27 -1 22 11 -4 12 0 11 16 -4 20 -17 22 -17 16 -1 -4 9 -2 17 3
17 6 0 10 -8 11 -17 0 -10 3 -13 5 -6 3 7 12 9 20 6 7 -3 11 -10 7 -17 -3 -6
-1 -6 8 2 17 15 43 16 33 0 -4 -7 -3 -8 5 -4 6 4 9 11 6 16 -3 4 2 11 11 14 8
3 13 2 10 -3 -3 -5 1 -12 10 -15 20 -8 25 -8 22 2 -2 4 2 8 7 10 6 1 10 -2 10
-7 0 -5 4 -13 9 -18 5 -5 6 -3 2 5 -9 15 25 17 41 1 8 -8 13 -7 18 2 5 8 4 10
-3 5 -8 -5 -10 -1 -5 10 5 15 7 14 16 -2 15 -28 15 -28 32 -14 12 10 15 10 15
0 0 -9 4 -9 17 1 11 10 14 10 9 2 -9 -16 -1 -16 26 -2 16 9 19 8 13 -2 -6 -8
-4 -11 7 -6 9 3 20 1 26 -5 6 -6 12 -6 17 3 5 8 4 10 -3 5 -8 -5 -10 -2 -6 9
5 13 9 12 25 -6 18 -21 19 -21 19 -3 0 16 2 17 10 4 5 -8 10 -11 10 -6 0 6 6
3 13 -6 14 -17 52 -34 42 -18 -3 6 1 7 9 4 9 -3 13 -11 9 -18 -3 -6 4 -2 16 8
20 18 21 18 15 2 -6 -16 -4 -17 14 -7 22 11 28 5 23 -22 -1 -5 3 -6 9 -2 6 3
8 11 5 16 -10 15 12 10 29 -6 16 -16 31 -20 22 -6 -10 16 43 9 56 -8 10 -13
10 -14 -2 -3 -17 15 -30 16 -30 2 0 -6 3 -9 8 -9 4 1 9 0 12 -1 20 -8 39 -7
34 2 -4 6 -1 9 7 6 8 -3 14 -10 14 -15 0 -6 4 -15 9 -20 5 -5 6 -3 2 5 -9 16
14 15 36 -2 10 -7 14 -17 10 -22 -4 -4 1 -2 11 5 15 12 17 11 17 -9 0 -19 3
-20 15 -10 12 10 14 8 11 -7 -2 -10 3 -25 12 -33 14 -13 15 -12 9 2 -4 12 -2
15 8 11 8 -3 12 -9 9 -14 -3 -5 0 -9 7 -9 8 0 8 -5 -2 -17 -7 -10 -10 -15 -5
-11 9 7 41 -19 41 -34 0 -5 7 -13 15 -18 8 -5 11 -10 5 -10 -5 0 -3 -5 5 -10
13 -8 13 -10 0 -10 -10 0 -7 -5 8 -16 12 -8 22 -20 22 -26 0 -7 -7 -3 -15 8
-14 18 -14 17 -5 -8 5 -15 6 -27 2 -27 -18 3 -26 -2 -15 -9 9 -6 6 -11 -8 -21
-12 -7 -18 -8 -14 -2 3 6 2 11 -3 11 -6 0 -12 -7 -16 -15 -4 -11 -11 -13 -31
-5 -20 8 -27 6 -31 -5 -4 -8 -10 -15 -16 -15 -5 0 -7 4 -4 8 3 5 -1 9 -9 9 -8
0 -12 -3 -10 -7 2 -4 -10 -7 -28 -8 -21 0 -37 -8 -46 -21 -7 -12 -19 -21 -25
-21 -6 0 -4 5 4 10 12 7 10 9 -7 7 -12 0 -19 -5 -17 -9 3 -4 0 -8 -5 -8 -6 0
-11 -5 -11 -11 0 -6 8 -8 18 -5 15 5 15 5 -1 -8 -11 -8 -28 -13 -38 -11 -21 4
-42 -31 -31 -50 3 -5 -2 -4 -11 4 -10 8 -20 11 -24 7 -3 -3 -1 -6 5 -6 7 0 12
-5 12 -11 0 -5 -4 -7 -10 -4 -5 3 -10 -1 -10 -9 0 -8 -4 -18 -10 -21 -5 -3 -7
0 -4 8 3 8 0 18 -7 23 -7 4 -10 3 -5 -4 3 -6 -3 -16 -14 -22 -11 -6 -20 -16
-19 -23 4 -33 -1 -41 -14 -23 -13 17 -14 17 -28 0 -7 -10 -9 -15 -2 -11 6 4
14 3 17 -2 3 -5 -8 -8 -24 -7 -36 3 -39 -7 -7 -22 21 -11 21 -11 -5 -7 -16 2
-28 -1 -28 -6 0 -6 -4 -8 -9 -5 -5 3 -14 -8 -20 -24 -5 -17 -13 -30 -16 -30
-3 0 -3 6 1 13 4 6 -3 3 -17 -8 -13 -11 -26 -22 -29 -24 -3 -2 6 0 20 3 l25 7
-25 -15 c-14 -8 -28 -12 -32 -10 -3 2 -10 -1 -14 -7 -4 -8 -3 -9 4 -5 7 4 12
2 12 -3 0 -6 -7 -11 -16 -11 -8 0 -12 -4 -9 -10 3 -5 -3 -10 -14 -10 -11 0
-25 -9 -31 -20 -6 -11 -16 -17 -22 -14 -7 5 -9 2 -6 -8 4 -8 0 -15 -8 -15 -7
0 -10 5 -7 11 3 6 -4 1 -16 -12 -18 -18 -26 -21 -37 -11 -12 10 -13 9 -9 -4 4
-8 1 -18 -6 -23 -8 -4 -10 -3 -5 4 5 8 2 10 -8 6 -9 -3 -14 -9 -13 -12 1 -4
-2 -8 -7 -9 -14 -2 -28 -32 -21 -43 3 -6 1 -10 -5 -10 -6 0 -8 -5 -4 -12 4 -7
3 -8 -4 -4 -6 4 -8 14 -5 24 7 18 5 17 -17 -12 -8 -11 -10 -17 -4 -13 7 4 14
1 17 -7 4 -10 -1 -12 -16 -9 -22 5 -22 5 -2 -11 19 -15 19 -16 1 -9 -13 4 -17
3 -12 -5 5 -8 2 -10 -8 -6 -9 3 -16 1 -16 -5 0 -6 5 -11 10 -11 6 0 10 -5 10
-11 0 -5 -4 -8 -9 -4 -5 3 -12 1 -15 -4 -4 -5 5 -8 19 -7 13 2 22 -1 19 -5 -3
-5 -11 -9 -19 -9 -8 0 -16 -4 -20 -9 -3 -6 7 -8 22 -5 21 3 24 2 12 -5 -16
-11 -19 -57 -4 -80 5 -10 4 -12 -3 -7 -7 4 -12 2 -12 -3 0 -6 5 -11 10 -11 6
0 10 -5 10 -11 0 -5 -4 -7 -10 -4 -6 3 -7 -1 -4 -9 3 -9 1 -16 -5 -16 -6 0
-11 -5 -11 -12 0 -6 7 -4 18 5 15 14 19 15 19 2 0 -8 -4 -12 -9 -9 -4 3 -8 1
-8 -5 0 -5 -8 -17 -17 -27 -17 -16 -26 -84 -12 -84 3 0 6 -7 6 -15 0 -8 -5
-15 -11 -15 -6 0 -4 -4 4 -9 8 -6 18 -7 24 -4 5 4 7 -1 3 -10 -4 -12 -2 -14
10 -10 10 4 14 2 9 -5 -3 -6 -1 -14 5 -18 8 -4 9 -3 5 4 -4 7 -2 12 3 12 6 0
11 -4 11 -10 0 -5 5 -10 11 -10 8 0 9 4 0 13 -6 8 -7 18 -3 22 4 5 -1 5 -10 2
-9 -3 -22 1 -28 9 -8 9 -9 14 -2 14 6 0 12 -4 14 -10 2 -6 9 -6 18 0 12 7 10
11 -10 18 -16 6 -27 6 -31 0 -4 -6 -9 -6 -12 -1 -3 5 3 15 15 22 11 7 17 8 14
3 -3 -5 3 -12 14 -15 10 -3 21 0 24 7 3 6 3 -1 1 -15 -1 -14 1 -32 7 -40 8
-11 9 -11 5 3 -6 19 16 31 30 17 6 -6 10 -4 10 5 0 8 -4 13 -9 10 -4 -3 -8 0
-8 5 0 6 9 11 21 11 13 0 18 -4 13 -12 -4 -7 -3 -8 4 -4 6 4 8 14 5 24 -6 15
-5 16 12 2 17 -14 18 -14 6 8 -14 26 -4 29 15 5 13 -17 14 -17 7 1 -4 12 -3
17 4 13 5 -3 10 0 10 7 0 8 -6 12 -14 9 -7 -3 -13 1 -13 8 0 7 3 9 7 6 13 -14
34 15 22 30 -16 19 5 43 22 26 9 -9 8 -18 -5 -37 -9 -15 -12 -26 -6 -26 5 0
10 5 10 11 0 5 4 8 9 5 5 -3 8 2 7 12 0 10 5 16 14 14 12 -3 12 -1 3 9 -6 6
-9 19 -6 28 4 14 3 14 -6 1 -9 -13 -11 -13 -11 3 0 20 11 22 29 5 11 -10 13
-10 7 0 -5 7 -1 12 9 12 9 0 13 5 10 10 -3 6 -1 10 4 10 6 0 11 -6 11 -12 0
-7 5 -5 11 5 6 9 14 15 18 13 4 -3 8 1 8 9 0 8 -4 12 -8 9 -17 -10 -17 14 1
33 10 12 15 24 10 29 -5 5 -5 15 1 24 9 13 10 12 5 -2 -6 -20 40 -62 57 -51 6
3 7 1 3 -5 -4 -6 -14 -8 -24 -5 -15 6 -15 5 -3 -10 11 -14 17 -15 30 -5 14 12
14 11 2 -4 -7 -10 -18 -15 -23 -12 -6 4 -6 -1 1 -13 7 -14 7 -24 -2 -33 -8
-10 -6 -10 7 0 11 8 21 14 23 13 1 -2 4 -3 6 -2 20 6 38 5 43 -2 4 -6 11 -6
19 1 8 7 20 8 26 4 8 -5 9 -3 4 6 -6 10 -4 12 10 6 14 -5 16 -4 6 7 -9 11 -8
17 4 27 9 8 15 9 14 4 -3 -20 2 -31 16 -31 12 0 12 3 2 16 -10 12 -9 13 2 7
10 -7 12 -3 7 15 -6 21 -5 22 4 6 9 -14 15 -16 26 -6 11 9 14 9 11 -2 -2 -8
-2 -11 0 -6 3 4 9 5 14 2 5 -4 6 1 3 10 -4 11 -2 14 9 10 11 -5 14 0 12 19 -2
14 1 26 6 26 5 0 9 -10 9 -22 1 -21 2 -21 11 -5 6 9 14 15 20 12 5 -3 6 1 3 9
-3 9 -11 13 -18 9 -6 -3 -8 -2 -3 2 4 5 18 10 30 12 18 2 19 1 7 -8 -13 -9
-13 -10 0 -6 10 3 14 15 13 33 -2 29 -2 29 11 6 12 -22 14 -23 30 -7 14 14 14
20 4 33 -11 13 -11 14 1 7 10 -6 13 -4 9 6 -4 10 1 15 13 15 16 0 17 -2 3 -17
-13 -15 -13 -17 1 -23 9 -3 14 -2 11 2 -2 4 3 16 11 27 15 19 15 19 9 -5 -3
-14 -3 -19 0 -12 3 6 11 9 16 6 7 -5 8 -2 3 6 -6 10 -4 12 9 7 10 -4 15 -3 11
3 -3 6 1 10 9 10 9 0 16 7 16 15 0 8 4 15 10 15 5 0 7 -8 3 -17 -5 -16 -4 -15
9 1 9 12 20 16 28 11 8 -5 11 -4 7 2 -11 18 23 40 35 22 8 -11 9 -11 4 4 -3 9
-1 17 5 17 6 0 7 6 3 13 -6 9 -5 9 7 0 12 -10 15 -8 16 8 1 12 -3 17 -9 13 -7
-4 -8 -2 -4 5 4 6 11 9 15 7 10 -7 63 29 54 37 -3 4 -1 7 6 7 8 0 11 -7 7 -15
-3 -8 -1 -15 4 -15 9 0 14 14 11 32 0 4 5 5 13 2 14 -5 30 22 21 36 -3 5 0 12
6 16 8 4 9 3 5 -4 -4 -7 -2 -12 5 -12 8 0 8 -4 -1 -15 -7 -9 -10 -18 -6 -22 3
-3 6 -1 6 6 0 7 5 9 12 5 7 -5 8 -3 3 6 -6 10 -4 12 9 7 9 -4 15 -3 12 1 -9
15 13 39 23 24 7 -11 9 -10 14 3 4 9 3 13 -3 10 -6 -3 -10 -1 -10 4 0 6 5 11
11 11 5 0 7 6 3 13 -5 7 0 6 11 -3 17 -14 18 -13 12 4 -6 15 -5 16 6 8 10 -8
13 -7 13 6 1 9 5 26 9 36 5 12 5 17 -2 13 -5 -3 -10 0 -10 8 0 22 15 18 22 -6
6 -17 9 -18 16 -8 4 7 3 19 -2 26 -7 8 -7 18 1 30 10 16 10 16 5 -3 -4 -14 -1
-21 9 -21 9 0 13 4 11 8 -3 4 2 10 11 13 9 4 14 13 10 21 -3 9 1 15 10 15 11
0 15 6 11 20 -3 13 -1 18 6 13 6 -4 8 2 4 16 -4 18 -3 20 9 10 13 -11 18 -6
15 15 -1 4 3 14 9 21 6 7 7 21 3 30 -4 13 -3 16 5 11 8 -5 10 -1 5 10 -5 13
-3 15 8 9 12 -8 12 -6 0 8 -12 15 -9 21 12 18 4 0 7 4 7 9 0 6 -5 10 -12 10
-6 0 -4 6 7 13 10 8 15 19 11 25 -3 6 -2 21 3 35 6 16 6 28 -2 36 -8 8 -6 11
9 11 16 0 17 2 4 10 -9 6 -11 13 -5 18 6 4 11 14 13 22 3 11 -3 9 -20 -5 -23
-20 -23 -20 -8 0 8 11 20 23 25 27 9 7 -7 12 -27 9 -5 0 -8 3 -8 9 0 5 5 10
10 10 6 0 9 3 9 8 -1 4 0 10 1 15 1 4 4 12 5 17 1 6 3 11 5 13 10 13 5 37 -8
38 -14 0 -13 2 3 9 11 5 15 9 10 9 -14 1 -17 42 -4 57 7 8 6 14 -1 19 -8 5 -7
11 1 21 10 12 10 15 -1 12 -8 -2 -14 3 -15 10 0 17 -18 16 -21 -3 -1 -8 2 -12
8 -9 7 5 8 2 3 -6 -6 -9 -4 -11 5 -5 9 6 11 4 5 -5 -4 -7 -2 -16 5 -20 9 -5 9
-9 1 -14 -6 -4 -15 3 -20 17 -6 14 -16 27 -23 30 -10 4 -10 6 0 6 9 1 9 7 -3
25 -11 16 -13 26 -6 31 6 3 11 11 11 17 0 6 -8 4 -18 -5 -28 -25 -35 -20 -9 6
18 18 24 20 33 8 9 -11 11 -11 11 2 0 9 -7 19 -14 21 -8 3 -11 10 -8 16 3 5 1
10 -4 10 -6 0 -10 3 -10 8 4 22 -4 30 -26 28 -26 -1 -33 -10 -15 -19 6 -3 5
-4 -2 -3 -21 4 -23 38 -2 34 9 -2 19 2 21 8 5 13 -28 15 -44 1 -9 -6 -13 -6
-13 1 0 5 7 13 15 16 13 5 14 10 4 27 -10 19 -9 21 7 15 18 -6 18 -5 0 9 -10
8 -23 12 -28 9 -5 -3 -8 0 -7 7 3 21 -12 50 -22 43 -5 -3 -9 -10 -9 -15 0 -6
4 -8 9 -4 5 3 12 2 15 -3 2 -4 -4 -9 -15 -9 -10 -1 -19 5 -19 12 0 9 -6 12
-17 9 -15 -5 -15 -4 -3 4 8 6 18 8 22 6 14 -9 9 23 -5 35 -8 6 -23 9 -34 7
-11 -2 -26 0 -34 6 -11 8 -11 9 3 4 10 -3 20 0 24 6 4 6 3 9 -2 6 -18 -11 -54
11 -48 29 5 13 2 11 -10 -4 -10 -13 -22 -23 -28 -23 -7 0 -4 6 6 13 19 14 16
18 -24 32 -3 1 -13 5 -23 9 -10 5 -24 3 -34 -5 -12 -10 -15 -10 -9 -1 4 7 1
12 -9 12 -9 0 -14 4 -10 9 3 5 1 12 -5 16 -5 3 -10 -2 -11 -12 0 -17 -1 -16
-8 1 -4 11 -15 20 -24 22 -11 1 -14 -2 -10 -9 4 -7 0 -6 -10 1 -9 8 -21 11
-27 7 -7 -4 -14 2 -17 16 -6 22 -7 22 -14 3 -7 -18 -8 -18 -8 0 -1 15 -4 16
-15 7 -11 -10 -16 -9 -24 4 -5 9 -12 16 -15 16 -21 -3 -27 0 -21 12 6 10 4 10
-7 0 -16 -16 -30 -17 -27 -2 4 15 -30 20 -39 6 -4 -7 -9 -3 -14 9 -7 18 -8 18
-8 -1 -1 -16 -3 -17 -10 -6 -5 8 -18 15 -28 16 -10 0 -25 5 -32 10 -10 5 -12
4 -7 -3 5 -8 -1 -12 -14 -12 -12 0 -19 4 -16 9 3 4 -11 6 -30 4 -20 -2 -33 0
-30 5 8 13 -47 9 -56 -3 -5 -6 -8 -5 -8 3 0 7 -8 12 -17 10 -10 -1 -24 2 -32
6 -11 7 -13 5 -7 -9 6 -18 6 -18 -15 1 -12 10 -20 14 -16 9 3 -6 -3 -11 -14
-11 -10 0 -19 5 -19 11 0 5 -5 3 -10 -5 -6 -9 -10 -11 -10 -3 0 7 -7 10 -15 7
-8 -4 -12 -11 -9 -16 4 -6 -4 -3 -18 6 -22 14 -26 14 -48 -1 -13 -9 -20 -12
-17 -6 4 6 0 14 -9 17 -21 8 -24 8 -24 -5 0 -5 4 -8 8 -5 5 3 9 -1 9 -9 0 -13
-3 -13 -17 0 -18 16 -45 21 -36 6 7 -11 -21 -8 -31 4 -4 4 -2 5 6 0 10 -6 12
-4 6 5 -6 10 -11 9 -22 -5 -8 -12 -13 -14 -13 -6 0 11 -3 11 -15 1 -12 -10
-15 -10 -15 1 0 12 -2 12 -9 0 -7 -11 -9 -11 -14 0 -4 10 -6 10 -6 2 -1 -7 -6
-13 -12 -13 -5 0 -7 6 -3 13 5 9 4 9 -6 0 -7 -6 -19 -9 -28 -6 -10 4 -13 2 -8
-5 3 -6 1 -14 -5 -18 -8 -4 -9 -3 -5 4 4 8 0 12 -11 12 -15 0 -16 2 -3 10 9 6
10 10 3 10 -7 0 -17 -8 -22 -17 -6 -11 -11 -13 -11 -5 0 7 -4 10 -10 7 -5 -3
-10 0 -10 7 0 10 -2 10 -9 -1 -6 -9 -15 -11 -27 -6 -36 15 -94 12 -81 -4 10
-12 9 -13 -6 -5 -23 13 -89 5 -80 -10 3 -6 -6 0 -22 14 -16 14 -25 20 -21 13
4 -8 -1 -11 -14 -10 -20 1 -29 17 -10 17 6 0 10 4 10 8 0 5 -7 9 -15 9 -8 0
-15 -5 -15 -10 0 -6 -3 -7 -7 -4 -3 4 2 16 11 26 21 24 0 24 -30 1 -11 -9 -9
-3 5 12 14 17 20 31 15 40 -5 9 -2 8 11 -2 17 -14 18 -14 7 7 -10 18 -9 24 5
33 17 11 17 11 1 6 -10 -3 -18 -1 -18 4 0 6 5 10 10 10 6 0 3 12 -6 28 -12 20
-12 22 -1 9 10 -12 17 -14 22 -8 3 6 1 11 -4 11 -6 0 -11 10 -11 21 0 19 -2
20 -17 8 -16 -13 -17 -12 -5 3 8 9 10 23 6 29 -4 7 -3 9 3 6 12 -8 30 11 31
33 1 8 3 30 5 48 3 17 0 32 -5 32 -6 0 -7 -8 -3 -17 5 -15 4 -16 -7 -5 -11 11
-10 16 5 26 9 7 17 18 17 24 0 6 -8 16 -17 22 -15 9 -13 10 12 5 21 -4 26 -3
16 4 -12 7 -12 13 -3 24 7 7 9 17 5 20 -3 4 0 7 8 7 12 0 12 2 0 9 -12 8 -12
12 -2 24 8 10 8 16 1 19 -11 3 -23 48 -12 47 21 -3 30 3 35 24 2 12 8 30 12
40 6 14 3 16 -11 11 -16 -5 -16 -4 -4 5 8 6 11 11 6 11 -5 0 -3 7 4 15 7 8 17
12 23 8 5 -3 7 -1 4 5 -10 15 3 43 16 35 6 -3 7 -1 3 6 -4 6 -12 9 -17 6 -5
-4 -9 -2 -9 2 0 5 9 14 21 21 16 10 18 16 9 27 -8 10 -6 17 11 29 13 8 20 19
16 23 -4 3 -14 -2 -22 -13 -9 -12 -14 -14 -15 -6 0 7 -4 11 -8 8 -5 -3 -9 1
-9 9 0 11 4 12 13 4 8 -7 15 -6 20 2 4 7 2 15 -4 17 -7 2 -12 8 -12 14 0 6 8
4 18 -5 10 -10 22 -14 26 -10 4 4 -3 15 -15 23 -20 16 -20 18 -4 33 9 9 21 17
27 17 6 0 0 -9 -13 -21 -18 -16 -20 -19 -6 -15 11 3 16 2 12 -4 -3 -6 -1 -10
5 -10 7 0 10 6 7 13 -2 6 3 21 12 31 9 11 11 16 4 13 -6 -4 -14 -3 -18 3 -4 6
-15 4 -31 -6 -13 -9 -24 -12 -24 -6 0 5 10 13 23 16 22 6 22 7 -8 31 -16 14
-37 23 -45 19 -11 -4 -12 -2 -4 6 12 12 59 -10 76 -34 14 -21 36 -14 33 10 -1
16 3 24 14 24 14 1 14 2 -2 11 -9 6 -15 14 -12 20 4 5 1 9 -5 9 -6 0 -8 5 -5
10 11 17 24 11 20 -10 -2 -11 0 -20 5 -20 10 0 7 50 -4 70 -5 8 -6 12 -1 8 15
-14 37 13 24 28 -8 10 -8 14 0 14 6 0 11 -4 11 -10 0 -18 20 -11 42 15 21 24
35 81 18 70 -14 -9 -23 16 -11 28 9 9 10 7 5 -8 -4 -11 -4 -17 1 -13 4 4 14 3
20 -2 9 -8 11 -4 8 13 -3 17 1 26 18 33 20 9 21 11 5 17 -12 5 -15 3 -10 -6 5
-8 2 -7 -9 2 -23 18 -22 20 13 16 17 -2 28 0 25 5 -3 5 -1 11 5 15 16 10 12
38 -5 31 -8 -3 -15 -1 -15 4 0 6 6 10 13 10 8 0 19 12 26 26 10 23 10 26 -4
20 -9 -3 -19 -6 -21 -6 -3 0 -3 -4 1 -9 3 -5 1 -12 -4 -15 -5 -4 -8 2 -6 11 2
10 4 22 4 26 1 5 6 5 11 2 6 -3 10 -2 10 4 0 5 -4 13 -10 16 -5 3 -10 11 -10
17 0 6 9 -1 20 -15 11 -14 28 -24 37 -23 19 3 31 26 13 26 -6 0 -8 -5 -4 -11
5 -8 1 -8 -14 0 -29 15 -36 31 -23 44 9 9 11 8 5 -6 -4 -13 -2 -16 9 -11 8 3
17 14 20 24 3 13 11 17 26 13 14 -3 23 0 27 11 3 9 10 13 15 10 16 -10 9 29
-8 50 -18 21 -18 21 4 3 20 -18 22 -18 32 0 6 10 11 13 11 8 0 -6 -6 -17 -12
-25 -11 -12 -10 -12 3 -2 9 6 18 10 21 7 2 -3 3 9 0 25 -3 19 0 30 7 30 7 0 9
-4 6 -10 -3 -6 1 -7 10 -3 9 3 13 9 8 12 -4 3 -9 15 -11 26 l-4 20 16 -20 c12
-17 17 -18 28 -7 11 11 11 13 -1 10 -7 -2 -15 2 -18 9 -2 7 5 10 20 9 14 -2
24 2 24 10 0 9 -5 10 -17 4 -9 -5 -22 -5 -30 0 -12 7 -11 9 5 9 33 1 60 7 63
14 6 18 1 38 -8 32 -6 -4 -8 -10 -6 -14 3 -4 -1 -8 -8 -8 -8 0 -12 6 -9 14 3
7 9 13 15 13 5 0 6 6 2 13 -6 9 -4 9 7 1 16 -13 51 -15 43 -2 -5 8 11 12 30 9
5 -1 4 5 -4 13 -12 15 -7 21 14 17 17 -3 33 33 30 73 -1 22 0 31 3 19 2 -13
10 -23 16 -23 7 0 6 -5 -3 -11 -13 -9 -13 -10 0 -6 10 2 14 14 13 33 -1 16 1
21 3 12 3 -10 10 -18 15 -18 12 0 8 32 -6 43 -5 5 1 5 15 1 14 -3 22 -3 18 1
-4 4 -3 16 3 26 12 23 3 25 -18 3 -24 -24 -42 0 -18 26 10 11 13 20 7 20 -6 0
-14 -5 -17 -10 -4 -6 -16 -8 -28 -4 -20 6 -20 6 1 -21 12 -15 22 -33 22 -39 0
-6 -9 4 -20 22 -11 17 -24 32 -30 32 -15 0 -12 -11 6 -25 15 -10 14 -12 -7
-10 -17 1 -23 7 -21 21 2 17 1 17 -16 -3 -14 -16 -22 -19 -31 -10 -12 12 -16
-3 -3 -19 4 -5 0 -2 -9 8 -19 20 -35 12 -18 -9 7 -8 8 -13 1 -13 -5 0 -13 7
-16 16 -3 8 -11 12 -17 8 -8 -5 -8 -9 1 -14 7 -5 2 -7 -14 -7 -14 0 -31 7 -38
16 -10 13 -10 14 2 4 18 -16 34 -17 24 -1 -4 6 -3 8 4 4 6 -3 13 -2 17 4 6 9
-8 14 -28 11 -5 -1 -5 3 -2 9 5 8 14 6 30 -4 21 -14 24 -14 37 1 11 14 11 16
-4 11 -24 -10 -50 13 -37 32 9 13 10 13 6 -1 -4 -12 1 -16 19 -16 19 0 22 2
14 12 -8 9 -8 15 0 20 6 4 9 1 8 -6 -2 -6 2 -13 9 -16 13 -5 12 14 -1 37 -5 8
-6 12 -2 8 5 -4 17 2 29 13 11 10 33 24 48 31 15 7 25 17 21 23 -3 5 1 4 10
-2 22 -18 31 -4 10 16 -10 9 -13 12 -6 8 7 -4 15 -4 18 2 4 5 -2 14 -11 20
-10 6 -13 11 -7 11 12 0 36 -25 48 -50 4 -8 1 -7 -8 4 -14 18 -15 18 -13 -2 0
-11 5 -18 9 -16 4 3 5 -2 2 -10 -3 -9 -1 -16 5 -16 6 0 10 3 10 8 -1 4 0 9 1
12 6 17 7 40 2 40 -4 0 -13 9 -20 21 -8 12 -10 19 -5 17 10 -6 43 28 36 36 -9
9 -35 7 -29 -2 2 -4 -4 -13 -14 -20 -18 -11 -18 -9 2 24 20 35 12 64 -14 48
-4 -3 -8 0 -8 6 0 6 -4 8 -10 5 -5 -3 -8 0 -5 7 8 21 -11 41 -39 41 -25 0 -25
0 -8 16 11 9 17 23 15 31 -4 13 -3 13 6 0 7 -10 6 -19 -2 -29 -10 -12 -9 -14
5 -8 12 4 19 0 23 -14 5 -15 10 -17 25 -9 16 8 18 8 14 -5 -3 -8 -10 -12 -15
-9 -5 3 -9 1 -9 -4 0 -5 12 -14 26 -21 17 -7 24 -17 20 -26 -3 -8 -1 -15 4
-15 13 0 13 27 0 35 -6 4 -8 11 -5 16 11 17 14 50 4 43 -5 -3 -16 0 -24 6 -8
6 -19 9 -24 6 -6 -4 -19 11 -31 34 -11 22 -23 40 -26 40 -3 0 -3 -4 1 -9 3 -5
0 -21 -6 -35 -11 -24 -13 -24 -25 -8 -7 9 -10 20 -8 24 3 4 -5 12 -16 18 -11
6 -18 15 -15 21 4 5 4 9 1 9 -3 0 -7 -4 -11 -9z m-511 -762 c-3 -5 2 -9 10 -9
8 0 21 -8 28 -18 7 -10 19 -17 26 -16 6 1 17 2 23 3 5 0 7 7 3 14 -6 9 -5 9 7
0 27 -22 74 -6 74 25 0 11 10 17 29 19 26 2 27 1 10 -12 -17 -13 -16 -14 14
-10 27 3 31 1 22 -10 -8 -9 -8 -15 0 -18 6 -3 5 -4 -2 -2 -7 1 -12 7 -11 13 3
13 -44 9 -58 -5 -8 -8 -7 -13 0 -17 6 -4 11 -2 11 3 0 6 5 11 11 11 5 0 7 -5
3 -12 -5 -7 -2 -9 8 -6 8 4 21 2 29 -2 9 -6 2 -8 -20 -7 -20 1 -36 -3 -38 -11
-3 -8 2 -10 14 -6 15 5 15 4 3 -5 -8 -6 -11 -11 -7 -11 4 0 3 -9 -3 -20 -9
-16 -8 -22 5 -26 8 -3 15 -11 15 -17 0 -5 -9 -2 -20 8 -11 10 -20 14 -20 8 0
-5 9 -18 20 -28 21 -19 17 -40 -6 -31 -7 3 -17 0 -21 -7 -11 -19 -11 -48 1
-44 6 2 10 13 8 23 -2 16 -1 17 7 4 15 -22 14 -26 -14 -38 -14 -6 -25 -16 -25
-22 0 -7 6 -8 18 -1 12 6 23 6 33 -1 11 -8 11 -9 -4 -4 -10 3 -25 -2 -37 -14
-18 -18 -19 -18 -16 8 1 15 -2 33 -7 40 -11 14 -37 16 -37 2 0 -5 5 -9 12 -7
7 1 12 -12 13 -34 1 -27 -3 -35 -12 -32 -8 3 -12 -1 -10 -8 2 -8 2 -11 0 -6
-3 4 -9 5 -14 1 -5 -3 -9 1 -9 8 0 9 -3 9 -10 -2 -13 -20 -13 -33 0 -25 6 4
17 1 25 -5 8 -6 18 -9 22 -7 5 3 9 -3 9 -13 0 -17 -2 -18 -16 -5 -9 8 -20 12
-25 8 -4 -5 -5 -2 -1 5 4 6 3 12 -1 12 -5 0 -15 -6 -22 -12 -8 -8 -11 -8 -8
-2 4 7 -1 18 -10 25 -14 12 -15 11 -9 -9 5 -14 3 -22 -4 -22 -6 0 -9 4 -6 8 7
11 -22 52 -36 52 -7 0 -6 -6 2 -15 9 -10 9 -15 1 -15 -6 0 -11 5 -11 10 0 18
-17 10 -30 -15 -7 -14 -15 -23 -18 -20 -3 2 3 16 12 30 9 14 12 25 6 25 -14 0
-43 -47 -35 -60 4 -6 3 -10 -2 -9 -4 1 -16 -1 -26 -6 -10 -4 -21 -5 -24 -1 -4
3 1 6 11 6 9 0 14 5 11 10 -4 6 -11 8 -16 4 -6 -3 -16 2 -23 12 -13 17 -14 16
-20 -4 -4 -12 -12 -22 -18 -22 -7 0 -7 4 -1 13 14 16 12 48 -1 44 -6 -2 -11
-12 -11 -23 0 -16 -8 -19 -45 -20 -24 -1 -46 -7 -48 -13 -3 -9 -8 -9 -19 0
-12 11 -13 9 -8 -13 4 -16 2 -29 -5 -33 -9 -5 -10 -2 -6 12 7 22 -29 77 -44
68 -5 -3 0 -15 10 -25 11 -11 19 -28 19 -37 -1 -17 -2 -17 -6 0 -2 9 -9 17
-14 17 -6 0 -8 4 -5 9 3 5 -1 12 -9 15 -9 3 -18 -1 -22 -9 -5 -13 -7 -13 -18
2 -7 9 -10 23 -7 31 4 12 1 12 -16 3 -14 -7 -23 -8 -27 -1 -8 13 3 30 18 30 7
0 6 -4 -3 -10 -8 -5 -12 -12 -8 -15 7 -7 38 22 38 35 0 5 -6 8 -12 6 -7 -1 -9
-1 -4 2 4 2 2 8 -5 13 -11 6 -11 11 -1 21 16 16 15 28 -2 28 -20 0 -29 17 -15
26 7 4 9 3 6 -2 -3 -6 7 -15 24 -21 16 -6 31 -7 34 -3 3 5 -4 11 -15 15 -11 3
-20 11 -20 16 0 13 9 11 26 -6 9 -8 21 -15 27 -15 7 0 4 7 -7 15 -18 13 -18
14 2 12 11 0 19 -4 16 -8 -2 -4 1 -11 7 -14 7 -5 9 1 7 16 -2 17 -9 23 -23 22
-11 -1 -14 0 -6 4 11 4 11 7 0 14 -10 6 -6 8 11 7 14 -1 31 -6 38 -11 8 -6 12
-6 12 1 0 6 -8 16 -17 21 -11 6 -13 11 -5 11 8 0 10 5 6 12 -5 7 5 3 21 -10
15 -12 31 -20 34 -16 3 3 -2 10 -12 15 -9 6 -15 14 -12 19 3 4 -2 10 -10 14
-8 3 -15 10 -15 16 0 5 9 2 19 -7 11 -9 18 -20 15 -25 -10 -15 9 -8 21 9 9 13
14 13 20 3 5 -8 4 -11 -2 -7 -17 11 -23 -19 -9 -39 13 -17 14 -16 25 4 7 13 9
28 5 34 -4 7 -3 8 5 4 7 -5 9 -16 5 -29 -6 -20 -5 -21 12 -7 24 19 34 32 34
45 -1 6 -7 1 -15 -9 -8 -11 -15 -15 -15 -9 0 7 5 15 10 18 6 3 10 11 10 18 0
8 -3 8 -12 -1 -7 -7 -16 -12 -22 -12 -5 0 -1 7 10 15 17 12 20 12 32 -2 11
-16 12 -16 12 -1 0 9 5 20 11 24 8 4 9 -1 4 -17 -7 -21 -6 -22 8 -11 24 20 10
45 -22 37 -19 -4 -22 -3 -11 5 24 16 36 12 55 -16 13 -21 14 -28 4 -41 -11
-12 -10 -14 6 -11 11 1 20 -3 21 -9 1 -7 2 -18 3 -24 0 -5 6 -7 12 -3 8 4 7 9
-2 15 -8 5 -10 9 -6 9 4 0 3 9 -3 19 -14 27 -3 56 16 40 11 -9 19 -8 34 6 25
23 26 35 1 28 -10 -3 -21 -1 -24 4 -3 5 7 8 21 7 15 0 28 -7 28 -15 3 -31 5
-33 13 -20 6 9 6 23 -1 35 -5 12 1 8 16 -9 14 -16 26 -25 26 -20 0 6 4 3 9 -4
6 -8 6 -22 1 -31 -5 -10 -3 -22 7 -35 15 -20 15 -20 10 1 -2 12 -1 28 4 35 10
17 -19 66 -44 73 -12 3 -16 9 -11 17 5 9 2 10 -10 6 -11 -5 -15 -3 -10 5 5 7
2 9 -9 5 -11 -4 -14 -2 -11 8 5 12 10 12 30 -1 13 -9 21 -20 18 -25z m1439
-4566 c-5 -12 24 -11 50 2 6 4 3 0 -7 -9 -10 -8 -23 -13 -27 -10 -11 6 -11 1
-3 -21 5 -13 8 -14 15 -3 5 8 7 1 5 -17 -2 -17 0 -34 4 -40 14 -20 20 -46 8
-39 -8 5 -9 2 -4 -11 4 -11 2 -22 -6 -27 -23 -14 -32 -8 -12 8 15 12 15 15 2
10 -9 -2 -18 1 -21 8 -7 17 -66 14 -78 -4 -8 -12 -9 -11 -7 5 2 16 -2 20 -27
18 l-30 -1 33 14 c28 12 31 17 22 34 -6 11 -8 24 -5 29 3 5 -1 12 -7 14 -7 3
2 4 19 3 21 -2 38 3 45 12 11 13 10 15 -4 9 -10 -3 -20 -1 -24 5 -4 7 -9 6
-14 -2 -5 -8 -9 -8 -13 3 -6 16 9 17 32 3 10 -7 12 -3 6 15 l-6 24 20 -25 c13
-16 21 -20 21 -11 0 8 -8 23 -17 35 -18 20 -18 20 8 0 15 -10 24 -24 22 -31z
m963 -1345 c4 -7 3 -8 -4 -4 -7 4 -17 -3 -23 -18 -7 -14 -15 -24 -18 -21 -4 2
-13 0 -21 -6 -13 -7 -13 -9 0 -9 12 0 12 -2 2 -9 -11 -7 -11 -9 1 -14 11 -4
15 -1 12 11 -2 14 4 18 25 17 15 0 26 -3 23 -7 -2 -5 -13 -8 -23 -8 -12 0 -17
-5 -14 -14 3 -8 16 -12 35 -10 16 2 29 -1 29 -6 0 -5 -10 -7 -23 -4 -16 2 -24
-1 -24 -12 0 -9 6 -13 16 -9 12 5 13 3 4 -6 -12 -12 -37 -3 -28 11 3 5 -4 14
-16 21 -26 13 -38 1 -33 -36 2 -21 -1 -23 -28 -20 -21 3 -28 0 -25 -9 3 -8 0
-19 -6 -25 -6 -6 -7 -11 -3 -11 5 0 3 -7 -4 -15 -12 -15 -4 -20 23 -16 4 0 7
-4 7 -10 0 -8 5 -8 15 1 16 13 19 8 15 -24 -1 -12 2 -16 11 -11 8 5 10 4 5 -4
-9 -13 -26 -5 -26 12 0 7 -8 13 -18 14 -10 1 -19 -5 -19 -13 0 -8 6 -13 13
-10 8 3 11 0 8 -9 -3 -8 -11 -13 -16 -12 -6 1 -13 -4 -15 -11 -3 -8 1 -10 13
-5 12 4 15 3 10 -6 -5 -7 -14 -10 -22 -7 -8 3 -14 -1 -14 -9 0 -18 4 -18 33
-4 20 9 21 9 4 -4 -11 -9 -14 -18 -8 -21 5 -4 12 -2 16 4 3 5 12 10 18 10 7 0
4 -5 -6 -11 -9 -6 -15 -14 -12 -19 3 -5 1 -11 -5 -15 -6 -4 -8 -11 -4 -16 3
-5 10 -6 16 -3 6 4 5 -3 -2 -15 -8 -17 -15 -20 -24 -12 -7 6 -16 8 -19 4 -4
-3 -7 -1 -7 5 0 15 13 15 28 0 16 -16 15 3 -2 25 -8 10 -16 14 -18 10 -3 -4
-3 -3 -2 4 2 7 -1 15 -7 18 -5 4 -7 12 -3 18 3 7 -3 2 -14 -10 -11 -12 -23
-19 -27 -15 -3 4 -5 1 -3 -7 2 -7 -2 -15 -9 -18 -8 -3 -11 5 -8 24 2 15 2 22
-1 15 -3 -6 -10 -10 -15 -6 -5 3 -9 0 -9 -5 0 -6 5 -11 12 -11 6 0 8 -3 4 -7
-11 -11 -66 -12 -72 -2 -5 9 9 13 32 10 7 -1 14 9 17 21 5 21 5 21 -7 6 -7
-10 -16 -15 -19 -11 -4 3 -16 -2 -27 -12 -11 -10 -23 -16 -26 -13 -3 3 7 15
22 27 15 11 22 21 17 21 -5 0 -14 -5 -21 -12 -7 -7 -12 -8 -12 -2 0 6 11 20
25 32 14 12 25 29 25 37 0 21 20 19 20 -2 1 -14 4 -13 14 6 9 16 16 20 20 12
6 -9 11 -9 21 -1 21 18 40 -24 20 -44 -17 -17 -19 -26 -6 -26 10 0 27 39 23
53 -1 5 2 6 8 2 6 -3 7 0 4 9 -3 9 -11 14 -17 13 -7 -1 -11 6 -11 16 1 10 -3
16 -10 14 -6 -3 -10 -9 -9 -14 1 -6 -11 -9 -27 -8 -16 1 -28 0 -26 -4 3 -4 -4
-8 -15 -9 -43 -4 -48 -6 -42 -15 4 -6 1 -7 -7 -2 -9 6 -11 4 -5 -5 5 -8 4 -11
-2 -7 -6 4 -9 -4 -7 -18 2 -19 -2 -25 -18 -25 -12 0 -18 -5 -15 -12 18 -42 33
-68 40 -68 5 0 6 4 2 9 -3 5 -1 13 5 16 6 4 10 3 9 -2 -3 -20 2 -25 16 -13 12
10 15 10 15 0 0 -10 3 -10 15 0 12 10 15 10 16 -1 0 -11 2 -11 6 -1 4 10 8 10
19 1 11 -9 14 -9 14 0 0 7 5 9 11 6 6 -5 2 -13 -11 -22 -16 -11 -25 -12 -33
-4 -6 6 -16 11 -21 11 -6 0 -5 -5 2 -12 16 -16 15 -28 -3 -28 -8 0 -15 5 -15
11 0 5 -4 8 -10 4 -5 -3 -7 -12 -4 -19 3 -8 1 -17 -5 -21 -7 -4 -8 1 -4 12 6
15 4 16 -9 5 -8 -7 -23 -9 -33 -6 -15 6 -16 4 -6 -14 14 -26 37 -42 28 -19 -4
11 -2 14 9 10 16 -6 19 -23 4 -23 -5 0 -10 -5 -10 -11 0 -5 6 -7 13 -3 8 6 8
3 -1 -9 -8 -9 -11 -20 -9 -24 3 -5 -3 -10 -15 -10 -13 -1 -18 3 -14 12 3 8 1
17 -5 20 -5 4 -6 11 -3 17 5 8 1 9 -10 5 -10 -4 -15 -3 -11 4 4 5 0 20 -9 33
-18 28 -13 36 19 30 13 -2 27 0 30 6 3 5 1 10 -5 10 -6 0 -8 5 -5 10 6 9 -8
14 -28 11 -5 -1 -6 3 -2 9 3 6 11 7 17 4 7 -4 8 -2 4 5 -4 6 -12 8 -18 5 -15
-10 -28 17 -18 37 5 9 6 20 2 24 -4 5 -2 5 4 2 13 -7 37 17 40 39 1 8 -2 14
-8 14 -6 0 -8 -7 -5 -15 7 -17 -9 -30 -18 -15 -3 5 6 21 21 35 15 14 23 25 18
25 -5 0 2 7 14 16 26 18 49 10 31 -12 -14 -18 0 -18 23 0 10 7 14 17 10 22 -4
4 2 2 12 -6 18 -14 19 -13 13 5 -7 18 -6 19 6 3 8 -10 17 -15 20 -11 4 3 2 12
-4 19 -11 14 -3 38 10 29 5 -2 13 7 20 21 6 14 15 23 20 19 5 -3 12 -1 16 5 3
5 1 10 -5 10 -6 0 -10 8 -8 18 2 12 -3 17 -19 16 -13 -1 -20 2 -18 7 3 4 14 6
25 4 15 -3 25 6 39 33 17 33 19 34 25 14 8 -25 23 -30 23 -7 0 8 -4 15 -8 15
-4 0 -10 7 -13 16 -3 8 -2 13 3 9 5 -3 12 1 15 7 3 7 4 4 3 -6 -1 -10 4 -21
12 -24 8 -2 11 0 8 5 -3 5 -1 15 5 23 8 12 9 12 4 -2 -7 -24 6 -23 22 2 14 23
18 24 28 8z"/>
<path d="M4762 8741 c-9 -13 -13 -14 -20 -2 -8 10 -13 8 -26 -10 -14 -20 -18
-22 -26 -9 -5 8 -12 11 -17 7 -4 -5 -1 -12 7 -17 8 -6 11 -10 7 -10 -4 0 -3
-9 2 -19 14 -26 -10 -48 -29 -27 -6 9 -9 20 -5 25 3 6 0 8 -8 5 -18 -6 -32 12
-17 21 5 3 10 11 10 17 0 6 -6 6 -15 -2 -9 -7 -13 -20 -10 -29 3 -11 0 -10
-10 3 -8 11 -15 14 -15 8 0 -7 0 -15 -1 -19 0 -5 -11 -14 -25 -21 -13 -7 -24
-18 -24 -25 0 -8 4 -6 10 3 7 11 10 11 10 2 0 -7 4 -11 9 -7 6 3 14 -2 19 -11
6 -10 12 -13 16 -6 3 6 -3 17 -14 25 -19 13 -20 15 -3 21 9 4 14 4 10 0 -8 -8
11 -34 25 -34 6 0 5 7 -2 15 -17 21 0 38 18 19 9 -10 9 -14 1 -14 -8 0 -9 -4
0 -13 6 -8 7 -17 3 -22 -4 -4 0 -5 8 -3 8 3 14 11 12 17 -2 9 3 9 18 1 16 -9
19 -8 13 7 -5 12 -2 15 10 10 9 -3 21 1 29 10 11 14 11 16 -4 10 -12 -4 -21 1
-28 16 -10 20 -10 20 3 5 8 -10 17 -15 20 -11 4 3 2 12 -3 18 -7 9 -6 16 4 25
13 10 15 8 11 -10 -3 -14 0 -20 8 -17 7 2 12 9 12 15 0 7 3 12 8 12 30 0 31
-1 17 -10 -13 -9 -13 -10 0 -10 12 0 12 -2 2 -9 -16 -10 -15 -21 4 -42 8 -9
12 -18 9 -21 -3 -3 1 -8 9 -11 17 -7 10 23 -8 35 -6 4 -6 11 2 21 7 7 8 17 4
21 -9 10 -10 30 0 36 4 3 -1 11 -11 17 -14 9 -20 7 -29 -6z"/>
<path d="M4612 8614 c-12 -8 -22 -12 -22 -7 0 4 -5 0 -10 -9 -7 -11 -20 -15
-40 -13 -32 4 -39 -5 -15 -25 17 -14 38 -4 29 13 -4 7 -4 9 1 5 4 -4 16 -3 26
2 12 7 20 7 24 0 3 -5 11 -10 18 -10 8 0 8 3 -1 12 -15 15 -16 28 -2 28 6 0 9
-6 8 -12 -2 -7 2 -12 8 -11 6 1 11 -4 11 -12 0 -8 -4 -12 -9 -9 -4 3 -8 0 -8
-6 0 -6 8 -10 18 -8 9 2 16 9 15 15 -1 6 4 17 12 23 9 8 15 8 15 2 0 -6 -6
-13 -12 -16 -7 -3 -4 -4 7 -3 15 1 19 -3 18 -19 -2 -17 3 -21 22 -18 14 1 27
-2 31 -7 3 -5 10 -7 15 -4 5 4 9 2 9 -3 0 -5 -9 -12 -19 -15 -14 -3 -18 -1
-14 9 3 9 -9 6 -35 -9 -22 -12 -40 -26 -39 -31 2 -8 -18 -11 -54 -7 -5 1 -7 6
-4 11 3 6 1 10 -6 10 -7 0 -21 8 -32 18 -19 16 -20 16 -14 0 3 -10 3 -20 -2
-22 -4 -3 -8 1 -9 9 -1 8 -3 22 -4 30 -1 9 -6 14 -12 12 -6 -3 -9 -11 -7 -18
2 -8 4 -19 5 -26 4 -21 15 -26 30 -14 17 14 40 5 30 -11 -4 -6 -2 -8 3 -5 6 4
16 0 23 -8 6 -7 18 -11 26 -8 8 3 14 -1 14 -7 0 -7 10 2 23 21 26 38 69 47
100 21 10 -9 17 -11 17 -4 0 6 -5 14 -10 17 -7 4 -7 13 0 26 15 28 1 47 -17
23 -13 -18 -14 -18 -19 4 -4 12 -11 22 -16 22 -5 0 -20 11 -34 25 -23 23 -52
26 -39 4 4 -5 2 -9 -3 -9 -14 0 -33 26 -25 33 12 12 -2 7 -25 -9z"/>
<path d="M5421 9244 c-1 -7 -8 -11 -17 -10 -9 0 -19 -6 -22 -14 -5 -13 -3 -13
11 -1 10 7 17 9 17 3 0 -21 -28 -34 -37 -18 -10 19 -37 -6 -39 -36 -3 -35 -4
-39 -12 -34 -5 3 -9 -1 -9 -8 0 -16 27 -17 46 -3 14 12 33 18 68 20 12 1 28 8
35 15 6 6 15 12 19 12 11 0 5 -28 -9 -42 -20 -20 -13 -32 7 -14 26 24 45 12
29 -17 -6 -12 -11 -23 -10 -24 7 -11 0 -23 -10 -17 -10 6 -10 5 -1 -8 7 -8 9
-19 5 -23 -4 -5 -1 -5 6 -1 7 4 10 11 7 16 -7 11 17 28 37 25 9 -2 22 3 29 11
6 8 9 14 5 14 -4 0 1 12 11 28 l17 27 -27 -27 c-14 -16 -31 -28 -37 -28 -6 0
-8 -4 -5 -10 3 -6 -1 -7 -9 -4 -14 5 -14 8 0 21 8 9 13 22 10 30 -3 8 -2 11 3
8 5 -3 12 -1 16 5 4 6 10 8 14 6 4 -3 8 1 8 9 0 11 -4 12 -13 4 -8 -7 -13 -6
-17 3 -3 10 -9 8 -25 -5 -15 -14 -22 -15 -28 -6 -4 7 -3 10 2 6 6 -3 15 3 22
13 7 13 8 21 2 25 -6 4 -9 1 -8 -6 2 -6 -3 -14 -11 -17 -8 -3 -11 0 -7 7 5 7
1 9 -10 4 -14 -5 -15 -3 -6 14 14 25 -23 28 -38 3 -8 -13 -10 -13 -10 2 0 9 5
20 10 23 6 3 10 12 10 18 0 8 -3 7 -9 -2 -7 -11 -9 -11 -14 0 -3 8 -6 9 -6 3z"/>
</g>
</svg>
