<?xml version="1.0" encoding="UTF-8" standalone="no"?>
<svg
   version="1.0"
   width="1024.000000pt"
   height="1024.000000pt"
   viewBox="0 0 1024.000000 1024.000000"
   preserveAspectRatio="xMidYMid meet"
   id="svg16"
   sodipodi:docname="や.svg"
   xmlns:inkscape="http://www.inkscape.org/namespaces/inkscape"
   xmlns:sodipodi="http://sodipodi.sourceforge.net/DTD/sodipodi-0.dtd"
   xmlns="http://www.w3.org/2000/svg"
   xmlns:svg="http://www.w3.org/2000/svg">
  <defs
     id="defs20" />
  <sodipodi:namedview
     id="namedview18"
     pagecolor="#ffffff"
     bordercolor="#666666"
     borderopacity="1.0"
     inkscape:pageshadow="2"
     inkscape:pageopacity="0.0"
     inkscape:pagecheckerboard="0"
     inkscape:document-units="pt" />
  <metadata
     id="metadata2">
Created by potrace 1.16, written by Peter Selinger 2001-2019
</metadata>
  <g
     transform="translate(0.000000,1024.000000) scale(0.100000,-0.100000)"
     fill="#000000"
     stroke="none"
     id="g14">
    <path
       d="m 5145,9780 c -66.0423,10.6633 -119.8216,-178.7789 -156.625,-172.875 C 4892.5097,9489.0453 4720.1673,9441.6582 4749,9490 c 96.0771,-61.2115 134.2371,-87.6559 -18,-53.25 -5.8832,-59.618 -71.5109,-205.6826 -76,-104.75 -53.8565,42.2406 -266.9103,-277.2801 -180,-163 -39.5063,-85.2018 -67.2168,-134.6992 -66,-132 98.2104,40.9117 198.0027,-171.8081 122.125,-104.25 30.5757,-8.0074 -2.6528,-469.6797 -6.375,-256.5 4.9619,-72.0446 95.0689,-315.044 35.25,-241.25 36.914,64.0804 179.886,121.5053 85,101 48.2006,22.462 -155.9044,-32.7279 -13.25,-38.125 -37.2113,-109.7943 103.6898,41.6685 69.25,-6.875 -10.1413,-73.9036 -40.9693,-193.5209 -58,-143 -21.286,-104.4348 -29.0171,114.2593 -58,5 -13.2489,156.1555 6.9448,116.4421 -26,41 -55.5783,-86.8055 -33.2101,-298.0958 8,-234 13.5313,-1.5234 77.8188,-56.1888 75,67 -31.731,-54.9744 -4.0686,-297.8816 8,-220 80.6839,-36.1166 191.6228,-88.2651 26,-67 -147.6861,-14.0257 -22.5316,-176.7406 -11,-140 6.2392,-62.4564 40.6364,-366.7197 25,-235 -6.264,-174.2266 117.8253,-35.6982 105,-33 93.2547,-1.2469 134.9095,135.7508 100,48 40.8643,-3.1591 152.1423,154.7036 129,98 60.7252,66.7746 203.5179,230.3816 156,172 68.2655,72.7106 44.02,141.9045 81.875,142.25 89.2906,219.7435 62.7347,124.9301 113.125,316.75 21.5005,145.0141 134.8825,481.3027 115,360 59.4385,122.4599 132.1534,398.5705 104,304 47.3357,149.223 121.9645,432.3837 96,352 -80.842,-58.5026 -223.935,22.178 -141,-48 -71.0721,98.009 -157.2282,86.0299 -79,8 -62.0382,86.3878 -72.1873,237.5472 -8,188 88.2044,1.7396 -282.088,66.1719 -152,96 143.7656,-13.6496 72.3335,113.6789 -20,32 -50.6859,150.5067 -102.1709,280.009 -134.875,188.5 z M 4716,8227 c 175.9772,-74.9241 44.4822,-49.7999 -7,-68 17.1901,-15.4365 59.0722,68.2031 106.375,-3.375 -87.9709,186.3212 -89.3718,17.2419 29.625,-55.625 -72.3533,-121.12 -11.2004,-122.2249 -21.625,-69.875 -155.8863,-48.67 97.7641,-77.4861 2.375,-63.375 -35.9108,-31.3725 -112.935,-99.6043 -43,-85.375 70.9132,-49.9736 -64.7683,93.7322 -68.75,27.625 37.1131,70.7059 -0.471,198.0859 -10,177 -33.9535,37.2312 -42.5031,136.4242 12,141 z"
       id="path4" />
    <path
       d="m 5523,9688 c 4.7876,-41.2935 -16.1775,-405.5413 -17,-292 -104.4165,-81.9268 82.9461,18.7964 62.125,-34 -92.4578,112.6099 0.047,184.6021 9,185.125 -10.5559,6.171 4.1121,180.1284 -10.125,137.875 l -23.5,10.875 z"
       id="path6" />
    <path
       d="m 3506,8145 c -48.0096,-68.3166 -486.2784,-238.3012 -252,-132 -73.595,-60.5287 -168.4682,-154.1527 -242,-185.625 -168.0567,-120.8395 -107.842,-21.1228 -242,-267.375 -86.9105,-130.6425 -378.5829,-577.0033 -210,-300 -58.8945,-124.7522 -117.7755,-219.1585 -101,-203 -132.1909,-180.0107 -86.8615,-120.5487 -155,-317 -59.5666,-131.5825 -54.2929,-319.8629 -44,-262.4375 28.6805,-90.6497 -0.6188,-190.8588 4.5,-156.8125 -5.0479,-182.2473 121.6636,2.0674 14.5,-162.75 36.3149,-105.0043 80.8523,-306.6513 35,-174 10.9203,-74.1394 35.6807,-427.7704 53,-267 -103.4159,-143.1936 -53.4275,-320.8855 -73.75,-220 -83.2633,-5.5618 -198.2048,-174.5623 -132.25,-72 69.3592,52.1373 51.1682,19.0463 40,-5 -69.0647,-39.0195 -109.378,-93.6227 -96,-61 -38.7094,-12.7137 -124.7176,-100.972 -75,-70 -39.6901,13.3008 -196.7351,-95.6309 -129,-79 -61.832,-131.0221 -125.0346,-178.2451 -100.625,-173 44.8716,-116.834 76.6034,-411.6511 16.625,-253 -3.5648,7.0027 -9.2889,152.8143 86,71 112.3256,37.8493 -26.0867,-90.768 38.375,-65.875 C 1881.4734,4669.7483 1655.5224,4379.1303 1820,4650 c 9.9308,-67.6512 -204.6402,-258.0694 -100,-175 -18.0592,-58.2206 39.0163,-287.0369 15,-205 125.5053,-101.0091 184.8457,10.0815 95,5 98.476,125.3723 -183.2438,151.292 -101,83 10.4821,168.6222 98.3619,9.3497 99,3 71.6497,3.6267 94.4131,219.4152 -21,188 -23.6772,-102.5113 46.3056,-49.5293 49,70 81.2819,-19.8326 -49.7073,-134.2691 -49,-111 39.0877,-159.4751 66.8662,-61.6436 81,-127 -23.3434,88.3318 -35.1505,285.4755 22,227 94.7439,-69.1281 -28.3675,-2.3767 53.625,55.5 33.6582,51.9821 100.1776,-19.2757 57.75,68.5 1.3678,-55.8591 -144.1604,6.5154 -26.375,58 74.5718,120.7444 69.6715,278.0782 54.375,191.875 -13.6932,44.4232 -87.0969,238.3422 -56.375,121.125 7.2088,35.4739 126.3504,27.9202 65,81 -10.0696,-71.238 72.1914,-134.277 87,-44 -102.3272,-2.3001 -167.7408,-64.373 -81,-67 -12.9137,15.2289 50.5003,-150.5612 16,-128 -12.191,-126.2619 -113.6234,-66.7917 28.875,-13.25 65.8668,260.8108 132.2874,-69.7007 99.125,-25.75 -99.8498,-38.7216 -209.6067,-265.0478 -146.75,-172.625 59.7845,-3.7164 -40.6121,-111.9632 100.75,-3.375 -57.5017,-78.5554 36.9906,115.2933 21,95 88.7405,144.57 108.9721,127.3305 40.875,3.625 44.6735,61.3465 154.1423,229.5709 86.125,151.375 100.7583,142.5212 -253.0891,-45.2508 85.75,124.25 9.425,55.9621 143.7603,205.8816 124.25,156.75 10.978,40.2222 114.7375,57.2862 145.75,72.875 115.1613,-36.5867 178.9409,-93.0659 122.875,-82.125 2.1065,9.9016 50.9116,-148.7176 87.375,-88.75 -111.3205,95.1011 -36.8413,-109.6421 63,-12 48.822,-40.9958 51.0406,-80.563 36.25,-72.625 32.2351,-16.6585 -30.2155,78.9892 46.875,22.375 -28.2863,109.6745 217.4496,-54.2378 160.25,-102.25 233.6222,-1.6168 108.3557,4.8486 30.5,-23.125 130.9078,-40.3037 231.1868,7.5065 206.125,-50.375 79.7449,8.5771 233.5473,0.6413 114,-46 -76.364,-97.4029 9.3211,-95.393 42,-39 -21.4764,-48.5979 54.8962,-22.5876 111,-31 -17.98,-127.7374 26.3156,-49.3935 45.875,-77.125 45.4149,107.9386 -48.0973,48.5531 36.875,15.5 -27.2803,-48.3316 157.5988,-33.8155 107,-42 43.0011,-102.5978 16.2884,103.6026 -6.75,58.625 1.4273,4.796 84.1459,-70.0026 98.75,-98.875 131.8411,-84.0362 114.7382,-146.1651 164.25,-81.125 86.3837,39.1685 104.3345,-15.3131 171.5,-50.125 21.0312,-60.3048 159.1263,-161.1617 172.5,-138.5 24.8708,-80.4317 -48.914,11.5805 -44,-9.375 -131.4476,44.5313 24.325,-56.8589 71,-73 32.809,-84.9901 -60.8986,105.4337 16,32 -16.7627,-45.5289 84.206,-178.4607 123.375,-143.125 -26.9993,14.2227 97.4497,-136.6857 85.625,-87.875 360.5086,-361.593 196.8257,-219.1894 125,-121 17.8264,81.1399 81.6659,24.575 77,-66 146.9487,-241.8246 -47.568,178.443 87,-119 -40.4554,38.5283 214.1047,-197.495 68.75,-95.875 19.7533,-81.3862 113.0889,-232.9008 147.25,-208.125 81.3597,-45.1588 173.909,-132.8127 159,-129 -17.8089,-88.0652 27.9793,-190.9345 85,-143 8.5934,-62.3488 21.8481,-178.2258 40,-78 59.9377,6.4865 152.4204,-251.4158 94.125,-124.125 60.8737,24.3387 191.7264,-163.995 132.875,-121.875 58.6234,-110.5735 216.6755,-144.3862 121,-128 0.8823,-122.1001 -58.9741,4.7147 20,-114 3.024,-42.51 100.8923,-156.9752 128,-155 -23.9632,-36.8405 111.9696,-76.8171 80,-98 -29.6515,-142.2544 15.9429,-270.214 57,-172 130.7054,-92.3302 184.9028,-112.4938 117.375,-136.75 18.5285,37.4568 20.132,-43.066 23.75,-55.375 156.6031,-173.5332 186.5759,-170.305 134.75,-134.625 21.233,-67.2428 -57.308,-20.1058 -45.875,-43.25 -56.215,121.1746 79.9492,-85.2944 7,-35 59.9534,-111.9731 70.0132,-231.8313 61,-181 78.5261,1.8908 141.9802,66.115 68,65 -17.3994,-31.6733 46.9517,-170.4536 24,-161 58.4045,-50.6828 42.431,-334.6639 42,-236 50.4002,6.664 126.1464,-233.0677 46.875,-170.5 -52.2689,69.1934 83.2506,-200.85909 -3.875,-221.5 -66.6738,-20.24887 13.8095,-255.96789 30,-208 -0.061,-92.25421 11.868,-311.82044 12.375,-216.625 C 6629.2809,455.08221 6773.8734,313.66919 6786,418 c 42.7934,14.32756 -0.9971,315.01557 24.5,204.125 40.0649,5.72839 37.3302,247.52089 29.5,222.875 1.8126,26.89822 60.0479,214.4322 42.5,205 -22.8496,-5.9915 66.9769,325.0392 -9.5739,284.2497 47.336,95.0851 41.1593,-23.8075 -38.6761,31.8753 -159.364,-2.1571 0.2373,-129.3029 15.75,-76.125 -54.2126,-22.6036 -152.0555,2.7952 -79,27 -83.3548,183.4018 -86.2933,-6.6656 -46,-17 -18.7597,45.2136 -111.0352,87.9166 -93,100 -60.8818,16.6795 40.327,160.0962 2,118 -134.3595,31.3693 -73.3743,83.8193 -21,61 -109.5097,-47.8057 -4.335,83.1766 56,11 -3.2877,43.1495 71.9089,-46.2862 122,-14 -12.6174,90.5239 -52.9831,176.6024 -40.125,122 20.9196,44.4493 32.8441,132.7555 -17,87.125 14.8828,-47.7789 -20.2586,156.6974 -15.875,148.875 -19.8832,115.5507 -85.4872,281.3021 -61.875,211.375 -18.1892,43.7651 9.2599,124.083 -43.125,103.625 -41.0521,84.5136 -102.583,215.6541 -68,168 -15.1993,23.2305 -91.547,173.4718 -45,124 22.0765,85.7455 -133.3475,234.9916 -87.625,200.375 1.969,162.1747 -180.9003,106.8438 -59.375,166.625 -47.6647,53.1211 -85.2626,217.9742 -35,136 -19.0408,52.6437 -90.2619,185.6221 -93,176 -8.8355,26.2388 -80.6165,211.5899 -68,154 -45.7493,56.2496 -147.5937,258.1994 -111,192.75 -8.582,8.8969 -58.2229,155.8799 -45,108.25 -64.9095,46.2141 -164.8225,245.261 -86,146 -50.1501,36.5285 -80.7063,174.4394 -73,125 -147.7269,102.9784 -104.3716,197.9458 -69.875,114.9688 -83.5367,82.2612 -111.2376,218.791 -89.125,128.0312 -53.5273,76.874 -81.5482,230.1799 -95,155 -33.3472,32.6887 -260.0892,232.102 -187.25,156.125 -57.9354,68.1603 -165.9578,172.3299 -108.375,129 -9.1797,14.3859 -69.9351,149.7146 -48.375,79.875 -40.9496,0.4153 -82.6702,101.946 -118,123 -102.5905,11.7949 -99.167,129.0018 -85.375,64.25 -82.1128,27.5537 -244.8353,164.454 -157.5,122.625 -67.2535,125.1752 -193.9423,253.2691 -147.5,185.375 -26.1169,-55.5317 -18.8426,-121.3333 -60.625,-6.25 -138.6057,170.84 -24.7047,-16.0069 -145,133 2.749,-41.8538 -147.3593,71.1894 -103,53 -155.7435,27.296 -212.672,68.8867 -189,72 -28.3769,55.2619 -170.5453,99.4278 -136,86 -45.2106,69.1352 -176.1758,136.2033 -138,106 -36.0604,-45.1986 -170.4363,1.6477 -104,35 -28.8454,-12.4472 -345.9641,172.5901 -210,97 -40.5973,2.8847 -131.3084,74.0233 -119,63 -86.3963,91.9885 164.5464,153.7033 142,135 95.2274,69.0242 195.2723,93.3279 137,63 -42.6387,35.2901 225.8574,6.1289 105,56 70.9505,64.6089 28.4752,-16.6201 70,32 124.3279,-23.5758 210.0221,71.0508 109,63 23.198,39.5983 137.7076,164.1881 112,120 40.094,35.0628 263.6161,168.6737 226.5,115.875 43.3294,-36.337 225.5024,-5.4735 159.125,24 82.7455,104.7907 131.4654,8.5028 128.375,33.125 62.053,42.8822 106.3905,-13.3051 25,56.25 81.6452,-103.6247 205.1858,-93.4586 130.7188,-27.1719 73.9235,196.3146 10.0389,-71.8323 102.4062,57.5469 -85.6918,-74.242 120.499,-121.1886 153.5,-39.5 16.5495,86.2516 134.7139,115.9804 108.5,47.875 36.5445,-18.1389 88.4478,-18.9719 105.875,-8 63.112,-57.1339 186.7824,-81.3372 126,-10.125 76.4465,117.198 200.1049,-92.2561 101.125,-54.75 95.9243,26.5409 71.9842,-110.8326 191,-32.125 55.2831,5.0732 178.7741,-4.1297 193.875,-1 247.6726,-60.6392 225.9049,-2.3724 303,-58 -17.8635,-63.6332 99.3972,-228.7098 118,-133 -0.5568,-35.2187 375.8451,-384.0789 98.5,-47.75 137.914,-22.5896 312.6462,27.1154 202.5,-10.25 -118.5499,-81.3606 24.6571,-244.842 73,-148 37.3502,-86.0718 96.5574,-343.1149 82,-247 -23.9041,-52.9618 -34.7077,-262.3709 3,-259 91.6592,-82.5626 -44.4811,-32.0174 11,-138 -10.9612,107.667 54.4142,1.4661 -12,-25 23.0274,-229.5089 74.0991,40.3477 28,-169 -55.7408,-49.7568 10.4683,-75.5092 -13,-89 -163.0237,-233.6229 302.4658,129.8844 -108,-113 -75.8812,39.854 -171.0448,249.6707 -70,166 9.2532,-48.1435 -8.7294,-216.9099 -34,-165 -32.5203,-80.899 -23.541,-306.6068 -29,-217 31.5549,-82.0548 218.2139,-237.2117 107,-233.875 -24.4793,-102.425 14.92,-340.5446 -1,-177.125 55.9518,-133.4447 220.5371,-393.3236 128,-260 -44.875,-19.8354 63.5339,-123.0875 52.875,-85 24.7249,-30.8305 95.613,-190.6828 77.375,-130.875 40.155,-19.8346 215.0621,31.9402 147.75,-1.125 -8.5989,-107.9536 50.5615,38.0128 67,27 80.1763,28.6452 24.2394,194.3027 17,45 -58.9745,-65.7219 -115.9437,99.9169 -97,-2 72.0908,34.6728 145.4709,115.5986 110,110 45.3963,12.8621 50.7922,119.0826 61.875,62.875 0.9034,-158.4303 -47.1346,98.9057 -8.875,101.125 44.9931,13.0916 184.9542,67.7249 127,148 -69.8182,52.1599 44.7067,-145.3935 48.125,5.375 29.2109,121.3712 39.7811,312.6943 39.9844,212.4844 5.9245,31.3928 50.1384,240.7939 24.8906,167.1406 -29.773,75.8243 34.5318,201.4276 81.5,134.5 29.9102,88.9442 -2.9033,294.8816 20.25,187.875 2.9288,73.083 67.3919,276.8005 35.25,198.375 -43.2221,104.8656 -66.9982,332.6905 -35,257.25 1.1898,122.2548 -59.8194,309.0512 -41,236 -9.2156,81.076 -41.8566,321.9048 -64.375,223.625 -90.8385,-25.5317 -51.8888,400.21 -100.625,195.375 -45.9847,46.5165 -195.7315,189.754 -133.125,162.625 -43.2382,113.6828 -189.4003,136.8494 -194.875,235.375 -12.6178,57.426 -231.7085,104.0872 -145.5,102.875 -0.4044,30.6857 -194.0771,217.7259 -192.5,184.125 -76.7207,67.8186 -192.8333,58.8304 -150,110 -35.0261,-10.9085 -153.505,59.5116 -115,50 -61.719,73.9647 -216.7814,152.034 -183,100 85.9175,-23.7771 -153.7365,79.1391 -123.125,50.125 -27.5933,29.5387 -142.4323,34.4848 -96.875,12.875 -136.7281,39.6411 -294.7053,99.7804 -250.875,75.125 -115.3539,-29.3386 -98.5563,36.954 -269.125,27.875 -83.4578,-2.1038 -299.4493,-30.0531 -195,-12.625 -114.8267,26.6828 -617.0992,-102.9411 -386,-51.375 13.058,-18.69 -365.9681,0.098 -217,-54 -41.0952,25.5019 -256.3762,-44.3558 -207,-41 -78.2844,-32.0269 -250.0096,-27.9472 -154.75,-28.375 -108.5225,-6.1628 -308.2457,-123.4043 -294.75,-121.375 -64.2505,-32.6847 -280.2158,-161.0456 -223.5,-117.25 -86.2829,-41.3994 -318.0789,-167.2851 -251,-154 -124.7475,-83.3933 -313.5761,-251.695 -207.375,-162.625 -13.3981,20.3769 -195.4323,-142.3311 -161.625,-119.625 -83.3218,-102.3331 -55.7103,139.7831 -43,114 53.7745,160.4568 101.2829,293.977 129,220.375 34.5046,14.3624 181.8477,179.0725 130,136.875 42.4633,-70.0446 200.6138,569.9952 82,173 7.8805,74.7716 55.9371,308.3885 59.375,218.625 67.5563,154.6979 48.3151,232.2325 71.5,301.5 -2.1933,103.8796 -18.823,364.9042 -11.875,309.875 21.1909,86.8828 -187.7557,182.4179 -123,184 -38.2515,-89.5228 -8.3692,19.4178 -45,-5 z M 7296,4428 c -21.9474,-117.401 -151.3945,-213.5838 -131,-182 -62.3838,0.1004 -109.7648,49.2208 -64,79 -7.9655,113.2077 195.0723,129.6477 145,43 -31.0004,-38.2302 10.2617,91.189 50,60 z M 6681,1277 c 64.0798,-54.6441 86.2904,-99.6629 91.5,-76.125 109.4165,-76.4078 146.0898,-90.9254 37.5,-84.875 -25.3179,-48.5674 -133.8952,-97.6603 -51,-96 -41.4589,54.6999 -189.0051,408.0488 -72,180 273.513,-189.3189 -119.8316,127.5881 -6,77 z"
       id="path8" />
    <path
       d="m 1957,4573 c -124.6755,-207.8736 37.6702,-125.4742 26.625,-73.625 -126.7085,-135.8981 -110.4,-212.9774 -27.875,-94.75 -25.1976,15.6038 22.1344,-84.0448 49.25,-8.625 26.8278,53.1344 -79.0968,158.2475 -14,139 -73.5929,55.2477 105.9258,15.7121 -34,38 z"
       id="path10" />
    <path
       d="m 6679,1544 c 16.9858,-110.6827 51.2496,-285.0076 0,-164 49.26,50.9619 118.3436,121.2716 56,81 61.0035,77.4144 79.981,-89.2396 74.375,-24.125 23.7227,-44.1605 -29.7049,106.7586 16.625,83.125 -40.4617,50.0263 -89.9864,23.8227 -147,24 z"
       id="path12" />
  </g>
</svg>
