<?xml version="1.0" standalone="no"?>
<!DOCTYPE svg PUBLIC "-//W3C//DTD SVG 20010904//EN"
 "http://www.w3.org/TR/2001/REC-SVG-20010904/DTD/svg10.dtd">
<svg version="1.0" xmlns="http://www.w3.org/2000/svg"
 width="1024.000000pt" height="1024.000000pt" viewBox="0 0 1024.000000 1024.000000"
 preserveAspectRatio="xMidYMid meet">
<metadata>
Created by potrace 1.16, written by Peter Selinger 2001-2019
</metadata>
<g transform="translate(0.000000,1024.000000) scale(0.100000,-0.100000)"
fill="#000000" stroke="none">
<path d="M5145 9780 c-3 -6 -17 -8 -31 -6 -14 3 -22 1 -19 -5 4 -5 11 -6 17
-3 7 4 8 2 4 -4 -4 -6 -13 -9 -21 -6 -14 6 -39 -29 -28 -40 3 -3 2 -6 -4 -6
-5 0 -15 -12 -22 -27 -12 -26 -12 -27 6 -13 11 8 9 5 -3 -6 -13 -12 -20 -25
-17 -28 4 -3 1 -6 -5 -6 -7 0 -19 -15 -27 -32 -11 -24 -13 -26 -9 -8 5 19 3
22 -5 14 -7 -6 -13 -20 -14 -31 0 -11 -7 -20 -14 -20 -6 0 -10 5 -7 11 3 6 -3
1 -13 -11 -10 -11 -27 -23 -38 -25 -11 -2 -19 -10 -17 -18 3 -11 0 -11 -13 0
-13 11 -15 10 -9 -6 4 -10 3 -16 -1 -11 -5 4 -20 0 -33 -9 -24 -16 -26 -16
-44 6 -10 12 -15 27 -11 33 4 6 1 7 -6 3 -7 -5 -10 -14 -7 -22 3 -8 1 -14 -5
-14 -6 0 -7 -5 -4 -10 4 -6 10 -8 15 -5 10 6 35 -23 26 -32 -3 -3 -6 -1 -6 6
0 7 -4 10 -9 6 -5 -3 -12 -1 -16 5 -3 6 -17 8 -31 6 -14 -3 -22 -1 -19 5 4 5
1 9 -4 9 -6 0 -11 -9 -11 -20 0 -11 -5 -20 -12 -20 -6 0 -8 -3 -5 -6 4 -4 12
-3 19 3 17 13 58 14 58 2 0 -6 -5 -7 -12 -3 -8 5 -9 1 -5 -12 7 -18 6 -18 -7
-1 -18 23 -29 22 -17 -2 12 -21 -11 -52 -24 -31 -6 10 1 14 20 10 6 -1 6 2 2
6 -18 18 -35 11 -32 -13 2 -20 -1 -24 -16 -20 -11 3 -22 0 -26 -5 -3 -6 -1 -8
4 -5 11 7 28 -22 18 -31 -3 -3 -5 1 -5 8 0 7 -3 10 -7 7 -3 -4 -11 -3 -17 3
-7 5 -17 5 -26 -2 -13 -8 -12 -9 2 -5 16 6 35 -20 23 -31 -3 -3 -5 0 -5 6 0
21 -42 13 -47 -8 -3 -11 -9 -18 -13 -15 -5 3 -11 -4 -15 -15 -4 -11 -10 -18
-14 -16 -4 3 -14 -10 -23 -29 -9 -21 -11 -32 -4 -29 6 3 2 -2 -9 -11 -11 -9
-20 -20 -20 -26 0 -5 -7 -14 -15 -19 -12 -8 -12 -10 -1 -10 9 0 7 -6 -8 -19
-16 -14 -18 -21 -9 -24 8 -4 7 -6 -4 -6 -10 -1 -18 -8 -18 -17 0 -9 5 -12 13
-8 8 5 8 2 -2 -9 -15 -19 -26 -23 -15 -5 5 7 3 8 -5 3 -9 -5 -10 -10 -2 -18
14 -14 48 4 43 23 -1 6 2 8 8 5 8 -5 6 -13 -4 -24 -25 -27 -19 -35 12 -16 l27
18 -25 -28 c-14 -16 -20 -25 -13 -21 15 9 53 -14 53 -33 0 -10 3 -11 14 -2 12
10 14 8 9 -11 -4 -18 -3 -20 6 -8 6 8 11 10 11 5 0 -6 -5 -16 -12 -23 -9 -9
-9 -12 3 -12 12 0 12 -2 -1 -10 -13 -8 -12 -10 3 -10 9 0 17 -4 17 -10 0 -5
-8 -7 -17 -3 -15 5 -16 3 -5 -8 13 -14 17 -33 5 -26 -5 3 -9 -18 -10 -45 -2
-28 -7 -56 -13 -63 -7 -9 -7 -21 0 -39 7 -18 6 -26 -1 -26 -6 0 -1 -8 11 -18
18 -14 19 -19 7 -19 -9 0 -14 4 -11 9 3 4 1 8 -5 8 -6 0 -9 -16 -7 -37 2 -21
-1 -44 -7 -51 -6 -7 -6 -12 -1 -11 21 4 28 -2 14 -12 -12 -8 -9 -9 10 -4 17 4
21 3 11 -3 -8 -6 -13 -27 -13 -51 1 -55 9 -67 32 -46 10 9 23 14 29 11 5 -4
12 -2 15 3 7 11 -16 21 -41 17 -10 -2 -12 -1 -5 1 7 3 10 9 7 14 -3 5 0 6 8 3
14 -5 17 29 4 42 -4 4 -7 12 -7 18 0 6 7 3 15 -7 7 -11 11 -25 9 -32 -8 -21
19 -12 47 14 21 21 21 23 4 17 -16 -6 -17 -5 -8 5 10 10 17 9 32 -5 18 -17 20
-17 31 1 10 15 11 15 6 1 -3 -11 2 -19 15 -23 11 -4 18 -9 16 -12 -3 -3 -14 0
-24 5 -13 8 -23 6 -37 -6 -11 -9 -17 -12 -13 -6 3 6 0 11 -8 11 -8 0 -11 -5
-8 -10 4 -6 1 -7 -7 -2 -9 5 -11 4 -6 -4 4 -6 0 -14 -9 -17 -13 -6 -14 -8 -3
-15 10 -7 10 -9 0 -9 -10 0 -10 -4 0 -19 7 -11 16 -17 21 -14 5 3 3 9 -4 14
-7 4 -10 12 -5 16 5 4 11 2 13 -4 3 -7 9 -13 14 -13 6 0 8 4 4 9 -3 5 -1 12 5
16 6 4 7 11 4 17 -7 10 13 28 31 28 6 0 4 -4 -4 -9 -8 -5 -12 -18 -9 -29 5
-16 2 -19 -11 -14 -14 5 -14 4 -2 -12 8 -9 10 -16 5 -15 -26 5 -39 -1 -24 -11
9 -6 11 -10 3 -10 -7 0 -11 -6 -9 -12 1 -7 1 -10 -1 -5 -3 4 -9 7 -14 7 -6 0
-7 -4 -4 -10 3 -5 1 -10 -5 -10 -6 0 -8 -5 -5 -10 4 -6 12 -7 18 -3 8 5 8 2 0
-9 -7 -8 -10 -17 -8 -20 10 -10 14 -49 4 -43 -5 4 -6 11 -3 17 4 6 -2 6 -15
-1 -11 -7 -21 -18 -21 -26 0 -7 -5 -17 -11 -21 -8 -4 -9 1 -4 17 4 17 3 20 -3
10 -7 -9 -12 -10 -16 -2 -4 6 -2 12 3 12 6 1 16 2 23 3 6 0 13 7 16 15 3 8 0
11 -5 8 -5 -3 -10 -1 -10 6 0 7 -4 20 -8 30 -4 10 -3 17 3 17 6 0 9 9 7 20 -2
13 0 18 7 14 6 -4 9 -1 6 6 -5 16 -45 23 -53 10 -3 -5 -11 -8 -18 -6 -7 1 -8
1 -4 -2 4 -2 2 -11 -5 -20 -11 -15 -10 -14 14 1 15 9 30 17 33 17 12 0 4 -29
-12 -41 -15 -11 -16 -11 -5 1 6 8 12 18 12 23 0 13 -19 -2 -31 -25 -8 -15 -8
-19 0 -14 11 7 12 4 15 -46 0 -14 4 -30 9 -34 12 -12 8 -26 -5 -18 -9 6 -9 3
1 -9 7 -9 11 -23 8 -31 -4 -11 -1 -13 11 -9 15 6 15 5 3 -10 -7 -9 -10 -17 -5
-17 5 0 2 -5 -6 -10 -9 -6 -11 -10 -3 -10 7 0 10 -7 6 -17 -3 -10 -3 -15 2
-11 4 4 9 18 9 30 1 13 5 28 9 35 4 6 3 14 -2 18 -11 6 18 74 32 75 11 0 4
-33 -8 -43 -5 -4 2 -5 17 -3 16 3 28 -1 31 -8 4 -9 -3 -12 -21 -9 -26 4 -26 4
-8 -11 11 -9 14 -16 8 -16 -7 0 -12 -5 -12 -11 0 -5 6 -7 13 -3 6 4 4 -2 -7
-14 -17 -19 -17 -22 -2 -28 9 -3 13 -10 10 -15 -3 -5 -10 -7 -15 -4 -5 3 -6
-1 -3 -9 6 -15 18 -20 37 -17 4 1 2 -8 -5 -18 -7 -11 -16 -17 -22 -14 -5 4 1
-9 14 -27 13 -18 19 -30 12 -26 -7 4 -12 2 -12 -7 0 -22 12 -28 29 -14 14 11
14 10 2 -5 -7 -10 -17 -15 -22 -12 -5 3 -9 1 -9 -4 0 -10 -30 -10 -46 1 -6 3
-11 0 -11 -7 0 -9 12 -13 36 -11 41 3 61 -3 61 -17 0 -6 -6 -6 -14 2 -10 8
-21 8 -32 2 -9 -5 -26 -8 -38 -5 -18 3 -18 2 -3 -5 10 -4 19 -12 19 -17 0 -6
3 -16 6 -24 3 -7 -1 -17 -9 -23 -11 -8 -10 -8 5 -4 14 5 17 2 12 -11 -6 -17
-5 -17 8 0 19 25 26 21 13 -7 -7 -13 -15 -22 -19 -20 -5 3 -8 0 -8 -5 0 -6 9
-11 21 -11 11 0 17 -5 14 -10 -4 -6 -11 -7 -17 -4 -13 8 -2 -13 20 -39 15 -16
14 -17 -4 -11 -17 7 -18 6 -5 -10 8 -9 20 -15 27 -12 7 3 16 1 19 -5 4 -5 3
-9 -2 -8 -34 6 -41 -2 -33 -35 4 -19 4 -40 -1 -47 -4 -7 -4 -20 1 -30 5 -9 6
-20 2 -24 -4 -5 -1 -5 6 -1 7 4 12 1 12 -9 0 -9 -4 -14 -8 -11 -4 2 -8 -11 -8
-30 0 -19 4 -34 8 -34 4 0 7 -5 6 -11 -2 -6 9 -12 24 -13 14 -1 24 2 22 6 -3
4 0 16 6 25 11 16 11 16 6 1 -3 -10 -1 -20 5 -23 5 -4 8 -1 7 7 -2 7 2 12 8
11 6 -1 11 4 11 12 0 8 -4 12 -8 10 -4 -3 -10 2 -13 11 -6 15 -4 15 20 -1 26
-16 26 -16 19 7 -3 12 -3 19 2 13 11 -13 33 -17 33 -6 0 5 11 9 25 9 13 0 22
-5 19 -10 -3 -4 -13 -7 -21 -6 -16 3 -27 -28 -16 -45 7 -11 43 22 43 40 0 9 5
11 13 7 9 -6 9 -5 0 7 -6 8 -13 19 -15 24 -1 6 -7 9 -13 7 -5 -2 -6 0 -2 4 10
11 38 14 32 4 -3 -4 2 -10 10 -13 9 -4 12 -1 9 7 -3 8 -1 17 5 21 6 3 11 0 11
-7 0 -10 2 -10 9 0 4 8 12 13 17 13 5 -1 9 3 9 8 0 5 4 13 9 18 5 5 6 3 2 -4
-10 -17 2 -16 20 1 11 11 11 16 1 19 -6 3 -2 6 10 6 17 1 21 5 16 19 -3 9 -3
14 1 10 13 -11 35 15 25 28 -7 8 -4 11 8 10 10 0 17 4 16 11 -2 6 6 15 17 18
11 4 18 11 15 16 -4 5 -1 9 5 9 7 0 10 6 7 14 -4 10 1 12 16 9 18 -4 19 -3 7
6 -13 9 -13 11 3 11 9 0 16 6 15 13 -2 6 3 11 10 9 8 -1 11 2 7 8 -3 5 -1 10
5 10 6 0 8 5 5 10 -3 6 1 10 9 10 8 0 18 5 22 12 4 6 3 8 -4 4 -6 -3 -13 -2
-17 4 -3 6 4 10 17 10 18 0 20 2 8 10 -13 8 -13 10 1 10 11 0 15 8 14 25 -2
15 2 25 10 25 8 0 11 7 8 20 -3 12 0 20 6 20 7 0 9 -5 5 -12 -4 -6 -3 -8 4 -4
6 3 9 15 7 26 -2 11 1 20 7 20 7 0 6 5 -2 15 -10 12 -8 13 10 10 18 -3 20 -2
10 10 -11 13 -7 19 11 17 4 -1 5 7 2 18 -3 12 1 22 11 26 8 3 15 16 15 27 -1
37 5 62 17 69 6 4 10 21 9 38 -1 16 2 30 7 30 5 0 7 4 3 9 -3 5 -1 12 5 16 6
4 8 10 5 15 -3 5 1 26 10 46 8 20 12 40 9 45 -3 5 0 9 6 9 6 0 9 4 5 9 -3 5 2
17 11 25 8 9 11 16 5 16 -6 0 -11 4 -11 10 0 5 6 7 14 4 9 -4 13 2 11 20 -2
14 3 27 11 30 7 3 11 12 8 21 -3 8 -2 15 3 15 5 0 10 12 11 26 1 15 10 33 20
41 9 8 11 12 5 8 -7 -3 -13 -1 -13 4 0 6 5 11 11 11 5 0 8 4 5 9 -3 4 1 16 8
27 8 10 12 24 9 30 -2 7 0 15 6 19 6 3 11 17 11 31 0 13 5 24 11 24 5 0 7 5 4
10 -4 6 -1 18 7 27 11 14 11 15 0 9 -16 -10 6 34 23 46 6 5 5 8 -4 8 -11 0
-11 3 -1 15 7 9 14 26 14 38 1 12 5 28 9 35 5 6 5 17 2 22 -3 6 -2 10 4 10 16
0 38 82 40 148 1 15 5 21 13 16 7 -5 8 -3 3 6 -15 24 -13 61 2 48 7 -6 13 -9
14 -7 6 27 4 47 -5 43 -6 -3 -2 2 8 10 11 9 16 19 13 23 -4 3 -7 3 -7 -2 0 -4
-7 -2 -15 5 -13 11 -14 10 -9 -4 4 -12 0 -16 -15 -16 -12 0 -21 -6 -21 -16 0
-8 -4 -12 -10 -9 -9 6 -14 -8 -11 -27 0 -5 -6 -8 -15 -8 -9 0 -12 5 -8 12 4 7
3 8 -4 4 -7 -4 -12 -16 -12 -26 0 -10 -4 -21 -8 -24 -5 -3 -8 5 -7 17 1 12 -2
32 -6 44 -4 12 -4 23 1 25 5 2 -2 8 -15 14 -20 10 -27 9 -37 -4 -11 -13 -10
-15 3 -10 16 6 39 -8 39 -23 0 -4 -7 -10 -16 -13 -13 -5 -14 -4 -6 7 7 8 9 16
6 20 -10 9 -34 -4 -34 -18 0 -8 -5 -17 -11 -21 -8 -4 -9 1 -4 16 5 17 4 21 -5
15 -9 -5 -11 -4 -6 3 4 6 2 20 -4 31 -7 13 -7 22 0 26 6 4 7 11 4 17 -4 6 -10
5 -15 -3 -6 -9 -9 -10 -9 -2 0 16 30 44 40 38 4 -3 11 2 14 11 3 8 2 12 -4 9
-5 -3 -18 -1 -27 4 -10 6 -12 11 -5 11 6 0 11 6 10 13 -2 7 5 11 16 9 17 -3
18 -1 7 12 -7 8 -20 12 -29 9 -14 -4 -15 -3 -2 5 10 8 18 8 27 0 9 -7 13 -7
13 1 0 6 -7 14 -15 17 -8 4 -15 11 -15 17 0 5 9 2 20 -8 11 -10 20 -14 20 -9
-1 11 -27 46 -32 43 -11 -9 -69 22 -62 33 4 7 -1 5 -12 -4 -19 -17 -21 -17
-36 2 -16 18 -58 18 -58 -1 0 -12 14 -11 26 1 8 8 15 6 23 -4 9 -11 9 -16 0
-22 -7 -4 -9 -3 -5 4 3 6 2 13 -3 16 -5 4 -13 1 -16 -5 -4 -5 -13 -8 -21 -5
-7 3 -20 -1 -27 -9 -13 -12 -14 -10 -14 11 0 13 3 27 8 30 5 3 6 -3 3 -13 -5
-14 -4 -15 4 -4 7 9 7 21 2 32 -5 9 -6 20 -2 24 4 3 3 6 -3 5 -25 -5 -34 2
-37 32 -2 22 -10 36 -25 44 -13 6 -20 14 -16 17 3 4 1 7 -5 7 -7 0 -12 -6 -12
-14 0 -8 -4 -18 -10 -21 -7 -4 -7 3 0 20 13 34 13 32 -10 38 -12 3 -24 -1 -30
-11 -5 -10 -9 -12 -9 -7 0 17 26 45 34 37 5 -4 5 -1 1 6 -9 15 -13 15 -21 2z
m-429 -1553 c8 3 14 0 14 -7 0 -6 4 -8 10 -5 5 3 7 0 4 -8 -3 -8 -1 -18 5 -22
6 -3 11 0 11 7 0 9 3 9 10 -2 5 -8 15 -15 21 -15 7 0 13 -7 14 -16 4 -23 -31
-19 -48 5 -8 11 -22 21 -32 22 -9 1 -14 0 -11 -3 3 -4 0 -13 -6 -21 -7 -7 -14
-23 -15 -35 -4 -25 7 -17 12 10 2 10 4 20 4 22 1 2 9 -3 19 -10 15 -13 16 -12
3 4 -12 15 -11 17 3 17 17 0 17 0 19 -47 1 -17 5 -34 9 -38 4 -4 4 6 2 23 -4
27 -3 29 23 26 15 -1 33 2 40 8 9 7 13 7 13 0 0 -6 -8 -16 -17 -21 -10 -6 -13
-11 -7 -11 16 0 37 27 30 39 -4 6 -13 8 -21 5 -9 -4 -13 2 -11 19 2 20 -1 25
-15 22 -9 -2 -20 3 -23 11 -4 11 -2 12 13 5 10 -6 21 -8 24 -4 3 3 13 -2 22
-11 9 -9 20 -14 25 -11 13 8 21 -25 10 -46 -6 -11 -7 -25 -3 -32 12 -19 12
-37 1 -37 -6 0 -8 7 -5 14 4 11 1 13 -10 9 -12 -5 -14 -3 -8 7 6 9 4 11 -4 5
-9 -5 -10 -10 -2 -18 19 -19 13 -65 -9 -77 -12 -7 -18 -16 -13 -23 4 -7 0 -7
-10 2 -17 13 -24 26 -9 17 14 -8 38 19 39 44 0 14 -1 19 -4 12 -3 -6 -10 -9
-16 -5 -7 4 -6 -1 2 -10 15 -19 2 -24 -16 -6 -8 8 -13 8 -18 0 -3 -6 -3 -11 2
-10 26 5 24 -4 -6 -22 -27 -16 -31 -23 -20 -30 10 -6 8 -9 -10 -9 -25 0 -22
-12 4 -16 15 -2 19 8 16 34 -3 20 16 14 22 -8 3 -13 10 -18 21 -14 10 4 16 1
16 -9 0 -8 6 -18 13 -20 9 -4 9 -6 -1 -6 -7 -1 -15 5 -18 13 -3 9 -12 12 -21
9 -14 -5 -13 -8 3 -21 18 -14 18 -14 1 -8 -13 4 -17 2 -14 -6 2 -7 10 -12 16
-10 7 1 10 -2 6 -8 -6 -9 8 -14 28 -11 5 1 6 -3 2 -9 -4 -7 -12 -7 -26 0 -18
10 -59 -1 -59 -16 0 -2 8 0 18 5 11 6 24 6 33 0 11 -7 9 -9 -8 -9 -16 0 -21
-4 -17 -15 4 -8 1 -15 -6 -15 -6 0 -8 5 -4 12 5 8 2 9 -10 5 -10 -4 -15 -3
-11 3 4 6 -9 17 -27 25 -28 12 -30 14 -10 15 13 0 20 4 17 10 -4 6 -11 7 -17
4 -7 -4 -8 -2 -4 5 4 6 11 9 16 6 4 -3 11 2 14 11 4 11 2 15 -8 11 -11 -4 -13
-1 -9 10 5 13 2 15 -13 10 -15 -5 -15 -3 4 9 27 20 29 54 3 61 -13 3 -18 10
-14 21 4 9 2 13 -4 9 -6 -4 -14 0 -17 9 -3 8 -2 13 3 10 5 -3 12 1 15 10 4 11
2 15 -7 11 -10 -4 -14 2 -13 16 1 12 -2 28 -7 34 -6 9 -4 15 7 19 9 3 13 10
10 16 -3 5 -13 4 -22 -4 -10 -7 -7 -1 4 12 12 14 20 31 18 38 -1 7 0 8 2 3 3
-6 12 -7 20 -4z"/>
<path d="M5523 9688 c-3 -7 -1 -8 5 -4 7 4 12 2 12 -3 0 -6 -8 -11 -17 -11
-15 0 -15 -2 2 -14 18 -13 18 -14 -2 -25 -14 -7 -20 -17 -16 -31 3 -11 9 -18
12 -15 4 2 8 -2 8 -10 0 -8 -5 -11 -10 -8 -6 4 -8 0 -4 -10 3 -9 2 -19 -4 -23
-6 -4 -6 -11 1 -19 7 -8 8 -20 4 -27 -12 -20 -12 -88 0 -82 6 3 2 -1 -8 -10
-10 -8 -22 -13 -27 -11 -4 3 -10 1 -13 -4 -4 -5 -2 -13 4 -16 7 -5 8 -11 1
-19 -19 -23 5 -43 27 -22 13 11 22 14 27 7 3 -6 11 -11 17 -11 6 0 5 7 -3 17
-10 11 -10 14 -1 9 7 -4 12 -1 12 9 0 10 5 13 12 9 7 -4 8 -3 4 5 -4 6 -11 9
-16 6 -11 -7 -21 22 -13 40 3 10 1 15 -7 13 -7 -2 -15 4 -17 12 -4 13 -3 13 6
0 9 -12 10 -8 6 17 -5 33 22 61 54 54 7 -1 10 2 6 8 -3 6 -14 11 -23 12 -14 0
-13 2 3 9 15 7 16 9 4 9 -9 1 -19 10 -22 20 -3 14 -1 18 9 14 8 -3 12 -8 9
-12 -2 -4 2 -8 10 -8 10 0 12 4 5 12 -5 7 -7 15 -3 18 3 4 1 13 -5 20 -7 8 -9
17 -5 21 4 3 -2 13 -13 21 -13 10 -14 14 -4 12 8 -2 12 -2 8 0 -5 3 -8 9 -8
14 0 6 6 7 13 3 6 -4 8 -3 4 1 -12 13 -36 15 -44 3z"/>
<path d="M3506 8145 c5 -13 1 -15 -20 -11 -15 3 -24 1 -21 -5 4 -5 1 -9 -4 -9
-6 0 -11 -5 -11 -11 0 -5 5 -7 12 -3 6 4 8 3 5 -4 -4 -5 -18 -9 -32 -7 -22 2
-23 0 -13 -13 11 -13 11 -14 0 -8 -7 4 -19 2 -27 -4 -8 -7 -21 -10 -29 -7 -8
3 -17 -1 -20 -9 -3 -8 -9 -13 -13 -12 -4 1 -22 -5 -39 -15 -17 -9 -35 -13 -39
-9 -5 4 -5 1 -1 -5 4 -8 1 -13 -8 -13 -9 0 -16 -5 -16 -11 0 -5 -4 -8 -9 -4
-5 3 -12 -4 -16 -15 -4 -11 -11 -18 -16 -15 -5 4 -9 1 -9 -4 0 -6 -7 -11 -16
-11 -8 0 -13 -4 -10 -8 3 -5 -6 -15 -19 -22 -14 -7 -25 -17 -25 -22 0 -4 -7
-8 -15 -8 -8 0 -15 -4 -15 -10 0 -5 -7 -10 -16 -10 -9 0 -12 -5 -8 -12 5 -8 2
-9 -9 -5 -10 4 -16 2 -14 -6 1 -7 -4 -11 -12 -9 -11 2 -12 0 -3 -11 9 -11 7
-13 -11 -12 -12 2 -21 7 -20 12 4 20 -35 10 -47 -13 -8 -13 -17 -24 -21 -24
-4 0 -10 -11 -13 -25 -4 -14 -11 -23 -16 -20 -6 3 -10 1 -10 -5 0 -6 -6 -17
-12 -25 -29 -30 -48 -56 -48 -65 0 -6 -5 -10 -11 -10 -5 0 -8 -4 -4 -9 3 -5 1
-12 -5 -16 -6 -4 -7 -11 -4 -17 4 -6 2 -8 -3 -5 -6 4 -16 -7 -23 -23 -7 -16
-16 -28 -20 -25 -4 3 -11 -7 -15 -22 -3 -15 -15 -34 -25 -43 -11 -10 -17 -20
-13 -24 3 -3 1 -6 -6 -6 -7 0 -9 -5 -5 -12 5 -8 2 -9 -11 -4 -15 5 -16 4 -5
-9 10 -12 10 -15 0 -15 -16 0 -60 -50 -60 -68 0 -7 -4 -10 -10 -7 -5 3 -10 0
-10 -8 0 -8 -7 -20 -15 -27 -8 -7 -12 -16 -9 -21 3 -5 0 -9 -6 -9 -6 0 -8 -4
-5 -10 3 -5 -1 -10 -9 -10 -9 0 -13 -7 -11 -20 2 -11 -1 -20 -6 -20 -6 0 -8
-4 -4 -9 3 -5 1 -12 -5 -16 -6 -4 -8 -11 -5 -16 4 -5 -1 -9 -11 -9 -13 0 -14
-3 -4 -15 11 -13 7 -19 -11 -17 -3 1 -5 -10 -3 -24 1 -15 -2 -22 -9 -17 -6 4
-8 0 -4 -9 4 -12 1 -14 -14 -11 -11 3 -19 2 -18 -3 4 -22 -2 -35 -13 -28 -8 5
-9 2 -4 -12 4 -10 4 -15 0 -12 -3 4 -13 1 -20 -7 -17 -17 -18 -28 -1 -20 6 4
4 0 -7 -9 -19 -15 -52 -71 -36 -61 5 3 2 -8 -6 -24 -8 -17 -17 -39 -19 -50 -2
-11 -9 -29 -15 -40 -8 -16 -8 -21 2 -21 6 0 3 -7 -8 -15 -10 -8 -15 -15 -10
-15 5 0 3 -6 -3 -14 -7 -8 -13 -31 -15 -51 -2 -21 -8 -40 -13 -44 -4 -3 -9
-10 -10 -16 -1 -5 -4 -17 -8 -27 -4 -11 0 -18 12 -21 16 -4 16 -5 -2 -6 -14
-1 -16 -4 -7 -9 10 -7 10 -15 2 -37 -9 -23 -8 -26 3 -17 10 8 13 7 13 -8 0
-10 -4 -16 -8 -14 -17 10 -7 -16 10 -26 15 -10 15 -11 0 -6 -9 2 -19 -2 -22
-10 -4 -10 -2 -12 6 -8 7 5 9 0 6 -14 -4 -14 -1 -22 11 -25 13 -4 13 -5 -3 -6
-12 -1 -16 -6 -12 -17 3 -9 6 -18 6 -20 0 -3 6 -2 13 1 6 4 3 -1 -7 -9 -18
-14 -15 -21 7 -17 4 1 2 -8 -5 -19 -11 -17 -10 -22 2 -30 13 -9 7 -14 -12 -11
-14 2 -9 -8 15 -29 20 -20 20 -21 2 -15 -16 6 -16 3 5 -14 l25 -20 -25 5 c-14
2 -19 2 -13 -2 10 -4 10 -11 2 -26 -6 -12 -7 -18 -1 -14 5 3 13 -1 16 -10 3
-8 2 -12 -4 -9 -6 3 -10 1 -10 -4 0 -6 7 -11 15 -11 8 0 15 -4 15 -9 0 -5 -10
-7 -22 -4 -22 4 -22 3 2 -11 l25 -15 -25 -1 c-19 0 -22 -2 -10 -9 8 -6 19 -7
25 -3 6 3 6 0 -1 -9 -14 -18 -10 -44 10 -65 20 -20 21 -31 1 -14 -13 11 -14
10 -9 -4 3 -9 10 -16 15 -16 5 0 9 -9 9 -20 0 -18 10 -25 33 -21 4 0 7 -4 7
-10 0 -7 -9 -9 -21 -6 -16 4 -18 3 -9 -8 7 -8 8 -20 4 -27 -6 -10 -3 -9 9 1 9
7 17 12 18 10 8 -48 5 -158 -4 -152 -7 4 -5 -2 3 -12 9 -11 10 -16 3 -11 -7 4
-13 2 -13 -3 0 -6 -9 -20 -20 -31 -12 -12 -18 -25 -15 -30 4 -6 1 -10 -5 -10
-6 0 -8 -5 -4 -12 5 -8 2 -8 -10 1 -9 8 -16 10 -15 5 4 -23 -2 -35 -13 -28 -9
5 -8 2 1 -10 12 -15 12 -19 -2 -33 -14 -15 -14 -18 6 -35 17 -15 14 -15 -11 2
-29 19 -63 21 -37 2 6 -4 11 -20 12 -37 2 -27 1 -28 -10 -10 -6 11 -11 26 -12
32 0 7 -4 12 -10 10 -5 -1 -9 -6 -7 -11 2 -5 -4 -6 -11 -3 -9 3 -14 -1 -13
-11 0 -9 -5 -17 -13 -17 -8 0 -16 -10 -18 -23 -2 -15 1 -21 8 -17 6 4 8 14 4
23 -3 9 -3 13 1 9 4 -4 15 0 25 9 16 14 18 13 33 -7 8 -13 13 -25 9 -28 -3 -3
-8 0 -10 7 -3 6 -9 10 -14 7 -5 -4 -6 2 -2 11 9 24 -13 9 -28 -18 -9 -17 -8
-19 8 -14 10 3 23 2 28 -2 14 -10 17 -32 5 -32 -5 0 -10 7 -10 15 0 8 -4 15
-9 15 -6 0 -8 -9 -6 -20 2 -11 -2 -23 -8 -26 -7 -4 -9 -4 -5 1 4 4 0 14 -10
21 -19 15 -33 18 -31 7 4 -26 -1 -34 -15 -21 -11 11 -11 15 3 25 9 7 11 13 6
13 -26 0 -34 -23 -20 -51 11 -20 12 -30 3 -35 -7 -4 -8 -3 -4 4 4 7 2 12 -4
12 -6 0 -9 4 -5 9 3 5 1 13 -5 16 -6 4 -9 1 -8 -7 2 -7 -3 -12 -10 -10 -8 1
-11 -2 -7 -8 3 -6 10 -8 14 -6 4 3 8 -1 8 -9 0 -11 -5 -12 -21 -3 l-21 11 20
-23 c11 -13 13 -20 5 -15 -27 16 -51 14 -37 -4 9 -12 9 -13 0 -7 -8 4 -13 2
-13 -5 0 -8 -4 -8 -15 1 -13 11 -14 10 -8 -6 6 -17 5 -18 -12 -4 -17 14 -18
14 -5 -10 12 -23 12 -24 -3 -11 -12 9 -17 10 -17 2 0 -7 -4 -10 -9 -7 -10 6
-44 -28 -36 -36 3 -3 -2 -11 -12 -19 -11 -9 -14 -10 -9 -1 4 6 2 12 -3 12 -6
0 -11 -9 -11 -21 0 -13 -4 -18 -12 -13 -6 4 -8 3 -4 -4 3 -6 -1 -15 -9 -19
-19 -11 -30 -57 -12 -48 7 4 4 0 -6 -8 -14 -12 -15 -16 -4 -26 8 -6 17 -9 20
-6 4 3 4 2 1 -2 -5 -8 -9 -9 -35 -12 -5 0 -7 -6 -3 -13 5 -8 1 -9 -12 -5 -18
7 -18 6 -1 -7 17 -13 17 -14 0 -21 -17 -6 -17 -7 -1 -19 15 -11 15 -13 -3 -24
-25 -16 -24 -29 2 -37 22 -7 10 -25 -16 -25 -5 0 -3 5 5 10 9 6 10 10 3 10
-17 0 -25 -17 -12 -25 5 -4 8 -14 5 -22 -3 -8 0 -21 8 -28 7 -8 12 -26 10 -40
-1 -15 0 -24 3 -21 3 3 13 -2 21 -12 12 -14 11 -12 -1 8 -14 24 -13 26 4 27
11 1 17 -2 14 -8 -13 -21 7 -29 36 -14 16 9 35 13 41 9 7 -5 8 -3 3 6 -6 9 -4
11 6 6 8 -4 3 2 -10 13 -12 12 -27 19 -31 16 -4 -3 -10 1 -13 8 -3 9 2 13 16
12 21 -2 56 12 67 26 3 4 11 0 19 -8 11 -12 11 -14 0 -12 -26 3 -36 -1 -36
-16 0 -8 4 -15 9 -15 4 0 8 5 8 10 0 6 5 10 11 10 8 0 8 -5 -1 -15 -8 -10 -9
-15 -2 -15 6 0 16 8 21 18 6 9 11 12 11 7 0 -6 -11 -22 -24 -37 -14 -14 -22
-30 -18 -34 4 -5 -2 -2 -12 6 -17 14 -18 13 -12 -8 7 -22 5 -23 -33 -26 -8 -1
-16 -7 -19 -15 -3 -10 0 -11 9 -5 11 6 12 5 2 -7 -7 -8 -17 -26 -23 -40 -10
-23 -10 -23 -5 5 6 26 4 28 -9 17 -13 -11 -19 -11 -33 0 -16 12 -17 12 -7 -1
14 -20 12 -39 -6 -50 -8 -5 -11 -12 -7 -16 4 -4 0 -16 -10 -26 -12 -13 -13
-18 -3 -18 13 0 5 -15 -8 -15 -18 -1 -31 -17 -25 -32 4 -11 3 -14 -6 -9 -7 5
-10 2 -9 -6 2 -7 -3 -12 -10 -10 -10 2 -10 -2 -2 -19 7 -11 8 -24 4 -27 -4 -4
-9 -1 -11 6 -3 6 -9 12 -15 12 -6 0 -6 -6 2 -15 13 -15 5 -39 -11 -30 -5 4 -9
1 -9 -4 0 -6 8 -11 18 -11 16 -1 16 -2 -1 -14 -14 -11 -16 -19 -10 -33 5 -10
8 -28 8 -40 -2 -18 1 -20 21 -13 18 7 22 6 17 -5 -3 -8 -10 -12 -17 -8 -6 4
-5 -1 3 -10 16 -20 2 -23 -19 -4 -8 6 -6 2 4 -10 11 -13 16 -23 11 -23 -4 0
-2 -6 4 -13 6 -8 8 -16 5 -19 -3 -3 3 -5 13 -4 10 0 17 -4 16 -10 -1 -7 8 -9
25 -6 l27 6 -24 6 c-13 3 -25 14 -27 24 -2 12 2 16 13 12 8 -3 18 -6 21 -6 4
0 0 -5 -8 -11 -13 -9 -13 -10 0 -6 8 2 14 11 12 20 -2 11 3 15 18 12 22 -4 28
10 8 18 -9 3 -4 13 13 30 15 14 31 23 35 19 5 -4 2 1 -5 10 -13 18 -36 15 -25
-3 3 -5 0 -8 -8 -7 -7 2 -12 -3 -10 -10 1 -8 -2 -11 -9 -6 -8 5 -10 2 -5 -7 4
-8 -1 -3 -13 11 -21 26 -44 31 -74 17 -16 -7 -17 -6 -8 11 6 11 8 29 6 41 -2
14 0 19 7 15 7 -5 8 -2 3 6 -6 9 -4 11 4 5 10 -6 11 -3 2 13 -9 17 -8 19 9 15
11 -3 22 -14 25 -24 4 -10 10 -19 15 -19 5 0 8 -14 7 -32 -1 -17 3 -33 11 -35
8 -3 10 2 6 14 -4 13 -3 15 4 4 6 -8 12 -10 16 -3 4 6 -2 15 -11 21 -10 6 -13
11 -7 11 5 0 15 -5 22 -12 7 -7 12 -8 12 -3 0 6 -17 25 -37 43 -21 18 -32 30
-24 26 9 -4 12 -2 9 7 -3 8 -16 14 -31 13 -24 -1 -25 1 -15 20 12 20 13 25 16
54 1 7 7 10 14 6 6 -4 8 -3 4 4 -3 6 -3 13 2 16 4 2 9 -4 9 -15 1 -10 -5 -19
-13 -19 -8 0 -14 -4 -14 -10 0 -12 11 -13 30 0 15 9 24 50 11 50 -10 0 -11 39
-1 45 5 3 11 1 15 -5 3 -5 12 -10 18 -10 7 1 2 9 -11 20 -12 10 -18 21 -13 24
5 4 11 3 14 -1 2 -5 2 -3 1 4 -2 7 3 10 12 6 16 -6 19 -23 3 -23 -5 0 -7 -5
-3 -11 4 -8 9 -8 17 0 6 6 15 11 21 11 5 0 1 -7 -10 -16 -17 -14 -17 -15 -1
-10 11 3 16 2 12 -4 -3 -6 -1 -10 4 -10 6 0 11 -5 11 -10 0 -6 -10 -4 -23 5
-13 8 -27 12 -30 9 -4 -4 -14 -1 -24 7 -15 13 -16 12 -9 -6 4 -11 9 -27 11
-35 2 -8 7 -23 11 -34 5 -14 3 -17 -7 -14 -8 3 -22 1 -32 -4 -17 -9 -17 -11 2
-42 12 -18 18 -36 14 -39 -3 -4 1 -7 10 -7 10 0 17 -5 17 -11 0 -8 4 -8 14 0
11 9 16 9 22 0 5 -8 3 -9 -6 -4 -9 6 -11 4 -5 -5 5 -9 4 -11 -3 -6 -17 10 -15
1 4 -14 12 -11 15 -11 12 1 -2 8 3 13 11 11 11 -2 12 0 3 10 -6 8 -8 25 -5 38
4 15 3 21 -5 16 -17 -10 -23 10 -7 24 8 7 15 9 15 4 0 -5 4 -3 9 4 4 8 7 27 5
43 -2 16 1 29 7 29 6 0 7 -4 4 -10 -3 -6 -4 -10 -1 -10 3 0 10 9 16 21 12 22
-4 54 -21 43 -5 -3 -9 -1 -9 4 0 6 11 9 24 8 16 -1 22 -5 18 -16 -5 -13 -4
-13 12 -1 15 13 19 13 26 1 5 -8 13 -11 17 -6 4 4 0 13 -9 20 -15 11 -15 13 3
24 22 14 26 34 4 26 -8 -4 -15 -1 -15 6 0 6 5 8 10 5 6 -3 10 -2 10 4 0 19
-25 18 -36 -2 -10 -17 -12 -18 -17 -3 -4 10 -3 15 2 12 5 -3 11 1 15 9 3 9 12
12 23 9 13 -4 11 1 -7 17 -18 16 -20 20 -7 16 13 -5 17 -3 14 5 -2 7 -12 12
-22 10 -14 -3 -15 -1 -4 11 8 8 16 11 17 6 3 -6 8 -6 15 -1 7 5 20 7 29 3 15
-5 15 -8 1 -26 -13 -17 -15 -17 -9 -2 3 10 2 15 -3 12 -6 -3 -9 -14 -8 -25 1
-13 5 -16 13 -10 6 6 13 7 16 4 3 -2 8 2 12 11 4 11 2 14 -6 9 -7 -4 -8 -3 -4
5 4 6 11 9 16 6 4 -3 11 2 14 11 3 8 2 12 -4 9 -17 -10 -50 14 -44 33 5 16 5
16 -9 0 -8 -10 -18 -18 -22 -18 -5 0 2 11 15 25 13 14 20 25 15 25 -5 0 -4 5
2 11 6 6 9 19 6 28 -4 12 -3 13 5 2 7 -9 12 -10 16 -2 4 6 0 14 -8 17 -13 5
-12 9 7 25 12 10 17 18 12 19 -6 0 -16 -4 -23 -10 -9 -7 -9 -7 -2 2 6 7 5 18
-1 30 -7 13 -6 18 3 18 10 0 10 2 -1 9 -9 6 -10 11 -2 15 6 4 11 2 11 -4 0 -6
4 -9 10 -5 13 8 2 32 -15 32 -16 0 -28 -24 -19 -38 3 -5 0 -9 -5 -9 -15 0 -14
33 1 48 6 6 9 15 5 19 -4 3 -14 -2 -23 -13 -9 -10 -6 -2 5 20 18 31 19 37 6
32 -9 -3 -13 -2 -10 3 3 5 -3 12 -12 14 -14 4 -13 5 5 6 12 0 22 6 22 12 0 5
-5 7 -12 3 -7 -4 -8 -3 -4 4 4 7 3 12 -1 12 -5 0 -14 10 -22 23 -14 21 -13 22
6 4 21 -18 26 -15 48 22 6 10 2 12 -16 7 -13 -3 -18 -3 -11 0 6 3 9 10 6 16
-7 10 18 -2 46 -23 13 -9 12 -10 -2 -5 -21 6 -22 5 -6 -29 l11 -25 23 21 c17
16 21 26 14 39 -6 12 -5 17 5 17 7 0 11 -6 8 -13 -2 -6 1 -15 7 -19 8 -5 7
-11 -2 -23 -14 -17 -14 -17 37 4 8 3 15 1 15 -6 0 -6 -4 -9 -9 -5 -5 3 -12 1
-16 -5 -8 -13 -45 -13 -45 1 0 5 -5 7 -10 4 -16 -10 8 -35 34 -36 17 -1 18 -2
3 -6 -10 -3 -24 0 -31 6 -7 6 -16 8 -19 4 -9 -9 -9 -23 1 -22 21 4 32 -3 32
-18 0 -15 -2 -15 -9 -4 -13 20 -44 24 -37 4 3 -8 6 -18 6 -21 0 -4 5 0 11 8 9
13 10 13 6 0 -5 -16 -10 -16 -41 -4 -15 6 -14 3 5 -18 13 -13 26 -23 29 -22 3
1 6 -12 7 -29 1 -24 -1 -27 -9 -14 -11 20 -28 13 -28 -11 0 -15 2 -15 10 -2 8
13 10 12 10 -3 0 -10 4 -15 10 -12 19 12 10 -7 -12 -26 -13 -10 -18 -18 -11
-19 6 0 14 4 18 10 3 5 15 6 28 1 12 -4 29 -6 37 -3 13 5 13 3 1 -12 -13 -15
-11 -15 17 1 17 10 27 20 22 21 -6 2 -8 7 -5 12 5 9 -21 33 -39 36 -7 1 -13
-4 -13 -12 0 -7 3 -11 7 -9 4 2 7 -1 7 -8 0 -7 -7 -13 -16 -13 -11 0 -16 10
-16 32 0 18 2 30 4 28 3 -2 15 6 29 18 13 13 27 23 30 23 4 0 6 4 4 8 -1 5 2
6 8 2 6 -3 8 -11 5 -16 -4 -5 -1 -9 5 -9 6 0 8 -4 5 -10 -3 -5 2 -10 12 -11
14 0 15 -2 3 -7 -17 -8 -25 -32 -11 -32 5 0 12 -7 15 -16 5 -14 4 -15 -9 -4
-21 17 -19 1 3 -24 10 -13 11 -16 2 -9 -17 13 -56 -7 -42 -21 4 -4 2 -6 -3 -5
-19 5 -55 -12 -49 -23 4 -7 2 -8 -4 -4 -7 4 -12 1 -12 -7 0 -9 8 -14 18 -12 9
1 11 0 4 -2 -7 -3 -9 -9 -6 -15 4 -6 3 -9 -2 -6 -12 7 -30 -13 -29 -32 0 -8
-6 -21 -15 -28 -13 -10 -12 -11 5 -6 16 5 17 4 5 -5 -13 -10 -13 -12 0 -20 8
-5 18 -7 22 -5 4 3 8 1 8 -5 0 -5 -9 -9 -20 -8 -11 1 -20 5 -20 10 0 4 -4 6
-10 2 -18 -11 1 -31 28 -29 15 1 28 3 30 4 1 1 6 3 12 4 13 1 44 46 32 46 -5
0 -13 -10 -19 -22 -6 -15 -12 -18 -17 -10 -4 7 -2 12 4 12 6 0 9 4 5 9 -3 5 4
12 15 16 11 3 20 13 20 21 0 9 -5 12 -12 8 -7 -4 -8 -3 -4 5 6 9 12 9 24 -1
14 -11 14 -9 -1 15 -12 19 -14 26 -5 25 8 -2 12 5 11 17 -1 11 0 14 3 7 3 -6
10 -9 15 -6 6 3 5 11 -2 20 -7 9 -8 14 -3 13 26 -5 39 1 24 11 -9 6 -10 10 -3
10 20 0 24 -18 6 -29 -10 -6 -14 -11 -9 -11 5 0 -1 -11 -13 -24 -15 -16 -19
-26 -12 -31 7 -3 11 -3 10 2 -4 20 2 27 12 13 9 -13 10 -13 6 2 -6 19 15 42
28 30 5 -4 5 -1 0 7 -5 9 -2 19 10 27 10 8 15 17 11 21 -4 4 -11 2 -15 -6 -7
-10 -9 -9 -14 3 -4 9 -1 15 6 13 7 -1 11 4 9 12 -3 12 0 12 12 2 18 -15 36 11
28 42 -3 14 -1 18 6 13 8 -5 12 1 12 14 0 12 5 18 10 15 6 -3 10 -1 10 4 0 6
-5 11 -12 11 -6 0 -8 3 -5 7 4 3 -1 16 -10 27 -15 17 -13 17 8 -2 l26 -23 8
23 c4 13 6 27 6 32 -1 5 5 6 13 3 10 -4 13 -1 9 8 -3 8 -10 12 -16 8 -6 -3 -7
-1 -3 5 3 6 16 9 27 7 18 -4 19 -2 7 12 -9 12 -9 15 0 9 7 -4 12 -2 12 4 0 6
5 8 11 5 6 -4 13 3 16 15 3 12 11 19 19 16 8 -3 13 -2 13 2 -4 22 2 32 14 26
8 -5 7 -2 -2 9 -12 15 -12 17 3 11 11 -4 18 1 24 16 4 12 11 21 15 21 19 -2
21 0 7 10 -12 9 -11 10 7 6 13 -3 26 0 30 5 3 7 1 8 -5 4 -7 -4 -12 -2 -12 3
0 6 6 11 14 11 7 0 19 7 26 15 7 8 16 12 21 9 5 -3 6 1 3 9 -3 8 0 18 7 23 7
4 10 3 6 -3 -4 -6 0 -13 8 -16 10 -4 12 -1 8 10 -4 10 -2 14 4 10 6 -4 19 0
27 9 9 8 16 12 16 7 0 -5 -5 -14 -11 -20 -7 -7 -5 -12 10 -16 15 -4 18 -1 14
12 -5 13 -3 14 7 4 10 -9 10 -15 1 -26 -14 -18 9 -30 36 -20 15 6 16 5 3 -9
-8 -9 -18 -14 -21 -12 -3 2 -6 -3 -6 -11 0 -13 2 -13 17 0 14 13 19 13 40 -2
21 -15 23 -15 17 0 -4 11 -2 14 9 10 16 -6 19 -23 3 -23 -5 0 -7 -4 -4 -10 4
-6 16 -4 33 6 24 14 25 14 8 0 -17 -14 -17 -16 -3 -22 10 -3 17 -12 17 -20 0
-21 15 -17 35 9 16 22 16 21 1 -4 -9 -17 -11 -30 -5 -36 6 -6 4 -10 -5 -10 -8
0 -14 3 -12 6 4 9 -32 41 -37 33 -2 -4 -2 -2 -1 5 5 21 -13 24 -19 3 -3 -11
-1 -21 4 -21 5 -1 14 -2 19 -3 15 -2 30 -28 22 -41 -3 -5 1 -4 10 2 15 13 28
8 28 -9 0 -5 -5 -6 -12 -2 -6 4 -8 3 -5 -4 5 -7 14 -7 31 1 13 7 22 16 19 20
-3 5 4 4 16 -2 12 -7 21 -8 21 -2 0 5 -5 12 -10 14 -6 3 -5 4 2 3 15 -3 22
-56 7 -56 -5 0 -8 5 -7 11 5 18 -16 21 -37 4 -20 -15 -20 -15 0 -8 18 6 19 5
5 -13 -11 -15 -11 -16 0 -6 8 6 18 12 23 12 4 0 5 -6 0 -12 -4 -7 6 -5 21 6
16 10 25 13 22 7 -12 -19 -15 -51 -5 -51 5 0 9 7 7 16 -2 10 2 19 9 21 7 3 10
-5 9 -21 -2 -14 2 -24 8 -23 6 1 10 -3 9 -8 -1 -6 7 -11 17 -11 10 0 18 3 18
6 0 3 0 7 2 10 10 28 9 52 -3 41 -8 -6 -17 -8 -20 -4 -4 3 -7 1 -7 -6 0 -7 -5
-9 -11 -5 -8 5 -8 9 1 14 8 5 3 14 -16 29 -14 11 -22 21 -16 21 6 0 14 -5 17
-10 4 -6 11 -7 17 -4 6 4 8 2 5 -3 -4 -6 0 -16 7 -22 10 -8 16 -9 21 -1 8 13
28 2 22 -14 -4 -11 17 -38 25 -31 2 2 4 -5 5 -15 1 -11 9 -30 19 -42 13 -18
15 -19 10 -4 -5 15 -3 17 11 11 18 -8 43 -9 100 -1 25 3 30 1 26 -12 -4 -10
-2 -13 5 -8 7 4 12 2 12 -4 0 -7 -8 -9 -20 -5 -16 5 -19 3 -14 -12 5 -13 2
-12 -10 4 -16 22 -47 26 -63 8 -5 -4 -2 -4 6 0 10 6 13 4 9 -7 -4 -8 -1 -15 7
-15 7 0 11 6 8 14 -4 9 0 11 11 7 9 -3 14 -10 11 -14 -8 -13 18 -18 38 -8 9 5
17 5 17 1 0 -17 46 -59 65 -58 15 0 19 6 17 22 -4 26 13 39 22 17 3 -8 2 -12
-3 -9 -12 7 -8 -42 4 -53 4 -4 5 -1 1 6 -4 6 -2 12 3 12 6 0 10 3 10 8 -3 19
2 33 10 27 6 -3 14 3 20 12 6 10 11 13 11 6 0 -6 -9 -18 -20 -26 -11 -8 -17
-17 -13 -20 4 -4 18 3 31 15 14 13 22 18 19 11 -4 -6 0 -18 8 -26 19 -19 19
-24 1 -24 -8 0 -15 3 -14 6 2 20 -3 31 -12 26 -7 -4 -6 -14 2 -28 7 -12 11
-29 9 -37 -2 -8 7 -2 19 13 12 15 25 26 28 23 3 -3 12 0 21 7 14 10 14 10 4
-4 -7 -9 -9 -20 -5 -25 4 -4 -2 -2 -12 6 -13 10 -17 10 -12 3 4 -7 2 -13 -3
-13 -6 0 -11 -4 -11 -9 0 -11 19 -9 39 3 11 7 13 5 8 -7 -3 -10 -2 -17 3 -17
6 0 10 7 10 16 0 8 4 13 9 9 5 -3 13 0 17 6 5 9 0 10 -14 7 -12 -4 -22 -2 -22
3 0 10 33 12 43 2 4 -3 0 -14 -8 -23 -13 -15 -13 -19 1 -36 15 -18 15 -18 5 2
-9 18 -6 23 16 33 29 13 55 -1 51 -28 -2 -10 5 -17 21 -19 15 -2 21 0 16 7 -3
6 -10 9 -14 7 -4 -3 -7 10 -8 27 -1 19 1 24 4 12 3 -11 11 -27 19 -36 16 -18
-4 -47 -21 -31 -5 4 -5 2 -1 -5 4 -7 14 -9 23 -6 11 4 14 3 9 -5 -4 -7 -2 -12
4 -12 7 0 10 6 7 13 -3 7 2 24 9 38 12 20 14 21 12 4 -2 -11 -7 -23 -13 -27
-6 -5 -5 -8 3 -8 7 0 10 -4 7 -10 -3 -5 -1 -10 5 -10 6 0 8 -5 4 -12 -4 -7 -3
-8 4 -4 9 5 9 13 2 27 -7 12 -7 19 -1 19 6 0 8 8 4 18 -3 9 7 2 22 -15 28 -33
55 -43 55 -21 0 6 3 9 6 5 3 -3 2 -13 -3 -22 -9 -15 -13 -14 -41 10 -25 21
-32 23 -32 11 0 -9 5 -16 12 -16 9 0 9 -3 0 -12 -7 -7 -12 -17 -12 -23 0 -5 5
-2 11 8 5 9 15 17 21 17 6 0 5 -7 -3 -17 -11 -15 -11 -16 1 -5 19 17 28 15 33
-5 4 -17 5 -17 6 0 0 10 6 15 11 12 6 -4 8 -11 5 -16 -3 -5 2 -6 11 -2 13 5
15 3 9 -8 -7 -12 -6 -12 7 -1 11 9 18 10 23 2 3 -5 2 -10 -4 -10 -5 0 -9 -9
-8 -20 1 -19 12 -18 12 3 0 5 6 12 14 15 9 3 11 0 6 -9 -5 -8 -4 -10 0 -6 16
14 14 38 -3 35 -10 -2 -16 3 -15 10 2 6 -2 12 -7 12 -6 0 -10 -6 -10 -12 0
-10 -2 -10 -9 0 -4 8 -11 13 -15 13 -13 -2 -1 15 23 33 l26 20 -17 -20 c-21
-24 -24 -41 -4 -25 10 9 15 8 19 -4 4 -8 13 -12 21 -9 11 4 14 0 11 -15 -2
-12 1 -21 7 -21 6 0 3 -10 -8 -22 -10 -13 -12 -17 -4 -10 8 6 18 12 23 12 4 0
5 -6 1 -12 -6 -10 -4 -10 8 0 14 11 18 10 30 -6 7 -10 21 -18 30 -16 10 1 22
-5 28 -14 5 -10 10 -12 10 -6 0 12 58 12 77 1 6 -4 14 -3 18 3 9 14 27 12 23
-2 -5 -15 -26 -18 -50 -6 -17 8 -19 -6 -4 -31 7 -11 10 -11 18 3 5 9 13 14 18
11 5 -3 22 2 37 11 18 10 22 11 11 2 -22 -18 -12 -31 13 -17 15 8 17 6 12 -8
-3 -10 -2 -15 2 -10 5 4 17 0 27 -9 11 -11 22 -14 31 -8 7 5 5 1 -5 -8 -10 -9
-14 -19 -9 -22 5 -3 14 1 21 9 14 17 37 10 37 -12 0 -14 -2 -14 -13 1 -7 11
-15 13 -18 7 -4 -6 2 -16 14 -23 11 -7 20 -20 20 -28 0 -13 1 -13 10 0 8 13
10 12 10 -2 0 -10 3 -17 8 -17 22 4 31 -3 25 -18 -4 -11 -3 -14 6 -9 7 5 26
-7 48 -31 20 -21 33 -30 30 -21 -3 9 1 22 11 29 14 11 15 11 5 -1 -9 -9 -9
-19 -2 -33 8 -14 8 -22 -1 -31 -8 -8 -10 -6 -5 9 6 16 5 17 -4 5 -9 -13 -11
-13 -11 0 0 13 -2 13 -11 0 -9 -13 -10 -12 -5 3 4 12 2 16 -6 11 -7 -5 -8 -3
-3 6 5 9 4 11 -3 6 -8 -5 -10 -2 -6 8 7 18 -11 22 -21 6 -4 -6 -12 -7 -18 -4
-7 4 -8 3 -4 -2 5 -5 14 -9 20 -9 7 -1 11 -7 9 -15 -2 -8 0 -11 4 -7 4 4 14
-3 21 -15 7 -13 12 -17 13 -10 0 8 5 10 13 5 6 -4 21 -8 31 -8 11 0 21 -7 23
-15 4 -13 3 -13 -6 0 -8 12 -10 11 -8 -7 1 -17 4 -19 14 -11 17 13 17 -3 1
-22 -11 -13 -11 -13 1 -3 11 9 18 7 33 -10 l20 -22 -15 23 c-8 13 -13 33 -10
45 4 18 3 20 -7 7 -10 -13 -11 -13 -6 2 3 11 -2 19 -15 23 -11 4 -18 9 -15 12
12 13 58 -29 53 -48 -3 -12 3 -25 16 -34 12 -8 18 -15 13 -15 -5 0 -3 -6 3
-13 6 -8 8 -16 5 -20 -3 -3 2 -4 12 -3 10 2 20 8 22 14 2 7 11 12 20 11 11 0
13 -2 4 -6 -9 -4 -10 -8 -2 -18 8 -10 8 -15 -1 -21 -7 -4 -9 -3 -5 4 3 6 2 13
-3 16 -5 3 -11 -3 -14 -13 -4 -16 0 -18 19 -15 18 3 22 1 17 -12 -5 -14 -3
-15 15 -5 18 10 20 8 17 -15 -2 -19 1 -24 12 -19 11 4 13 1 9 -10 -3 -10 -2
-13 5 -10 6 4 9 0 7 -11 -2 -10 3 -19 10 -20 6 -1 17 -2 22 -3 6 0 10 -7 10
-15 0 -8 7 -17 16 -20 8 -3 12 -10 9 -16 -6 -9 8 -15 29 -11 5 1 6 -5 3 -13
-6 -16 6 -30 16 -19 9 8 -12 45 -22 38 -5 -3 -11 2 -15 10 -5 15 11 31 21 21
4 -3 1 -6 -5 -6 -6 0 0 -11 13 -24 17 -17 23 -31 18 -43 -6 -16 -5 -16 10 -5
8 8 13 20 10 28 -3 8 -1 14 4 14 5 0 9 -11 9 -24 0 -14 -4 -22 -8 -20 -4 3 -8
0 -8 -5 0 -6 5 -11 10 -11 6 0 10 -9 10 -21 0 -21 0 -21 18 -2 9 10 14 14 9 7
-4 -6 -5 -22 -3 -35 3 -13 5 -26 5 -29 1 -2 7 2 13 8 10 10 10 15 -2 23 -13 9
-13 10 0 6 8 -2 17 -15 20 -28 7 -32 38 -75 47 -65 4 4 -2 15 -14 24 -17 13
-20 20 -12 32 9 13 10 12 5 -2 -5 -16 5 -23 27 -19 5 1 6 -2 3 -7 -3 -5 1 -18
9 -28 8 -10 14 -26 14 -34 0 -9 -5 -6 -12 8 -7 12 -16 20 -19 16 -13 -12 24
-41 49 -38 14 1 22 0 19 -3 -3 -3 2 -12 12 -20 9 -8 11 -12 5 -8 -8 4 -13 0
-13 -10 0 -11 5 -15 16 -11 8 3 13 2 10 -2 -8 -13 23 -45 38 -39 10 4 13 1 9
-9 -7 -19 -10 -18 -38 11 -16 19 -25 22 -31 14 -4 -7 -3 -10 2 -7 5 2 19 -6
31 -19 12 -13 20 -23 18 -23 -3 0 7 -14 22 -31 16 -17 27 -37 25 -43 -2 -6 -1
-8 3 -5 3 4 17 -4 31 -18 25 -25 32 -39 12 -27 -7 4 -8 3 -4 -5 6 -9 11 -9 22
0 8 6 17 9 21 5 3 -3 1 -6 -6 -6 -7 0 -9 -4 -6 -10 3 -6 1 -10 -6 -10 -7 0 -9
-3 -6 -6 4 -4 13 -1 21 5 13 11 14 9 10 -13 -4 -25 12 -34 50 -27 5 1 4 -4 -3
-13 -13 -15 38 -86 63 -86 6 0 4 6 -5 13 -14 11 -14 14 -2 26 12 11 14 10 11
-5 -2 -14 2 -18 17 -16 18 3 18 2 -3 -13 -25 -18 -21 -38 6 -28 14 6 15 4 5
-9 -11 -12 -8 -19 12 -38 13 -13 21 -28 18 -34 -4 -6 5 -3 20 7 18 12 26 13
25 5 -2 -8 5 -12 17 -10 16 2 17 1 5 -7 -9 -6 -18 -6 -26 0 -8 6 -14 4 -18 -8
-4 -10 -4 -14 0 -10 4 4 13 -1 21 -11 9 -11 12 -11 7 -2 -6 12 -5 13 7 2 12
-11 12 -14 -1 -22 -11 -7 -11 -10 -2 -10 7 0 11 -4 8 -8 -3 -5 1 -9 9 -9 10 0
12 4 5 12 -5 6 -5 16 2 25 8 12 9 12 4 -2 -3 -10 -1 -20 4 -23 6 -4 10 -13 10
-21 0 -8 -4 -12 -10 -9 -6 4 -7 -1 -3 -11 5 -14 8 -13 20 7 l13 24 -4 -26 c-2
-14 0 -32 6 -40 8 -12 9 -12 5 1 -2 8 -1 24 4 35 7 18 8 18 8 -5 1 -48 4 -59
18 -64 8 -3 11 -11 8 -16 -4 -6 -1 -9 7 -8 8 2 12 -5 10 -17 -3 -20 -3 -20 11
-1 17 24 41 13 28 -13 -6 -10 -6 -23 0 -32 6 -9 9 -10 9 -2 0 7 7 10 15 7 8
-4 15 -13 15 -21 0 -8 5 -11 10 -8 6 4 8 11 5 16 -3 5 1 6 9 3 9 -3 16 -10 16
-16 0 -5 -4 -7 -9 -4 -5 3 -8 -12 -7 -34 1 -32 3 -37 12 -25 16 22 26 18 18
-7 -3 -13 -3 -20 1 -16 3 3 14 -1 24 -10 15 -15 15 -18 1 -30 -10 -9 -11 -11
-1 -6 11 5 13 3 8 -9 -3 -9 -2 -19 4 -22 5 -4 6 -11 3 -17 -4 -6 -2 -8 4 -4 6
3 15 -2 21 -11 5 -10 12 -15 15 -12 3 3 -3 15 -14 27 -12 12 -17 22 -13 22 12
0 35 -16 36 -26 1 -5 10 -8 20 -7 10 2 15 -2 12 -7 -3 -6 -12 -10 -19 -10 -8
0 -19 -7 -26 -16 -8 -8 -9 -14 -4 -13 23 4 33 -2 28 -19 -3 -9 1 -6 9 7 12 20
15 21 20 7 4 -10 3 -15 -3 -11 -6 3 -10 1 -10 -5 0 -6 10 -15 23 -21 19 -8 18
-9 -8 -4 l-30 5 28 -15 c29 -17 37 -28 12 -19 -8 4 -15 1 -15 -5 0 -6 3 -10 8
-10 19 3 29 -2 30 -16 1 -8 3 -21 4 -29 1 -8 6 -14 12 -13 6 1 10 -6 10 -15
-1 -10 2 -15 7 -12 5 3 9 0 9 -5 0 -6 7 -11 16 -11 12 0 14 -3 6 -13 -22 -26
3 -41 34 -21 l29 18 -22 -23 c-13 -12 -23 -27 -23 -33 0 -7 6 -3 14 7 13 18
14 18 9 -8 -4 -20 -1 -27 10 -27 9 0 19 -5 23 -12 4 -7 3 -8 -4 -4 -7 4 -12 3
-12 -2 0 -6 7 -13 16 -16 22 -9 26 -8 18 6 -4 7 -3 8 4 4 6 -4 9 -13 5 -21 -4
-11 -1 -13 11 -9 9 3 13 11 9 17 -3 5 -2 7 4 4 11 -7 11 -72 0 -83 -4 -4 -7
-12 -7 -18 0 -6 5 -4 10 4 8 13 10 12 10 -2 0 -10 5 -18 11 -18 5 0 7 6 3 13
-4 6 1 5 12 -4 10 -9 26 -14 34 -12 13 4 13 3 0 -6 -8 -5 -18 -7 -24 -4 -5 4
-7 -1 -3 -10 3 -9 1 -18 -6 -21 -9 -3 -9 -5 1 -5 6 -1 12 -5 12 -10 0 -22 48
-61 66 -55 16 5 16 4 4 -5 -12 -8 -12 -11 -1 -11 8 0 11 -6 6 -17 -11 -29 -14
-53 -7 -52 26 4 37 -2 22 -11 -9 -6 -10 -10 -3 -10 22 0 24 19 3 30 -17 9 -19
14 -10 25 16 19 43 7 37 -16 -4 -14 0 -19 15 -19 18 0 19 2 7 18 -13 15 -12
16 3 3 20 -15 15 -31 -8 -31 -9 0 -22 -7 -30 -15 -9 -8 -12 -15 -7 -15 5 0 14
5 21 12 9 9 16 8 30 -5 10 -9 22 -14 25 -10 4 3 7 1 7 -6 0 -8 -7 -10 -22 -5
-21 6 -21 5 -9 -10 8 -9 19 -15 26 -12 11 4 15 -7 16 -51 1 -19 4 -21 20 -12
13 7 25 6 37 -1 14 -9 13 -10 -8 -4 -22 6 -23 5 -12 -9 10 -12 10 -16 0 -20
-21 -7 -4 -17 20 -10 12 3 19 10 15 17 -3 6 -2 7 2 3 19 -16 13 -35 -9 -29
-21 5 -21 5 -1 -15 11 -11 22 -16 23 -12 6 14 19 10 19 -6 0 -8 -4 -12 -9 -9
-5 4 -8 0 -7 -7 4 -23 -12 -48 -25 -43 -7 3 -12 16 -10 30 1 16 -2 22 -9 17
-8 -5 -8 -2 0 9 12 14 8 28 -8 28 -5 0 -5 -8 -2 -17 6 -15 5 -16 -9 -3 -11 11
-12 17 -4 22 8 6 7 8 -2 8 -7 0 -11 4 -8 9 9 13 -18 31 -33 22 -10 -6 -9 -10
4 -15 9 -3 14 -10 10 -15 -3 -5 -1 -12 5 -16 6 -4 7 -11 4 -17 -4 -6 -2 -8 3
-5 13 8 36 -17 25 -28 -4 -5 -1 -4 7 0 11 6 13 4 8 -9 -4 -10 -1 -19 8 -22 8
-4 15 -10 15 -16 0 -5 -5 -6 -12 -2 -7 4 -8 3 -4 -5 4 -6 10 -9 14 -7 8 5 43
-19 43 -29 0 -4 -8 -13 -18 -21 -16 -13 -16 -13 0 -8 20 7 23 -6 5 -25 -11
-10 -10 -12 2 -9 10 2 14 -3 12 -17 l-4 -20 17 20 c16 20 16 20 10 -2 -4 -14
-2 -23 5 -23 6 0 8 5 5 10 -3 6 -2 10 3 10 5 0 9 7 9 15 0 8 -5 11 -10 8 -6
-4 -7 -1 -2 7 5 9 4 11 -3 6 -8 -5 -10 -1 -5 10 4 11 8 13 11 6 2 -7 8 -12 13
-12 6 0 7 6 3 13 -5 7 -1 7 12 -3 29 -22 30 -24 10 -16 -13 4 -17 2 -13 -8 3
-7 0 -19 -6 -25 -6 -6 -7 -11 -3 -11 5 0 3 -6 -3 -14 -9 -11 -8 -15 4 -20 9
-3 13 -11 9 -17 -4 -8 -3 -9 4 -5 7 4 12 3 12 -3 0 -5 -6 -12 -12 -15 -7 -3
-2 -3 12 1 22 5 23 4 11 -11 -8 -9 -11 -19 -7 -23 3 -3 6 -1 6 6 0 7 4 10 8 7
5 -3 8 -21 7 -41 -2 -29 0 -33 12 -23 11 8 17 8 26 -1 9 -10 9 -12 -3 -9 -8 2
-14 -1 -15 -7 0 -5 -4 -15 -8 -22 -4 -6 -3 -14 2 -17 5 -3 7 -19 6 -35 -1 -17
0 -30 4 -29 19 2 24 -3 11 -12 -12 -7 -12 -12 -3 -21 10 -10 9 -15 -5 -26 -15
-13 -15 -13 6 -3 15 7 22 7 22 0 0 -5 -4 -10 -10 -10 -5 0 -10 -5 -10 -11 0
-5 5 -7 10 -4 6 3 10 -1 10 -10 0 -9 -5 -13 -10 -10 -6 4 -9 -3 -6 -17 2 -13
-1 -29 -7 -36 -8 -10 -7 -12 4 -10 9 2 14 -5 13 -19 -1 -13 3 -20 9 -16 5 3 7
1 3 -5 -3 -5 0 -13 6 -15 9 -4 9 -6 1 -6 -6 -1 -19 6 -27 15 -20 20 -21 5 -1
-24 14 -18 14 -21 1 -16 -10 4 -14 0 -12 -13 2 -10 -1 -21 -7 -24 -6 -4 -7
-15 -2 -25 11 -25 12 -37 6 -49 -9 -17 -8 -45 1 -45 11 0 6 -33 -7 -43 -5 -4
4 -5 20 -2 l30 6 -25 -16 c-14 -9 -18 -15 -10 -12 8 2 23 -5 33 -15 19 -21 15
-23 -16 -7 -20 9 -21 9 -4 -5 10 -8 19 -18 19 -23 1 -16 12 -38 25 -51 8 -9 9
-20 3 -37 -6 -16 -6 -27 2 -31 7 -5 8 -3 3 6 -6 9 -4 11 5 5 10 -6 9 -11 -5
-22 -18 -13 -18 -13 1 -14 10 0 14 -3 7 -5 -8 -4 -9 -13 -3 -28 4 -13 4 -29
-1 -39 -7 -11 -6 -17 1 -17 5 0 10 -8 10 -17 0 -15 -2 -16 -10 -3 -7 12 -9 10
-7 -8 1 -15 6 -21 16 -17 10 4 11 2 4 -7 -6 -7 -8 -26 -6 -41 3 -21 1 -27 -9
-21 -6 4 -2 -6 10 -23 12 -17 22 -35 22 -40 0 -4 -5 -1 -10 7 -8 13 -10 12
-10 -2 0 -10 5 -18 11 -18 8 0 7 -6 -2 -17 -13 -16 -12 -17 4 -4 14 11 20 11
34 0 9 -8 19 -13 22 -11 3 1 6 -1 6 -5 1 -18 17 -32 30 -27 11 4 14 19 11 52
-2 26 -2 40 1 30 2 -9 12 -19 21 -23 9 -3 13 -3 9 1 -4 4 -1 14 6 23 10 14 10
14 -4 3 -14 -11 -16 -9 -11 15 2 16 10 34 16 42 8 11 8 13 -1 8 -8 -5 -11 0
-10 13 1 11 7 18 13 16 10 -4 12 21 4 32 -2 1 -3 6 -4 11 0 5 -4 13 -8 17 -11
11 -10 24 3 24 5 0 7 -5 3 -12 -4 -7 -3 -8 4 -4 8 5 9 13 3 24 -6 11 -5 24 1
36 6 10 7 16 2 13 -5 -3 -9 10 -9 28 0 18 4 33 10 32 13 -3 13 25 1 42 -8 11
-8 13 2 7 6 -4 12 -2 12 3 0 6 -4 11 -10 11 -5 0 -10 5 -10 11 0 5 5 7 10 4 6
-3 10 -2 10 4 0 5 -4 13 -10 16 -5 3 -10 12 -10 18 0 7 4 6 10 -3 9 -13 10
-13 11 0 0 8 3 24 5 35 3 11 5 28 5 38 0 9 5 15 11 11 5 -4 5 4 -2 17 -11 19
-10 24 6 36 13 10 14 13 3 13 -12 0 -12 2 1 10 12 8 12 10 -5 11 l-20 0 20 9
c19 8 7 15 -18 11 -5 -1 -6 3 -2 8 3 6 13 7 22 4 12 -5 15 -2 10 10 -3 9 -3
17 1 17 4 0 7 24 6 52 0 29 4 59 10 67 9 12 8 13 -3 6 -11 -6 -13 -4 -7 11 11
28 14 74 4 80 -5 3 -6 9 -3 14 3 5 -5 7 -17 5 l-23 -4 23 17 c18 14 20 20 10
30 -6 6 -8 12 -4 12 5 0 3 7 -4 15 -15 18 -35 20 -24 3 4 -7 3 -8 -5 -4 -6 4
-8 12 -5 18 4 6 1 8 -7 6 -8 -3 -13 -11 -11 -18 2 -10 -1 -10 -15 1 -16 13
-17 12 -5 -3 8 -9 20 -14 28 -11 8 3 14 1 14 -5 0 -17 -30 -23 -36 -7 -4 8
-11 12 -16 9 -6 -4 -5 -10 3 -16 11 -7 10 -8 -4 -4 -12 4 -16 2 -11 -6 5 -7 3
-8 -6 -3 -9 5 -11 4 -6 -4 4 -6 12 -9 17 -6 22 14 48 13 42 -1 -6 -17 8 -18
27 -1 7 7 6 2 -3 -12 -11 -16 -13 -30 -7 -41 6 -12 5 -17 -5 -17 -8 0 -11 5
-8 10 3 6 1 7 -5 4 -14 -9 -43 3 -36 15 3 5 11 5 19 -2 9 -8 14 -7 18 4 4 10
1 13 -9 9 -9 -3 -13 0 -11 8 2 8 2 11 0 6 -3 -4 -10 -4 -15 -1 -6 4 -8 2 -5
-3 4 -6 1 -16 -7 -22 -11 -10 -14 -6 -15 16 -1 53 -2 63 -9 62 -23 -4 -31 3
-25 19 6 15 5 15 -11 3 -17 -14 -16 -16 6 -33 21 -16 16 -24 -14 -19 -5 0 -8
-3 -8 -7 0 -17 13 -21 33 -11 12 7 17 7 13 1 -3 -6 0 -13 6 -16 7 -3 2 -3 -11
0 -15 4 -21 2 -17 -4 3 -6 1 -14 -5 -18 -8 -5 -9 -3 -4 6 6 9 4 11 -5 5 -9 -6
-11 -4 -5 5 6 9 4 11 -5 5 -9 -5 -11 -4 -6 3 4 7 3 12 -3 12 -5 0 -8 11 -6 25
2 25 1 25 -21 10 -27 -18 -43 -20 -27 -4 6 6 9 18 6 26 -4 11 -8 10 -18 -4 -8
-10 -16 -15 -19 -12 -3 3 4 16 16 29 20 21 20 23 3 17 -11 -5 -22 -3 -28 5 -7
10 -8 9 -4 -3 3 -9 -1 -16 -8 -16 -11 0 -11 6 1 30 16 29 10 53 -6 27 -5 -8
-12 -12 -15 -8 -7 6 44 46 60 46 5 0 11 6 14 13 2 7 -1 9 -9 4 -8 -5 -11 -4
-6 3 3 6 2 13 -4 17 -5 3 -10 -1 -10 -9 0 -17 -12 -21 -24 -8 -4 4 -13 7 -19
7 -7 0 -12 7 -12 15 0 8 -4 21 -8 28 -5 7 -3 12 5 12 10 0 9 3 -2 11 -13 9
-12 10 2 5 10 -3 20 -1 23 4 4 6 12 10 18 10 7 0 4 -5 -6 -11 -9 -6 -15 -15
-11 -20 3 -6 12 -5 22 3 15 11 15 11 5 -3 -7 -9 -10 -19 -6 -22 3 -4 3 -7 -2
-7 -4 0 -13 8 -20 17 -11 15 -12 14 -12 -11 0 -15 2 -24 5 -22 3 3 11 1 17 -4
9 -8 14 -6 19 5 3 9 10 13 16 10 6 -3 13 1 16 9 3 9 11 16 17 16 5 0 2 -9 -8
-20 -10 -11 -14 -20 -8 -20 5 0 18 9 27 19 17 18 17 20 -1 30 -11 7 -13 11 -4
11 8 0 11 6 7 16 -3 9 -2 12 5 9 6 -4 8 -13 5 -21 -3 -7 -1 -16 3 -19 5 -3 11
2 15 10 6 17 26 20 26 4 0 -5 -4 -7 -10 -4 -5 3 -10 2 -10 -3 0 -15 47 -35 62
-26 7 5 17 9 22 9 5 0 10 8 12 18 1 9 -2 15 -7 11 -5 -3 -6 -11 -3 -17 5 -9 4
-9 -5 -1 -10 10 -10 17 0 35 11 22 11 23 -4 10 -20 -16 -23 -1 -4 18 10 11 9
13 -4 8 -9 -3 -22 -1 -30 4 -11 7 -11 9 -1 9 8 0 10 5 6 12 -5 9 -2 8 9 -1 10
-8 20 -11 24 -7 3 3 1 6 -6 6 -7 0 -9 5 -6 10 3 6 -1 10 -9 10 -19 0 -20 12
-4 28 10 10 10 15 -2 22 -16 10 -30 4 -30 -11 0 -6 5 -7 12 -3 7 4 8 3 4 -4
-4 -6 -13 -9 -22 -5 -13 5 -13 7 1 23 18 20 19 31 4 27 -6 -1 -14 5 -16 13 -4
13 -3 13 6 0 10 -13 11 -13 12 0 0 9 4 7 11 -7 11 -23 28 -31 28 -13 0 6 -4
10 -9 10 -5 0 -13 9 -16 20 -4 11 -11 17 -17 14 -5 -4 -5 3 2 16 12 23 -3 46
-22 34 -4 -3 -5 2 -1 11 4 13 8 14 14 4 4 -8 11 -11 14 -7 3 3 -1 13 -10 21
-16 16 -21 32 -7 23 4 -2 8 4 8 14 0 10 -4 16 -8 14 -9 -6 -10 4 -10 53 0 18
-4 33 -9 33 -5 0 -9 5 -9 11 0 5 6 7 13 3 9 -6 8 -3 -1 8 -8 9 -19 16 -25 14
-7 -1 -9 -1 -4 1 11 7 8 33 -4 33 -5 0 -7 5 -4 10 4 6 11 7 17 4 7 -4 8 -2 4
4 -4 6 -14 8 -22 5 -13 -5 -15 -1 -9 15 5 17 2 22 -12 22 -15 0 -16 2 -3 10
13 8 13 10 -2 10 -12 0 -15 5 -11 17 5 12 3 14 -8 8 -12 -8 -12 -6 0 8 20 25
5 34 -16 10 -10 -10 -14 -13 -9 -6 5 8 3 20 -5 31 -12 15 -12 16 2 4 14 -10
17 -9 22 7 3 11 2 23 -2 26 -3 4 -6 12 -6 18 0 7 -9 10 -20 8 -20 -3 -20 -3 0
20 16 19 17 21 2 10 -17 -13 -18 -12 -12 12 6 21 4 27 -10 27 -9 0 -13 5 -10
10 4 6 11 8 16 5 5 -3 6 1 3 9 -3 9 -10 16 -16 16 -5 0 -6 -4 -3 -10 3 -6 -1
-7 -9 -4 -14 5 -14 8 -1 21 19 18 19 24 1 17 -18 -7 -30 12 -15 22 8 5 9 3 4
-6 -5 -9 -4 -11 3 -6 16 10 15 26 -2 26 -9 0 -12 7 -9 20 3 13 0 20 -8 20 -11
0 -11 2 1 10 13 8 12 10 -2 10 -10 0 -18 5 -18 11 0 5 4 8 10 4 5 -3 3 7 -5
22 -11 21 -12 30 -2 42 9 12 9 13 0 7 -12 -6 -18 5 -14 27 0 4 -4 7 -9 7 -14
0 -12 27 3 34 6 3 3 4 -8 3 -11 -1 -19 3 -18 10 2 7 -4 10 -13 6 -14 -5 -15
-3 -6 14 13 24 7 34 -16 26 -10 -4 -13 -2 -8 5 3 6 2 13 -3 16 -5 3 -7 14 -4
24 2 10 -3 24 -11 31 -13 11 -16 11 -16 1 0 -8 -3 -11 -6 -8 -3 4 0 16 6 29
11 19 10 21 -4 16 -8 -3 -18 -1 -22 5 -4 6 -3 8 3 5 6 -4 14 0 17 9 4 10 2 13
-6 8 -8 -5 -9 0 -5 15 5 19 3 20 -10 9 -15 -12 -15 -11 -4 11 8 15 9 21 2 17
-6 -4 -14 0 -17 8 -3 9 -11 13 -17 9 -6 -4 -7 -1 -2 6 5 9 10 10 18 2 14 -14
27 -14 27 0 0 5 -4 7 -10 4 -10 -6 -14 7 -11 34 2 7 -2 10 -7 7 -6 -3 -13 1
-16 10 -3 8 -2 12 4 9 6 -3 10 1 10 10 0 10 -5 13 -12 9 -9 -6 -9 -3 0 9 12
14 11 16 -7 12 -12 -2 -19 0 -17 4 3 4 -1 17 -9 27 -8 10 -15 32 -15 47 0 19
-4 26 -12 21 -8 -5 -9 -2 -5 10 6 14 4 15 -16 5 -20 -11 -21 -11 -9 4 8 9 11
21 7 27 -3 5 -1 10 6 10 7 0 9 3 6 6 -4 4 -13 1 -22 -6 -18 -15 -20 0 -2 19
10 11 10 13 0 7 -7 -4 -13 -2 -13 4 0 7 -7 9 -17 6 -14 -6 -14 -3 3 15 16 19
16 21 2 16 -12 -4 -16 -1 -13 13 2 11 -1 22 -6 25 -5 4 -7 11 -3 16 3 5 2 9
-3 8 -19 -3 -33 2 -33 12 0 5 4 8 8 5 5 -3 9 1 9 8 0 8 -6 12 -13 9 -9 -3 -11
2 -7 18 4 15 3 20 -5 15 -8 -5 -12 0 -12 13 0 12 -7 21 -15 21 -8 0 -15 5 -15
11 0 5 4 8 8 5 5 -3 9 1 9 9 0 8 -9 17 -19 21 -10 3 -18 12 -18 20 0 8 -5 14
-11 14 -8 0 -7 6 2 17 10 11 10 14 2 9 -8 -4 -13 -2 -13 5 0 8 -5 8 -17 -2
-15 -11 -14 -10 1 9 19 22 19 22 0 23 -18 0 -18 1 1 9 18 8 18 9 -5 9 -20 1
-22 3 -10 11 12 8 10 10 -10 11 -14 0 -19 3 -12 6 6 2 12 9 12 14 0 6 -6 7
-12 3 -8 -5 -7 0 2 11 12 15 12 17 1 10 -11 -6 -13 -4 -8 8 4 11 2 14 -9 10
-7 -3 -14 0 -14 7 0 6 -5 8 -12 4 -7 -4 -8 -3 -4 5 4 6 11 9 16 6 5 -3 12 -1
15 5 4 6 3 10 -2 9 -26 -4 -38 1 -23 11 13 8 12 10 -2 10 -10 0 -18 3 -19 8
-3 29 -9 47 -19 50 -5 2 -8 8 -5 13 4 5 -1 6 -11 2 -14 -5 -15 -3 -4 18 7 13
9 21 5 17 -4 -4 -15 1 -24 10 -9 10 -12 13 -8 6 8 -13 -10 -31 -20 -20 -4 3
-1 6 7 6 9 0 10 3 1 13 -6 8 -8 17 -4 21 10 9 13 36 4 36 -4 0 -12 -5 -19 -12
-16 -16 -16 4 1 21 10 11 9 13 -1 7 -8 -5 -16 2 -22 19 -7 18 -15 25 -25 21
-8 -3 -17 -1 -20 5 -4 5 -11 7 -16 4 -5 -3 -6 2 -2 11 4 12 3 15 -5 10 -8 -5
-10 -2 -5 10 5 15 7 14 17 -3 11 -19 30 -24 40 -10 3 4 3 5 0 2 -9 -6 -36 23
-30 33 9 15 -34 43 -57 38 -12 -3 -16 -3 -9 0 7 3 17 15 23 27 7 12 8 19 4 15
-5 -4 -15 -2 -24 5 -14 10 -14 10 -3 -5 10 -12 10 -18 1 -24 -7 -4 -9 -3 -5 4
3 6 -4 18 -16 26 -12 9 -17 16 -11 16 6 0 14 7 17 16 5 14 4 15 -9 4 -18 -15
-20 0 -2 19 10 11 10 13 0 7 -11 -6 -17 4 -15 25 1 4 -7 14 -17 23 -17 16 -20
16 -35 1 -21 -21 -21 -7 0 16 15 16 14 17 -8 13 -12 -2 -17 -1 -10 2 10 5 8
10 -7 21 -12 8 -21 19 -21 25 0 7 7 3 16 -8 15 -18 15 -18 5 2 -6 12 -7 24 -3
28 3 4 -2 4 -12 0 -13 -5 -17 -4 -12 4 3 6 2 13 -4 17 -6 4 -7 12 -4 18 4 7 4
9 -1 5 -11 -11 -36 12 -28 25 3 6 1 7 -5 3 -7 -4 -12 -2 -12 3 0 6 -6 10 -12
8 -7 -1 -12 4 -11 10 2 7 0 12 -5 11 -4 -2 -22 4 -41 11 -31 14 -32 15 -15 28
17 13 17 13 -6 11 -17 -2 -25 2 -28 17 -2 11 -9 25 -14 30 -8 7 -9 6 -4 -2 7
-13 -19 -12 -31 2 -4 4 -3 5 3 2 7 -4 15 0 18 9 4 11 2 15 -7 11 -10 -4 -13 2
-11 18 2 22 0 23 -24 14 -25 -9 -26 -8 -8 6 11 8 17 15 14 15 -4 0 -14 3 -24
7 -13 5 -15 3 -9 -7 5 -9 4 -11 -4 -6 -8 6 -9 12 -2 20 11 13 -4 36 -23 36 -6
0 -3 -7 7 -14 16 -12 16 -14 2 -20 -9 -3 -14 -2 -10 3 3 5 -1 11 -7 14 -10 3
-9 8 2 22 14 17 13 18 -2 12 -12 -4 -15 -2 -11 9 3 8 2 14 -3 13 -20 -3 -34 2
-34 12 0 5 4 7 10 4 5 -3 7 0 4 9 -3 9 -12 12 -21 9 -10 -4 -14 -2 -9 5 3 6 1
14 -5 18 -8 4 -9 3 -5 -4 4 -7 2 -12 -3 -12 -6 0 -11 8 -11 19 0 27 -26 45
-72 50 -5 1 -8 6 -8 12 0 8 4 8 14 0 11 -9 16 -9 22 1 4 7 4 10 -1 6 -4 -4
-14 -1 -22 7 -16 17 -37 20 -28 5 4 -6 -1 -7 -12 -3 -15 6 -16 4 -5 -9 11 -13
11 -18 0 -24 -7 -4 -10 -4 -6 1 4 4 3 14 -2 20 -7 9 -6 16 5 25 8 7 15 17 15
22 0 5 -7 3 -15 -6 -9 -8 -23 -12 -31 -9 -14 5 -14 8 3 17 18 11 18 12 1 29
-10 9 -18 13 -18 7 0 -5 -7 -10 -15 -10 -8 0 -15 5 -15 11 0 5 4 7 10 4 6 -3
7 1 4 10 -5 13 -9 13 -22 3 -12 -10 -14 -10 -8 0 4 7 2 12 -4 12 -6 0 -9 4 -5
9 3 5 1 12 -5 16 -6 4 -7 11 -4 17 5 7 2 8 -7 3 -15 -10 -52 -15 -44 -7 6 7
-24 54 -41 64 -7 5 -10 17 -6 30 4 17 2 20 -13 15 -13 -6 -16 -3 -11 8 3 10 2
13 -5 10 -6 -4 -9 1 -7 11 2 14 -2 18 -18 16 -12 -1 -27 5 -34 15 -12 15 -12
16 0 6 17 -16 30 -17 30 -2 0 5 -4 8 -9 5 -5 -4 -19 6 -31 21 -16 21 -19 23
-10 6 7 -16 7 -23 0 -23 -5 0 -10 5 -10 11 0 5 -5 7 -12 3 -6 -4 -8 -3 -5 3 8
13 -22 55 -34 47 -6 -3 -17 2 -25 12 -13 17 -13 16 -3 -8 9 -21 15 -25 25 -17
8 7 14 7 19 -1 3 -5 -1 -10 -10 -10 -10 0 -14 -5 -10 -12 4 -7 -3 -2 -16 12
-12 14 -25 24 -29 23 -5 -1 -6 7 -3 17 4 14 0 20 -11 20 -11 0 -15 5 -10 13 4
6 4 9 -1 5 -4 -4 -16 -3 -27 3 -17 9 -18 8 -6 -10 6 -11 15 -18 18 -16 3 2 12
-1 20 -6 11 -7 9 -8 -8 -6 -25 4 -65 55 -55 70 3 6 1 7 -5 3 -7 -4 -12 -2 -12
5 0 7 -3 9 -6 6 -4 -4 -1 -15 7 -24 12 -16 12 -17 -2 -6 -9 7 -19 10 -23 6 -4
-4 -4 1 0 11 6 15 4 17 -7 11 -11 -7 -12 -6 -2 7 16 18 5 32 -14 17 -9 -9 -13
-8 -13 0 0 6 -7 11 -15 11 -8 0 -15 -6 -15 -12 0 -9 -3 -8 -9 2 -6 8 -7 18 -4
24 3 5 1 6 -5 2 -7 -4 -12 -3 -12 2 0 6 -9 8 -20 5 -12 -3 -20 0 -20 7 0 9 -8
7 -22 -6 -22 -19 -22 -19 -8 0 12 15 12 20 2 24 -7 2 -23 14 -34 26 -16 15
-19 17 -15 4 3 -9 0 -19 -8 -22 -9 -3 -12 1 -10 16 4 17 0 19 -23 14 -15 -3
-21 -3 -14 0 6 3 12 10 12 15 0 6 -4 7 -10 4 -5 -3 -10 -1 -10 4 0 6 -9 11
-19 11 -11 0 -23 4 -26 10 -4 6 1 7 12 3 15 -6 16 -5 3 9 -14 15 -16 14 -28
-8 -13 -26 -25 -33 -16 -11 3 8 -2 20 -11 27 -8 7 -15 18 -15 26 0 7 -5 16
-12 20 -8 5 -9 2 -5 -9 3 -9 2 -19 -4 -22 -5 -4 -8 -1 -7 7 2 7 -3 12 -11 10
-12 -3 -12 0 -2 12 10 12 8 17 -10 26 -17 10 -20 9 -14 -1 6 -9 3 -11 -9 -6
-10 4 -20 7 -22 7 -2 0 -4 6 -4 14 0 8 -5 18 -12 22 -7 4 -8 3 -4 -4 5 -8 -1
-12 -14 -12 -12 0 -19 4 -16 9 3 5 -1 12 -10 15 -8 3 -13 10 -10 14 3 5 -1 9
-9 9 -11 0 -12 -4 -4 -13 7 -8 6 -14 -2 -20 -7 -4 -9 -3 -5 4 3 6 1 14 -5 17
-5 4 -8 13 -5 21 4 11 2 12 -14 4 -24 -13 -30 -13 -30 1 0 5 4 8 9 4 5 -3 13
0 17 7 4 7 4 10 -1 6 -4 -4 -16 -3 -26 2 -13 8 -21 6 -29 -7 -9 -15 -10 -14
-5 7 6 24 6 24 -19 -5 l-26 -30 15 29 c17 36 11 50 -15 34 -10 -7 -17 -15 -15
-18 2 -3 -4 -6 -14 -6 -12 0 -16 6 -14 16 6 21 -32 38 -79 35 -37 -3 -43 2
-38 35 1 11 -3 10 -21 -5 -13 -11 -21 -16 -17 -11 4 5 2 16 -5 25 -11 14 -10
14 6 2 15 -12 17 -11 17 2 0 11 -8 14 -32 11 -18 -2 -27 -1 -20 2 6 3 10 10 6
15 -3 5 -14 4 -27 -3 -20 -10 -21 -10 -8 6 8 9 11 19 7 23 -3 3 -6 1 -6 -5 0
-7 -5 -12 -10 -12 -6 0 -10 6 -9 13 3 27 -2 36 -18 31 -15 -5 -16 -4 -3 5 8 6
12 11 7 11 -16 0 27 50 56 65 34 17 50 20 27 5 -9 -6 -10 -10 -3 -10 6 0 15 5
18 10 4 6 12 8 18 4 7 -3 3 2 -7 10 -23 18 -14 21 16 5 15 -8 19 -8 14 0 -4 6
-3 11 3 11 5 0 12 -6 14 -12 3 -8 6 -6 6 4 1 11 6 15 16 12 9 -4 15 0 15 9 0
9 5 19 12 23 7 5 9 2 5 -9 -4 -12 -2 -14 10 -10 12 5 14 3 8 -8 -5 -8 -4 -11
0 -6 13 11 15 38 3 31 -6 -4 -8 -2 -5 3 4 6 20 9 37 7 17 -2 30 1 30 7 0 7 6
6 17 -2 9 -8 14 -9 10 -2 -4 6 -1 14 5 17 7 2 4 4 -7 3 -11 -2 -26 -6 -32 -10
-8 -5 -13 -4 -13 2 0 6 3 11 8 12 4 0 18 2 31 5 13 2 31 -1 39 -8 13 -11 14
-11 7 1 -6 11 -4 13 10 8 17 -7 17 -6 0 20 -10 16 -14 25 -10 21 5 -4 15 -2
23 5 10 8 13 8 9 1 -4 -7 0 -14 8 -17 10 -4 12 -1 8 10 -5 13 -3 13 14 5 18
-10 20 -8 16 12 -3 13 2 28 11 35 9 8 16 10 16 7 0 -4 9 -2 19 4 17 9 19 7 16
-11 -5 -26 -13 -35 -22 -25 -4 4 -1 11 7 17 11 7 9 8 -9 6 -14 -2 -27 -10 -29
-17 -3 -7 0 -10 6 -6 6 3 14 1 17 -5 4 -5 14 -8 22 -5 11 5 13 2 9 -9 -3 -9
-2 -13 4 -10 6 3 10 15 10 26 0 10 5 19 11 19 5 0 8 -4 5 -8 -3 -5 1 -9 8 -9
8 0 12 7 8 15 -4 11 -1 13 9 8 8 -4 5 0 -5 8 -16 13 -22 13 -29 3 -6 -9 -7 -8
-4 3 2 8 11 13 18 11 32 -8 44 -5 43 11 -1 10 4 14 12 11 10 -4 12 0 7 13 -5
13 -3 15 7 9 9 -6 12 -4 8 7 -4 10 0 14 16 14 15 -1 20 4 18 16 -2 12 2 16 13
12 10 -4 15 0 15 14 0 12 5 24 12 28 7 4 8 3 4 -4 -4 -7 -2 -12 4 -12 6 0 13
7 16 15 4 8 14 15 24 15 11 0 22 5 26 12 5 7 3 8 -6 3 -8 -5 -11 -4 -6 3 4 6
13 9 21 6 8 -3 27 3 43 15 16 11 32 18 36 14 3 -3 6 -1 6 6 0 7 6 11 14 8 8
-3 17 -1 20 6 3 9 8 8 15 -3 9 -12 11 -10 12 10 0 23 1 23 9 5 5 -11 9 -14 9
-6 1 8 7 11 17 7 15 -6 15 -4 3 10 -13 16 -12 16 8 5 19 -10 22 -9 17 4 -4 8
-1 15 5 15 6 0 11 -5 11 -11 0 -6 7 -3 16 5 18 19 38 21 28 4 -4 -7 2 -5 13 5
22 19 38 23 27 5 -5 -7 -3 -8 5 -4 7 5 10 14 7 21 -2 7 4 21 15 31 19 17 21
17 30 2 5 -10 17 -14 29 -11 17 5 18 8 8 22 -11 14 -11 14 3 4 12 -10 18 -10
27 -1 7 7 12 8 12 2 0 -5 -9 -15 -20 -22 -11 -7 -20 -18 -20 -25 0 -8 3 -8 9
2 5 8 14 10 21 6 9 -6 11 -4 5 5 -6 10 -4 12 7 7 24 -9 30 4 13 29 -9 15 -11
25 -5 29 6 4 8 10 5 15 -7 12 -43 -22 -37 -34 3 -5 0 -6 -6 -2 -6 4 -9 13 -6
21 4 8 11 12 17 8 6 -4 8 0 4 9 -6 17 8 19 31 4 10 -6 10 -11 2 -21 -9 -11 -7
-17 8 -26 12 -7 18 -19 14 -27 -3 -10 -1 -13 6 -8 7 4 12 15 13 24 0 11 2 12
6 4 2 -7 14 -17 26 -23 20 -9 20 -9 5 4 -20 16 -24 37 -7 37 5 0 7 -4 4 -10
-3 -5 -2 -10 4 -10 5 0 14 7 19 17 9 14 10 14 16 -5 12 -35 43 -24 39 14 -2
18 1 35 6 39 6 3 8 13 5 23 -5 14 -4 14 4 3 7 -10 6 -20 -1 -33 -9 -15 -9 -20
2 -27 7 -5 9 -10 3 -12 -6 -2 -3 -10 6 -19 14 -13 15 -12 9 3 -4 10 -2 17 5
17 7 0 6 5 -2 15 -17 21 -1 35 25 24 18 -9 18 -9 -3 -5 -15 3 -22 0 -19 -7 3
-7 10 -11 16 -9 6 1 10 -3 9 -9 -2 -6 3 -14 11 -17 8 -2 11 0 7 6 -4 6 2 8 16
4 16 -4 19 -2 13 8 -6 9 -4 11 6 5 7 -5 34 -9 59 -9 39 1 45 3 42 20 -2 15 -1
16 7 5 5 -8 7 -21 4 -30 -3 -10 -2 -12 4 -5 4 6 16 10 26 8 9 -1 17 2 17 8 0
6 -8 7 -17 4 -10 -4 -14 -4 -10 0 4 4 2 12 -3 19 -7 8 -5 12 5 12 8 0 12 -4 9
-8 -2 -4 5 -10 16 -14 12 -4 17 -11 13 -18 -5 -9 -3 -9 8 -1 8 6 22 10 32 9 9
-2 17 1 17 7 0 6 -6 8 -13 5 -8 -3 -14 1 -14 8 0 16 32 3 41 -17 4 -7 4 -3 2
10 -2 12 -2 22 0 22 3 0 9 -10 14 -22 8 -21 9 -21 10 -3 l1 20 16 -20 c12 -15
14 -16 10 -3 -7 20 18 45 28 28 3 -6 11 -8 16 -5 5 4 9 2 9 -3 0 -6 -7 -13
-16 -16 -10 -4 -13 -2 -8 6 4 7 3 8 -4 4 -25 -15 -10 -23 42 -22 34 1 52 5 49
12 -2 6 -10 11 -18 11 -8 0 -12 -3 -10 -7 2 -4 -2 -7 -9 -7 -7 0 -13 6 -13 12
0 12 41 14 53 2 15 -15 26 -6 13 10 -13 15 -12 15 9 4 12 -7 20 -17 16 -23 -4
-7 -3 -8 5 -4 6 4 9 11 6 16 -3 5 -1 11 5 15 6 4 8 10 5 15 -3 5 0 12 6 16 8
4 9 3 5 -5 -4 -6 0 -14 8 -17 9 -3 16 -14 16 -23 -1 -14 -2 -14 -14 2 -9 12
-16 14 -21 8 -3 -6 1 -14 9 -17 9 -3 13 -11 9 -17 -4 -6 -1 -7 8 -1 39 24 53
15 49 -33 -1 -17 3 -20 19 -16 12 3 18 9 15 14 -10 17 5 9 35 -19 22 -20 28
-31 20 -39 -7 -7 -6 -12 6 -17 11 -4 14 -2 9 6 -5 8 -2 9 10 5 11 -5 15 -3 10
5 -5 7 -2 9 8 5 9 -3 19 -3 23 1 10 10 69 9 76 -1 3 -5 9 -1 12 8 5 10 3 14
-5 9 -7 -4 -8 -3 -4 5 9 14 29 3 23 -13 -3 -7 9 -11 34 -11 20 -1 35 3 32 8
-3 5 0 7 8 5 8 -3 13 -11 11 -17 -1 -7 2 -10 8 -6 6 3 7 12 3 18 -3 7 2 5 13
-4 21 -17 45 -20 42 -4 -2 6 -11 9 -20 9 -10 -1 -15 2 -13 6 5 9 20 7 47 -5
10 -4 16 -10 13 -14 -2 -4 10 -6 28 -5 18 2 51 5 74 7 43 4 70 -13 86 -53 4
-8 5 -4 4 10 -1 14 -9 31 -17 38 -13 11 -11 11 8 2 12 -6 27 -8 32 -5 6 4 10
3 9 -2 -3 -20 2 -34 11 -28 6 3 10 1 10 -5 0 -6 5 -8 11 -4 8 4 8 1 1 -13 -7
-13 -7 -24 0 -34 8 -11 9 -11 4 4 -6 19 18 25 29 7 4 -6 10 -8 15 -5 5 3 11 1
15 -5 4 -6 11 -7 17 -4 7 4 8 2 4 -5 -4 -6 0 -14 9 -17 13 -5 13 -9 3 -22 -11
-13 -10 -15 4 -10 23 9 28 0 17 -29 -8 -22 -7 -24 11 -18 11 4 20 3 19 -2 -1
-4 -1 -17 0 -28 2 -18 3 -18 12 3 5 15 5 30 -1 42 -7 13 -7 21 0 25 6 4 10 3
9 -2 -3 -20 2 -34 11 -28 6 4 10 3 9 -2 -3 -19 2 -33 12 -33 6 0 8 7 5 16 -3
9 -2 12 5 9 6 -4 8 -13 5 -20 -3 -9 2 -13 15 -12 10 1 19 6 19 12 0 5 4 4 9
-4 5 -8 8 -22 6 -32 -5 -26 34 -15 62 17 28 33 31 22 3 -13 -28 -36 -17 -42
13 -8 16 20 26 25 31 16 4 -6 4 -10 -1 -9 -4 2 -10 -1 -13 -6 -3 -5 7 -10 23
-12 18 -2 27 2 27 11 0 8 4 17 10 20 7 4 7 -2 1 -18 -6 -14 -7 -28 -3 -32 4
-4 -3 -3 -15 4 -27 14 -33 14 -33 -1 0 -6 3 -8 7 -5 3 4 16 1 29 -7 12 -8 25
-12 28 -9 12 12 35 11 33 0 -1 -7 3 -11 9 -10 6 1 11 -4 11 -12 0 -8 -4 -12
-9 -9 -4 3 -8 0 -8 -5 0 -10 14 -15 33 -12 5 1 6 -3 2 -9 -3 -6 -12 -7 -18 -3
-7 4 -4 -5 6 -20 10 -15 15 -33 11 -39 -5 -7 -3 -8 6 -3 10 6 12 4 7 -9 -4
-10 -3 -15 3 -11 6 3 10 -4 10 -16 0 -12 8 -31 18 -42 9 -11 12 -17 5 -14 -6
4 -14 3 -18 -3 -3 -5 1 -10 10 -10 9 0 13 -4 10 -10 -3 -5 0 -10 7 -10 9 0 9
-3 -2 -10 -8 -5 -10 -10 -4 -10 15 0 25 -50 10 -51 -6 0 -2 -4 9 -9 18 -8 18
-9 2 -9 -14 -1 -16 -5 -9 -18 5 -10 8 -27 6 -37 -1 -11 0 -25 4 -30 9 -15 9
-38 -1 -58 -4 -11 -4 -18 2 -18 5 0 8 -8 6 -17 -2 -10 -4 -18 -5 -18 -1 0 -3
-8 -5 -17 -4 -20 6 -23 21 -8 7 7 11 6 11 -4 0 -8 -3 -15 -6 -14 -24 2 -35 -3
-23 -11 8 -4 13 -11 13 -15 -3 -19 2 -25 27 -34 26 -9 44 -52 21 -52 -14 0
-11 -30 4 -30 6 0 4 -5 -6 -11 -9 -5 -22 -7 -27 -4 -6 3 -7 -1 -4 -9 7 -19 16
-20 30 -6 7 7 11 6 11 -5 0 -8 -2 -13 -5 -11 -2 3 -14 1 -26 -4 -23 -8 -26 -5
-27 43 0 13 -5 17 -17 13 -16 -6 -16 -5 0 7 11 9 14 18 7 28 -7 11 -9 11 -9
-4 0 -10 -4 -16 -9 -13 -5 4 -8 -2 -7 -11 2 -10 -4 -24 -13 -31 -14 -11 -14
-11 3 -5 15 5 17 3 11 -8 -7 -11 -5 -11 10 1 17 14 18 13 12 -2 -3 -10 -2 -20
3 -23 18 -11 11 -35 -7 -29 -14 5 -15 4 -4 -4 8 -6 21 -7 30 -4 14 5 14 3 2
-11 -7 -9 -10 -17 -5 -17 5 0 2 -5 -6 -10 -9 -6 -10 -10 -3 -10 7 0 17 8 23
18 9 14 10 13 4 -8 -6 -23 -6 -24 12 -10 16 13 15 11 -3 -15 -11 -16 -19 -37
-18 -46 2 -12 -3 -15 -16 -12 -25 7 -26 -24 -1 -44 15 -13 15 -13 -5 -4 -31
15 -38 14 -22 -6 10 -11 10 -14 2 -9 -8 4 -13 2 -13 -4 0 -8 9 -10 24 -6 26 7
44 -8 25 -20 -8 -4 -9 -3 -5 4 4 7 3 12 -2 12 -19 0 -21 -14 -6 -31 19 -21 10
-41 -14 -32 -15 6 -15 5 -4 -10 12 -14 11 -16 -7 -12 -14 2 -18 -1 -14 -11 3
-8 0 -14 -7 -14 -6 0 -9 4 -5 9 9 15 -16 24 -28 11 -9 -10 -9 -11 3 -5 13 8
13 6 2 -7 -8 -9 -20 -14 -28 -11 -11 4 -12 9 -3 19 7 9 8 14 1 14 -6 0 -12 -6
-15 -12 -4 -10 -7 -10 -18 0 -9 8 -9 12 -1 12 6 0 9 7 5 17 -4 11 -3 14 5 9
19 -11 14 5 -5 20 -17 12 -16 13 4 9 29 -5 21 19 -20 60 -17 17 -27 24 -23 18
4 -8 2 -13 -6 -13 -9 -1 -7 -5 5 -14 16 -12 16 -14 2 -20 -11 -4 -14 -2 -9 7
5 8 4 9 -4 2 -7 -6 -13 -23 -14 -38 -1 -15 -6 -27 -10 -27 -4 0 -8 -8 -8 -17
0 -15 2 -16 10 -3 6 9 10 10 10 3 0 -6 -4 -15 -10 -18 -15 -9 -12 -27 3 -20 6
4 5 1 -3 -7 -17 -14 -19 -27 -7 -45 5 -9 3 -11 -6 -7 -8 3 -17 -2 -21 -11 -3
-9 -2 -13 3 -10 5 3 12 1 16 -5 3 -5 0 -10 -8 -10 -10 0 -13 -8 -9 -26 4 -21
2 -25 -9 -20 -8 4 -5 0 5 -8 11 -9 14 -16 7 -16 -7 0 -9 -5 -6 -10 4 -6 12 -8
18 -4 7 3 5 -1 -4 -8 -12 -10 -14 -19 -8 -37 5 -12 7 -27 4 -31 -3 -5 -1 -12
5 -15 8 -5 7 -11 -1 -21 -9 -11 -8 -15 5 -20 9 -3 16 -10 16 -16 0 -5 -6 -6
-12 -2 -7 4 -4 -3 7 -16 11 -13 14 -20 7 -16 -11 7 -11 2 1 -20 8 -16 12 -35
10 -41 -3 -7 0 -13 7 -13 6 0 9 -4 6 -8 -12 -19 11 -34 35 -22 21 10 22 10 7
-3 -10 -8 -18 -21 -18 -30 0 -8 -6 -17 -12 -20 -7 -2 -1 -4 14 -3 31 1 34 6
16 24 -7 7 -9 12 -6 12 4 0 16 -13 27 -29 20 -28 13 -36 -15 -18 -7 4 -18 0
-25 -9 -10 -12 -10 -15 2 -12 8 2 13 -3 11 -10 -1 -8 2 -11 7 -8 5 3 8 -5 7
-19 0 -14 -5 -25 -11 -25 -5 0 -3 -5 5 -10 8 -5 12 -10 7 -10 -4 0 0 -11 9
-25 13 -20 14 -25 3 -26 -8 0 -5 -4 5 -8 22 -9 30 -39 14 -58 -8 -10 -7 -12 6
-7 9 3 16 11 16 17 0 8 3 8 10 1 14 -14 22 -56 9 -49 -5 4 -9 3 -10 -2 0 -4
-2 -16 -4 -25 -2 -10 5 -20 16 -23 11 -4 17 -10 14 -15 -7 -11 22 -40 40 -40
16 0 28 -27 14 -35 -5 -4 -8 -1 -7 7 2 7 -4 13 -12 13 -8 0 -19 5 -23 10 -5 6
-7 4 -4 -5 2 -8 12 -14 21 -12 9 2 15 -3 14 -10 -2 -7 5 -12 16 -11 13 1 15
-2 7 -10 -6 -6 -11 -16 -11 -21 1 -6 10 0 20 13 11 13 20 18 20 13 0 -6 -4
-14 -10 -17 -5 -3 -10 -11 -10 -16 0 -6 5 -7 11 -3 8 4 9 -1 4 -17 -5 -19 -4
-21 4 -9 8 11 11 12 11 2 0 -7 5 -10 10 -7 6 3 13 -1 16 -10 6 -13 9 -14 15
-3 6 8 8 5 5 -12 -3 -14 -5 -25 -6 -25 -1 0 -3 -8 -5 -17 -2 -12 2 -15 13 -11
10 4 13 2 8 -5 -11 -18 22 -26 41 -11 9 8 14 9 10 2 -4 -6 -4 -13 0 -16 5 -2
2 -2 -5 0 -8 1 -10 -2 -6 -9 5 -8 2 -9 -10 -5 -10 4 -15 3 -11 -4 4 -5 16 -7
28 -3 12 4 30 7 39 6 9 0 20 8 23 19 4 11 9 18 12 16 2 -3 -1 -15 -7 -27 -7
-13 -7 -20 -2 -16 6 3 12 3 15 -1 2 -5 2 -3 1 4 -3 14 20 35 29 26 13 -12 7
-25 -7 -20 -10 4 -13 1 -9 -8 3 -8 9 -13 13 -10 5 3 11 -1 14 -7 4 -9 5 -8 5
2 -2 30 1 41 11 35 6 -4 7 -12 3 -18 -4 -7 0 -6 10 2 9 7 15 17 12 21 -3 5 -1
11 5 15 5 3 10 1 10 -5 0 -6 5 -8 11 -4 8 4 7 9 -2 15 -12 8 -12 10 0 18 11 7
11 10 0 15 -8 3 -4 4 7 2 15 -2 21 1 20 13 0 9 5 15 13 13 11 -2 12 0 4 10 -6
7 -9 21 -8 31 2 10 -1 14 -7 11 -7 -4 -8 -2 -4 4 4 7 3 12 -3 12 -18 0 -23
-20 -6 -26 14 -6 14 -8 0 -24 -8 -9 -12 -20 -8 -25 5 -4 2 -5 -4 -1 -12 6 -18
-5 -14 -26 1 -8 -15 -12 -31 -9 -5 0 -8 -4 -8 -9 0 -6 5 -10 11 -10 5 0 7 -5
3 -11 -4 -8 -9 -7 -15 2 -7 11 -9 11 -9 -1 0 -10 -3 -11 -8 -4 -4 6 -14 14
-22 18 -8 3 -5 4 8 2 28 -5 28 1 0 33 -13 14 -16 20 -8 14 20 -18 29 -16 25 5
-2 10 1 25 7 33 8 11 9 10 4 -3 -7 -23 0 -23 29 0 20 16 21 20 9 37 -8 10 -14
24 -14 29 1 6 6 1 13 -12 7 -12 16 -20 20 -16 4 4 1 14 -5 23 -10 13 -10 14 2
4 21 -19 34 -16 19 5 -11 14 -11 15 1 5 24 -21 34 -14 14 9 -10 12 -14 18 -7
15 6 -4 14 -1 17 5 4 9 5 8 4 -2 -2 -24 13 -50 29 -50 12 0 12 2 -1 15 -9 9
-13 26 -10 43 6 34 19 48 29 31 6 -8 4 -10 -4 -4 -9 5 -12 1 -10 -11 2 -11 0
-24 -4 -31 -4 -6 -2 -15 4 -19 7 -4 9 -3 5 4 -3 5 -1 12 5 14 6 2 12 18 14 36
1 17 0 30 -4 28 -3 -3 -11 7 -18 20 -7 16 -8 22 0 17 7 -4 8 0 4 11 -5 11 -3
15 4 10 7 -4 10 -1 7 7 -3 8 -12 13 -19 11 -8 -2 -10 0 -6 5 5 4 14 8 20 8 5
0 12 6 15 14 3 9 0 11 -9 5 -11 -6 -12 -5 -2 7 7 9 11 25 8 38 -2 12 0 19 6
16 5 -4 13 5 19 19 5 14 17 26 27 26 10 0 14 4 8 8 -5 4 -11 13 -13 21 -2 11
0 12 11 3 10 -9 17 -9 27 1 10 10 12 9 7 -6 -4 -11 -3 -16 3 -12 12 7 13 35 2
35 -4 0 -13 -5 -19 -11 -7 -7 -12 -6 -17 6 -3 9 -2 14 3 11 5 -3 12 10 15 29
4 19 11 35 16 35 5 0 6 -8 3 -17 -6 -15 -4 -16 9 -5 12 10 18 9 28 -3 11 -13
11 -16 1 -13 -19 4 -22 -28 -4 -49 14 -17 14 -17 5 1 -10 21 14 60 31 49 6 -3
7 -1 3 5 -3 6 -2 13 4 17 5 3 10 11 10 16 0 6 -4 8 -9 5 -5 -3 -11 1 -15 9 -3
8 0 17 6 21 7 4 8 3 4 -4 -4 -7 -2 -12 3 -12 15 0 14 27 -1 33 -7 3 -2 6 12 6
14 1 20 5 14 9 -20 13 -25 54 -6 48 11 -4 9 0 -5 13 -13 11 -23 22 -23 26 0 4
6 2 14 -4 11 -9 15 -7 19 10 4 16 2 19 -11 14 -13 -5 -12 -1 4 16 10 12 13 19
5 14 -10 -6 -11 -2 -5 16 4 13 7 32 6 42 0 11 4 15 11 11 9 -5 9 -3 0 6 -10
11 -9 16 5 27 9 8 11 11 3 7 -10 -5 -13 -3 -8 8 3 9 -1 25 -9 36 -13 19 -12
22 11 40 13 11 21 23 17 28 -4 5 1 2 11 -5 15 -12 17 -12 12 1 -6 15 21 45 31
35 9 -9 -6 -28 -17 -22 -5 4 -9 4 -9 1 0 -3 9 -10 20 -16 16 -8 18 -8 14 4 -3
8 0 17 5 21 6 3 9 10 6 15 -3 5 0 12 6 16 7 4 9 3 5 -4 -3 -6 -3 -13 2 -16 4
-2 8 6 8 19 0 13 -3 22 -6 20 -4 -2 -7 2 -7 9 0 8 7 12 16 9 13 -4 14 -3 2 5
-15 11 -24 55 -9 46 4 -3 8 0 8 5 0 6 -4 11 -8 11 -11 0 -9 40 2 59 7 11 5 13
-9 7 -18 -7 -18 -6 -1 13 13 15 14 20 4 24 -9 4 -9 6 -1 6 7 1 10 8 6 18 -5
12 -3 14 8 8 12 -8 12 -6 0 8 -7 9 -9 17 -4 17 5 0 7 16 5 36 -4 29 -2 35 9
28 11 -6 12 -5 3 7 -6 8 -10 28 -9 44 0 17 -4 36 -9 44 -8 11 -8 13 0 8 7 -4
11 4 10 23 -1 17 -5 30 -11 30 -5 0 -4 4 4 9 9 6 10 11 2 15 -15 10 -14 29 2
21 6 -4 3 1 -7 9 -13 10 -15 16 -7 16 11 0 11 3 0 17 -8 9 -9 14 -4 11 6 -4
10 8 10 27 0 23 -3 31 -11 24 -8 -7 -10 1 -7 26 2 21 -1 35 -7 35 -6 0 -8 5
-5 10 4 6 11 7 17 4 14 -9 2 13 -26 46 -18 21 -18 22 -2 10 18 -14 19 -14 8 6
-6 12 -8 25 -4 29 4 5 1 5 -6 1 -9 -6 -11 -1 -8 18 3 14 0 28 -5 32 -5 3 -6
10 -3 16 5 7 2 8 -6 3 -10 -6 -12 -3 -7 11 7 18 6 18 -7 1 -12 -16 -14 -13
-12 29 1 35 -3 48 -17 55 -12 7 -16 17 -11 31 4 14 2 18 -5 14 -15 -10 -14 7
2 23 10 10 9 11 -4 6 -10 -4 -20 -1 -25 6 -4 7 -3 10 4 5 21 -13 5 27 -19 47
-15 13 -18 18 -6 14 9 -4 17 -2 17 3 0 6 -5 10 -11 10 -5 0 -8 4 -5 9 3 5 -1
11 -9 15 -8 3 -15 18 -15 33 0 22 -2 25 -10 13 -9 -14 -16 13 -11 43 0 4 -4 7
-10 7 -6 0 -9 7 -6 14 4 10 1 13 -9 9 -10 -4 -12 0 -8 11 4 10 0 18 -10 22 -9
3 -16 15 -16 25 0 10 -7 19 -15 19 -9 0 -12 6 -9 15 4 11 2 13 -9 9 -10 -4
-15 0 -14 13 1 12 -4 17 -16 17 -12 -1 -15 2 -8 10 7 8 1 16 -20 25 -17 7 -28
16 -25 19 3 2 12 -1 21 -8 10 -8 15 -9 15 -1 0 6 -11 13 -25 17 -13 3 -27 15
-30 25 -4 10 -15 19 -26 19 -10 0 -18 3 -16 8 1 4 -7 17 -18 29 -11 12 -26 29
-33 38 -7 8 -18 13 -23 9 -6 -3 -9 2 -7 12 2 11 -2 18 -10 16 -10 -2 -10 2 -1
19 8 15 8 19 0 15 -14 -9 -53 18 -43 30 4 4 -1 2 -11 -6 -10 -7 -17 -9 -16 -4
3 18 -1 37 -8 31 -3 -4 -12 1 -20 11 -8 9 -11 11 -7 3 5 -10 3 -12 -5 -7 -9 6
-9 12 1 24 7 10 8 14 4 10 -5 -4 -16 -2 -24 5 -11 8 -14 8 -9 0 8 -13 -18 -12
-30 2 -4 4 -2 5 5 1 7 -4 12 -1 12 9 0 13 -4 14 -21 5 -19 -11 -20 -10 -9 10
7 13 8 20 3 17 -5 -3 -16 3 -23 14 -8 10 -18 19 -22 19 -5 0 -22 14 -40 30
-28 27 -47 35 -71 31 -5 -1 -6 3 -2 9 3 6 12 7 18 3 7 -4 5 2 -3 13 -22 29
-24 30 -17 12 4 -10 2 -18 -3 -18 -6 0 -10 7 -10 15 0 8 -6 14 -12 13 -7 -2
-12 3 -10 10 1 8 -2 11 -7 8 -5 -3 -12 2 -16 12 -6 16 -8 15 -21 -3 -14 -19
-15 -19 -10 8 3 18 1 25 -6 21 -6 -4 -14 0 -19 7 -6 9 -12 10 -16 4 -10 -12
-45 -16 -37 -4 3 5 12 9 20 9 18 0 18 8 -3 28 -16 16 -16 16 -10 0 3 -10 2
-18 -3 -18 -9 0 -14 14 -11 32 0 4 -7 4 -16 1 -12 -5 -14 -3 -9 8 4 8 0 5 -9
-6 -17 -20 -17 -20 -10 2 5 19 3 22 -11 16 -11 -4 -15 -3 -10 5 3 6 2 13 -4
17 -5 3 -10 -2 -11 -12 0 -15 -2 -14 -11 5 -6 12 -17 22 -25 22 -7 0 -13 6
-13 13 0 9 -3 8 -9 -2 -7 -11 -10 -9 -15 7 -5 16 -14 20 -36 17 -23 -3 -28 0
-23 13 6 14 4 15 -9 4 -13 -10 -17 -10 -21 0 -4 11 -7 10 -15 0 -7 -11 -11
-10 -16 4 -3 9 -4 19 -1 22 3 3 5 1 5 -5 0 -11 36 -11 45 0 3 4 2 5 -1 3 -3
-3 -17 -1 -30 4 -17 7 -28 5 -40 -7 -16 -16 -16 -16 -10 3 8 26 -34 50 -54 31
-10 -9 -11 -9 -5 2 6 11 4 13 -8 8 -9 -3 -19 -1 -23 5 -4 7 -3 8 4 4 7 -4 12
-2 12 3 0 14 -17 14 -25 0 -5 -6 -13 -3 -22 10 -15 22 -33 28 -33 11 0 -6 5
-9 11 -8 6 2 14 -4 16 -12 4 -13 3 -13 -6 0 -6 8 -11 11 -11 5 0 -5 -5 -4 -12
3 -16 16 -33 15 -19 -1 8 -10 7 -14 -3 -14 -8 0 -13 8 -11 18 5 27 -45 45 -78
27 -14 -7 -17 -7 -13 1 5 7 -4 11 -24 11 -17 0 -29 4 -26 9 6 10 -37 6 -56 -5
-10 -6 -11 -5 -1 7 10 12 8 15 -8 15 -10 0 -19 -7 -19 -16 -1 -9 -5 -7 -14 9
-12 22 -13 22 -20 5 -7 -17 -9 -17 -19 -3 -18 24 -40 28 -62 10 -12 -9 -15
-10 -7 -1 17 20 15 35 -3 20 -12 -10 -15 -10 -16 1 0 8 -4 5 -9 -6 -7 -17 -9
-17 -9 -2 -1 11 -10 17 -28 18 -16 1 -43 2 -60 3 -18 1 -33 -3 -33 -9 0 -5 -7
-1 -15 9 -8 11 -15 15 -15 9 0 -6 -9 -13 -19 -16 -15 -3 -18 -1 -14 12 4 14 3
14 -10 -1 -15 -19 -32 -25 -22 -8 9 14 -8 12 -24 -2 -10 -9 -12 -9 -7 -1 3 6
2 14 -4 18 -5 3 -10 -1 -10 -9 0 -11 -6 -13 -29 -6 -21 6 -31 5 -35 -3 -3 -8
-8 -8 -15 3 -9 12 -11 12 -17 -3 -3 -9 -10 -17 -16 -17 -5 0 -7 4 -4 9 3 5 -3
11 -14 14 -11 3 -18 1 -14 -4 3 -5 -10 -7 -28 -6 -18 2 -39 -1 -46 -6 -9 -7
-17 -6 -24 1 -8 8 -16 5 -30 -11 -11 -12 -17 -16 -13 -9 9 17 -3 15 -22 -3 -8
-8 -20 -12 -26 -8 -17 11 -101 5 -105 -7 -2 -6 -10 -10 -18 -10 -9 0 -12 5 -8
12 5 7 3 8 -5 4 -7 -5 -10 -15 -6 -23 4 -13 3 -14 -10 -3 -12 10 -18 10 -31
-1 -9 -7 -18 -9 -22 -3 -10 13 -35 17 -27 4 4 -6 1 -11 -6 -9 -31 4 -70 -2
-65 -9 3 -5 -1 -9 -9 -9 -8 0 -15 5 -15 11 0 6 -4 4 -9 -4 -6 -8 -7 -18 -4
-24 3 -5 1 -6 -6 -2 -6 4 -9 12 -6 17 11 16 -7 9 -21 -8 -9 -12 -13 -14 -14
-5 0 7 -5 10 -10 7 -6 -4 -8 -9 -6 -13 2 -4 -12 -7 -31 -8 -19 0 -39 -7 -44
-15 -6 -10 -9 -10 -9 -1 0 6 -5 12 -11 12 -5 0 -8 -4 -5 -9 3 -5 -1 -11 -8
-14 -8 -3 -17 -1 -20 6 -3 9 -5 8 -5 -1 -1 -7 -5 -10 -11 -7 -5 3 -10 0 -10
-7 0 -9 -3 -9 -10 2 -5 8 -10 10 -10 3 0 -6 -9 -9 -21 -6 -18 5 -20 3 -15 -18
l7 -24 -13 23 c-11 17 -16 20 -26 10 -7 -7 -12 -8 -12 -3 0 5 -7 0 -16 -11 -8
-10 -13 -13 -9 -6 4 7 0 12 -10 12 -10 0 -13 -5 -9 -12 6 -10 5 -10 -7 -1 -11
9 -18 8 -33 -3 -14 -10 -23 -11 -33 -3 -9 9 -13 8 -13 0 0 -7 -5 -9 -10 -6 -6
4 -17 1 -25 -5 -8 -6 -19 -9 -25 -5 -6 4 -9 2 -8 -3 4 -12 -55 -61 -78 -65
-29 -4 -45 -17 -37 -30 4 -7 0 -6 -10 2 -16 13 -22 8 -18 -13 1 -5 -5 -4 -13
4 -12 9 -16 9 -16 1 0 -7 -4 -9 -10 -6 -5 3 -10 2 -10 -4 0 -6 -7 -8 -15 -5
-8 4 -17 -1 -21 -9 -3 -9 -14 -14 -24 -12 -10 2 -21 -3 -24 -11 -3 -9 -11 -12
-18 -8 -8 5 -9 2 -4 -11 5 -15 4 -16 -9 -5 -12 10 -15 10 -15 -4 0 -10 -5 -14
-11 -11 -5 4 -20 -4 -32 -17 -13 -14 -27 -23 -33 -21 -6 2 -16 -7 -22 -19 -6
-13 -11 -17 -11 -10 -1 7 -6 10 -11 7 -6 -4 -7 -12 -3 -18 4 -7 0 -6 -10 2
-17 13 -18 13 -21 -11 0 -7 -7 -14 -13 -14 -7 -1 -18 -2 -24 -3 -5 0 -7 -5 -4
-11 3 -5 -6 -12 -20 -16 -14 -3 -25 -10 -25 -14 0 -4 -10 -10 -21 -13 -14 -4
-20 -11 -16 -21 4 -10 1 -13 -8 -9 -8 3 -12 10 -9 17 3 6 -2 2 -10 -8 -9 -11
-16 -16 -16 -11 0 5 -13 -6 -28 -23 -23 -25 -31 -29 -42 -19 -10 9 -11 9 -6 0
4 -7 2 -13 -4 -13 -7 0 -9 -7 -6 -16 6 -15 4 -15 -11 -3 -15 12 -16 12 -10 -3
4 -12 2 -15 -7 -12 -7 3 -16 -2 -19 -10 -4 -9 -13 -16 -21 -16 -7 0 -17 -8
-20 -17 -6 -15 -8 -15 -17 -3 -8 12 -10 10 -6 -7 5 -24 -8 -32 -16 -10 -3 7
-6 5 -6 -5 -1 -10 -7 -17 -13 -15 -7 1 -12 -3 -11 -10 2 -6 -6 -15 -17 -18
-11 -4 -20 -10 -20 -15 0 -4 -11 -11 -25 -14 -16 -4 -23 -11 -19 -18 5 -8 2
-9 -10 -5 -11 5 -15 3 -10 -4 4 -7 1 -10 -7 -7 -23 8 -55 -12 -38 -24 12 -8
11 -9 -1 -5 -17 4 -22 58 -6 69 7 5 6 8 -3 8 -11 0 -11 3 0 16 10 13 10 17 -2
26 -11 7 -8 9 9 5 18 -4 21 -3 12 8 -8 9 -8 14 0 17 6 2 11 22 12 46 0 28 5
42 14 42 7 0 17 7 22 16 5 8 23 16 40 18 17 1 35 6 39 11 4 4 3 5 -3 2 -7 -4
-14 2 -17 14 -3 12 -10 19 -14 16 -5 -3 -10 4 -10 16 -1 12 1 17 5 12 12 -16
47 -41 38 -27 -4 7 -1 15 9 18 14 6 14 8 -1 19 -14 9 -14 14 -4 20 9 6 11 4 5
-5 -5 -9 -4 -11 3 -6 17 10 15 24 -5 30 -10 2 -4 3 12 2 25 -3 31 0 32 17 2
22 22 39 37 30 5 -3 6 -1 2 6 -4 6 -11 9 -16 6 -5 -3 -11 -1 -15 4 -3 6 5 8
19 5 28 -5 60 21 49 39 -4 7 0 6 10 -1 14 -12 16 -11 12 8 -3 17 0 20 12 16
14 -6 14 -4 2 11 -9 11 -10 14 -1 9 7 -4 12 -2 12 4 0 6 4 9 9 6 4 -3 6 5 4
18 -3 13 0 27 6 30 6 4 11 12 11 17 0 6 -6 7 -12 3 -9 -5 -9 -2 1 9 7 9 10 17
6 17 -4 0 0 12 10 26 11 18 12 24 4 18 -12 -6 -12 -5 0 9 7 9 10 17 5 17 -4 0
1 7 12 16 10 8 13 13 7 9 -15 -7 -18 11 -3 20 6 4 8 10 5 15 -3 4 3 11 12 14
15 6 15 8 3 16 -13 8 -13 10 -1 10 8 0 11 3 8 7 -4 3 0 17 8 29 11 17 12 25 3
30 -7 5 -5 11 7 21 13 9 14 13 5 13 -9 0 -7 5 6 15 13 10 14 14 5 15 -11 0
-11 3 -1 15 7 9 10 18 7 22 -4 3 -1 15 5 27 7 11 11 29 9 39 -1 9 2 17 7 17 5
0 7 11 5 24 -3 13 0 34 7 46 8 15 8 20 1 16 -12 -8 -15 6 -4 18 11 11 12 36 2
36 -6 0 -7 6 -2 13 11 18 12 37 2 37 -6 0 -7 5 -4 10 4 6 11 7 17 4 7 -4 7 0
1 12 -5 11 -8 42 -8 69 1 28 -2 58 -8 69 -6 13 -6 16 2 12 6 -4 11 -2 11 3 0
6 -5 11 -12 11 -9 0 -9 3 0 12 9 9 8 16 -6 32 -16 19 -16 19 2 12 15 -5 17 -4
7 7 -6 8 -12 33 -14 56 -1 28 -6 40 -14 36 -15 -5 -13 16 2 27 6 5 4 8 -5 8
-8 0 -21 9 -28 20 -7 12 -18 17 -29 13 -12 -5 -14 -3 -8 8 8 12 6 12 -8 0 -11
-9 -17 -10 -17 -2 0 6 -4 11 -9 11 -6 0 -8 -8 -6 -18 2 -12 -3 -18 -17 -19
-19 -2 -19 -1 -2 11 17 13 17 14 -4 25 -18 10 -21 9 -16 -4z m3790 -3717 c4 4
2 -1 -6 -12 -15 -19 -21 -38 -23 -73 -1 -18 -4 -20 -20 -12 -16 9 -17 8 -8 -9
14 -26 -27 -69 -49 -49 -10 10 -11 9 -5 -2 6 -11 4 -13 -10 -7 -15 5 -16 4 -5
-9 11 -13 10 -14 -5 -9 -11 5 -16 4 -12 -3 3 -5 0 -10 -7 -10 -14 0 -16 21 -3
33 4 4 7 12 7 18 0 6 -5 4 -10 -4 -6 -9 -10 -11 -10 -3 0 7 -7 10 -17 6 -12
-5 -11 -1 5 15 12 12 22 30 22 40 -1 12 -4 10 -13 -8 -13 -28 -34 -37 -34 -15
0 8 4 12 8 10 4 -3 9 2 12 10 4 8 1 13 -6 11 -7 -1 -9 -1 -5 1 4 2 5 12 2 21
-4 13 -3 13 6 -2 10 -15 14 -16 21 -5 7 11 9 11 9 1 0 -8 5 -10 13 -5 18 11
38 13 31 2 -3 -5 -1 -9 5 -9 6 0 7 -8 4 -17 -5 -14 -3 -13 14 3 11 10 28 25
39 32 17 11 17 11 -3 2 -16 -7 -23 -7 -23 0 0 5 7 10 16 10 9 0 12 5 8 13 -4
6 -4 9 0 5 15 -13 35 16 22 32 -9 13 -9 13 5 3 9 -7 20 -9 25 -5z m-615 -3151
c-23 -23 -4 -32 28 -13 10 7 12 3 6 -15 -5 -19 -4 -21 4 -9 8 12 11 12 11 1 0
-8 6 -11 16 -7 8 3 12 2 9 -4 -3 -6 -1 -10 4 -10 6 0 11 8 11 17 0 13 3 14 12
5 8 -8 8 -15 -2 -27 -9 -11 -10 -19 -3 -23 5 -4 9 -14 8 -24 -2 -13 3 -15 24
-12 19 3 22 2 11 -5 -8 -5 -18 -7 -24 -4 -5 4 -7 -1 -3 -10 3 -9 1 -19 -5 -23
-6 -4 -8 -3 -4 4 3 6 1 14 -5 18 -8 4 -9 3 -5 -4 4 -7 2 -12 -5 -12 -18 0 -5
-10 20 -15 13 -2 21 1 21 11 0 8 5 14 10 14 7 0 7 -6 0 -20 -6 -11 -15 -20
-20 -20 -6 0 -10 -5 -10 -11 0 -5 4 -8 9 -5 5 3 15 -2 22 -11 12 -15 12 -16
-1 -8 -8 5 -24 11 -35 12 -18 2 -18 1 3 -10 18 -10 20 -15 10 -26 -11 -11 -9
-12 12 -7 21 5 20 3 -5 -9 -27 -13 -31 -12 -46 5 -13 15 -19 16 -28 7 -9 -9
-11 -8 -6 6 5 11 2 17 -6 17 -8 0 -5 6 7 15 10 8 15 15 10 15 -5 0 -3 7 4 15
12 14 6 19 -20 17 -3 0 -7 8 -7 19 -2 20 12 26 20 9 3 -6 4 -5 3 2 -2 7 -13
12 -25 11 -12 -2 -20 1 -16 6 3 5 1 12 -4 15 -5 3 -7 15 -4 26 3 12 0 20 -8
20 -7 0 -9 3 -6 7 4 3 19 -4 34 -18 14 -13 23 -19 20 -12 -4 6 -4 13 0 16 5 2
2 2 -4 1 -7 -2 -19 7 -28 19 -8 12 -15 17 -15 12 0 -5 -5 -4 -12 3 -14 14 -20
45 -7 36 5 -3 9 0 9 6 0 6 5 8 11 4 8 -4 8 -9 0 -17z"/>
<path d="M1957 4573 c-9 -17 -13 -33 -10 -37 4 -3 -2 -6 -11 -6 -10 0 -16 -6
-13 -12 6 -17 -12 -50 -23 -43 -5 3 -12 0 -16 -7 -4 -7 -4 -10 1 -6 4 4 15 2
23 -5 13 -9 14 -9 8 1 -4 6 -4 12 1 12 4 0 14 13 20 28 8 17 21 28 35 29 22 2
21 0 -7 -24 -20 -16 -23 -21 -8 -14 29 15 33 14 27 -4 -4 -8 -10 -12 -15 -9
-5 3 -6 -3 -2 -13 6 -15 4 -16 -9 -5 -13 10 -18 8 -32 -12 -9 -14 -16 -29 -16
-33 0 -4 9 5 19 20 13 21 21 25 26 16 6 -9 10 -9 19 2 13 16 36 23 36 10 0 -5
-15 -16 -32 -25 -18 -8 -27 -16 -20 -16 7 0 10 -5 7 -10 -5 -8 -12 -7 -23 2
-13 11 -14 11 -7 -2 6 -8 10 -18 11 -22 1 -5 2 -11 3 -14 0 -4 9 0 18 7 15 12
16 12 10 -3 -4 -13 -2 -15 10 -11 12 5 14 3 8 -7 -6 -9 -4 -11 4 -5 9 5 7 13
-10 31 -22 23 -15 34 9 14 6 -6 10 -7 7 -4 -3 4 3 13 13 21 16 14 16 14 0 9
-10 -3 -20 -1 -23 4 -6 9 8 14 28 11 4 0 6 5 5 12 -2 6 4 11 12 9 8 -2 12 0 8
3 -4 4 -3 16 2 26 8 14 6 20 -9 28 -14 8 -20 7 -25 -4 -6 -17 -26 -20 -26 -4
0 5 5 7 10 4 6 -3 10 -2 10 4 0 5 -9 12 -19 16 -13 4 -18 12 -15 23 5 14 4 15
-5 2 -7 -9 -11 -10 -11 -3 0 21 16 22 34 2 9 -11 22 -19 27 -17 14 5 7 23 -8
23 -7 0 -19 9 -26 20 -14 18 -15 18 -30 -12z"/>
<path d="M6679 1544 l-24 -26 23 -15 c12 -9 22 -21 22 -27 0 -8 -2 -8 -8 1
-11 18 -47 20 -47 3 0 -8 5 -15 12 -15 17 0 29 -15 12 -16 -8 -1 -17 -1 -21 0
-5 0 -8 -4 -8 -10 0 -6 9 -8 22 -3 20 6 21 5 10 -8 -12 -15 -7 -48 7 -48 13 0
51 31 51 42 0 7 -6 6 -15 -2 -8 -7 -15 -9 -15 -5 0 4 -7 2 -15 -5 -8 -7 -15
-8 -15 -2 0 5 7 15 15 22 11 9 15 9 15 1 0 -7 5 -9 10 -6 6 4 7 11 4 17 -5 7
-2 8 6 3 9 -6 11 -4 5 5 -6 9 -4 11 5 5 9 -6 11 -4 5 6 -7 11 -5 11 11 -1 17
-14 18 -14 5 2 -11 15 -9 21 17 48 45 45 64 30 20 -17 -21 -23 -14 -33 10 -13
6 6 10 7 7 4 -3 -4 1 -14 8 -23 11 -14 10 -15 -8 -1 -16 11 -17 11 -7 0 17
-20 15 -33 -5 -26 -15 5 -15 4 1 -9 14 -10 23 -12 32 -4 6 5 16 8 20 7 5 -2 9
2 9 7 0 6 -4 9 -10 7 -5 -1 -1 5 10 14 15 12 16 15 3 11 -22 -8 -30 3 -15 22
10 14 10 14 -4 4 -9 -7 -19 -10 -22 -6 -10 9 -9 25 1 19 4 -2 8 4 8 14 0 24
-44 46 -52 27 -5 -15 -34 -19 -34 -6 0 26 -38 27 -61 3z"/>
</g>
</svg>
