<?xml version="1.0" ?>
<svg xmlns="http://www.w3.org/2000/svg" xmlns:ev="http://www.w3.org/2001/xml-events" xmlns:xlink="http://www.w3.org/1999/xlink" baseProfile="full" height="600px" version="1.1" viewBox="-4.413852734147497 -2910.471886893596 5945.041744823727 6781.390446305504" width="527px">
	<defs/>
	<path d="M 2704.2,-2343.0 C 2688.7033199999996,-2275.99458 2607.5869199999997,-2264.5239599999995 2703.825,-2198.625 C 2754.1872599999997,-2138.42364 2874.9831,-1950.1845000000005 2839.2,-2029.1999999999998 C 2873.4219,-1971.3288599999998 3004.52106,-1859.4488399999993 2958.0,-1868.3999999999999 C 3002.67306,-1852.31958 3016.3927200000003,-1819.32696 2996.4,-1829.3999999999999 C 3040.63626,-1794.7095000000004 3140.41224,-1698.4938 3084.6,-1747.2 C 3099.54312,-1706.8665599999997 3133.7598,-1613.7554399999997 3132.6,-1660.8 C 3176.81742,-1588.2883199999997 3220.3271999999997,-1482.7756799999995 3213.6,-1515.6 C 3221.1501599999997,-1491.0004200000003 3273.74574,-1403.5885200000002 3248.4,-1434.6 C 3266.5171800000003,-1384.6662 3312.2736,-1229.57922 3301.7999999999997,-1273.8 C 3315.4755599999994,-1208.7637800000002 3330.8230199999994,-1041.3433199999997 3334.65,-1120.05 C 3315.40308,-1039.22088 3441.2566800000004,-810.0486600000002 3291.0,-763.1999999999999 C 3199.27278,-714.69258 2938.57326,-529.3598400000002 3018.975,-580.1999999999999 C 2959.0246199999997,-548.8920599999999 2886.46788,-512.2188599999997 2910.6,-522.0 C 2759.8378199999997,-440.3823599999998 3042.0703799999997,-613.66566 2768.4,-456.0 C 2707.62042,-424.79922000000005 2527.002,-372.66569999999973 2592.6,-390.59999999999997 C 2550.4344,-354.8466 2459.45406,-317.74289999999996 2476.7999999999997,-346.8 C 2446.8290399999996,-363.41807999999986 2303.73438,-146.77787999999984 2298.6,-240.6 C 2289.62334,-153.1252800000002 2342.15238,-245.12939999999998 2343.0,-240.6 C 2354.76258,-114.71010000000005 2333.81388,-128.48567999999977 2323.7999999999997,-156.6 C 2381.9724599999995,-56.22396000000025 2406.72714,-45.67229999999998 2359.0499999999997,-77.25 C 2378.81022,-23.50973999999988 2531.8988999999997,-126.38310000000001 2489.4,-121.19999999999999 C 2583.31794,-178.85663999999997 2700.75318,-198.6949199999999 2788.2,-237.6 C 2821.5560399999995,-233.46149999999997 2924.2938599999998,-259.9258799999998 2892.0,-260.4 C 2994.77418,-312.3029399999999 3131.38326,-355.98749999999995 3222.0,-378.59999999999997 C 3364.78026,-486.36696000000006 3226.9936199999997,-292.56402000000014 3345.6,-417.0 C 3404.81742,-428.4481200000002 3377.29872,-222.4797600000002 3363.6,-277.2 C 3389.61012,-112.91267999999982 3444.63276,-94.8136199999997 3420.6,-119.39999999999999 C 3358.81398,-53.22887999999983 3384.93264,-230.9351999999999 3352.2,-217.2 C 3376.06872,-269.7193799999999 3324.67764,-253.0794600000001 3321.2999999999997,-234.29999999999998 C 3206.2504199999994,-196.81356000000014 3401.8895999999995,220.6810800000001 3402.0,123.0 C 3399.23232,192.4987799999999 3340.70292,385.63758 3368.4,332.4 C 3347.25666,447.20975999999973 3328.19058,422.90249999999975 3324.6,525.0 C 3308.5368,642.0184800000003 3252.9699,951.0651599999997 3280.7999999999997,848.4 C 3277.8648,908.1905999999999 3278.47716,1121.8027199999997 3271.7999999999997,1064.3999999999999 C 3306.6433799999995,1200.64512 3537.1910399999997,1438.2896999999998 3446.4,1347.0 C 3519.2197200000005,1449.6475799999998 3723.68886,1563.2265 3647.4,1517.3999999999999 C 3716.34612,1564.6631999999997 3783.3120599999997,1624.3836599999997 3864.0,1614.6 C 4031.52216,1597.91466 4007.7203999999997,1932.00432 3898.2,1844.3999999999999 C 3923.28816,1861.8586199999997 3905.8851,1925.37726 3964.875,1879.875 C 3895.9668600000005,1897.40526 3698.4120000000003,2130.78768 3747.0,2054.4 C 3730.9730400000003,2111.39934 3979.31274,2362.2972 3849.6,2213.4 C 3926.7771,2276.18706 3805.5107399999997,2356.68822 3794.3999999999996,2388.6 C 3754.59444,2446.90944 3853.8848399999997,2623.2580199999998 3822.6,2578.2 C 3826.2419400000003,2653.6730399999997 3685.4229,2818.4337 3775.7999999999997,2779.7999999999997 C 3717.9799199999998,2795.7766199999996 3596.0058599999998,2925.6779399999996 3644.4,2890.7999999999997 C 3587.15232,2932.9187399999996 3366.9420600000003,2946.53562 3460.7999999999997,2946.825 C 3397.1968199999997,2972.2211399999997 3229.9898399999997,2997.4461599999995 3263.1749999999997,2983.95 C 3233.7682199999995,2938.38984 3099.2407799999996,3009.7983 3106.725,2996.1 C 3048.1741799999995,3010.1493 2835.9757799999998,3080.400318 2900.4,3066.0 C 2847.4924800000003,3080.6707199999996 2695.34292,3170.6944139999996 2765.1,3098.1749999999997 C 2707.0676999999996,3096.9976979999997 2551.8060600000003,3109.620594 2607.0,3120.6 C 2506.97352,3134.438964 2540.6850000000004,3217.942764 2563.0499999999997,3182.7 C 2604.5112599999998,3198.1807679999997 2647.9459199999997,3275.81682 2569.4249999999997,3303.45 C 2618.5450199999996,3293.6008139999994 2707.65414,3217.556802 2683.2,3257.4 C 2727.2978399999997,3277.507224 2820.1841399999994,3252.691302 2815.7999999999997,3258.375 C 2950.5916199999997,3240.7294920000004 3329.97756,3212.427312 3211.7999999999997,3207.6 C 3372.98796,3185.54826 3517.8711599999997,3257.9797019999996 3669.9,3177.975 C 3852.74328,3077.6177279999997 3990.9702600000005,2917.86696 4088.3999999999996,2736.6 C 4161.003119999999,2698.7855399999994 4182.953039999999,2461.26384 4162.8,2539.2 C 4195.3821,2521.5363599999996 4211.35866,2389.3447199999996 4230.3,2328.9 C 4217.35476,2364.1771200000003 4327.98078,2281.67196 4257.0,2258.4 C 4274.78178,2222.772 4165.89744,2068.86066 4219.95,2128.725 C 4207.61688,2070.92862 4032.8203799999997,1891.50234 4103.4,1921.1999999999998 C 4012.3507199999995,1851.3095399999997 3977.0500799999995,1864.3921799999998 4066.7999999999997,1838.3999999999999 C 4133.75328,1835.3082 4176.06378,1816.25238 4198.05,1802.85 C 4273.2575400000005,1833.9505199999999 4584.79326,1762.1842199999999 4496.4,1788.6 C 4503.0842999999995,1824.57198 4466.152499999999,1852.5662999999997 4585.8,1836.0 C 4660.6451400000005,1855.60158 4935.85524,1800.45534 4838.4,1813.8 C 4888.9338,1809.9080999999999 5001.33288,1739.73468 4963.2562800000005,1754.82186 C 4954.51932,1740.65166 5077.1991,1643.05554 5064.0,1668.6 C 5088.9906,1636.71672 5155.328579999999,1537.79046 5142.0,1568.3999999999999 C 5154.22386,1524.87456 5223.98316,1379.62566 5211.0,1433.0249999999999 C 5225.998799999999,1442.955 5274.777120000001,1350.90138 5277.599999999999,1332.6 C 5321.67138,1284.06972 5324.961719999999,1200.6429600000001 5329.8,1200.3 C 5351.74464,1173.57864 5377.06284,1036.09104 5376.0,1079.3999999999999 C 5399.4129,1033.5034799999999 5426.86698,938.6745000000001 5421.0,952.8 C 5411.68782,931.08594 5415.934800000001,814.4963400000001 5422.8,838.8 C 5415.69798,778.4979000000001 5450.41992,677.13996 5441.325,679.275 C 5420.20062,601.6822200000003 5410.353480000001,450.5405999999999 5409.525,521.925 C 5378.1879,451.89240000000024 5367.86364,337.11906 5372.325,385.125 C 5358.63852,319.22976000000017 5342.98398,387.9457200000003 5345.4,331.2 C 5331.3765,261.2377200000001 5303.7181199999995,332.71769999999975 5313.599999999999,337.8 C 5306.54196,314.5701599999999 5285.20116,278.2994400000002 5332.8,268.2 C 5326.458420000001,261.8836200000001 5229.64866,50.43294000000006 5274.0,93.6 C 5298.68586,55.15746000000017 5191.6329,-53.338080000000275 5250.599999999999,13.049999999999999 C 5218.903919999999,-71.2414200000001 5181.15162,-139.24583999999993 5188.2,-133.79999999999998 C 5144.75568,-209.60076000000007 5163.250080000001,-309.7274400000002 5132.4,-225.0 C 5125.65288,-295.39121999999986 5132.67606,-330.97769999999997 5086.8,-271.2 C 5057.67162,-254.97504000000026 4914.40062,-311.3686199999998 4995.0,-325.2 C 4916.681100000001,-355.49226000000016 5006.781059999999,-345.4108199999999 5027.4,-311.4 C 5096.362079999999,-256.25249999999977 5087.039999999999,-295.1785799999998 5041.425,-334.34999999999997 C 5018.16828,-356.30454000000003 4912.306140000001,-444.6548400000001 4965.599999999999,-409.2 C 4939.090499999999,-431.0566200000001 4837.95954,-527.4970199999998 4863.0,-504.0 C 4792.77792,-556.2198000000002 4713.43602,-709.0817999999999 4758.675,-688.875 C 4773.53946,-732.77184 4607.1666000000005,-815.5021199999998 4652.175,-809.025 C 4637.29314,-867.0430799999998 4549.94274,-928.3490999999998 4556.4,-895.1999999999999 C 4489.74162,-936.8449199999999 4429.15092,-955.3411199999999 4437.0,-951.0 C 4343.60418,-1036.70364 4239.93096,-1153.11414 4290.0,-1091.3999999999999 C 4257.96228,-1190.05308 4102.86366,-1133.9311199999997 4041.0,-1137.375 C 4102.05696,-1066.9700999999998 3952.45584,-1158.43278 3985.125,-1142.55 C 3988.60224,-1143.52266 3866.42868,-1231.64928 3897.0,-1209.6 C 3854.9637000000002,-1229.0254199999997 3697.16196,-1221.19236 3764.3999999999996,-1236.6 C 3706.3433999999993,-1203.5809800000002 3831.5275799999995,-1092.4306800000002 3833.3999999999996,-1122.0 C 3896.6539199999997,-1100.17584 4023.1485,-986.8786200000001 3977.85,-1018.425 C 3911.7936,-1010.0256600000002 3666.5339400000003,-925.4928599999997 3744.0,-982.8 C 3656.79186,-930.2235000000002 3592.194,-989.5669199999998 3618.2999999999997,-1032.45 C 3638.57868,-1095.7593599999998 3524.80152,-1046.3220600000002 3606.0,-1098.6 C 3596.6890200000003,-1180.9861799999999 3578.9467799999998,-1215.7770600000001 3567.6,-1176.6 C 3581.62836,-1204.49118 3520.51554,-1282.1232599999996 3523.7999999999997,-1278.6 C 3515.5880399999996,-1313.3883600000004 3500.1197399999996,-1340.4550200000003 3503.4,-1347.6 C 3453.84654,-1367.9955599999996 3416.7468000000003,-1459.8645 3465.0,-1437.6 C 3438.7149600000002,-1445.2580999999993 3381.17832,-1500.2598000000005 3378.0,-1488.6 C 3432.04446,-1542.6257400000002 3349.83882,-1605.0287399999997 3382.2,-1579.8 C 3444.7263,-1462.1540399999997 3274.2837600000003,-1618.0102800000004 3333.0,-1559.3999999999999 C 3348.52668,-1587.1798199999996 3348.15144,-1683.77514 3373.2,-1628.3999999999999 C 3350.79006,-1598.7105599999993 3304.4074199999995,-1878.4282799999996 3321.6,-1747.8 C 3226.1510999999996,-1823.9113199999995 3268.74792,-1787.5704600000004 3282.9,-1764.5249999999999 C 3306.79824,-1721.1731399999999 3210.53652,-1783.9560599999995 3258.0,-1739.3999999999999 C 3264.68742,-1825.1100599999997 3177.6079799999998,-1838.7572999999995 3213.6,-1811.3999999999999 C 3272.3028,-1811.1930000000002 3191.7477,-1945.5937199999996 3205.7999999999997,-1899.0 C 3131.6748599999996,-1973.7149999999997 3117.63732,-2037.8958000000002 3156.225,-1979.1 C 3169.5575999999996,-2006.03502 3032.42952,-2145.4626000000003 3075.0,-2104.7999999999997 C 2970.70932,-2180.73672 2750.08002,-2324.8264199999994 2859.6,-2250.6 C 2807.83848,-2281.22826 2767.4983199999997,-2343.5274000000004 2704.2,-2343.0 M 3723.6,-786.6 C 3702.14784,-760.3649400000003 3660.84438,-685.7105999999999 3741.6,-681.0 C 3700.2963,-675.8929199999999 3704.68812,-731.20602 3706.7999999999997,-754.1999999999999 C 3672.0436799999998,-758.9620800000001 3723.0956999999994,-806.91234 3723.6,-786.5999999999999 M 4033.2,-679.1999999999999 C 4125.27678,-659.2946999999998 4254.69162,-667.2122400000002 4184.4,-675.6 C 4220.082539999999,-669.5121000000001 4417.634099999999,-632.8048199999997 4358.4,-632.4 C 4438.18008,-666.7781400000001 4529.41782,-484.0246199999999 4497.599999999999,-541.5 C 4514.274539999999,-510.6932999999999 4587.13164,-401.9104800000001 4561.5,-423.15 C 4572.76566,-352.33410000000003 4711.22958,-247.0350599999998 4671.0,-284.4 C 4745.3625,-191.40749999999986 4601.4138,68.66682000000003 4628.099999999999,-29.549999999999997 C 4647.35334,56.421239999999855 4888.5036,-28.495800000000227 4834.8,-1.275 C 4896.98388,-41.24021999999986 4946.500260000001,28.229760000000176 4936.2,8.4 C 4981.27932,55.60746000000017 5004.95874,144.93827999999993 4986.525,98.55 C 4986.08796,136.11480000000012 4962.62328,204.8181599999998 5028.375,218.775 C 5037.1497,202.85711999999987 5069.5641,376.9285200000002 5058.0,264.0 C 5126.1437399999995,303.3385199999999 5010.43266,336.7846200000002 5105.4,301.2 C 5083.55184,277.45481999999976 5085.03198,326.96100000000024 5100.0,373.2 C 5102.8197,322.95468000000017 5087.850420000001,483.34056000000015 5067.599999999999,405.0 C 5074.47138,444.9888000000001 5073.51924,541.6202999999999 5076.0,518.4 C 5098.44552,549.72354 5109.272940000001,687.6042599999998 5092.8,643.1999999999999 C 5102.25324,708.6668399999998 5094.49158,820.2387000000002 5096.474999999999,774.375 C 5092.34394,847.5619199999998 5088.023759999999,1013.2883400000001 5088.0,986.4 C 5078.7216,1077.7479 4992.90264,1386.3914399999999 5012.4,1221.0 C 5008.44996,1321.3171200000002 4920.81042,1382.4267 4892.4,1404.0 C 4823.37948,1505.05404 4599.71862,1289.25174 4669.2,1345.8 C 4582.320479999999,1297.8908999999999 4350.890219999999,1190.3665199999998 4435.8,1233.0 C 4343.8062,1213.79862 4238.0133,1119.3649199999998 4143.599999999999,1107.6 C 4169.53422,1162.86324 4108.7546999999995,1133.33334 4115.4,1133.3999999999999 C 4133.1055799999995,1092.207 4065.6588599999995,1232.5809599999998 4036.7999999999997,1185.0 C 4029.1385399999995,1226.76432 3952.9773,1340.4372600000002 4035.0,1338.0 C 3940.54914,1384.64424 3806.75136,1194.5187 3874.2,1201.2 C 3848.78928,1143.5949600000001 3664.71678,961.4544600000002 3711.0,1052.3999999999999 C 3687.6144000000004,990.5301599999999 3686.7072,819.0816599999997 3684.0,875.4 C 3658.43688,818.3230199999998 3681.35976,726.7700400000001 3675.6,783.0 C 3663.44256,707.6170200000003 3702.1902,625.3048199999997 3697.725,592.275 C 3724.0316399999997,669.1311 3700.44792,33.058860000000095 3722.3999999999996,464.4 C 3723.8674199999996,396.58680000000004 3731.318399999999,261.35772 3745.2,306.59999999999997 C 3723.7916999999998,274.5244199999997 3705.8259599999997,182.31983999999989 3738.0,227.4 C 3729.83412,191.53554000000022 3735.63486,100.53041999999989 3747.0,143.4 C 3753.74826,104.00123999999997 3784.2648,-62.534160000000156 3757.7999999999997,3.0 C 3781.4927399999997,-22.47563999999984 3740.7807,-211.8138600000002 3762.0,-150.6 C 3819.64722,-155.17577999999995 3620.16672,-429.20141999999976 3721.7999999999997,-294.0 C 3727.8891,-316.8980999999998 3749.8986,-474.51126 3730.7999999999997,-410.47499999999997 C 3709.7652599999997,-427.3906199999997 3715.1926199999994,-544.61712 3712.7999999999997,-545.4 C 3705.0492,-622.6177799999997 3882.49026,-639.33378 3814.875,-630.75 C 3866.17152,-673.4553000000002 3989.00934,-709.8986399999998 3920.3999999999996,-676.8 C 3942.62274,-674.6294400000002 3997.9923599999997,-675.7985399999999 4033.2,-679.1999999999999 M 4215.0,1749.6 C 4233.6433799999995,1815.71328 4125.31368,1861.20834 4119.0,1822.2 C 4002.5424599999997,1832.9328600000001 4254.2478599999995,1712.6865 4140.599999999999,1754.3999999999999 C 4044.0798599999994,1832.21118 4195.661999999999,1735.16526 4200.599999999999,1746.6 L 4214.999999999999,1749.6" id="path4"/>
	<path d="M 630.0,-714.6 C 573.173706,-649.1718599999998 468.81783600000006,-691.7941200000001 498.59999999999997,-577.1999999999999 C 508.625538,-526.5016800000001 549.71109,-414.9042599999998 548.4,-462.59999999999997 C 578.022744,-412.0029599999998 629.34984,-213.9519599999998 594.6,-291.59999999999997 C 621.44388,-202.7326200000001 572.18595,-234.79961999999995 625.8,-153.6 C 655.04406,12.050099999999844 648.1551,-82.47468000000008 666.0,63.0 C 678.5441999999999,136.02768000000015 761.47296,371.23248000000007 736.1999999999999,294.59999999999997 C 746.7021599999999,349.97741999999977 799.97214,494.6968800000002 786.6,451.05 C 840.65106,519.6871800000001 861.67302,581.9027999999998 907.1999999999999,656.4 C 954.1822799999999,743.7882 1025.70618,872.39922 1014.0,839.4 C 1070.28318,937.4140799999997 1161.25476,1002.5173199999997 1242.0,1069.8 C 1311.7377,1118.0745000000002 1411.15428,1223.3593799999999 1374.675,1177.2749999999999 C 1571.93094,1291.8554399999998 1273.23912,1194.3174 1572.0,1311.0 C 1653.1116000000002,1366.1613 1760.18472,1395.2235 1855.8,1383.6 C 1890.45402,1378.45284 2052.8127,1374.18726 2007.0,1376.3999999999999 C 2093.6868,1325.4357599999998 2286.84462,1111.0463999999997 2211.2999999999997,1200.8999999999999 C 2258.7902999999997,1110.8251200000002 2305.7517,1044.48372 2326.2,937.1999999999999 C 2323.24626,813.5755800000002 2290.9175999999998,771.25908 2321.85,709.425 C 2315.27448,678.2535599999999 2334.02784,617.7703799999999 2319.6,610.1999999999999 C 2314.76496,499.58633999999995 2340.87786,482.83338000000015 2358.6,431.4 C 2391.56466,356.00382000000025 2386.9172999999996,282.10619999999983 2340.0,380.4 C 2300.47488,349.9971599999999 2324.42688,277.43700000000024 2358.2999999999997,290.625 C 2353.5881999999997,206.42831999999999 2321.1386399999997,277.3099799999998 2337.0,278.4 C 2350.22574,292.84823999999986 2328.30714,268.24331999999976 2291.4,288.0 C 2324.4456,253.00589999999974 2321.16312,104.7100800000002 2311.7999999999997,167.4 C 2353.0291799999995,130.67790000000025 2369.6455799999994,346.56054000000023 2392.275,151.88435999999982 C 2390.30514,106.25478000000001 2323.95414,6.598379999999963 2337.075,43.8 C 2356.32894,-102.42455999999983 2128.6061999999997,260.14907999999997 2154.0,190.2 C 2098.03518,286.76610000000016 2049.30078,579.4038599999999 2076.0,434.4 C 2082.67584,490.58070000000004 2098.03272,650.4111600000001 2076.0,614.4 C 2111.71134,676.0117800000002 2142.22518,892.2441599999997 2145.0,816.6 C 2182.1605799999998,919.9388399999998 1950.74898,1052.0230199999999 2023.1999999999998,1010.4 C 1991.0987999999998,1059.03018 1858.7491799999998,1096.1300399999998 1902.6,1094.3999999999999 C 1782.48012,1093.7756399999996 1625.3125199999997,1020.4294799999998 1699.8,1050.6 C 1671.82626,1056.1847399999997 1558.91874,974.1124199999999 1601.3999999999999,993.0 C 1555.99524,942.9124800000002 1477.0567199999998,879.1536599999997 1472.475,862.275 C 1407.2927399999999,793.3352999999997 1311.23742,726.4857599999998 1352.85,779.55 C 1348.2323999999999,655.93734 1170.88884,642.25092 1209.0,657.0 C 1291.69998,618.3835199999997 1068.2116800000001,567.8498400000001 1140.1499999999999,570.4499999999999 C 1136.87772,493.5216 1018.5164999999998,267.55986 1034.7,335.7 C 1029.7407,281.0079599999999 954.12618,154.10538000000014 939.15,184.65 C 895.31238,154.01088000000001 849.3197399999999,29.050740000000246 881.4,73.2 C 836.34426,-25.835340000000002 793.8135,-94.5926999999998 781.1999999999999,-199.79999999999998 C 749.3693999999999,-246.86651999999992 669.6353999999999,-402.6940199999997 702.525,-364.95 C 692.93082,-443.77098 636.43614,-568.63542 659.4,-510.0 C 655.79598,-581.5860000000002 595.469436,-593.9017199999998 651.0749999999999,-636.9 C 635.1119399999999,-679.9090800000001 690.34512,-714.2303999999999 629.9999999999999,-714.5999999999999" id="path6"/>
</svg>
