<?xml version="1.0" encoding="UTF-8" standalone="no"?>
<svg
   version="1.0"
   width="1024.000000pt"
   height="1024.000000pt"
   viewBox="0 0 1024.000000 1024.000000"
   preserveAspectRatio="xMidYMid meet"
   id="svg10"
   sodipodi:docname="ゆ.svg"
   xmlns:inkscape="http://www.inkscape.org/namespaces/inkscape"
   xmlns:sodipodi="http://sodipodi.sourceforge.net/DTD/sodipodi-0.dtd"
   xmlns="http://www.w3.org/2000/svg"
   xmlns:svg="http://www.w3.org/2000/svg">
  <defs
     id="defs14" />
  <sodipodi:namedview
     id="namedview12"
     pagecolor="#ffffff"
     bordercolor="#666666"
     borderopacity="1.0"
     inkscape:pageshadow="2"
     inkscape:pageopacity="0.0"
     inkscape:pagecheckerboard="0"
     inkscape:document-units="pt" />
  <metadata
     id="metadata2">
Created by potrace 1.16, written by Peter Selinger 2001-2019
</metadata>
  <g
     transform="translate(0.000000,1024.000000) scale(0.100000,-0.100000)"
     fill="#000000"
     stroke="none"
     id="g8">
    <path
       d="m 4507,9929 c -25.8278,-111.6757 -161.0218,-130.7934 -0.625,-240.625 83.9371,-100.3356 285.2635,-414.0675 225.625,-282.375 57.0365,-96.4519 275.5351,-282.9186 198,-268 74.4551,-26.8007 97.3212,-81.7884 64,-65 73.7271,-57.8175 240.0204,-218.177 147,-137 24.9052,-67.2224 81.933,-222.4076 80,-144 73.6957,-120.8528 146.212,-296.7072 135,-242 12.5836,-40.9993 100.2429,-186.6858 58,-135 30.1953,-83.223 106.456,-341.7013 89,-268 22.7926,-108.3937 48.3717,-387.4278 54.75,-256.25 -32.0782,-134.7152 177.6778,-516.6689 -72.75,-594.75 -152.8787,-80.8457 -587.3779,-389.7336 -453.375,-305 -99.9173,-52.1799 -220.8452,-113.3019 -180.625,-97 -251.2703,-136.0294 219.1173,152.7761 -237,-110 -101.2993,-52.0013 -402.33,-138.8905 -293,-109 -70.276,-59.589 -221.9099,-121.4285 -193,-73 -49.9516,27.6968 -288.4427,-333.3702 -297,-177 -14.9611,-145.7912 72.5873,7.549 74,0 19.6043,-209.8165 -15.3102,-186.8572 -32,-140 96.9541,-167.2934 138.2119,-184.8795 58.75,-132.25 32.9337,-89.5671 288.0815,81.8885 217.25,73.25 156.5299,96.0944 352.2553,129.1582 498,194 55.5934,-6.8975 226.8231,37.2098 173,38 171.2903,86.5049 398.9721,159.3125 550,197 237.9671,179.6116 8.3227,-143.3933 206,64 98.6957,19.0802 52.8312,-324.2004 30,-233 43.3502,-273.8122 135.0546,-303.9773 95,-263 -102.9767,-110.2852 -59.4456,185.892 -114,163 39.7812,87.5323 -45.8706,59.7991 -51.5,28.5 -191.7493,-62.4774 134.316,-758.3018 134.5,-595.5 -4.6128,-115.8313 -102.1618,-437.7293 -56,-349 -35.2389,-191.3496 -67.0157,-150.8375 -73,-321 -26.772,-195.0308 -119.3835,-710.1086 -73,-539 -4.892,-99.651 -3.8714,-455.6712 -15,-360 58.0723,-227.0752 442.3184,-623.1495 291,-471 121.3662,-171.0793 462.1481,-360.3775 335,-284 114.9102,-78.772 226.5201,-178.3061 361,-162 279.2036,27.8089 239.534,-529.0072 57,-383 41.8136,-29.0977 12.8085,-134.9621 111.125,-59.125 C 6493.2781,2861.6579 6164.02,2472.6872 6245,2600 c -26.7116,-94.9989 387.1879,-513.162 171,-265 128.6285,-104.6451 -73.4821,-238.8137 -92,-292 -66.3426,-97.1824 99.1414,-391.0967 47,-316 6.0699,-125.7884 -228.6285,-400.3895 -78,-336 -96.3668,-26.6277 -299.6569,-243.1299 -219,-185 -95.4128,-70.1979 -462.4299,-92.8927 -306,-93.375 -106.0053,-42.3269 -384.6836,-84.3686 -329.375,-61.875 -49.0113,75.9336 -273.2237,-43.0805 -260.75,-20.25 C 5080.2903,1007.0845 4726.6263,889.99947 4834,914 4745.8208,889.5488 4492.2382,739.50931 4608.5,860.375 4511.7795,862.33717 4253.0101,841.29901 4345,823 4178.2892,799.93506 4234.475,660.76206 4271.75,719.5 c 69.1021,-25.80128 141.4932,-155.1947 10.625,-201.25 81.8667,16.41531 230.3819,143.15533 189.625,76.75 73.4964,-33.51204 228.3069,7.84783 221,-1.625 224.6527,29.40918 856.9626,76.57948 660,84.625 268.6466,36.7529 510.1186,-83.96617 763.5,49.375 304.7388,167.26212 535.1171,433.5134 697.5,735.625 121.0052,63.0241 157.5884,458.8936 124,329 54.3035,29.4394 80.9311,249.7588 112.5,350.5 -21.5754,-58.7952 162.8013,78.7134 44.5,117.5 29.6363,59.38 -151.8376,315.8989 -61.75,216.125 -20.5552,96.3273 -311.8827,395.3711 -194.25,345.875 -151.7488,116.4841 -210.5832,94.6797 -61,138 111.5888,5.153 182.1063,36.9127 218.75,59.25 125.3459,-51.8342 644.5721,67.7763 497.25,23.75 11.1405,-59.9533 -50.4125,-106.6105 149,-79 124.7419,-32.6693 583.4254,59.2411 421,37 84.223,6.4865 271.5548,123.4422 208.0938,98.2969 -14.5616,23.617 189.9047,186.2772 167.9062,143.7031 41.651,53.1388 152.2143,218.0159 130,167 20.3731,72.5424 136.6386,314.6239 115,225.625 24.998,-16.55 106.2952,136.8727 111,167.375 73.4523,80.8838 78.9362,219.9284 87,220.5 36.5744,44.5356 78.7714,273.6816 77,201.5 39.0215,76.4942 84.7783,234.5425 75,211 -15.5203,36.1901 -8.442,230.5061 3,190 -11.8367,100.5035 46.0332,269.4334 30.875,265.875 -35.2073,129.3213 -51.6192,381.224 -53,262.25 -52.2285,116.721 -69.4356,308.0099 -62,228 -22.8108,109.8254 -48.9017,-4.7012 -44.875,89.875 -23.3725,116.6038 -69.4698,-2.5295 -53,-11 -11.7634,38.7164 -47.3314,99.1676 32,116 -10.5693,10.5273 -171.9189,362.9451 -98,291 41.1431,64.0709 -137.2785,244.8968 -39,134.25 -52.8268,140.4857 -115.7473,253.8264 -104,244.75 -72.4072,126.3346 -41.5832,293.2124 -93,152 -11.2452,117.3187 0.4601,176.6295 -76,77 -48.5473,-27.0416 -287.3323,66.9477 -153,90 -130.5315,50.4871 19.6351,33.6847 54,-23 114.9368,-91.9125 99.4,-27.0357 23.375,38.25 -38.7612,36.5909 -215.1981,183.8414 -126.375,124.75 -44.1825,36.4277 -212.7341,197.1617 -171,158 -117.0368,87.033 -249.2733,341.803 -173.875,308.125 24.7741,73.1614 -252.514,211.0452 -177.5,200.25 -24.8031,96.6968 -170.3871,198.8735 -159.625,143.625 -111.0973,69.4082 -212.0818,100.2352 -199,93 -155.6597,142.8394 -328.4484,336.8569 -245,234 -53.3962,164.4218 -311.8939,70.8852 -415,76.625 101.7616,-117.3415 -147.5736,35.0963 -93.125,8.625 5.7954,1.6211 -197.8272,148.4988 -146.875,111.75 -70.0605,32.3757 -333.0634,19.3206 -221,45 -96.761,-55.0317 111.8793,-240.2822 115,-191 105.4232,-36.3736 316.2475,-225.2023 240.75,-172.625 C 6519.656,7707.3761 6110.8899,7566.4881 6240,7662 c -145.3469,-87.6275 -253.01,11.2782 -209.5,82.75 33.7978,105.5156 -155.8308,23.1201 -20.5,110.25 -15.5183,137.3103 -45.0887,195.2951 -64,130 23.3806,46.4853 -78.4741,175.8721 -73,170 -13.6866,57.9806 -39.4671,103.0917 -34,115 -82.5891,33.9926 -144.422,187.1075 -64,150 -43.8084,12.7635 -139.7028,104.433 -145,85 90.0741,90.0429 -46.9353,194.0479 7,152 104.2105,-196.0766 -179.8604,63.6838 -82,-34 25.8778,46.2997 25.2524,207.2919 67,115 -37.3499,-49.4824 -114.6543,416.7138 -86,199 -159.0815,126.8522 -88.0868,66.2841 -64.5,27.875 39.8304,-72.2531 -120.6058,32.3851 -41.5,-41.875 11.1457,142.8501 -133.9867,165.5955 -74,120 97.838,-0.345 -36.4205,223.6562 -13,146 -123.5419,124.525 -146.9378,231.493 -82.625,133.5 22.221,44.8917 -206.3258,277.271 -135.375,209.5 -173.8178,126.5612 -541.5333,366.7107 -359,243 -86.2692,51.0471 -153.5028,154.879 -259,154 z M 6206,7335 c -35.7536,-43.7251 -104.5927,-168.149 30,-176 -68.8395,-8.5118 -61.5198,83.6767 -58,122 -57.9272,7.9368 27.1595,87.8539 28,54 z m 516,-179 c 153.4613,-33.1755 369.1527,-19.9796 252,-6 59.4709,-10.1465 388.7235,-71.3253 290,-72 132.9668,57.2969 285.0297,-247.2923 232,-151.5 27.7909,-51.3445 149.2194,-232.6492 106.5,-197.25 18.7761,-118.0265 249.5493,-293.5249 182.5,-231.25 123.9375,-154.9875 -115.977,-588.4447 -71.5,-424.75 32.0889,-143.2854 434.006,-1.757 344.5,-47.125 103.6398,66.6087 186.1671,-49.1746 169,-16.125 75.1322,-78.6791 114.5979,-227.5638 83.875,-150.25 -0.7284,-62.608 -39.8362,-177.1136 69.75,-200.375 14.6245,26.5298 68.6485,-263.5892 49.375,-75.375 113.5729,-65.5642 -79.2789,-121.3077 79,-62 -36.4136,39.5753 -33.9467,-42.935 -9,-120 4.6995,83.7422 -20.2493,-183.5676 -54,-53 11.4523,-66.648 9.8654,-227.7005 14,-189 37.4092,-52.2059 55.4549,-282.0071 28,-208 15.7554,-109.1114 2.8193,-295.0645 6.125,-218.625 -6.8851,-121.9782 -14.0854,-398.1889 -14.125,-353.375 -15.464,-152.2465 -158.4956,-666.6524 -126,-391 -6.5834,-167.1952 -152.6493,-269.0445 -200,-305 -115.0342,-168.4234 -487.8023,191.2471 -372,97 -144.7992,79.8485 -530.5163,259.0558 -389,188 -153.323,32.0023 -329.6445,189.3918 -487,209 43.2237,-92.1054 -58.0755,-42.8889 -47,-43 29.5093,68.655 -82.9019,-165.3016 -131,-86 -12.7691,-69.6072 -139.7045,-259.0621 -3,-255 -157.4181,-77.7404 -380.4144,239.1355 -268,228 -42.3512,96.0084 -349.1387,399.5759 -272,248 -38.976,103.1164 -40.488,388.8639 -45,295 -42.6052,95.1283 -4.4004,247.7166 -14,154 -20.2624,125.6383 44.317,262.8253 36.875,317.875 43.8444,-128.0935 4.5382,932.0269 41.125,213.125 2.4457,113.022 14.864,338.4038 38,263 -35.6805,53.4593 -65.6234,207.1336 -12,132 -13.6098,59.7741 -3.9419,211.4493 15,140 11.2471,65.6646 62.108,343.2236 18,234 39.4879,42.4594 -28.3655,358.0231 7,256 96.0787,7.6263 -236.3888,464.3357 -67,239 10.1485,38.1635 46.831,300.8521 15,194.125 -35.0579,28.1927 -26.0123,223.5702 -30,224.875 -12.918,128.6963 282.8171,156.5563 170.125,142.25 85.4942,71.1755 290.2239,131.9144 175.875,76.75 37.0379,-3.6176 129.3206,-1.6691 188,4 z m 303,-4048 c 31.0723,-110.1888 -149.4772,-186.0139 -160,-121 -194.0959,-17.8881 225.4131,182.5225 36,113 -160.8669,-129.6853 91.77,32.0579 100,13 z"
       id="path4" />
    <path
       d="m 1050,7215 c -94.71049,-109.0469 -268.63694,-38.0098 -219,-229 16.70923,-84.4972 85.18515,-270.4929 83,-191 49.37124,-84.3284 134.9164,-414.4134 77,-285 44.7398,-148.1123 -37.35675,-94.6673 52,-230 48.7401,-276.0835 37.2585,-118.5422 67,-361 20.907,-121.7128 159.1216,-513.7208 117,-386 17.5036,-92.2957 106.2869,-333.4948 84,-260.75 90.0851,-114.3953 125.1217,-218.088 201,-342.25 78.3038,-145.647 197.5103,-359.9987 178,-305 93.8053,-163.3568 245.4246,-271.8622 380,-384 116.2295,-80.4575 281.9238,-255.9323 221.125,-179.125 C 2619.8849,3870.9076 2122.0652,4033.471 2620,3839 c 135.186,-91.9355 313.6412,-140.3725 473,-121 57.7567,8.5786 328.3545,15.6879 252,12 144.478,84.9404 466.4077,442.256 340.5,292.5 79.1505,150.1248 157.4195,260.6938 191.5,439.5 -4.9229,206.0407 -58.804,276.5682 -7.25,379.625 -10.9592,51.9524 20.2964,152.7577 -3.75,165.375 -8.0584,184.3561 35.4631,212.2777 65,298 54.9411,125.6603 47.1955,248.823 -31,85 -65.8752,50.6714 -25.9552,171.605 30.5,149.625 -7.853,140.3278 -61.9356,22.1917 -35.5,20.375 22.0429,-24.0804 -14.4881,16.9278 -76,-16 55.076,58.3235 49.6052,305.4832 34,201 68.7153,61.2035 96.4093,-298.6009 134.125,25.8594 -3.2831,76.0493 -113.8681,242.1433 -92,180.1406 32.0899,243.7076 -347.448,-360.5818 -305.125,-244 -93.2747,-160.9435 -174.4987,-648.6731 -130,-407 11.1264,-93.6345 36.7212,-360.0186 0,-300 59.5189,-102.6863 110.3753,-463.0736 115,-337 61.9343,-172.2314 -323.7517,-392.3717 -203,-323 -53.502,-81.0503 -274.0847,-142.8834 -201,-140 -200.1998,1.0406 -462.1458,123.2842 -338,73 -46.6229,-9.3079 -234.8021,127.4793 -164,96 -75.6746,83.4792 -207.2388,189.7439 -214.875,217.875 -108.6371,114.8995 -268.7293,226.3154 -199.375,137.875 -7.696,206.0211 -303.2686,228.8318 -239.75,204.25 137.8333,64.3608 -234.6472,148.5836 -114.75,144.25 -5.4538,128.214 -202.7225,504.8169 -175.75,391.25 -8.2655,91.1534 -134.2897,302.6577 -159.25,251.75 -73.0627,51.0652 -149.7171,259.3321 -96.25,185.75 -75.0929,165.0589 -145.9775,279.6545 -167,455 -53.051,78.4442 -185.941,338.1567 -131.125,275.25 -15.9903,131.3683 -110.1481,339.4757 -71.875,241.75 -6.0067,119.31 -106.55094,139.8362 -13.875,211.5 -26.6051,71.6818 65.4502,128.884 -35.125,129.5 z"
       id="path6" />
  </g>
</svg>
