<?xml version="1.0" standalone="no"?>
<!DOCTYPE svg PUBLIC "-//W3C//DTD SVG 20010904//EN"
 "http://www.w3.org/TR/2001/REC-SVG-20010904/DTD/svg10.dtd">
<svg version="1.0" xmlns="http://www.w3.org/2000/svg"
 width="1024.000000pt" height="1024.000000pt" viewBox="0 0 1024.000000 1024.000000"
 preserveAspectRatio="xMidYMid meet">
<metadata>
Created by potrace 1.16, written by Peter Selinger 2001-2019
</metadata>
<g transform="translate(0.000000,1024.000000) scale(0.100000,-0.100000)"
fill="#000000" stroke="none">
<path d="M4507 9929 c-9 -6 -17 -17 -17 -24 0 -8 -5 -15 -11 -15 -8 0 -7 -5 2
-16 11 -14 11 -18 -4 -29 -9 -6 -13 -16 -9 -20 4 -5 1 -5 -6 -1 -7 4 -10 13
-6 19 3 7 -2 3 -11 -8 -9 -11 -20 -19 -24 -18 -4 1 -8 -5 -8 -13 0 -7 4 -14 9
-14 5 0 6 -4 3 -10 -3 -5 -1 -10 6 -10 7 0 9 -3 6 -6 -3 -4 7 -19 23 -34 16
-15 26 -31 22 -36 -4 -5 -3 -6 2 -2 13 11 37 -12 29 -26 -3 -6 -3 -8 1 -4 10
8 47 -23 40 -34 -3 -4 2 -8 10 -8 9 0 16 -5 16 -11 0 -5 5 -7 12 -3 7 5 9 2 5
-9 -4 -10 0 -18 12 -22 11 -3 26 -20 35 -38 8 -18 16 -25 16 -17 0 13 2 13 9
0 6 -8 8 -17 6 -21 -3 -3 5 -15 15 -27 11 -12 20 -28 20 -36 0 -8 10 -22 22
-30 12 -9 19 -16 14 -16 -5 0 -3 -7 4 -15 6 -8 8 -20 4 -26 -4 -8 -3 -9 4 -5
11 7 14 3 16 -26 1 -7 13 -26 29 -42 15 -17 27 -37 27 -44 0 -8 6 -12 15 -8 8
3 15 1 15 -4 0 -6 -6 -10 -12 -10 -8 -1 -6 -6 5 -14 9 -7 17 -21 17 -30 0 -9
7 -16 16 -16 8 0 12 -4 9 -10 -3 -5 0 -10 7 -10 8 0 19 5 26 10 9 7 9 7 2 -2
-5 -7 -10 -16 -10 -20 0 -10 27 -11 33 0 2 4 2 1 0 -6 -1 -8 3 -12 9 -9 7 2
12 11 12 20 -1 9 3 14 8 11 5 -3 7 -13 4 -21 -4 -11 -2 -13 9 -9 8 3 15 0 15
-5 0 -6 -9 -9 -20 -6 -11 3 -20 1 -20 -5 0 -5 -6 -6 -12 -2 -8 4 -10 3 -5 -2
5 -5 14 -9 20 -9 7 -1 11 -7 9 -14 -1 -7 2 -10 8 -6 6 3 8 12 4 18 -3 7 1 3
10 -7 8 -10 13 -23 9 -29 -4 -6 -1 -7 8 -2 19 12 49 14 43 3 -4 -5 -12 -7 -20
-4 -8 3 -14 1 -14 -4 0 -9 14 -14 33 -11 4 0 7 -9 7 -22 0 -18 2 -19 10 -7 8
13 10 12 10 -4 0 -12 5 -16 16 -12 9 3 12 2 9 -5 -8 -12 14 -41 26 -33 5 3 9
1 9 -5 0 -5 -6 -12 -12 -15 -7 -4 -2 -4 10 -2 13 3 21 2 18 -1 -3 -4 0 -13 7
-22 10 -14 10 -14 -3 -6 -10 6 -9 4 2 -6 9 -9 14 -20 10 -25 -4 -5 0 -3 10 4
12 10 18 10 24 1 4 -7 3 -9 -3 -6 -6 4 -13 0 -17 -8 -6 -16 9 -29 22 -21 5 3
9 -1 9 -9 0 -8 -4 -12 -9 -9 -5 4 -4 -3 3 -14 7 -12 17 -18 21 -16 4 3 9 -2 9
-10 4 -41 19 -76 34 -76 8 0 11 -7 8 -21 -5 -18 -3 -20 18 -14 17 4 20 3 10
-3 -11 -8 -11 -16 -3 -40 6 -17 8 -33 5 -35 -3 -3 3 -4 14 -2 10 1 17 8 15 15
-1 6 2 8 8 5 8 -5 6 -13 -6 -26 -16 -18 -16 -19 2 -19 16 0 17 -2 4 -10 -8 -5
-10 -10 -4 -10 7 0 15 -7 18 -16 5 -14 4 -15 -9 -4 -13 11 -14 10 -9 -4 3 -9
12 -16 20 -16 8 0 14 -5 14 -11 0 -5 -4 -8 -8 -5 -5 3 -9 -1 -9 -9 0 -8 3 -12
7 -10 3 2 12 0 20 -6 10 -6 11 -9 3 -9 -7 0 -13 -5 -13 -11 0 -6 7 -9 14 -6
10 4 13 1 10 -8 -3 -8 -2 -20 2 -27 5 -7 9 -17 10 -23 0 -5 2 -16 2 -24 2 -11
5 -11 19 0 15 13 15 12 6 -6 -12 -24 -6 -48 10 -38 7 4 6 -1 -2 -10 -8 -10 -9
-17 -3 -17 6 0 11 -8 11 -17 1 -38 5 -52 12 -48 4 3 10 -2 13 -11 4 -10 2 -13
-7 -8 -6 4 -2 -3 11 -15 27 -26 28 -33 5 -24 -15 6 -16 4 -6 -9 7 -8 14 -27
15 -42 1 -14 8 -26 14 -26 7 0 15 -7 18 -16 10 -26 7 -29 -9 -8 -14 18 -14 18
-8 -3 3 -13 10 -23 15 -23 5 0 6 -5 3 -10 -4 -6 -1 -18 7 -27 11 -14 11 -16
-2 -8 -8 4 -4 -5 10 -21 14 -15 18 -23 10 -17 -13 9 -15 6 -15 -22 0 -26 3
-31 13 -23 9 8 11 7 6 -6 -8 -20 -11 -135 -4 -131 3 2 6 -23 7 -56 1 -32 5
-64 9 -71 4 -6 7 -30 7 -52 0 -23 4 -44 10 -48 7 -4 7 -11 -2 -21 -8 -11 -9
-17 -1 -22 6 -4 9 -12 7 -18 -2 -7 0 -20 5 -29 5 -11 5 -18 0 -18 -5 0 -7 -10
-5 -23 4 -21 -57 -93 -70 -81 -2 3 -26 -7 -52 -20 -26 -14 -52 -23 -58 -19 -5
3 -7 2 -4 -4 3 -5 -3 -17 -14 -26 -10 -9 -19 -13 -19 -9 0 4 -4 2 -8 -3 -4 -6
-28 -24 -54 -40 -27 -17 -48 -34 -48 -38 0 -5 -5 -5 -10 -2 -6 3 -13 -1 -16
-10 -4 -9 -13 -14 -20 -11 -8 3 -14 2 -14 -3 0 -4 -25 -25 -55 -45 -30 -21
-52 -43 -48 -49 4 -6 1 -7 -6 -3 -7 5 -21 0 -31 -9 -10 -9 -24 -14 -31 -9 -7
4 -10 3 -5 -4 8 -13 -28 -35 -39 -24 -5 4 -4 1 0 -7 6 -11 4 -13 -8 -8 -10 3
-17 2 -17 -3 0 -6 -7 -10 -16 -10 -10 0 -14 -5 -10 -15 5 -13 2 -14 -15 -4
-12 6 -19 7 -15 1 3 -5 -4 -12 -15 -15 -14 -4 -18 -10 -13 -19 6 -11 5 -11 -8
0 -13 10 -17 10 -22 -3 -3 -9 -10 -14 -15 -11 -5 3 -12 -2 -15 -11 -6 -15 -8
-15 -16 -3 -9 14 -15 5 -12 -21 1 -3 -5 -6 -13 -6 -8 0 -11 5 -8 11 4 5 -9 -1
-27 -14 -19 -13 -30 -18 -26 -9 6 11 4 11 -6 -1 -7 -9 -23 -15 -36 -14 -16 1
-21 -3 -18 -13 3 -8 2 -11 -3 -8 -5 3 -12 1 -16 -5 -4 -6 -11 -8 -16 -5 -5 4
-9 1 -9 -5 0 -7 -7 -9 -16 -6 -8 3 -12 2 -9 -4 3 -6 -3 -10 -14 -10 -12 0 -21
-4 -21 -9 0 -5 -8 -11 -17 -15 -10 -3 -25 -9 -33 -12 -13 -5 -13 -4 0 5 9 7
10 11 3 11 -6 0 -15 -4 -18 -10 -3 -5 -15 -10 -26 -10 -10 0 -19 -5 -19 -11 0
-6 -6 -9 -14 -6 -8 3 -17 3 -20 -1 -4 -3 -16 -7 -28 -9 -25 -4 -39 -22 -32
-38 3 -5 -2 -1 -10 9 -9 11 -16 15 -16 8 0 -6 -9 -9 -19 -7 -14 2 -18 -1 -15
-10 4 -9 -2 -13 -20 -11 -14 2 -26 -1 -26 -6 0 -5 -5 -6 -10 -3 -6 4 -17 1
-25 -5 -8 -6 -19 -9 -25 -5 -5 3 -10 -2 -11 -12 0 -16 -1 -16 -9 2 -5 11 -9
14 -9 6 -1 -11 -4 -11 -16 -1 -13 11 -14 10 -9 -4 4 -11 2 -16 -7 -14 -8 2
-13 -3 -11 -10 1 -8 -2 -11 -7 -7 -6 3 -7 13 -4 23 5 14 3 15 -8 5 -7 -7 -23
-13 -35 -13 -12 0 -25 -6 -27 -12 -3 -7 -6 -8 -6 -2 -1 15 -61 4 -68 -12 -3
-8 -9 -14 -15 -14 -5 0 -7 4 -4 9 4 5 -5 4 -19 -2 -14 -7 -25 -16 -25 -20 0
-5 -4 -6 -9 -2 -13 7 -51 -34 -51 -56 0 -10 -4 -20 -9 -23 -5 -3 -11 -17 -13
-31 -3 -13 -2 -22 3 -20 10 7 6 -46 -5 -64 -6 -10 -5 -12 2 -7 7 4 12 2 12 -4
0 -6 11 -3 24 7 13 10 22 22 19 26 -3 5 -13 1 -24 -8 -17 -17 -18 -16 -13 11
7 38 13 42 29 21 7 -10 15 -14 17 -10 3 4 4 3 2 -3 -1 -6 9 -11 22 -11 24 0
24 0 7 21 l-18 21 23 -20 c21 -18 22 -20 7 -31 -9 -7 -24 -10 -33 -6 -15 5
-15 4 -3 -11 11 -14 11 -18 -3 -23 -9 -3 -13 -10 -10 -15 3 -5 0 -9 -5 -9 -17
0 -13 18 5 28 13 7 14 11 4 17 -8 5 -18 2 -25 -8 -7 -10 -18 -17 -24 -17 -7 0
1 -12 16 -26 15 -14 22 -23 16 -19 -7 3 -13 2 -13 -3 0 -13 35 -43 43 -37 4 3
3 -1 -3 -7 -16 -19 -12 -32 5 -18 9 7 18 10 22 6 3 -3 1 -6 -5 -6 -7 0 -12 -7
-12 -16 0 -8 -4 -13 -9 -9 -5 3 -12 1 -16 -5 -4 -6 -11 -7 -17 -4 -7 4 -8 2
-4 -5 6 -8 12 -9 20 -2 17 14 29 2 15 -15 -8 -9 -4 -12 15 -10 18 2 23 -1 19
-13 -4 -9 -2 -13 2 -8 5 4 17 -1 27 -10 18 -16 18 -16 12 2 -5 13 -4 16 4 11
7 -4 12 -2 12 5 0 6 8 9 20 6 11 -3 20 -1 20 4 0 5 6 9 14 9 8 0 17 7 20 16 3
8 10 13 15 10 5 -3 11 1 15 9 3 8 13 15 21 15 10 0 13 5 9 12 -5 7 -3 8 6 3 7
-4 15 -4 19 1 14 21 61 45 61 32 1 -8 7 -5 15 6 8 11 15 16 15 11 0 -5 5 -4
11 2 6 6 18 9 25 6 8 -3 16 1 19 9 3 7 18 15 33 16 15 1 29 7 30 12 2 6 8 8
13 4 5 -3 9 -1 9 4 0 5 7 9 15 10 8 1 22 3 30 4 8 1 15 5 15 10 0 5 5 6 10 3
6 -4 17 -1 25 5 8 7 15 9 15 5 0 -4 12 0 26 10 15 9 23 12 19 5 -6 -9 -3 -9
14 -1 12 7 27 9 33 5 7 -4 8 -3 4 4 -7 11 -3 13 37 16 6 1 18 8 24 16 11 13
14 13 22 0 9 -13 12 -12 25 5 11 14 15 16 16 6 0 -11 4 -10 16 5 8 10 13 13 9
7 -7 -15 11 -18 20 -3 4 6 11 8 16 5 5 -4 9 -1 9 5 0 6 5 8 10 5 6 -3 10 0 10
7 0 9 3 9 10 -2 7 -11 10 -11 10 -2 0 7 5 10 10 7 6 -3 10 -1 10 4 0 6 3 10 8
9 13 -4 82 26 82 35 0 5 6 7 13 4 6 -2 27 5 45 15 18 10 37 16 43 13 5 -4 9
-2 9 3 0 5 6 9 14 9 13 0 72 24 110 44 11 7 16 7 12 1 -4 -6 6 -6 24 1 16 6
30 14 30 18 0 3 11 4 25 1 18 -3 30 1 39 13 9 13 15 15 20 6 4 -6 12 -9 17 -5
5 3 6 11 2 17 -4 7 0 6 10 -2 12 -9 17 -10 17 -2 0 7 5 9 10 6 6 -3 13 1 16 9
3 9 10 13 15 10 5 -3 9 5 9 18 0 13 4 18 8 13 9 -13 37 -11 76 4 16 6 31 9 34
6 3 -3 0 -5 -6 -5 -7 0 -12 -7 -12 -15 0 -9 -11 -20 -25 -25 -14 -5 -25 -12
-25 -14 0 -3 8 -2 18 1 15 6 16 5 2 -12 -15 -19 -14 -19 12 -3 27 18 84 71 80
76 -1 1 1 2 4 1 4 0 10 4 14 10 3 7 14 9 24 5 12 -5 14 -10 6 -19 -8 -10 -8
-15 1 -20 8 -6 7 -10 -2 -16 -12 -7 -11 -9 1 -9 12 -1 12 -3 -2 -13 -14 -11
-15 -20 -8 -52 5 -24 5 -44 0 -51 -6 -6 -7 -14 -3 -18 11 -11 14 -48 3 -41 -6
3 -7 -1 -4 -9 3 -9 9 -14 13 -12 3 2 7 -6 7 -17 2 -28 12 -68 19 -75 3 -3 -2
-16 -11 -30 -9 -13 -11 -22 -6 -18 6 3 13 2 17 -4 3 -5 0 -10 -7 -10 -10 0
-10 -2 1 -9 9 -6 11 -17 6 -32 -7 -23 -7 -23 8 -4 17 22 19 2 3 -24 -6 -10 -5
-12 2 -7 7 4 12 2 12 -3 0 -6 7 -11 15 -11 8 0 15 -3 16 -7 0 -5 2 -15 4 -24
4 -22 -37 -19 -61 6 -17 17 -17 18 -1 12 9 -3 17 -3 17 2 0 5 -10 11 -21 14
-15 4 -20 11 -16 21 4 9 3 16 -2 16 -4 0 -8 6 -9 13 -7 55 -5 72 6 70 7 -2 12
2 12 7 0 12 -6 13 -29 0 -16 -8 -18 -5 -14 26 3 27 1 34 -9 28 -9 -5 -9 -3 1
10 8 9 20 15 27 12 8 -3 11 0 7 10 -4 11 -9 12 -16 5 -15 -15 -30 -14 -21 2 4
6 -2 4 -13 -6 -11 -9 -23 -14 -28 -10 -4 5 -5 2 -1 -5 6 -10 11 -11 24 0 14
10 15 10 5 -2 -16 -17 -43 -22 -43 -7 0 8 -3 8 -11 0 -6 -6 -17 -9 -24 -6 -9
3 -13 -3 -11 -21 2 -14 -1 -26 -6 -26 -5 0 -6 -10 -3 -21 4 -12 8 -27 9 -33 6
-29 21 -62 57 -121 21 -36 41 -73 43 -82 1 -10 8 -31 15 -46 6 -16 9 -33 5
-38 -3 -5 -1 -9 3 -9 8 0 13 -21 15 -60 0 -8 5 -20 9 -26 8 -10 16 -47 21 -91
1 -7 7 -13 15 -13 7 0 13 -5 13 -11 0 -5 -5 -7 -12 -3 -7 4 -8 3 -4 -4 13 -22
27 -102 17 -102 -3 0 -6 -24 -7 -53 0 -36 -4 -51 -13 -49 -9 2 -9 -3 -2 -17 8
-15 7 -20 -5 -25 -12 -5 -13 -10 -3 -27 6 -13 7 -19 1 -15 -6 3 -13 2 -16 -3
-4 -5 -1 -13 5 -17 9 -5 7 -11 -6 -21 -11 -7 -15 -13 -11 -13 5 0 3 -7 -4 -15
-6 -8 -9 -19 -5 -25 3 -5 0 -10 -7 -10 -10 0 -10 -2 1 -9 9 -6 10 -11 2 -15
-6 -4 -9 -12 -6 -17 4 -5 2 -9 -3 -9 -6 0 -8 -10 -4 -22 3 -13 1 -19 -6 -15
-6 4 -9 0 -7 -10 1 -10 0 -22 -3 -28 -5 -8 -12 -42 -14 -72 -1 -7 -5 -13 -10
-13 -5 0 -6 -5 -3 -10 4 -6 1 -18 -6 -26 -10 -13 -10 -17 2 -25 8 -5 9 -9 3
-9 -7 0 -10 -14 -8 -35 1 -19 -1 -37 -5 -39 -4 -3 -7 -24 -6 -48 1 -24 -2 -49
-8 -55 -6 -9 -6 -13 2 -13 8 0 9 -6 3 -17 -5 -10 -8 -31 -7 -46 1 -15 -2 -30
-7 -33 -4 -3 -6 -9 -3 -13 2 -5 0 -22 -4 -39 -6 -20 -5 -34 2 -42 9 -10 9 -11
0 -6 -12 7 -14 3 -18 -44 0 -8 -3 -20 -7 -25 -3 -6 -5 -25 -4 -43 0 -17 -2
-32 -6 -32 -5 0 -8 -5 -8 -11 0 -5 4 -8 8 -5 4 2 8 -4 8 -14 0 -10 -3 -17 -7
-14 -10 6 -21 -28 -12 -35 11 -9 15 -34 4 -27 -5 3 -9 -28 -9 -74 0 -43 -3
-84 -6 -89 -3 -5 0 -12 6 -14 10 -4 9 -8 -2 -16 -12 -8 -12 -11 -1 -11 11 0
11 -3 1 -15 -7 -9 -8 -15 -2 -15 5 0 8 -9 5 -20 -3 -12 0 -20 7 -20 6 0 9 -8
5 -19 -3 -10 1 -23 8 -29 8 -7 19 -30 25 -52 7 -22 17 -58 23 -80 7 -21 16
-37 20 -34 5 3 9 -2 9 -10 0 -9 5 -16 11 -16 5 0 7 -4 4 -10 -3 -5 2 -10 12
-10 15 0 16 -2 3 -10 -13 -8 -12 -10 3 -10 10 0 21 -8 24 -17 8 -21 63 -79 63
-67 1 5 7 -3 15 -18 8 -14 34 -45 59 -69 24 -24 42 -49 39 -56 -3 -8 -2 -13 3
-12 21 4 34 -2 34 -14 0 -17 39 -49 51 -42 5 4 9 3 8 -2 -3 -20 2 -34 11 -28
6 3 10 2 10 -2 0 -5 14 -17 30 -27 17 -9 27 -22 24 -28 -4 -7 -2 -8 4 -4 7 4
12 2 12 -4 0 -6 4 -9 9 -6 5 3 12 -1 15 -10 3 -8 10 -12 16 -9 5 3 21 -6 34
-20 14 -15 30 -24 35 -20 6 3 11 -1 11 -9 0 -9 3 -15 8 -14 15 5 72 -27 72
-40 0 -7 4 -11 8 -8 5 3 14 -4 22 -14 8 -10 17 -17 22 -14 4 3 8 1 8 -5 0 -10
38 -27 53 -23 4 1 7 -3 7 -9 0 -6 7 -9 15 -5 8 3 19 -2 24 -12 7 -12 10 -13
11 -3 0 8 6 11 18 6 9 -4 22 -8 29 -9 7 -1 16 -5 19 -9 4 -4 13 -2 21 4 7 6
13 7 13 2 0 -5 10 -9 23 -8 12 1 28 -3 36 -9 12 -9 13 -8 6 4 -7 12 -3 11 18
-3 18 -12 27 -14 27 -5 0 9 3 9 11 1 12 -12 -34 -110 -59 -126 -26 -17 -71
-98 -65 -120 2 -12 5 -28 5 -34 1 -7 5 -13 10 -13 4 0 7 -3 6 -8 -3 -15 26
-62 39 -62 7 0 13 -5 13 -11 0 -8 6 -7 17 2 14 12 15 12 9 1 -7 -11 -4 -12 13
-3 14 8 21 8 21 1 0 -5 5 -10 11 -10 5 0 8 4 5 8 -3 5 1 9 9 9 8 0 15 -4 15
-9 0 -4 5 -8 11 -8 5 0 7 6 3 13 -4 6 2 3 14 -7 28 -24 27 -25 -3 -21 -17 1
-25 -3 -25 -14 0 -13 -2 -13 -9 -3 -7 11 -9 11 -14 -2 -4 -9 -10 -16 -14 -15
-20 3 -34 -2 -28 -11 3 -5 2 -10 -4 -10 -6 0 -18 -8 -28 -19 -10 -10 -42 -31
-70 -46 -29 -15 -50 -31 -47 -36 3 -5 -3 -6 -12 -2 -12 4 -15 3 -10 -5 4 -7 2
-12 -4 -12 -14 0 -40 -25 -40 -39 0 -6 -5 -10 -11 -9 -14 4 -81 -80 -74 -92 3
-5 0 -12 -6 -15 -5 -4 -8 -13 -5 -20 3 -8 0 -15 -6 -17 -5 -2 -2 -10 8 -18 16
-13 17 -13 9 0 -5 8 4 5 19 -8 16 -12 32 -19 37 -16 5 3 6 -1 3 -9 -3 -8 0
-18 5 -22 6 -3 9 -11 5 -16 -3 -5 -2 -8 3 -7 4 2 9 -1 10 -5 1 -5 11 -17 22
-26 11 -10 18 -21 14 -25 -3 -3 1 -6 10 -6 10 0 17 -8 17 -20 0 -12 7 -20 16
-20 10 0 14 -6 10 -15 -3 -8 -2 -14 2 -13 14 3 47 -16 56 -31 12 -20 15 -51 5
-51 -4 0 -10 -9 -14 -19 -3 -11 -12 -18 -19 -15 -7 3 -21 -7 -32 -21 -10 -14
-25 -25 -32 -25 -7 0 -10 -4 -7 -10 3 -5 -1 -10 -10 -10 -9 0 -14 -4 -10 -9 3
-6 -4 -15 -15 -21 -11 -6 -19 -15 -17 -20 1 -5 -7 -16 -18 -25 -16 -13 -17
-16 -3 -11 10 3 20 0 24 -6 4 -6 3 -8 -2 -5 -16 10 -34 -8 -34 -34 0 -40 3
-59 10 -59 4 0 6 -14 5 -30 -1 -17 2 -33 7 -36 6 -4 5 -10 -3 -16 -10 -7 -11
-11 -3 -14 7 -3 9 -14 6 -26 -3 -14 -1 -19 6 -14 11 7 17 -6 13 -27 -1 -5 3
-6 9 -2 9 6 14 -8 11 -28 -1 -5 3 -6 9 -2 9 6 14 -8 11 -28 -1 -4 3 -17 9 -27
8 -15 8 -20 -1 -20 -7 0 -8 -5 -3 -12 11 -16 11 -39 1 -55 -5 -7 -5 -13 0 -13
4 0 8 -19 8 -43 0 -23 4 -48 10 -56 8 -12 6 -13 -6 -9 -13 5 -16 2 -12 -13 3
-11 0 -19 -6 -19 -7 0 -9 -5 -6 -10 3 -6 2 -10 -4 -10 -5 0 -12 -9 -16 -19 -3
-11 -12 -18 -18 -15 -7 2 -22 -4 -34 -15 -15 -14 -23 -17 -26 -8 -3 7 -6 4 -6
-6 -1 -9 -4 -16 -8 -16 -20 3 -34 -2 -29 -10 7 -11 -22 -23 -35 -15 -5 3 -9 2
-8 -3 3 -20 -2 -34 -11 -28 -5 3 -10 -1 -10 -10 0 -8 -7 -18 -15 -21 -8 -4
-12 -10 -9 -15 3 -5 -2 -9 -10 -9 -14 0 -20 -11 -17 -32 0 -4 -6 -5 -14 -2 -8
4 -17 -1 -21 -10 -3 -9 -13 -16 -20 -16 -8 0 -17 -7 -20 -15 -5 -13 -9 -13
-22 -3 -12 10 -14 10 -8 0 4 -7 1 -15 -8 -18 -9 -3 -14 -10 -11 -14 3 -5 0
-12 -6 -16 -8 -4 -9 -3 -5 4 4 7 2 12 -4 12 -6 0 -8 6 -5 13 4 6 1 5 -7 -3 -7
-8 -26 -16 -43 -18 -16 -2 -38 -4 -47 -5 -10 -1 -18 -8 -18 -15 0 -10 -4 -11
-12 -6 -11 8 -121 9 -164 2 -6 -1 -10 -11 -8 -22 3 -12 1 -15 -2 -8 -5 10 -9
10 -20 1 -10 -8 -14 -8 -14 0 0 7 -8 8 -24 1 -13 -5 -27 -6 -30 -3 -3 4 -6 2
-6 -4 0 -6 -7 -14 -16 -17 -8 -3 -12 -2 -9 4 6 10 -47 6 -64 -4 -5 -4 -13 -1
-17 5 -4 7 -3 9 4 5 6 -3 13 -2 16 3 4 5 -2 8 -11 7 -9 -2 -19 -8 -21 -14 -6
-18 -22 -14 -23 6 0 14 -2 14 -9 -3 -5 -11 -9 -14 -9 -6 -1 9 -9 11 -27 7 -14
-4 -32 -2 -39 4 -9 8 -15 8 -20 0 -3 -6 -11 -8 -16 -4 -5 3 -16 0 -24 -6 -8
-7 -15 -8 -15 -3 0 22 -44 5 -53 -20 -5 -15 -14 -27 -20 -27 -8 0 -7 4 1 12 7
7 12 16 12 22 0 6 -5 5 -12 -2 -14 -14 -32 -16 -23 -2 3 6 -1 7 -9 4 -9 -3
-16 -10 -16 -16 0 -5 -4 -7 -9 -3 -5 3 -16 -1 -24 -9 -8 -8 -17 -12 -21 -9 -3
4 -6 1 -6 -6 0 -7 -4 -9 -10 -6 -5 3 -10 2 -10 -3 0 -5 -6 -9 -12 -10 -19 -1
-39 -7 -71 -21 -16 -6 -33 -9 -38 -5 -5 3 -12 -2 -15 -10 -3 -9 -10 -16 -16
-16 -5 0 -6 5 -2 12 4 6 -3 4 -15 -5 -13 -8 -30 -13 -37 -10 -8 3 -14 0 -14
-7 0 -7 -7 -10 -16 -6 -10 4 -22 -1 -31 -11 -8 -10 -12 -13 -9 -7 7 15 -21 27
-29 13 -4 -5 -11 -7 -16 -3 -6 3 -5 -3 3 -15 10 -17 10 -23 0 -33 -11 -11 -12
-10 -6 6 4 11 2 21 -6 26 -17 11 -90 2 -109 -13 -12 -10 -13 -9 -7 2 6 9 5 12
-5 9 -8 -3 -13 -12 -11 -19 3 -11 1 -11 -8 -3 -12 12 -50 7 -50 -6 0 -4 -7
-11 -16 -14 -8 -3 -12 -2 -9 4 3 6 1 10 -4 10 -6 0 -11 -7 -11 -16 0 -12 -3
-14 -13 -6 -12 10 -53 -9 -42 -20 3 -2 -5 -4 -18 -3 -13 2 -21 8 -19 16 2 9
-3 7 -16 -5 -19 -17 -21 -17 -31 1 -7 11 -11 13 -11 4 0 -7 -6 -11 -15 -8 -8
4 -17 1 -21 -5 -4 -6 -9 -6 -13 -1 -8 12 -71 -4 -71 -18 0 -6 4 -7 10 -4 6 3
7 -1 4 -9 -3 -9 -2 -16 4 -16 6 0 12 6 15 13 2 6 8 9 12 4 5 -4 0 -13 -10 -21
-14 -10 -15 -15 -5 -21 9 -6 11 -4 5 5 -5 9 -4 11 4 6 9 -6 9 -11 0 -23 -10
-12 -10 -16 2 -24 12 -7 12 -9 0 -9 -11 0 -10 -4 4 -13 17 -14 17 -15 -2 -34
-10 -10 -17 -25 -15 -33 3 -8 0 -10 -8 -5 -8 5 -11 4 -7 -2 4 -6 -1 -21 -11
-34 -26 -35 -16 -84 18 -84 16 1 24 6 22 15 -3 11 0 11 12 0 11 -8 16 -9 16
-1 0 6 7 11 16 11 9 0 12 5 8 13 -5 8 -3 8 9 -2 14 -11 18 -11 23 3 5 14 9 14
22 4 13 -11 14 -11 7 1 -6 11 -3 13 13 9 13 -4 23 0 27 10 5 13 8 14 14 3 7
-11 11 -9 20 6 5 11 7 24 3 28 -4 5 -1 5 6 1 7 -5 11 -15 8 -25 -5 -12 -2 -11
9 3 9 12 15 15 15 7 0 -10 3 -11 13 -2 8 6 17 8 20 4 4 -3 14 0 24 8 11 9 14
10 9 2 -4 -8 -1 -13 9 -13 9 0 13 5 9 11 -4 8 0 8 15 0 15 -9 21 -9 21 -1 0 7
8 9 21 5 14 -5 25 -2 30 6 7 12 9 12 9 0 0 -9 4 -10 12 -4 7 6 36 10 65 9 28
-1 49 2 47 5 -3 6 28 10 89 10 9 0 15 3 13 7 -3 4 3 8 12 9 83 9 110 13 132
18 14 4 44 6 68 6 29 -1 41 2 36 10 -4 8 -1 8 12 2 27 -13 131 -8 149 7 12 10
15 10 15 0 0 -9 4 -9 13 -2 15 12 175 13 199 1 10 -5 19 -5 22 0 6 10 24 9 41
0 6 -3 40 -5 77 -5 36 1 64 -2 62 -5 -2 -4 3 -10 12 -13 8 -3 12 -2 9 4 -3 6
3 10 14 10 12 0 21 -5 21 -11 0 -8 4 -8 13 -1 7 6 18 7 26 3 14 -9 51 -3 51 8
0 3 17 6 38 6 20 -1 42 3 49 8 7 5 17 6 22 3 5 -4 12 -2 16 4 3 5 13 10 21 10
21 0 119 49 144 72 11 10 20 14 20 8 0 -6 17 7 37 30 20 22 43 40 50 40 7 0
21 9 30 19 9 11 20 18 25 15 5 -3 7 -2 6 3 -3 11 59 72 67 65 3 -3 5 0 5 6 0
7 15 21 33 32 17 11 29 20 25 20 -4 0 3 10 15 23 12 13 25 22 30 20 4 -2 7 0
7 6 0 5 14 23 31 40 17 17 27 31 22 31 -4 0 3 10 17 23 38 34 68 72 50 63 -8
-4 -6 0 5 9 11 9 20 20 20 26 0 5 7 14 15 19 8 5 11 10 7 10 -5 0 -1 7 7 16 9
8 16 22 16 30 0 8 5 14 11 14 5 0 8 4 5 9 -3 5 1 14 9 21 8 7 15 19 15 26 0 8
5 14 11 14 5 0 7 5 4 10 -3 6 -1 10 4 10 6 0 11 7 11 16 0 8 4 12 10 9 5 -3 7
0 4 8 -3 8 6 18 21 25 14 6 25 16 25 22 0 6 5 8 12 4 8 -5 9 -2 5 10 -6 14 -3
17 8 12 9 -3 13 -2 10 4 -3 6 -1 10 5 10 7 0 10 6 7 13 -2 6 0 20 4 29 6 10 5
19 -2 23 -7 5 -6 12 3 23 12 14 16 35 9 45 -8 8 -9 47 -3 43 5 -3 8 8 7 24 -1
17 2 30 7 30 4 0 7 6 6 12 -2 7 2 12 9 11 7 -2 10 3 7 11 -3 8 2 28 10 45 9
17 17 34 19 38 1 5 6 6 12 5 5 -2 7 0 3 4 -4 4 -1 19 7 33 27 48 40 99 24 94
-6 -2 -9 13 -9 42 0 44 4 75 10 75 4 0 6 10 6 21 -1 23 22 33 45 18 10 -6 11
-9 2 -9 -7 0 -13 -6 -13 -14 0 -8 -6 -17 -12 -19 -10 -4 -10 -6 0 -6 7 -1 10
-6 7 -11 -5 -8 -11 -7 -21 1 -8 6 -14 9 -14 6 0 -3 15 -16 33 -28 23 -17 28
-18 18 -5 -11 13 -12 19 -3 25 8 4 10 15 6 26 -5 12 -4 16 3 12 7 -5 10 5 7
28 -2 26 0 34 9 29 7 -4 9 -4 5 1 -4 4 -2 15 5 23 8 11 8 14 0 9 -6 -4 -14 -3
-18 3 -3 5 1 10 11 10 15 0 15 2 -1 26 -16 25 -16 25 7 13 23 -12 23 -12 5 9
-10 11 -15 22 -10 24 4 3 1 3 -7 1 -10 -2 -8 2 4 12 11 8 14 15 7 15 -7 0 -9
5 -5 12 4 7 3 8 -4 4 -7 -4 -12 -3 -12 3 0 5 6 11 13 14 6 2 0 8 -15 12 -45
12 -83 106 -54 135 8 8 6 9 -8 4 -16 -6 -18 -4 -14 14 3 12 3 21 -1 20 -18 -2
-44 3 -39 8 4 3 0 17 -8 32 -7 15 -10 28 -4 30 5 2 1 18 -9 35 -9 18 -18 42
-18 54 -2 21 -33 78 -33 59 0 -5 -6 -4 -12 1 -24 18 -52 25 -42 10 5 -7 2 -5
-7 5 -9 9 -19 14 -23 11 -3 -4 -6 0 -6 7 0 7 -3 10 -7 7 -3 -4 -12 1 -20 11
-8 9 -11 11 -7 3 4 -9 3 -12 -4 -7 -6 3 -9 15 -7 25 3 14 -1 18 -16 14 -10 -3
-19 0 -19 6 0 6 -3 10 -7 9 -5 -1 -21 5 -38 15 -16 9 -26 16 -22 17 5 0 17 -5
28 -10 14 -8 19 -7 19 3 0 8 11 13 28 12 15 0 33 6 40 15 8 8 11 9 7 2 -3 -6
-1 -12 4 -12 6 0 11 6 11 13 0 7 3 8 8 2 4 -5 13 -11 21 -13 12 -3 12 -1 0 14
-12 16 -12 17 1 9 19 -12 81 -14 74 -3 -6 10 37 28 50 20 5 -3 6 0 2 6 -4 7
-3 12 3 12 5 0 13 -5 16 -10 4 -6 11 -8 16 -4 5 3 7 10 4 15 -9 13 2 11 35 -6
17 -9 30 -13 30 -9 0 4 8 0 17 -7 15 -12 16 -12 10 5 -6 14 -5 16 5 8 14 -10
53 -10 153 3 33 4 81 8 108 8 26 -1 50 3 53 9 3 5 12 4 21 -3 11 -10 16 -10
22 0 4 6 12 11 17 10 22 -4 35 2 28 14 -4 6 2 4 13 -6 23 -20 26 -44 6 -44 -9
0 -13 7 -10 19 3 10 1 16 -4 12 -5 -3 -9 -11 -9 -19 0 -7 -6 -16 -12 -18 -10
-4 -10 -6 0 -6 7 -1 11 -5 7 -10 -3 -5 0 -13 6 -17 7 -4 9 -3 6 3 -7 11 22 28
31 18 3 -3 0 -5 -6 -5 -18 0 -15 -16 3 -18 56 -7 125 1 118 12 -4 6 1 5 11 -3
20 -16 56 -22 56 -9 0 4 5 8 11 8 5 0 7 -6 4 -12 -4 -7 1 -4 9 6 15 18 21 15
16 -9 -1 -5 8 -1 20 10 14 12 24 15 28 9 4 -6 16 -9 27 -7 11 2 26 5 33 5 6 1
12 4 12 7 0 4 20 6 44 6 25 -1 43 2 40 6 -2 4 11 7 29 7 65 -1 78 2 71 15 -5
7 -2 7 10 -2 9 -8 16 -10 14 -4 -2 6 2 11 7 11 6 0 9 -5 7 -12 -1 -6 4 -3 12
7 8 10 23 20 33 22 10 1 17 8 15 14 -1 6 5 11 14 11 9 0 12 -5 8 -12 -4 -7 -3
-8 5 -4 6 4 8 12 5 18 -5 7 2 9 18 6 21 -4 25 -1 22 16 -3 12 -2 16 2 9 4 -10
8 -10 19 0 7 7 10 17 7 22 -3 6 1 4 9 -2 18 -14 24 12 8 33 -5 7 -3 11 6 11 8
0 12 -3 10 -7 -2 -3 0 -12 6 -20 7 -12 9 -12 9 3 0 10 4 16 8 13 10 -6 64 28
63 40 -1 5 2 9 7 9 15 0 32 17 27 26 -4 5 -1 9 4 9 6 0 11 8 11 18 0 14 2 15
10 2 8 -13 10 -12 10 3 0 9 3 16 8 16 19 -3 25 2 12 11 -13 8 -12 10 3 10 9 0
17 5 17 10 0 6 7 10 16 10 11 0 15 6 11 19 -3 14 -1 18 9 14 8 -3 14 0 14 7 0
7 8 19 18 26 16 13 16 14 -3 8 -17 -4 -16 -3 3 8 12 8 19 17 16 21 -4 4 -2 7
6 7 10 0 10 4 -1 17 -10 11 -10 14 -1 9 7 -4 12 -2 12 4 0 6 5 8 12 4 6 -4 8
-3 5 3 -4 6 10 32 30 59 20 27 29 43 20 35 -12 -10 -17 -10 -17 -1 0 6 9 14
21 17 16 4 17 8 7 14 -10 7 -9 9 5 9 15 0 21 13 20 48 -1 10 2 10 13 1 12 -10
13 -9 8 5 -3 9 -1 16 5 16 6 0 11 7 11 15 0 8 5 15 11 15 5 0 7 5 4 10 -3 6
-1 10 5 10 6 0 8 5 5 10 -3 6 2 10 11 10 10 0 14 3 11 6 -11 11 13 45 26 38 7
-4 9 -3 4 1 -4 5 1 18 10 29 17 20 17 20 0 7 -15 -12 -17 -12 -11 2 3 8 12 18
20 21 9 3 13 10 9 15 -3 5 -1 12 5 16 6 4 8 11 5 16 -4 5 -1 9 4 9 6 0 11 12
11 26 0 17 4 23 13 18 8 -5 8 -2 -2 9 -9 11 -10 17 -2 17 6 0 11 6 11 14 0 8
6 17 13 19 8 4 7 6 -3 6 -11 1 -8 8 10 22 19 16 20 19 6 15 -15 -5 -17 -4 -8
7 7 8 8 18 4 23 -4 4 1 3 10 -5 15 -11 16 -10 12 14 -3 20 -1 25 8 19 7 -4 10
-3 5 1 -4 5 0 19 9 33 9 13 11 21 5 18 -7 -5 -9 -1 -5 8 3 9 11 13 17 9 6 -3
7 -1 3 6 -4 6 -2 19 6 28 9 12 9 15 1 9 -7 -4 -13 -2 -13 3 0 6 5 11 11 11 8
0 7 5 -1 15 -11 13 -10 14 6 9 10 -4 16 -4 12 1 -4 4 -2 15 5 23 10 13 9 14
-3 7 -13 -8 -13 -6 -1 8 7 9 11 23 8 31 -4 10 -1 13 8 10 10 -4 13 0 10 15 -2
12 1 21 7 21 6 0 8 9 5 20 -3 11 -1 23 5 26 5 3 7 15 5 26 -4 14 -1 18 8 14 9
-3 12 0 8 9 -3 8 -9 12 -14 9 -5 -3 -9 0 -9 5 0 6 5 11 11 11 5 0 7 6 3 12
-11 17 -13 48 -3 42 4 -2 10 0 14 6 3 5 2 10 -3 10 -5 0 -9 7 -9 15 0 8 5 15
11 15 6 0 5 4 -3 9 -9 6 -10 10 -2 16 9 5 9 11 -1 23 -11 13 -11 14 0 8 10 -6
13 -3 10 10 -2 11 -8 19 -15 19 -6 0 -15 3 -19 7 -3 4 2 6 13 4 16 -4 21 1 21
20 0 14 -5 21 -12 17 -6 -3 -6 0 2 8 16 17 16 46 0 52 -8 3 -5 6 6 6 13 1 16
5 9 14 -5 6 -7 23 -3 37 4 14 3 35 -1 48 -7 17 -5 22 9 22 14 0 14 2 3 9 -9 6
-14 25 -14 50 0 23 -3 41 -8 41 -5 0 -9 5 -9 11 0 5 5 7 10 4 6 -3 10 -4 10 0
0 3 -10 10 -22 15 -20 7 -20 9 -4 9 13 1 16 4 9 14 -6 6 -9 20 -8 30 2 9 0 17
-5 17 -4 0 -11 7 -14 16 -3 8 -2 12 4 9 14 -9 12 8 -2 24 -8 9 -9 12 -1 7 14
-7 11 17 -4 35 -6 8 -9 22 -8 31 2 12 -2 15 -13 10 -13 -4 -15 -3 -6 9 9 13
11 30 4 44 -1 3 -3 9 -4 14 0 5 -5 13 -10 18 -5 5 -6 2 -1 -6 5 -10 4 -12 -4
-7 -6 4 -8 13 -4 19 11 18 12 38 2 31 -5 -3 -6 -10 -3 -16 4 -6 2 -8 -4 -4 -7
4 -8 17 -2 35 7 25 6 29 -8 23 -15 -5 -15 -4 -3 11 11 14 11 17 0 17 -10 0
-10 3 -1 12 7 7 12 17 12 23 0 5 -5 3 -10 -5 -6 -10 -10 -11 -10 -2 0 6 -7 12
-16 12 -8 0 -12 -4 -9 -10 3 -5 1 -10 -5 -10 -21 0 -4 24 21 31 19 6 11 13
-12 11 -3 -1 -6 5 -6 13 0 8 4 12 9 9 4 -3 8 0 8 5 0 10 -14 15 -32 12 -4 0
-4 7 -1 17 6 15 5 15 -11 3 -17 -14 -17 -15 0 -28 10 -7 12 -13 6 -13 -7 0
-12 -5 -12 -11 0 -5 5 -7 10 -4 6 3 10 1 10 -5 0 -7 -6 -10 -12 -7 -7 2 -12
12 -12 21 2 16 -8 21 -19 9 -4 -3 0 -18 9 -32 l15 -26 -20 24 -21 23 22 30
c20 29 20 31 4 44 -10 7 -25 10 -34 7 -18 -7 -17 -5 12 17 11 8 17 10 13 4 -3
-6 7 -18 22 -27 27 -16 29 -16 34 3 4 15 0 19 -15 17 -12 -1 -23 5 -25 13 -4
13 -3 13 6 0 16 -23 36 2 22 28 -6 10 -8 22 -5 24 2 3 -2 11 -11 18 -17 14
-21 35 -4 24 6 -3 3 8 -6 26 -9 17 -15 37 -12 43 4 14 -29 48 -38 39 -3 -4 -2
5 3 19 10 25 -7 66 -21 52 -4 -3 -7 -1 -7 5 0 7 5 12 11 12 6 0 3 7 -6 16 -13
14 -14 19 -3 25 11 7 11 9 0 9 -8 0 -10 5 -6 13 5 8 2 7 -9 -2 -16 -13 -17
-12 -7 13 13 34 12 36 -1 36 -5 0 -7 -5 -3 -12 4 -7 3 -8 -5 -4 -9 6 -9 11 1
24 11 13 11 14 -1 7 -11 -6 -13 -4 -8 8 3 10 2 17 -4 17 -6 0 -7 5 -3 11 4 8
-1 9 -17 4 -16 -4 -20 -3 -11 3 12 8 11 14 -2 39 -8 17 -12 33 -9 37 4 3 1 6
-7 6 -9 0 -9 4 -2 13 7 8 6 18 -4 31 -7 10 -11 23 -8 27 3 5 0 9 -6 9 -6 0 -8
5 -4 12 4 6 3 8 -3 5 -6 -4 -17 1 -24 10 -9 10 -9 14 -2 10 21 -13 5 36 -19
58 -34 31 -64 36 -84 14 -19 -21 -34 -25 -34 -8 0 5 4 8 9 5 12 -8 43 29 34
39 -5 4 -3 5 3 2 23 -13 21 20 -2 42 -13 13 -24 29 -24 37 0 8 -4 14 -10 14
-5 0 -7 -8 -4 -17 5 -14 4 -15 -4 -4 -6 8 -8 21 -4 29 3 10 0 13 -9 10 -8 -3
-13 -11 -11 -17 1 -8 -2 -9 -9 -5 -8 5 -10 2 -7 -7 4 -9 -2 -14 -18 -15 -13
-1 -24 2 -24 8 0 5 4 7 9 4 12 -8 43 29 34 39 -5 4 -2 5 5 1 7 -4 12 -1 12 8
0 9 -8 14 -20 13 -14 -1 -18 -6 -15 -18 7 -21 -13 -35 -28 -20 -17 17 -31 13
-17 -4 11 -13 10 -14 -4 -9 -19 7 -21 20 -5 30 7 4 -4 15 -27 28 -20 11 -39
28 -41 36 -3 10 -1 9 7 -2 6 -10 16 -18 21 -18 15 0 -18 43 -36 46 -8 1 -15
-3 -15 -9 0 -7 -5 -5 -10 3 -6 10 -10 11 -10 3 0 -9 -6 -7 -18 5 -16 14 -17
19 -5 33 7 9 11 19 8 22 -3 4 -2 5 2 2 11 -8 13 -36 2 -29 -10 6 -12 -9 -2
-19 3 -4 14 0 23 8 15 13 19 13 38 -5 12 -12 22 -25 22 -31 0 -6 5 -7 10 -4 6
4 10 3 9 -2 -4 -15 13 -43 22 -37 5 3 9 0 9 -6 0 -6 4 -8 10 -5 6 4 7 -1 4
-12 -5 -16 -3 -15 11 2 9 11 21 19 26 18 5 -2 9 4 9 13 0 9 -5 12 -12 8 -7 -5
-9 -2 -5 8 4 12 0 15 -17 14 -13 -2 -23 3 -23 10 0 7 3 11 7 9 4 -2 7 2 7 9 0
8 -7 12 -15 8 -10 -3 -13 -1 -8 6 4 8 2 10 -7 6 -8 -3 -18 0 -23 7 -4 8 -3 10
4 5 8 -5 10 -1 6 9 -4 9 -13 14 -22 10 -12 -4 -13 -3 -3 9 11 13 9 15 -7 11
-13 -2 -19 2 -18 13 0 9 -5 16 -11 15 -7 -2 -13 4 -13 13 0 10 -6 14 -14 11
-8 -3 -17 1 -20 9 -4 9 -11 12 -18 8 -10 -6 -10 -4 0 8 12 14 10 16 -10 11
-19 -4 -20 -3 -8 7 13 10 11 11 -7 7 -15 -3 -20 -1 -16 9 3 8 -6 18 -21 25
-14 7 -26 19 -26 26 0 8 -4 11 -10 8 -5 -3 -10 -1 -10 4 0 6 -7 11 -15 11 -13
0 -19 12 -16 32 0 4 -6 5 -14 2 -9 -4 -15 0 -15 10 0 9 -9 21 -20 28 -11 7
-20 19 -20 26 0 7 -6 15 -14 18 -8 3 -12 13 -9 25 3 11 0 19 -6 19 -7 0 -9 5
-6 10 3 6 2 10 -4 10 -5 0 -8 9 -6 20 2 11 0 20 -6 20 -5 0 -9 12 -9 26 0 14
-10 34 -22 45 -21 17 -21 19 -3 13 19 -5 19 -5 3 9 -10 8 -15 17 -11 20 3 4
-2 7 -13 7 -16 0 -17 2 -4 11 12 9 11 10 -6 6 -22 -5 -26 6 -10 32 7 10 3 12
-14 6 -14 -5 -20 -3 -16 3 8 13 -4 43 -15 37 -4 -3 -13 4 -19 15 -6 11 -19 19
-28 18 -13 -2 -17 4 -16 25 1 15 -3 27 -8 27 -15 0 -38 27 -30 36 4 5 -1 2
-11 -5 -15 -12 -17 -12 -11 3 5 12 2 15 -10 10 -12 -5 -15 -2 -9 12 3 9 2 15
-3 12 -12 -6 -54 38 -45 49 3 4 -3 1 -14 -7 -11 -8 -17 -11 -13 -6 4 5 0 15
-8 23 -13 14 -17 13 -30 -3 -14 -18 -15 -18 -5 3 15 30 14 32 -10 28 -15 -3
-19 0 -15 11 3 8 2 12 -3 9 -5 -3 -13 0 -16 6 -4 5 -14 8 -22 5 -8 -3 -11 -1
-8 4 3 6 -3 10 -14 10 -12 0 -21 5 -21 10 0 6 -7 10 -16 10 -9 0 -12 5 -8 12
5 7 3 8 -7 3 -24 -15 -48 -13 -41 3 3 10 1 13 -6 8 -7 -4 -12 -2 -12 6 0 10
-2 10 -9 -1 -7 -11 -10 -9 -16 8 -3 12 -11 19 -16 16 -5 -4 -9 1 -9 9 0 9 -9
16 -20 16 -11 0 -19 4 -17 9 3 12 -73 82 -82 76 -5 -2 -17 5 -27 18 -19 21
-19 21 1 7 19 -14 19 -14 6 3 -7 9 -21 17 -30 17 -12 0 -13 2 -3 9 11 7 11 9
-2 14 -8 3 -17 1 -20 -6 -2 -7 -5 -2 -5 10 -1 12 -10 28 -21 36 -11 8 -17 17
-13 20 3 4 -4 7 -16 7 -12 0 -19 4 -16 10 3 6 1 10 -6 10 -7 0 -9 3 -5 7 3 4
-13 16 -36 27 -43 20 -58 25 -90 28 -10 1 -18 5 -18 9 0 4 -13 5 -29 4 -16 -1
-34 1 -40 4 -6 4 -34 5 -61 1 -27 -3 -56 -3 -64 2 -8 5 -17 4 -21 -2 -4 -6
-10 -8 -15 -5 -5 3 -11 1 -15 -5 -4 -6 -11 -7 -17 -4 -6 4 -5 -2 2 -15 6 -12
15 -19 21 -15 12 7 41 -15 33 -27 -3 -5 0 -9 6 -9 6 0 8 -4 5 -10 -3 -5 -2
-10 4 -10 5 0 11 5 13 10 2 6 8 2 14 -7 10 -16 7 -18 -22 -18 -17 0 -30 3 -27
8 2 4 0 7 -6 7 -6 0 -8 7 -5 15 5 12 -1 14 -25 11 -25 -3 -29 -1 -21 10 9 9 7
11 -8 7 -11 -2 -23 1 -27 8 -6 8 -4 10 5 4 8 -5 11 -4 6 3 -4 6 -14 8 -23 5
-12 -5 -15 -2 -10 10 4 12 2 14 -10 10 -9 -4 -14 -2 -11 3 3 5 0 15 -8 22 -8
7 -14 10 -14 6 0 -3 -6 -1 -13 5 -8 6 -18 7 -22 3 -5 -4 -5 1 -2 10 4 13 1 16
-14 13 -11 -2 -17 0 -14 6 4 5 -1 9 -10 9 -9 0 -13 5 -10 10 6 9 2 12 -27 14
-16 1 -33 17 -41 36 -5 13 -6 13 -6 0 -1 -9 4 -21 9 -26 7 -7 6 -11 -4 -11 -8
0 -12 5 -9 10 3 5 0 8 -8 5 -7 -2 -23 7 -34 20 -23 26 -77 38 -68 15 3 -8 -3
-11 -17 -8 -16 3 -20 0 -16 -10 3 -9 0 -12 -11 -8 -15 6 -33 -12 -33 -34 0 -7
7 -13 15 -13 8 0 15 -5 15 -11 0 -5 4 -8 10 -4 5 3 18 -3 29 -14 10 -10 27
-24 37 -30 14 -8 15 -11 4 -11 -9 0 -5 -6 10 -15 14 -8 19 -14 13 -15 -7 0
-13 -5 -13 -10 0 -6 3 -9 8 -9 20 3 32 -2 26 -13 -5 -7 -3 -8 5 -4 7 5 21 0
31 -9 17 -15 22 -16 37 -4 9 8 14 9 10 2 -4 -6 -1 -17 6 -25 15 -15 31 -49 29
-61 -1 -4 1 -6 5 -6 26 4 43 -2 37 -13 -5 -8 0 -7 11 2 11 9 16 10 11 3 -7
-12 5 -18 27 -14 5 1 6 -3 2 -9 -3 -5 -2 -10 4 -10 5 0 11 3 14 8 2 4 3 2 1
-4 -1 -6 3 -17 9 -24 9 -10 9 -11 0 -6 -8 4 -13 1 -13 -8 0 -15 -12 -21 -33
-17 -4 1 -16 3 -27 4 -11 2 -23 7 -27 12 -5 4 -1 5 7 1 8 -4 6 -1 -4 8 -10 8
-23 13 -27 10 -5 -3 -9 -1 -9 5 0 13 -34 6 -113 -23 -35 -14 -68 -22 -72 -18
-5 4 -5 1 -1 -5 5 -9 -1 -13 -18 -13 -14 0 -26 -5 -26 -11 0 -5 -4 -7 -10 -4
-5 3 -10 2 -10 -3 0 -6 -7 -13 -16 -16 -9 -3 -12 -2 -8 5 3 6 -3 5 -15 -3 -12
-7 -21 -16 -21 -20 0 -4 -9 -5 -21 -3 -17 3 -19 2 -9 -10 11 -13 8 -13 -21 -3
-19 6 -38 14 -44 18 -5 4 -17 6 -25 5 -11 -2 -15 7 -15 29 0 17 -5 31 -12 31
-6 0 -15 3 -19 7 -3 4 3 6 15 3 18 -3 20 -1 11 15 -13 25 -13 33 2 24 7 -4 8
-3 4 5 -4 6 -13 8 -19 4 -7 -4 -5 2 3 12 8 10 10 16 3 12 -6 -4 -14 -3 -18 3
-4 6 -11 7 -17 4 -7 -4 -8 -2 -4 5 4 6 12 9 17 6 5 -4 9 1 9 10 0 10 5 13 12
9 7 -4 8 -3 4 5 -6 9 -12 9 -24 -1 -10 -7 -14 -8 -10 -4 4 5 2 16 -5 24 -9 13
-9 14 1 8 7 -4 12 -1 12 9 0 10 -5 13 -12 9 -9 -5 -9 -2 1 9 7 10 9 17 3 17
-6 0 -9 8 -7 18 3 23 -22 72 -38 72 -9 0 -8 -3 1 -9 11 -7 10 -9 -3 -15 -9 -3
-13 -11 -9 -17 4 -8 3 -9 -5 -5 -9 6 -9 11 0 22 9 11 8 14 -2 14 -8 0 -5 6 7
15 10 8 15 15 11 15 -4 0 -3 9 3 20 9 16 8 18 -5 14 -8 -3 -13 -9 -10 -13 2
-4 -2 -8 -10 -8 -13 0 -12 4 2 19 10 12 12 18 4 18 -7 0 -9 4 -6 10 3 5 -11
25 -30 44 -23 21 -33 36 -26 41 6 3 10 1 9 -6 -2 -6 4 -14 12 -16 12 -4 12 -3
2 5 -8 5 -14 13 -15 18 -1 5 -7 9 -14 9 -6 0 -15 4 -20 9 -4 5 -3 6 4 2 6 -3
14 -2 18 4 4 6 11 7 17 4 7 -4 8 -2 4 5 -4 6 -12 8 -18 5 -7 -5 -9 -1 -5 9 6
16 -8 23 -36 18 -5 -1 -6 3 -2 9 3 5 1 10 -5 10 -6 0 -8 5 -4 11 5 8 10 6 16
-5 5 -9 14 -16 19 -16 6 0 3 7 -5 16 -9 8 -14 20 -11 25 4 5 1 9 -6 9 -6 0 -9
8 -7 18 3 11 0 19 -8 19 -7 0 -11 -3 -9 -7 2 -3 -5 -6 -16 -6 -19 0 -20 1 -2
14 10 7 17 20 15 28 -2 8 3 14 9 14 7 0 9 3 6 6 -4 4 -12 2 -20 -4 -15 -13
-18 24 -3 47 6 10 6 12 -2 7 -7 -4 -12 -1 -12 10 0 14 -3 14 -15 4 -9 -7 -18
-10 -22 -6 -3 3 0 6 8 6 11 0 12 2 1 9 -8 4 -28 7 -45 5 -18 -1 -26 0 -20 3
20 8 -4 44 -24 36 -12 -5 -15 -2 -10 10 4 11 0 15 -14 14 -22 -1 -25 -13 -6
-20 9 -4 9 -6 0 -6 -18 -1 -26 18 -13 34 6 8 8 20 4 26 -4 7 -3 9 3 6 6 -4 18
2 28 13 10 11 21 17 26 15 4 -3 11 -1 14 5 4 6 1 9 -7 8 -8 -2 -12 4 -10 15 2
9 -2 17 -7 17 -5 0 -8 -9 -6 -20 2 -11 0 -20 -6 -20 -10 0 -5 41 7 61 5 8 3 9
-6 4 -9 -6 -10 -2 -5 16 7 20 6 22 -7 12 -8 -7 -18 -10 -21 -6 -4 3 -7 -1 -7
-11 0 -9 4 -15 9 -11 5 3 12 1 15 -4 4 -5 2 -12 -3 -15 -4 -3 -7 -19 -5 -36 3
-26 1 -28 -10 -18 -8 7 -10 15 -5 16 5 2 9 8 9 13 0 6 -5 7 -12 3 -7 -5 -8 -3
-3 6 6 10 4 12 -8 7 -9 -3 -19 -2 -22 3 -3 5 -12 7 -20 4 -7 -3 -22 -1 -32 5
-15 9 -12 10 12 4 28 -6 29 -5 15 13 -14 17 -13 18 1 6 13 -10 19 -9 30 5 12
15 12 16 -3 10 -10 -4 -18 -2 -18 4 0 7 10 9 25 5 18 -5 23 -3 19 8 -3 8 -1
17 5 21 6 3 9 0 5 -8 -3 -8 -1 -17 3 -20 5 -3 10 4 10 15 1 12 -6 22 -18 25
-22 6 -24 14 -7 31 15 15 3 16 -22 2 -16 -9 -18 -7 -14 17 3 15 8 31 11 36 4
6 1 7 -7 2 -9 -5 -10 -2 -5 14 5 16 2 21 -12 22 -10 0 -13 3 -6 5 7 3 9 12 6
20 -3 7 -10 11 -17 7 -8 -5 -8 -3 0 8 13 15 -7 44 -21 31 -4 -4 -2 4 5 17 11
21 10 23 -4 18 -10 -4 -15 -3 -12 2 5 8 -25 40 -53 56 -10 6 -12 4 -6 -5 5 -8
3 -11 -6 -8 -8 3 -13 11 -12 17 2 6 -1 11 -6 11 -6 0 -9 -9 -8 -19 0 -11 5
-17 9 -15 4 3 5 -3 1 -13 -6 -17 -5 -16 16 1 21 19 22 19 39 1 16 -18 16 -18
0 -6 -18 13 -42 6 -32 -10 3 -5 10 -6 16 -3 7 5 8 2 3 -6 -6 -9 -4 -12 6 -8
10 4 14 -3 14 -23 1 -19 -3 -25 -9 -19 -6 6 -15 10 -20 10 -6 -1 0 -10 13 -20
13 -11 19 -20 14 -20 -22 0 -53 38 -47 56 4 12 3 15 -3 7 -6 -9 -12 -8 -23 0
-17 14 -26 42 -10 32 5 -3 10 -2 10 4 0 5 -5 11 -11 13 -7 2 -7 12 0 31 7 19
15 26 23 21 9 -5 9 -2 -1 9 -16 21 -35 22 -28 3 11 -27 -15 -45 -43 -30 -18
10 -20 14 -8 14 11 0 15 5 12 15 -4 8 -11 12 -18 8 -6 -4 -5 1 3 10 15 19 26
15 26 -10 0 -30 20 -23 22 7 2 22 -1 29 -10 24 -9 -5 -9 -3 1 7 17 19 15 29
-7 29 -15 0 -19 6 -16 20 2 12 0 18 -6 15 -5 -4 -6 -11 -3 -17 5 -7 2 -8 -5
-3 -7 4 -11 15 -8 25 3 11 -2 28 -10 39 -8 12 -11 26 -8 31 4 6 3 10 -2 9 -20
-3 -34 2 -28 11 6 10 -6 14 -35 11 -13 -2 -13 -1 0 8 13 10 8 15 -12 12 -4 0
-5 6 -1 15 5 12 8 12 20 -6 8 -11 20 -20 26 -19 9 0 9 2 0 6 -7 2 -13 13 -13
23 0 10 -8 21 -17 25 -17 6 -17 7 1 21 20 14 20 14 0 15 -10 1 -23 1 -29 -1
-5 -1 -5 4 2 11 13 13 6 42 -8 33 -5 -3 -9 0 -9 5 0 6 5 11 10 11 6 0 1 9 -10
20 -11 11 -25 20 -31 20 -5 0 -7 5 -3 12 5 7 2 9 -9 5 -10 -4 -14 -2 -11 7 2
7 -4 23 -16 36 -11 13 -20 20 -20 16 0 -4 -7 -1 -15 6 -32 29 -45 38 -53 38
-5 0 -17 9 -27 20 -10 11 -24 20 -32 20 -8 0 -12 4 -9 9 3 5 -1 12 -10 15 -8
3 -12 2 -9 -4 3 -6 1 -10 -4 -10 -6 0 -11 6 -11 14 0 7 -8 20 -17 27 -17 13
-17 12 -3 -6 10 -14 5 -12 -15 6 -17 14 -43 31 -58 37 -15 7 -26 16 -23 20 2
4 -5 9 -16 9 -11 1 -27 11 -35 23 -8 11 -18 18 -23 15 -4 -3 -10 2 -14 10 -3
8 -11 15 -18 15 -7 0 -19 9 -26 21 -7 11 -18 19 -24 17 -6 -2 -27 11 -46 29
-19 18 -39 33 -44 33 -5 0 -6 5 -3 10 3 6 -2 10 -12 10 -11 0 -24 5 -31 12 -7
7 -12 8 -12 4 0 -5 -6 -4 -13 2 -8 7 -18 7 -30 1z m1699 -2594 c-1 -8 -5 -17
-9 -21 -3 -4 -4 -11 -1 -16 3 -5 12 -1 21 9 13 16 13 16 3 -5 -10 -20 -8 -28
10 -47 12 -13 19 -28 16 -33 -3 -5 1 -15 9 -22 8 -7 15 -9 15 -6 0 4 9 2 21
-4 11 -7 18 -14 15 -17 -3 -3 -13 0 -23 8 -15 12 -16 12 -10 -4 4 -10 3 -16
-2 -12 -5 3 -11 -1 -14 -7 -3 -10 -8 -10 -21 1 -16 13 -17 13 -14 -4 1 -10 -3
-19 -10 -21 -7 -1 -8 0 -3 2 5 3 7 14 4 24 -3 11 -9 18 -13 15 -4 -2 -7 3 -7
13 0 34 -3 43 -13 37 -6 -4 -9 -1 -8 7 2 7 -2 12 -7 11 -6 -1 -11 9 -11 23 0
13 4 24 8 24 5 0 8 -6 6 -14 -2 -8 1 -15 7 -15 5 0 12 -8 16 -18 6 -14 8 -15
8 -2 1 9 -9 27 -21 40 l-23 24 20 21 c24 26 34 29 31 9z m516 -179 c7 4 8 2 4
-4 -9 -14 -9 -14 32 -3 18 6 30 6 28 2 -3 -4 10 -7 29 -7 21 0 31 4 28 11 -4
5 4 1 17 -10 l23 -20 -11 22 c-12 22 7 28 25 8 5 -4 1 -5 -7 0 -8 5 -12 4 -7
0 10 -11 47 -14 47 -4 0 5 7 6 16 2 9 -3 20 0 26 8 6 10 7 6 2 -11 -6 -22 -5
-23 10 -11 9 7 16 9 16 4 0 -5 18 -9 39 -8 22 1 38 -2 35 -7 -3 -5 -11 -5 -17
-2 -7 4 -9 3 -4 -1 12 -14 47 -16 47 -3 0 7 7 2 16 -10 8 -12 19 -20 24 -17 5
3 15 -1 23 -9 8 -8 18 -12 21 -9 10 10 48 14 42 5 -3 -5 1 -9 9 -9 8 0 15 4
15 9 0 4 5 8 11 8 5 0 7 -6 3 -12 -5 -9 -3 -9 9 1 9 7 28 11 42 9 14 -3 28 -2
30 2 2 4 16 5 31 2 19 -3 22 -7 12 -13 -9 -6 -7 -9 10 -9 12 0 21 -3 21 -7 -1
-5 0 -11 1 -15 1 -5 3 -12 4 -16 3 -22 33 -41 47 -29 7 7 5 2 -5 -10 -11 -13
-14 -23 -8 -23 7 0 12 -6 12 -14 0 -8 7 -17 16 -20 11 -4 13 -12 8 -28 -6 -21
-5 -22 11 -8 11 9 16 10 11 3 -4 -8 -2 -13 5 -13 7 0 9 -3 6 -6 -3 -4 -1 -16
5 -28 11 -20 10 -20 -7 -6 -13 10 -16 11 -11 2 4 -7 17 -17 29 -21 11 -4 21
-17 22 -29 1 -14 -2 -19 -10 -14 -6 4 1 -3 15 -15 14 -13 24 -31 22 -42 -2
-11 2 -22 7 -26 7 -4 8 1 4 12 -8 23 1 15 17 -16 8 -15 8 -21 1 -17 -6 4 -11
2 -11 -3 0 -6 5 -11 11 -11 6 0 9 -9 6 -20 -3 -13 0 -20 9 -20 8 0 14 -6 14
-13 0 -8 12 -24 27 -38 14 -13 23 -17 19 -9 -5 9 -2 8 7 -2 16 -20 32 -25 21
-6 -4 7 -3 8 4 4 6 -4 8 -14 5 -23 -4 -11 -3 -14 5 -9 7 4 12 2 12 -4 0 -17
26 -40 35 -32 5 4 5 2 1 -5 -7 -14 13 -63 27 -63 5 0 6 -7 3 -15 -3 -9 1 -18
10 -22 13 -5 13 -7 2 -14 -8 -6 -9 -9 -1 -9 6 0 10 -8 8 -17 -1 -10 2 -23 7
-30 7 -8 3 -16 -11 -25 -12 -7 -21 -18 -21 -25 0 -6 -10 -19 -22 -27 -12 -9
-18 -16 -13 -16 6 0 4 -4 -3 -9 -7 -4 -14 -14 -16 -22 -1 -8 -10 -29 -20 -48
-28 -52 -30 -111 -6 -133 13 -13 20 -15 20 -6 0 10 2 10 9 0 4 -8 26 -16 47
-19 22 -3 42 -9 45 -15 12 -19 109 -7 109 14 0 5 5 6 10 3 6 -3 10 -1 10 6 0
7 3 9 7 6 3 -4 15 1 26 10 12 11 17 12 12 4 -6 -10 -4 -12 6 -5 20 12 39 14
39 3 0 -13 52 -6 57 8 3 7 9 11 13 8 4 -3 10 2 13 10 4 10 1 12 -11 9 -13 -5
-14 -4 -3 4 7 5 21 8 30 7 9 -2 20 -4 24 -4 5 -1 6 -5 3 -10 -3 -5 2 -8 11 -7
9 0 18 -6 20 -14 4 -13 3 -13 -6 0 -9 13 -11 13 -11 -2 0 -10 7 -18 17 -18 9
0 14 -3 10 -6 -9 -9 19 -34 40 -35 16 0 16 -1 -2 -9 l-20 -9 20 -1 20 -1 -20
-9 c-15 -7 -16 -9 -4 -9 9 -1 22 -8 29 -16 11 -13 10 -14 -6 -9 -26 10 -14 -2
21 -20 20 -11 24 -16 13 -16 -25 0 -22 -16 4 -34 21 -15 21 -16 3 -17 -17 -1
-17 -2 -2 -6 15 -4 23 -29 18 -56 -1 -5 3 -6 9 -2 5 3 11 1 11 -4 2 -12 5 -26
9 -38 1 -5 2 -11 2 -14 -1 -4 7 -5 17 -2 24 6 43 -18 29 -37 -8 -12 -9 -12 -4
2 7 23 -11 33 -29 18 -17 -15 -20 -30 -4 -30 5 0 8 4 4 9 -3 5 -1 12 3 15 5 3
8 -5 7 -17 -1 -12 -3 -22 -5 -22 -1 0 -3 -13 -4 -28 -2 -20 1 -27 11 -23 8 3
11 2 8 -3 -3 -5 -1 -12 5 -16 7 -4 7 -12 0 -25 -14 -25 -13 -30 6 -30 10 0 14
5 10 16 -3 8 -2 12 3 9 17 -10 21 12 6 25 -8 7 -15 18 -15 24 0 6 5 4 10 -6 6
-10 19 -15 32 -12 21 4 22 4 3 -5 -11 -5 -17 -10 -12 -10 15 -2 -25 -51 -42
-51 -14 0 -14 -2 -1 -10 23 -15 26 -13 49 26 21 35 42 38 40 6 -1 -15 -2 -15
-6 1 -2 9 -8 15 -13 12 -5 -3 -6 -13 -3 -22 5 -12 3 -14 -7 -8 -8 5 -11 3 -8
-6 3 -8 12 -12 19 -10 29 7 42 6 46 -6 3 -7 -1 -13 -8 -13 -26 0 -38 -33 -23
-62 8 -16 13 -29 12 -29 -2 -1 -16 -3 -33 -4 -28 -3 -28 -2 -7 7 12 6 22 15
22 20 0 5 -4 7 -9 4 -5 -3 -15 2 -22 12 -13 16 -12 16 4 3 16 -13 18 -13 16 0
-2 7 3 25 10 38 12 21 11 23 -2 18 -8 -3 -18 -2 -23 3 -5 5 -20 1 -34 -10 -14
-11 -20 -20 -14 -20 8 0 9 -13 4 -41 -6 -34 -5 -39 8 -34 12 4 13 3 2 -10 -10
-12 -9 -15 6 -16 11 0 14 -3 7 -6 -7 -2 -13 -9 -13 -14 0 -6 4 -8 8 -5 5 3 7
-8 4 -23 -2 -16 1 -32 8 -36 8 -5 8 -10 -1 -21 -9 -11 -9 -14 1 -14 10 0 10
-3 0 -15 -10 -12 -10 -15 0 -15 10 0 10 -3 0 -15 -10 -12 -10 -15 1 -15 11 0
11 -2 -1 -10 -15 -10 -2 -16 24 -11 5 1 3 -5 -4 -14 -17 -20 -21 -68 -4 -55 7
7 11 5 11 -5 0 -8 -4 -15 -9 -15 -4 0 -8 -7 -8 -16 0 -8 4 -13 8 -10 5 3 9 -1
9 -9 0 -8 -4 -12 -9 -9 -13 8 -10 -10 5 -25 6 -8 7 -11 1 -8 -6 3 -11 0 -11
-8 0 -8 5 -11 10 -8 6 4 8 -3 5 -15 -4 -13 -1 -22 5 -22 8 0 7 -4 -2 -9 -9 -6
-10 -10 -2 -16 7 -4 10 -20 6 -42 -4 -26 -2 -32 7 -27 9 5 9 3 -1 -9 -11 -14
-11 -17 0 -18 10 0 10 -2 2 -5 -7 -3 -9 -12 -6 -21 5 -12 3 -14 -7 -8 -9 5
-11 4 -6 -4 12 -19 14 -61 3 -61 -5 0 -4 -7 3 -15 10 -12 10 -15 -1 -15 -11 0
-11 -2 1 -10 11 -7 11 -10 2 -10 -10 0 -10 -5 -2 -20 7 -13 7 -20 1 -20 -7 0
-7 -9 -2 -22 5 -13 6 -32 2 -43 -4 -11 -6 -40 -6 -65 0 -25 -4 -48 -10 -52 -6
-5 -5 -8 3 -8 9 0 10 -5 3 -17 -5 -10 -6 -24 -1 -33 5 -9 5 -22 0 -30 -4 -7
-4 -24 1 -37 6 -16 5 -22 -1 -18 -6 3 -10 2 -10 -4 0 -5 5 -13 11 -16 7 -5 3
-15 -10 -29 -12 -12 -18 -26 -14 -31 5 -4 2 -5 -4 -1 -8 4 -13 2 -13 -7 0 -8
-10 -25 -22 -39 -13 -14 -24 -31 -26 -39 -2 -8 -9 -17 -15 -21 -7 -4 -8 -8 -3
-8 6 0 1 -7 -10 -16 -10 -8 -14 -13 -9 -10 6 2 11 -4 11 -15 0 -10 -3 -19 -7
-19 -13 0 -17 -38 -5 -51 8 -9 8 -10 -3 -4 -10 6 -12 2 -6 -14 4 -13 1 -29 -7
-38 -11 -14 -11 -16 2 -8 12 7 13 6 4 -6 -6 -8 -12 -21 -12 -29 0 -8 -3 -24
-6 -35 -2 -11 -5 -24 -5 -29 -1 -5 -4 -7 -7 -3 -3 3 -15 -2 -26 -11 -48 -41
-66 -60 -61 -66 4 -3 2 -6 -4 -6 -15 0 -58 -41 -55 -52 2 -6 -5 -8 -14 -4 -12
5 -15 2 -10 -9 3 -9 2 -14 -3 -11 -12 8 -68 -22 -75 -39 -3 -8 -12 -15 -21
-15 -8 0 -15 -4 -15 -8 0 -5 -8 -9 -17 -9 -19 0 -53 33 -53 50 0 6 -3 8 -6 4
-3 -3 -17 6 -30 20 -13 14 -24 23 -24 19 0 -4 -11 4 -23 18 -13 14 -28 22 -32
18 -5 -4 -5 -2 -2 4 6 10 -21 40 -35 39 -4 0 -16 7 -26 16 -24 20 -54 33 -72
30 -8 -2 -12 1 -7 5 6 6 -34 31 -63 39 -31 8 -50 18 -50 25 0 5 -7 6 -17 3
-12 -5 -14 -3 -8 7 5 9 4 11 -3 6 -6 -4 -22 0 -35 9 -13 8 -27 12 -30 8 -4 -3
-7 0 -7 7 0 7 -3 10 -6 7 -4 -3 -16 0 -28 8 -11 8 -28 15 -38 15 -10 0 -18 5
-18 10 0 6 -3 9 -7 9 -22 -4 -33 2 -27 14 4 6 4 9 -1 5 -4 -4 -23 -1 -41 7
-19 8 -34 11 -34 7 0 -4 -6 0 -13 8 -7 8 -23 16 -36 18 -13 1 -30 10 -37 20
-7 9 -14 13 -14 8 0 -5 -11 1 -24 13 -14 13 -29 21 -33 18 -5 -3 -17 2 -25 12
-9 11 -34 22 -56 26 -22 3 -43 13 -46 21 -3 9 -10 13 -15 10 -5 -3 -12 1 -15
10 -4 12 -13 14 -32 10 -17 -5 -23 -3 -19 4 4 6 -3 6 -19 -2 -14 -6 -26 -16
-26 -21 0 -5 8 -3 18 4 9 7 14 9 10 5 -10 -12 29 -39 43 -31 6 4 5 -2 -3 -14
-12 -20 -13 -20 -19 -2 -11 29 -49 37 -49 10 0 -5 7 -5 17 -2 11 4 14 3 9 -5
-12 -19 -47 -15 -39 5 5 12 3 14 -8 8 -12 -8 -12 -6 0 8 8 10 11 20 7 24 -3 4
-13 -2 -21 -13 -13 -16 -14 -16 -9 -1 3 9 1 17 -5 17 -6 0 -11 -6 -11 -12 0
-10 -3 -10 -9 0 -12 20 -44 11 -57 -16 -6 -12 -14 -19 -17 -15 -6 5 -9 -20 -6
-43 0 -4 -5 -11 -13 -15 -10 -7 -8 -9 7 -9 18 -1 19 -1 3 -11 -23 -13 -23 -24
3 -50 12 -12 22 -26 23 -33 1 -6 6 -17 10 -25 7 -10 5 -12 -5 -6 -11 6 -12 5
-1 -6 6 -7 12 -23 12 -36 0 -13 6 -23 13 -23 7 0 8 -3 2 -8 -11 -8 -13 -34 -3
-42 4 -3 3 -12 -2 -20 -8 -12 -10 -12 -10 -1 0 11 -3 11 -15 1 -8 -7 -22 -10
-30 -6 -8 3 -15 1 -15 -5 0 -6 -4 -8 -9 -4 -5 3 -13 0 -16 -5 -5 -8 -13 -6
-25 5 -10 9 -21 15 -26 14 -18 -3 -34 1 -33 9 2 14 -13 52 -20 48 -3 -2 -7 10
-8 27 -2 18 -7 33 -13 35 -5 2 -10 9 -10 16 0 6 -9 18 -19 26 -11 7 -18 17
-15 22 3 4 -2 8 -10 8 -9 0 -16 6 -16 14 0 8 -7 17 -16 20 -10 4 -13 2 -9 -7
4 -6 0 -4 -8 5 -8 10 -20 18 -26 18 -7 0 -9 5 -5 12 5 8 2 9 -11 4 -18 -6 -18
-6 1 15 10 12 14 19 8 16 -7 -4 -14 1 -16 11 -4 14 -14 17 -51 16 -26 -1 -44
2 -41 7 3 5 0 9 -6 9 -6 0 -8 5 -5 10 4 6 3 9 -2 8 -4 -2 -24 14 -45 34 -20
20 -38 34 -41 32 -3 -3 -8 4 -12 15 -3 12 -10 21 -15 21 -5 0 -7 9 -5 20 2 11
0 20 -6 20 -5 0 -9 5 -9 11 0 5 6 7 13 3 8 -6 8 -3 -1 9 -8 9 -11 21 -7 27 3
5 -1 10 -11 10 -13 0 -14 3 -4 15 10 12 8 13 -10 10 -16 -3 -19 -1 -12 8 16
19 10 113 -6 109 -8 -1 -11 2 -7 9 5 8 10 8 18 0 25 -25 31 -5 10 34 -6 11
-12 25 -13 30 -1 6 -6 9 -11 8 -4 -2 -6 4 -2 13 3 9 0 20 -8 25 -12 7 -12 9 0
9 11 0 10 4 -4 13 -14 11 -15 16 -5 22 9 6 11 4 5 -5 -6 -9 -4 -11 4 -5 9 5
10 10 2 18 -15 15 -14 60 1 51 7 -4 8 -3 4 5 -4 6 -12 8 -18 5 -6 -4 -6 2 1
15 10 17 9 20 -4 15 -8 -4 -15 -1 -15 5 0 6 10 11 23 11 17 0 19 2 7 10 -12 8
-12 10 3 16 15 5 15 9 5 22 -7 9 -8 13 -2 9 18 -11 41 46 42 107 1 32 4 61 6
64 3 2 1 14 -5 25 -9 15 -8 18 2 12 9 -6 11 -3 6 8 -4 10 -1 17 6 18 8 0 7 2
-2 6 -11 5 -11 7 0 14 10 6 10 9 2 9 -9 0 -10 7 -3 24 6 16 5 28 -3 36 -9 9
-9 11 -1 7 13 -7 27 17 16 27 -10 10 -11 37 -1 30 5 -3 10 1 10 8 1 7 2 20 3
28 0 8 -3 18 -8 22 -6 4 -5 12 2 21 7 7 9 17 5 20 -3 4 -2 7 4 7 6 0 10 8 9
18 0 9 4 16 11 15 7 -2 10 4 7 12 -4 9 -1 22 5 29 8 10 9 16 1 21 -6 3 -8 11
-4 16 3 5 9 7 13 5 4 -3 8 1 8 8 0 9 -7 12 -16 8 -14 -5 -14 -3 -2 11 10 13
11 20 2 31 -9 11 -9 15 1 19 9 3 7 9 -7 21 l-20 16 20 -7 c18 -6 18 -5 6 10
-12 16 -12 17 5 11 15 -5 16 -4 5 4 -18 13 -23 40 -9 49 7 4 8 1 3 -7 -6 -9
-4 -11 5 -5 10 6 7 12 -11 27 -13 10 -17 16 -9 13 11 -4 16 2 18 21 2 22 -1
24 -12 15 -11 -9 -16 -9 -22 1 -4 7 -4 10 1 6 4 -4 14 -3 22 3 15 13 18 33 4
24 -5 -3 -13 -1 -16 5 -4 6 -3 10 2 9 4 -1 17 -1 27 0 20 1 20 1 0 16 -12 9
-14 14 -6 15 7 0 10 5 7 10 -4 6 -12 8 -18 4 -7 -3 -3 2 8 11 17 14 18 17 5
25 -11 7 -11 10 -2 10 7 0 10 5 7 10 -4 6 -12 8 -18 4 -7 -3 -3 2 7 10 11 9
14 16 7 16 -7 0 -9 5 -6 10 3 6 0 10 -7 10 -9 0 -9 3 2 10 11 7 11 10 2 10 -8
0 -10 5 -5 13 4 6 6 20 4 31 -1 10 2 16 7 12 5 -3 8 7 6 22 -1 14 3 33 9 41 9
11 9 13 0 8 -7 -5 -6 4 3 23 17 33 26 40 18 13 -5 -15 -4 -15 6 1 10 15 9 20
-1 27 -9 5 -9 9 -3 9 17 0 27 50 13 66 -10 12 -8 13 7 9 10 -4 7 1 -8 10 -25
14 -33 31 -29 58 0 4 -4 7 -11 7 -6 0 -1 11 12 25 27 29 33 52 18 62 -7 4 -8
1 -3 -7 5 -8 4 -11 -3 -6 -6 3 -9 15 -7 26 2 11 0 20 -6 20 -5 0 -8 5 -6 12 1
7 -4 13 -10 14 -7 1 -16 2 -19 3 -4 0 -1 8 6 16 9 11 9 15 1 15 -7 0 -9 5 -6
10 3 6 2 10 -3 10 -5 0 -8 11 -7 25 2 14 -1 27 -6 31 -5 3 -9 0 -9 -6 0 -6 -4
-8 -10 -5 -6 4 -5 11 3 19 6 8 15 12 20 9 14 -8 7 5 -10 18 -9 8 -14 9 -10 3
3 -6 0 -11 -8 -11 -13 0 -13 3 -2 16 21 24 27 50 15 57 -7 5 -8 2 -3 -6 5 -9
4 -11 -4 -6 -8 5 -7 13 3 28 10 14 12 27 7 37 -14 25 -14 33 1 42 10 7 8 9 -6
9 -16 0 -17 2 -5 17 8 9 9 14 4 11 -6 -4 -10 4 -9 20 1 15 3 27 4 27 11 0 4
37 -8 45 -11 6 -12 10 -4 10 10 0 10 5 1 21 -8 17 -8 20 1 14 14 -9 4 33 -11
50 -12 12 -11 25 2 25 5 0 7 -5 3 -12 -4 -6 -3 -8 4 -5 5 4 8 16 5 27 -3 11
-10 17 -17 13 -6 -4 -4 1 4 12 8 10 13 19 12 19 -8 2 22 56 31 56 5 0 4 -7 -3
-15 -11 -13 -10 -14 4 -9 9 3 16 10 16 15 0 4 7 5 17 2 12 -5 14 -3 8 8 -6 11
-5 11 5 2 10 -9 16 -7 30 9 14 17 20 19 38 9 20 -11 26 -8 23 11 0 4 9 5 20 3
14 -3 23 3 29 20 5 14 12 25 14 25 3 0 3 -6 0 -14 -3 -8 0 -17 7 -22 8 -5 10
-3 4 6 -6 10 -4 12 9 7 14 -6 17 -3 12 9 -4 12 -1 14 14 9 11 -4 20 -2 20 4 0
5 12 8 26 5 19 -3 24 -1 18 8 -5 9 -2 8 10 -1 14 -12 19 -12 26 -2 5 9 10 10
14 2 5 -7 13 -8 25 -1 10 5 20 8 22 6 13 -11 77 -13 75 -3 -1 7 -1 9 1 4 3 -4
10 -4 15 -1z m303 -4048 c5 4 6 0 2 -9 -3 -9 -1 -21 5 -27 6 -6 6 -12 -3 -17
-7 -5 -10 -4 -5 3 3 6 2 13 -4 17 -5 3 -10 1 -10 -6 0 -6 -8 -9 -20 -6 -11 3
-18 2 -16 -2 12 -19 14 -61 3 -54 -7 4 -21 9 -32 10 -11 1 -35 4 -53 6 -18 3
-35 1 -37 -4 -3 -4 4 -6 15 -4 11 2 20 -1 20 -7 0 -5 -7 -7 -16 -4 -12 5 -14
1 -9 -17 6 -21 5 -21 -6 -2 -18 30 -19 31 -30 15 -9 -12 -10 -11 -5 4 5 14 2
17 -10 12 -14 -5 -15 -4 -5 8 7 8 10 20 6 26 -3 6 3 10 15 10 18 0 19 3 10 20
-7 14 -7 20 0 20 5 0 10 -7 10 -15 0 -8 4 -15 9 -15 5 0 14 7 21 15 7 8 16 15
21 15 12 0 11 -30 -1 -31 -40 -5 -67 -19 -67 -35 0 -15 2 -15 13 1 7 9 18 14
23 10 6 -3 25 7 42 24 36 37 44 39 28 9 -12 -22 -11 -22 8 -5 11 9 23 14 26
10 4 -3 7 -1 7 5 0 7 7 9 18 5 15 -6 16 -5 2 13 -14 17 -13 18 1 7 9 -7 20 -9
24 -5z"/>
<path d="M1050 7215 c-7 -8 -9 -15 -4 -15 5 0 -12 -14 -38 -31 -50 -33 -128
-58 -109 -35 7 8 5 12 -9 13 -12 1 -17 -3 -14 -12 3 -8 -1 -12 -13 -12 -9 1
-18 -4 -19 -10 -1 -7 -2 -18 -3 -24 0 -5 -6 -7 -13 -3 -8 5 -9 2 -5 -9 4 -10
10 -24 13 -32 3 -8 1 -15 -6 -15 -6 0 -8 -5 -3 -12 4 -7 6 -21 4 -32 -1 -10 1
-16 7 -13 5 4 9 0 9 -8 0 -8 -3 -12 -7 -10 -4 2 -7 -2 -7 -10 0 -8 4 -12 9 -9
4 3 8 -2 8 -10 0 -8 9 -17 19 -21 13 -4 18 -12 14 -22 -4 -11 -2 -14 5 -9 8 5
10 1 5 -10 -5 -12 -3 -15 6 -9 10 6 11 3 2 -14 -7 -11 -8 -21 -2 -21 5 0 12
-11 15 -25 4 -14 11 -25 16 -25 5 0 6 -7 3 -17 -5 -12 -3 -14 8 -8 12 8 12 6
0 -8 -10 -13 -10 -17 -1 -17 9 0 9 -4 -1 -17 -16 -18 -16 -19 14 -52 12 -13
16 -21 10 -17 -7 4 -13 2 -13 -3 0 -6 4 -11 10 -11 5 0 8 -14 6 -30 -2 -20 2
-33 12 -39 9 -5 13 -15 9 -25 -4 -9 -2 -16 4 -16 6 0 7 -4 4 -10 -3 -5 0 -10
7 -10 10 0 10 -2 -1 -9 -11 -7 -11 -10 0 -15 11 -5 11 -7 2 -12 -7 -3 -13 -10
-13 -15 0 -6 5 -7 10 -4 9 5 15 -15 11 -37 0 -4 3 -18 8 -31 7 -17 6 -29 -2
-37 -9 -10 -9 -11 1 -6 8 5 12 -1 12 -18 0 -14 6 -26 13 -26 8 0 7 -4 -3 -10
-10 -7 -12 -12 -4 -17 6 -5 10 -16 8 -26 -1 -9 2 -14 7 -11 6 3 8 -6 5 -21 -4
-22 -2 -26 12 -20 13 5 14 3 5 -5 -7 -8 -8 -22 -3 -40 5 -16 5 -32 2 -36 -4
-4 -1 -4 6 0 12 7 13 3 15 -66 0 -21 5 -38 10 -38 5 0 4 -6 -2 -14 -8 -10 -9
-16 -1 -21 5 -3 10 -19 10 -36 0 -16 5 -29 10 -29 6 0 10 -5 10 -11 0 -5 -6
-7 -12 -3 -10 6 -10 5 -1 -7 6 -8 13 -30 15 -49 1 -19 8 -38 13 -42 6 -4 11
-16 11 -28 1 -11 3 -21 4 -22 1 -2 3 -16 4 -31 2 -15 9 -33 16 -40 10 -9 11
-9 5 2 -5 9 -4 12 3 8 5 -4 8 -16 5 -28 -3 -12 -1 -24 6 -28 6 -4 12 -19 13
-34 1 -15 5 -27 9 -27 3 0 6 -8 6 -17 0 -34 3 -44 11 -39 5 3 9 -1 9 -9 0 -8
-5 -15 -11 -15 -6 -1 0 -7 14 -15 14 -8 19 -14 13 -15 -7 0 -13 -7 -13 -16 0
-8 3 -13 7 -11 5 3 9 -6 10 -20 0 -14 7 -29 15 -34 10 -7 11 -9 0 -9 -10 0 -9
-4 2 -16 9 -8 14 -19 11 -24 -3 -5 4 -12 16 -15 17 -6 19 -9 8 -16 -10 -6 -11
-9 -1 -9 6 0 12 -6 12 -13 0 -7 8 -22 18 -33 19 -20 22 -26 22 -45 0 -5 5 -7
10 -4 6 4 10 -5 10 -20 0 -15 4 -24 10 -20 6 3 10 -1 10 -9 0 -9 6 -16 13 -16
8 0 7 -4 -3 -10 -10 -6 -11 -10 -2 -10 6 0 12 -6 12 -13 0 -7 8 -22 18 -33 19
-20 22 -26 22 -45 0 -5 4 -7 10 -4 6 3 7 -1 4 -9 -3 -9 -1 -16 6 -16 6 0 9 -4
5 -9 -3 -6 3 -14 12 -20 11 -6 13 -11 5 -11 -7 0 -10 -5 -7 -10 4 -6 11 -7 17
-4 7 5 9 1 5 -9 -3 -9 1 -18 10 -21 8 -4 13 -13 9 -21 -3 -8 -1 -15 3 -15 5 0
21 -24 36 -52 15 -29 33 -60 41 -69 8 -9 11 -19 7 -22 -3 -4 -1 -7 5 -7 7 0
12 -8 12 -17 0 -15 2 -16 10 -3 8 12 10 10 10 -9 0 -13 8 -30 18 -38 11 -10
12 -12 2 -8 -10 4 -9 2 3 -8 9 -8 17 -18 17 -24 0 -5 6 -15 13 -21 6 -7 12
-17 12 -22 0 -13 64 -80 76 -80 6 0 7 -5 4 -10 -4 -6 -3 -9 2 -8 12 4 54 -28
46 -35 -3 -4 -1 -7 6 -7 6 0 25 -13 41 -30 16 -16 34 -30 40 -30 6 0 8 -4 5
-10 -3 -6 1 -10 9 -10 14 0 20 -12 17 -32 0 -5 8 -8 20 -8 11 0 18 -4 14 -9
-3 -5 4 -12 15 -16 11 -3 20 -11 20 -16 0 -6 4 -7 10 -4 5 3 10 1 10 -4 0 -6
7 -11 17 -11 9 0 14 -3 10 -6 -13 -13 17 -32 33 -21 8 6 12 8 8 3 -6 -7 54
-76 65 -76 2 0 2 12 -1 28 -2 15 -2 24 2 21 3 -3 7 -18 8 -34 2 -17 9 -30 20
-33 10 -2 18 -8 18 -13 0 -5 7 -9 16 -9 9 0 12 -5 8 -12 -5 -9 -2 -8 9 1 15
12 17 12 10 -4 -5 -14 -3 -17 9 -12 21 7 31 -3 18 -18 -10 -12 34 -41 54 -36
5 1 6 -5 3 -13 -4 -9 -3 -15 1 -15 15 2 52 -14 47 -21 -4 -6 45 -34 53 -30 2
1 12 -8 21 -19 10 -12 26 -21 35 -21 11 0 14 -5 10 -12 -5 -8 -2 -9 9 -5 10 3
17 2 17 -3 0 -5 11 -12 25 -16 14 -3 25 -10 25 -15 0 -5 7 -9 16 -9 8 0 12 -4
9 -10 -3 -6 1 -7 9 -4 9 3 16 1 16 -4 0 -11 38 -28 53 -24 4 1 7 -3 7 -8 0 -6
11 -10 24 -10 14 0 28 -4 31 -10 3 -5 15 -10 26 -10 11 0 17 -4 14 -10 -3 -5
0 -7 8 -4 8 3 18 1 21 -5 4 -6 13 -8 21 -4 9 3 22 -1 31 -8 10 -8 18 -9 22 -3
6 8 43 11 57 4 12 -6 32 -6 53 2 14 5 22 4 22 -3 0 -8 4 -8 14 0 11 9 15 9 19
-1 4 -11 6 -10 6 0 1 7 6 10 11 7 6 -4 17 -2 25 5 10 9 16 7 24 -7 7 -12 10
-13 11 -4 0 10 3 11 14 2 10 -8 16 -9 21 -1 3 6 10 8 15 5 5 -3 12 -1 15 5 5
8 11 7 21 -1 9 -7 14 -8 14 -1 0 12 48 10 69 -2 10 -7 12 -5 6 4 -6 10 -4 12
8 7 9 -3 25 3 39 16 13 12 36 28 51 36 15 8 27 20 27 28 0 7 5 13 11 13 5 0 7
-6 4 -12 -4 -7 0 -5 8 4 8 10 17 15 20 11 4 -3 7 5 7 18 0 17 3 20 9 11 6 -10
10 -8 14 8 3 13 10 19 17 15 6 -3 9 -3 8 2 -2 5 17 30 42 55 75 77 94 99 97
116 1 9 7 18 13 20 5 2 8 8 4 13 -3 5 0 9 6 9 6 0 8 5 5 10 -3 6 -2 10 4 10 6
0 7 7 4 17 -4 11 -3 14 5 9 7 -4 12 -2 12 5 0 7 10 24 23 37 12 14 15 21 7 17
-10 -6 -9 -1 3 13 11 11 16 26 12 31 -3 6 -2 11 4 11 8 0 20 23 27 53 1 4 3
10 4 15 1 4 2 10 1 15 0 4 4 7 10 7 5 0 7 5 4 10 -4 6 -3 16 2 23 5 7 9 26 9
44 -1 17 3 29 8 25 5 -3 7 2 3 10 -3 9 0 21 6 28 9 10 8 12 -5 7 -10 -4 -18
-2 -18 3 0 6 3 10 8 10 4 0 8 11 8 25 1 14 -1 23 -5 21 -3 -2 -5 19 -3 47 2
41 1 49 -8 37 -10 -12 -11 -12 -5 5 12 34 14 56 6 51 -4 -3 -8 20 -9 50 0 30
3 52 8 49 11 -7 7 29 -5 37 -6 5 -4 8 5 8 13 0 13 1 0 10 -12 8 -12 10 3 16
14 5 15 9 6 20 -9 11 -8 14 1 14 8 0 10 9 6 26 -4 16 -2 32 6 42 11 13 11 14
-1 7 -11 -6 -13 -4 -8 9 4 10 3 15 -3 11 -5 -3 -17 -2 -26 3 -15 8 -15 10 0
15 10 4 15 3 11 -3 -4 -6 1 -7 11 -3 10 4 13 8 7 10 -7 3 -9 11 -6 20 4 9 -2
22 -16 32 -21 16 -21 17 -2 17 11 0 17 -5 14 -11 -4 -5 -2 -6 3 -2 13 12 13
57 0 51 -6 -3 -4 0 5 8 9 7 14 19 11 27 -2 8 -1 11 4 8 9 -5 13 18 17 84 1 18
6 25 16 21 10 -4 13 -1 8 11 -3 9 -2 19 4 22 5 4 7 11 4 16 -4 5 1 12 10 15 9
4 15 14 14 23 -1 9 0 18 1 21 7 20 9 50 2 46 -5 -3 -9 1 -9 9 0 8 4 12 8 10 9
-6 17 16 12 33 -3 6 -9 12 -15 12 -6 0 -5 -7 3 -16 11 -14 10 -15 -7 -12 -11
2 -18 -2 -16 -10 1 -6 -3 -11 -10 -10 -7 2 -13 -3 -14 -9 -1 -7 -3 -16 -4 -20
-1 -5 -2 -11 -1 -15 0 -5 -3 -8 -9 -8 -5 0 -10 7 -10 15 0 8 5 15 11 15 5 0 7
5 4 10 -5 8 -12 7 -23 -2 -14 -11 -14 -9 1 8 9 11 15 23 12 26 -3 3 2 11 12
19 11 9 14 10 9 2 -4 -7 -2 -13 3 -13 6 0 11 11 11 25 0 16 5 23 13 19 7 -2
13 4 14 16 1 11 -3 20 -8 20 -6 0 -7 -4 -4 -10 3 -5 1 -10 -4 -10 -14 0 -14
17 0 26 8 4 7 9 -2 16 -11 8 -11 11 -1 15 8 3 5 11 -12 24 -28 22 -44 25 -27
6 6 -8 7 -18 3 -22 -4 -5 2 -5 12 -1 20 7 20 7 0 -15 -19 -22 -19 -22 1 -15
16 6 17 5 8 -5 -10 -10 -15 -9 -28 1 -16 13 -45 -1 -45 -23 0 -7 4 -7 12 1 15
15 28 15 28 0 0 -6 -3 -8 -7 -5 -3 4 -12 2 -19 -4 -10 -9 -15 -7 -20 5 -5 13
-9 13 -26 -7 -11 -12 -16 -16 -12 -8 5 10 3 13 -9 8 -11 -4 -14 -2 -10 9 6 17
20 18 26 2 3 -8 6 -5 6 6 1 13 6 16 17 12 14 -5 15 -4 4 9 -10 12 -10 15 4 15
14 0 15 4 6 20 -6 11 -7 20 -3 20 4 0 1 5 -7 11 -11 8 -9 9 10 3 22 -6 23 -5
12 9 -7 8 -12 19 -11 23 4 22 -2 35 -12 28 -6 -3 -4 5 5 18 9 14 13 28 9 33
-5 4 -2 5 5 1 7 -4 12 -1 12 8 0 19 16 21 26 4 4 -7 3 -8 -4 -4 -8 5 -10 2 -6
-8 3 -9 9 -14 13 -12 3 2 6 -17 5 -42 -2 -61 20 -92 46 -65 36 39 54 170 22
158 -12 -4 -11 0 4 16 10 12 14 19 8 16 -7 -4 -15 0 -18 9 -3 8 -2 12 4 9 17
-10 11 11 -9 34 -14 16 -21 18 -24 9 -3 -7 -6 -3 -6 10 -1 12 -6 22 -12 22 -5
0 -7 -5 -3 -12 4 -6 3 -8 -4 -5 -5 4 -8 17 -4 29 3 14 1 19 -6 14 -18 -11 -5
35 14 48 21 16 15 45 -12 62 -19 13 -24 12 -48 -11 -15 -14 -33 -22 -39 -19
-7 4 -9 4 -6 0 3 -3 -11 -25 -32 -47 -22 -23 -39 -46 -39 -51 0 -5 -5 -6 -12
-2 -6 4 -8 3 -5 -3 6 -10 -4 -23 -67 -95 -9 -10 -16 -22 -16 -28 0 -5 -4 -10
-10 -10 -5 0 -10 -7 -10 -15 0 -8 -5 -15 -11 -15 -5 0 -8 -4 -5 -9 3 -5 -3
-20 -14 -34 -11 -14 -20 -32 -20 -41 0 -9 -5 -16 -12 -16 -6 0 -8 -3 -5 -7 4
-3 0 -17 -9 -31 -9 -13 -11 -21 -4 -17 7 4 4 -4 -5 -19 -10 -14 -15 -26 -12
-26 4 0 0 -18 -8 -41 -8 -23 -12 -45 -9 -50 3 -5 0 -9 -5 -9 -6 0 -11 -8 -11
-18 0 -10 -5 -23 -12 -30 -9 -9 -9 -12 3 -12 10 -1 9 -5 -5 -15 -11 -8 -17
-15 -14 -15 4 0 3 -13 -2 -30 -5 -18 -5 -30 0 -30 6 0 6 -10 0 -25 -7 -18 -6
-25 3 -25 8 0 7 -4 -3 -10 -13 -9 -13 -10 0 -10 9 0 11 -3 4 -8 -5 -4 -9 -26
-9 -49 1 -24 -1 -43 -6 -43 -8 0 -4 -39 6 -48 2 -3 -3 -11 -13 -19 -9 -7 -12
-13 -7 -12 22 3 25 -2 15 -21 -6 -11 -7 -20 -3 -19 20 3 27 -2 13 -11 -10 -6
-11 -10 -2 -10 6 0 12 -7 12 -15 0 -7 8 -19 18 -24 9 -6 14 -11 10 -11 -4 0 4
-12 17 -26 27 -29 32 -44 14 -44 -8 0 -8 -4 1 -15 6 -8 8 -20 4 -26 -4 -7 -3
-9 3 -6 6 4 15 -5 22 -19 8 -19 8 -24 -1 -18 -6 4 -4 -3 5 -17 19 -26 22 -43
7 -34 -6 4 -7 -2 -2 -17 4 -13 8 -38 7 -55 -1 -18 2 -33 6 -33 4 0 6 -18 5
-39 0 -22 2 -37 7 -34 12 7 8 -8 -7 -22 -7 -8 -16 -12 -19 -9 -3 3 -4 -6 -3
-20 2 -14 -1 -24 -7 -23 -5 1 -11 -7 -13 -17 -1 -10 -9 -23 -16 -27 -7 -5 -8
-9 -3 -9 6 0 3 -4 -5 -10 -9 -5 -19 -5 -27 2 -11 8 -12 7 -7 -7 5 -12 4 -16
-3 -12 -14 9 -71 -20 -86 -44 -6 -10 -18 -19 -25 -19 -7 0 -10 -4 -7 -10 3 -6
-1 -10 -10 -10 -9 0 -13 -5 -10 -10 8 -13 -20 -42 -30 -32 -5 4 -6 0 -2 -9 4
-13 1 -16 -13 -12 -12 3 -20 -2 -25 -17 -4 -12 -9 -19 -12 -16 -4 3 -13 0 -21
-7 -13 -10 -15 -9 -8 3 4 9 2 8 -7 -2 -8 -10 -17 -15 -21 -11 -3 4 -13 -2 -22
-13 -8 -10 -13 -13 -9 -6 3 6 1 12 -4 12 -6 0 -11 -3 -11 -7 0 -13 -81 -8 -88
4 -4 7 -16 12 -27 12 -41 1 -55 5 -55 14 0 5 -6 4 -14 -2 -11 -10 -17 -8 -25
6 -10 17 -10 17 -11 -2 -1 -18 -2 -18 -10 3 -5 12 -12 22 -15 22 -4 0 -3 -6 1
-12 5 -9 3 -9 -9 1 -9 7 -15 16 -13 20 4 6 -19 11 -61 14 -7 0 -13 4 -13 9 0
4 -7 8 -16 8 -14 0 -15 -2 -3 -17 13 -16 12 -17 -3 -5 -10 8 -14 20 -11 29 4
10 2 14 -4 10 -6 -4 -16 0 -23 8 -15 18 -45 21 -34 3 4 -6 3 -8 -4 -4 -6 3 -9
15 -7 25 2 12 -2 18 -13 17 -9 0 -16 5 -14 12 2 10 -2 10 -19 1 -13 -6 -19 -7
-15 -1 3 6 -7 24 -23 40 -17 16 -27 32 -24 36 4 3 -3 6 -15 6 -12 0 -22 6 -22
14 0 8 -9 18 -20 21 -11 3 -20 13 -20 22 0 10 -6 14 -20 10 -11 -3 -18 0 -17
7 1 6 -5 10 -13 8 -11 -3 -10 2 4 17 15 17 16 21 4 21 -8 0 -21 11 -28 25 -7
14 -18 25 -23 25 -6 0 -3 -8 6 -18 14 -15 15 -19 2 -19 -8 0 -12 3 -10 6 5 9
-20 39 -36 43 -8 2 -20 11 -27 21 -11 14 -17 15 -28 6 -17 -14 -19 2 -3 18 9
9 7 12 -10 10 -15 -1 -20 -6 -16 -17 4 -11 1 -10 -9 3 -15 19 -31 23 -20 5 4
-7 -2 -5 -13 5 -19 17 -26 67 -11 82 8 8 -48 65 -63 65 -6 0 -6 6 0 18 7 14 6
18 -9 19 -28 2 -71 34 -63 47 4 6 -1 5 -10 -2 -20 -17 -37 -8 -32 18 2 12 -2
20 -9 20 -9 0 -12 -9 -8 -25 2 -14 0 -25 -6 -25 -6 0 -8 9 -5 19 4 16 1 19
-19 15 l-23 -5 23 10 c28 13 28 27 0 42 -12 7 -29 19 -38 28 -8 10 -11 11 -6
4 6 -10 4 -12 -8 -7 -9 3 -16 10 -16 16 0 5 -5 6 -12 2 -8 -5 -9 -2 -5 9 4 12
1 17 -9 17 -11 0 -15 6 -11 20 3 14 1 18 -6 13 -21 -13 -41 -13 -28 0 14 14
15 40 1 32 -5 -3 -10 1 -10 11 0 9 -9 25 -21 34 -23 21 -38 76 -17 65 7 -4 5
0 -5 8 -11 9 -14 18 -8 21 12 8 -38 81 -70 104 -13 9 -19 21 -16 33 3 10 0 17
-7 16 -6 -1 -11 6 -11 16 0 10 -7 22 -15 27 -12 8 -12 10 -1 10 10 0 7 6 -7
18 -17 15 -19 21 -9 32 9 10 9 11 0 6 -8 -4 -13 -1 -13 8 0 9 -5 16 -11 16 -8
0 -7 6 2 17 8 9 9 14 3 10 -7 -4 -23 12 -40 38 -15 25 -34 45 -41 45 -7 0 -13
5 -13 10 0 6 -8 10 -17 10 -15 0 -16 2 -3 10 15 10 4 15 -25 11 -5 -1 -2 5 8
13 16 12 16 14 2 20 -9 3 -13 10 -10 16 6 10 -7 14 -32 11 -6 -1 -15 3 -18 9
-4 7 0 10 11 8 11 -2 18 2 17 10 -2 6 2 12 7 12 6 0 10 4 10 10 0 5 -7 7 -15
3 -9 -3 -15 -2 -13 3 5 17 -23 55 -35 47 -7 -4 -5 2 3 12 8 10 10 16 4 12 -7
-4 -15 0 -18 9 -4 10 -2 13 7 9 6 -4 5 -1 -4 7 -9 7 -15 21 -13 31 1 9 -3 17
-9 17 -5 0 -7 3 -4 6 4 4 -4 21 -16 38 -12 17 -21 37 -19 43 2 7 -2 13 -8 13
-5 0 -10 9 -10 20 0 11 -5 20 -11 20 -5 0 -7 5 -4 10 3 6 0 10 -7 10 -9 0 -9
3 2 10 8 5 10 10 5 10 -16 0 -47 58 -35 65 6 4 5 12 -5 21 -8 9 -13 19 -10 24
3 5 -1 11 -7 13 -8 4 -9 6 -2 6 8 1 8 12 -2 41 -8 21 -12 45 -10 52 1 7 1 9
-2 5 -5 -10 -32 39 -32 59 0 8 -5 14 -11 14 -8 0 -7 5 1 16 11 12 11 15 -1 12
-9 -2 -14 5 -13 19 1 13 -3 20 -7 17 -5 -3 -9 4 -9 15 0 12 -5 21 -11 21 -6 0
-9 7 -6 15 4 8 2 17 -4 20 -5 4 -7 10 -4 15 3 4 -2 13 -10 20 -7 6 -11 19 -8
27 5 12 3 14 -7 8 -10 -6 -12 -4 -7 8 3 9 2 19 -4 22 -5 4 -7 11 -4 16 4 5 1
9 -6 9 -8 0 -7 5 2 17 8 9 9 14 3 10 -7 -4 -14 3 -18 17 -3 13 -9 32 -13 42
-5 13 -3 15 7 9 9 -5 11 -4 6 4 -4 6 -11 9 -16 6 -5 -3 -11 -1 -15 5 -3 5 0
10 7 10 10 0 10 2 0 9 -8 5 -15 20 -15 34 -1 14 -5 23 -8 21 -4 -2 -10 3 -13
12 -3 8 -2 13 2 10 4 -2 8 4 9 14 1 11 -2 22 -8 25 -5 3 -6 -1 -3 -9 3 -9 2
-16 -4 -16 -11 0 -11 18 2 38 5 8 1 21 -11 34 -10 12 -12 18 -6 14 16 -9 5 25
-11 36 -8 6 -8 8 0 8 6 0 11 7 11 15 0 8 -4 15 -9 15 -5 0 -6 5 -3 11 4 6 13
8 21 5 11 -4 12 -2 4 14 -7 13 -7 21 0 25 6 3 8 17 6 30 -3 14 0 28 6 31 6 4
8 2 4 -4 -3 -6 -3 -13 2 -16 4 -2 8 6 8 19 0 13 -4 21 -8 19 -4 -3 -8 -1 -8 5
0 6 -7 7 -17 4 -11 -4 -14 -3 -9 5 10 17 1 15 -14 -3z"/>
</g>
</svg>
