<?xml version="1.0" ?>
<svg xmlns="http://www.w3.org/2000/svg" xmlns:ev="http://www.w3.org/2001/xml-events" xmlns:xlink="http://www.w3.org/1999/xlink" baseProfile="full" height="600px" version="1.1" viewBox="876.164826647148 -2952.189336889104 4844.943619620302 7005.839885146583" width="415px">
	<defs/>
	<path d="M 2426.4,-2355.0 C 2326.81824,-2226.92994 2403.1986,-2318.0914199999997 2305.2,-2160.6 C 2279.9911199999997,-2076.0720000000006 2160.7137,-1849.7711999999995 2176.5,-1925.85 C 2110.98054,-1892.5784399999995 2078.83914,-1658.7505800000001 2084.4,-1721.3999999999999 C 2061.68532,-1689.9533999999999 2037.73998,-1544.2805999999996 2064.0,-1575.6 C 2075.74578,-1583.2677599999997 1975.0057199999999,-1259.6551799999997 2026.1999999999998,-1438.8 C 2027.96022,-1401.4190399999995 1963.4470199999998,-1283.6545200000003 1998.6,-1341.0 C 1971.69204,-1229.7109200000002 1970.95716,-1161.4271999999996 1951.6499999999999,-1103.85 C 1951.0513799999999,-1075.0841999999998 1942.89972,-892.8189 1943.3999999999999,-955.1999999999999 C 1916.0045999999998,-913.8641399999998 1912.95894,-805.8307199999998 1924.1999999999998,-850.8 C 1912.7121,-824.57352 1883.62962,-657.1077600000002 1903.8,-723.6 C 1906.82796,-660.4947599999999 1868.1429,-517.16628 1889.925,-574.05 C 1914.58998,-543.3333599999997 1865.57226,-188.6324399999998 1894.1999999999998,-327.59999999999997 C 1891.128,-262.02924 1952.1187799999998,-44.6858399999997 1921.8,-112.2 C 1923.4336199999998,-105.81936000000006 2013.75276,60.93089999999974 1962.0,39.6 C 1914.9081600000002,57.454140000000194 1948.38048,165.1286399999999 1957.1999999999998,136.79999999999998 C 1970.8315199999997,193.52214 2007.21534,295.20155999999986 2016.0,338.4 C 2017.09632,369.04842000000025 2088.4425,503.3272200000001 2057.475,478.275 C 2085.3393,547.3399199999998 2133.35646,684.7323599999997 2112.0,638.4 C 2161.27632,796.9862400000002 2117.7232799999997,695.7033000000001 2179.2,855.6 C 2205.72738,895.8457799999999 2267.38944,1044.24906 2239.35,1008.0749999999999 C 2270.40264,1066.6069200000002 2336.9858999999997,1178.29866 2303.025,1125.5249999999999 C 2321.53092,1186.3173599999998 2416.52136,1359.9254999999998 2390.4,1306.8 C 2431.2852,1381.2932999999998 2495.37876,1522.27362 2463.6749999999997,1457.925 C 2507.4661199999996,1512.35802 2591.95938,1695.2184 2557.7999999999997,1632.0 C 2610.6240599999996,1703.0486999999998 2422.8502799999997,1728.16758 2511.6,1755.0 C 2446.88388,1739.5899 2298.8946,1752.47946 2345.4,1753.8 C 2324.10042,1755.1557599999999 2163.09348,1775.95266 2208.0,1771.2 C 2155.61538,1776.6050400000001 1994.50146,1783.19808 2049.0,1796.3999999999999 C 2044.68036,1830.57072 1887.72732,1862.8534799999998 1932.6,1831.2 C 1841.2612799999997,1873.1404200000002 1656.79134,1967.58828 1729.8,1926.6 C 1665.6676799999998,1939.65402 1502.7816,2066.85354 1561.575,2037.0749999999998 C 1535.8602600000002,2070.7880999999998 1426.34448,2180.1933599999998 1449.6,2140.7999999999997 C 1356.0656399999998,2235.9426599999997 1384.0199999999998,2268.0919799999997 1332.3,2294.9249999999997 C 1289.7474599999998,2514.54492 1268.32314,2577.20352 1292.40936,2634.51564 C 1306.81248,2645.53194 1369.4823000000001,2784.83706 1355.85,2769.375 C 1373.31342,2850.4085400000004 1359.567,2761.41414 1405.2,2869.2 C 1464.11292,2928.1685399999997 1420.54212,2990.0557799999997 1527.6,2991.6 C 1560.83814,2991.79962 1589.91858,2993.81436 1589.325,3001.0499999999997 C 1635.3309000000002,3024.3710519999995 1827.2436,2991.7764599999996 1773.0,3000.6 C 1810.52928,3001.32234 1937.55618,2943.65496 1919.85,2972.325 C 1949.3936399999998,2959.9101 2051.3298,2981.42976 2008.5,2975.85 C 2020.3434,3018.298248 1899.66726,3184.0710599999998 1924.1999999999998,3138.0 C 1885.10424,3213.0977279999997 1867.7200799999996,3286.5455819999997 1845.225,3379.0499999999997 C 1825.8543599999998,3453.8030579999995 2029.38012,3397.0061579999997 1986.0,3467.4 C 2081.11056,3463.285002 2186.58366,3414.74706 2156.4,3420.0 C 2204.9610000000002,3401.928186 2344.43604,3375.717126 2262.6,3382.7999999999997 C 2272.08468,3359.857584 2400.6985799999998,3343.6640639999996 2343.0,3367.95 C 2394.22896,3368.593692 2547.5485200000003,3272.2936379999996 2474.4,3320.4 C 2457.4321800000002,3331.777842 2605.38066,3267.7319580000003 2582.4,3246.6 C 2622.02208,3193.225422 2669.05968,3169.7530619999998 2643.6,3205.7999999999997 C 2688.5216399999995,3235.1207039999995 2805.6950999999995,3173.4400319999995 2784.075,3176.5499999999997 C 2810.1906599999998,3145.3536119999994 2906.5242599999997,3118.6864259999998 2875.2,3133.7999999999997 C 2933.0650799999994,3149.505192 2967.2602799999995,3059.4654299999997 2991.75,3096.9 C 2991.5803800000003,3067.288194 3078.54156,3006.22866 3073.7999999999997,3022.2 C 3132.3686999999995,2963.60904 3211.5973799999997,2835.88944 3170.4,2908.7999999999997 C 3198.7246800000003,2839.2514799999994 3268.4679,2718.16236 3248.325,2782.5 C 3267.7528799999995,2767.4949 3323.60268,2629.20882 3306.0,2670.0 C 3332.0065799999998,2632.0936199999996 3377.38296,2512.89138 3364.725,2551.35 C 3362.40672,2529.2494199999996 3393.9716999999996,2421.33036 3387.0,2445.0 C 3422.57874,2413.15458 3422.72994,2417.73432 3433.7999999999997,2417.4 C 3447.2915399999997,2356.23054 3416.60646,2282.95422 3464.4,2349.0 C 3405.6057600000004,2317.4507399999998 3497.7127800000003,2197.77228 3454.7999999999997,2256.0 C 3484.2601799999998,2221.57926 3435.5074799999998,2077.8862799999997 3419.85,2133.525 C 3453.37968,2109.47832 3407.6575199999997,1983.37956 3409.65,2001.675 C 3377.12556,1909.25226 3275.28348,1683.46578 3309.6,1760.3999999999999 C 3286.6377599999996,1717.8582 3229.3423199999997,1603.8538199999998 3247.7999999999997,1642.2 C 3183.54114,1496.27754 3079.7047199999997,1368.96186 2986.7999999999997,1241.3999999999999 C 2972.1573,1195.7697 2881.85274,1023.61062 2884.875,1071.825 C 2862.09984,1023.5892 2819.7912,908.64228 2809.2,937.8 C 2796.42528,838.1391600000002 2765.64876,660.72954 2774.4,731.4 C 2744.64918,652.7858999999999 2806.66776,480.6741599999999 2657.5499999999997,504.75 C 2583.2338799999998,466.3830599999998 2540.73492,341.84244 2592.6,364.8 C 2552.47302,281.96790000000004 2414.90478,32.249579999999696 2455.7999999999997,102.6 C 2448.5844599999996,41.4632999999998 2401.9339199999995,-103.04898000000009 2408.4,-48.6 C 2398.68924,-117.2277 2341.4128800000003,-317.5240199999999 2350.7999999999997,-276.0 C 2328.5111999999995,-330.2214599999999 2271.8334,-526.0892999999998 2303.4,-471.59999999999997 C 2276.75706,-535.4221799999997 2249.5752,-846.5043599999997 2255.4,-744.0 C 2251.50726,-870.5787 2247.60054,-1002.5810999999999 2274.825,-1110.45 C 2264.66196,-1144.8492599999997 2291.4851999999996,-1300.4550600000002 2290.725,-1252.425 C 2319.7463399999997,-1262.46828 2356.7241599999998,-1413.0436200000004 2328.0,-1371.6 C 2322.74004,-1445.3549999999996 2289.6656399999997,-1322.59596 2276.475,-1320.675 C 2262.7428,-1271.8630800000003 2258.86752,-1303.0218600000003 2233.7999999999997,-1314.0 C 2264.9134799999997,-1352.9807399999997 2292.9956399999996,-1376.0120999999995 2274.0,-1378.8 C 2320.4091,-1465.9378799999995 2307.594,-1400.45862 2293.7999999999997,-1396.8 C 2367.9844799999996,-1370.3621999999998 2336.3024399999995,-1388.9843400000004 2345.4,-1456.5 C 2256.0146400000003,-1440.26004 2353.70202,-1485.9049799999998 2327.325,-1517.55 C 2395.93068,-1612.9069200000001 2341.67022,-1496.05494 2355.6,-1518.0 C 2346.44508,-1446.8679599999996 2440.6967999999997,-1601.4385200000004 2419.2,-1562.25 C 2463.90804,-1559.52684 2492.9428199999998,-1757.5686600000001 2495.4,-1719.0 C 2485.6066800000003,-1735.8578999999997 2439.07872,-1787.1659399999996 2480.4,-1828.8 C 2495.07036,-1922.7934199999995 2474.6811000000002,-2090.9888400000004 2489.1749999999997,-2000.6999999999998 C 2524.5225599999994,-2050.4549999999995 2557.4200199999996,-2156.7447 2538.0,-2109.6 C 2583.13218,-2229.9404999999992 2568.41574,-2283.1434600000002 2570.5499999999997,-2251.5 C 2594.1452999999997,-2359.9895399999996 2533.21254,-2243.18538 2525.4,-2257.7999999999997 C 2507.22588,-2338.02114 2459.14188,-2404.5419999999995 2477.475,-2339.9249999999997 C 2511.66078,-2366.6626799999995 2440.21554,-2356.97064 2426.4,-2354.9999999999995 M 2280.0,-1957.1999999999998 C 2347.98024,-1932.3256199999998 2350.85406,-1851.954 2310.01932,-1887.4923599999993 C 2269.1782799999996,-1843.6798199999996 2436.6186,-1855.232519999999 2343.6,-1833.6 C 2295.27996,-1834.4276399999999 2346.93468,-1796.61294 2352.0,-1743.6 C 2305.15878,-1788.8072999999995 2321.7243,-1711.8647400000004 2309.4,-1812.6 C 2268.22884,-1813.8659399999997 2358.99102,-1624.74672 2324.475,-1705.5 C 2363.26266,-1684.5264599999996 2441.02878,-1723.8412799999994 2389.7999999999997,-1720.8 C 2353.7068799999997,-1766.4222000000002 2579.80734,-1693.9983 2413.875,-1696.6499999999999 C 2470.9117800000004,-1624.90074 2404.07508,-1735.5799799999995 2389.7999999999997,-1681.2 C 2448.7812,-1666.5477599999995 2413.8245399999996,-1625.4117000000003 2347.2,-1648.2 C 2334.372,-1596.5857199999996 2259.9986999999996,-1575.5156399999996 2316.0,-1569.6 C 2252.07786,-1544.4028800000003 2220.29976,-1521.9369600000005 2246.4,-1542.0 C 2218.2549,-1555.6366800000003 2309.3235,-1602.8993999999998 2258.1749999999997,-1599.8999999999999 C 2310.19314,-1687.99458 2300.6493599999994,-1726.8813 2277.0,-1665.6 C 2309.5167,-1666.48578 2259.6027,-1729.6820400000004 2259.0,-1755.0 C 2259.98694,-1793.4421799999996 2218.13658,-1850.2825799999998 2242.2,-1848.0 C 2274.67494,-1917.5619 2257.3564199999996,-2017.6652400000003 2270.4,-1952.3999999999999 C 2281.19202,-1975.42698 2266.6461,-2000.6239199999998 2280.0,-1957.1999999999998 M 2625.0,494.4 C 2615.7729600000002,552.7375199999998 2597.27994,631.1996399999998 2649.0,614.4 C 2689.72194,641.9419199999999 2635.4497199999996,687.75702 2641.7999999999997,702.6 C 2619.17586,810.33996 2627.2182,609.8558400000002 2629.7999999999997,624.6 C 2634.75282,580.3040399999999 2603.05452,536.7027 2624.9999999999995,494.4 M 2209.7999999999997,2173.7999999999997 C 2264.6674199999998,2179.2172199999995 2347.8207599999996,2229.36006 2340.375,2199.075 C 2387.9931,2205.24096 2454.68586,2242.74504 2418.0,2230.2 C 2500.77216,2252.457 2631.7322400000003,2246.3558399999997 2575.2,2265.0 C 2595.05406,2289.97062 2672.2666199999994,2296.70616 2646.0,2292.0 C 2713.6188599999996,2309.59878 2726.0805,2247.90954 2772.075,2267.25 C 2802.72054,2225.4576 2746.1602199999998,2447.38164 2814.0,2382.6 C 2773.1103599999997,2459.7049799999995 2610.74664,2683.1513999999997 2690.4,2599.2 C 2623.0233000000003,2653.3634399999996 2572.39836,2644.90638 2581.2,2635.275 C 2559.1766399999997,2578.3131000000003 2371.6872599999997,2664.6214200000004 2429.5499999999997,2584.275 C 2391.7861799999996,2590.16676 2224.8405599999996,2487.78444 2271.6,2505.6 C 2242.27704,2489.9499600000004 2098.95198,2493.95052 2136.6,2473.7999999999997 C 2069.9005199999997,2514.5259599999995 1955.3963399999998,2714.7449399999996 1939.8,2592.0 C 1967.70864,2641.77114 1877.6022600000001,2667.62286 1895.3999999999999,2661.6 C 1885.93914,2646.16578 1904.22372,2671.9358399999996 1854.6,2640.0 C 1895.8127399999998,2739.5064 1844.343,2639.8407 1828.95,2631.75 C 1829.12844,2593.0061400000004 1741.63782,2471.56254 1770.0,2537.4 C 1706.48094,2475.93564 1763.56578,2394.96876 1738.95,2421.525 C 1739.03094,2419.3017600000003 1920.2265000000002,2311.74012 1869.0,2317.7999999999997 C 1931.6749799999998,2237.76858 2003.6392799999999,2194.2047999999995 1983.0,2198.4 C 2025.2721000000001,2195.96052 2095.19514,2222.44644 2064.0,2198.4 C 2111.55678,2216.69952 2197.57326,2173.69098 2191.0580999999997,2183.1634799999997 C 2162.4224999999997,2135.35776 2191.0580999999997,2188.2685799999995 2209.7999999999997,2173.7999999999997" id="path4"/>
	<path d="M 2296.2,-1691.3999999999999 C 2394.80034,-1681.5599399999994 2181.99234,-1568.4188999999994 2248.0499999999997,-1597.5 C 2181.0298799999996,-1485.60618 2480.90802,-1727.4541200000003 2322.6,-1586.3999999999999 C 2307.7338,-1657.1011199999996 2359.8032399999997,-1671.3401399999998 2353.7999999999997,-1674.6 C 2412.2744999999995,-1695.2799599999998 2303.58522,-1704.0727800000004 2296.2,-1691.3999999999999" id="path6"/>
	<path d="M 4996.8,-1408.8 C 4946.2997399999995,-1398.2363399999995 4813.02774,-1305.65448 4811.925,-1347.375 C 4857.966,-1259.7432600000002 4834.14606,-962.7235200000002 4817.56872,-1065.89064 C 4778.66334,-1037.65794 4643.5435800000005,-1074.6468600000003 4668.224999999999,-1070.55 C 4626.4155599999995,-1059.3425399999999 4534.280159999999,-976.8790199999999 4575.675,-1026.975 C 4528.66452,-948.9698399999999 4466.3654400000005,-695.36712 4468.8,-795.6 C 4448.98722,-717.4865400000002 4253.30802,-590.8606200000003 4314.0,-609.6 C 4254.04878,-610.18944 4038.34896,-593.49978 4089.0,-592.1999999999999 C 4063.6544400000002,-607.7705399999999 3920.95878,-528.7340399999998 4009.7999999999997,-583.8 C 3953.2910399999996,-613.3750199999998 3884.1541199999997,-619.3976999999999 3894.0,-614.4 C 3851.02548,-657.9446400000003 3815.49456,-714.32838 3822.0,-640.1999999999999 C 3773.8302,-697.3381800000001 3626.7551999999996,-738.58224 3690.0,-705.6 C 3636.49668,-728.1277199999998 3492.98898,-808.1248200000002 3550.575,-787.5 C 3557.64144,-839.0877599999998 3558.05196,-825.8548799999999 3489.6,-831.6 C 3508.8136200000004,-892.11798 3401.10144,-847.5103200000001 3420.0,-867.6 C 3313.5003,-943.4091600000002 3207.22494,-960.8575799999999 3222.6,-955.1999999999999 C 3181.1035799999995,-977.6465399999998 3054.5217,-1023.7023 3092.4,-1011.0 C 3037.4051400000003,-1014.3924599999998 2918.40684,-1098.3298199999997 2976.0,-1077.6 C 2979.66132,-1110.6791400000002 2902.5047999999997,-1088.4036599999997 2869.2,-1118.3999999999999 C 2925.3781199999994,-1101.2148 2707.20012,-1242.61944 2769.0,-1205.3999999999999 C 2762.5098,-1225.78014 2632.0777199999998,-1345.0067999999999 2686.7999999999997,-1287.6 C 2655.2342399999998,-1355.64474 2599.8084599999997,-1319.9910599999998 2640.0,-1290.6 C 2599.15878,-1319.25198 2610.5535,-1374.4900800000003 2640.0,-1335.6 C 2585.5036800000003,-1398.1891200000005 2579.0533800000003,-1415.98596 2558.4,-1326.0 C 2539.8008400000003,-1210.80168 2454.50202,-1195.9444200000003 2481.0,-1213.2 C 2407.55208,-1185.36792 2537.39682,-1066.35192 2529.0,-1089.6 C 2529.07614,-1091.1018599999998 2674.6555200000003,-998.9750999999998 2637.6,-1011.9749999999999 C 2678.7639,-1023.5200199999997 2863.72152,-916.05246 2812.2,-936.0 C 2848.46544,-893.4608999999998 2967.20082,-819.8734799999999 2933.775,-849.225 C 3019.40094,-797.6315400000002 3169.3344600000005,-728.5948800000002 3104.25,-757.8 C 3185.24316,-720.4350599999998 3439.88148,-593.79174 3348.0,-624.6 C 3465.13062,-556.0704599999999 3563.91528,-412.2600000000002 3702.0,-342.59999999999997 C 3781.71504,-287.5526399999999 4038.98124,-287.0625600000001 3972.6,-279.59999999999997 C 4028.1405,-305.57237999999995 4176.80034,-340.12217999999973 4109.4,-303.45 C 4147.7735999999995,-296.74536000000006 4263.67404,-292.5052200000002 4236.0,-306.59999999999997 C 4313.475,-330.18629999999973 4456.882680000001,-353.09112 4451.4,-358.8 C 4518.696179999999,-393.8399999999998 4620.72762,-465.30246000000005 4638.0,-405.59999999999997 C 4666.48236,-401.12879999999984 4734.85902,-450.50717999999995 4705.2,-435.0 C 4765.22112,-449.1125999999998 4736.9163,-534.4463400000002 4743.0,-502.2 C 4772.08176,-469.8702000000001 4853.28216,-581.4844800000001 4804.575,-556.125 C 4917.977999999999,-628.2027600000001 4994.32146,-674.9688599999997 4999.8,-673.8 C 5050.658640000001,-698.5671599999997 5098.411980000001,-727.2503399999997 5082.599999999999,-719.4 C 5143.3976999999995,-742.6836599999998 5280.85986,-848.9575199999997 5163.0,-814.8 C 5209.65054,-874.8941399999999 5298.626160000001,-948.75516 5269.8,-933.5999999999999 C 5255.98812,-863.8117800000001 5164.08348,-761.7830399999998 5199.675,-817.725 C 5210.333460000001,-805.8082799999999 5297.9475,-989.1697799999998 5295.0,-931.1999999999999 C 5256.6991800000005,-968.8955399999999 5318.14614,-1067.8606200000002 5314.8,-1054.725 C 5298.23322,-1129.7394000000002 5219.099160000001,-1335.55338 5305.2,-1270.2 C 5317.11774,-1385.2590600000003 4990.26972,-1419.2319599999998 5082.0,-1410.6 C 5062.9281599999995,-1402.7905799999999 5066.32236,-1411.9043399999998 4996.8,-1408.8" id="path8"/>
	<path d="M 3475.2,2247.6 C 3372.3446999999996,2304.45954 3583.6394999999998,2405.02668 3420.0,2447.4 C 3358.6102199999996,2471.85888 3452.1681000000003,2423.68644 3457.2,2480.4 C 3425.778,2437.77402 3524.5304399999995,2353.1628 3490.2,2401.7999999999997 C 3539.55102,2382.3711 3524.9507999999996,2280.52398 3538.125,2338.5 C 3513.68394,2332.9329000000002 3457.44576,2328.53982 3480.0,2333.4 C 3482.49744,2300.11926 3495.6025200000004,2231.4372 3460.7999999999997,2277.6 C 3437.7067199999997,2297.8129799999997 3576.52452,2317.35678 3573.0,2306.4 C 3588.1212600000003,2308.71366 3485.20656,2230.42302 3475.2,2247.6" id="path10"/>
	<path d="M 3576.0,2318.4 C 3519.52308,2439.94368 3604.80918,2502.2628600000003 3598.35,2419.4249999999997 C 3579.08016,2434.4243399999996 3517.59564,2403.38928 3540.0,2411.4 C 3571.10862,2407.43844 3500.36382,2595.56982 3466.2,2500.2 C 3471.1927799999994,2544.2211 3538.51956,2553.9134999999997 3513.0,2546.4 C 3492.1223999999997,2526.5634000000005 3473.38122,2507.51376 3492.15,2491.575 C 3536.1365400000004,2452.10844 3527.72172,2561.61636 3537.0,2504.4 C 3522.91752,2519.7987 3407.46096,2537.1110400000002 3471.0,2563.7999999999997 C 3450.5305799999996,2521.9844999999996 3398.74296,2613.48078 3385.7999999999997,2538.6 C 3452.0662199999997,2570.1281400000003 3510.72636,2526.48084 3443.1749999999997,2524.5 C 3422.04654,2600.04384 3550.2930599999995,2619.5980799999998 3494.4,2582.4 C 3498.04446,2628.5135999999998 3608.4198,2644.55172 3610.7999999999997,2667.0 C 3638.3362799999995,2686.06938 3696.2885399999996,2750.15124 3706.35,2729.5499999999997 C 3664.69314,2618.69814 4300.086359999999,3340.984446 3837.6,2835.6 C 3879.7282800000003,2865.50646 3836.14344,2801.7858 3916.2,2902.2 C 3947.1061799999998,2948.08392 4004.1878399999996,3055.61319 3987.6,3020.4 C 4037.6780999999996,3070.588092 4087.65438,3208.2016320000002 4056.0,3158.4 C 4077.46806,3206.21124 4210.26432,3381.915126 4172.175,3348.825 C 4193.101140000001,3419.052684 4256.8062,3305.178192 4236.599999999999,3320.4 C 4236.5205,3277.0027080000004 4208.54322,3228.111642 4206.599999999999,3222.6 C 4159.1253,3175.3311360000002 4297.959,3166.857036 4219.8,3131.4 C 4262.28984,3112.1382540000004 4264.3227,2996.25078 4268.4,3045.6 C 4220.380499999999,2977.71528 4220.2458,2982.26442 4274.4,2959.2 C 4322.11518,2947.94658 4322.85834,3032.8883100000003 4326.0,3011.4 C 4323.5277,3036.920736 4400.6740199999995,2965.96362 4402.8,2998.7999999999997 C 4440.731760000001,2947.3040399999995 4325.69544,2907.51618 4333.2,2905.2 C 4303.9542599999995,2852.73192 4149.91812,2740.0858799999996 4206.0,2785.2 C 4132.23168,2733.8200799999995 4019.45832,2617.6641 4064.3999999999996,2667.6 C 4003.3108199999997,2616.90894 3842.9356799999996,2482.65498 3892.2,2518.2 C 3886.93992,2510.7261599999997 3668.0932199999997,2358.00258 3759.0,2426.4 C 3716.37756,2403.96744 3664.5414,2348.31888 3650.25,2364.9 C 3653.4309599999997,2343.65976 3597.59418,2316.16572 3576.0,2318.4 M 4201.2,2911.2 C 4212.8667,2949.2699399999997 4162.22898,2996.20554 4207.2,2977.2 C 4247.63826,3135.9300479999997 4240.62246,3038.3090819999998 4183.2,2999.4 C 4211.10252,2968.8888 4170.9366,2951.59692 4201.2,2911.2000000000003" id="path12"/>
</svg>
