<?xml version="1.0" standalone="no"?>
<!DOCTYPE svg PUBLIC "-//W3C//DTD SVG 20010904//EN"
 "http://www.w3.org/TR/2001/REC-SVG-20010904/DTD/svg10.dtd">
<svg version="1.0" xmlns="http://www.w3.org/2000/svg"
 width="1024.000000pt" height="1024.000000pt" viewBox="0 0 1024.000000 1024.000000"
 preserveAspectRatio="xMidYMid meet">
<metadata>
Created by potrace 1.16, written by Peter Selinger 2001-2019
</metadata>
<g transform="translate(0.000000,1024.000000) scale(0.100000,-0.100000)"
fill="#000000" stroke="none">
<path d="M4044 9949 c-3 -5 -9 -7 -14 -4 -8 5 -25 -23 -22 -37 1 -5 -3 -8 -10
-8 -6 0 -9 -3 -5 -6 3 -4 -4 -15 -16 -26 -12 -11 -15 -16 -7 -12 12 7 13 5 2
-8 -10 -13 -24 -37 -77 -135 -7 -13 -15 -20 -19 -16 -4 4 -4 0 0 -10 4 -11 0
-19 -10 -23 -9 -3 -13 -10 -10 -15 3 -5 1 -9 -4 -9 -5 0 -9 -7 -10 -15 -1 -8
-3 -22 -4 -30 -1 -8 -8 -15 -16 -15 -9 0 -12 -3 -9 -7 4 -3 1 -13 -7 -22 -27
-32 -66 -108 -58 -116 4 -4 -1 -5 -11 -2 -10 4 -16 3 -12 -2 8 -14 -16 -61
-28 -54 -6 3 -7 1 -3 -5 3 -6 -1 -17 -9 -25 -8 -9 -15 -19 -15 -23 0 -4 -11
-17 -24 -29 -14 -13 -22 -26 -19 -29 4 -3 1 -6 -7 -6 -10 0 -10 -3 0 -15 11
-13 10 -14 -3 -9 -12 4 -20 -2 -27 -21 -5 -14 -14 -24 -19 -20 -6 3 -8 -4 -6
-15 2 -12 -2 -23 -9 -26 -7 -3 -19 -23 -26 -44 -7 -22 -17 -37 -21 -34 -5 3
-6 -2 -3 -11 4 -8 1 -21 -5 -29 -6 -7 -9 -21 -5 -30 4 -10 1 -16 -7 -16 -7 0
-9 -3 -6 -7 4 -3 2 -12 -4 -20 -9 -10 -8 -13 1 -13 9 0 9 -4 3 -12 -6 -7 -10
-27 -9 -45 1 -26 -1 -29 -13 -20 -12 10 -13 9 -6 -2 12 -21 15 -80 4 -87 -6
-4 -6 -11 1 -19 8 -10 8 -15 0 -20 -8 -5 -7 -11 2 -23 11 -13 11 -14 -1 -7
-11 6 -13 2 -9 -18 3 -18 0 -28 -11 -32 -13 -5 -14 -7 -1 -15 12 -8 12 -10 1
-10 -7 0 -11 -6 -7 -15 3 -8 0 -15 -7 -15 -8 0 -6 -4 3 -10 11 -7 12 -10 2
-10 -9 0 -11 -7 -7 -20 4 -12 2 -20 -5 -20 -7 0 -10 -8 -7 -20 3 -11 1 -20 -5
-20 -6 0 -8 -7 -4 -15 3 -8 1 -15 -5 -15 -6 0 -6 -7 1 -20 9 -17 8 -19 -7 -13
-10 3 -15 3 -11 -2 4 -4 2 -15 -5 -23 -10 -13 -9 -15 3 -8 8 4 7 1 -3 -7 -13
-11 -15 -17 -6 -23 9 -5 7 -11 -6 -21 -14 -9 -15 -13 -4 -13 10 -1 9 -4 -4
-11 -17 -10 -17 -12 -2 -29 11 -12 13 -20 5 -25 -6 -3 -9 -3 -8 2 2 4 -1 9 -7
11 -10 2 -12 -2 -14 -39 -1 -13 -5 -18 -13 -13 -8 5 -7 0 2 -11 12 -15 12 -17
1 -10 -11 6 -13 4 -8 -8 3 -10 3 -17 -1 -17 -4 0 -7 -19 -6 -43 0 -23 -3 -49
-7 -58 -5 -9 -3 -21 4 -29 7 -7 7 -10 1 -7 -8 4 -35 -79 -39 -123 0 -3 -4 -10
-8 -17 -4 -6 -2 -13 4 -15 9 -3 9 -10 -1 -27 -10 -19 -10 -22 2 -15 10 6 11 5
1 -8 -7 -8 -10 -18 -6 -22 11 -10 12 -37 2 -30 -5 3 -6 11 -3 17 4 7 3 9 -1 4
-5 -4 -8 -28 -8 -52 1 -30 -2 -43 -9 -39 -7 5 -8 2 -3 -6 12 -19 12 -69 1 -62
-5 3 -7 -2 -3 -11 4 -10 1 -17 -5 -17 -7 0 -3 -7 8 -15 13 -11 14 -13 3 -9
-13 4 -15 0 -11 -22 4 -21 2 -25 -9 -19 -8 5 -11 5 -7 0 4 -4 3 -14 -4 -22 -9
-11 -7 -12 8 -7 18 7 18 7 2 -12 -14 -16 -15 -23 -6 -32 9 -9 9 -12 0 -12 -7
0 -12 -5 -12 -11 0 -5 6 -7 13 -3 9 5 9 4 0 -6 -6 -7 -9 -19 -6 -28 5 -11 3
-13 -8 -7 -12 8 -12 6 0 -8 9 -12 10 -17 2 -17 -9 0 -9 -6 0 -22 10 -20 10
-21 -2 -11 -11 9 -14 7 -14 -12 0 -13 3 -21 6 -19 4 2 9 -3 12 -11 4 -8 1 -12
-6 -9 -9 3 -12 -9 -12 -40 1 -25 -2 -43 -6 -40 -4 2 -7 -5 -6 -16 1 -11 6 -20
12 -20 6 0 7 -3 0 -8 -16 -11 -17 -42 -3 -60 7 -9 8 -13 2 -9 -7 4 -15 0 -18
-9 -3 -8 -2 -12 4 -9 13 8 13 -5 0 -25 -6 -9 -5 -17 3 -22 9 -6 8 -8 -2 -8
-11 0 -11 -3 -1 -15 9 -11 9 -15 1 -15 -7 0 -9 -5 -6 -10 4 -6 1 -18 -7 -27
-11 -14 -11 -16 1 -8 11 6 13 3 9 -13 -4 -13 -1 -22 5 -22 6 0 2 -7 -9 -16
-10 -8 -14 -13 -8 -10 16 8 25 -19 11 -33 -6 -6 -7 -11 -2 -11 6 0 5 -4 -2 -8
-16 -10 -25 -102 -10 -102 8 0 9 -3 2 -8 -18 -12 -13 -171 5 -182 13 -8 12
-10 -3 -10 -10 0 -15 -5 -12 -10 4 -6 12 -8 18 -4 7 3 3 -2 -7 -10 -11 -9 -15
-16 -9 -16 7 0 8 -11 4 -32 -4 -18 -4 -49 0 -68 4 -19 6 -37 3 -39 -2 -2 4
-10 14 -18 9 -8 11 -12 5 -8 -10 5 -11 0 -3 -20 13 -34 13 -38 -2 -29 -9 6 -9
3 1 -9 7 -9 11 -24 7 -32 -3 -8 -1 -15 4 -15 6 0 10 -8 10 -18 0 -10 6 -24 13
-31 10 -11 9 -12 -3 -6 -12 6 -13 5 -2 -6 16 -17 16 -32 0 -23 -9 6 -9 3 0 -9
8 -9 11 -20 8 -26 -3 -5 0 -12 6 -14 7 -3 9 -6 3 -6 -6 -1 -9 -24 -6 -57 2
-39 6 -52 12 -43 6 10 8 3 7 -21 -3 -31 0 -35 20 -34 12 1 22 -3 22 -8 0 -6
-7 -8 -15 -5 -8 4 -17 2 -20 -3 -4 -6 -1 -10 6 -10 8 0 8 -4 -1 -15 -10 -12
-10 -15 0 -15 9 0 9 -4 -1 -17 -11 -13 -11 -15 -1 -9 9 5 13 3 11 -5 -4 -36 2
-60 14 -53 10 6 10 4 0 -7 -16 -17 -17 -33 -1 -23 8 5 9 2 5 -9 -3 -10 -3 -17
2 -17 5 0 7 -11 6 -25 -2 -14 0 -25 4 -25 4 0 7 -10 8 -22 1 -11 6 -24 10 -27
4 -3 10 -17 12 -31 1 -14 8 -28 13 -31 6 -4 8 -11 4 -17 -3 -6 -2 -13 3 -17 5
-3 8 -14 6 -25 -2 -11 1 -20 6 -20 6 0 7 -9 4 -21 -5 -14 -4 -19 4 -15 7 5 9
1 5 -8 -4 -10 -1 -16 7 -16 11 0 11 -3 -1 -10 -13 -8 -12 -10 3 -10 15 0 16
-3 7 -20 -8 -15 -8 -20 1 -20 7 0 10 -3 6 -6 -3 -4 2 -14 11 -23 10 -9 13 -13
7 -9 -7 5 -12 2 -12 -7 0 -8 7 -15 14 -15 8 0 12 -4 8 -9 -3 -5 -2 -12 3 -15
5 -3 7 -19 6 -35 -1 -17 2 -34 7 -37 6 -3 5 -12 -3 -22 -11 -13 -11 -14 1 -7
11 6 13 3 9 -12 -3 -13 1 -25 12 -33 10 -7 17 -20 15 -29 -1 -9 2 -19 7 -22 5
-3 10 -12 11 -20 2 -8 7 -20 11 -28 7 -10 5 -12 -5 -6 -8 5 -5 -1 5 -13 14
-17 16 -22 5 -22 -11 0 -11 -2 1 -10 8 -5 11 -10 6 -10 -5 0 -3 -7 4 -15 6 -8
9 -19 5 -25 -3 -5 2 -10 12 -10 15 0 16 -2 3 -10 -12 -8 -12 -12 -3 -18 7 -4
14 -20 15 -35 1 -15 6 -27 11 -27 5 0 6 -7 3 -16 -4 -11 -2 -15 8 -11 12 5 13
1 6 -18 -6 -16 -6 -25 0 -25 6 0 10 -11 10 -25 0 -14 4 -25 8 -25 7 0 12 -24
15 -67 0 -7 5 -13 10 -13 6 0 7 -3 4 -7 -4 -3 -2 -12 4 -20 6 -7 8 -13 3 -13
-5 0 -3 -4 3 -8 7 -5 14 -20 15 -34 1 -15 5 -25 9 -22 10 6 20 -26 12 -38 -4
-7 -1 -8 7 -3 8 5 11 3 8 -6 -3 -8 1 -26 8 -40 7 -15 10 -29 7 -33 -4 -3 -2
-6 4 -6 6 0 9 -9 6 -20 -3 -12 0 -20 6 -20 7 0 10 -4 6 -9 -3 -5 2 -16 10 -24
11 -12 12 -17 2 -20 -8 -4 -6 -6 4 -6 10 -1 15 -10 15 -24 -1 -17 4 -21 19
-19 11 2 16 -1 10 -5 -14 -11 -17 -33 -4 -33 5 0 7 -4 4 -10 -3 -6 1 -7 10 -4
11 5 14 2 9 -10 -3 -9 -2 -16 4 -16 6 0 12 6 15 13 2 6 4 0 3 -15 -1 -22 -4
-24 -16 -15 -8 6 -5 0 6 -13 12 -14 19 -31 17 -37 -3 -8 3 -13 14 -13 14 0 15
-2 4 -9 -11 -7 -9 -14 13 -35 14 -15 26 -33 26 -41 0 -8 7 -15 15 -15 9 0 12
-6 9 -15 -4 -8 -1 -15 4 -15 6 0 9 -9 7 -21 -3 -13 5 -30 22 -45 14 -13 20
-24 13 -24 -10 0 -10 -3 0 -15 7 -8 17 -12 24 -8 6 4 4 -2 -4 -12 -9 -11 -10
-16 -2 -11 7 4 12 1 12 -8 0 -9 4 -16 10 -16 5 0 7 -6 4 -14 -3 -7 2 -21 11
-30 9 -9 13 -20 10 -26 -4 -6 -1 -9 5 -8 6 2 18 -8 27 -22 14 -23 14 -24 -1
-6 -9 11 -16 16 -16 10 0 -5 11 -21 24 -35 19 -21 22 -29 13 -39 -9 -10 -9
-11 1 -6 11 6 17 -11 13 -36 0 -5 5 -7 12 -5 6 1 11 -4 10 -11 -2 -6 2 -12 8
-12 6 0 9 -7 5 -15 -3 -9 0 -15 10 -15 10 0 14 -6 10 -15 -3 -8 0 -14 7 -12 7
1 11 -4 9 -12 -2 -7 4 -21 13 -31 8 -9 12 -20 8 -23 -3 -4 -1 -7 6 -7 7 0 9
-4 6 -10 -3 -5 -2 -10 2 -10 5 0 14 -9 21 -21 11 -17 11 -20 0 -13 -7 4 -2 -4
11 -19 12 -14 20 -30 16 -36 -3 -6 -1 -11 5 -11 7 0 10 -6 7 -13 -3 -8 3 -20
13 -27 10 -7 16 -19 13 -26 -2 -6 1 -15 6 -19 6 -3 9 -11 5 -16 -3 -5 0 -8 8
-7 8 2 13 -6 12 -19 -1 -13 2 -21 6 -18 11 7 30 -42 30 -76 0 -22 -6 -32 -20
-36 -11 -3 -17 -9 -14 -14 9 -15 -20 -5 -34 11 -8 8 -11 10 -8 4 3 -7 -5 -14
-19 -16 -15 -3 -25 -1 -25 6 0 6 -4 5 -9 -3 -6 -9 -11 -10 -15 -2 -5 7 -15 7
-31 1 -17 -7 -25 -6 -25 1 0 6 -6 9 -14 6 -7 -3 -19 0 -26 6 -10 9 -11 9 -6 0
4 -7 2 -13 -3 -13 -6 0 -11 3 -11 8 0 4 -16 7 -35 7 -19 0 -35 -3 -35 -6 0 -3
-12 -4 -26 -1 -21 4 -25 2 -19 -9 7 -12 6 -12 -7 -1 -12 10 -18 10 -23 1 -6
-8 -10 -7 -16 2 -7 11 -9 11 -9 1 0 -10 -5 -10 -22 -1 -21 11 -22 11 -10 -4
12 -14 10 -15 -13 -9 -39 11 -106 2 -98 -12 4 -6 -1 -5 -10 3 -13 10 -17 10
-17 1 0 -7 -7 -10 -15 -6 -8 3 -15 0 -15 -7 0 -8 -4 -6 -10 3 -7 11 -10 11
-10 2 0 -7 -4 -10 -10 -7 -5 3 -19 1 -31 -6 -16 -8 -20 -8 -14 1 5 9 1 9 -16
-1 -13 -7 -25 -12 -26 -11 -9 6 -33 0 -29 -6 3 -5 -1 -9 -9 -9 -8 0 -12 4 -9
9 3 4 -2 5 -10 2 -9 -3 -16 -11 -16 -18 0 -6 -5 -4 -10 4 -5 8 -10 10 -10 3 0
-6 -9 -9 -20 -6 -13 3 -20 0 -20 -8 0 -10 -3 -10 -12 -1 -7 7 -17 12 -23 12
-5 0 -3 -5 5 -10 13 -8 13 -10 -2 -10 -9 0 -19 -6 -21 -12 -3 -7 -6 -4 -6 6
-1 19 -1 19 -15 1 -11 -16 -17 -17 -29 -7 -11 10 -17 10 -22 1 -6 -8 -10 -7
-16 2 -7 11 -9 11 -9 -2 0 -12 -7 -15 -25 -11 -15 2 -25 0 -25 -7 0 -6 -13
-10 -29 -9 -18 1 -38 -6 -51 -17 -12 -11 -24 -19 -26 -17 -8 5 -54 -10 -54
-18 0 -5 -13 -11 -30 -15 -16 -4 -30 -11 -30 -16 0 -6 5 -7 12 -3 7 4 8 3 4
-5 -5 -7 -13 -8 -24 -2 -11 6 -24 4 -43 -10 -14 -10 -29 -16 -33 -12 -3 3 -6
-2 -6 -13 0 -16 -2 -17 -10 -4 -6 10 -10 11 -10 3 0 -7 -7 -13 -15 -13 -8 0
-15 -5 -15 -12 0 -6 -3 -8 -7 -5 -3 4 -12 2 -20 -4 -7 -6 -13 -8 -13 -3 0 4
-7 -1 -16 -12 -8 -10 -12 -12 -8 -4 6 11 2 10 -13 -2 -11 -10 -25 -18 -32 -18
-7 0 -11 -6 -8 -14 4 -10 1 -13 -7 -10 -7 3 -25 -9 -40 -26 -15 -18 -31 -28
-37 -24 -7 4 -10 3 -7 -2 3 -5 0 -15 -8 -22 -8 -7 -14 -10 -14 -6 0 4 -9 -1
-20 -11 -11 -10 -17 -22 -14 -26 3 -5 -3 -6 -12 -2 -12 4 -15 3 -10 -6 6 -8 2
-11 -10 -9 -13 2 -19 -3 -18 -13 1 -11 -5 -15 -17 -12 -11 3 -22 -4 -31 -21
-7 -13 -16 -25 -20 -25 -5 -1 -13 -1 -19 -1 -5 0 -7 -4 -4 -10 3 -5 1 -10 -5
-10 -6 0 -8 -5 -4 -13 5 -7 0 -6 -11 3 -10 8 -16 10 -12 4 3 -6 -2 -20 -13
-31 -10 -12 -16 -24 -12 -27 3 -4 -2 -4 -12 0 -14 5 -17 4 -12 -4 4 -7 2 -12
-4 -12 -6 0 -9 -4 -5 -9 3 -5 -4 -12 -15 -16 -11 -4 -18 -11 -15 -16 4 -5 2
-9 -4 -9 -5 0 -12 -9 -16 -20 -3 -11 -12 -19 -18 -17 -7 1 -12 -5 -12 -13 0
-8 -7 -21 -15 -28 -13 -12 -13 -13 0 -7 9 4 8 1 -3 -8 -10 -8 -19 -25 -20 -37
-1 -12 -9 -26 -19 -31 -10 -5 -18 -17 -18 -25 0 -9 -5 -12 -12 -8 -10 6 -10 5
0 -8 12 -15 -6 -46 -19 -33 -3 2 -4 -9 -3 -25 1 -17 -1 -30 -5 -30 -7 0 -11
-15 -12 -52 0 -10 -4 -18 -9 -18 -5 0 -7 -10 -5 -22 3 -12 -1 -28 -7 -35 -15
-18 -18 -84 -5 -101 7 -9 6 -11 -4 -7 -11 4 -14 -13 -13 -97 3 -143 2 -140 16
-132 10 5 10 4 1 -6 -9 -10 -7 -17 10 -32 12 -11 16 -17 10 -13 -7 3 -13 1
-13 -4 0 -6 7 -11 16 -11 8 0 12 -5 9 -10 -3 -6 -1 -10 4 -10 6 0 11 -9 11
-20 0 -11 4 -20 8 -20 7 0 12 -24 15 -67 0 -7 7 -13 16 -13 14 0 14 -2 1 -10
-13 -9 -13 -10 0 -10 13 0 13 -1 0 -10 -12 -8 -12 -10 5 -10 17 0 17 -2 5 -10
-13 -8 -13 -10 2 -10 12 0 15 -5 11 -17 -4 -10 -2 -14 4 -10 6 4 14 0 17 -9 4
-10 2 -13 -7 -8 -8 5 -8 2 2 -9 7 -9 17 -15 20 -12 4 2 8 -2 9 -10 1 -8 3 -22
4 -29 1 -8 6 -14 12 -13 6 1 10 -4 8 -11 -1 -6 3 -12 9 -12 5 0 7 -5 4 -10 -4
-6 -1 -9 7 -8 7 2 12 -5 12 -14 -1 -10 1 -16 5 -14 3 2 12 -2 19 -10 8 -9 9
-14 2 -14 -7 0 -4 -7 4 -16 19 -18 21 -38 4 -28 -9 6 -9 3 0 -9 8 -9 11 -20 8
-26 -3 -5 1 -12 10 -15 10 -4 13 -2 9 7 -4 6 -1 5 7 -3 7 -9 28 -14 48 -14 22
1 43 -6 56 -18 16 -15 24 -16 29 -7 6 8 4 10 -5 4 -9 -6 -11 -4 -5 5 7 11 10
11 19 -2 9 -14 11 -14 25 1 9 9 13 12 9 7 -5 -6 -8 -17 -7 -25 0 -12 2 -12 6
-3 4 10 9 9 20 -5 11 -14 13 -14 10 -2 -3 10 2 15 18 15 13 0 22 -3 20 -6 -2
-3 5 -11 15 -18 16 -10 18 -9 14 3 -4 8 -1 15 5 15 6 0 11 -8 11 -17 0 -11 3
-14 8 -7 12 19 51 23 67 7 8 -8 15 -11 15 -6 0 5 17 10 37 11 21 2 42 7 47 12
15 15 26 12 26 -7 0 -15 2 -14 16 3 8 10 13 13 9 7 -7 -15 21 -18 30 -3 3 5
11 10 16 10 6 0 7 -6 3 -13 -5 -8 -3 -8 9 2 9 7 26 11 37 8 11 -3 20 0 20 5 0
7 4 7 13 0 7 -6 18 -7 26 -2 8 4 21 6 29 2 10 -3 13 -1 8 6 -5 8 -2 10 8 6 9
-4 16 -1 16 6 0 10 4 9 16 0 8 -8 14 -9 13 -4 -3 19 1 34 12 34 5 0 7 -5 4
-10 -13 -20 7 -9 30 17 13 16 25 22 25 16 0 -7 -4 -13 -9 -13 -5 0 -12 -7 -15
-16 -4 -10 -2 -13 7 -7 6 4 20 6 30 5 10 -2 24 1 31 7 9 8 13 7 13 -4 0 -8 -5
-11 -10 -8 -6 3 -7 1 -3 -6 6 -9 11 -9 21 -1 9 7 16 6 25 -5 8 -9 9 -15 4 -13
-5 2 -11 -1 -12 -7 -2 -5 -9 -16 -15 -24 -10 -12 -9 -13 3 -6 9 5 8 0 -4 -13
-11 -12 -16 -22 -11 -22 4 0 -7 -14 -23 -32 -17 -17 -29 -35 -26 -40 3 -4 0
-8 -5 -8 -6 0 -11 -7 -11 -15 0 -8 -5 -15 -12 -15 -6 0 -9 -3 -5 -6 3 -4 -1
-13 -9 -21 -8 -8 -11 -20 -7 -26 4 -6 0 -8 -10 -4 -11 4 -14 2 -10 -9 3 -7 0
-14 -6 -14 -6 0 -10 -3 -9 -7 1 -5 -5 -22 -15 -39 -9 -17 -13 -34 -10 -37 3
-4 -2 -10 -11 -13 -14 -5 -15 -9 -4 -15 10 -7 10 -9 1 -9 -7 0 -13 -11 -13
-24 0 -14 -4 -27 -10 -31 -5 -3 -7 -12 -3 -20 3 -8 0 -15 -6 -15 -6 0 -8 -6
-5 -14 3 -8 1 -17 -5 -20 -6 -4 -8 -13 -4 -21 3 -8 1 -15 -5 -15 -5 0 -9 -10
-8 -23 1 -12 -2 -25 -7 -28 -14 -10 -16 -102 -3 -118 7 -10 7 -13 0 -8 -6 3
-11 0 -11 -8 0 -8 3 -13 6 -11 6 4 38 -26 34 -31 -8 -8 -2 -23 6 -18 5 3 16
-4 25 -16 8 -12 19 -18 25 -14 6 3 11 1 11 -4 0 -6 9 -11 20 -11 11 0 23 -7
26 -15 5 -11 9 -12 19 -2 7 7 10 17 7 22 -3 6 1 4 9 -2 13 -11 18 -9 29 12 7
13 16 22 20 20 5 -3 10 1 13 8 5 14 34 16 54 4 6 -4 14 -3 18 3 3 5 11 10 16
10 6 0 7 -5 3 -11 -3 -6 8 -3 26 6 18 9 29 12 26 7 -3 -6 1 -13 10 -16 8 -3
13 -2 11 2 -7 10 15 27 33 27 8 0 21 6 28 15 12 13 13 13 7 0 -4 -8 0 -6 9 4
8 10 13 23 10 27 -9 14 3 10 20 -7 17 -16 24 2 8 22 -4 5 -3 6 2 2 5 -3 15 -4
22 -1 10 4 12 0 8 -13 -5 -15 -4 -16 4 -5 6 8 8 21 4 29 -4 11 -2 13 9 6 22
-13 33 -13 47 2 16 17 8 18 -21 3 -17 -9 -20 -9 -10 1 17 18 89 29 104 16 9
-8 10 -8 5 2 -4 6 -3 12 1 12 5 0 15 -6 23 -12 8 -7 6 -2 -5 12 l-20 24 29
-18 c16 -10 25 -13 22 -7 -4 6 0 11 8 11 9 0 16 -5 16 -11 0 -8 5 -8 15 1 12
10 15 10 15 -1 0 -12 2 -12 9 -1 11 17 21 17 32 0 7 -10 9 -9 9 5 0 9 3 17 8
18 4 0 15 2 24 4 10 2 21 -2 25 -7 4 -7 1 -8 -7 -3 -9 5 -11 4 -6 -4 4 -6 12
-9 17 -5 5 3 7 9 4 14 -3 4 4 10 14 13 15 4 18 1 13 -12 -3 -8 8 -1 26 17 18
18 36 31 40 28 4 -2 16 2 27 10 10 8 14 14 9 14 -6 0 -16 -6 -23 -12 -11 -11
-11 -9 0 9 7 12 17 19 21 16 12 -7 39 17 32 28 -3 5 2 6 10 3 9 -4 18 1 22 10
3 9 10 14 14 11 10 -6 31 20 28 35 -2 7 4 15 12 17 12 4 12 3 1 -5 -11 -8 -11
-10 0 -14 8 -3 25 7 38 21 13 14 21 21 18 15 -4 -6 0 -11 7 -11 8 0 12 6 9 14
-4 9 0 11 13 6 14 -5 16 -3 11 12 -6 15 -5 16 7 6 11 -9 16 -9 21 0 4 6 1 16
-6 21 -11 8 -10 8 4 4 10 -3 21 -6 23 -6 3 0 0 -10 -6 -23 -10 -20 -10 -21 4
-4 8 11 12 25 9 33 -3 8 0 14 7 14 6 0 9 -4 6 -9 -3 -5 2 -15 11 -22 15 -12
16 -12 11 3 -8 20 19 18 33 -3 7 -11 9 -11 9 0 0 7 6 11 15 7 8 -3 14 -2 14 2
-4 25 3 34 21 29 11 -3 23 -1 26 5 3 5 12 7 20 4 8 -3 14 -1 14 4 0 5 6 7 14
4 8 -3 17 0 21 5 3 6 11 9 16 6 8 -6 13 9 10 29 -1 5 5 4 13 -4 12 -9 16 -10
16 0 0 7 7 10 14 7 10 -4 13 -1 10 7 -3 8 0 17 7 22 8 4 10 3 5 -4 -10 -16 7
-15 23 1 8 6 11 7 8 2 -3 -6 5 -10 18 -10 19 0 21 3 12 14 -10 12 -9 13 2 7 8
-5 17 -3 23 5 8 11 9 11 5 -2 -3 -9 1 -16 9 -16 8 0 14 7 14 16 0 14 2 14 10
1 9 -13 14 -7 11 12 0 4 6 5 14 2 8 -4 12 -11 9 -18 -3 -6 1 -3 9 7 9 10 19
19 24 20 4 1 7 6 5 10 -1 5 2 6 7 3 18 -12 63 13 57 31 -5 13 -4 14 9 3 13
-11 14 -10 9 3 -4 12 -1 15 16 12 19 -4 20 -2 8 12 -9 12 -9 15 0 9 6 -4 12
-2 12 3 0 6 5 11 10 11 6 0 19 9 30 20 12 12 26 18 32 14 8 -5 9 -1 4 11 -5
15 -4 16 9 5 13 -11 14 -10 8 5 -5 14 -3 17 10 12 10 -4 14 -2 11 7 -3 7 7 18
21 26 14 7 25 17 25 22 0 4 6 8 14 8 8 0 18 4 21 10 4 6 -1 7 -12 3 -15 -6
-16 -5 -3 9 11 11 19 13 28 6 16 -14 16 4 0 21 -7 7 -8 12 -3 11 22 -5 35 1
33 13 -2 6 2 11 8 10 7 -1 10 6 7 17 -3 12 1 22 11 26 9 3 16 10 16 16 0 5 -6
6 -12 3 -7 -3 -3 2 10 11 12 9 22 23 22 31 0 9 5 11 13 7 7 -5 6 0 -3 11 -8
10 -10 16 -4 12 7 -4 17 5 24 23 7 17 17 30 22 30 6 0 4 -8 -3 -17 -11 -15
-10 -14 9 1 24 20 30 41 10 31 -7 -4 -5 0 5 8 9 8 17 22 17 32 0 12 5 15 16
11 14 -5 15 -4 4 9 -10 12 -10 15 0 15 8 0 10 3 7 7 -4 3 1 12 11 20 9 8 11
12 5 8 -9 -4 -11 -1 -7 9 3 9 10 13 15 10 5 -3 9 4 9 15 0 12 5 21 11 21 6 0
9 6 6 14 -3 8 1 17 10 20 12 5 13 9 3 21 -12 15 -11 16 10 19 6 0 10 6 10 11
1 6 8 21 17 34 11 17 12 22 2 16 -8 -3 -5 1 5 9 11 9 16 16 10 16 -5 1 2 10
16 22 20 17 21 20 5 14 -17 -6 -16 -4 5 20 14 15 19 24 12 20 -20 -12 -14 4
10 23 16 14 18 20 8 26 -9 6 -11 4 -5 -5 5 -9 4 -11 -4 -6 -8 6 -9 12 -2 20 6
7 7 17 3 21 -4 5 -1 5 6 1 7 -4 9 -12 6 -18 -4 -7 -2 -8 5 -4 6 4 8 12 5 18
-11 18 -13 58 -3 58 6 0 8 4 4 9 -3 5 -1 12 5 16 6 4 7 11 4 17 -4 7 -2 8 4 4
7 -4 12 -3 12 3 0 5 -6 12 -12 14 -10 4 -10 6 0 6 7 1 11 5 7 10 -3 5 0 13 6
17 7 4 9 3 5 -4 -4 -7 1 -10 14 -9 19 1 29 17 11 17 -6 0 -9 9 -8 20 1 18 11
18 13 -1 3 -22 5 -23 15 -9 8 12 9 10 4 -8 -7 -23 12 -28 27 -7 10 14 10 27 0
21 -5 -3 -9 1 -9 9 0 8 5 11 11 7 31 -19 44 1 23 36 -9 13 -1 32 14 32 5 0 9
-5 9 -11 0 -5 -5 -7 -11 -3 -7 4 -10 1 -7 -6 6 -20 28 -24 28 -5 0 12 5 15 22
9 20 -6 21 -5 9 9 -7 9 -18 14 -24 10 -5 -3 -7 -1 -4 4 4 6 0 14 -9 17 -8 3
-13 10 -10 15 3 5 -1 11 -8 14 -8 3 -17 3 -19 -1 -2 -4 -2 -1 0 6 2 9 -3 11
-15 8 -20 -7 -36 3 -40 24 -1 10 2 9 13 -4 8 -11 18 -17 21 -13 4 4 1 13 -5
21 -7 8 -9 21 -5 27 5 9 2 10 -12 6 -14 -5 -12 -2 6 12 14 11 25 28 25 38 0
13 7 18 23 17 19 -1 23 3 19 17 -3 11 -1 17 4 13 5 -3 9 0 9 5 0 6 -5 11 -11
11 -6 0 -20 10 -31 23 -11 12 -16 16 -12 8 5 -10 3 -12 -5 -7 -7 5 -10 14 -7
21 3 8 0 16 -7 19 -9 3 -9 5 0 5 14 1 5 41 -11 41 -7 0 -6 4 2 9 17 11 17 21
0 32 -11 7 -11 9 0 9 9 0 11 7 7 21 -5 15 -4 19 5 14 9 -6 9 -3 1 14 -7 11 -9
21 -6 21 3 0 1 8 -4 18 -6 11 -6 24 0 35 7 11 7 17 0 17 -5 0 -8 12 -6 26 2
19 -1 24 -14 19 -8 -3 -12 -3 -8 1 4 4 1 14 -6 22 -9 12 -9 14 0 9 8 -5 8 1
-2 19 -8 15 -12 31 -9 36 3 4 0 8 -5 8 -6 0 -11 8 -11 18 0 10 -7 28 -16 40
-9 13 -13 30 -10 38 3 9 1 12 -4 9 -9 -5 -15 15 -11 38 0 4 -3 7 -7 7 -4 0 -8
9 -9 20 -1 11 -9 27 -17 36 -19 18 -21 28 -5 18 7 -4 4 7 -6 24 -10 17 -22 29
-26 27 -4 -3 -7 1 -6 8 1 38 -5 57 -17 57 -9 0 -13 7 -11 20 2 11 0 20 -6 20
-5 0 -9 10 -9 21 0 17 -3 19 -14 10 -12 -10 -13 -8 -9 8 3 13 1 21 -7 21 -7 0
-10 8 -7 20 3 13 0 20 -10 20 -8 0 -11 5 -8 10 3 6 0 10 -7 10 -11 0 -10 2 0
9 11 6 10 10 -4 15 -9 3 -14 9 -11 13 4 3 2 12 -4 20 -6 7 -8 13 -5 13 4 0 1
7 -6 15 -31 34 -36 43 -31 49 4 3 1 6 -6 6 -7 0 -9 5 -6 10 3 6 1 10 -5 10 -6
0 -8 4 -5 10 3 5 2 10 -3 10 -5 0 -26 34 -46 75 -21 42 -42 73 -47 69 -5 -3
-8 -2 -7 3 4 14 -13 53 -23 53 -5 0 -9 6 -9 13 0 14 -30 53 -78 103 -18 19
-30 34 -27 34 3 0 -6 12 -20 26 -14 14 -22 30 -19 36 4 6 3 9 -2 6 -5 -3 -18
4 -29 15 -12 11 -14 17 -5 13 9 -5 8 -2 -2 7 -10 8 -18 20 -18 26 0 7 -10 22
-22 33 -13 11 -17 17 -10 13 6 -3 12 -1 12 4 0 6 -7 11 -16 11 -8 0 -13 4 -10
9 3 4 -3 16 -14 26 -11 10 -20 23 -20 29 0 7 -9 18 -19 26 -11 7 -18 17 -15
21 2 4 -6 18 -19 31 -23 23 -27 30 -27 48 0 6 -7 10 -16 10 -8 0 -12 4 -9 10
3 6 0 10 -7 10 -11 0 -10 2 0 9 11 7 10 9 -3 15 -9 3 -13 11 -9 17 4 7 3 9 -4
5 -6 -3 -13 -2 -17 4 -3 5 -1 10 5 10 7 0 -2 19 -19 42 -17 22 -28 45 -25 50
3 4 1 8 -4 8 -5 0 -12 9 -15 20 -3 11 -13 20 -22 20 -14 0 -15 3 -5 15 10 12
8 13 -10 10 -18 -3 -20 -2 -10 10 10 12 10 15 -1 15 -12 0 -12 2 0 9 8 5 9 10
3 12 -6 2 -12 32 -13 67 -1 36 -7 62 -13 62 -6 0 -4 5 4 10 11 7 12 10 2 10
-8 0 -11 7 -8 18 4 10 0 27 -8 37 -11 16 -12 23 -3 34 10 12 9 13 -3 6 -13 -8
-13 -7 -1 8 12 15 9 21 -10 19 -8 -1 -5 31 5 46 4 7 2 12 -4 12 -7 0 -10 7 -6
15 3 8 2 15 -2 15 -7 0 -11 20 -13 68 -1 12 -6 22 -12 22 -6 0 -2 7 9 16 10 8
13 13 6 9 -9 -5 -11 3 -8 29 2 20 0 39 -5 42 -6 4 -4 13 6 24 10 11 12 20 6
24 -6 4 -8 13 -4 21 3 8 0 15 -6 15 -6 0 -10 3 -9 8 2 4 -3 21 -10 37 -19 45
-84 69 -121 46 -17 -11 -53 8 -44 23 3 5 1 6 -6 2 -6 -4 -14 0 -17 9 -4 9 -12
14 -18 12 -7 -3 -11 9 -11 32 0 20 -4 42 -10 50 -7 11 -7 13 3 7 6 -4 12 -3
12 3 0 5 -6 11 -12 14 -10 3 -10 7 0 19 9 11 10 18 2 23 -6 3 -8 10 -5 15 3 5
1 11 -5 15 -6 4 -7 12 -3 18 4 7 -1 6 -11 -2 -9 -8 -16 -10 -15 -5 5 15 -12
54 -22 54 -5 0 -9 7 -9 16 0 9 -8 23 -17 30 -18 12 -19 16 -22 54 0 11 -8 20
-17 20 -8 0 -13 4 -9 9 3 5 -2 17 -11 25 -8 9 -12 16 -7 16 4 0 3 4 -3 8 -16
10 -84 149 -76 156 3 3 0 6 -6 6 -7 0 -12 9 -12 21 0 13 -4 18 -12 13 -8 -5
-9 -2 -5 9 3 9 2 19 -3 22 -5 3 -6 13 -3 22 4 11 3 14 -5 9 -11 -7 -16 16 -15
61 1 7 -3 10 -8 7 -8 -5 -13 9 -10 29 0 4 -4 7 -10 7 -5 0 -7 5 -4 10 3 6 0
10 -7 10 -9 0 -9 3 2 10 12 7 12 10 1 10 -7 0 -11 6 -7 15 3 8 1 15 -3 15 -5
0 -8 11 -7 25 2 14 -3 30 -10 36 -10 8 -11 16 -3 31 8 15 8 19 0 14 -9 -6 -14
19 -10 50 0 4 -5 10 -12 15 -7 4 -13 27 -15 51 -1 23 -7 56 -13 72 -7 16 -9
36 -7 43 3 8 1 11 -4 8 -6 -3 -10 3 -10 15 0 14 -4 19 -12 14 -10 -6 -10 -4 0
7 15 17 16 33 0 23 -8 -5 -9 -2 -5 9 3 9 2 19 -2 22 -5 2 -11 14 -14 25 -3 13
-1 18 6 13 7 -4 6 1 -2 10 -7 9 -11 17 -8 17 3 0 0 20 -7 45 -9 30 -10 45 -3
45 5 0 2 9 -7 19 -11 12 -13 21 -7 25 6 4 8 13 5 21 -4 8 -11 12 -18 8 -6 -4
-5 1 3 10 9 11 10 17 2 17 -6 0 -11 9 -11 20 0 11 -5 20 -11 20 -5 0 -7 5 -4
10 3 6 1 10 -5 10 -6 0 -8 5 -4 12 4 6 -2 18 -12 26 -16 13 -17 14 -1 9 9 -4
17 -2 17 2 0 5 -4 11 -10 13 -5 2 -11 14 -14 28 -2 14 -5 26 -7 28 -1 1 -3 7
-4 12 -1 6 -4 11 -5 13 -1 1 -3 20 -5 42 -1 22 -5 48 -10 58 -4 9 -5 26 -2 37
3 11 2 18 -3 15 -4 -3 -7 24 -5 60 1 37 -2 65 -8 65 -5 0 -4 6 2 14 8 9 8 16
2 20 -5 4 -8 30 -7 59 2 28 0 78 -4 111 -4 40 -3 62 6 70 7 7 9 19 3 33 -5 13
-5 23 -1 23 10 0 9 51 -2 68 -4 7 -2 12 4 12 6 0 9 4 6 8 -3 4 -1 25 3 45 6
24 5 38 -3 41 -8 3 -8 5 0 5 7 1 10 14 8 32 -3 22 0 28 9 23 8 -5 7 -2 -2 9
-9 12 -10 21 -3 30 17 21 18 23 2 42 -12 15 -12 17 -1 10 11 -6 13 -4 8 8 -3
10 -2 17 3 17 5 0 6 7 3 17 -4 10 -2 14 4 10 14 -9 12 25 -2 35 -6 5 -5 8 3 8
6 0 12 7 12 15 0 8 -6 15 -12 15 -8 0 -9 3 -3 8 16 11 41 47 29 39 -8 -4 -11
2 -10 17 1 20 4 22 16 13 8 -6 12 -7 8 -3 -4 5 -2 16 5 24 10 13 9 14 -2 7
-11 -6 -13 -4 -7 11 5 10 9 25 9 32 0 6 4 12 9 12 5 0 4 10 -3 21 -9 17 -8 20
2 14 8 -6 11 -4 6 7 -3 9 0 21 6 27 8 8 7 11 -3 11 -8 0 -4 8 10 20 13 11 17
20 10 20 -9 0 -10 3 -1 13 8 10 7 17 -1 25 -17 17 -33 15 -18 -3 9 -10 9 -15
1 -15 -6 0 -11 5 -11 10 0 7 -7 7 -20 0 -11 -6 -20 -16 -19 -23 4 -34 -1 -52
-11 -37 -8 12 -10 9 -7 -11 1 -15 9 -35 17 -45 14 -17 13 -18 -1 -6 -14 10
-18 10 -23 -3 -3 -8 0 -15 6 -15 6 0 8 -3 5 -7 -4 -3 -16 2 -27 12 -19 18 -20
17 -20 -3 0 -11 -5 -24 -11 -28 -8 -4 -9 1 -4 16 6 19 5 21 -13 11 -17 -9 -20
-8 -17 7 2 9 4 21 4 25 1 5 6 5 12 1 8 -4 7 -9 -2 -16 -11 -7 -9 -8 4 -4 10 3
21 6 23 6 3 0 0 9 -6 20 -9 16 -8 18 5 14 10 -4 15 -2 13 7 -2 8 3 13 10 11
18 -3 15 15 -5 27 -14 8 -15 10 -3 11 13 0 13 1 0 10 -8 5 -10 10 -4 10 16 0
35 -25 27 -34 -4 -4 0 -4 9 -1 16 6 16 8 -2 27 -30 32 -2 85 29 56 11 -11 13
-10 8 3 -7 21 8 44 22 35 6 -4 9 -12 6 -17 -4 -5 0 -9 7 -9 7 -1 2 -7 -12 -14
-14 -8 -28 -12 -32 -10 -5 3 -8 -1 -8 -8 0 -11 -2 -10 -9 0 -7 11 -9 11 -14
-2 -7 -19 6 -20 36 -4 27 14 69 19 61 7 -3 -5 0 -9 5 -9 6 0 11 14 11 31 0 21
4 28 13 23 9 -6 9 -4 -1 8 -10 13 -10 17 3 22 12 4 14 10 5 26 -9 16 -8 18 5
14 8 -4 15 -1 15 5 0 12 -32 15 -43 4 -4 -3 -1 -13 6 -21 8 -11 8 -14 0 -9 -6
4 -18 -2 -26 -13 -14 -20 -47 -19 -47 2 0 6 6 6 14 -1 9 -7 17 -8 20 -3 3 6
-2 13 -11 16 -14 6 -15 9 -4 15 7 5 12 11 12 15 -2 25 12 36 25 19 12 -17 13
-16 7 5 -3 12 -9 22 -13 22 -4 0 -11 7 -14 16 -4 10 -2 13 6 8 8 -5 9 -1 4 12
-4 10 -4 15 0 12 7 -8 54 44 54 60 0 5 12 10 27 10 21 0 23 -2 9 -10 -9 -5
-13 -14 -9 -21 13 -21 11 -36 -4 -30 -8 3 -12 12 -9 19 7 17 -6 18 -22 2 -9
-9 -6 -16 14 -29 16 -10 22 -19 15 -23 -6 -4 -11 -2 -11 5 0 7 -6 4 -14 -7
-13 -17 -12 -20 2 -27 13 -5 11 -6 -5 -3 -31 6 -29 -12 3 -24 30 -12 34 -12
32 -2 -3 16 15 41 26 35 6 -4 4 2 -4 12 -14 17 -13 18 3 12 15 -6 16 -4 7 13
-6 11 -7 20 -3 19 28 -5 43 3 43 24 0 18 2 19 10 7 8 -13 10 -12 10 4 0 11 3
17 6 13 4 -3 13 1 22 9 13 14 13 17 1 25 -13 8 3 13 31 11 3 0 7 9 7 21 1 12
8 26 15 32 8 5 15 28 17 50 1 22 5 42 7 44 2 2 -1 10 -8 18 -6 8 -7 13 -2 12
21 -4 28 2 14 11 -13 8 -13 11 -1 19 11 7 10 11 -5 20 -16 9 -17 10 -2 11 11
0 15 7 13 25 -1 14 1 25 5 25 12 0 3 49 -12 67 -9 12 -9 15 0 9 12 -7 17 7 12
29 -1 6 -3 15 -3 22 0 7 -4 10 -9 7 -5 -3 -5 -10 -2 -16 4 -7 2 -8 -4 -4 -7 4
-12 2 -12 -5 0 -7 -3 -10 -6 -7 -3 4 0 16 6 28 8 14 8 25 1 33 -6 8 -6 18 -1
27 5 8 6 18 3 24 -4 5 1 7 12 2 14 -5 16 -4 7 7 -9 10 -8 17 1 27 9 10 9 11 0
6 -7 -4 -13 -3 -13 1 0 5 6 15 13 22 10 11 10 13 0 7 -9 -5 -13 1 -14 21 0 15
-1 42 -2 59 -1 21 2 30 10 27 6 -3 13 6 15 19 2 13 9 22 16 20 8 -1 11 2 7 8
-3 6 -10 8 -15 5 -4 -3 -7 3 -6 12 2 9 9 19 17 21 11 3 11 1 -1 -8 -13 -10
-13 -11 0 -7 8 2 16 9 16 15 1 7 2 13 4 15 1 1 3 9 5 17 2 8 6 24 10 35 6 16
5 17 -4 5 -7 -10 -11 -11 -11 -3 0 7 9 17 20 23 16 8 18 15 11 29 -7 13 -4 25
14 47 18 22 21 33 13 48 -8 14 -7 17 3 11 9 -6 10 -3 5 10 -5 15 -4 16 9 5 13
-11 14 -10 9 4 -3 9 -10 16 -15 16 -5 0 1 10 13 22 20 20 20 22 3 35 -13 8
-14 13 -5 13 7 0 10 3 7 7 -4 3 -1 13 6 21 9 12 9 16 0 19 -7 3 -13 11 -13 18
0 7 -7 16 -16 19 -9 3 -12 11 -8 18 6 10 3 9 -9 0 -9 -8 -20 -11 -26 -8 -5 3
-8 -8 -6 -27 1 -17 -3 -38 -9 -46 -9 -12 -7 -13 9 -7 16 6 18 5 8 -5 -10 -9
-16 -10 -24 -2 -8 8 -8 13 0 17 7 5 8 14 2 24 -4 9 -7 25 -6 35 2 9 -1 15 -6
11 -5 -3 -7 -8 -5 -12 2 -4 -2 -13 -10 -20 -8 -7 -14 -8 -14 -3 0 5 -9 13 -20
16 -11 3 -20 11 -20 16 0 5 11 2 25 -7 15 -10 25 -12 25 -5 0 6 -5 11 -11 11
-6 0 -17 7 -25 15 -14 13 -13 15 3 16 17 0 17 1 0 8 -22 8 -24 21 -5 32 9 6 7
8 -7 8 -11 1 -35 3 -53 5 -17 2 -35 0 -38 -5z m-244 -663 c-8 -10 -8 -16 -2
-16 6 0 14 5 17 10 3 6 11 10 16 10 6 0 7 -4 4 -10 -3 -5 -2 -10 3 -10 6 0 13
-8 16 -17 6 -16 6 -16 -12 0 -30 27 -38 20 -11 -10 13 -14 18 -23 10 -18 -11
6 -13 4 -7 -11 4 -10 4 -15 0 -12 -8 8 -44 -34 -44 -51 0 -15 12 -14 40 6 l25
16 -23 -25 c-15 -17 -20 -31 -15 -44 6 -17 5 -17 -10 -5 -9 7 -14 17 -11 22 3
5 -2 6 -11 3 -14 -6 -13 -8 5 -21 20 -14 30 -50 10 -38 -5 3 -10 2 -10 -4 0
-16 58 -6 88 16 25 19 28 19 28 3 0 -11 -6 -16 -15 -12 -9 3 -12 1 -7 -6 5 -8
2 -10 -9 -6 -11 5 -14 2 -9 -10 3 -9 11 -13 16 -10 6 4 5 -3 -1 -15 -10 -19
-8 -26 19 -52 34 -34 37 -47 15 -55 -8 -4 -12 -11 -8 -17 3 -6 1 -7 -5 -3 -6
4 -9 13 -6 21 4 8 10 12 15 9 5 -3 9 0 9 6 0 6 -7 13 -15 16 -8 4 -13 9 -11
13 3 4 -4 13 -15 19 -25 16 -24 -15 1 -35 8 -6 12 -15 7 -19 -4 -4 -7 -2 -7 5
0 7 -4 9 -10 6 -17 -11 -32 5 -19 21 6 8 7 14 2 14 -5 0 -10 7 -10 15 0 8 4
12 8 10 10 -7 19 22 13 40 -4 8 -10 13 -15 10 -4 -3 -6 -12 -2 -20 3 -8 0 -15
-5 -15 -6 0 -9 9 -7 19 4 21 -17 23 -37 3 -9 -9 -9 -12 0 -12 7 0 12 5 12 11
0 5 5 7 10 4 8 -5 7 -12 -2 -23 -7 -9 -8 -13 -2 -9 7 4 11 -4 12 -21 1 -37 5
-56 15 -63 4 -3 9 -15 10 -27 0 -12 7 -24 14 -26 7 -3 10 1 6 10 -3 7 0 14 7
14 6 0 9 -4 6 -9 -3 -5 2 -15 11 -22 15 -12 16 -12 10 4 -6 17 -4 17 26 -2 19
-11 37 -18 40 -14 12 12 7 21 -10 19 -11 0 -17 5 -15 13 2 8 -3 11 -12 8 -10
-4 -13 -1 -9 9 4 12 12 10 39 -11 36 -28 45 -24 17 7 -13 15 -14 21 -4 31 10
9 11 8 5 -8 -5 -16 -4 -18 6 -8 7 6 19 9 26 6 8 -3 14 1 14 11 0 9 4 16 8 16
17 0 8 -30 -10 -36 -10 -3 -16 -10 -12 -15 3 -5 10 -6 16 -3 7 4 8 2 4 -4 -4
-7 -2 -12 5 -12 7 0 9 -3 6 -6 -4 -4 -13 -1 -22 6 -8 7 -15 8 -15 3 0 -16 22
-32 39 -26 13 4 14 3 1 -5 -22 -16 -19 -65 5 -79 18 -10 18 -11 -7 -10 -14 1
-24 6 -21 11 3 5 0 6 -8 4 -8 -3 -13 -12 -11 -21 1 -8 -1 -18 -5 -20 -10 -6
-11 59 -1 69 9 8 1 24 -13 24 -6 0 -8 -4 -4 -9 3 -5 1 -12 -4 -15 -10 -7 -9
20 2 30 3 4 13 1 22 -6 23 -19 28 -6 5 15 -19 17 -21 17 -39 1 -11 -10 -18
-26 -16 -36 3 -14 -1 -17 -12 -13 -11 5 -14 3 -8 -6 6 -10 3 -11 -15 -1 -12 6
-19 18 -16 25 3 8 1 17 -4 20 -9 6 -14 -8 -11 -27 0 -5 -4 -8 -11 -8 -6 0 -8
-3 -4 -7 7 -8 12 -9 38 -12 7 -1 4 -9 -7 -21 -17 -19 -14 -25 10 -21 6 1 2 -6
-8 -15 -16 -17 -16 -19 5 -32 l23 -13 -23 5 c-15 3 -22 0 -19 -7 3 -7 9 -11
15 -10 6 1 7 -7 4 -20 -5 -18 -7 -19 -10 -4 -4 19 -32 24 -32 5 0 -9 -4 -8
-10 2 -9 14 -15 7 -11 -14 1 -5 -4 -4 -12 2 -15 13 -43 -7 -32 -22 3 -3 0 -2
-7 4 -8 7 -5 15 12 30 13 11 21 20 19 21 -2 0 -12 2 -22 4 -13 2 -17 -1 -13
-11 3 -8 2 -12 -3 -9 -5 3 -11 -5 -13 -17 -2 -13 -9 -22 -16 -20 -6 1 -12 -2
-12 -8 0 -5 5 -10 12 -10 6 0 8 -3 4 -7 -4 -5 -14 1 -22 11 -8 11 -14 14 -14
8 0 -7 -4 -12 -8 -12 -5 0 -9 7 -9 15 0 8 4 12 10 8 5 -3 7 5 5 18 -1 12 -10
25 -18 27 -12 4 -13 3 -2 -10 10 -13 10 -17 -1 -21 -9 -3 -13 2 -12 16 1 12 9
23 18 25 10 2 15 8 12 13 -4 5 -1 9 5 9 6 0 8 6 4 13 -6 10 -4 10 7 0 21 -20
34 -15 16 5 -12 13 -13 19 -5 20 37 3 79 22 50 22 -7 0 -12 5 -12 11 0 5 4 8
9 5 5 -3 15 2 22 12 13 15 12 16 -3 3 -10 -7 -18 -10 -18 -5 0 5 -9 -2 -20
-16 l-21 -25 12 28 c7 15 16 27 21 27 5 0 6 5 3 10 -3 6 -1 10 5 10 7 0 9 -7
6 -16 -3 -8 -2 -13 3 -10 5 3 11 15 14 26 4 17 2 20 -13 15 -14 -4 -19 -1 -19
12 -2 44 -7 72 -13 79 -11 11 -10 24 3 24 5 0 8 -4 4 -9 -8 -14 15 -25 27 -13
7 7 3 14 -11 22 -12 6 -19 15 -16 21 4 5 2 9 -4 9 -5 0 -13 -9 -16 -21 -4 -11
-9 -18 -12 -15 -3 3 2 17 11 30 15 24 15 26 -4 44 -19 18 -20 20 -3 33 9 8 14
9 10 2 -4 -6 -3 -14 2 -18 6 -3 8 4 6 16 -3 13 1 29 8 38 9 12 9 13 0 7 -7 -4
-13 -3 -13 2 0 15 -34 9 -41 -7 -4 -11 -7 -9 -11 6 -5 18 -2 21 19 17 21 -4
23 -2 13 16 -9 17 -6 24 16 45 15 14 31 25 35 25 5 0 9 5 9 12 0 6 -8 4 -19
-6 -15 -14 -21 -15 -27 -4 -4 7 -4 10 1 6 4 -4 14 0 22 8 8 8 19 12 24 9 5 -4
9 -1 9 6 0 6 -8 9 -19 6 -16 -4 -18 0 -15 20 3 18 1 23 -8 17 -7 -4 -5 2 6 14
16 18 17 24 5 39 -12 17 -12 17 6 1 15 -14 16 -20 5 -32z m575 -4086 c-3 -5
-1 -10 5 -10 6 0 10 -6 9 -12 -5 -38 2 -72 11 -58 5 8 10 10 10 5 0 -6 -6 -17
-12 -24 -10 -11 -10 -12 -1 -7 8 5 17 -3 25 -21 6 -15 19 -37 27 -48 15 -18
15 -19 -2 -6 -15 12 -17 12 -10 -4 5 -15 3 -17 -11 -12 -10 4 -15 3 -11 -3 3
-6 14 -10 23 -10 15 0 15 -2 2 -10 -13 -9 -13 -10 0 -10 13 0 13 -1 0 -10 -8
-5 -11 -10 -7 -10 5 0 1 -7 -8 -16 -9 -10 -13 -20 -8 -23 12 -8 10 -28 -3 -41
-8 -8 -11 -6 -11 4 0 8 5 12 10 9 6 -3 7 -1 3 6 -4 6 -11 9 -16 6 -9 -6 -8
-24 3 -42 4 -6 3 -15 -3 -18 -8 -5 -7 -12 2 -23 10 -12 10 -14 1 -8 -8 4 -13
2 -13 -5 0 -18 -10 -5 -15 20 -2 11 -7 26 -11 33 -5 7 -3 8 6 3 9 -5 10 -2 6
13 -14 44 -14 62 0 76 8 8 14 20 14 26 0 6 5 8 12 4 7 -4 8 -3 4 4 -4 6 -14 8
-23 5 -12 -5 -14 -3 -7 8 12 19 18 69 6 51 -7 -11 -10 -9 -14 6 -3 11 -1 26 6
32 6 6 7 11 1 10 -24 -5 -27 2 -9 22 13 15 14 18 3 10 -15 -11 -16 -8 -14 30
4 60 4 58 16 58 5 0 7 -4 4 -10z m-692 -2799 c9 6 17 7 17 3 0 -3 7 -1 16 6 8
8 14 9 12 4 -2 -5 -1 -9 2 -10 3 0 15 -6 27 -13 18 -9 22 -9 18 2 -4 8 3 13
15 14 11 1 20 -3 20 -8 0 -6 -4 -7 -10 -4 -5 3 -10 2 -10 -4 0 -5 19 -9 43 -8
32 2 41 -1 39 -13 -1 -8 9 -1 24 15 18 21 22 23 15 8 -16 -32 -13 -50 4 -27
13 16 14 16 9 2 -3 -10 -2 -18 4 -18 6 0 12 5 14 12 3 7 7 5 11 -6 4 -9 3 -15
-2 -11 -5 3 -12 1 -16 -4 -3 -6 5 -8 19 -5 14 2 28 -1 32 -7 5 -8 3 -9 -6 -4
-9 6 -11 4 -5 -5 6 -10 11 -9 22 5 12 18 18 11 15 -16 -1 -4 8 -5 18 -2 11 3
20 1 20 -5 0 -11 21 -20 67 -28 16 -3 30 -9 31 -15 2 -5 8 -9 13 -9 6 0 8 4 5
8 -3 5 1 9 9 9 8 0 11 -5 8 -10 -4 -6 0 -8 10 -4 12 4 15 1 11 -11 -5 -15 -4
-15 9 1 14 17 15 17 20 -2 6 -23 64 -14 59 8 -1 7 2 10 8 6 8 -5 8 -11 1 -19
-14 -17 -1 -29 16 -15 10 9 13 8 13 -2 0 -10 3 -10 12 -1 7 7 17 12 22 12 6 0
4 -5 -4 -10 -11 -7 -11 -10 -2 -10 7 0 10 -6 7 -12 -4 -7 1 -4 9 6 16 20 16
20 16 0 0 -16 2 -17 10 -4 5 8 10 10 10 4 0 -17 28 -25 36 -12 4 6 3 8 -4 4
-6 -3 -13 -2 -16 3 -4 5 2 8 11 6 10 -2 18 -4 18 -5 0 -1 12 -3 27 -4 21 -2
25 0 18 9 -8 9 -4 12 15 9 17 -1 30 4 38 17 13 21 32 27 22 7 -4 -7 0 -5 8 5
14 17 33 24 23 9 -7 -11 31 -8 41 3 5 4 2 5 -4 1 -7 -4 -13 -5 -13 -2 0 3 9
10 20 16 11 6 20 7 19 3 -4 -24 1 -38 10 -25 6 11 13 7 30 -16 15 -22 18 -32
9 -35 -7 -3 -2 -6 12 -6 17 -1 21 -4 12 -10 -12 -7 -19 -30 -24 -78 -1 -7 -5
-13 -10 -13 -5 0 -7 -4 -4 -8 3 -5 -3 -18 -14 -29 -10 -12 -16 -24 -13 -27 4
-3 1 -6 -5 -6 -7 0 -11 -6 -9 -12 1 -7 -4 -12 -12 -10 -12 3 -12 0 -1 -13 11
-13 10 -14 -5 -9 -12 5 -16 4 -11 -4 3 -6 0 -15 -9 -19 -8 -5 -16 -17 -18 -28
-1 -11 -6 -26 -11 -34 -5 -8 -10 -31 -11 -51 -2 -32 -85 -163 -85 -134 0 5 -7
-2 -16 -14 -8 -12 -22 -22 -30 -22 -9 0 -12 -5 -8 -12 5 -8 0 -9 -14 -6 -16 5
-22 1 -23 -10 0 -12 -2 -13 -6 -3 -5 11 -7 11 -14 0 -7 -11 -9 -11 -9 -1 0 8
-5 10 -12 5 -18 -11 -39 -13 -33 -3 3 4 -2 11 -11 14 -8 3 -12 2 -9 -3 3 -5 0
-13 -6 -17 -8 -4 -9 -3 -5 4 4 7 2 12 -4 12 -6 0 -8 5 -5 10 3 6 1 10 -5 10
-17 0 -45 30 -28 30 7 1 0 8 -15 16 -15 8 -25 19 -22 25 4 5 3 9 -2 8 -16 -4
-43 13 -36 24 3 5 1 7 -5 3 -6 -3 -13 -2 -16 2 -3 5 -17 7 -31 5 -13 -3 -22
-9 -19 -14 3 -5 1 -9 -5 -9 -5 0 -22 -11 -37 -25 -22 -21 -30 -23 -42 -13 -11
9 -13 9 -9 1 8 -13 -18 -12 -30 2 -4 4 -2 5 6 0 9 -5 12 -4 7 3 -4 6 -13 9
-21 5 -10 -3 -15 1 -15 12 0 9 -4 14 -9 11 -11 -7 -91 34 -91 46 0 5 -4 6 -10
3 -5 -3 -10 -1 -10 6 0 7 -3 10 -6 6 -3 -3 -17 5 -31 19 -26 26 -39 32 -27 12
6 -9 3 -9 -9 0 -9 8 -21 11 -27 7 -6 -4 -10 -3 -9 2 4 26 -1 38 -11 23 -5 -8
-10 -10 -10 -4 0 11 -46 29 -62 26 -5 -1 -8 4 -8 10 0 9 -4 8 -10 -2 -5 -8
-10 -10 -10 -4 0 7 -10 9 -25 6 -14 -2 -22 -8 -19 -13 3 -5 0 -9 -5 -9 -6 0
-11 6 -11 13 0 8 -3 8 -9 -2 -5 -8 -16 -11 -26 -8 -9 4 -14 3 -10 -3 6 -9 -8
-14 -20 -7 -2 1 -11 -7 -20 -18 -8 -11 -13 -13 -10 -5 4 12 -7 15 -64 15 -38
0 -67 -3 -65 -6 2 -3 -4 -15 -12 -25 -9 -10 -12 -13 -8 -5 5 11 1 12 -20 7
-28 -7 -73 -45 -68 -58 1 -5 -2 -8 -7 -8 -18 0 -20 -44 -3 -64 9 -11 11 -16 5
-12 -22 13 -14 -12 9 -28 19 -13 20 -18 9 -28 -8 -8 -11 -8 -8 -2 4 7 1 14 -6
17 -10 4 -13 -2 -9 -20 3 -15 1 -23 -5 -20 -5 3 -15 -4 -23 -16 -12 -21 -12
-21 6 -7 14 11 16 11 7 0 -17 -19 -59 -25 -47 -7 5 7 2 5 -7 -5 -15 -15 -18
-16 -23 -2 -3 8 -2 12 4 9 6 -3 10 -1 10 4 0 6 -7 11 -15 11 -9 0 -12 6 -9 15
4 8 1 15 -5 15 -19 0 -25 2 -43 11 -11 6 -19 5 -24 -3 -5 -7 -3 -8 6 -3 9 5
11 4 6 -3 -5 -8 -1 -10 11 -6 15 5 16 4 3 -5 -12 -9 -10 -11 11 -7 21 3 26 1
24 -12 -1 -10 2 -22 7 -29 11 -14 2 -33 -15 -32 -9 0 -9 2 1 6 6 2 12 9 12 14
0 6 -5 7 -10 4 -6 -3 -17 1 -26 9 -9 9 -20 14 -25 11 -5 -4 -9 -1 -9 4 0 6 5
11 11 11 5 0 7 5 3 11 -4 8 -9 8 -17 0 -6 -6 -15 -11 -21 -11 -5 0 -1 7 10 16
16 13 16 15 2 10 -10 -3 -18 -1 -18 4 0 6 7 10 16 10 8 0 12 5 9 10 -3 6 -2
10 4 10 6 0 7 8 4 17 -4 10 -8 12 -10 6 -3 -7 -11 -9 -19 -6 -11 4 -12 8 -3
19 10 12 8 13 -16 4 -24 -9 -26 -8 -16 4 9 11 8 15 -4 20 -8 3 -15 15 -15 26
0 11 -4 20 -10 20 -5 0 -10 7 -10 15 0 8 -5 15 -11 15 -5 0 -8 4 -5 9 3 4 -1
17 -9 27 -15 19 -15 18 -9 -1 3 -12 -1 -9 -11 8 -8 15 -19 27 -23 28 -41 4
-62 19 -62 44 0 6 4 4 9 -4 11 -17 25 4 15 22 -5 7 0 6 11 -3 11 -9 16 -10 11
-2 -4 7 -1 12 8 12 9 0 13 6 10 14 -3 8 0 17 7 22 8 5 10 3 4 -7 -8 -12 -6
-12 8 0 18 14 23 26 8 16 -5 -3 -12 -1 -15 4 -3 5 4 11 15 14 12 3 18 10 15
16 -4 6 13 24 36 40 62 44 69 51 63 61 -3 6 1 7 10 3 13 -5 14 -7 3 -14 -9 -6
-9 -9 -1 -9 7 0 17 9 23 20 6 11 19 20 30 20 10 0 22 5 25 11 4 6 14 8 22 5 8
-3 12 -2 9 3 -8 13 34 62 46 55 6 -4 5 2 -1 15 -7 12 -8 21 -4 20 17 -3 33 1
32 9 -5 29 2 46 12 32 9 -12 10 -11 6 7 -3 12 1 27 9 34 8 6 11 16 8 21 -4 6
6 2 22 -8 27 -19 28 -19 21 0 -6 16 -5 17 8 6 8 -7 12 -17 8 -24 -4 -6 1 -5
10 3 9 7 15 16 13 20 -3 4 4 12 15 19 11 7 19 8 19 2 0 -5 -5 -10 -12 -10 -6
0 -9 -3 -5 -6 3 -3 15 0 26 8 12 8 18 17 15 20 -3 3 -1 9 4 12 11 7 10 -13 -1
-31 -4 -6 -2 -15 4 -19 7 -4 9 -3 6 3 -4 6 0 13 8 16 10 4 12 1 8 -10 -5 -13
-3 -14 17 -3 12 7 20 8 16 2 -3 -5 1 -13 10 -16 8 -3 13 -2 10 2 -7 11 25 9
43 -3 11 -6 13 -4 8 9 -5 14 -3 15 13 6 25 -13 63 8 55 30 -3 9 1 7 10 -4 14
-18 20 -15 15 9 -1 5 9 1 21 -10 l23 -20 -18 30 c-19 29 -19 30 0 13 14 -12
24 -14 37 -7z"/>
<path d="M3827 8843 c3 -7 11 -13 18 -13 7 0 15 6 18 13 3 6 4 2 4 -10 -1 -13
-4 -23 -8 -23 -4 0 -6 -11 -4 -25 1 -14 -2 -28 -7 -31 -4 -3 -8 -2 -7 3 3 20
-2 25 -16 13 -8 -7 -13 -16 -10 -20 5 -7 -25 -38 -32 -32 -13 9 -24 0 -14 -12
9 -10 8 -16 -4 -26 -12 -10 -15 -10 -15 1 -1 9 -4 7 -11 -4 -8 -13 -8 -22 -1
-29 6 -6 9 -16 8 -22 -2 -6 -1 -7 2 -2 2 4 8 2 13 -5 6 -9 9 -10 9 -2 0 6 -4
15 -10 18 -5 3 -10 11 -10 16 0 6 4 8 9 5 5 -3 14 0 20 8 18 21 69 6 55 -16
-5 -7 -2 -8 7 -2 8 5 17 9 21 9 3 0 10 4 15 8 4 5 2 7 -6 5 -11 -2 -15 8 -16
39 -2 37 1 42 18 40 11 -1 22 5 25 13 5 13 3 13 -13 0 -10 -8 -16 -10 -12 -3
4 6 3 14 -3 18 -7 4 -7 12 0 26 6 10 7 19 3 19 -4 0 -1 4 7 10 18 11 41 -6 33
-26 -6 -17 6 -18 27 -3 13 10 13 10 -1 6 -9 -3 -16 1 -16 8 0 7 6 11 13 8 20
-8 24 12 4 25 -12 7 -21 8 -25 2 -4 -6 -12 -7 -18 -3 -21 13 -75 9 -70 -4z"/>
<path d="M8328 8372 c-10 -2 -18 -8 -18 -13 0 -5 -5 -9 -11 -9 -5 0 -7 6 -3
13 6 8 3 8 -9 -2 -19 -15 -97 -21 -97 -6 0 6 -3 6 -8 -1 -4 -5 -22 -10 -40 -9
-18 0 -35 -3 -38 -7 -3 -4 -11 -5 -20 -1 -9 3 -14 0 -12 -8 2 -7 -3 -14 -9
-15 -7 -1 -18 -2 -24 -3 -5 0 -7 -5 -4 -11 3 -5 1 -10 -6 -10 -7 0 -4 -7 7
-15 19 -15 19 -15 -1 -8 -20 6 -20 6 -1 -15 11 -12 16 -30 13 -41 -3 -11 0
-22 7 -25 7 -3 6 -8 -4 -15 -13 -10 -13 -11 0 -11 9 0 11 -3 5 -8 -6 -4 -11
-25 -10 -47 0 -22 -4 -46 -9 -52 -5 -8 -4 -13 4 -13 9 0 9 -4 2 -12 -5 -7 -8
-23 -6 -35 2 -14 -1 -23 -9 -23 -8 0 -7 -4 3 -10 8 -5 10 -10 4 -10 -7 0 -8
-17 -5 -47 11 -84 8 -108 -11 -107 -10 1 -18 -2 -18 -6 0 -4 -7 -11 -16 -14
-10 -4 -13 -2 -8 7 6 9 4 9 -8 -1 -13 -10 -18 -10 -29 0 -8 7 -34 13 -59 13
-25 0 -48 5 -52 10 -5 6 -8 4 -8 -5 0 -13 -1 -13 -10 0 -9 13 -10 13 -10 0 0
-13 -2 -13 -9 -1 -8 12 -12 12 -25 2 -12 -11 -16 -11 -16 -1 0 9 -4 9 -17 -1
-15 -12 -16 -12 -8 1 6 12 5 12 -5 3 -7 -6 -19 -9 -28 -6 -11 5 -13 3 -7 -7 6
-10 4 -12 -9 -7 -10 4 -15 3 -11 -3 3 -6 1 -10 -4 -10 -6 0 -11 -7 -11 -15 0
-8 -7 -15 -15 -15 -9 0 -12 -6 -8 -17 4 -10 2 -14 -4 -10 -5 3 -16 -9 -23 -28
-7 -19 -16 -33 -19 -31 -3 2 -12 -2 -19 -10 -10 -11 -10 -14 0 -15 7 0 3 -4
-9 -9 -13 -5 -23 -16 -23 -24 0 -9 -9 -20 -21 -26 -11 -7 -18 -14 -15 -18 3
-3 -1 -16 -10 -30 -11 -17 -12 -22 -3 -16 11 6 12 5 2 -7 -9 -12 -16 -49 -25
-136 -1 -7 -5 -13 -10 -13 -5 0 -6 -4 -3 -10 3 -5 2 -10 -2 -10 -5 0 -10 -12
-11 -27 -1 -15 -6 -29 -11 -32 -5 -3 -17 -23 -28 -43 -11 -21 -24 -34 -28 -30
-5 4 -5 1 0 -7 4 -8 2 -17 -6 -22 -8 -4 -14 -12 -14 -16 0 -14 -50 -58 -63
-55 -7 2 -11 -3 -10 -10 2 -7 -3 -12 -9 -10 -7 1 -13 -4 -13 -12 0 -8 -9 -12
-25 -11 -18 2 -25 -2 -25 -13 0 -15 -2 -15 -10 -2 -9 13 -11 13 -20 0 -9 -13
-11 -13 -20 0 -5 8 -10 10 -10 4 0 -7 -17 -11 -45 -10 -25 1 -45 -2 -45 -7 0
-4 -5 -5 -12 -1 -16 10 -90 5 -102 -7 -15 -13 -28 -11 -20 4 5 8 3 8 -9 -2 -9
-7 -28 -11 -42 -9 -13 3 -26 0 -29 -6 -3 -7 -5 -7 -5 2 -1 6 -6 12 -12 12 -5
0 -8 -4 -4 -9 3 -5 0 -13 -6 -17 -7 -4 -9 -3 -6 3 4 6 0 16 -8 23 -13 11 -14
10 -10 -3 4 -8 1 -18 -5 -22 -6 -4 -9 -1 -8 7 2 9 -5 12 -22 10 -20 -2 -22 -1
-10 7 8 6 10 11 5 11 -6 0 -16 -5 -23 -12 -9 -9 -12 -9 -12 1 0 7 -5 9 -10 6
-6 -4 -8 -10 -5 -15 3 -5 0 -12 -6 -16 -7 -4 -9 -3 -6 3 9 14 -22 40 -31 27
-10 -14 -32 -16 -32 -3 0 7 -10 9 -25 7 -14 -3 -28 -1 -32 5 -4 6 -1 7 7 2 9
-6 11 -4 6 4 -5 7 -10 10 -13 7 -3 -3 -14 -1 -24 4 -13 8 -19 6 -22 -8 -4 -14
-5 -14 -6 3 -1 17 -3 18 -11 5 -7 -11 -10 -11 -10 -2 0 7 -4 10 -10 7 -5 -3
-10 -1 -10 6 0 8 -5 7 -17 -2 -15 -12 -16 -12 -8 1 6 12 5 13 -6 3 -18 -18
-34 -16 -20 1 10 12 9 13 -8 9 -11 -3 -17 -11 -15 -17 3 -7 -3 -19 -13 -27
-16 -12 -17 -12 -7 1 13 19 16 62 3 55 -5 -4 -9 -1 -9 6 0 7 -3 10 -6 6 -8 -8
-34 18 -34 33 0 6 -4 9 -9 6 -4 -3 -17 2 -27 10 -10 9 -13 12 -5 8 10 -5 12
-3 6 5 -5 9 -10 10 -18 2 -7 -7 -15 -5 -24 7 -8 9 -12 12 -9 6 10 -21 -20 -23
-37 -3 -9 10 -24 19 -32 19 -8 0 -15 6 -15 13 0 8 -4 7 -10 -3 -10 -15 -15 -3
-11 23 1 4 -8 3 -20 -4 -13 -6 -19 -7 -15 -1 3 6 -3 13 -14 17 -11 3 -20 11
-20 16 0 6 -4 7 -10 4 -5 -3 -10 -1 -10 5 0 7 -9 9 -22 5 -17 -5 -19 -4 -9 4
12 8 13 12 2 25 -11 13 -17 14 -30 4 -9 -7 -13 -9 -9 -4 11 13 -34 57 -47 46
-13 -11 -25 -3 -25 14 0 6 5 4 10 -4 7 -11 10 -12 10 -2 0 8 -9 16 -20 19 -11
3 -20 10 -20 15 0 5 4 6 10 3 6 -3 7 1 4 10 -5 11 -10 13 -19 5 -9 -8 -14 -5
-18 11 -6 21 -42 24 -42 4 -1 -19 -23 -50 -31 -42 -4 4 1 14 12 22 10 8 15 15
10 15 -5 0 -3 7 4 15 7 9 10 19 6 22 -4 4 -12 1 -17 -7 -8 -11 -8 -8 -3 10 6
23 6 24 -11 10 -11 -8 -16 -10 -13 -5 3 6 0 16 -8 23 -9 8 -14 9 -14 2 0 -6
-5 -8 -10 -5 -6 4 -7 12 -3 18 5 9 3 9 -8 0 -12 -10 -18 -10 -29 0 -10 10 -12
9 -7 -5 4 -10 2 -18 -3 -18 -6 0 -10 5 -10 10 0 17 -36 51 -56 55 -11 2 -19 4
-19 5 0 1 -16 4 -35 7 -19 2 -38 10 -42 16 -6 9 -8 9 -8 0 0 -7 -5 -13 -10
-13 -6 0 -9 5 -8 12 2 7 -6 12 -17 12 -11 0 -22 3 -25 7 -3 4 -12 9 -20 11 -8
2 -20 10 -27 18 -10 12 -12 12 -13 1 0 -11 -3 -11 -15 -1 -8 6 -19 9 -24 6 -5
-4 -14 1 -19 11 -11 19 -42 27 -42 10 0 -7 -4 -6 -9 3 -6 8 -7 19 -3 25 3 5
-3 3 -13 -5 -11 -9 -16 -10 -11 -2 5 8 -1 12 -18 12 -14 0 -26 5 -26 11 0 5
-4 7 -10 4 -5 -3 -10 -2 -10 4 0 6 -7 7 -17 4 -11 -5 -14 -3 -8 6 6 10 2 11
-15 6 -15 -5 -20 -4 -16 4 5 7 1 8 -10 4 -12 -4 -15 -3 -10 5 8 13 -28 12 -40
-1 -4 -4 -12 -7 -17 -7 -5 0 -1 8 10 18 10 9 17 16 14 14 -2 -1 -15 5 -29 14
-13 8 -31 13 -40 10 -13 -5 -12 -2 2 9 19 14 19 15 -5 15 -14 0 -29 3 -33 8
-7 7 -11 8 -38 11 -9 1 -8 4 2 11 13 8 13 10 -1 10 -9 0 -29 7 -45 14 -15 8
-31 13 -36 10 -4 -3 -8 0 -8 5 0 6 -6 11 -14 11 -8 0 -16 3 -19 8 -2 4 -2 1
-1 -6 3 -9 -1 -10 -16 -2 -13 7 -21 7 -25 0 -4 -6 -10 -8 -14 -5 -14 8 -20 45
-9 52 7 4 8 1 3 -7 -5 -8 -4 -11 3 -7 6 5 8 -1 4 -15 -5 -20 -3 -21 10 -11 8
7 19 9 24 5 4 -4 2 1 -5 11 -8 10 -28 28 -45 40 -19 13 -26 15 -18 5 9 -11 10
-18 2 -23 -6 -4 -9 -1 -8 7 2 7 -2 12 -9 11 -7 -2 -10 3 -7 10 2 7 -4 22 -16
32 -11 10 -20 14 -20 9 0 -5 -6 2 -13 16 -7 14 -23 27 -36 28 -17 3 -21 0 -16
-10 5 -7 4 -10 -1 -5 -5 5 -9 14 -9 20 0 7 -8 12 -17 12 -22 0 -33 12 -11 12
10 0 25 -5 33 -11 13 -10 13 -9 1 7 -7 9 -22 17 -32 17 -10 0 -21 5 -25 12 -5
7 -3 8 6 3 9 -5 11 -4 6 4 -4 6 -16 9 -27 6 -11 -4 -19 -2 -19 5 0 6 5 8 10 5
20 -12 9 7 -19 36 -16 16 -35 29 -43 29 -10 0 -9 3 2 10 13 8 13 10 -1 10 -9
0 -20 10 -26 22 -6 15 -12 18 -17 10 -4 -7 -2 -12 6 -12 10 0 10 -2 -1 -9 -8
-5 -16 -17 -17 -25 -1 -9 2 -14 7 -10 5 3 7 9 5 13 -3 4 1 8 9 8 13 0 12 -4
-2 -19 -20 -22 -33 -23 -33 -2 0 8 -5 12 -10 9 -6 -4 -8 -11 -5 -16 4 -5 2 -9
-3 -9 -6 0 -13 7 -16 16 -3 9 -2 12 5 9 13 -9 8 26 -6 40 -6 6 -8 9 -6 8 2 -1
12 2 22 8 13 6 19 6 19 -1 0 -5 -6 -10 -12 -10 -9 0 -8 -4 2 -10 12 -8 12 -10
1 -10 -8 0 -12 -2 -9 -5 11 -11 36 7 33 23 -2 9 -4 20 -4 25 -1 4 -10 7 -21 7
-13 0 -18 5 -14 15 4 9 -2 18 -17 24 -13 6 -17 10 -9 11 13 0 13 2 1 9 -8 5
-21 6 -30 3 -14 -5 -14 -4 -1 14 14 19 14 19 -7 1 -12 -11 -26 -16 -31 -13 -5
3 -8 -6 -6 -19 1 -16 -3 -25 -12 -25 -8 0 -14 -5 -14 -11 0 -5 5 -7 11 -3 6 3
3 -6 -7 -22 -11 -16 -13 -25 -6 -20 11 7 11 4 0 -13 -7 -12 -17 -21 -22 -21
-4 0 -3 -6 3 -14 8 -10 9 -15 1 -18 -6 -2 -12 -13 -13 -26 0 -12 -5 -22 -9
-22 -4 0 -8 -4 -8 -10 0 -5 6 -7 14 -4 8 3 16 2 19 -3 8 -13 -36 -11 -46 1 -5
7 -7 2 -4 -10 5 -22 -6 -26 -32 -10 -9 6 -12 5 -8 -1 4 -6 -4 -14 -18 -17 -14
-4 -23 -10 -20 -15 2 -5 -2 -12 -10 -15 -13 -5 -14 -10 -4 -27 8 -16 8 -20 -1
-14 -18 11 9 -36 32 -56 10 -9 18 -21 18 -27 0 -6 9 -14 21 -17 15 -5 17 -10
9 -20 -9 -11 -7 -12 11 -8 17 5 20 3 14 -8 -7 -11 -5 -11 10 1 15 12 17 12 10
1 -6 -11 -4 -13 10 -7 16 6 16 4 4 -11 -8 -9 -9 -14 -2 -10 6 4 18 2 25 -5 36
-34 62 -52 53 -38 -6 10 -4 9 6 -2 9 -9 19 -14 23 -11 3 4 6 1 6 -5 0 -6 6 -9
14 -6 8 3 17 0 22 -7 5 -8 3 -10 -7 -4 -12 8 -12 6 0 -8 14 -18 26 -23 16 -8
-3 5 -1 12 4 15 5 3 12 -1 15 -10 3 -9 12 -14 19 -11 6 2 23 -4 36 -14 13 -10
27 -16 32 -13 5 3 9 -1 9 -9 0 -10 7 -13 20 -10 11 3 20 0 20 -6 0 -6 7 -11
15 -11 8 0 15 -4 15 -8 0 -5 12 -14 26 -20 20 -10 24 -10 19 0 -4 7 2 3 13 -9
11 -12 22 -19 26 -16 3 4 6 1 6 -6 0 -8 6 -11 17 -7 10 4 14 4 10 0 -9 -9 13
-35 24 -28 5 3 9 -2 9 -10 0 -9 9 -16 20 -16 12 0 20 -7 20 -17 0 -15 2 -16
10 -3 8 13 10 12 10 -2 0 -11 8 -18 21 -18 11 0 17 -4 14 -10 -3 -5 3 -10 14
-10 12 0 21 -5 21 -11 0 -8 5 -7 16 1 8 8 14 9 13 4 -4 -21 2 -35 11 -29 6 3
10 2 10 -4 0 -5 9 -8 20 -6 11 2 18 0 15 -4 -2 -5 3 -15 12 -22 9 -8 14 -9 10
-2 -5 8 -1 8 18 0 14 -7 28 -20 31 -29 3 -10 12 -18 20 -18 8 0 14 -5 14 -12
0 -6 3 -8 7 -5 3 4 12 2 20 -4 7 -6 13 -8 13 -3 0 5 4 3 9 -4 4 -7 17 -14 29
-15 11 0 18 -5 16 -9 -3 -4 4 -8 16 -8 13 0 19 -4 14 -12 -4 -6 -3 -8 3 -5 5
3 26 -2 45 -13 20 -10 39 -16 42 -13 3 4 6 -1 6 -11 0 -9 4 -15 9 -12 5 3 20
-3 33 -14 14 -11 28 -16 32 -13 3 3 6 -2 6 -12 0 -10 3 -15 6 -12 10 9 46 -12
39 -23 -3 -6 1 -7 9 -4 8 3 28 -3 43 -14 15 -11 38 -23 51 -26 12 -4 20 -12
16 -17 -3 -6 0 -9 7 -8 8 2 24 -2 37 -9 12 -7 22 -10 22 -7 0 3 12 -7 26 -22
15 -15 23 -21 18 -13 -6 11 -4 10 7 -2 9 -9 19 -15 22 -12 3 3 11 -4 17 -16 7
-13 17 -19 26 -16 8 3 13 2 11 -2 -2 -4 4 -15 15 -24 10 -10 18 -15 18 -12 0
3 7 -1 15 -10 8 -8 15 -20 15 -26 0 -6 4 -9 9 -6 11 7 51 -27 51 -43 0 -7 4
-10 9 -7 5 3 11 -3 14 -14 3 -11 12 -20 21 -20 9 0 16 -8 16 -17 0 -9 3 -14 6
-11 3 3 29 -17 58 -46 30 -28 59 -50 65 -48 6 2 11 -3 11 -12 0 -9 7 -16 15
-16 8 0 15 -5 15 -12 0 -6 3 -9 6 -5 3 3 15 -3 27 -13 11 -11 24 -17 29 -14 4
3 8 0 8 -5 0 -6 9 -11 20 -11 11 0 20 -7 20 -15 0 -8 3 -14 8 -13 12 4 72 -24
72 -33 0 -5 3 -8 8 -7 8 1 57 -10 82 -19 26 -10 54 -16 87 -17 18 0 33 -4 33
-7 0 -4 6 -7 13 -6 41 1 58 -4 51 -15 -6 -9 -3 -9 9 0 9 8 21 11 27 7 5 -3 10
-1 10 5 0 7 6 10 14 7 8 -3 17 -1 20 6 3 9 5 9 5 0 1 -7 6 -13 12 -13 5 0 8 4
5 8 -3 5 1 9 9 9 8 0 15 -5 15 -10 0 -5 11 -2 24 7 18 11 27 13 32 4 5 -7 2
-8 -7 -3 -8 5 -11 4 -6 0 10 -11 48 -14 41 -3 -3 4 1 8 10 8 8 0 17 -6 19 -12
4 -9 6 -7 6 3 1 12 9 15 28 13 15 -1 34 3 42 9 11 9 13 9 8 0 -5 -7 0 -9 13
-6 11 3 17 10 14 15 -4 6 3 5 15 -1 11 -7 21 -8 21 -3 0 5 15 8 33 7 17 -1 35
3 39 9 5 7 8 6 8 -3 0 -11 3 -11 17 0 15 12 16 12 8 -1 -7 -12 -6 -13 6 -3 12
10 18 10 28 0 7 -6 12 -7 11 -2 -5 22 1 29 10 15 5 -8 10 -10 10 -3 0 6 9 9
22 5 16 -4 19 -2 13 9 -7 12 -6 12 7 1 12 -9 22 -10 35 -4 10 5 27 6 38 2 11
-4 25 -4 30 0 6 5 26 10 45 12 19 1 40 9 45 16 6 7 26 15 44 17 19 3 38 10 42
16 5 8 8 7 12 -2 4 -10 6 -9 6 3 1 12 6 15 18 11 12 -5 14 -3 8 8 -7 11 -6 12
6 2 12 -10 17 -8 27 8 7 10 17 19 23 19 6 0 22 9 36 20 14 11 29 17 34 14 5
-3 9 0 9 6 0 6 5 8 11 4 6 -3 15 -1 19 6 4 6 28 13 54 15 41 2 45 0 34 -13 -8
-9 -8 -13 -2 -9 6 4 22 -2 34 -13 27 -24 38 -26 20 -5 -11 13 -10 14 5 9 13
-5 16 -4 10 5 -6 10 -3 11 15 1 18 -10 21 -9 15 1 -6 9 -3 11 11 6 18 -7 18
-6 1 7 -16 12 -16 14 -2 20 9 3 13 2 10 -4 -11 -18 10 -11 27 9 9 11 13 23 10
27 -4 5 2 2 12 -6 18 -14 19 -13 13 3 -7 19 9 24 16 5 4 -10 6 -10 6 0 1 8 6
10 14 6 8 -5 7 -2 -2 9 -12 16 -12 17 5 10 16 -6 17 -4 7 9 -7 8 -9 19 -5 23
4 5 0 6 -10 2 -17 -6 -20 15 -3 30 4 5 5 2 0 -6 -6 -11 -4 -13 8 -8 11 4 15 1
12 -14 -2 -10 0 -19 6 -19 10 0 8 28 -4 47 -4 6 -3 14 2 18 5 3 14 -3 20 -12
14 -24 14 -7 0 19 -8 15 -8 19 0 14 6 -4 14 0 17 9 6 13 8 14 15 3 6 -9 9 -10
9 -1 0 23 33 54 42 40 5 -8 8 -7 8 5 0 9 9 20 20 23 11 3 20 11 20 17 0 6 3 9
6 5 3 -3 16 3 27 14 12 11 27 17 35 14 7 -2 10 0 7 5 -3 6 -2 10 3 10 5 0 19
9 32 20 12 11 27 17 31 14 5 -3 9 1 9 9 0 18 37 29 44 13 2 -6 5 -3 5 6 1 18
34 33 51 23 6 -4 7 1 3 12 -3 10 -2 15 2 10 5 -4 17 1 28 10 15 13 18 14 12 3
-7 -12 -6 -13 7 -3 8 7 19 9 23 5 5 -4 5 -1 1 6 -5 7 -1 12 9 12 12 0 15 5 11
16 -5 14 -4 15 9 4 12 -10 15 -10 15 0 0 7 7 10 16 6 13 -5 14 -4 5 7 -9 12
-7 14 13 12 18 -2 23 1 19 11 -3 10 0 12 10 8 20 -7 34 16 16 27 -8 5 -16 3
-21 -4 -5 -8 -9 -6 -14 6 -3 9 -11 14 -17 10 -6 -3 -7 -1 -3 6 4 6 11 9 15 7
4 -3 26 13 49 35 23 21 42 36 42 32 0 -4 7 2 16 13 8 10 12 12 8 4 -4 -8 -4
-12 1 -8 4 4 13 18 19 30 7 13 17 24 24 24 25 3 27 5 12 14 -13 8 -12 10 3 10
9 0 17 5 17 11 0 6 7 8 16 5 9 -4 13 -2 8 5 -4 6 0 15 7 20 8 4 14 12 15 16 2
20 17 42 24 38 5 -3 11 -1 15 5 3 5 0 10 -7 10 -8 0 -6 5 5 11 10 6 21 8 24 5
4 -3 2 -6 -4 -6 -6 0 -9 -11 -8 -24 2 -15 -3 -27 -13 -31 -14 -5 -14 -7 -2
-15 11 -7 12 -10 2 -10 -7 0 -10 -5 -6 -12 4 -7 3 -8 -5 -4 -6 4 -8 12 -5 18
4 6 2 8 -4 5 -5 -4 -8 -16 -5 -27 3 -12 0 -20 -7 -20 -6 0 -18 -7 -26 -15 -9
-8 -11 -15 -5 -15 6 0 11 -4 11 -9 0 -5 -8 -7 -19 -4 -10 3 -22 0 -25 -5 -9
-15 3 -39 19 -39 13 0 12 3 -2 19 -9 10 -11 18 -5 18 6 0 12 -6 14 -12 6 -17
59 17 55 35 -1 6 4 11 11 9 8 -1 11 2 8 7 -3 5 1 12 10 15 9 4 14 13 10 21 -3
9 0 15 10 15 8 0 12 5 9 10 -3 6 -1 10 4 10 6 0 11 7 11 15 0 8 5 15 11 15 7
0 4 11 -6 26 -9 15 -11 23 -4 19 8 -6 10 -4 5 4 -5 7 -14 10 -22 7 -7 -3 -16
0 -20 6 -4 6 -3 8 3 5 6 -4 14 0 17 9 9 24 7 31 -4 14 -5 -8 -10 -10 -10 -5 0
14 37 45 44 38 6 -6 10 16 9 45 -1 6 2 12 6 12 12 0 9 33 -3 49 -9 12 -8 13 3
6 10 -6 12 -4 6 5 -12 19 -13 60 -2 60 5 0 3 8 -4 17 -10 12 -10 14 -1 9 7 -4
15 -1 18 8 3 9 10 14 14 11 5 -3 18 8 29 24 23 32 24 74 4 107 -7 11 -10 24
-6 27 3 4 -1 7 -11 7 -9 0 -14 4 -11 10 3 5 -3 15 -14 22 -16 10 -18 15 -8 27
7 8 7 12 2 9 -6 -4 -16 2 -23 13 -10 15 -10 19 0 19 10 0 9 3 -1 9 -7 5 -14
26 -15 47 -2 45 -59 114 -95 114 -11 0 -22 4 -25 8 -3 5 -15 8 -28 7 -13 -1
-31 2 -40 7 -13 6 -18 5 -18 -4 0 -8 -3 -9 -8 -3 -4 6 -22 10 -39 10 -18 -1
-33 2 -33 6 0 4 -16 6 -35 5 -19 -1 -35 3 -35 9 0 5 -5 3 -10 -5 -9 -13 -10
-13 -10 0 0 13 -1 13 -10 0 -5 -8 -10 -10 -10 -5 0 10 -66 14 -102 7z"/>
<path d="M5792 2278 c-8 -20 -17 -26 -32 -23 -16 3 -20 0 -17 -10 3 -7 0 -19
-8 -25 -21 -17 -9 -52 27 -82 18 -16 28 -28 24 -28 -5 0 7 -13 27 -28 33 -27
34 -29 16 -40 -12 -8 -19 -8 -19 -2 0 5 -8 2 -18 -7 -10 -10 -18 -22 -18 -28
1 -5 -3 -10 -7 -10 -5 0 -15 -12 -23 -26 -10 -21 -20 -26 -44 -24 -16 1 -30
-2 -30 -7 0 -5 -4 -7 -8 -4 -10 6 -9 -25 2 -42 4 -7 12 -9 18 -6 8 5 9 1 5
-10 -4 -11 -3 -15 4 -11 6 4 19 -1 29 -10 14 -12 20 -13 26 -4 4 7 3 10 -4 5
-6 -3 -13 -2 -17 4 -6 9 8 14 28 11 5 -1 6 3 2 9 -3 5 0 10 7 10 9 0 9 3 -2
10 -11 7 -11 10 -2 10 7 0 10 5 6 11 -5 8 -9 8 -14 -1 -5 -8 -9 -7 -13 4 -4 9
-3 15 1 15 25 -4 37 2 22 11 -8 5 -11 12 -7 17 5 4 12 1 17 -7 6 -8 10 -13 11
-10 0 3 3 14 5 25 3 11 6 26 6 32 1 7 4 11 6 8 3 -3 11 0 19 6 10 9 13 8 13
-1 0 -9 4 -9 17 1 9 8 19 13 22 12 3 -1 5 7 4 18 -2 10 2 19 7 19 6 0 10 -10
10 -22 0 -18 2 -20 9 -8 6 8 7 18 4 24 -4 5 -1 6 7 1 9 -5 11 -4 6 4 -4 6 -11
9 -16 6 -5 -3 -11 -1 -15 5 -3 5 0 10 9 10 8 0 13 7 12 15 -3 23 -16 31 -16
10 0 -18 -1 -18 -14 1 -10 13 -11 23 -4 31 7 9 7 13 0 13 -17 0 -25 -21 -13
-33 15 -15 14 -24 -4 -24 -8 0 -17 7 -19 14 -4 8 -1 11 5 7 7 -4 6 2 -1 17
-16 31 -25 39 -17 16 9 -24 -18 -66 -26 -43 -4 9 -2 18 3 21 6 4 10 11 10 17
0 7 -4 7 -12 0 -8 -5 -22 -6 -33 -1 -14 5 -16 8 -5 10 8 1 20 3 25 4 6 2 16 3
23 4 7 0 11 5 8 10 -6 9 -48 7 -65 -3 -5 -4 -13 -1 -17 5 -5 8 -3 9 7 4 11 -7
12 -6 3 6 -8 11 -6 19 9 33 15 14 19 15 15 4 -7 -16 9 -38 26 -38 6 0 5 5 -2
12 -7 7 -12 16 -12 21 0 5 11 -5 25 -22 19 -22 33 -29 53 -27 15 1 33 -2 40
-8 11 -7 13 -6 10 9 -1 10 3 20 11 23 10 3 12 0 8 -11 -3 -9 1 -21 10 -29 14
-11 16 -11 10 4 -3 10 -1 20 5 24 7 5 8 2 3 -6 -5 -9 -4 -11 4 -6 6 4 9 12 5
17 -3 5 -10 7 -15 4 -5 -4 -9 -1 -9 4 0 6 -7 11 -16 11 -9 0 -25 11 -36 25
-11 14 -24 23 -29 20 -5 -4 -9 -1 -9 4 0 6 -9 11 -19 11 -11 0 -21 8 -24 18
-3 13 -6 11 -15 -10z"/>
<path d="M5960 2160 c0 -6 -10 -21 -22 -33 -25 -25 -27 -35 -14 -56 5 -8 4
-16 -5 -22 -8 -5 -11 -9 -7 -9 3 0 13 -3 22 -6 9 -3 16 -1 16 6 0 6 -6 8 -12
4 -7 -4 -6 1 3 11 13 13 21 15 34 7 12 -6 14 -11 6 -16 -6 -4 -11 -2 -11 3 0
6 -4 11 -8 11 -4 0 -8 -9 -8 -20 0 -11 5 -19 11 -16 6 2 17 -6 24 -17 11 -18
11 -20 0 -9 -7 6 -20 12 -28 12 -11 0 -9 -6 9 -21 23 -18 23 -19 3 -9 -16 7
-23 7 -23 0 0 -5 -5 -10 -11 -10 -8 0 -8 4 0 14 8 10 9 16 1 21 -5 3 -10 0
-10 -7 0 -9 -3 -9 -10 2 -6 10 -10 11 -10 3 0 -7 -5 -13 -11 -13 -8 0 -8 5 1
15 7 8 16 12 21 9 5 -3 9 0 9 5 0 15 -51 9 -57 -6 -3 -7 0 -20 7 -28 8 -9 8
-15 2 -15 -6 0 -13 9 -17 19 -8 27 -62 24 -57 -3 2 -12 -1 -16 -9 -10 -7 4
-10 3 -6 -3 4 -6 0 -16 -8 -23 -8 -7 -13 -22 -11 -34 2 -11 0 -31 -5 -43 -7
-18 -5 -21 8 -16 11 4 14 2 9 -5 -4 -7 -2 -10 7 -6 8 3 14 -2 14 -11 0 -9 -6
-14 -14 -11 -7 3 -17 -4 -23 -15 -6 -10 -7 -19 -3 -18 21 4 44 -2 39 -9 -3 -5
1 -9 9 -9 8 0 11 5 8 10 -4 6 -1 7 8 2 12 -8 12 -6 0 8 -12 15 -11 17 3 17 10
0 15 -4 12 -9 -3 -5 1 -14 9 -21 10 -9 15 -9 15 -1 0 15 -37 51 -52 51 -6 0
-9 3 -6 6 4 3 15 1 25 -5 15 -7 20 -7 20 4 0 7 -7 11 -16 8 -14 -4 -14 -3 -1
7 13 9 12 10 -5 6 -28 -8 -31 26 -4 42 24 15 25 4 2 -15 -17 -14 -17 -14 0 -9
9 3 17 1 17 -5 0 -6 4 -8 9 -4 9 5 6 49 -5 67 -3 4 2 5 10 2 8 -3 12 -12 9
-20 -3 -8 0 -14 6 -14 6 0 12 5 12 10 1 6 2 15 3 20 0 6 4 10 9 10 4 0 12 0
17 0 6 0 1 -9 -11 -21 -15 -15 -18 -24 -11 -31 8 -8 4 -16 -11 -29 -12 -10
-17 -18 -10 -19 6 0 15 5 18 10 3 6 14 10 23 10 10 0 5 -6 -13 -16 -35 -18
-59 -39 -34 -29 22 8 32 -20 14 -39 -8 -8 -15 -19 -15 -25 0 -5 -5 -13 -11
-17 -8 -4 -9 1 -4 17 l7 24 -23 -21 c-41 -36 -57 -37 -54 -3 2 23 -2 29 -16
29 -12 0 -19 7 -19 18 0 26 -11 34 -27 20 -12 -10 -14 -8 -11 8 2 13 -3 19
-15 19 -10 0 -23 7 -28 15 -9 12 -10 12 -5 -4 5 -14 2 -17 -10 -12 -27 10 -37
-5 -17 -26 13 -15 15 -22 6 -25 -7 -3 -13 -8 -13 -12 0 -4 6 -8 13 -9 6 -1 27
-3 45 -5 18 -2 35 0 38 5 3 4 -1 9 -8 10 -7 0 -17 2 -23 3 -5 2 -16 3 -22 4
-7 0 -13 6 -13 13 0 6 3 8 7 5 3 -4 13 -1 21 6 13 10 14 9 7 -2 -5 -10 -4 -12
3 -7 7 4 12 2 12 -3 0 -6 5 -11 11 -11 5 0 8 4 4 9 -3 5 0 13 6 17 8 5 10 1 7
-14 -3 -12 -1 -23 6 -26 7 -3 7 -5 -2 -5 -7 -1 -11 -5 -7 -10 3 -6 -7 -8 -22
-5 -20 3 -24 2 -13 -5 8 -5 18 -7 22 -5 4 3 8 -1 8 -8 0 -10 2 -10 9 1 7 11
10 11 15 0 3 -8 3 -4 0 9 -3 12 -1 22 5 22 6 0 11 -11 11 -25 0 -31 25 -43 54
-25 19 12 20 12 7 -3 -16 -21 2 -49 25 -40 9 3 14 0 12 -8 -2 -7 6 -15 17 -17
11 -2 23 -9 27 -16 6 -8 8 -8 8 1 0 7 12 1 26 -12 15 -14 32 -21 41 -18 12 5
14 3 8 -8 -7 -11 -5 -11 10 1 17 14 18 14 6 -8 -12 -22 -11 -23 7 -13 16 8 23
7 33 -7 12 -15 12 -16 -1 -7 -9 6 -7 2 3 -7 11 -10 23 -15 28 -12 5 3 9 0 9
-5 0 -6 6 -10 13 -9 6 2 11 -2 10 -9 -1 -6 8 -10 23 -8 13 1 27 -2 31 -8 4 -6
1 -7 -8 -2 -12 7 -12 5 -1 -6 11 -12 14 -12 22 1 5 8 10 10 10 4 0 -5 -5 -15
-11 -21 -8 -8 -3 -11 19 -9 17 1 30 0 30 -3 -2 -27 3 -31 25 -20 18 9 20 9 10
-2 -14 -15 -18 -33 -5 -25 5 3 14 -4 22 -14 8 -10 18 -16 24 -13 5 4 7 -1 3
-11 -4 -10 -3 -15 3 -11 12 7 51 -31 42 -41 -4 -4 -1 -4 6 0 7 4 12 1 12 -7 0
-8 8 -21 17 -28 11 -10 14 -10 9 -1 -4 6 -3 12 2 12 4 0 15 -15 24 -32 l16
-33 -2 33 c-1 18 -8 37 -16 42 -8 5 -10 10 -4 10 17 0 35 -25 29 -41 -6 -18 4
-33 33 -48 14 -7 21 -18 18 -27 -3 -8 0 -13 7 -11 7 1 11 -3 10 -10 -2 -8 4
-10 14 -6 11 4 14 3 9 -5 -4 -7 -2 -12 4 -12 6 0 8 -4 5 -10 -3 -5 5 -21 18
-34 16 -16 21 -27 14 -30 -7 -2 -2 -5 10 -5 16 -1 21 -6 18 -21 -3 -14 2 -20
13 -20 15 0 15 -2 2 -10 -13 -8 -13 -10 2 -10 11 0 16 -6 13 -20 -2 -13 2 -20
11 -20 8 0 12 -4 9 -10 -3 -6 1 -10 9 -10 9 0 13 -6 10 -14 -7 -17 35 -68 49
-59 6 3 7 1 3 -6 -4 -6 -12 -9 -17 -6 -5 4 -9 2 -9 -4 0 -5 5 -13 10 -16 6 -4
7 -11 4 -17 -4 -6 -2 -8 3 -5 6 4 14 0 17 -9 3 -8 2 -12 -4 -9 -6 4 -6 -2 -1
-17 5 -13 14 -22 21 -20 6 1 9 -2 5 -8 -3 -5 0 -10 7 -10 9 0 9 -3 -2 -10 -14
-9 -7 -14 13 -11 5 1 6 -3 3 -8 -4 -5 -2 -12 4 -16 5 -3 10 -17 10 -31 0 -13
4 -24 9 -24 8 0 27 -40 22 -47 0 -2 8 -12 19 -23 11 -11 20 -27 20 -35 0 -8 7
-15 16 -15 8 0 12 -4 9 -10 -3 -5 -1 -10 5 -10 7 0 9 -7 6 -16 -3 -8 -2 -12 4
-9 6 3 12 0 14 -7 2 -7 7 -22 12 -33 4 -11 6 -24 5 -29 -1 -5 4 -4 12 2 11 9
13 7 13 -11 -1 -14 4 -21 13 -19 8 2 11 -3 8 -13 -4 -8 -2 -15 3 -15 6 0 10 7
10 16 0 9 5 12 12 8 8 -5 9 -2 5 9 -4 12 -1 17 11 17 15 0 15 2 2 10 -12 8
-10 10 9 10 13 0 21 3 18 7 -4 3 1 12 11 19 13 10 14 13 3 14 -11 0 -10 4 5
16 10 8 13 12 5 8 -11 -6 -13 -1 -8 24 4 22 2 32 -9 36 -8 3 -12 10 -9 16 8
13 -7 13 -23 0 -9 -7 -9 -7 -2 2 14 17 12 38 -4 38 -8 0 -17 7 -20 16 -6 15
-4 15 11 3 16 -13 17 -12 4 4 -7 9 -20 17 -28 17 -10 0 -14 7 -10 20 3 11 -1
27 -10 35 -9 9 -10 15 -3 15 7 0 5 6 -4 15 -8 9 -12 23 -9 32 5 12 3 14 -7 8
-9 -5 -11 -4 -6 4 4 6 12 9 17 6 5 -3 6 1 3 9 -3 9 -1 16 5 16 6 0 10 -6 9
-12 -2 -8 5 -12 16 -10 10 2 15 -1 12 -6 -7 -11 8 -10 37 3 14 6 15 10 5 23
-11 13 -10 14 9 4 19 -11 21 -9 19 12 -2 19 1 23 15 21 11 -2 19 2 19 10 0 8
4 17 10 20 6 4 7 -1 3 -12 -3 -10 -3 -15 1 -12 14 13 18 61 4 53 -9 -5 -8 -2
1 10 13 16 13 17 -5 14 -14 -2 -19 2 -18 18 1 17 -3 20 -20 16 -21 -4 -21 -4
-1 12 11 10 15 15 8 11 -7 -3 -17 5 -24 17 -11 21 -11 22 4 9 15 -12 16 -10 6
18 -6 18 -9 35 -5 38 3 4 6 -1 6 -10 0 -26 20 -30 29 -5 6 13 10 17 10 10 1
-7 6 -10 11 -7 6 4 7 11 4 17 -4 7 -2 8 5 4 6 -4 18 -2 26 4 12 10 15 9 15 -3
0 -8 -3 -17 -7 -20 -5 -2 -2 -2 5 -1 6 2 12 -1 12 -7 0 -6 5 -7 12 -3 7 4 8 3
4 -5 -4 -6 -12 -9 -17 -6 -5 3 -6 -1 -3 -10 5 -13 9 -13 22 -3 10 8 13 8 9 2
-4 -7 1 -15 11 -19 15 -6 14 -8 -8 -20 -20 -11 -21 -14 -7 -15 12 0 16 -4 11
-12 -5 -9 -2 -9 9 1 9 7 17 9 17 4 0 -5 7 -10 15 -10 8 0 15 4 15 9 0 4 7 8
15 8 8 0 15 5 15 12 0 6 3 8 6 5 4 -4 1 -13 -6 -22 -11 -13 -10 -14 3 -9 8 3
18 12 21 20 4 9 11 12 18 8 8 -5 7 0 -2 11 -9 11 -10 16 -2 11 11 -6 14 0 11
20 0 4 5 11 13 15 10 7 10 9 1 9 -7 0 -13 7 -13 16 0 9 -9 18 -20 21 -11 3
-17 9 -14 14 3 5 -2 9 -11 9 -9 0 -13 5 -10 10 3 6 0 10 -9 10 -8 0 -17 -6
-20 -12 -3 -7 -3 -3 0 10 3 13 1 22 -6 22 -6 0 -8 5 -4 11 4 8 0 8 -15 0 -16
-9 -21 -9 -19 1 2 6 -2 12 -9 13 -6 0 -15 4 -20 9 -5 5 -3 6 5 2 21 -12 13 5
-12 29 -14 13 -22 26 -19 29 4 3 -1 6 -11 6 -10 0 -14 5 -10 12 4 7 3 8 -4 4
-7 -4 -12 -1 -12 6 0 9 -3 9 -10 -2 -10 -15 -15 -3 -11 23 1 5 -2 6 -7 3 -13
-8 -74 33 -67 44 3 6 -1 10 -9 10 -9 0 -16 5 -16 12 0 6 -3 8 -6 5 -4 -3 -16
5 -27 19 -10 14 -26 23 -33 20 -8 -3 -14 0 -14 6 0 16 -42 49 -56 44 -9 -3
-11 1 -7 11 5 12 2 15 -10 10 -12 -4 -15 -1 -12 14 4 18 2 19 -13 8 -9 -7 -14
-10 -10 -5 8 10 -15 36 -32 36 -6 0 -9 3 -7 8 3 4 -1 13 -9 20 -8 7 -14 10
-14 6 0 -3 -7 -1 -15 6 -8 6 -13 17 -12 23 1 6 -5 12 -13 12 -8 0 -14 7 -12
15 2 8 1 12 -3 8 -4 -4 -26 13 -50 38 -24 24 -51 44 -62 44 -13 0 -14 3 -5 8
9 6 6 12 -13 22 -13 7 -27 21 -30 30 -4 11 -14 16 -30 15 -18 -2 -22 1 -18 13
5 11 2 14 -10 9 -12 -4 -14 -2 -10 11 6 15 5 15 -11 3 -9 -8 -16 -10 -14 -4 2
6 -1 12 -7 13 -5 0 -13 10 -18 22 -4 13 -13 18 -23 14 -9 -3 -12 -2 -9 5 4 6
-3 13 -15 16 -12 3 -19 11 -16 18 3 8 -2 12 -12 11 -9 -2 -23 5 -30 16 -7 10
-18 16 -23 13 -5 -4 -9 -2 -9 4 0 6 -7 7 -17 4 -12 -5 -14 -3 -8 7 6 10 4 12
-8 7 -12 -4 -14 -2 -10 10 4 10 2 14 -4 10 -6 -4 -18 0 -27 9 -9 8 -20 12 -26
9 -6 -4 -9 -1 -8 7 2 7 -7 14 -20 16 -12 2 -20 6 -18 10 2 4 -3 14 -12 22 -14
13 -15 12 -9 -2 4 -12 2 -15 -8 -12 -8 3 -11 13 -7 22 5 15 4 15 -11 3 -15
-12 -17 -12 -10 4 5 14 3 17 -10 12 -17 -6 -41 15 -30 27 4 4 -1 4 -11 0 -13
-5 -17 -4 -12 4 3 6 1 14 -6 19 -21 12 -58 15 -58 3z m1042 -988 c-4 -11 -1
-13 8 -7 9 5 11 4 6 -3 -4 -7 -2 -12 4 -12 7 0 9 -8 5 -21 -5 -14 -4 -19 4
-15 7 5 8 1 4 -11 -6 -16 -5 -17 13 -3 17 14 18 13 7 -1 -7 -9 -10 -19 -6 -22
3 -4 1 -7 -5 -7 -7 0 -12 5 -12 12 0 16 -13 1 -18 -20 -2 -9 -4 -33 -3 -52 0
-19 -5 -38 -12 -43 -7 -5 -4 -6 9 -2 24 6 41 -19 22 -31 -6 -4 -8 -3 -4 4 4 6
-4 12 -21 14 -16 2 -29 9 -29 16 -1 6 -2 17 -3 23 0 6 -10 8 -22 4 -15 -5 -19
-4 -15 4 4 6 14 11 22 11 8 0 12 5 9 10 -4 6 -10 8 -15 5 -4 -3 -7 3 -5 12 2
10 4 22 4 27 1 6 7 1 15 -9 8 -11 12 -24 8 -30 -3 -5 2 -4 11 4 16 13 14 36
-3 26 -4 -3 -10 8 -12 24 -3 20 0 27 8 24 7 -2 11 -10 8 -18 -3 -7 1 -15 9
-18 7 -3 14 1 14 9 0 7 -5 10 -10 7 -6 -3 -7 -1 -3 5 3 6 2 13 -3 17 -6 3 -8
21 -5 41 3 25 1 33 -8 28 -6 -4 -8 -3 -5 3 10 16 36 11 29 -5z"/>
</g>
</svg>
