<?xml version="1.0" standalone="no"?>
<!DOCTYPE svg PUBLIC "-//W3C//DTD SVG 20010904//EN"
 "http://www.w3.org/TR/2001/REC-SVG-20010904/DTD/svg10.dtd">
<svg version="1.0" xmlns="http://www.w3.org/2000/svg"
 width="1024.000000pt" height="1024.000000pt" viewBox="0 0 1024.000000 1024.000000"
 preserveAspectRatio="xMidYMid meet">
<metadata>
Created by potrace 1.16, written by Peter Selinger 2001-2019
</metadata>
<g transform="translate(0.000000,1024.000000) scale(0.100000,-0.100000)"
fill="#000000" stroke="none">
<path d="M4074 9983 c4 -8 1 -13 -8 -13 -9 0 -16 -4 -16 -9 0 -5 -9 -7 -20 -4
-16 4 -19 2 -13 -12 4 -13 3 -16 -5 -11 -7 4 -13 2 -13 -3 -1 -6 -2 -16 -3
-21 0 -6 -6 -14 -12 -18 -10 -7 -21 -29 -22 -45 0 -5 -9 -15 -19 -24 -11 -9
-12 -12 -3 -8 9 4 8 1 -3 -8 -10 -9 -19 -19 -19 -24 -1 -20 -11 -32 -21 -26
-5 3 -7 2 -4 -4 7 -11 -14 -63 -25 -63 -5 0 -8 -8 -8 -18 0 -10 -6 -24 -12
-30 -7 -7 -13 -16 -13 -20 -1 -4 -6 -17 -13 -28 -6 -12 -8 -24 -5 -28 3 -3 -1
-6 -11 -6 -9 0 -14 -4 -11 -10 3 -5 3 -10 -2 -10 -9 0 -45 -58 -49 -80 -2 -8
-8 -16 -14 -18 -5 -2 -8 -8 -4 -13 3 -5 0 -9 -6 -9 -6 0 -8 -4 -5 -10 3 -5 1
-10 -6 -10 -7 0 -9 -3 -6 -7 4 -3 -2 -12 -13 -20 -11 -8 -20 -20 -20 -27 0 -7
-10 -24 -22 -38 -40 -44 -58 -68 -52 -68 3 0 -1 -7 -8 -15 -31 -34 -38 -45
-31 -45 4 0 -1 -7 -11 -15 -11 -8 -14 -15 -7 -15 7 0 9 -5 6 -10 -4 -6 -11 -8
-16 -4 -5 3 -9 2 -8 -3 4 -24 -2 -43 -13 -37 -7 5 -8 3 -3 -6 4 -7 2 -16 -6
-21 -12 -8 -12 -11 1 -19 13 -8 8 -14 -11 -12 -3 1 -6 -5 -6 -13 0 -8 5 -11
11 -8 6 4 4 -2 -5 -13 -9 -10 -16 -31 -15 -46 1 -14 -2 -24 -7 -21 -4 2 -6 -7
-3 -21 3 -15 0 -26 -6 -26 -6 0 -5 -7 3 -17 10 -11 10 -14 2 -9 -7 4 -13 2
-13 -3 0 -6 4 -11 9 -11 6 0 9 -9 8 -20 -1 -11 -4 -20 -8 -20 -4 0 -10 -7 -13
-16 -6 -15 -4 -15 10 -3 16 13 16 12 5 -9 -6 -12 -9 -27 -6 -32 3 -6 2 -10 -2
-10 -5 0 -9 -9 -10 -20 -1 -13 3 -18 10 -14 7 3 2 -3 -10 -14 -20 -18 -21 -21
-6 -27 15 -5 15 -8 3 -15 -8 -5 -14 -24 -14 -45 0 -22 -4 -34 -11 -31 -7 2
-12 -2 -12 -10 0 -7 5 -10 11 -7 6 4 2 -3 -8 -15 -11 -12 -15 -22 -10 -22 5 0
10 -9 10 -19 0 -11 -3 -19 -6 -18 -3 1 -6 -2 -7 -7 -1 -5 -7 -13 -15 -17 -8
-6 -9 -9 -1 -9 16 0 9 -31 -11 -45 -12 -9 -14 -15 -6 -20 8 -5 5 -12 -7 -22
-10 -8 -12 -12 -5 -8 6 3 12 1 12 -4 0 -6 -4 -11 -9 -11 -5 0 -12 -7 -15 -16
-4 -9 -2 -13 5 -8 6 3 3 -5 -6 -19 -9 -14 -17 -30 -17 -34 0 -4 -4 -7 -10 -5
-5 1 -7 -2 -3 -8 4 -6 1 -18 -7 -27 -9 -12 -9 -15 0 -9 15 9 15 1 1 -26 -9
-16 -8 -19 3 -12 11 6 11 5 -1 -9 -11 -14 -11 -17 0 -18 8 0 5 -4 -6 -9 -11
-5 -15 -9 -8 -9 12 -1 8 -54 -7 -81 -5 -9 -4 -24 2 -34 7 -12 7 -17 0 -12 -11
7 -26 -36 -26 -76 1 -16 -4 -28 -10 -28 -6 0 -4 -5 4 -10 12 -8 12 -10 1 -10
-11 0 -11 -3 -1 -15 10 -12 10 -15 -1 -15 -11 0 -11 -2 1 -10 12 -8 12 -10 1
-10 -9 0 -12 -8 -9 -25 3 -14 1 -25 -6 -25 -6 0 -4 -5 4 -10 8 -5 10 -10 5
-10 -6 0 -11 -9 -11 -20 0 -11 5 -20 11 -20 5 0 4 -4 -4 -9 -13 -8 -13 -12 0
-27 12 -16 12 -17 -3 -11 -13 4 -16 1 -12 -18 2 -13 -1 -27 -7 -31 -8 -5 -8
-8 0 -14 7 -3 9 -14 5 -23 -3 -9 -9 -15 -13 -12 -4 2 -7 -12 -6 -31 1 -19 -2
-37 -8 -41 -5 -3 -3 -9 4 -15 11 -8 11 -11 1 -15 -10 -4 -10 -8 -1 -19 10 -12
9 -13 -6 -8 -15 6 -16 4 -5 -16 7 -12 8 -20 2 -16 -6 4 -9 -17 -8 -55 1 -33
-1 -62 -5 -65 -4 -2 -5 -14 -1 -26 3 -13 1 -19 -5 -15 -5 3 -10 0 -10 -8 0 -8
4 -12 9 -9 4 3 8 0 8 -5 0 -6 -3 -11 -8 -11 -4 0 -7 -26 -7 -57 1 -32 -1 -62
-4 -68 -9 -17 -8 -45 2 -45 5 0 5 -5 -1 -13 -7 -8 -7 -18 -2 -27 5 -9 5 -19
-2 -27 -8 -10 -7 -13 3 -14 8 0 5 -4 -6 -9 -16 -7 -17 -9 -3 -9 9 -1 20 -6 23
-11 4 -6 3 -10 -2 -9 -20 3 -27 -2 -13 -11 12 -8 12 -10 1 -10 -10 0 -11 -3
-2 -14 9 -10 8 -16 -4 -26 -8 -7 -12 -16 -9 -21 3 -5 1 -9 -5 -9 -7 0 -7 -8
-1 -24 5 -13 6 -27 2 -30 -11 -11 -10 -51 2 -58 7 -5 6 -8 -4 -8 -13 0 -13 -1
0 -10 8 -5 10 -10 5 -10 -6 0 -10 -17 -9 -37 1 -21 2 -38 4 -38 1 0 3 -8 5
-17 2 -10 -1 -18 -6 -18 -6 0 -6 -7 -1 -17 4 -10 7 -52 6 -93 -1 -51 3 -82 13
-99 12 -18 12 -22 2 -15 -12 7 -12 5 -1 -9 8 -9 11 -21 7 -26 -3 -6 0 -21 6
-33 11 -21 11 -22 -4 -10 -14 12 -15 11 -4 -12 7 -14 15 -26 18 -26 3 0 5 -16
4 -35 -2 -22 1 -32 8 -28 6 4 8 0 4 -10 -4 -10 -1 -17 6 -17 8 0 8 -3 -2 -9
-11 -7 -11 -9 0 -14 12 -5 12 -6 0 -6 -11 -1 -11 -4 0 -18 12 -14 12 -15 1 -9
-11 7 -12 4 -3 -11 7 -14 7 -23 -1 -31 -7 -7 -8 -12 -2 -12 8 0 14 -21 17 -67
0 -7 5 -9 10 -6 5 3 7 0 5 -8 -3 -8 1 -21 9 -31 11 -12 11 -18 2 -24 -8 -4
-10 -3 -5 4 4 7 2 12 -3 12 -16 0 -13 -11 6 -32 14 -15 15 -21 4 -27 -9 -6
-10 -10 -2 -15 6 -4 9 -11 6 -16 -3 -4 1 -23 9 -41 7 -19 12 -42 11 -51 -2
-10 1 -18 6 -18 5 0 9 -5 9 -11 0 -5 -4 -8 -9 -4 -5 3 -3 -8 5 -25 9 -16 19
-30 23 -30 6 0 11 -25 14 -67 0 -7 4 -13 10 -13 5 0 7 -6 4 -12 -2 -7 2 -26
10 -42 10 -18 10 -26 3 -21 -9 5 -9 2 -2 -11 5 -11 7 -26 4 -34 -5 -13 -3 -13
11 -1 18 15 22 5 7 -19 -5 -8 -5 -19 0 -25 4 -5 10 -14 12 -20 1 -5 6 -9 11
-8 11 4 9 -15 -3 -22 -6 -4 -8 -11 -4 -16 3 -5 9 -7 14 -4 5 3 11 1 15 -5 3
-5 1 -10 -6 -10 -8 0 -7 -5 2 -17 12 -14 12 -16 0 -8 -11 6 -12 5 -5 -6 9 -14
13 -28 19 -66 7 -44 17 -63 28 -56 7 4 5 -2 -3 -12 -12 -15 -12 -17 -1 -10 11
6 13 4 8 -8 -3 -9 -1 -17 5 -19 6 -2 13 -15 15 -28 2 -13 9 -28 16 -32 9 -6 8
-8 -3 -8 -13 0 -13 -1 0 -10 11 -7 11 -10 2 -10 -7 0 -10 -5 -7 -10 4 -6 10
-8 15 -5 4 3 6 -5 2 -17 -3 -11 -1 -19 4 -15 5 3 10 -9 11 -26 4 -51 6 -56 16
-50 6 4 8 0 4 -10 -3 -9 -1 -22 6 -29 13 -14 16 -25 19 -63 1 -14 6 -25 10
-25 4 0 8 -5 8 -11 0 -5 -6 -7 -12 -3 -9 5 -8 2 1 -10 11 -13 16 -14 22 -4 6
9 9 9 9 1 0 -6 -5 -15 -11 -18 -7 -5 -4 -14 8 -28 10 -11 12 -17 6 -13 -18 10
-16 -5 3 -32 8 -12 12 -22 8 -22 -3 0 0 -8 7 -17 12 -14 12 -16 -1 -9 -8 4 -6
0 4 -8 11 -9 16 -16 10 -16 -5 0 0 -7 10 -15 11 -8 14 -15 8 -15 -7 0 -12 -5
-12 -11 0 -6 7 -9 14 -6 11 4 13 1 9 -10 -5 -12 -3 -14 8 -8 12 8 12 6 0 -8
-9 -12 -10 -17 -2 -17 7 0 11 -6 10 -12 -3 -27 1 -39 12 -32 8 5 8 1 0 -14 -8
-16 -8 -24 4 -35 8 -8 11 -17 8 -21 -4 -3 -1 -6 5 -6 7 0 12 -12 12 -26 0 -14
4 -23 9 -19 6 3 8 -4 6 -15 -2 -12 2 -23 10 -26 7 -3 11 -12 8 -20 -3 -9 2
-14 13 -14 16 0 17 -2 4 -10 -15 -10 -2 -16 24 -11 5 1 4 -4 -2 -12 -9 -11 -7
-18 9 -35 11 -12 15 -22 9 -22 -7 0 -6 -5 2 -14 7 -8 17 -11 22 -8 5 3 5 -1 0
-9 -5 -8 -9 -18 -10 -24 -1 -15 38 -55 47 -49 5 3 6 -3 2 -12 -5 -14 -3 -16
13 -10 15 6 16 4 7 -5 -9 -9 -8 -15 3 -26 8 -8 12 -19 9 -24 -4 -5 -1 -9 4 -9
6 0 11 -9 11 -19 0 -11 6 -22 13 -24 9 -4 8 -6 -2 -6 -10 -1 -7 -7 7 -20 12
-10 19 -21 15 -24 -3 -4 2 -9 11 -13 9 -3 13 -10 10 -15 -3 -5 -11 -6 -17 -3
-7 4 -8 3 -4 -2 5 -5 14 -9 20 -9 7 0 12 -5 12 -12 0 -6 3 -14 7 -18 4 -4 4
-14 0 -23 -5 -15 -4 -15 12 -3 9 8 16 10 15 5 -4 -25 2 -54 11 -49 5 3 10 -1
10 -9 0 -9 4 -16 9 -16 10 0 9 -19 -2 -36 -4 -7 0 -11 11 -10 9 0 16 -5 14
-13 -1 -7 2 -19 8 -25 5 -7 7 -16 3 -19 -6 -7 13 -11 31 -8 5 1 4 -4 -2 -12
-10 -11 -9 -17 3 -27 8 -7 13 -16 10 -20 -3 -5 0 -12 6 -16 8 -4 9 -3 5 4 -4
7 -5 12 -2 12 3 0 14 -18 25 -40 11 -22 14 -37 8 -34 -7 3 -4 -1 6 -9 9 -8 17
-23 17 -33 0 -16 2 -17 11 -4 9 12 10 11 6 -7 -3 -13 -1 -23 5 -23 6 0 8 -7 4
-15 -3 -8 0 -14 6 -12 6 1 12 -9 13 -21 1 -13 8 -27 15 -32 10 -6 9 -9 -1 -13
-9 -4 -8 -6 5 -6 12 -1 16 -6 12 -16 -3 -9 1 -18 9 -21 8 -4 13 -10 10 -14 -3
-4 2 -10 10 -14 8 -3 12 -12 9 -21 -4 -10 0 -15 12 -15 16 0 17 -2 4 -10 -13
-8 -13 -10 1 -10 17 0 22 -30 5 -30 -6 0 -4 -5 4 -11 11 -8 12 -12 2 -16 -6
-2 -10 -8 -8 -12 7 -11 -27 -10 -41 1 -9 7 -15 5 -19 -6 -4 -11 -10 -13 -18
-7 -7 6 -17 6 -26 1 -18 -12 -33 -13 -27 -2 3 4 -14 6 -36 6 -23 -1 -45 4 -49
10 -5 8 -8 7 -8 -2 0 -9 -5 -10 -18 -3 -13 7 -22 7 -29 0 -7 -7 -16 -5 -27 6
-15 15 -20 12 -17 -8 1 -10 -22 -4 -31 8 -5 6 -8 5 -8 -3 0 -7 -5 -10 -12 -6
-8 5 -9 0 -6 -14 4 -12 2 -20 -3 -16 -5 3 -9 13 -10 22 0 9 -3 12 -5 6 -3 -7
-13 -10 -23 -7 -11 3 -28 0 -38 -6 -14 -7 -23 -7 -31 1 -8 8 -15 8 -27 -2 -12
-10 -15 -10 -15 1 0 9 -3 10 -8 4 -11 -15 -42 -17 -43 -3 0 7 -5 2 -10 -12 -8
-18 -12 -21 -18 -11 -7 10 -13 11 -31 1 -12 -6 -24 -9 -27 -6 -4 3 -13 0 -21
-7 -11 -8 -14 -8 -9 0 8 13 -18 12 -30 -2 -4 -4 -2 -5 6 0 9 5 12 4 7 -3 -3
-6 -16 -9 -27 -7 -11 2 -32 -1 -47 -7 -15 -6 -29 -12 -32 -12 -3 -1 -11 -5
-19 -10 -10 -6 -12 -5 -7 2 4 7 1 12 -8 12 -9 0 -16 -6 -16 -12 0 -10 -2 -10
-9 0 -6 11 -10 10 -15 -4 -6 -14 -9 -16 -15 -5 -6 10 -10 10 -16 2 -5 -9 -11
-9 -23 1 -13 10 -14 10 -8 0 6 -9 1 -11 -18 -8 -14 3 -29 0 -32 -6 -4 -7 -2
-8 4 -4 7 4 12 2 12 -3 0 -14 -13 -14 -28 1 -9 9 -12 9 -12 0 0 -8 -10 -11
-25 -8 -16 3 -23 1 -19 -5 4 -7 -3 -9 -17 -7 -17 2 -23 -1 -21 -11 3 -12 0
-12 -12 -1 -10 8 -16 9 -16 2 0 -6 -7 -9 -15 -6 -8 4 -15 1 -15 -5 0 -6 -5
-11 -12 -11 -6 0 -20 -8 -30 -17 -18 -16 -19 -16 -13 3 5 14 3 13 -7 -4 -8
-12 -17 -19 -21 -16 -4 4 -7 3 -7 -3 0 -6 -7 -14 -16 -17 -15 -6 -15 -4 -3 11
13 17 12 17 -6 2 -32 -26 -102 -59 -110 -51 -3 4 -6 3 -5 -3 5 -21 -1 -29 -10
-15 -8 13 -10 12 -10 -2 0 -10 -5 -18 -11 -18 -5 0 -7 5 -4 11 4 6 -2 5 -13
-2 -12 -7 -18 -18 -14 -24 3 -5 -2 -4 -12 4 -15 12 -17 12 -14 0 2 -8 -4 -14
-12 -14 -20 0 -39 -18 -32 -30 3 -5 -2 -4 -11 4 -15 12 -17 12 -10 -4 5 -15 3
-17 -11 -12 -14 5 -17 3 -12 -8 4 -10 -1 -15 -14 -15 -11 0 -20 -4 -20 -10 0
-33 -15 -49 -45 -46 -16 2 -22 -1 -18 -10 3 -8 -2 -14 -11 -14 -9 0 -16 -5
-16 -11 0 -5 -4 -7 -10 -4 -5 3 -10 2 -10 -4 0 -6 -8 -8 -17 -4 -10 3 -15 3
-11 -2 8 -8 -15 -35 -30 -35 -22 0 -35 -29 -21 -47 12 -16 12 -17 -1 -7 -16
12 -49 15 -48 5 2 -21 -4 -31 -14 -25 -7 5 -9 2 -5 -9 4 -12 1 -15 -14 -12
-18 4 -19 2 -8 -13 7 -9 10 -14 6 -11 -12 10 -88 -63 -82 -78 2 -8 1 -12 -3
-9 -14 8 -52 -23 -46 -38 3 -7 -2 -20 -10 -29 -8 -8 -12 -17 -9 -21 4 -3 1 -6
-6 -6 -7 0 -9 -4 -6 -10 3 -5 1 -10 -5 -10 -7 0 -9 -7 -6 -16 3 -8 2 -12 -4
-9 -6 3 -10 -1 -10 -9 0 -9 -4 -16 -10 -16 -5 0 -6 -7 -3 -17 4 -10 2 -14 -4
-10 -6 4 -14 0 -17 -9 -4 -10 -2 -13 7 -9 6 4 5 1 -4 -7 -9 -7 -14 -18 -12
-24 2 -6 -3 -17 -12 -24 -8 -7 -15 -18 -15 -24 0 -6 5 -4 10 4 6 9 10 10 10 3
0 -7 -8 -17 -17 -22 -11 -6 -13 -11 -5 -11 9 0 10 -5 3 -19 -6 -10 -7 -21 -4
-25 3 -3 1 -6 -6 -6 -7 0 -9 -5 -6 -10 4 -6 1 -18 -7 -27 -11 -14 -11 -16 2
-8 13 8 13 7 1 -8 -7 -9 -11 -17 -7 -17 3 0 0 -16 -9 -35 -8 -20 -11 -34 -6
-31 4 3 8 -8 8 -24 0 -16 -4 -27 -9 -24 -11 7 -6 -19 6 -27 5 -4 5 -13 0 -20
-13 -21 -13 -39 -1 -39 7 0 5 -5 -3 -10 -8 -5 -10 -10 -5 -10 6 0 10 -26 9
-59 -1 -33 3 -66 8 -73 7 -9 8 -8 4 5 -4 11 -2 16 5 11 6 -3 9 -15 6 -25 -3
-12 2 -24 14 -32 10 -8 16 -17 12 -20 -3 -4 -1 -7 6 -7 7 0 9 -4 6 -10 -3 -5
-1 -10 5 -10 7 0 10 -7 6 -15 -3 -8 0 -15 6 -15 6 0 8 -3 5 -7 -4 -3 1 -16 10
-27 17 -20 17 -20 1 -7 -23 17 -23 3 -1 -22 10 -11 12 -17 5 -13 -11 7 -11 4
0 -13 7 -12 17 -21 21 -21 5 0 5 -9 2 -20 -4 -12 -2 -20 5 -20 6 0 8 6 4 13
-4 7 -3 9 2 4 9 -9 10 -13 13 -43 0 -8 5 -13 10 -10 5 3 12 -1 15 -10 4 -10 2
-13 -7 -9 -6 4 -4 0 6 -8 9 -8 17 -17 17 -21 0 -12 38 -44 45 -38 3 4 3 -1 -1
-11 -5 -15 3 -21 27 -19 3 1 6 -6 6 -13 0 -12 -3 -12 -15 -2 -13 10 -14 9 -3
-10 6 -13 8 -23 4 -23 -4 0 -2 -5 5 -12 16 -16 15 -31 0 -22 -7 4 -5 -2 5 -13
9 -11 14 -22 11 -26 -3 -3 3 -3 15 0 14 3 21 1 21 -8 0 -9 3 -10 8 -4 4 6 17
16 29 22 20 11 21 11 16 -5 -6 -15 -5 -16 12 -2 11 9 16 10 11 3 -4 -8 -2 -13
4 -13 6 0 8 -5 4 -12 -5 -8 0 -7 11 2 10 8 16 10 13 5 -4 -6 2 -16 13 -23 21
-14 25 -3 7 18 -7 8 -3 6 10 -5 12 -10 20 -25 17 -32 -3 -8 0 -11 6 -8 6 4 8
13 5 21 -3 8 -1 14 4 14 6 0 10 -7 10 -15 0 -18 16 -20 26 -3 5 7 3 8 -6 3 -9
-5 -11 -4 -6 4 6 9 11 9 22 0 17 -14 18 -23 2 -13 -8 4 -8 2 1 -7 10 -11 15
-11 18 -1 3 6 9 12 14 12 6 0 7 -5 4 -10 -3 -6 -3 -10 2 -11 4 0 18 -2 30 -3
17 -2 20 0 12 10 -8 9 -5 11 10 7 12 -3 18 -9 15 -14 -3 -5 0 -9 5 -9 6 0 11
6 11 14 0 8 4 17 9 20 5 3 8 -2 7 -11 0 -9 5 -17 12 -19 7 -1 8 0 2 3 -5 2 -7
9 -4 14 3 6 12 5 22 -3 13 -11 15 -11 10 2 -4 11 2 15 18 16 13 1 24 -2 24 -8
0 -5 -4 -7 -9 -3 -5 3 -12 1 -15 -4 -7 -11 8 -9 44 6 14 6 31 8 39 5 10 -4 12
-1 6 9 -8 12 -6 12 8 0 9 -7 17 -10 17 -7 0 4 10 2 21 -5 15 -8 19 -8 15 0 -4
6 -4 11 1 12 60 6 72 6 68 -1 -3 -4 3 -7 12 -5 10 1 24 -2 31 -8 9 -7 11 -6 6
7 -5 12 -1 16 17 14 17 -2 24 2 23 13 -1 9 5 16 12 16 7 0 10 -5 7 -10 -4 -6
-1 -7 6 -3 7 5 10 14 8 20 -3 7 1 13 9 13 7 0 11 -4 9 -8 -10 -16 31 -2 48 16
10 11 16 15 13 9 -3 -6 9 -24 26 -40 17 -16 28 -24 25 -18 -4 7 1 18 11 25 15
13 16 12 3 -4 -7 -9 -10 -17 -6 -17 5 0 0 -10 -11 -22 -12 -13 -13 -18 -4 -13
8 5 2 -8 -13 -28 -15 -20 -24 -37 -20 -37 4 0 0 -5 -10 -11 -9 -6 -15 -14 -12
-19 3 -4 -2 -10 -10 -14 -8 -3 -15 -12 -15 -20 0 -9 -10 -25 -22 -37 -13 -12
-16 -19 -8 -15 12 6 12 5 -1 -6 -21 -18 -44 -60 -40 -77 1 -7 -2 -10 -7 -7 -5
3 -12 -8 -16 -25 -3 -17 -10 -28 -14 -25 -5 3 -6 -8 -4 -25 2 -16 0 -29 -6
-29 -5 0 -13 -7 -16 -16 -4 -9 -2 -13 5 -8 8 5 8 1 0 -13 -6 -11 -7 -23 -4
-27 3 -3 1 -6 -6 -6 -7 0 -9 -4 -6 -10 3 -5 0 -10 -7 -10 -9 0 -9 -3 2 -10 10
-6 11 -10 2 -10 -6 0 -11 -3 -11 -7 3 -20 -2 -44 -8 -40 -5 3 -9 -9 -10 -26
-6 -82 -9 -103 -17 -116 -6 -10 -5 -12 2 -7 7 4 12 2 12 -4 0 -6 5 -8 12 -4 7
5 8 3 2 -7 -15 -24 -13 -38 6 -44 10 -3 21 -12 24 -20 3 -8 12 -15 21 -15 8 0
15 -4 15 -10 0 -5 9 -10 20 -10 11 0 20 -5 20 -11 0 -8 6 -7 17 2 9 8 14 9 10
2 -11 -18 16 -22 37 -4 11 9 16 11 13 4 -4 -6 -3 -14 3 -18 5 -3 10 -1 10 6 0
9 3 9 14 0 12 -10 14 -6 12 23 -1 19 3 34 9 33 5 -1 9 3 8 8 -1 6 14 11 32 11
18 0 31 -4 29 -8 -3 -4 -1 -8 5 -8 5 0 13 5 16 10 3 6 12 10 18 10 7 0 6 -4
-3 -10 -13 -8 -12 -10 3 -10 9 0 17 5 17 11 0 6 9 1 21 -12 11 -13 18 -19 15
-12 -4 6 -2 14 4 18 6 4 7 11 4 17 -4 7 -2 8 5 4 6 -4 9 -11 6 -16 -3 -5 -1
-12 5 -15 6 -4 10 -3 9 2 -4 25 3 35 21 30 10 -3 24 1 31 9 6 8 15 12 19 9 4
-3 15 6 24 20 14 21 14 24 1 19 -8 -4 -15 -2 -15 4 0 6 8 9 18 8 9 -2 17 -9
17 -17 0 -8 7 -14 15 -14 8 0 14 6 12 13 -1 6 2 12 8 12 5 0 10 6 10 14 0 8 4
18 10 21 6 4 7 -1 4 -12 -5 -16 -4 -16 10 1 8 10 14 22 11 25 -2 4 5 7 15 7
10 0 18 -5 17 -11 -2 -10 10 -11 51 -1 12 3 22 1 22 -5 0 -5 5 -9 11 -9 8 0 8
4 -1 15 -6 8 -9 20 -5 27 4 7 0 5 -8 -5 -8 -10 -18 -14 -21 -9 -3 6 1 13 10
16 8 3 12 10 9 16 -4 6 1 7 12 3 14 -4 15 -3 7 6 -15 16 -6 51 11 44 17 -6 15
-43 -3 -62 -9 -9 -10 -17 -3 -24 12 -12 41 -2 41 15 0 9 -3 9 -12 0 -7 -7 -16
-12 -22 -12 -5 0 -1 6 9 14 19 13 49 11 41 -3 -3 -4 -1 -13 5 -21 7 -12 9 -9
9 10 0 19 2 22 9 10 6 -8 8 -17 6 -20 -2 -3 5 -7 16 -7 12 -1 19 5 19 15 0 15
2 15 10 2 6 -10 10 -11 10 -2 0 6 5 12 11 12 5 0 7 -5 3 -12 -5 -7 -3 -8 5 -4
7 5 10 14 8 20 -3 7 1 13 9 13 7 0 11 -4 8 -9 -11 -17 39 -1 52 17 8 10 14 15
15 9 0 -5 5 2 10 15 6 15 15 21 24 17 14 -5 20 11 16 37 -1 5 3 6 9 2 6 -3 8
-11 5 -16 -3 -5 1 -6 10 -3 12 5 13 9 4 20 -10 12 -9 13 5 8 12 -5 15 -2 9 12
-4 11 -3 15 5 10 6 -3 16 2 22 11 10 16 11 16 6 1 -3 -10 0 -20 7 -24 7 -4 9
-4 5 1 -4 4 -3 16 2 26 7 12 6 19 -3 23 -6 3 -2 3 11 0 13 -3 22 -1 22 6 0 6
5 8 11 4 17 -10 30 18 16 36 -10 13 -10 13 4 3 9 -7 19 -11 23 -8 3 3 2 -1 -4
-7 -23 -27 -8 -26 21 2 34 32 55 38 62 18 2 -7 7 -10 11 -7 4 4 0 13 -8 22
-13 13 -13 16 -1 20 7 3 19 -2 27 -11 11 -13 11 -14 -1 -7 -10 5 -12 4 -7 -4
4 -6 11 -9 16 -6 5 3 10 0 13 -7 5 -16 1 12 -5 32 -3 8 -3 11 0 7 2 -4 11 -2
20 5 15 11 15 11 5 -3 -10 -12 -9 -18 7 -32 25 -21 37 -22 20 -2 -15 18 0 20
20 2 11 -9 11 -8 0 7 -14 18 -13 19 3 13 12 -5 16 -3 11 5 -5 7 -2 9 8 5 9 -3
19 -3 23 1 4 4 11 8 16 8 5 1 14 2 19 3 6 0 10 6 10 12 0 8 -4 8 -12 2 -7 -6
-21 -9 -31 -8 -10 2 -14 -1 -11 -7 4 -7 2 -8 -4 -4 -6 4 -25 0 -43 -9 -29 -16
-30 -15 -21 1 9 16 18 19 79 27 12 1 25 6 29 10 4 4 14 1 22 -6 13 -10 15 -9
9 6 -5 13 -3 16 6 10 19 -12 38 -12 30 0 -4 7 0 8 12 3 16 -6 16 -4 4 10 -12
15 -11 16 9 10 16 -6 21 -4 17 7 -3 7 0 14 7 14 7 0 22 4 32 9 15 5 17 4 11
-6 -5 -8 -4 -11 3 -6 5 3 12 3 15 -1 2 -5 2 -2 0 5 -1 8 3 12 9 9 7 -2 12 -10
10 -16 -1 -7 2 -10 8 -6 6 4 8 16 5 28 -5 18 -4 19 5 5 5 -9 18 -15 28 -13 9
2 21 4 25 4 5 1 5 5 2 11 -3 6 1 7 9 4 10 -4 16 -1 16 7 0 9 3 10 8 4 11 -16
41 -15 35 1 -3 8 -9 11 -14 8 -5 -3 -6 2 -3 10 6 17 24 5 37 -24 4 -8 5 -3 2
12 -4 21 -2 26 9 22 8 -3 17 0 21 5 3 6 10 9 15 6 5 -3 7 4 5 15 -3 18 -1 19
18 9 12 -7 19 -8 14 -4 -4 5 1 17 10 28 17 19 17 20 -4 8 -31 -16 -43 -13 -13
4 16 9 29 10 37 4 7 -7 14 -6 18 1 3 6 12 7 18 4 7 -4 8 -3 4 2 -5 5 -13 9
-18 9 -5 0 -9 5 -8 10 1 6 5 9 10 8 5 -2 13 -4 18 -5 5 -2 8 0 7 4 0 4 8 14
19 23 20 16 19 16 -5 10 -22 -5 -23 -5 -7 5 10 7 27 10 38 7 16 -4 17 -2 8 14
-12 24 -6 24 17 2 14 -14 16 -14 12 -3 -5 13 21 50 30 42 1 -2 17 9 35 24 18
15 24 25 15 21 -10 -3 -20 -2 -23 3 -4 6 -1 11 4 11 6 1 16 3 21 4 6 1 13 3
16 4 4 0 0 9 -7 18 -12 15 -12 16 5 10 17 -7 17 -6 5 10 -12 15 -12 16 4 10
15 -6 16 -4 7 13 -9 16 -7 18 10 15 17 -3 19 -1 10 15 -8 16 -6 22 10 32 21
14 29 34 8 22 -7 -4 0 7 16 24 18 19 24 32 16 32 -7 0 -11 3 -7 6 10 11 28 -7
20 -20 -4 -7 -1 -4 8 6 9 9 19 14 23 11 3 -4 6 -1 6 5 0 5 -6 13 -12 15 -8 3
-5 6 5 6 10 1 15 6 12 12 -4 6 1 17 11 25 14 11 15 17 7 20 -16 7 8 34 29 34
10 0 9 3 -2 10 -13 8 -8 14 11 12 4 -1 6 4 5 11 0 7 4 12 9 12 6 0 9 -4 7 -8
-1 -5 2 -6 8 -2 7 4 7 11 2 18 -14 18 -23 49 -13 43 5 -3 14 8 20 24 5 17 14
30 19 30 5 0 8 13 7 29 -1 24 2 27 19 23 17 -4 19 -2 9 9 -19 19 -16 34 4 18
15 -13 15 -12 5 8 -11 19 -10 21 8 18 11 -2 18 0 15 6 -4 5 0 9 7 9 9 0 9 3 2
8 -14 9 -27 45 -14 37 6 -3 11 -1 11 4 1 6 2 17 3 24 1 6 -3 16 -9 20 -6 5 -3
7 8 3 9 -3 17 -2 17 1 0 4 -8 16 -17 27 -17 20 -17 20 0 7 16 -13 18 -12 13
12 -2 15 0 29 5 33 5 3 7 10 3 15 -3 5 0 8 6 7 7 -2 14 5 15 15 2 9 -2 17 -8
17 -6 0 -1 7 11 16 12 8 19 20 16 26 -4 6 -2 8 4 4 5 -3 13 0 16 6 2 7 4 4 3
-7 -2 -11 -7 -26 -11 -34 -7 -11 -5 -13 8 -8 10 4 19 7 22 7 2 0 1 7 -2 15 -6
13 6 20 29 16 4 -1 5 10 3 23 -4 20 -1 24 12 19 15 -6 15 -5 3 10 -12 15 -12
17 3 11 9 -4 15 -12 13 -18 -2 -6 0 -19 4 -28 6 -11 4 -22 -6 -31 -12 -13 -12
-16 0 -21 8 -3 16 3 20 15 4 10 14 19 23 19 13 0 13 -2 -3 -13 -12 -9 -15 -19
-10 -28 5 -8 4 -10 0 -6 -5 4 -14 -2 -21 -14 -7 -14 -14 -18 -18 -10 -4 6 -2
11 3 11 6 0 11 5 11 11 0 8 -4 8 -15 -1 -8 -6 -13 -17 -12 -22 1 -6 -4 -13
-11 -15 -11 -4 -12 -1 -2 17 10 18 9 21 -1 15 -8 -6 -10 -4 -4 5 6 9 4 11 -5
5 -9 -6 -11 -4 -5 6 5 8 4 11 -1 6 -5 -5 -9 -20 -10 -35 0 -15 -2 -32 -2 -37
-3 -16 -51 -12 -61 4 -5 8 -11 9 -15 3 -3 -5 1 -12 9 -16 8 -3 15 -11 15 -17
0 -8 -6 -7 -17 2 -16 13 -17 12 -5 -3 13 -17 42 -14 42 3 0 5 5 9 11 9 8 0 8
-4 0 -14 -8 -10 -9 -16 -1 -21 5 -3 10 2 10 11 0 17 14 11 16 -7 1 -5 2 -13 3
-17 0 -5 8 -9 16 -9 8 0 15 4 15 9 0 4 -8 8 -17 8 -15 0 -16 2 -3 10 12 8 12
10 1 10 -11 0 -11 3 0 17 10 11 10 14 2 9 -7 -4 -13 -3 -13 2 0 16 39 21 51 6
6 -8 8 -14 5 -14 -4 0 -1 -10 6 -22 6 -13 13 -29 14 -36 4 -21 25 -42 37 -35
6 3 7 1 3 -5 -4 -7 -2 -12 5 -12 7 0 9 -3 6 -7 -4 -3 -18 4 -32 17 -23 22 -34
18 -17 -5 24 -33 42 -38 64 -19 21 19 21 19 7 -4 -15 -24 -34 -29 -44 -11 -4
6 -14 8 -22 5 -9 -4 -11 -2 -7 6 4 7 3 8 -4 4 -8 -5 -10 -1 -6 11 4 14 3 15
-4 4 -7 -9 -12 -10 -16 -2 -4 6 -2 11 4 11 7 0 9 7 6 16 -4 10 -2 13 7 8 9 -6
9 -5 0 8 -7 8 -10 18 -6 21 3 4 1 7 -6 7 -8 0 -11 -6 -7 -16 4 -10 2 -13 -7
-8 -7 5 -5 0 3 -11 12 -15 12 -17 1 -10 -9 5 -12 4 -8 -2 3 -5 0 -10 -8 -10
-8 0 -15 4 -15 9 0 4 5 8 11 8 5 0 7 5 4 11 -4 6 -9 8 -12 5 -3 -3 -15 0 -27
6 -11 7 -28 13 -36 13 -8 0 -21 4 -27 8 -9 6 -11 3 -7 -7 3 -9 10 -16 16 -16
5 0 6 -5 2 -11 -4 -8 -1 -8 12 -1 20 11 61 -8 47 -21 -3 -4 -11 1 -18 10 -9
13 -14 13 -20 3 -6 -9 -4 -11 5 -5 10 6 12 4 7 -8 -3 -9 -3 -16 1 -16 4 1 9 0
12 -1 20 -7 40 -7 40 1 0 6 4 8 10 4 5 -3 7 -13 4 -23 -5 -13 -4 -14 4 -3 8
11 11 10 19 -3 8 -15 25 -22 56 -25 5 -1 5 -6 1 -12 -5 -8 -1 -8 14 0 18 10
20 8 17 -9 -2 -13 2 -20 11 -20 8 0 12 -4 9 -10 -3 -5 -3 -10 2 -11 4 0 19 -2
33 -5 17 -3 20 -1 12 5 -11 7 -11 9 2 14 9 4 15 3 14 -1 -4 -13 23 -53 32 -47
4 3 15 -1 22 -9 8 -7 34 -16 58 -20 24 -3 48 -10 53 -15 6 -6 2 -8 -12 -4 -14
4 -21 1 -21 -10 0 -10 9 -13 30 -11 17 2 30 -1 30 -7 0 -6 7 -8 16 -5 8 3 12
2 9 -4 -3 -6 -2 -10 3 -10 6 0 20 -15 32 -32 12 -18 19 -25 16 -15 -7 21 1 22
20 2 9 -8 12 -15 7 -15 -4 0 4 -8 20 -18 15 -10 24 -23 20 -27 -5 -5 -1 -4 8
3 20 15 33 3 16 -16 -9 -13 -9 -14 1 -8 6 4 12 2 12 -3 0 -6 5 -11 11 -11 5 0
7 5 3 12 -4 7 -3 8 5 4 6 -4 9 -11 6 -16 -3 -5 1 -15 9 -23 8 -8 12 -19 8 -23
-4 -5 -3 -6 2 -2 4 4 19 -5 33 -20 13 -15 22 -21 18 -14 -3 6 -1 12 6 12 6 0
9 -8 6 -19 -3 -14 -1 -18 9 -14 8 3 11 10 7 17 -4 7 -1 7 9 -1 8 -7 19 -9 23
-5 5 4 5 2 1 -5 -4 -7 4 -18 21 -27 15 -8 23 -15 17 -16 -6 0 -23 9 -37 20
-16 13 -28 17 -32 10 -4 -6 -3 -10 2 -8 14 3 73 -36 73 -49 0 -7 5 -13 10 -13
6 0 10 -9 10 -21 0 -11 5 -17 10 -14 6 3 10 -3 10 -14 0 -11 10 -27 22 -35 12
-9 19 -16 14 -16 -5 0 1 -8 12 -19 24 -20 29 -36 10 -26 -7 4 -5 0 5 -8 9 -8
17 -19 17 -26 0 -6 5 -11 11 -11 5 0 7 -5 3 -12 -5 -8 -2 -9 10 -5 9 4 15 3
11 -2 -8 -15 6 -42 19 -34 7 4 6 1 -2 -9 -10 -12 -9 -18 3 -28 8 -7 14 -20 13
-29 -2 -9 3 -15 11 -13 12 3 12 0 1 -12 -12 -16 -4 -22 23 -17 5 1 6 -3 2 -9
-3 -6 -12 -7 -18 -3 -7 3 -3 -4 8 -17 13 -15 15 -21 5 -16 -9 4 -8 2 3 -7 9
-8 17 -22 17 -31 0 -9 3 -16 8 -16 4 0 13 -9 20 -21 8 -12 9 -18 3 -15 -7 4
-8 1 -5 -8 3 -9 11 -16 17 -16 6 0 7 -3 4 -7 -4 -3 2 -12 13 -20 10 -7 17 -20
14 -27 -3 -7 2 -21 11 -30 9 -9 17 -25 18 -35 1 -15 4 -17 14 -9 7 6 14 7 14
2 1 -5 2 -16 3 -24 0 -8 6 -14 13 -13 7 2 10 -6 8 -17 -2 -11 1 -20 6 -20 6 0
7 -5 4 -10 -3 -6 -1 -10 5 -10 7 0 9 -7 6 -15 -3 -9 1 -18 9 -21 8 -4 12 -10
9 -15 -3 -5 0 -9 6 -9 6 0 8 -5 5 -10 -4 -6 -1 -9 7 -8 7 2 12 -3 10 -10 -1
-8 2 -11 8 -7 6 3 8 11 5 16 -3 5 1 6 9 3 15 -6 22 12 17 40 -1 5 4 4 11 -2
11 -8 14 -7 14 7 0 11 -6 17 -13 14 -7 -3 -13 -1 -13 4 0 5 11 10 26 11 17 1
23 -2 18 -10 -4 -6 -3 -8 4 -5 5 4 9 15 7 25 -1 9 3 27 10 38 11 16 11 24 2
34 -10 10 -9 11 3 5 12 -7 13 -6 3 7 -7 8 -9 19 -5 23 4 5 1 4 -7 0 -11 -6
-13 -4 -8 9 4 10 3 15 -3 11 -9 -5 -15 15 -11 38 0 4 -5 6 -11 5 -7 -2 -12 3
-10 9 1 7 -4 13 -12 13 -7 0 -20 8 -27 18 -12 15 -12 16 1 7 10 -6 9 -4 -1 6
-14 13 -15 19 -6 29 8 9 8 11 1 7 -7 -4 -17 0 -24 8 -11 13 -10 14 4 9 12 -5
15 -2 10 10 -3 9 -10 13 -15 10 -9 -5 -11 3 -12 44 0 16 -4 21 -14 18 -8 -3
-11 -1 -8 4 3 6 2 10 -4 10 -5 0 -12 -6 -15 -12 -3 -7 -3 -3 0 9 4 18 1 21
-16 18 -11 -2 -18 0 -15 6 4 5 11 7 16 4 15 -10 10 12 -6 25 -8 7 -15 18 -15
24 0 6 5 4 10 -4 9 -13 10 -13 10 0 1 12 4 11 15 -3 7 -11 11 -26 8 -35 -5
-11 -3 -13 7 -7 8 5 11 4 6 -3 -6 -11 27 -36 36 -27 8 9 5 -30 -3 -41 -5 -7
-3 -11 6 -11 8 0 12 3 10 7 -10 16 14 35 27 21 7 -8 8 -11 2 -8 -6 3 -11 0
-11 -8 0 -8 4 -15 8 -15 10 0 20 30 13 43 -3 7 2 3 10 -7 9 -11 16 -14 16 -7
0 7 4 10 9 7 5 -3 15 2 22 12 13 15 12 16 -3 3 -11 -8 -18 -9 -18 -3 0 6 5 14
11 17 6 4 8 13 5 21 -3 8 -2 13 2 13 21 -3 32 2 26 13 -4 6 -3 8 3 5 15 -9 32
15 30 41 -1 14 -6 21 -15 17 -7 -2 -10 0 -7 5 9 14 -17 38 -35 32 -9 -2 -7 2
5 12 19 15 19 15 -12 12 -19 -2 -30 1 -27 6 3 5 12 7 19 4 7 -2 16 2 19 10 3
9 1 12 -4 9 -6 -3 -10 0 -10 8 0 9 9 13 25 12 14 -2 23 1 19 6 -3 5 -9 7 -14
4 -5 -3 -12 -1 -15 5 -4 6 -1 9 7 8 7 -2 12 3 10 10 -1 8 2 11 8 7 6 -3 8 -10
5 -15 -3 -5 3 -8 14 -7 13 1 17 5 11 12 -6 7 0 10 18 9 40 -2 41 -3 39 -23 0
-11 -5 -17 -9 -15 -5 3 -6 9 -3 14 3 5 1 11 -4 14 -8 5 -8 -17 0 -34 1 -3 3
-11 3 -19 1 -8 8 -16 16 -18 12 -4 12 -2 2 5 -10 7 -9 12 4 23 15 12 17 12 12
-1 -3 -8 -1 -26 4 -39 7 -19 6 -22 -5 -13 -10 9 -13 5 -14 -16 -1 -21 0 -23 6
-9 8 23 11 23 38 9 16 -9 22 -9 25 0 8 23 39 18 34 -5 -3 -12 -3 -16 0 -9 3 6
10 10 14 7 5 -3 7 3 5 14 -2 11 3 22 10 25 8 3 12 14 10 26 -4 18 -2 20 11 10
11 -10 12 -16 3 -26 -6 -8 -10 -14 -8 -15 31 -6 37 -5 35 7 -1 7 -5 16 -8 20
-4 3 -4 12 -1 20 3 8 -3 22 -13 30 -11 9 -13 13 -7 9 9 -4 11 -1 7 9 -3 9 -11
13 -18 9 -6 -4 -4 2 4 12 9 11 10 16 3 11 -8 -4 -13 -2 -13 6 0 8 -5 6 -11 -4
-5 -10 -15 -18 -22 -18 -8 0 -9 2 -1 8 6 4 11 15 11 24 0 12 -4 15 -12 8 -6
-5 -16 -5 -25 2 -12 8 -12 9 3 4 9 -3 17 -1 17 4 0 6 -6 10 -14 10 -8 0 -18 9
-21 20 -4 13 -15 20 -33 20 -21 0 -24 2 -12 10 13 8 13 10 -1 10 -16 0 -34 26
-30 43 1 5 -3 6 -8 3 -5 -3 -12 1 -15 10 -3 8 -10 12 -16 9 -5 -3 -10 -1 -10
4 0 6 -7 11 -16 11 -9 0 -12 5 -8 12 4 6 3 8 -4 4 -6 -3 -17 0 -25 8 -8 8 -17
12 -21 9 -3 -4 -6 1 -6 10 0 10 -5 17 -11 17 -5 0 -7 5 -3 11 4 8 0 8 -15 0
-18 -10 -20 -9 -14 5 4 11 2 15 -4 11 -6 -4 -14 -1 -16 5 -4 10 -7 10 -15 0
-7 -11 -10 -10 -16 3 -9 24 -7 32 4 15 7 -10 10 -11 10 -2 0 7 -7 15 -15 18
-8 4 -12 11 -8 17 4 6 0 8 -8 5 -14 -5 -42 16 -33 25 3 2 -2 7 -11 11 -9 3
-13 2 -10 -3 3 -5 1 -13 -5 -16 -6 -4 -10 -3 -9 2 4 21 -2 34 -13 27 -8 -5 -9
-2 -5 10 4 9 3 15 -2 11 -6 -3 -14 2 -19 11 -5 9 -13 16 -18 16 -5 0 -8 5 -6
11 2 6 -4 4 -13 -3 -13 -11 -15 -10 -10 2 3 8 -6 25 -21 38 -15 14 -24 19 -19
11 5 -9 4 -12 -3 -7 -7 4 -12 14 -12 23 0 10 -5 13 -17 9 -10 -4 -14 -4 -11 0
4 3 0 13 -8 21 -8 8 -11 20 -7 26 3 7 3 9 -1 5 -5 -4 -17 2 -29 12 -11 11 -24
17 -28 14 -5 -3 -6 3 -2 12 4 12 3 15 -5 10 -7 -4 -12 -2 -12 4 0 6 -5 8 -10
5 -6 -3 -10 1 -10 9 0 9 -7 16 -16 16 -9 0 -12 5 -8 12 5 8 0 9 -15 5 -19 -5
-20 -3 -9 11 10 12 10 14 1 8 -8 -4 -13 -2 -13 4 0 6 -4 9 -8 6 -5 -3 -14 4
-22 14 -8 10 -17 17 -22 14 -4 -3 -8 0 -8 6 0 6 -5 8 -12 4 -8 -5 -9 -2 -5 9
3 9 1 19 -5 23 -6 4 -8 3 -4 -4 3 -6 2 -13 -4 -17 -5 -3 -10 1 -10 9 0 14 -36
33 -53 28 -5 -1 -5 2 -2 8 11 18 -23 47 -51 44 -19 -2 -23 1 -14 10 8 10 4 12
-17 9 -22 -4 -25 -2 -13 6 12 9 10 11 -10 11 -20 0 -22 2 -10 10 12 8 9 10
-13 10 -16 0 -26 4 -23 9 3 5 -1 12 -10 15 -8 3 -12 2 -9 -4 3 -6 1 -10 -4
-10 -6 0 -11 9 -11 20 0 11 -3 19 -7 18 -16 -4 -53 14 -47 23 3 5 2 9 -3 8
-15 -4 -63 24 -63 37 0 8 -6 11 -17 7 -10 -4 -14 -2 -10 4 5 9 -10 10 -56 4
-5 -1 -5 -6 -2 -11 4 -6 15 -8 26 -5 10 4 19 3 19 -2 0 -5 -11 -10 -25 -11
-14 -1 -25 3 -25 9 0 5 -5 7 -10 4 -7 -4 -7 -13 0 -26 9 -15 7 -21 -5 -25 -8
-3 -12 -10 -9 -16 3 -5 11 -4 20 3 23 19 16 -1 -8 -23 -18 -15 -19 -18 -5 -14
9 3 17 2 17 -3 0 -11 -30 -18 -53 -13 -11 2 -16 9 -13 18 3 7 1 16 -4 19 -10
6 -13 -3 -12 -40 1 -18 0 -18 -5 -2 -4 17 -6 17 -23 2 -10 -9 -16 -24 -13 -33
4 -15 3 -15 -6 -2 -6 8 -11 11 -11 6 0 -6 -6 -1 -14 9 -8 11 -12 23 -10 27 3
4 -2 5 -11 2 -12 -5 -13 -9 -4 -20 8 -10 8 -14 0 -14 -10 0 -15 14 -12 34 1 5
-5 16 -14 26 -15 16 -13 17 19 15 24 -2 33 1 32 11 -2 16 -16 31 -16 18 0 -5
-10 -10 -22 -11 l-23 -1 23 10 c28 14 28 23 0 42 -12 9 -18 16 -12 16 5 0 15
-5 22 -12 8 -8 12 -8 12 -1 0 14 -25 35 -33 27 -8 -8 -58 27 -52 36 3 5 0 10
-7 13 -7 2 -2 2 12 0 24 -4 24 -4 6 16 -23 25 -15 28 10 4 13 -13 19 -14 22
-5 2 6 8 12 14 12 6 0 6 -6 -2 -15 -8 -10 -9 -15 -2 -15 6 0 16 8 21 18 6 9
11 12 11 4 0 -7 -13 -20 -30 -31 -16 -10 -27 -21 -23 -24 3 -4 17 0 30 8 13 9
23 11 23 5 0 -5 -5 -10 -11 -10 -5 0 -7 -5 -4 -10 11 -18 35 9 31 34 -2 11 -1
15 1 8 3 -7 9 -10 14 -7 5 4 6 -2 2 -12 -6 -16 -5 -17 12 -3 15 12 17 12 10 1
-6 -11 -4 -13 7 -8 9 3 25 -1 36 -9 11 -8 23 -10 26 -6 3 5 -6 14 -20 21 -14
6 -22 16 -18 22 4 8 -1 9 -17 5 -21 -6 -21 -5 4 9 15 9 27 21 27 28 0 7 -3 8
-8 2 -4 -5 -16 -11 -27 -13 l-20 -4 20 16 c19 15 19 15 -5 10 -21 -5 -22 -4
-10 6 12 10 11 11 -8 7 -13 -3 -21 -3 -18 0 10 10 -15 33 -36 33 -10 0 -16 4
-13 10 3 5 -6 12 -20 16 -13 3 -23 10 -20 14 3 5 1 10 -4 12 -6 1 -12 17 -15
33 -2 17 -5 30 -6 30 -1 0 -3 17 -4 37 -1 20 1 35 5 33 3 -3 6 13 6 35 0 22
-3 37 -7 35 -4 -2 -7 2 -7 10 0 8 4 12 9 9 4 -3 8 0 8 5 0 6 -6 11 -12 11 -9
0 -8 4 2 10 9 6 10 10 3 10 -6 0 -10 8 -8 18 5 29 -12 51 -25 32 -6 -10 -10
-11 -10 -2 0 22 2 27 11 25 4 -2 6 4 3 12 -4 8 -9 13 -13 11 -3 -2 -7 7 -8 21
0 14 -6 29 -13 33 -8 5 -9 10 -1 14 6 4 3 14 -9 26 -11 11 -20 29 -20 40 0 11
-4 20 -10 20 -5 0 -10 16 -10 35 0 19 -5 35 -10 35 -6 0 -9 3 -9 8 3 20 -2 32
-13 26 -7 -4 -8 -3 -4 5 4 6 2 19 -6 28 -11 14 -11 16 2 9 13 -7 13 -6 0 6 -8
7 -16 20 -18 28 -2 8 -7 16 -12 18 -5 2 -7 9 -4 16 3 8 -2 16 -10 19 -9 4 -16
15 -16 25 0 10 -9 28 -19 39 -11 12 -17 24 -14 27 4 3 1 6 -5 6 -7 0 -11 3
-10 8 3 15 -15 62 -24 62 -5 0 -7 4 -3 9 3 5 1 12 -5 16 -6 4 -8 11 -5 16 4 5
1 9 -4 9 -6 0 -11 6 -11 13 0 7 -9 23 -19 34 -11 12 -17 24 -14 27 4 3 1 6 -6
6 -7 0 -9 5 -6 10 3 6 1 10 -4 10 -6 0 -11 6 -11 13 0 7 -9 23 -20 35 -14 14
-16 22 -8 23 7 0 4 4 -7 9 -14 6 -15 9 -5 10 12 0 11 3 -2 11 -10 5 -18 19
-18 29 0 11 -4 20 -10 20 -5 0 -10 7 -10 16 0 8 -4 12 -10 9 -5 -3 -10 1 -10
11 0 9 -8 23 -17 31 -11 9 -12 12 -3 7 8 -4 5 3 -7 14 -12 12 -24 31 -28 42
-4 11 -11 18 -16 15 -5 -4 -9 0 -9 8 0 7 -10 22 -22 34 -33 28 -88 94 -88 102
0 11 -36 51 -41 46 -3 -2 -6 6 -6 18 -1 12 -8 26 -16 32 -8 5 -12 16 -9 24 3
8 0 11 -7 7 -7 -5 -11 1 -11 14 0 12 -4 18 -10 15 -5 -3 -10 -1 -10 5 0 6 -6
8 -12 4 -10 -5 -10 -4 -1 6 10 11 7 18 -12 34 -13 12 -26 31 -28 43 -2 12 -7
26 -12 30 -4 5 -5 3 -1 -4 3 -6 3 -14 -2 -17 -4 -2 -9 5 -9 17 -1 12 -7 23
-13 25 -5 2 -10 10 -10 18 0 8 -5 14 -11 14 -6 0 -8 7 -5 16 6 15 4 15 -11 3
-12 -10 -15 -10 -9 -1 4 7 2 20 -6 29 -9 12 -9 15 -1 9 9 -5 11 -2 7 8 -3 9
-10 14 -14 11 -4 -3 -11 2 -14 11 -4 10 -2 13 7 9 6 -4 4 0 -6 8 -10 9 -18 18
-18 21 3 20 -1 26 -14 26 -8 0 -15 5 -15 11 0 5 6 7 13 3 9 -6 9 -5 0 8 -7 8
-9 18 -5 22 4 4 3 7 -3 6 -18 -4 -35 0 -34 8 3 20 -2 32 -12 26 -6 -4 -9 1 -7
13 2 11 -4 28 -12 38 -8 11 -10 16 -3 12 8 -5 11 0 10 13 -1 11 -6 20 -11 20
-5 0 -6 3 -3 7 4 3 1 13 -6 21 -8 11 -8 14 0 9 6 -4 14 -3 18 3 3 5 2 10 -4
10 -5 0 -8 12 -6 26 1 16 -2 24 -10 21 -6 -3 -12 1 -12 9 0 7 3 11 7 9 3 -2 6
5 6 15 0 10 -4 16 -8 14 -7 -4 -13 62 -9 89 0 4 -4 7 -9 7 -6 0 -10 5 -10 11
0 5 6 7 13 3 10 -6 10 -4 0 7 -7 7 -13 24 -13 37 0 15 -4 21 -12 16 -7 -5 -8
-3 -2 7 21 33 11 50 -16 26 -12 -10 -12 -9 -2 4 6 9 9 19 5 22 -3 4 1 7 11 7
16 0 16 1 2 16 -13 12 -14 20 -5 36 6 11 7 18 2 15 -5 -3 -9 3 -9 14 0 11 5
18 13 15 7 -3 10 1 6 9 -3 8 -8 13 -12 10 -4 -2 -5 16 -1 40 4 29 3 42 -3 38
-6 -4 -8 0 -4 10 3 10 2 17 -3 17 -6 0 -10 9 -10 20 0 11 -5 20 -11 20 -5 0
-7 5 -4 10 3 6 -1 10 -9 10 -9 0 -16 5 -16 10 0 6 -7 10 -15 10 -8 0 -15 6
-15 13 0 8 -4 7 -10 -3 -7 -11 -10 -11 -10 -2 0 7 -5 10 -10 7 -8 -5 -7 -12 2
-23 9 -11 0 -9 -27 7 l-40 23 20 -23 c20 -24 20 -24 0 -9 -35 26 -44 37 -37
45 4 5 0 6 -8 3 -8 -3 -24 -1 -35 4 -18 8 -18 8 2 4 13 -2 26 1 30 6 3 6 1 8
-4 5 -6 -4 -16 0 -23 8 -9 11 -9 15 -1 15 9 0 9 5 0 21 -8 16 -8 20 1 14 9 -5
8 -1 -1 16 -16 30 -20 51 -8 43 5 -3 6 -10 3 -16 -4 -7 -2 -8 5 -4 16 10 6 51
-18 75 -12 12 -21 26 -21 32 0 5 -4 7 -10 4 -9 -6 -14 8 -11 28 0 4 -4 7 -9 7
-6 0 -10 8 -10 19 0 10 -7 24 -15 31 -9 7 -14 19 -11 27 4 8 1 11 -5 8 -6 -4
-13 2 -16 14 -3 12 -10 21 -15 21 -5 0 -6 5 -3 10 3 6 2 10 -3 10 -9 0 -37 50
-34 63 1 4 -3 7 -8 7 -6 0 -10 9 -10 20 0 11 -4 20 -10 20 -5 0 -9 3 -9 8 3
19 -2 33 -11 27 -6 -4 -7 1 -3 11 5 13 3 15 -7 9 -9 -5 -11 -4 -6 3 4 6 -1 23
-10 37 -9 14 -13 25 -10 25 4 0 0 14 -9 30 -9 17 -12 30 -9 30 4 0 -1 10 -12
22 -10 12 -13 18 -6 14 6 -4 12 -3 12 2 0 6 -7 12 -15 16 -8 3 -12 12 -9 19 3
8 -2 21 -11 30 -10 11 -12 18 -4 22 7 5 2 16 -13 33 -13 14 -17 22 -10 18 6
-4 12 -2 12 3 0 6 -3 11 -7 11 -5 0 -9 20 -11 45 -1 24 -9 56 -17 71 -8 15
-12 31 -9 36 3 4 -2 8 -11 8 -9 0 -13 5 -10 10 4 6 12 7 18 4 8 -5 8 -3 0 7
-7 7 -13 23 -13 36 0 13 -6 23 -12 23 -10 0 -9 3 1 9 10 6 10 10 1 16 -6 4 -9
13 -6 21 3 8 2 14 -3 14 -4 0 -8 6 -9 13 -2 34 -14 72 -25 79 -9 5 -8 8 3 8
12 0 12 2 2 8 -7 5 -10 16 -6 25 4 11 0 19 -10 23 -13 5 -14 9 -5 20 6 8 7 14
2 14 -13 0 -13 32 0 48 7 9 5 11 -9 5 -17 -6 -17 -5 -5 10 11 14 11 17 0 17
-11 0 -11 2 1 10 13 9 13 11 0 20 -8 5 -11 10 -6 10 5 0 2 8 -5 17 -8 9 -9 14
-3 10 6 -3 2 13 -9 36 -12 23 -25 44 -29 45 -5 2 -3 11 4 20 10 12 10 14 1 8
-12 -6 -19 18 -14 47 0 4 -7 7 -16 8 -11 0 -13 3 -6 6 9 3 10 10 3 22 -5 10
-9 26 -10 37 -1 50 -13 114 -20 114 -5 0 -7 8 -5 18 1 9 -3 23 -9 31 -9 12 -7
13 8 7 19 -7 19 -6 1 14 -10 11 -13 20 -7 20 8 0 9 7 2 25 -7 18 -6 25 3 25 8
0 7 4 -3 10 -11 7 -11 10 -2 10 8 0 10 5 5 13 -4 6 -8 19 -8 27 0 8 -4 20 -8
27 -4 6 -4 14 1 17 10 6 9 106 -1 122 -3 6 -4 22 -1 35 3 13 6 29 7 34 2 6 6
15 10 22 4 6 2 15 -4 19 -8 4 -7 9 2 15 10 6 10 9 2 9 -9 0 -10 7 -3 25 6 15
6 27 0 30 -5 3 -7 12 -4 20 4 8 11 12 18 8 6 -4 5 0 -2 9 -11 13 -11 21 -2 39
9 16 9 20 0 14 -9 -6 -9 -2 -1 14 9 16 9 21 -1 21 -9 0 -9 3 2 10 12 7 12 10
1 10 -8 0 -11 6 -7 16 4 9 1 24 -6 32 -10 12 -10 14 0 8 7 -4 12 -2 12 4 0 6
4 9 9 5 10 -6 7 27 -4 45 -3 6 1 13 10 16 14 6 14 8 -2 20 -10 8 -13 14 -8 13
22 -3 29 2 15 11 -13 8 -12 10 3 10 9 0 17 5 17 11 0 5 -5 7 -10 4 -7 -4 -8 3
-4 21 4 16 7 34 7 41 0 7 7 13 16 14 10 0 8 4 -6 9 -13 5 -23 12 -23 14 0 3 7
3 15 0 11 -5 13 -2 9 10 -4 9 -3 16 2 15 21 -4 28 2 14 11 -13 9 -13 10 0 10
13 0 13 1 0 10 -11 7 -11 10 -2 10 7 0 10 5 7 10 -3 6 -1 10 5 10 6 0 8 5 5
10 -4 6 -12 7 -18 4 -7 -4 -8 -3 -4 2 5 5 13 10 18 10 23 3 23 6 -1 20 -19 11
-21 14 -6 12 10 -2 21 3 24 11 3 8 0 11 -6 7 -12 -7 -10 20 3 31 4 5 5 1 0 -7
-5 -8 -4 -12 0 -7 16 14 14 36 -3 31 -14 -5 -14 -4 1 6 9 6 23 8 30 4 8 -5 7
-2 -2 9 -12 15 -11 17 5 17 16 1 15 3 -6 15 -34 19 -45 19 -29 -2 12 -14 12
-16 0 -8 -11 6 -13 4 -8 -8 4 -12 2 -14 -10 -10 -11 4 -14 2 -9 -5 4 -7 2 -10
-6 -7 -15 5 -26 -2 -48 -29 -14 -18 -13 -18 10 -13 14 4 19 4 13 1 -7 -3 -13
-10 -13 -15 0 -6 6 -7 13 -3 9 5 9 4 0 -6 -9 -9 -15 -8 -30 7 -18 18 -18 21
-5 30 13 8 13 11 2 18 -9 5 -11 4 -6 -3 4 -7 3 -12 -2 -12 -6 0 -12 7 -16 15
-3 8 -2 14 2 14 17 -3 35 2 29 7 -3 4 0 16 8 26 7 11 11 26 9 33 -3 7 8 22 23
33 24 17 47 72 24 58 -4 -3 -7 6 -7 19 0 18 3 22 16 15 19 -10 69 13 51 24 -6
4 -11 3 -11 -1 0 -5 -10 -9 -22 -10 l-23 -1 23 11 22 10 -22 26 c-20 23 -19
23 9 -2 l31 -29 -2 26 c-1 19 -5 25 -16 21 -12 -4 -12 -3 1 7 9 7 14 20 12 28
-3 10 -2 11 4 3 6 -8 17 -3 40 17 17 16 28 32 25 36 -4 5 1 2 11 -5 21 -16 25
-13 31 20 2 13 5 26 6 29 2 3 2 8 1 13 -2 14 17 7 23 -9 3 -8 2 -12 -4 -9 -6
3 -10 1 -10 -4 0 -6 5 -11 12 -11 6 0 3 -6 -8 -14 -16 -12 -17 -17 -6 -28 11
-11 12 -10 7 5 -8 19 19 25 30 7 4 -6 -1 -7 -11 -3 -16 6 -15 4 2 -19 18 -24
42 -19 27 6 -4 6 1 7 12 2 18 -7 18 -6 0 16 -11 13 -16 20 -11 16 5 -5 15 1
23 12 8 11 20 20 28 20 9 0 11 7 7 22 -3 14 -1 19 6 14 8 -5 10 -2 6 8 -4 10
-1 16 7 16 11 0 11 3 -1 10 -12 8 -12 10 -1 10 11 0 11 3 1 15 -10 12 -9 15 6
16 18 0 18 1 -1 9 -11 5 -15 9 -9 9 6 1 10 17 9 37 -1 19 4 47 12 61 16 30 17
44 2 23 -9 -12 -10 -11 -6 8 3 14 -1 26 -11 33 -15 10 -15 10 1 5 20 -6 23 7
4 23 -10 8 -17 7 -27 -2 -12 -10 -12 -9 -1 5 9 13 18 15 30 8 15 -7 17 -4 17
21 0 16 -3 29 -8 29 -4 0 -8 6 -8 14 0 8 -4 17 -9 20 -8 5 -8 -15 -1 -34 1 -3
2 -8 1 -12 0 -5 4 -8 9 -8 6 0 10 -5 10 -11 0 -8 -5 -8 -15 1 -8 7 -12 16 -9
21 3 5 1 9 -5 9 -5 0 -13 -4 -16 -10 -11 -18 -37 -11 -31 8 4 12 1 19 -7 19
-9 0 -12 -9 -9 -24 2 -13 1 -23 -4 -21 -10 3 -14 -5 -14 -24 0 -6 6 -3 14 8 8
10 17 16 21 13 3 -4 -2 -14 -11 -24 -17 -16 -18 -16 -32 1 -13 18 -14 18 -10
-1 2 -11 12 -21 23 -23 11 -2 24 -8 29 -13 6 -5 -4 -5 -21 0 -18 5 -35 6 -39
3 -4 -4 -3 0 1 8 8 13 6 13 -7 2 -21 -17 -33 1 -18 25 11 17 11 17 6 1 -8 -28
2 -21 19 11 13 27 22 57 24 85 1 6 8 1 17 -10 15 -18 15 -18 8 5 -4 16 -3 21
5 17 6 -4 11 -15 11 -24 0 -13 2 -14 9 -3 7 11 9 11 14 0 3 -8 4 1 2 19 -2 26
1 32 13 27 12 -4 13 -3 2 10 -16 19 -33 9 -27 -16 3 -11 1 -16 -4 -13 -6 3 -9
15 -7 27 2 13 -2 21 -9 20 -7 -2 -13 2 -13 8 0 6 8 8 18 5 14 -5 13 -3 -3 10
-15 13 -16 15 -3 11 9 -3 19 -3 21 1 2 4 2 2 1 -5 -3 -13 12 -27 41 -36 20 -7
20 -7 1 8 -11 8 -20 24 -21 34 -2 20 14 24 27 6 5 -6 8 -5 8 3 0 7 -7 15 -15
18 -12 5 -12 10 -3 27 10 19 9 20 -3 10 -12 -10 -14 -5 -14 26 0 27 3 37 12
34 7 -3 13 2 13 12 0 9 4 14 8 11 4 -2 14 0 22 6 13 8 12 9 -2 5 -10 -4 -18 1
-21 12 -3 12 1 18 12 17 10 -1 15 5 13 17 -2 11 5 26 15 34 10 8 13 12 7 9 -7
-3 -11 8 -10 33 0 22 6 38 13 38 7 0 10 -3 8 -7 -2 -4 2 -7 10 -7 8 0 12 4 9
9 -3 5 0 15 6 23 7 8 9 15 5 15 -4 0 0 11 9 25 9 14 12 25 7 25 -5 0 -12 -6
-14 -12 -4 -10 -6 -10 -6 0 -1 7 6 15 15 19 13 5 13 7 2 14 -10 7 -10 9 0 9
14 0 16 31 2 48 -7 9 -7 9 2 2 20 -16 29 -11 18 9 -14 27 -13 38 3 20 6 -8 11
-12 10 -10 -2 2 2 10 8 17 7 8 7 14 -1 19 -5 3 -10 16 -10 29 0 12 -3 26 -7
30 -5 4 -8 18 -8 29 0 13 -6 22 -15 22 -8 1 -14 7 -12 15 2 11 -1 11 -11 -2
-9 -12 -17 -14 -24 -7 -7 7 -14 4 -24 -8 -13 -16 -12 -17 4 -4 11 9 17 10 17
2 0 -6 -5 -11 -11 -11 -5 0 -8 -4 -4 -9 3 -5 0 -13 -6 -17 -7 -4 -9 -3 -5 4 3
6 2 13 -3 17 -5 3 -15 -3 -21 -12 -10 -16 -11 -16 -5 2 9 27 13 42 7 32 -2 -4
-13 -12 -24 -18 -13 -7 -18 -7 -14 -1 3 6 2 14 -4 17 -8 5 -8 11 0 20 11 14 9
50 -5 62 -4 5 -5 1 -1 -7 4 -8 -2 -4 -13 10 -11 14 -21 21 -21 16 0 -5 -8 -2
-17 5 -11 10 -14 10 -9 2z m-277 -828 c-1 -5 7 -8 18 -7 16 3 18 1 8 -9 -22
-22 -14 -33 10 -13 22 19 22 19 5 -2 -19 -22 -24 -39 -9 -29 16 9 24 -15 11
-30 -8 -10 -9 -15 -2 -15 6 0 14 5 18 11 10 18 25 -5 28 -44 2 -22 -1 -35 -8
-34 -6 1 -10 -6 -8 -15 2 -10 -2 -18 -8 -18 -5 0 -9 -6 -7 -12 1 -7 -4 -12
-11 -10 -8 1 -12 -3 -9 -10 2 -7 -3 -22 -12 -33 -15 -18 -15 -19 0 -7 9 7 23
11 30 9 8 -2 11 -2 7 0 -5 3 -8 9 -8 15 0 7 5 7 13 -1 8 -6 18 -7 23 -3 4 4 2
-1 -5 -10 -15 -20 -2 -25 16 -7 16 16 37 1 23 -16 -14 -17 26 -18 48 -2 8 6
12 6 12 -1 0 -11 -38 -28 -53 -24 -5 1 -5 -2 -2 -8 4 -6 13 -9 21 -6 18 7 23
-4 13 -29 -6 -17 -8 -17 -8 -2 -1 9 -6 17 -12 17 -5 0 -7 -6 -3 -12 4 -7 -2
-5 -14 5 -11 11 -18 26 -16 35 4 12 2 11 -7 -2 -10 -17 -8 -23 15 -43 26 -22
22 -28 -13 -23 -12 1 -13 -1 -2 -13 13 -17 -11 -17 -54 -2 -11 4 -15 3 -10 -2
12 -9 14 -45 3 -53 -4 -3 -3 -12 2 -20 8 -13 11 -13 22 -1 11 11 11 13 -1 6
-9 -5 -12 -3 -9 5 5 15 38 23 38 9 0 -5 5 -9 11 -9 8 0 8 5 -1 15 -7 8 -16 13
-20 10 -5 -3 -11 -1 -15 5 -4 6 4 9 19 8 13 -1 24 -7 23 -13 -1 -5 4 -9 12 -7
12 3 12 1 0 -14 -7 -9 -14 -24 -14 -33 0 -10 -7 -15 -17 -13 -10 2 -18 -3 -18
-10 0 -8 -5 -6 -11 5 -6 9 -15 15 -21 11 -7 -4 -5 -10 3 -16 11 -8 10 -9 -2
-5 -9 3 -21 1 -27 -5 -7 -7 -14 -3 -21 11 -9 17 -16 19 -30 11 -10 -5 -22 -6
-26 -2 -5 4 -5 1 -1 -5 4 -7 3 -13 -2 -13 -6 0 -13 7 -16 16 -4 9 -2 13 5 8 7
-4 10 -1 7 7 -3 8 -11 13 -17 11 -7 -1 -10 2 -6 8 5 8 11 8 20 0 9 -8 15 -8
20 0 3 5 0 10 -7 10 -8 0 -6 5 5 11 9 6 14 16 11 22 -5 8 -3 8 7 0 15 -15 29
-17 29 -5 0 5 -10 14 -22 21 -23 11 -23 11 2 5 22 -6 23 -5 12 8 -10 13 -10
19 3 32 20 20 20 18 7 43 -10 18 -9 24 5 32 19 11 7 16 -27 11 -12 -1 -11 1 2
12 22 16 17 54 -6 50 -9 -2 -16 2 -16 8 0 6 5 8 10 5 6 -4 10 8 10 29 0 22 5
36 13 36 6 0 -3 9 -20 20 -18 11 -33 23 -33 26 0 4 7 1 15 -6 8 -7 15 -9 15
-6 0 4 10 0 21 -8 12 -8 27 -12 34 -10 7 3 16 1 20 -5 4 -8 11 -7 21 3 18 19
20 43 1 28 -11 -9 -22 -10 -56 -3 -2 1 2 8 9 16 10 12 10 19 1 28 -17 17 -33
-11 -20 -35 7 -12 6 -18 -1 -18 -6 0 -13 7 -16 15 -4 8 -11 12 -18 8 -6 -3 -3
3 8 15 18 21 18 22 -2 54 l-21 33 29 0 c16 1 28 -4 27 -10z m586 -3962 c-5
-12 -3 -14 8 -8 12 7 12 6 1 -7 -8 -10 -9 -18 -3 -22 6 -4 8 -13 4 -21 -3 -9
1 -15 8 -16 8 0 5 -4 -6 -9 -16 -7 -17 -9 -3 -9 9 -1 20 -6 23 -11 4 -7 -3 -9
-20 -6 -15 3 -24 2 -20 -2 7 -7 11 -8 48 -11 21 -2 21 -3 2 -11 -13 -6 -15 -9
-5 -9 8 -1 21 -11 29 -23 13 -22 13 -22 -4 -8 -17 14 -18 13 -11 -5 10 -24 10
-28 -2 -80 -13 -55 -22 -75 -36 -75 -6 0 -4 -5 4 -10 9 -6 10 -10 3 -10 -7 0
-10 -10 -7 -25 4 -24 4 -25 -16 -8 -11 10 -16 19 -10 21 7 3 6 9 -2 20 -10 12
-10 14 0 8 15 -9 15 -1 1 26 -8 15 -8 19 0 14 6 -4 11 -3 11 3 0 5 -5 13 -11
16 -7 5 -5 15 5 30 10 15 12 26 6 30 -6 4 -8 10 -5 15 14 22 12 71 -2 66 -8
-3 -12 -2 -9 2 2 4 1 14 -4 22 -5 9 -4 20 3 29 9 12 9 13 0 7 -7 -4 -13 -2
-13 3 0 6 6 11 14 11 8 0 17 4 20 9 4 5 -3 7 -14 4 -12 -3 -20 0 -20 7 0 7 7
10 18 6 15 -5 15 -4 1 6 -15 10 -15 13 0 30 19 22 22 23 14 1z m-630 -2809
c-16 -13 -15 -13 10 -4 36 13 70 13 62 0 -3 -6 1 -7 9 -4 9 3 14 10 11 14 -3
5 0 12 6 16 8 4 9 3 5 -4 -4 -7 -2 -12 5 -12 8 0 7 -5 -2 -17 -13 -15 -12 -15
9 -4 12 6 22 7 22 2 0 -5 -6 -12 -12 -14 -8 -3 -6 -6 5 -6 10 -1 17 6 18 17 0
12 3 10 11 -8 10 -24 10 -24 18 -5 7 15 9 16 9 4 1 -21 -25 -44 -32 -29 -3 6
-5 6 -3 -1 1 -7 10 -13 19 -15 9 -1 15 2 11 7 -3 5 2 9 11 9 10 0 14 5 9 13
-5 9 -4 9 6 0 11 -10 11 -15 -1 -29 -13 -16 -12 -16 8 -6 12 7 23 16 25 22 2
6 9 0 17 -12 13 -21 13 -22 -2 -9 -10 7 -17 9 -17 3 0 -14 28 -23 36 -11 4 7
10 6 18 0 7 -6 17 -7 21 -3 5 4 5 1 1 -6 -6 -11 -11 -11 -24 0 -15 12 -16 11
-3 -4 7 -10 17 -15 22 -12 5 3 9 1 9 -4 0 -5 16 -8 34 -7 19 1 33 -2 31 -6 -3
-4 2 -10 11 -13 10 -4 13 -2 8 7 -4 6 -4 9 1 5 4 -4 15 -2 24 5 14 11 14 10 2
-6 -17 -22 -7 -34 14 -17 9 7 15 9 14 4 -4 -23 2 -26 16 -8 13 16 14 17 9 1
-6 -15 -1 -17 31 -14 25 3 38 0 42 -9 6 -17 30 -18 36 -1 3 6 6 2 6 -10 1 -27
21 -31 21 -5 1 16 1 16 11 0 5 -9 16 -15 24 -12 8 4 12 11 8 17 -3 6 -1 7 6 3
8 -5 9 -12 2 -20 -7 -8 -4 -12 10 -13 15 -1 19 2 15 14 -5 12 -4 13 7 5 8 -7
17 -9 20 -5 4 3 7 1 7 -6 0 -7 5 -9 10 -6 6 4 8 12 4 18 -3 7 1 4 9 -6 12 -14
16 -15 20 -4 3 8 0 20 -6 26 -9 9 -8 11 6 6 9 -4 17 -12 17 -18 0 -6 3 -7 6
-4 4 4 1 14 -7 23 -11 14 -10 15 7 12 10 -1 22 -7 25 -11 3 -5 9 -2 12 6 4 11
0 15 -13 12 -11 -2 -22 0 -25 5 -3 5 4 7 15 5 11 -2 20 2 20 8 0 8 3 7 9 -2 5
-8 8 -19 7 -25 -2 -6 -1 -8 1 -3 3 4 9 5 14 1 5 -3 8 0 7 8 -2 7 3 12 11 10
11 -2 12 0 3 10 -8 11 -7 14 8 14 10 0 16 -5 13 -10 -4 -5 3 -7 15 -4 15 4 19
2 15 -8 -5 -13 8 -19 30 -15 5 1 6 -3 2 -9 -3 -5 -1 -10 4 -10 6 0 11 -5 11
-11 0 -5 -6 -7 -12 -3 -10 5 -10 4 -2 -5 14 -15 6 -73 -10 -64 -6 4 -4 -2 4
-12 9 -11 10 -16 3 -11 -9 5 -13 0 -13 -13 0 -12 -4 -21 -10 -21 -5 0 -9 -3
-8 -7 3 -15 -14 -43 -23 -37 -5 3 -6 -3 -2 -12 4 -12 3 -15 -5 -10 -8 5 -10 2
-6 -8 3 -9 1 -16 -6 -16 -6 0 -8 -4 -5 -10 3 -6 -1 -7 -9 -4 -11 4 -16 0 -16
-10 0 -9 -5 -16 -11 -16 -5 0 -7 -4 -4 -10 3 -5 2 -10 -4 -10 -7 0 -7 -8 -1
-26 7 -18 7 -23 -1 -18 -7 4 -10 -4 -8 -24 2 -20 -3 -38 -16 -53 -12 -14 -14
-19 -5 -15 8 5 3 -3 -12 -16 -15 -14 -25 -28 -21 -32 6 -6 -12 -10 -30 -7 -5
1 -6 -2 -3 -7 6 -10 -10 -37 -23 -37 -6 0 -17 -9 -26 -20 -9 -11 -14 -14 -10
-8 4 9 1 11 -9 7 -9 -3 -14 -9 -11 -13 2 -4 -2 -8 -9 -8 -8 0 -12 7 -9 16 3
11 2 12 -4 4 -5 -8 -28 -12 -55 -11 -37 2 -45 5 -36 15 6 8 8 16 4 20 -3 3 -6
2 -6 -4 0 -5 -7 -10 -15 -10 -11 0 -12 4 -3 14 9 11 7 12 -7 7 -13 -5 -16 -4
-11 4 4 7 2 12 -4 12 -6 0 -8 5 -5 10 3 6 -3 10 -14 10 -11 0 -22 9 -26 20 -6
19 -17 25 -39 21 -5 -1 -6 4 -3 11 3 9 -5 13 -24 13 -15 1 -25 -3 -23 -7 3 -4
-2 -8 -11 -8 -8 0 -18 -7 -22 -16 -3 -8 -12 -13 -19 -10 -8 3 -11 0 -7 -10 3
-8 -1 -14 -8 -14 -11 0 -11 -3 1 -10 8 -5 10 -10 4 -10 -6 0 -17 7 -24 15 -7
8 -16 13 -20 10 -4 -3 -29 7 -54 21 -25 14 -46 22 -46 18 0 -4 -7 1 -16 12 -8
10 -13 12 -9 4 4 -10 2 -9 -8 3 -8 9 -19 17 -26 17 -6 0 -11 5 -11 10 0 6 -6
10 -13 10 -7 0 -18 9 -25 21 -11 16 -16 18 -28 9 -11 -10 -14 -10 -14 0 0 7
-8 10 -20 7 -10 -3 -19 -2 -18 2 2 19 -3 31 -11 26 -5 -3 -12 -1 -16 4 -3 6
-12 8 -20 4 -8 -3 -15 0 -15 7 0 6 -4 8 -10 5 -5 -3 -10 0 -10 7 0 8 -3 9 -8
3 -10 -14 -32 -17 -32 -4 0 5 -5 7 -10 4 -6 -4 -8 -11 -5 -16 3 -5 -1 -6 -10
-3 -8 4 -23 0 -32 -7 -14 -12 -16 -12 -8 1 8 13 6 13 -8 1 -9 -7 -15 -16 -13
-20 3 -4 0 -13 -5 -21 -8 -13 -9 -13 -7 0 2 9 -1 15 -7 15 -5 0 -9 -4 -7 -10
1 -5 -5 -1 -13 9 -14 18 -20 15 -15 -9 1 -5 -4 -5 -11 2 -6 6 -18 9 -27 6 -11
-5 -13 -3 -7 8 8 12 6 12 -9 0 -15 -13 -19 -13 -27 0 -7 12 -9 12 -9 0 0 -8
-3 -11 -6 -8 -12 12 -46 -13 -35 -27 7 -8 6 -16 -1 -26 -8 -12 -9 -12 -4 2 3
10 1 20 -5 23 -5 4 -7 11 -4 16 4 5 1 9 -4 9 -6 0 -11 -4 -11 -10 0 -5 -10
-15 -22 -21 -22 -11 -22 -11 -9 7 7 10 -5 -1 -28 -26 -40 -44 -59 -110 -30
-110 8 0 8 -4 0 -14 -8 -10 -9 -16 -1 -21 6 -3 7 -12 3 -18 -7 -12 -13 -32
-15 -53 -1 -5 -16 -15 -34 -20 -18 -6 -31 -7 -28 -2 3 4 0 8 -6 8 -7 0 -9 8
-5 20 5 16 3 19 -12 13 -16 -6 -17 -5 -3 13 14 18 14 18 -4 4 -18 -14 -18 -13
-12 10 6 19 5 21 -3 10 -8 -11 -11 -12 -11 -2 0 7 -4 10 -10 7 -5 -3 -10 2
-10 12 0 15 -2 16 -10 3 -12 -18 -13 -30 -2 -29 22 4 33 -3 30 -18 -2 -10 3
-18 12 -18 8 0 15 -7 15 -15 0 -8 4 -18 8 -21 5 -3 1 -9 -8 -12 -9 -4 -14 -3
-11 1 2 4 -2 16 -10 27 -9 11 -14 14 -14 6 0 -8 -9 -2 -21 13 -11 14 -25 23
-30 20 -6 -3 -2 -12 8 -21 17 -13 17 -13 -3 -4 -15 7 -25 7 -35 -2 -7 -7 -11
-8 -7 -3 4 4 3 19 -2 32 -7 18 -6 22 5 18 8 -3 11 -13 8 -22 -5 -14 -2 -13 14
3 11 11 19 23 16 28 -2 4 1 7 6 7 6 0 11 8 11 18 0 14 -2 15 -10 2 -10 -15
-16 -2 -11 24 1 5 -5 4 -13 -3 -12 -10 -17 -6 -31 26 -44 99 -48 104 -79 116
-15 6 -16 10 -6 22 11 13 10 14 -5 9 -14 -6 -16 -4 -10 6 5 9 4 11 -4 6 -6 -4
-9 -12 -6 -17 4 -5 -2 -6 -12 -2 -16 6 -16 5 -4 -10 9 -11 10 -17 2 -17 -6 0
-11 5 -11 11 0 5 -6 7 -12 3 -7 -4 -4 2 6 14 11 12 16 25 13 29 -4 3 -7 1 -7
-5 0 -7 -4 -12 -10 -12 -17 0 -11 16 15 44 13 14 22 26 19 26 -3 0 -2 5 1 10
5 8 11 8 19 1 10 -8 12 -5 11 12 -3 30 43 77 56 57 12 -21 11 -3 -2 22 -7 12
-7 18 -1 14 6 -3 12 -3 15 1 2 5 3 3 1 -3 -1 -6 4 -11 12 -11 8 0 12 3 9 5 -3
3 1 12 8 20 8 11 8 14 0 9 -6 -4 -14 -3 -17 2 -7 10 19 9 30 -1 14 -15 44 15
31 31 -10 12 -9 13 1 7 7 -4 19 -2 27 4 15 12 21 3 16 -23 -1 -5 3 -6 8 -3 5
4 7 18 5 32 -4 24 -4 25 11 10 17 -17 35 -13 35 7 0 7 -4 6 -10 -3 -5 -8 -10
-10 -10 -4 0 19 13 24 28 11 13 -9 14 -9 8 1 -4 7 -2 12 4 12 6 0 9 4 6 9 -8
12 4 41 16 41 6 0 6 -6 -1 -14 -9 -11 -9 -16 0 -22 7 -4 9 -3 5 4 -3 5 0 12 6
15 10 3 9 8 -2 22 -12 15 -12 17 -1 10 11 -6 13 -4 8 8 -4 11 -1 15 13 12 14
-3 17 1 13 12 -5 13 -2 15 11 10 9 -4 15 -3 11 2 -7 13 5 42 16 35 5 -3 6 2 3
10 -9 25 12 19 25 -6 7 -15 10 -16 6 -4 -4 13 -1 17 10 12 10 -3 15 1 15 12 0
9 5 24 11 32 9 13 10 12 5 -3 -5 -15 -2 -17 13 -12 13 4 23 0 29 -11 8 -15 9
-15 15 0 4 10 3 14 -2 11 -5 -3 -12 -1 -15 4 -10 16 11 22 24 6 6 -7 17 -12
25 -9 7 3 16 1 20 -5 3 -6 11 -11 16 -11 6 0 7 4 4 10 -3 6 1 7 10 4 14 -6 14
-8 -2 -19 -10 -8 -15 -17 -10 -21 4 -4 7 -3 7 3 0 5 16 9 35 8 19 -2 38 2 42
8 3 5 1 7 -4 4 -6 -4 -13 0 -17 8 -5 13 -1 13 29 1 29 -13 33 -13 28 0 -7 19
7 18 24 -3 11 -13 10 -10 -1 9 -15 25 -15 27 1 21 12 -5 14 -3 8 8 -5 8 -5 11
1 6 5 -5 9 -14 9 -20 1 -7 7 -10 15 -8 8 2 20 4 27 4 7 0 10 4 7 9 -3 4 0 8 5
8 6 0 11 -4 11 -9 0 -14 41 0 47 15 3 8 9 11 15 8 5 -3 1 -12 -9 -20z m2152
-486 c5 4 5 2 1 -5 -3 -6 1 -16 10 -21 15 -8 15 -10 0 -15 -10 -4 -15 -3 -11
3 9 14 -8 12 -29 -3 -15 -11 -17 -17 -7 -35 9 -17 9 -21 -2 -16 -8 3 -14 -2
-14 -11 0 -10 6 -14 15 -10 8 3 21 -3 29 -15 8 -11 19 -20 25 -20 6 0 16 -8
23 -17 11 -15 15 -16 31 -3 17 14 18 14 5 -2 -9 -12 -10 -18 -2 -18 6 0 11 -5
11 -11 0 -8 -4 -8 -12 -2 -16 11 -60 15 -54 4 3 -4 -1 -8 -8 -8 -8 0 -12 6 -9
14 3 7 12 13 21 13 8 0 12 3 8 8 -4 4 -11 7 -14 6 -4 0 -15 10 -26 23 -24 32
-32 22 -11 -14 16 -25 16 -26 0 -8 -9 11 -23 19 -32 17 -11 -3 -14 1 -9 13 4
12 2 15 -13 10 -10 -3 -24 1 -31 10 -7 8 -10 15 -6 15 4 0 -1 12 -10 26 -17
24 -16 25 1 22 11 -2 19 4 21 15 4 29 11 31 39 13 22 -14 25 -15 25 -1 0 8 -4
15 -10 15 -5 0 -10 5 -10 11 0 8 6 7 17 -2 15 -12 16 -12 10 6 -7 18 -6 19 6
3 8 -10 18 -14 22 -10z m1119 -772 c-4 -10 -2 -16 3 -13 5 4 10 0 10 -8 0 -8
-4 -15 -9 -15 -15 0 -8 -19 10 -24 14 -4 14 -5 -3 -4 -35 1 -38 -2 -25 -18 11
-12 11 -15 1 -12 -8 2 -15 -8 -17 -22 -4 -24 -3 -24 11 -6 17 23 19 18 5 -18
-7 -20 -6 -24 5 -19 19 7 19 4 -5 -43 -12 -22 -18 -28 -14 -14 6 22 5 23 -9
11 -9 -7 -22 -11 -29 -8 -8 3 -5 6 6 6 19 1 19 1 0 22 -14 16 -15 22 -5 28 18
11 16 24 -6 32 -17 7 -17 8 0 8 10 1 15 6 12 11 -4 6 -11 7 -17 4 -7 -4 -8 -2
-4 5 4 6 12 8 18 5 7 -4 9 7 6 34 -3 37 -2 40 17 31 12 -6 8 0 -10 16 -19 17
-22 23 -9 16 23 -11 44 2 44 29 0 13 1 13 10 0 5 -8 7 -23 4 -34z"/>
<path d="M3817 8861 c-15 -10 -25 -20 -21 -23 12 -13 11 -44 -3 -60 -10 -11
-11 -18 -3 -23 5 -3 8 -11 5 -16 -6 -8 9 -13 28 -10 5 1 6 -3 2 -9 -3 -6 -10
-8 -15 -5 -17 11 -31 -32 -19 -58 10 -23 13 -24 30 -9 12 11 15 20 9 32 -5 9
-5 22 0 30 5 8 4 22 -1 32 -13 23 14 36 36 18 9 -7 18 -10 22 -6 3 3 0 6 -8 6
-10 1 -9 4 4 11 9 5 23 7 30 3 6 -4 1 5 -12 19 -22 24 -49 29 -35 6 3 -5 10
-6 16 -3 6 4 8 3 5 -3 -9 -14 -63 -9 -59 6 1 8 -2 10 -10 5 -9 -6 -9 -3 1 9 9
11 10 17 2 17 -6 0 -11 5 -11 12 0 6 11 1 25 -12 l25 -24 -2 25 c-2 19 1 23
18 21 12 -1 27 4 34 13 14 17 0 21 -17 4 -8 -8 -17 -8 -30 -1 -15 8 -26 6 -46
-7z"/>
<path d="M3980 8640 c0 -5 -5 -9 -11 -7 -6 1 -14 -4 -17 -12 -3 -9 0 -11 8 -6
8 5 11 4 6 -3 -4 -6 -13 -9 -20 -6 -7 3 -19 -3 -27 -12 -8 -10 -9 -15 -2 -11
6 4 13 4 16 0 2 -5 2 -1 0 7 -3 11 -1 12 7 4 12 -12 3 -44 -12 -44 -5 0 -6 5
-3 10 3 6 2 10 -3 10 -6 0 -9 -11 -8 -24 1 -16 5 -22 16 -18 8 3 2 -6 -15 -20
-20 -17 -38 -24 -54 -21 -19 3 -22 1 -13 -9 17 -21 8 -49 -23 -73 -16 -13 -25
-28 -20 -34 4 -7 1 -19 -6 -27 -18 -22 -20 -44 -3 -37 8 3 14 9 14 15 0 5 4 7
9 4 5 -3 14 1 21 9 7 8 9 15 4 15 -4 0 -3 5 3 11 8 8 17 8 30 1 15 -9 22 -6
33 11 22 35 20 58 -4 52 -17 -5 -16 -3 4 9 16 10 20 16 10 16 -8 1 -5 5 9 11
15 6 21 15 17 24 -3 8 0 14 6 12 6 -1 15 12 20 30 4 18 13 35 20 39 7 5 8 3 3
-6 -5 -9 -4 -11 4 -6 8 6 9 12 2 20 -6 7 -8 15 -5 19 9 9 35 -4 28 -14 -3 -5
3 -6 12 -2 11 4 13 8 6 11 -15 5 -16 32 -1 32 5 0 7 -5 3 -12 -4 -7 -3 -8 4
-4 6 4 9 13 5 22 -3 8 -8 12 -11 10 -3 -3 -11 -1 -18 5 -9 7 -17 4 -29 -13
l-17 -23 7 23 c3 12 4 22 1 22 -3 0 -6 -4 -6 -10z"/>
<path d="M8365 8390 c3 -4 -4 -10 -15 -13 -10 -3 -20 -1 -22 4 -2 6 -12 2 -23
-6 -11 -9 -14 -13 -6 -9 9 4 12 3 7 -4 -4 -7 -17 -8 -36 -2 -20 6 -28 5 -24
-1 8 -13 -29 -7 -38 5 -4 6 -12 6 -20 -1 -7 -6 -21 -9 -30 -8 -10 2 -18 0 -18
-5 0 -4 -11 -6 -25 -5 -14 2 -25 0 -25 -5 0 -4 -12 -7 -27 -6 -20 1 -28 -4
-27 -16 1 -9 -4 -14 -10 -12 -8 3 -12 -7 -11 -26 0 -16 4 -30 8 -30 5 0 5 -5
1 -12 -5 -7 -2 -9 7 -6 11 4 15 -3 16 -28 0 -19 -2 -34 -6 -34 -4 0 -6 -33 -5
-72 1 -43 -4 -84 -11 -100 -8 -16 -9 -28 -4 -28 5 0 5 -10 0 -23 -5 -14 -5
-30 1 -40 5 -10 8 -25 6 -35 -1 -9 1 -23 5 -29 5 -8 3 -13 -4 -13 -7 0 -9 -3
-6 -6 7 -7 -30 -44 -45 -44 -4 0 -8 5 -8 11 0 8 -4 8 -14 0 -10 -9 -16 -8 -26
4 -10 12 -16 13 -26 4 -11 -9 -14 -8 -14 2 0 11 -2 11 -10 -1 -5 -8 -10 -10
-10 -4 0 6 -19 11 -42 12 -23 1 -51 5 -61 8 -15 5 -17 3 -11 -7 6 -12 5 -12
-9 0 -15 12 -17 11 -17 -3 0 -10 -5 -14 -10 -11 -6 4 -7 12 -4 18 5 9 4 9 -6
0 -7 -6 -19 -9 -26 -6 -13 5 -19 -8 -15 -31 1 -5 -5 -6 -13 -3 -9 4 -18 -5
-26 -24 -7 -16 -17 -29 -23 -29 -6 0 -7 -3 -4 -7 4 -3 -1 -12 -11 -20 -10 -9
-11 -11 -2 -7 13 7 13 5 1 -9 -7 -9 -21 -17 -30 -17 -12 0 -13 -2 -3 -9 11 -7
10 -9 -3 -15 -9 -3 -14 -10 -10 -15 3 -5 -4 -13 -16 -16 -11 -4 -18 -9 -15
-12 3 -4 -2 -12 -12 -20 -9 -8 -11 -12 -4 -8 6 3 12 1 12 -4 0 -6 -6 -11 -14
-11 -16 0 -30 -41 -29 -87 0 -18 -3 -33 -7 -33 -4 0 -5 -12 -2 -26 3 -15 1
-24 -4 -21 -5 3 -10 -6 -11 -20 0 -14 -5 -28 -10 -32 -5 -3 -9 -13 -8 -22 0
-16 -61 -119 -78 -130 -5 -4 -10 -18 -10 -32 -2 -21 -5 -23 -16 -14 -12 9 -13
9 -7 0 4 -8 2 -13 -4 -13 -6 0 -8 -5 -5 -10 4 -6 3 -10 -2 -9 -22 4 -33 -3
-33 -18 0 -15 -2 -16 -10 -3 -7 12 -10 12 -10 1 0 -7 -6 -11 -15 -7 -8 3 -15
1 -15 -4 0 -6 -6 -9 -12 -8 -7 2 -12 -3 -10 -10 2 -10 -2 -10 -19 -2 -14 8
-24 9 -31 2 -6 -6 -17 -8 -26 -5 -11 5 -13 3 -7 -8 8 -12 6 -12 -8 0 -14 11
-17 11 -17 0 0 -12 -2 -12 -9 0 -11 17 -25 -3 -16 -21 4 -7 -3 -2 -14 12 -11
14 -21 19 -21 12 0 -7 -5 -10 -10 -7 -6 4 -18 1 -26 -6 -12 -10 -13 -9 -7 7 6
17 5 17 -10 6 -9 -8 -20 -11 -26 -8 -5 3 -11 -1 -15 -9 -7 -20 -26 -19 -26 2
0 15 -2 15 -14 -2 -11 -15 -17 -17 -28 -7 -11 9 -17 9 -26 0 -9 -9 -12 -9 -12
1 0 11 -3 11 -15 1 -9 -8 -15 -9 -15 -2 0 11 -31 9 -50 -3 -9 -6 -14 8 -11 28
1 5 -3 6 -9 2 -6 -3 -8 -10 -5 -15 3 -4 -2 -11 -11 -14 -8 -3 -12 -2 -9 3 3 5
1 12 -5 16 -5 3 -10 -1 -10 -9 0 -9 -5 -16 -11 -16 -6 0 -9 6 -6 14 4 10 0 12
-14 9 -12 -3 -19 0 -20 8 -1 8 -5 3 -9 -11 -6 -20 -8 -21 -9 -6 -1 20 -1 20
-17 0 -15 -18 -15 -18 -8 5 4 15 2 21 -4 17 -6 -4 -16 2 -22 11 -10 16 -11 15
-7 -5 3 -12 1 -20 -4 -16 -5 3 -9 13 -9 22 0 12 -3 13 -12 4 -7 -7 -17 -12
-22 -12 -6 0 -4 5 4 11 16 12 17 12 -35 -6 -13 -5 -16 -4 -7 2 9 7 2 13 -23
20 -30 10 -34 9 -25 -2 9 -11 7 -12 -12 -7 -29 7 -49 27 -40 38 4 5 -1 2 -10
-5 -12 -9 -18 -10 -18 -2 0 29 -12 42 -57 62 -18 7 -33 18 -33 22 0 5 -5 5
-10 2 -6 -4 -8 -12 -4 -18 3 -7 -1 -4 -9 6 -10 11 -17 14 -22 8 -4 -7 -14 -3
-27 9 -12 11 -30 20 -40 20 -11 0 -16 5 -13 10 3 6 -3 10 -14 10 -12 0 -21 6
-21 13 0 8 -4 7 -10 -3 -9 -15 -15 -5 -12 21 1 4 -6 6 -16 5 -10 0 -16 5 -14
14 3 11 -3 9 -20 -5 -16 -14 -19 -15 -9 -3 14 19 7 38 -15 38 -8 0 -14 5 -14
11 0 5 -4 7 -10 4 -5 -3 -10 -1 -10 5 0 6 -4 8 -10 5 -5 -3 -10 -2 -10 3 0 4
-9 18 -21 30 -11 12 -17 27 -14 32 4 6 3 10 -2 9 -21 -4 -54 2 -50 9 5 8 -24
39 -33 35 -3 -2 -6 2 -6 7 -1 6 -2 13 -3 17 0 3 -11 -2 -22 -13 l-22 -19 13
25 c13 24 12 24 -5 10 -10 -8 -16 -10 -12 -4 4 7 -1 18 -10 25 -14 12 -16 12
-11 -2 8 -20 -23 -19 -48 2 -16 12 -17 12 -9 -1 4 -8 -5 -1 -21 16 -16 17 -35
29 -43 26 -8 -3 -11 0 -7 6 4 7 -2 9 -15 7 -13 -3 -28 0 -36 6 -9 9 -13 8 -13
0 0 -7 -5 -9 -10 -6 -6 4 -8 10 -5 15 3 4 -4 6 -15 3 -12 -3 -20 0 -20 7 0 10
-3 10 -16 0 -12 -11 -15 -11 -12 1 2 8 -3 13 -9 11 -7 -1 -13 2 -13 8 0 5 -7
7 -15 4 -8 -4 -15 -1 -15 5 0 7 -8 11 -17 9 -10 -2 -17 2 -16 7 1 6 -16 10
-37 9 -36 0 -38 1 -28 20 8 17 8 19 -2 9 -10 -9 -19 -8 -38 5 -21 14 -24 14
-17 2 5 -8 -6 -3 -24 12 -27 23 -36 26 -53 17 -15 -8 -19 -8 -14 0 6 10 -6 15
-26 12 -5 0 -8 6 -8 14 0 13 -4 14 -20 5 -17 -9 -20 -8 -20 9 0 20 -32 37 -50
26 -6 -4 -10 -3 -9 2 3 18 -1 36 -8 30 -3 -4 -16 1 -27 10 -16 14 -18 14 -11
3 6 -9 2 -7 -8 3 -14 16 -20 17 -33 6 -8 -7 -14 -8 -12 -3 3 9 -4 14 -23 14
-5 0 -7 -5 -3 -12 5 -7 3 -8 -5 -3 -9 5 -10 10 -2 18 13 13 15 28 4 26 -25 -4
-43 2 -37 13 4 6 3 8 -4 4 -5 -3 -13 0 -15 6 -4 10 -6 10 -6 1 -1 -7 -6 -13
-12 -13 -5 0 -8 4 -5 9 5 8 -17 23 -37 25 -4 1 -12 8 -18 16 -9 13 -10 13 -6
-2 3 -9 -1 -19 -9 -22 -21 -8 -24 -8 -24 5 0 5 5 7 10 4 6 -3 10 4 10 17 0 16
-10 30 -30 42 -17 9 -28 21 -25 27 3 5 -1 6 -10 3 -14 -6 -14 -8 0 -18 11 -8
12 -15 4 -26 -9 -13 -10 -12 -5 3 5 15 -4 22 -26 18 -5 0 -7 5 -5 12 1 6 -5
11 -13 9 -11 -3 -10 2 4 17 17 19 17 21 3 21 -10 0 -17 5 -17 12 0 6 -3 9 -6
6 -3 -3 -16 5 -30 19 -14 14 -29 21 -37 17 -9 -6 -9 -4 1 8 10 13 10 17 -3 22
-11 4 -14 2 -9 -7 4 -6 -2 -3 -13 8 -14 14 -17 23 -9 28 6 5 1 5 -11 2 -17 -5
-21 -3 -18 7 3 8 -5 23 -17 34 l-23 19 20 -25 c12 -15 14 -20 4 -12 -9 6 -19
8 -23 4 -4 -4 -7 -2 -6 3 5 23 -1 46 -10 40 -5 -3 -10 -1 -10 5 0 7 -7 10 -15
7 -8 -4 -17 -1 -21 5 -4 6 -3 8 4 4 6 -3 13 -2 16 3 3 5 -4 11 -15 14 -12 3
-18 10 -14 17 4 7 -1 14 -13 17 -11 3 -23 15 -26 28 -5 19 -11 23 -36 20 -38
-5 -52 -14 -47 -28 2 -6 -6 -20 -17 -30 -12 -10 -15 -15 -7 -11 11 5 13 3 8
-10 -4 -10 -7 -20 -7 -22 0 -3 -6 -2 -12 2 -9 5 -9 3 1 -9 11 -14 11 -18 -2
-23 -9 -3 -13 -12 -10 -20 3 -8 1 -14 -5 -14 -11 0 -11 -18 1 -37 5 -9 3 -11
-6 -7 -8 3 -18 0 -23 -7 -4 -7 -3 -10 4 -5 6 4 10 -1 9 -13 -1 -12 -6 -17 -16
-13 -10 4 -13 1 -8 -11 6 -15 4 -16 -16 -6 -21 12 -21 11 -7 -6 14 -17 14 -17
-7 -7 -15 9 -24 9 -28 1 -4 -6 -14 -8 -22 -5 -8 3 -11 1 -8 -4 3 -6 0 -10 -7
-10 -9 0 -9 -3 2 -10 13 -8 13 -10 -1 -10 -12 0 -15 -7 -12 -27 2 -16 5 -34 5
-40 1 -7 10 -15 20 -19 10 -3 16 -9 13 -14 -3 -5 -1 -11 5 -15 6 -4 8 -11 4
-16 -3 -6 2 -9 11 -7 10 2 20 -4 22 -12 4 -13 3 -13 -6 0 -6 8 -11 10 -11 4 0
-17 44 -50 63 -46 11 2 17 -3 17 -15 0 -15 2 -16 10 -3 10 15 15 3 11 -23 -1
-5 8 -5 20 -2 15 5 19 4 15 -4 -4 -6 0 -11 8 -11 9 0 16 -7 16 -16 0 -11 6
-15 20 -11 13 3 20 0 20 -8 0 -8 5 -17 12 -21 7 -4 8 -3 4 4 -4 7 -1 12 9 12
9 0 13 -4 10 -10 -3 -5 1 -10 10 -10 9 0 13 5 10 10 -10 16 1 11 16 -7 10 -11
10 -14 2 -9 -7 4 -13 2 -13 -3 0 -15 13 -14 29 2 11 10 13 9 8 -5 -4 -12 -1
-16 13 -13 11 2 19 1 19 -3 -3 -21 3 -24 16 -6 13 16 14 16 9 2 -4 -12 -1 -18
9 -18 8 0 20 -7 27 -15 7 -8 17 -15 23 -15 6 0 2 7 -9 16 -10 8 -12 12 -4 8 8
-4 23 -14 33 -22 9 -8 17 -11 17 -7 0 4 8 -2 19 -13 10 -12 26 -22 35 -22 9 0
16 -7 16 -16 0 -14 2 -15 17 -3 15 13 15 12 3 -11 -7 -14 -9 -22 -5 -18 5 4
15 2 24 -5 14 -11 15 -10 1 8 -10 13 -2 10 23 -9 20 -16 37 -33 37 -38 0 -5 4
-7 9 -3 5 3 12 1 16 -5 4 -6 11 -8 16 -5 5 3 6 -1 3 -10 -4 -9 -3 -15 2 -13
19 5 54 -14 47 -25 -4 -7 2 -5 12 3 17 14 18 13 12 -4 -7 -17 -6 -17 10 -5 9
8 14 9 10 3 -4 -7 1 -18 10 -25 11 -10 14 -10 9 -2 -5 9 -2 11 8 7 9 -3 14
-10 11 -14 -3 -4 2 -11 11 -14 8 -3 13 -2 10 2 -3 5 1 9 9 9 7 0 12 -8 10 -19
-2 -10 0 -16 6 -12 12 7 41 -15 33 -27 -3 -5 6 -9 20 -9 16 0 26 -6 26 -15 0
-8 5 -15 11 -15 5 0 7 5 3 11 -5 8 -1 8 13 0 11 -6 24 -7 29 -3 5 4 2 -2 -6
-12 -12 -15 -12 -18 -1 -12 8 5 17 3 22 -5 7 -12 9 -12 9 0 0 11 4 10 16 -5 8
-10 12 -12 8 -4 -7 12 -5 13 8 3 8 -7 18 -10 21 -6 4 3 7 1 7 -6 0 -8 6 -11
16 -7 15 6 15 4 3 -11 -7 -10 -9 -15 -5 -11 5 4 15 3 23 -4 11 -9 12 -7 7 8
-6 18 -6 18 9 -1 8 -11 13 -24 9 -30 -3 -5 2 -4 11 3 13 12 18 10 33 -7 10
-11 22 -17 27 -14 6 4 8 -1 4 -11 -4 -10 -3 -15 3 -11 11 7 53 -19 45 -27 -3
-3 5 -5 17 -4 13 0 22 -4 21 -10 -2 -10 4 -12 46 -16 11 -1 18 -5 16 -9 -5 -7
40 -29 60 -29 8 0 15 -8 15 -17 0 -15 2 -16 10 -3 8 13 10 12 10 -4 0 -15 3
-16 15 -6 9 7 18 10 22 6 3 -3 1 -6 -5 -6 -7 0 -12 -8 -12 -17 0 -13 3 -14 12
-5 16 16 29 15 26 0 -2 -7 2 -12 9 -11 7 2 10 -6 8 -17 -3 -17 -1 -19 16 -10
10 6 19 7 18 3 -5 -27 1 -38 12 -23 9 12 10 11 6 -7 -4 -20 -3 -21 15 -12 18
10 19 9 8 -13 -10 -19 -10 -21 1 -10 13 12 38 18 26 5 -9 -9 33 -53 50 -53 8
0 11 -4 8 -10 -3 -5 1 -10 10 -10 9 0 13 -4 10 -10 -3 -5 1 -10 9 -10 9 0 15
-3 14 -8 -2 -4 8 -19 21 -32 13 -14 20 -19 16 -11 -6 10 -4 12 4 7 7 -5 10
-15 7 -23 -3 -8 -1 -11 4 -8 5 3 22 -6 37 -22 16 -15 33 -26 40 -25 7 2 10 -5
8 -16 -2 -12 3 -18 15 -19 10 -1 28 -10 39 -20 30 -27 45 -38 61 -41 8 -2 18
-8 21 -14 3 -5 10 -10 15 -11 5 -1 8 -6 6 -10 -1 -5 2 -6 7 -3 14 9 42 -5 34
-17 -3 -5 -1 -7 4 -4 6 4 16 0 23 -8 7 -8 16 -12 21 -9 5 3 19 -1 31 -7 13 -7
30 -14 38 -15 8 -1 24 -5 34 -9 13 -6 17 -5 12 3 -4 7 4 6 20 -3 14 -7 35 -12
45 -10 11 2 19 0 19 -6 0 -5 5 -9 11 -9 5 0 7 6 3 13 -5 8 -2 8 9 -2 9 -7 17
-10 17 -5 0 5 4 3 9 -5 10 -16 51 -23 51 -9 0 4 5 8 11 8 5 0 7 -6 4 -12 -4
-7 0 -4 9 6 12 15 18 17 30 7 11 -10 17 -9 25 6 9 16 12 16 21 3 5 -8 10 -10
10 -3 0 6 9 9 22 5 15 -4 19 -2 13 7 -4 8 3 6 18 -4 19 -12 27 -13 33 -4 5 8
3 10 -7 4 -8 -5 -10 -4 -6 0 19 22 47 12 30 -11 -5 -5 0 -1 10 9 10 12 17 14
17 7 0 -9 4 -9 17 1 15 12 16 12 8 -1 -7 -13 -6 -13 7 -2 9 7 20 12 24 11 25
-4 36 2 30 19 -5 14 -4 14 9 -2 11 -14 15 -16 15 -5 0 12 2 12 10 -1 9 -13 10
-13 10 0 0 13 1 13 10 0 9 -13 12 -12 25 4 14 18 15 18 15 2 0 -9 5 -14 10
-11 6 4 7 11 4 17 -4 6 2 6 15 -1 18 -10 20 -9 14 6 -6 16 -5 16 11 4 12 -11
20 -11 28 -3 8 8 15 8 24 1 8 -7 14 -6 20 2 5 8 3 9 -6 4 -9 -5 -11 -4 -6 4 6
9 11 9 22 0 7 -6 11 -16 8 -21 -4 -6 5 -3 19 6 20 13 26 14 30 4 4 -9 6 -8 6
3 1 14 7 16 36 9 19 -4 33 -4 30 0 -3 5 -1 11 5 15 5 3 10 2 10 -3 0 -5 7 -9
15 -9 11 0 12 4 4 14 -16 18 -4 16 15 -3 15 -14 16 -14 16 1 0 9 4 14 9 10 5
-3 12 -1 16 5 4 6 11 8 16 5 5 -4 9 -1 9 6 0 8 5 7 17 -2 10 -8 14 -9 10 -2
-8 13 9 27 33 28 8 0 14 6 12 13 -1 8 2 11 8 7 6 -3 8 -10 6 -14 -3 -4 4 -8
15 -8 17 -2 18 0 4 13 -23 23 -18 26 10 8 24 -16 25 -15 25 4 0 12 5 24 11 28
8 4 9 -1 5 -17 -3 -13 -3 -18 0 -11 3 6 10 10 15 7 5 -4 6 2 2 11 -5 13 -3 16
10 11 11 -4 14 -2 10 9 -3 9 0 14 8 12 8 -2 13 2 12 7 -1 6 10 12 25 13 14 1
29 8 34 15 6 9 8 9 8 0 0 -7 5 -13 11 -13 5 0 8 4 5 9 -3 5 8 11 24 13 25 4
28 2 17 -10 -10 -13 -8 -14 18 -8 20 4 25 4 16 -3 -36 -24 22 -49 59 -26 8 5
18 10 21 10 14 0 70 57 72 73 0 12 9 18 23 18 13 0 20 -4 18 -8 -3 -5 -9 -6
-14 -3 -5 3 -11 1 -14 -4 -4 -5 -2 -12 3 -15 12 -8 44 30 37 43 -4 5 -2 12 3
15 5 4 13 1 17 -5 5 -8 3 -9 -6 -4 -9 5 -11 4 -6 -4 4 -6 11 -9 15 -7 12 7 7
42 -8 60 -16 19 -1 21 19 4 12 -11 12 -10 2 3 -9 12 -9 19 1 29 10 12 9 12 -5
2 -11 -9 -18 -10 -23 -2 -4 6 -3 10 2 9 12 -3 46 13 61 28 8 7 19 10 25 6 7
-4 5 2 -3 12 -9 12 -10 16 -2 11 7 -4 19 0 30 11 9 11 13 14 9 7 -4 -7 -3 -15
3 -19 6 -4 10 -3 9 2 -5 22 14 43 27 32 12 -10 13 -9 8 5 -4 11 -1 16 11 16
10 0 13 4 9 13 -5 7 0 6 11 -3 10 -8 16 -10 13 -5 -7 12 17 37 26 28 3 -4 6
-1 6 5 0 7 7 12 15 12 8 0 15 5 15 11 0 6 7 9 14 6 11 -4 13 -1 9 10 -5 12 -2
15 10 10 9 -3 17 -2 17 4 0 6 5 7 10 4 6 -3 10 1 10 11 0 14 2 15 17 3 14 -12
16 -12 8 0 -6 11 -4 13 8 8 11 -4 20 1 28 14 9 17 13 18 27 7 12 -10 14 -10 8
0 -4 7 -2 12 4 12 6 0 8 5 5 10 -4 6 -1 9 7 8 7 -2 12 3 10 10 -1 8 2 11 9 6
6 -3 15 -1 19 7 7 10 12 10 26 -2 15 -12 17 -12 9 0 -6 11 -4 13 10 7 15 -5
16 -4 5 9 -12 14 -10 15 14 11 14 -3 24 -1 21 4 -3 5 4 11 15 15 11 3 20 11
20 16 0 6 -13 1 -29 -11 -21 -14 -32 -17 -37 -9 -4 7 -3 9 3 6 6 -4 22 4 37
18 14 13 26 20 26 14 0 -6 6 -6 19 0 10 6 22 7 27 3 5 -4 3 0 -4 10 -11 14 -9
16 16 14 21 -1 29 2 28 14 -1 9 7 15 21 14 13 -1 20 2 18 6 -3 5 1 11 7 14 7
3 3 3 -9 0 -13 -3 -23 -2 -23 3 0 8 15 12 57 15 8 1 9 7 3 18 -8 14 -5 17 15
15 20 -3 23 1 20 23 -2 15 -2 21 1 15 8 -20 24 -15 24 6 0 11 6 18 16 17 9 0
19 6 21 14 4 13 3 13 -6 0 -7 -9 -11 -10 -11 -3 0 6 5 15 10 18 6 4 7 12 3 18
-4 8 -1 7 9 -1 14 -11 18 -10 28 9 10 17 10 20 -2 13 -10 -6 -11 -5 -1 7 10
12 10 18 0 29 -9 10 -9 11 0 6 10 -5 11 -1 4 17 -6 14 -7 28 -3 32 4 4 -3 3
-15 -4 -49 -25 -45 4 7 53 35 33 39 41 28 54 -9 11 -9 14 -1 9 8 -5 11 0 10
13 -1 11 -5 20 -9 20 -4 0 -8 5 -8 11 0 5 6 7 13 3 9 -6 9 -4 1 7 -6 8 -10 23
-8 34 3 11 5 28 6 37 2 19 28 34 28 16 0 -6 9 1 20 15 12 15 20 40 20 62 0 22
4 34 10 30 6 -4 1 10 -10 31 -39 68 -67 104 -76 96 -4 -4 -3 0 4 9 10 14 10
18 -3 23 -12 4 -13 11 -7 23 12 22 4 45 -11 36 -7 -4 -6 1 2 10 9 11 10 17 2
17 -6 0 -10 3 -10 8 3 19 -2 33 -11 27 -5 -3 -10 0 -10 9 0 8 -6 17 -12 19 -9
4 -8 6 2 6 9 1 5 6 -10 14 -14 8 -24 19 -22 25 3 15 -14 16 -23 2 -4 -7 -12
-7 -24 0 -10 5 -21 6 -25 3 -3 -3 -6 -1 -6 7 0 9 -9 11 -30 7 -17 -4 -30 -2
-30 4 0 6 -6 6 -18 0 -13 -7 -22 -7 -29 0 -8 8 -13 7 -18 0 -4 -8 -11 -7 -20
3 -9 8 -24 12 -36 9 -17 -5 -20 -3 -14 8 7 12 6 12 -7 1 -10 -8 -19 -9 -22 -3
-4 6 -18 6 -39 0 -39 -11 -39 -11 -33 0 3 5 -3 11 -14 14 -11 3 -18 2 -15 -3z
m409 -843 c-3 -9 -11 -14 -17 -10 -6 4 -7 1 -3 -6 5 -7 0 -19 -10 -27 -11 -9
-14 -13 -7 -10 7 4 9 -1 6 -13 -3 -13 -10 -18 -21 -14 -11 5 -14 2 -9 -10 3
-9 2 -16 -3 -14 -6 1 -16 -9 -23 -23 -9 -17 -20 -24 -36 -23 -12 2 -20 -1 -17
-5 2 -4 0 -14 -5 -22 -8 -12 -12 -12 -16 -2 -4 10 -8 9 -18 -5 -8 -11 -10 -22
-4 -29 6 -7 -1 -10 -22 -9 -23 1 -29 -2 -24 -14 3 -8 3 -12 -1 -9 -9 10 -33
-15 -26 -27 2 -5 -1 -4 -8 2 -11 10 -17 10 -29 0 -14 -10 -14 -10 -4 4 7 9 9
20 5 24 -4 5 -1 5 5 1 8 -4 25 6 43 24 16 17 30 28 30 25 0 -3 6 0 14 7 8 7
12 16 9 21 -4 6 12 11 30 8 4 0 7 5 7 13 0 8 26 38 58 67 31 28 57 56 57 61 0
5 8 15 17 22 10 7 16 15 14 18 -1 3 1 2 6 -2 5 -3 6 -14 2 -23z"/>
<path d="M5903 2205 c0 -14 5 -17 23 -14 14 2 22 -26 13 -38 -9 -10 -16 -9
-34 3 -22 14 -24 14 -33 -3 -5 -10 -7 -24 -5 -30 6 -16 -2 -16 -27 -3 -13 7
-21 7 -25 0 -3 -5 -1 -10 4 -10 6 0 10 -6 9 -12 -2 -7 3 -12 10 -10 6 1 13 -2
13 -8 3 -20 4 -25 13 -38 5 -9 2 -20 -9 -30 -10 -10 -15 -11 -10 -3 4 8 2 17
-6 23 -10 7 -9 8 6 3 15 -5 17 -3 8 6 -16 16 -30 4 -28 -23 2 -34 21 -32 51 6
21 26 31 32 41 24 7 -5 10 -15 7 -20 -4 -6 3 -5 15 2 23 12 18 35 -6 26 -8 -3
-11 -1 -8 4 4 6 3 9 -2 8 -16 -6 -52 39 -40 51 8 8 7 11 -3 11 -11 1 -10 4 3
11 24 14 34 4 17 -16 -24 -29 -4 -25 30 5 41 36 52 39 20 5 -16 -17 -19 -25
-9 -25 8 0 10 -3 4 -8 -12 -9 -18 -32 -7 -32 12 0 38 20 25 20 -6 0 -10 7 -9
17 3 19 45 55 56 48 5 -3 12 0 16 6 5 9 0 10 -15 6 -18 -4 -21 -2 -17 10 5 13
4 14 -8 4 -18 -15 -40 -5 -32 16 3 8 2 11 -3 8 -5 -3 -12 -1 -16 5 -9 15 -32
12 -32 -5z"/>
</g>
</svg>
