<?xml version="1.0" encoding="UTF-8" standalone="no"?>
<svg
   version="1.0"
   width="1024.000000pt"
   height="1024.000000pt"
   viewBox="0 0 1024.000000 1024.000000"
   preserveAspectRatio="xMidYMid meet"
   id="svg16"
   sodipodi:docname="よ.svg"
   xmlns:inkscape="http://www.inkscape.org/namespaces/inkscape"
   xmlns:sodipodi="http://sodipodi.sourceforge.net/DTD/sodipodi-0.dtd"
   xmlns="http://www.w3.org/2000/svg"
   xmlns:svg="http://www.w3.org/2000/svg">
  <defs
     id="defs20" />
  <sodipodi:namedview
     id="namedview18"
     pagecolor="#ffffff"
     bordercolor="#666666"
     borderopacity="1.0"
     inkscape:pageshadow="2"
     inkscape:pageopacity="0.0"
     inkscape:pagecheckerboard="0"
     inkscape:document-units="pt" />
  <metadata
     id="metadata2">
Created by potrace 1.16, written by Peter Selinger 2001-2019
</metadata>
  <g
     transform="translate(0.000000,1024.000000) scale(0.100000,-0.100000)"
     fill="#000000"
     stroke="none"
     id="g14">
    <path
       d="m 4044,9949 c -165.9696,-213.4501 -38.669,-61.5143 -202,-324 -42.0148,-140.88 -240.8105,-518.048 -214.5,-391.25 -109.1991,-55.4526 -162.7681,-445.1657 -153.5,-340.75 -37.8578,-52.411 -77.7667,-295.199 -34,-243 19.5763,12.7796 -148.3238,-526.5747 -63,-228 2.9337,-62.3016 -104.5883,-258.5758 -46,-163 -44.8466,-185.4818 -46.0714,-299.288 -78.25,-395.25 -0.9977,-47.943 -14.5838,-351.7185 -13.75,-247.75 -45.659,-68.8931 -50.7351,-248.9488 -32,-174 -19.1465,-43.7108 -67.6173,-322.8204 -34,-212 5.0466,-105.1754 -59.4285,-344.0562 -23.125,-249.25 41.1083,-51.1944 -40.5879,-642.3626 7.125,-410.75 -5.12,-109.2846 96.5313,-471.5236 46,-359 2.7227,-10.6344 153.2546,-288.5515 67,-253 -78.4864,-29.7569 -22.6992,-209.2144 -8,-162 22.7192,-94.5369 83.3589,-264.0026 98,-336 1.8272,-51.0807 120.7375,-274.8787 69.125,-233.125 46.4405,-115.1082 126.4691,-344.0956 90.875,-266.875 82.1272,-264.3104 9.5388,-95.5055 112,-362 44.2123,-67.0763 146.9824,-314.4151 100.25,-254.125 51.7544,-97.5532 162.7265,-283.7061 106.125,-195.75 30.8432,-101.3206 189.1606,-390.6675 145.625,-302.125 68.142,-124.1555 174.9646,-359.1227 122.125,-251.875 72.9852,-90.7217 213.8073,-395.489 156.875,-290.125 88.0401,-118.4145 -224.9162,-160.2793 -77,-205 -107.8602,25.6835 -354.509,4.2009 -277,2 -35.4993,-2.2596 -303.8442,-36.9211 -229,-29 -87.3077,-9.0084 -355.8309,-19.9968 -265,-42 -7.1994,-56.9512 -268.7878,-110.7558 -194,-58 -152.2312,-69.9007 -459.6811,-227.3138 -338,-159 -106.8872,-21.7567 -378.364,-233.7559 -280.375,-184.125 C 2559.7671,2572.6865 2377.2408,2390.3444 2416,2456 c -155.8906,-158.5711 -109.3,-212.1533 -195.5,-256.875 -70.9209,-366.0332 -106.6281,-470.4642 -66.4844,-565.9844 24.0052,-18.3605 128.4549,-250.5357 105.7344,-224.7656 29.1057,-135.0559 6.195,13.2681 82.25,-166.375 98.1882,-98.2809 25.5702,-201.4263 204,-204 55.3969,-0.3327 103.8643,-3.6906 102.875,-15.75 76.6765,-38.86842 396.531,15.4559 306.125,0.75 62.5488,-1.2039 274.2603,94.9084 244.75,47.125 49.2394,20.6915 219.133,-15.1746 147.75,-5.875 C 3367.239,993.50292 3166.1121,717.2149 3207,794 3141.8404,668.83712 3112.8668,546.42403 3075.375,392.25 3043.0906,267.66157 3382.3002,362.32307 3310,245 c 158.5176,6.85833 334.3061,87.7549 284,79 80.935,30.11969 313.3934,73.80479 177,62 15.8078,38.23736 230.1643,65.22656 134,24.75 85.3816,-1.07282 340.9142,159.42727 219,79.25 -28.2797,-18.96307 218.3011,87.78007 180,123 66.0368,88.95763 144.4328,128.07823 102,68 74.8694,-48.86784 270.1585,53.93328 234.125,48.75 43.5261,51.99398 204.0821,96.43929 151.875,71.25 96.4418,-26.17532 153.4338,123.89095 194.25,61.5 -0.2827,49.35301 144.6526,151.1189 136.75,124.5 97.6145,97.6516 229.6623,310.5176 161,189 47.2078,115.9142 163.4465,317.7294 129.875,210.5 32.3798,25.0085 125.4628,255.4853 96.125,187.5 43.3443,63.1773 118.9716,261.8477 97.875,197.75 -3.8638,36.8343 48.7445,216.6994 37.125,177.25 59.2979,53.0757 59.5499,45.4428 78,46 22.4859,101.9491 -28.6559,224.0763 51,114 -97.9904,52.5821 55.5213,252.0462 -16,155 49.1003,57.3679 -32.1542,296.8562 -58.25,204.125 55.8828,40.0778 -20.3208,250.2424 -17,219.75 -54.2074,154.0379 -223.9442,530.3487 -166.75,402.125 -38.2704,70.903 -133.7628,260.9103 -103,197 -107.0981,243.2041 -280.1588,455.3969 -435,668 -24.4045,76.0505 -174.9121,362.9823 -169.875,282.625 -37.9586,80.393 -108.473,271.9712 -126.125,223.375 -21.2912,166.1014 -72.5854,461.7841 -58,344 -49.5847,131.0235 53.7796,417.8764 -194.75,377.75 -123.8602,63.9449 -194.6918,271.5126 -108.25,233.25 -66.8783,138.0535 -296.1587,554.2507 -228,437 -12.0259,101.8945 -89.7768,342.7483 -79,252 -16.1846,114.3795 -111.6452,448.2067 -96,379 -37.148,90.3691 -131.611,416.8155 -79,326 -44.4049,106.3703 -89.708,624.8406 -80,454 -6.4879,210.9645 -12.9991,430.9685 32.375,610.75 -16.9384,57.3321 27.767,316.6751 26.5,236.625 48.3689,16.7388 109.9986,267.6977 62.125,198.625 -8.7666,122.925 -63.8906,-81.6734 -85.875,-84.875 -22.887,-81.3532 -29.3458,-29.4219 -71.125,-11.125 51.8558,64.9679 98.6594,103.3535 67,108 77.3485,145.2298 55.99,36.0977 33,30 123.6408,-44.063 70.8374,-13.0261 86,99.5 -148.9756,-27.0666 13.8367,49.0083 -30.125,101.75 114.3428,158.9282 23.9087,-35.8251 47.125,0.75 -15.2582,-118.5534 141.828,139.0642 106,73.75 74.5134,-4.5386 122.9047,325.5311 127,261.25 -16.3222,28.0965 -93.8688,113.6099 -25,183 24.4506,156.6557 -9.5315,436.9814 14.625,286.5 58.9126,82.925 113.7417,260.0745 81.375,181.5 75.2203,200.5675 50.6929,289.2391 54.25,236.5 39.3255,180.8159 -62.2291,-13.8577 -75.25,10.5 -30.2902,133.7019 -110.4302,244.57 -79.875,136.875 56.9763,44.5628 -62.0991,28.4094 -85.125,25.125 z m -244,-663 c 113.3004,-41.4573 118.0901,-175.41 50.0322,-116.1794 -68.0684,-73.0209 210.9988,-53.7664 55.9678,-89.8206 -80.5334,1.3794 5.5578,-61.6451 14,-150 -78.0687,75.3455 -50.4595,-52.8921 -71,115 -68.6186,2.1099 82.6517,-313.0888 25.125,-178.5 64.6461,-34.9559 194.2563,30.5688 108.875,25.5 -60.1552,76.037 316.6789,-44.6695 40.125,-40.25 95.0613,-119.5821 -16.3332,64.8833 -40.125,-25.75 98.302,-24.4204 40.0409,-92.9805 -71,-55 -21.38,-86.0238 -145.3355,-121.1406 -52,-131 -106.5369,-41.9952 -159.5004,-79.4384 -116,-46 -46.9085,22.7278 104.8725,101.499 19.625,96.5 86.6969,146.8243 70.7906,211.6355 31.375,109.5 54.1945,1.4763 -28.9955,106.8034 -30,149 1.6449,64.0703 -68.1057,158.8043 -28,155 54.1249,115.9365 25.2607,282.7754 47,174 17.9867,38.3783 -6.2565,80.3732 16,8 z m 575,-4086 c -15.3784,-97.2292 -46.2001,-227.9994 40,-200 67.8699,-45.9032 -22.5838,-122.2617 -12,-147 -37.7069,-179.5666 -24.303,154.5736 -20,130 8.2547,73.8266 -44.5758,146.4955 -8,217 z M 3683,2401 c 91.4457,-9.0287 230.0346,-92.6001 217.625,-42.125 79.3635,-10.2766 190.5181,-72.7834 129.375,-51.875 137.9536,-37.095 356.2204,-26.9264 262,-58 33.0901,-41.6177 161.7777,-52.8436 118,-45 112.6981,-29.3313 133.4675,73.4841 210.125,41.25 51.0759,69.654 -43.1913,-300.2194 69.875,-192.25 -68.1494,-128.5083 -338.7556,-500.919 -206,-361 -112.2945,-90.2724 -196.6694,-76.1773 -182,-60.125 -36.7056,94.9365 -349.1879,-48.9107 -252.75,85 -62.9397,-9.8196 -341.1824,160.8176 -263.25,131.125 -48.8716,26.0834 -287.7467,19.4158 -225,53 -111.1658,-67.8766 -302.0061,-401.5749 -328,-197 46.5144,-82.9519 -103.6629,-126.0381 -74,-116 -15.7681,25.7237 14.7062,-17.2264 -68,36 68.6879,-165.844 -17.095,0.2655 -42.75,13.75 0.2974,64.5731 -145.5203,266.9791 -98.25,157.25 -105.8651,102.4406 -10.7237,237.3854 -51.75,193.125 0.1349,3.7054 302.1275,182.9748 216.75,172.875 104.4583,133.3857 224.3988,205.992 190,199 70.4535,4.0658 186.9919,-40.0774 135,0 79.2613,-30.4992 222.6221,41.1817 211.7635,25.3942 -47.726,79.6762 -0,-8.5085 31.2365,15.6058 z"
       id="path4" />
    <path
       d="m 3827,8843 c 164.3339,-16.4001 -190.3461,-204.9685 -80.25,-156.5 -111.7002,-186.4897 388.0967,216.5902 124.25,-18.5 -24.777,117.8352 62.0054,141.5669 52,147 97.4575,34.4666 -83.6913,49.1213 -96,28 z"
       id="path6" />
    <path
       d="m 8328,8372 c -84.1671,-17.6061 -306.2871,-171.9092 -308.125,-102.375 76.735,-146.0529 37.0351,-641.0858 9.4062,-469.1406 -64.8423,-47.0545 -290.0419,14.5937 -248.9062,7.7656 -69.6824,-18.6791 -223.2414,-156.1183 -154.25,-72.625 C 7547.7742,7605.6164 7443.9424,7182.9452 7448,7350 c -33.0213,-130.1891 -359.1533,-341.2323 -258,-310 -99.9187,0.9824 -459.4184,-26.8337 -375,-29 -42.2426,25.9509 -280.0687,-105.7766 -132,-14 -94.1816,49.2917 -209.4098,59.3295 -193,51 -71.6242,72.5744 -130.8424,166.5473 -120,43 -80.283,95.2303 -325.408,163.9704 -220,109 -89.1722,37.5462 -328.3517,170.8747 -232.375,136.5 11.7774,85.9796 12.4616,63.9248 -101.625,73.5 32.0227,100.8633 -147.4976,26.5172 -116,60 -177.4995,126.3486 -354.6251,155.4293 -329,146 -69.1607,37.4109 -280.1305,114.1705 -217,93 -91.6581,5.6541 -289.9886,145.5497 -194,111 6.1022,55.1319 -122.492,18.0061 -178,68 93.6302,-28.642 -269.9998,207.0324 -167,145 -10.817,33.9669 -228.2038,232.678 -137,137 -52.6096,113.4079 -144.9859,53.9851 -78,5 -68.0687,47.7533 -49.0775,139.8168 0,75 -90.8272,104.3152 -101.5777,133.9766 -136,-16 -30.9986,-191.9972 -173.1633,-216.7593 -129,-188 -122.4132,-46.3868 93.9947,-244.7468 80,-206 0.1269,2.5031 242.7592,-151.0415 181,-129.375 68.6065,19.2417 376.8692,-159.8709 291,-126.625 60.4424,-70.8985 258.3347,-193.5442 202.625,-144.625 142.7099,-85.9891 392.5991,-201.0502 284.125,-152.375 134.9886,-62.2749 559.3858,-273.3471 406.25,-222 195.2177,-114.2159 359.8588,-353.9 590,-470 132.8584,-91.7456 561.6354,-92.5624 451,-105 92.5675,43.2873 340.3339,100.8703 228,39.75 63.956,-11.1744 257.1234,-18.2413 211,5.25 129.125,39.3105 368.1378,77.4852 359,87 112.1603,58.4 282.2127,177.5041 311,78 47.4706,-7.452 161.4317,74.8453 112,49 100.0352,23.521 52.8605,165.7439 63,112 48.4696,-53.883 183.8036,132.1408 102.625,89.875 189.005,120.1296 316.2441,198.0731 325.375,196.125 84.7644,41.2786 164.3533,89.0839 138,76 101.3295,38.8061 330.4331,215.9292 134,159 77.7509,100.1569 226.0436,223.2586 178,198 -23.0198,-116.3137 -176.1942,-286.3616 -116.875,-193.125 17.7641,-19.8612 163.7875,285.7413 158.875,189.125 -63.8347,62.8259 38.5769,227.7677 33,205.875 -27.6113,125.024 -159.5014,468.0473 -16,359.125 19.8629,191.7651 -524.8838,248.3866 -372,234 -31.7864,-13.0157 -26.1294,2.1739 -142,-3 z"
       id="path8" />
    <path
       d="m 5792,2278 c -171.4255,-94.7659 180.7325,-262.3778 -92,-333 -102.3163,-40.7648 53.6135,39.5226 62,-55 -52.37,71.0433 112.2174,212.062 55,131 82.2517,32.3815 57.918,202.1267 79.875,105.5 -40.7351,9.2785 -134.4654,16.6003 -96.875,8.5 4.1624,55.4679 26.0042,169.938 -32,93 -38.4888,-33.6883 192.8742,-66.2613 187,-48 25.2021,-3.8561 -146.3224,126.6283 -163,98 z"
       id="path10" />
    <path
       d="m 5960,2160 c -94.1282,-202.5728 48.0153,-306.4381 37.25,-168.375 -32.1164,-24.9989 -134.5906,26.7262 -97.25,13.375 51.8477,6.6026 -66.0603,-306.9497 -123,-148 8.3213,-73.3685 120.5326,-89.5225 78,-77 -34.796,33.061 -66.0313,64.8104 -34.75,91.375 73.3109,65.7776 59.2862,-116.7356 74.75,-21.375 -23.4708,-25.6645 -215.8984,-54.5184 -110,-99 -34.1157,69.6925 -120.4284,-82.8013 -142,42 110.4437,-52.5469 208.2106,20.1986 95.625,23.5 -35.2141,-125.9064 178.5301,-158.4968 85.375,-96.5 6.0741,-76.856 190.033,-103.5862 194,-141 45.8938,-31.7823 142.4809,-138.5854 159.25,-104.25 -69.4281,184.7531 989.5606,-1019.05741 218.75,-176.75 70.2138,-49.8441 -2.4276,56.357 131,-111 51.5103,-76.4732 146.6464,-255.68865 119,-197 83.4635,-83.64682 166.7573,-313.00272 114,-230 35.7801,-79.6854 257.1072,-372.52521 193.625,-317.375 34.8769,-117.04614 141.052,72.74468 107.375,47.375 -0.1325,72.32882 -46.7613,153.81393 -50,163 -79.1245,78.78144 152.265,92.90494 22,152 70.8164,32.10291 74.2045,225.2487 81,143 -80.0325,113.1412 -80.257,105.5593 10,144 79.5253,18.7557 80.7639,-122.81385 86,-87 -4.1205,-42.53456 124.4567,75.7273 128,21 63.2196,85.8266 -128.5076,152.1397 -116,156 -48.7429,87.4468 -305.4698,275.1902 -212,200 -122.9472,85.6332 -310.9028,279.2265 -236,196 -101.8153,84.4851 -369.1072,308.2417 -287,249 -8.7668,12.4564 -373.5113,266.9957 -222,153 -71.0374,37.3876 -157.431,130.1352 -181.25,102.5 5.3016,35.4004 -87.7597,81.2238 -123.75,77.5 z m 1042,-988 c 19.4445,-63.4499 -64.9517,-141.6759 10,-110 67.3971,-264.55008 55.7041,-101.84847 -40,-37 46.5042,50.852 -20.439,79.6718 30,147 z"
       id="path12" />
  </g>
</svg>
