<?xml version="1.0" encoding="UTF-8" standalone="no"?>
<svg
   version="1.0"
   width="1024.000000pt"
   height="1024.000000pt"
   viewBox="0 0 1024.000000 1024.000000"
   preserveAspectRatio="xMidYMid meet"
   id="svg12"
   sodipodi:docname="り.svg"
   xmlns:inkscape="http://www.inkscape.org/namespaces/inkscape"
   xmlns:sodipodi="http://sodipodi.sourceforge.net/DTD/sodipodi-0.dtd"
   xmlns="http://www.w3.org/2000/svg"
   xmlns:svg="http://www.w3.org/2000/svg">
  <defs
     id="defs16" />
  <sodipodi:namedview
     id="namedview14"
     pagecolor="#ffffff"
     bordercolor="#666666"
     borderopacity="1.0"
     inkscape:pageshadow="2"
     inkscape:pageopacity="0.0"
     inkscape:pagecheckerboard="0"
     inkscape:document-units="pt" />
  <metadata
     id="metadata2">
Created by potrace 1.16, written by Peter Selinger 2001-2019
</metadata>
  <g
     transform="translate(0.000000,1024.000000) scale(0.100000,-0.100000)"
     fill="#000000"
     stroke="none"
     id="g10">
    <path
       d="m 6300,10054 c -111.6573,-67.8938 -197.2312,-350.4098 -128,-194 -87.6868,-98.242 -133.7965,-350.0013 -113,-264 52.0234,10.231 -30.788,-141.5977 -8.75,-289.125 14.6002,61.9533 45.6316,240.9362 70.75,95.375 29.5493,14.4489 22.07,-140.4386 -32.9531,-120.75 -18.6789,-225.3708 -94.2657,-158.8497 -74.0469,-61.5 -48.6535,-206.2785 -32.7623,-837.3576 -22.5,-642.375 27.9391,-135.8495 -9.109,-165.6094 41.5,-265.625 -4.0507,-112.6594 50.2373,-491.9511 42,-428 20.2539,-146.1243 273.0802,-532.1025 202.625,-381.375 C 6293.9225,7426.3404 6498.582,7062.0157 6450,7184 6578.6103,7023.6089 6602.1753,6526.9724 6592.375,6752.875 6692.3117,6584.3985 6707.4572,6385.1195 6780,6205 6856.2578,5917.8936 6761.0647,5646.1243 6593,5413 6424.2334,5116.9457 6304.3228,4777.344 6252.875,4433.875 6183.6526,4096.1308 6144.0183,3645.6214 6155,3713 c -20.5392,-90.4165 -107.3013,-570.6378 -79,-428 -13.1673,-163.9407 -41.5669,-394.3759 -44,-375 -97.1965,-462.3637 177.3347,994.1382 -43.875,-219.5 -25.3827,-69.7349 -29.8721,-234.6464 -26.125,-162.5 -54.1202,-132.4109 -44.2924,-274.6226 -143,-372 -9.9398,-75.3449 -104.357,-221.6013 -84.375,-181.25 C 5679.3143,1941.5454 5603.5089,1851.0268 5615,1859 c -127.729,-140.6878 -230.1809,-279.2702 -214,-246 -43.842,-29.8631 -345.2772,-207.7279 -228,-158 0.5411,-188.9897 22.0589,-154.1379 -43.375,-74.625 -25.1918,-82.4204 -141.4648,-106.4241 -114.0625,-77.6094 C 5013.656,1183.6576 4803.7965,1034.1301 4927,1133 c 18.8185,-32.5021 37.9114,-245.56494 5,-156 -113.3089,-136.38184 -20.9312,-19.75458 45,-149 -93.8356,-46.82471 -28.9915,-131.32041 -74.875,57 -11.6533,-161.13546 -129.9955,-217.59627 -4.125,-229 8.0329,-80.68767 143.1549,84.70655 77,-57.75 -8.1835,-43.44425 -109.1899,-108.61603 -66,-46.875 -29.4733,87.50496 -44.4376,207.72223 -48,142.625 53.9507,-4.57916 -23.1766,129.82493 29,67 -51.2477,155.92108 -87.5167,-148.06237 -68,-61 -69.9707,-65.51244 -132.963,45.11387 -59,101 62.9749,124.24292 -78.3641,100.44894 -22,60 -79.206,-29.60232 148.369,43.13539 83.25,34.5 38.4371,133.5111 83.5141,207.8642 64.75,186.5 66.4336,62.8949 -160.2384,-178.321 -137.625,-111.125 -5.6174,38.0034 -45.1875,-68.63312 -57.375,-48.875 -99.4719,-26.12355 -12.4878,-138.46698 -99,-114 121.3115,64.12562 -13.1,45.01155 -30,-39 -46.0023,122.85069 -154.426,22.16623 -109,20 -22.8791,89.51696 -175.5305,114.69111 -156,146 -6.0722,-89.5369 90.7821,-391.90979 68,-243.25 70.2624,-13.39591 -102.2835,-242.75567 -59.9375,-194.89062 C 4273.7614,353.55311 4461.8731,578.58954 4386,504 4382.7764,406.57466 4370.46,301.24817 4457.625,416.25 4406.8858,330.85406 4362.1274,236.81148 4399,285 c 76.4439,-89.58778 177.615,-57.52222 91,-10 10.856,82.24322 64.1849,-52.60794 65,7 56.985,17.43365 118.4129,207.84039 112,137 33.3261,60.10467 69.3709,-134.56941 49,-101 56.2871,-11.44117 306.2298,251.13381 234,180 101.7868,70.86883 195.914,133.61723 137,108 179.4235,174.25795 -98.244,-79.49568 153,114 51.1482,8.76076 128.945,123.1852 124,99 68.5748,-5.64192 255.5155,78.97667 208.25,92.5 8.2927,72.64803 138.4813,226.2477 128.625,147.125 58.4634,8.4567 327.1906,190.2505 193.125,112.375 65.4299,61.5636 212.7698,125.6952 132,98 96.3804,19.7286 112.746,135.3934 114.875,99.25 48.1807,-30.2637 219.5475,110.9732 173.125,85.75 43.7391,21.3479 192.9533,154.1854 150,127 79.7237,85.7399 165.1784,185.3376 125.625,161 -24.5001,89.9081 24.5675,196.3921 45,147.75 32.7,41.5052 183.4949,291.0119 128.375,220.25 16.6419,105.8372 57.6132,204.2822 62.875,229.625 13.0704,104.6412 89.5442,352.0206 72.125,252.375 73.6674,157.799 138.7789,474.4599 102,373 18.3727,84.8041 17.3521,276.0038 46,211 42.1514,117.3686 58.3648,461.6869 50.5,329 75.9497,252.0769 48.0585,502.205 138.5,755 49.5726,112.9561 118.6081,450.6632 93,328 123.0118,55.0988 128.9086,402.9883 122.5,329.5 61.3432,97.2063 168.3772,370.8822 127.5,268.5 66.9604,56.3172 156.2396,290.5265 122,224 -2.4482,23.6031 10.4462,177.2828 37,137 134.151,303.2916 -34.9853,22.7901 85,309 9.3318,85.9644 3.9422,309.5511 3,192 13.3775,243.5499 -83.2821,163.4008 -20.125,326.75 -68.8817,156.6975 -107.3923,271.4809 -166.875,425.25 -36.2282,102.9738 -192.0715,487.7879 -151,364 -66.5443,95.3256 -129.2188,352.6909 -116,266 0.8301,149.4371 -64.0038,429.6899 -39,330 -81.1923,133.252 73.9368,-1.728 32,38 -3.5573,3.6896 78.0177,135.6106 135,3 99.39,155.8049 -118.6969,130.6012 -86,141 28.0399,42.8199 -21.731,-29.1 -68,28 -42.5519,64.7439 -117.106,-12.6583 -65.5,80 5.1039,-54.5698 31.372,-253.7886 -118.5,-94 -112.3198,42.7662 -199.6024,362.1708 -134,249 42.3672,124.8573 235.7976,-84.875 229.875,-10.75 -14.9245,53.7401 24.7012,145.9031 5.125,141.5 61.5538,216.6822 92.8147,318.6577 -28.5781,218.75 24.5194,203.1868 -224.2722,813.2522 -166.4219,613.5 -72.4351,155.6416 -112.429,300.3422 -202,462 -61.4393,99.3669 -331.7946,327.7165 -237.625,322.625 -141.9664,50.91 -343.9115,150.252 -239.375,70.375 -28.3098,2.042 -56.5063,38.46 -88,31 z m 167,-759 c -31.7992,-84.9354 -10.1232,-14.7961 -89,-90 -147.9594,53.2485 -137.9795,10.7552 -139,-10 79.5716,-43.9375 -185.2329,141.6658 29.1094,36.4375 89.2884,-18.9584 165.2764,66.8246 198.8906,63.5625 z m 683,-1400 c -68.8682,-83.8474 561.2231,-251.8967 100,-135 82.7458,-109.5521 66.8471,-303.9926 60,-205 -97.2668,131.2561 -165.1891,205.3448 -156.625,218.125 -78.6783,-16.2301 6.0761,254.2936 -3.375,121.875 z M 4751,656 c 4.8605,32.22521 -53.608,-90.68744 101,-124.25 -22.5211,-35.11805 -154.656,-5.24011 -132,8.25 -122.0243,-130.60599 35.6901,166.25419 31,116 z"
       id="path4" />
    <path
       d="m 2734,9562 c -152.9928,-60.3232 -226.231,-362.469 -206,-257 2.1534,-70.9375 -147.7837,-328.8241 -122.25,-298.25 C 2336.1224,8887.6147 2231.4043,8646.9875 2295,8786 c -64.6127,-143.3694 -162.701,-380.0485 -114,-276 -28.7427,-13.5249 -222.5038,-355.2501 -149.75,-258 81.3276,45.3528 -0.5673,-164.8777 -64.75,-204.375 -32.824,-115.6456 -128.5584,-238.7264 -78.5,-285.5 -49.2366,-78.6904 -75.6708,-311.4786 -92,-253.125 -4.7297,25.0771 -95.2999,-632.9438 -41.625,-307.375 -7.4166,-137.0102 -35.6113,-371.9554 -32.375,-292.625 -5.8361,-140.4632 -52.6105,-575.7992 -44,-429 62.5641,-442.929 27.1854,-217.7028 71,-475 1.0268,-79.3365 -0.4553,-241.1183 32.375,-207.125 69.8797,-48.0265 142.6609,-198.0818 93.25,-202.5 -6.9743,-55.2612 21.9434,-189.3225 18.375,-163.375 29.8578,-81.7575 133.6995,-285.5186 98,-223 -5.1324,-32.5449 64.9242,-141.8948 69.125,-170.375 52.9637,-62.2504 188.2188,-324.0128 140.875,-222.625 132.0745,-74.984 317.872,-197.6226 269,-166 86.0388,-48.7069 225.7959,-134.4319 163.75,-97.75 5.5063,-12.193 109.0573,60.4399 137.625,-23.25 -119.9435,-114.1003 1366.3486,349.2443 223.625,11 297.894,89.8956 136.0207,11.0889 280,71 121.3176,64.3368 265.8801,129.3422 362,222 -2.4696,-13.6293 192.282,197.223 125,147 83.322,62.5865 220.9578,270.5952 135.25,233.75 -46.1257,49.7528 447.6299,382.9037 179.75,212.25 11.9249,79.4558 186.225,164.8865 68,116 56.0626,101.3896 286.3735,280.7832 235.75,216.75 126.2919,130.8518 -45.2183,87.5152 -10.75,81.25 -63.7027,36.4847 239.5999,110.8065 164,41 122.403,60.4424 70.7079,29.1875 -37,55 -27.201,94.023 -285.7489,-14.6423 -82.125,134.625 24.5504,119.2751 -4.2258,-129.7289 43.125,-15.625 -86.4362,-68.8574 45.1007,66.8827 44,17 -12.8821,-105.5418 239.4249,69.6298 148,17 17.3585,54.6181 -74.4437,6.0056 10,60 -49.0597,66.7321 -21.3204,263.2827 42,166 -41.3022,54.2635 40.9895,309.9313 70,197 -132.7493,38.488 -299.2166,-103.0387 -410,-106 -220.4049,-106.8861 -422.7175,-267.591 -574.125,-458.25 -13.9508,-51.8563 -194.6332,-300.3001 -156.75,-215.5 -19.4301,-12.5753 60.0107,-343.3031 -1.125,-232.25 -8.2288,-98.4916 -117.7119,-388.1411 -116,-285 -92.6187,-127.0942 -516.5889,-98.7768 -371.125,-114.5 -125.443,-48.1239 -332.522,-40.0001 -244.875,-34.5 -93.0964,-14.3216 -283.4564,230.901 -248.375,170.375 -86.8703,79.3693 -242.5452,212.1805 -171.625,215.625 8.8857,110.4959 -37.1795,314.2326 -56,252 -15.5772,129.1111 -21.7515,260.9937 -33.875,223.75 10.4737,-2.2205 -18.3405,140.7261 -10.125,96.25 -20.3458,81.335 -51.9306,234.609 -27,194 -30.2491,143.0995 -135.3472,359.7448 -69,306 -26.5569,26.1574 -92.254,329.0574 -36.25,197.75 -43.7481,-30.2748 -27.7716,-257.9506 -25.75,-156.75 -8.5068,9.7407 97.0906,-192.1491 84.5,-154.125 -77.5355,94.8412 -177.7023,164.366 -109.875,92.25 22.3812,81.5748 8.3408,319.2906 -9.625,226.875 -44.419,42.0278 45.5219,-22.6456 18,81 -46.1276,-37.5383 -15.2814,71.9347 27.25,-9.5 -26.8483,106.3548 102.8363,158.8491 -20.25,154.5 33.9326,62.9468 63.5888,202.3249 62.125,243.75 31.4711,237.1914 100.5647,415.2528 60.875,288.25 -37.7879,123.6578 7.861,359.0329 -0.625,294.875 5.0432,52.9732 116.5397,508.9689 83.625,393.125 91.4549,299.5367 172.8312,641.7818 163,587 30.5372,58.3282 66.2475,185.315 83,250 45.4889,112.7976 162.2307,400.1121 103.375,282.125 155.4175,89.6948 -31.7628,403.0254 147.625,54.875 173.3764,-36.2121 -209.0774,336.4977 -151.375,197 L 2749,9559 Z"
       id="path6" />
    <path
       d="m 7338,8155 c 130.5233,-132.0143 119.6778,-323.1709 109,-205 37.347,79.8247 -73.3196,253.3638 1,159 -44.299,-21.534 -67.3222,91.6061 -110,46 z"
       id="path8" />
  </g>
</svg>
