<?xml version="1.0" standalone="no"?>
<!DOCTYPE svg PUBLIC "-//W3C//DTD SVG 20010904//EN"
 "http://www.w3.org/TR/2001/REC-SVG-20010904/DTD/svg10.dtd">
<svg version="1.0" xmlns="http://www.w3.org/2000/svg"
 width="1024.000000pt" height="1024.000000pt" viewBox="0 0 1024.000000 1024.000000"
 preserveAspectRatio="xMidYMid meet">
<metadata>
Created by potrace 1.16, written by Peter Selinger 2001-2019
</metadata>
<g transform="translate(0.000000,1024.000000) scale(0.100000,-0.100000)"
fill="#000000" stroke="none">
<path d="M6300 10054 c0 -6 -11 -10 -25 -9 -14 2 -27 -1 -31 -6 -3 -5 -10 -6
-16 -3 -6 4 -5 -3 2 -16 9 -18 9 -21 0 -15 -8 5 -11 3 -8 -6 3 -8 14 -13 24
-11 15 2 16 1 4 -7 -8 -5 -19 -7 -25 -3 -19 12 -34 10 -28 -4 3 -8 1 -14 -4
-14 -5 0 -8 -16 -7 -35 2 -20 -1 -33 -5 -30 -5 3 -7 -4 -4 -15 3 -11 1 -20 -5
-20 -5 0 -17 -12 -27 -26 -12 -18 -13 -24 -4 -19 8 3 5 -1 -5 -9 -11 -9 -16
-16 -10 -16 5 0 0 -7 -11 -16 -11 -8 -19 -17 -18 -19 4 -8 -10 -40 -21 -47 -7
-5 -6 -8 3 -8 11 0 11 -3 0 -17 -12 -15 -12 -16 1 -8 13 8 13 7 0 -9 -8 -10
-13 -31 -12 -48 2 -20 -1 -27 -9 -22 -8 4 -9 3 -5 -5 4 -6 11 -9 16 -6 5 3 6
-7 2 -22 -4 -16 -7 -37 -7 -48 0 -11 -4 -24 -10 -28 -7 -6 -6 -10 3 -14 6 -2
12 -9 12 -14 0 -6 -4 -7 -10 -4 -6 4 -7 -1 -3 -11 3 -10 2 -15 -3 -12 -5 4 -8
-12 -7 -35 0 -23 -2 -46 -5 -52 -18 -28 -10 -70 16 -80 14 -5 15 -4 5 6 -16
16 -17 53 -3 80 8 13 7 19 0 19 -6 0 -9 4 -5 10 3 5 13 7 23 4 10 -4 13 -2 7
3 -15 11 -17 55 -3 47 7 -4 8 -2 4 4 -4 7 -3 12 3 12 6 0 8 7 4 16 -5 14 -3
14 15 3 13 -8 17 -16 11 -20 -8 -5 -8 -8 -1 -13 6 -4 8 -14 5 -23 -5 -12 -3
-14 8 -8 12 8 12 6 0 -8 -15 -19 -26 -23 -15 -5 4 7 3 8 -4 4 -6 -4 -9 -13 -6
-20 3 -8 0 -17 -5 -21 -6 -3 -9 -11 -6 -16 6 -8 -9 -13 -28 -10 -5 1 -6 -3 -2
-9 3 -6 11 -8 16 -5 13 9 11 -9 -3 -24 -10 -11 -10 -13 0 -7 19 11 15 -44 -5
-61 -11 -9 -12 -12 -3 -7 12 5 12 4 3 -6 -6 -7 -9 -18 -7 -25 3 -7 0 -16 -7
-21 -7 -4 -10 -3 -5 4 3 6 -1 18 -10 26 -8 9 -11 16 -5 16 13 0 15 46 3 54 -4
2 -14 1 -22 -5 -12 -7 -12 -9 -1 -9 11 0 11 -3 1 -15 -7 -8 -10 -15 -6 -15 3
0 1 -11 -4 -25 -6 -17 -6 -25 1 -25 6 0 7 -4 4 -10 -8 -13 -17 -50 -19 -77 0
-13 -3 -23 -6 -23 -8 0 -4 -275 3 -288 4 -6 3 -13 -2 -17 -6 -3 -8 -11 -5 -18
2 -7 6 -33 9 -58 2 -24 4 -44 5 -44 1 0 4 -12 6 -27 3 -19 0 -28 -8 -28 -9 0
-9 -3 2 -10 12 -8 13 -11 1 -19 -11 -7 -11 -9 0 -13 12 -4 12 -7 0 -21 -10
-13 -10 -17 -1 -17 10 0 10 -3 0 -15 -7 -8 -8 -15 -4 -15 5 0 10 -21 11 -47 2
-27 7 -49 13 -51 7 -3 7 -8 -1 -18 -9 -11 -8 -14 1 -14 8 0 10 -3 7 -7 -4 -3
-1 -13 6 -21 9 -13 9 -14 0 -8 -9 5 -13 0 -13 -14 0 -13 4 -19 12 -14 7 5 8 3
3 -6 -12 -19 -11 -70 1 -78 10 -7 12 -20 16 -99 1 -24 5 -43 8 -43 3 0 5 -26
4 -57 0 -32 3 -64 9 -70 6 -9 5 -13 -3 -13 -9 0 -7 -8 5 -26 9 -15 11 -23 4
-19 -8 6 -10 4 -3 -6 5 -8 10 -25 12 -39 2 -13 8 -27 14 -31 5 -3 9 -9 9 -13
-3 -22 2 -35 30 -66 17 -19 28 -28 23 -20 -7 13 -5 13 9 1 9 -7 14 -18 11 -23
-4 -6 -3 -13 2 -17 16 -11 44 -60 44 -76 0 -8 5 -15 10 -15 6 0 10 -5 10 -12
0 -6 8 -20 18 -31 12 -15 13 -19 2 -13 -8 4 -7 1 4 -8 10 -8 15 -20 10 -27 -5
-8 -3 -10 6 -4 10 6 12 4 7 -8 -3 -10 -2 -17 3 -17 6 0 10 -7 10 -16 0 -19 25
-46 35 -36 4 4 6 2 5 -3 -5 -23 1 -46 10 -40 6 3 10 -3 10 -14 0 -12 5 -21 10
-21 6 0 10 -5 10 -11 0 -6 14 -31 30 -56 17 -24 30 -51 30 -59 0 -7 5 -14 10
-14 6 0 10 -5 10 -11 0 -5 -5 -7 -10 -4 -6 4 1 -11 15 -31 14 -21 23 -44 20
-51 -2 -8 -1 -12 4 -9 8 5 33 -44 35 -69 1 -5 10 -18 21 -28 11 -10 14 -15 6
-11 -10 5 -12 3 -5 -7 17 -27 32 -80 30 -109 -1 -16 2 -26 8 -23 5 4 7 -1 3
-10 -3 -9 -2 -19 4 -23 6 -4 6 -11 -2 -20 -9 -11 -9 -14 1 -14 7 0 10 -7 6
-15 -3 -8 -1 -15 5 -15 6 0 9 -6 6 -12 -2 -7 3 -19 12 -26 9 -8 11 -11 5 -8
-6 3 -3 -11 7 -32 10 -20 20 -47 22 -60 2 -13 10 -28 18 -33 10 -6 11 -9 1 -9
-9 0 -8 -8 5 -32 9 -18 16 -36 16 -39 -1 -3 4 -27 12 -54 8 -26 12 -51 9 -56
-3 -5 0 -9 6 -9 6 0 9 -4 5 -9 -3 -5 -1 -12 5 -16 5 -3 10 -17 10 -30 0 -13 4
-26 10 -30 5 -3 7 -12 4 -20 -4 -8 1 -18 10 -21 12 -5 14 -10 6 -19 -7 -9 -7
-14 -1 -17 6 -1 11 -18 13 -35 1 -18 5 -33 9 -33 4 0 6 -19 5 -42 -1 -24 2
-49 7 -55 6 -8 6 -13 -1 -13 -6 0 -8 -17 -6 -40 2 -23 -1 -40 -7 -40 -6 0 -6
-7 1 -20 7 -12 7 -20 1 -20 -5 0 -8 -9 -6 -20 2 -11 0 -20 -5 -20 -5 0 -7 -9
-5 -21 2 -11 -5 -36 -16 -55 -11 -20 -14 -32 -7 -28 10 6 10 4 0 -9 -8 -9 -11
-20 -8 -26 3 -5 1 -11 -4 -13 -6 -2 -12 -10 -14 -18 -7 -40 -30 -100 -38 -100
-5 0 -7 -4 -4 -9 3 -4 -3 -19 -14 -31 -11 -13 -20 -26 -20 -29 0 -3 -16 -24
-35 -45 -19 -21 -32 -43 -28 -49 3 -6 2 -7 -4 -4 -9 6 -23 -15 -33 -48 -2 -5
-10 -16 -17 -24 -8 -7 -12 -20 -9 -27 3 -8 2 -14 -3 -14 -4 0 -21 -33 -36 -73
-16 -39 -35 -82 -43 -95 -8 -12 -12 -25 -8 -29 3 -4 0 -13 -7 -22 -18 -22 -48
-102 -41 -112 3 -5 0 -9 -6 -9 -6 0 -9 -4 -5 -9 3 -5 -1 -16 -9 -24 -8 -8 -12
-17 -9 -21 3 -3 0 -12 -7 -21 -7 -8 -9 -15 -4 -15 5 0 3 -4 -3 -8 -7 -5 -14
-20 -15 -35 -1 -15 -5 -27 -9 -27 -3 0 -6 -6 -7 -12 -1 -16 -10 -65 -18 -98
-4 -14 -8 -34 -10 -45 -7 -42 -12 -70 -14 -70 -2 0 -8 -31 -13 -70 -9 -65 -19
-95 -29 -89 -7 4 -8 2 -4 -5 12 -18 15 -61 5 -61 -5 0 -8 -3 -7 -7 1 -5 -2
-30 -7 -58 -4 -27 -7 -56 -6 -62 1 -7 -2 -13 -7 -13 -5 0 -8 -18 -7 -40 1 -22
-1 -40 -5 -40 -3 0 -5 -18 -3 -40 1 -22 -1 -39 -5 -36 -4 2 -8 -26 -10 -63 -1
-36 -5 -84 -8 -106 -3 -22 -7 -68 -8 -102 -2 -35 -6 -66 -11 -70 -4 -5 -5 -2
0 6 5 8 4 12 -1 8 -5 -3 -9 -18 -8 -34 1 -15 -3 -36 -8 -45 -6 -12 -5 -18 3
-18 8 0 7 -5 -2 -16 -8 -9 -15 -35 -16 -58 -2 -58 -2 -58 -10 -53 -5 3 -9 -6
-9 -19 -1 -13 1 -22 6 -19 4 2 5 -7 2 -20 -2 -14 -7 -25 -11 -25 -4 0 -7 -10
-8 -22 -4 -75 -7 -98 -14 -98 -5 0 -6 -7 -3 -15 4 -8 1 -22 -5 -29 -9 -11 -9
-16 0 -22 8 -5 9 -3 4 6 -6 9 -4 11 5 5 11 -7 10 -10 -1 -19 -8 -6 -15 -29
-16 -51 -4 -69 -8 -95 -15 -95 -4 0 -5 -6 -2 -14 3 -8 1 -23 -5 -33 -5 -11 -6
-25 -1 -32 4 -8 2 -24 -6 -39 -9 -19 -10 -30 -2 -39 6 -8 7 -13 0 -13 -12 0
-22 -49 -11 -56 5 -3 9 -11 8 -17 0 -9 -2 -9 -6 1 -8 21 -21 13 -15 -10 4 -15
2 -19 -7 -13 -10 6 -11 3 -2 -13 8 -14 8 -23 1 -27 -8 -5 -7 -12 2 -23 10 -12
10 -14 1 -8 -9 5 -13 -1 -13 -18 0 -37 -1 -40 -12 -53 -7 -9 -7 -13 3 -13 8 0
5 -6 -7 -15 -14 -11 -15 -14 -4 -15 13 0 13 -1 0 -10 -13 -9 -13 -10 0 -10 11
-1 10 -4 -4 -15 -11 -8 -14 -15 -8 -15 10 0 10 -5 2 -20 -8 -15 -8 -20 2 -20
9 0 9 -3 0 -12 -7 -7 -12 -24 -12 -39 0 -15 -5 -31 -10 -34 -6 -4 -8 -10 -5
-15 3 -5 1 -11 -4 -14 -5 -3 -7 -15 -4 -26 3 -12 0 -20 -6 -20 -7 0 -9 -4 -6
-10 3 -5 1 -10 -5 -10 -6 0 -8 -4 -5 -10 3 -5 1 -18 -5 -29 -7 -14 -7 -22 1
-27 9 -5 7 -11 -5 -20 -10 -7 -15 -18 -11 -24 4 -6 1 -9 -7 -8 -8 2 -12 -4
-10 -14 2 -10 -2 -18 -8 -18 -5 0 -10 -7 -10 -16 0 -8 -4 -12 -10 -9 -5 3 -10
-3 -10 -15 0 -13 -4 -19 -11 -14 -7 4 -7 -1 1 -16 6 -12 9 -24 6 -28 -3 -3 -6
1 -6 8 0 13 -15 5 -15 -8 -1 -4 -6 -17 -13 -28 -6 -12 -8 -25 -4 -29 4 -5 1
-5 -5 -1 -12 6 -18 -5 -14 -26 0 -4 -7 -5 -17 -2 -14 5 -13 3 3 -11 l20 -17
-20 4 c-14 2 -20 -2 -19 -15 2 -15 -1 -16 -14 -5 -12 10 -14 10 -8 0 4 -7 1
-15 -9 -18 -14 -6 -14 -8 2 -19 16 -12 14 -13 -12 -8 -23 3 -27 2 -15 -6 14
-10 7 -16 -13 -12 -5 1 -11 -8 -14 -19 -3 -11 -9 -17 -14 -14 -5 3 -9 1 -9 -5
0 -5 6 -12 13 -15 6 -3 1 -3 -12 0 -17 5 -21 3 -16 -7 6 -9 3 -11 -9 -6 -10 4
-15 3 -11 -3 3 -5 -6 -21 -20 -34 -19 -17 -22 -26 -13 -30 7 -3 3 -4 -9 -2
-17 3 -21 0 -18 -15 2 -11 0 -17 -6 -14 -5 4 -9 1 -9 -5 0 -6 -4 -9 -9 -6 -12
8 -23 -23 -14 -37 4 -7 -2 -5 -13 3 -10 8 -16 11 -13 7 4 -4 -13 -27 -37 -50
-30 -29 -40 -45 -33 -54 8 -8 4 -10 -13 -6 -16 3 -19 2 -10 -5 11 -7 9 -11 -8
-15 -15 -4 -19 -10 -14 -19 6 -10 3 -9 -10 1 -9 8 -16 10 -15 5 4 -21 -2 -34
-15 -34 -7 0 -25 -12 -40 -26 -14 -15 -26 -23 -26 -18 0 4 -7 -1 -16 -12 -8
-10 -13 -12 -9 -4 4 8 -2 5 -12 -6 -10 -12 -28 -21 -40 -19 -15 1 -20 -2 -15
-9 15 -22 14 -66 -2 -72 -9 -3 -14 -9 -12 -13 3 -4 -5 -8 -16 -8 -19 -2 -19
-1 -3 11 19 14 12 41 -7 30 -7 -5 -9 -1 -5 9 4 11 2 14 -9 10 -27 -10 -13 -29
19 -24 15 2 6 -17 -10 -24 -17 -6 -17 -8 2 -22 20 -15 20 -15 -2 -10 -16 3
-24 0 -28 -14 -4 -11 -10 -17 -15 -14 -5 3 -7 13 -4 23 4 10 3 13 -3 6 -4 -6
-16 -10 -25 -9 -11 2 -15 -2 -11 -12 3 -8 12 -12 19 -9 8 3 14 1 14 -4 0 -13
-23 -13 -36 0 -15 15 -15 -21 0 -39 8 -11 8 -13 -1 -7 -8 4 -13 1 -13 -9 0 -9
-4 -13 -10 -10 -6 3 -7 -1 -4 -9 3 -9 9 -14 14 -11 4 2 16 -2 26 -10 10 -8 14
-15 7 -15 -6 0 -15 5 -18 10 -5 8 -11 7 -21 -1 -8 -6 -14 -8 -14 -5 0 13 -45
-24 -45 -37 -1 -6 -6 -11 -13 -10 -7 2 -9 -4 -5 -14 4 -11 3 -14 -5 -9 -7 4
-12 3 -12 -2 0 -18 29 -21 33 -4 4 16 5 16 6 0 0 -9 -13 -26 -30 -38 -34 -25
-33 -38 3 -20 22 11 22 11 -2 -9 -22 -18 -21 -26 3 -22 5 1 6 -3 2 -9 -3 -5
-2 -10 3 -10 14 0 23 -28 11 -35 -5 -4 -8 -3 -7 2 2 4 -1 9 -7 11 -5 1 -11 -7
-11 -18 -1 -12 -12 -32 -25 -47 l-24 -25 23 6 c14 5 22 3 22 -4 0 -6 4 -9 9
-5 5 3 13 0 17 -6 4 -8 3 -9 -4 -5 -7 4 -12 3 -12 -2 0 -5 16 -17 35 -26 20
-10 33 -21 30 -26 -3 -5 2 -11 10 -13 11 -3 10 -4 -2 -3 -10 1 -17 7 -16 14 5
22 -49 9 -60 -15 -8 -18 -6 -28 9 -45 l19 -23 -23 20 c-16 13 -21 25 -17 40 6
20 9 47 6 74 -2 23 -16 2 -17 -27 -1 -15 -5 -35 -9 -45 -6 -13 3 -28 35 -57
24 -22 39 -40 34 -40 -5 0 -2 -5 6 -10 13 -9 13 -10 0 -10 -13 0 -13 -1 0 -10
13 -9 13 -10 0 -10 -9 0 -21 5 -27 11 -9 9 -11 5 -9 -15 2 -15 -1 -29 -5 -32
-5 -3 -9 5 -9 18 -1 22 -1 22 -12 4 -8 -15 -8 -21 0 -24 7 -2 10 -7 8 -11 -3
-4 1 -8 9 -8 8 0 12 4 9 9 -3 4 0 8 6 8 7 0 9 9 5 23 -3 12 -3 17 2 12 7 -9
27 -12 36 -5 13 10 35 6 30 -7 -4 -11 -8 -11 -13 -3 -6 9 -9 9 -15 0 -4 -7 -1
-16 6 -21 8 -5 9 -9 4 -9 -12 0 -14 -39 -2 -57 4 -6 2 -15 -5 -19 -7 -4 -10
-3 -5 1 4 5 0 17 -10 27 -9 11 -11 18 -5 18 17 0 15 17 -2 23 -10 4 -13 1 -9
-9 3 -8 -1 -14 -8 -14 -10 0 -11 -2 -2 -8 13 -8 12 -37 -2 -49 -4 -5 -5 -2 0
6 6 11 4 13 -8 8 -10 -4 -24 6 -42 29 -14 19 -22 34 -16 34 5 0 13 -4 16 -10
3 -5 12 -10 18 -10 7 0 4 5 -6 11 -9 6 -14 15 -11 21 4 6 3 8 -3 5 -6 -4 -16
0 -23 8 -9 10 -9 15 -1 15 6 0 11 -6 11 -12 0 -9 4 -8 10 2 16 24 12 28 -22
24 -30 -3 -31 -3 -9 6 18 8 21 13 12 24 -9 10 -8 15 1 18 17 7 38 -1 38 -14 0
-6 -6 -6 -15 2 -8 7 -15 8 -15 2 0 -21 29 -35 36 -18 4 12 13 15 28 10 18 -6
19 -5 7 10 -7 9 -10 16 -5 16 5 0 -1 7 -14 15 -16 12 -26 13 -42 5 -13 -7 -20
-7 -20 0 0 5 7 10 15 10 8 0 15 5 15 11 0 5 -4 8 -9 5 -4 -3 -9 9 -9 27 0 53
-2 58 -12 52 -5 -3 -7 -13 -4 -23 5 -14 4 -14 -4 -2 -6 8 -8 18 -6 22 3 4 -2
5 -10 2 -16 -6 -14 -17 11 -45 19 -23 6 -54 -15 -37 -13 11 -15 10 -9 -5 4
-10 2 -27 -3 -38 -8 -14 -7 -19 2 -19 10 0 10 -2 -1 -9 -7 -5 -10 -14 -6 -21
6 -9 3 -9 -14 -1 -21 12 -46 49 -38 58 3 2 13 6 24 7 12 2 18 11 18 29 -1 14
4 23 9 20 5 -3 6 -1 2 5 -4 6 -14 8 -22 5 -11 -4 -12 -9 -5 -16 6 -6 11 -15
11 -20 0 -9 -16 6 -40 38 -14 19 -14 19 3 6 17 -13 18 -12 11 14 -5 19 -4 26
4 21 12 -7 49 41 38 51 -3 3 -6 1 -6 -6 0 -7 -4 -10 -9 -6 -5 3 -13 0 -17 -6
-5 -8 -3 -9 6 -4 8 5 11 3 8 -6 -3 -8 -10 -15 -16 -15 -7 -1 -17 -2 -23 -3 -5
0 -7 -7 -3 -13 4 -8 3 -10 -2 -5 -5 5 -10 13 -10 18 -1 5 -2 14 -3 20 0 5 -5
8 -11 4 -5 -3 -7 -12 -3 -20 3 -9 -1 -15 -11 -15 -9 0 -16 5 -16 11 0 5 5 7
12 3 6 -4 9 -3 5 2 -3 5 1 17 8 27 13 18 14 17 20 -2 3 -12 11 -21 16 -21 13
0 11 13 -3 30 -11 12 -10 12 4 2 10 -8 19 -9 22 -3 3 5 0 12 -6 14 -7 3 2 4
20 2 29 -3 32 -1 27 16 -5 14 -2 19 12 19 10 0 14 4 8 8 -15 10 -18 35 -4 26
9 -5 10 -2 6 9 -4 12 -2 14 11 10 14 -5 14 -3 -3 17 -11 13 -15 20 -8 17 6 -4
14 -3 18 3 3 5 0 10 -7 10 -7 1 -3 9 11 20 13 11 18 20 12 20 -7 0 -9 5 -5 11
4 7 9 8 13 1 4 -7 11 -6 21 1 14 11 14 14 -3 30 -18 18 -19 18 -12 -2 3 -12 3
-21 -2 -20 -4 1 -11 0 -15 -1 -9 -3 -24 -7 -34 -9 -4 0 0 -9 7 -18 12 -15 12
-16 -4 -10 -12 4 -24 -1 -39 -18 -16 -19 -24 -22 -35 -13 -11 8 -12 7 -7 -5 3
-9 0 -24 -6 -34 -10 -16 -11 -16 -6 -1 3 10 1 20 -4 23 -6 4 -10 -1 -10 -10 0
-9 -4 -14 -9 -10 -5 3 -12 1 -15 -4 -4 -5 -1 -13 5 -17 8 -5 9 -3 4 7 -8 12
-6 12 8 0 23 -18 22 -19 -13 -16 -19 2 -27 -1 -23 -8 4 -6 0 -8 -10 -4 -8 3
-18 0 -21 -8 -3 -9 0 -12 8 -9 8 3 16 1 20 -4 3 -5 -8 -8 -25 -7 -23 1 -29 -2
-24 -13 4 -12 3 -12 -9 -3 -11 9 -18 6 -35 -16 -12 -15 -20 -21 -18 -13 2 8 2
12 0 7 -3 -4 -10 -4 -16 0 -7 4 -4 -5 6 -20 19 -30 12 -37 -10 -9 -8 9 -12 12
-9 5 4 -6 2 -15 -4 -18 -6 -4 -1 -14 14 -26 28 -22 40 -25 30 -6 -4 6 -4 9 1
5 11 -11 47 11 39 24 -4 7 -3 8 5 4 6 -4 9 -11 6 -16 -3 -4 -2 -10 2 -13 5 -2
2 -2 -6 0 -8 2 -11 -2 -7 -12 3 -10 2 -13 -5 -10 -6 4 -13 -3 -16 -16 -6 -22
-7 -22 -14 -3 -7 18 -8 18 -8 -3 -1 -12 -5 -24 -11 -28 -5 -3 -8 7 -5 25 2 17
0 28 -6 24 -5 -3 -7 -10 -4 -15 4 -5 1 -9 -5 -9 -6 0 -8 11 -6 24 3 15 -1 27
-10 30 -7 3 -12 11 -10 18 1 7 1 10 -1 5 -3 -4 -10 -4 -15 -1 -7 5 -8 2 -3 -6
6 -10 4 -12 -10 -6 -15 5 -16 4 -6 -8 10 -12 9 -13 -8 -9 -13 3 -21 1 -21 -6
0 -7 4 -10 9 -6 5 3 12 1 15 -4 4 -5 -2 -8 -11 -6 -10 2 -22 4 -27 4 -4 1 -5
8 -2 16 3 9 -1 18 -9 21 -8 4 -15 10 -15 16 0 5 4 7 9 3 5 -3 3 8 -5 24 -9 18
-20 28 -28 25 -8 -3 -17 -1 -21 5 -4 8 -12 8 -25 1 -23 -12 -36 15 -18 38 11
13 10 15 -3 10 -9 -4 -22 -1 -28 5 -9 9 -10 8 -5 -7 6 -15 4 -17 -6 -11 -9 6
-11 4 -6 -4 5 -7 0 -21 -9 -31 -15 -16 -15 -21 -4 -32 28 -26 53 -43 45 -30
-4 7 -2 12 4 12 6 0 8 6 4 13 -4 6 -3 8 1 4 15 -13 14 -35 -2 -41 -13 -5 -13
-9 2 -32 9 -15 13 -24 8 -21 -5 4 -10 0 -10 -8 0 -8 4 -12 9 -9 4 3 8 -8 8
-25 0 -16 5 -33 12 -37 7 -5 8 -3 3 6 -5 8 -4 11 3 6 6 -3 9 -18 6 -32 -3 -16
-1 -23 6 -19 5 3 10 1 10 -4 0 -6 -6 -11 -12 -11 -10 0 -10 -2 0 -9 14 -9 1
-46 -23 -63 -5 -4 -6 -8 -2 -8 4 0 -3 -11 -17 -23 -20 -19 -23 -26 -13 -37 9
-10 9 -11 -2 -5 -19 11 -33 -16 -18 -34 8 -10 8 -13 1 -8 -18 10 -24 -30 -8
-50 13 -17 14 -17 8 0 -4 12 -2 17 7 15 8 -2 13 3 11 10 -1 6 2 12 8 12 5 0 6
7 3 17 -4 11 -3 14 5 9 7 -4 12 -2 12 4 0 6 5 8 10 5 6 -3 10 0 10 8 0 8 7 18
16 21 26 10 29 7 8 -9 -10 -8 -16 -15 -11 -16 4 -1 12 -3 17 -4 6 -1 15 -3 21
-4 5 0 8 -5 4 -10 -3 -6 4 -8 16 -6 15 3 19 0 15 -11 -3 -9 -2 -12 5 -9 5 4 7
15 4 25 -3 10 0 22 6 26 8 4 9 3 5 -4 -4 -7 -2 -12 3 -12 19 0 12 -38 -8 -45
-13 -4 -18 -12 -14 -22 4 -10 2 -14 -4 -10 -6 4 -16 0 -22 -7 -9 -10 -9 -16
-1 -21 8 -5 6 -11 -6 -19 -13 -10 -14 -15 -4 -21 9 -6 11 -4 5 5 -5 9 -4 11 4
6 16 -11 2 -29 -17 -21 -9 3 -13 3 -9 -1 4 -4 1 -14 -6 -22 -10 -13 -9 -14 2
-7 11 6 13 4 8 -9 -4 -10 -3 -15 3 -11 6 3 10 1 10 -5 0 -6 4 -9 9 -5 6 3 14
-3 20 -12 14 -24 14 -7 0 18 -5 11 -15 16 -21 13 -7 -5 -8 -2 -4 5 6 9 13 8
28 -6 20 -18 21 -18 14 7 -6 19 -5 21 3 10 6 -8 11 -10 12 -5 0 6 4 1 9 -10 8
-18 9 -17 7 5 -1 14 -7 32 -12 40 -8 13 -7 13 9 1 15 -12 19 -12 32 7 8 12 21
22 27 22 7 0 4 -5 -5 -11 -10 -5 -18 -15 -18 -21 0 -6 7 -5 18 3 15 13 16 12
3 -3 -7 -10 -17 -16 -21 -13 -5 3 -11 1 -15 -4 -3 -6 6 -8 21 -5 19 3 24 1 18
-8 -4 -7 -4 -10 1 -6 4 4 15 2 24 -4 13 -10 14 -10 4 2 -19 21 -16 29 10 26
20 -2 23 1 21 21 -1 12 2 23 8 23 6 0 8 -7 4 -15 -3 -8 -1 -15 4 -15 6 0 10 7
10 15 0 8 8 15 17 15 15 0 14 2 -3 16 -10 8 -14 13 -8 10 14 -7 27 21 14 29
-6 4 -10 11 -10 17 0 6 7 5 17 -3 11 -10 14 -10 9 -1 -4 7 -2 12 6 12 9 0 9 3
-2 10 -8 5 -10 10 -4 10 19 0 23 -11 14 -36 -8 -20 -6 -24 8 -24 15 0 15 -2 2
-10 -13 -8 -13 -10 2 -10 14 0 16 -4 8 -25 -6 -16 -6 -27 2 -31 7 -4 8 -3 4 4
-4 7 -2 12 3 12 6 0 11 -8 12 -17 0 -11 3 -13 6 -5 2 6 11 12 19 12 9 0 12 5
9 10 -5 9 9 14 18 8 10 -7 35 25 30 37 -3 10 1 13 15 10 14 -2 22 3 25 17 4
14 11 19 21 15 9 -4 16 -1 16 6 0 7 14 23 30 37 17 14 30 31 30 38 0 8 6 12
14 9 21 -8 48 26 39 49 -7 18 -6 18 11 2 22 -23 26 -23 21 1 -2 13 1 18 9 15
7 -3 19 3 27 13 13 16 12 17 -3 5 -12 -10 -18 -10 -24 -1 -4 7 -3 9 4 5 6 -3
14 -1 17 5 4 5 14 8 22 5 10 -4 13 -2 10 8 -3 8 3 22 14 32 10 9 19 13 19 8 0
-5 5 -2 10 6 6 10 10 11 10 3 0 -7 5 -13 10 -13 7 0 7 8 -1 22 -9 19 -9 21 2
11 19 -19 34 -16 18 4 -10 12 -10 15 -1 9 18 -11 52 3 52 22 0 15 2 15 10 2 8
-13 10 -12 10 3 0 10 4 16 9 12 5 -3 13 -1 16 5 5 8 12 7 23 -2 15 -12 16 -11
3 5 -16 21 -13 25 20 30 15 3 23 11 23 21 -2 12 1 14 10 6 13 -10 26 -4 26 12
0 5 -5 6 -12 2 -7 -5 -8 -3 -4 5 5 7 10 10 13 7 3 -3 15 -1 26 5 15 9 18 8 11
-3 -6 -11 -5 -11 9 1 9 7 15 16 13 20 -3 4 5 8 17 8 12 1 27 9 33 18 6 8 16
15 22 15 6 0 13 6 15 13 4 9 6 9 6 0 1 -7 6 -13 12 -13 5 0 8 3 6 8 -3 4 1 13
9 20 11 10 14 10 14 0 0 -9 3 -9 9 2 6 8 8 17 5 21 -2 4 1 11 7 15 8 4 9 3 5
-4 -10 -17 3 -15 20 2 17 17 19 30 2 20 -7 -4 -8 -3 -4 5 4 6 11 9 16 6 5 -3
18 3 30 15 11 11 23 20 28 21 4 1 6 6 4 11 -2 6 5 8 14 4 15 -6 15 -4 3 10
-13 16 -12 16 10 5 15 -8 21 -9 17 -2 -4 6 1 14 11 18 30 11 64 41 54 47 -6 4
-15 -3 -21 -14 -6 -11 -15 -20 -20 -20 -6 0 -1 11 11 24 12 14 29 22 44 21 18
-2 22 1 18 12 -5 13 -2 13 14 5 15 -9 20 -8 20 3 0 8 -4 12 -8 9 -4 -2 -10 0
-13 5 -3 5 8 7 24 6 16 -1 27 1 24 6 -3 5 0 9 5 9 6 0 11 7 11 16 0 10 6 14
15 11 8 -4 17 -1 21 5 5 7 2 8 -6 3 -9 -5 -11 -4 -6 3 4 7 13 12 21 12 8 0 17
5 21 12 5 7 3 8 -6 3 -8 -5 -11 -4 -6 3 4 6 14 8 23 5 10 -4 14 -2 10 4 -4 6
0 13 8 17 8 3 17 1 21 -5 4 -6 11 -6 19 1 8 7 19 9 24 5 6 -3 8 0 5 8 -3 8 0
18 7 23 8 4 10 3 5 -4 -5 -8 -2 -10 9 -6 12 5 13 10 4 20 -8 10 -6 12 10 9 13
-2 21 1 21 10 0 10 6 12 18 8 15 -6 16 -5 2 12 -12 15 -12 17 -1 10 9 -5 19
-2 29 11 13 18 14 18 7 -6 -7 -23 -7 -23 9 -7 10 9 22 17 27 17 5 0 8 3 7 8
-2 4 1 8 6 9 5 0 13 8 18 17 5 9 16 16 24 16 10 0 12 5 8 13 -5 8 -2 7 9 -2
15 -12 17 -12 11 3 -5 12 -2 15 10 10 12 -5 16 0 16 16 0 20 2 21 17 9 12 -10
14 -10 9 -1 -4 7 -1 15 8 18 9 3 13 11 9 18 -4 6 2 4 12 -4 10 -8 16 -10 12
-3 -5 7 1 16 13 23 11 6 20 17 20 25 0 7 5 17 12 21 7 4 8 3 4 -4 -5 -8 -2
-10 8 -6 9 3 13 10 10 15 -3 5 0 9 6 9 6 0 8 5 5 10 -3 6 0 10 7 10 20 0 50
38 35 44 -7 2 -4 5 5 5 12 1 15 6 11 18 -5 13 -3 15 12 9 11 -4 16 -4 12 0 -4
4 1 17 10 28 17 20 17 20 0 7 -15 -12 -17 -12 -11 3 3 9 14 16 23 16 14 0 14
2 1 10 -12 8 -12 10 -1 10 8 0 11 7 8 20 -3 10 -2 18 2 17 3 -1 8 3 9 8 2 6 9
16 15 24 10 12 9 13 -2 6 -10 -6 -12 -4 -7 4 5 7 15 10 23 6 14 -5 14 -3 2 12
-12 15 -12 16 5 10 16 -6 17 -5 6 8 -12 14 -7 20 14 16 5 -1 4 4 -3 13 -9 11
-9 16 0 22 8 4 9 3 5 -4 -4 -7 -5 -12 -2 -12 11 0 37 70 30 81 -4 7 -3 9 3 6
12 -7 36 47 26 57 -3 3 4 3 17 1 18 -3 20 -2 10 10 -9 11 -9 15 -1 15 6 0 11
7 11 15 0 8 6 15 13 15 8 0 7 4 -3 10 -10 6 -11 10 -2 10 6 0 12 7 12 16 0 9
5 12 13 8 9 -6 9 -4 -1 8 -9 11 -10 18 -2 23 7 4 7 13 -1 27 -9 17 -9 20 3 15
8 -3 15 0 16 6 11 72 15 86 26 80 6 -4 4 2 -4 12 -8 10 -10 16 -4 12 7 -4 14
4 16 21 3 15 9 36 13 46 7 15 5 18 -6 12 -8 -4 -6 -1 4 7 20 16 23 32 5 21 -9
-5 -9 -3 1 9 7 9 17 14 21 12 5 -3 5 8 0 25 -7 24 -6 32 5 37 8 3 13 9 10 13
-3 4 3 11 12 14 15 6 15 8 3 16 -12 7 -12 12 -2 22 6 6 12 22 12 34 0 13 7 29
15 37 8 8 16 30 17 49 1 18 9 39 18 46 8 8 9 11 2 7 -9 -5 -11 1 -7 22 4 15 7
35 8 43 1 8 9 21 17 28 13 12 13 13 -4 8 -16 -6 -17 -4 -6 9 7 8 9 15 5 15 -5
0 -1 8 8 18 10 10 14 22 11 25 -4 4 -1 14 7 24 12 15 12 16 -1 8 -12 -7 -13
-6 -4 6 6 8 10 24 9 36 -1 12 3 21 9 20 6 -1 10 4 8 11 -1 6 5 12 14 12 8 0
12 5 9 10 -4 6 -1 18 6 26 10 12 9 13 -7 8 -17 -5 -18 -4 -2 8 12 10 13 19 7
31 -8 13 -6 17 7 17 16 0 16 2 -2 16 -10 8 -14 13 -8 10 7 -3 14 3 17 14 3 11
1 20 -4 20 -5 0 -4 11 1 25 5 14 6 25 2 25 -4 0 1 5 11 11 14 8 16 14 6 25 -9
11 -9 14 1 14 8 0 11 3 7 6 -3 3 -2 17 3 29 6 16 5 25 -3 29 -8 3 -8 5 2 5 11
1 11 4 1 16 -7 8 -8 15 -4 15 5 0 8 17 7 38 -2 42 6 84 16 78 3 -2 6 18 6 44
-1 29 3 46 9 43 5 -4 7 1 3 10 -3 10 -3 17 1 17 4 0 7 15 7 33 0 17 3 40 8 51
6 13 5 21 -4 27 -8 5 -9 9 -3 9 6 0 11 8 11 18 0 38 3 53 11 49 4 -3 7 11 7
31 -1 21 2 54 6 75 4 24 3 37 -5 37 -7 0 -6 4 2 9 7 4 12 12 11 17 -1 5 0 11
1 14 2 6 8 65 11 123 1 20 6 37 11 37 4 0 11 18 14 40 4 22 11 40 16 40 5 0 6
5 3 10 -3 6 -1 10 6 10 8 0 8 4 -1 15 -8 9 -8 15 -2 15 10 0 25 31 27 55 0 6
7 9 14 7 7 -1 10 1 7 6 -2 4 -1 14 4 22 5 9 4 20 -3 29 -9 12 -9 13 1 7 12 -7
16 4 13 32 -1 6 3 12 10 12 7 0 8 4 2 12 -5 7 -9 33 -9 58 1 39 4 45 24 48 12
2 20 8 17 13 -4 5 1 9 9 9 9 0 16 5 16 10 0 6 7 10 15 10 9 0 18 12 21 30 4
16 9 28 13 25 4 -2 7 21 6 51 0 30 3 54 8 54 5 0 7 7 4 15 -4 8 -2 17 3 20 5
3 7 14 5 25 -2 11 0 20 6 20 5 0 9 5 9 11 0 5 -6 7 -12 4 -7 -4 -5 0 5 8 14
11 15 16 5 20 -10 4 -10 6 0 6 6 1 12 10 12 20 0 30 11 52 23 44 6 -4 8 0 5 9
-4 8 2 21 12 28 14 10 16 18 9 32 -7 14 -6 16 5 12 11 -4 14 0 11 16 -5 25 17
64 30 52 5 -4 5 -2 1 5 -3 6 -1 15 5 18 5 4 8 14 5 22 -3 8 -2 12 2 9 23 -14
49 30 27 47 -6 4 -2 7 10 5 12 -2 20 3 21 12 2 34 17 79 25 75 4 -3 11 0 15 6
4 8 3 9 -4 5 -7 -4 -12 -2 -12 3 0 6 5 11 11 11 5 0 7 5 4 10 -3 6 -1 10 4 10
6 0 11 7 11 15 0 8 6 15 13 15 8 0 7 4 -3 10 -13 8 -12 10 4 10 16 0 17 2 5
17 -12 15 -12 16 2 11 13 -5 16 -2 12 13 -3 11 0 19 6 19 7 0 9 5 6 10 -3 6 0
10 7 10 10 0 10 2 -1 9 -11 7 -11 9 0 14 10 4 10 6 2 6 -7 1 -13 6 -13 13 0 6
3 8 7 5 9 -10 32 25 33 48 0 12 5 26 12 33 8 8 8 15 -2 26 -10 13 -9 17 4 22
9 3 13 10 10 15 -3 6 -1 16 6 24 7 9 8 15 0 20 -6 4 -7 12 0 24 6 12 5 22 -3
31 -10 10 -9 11 2 5 11 -6 13 -4 8 9 -4 10 -1 19 7 22 8 3 11 15 8 30 -3 16 0
24 9 24 11 0 11 3 -1 11 -12 8 -12 12 -2 16 10 4 9 8 -4 17 -13 10 -14 15 -4
21 9 6 11 4 5 -5 -5 -8 -4 -11 3 -6 6 4 8 17 3 34 -5 15 -4 37 0 50 6 15 5 22
-4 22 -7 0 -8 3 -2 8 12 9 14 62 2 62 -4 0 -6 4 -2 9 3 5 1 12 -5 16 -5 3 -10
13 -10 21 0 10 5 12 13 8 8 -6 8 -3 -1 9 -8 9 -11 21 -7 27 4 6 2 16 -4 23 -5
7 -6 18 -2 25 11 17 2 62 -12 62 -7 0 -7 4 1 12 15 15 16 31 0 22 -7 -5 -8 -3
-2 7 11 18 12 32 2 40 -5 3 -10 15 -13 27 -2 11 -8 29 -14 40 -6 11 -7 22 -4
26 3 3 1 6 -6 6 -7 0 -9 5 -6 10 3 6 1 10 -6 10 -7 0 -9 3 -6 7 4 3 -1 15 -10
26 -13 15 -14 18 -3 12 9 -5 7 0 -5 14 -10 12 -19 33 -20 46 0 14 -8 34 -17
45 -12 13 -14 20 -5 20 8 0 8 3 -2 9 -7 5 -11 13 -7 19 3 6 2 13 -4 17 -6 4
-8 11 -5 16 4 5 1 9 -5 9 -6 0 -8 5 -4 12 4 6 -1 17 -11 25 -11 7 -13 13 -7
13 7 0 12 5 12 11 0 5 -4 7 -10 4 -5 -3 -10 3 -10 14 0 12 -4 21 -10 21 -5 0
-10 9 -10 20 0 11 -5 20 -12 20 -6 0 -9 3 -5 6 3 4 0 19 -8 34 -8 15 -11 30
-8 34 4 3 -1 6 -10 6 -11 0 -17 8 -17 25 0 14 -4 25 -9 25 -5 0 -8 11 -5 24 3
16 -2 28 -12 34 -8 5 -16 15 -18 23 -1 8 -7 24 -14 35 -6 12 -8 24 -5 28 3 3
0 6 -7 6 -7 0 -10 3 -7 7 4 3 0 11 -9 18 -9 6 -17 23 -17 37 -2 17 -6 24 -16
20 -9 -4 -12 -1 -7 7 4 6 3 17 -2 24 -6 7 -12 21 -14 32 -1 11 -10 26 -18 33
-13 12 -13 13 0 6 10 -5 9 0 -4 14 -11 12 -16 25 -13 29 4 3 2 12 -4 20 -9 10
-8 13 2 13 11 0 11 2 -1 10 -8 5 -10 10 -4 10 15 0 5 50 -10 51 -6 0 -3 4 7 8
17 6 17 8 -4 36 -12 17 -16 24 -9 18 8 -7 17 -13 20 -13 10 0 -1 74 -14 89 -8
11 -8 13 2 7 6 -4 12 -3 12 3 0 5 -4 13 -10 16 -5 3 -10 19 -10 36 0 16 -5 29
-11 29 -7 0 -10 12 -7 30 4 25 2 28 -11 17 -12 -10 -14 -9 -9 11 5 16 2 22
-10 22 -15 0 -15 2 -2 10 13 8 13 10 -2 10 -19 0 -43 36 -30 44 11 7 64 -29
55 -37 -3 -4 1 -7 11 -7 9 0 14 -4 11 -10 -3 -5 1 -10 10 -10 10 0 13 -5 9
-12 -6 -10 -5 -10 7 -1 10 8 19 9 29 1 12 -8 12 -9 -2 -4 -22 7 -23 -10 -3
-31 8 -8 13 -18 11 -21 -2 -4 13 -7 34 -7 21 -1 36 3 33 8 -3 5 3 7 13 3 11
-3 26 -1 34 5 13 9 13 10 -1 6 -12 -4 -15 0 -11 19 3 16 0 24 -9 25 -8 0 -3 5
10 10 20 8 22 11 10 26 -10 12 -10 14 -1 9 6 -4 12 -4 13 1 0 4 2 18 5 31 3
16 0 21 -8 16 -8 -5 -9 0 -5 17 5 21 5 22 -7 7 -11 -15 -13 -12 -11 27 1 52
-1 53 -26 21 -21 -27 -56 -39 -66 -24 -3 6 -2 8 3 5 6 -3 15 3 22 14 16 25 -2
25 -28 -1 -19 -19 -25 -15 -21 17 2 12 -50 53 -66 53 -4 -1 5 -11 21 -24 27
-22 28 -26 13 -40 -23 -23 -33 -20 -12 4 10 11 14 20 9 20 -5 0 -22 12 -38 26
-27 24 -28 26 -10 39 11 7 21 11 24 9 2 -3 -2 -9 -10 -14 -8 -5 -12 -11 -9
-14 13 -13 36 20 30 43 -6 22 -8 23 -21 9 -13 -14 -16 -14 -27 1 -10 14 -14
14 -25 2 -8 -8 -8 -11 -1 -7 6 3 14 2 18 -4 8 -13 -14 -52 -26 -45 -5 4 -9 2
-9 -3 0 -6 7 -13 16 -16 10 -4 14 -14 11 -25 -3 -13 1 -21 14 -24 13 -3 17
-11 13 -21 -3 -9 -11 -13 -17 -9 -5 3 -7 1 -3 -5 3 -6 2 -13 -4 -17 -6 -4 -8
-10 -5 -15 3 -5 0 -12 -6 -16 -6 -3 -15 0 -20 7 -5 8 -9 10 -9 4 0 -5 -8 0
-18 13 -10 13 -27 25 -37 26 -11 2 -19 9 -17 16 1 6 -2 9 -7 6 -5 -4 -16 0
-24 8 -8 8 -17 13 -19 10 -3 -2 -11 3 -19 13 -11 13 -11 15 -1 9 21 -13 10 26
-13 47 -11 10 -14 16 -7 12 6 -3 12 -1 12 4 0 6 -7 11 -15 11 -9 0 -12 6 -8
17 4 11 3 14 -5 9 -11 -7 -16 15 -16 76 0 9 -3 15 -7 13 -4 -3 -9 7 -12 20 -2
14 0 28 5 31 4 3 6 10 3 15 -4 5 4 9 17 8 13 0 17 -3 11 -6 -7 -2 -13 -9 -13
-14 0 -5 9 -4 19 3 15 9 23 9 34 -1 11 -8 17 -9 22 -1 4 7 19 -2 40 -24 18
-19 35 -32 39 -29 3 4 6 0 6 -7 0 -14 14 -5 16 11 1 5 2 12 3 15 0 4 7 1 15
-5 11 -9 16 -9 22 0 4 7 3 9 -2 6 -6 -3 -16 3 -23 15 -7 11 -8 17 -2 13 6 -3
11 -2 11 4 0 5 -6 12 -12 14 -7 3 -4 6 6 6 20 1 20 1 0 17 -10 8 -13 13 -6 9
6 -3 12 -1 12 5 0 6 5 8 10 5 6 -3 10 -1 10 5 0 6 -7 10 -16 8 -19 -3 -28 28
-12 39 6 3 8 1 5 -4 -4 -6 -1 -13 6 -16 8 -3 12 10 12 49 0 29 -3 50 -8 47 -5
-3 -4 4 2 16 14 25 7 41 -17 41 -15 0 -15 2 -2 10 12 8 11 10 -7 10 -13 0 -23
5 -23 11 0 5 -5 7 -11 3 -8 -4 -8 -9 0 -17 6 -6 11 -15 11 -21 0 -5 -6 -1 -14
9 -8 11 -11 24 -8 30 4 5 7 15 7 20 0 6 7 9 16 8 32 -6 60 88 31 106 -10 6
-21 53 -25 104 -1 9 -5 17 -9 17 -4 0 -7 3 -7 8 1 4 0 9 -1 12 -1 3 -3 13 -5
24 -7 38 -50 151 -60 158 -5 4 -7 8 -3 8 5 0 -1 24 -13 53 -11 28 -21 57 -22
62 -2 6 -6 16 -10 23 -5 6 -5 12 0 12 4 0 2 4 -5 9 -7 4 -14 18 -15 29 -1 12
-5 22 -10 22 -4 0 -6 4 -2 9 3 5 1 12 -5 16 -6 4 -8 11 -5 16 4 5 -1 12 -9 15
-9 3 -16 10 -16 16 0 5 4 6 10 3 11 -7 -21 57 -33 66 -5 3 -8 9 -8 13 4 26 0
36 -11 30 -7 -4 -10 -4 -6 0 9 10 -21 96 -34 96 -5 0 -6 10 -3 21 4 12 3 19
-1 16 -5 -2 -16 10 -25 29 -9 18 -11 31 -5 27 6 -3 0 5 -13 20 -12 14 -20 30
-16 36 3 6 -1 11 -10 11 -9 0 -14 4 -11 9 3 5 -7 28 -23 52 -16 24 -27 47 -25
51 3 4 1 8 -4 8 -9 0 -20 26 -18 43 1 5 -7 13 -16 18 -10 6 -18 16 -18 23 0 7
-12 25 -26 40 -15 14 -24 26 -20 26 4 0 1 7 -8 15 -8 8 -20 15 -26 15 -6 0 -8
5 -4 12 4 6 3 8 -4 4 -6 -3 -15 2 -21 11 -8 13 -10 14 -11 4 0 -12 -3 -11 -12
2 -18 23 -68 29 -95 12 -16 -11 -24 -12 -29 -3 -5 7 -3 8 6 3 9 -5 11 -4 6 3
-5 8 -15 8 -32 1 -23 -8 -25 -7 -20 7 5 14 4 15 -9 4 -12 -10 -15 -10 -15 4 0
10 -4 15 -9 11 -5 -3 -20 5 -33 18 -13 12 -34 22 -48 22 -14 0 -28 5 -32 10
-5 6 -8 6 -8 -1z m167 -759 c0 -8 -4 -12 -9 -9 -4 3 -8 -2 -8 -10 0 -9 -9 -21
-20 -28 -11 -7 -20 -18 -20 -24 0 -7 -7 -15 -16 -18 -8 -3 -12 -11 -8 -17 5
-8 3 -9 -6 -4 -10 6 -12 4 -7 -7 4 -12 1 -14 -14 -11 -25 7 -36 25 -13 21 12
-2 18 2 16 10 -1 8 2 11 10 6 7 -4 10 -4 6 1 -4 4 0 14 10 22 15 13 15 13 -6
3 -12 -6 -27 -8 -32 -5 -6 3 -7 -1 -4 -9 3 -9 1 -16 -6 -16 -6 0 -9 4 -6 9 4
5 -2 8 -11 6 -10 -2 -21 -4 -25 -4 -4 -1 -6 -10 -5 -21 1 -12 7 -18 14 -16 7
3 17 -4 23 -14 10 -18 8 -19 -14 -10 -13 5 -26 6 -29 4 -3 -3 -10 4 -16 15 -7
12 -17 18 -26 15 -8 -4 -15 -1 -15 6 0 6 4 9 9 5 5 -3 12 -1 16 5 4 6 10 8 15
5 5 -3 11 -1 15 4 10 17 -49 1 -62 -16 -12 -15 -13 -15 -14 3 -1 10 -1 22 0
27 0 4 -5 7 -12 7 -24 0 -45 34 -30 48 7 7 13 9 13 5 0 -5 10 -10 22 -10 13
-1 24 -7 26 -13 2 -5 8 -8 13 -4 5 3 8 0 7 -8 -8 -37 148 -10 171 29 8 14 10
15 11 3 0 -10 5 -7 16 8 18 26 21 27 21 7z m683 -1400 c-6 -8 -9 -18 -6 -24 3
-5 3 -11 -1 -14 -5 -2 -2 -2 5 -1 19 5 43 -7 35 -19 -3 -5 -1 -7 5 -3 6 3 13
2 17 -4 3 -5 0 -10 -7 -11 -7 0 -4 -4 7 -8 11 -5 28 -7 38 -5 21 4 22 0 0 -17
-14 -12 -16 -12 -8 0 5 10 4 12 -4 7 -6 -4 -9 -12 -5 -17 3 -5 10 -7 15 -4 5
4 9 -3 9 -15 0 -12 5 -18 10 -15 6 3 10 -2 10 -12 1 -24 25 -55 35 -45 5 4 5
1 1 -5 -4 -8 -2 -13 6 -14 10 0 10 -2 0 -6 -6 -2 -9 -10 -6 -15 5 -7 2 -8 -6
-3 -8 5 -11 3 -8 -6 3 -8 10 -14 15 -14 6 0 15 -4 20 -9 4 -5 3 -6 -4 -2 -17
10 -26 -11 -13 -33 7 -14 7 -22 0 -26 -6 -4 -9 -1 -8 7 2 7 -4 12 -13 10 -9
-1 -16 4 -16 13 0 8 4 12 8 9 5 -3 1 9 -9 25 -9 16 -25 32 -35 35 -11 2 -16 9
-12 15 3 7 -3 11 -17 12 -14 1 -17 3 -7 6 11 3 15 12 11 28 -2 14 -8 22 -13
19 -5 -3 -10 0 -10 5 -1 6 -3 16 -4 21 -1 6 -3 15 -4 21 -1 8 -6 8 -16 -1 -11
-9 -15 -9 -15 -1 0 7 -4 9 -10 6 -5 -3 -10 -1 -10 6 0 6 -7 17 -17 24 -13 9
-13 14 -3 20 8 5 11 4 7 -2 -3 -5 0 -10 7 -10 11 0 12 4 3 18 -8 13 -6 23 7
44 13 20 15 30 7 38 -6 6 -11 16 -11 21 0 6 7 0 16 -12 12 -18 13 -26 4 -37z
m-2399 -7239 c-6 -7 -8 -21 -5 -30 6 -15 9 -15 32 6 17 16 26 19 29 11 3 -7 9
-13 14 -13 6 0 7 5 4 10 -3 6 -2 10 3 10 8 0 23 -23 26 -40 1 -3 11 -20 24
-37 13 -18 20 -33 16 -33 -4 0 0 -6 10 -13 16 -12 16 -14 2 -14 -9 0 -16 4
-16 9 0 5 -4 6 -10 3 -5 -3 -10 -1 -10 5 0 6 -5 8 -12 4 -7 -5 -8 -3 -3 6 5 8
3 11 -6 8 -8 -3 -13 -14 -12 -24 1 -10 0 -13 -3 -7 -4 10 -9 9 -20 -2 -18 -18
-50 -9 -34 10 8 9 6 14 -6 19 -10 4 -22 1 -27 -6 -6 -9 -7 -7 -3 7 6 20 6 20
-9 1 -10 -13 -15 -15 -15 -6 0 9 -4 8 -14 -5 -7 -10 -21 -20 -31 -21 -9 -1
-15 0 -12 3 3 2 8 3 11 1 6 -4 40 42 42 57 0 5 2 12 3 15 8 17 8 40 0 40 -5 0
-9 5 -9 11 0 5 4 8 9 5 5 -3 14 1 21 9 7 8 15 15 17 15 3 0 0 -6 -6 -14z"/>
<path d="M2734 9562 c5 -8 -4 -13 -42 -22 -4 -1 -13 -6 -19 -12 -7 -6 -13 -8
-13 -4 0 3 -9 -3 -20 -14 -12 -12 -25 -18 -30 -15 -13 8 -43 -42 -37 -59 4
-10 1 -13 -9 -9 -7 3 -14 1 -14 -5 0 -6 -3 -18 -6 -26 -5 -13 -2 -15 12 -9 18
7 18 6 2 -11 -10 -9 -18 -26 -18 -37 0 -11 -4 -18 -9 -15 -4 3 -6 -6 -3 -19 2
-14 9 -22 15 -18 6 3 7 1 3 -6 -4 -6 -12 -9 -17 -6 -9 6 -11 1 -13 -27 -1 -7
-7 -19 -13 -26 -7 -7 -13 -22 -13 -33 0 -11 -6 -22 -14 -25 -8 -3 -13 -11 -10
-18 2 -6 -4 -21 -14 -31 -17 -18 -17 -21 -3 -33 9 -8 11 -11 4 -8 -18 10 -39
-3 -40 -25 -1 -12 -10 -27 -20 -35 -17 -13 -17 -14 2 -7 16 5 15 1 -7 -20 -29
-27 -38 -53 -15 -42 6 4 4 0 -6 -8 -14 -11 -15 -16 -5 -20 9 -4 7 -6 -4 -6 -9
-1 -20 -6 -24 -13 -5 -8 -2 -9 11 -4 15 5 16 4 5 -9 -7 -8 -17 -12 -23 -8 -6
3 -7 1 -3 -5 4 -7 0 -21 -8 -33 -8 -12 -12 -27 -10 -34 3 -7 -2 -15 -11 -19
-9 -3 -13 -10 -10 -16 3 -5 1 -10 -5 -10 -6 0 -8 -4 -5 -10 3 -5 2 -10 -2 -10
-15 0 -34 -63 -22 -71 7 -4 4 -9 -10 -14 -25 -8 -29 -27 -3 -19 9 2 7 -1 -5
-7 -26 -14 -29 -28 -10 -49 10 -12 9 -12 -5 -1 -23 17 -50 -32 -37 -69 8 -23
8 -24 -6 -6 -13 17 -15 17 -21 3 -3 -10 -4 -24 -1 -31 4 -10 1 -13 -9 -9 -10
4 -14 -2 -14 -22 0 -15 -4 -24 -10 -20 -6 3 -7 -1 -4 -9 4 -10 1 -16 -7 -16
-7 0 -9 -3 -6 -7 4 -3 0 -17 -8 -30 -9 -13 -13 -28 -10 -32 3 -5 0 -11 -5 -13
-6 -2 -12 -11 -14 -21 -1 -9 -11 -24 -22 -33 -18 -14 -18 -15 6 -9 l25 6 -25
-15 c-14 -9 -20 -16 -15 -16 6 0 4 -4 -3 -9 -7 -4 -14 -14 -16 -22 -1 -8 -8
-24 -15 -37 -7 -13 -13 -35 -15 -50 -1 -17 -7 -26 -16 -24 -11 3 -11 0 1 -14
8 -10 9 -15 4 -12 -6 4 -17 -3 -25 -15 -12 -20 -12 -21 4 -8 14 12 16 12 10
-3 -3 -9 -10 -16 -16 -16 -5 0 -6 -5 -3 -10 4 -6 10 -8 14 -6 4 3 8 -1 8 -9 0
-11 -4 -12 -14 -4 -9 9 -13 8 -13 0 0 -7 -4 -10 -8 -7 -4 3 -7 -8 -6 -24 1
-16 -3 -31 -10 -33 -6 -3 -11 -18 -10 -33 1 -16 -3 -34 -8 -41 -5 -7 -7 -17
-3 -23 3 -5 2 -10 -3 -10 -15 0 -23 -43 -9 -52 8 -5 7 -8 -5 -8 -10 0 -15 -5
-12 -13 2 -7 -5 -23 -16 -35 -13 -14 -16 -22 -8 -22 10 0 10 -2 -1 -9 -8 -5
-10 -14 -6 -21 5 -8 4 -11 -3 -6 -11 7 -27 -44 -25 -81 2 -16 -2 -21 -15 -17
-14 5 -14 4 -3 -4 12 -9 12 -13 2 -26 -11 -14 -11 -16 5 -17 18 0 18 -1 -1 -9
-19 -8 -19 -8 -1 -16 18 -7 18 -8 -5 -16 -17 -7 -20 -11 -10 -17 8 -5 9 -11 3
-15 -5 -3 -9 -19 -8 -36 1 -16 -2 -30 -7 -30 -5 0 -4 -7 3 -15 7 -8 8 -15 3
-15 -11 0 -11 -29 0 -47 4 -7 0 -16 -10 -22 -11 -6 -13 -11 -5 -11 7 0 10 -5
7 -11 -7 -10 -15 -71 -19 -136 -1 -18 -5 -35 -9 -39 -4 -4 -1 -14 6 -22 10
-13 9 -14 -2 -7 -11 6 -13 2 -8 -23 5 -22 3 -32 -6 -32 -9 0 -8 -3 1 -9 11 -7
10 -9 -3 -14 -14 -6 -14 -9 2 -34 12 -18 13 -24 4 -19 -9 6 -12 5 -9 -5 3 -8
1 -22 -3 -31 -6 -10 -5 -19 2 -24 8 -4 7 -9 -2 -15 -10 -6 -10 -9 -2 -9 7 0
10 -7 7 -15 -4 -8 -9 -13 -13 -11 -3 2 -6 -20 -6 -50 0 -30 -3 -54 -6 -54 -4
0 -5 -14 -3 -32 2 -17 -2 -38 -9 -46 -9 -12 -9 -14 0 -9 9 6 12 -5 10 -38 -1
-25 -5 -45 -9 -45 -4 0 -5 -11 -2 -25 3 -16 0 -25 -8 -25 -8 0 -9 -3 -3 -8 12
-8 13 -22 2 -39 -5 -7 -4 -13 1 -13 5 0 10 -19 11 -42 3 -62 4 -68 11 -68 3 0
7 -16 8 -35 3 -55 5 -65 14 -65 4 0 8 -5 8 -11 0 -5 -6 -7 -12 -3 -10 6 -10 5
-1 -7 6 -8 13 -34 15 -59 2 -25 7 -51 12 -58 4 -7 2 -12 -6 -12 -8 0 -9 -3 -2
-8 5 -4 11 -25 13 -47 1 -22 7 -43 14 -47 9 -6 8 -8 -3 -8 -12 0 -12 -2 -2 -9
7 -4 12 -12 11 -17 -4 -21 2 -35 11 -29 6 3 7 -1 4 -9 -3 -9 -11 -13 -18 -9
-8 5 -8 3 1 -8 6 -8 11 -18 11 -24 0 -5 9 -12 19 -16 17 -7 17 -8 -2 -9 -11
-1 -14 -4 -7 -7 6 -2 12 -9 12 -14 0 -6 -6 -7 -12 -3 -9 5 -9 3 1 -9 7 -9 18
-14 25 -10 8 4 7 2 -1 -7 -13 -14 -6 -43 8 -34 5 3 10 -6 11 -20 0 -14 1 -32
2 -38 1 -7 6 -16 11 -20 6 -5 4 -12 -5 -18 -13 -8 -13 -10 2 -10 11 0 15 -5
12 -14 -3 -8 0 -17 7 -22 8 -5 10 -3 4 6 -6 9 -4 11 4 6 9 -6 8 -13 -6 -28
-18 -21 -18 -21 7 -8 22 12 23 11 13 -2 -10 -11 -10 -17 0 -28 10 -10 9 -12
-6 -7 -21 8 -6 -28 15 -36 7 -3 4 -6 -6 -6 -20 -1 -20 -1 0 -17 10 -8 12 -12
4 -8 -12 5 -12 4 -3 -6 6 -7 9 -19 6 -28 -5 -11 -3 -13 6 -7 10 5 11 2 6 -14
-4 -12 -2 -21 4 -21 6 0 8 -6 5 -14 -3 -8 0 -17 7 -22 8 -5 10 -3 4 6 -5 8 -4
11 2 7 6 -4 8 -18 5 -32 -2 -15 0 -25 7 -25 6 0 11 -12 11 -26 0 -16 4 -23 12
-18 8 5 9 0 6 -14 -4 -12 -2 -22 3 -22 4 0 13 -10 20 -21 9 -17 8 -20 -3 -13
-10 6 -11 5 -1 -8 7 -8 9 -19 5 -23 -4 -5 -2 -5 5 -2 7 5 16 -6 23 -28 6 -19
16 -35 22 -35 6 0 7 -7 4 -16 -4 -10 -2 -13 6 -8 8 5 9 2 5 -9 -4 -11 -1 -17
8 -17 7 0 17 -4 20 -10 4 -6 -1 -7 -12 -4 -17 5 -17 5 -1 -9 10 -8 14 -18 10
-22 -4 -5 1 -5 11 -2 15 6 16 4 6 -14 -8 -15 -8 -19 0 -15 6 4 11 2 11 -4 0
-6 5 -8 12 -4 7 4 8 3 4 -4 -4 -6 2 -19 13 -28 11 -10 17 -24 13 -32 -3 -10
-1 -13 6 -8 7 4 12 1 12 -8 0 -9 4 -16 9 -16 10 0 27 -39 22 -54 -1 -5 4 -4
12 2 11 9 16 7 25 -14 7 -14 17 -22 22 -19 6 3 10 1 10 -5 0 -6 4 -8 10 -5 5
3 10 -2 10 -11 0 -10 3 -15 6 -11 3 3 18 -5 32 -19 15 -13 32 -24 39 -24 7 0
13 -4 13 -9 0 -5 11 -8 24 -7 16 2 23 -1 19 -9 -2 -7 1 -16 8 -21 8 -5 10 -3
5 7 -4 8 -1 6 7 -3 8 -10 20 -18 27 -18 7 0 24 -12 38 -28 21 -21 24 -23 19
-7 -7 19 -6 19 7 1 9 -11 20 -15 28 -10 9 6 9 3 -1 -10 -12 -15 -12 -17 0 -14
8 2 17 8 21 13 4 6 8 2 8 -7 0 -10 5 -18 11 -18 5 0 7 -6 3 -12 -4 -8 -3 -10
2 -5 5 5 9 13 9 18 0 5 4 8 10 7 5 -2 8 -9 7 -17 -2 -9 2 -12 14 -7 14 5 15 4
4 -9 -11 -13 -10 -14 4 -9 9 3 16 1 16 -6 0 -6 4 -9 9 -5 5 3 13 -4 16 -15 5
-17 10 -19 21 -9 11 9 14 9 14 -1 0 -10 3 -10 15 0 12 10 18 10 32 -1 15 -13
15 -12 3 11 -12 23 -12 24 3 11 10 -7 17 -10 17 -7 0 4 10 1 23 -5 19 -11 20
-10 10 2 -10 12 -8 15 8 15 10 0 19 -4 19 -8 0 -12 23 -5 38 12 7 8 12 11 11
5 -3 -22 2 -29 11 -15 7 11 10 12 10 2 0 -10 4 -9 16 2 8 9 20 14 25 10 6 -3
16 0 24 6 8 6 23 9 35 5 11 -3 20 -2 20 4 0 5 12 8 26 5 14 -3 23 -1 20 4 -3
5 8 8 24 7 29 -2 34 4 31 35 -1 11 1 11 9 -3 6 -9 8 -23 4 -30 -6 -9 -5 -9 8
0 8 7 19 9 23 5 5 -4 5 -1 1 6 -6 11 11 17 37 13 4 0 7 4 7 10 0 6 9 9 20 6
11 -3 18 -1 15 4 -3 4 5 11 19 15 14 3 30 12 36 19 6 8 20 12 31 10 11 -2 17
0 14 6 -6 8 8 13 28 10 4 0 7 4 7 10 0 5 5 7 10 4 6 -3 10 -2 10 4 0 5 10 13
23 16 12 4 33 17 46 29 14 12 21 15 17 6 -4 -8 2 -4 13 9 12 13 21 19 21 15 0
-5 5 -1 11 9 5 9 16 17 24 17 8 0 19 9 25 20 6 11 16 17 22 14 7 -5 9 -1 5 9
-3 10 -2 17 2 17 5 0 12 -6 14 -12 3 -8 6 -6 6 5 1 9 6 17 12 17 5 0 7 6 3 13
-4 6 -4 9 1 5 10 -10 37 11 29 23 -3 5 2 9 11 9 11 0 15 5 11 15 -3 8 0 14 7
12 7 -1 11 4 10 11 -2 6 5 12 15 12 14 0 15 2 2 10 -13 8 -13 10 2 10 12 0 19
11 24 35 6 32 14 40 38 36 5 -1 3 5 -4 15 -12 14 -12 18 3 29 9 6 14 15 10 19
-4 4 -1 11 7 16 13 8 13 10 1 10 -10 0 -8 6 7 21 12 11 20 24 17 30 -4 5 -1 9
5 9 6 0 8 5 4 12 -5 8 -2 9 11 4 15 -5 16 -4 5 9 -10 12 -10 15 4 15 9 0 16 7
16 16 0 8 5 12 10 9 6 -3 10 1 10 10 0 11 5 15 15 11 10 -4 15 1 15 14 0 11 4
19 9 17 5 -1 9 1 10 5 1 5 18 24 39 44 20 21 28 31 17 23 -18 -12 -17 -11 1 7
13 12 20 25 16 30 -4 4 2 4 13 0 11 -4 16 -4 12 0 -4 4 -1 14 6 22 9 13 9 14
0 8 -8 -4 -13 -1 -13 9 0 9 5 13 11 9 7 -4 10 -1 7 7 -3 8 -14 13 -24 11 -14
-2 -16 -1 -5 6 11 8 11 10 0 14 -8 3 -2 5 13 5 15 0 26 -3 23 -7 -2 -3 2 -7
10 -7 8 0 12 4 9 9 -7 11 22 39 31 30 4 -4 5 0 3 8 -2 8 2 14 8 13 7 -1 15 9
18 23 5 19 11 24 24 19 9 -3 13 -3 10 0 -9 10 49 65 68 65 8 0 12 5 9 10 -6 9
8 14 28 11 5 -1 6 3 2 9 -3 5 1 10 10 10 10 0 13 5 9 11 -5 8 1 10 19 7 14 -3
26 -2 25 1 -3 28 4 40 19 34 12 -5 14 -3 8 7 -6 9 -4 12 7 8 8 -4 15 -1 16 5
0 7 2 21 4 32 2 12 -2 19 -10 17 -8 -1 -11 2 -7 9 5 8 10 8 18 0 14 -14 27
-14 27 -1 0 24 -37 29 -60 8 -16 -15 -24 -18 -30 -8 -5 9 -9 9 -14 1 -9 -14
-26 -14 -26 0 0 5 4 8 9 4 5 -3 12 -1 16 4 3 6 13 7 23 4 15 -5 14 -3 -3 18
-11 13 -13 18 -5 12 16 -12 42 -3 41 13 0 5 6 9 15 9 8 0 19 7 25 15 8 11 10
12 7 1 -6 -23 32 -58 58 -53 13 2 21 8 18 13 -3 5 5 9 18 9 18 0 20 2 8 10
-12 7 -12 12 -2 22 16 16 16 33 -1 19 -10 -8 -17 -7 -27 2 -8 7 -11 8 -7 1 12
-21 -16 -34 -37 -18 -11 8 -16 14 -11 14 5 0 4 5 -3 12 -7 7 -12 16 -12 21 0
5 8 -1 19 -14 l18 -23 -4 31 c-4 23 -10 30 -27 29 -23 -2 -69 -30 -61 -38 3
-2 -2 -5 -10 -5 -10 0 -12 4 -5 12 6 8 4 18 -6 31 -12 15 -15 15 -11 2 5 -14
-8 -17 -33 -8 -3 1 -9 1 -15 0 -14 -2 -6 5 53 49 37 27 48 41 40 49 -6 6 -7
16 -2 24 9 14 11 19 13 46 1 13 5 12 15 -8 8 -14 12 -28 10 -32 -6 -10 10 -11
19 -1 4 3 2 12 -5 20 -8 11 -8 17 2 26 10 9 11 9 6 -1 -4 -7 -2 -19 4 -27 9
-11 5 -20 -22 -45 -21 -19 -27 -30 -16 -28 9 2 16 -1 16 -7 -1 -5 -11 -9 -22
-7 -21 3 -21 3 -1 -14 20 -16 19 -16 -5 -9 -20 6 -23 5 -13 -6 17 -17 43 -20
43 -6 0 8 3 7 9 -2 5 -8 11 -9 15 -3 3 6 2 14 -4 17 -8 5 -7 11 1 22 10 12 10
16 -1 23 -8 5 -11 12 -7 16 4 5 17 -2 29 -14 16 -15 18 -22 8 -22 -9 0 -8 -4
6 -15 19 -14 19 -14 -2 -9 -14 4 -21 1 -21 -9 0 -17 19 -16 41 2 9 7 16 10 16
6 0 -4 6 -2 13 4 8 6 17 8 20 4 4 -3 7 1 7 10 0 9 7 17 15 17 8 0 12 6 9 14
-4 11 0 13 15 9 13 -3 21 -1 21 6 0 7 -4 10 -8 7 -5 -3 -9 1 -9 9 0 11 4 12
13 4 8 -6 14 -6 18 0 3 5 0 12 -6 14 -8 3 -6 6 5 6 9 1 17 5 17 10 0 5 7 16
15 24 13 13 13 16 -1 21 -10 4 -13 2 -8 -6 4 -6 3 -8 -3 -5 -6 4 -10 -1 -9
-10 0 -9 -6 -18 -14 -20 -13 -4 -13 -3 0 6 13 9 12 12 -5 26 -18 14 -18 14 -1
9 16 -6 17 -5 7 17 -11 21 -10 22 2 7 13 -17 15 -16 35 5 24 26 29 42 10 32
-7 -4 -4 1 6 9 13 11 15 16 6 16 -7 0 -10 3 -7 7 4 3 -1 15 -10 25 -15 17 -15
18 -1 13 13 -5 15 -2 11 15 -4 16 -8 18 -14 8 -6 -9 -9 -9 -9 -1 0 6 5 15 10
18 6 4 8 11 5 16 -4 5 2 9 12 9 14 0 15 2 5 9 -11 7 -10 10 3 15 9 3 21 3 26
0 5 -3 9 -2 8 3 -3 13 12 43 20 39 11 -7 5 54 -7 66 -13 13 -52 19 -52 8 0 -4
-11 -6 -25 -5 -14 2 -25 -2 -25 -8 0 -7 -5 -5 -10 3 -7 11 -10 11 -10 2 0 -7
-4 -10 -10 -7 -5 3 -10 1 -10 -4 0 -6 -9 -11 -21 -11 -11 0 -18 -3 -16 -7 3
-5 -9 -9 -26 -10 -17 -1 -33 -7 -37 -13 -4 -6 -11 -10 -16 -9 -15 4 -98 -24
-106 -36 -4 -5 -8 -6 -8 -1 0 5 -8 2 -17 -5 -15 -12 -16 -12 -8 1 5 9 0 8 -13
-4 -12 -11 -25 -17 -28 -13 -3 3 -11 1 -18 -4 -16 -15 -80 -53 -88 -54 -4 0
-16 -8 -28 -17 -11 -10 -20 -14 -20 -10 0 4 -5 -1 -11 -10 -5 -10 -17 -18 -24
-18 -8 0 -15 -5 -15 -11 0 -5 -4 -7 -10 -4 -5 3 -10 0 -10 -8 0 -7 -11 -19
-25 -25 -14 -6 -25 -16 -25 -22 0 -6 -4 -9 -9 -6 -5 3 -11 -1 -15 -9 -3 -8
-13 -15 -21 -15 -9 0 -13 -4 -10 -10 3 -5 0 -10 -8 -10 -8 0 -18 -7 -21 -16
-4 -9 -9 -15 -11 -12 -3 3 -22 -11 -43 -31 -21 -20 -50 -45 -65 -56 -15 -11
-27 -26 -27 -33 0 -7 -6 -20 -12 -27 -35 -39 -37 -42 -25 -55 9 -10 9 -11 0
-6 -6 3 -14 2 -18 -4 -4 -6 -11 -8 -16 -5 -5 3 -6 -1 -3 -9 4 -11 0 -16 -11
-16 -9 0 -13 -4 -10 -10 3 -5 1 -10 -4 -10 -6 0 -11 -7 -11 -16 0 -8 -4 -13
-9 -10 -11 7 -23 -22 -16 -35 4 -5 -1 -6 -9 -3 -9 3 -17 -3 -21 -18 -4 -13
-15 -32 -24 -42 -13 -15 -13 -18 -1 -11 13 8 13 6 2 -8 -8 -9 -10 -22 -6 -28
5 -8 3 -9 -6 -4 -9 6 -10 2 -4 -16 4 -13 7 -30 7 -36 0 -7 3 -13 7 -13 3 0 6
-11 6 -25 0 -14 -5 -25 -10 -25 -6 0 -4 -5 4 -10 8 -5 11 -10 6 -10 -5 0 -3
-7 4 -15 11 -13 10 -14 -3 -10 -21 9 -30 -10 -17 -35 8 -15 8 -18 -3 -14 -8 3
-14 -2 -14 -10 0 -8 4 -13 8 -11 4 3 2 -6 -4 -19 -7 -13 -14 -23 -18 -20 -3 2
-5 -8 -3 -21 1 -14 -2 -25 -8 -25 -6 0 -7 -8 -4 -17 4 -10 4 -14 0 -10 -4 4
-16 -7 -26 -24 -11 -17 -23 -27 -30 -23 -7 4 -8 3 -4 -5 4 -6 11 -9 16 -6 5 3
3 -7 -5 -21 -8 -15 -12 -31 -9 -36 3 -4 0 -8 -6 -8 -7 0 -10 -7 -6 -15 3 -9 0
-15 -10 -15 -8 0 -13 -4 -10 -8 7 -12 -33 -44 -44 -37 -6 4 -10 2 -10 -4 0 -6
-11 -13 -25 -17 -14 -3 -25 -11 -25 -16 0 -6 -7 -7 -15 -4 -10 4 -19 -2 -24
-16 -4 -13 -10 -17 -14 -11 -4 6 -16 9 -27 6 -13 -3 -20 0 -20 9 0 11 -14 12
-82 5 -46 -5 -93 -9 -104 -10 -13 -1 -19 -7 -17 -14 6 -16 -13 -17 -22 -3 -5
8 -11 8 -19 1 -7 -6 -16 -8 -19 -4 -4 3 -7 0 -7 -7 0 -11 -3 -11 -11 -3 -9 9
-16 8 -27 -4 -14 -14 -17 -13 -29 3 -8 11 -13 13 -13 5 0 -11 -3 -11 -15 -1
-11 9 -15 9 -15 1 0 -7 -5 -9 -12 -5 -20 13 -49 12 -40 -1 4 -6 -1 -2 -10 8
-13 13 -18 15 -18 6 -1 -9 -4 -8 -11 4 -7 12 -17 16 -31 11 -14 -4 -18 -2 -14
5 4 6 1 11 -6 11 -7 0 -24 18 -38 40 -13 22 -29 40 -36 40 -6 0 -15 7 -18 16
-4 10 -13 14 -28 10 -13 -3 -17 -3 -10 0 19 9 14 34 -6 34 -21 0 -42 38 -42
75 0 14 -4 25 -10 25 -5 0 -10 6 -10 14 0 8 -9 18 -21 21 -16 5 -18 9 -8 21
10 12 9 13 -6 8 -13 -5 -16 -4 -11 4 4 7 2 12 -4 12 -6 0 -8 5 -5 10 3 6 1 10
-5 10 -6 0 -8 6 -4 13 4 6 -3 3 -17 -8 -15 -13 -19 -14 -11 -3 18 23 2 105
-19 92 -5 -3 -9 9 -9 26 0 18 -4 29 -10 25 -6 -3 -10 -2 -10 4 0 5 6 12 13 14
10 4 10 6 0 6 -7 1 -13 13 -13 27 0 17 -4 23 -12 18 -9 -5 -9 -2 1 9 9 11 10
17 2 17 -6 0 -11 5 -11 11 0 5 5 7 12 3 7 -5 8 -3 2 7 -5 8 -10 36 -12 63 -2
34 -9 55 -22 66 -11 10 -20 21 -20 25 0 5 8 1 18 -8 16 -15 19 -15 19 -2 0 8
-5 15 -10 15 -5 0 -4 7 3 15 7 8 10 16 6 16 -3 1 -10 3 -16 4 -5 1 -14 3 -20
4 -5 0 -10 9 -9 19 0 10 3 12 6 4 2 -6 10 -9 15 -6 7 4 8 2 4 -4 -5 -8 -1 -10
9 -6 14 6 13 8 -5 21 -11 8 -20 19 -20 25 0 7 6 4 13 -7 11 -14 16 -15 22 -5
5 8 4 11 -1 7 -6 -3 -16 4 -23 15 -11 18 -11 20 3 15 10 -4 13 -1 9 8 -3 8 -9
13 -13 10 -4 -3 -10 2 -13 10 -4 10 -1 12 11 9 13 -5 14 -4 3 4 -8 6 -11 17
-8 26 4 9 1 16 -6 16 -7 0 -18 9 -25 21 -12 19 -11 20 10 14 16 -4 19 -3 10 3
-17 12 -17 22 0 33 10 7 10 9 0 9 -7 0 -10 4 -7 10 3 5 -2 22 -12 37 -17 27
-17 28 1 13 18 -14 19 -14 7 8 -6 12 -9 27 -6 32 3 5 1 12 -5 15 -6 4 -10 32
-8 63 1 31 -2 63 -6 71 -7 11 -5 13 6 9 8 -4 15 0 15 7 0 8 -3 14 -6 13 -23
-2 -35 3 -23 10 10 7 10 14 -1 35 -8 15 -18 23 -23 19 -4 -4 -3 0 4 10 10 12
10 18 1 24 -8 5 -10 3 -4 -7 5 -8 -1 -5 -13 5 -15 13 -22 15 -22 6 0 -7 -3
-11 -6 -7 -12 12 7 28 21 17 8 -7 16 -7 19 -2 3 6 -1 13 -10 16 -14 5 -14 9
-3 23 12 15 11 16 -9 11 -12 -4 -20 -2 -16 3 3 5 12 9 20 9 13 0 13 2 -1 16
-9 9 -14 23 -11 30 3 8 2 14 -2 14 -4 0 -9 9 -10 20 -4 44 -6 49 -20 55 -10 4
-13 0 -9 -15 3 -12 1 -18 -5 -14 -6 4 -8 -1 -3 -15 4 -13 2 -21 -5 -21 -6 0
-8 -5 -5 -10 4 -6 11 -7 17 -4 7 5 8 2 3 -6 -5 -8 -1 -18 10 -27 11 -7 14 -13
9 -13 -6 0 -15 5 -21 11 -9 9 -12 7 -10 -10 1 -12 6 -20 12 -17 7 2 12 -2 12
-10 0 -7 -4 -11 -9 -8 -4 3 -8 -2 -8 -11 0 -13 4 -14 23 -5 21 11 21 10 3 -4
-10 -9 -23 -13 -27 -10 -12 7 -11 -7 1 -26 9 -13 10 -13 10 0 1 12 3 11 11 -3
6 -9 15 -14 21 -11 7 4 8 2 4 -4 -4 -7 -3 -12 2 -12 5 0 9 -6 9 -12 1 -25 8
-43 23 -55 21 -18 -1 -15 -24 2 -11 8 -15 15 -8 15 9 0 9 6 0 25 -8 19 -14 22
-20 13 -11 -19 -10 -30 4 -22 7 4 8 3 4 -5 -12 -18 -27 -1 -20 22 5 18 4 20
-7 10 -7 -7 -18 -13 -24 -13 -5 0 -3 4 5 10 12 8 12 10 -4 16 -14 5 -15 9 -4
15 8 6 9 12 3 17 -5 4 -11 16 -13 27 -2 16 -1 17 7 5 9 -12 11 -11 11 8 0 13
-4 20 -10 17 -6 -4 -9 -3 -8 2 1 4 -4 19 -11 32 -8 14 -9 21 -2 17 6 -4 11 -2
11 3 0 6 -5 11 -12 11 -6 0 -3 7 8 15 16 13 17 14 1 9 -18 -6 -19 28 -2 56 3
6 -4 14 -17 19 -19 8 -20 10 -4 10 15 1 16 4 6 16 -7 8 -8 15 -3 15 5 0 9 9
10 21 2 18 0 19 -15 7 -15 -12 -16 -11 -3 4 7 10 17 15 22 12 5 -3 9 0 9 5 0
6 -4 11 -10 11 -5 0 -10 5 -10 10 0 6 8 5 19 -2 13 -8 17 -16 11 -23 -6 -7 -5
-16 3 -24 9 -10 9 -11 -3 -6 -11 4 -16 -1 -17 -16 -2 -18 0 -19 15 -7 15 12
16 11 4 -4 -15 -18 -3 -31 33 -35 11 -1 14 1 7 3 -6 3 -9 11 -5 17 4 7 0 8
-11 4 -10 -4 -15 -3 -11 3 3 6 14 10 23 10 15 0 15 2 2 10 -12 8 -13 13 -3 29
8 13 9 22 3 26 -6 3 -10 13 -10 21 0 10 5 12 13 8 9 -6 9 -5 0 7 -10 12 -10
18 0 29 9 10 9 11 0 6 -7 -4 -13 -2 -13 3 0 6 5 11 11 11 8 0 7 6 -2 17 -8 9
-9 14 -3 10 6 -3 11 0 11 7 0 8 -8 11 -19 8 -10 -2 -18 -9 -18 -16 0 -6 -5 -4
-10 4 -5 8 -10 20 -10 25 0 6 5 3 10 -5 8 -13 10 -12 10 3 0 11 8 17 23 17 18
0 19 2 7 10 -13 8 -13 10 2 10 11 0 18 12 23 43 4 23 11 49 16 58 4 9 5 19 2
23 -12 12 -12 36 0 36 7 0 6 4 -2 9 -10 7 -12 14 -5 23 11 15 11 38 1 55 -4 7
0 24 9 38 9 14 14 28 10 32 -3 3 0 13 7 21 9 13 9 14 0 8 -9 -5 -11 -2 -7 8 3
9 11 16 18 17 6 0 2 4 -9 9 -17 7 -18 9 -2 9 13 1 16 7 13 26 -3 14 0 25 6 25
6 0 8 3 5 7 -4 3 -1 13 6 21 9 12 9 14 0 9 -9 -6 -11 3 -8 33 2 26 0 40 -8 40
-9 0 -9 2 0 8 12 7 12 22 0 52 -10 27 -14 69 -6 65 4 -3 10 -1 14 5 3 5 0 10
-7 10 -10 0 -10 2 1 9 8 5 12 18 8 30 -3 12 -2 19 2 16 4 -2 8 2 8 9 0 9 -7
12 -16 8 -13 -5 -14 -4 -1 10 8 8 19 14 25 12 6 -2 10 11 10 31 0 19 -3 35 -7
35 -4 0 -3 13 2 29 4 16 6 32 2 35 -3 3 -1 6 5 6 5 0 9 14 8 30 -1 17 2 30 7
30 4 0 7 3 7 8 -1 4 0 10 1 15 1 4 4 12 5 17 1 6 3 11 5 13 1 1 2 20 3 42 2
22 6 46 10 53 5 6 5 12 1 12 -4 0 1 7 12 16 10 8 13 13 7 9 -14 -7 -7 51 8 71
5 6 6 14 2 17 -3 4 0 13 7 22 7 8 14 25 15 38 4 37 5 38 18 31 6 -4 9 -4 5 1
-4 4 -3 17 3 28 8 14 8 18 0 12 -9 -5 7 30 37 80 3 5 7 16 8 25 10 68 27 146
34 155 7 9 15 46 19 98 1 5 5 6 10 3 5 -4 7 3 4 14 -3 12 0 20 7 20 10 0 10 3
0 15 -10 12 -10 15 3 15 9 0 14 7 12 18 -1 9 2 22 7 29 5 7 7 17 3 23 -3 5 -1
10 5 10 6 0 8 5 5 10 -3 6 -1 10 5 10 6 0 8 5 5 10 -4 6 -1 17 5 25 7 8 9 15
5 15 -4 0 -1 8 6 17 12 14 12 16 -1 9 -9 -4 -8 -2 2 7 10 8 15 17 11 20 -3 4
-1 7 5 7 8 0 9 7 2 26 -7 16 -7 23 0 19 9 -5 15 24 11 49 -1 5 5 6 14 2 11 -4
14 -2 8 6 -13 22 -10 46 4 41 9 -4 11 0 6 12 -4 12 0 23 12 31 10 8 15 17 12
21 -4 3 0 17 9 31 12 18 12 22 3 17 -8 -4 -3 3 11 14 15 12 20 21 11 21 -8 0
-2 11 15 27 16 15 28 31 26 36 -2 5 4 7 13 4 9 -4 15 -1 15 8 0 20 13 26 30
13 12 -8 11 -9 -5 -4 -17 5 -16 3 5 -15 14 -11 19 -18 12 -14 -11 6 -11 3 0
-14 7 -12 16 -21 21 -21 4 0 5 -4 2 -10 -3 -5 -3 -10 2 -11 4 0 15 -2 24 -4
17 -3 21 35 4 47 -6 5 -6 8 1 8 7 0 9 11 6 25 -2 14 -9 25 -15 25 -6 0 -8 3
-4 6 6 6 -4 21 -37 54 -15 15 -22 17 -28 8 -5 -9 -8 -9 -8 -2 0 14 -47 30 -95
33 -13 1 -16 4 -8 9 9 6 6 11 -8 21 -12 7 -18 8 -15 3z"/>
<path d="M7338 8155 c4 -5 8 -28 9 -49 3 -49 10 -55 29 -28 18 25 34 29 34 7
0 -14 12 -20 33 -16 4 1 0 -11 -10 -26 l-17 -28 22 19 c12 11 25 16 29 13 3
-4 1 -7 -6 -7 -7 0 -10 -4 -6 -9 3 -5 1 -12 -5 -16 -6 -4 -7 -12 0 -24 6 -12
5 -22 -2 -29 -8 -8 -8 -12 -1 -12 19 0 34 25 22 37 -7 7 -8 17 -2 28 9 16 10
16 16 1 4 -10 3 -15 -3 -11 -6 3 -10 1 -10 -4 0 -13 10 -14 30 -1 9 6 10 10 3
10 -6 0 -10 9 -8 20 2 12 -3 21 -16 25 -20 7 -20 7 -2 21 17 12 17 13 1 14
-10 0 -18 5 -18 10 0 6 -6 10 -12 9 -27 -3 -38 1 -38 15 0 8 -9 18 -20 21 -11
3 -20 10 -20 15 0 5 -9 8 -19 7 -11 -1 -17 -6 -13 -12z"/>
</g>
</svg>
