<?xml version="1.0" standalone="no"?>
<!DOCTYPE svg PUBLIC "-//W3C//DTD SVG 20010904//EN"
 "http://www.w3.org/TR/2001/REC-SVG-20010904/DTD/svg10.dtd">
<svg version="1.0" xmlns="http://www.w3.org/2000/svg"
 width="1024.000000pt" height="1024.000000pt" viewBox="0 0 1024.000000 1024.000000"
 preserveAspectRatio="xMidYMid meet">
<metadata>
Created by potrace 1.16, written by Peter Selinger 2001-2019
</metadata>
<g transform="translate(0.000000,1024.000000) scale(0.100000,-0.100000)"
fill="#000000" stroke="none">
<path d="M1885 10001 c-3 -6 -12 -8 -18 -5 -7 4 -9 3 -4 -1 4 -5 1 -15 -7 -24
-8 -9 -15 -20 -16 -26 -1 -5 -7 -9 -12 -7 -6 2 -8 -6 -5 -18 5 -18 3 -19 -11
-8 -10 8 -13 8 -9 1 8 -13 -40 -41 -66 -37 -11 1 -15 -5 -13 -24 1 -15 7 -26
13 -25 6 1 10 -5 9 -15 -3 -18 16 -42 33 -42 6 0 11 -7 11 -15 0 -8 4 -15 8
-15 5 0 30 -21 56 -46 31 -29 53 -43 63 -39 14 5 14 3 2 -12 -9 -11 -10 -14
-1 -9 8 5 12 1 13 -11 0 -12 2 -13 6 -5 4 10 9 8 20 -7 8 -12 23 -21 34 -21
11 0 18 -3 16 -7 -2 -5 4 -16 15 -25 10 -10 18 -15 18 -10 1 4 8 -5 16 -20 8
-16 18 -28 23 -28 5 0 11 -9 14 -20 3 -11 12 -23 22 -26 9 -4 34 -24 55 -45
22 -22 44 -39 50 -39 5 0 10 -6 10 -13 0 -14 90 -87 108 -87 5 0 12 -7 16 -15
3 -8 9 -14 13 -13 4 1 39 -28 77 -65 38 -37 78 -69 88 -73 12 -3 17 -12 14
-20 -3 -8 -2 -13 2 -10 8 5 38 -15 40 -26 1 -5 2 -13 2 -19 0 -5 5 -7 10 -4 6
3 10 -1 10 -10 0 -9 5 -13 10 -10 6 3 10 -1 10 -9 0 -9 4 -16 8 -16 5 0 17
-16 28 -35 10 -19 23 -35 28 -35 5 0 7 -3 3 -6 -6 -6 1 -17 36 -55 9 -10 17
-22 17 -27 0 -10 68 -72 79 -72 5 0 12 -7 15 -15 5 -14 97 -62 130 -68 6 -1
14 -6 18 -11 3 -5 24 -11 45 -12 21 -1 58 -5 83 -9 40 -5 149 -12 295 -17 63
-2 153 11 161 23 3 6 12 5 22 -3 9 -7 13 -8 9 -2 -6 11 42 38 68 39 6 1 20 6
32 13 22 12 40 2 29 -17 -5 -8 5 -20 57 -66 33 -29 31 -29 51 -10 8 8 25 17
38 19 13 3 24 5 26 7 1 1 6 2 12 3 14 2 36 26 23 26 -6 0 -14 -5 -16 -10 -3
-6 -4 -5 -3 2 1 7 13 15 27 19 23 7 23 7 2 8 -13 1 -23 6 -23 12 0 5 5 7 10 4
13 -8 9 17 -4 26 -5 4 -22 3 -37 -1 -20 -6 -29 -5 -29 3 0 19 13 32 35 35 11
2 22 8 25 12 3 4 20 10 38 13 19 3 41 12 50 19 32 26 80 48 166 77 108 37 146
54 146 65 0 4 7 6 15 2 8 -3 15 0 15 6 0 6 3 9 6 6 3 -4 14 2 25 13 10 10 26
19 35 19 8 0 12 5 9 10 -3 6 -2 10 4 10 16 0 61 53 61 72 0 10 5 18 11 18 10
0 41 63 37 77 0 5 2 16 6 25 14 30 58 1 56 -36 -1 -17 -1 -33 0 -36 3 -5 6
-24 13 -70 2 -14 7 -32 12 -40 5 -8 10 -37 11 -65 1 -27 3 -50 4 -50 12 0 19
-270 8 -310 -5 -16 -11 -41 -14 -55 -2 -14 -8 -34 -13 -45 -5 -11 -14 -33 -21
-50 -7 -16 -15 -39 -17 -49 -2 -11 -10 -33 -18 -49 -8 -17 -15 -41 -15 -54 0
-12 -4 -23 -10 -23 -5 0 -10 -9 -10 -20 0 -11 -5 -20 -11 -20 -5 0 -8 -4 -4
-9 3 -5 1 -12 -5 -16 -6 -4 -8 -10 -5 -15 3 -5 1 -11 -4 -14 -8 -6 -27 -82
-23 -97 1 -4 2 -23 4 -43 1 -20 6 -36 11 -36 4 0 6 -4 3 -9 -5 -8 -8 -25 -21
-121 -2 -14 -6 -35 -9 -48 -3 -16 -1 -20 7 -15 7 4 6 0 -2 -10 -7 -9 -12 -17
-10 -18 39 -7 49 -8 45 0 -3 5 2 12 11 15 10 4 14 4 11 0 -4 -3 -1 -13 7 -20
16 -16 29 -19 20 -4 -3 6 1 10 11 10 13 0 14 -3 4 -15 -7 -8 -9 -15 -4 -15 5
0 -4 -11 -20 -25 -16 -14 -25 -25 -20 -25 6 0 15 5 22 12 9 9 10 5 4 -18 -4
-16 -7 -49 -7 -74 1 -25 -4 -48 -10 -52 -6 -5 -6 -8 2 -8 8 0 5 -8 -7 -20 -11
-11 -20 -27 -20 -35 0 -8 -3 -15 -8 -15 -8 0 -34 -55 -32 -66 1 -4 -2 -10 -7
-13 -8 -6 -31 -50 -66 -131 -9 -19 -13 -38 -11 -42 3 -4 2 -8 -3 -8 -4 0 -14
-15 -22 -32 -8 -18 -22 -51 -32 -73 -9 -22 -23 -55 -30 -72 -8 -18 -17 -33
-21 -33 -5 0 -8 -7 -8 -15 0 -8 -4 -15 -9 -15 -5 0 -14 -14 -21 -31 -7 -17
-23 -37 -36 -46 -13 -8 -26 -23 -29 -34 -4 -11 -11 -17 -16 -14 -5 4 -9 -1 -9
-10 0 -10 -5 -13 -12 -9 -7 5 -9 2 -5 -8 3 -10 -3 -19 -19 -27 -13 -6 -24 -16
-24 -24 0 -7 -9 -19 -19 -27 -11 -7 -18 -17 -16 -21 3 -3 -7 -15 -20 -25 -36
-27 -34 -50 3 -28 l27 16 -24 -20 c-14 -11 -31 -18 -38 -15 -17 7 -17 -13 0
-21 6 -3 3 -4 -7 -3 -12 1 -25 -7 -31 -20 -7 -13 -15 -20 -18 -16 -4 3 -7 1
-7 -5 0 -6 -13 -25 -29 -41 -16 -16 -26 -32 -23 -35 3 -3 1 -6 -5 -6 -6 0 -9
-10 -6 -22 3 -17 2 -19 -5 -9 -8 11 -12 9 -23 -10 -7 -13 -12 -27 -11 -31 1
-4 -6 -4 -15 -1 -10 4 -14 2 -10 -4 3 -5 -3 -19 -13 -31 -11 -12 -20 -28 -20
-37 0 -10 -5 -13 -12 -9 -7 5 -9 2 -5 -9 4 -11 2 -14 -9 -10 -9 3 -14 -1 -14
-12 0 -10 -5 -13 -12 -9 -7 4 -8 3 -4 -5 10 -15 -13 -43 -27 -34 -5 3 -7 2 -4
-4 7 -12 -69 -84 -78 -75 -3 4 -3 -1 0 -10 4 -11 -3 -22 -24 -34 -16 -10 -28
-21 -25 -26 3 -4 2 -8 -3 -8 -4 -1 -21 -12 -38 -26 -16 -15 -23 -23 -15 -19 8
3 6 0 -5 -9 -50 -38 -63 -51 -59 -58 3 -4 0 -8 -6 -8 -6 0 -55 -44 -109 -97
-53 -54 -114 -113 -135 -130 -21 -18 -35 -33 -32 -33 11 0 -58 -71 -121 -125
-34 -29 -59 -56 -55 -61 4 -4 1 -4 -5 0 -7 4 -20 1 -29 -6 -35 -28 -145 -138
-138 -138 4 0 0 -6 -11 -13 -10 -8 -15 -19 -12 -24 4 -6 0 -14 -9 -17 -9 -4
-14 -13 -10 -22 3 -8 2 -12 -4 -9 -6 3 -10 3 -11 -2 -2 -19 -8 -46 -14 -61
-15 -34 -11 -68 8 -69 11 -1 15 3 11 10 -4 7 -4 9 1 5 11 -11 36 12 28 25 -3
5 -2 8 3 5 9 -6 35 16 34 27 0 3 4 13 9 23 6 9 11 12 11 7 0 -6 -5 -16 -12
-23 -9 -9 -9 -12 3 -12 10 -1 10 -3 -3 -11 -10 -5 -18 -17 -18 -25 0 -8 -4
-13 -9 -9 -5 3 -12 1 -16 -4 -3 -5 3 -14 12 -20 10 -6 13 -11 6 -11 -6 0 -15
4 -18 10 -4 6 -11 5 -19 -3 -8 -6 -12 -16 -9 -20 6 -11 -17 -38 -28 -32 -4 3
-6 -4 -4 -15 2 -11 -1 -20 -6 -20 -6 0 -8 -4 -5 -9 3 -5 -1 -14 -9 -21 -8 -7
-13 -16 -10 -20 2 -4 -4 -15 -15 -25 -11 -10 -17 -23 -13 -29 3 -6 0 -5 -8 2
-17 16 -32 16 -23 0 5 -9 2 -9 -9 1 -15 12 -20 9 -19 -9 0 -3 -16 -6 -36 -6
-20 -1 -38 -7 -40 -13 -2 -6 -8 -9 -13 -5 -5 3 -9 1 -9 -5 0 -5 -8 -10 -17
-10 -46 -2 -60 -5 -84 -22 -14 -10 -29 -16 -33 -12 -3 3 -6 1 -6 -6 0 -8 -6
-11 -16 -7 -10 4 -13 2 -8 -6 5 -8 2 -9 -9 -5 -19 7 -91 -36 -79 -47 3 -4 -2
-4 -12 0 -13 5 -17 4 -12 -4 4 -7 -1 -10 -13 -7 -13 2 -22 -3 -26 -16 -4 -11
-10 -17 -15 -14 -5 3 -12 0 -16 -6 -5 -8 -3 -9 6 -4 10 6 12 4 7 -8 -5 -13 -1
-16 19 -15 15 2 23 7 20 15 -3 7 -1 15 5 18 5 4 9 3 8 -2 -5 -26 1 -38 12 -23
8 11 9 9 3 -10 -6 -21 -5 -23 8 -13 8 7 18 10 22 6 4 -4 4 0 0 10 -3 10 -1 17
5 17 6 0 10 -3 10 -8 -5 -28 33 -44 47 -20 4 6 2 8 -4 4 -6 -3 -14 -1 -18 5
-5 8 -3 9 5 5 8 -5 11 -3 9 5 -1 8 2 14 7 14 5 0 8 -7 7 -14 -3 -12 -1 -12 10
-4 19 17 40 2 22 -15 -9 -8 -14 -9 -14 -2 0 6 -5 8 -10 5 -6 -4 -8 -11 -5 -16
4 -5 -1 -9 -10 -9 -9 0 -13 -5 -10 -10 4 -6 10 -8 15 -5 5 3 12 1 15 -5 4 -6
1 -9 -7 -8 -7 2 -13 -4 -13 -12 0 -8 -4 -21 -9 -29 -6 -9 -5 -12 1 -8 12 8 26
-20 18 -33 -3 -5 0 -12 6 -16 7 -4 9 -3 6 2 -3 6 -2 16 2 23 6 9 11 10 15 2 4
-6 2 -11 -3 -11 -6 0 -10 -6 -8 -13 1 -6 -6 -11 -15 -11 -11 1 -15 -5 -13 -18
2 -10 0 -16 -5 -13 -5 3 -18 -3 -30 -15 -11 -11 -25 -20 -31 -20 -5 0 -8 -4
-4 -9 3 -6 -4 -15 -15 -21 -11 -6 -18 -15 -15 -21 4 -5 1 -9 -5 -9 -7 0 -10
-7 -7 -14 4 -10 1 -13 -8 -10 -10 4 -13 -2 -11 -20 3 -23 1 -24 -12 -14 -11 9
-14 9 -9 1 4 -6 3 -14 -2 -18 -6 -3 -7 -13 -4 -22 5 -12 3 -14 -8 -8 -12 7
-12 6 -1 -7 8 -9 20 -14 28 -11 8 3 14 -1 14 -8 0 -11 2 -11 9 1 6 8 7 18 4
24 -4 5 -1 6 6 2 7 -5 10 -14 7 -22 -3 -8 -1 -14 4 -14 6 0 10 8 10 18 0 14 2
15 10 2 5 -8 10 -10 10 -4 0 16 29 26 47 16 8 -5 14 -12 14 -15 -1 -6 4 -9 12
-6 23 7 47 7 47 0 0 -5 11 -8 24 -7 13 0 24 5 23 10 -1 5 4 11 12 14 8 2 11 0
8 -5 -3 -5 0 -10 8 -10 8 0 11 5 8 10 -4 6 1 8 11 4 11 -5 15 -3 10 5 -5 8 -2
9 10 5 10 -4 24 -1 33 8 8 8 19 12 25 9 7 -4 8 -2 4 4 -4 7 -4 12 1 12 22 0
60 47 59 72 -1 20 2 24 10 17 8 -7 15 -6 20 2 4 8 3 9 -4 5 -13 -8 -15 4 -6
28 4 11 12 13 28 6 20 -7 23 -5 22 13 -1 15 4 21 14 19 12 -3 13 -1 2 10 -11
11 -15 10 -23 -2 -9 -13 -10 -13 -6 0 2 8 14 14 26 13 15 -2 21 3 21 17 0 14
5 18 17 13 11 -4 14 -3 9 5 -5 8 -2 10 8 6 15 -6 21 6 17 29 -1 4 12 1 29 -8
26 -13 29 -13 24 0 -4 8 -11 15 -17 15 -6 0 -8 3 -5 6 4 3 15 1 26 -5 17 -9
24 -7 40 14 11 14 23 20 28 15 13 -13 74 37 67 55 -6 18 13 20 23 3 4 -7 3 -8
-4 -4 -8 5 -10 2 -6 -8 5 -13 10 -11 26 9 10 14 17 29 13 34 -3 5 0 13 6 17 8
4 9 3 5 -4 -4 -7 -2 -12 4 -12 6 0 8 -6 4 -12 -4 -8 -3 -9 2 -5 5 5 9 16 9 25
0 11 7 16 19 14 13 -2 16 1 10 10 -6 9 -3 9 10 -1 16 -13 17 -13 14 5 -2 14 2
19 20 18 17 -1 22 3 17 14 -5 13 -3 13 13 -1 23 -21 52 -1 30 21 -12 12 -6 14
49 15 12 0 20 4 17 9 -3 4 -10 6 -15 3 -5 -4 -9 -2 -9 4 0 13 15 22 24 14 10
-11 37 -12 30 -2 -3 5 -9 7 -14 4 -4 -3 -11 2 -14 11 -4 10 -2 13 6 8 6 -4 25
-9 41 -11 29 -3 30 -2 11 12 -18 14 -18 14 4 10 12 -2 27 -7 32 -10 6 -3 14 5
20 19 10 28 23 36 18 12 -2 -8 2 -15 7 -15 6 -1 11 5 11 12 1 6 2 17 3 24 0 6
10 15 21 18 11 4 17 11 14 17 -4 6 -2 8 4 4 6 -3 18 4 26 16 11 15 16 18 16 8
0 -13 2 -13 11 0 9 13 10 13 6 -1 -3 -9 -1 -21 4 -26 7 -7 0 -9 -18 -8 -32 2
-64 -15 -56 -29 4 -5 1 -6 -7 -1 -9 6 -11 4 -5 -5 6 -9 4 -11 -5 -5 -8 5 -11
4 -7 -3 5 -7 14 -7 31 1 13 7 22 15 20 19 -5 7 31 12 39 6 2 -2 12 4 21 12 10
8 25 15 33 16 8 2 18 6 21 10 4 4 -1 4 -11 1 -13 -5 -17 -3 -15 5 3 7 14 14
26 16 12 2 20 8 16 13 -3 5 -10 7 -15 4 -5 -4 -9 -2 -9 3 0 18 13 21 28 6 13
-14 17 -12 34 15 19 30 23 33 51 35 6 1 20 10 30 21 18 20 18 20 8 -2 -16 -32
-13 -41 5 -15 8 12 20 19 26 16 7 -5 9 -1 5 9 -4 12 -2 14 10 10 10 -4 14 -2
10 4 -4 5 0 19 9 29 14 18 15 18 5 -3 -7 -14 -8 -24 -1 -28 5 -3 10 2 10 12 0
15 2 16 11 3 9 -12 10 -10 6 8 -5 19 -3 21 9 11 10 -8 18 -8 27 -1 13 11 42
11 53 -1 4 -4 2 -7 -4 -7 -7 0 -12 -5 -12 -11 0 -5 5 -7 12 -3 8 5 9 1 5 -12
-7 -19 -7 -19 8 0 10 13 11 24 5 37 -7 12 -7 20 0 24 5 3 10 3 10 0 0 -3 6 0
14 7 8 7 12 16 9 20 -2 4 3 5 11 2 9 -3 16 -2 16 4 0 9 37 25 53 23 4 -1 10 6
13 14 3 8 10 13 14 10 11 -7 83 26 104 48 10 9 15 17 11 17 -8 0 32 58 61 88
13 13 21 29 18 37 -9 21 17 29 34 10 10 -10 12 -15 6 -12 -16 9 -40 -21 -28
-33 7 -7 18 -3 32 10 12 12 22 18 22 14 0 -3 6 -2 13 4 6 5 73 41 147 78 74
37 141 72 149 78 7 6 20 11 29 12 8 2 18 7 21 13 5 8 50 31 71 35 14 4 169 83
193 99 24 16 42 23 69 26 4 1 28 19 53 41 25 22 49 41 53 42 11 2 54 7 106 12
150 14 285 61 336 117 8 9 35 21 60 28 25 7 53 15 64 18 13 4 16 1 11 -7 -6
-9 -4 -11 5 -5 54 33 238 17 369 -32 36 -14 76 -27 89 -30 13 -3 26 -11 29
-19 2 -7 29 -25 59 -40 29 -15 56 -35 59 -44 9 -29 39 -57 58 -54 19 2 42 -30
32 -46 -3 -6 -1 -10 4 -10 6 0 11 -9 11 -20 0 -13 5 -18 15 -14 8 4 12 11 9
16 -4 6 2 8 12 6 12 -2 18 -11 16 -22 -2 -12 1 -16 10 -10 7 4 2 -6 -12 -22
-14 -15 -18 -23 -10 -17 20 15 43 1 38 -23 -2 -13 5 -23 22 -31 l25 -13 -25 6
c-19 4 -22 3 -10 -5 12 -8 13 -14 3 -30 -15 -23 -5 -35 15 -18 13 9 14 9 8 0
-4 -8 -2 -13 8 -13 8 0 24 -13 35 -28 15 -22 17 -29 6 -29 -8 0 -12 4 -9 9 5
7 -9 11 -22 6 -3 -2 -10 5 -15 15 -11 20 -38 23 -40 5 -3 -28 3 -44 21 -59 16
-14 17 -18 6 -22 -9 -4 -12 -14 -9 -26 3 -12 9 -18 14 -15 5 3 9 0 9 -7 0 -9
3 -9 14 0 12 10 14 9 10 -6 -3 -11 6 -25 23 -38 23 -15 25 -16 14 -2 -12 15
-12 17 3 11 9 -3 16 -12 16 -19 0 -7 7 -16 16 -19 8 -3 12 -2 9 4 -4 6 4 6 21
0 41 -16 46 -21 36 -33 -36 -46 33 -102 123 -98 16 0 57 -10 135 -34 3 -1 16
-6 30 -12 14 -6 30 -12 35 -13 6 -1 18 -8 29 -15 10 -8 25 -11 34 -8 10 4 13
2 8 -5 -5 -8 -2 -10 8 -6 10 4 16 1 16 -7 0 -11 3 -11 10 1 7 12 10 12 10 1 0
-7 6 -11 15 -8 8 4 17 1 21 -5 5 -7 2 -8 -6 -3 -9 5 -11 4 -6 -4 5 -7 13 -8
23 -3 9 6 29 4 52 -5 20 -7 44 -16 53 -19 10 -4 15 -10 12 -15 -3 -5 -1 -9 5
-9 10 0 8 -40 -3 -58 -3 -6 -1 -14 5 -18 8 -5 9 -3 4 7 -5 8 -4 10 0 6 14 -12
15 -37 2 -34 -7 1 -12 -9 -12 -23 0 -15 5 -24 13 -22 8 1 11 -2 7 -9 -5 -8
-10 -8 -18 0 -15 15 -24 14 -24 -4 0 -8 4 -12 9 -9 4 3 8 0 8 -5 0 -6 -7 -11
-16 -11 -9 0 -14 -6 -12 -12 3 -7 -1 -23 -8 -36 -7 -14 -10 -31 -7 -40 5 -11
3 -13 -8 -7 -11 7 -11 5 1 -10 14 -17 13 -18 -2 -13 -12 5 -16 1 -13 -18 1
-13 -2 -24 -7 -24 -5 0 -6 -5 -3 -10 4 -6 3 -16 -2 -23 -5 -7 -10 -25 -12 -42
-2 -16 -7 -32 -12 -33 -6 -2 -5 -10 2 -18 9 -11 8 -14 -2 -14 -11 0 -11 -2 1
-10 10 -6 11 -10 2 -10 -16 0 -11 -21 8 -37 12 -10 11 -11 -10 -7 -20 5 -22 3
-10 -5 13 -9 13 -11 -2 -11 -14 0 -17 -7 -14 -30 2 -20 -2 -34 -13 -40 -10 -6
-11 -10 -3 -10 9 0 7 -8 -5 -27 -14 -21 -15 -25 -3 -18 13 7 13 6 2 -7 -7 -9
-15 -27 -17 -40 -6 -41 -17 -68 -28 -68 -6 0 -2 -7 9 -16 10 -8 14 -13 8 -10
-16 8 -25 -45 -12 -62 8 -9 7 -11 -6 -6 -19 7 -19 8 -7 -34 7 -23 7 -30 -1
-26 -7 5 -9 1 -5 -9 4 -10 2 -14 -6 -11 -8 3 -12 -11 -13 -46 0 -27 3 -47 7
-44 4 2 11 -1 15 -7 4 -7 3 -9 -2 -6 -6 3 -16 2 -24 -4 -13 -7 -13 -9 0 -9 13
0 13 -1 0 -10 -12 -8 -12 -10 -1 -10 11 0 11 -3 0 -17 -12 -15 -12 -16 1 -8
12 7 13 6 4 -6 -21 -26 -23 -58 -6 -70 15 -10 15 -10 0 -5 -16 5 -23 -4 -19
-26 0 -5 -4 -8 -11 -8 -6 0 -3 -7 8 -15 14 -11 15 -14 2 -9 -11 4 -16 0 -15
-13 1 -12 -4 -17 -16 -17 -14 2 -15 -1 -6 -12 10 -12 9 -13 -5 -8 -14 6 -21
-5 -17 -28 0 -5 -3 -8 -7 -8 -4 0 -7 -37 -6 -82 3 -164 3 -170 17 -162 8 5 8
2 -2 -9 -11 -14 -11 -17 0 -17 12 0 12 -2 0 -9 -8 -5 -11 -16 -8 -25 4 -9 1
-16 -6 -16 -7 0 -8 -3 -2 -8 6 -4 11 -20 11 -37 2 -42 14 -99 22 -105 4 -3 7
-18 7 -35 0 -16 5 -33 10 -37 6 -5 6 -8 -2 -8 -6 0 -10 -9 -8 -20 2 -11 0 -22
-6 -25 -13 -9 -11 -65 3 -65 6 0 3 -7 -8 -16 -10 -8 -13 -13 -6 -9 6 3 12 1
12 -4 0 -6 -4 -11 -9 -11 -5 0 -8 -11 -5 -25 2 -14 0 -34 -6 -45 -7 -12 -7
-21 0 -25 17 -10 8 -56 -10 -50 -9 3 -7 -1 4 -10 20 -15 20 -15 0 -16 -10 0
-13 -3 -6 -6 6 -2 9 -9 6 -15 -11 -18 -10 -108 1 -108 6 0 4 -4 -4 -9 -9 -6
-10 -10 -2 -16 9 -5 9 -10 1 -20 -13 -16 3 -30 22 -19 7 4 8 3 4 -4 -4 -7 -13
-12 -21 -12 -18 0 -27 -28 -15 -50 7 -13 7 -21 -2 -26 -6 -4 -8 -3 -4 4 3 6 2
13 -2 16 -5 3 -8 -13 -7 -35 1 -22 -2 -42 -6 -45 -5 -2 -6 -11 -2 -19 3 -8 0
-15 -6 -15 -6 0 -8 -6 -5 -14 3 -7 -1 -20 -8 -27 -13 -14 -15 -22 -24 -63 -2
-10 -6 -21 -9 -24 -2 -3 0 -11 6 -19 6 -7 7 -13 2 -13 -5 0 -8 -16 -8 -35 1
-19 -2 -32 -7 -29 -4 3 -9 0 -9 -5 -2 -17 -4 -24 -19 -56 -7 -16 -21 -49 -31
-72 -11 -24 -19 -49 -19 -57 0 -8 -4 -17 -8 -20 -4 -2 -9 -19 -10 -37 -2 -18
-6 -36 -10 -39 -4 -3 -8 -18 -10 -35 -2 -16 -8 -35 -14 -42 -5 -7 -7 -17 -3
-23 3 -5 2 -10 -4 -10 -5 0 -13 -10 -17 -22 -14 -45 -28 -50 -81 -27 -26 11
-50 23 -53 27 -3 4 -16 13 -29 20 -75 43 -91 52 -94 52 -29 5 -46 14 -40 24 3
6 3 8 -2 4 -4 -4 -16 -3 -27 3 -11 6 -29 12 -41 15 -12 2 -23 8 -25 13 -2 6
-10 7 -18 4 -8 -3 -14 0 -14 6 0 6 -7 8 -15 5 -8 -4 -15 -1 -15 6 0 6 -4 8
-10 5 -5 -3 -10 -1 -10 4 0 6 -11 11 -25 11 -14 0 -25 5 -25 10 0 6 -4 10 -10
10 -5 0 -35 12 -67 26 -31 15 -62 27 -67 29 -18 3 -70 24 -88 35 -10 6 -27 10
-38 10 -12 0 -19 4 -16 9 4 6 -28 28 -54 36 -3 1 -18 8 -35 15 -31 14 -39 17
-53 19 -5 0 -27 20 -50 42 -45 45 -91 58 -128 34 -12 -8 -25 -11 -28 -7 -8 7
-18 8 -118 17 -67 6 -117 23 -171 59 -15 10 -42 20 -60 22 -18 1 -57 6 -87 9
-94 11 -145 12 -155 4 -13 -10 -52 -17 -130 -25 -79 -8 -79 -8 -85 -15 -3 -4
-21 -10 -40 -13 -66 -11 -82 -15 -96 -27 -8 -6 -14 -8 -14 -5 0 4 -10 0 -22
-8 -12 -9 -30 -16 -40 -16 -10 0 -18 -5 -18 -11 0 -6 -6 -9 -12 -7 -7 3 -19
-1 -26 -9 -8 -7 -18 -11 -23 -8 -5 4 -9 1 -9 -4 0 -6 -3 -11 -7 -10 -14 2 -53
-13 -53 -20 0 -4 -7 -8 -15 -9 -8 -1 -22 -3 -29 -4 -8 -1 -14 -6 -13 -12 1 -5
-2 -10 -8 -11 -14 -1 -65 -34 -97 -64 -16 -13 -28 -21 -28 -16 0 4 -9 -2 -20
-15 -11 -13 -20 -19 -20 -14 0 5 -11 -3 -24 -18 -13 -16 -27 -28 -32 -28 -5 0
-20 -12 -33 -25 -13 -14 -27 -25 -33 -25 -5 0 -6 -4 -3 -10 3 -5 2 -10 -3 -10
-5 0 -23 -13 -40 -29 -16 -16 -33 -26 -37 -23 -4 4 -6 3 -5 -3 5 -21 0 -36
-10 -30 -5 3 -10 0 -10 -8 0 -8 -6 -17 -13 -20 -8 -3 -33 -43 -57 -89 -24 -45
-48 -86 -54 -90 -8 -5 -7 -8 1 -8 9 0 9 -9 -1 -38 -12 -32 -17 -289 -6 -299 1
-2 3 -6 4 -10 1 -5 5 -22 9 -39 4 -16 17 -36 27 -44 11 -8 20 -20 20 -28 0 -7
5 -10 10 -7 6 3 10 0 10 -8 0 -8 9 -22 20 -32 11 -10 17 -22 14 -26 -3 -5 2
-9 11 -9 9 0 13 -4 10 -10 -3 -5 -1 -10 5 -10 6 0 8 -4 5 -10 -3 -5 -1 -10 4
-10 6 0 11 -7 11 -16 0 -8 5 -12 10 -9 6 3 10 -1 10 -9 0 -8 9 -20 20 -26 11
-6 20 -17 20 -25 0 -8 7 -15 15 -15 8 0 12 -6 9 -15 -9 -23 39 -65 55 -48 11
12 17 12 38 -2 14 -10 22 -12 19 -6 -5 8 4 9 31 5 76 -12 132 -10 138 5 3 7 8
11 11 8 3 -3 24 1 47 9 23 8 47 12 55 9 7 -2 11 -1 9 3 -3 4 1 12 8 19 9 8 15
9 17 2 2 -6 13 -2 26 9 12 10 18 23 14 27 -4 4 3 5 16 2 12 -3 22 -2 22 2 0
11 39 11 46 0 4 -6 11 -6 20 2 9 7 14 8 14 1 0 -11 18 -11 38 1 6 5 12 4 12
-1 0 -5 7 -9 15 -9 8 0 15 5 15 11 0 6 4 5 9 -3 8 -13 -8 -45 -18 -35 -2 2
-20 -13 -40 -33 -20 -21 -39 -37 -43 -35 -5 1 -8 -5 -8 -14 0 -8 -4 -12 -10
-9 -5 3 -10 2 -10 -3 0 -9 -45 -55 -127 -130 -18 -17 -33 -35 -33 -42 0 -7 -7
-10 -16 -6 -13 5 -14 4 -6 -7 7 -8 10 -17 7 -20 -3 -4 -2 -5 2 -2 3 3 12 -3
20 -13 7 -9 13 -12 12 -7 -3 22 2 27 15 16 11 -9 16 -9 22 0 5 8 3 9 -6 4 -9
-5 -11 -4 -6 3 11 18 26 14 26 -5 0 -15 2 -16 9 -3 6 8 7 18 4 24 -3 5 -1 6 6
2 6 -4 9 -11 6 -16 -3 -4 2 -10 10 -13 9 -4 12 -1 8 9 -4 10 0 12 12 7 12 -4
23 0 31 12 14 18 14 18 14 -1 0 -14 2 -16 9 -6 8 13 20 -2 26 -33 1 -5 3 -12
4 -15 2 -3 4 -13 6 -23 5 -26 53 -97 66 -97 5 0 7 -5 4 -10 -3 -6 1 -10 9 -10
9 0 16 -6 16 -12 0 -9 2 -10 8 -2 11 17 52 28 52 14 0 -6 -4 -9 -9 -6 -5 3
-11 -8 -15 -25 -3 -17 -10 -28 -16 -24 -5 3 -10 1 -10 -4 0 -6 -6 -11 -14 -11
-8 0 -18 -4 -21 -10 -4 -6 1 -7 12 -3 10 3 15 3 11 -1 -11 -13 -42 -14 -57 -2
-12 9 -13 8 -6 -3 6 -11 4 -13 -8 -8 -10 3 -17 2 -17 -3 0 -5 -7 -7 -15 -4 -8
4 -23 0 -32 -7 -14 -12 -16 -12 -8 0 5 10 4 12 -3 7 -7 -4 -12 -13 -12 -21 0
-8 -5 -17 -12 -21 -7 -5 -8 -3 -3 6 5 9 4 11 -4 6 -6 -4 -9 -11 -6 -16 3 -4
-9 -20 -26 -34 -16 -14 -27 -30 -24 -36 3 -5 1 -10 -5 -10 -6 0 -4 -7 5 -17
17 -16 108 -26 98 -10 -2 4 1 7 6 7 6 0 11 -5 11 -11 0 -8 5 -7 15 1 13 11 14
10 9 -6 -4 -10 -4 -16 1 -12 4 4 17 3 28 -3 14 -8 18 -8 13 0 -4 6 -2 11 3 11
6 0 11 -6 11 -12 0 -10 3 -9 9 1 7 11 11 10 20 -5 6 -11 11 -14 11 -7 0 17 51
63 70 64 11 0 11 2 2 6 -9 3 -5 12 13 27 14 12 27 32 28 43 1 14 6 19 16 15
10 -4 13 1 9 20 -3 18 -1 25 7 22 6 -3 12 2 12 11 0 9 -6 14 -14 11 -11 -4
-11 -1 -3 15 6 11 14 17 18 15 5 -3 14 -1 22 4 9 5 20 4 29 -3 11 -9 13 -9 8
0 -5 8 2 11 22 11 19 -1 28 -5 24 -12 -4 -6 1 -5 10 3 14 11 18 11 23 -3 3 -9
15 -16 25 -16 10 0 19 -4 19 -9 0 -13 21 -8 52 13 15 10 25 22 22 27 -3 5 2 9
10 9 9 0 16 5 16 10 0 6 9 10 19 10 11 0 23 5 26 10 4 6 10 8 15 5 5 -3 12 0
16 6 5 8 3 9 -7 4 -8 -5 -10 -4 -6 0 10 12 38 15 31 4 -7 -12 9 -12 21 0 6 6
17 4 29 -5 13 -9 15 -14 6 -14 -7 0 -10 -3 -7 -6 4 -4 14 -1 24 7 9 8 14 9 10
2 -4 -6 -3 -15 3 -18 6 -4 9 -1 8 6 -2 8 7 13 20 14 13 0 28 7 33 17 5 10 17
14 29 11 28 -7 33 -20 8 -19 -31 1 -33 -21 -3 -26 14 -3 25 -1 25 6 0 6 5 4
10 -4 7 -11 10 -11 10 -2 0 7 5 10 10 7 6 -4 7 -12 3 -18 -4 -7 1 -6 11 2 15
13 19 13 28 0 8 -11 9 -11 5 3 -4 11 0 15 11 14 9 -2 18 -8 20 -15 3 -8 9 -6
18 6 13 17 14 17 7 -2 -6 -18 -5 -18 10 -6 14 11 15 17 5 30 -11 14 -11 14 3
3 10 -7 15 -21 12 -32 -4 -15 0 -18 21 -16 15 2 29 -1 32 -6 7 -11 46 -6 56 7
5 7 8 6 8 0 0 -12 79 -13 97 -2 6 4 14 3 17 -2 6 -10 77 -7 95 3 6 4 11 1 11
-6 0 -9 3 -9 10 2 5 8 10 11 10 6 0 -5 6 -3 13 3 8 6 17 8 21 4 16 -16 38 -12
24 4 -12 15 -11 15 10 4 14 -7 22 -8 22 -1 0 5 3 9 8 9 21 -4 42 2 38 10 -4 5
3 7 14 4 11 -3 20 0 20 6 0 5 6 8 14 5 7 -3 22 3 31 13 10 10 20 17 22 16 8
-7 23 -1 39 14 9 10 22 18 28 18 18 0 90 38 102 54 6 8 16 11 22 7 7 -4 12 -1
12 8 0 9 3 15 8 15 18 -3 32 2 30 10 -2 5 1 11 7 12 5 2 23 16 39 32 17 15 36
27 43 27 7 0 13 5 13 10 0 6 7 10 16 10 9 0 12 5 8 12 -5 8 -2 9 9 5 10 -3 17
-2 17 4 0 6 5 7 10 4 6 -3 13 1 16 9 3 9 12 16 19 16 8 0 21 7 29 16 9 8 16
13 16 10 0 -6 29 16 59 44 9 8 23 15 31 15 8 0 14 8 14 18 -1 13 2 15 10 8 8
-7 16 -4 24 10 7 11 16 18 21 15 9 -6 57 45 53 56 -1 4 5 5 13 2 9 -4 15 0 15
10 0 9 6 16 14 16 7 0 20 8 27 17 12 14 12 16 0 8 -10 -5 -12 -4 -7 3 4 7 12
12 18 12 18 0 60 51 54 66 -3 8 -2 13 2 12 14 -4 52 13 52 23 0 6 4 8 9 4 9
-5 27 32 23 48 -1 5 1 6 5 4 10 -6 34 19 26 27 -4 3 4 15 17 26 14 12 18 20
10 20 -9 0 -6 7 8 20 12 12 19 27 15 35 -3 10 0 15 8 13 9 -2 14 6 14 24 -1
14 2 25 6 22 4 -2 13 4 20 13 12 14 12 16 -1 8 -13 -8 -13 -7 -1 8 7 9 10 17
5 17 -4 0 1 7 12 15 10 8 15 15 10 15 -5 0 1 12 15 27 13 14 19 23 12 20 -6
-4 -1 14 12 40 13 25 22 50 19 55 -3 4 -1 8 4 8 5 0 14 21 20 48 5 26 22 81
37 122 15 41 29 83 31 94 2 10 9 25 16 34 11 13 11 14 -2 7 -12 -7 -13 -6 -3
7 7 8 10 18 6 21 -3 4 -1 7 6 7 7 0 10 4 6 9 -3 5 -1 12 3 15 5 3 8 17 7 31
-2 14 1 28 6 31 6 3 7 14 4 25 -4 10 -2 19 3 19 5 0 9 17 9 38 0 32 8 82 14
90 1 1 2 5 4 10 1 4 9 23 17 42 9 19 14 38 12 42 -3 5 -1 8 3 8 5 0 10 19 11
42 4 67 12 128 28 198 3 14 7 34 9 45 2 11 7 31 10 45 3 14 8 48 11 75 3 28 7
55 9 62 2 7 0 15 -6 18 -5 4 -6 11 -3 17 7 10 12 51 16 118 1 14 -2 36 -6 49
-5 13 -4 21 0 18 23 -14 4 86 -22 121 -15 19 -23 32 -16 29 6 -4 4 7 -5 23 -8
17 -13 42 -10 55 2 14 1 23 -2 21 -3 -2 -6 98 -6 222 0 125 -3 244 -6 265 -4
20 -2 40 2 43 5 3 7 10 3 15 -3 6 -7 85 -8 177 -1 92 -5 172 -9 179 -4 6 -3
14 3 18 6 4 7 11 3 18 -10 17 -12 167 -1 173 5 3 4 12 -3 20 -9 11 -9 14 0 14
7 0 9 5 5 12 -10 15 -13 48 -5 48 3 0 8 28 9 63 2 34 5 82 6 107 4 67 18 150
25 150 4 0 7 8 8 18 2 27 9 51 16 58 4 4 7 17 7 29 0 11 5 26 12 33 7 7 9 12
6 12 -4 0 -1 15 7 34 8 18 11 36 8 40 -4 3 -1 6 5 6 6 0 13 14 17 30 4 16 11
30 16 30 5 0 8 3 7 8 -3 10 32 75 46 84 6 4 7 8 3 8 -8 0 26 53 50 78 7 8 11
18 8 23 -4 5 -1 9 6 9 6 0 9 8 6 20 -3 10 0 21 6 23 9 3 9 11 0 30 -10 21 -10
25 1 21 15 -6 16 32 2 55 -7 10 -5 12 4 6 8 -5 11 -3 8 6 -3 8 -11 13 -17 11
-21 -4 -43 25 -24 32 9 4 18 4 21 1 3 -3 -1 -5 -8 -5 -20 0 -3 -14 19 -15 15
-1 17 4 12 29 -4 17 -6 38 -6 46 1 8 -3 21 -8 28 -6 7 -7 15 -3 19 3 3 -2 15
-11 25 -15 17 -15 20 -3 28 13 8 13 10 0 10 -13 0 -13 1 0 10 9 6 10 10 3 10
-6 0 -10 9 -8 20 2 13 -2 20 -11 20 -8 0 -13 4 -10 8 3 4 -5 8 -17 8 -36 -1
-127 25 -127 36 0 5 -4 7 -9 3 -5 -3 -12 -1 -16 5 -4 6 -11 8 -16 5 -5 -4 -9
-2 -9 3 0 5 -11 12 -25 14 -27 6 -88 -20 -79 -33 3 -5 0 -9 -6 -9 -6 0 -9 -4
-5 -9 3 -5 0 -13 -6 -17 -8 -4 -7 -9 2 -15 11 -7 11 -9 -2 -9 -9 0 -20 -10
-24 -22 -4 -13 -8 -26 -10 -30 -1 -5 -3 -12 -4 -18 0 -5 -6 -10 -12 -10 -5 0
-7 6 -3 13 4 6 -2 3 -14 -7 -20 -17 -22 -18 -22 -2 0 9 -4 14 -10 11 -5 -3
-15 5 -21 19 -7 14 -15 23 -19 21 -5 -3 -11 2 -14 11 -3 8 -10 13 -15 10 -5
-4 -8 1 -7 11 3 19 -24 54 -36 47 -4 -3 -5 3 -1 12 4 12 3 15 -5 10 -8 -4 -10
-2 -6 7 5 13 -8 29 -26 33 -31 6 -52 21 -37 27 10 4 20 -1 26 -11 9 -14 10
-13 11 9 0 23 -8 36 -50 87 -6 6 -8 12 -5 12 3 0 -3 8 -12 18 -10 11 -21 17
-25 15 -5 -2 -8 4 -8 13 0 10 -3 14 -6 11 -4 -4 -15 3 -25 15 -11 11 -19 18
-19 14 0 -4 -10 2 -22 13 -11 11 -26 18 -31 14 -6 -3 -7 -1 -3 5 4 7 2 12 -3
12 -6 0 -11 7 -11 16 0 9 -9 18 -19 21 -13 3 -18 10 -13 21 5 15 4 16 -13 2
-18 -15 -18 -14 -1 13 18 26 18 27 0 27 -16 0 -17 2 -4 10 13 8 13 10 -2 10
-9 0 -28 14 -42 31 -15 18 -31 27 -37 23 -7 -4 -9 -3 -6 3 5 9 -25 43 -39 43
-3 0 -13 9 -22 20 -10 12 -27 22 -39 23 -13 1 -23 7 -23 15 0 7 -3 11 -7 9 -5
-2 -21 4 -38 14 -16 10 -43 26 -60 35 -16 9 -32 20 -35 23 -7 9 -124 65 -132
63 -3 -1 -12 5 -18 13 -7 8 -20 15 -29 15 -9 0 -22 5 -29 12 -7 7 -12 8 -12 4
0 -5 -7 -2 -16 5 -17 14 -38 21 -67 20 -9 0 -15 4 -12 9 3 4 -3 7 -12 5 -10
-1 -24 2 -31 8 -6 5 -32 10 -57 11 -25 0 -45 5 -45 9 0 5 -4 6 -9 2 -5 -3 -12
-1 -15 3 -3 5 -32 9 -66 8 -33 -1 -62 4 -63 9 -2 6 -12 4 -22 -5 -10 -8 -16
-10 -12 -3 9 14 -35 29 -52 19 -5 -4 -12 -2 -16 4 -4 6 -10 8 -15 5 -5 -3 -11
-1 -14 4 -4 5 -18 8 -31 5 -14 -2 -25 0 -25 6 0 6 -5 8 -12 4 -18 -12 -48 -12
-55 -1 -3 5 -9 3 -14 -4 -6 -9 -12 -10 -16 -4 -12 16 -47 19 -37 3 6 -11 5
-11 -8 0 -18 14 -51 6 -41 -11 3 -6 -4 -3 -16 5 -16 11 -31 14 -49 9 -15 -5
-35 -7 -44 -5 -10 1 -18 -1 -18 -5 0 -4 -8 -7 -17 -8 -55 -6 -83 -11 -123 -22
-25 -7 -49 -16 -54 -19 -6 -3 -24 -7 -40 -8 -32 -3 -71 -11 -71 -14 0 -1 -13
-3 -30 -5 -16 -1 -30 -3 -30 -4 0 -2 -11 -4 -25 -7 -14 -2 -30 -11 -36 -19 -6
-8 -13 -12 -16 -10 -3 3 -24 -1 -47 -9 -23 -9 -45 -16 -49 -16 -4 -1 -20 -7
-37 -15 -69 -30 -86 -35 -137 -38 -21 -1 -38 -6 -38 -11 0 -4 -7 -6 -15 -3 -8
4 -17 2 -20 -4 -4 -5 -10 -7 -15 -4 -9 6 -70 -14 -70 -24 0 -3 -13 -12 -28
-19 -16 -6 -38 -21 -50 -32 -12 -11 -26 -20 -31 -20 -6 0 -14 -6 -18 -14 -4
-8 -12 -15 -18 -15 -5 -1 -21 -5 -35 -10 -14 -4 -28 -9 -33 -9 -4 -1 -20 -8
-37 -17 -16 -8 -38 -15 -50 -15 -11 0 -20 -4 -20 -10 0 -5 -18 -15 -40 -21
-22 -7 -40 -16 -40 -21 0 -4 -6 -8 -13 -8 -7 0 -18 -5 -25 -12 -17 -17 -42
-19 -35 -2 3 8 9 14 14 14 12 0 47 36 99 100 24 30 65 78 90 105 25 28 57 66
72 86 15 19 74 83 132 143 58 60 104 112 101 116 -3 4 2 10 10 14 8 3 15 14
15 25 0 14 5 19 15 15 10 -4 13 0 10 15 -2 12 0 19 4 17 11 -7 43 29 34 37 -3
4 1 7 10 7 10 0 17 7 17 15 0 8 4 15 9 15 5 0 16 12 26 26 11 18 13 24 4 19
-8 -4 -4 2 9 14 12 12 20 26 17 32 -4 5 -1 9 5 9 6 0 8 5 5 10 -3 6 -1 10 4
10 6 0 11 9 11 21 0 11 5 17 10 14 6 -4 10 -3 9 2 -1 4 11 35 26 68 15 33 28
68 27 78 0 9 3 17 9 17 5 0 9 4 9 10 0 5 -6 8 -12 6 -7 -1 -10 -1 -5 1 4 3 5
9 2 14 -4 5 2 6 11 2 11 -4 15 -3 10 5 -3 6 2 15 11 21 14 8 15 10 3 11 -11 0
-12 2 -3 8 7 4 14 26 16 47 1 22 6 45 9 51 8 12 5 34 -6 53 -6 10 -5 12 2 7 7
-4 12 -3 12 3 0 5 -5 13 -10 16 -8 5 -7 11 1 21 15 19 13 105 -3 116 -9 5 -10
8 -1 8 6 0 10 8 8 18 -16 67 -20 90 -19 114 1 15 -3 25 -7 22 -5 -3 -10 1 -10
8 -1 7 -3 24 -5 38 -9 55 -10 111 -2 116 5 3 6 10 3 15 -4 5 -1 9 5 9 6 0 8 5
5 10 -4 6 -2 34 4 63 6 28 13 90 16 137 2 47 5 92 6 100 2 28 19 88 36 127 20
46 21 48 37 158 0 6 5 13 10 17 8 6 19 55 30 143 2 17 5 31 6 33 1 1 3 10 4
20 1 9 4 22 7 27 10 16 31 152 31 190 -1 31 -14 164 -18 185 -8 41 -9 45 -17
58 -5 6 -5 12 -2 12 4 0 -2 12 -12 28 -10 15 -25 39 -33 55 -7 15 -17 27 -22
27 -4 0 -8 8 -8 18 0 10 -9 24 -20 32 -11 8 -20 20 -20 27 0 6 -9 18 -20 26
-11 8 -17 17 -13 20 3 4 2 7 -4 7 -6 0 -26 15 -45 33 -49 47 -87 77 -101 80
-6 1 -18 10 -25 20 -7 9 -18 15 -23 11 -5 -3 -8 -2 -7 3 2 4 -14 26 -34 47
-20 22 -35 43 -33 47 5 7 -24 23 -37 21 -5 -1 -8 7 -8 18 0 11 -4 20 -9 20 -5
0 -12 8 -15 18 -6 17 -66 60 -66 46 0 -3 -7 -1 -15 6 -12 10 -16 9 -21 -4 -3
-9 -14 -16 -24 -16 -10 0 -21 -7 -24 -16 -3 -8 -10 -13 -15 -9 -5 3 -12 1 -16
-5 -3 -6 -30 -8 -61 -6 -59 5 -87 0 -78 -15 3 -5 0 -9 -6 -9 -8 0 -8 -6 0 -20
6 -11 8 -20 5 -20 -3 0 10 -14 30 -31 19 -17 35 -38 36 -48 0 -12 2 -12 8 4 7
17 8 17 15 -8 3 -15 11 -25 16 -22 6 3 10 0 10 -8 0 -7 9 -23 20 -35 23 -24
26 -37 8 -26 -10 6 -10 4 -2 -7 14 -20 16 -67 2 -75 -7 -4 -8 -3 -4 4 4 7 3
12 -3 12 -5 0 -12 -4 -16 -10 -4 -6 -16 -5 -33 1 -15 6 -72 13 -127 15 -139 6
-150 5 -153 -6 -2 -6 -7 -8 -11 -6 -4 3 -7 -5 -8 -17 -2 -65 -8 -107 -15 -107
-4 0 -7 -17 -6 -38 0 -21 -4 -46 -9 -57 -11 -20 -13 -27 -13 -43 0 -13 -43
-30 -65 -25 -11 2 -26 5 -32 5 -7 1 -13 6 -13 12 0 6 -5 4 -10 -4 -7 -11 -10
-11 -10 -2 0 7 -4 10 -10 7 -5 -3 -10 -1 -10 5 0 6 -4 9 -8 6 -4 -2 -14 -1
-21 4 -9 5 -22 -1 -38 -19 -14 -14 -22 -20 -18 -13 4 7 0 12 -10 12 -10 0 -13
-5 -9 -12 5 -8 2 -9 -10 -5 -10 4 -15 3 -11 -3 4 -6 0 -17 -9 -25 -8 -8 -13
-25 -11 -36 3 -12 1 -18 -3 -15 -4 4 -8 12 -8 17 -1 5 -2 12 -3 17 -1 8 -40
-54 -44 -71 -5 -26 -107 -138 -119 -131 -4 3 -8 0 -8 -6 0 -15 -69 -55 -95
-54 -11 0 -23 -5 -27 -10 -4 -6 -24 -12 -45 -12 -21 -1 -54 -2 -73 -3 -51 -3
-139 8 -160 19 -10 6 -26 7 -36 3 -12 -4 -15 -3 -10 5 4 7 1 12 -8 12 -9 0
-16 5 -16 11 0 5 -4 7 -10 4 -5 -3 -10 -2 -10 4 0 6 -7 8 -15 5 -8 -4 -17 1
-21 10 -3 9 -14 16 -24 16 -11 0 -22 5 -25 10 -4 6 -11 8 -16 5 -5 -3 -6 0 -4
7 3 8 -8 24 -25 36 -16 13 -30 18 -30 12 0 -5 -4 -10 -10 -10 -5 0 -10 7 -10
15 0 8 -4 15 -10 15 -5 0 -18 8 -28 18 -10 9 -31 27 -46 40 -15 12 -25 26 -22
31 3 4 -6 14 -19 21 -14 7 -27 21 -31 32 -3 10 -10 18 -15 18 -6 0 -7 -6 -3
-12 5 -9 2 -9 -9 1 -18 15 -23 26 -7 16 6 -3 10 4 9 17 0 13 -3 17 -6 11 -2
-7 -9 -13 -14 -13 -6 0 -7 5 -4 10 3 6 1 10 -4 10 -6 0 -10 3 -8 8 1 4 -2 8
-6 9 -4 1 -17 12 -28 25 -11 13 -17 17 -14 10 6 -11 3 -11 -13 -1 -12 7 -23
22 -26 32 -2 10 -9 16 -15 12 -6 -3 -11 -1 -11 5 0 7 -7 9 -16 6 -8 -3 -12 -2
-9 4 3 6 -3 10 -14 10 -12 0 -21 4 -21 8 0 4 -15 16 -32 27 -18 10 -39 25 -46
32 -7 7 -21 13 -31 13 -9 0 -23 9 -31 19 -7 11 -17 18 -22 15 -4 -3 -8 0 -8 6
0 6 -4 8 -10 5 -5 -3 -10 -2 -10 4 0 10 -38 27 -53 23 -4 -1 -6 1 -6 5 3 18
-1 36 -7 30 -3 -3 -17 7 -31 24 -14 16 -29 27 -34 23 -5 -3 -9 1 -9 8 0 9 -3
9 -10 -2 -8 -12 -10 -9 -10 12 0 21 -4 26 -17 21 -12 -5 -14 -3 -8 7 6 10 4
12 -9 7 -11 -4 -15 -3 -11 4 7 11 -22 49 -37 49 -5 0 -7 -4 -4 -8 3 -5 -1 -9
-9 -9 -12 0 -12 4 2 20 10 11 12 17 6 13 -8 -4 -13 -1 -13 9 0 9 -11 27 -25
41 -14 14 -26 30 -28 37 -2 11 -19 32 -63 82 -12 13 -19 27 -16 30 4 3 -1 3
-11 -1 -17 -6 -40 31 -30 49 2 4 0 7 -6 7 -5 0 -16 3 -24 6 -8 3 -18 0 -22 -5z
m2265 -3891 c-6 -11 -15 -18 -21 -15 -5 4 -8 1 -7 -6 2 -7 -3 -14 -9 -15 -7
-1 -16 -2 -21 -3 -4 0 -13 -10 -19 -21 -11 -16 -10 -18 1 -14 11 4 13 0 9 -15
-3 -11 -9 -18 -14 -15 -5 3 -9 2 -9 -3 0 -4 -21 -21 -48 -38 -26 -16 -50 -33
-53 -38 -3 -5 -10 -9 -15 -9 -21 0 -84 -40 -103 -64 -12 -15 -21 -21 -21 -13
0 8 -5 5 -14 -6 -8 -11 -12 -24 -9 -29 4 -5 1 -6 -5 -2 -14 8 -54 -14 -97 -52
-8 -7 -15 -11 -15 -8 0 2 -14 -9 -30 -26 -17 -16 -27 -34 -24 -40 4 -6 3 -8
-3 -5 -12 7 -66 -27 -56 -36 3 -4 -1 -7 -11 -7 -9 0 -21 -10 -26 -22 -5 -13
-9 -17 -9 -10 -1 10 -5 10 -17 -2 -8 -9 -13 -20 -9 -26 3 -6 -1 -7 -10 -4 -9
4 -23 -3 -35 -17 -10 -13 -19 -21 -20 -17 0 4 -10 -3 -23 -15 -13 -12 -21 -26
-19 -32 3 -5 1 -7 -3 -2 -5 4 -17 -1 -28 -10 -10 -10 -22 -17 -26 -16 -3 0 -5
-3 -4 -7 1 -4 -6 -6 -15 -3 -10 2 -19 13 -19 25 -2 20 -1 20 13 2 9 -11 13
-14 10 -8 -3 7 5 19 18 28 14 8 27 25 31 36 4 11 11 18 16 15 5 -4 9 1 9 9 0
9 5 16 10 16 6 0 21 11 33 24 49 54 56 61 71 74 8 6 17 12 20 12 3 0 30 25 60
55 31 30 69 61 86 70 16 9 30 20 30 25 0 6 6 10 14 10 8 0 21 6 29 14 7 8 40
31 73 51 32 21 65 44 72 53 8 11 12 12 12 3 0 -7 24 7 53 32 28 24 66 52 84
61 18 9 37 24 42 33 6 10 11 14 11 9 0 -6 9 0 20 12 27 29 55 30 40 2z m-1644
-1317 c-1 -19 4 -32 18 -40 12 -7 16 -12 9 -13 -7 0 -10 -7 -7 -17 5 -15 4
-15 -4 -3 -6 8 -8 18 -6 22 3 4 1 8 -4 8 -18 0 -20 -13 -6 -35 16 -24 -1 -55
-29 -55 -6 0 -1 -7 11 -16 26 -18 48 -54 32 -54 -5 0 -10 6 -10 14 0 22 -15
27 -34 13 -17 -13 -13 -52 5 -41 5 3 6 -2 3 -11 -5 -12 -10 -13 -20 -4 -8 6
-11 16 -7 22 3 5 1 7 -5 3 -6 -3 -14 -1 -18 5 -4 7 -3 9 4 5 7 -4 10 1 9 14
-1 18 -10 24 -29 21 -14 -2 -8 11 15 30 l22 20 -25 -6 c-19 -5 -22 -4 -10 4 8
6 23 8 33 5 18 -6 18 -5 2 20 -11 16 -13 26 -6 26 6 0 11 -5 11 -12 0 -6 3 -8
7 -5 3 4 12 2 20 -4 9 -8 13 -8 13 -1 0 6 -9 16 -20 22 -11 6 -19 19 -18 28 2
13 -3 16 -22 15 -22 -2 -23 -2 -5 6 12 5 25 5 32 -1 9 -7 16 -3 24 16 15 33
18 33 15 -1z m2899 -2907 c17 -2 32 -4 34 -5 2 0 -3 -9 -10 -18 -11 -15 -11
-16 1 -5 20 17 33 15 25 -5 -5 -14 -4 -15 6 -6 10 10 16 10 28 0 9 -7 12 -8 8
-1 -4 6 2 19 12 28 15 13 18 14 18 1 0 -8 -4 -12 -9 -9 -4 3 -8 0 -8 -5 0 -14
13 -14 27 0 8 8 13 7 18 -2 6 -8 4 -10 -5 -4 -9 5 -11 4 -6 -4 6 -9 11 -9 21
-1 9 8 15 8 20 0 3 -6 11 -8 16 -5 5 4 9 0 9 -7 0 -8 5 -6 11 5 5 9 15 17 22
17 9 0 9 -2 -1 -8 -9 -6 -6 -12 12 -22 14 -7 23 -16 21 -20 -2 -3 10 -4 26 -2
22 3 37 -2 55 -19 17 -16 23 -18 19 -7 -4 9 0 19 7 24 7 4 10 3 5 -1 -11 -13
55 -33 71 -22 8 6 12 5 12 -3 0 -10 3 -10 15 0 13 10 18 11 28 1 9 -10 8 -11
-8 -6 -11 3 -4 -3 15 -13 19 -11 38 -18 42 -15 5 2 8 0 8 -5 0 -6 16 -9 36 -7
38 4 67 -3 60 -14 -3 -4 4 -7 15 -7 10 0 19 5 19 10 0 6 7 0 16 -12 13 -19 18
-21 31 -11 12 10 16 10 24 -2 7 -12 9 -12 9 1 0 13 1 13 10 0 5 -8 10 -11 10
-6 0 5 7 2 16 -5 18 -14 47 -22 39 -10 -2 4 2 8 10 8 8 0 12 -4 9 -9 -3 -4 2
-8 11 -8 9 0 14 -4 11 -9 -3 -5 1 -11 9 -14 10 -4 12 -1 9 11 -4 11 2 8 16 -8
12 -14 19 -19 15 -12 -8 16 20 16 34 -1 6 -8 7 -18 3 -23 -4 -4 2 -2 12 6 11
8 17 10 13 4 -4 -7 2 -14 14 -17 12 -3 18 -10 14 -16 -3 -6 0 -9 8 -5 8 3 17
-2 21 -11 3 -9 10 -13 16 -10 5 3 10 1 10 -4 0 -6 9 -11 20 -11 11 0 20 -4 20
-9 0 -5 11 -12 24 -15 14 -3 31 -20 40 -38 15 -30 15 -33 -6 -65 -13 -18 -29
-31 -35 -28 -7 2 -13 -3 -14 -13 0 -10 -3 -12 -6 -4 -2 6 -9 9 -14 6 -6 -3 -5
-12 3 -22 11 -15 11 -15 -3 -4 -14 11 -23 9 -55 -7 -22 -11 -51 -25 -66 -30
-16 -6 -28 -16 -28 -22 0 -6 -7 -8 -16 -5 -10 4 -14 1 -12 -6 3 -7 -5 -21 -16
-31 -12 -10 -15 -16 -8 -12 6 3 12 1 12 -5 0 -6 -7 -13 -15 -16 -8 -4 -12 -11
-8 -17 4 -6 0 -8 -10 -4 -9 3 -18 3 -21 -1 -5 -9 -78 -8 -93 1 -6 4 -14 3 -18
-3 -4 -6 -11 -8 -16 -5 -5 4 -9 2 -9 -3 0 -14 -38 -3 -44 13 -3 8 -20 12 -45
12 -30 -2 -41 2 -41 12 0 11 -4 9 -16 -5 -8 -10 -13 -13 -9 -7 4 9 -2 12 -19
11 -21 -2 -23 -5 -13 -17 9 -12 9 -13 0 -7 -7 4 -13 3 -13 -3 0 -5 8 -15 18
-20 9 -6 12 -11 6 -11 -6 0 -20 11 -32 25 -12 14 -17 25 -10 25 6 0 8 3 5 6
-4 4 -13 1 -22 -6 -10 -8 -15 -9 -15 -1 0 6 -9 11 -20 11 -11 0 -20 6 -20 13
0 8 -3 8 -8 2 -4 -6 -16 -11 -27 -11 -11 0 -23 5 -27 11 -5 7 -8 6 -8 -1 0
-12 -20 -12 -57 1 -13 4 -20 12 -16 19 4 6 -1 5 -10 -3 -14 -11 -17 -11 -17 0
0 12 -2 12 -9 0 -12 -18 -27 5 -23 36 2 11 -2 24 -9 29 -8 5 -10 3 -4 -7 5 -8
-2 -5 -15 6 -14 12 -20 14 -15 5 7 -12 6 -13 -6 -4 -8 7 -31 11 -51 10 -23 -2
-35 1 -31 7 4 6 1 7 -7 2 -7 -4 -26 -8 -41 -7 -16 0 -29 -4 -29 -9 0 -6 -4 -8
-8 -5 -5 3 -30 -1 -55 -9 -26 -8 -47 -11 -47 -7 0 4 -9 8 -20 8 -23 0 -25 -6
-7 -26 6 -8 2 -6 -10 4 -13 11 -23 16 -23 13 0 -4 -9 2 -20 13 -11 11 -24 20
-30 20 -5 0 -10 7 -10 17 0 9 -3 14 -6 10 -3 -3 -31 15 -61 39 -30 25 -72 52
-94 62 -21 9 -39 20 -39 23 0 4 -20 13 -44 20 -25 7 -43 16 -40 20 4 7 -59 23
-88 22 -10 0 -18 4 -18 9 0 5 -7 5 -17 0 -10 -5 -24 -7 -30 -5 -7 3 -16 -3
-19 -11 -5 -13 -9 -14 -20 -5 -10 8 -14 8 -14 0 0 -6 -7 -11 -15 -11 -8 0 -15
-4 -15 -10 0 -5 -7 -7 -15 -4 -8 4 -15 1 -15 -6 0 -7 -7 -10 -15 -6 -8 3 -19
-2 -24 -12 -6 -9 -11 -13 -11 -8 0 5 -7 3 -15 -4 -8 -7 -12 -17 -8 -24 3 -6 0
-6 -8 2 -15 14 -33 16 -25 3 3 -5 -1 -11 -9 -15 -8 -3 -15 -13 -15 -21 0 -10
-5 -14 -12 -10 -7 4 -5 0 5 -8 15 -13 16 -15 2 -21 -8 -3 -15 -11 -15 -18 0
-9 3 -8 10 2 5 8 10 12 10 8 0 -17 4 -23 18 -34 11 -8 12 -13 3 -18 -9 -6 -9
-12 1 -24 12 -15 11 -16 -5 -3 -14 11 -15 16 -5 29 11 13 10 15 -5 9 -12 -5
-16 -3 -11 4 4 7 1 10 -7 7 -8 -3 -13 -11 -12 -17 2 -6 0 -10 -5 -10 -16 3
-32 -1 -31 -8 3 -20 -2 -24 -16 -13 -8 7 -12 16 -9 21 3 5 -2 19 -11 31 -15
21 -16 21 -13 3 1 -11 -2 -22 -7 -23 -6 -2 -19 -8 -30 -14 -15 -7 -13 -4 5 12
25 21 25 22 2 17 -26 -6 -36 9 -46 66 -4 20 -11 37 -17 37 -6 0 -7 6 -3 13 4
6 4 9 -1 5 -4 -4 -13 -4 -19 1 -6 4 -20 11 -30 15 -16 5 -17 4 -6 -9 9 -11 9
-15 1 -15 -7 0 -9 -5 -5 -12 5 -9 3 -9 -9 1 -9 7 -15 17 -12 21 3 5 0 10 -6
12 -6 2 -2 14 10 29 11 15 17 29 14 33 -3 3 -1 6 5 6 7 0 12 9 12 19 0 11 9
26 20 34 11 8 17 17 13 20 -6 6 20 11 40 8 5 -1 6 3 3 8 -3 5 8 14 25 21 30
13 55 53 43 71 -3 5 -1 9 5 9 6 0 8 6 5 14 -4 11 14 26 32 25 3 0 16 11 29 25
17 19 25 22 35 13 10 -9 11 -9 6 1 -4 6 -2 12 3 12 6 0 11 -6 11 -12 0 -9 4
-8 10 2 7 11 10 11 10 2 0 -7 5 -10 10 -7 6 4 18 1 27 -7 10 -8 14 -8 10 -1
-5 7 2 14 15 19 13 4 26 12 30 18 6 8 8 7 8 -1 0 -7 5 -13 11 -13 5 0 7 5 4
10 -3 6 -1 10 5 10 6 0 8 5 5 10 -3 6 -1 10 4 10 6 0 11 -6 11 -12 0 -9 4 -8
10 2 9 13 10 13 10 0 0 -12 2 -12 9 -2 9 16 149 24 158 9 3 -4 12 -6 20 -3 11
5 13 1 8 -17 -6 -20 -6 -20 6 -5 15 19 59 15 59 -4 0 -6 8 -8 18 -6 10 3 24
-1 31 -9 10 -11 16 -12 24 -4 16 16 27 13 28 -6 0 -12 2 -13 6 -5 4 10 8 10
21 0 9 -8 13 -8 9 -2 -4 7 0 14 8 18 10 3 15 -1 15 -12 1 -15 2 -15 12 2 11
19 11 19 24 1 8 -10 14 -14 14 -8 0 6 7 14 16 17 14 5 15 4 5 -8 -10 -12 -9
-13 8 -9 12 3 21 9 21 14 0 4 9 6 20 4 11 -2 18 0 15 4 -3 5 2 12 11 15 11 4
13 10 7 19 -18 23 -9 42 20 42 15 -1 27 4 27 9 0 5 6 2 13 -8 7 -9 26 -18 42
-20z m251 -654 c-4 -12 -1 -19 7 -19 9 0 13 8 11 21 -3 12 -1 15 2 7 5 -11 8
-11 15 0 6 10 9 10 9 2 0 -7 7 -10 15 -7 8 4 17 -1 21 -10 5 -14 9 -14 22 -4
14 11 15 10 9 -7 -7 -19 -6 -19 7 -2 13 16 15 16 39 -3 16 -13 28 -17 32 -10
4 6 1 9 -6 8 -6 -2 -14 4 -16 12 -3 9 -1 11 4 4 4 -5 18 -10 31 -11 12 0 24
-2 27 -3 3 -1 9 -3 13 -4 5 0 22 -13 39 -27 l32 -26 -25 -12 c-32 -14 -41 -14
-26 1 15 15 15 28 1 28 -5 0 -8 -4 -4 -9 3 -5 -5 -17 -17 -25 -12 -9 -19 -19
-15 -22 9 -10 -13 -35 -24 -28 -5 3 -9 1 -9 -5 0 -5 6 -12 13 -14 8 -4 9 -6 0
-6 -6 -1 -19 6 -27 15 -12 12 -16 12 -17 2 0 -10 -2 -10 -6 0 -7 17 -28 15
-43 -3 -15 -18 -23 -13 -25 15 -1 16 1 17 19 8 l21 -11 -20 23 -20 23 25 -13
c21 -10 23 -10 13 1 -7 7 -13 20 -13 29 1 12 4 11 15 -4 15 -20 20 -12 16 21
-1 8 5 10 14 7 21 -8 19 -2 -6 19 -13 12 -19 13 -18 5 3 -29 -2 -36 -26 -34
-13 2 -22 -1 -19 -5 3 -5 1 -9 -5 -9 -5 0 -11 6 -14 13 -3 9 -8 9 -18 -2 -12
-12 -12 -13 0 -6 11 6 13 4 8 -9 -5 -11 -3 -15 5 -10 7 5 9 -1 6 -20 -3 -14
-2 -26 3 -26 4 0 5 -13 3 -29 -4 -24 0 -30 25 -41 23 -9 29 -18 29 -39 -1 -27
-1 -28 -19 -10 -18 18 -33 23 -52 20 -5 -1 -6 3 -2 8 3 6 13 8 23 5 14 -5 14
-4 2 4 -8 6 -18 8 -24 5 -6 -4 -7 1 -2 13 4 10 3 15 -1 10 -14 -14 -11 -65 4
-59 7 3 13 1 13 -5 0 -6 -8 -9 -17 -7 -10 2 -24 4 -30 4 -7 1 -13 8 -13 16 0
8 -6 12 -14 9 -8 -3 -17 -1 -21 5 -3 6 0 9 8 5 8 -3 18 0 22 5 3 6 12 8 18 5
7 -4 9 -4 5 1 -4 4 -2 15 4 24 7 9 8 13 4 9 -5 -4 -16 -2 -25 5 -14 10 -14 10
-4 -4 12 -15 8 -29 -7 -29 -11 0 -4 44 7 47 7 3 8 16 3 38 -4 19 -5 36 -2 39
3 4 0 6 -7 6 -7 0 -10 4 -6 9 3 5 -2 17 -11 25 -8 9 -12 16 -8 16 5 0 3 5 -3
11 -9 9 -8 15 0 25 17 19 29 17 23 -4z"/>
</g>
</svg>
