<?xml version="1.0" standalone="no"?>
<!DOCTYPE svg PUBLIC "-//W3C//DTD SVG 20010904//EN"
 "http://www.w3.org/TR/2001/REC-SVG-20010904/DTD/svg10.dtd">
<svg version="1.0" xmlns="http://www.w3.org/2000/svg"
 width="1024.000000pt" height="1024.000000pt" viewBox="0 0 1024.000000 1024.000000"
 preserveAspectRatio="xMidYMid meet">
<metadata>
Created by potrace 1.16, written by Peter Selinger 2001-2019
</metadata>
<g transform="translate(0.000000,1024.000000) scale(0.100000,-0.100000)"
fill="#000000" stroke="none">
<path d="M4010 9390 c0 -6 -6 -10 -12 -9 -31 4 -58 -2 -71 -16 -10 -10 -17
-11 -19 -4 -3 8 -8 7 -18 -2 -8 -8 -24 -16 -35 -17 -11 -2 -21 -8 -23 -13 -2
-5 -12 -9 -23 -9 -10 0 -19 -5 -19 -11 0 -6 -7 -9 -15 -5 -9 3 -15 0 -15 -9 0
-8 -9 -15 -20 -15 -11 0 -19 -5 -17 -12 1 -7 -3 -12 -10 -13 -7 0 -23 -9 -35
-20 -13 -10 -23 -17 -24 -15 -1 3 -18 -10 -39 -27 -21 -18 -34 -33 -29 -33 5
-1 -2 -7 -16 -15 -14 -8 -22 -14 -17 -15 10 0 -27 -36 -52 -50 -12 -6 -21 -17
-21 -25 0 -8 -5 -15 -10 -15 -15 0 -130 -122 -130 -138 0 -7 -4 -10 -10 -7 -5
3 -10 -1 -10 -10 0 -10 -5 -13 -12 -9 -6 4 -8 3 -4 -4 3 -6 -2 -18 -11 -28
-10 -10 -16 -18 -13 -18 4 -1 -23 -36 -52 -67 -9 -9 -13 -20 -10 -24 4 -3 2
-9 -3 -13 -13 -9 -58 -108 -58 -127 0 -8 -4 -15 -9 -15 -4 0 -8 -6 -8 -13 0
-7 -9 -32 -20 -55 -11 -22 -20 -50 -20 -61 0 -10 -4 -21 -9 -23 -5 -1 -11 -16
-13 -33 -2 -16 -8 -36 -15 -42 -6 -7 -10 -21 -9 -30 2 -10 0 -20 -5 -23 -4 -3
-10 -19 -13 -35 -2 -17 -5 -30 -6 -30 -2 0 -11 -37 -12 -52 -1 -7 -5 -13 -10
-13 -4 0 -8 -8 -8 -17 0 -14 -9 -49 -28 -103 -3 -8 -4 -18 -4 -22 1 -5 -3 -8
-9 -8 -5 0 -8 -4 -4 -9 3 -5 1 -12 -5 -16 -6 -4 -7 -11 -4 -17 4 -6 2 -8 -3
-5 -10 6 -25 -14 -27 -35 -1 -4 -6 -12 -13 -19 -8 -8 -9 -18 -3 -30 7 -12 6
-18 -3 -22 -7 -2 -13 -16 -14 -29 -2 -14 -9 -37 -17 -53 -8 -15 -12 -35 -9
-44 4 -9 3 -13 -2 -9 -8 7 -62 -91 -57 -104 1 -5 -3 -8 -9 -8 -5 0 -7 -4 -4
-10 3 -5 2 -10 -4 -10 -6 0 -8 -7 -5 -15 4 -8 -1 -17 -10 -21 -9 -3 -14 -10
-11 -14 3 -4 -17 -16 -45 -26 -27 -10 -47 -21 -44 -26 3 -4 0 -8 -5 -8 -6 0
-11 6 -11 13 0 6 -10 0 -21 -15 -11 -16 -26 -28 -32 -28 -6 0 -2 7 9 16 18 14
18 14 -6 3 -14 -7 -31 -19 -38 -28 -8 -9 -11 -10 -7 -3 4 7 -8 4 -27 -8 -18
-11 -40 -20 -49 -20 -9 0 -22 -7 -29 -15 -7 -8 -16 -12 -21 -9 -5 3 -9 1 -9
-5 0 -6 -6 -8 -14 -5 -8 3 -17 0 -21 -5 -3 -6 -11 -9 -16 -6 -5 4 -12 0 -15
-8 -3 -8 -16 -13 -32 -11 -26 3 -26 2 -7 -12 18 -14 17 -14 -19 -9 -27 5 -36
3 -31 -5 4 -7 1 -10 -6 -9 -22 3 -50 -12 -42 -24 3 -5 1 -7 -5 -4 -13 9 -44
-2 -37 -13 3 -4 -3 -7 -13 -6 -9 0 -16 -5 -14 -12 1 -8 -2 -11 -8 -7 -6 3 -8
11 -5 16 3 5 -1 6 -9 3 -9 -3 -16 -10 -16 -15 0 -5 -3 -8 -7 -7 -5 1 -18 -3
-30 -10 -13 -7 -23 -9 -23 -5 0 4 -6 -1 -13 -12 -8 -10 -19 -15 -25 -11 -5 3
-12 2 -14 -3 -1 -5 -10 -11 -18 -13 -8 -2 -21 -9 -28 -16 -8 -7 -18 -10 -23
-7 -5 4 -9 1 -9 -4 0 -6 -9 -11 -19 -11 -24 0 -36 -16 -19 -23 7 -3 -3 -3 -22
0 -27 3 -31 2 -20 -6 16 -11 5 -16 -27 -12 -7 1 -13 -3 -13 -9 0 -6 -4 -9 -9
-5 -5 3 -12 1 -16 -4 -3 -6 -12 -8 -20 -4 -11 4 -13 1 -8 -13 6 -16 5 -17 -9
-6 -12 9 -18 10 -23 2 -4 -6 -13 -9 -20 -6 -7 2 -16 -2 -19 -10 -4 -9 -15 -13
-31 -10 -14 3 -25 0 -25 -5 0 -6 -4 -8 -9 -4 -5 3 -12 1 -16 -4 -3 -6 -13 -7
-22 -4 -10 4 -14 2 -9 -5 3 -6 2 -13 -4 -17 -5 -3 -10 -1 -10 6 0 7 -6 4 -14
-6 -8 -11 -11 -26 -9 -35 4 -9 0 -7 -10 5 -9 11 -17 16 -17 12 0 -4 -9 -3 -19
3 -11 5 -22 6 -25 1 -3 -4 -24 -8 -46 -7 -27 1 -39 -2 -36 -9 2 -7 -2 -12 -10
-12 -8 0 -14 4 -14 8 0 5 -10 5 -22 0 -13 -4 -33 -7 -45 -6 -13 1 -23 -2 -23
-7 0 -4 -3 -7 -7 -7 -24 4 -53 -2 -49 -10 3 -5 -1 -12 -10 -15 -9 -4 -13 -2
-8 5 4 8 0 8 -14 0 -12 -6 -24 -16 -27 -21 -4 -6 -11 -7 -17 -4 -6 4 -8 2 -4
-4 3 -5 1 -12 -6 -14 -7 -3 -5 -7 6 -11 9 -4 15 -3 12 2 -3 5 1 11 9 15 8 3
17 0 21 -6 4 -6 3 -8 -3 -5 -6 4 -13 0 -16 -8 -4 -8 -14 -12 -25 -10 -11 2
-19 -2 -19 -10 0 -8 5 -11 11 -8 6 3 5 0 -1 -8 -17 -18 -16 -39 1 -39 8 0 18
-4 21 -10 4 -6 -1 -7 -12 -4 -13 5 -12 2 5 -10 12 -10 19 -22 16 -28 -4 -6 -2
-8 4 -4 6 3 13 2 17 -4 4 -6 11 -7 17 -4 7 4 8 2 4 -4 -10 -16 4 -63 17 -55 6
4 8 -2 5 -15 -4 -12 -2 -20 2 -17 5 3 15 -8 24 -25 9 -19 10 -28 3 -23 -13 7
12 -27 27 -38 4 -4 4 -9 -2 -13 -12 -7 -4 -46 9 -46 5 0 8 -6 6 -12 -1 -8 7
-12 22 -10 16 3 21 0 16 -9 -5 -8 -4 -10 4 -5 6 4 9 12 6 17 -4 5 -1 9 5 9 8
0 7 6 -1 21 -9 17 -8 20 2 14 9 -6 11 -3 6 11 -6 16 -5 17 6 4 6 -8 19 -16 27
-18 8 -2 12 0 8 4 -4 4 -2 14 5 23 10 14 10 14 -4 3 -14 -10 -18 -10 -23 3 -3
9 -11 13 -17 9 -8 -4 -9 -3 -5 5 5 7 12 9 19 3 25 -18 55 -11 60 14 3 16 0 23
-7 21 -6 -3 -10 -9 -9 -14 1 -5 -8 -10 -20 -10 -16 -2 -18 0 -8 7 32 19 20 36
-26 36 -35 -1 -41 -3 -28 -12 14 -10 13 -12 -6 -17 -12 -3 -18 -10 -14 -16 3
-6 11 -8 17 -5 7 5 8 2 4 -5 -6 -9 -12 -8 -26 4 -14 13 -19 13 -23 3 -3 -7 -4
-3 -4 9 1 12 4 21 7 20 3 -1 17 11 32 26 15 15 23 27 17 27 -6 0 -8 4 -4 9 3
5 1 12 -4 16 -6 3 -8 -3 -6 -15 2 -11 0 -20 -6 -20 -13 0 -5 38 11 53 10 10
11 9 5 -2 -6 -11 -4 -13 7 -8 12 4 15 0 11 -16 -4 -18 -3 -19 6 -7 6 8 11 10
11 5 0 -6 -5 -16 -11 -22 -8 -8 -8 -13 0 -17 6 -4 11 -2 11 4 0 6 4 9 9 6 12
-8 41 4 41 16 0 6 -6 6 -14 -1 -10 -8 -16 -9 -21 -1 -4 6 -1 9 7 8 7 -2 12 3
10 11 -3 12 0 12 12 1 9 -7 16 -8 16 -2 0 15 25 21 41 10 11 -8 11 -9 -3 -5
-9 3 -22 -2 -30 -10 -11 -15 -11 -16 6 -9 19 6 19 6 3 -12 -24 -26 -21 -39 4
-16 13 12 19 14 17 5 -2 -7 3 -16 11 -19 10 -3 11 0 5 9 -6 12 -5 12 8 1 12
-10 18 -10 28 2 13 16 5 40 -11 30 -5 -3 -6 -10 -3 -16 4 -7 2 -8 -5 -4 -9 6
-9 11 -1 21 9 11 16 12 31 2 12 -7 15 -15 9 -21 -6 -6 -10 -15 -10 -20 0 -6 7
-3 15 8 7 10 17 16 22 13 4 -3 17 1 27 9 16 11 17 16 5 30 -15 18 -22 47 -9
39 5 -3 11 4 15 15 3 11 11 20 17 20 5 0 8 7 4 15 -3 8 -2 14 2 14 19 -3 25 2
12 11 -8 5 -10 10 -4 10 6 0 17 -7 24 -15 7 -8 9 -15 5 -15 -4 0 -3 -6 3 -13
14 -16 1 -37 -24 -41 -10 -2 -18 -9 -16 -17 2 -9 0 -10 -11 -1 -18 16 -30 3
-13 -14 14 -13 33 -14 54 -1 6 5 12 5 12 0 0 -4 5 0 11 10 5 9 18 17 28 17 22
0 44 23 33 36 -4 4 0 3 9 -4 12 -9 20 -8 37 4 12 8 22 13 22 9 0 -3 14 2 31
10 17 9 33 14 37 11 3 -3 12 0 21 8 9 8 19 15 24 15 24 2 57 14 57 22 0 5 6 6
14 3 8 -3 34 5 58 17 23 13 46 22 51 21 4 -1 7 2 7 8 0 5 7 10 15 10 8 0 15 5
15 11 0 5 4 8 9 5 4 -3 26 4 47 15 21 11 49 20 62 21 12 1 22 6 22 10 0 4 3 7
8 7 4 -1 9 0 12 1 16 6 50 5 50 -2 0 -4 -5 -8 -12 -8 -6 0 -9 -3 -5 -6 3 -3
12 -2 19 2 20 13 31 12 53 -5 18 -15 19 -15 8 0 -14 17 0 39 25 39 7 0 11 4 7
9 -6 10 27 7 45 -4 6 -3 13 0 15 8 3 7 16 13 28 12 12 -1 30 2 40 7 18 9 18
10 1 31 -18 21 -18 22 1 5 19 -18 28 -57 13 -59 -4 -1 -12 -2 -17 -3 -5 0 -13
-5 -18 -9 -4 -5 -1 -7 7 -5 8 1 14 -3 12 -9 -1 -7 2 -13 7 -13 6 0 7 -10 5
-22 -3 -13 -5 -29 -5 -35 1 -7 1 -21 1 -30 0 -29 2 -87 3 -105 1 -10 4 -18 8
-18 11 0 21 -51 25 -133 2 -42 6 -88 8 -102 3 -14 0 -27 -5 -31 -5 -3 -6 -11
-2 -17 11 -18 13 -32 18 -142 5 -90 10 -135 15 -142 2 -2 3 -6 5 -10 14 -52
18 -62 26 -57 5 3 9 1 9 -5 0 -5 9 -8 20 -6 24 5 62 -48 52 -73 -3 -9 -1 -13
5 -9 6 4 13 0 17 -8 3 -8 0 -15 -6 -15 -6 0 -1 -8 10 -19 12 -10 19 -21 16
-24 -3 -3 9 -27 27 -53 17 -26 27 -44 21 -40 -7 4 -12 2 -12 -3 0 -6 7 -11 16
-11 10 0 14 -6 10 -15 -3 -8 2 -19 12 -24 9 -6 12 -11 5 -11 -8 0 -4 -18 11
-52 28 -62 39 -90 40 -100 1 -3 4 -9 8 -13 4 -4 4 -13 2 -20 -3 -7 0 -16 7
-21 8 -5 10 -3 4 6 -5 9 -4 11 3 6 9 -5 9 -13 2 -27 -8 -14 -7 -19 1 -19 7 0
9 -3 6 -7 -4 -3 2 -20 13 -38 11 -18 17 -35 13 -38 -3 -4 -1 -7 5 -7 7 0 12
-8 12 -18 0 -10 3 -22 8 -26 4 -4 7 -11 7 -14 1 -24 29 -102 37 -102 5 0 7 -4
3 -9 -3 -5 8 -34 24 -65 16 -31 25 -53 20 -50 -5 3 -9 0 -9 -5 0 -6 8 -11 18
-11 11 0 13 -3 6 -8 -8 -5 -9 -14 -1 -32 12 -31 13 -34 27 -90 7 -25 14 -52
18 -60 3 -8 6 -18 7 -22 2 -5 4 -11 5 -15 1 -5 1 -16 0 -27 -1 -12 3 -16 10
-11 9 5 10 1 5 -14 -4 -14 -2 -21 7 -21 10 0 9 -3 -2 -10 -8 -5 -10 -10 -4
-10 7 0 15 -7 18 -16 4 -10 2 -13 -7 -8 -9 6 -9 4 -1 -7 7 -8 8 -22 4 -34 -6
-15 -1 -28 18 -48 22 -24 24 -29 12 -37 -13 -8 -12 -10 3 -10 9 0 17 -4 17
-10 0 -5 5 -10 10 -10 6 0 20 -9 32 -20 12 -11 16 -20 9 -20 -7 0 -9 -5 -6
-10 4 -6 11 -7 17 -4 6 4 8 3 5 -2 -7 -13 9 -39 24 -39 7 0 13 -8 15 -18 1 -9
-2 -15 -7 -11 -5 3 -6 10 -3 16 4 7 2 8 -4 4 -9 -5 -5 -17 13 -40 14 -18 22
-35 19 -39 -9 -8 19 -3 36 8 10 5 9 1 -3 -12 -14 -16 -15 -23 -6 -29 8 -4 10
-3 5 4 -4 7 -2 12 3 12 6 0 11 -8 11 -18 0 -9 10 -22 23 -27 12 -6 22 -17 22
-25 0 -18 30 -50 48 -50 8 0 7 -4 -3 -10 -16 -10 -2 -16 25 -10 6 1 7 -2 3 -6
-4 -4 -3 -13 3 -21 6 -7 8 -13 4 -13 -4 0 4 -11 18 -24 14 -13 23 -26 21 -29
-3 -3 4 -8 15 -12 12 -3 19 -10 16 -15 -3 -4 2 -11 11 -14 9 -4 14 -9 11 -12
-3 -3 16 -26 41 -52 25 -26 44 -48 44 -49 -6 -9 -1 -23 6 -19 5 3 15 -7 23
-22 15 -30 34 -52 44 -52 3 0 3 4 0 10 -10 16 1 11 16 -7 10 -11 10 -14 2 -9
-19 11 -16 -5 5 -21 10 -8 11 -11 2 -7 -13 7 -13 5 -1 -9 7 -9 20 -17 27 -17
8 0 14 -7 14 -15 0 -9 11 -27 25 -41 14 -14 25 -29 25 -34 0 -5 11 -21 26 -35
14 -14 23 -29 19 -34 -3 -5 0 -13 6 -17 8 -4 9 -3 5 4 -4 7 -2 12 3 12 6 0 11
-9 11 -20 0 -11 5 -20 11 -20 5 0 7 -5 3 -12 -5 -8 -2 -9 10 -5 10 4 16 2 15
-6 -4 -32 1 -43 12 -27 9 12 10 11 6 -7 -3 -16 0 -23 9 -23 8 0 14 -3 13 -8
-3 -19 15 -52 28 -52 8 0 12 -4 8 -9 -3 -5 -1 -12 5 -16 6 -4 8 -11 5 -16 -6
-8 8 -13 28 -10 4 1 3 -8 -4 -20 -9 -17 -8 -20 2 -14 9 6 11 3 6 -8 -4 -11 -1
-15 13 -12 11 2 22 -1 26 -6 3 -5 0 -8 -8 -7 -18 4 -18 -33 1 -56 14 -17 14
-18 1 -12 -8 4 -6 0 4 -8 15 -12 16 -16 5 -16 -12 0 -12 -2 1 -10 8 -5 11 -10
7 -10 -5 0 -1 -7 7 -16 9 -8 14 -19 11 -24 -3 -5 4 -15 16 -24 12 -8 18 -19
14 -25 -3 -6 1 -14 10 -17 13 -6 14 -8 3 -15 -10 -7 -9 -9 5 -9 10 0 15 -5 12
-10 -3 -5 -1 -10 5 -10 6 0 9 -4 5 -9 -3 -6 0 -13 7 -18 22 -14 47 -49 28 -39
-8 4 -6 0 5 -9 11 -9 19 -23 17 -30 -2 -10 3 -13 14 -8 14 5 16 3 11 -11 -4
-10 -1 -19 8 -22 8 -4 15 -12 15 -20 0 -8 10 -14 23 -14 13 0 17 -3 10 -8 -8
-5 -8 -11 1 -24 7 -10 15 -15 18 -13 3 3 11 -8 18 -25 7 -16 17 -30 22 -30 5
0 7 -4 3 -9 -3 -5 -1 -12 5 -16 6 -4 8 -10 5 -15 -3 -4 2 -11 11 -14 8 -3 12
-10 9 -16 -3 -5 -2 -10 4 -10 5 0 15 -16 21 -35 6 -19 16 -35 21 -35 5 0 7
-11 5 -25 -3 -16 -1 -23 6 -19 6 4 9 1 6 -7 -3 -8 2 -20 11 -27 9 -8 10 -10 3
-7 -15 8 5 -34 22 -46 5 -4 5 -12 2 -18 -4 -6 -3 -11 2 -11 5 0 17 -16 26 -35
9 -19 23 -35 31 -35 8 0 15 -5 15 -11 0 -5 -5 -7 -11 -3 -6 3 1 -13 16 -36 15
-23 22 -39 16 -36 -5 4 -9 -2 -8 -13 0 -11 5 -17 11 -14 5 4 7 -3 4 -15 -4
-12 -2 -20 3 -16 5 3 9 -4 9 -16 0 -11 12 -32 26 -45 25 -23 26 -23 45 -4 11
11 25 17 31 13 7 -4 8 -3 4 5 -4 6 -12 9 -17 6 -5 -4 -9 -1 -9 4 0 6 5 11 11
11 5 0 8 4 4 9 -3 6 3 15 12 21 15 10 15 11 1 6 -21 -6 -51 76 -34 95 8 9 8
10 -1 5 -7 -4 -13 -3 -13 1 0 5 6 15 13 22 10 11 9 12 -2 6 -9 -5 -12 -3 -9 6
3 8 1 23 -5 34 -6 11 -12 27 -14 36 -7 43 -23 68 -41 64 -10 -2 -24 5 -31 16
-11 19 -11 19 13 4 16 -11 26 -13 31 -6 3 6 0 11 -7 11 -7 0 -21 7 -32 15 -17
13 -17 15 -2 30 15 15 16 15 14 -6 -2 -12 2 -24 9 -26 8 -3 11 3 8 16 -4 23
-23 61 -31 61 -3 0 -2 -5 1 -10 3 -6 1 -10 -4 -10 -6 0 -11 8 -11 18 0 15 -2
15 -11 2 -9 -13 -10 -13 -6 0 2 8 13 14 23 12 15 -2 13 1 -6 12 -14 9 -20 15
-14 16 7 0 15 7 18 16 3 8 2 12 -3 9 -13 -7 -18 3 -25 49 -6 36 -5 38 11 25
14 -12 15 -12 9 0 -5 8 -3 17 5 22 11 7 11 9 1 9 -7 0 -10 4 -7 10 3 5 2 10
-4 10 -6 0 -8 7 -5 15 4 8 11 12 17 8 6 -3 7 -1 3 6 -4 6 -12 9 -17 6 -13 -9
-11 9 4 24 10 10 8 11 -8 5 -16 -6 -18 -4 -8 6 10 11 10 17 -3 31 -9 10 -17
28 -19 41 -2 12 -8 37 -13 55 -6 17 -8 34 -4 37 3 3 0 6 -7 6 -7 0 -9 5 -6 10
3 6 2 10 -3 10 -13 0 -10 33 5 48 8 8 13 9 13 3 0 -6 4 -11 8 -11 10 0 6 74
-6 97 -4 10 -8 46 -8 80 1 35 -3 63 -7 63 -5 0 -7 8 -5 18 2 11 -4 27 -12 37
-9 11 -10 16 -2 11 6 -4 12 -2 12 3 0 6 -4 11 -10 11 -5 0 -10 14 -10 30 0 17
-4 30 -10 30 -5 0 -10 7 -10 16 0 8 -4 13 -9 10 -5 -4 -7 3 -4 14 3 12 0 20
-6 20 -7 0 -9 5 -6 10 3 5 0 10 -8 10 -14 0 -32 27 -29 42 1 4 -5 5 -13 2 -8
-4 -15 -1 -15 5 0 6 -7 11 -16 11 -8 0 -12 5 -9 10 3 6 -1 10 -10 10 -9 0 -13
4 -10 10 3 5 -1 10 -9 10 -9 0 -16 4 -16 9 0 5 -17 28 -39 50 -21 22 -36 42
-33 45 3 3 -3 8 -12 12 -9 3 -16 13 -16 21 0 8 -4 11 -10 8 -9 -6 -14 8 -11
28 0 4 -4 7 -9 7 -6 0 -10 6 -10 14 0 8 -7 17 -16 20 -9 4 -14 9 -11 12 2 3
-5 16 -17 29 -35 39 -47 55 -40 55 4 0 -1 9 -11 20 -10 11 -15 20 -11 20 4 0
0 7 -8 16 -9 8 -14 20 -11 25 4 5 1 9 -4 9 -6 0 -11 7 -11 15 0 9 -10 20 -22
25 -13 5 -18 9 -13 10 6 0 6 3 -1 8 -20 14 -55 82 -48 93 4 7 3 10 -2 7 -8 -5
-38 17 -32 24 5 7 -27 66 -33 62 -4 -2 -17 17 -30 43 -41 78 -43 83 -54 83 -5
0 -4 4 4 9 11 7 10 10 -5 15 -12 4 -29 30 -44 68 -13 35 -30 74 -37 88 -7 14
-13 31 -13 38 0 6 -4 12 -9 12 -5 0 -7 10 -3 22 4 16 2 19 -9 12 -9 -5 -7 3 5
21 13 20 14 26 4 18 -13 -11 -15 -8 -14 22 1 19 5 35 11 35 5 0 5 4 -2 8 -7 4
-13 23 -15 41 -1 18 -6 35 -10 37 -5 3 -6 10 -3 15 4 5 2 9 -3 9 -6 0 -8 8 -5
19 3 10 0 22 -6 25 -5 4 -8 13 -4 21 3 8 1 15 -4 15 -5 0 -9 10 -10 23 0 12
-4 38 -7 57 -4 19 -8 46 -10 60 -2 14 -5 27 -6 30 -1 3 -2 9 -1 14 1 5 -3 12
-9 16 -8 5 -7 9 4 13 12 5 16 0 17 -16 1 -17 2 -18 6 -4 2 9 8 15 11 13 10 -6
8 67 -2 82 -4 7 -2 12 4 12 6 0 5 14 -5 37 -9 20 -13 43 -11 49 3 7 0 15 -7
18 -9 3 -8 5 1 5 10 1 10 6 2 21 -8 15 -8 20 1 20 7 0 4 9 -7 22 -12 13 -13
18 -4 13 11 -6 10 -3 -2 11 -14 16 -15 23 -5 34 9 10 9 11 0 6 -7 -4 -13 -5
-13 -3 0 7 93 62 105 62 15 0 48 32 42 42 -3 4 1 17 9 28 9 12 14 14 14 5 0
-7 3 -10 6 -7 4 3 14 2 24 -3 12 -6 17 -5 17 5 0 7 -6 11 -13 8 -6 -2 -15 0
-18 5 -3 5 8 8 24 6 17 -2 30 1 30 7 0 6 -4 7 -10 4 -5 -3 -10 1 -10 10 0 10
5 13 12 9 7 -5 8 -3 2 7 -12 20 -14 40 -3 33 5 -3 9 -1 9 5 0 5 8 9 18 9 9 0
23 1 31 3 7 2 16 -3 18 -11 4 -13 3 -13 -6 0 -9 12 -11 11 -11 -7 0 -22 18
-27 31 -10 3 5 9 1 12 -8 4 -9 3 -13 -3 -10 -6 3 -7 -1 -3 -10 4 -12 8 -13 13
-5 4 6 11 11 16 10 5 -1 10 4 13 11 2 6 -1 9 -6 6 -5 -3 -10 0 -10 8 0 8 5 11
11 7 20 -12 36 -10 36 4 0 8 3 13 8 13 19 -3 32 2 32 12 0 7 7 17 16 23 13 10
20 28 23 59 1 5 6 5 13 1 7 -5 9 -2 5 9 -4 12 -2 14 10 10 11 -4 14 -2 9 5 -4
7 -3 12 3 12 5 0 12 -6 14 -12 3 -8 6 -6 6 5 1 9 6 17 12 17 5 0 7 5 4 10 -3
6 -1 10 4 10 6 0 11 8 11 17 0 9 3 13 7 10 3 -4 14 11 24 32 16 37 52 70 81
75 27 4 39 17 28 31 -8 9 -5 12 14 10 14 -2 27 3 30 11 3 8 2 12 -3 9 -5 -3
-12 -1 -15 4 -4 5 2 8 11 7 10 -2 24 4 31 13 8 9 11 10 7 4 -4 -8 0 -13 9 -13
9 0 16 5 16 12 0 6 3 8 7 5 3 -4 12 1 20 11 8 9 12 11 8 5 -8 -16 11 -17 20
-2 4 6 14 8 22 5 8 -4 11 -1 8 5 -4 6 -14 8 -22 5 -8 -4 -11 -2 -7 5 3 6 17 9
30 6 20 -3 22 -1 14 14 -7 12 -6 20 2 25 6 4 8 3 4 -4 -3 -6 -2 -13 4 -17 5
-3 10 -1 10 6 0 8 4 9 13 0 11 -8 13 -6 13 12 -1 13 4 21 12 20 6 -2 18 -4 25
-5 6 -2 11 3 9 10 -1 6 3 12 10 12 6 0 8 3 5 7 -4 3 2 13 13 20 11 8 18 18 15
23 -3 4 3 7 13 6 11 -1 17 6 17 19 0 15 7 20 24 19 23 -1 23 0 6 13 -18 12
-10 19 18 14 4 0 7 4 7 10 0 6 -9 8 -22 3 -13 -3 -21 -5 -18 -3 3 2 15 12 27
22 16 14 23 15 29 6 5 -8 3 -10 -6 -4 -9 5 -11 4 -6 -4 6 -9 14 -6 30 11 13
14 18 26 11 30 -6 5 -5 8 3 8 6 0 12 6 12 14 0 8 5 18 12 22 7 5 8 2 3 -7 -5
-8 -4 -11 0 -6 5 4 10 17 12 29 2 12 7 25 11 28 4 3 7 11 6 18 -1 6 -2 17 -3
23 0 5 -5 8 -10 4 -13 -7 19 56 37 74 11 11 11 15 0 22 -10 7 -10 9 0 9 6 0
12 4 12 9 0 5 4 20 9 33 5 13 9 27 9 32 0 5 5 12 11 15 9 6 17 33 26 95 2 15
7 36 10 47 8 24 -5 46 -62 106 -26 28 -66 69 -88 93 -41 44 -88 74 -99 63 -3
-4 -6 -1 -6 5 0 7 -9 12 -20 12 -11 0 -20 5 -20 11 0 5 -4 7 -10 4 -5 -3 -10
-1 -10 6 0 7 -3 9 -7 6 -3 -4 -11 -3 -17 2 -13 10 -77 31 -109 36 -12 2 -33 6
-47 10 -14 4 -31 7 -37 7 -7 1 -13 5 -13 9 0 4 -9 6 -20 4 -11 -2 -20 1 -20 7
0 7 -5 6 -15 -2 -12 -10 -16 -9 -21 4 -3 9 -10 14 -14 11 -5 -3 -11 -1 -15 4
-3 6 -12 8 -20 4 -9 -3 -22 0 -30 7 -8 7 -15 10 -15 6 0 -4 -13 0 -30 9 -16 8
-33 14 -37 13 -4 -1 -17 3 -28 9 -11 5 -30 9 -42 8 -12 -1 -20 2 -18 6 3 4 -2
10 -11 13 -10 4 -13 2 -8 -7 6 -9 5 -9 -7 0 -21 17 -32 16 -40 -4 -7 -16 -8
-16 -8 3 -1 12 -8 25 -17 28 -8 3 -12 2 -9 -4 3 -6 1 -10 -4 -10 -6 0 -11 5
-11 11 0 8 -6 7 -17 -2 -15 -12 -16 -12 -8 1 4 8 4 12 0 7 -5 -4 -17 1 -28 10
-11 10 -17 12 -13 6 4 -7 2 -13 -3 -13 -6 0 -11 5 -11 10 0 6 -5 10 -11 10 -5
0 -7 -4 -4 -10 10 -16 0 -12 -25 10 -12 11 -27 17 -33 13 -5 -3 -16 2 -24 12
-12 17 -13 18 -13 1 0 -9 -5 -14 -10 -11 -6 4 -8 10 -5 15 3 4 -5 6 -17 2 -16
-4 -19 -2 -13 8 5 9 4 11 -3 6 -20 -12 -52 -15 -52 -5 0 6 -4 8 -9 4 -17 -10
-50 35 -47 64 1 14 -1 34 -6 43 -5 11 -3 22 8 32 9 9 11 16 4 16 -6 0 -8 5 -3
13 4 6 8 17 8 22 0 6 13 36 28 68 15 32 27 62 27 67 0 6 5 10 11 10 5 0 7 5 4
10 -3 6 -2 10 3 10 11 0 34 49 27 60 -3 4 5 10 16 13 12 3 18 10 14 16 -3 6 1
14 9 17 9 3 13 10 10 15 -3 5 -1 9 4 9 5 0 21 25 37 55 15 31 32 58 36 61 5 3
7 10 4 15 -4 5 -1 9 4 9 6 0 11 5 11 11 0 28 43 100 68 113 15 8 26 17 25 20
-7 15 -2 17 12 6 10 -8 15 -9 15 -1 0 6 9 4 19 -6 11 -9 17 -21 14 -26 -3 -6
-1 -7 6 -3 6 4 8 12 5 18 -4 6 -1 8 7 6 8 -3 13 -11 11 -17 -1 -7 2 -10 8 -6
6 3 8 11 5 16 -4 5 0 9 8 9 8 0 18 7 21 16 3 8 2 12 -4 9 -16 -10 -12 7 5 19
13 10 13 14 0 39 -13 26 -13 28 8 36 63 25 73 102 12 96 -14 -2 -25 1 -25 6 0
6 -5 7 -10 4 -6 -3 -15 6 -20 20 -13 33 -13 32 5 32 8 0 12 -4 10 -8 -3 -3 3
-9 13 -11 20 -6 46 17 37 32 -3 6 -2 10 4 10 5 0 13 -5 17 -12 5 -7 11 -5 21
7 7 11 13 15 13 11 0 -5 7 -3 15 4 8 7 13 15 11 19 -3 4 6 8 20 9 21 2 24 -1
19 -26 -3 -15 -2 -21 1 -14 3 6 10 9 16 6 12 -8 7 27 -7 42 -5 7 -13 10 -17 8
-3 -2 -9 9 -13 26 -4 19 -11 28 -18 23 -7 -4 -5 2 3 12 8 10 10 16 4 12 -7 -4
-17 0 -23 7 -8 10 -9 16 -1 21 6 3 8 11 4 16 -3 6 -14 1 -24 -11 -16 -18 -18
-19 -24 -4 -4 10 -1 21 5 25 22 13 -1 30 -24 17 -12 -7 -25 -11 -29 -10 -5 1
-8 -2 -8 -8 0 -5 -6 -7 -14 -4 -8 3 -17 1 -21 -5 -12 -21 -48 -13 -42 9 3 11
0 20 -6 20 -8 0 -8 3 0 11 13 13 6 46 -13 53 -8 3 -14 15 -14 26 0 12 4 19 9
16 5 -3 12 1 15 10 3 8 11 14 18 13 27 -3 39 1 32 13 -5 8 -2 9 10 5 11 -4 15
-3 10 4 -3 6 -16 8 -28 5 -19 -5 -19 -4 -4 8 10 7 14 17 10 22 -4 5 4 0 17
-11 14 -11 21 -14 17 -7 -4 7 -1 12 8 12 9 0 16 5 16 11 0 5 4 7 10 4 6 -3 7
1 4 9 -3 9 -10 16 -15 16 -13 0 -11 17 4 32 18 18 28 48 17 48 -6 0 -10 5 -10
11 0 6 -13 24 -29 40 -17 16 -33 38 -36 49 -3 11 -11 19 -18 17 -6 -1 -11 3
-12 10 0 7 -7 18 -15 25 -12 11 -12 11 -3 -2 8 -10 9 -21 3 -30 -7 -10 -10
-11 -10 -2 0 6 -9 21 -20 32 -11 11 -20 15 -20 10z m178 -548 c-1 -4 2 -15 7
-25 4 -10 2 -23 -4 -30 -8 -10 -7 -17 1 -25 7 -7 10 -12 7 -12 -3 0 -14 10
-25 22 -10 12 -13 18 -5 13 10 -6 12 -4 6 5 -5 9 -4 11 3 6 7 -4 12 0 12 10 0
16 -1 16 -20 -1 -11 -10 -17 -22 -14 -26 3 -5 -2 -9 -11 -9 -9 0 -13 -5 -9
-11 4 -7 -2 -6 -17 2 -21 11 -23 11 -11 -3 10 -13 10 -18 1 -24 -7 -4 -9 -3
-6 3 4 6 0 13 -8 17 -19 7 -30 -11 -16 -28 14 -16 4 -27 -17 -19 -10 4 -13 2
-8 -5 11 -18 0 -14 -15 5 -8 9 -9 14 -3 10 6 -3 16 4 22 17 12 28 5 41 -14 25
-17 -14 -59 -18 -76 -8 -11 7 -11 9 0 9 7 0 10 5 6 12 -4 7 -3 8 4 4 7 -4 12
-1 12 6 0 9 3 9 10 -2 8 -12 10 -11 10 8 0 12 5 22 11 22 5 0 8 -4 5 -9 -3 -5
1 -11 9 -14 10 -4 12 -1 8 10 -5 12 -2 14 8 9 8 -4 5 0 -6 9 -19 15 -19 16 5
13 18 -2 24 1 22 12 -2 8 0 11 4 7 12 -12 14 -38 2 -31 -7 5 -8 2 -4 -5 6 -9
13 -8 27 5 11 9 22 14 26 11 3 -4 2 -7 -4 -7 -6 0 -14 -8 -17 -17 -6 -16 -6
-16 12 0 10 9 22 14 27 10 4 -5 5 -2 1 5 -10 17 11 42 29 35 8 -2 14 -8 13
-11z m-312 -1224 c4 -6 3 -8 -3 -5 -6 4 -13 -3 -17 -16 -6 -24 19 -51 38 -39
7 4 5 8 -6 10 -24 5 -23 17 2 19 11 1 19 -1 19 -5 -4 -25 2 -35 13 -24 16 16
28 15 28 -3 0 -8 4 -15 10 -15 11 0 1 32 -14 42 -7 5 -6 8 2 8 8 0 16 -9 19
-21 4 -14 8 -17 13 -9 5 8 12 1 21 -18 7 -17 17 -28 22 -25 4 3 1 15 -7 27
-12 19 -12 23 -1 23 8 0 14 -3 13 -6 -2 -22 4 -31 15 -24 6 4 1 -7 -13 -24
-14 -18 -31 -32 -39 -32 -11 -1 -11 -4 0 -18 12 -16 12 -16 -1 -6 -11 9 -19 9
-30 0 -19 -15 -27 -52 -9 -41 8 5 10 3 4 -6 -6 -10 -11 -9 -22 5 -9 13 -10 22
-3 29 12 12 13 29 1 22 -5 -3 -14 1 -21 9 -7 8 -20 15 -29 15 -12 0 -11 -4 7
-18 21 -17 22 -18 3 -18 -11 0 -19 3 -19 6 1 17 -4 21 -15 11 -10 -8 -14 -7
-14 4 0 7 5 13 10 12 5 -1 11 3 14 10 2 6 -4 10 -14 9 -10 -2 -20 -14 -23 -27
-6 -23 -6 -23 -15 6 -4 17 -7 34 -6 39 1 5 -5 6 -13 3 -9 -4 -18 -2 -21 3 -4
6 -11 10 -18 10 -8 0 -8 -3 1 -12 15 -15 16 -28 2 -28 -6 0 -9 3 -9 8 4 22 -3
24 -15 3 l-14 -24 -6 21 c-4 12 -12 22 -17 22 -5 0 -9 6 -9 13 1 6 10 1 20
-12 15 -17 20 -19 20 -8 0 9 -5 19 -11 22 -7 5 -4 14 7 26 14 15 20 17 32 6
13 -10 15 -9 9 6 -6 16 -4 16 21 3 30 -16 52 -6 65 27 7 20 13 21 23 5z m-212
-223 c10 -8 22 -12 27 -10 4 3 6 -3 4 -12 -4 -30 6 -35 28 -16 18 14 17 12 -2
-10 -14 -15 -31 -27 -38 -27 -8 0 -11 -5 -8 -10 4 -6 10 -8 15 -5 5 3 11 -4
15 -15 3 -11 11 -20 16 -20 6 0 7 6 3 13 -5 7 0 6 11 -3 17 -14 17 -13 11 10
-4 14 -4 20 1 15 9 -12 63 -16 63 -5 0 4 6 10 14 13 11 4 13 0 9 -16 -3 -12
-5 -31 -5 -42 1 -20 1 -20 -14 -1 -8 11 -14 24 -14 30 0 5 -7 1 -16 -10 -8
-10 -12 -13 -9 -6 6 12 3 12 -16 1 -29 -16 -60 -19 -52 -6 3 6 1 7 -6 3 -6 -4
-9 -10 -7 -14 2 -4 -2 -13 -10 -20 -11 -10 -15 -8 -24 8 -10 19 18 48 34 33 3
-3 6 -2 6 3 0 15 -38 34 -54 28 -8 -3 -12 -13 -9 -22 4 -15 3 -15 -6 -2 -8 11
-11 12 -11 2 0 -7 -4 -11 -9 -8 -5 3 -17 -6 -26 -20 -9 -15 -12 -23 -6 -20 6
4 11 2 11 -4 0 -6 5 -8 11 -4 8 4 7 9 -2 16 -11 7 -10 8 4 4 12 -4 16 -2 12 7
-4 6 0 4 8 -6 11 -13 16 -14 19 -6 3 9 6 8 11 -3 4 -13 1 -16 -17 -12 -19 3
-22 -1 -22 -26 0 -17 3 -30 8 -30 4 0 11 -1 15 -2 3 -2 7 5 9 15 1 9 -2 15 -7
11 -5 -3 -9 -1 -9 4 0 5 9 12 21 15 15 4 19 2 15 -9 -4 -12 -2 -12 14 -4 25
13 27 -5 3 -19 -10 -6 -13 -11 -7 -11 5 0 16 6 23 13 11 10 13 9 8 -6 -5 -14
-3 -16 10 -9 9 6 17 19 18 30 1 12 -2 19 -6 16 -4 -2 -10 0 -13 5 -10 15 22
21 34 6 8 -10 8 -14 -2 -18 -9 -3 -7 -9 7 -21 18 -14 18 -15 3 -16 -10 0 -18
-4 -18 -10 0 -12 22 -9 32 5 5 6 8 5 8 -2 0 -7 7 -10 18 -7 14 5 14 4 2 -4 -8
-6 -18 -8 -22 -6 -4 3 -8 1 -8 -5 0 -6 -6 -8 -14 -5 -18 7 -30 -12 -15 -22 7
-4 9 -3 6 3 -4 6 4 11 18 11 14 0 23 -4 20 -8 -3 -4 2 -13 9 -19 10 -9 16 -9
21 -1 4 6 1 9 -5 8 -7 -2 -14 5 -15 15 -2 12 1 17 10 13 7 -2 16 -2 20 2 10
10 74 9 68 -1 -3 -5 1 -13 8 -18 9 -6 10 -9 2 -9 -7 0 -16 7 -21 16 -8 14 -10
14 -22 -1 -11 -14 -11 -19 5 -33 16 -16 17 -16 5 8 -12 23 -12 24 3 11 10 -7
17 -20 17 -28 0 -8 4 -12 9 -8 5 3 16 -2 24 -10 17 -16 32 -20 23 -6 -8 13 3
38 19 45 8 3 17 1 20 -5 4 -5 1 -8 -7 -7 -7 2 -12 -3 -10 -10 1 -8 -2 -11 -7
-8 -4 3 -8 -6 -8 -20 0 -22 3 -25 24 -19 16 4 22 2 18 -5 -3 -5 -1 -10 4 -10
6 0 9 10 7 23 -3 12 -5 24 -5 26 -1 3 -8 -4 -16 -15 -8 -10 -15 -14 -15 -8 0
6 6 16 13 22 15 13 43 -1 33 -16 -3 -6 -2 -13 3 -16 5 -3 11 3 14 14 3 12 -1
24 -11 30 -10 5 -13 10 -8 10 5 0 18 -7 28 -17 10 -9 18 -11 18 -6 0 6 -7 16
-15 23 -18 15 -20 42 -2 39 27 -3 38 1 31 14 -5 8 -3 8 9 -2 9 -7 14 -17 11
-22 -3 -5 0 -9 5 -9 6 0 11 -5 11 -11 0 -8 -6 -7 -16 2 -15 12 -16 11 -10 -11
6 -21 5 -22 -4 -7 -6 9 -8 22 -5 27 3 6 2 10 -4 10 -17 0 -23 -20 -11 -35 14
-17 4 -38 -13 -28 -8 5 -8 2 0 -9 7 -8 10 -18 6 -22 -4 -4 0 -4 10 0 9 3 24 1
31 -5 10 -8 16 -9 21 -1 3 5 13 10 21 10 10 0 12 -5 8 -12 -5 -9 -2 -9 9 1 14
11 17 11 17 0 0 -11 2 -11 10 1 6 10 10 11 10 3 0 -7 7 -13 15 -13 8 0 15 5
15 11 0 6 7 4 15 -5 9 -8 22 -13 30 -9 9 3 22 0 30 -7 12 -10 15 -10 15 0 0 8
3 10 7 7 3 -4 12 -2 18 3 9 8 12 1 9 -25 -1 -23 2 -35 9 -34 27 3 38 -2 31
-13 -5 -9 -2 -9 9 1 11 9 17 10 17 2 0 -6 5 -11 11 -11 5 0 8 4 5 8 -3 5 2 9
10 9 8 0 13 -6 10 -13 -3 -9 1 -11 11 -7 11 4 14 2 9 -5 -5 -8 -1 -10 10 -5
12 4 15 3 10 -5 -5 -8 -2 -10 8 -6 9 3 16 1 16 -5 0 -7 7 -11 16 -9 10 2 19
-4 21 -12 4 -13 3 -13 -6 0 -6 8 -11 10 -11 4 0 -6 3 -14 7 -18 10 -10 11 -46
1 -52 -5 -3 -3 -13 4 -22 11 -14 10 -15 -7 -8 -16 6 -17 5 -8 -5 10 -10 9 -16
-4 -31 -9 -10 -13 -18 -9 -18 3 0 0 -13 -9 -30 -9 -16 -20 -30 -25 -30 -6 0
-9 -4 -7 -9 4 -14 -105 -110 -115 -100 -2 2 -14 -6 -28 -18 -13 -13 -30 -23
-37 -23 -7 0 -13 -4 -13 -10 0 -5 -12 -10 -26 -10 -14 0 -22 -4 -19 -10 4 -6
-1 -7 -10 -3 -10 3 -21 0 -26 -8 -7 -11 -9 -11 -9 -1 0 8 -5 10 -12 5 -7 -4
-24 -6 -37 -4 -15 2 -21 -1 -17 -8 4 -6 0 -11 -9 -11 -9 0 -27 -7 -40 -16 -14
-9 -25 -13 -25 -8 0 4 -23 -16 -50 -44 -28 -29 -55 -52 -61 -52 -5 0 -7 -4 -4
-10 3 -5 1 -10 -4 -10 -6 0 -11 -7 -11 -15 0 -8 -7 -15 -16 -15 -8 0 -13 -4
-10 -8 3 -5 -8 -23 -23 -40 -16 -17 -27 -33 -24 -36 3 -2 -4 -11 -16 -18 -12
-7 -21 -19 -21 -26 0 -7 -4 -11 -9 -7 -5 3 -17 -2 -25 -11 -9 -8 -16 -13 -16
-9 0 3 -13 -3 -29 -14 -16 -12 -33 -21 -39 -21 -5 0 -25 -16 -45 -35 -20 -19
-41 -35 -47 -35 -6 0 -9 -3 -7 -7 5 -9 -33 -47 -49 -50 -6 -1 -11 4 -11 12 0
8 5 11 11 8 6 -4 3 3 -7 14 -9 11 -14 23 -10 26 3 4 1 7 -6 7 -8 0 -11 7 -7
15 3 8 0 15 -7 15 -8 0 -6 4 3 10 9 6 10 10 3 10 -8 0 -11 16 -9 50 2 28 1 50
-3 50 -4 0 -7 18 -8 41 -1 22 -8 48 -15 57 -10 12 -10 14 -1 8 10 -5 11 -1 3
19 -6 15 -10 37 -10 51 0 13 -6 24 -12 25 -10 0 -10 2 0 6 6 2 9 10 5 16 -5 9
-13 92 -17 180 0 15 -3 27 -6 27 -16 0 -17 355 -2 384 3 5 6 22 7 38 2 15 13
53 25 83 l22 54 26 -17 c14 -9 23 -12 19 -5 -4 7 1 14 14 18 19 7 20 7 2 21
-15 11 -15 13 -2 8 21 -7 34 12 14 20 -8 3 -15 12 -15 20 0 8 -4 17 -9 21 -6
3 -9 -4 -8 -15 1 -11 6 -20 11 -20 17 0 -4 -14 -24 -15 -23 -2 -27 10 -5 19 8
3 12 12 9 20 -3 8 3 23 13 33 11 11 17 25 15 31 -2 7 2 12 8 12 7 0 9 8 5 19
-5 15 -1 19 14 18 11 0 17 -5 15 -9 -3 -4 -1 -8 4 -8 5 0 12 9 15 20 3 13 10
18 21 14 19 -7 22 -44 4 -44 -9 0 -8 -4 2 -10 21 -13 30 -12 26 3 -1 6 -1 9 1
5 3 -5 12 -8 20 -8 11 0 13 3 5 13 -6 6 -10 16 -10 21 0 5 -13 17 -29 27 -15
10 -23 19 -18 19 6 -1 19 -7 29 -15z m-2281 -492 c-7 -2 -13 -9 -13 -14 0 -5
6 -8 13 -6 6 1 11 -4 10 -10 -2 -7 2 -13 7 -13 6 0 10 -8 10 -17 0 -15 -4 -13
-20 7 -18 23 -26 18 -21 -12 2 -12 -17 -10 -22 2 -3 6 -4 5 -3 -2 3 -12 47
-18 72 -11 12 4 15 33 2 33 -19 0 -6 16 14 17 16 2 19 0 9 -6 -11 -7 -9 -10 8
-16 11 -3 21 -13 21 -21 0 -11 7 -14 23 -10 12 3 16 3 9 0 -6 -3 -10 -10 -7
-15 4 -5 -2 -6 -12 -2 -16 6 -16 5 -4 -10 7 -9 18 -14 24 -10 6 3 7 1 3 -6 -4
-6 -11 -9 -16 -6 -5 3 -11 1 -15 -5 -3 -5 -1 -10 5 -10 7 0 5 -6 -4 -15 -20
-20 -26 -19 -21 5 4 23 -5 26 -24 8 -11 -11 -12 -10 -6 1 5 9 3 12 -6 9 -8 -3
-13 -12 -11 -22 2 -9 -1 -16 -7 -16 -11 0 -9 19 3 39 7 11 5 13 -7 8 -10 -4
-18 1 -22 14 -8 25 -20 24 -22 -1 -1 -11 2 -18 7 -15 4 3 10 -1 13 -8 9 -24
-21 -15 -32 9 -6 13 -16 22 -23 20 -7 -1 -9 -1 -5 2 4 2 2 11 -5 20 -9 11 -9
14 -1 9 7 -5 16 1 22 12 15 27 14 36 -3 22 -11 -9 -16 -9 -22 0 -4 8 -3 9 5 5
6 -4 14 0 17 9 5 13 9 13 18 3 6 -7 10 -11 9 -9 -5 9 19 41 30 40 9 0 9 -2 0
-6z m2447 -804 c0 -5 -5 -8 -11 -6 -6 1 -14 -5 -16 -13 -4 -13 -3 -13 6 0 6 8
11 11 11 6 0 -5 7 -3 15 4 13 11 14 10 9 -4 -3 -9 -10 -16 -15 -16 -4 0 -5 -7
-2 -17 5 -12 3 -14 -7 -8 -8 5 -11 4 -7 -2 8 -12 -14 -73 -26 -73 -4 0 -5 5
-1 12 4 7 3 8 -5 4 -7 -5 -9 -16 -5 -29 6 -20 6 -20 -10 -4 -21 20 -27 22 -21
5 4 -9 -5 -13 -27 -12 -38 1 -40 5 -14 39 17 23 20 23 31 8 10 -13 11 -11 7
17 -4 31 -3 33 19 27 23 -6 23 -5 5 8 -11 8 -15 15 -8 15 15 0 53 41 46 51 -3
5 2 6 10 3 9 -3 16 -10 16 -15z"/>
<path d="M3731 7566 c-13 -16 1 -32 19 -21 6 3 16 3 23 -2 6 -4 19 -8 27 -8 8
0 15 -6 15 -12 0 -11 7 -16 18 -12 21 6 38 5 43 -2 3 -6 17 -3 32 7 27 17 27
17 9 -3 -16 -18 -16 -22 -2 -33 10 -8 15 -9 15 -1 0 6 -4 11 -10 11 -5 0 -2 8
8 18 11 12 20 14 25 8 5 -8 10 -7 16 3 5 8 11 9 15 3 6 -10 -30 -28 -47 -24
-4 1 -3 -8 4 -20 l12 -22 22 26 c13 15 27 24 31 20 5 -4 2 2 -6 12 -8 11 -14
21 -12 23 7 10 0 14 -10 6 -20 -16 -50 -12 -43 5 4 11 2 12 -7 5 -19 -14 -56
-8 -77 11 -13 11 -21 14 -26 7 -4 -8 -12 -8 -25 -1 -13 7 -21 7 -25 0 -5 -8
-11 -8 -20 0 -9 7 -16 6 -24 -4z"/>
<path d="M6626 7289 c2 -4 0 -10 -6 -14 -5 -3 -10 -1 -10 6 0 9 -3 9 -14 0 -8
-7 -17 -8 -20 -3 -2 4 -20 7 -38 5 -18 -3 -43 -5 -54 -6 -14 0 -20 -6 -17 -14
4 -11 0 -11 -21 -3 -18 6 -26 6 -26 -1 0 -6 -4 -7 -10 -4 -5 3 -10 2 -10 -3 0
-5 -8 -9 -17 -9 -46 0 -64 -4 -58 -12 5 -9 -25 -8 -102 3 -22 3 -33 0 -37 -10
-3 -9 -10 -13 -15 -10 -5 3 -12 -2 -15 -11 -6 -15 -8 -15 -17 -3 -7 12 -10 11
-15 -7 -4 -14 -11 -20 -22 -16 -10 4 -13 2 -8 -5 4 -7 2 -12 -5 -12 -6 0 -18
-8 -26 -17 -9 -12 -12 -13 -8 -3 4 8 -3 4 -14 -10 -11 -14 -21 -20 -21 -15 0
6 -4 5 -8 -2 -4 -6 -16 -13 -27 -15 -23 -4 -46 -20 -92 -68 -31 -32 -32 -36
-16 -47 10 -8 12 -13 4 -13 -7 0 -9 -5 -5 -12 5 -9 2 -9 -9 1 -13 10 -20 11
-30 2 -8 -6 -18 -7 -22 -3 -5 4 -5 2 -2 -4 6 -10 -39 -40 -55 -36 -5 1 -8 -3
-8 -8 0 -9 -38 -29 -60 -32 -3 -1 -10 -8 -17 -17 -7 -9 -13 -12 -13 -8 0 5 -7
1 -16 -7 -18 -19 -38 -21 -28 -3 6 9 5 9 -8 0 -8 -7 -18 -10 -21 -6 -4 3 -7 1
-7 -5 0 -7 -12 -12 -27 -12 -27 -1 -27 -1 -9 -15 23 -17 14 -20 -14 -5 -12 6
-21 6 -25 1 -3 -5 -18 -8 -33 -6 -15 2 -21 2 -14 -1 6 -3 9 -11 5 -17 -4 -7
-1 -7 9 1 10 8 19 9 22 3 8 -13 -13 -25 -47 -27 -23 -1 -27 2 -22 20 3 12 2
16 -1 10 -3 -7 -13 -10 -22 -7 -10 2 -31 -1 -47 -8 -17 -7 -40 -11 -53 -10
-13 2 -34 -5 -48 -13 -13 -9 -24 -13 -24 -9 0 4 -7 -3 -16 -15 -8 -12 -19 -20
-24 -17 -4 3 -13 -2 -20 -10 -9 -11 -16 -12 -25 -5 -16 14 -64 -24 -61 -48 2
-9 -2 -20 -8 -24 -7 -5 -6 -8 4 -8 13 0 13 -1 0 -10 -8 -5 -10 -10 -3 -10 6 0
9 -9 6 -20 -3 -11 0 -20 6 -20 6 0 10 -3 10 -7 -3 -18 2 -31 21 -53 11 -13 20
-18 20 -12 0 7 7 9 17 5 12 -5 14 -3 8 7 -5 9 -4 11 4 6 6 -4 9 -12 6 -17 -4
-5 -1 -9 5 -9 6 0 8 -5 5 -10 -4 -6 -3 -10 2 -9 4 1 11 0 16 -1 4 -1 13 -3 20
-4 6 -1 11 -7 10 -12 -1 -7 8 -9 22 -6 14 2 25 0 25 -5 0 -8 7 -10 65 -14 15
-1 22 -6 18 -13 -4 -6 1 -5 10 3 14 11 17 11 17 0 0 -11 2 -11 10 1 5 8 10 10
10 4 0 -6 6 -11 13 -12 6 0 25 -3 41 -7 27 -6 28 -5 15 12 -13 17 -13 17 6 2
11 -9 26 -14 33 -12 6 3 12 -1 12 -7 0 -10 4 -10 15 0 12 10 15 10 15 0 0 -10
3 -10 15 0 12 10 15 10 15 0 0 -9 4 -9 17 1 11 10 14 10 9 2 -4 -7 -3 -13 3
-13 5 0 13 5 16 10 4 6 15 1 26 -12 l20 -23 -12 25 c-12 24 -11 25 8 7 11 -9
22 -14 26 -11 3 4 14 3 24 -1 10 -4 27 -9 37 -10 11 -1 22 -7 23 -12 2 -6 18
-9 35 -7 20 3 39 -2 51 -13 15 -13 18 -14 12 -3 -8 13 -7 13 8 1 9 -7 17 -10
17 -6 0 4 7 2 15 -5 13 -11 14 -10 8 6 -6 16 -5 17 9 6 13 -10 18 -10 24 -1 5
8 3 9 -6 4 -8 -5 -11 -4 -6 3 8 13 36 5 36 -12 0 -6 5 -4 10 4 7 11 10 12 10
2 0 -8 12 0 26 17 14 17 23 35 19 41 -4 6 4 9 19 8 15 -1 26 -6 26 -11 0 -4
10 -3 21 4 15 8 19 8 15 0 -4 -6 -2 -11 3 -11 6 0 11 5 11 11 0 5 4 8 9 5 5
-4 11 -1 13 4 3 10 21 16 51 19 4 1 7 8 7 17 0 11 6 14 18 10 16 -6 16 -5 -1
8 -10 8 -14 16 -8 17 5 2 11 16 13 31 2 15 8 31 13 35 4 4 5 2 1 -4 -5 -9 -2
-11 11 -6 17 7 17 6 1 -11 -19 -19 -24 -31 -9 -22 5 4 8 -9 7 -29 -2 -19 0
-32 4 -30 4 3 8 17 8 31 0 16 9 35 23 46 13 11 19 17 12 13 -7 -3 -24 2 -38
11 -14 9 -25 13 -25 9 0 -5 -9 2 -20 15 -11 13 -20 18 -20 13 0 -6 -10 -13
-21 -16 -14 -4 -20 -11 -16 -20 5 -15 -30 -37 -58 -37 -7 0 -15 -6 -18 -12 -4
-10 -7 -10 -18 0 -11 10 -11 12 1 12 11 0 11 3 2 12 -14 14 -16 32 -2 23 6 -3
7 1 4 9 -4 12 6 21 38 35 24 10 53 27 63 37 10 10 23 19 29 20 6 0 17 2 24 2
6 1 12 9 12 19 0 14 3 14 22 -3 22 -19 22 -19 8 0 -14 18 -13 19 3 13 9 -3 17
-2 17 3 0 6 -8 10 -17 10 -9 0 -13 3 -10 7 4 3 1 13 -5 22 -10 13 -10 14 2 4
16 -15 34 -17 26 -5 -3 5 1 9 9 9 8 0 15 -3 15 -7 0 -4 7 -7 15 -7 8 0 12 4 9
9 -5 7 21 5 76 -7 8 -2 19 -4 23 -4 5 -1 5 -7 2 -13 -4 -7 0 -5 7 4 14 16 55
30 90 30 11 -1 15 6 13 17 -2 11 9 29 27 44 28 25 30 26 35 8 3 -11 12 -22 20
-25 8 -3 11 -11 7 -17 -5 -8 -1 -8 14 0 16 8 23 7 33 -6 12 -14 12 -16 0 -8
-10 5 -12 4 -7 -3 5 -9 13 -9 26 -2 25 13 33 13 24 -2 -6 -10 -5 -10 8 -1 8 7
18 9 22 5 8 -7 13 -8 41 -11 8 0 15 -6 15 -12 0 -5 -5 -7 -12 -3 -7 4 -8 3 -4
-5 4 -6 12 -8 18 -5 6 4 14 0 19 -7 7 -12 9 -12 9 0 0 11 4 10 16 -5 8 -10 13
-13 9 -6 -3 6 1 15 9 18 9 3 16 13 16 21 0 8 5 11 10 8 6 -3 10 -2 10 3 0 5 7
9 15 9 8 0 15 -4 15 -8 0 -3 9 -9 21 -12 12 -3 18 -10 14 -16 -3 -7 0 -8 9 -5
9 3 16 1 16 -5 0 -6 7 -11 15 -11 8 0 15 -5 15 -11 0 -5 -6 -7 -12 -3 -8 5 -8
1 2 -12 22 -29 24 -30 17 -11 -4 11 -1 17 9 17 11 0 13 -6 9 -21 -5 -13 -3
-19 3 -15 11 7 25 -21 16 -35 -3 -5 0 -9 5 -9 6 0 11 -7 11 -15 0 -8 5 -15 10
-15 6 0 10 -6 10 -14 0 -8 7 -16 15 -20 8 -3 15 0 15 7 0 8 4 7 9 -3 6 -8 7
-18 4 -24 -3 -5 -1 -6 5 -2 7 4 12 3 12 -3 0 -5 9 -13 20 -16 11 -4 18 -10 15
-15 -3 -4 3 -7 12 -6 10 0 18 -4 18 -11 0 -6 4 -15 9 -20 5 -4 7 -3 3 2 -3 6
4 17 16 25 19 11 20 11 11 -1 -15 -17 -13 -57 2 -67 7 -4 14 -18 15 -32 2 -14
15 -35 29 -48 14 -12 25 -28 25 -36 0 -8 10 -23 23 -34 12 -11 21 -26 20 -33
-2 -8 2 -13 8 -12 6 1 10 -9 8 -23 -2 -19 1 -23 10 -15 9 7 12 4 13 -12 1 -12
7 -23 12 -25 5 -2 8 -9 5 -17 -3 -7 0 -16 5 -20 6 -3 9 -10 7 -14 -3 -4 3 -17
14 -28 10 -12 16 -24 13 -27 -4 -3 2 -6 11 -6 14 0 17 -5 13 -21 -5 -20 -5
-20 13 -4 12 11 20 13 25 5 4 -6 1 -9 -7 -8 -8 2 -12 -4 -10 -16 2 -12 -1 -16
-9 -10 -8 5 -10 3 -4 -7 5 -7 9 -25 9 -39 1 -14 5 -31 10 -39 6 -10 6 -12 -2
-7 -7 4 -12 3 -12 -2 0 -6 7 -13 16 -16 13 -5 14 -9 4 -21 -9 -10 -9 -15 -1
-15 6 0 11 -13 11 -30 0 -16 5 -30 11 -30 5 0 8 -4 4 -9 -3 -6 3 -14 12 -20
17 -10 17 -10 1 -11 -10 0 -18 -5 -18 -11 0 -5 4 -8 9 -5 5 4 7 -3 4 -14 -3
-11 -2 -28 2 -37 12 -27 12 -67 0 -75 -6 -5 -5 -8 3 -8 7 0 11 -4 8 -8 -3 -4
0 -28 6 -53 5 -24 10 -56 10 -71 0 -15 3 -30 8 -33 4 -3 6 -15 2 -27 -3 -11
-1 -19 4 -16 5 4 9 -9 10 -28 0 -22 -4 -34 -13 -34 -7 0 -13 -4 -13 -10 0 -5
6 -10 13 -10 8 0 8 -3 -2 -9 -11 -7 -10 -10 5 -14 18 -5 18 -5 0 -6 -16 -1
-17 -3 -5 -18 10 -11 10 -14 2 -9 -8 4 -13 1 -13 -8 0 -9 6 -16 13 -16 8 0 9
-2 1 -8 -7 -4 -10 -28 -8 -57 2 -37 -3 -63 -21 -100 -13 -27 -27 -62 -30 -77
-4 -16 -11 -28 -17 -28 -5 0 -7 -4 -4 -9 3 -5 0 -11 -8 -14 -9 -4 -12 -14 -9
-26 3 -12 1 -21 -6 -21 -6 0 -10 -3 -9 -7 3 -15 -25 -93 -34 -93 -4 0 -8 -9
-8 -20 0 -11 -5 -20 -11 -20 -5 0 -8 -4 -4 -9 3 -5 1 -12 -5 -16 -6 -4 -8 -11
-5 -16 4 -5 2 -9 -3 -9 -5 0 -9 -7 -10 -15 -1 -8 -3 -22 -4 -30 -1 -8 -5 -15
-10 -15 -4 0 -8 -12 -9 -27 0 -63 -4 -91 -13 -86 -4 3 -5 -4 -1 -16 4 -13 2
-21 -6 -21 -8 0 -9 -3 0 -13 6 -8 8 -17 4 -21 -11 -11 -12 -36 -2 -36 6 0 7
-5 4 -10 -4 -6 -12 -7 -18 -3 -8 4 -7 1 1 -9 7 -9 9 -19 4 -22 -5 -3 -9 -24
-8 -46 2 -28 -3 -44 -13 -50 -9 -5 -15 -11 -13 -14 7 -17 1 -46 -9 -41 -6 4
-9 1 -7 -6 4 -21 -25 -79 -40 -79 -7 0 -10 -5 -7 -10 3 -6 0 -17 -9 -25 -8 -8
-13 -24 -11 -35 2 -11 0 -18 -6 -15 -8 6 -12 -16 -12 -67 0 -10 -3 -18 -7 -18
-5 0 -7 -8 -6 -17 2 -10 0 -30 -5 -45 -5 -19 -4 -28 4 -28 6 0 2 -7 -9 -16
-10 -8 -12 -12 -4 -8 13 6 13 5 -1 -12 -8 -10 -14 -29 -13 -41 0 -13 -3 -23
-8 -23 -5 0 -8 -8 -6 -17 1 -10 -1 -24 -5 -30 -5 -7 -10 -23 -12 -35 -3 -12
-10 -25 -16 -29 -7 -4 -9 -14 -6 -23 4 -10 1 -19 -8 -22 -8 -4 -15 -10 -15
-16 0 -5 5 -6 11 -3 6 4 5 -2 -2 -13 -7 -12 -17 -18 -22 -15 -5 3 -4 -5 3 -17
7 -12 8 -20 3 -17 -4 3 -14 -1 -21 -9 -7 -8 -10 -14 -7 -14 3 0 0 -6 -7 -14
-7 -8 -17 -12 -21 -9 -5 3 -4 -4 2 -15 8 -15 8 -23 -1 -28 -7 -4 -8 -3 -4 4 4
7 4 12 1 12 -3 0 -13 -16 -21 -35 -8 -19 -19 -35 -24 -35 -6 0 -9 -4 -7 -9 1
-5 -7 -17 -18 -26 -11 -9 -13 -14 -5 -10 10 4 10 2 -2 -8 -14 -11 -15 -16 -5
-26 9 -10 8 -11 -5 -6 -18 7 -44 -11 -45 -30 0 -5 -23 -24 -51 -41 -29 -17
-49 -34 -45 -37 3 -4 0 -7 -8 -7 -14 0 -53 -43 -55 -61 -1 -5 -2 -14 -3 -20 0
-5 -5 -7 -11 -4 -5 3 -10 -2 -10 -12 0 -9 -12 -28 -26 -40 -22 -19 -27 -32
-29 -80 -1 -32 -7 -59 -14 -61 -6 -2 -11 -12 -11 -23 0 -10 -4 -19 -10 -19 -5
0 -10 -12 -10 -26 0 -16 -4 -23 -11 -18 -7 4 -10 1 -7 -7 3 -8 -2 -20 -11 -27
-12 -10 -13 -12 -1 -6 13 7 13 5 1 -9 -7 -9 -17 -14 -22 -11 -5 3 -9 0 -9 -6
0 -6 -12 -29 -26 -51 -14 -23 -23 -43 -20 -47 3 -3 -3 -11 -13 -19 -12 -8 -18
-22 -16 -33 2 -11 0 -18 -6 -15 -5 4 -9 -3 -9 -14 0 -12 5 -21 10 -21 6 0 10
-5 10 -11 0 -5 -5 -7 -12 -3 -6 4 -8 3 -5 -3 3 -5 22 -7 41 -5 32 4 34 6 25
29 -6 16 -6 22 1 18 6 -3 10 -13 10 -21 0 -8 5 -14 10 -14 6 0 10 5 10 11 0 5
5 7 11 3 8 -4 -1 -14 -22 -25 -32 -16 -33 -17 -7 -16 14 1 24 5 21 9 -2 5 3 8
11 8 9 0 16 6 16 13 0 8 4 7 10 -3 8 -12 10 -10 10 8 0 13 4 21 10 17 5 -3 7
-12 3 -20 -3 -8 -3 -15 0 -15 14 0 14 31 1 45 -10 9 -11 15 -4 15 7 0 9 7 6
16 -3 8 -2 13 3 9 5 -3 11 1 14 7 2 7 4 1 3 -14 0 -14 -5 -24 -9 -21 -5 3 -3
-4 5 -16 7 -12 16 -21 20 -21 5 0 8 -5 8 -11 0 -6 -8 -8 -17 -5 -16 5 -16 5
-3 -6 21 -17 12 -126 -13 -157 -10 -12 -9 -13 2 -7 10 7 12 3 6 -13 -4 -13 -2
-21 6 -21 8 0 8 -4 -1 -16 -8 -8 -9 -14 -4 -13 23 4 33 -2 27 -18 -4 -13 -1
-12 14 5 18 19 22 20 27 7 3 -9 2 -14 -3 -11 -5 3 -11 -1 -15 -9 -3 -8 0 -17
6 -21 7 -5 8 -2 3 7 -5 8 -4 10 0 6 12 -10 16 -39 5 -32 -16 10 27 -88 44
-101 12 -8 13 -13 5 -16 -8 -3 -4 -12 12 -28 13 -12 17 -19 9 -15 -8 4 -2 -6
14 -23 17 -18 35 -32 40 -32 6 0 4 5 -4 10 -13 8 -13 10 -1 10 11 0 9 4 -4 14
-11 8 -23 12 -26 10 -4 -2 -4 6 -1 18 5 19 7 20 10 5 2 -9 8 -14 14 -11 6 4 9
3 6 -2 -3 -5 3 -17 14 -26 12 -12 18 -14 18 -5 0 8 4 7 10 -3 14 -21 12 -30
-4 -24 -18 7 -30 -12 -15 -22 8 -5 9 -3 4 6 -6 10 -4 12 7 7 9 -3 21 0 27 6 8
8 11 7 11 -6 0 -9 -4 -17 -10 -17 -5 0 -10 -5 -10 -12 0 -6 8 -4 19 6 12 11
21 13 25 7 4 -6 14 -8 24 -5 14 5 14 4 2 -4 -10 -8 -19 -7 -29 1 -8 7 -6 0 4
-15 22 -30 30 -34 41 -16 4 6 3 8 -4 4 -6 -3 -13 -3 -16 2 -2 4 5 9 16 9 18 2
20 -2 15 -30 -3 -18 -3 -26 0 -19 4 10 9 9 20 -5 13 -16 13 -16 3 5 -7 13 -9
26 -6 30 3 3 6 0 6 -7 0 -7 5 -9 12 -5 6 4 8 3 4 -4 -10 -16 15 -64 31 -58 9
4 11 1 7 -6 -5 -7 0 -9 14 -6 16 4 19 2 15 -10 -5 -11 -2 -14 10 -9 8 3 18 1
21 -6 3 -9 5 -9 5 1 1 6 6 12 12 12 5 0 8 -4 5 -9 -3 -5 1 -12 10 -15 10 -4
13 -2 8 7 -4 6 2 4 13 -6 11 -9 25 -17 31 -17 7 0 21 -6 32 -12 16 -10 24 -10
42 1 l23 14 -20 -23 -20 -23 23 12 c18 9 22 9 20 -1 -2 -7 3 -12 11 -10 9 2
11 -3 7 -13 -3 -9 -2 -13 4 -10 6 3 10 1 10 -6 0 -8 4 -8 15 1 13 11 18 11 28
0 9 -10 9 -11 -1 -6 -7 4 -15 1 -18 -8 -3 -9 -10 -14 -14 -11 -5 3 -5 -8 0
-24 4 -16 6 -32 2 -35 -3 -3 0 -6 7 -6 7 0 9 -5 5 -11 -4 -7 2 -6 17 2 21 11
22 10 12 -2 -14 -17 -1 -45 16 -35 6 4 11 2 11 -3 0 -6 5 -11 10 -11 6 0 20
-9 32 -20 12 -11 28 -20 35 -20 8 0 12 -4 9 -9 -3 -5 5 -11 19 -13 14 -3 25
-1 25 4 0 5 4 7 9 4 5 -3 11 1 15 9 3 8 10 15 16 15 6 0 8 -5 4 -12 -4 -7 -3
-8 4 -4 7 4 12 13 12 20 0 7 10 21 23 32 l22 19 -18 -22 c-15 -17 -16 -23 -5
-29 7 -4 10 -4 6 1 -4 4 0 14 8 22 8 9 13 22 10 30 -4 9 -2 11 6 7 7 -5 9 -2
6 8 -4 9 0 15 8 15 8 0 13 -6 10 -13 -3 -8 0 -16 6 -20 7 -4 8 -3 4 4 -4 7 -2
12 3 12 6 0 11 -4 11 -10 0 -5 7 -7 15 -4 8 4 17 -1 21 -10 3 -9 10 -13 15
-10 5 2 3 13 -3 24 -7 10 -15 17 -18 15 -3 -2 -6 7 -6 19 0 22 1 22 28 7 15
-9 28 -22 28 -29 0 -7 5 -10 10 -7 6 4 8 11 5 16 -4 5 -2 9 4 9 12 0 11 -41
-2 -58 -7 -9 -13 -9 -23 -1 -11 9 -14 8 -14 -5 0 -9 3 -15 8 -15 18 3 31 -2
35 -13 2 -7 3 -4 1 7 -3 20 -3 20 11 1 8 -11 15 -14 15 -8 0 10 5 10 20 2 11
-6 20 -8 20 -4 0 4 10 -1 22 -12 15 -12 18 -13 10 -3 -11 14 -9 16 13 14 14
-2 25 2 25 8 1 7 8 0 16 -15 15 -29 27 -38 18 -15 -6 18 35 16 45 -2 7 -10 9
-10 13 1 3 7 18 14 32 16 18 1 25 -2 20 -10 -4 -7 -3 -8 4 -4 7 4 12 15 12 24
0 14 2 15 9 2 6 -8 7 -18 5 -22 -3 -4 2 -5 10 -2 9 3 14 10 11 14 -3 5 0 12 6
16 7 4 9 3 5 -4 -3 -6 -2 -13 4 -17 5 -3 10 -2 10 4 0 12 37 6 57 -10 11 -10
13 -10 11 1 -2 8 7 14 25 15 19 1 27 -3 28 -14 0 -10 2 -12 6 -3 2 6 10 9 16
5 7 -4 5 2 -3 12 -15 19 -14 19 12 2 15 -9 29 -13 33 -7 3 5 12 7 20 3 8 -3
15 0 15 7 0 6 -4 9 -9 5 -5 -3 -12 -1 -15 4 -4 5 1 8 10 7 8 -1 19 -8 24 -15
6 -11 9 -11 13 0 4 10 6 10 6 2 1 -7 8 -13 17 -13 18 0 46 25 37 34 -4 3 -1 6
5 6 7 0 12 -4 12 -10 0 -5 5 -10 11 -10 5 0 7 4 4 10 -3 6 1 7 9 4 9 -3 16 -1
16 5 0 6 -5 11 -12 11 -6 0 -8 3 -5 6 4 4 13 1 22 -6 12 -10 15 -9 15 6 0 14
2 16 9 6 6 -11 10 -10 15 4 6 16 8 16 16 4 8 -13 10 -12 10 3 0 11 4 15 12 11
8 -5 9 -2 4 11 -5 15 -4 16 9 5 12 -10 15 -10 15 4 0 10 5 14 10 11 6 -3 10 0
10 8 0 7 12 20 28 28 40 21 65 46 58 58 -4 7 -1 8 8 5 9 -4 18 1 22 10 3 9 10
14 14 11 5 -3 12 0 16 6 4 8 3 9 -4 5 -7 -4 -12 -2 -12 4 0 6 10 15 23 20 12
5 16 9 9 9 -7 1 -10 6 -7 11 4 6 11 8 16 5 18 -12 31 6 17 23 -7 10 -9 14 -4
10 5 -4 15 -1 22 7 17 17 18 29 2 19 -7 -4 -8 -3 -4 5 4 6 12 9 17 6 8 -6 13
9 10 29 -1 5 5 6 13 3 14 -6 46 21 46 39 0 5 9 16 19 24 11 7 18 17 15 22 -3
4 0 8 6 8 13 0 60 49 60 63 0 5 7 7 14 4 11 -4 13 -1 9 10 -5 12 -2 15 10 10
11 -4 15 -1 12 12 -3 14 2 17 21 15 21 -2 23 0 13 12 -7 8 -8 14 -3 13 27 -5
74 27 74 50 0 7 4 10 10 6 5 -3 18 3 30 15 11 11 20 17 20 13 0 -3 9 4 20 17
11 13 20 19 20 14 0 -5 5 -2 10 6 5 8 13 15 18 15 5 0 16 8 26 18 10 9 22 17
27 17 6 0 8 4 5 9 -3 5 1 12 10 15 8 3 12 11 8 17 -4 7 -3 9 4 5 6 -3 13 -2
17 4 4 6 11 7 17 4 7 -4 8 -2 4 5 -4 6 1 14 13 19 11 4 20 10 20 15 1 4 3 7 6
7 13 -1 54 53 48 63 -3 6 -1 7 6 3 6 -4 18 -1 26 8 18 17 20 30 3 20 -7 -4 -8
-3 -4 5 4 6 12 9 17 6 13 -9 11 9 -3 25 -7 8 -2 6 12 -5 14 -11 22 -16 18 -11
-5 5 1 16 12 23 11 8 18 19 15 24 -4 5 1 9 10 9 10 0 13 -5 9 -12 -4 -7 -3 -8
4 -4 6 4 8 14 5 23 -4 11 -3 14 5 9 7 -4 12 -3 12 2 0 6 -7 12 -15 16 -8 3
-12 12 -9 21 5 11 2 14 -12 9 -15 -5 -16 -4 -4 4 17 13 33 5 26 -13 -2 -7 2
-16 10 -19 18 -7 54 14 54 32 0 7 5 10 12 6 7 -4 8 -3 4 5 -6 9 -11 9 -21 1
-17 -14 -31 18 -15 34 8 8 9 6 5 -6 -4 -11 -2 -18 4 -18 6 0 11 7 11 15 0 8 4
15 10 15 5 0 7 -7 4 -15 -4 -8 -3 -15 1 -15 11 0 34 27 28 34 -4 3 -1 6 5 6 7
0 12 -6 13 -12 0 -7 5 -1 11 15 5 15 14 24 20 21 7 -4 8 -2 4 4 -4 7 -2 12 4
12 6 0 8 4 5 10 -6 10 2 13 36 13 9 0 16 6 16 13 0 8 -4 14 -9 14 -4 0 -8 -5
-8 -11 0 -5 -4 -8 -8 -5 -5 3 -20 -2 -33 -12 -25 -18 -52 -25 -44 -13 2 5 -6
13 -19 19 -20 9 -25 8 -30 -4 -3 -9 -10 -13 -15 -10 -5 4 -12 0 -15 -6 -5 -10
-7 -10 -12 0 -5 10 -9 10 -20 1 -10 -8 -14 -8 -14 0 0 11 13 15 38 12 10 -2
10 2 0 18 -7 12 -16 21 -21 21 -4 0 -6 -4 -3 -9 3 -5 -1 -11 -9 -14 -12 -5
-12 -2 -3 18 14 32 19 31 41 -6 10 -18 20 -29 24 -26 3 4 0 13 -6 21 -8 10 -9
16 -1 21 14 9 8 38 -10 47 -9 4 -3 7 17 7 28 1 31 -2 29 -24 -2 -14 3 -30 10
-36 8 -6 12 -14 10 -18 -3 -4 4 -12 15 -19 20 -13 26 -3 8 15 -8 8 -8 13 0 18
6 3 10 1 9 -6 -2 -6 3 -14 10 -16 8 -3 10 2 6 14 -4 14 -4 15 4 4 11 -15 36
-6 27 10 -3 5 2 6 11 2 12 -4 15 -3 10 5 -4 7 -1 12 9 12 9 0 13 -4 10 -10
-11 -17 7 -11 20 7 9 12 10 23 2 38 -5 11 -13 27 -17 35 -7 15 -50 24 -50 10
0 -4 -11 -7 -24 -6 -13 0 -22 4 -19 9 2 4 -2 7 -9 7 -9 0 -9 3 2 10 8 5 10 10
5 10 -6 0 -11 9 -12 20 -1 13 3 18 10 14 7 -3 5 0 -4 8 -9 7 -14 19 -11 27 3
8 0 11 -7 7 -6 -4 -11 -2 -11 5 0 8 -5 7 -17 -2 -11 -9 -8 -1 7 20 13 19 18
31 11 27 -8 -5 -16 -3 -21 4 -6 10 -12 10 -29 -2 -11 -8 -18 -18 -14 -21 3 -4
1 -7 -5 -7 -7 0 -12 -6 -12 -13 0 -7 -9 -20 -20 -30 -12 -10 -18 -22 -15 -27
3 -6 1 -10 -6 -10 -7 0 -9 -8 -6 -21 3 -12 3 -18 0 -15 -9 9 -44 -14 -38 -24
4 -6 -1 -7 -11 -3 -12 4 -15 3 -10 -5 4 -7 2 -12 -4 -12 -6 0 -8 -5 -4 -12 5
-8 2 -9 -11 -4 -15 5 -16 4 -5 -9 7 -8 17 -12 24 -8 6 3 7 2 3 -3 -12 -12 -30
-12 -39 1 -4 5 -8 0 -8 -13 0 -13 -4 -20 -10 -17 -6 4 -8 -8 -5 -32 3 -29 2
-34 -6 -20 -6 9 -7 22 -4 27 3 6 1 10 -4 10 -6 0 -11 -7 -11 -15 0 -9 -7 -18
-15 -21 -8 -4 -13 -10 -10 -14 3 -5 -4 -11 -15 -15 -11 -4 -17 -11 -14 -17 5
-7 1 -9 -9 -5 -12 4 -14 2 -10 -10 4 -11 3 -14 -5 -9 -14 9 -44 -18 -34 -29 4
-5 2 -5 -4 -2 -6 4 -20 -1 -30 -9 -10 -9 -12 -13 -4 -9 8 4 4 -2 -10 -13 -13
-11 -28 -18 -32 -16 -4 3 -5 -2 -2 -10 4 -11 0 -16 -10 -16 -15 0 -21 -12 -17
-33 1 -5 -3 -6 -9 -2 -6 3 -8 12 -4 18 3 7 0 5 -8 -3 -22 -25 -53 -48 -43 -31
6 10 4 12 -4 6 -8 -4 -10 -18 -7 -34 l6 -26 -13 24 c-14 23 -15 23 -28 5 -8
-11 -20 -20 -28 -22 -8 -2 -22 -12 -32 -23 -12 -15 -18 -16 -22 -7 -3 8 -6 6
-6 -5 -1 -10 -5 -16 -10 -12 -5 3 -12 1 -16 -5 -4 -6 -11 -7 -17 -4 -7 4 -8 2
-4 -4 5 -8 0 -12 -13 -12 -11 0 -24 -8 -30 -17 -5 -10 -13 -15 -17 -11 -4 4
-13 0 -21 -10 -10 -11 -12 -12 -8 -2 3 8 -2 5 -11 -7 -17 -23 -41 -33 -28 -11
4 7 3 8 -5 4 -6 -4 -9 -12 -6 -17 4 -5 -1 -9 -10 -9 -10 0 -14 -5 -9 -12 5
-10 4 -10 -5 -2 -15 13 -122 -84 -112 -101 10 -17 10 -35 0 -29 -5 3 -6 10 -3
16 5 7 2 8 -5 3 -7 -4 -11 -15 -8 -25 3 -13 0 -17 -9 -13 -8 3 -11 10 -7 17 3
6 2 7 -3 3 -5 -5 -10 -13 -10 -18 -1 -5 -2 -14 -3 -20 0 -5 -6 -7 -12 -3 -8 4
-9 -1 -4 -17 4 -17 3 -20 -3 -10 -8 11 -14 9 -31 -8 -11 -11 -18 -21 -13 -22
4 -1 -4 -4 -18 -8 -14 -4 -24 -14 -24 -23 1 -13 -3 -15 -21 -8 -24 9 -35 4
-35 -14 0 -6 5 -4 11 4 9 13 10 13 6 0 -2 -8 -9 -16 -15 -16 -7 -1 -16 -2 -22
-3 -5 0 -9 -7 -7 -13 1 -7 -4 -12 -11 -10 -8 1 -11 -2 -7 -8 3 -5 1 -10 -5
-10 -6 0 -8 -4 -5 -10 3 -5 0 -10 -7 -10 -10 0 -10 -2 1 -9 9 -6 5 -10 -15
-14 -59 -10 -78 -17 -84 -28 -4 -6 -10 -10 -14 -9 -12 3 -66 -25 -66 -34 0 -4
-8 -2 -17 5 -12 10 -15 10 -9 1 6 -9 0 -11 -23 -7 -16 3 -33 0 -36 -5 -5 -8
-11 -7 -21 1 -11 9 -14 9 -14 0 0 -7 -5 -9 -12 -5 -17 10 -68 11 -68 0 0 -5
-8 -2 -17 5 -14 12 -16 12 -11 -2 4 -9 1 -16 -8 -16 -7 0 -11 4 -8 9 6 9 6 9
-47 11 -23 1 -35 -2 -32 -9 5 -13 -28 -15 -44 -1 -7 5 -13 6 -13 2 0 -4 8 -14
18 -22 12 -9 13 -13 2 -11 -8 2 -14 -2 -15 -9 0 -16 -25 -41 -25 -26 0 6 6 14
13 17 6 3 -1 4 -18 1 -20 -4 -25 -3 -16 3 16 11 3 21 -21 17 -23 -4 -23 11 -1
19 9 4 20 1 24 -5 4 -7 14 -14 23 -15 12 -2 13 1 4 16 -6 9 -20 17 -32 17 -49
1 -57 3 -50 15 4 7 3 8 -5 4 -6 -4 -14 0 -17 8 -3 9 -10 13 -15 10 -8 -5 -14
18 -10 40 1 5 -5 3 -14 -4 -13 -11 -14 -10 -9 5 5 13 4 16 -4 11 -8 -5 -12 1
-12 16 0 18 -2 20 -10 8 -8 -12 -10 -11 -10 8 0 12 -6 22 -14 22 -9 0 -13 7
-11 20 2 11 -1 20 -6 20 -6 0 -8 4 -5 9 4 5 0 12 -6 14 -10 4 -10 7 0 15 11 7
11 12 -2 25 -12 11 -13 17 -3 20 6 3 2 6 -11 6 -15 1 -21 5 -17 14 4 6 -1 3
-11 -8 -13 -16 -16 -17 -11 -3 3 10 2 20 -4 24 -6 3 -8 13 -4 22 3 9 3 13 -1
9 -10 -10 -45 34 -37 47 4 6 -2 4 -12 -4 -13 -11 -17 -11 -11 -2 10 16 -13 64
-26 56 -4 -3 -8 -1 -8 4 0 6 -7 13 -16 16 -8 3 -12 2 -9 -4 3 -6 2 -10 -3 -10
-6 0 -9 -8 -7 -17 1 -10 0 -13 -2 -6 -9 24 -36 25 -30 1 5 -20 4 -21 -6 -7
-17 22 -77 42 -77 26 0 -8 -3 -7 -9 2 -7 11 -11 10 -20 -5 -6 -11 -11 -14 -11
-9 0 6 -9 -1 -20 -15 l-19 -25 4 23 c3 19 1 21 -9 13 -10 -8 -12 -3 -11 24 1
19 -2 35 -8 35 -6 0 -6 5 1 12 10 13 14 74 5 64 -13 -12 -34 25 -27 46 12 35
11 42 -9 56 -15 12 -16 16 -5 30 11 12 11 16 0 20 -15 5 3 32 22 32 6 0 5 -4
-3 -9 -8 -5 -9 -11 -3 -15 6 -3 13 -2 16 3 8 13 -4 42 -15 35 -5 -3 -9 0 -9 5
0 6 -7 11 -15 11 -9 0 -18 6 -21 13 -3 8 -21 14 -40 15 -19 1 -39 4 -44 7 -6
4 -10 1 -10 -4 0 -13 -22 -10 -32 3 -4 6 -13 4 -22 -3 -14 -11 -16 -11 -16 5
0 16 -2 17 -10 4 -8 -13 -10 -13 -10 2 0 9 -9 20 -20 23 -11 3 -27 13 -36 22
-12 13 -18 13 -27 3 -9 -10 -9 -11 2 -5 10 6 12 4 6 -5 -4 -7 -2 -16 5 -20 9
-6 10 -12 1 -26 -6 -11 -11 -14 -12 -6 -1 6 -2 16 -3 21 0 5 -4 12 -8 16 -3 4
-5 -1 -4 -12 4 -24 -5 -38 -14 -23 -6 9 -13 7 -29 -9 -11 -11 -21 -17 -21 -13
0 17 -71 4 -85 -14 -8 -11 -15 -14 -15 -7 0 7 -7 10 -15 7 -11 -5 -14 -1 -9
12 5 15 4 16 -4 5 -6 -8 -8 -20 -5 -28 4 -9 0 -11 -12 -6 -15 5 -17 2 -12 -16
4 -17 2 -20 -7 -12 -11 10 -14 3 -18 -46 -2 -15 -14 -17 -23 -3 -3 6 0 10 7
10 10 0 9 3 -2 11 -11 8 -12 12 -2 16 6 2 10 8 7 13 -3 4 9 23 26 41 16 17 28
38 25 46 -3 7 -1 13 4 13 6 0 10 -5 10 -12 0 -6 3 -8 6 -5 4 4 2 12 -3 19 -16
21 -10 73 8 72 9 -1 21 8 28 18 7 12 8 17 2 13 -6 -3 -11 1 -11 10 0 9 5 13
10 10 6 -3 10 1 10 9 0 9 5 16 11 16 5 0 7 5 4 10 -3 6 -2 10 4 10 5 0 12 -6
14 -12 3 -8 6 -6 6 5 1 9 -5 17 -11 17 -9 0 -8 3 2 10 22 14 34 -5 19 -31 -7
-13 -12 -28 -11 -33 2 -5 -4 -6 -13 -3 -8 4 -15 2 -15 -3 0 -6 7 -10 16 -10 8
0 12 -5 9 -10 -4 -6 -10 -8 -15 -5 -5 3 -12 0 -16 -6 -4 -8 -3 -9 4 -5 7 4 12
2 12 -3 0 -6 -7 -11 -16 -11 -10 0 -7 -7 12 -25 33 -31 30 -31 59 1 13 14 30
26 37 28 7 1 19 5 27 10 10 7 12 3 6 -15 -7 -21 -6 -22 8 -11 9 8 20 12 24 9
8 -5 34 18 32 29 0 3 2 8 5 11 3 4 6 1 6 -5 0 -7 4 -12 10 -12 5 0 9 3 7 8 -1
4 2 8 7 9 5 1 13 7 17 15 6 9 9 10 9 1 0 -9 7 -7 20 5 12 9 24 17 28 17 16 1
62 38 67 56 4 10 11 19 16 19 6 0 7 -5 3 -12 -5 -7 -3 -8 5 -4 7 5 10 13 8 20
-3 7 6 22 19 35 19 18 22 27 13 37 -9 11 -8 14 2 14 12 0 12 2 0 9 -9 6 -10
11 -2 15 6 4 11 18 11 32 0 13 9 33 20 44 12 12 15 20 8 21 -7 0 -3 4 10 10
13 5 21 13 18 18 -4 5 1 16 9 24 11 12 12 17 2 20 -9 4 -9 6 1 6 7 1 10 6 7
11 -3 6 2 10 12 11 10 0 13 3 6 5 -8 4 -8 12 3 32 8 15 14 32 14 38 0 7 7 14
15 18 8 3 15 13 15 23 0 10 7 27 15 37 8 10 12 23 9 27 -3 5 -1 9 4 9 10 0 25
38 23 54 -1 5 6 6 15 2 14 -5 15 -4 5 8 -8 10 -9 16 -1 21 6 3 8 11 5 16 -4 5
1 9 9 9 10 0 13 7 10 25 -2 14 0 25 6 25 6 0 8 -6 4 -12 -4 -7 -4 -10 1 -6 4
4 9 24 11 44 2 20 8 42 14 48 5 7 6 17 2 21 -4 5 -1 4 7 0 11 -6 13 -4 8 8 -3
9 -2 19 4 22 5 4 7 11 4 16 -4 5 -2 9 4 9 5 0 8 11 7 25 -2 14 3 30 10 36 8 6
11 16 7 22 -3 6 -1 7 5 3 8 -5 12 1 12 14 0 13 4 19 12 14 7 -4 8 -3 4 5 -4 6
-2 19 6 28 11 14 11 15 0 9 -11 -7 -11 -4 -1 12 7 12 16 19 20 16 4 -2 5 5 2
16 -3 11 0 20 6 20 5 0 8 7 4 15 -3 9 2 22 13 30 11 8 16 15 11 15 -4 0 1 17
12 39 11 21 17 42 13 46 -4 5 -2 5 4 2 7 -4 14 2 18 16 3 12 16 34 30 48 14
15 22 30 19 33 -4 3 0 6 7 6 7 0 10 3 7 7 -4 3 -1 13 7 22 8 9 16 23 18 30 2
8 13 24 24 35 12 12 21 23 20 26 -2 12 32 49 39 42 5 -4 5 -1 1 5 -4 7 -1 23
6 35 7 13 11 26 10 31 -1 4 6 7 15 8 12 0 13 2 5 6 -10 4 -10 8 -1 19 6 8 16
11 23 7 7 -4 6 -1 -1 8 -10 13 -9 20 8 37 11 12 15 22 9 22 -6 0 -1 14 11 32
13 17 17 28 10 24 -8 -5 -7 1 4 17 9 14 17 30 18 34 1 4 6 7 11 5 5 -2 4 4 -3
12 -11 13 -11 17 0 21 8 3 15 19 15 36 1 16 10 39 20 51 11 12 14 18 8 15 -14
-8 -13 25 1 35 5 4 10 25 12 48 1 22 8 50 13 61 6 11 8 25 4 31 -4 7 -3 8 4 4
7 -4 12 0 12 10 0 15 48 122 60 134 3 3 6 32 6 65 2 95 4 106 12 101 4 -2 6
17 5 42 -2 26 -4 86 -6 133 -2 47 -7 91 -11 97 -4 7 -3 12 3 12 5 0 8 10 5 23
-11 49 -27 157 -28 185 0 13 -6 22 -15 23 -11 0 -12 2 -3 6 8 3 10 9 3 16 -5
7 -10 17 -11 22 -1 6 -7 21 -12 34 -5 14 -7 30 -4 38 3 7 1 13 -4 13 -5 0 -16
14 -25 30 -9 17 -13 30 -11 30 3 0 -1 18 -9 40 -8 22 -11 40 -8 40 3 0 -1 8
-10 18 -10 10 -14 22 -10 25 3 4 1 7 -6 7 -7 0 -9 5 -6 10 3 6 1 10 -4 10 -6
0 -10 3 -9 8 0 4 -1 14 -4 22 -4 8 -9 24 -14 35 -4 11 -8 26 -10 33 -1 7 -11
21 -21 30 -19 18 -48 71 -45 85 1 4 -3 7 -8 7 -6 0 -10 12 -10 26 0 14 -4 23
-8 20 -4 -2 -9 7 -10 22 -1 15 -7 29 -12 30 -6 2 -8 8 -4 13 3 5 0 9 -6 9 -6
0 -8 5 -5 10 3 6 1 10 -6 10 -7 0 -10 3 -6 6 3 4 1 12 -6 20 -22 24 -32 39
-46 66 -8 15 -18 25 -23 22 -4 -3 -8 1 -8 8 0 7 -13 28 -29 47 -17 19 -28 38
-26 41 2 4 -7 13 -20 20 -13 7 -22 16 -20 20 2 3 -12 19 -31 35 -19 16 -34 34
-34 42 0 7 -3 12 -7 10 -5 -1 -9 1 -10 6 -6 18 -54 57 -71 57 -10 0 -24 6 -31
13 -11 10 -12 9 -6 -2 5 -9 4 -12 -3 -7 -7 4 -12 14 -12 23 0 9 -3 14 -6 10
-9 -8 -64 21 -64 33 0 6 -9 10 -21 10 -11 0 -18 4 -14 9 3 6 -3 8 -14 6 -11
-2 -22 3 -25 11 -3 8 -15 14 -26 14 -12 0 -18 5 -15 10 3 6 -3 10 -15 10 -12
0 -19 4 -16 9 3 5 -6 12 -19 15 -14 4 -23 11 -20 16 3 5 0 7 -8 4 -8 -3 -21 2
-30 10 -8 8 -17 12 -21 9 -3 -4 -6 -2 -6 3 0 10 -69 40 -83 36 -5 -1 -6 2 -3
7 6 9 -52 38 -66 33 -5 -1 -8 2 -8 7 0 8 -37 24 -52 22 -5 -1 -8 6 -8 15 0 8
-4 12 -10 9 -5 -3 -10 -2 -10 3 0 9 -31 23 -55 26 -5 1 -15 7 -21 15 -6 8 -16
11 -22 7 -6 -3 -13 -2 -17 4 -4 6 -10 8 -15 5 -5 -3 -16 2 -24 11 -9 8 -16 11
-16 6 0 -5 -7 -9 -15 -9 -8 0 -15 5 -15 10 0 5 -6 4 -14 -2 -9 -7 -17 -8 -20
-2 -3 5 -15 7 -26 4 -11 -3 -20 -1 -20 4 0 5 -7 10 -15 10 -8 0 -12 -4 -9 -8z"/>
<path d="M2618 5038 c10 -13 10 -18 1 -24 -8 -4 -9 -3 -5 4 4 7 4 12 -1 13 -4
0 -18 2 -31 3 -15 2 -21 -2 -18 -10 5 -13 -23 -12 -45 1 -6 4 -9 1 -7 -7 2 -7
1 -14 -2 -14 -17 -2 -50 -27 -45 -34 4 -6 -1 -7 -11 -3 -12 4 -15 3 -10 -5 4
-8 2 -10 -7 -6 -8 3 -18 1 -22 -5 -3 -6 -1 -11 6 -11 7 0 9 -3 6 -6 -4 -4 -13
-1 -22 6 -12 10 -15 10 -15 -3 0 -9 -5 -19 -12 -23 -7 -4 -8 -3 -4 4 4 7 -9 3
-28 -9 -20 -12 -40 -28 -45 -38 -5 -9 -12 -15 -15 -13 -3 1 -15 -7 -26 -18
-11 -11 -17 -20 -13 -20 3 0 -2 -9 -12 -20 -10 -11 -15 -20 -11 -20 4 0 -5
-11 -19 -24 -15 -14 -27 -28 -28 -33 -1 -4 -6 -6 -12 -5 -5 2 -7 1 -3 -3 4 -4
3 -18 -2 -30 -6 -16 -5 -25 3 -29 7 -2 4 -5 -5 -5 -13 -1 -18 -10 -19 -28 0
-16 -2 -35 -4 -43 -15 -58 -18 -80 -17 -114 0 -23 -7 -51 -17 -65 -15 -22 -43
-83 -47 -101 0 -3 -4 -12 -8 -21 -4 -9 -6 -20 -5 -25 4 -21 -2 -35 -11 -29 -5
3 -10 -2 -10 -12 0 -10 -7 -29 -16 -41 -8 -12 -12 -22 -7 -22 4 0 0 -5 -10
-11 -9 -6 -15 -14 -12 -20 4 -5 1 -9 -4 -9 -6 0 -11 -7 -11 -16 0 -8 -4 -12
-10 -9 -5 3 -11 0 -11 -7 -3 -29 -5 -34 -23 -60 -10 -15 -22 -25 -27 -22 -5 3
-6 -2 -3 -10 4 -10 1 -16 -9 -16 -9 0 -19 -5 -23 -12 -5 -7 -2 -9 7 -4 8 4 5
0 -5 -8 -11 -9 -16 -16 -12 -16 5 0 2 -8 -5 -17 -12 -15 -12 -16 1 -8 11 7 11
2 -3 -18 -10 -16 -16 -34 -14 -40 2 -7 -4 -22 -14 -35 -10 -13 -15 -30 -12
-38 3 -8 0 -14 -6 -14 -6 0 -11 -9 -11 -19 0 -11 -6 -22 -12 -24 -10 -4 -9 -6
1 -6 11 -1 11 -4 1 -16 -11 -13 -10 -14 5 -9 13 5 16 4 11 -4 -5 -8 3 -11 26
-8 18 2 42 0 54 -4 16 -7 24 -5 28 6 3 8 10 13 15 10 5 -3 27 1 49 8 22 8 43
12 46 9 3 -4 6 -1 6 6 0 7 5 9 10 6 6 -3 10 -1 10 5 0 6 4 9 9 6 5 -3 11 1 15
9 3 8 12 15 19 15 8 0 26 11 41 25 14 13 26 21 26 17 0 -4 5 0 10 8 5 8 14 15
19 15 5 0 21 13 35 28 14 15 26 25 26 22 0 -3 9 -1 20 5 11 6 18 15 15 20 -3
5 -1 11 4 14 5 4 12 3 15 -2 8 -13 -44 -63 -56 -56 -7 5 -9 1 -5 -9 3 -10 2
-17 -3 -17 -6 0 -19 -9 -30 -20 -11 -11 -20 -18 -20 -15 0 3 -11 -5 -24 -17
-13 -13 -21 -26 -19 -31 2 -4 -3 -10 -11 -13 -9 -3 -14 -10 -11 -14 3 -4 -9
-13 -25 -20 -17 -7 -30 -16 -30 -21 0 -5 -5 -9 -12 -9 -6 0 -19 -7 -29 -16
-25 -23 -76 -29 -76 -9 0 8 4 15 9 15 4 0 8 -6 8 -12 0 -9 4 -8 10 2 7 11 10
11 10 2 0 -7 5 -10 11 -6 7 4 7 9 1 13 -5 3 -8 14 -6 25 2 13 -1 15 -8 8 -6
-6 -18 -8 -27 -5 -14 4 -14 3 -1 -7 13 -10 13 -11 -2 -7 -9 3 -19 3 -23 -1 -9
-10 -75 -10 -69 0 3 4 0 8 -6 8 -7 0 -9 -7 -6 -16 3 -9 6 -19 6 -22 0 -4 4 -1
8 6 5 7 16 10 26 6 14 -5 15 -9 4 -16 -9 -7 -8 -8 5 -4 26 9 63 -12 48 -27 -9
-9 -14 -8 -21 3 -8 13 -10 13 -10 -2 0 -9 -15 -33 -32 -52 -54 -59 -58 -65
-58 -82 0 -10 -5 -14 -16 -10 -8 3 -13 2 -10 -2 6 -10 -60 -55 -80 -55 -7 0
-14 -5 -14 -10 0 -5 -7 -7 -15 -4 -8 4 -17 2 -20 -4 -4 -5 -11 -7 -16 -4 -5 4
-9 1 -9 -4 0 -6 -7 -11 -15 -11 -20 0 -87 -38 -102 -58 -7 -9 -13 -12 -13 -8
0 4 -12 -7 -27 -26 -16 -18 -43 -47 -62 -64 -24 -22 -32 -37 -27 -49 5 -14 4
-16 -8 -6 -11 9 -15 8 -19 -3 -3 -8 -3 -17 1 -19 4 -2 2 -2 -5 -1 -7 2 -19 -3
-27 -11 -8 -8 -20 -15 -26 -15 -6 0 -9 -4 -6 -9 3 -5 -5 -12 -19 -15 -13 -3
-29 -15 -35 -26 -6 -11 -16 -17 -22 -14 -7 4 -8 3 -4 -4 4 -7 2 -12 -5 -12 -8
0 -9 -3 0 -14 9 -11 6 -13 -14 -11 -14 2 -25 -1 -25 -6 0 -5 -4 -9 -9 -9 -17
0 -71 -61 -65 -72 4 -6 2 -8 -4 -5 -12 8 -94 -91 -86 -104 3 -5 -1 -6 -9 -4
-7 3 -23 -7 -36 -24 -15 -20 -28 -28 -39 -23 -15 5 -15 4 -3 -11 12 -15 12
-17 -3 -11 -10 4 -16 1 -16 -7 0 -7 -3 -9 -7 -6 -3 4 -15 -5 -26 -20 -10 -16
-17 -20 -13 -11 4 15 3 16 -14 6 -14 -9 -16 -15 -8 -25 8 -10 7 -12 -5 -7 -11
4 -51 -29 -134 -113 -134 -134 -180 -175 -169 -153 4 8 -1 6 -11 -5 -10 -11
-25 -21 -33 -23 -8 -2 -35 -13 -60 -25 -25 -11 -51 -20 -59 -18 -8 1 -10 -2
-5 -10 5 -8 2 -11 -8 -7 -8 4 -20 -2 -27 -14 -10 -16 -10 -19 1 -13 7 4 2 -3
-12 -15 -14 -12 -20 -19 -13 -16 7 4 11 -1 10 -13 -1 -15 -4 -17 -14 -10 -9 8
-11 6 -8 -9 2 -12 -3 -23 -11 -26 -9 -3 -12 -10 -9 -16 3 -5 1 -10 -5 -10 -6
0 -8 -4 -5 -10 3 -5 2 -10 -2 -10 -5 0 -9 -11 -9 -25 0 -19 3 -22 13 -13 10 8
13 6 13 -5 0 -10 6 -14 14 -11 8 3 25 0 38 -7 36 -20 96 -20 94 0 0 9 5 15 12
13 7 -1 15 5 18 13 3 8 11 12 18 8 6 -3 8 -3 4 2 -10 11 29 38 42 30 6 -4 8
-11 4 -16 -3 -5 -10 -6 -16 -3 -7 5 -8 2 -3 -5 9 -16 30 2 30 26 0 9 6 18 13
20 6 3 12 0 12 -7 0 -6 -5 -8 -12 -4 -7 4 -8 3 -4 -4 4 -7 14 -12 22 -12 9 0
12 5 8 11 -5 8 -1 8 13 0 11 -6 23 -7 27 -4 5 5 7 -2 9 -27 0 -8 37 -40 37
-33 0 5 4 2 9 -6 7 -11 12 -10 27 7 10 12 22 18 27 15 5 -3 5 3 -1 13 -10 18
25 82 50 92 4 2 8 9 8 17 0 16 69 75 88 75 9 0 13 3 9 6 -5 6 56 54 69 54 3 0
10 5 17 10 46 39 61 50 69 50 5 0 7 4 4 9 -3 5 1 12 10 15 10 4 13 2 9 -7 -4
-6 0 -4 8 5 8 10 17 15 20 12 3 -4 13 1 22 10 9 9 21 14 26 11 5 -4 9 1 9 10
0 9 4 14 8 11 5 -3 24 8 43 24 19 16 42 29 52 30 9 0 17 5 17 11 0 5 4 8 9 5
5 -4 11 -1 13 6 2 6 15 13 28 15 14 2 28 10 33 18 4 9 12 13 18 10 5 -4 9 -1
9 5 0 6 5 8 12 4 6 -4 8 -3 5 3 -6 9 38 48 46 41 1 -2 15 7 31 19 16 13 32 20
37 17 5 -3 9 -1 9 5 0 5 9 8 20 6 11 -2 18 0 15 5 -3 5 15 22 40 39 50 34 59
37 50 19 -4 -7 0 -5 8 4 8 10 17 15 20 11 4 -3 7 -1 7 5 0 7 7 12 15 12 8 0
15 5 15 12 0 6 3 8 7 5 3 -4 12 1 20 11 9 10 11 11 7 2 -7 -12 -5 -13 8 -3 8
7 18 9 22 5 4 -4 6 -2 4 3 -1 6 2 12 7 14 6 2 16 11 23 20 12 14 13 14 8 -4
-5 -17 -3 -16 14 5 11 14 20 21 20 17 0 -5 7 -1 16 8 14 13 19 14 25 3 6 -9 9
-9 9 -1 0 19 31 45 47 39 8 -3 11 -1 8 4 -3 6 -1 10 4 10 21 0 26 2 40 13 12
10 13 9 8 -7 -6 -16 -5 -17 8 -6 8 7 12 16 10 21 -3 4 4 6 15 4 11 -2 20 1 20
9 0 14 38 15 60 2 13 -8 13 -7 2 6 -18 22 21 46 44 27 11 -9 14 -9 14 1 0 8 3
10 6 7 4 -4 15 3 25 15 11 11 19 18 19 13 0 -4 7 -2 15 5 8 7 15 9 15 4 0 -5
5 -1 11 9 6 9 14 15 20 12 5 -4 9 1 9 10 0 8 11 20 25 25 14 5 28 17 31 25 5
12 9 13 21 4 8 -7 13 -8 12 -3 -4 20 2 34 14 34 7 0 23 13 37 29 13 17 28 28
32 25 5 -3 7 -2 6 3 -3 9 38 53 50 53 4 0 15 7 26 16 10 9 24 17 31 18 12 2
47 33 44 38 -5 8 14 48 22 48 6 0 7 -5 3 -12 -4 -7 -3 -8 5 -4 9 6 9 11 1 21
-8 10 -4 20 17 42 15 16 41 48 57 72 17 23 40 52 53 64 12 12 23 25 23 29 0 9
22 37 72 91 20 23 34 45 31 51 -4 5 1 7 10 3 11 -4 14 -2 11 8 -3 8 4 20 15
27 12 7 21 18 21 25 0 7 5 13 12 13 6 0 9 3 5 6 -3 3 2 27 12 53 9 25 17 53
16 61 -1 8 2 20 6 25 4 6 8 13 9 17 2 16 33 83 39 88 15 11 50 77 44 83 -3 4
-1 7 5 7 6 0 14 10 18 22 3 12 13 37 22 57 9 20 16 41 17 46 0 6 6 9 12 8 6
-1 10 5 9 15 0 9 6 17 14 17 18 0 25 241 7 252 -5 3 -3 9 4 14 10 6 11 9 2 9
-7 0 -13 8 -13 18 0 23 -23 86 -38 104 -6 8 -9 18 -5 21 3 4 -2 9 -11 13 -9 3
-16 11 -16 17 0 21 -111 147 -130 147 -5 0 -10 7 -10 16 0 8 -4 12 -10 9 -5
-3 -10 -1 -10 6 0 7 -3 9 -7 6 -3 -4 -12 -2 -20 4 -7 6 -13 8 -13 5 0 -4 -8
-2 -18 3 -13 7 -23 6 -31 -2 -10 -9 -11 -8 -5 7 5 13 4 17 -4 12 -7 -4 -12 -2
-12 5 0 8 -4 8 -12 2 -16 -13 -48 -13 -48 0 0 5 -7 4 -16 -4 -11 -9 -17 -10
-23 -1 -3 6 -21 14 -40 17 -23 4 -30 2 -26 -6 6 -8 2 -8 -14 0 -11 7 -21 9
-21 6 0 -3 -10 0 -22 6 -20 11 -22 11 -10 -3z m47 -556 c0 -9 -5 -24 -10 -31
-5 -10 -4 -12 3 -7 9 5 11 -4 8 -33 -2 -23 0 -44 6 -47 5 -4 5 -11 -1 -18 -6
-7 -8 -16 -4 -19 3 -4 1 -7 -4 -7 -6 0 -13 5 -15 12 -3 7 -7 5 -11 -6 -4 -9
-3 -15 2 -11 5 3 12 1 16 -4 3 -5 -3 -14 -12 -20 -16 -9 -16 -12 -3 -21 13 -8
12 -10 -3 -10 -10 0 -16 -4 -12 -9 3 -5 1 -12 -5 -16 -5 -3 -10 -15 -10 -26 0
-11 -4 -17 -10 -14 -5 3 -10 1 -10 -5 0 -6 -6 -8 -12 -4 -8 4 -10 3 -5 -2 5
-5 13 -9 18 -9 5 0 8 -4 7 -10 -2 -5 -8 -9 -15 -9 -6 1 -9 -4 -7 -11 3 -7 -7
-22 -22 -34 -15 -11 -23 -21 -18 -21 11 0 -18 -20 -29 -20 -5 0 -5 5 -2 10 3
6 1 10 -4 10 -6 0 -11 8 -11 17 0 9 -3 13 -7 9 -4 -3 -12 8 -18 26 -7 23 -16
32 -28 30 -9 -2 -17 -1 -17 2 0 14 13 36 22 36 5 0 7 -4 4 -9 -7 -11 18 -33
27 -24 10 10 8 25 -2 19 -5 -3 -12 1 -15 10 -9 24 -7 36 4 29 6 -4 8 -11 5
-16 -15 -23 23 -6 50 23 17 18 24 29 18 24 -10 -5 -11 -1 -4 16 4 13 4 37 -1
56 -6 22 -6 38 1 46 6 7 8 16 4 19 -3 4 -1 7 6 7 7 0 11 -6 8 -14 -4 -10 0
-14 12 -13 11 0 17 6 15 12 -3 6 9 16 26 22 26 10 30 15 25 36 -5 18 -2 28 12
36 25 15 30 14 28 -7z"/>
</g>
</svg>
