<?xml version="1.0" encoding="UTF-8" standalone="no"?>
<svg
   version="1.0"
   width="1024.000000pt"
   height="1024.000000pt"
   viewBox="0 0 1024.000000 1024.000000"
   preserveAspectRatio="xMidYMid meet"
   id="svg16"
   sodipodi:docname="れ.svg"
   xmlns:inkscape="http://www.inkscape.org/namespaces/inkscape"
   xmlns:sodipodi="http://sodipodi.sourceforge.net/DTD/sodipodi-0.dtd"
   xmlns="http://www.w3.org/2000/svg"
   xmlns:svg="http://www.w3.org/2000/svg">
  <defs
     id="defs20" />
  <sodipodi:namedview
     id="namedview18"
     pagecolor="#ffffff"
     bordercolor="#666666"
     borderopacity="1.0"
     inkscape:pageshadow="2"
     inkscape:pageopacity="0.0"
     inkscape:pagecheckerboard="0"
     inkscape:document-units="pt" />
  <metadata
     id="metadata2">
Created by potrace 1.16, written by Peter Selinger 2001-2019
</metadata>
  <g
     transform="translate(0.000000,1024.000000) scale(0.100000,-0.100000)"
     fill="#000000"
     stroke="none"
     id="g14">
    <path
       d="m 3950,9370 c -239.6177,-67.4227 -391.2599,-266.8279 -570,-420 -277.1762,-294.5613 -296.2616,-715.9707 -475,-1060 64.5813,72.3647 -428.82,-1038.6264 -127.875,-311.875 -110.0292,-95.0986 -516.5199,-245.7055 -378,-199.25 C 2330.2399,7338.9144 2128.6972,7211.3247 2153,7253 c -115.9758,-2.7705 -230.5631,-112.3011 -350,-145 -146.1887,-47.5137 -377.1741,-108.4412 -315,-110 -140.495,-24.1122 -420.161,-150.5575 -331,-90 -95.4861,-66.5262 63.0944,-132.2664 32,-112 5.6718,-126.6081 170.7241,-361.6027 126,-296 142.1199,134.3328 405.6155,366.4763 305.25,268.125 -57.5472,18.8127 -29.2571,-148.9577 22.75,-29.125 -249.3778,-103.7693 270.1382,109.4049 122,25 130.4262,84.6643 586.6875,288.7235 435,187 121.5492,44.6423 360.4457,176.7542 349,103 73.8662,-166.6011 243.566,-1209.995 128.125,-943.3281 C 2814.7562,6015.7285 2948.1213,5729.3378 2855,5860 c 13.3501,-127.4224 91.1997,-372.2305 90.75,-292.25 131.8274,-279.5054 197.4741,-562.4935 288.25,-852.75 68.4484,-67.244 287.333,-367.0233 196,-265 87.8517,-118.0736 346.3538,-451.3299 244,-316 100.3893,-118.9947 209.9062,-249.5298 309,-390 54.5133,-71.4236 266.6693,-432.7378 180,-298 6.3976,-118.5758 131.2884,-257.7587 201,-379 75.5272,-94.0176 257.4372,-498.718 213,-359 98.8086,-117.2338 315.6177,-443.8525 196.875,-360.75 46.1092,106.3235 -49.2377,422.6181 -37.875,313.75 -33.7042,60.1409 -117.7181,181.2117 -85.375,138.25 7.7986,114.2817 -102.6465,561.9924 -56.875,426 -15.3528,93.2764 -127.2661,553.1307 -46.75,427.75 -76.0528,172.3942 -249.5766,261.3332 -342,441 -155.7849,250.1998 -342.3487,496.5474 -445,766 -0.9872,64.2869 -115.2124,544.8452 -80,410 45.6276,191.4691 -22.3782,683.1404 -13,457 83.2299,91.5009 399.798,177.1307 326,182 74.8314,-3.0913 145.3975,142.4569 185,153 47.9295,41.544 120.3185,92.8838 76,93 24.2536,37.0456 218.3501,188.9415 134,135 140.463,91.3119 277.8062,128.473 371,275 97.7163,50.8347 244.8698,525.5455 190,395 43.8521,291.711 -185.0299,574.6709 -351.125,463 -143.8747,38.3944 -489.0878,123.5658 -483.875,135 -97.2907,41.8362 -8.582,-59.4306 -174.75,3.375 151.7978,-151.2146 9.4081,-146.0375 -7.25,-75.375 148.8315,7.3696 86.4805,119.1202 3.6719,-23.7812 C 3840.5087,7410.4532 3708.1848,7333.9242 3823,7462 c -115.6031,57.7357 -48.437,102.3134 22,88 4.0314,50.8647 -295.2878,129.5299 -141,110 -108.0851,95.7383 -36.2623,247.7632 6,289 59.2842,154.7986 167.5883,263.2823 231,418 107.8903,55.9699 43.7404,436.9108 188,287.875 -123.0641,107.3775 263.4352,12.4685 101.7344,232.9531 23.0264,-39.5487 -312.502,190.1531 -167.7344,38.1719 -83.3992,143.3762 86.8907,164.7393 73,172 108.1821,89.5543 -47.1361,302.4931 -186,272 z m 237,-540 c 37.8215,-53.0513 -162.5517,-132.5765 -32,-70 -144.1898,8.3533 -30.0948,-100.1773 -193,-8 139.608,146.8342 40.8838,-10.1209 112,69 427.5203,12.3207 -166.5182,17.9029 105.25,23.375 z M 3683,7623 c 174.9166,-63.7375 144.1866,35.5226 112,-83 -43.5405,-53.8429 -52.9113,33.508 -94,-16 -50.5727,-45.9325 -28.9966,161.5624 -18,99 z m -66,-225 c 24.0451,-91.7727 23.6088,-193.8309 78.625,-56.25 62.1156,-26.0503 95.3839,-94.3146 77.375,-58.75 -14.7998,-55.0502 -98.0947,-184.8863 -77.25,-62.5 -36.89,-28.7728 -89.864,-38.4631 -73.75,71.5 18.0159,-153.3084 97.2952,77.22 -60,19 67.7437,-142.5206 18.4059,181.7437 11,72 19.3809,-121.732 31.7273,27.8225 44,15 z m 186,-146 c 225.5225,2.0411 42.5645,-46.3825 48,-54 -35.9393,-13.45 -4.8675,-172.5006 -67.625,-62.375 23.4093,57.9452 465.1349,16.3696 260,48.875 7.4678,-110.0244 380.2585,267.5966 123.5,32.875 -69.592,-78.1306 17.9742,-193.5932 49.5,-133.875 -178.3985,-77.2314 -147.6462,-22.9803 -90.375,4.5 -149.4112,-7.9212 340.4724,-38.5924 189,-75 249.794,-39.0452 313.0774,-317.6167 67.25,-446.875 C 4179.4114,6450.8857 3713.5891,5928.8026 3821,6165 c -127.806,-27.8065 -329.3039,43.3102 -310,-131 -7.1652,23.5245 -52.5735,264.0672 -35,209 0.592,-155.4257 -183.3473,1992.8346 -60.75,554.25 9.1745,126.955 348.0132,219.4313 173.75,338.75 113.7122,102.3439 -102.7482,33.3005 -54,44 -138.4139,34.2712 145.4715,60.6969 160.5,15.25 18.3417,40.6174 93.1674,47.654 107.5,56.75 z M 1410,6872 c 126.5418,-2.1701 -105.5012,-80.7894 -11,-117 24.6536,-3.9483 -34.6431,-116.7868 -3,48 -30.8516,25.7948 -132.7493,139.13 -102,38 42.2482,-2.3551 76.6413,107.6835 116,31 z m 2422,-770 c 10.8989,-26.2502 -61.8116,-164.339 -37,-133 -164.1996,-72.0185 -27.8148,109.5441 -26,96 21.9091,-2.9385 44.3937,92.8144 63,37 z"
       id="path4" />
    <path
       d="m 3925,7188 c -139.3743,-101.305 112.2011,-0.6838 87.875,-75.125 32.4437,32.6481 -90.3228,-157.5709 47.125,-8.875 146.2432,-7.2249 -61.4379,-10.6781 -80,46 -24.011,44.0779 -41.3171,-11.0084 -55,38 z"
       id="path6" />
    <path
       d="m 6586,7282 c -166.4415,-46.2566 -608.8238,-169.3691 -461,-103 -166.3475,-83.2223 -599.3079,-364.472 -435,-308 -215.4853,-60.9266 -95.5486,-147.0718 -313,-117 -119.5931,7.2773 -194.5262,-70.7479 -210.375,-96.375 -120.5659,-14.0517 31.5241,-14.9406 -71.625,-54.625 -7.8763,-204.7233 538.3968,-219.0017 378,-200 -15.0883,13.9893 694.3224,-72.8102 314,-45 153.0642,-102.7303 411.5194,-4.9854 341.75,26 225.3924,98.1958 82.779,223.617 108.25,163 -79.3081,1.7311 -216.1202,-108.556 -146,-84 -46.9055,58.9442 270.2328,222.0793 196,199 21.4132,99.6712 362.6254,263.346 312,116 72.7915,-37.3152 346.8691,-65.4839 300,-76 82.939,78.3424 306.8425,-237.8228 245,-159 29.5173,-34.8117 219.5479,-131.7645 143,-99 -36.9535,-53.2449 217.367,-496.0332 192,-376 88.4213,-92.0113 84.5714,-321.6186 82,-222 59.2038,-101.8155 126.6556,-440.7546 73,-338 5.9828,-110.4452 -16.1113,-321.5573 4.8125,-255.5 C 7623.0048,5014.9083 7603.1104,4806.8116 7530,4819 c -8.3458,-66.3913 -127.5727,-262.6326 -81.75,-312.125 -65.6066,-35.7407 -104.5329,-321.8938 -68.25,-296.875 -99.5022,-323.5 -149.7831,-38.7951 -141,-410 -28.363,-72.623 -66.9669,-253.3199 -77,-244 -91.0364,-193.2792 -217.1836,-342.9226 -190,-315 -111.5494,-78.8628 -301.0073,-434.5334 -262,-320 28.1389,-120.3474 -118.4414,-538.2713 -169,-421 114.0037,14.4292 179.7424,154.4403 151,73 48.6109,30.2812 153.3274,123.2423 97,110 -41.2242,85.2442 122.4524,158.1105 92,163 -52.2582,-185.6105 -65.2864,-138.6196 144.5,-88.5 111.5264,89.515 271.5393,472.7621 274.5,311.5 40.8323,31.776 189.7126,348.9643 134,264 122.9338,252.1324 190.3531,534.6937 326.5,771.25 99.3846,149.4231 199.1756,339.711 179.5,305.75 119.5536,225.7284 160.2452,490.9218 250.5781,717 63.7736,377.7288 -37.7895,756.0408 -198.5781,1095 -42.1882,43.0245 -230.7951,376.307 -150,278 -177.1015,267.9268 -261.2271,357.6096 -410,406 -115.4372,98.975 -295.596,186.503 -447,254 -85.472,72.8289 -439.6376,82.3125 -346.625,110.25 -29.7703,45.6288 -7.563,-19.2971 -52.375,11.75 z"
       id="path8" />
    <path
       d="m 2595,5030 c -104.1551,-41.715 -274.613,-159.5974 -190,-104 -156.6598,-58.6362 -280.5866,-262.5766 -279,-453 -42.5613,-139.7025 -111.0254,-300.8333 -176,-413 -62.6914,-91.0905 82.2728,-396.8094 -90.125,-387.25 135.6426,0.1006 530.5583,348.5077 404.125,229.25 60.388,0.082 -382.4029,-360.334 -264,-262 -152.2492,-78.3179 -429.0437,-297.3241 -281,-246 C 1349.9174,3232.8197 1459.0149,3186.4468 1296,3084 1144.0288,2941.9975 863.80178,2637.0428 978,2780 884.00301,2685.0877 603.83133,2398.9531 682.375,2514.5 583.16904,2389.512 243.53667,2089.5033 315.125,2222.75 105.22646,2127.2924 180.93801,2182.6685 335,2103 c 112.1091,54.4546 -50.81956,202.5188 3.375,146.375 157.62016,60.2723 189.53246,-75.7221 125.75,-62.625 C 287.01409,2037.1923 297.90177,2056.552 432.99644,2111.7957 439.61049,2280.4768 568.70003,2353.4535 561,2206 c 74.76454,-128.0033 114.95043,-135.3309 170,-36 114.75573,192.258 460.7424,305.1241 367,281 100.064,109.6801 419.8784,302.3356 318,209 161.8208,82.2728 463.4416,300.2565 385.1901,234.0472 7.7627,-33.9927 315.6194,112.3881 238.8099,101.9528 176.7484,49.2786 323.6105,156.7379 461,300 148.8881,98.7813 446.0444,536.4239 333,402 168.6024,140.2161 362.5483,605.975 250,457 190.6859,259.5947 139.0728,649.3366 -143.625,824.5 -167.5633,62.5558 -378.3333,35.3625 -337.375,37.5 22.6036,8.0413 -25.163,34.73 -8,13 z m 79,-535 c -40.5402,-108.3022 -194.6345,-396.2808 -87,-301 13.7144,-103.5616 -223.8607,140.258 -170,-10 136.1783,27.0911 203.7898,138.6613 130,121 -74.3913,24.2711 -7.8498,145.8693 -20,137 -33.5648,-72.2101 125.7068,149.753 111,54 8.7855,-12.8176 53.2638,35.6616 36,-1 z"
       id="path10" />
    <path
       d="M 9774,3055 C 9664.2688,2950.7491 9503.2905,2744.7745 9600,2830 9555.9993,2769.1233 9384.9963,2599.7777 9432.375,2656.625 9363.8492,2597.3566 9233.8197,2511.4049 9223,2510 9043.6355,2406.0816 8845.8787,2249.4995 8879,2288 8788.5267,2239.5895 8610.8401,2039.4424 8697.625,2091.125 8626.139,2089.8703 8473.5382,1826.1187 8503,1935 c -95.154,-23.0416 -45.0394,-127.0008 -91.375,-84.375 51.499,10.8779 -160.4161,41.4493 -97.375,14 -155.9392,3.0415 -51.822,-6.0533 -265.25,-10.625 -103.95,-14.4231 -9.4839,-99.6503 -184,16 -195.836,201.2343 -137.2202,205.1061 -190,288 -55.658,-9.604 -248.0919,30.4047 -155,107 -162.6466,-24.5485 -251.3487,472.3637 -245.125,274.125 79.078,131.4315 -274.4862,161.0205 -211.2969,127.9062 C 6952.2428,2699.0971 6605.8271,2503.8571 6743,2574 c -58.6221,-106.0524 31.9155,-440.2486 7.875,-372.25 42.1774,-44.3594 246.6376,-174.5066 168.125,-201.75 78.7791,-67.1581 143.3249,-140.203 130,-123 11.9597,-50.0886 612.4874,-212.3456 287,-120 27.0736,-82.77 -6.9065,-204.7203 80.5,-74 -18.5283,-98.9655 365.1292,-47.0882 253.5,-133 26.6303,64.771 99.5125,156.0298 105,80.125 170.8613,4.5358 188.5165,-103.7519 62.75,-81 -86.4155,-66.9904 641.0429,15.1298 200.25,-38.125 -7.6374,18.5013 164.8081,-12.9567 123,-1 59.8608,21.4053 168.3571,61.3445 144.5,26.25 63.8461,0.73 140.2455,64.4551 152.9669,15.929 49.4247,-46.7655 241.641,110.827 214.5331,81.821 99.8194,95.1984 264.3056,346.8509 232.375,240.5 52.0802,42.446 247.3234,297.4051 228.75,242.5 63.9014,2.3374 376.5163,201.426 269.625,169.25 45.955,76.0591 207.1155,227.4635 182.25,186.75 28.3871,55.1144 139.9914,177.6125 107,125 -81.1716,84.8353 131.4616,75.8167 117,87 98.3319,101.6219 -82.7291,86.1907 -63.25,81 56.5281,7.7141 119.5779,130.01 37.875,152.375 19.5109,-156.9065 145.3604,-133.4234 80.375,-118.375 172.737,50.3492 -46.6455,243.7341 -35,165 -18.6174,0.9232 -38.7184,121.4442 -56,90 z"
       id="path12" />
  </g>
</svg>
