<?xml version="1.0" encoding="UTF-8" standalone="no"?>
<svg
   version="1.0"
   width="1024.000000pt"
   height="1024.000000pt"
   viewBox="0 0 1024.000000 1024.000000"
   preserveAspectRatio="xMidYMid meet"
   id="svg12"
   sodipodi:docname="ã‚.svg"
   xmlns:inkscape="http://www.inkscape.org/namespaces/inkscape"
   xmlns:sodipodi="http://sodipodi.sourceforge.net/DTD/sodipodi-0.dtd"
   xmlns="http://www.w3.org/2000/svg"
   xmlns:svg="http://www.w3.org/2000/svg">
  <defs
     id="defs16" />
  <sodipodi:namedview
     id="namedview14"
     pagecolor="#ffffff"
     bordercolor="#666666"
     borderopacity="1.0"
     inkscape:pageshadow="2"
     inkscape:pageopacity="0.0"
     inkscape:pagecheckerboard="0"
     inkscape:document-units="pt" />
  <metadata
     id="metadata2">
Created by potrace 1.16, written by Peter Selinger 2001-2019
</metadata>
  <g
     transform="translate(0.000000,1024.000000) scale(0.100000,-0.100000)"
     fill="#000000"
     stroke="none"
     id="g10">
    <path
       d="m 4568,9784 c -259.21,-17.5796 -478.0176,-143.4034 -701,-286.25 -277.1618,-79.0082 -431.6753,-357.0317 -704,-442.75 -160.9503,-76.2456 -366.6953,-78.7301 -561,-76 -116.7032,21.8693 -395.1437,95.4629 -289,44 -132.5873,124.2632 -266.507,-359.735 -410,-183 -35.4808,-125.9126 363.6912,-84.6142 277,-76 337.4286,-25.4856 696.1404,-145.8231 1023,-41 135.86,-1.7824 492.9394,150.9086 377,111 85.5315,80.7587 103.8223,207.7652 168,150 113.0598,60.3651 341.6708,254.3443 265,177 328.606,162.2109 777.7823,279.7091 613,223 69.6873,-95.4505 444.1793,-253.8652 352,-88 -236.3121,-267.9977 -142.7905,-307.8713 -392,-378 -127.797,-215.213 -399.7343,-914.2024 -427.25,-635.75 -50.8823,-124.2131 229.3449,144.133 114.25,-85.25 58.3793,-382.1175 -13.3238,-394.167 -46,-652 -3.0097,-119.4829 -239.315,-594.0957 -147,-455 -88.7347,-142.1304 -283.8851,-455.421 -232,-340 -73.4382,-170.8143 -192.5213,-321.0243 -262.5,-493.875 23.046,-120.7432 66.2261,-126.6257 90.5,-12.125 26.4459,-110.269 81.8325,-155.1389 70,-39 -115.4701,-246.9013 -322.9346,-433.5789 -467,-667 -175.4452,-252.3284 -448.8639,-414.0034 -647,-646 -143.3346,-73.3405 -232.0721,-209.768 -246,-194 -18.457,77.0765 -484.2372,-433.7251 -237,-162 -107.6259,-14.3499 -390.7377,-194.3892 -299,-171 -97.5473,-65.4931 -449.9733,-260.0247 -350,-215 -133.2926,-36.8705 -355.3815,-172.0185 -362,-360 197.4003,102.5396 -128.555,-451.7255 -139,-300 81.6804,-11.5057 207.8636,181.5169 148,81 58.7898,-46.4252 187.8494,-12.2904 95,59 23.0677,75.1954 53.6451,271.3164 76,160 11.471,-21.2479 0.58,105.0451 -38,-25 213.5296,73.7719 -156.0517,242.9585 -5.875,131.375 44.6895,-69.7996 89.1062,123.5133 -7.125,13.625 -28.1701,202.3618 -27.0975,152.0009 115,76 81.5329,-83.6121 -161.486,12.7881 -28.9175,-102.9175 24.6338,32.2112 125.5807,95.0695 129.9175,22.9175 -13.0697,35.6719 -160.6117,-121.253 -29,-90 105.6786,-71.3298 461.8032,257.4147 335,209 63.5958,45.3599 282.7462,150.6 221,133 102.3027,51.6322 321.8767,-17.2216 239.7344,57.5469 93.6258,109.9798 338.3874,190.1893 256.8594,160.25 136.4136,75.7588 378.1916,174.1972 258.4062,124.2031 137.8816,21.0861 197.2423,177.4215 230,140 61.5001,54.1385 359.4099,242.3017 165,119 65.8776,36.4839 254.7753,117.7978 208,131.5 28.8679,62.723 338.4383,230.8863 272,184.5 48.596,98.784 110.1155,151.2266 119,92 43.0248,-23.9959 239.393,207.523 186,163 42.1736,51.258 178.7916,281.9105 141,200 98.4261,203.9923 136.69,274.5967 129.75,355.375 16.4794,250.7747 309.7778,965.1348 199.625,730.375 145.5011,337.5349 423.1377,603.2687 475.375,974.375 34.5444,336.8976 -221.0641,579.3147 -303.375,880.5 79.5566,59.9417 91.4125,255.593 182.625,244.375 127.6372,99.6665 451.8243,402.1719 395,262 254.4711,173.486 385.6891,659.3918 -27,724 -187.4481,39.1793 -376.7258,75.1321 -570,83 z"
       id="path4" />
    <path
       d="M 5630,5490 C 5256.1478,5472.7155 4914.6464,5331.7708 4575,5206 4266.5885,5108.5292 3968.8069,4983.3321 3713.375,4789.875 3282.5288,4398.0561 3885.2852,4808.9317 3303,4456 3087.2683,4291.8009 2880.927,4165.9867 2680,4005 2594.5305,3915.7081 2472.8094,3848.1155 2359.25,3794.25 2334.63,3741.9737 2073.0954,3620.2649 2178,3680 c -5.5762,0.912 -286.4163,-122.9419 -228,-87 -101.7648,-8.5228 -272.2544,-16.0143 -91,-27 -37.987,-20.9118 -232.3623,-40.182 -168,-21 -78.3957,-20.3745 -214.8393,-25.2485 -131,-55 59.189,-63.9907 -20.2114,51.9561 -46,-13 94.9075,66.1616 -226.708,-139.9437 -158,-98 2.1603,-53.2144 -132.0199,-321.2595 -152,-222 60.8024,-59.2977 247.1117,-312.8807 131.25,-252.625 11.2055,32.4803 -5.8693,165.506 62.75,72.625 60.1251,-110.5451 312.9683,17.8518 216,8 51.8338,20.1359 318.0472,94.3103 186,95 88.2169,19.6816 213.7117,-6.0754 143,43 117.267,50.4873 276.5136,17.1228 212,75 65.2742,40.5411 206.9852,96.0315 161,87 97.3216,36.2767 247.225,106.3324 197.375,90.625 63.3105,-23.1203 253.9968,3.8913 214.625,58.375 74.7504,52.192 309.4121,127.1826 212,101 60.7542,51.6871 345.464,193.391 264,136 75.2035,72.655 287.5614,153.3858 176,84 79.6632,42.1836 251.786,54.3903 151,19 111.75,47.3003 244.3525,115.7957 179,114 104.6611,51.9991 542.2436,323.5223 395,272 81.2097,89.7192 264.6123,155.5344 168,97 114.577,40.4896 363.3506,152.6498 287,152 253.1953,47.557 105.3166,240.5443 261,85 53.5711,12.3921 252.2724,80.691 135,90.875 51.8177,13.0317 304.9183,66.9787 247,56.125 192.2679,50.1741 749.9584,193.8489 555.875,148.75 140.8873,-48.6631 354.6159,-90.1899 441.125,-154.75 38.1039,-80.5314 133.433,-172.9987 166.625,-31.5 51.7595,-125.9899 110.2579,-208.349 141.125,-212.5 25.9298,58.8447 193.8649,34.6071 177.5,7.625 -70.9751,184.9246 51.5571,-29.876 22.75,-86.625 114.2205,173.3573 89.6715,-5.659 22,-42 60.288,31.7222 112.9175,-104.7439 104,-9 70.9599,-3.8032 46.6972,-110.6088 35,-132.25 -150.7876,-36.6838 -382.1416,-165.0288 -205,-256.75 17.6836,-53.1533 516.0908,-303.5321 362,-276 198.6423,-91.4856 407.8654,-167.265 598,-246 163.1642,-10.024 178.7077,-535.4302 230,-308 -34.8299,-152.2264 -232.7676,-494.8249 -164,-390 -19.3958,-76.493 -62.2895,-195.6666 -67,-165 -69.5945,-18.4928 -265.0654,-306.115 -167.5,-224.375 -85.3726,-17.8963 -119.7144,-4.8512 -34.5,-70.625 -25.621,-3.5967 -376.1393,-322.3869 -266,-226 0.1988,-6.3764 -361.5904,-392.5296 -299,-247 -94.3011,-24.1735 -266.3918,-265.2058 -204,-232.25 C 6496.7682,1372.3702 6153.2818,1007.6012 6281.625,1122.625 6215.4188,1032.9789 5974.322,881.9465 6008.25,908 5859.3473,821.15129 5742.8941,781.52242 5813.625,793.625 5746.7771,837.07762 5471.2965,654.27601 5565,701 5513.255,634.71831 5298.3697,462.57262 5392.5,509 5312.8132,435.52277 5243.2859,288.91931 5234,338 c 61.7366,-23.35426 205.8461,60.66924 159.875,28.625 -3.2726,35.30283 268.258,157.40293 175.125,133.375 44.2235,68.22656 -70.3806,-112.95366 17,-43 184.5796,-300.29679 -576.0366,405.09746 149,-100 108.1213,-2.10401 454.1379,265.69024 356,116 109.9183,77.71474 284.9329,252.28351 227,173 209.5133,195.36109 409.6372,349.97977 448,372 218.4472,213.9364 539.8673,295.858 762,511 106.0029,71.9275 415.7837,302.1428 314,230 109.7602,14.5409 387.9764,401.2166 302,301 105.7632,141.0392 185.8736,346.246 219,533 44.2409,165.7511 86.3045,521.5994 80,440 41.5787,137.1636 11.5641,394.7802 40,364 -11.7563,198.4008 -128.6123,379.2496 -179,593 -74.3387,212.7868 -126.8497,473.2353 -314,600 153.5992,36.6267 -1562.9103,729.2099 -427,262 -93.683,27.9507 -221.0788,112.007 -279.125,82.125 -42.7142,-63.6031 -261.6799,16.084 -204.875,39.875 -92.4098,59.3093 -409.1503,229.7724 -302,169 -309.5513,127.5709 -639.8645,320.3521 -962,347 6.1849,-30.305 -164.3839,37.3601 -185,0 z M 7796,3875 c 93.5647,-7.0992 126.5322,-192.7719 54,-114 33.8103,-173.4903 -31.1972,-30.0764 -35,0 0.1229,-39.9678 -258.9391,-47.1842 -182,-146 113.6598,30.6138 10.8956,303.7837 104.5,230.375 -22.3068,19.7153 51.8904,32.0568 58.5,29.625 z M 1661,3396 c -11.6985,-240.5215 -107.7467,106.4888 -46,-110 -154.7693,32.9961 135.4776,-62.868 3,-71 -57.7042,-56.9258 -37.7914,-158.7969 -109,-91 -2.7575,-27.0327 -73.3587,-130.8372 -40,-106.375 18.6828,61.7435 -150.1645,-80.1454 -102,-57.625 -78.8711,53.5301 64.1802,103.8036 0,134 120.5843,41.3874 130.5253,218.0206 148,136 21.1702,95.512 7.8617,134.5964 -5,110 -11.5792,56.5171 95.1863,114.5328 9.4688,16.8438 43.7235,-77.7251 226.1697,-24.8413 130.5312,2.1562 -57.3696,6.4563 38.5762,113.6273 11,37 z m 67,-17 c -13.4075,-64.1343 127.1925,106.1937 19,-113 -185.4143,-81.4558 -21.1772,164.1434 -27,132 l 11.5,-11 z"
       id="path6" />
    <path
       d="m 1360,3805 c 56.6661,-31.9542 -5.6668,-61.7215 -67.1406,-150.3438 -107.0209,-33.2865 97.1744,-74.4995 -11.8594,-81.6562 76.5373,36.2227 43.0303,37.7537 108,122 -57.8795,-91.312 -2.3248,235.806 11.625,56.625 64.2149,60.7833 98.3519,144.62 73.375,33.375 -17.6033,-37.9437 -86.3722,65.0703 -114,20 z"
       id="path8" />
  </g>
</svg>
