<?xml version="1.0" standalone="no"?>
<!DOCTYPE svg PUBLIC "-//W3C//DTD SVG 20010904//EN"
 "http://www.w3.org/TR/2001/REC-SVG-20010904/DTD/svg10.dtd">
<svg version="1.0" xmlns="http://www.w3.org/2000/svg"
 width="1024.000000pt" height="1024.000000pt" viewBox="0 0 1024.000000 1024.000000"
 preserveAspectRatio="xMidYMid meet">
<metadata>
Created by potrace 1.16, written by Peter Selinger 2001-2019
</metadata>
<g transform="translate(0.000000,1024.000000) scale(0.100000,-0.100000)"
fill="#000000" stroke="none">
<path d="M4786 9633 c-4 -5 -12 -9 -17 -9 -5 -1 -10 -2 -11 -3 -2 -1 -21 -4
-43 -5 -21 -2 -41 -8 -43 -15 -2 -6 -8 -8 -14 -5 -6 4 -13 2 -17 -4 -3 -6 -13
-12 -21 -14 -8 -2 -21 -10 -28 -18 -11 -12 -12 -12 -6 -1 4 8 -8 3 -28 -12
-19 -15 -40 -27 -47 -27 -7 0 -9 -5 -5 -12 5 -8 2 -9 -10 -5 -10 4 -19 1 -22
-8 -4 -8 -10 -13 -14 -10 -4 3 -13 -2 -20 -10 -7 -8 -17 -12 -23 -8 -5 3 -7 2
-4 -4 4 -6 -9 -18 -28 -29 -23 -12 -30 -21 -22 -26 8 -5 7 -8 -5 -8 -10 0 -18
-7 -18 -16 0 -8 -4 -12 -10 -9 -5 3 -10 -1 -10 -10 0 -8 -8 -19 -17 -22 -26
-10 -113 -106 -106 -117 4 -5 -1 -7 -10 -3 -10 4 -17 2 -17 -5 0 -13 -47 -58
-61 -58 -5 0 -8 -3 -8 -7 3 -20 -2 -34 -11 -28 -5 3 -10 2 -10 -3 0 -4 -9 -18
-20 -30 -12 -12 -18 -22 -14 -22 4 0 -5 -11 -20 -25 -15 -14 -23 -25 -19 -25
4 -1 -2 -9 -14 -19 -12 -10 -19 -21 -16 -25 4 -3 1 -6 -5 -6 -7 0 -12 -7 -12
-15 0 -8 -7 -15 -15 -15 -9 0 -12 -6 -9 -15 4 -8 2 -15 -3 -15 -6 0 -16 -18
-23 -40 -7 -21 -16 -37 -20 -35 -4 3 -10 -9 -14 -26 -4 -20 -10 -28 -17 -23
-8 4 -9 3 -5 -4 4 -6 1 -22 -6 -34 -7 -13 -11 -27 -10 -32 2 -4 -2 -14 -9 -22
-6 -7 -8 -18 -4 -24 3 -5 2 -10 -4 -10 -9 0 -22 -30 -26 -60 0 -3 -6 -15 -13
-26 -6 -12 -9 -24 -5 -27 3 -4 1 -13 -6 -21 -6 -8 -13 -22 -15 -33 -11 -53
-28 -103 -36 -103 -5 0 -7 -7 -4 -15 4 -8 1 -21 -5 -29 -6 -7 -12 -26 -13 -42
-1 -16 -8 -35 -15 -42 -7 -7 -9 -20 -6 -28 3 -9 2 -19 -3 -23 -13 -9 -35 -73
-22 -65 13 8 -42 -79 -56 -88 -6 -4 -7 -8 -3 -8 5 0 1 -7 -7 -16 -9 -8 -14
-20 -11 -25 4 -5 1 -9 -4 -9 -6 0 -11 -11 -11 -24 0 -13 -6 -27 -12 -29 -10
-4 -10 -6 0 -6 10 -1 10 -5 -2 -17 -9 -8 -14 -20 -11 -25 3 -5 0 -28 -6 -51
-7 -24 -13 -46 -15 -50 -1 -5 -3 -11 -4 -15 -1 -5 -2 -11 -1 -15 0 -5 -4 -8
-10 -8 -5 0 -7 -4 -4 -10 3 -5 -8 -30 -25 -55 -18 -25 -33 -59 -34 -75 -1 -16
-6 -33 -11 -37 -4 -4 -5 -2 0 6 5 10 4 12 -4 7 -6 -4 -9 -12 -6 -17 8 -11 -19
-51 -28 -42 -4 3 -7 2 -7 -4 0 -16 -43 -24 -52 -10 -6 9 -8 9 -8 -1 0 -7 -4
-10 -10 -7 -5 3 -10 1 -10 -5 0 -7 -6 -10 -12 -7 -7 2 -22 -3 -32 -12 -12 -10
-16 -11 -12 -3 7 12 4 12 -15 1 -13 -7 -27 -13 -31 -14 -3 0 -18 -10 -31 -22
-14 -12 -27 -19 -30 -17 -2 2 -21 -7 -41 -21 -21 -14 -34 -20 -31 -14 4 6 -2
5 -13 -2 -12 -7 -19 -16 -17 -19 2 -4 -6 -6 -18 -5 -12 1 -24 -1 -27 -6 -3 -4
-14 -9 -25 -11 -11 -1 -25 -10 -32 -18 -9 -11 -12 -12 -13 -2 0 10 -4 10 -22
0 -22 -11 -29 -14 -61 -21 -7 -1 -26 -13 -42 -25 -19 -15 -31 -19 -40 -12 -16
13 -28 0 -14 -16 8 -9 4 -12 -15 -10 -15 2 -26 0 -26 -4 0 -4 -10 -11 -22 -15
-13 -4 -26 -8 -30 -10 -19 -6 -23 -7 -30 -6 -5 0 -8 -3 -8 -7 0 -4 -10 -9 -22
-9 -13 -1 -27 -8 -33 -16 -5 -8 -16 -12 -22 -10 -7 3 -13 -1 -13 -7 0 -7 -7
-10 -15 -6 -8 3 -15 0 -15 -6 0 -6 -3 -9 -6 -5 -3 3 -14 -2 -25 -11 -10 -9
-31 -18 -46 -20 -15 -2 -31 -9 -35 -15 -4 -7 -13 -12 -20 -12 -7 -1 -12 -6
-11 -11 1 -6 -8 -10 -20 -10 -14 1 -21 -4 -19 -13 2 -11 0 -12 -10 -4 -15 13
-53 -8 -40 -22 4 -5 1 -5 -6 -1 -7 4 -26 1 -42 -8 -17 -8 -32 -10 -36 -5 -8
13 -26 0 -21 -15 3 -6 -4 -12 -14 -12 -11 0 -19 5 -19 10 0 5 -8 0 -18 -11 -9
-11 -25 -19 -35 -17 -9 1 -15 -2 -11 -7 3 -5 0 -9 -6 -9 -6 0 -9 -4 -5 -9 3
-5 1 -13 -5 -16 -6 -4 -10 -3 -9 2 4 24 -4 25 -21 3 -11 -14 -18 -18 -14 -9 3
10 1 20 -5 24 -6 3 -11 1 -11 -6 0 -7 -3 -9 -7 -6 -3 4 -15 -1 -26 -10 -11
-10 -17 -12 -13 -5 4 7 1 12 -9 12 -10 0 -13 -5 -9 -12 5 -8 2 -9 -9 -5 -9 3
-19 2 -22 -4 -4 -5 -12 -6 -18 -2 -16 10 -47 11 -41 2 2 -4 -14 -6 -36 -5 -22
2 -40 -1 -40 -6 0 -5 -6 -8 -12 -7 -28 3 -37 -2 -32 -18 3 -10 -2 -7 -10 7 -8
14 -15 20 -16 14 0 -12 -29 -12 -49 1 -9 5 -12 4 -7 -3 3 -6 -2 -16 -13 -21
-14 -8 -21 -8 -24 2 -4 9 -6 9 -6 -1 -1 -7 -5 -10 -11 -7 -5 3 -10 1 -10 -5 0
-6 -5 -8 -10 -5 -6 3 -10 0 -10 -7 0 -9 -3 -9 -10 2 -9 14 -14 7 -11 -13 1 -5
-3 -6 -8 -3 -12 8 -41 -4 -41 -16 0 -6 7 -5 15 2 13 11 14 10 9 -5 -5 -11 -3
-16 2 -12 5 3 10 -3 10 -13 0 -16 -3 -16 -25 6 -26 26 -35 26 -25 0 3 -9 10
-13 15 -10 5 3 6 -2 2 -12 -5 -15 -7 -15 -15 0 -5 9 -14 16 -20 16 -7 0 -6 -5
2 -15 9 -11 9 -15 1 -15 -7 0 -9 -5 -5 -12 5 -8 2 -9 -11 -4 -15 5 -16 4 -6
-8 6 -8 10 -20 9 -27 -2 -7 4 -13 12 -14 9 0 14 -8 12 -20 -2 -12 0 -16 5 -9
9 13 43 15 43 2 0 -4 5 -8 11 -8 6 0 8 9 3 23 -3 12 -3 19 1 15 12 -11 15 -59
3 -52 -5 3 -4 -3 3 -14 7 -12 16 -19 20 -16 4 2 6 -9 5 -26 -1 -17 4 -32 11
-34 7 -3 13 -17 13 -30 0 -14 8 -30 17 -35 10 -6 12 -11 6 -11 -7 0 -13 -5
-13 -11 0 -6 7 -8 16 -5 14 5 15 4 5 -8 -9 -10 -9 -16 -1 -21 6 -4 10 -17 9
-28 -3 -48 1 -67 17 -67 8 0 13 -4 10 -9 -3 -5 3 -11 15 -14 18 -5 20 -2 14
23 -7 33 9 48 32 29 13 -11 17 -10 28 4 6 9 15 14 18 10 4 -3 7 1 7 11 0 9 -5
14 -10 11 -7 -4 -9 2 -4 19 5 19 3 25 -7 23 -8 -2 -11 -2 -6 0 12 7 8 30 -7
42 -20 17 -41 -19 -23 -39 10 -12 9 -12 -6 0 -10 7 -16 19 -13 27 3 8 2 11 -3
8 -5 -3 -12 -1 -16 5 -3 5 2 10 12 10 16 1 16 2 3 13 -18 15 -26 42 -9 31 8
-5 10 1 7 18 -5 25 -3 26 31 19 2 -1 -2 -7 -8 -14 -6 -8 -8 -17 -4 -20 3 -4 1
-7 -5 -7 -7 0 -12 -5 -12 -11 0 -8 4 -8 15 1 15 13 49 -10 50 -34 3 -40 19
-86 31 -86 8 0 14 7 14 15 0 8 6 15 14 15 9 0 13 8 10 23 l-5 22 10 -22 c13
-29 25 -30 18 -2 -5 17 -3 18 11 7 12 -10 14 -10 8 0 -4 7 -2 12 4 12 6 0 8 4
5 10 -4 7 3 7 20 0 19 -7 24 -7 19 2 -5 8 -2 9 9 5 10 -3 17 -3 17 2 0 14 -26
31 -35 23 -5 -4 -5 -1 -1 6 4 6 14 12 23 12 9 0 13 6 10 14 -4 10 0 12 15 8
15 -3 19 -1 14 7 -4 7 -2 10 5 9 6 -2 14 3 17 11 3 9 0 11 -9 7 -8 -4 -4 1 8
12 12 11 19 23 15 27 -4 5 -1 5 6 1 7 -4 9 -12 6 -18 -4 -6 -1 -9 7 -6 7 2 13
18 14 34 0 19 6 30 18 32 9 2 17 -2 17 -8 0 -7 -6 -10 -13 -7 -9 3 -13 -2 -11
-16 1 -12 3 -26 3 -30 1 -5 5 -6 11 -2 5 3 6 13 3 23 -5 14 -3 14 9 -2 14 -18
16 -18 25 -2 9 17 10 17 16 -3 3 -13 1 -19 -5 -14 -6 3 -17 -2 -25 -12 -9 -14
-13 -15 -13 -4 -1 10 -5 8 -17 -6 -10 -13 -14 -15 -10 -4 4 12 -2 16 -23 16
-18 0 -26 -5 -23 -12 2 -7 -8 -22 -23 -34 -15 -11 -23 -21 -19 -21 4 0 2 -6
-4 -14 -7 -8 -8 -17 -4 -19 13 -8 37 9 29 21 -4 6 4 9 20 7 14 -1 32 4 40 12
9 9 14 10 14 3 0 -7 7 -5 16 5 9 9 23 14 31 11 8 -3 11 -1 8 4 -6 10 7 14 33
11 6 -1 12 8 13 21 0 13 3 18 5 11 3 -7 12 -9 20 -6 7 3 11 10 7 17 -4 6 -1 6
9 -2 13 -10 17 -10 22 3 3 9 11 13 18 9 8 -5 9 -2 5 10 -5 12 -3 15 6 9 25
-16 90 1 72 19 -3 2 2 5 10 5 8 0 11 -5 8 -10 -4 -6 4 -3 18 6 28 20 43 22 34
5 -4 -7 1 -4 9 6 9 11 16 16 16 12 0 -5 7 -3 15 4 8 6 24 13 37 14 35 4 68 16
68 26 0 13 38 18 50 6 8 -8 9 -6 4 8 -6 16 -4 18 10 13 9 -4 15 -3 12 1 -3 4
4 14 16 21 14 9 18 9 13 1 -4 -7 4 -4 19 5 14 10 26 13 26 9 0 -5 7 0 15 10 8
11 15 16 15 12 0 -5 7 -3 15 4 12 10 15 10 15 -1 0 -11 2 -11 10 1 5 8 10 12
10 8 0 -4 16 1 35 12 30 17 53 12 25 -5 -5 -3 -10 -11 -10 -17 0 -6 10 2 22
17 20 25 22 26 34 10 7 -10 18 -14 25 -9 8 5 10 3 4 -5 -6 -10 -3 -11 14 -2
11 7 21 16 21 21 0 6 9 10 20 10 11 0 20 3 20 8 0 4 17 8 38 9 20 1 46 4 57 7
11 2 25 5 32 5 19 2 43 31 37 46 -4 8 -11 12 -17 8 -6 -3 -7 -1 -3 6 4 6 11 9
16 6 4 -3 11 1 13 7 3 7 4 -1 2 -17 -2 -24 1 -31 15 -31 10 0 17 3 14 7 -2 4
2 9 10 12 11 5 13 0 6 -22 -4 -16 -4 -34 0 -41 8 -13 7 -25 -6 -85 -12 -50
-12 -110 0 -117 7 -5 3 -8 -9 -8 -16 0 -17 -2 -6 -9 8 -5 16 -20 17 -33 5 -32
15 -137 17 -168 1 -14 6 -31 10 -37 5 -8 4 -13 -3 -13 -7 0 -8 -7 -3 -17 5
-10 9 -105 8 -210 0 -106 4 -193 8 -193 5 0 6 -4 3 -8 -14 -23 36 -128 55
-116 5 3 9 0 9 -6 0 -6 5 -8 10 -5 6 3 10 1 10 -5 0 -6 4 -9 9 -6 5 3 7 16 4
29 -3 12 -2 19 2 15 4 -4 8 -22 7 -40 -1 -23 2 -28 8 -18 8 12 10 10 10 -7 0
-13 5 -23 11 -23 5 0 8 -4 5 -9 -7 -11 13 -71 24 -71 5 0 7 -9 5 -20 -2 -11 0
-20 6 -20 5 0 9 -5 9 -12 0 -6 8 -20 17 -30 9 -10 17 -28 18 -41 2 -12 8 -21
14 -19 7 1 10 -2 7 -7 -4 -5 1 -17 10 -25 11 -12 12 -16 2 -16 -8 0 -9 -3 -3
-8 6 -4 12 -16 13 -27 2 -11 9 -23 15 -27 8 -5 7 -8 -3 -8 -13 -1 -13 -2 0
-13 15 -12 21 -34 21 -69 0 -10 4 -18 8 -18 4 0 8 -6 9 -12 0 -7 3 -24 7 -38
3 -14 8 -35 11 -47 2 -12 9 -34 14 -48 5 -14 6 -25 2 -25 -4 0 -2 -4 3 -8 17
-12 36 -52 25 -52 -6 0 -5 -6 2 -14 7 -8 18 -11 23 -8 6 3 4 -2 -4 -11 -7 -9
-9 -17 -3 -17 8 0 33 -70 36 -103 1 -4 8 -12 16 -17 8 -5 12 -10 7 -10 -4 0 0
-14 8 -31 9 -17 14 -33 11 -37 -3 -3 -1 -11 4 -18 6 -6 23 -48 39 -93 16 -44
34 -87 40 -95 9 -11 9 -15 -1 -19 -11 -4 -10 -6 0 -6 7 -1 10 -6 7 -11 -3 -5
-2 -10 3 -10 6 0 9 -14 8 -31 -1 -17 4 -33 12 -38 7 -4 13 -11 13 -14 -1 -4 6
-23 14 -43 18 -44 18 -47 3 -39 -7 4 -6 1 3 -7 9 -7 17 -16 17 -20 1 -5 2 -9
3 -10 6 -22 11 -47 13 -65 0 -13 4 -23 7 -23 3 0 6 -6 7 -12 1 -13 9 -48 12
-58 1 -3 2 -9 1 -13 -1 -4 6 -10 14 -13 8 -3 13 -10 10 -14 -3 -5 4 -15 15
-23 11 -7 17 -17 13 -20 -3 -4 1 -7 10 -7 11 0 14 -5 10 -17 -4 -11 -3 -14 5
-9 11 6 17 -18 13 -46 0 -4 6 -5 13 -2 9 3 20 -4 27 -18 7 -13 19 -29 28 -36
14 -11 14 -11 -2 -6 -9 3 0 -11 20 -32 21 -21 42 -37 46 -36 5 1 6 -2 3 -7 -4
-5 -1 -16 6 -23 7 -8 18 -23 25 -33 6 -11 16 -19 23 -17 6 1 9 -2 5 -7 -3 -6
5 -20 19 -32 14 -12 23 -25 21 -29 -3 -5 2 -10 10 -14 8 -3 15 -12 15 -20 0
-9 9 -20 20 -26 11 -6 20 -18 20 -26 0 -8 3 -13 8 -11 4 2 18 -7 32 -21 17
-17 18 -21 5 -12 -14 9 -12 6 5 -13 38 -39 50 -55 50 -64 0 -11 43 -48 53 -45
4 1 7 -4 7 -12 0 -8 13 -25 29 -39 17 -14 27 -28 24 -31 -4 -3 1 -6 10 -6 10
0 14 -5 11 -15 -4 -8 -1 -15 6 -15 6 0 8 -5 4 -13 -5 -7 -2 -7 10 2 9 8 16 10
15 5 -1 -5 0 -12 1 -16 3 -9 7 -25 9 -35 0 -3 13 4 28 18 25 21 26 21 9 2 -20
-24 -6 -61 17 -46 7 4 8 0 4 -12 -5 -12 1 -25 18 -41 14 -13 25 -28 25 -34 0
-5 5 -10 11 -10 5 0 7 -4 4 -10 -3 -5 1 -10 10 -10 9 0 13 -4 10 -10 -3 -5 1
-10 10 -10 9 0 13 -4 10 -10 -7 -12 49 -72 59 -63 4 4 4 0 0 -10 -4 -11 0 -19
9 -23 9 -3 13 -12 10 -20 -3 -9 1 -14 12 -14 9 0 13 -4 10 -10 -3 -5 -2 -10 4
-10 6 0 18 -16 27 -35 9 -19 21 -35 26 -35 6 0 5 -6 -2 -15 -12 -14 -4 -20 22
-16 4 0 5 -8 3 -19 -2 -12 2 -20 10 -20 8 0 12 -6 9 -14 -3 -8 5 -25 17 -37
13 -13 24 -34 25 -46 0 -12 7 -29 14 -38 7 -8 9 -15 4 -15 -5 0 -3 -4 5 -9 13
-9 20 -26 23 -58 1 -7 5 -10 10 -7 4 3 9 -4 9 -15 1 -12 3 -25 4 -31 1 -5 3
-13 4 -16 0 -4 8 -1 16 6 13 11 14 10 9 -4 -4 -10 -1 -16 7 -16 11 0 11 -3 -1
-10 -13 -8 -13 -10 2 -10 12 0 16 -6 13 -21 -3 -15 0 -19 10 -15 9 3 12 0 8
-10 -3 -7 0 -14 7 -14 6 0 8 -4 5 -10 -3 -5 -2 -10 2 -10 5 0 13 -10 18 -22 6
-13 16 -22 22 -21 7 2 10 -6 8 -17 -2 -12 -1 -19 3 -17 10 5 42 -30 35 -37 -4
-3 1 -6 11 -6 9 0 15 -4 12 -8 -3 -5 13 -27 35 -50 21 -23 39 -47 39 -53 0 -5
5 -7 12 -3 7 5 9 2 5 -8 -4 -12 -1 -14 14 -11 11 3 19 0 19 -7 0 -6 6 -18 13
-25 30 -34 37 -45 30 -45 -4 0 2 -7 13 -15 10 -8 15 -15 11 -15 -5 0 -1 -7 7
-16 9 -8 13 -21 9 -27 -3 -7 -3 -9 2 -5 11 10 38 -29 30 -42 -3 -6 -2 -10 3
-10 9 0 25 -37 23 -52 -1 -5 5 -8 12 -8 8 0 14 -7 15 -15 1 -8 3 -22 4 -30 1
-8 5 -15 10 -15 5 0 7 -4 4 -9 -3 -5 1 -12 10 -15 9 -4 14 -9 11 -13 -8 -7 54
-123 66 -123 4 0 5 -4 2 -10 -3 -5 1 -10 10 -10 9 0 14 -4 11 -9 -3 -5 1 -11
9 -15 8 -3 15 -10 15 -16 0 -6 -6 -8 -12 -5 -7 4 -5 0 5 -8 10 -8 20 -25 23
-38 21 -94 70 -167 95 -142 11 11 18 93 7 93 -4 0 -8 5 -8 11 0 5 5 7 11 3 6
-3 3 9 -7 27 -16 31 -16 33 0 20 14 -12 16 -12 10 3 -3 9 -11 16 -18 16 -6 0
-4 5 4 10 8 5 11 10 5 10 -5 0 -11 16 -12 37 -1 20 -6 39 -10 42 -4 3 -9 17
-11 31 -3 34 -22 80 -33 80 -5 0 -6 6 -3 13 2 7 -5 22 -17 33 -13 10 -19 13
-15 6 4 -6 2 -12 -3 -12 -15 0 -14 13 2 29 10 11 9 13 -4 8 -9 -3 -16 0 -16 6
0 7 -3 24 -6 40 -4 19 -2 25 6 20 7 -4 7 0 -1 10 -8 9 -11 21 -7 27 3 5 -2 10
-12 10 -15 0 -16 2 -3 10 8 5 10 10 4 10 -15 0 -27 91 -13 104 7 8 8 6 4 -7
-4 -9 -3 -17 2 -17 5 0 9 18 10 40 1 22 -2 40 -6 40 -4 0 -7 10 -8 23 0 25 -7
56 -22 106 -6 19 -9 37 -6 39 2 2 -2 11 -10 18 -7 8 -12 25 -11 39 2 13 -1 22
-5 19 -5 -3 -9 4 -9 15 0 12 -4 21 -10 21 -5 0 -10 5 -10 11 0 5 6 7 13 3 9
-6 9 -4 1 7 -13 16 -15 51 -2 43 5 -3 5 -11 1 -17 -3 -7 3 -4 14 6 11 9 22 15
25 12 7 -7 0 53 -9 80 -3 11 -8 49 -10 85 -6 106 -7 110 -16 110 -5 0 -7 7 -3
15 3 8 1 15 -5 15 -6 0 -9 7 -5 15 3 8 1 15 -3 15 -5 0 -7 9 -4 20 3 11 0 20
-6 20 -6 0 -11 7 -11 15 0 18 -20 57 -35 67 -5 4 -6 8 -1 8 5 0 -1 9 -14 20
-13 11 -20 20 -16 20 9 0 -58 56 -94 80 -13 8 -30 23 -39 34 -9 10 -25 27 -35
37 -11 11 -16 19 -10 19 5 0 -2 6 -15 13 -13 6 -23 15 -23 19 1 4 -16 25 -36
46 -20 21 -44 51 -52 67 -8 16 -24 38 -35 50 -35 37 -55 65 -55 75 0 6 -4 10
-9 10 -10 0 -27 39 -23 52 1 5 -3 7 -10 5 -6 -1 -23 22 -37 51 -15 30 -32 52
-41 52 -10 0 -26 20 -39 50 -12 28 -27 50 -32 50 -5 0 -9 6 -9 13 0 7 -9 23
-20 35 -12 12 -18 22 -14 22 4 0 -3 11 -16 25 -13 14 -20 25 -15 25 4 0 -1 8
-11 17 -10 10 -20 24 -22 32 -1 7 -9 20 -18 28 -8 8 -22 29 -31 46 -9 18 -19
34 -22 37 -3 3 -12 17 -20 32 -8 15 -18 25 -23 22 -5 -3 -7 -2 -6 3 4 13 -25
83 -35 83 -4 0 -6 4 -3 8 3 5 -2 21 -9 36 -8 15 -16 41 -17 56 -1 16 -5 27 -9
25 -3 -2 -11 11 -17 30 -7 26 -7 35 1 35 8 0 8 3 2 8 -15 11 -17 32 -2 32 8 0
7 3 -3 10 -9 6 -14 21 -12 42 2 18 -4 60 -13 93 -26 95 -27 99 -29 120 -1 11
-5 25 -8 31 -4 6 -8 28 -9 50 -1 21 -6 47 -11 56 -8 17 -20 148 -13 148 3 0
11 -12 19 -27 10 -19 15 -22 16 -11 0 9 6 19 13 21 6 3 7 6 2 6 -7 1 -10 26
-9 63 1 35 -2 66 -8 69 -6 4 -12 39 -13 79 -2 40 -8 76 -14 80 -7 3 -14 29
-18 56 -3 27 -2 46 2 42 5 -4 14 0 22 10 9 10 11 11 7 2 -7 -13 -5 -13 9 -1 9
7 23 11 32 7 8 -3 14 -1 12 3 -1 5 15 21 36 35 21 15 35 21 31 14 -6 -9 -3 -9
9 1 9 7 24 11 32 7 9 -3 13 -2 10 4 -3 6 -1 10 4 10 6 0 10 3 9 8 -9 31 12 67
40 67 24 1 29 -3 27 -17 -2 -10 0 -16 6 -13 5 4 9 13 9 21 0 8 5 14 11 14 5 0
7 -5 3 -12 -5 -7 -3 -8 5 -3 9 5 7 12 -8 26 -30 28 -18 37 19 14 13 -8 13 -7
1 8 -10 13 -11 20 -2 31 9 11 9 15 -1 19 -7 3 -3 6 9 6 12 1 24 7 27 14 3 6 3
1 0 -13 -5 -24 -4 -24 10 -6 9 11 16 14 16 7 0 -7 5 -9 13 -5 6 4 9 3 4 -1 -4
-5 1 -18 10 -29 18 -20 17 -20 -2 -6 -11 8 -23 20 -27 25 -4 6 -8 -3 -8 -18 0
-17 -4 -26 -10 -22 -6 4 -8 10 -6 14 3 4 -1 8 -9 8 -9 0 -11 -4 -6 -11 9 -10
11 -17 11 -32 0 -4 7 -1 15 6 8 6 20 8 27 4 8 -5 8 -1 -2 11 -14 17 -13 18 5
8 14 -6 31 -5 55 3 19 7 31 13 25 14 -5 1 1 6 14 11 15 6 21 14 17 25 -3 8 -2
12 4 9 13 -8 53 34 46 50 -3 9 0 12 10 8 10 -4 12 0 8 11 -4 10 -1 16 8 16 8
0 23 7 34 16 10 8 14 13 7 10 -6 -4 -15 -2 -18 4 -4 6 -3 10 2 9 24 -4 43 3
43 17 0 8 4 13 8 10 5 -3 19 13 31 34 12 22 19 40 15 40 -3 0 -1 7 6 15 7 8
16 13 20 10 4 -3 10 2 14 10 3 8 0 15 -7 15 -7 0 -4 5 6 11 9 6 14 15 11 21
-5 7 -2 8 5 4 15 -10 53 23 44 38 -3 6 -2 8 2 3 5 -4 17 1 28 10 19 17 20 17
8 -4 -21 -41 -11 -38 18 5 18 28 31 39 34 30 4 -10 6 -10 6 0 1 7 6 10 11 7 6
-3 10 0 11 7 0 7 4 4 9 -7 8 -19 9 -19 9 -1 1 15 4 16 15 7 11 -9 16 -9 22 0
4 8 3 9 -4 5 -7 -4 -12 -3 -12 2 0 5 9 12 20 15 13 3 18 1 13 -5 -3 -7 -1 -8
5 -4 7 4 12 13 12 21 0 7 9 17 20 20 11 3 20 11 20 16 0 5 9 9 21 9 11 0 17 4
14 10 -4 6 1 7 11 3 12 -5 15 -3 9 6 -6 10 -3 11 14 2 16 -9 20 -9 15 2 -3 8
2 20 12 27 17 15 47 23 39 11 -2 -4 2 -8 10 -8 8 0 14 3 13 6 -2 23 4 32 18
27 14 -5 15 -4 5 8 -10 12 -8 17 11 27 13 7 25 11 26 10 2 -2 7 1 10 5 4 4 2
4 -5 0 -6 -3 -14 -2 -17 3 -6 9 22 26 38 22 5 -1 3 5 -4 14 -12 14 -11 18 1
25 8 5 14 15 14 21 0 7 6 14 14 17 9 3 11 0 6 -8 -5 -8 -4 -11 2 -7 6 4 8 17
6 31 -3 16 2 28 16 38 11 8 18 18 14 21 -3 4 -2 7 4 7 5 0 10 7 11 15 1 8 3
22 4 30 1 8 5 12 9 9 6 -3 20 22 24 46 0 3 9 19 18 37 9 18 17 39 17 47 0 8 5
16 10 18 6 2 12 13 13 26 0 12 5 22 10 22 4 0 5 5 2 10 -4 6 3 30 14 53 11 23
22 67 25 97 2 30 5 55 6 55 1 0 3 9 5 19 4 22 -21 76 -34 76 -10 0 -71 55
-163 148 -32 31 -58 53 -58 47 0 -7 -3 -7 -8 0 -6 9 -61 33 -87 38 -5 1 -12 4
-15 7 -8 8 -101 41 -144 51 -22 6 -44 13 -49 16 -5 3 -28 7 -51 9 -22 2 -48 5
-56 7 -8 3 -34 8 -57 12 -24 4 -43 12 -43 18 0 6 -3 8 -6 5 -3 -4 -21 0 -40 8
-19 8 -34 12 -34 9 0 -2 -19 4 -42 14 -24 10 -51 17 -60 15 -10 -1 -16 3 -15
9 1 7 -13 12 -35 12 -21 -1 -38 2 -38 6 0 16 -108 38 -128 25 -9 -5 -15 -2
-18 11 -4 15 -12 19 -30 15 -13 -2 -24 0 -24 7 0 5 -6 8 -14 5 -7 -3 -21 2
-30 11 -9 9 -16 11 -16 5 0 -6 -9 -2 -21 9 -28 26 -70 36 -80 19 -7 -11 -9
-11 -9 0 0 7 -4 10 -10 7 -5 -3 -10 0 -10 7 0 8 -3 9 -8 3 -11 -16 -54 -15
-48 1 3 8 1 14 -4 14 -6 0 -10 -5 -10 -12 0 -6 -3 -8 -7 -5 -3 4 -7 43 -8 87
0 44 -4 83 -8 86 -4 4 -2 13 3 19 6 7 11 32 12 56 0 24 7 53 15 64 7 11 13 27
13 37 0 10 4 18 10 18 5 0 9 3 8 8 -4 13 13 52 23 52 5 0 9 5 9 11 0 6 7 17
15 26 8 8 13 19 10 24 -4 5 -1 9 4 9 6 0 10 6 8 13 -1 6 4 11 11 10 6 -2 12 4
12 12 0 8 5 15 10 15 6 0 10 7 10 15 0 8 8 22 18 32 11 10 27 34 38 53 10 19
21 37 24 40 11 11 45 84 43 92 -2 4 2 8 8 8 5 0 8 4 4 9 -8 14 44 95 76 117
15 10 25 22 23 26 -3 4 -1 8 5 8 5 0 13 -4 16 -10 3 -5 14 -10 25 -10 10 0 21
-7 24 -16 5 -14 4 -15 -9 -4 -8 7 -15 8 -15 2 0 -5 7 -13 16 -16 24 -9 56 -7
50 3 -3 5 1 12 10 15 14 5 14 9 3 23 -8 9 -9 14 -3 10 15 -9 35 16 38 48 2 15
-3 29 -13 34 -13 8 -10 12 16 28 45 25 60 56 44 87 -13 24 -25 27 -47 13 -7
-4 -17 0 -24 8 -7 8 -17 12 -23 8 -6 -4 -7 -1 -2 7 6 9 4 12 -6 8 -9 -4 -19 4
-26 18 -6 13 -7 22 -3 19 5 -3 10 0 12 7 3 9 6 9 12 0 4 -7 2 -12 -6 -12 -7
-1 -2 -7 12 -14 22 -13 27 -12 46 9 16 17 25 20 33 12 8 -8 11 -8 11 2 0 7 5
9 10 6 6 -3 10 0 10 7 0 9 3 9 8 2 10 -15 70 -25 78 -13 3 6 3 13 -1 17 -4 4
-10 1 -12 -6 -3 -6 -9 -9 -14 -6 -6 3 -2 12 8 20 19 14 7 19 -21 8 -9 -3 -13
-11 -9 -17 4 -6 1 -7 -7 -2 -10 6 -10 11 3 20 9 7 13 16 9 20 -4 5 1 5 11 2 9
-4 17 -2 17 3 0 6 -5 10 -11 10 -6 0 -8 7 -5 16 4 10 2 13 -7 7 -21 -13 -36
-12 -49 5 -11 15 -11 15 2 6 11 -8 22 -7 40 2 20 11 21 14 6 14 -16 0 -17 2
-5 17 10 11 10 14 2 9 -9 -5 -13 0 -13 13 0 12 -4 21 -10 21 -5 0 -10 5 -10
11 0 5 4 7 10 4 6 -3 7 1 4 9 -5 12 -10 13 -25 5 -11 -5 -17 -14 -14 -20 4 -5
-3 -9 -14 -9 -12 0 -21 5 -21 10 0 6 4 10 8 10 4 0 9 14 10 30 3 36 -1 37 -29
8 -12 -13 -18 -16 -14 -8 8 13 7 13 -10 0 -10 -8 -20 -14 -22 -12 -10 7 -43 0
-38 -8 3 -5 -3 -10 -14 -10 -15 0 -22 9 -27 35 -3 19 -11 38 -17 42 -6 3 -7 1
-3 -5 5 -8 1 -10 -10 -5 -15 6 -15 8 4 24 28 22 28 36 0 34 -32 -3 -41 4 -27
21 6 7 16 11 23 7 6 -3 8 -3 4 2 -11 12 19 36 36 29 12 -5 15 -2 10 10 -3 9
-11 13 -16 10 -6 -4 -5 2 1 14 11 21 55 27 48 7 -2 -5 -13 -8 -23 -7 -15 3
-16 1 -7 -9 9 -9 16 -9 26 -1 8 7 17 9 21 5 4 -4 4 1 0 11 -5 13 -4 17 4 12 8
-5 10 -2 6 8 -3 9 -11 13 -17 9 -5 -3 -7 -1 -4 4 4 6 17 8 30 6 27 -5 43 27
24 46 -7 7 -6 16 6 29 9 10 17 24 17 30 0 7 5 12 10 12 6 0 1 9 -10 20 -11 11
-24 20 -30 20 -5 0 -10 4 -10 9 0 18 -64 81 -82 81 -10 0 -18 5 -18 11 0 5 -4
7 -10 4 -5 -3 -10 -2 -10 3 0 4 -16 16 -35 25 -41 20 -39 19 -49 10z m244
-634 c0 -11 -4 -18 -9 -15 -5 4 -7 -3 -4 -14 5 -19 6 -19 18 -3 8 10 17 15 21
10 4 -4 2 -7 -4 -7 -7 0 -12 -4 -12 -10 0 -5 8 -7 18 -4 14 5 14 4 2 -4 -8 -6
-18 -8 -22 -6 -4 3 -8 0 -8 -6 0 -7 -5 -6 -14 2 -8 7 -12 16 -10 19 2 4 -3 10
-11 13 -11 4 -8 -8 11 -42 l27 -47 -26 30 c-25 29 -26 29 -40 11 -10 -13 -16
-16 -21 -7 -4 6 -12 8 -18 5 -6 -4 -17 1 -25 11 -7 11 -13 13 -13 7 0 -19 4
-27 13 -24 5 1 5 -3 2 -9 -5 -8 -1 -8 16 1 23 11 23 10 5 -4 -15 -12 -16 -16
-5 -17 10 0 10 -2 1 -6 -6 -2 -10 -9 -7 -13 3 -5 1 -12 -5 -15 -6 -4 -9 -1 -8
7 2 7 -3 12 -9 11 -7 -2 -13 2 -13 7 0 6 5 10 11 10 5 0 7 5 4 11 -4 5 -14 9
-23 7 -10 -2 -23 3 -30 12 -8 8 -11 9 -7 3 4 -8 1 -11 -8 -7 -8 3 -14 16 -14
30 0 23 1 23 13 7 11 -14 13 -15 9 -2 -9 25 21 45 42 28 9 -8 14 -9 11 -4 -4
6 -2 17 3 25 8 12 9 11 7 -5 -2 -14 3 -21 20 -23 12 -2 22 1 22 7 0 6 -8 7
-17 4 -15 -6 -16 -5 -3 9 13 14 17 12 32 -13 10 -16 20 -29 23 -29 4 0 3 6 -2
13 -11 18 -13 38 -2 31 5 -3 16 2 25 10 21 22 34 20 34 -5z m-516 -1432 c-9
-25 23 -41 35 -18 11 21 65 25 67 6 4 -28 17 -54 25 -49 8 5 13 -10 10 -30 -1
-5 5 -6 14 -2 9 3 14 2 11 -3 -5 -8 24 -26 29 -19 4 6 -23 49 -29 48 -4 0 -13
6 -21 13 -12 13 -10 14 13 14 15 0 21 -2 15 -4 -20 -7 -15 -19 7 -20 13 -1 18
2 14 9 -4 7 -2 8 4 4 7 -4 12 -5 12 -2 0 2 3 13 7 23 6 15 4 16 -9 5 -13 -10
-18 -8 -32 13 -9 14 -12 25 -6 25 5 0 10 -5 10 -11 0 -5 4 -7 10 -4 6 4 7 -1
3 -12 -6 -16 -4 -16 18 2 13 11 21 16 17 11 -4 -5 -3 -15 3 -23 9 -9 8 -13 0
-13 -6 0 -11 -8 -11 -17 1 -15 5 -13 24 8 20 24 24 25 42 12 18 -15 18 -15 -3
-9 -19 6 -21 3 -18 -21 3 -34 -4 -55 -17 -47 -5 3 -4 11 3 20 6 8 8 15 3 15
-38 5 -58 2 -62 -10 -3 -8 0 -11 6 -7 7 4 9 -1 7 -14 -2 -11 0 -18 6 -15 5 4
7 10 4 15 -3 4 2 13 10 20 11 9 14 8 12 -9 -1 -12 -5 -21 -10 -21 -4 0 -5 -5
-1 -11 4 -8 9 -7 16 2 7 11 8 10 4 -4 -3 -10 -2 -16 2 -13 4 2 14 1 22 -5 12
-7 10 -9 -8 -9 -13 0 -21 -4 -18 -8 2 -4 0 -14 -5 -22 -8 -12 -9 -11 -7 4 2
10 -3 21 -11 24 -9 3 -11 0 -6 -8 5 -9 4 -11 -3 -6 -18 11 -14 26 5 26 21 0 8
13 -17 17 -14 2 -18 -2 -14 -15 5 -13 4 -14 -4 -3 -7 9 -12 10 -16 2 -10 -16
-22 -14 -24 4 -1 8 -3 22 -4 30 -1 13 -18 23 -18 11 0 -2 -3 -12 -7 -22 -4
-12 -3 -15 5 -10 8 5 10 2 5 -10 -5 -15 -7 -15 -17 2 -11 20 -36 30 -36 16 0
-5 -7 -9 -16 -9 -15 0 -14 2 1 13 10 8 22 11 26 8 11 -6 11 -1 3 20 -7 19 -25
22 -21 4 1 -8 -6 -12 -17 -10 -12 2 -16 -1 -10 -9 4 -7 -2 -6 -15 3 -12 9 -31
14 -42 11 -10 -3 -19 -1 -19 5 0 6 11 9 25 7 20 -2 23 1 14 11 -6 7 -17 10
-25 7 -8 -3 -14 0 -14 7 0 6 -6 8 -12 4 -8 -4 -10 -3 -5 2 5 5 13 9 18 9 5 0
9 5 8 10 -1 6 -6 9 -12 7 -6 -2 -5 4 2 12 7 9 17 14 21 11 5 -3 11 -1 15 5 9
15 15 12 9 -3z m-134 -247 c6 -11 18 -19 27 -18 9 2 18 -4 20 -12 3 -9 1 -11
-4 -5 -4 6 -18 11 -31 12 -22 3 -22 2 -6 -25 l16 -27 -22 25 c-18 21 -21 22
-15 5 4 -11 8 -26 8 -33 0 -7 7 -11 16 -7 13 4 13 2 -1 -8 -15 -12 -15 -17 -5
-32 13 -16 14 -16 30 0 21 21 37 11 37 -23 0 -21 -2 -24 -10 -12 -6 10 -10 11
-10 3 0 -7 -5 -13 -11 -13 -5 0 -8 4 -5 9 4 5 -2 8 -11 7 -10 -2 -16 -7 -13
-12 3 -5 8 -8 13 -6 4 1 7 -2 7 -8 0 -5 -5 -10 -11 -10 -5 0 -7 -5 -3 -11 4
-7 9 -8 13 -1 3 6 13 12 21 14 8 2 20 8 27 15 8 7 27 9 48 6 19 -3 35 -1 35 4
0 5 -18 9 -39 8 -32 -1 -38 2 -36 17 2 10 -6 25 -18 34 -14 9 -16 15 -7 13 28
-3 41 1 35 11 -4 6 1 7 11 3 14 -5 14 -7 -5 -18 -12 -6 -19 -14 -15 -17 3 -4
17 0 30 9 20 13 27 13 40 2 15 -12 16 -11 10 11 -6 19 -5 21 3 10 10 -13 11
-13 11 0 0 13 2 13 9 1 5 -8 6 -21 3 -30 -5 -14 -4 -14 12 -2 15 12 19 12 32
-1 13 -13 13 -15 0 -15 -8 0 -12 5 -9 10 3 5 0 8 -8 5 -19 -6 -18 -31 1 -40
12 -5 12 -7 -3 -7 -10 -1 -16 -5 -12 -11 3 -5 12 -7 20 -3 19 7 19 -8 -1 -33
-15 -18 -15 -18 -4 3 9 19 8 22 -5 17 -8 -3 -12 -11 -9 -16 4 -6 1 -8 -7 -6
-8 3 -13 11 -11 17 1 7 -2 10 -8 6 -8 -5 -7 -11 1 -21 13 -16 2 -18 -20 -5 -7
5 -10 15 -7 22 4 8 0 5 -8 -5 -13 -16 -16 -17 -16 -4 0 9 -6 18 -13 21 -18 7
-50 -19 -42 -35 3 -7 0 -5 -8 5 -18 21 -28 3 -17 -28 8 -20 -5 -45 -22 -45 -6
0 -4 8 3 17 10 12 11 15 1 9 -7 -4 -20 -2 -30 6 -15 12 -16 11 -4 -4 8 -9 11
-21 8 -26 -6 -11 21 -9 46 2 13 6 16 15 12 35 l-7 26 23 -23 c12 -13 25 -21
28 -18 3 4 -3 13 -14 21 -16 13 -16 14 -1 9 9 -3 17 -1 17 5 0 6 5 11 10 11 6
0 8 -11 6 -25 -6 -34 -14 -45 -29 -40 -16 6 -53 -22 -43 -32 4 -4 12 0 17 10
13 22 30 22 23 0 -5 -15 -4 -16 5 -3 9 13 11 13 11 0 0 -13 2 -13 9 0 6 8 8
17 5 21 -2 4 5 7 16 6 24 -2 26 -12 5 -21 -8 -3 -15 -11 -15 -17 0 -7 11 0 25
16 20 21 23 30 14 41 -6 8 -8 14 -4 14 5 0 5 3 2 7 -4 3 -13 -2 -20 -12 -12
-15 -14 -16 -14 -1 0 9 5 17 11 17 41 6 82 3 87 -4 4 -5 10 -4 13 2 4 6 2 11
-4 11 -7 0 -7 7 2 23 7 12 12 27 13 32 0 6 14 9 32 8 27 -3 31 0 29 20 -2 14
2 24 10 24 9 0 10 -6 5 -16 -5 -9 -7 -24 -6 -33 2 -10 -2 -15 -10 -12 -22 9
-57 -27 -43 -43 6 -8 7 -13 2 -12 -21 4 -28 -2 -14 -11 12 -7 12 -12 2 -22
-16 -16 -16 -31 1 -21 18 11 38 13 31 2 -3 -5 -9 -7 -14 -4 -5 3 -11 1 -15 -4
-3 -5 2 -14 11 -19 14 -8 14 -13 5 -28 -10 -15 -11 -15 -7 -2 4 13 1 15 -11
11 -12 -5 -15 -2 -10 10 3 9 2 19 -4 23 -6 3 -8 12 -5 20 3 7 0 16 -6 20 -7 5
-8 2 -3 -7 8 -12 6 -12 -8 0 -9 7 -17 10 -17 6 0 -4 -7 -2 -15 5 -9 7 -18 10
-22 7 -3 -4 1 -9 10 -13 9 -3 13 -12 10 -20 -3 -8 0 -14 7 -14 6 0 8 5 5 10
-3 6 1 10 9 10 21 0 20 -13 -3 -34 -15 -13 -20 -14 -24 -4 -2 7 -8 9 -13 5 -5
-4 -2 -12 6 -17 10 -6 21 -3 36 11 14 13 24 17 29 10 3 -6 1 -11 -5 -11 -7 0
-8 -5 -3 -12 4 -7 8 -16 8 -20 0 -5 5 -8 10 -9 6 0 16 -5 23 -11 6 -6 12 -7
12 -4 0 4 9 2 20 -4 16 -9 22 -8 27 6 5 15 7 15 15 0 8 -13 13 -14 31 -4 21
12 63 20 53 10 -3 -2 5 -13 17 -24 12 -11 16 -17 10 -13 -7 3 -13 3 -13 0 0
-10 27 -35 32 -30 10 10 88 12 88 3 0 -6 6 -5 15 2 11 9 15 10 15 0 0 -6 12
-11 28 -10 15 1 30 1 35 0 4 -1 11 -3 16 -4 5 0 13 -4 17 -8 4 -4 13 -3 21 3
8 8 13 8 13 1 0 -11 25 -10 36 1 11 11 26 8 19 -3 -3 -5 0 -10 8 -10 16 0 31
-27 28 -50 -2 -13 -1 -13 8 0 7 9 6 19 -1 27 -8 10 -7 12 6 7 9 -3 16 -15 16
-27 0 -11 3 -17 7 -14 3 4 18 -3 32 -15 14 -13 20 -16 14 -8 -19 21 -16 29 10
25 12 -3 31 -15 42 -28 12 -13 27 -21 34 -19 8 3 11 0 7 -7 -5 -7 1 -11 16
-11 44 0 66 -4 62 -11 -2 -4 2 -10 8 -13 7 -4 4 -5 -8 -2 -13 2 -21 -2 -21
-10 0 -8 7 -14 16 -15 9 0 11 -3 4 -5 -6 -3 -9 -18 -6 -35 2 -16 0 -29 -4 -29
-5 0 -8 -16 -7 -35 1 -19 -2 -35 -7 -35 -5 0 -9 -6 -9 -14 0 -8 -7 -17 -16
-20 -8 -3 -13 -10 -9 -15 3 -5 -3 -12 -13 -16 -11 -3 -24 -15 -31 -28 -9 -18
-10 -18 -6 -2 5 14 -2 11 -23 -12 -16 -18 -32 -33 -36 -33 -4 0 -15 -7 -23
-16 -13 -12 -18 -13 -24 -3 -6 10 -9 9 -15 -4 -3 -9 -12 -17 -19 -17 -7 0 -16
-7 -19 -16 -3 -8 -10 -12 -16 -9 -5 3 -10 1 -10 -6 0 -6 -8 -9 -20 -6 -11 3
-18 1 -15 -3 3 -5 -15 -8 -40 -6 -25 2 -45 0 -45 -3 0 -4 -6 -8 -12 -8 -7 0
-33 -10 -57 -21 -25 -12 -50 -22 -56 -22 -11 0 -96 -88 -155 -160 -19 -23 -41
-49 -48 -56 -7 -8 -10 -14 -5 -14 4 -1 -3 -10 -16 -20 -13 -11 -20 -20 -17
-20 3 0 -2 -8 -11 -18 -10 -11 -21 -17 -25 -15 -5 2 -8 -2 -8 -10 0 -11 -7
-13 -22 -9 -12 3 -19 1 -15 -5 3 -5 -10 -15 -29 -22 -18 -7 -34 -17 -34 -22 0
-6 -4 -8 -9 -5 -8 5 -62 -44 -133 -122 -27 -30 -43 -40 -62 -38 -16 2 -26 -2
-26 -10 0 -7 -6 -11 -14 -8 -9 3 -13 15 -10 30 3 16 -1 27 -11 30 -12 5 -13
10 -4 20 6 7 8 17 5 22 -8 14 -18 79 -21 142 -2 30 -4 55 -5 55 -1 0 -3 9 -4
20 -10 74 -18 119 -20 124 -2 3 -7 49 -11 101 -4 52 -9 120 -11 150 -15 182
-19 324 -9 340 3 5 2 10 -4 10 -5 0 -8 15 -6 33 3 17 6 49 9 70 14 112 30 176
43 165 9 -7 13 -7 13 1 0 6 7 11 16 11 10 0 14 6 11 15 -4 8 -2 17 3 20 5 3 6
13 3 22 -4 10 -2 14 5 9 6 -3 13 -2 17 4 3 5 2 10 -4 10 -5 0 -9 9 -8 20 1 21
12 26 22 10 3 -5 1 -10 -6 -10 -7 0 -9 -3 -6 -6 4 -4 13 -2 20 4 8 7 17 9 20
6 4 -4 5 3 2 14 -2 11 3 26 10 32 11 9 13 6 11 -17 -2 -15 0 -32 4 -38 12 -18
20 -46 11 -40 -5 3 -13 0 -16 -6 -5 -7 -1 -10 10 -7 19 3 29 45 13 54 -5 3 -6
15 -2 26 4 14 2 18 -5 14 -7 -4 -9 -1 -5 7 3 8 0 18 -6 22 -8 5 -8 10 0 20 8
9 7 14 -4 18 -11 4 -13 1 -10 -11 5 -13 4 -14 -4 -4 -7 11 -10 11 -15 -3 -4
-9 -3 -13 2 -10 16 9 20 -9 6 -22 -11 -10 -14 -9 -17 5 -5 20 11 62 24 62 5 0
8 8 6 18 -2 9 3 16 10 15 6 -2 12 3 12 11 0 8 -6 17 -12 19 -10 4 -10 6 -1 6
7 1 17 -8 23 -19z m-2621 -536 c1 5 8 3 16 -4 10 -9 15 -9 15 -1 0 6 5 11 10
11 6 0 9 -6 8 -12 -2 -8 5 -12 16 -10 35 6 52 -7 30 -23 -10 -8 -16 -15 -11
-16 45 -10 56 -20 47 -44 -5 -13 -6 -26 -2 -31 4 -4 1 -4 -5 0 -12 7 -18 -6
-14 -28 1 -5 -4 -13 -11 -18 -10 -6 -10 -10 2 -18 21 -13 33 -12 27 3 -2 6 6
22 19 33 12 12 20 24 18 27 -3 3 3 10 14 16 17 9 19 8 15 -9 -3 -11 -14 -22
-24 -25 -11 -4 -17 -11 -14 -16 4 -5 1 -9 -4 -9 -6 0 -11 -6 -11 -14 0 -22
-16 -28 -43 -15 -17 8 -24 18 -22 30 2 10 0 21 -5 24 -5 3 -6 13 -3 23 5 12
-1 10 -22 -8 -16 -14 -25 -19 -21 -12 7 11 -5 17 -27 13 -5 -1 -6 3 -2 9 3 5
1 10 -6 10 -7 0 -9 3 -6 6 4 4 13 1 22 -6 23 -19 28 -6 6 14 -18 16 -20 16
-36 -1 -17 -16 -17 -16 -10 7 7 22 6 23 -8 12 -9 -8 -22 -10 -28 -6 -8 5 -10
2 -7 -8 4 -8 1 -15 -7 -15 -10 0 -10 6 1 31 7 17 18 30 24 29 5 -2 10 6 10 17
0 11 -4 20 -10 20 -5 0 -10 5 -10 12 0 9 3 9 12 0 17 -17 26 -15 34 11 7 21 7
21 15 2 4 -11 8 -16 8 -11z m2936 -864 c4 -6 1 -9 -5 -8 -7 2 -16 -7 -21 -19
-7 -19 -5 -23 11 -23 11 0 20 5 20 11 0 5 -5 7 -12 3 -7 -5 -8 -3 -3 5 5 9 11
9 17 3 6 -6 7 -16 2 -23 -4 -8 -9 -22 -9 -31 -2 -21 -13 -34 -21 -25 -4 4 -1
13 6 22 7 8 10 15 7 15 -3 0 -14 3 -24 6 -15 5 -16 4 -3 -6 12 -9 12 -13 2
-17 -10 -4 -10 -8 -2 -18 16 -20 -12 -58 -52 -73 -40 -14 -90 -10 -96 8 -3 8
0 10 8 5 9 -6 12 -4 8 6 -7 18 12 37 34 33 10 -1 15 3 12 10 -3 7 2 19 10 26
9 7 14 16 11 20 -3 4 3 14 12 21 14 12 16 12 8 0 -5 -10 -4 -12 3 -7 7 4 12
14 12 23 0 29 51 55 65 33z m615 -3045 c7 -8 16 -12 21 -9 5 3 9 1 9 -4 0 -6
8 -9 18 -8 9 0 16 -5 15 -11 -3 -14 13 -18 20 -5 2 4 2 1 0 -6 -1 -8 3 -12 9
-9 7 2 12 13 10 23 -2 18 -2 18 8 1 6 -9 15 -15 21 -12 5 4 9 1 9 -5 0 -7 -7
-10 -17 -6 -16 5 -15 4 1 -9 10 -8 23 -12 27 -9 5 3 9 1 9 -4 0 -5 -11 -14
-25 -20 -30 -14 -38 -15 -31 -4 11 19 -13 37 -33 25 -15 -10 -22 -8 -40 9 -24
21 -41 18 -23 -5 9 -10 8 -14 -3 -14 -7 0 -14 3 -13 6 3 27 -3 36 -13 21 -9
-13 -10 -12 -5 3 3 9 1 17 -4 17 -6 0 -10 -5 -10 -12 0 -6 -7 -3 -16 8 -14 17
-15 17 -10 1 3 -11 2 -16 -4 -12 -23 14 4 53 33 47 4 -1 7 3 7 8 0 15 16 12
30 -5z"/>
<path d="M1741 6764 c-12 -8 -19 -18 -17 -22 2 -4 -2 -13 -10 -20 -10 -10 -14
-10 -14 -1 0 7 -3 10 -6 6 -12 -12 7 -28 21 -17 9 8 15 8 20 0 3 -6 10 -8 14
-6 13 8 52 -34 45 -47 -4 -7 1 -5 12 4 23 20 51 14 34 -6 -8 -9 -8 -15 0 -20
6 -3 7 -11 4 -17 -4 -6 -2 -8 4 -4 6 3 9 15 7 25 -2 11 3 22 11 25 15 6 13 51
-2 51 -24 1 -35 17 -22 32 10 12 9 15 -7 13 -11 -1 -23 -1 -27 0 -5 1 -11 3
-15 4 -5 1 -13 4 -19 8 -6 4 -21 0 -33 -8z"/>
<path d="M7685 7180 c-11 -4 -26 -5 -32 -3 -7 3 -13 0 -13 -7 0 -9 -4 -9 -17
1 -11 10 -14 10 -9 2 7 -13 -3 -16 -46 -16 -10 0 -18 -4 -18 -10 0 -6 -3 -8
-6 -5 -3 4 -22 0 -41 -8 -43 -18 -91 -25 -98 -15 -6 12 -79 5 -83 -7 -2 -6
-10 -8 -19 -5 -12 5 -14 3 -8 -7 6 -9 4 -11 -4 -5 -8 4 -18 -1 -27 -14 -8 -12
-21 -21 -27 -21 -7 0 -6 4 3 10 9 6 10 10 3 10 -6 0 -15 -5 -18 -10 -4 -6 -11
-7 -17 -4 -6 4 -8 3 -5 -3 7 -11 -28 -44 -38 -35 -3 3 -8 -4 -12 -16 -3 -12
-9 -19 -14 -16 -5 3 -9 1 -9 -3 0 -5 -9 -14 -21 -21 -17 -11 -20 -11 -14 0 3
7 1 6 -7 -3 -13 -16 -17 -18 -50 -27 -11 -2 -15 -12 -13 -25 4 -21 4 -22 -10
-3 -8 11 -15 15 -15 9 0 -7 -9 -15 -20 -18 -11 -4 -17 -11 -14 -17 5 -8 1 -9
-10 -5 -12 5 -16 3 -14 -5 3 -7 -1 -19 -9 -26 -7 -8 -11 -18 -8 -23 4 -5 1 -9
-6 -9 -6 0 -18 -8 -26 -17 -8 -10 -11 -12 -8 -4 6 9 1 9 -17 -3 -14 -9 -28
-14 -31 -11 -4 3 -5 2 -2 -1 6 -9 -136 -107 -143 -99 -3 3 1 5 8 5 7 0 11 3 8
6 -4 3 -17 -1 -30 -9 -12 -8 -31 -13 -41 -12 -9 2 -15 0 -12 -5 3 -4 -2 -10
-10 -14 -8 -3 -15 0 -15 7 0 8 -3 7 -9 -2 -10 -15 -29 -22 -67 -24 -13 -1 -20
-6 -17 -14 6 -14 24 -13 35 2 5 6 8 5 8 -4 0 -11 3 -11 17 0 9 8 14 9 10 2 -4
-6 -2 -13 4 -15 6 -2 2 -14 -10 -27 -12 -13 -21 -20 -21 -15 0 6 6 16 13 23
10 10 9 11 -5 6 -10 -4 -18 -12 -19 -19 0 -6 -4 -2 -9 9 -6 14 -9 15 -10 5 0
-10 -6 -6 -16 10 -12 21 -14 22 -12 5 2 -15 -3 -20 -22 -21 -14 -1 -27 -3 -30
-4 -8 -4 -50 -8 -50 -4 0 10 60 30 72 23 10 -5 14 -2 14 11 0 10 -5 16 -11 12
-5 -4 -18 -8 -27 -9 -36 -6 -53 -10 -71 -18 -10 -4 -24 -2 -34 6 -14 12 -16
12 -8 0 6 -11 4 -13 -8 -8 -10 3 -17 3 -17 -2 0 -5 -10 -8 -22 -8 -42 -1 -48
-3 -45 -15 1 -8 -6 -12 -17 -10 -11 2 -15 -1 -11 -8 4 -7 -2 -14 -14 -17 -11
-3 -18 -9 -15 -14 3 -5 -1 -9 -8 -10 -45 -3 -62 -7 -66 -18 -2 -6 -9 -8 -15
-5 -8 5 -8 2 1 -7 6 -7 12 -18 12 -23 0 -6 -5 -4 -10 4 -9 13 -10 13 -10 0 0
-13 -1 -13 -10 0 -8 12 -10 11 -10 -7 0 -12 8 -27 18 -33 15 -10 15 -10 -3 -6
-16 5 -20 1 -21 -19 -1 -14 2 -25 8 -25 5 0 6 -4 3 -10 -8 -13 25 -81 36 -74
5 3 9 0 9 -5 0 -6 3 -10 8 -10 27 5 52 -3 52 -16 0 -8 3 -14 8 -13 4 1 24 -6
46 -15 21 -9 47 -17 56 -17 10 0 20 -5 22 -11 2 -7 31 -12 76 -12 43 -1 72 -5
72 -11 0 -6 5 -4 10 4 9 13 10 13 10 0 0 -11 9 -15 28 -14 15 0 30 -4 34 -10
5 -8 8 -7 8 1 0 9 7 10 26 3 14 -6 23 -6 20 -2 -3 5 1 9 9 9 8 0 11 -5 8 -10
-4 -6 0 -8 9 -4 9 3 21 0 28 -6 10 -9 12 -8 7 5 -7 19 -9 19 53 -12 14 -7 27
-7 40 0 14 8 20 8 20 0 0 -7 7 -7 21 1 17 9 20 8 14 -1 -6 -10 -1 -12 18 -8
17 3 33 -1 46 -13 10 -10 21 -15 25 -12 3 3 13 0 23 -8 11 -9 14 -10 9 -1 -8
13 15 17 28 5 4 -5 11 -8 14 -9 4 0 15 -4 24 -8 29 -13 53 -14 67 -2 12 9 13
8 6 -4 -7 -12 -6 -13 6 -3 15 12 35 13 54 2 12 -7 57 36 48 45 -4 3 -1 6 6 6
7 0 9 5 6 10 -3 6 1 10 9 10 23 0 31 -4 29 -12 -4 -12 12 -9 25 4 8 8 15 8 26
-1 12 -10 16 -8 21 8 3 11 15 20 28 20 48 1 57 3 56 9 -1 4 0 10 1 15 4 12 7
26 9 37 0 6 5 10 11 10 5 0 7 -7 4 -15 -4 -8 -2 -15 4 -15 6 0 9 8 7 18 -2 9
-4 17 -6 17 -1 0 -2 12 -3 27 -1 15 2 24 6 22 14 -9 8 20 -8 41 -13 17 -16 18
-24 5 -8 -12 -10 -12 -10 5 -1 18 -2 18 -11 -3 -5 -13 -13 -20 -19 -17 -9 6
-14 -8 -11 -27 0 -5 -4 -8 -10 -8 -5 0 -7 -4 -4 -10 3 -5 1 -10 -5 -10 -7 0
-10 7 -6 15 3 8 1 15 -5 15 -6 0 -7 5 -3 12 4 6 3 8 -4 5 -5 -4 -8 -17 -4 -30
5 -20 4 -21 -13 -7 -17 14 -18 14 -7 -7 11 -21 11 -21 -10 -10 -49 26 -50 28
-36 45 10 12 10 14 1 8 -7 -4 -13 -3 -13 1 0 9 48 47 61 49 5 1 13 2 18 3 5 0
23 12 39 26 22 18 32 22 35 13 4 -10 6 -10 6 0 1 7 6 10 11 7 6 -3 15 6 20 20
5 14 14 23 20 20 15 -9 12 -17 -2 -9 -7 4 -10 3 -5 -1 4 -5 18 -10 30 -12 19
-2 20 -2 5 8 -10 5 -18 15 -18 21 0 5 8 7 18 4 16 -7 16 -6 0 10 -13 13 -14
21 -5 35 10 16 12 16 23 1 10 -13 16 -14 37 -5 20 9 27 9 31 0 3 -9 5 -9 5 0
1 9 8 10 25 3 13 -5 27 -6 30 -3 3 4 6 -2 6 -12 0 -12 3 -15 13 -8 6 6 22 9
35 8 12 -1 22 2 22 7 0 5 5 6 10 3 6 -3 10 -2 10 3 0 6 8 8 19 5 10 -3 22 0
26 7 5 8 11 8 21 -1 8 -6 18 -9 21 -5 4 4 1 11 -6 15 -7 5 -10 14 -7 20 4 6
12 8 18 5 7 -4 8 -2 4 4 -4 6 -14 9 -24 6 -12 -4 -11 -2 3 6 11 7 30 24 43 39
13 14 22 22 20 16 -11 -40 53 -102 86 -83 10 6 16 5 16 -2 0 -5 7 -10 16 -10
8 0 13 -4 10 -8 -3 -5 1 -9 9 -9 8 0 12 5 8 10 -3 5 3 7 13 5 11 -2 18 -9 17
-14 -1 -6 4 -11 12 -11 8 0 12 4 9 8 -2 4 0 10 6 14 5 3 10 2 10 -4 0 -5 9
-13 21 -16 11 -4 18 -13 15 -20 -6 -16 37 -13 57 4 8 6 17 9 20 6 4 -3 5 -2 3
1 -10 13 19 32 32 22 9 -8 11 -7 6 6 -5 12 -2 15 10 10 9 -3 16 -11 16 -18 0
-6 5 -4 10 4 8 13 10 13 10 -1 0 -17 26 -33 33 -21 2 4 3 2 1 -4 -3 -16 35
-46 48 -38 7 5 8 2 3 -6 -6 -10 -4 -12 8 -7 10 3 17 2 17 -4 0 -6 5 -7 12 -3
7 4 8 3 4 -4 -4 -7 -3 -12 3 -12 5 0 17 -20 27 -45 9 -25 21 -45 25 -45 5 0 9
-10 10 -22 0 -13 3 -18 5 -11 3 7 12 9 20 6 7 -3 12 -9 9 -13 -6 -10 31 -24
44 -16 5 3 8 -2 7 -12 0 -9 9 -21 22 -27 12 -5 22 -17 22 -26 0 -9 7 -20 16
-23 8 -3 12 -10 9 -16 -3 -5 -1 -10 4 -10 6 0 11 -7 11 -15 0 -8 5 -15 10 -15
6 0 10 -7 10 -15 0 -22 39 -95 50 -95 6 0 9 -3 9 -7 -3 -20 2 -26 11 -13 8 12
10 11 10 -7 0 -13 5 -23 10 -23 6 0 10 -9 10 -20 0 -11 5 -20 11 -20 5 0 7 -5
4 -10 -3 -6 1 -13 10 -16 12 -5 13 -9 4 -20 -9 -11 -8 -14 4 -14 10 0 15 -7
12 -20 -2 -11 -1 -19 3 -19 17 3 32 -2 31 -8 -1 -5 0 -11 1 -15 4 -13 7 -27 9
-39 0 -5 5 -8 10 -4 6 3 8 -4 6 -15 -2 -11 0 -18 6 -15 5 4 9 -1 9 -10 0 -9 5
-13 10 -10 6 4 10 3 9 -2 -4 -23 3 -41 17 -47 8 -3 13 -2 10 3 -4 5 4 7 16 3
16 -4 19 -2 13 8 -5 8 -4 11 3 6 23 -14 -2 -42 -32 -37 -5 1 -5 -4 1 -11 6 -7
14 -38 17 -68 4 -30 9 -70 13 -89 4 -23 2 -32 -5 -27 -6 4 -5 -6 3 -21 11 -21
12 -29 2 -35 -8 -5 -5 -8 8 -9 11 0 14 -3 7 -6 -9 -3 -7 -10 9 -24 12 -10 18
-19 13 -19 -6 0 -15 5 -21 11 -9 9 -11 8 -9 -4 1 -9 5 -19 8 -23 4 -3 4 -18 2
-32 -3 -19 -2 -23 5 -13 5 8 8 23 6 33 -2 10 1 18 7 18 5 0 8 -6 5 -14 -3 -7
0 -19 6 -26 8 -9 8 -11 1 -7 -10 6 -12 -110 -5 -186 1 -5 7 -5 14 -1 7 5 6 0
-3 -11 -14 -17 -13 -18 4 -12 14 6 17 4 9 -5 -11 -15 -11 -58 0 -75 5 -8 3
-13 -5 -13 -10 0 -10 -2 1 -9 8 -5 12 -18 8 -30 -3 -12 -1 -23 4 -26 4 -3 6
-12 2 -20 -4 -11 -1 -13 13 -8 16 6 17 5 4 -9 -8 -9 -18 -14 -21 -12 -9 5 -7
-30 3 -43 6 -7 4 -14 -3 -19 -8 -4 -9 -3 -5 4 4 7 3 12 -2 12 -6 0 -8 -18 -6
-40 2 -25 -1 -40 -7 -40 -7 0 -6 -6 2 -17 8 -9 9 -14 4 -11 -13 8 -13 -47 -1
-59 5 -5 6 -2 1 6 -6 10 -4 12 5 6 10 -6 10 -10 -3 -20 -9 -6 -12 -16 -8 -24
9 -14 -27 -121 -40 -121 -5 0 -5 -7 -2 -17 5 -12 3 -14 -7 -8 -10 6 -12 4 -7
-8 3 -9 0 -18 -9 -21 -9 -3 -13 -10 -9 -15 3 -5 1 -12 -5 -16 -6 -4 -8 -11 -5
-16 4 -5 2 -9 -3 -9 -5 0 -9 -7 -10 -15 -1 -8 -3 -22 -4 -30 -1 -8 -5 -15 -10
-15 -5 0 -7 -4 -3 -9 3 -5 1 -12 -5 -16 -6 -4 -8 -11 -5 -16 4 -5 1 -9 -4 -9
-6 0 -11 -9 -11 -19 0 -11 -5 -23 -10 -26 -6 -4 -8 -10 -5 -15 3 -5 -3 -15
-13 -21 -13 -8 -17 -19 -14 -32 3 -14 1 -18 -6 -13 -11 6 -15 -5 -11 -30 0 -4
-5 -10 -12 -15 -7 -4 -14 -17 -16 -30 -2 -12 -8 -28 -14 -35 -7 -8 -7 -14 1
-19 8 -5 8 -11 1 -19 -7 -9 -7 -16 2 -25 9 -10 9 -11 -4 -6 -12 5 -16 0 -15
-22 1 -15 -7 -38 -18 -51 -14 -16 -17 -25 -9 -33 6 -6 8 -23 3 -43 -4 -17 -6
-46 -6 -64 1 -18 -2 -32 -6 -32 -5 0 -8 -5 -8 -11 0 -5 6 -7 13 -3 8 5 8 2 -2
-9 -7 -9 -10 -17 -5 -17 5 0 2 -5 -6 -10 -8 -5 -10 -10 -4 -10 6 0 11 -7 11
-15 0 -8 -5 -15 -11 -15 -6 0 -4 -5 4 -10 13 -8 12 -10 -3 -10 -10 0 -15 -5
-12 -10 3 -6 -4 -24 -16 -42 -13 -17 -18 -28 -11 -24 20 12 13 -10 -9 -30 -12
-10 -28 -36 -36 -56 -8 -21 -19 -38 -24 -38 -5 0 -8 -3 -8 -7 3 -14 -13 -73
-20 -73 -3 0 -6 -11 -6 -25 0 -14 4 -25 9 -25 5 0 4 -6 -2 -12 -6 -7 -11 -16
-11 -20 -1 -5 -2 -9 -2 -10 -1 -2 -3 -29 -4 -62 -2 -32 -7 -61 -12 -65 -6 -3
-9 -16 -8 -28 1 -13 -2 -23 -7 -23 -5 0 -6 -4 -3 -10 3 -5 1 -10 -4 -10 -6 0
-11 -14 -11 -31 0 -21 -4 -28 -12 -23 -7 4 -10 4 -6 -1 4 -4 3 -16 -2 -26 -7
-12 -7 -20 0 -24 6 -4 8 -11 4 -16 -3 -5 -10 -7 -15 -3 -6 3 -10 0 -8 -7 4
-36 -1 -54 -12 -39 -9 12 -10 11 -6 -7 3 -13 1 -23 -5 -23 -5 0 -6 -4 -3 -10
3 -6 1 -10 -5 -10 -7 0 -10 -7 -7 -15 4 -8 1 -17 -5 -21 -7 -5 -8 -2 -3 6 5 9
4 11 -4 6 -6 -4 -9 -18 -7 -31 3 -18 1 -22 -10 -18 -9 3 -12 0 -9 -9 3 -8 -3
-23 -15 -33 -11 -10 -20 -24 -20 -32 0 -8 -4 -12 -9 -9 -5 4 -7 -4 -3 -16 4
-16 2 -19 -8 -13 -10 6 -12 3 -8 -13 4 -12 3 -20 -1 -18 -4 3 -13 1 -21 -5
-13 -7 -13 -9 0 -9 9 -1 5 -5 -8 -10 -20 -9 -21 -12 -11 -32 11 -20 10 -21 -3
-10 -13 10 -17 10 -22 -4 -4 -10 -1 -21 6 -26 9 -6 5 -7 -9 -3 -17 5 -23 2
-23 -9 0 -8 -4 -18 -10 -21 -6 -4 -7 1 -3 11 5 13 1 12 -15 -4 -27 -27 -28
-33 -4 -25 22 8 13 -1 -17 -17 -19 -10 -22 -10 -16 2 5 7 -3 3 -16 -9 -83 -77
-109 -103 -102 -103 4 -1 -3 -10 -17 -22 -16 -14 -19 -19 -7 -15 25 9 21 0
-15 -35 -18 -17 -27 -27 -19 -23 9 5 12 4 7 -3 -4 -7 -14 -12 -23 -12 -9 0
-14 -3 -11 -6 4 -3 -3 -15 -14 -26 -15 -15 -17 -22 -8 -28 15 -9 5 -80 -12
-80 -5 0 -7 -7 -4 -16 3 -8 2 -12 -4 -9 -5 3 -12 -6 -16 -20 -3 -14 -10 -25
-15 -25 -5 0 -6 -7 -3 -15 3 -8 -1 -22 -10 -31 -9 -8 -14 -20 -11 -25 4 -5 1
-9 -5 -9 -6 0 -8 -4 -5 -10 3 -5 -1 -10 -10 -10 -8 0 -19 -8 -22 -17 -4 -10
-15 -30 -26 -45 -11 -14 -16 -31 -13 -37 4 -6 0 -14 -8 -17 -9 -3 -13 -10 -10
-15 3 -5 -1 -12 -10 -15 -8 -3 -13 -14 -11 -26 3 -15 1 -17 -8 -9 -10 7 -13 5
-14 -11 -1 -11 -10 -26 -20 -34 -14 -11 -14 -13 -2 -9 9 3 22 -2 30 -12 13
-16 12 -17 -3 -4 -12 9 -18 10 -18 2 0 -9 14 -15 23 -9 1 1 13 -4 26 -11 14
-8 21 -9 17 -2 -10 15 7 14 22 -1 9 -9 12 -9 12 0 0 7 12 17 26 22 16 7 23 14
18 22 -6 9 -3 9 9 0 18 -15 41 -7 31 11 -5 8 -3 8 7 -1 7 -6 18 -12 23 -12 7
0 6 3 -1 8 -18 11 -20 36 -3 37 8 0 15 6 15 14 0 8 7 16 15 18 13 4 13 3 0 -7
-13 -10 -13 -11 0 -7 8 2 15 9 15 15 0 6 10 19 23 27 12 9 22 22 21 28 0 9 -2
8 -6 -1 -2 -7 -14 -17 -25 -23 -13 -7 -18 -7 -14 -1 3 6 3 12 -1 15 -5 2 -2 2
5 0 8 -2 16 6 19 17 3 11 13 20 22 20 14 0 14 2 1 10 -11 7 -11 10 -2 10 8 0
10 5 6 13 -6 10 -4 10 7 0 7 -7 18 -13 23 -13 6 0 4 5 -4 10 -11 7 -12 12 -3
21 13 13 6 42 -8 33 -5 -3 -9 -10 -9 -15 0 -6 5 -7 12 -3 7 5 8 3 3 -5 -5 -9
-10 -10 -18 -2 -7 7 -7 14 1 24 7 8 9 17 5 21 -4 4 1 4 12 0 17 -7 18 -6 7 8
-9 11 -10 18 -2 23 6 3 8 11 5 16 -3 5 1 6 9 3 15 -6 21 6 17 29 -1 5 3 6 9 2
5 -3 10 -1 10 4 0 6 5 11 12 11 6 0 4 -7 -5 -18 -14 -15 -15 -19 -2 -19 8 0
12 4 9 8 -2 4 0 11 6 14 8 5 7 11 -1 21 -10 12 -10 14 1 12 7 -2 15 3 18 11 3
9 0 11 -8 6 -9 -5 -11 -4 -6 3 5 9 13 9 29 0 12 -7 25 -11 30 -10 15 4 6 -8
-14 -19 -17 -9 -20 -8 -14 2 5 7 4 10 -3 6 -5 -4 -8 -17 -4 -29 3 -14 1 -19
-6 -14 -8 4 -10 2 -6 -8 3 -8 2 -21 -3 -28 -11 -17 -12 -98 -1 -98 4 0 8 4 8
9 0 5 11 8 25 6 14 -1 23 0 20 3 -9 9 46 53 57 46 7 -5 9 -1 5 9 -3 9 0 18 8
21 17 6 30 -10 15 -19 -5 -3 -10 -12 -10 -18 0 -7 4 -6 10 3 9 13 13 11 31
-10 11 -14 18 -19 14 -12 -7 14 46 72 66 72 6 0 7 5 4 10 -4 7 5 9 24 5 19 -3
31 -1 31 5 0 6 5 8 10 5 6 -3 10 -1 10 6 0 6 8 9 20 6 10 -3 18 -2 17 2 -1 3
2 7 6 8 5 1 18 12 29 25 11 13 24 22 29 21 4 -2 6 3 3 11 -3 7 7 23 22 35 28
22 33 32 38 86 7 65 37 141 51 127 4 -4 5 3 2 16 -3 12 -1 20 4 16 5 -3 9 0 9
6 0 6 4 9 9 6 5 -3 8 8 7 24 -1 18 5 38 16 50 10 11 16 20 13 20 -3 0 -1 9 5
20 6 11 16 18 21 14 7 -4 7 1 0 15 -11 19 -8 25 11 22 4 0 5 6 2 14 -4 8 -1
15 5 15 6 0 11 7 11 15 0 8 4 15 10 15 5 0 9 3 9 8 -4 21 2 32 14 26 8 -5 8
-2 -2 9 -8 10 -9 17 -3 17 6 0 17 14 26 30 8 17 11 28 6 25 -4 -3 -3 6 3 19 7
13 16 22 21 19 5 -4 7 1 3 9 -3 9 1 25 9 37 8 12 12 26 9 31 -3 6 -1 10 4 10
6 0 11 7 11 15 0 8 5 15 11 15 5 0 8 4 5 9 -8 12 4 42 13 36 4 -2 7 6 6 18 -1
12 4 35 12 51 12 24 19 51 22 89 1 5 5 6 10 3 5 -3 12 1 15 10 4 10 2 13 -7 9
-6 -4 -4 0 6 8 18 15 24 33 8 22 -5 -3 -3 8 5 25 17 33 27 41 17 13 -6 -17 -6
-17 10 -1 18 18 23 33 8 23 -20 -12 -19 13 2 46 12 19 23 42 25 51 5 31 32 89
40 84 4 -2 8 9 9 25 1 16 8 36 15 44 7 7 24 32 37 54 14 22 29 37 34 34 6 -3
7 -1 3 6 -8 13 30 81 45 81 6 0 8 4 5 9 -3 5 4 20 15 35 11 14 17 26 12 26 -4
0 0 5 10 11 9 6 15 14 12 20 -4 5 1 9 9 9 10 0 13 6 9 17 -4 10 -2 14 4 10 6
-4 13 3 16 14 3 12 10 18 16 14 7 -4 8 0 4 11 -4 11 -3 15 5 10 6 -3 14 -1 18
5 4 8 3 9 -4 5 -20 -12 -14 22 7 43 11 11 16 23 13 27 -4 4 2 4 12 0 14 -5 16
-4 8 6 -7 9 -5 24 8 51 20 40 20 41 20 58 0 5 5 7 11 3 7 -4 10 -1 7 7 -3 8 1
26 9 42 7 15 11 27 9 27 -3 0 1 12 9 27 8 15 12 30 10 33 -3 4 4 15 15 25 10
9 16 23 13 31 -3 8 0 21 7 29 7 8 9 15 5 15 -4 0 -2 7 5 15 7 9 14 37 16 63 4
58 24 122 38 122 6 0 5 4 -3 9 -11 7 -10 12 7 26 11 10 18 24 15 31 -3 8 0 14
7 14 6 0 8 5 5 10 -3 6 -1 10 5 10 6 0 9 4 5 9 -3 6 3 14 12 20 10 6 14 11 9
11 -5 0 -2 7 5 16 14 18 17 28 24 94 12 122 15 143 23 154 7 9 8 131 2 131 -7
0 -5 67 2 71 4 3 5 10 2 16 -4 6 -8 45 -10 87 -2 42 -6 87 -9 101 -3 14 -7 45
-10 70 -2 25 -14 77 -26 115 -25 78 -26 80 -33 115 -3 14 -10 26 -16 28 -6 2
-8 8 -4 13 3 5 0 9 -7 9 -7 0 -9 3 -6 7 4 3 3 11 -2 17 -6 6 -11 23 -13 36 -2
14 -9 34 -15 45 -6 11 -11 24 -11 28 0 18 -91 205 -108 222 -19 19 -54 92 -47
99 4 3 1 6 -6 6 -8 0 -11 8 -8 20 3 11 2 20 -2 20 -6 0 -41 73 -41 85 0 2 -16
29 -35 59 -19 30 -35 58 -35 61 0 3 -8 13 -17 23 -31 33 -53 62 -53 71 0 4
-13 22 -30 39 -16 18 -30 36 -30 41 0 5 -10 13 -21 16 -17 6 -19 9 -8 16 11 7
11 9 -2 9 -9 0 -20 7 -23 16 -3 8 -11 12 -16 9 -6 -4 -9 -2 -8 3 3 10 -58 88
-101 129 -18 17 -27 20 -37 12 -10 -8 -18 -7 -30 5 -23 24 -90 56 -99 48 -3
-4 -5 0 -3 8 2 8 -2 14 -9 13 -6 -1 -16 4 -23 12 -6 7 -19 11 -27 8 -11 -4
-14 -2 -9 5 4 7 1 12 -8 12 -9 0 -16 5 -16 11 0 5 -4 8 -9 5 -5 -3 -14 1 -21
9 -7 8 -18 15 -26 15 -7 0 -25 11 -40 25 -15 14 -29 23 -32 21 -2 -3 -13 4
-25 14 -11 11 -24 17 -28 14 -4 -2 -12 4 -18 13 -8 14 -11 15 -11 3 0 -12 -3
-11 -11 3 -6 9 -14 15 -20 12 -5 -4 -9 -1 -9 4 0 6 -7 11 -15 11 -8 0 -15 5
-15 11 0 5 -4 7 -10 4 -5 -3 -10 -1 -10 5 0 6 -4 9 -9 6 -5 -3 -14 0 -20 8
-11 12 -37 23 -66 26 -5 1 -14 8 -18 16 -5 8 -12 12 -18 9 -5 -4 -9 -1 -9 4 0
6 -7 11 -15 11 -8 0 -15 5 -15 10 0 6 -7 10 -15 10 -8 0 -15 5 -15 11 0 5 -4
7 -10 4 -5 -3 -10 1 -10 10 0 9 -4 14 -9 10 -5 -3 -16 1 -24 9 -11 11 -17 12
-27 3 -10 -9 -11 -9 -6 1 4 7 1 12 -8 12 -9 0 -16 6 -16 13 0 7 -3 8 -8 2 -9
-13 -35 -19 -28 -6 7 11 -12 19 -41 16 -13 -1 -23 1 -23 4 0 9 -96 5 -110 -4
-7 -4 -16 -1 -21 6 -8 12 -11 12 -20 -1 -9 -12 -12 -13 -16 -1 -5 11 -7 11
-14 0 -7 -12 -9 -11 -9 1 0 13 -1 13 -10 0 -8 -12 -10 -12 -10 -1 0 11 -3 11
-16 0 -10 -8 -18 -9 -22 -2 -4 6 -16 7 -27 3z"/>
<path d="M3254 4631 c3 -4 -6 -6 -19 -3 -14 2 -33 -2 -42 -9 -9 -8 -14 -9 -10
-3 3 6 0 11 -9 11 -9 0 -12 -7 -8 -19 3 -10 0 -18 -6 -18 -6 0 -9 4 -6 8 15
24 -12 31 -40 10 -18 -14 -24 -16 -15 -5 13 16 10 19 -16 16 -5 0 -7 -6 -5
-13 1 -9 -6 -12 -23 -8 -15 2 -25 0 -25 -7 0 -7 -5 -9 -10 -6 -6 3 -13 -1 -16
-9 -3 -9 -11 -13 -17 -9 -6 4 -7 1 -2 -7 6 -9 2 -10 -16 -5 -21 7 -22 6 -10
-9 15 -17 2 -22 -17 -6 -6 6 -10 7 -8 4 7 -9 -17 -33 -26 -27 -5 2 -8 -1 -8
-6 0 -6 -7 -11 -15 -11 -8 0 -15 -7 -15 -16 0 -8 -4 -13 -9 -9 -5 3 -48 -33
-95 -80 -47 -47 -84 -85 -81 -85 2 0 -9 -19 -25 -42 -16 -24 -25 -44 -20 -46
5 -2 3 -14 -5 -26 -8 -12 -16 -45 -17 -74 -2 -36 -7 -51 -15 -48 -9 4 -10 -1
-3 -18 5 -13 7 -26 4 -29 -2 -2 -5 -22 -6 -43 -1 -21 -10 -52 -20 -69 -31 -52
-61 -119 -60 -138 0 -10 -8 -34 -19 -53 -10 -19 -19 -41 -19 -50 0 -8 -4 -13
-9 -10 -5 3 -12 -5 -15 -19 -4 -14 -11 -25 -16 -25 -6 0 -10 -7 -10 -15 0 -8
-4 -15 -8 -15 -12 0 -33 -50 -27 -61 4 -5 1 -9 -5 -9 -6 0 -8 -11 -6 -26 4
-23 3 -24 -11 -12 -9 7 -14 8 -10 2 4 -7 0 -14 -8 -17 -8 -4 -12 -15 -10 -27
3 -17 1 -19 -9 -11 -10 9 -15 8 -20 -4 -4 -11 -2 -14 7 -10 6 4 4 0 -5 -8 -10
-8 -18 -22 -18 -31 0 -9 -5 -16 -11 -16 -6 0 -9 -7 -6 -15 4 -8 1 -17 -5 -21
-7 -5 -8 -2 -3 6 5 8 4 11 -3 6 -6 -4 -9 -13 -5 -21 3 -8 1 -15 -5 -15 -6 0
-7 -13 -2 -36 5 -19 5 -33 2 -29 -4 3 -12 -9 -18 -27 -6 -18 -16 -32 -22 -31
-6 2 -9 -6 -7 -17 2 -11 0 -20 -6 -20 -13 0 -11 -32 5 -53 8 -10 23 -16 37
-14 13 2 37 0 52 -4 20 -5 30 -4 33 5 3 8 20 12 44 11 22 -1 40 3 40 7 0 5 5
6 10 3 6 -3 10 -1 10 5 0 6 4 9 9 6 5 -3 14 1 21 9 7 8 16 13 20 10 4 -3 13 2
20 10 7 8 16 13 20 10 4 -3 13 2 20 10 7 8 19 15 27 15 8 0 11 5 7 13 -4 6 -4
9 1 5 4 -4 21 4 37 17 16 14 33 23 38 20 4 -3 11 2 14 11 3 8 11 12 17 8 7 -4
9 -3 6 3 -10 16 48 64 62 50 10 -9 11 -9 6 4 -3 8 2 23 13 32 15 14 19 14 19
2 0 -8 -5 -11 -10 -8 -6 4 -8 0 -4 -11 5 -12 -3 -22 -26 -36 -17 -11 -28 -20
-23 -20 5 0 -4 -10 -20 -22 -16 -12 -32 -27 -36 -33 -4 -5 -8 -6 -8 -2 0 9
-22 -15 -69 -76 -16 -21 -32 -38 -35 -38 -15 1 -95 -56 -96 -66 0 -7 -7 -13
-16 -13 -8 0 -13 -4 -10 -9 3 -5 -8 -14 -24 -21 -17 -7 -30 -17 -30 -22 0 -5
-9 -4 -20 2 -17 9 -19 8 -13 -7 3 -10 3 -15 -2 -11 -11 10 -47 -11 -40 -22 3
-6 -1 -7 -9 -4 -9 3 -16 1 -16 -5 0 -6 -7 -11 -17 -11 -9 0 -14 -3 -10 -6 7
-8 -25 -44 -34 -38 -4 2 -6 -5 -4 -17 3 -16 1 -18 -8 -10 -10 8 -13 4 -13 -17
1 -21 -3 -26 -18 -24 -10 2 -15 -1 -11 -7 3 -7 0 -8 -9 -5 -9 3 -16 1 -16 -5
0 -6 -3 -10 -7 -9 -5 1 -25 -4 -45 -11 -21 -7 -43 -9 -49 -5 -8 5 -9 3 -4 -6
6 -10 4 -12 -9 -7 -10 4 -15 3 -11 -3 3 -6 -3 -10 -14 -10 -11 0 -23 -5 -26
-10 -4 -6 -11 -8 -16 -5 -5 4 -12 -1 -15 -9 -3 -9 -13 -16 -20 -16 -15 0 -134
-116 -134 -131 0 -4 -8 -5 -17 -2 -13 5 -15 2 -10 -11 4 -10 3 -15 -3 -11 -6
3 -10 -1 -10 -9 0 -9 -4 -16 -10 -16 -14 0 -12 -28 2 -32 7 -3 5 -7 -6 -11
-11 -4 -15 -3 -10 4 4 7 1 10 -7 7 -8 -3 -13 -11 -11 -18 2 -8 -3 -10 -14 -6
-14 5 -15 4 -5 -8 10 -12 8 -13 -10 -9 -15 4 -20 3 -15 -5 5 -8 2 -10 -8 -6
-9 3 -16 1 -16 -5 0 -6 -6 -11 -12 -11 -7 -1 -22 -8 -33 -18 -38 -31 -73 -95
-43 -76 6 4 8 3 4 -4 -3 -6 -17 -9 -30 -6 -15 2 -31 -3 -42 -13 -10 -10 -20
-18 -23 -18 -14 1 -41 -31 -41 -47 0 -9 -5 -20 -12 -24 -7 -5 -9 -2 -4 7 4 8
0 5 -9 -6 -9 -11 -22 -18 -28 -17 -7 2 -9 0 -5 -4 4 -4 -25 -38 -65 -77 -39
-38 -71 -75 -69 -81 2 -6 0 -8 -4 -3 -9 9 -54 -19 -72 -45 -7 -10 -18 -15 -24
-12 -7 4 -8 2 -4 -4 4 -8 -3 -16 -18 -22 -14 -5 -26 -14 -26 -20 0 -5 -7 -10
-15 -10 -8 0 -15 -4 -15 -10 0 -5 -7 -7 -15 -4 -11 5 -13 2 -9 -10 4 -9 3 -16
-2 -15 -20 3 -35 -1 -30 -9 3 -5 -6 -15 -19 -22 -13 -7 -22 -17 -19 -22 3 -4
-2 -8 -10 -8 -9 0 -15 -3 -15 -7 3 -20 -2 -26 -11 -13 -8 12 -10 12 -10 1 0
-18 -46 -61 -56 -52 -4 3 -4 -3 0 -13 6 -17 5 -17 -11 -5 -9 8 -14 9 -10 3 3
-5 -12 -29 -34 -52 -21 -23 -39 -40 -39 -37 0 7 -24 -13 -48 -37 -9 -10 -24
-18 -34 -18 -10 0 -18 -5 -18 -12 0 -6 -3 -8 -7 -5 -3 4 -15 -1 -26 -10 -11
-10 -17 -12 -13 -6 5 9 2 11 -8 7 -9 -3 -14 -10 -11 -14 3 -5 1 -11 -5 -15 -5
-3 -10 -1 -10 6 0 7 -8 3 -18 -8 -9 -11 -25 -19 -34 -17 -10 1 -18 -4 -18 -12
0 -9 -4 -13 -9 -10 -9 6 -26 -22 -22 -37 1 -5 -3 -6 -9 -2 -5 3 -13 -1 -16 -9
-3 -9 -10 -13 -15 -10 -5 3 -6 -2 -3 -10 3 -9 2 -16 -3 -16 -14 0 -44 -70 -37
-82 5 -7 2 -9 -8 -5 -11 4 -18 -1 -21 -14 -3 -10 -1 -19 3 -19 5 0 7 -8 5 -18
-4 -25 5 -37 33 -38 18 -1 20 1 11 13 -10 11 -8 12 5 7 12 -5 16 -14 12 -28
-5 -20 -5 -20 9 -2 12 16 12 23 2 35 -11 14 -10 14 5 2 10 -7 18 -10 18 -6 0
4 7 2 15 -5 10 -8 12 -17 6 -24 -6 -7 -4 -16 5 -24 9 -9 14 -9 14 -2 0 7 5 10
12 8 22 -8 62 43 49 64 -6 10 -7 18 -3 18 5 0 14 -10 20 -22 10 -22 11 -22 11
-2 1 13 -9 25 -25 32 -14 7 -23 8 -19 2 3 -5 1 -10 -6 -10 -7 0 -4 -6 7 -14
10 -8 16 -18 11 -22 -4 -4 -7 -2 -7 5 0 7 -4 9 -10 6 -5 -3 -10 -3 -11 2 0 4
-2 18 -3 30 -2 13 0 21 2 18 7 -6 32 15 32 26 0 5 -6 8 -12 6 -9 -1 -13 18
-14 65 -1 37 2 66 6 63 5 -3 7 -14 5 -25 -3 -14 1 -17 12 -13 10 4 14 2 10 -4
-4 -6 -4 -13 0 -16 5 -2 2 -2 -4 -1 -7 2 -13 -4 -13 -12 0 -9 5 -12 13 -8 8 5
8 2 -2 -9 -8 -10 -9 -17 -3 -17 6 0 16 8 21 18 9 15 10 15 11 1 0 -21 29 -33
36 -15 3 7 16 14 29 14 14 0 22 -4 20 -8 -3 -5 1 -11 7 -14 7 -3 2 -3 -11 0
-18 5 -22 3 -15 -7 6 -12 5 -12 -8 -1 -11 9 -18 10 -23 2 -3 -5 -2 -10 3 -10
6 0 13 -7 16 -16 3 -8 2 -13 -2 -10 -4 2 -14 1 -21 -3 -25 -16 5 -20 33 -5 36
18 42 18 26 -1 -11 -13 -10 -14 4 -9 24 9 19 -10 -6 -21 -12 -6 -23 -17 -26
-25 -2 -9 0 -11 5 -4 11 15 133 13 133 -2 0 -6 12 -19 26 -29 18 -11 24 -12
18 -4 -6 12 -5 12 9 0 13 -10 17 -10 17 -1 0 7 6 10 12 7 9 -3 14 9 16 37 1
26 9 47 22 57 10 9 16 19 13 23 -4 3 -1 6 5 6 6 0 14 9 17 20 4 11 11 18 16
15 5 -4 9 1 9 9 0 9 5 16 11 16 5 0 7 5 4 10 -3 6 -1 10 5 10 6 0 8 5 5 10 -3
6 -1 10 5 10 6 0 8 4 5 10 -3 5 0 7 9 4 8 -3 24 4 35 15 12 12 24 21 29 21 4
1 17 9 29 20 12 10 24 16 27 13 3 -4 6 1 6 11 0 9 5 14 10 11 6 -3 10 -1 10 5
0 6 5 8 10 5 6 -3 10 -2 10 4 0 5 9 13 20 16 12 4 30 16 41 28 11 12 24 22 28
22 4 0 16 8 26 18 14 15 20 16 26 5 7 -10 9 -8 9 5 0 11 6 17 13 14 6 -2 20 5
30 16 9 11 17 17 17 13 0 -4 7 0 16 8 8 9 19 14 24 11 5 -3 10 -2 12 3 7 17
78 63 88 57 5 -3 10 -2 10 4 0 6 17 18 38 28 20 9 39 20 42 23 3 4 24 15 47
26 23 10 43 25 43 33 0 7 6 11 13 8 15 -6 39 18 29 29 -4 5 1 2 11 -5 15 -12
17 -12 11 3 -4 12 -1 16 14 16 12 0 24 5 27 11 4 6 13 8 20 5 7 -2 16 2 19 10
3 9 10 12 16 9 5 -3 10 1 10 11 0 11 6 15 20 11 13 -3 18 -1 13 6 -4 7 0 8 11
4 9 -4 15 -3 12 2 -3 5 2 15 11 22 14 12 16 12 9 -1 -4 -9 -2 -8 7 2 8 10 17
15 20 11 4 -3 7 -2 7 4 0 6 7 14 16 17 12 5 14 3 8 -7 -5 -7 -2 -6 6 3 37 37
49 43 65 30 13 -11 14 -10 10 2 -4 9 1 18 10 22 11 4 14 2 9 -7 -4 -6 3 -1 16
11 14 15 30 22 42 19 15 -4 17 -2 9 7 -8 10 -4 16 16 25 22 10 25 10 17 -1 -5
-8 -2 -7 6 2 21 22 70 41 82 34 6 -4 8 -2 5 3 -7 11 13 33 35 37 7 2 21 6 30
10 9 4 21 5 27 2 5 -3 12 0 14 6 4 10 6 10 6 1 1 -8 8 -6 21 7 11 11 26 17 35
14 8 -4 15 -2 15 2 0 5 15 16 33 23 17 8 40 23 50 34 17 20 17 20 17 -1 0 -12
5 -22 11 -22 5 0 7 4 4 10 -3 6 1 7 9 4 9 -4 18 0 22 9 3 9 12 13 20 10 9 -3
14 0 12 8 -2 8 4 14 12 14 8 0 18 4 21 8 3 5 13 9 22 11 9 1 30 16 47 34 16
18 35 32 40 32 6 0 19 8 29 18 55 50 81 71 82 64 0 -4 4 3 10 16 5 13 13 20
19 17 5 -3 10 -3 10 2 0 4 12 22 26 38 14 17 22 24 18 16 -4 -7 8 -3 27 10 19
13 36 27 37 32 2 4 19 14 37 21 23 10 36 24 45 50 6 20 16 36 21 36 6 0 8 4 5
9 -3 5 8 24 24 42 16 19 30 38 30 43 0 4 8 5 17 2 10 -4 14 -4 11 0 -11 10 16
54 65 106 9 10 14 18 11 18 -4 0 4 11 17 24 36 36 51 56 42 56 -4 0 3 10 17
23 14 12 43 47 64 77 22 30 43 57 48 59 8 2 29 43 32 61 1 3 4 10 7 15 8 12
21 72 19 81 -1 4 4 11 12 15 8 5 9 9 2 9 -13 0 3 58 23 81 6 8 13 19 15 24 1
6 6 9 10 8 4 -2 5 4 2 12 -4 8 -2 15 3 15 5 0 15 16 23 35 8 19 18 35 22 35 5
0 6 5 3 10 -3 6 -1 10 5 10 6 0 8 5 5 10 -3 6 -1 10 4 10 6 0 10 3 9 8 -1 4 5
21 12 37 7 17 14 32 15 35 15 44 60 111 69 103 6 -6 7 -2 11 77 2 25 4 46 5
48 2 3 2 61 0 65 -1 1 -3 22 -5 47 -1 25 -5 52 -8 60 -4 8 -8 24 -10 35 -7 39
-56 154 -73 172 -6 6 -17 25 -24 42 -7 17 -16 31 -21 31 -5 0 -9 4 -9 9 0 11
-64 81 -73 81 -3 0 -19 12 -34 26 -24 22 -57 41 -85 49 -5 2 -10 4 -13 5 -3 1
-8 3 -12 4 -5 1 -15 6 -23 11 -8 5 -37 10 -65 11 -27 1 -52 3 -55 4 -3 1 -20
2 -37 2 -18 0 -33 4 -33 9 0 5 -5 9 -11 9 -5 0 -8 -4 -5 -9z m-27 -619 c-17
-19 -23 -37 -9 -29 4 3 7 -14 7 -38 0 -26 -4 -41 -10 -38 -5 3 -5 0 2 -7 7 -8
8 -22 3 -41 -5 -17 -5 -31 1 -35 6 -4 6 -11 -2 -20 -6 -8 -8 -14 -4 -14 4 0
-3 -9 -16 -21 -13 -11 -18 -17 -11 -14 17 9 0 -27 -27 -59 -9 -11 -10 -16 -3
-12 6 4 12 2 12 -3 0 -6 -7 -11 -15 -11 -8 0 -15 -5 -15 -11 0 -5 5 -7 10 -4
6 3 10 1 10 -4 0 -6 -6 -11 -12 -11 -9 0 -8 -4 2 -10 11 -7 11 -10 2 -10 -7 0
-10 -4 -7 -10 3 -6 -1 -7 -10 -4 -11 5 -14 2 -8 -12 4 -12 3 -15 -5 -10 -7 4
-12 2 -12 -5 0 -18 -49 -59 -56 -47 -4 5 -15 -3 -26 -19 l-19 -28 6 26 c4 15
2 30 -4 34 -6 3 -8 12 -4 18 4 7 -1 6 -10 -2 -15 -12 -17 -12 -11 3 3 9 1 23
-6 31 -9 10 -9 15 -1 15 6 0 11 12 11 26 0 15 7 32 16 39 14 10 15 16 5 36
l-12 24 21 -25 c12 -14 19 -19 15 -12 -3 6 -1 12 6 12 9 0 9 3 0 14 -10 12 -8
14 11 9 13 -3 19 -1 13 4 -5 4 -11 14 -13 22 -3 12 0 12 13 1 19 -15 17 10 -3
47 -7 13 -8 24 -3 28 6 3 8 14 6 23 -4 21 30 48 40 31 5 -7 11 -6 20 1 8 7 19
9 24 5 7 -3 8 0 5 9 -3 9 -2 16 4 16 5 0 12 14 16 30 3 17 18 42 32 55 31 29
45 33 21 7z"/>
</g>
</svg>
