<?xml version="1.0" standalone="no"?>
<!DOCTYPE svg PUBLIC "-//W3C//DTD SVG 20010904//EN"
 "http://www.w3.org/TR/2001/REC-SVG-20010904/DTD/svg10.dtd">
<svg version="1.0" xmlns="http://www.w3.org/2000/svg"
 width="1024.000000pt" height="1024.000000pt" viewBox="0 0 1024.000000 1024.000000"
 preserveAspectRatio="xMidYMid meet">
<metadata>
Created by potrace 1.16, written by Peter Selinger 2001-2019
</metadata>
<g transform="translate(0.000000,1024.000000) scale(0.100000,-0.100000)"
fill="#000000" stroke="none">
<path d="M4745 9621 c-3 -6 -14 -8 -25 -6 -11 2 -20 0 -20 -6 0 -5 -3 -8 -7
-8 -5 1 -24 -4 -43 -12 -19 -7 -38 -12 -42 -11 -5 1 -7 -2 -5 -7 1 -5 0 -8 -3
-8 -3 1 -19 -8 -37 -21 -17 -12 -36 -22 -42 -22 -6 0 -11 -4 -11 -9 0 -5 -13
-14 -30 -21 -16 -7 -30 -15 -30 -19 0 -3 -14 -12 -30 -19 -17 -8 -28 -18 -24
-23 3 -5 -1 -9 -9 -9 -8 0 -18 -7 -21 -16 -3 -8 -10 -12 -16 -9 -9 6 -14 -8
-11 -27 0 -5 -3 -8 -9 -8 -14 0 -80 -66 -73 -74 6 -6 -12 -10 -30 -7 -5 1 -6
-3 -3 -8 4 -5 -14 -29 -38 -54 -25 -24 -42 -48 -38 -52 4 -5 2 -5 -4 -2 -6 4
-19 -2 -29 -13 -10 -11 -15 -20 -12 -20 3 0 -9 -15 -28 -33 -19 -19 -32 -37
-28 -40 3 -4 2 -7 -4 -7 -38 0 -247 -389 -227 -422 3 -4 0 -8 -5 -8 -6 0 -11
-9 -11 -20 0 -11 -4 -20 -9 -20 -6 0 -8 -9 -6 -20 2 -11 0 -20 -5 -20 -5 0 -7
-7 -4 -15 4 -8 2 -15 -4 -15 -5 0 -13 -17 -17 -37 -5 -21 -10 -42 -11 -48 -6
-20 -36 -110 -41 -125 -7 -18 -10 -29 -17 -55 -2 -11 -11 -39 -19 -62 -9 -22
-13 -44 -10 -47 4 -3 1 -6 -5 -6 -6 0 -13 -14 -17 -31 -4 -17 -13 -33 -21 -36
-8 -3 -14 -11 -14 -19 0 -8 -4 -14 -10 -14 -5 0 -10 -7 -10 -15 0 -8 -4 -15
-9 -15 -5 0 -9 -6 -8 -12 1 -41 -4 -68 -13 -63 -5 3 -9 -2 -7 -12 3 -25 -24
-143 -32 -138 -4 2 -8 -8 -9 -23 -1 -14 -5 -28 -10 -31 -14 -11 -33 -52 -27
-60 3 -5 -2 -12 -11 -15 -9 -4 -14 -9 -11 -13 3 -3 0 -18 -9 -34 -8 -16 -14
-32 -13 -36 0 -4 -8 -10 -18 -14 -10 -4 -14 -8 -10 -8 4 -1 2 -7 -5 -15 -7 -7
-19 -11 -27 -8 -10 4 -12 1 -6 -7 6 -10 3 -11 -14 -2 -15 8 -21 9 -21 1 0 -6
-4 -9 -9 -5 -5 3 -12 1 -16 -5 -4 -6 -11 -8 -16 -4 -6 3 -19 -2 -30 -12 -10
-9 -19 -14 -19 -10 0 4 -9 2 -20 -4 -12 -6 -18 -16 -14 -23 5 -9 4 -9 -6 0
-11 10 -16 9 -27 -5 -9 -11 -12 -11 -7 -2 6 12 4 12 -12 -1 -10 -9 -29 -20
-41 -23 -13 -4 -23 -12 -23 -17 0 -5 -3 -8 -7 -7 -5 1 -19 -4 -33 -12 -14 -7
-27 -13 -30 -12 -11 4 -40 -10 -40 -18 0 -5 -6 -7 -14 -4 -8 3 -17 1 -20 -5
-4 -6 -14 -7 -23 -4 -12 5 -14 3 -8 -7 5 -9 4 -11 -4 -6 -6 4 -18 3 -25 -3 -8
-7 -18 -11 -22 -10 -17 4 -64 -21 -64 -33 0 -9 -3 -8 -10 2 -9 14 -15 7 -11
-14 1 -5 -5 -3 -14 4 -13 11 -15 10 -9 -4 4 -12 1 -16 -14 -16 -12 0 -24 -5
-27 -10 -4 -6 -11 -8 -16 -5 -5 4 -12 -1 -15 -10 -5 -13 -9 -13 -22 -3 -12 10
-14 10 -8 1 4 -8 1 -13 -9 -13 -10 0 -13 -5 -9 -12 6 -10 5 -10 -7 -1 -12 10
-18 10 -27 1 -7 -7 -12 -9 -12 -4 0 4 -7 1 -15 -8 -9 -8 -23 -12 -32 -9 -11 4
-14 3 -9 -5 6 -11 -6 -17 -19 -9 -2 1 -11 -7 -20 -18 -9 -11 -13 -14 -10 -6 5
9 -1 8 -19 -4 -14 -10 -26 -13 -26 -9 0 5 -4 4 -8 -3 -4 -6 -14 -13 -22 -15
-8 -2 -21 -11 -28 -20 -7 -9 -21 -15 -33 -13 -11 2 -22 -2 -26 -10 -3 -8 -9
-13 -13 -10 -13 8 -40 -6 -34 -17 4 -6 1 -8 -7 -6 -8 3 -29 -1 -47 -8 -17 -7
-32 -10 -32 -7 0 4 -7 -2 -16 -13 -8 -10 -13 -13 -9 -7 4 9 1 11 -9 7 -9 -3
-16 -11 -16 -16 0 -6 -7 -5 -16 2 -12 11 -15 11 -12 0 2 -8 -6 -16 -17 -18
-11 -2 -29 -11 -39 -21 -11 -9 -16 -10 -12 -3 4 6 2 12 -3 12 -6 0 -11 -5 -11
-11 0 -5 -5 -7 -10 -4 -6 4 -17 1 -25 -5 -12 -10 -15 -10 -15 1 0 11 -2 11 -8
1 -5 -7 -22 -14 -39 -15 -17 -1 -29 -5 -27 -8 3 -5 -55 -10 -128 -10 -10 0
-20 -4 -23 -8 -2 -5 -19 -7 -36 -5 -24 3 -30 1 -25 -11 3 -8 1 -17 -5 -20 -5
-4 -9 -3 -8 2 4 20 -2 29 -21 29 -11 0 -20 -7 -21 -16 0 -9 -2 -10 -5 -3 -3 7
-12 9 -20 6 -12 -4 -13 -8 -3 -14 7 -4 -4 -6 -24 -4 -25 2 -35 0 -30 -7 4 -7
0 -9 -10 -5 -8 3 -21 0 -27 -8 -6 -7 -20 -12 -31 -10 -11 2 -17 0 -13 -6 3 -5
0 -16 -6 -24 -6 -8 -8 -20 -4 -26 5 -9 2 -10 -11 -5 -15 5 -16 4 -5 -9 8 -10
9 -15 1 -15 -15 0 -14 -16 4 -33 8 -8 12 -17 10 -19 -3 -3 2 -5 10 -5 13 0 13
3 -2 19 -9 10 -13 18 -9 18 10 0 30 -20 44 -45 6 -11 12 -14 12 -7 0 7 5 10
10 7 6 -3 10 -1 10 6 0 7 3 9 7 6 3 -4 -2 -17 -13 -29 -10 -12 -14 -18 -8 -15
7 4 17 -6 24 -26 7 -17 21 -48 31 -68 10 -20 19 -44 19 -53 0 -10 4 -15 8 -12
5 3 9 -1 9 -9 0 -8 -4 -12 -8 -10 -6 4 -6 -11 0 -33 1 -1 10 2 21 8 11 6 19
14 18 18 -1 4 3 17 10 28 6 12 10 31 7 42 -2 14 1 19 10 16 10 -4 12 0 8 15
-6 22 11 29 22 10 4 -6 14 -8 24 -4 12 5 13 4 4 -6 -10 -10 -9 -15 5 -26 15
-13 15 -13 -5 -4 -14 7 -29 8 -45 1 -20 -9 -20 -10 -2 -7 11 1 31 -5 45 -14
24 -16 25 -16 27 9 4 44 23 55 49 27 l21 -25 -21 0 c-17 0 -19 -2 -7 -9 8 -6
18 -7 24 -4 5 3 6 1 3 -5 -4 -5 -17 -8 -30 -6 -12 2 -16 1 -9 -2 9 -4 10 -10
2 -18 -7 -10 -3 -16 15 -24 25 -11 25 -11 14 11 -11 19 -10 20 2 10 13 -10 46
-3 38 8 -2 2 3 13 10 24 11 19 11 18 5 -5 -6 -20 -4 -23 7 -14 8 6 21 10 30 9
17 -3 22 23 7 42 -7 9 -2 14 16 19 14 3 23 10 20 15 -3 5 0 8 7 7 6 -2 14 3
17 11 3 9 0 11 -9 7 -8 -4 -5 1 7 11 11 10 19 24 18 31 -1 7 0 8 3 2 2 -5 8
-8 12 -6 4 3 8 -4 8 -15 2 -16 -2 -19 -20 -13 -19 6 -20 5 -8 -9 7 -9 17 -14
22 -11 5 3 9 0 9 -6 0 -7 -7 -9 -16 -6 -21 8 -58 -23 -62 -54 -4 -21 -2 -22
12 -11 9 8 14 16 11 19 -7 7 15 32 28 32 6 0 2 -7 -9 -15 -27 -20 -4 -19 25 2
14 9 21 11 17 5 -3 -6 7 -4 24 4 16 9 35 12 41 8 8 -4 9 -3 5 4 -4 7 3 14 19
18 14 3 25 10 25 16 0 5 4 7 9 3 5 -3 15 1 23 8 7 8 21 13 30 11 9 -1 19 4 22
11 3 8 16 12 31 10 17 -1 31 4 38 16 9 14 14 16 26 6 12 -9 13 -9 7 1 -5 8 0
12 14 12 14 0 19 4 14 13 -5 9 -4 9 5 1 10 -9 20 -8 42 3 16 8 41 16 55 19 15
3 36 11 48 19 11 8 28 15 37 15 10 0 19 5 21 10 2 6 13 12 25 13 12 0 19 5 17
9 -3 5 8 11 25 14 17 4 31 11 31 16 0 5 10 4 21 -3 12 -6 19 -7 16 -2 -10 16
26 38 61 37 17 -1 37 5 44 13 9 11 13 11 19 1 7 -10 9 -10 9 -1 0 7 7 10 15 7
13 -5 13 -9 3 -23 -9 -12 -7 -11 9 2 15 13 23 15 28 7 5 -7 10 -8 14 -3 3 6
20 16 36 24 19 9 29 21 27 32 -2 9 2 17 8 17 5 0 9 -3 9 -7 -5 -34 33 -40 53
-9 5 8 8 7 8 -2 0 -7 4 -10 10 -7 5 3 20 8 31 10 12 3 31 12 42 22 14 13 18
14 12 3 -6 -12 -5 -13 6 -2 34 31 44 15 41 -65 -6 -149 -4 -253 4 -266 5 -6 9
-46 9 -89 0 -42 2 -75 5 -73 3 2 6 -76 8 -173 1 -98 4 -202 6 -232 6 -105 42
-171 92 -165 15 1 21 -2 17 -11 -3 -8 -1 -14 5 -14 5 0 13 -10 17 -22 4 -13 8
-26 10 -30 1 -5 3 -13 4 -19 0 -5 6 -7 13 -3 6 4 8 3 4 -4 -3 -6 -1 -23 6 -39
6 -15 12 -30 12 -33 5 -19 32 -70 38 -70 5 0 8 -9 8 -20 0 -11 5 -20 11 -20 6
0 8 -7 5 -15 -3 -9 1 -18 9 -21 8 -4 12 -10 9 -15 -3 -5 -1 -9 4 -9 6 0 8 -9
5 -20 -3 -11 -1 -20 4 -20 5 0 10 -6 11 -12 1 -13 9 -48 12 -58 1 -3 3 -9 4
-15 2 -12 36 -124 44 -144 4 -10 1 -12 -9 -6 -8 5 -7 1 4 -12 9 -11 14 -23 10
-26 -3 -4 -1 -7 5 -7 7 0 12 -9 12 -20 0 -11 5 -20 11 -20 5 0 8 -4 5 -8 -3
-5 2 -21 10 -37 8 -16 16 -38 19 -49 2 -12 4 -22 6 -23 1 -2 3 -7 4 -13 1 -5
4 -12 5 -15 1 -3 3 -8 5 -12 1 -5 10 -26 20 -48 10 -22 20 -43 21 -47 1 -5 2
-9 4 -10 1 -2 3 -12 5 -23 2 -11 9 -21 15 -23 5 -2 8 -7 5 -12 -2 -4 2 -21 10
-37 8 -16 16 -38 18 -49 1 -10 6 -25 10 -31 5 -7 5 -13 0 -13 -4 0 -2 -4 5 -8
7 -5 14 -18 17 -30 2 -12 6 -26 9 -30 3 -5 7 -21 10 -37 3 -16 10 -31 16 -35
7 -4 11 -10 10 -14 -5 -15 12 -76 20 -76 5 0 7 -6 4 -14 -3 -8 0 -17 5 -21 6
-3 9 -11 6 -16 -4 -5 -2 -9 4 -9 6 0 8 -7 5 -15 -4 -8 -2 -15 3 -15 5 0 9 -8
9 -17 2 -35 13 -76 29 -99 8 -13 15 -29 15 -36 0 -7 11 -22 25 -32 14 -11 24
-25 21 -33 -3 -7 -2 -13 3 -13 4 0 13 -12 20 -26 7 -17 17 -24 27 -20 9 4 12
2 8 -5 -4 -6 -1 -15 5 -19 7 -4 13 -16 14 -28 0 -11 4 -19 9 -16 4 2 12 -6 19
-18 7 -13 20 -30 29 -38 9 -8 19 -23 23 -32 3 -10 11 -18 17 -18 5 0 10 -7 10
-15 0 -9 7 -18 15 -21 8 -4 15 -13 15 -21 0 -8 5 -11 10 -8 6 3 10 -1 10 -10
0 -8 7 -18 15 -21 8 -4 12 -10 9 -15 -3 -5 -1 -9 3 -9 5 0 17 -13 26 -30 10
-16 25 -30 33 -30 8 0 13 -4 11 -9 -1 -5 13 -23 30 -40 18 -17 30 -31 27 -31
-8 0 53 -77 93 -118 18 -19 33 -38 33 -44 0 -5 4 -6 10 -3 6 3 10 -1 10 -9 0
-9 5 -16 10 -16 6 0 10 -7 10 -16 0 -8 5 -12 10 -9 6 3 10 1 10 -5 0 -6 10
-21 23 -34 12 -12 31 -34 41 -49 11 -14 23 -24 27 -21 4 2 6 -3 5 -12 -2 -10
10 -29 26 -44 15 -15 25 -30 21 -33 -3 -4 -1 -7 6 -7 7 0 9 -4 6 -10 -4 -6 1
-7 11 -3 13 5 16 3 11 -10 -4 -11 -1 -17 8 -17 8 0 15 -7 15 -15 0 -8 9 -20
19 -27 10 -6 17 -18 14 -25 -3 -8 2 -13 12 -13 12 0 15 -5 11 -16 -5 -12 -2
-15 12 -12 15 4 18 0 17 -17 -2 -12 5 -28 15 -35 10 -7 16 -19 13 -27 -3 -7 2
-13 11 -13 9 0 16 -6 14 -13 -1 -6 6 -24 16 -39 10 -15 14 -33 10 -39 -4 -7
-3 -9 2 -6 6 3 16 -8 23 -24 8 -18 17 -26 24 -22 7 4 7 1 -1 -9 -12 -15 3 -28
38 -33 13 -1 30 -17 30 -28 0 -8 -4 -7 -9 2 -5 8 -20 16 -33 17 -13 2 -17 0
-10 -2 6 -3 9 -11 5 -17 -4 -7 0 -8 12 -3 18 7 18 6 0 -14 -17 -19 -17 -20 -2
-14 10 3 17 3 16 -2 -4 -23 3 -42 24 -64 12 -14 21 -27 19 -30 -9 -15 8 -42
23 -37 12 5 14 3 6 -11 -10 -19 10 -46 25 -34 5 4 2 -1 -5 -11 -12 -15 -12
-17 4 -11 13 5 16 4 11 -4 -4 -7 -2 -12 4 -12 6 0 9 -4 5 -10 -3 -5 10 -25 30
-45 36 -38 44 -51 23 -39 -8 4 -10 3 -5 -2 5 -5 14 -9 20 -9 7 0 11 -8 11 -18
-1 -9 2 -14 7 -11 5 3 9 2 9 -3 0 -12 73 -88 82 -85 4 1 7 -1 6 -5 -2 -5 5
-19 15 -33 11 -16 17 -19 18 -10 0 8 4 5 9 -7 5 -13 15 -23 21 -23 7 0 10 -3
6 -6 -3 -4 -1 -12 6 -20 33 -36 37 -45 31 -56 -4 -7 -3 -8 5 -4 6 4 14 0 18
-11 4 -10 9 -20 13 -23 3 -3 14 -25 25 -50 10 -25 25 -52 32 -61 7 -8 18 -30
24 -47 6 -18 15 -32 20 -32 4 0 6 -7 3 -15 -4 -8 -1 -15 5 -15 6 0 11 -9 11
-20 0 -11 5 -20 10 -20 6 0 10 -7 10 -15 0 -8 5 -15 10 -15 6 0 10 -9 10 -21
0 -11 4 -17 10 -14 6 3 10 -1 10 -9 0 -9 9 -21 19 -28 10 -6 17 -18 14 -25 -3
-7 0 -13 7 -13 6 0 8 -4 5 -10 -3 -5 -1 -10 6 -10 6 0 9 -8 6 -20 -3 -11 -1
-20 5 -20 5 0 7 -4 3 -9 -3 -5 -1 -12 5 -16 5 -3 14 -23 20 -44 12 -46 60 -86
60 -51 0 12 4 18 10 15 5 -3 8 0 5 7 -2 7 -6 29 -8 48 -3 19 -9 46 -15 60 -5
14 -6 34 -2 45 6 18 -3 82 -17 115 -3 8 -7 18 -8 23 -2 4 -4 10 -5 15 -1 4 -2
11 -1 15 1 4 -8 3 -18 -3 -13 -6 -18 -16 -14 -26 5 -13 7 -13 14 -2 6 9 8 6 6
-10 0 -12 -4 -22 -8 -22 -10 0 -26 44 -23 63 1 9 -2 17 -7 17 -6 0 -7 5 -3 11
5 8 10 6 16 -5 5 -9 14 -14 19 -10 6 3 3 11 -7 19 -10 6 -19 23 -21 36 -2 13
-14 34 -26 48 -12 13 -17 21 -11 18 6 -3 11 0 11 8 0 8 -4 12 -8 10 -4 -3 -9
2 -13 10 -3 8 0 15 6 15 7 0 6 5 -2 15 -6 8 -9 18 -6 24 3 5 2 11 -3 13 -13 4
-24 105 -12 112 14 9 2 115 -19 172 -6 15 -8 29 -5 32 2 3 0 11 -5 18 -6 6
-13 22 -15 34 -2 12 -12 34 -21 47 -9 14 -11 22 -5 19 6 -4 11 -2 11 3 0 6 -5
11 -12 11 -6 0 -9 3 -5 6 3 3 2 17 -3 30 -5 13 -6 23 -2 23 28 -5 46 2 32 11
-13 8 -12 10 3 10 9 0 17 5 17 11 0 5 -6 7 -12 3 -9 -6 -9 -3 1 9 7 9 11 24 7
32 -3 8 -5 16 -4 18 1 1 -4 11 -10 23 -8 16 -8 24 0 32 7 7 8 12 3 12 -6 0
-11 25 -12 55 -1 30 -6 63 -12 73 -6 11 -12 34 -13 52 -1 18 -8 35 -15 37 -7
3 -10 9 -7 14 3 5 0 9 -6 9 -6 0 -9 4 -6 9 8 13 -4 42 -15 35 -5 -3 -9 3 -9
13 0 10 -9 25 -20 33 -11 8 -20 18 -20 22 0 9 -48 57 -53 52 -2 -2 -23 15 -48
38 -24 23 -48 41 -54 39 -5 -1 -7 1 -3 5 4 4 -10 27 -32 50 -22 24 -40 48 -40
54 0 5 -7 10 -16 10 -8 0 -12 5 -9 10 3 5 1 10 -5 10 -6 0 -14 8 -17 18 -4 9
-20 31 -35 47 -15 17 -28 36 -28 43 0 6 -3 12 -8 12 -4 0 -18 18 -32 40 -14
22 -28 40 -32 40 -5 0 -8 7 -8 15 0 8 -4 15 -8 15 -5 0 -20 21 -33 48 -29 57
-40 70 -57 64 -7 -2 -12 0 -10 5 3 12 -33 83 -43 83 -5 0 -9 9 -9 20 0 11 -4
20 -10 20 -5 0 -10 5 -10 11 0 6 -6 17 -12 24 -29 33 -38 45 -33 45 3 0 -3 10
-15 22 -11 12 -20 26 -20 30 0 5 -9 18 -20 30 -11 12 -20 28 -20 35 0 7 -4 13
-10 13 -5 0 -9 3 -8 8 3 9 -33 65 -49 75 -7 4 -13 16 -13 27 0 10 -5 20 -10
22 -6 2 -12 13 -13 26 0 12 -5 22 -9 22 -4 0 -8 9 -8 20 0 11 -4 20 -8 20 -9
0 -11 8 -14 55 -1 14 -8 25 -16 25 -8 0 -12 6 -9 14 3 8 3 17 -1 21 -4 4 -8
25 -10 48 -5 98 -7 112 -17 119 -6 5 -5 8 3 8 9 0 10 5 3 19 -6 10 -13 33 -16
52 -3 19 -10 36 -16 37 -5 2 -7 8 -3 13 3 5 1 24 -5 42 -5 17 -13 50 -16 73
-3 22 -9 54 -13 70 -15 60 -9 129 12 129 20 0 31 41 15 51 -5 2 -4 15 1 28 5
14 5 27 -1 33 -5 5 -10 21 -11 36 -1 15 -6 27 -10 27 -5 0 -6 10 -3 23 3 12
-3 54 -13 92 -24 92 -6 128 70 139 4 1 17 9 29 19 11 10 29 20 39 22 34 7 68
36 73 64 6 26 37 41 37 17 0 -6 5 -4 10 4 8 12 10 12 10 1 0 -10 3 -11 13 -2
8 6 16 9 18 6 3 -2 5 12 6 31 0 20 6 41 13 47 10 9 11 9 5 -2 -6 -10 -4 -12 4
-7 9 6 9 11 -1 24 -8 10 -8 13 -1 9 6 -4 14 -1 16 5 4 10 6 10 6 1 1 -7 10
-13 21 -13 11 0 20 -5 20 -11 0 -5 6 -7 13 -3 7 5 6 1 -3 -10 -13 -17 -14 -17
-22 1 -7 15 -8 14 -4 -5 3 -18 2 -21 -9 -12 -9 8 -14 5 -18 -11 -4 -13 -10
-18 -18 -13 -8 5 -10 3 -4 -5 5 -9 10 -10 18 -2 6 6 19 11 29 11 10 0 18 5 18
11 0 6 10 10 23 9 38 -4 48 0 41 12 -5 8 -2 9 10 5 13 -5 19 -1 23 13 3 11 9
17 14 14 9 -5 13 11 9 31 -1 6 2 7 5 3 11 -11 47 11 42 25 -4 13 38 57 54 57
6 0 7 5 4 10 -3 6 0 10 8 10 8 0 22 12 32 26 9 15 11 23 4 19 -8 -6 -10 -4 -5
4 5 7 14 10 22 7 12 -5 12 -2 3 17 -11 20 -11 21 4 9 13 -11 16 -10 22 8 3 11
11 17 17 14 5 -4 4 4 -3 17 -11 21 -11 23 3 11 16 -13 35 9 23 28 -3 4 7 11
20 14 14 4 23 11 20 16 -3 6 1 10 10 10 12 0 15 5 11 16 -5 13 -2 15 14 11 13
-3 18 -1 13 6 -4 7 0 8 11 4 9 -4 15 -3 13 1 -8 12 17 29 40 27 14 -1 19 3 16
12 -3 7 2 13 12 13 10 0 13 -4 9 -12 -5 -9 -3 -9 9 1 9 7 15 17 12 21 -3 5 4
6 15 3 12 -3 20 0 20 8 0 7 3 10 6 7 3 -4 14 2 25 13 11 11 25 17 31 13 6 -4
8 -3 5 2 -3 6 3 16 15 23 11 7 17 8 14 2 -4 -7 -1 -8 8 -5 9 3 14 11 13 17 -1
7 5 12 13 12 8 0 23 7 32 15 34 30 53 45 58 45 3 0 4 4 2 9 -2 5 4 6 13 2 9
-3 13 -2 10 4 -3 5 1 17 10 27 8 10 16 23 17 28 1 6 8 16 15 23 7 8 11 17 8
22 -3 4 2 10 10 14 8 3 15 15 15 26 0 12 3 19 8 17 4 -3 12 1 19 8 10 11 10
15 0 18 -7 3 -4 6 7 6 12 1 16 6 12 17 -3 8 -2 13 3 9 5 -3 12 8 16 25 4 16
11 30 16 30 5 0 9 5 9 11 0 5 12 36 27 67 15 31 27 59 28 62 10 39 36 113 45
130 6 12 13 46 15 76 1 30 5 58 9 61 11 11 6 53 -6 53 -6 0 -9 3 -5 6 6 6 -16
34 -26 34 -3 0 -51 44 -107 98 -62 59 -114 100 -133 105 -18 5 -34 12 -37 15
-6 8 -123 52 -157 59 -13 3 -23 10 -23 15 0 5 -3 7 -8 4 -6 -4 -59 4 -132 21
-14 3 -33 5 -42 5 -10 0 -18 2 -18 6 0 4 -10 8 -22 8 -13 1 -30 4 -38 7 -47
16 -60 19 -66 17 -4 -1 -10 3 -14 10 -4 6 -23 12 -43 13 -19 1 -35 7 -34 12 1
6 -4 9 -12 7 -8 -2 -17 1 -20 6 -3 6 -19 11 -36 13 -16 2 -36 8 -44 14 -12 8
-13 7 -6 -5 8 -13 7 -13 -9 0 -17 14 -28 17 -71 23 -12 2 -26 7 -33 11 -11 6
-17 -11 -13 -36 0 -5 -3 -8 -7 -8 -4 0 -8 -10 -9 -22 -2 -20 -1 -21 8 -5 6 9
15 17 20 17 6 0 7 -5 3 -12 -5 -8 -2 -9 10 -5 9 4 15 3 11 -2 -3 -5 0 -11 7
-13 6 -2 12 -14 13 -26 1 -11 -2 -19 -7 -16 -5 4 -7 13 -4 21 5 11 2 13 -9 9
-9 -3 -14 -2 -11 3 3 5 -1 12 -10 15 -13 5 -15 2 -11 -14 3 -11 0 -23 -5 -27
-7 -3 -8 -1 -4 5 6 11 -6 16 -26 13 -11 -1 -10 7 3 31 9 16 8 19 -2 13 -7 -5
-10 -4 -6 1 3 6 -5 10 -18 10 -13 0 -21 -4 -18 -10 4 -5 1 -6 -7 -1 -9 6 -11
4 -5 -5 6 -9 4 -11 -5 -5 -9 5 -11 4 -6 -4 6 -9 11 -9 21 -1 9 8 13 5 13 -12
0 -30 5 -52 14 -58 3 -3 -1 -14 -9 -25 -15 -19 -15 -19 -8 5 7 22 6 23 -8 11
-13 -10 -14 -18 -6 -32 6 -13 6 -19 -1 -19 -5 0 -10 6 -10 13 0 8 -4 7 -11 -3
-9 -12 -10 -12 -5 4 4 10 1 25 -5 32 -7 9 -8 14 -1 14 6 0 12 -5 14 -11 2 -6
11 -3 20 8 17 18 15 19 -29 21 -25 1 -53 7 -61 14 -13 11 -15 10 -9 -4 3 -10
1 -20 -5 -24 -6 -4 -8 -3 -5 3 4 6 -5 15 -19 22 -31 14 -34 14 -30 -1 1 -7 1
-10 -1 -5 -3 4 -10 4 -16 1 -8 -5 -8 -2 1 7 16 18 15 29 -4 29 -9 0 -12 -5 -8
-12 5 -9 2 -8 -9 1 -15 12 -20 11 -38 -5 -17 -15 -22 -16 -29 -4 -5 8 -7 17
-5 21 3 3 -6 7 -19 7 -17 0 -23 -5 -19 -14 3 -8 1 -14 -4 -14 -5 0 -9 11 -9
23 0 19 5 23 24 21 33 -3 52 5 52 24 0 12 -3 13 -12 4 -7 -7 -17 -12 -22 -12
-6 0 0 7 12 16 20 13 21 18 10 32 -11 15 -11 15 3 5 25 -20 31 -3 6 19 l-22
19 28 -17 c20 -12 27 -13 27 -3 0 7 3 9 6 6 4 -4 2 -13 -5 -20 -9 -11 -8 -17
3 -26 9 -7 17 -8 20 -2 3 5 0 11 -6 13 -8 3 -4 10 11 17 13 7 21 8 17 3 -3 -6
-2 -13 3 -16 5 -4 13 3 16 15 10 32 34 -6 28 -45 -4 -29 -4 -30 10 -11 8 10
13 26 10 35 -3 10 1 8 11 -5 9 -11 14 -25 12 -32 -3 -7 -1 -13 4 -13 18 0 20
20 4 45 -9 14 -12 25 -6 25 5 0 12 -9 15 -21 3 -12 10 -18 16 -15 6 4 8 14 5
24 -3 9 4 1 15 -18 11 -19 20 -28 21 -20 0 13 1 13 10 0 9 -13 10 -13 10 0 0
8 9 21 20 28 12 7 20 8 20 2 0 -5 -4 -10 -10 -10 -5 0 -7 -7 -3 -16 5 -15 7
-15 15 1 10 16 3 53 -8 42 -3 -3 -19 -1 -35 3 -20 6 -29 5 -29 -3 0 -7 -4 -6
-9 3 -6 8 -7 18 -4 23 3 5 -5 4 -17 -3 -12 -6 -24 -9 -28 -6 -3 3 0 6 7 6 7 0
9 5 6 10 -4 6 -10 8 -15 5 -4 -3 -11 1 -13 7 -4 10 -6 10 -6 1 -1 -7 -8 -10
-16 -7 -12 5 -13 9 -4 20 10 12 9 13 -5 8 -9 -3 -16 -11 -16 -18 0 -6 -4 -5
-9 3 -11 17 -84 25 -74 7 7 -12 -38 23 -49 38 -17 24 -1 271 20 310 12 21 19
43 16 47 -3 5 -1 9 5 9 5 0 13 10 17 23 4 12 17 36 30 53 13 17 24 35 24 40 0
5 12 20 25 33 14 13 25 28 25 34 0 6 9 20 19 31 26 28 102 165 107 194 13 67
139 190 139 135 0 -6 4 -15 9 -20 5 -5 6 -3 2 5 -7 11 5 17 27 13 5 -1 6 9 2
21 -16 55 -17 64 -6 48 6 -8 11 -23 11 -33 0 -10 4 -16 8 -13 5 3 9 -1 9 -9 0
-14 -11 -19 -31 -16 -5 1 -4 -4 2 -12 7 -8 10 -16 7 -19 -3 -2 2 -5 10 -5 10
0 12 4 5 12 -7 8 -3 11 12 11 11 -1 23 5 26 13 3 9 0 11 -8 6 -9 -5 -11 -4 -6
4 4 6 12 8 18 5 7 -5 9 -1 5 9 -4 12 -2 14 11 10 9 -3 14 -3 10 2 -4 4 -3 16
2 26 7 12 6 22 -4 32 -9 9 -11 19 -5 28 5 8 9 10 9 5 0 -6 13 2 28 17 25 24
32 51 22 77 -1 3 -2 8 -1 12 0 3 -13 3 -29 -2 -18 -5 -30 -5 -30 1 0 5 -8 9
-17 9 -26 0 -39 12 -48 40 -7 22 -6 23 8 11 9 -7 14 -18 11 -23 -4 -6 4 -4 17
3 23 12 23 11 9 -7 -14 -19 -14 -19 8 0 12 11 22 25 22 33 0 11 4 11 20 3 11
-6 20 -7 20 -1 0 5 7 12 16 15 8 3 13 2 10 -3 -4 -5 5 -4 19 2 14 7 25 16 25
20 0 5 -5 5 -12 1 -7 -4 -8 -3 -4 5 12 20 26 1 20 -27 -5 -27 -5 -27 8 -4 8
12 16 21 19 20 2 -2 -2 2 -9 9 -8 7 -11 17 -6 25 4 7 4 10 -1 6 -4 -4 -14 -1
-21 7 -15 15 -19 29 -6 21 5 -3 9 1 9 9 0 8 -4 12 -8 9 -4 -2 -8 4 -8 13 -1
53 -18 93 -37 86 -8 -3 -11 -9 -8 -14 3 -5 0 -9 -6 -9 -6 0 -8 -5 -5 -10 4 -6
11 -7 17 -4 7 4 8 2 4 -4 -5 -9 -12 -8 -26 1 -22 13 -25 23 -10 32 5 3 9 16 8
29 -2 19 -5 21 -25 12 -13 -6 -23 -15 -23 -20 0 -5 -8 -2 -17 5 -11 10 -14 10
-9 2 7 -12 -11 -18 -37 -14 -5 1 -6 -3 -2 -9 3 -5 -3 -10 -14 -10 -20 0 -25
11 -24 47 1 7 -2 11 -6 9 -3 -1 -14 5 -23 16 -16 15 -16 18 -2 18 8 0 12 5 9
10 -3 6 2 10 11 10 22 0 15 7 -11 12 -11 1 -23 7 -27 12 -8 12 2 37 12 31 4
-3 11 2 14 11 4 10 13 13 26 9 15 -5 18 -3 14 9 -5 12 -2 15 10 10 9 -3 16 -1
16 6 0 6 4 8 10 5 6 -3 7 1 4 9 -4 11 0 16 11 16 9 0 13 5 10 10 -3 6 3 10 13
10 21 0 37 37 20 42 -7 3 -4 17 6 37 19 35 15 81 -7 81 -6 1 -25 18 -42 39
-28 36 -76 77 -60 52 3 -6 1 -11 -4 -11 -6 0 -11 5 -11 10 0 6 -7 10 -15 10
-8 0 -15 4 -15 8 0 5 -11 14 -25 20 -16 8 -25 8 -25 1 0 -6 -6 -6 -18 0 -13 7
-23 6 -32 -2 -10 -9 -11 -9 -6 1 8 14 0 17 -9 3z m285 -617 c0 -14 -4 -23 -8
-20 -5 3 -9 -1 -9 -9 0 -8 4 -12 9 -9 4 3 8 0 8 -5 0 -6 6 -11 14 -11 8 0 17
-3 19 -7 3 -5 -5 -8 -18 -8 -13 0 -21 4 -18 8 3 5 -3 7 -12 5 -10 -1 -20 -10
-22 -18 -4 -13 -3 -13 6 0 9 13 11 13 11 -1 0 -11 -9 -16 -25 -16 -22 0 -24 2
-13 16 9 11 5 10 -9 -3 -13 -10 -20 -23 -16 -29 3 -6 1 -7 -6 -3 -6 4 -8 12
-5 18 4 6 2 8 -4 4 -5 -3 -13 0 -16 6 -3 7 -4 -1 -2 -18 2 -17 0 -38 -5 -45
-7 -11 -9 -9 -10 6 -4 50 -7 66 -14 73 -5 4 -6 0 -2 -10 4 -10 -1 -18 -14 -21
-10 -3 -19 -1 -19 5 0 6 -8 7 -17 4 -10 -4 -14 -4 -10 0 4 4 -1 13 -11 20 -15
12 -14 13 10 14 15 0 30 5 34 12 4 7 3 8 -4 4 -8 -5 -10 -1 -5 10 5 13 3 15
-7 9 -9 -6 -11 -4 -5 5 6 10 11 10 20 -3 14 -20 30 -23 19 -4 -5 7 0 6 11 -3
11 -9 16 -10 11 -2 -4 6 -2 12 3 12 6 0 11 -4 11 -8 0 -5 7 -9 15 -9 11 0 14
7 10 21 -4 14 -1 12 10 -7 9 -15 13 -33 9 -39 -4 -7 -3 -8 5 -4 6 4 11 13 10
19 -3 26 2 38 13 31 7 -5 9 -2 5 8 -3 10 0 15 11 14 9 0 16 5 14 12 -1 8 2 11
8 7 5 -3 10 -17 10 -31z m-635 -1674 c4 -6 12 -7 18 -3 17 11 38 13 32 3 -3
-5 3 -13 12 -19 10 -5 15 -12 12 -15 -3 -3 -14 2 -25 12 -18 17 -20 17 -37 1
-18 -16 -17 -18 5 -33 12 -9 18 -16 12 -16 -5 0 -15 5 -22 12 -16 16 -15 -2 1
-23 31 -41 125 -56 100 -16 -4 7 5 4 20 -6 20 -13 27 -14 26 -5 -5 24 11 56
36 72 14 9 25 12 25 7 0 -5 -9 -12 -19 -16 -11 -3 -22 -12 -24 -20 -7 -17 18
-41 28 -25 3 5 1 10 -4 10 -6 0 -11 5 -11 10 0 6 8 5 20 -2 11 -7 16 -14 11
-16 -6 -2 -7 -10 -4 -18 3 -7 10 -11 17 -7 6 3 -2 -7 -17 -24 -26 -29 -29 -63
-5 -63 6 0 5 -6 -2 -15 -13 -16 -35 -21 -25 -6 3 5 1 12 -4 16 -6 3 -8 -3 -6
-15 2 -13 -1 -20 -11 -20 -9 0 -12 5 -8 12 4 6 3 8 -3 5 -6 -4 -16 0 -23 8
-10 12 -10 15 1 15 11 0 11 2 -1 10 -13 8 -12 10 3 10 14 0 17 5 12 23 -6 18
-5 20 6 10 16 -15 43 -17 34 -3 -4 6 -11 8 -16 5 -5 -3 -7 0 -6 7 2 7 2 9 -1
4 -2 -4 -8 -2 -13 5 -7 11 -9 11 -9 1 0 -7 -5 -10 -12 -6 -6 4 -8 3 -5 -3 7
-12 -23 -11 -42 2 -9 5 -12 4 -7 -3 3 -6 -3 -13 -14 -17 -15 -5 -19 -13 -16
-31 3 -14 1 -22 -5 -19 -5 4 -7 11 -4 16 4 5 1 9 -4 9 -6 0 -11 -4 -11 -8 0
-4 -9 -8 -21 -9 -17 -2 -18 1 -9 13 7 8 9 14 5 14 -4 0 -2 7 5 15 21 26 -5 42
-37 22 -6 -4 -14 -3 -17 2 -3 5 1 11 9 15 9 3 12 12 8 22 -5 14 -3 16 12 10
11 -4 16 -4 13 0 -4 4 -3 16 3 26 8 15 8 19 -1 16 -6 -2 -12 -8 -12 -13 -1 -6
-8 -15 -16 -21 -9 -7 -12 -16 -7 -24 5 -9 4 -11 -3 -6 -7 4 -12 2 -12 -4 0 -6
-6 -8 -12 -4 -10 6 -10 4 0 -7 14 -16 16 -33 2 -24 -5 3 -10 1 -10 -5 0 -7 8
-9 21 -5 18 6 19 5 7 -14 -7 -12 -16 -21 -21 -21 -4 0 -5 6 -1 13 6 9 5 9 -7
0 -9 -7 -15 -23 -14 -35 1 -13 -5 -29 -14 -36 -14 -11 -14 -11 3 -5 13 4 17 3
12 -5 -4 -7 0 -19 8 -28 9 -9 16 -11 16 -4 0 6 4 9 8 6 4 -2 6 12 4 32 -3 20
-9 40 -14 43 -5 3 -2 9 7 12 10 5 14 3 9 -5 -4 -7 -3 -8 5 -4 8 5 10 0 7 -19
-5 -27 -5 -27 17 -9 12 11 25 23 28 28 4 4 10 3 13 -3 4 -6 11 -9 16 -6 5 3
11 1 15 -4 3 -6 13 -7 22 -4 10 4 14 2 10 -4 -3 -5 0 -10 8 -10 8 0 17 7 20
15 4 11 8 12 20 2 11 -9 12 -17 5 -31 -8 -14 -6 -21 11 -29 19 -11 20 -10 9
10 -6 12 -9 24 -6 28 3 3 6 0 6 -6 0 -6 10 -16 21 -23 17 -8 20 -8 14 1 -5 9
-1 10 14 5 18 -5 24 -2 28 14 3 11 9 18 14 15 5 -3 14 -2 20 2 8 4 7 9 -2 15
-15 9 -39 -7 -39 -27 0 -8 -4 -14 -10 -14 -19 0 -10 23 25 61 19 22 35 34 35
28 0 -7 12 1 27 17 15 16 24 21 21 12 -4 -9 -1 -22 7 -28 7 -6 12 -20 10 -30
-2 -11 0 -22 6 -25 5 -4 9 2 10 12 0 11 3 13 6 5 6 -17 -16 -44 -30 -35 -6 4
-8 0 -4 -11 5 -14 3 -15 -12 -6 -14 7 -22 6 -32 -6 -7 -8 -21 -13 -31 -11 -10
3 -21 0 -25 -5 -3 -7 -1 -8 5 -4 7 4 12 2 12 -3 0 -16 26 -13 40 4 7 8 17 15
23 15 6 0 1 -7 -11 -16 -18 -12 -21 -19 -11 -30 6 -7 15 -12 19 -9 5 3 6 -4 3
-15 -3 -11 -10 -20 -16 -20 -6 0 -7 3 -4 6 3 4 2 15 -3 25 -9 17 -43 19 -59 4
-3 -4 7 -4 23 -1 22 4 27 2 22 -10 -15 -38 40 -46 66 -9 4 5 6 0 6 -12 -2 -14
-7 -19 -18 -16 -12 4 -12 3 -1 -5 7 -5 18 -16 23 -23 8 -11 9 -10 4 4 -3 9 -1
17 3 17 5 0 7 15 5 33 -3 26 -2 28 5 11 12 -27 28 -38 36 -24 3 5 1 10 -4 10
-6 0 -11 5 -11 11 0 6 5 7 13 2 25 -16 51 -15 37 2 -7 8 -16 13 -19 10 -4 -2
-8 2 -8 10 0 13 4 12 19 -2 10 -9 18 -11 18 -5 0 6 -11 19 -25 30 -21 16 -22
21 -9 26 8 3 12 10 9 16 -3 5 2 10 12 10 11 0 14 3 7 8 -9 5 -8 11 3 21 12 11
14 10 11 -5 -2 -11 2 -18 9 -17 6 1 17 -5 25 -15 11 -15 11 -16 -3 -4 -13 10
-19 10 -28 -2 -8 -10 -9 -16 -1 -21 6 -3 8 -11 5 -16 -4 -5 5 -9 19 -9 27 0
69 33 58 46 -4 3 2 2 14 -4 16 -9 21 -8 21 3 0 8 -4 12 -8 9 -4 -2 -11 1 -15
7 -4 8 -3 9 4 5 7 -4 12 -1 13 6 0 10 2 10 6 1 2 -7 9 -13 14 -13 6 0 7 6 3
13 -4 6 -3 8 1 4 13 -11 15 -38 2 -30 -6 4 -8 0 -4 -10 4 -10 2 -16 -5 -14 -6
1 -13 -4 -15 -10 -3 -7 2 -13 11 -13 8 0 14 -8 13 -19 -1 -16 -5 -18 -20 -9
-10 5 -21 7 -24 4 -3 -3 3 -9 15 -13 11 -5 22 -12 24 -18 2 -5 5 -9 8 -8 3 0
12 -6 20 -15 13 -14 12 -15 -5 -8 -11 5 -28 11 -37 13 -10 3 -15 9 -12 14 3 5
1 9 -5 9 -5 0 -15 -8 -20 -17 -6 -10 -11 -13 -11 -6 0 6 5 15 10 18 6 3 10 11
10 17 0 6 -9 3 -20 -7 -12 -10 -19 -24 -16 -30 3 -8 -18 -11 -70 -10 -41 1
-74 0 -74 -3 0 -10 29 -31 32 -23 3 9 29 14 63 12 16 -1 17 -3 5 -11 -12 -7
-11 -9 5 -9 73 -1 135 -6 135 -12 0 -4 15 -8 33 -8 96 -4 117 -7 117 -16 0 -5
4 -4 9 4 7 11 13 10 32 -8 12 -11 29 -21 37 -21 12 0 12 -3 2 -15 -11 -13 -10
-14 4 -9 9 3 23 1 30 -5 10 -9 16 -9 21 -1 5 8 11 8 20 0 8 -7 19 -9 24 -5 7
3 8 0 5 -9 -4 -10 -1 -16 9 -16 8 0 17 -4 19 -9 2 -5 12 -11 23 -13 11 -1 23
-7 26 -11 3 -4 16 -9 27 -10 12 -1 22 -6 22 -12 0 -5 5 -3 10 5 6 9 10 10 10
3 0 -6 -4 -14 -9 -17 -5 -3 -11 -15 -14 -26 -3 -11 -1 -18 4 -14 5 3 9 0 9 -6
0 -6 5 -8 12 -4 7 4 8 3 4 -5 -4 -6 -12 -9 -17 -6 -5 4 -9 -9 -10 -27 -1 -49
-6 -70 -19 -78 -7 -4 -11 -10 -11 -14 2 -14 -32 -56 -50 -61 -11 -4 -17 -10
-14 -15 3 -5 -4 -11 -15 -15 -11 -3 -20 -10 -20 -14 0 -4 -25 -20 -55 -35 -30
-16 -59 -34 -65 -41 -6 -8 -19 -11 -27 -8 -11 4 -14 2 -9 -5 6 -11 -5 -17 -26
-13 -5 0 -8 -4 -8 -10 0 -8 -6 -7 -17 2 -9 8 -14 9 -10 3 4 -7 0 -15 -9 -18
-8 -3 -12 -2 -9 4 3 6 -3 10 -15 10 -12 0 -19 -4 -16 -9 4 -5 -2 -7 -11 -5
-22 6 -140 -46 -168 -74 -32 -31 -77 -83 -127 -147 -79 -101 -110 -133 -150
-151 -21 -9 -38 -21 -38 -26 0 -5 -4 -7 -9 -3 -5 3 -12 1 -16 -5 -4 -6 -11 -8
-16 -5 -5 4 -9 -1 -9 -9 0 -9 -5 -16 -12 -16 -13 0 -80 -68 -105 -107 -8 -13
-19 -20 -24 -17 -5 3 -9 0 -9 -6 0 -7 -7 -9 -16 -6 -8 3 -12 2 -9 -4 3 -6 -5
-10 -19 -10 -37 0 -41 2 -41 27 -1 12 -5 26 -10 30 -4 5 -5 1 0 -7 5 -9 4 -12
-1 -7 -8 7 -10 25 -17 132 -1 17 -6 33 -12 37 -6 5 -5 8 3 8 7 0 10 5 6 11 -4
6 -8 30 -10 53 -2 22 -5 50 -7 61 -9 48 -19 113 -22 145 -2 19 -4 35 -5 35 -1
0 -3 25 -5 55 -1 30 -6 111 -11 180 -4 69 -8 162 -8 207 -1 48 -5 83 -11 83
-5 0 -3 5 5 11 11 8 12 12 2 16 -6 2 -9 10 -5 16 4 7 9 23 9 37 1 14 3 25 4
25 1 0 3 16 5 35 7 69 29 127 48 124 9 -1 17 2 17 7 0 6 4 8 9 4 6 -3 10 3 9
12 0 10 3 29 7 43 4 14 7 31 7 38 1 6 4 12 8 12 4 0 7 6 8 13 2 31 9 49 21 57
8 4 10 13 6 20 -6 9 -4 11 5 5 10 -6 12 -4 7 9 -4 10 -3 15 3 11 6 -3 10 -1
10 4 0 6 -6 11 -12 11 -7 0 -4 6 7 12 30 17 35 30 17 45 -15 13 -14 13 5 3 12
-5 25 -15 28 -20z m-2659 -569 c-10 -11 -13 -22 -8 -25 5 -3 15 1 22 9 7 8 9
15 5 15 -4 0 -2 7 5 15 8 9 17 12 24 6 6 -4 19 -7 29 -6 12 2 15 0 9 -8 -4 -7
-7 -18 -6 -24 1 -7 2 -18 3 -23 1 -7 7 -6 15 2 10 9 11 15 2 20 -8 5 -8 10 2
20 9 9 12 8 12 -6 0 -11 4 -15 13 -10 9 6 9 4 -1 -8 -14 -17 -1 -35 17 -23 21
12 19 -14 -5 -61 -14 -27 -24 -51 -24 -54 1 -2 -3 -5 -9 -7 -8 -1 -7 0 0 4 8
4 7 8 -2 14 -12 7 -12 9 0 9 11 0 9 4 -4 14 -15 11 -25 11 -40 4 -11 -6 -16
-7 -12 -2 4 4 -3 14 -15 21 l-23 14 25 -7 c22 -6 23 -5 11 9 -7 9 -17 15 -21
12 -4 -2 -13 7 -20 20 -16 30 -25 32 -27 5 -1 -11 2 -18 7 -15 12 7 21 -10 15
-27 -3 -7 -15 -20 -28 -27 -21 -13 -21 -13 -5 5 15 17 15 22 2 44 l-15 25 5
-25 c4 -22 4 -23 -8 -8 -7 10 -16 15 -19 11 -4 -3 -7 -1 -7 5 0 7 7 12 15 12
8 0 14 6 13 13 -2 6 3 11 10 10 6 -2 12 6 12 17 0 11 -4 20 -10 20 -5 0 -10 5
-10 12 0 9 3 9 12 0 17 -17 28 -15 28 5 0 13 3 14 12 5 9 -9 7 -16 -6 -31z
m2354 -712 c0 -5 5 -7 12 -3 7 4 8 3 4 -4 -4 -7 -1 -12 7 -12 15 0 32 -29 22
-38 -3 -3 -5 1 -5 9 0 12 -2 12 -10 -1 -6 -9 -5 -17 3 -23 7 -4 -2 -6 -20 -3
-21 3 -33 0 -34 -7 0 -7 -2 -22 -3 -34 -3 -23 4 -29 18 -16 11 11 37 12 30 1
-3 -5 2 -16 12 -24 11 -9 13 -13 7 -9 -23 11 -13 -6 18 -32 18 -15 28 -32 24
-40 -4 -11 -1 -13 10 -9 20 7 32 -21 16 -37 -8 -8 -11 -7 -11 6 0 15 -11 22
-32 18 -12 -2 -9 13 5 29 10 12 9 12 -6 1 -9 -8 -21 -10 -25 -6 -4 4 -1 10 6
12 6 3 12 9 12 15 0 6 -7 5 -16 -3 -13 -10 -17 -10 -25 2 -7 12 -9 12 -9 0 0
-8 -3 -11 -6 -8 -4 4 -1 13 6 22 10 13 9 15 -9 15 -11 0 -21 4 -21 9 0 6 9 8
20 6 22 -4 25 2 10 25 -9 13 -10 13 -10 0 0 -18 -45 -25 -55 -10 -4 6 1 7 12
3 17 -6 17 -5 -1 15 -10 12 -23 19 -29 15 -6 -4 -7 -1 -3 6 6 9 12 8 26 -4 16
-15 18 -14 18 10 0 20 -4 25 -17 20 -12 -5 -13 -4 -4 6 8 8 9 18 3 30 -7 12
-6 20 2 25 6 4 8 3 5 -3 -4 -6 1 -19 9 -29 9 -10 12 -13 9 -6 -4 8 1 19 11 27
15 11 16 15 5 29 -9 11 -10 16 -2 16 6 0 11 -5 11 -11z m585 -129 c3 -5 3 -10
-2 -10 -14 0 -9 -83 5 -86 7 -1 8 0 2 3 -5 2 -10 9 -10 14 0 6 4 8 9 5 5 -3 9
0 8 7 -1 42 4 61 12 48 5 -8 6 -22 2 -30 -5 -9 -7 -26 -5 -38 3 -15 -1 -23
-11 -23 -14 0 -20 -12 -16 -34 1 -5 -5 -6 -14 -3 -14 6 -19 -3 -16 -28 1 -5
-6 -1 -14 9 -14 18 -15 18 -15 2 0 -9 -4 -14 -10 -11 -5 3 -10 2 -10 -3 0 -15
-28 -23 -36 -10 -5 7 -2 8 6 3 9 -5 11 -4 6 4 -6 9 -11 9 -22 0 -11 -9 -14 -9
-14 0 0 7 -4 9 -10 6 -5 -3 -10 -1 -10 4 0 6 5 11 11 11 5 0 8 3 6 8 -3 4 1
13 9 20 13 11 18 9 16 -9 -1 -3 6 -6 14 -6 10 0 11 4 4 11 -5 5 -10 17 -10 25
0 8 3 12 6 8 8 -8 37 21 31 31 -3 4 1 16 9 27 8 10 14 14 14 9 0 -6 -6 -16
-12 -23 -10 -11 -10 -12 -1 -7 7 4 20 22 29 41 17 36 28 43 39 25z m641 -3029
c-10 -11 -12 -21 -6 -31 8 -13 10 -12 10 2 0 9 4 19 9 22 5 4 7 -4 4 -16 -4
-19 -3 -20 6 -8 8 11 11 12 11 2 0 -7 8 -12 18 -11 32 3 43 -1 36 -12 -4 -8
-9 -7 -15 2 -7 11 -9 11 -9 1 0 -7 -4 -11 -9 -7 -18 10 -21 -13 -4 -26 14 -12
16 -12 8 0 -6 10 -4 12 5 6 8 -5 11 -4 7 2 -3 5 4 9 16 8 12 -1 24 2 27 6 3 4
12 4 20 -1 13 -8 13 -10 -1 -10 -9 0 -16 -7 -16 -15 0 -8 4 -15 9 -15 4 0 8 5
8 10 0 6 5 10 10 10 20 0 10 -17 -17 -29 -16 -7 -25 -10 -21 -6 4 4 0 14 -8
22 -17 18 -30 11 -18 -9 14 -21 13 -35 -2 -35 -10 0 -11 4 -3 13 8 9 4 16 -12
24 -18 10 -21 10 -16 -2 3 -8 -1 -15 -8 -15 -7 0 -11 6 -8 13 2 7 -5 15 -16
19 -12 3 -21 10 -21 15 0 5 -9 7 -20 5 -11 -2 -18 0 -15 5 3 5 1 11 -5 15 -5
3 -10 2 -10 -3 0 -6 -8 -13 -17 -16 -10 -4 -14 -4 -11 0 4 4 3 15 -2 24 -7 13
-5 22 6 31 8 7 14 8 13 3 -4 -21 2 -35 11 -29 6 4 7 11 4 17 -4 5 4 4 17 -2
24 -13 24 -13 6 8 -12 13 -15 22 -7 27 6 3 10 3 9 -2 -3 -20 2 -25 16 -13 8 7
12 17 8 23 -4 6 -1 7 6 3 9 -6 9 -12 -3 -25z"/>
<path d="M4586 7554 c-5 -14 -9 -14 -23 -3 -9 8 -14 9 -10 3 12 -20 -18 -37
-33 -19 -7 8 -16 12 -22 9 -5 -3 -5 -11 2 -19 8 -10 5 -17 -12 -30 -15 -12
-17 -15 -5 -12 9 4 17 2 17 -3 0 -6 -7 -10 -16 -10 -9 0 -12 -5 -8 -12 5 -8
12 -5 24 10 12 14 20 18 27 11 7 -7 13 -7 18 0 4 8 17 3 37 -14 22 -18 34 -23
43 -15 6 5 15 6 19 2 4 -4 17 -7 29 -7 12 -1 28 -4 35 -8 24 -16 34 5 12 25
-15 14 -18 23 -11 32 6 7 6 17 0 26 -8 13 -11 12 -22 -5 -17 -28 -17 -57 -1
-51 7 3 16 1 18 -3 3 -5 -5 -8 -17 -7 -12 1 -21 7 -20 13 1 6 -4 16 -12 23 -7
6 -11 19 -8 28 3 12 -1 10 -14 -5 -17 -21 -45 -20 -45 2 0 4 6 12 14 16 10 7
10 9 -2 9 -12 0 -12 2 -1 9 8 5 9 11 3 15 -5 3 -13 -1 -16 -10z"/>
<path d="M7774 7182 c6 -10 -3 -12 -38 -11 -25 2 -49 0 -52 -4 -4 -4 -13 -2
-21 4 -7 7 -13 7 -13 2 0 -6 -15 -10 -32 -11 -18 0 -34 -5 -36 -10 -2 -6 -12
-8 -22 -5 -11 3 -20 1 -20 -4 0 -5 -8 -10 -17 -11 -31 -3 -48 -7 -59 -15 -6
-3 -41 -4 -77 -2 -53 4 -65 2 -61 -9 3 -8 0 -17 -7 -22 -7 -4 -10 -3 -6 3 4 6
-4 11 -19 11 -13 0 -23 -3 -20 -5 7 -8 -18 -31 -29 -27 -23 8 -49 -24 -35 -43
13 -17 13 -17 -4 -1 -17 15 -20 15 -41 -8 -12 -13 -25 -21 -28 -17 -4 3 -7 -1
-7 -11 0 -9 -4 -15 -9 -12 -5 4 -11 3 -13 -1 -1 -5 -21 -17 -43 -29 -22 -11
-39 -26 -37 -34 2 -11 0 -11 -11 -1 -12 9 -16 8 -21 -5 -3 -9 -13 -14 -21 -10
-8 3 -14 2 -13 -2 1 -4 -2 -15 -7 -26 -5 -11 -3 -26 3 -37 15 -23 15 -29 1
-29 -5 0 -8 4 -4 9 3 6 -5 15 -17 22 -20 11 -21 10 -11 -2 10 -12 8 -15 -10
-16 -12 -1 -27 -9 -33 -17 -6 -9 -14 -13 -17 -9 -9 8 -38 -17 -31 -28 3 -5 -2
-6 -10 -3 -9 3 -16 1 -16 -5 0 -6 -7 -11 -15 -11 -8 0 -15 -4 -15 -10 0 -5 -7
-10 -15 -10 -8 0 -15 -5 -15 -11 0 -5 -5 -7 -10 -4 -6 3 -13 -1 -16 -9 -3 -9
-10 -13 -15 -10 -6 3 -16 0 -24 -6 -8 -7 -15 -10 -15 -7 0 4 -29 -5 -64 -18
-35 -13 -66 -21 -70 -18 -3 4 -6 2 -6 -4 0 -13 49 -23 56 -12 3 5 11 9 17 9 7
0 4 -5 -5 -11 -10 -5 -18 -16 -18 -24 0 -9 -6 -12 -16 -8 -9 3 -20 0 -25 -8
-7 -11 -9 -9 -9 6 0 11 -5 27 -10 35 -8 11 -9 7 -4 -15 4 -20 3 -26 -4 -16 -6
8 -12 10 -16 3 -3 -6 -14 -10 -24 -10 -9 0 -32 -2 -50 -6 -17 -3 -32 -3 -31 1
3 21 -2 37 -9 27 -9 -13 -75 -28 -67 -14 3 5 -7 3 -22 -5 -15 -8 -33 -15 -39
-15 -6 0 -17 -7 -24 -15 -7 -8 -17 -12 -24 -8 -6 4 -5 -1 3 -10 12 -15 12 -17
-3 -11 -9 4 -16 1 -16 -6 0 -8 -8 -10 -21 -7 -16 4 -18 3 -8 -9 9 -11 9 -14
-1 -14 -7 0 -10 -7 -7 -15 8 -19 -11 -31 -26 -16 -7 7 -7 11 -1 11 6 0 11 7
11 15 0 17 -6 18 -26 6 -8 -5 -11 -16 -7 -26 5 -15 4 -16 -9 -5 -13 11 -14 10
-9 -5 6 -14 4 -16 -6 -10 -9 5 -11 4 -6 -3 4 -7 2 -12 -4 -12 -6 0 -8 -5 -5
-10 4 -6 2 -17 -5 -25 -7 -9 -8 -15 0 -20 5 -3 10 -17 10 -31 0 -13 5 -24 10
-24 6 0 10 -6 10 -13 0 -8 11 -19 25 -25 19 -9 25 -9 25 0 0 6 8 2 18 -8 18
-21 87 -58 112 -60 8 -1 31 -8 50 -16 23 -10 43 -12 58 -7 14 5 22 5 22 -3 0
-7 5 -6 15 2 8 7 15 8 15 3 0 -8 7 -10 65 -14 13 -1 22 -6 19 -10 -7 -13 19
-7 28 6 5 6 8 5 8 -3 0 -8 10 -11 30 -7 19 3 30 1 30 -6 0 -8 4 -8 14 0 10 8
16 9 21 1 3 -6 12 -7 18 -3 19 12 38 12 31 1 -3 -5 2 -9 12 -8 43 5 65 0 58
-12 -6 -10 -4 -10 8 0 11 9 18 10 23 2 3 -6 11 -7 17 -4 7 4 6 9 -2 14 -8 5
-7 9 4 13 9 4 15 3 15 -1 -4 -22 5 -30 40 -40 21 -7 48 -12 60 -12 11 0 21 -4
21 -8 0 -10 11 -12 78 -13 96 -2 120 3 133 30 7 15 12 29 11 32 0 3 11 4 26 2
42 -7 75 -4 86 7 6 6 20 10 33 10 13 0 23 5 23 11 0 5 4 8 9 4 6 -3 15 4 21
15 6 11 7 20 3 20 -4 0 0 5 10 11 14 8 15 14 5 32 -10 19 -9 21 4 9 13 -10 18
-10 24 -1 4 8 3 9 -4 5 -7 -4 -12 -3 -12 3 0 5 3 11 8 14 4 2 1 2 -7 0 -9 -2
-11 2 -7 13 4 11 -1 18 -14 21 -11 3 -20 9 -20 14 0 4 -10 -2 -23 -14 -13 -12
-22 -25 -20 -29 2 -5 -5 -8 -15 -8 -11 0 -25 -7 -32 -15 -9 -10 -17 -12 -23
-6 -15 15 -40 2 -27 -14 8 -10 8 -15 -1 -21 -8 -4 -9 -3 -5 4 4 7 1 12 -9 12
-11 0 -13 4 -8 13 4 6 9 21 9 32 1 11 2 28 3 38 0 10 5 16 10 13 5 -3 11 1 14
9 4 8 15 12 27 10 11 -2 18 0 15 6 -4 5 0 9 8 9 8 0 22 9 32 20 9 10 20 19 24
18 25 -3 51 4 46 12 -3 5 6 17 20 26 13 9 22 20 19 26 -19 31 40 38 204 25 23
-2 42 0 42 4 0 4 9 6 20 4 11 -2 20 0 20 6 0 5 7 9 15 9 17 0 34 30 27 49 -3
10 0 12 11 8 9 -3 19 -2 22 4 4 5 11 7 16 4 5 -3 6 0 3 8 -3 8 0 18 7 23 8 4
10 3 5 -4 -4 -7 -2 -12 4 -12 6 0 8 -4 5 -10 -3 -5 -1 -10 5 -10 6 0 9 -4 6
-8 -2 -4 4 -14 16 -21 11 -7 17 -8 13 -2 -3 6 -1 11 4 11 6 0 11 -4 11 -10 0
-5 9 -10 19 -10 11 0 23 -5 26 -10 5 -8 11 -8 20 0 10 8 15 8 20 0 5 -8 11 -8
21 1 12 9 13 9 9 -3 -4 -11 2 -14 25 -12 24 2 30 -2 30 -19 0 -16 3 -18 12 -9
15 15 32 16 23 2 -9 -15 28 -12 51 5 12 8 25 11 29 7 5 -4 6 0 3 8 -4 11 1 16
18 18 17 1 24 -4 25 -16 0 -11 2 -12 6 -4 3 9 10 7 24 -9 10 -12 19 -18 19
-13 0 5 5 1 11 -8 5 -10 17 -18 24 -18 8 0 15 -5 15 -11 0 -5 5 -7 10 -4 6 3
10 1 10 -5 0 -6 5 -8 10 -5 6 3 10 -1 10 -9 0 -9 6 -15 13 -13 7 1 11 -6 9
-17 -2 -11 1 -15 7 -11 6 3 11 -2 11 -13 0 -23 23 -45 35 -34 5 4 5 2 1 -5 -3
-6 -2 -14 4 -18 6 -4 7 -12 4 -18 -4 -7 -3 -9 1 -4 5 4 17 -1 28 -10 19 -17
20 -17 14 0 -4 11 -3 16 3 12 6 -3 10 -10 10 -16 0 -5 11 -22 24 -37 14 -15
33 -37 44 -49 10 -13 22 -19 26 -16 4 4 4 0 1 -9 -3 -8 1 -22 9 -31 9 -9 16
-22 16 -29 0 -7 9 -24 20 -38 11 -14 20 -30 20 -36 0 -6 13 -22 29 -35 28 -23
31 -28 31 -50 0 -5 4 -7 10 -4 6 3 7 -1 4 -9 -3 -9 -1 -16 6 -16 6 0 8 -4 5
-10 -3 -5 -1 -10 6 -10 7 0 10 -3 6 -6 -3 -4 1 -13 9 -22 14 -13 17 -13 26 -1
10 14 6 -1 -10 -40 -3 -9 -1 -12 6 -7 7 4 12 1 12 -8 0 -9 4 -16 9 -16 5 0 11
-13 14 -29 3 -16 13 -36 22 -44 8 -9 15 -21 15 -27 0 -22 26 -40 40 -27 10 9
11 9 5 -2 -6 -11 -4 -13 11 -6 54 22 84 15 84 -20 -1 -5 -5 -2 -11 8 -6 9 -15
15 -21 11 -6 -4 -5 -10 3 -15 11 -7 11 -9 -1 -9 -13 0 -13 -1 0 -11 13 -9 13
-10 0 -6 -8 2 -14 14 -14 25 1 24 -4 26 -25 13 -8 -5 -10 -14 -5 -22 6 -11 5
-12 -7 -2 -12 10 -15 8 -15 -10 0 -12 5 -25 10 -29 7 -5 6 -8 -2 -8 -8 0 -10
-5 -6 -12 4 -7 9 -36 10 -66 1 -29 8 -60 15 -68 10 -13 10 -17 0 -24 -11 -6
-11 -8 0 -12 12 -4 11 -8 -1 -23 -8 -10 -10 -16 -3 -12 7 5 13 -1 15 -15 2
-13 9 -22 16 -20 8 1 11 -2 7 -7 -3 -6 -13 -8 -23 -5 -15 5 -15 4 1 -6 15 -10
16 -14 5 -28 -7 -9 -8 -13 -3 -10 7 4 11 -11 12 -39 1 -26 8 -50 15 -54 10 -7
10 -9 1 -9 -7 0 -13 -5 -13 -11 0 -5 6 -7 13 -4 6 4 3 -1 -8 -11 -20 -16 -20
-16 3 -11 15 3 20 2 15 -6 -11 -18 -3 -146 12 -180 4 -9 5 -26 2 -37 -3 -12 0
-20 7 -20 7 0 13 -7 13 -15 0 -11 -3 -12 -14 -3 -11 9 -12 6 -3 -17 9 -24 8
-26 -6 -21 -13 5 -14 4 -6 -7 7 -8 9 -17 5 -21 -18 -17 -10 -46 11 -40 l21 6
-21 -15 c-23 -18 -33 -117 -11 -117 8 0 7 -4 -2 -9 -8 -5 -15 -27 -16 -48 -3
-61 -4 -65 -16 -57 -7 4 -10 1 -7 -7 6 -15 -21 -69 -35 -69 -4 0 -6 -4 -2 -9
3 -6 -4 -26 -15 -45 -11 -20 -17 -36 -14 -36 4 0 1 -6 -5 -14 -9 -10 -8 -16 4
-26 17 -14 20 -30 4 -30 -5 0 -8 4 -4 9 3 5 0 13 -6 16 -6 4 -13 -2 -16 -14
-3 -12 -10 -18 -17 -14 -6 4 -5 -1 3 -10 9 -12 10 -17 2 -17 -7 0 -9 -4 -6
-10 3 -6 1 -10 -5 -10 -7 0 -10 -6 -7 -14 3 -8 -1 -17 -8 -20 -9 -3 -12 -12
-8 -22 4 -12 3 -15 -5 -10 -7 4 -14 -3 -18 -19 -3 -14 -11 -25 -16 -25 -6 0
-8 -7 -4 -15 3 -8 0 -18 -7 -22 -7 -5 -12 -19 -13 -33 0 -16 -5 -24 -14 -22
-11 3 -11 0 0 -12 7 -9 8 -16 2 -16 -6 0 -9 -11 -7 -25 1 -14 -2 -25 -7 -25
-6 0 -8 -15 -6 -34 2 -21 0 -32 -6 -29 -5 4 -7 -1 -3 -9 3 -9 2 -19 -3 -24 -5
-5 -10 -27 -11 -49 -1 -22 -5 -44 -8 -49 -9 -18 -7 -55 4 -49 5 3 5 0 -2 -7
-10 -11 -9 -16 5 -27 14 -11 14 -12 1 -8 -9 3 -16 0 -17 -7 0 -7 -2 -27 -3
-45 -1 -19 -6 -30 -12 -26 -6 4 -8 0 -4 -10 3 -10 2 -17 -4 -17 -6 0 -8 -4 -5
-9 3 -5 -1 -12 -10 -15 -13 -5 -14 -9 -5 -20 9 -11 8 -17 -6 -28 -10 -7 -19
-20 -21 -28 -2 -8 -7 -17 -11 -20 -14 -9 -40 -67 -34 -74 4 -3 2 -6 -3 -6 -9
0 -13 -14 -16 -57 -1 -7 -4 -13 -7 -13 -3 0 -6 -19 -6 -42 0 -24 -4 -49 -8
-55 -5 -7 -7 -19 -4 -28 4 -8 2 -17 -3 -20 -5 -3 -7 -14 -5 -25 2 -11 0 -20
-5 -20 -5 0 -7 -9 -5 -20 2 -11 -1 -20 -6 -20 -6 0 -8 -4 -4 -9 3 -5 0 -13 -6
-17 -8 -4 -7 -9 2 -15 11 -7 11 -9 -2 -9 -11 0 -15 -9 -14 -30 1 -16 -2 -27
-5 -25 -4 3 -10 -6 -12 -20 -3 -13 -2 -22 3 -20 4 3 11 1 14 -5 4 -6 3 -10 -2
-9 -22 5 -40 -14 -38 -42 1 -18 -4 -33 -13 -38 -9 -5 -13 -15 -8 -26 5 -15 4
-16 -9 -5 -20 17 -20 -4 1 -24 14 -15 13 -16 -8 -14 -13 2 -23 -2 -23 -10 0
-8 -9 -20 -19 -28 -11 -8 -15 -14 -9 -14 7 0 15 5 18 10 3 6 12 10 18 10 7 0
-1 -8 -16 -18 -18 -11 -26 -23 -23 -34 2 -10 -1 -21 -6 -25 -7 -3 -8 -1 -4 5
4 7 3 12 -2 12 -6 0 -13 -11 -16 -25 -4 -14 -11 -23 -17 -20 -6 4 -8 -3 -5
-19 3 -19 1 -23 -10 -19 -9 3 -14 0 -12 -8 2 -8 -2 -13 -8 -12 -6 1 -10 -9 -8
-22 1 -18 -5 -28 -24 -38 -15 -7 -26 -19 -25 -25 2 -7 -2 -12 -8 -12 -6 0 -17
-7 -25 -15 -9 -8 -12 -15 -8 -15 3 0 1 -6 -6 -14 -6 -8 -19 -12 -27 -9 -13 5
-15 2 -9 -13 5 -14 4 -16 -4 -8 -12 12 -68 -32 -62 -48 1 -5 -4 -7 -11 -5 -6
1 -11 -4 -9 -11 1 -7 -4 -15 -12 -18 -8 -3 -12 -12 -9 -20 3 -7 -2 -17 -11
-20 -9 -4 -23 -22 -31 -40 -8 -19 -20 -34 -27 -34 -17 0 -41 -37 -28 -45 8 -5
7 -16 -5 -65 -2 -8 -4 -19 -4 -23 -1 -5 -5 -6 -10 -3 -4 3 -8 -4 -7 -17 1 -13
-4 -21 -11 -20 -7 2 -12 0 -12 -5 1 -4 0 -9 -1 -12 -3 -8 -10 -44 -12 -61 -1
-9 -8 -15 -15 -12 -9 3 -11 0 -7 -10 3 -9 -3 -21 -15 -29 -12 -8 -18 -18 -14
-21 3 -4 2 -7 -4 -7 -6 0 -16 -14 -23 -30 -7 -17 -16 -30 -21 -30 -5 0 -6 -7
-3 -15 4 -8 1 -15 -5 -15 -6 0 -11 -7 -11 -15 0 -8 -5 -15 -11 -15 -5 0 -8 -4
-5 -9 3 -5 -1 -11 -9 -15 -8 -3 -15 -12 -15 -21 0 -8 -6 -15 -12 -15 -9 0 -8
-4 2 -10 13 -9 13 -10 0 -10 -13 0 -13 -1 0 -10 20 -13 43 -13 35 0 -10 16 1
11 16 -7 8 -10 9 -14 2 -10 -6 4 -14 3 -17 -2 -7 -10 20 -9 30 2 12 11 26 8
18 -4 -4 -8 0 -8 15 0 11 7 21 14 21 17 0 3 -6 2 -12 -2 -10 -5 -10 -3 0 7 14
16 36 -6 25 -25 -3 -5 -1 -6 6 -2 6 4 8 13 4 19 -4 8 -1 7 9 -1 10 -8 19 -9
22 -3 4 5 16 8 27 6 19 -4 20 -3 7 13 -8 9 -15 28 -16 41 -1 22 0 22 13 5 7
-10 11 -23 8 -28 -4 -5 -1 -6 6 -2 6 4 8 13 4 19 -13 21 -12 38 3 44 8 3 12 9
9 13 -3 5 0 12 6 16 8 5 9 3 4 -5 -6 -10 -3 -11 14 -2 12 7 25 9 30 7 5 -3 11
1 14 9 5 11 1 12 -19 5 -17 -7 -31 -7 -42 1 -15 9 -15 10 1 5 13 -4 20 0 24
14 6 22 14 25 29 10 7 -7 11 -6 11 4 0 8 -4 13 -8 11 -3 -3 -9 4 -12 16 -4 16
-3 18 8 9 10 -8 15 -8 21 1 4 7 3 9 -3 6 -6 -4 -14 0 -17 9 -3 8 -2 12 4 9 14
-8 13 8 -1 22 -8 8 -5 14 11 23 18 10 20 14 9 21 -12 7 -12 9 0 9 7 0 11 6 8
14 -4 10 -1 13 8 10 8 -3 11 -13 8 -22 -4 -13 -3 -14 5 -3 5 7 7 21 5 31 -3
10 4 24 16 32 12 8 18 18 13 22 -4 4 -2 7 3 6 20 -4 30 1 17 9 -11 7 -11 9 2
14 9 4 15 3 15 -1 -3 -19 2 -25 11 -12 7 11 10 11 10 2 0 -8 5 -10 13 -6 6 4
0 -5 -16 -21 -15 -15 -27 -33 -26 -39 3 -23 -1 -37 -9 -32 -4 2 -8 -13 -9 -34
-1 -37 26 -68 35 -41 2 6 8 9 13 5 5 -3 9 0 9 7 0 8 4 8 15 -1 13 -11 14 -10
9 3 -4 11 2 20 20 28 14 7 24 15 21 18 -2 4 6 13 18 21 20 12 21 12 8 -3 -9
-12 -10 -17 -2 -17 7 0 9 -5 5 -12 -5 -8 -2 -9 9 -5 12 4 17 1 18 -11 0 -14 2
-14 9 3 5 11 9 16 9 12 1 -4 7 -2 15 5 8 7 12 16 10 20 -2 4 5 9 16 13 11 3
20 10 20 15 0 4 7 11 16 14 10 4 13 2 8 -7 -6 -8 -3 -8 9 1 9 8 20 11 25 8 6
-3 15 1 22 10 7 8 19 13 27 10 8 -3 12 -2 10 2 -3 4 1 13 9 20 8 7 14 10 14 7
0 -8 32 26 65 70 30 40 33 49 37 95 1 14 9 34 17 44 9 11 10 16 4 12 -7 -4
-13 -2 -13 3 0 6 5 11 11 11 5 0 7 4 4 10 -3 6 -1 10 5 10 6 0 9 4 5 10 -3 5
3 18 14 29 11 11 17 22 14 25 -3 3 1 8 10 12 9 3 13 12 10 20 -3 8 3 24 13 36
12 14 14 18 4 13 -11 -6 -10 -3 3 12 9 11 14 23 10 26 -3 4 -1 7 5 7 7 0 11 3
10 8 -3 12 23 82 31 82 11 0 32 50 25 61 -3 5 2 12 10 15 9 3 16 15 16 26 0
10 4 17 8 14 4 -2 8 4 9 14 1 10 11 37 22 61 12 23 21 48 21 55 0 7 4 14 9 16
5 2 11 14 13 28 1 14 7 28 12 32 6 3 11 19 14 35 2 15 7 32 13 38 5 5 9 17 9
27 0 10 4 18 9 18 5 0 8 11 6 25 -1 14 1 25 5 25 8 0 23 39 21 53 -1 4 4 7 10
7 5 0 7 5 4 10 -3 6 -2 10 3 10 5 0 9 10 8 23 0 12 4 21 11 20 7 -2 10 4 7 12
-4 8 -1 15 4 15 10 0 27 60 22 76 -1 4 4 10 11 15 7 4 14 16 15 26 2 9 8 19
14 21 5 2 8 8 4 13 -3 5 0 9 5 9 6 0 10 3 10 8 -3 19 2 33 11 27 5 -3 7 0 4 8
-3 8 6 27 19 43 13 16 30 44 38 62 8 17 17 32 21 32 5 0 8 7 8 15 0 8 5 15 11
15 5 0 8 4 5 8 -3 5 3 18 12 28 16 16 30 44 32 59 0 2 12 17 25 31 14 15 25
33 25 41 0 7 7 16 15 19 8 4 13 10 10 14 -3 5 -1 11 5 15 6 4 8 11 5 16 -4 5
-2 9 3 9 5 0 13 10 17 23 4 12 8 24 10 27 1 3 9 21 18 40 8 19 19 39 24 43 8
9 9 13 12 41 0 8 7 21 14 28 15 15 17 20 17 47 0 11 6 26 13 33 8 7 13 21 11
31 -1 9 2 17 7 17 5 0 8 3 8 8 -4 18 14 71 22 66 5 -3 6 1 3 9 -3 8 0 35 7 58
7 24 13 52 12 62 0 9 4 17 9 17 5 0 7 3 5 8 -3 4 8 34 23 66 16 33 27 63 24
68 -3 4 0 8 7 8 8 0 8 4 -1 15 -11 13 -10 14 6 9 10 -4 16 -4 12 1 -4 4 -1 13
7 19 17 13 27 59 42 196 8 78 7 421 -2 467 -3 18 -8 45 -9 60 -2 16 -5 30 -6
33 -1 3 -3 14 -4 25 -2 27 -47 168 -58 180 -4 5 -8 17 -8 26 0 10 -5 19 -10
21 -6 2 -12 13 -13 26 0 12 -5 22 -9 22 -4 0 -5 9 -3 20 2 11 -1 22 -6 25 -5
4 -7 11 -4 16 4 5 1 9 -4 9 -6 0 -11 9 -11 20 0 11 -5 20 -12 20 -6 0 -9 3 -5
6 3 3 -5 27 -17 52 -13 26 -29 61 -37 79 -7 17 -17 29 -21 27 -4 -3 -8 3 -8
14 0 10 -9 27 -20 37 -11 10 -20 27 -20 38 0 11 -9 28 -21 38 -24 21 -25 29
-7 40 10 7 10 9 1 9 -7 0 -13 9 -13 20 0 11 -7 20 -15 20 -18 0 -20 20 -2 20
7 1 5 6 -5 14 -10 7 -15 16 -11 19 3 4 1 7 -6 7 -7 0 -9 5 -6 10 3 6 1 10 -5
10 -6 0 -8 5 -5 10 3 6 2 10 -4 10 -5 0 -16 12 -24 28 -37 71 -43 79 -60 76
-15 -2 -16 0 -6 12 6 8 7 14 2 14 -5 0 -16 11 -23 25 -7 13 -17 22 -21 19 -5
-3 -6 3 -2 12 5 14 3 16 -12 11 -16 -7 -16 -5 -4 10 8 9 10 14 4 12 -5 -3 -18
2 -27 13 -10 10 -15 18 -12 18 3 0 -13 18 -35 40 -22 22 -38 40 -35 40 3 0
-11 15 -30 34 -20 18 -36 39 -36 45 0 7 -4 10 -9 7 -5 -3 -12 1 -15 9 -3 8 -9
15 -13 14 -25 -4 -53 2 -48 11 5 9 -24 15 -48 11 -5 -1 -6 3 -2 9 3 5 -7 15
-22 22 -15 7 -30 16 -33 19 -3 4 -14 9 -25 11 -11 1 -25 12 -32 23 -9 15 -12
16 -13 5 0 -12 -3 -11 -11 3 -6 9 -14 15 -20 12 -5 -4 -9 -1 -9 4 0 6 -7 11
-15 11 -8 0 -15 5 -15 10 0 6 -5 10 -11 10 -6 0 -25 10 -42 22 -18 13 -38 21
-45 20 -8 -2 -11 1 -7 7 5 10 -15 16 -38 12 -5 -1 -6 3 -2 9 3 5 0 10 -9 10
-8 0 -16 4 -18 9 -1 5 -10 11 -18 13 -8 2 -21 9 -28 16 -8 7 -18 10 -23 7 -5
-4 -9 -1 -9 4 0 6 -7 11 -15 11 -9 0 -18 6 -21 14 -3 8 -12 12 -20 9 -8 -3
-14 0 -14 6 0 6 -9 11 -20 11 -11 0 -20 5 -20 12 0 6 -3 9 -6 5 -4 -3 -35 14
-70 39 -34 25 -73 47 -86 49 -13 3 -24 9 -26 15 -2 6 -8 7 -13 4 -6 -3 -16 0
-24 6 -12 10 -15 10 -15 -1 0 -12 -2 -12 -9 0 -6 10 -10 10 -16 1 -5 -8 -12
-7 -26 6 -19 17 -26 10 -19 -21 1 -5 -2 -6 -7 -2 -4 5 -8 13 -8 19 0 6 -8 12
-17 14 -10 1 -18 -3 -18 -9 0 -6 -7 -2 -16 9 -8 10 -12 13 -8 5 6 -11 1 -13
-25 -8 -24 5 -30 4 -25 -6 5 -8 2 -7 -9 2 -9 7 -17 10 -17 6 0 -4 -8 -1 -17 6
-13 11 -15 11 -9 1z"/>
<path d="M1674 6515 c-10 -8 -15 -15 -10 -15 6 0 1 -7 -10 -16 -18 -15 -18
-15 3 -5 16 8 24 8 29 -1 4 -7 3 -8 -5 -4 -6 4 -14 0 -17 -8 -3 -9 -10 -14
-14 -11 -4 2 -16 -5 -26 -17 -12 -14 -14 -19 -4 -13 12 6 13 5 3 -6 -19 -19
-16 -43 6 -59 11 -7 18 -17 15 -22 -3 -4 6 -3 20 4 14 6 26 19 26 28 0 10 7
23 15 30 18 15 20 -1 3 -19 -11 -10 -10 -11 5 -6 9 4 17 10 18 14 0 3 2 20 4
38 4 28 2 31 -18 27 l-22 -5 23 10 c30 14 28 30 -9 58 -13 10 -19 10 -35 -2z"/>
<path d="M3203 4622 c-7 -4 -28 -7 -48 -7 -24 1 -34 -2 -31 -10 2 -6 -2 -12
-10 -12 -7 0 -11 4 -8 8 2 4 0 10 -6 14 -5 3 -10 1 -10 -6 0 -6 -8 -9 -20 -6
-11 3 -18 1 -15 -3 3 -5 -8 -14 -25 -22 -16 -7 -30 -17 -30 -21 0 -5 -4 -5
-10 -2 -5 3 -10 -2 -10 -12 0 -15 -2 -16 -10 -3 -6 10 -10 11 -10 3 0 -7 -7
-13 -15 -13 -9 0 -26 -11 -39 -25 -13 -13 -26 -22 -29 -18 -4 3 -7 1 -7 -6 0
-7 -4 -9 -10 -6 -5 3 -10 -1 -10 -9 0 -9 -6 -15 -12 -13 -7 1 -12 -4 -10 -11
1 -8 -2 -11 -6 -8 -11 7 -44 -28 -37 -37 3 -4 2 -5 -2 -2 -8 6 -93 -76 -93
-91 0 -7 -7 -15 -16 -18 -8 -3 -13 -10 -10 -14 3 -5 -3 -18 -14 -30 -12 -13
-16 -23 -9 -27 7 -5 7 -11 0 -19 -6 -7 -8 -16 -4 -19 3 -4 1 -7 -4 -7 -6 0
-10 -7 -9 -17 2 -9 -3 -39 -9 -67 -6 -28 -10 -66 -10 -84 1 -18 -2 -35 -7 -38
-5 -3 -3 -13 4 -22 11 -14 10 -15 -7 -8 -11 4 -16 4 -12 0 4 -4 0 -18 -8 -31
-9 -13 -13 -23 -10 -23 4 0 -1 -7 -9 -16 -9 -8 -16 -24 -16 -35 0 -10 -5 -19
-11 -19 -6 0 -9 -6 -6 -14 3 -7 -1 -25 -8 -39 -7 -14 -11 -28 -8 -31 3 -3 -2
-12 -11 -21 -9 -9 -16 -23 -16 -31 0 -8 -5 -12 -10 -9 -6 4 -9 2 -8 -3 4 -12
-44 -91 -55 -92 -5 0 -5 -4 -2 -10 3 -5 2 -10 -4 -10 -6 0 -8 -6 -5 -14 3 -8
0 -17 -5 -21 -6 -3 -9 -11 -6 -16 4 -5 -1 -12 -9 -15 -9 -3 -16 -15 -16 -25 0
-11 -11 -24 -24 -30 -14 -7 -22 -17 -19 -25 3 -8 0 -14 -7 -14 -7 0 -10 -7 -7
-15 4 -8 1 -17 -5 -21 -7 -5 -8 -2 -3 6 6 9 4 11 -4 5 -7 -4 -11 -18 -8 -31 2
-13 1 -24 -4 -24 -12 0 -25 -49 -32 -122 -1 -9 -4 -15 -7 -13 -4 2 -14 -11
-23 -30 -10 -22 -13 -35 -6 -35 6 0 9 -7 5 -15 -3 -10 1 -15 12 -16 76 -5 112
-4 112 4 0 5 7 4 15 -3 10 -9 15 -9 15 -1 0 6 9 11 20 11 12 0 39 9 61 19 21
11 36 14 33 8 -4 -7 3 -2 15 11 12 12 26 20 32 17 5 -4 9 -1 9 5 0 6 4 9 9 5
6 -3 15 4 21 15 6 11 15 18 20 15 5 -3 11 -1 15 5 4 6 11 8 16 5 5 -3 6 2 2
11 -4 12 -3 15 5 10 7 -4 12 -2 12 3 0 6 7 11 15 11 8 0 23 9 32 20 10 11 23
20 30 20 7 0 10 9 8 21 -4 17 -2 19 10 9 13 -11 19 -8 17 11 -1 11 37 28 43
19 4 -6 -1 -13 -9 -16 -9 -3 -13 -10 -10 -15 3 -5 0 -9 -6 -9 -6 0 -8 -4 -5
-10 9 -14 -9 -12 -24 3 -10 10 -11 9 -6 -5 4 -10 -2 -25 -14 -37 -12 -12 -21
-18 -21 -15 0 7 -83 -78 -101 -104 -8 -11 -36 -34 -64 -53 -27 -19 -63 -47
-80 -64 -29 -29 -111 -73 -127 -67 -5 1 -8 -5 -8 -14 0 -8 -4 -12 -10 -9 -5 3
-10 1 -10 -4 0 -6 -7 -11 -16 -11 -10 0 -14 -6 -11 -14 4 -11 1 -13 -11 -9 -9
3 -14 3 -10 -2 4 -4 -4 -17 -18 -28 -14 -10 -23 -26 -20 -33 3 -8 1 -14 -5
-14 -6 0 -7 -4 -4 -10 6 -10 -15 -14 -44 -11 -7 2 -10 -2 -6 -8 5 -9 -14 -14
-41 -10 -4 0 -10 -5 -15 -12 -4 -7 -18 -14 -31 -14 -13 -1 -40 -9 -60 -18 -21
-9 -42 -17 -48 -17 -6 0 -8 -4 -5 -10 3 -5 0 -10 -8 -10 -8 0 -27 -12 -43 -27
-16 -15 -32 -26 -36 -25 -5 1 -8 -1 -8 -6 0 -4 -27 -36 -59 -70 -39 -42 -58
-70 -56 -83 2 -10 -1 -22 -7 -25 -7 -4 -8 -2 -4 4 4 7 1 12 -9 12 -13 0 -14
-4 -4 -22 9 -18 9 -21 -1 -11 -14 12 -43 6 -35 -8 3 -4 -3 -6 -13 -4 -19 3
-109 -70 -104 -86 1 -5 -2 -9 -8 -9 -5 0 -10 -5 -10 -11 0 -5 5 -7 12 -3 7 5
8 3 4 -5 -5 -7 -10 -10 -13 -7 -3 3 -15 0 -27 -6 -17 -9 -19 -8 -8 3 6 7 12
17 12 22 0 5 -10 -2 -21 -17 -12 -16 -27 -25 -36 -22 -8 3 -11 1 -8 -4 3 -6
-1 -13 -10 -16 -12 -5 -13 -9 -4 -20 10 -12 9 -13 -5 -8 -15 6 -22 -15 -17
-48 0 -4 -8 -5 -18 -3 -10 2 -31 -8 -46 -21 -15 -13 -24 -24 -19 -24 5 0 1 -5
-9 -11 -9 -6 -15 -14 -12 -20 4 -5 -2 -6 -12 -2 -10 3 -15 2 -11 -2 5 -5 -1
-15 -12 -22 -11 -8 -18 -19 -14 -24 3 -5 2 -9 -3 -8 -19 3 -34 -2 -28 -10 3
-5 -4 -13 -16 -16 -13 -5 -18 -12 -14 -22 5 -13 3 -14 -10 -3 -13 11 -16 11
-13 -1 2 -9 -4 -13 -16 -11 -10 2 -15 -1 -12 -7 4 -5 -7 -18 -24 -27 -16 -10
-30 -22 -30 -27 0 -4 -4 -5 -10 -2 -5 3 -10 -1 -10 -9 0 -10 -6 -13 -17 -9
-10 4 -14 2 -10 -4 4 -6 -3 -13 -14 -16 -16 -4 -20 -11 -15 -24 5 -13 4 -15
-4 -7 -13 13 -60 -23 -60 -46 0 -7 -7 -10 -15 -6 -8 3 -14 2 -12 -3 3 -11 -74
-81 -84 -75 -5 3 -6 -3 -2 -13 3 -10 3 -15 -1 -12 -4 4 -27 -13 -51 -36 -24
-24 -53 -46 -65 -50 -11 -3 -17 -11 -14 -17 4 -6 1 -9 -6 -6 -8 2 -22 -4 -33
-15 -10 -10 -25 -16 -32 -13 -7 2 -16 -2 -19 -10 -3 -8 -13 -14 -21 -14 -9 0
-13 -5 -10 -10 4 -6 -5 -10 -20 -10 -21 0 -26 -4 -21 -16 5 -14 4 -15 -9 -4
-14 11 -19 7 -16 -12 0 -5 -2 -7 -7 -7 -21 4 -34 -3 -44 -26 -6 -13 -15 -22
-19 -19 -5 3 -9 -4 -9 -15 0 -10 6 -22 13 -25 6 -3 1 -3 -12 0 -19 5 -23 3
-18 -10 4 -9 1 -15 -6 -13 -7 1 -12 -7 -11 -19 1 -14 -5 -21 -15 -20 -10 1
-15 -6 -13 -16 2 -10 -1 -18 -6 -18 -7 0 -8 -33 -2 -50 1 -3 2 -9 1 -13 -1 -5
3 -6 9 -2 5 3 10 1 10 -5 0 -6 5 -8 10 -5 8 5 7 12 -2 23 -11 15 -11 15 3 5
12 -10 18 -10 30 0 7 6 11 8 7 3 -7 -8 14 -36 28 -36 4 0 13 -8 20 -17 10 -13
13 -14 14 -4 0 11 3 11 15 1 13 -11 14 -10 9 5 -6 15 -3 17 14 13 25 -7 19 18
-6 26 -10 2 0 3 21 0 35 -4 37 -3 27 16 -6 11 -7 20 -3 20 4 0 2 5 -5 12 -17
17 -15 33 3 18 8 -7 14 -20 13 -29 -2 -11 4 -16 21 -16 15 0 25 7 27 18 1 10
-4 17 -13 17 -12 0 -13 -3 -4 -13 8 -10 7 -14 -3 -14 -8 0 -13 8 -11 19 2 10
0 16 -5 13 -5 -3 -11 -1 -15 5 -3 5 0 10 8 10 8 0 20 7 27 15 15 18 -1 20 -18
3 -7 -7 -12 -8 -12 -3 0 6 -5 3 -11 -5 -9 -12 -10 -11 -5 5 5 16 3 16 -13 -5
-11 -14 -21 -23 -23 -20 -27 38 -31 44 -19 33 16 -14 42 -6 35 11 -3 8 -17 12
-33 10 -19 -2 -28 1 -28 11 0 8 5 11 10 8 6 -4 8 0 4 10 -3 9 -2 19 3 22 9 5
14 -14 12 -36 -1 -4 13 -5 31 -3 18 1 26 0 20 -3 -18 -7 -16 -24 2 -17 8 4 15
1 15 -6 0 -6 5 -8 10 -5 8 5 7 11 -1 21 -15 19 -2 18 17 -1 18 -18 38 -20 28
-3 -4 6 -3 8 3 5 6 -4 13 0 17 8 6 17 26 20 26 4 0 -5 -4 -7 -10 -4 -5 3 -10
2 -10 -4 0 -5 3 -11 8 -14 4 -2 1 -2 -6 -1 -7 2 -17 -8 -22 -22 -14 -35 -13
-36 10 -24 23 12 57 -11 45 -30 -9 -15 -28 -12 -19 3 4 6 -2 3 -14 -7 -24 -21
-28 -36 -11 -36 5 0 7 5 3 12 -5 8 0 9 14 6 12 -4 22 -2 22 4 0 5 4 6 10 3 5
-3 20 0 32 7 13 7 30 11 38 10 11 -2 9 2 -4 13 -11 8 -15 15 -9 15 7 0 15 -5
18 -10 4 -6 11 -8 16 -5 5 4 9 2 9 -3 0 -12 -29 -24 -41 -17 -5 4 -6 -1 -3 -9
3 -9 12 -12 22 -8 15 5 15 4 3 -11 -12 -15 -12 -17 3 -11 9 3 16 1 16 -5 0 -6
7 -11 16 -11 9 0 12 -5 8 -12 -5 -8 0 -7 12 2 37 29 44 39 44 64 0 15 8 31 20
38 11 7 20 17 20 23 0 9 14 28 60 82 5 7 10 16 10 22 0 9 30 25 43 23 4 -1 7
2 7 6 0 5 15 17 34 27 19 11 33 22 31 25 -5 8 45 35 57 32 5 -1 7 3 5 10 -1 7
3 12 8 13 6 0 16 4 22 8 7 5 13 5 14 0 0 -4 4 2 10 15 5 13 13 21 18 18 4 -3
16 3 26 14 10 11 22 17 26 14 5 -3 9 -1 9 5 0 5 10 13 22 17 13 4 34 15 48 24
70 48 140 90 149 90 6 0 11 5 11 11 0 5 4 8 9 4 5 -3 12 -1 16 5 4 6 10 8 15
5 4 -3 10 1 13 9 3 8 31 26 61 41 31 15 56 31 56 36 0 5 6 9 13 9 7 0 22 8 33
17 38 35 58 49 50 35 -7 -11 -4 -11 12 -1 12 7 19 16 17 19 -2 3 5 7 16 8 47
4 49 5 38 18 -8 9 -5 11 10 7 12 -3 21 -1 21 4 0 5 14 17 30 26 17 10 30 15
30 12 0 -4 7 1 16 10 9 9 23 14 31 11 8 -3 11 -2 8 4 -7 11 32 33 45 25 5 -3
12 0 17 7 4 7 22 20 38 28 17 8 33 19 37 24 3 5 14 11 23 12 9 1 25 10 34 18
10 9 21 13 24 9 4 -3 7 -1 7 6 0 7 4 10 8 7 5 -3 18 3 30 14 11 11 32 22 46
26 14 3 26 11 26 16 0 6 8 4 17 -3 11 -10 14 -10 9 -1 -5 8 1 12 18 12 14 0
26 5 26 11 0 5 4 8 9 5 10 -6 61 16 61 27 0 4 8 7 18 7 10 0 28 9 39 20 18 16
22 17 27 4 6 -16 37 -4 66 27 8 9 21 14 28 12 6 -3 12 0 12 7 0 6 4 9 8 6 5
-3 18 4 30 14 12 11 26 20 32 20 5 0 9 6 8 13 -2 6 3 11 10 9 6 -1 12 2 12 8
0 5 4 10 10 10 12 0 53 33 97 78 17 17 35 32 40 32 4 0 17 13 28 30 11 16 29
31 40 34 11 3 30 14 42 26 12 11 26 20 31 20 5 0 19 11 32 25 13 14 20 25 16
25 -4 0 0 7 8 16 9 8 16 21 16 27 0 7 13 27 29 45 17 17 27 32 24 32 -3 0 5
10 18 23 13 13 33 36 44 52 63 89 174 227 188 233 4 2 7 9 7 15 0 7 16 30 35
51 18 22 33 42 33 45 -1 3 5 20 12 36 17 38 21 56 21 77 0 10 5 20 10 23 5 4
7 11 3 16 -6 10 39 110 62 137 8 9 14 22 15 27 0 6 8 18 16 28 9 9 13 17 9 17
-4 0 2 12 13 26 12 15 21 35 21 45 0 11 5 19 12 19 6 0 8 3 5 7 -7 6 29 73 46
84 5 3 8 8 7 10 -3 9 13 39 19 35 12 -8 18 177 7 239 -4 22 -9 49 -10 60 -2
11 -5 21 -6 23 -1 1 -3 5 -4 10 -6 27 -32 93 -49 122 -32 59 -61 104 -75 120
-46 52 -99 100 -110 100 -7 0 -10 5 -7 10 3 6 -3 10 -14 10 -12 0 -21 5 -21
10 0 6 -7 10 -16 10 -9 0 -12 5 -8 12 4 7 3 8 -5 4 -6 -4 -25 -1 -41 8 -17 8
-32 10 -35 5 -4 -5 -17 -2 -31 7 -19 13 -24 14 -24 3 0 -9 -3 -10 -8 -4 -12
17 -58 12 -54 -5 2 -8 0 -11 -5 -7 -4 5 -8 13 -8 18 0 5 -4 8 -10 7 -5 -2 -9
-7 -7 -13 1 -5 -4 -2 -11 8 -16 20 -52 24 -41 5 6 -10 5 -10 -7 -1 -8 6 -20 9
-26 5z m18 -629 c2 -54 -1 -147 -6 -164 -4 -12 -2 -19 7 -19 8 0 9 -3 3 -8
-14 -10 -50 -84 -48 -99 0 -7 -3 -14 -8 -14 -5 -1 -13 -2 -18 -3 -5 0 -13 -5
-18 -9 -4 -5 -1 -7 7 -5 9 2 14 -3 11 -12 -2 -8 -4 -27 -4 -42 0 -15 -4 -25
-9 -22 -4 3 -8 0 -8 -6 0 -6 -4 -8 -10 -5 -5 3 -10 -1 -10 -9 0 -16 -18 -31
-26 -23 -3 3 -1 14 5 26 6 11 7 22 3 25 -9 5 -12 -9 -13 -52 -1 -16 -6 -22
-18 -20 -9 2 -23 -5 -32 -16 -16 -20 -17 -20 -14 7 2 18 -1 27 -11 27 -9 0
-12 5 -9 10 3 6 1 10 -5 10 -7 0 -10 7 -6 15 3 8 0 15 -6 15 -9 0 -9 3 0 12 7
7 12 23 12 36 0 15 4 21 12 16 7 -4 8 -3 4 5 -4 7 2 15 16 20 13 6 18 10 11
10 -6 1 2 15 19 31 21 21 28 36 23 48 -4 9 -9 30 -11 45 -2 16 -7 33 -10 39
-4 7 -2 8 4 4 10 -6 16 4 14 25 -1 3 6 6 13 6 11 0 12 -4 4 -13 -8 -9 -5 -11
10 -7 12 3 19 9 16 13 -8 13 22 19 35 7 10 -9 11 -9 5 2 -4 7 -3 16 4 20 6 4
13 21 14 38 1 17 5 29 8 27 4 -2 9 3 13 11 8 21 26 19 27 -2z"/>
</g>
</svg>
