<?xml version="1.0" encoding="UTF-8" standalone="no"?>
<svg
   version="1.0"
   width="1024.000000pt"
   height="1024.000000pt"
   viewBox="0 0 1024.000000 1024.000000"
   preserveAspectRatio="xMidYMid meet"
   id="svg16"
   sodipodi:docname="ã‚.svg"
   xmlns:inkscape="http://www.inkscape.org/namespaces/inkscape"
   xmlns:sodipodi="http://sodipodi.sourceforge.net/DTD/sodipodi-0.dtd"
   xmlns="http://www.w3.org/2000/svg"
   xmlns:svg="http://www.w3.org/2000/svg">
  <defs
     id="defs20" />
  <sodipodi:namedview
     id="namedview18"
     pagecolor="#ffffff"
     bordercolor="#666666"
     borderopacity="1.0"
     inkscape:pageshadow="2"
     inkscape:pageopacity="0.0"
     inkscape:pagecheckerboard="0"
     inkscape:document-units="pt" />
  <metadata
     id="metadata2">
Created by potrace 1.16, written by Peter Selinger 2001-2019
</metadata>
  <g
     transform="translate(0.000000,1024.000000) scale(0.100000,-0.100000)"
     fill="#000000"
     stroke="none"
     id="g14">
    <path
       d="m 4745,9621 c -191.8889,-52.6804 -367.6522,-184.1462 -488,-335 -201.7919,-180.2447 -551.8967,-978.8601 -466,-706 -73.0742,-198.5805 -361.6895,-762.3294 -228,-592 -32.4505,-160.2245 -328.2564,-566.9054 -208,-477 -158.9694,-35.6359 -347.3621,-153.297 -275,-112 -111.379,-59.7006 -376.4206,-188.2037 -311,-133 -93.6432,-36.1758 -221.2138,-74.6625 -189,-72 -125.5837,-50.1003 -270.5762,-147.3379 -416,-190 -71.0515,-16.92 -325.2939,-86.4178 -241,-77 -312.9325,-46.066 -584.2213,-137.8131 -386,-74 -216.0723,-34.0508 11.2466,-239.3251 -27,-175 33.2838,29.9508 105.5516,-407.8347 155,-124 129.9545,61.3631 322.4423,105.3754 132,1 22.4952,-34.9518 160.9056,-8.8072 52,-64 26.7451,-4.3125 205.1072,205.4934 150,153 -22.4178,-103.1497 -87.8153,-122.1723 17,-82 108.3142,43.6402 390.2236,184.3473 328,141 143.6658,9.8115 610.6916,183.7144 467,165 60.3248,-17.9586 258.8191,48.1696 211,46 303.1735,90.1336 69.2951,-603.6075 172.375,-518.375 C 3133.9856,6097.7805 3490.9333,5481.3709 3384,5700 c 120.3017,-184.7887 123.2794,-395.0762 212,-575 113.6369,-292.2891 217.2081,-580.8135 314,-877 210.8403,-308.0722 467.6625,-607.8297 716,-894 65.3022,-108.7348 254.4896,-380.5949 204,-284 58.3919,-152.8923 98.1631,-289.2598 145,-270 48.0178,-109.1125 144.2048,-263.7001 130,-240 110.7126,-158.7759 388.6654,-485.5225 288.125,-353.375 C 5477.575,2039.8972 5588.1,1863.5492 5672,1690 c 143.4317,-335.2814 101.0901,68.9371 15,194 6.3813,-32.0433 -122.55,274.5245 -61,191 1.8199,195.7884 -147.158,742.6015 -98,574 109.1138,66.835 -29.6689,405.3365 -28,401 -152.486,176.0299 -704.0282,875.178 -418,500 -184.7941,250.2921 -365.261,506.0281 -509.25,789.875 -106.9997,268.5659 -89.0563,1123.9768 -108.75,715.125 -183.3305,377.0929 541.8473,829.8139 226,551 89.2033,-11.8164 193.597,60.698 120,104 97.5093,-11.4626 -141.7075,-100.056 20,-49 120.2038,19.0109 361.0144,329.1007 269,234 38.7319,31.0703 244.4095,222.8774 147.5,158.875 40.6033,61.6493 248.7197,165.9654 189.5,114.125 134.8982,68.4352 266.083,149.4751 322,309 102.4875,128.7817 167.2931,767.5032 195,579 -174.2919,235.0335 -1024.4738,413.5249 -743,377 -158.8621,11.5899 -469.858,-132.7678 -417.125,39 96.674,18.3507 -36.5188,-10.2621 7.875,-22.25 3.285,65.3692 31.3363,-12.9107 -52.75,18.25 13.894,-145.5599 -34.9562,21.3967 -45,-40 -132.6776,-20.3291 -336.5515,-28.9652 -222.25,13.875 -142.7413,90.6624 -1.2768,-10.8757 0.25,121.125 140.7265,117.3624 -355.2537,-242.2061 104,8 73.8794,-124.5026 254.7085,-135.5616 155,-51 129.3467,11.1478 -128.5244,119.7833 -80,85 -258.4892,-24.7316 -135.9012,543.4702 -156,416 141.4749,155.2173 556.5318,562.3751 404.625,549.125 62.3889,165.314 146.5838,129.7536 71.375,4.875 5.9329,11.9902 -95.6143,214.3019 30,226 -192.1462,46.6245 317.9315,177.6617 120,102 26.2579,-79.9971 -118.7342,263.2902 -56,180 -15.9984,-113.1553 -263.9632,-145.1684 -153,-13 -141.9685,119.541 116.9058,290.9976 3,204 148.6713,55.7771 -167.7448,303.2987 -34,306 -40.2971,59.1847 -142.6884,25.3155 -145,41 z m 285,-617 c 19.0076,-88.9673 -114.828,-80.029 -67,-78 -60.9943,-78.373 -192.2933,71.5737 -141,24 24.1654,66.481 179.3248,81.1928 113,44 26.527,-162.3374 45.4657,108.6358 95,10 z M 4395,7330 c 132.5128,12.9203 -115.1738,-126.7175 128,-103 97.916,100.7853 89.4044,-231.5616 79,-97 -34.1013,-59.0831 -27.8545,132.2769 -70.375,58.5 106.836,-16.4385 -80.3619,-188.634 -102.625,-63.5 -44.6741,37.2551 31.206,245.2118 -42.125,161.75 -95.5791,-63.0044 -90.703,-124.4381 -67.625,-127 -83.3944,-228.9367 14.8156,-187.7647 25.125,-76.125 90.5473,62.8426 176.9837,27.7089 195.625,-1.625 180.5417,-13.4214 316.1159,198.4342 147,94 115.3204,-44.379 -6.3179,-148.3112 -42.25,-145.375 122.6849,-14.0904 145.3125,-42.9726 77.25,-45.625 -27.7565,-103.0768 180.3225,-11.2126 101.6406,0.2656 -32.3251,37.8169 -54.8458,165.6427 48.3594,96.7344 -78.8105,-76.5473 102.4136,0.7934 99,8 -32.0389,-25.4869 -62.3706,-98.5451 -13,-133 -32.1766,51.6303 71.3137,-57.0186 -103,-46 342.885,-8.8632 567.6177,-124.7274 469,-105 137.9005,-64.681 32.1822,-395.4137 106,-246 -81.8544,-123.4692 -467.3255,-225.4375 -360,-230 -284.0307,-117.0127 -457.8991,-393.8526 -701,-574 -193.8186,-41.1389 -179.6177,598.7231 -164,464 2.2228,280.8322 -112.0145,595.0477 45,831 38.9512,122.9183 131.9068,381.1048 112,296 -39.9297,31.6883 48.0362,-21.3329 33,-17 z M 1736,6761 c 28.561,15.956 183.1811,-35.8887 127,-15 -11.8138,25.7885 103.3131,-202.953 -80,-110 -19.1398,124.3459 -73.7887,123.3381 -79,54 -29.1776,-7.5525 -30.6116,102.1207 28.625,107.75 15.8002,-3.6153 21.5295,-29.0821 3.375,-36.75 z m 2354,-712 c 109.3827,-116.8316 -77.1895,-78.221 31.75,-166.125 131.6537,-181.9197 -40.1544,-51.6011 -2.125,-51.125 -49.5959,66.065 -198.4163,143.0543 -102.625,101.25 69.5599,17.1035 -16.9566,50.8235 73,116 z m 585,-129 c -12.2157,-116.4255 -170.0584,-293.0952 -50,-166 -35.5521,-8.3134 -51.121,123.4429 -89,34 66.2529,-19.0068 41.171,107.9743 139,132 z m 641,-3029 c 17.6051,-47.8565 34.1122,-126.33 51,-82 59.1602,57.8998 -97.5304,54.7959 27.125,-2.25 25.4912,-121.0484 -243.3197,-33.0215 -162.125,19.25 6.5281,69.8781 59.8649,63.629 84,65 z"
       id="path4" />
    <path
       d="m 4586,7554 c -67.1445,19.3987 44.3388,-22.3974 -59,-75 190.4954,-121.7015 113.0567,-155.4235 160,-25 -59.0898,60.8759 -99.3063,96.775 -101,100 z"
       id="path6" />
    <path
       d="m 7774,7182 c -159.0058,-27.44 -624.1937,-161.1349 -507.75,-107 -75.1154,-48.1406 -425.8911,-224.5801 -304.25,-183 28.8029,-125.9274 -303.7722,-290.4942 -197,-172 -166.3789,-39.0286 -253.2862,-190.1027 -201,-133 -50.3133,9.411 -479.939,-89.7241 -334,-32 -88.6066,-78.0996 -138.2485,-134.8906 -123.75,-102.25 -161.3287,127.2392 208.2566,-708.1959 105.125,-215.875 186.8085,-65.7484 362.4473,-68.5279 542.375,-86.5 65.6908,32.5384 536.6323,160.232 418.25,0.625 142.321,-45.453 202.9789,165.5883 229,142 -34.2666,133.3286 -160.1402,162.0247 -195,2 201.8864,247.3561 428.2566,235.9967 484,220 205.984,91.4621 -53.9606,240.3035 179,55 102.5318,-37.9857 291.6598,-115.9761 229.5,-79.5 100.4482,83.8808 354.8686,-115.5541 251.5,-54.5 85.3127,-146.6358 333.9158,-386.2913 235,-258 36.4488,-130.9004 200.6655,-427.5035 193,-344 51.2286,-131.1257 145.4066,-189.9675 182,-184 -94.27,0.052 -75.9706,-114.526 -39,-220 17.7134,-87.2201 74.4796,-368.3409 42,-240 -30.4986,-31.2273 -58.8682,-355.4042 10.125,-333.5 52.7976,-103.844 -156.3435,-590.6684 -83.125,-440.5 -8.6989,-123.0752 -127.9377,-354.7967 -88,-222 -99.8225,-128.3827 -168.5632,-605.7368 -126.5,-441.5 35.522,-82.7119 -122.8716,-377.4795 -84.5,-282.5 -77.0366,-120.6233 -78.442,-323.6556 -112,-430 -42.5871,-126.6915 -209.4282,-364.6028 -133,-296 33.1852,-8.3801 -173.1157,-313.3233 -124,-217 -104.9879,-111.5409 -371.1616,-461.1424 -284,-307 -48.9178,-142.5985 -284.3335,-538.5447 -192,-405 -94.3514,-106.2116 -6.8652,-167.7195 -30,-154 68.4681,39.1957 151.955,186.0047 156,68 -26.3883,-27.3584 -97.5629,58.8734 38.875,89.75 139.4816,13.1455 36.278,253.1637 64.625,119.375 38.492,65.8993 148.5309,245.1802 108.5,154.875 94.2093,19.6971 223.1568,-88.2468 70,-170 79.8309,151.2027 72.5244,-72.7891 176,87 212.8003,54.0239 282.6919,288.4098 270,320 121.7074,257.8263 259.8657,530.0797 351,823 99.0899,237.5594 225.2196,459.2976 369,682 130.7581,233.9652 186.3296,490.3779 270,740 120.5017,262.5772 -139.3188,1322.4531 -20,1016 -51.8794,178.1574 -283.4883,666.1222 -228,510 -43.9138,138.9857 -164.038,229.6367 -159,279 -91.2339,87.1226 -476.1849,379.6106 -318,320 -129.7031,63.7891 -489.2806,271.2316 -350,199 -147.6848,73.136 -338.5363,216.8126 -495,260 -64.5446,-12.1801 -295.2765,-4.9311 -203,10 -6.4743,-6.7858 -57.9357,33.4519 -43,13 z"
       id="path8" />
    <path
       d="m 1674,6515 c 39.1991,-109.9757 72.4279,-104.1028 31,-115 14.5671,-93.9699 51.2686,144.7759 -31,115 z"
       id="path10" />
    <path
       d="m 3203,4622 c -131.5168,-1.75 -443.4219,-200.1199 -326,-135 -152.5433,-118.4875 -284.5771,-274.8627 -272,-485 -24.571,-122.1843 -289.2407,-564.6848 -198,-432 -36.4995,-137.5645 -164.0558,-397.0907 -145.875,-293.625 C 1828.0544,2919.2016 3308.5448,3176.8065 2570,3170 c 73.115,68.2019 163.4711,104.3467 206,129 -106.64,-87.9062 -679.5937,-479.9409 -492,-399 -58.1163,-134.0153 -463.0635,-291.0593 -337,-220 -211.8512,-156.1944 -186.2393,-252.8 -387,-360 -5.9466,-43.2921 -135.6756,-265.0947 -131,-142 -130.2301,-92.0067 -257.5148,-194.909 -237,-189 C 1091.7255,1918.1795 848.53488,1736.3384 943,1791 844.05452,1670.8868 425.01626,1464.273 540.625,1495.25 474.56097,1407.402 383.89185,1090.5025 391,1227 c 31.41352,51.3697 198.077,-15.1546 153,-32 46.97815,61.9989 128.06908,62.9936 95,82 11.67067,70.8794 -36.28394,110.4389 -65,67 -137.13341,90.0935 113.95549,44.1606 90,8 40.85257,36.6954 -25.393,-155.4058 17,-122 115.07603,55.4729 113.99832,-66.9886 130,7 111.63404,-93.8482 561.4722,322.7819 381,305 180.2792,144.6483 448.8088,273.3729 631.375,391.625 111.911,77.748 528.2518,313.2942 391.625,222.375 140.9189,85.4585 532.029,272.3789 390.375,186.875 229.3383,61.2912 635.2718,424.7911 502.625,337.125 159.149,246.5585 571.8556,1033.7213 496,741 92.1651,251.7101 330.0765,477.183 212,767 -53.0618,212.2533 -285.7996,483.2763 -503,405 -21.3778,36.1736 -81.8965,31.3263 -110,29 z m 18,-629 c 20.0424,-189.7567 -224.7376,-556.3002 -137,-440 47.0549,23.1606 -159.3435,-90.4125 -91,110.5 149.2548,151.2014 25.0121,219.4985 131.625,239.375 61.2394,-58.3763 32.7992,147.9237 96.375,90.125 z"
       id="path12" />
  </g>
</svg>
