<?xml version="1.0" standalone="no"?>
<!DOCTYPE svg PUBLIC "-//W3C//DTD SVG 20010904//EN"
 "http://www.w3.org/TR/2001/REC-SVG-20010904/DTD/svg10.dtd">
<svg version="1.0" xmlns="http://www.w3.org/2000/svg"
 width="1024.000000pt" height="1024.000000pt" viewBox="0 0 1024.000000 1024.000000"
 preserveAspectRatio="xMidYMid meet">
<metadata>
Created by potrace 1.16, written by Peter Selinger 2001-2019
</metadata>
<g transform="translate(0.000000,1024.000000) scale(0.100000,-0.100000)"
fill="#000000" stroke="none">
<path d="M3300 9319 c0 -4 -24 -6 -52 -5 -29 2 -67 -3 -84 -10 -17 -7 -34 -10
-38 -7 -3 4 -6 1 -6 -5 0 -7 -3 -11 -7 -11 -5 1 -11 0 -15 -1 -5 -1 -11 -3
-15 -5 -22 -6 -49 -20 -54 -27 -3 -5 -15 -10 -27 -11 -11 0 -19 -4 -16 -8 4
-7 -26 -23 -38 -21 -5 1 -8 -3 -8 -9 0 -5 -5 -7 -12 -3 -8 5 -9 2 -5 -10 4
-10 3 -15 -3 -11 -13 8 -52 -14 -45 -25 3 -6 0 -7 -8 -4 -8 3 -18 0 -22 -5 -3
-6 -11 -9 -16 -6 -5 4 -9 2 -9 -3 0 -5 -19 -15 -42 -23 -24 -7 -49 -19 -56
-26 -8 -7 -17 -11 -22 -8 -5 3 -10 1 -12 -5 -1 -5 -12 -11 -23 -13 -11 -1 -26
-6 -33 -11 -8 -4 -29 -9 -49 -10 -19 -2 -38 -7 -41 -12 -4 -5 -14 -9 -22 -9
-8 1 -30 -5 -48 -12 -18 -8 -37 -11 -42 -8 -6 4 -10 0 -10 -7 0 -9 -3 -9 -10
2 -8 12 -10 12 -10 1 0 -8 -2 -12 -5 -9 -4 3 -25 1 -48 -4 -56 -13 -88 -19
-112 -22 -43 -6 -95 -28 -89 -38 4 -6 3 -9 -2 -6 -13 8 -56 -10 -50 -20 3 -5
-1 -9 -9 -9 -8 0 -11 5 -8 11 4 6 0 5 -9 -1 -8 -7 -18 -10 -21 -6 -4 3 -7 1
-7 -6 0 -7 -6 -11 -14 -8 -8 3 -16 2 -18 -3 -2 -6 -15 -11 -30 -12 -15 -1 -24
-6 -22 -10 5 -7 -10 -12 -28 -9 -5 0 -8 -4 -8 -10 0 -5 -5 -7 -10 -4 -6 4 -18
1 -27 -7 -9 -7 -17 -11 -17 -9 -2 8 -46 -11 -46 -20 0 -6 -5 -7 -10 -4 -6 3
-13 -1 -16 -9 -3 -9 -10 -16 -16 -16 -5 0 -6 5 -2 11 3 6 -5 4 -18 -5 -14 -9
-28 -13 -31 -9 -4 3 -7 1 -7 -5 0 -7 -3 -11 -7 -10 -14 3 -63 -14 -63 -22 0
-8 -38 -23 -52 -21 -5 1 -8 -3 -8 -9 0 -5 -6 -10 -12 -10 -7 0 -26 -7 -42 -15
-15 -8 -33 -12 -40 -8 -6 4 -5 -1 2 -10 12 -14 11 -16 -10 -15 -30 1 -68 -12
-68 -24 0 -5 -4 -7 -9 -3 -10 5 -23 -25 -26 -57 -1 -15 11 -28 25 -24 14 3 37
-29 26 -36 -8 -6 -8 -8 0 -8 7 0 15 -7 18 -16 3 -9 2 -12 -5 -8 -6 3 -4 -7 5
-23 12 -24 12 -33 3 -43 -9 -10 -9 -11 1 -5 9 4 12 2 11 -6 -2 -8 0 -26 4 -41
7 -26 7 -26 39 -10 18 9 39 22 46 29 7 7 20 13 28 13 8 0 14 4 14 9 0 5 9 13
20 16 11 4 17 11 14 17 -5 7 -1 9 9 5 9 -3 17 -3 19 1 6 13 85 52 92 45 3 -3
6 -2 6 4 0 6 13 16 30 23 16 7 30 17 30 22 0 5 5 6 10 3 6 -3 10 0 10 7 0 9 3
9 10 -2 7 -11 10 -11 10 -2 0 7 5 10 10 7 6 -4 9 -1 8 7 -2 7 3 12 10 11 6 -2
12 1 12 5 0 5 6 9 13 10 6 0 19 3 27 5 8 2 32 7 53 12 20 4 37 10 37 14 0 4
11 8 25 9 34 3 49 6 55 13 7 8 129 39 163 41 15 1 27 5 27 9 0 4 8 6 18 4 9
-1 24 1 33 6 8 4 21 4 29 -1 8 -5 22 -2 37 7 15 10 23 11 23 4 0 -9 5 -9 20
-1 11 6 25 8 30 5 6 -3 10 -2 10 2 0 5 26 8 58 8 62 -1 102 11 102 31 0 6 6
14 14 17 11 4 17 -30 6 -40 -7 -7 -5 -29 4 -35 12 -8 37 2 30 13 -3 5 0 9 6 9
6 0 8 4 5 10 -3 6 1 7 9 4 9 -3 16 -1 16 5 0 6 3 10 8 9 12 -4 106 44 115 59
5 7 13 11 18 7 6 -3 21 4 35 17 13 12 24 18 24 13 0 -5 5 -1 11 9 6 9 14 15
18 12 5 -2 14 2 21 10 7 8 18 15 25 15 7 0 28 11 47 23 25 17 40 22 56 16 13
-5 24 -4 28 2 3 6 12 8 20 5 8 -3 14 -1 14 5 0 6 7 9 15 5 8 -3 15 -2 15 2 0
11 52 9 69 -2 9 -6 12 -5 8 1 -8 13 106 11 115 -2 5 -6 8 -5 8 3 0 10 5 10 21
1 16 -8 20 -8 14 1 -9 14 53 11 73 -3 6 -5 12 -7 12 -4 0 3 21 0 47 -8 25 -8
50 -12 55 -9 4 3 8 0 8 -6 0 -8 6 -8 20 0 16 9 20 8 20 -5 0 -8 9 -15 20 -15
11 0 20 -4 20 -9 0 -5 7 -12 16 -15 14 -5 15 -4 4 9 -11 13 -10 14 4 9 9 -3
16 -12 16 -20 0 -8 9 -14 19 -14 11 0 21 -5 23 -12 2 -6 13 -12 24 -12 28 -3
45 -16 38 -28 -5 -8 -1 -9 10 -5 10 4 19 1 22 -8 4 -8 12 -15 20 -15 8 0 14
-4 14 -10 0 -5 6 -9 13 -7 6 1 11 -4 9 -12 -3 -12 0 -12 12 -2 13 11 15 10 11
-7 -2 -12 3 -23 11 -26 9 -3 12 -11 9 -16 -4 -6 1 -22 10 -36 9 -13 13 -30 9
-37 -4 -7 -3 -9 1 -4 14 12 36 -53 41 -123 7 -95 22 -151 55 -212 7 -13 13
-32 14 -42 1 -10 9 -24 17 -30 8 -6 16 -15 17 -21 2 -12 47 -25 57 -16 4 3 4
-2 1 -12 -4 -11 -3 -16 3 -12 6 3 16 3 23 -2 6 -4 35 -8 63 -9 77 -2 82 -5 77
-56 -3 -23 -5 -56 -6 -73 -2 -16 -6 -36 -10 -42 -5 -8 -3 -13 5 -13 10 0 10
-2 0 -9 -8 -4 -13 -11 -12 -15 1 -5 -7 -62 -15 -96 -6 -26 -18 -49 -24 -45
-20 12 -3 -68 19 -88 12 -12 19 -15 15 -7 -6 11 -3 10 12 -3 11 -9 23 -14 26
-10 4 3 7 1 7 -6 0 -7 5 -9 10 -6 6 3 10 -2 10 -12 0 -15 2 -16 10 -3 8 13 10
13 10 -2 0 -9 -5 -18 -12 -20 -8 -3 -6 -7 5 -11 9 -3 19 -1 23 5 4 7 3 8 -4 4
-8 -5 -10 -1 -5 10 4 11 8 13 11 6 2 -7 8 -10 12 -7 5 3 13 -2 18 -12 9 -16 5
-18 -25 -19 -19 -1 -39 -8 -44 -15 -7 -12 -9 -11 -9 1 0 13 -1 13 -10 0 -5 -8
-10 -10 -10 -5 0 6 -4 4 -8 -3 -8 -11 -84 -23 -174 -26 -16 -1 -28 -4 -28 -7
0 -4 -10 -7 -22 -7 -22 -1 -63 -9 -63 -12 0 -1 -8 -3 -18 -5 -10 -2 -26 -7
-35 -11 -9 -4 -26 -8 -37 -10 -34 -5 -49 -9 -62 -17 -7 -5 -13 -5 -13 -1 0 3
-6 2 -12 -3 -7 -6 -21 -9 -30 -8 -10 2 -18 -1 -18 -6 0 -5 -3 -8 -7 -8 -5 1
-12 0 -18 -1 -5 -1 -14 -3 -20 -4 -5 -1 -30 -8 -55 -15 -25 -7 -49 -14 -55
-15 -5 -1 -16 -5 -23 -9 -7 -5 -24 -11 -39 -13 -15 -3 -32 -9 -38 -14 -5 -4
-14 -9 -20 -10 -23 -5 -40 -14 -47 -24 -5 -7 -8 -7 -8 2 0 8 -10 5 -29 -9 -17
-12 -34 -18 -42 -14 -7 5 -10 4 -6 -2 3 -5 -16 -20 -43 -33 -28 -13 -50 -27
-50 -32 0 -5 -10 -13 -22 -18 -28 -12 -112 -72 -115 -83 -2 -4 -4 -6 -6 -4 -1
1 -17 -13 -35 -30 -17 -18 -36 -33 -42 -33 -6 0 -8 -4 -5 -10 6 -9 -8 -14 -27
-11 -5 0 -8 -4 -8 -9 0 -6 -10 -14 -23 -19 -13 -5 -53 -32 -90 -60 -36 -28
-71 -51 -77 -51 -6 0 -9 -3 -7 -7 4 -9 -29 -44 -39 -42 -4 0 -23 -19 -43 -43
-54 -65 -108 -117 -115 -111 -3 4 -6 -1 -6 -11 0 -9 -4 -15 -9 -11 -5 3 -17
-5 -25 -17 -9 -12 -16 -19 -16 -14 0 5 -11 1 -25 -8 -13 -9 -31 -16 -40 -16
-9 0 -13 -4 -10 -10 3 -5 2 -10 -4 -10 -6 0 -20 -11 -33 -24 -51 -54 -68 -74
-68 -81 0 -6 -48 -74 -60 -85 -3 -3 -17 -21 -30 -40 -23 -33 -59 -76 -88 -106
-7 -8 -10 -14 -6 -14 4 0 -1 -8 -12 -19 -10 -10 -26 -28 -34 -41 -8 -12 -21
-28 -27 -36 -7 -7 -13 -16 -13 -21 0 -5 -9 -15 -20 -23 -11 -8 -20 -18 -20
-22 0 -7 -7 -16 -52 -70 -10 -12 -18 -25 -18 -30 0 -5 -7 -16 -15 -25 -8 -8
-13 -19 -10 -24 4 -5 1 -9 -4 -9 -6 0 -10 -3 -10 -7 1 -5 0 -10 -1 -13 -2 -4
-7 -42 -12 -87 -1 -7 -5 -13 -10 -13 -5 0 -6 -5 -3 -10 4 -6 1 -18 -7 -27 -11
-14 -11 -16 2 -8 12 7 13 6 4 -6 -6 -8 -10 -22 -9 -31 2 -10 -1 -18 -6 -18 -6
0 -8 -4 -5 -9 4 -5 0 -12 -6 -14 -10 -4 -10 -6 -1 -6 7 -1 10 -8 7 -16 -4 -8
-11 -12 -16 -8 -7 4 -9 -4 -6 -20 3 -15 2 -24 -2 -22 -4 3 -16 -7 -26 -21 -11
-15 -24 -31 -29 -38 -6 -6 -16 -24 -23 -39 -6 -15 -18 -30 -26 -33 -8 -3 -12
-12 -9 -20 3 -9 -1 -14 -13 -14 -9 0 -14 -3 -11 -6 3 -4 -3 -18 -13 -32 -11
-13 -20 -31 -20 -38 0 -8 -4 -14 -10 -14 -5 0 -10 -7 -10 -15 0 -8 -4 -15 -9
-15 -6 0 -8 -9 -6 -20 2 -11 0 -18 -5 -15 -9 5 -22 -23 -17 -38 1 -5 -6 -13
-16 -18 -9 -6 -15 -14 -12 -20 4 -5 0 -12 -9 -15 -8 -3 -12 -12 -9 -20 3 -7
-2 -17 -11 -20 -9 -3 -13 -10 -10 -15 3 -5 1 -9 -5 -9 -6 0 -7 -7 -4 -17 4
-11 3 -14 -6 -9 -8 6 -11 2 -9 -10 2 -12 -2 -18 -10 -16 -8 1 -11 -2 -8 -7 4
-5 2 -12 -4 -16 -5 -3 -10 -15 -10 -26 0 -10 -5 -19 -11 -19 -5 0 -7 -5 -4
-10 3 -6 -1 -13 -10 -16 -12 -5 -13 -9 -4 -21 10 -11 10 -13 -1 -11 -7 2 -15
-3 -17 -10 -3 -8 2 -10 14 -7 11 4 9 1 -4 -6 -13 -7 -23 -20 -23 -30 0 -9 -4
-19 -9 -21 -5 -1 -11 -10 -13 -18 -2 -8 -11 -22 -20 -31 -10 -9 -15 -19 -11
-23 3 -3 0 -6 -7 -6 -7 0 -10 -3 -7 -7 4 -3 0 -11 -9 -17 -8 -6 -17 -20 -18
-31 -2 -11 -9 -19 -14 -18 -6 2 -9 -4 -6 -12 4 -8 1 -15 -6 -15 -6 0 -9 -4 -6
-9 3 -5 -1 -12 -10 -15 -8 -3 -12 -10 -9 -16 3 -5 2 -10 -2 -10 -5 0 -14 -9
-21 -21 -11 -17 -11 -20 0 -13 7 4 0 -5 -15 -19 -15 -15 -25 -32 -22 -37 3 -6
-1 -13 -10 -16 -10 -4 -14 -13 -10 -22 3 -9 3 -13 -1 -9 -9 9 -36 -42 -28 -54
3 -5 2 -9 -3 -8 -20 3 -27 -2 -13 -11 13 -8 13 -10 -2 -10 -11 0 -15 -5 -12
-15 5 -11 2 -13 -10 -9 -12 4 -15 2 -10 -9 3 -8 0 -18 -5 -22 -6 -3 -9 -11 -6
-16 4 -5 1 -9 -5 -9 -6 0 -15 -12 -20 -26 -6 -14 -14 -22 -20 -19 -5 3 -10 -1
-10 -10 0 -8 -9 -23 -20 -32 -22 -19 -27 -39 -8 -27 9 5 9 3 -1 -9 -7 -9 -18
-14 -25 -10 -6 4 -4 -2 4 -12 8 -10 10 -16 3 -12 -7 4 -15 -5 -22 -24 -6 -17
-14 -28 -19 -25 -5 3 -9 -1 -9 -9 0 -8 5 -11 11 -8 6 3 1 -4 -11 -16 -21 -20
-27 -34 -24 -54 1 -5 -4 -5 -10 -1 -9 5 -10 2 -6 -9 4 -11 2 -14 -7 -11 -8 3
-17 0 -22 -7 -5 -8 -3 -10 5 -4 7 4 5 -4 -4 -19 -9 -14 -22 -23 -28 -19 -5 3
-7 1 -3 -5 3 -6 1 -14 -5 -17 -5 -4 -8 -14 -4 -22 5 -13 3 -14 -10 -3 -9 7
-15 9 -14 4 3 -20 -1 -35 -10 -30 -5 3 -12 -1 -15 -10 -3 -8 -11 -12 -17 -8
-7 4 -9 3 -5 -4 3 -6 -3 -13 -14 -17 -11 -3 -19 -10 -17 -14 1 -4 -23 -32 -54
-62 -32 -31 -54 -60 -52 -69 4 -13 3 -13 -6 0 -9 13 -12 13 -20 1 -5 -8 -14
-10 -22 -5 -12 7 -12 5 0 -9 12 -15 10 -17 -17 -13 -24 2 -29 0 -24 -12 4 -11
1 -14 -12 -9 -10 4 -15 3 -11 -3 3 -6 -1 -10 -9 -10 -9 0 -16 -5 -16 -11 0 -6
-7 -9 -14 -6 -10 4 -13 1 -9 -9 4 -12 -7 -19 -29 -15 -4 0 -5 -6 -1 -15 4 -10
-2 -17 -16 -21 -11 -3 -21 -11 -21 -19 0 -7 -4 -16 -10 -19 -6 -4 -7 1 -3 12
4 9 -11 -2 -33 -26 -22 -25 -39 -54 -38 -67 0 -12 -2 -22 -5 -22 -19 2 -31 -3
-31 -13 0 -5 5 -7 11 -4 6 4 5 -2 -2 -13 -7 -12 -23 -26 -36 -33 -12 -7 -20
-16 -17 -21 3 -4 -2 -8 -12 -8 -14 0 -15 -2 -3 -17 10 -11 10 -14 2 -9 -7 4
-13 2 -13 -3 0 -6 6 -11 13 -11 9 0 9 -2 1 -8 -9 -5 -8 -10 1 -19 10 -10 15
-9 20 5 6 16 8 15 21 -2 10 -14 14 -16 14 -5 0 11 2 11 9 1 7 -11 9 -11 14 1
4 11 0 15 -14 12 -10 -2 -19 1 -19 7 0 5 7 8 15 4 8 -3 15 0 15 6 0 7 6 4 13
-7 10 -12 16 -15 21 -6 5 8 13 8 27 1 10 -6 19 -7 19 -3 0 4 5 1 11 -7 9 -13
10 -13 6 0 -2 8 -10 15 -17 15 -7 0 -15 7 -17 15 -3 9 -1 11 4 5 11 -13 47
-19 39 -7 -3 6 2 18 12 29 9 10 14 14 10 9 -14 -18 -8 -29 7 -16 8 7 15 8 15
4 0 -5 -9 -15 -19 -21 -20 -13 -25 -53 -6 -50 5 1 9 -4 8 -10 -2 -7 1 -13 5
-13 12 0 11 -32 0 -47 -5 -7 -7 -17 -3 -23 3 -5 2 -10 -2 -10 -18 0 -94 -78
-96 -99 -1 -11 -5 -21 -10 -21 -4 0 -5 -6 0 -12 4 -7 8 -20 9 -28 0 -8 7 -28
14 -45 7 -16 14 -41 16 -55 1 -14 3 -27 4 -30 1 -3 2 -9 1 -14 -1 -5 6 -18 16
-29 10 -11 12 -17 6 -13 -7 4 -13 2 -13 -3 0 -6 5 -11 11 -11 6 0 8 -7 5 -16
-3 -9 -2 -12 5 -9 6 4 13 -2 16 -14 3 -11 10 -18 16 -14 6 4 8 0 4 -10 -4 -11
-1 -15 13 -12 13 3 17 -1 13 -11 -4 -10 0 -12 13 -7 12 4 15 3 10 -5 -5 -8 3
-14 24 -18 17 -4 33 -11 36 -15 3 -5 10 -7 15 -4 5 4 9 1 9 -5 0 -6 4 -8 10
-5 5 3 10 1 10 -6 0 -8 5 -8 18 2 9 7 14 9 10 5 -4 -5 0 -15 10 -23 9 -8 11
-11 3 -7 -9 4 -12 3 -7 -4 3 -6 21 -9 39 -7 41 3 80 -21 57 -35 -8 -5 -19 -9
-25 -9 -5 0 -4 3 3 6 6 2 12 9 12 14 0 6 -5 7 -12 3 -7 -4 -8 -3 -4 4 5 8 1
10 -9 5 -12 -4 -13 -8 -5 -13 6 -4 11 -10 10 -14 0 -4 7 -14 17 -24 16 -16 16
-16 9 3 -5 14 -4 17 3 10 6 -6 12 -23 13 -37 1 -15 6 -24 10 -22 4 3 8 -4 8
-16 0 -14 4 -19 12 -14 8 5 9 2 5 -11 -4 -9 -2 -25 5 -33 11 -13 11 -14 0 -8
-8 5 -2 -11 13 -34 15 -23 21 -39 13 -35 -7 3 -5 0 5 -8 14 -11 15 -16 5 -20
-8 -3 -6 -6 6 -6 16 -1 16 -3 6 -17 -8 -8 -9 -14 -4 -13 26 5 36 -1 25 -15
-10 -12 -8 -16 10 -21 17 -6 19 -9 8 -16 -10 -6 -11 -9 -1 -9 6 0 12 -9 12
-19 0 -11 5 -23 11 -27 6 -3 8 -15 6 -26 -3 -11 0 -21 8 -24 7 -3 16 -16 19
-30 4 -13 11 -24 17 -24 6 0 7 -5 3 -12 -4 -7 -3 -8 5 -4 6 4 14 0 17 -8 3 -9
10 -13 15 -10 5 3 9 -2 9 -10 0 -8 7 -22 16 -30 12 -12 12 -16 2 -16 -10 0
-10 -2 1 -9 10 -6 10 -13 2 -28 -5 -11 -8 -23 -5 -25 4 -5 15 -65 17 -95 0 -7
4 -13 8 -13 4 0 10 -11 13 -25 4 -14 10 -24 14 -21 4 2 13 -2 20 -10 8 -9 9
-14 2 -14 -7 0 -6 -5 2 -14 7 -8 16 -12 21 -9 4 2 7 1 6 -4 -5 -17 25 -63 40
-63 14 0 14 -2 1 -10 -15 -10 -3 -15 23 -11 4 0 6 -2 5 -6 -4 -13 26 -53 39
-53 6 0 15 -5 19 -12 5 -7 2 -9 -7 -4 -8 4 -4 -1 8 -12 12 -11 19 -22 16 -26
-4 -3 4 -6 16 -6 12 0 20 -4 17 -9 -3 -5 1 -14 9 -21 13 -11 15 -10 10 6 -3
10 1 7 8 -8 10 -21 16 -25 24 -17 9 9 10 6 6 -12 -5 -20 -4 -22 8 -12 10 8 19
9 29 1 12 -8 12 -9 -2 -4 -21 6 -24 -9 -4 -17 7 -3 19 0 25 6 9 9 10 8 5 -7
-6 -16 -4 -18 10 -13 10 4 15 3 11 -3 -3 -6 -1 -11 4 -11 6 -1 15 -2 20 -3 5
0 13 -5 18 -10 4 -5 3 -6 -4 -2 -6 3 -14 2 -17 -3 -3 -4 4 -8 17 -7 15 1 21
-4 19 -14 -2 -8 0 -12 4 -8 4 4 14 2 23 -5 14 -10 14 -10 3 5 -10 12 -10 18
-1 24 8 5 9 3 4 -6 -6 -10 -4 -12 7 -8 11 5 14 0 13 -16 -2 -18 3 -22 27 -24
16 -1 37 -9 45 -17 8 -8 19 -13 24 -10 5 4 9 2 9 -2 0 -5 10 -9 22 -10 11 -1
24 -6 27 -11 13 -18 40 -22 35 -4 -5 15 -4 15 8 2 7 -8 22 -17 33 -18 11 -2
26 -9 34 -15 12 -9 13 -9 7 0 -4 7 -3 13 3 13 5 0 11 -5 13 -12 2 -6 15 -13
28 -15 13 -2 27 -8 31 -14 3 -6 9 -10 13 -10 20 3 26 0 21 -11 -4 -7 1 -4 9 6
9 11 16 14 16 8 0 -7 5 -12 11 -12 5 0 8 4 5 9 -8 12 35 2 53 -13 11 -8 13 -8
8 1 -9 15 19 21 59 12 17 -3 38 -2 47 2 9 6 18 5 22 0 3 -6 13 -7 22 -4 10 4
14 2 10 -4 -3 -5 0 -10 8 -10 8 0 12 4 9 9 -3 4 5 7 18 7 13 -1 28 -1 33 1 22
5 36 0 29 -12 -4 -7 1 -6 12 3 10 9 33 15 49 14 17 -1 36 2 43 8 8 6 12 5 12
-4 0 -10 3 -11 8 -3 9 15 43 21 59 11 9 -6 11 -3 6 10 -6 16 -5 16 10 4 11 -8
17 -9 17 -3 0 6 7 9 15 6 8 -4 15 -2 15 3 0 11 29 11 47 0 6 -4 15 -2 19 4 5
8 3 9 -6 4 -9 -6 -11 -4 -6 4 5 7 14 10 22 7 8 -3 14 -2 14 3 0 5 8 8 18 7 9
0 16 4 15 9 -1 6 10 11 25 10 15 0 37 6 50 13 12 8 22 11 22 7 0 -3 7 1 16 9
8 9 20 14 25 11 5 -4 9 -1 9 5 0 6 5 8 10 5 6 -3 10 -1 10 5 0 6 5 8 10 5 6
-3 10 -1 10 4 0 6 5 11 11 11 5 0 7 -6 4 -12 -4 -7 0 -5 8 5 8 9 19 17 26 17
6 0 11 5 11 11 0 5 4 7 10 4 6 -3 10 -1 10 5 0 7 7 10 15 6 8 -3 14 0 12 7 -1
7 5 12 13 12 8 0 24 8 34 17 10 10 22 15 26 13 5 -3 10 2 14 10 3 8 12 15 21
15 8 0 15 5 15 11 0 6 7 8 16 5 15 -6 15 -4 3 11 -8 9 -9 14 -3 10 16 -9 74
15 74 31 0 10 5 10 20 2 16 -9 19 -8 13 6 -4 11 -2 15 4 11 6 -4 13 0 17 8 3
8 13 15 22 15 10 0 15 3 11 6 -3 3 6 17 21 31 15 14 26 30 24 35 -2 6 5 8 14
4 12 -4 15 -2 10 9 -4 12 0 14 18 11 14 -3 23 1 23 10 0 7 -5 10 -11 7 -6 -3
5 8 24 25 19 17 41 29 48 27 6 -2 12 0 12 6 0 5 9 19 20 31 11 12 20 28 20 35
0 8 5 11 12 7 8 -5 9 -2 5 9 -3 10 -2 17 3 17 6 0 10 7 10 15 0 8 5 15 11 15
5 0 7 5 4 10 -3 6 0 13 8 15 7 3 20 21 27 40 8 19 17 35 22 35 4 0 8 7 8 15 0
8 5 15 11 15 5 0 7 5 4 10 -3 6 1 13 9 16 9 3 14 10 11 14 -2 4 7 20 20 34 14
15 22 32 19 38 -4 6 -2 8 3 5 6 -4 14 1 17 11 11 29 33 64 48 73 10 7 10 9 -2
9 -12 0 -12 2 -2 9 12 7 18 24 21 54 1 4 7 6 14 5 6 -2 11 3 9 10 -1 6 3 12 9
12 6 0 8 7 5 16 -5 14 -4 15 8 5 11 -9 14 -9 13 1 -1 21 27 78 38 78 14 0 37
39 30 50 -4 6 1 7 11 3 10 -3 15 -2 12 3 -7 10 17 36 25 28 3 -3 8 4 12 16 4
12 16 32 26 43 42 48 49 57 49 66 0 5 11 18 25 29 13 11 21 22 18 26 -3 3 -1
6 6 6 7 0 9 5 6 10 -3 6 -2 10 4 10 5 0 33 48 62 108 29 59 57 110 62 113 5 3
8 9 8 13 -4 26 0 36 12 30 9 -5 9 -4 1 5 -15 16 -6 53 10 44 6 -4 6 0 -2 9
-10 13 -10 17 3 22 8 3 15 15 15 26 0 12 4 18 10 15 6 -3 7 1 4 9 -3 9 -2 16
4 16 5 0 9 8 9 18 0 9 6 33 15 52 28 66 34 81 42 117 2 10 8 17 13 16 6 -1 8
9 5 22 -2 15 0 25 8 25 7 0 9 8 5 20 -3 11 -2 20 3 20 6 0 8 8 5 19 -3 10 0
22 6 25 5 4 8 13 4 21 -3 8 -1 15 4 15 5 0 10 6 11 13 1 14 10 52 12 52 1 0 6
17 13 47 1 7 6 18 9 24 4 6 9 24 12 40 3 16 10 30 15 32 5 2 7 11 4 21 -3 10
0 22 6 25 6 4 11 16 11 27 0 11 4 17 10 14 6 -3 7 1 4 9 -3 9 -1 16 5 16 6 0
8 6 5 14 -3 7 2 31 11 52 9 22 18 53 21 69 2 17 10 35 18 40 10 8 11 16 5 28
-6 10 -6 17 -1 17 9 0 21 26 27 55 1 6 5 18 9 27 4 9 9 22 10 30 2 7 8 24 13
38 6 14 9 28 6 33 -2 4 1 7 7 7 6 0 8 4 5 10 -3 6 -1 10 5 10 6 0 9 4 6 9 -3
5 1 14 9 21 8 7 12 16 9 21 -3 5 3 25 12 46 10 20 17 45 17 55 -1 11 5 22 13
25 7 3 11 9 8 14 -3 5 -1 9 5 9 6 0 8 7 5 15 -4 8 -1 15 5 15 6 0 14 18 17 40
4 22 10 37 15 35 4 -3 6 4 4 15 -2 11 0 20 5 20 5 0 6 7 3 17 -4 11 -3 14 5 9
11 -6 18 19 13 47 -1 4 5 10 13 13 8 3 12 12 10 19 -3 7 0 16 5 20 6 3 9 11 6
16 -4 5 -1 9 5 9 7 0 10 7 7 15 -4 8 -1 17 5 21 7 5 8 2 3 -7 -5 -8 -4 -10 0
-6 14 12 15 38 2 30 -7 -3 -4 3 6 14 9 11 17 25 17 32 0 7 4 10 8 7 5 -3 9 1
9 9 0 8 -5 12 -11 9 -6 -3 -3 1 6 9 10 8 15 17 11 20 -3 4 -1 7 6 7 7 0 9 4 6
10 -3 6 -1 10 4 10 6 0 11 9 11 20 0 11 6 20 13 20 16 0 19 29 5 47 -7 9 -3
11 15 8 16 -3 24 0 24 10 0 8 -5 15 -11 15 -6 0 -4 4 4 10 9 6 17 5 23 -3 5
-7 5 -2 2 12 -6 19 -4 23 8 18 13 -5 15 -2 7 18 -8 20 -7 23 8 18 15 -6 15 -4
4 9 -11 14 -10 16 9 11 15 -4 20 -3 15 5 -4 8 0 12 10 12 16 0 16 1 -2 14 -18
14 -18 14 8 12 15 -2 25 0 23 4 -3 4 4 19 15 33 14 18 17 28 9 33 -8 5 -7 10
5 16 9 5 14 13 11 19 -12 19 -13 49 -2 49 7 0 6 4 -3 10 -11 7 -19 5 -27 -7
-7 -9 -13 -12 -13 -6 0 7 7 18 15 26 11 12 12 17 2 20 -7 3 -5 6 6 6 9 1 17 5
17 9 0 11 -31 9 -49 -3 -10 -6 -12 -4 -7 6 4 8 -1 5 -11 -6 -21 -22 -43 -30
-43 -15 0 6 4 10 8 10 5 0 17 7 28 16 10 8 13 13 6 9 -7 -4 -11 -1 -10 6 2 7
-7 13 -22 13 -31 0 -53 18 -36 28 8 6 8 8 -1 8 -6 0 -14 -4 -18 -10 -3 -5 -13
-7 -23 -4 -15 5 -15 4 -2 -6 13 -10 13 -11 0 -7 -8 2 -14 13 -13 25 1 11 -5
26 -14 34 -12 9 -15 9 -9 1 4 -7 2 -13 -3 -13 -6 0 -11 -5 -11 -11 0 -5 4 -7
10 -4 5 3 10 -1 10 -10 0 -10 -5 -14 -12 -9 -10 6 -10 4 0 -7 20 -22 13 -30
-12 -14 -23 15 -25 15 -40 -6 -20 -28 -12 -38 12 -16 10 10 23 17 28 17 5 -1
-2 -10 -15 -20 -13 -11 -19 -20 -13 -20 5 0 13 -7 16 -16 4 -10 2 -13 -7 -9
-6 4 -4 0 5 -8 10 -8 15 -17 12 -20 -4 -3 5 -12 20 -18 27 -13 31 -20 19 -33
-5 -4 -8 -13 -8 -19 0 -5 -6 -12 -14 -15 -10 -3 -12 0 -8 11 3 9 1 19 -5 23
-7 5 -8 2 -3 -6 5 -9 4 -11 -3 -6 -8 5 -10 2 -6 -8 3 -9 2 -16 -4 -16 -9 0 -9
-15 -2 -40 1 -3 5 4 10 15 8 19 9 19 9 -2 1 -12 -4 -25 -9 -28 -7 -4 -6 -14 1
-28 9 -21 9 -21 -5 -4 -8 11 -12 25 -10 31 3 7 -2 13 -11 13 -8 0 -14 -7 -13
-16 2 -9 -4 -16 -12 -16 -8 0 -15 8 -15 18 0 20 -30 42 -44 32 -5 -3 -8 3 -6
12 2 10 4 26 4 36 1 9 8 17 16 17 14 0 14 -3 0 -24 -14 -21 -14 -24 0 -30 25
-9 29 -7 15 9 -9 11 -10 18 -1 28 6 8 8 17 4 21 -4 4 0 4 10 0 17 -6 23 6 10
20 -12 12 -12 36 0 36 7 0 5 5 -3 10 -9 6 -10 10 -3 10 6 0 15 -4 18 -10 3 -5
11 -10 17 -10 7 0 7 4 -1 13 -6 8 -8 17 -4 20 10 10 -6 8 -27 -3 -14 -7 -20
-6 -24 7 -6 14 -8 14 -26 -2 -22 -20 -28 -7 -7 14 10 11 9 12 -2 6 -11 -6 -13
-4 -8 8 4 10 2 17 -4 17 -6 0 -9 -9 -6 -20 6 -23 -8 -27 -17 -5 -3 8 -11 12
-18 10 -9 -4 -14 2 -15 15 -1 11 2 20 8 20 5 0 9 -4 9 -10 0 -5 5 -10 11 -10
8 0 7 5 -1 15 -7 9 -19 14 -27 11 -8 -3 -11 -1 -8 4 3 6 12 10 20 10 19 0 28
17 14 26 -8 5 -9 3 -4 -6 5 -8 3 -11 -6 -8 -8 3 -13 11 -11 17 1 7 -2 10 -7 6
-6 -3 -7 -13 -4 -22 5 -12 3 -14 -7 -8 -8 5 -11 4 -6 -3 3 -6 -1 -18 -10 -26
-10 -10 -11 -16 -3 -16 8 0 9 -3 0 -13 -6 -8 -8 -17 -4 -20 3 -4 1 -7 -5 -7
-6 0 -9 -6 -6 -14 3 -8 1 -17 -5 -21 -16 -9 -13 -28 3 -22 10 4 13 1 9 -8 -3
-8 -9 -13 -13 -10 -5 3 -6 -4 -3 -15 4 -16 9 -18 25 -9 11 6 22 8 26 5 3 -3
-1 -6 -8 -6 -7 0 -10 -3 -7 -6 4 -4 13 -2 21 5 11 9 15 8 19 -4 4 -8 13 -12
21 -9 8 3 17 0 22 -7 4 -7 3 -10 -2 -6 -5 3 -8 -12 -6 -35 3 -28 1 -39 -7 -34
-6 4 -11 0 -12 -11 0 -16 -1 -16 -8 1 -8 21 -24 8 -18 -16 2 -7 2 -10 0 -5 -3
4 -9 4 -14 1 -6 -3 -5 -12 3 -22 12 -15 11 -16 -4 -3 -10 7 -15 17 -12 22 3 5
-2 9 -10 9 -19 0 -21 -11 -4 -28 8 -8 8 -15 -2 -27 -10 -12 -10 -18 1 -32 12
-16 12 -17 -1 -7 -8 6 -28 14 -45 18 l-30 8 24 12 c13 7 19 16 14 19 -12 8
-78 -32 -68 -41 4 -4 10 -1 12 6 4 9 9 8 21 -6 10 -11 25 -18 34 -16 10 1 21
-3 25 -8 3 -7 1 -8 -5 -4 -7 4 -12 3 -12 -3 0 -5 6 -12 13 -14 6 -3 -3 -4 -22
-2 -18 2 -42 12 -53 22 -11 9 -19 13 -18 8 4 -20 0 -36 -8 -31 -4 2 -9 -4 -9
-15 -1 -10 3 -19 8 -19 6 0 8 4 5 9 -11 17 18 30 36 17 10 -7 15 -16 11 -19
-3 -4 -1 -7 5 -7 7 0 12 5 12 10 0 6 5 10 11 10 8 0 7 -5 -1 -15 -7 -9 -19
-14 -26 -11 -22 8 -24 -6 -4 -24 17 -15 18 -19 5 -24 -17 -6 -21 -37 -4 -33 6
1 14 -5 16 -13 3 -11 2 -12 -4 -2 -7 10 -13 8 -27 -7 -23 -25 0 -40 57 -36 21
2 36 0 33 -3 -10 -9 -70 -10 -88 -1 -12 7 -20 4 -27 -8 -6 -10 -11 -13 -11 -8
0 6 6 17 13 24 10 11 9 13 -5 8 -26 -9 -22 7 5 18 23 11 25 42 4 58 -8 6 -6 7
5 4 26 -9 29 4 6 24 -22 19 -54 26 -44 10 8 -12 -4 -42 -14 -36 -5 3 -7 -3 -5
-12 2 -10 4 -18 5 -18 1 0 3 -11 6 -25 3 -18 2 -21 -5 -10 -5 8 -8 17 -6 20 2
4 -2 7 -8 7 -7 0 -14 -9 -14 -19 -1 -10 2 -16 7 -13 6 3 7 -1 4 -9 -3 -9 -11
-14 -17 -13 -6 1 -11 -2 -12 -8 0 -5 -3 -15 -7 -21 -10 -15 -3 -49 10 -49 6 0
13 -3 17 -7 12 -12 -23 -2 -38 11 -14 11 -15 8 -12 -24 3 -32 2 -34 -10 -18
-12 16 -13 14 -11 -19 1 -27 -2 -34 -10 -27 -8 7 -15 6 -20 -2 -4 -7 -3 -9 3
-6 6 4 13 0 16 -8 4 -9 1 -12 -7 -9 -7 3 -19 -3 -27 -13 -13 -17 -13 -17 5 -3
18 14 19 14 7 -8 -6 -12 -17 -22 -22 -22 -6 0 -9 -7 -5 -15 3 -8 1 -15 -5 -15
-6 0 -7 -5 -4 -10 4 -6 11 -7 17 -4 7 4 8 2 4 -5 -4 -6 -11 -9 -16 -6 -13 8
-40 -24 -40 -46 0 -10 -5 -19 -11 -19 -5 0 -7 -4 -4 -10 3 -5 2 -10 -3 -10
-10 0 -27 -48 -23 -64 1 -5 -4 -6 -12 -3 -10 4 -13 -2 -11 -19 1 -13 -2 -22
-7 -18 -5 3 -9 -1 -9 -10 0 -8 -6 -17 -12 -19 -10 -4 -10 -6 0 -6 10 -1 10 -5
-2 -17 -9 -8 -14 -20 -11 -25 4 -5 -1 -9 -10 -9 -9 0 -14 -4 -11 -9 7 -11 -33
-57 -46 -53 -5 1 -7 -2 -3 -8 3 -5 1 -10 -5 -10 -6 0 -9 -4 -5 -9 3 -5 0 -13
-6 -16 -5 -4 -8 -13 -5 -21 3 -8 0 -13 -7 -11 -7 1 -11 -4 -10 -11 2 -6 -2
-12 -8 -12 -5 0 -8 -4 -5 -9 3 -5 -1 -14 -9 -21 -8 -7 -12 -16 -9 -21 3 -5 1
-9 -3 -9 -5 0 -9 -8 -10 -18 -2 -28 -8 -47 -15 -53 -5 -3 -9 -18 -10 -35 -1
-18 -13 -40 -32 -56 -16 -16 -26 -28 -21 -28 5 0 0 -7 -11 -15 -10 -8 -16 -15
-11 -15 4 0 -2 -9 -13 -20 -12 -12 -18 -25 -15 -30 4 -6 -1 -7 -11 -3 -12 4
-15 3 -10 -5 4 -6 -2 -19 -14 -29 -11 -10 -20 -21 -20 -25 0 -4 -14 -30 -31
-58 -17 -28 -32 -56 -33 -63 -1 -6 -5 -18 -9 -24 -5 -8 -3 -13 5 -13 9 0 9 -3
-2 -10 -13 -9 -13 -10 0 -10 12 0 13 -2 1 -9 -7 -5 -10 -14 -7 -20 4 -6 2 -11
-5 -11 -7 0 -9 -3 -6 -7 4 -3 2 -12 -4 -20 -9 -10 -8 -13 2 -13 10 0 10 -3 1
-12 -7 -7 -12 -20 -12 -30 0 -10 -6 -18 -12 -18 -9 0 -8 -4 2 -10 11 -7 11
-10 2 -10 -7 0 -10 -5 -7 -10 3 -6 1 -10 -5 -10 -7 0 -10 -7 -6 -15 3 -8 1
-15 -5 -15 -6 0 -7 -4 -4 -10 3 -5 1 -10 -4 -10 -6 0 -11 -6 -11 -14 0 -8 -7
-16 -15 -20 -8 -3 -15 -12 -15 -20 0 -7 -7 -17 -16 -20 -8 -3 -13 -10 -10 -15
3 -5 -1 -11 -9 -15 -8 -3 -15 -12 -15 -21 0 -8 -5 -15 -11 -15 -5 0 -8 -4 -5
-9 3 -5 -1 -11 -9 -14 -8 -4 -12 -15 -10 -27 2 -11 0 -18 -4 -15 -11 6 -97
-82 -94 -96 2 -5 -3 -9 -10 -9 -13 -1 -83 -90 -79 -102 1 -5 -3 -8 -9 -8 -5 0
-7 -5 -4 -10 3 -6 1 -10 -5 -10 -6 0 -9 -4 -6 -9 3 -5 -1 -14 -9 -21 -8 -7
-15 -19 -15 -26 0 -8 -4 -14 -9 -14 -5 0 -13 -9 -16 -20 -4 -11 -11 -18 -16
-15 -5 3 -6 0 -4 -7 3 -7 -15 -35 -39 -61 -25 -26 -42 -47 -38 -47 4 0 3 -4
-3 -8 -21 -15 -42 -47 -25 -37 8 4 5 -2 -8 -14 -12 -12 -20 -26 -17 -31 3 -5
-3 -11 -13 -14 -9 -3 -30 -25 -45 -48 -15 -23 -27 -39 -27 -35 0 10 -32 -23
-60 -63 -13 -19 -29 -38 -34 -42 -6 -4 -11 -13 -12 -20 -2 -23 -16 -58 -23
-58 -14 0 -61 -82 -54 -93 4 -7 -1 -6 -11 2 -9 8 -16 10 -14 4 4 -12 -128
-144 -136 -135 -3 3 -6 0 -6 -6 0 -9 -65 -56 -80 -57 -3 -1 -15 -6 -26 -13
-12 -6 -24 -8 -28 -5 -3 3 -6 1 -6 -6 0 -7 -4 -9 -10 -6 -5 3 -10 1 -10 -6 0
-7 -3 -10 -6 -6 -4 3 -12 1 -20 -6 -49 -44 -124 -88 -136 -81 -7 5 -8 3 -3 -6
6 -10 4 -12 -8 -7 -9 3 -17 2 -19 -3 -2 -5 -14 -11 -28 -14 -14 -2 -26 -5 -27
-7 -2 -1 -6 -2 -10 -3 -5 -1 -26 -10 -48 -20 -22 -11 -56 -20 -77 -20 -26 -1
-34 -4 -27 -13 7 -8 5 -11 -8 -8 -10 1 -23 -2 -30 -7 -7 -6 -14 -5 -19 3 -5 8
-3 9 6 4 9 -5 11 -4 6 4 -6 9 -11 9 -21 1 -10 -9 -15 -6 -20 11 -4 12 -10 17
-14 12 -9 -14 -41 -24 -41 -12 0 6 -6 6 -17 1 -10 -5 -24 -7 -32 -4 -9 3 -11
0 -6 -8 5 -9 4 -11 -3 -6 -6 4 -22 0 -35 -9 -13 -8 -27 -12 -30 -8 -4 3 -7 1
-7 -6 0 -7 -4 -10 -9 -7 -5 4 -12 0 -14 -6 -4 -10 -6 -10 -6 0 -1 7 -5 11 -10
8 -14 -9 -54 29 -56 53 -1 11 1 21 5 21 10 0 0 52 -14 69 -8 12 -8 13 2 7 11
-7 11 -4 0 13 -7 12 -17 21 -22 21 -4 0 -3 6 3 14 9 11 8 15 -4 20 -9 3 -13
11 -9 17 4 7 1 17 -7 23 -8 6 -15 20 -15 31 0 11 -6 19 -13 17 -7 -1 -10 2 -7
7 4 5 -2 17 -11 27 -12 11 -18 13 -21 5 -3 -9 -7 -9 -18 0 -12 10 -13 8 -8 -7
4 -10 4 -16 0 -12 -5 4 -20 2 -35 -3 l-26 -9 25 20 25 20 -27 -9 c-17 -7 -29
-7 -33 -1 -4 6 -11 10 -16 10 -6 0 -8 -4 -5 -9 4 -5 -3 -7 -14 -4 -12 3 -20 0
-20 -8 0 -7 -3 -9 -6 -6 -4 4 -1 13 6 22 10 12 10 18 -1 32 -11 15 -11 16 0 6
16 -14 41 -6 41 14 0 8 4 12 9 8 11 -6 28 23 26 45 -1 8 2 20 6 25 9 14 8 97
-2 117 -5 9 -10 30 -12 46 -2 16 -16 45 -31 63 -16 19 -25 28 -20 20 4 -9 3
-12 -3 -8 -6 4 -9 18 -8 31 2 19 -1 23 -13 20 -15 -5 -15 -4 1 9 20 17 23 31
4 24 -16 -6 -10 54 7 66 8 6 7 10 -1 14 -7 2 -13 14 -13 26 0 11 -3 17 -7 14
-3 -4 -13 2 -20 13 -8 11 -19 18 -24 15 -5 -4 -9 1 -9 10 0 9 -4 14 -8 11 -5
-3 -14 4 -22 14 -8 10 -17 17 -22 14 -4 -3 -11 2 -14 10 -3 9 -12 16 -20 16
-8 0 -14 5 -14 10 0 6 -7 10 -15 10 -8 0 -15 5 -15 10 0 6 -6 10 -12 10 -7 0
-26 11 -42 25 -16 13 -33 22 -37 19 -5 -3 -9 5 -9 18 0 18 -2 20 -10 8 -9 -15
-15 -5 -12 21 1 4 -6 6 -16 5 -10 0 -16 5 -14 13 2 8 -3 11 -11 8 -8 -3 -26 6
-40 19 -14 13 -31 24 -37 24 -5 0 -10 5 -10 10 0 6 -6 10 -13 10 -20 0 -108
46 -101 53 3 3 -4 10 -15 17 -12 6 -19 15 -16 21 4 5 2 9 -4 9 -6 0 -8 7 -5
15 4 10 0 13 -16 10 -18 -3 -20 -2 -10 10 6 7 21 12 33 10 21 -4 21 -4 3 10
-20 15 -20 15 0 15 16 0 17 2 4 10 -12 7 -12 10 -1 10 8 0 11 6 7 16 -6 15 -4
15 10 3 16 -13 16 -12 4 10 -11 22 -10 23 5 17 14 -5 15 -3 8 6 -12 16 -13 49
-1 42 5 -3 5 -10 2 -16 -4 -7 -2 -8 4 -4 6 4 8 14 5 23 -5 12 -3 14 7 8 8 -5
11 -4 6 3 -4 6 -14 9 -24 6 -15 -5 -15 -5 1 6 9 6 22 8 29 4 6 -4 8 -3 4 4 -3
6 -1 14 5 17 5 4 8 14 5 22 -4 11 -2 13 9 9 12 -4 14 0 11 20 -4 23 -3 24 11
12 10 -7 14 -8 10 -1 -4 6 -1 14 5 16 10 4 10 6 1 6 -7 1 -13 6 -13 12 0 5 5
7 12 3 8 -5 9 -1 4 12 -6 15 -5 16 5 7 14 -14 51 26 56 61 2 12 8 23 13 24 6
2 7 9 3 15 -4 7 1 6 10 -2 15 -12 17 -12 11 3 -7 17 28 61 39 50 3 -3 10 4 17
15 6 12 16 18 22 15 6 -4 8 -3 4 4 -3 6 -1 14 5 17 5 4 8 13 5 20 -2 7 4 15
16 19 18 4 19 7 8 20 -12 16 -5 21 22 17 4 0 3 11 -2 25 -7 17 -7 23 0 19 6
-3 10 -1 10 5 0 6 5 8 10 5 6 -4 10 -3 9 2 -2 15 13 53 22 53 5 0 9 7 9 16 0
14 2 15 17 3 9 -8 14 -9 10 -2 -9 14 2 45 14 37 5 -3 6 3 2 12 -5 14 -3 16 12
11 15 -6 16 -5 5 8 -11 13 -10 14 5 9 12 -5 16 -4 11 4 -3 6 -1 14 6 19 7 4
20 17 28 28 l15 20 -25 -20 -25 -20 19 23 c11 13 26 20 34 17 13 -5 13 -3 1
12 -8 9 -9 14 -3 10 7 -4 15 0 18 9 3 9 11 12 18 8 8 -5 9 -2 4 12 -4 10 -4
15 0 12 3 -4 13 0 21 8 8 8 19 12 24 9 5 -4 6 2 2 11 -4 12 -3 15 6 10 8 -6
11 -2 9 10 -2 11 3 19 12 19 8 0 16 10 18 21 2 12 13 30 25 40 l22 19 -19 -23
c-17 -19 -17 -22 -3 -16 17 6 20 13 20 47 0 13 3 15 13 6 11 -9 14 -9 14 0 0
7 5 9 11 5 7 -4 7 1 -1 16 -7 12 -7 20 -2 16 6 -3 12 -3 15 1 2 5 2 2 1 -4 -2
-7 1 -13 6 -13 6 0 10 9 10 21 0 11 4 18 8 15 5 -3 16 4 25 15 9 10 14 19 12
19 -3 0 0 6 7 14 7 8 17 11 22 8 5 -3 6 0 2 6 -4 7 -2 12 3 12 6 0 11 7 11 16
0 9 5 12 13 8 6 -4 9 -3 4 1 -4 5 0 16 9 26 9 10 14 25 11 34 -4 8 -2 15 2 15
5 0 12 -6 14 -12 3 -8 6 -5 6 5 1 11 6 15 13 11 7 -4 8 -3 4 4 -4 6 2 20 14
32 27 27 26 38 -2 14 -21 -18 -22 -18 -8 0 8 10 25 22 38 27 14 5 20 14 16 21
-5 8 -2 9 11 4 16 -6 16 -4 4 11 -7 10 -10 15 -5 11 9 -8 41 20 41 36 1 6 6
10 13 9 7 -2 12 4 12 13 0 10 6 14 15 10 8 -3 14 0 12 7 -1 7 6 11 17 9 11 -2
15 1 11 7 -3 6 1 11 9 11 10 0 13 6 10 15 -4 8 -1 15 6 15 6 0 8 5 5 10 -3 6
-1 10 5 10 6 0 9 4 6 9 -3 5 1 12 10 15 8 3 12 10 9 16 -3 6 1 13 9 16 9 3 16
10 16 15 0 5 30 38 66 74 37 36 62 65 58 65 -5 0 -3 4 5 9 15 10 19 22 25 81
2 19 5 36 6 38 1 1 4 7 5 12 1 6 3 11 5 13 2 2 10 44 12 68 1 9 8 14 15 12 11
-4 11 -8 1 -21 -12 -13 -11 -14 9 -2 12 8 19 18 17 22 -5 7 10 12 29 9 4 0 7
6 7 14 0 8 5 15 10 15 6 0 10 9 10 21 0 11 5 17 10 14 6 -3 10 0 10 8 0 8 9
22 20 32 11 10 20 24 20 32 0 8 5 11 10 8 6 -3 10 -2 10 4 0 6 17 29 38 51 20
23 49 55 65 71 15 17 27 35 27 39 0 5 8 17 18 27 10 10 46 53 81 96 34 42 66
77 72 77 5 0 9 4 9 10 0 5 14 24 30 42 41 44 47 51 120 143 35 44 71 87 80 95
14 14 42 68 42 80 0 3 7 13 15 23 9 9 13 17 9 17 -4 0 4 11 16 24 13 12 28 21
34 19 7 -2 15 1 20 8 5 8 3 10 -7 4 -8 -5 -11 -4 -6 1 5 5 12 9 15 9 4 0 13 4
21 9 10 7 12 6 6 -3 -9 -15 25 1 47 22 7 7 26 21 43 31 33 21 47 32 76 59 10
9 19 15 19 12 0 -3 7 0 16 7 28 23 114 107 114 113 0 3 10 16 22 30 12 14 23
33 24 42 2 9 10 20 19 25 8 5 13 13 10 19 -4 5 -3 9 2 9 4 0 28 18 52 40 25
22 52 40 61 40 8 0 40 16 69 35 30 18 67 37 82 40 16 4 29 10 29 15 0 4 21 11
48 15 26 4 61 12 77 19 20 8 80 11 180 10 173 -4 175 -4 175 -18 0 -6 5 -4 10
4 5 8 10 10 10 4 0 -6 15 -10 36 -9 36 2 53 -8 33 -20 -6 -4 13 -19 43 -33 62
-30 76 -34 84 -21 3 5 10 7 15 4 5 -4 9 -1 9 5 0 7 6 8 18 2 9 -5 23 -7 31 -4
8 3 11 0 7 -6 -4 -7 2 -19 13 -29 11 -9 18 -20 15 -24 -2 -4 4 -6 13 -5 10 2
18 11 18 21 0 10 6 20 13 23 6 2 12 -2 12 -10 0 -8 11 -13 30 -12 29 1 57 14
30 14 -7 0 -10 3 -7 6 4 4 13 1 22 -6 9 -8 15 -8 15 -2 0 6 -8 17 -17 24 -26
19 -25 35 0 32 12 -1 27 -3 32 -3 6 -1 2 -8 -8 -15 -11 -8 -14 -17 -8 -20 5
-4 13 -2 16 4 7 12 35 -5 35 -21 0 -14 -28 -11 -33 4 -4 9 -6 8 -6 -2 -1 -8 7
-20 17 -27 16 -13 16 -14 -3 -7 -18 6 -19 5 -5 -13 14 -18 14 -18 -2 -5 -11 8
-23 10 -31 5 -7 -5 -5 -2 5 7 14 14 15 18 4 22 -15 6 -29 -6 -39 -35 -4 -12
-1 -18 9 -18 8 0 17 -7 21 -16 3 -9 12 -13 21 -9 9 3 13 3 10 -1 -4 -3 4 -17
17 -30 24 -24 41 -32 30 -14 -3 6 1 7 10 4 17 -7 17 16 0 28 -6 5 -4 8 5 8 12
0 12 2 1 9 -9 6 -10 11 -2 15 6 4 12 2 12 -3 3 -21 4 -26 13 -40 5 -8 4 -16
-4 -21 -10 -6 -9 -9 1 -12 9 -3 8 -6 -5 -11 -10 -4 -15 -3 -11 3 3 6 1 10 -4
10 -18 0 -12 -18 16 -47 14 -15 23 -22 19 -15 -4 6 -2 12 3 12 6 0 11 -8 11
-17 0 -15 2 -16 10 -3 6 9 10 11 10 3 0 -7 7 -10 18 -7 9 3 7 -1 -6 -8 -12 -8
-20 -17 -16 -21 4 -3 -8 -5 -25 -2 -28 3 -31 2 -20 -11 10 -12 10 -15 -2 -12
-16 3 -14 -44 2 -50 5 -2 9 -10 9 -19 0 -18 25 -45 34 -36 3 4 6 1 6 -6 0 -7
6 -11 14 -8 8 3 17 -1 20 -10 4 -8 13 -13 20 -10 8 3 17 1 20 -6 5 -9 8 -9 12
1 5 10 10 9 21 -5 8 -10 12 -12 8 -6 -4 9 -1 11 9 7 9 -3 13 -11 9 -18 -3 -6
-1 -6 8 2 7 6 17 12 22 12 4 0 5 -6 1 -12 -5 -9 -2 -9 9 1 12 9 17 10 17 2 0
-7 5 -9 10 -6 6 4 8 10 5 15 -3 5 9 7 27 6 27 -2 33 -7 32 -24 0 -12 3 -22 8
-22 5 0 7 -4 4 -9 -20 -32 81 -59 149 -39 48 14 69 20 83 20 6 1 12 4 12 8 0
3 20 5 45 5 25 -1 48 2 51 7 3 4 13 4 22 0 25 -12 67 -8 88 8 17 14 18 14 6
-2 -12 -15 -10 -17 17 -16 19 1 28 5 24 12 -5 8 -3 8 8 0 16 -12 29 -12 47 -1
7 5 12 3 12 -5 0 -9 3 -9 10 2 9 13 10 13 10 0 0 -9 3 -11 8 -5 10 15 52 18
52 5 0 -7 9 -2 20 11 11 13 19 19 18 14 -2 -6 1 -10 7 -10 5 0 9 4 7 8 -1 4 7
3 19 -4 15 -7 19 -8 15 0 -5 7 6 9 33 7 24 -2 42 1 45 7 3 8 5 8 5 -1 1 -7 6
-10 12 -7 5 4 45 9 87 11 88 4 106 7 146 23 16 6 38 13 50 16 11 2 23 4 26 5
3 2 8 2 13 1 4 0 7 4 7 11 0 6 3 8 7 5 3 -4 12 -2 18 3 7 6 26 12 43 13 16 1
28 5 25 10 -2 4 4 7 15 7 25 0 76 47 59 53 -9 4 -9 6 1 6 6 1 12 6 12 12 0 5
-4 7 -10 4 -5 -3 -10 -1 -10 5 0 6 -11 16 -25 22 -21 9 -23 14 -12 26 9 13 9
14 0 8 -7 -4 -13 -3 -13 3 0 5 -9 8 -20 6 -11 -2 -22 1 -26 6 -3 5 -2 9 3 8
28 -5 34 1 22 24 -12 21 -11 21 6 7 17 -14 18 -14 6 8 -8 15 -8 22 -1 22 6 0
8 5 5 10 -3 6 -1 10 5 10 6 0 8 5 4 12 -5 8 -2 9 11 5 11 -5 23 -1 32 10 8 10
12 13 9 6 -7 -14 10 -27 18 -14 11 18 -23 35 -41 20 -15 -13 -15 -12 -4 8 10
19 9 22 -4 17 -11 -5 -14 -2 -8 12 4 11 3 15 -4 11 -6 -4 -10 -1 -9 5 2 14 21
23 21 10 0 -13 33 -43 38 -34 2 4 2 2 1 -5 -2 -6 4 -14 12 -17 9 -3 12 -1 9 4
-3 6 -1 10 4 10 6 0 11 -12 11 -27 0 -22 2 -25 10 -13 8 13 10 12 10 -3 0 -10
5 -15 10 -12 6 3 10 1 10 -5 0 -6 11 -15 24 -21 16 -8 23 -17 19 -28 -3 -12 0
-11 13 4 14 17 16 17 11 3 -4 -10 -2 -18 3 -18 6 0 10 -6 10 -14 0 -8 7 -17
16 -20 8 -3 12 -11 8 -17 -4 -7 -3 -9 3 -6 11 7 80 -70 75 -85 -1 -5 2 -7 8
-3 9 6 14 -8 11 -28 -1 -5 3 -6 8 -3 5 3 15 -2 22 -11 12 -14 12 -16 -1 -8 -8
5 -1 -7 15 -27 17 -20 34 -37 38 -37 12 -1 37 -28 31 -33 -2 -3 2 -11 11 -18
8 -7 15 -21 15 -32 0 -10 4 -17 9 -13 5 3 12 -3 15 -13 8 -23 62 -82 76 -82 6
0 8 5 5 10 -3 6 -4 10 -1 10 3 0 10 -9 16 -20 9 -16 8 -19 -7 -14 -17 5 -16 4
1 -10 10 -8 15 -19 12 -25 -4 -5 3 -12 14 -16 11 -3 20 -11 20 -16 0 -5 5 -9
11 -9 5 0 7 5 3 11 -4 7 2 7 17 -1 30 -16 39 -25 17 -17 -10 3 -19 0 -22 -9
-3 -9 -1 -12 4 -9 6 3 10 0 10 -8 0 -8 7 -20 15 -27 8 -7 12 -16 10 -21 -3 -4
3 -12 12 -18 10 -5 17 -11 15 -13 -5 -5 15 -50 37 -82 11 -17 17 -34 14 -39
-4 -6 -1 -7 7 -2 10 6 12 4 7 -8 -4 -11 -1 -17 7 -17 9 0 13 -10 11 -30 -2
-26 -1 -29 13 -18 13 11 14 10 5 -6 -12 -22 -9 -28 58 -95 49 -50 98 -92 102
-89 1 1 23 -19 50 -44 26 -25 47 -43 47 -40 0 3 8 -4 18 -17 9 -13 29 -36 45
-52 15 -16 27 -33 27 -39 0 -5 6 -10 13 -10 7 0 22 -7 33 -16 10 -8 12 -13 4
-9 -8 4 -6 -1 4 -9 11 -9 17 -16 13 -16 -4 0 1 -9 10 -19 9 -11 23 -17 32 -13
14 5 14 4 1 -13 -9 -11 -10 -16 -2 -11 15 9 16 -6 1 -21 -8 -8 -7 -13 2 -18 8
-6 10 -4 4 5 -5 8 -4 11 2 7 6 -4 9 -20 7 -37 -2 -16 1 -30 6 -30 5 0 7 -9 5
-20 -2 -12 2 -23 9 -26 8 -3 13 -18 12 -35 -1 -17 2 -33 7 -36 6 -3 7 -1 3 5
-4 7 -2 12 4 12 8 0 10 -10 6 -27 -5 -21 -4 -24 3 -13 9 13 13 12 28 -4 14
-16 15 -17 1 -7 -14 10 -16 9 -11 -8 3 -12 9 -21 12 -21 4 0 8 -6 9 -12 3 -35
9 -65 16 -76 4 -7 5 -16 1 -21 -3 -5 -1 -12 4 -16 5 -3 8 -14 6 -25 -2 -12 0
-18 5 -15 4 3 8 -10 8 -28 0 -39 5 -60 14 -68 5 -3 9 -17 10 -32 1 -15 6 -27
10 -27 4 0 7 -3 7 -7 -4 -25 2 -63 9 -59 5 3 9 -14 10 -37 1 -23 2 -63 4 -88
2 -31 -1 -46 -9 -47 -44 -5 -64 -3 -92 11 -20 10 -29 11 -25 4 3 -7 -1 -4 -9
6 -8 9 -19 17 -26 17 -6 0 -11 4 -11 9 0 5 -9 11 -21 14 -12 3 -18 10 -15 15
3 6 -2 8 -12 5 -11 -3 -19 1 -19 9 -1 22 -7 42 -18 53 -15 16 -65 46 -65 40 0
-3 -10 0 -22 7 -13 7 -30 13 -38 14 -8 1 -28 7 -45 14 -16 6 -31 10 -31 8 -1
-2 -10 4 -20 13 -22 19 -69 31 -134 34 -47 3 -94 10 -145 24 -16 4 -63 7 -103
7 -41 -1 -76 2 -79 7 -2 4 -11 3 -19 -4 -8 -6 -14 -7 -14 -2 0 5 -26 10 -59
10 -32 0 -64 3 -70 7 -6 4 -11 3 -11 -1 0 -5 -15 -9 -32 -9 -39 -1 -120 -14
-130 -20 -3 -2 -10 0 -13 6 -5 8 -11 8 -19 1 -7 -6 -37 -12 -67 -15 -85 -6
-139 -18 -139 -30 0 -6 -5 -4 -10 4 -5 8 -10 10 -10 5 0 -10 -90 -42 -99 -36
-2 1 -7 -2 -10 -8 -4 -5 -19 -12 -35 -15 -16 -3 -32 -9 -35 -13 -3 -5 -13 -8
-21 -8 -8 1 -36 -9 -61 -21 -26 -13 -49 -20 -53 -17 -3 4 -6 1 -6 -6 0 -7 -4
-9 -10 -6 -5 3 -10 1 -10 -4 0 -6 -3 -10 -7 -9 -11 2 -43 -12 -84 -38 -20 -13
-40 -20 -43 -17 -3 4 -6 1 -6 -6 0 -7 -4 -10 -9 -6 -5 3 -16 -1 -23 -9 -8 -7
-27 -20 -43 -29 -17 -8 -40 -25 -52 -36 -12 -12 -27 -21 -33 -21 -6 0 -8 -4
-5 -10 3 -6 2 -10 -2 -10 -17 0 -133 -122 -133 -140 0 -5 -4 -10 -10 -10 -5 0
-7 -6 -4 -14 3 -7 -2 -16 -11 -20 -9 -3 -14 -10 -11 -15 4 -5 0 -15 -7 -23 -8
-7 -13 -21 -11 -31 1 -9 -2 -17 -7 -17 -4 0 -6 -7 -3 -15 4 -8 1 -15 -4 -15
-6 0 -11 -8 -11 -17 -1 -23 -8 -78 -11 -78 -1 0 -3 -25 -4 -55 -1 -30 -5 -60
-9 -67 -4 -6 -3 -14 3 -18 5 -3 9 -16 8 -29 -1 -12 6 -39 16 -60 10 -21 19
-44 20 -50 1 -6 6 -18 11 -26 5 -8 10 -23 11 -32 1 -10 3 -20 4 -23 1 -3 4 -9
5 -15 1 -5 3 -11 4 -12 2 -2 4 -16 6 -32 2 -16 10 -33 17 -37 7 -5 9 -9 4 -9
-5 0 -3 -7 4 -15 6 -8 9 -19 5 -25 -3 -5 1 -10 10 -10 9 0 13 -4 10 -10 -3 -5
-1 -10 5 -10 7 0 9 -7 6 -17 -4 -10 -4 -15 -1 -11 9 9 45 -29 45 -48 0 -8 5
-12 10 -9 6 3 10 -2 10 -11 0 -10 3 -15 6 -12 3 3 23 -11 45 -32 42 -39 139
-94 139 -78 0 5 7 2 16 -6 8 -9 20 -14 25 -10 6 3 17 0 26 -8 12 -9 15 -9 9 0
-5 8 -1 12 13 12 10 0 22 -6 24 -12 4 -10 6 -10 6 0 1 6 8 12 17 12 9 0 12 -5
8 -12 -5 -10 -4 -10 6 -1 9 8 19 9 31 3 11 -7 20 -7 24 0 3 5 11 10 16 10 6 0
7 -4 4 -10 -3 -5 9 -3 27 4 18 7 41 12 51 11 9 -2 17 1 17 7 0 6 7 4 17 -3 9
-8 14 -9 10 -3 -8 14 12 30 33 28 33 -4 59 -17 53 -27 -4 -6 2 -8 15 -5 12 4
22 2 22 -4 0 -5 4 -6 10 -3 5 3 10 2 10 -3 0 -6 7 -13 16 -16 10 -4 13 -2 8 7
-4 6 3 3 16 -8 14 -12 20 -14 15 -5 -5 9 1 7 15 -5 13 -11 20 -14 15 -6 -9 15
30 7 53 -12 9 -7 11 -6 7 5 -5 12 0 14 22 11 15 -2 36 -4 46 -4 9 0 15 -4 12
-10 -4 -5 3 -6 17 0 13 4 31 7 41 6 9 -2 17 1 17 7 0 7 5 7 13 -1 10 -8 17 -7
25 1 7 7 12 8 12 4 0 -5 7 -3 15 4 11 9 15 9 15 1 0 -7 8 -11 18 -10 33 3 43
-1 36 -13 -5 -9 -2 -8 9 1 23 18 34 7 16 -16 -13 -17 -13 -17 7 -1 16 14 23
15 33 5 10 -9 11 -8 5 7 -6 16 -4 17 14 7 13 -7 23 -7 27 -1 3 5 15 6 27 1 25
-9 70 -2 62 10 -3 5 2 6 11 2 10 -3 21 0 26 8 7 12 9 12 9 0 0 -10 3 -11 14
-2 16 14 32 -2 20 -20 -4 -8 -1 -8 12 -1 11 5 40 8 67 8 26 -1 47 2 47 8 0 5
3 6 7 3 3 -4 13 -1 21 6 13 10 15 9 9 -8 -7 -18 -6 -19 6 -3 8 10 17 15 20 11
4 -3 2 9 -3 27 -5 19 -15 37 -21 41 -6 4 -8 12 -5 18 4 6 0 11 -9 11 -9 0 -14
4 -11 9 3 4 -3 16 -14 26 -11 10 -20 23 -20 29 0 6 -14 27 -30 46 -16 19 -30
41 -30 47 0 7 -9 18 -20 25 -11 7 -20 19 -20 26 0 8 -5 10 -12 6 -7 -4 -10 -4
-6 1 10 11 -21 67 -32 60 -6 -4 -10 0 -10 7 0 7 -19 31 -43 53 -23 22 -41 43
-39 47 2 7 -13 12 -30 9 -4 0 -10 8 -13 19 -4 11 -11 18 -16 15 -5 -4 -9 -1
-9 5 0 6 -4 9 -8 6 -5 -3 -14 4 -22 14 -8 10 -17 17 -22 14 -4 -3 -8 0 -8 6 0
7 -6 10 -14 7 -8 -3 -16 -1 -18 4 -2 5 -13 11 -25 12 -14 1 -19 5 -13 12 10
12 -126 13 -137 0 -5 -4 -2 -5 6 0 10 6 12 4 7 -4 -6 -9 -11 -9 -22 0 -8 6
-14 8 -14 3 0 -5 -16 -9 -35 -10 -22 0 -32 3 -28 10 5 8 3 8 -8 0 -8 -6 -38
-11 -67 -10 -32 1 -58 -4 -64 -11 -6 -7 -16 -13 -22 -13 -7 0 -11 -21 -12 -55
-1 -35 2 -52 9 -48 6 4 7 1 1 -8 -5 -8 -9 -18 -9 -23 0 -17 -22 -17 -39 -1
-13 13 -14 21 -5 37 8 15 13 17 19 8 5 -9 9 -9 14 -1 4 6 2 11 -5 11 -8 0 -7
5 2 18 12 15 12 16 -1 6 -8 -5 -22 -10 -30 -9 -8 1 -23 -2 -32 -7 -10 -5 -19
-4 -23 2 -8 13 -25 13 -25 -1 0 -5 5 -7 12 -3 6 4 8 3 5 -4 -9 -13 2 -42 16
-42 6 0 7 3 4 7 -9 9 13 34 24 27 16 -10 9 -26 -8 -20 -15 5 -14 3 2 -10 18
-15 18 -16 1 -10 -13 5 -17 2 -13 -9 4 -8 2 -17 -4 -21 -6 -4 -6 -11 2 -20 10
-12 9 -13 -5 -8 -15 6 -21 23 -17 53 2 7 -2 10 -8 7 -5 -4 -13 -1 -17 5 -4 8
-3 9 4 5 16 -10 15 6 -1 28 -12 17 -15 17 -30 2 -8 -9 -18 -12 -21 -7 -4 5 0
11 6 14 7 2 10 8 6 12 -4 4 -19 0 -32 -9 -14 -9 -29 -16 -33 -16 -4 0 0 5 10
11 30 18 19 46 -16 40 -4 -1 -3 8 3 20 7 12 10 30 7 40 -3 10 -1 19 4 19 5 0
4 11 -1 25 -5 14 -7 25 -4 25 10 0 -21 26 -39 33 -9 3 -16 10 -15 14 2 4 -1 8
-7 8 -5 0 -9 -3 -8 -7 2 -5 -2 -8 -8 -8 -5 0 -7 -4 -4 -10 3 -5 0 -7 -9 -4
-21 8 -10 55 19 81 14 12 25 27 25 33 0 5 4 9 9 7 5 -1 17 7 27 18 26 28 60
53 50 38 -5 -9 -2 -11 8 -7 9 3 16 9 16 13 0 4 12 8 28 9 15 1 29 7 30 12 2 6
8 8 12 5 14 -8 61 6 54 16 -3 5 -1 9 5 9 6 0 21 16 34 35 13 19 27 32 30 28 4
-3 7 -1 7 4 0 6 8 10 18 8 9 -1 22 0 27 4 24 14 94 20 92 8 -2 -9 19 -17 51
-19 6 -1 12 -6 12 -11 0 -5 6 -4 14 2 11 9 16 9 22 0 5 -8 3 -9 -6 -4 -9 6
-11 4 -5 -5 6 -10 11 -10 20 3 13 18 35 23 35 9 0 -13 43 -7 48 7 3 9 10 7 25
-6 11 -10 17 -12 13 -6 -9 16 20 18 29 2 5 -7 14 -4 26 7 18 16 19 16 13 1 -4
-12 -1 -17 11 -17 10 0 13 -4 9 -12 -5 -9 -2 -9 9 1 13 11 17 11 17 1 0 -8 3
-11 6 -7 4 3 19 0 35 -9 16 -8 29 -11 29 -8 0 4 9 -3 19 -15 11 -12 23 -22 28
-22 19 1 43 -11 37 -20 -3 -5 -2 -9 3 -8 21 4 54 -2 50 -8 -7 -12 17 -30 36
-27 9 1 17 -4 17 -12 0 -9 4 -13 9 -9 6 3 13 0 18 -7 4 -7 14 -13 21 -14 38
-3 43 -5 36 -15 -4 -8 0 -8 15 0 14 8 21 8 21 1 0 -5 11 -10 25 -10 14 0 25
-5 25 -11 0 -5 4 -8 8 -5 5 3 20 -1 35 -9 17 -8 29 -10 33 -4 4 6 11 6 19 -1
9 -8 15 -8 20 0 3 6 11 8 16 5 5 -3 6 2 2 11 -4 10 -2 15 3 12 5 -4 10 7 10
23 2 36 8 44 26 33 17 -11 48 -13 42 -2 -3 4 0 8 5 8 10 0 15 -14 12 -33 0 -4
2 -6 6 -5 15 3 43 -14 38 -23 -3 -4 4 -6 15 -4 11 2 20 -1 20 -6 0 -6 5 -7 12
-3 8 5 9 2 5 -9 -4 -11 -1 -17 8 -17 8 0 15 -4 15 -8 0 -4 10 -8 22 -9 12 -1
34 -11 49 -22 20 -15 29 -17 38 -8 8 8 11 6 11 -8 0 -15 2 -17 9 -7 7 11 9 11
14 -2 4 -9 12 -16 20 -16 27 0 77 -46 64 -59 -9 -10 -8 -11 8 -5 16 6 18 4 8
-6 -10 -11 -9 -16 5 -27 9 -8 12 -12 5 -9 -7 4 -11 -1 -10 -11 1 -24 -35 -123
-46 -123 -4 0 -6 -4 -2 -9 3 -6 -3 -14 -12 -20 -10 -6 -14 -11 -9 -11 5 0 -1
-11 -14 -26 -19 -20 -22 -27 -11 -33 8 -5 9 -10 3 -12 -9 -4 -17 -35 -27 -105
-4 -26 -31 -81 -45 -89 -6 -4 -8 -11 -5 -16 4 -5 -1 -9 -10 -9 -9 0 -14 -4
-11 -8 6 -10 -64 -46 -72 -38 -3 3 -11 -2 -19 -12 -9 -10 -12 -11 -7 -2 4 9
-2 7 -13 -5 -11 -11 -19 -23 -16 -27 2 -5 -1 -8 -7 -8 -15 0 -41 -26 -33 -33
3 -3 -7 -9 -22 -13 -17 -4 -23 -9 -15 -14 8 -5 2 -10 -14 -14 -15 -4 -24 -11
-21 -16 3 -5 -4 -11 -15 -15 -11 -4 -18 -10 -15 -15 3 -4 -3 -11 -12 -14 -14
-6 -15 -9 -4 -15 10 -7 8 -10 -8 -16 -18 -5 -20 -9 -10 -21 10 -12 9 -13 -5
-8 -11 4 -16 1 -16 -12 0 -16 -2 -16 -9 -4 -6 8 -7 18 -5 22 3 4 -2 5 -11 2
-9 -4 -23 2 -34 15 -14 16 -21 18 -24 9 -3 -7 -6 -2 -6 12 -1 18 -4 21 -10 11
-5 -7 -14 -10 -20 -7 -6 4 -11 3 -11 -2 0 -6 -7 -13 -16 -16 -10 -4 -13 -2 -8
7 6 8 3 8 -9 -1 -9 -8 -21 -11 -27 -7 -5 3 -10 1 -10 -5 0 -6 -4 -8 -10 -5 -5
3 -10 1 -10 -5 0 -6 -4 -8 -10 -5 -5 3 -10 -1 -10 -9 0 -10 -7 -13 -20 -11
-11 2 -18 0 -15 -4 2 -5 -3 -15 -12 -22 -12 -10 -14 -10 -9 -1 4 6 2 12 -3 12
-6 0 -11 -4 -11 -9 0 -5 -7 -12 -16 -15 -9 -3 -12 -2 -9 5 9 13 -27 8 -38 -6
-5 -6 -7 -4 -4 5 2 8 9 15 15 15 5 0 13 3 17 7 4 3 -1 5 -12 4 -10 -2 -21 2
-25 8 -5 7 -8 4 -8 -7 0 -10 -4 -16 -10 -12 -5 3 -7 13 -4 23 4 10 3 13 -3 6
-16 -20 -43 -24 -43 -6 0 15 -2 15 -10 2 -5 -8 -10 -11 -10 -6 0 5 -6 3 -13
-3 -8 -6 -18 -7 -22 -3 -5 4 -5 1 -1 -6 4 -7 12 -10 17 -7 5 3 6 -1 3 -9 -3
-9 -10 -16 -16 -16 -5 0 -6 5 -3 10 3 6 -1 10 -10 10 -10 0 -13 5 -9 13 5 8 2
8 -9 -2 -16 -12 -22 -8 -18 12 1 5 -3 6 -9 2 -6 -3 -7 -12 -3 -18 4 -7 0 -6
-10 2 -14 11 -18 11 -23 -3 -5 -12 -10 -13 -26 -5 -12 7 -18 7 -14 1 3 -5 -1
-13 -10 -16 -8 -3 -13 -2 -11 2 5 8 -39 53 -45 47 -2 -2 -4 5 -4 15 0 10 2 17
4 15 2 -2 15 0 29 6 22 8 24 7 19 -13 -3 -13 -3 -17 0 -10 3 6 10 12 15 12 6
0 7 -5 3 -12 -4 -7 -3 -8 5 -4 6 4 9 12 6 17 -11 17 24 9 35 -8 10 -16 11 -16
6 -1 -5 18 20 33 29 18 4 -6 11 -10 16 -10 6 0 7 5 4 10 -4 6 -1 9 6 8 7 -2
13 2 14 9 0 6 4 15 9 20 5 4 6 3 3 -3 -4 -7 0 -15 9 -18 8 -3 12 -11 8 -17 -4
-8 -3 -9 5 -5 9 6 9 11 1 21 -14 17 -5 35 18 35 15 0 15 2 2 10 -14 9 -7 15
15 10 6 -1 4 4 -2 11 -15 15 -17 33 -4 24 5 -3 12 -2 15 3 3 5 0 9 -7 10 -7 0
-21 2 -32 4 -11 2 -20 -2 -20 -9 0 -6 -4 -15 -9 -20 -5 -5 -6 -3 -2 4 8 14 -6
18 -18 6 -12 -12 -30 -10 -45 5 -10 10 -16 10 -27 1 -11 -9 -14 -8 -14 5 0 10
-4 14 -10 11 -6 -3 -10 -1 -10 5 0 8 -6 8 -20 0 -11 -6 -31 -8 -45 -6 -13 3
-28 0 -31 -6 -4 -6 -2 -8 3 -5 6 4 10 -1 9 -10 0 -10 4 -18 11 -18 6 0 15 -4
20 -9 4 -5 3 -6 -4 -2 -6 3 -13 -1 -16 -11 -4 -17 -5 -17 -6 0 -1 11 -6 15
-13 11 -6 -4 -8 -3 -5 3 4 6 0 19 -8 29 -15 20 -20 10 -15 -26 1 -8 -7 -4 -19
10 -17 21 -20 22 -14 5 6 -18 5 -18 -10 -6 -11 9 -17 10 -17 2 0 -6 -4 -11 -9
-11 -5 0 -8 8 -7 18 0 10 -5 16 -14 14 -8 -2 -23 -4 -32 -5 -10 -1 -20 -7 -22
-14 -3 -7 -12 -13 -21 -13 -8 0 -15 -4 -15 -10 0 -5 -6 -10 -13 -10 -8 0 -33
-18 -57 -40 -24 -22 -47 -40 -52 -40 -5 0 -7 -4 -3 -9 3 -5 -4 -12 -15 -16
-11 -3 -25 -15 -30 -26 -6 -10 -17 -19 -25 -19 -8 0 -18 -8 -24 -17 -5 -10
-13 -17 -18 -17 -4 1 -7 -2 -5 -8 1 -5 -2 -7 -7 -4 -5 4 -29 -7 -53 -23 -23
-16 -47 -27 -52 -24 -5 4 -6 1 -2 -5 3 -6 -2 -13 -11 -16 -10 -3 -30 -17 -45
-31 -16 -14 -28 -23 -28 -21 0 6 -123 -73 -147 -94 -7 -6 -13 -9 -13 -6 0 2
-14 -9 -31 -25 -18 -16 -37 -28 -43 -26 -6 2 -19 0 -28 -5 -12 -5 -18 -5 -18
2 0 5 -4 10 -10 10 -5 0 -7 -7 -3 -15 3 -9 2 -15 -3 -14 -26 4 -31 -3 -27 -38
7 -64 9 -71 22 -87 9 -11 10 -16 2 -16 -7 0 -6 -9 5 -25 9 -14 14 -25 10 -25
-3 0 6 -22 21 -50 18 -34 29 -46 35 -37 5 8 8 6 9 -8 0 -11 3 -15 5 -9 3 6 20
10 39 8 22 -1 35 2 35 9 0 8 3 8 8 2 4 -5 19 -10 34 -10 22 -1 25 2 15 14 -10
12 -9 13 9 3 22 -12 41 -11 63 2 11 7 12 6 6 -5 -7 -11 -6 -12 6 -3 8 6 27 14
42 18 15 4 25 11 22 16 -3 5 -1 12 5 15 6 4 10 3 9 -2 -5 -27 2 -34 17 -18 9
9 14 19 10 22 -3 3 0 13 7 21 10 13 9 15 -4 10 -9 -3 -16 -1 -16 6 0 6 8 12
18 12 10 0 15 -5 12 -10 -3 -5 -1 -6 5 -2 19 11 14 -5 -5 -20 -12 -9 -14 -13
-5 -14 7 0 10 -5 6 -12 -5 -7 -3 -8 7 -2 8 5 17 9 21 9 3 0 10 4 15 9 5 5 3 6
-4 2 -7 -4 -13 -2 -13 5 0 7 10 9 25 7 18 -4 25 -1 26 11 0 10 2 12 6 4 7 -20
26 -15 19 5 -5 15 -4 15 6 2 18 -21 53 -48 45 -34 -8 14 36 24 55 13 7 -5 23
-2 37 7 13 9 20 11 16 4 -6 -9 -3 -9 13 -1 11 6 30 11 42 11 14 0 19 4 14 13
-6 9 -5 9 8 0 8 -7 18 -10 22 -6 11 12 55 11 53 -1 -1 -6 9 -10 23 -8 20 2 22
1 10 -7 -9 -7 -10 -11 -3 -11 6 0 15 5 19 11 4 8 9 7 15 -2 6 -11 9 -9 15 5 5
14 9 15 15 4 7 -10 9 -11 9 0 0 7 5 10 10 7 6 -4 7 -11 4 -17 -4 -7 -2 -8 5
-4 6 4 8 13 5 19 -5 8 -3 8 7 0 7 -7 18 -13 24 -13 5 0 3 4 -5 10 -12 8 -12
10 3 16 18 6 47 -11 47 -28 0 -6 -7 -7 -16 -4 -8 3 -13 2 -9 -3 3 -5 -1 -12
-7 -14 -10 -4 -10 -6 0 -6 8 -1 10 -6 6 -13 -4 -7 -4 -10 1 -6 4 4 16 3 26 -3
14 -7 19 -6 19 2 0 8 5 7 16 -2 14 -11 18 -11 28 3 9 13 13 13 24 2 15 -16 45
-7 38 12 -3 7 0 16 6 20 6 4 8 3 4 -4 -3 -6 1 -18 10 -27 15 -15 17 -14 31 2
8 10 12 12 8 6 -8 -17 7 -17 24 -1 11 11 12 8 7 -12 -3 -14 -3 -19 0 -12 5 10
9 10 20 1 8 -7 17 -9 21 -5 3 3 1 6 -6 6 -7 0 -9 5 -5 12 5 7 3 8 -7 3 -12 -8
-12 -6 0 8 14 18 22 22 20 10 -4 -22 2 -25 14 -9 11 15 18 16 34 8 14 -8 23
-8 31 0 9 9 15 9 25 -1 10 -10 8 -11 -7 -5 -13 5 -17 4 -12 -4 8 -14 45 -12
42 3 -2 5 -1 7 1 2 3 -4 9 -4 15 -1 5 4 4 -4 -2 -17 -10 -20 -10 -22 1 -11 7
6 20 12 29 12 12 -1 12 -2 -2 -11 -10 -5 -18 -15 -18 -21 0 -6 13 3 29 20 16
16 32 28 35 24 3 -3 6 0 6 6 0 6 9 9 20 7 11 -2 20 0 20 4 0 5 18 8 40 7 22
-1 40 1 40 5 0 4 7 10 16 13 14 5 15 4 4 -9 -11 -13 -10 -14 4 -9 9 3 16 11
16 18 0 7 4 6 9 -3 6 -9 10 -10 16 -2 5 9 10 9 21 0 8 -6 14 -7 14 -2 0 5 12
10 27 11 15 1 30 8 35 15 4 6 8 8 8 3 0 -6 7 -1 16 10 8 10 13 13 9 7 -9 -18
0 -16 19 3 10 9 16 11 16 4 0 -7 6 -5 16 4 8 9 24 16 33 16 10 0 24 7 31 15 7
8 18 15 26 15 7 0 20 10 29 23 8 12 19 21 23 21 4 -1 6 3 4 9 -2 6 3 6 12 -2
11 -9 16 -9 22 0 5 8 3 10 -7 5 -8 -4 -5 0 6 9 11 9 19 21 17 26 -1 6 2 8 7 4
6 -3 15 4 21 15 6 11 15 18 20 15 10 -6 8 14 -4 35 -7 12 -6 13 5 3 19 -19 29
-16 29 9 0 12 3 18 7 15 9 -9 32 24 33 46 0 10 4 16 9 13 8 -5 22 17 22 34 0
3 7 9 15 13 8 5 12 12 9 17 -3 4 2 10 10 14 8 3 15 13 15 21 0 10 5 13 12 9 8
-5 9 -2 5 9 -4 10 -2 16 6 14 7 -1 11 4 9 11 -1 6 5 12 13 12 14 0 19 12 16
33 0 4 6 7 15 7 14 0 14 3 4 15 -11 13 -10 14 5 9 15 -6 17 -3 13 14 -4 12 -3
20 1 17 5 -2 17 3 27 11 10 9 12 12 4 8 -8 -3 0 7 18 25 18 17 27 31 20 31 -7
0 -2 7 10 16 12 8 22 22 22 30 0 8 5 14 12 14 6 0 8 3 5 7 -4 3 1 12 11 20 9
8 11 11 3 7 -9 -5 -12 -3 -7 4 4 7 15 12 24 12 15 0 15 2 2 10 -13 8 -13 10 2
10 9 0 23 14 32 30 9 20 10 28 3 24 -7 -3 -4 1 5 9 10 8 15 17 11 20 -3 4 -1
7 6 7 8 0 11 6 7 16 -3 8 -2 12 4 9 6 -3 10 -1 10 5 0 6 5 8 12 4 7 -4 8 -3 4
4 -4 7 -2 20 3 29 8 14 11 15 11 3 1 -8 7 -1 14 15 7 17 11 33 9 38 -2 4 1 7
7 7 6 0 8 5 5 10 -3 5 0 10 7 10 8 1 5 7 -7 17 -16 13 -17 15 -2 10 9 -4 17
-2 17 3 0 21 2 25 16 33 8 4 14 15 14 24 0 13 3 13 15 3 8 -7 15 -9 15 -5 0 5
8 -2 19 -13 10 -12 21 -19 25 -15 3 3 6 1 6 -6 0 -7 5 -9 10 -6 6 3 10 2 10
-4 0 -5 9 -13 20 -16 11 -3 20 -14 20 -23 0 -15 2 -15 10 -2 8 13 10 12 10 -2
0 -11 8 -18 20 -18 11 0 20 -7 20 -15 0 -8 6 -14 13 -13 6 2 11 -3 9 -9 -1 -7
5 -13 13 -13 9 0 18 -7 21 -15 4 -10 14 -14 28 -10 15 5 17 4 7 -3 -9 -7 -10
-12 -2 -16 6 -4 8 -12 5 -18 -5 -7 -2 -9 8 -5 12 4 15 0 11 -16 -4 -18 -3 -19
6 -7 9 13 11 13 11 -2 0 -9 13 -27 29 -41 17 -14 27 -28 23 -31 -3 -4 2 -4 12
0 14 5 17 4 12 -4 -4 -7 -2 -12 3 -12 6 0 11 -8 11 -18 0 -9 9 -23 20 -30 11
-7 20 -21 20 -32 0 -11 5 -20 10 -20 6 0 10 -7 10 -16 0 -8 4 -13 9 -10 4 3 8
-2 8 -12 0 -35 3 -42 19 -42 8 0 13 -4 10 -9 -4 -5 -1 -22 5 -38 7 -15 11 -38
10 -51 0 -14 3 -21 10 -16 8 4 8 0 0 -15 -8 -14 -8 -21 -1 -21 5 0 10 -11 10
-24 0 -14 5 -28 10 -31 6 -3 10 -15 10 -26 0 -10 5 -19 11 -19 5 0 7 -4 4 -10
-3 -5 -1 -10 5 -10 6 0 8 -5 5 -10 -3 -6 1 -13 9 -16 9 -3 14 -10 11 -14 -3
-5 0 -14 7 -22 7 -7 14 -20 16 -28 2 -8 8 -17 13 -18 5 -2 7 -8 3 -13 -3 -5 0
-9 5 -9 6 0 10 -3 10 -7 -3 -20 2 -34 11 -28 6 3 10 -3 10 -13 0 -22 23 -46
33 -35 4 3 7 1 7 -5 0 -19 18 -14 25 7 4 13 12 18 23 15 14 -5 15 -4 2 5 -16
11 -15 12 15 30 14 9 15 11 3 7 -10 -3 -20 0 -24 6 -4 6 -3 8 3 5 16 -10 39
21 25 35 -6 6 -8 17 -5 24 3 8 0 14 -6 14 -6 0 -8 7 -4 17 5 12 3 14 -7 8 -10
-6 -12 -3 -8 13 4 12 2 23 -3 23 -5 1 -13 2 -19 3 -12 1 -14 15 -4 24 4 4 4 1
-1 -7 -5 -10 -4 -12 4 -7 6 4 9 11 6 16 -3 4 -2 10 2 13 5 2 2 2 -6 0 -8 -2
-18 2 -22 9 -9 14 7 48 22 48 6 0 7 -4 4 -10 -3 -5 -1 -10 5 -10 6 0 8 -6 4
-12 -4 -7 2 -5 14 6 20 17 22 17 28 2 6 -15 8 -15 24 -1 9 8 20 12 24 8 4 -4
4 0 1 10 -5 12 0 19 19 27 14 5 25 15 24 22 -2 7 4 12 12 10 11 -3 11 1 -3 16
-9 10 -14 22 -10 25 5 6 -9 11 -28 9 -3 0 -4 13 -3 29 2 26 0 28 -14 17 -8 -7
-17 -12 -19 -10 -8 6 -23 1 -23 -8 0 -5 8 -7 18 -4 14 5 15 4 2 -5 -11 -8 -18
-6 -29 7 -12 16 -13 15 -7 -4 5 -15 2 -21 -10 -21 -10 0 -14 7 -11 19 3 10 1
20 -3 23 -5 3 -10 -3 -13 -12 -3 -13 -4 -12 -3 3 0 12 -5 29 -13 38 -12 14
-12 16 3 10 9 -3 16 -10 16 -16 0 -5 5 -6 12 -2 8 5 4 14 -13 27 -14 12 -17
18 -7 14 9 -3 19 0 22 8 3 9 0 12 -10 8 -7 -3 -14 0 -14 7 0 6 4 9 9 6 9 -6
34 18 26 25 -2 3 7 6 20 7 14 1 25 -3 25 -9 0 -5 -4 -8 -8 -5 -4 2 -14 0 -22
-6 -12 -8 -11 -9 4 -4 13 5 17 2 12 -9 -3 -8 -1 -15 4 -15 6 0 10 5 10 10 0 6
5 10 11 10 8 0 7 -5 -1 -15 -7 -9 -19 -14 -26 -11 -17 7 -28 -11 -12 -18 7 -3
2 -3 -12 1 -22 5 -23 4 -11 -10 7 -9 17 -14 22 -11 5 3 9 0 9 -5 0 -6 -5 -11
-11 -11 -5 0 -7 -5 -4 -10 4 -7 12 -7 24 0 10 5 22 6 26 2 4 -4 5 4 2 18 -3
14 -1 32 4 40 9 12 10 12 5 -3 -4 -11 -2 -16 5 -11 6 3 9 14 6 24 -3 13 0 17
10 13 8 -3 13 0 11 7 -2 7 3 15 11 18 10 3 11 0 5 -9 -6 -11 -3 -10 11 1 10 8
16 10 12 4 -4 -6 2 -22 14 -35 11 -12 17 -29 15 -36 -3 -7 -1 -13 4 -13 5 0
21 -12 37 -27 15 -16 24 -21 21 -11 -4 10 -1 19 8 22 8 3 13 2 10 -3 -3 -5 1
-14 9 -21 13 -11 14 -10 10 3 -4 8 -1 18 6 23 8 5 10 3 4 -7 -8 -12 -6 -12 8
0 20 16 23 36 5 25 -9 -5 -9 -2 1 9 11 14 11 17 0 17 -11 0 -11 2 1 10 8 5 10
10 4 10 -6 0 -17 11 -24 25 -7 14 -16 23 -19 20 -3 -3 -11 5 -19 17 -11 19
-12 20 -8 3 6 -20 6 -20 -9 -1 -8 11 -15 24 -15 29 0 4 -4 5 -10 2 -5 -3 -10
3 -10 15 0 12 -4 18 -10 15 -5 -3 -10 3 -10 15 0 12 -4 18 -10 15 -5 -3 -10
-1 -10 5 0 15 -26 41 -34 33 -3 -3 -8 2 -12 11 -3 9 -10 13 -15 10 -5 -3 -13
5 -18 18 -6 13 -10 19 -10 15 -1 -4 -13 4 -28 18 -15 14 -32 25 -36 25 -5 0
-6 7 -3 16 3 8 2 13 -3 9 -5 -3 -22 8 -37 24 -15 17 -31 28 -35 26 -4 -3 -9 5
-12 16 -4 15 -11 20 -22 15 -9 -3 -14 -2 -11 2 6 10 -95 118 -106 115 -4 -2
-4 5 -1 14 4 10 2 14 -4 10 -6 -4 -17 1 -24 10 -12 14 -12 16 0 8 9 -5 12 -4
7 3 -4 6 -14 8 -23 5 -11 -4 -14 -3 -9 5 4 7 2 12 -4 12 -6 0 -8 5 -5 10 3 6
1 10 -6 10 -6 0 -22 12 -35 26 -14 15 -29 22 -37 18 -6 -4 -9 -4 -5 1 7 7 -57
80 -64 73 -3 -2 -37 24 -63 50 -8 6 -19 12 -25 12 -6 0 -8 5 -5 10 3 6 0 10
-8 10 -8 0 -28 13 -45 29 -16 16 -33 27 -36 24 -3 -3 -8 2 -12 11 -3 9 -12 16
-20 16 -8 0 -13 3 -13 8 3 19 -2 33 -11 27 -6 -3 -11 2 -12 12 -2 33 -3 38
-11 50 -5 8 -3 13 5 13 10 0 9 3 -1 9 -12 8 -12 12 -2 25 10 12 10 16 2 16 -8
0 -6 6 4 16 13 14 14 19 3 25 -11 7 -11 9 0 9 7 0 10 5 7 10 -3 5 -3 16 2 22
9 15 12 228 3 228 -6 0 -12 44 -14 102 -1 21 -4 38 -7 38 -5 0 -7 27 -10 132
-1 15 -5 26 -9 23 -10 -6 -8 15 3 33 5 6 5 12 0 12 -4 0 -9 12 -10 28 -5 59
-8 77 -14 82 -4 3 -8 19 -10 35 -2 17 -8 36 -14 44 -8 12 -7 13 5 6 12 -7 13
-6 4 6 -11 14 -27 63 -29 86 0 7 -8 21 -17 32 -12 14 -13 21 -5 25 7 2 4 5 -6
5 -10 1 -15 6 -12 12 4 5 -1 19 -10 29 -10 11 -12 20 -6 24 6 4 4 17 -5 36
-15 28 -25 62 -26 88 -1 6 -8 12 -16 12 -8 0 -12 6 -8 15 3 8 2 15 -2 15 -10
0 -47 88 -43 103 1 5 -3 6 -8 2 -6 -3 -13 6 -17 20 -3 14 -10 25 -16 25 -5 0
-6 5 -3 10 3 6 1 10 -5 10 -14 0 -34 21 -38 40 -2 8 -7 17 -11 20 -4 3 -11 13
-14 24 -4 10 -13 16 -21 13 -10 -4 -12 0 -9 14 3 11 -1 21 -11 25 -9 3 -16 13
-16 20 0 8 -6 17 -14 20 -8 3 -20 19 -26 35 -7 16 -19 29 -27 29 -8 0 -11 5
-8 10 3 6 -1 13 -9 16 -9 3 -16 12 -16 20 0 8 -6 14 -14 14 -7 0 -19 14 -26
30 -7 17 -18 34 -25 38 -6 4 -24 25 -38 47 -15 22 -27 36 -27 32 0 -5 -7 -2
-15 7 -8 8 -15 18 -15 22 0 13 -153 153 -161 148 -5 -3 -9 -1 -9 4 0 12 -35
52 -46 52 -8 0 -21 10 -91 71 -13 10 -23 16 -23 14 0 -3 -6 0 -14 7 -8 7 -11
17 -8 22 3 5 1 6 -5 3 -5 -3 -24 7 -41 22 -17 16 -33 26 -36 23 -3 -3 -6 0 -6
6 0 7 -5 12 -11 12 -7 0 -27 16 -45 36 -19 19 -34 33 -34 29 0 -3 -6 0 -14 7
-8 7 -13 15 -13 18 1 3 -2 5 -6 5 -5 0 -15 11 -22 25 -7 14 -16 24 -20 22 -8
-4 -30 19 -38 41 -3 9 -14 17 -22 17 -9 0 -14 4 -11 9 3 5 -10 19 -28 32 -19
13 -32 27 -30 31 3 4 -7 15 -21 24 -14 9 -25 23 -25 30 0 8 -6 14 -14 14 -8 0
-17 7 -20 16 -3 8 -11 12 -16 9 -6 -4 -10 -3 -9 2 1 4 1 13 0 19 -2 16 -76 94
-90 94 -7 0 -10 3 -8 8 5 9 -30 42 -37 35 -3 -4 -6 -1 -6 6 0 7 -4 9 -10 6 -6
-3 -10 3 -10 15 0 12 -4 18 -10 15 -5 -3 -10 1 -10 9 0 8 -9 18 -20 21 -11 4
-18 11 -15 16 4 5 -1 9 -9 9 -8 0 -20 8 -25 18 -6 9 -11 14 -11 10 0 -4 -15 7
-34 25 -18 18 -32 35 -29 40 2 4 1 6 -4 5 -5 -2 -32 20 -60 47 -67 65 -83 78
-83 68 -1 -4 -9 2 -19 14 -10 12 -21 19 -25 16 -3 -4 -6 1 -6 11 0 9 -4 15 -9
12 -5 -4 -15 7 -23 24 -7 17 -21 33 -31 36 -10 3 -16 8 -13 11 7 7 -38 43 -53
43 -6 0 -11 4 -11 8 0 5 -6 9 -12 10 -11 0 -80 17 -163 39 -39 10 -145 12
-145 2 0 -6 -8 -6 -20 1 -11 6 -20 8 -20 4 0 -3 -8 0 -17 7 -9 8 -14 9 -10 3
5 -8 -7 -11 -38 -9 -25 2 -42 -1 -39 -6 3 -5 10 -6 16 -3 7 4 8 2 4 -5 -6 -9
-14 -8 -31 3 -22 15 -25 14 -35 -2 -9 -14 -10 -13 -4 7 3 14 2 21 -3 18 -6 -4
-19 3 -31 13 -12 11 -28 20 -36 20 -8 0 -22 10 -30 22 -9 12 -19 19 -22 15 -4
-4 -16 3 -28 16 -21 22 -116 35 -116 16 0 -5 -6 -9 -12 -9 -7 0 -24 -15 -38
-32 -14 -18 -33 -41 -43 -51 -10 -10 -16 -25 -13 -32 3 -8 0 -17 -6 -21 -7 -5
-8 -2 -3 6 5 8 4 11 -3 7 -12 -8 -10 -32 3 -44 4 -4 5 -3 2 3 -4 7 0 15 9 18
24 9 25 8 7 -13 -11 -14 -21 -17 -32 -11 -9 4 -20 10 -26 12 -5 1 -9 8 -7 13
2 6 -2 4 -9 -2 -14 -14 -33 -18 -25 -5 3 4 -10 7 -27 6 -18 -1 -37 2 -44 8 -7
5 -16 7 -22 4 -5 -3 -11 -2 -13 4 -3 9 -40 18 -90 23 -10 1 -18 5 -18 10 0 5
-7 7 -15 3 -8 -3 -14 -2 -14 2 3 19 -2 25 -11 12 -8 -12 -10 -11 -10 6 0 20
-41 64 -59 64 -5 0 -12 7 -15 15 -3 9 -11 15 -18 14 -7 -1 -21 1 -31 6 -10 4
-20 5 -24 2 -3 -3 -12 0 -20 8 -8 8 -28 15 -44 15 -18 0 -28 4 -24 10 3 6 -3
11 -14 11 -25 2 -30 3 -55 14 -10 4 -32 9 -50 10 -17 2 -31 4 -31 5 0 2 -13 4
-30 5 -73 7 -87 11 -113 32 l-27 23 23 19 c12 11 29 36 37 55 9 20 38 61 65
91 42 47 50 61 50 95 0 22 -5 40 -11 40 -5 0 -8 4 -4 9 3 5 0 13 -6 17 -7 4
-9 3 -6 -3 4 -6 -1 -13 -11 -15 -15 -4 -17 0 -14 29 2 18 7 33 11 33 9 0 7 63
-3 78 -4 7 -5 16 -1 21 3 5 1 12 -4 15 -5 3 -7 15 -4 26 4 14 -2 23 -21 31
-14 7 -26 18 -26 24 0 7 -7 18 -15 25 -8 7 -12 16 -9 21 3 5 1 9 -3 9 -5 0
-18 7 -29 16 -10 8 -13 13 -7 9 9 -4 11 -1 7 9 -3 9 -10 16 -15 16 -5 0 -9 7
-9 16 0 10 -5 14 -16 10 -8 -3 -12 -2 -9 4 3 6 1 10 -5 10 -6 0 -9 4 -5 9 3 5
0 15 -7 23 -13 14 -20 33 -21 56 0 7 -6 11 -13 8 -8 -3 -11 0 -7 11 5 12 1 14
-18 8 -24 -7 -24 -7 -4 10 16 14 17 16 3 11 -10 -3 -17 -2 -17 2 3 18 -2 32
-12 32 -5 0 -7 -6 -3 -12 5 -10 3 -10 -7 0 -8 7 -15 17 -15 23 -1 5 -2 15 -3
22 -1 8 -4 7 -11 -3 -8 -13 -10 -12 -10 3 0 9 -4 17 -9 17 -5 0 -12 11 -15 25
-4 14 -11 23 -16 20 -6 -3 -10 1 -10 10 0 8 -7 18 -15 21 -8 4 -15 13 -15 21
0 8 -4 12 -9 9 -5 -3 -11 4 -14 15 -4 14 -10 18 -19 13 -10 -6 -10 -4 1 9 12
15 11 17 -5 17 -18 1 -18 2 -2 13 13 11 15 21 9 49 -9 40 0 64 20 54 8 -4 6
-1 -3 6 -11 9 -14 19 -8 28 5 8 5 21 -1 31 -5 10 -9 27 -9 38 0 23 -84 110
-109 113 -9 0 -23 2 -31 3 -8 1 -21 -3 -27 -8 -8 -6 -13 -6 -13 0 0 6 -17 8
-37 6 -21 -2 -54 -5 -73 -6 -19 -2 -40 -6 -46 -10 -7 -4 -17 0 -24 8 -7 8 -16
12 -21 9 -5 -3 -13 5 -18 18 -4 13 -11 22 -15 21 -15 -6 -26 -2 -26 10 0 16
-51 46 -68 40 -7 -3 -11 1 -10 9 2 7 -3 12 -9 10 -7 -1 -13 3 -13 9 0 5 -4 8
-9 4 -5 -3 -12 -1 -16 5 -4 6 -10 8 -15 5 -5 -3 -12 1 -17 9 -4 8 -12 15 -18
15 -5 1 -28 8 -50 18 -22 9 -42 17 -45 18 -3 0 -21 9 -40 20 -19 10 -41 18
-49 16 -8 -1 -10 2 -5 10 4 7 3 10 -4 5 -6 -3 -37 5 -69 20 -73 32 -107 46
-112 44 -2 -1 -8 4 -12 12 -7 10 -9 10 -9 0 0 -8 -5 -10 -12 -5 -7 4 -24 9
-38 11 -14 2 -27 8 -28 13 -3 6 -9 5 -18 -2 -8 -7 -14 -7 -14 -2 0 13 -60 11
-79 -1 -9 -6 -12 -5 -8 1 3 5 -12 9 -39 9 -24 -1 -44 -4 -44 -7z m3156 -2572
c12 4 15 3 10 -5 -6 -11 12 -17 37 -13 4 0 7 -8 7 -20 0 -11 4 -17 10 -14 6 3
7 -1 4 -9 -3 -9 -1 -16 5 -16 6 0 11 5 11 12 0 6 3 8 6 5 4 -4 2 -12 -4 -20
-8 -10 -6 -13 9 -14 13 -1 17 2 12 10 -4 7 0 6 10 -2 18 -15 23 -26 7 -16 -5
3 -10 1 -10 -4 0 -6 5 -11 10 -11 6 0 10 -4 10 -9 0 -12 -33 -9 -43 4 -5 6 -7
4 -4 -5 2 -8 10 -14 16 -12 18 4 13 -12 -9 -25 -12 -8 -21 -9 -25 -3 -4 6 -3
10 2 9 20 -3 23 2 8 17 -12 13 -19 14 -30 4 -12 -10 -15 -9 -15 4 0 19 -20 21
-40 4 -12 -11 -12 -10 -1 4 9 12 10 22 2 36 -6 11 -7 23 -3 27 4 5 1 5 -5 1
-8 -4 -13 -1 -13 8 0 10 -6 13 -17 9 -15 -5 -15 -3 2 11 11 10 15 15 9 12 -7
-3 -14 3 -17 14 -4 16 -2 18 13 10 10 -6 26 -7 36 -3z m-1146 -118 c0 -8 6 -6
19 5 16 14 20 15 30 2 7 -8 23 -13 37 -10 31 6 31 -11 -1 -32 -14 -9 -22 -21
-19 -26 4 -6 -2 -5 -14 1 -26 14 -43 14 -19 0 9 -6 15 -15 12 -20 -4 -5 -10
-7 -15 -4 -5 3 -11 1 -15 -5 -3 -5 2 -10 12 -11 11 0 13 -3 5 -6 -6 -2 -10 -9
-7 -14 4 -5 -2 -6 -11 -2 -12 4 -15 3 -10 -5 5 -8 2 -10 -9 -6 -9 4 -14 13
-11 20 3 7 -3 18 -12 23 -9 6 -12 11 -5 11 6 0 15 -5 18 -10 4 -6 11 -8 16 -5
5 4 3 12 -4 19 -6 8 -16 11 -21 8 -5 -3 -6 1 -1 8 5 9 2 10 -14 5 -12 -4 -21
-2 -21 4 0 6 5 10 11 9 6 -2 14 3 17 11 2 8 0 11 -6 7 -7 -4 -7 5 0 28 9 29
13 32 24 21 8 -7 14 -19 14 -26z m-167 -1182 c4 3 7 1 7 -7 0 -10 3 -10 15 0
23 19 18 3 -6 -19 -12 -11 -18 -24 -15 -29 8 -14 36 -9 47 9 7 12 9 12 9 0 0
-11 3 -10 13 3 12 16 14 16 14 2 0 -9 -3 -16 -7 -16 -4 0 -7 -10 -6 -22 1 -17
7 -22 21 -20 17 2 16 0 -5 -13 -21 -14 -22 -15 -4 -10 14 4 24 0 27 -9 7 -18
-27 -14 -51 6 -13 11 -15 10 -10 -4 10 -26 -22 -15 -39 13 l-14 24 7 -23 c5
-21 3 -23 -18 -17 -22 6 -22 6 -4 -9 17 -14 18 -16 3 -16 -9 0 -17 5 -17 11 0
5 -4 8 -9 4 -5 -3 -8 -15 -6 -28 3 -14 -4 -28 -18 -38 -21 -16 -23 -16 -23 1
0 12 6 16 16 12 8 -3 12 -2 8 3 -4 4 -3 14 3 22 9 10 8 13 0 13 -7 0 -10 8 -7
18 6 17 -6 44 -18 43 -20 -3 -24 1 -21 19 2 11 -1 20 -6 20 -6 0 -7 5 -4 10 3
6 1 10 -6 10 -8 0 -8 4 1 15 7 8 16 13 20 10 5 -3 12 0 15 6 4 5 13 8 20 5 7
-2 16 2 19 11 6 14 8 14 25 -1 9 -9 21 -13 24 -9z m59 -202 c3 0 10 -3 14 -7
3 -4 -3 -5 -15 -3 -13 2 -24 -2 -28 -10 -3 -8 -9 -12 -14 -9 -9 5 -13 -10 -10
-30 1 -5 -4 -4 -12 2 -8 7 -17 9 -20 5 -4 -3 1 -12 11 -19 16 -12 16 -13 0
-19 -10 -4 -15 -11 -12 -16 3 -5 0 -8 -7 -7 -7 2 -13 -4 -14 -12 0 -8 -8 -15
-17 -15 -21 0 -36 -15 -17 -16 8 -1 18 -1 22 0 5 1 6 -3 2 -8 -3 -6 -13 -7
-22 -4 -10 4 -14 2 -10 -4 4 -6 4 -19 1 -28 -5 -13 -8 -14 -15 -3 -8 12 -14
-10 -10 -35 1 -5 -3 -6 -8 -3 -13 9 -32 -19 -25 -38 3 -9 1 -16 -6 -16 -6 0
-8 -5 -4 -12 5 -8 0 -7 -11 2 -16 14 -17 13 -11 -8 4 -12 4 -23 -1 -23 -52 -7
-66 -7 -54 0 8 5 21 6 30 3 14 -5 14 -3 3 11 -12 14 -11 20 2 38 12 18 13 26
3 38 -10 14 -10 14 5 3 10 -8 19 -9 22 -3 3 5 0 12 -6 15 -7 3 0 3 15 1 22 -3
27 -1 23 11 -3 8 -2 13 3 10 5 -3 12 1 15 10 4 12 1 14 -14 9 -12 -4 -20 -2
-20 5 0 6 4 9 9 6 5 -3 11 1 15 9 3 8 1 17 -4 20 -4 3 -11 -1 -13 -7 -4 -10
-6 -10 -6 -1 -1 7 8 17 19 23 11 6 17 16 14 22 -4 6 -3 8 4 4 6 -3 13 -2 17 4
4 6 11 7 17 4 7 -5 9 0 6 14 -4 13 -2 20 6 19 6 -1 10 9 9 23 -2 22 -1 23 8 7
8 -14 14 -16 25 -6 7 6 11 15 8 20 -3 5 3 6 13 2 15 -6 16 -4 6 8 -10 13 -10
16 2 16 8 0 11 -5 8 -10 -3 -5 0 -7 8 -5 8 3 13 11 11 17 -1 8 2 9 10 4 7 -4
16 -8 20 -8z m1287 -2862 c-3 -19 2 -33 12 -33 6 0 8 7 5 17 -4 10 -4 14 0 10
4 -4 13 -2 21 5 8 6 13 7 12 2 -4 -22 2 -32 19 -29 9 1 16 8 14 16 -2 9 0 10
11 1 8 -7 16 -9 19 -6 3 3 9 1 12 -4 3 -6 -2 -9 -11 -8 -21 4 -78 -48 -70 -62
4 -5 0 -9 -8 -9 -8 0 -11 5 -8 10 4 6 0 8 -9 4 -9 -3 -19 -3 -22 1 -14 13 -41
10 -61 -6 -19 -16 -19 -16 -5 2 14 18 14 19 -8 7 -12 -7 -20 -17 -16 -23 4 -7
3 -8 -4 -4 -6 4 -9 14 -6 24 2 9 -1 7 -7 -5 -7 -13 -15 -23 -20 -23 -9 0 -7
20 4 38 5 6 6 16 3 21 -3 5 1 12 10 15 10 4 13 2 8 -6 -5 -7 -3 -8 5 -4 7 5
10 14 8 20 -3 7 1 13 9 13 7 0 10 -5 7 -10 -3 -6 -1 -7 5 -3 5 3 13 0 16 -6 3
-7 3 -3 0 10 -3 12 -1 22 5 22 11 0 15 -15 12 -34 -1 -5 5 -4 13 4 18 14 22
25 6 15 -6 -3 -7 1 -4 9 6 16 25 23 23 9z"/>
</g>
</svg>
