<?xml version="1.0" standalone="no"?>
<!DOCTYPE svg PUBLIC "-//W3C//DTD SVG 20010904//EN"
 "http://www.w3.org/TR/2001/REC-SVG-20010904/DTD/svg10.dtd">
<svg version="1.0" xmlns="http://www.w3.org/2000/svg"
 width="1024.000000pt" height="1024.000000pt" viewBox="0 0 1024.000000 1024.000000"
 preserveAspectRatio="xMidYMid meet">
<metadata>
Created by potrace 1.16, written by Peter Selinger 2001-2019
</metadata>
<g transform="translate(0.000000,1024.000000) scale(0.100000,-0.100000)"
fill="#000000" stroke="none">
<path d="M3345 9330 c-4 -6 -11 -8 -16 -5 -5 4 -9 0 -9 -7 0 -10 -3 -9 -9 1
-8 12 -12 12 -25 2 -9 -8 -16 -9 -16 -4 0 6 -12 9 -27 7 -16 -2 -40 -5 -55 -6
-16 -1 -28 -5 -28 -9 0 -6 -18 -11 -79 -25 -8 -1 -18 -9 -22 -16 -5 -7 -9 -9
-9 -4 0 5 -9 1 -19 -8 -11 -10 -23 -16 -28 -13 -9 6 -34 -18 -27 -27 2 -3 1
-4 -2 -1 -4 2 -19 -2 -35 -11 -16 -8 -31 -14 -35 -14 -3 1 -14 -8 -24 -20 -11
-12 -24 -19 -30 -15 -6 3 -9 3 -8 -2 2 -4 -1 -10 -7 -11 -5 -2 -16 -8 -22 -14
-7 -6 -13 -7 -13 -4 0 4 -10 0 -22 -8 -12 -9 -30 -16 -40 -16 -10 0 -18 -5
-18 -11 0 -7 -9 -9 -21 -6 -15 4 -19 2 -15 -9 3 -8 2 -13 -3 -9 -5 3 -12 -1
-14 -7 -4 -9 -6 -9 -6 -1 -1 7 -13 5 -38 -7 -20 -9 -44 -15 -55 -12 -10 2 -18
0 -18 -6 0 -6 -8 -11 -17 -11 -37 -1 -53 -5 -53 -11 0 -3 -11 -7 -25 -8 -47
-3 -55 -5 -55 -14 0 -4 -5 -8 -11 -8 -5 0 -7 5 -3 12 5 7 3 8 -7 2 -8 -4 -23
-10 -34 -12 -31 -5 -50 -10 -50 -12 0 -1 -13 -3 -30 -5 -25 -2 -49 -8 -85 -21
-3 -1 -15 -5 -27 -9 -13 -4 -20 -12 -16 -18 4 -6 1 -7 -6 -3 -7 5 -21 0 -33
-11 -12 -10 -18 -12 -14 -6 5 9 2 11 -8 7 -9 -3 -16 -10 -16 -16 0 -5 -4 -6
-10 -3 -5 3 -10 1 -10 -6 0 -10 -3 -10 -12 -1 -9 9 -17 7 -35 -10 -16 -15 -23
-17 -23 -7 0 8 -3 10 -8 4 -11 -15 -62 -36 -73 -30 -5 4 -9 1 -9 -5 0 -7 -6
-10 -14 -7 -8 3 -17 -1 -20 -9 -3 -9 -10 -13 -15 -10 -4 3 -17 -4 -27 -15 -10
-11 -24 -17 -31 -15 -7 3 -15 1 -18 -4 -3 -5 -14 -7 -25 -5 -11 2 -20 -1 -20
-6 0 -6 -4 -7 -10 -4 -5 3 -10 1 -10 -4 0 -6 -9 -11 -20 -11 -11 0 -20 -7 -20
-16 0 -8 -4 -13 -9 -10 -10 7 -61 -16 -61 -27 0 -5 -4 -6 -9 -2 -13 7 -62 -16
-55 -26 3 -5 -2 -6 -10 -3 -9 3 -16 1 -16 -6 0 -6 -4 -9 -9 -5 -5 3 -12 1 -16
-4 -3 -5 -14 -8 -25 -6 -12 2 -18 0 -15 -6 4 -5 0 -9 -8 -9 -41 0 -54 -72 -19
-107 13 -13 27 -23 32 -23 5 0 7 -9 5 -20 -2 -11 0 -20 4 -20 4 0 8 -6 9 -12
1 -7 3 -31 5 -53 2 -22 8 -48 12 -57 9 -22 53 -24 61 -3 4 8 12 15 20 15 8 0
14 5 14 11 0 6 7 8 16 5 8 -3 12 -2 9 4 -3 6 -1 10 6 10 6 0 20 9 30 21 10 11
23 18 28 14 6 -3 11 -1 11 5 0 7 7 10 15 6 10 -3 15 1 15 11 0 9 3 13 7 10 3
-4 15 1 26 10 11 10 17 12 13 5 -7 -11 -4 -12 13 -3 11 7 21 16 21 21 0 6 7
10 15 10 8 0 15 5 15 11 0 5 5 7 11 4 6 -4 22 4 36 16 15 13 23 17 18 9 -5 -8
3 -4 18 9 14 13 40 24 56 25 17 0 31 5 31 9 0 5 7 7 15 3 8 -3 15 -1 15 5 0 6
4 8 8 5 5 -3 20 1 33 8 14 7 34 12 46 11 12 -1 20 2 17 7 -8 13 11 9 25 -4 10
-11 11 -9 5 5 -5 13 -2 18 7 16 8 -2 25 3 38 10 18 10 22 10 16 0 -6 -8 -4
-10 6 -3 8 4 19 9 24 10 6 1 39 9 75 17 36 9 83 17 105 18 22 2 46 7 53 12 8
6 12 5 12 -2 0 -7 5 -9 13 -4 16 10 137 20 131 11 -3 -4 2 -5 10 -2 9 3 14 10
11 14 -3 5 4 11 14 15 11 3 19 11 17 18 -1 7 -1 9 1 4 3 -4 10 -4 15 -1 7 5 8
2 2 -7 -21 -35 -13 -75 16 -75 11 0 20 4 20 9 0 4 6 5 13 2 6 -4 3 1 -7 9 -17
14 -18 16 -3 16 9 0 17 5 17 11 0 8 6 7 17 -2 9 -8 14 -9 10 -3 -8 13 40 37
55 28 6 -4 8 -2 5 3 -6 10 4 18 26 22 4 0 16 10 28 22 16 16 23 18 35 8 12
-10 13 -9 8 6 -5 13 -4 16 4 11 7 -4 12 -3 12 3 0 10 56 44 63 39 2 -2 11 3
20 11 10 7 17 10 17 5 0 -5 5 -2 10 6 5 8 14 15 20 15 6 0 15 7 21 15 8 11 12
12 15 3 4 -9 13 -9 31 -2 14 5 28 7 31 5 2 -3 17 1 33 10 16 8 29 12 29 8 0
-4 8 0 17 7 14 12 16 12 8 0 -6 -11 -5 -12 6 -5 18 11 39 14 39 5 0 -9 142 -8
158 2 7 5 12 3 12 -5 0 -10 2 -10 9 1 7 11 9 11 14 0 4 -11 6 -11 6 -1 1 10 5
10 16 -2 9 -8 22 -13 30 -10 8 3 20 2 27 -2 7 -5 22 -10 33 -11 10 -2 22 -9
26 -15 6 -9 11 -8 23 1 13 11 16 11 16 0 0 -11 2 -11 10 1 8 13 10 12 10 -3 0
-9 3 -16 8 -15 4 0 18 -4 32 -10 14 -6 19 -11 11 -11 -8 -1 -12 -4 -9 -7 4 -3
15 -1 26 5 17 9 22 8 27 -10 4 -11 9 -18 12 -15 3 3 12 -1 20 -9 8 -8 29 -15
46 -16 18 0 26 -3 19 -6 -9 -3 -7 -10 8 -23 12 -10 29 -16 37 -13 10 4 14 2
10 -4 -4 -6 1 -17 10 -24 14 -12 16 -12 9 0 -6 9 -5 12 5 9 8 -3 13 -11 12
-17 -2 -6 2 -11 8 -11 6 0 9 -7 5 -15 -3 -8 -1 -15 5 -15 6 0 8 -4 4 -9 -3 -5
-1 -12 5 -16 6 -4 8 -11 5 -16 -4 -5 1 -12 9 -15 9 -3 13 -10 10 -15 -3 -5 0
-9 7 -9 7 0 9 -3 6 -7 -4 -3 -2 -12 3 -18 6 -7 13 -32 16 -56 3 -24 7 -50 10
-57 2 -7 -1 -22 -6 -33 -8 -15 -7 -21 3 -25 8 -3 13 -16 11 -30 -1 -14 3 -27
10 -30 7 -3 13 -11 13 -19 0 -22 34 -105 44 -105 4 0 6 -6 3 -14 -6 -15 30
-58 40 -49 3 4 6 1 6 -7 0 -10 4 -10 17 1 9 8 14 9 11 4 -4 -6 11 -20 31 -31
34 -19 43 -19 85 -9 45 12 48 11 56 -9 4 -11 6 -24 4 -27 -2 -3 -6 -19 -9 -35
-2 -16 -7 -42 -10 -57 -4 -22 -3 -27 7 -21 10 6 10 5 2 -7 -11 -14 -24 -59
-30 -109 -6 -50 -11 -64 -22 -68 -7 -2 -12 -13 -12 -23 0 -14 -4 -18 -12 -13
-10 6 -10 5 -1 -7 10 -12 10 -18 0 -28 -9 -10 -8 -11 6 -6 9 4 17 3 17 -3 0
-12 56 -42 77 -42 8 0 11 -5 7 -12 -5 -8 -2 -9 10 -5 12 5 15 3 9 -6 -18 -29
1 -48 24 -22 4 4 2 5 -4 1 -9 -5 -11 -2 -7 8 8 22 23 20 20 -1 -2 -11 7 -23
23 -30 l26 -13 -25 7 c-14 3 -31 5 -37 5 -7 -1 -20 -3 -28 -4 -8 -1 -15 -6
-15 -11 0 -5 -9 -7 -20 -4 -11 3 -20 1 -20 -5 0 -6 -9 -8 -20 -5 -11 3 -20 0
-20 -6 0 -7 -5 -5 -10 3 -6 10 -10 11 -10 3 0 -9 -13 -11 -40 -9 -22 2 -40 0
-40 -5 0 -5 -11 -7 -25 -5 -14 3 -25 0 -25 -5 0 -5 -5 -9 -11 -9 -5 0 -7 5 -3
12 5 7 3 8 -7 2 -8 -4 -23 -10 -34 -11 -10 -2 -23 -9 -27 -16 -4 -6 -8 -8 -8
-4 0 4 -9 3 -20 -3 -15 -8 -20 -8 -20 1 0 7 -4 8 -12 2 -26 -19 -70 -34 -62
-21 4 7 -9 2 -29 -9 -20 -12 -39 -18 -42 -13 -4 6 -17 3 -31 -6 -13 -9 -24
-13 -24 -10 0 4 -9 2 -19 -4 -14 -7 -21 -6 -24 3 -4 7 -6 6 -6 -5 -1 -10 -8
-15 -18 -14 -10 2 -29 -4 -43 -13 -16 -11 -22 -12 -16 -3 7 11 4 11 -15 1 -49
-25 -59 -29 -79 -29 -12 0 -20 -7 -20 -16 0 -14 -3 -14 -15 -4 -11 9 -15 9
-15 1 0 -7 -4 -9 -10 -6 -5 3 -10 1 -10 -4 0 -6 -9 -11 -20 -11 -11 0 -20 -5
-20 -10 0 -6 -3 -9 -7 -8 -5 1 -18 -3 -30 -10 -13 -7 -23 -9 -23 -5 0 4 -10
-4 -21 -16 -17 -18 -23 -20 -30 -9 -7 10 -9 9 -9 -4 0 -9 -8 -19 -17 -22 -10
-3 -30 -17 -46 -31 -15 -15 -31 -23 -36 -20 -5 3 -13 0 -17 -6 -5 -8 -2 -10 7
-5 8 4 4 -1 -9 -10 -12 -9 -37 -29 -55 -45 -17 -16 -36 -29 -40 -29 -5 0 -6
-4 -2 -9 3 -5 -4 -12 -15 -16 -11 -3 -20 -11 -20 -16 0 -6 -4 -7 -10 -4 -5 3
-10 2 -10 -3 0 -5 -18 -17 -40 -28 -22 -10 -40 -22 -40 -26 0 -5 -7 -8 -16 -8
-8 0 -12 -4 -9 -10 3 -5 2 -10 -4 -10 -16 0 -81 -47 -74 -54 4 -3 -1 -6 -10
-6 -9 0 -17 -5 -17 -12 0 -6 -3 -8 -7 -5 -3 4 -13 -2 -20 -13 -8 -11 -19 -17
-25 -14 -6 4 -8 3 -5 -3 4 -6 -2 -18 -13 -28 -11 -10 -17 -22 -13 -28 3 -6 1
-7 -5 -3 -6 4 -18 -5 -26 -21 -8 -15 -15 -25 -16 -20 0 4 -20 -12 -44 -35 -66
-63 -75 -70 -88 -62 -6 4 -8 3 -5 -3 3 -5 -9 -16 -28 -23 -19 -8 -35 -17 -35
-22 0 -4 -3 -7 -7 -6 -12 4 -48 -35 -93 -99 -22 -32 -48 -69 -59 -83 -11 -13
-17 -29 -14 -34 3 -5 1 -6 -4 -3 -6 4 -18 -8 -27 -26 -8 -17 -16 -28 -16 -23
0 9 -15 -10 -60 -73 -8 -12 -20 -21 -28 -21 -7 0 -10 -5 -7 -11 4 -5 -2 -18
-12 -27 -10 -9 -30 -36 -45 -59 -15 -22 -39 -53 -53 -67 -14 -14 -25 -30 -25
-36 0 -5 -4 -10 -10 -10 -5 0 -10 -7 -10 -15 0 -8 -4 -15 -10 -15 -5 0 -10 -7
-10 -15 0 -8 -3 -15 -7 -15 -5 0 -13 -11 -20 -25 -6 -14 -7 -23 -2 -20 4 3 2
-6 -6 -21 -7 -14 -11 -37 -9 -49 2 -13 0 -27 -6 -30 -6 -4 -8 -11 -5 -16 4 -5
2 -9 -3 -9 -5 0 -9 -6 -9 -12 -3 -72 -25 -142 -53 -166 -13 -12 -13 -13 0 -6
8 4 4 -4 -10 -19 -14 -14 -32 -38 -40 -54 -8 -15 -21 -33 -29 -39 -8 -7 -11
-16 -6 -24 5 -7 4 -11 -1 -8 -11 7 -35 -17 -27 -26 4 -3 0 -6 -7 -6 -7 0 -11
-3 -7 -6 3 -3 -3 -15 -14 -27 -10 -11 -19 -29 -19 -39 0 -11 -4 -17 -9 -14 -4
3 -14 -13 -21 -34 -7 -22 -17 -40 -22 -40 -5 0 -6 -4 -3 -10 3 -5 1 -10 -5
-10 -6 0 -9 -4 -6 -9 3 -5 -1 -12 -10 -15 -9 -3 -14 -12 -11 -19 2 -6 -5 -20
-16 -29 -11 -10 -17 -18 -13 -18 4 0 1 -10 -6 -22 -7 -13 -11 -26 -10 -30 1
-5 -3 -8 -9 -8 -5 0 -7 -4 -4 -10 3 -6 2 -10 -4 -10 -5 0 -13 -10 -17 -22 -4
-13 -12 -26 -18 -30 -8 -5 -7 -8 2 -8 10 0 10 -3 0 -14 -7 -8 -17 -12 -21 -9
-4 2 -6 -7 -3 -22 4 -20 1 -25 -9 -21 -11 4 -12 0 -4 -21 10 -26 0 -42 -25
-43 -4 0 -5 -7 -2 -16 3 -8 2 -13 -3 -9 -9 5 -71 -86 -71 -104 0 -5 -7 -14
-15 -21 -9 -7 -13 -15 -11 -17 8 -9 -19 -31 -29 -25 -5 3 -4 -2 4 -11 12 -16
12 -17 -5 -10 -17 6 -18 5 -4 -12 9 -11 10 -16 3 -11 -8 4 -13 1 -13 -9 0 -10
-5 -13 -12 -9 -8 5 -9 0 -6 -14 4 -12 2 -20 -3 -16 -5 3 -9 0 -9 -6 0 -6 -5
-8 -12 -4 -8 5 -7 0 2 -11 8 -10 11 -16 5 -13 -9 6 -41 -20 -39 -32 3 -11 -20
-50 -28 -50 -5 0 -6 -5 -2 -12 4 -6 -1 -17 -11 -24 -10 -7 -15 -20 -12 -28 4
-9 3 -15 -1 -15 -24 4 -35 -2 -25 -12 8 -8 6 -16 -8 -30 -11 -11 -17 -24 -14
-29 4 -6 1 -10 -5 -10 -6 0 -8 -5 -4 -12 6 -10 4 -10 -8 0 -13 11 -16 10 -14
-5 0 -10 -5 -17 -12 -15 -8 1 -11 -2 -7 -8 3 -5 2 -10 -4 -10 -5 0 -12 -13
-16 -29 -3 -16 -14 -32 -23 -36 -14 -5 -14 -7 -2 -15 13 -8 12 -10 -2 -10 -10
0 -18 -5 -18 -11 0 -5 6 -7 13 -3 6 4 2 -3 -11 -15 -12 -12 -20 -26 -17 -32 4
-5 1 -9 -4 -9 -6 0 -11 -7 -11 -15 0 -8 -4 -15 -10 -15 -5 0 -10 -7 -10 -17 0
-9 -3 -14 -6 -10 -8 7 -55 -60 -59 -83 -1 -8 -7 -15 -13 -15 -6 0 -14 -4 -19
-9 -5 -5 -3 -6 5 -2 6 4 12 3 12 -2 0 -6 -7 -13 -16 -16 -9 -3 -12 -11 -8 -18
5 -8 0 -7 -11 2 -10 8 -16 10 -12 3 5 -7 -2 -17 -17 -25 -14 -7 -26 -17 -28
-23 -2 -5 -9 -9 -15 -9 -7 1 -11 -2 -8 -6 3 -5 1 -11 -5 -15 -6 -4 -8 -11 -5
-16 3 -5 -2 -6 -11 -2 -12 4 -15 3 -10 -5 4 -7 3 -12 -1 -12 -13 0 -43 -56
-35 -65 4 -5 2 -5 -5 -1 -7 4 -9 14 -6 24 4 9 -8 0 -26 -20 -19 -21 -39 -34
-47 -31 -8 3 -14 1 -14 -5 0 -5 -12 -17 -26 -27 -18 -11 -24 -12 -18 -4 6 11
5 12 -8 2 -8 -7 -19 -9 -24 -5 -4 4 -2 -1 5 -11 12 -15 12 -17 -4 -10 -15 5
-17 3 -12 -11 4 -11 3 -15 -4 -10 -6 3 -21 -5 -34 -20 -12 -14 -26 -22 -30
-18 -5 4 -5 -1 -2 -10 3 -10 3 -17 -1 -17 -21 3 -32 -3 -32 -17 0 -8 -4 -13
-9 -9 -12 7 -33 -29 -24 -39 3 -3 1 -6 -5 -6 -7 0 -12 -7 -12 -15 0 -8 -4 -15
-10 -15 -5 0 -10 -7 -10 -15 0 -8 -5 -15 -11 -15 -8 0 -8 -4 0 -14 9 -11 9
-16 0 -22 -8 -5 -9 -3 -4 6 5 8 3 11 -6 8 -8 -3 -13 -11 -12 -17 3 -10 -10
-15 -29 -12 -4 0 -5 -5 -2 -13 3 -8 0 -17 -7 -22 -8 -5 -10 -3 -4 7 5 8 4 11
-1 6 -5 -5 -9 -23 -9 -41 -1 -29 2 -32 25 -30 14 1 27 3 30 4 3 1 9 2 13 1 17
-3 47 21 41 31 -4 7 -2 8 5 4 9 -6 9 -11 0 -22 -13 -16 -1 -18 21 -4 9 5 19 5
27 -2 9 -7 18 -7 29 3 15 12 16 11 9 -10 -5 -16 -4 -21 3 -17 6 4 16 -3 22
-14 6 -11 8 -20 4 -20 -3 0 -1 -6 5 -14 9 -11 9 -16 -1 -23 -7 -4 -13 -15 -13
-23 0 -8 -7 -15 -15 -15 -8 -1 -14 -6 -13 -13 2 -7 -3 -12 -10 -12 -7 0 -21
-10 -32 -22 -19 -22 -21 -26 -24 -49 0 -5 -5 -7 -11 -4 -13 8 0 -28 14 -37 8
-6 8 -8 0 -8 -12 0 -12 -29 0 -48 4 -6 4 -12 -1 -13 -4 0 2 -4 15 -9 19 -8 21
-13 13 -29 -6 -10 -8 -21 -5 -24 5 -5 9 -21 18 -81 1 -10 10 -24 20 -31 9 -7
17 -16 16 -19 -3 -19 38 -54 50 -43 10 10 12 8 6 -7 -5 -14 -2 -17 9 -12 9 3
15 0 15 -9 0 -7 5 -17 12 -21 7 -4 8 -3 4 4 -11 17 5 14 26 -5 11 -9 18 -11
18 -5 0 7 -5 12 -12 12 -6 0 -8 3 -5 7 4 3 19 -4 34 -18 14 -13 23 -19 20 -13
-3 6 0 11 8 11 8 0 12 -4 8 -9 -5 -9 38 -57 44 -50 9 7 22 0 27 -16 4 -11 16
-24 29 -31 12 -6 27 -23 34 -36 6 -14 7 -22 1 -19 -5 3 -4 -3 3 -14 7 -12 18
-18 24 -14 5 3 4 -2 -4 -11 -9 -12 -10 -17 -2 -17 7 0 9 -5 6 -10 -4 -6 -1
-17 5 -25 7 -8 9 -15 5 -15 -5 0 -1 -8 8 -18 10 -10 14 -22 10 -25 -3 -4 -1
-7 6 -7 7 0 10 -4 7 -9 -3 -4 3 -19 14 -31 11 -13 20 -32 20 -42 0 -11 4 -17
9 -13 5 3 13 0 17 -6 4 -8 3 -9 -4 -5 -7 4 -12 1 -12 -8 0 -9 3 -16 8 -16 4 0
13 -9 20 -21 8 -12 9 -18 3 -14 -6 3 -11 1 -11 -4 0 -6 5 -11 11 -11 5 0 7 -4
4 -10 -3 -5 2 -10 12 -11 10 0 13 -3 7 -5 -7 -3 -10 -14 -7 -24 3 -11 9 -18
13 -15 4 3 11 -6 14 -20 6 -22 23 -31 50 -26 5 1 3 -5 -4 -14 -11 -14 -11 -16
1 -13 8 2 13 -3 11 -9 -1 -7 2 -13 7 -13 4 0 8 -30 9 -67 1 -84 4 -106 17
-115 6 -4 11 -12 11 -18 1 -5 2 -15 3 -21 0 -6 8 -8 17 -5 8 3 12 2 9 -4 -3
-6 0 -10 7 -10 9 0 9 -3 -2 -10 -13 -8 -12 -10 4 -10 11 0 16 -3 13 -7 -4 -3
1 -12 11 -20 11 -10 12 -12 2 -8 -10 4 -9 2 3 -8 9 -8 17 -19 17 -26 0 -6 5
-11 10 -11 6 0 10 -10 11 -22 0 -13 3 -18 6 -11 3 9 10 7 25 -7 11 -10 17 -23
14 -29 -4 -6 2 -8 13 -6 15 3 18 0 14 -12 -5 -13 -2 -15 12 -10 15 6 16 5 5
-8 -10 -12 -10 -15 4 -15 10 0 14 -4 11 -10 -3 -5 3 -10 13 -10 23 0 46 -25
38 -39 -4 -6 2 -8 13 -6 11 2 22 -3 25 -11 3 -9 1 -12 -4 -9 -6 3 -10 1 -10
-4 0 -15 13 -14 29 2 7 6 12 8 11 2 -6 -27 0 -40 10 -25 9 13 10 13 10 0 0 -8
10 -21 23 -29 l22 -14 -20 23 -20 24 27 -20 c14 -10 25 -23 25 -28 -1 -5 4
-11 12 -14 8 -3 11 0 7 7 -5 7 -1 9 9 5 12 -5 13 -9 4 -20 -10 -12 -8 -13 6
-8 11 5 21 1 27 -9 5 -10 15 -14 25 -10 10 4 14 2 10 -4 -4 -6 0 -14 9 -17 8
-3 12 -2 9 4 -3 5 1 7 9 4 9 -3 15 -9 14 -12 -2 -19 4 -23 17 -12 13 11 14 10
9 -3 -4 -12 -1 -14 15 -10 12 3 21 1 21 -5 0 -6 9 -8 20 -5 14 4 20 0 20 -10
0 -17 39 -12 53 7 5 6 5 0 2 -14 -6 -20 -5 -23 6 -13 10 10 15 9 26 -5 9 -10
12 -11 7 -2 -7 13 -6 13 10 0 22 -17 46 -22 46 -9 0 6 6 4 14 -3 8 -7 11 -17
8 -23 -3 -5 2 -4 11 4 12 9 17 10 17 2 0 -7 5 -9 12 -5 8 5 9 2 5 -10 -4 -11
-3 -15 4 -10 6 4 15 0 20 -7 7 -11 9 -10 9 4 0 18 20 19 32 2 5 -6 8 -4 8 5 0
13 1 13 10 0 9 -13 10 -13 10 0 0 13 2 13 9 1 8 -12 12 -12 25 -2 13 11 16 11
16 0 0 -11 2 -11 10 1 8 13 10 13 10 -1 0 -9 7 -16 15 -16 11 0 12 3 3 14 -9
11 -8 13 3 11 8 -2 17 -7 21 -13 5 -6 8 -6 8 2 0 14 41 8 51 -8 4 -8 9 -8 13
-1 4 6 14 8 23 5 12 -5 14 -3 8 8 -7 12 -6 12 7 1 12 -9 18 -10 23 -2 5 8 11
7 23 -2 9 -7 13 -8 9 -2 -3 6 0 11 8 11 8 0 12 -4 9 -9 -8 -13 10 -10 25 4 8
7 11 8 8 3 -3 -6 3 -11 13 -11 14 0 16 3 8 13 -8 10 -7 12 5 7 8 -3 26 0 39 7
23 12 23 12 4 -9 -18 -21 -18 -21 8 -9 14 7 26 15 26 19 0 4 12 5 26 2 16 -3
23 -1 19 6 -3 5 0 7 9 4 8 -3 24 -1 35 5 18 10 20 9 15 -6 -5 -13 -1 -11 10 5
14 18 21 20 37 12 12 -7 19 -7 19 -1 0 6 7 7 17 4 12 -5 14 -3 8 7 -6 10 -3
12 13 8 14 -4 20 -2 15 5 -4 7 0 8 11 4 10 -4 15 -3 11 3 -3 6 -1 10 5 10 6 0
9 4 6 8 -3 5 2 9 10 9 10 0 11 -4 4 -11 -20 -20 -9 -26 12 -6 20 18 39 25 61
21 4 0 7 4 7 10 0 6 7 8 16 5 8 -3 12 -2 9 4 -6 9 8 14 28 11 4 0 7 4 7 10 0
5 5 7 10 4 6 -3 10 -1 10 4 0 6 3 10 8 10 28 -5 44 2 38 17 -5 14 -4 15 9 4
13 -11 14 -10 9 5 -5 13 -4 16 4 11 7 -4 19 0 28 8 14 14 35 21 57 17 4 0 6 5
5 11 -2 8 5 12 16 10 17 -3 18 -2 7 12 -12 14 -11 16 4 10 13 -5 16 -4 11 5
-5 8 0 10 19 7 24 -4 25 -3 13 11 -8 10 -8 14 -1 10 6 -4 14 -3 18 3 3 5 12
10 18 10 7 0 6 -4 -3 -10 -8 -5 -10 -10 -5 -10 6 0 21 12 34 25 17 19 27 23
36 15 11 -9 12 -6 7 12 -5 21 -4 22 11 9 15 -12 17 -11 17 7 0 12 4 24 10 27
6 3 7 -1 4 -12 -5 -17 -5 -17 6 0 6 10 9 25 6 34 -5 13 -4 14 9 3 14 -11 19
-7 16 12 0 4 6 5 14 2 8 -4 15 -2 15 4 0 6 -5 12 -12 14 -7 3 -5 7 6 11 10 4
15 3 11 -3 -3 -6 -2 -10 4 -10 6 0 15 9 21 21 7 11 18 18 25 15 9 -3 12 1 10
14 -2 10 3 21 11 24 10 4 12 2 8 -6 -4 -7 -3 -8 4 -4 7 4 12 15 12 24 0 13 2
14 9 4 6 -10 10 -8 14 8 4 16 11 21 22 16 9 -3 13 -2 10 4 -3 6 0 10 7 10 11
0 11 2 0 9 -17 11 14 45 31 34 7 -3 9 -3 5 2 -4 4 -2 15 5 23 10 13 9 14 -3 7
-8 -4 -1 7 15 26 17 18 22 27 12 20 -15 -12 -17 -12 -11 3 3 9 12 16 20 16 8
0 13 6 12 13 -2 6 2 11 8 10 6 -1 10 8 9 20 -2 23 33 64 49 59 5 -2 3 5 -5 14
-12 16 -12 17 2 12 13 -5 16 -2 11 14 -3 13 -1 19 5 15 6 -4 14 0 17 9 4 10 2
13 -6 8 -7 -4 -8 -3 -4 4 4 7 14 12 22 12 8 0 12 5 9 10 -3 6 1 10 9 10 9 0
16 5 16 11 0 5 -4 7 -10 4 -15 -9 -12 4 4 20 7 8 17 11 21 7 5 -4 5 -2 2 4 -3
6 6 28 20 49 14 21 21 35 14 31 -7 -5 -9 -1 -5 8 3 9 10 14 14 11 5 -3 11 -1
15 5 3 5 0 10 -7 10 -7 0 -1 12 15 25 15 13 27 31 27 38 0 8 7 18 16 21 8 3
12 10 9 16 -3 5 2 10 12 10 15 0 16 2 3 10 -13 9 -7 14 13 11 4 0 7 5 7 12 0
7 12 21 28 31 18 12 21 16 7 12 -19 -6 -19 -6 -1 9 10 8 23 12 27 9 5 -3 6 2
3 10 -4 9 1 18 10 22 9 3 14 10 11 14 -3 4 2 11 11 14 8 3 12 10 9 16 -3 5 1
10 10 10 9 0 13 4 10 10 -3 5 -1 10 6 10 7 0 10 3 6 6 -8 9 44 64 55 58 5 -3
8 -2 7 3 -2 13 13 53 20 53 8 0 47 92 43 102 -1 5 3 7 10 5 7 -1 12 4 13 11 0
7 7 17 15 22 11 7 11 10 2 10 -10 0 -8 8 6 27 10 16 22 36 25 46 4 11 12 15
18 11 7 -4 9 -3 5 4 -3 6 -2 13 4 17 6 4 8 10 5 15 -3 5 3 13 12 19 10 6 14
10 8 11 -16 0 -36 -16 -33 -26 2 -5 -2 -9 -7 -9 -5 0 -8 5 -6 10 2 6 4 15 6
20 1 6 6 20 11 32 9 21 12 23 35 23 8 0 8 5 -1 15 -10 12 -9 15 6 15 12 0 15
3 7 8 -8 5 -6 17 7 45 10 21 19 40 19 42 3 26 16 56 27 66 11 9 11 15 3 25 -9
11 -8 14 1 14 8 0 11 3 7 6 -3 4 2 14 11 23 10 9 12 12 5 7 -10 -6 -12 -4 -7
8 3 9 9 16 14 16 4 0 6 16 5 35 -1 24 4 39 14 45 14 8 14 9 1 10 -12 0 -12 2
-2 9 8 4 13 11 13 15 -1 3 -1 7 0 9 0 1 3 16 5 32 3 17 9 31 14 33 4 2 6 12 3
22 -3 12 0 20 6 20 7 0 9 5 6 10 -3 6 -2 10 2 10 5 0 10 8 11 17 2 20 9 55 13
63 1 3 3 12 3 20 1 8 6 14 12 13 5 -1 10 6 11 15 1 16 9 50 13 62 1 3 2 8 1
13 0 4 4 7 10 7 5 0 7 5 4 10 -3 6 -3 16 2 23 4 6 9 21 10 32 2 11 8 24 13 29
4 4 6 15 3 22 -3 8 1 14 8 14 7 0 10 3 7 6 -4 3 0 21 8 40 8 19 11 34 7 34 -4
0 -2 5 5 12 7 7 12 20 12 30 0 10 4 18 10 18 5 0 6 7 3 17 -5 12 -3 14 7 8 10
-6 12 -4 7 7 -3 9 0 21 6 28 9 10 9 11 -3 6 -8 -4 -4 3 10 15 20 18 21 21 6
15 -20 -7 -20 -7 0 15 11 14 13 19 4 14 -9 -5 -8 0 4 13 11 12 16 22 11 22 -4
0 -2 7 5 15 7 8 9 15 4 15 -4 0 1 7 12 16 10 8 12 12 4 8 -13 -7 -13 -5 -1 9
7 9 10 17 5 17 -4 0 1 7 12 16 10 8 12 12 4 8 -10 -5 -8 1 5 16 12 14 14 20 5
15 -9 -5 -7 1 5 15 13 15 15 21 5 16 -8 -4 -7 -1 4 8 10 8 15 20 11 25 -3 6 0
14 9 17 8 3 12 12 9 20 -3 9 2 14 18 15 17 1 19 3 7 6 -14 4 -16 8 -8 24 6 10
7 19 3 19 -4 0 -2 5 5 12 7 7 12 20 12 30 0 10 5 18 11 18 5 0 7 5 3 12 -5 7
-2 9 8 6 8 -4 15 0 15 8 0 7 -4 11 -9 8 -13 -8 -9 10 8 34 8 12 21 20 27 16 7
-3 4 1 -6 9 -11 9 -14 16 -7 19 6 2 12 10 13 18 5 29 60 139 68 134 4 -2 11 1
15 7 4 7 3 9 -4 5 -18 -11 -23 11 -5 25 14 12 16 12 8 0 -5 -9 -4 -12 3 -7 6
3 9 15 7 25 -2 11 3 22 12 25 9 4 13 9 10 13 -15 14 15 34 32 21 10 -8 9 -5
-3 10 -11 12 -14 22 -8 22 6 0 14 9 17 20 4 11 11 18 16 15 5 -3 6 1 3 9 -3 8
7 28 25 47 17 17 29 35 26 38 -2 4 5 13 15 21 10 8 17 17 14 21 -7 12 26 40
38 33 7 -4 8 -2 4 5 -4 6 -11 9 -15 6 -5 -2 -6 7 -3 22 4 20 2 24 -9 19 -8 -4
-6 -1 4 7 17 15 24 33 8 23 -5 -4 -7 3 -4 13 3 10 -1 29 -7 41 -8 15 -8 20 -1
16 19 -12 12 23 -10 48 -18 20 -25 22 -56 16 -42 -10 -79 13 -52 32 10 7 7 7
-10 3 -16 -5 -21 -4 -17 4 8 12 -37 26 -53 16 -6 -3 -11 -1 -11 6 0 7 -3 9 -7
6 -3 -4 -12 -2 -20 4 -13 11 -18 1 -14 -24 1 -5 -3 -6 -9 -2 -6 3 -7 11 -4 17
5 7 2 8 -5 4 -7 -5 -10 -14 -7 -22 3 -8 1 -14 -5 -14 -6 0 -7 -5 -3 -12 4 -6
3 -8 -4 -4 -5 3 -12 3 -15 -1 -2 -5 -2 -2 -1 4 2 7 -5 17 -14 22 -16 10 -5 16
21 12 4 0 7 3 7 8 0 5 -3 11 -7 14 -5 2 -2 2 5 1 6 -2 12 1 12 7 0 6 5 7 12 3
6 -4 8 -3 5 3 -9 14 -56 23 -63 12 -3 -5 -14 -4 -25 1 -14 8 -19 7 -19 -1 0
-6 -7 -8 -16 -5 -8 3 -12 2 -9 -4 3 -5 -6 -12 -20 -16 -14 -3 -24 -8 -21 -11
2 -3 -4 -13 -15 -24 -11 -11 -17 -24 -14 -29 4 -6 1 -10 -5 -10 -6 0 -8 -4 -5
-10 3 -5 3 -15 -1 -22 -4 -7 -9 -21 -10 -32 -3 -30 -9 -49 -17 -63 -5 -7 -4
-13 2 -13 12 0 -7 -50 -24 -62 -7 -5 -6 -8 1 -8 7 0 9 -11 6 -25 -2 -14 -9
-25 -15 -25 -6 0 -7 -3 -4 -7 4 -3 2 -12 -4 -20 -6 -7 -8 -13 -5 -13 4 0 0 -7
-8 -16 -9 -8 -14 -19 -11 -24 3 -5 1 -11 -5 -15 -5 -3 -10 -14 -10 -25 0 -10
-6 -20 -14 -23 -8 -3 -12 -16 -11 -32 3 -20 0 -25 -11 -21 -9 3 -12 1 -9 -5 8
-13 -16 -99 -28 -99 -4 0 -5 -4 -2 -10 3 -5 1 -10 -4 -10 -6 0 -10 -3 -9 -7 3
-14 -14 -63 -22 -63 -4 0 -11 -12 -15 -27 -3 -16 -14 -37 -23 -47 -9 -11 -12
-16 -5 -12 7 4 -3 -20 -22 -54 -19 -33 -34 -63 -34 -65 -1 -15 -140 -283 -144
-279 -3 3 -4 -6 -3 -19 2 -19 -3 -27 -18 -31 -11 -3 -17 -8 -14 -11 4 -4 -1
-15 -10 -25 -34 -37 -41 -48 -35 -54 4 -3 1 -6 -6 -6 -7 0 -9 -4 -6 -10 3 -5
1 -10 -5 -10 -6 0 -9 -4 -5 -9 3 -5 0 -13 -6 -16 -5 -4 -8 -14 -4 -22 5 -14 3
-14 -12 -2 -12 10 -15 10 -9 1 4 -7 2 -20 -6 -29 -11 -14 -11 -16 2 -8 9 5 7
-1 -5 -15 -11 -13 -14 -20 -8 -16 9 5 11 2 7 -8 -3 -9 -10 -16 -15 -16 -5 0
-9 -5 -9 -11 0 -5 5 -7 11 -3 6 3 4 -5 -5 -19 -13 -20 -14 -26 -4 -30 9 -4 7
-6 -4 -6 -9 -1 -20 -6 -24 -13 -4 -6 -3 -8 4 -4 6 3 14 1 18 -5 4 -8 3 -9 -4
-5 -11 6 -51 -30 -52 -46 0 -8 -6 -15 -57 -72 -13 -14 -23 -30 -23 -36 0 -5
-4 -10 -10 -10 -5 0 -9 -3 -9 -8 3 -20 -2 -33 -11 -27 -6 4 -10 3 -9 -2 3 -18
-2 -32 -17 -47 -8 -9 -17 -27 -18 -40 -1 -14 -9 -33 -17 -42 -9 -11 -9 -15 -1
-10 6 4 12 2 12 -3 0 -6 -5 -11 -11 -11 -5 0 -7 -4 -4 -10 3 -5 3 -16 -2 -22
-4 -7 -8 -22 -8 -33 -1 -11 -5 -28 -9 -37 -4 -9 -5 -22 -1 -28 3 -5 2 -10 -3
-10 -6 0 -13 -7 -16 -16 -4 -10 -2 -13 7 -8 6 4 4 -2 -6 -13 -9 -11 -14 -23
-10 -26 3 -4 -2 -14 -13 -22 -14 -11 -15 -14 -4 -15 9 0 4 -7 -13 -18 -15 -10
-24 -21 -21 -25 4 -4 -1 -9 -10 -13 -9 -3 -16 -12 -16 -20 0 -8 -4 -14 -10
-14 -5 0 -10 -6 -10 -13 0 -7 -8 -22 -18 -33 -19 -21 -21 -32 -7 -54 7 -13 6
-13 -8 -2 -13 12 -18 10 -29 -7 -7 -12 -18 -21 -25 -21 -7 0 -13 -4 -13 -8 0
-15 -37 -52 -44 -45 -4 4 -4 -1 0 -11 4 -12 3 -17 -2 -13 -5 3 -21 -11 -34
-31 -14 -20 -29 -40 -35 -44 -5 -4 -10 -11 -10 -17 0 -5 -12 -27 -27 -50 -15
-23 -22 -39 -15 -35 7 4 0 -5 -16 -21 -15 -15 -30 -39 -33 -51 -4 -14 -11 -21
-17 -17 -6 4 -8 0 -4 -11 4 -10 3 -15 -3 -11 -6 3 -13 -2 -17 -12 -9 -24 -29
-44 -37 -36 -3 4 -6 -3 -6 -15 0 -12 -5 -22 -10 -22 -10 0 -35 -48 -32 -62 1
-5 -5 -8 -13 -8 -8 0 -15 -3 -15 -7 0 -5 -10 -20 -23 -35 -12 -14 -28 -35 -36
-47 -8 -11 -17 -18 -21 -16 -3 2 -14 -9 -24 -26 -9 -16 -21 -29 -27 -29 -5 0
-9 -5 -9 -11 0 -6 -9 -22 -20 -36 -11 -14 -17 -29 -14 -34 3 -5 0 -9 -5 -9 -6
0 -10 -6 -9 -12 2 -7 -3 -12 -10 -10 -8 1 -11 -2 -8 -7 4 -5 -2 -18 -12 -28
-10 -10 -22 -26 -25 -36 -4 -10 -11 -15 -17 -12 -6 3 -7 -1 -4 -9 4 -9 0 -18
-9 -22 -8 -3 -35 -24 -59 -47 -23 -23 -36 -38 -28 -34 8 5 4 0 -10 -10 -13
-10 -33 -26 -42 -36 -10 -9 -22 -17 -28 -17 -5 0 -10 -4 -10 -9 0 -5 -10 -12
-22 -16 -13 -4 -26 -8 -30 -10 -19 -6 -23 -7 -30 -6 -5 0 -8 -4 -8 -10 0 -5
-4 -8 -9 -4 -6 3 -14 -3 -20 -12 -6 -10 -11 -14 -11 -10 0 5 -13 0 -29 -9 -17
-10 -28 -21 -25 -26 3 -4 0 -8 -7 -8 -7 0 -24 -10 -37 -22 -14 -13 -21 -16
-17 -9 5 9 -5 5 -23 -8 -17 -12 -37 -21 -44 -20 -7 1 -26 -3 -41 -9 -16 -7
-34 -12 -42 -12 -7 0 -15 -7 -18 -15 -4 -8 -15 -12 -27 -10 -11 2 -18 0 -15
-6 6 -9 -5 -11 -57 -12 -15 0 -24 -5 -22 -12 3 -6 -6 -11 -21 -11 -19 0 -24 4
-20 16 5 11 3 12 -5 4 -14 -14 -50 -7 -50 10 0 6 -5 4 -10 -4 -9 -13 -10 -13
-10 0 0 13 -1 13 -10 0 -8 -12 -10 -12 -10 -1 0 10 -3 11 -13 2 -8 -6 -17 -8
-20 -4 -4 3 -7 1 -7 -4 0 -6 -8 -10 -17 -8 -10 1 -26 -6 -35 -16 -10 -10 -27
-16 -38 -14 -11 2 -20 1 -20 -3 0 -4 -15 -7 -34 -7 -26 -1 -32 3 -25 11 7 8 6
14 -3 17 -10 4 -10 8 2 16 8 6 10 11 5 11 -6 0 -11 18 -12 40 -3 60 -5 70 -15
70 -5 0 -7 4 -3 9 3 5 1 12 -5 16 -6 4 -8 11 -5 16 4 5 1 9 -5 9 -6 0 -8 5 -4
12 4 6 -1 17 -11 25 -14 9 -15 13 -4 13 10 1 8 4 -5 11 -15 9 -16 13 -5 20 11
7 11 9 -3 9 -11 0 -16 6 -13 20 2 11 -1 20 -6 20 -6 0 -7 6 -3 13 5 9 4 9 -6
0 -7 -6 -19 -9 -28 -6 -10 4 -13 2 -8 -5 5 -8 2 -10 -8 -6 -10 4 -16 1 -16 -7
0 -12 -2 -12 -9 0 -9 14 -54 18 -86 7 -12 -5 -11 -2 5 7 14 9 27 14 31 12 3
-2 6 2 6 9 0 7 -6 13 -13 13 -7 0 -11 -4 -9 -8 3 -4 -2 -10 -11 -13 -21 -8
-24 -8 -24 5 0 5 5 7 12 3 8 -5 9 -2 5 9 -4 10 -2 16 6 14 7 -1 11 4 9 11 -1
8 2 11 8 7 5 -3 10 -1 10 5 0 6 4 9 8 6 5 -3 9 0 10 7 0 7 3 26 7 42 11 50 13
115 3 115 -5 0 -6 9 -3 20 4 11 3 20 -2 19 -19 -3 -22 2 -13 27 7 19 7 23 -2
18 -8 -5 -9 -2 -5 9 3 10 2 17 -4 17 -6 0 -7 5 -4 10 4 6 1 9 -6 8 -7 -2 -13
2 -14 7 0 6 -5 17 -10 25 -13 21 -14 54 -1 63 7 6 4 7 -6 3 -10 -3 -26 -9 -35
-12 -11 -3 -14 -2 -8 3 18 15 41 47 28 39 -7 -4 -13 -2 -13 3 0 6 5 11 10 11
13 0 13 40 0 60 -5 8 -10 11 -10 5 0 -5 -11 2 -24 17 -12 15 -26 25 -30 21 -3
-3 -6 -1 -6 6 0 7 -4 10 -9 7 -5 -3 -11 1 -15 9 -3 8 -12 15 -21 15 -13 0 -19
11 -16 32 0 3 -7 5 -16 4 -18 -3 -44 15 -38 24 2 3 -5 7 -17 7 -11 1 -28 11
-38 22 -9 12 -23 21 -29 21 -16 0 -62 46 -54 54 4 3 1 6 -5 6 -7 0 -14 0 -17
0 -3 0 -14 9 -25 20 -12 12 -24 19 -28 17 -4 -3 -16 5 -27 16 -11 11 -14 16
-6 12 9 -5 12 -4 7 3 -4 6 -13 9 -21 5 -8 -3 -15 1 -15 8 0 7 -3 9 -7 6 -3 -4
-15 1 -26 10 -11 10 -17 12 -13 6 5 -9 2 -11 -8 -7 -9 3 -16 10 -16 15 0 5 -7
9 -16 9 -8 0 -13 4 -9 9 3 5 -4 12 -15 16 -11 3 -20 13 -20 21 0 8 -4 13 -9
10 -5 -4 -7 3 -4 14 3 11 10 17 16 13 6 -3 7 -1 3 6 -4 6 -13 9 -19 5 -7 -3
-5 0 3 8 26 23 40 64 27 78 -9 10 -9 11 1 6 6 -4 12 -2 12 4 0 6 4 8 10 5 6
-4 7 1 3 11 -5 13 -3 15 8 9 11 -6 12 -5 2 5 -10 11 -10 17 1 29 14 16 16 20
16 42 0 5 5 7 12 3 7 -5 8 -3 3 6 -6 10 -11 9 -21 -5 -7 -10 -11 -22 -7 -28 4
-6 1 -7 -7 -2 -8 5 -11 4 -6 -3 3 -6 2 -13 -4 -17 -6 -4 -8 -10 -6 -14 3 -4 0
-13 -5 -21 -7 -12 -8 -11 -6 5 1 11 6 26 10 33 5 6 5 12 2 12 -4 0 2 12 13 28
10 15 17 33 15 40 -3 6 0 12 7 12 6 0 9 -4 6 -9 -3 -5 3 -11 15 -14 16 -4 18
-3 8 9 -9 11 -9 14 0 14 7 0 9 5 5 12 -5 7 -2 9 8 5 11 -4 14 -1 11 12 -3 11
5 24 22 35 25 16 26 19 10 36 -12 14 -13 20 -4 26 7 4 10 3 5 -4 -3 -6 3 -16
14 -22 11 -6 20 -7 19 -3 -4 22 2 34 14 27 9 -6 9 -4 -1 7 -14 16 -16 33 -2
24 5 -3 10 -1 10 5 0 6 4 9 9 6 11 -7 33 18 25 27 -4 3 0 13 9 21 8 8 17 12
21 9 3 -4 6 -1 6 5 0 5 -6 13 -12 16 -7 2 -2 4 12 3 13 -1 25 3 25 10 0 7 9
19 20 28 19 16 19 16 -5 9 -24 -6 -24 -6 -5 9 11 8 24 13 29 10 5 -4 6 0 1 7
-5 8 -1 19 11 28 19 14 18 15 -1 8 -18 -6 -19 -5 -3 7 14 11 15 16 5 26 -7 7
-7 12 -2 11 24 -5 35 2 56 38 13 20 35 48 49 61 21 21 22 23 5 17 -15 -5 -13
0 10 22 17 16 33 28 37 26 3 -2 5 7 3 21 -2 22 0 23 13 13 13 -12 14 -10 3 11
-7 13 -9 21 -3 17 12 -7 34 18 24 29 -4 5 -1 5 6 1 7 -4 10 -11 8 -15 -3 -4 1
-8 9 -8 11 0 12 5 3 21 -6 12 -7 18 -3 14 5 -5 14 1 22 12 15 22 39 28 27 8
-5 -9 -2 -8 9 1 13 10 15 17 6 27 -13 16 12 31 30 19 7 -4 8 0 4 11 -5 13 -3
15 8 9 12 -8 12 -6 0 8 -8 10 -11 20 -7 24 3 3 6 2 6 -4 0 -5 7 -10 15 -10 10
0 12 4 5 12 -11 13 -3 25 14 25 6 0 4 -5 -4 -10 -8 -5 -10 -10 -4 -10 22 0 34
22 22 44 -10 19 -10 20 5 7 16 -12 21 -9 18 12 0 4 4 7 10 7 5 0 8 4 5 8 -2 4
0 14 6 22 8 13 9 12 5 -2 -14 -44 29 -11 46 36 4 10 13 16 22 13 9 -4 12 -1 9
7 -3 7 2 16 10 19 9 4 16 13 16 22 0 9 10 20 23 25 17 7 18 9 4 9 -17 1 -16 2
2 22 11 12 24 18 30 14 8 -4 8 1 1 19 -8 21 -6 24 10 21 13 -2 17 1 14 10 -6
13 29 39 39 29 3 -3 4 3 3 13 0 11 5 17 13 15 12 -3 12 0 1 13 -7 8 -10 18 -6
22 3 3 6 2 6 -4 0 -5 7 -10 15 -10 12 0 12 3 2 16 -9 12 -9 13 1 7 7 -4 12 -1
12 8 0 9 7 16 15 16 9 0 12 6 8 17 -4 10 -2 14 4 10 6 -4 21 5 33 20 12 16 19
23 16 17 -3 -7 1 -15 10 -18 11 -4 15 -2 11 8 -4 9 3 16 16 20 18 5 19 8 7 16
-13 8 -13 11 -1 22 11 11 13 11 6 -1 -5 -10 -4 -12 4 -7 6 4 9 12 5 17 -3 6 2
19 11 29 9 10 14 23 10 29 -4 7 1 8 12 4 16 -6 17 -5 3 12 -8 10 -10 16 -3 12
6 -4 14 -3 18 3 4 6 12 7 18 4 7 -4 9 -4 5 0 -7 9 33 52 44 49 5 -2 7 1 5 5
-1 4 10 20 25 34 15 14 25 28 21 31 -3 4 1 7 11 7 9 0 14 5 11 10 -3 6 -2 10
4 10 6 0 8 6 5 14 -3 8 0 17 6 21 9 6 9 9 1 14 -8 5 -8 19 2 52 8 24 15 49 16
54 2 6 7 9 12 8 5 -2 4 9 -2 23 -5 15 -7 29 -4 32 3 3 5 0 5 -7 0 -7 5 -9 12
-5 8 5 9 1 5 -12 -5 -14 -2 -13 13 6 17 21 19 22 14 5 -5 -18 -5 -18 6 -2 6 9
16 14 22 11 7 -4 8 -2 4 5 -4 6 -1 18 6 26 34 37 39 45 28 45 -6 0 -8 5 -5 10
4 6 11 8 16 5 5 -4 9 -2 9 4 0 5 11 23 25 38 46 52 50 58 48 65 -2 5 2 8 7 8
12 0 54 40 43 40 -5 0 0 5 10 11 9 6 15 14 12 20 -4 5 2 9 11 9 10 0 15 3 11
6 -5 6 10 28 46 66 9 10 15 18 13 18 -3 0 11 16 30 37 19 20 32 38 30 41 -7 7
21 32 35 32 7 0 10 3 7 6 -4 3 8 21 25 39 18 19 48 53 67 76 19 24 45 53 57
66 12 13 19 23 16 23 -3 0 8 13 25 29 16 16 28 32 24 35 -3 3 1 6 8 6 7 0 10
3 7 7 -4 3 8 17 25 30 18 12 28 23 24 23 -5 0 -3 6 3 13 6 8 8 17 4 20 -3 4 2
7 13 7 14 0 16 2 6 9 -11 7 -11 11 2 23 8 9 12 18 9 22 -4 3 -1 6 6 6 7 0 9 5
5 12 -5 7 -2 9 8 5 9 -3 15 0 14 6 0 7 4 13 9 13 6 1 9 -3 7 -10 -1 -6 10 3
24 19 14 17 23 24 19 16 -5 -9 -3 -12 6 -9 8 3 13 11 11 17 -1 6 1 11 5 10 18
-3 52 14 47 22 -3 5 2 9 10 9 8 0 27 12 43 28 15 15 29 25 31 24 2 -2 16 7 32
21 15 14 31 23 34 20 3 -4 6 0 6 7 0 7 3 11 6 8 3 -4 22 12 42 35 20 23 46 51
58 63 12 11 25 31 29 43 3 12 11 18 17 15 7 -5 8 -2 3 5 -9 15 14 63 27 55 4
-3 6 -10 3 -15 -4 -5 -1 -9 4 -9 6 0 11 4 11 9 0 6 9 8 20 6 11 -2 18 0 16 4
-8 12 29 43 39 34 4 -5 5 -2 1 5 -6 11 -14 8 -32 -9 -25 -24 -54 -34 -54 -19
0 5 9 12 20 15 11 4 18 9 16 13 -5 10 20 32 28 25 3 -4 6 -1 6 6 0 8 6 11 16
7 8 -3 12 -2 9 4 -3 6 -3 10 2 11 30 3 48 11 78 34 19 14 35 23 35 19 0 -3 6
-1 13 5 8 6 17 8 20 4 4 -3 7 -1 7 5 0 7 7 12 15 12 8 0 15 4 15 9 0 5 11 8
25 6 14 -1 28 2 31 6 3 5 18 9 34 9 16 0 32 5 35 10 5 8 12 7 23 -2 9 -8 13
-8 9 -2 -4 7 -1 14 6 16 26 8 279 0 286 -9 3 -5 16 -9 29 -10 12 0 36 -1 52
-2 19 -1 30 -6 30 -15 0 -19 102 -68 132 -64 13 2 28 10 35 18 9 11 12 12 13
2 0 -9 7 -11 20 -7 12 4 20 2 20 -5 0 -6 -4 -9 -8 -6 -5 3 -9 -1 -9 -8 0 -8 7
-12 15 -8 9 3 13 1 9 -5 -4 -6 4 -18 18 -27 33 -22 38 -20 33 8 -5 26 16 44
28 24 5 -7 2 -8 -7 -3 -8 5 -11 4 -6 -1 5 -5 16 -9 25 -9 10 0 17 -8 17 -18 0
-10 8 -24 17 -31 10 -7 15 -16 11 -19 -6 -6 12 -11 30 -8 4 0 7 -6 7 -15 0 -8
5 -12 10 -9 6 3 10 -1 10 -10 0 -9 5 -13 10 -10 6 3 10 2 10 -3 0 -5 8 -9 18
-9 33 0 39 -3 39 -19 0 -14 -2 -14 -11 -3 -10 13 -20 15 -41 10 -3 0 5 -12 17
-25 13 -13 26 -21 31 -19 4 2 7 -2 7 -9 0 -9 3 -9 10 2 8 13 10 12 10 -2 0
-10 5 -18 11 -18 5 0 7 6 3 13 -4 6 2 4 13 -6 11 -9 23 -14 26 -10 4 3 7 2 7
-4 0 -9 14 -10 55 -4 6 1 3 5 -5 11 -8 5 -11 12 -7 17 5 4 12 1 17 -7 7 -11 3
-20 -13 -32 -13 -10 -24 -13 -28 -6 -3 5 -8 9 -10 7 -2 -1 -14 1 -27 5 -16 6
-30 2 -44 -11 -17 -14 -20 -15 -16 -3 4 11 0 16 -12 16 -10 0 -17 -4 -14 -7 2
-4 0 -10 -4 -13 -5 -3 -8 -13 -7 -23 3 -29 16 -53 25 -48 5 3 11 -3 15 -14 8
-25 41 -62 48 -54 4 3 9 -1 13 -10 4 -13 10 -14 24 -7 27 14 34 12 20 -5 -10
-12 -8 -14 9 -10 12 2 26 7 33 11 8 5 9 2 4 -11 -6 -16 -4 -16 11 -4 15 13 16
12 9 -6 -6 -17 -3 -16 20 5 23 21 25 22 16 5 -9 -17 -7 -21 8 -21 12 0 16 5
12 16 -5 13 -4 13 13 0 11 -9 16 -10 11 -2 -4 6 -4 12 1 13 4 0 18 2 31 3 20
2 22 -1 17 -31 -3 -18 -1 -33 4 -33 5 0 13 -9 16 -20 4 -11 10 -18 15 -15 5 3
11 -1 13 -7 4 -10 6 -10 6 -1 1 9 8 10 24 4 13 -5 30 -5 38 -1 8 6 16 4 21 -3
6 -9 8 -9 8 1 0 6 11 12 24 12 14 0 27 4 31 9 3 6 14 8 25 6 12 -2 18 0 15 6
-4 5 13 9 37 10 24 1 69 2 101 3 32 1 57 -3 57 -9 0 -5 5 -3 10 5 5 8 10 10
10 4 0 -7 10 -9 25 -6 14 2 22 9 18 15 -4 6 -1 7 8 1 22 -13 42 -14 58 -1 10
8 13 8 8 1 -7 -12 40 -17 58 -6 16 10 36 11 30 2 -3 -5 -1 -11 5 -15 5 -3 10
-1 10 4 0 6 3 10 8 10 25 -4 37 1 22 11 -11 7 -6 10 20 11 19 0 51 2 70 3 19
2 38 -2 42 -8 5 -7 8 -7 8 -1 0 6 29 12 68 13 76 3 95 6 135 21 15 6 27 8 27
5 0 -4 8 0 17 7 14 12 15 12 9 0 -6 -10 -2 -9 15 2 21 14 106 46 134 51 6 1
24 10 41 19 17 9 35 13 39 9 5 -4 5 -1 1 6 -4 6 -3 12 2 12 6 0 9 11 8 25 0
14 -6 25 -11 25 -6 0 -16 10 -24 21 -10 18 -15 19 -22 8 -5 -8 -9 -9 -9 -3 0
5 5 15 10 20 8 8 6 15 -6 25 -12 9 -15 10 -10 2 4 -7 3 -13 -1 -13 -5 0 -14
10 -22 23 -13 20 -13 21 2 9 10 -9 17 -10 22 -2 3 5 1 10 -4 10 -17 0 -8 22
22 52 31 31 33 41 13 58 -8 6 -12 19 -9 27 4 10 2 14 -4 10 -6 -4 -10 -1 -9 5
2 14 21 23 21 10 0 -15 38 -46 56 -47 10 0 19 -3 19 -7 0 -35 -1 -39 -12 -32
-7 4 -9 3 -5 -1 10 -12 38 -15 31 -4 -3 5 0 9 5 9 6 0 11 -4 11 -9 0 -16 32
-42 45 -37 9 3 12 -3 11 -18 -2 -18 1 -22 16 -18 10 2 18 1 17 -4 -4 -21 2
-34 15 -34 7 0 21 -11 30 -25 10 -15 22 -23 29 -19 7 4 9 4 5 -1 -4 -4 -3 -14
3 -22 6 -7 8 -13 5 -13 -4 0 -1 -6 6 -14 7 -8 17 -11 22 -8 5 3 7 -4 4 -16 -4
-15 -2 -19 8 -15 12 5 19 -8 15 -29 0 -5 4 -8 10 -8 6 0 9 -7 5 -15 -3 -8 -2
-14 2 -14 18 3 35 -2 29 -8 -4 -3 3 -11 14 -17 12 -6 21 -15 21 -21 0 -5 6
-14 14 -18 8 -5 12 -12 9 -18 -4 -5 -1 -9 4 -9 6 0 11 -7 11 -15 0 -8 4 -15 8
-15 4 0 15 -12 24 -28 9 -15 30 -42 48 -60 18 -19 28 -38 23 -45 -4 -8 -1 -7
10 1 14 12 16 11 12 -7 -2 -12 0 -19 6 -16 5 4 9 1 9 -5 0 -6 5 -8 10 -5 9 6
14 -8 11 -27 0 -5 2 -7 7 -7 22 4 30 -3 27 -21 -2 -11 0 -18 4 -15 5 2 15 -3
22 -12 12 -14 12 -16 -1 -9 -9 4 -8 1 3 -7 9 -8 17 -21 17 -30 0 -9 7 -22 15
-31 9 -8 16 -19 17 -23 1 -17 18 -53 24 -53 3 0 4 7 1 14 -4 10 -1 13 9 9 11
-4 12 -8 3 -20 -12 -14 5 -63 22 -63 4 0 6 -9 4 -20 -2 -11 1 -20 6 -20 6 0 8
-4 5 -9 -3 -5 4 -20 15 -35 11 -14 17 -26 12 -26 -4 0 7 -10 24 -21 18 -12 30
-26 26 -32 -3 -5 -2 -7 4 -4 5 3 28 -12 51 -33 23 -22 45 -40 51 -40 5 0 12
-7 15 -16 4 -9 13 -14 21 -10 8 3 14 2 14 -2 -3 -20 3 -32 16 -32 9 0 18 -7
21 -15 3 -8 14 -17 25 -20 11 -4 17 -10 14 -15 -3 -5 5 -19 18 -32 12 -13 24
-27 25 -33 1 -5 8 -10 15 -10 21 -1 39 -16 33 -30 -3 -9 2 -12 15 -10 16 3 18
1 10 -9 -8 -10 -7 -17 6 -27 15 -12 16 -12 8 1 -7 12 -6 13 7 3 8 -7 19 -9 23
-5 5 4 5 1 1 -5 -4 -7 -14 -13 -22 -13 -8 0 -12 -5 -9 -10 4 -6 11 -7 17 -4 7
5 9 1 5 -9 -3 -10 -2 -17 4 -17 6 0 9 -8 8 -18 -4 -27 11 -63 24 -56 7 3 4 -1
-6 -9 -10 -8 -14 -17 -8 -18 5 -2 11 -17 13 -32 2 -15 12 -37 21 -47 9 -11 17
-26 17 -33 0 -9 3 -8 9 1 6 10 10 8 16 -10 13 -41 13 -48 4 -42 -14 9 -10 -6
6 -23 8 -8 13 -19 10 -24 -4 -5 0 -9 7 -9 9 0 9 -3 -2 -10 -8 -5 -10 -10 -4
-10 6 0 10 -18 10 -40 -1 -29 3 -39 12 -35 9 3 10 0 2 -15 -8 -14 -8 -20 0
-20 6 0 8 -5 5 -10 -4 -6 1 -24 9 -42 19 -38 20 -41 4 -32 -7 4 -5 -2 5 -14
11 -11 16 -25 13 -31 -4 -5 -2 -12 3 -16 5 -3 8 -14 6 -25 -3 -13 0 -18 7 -14
7 5 9 0 6 -14 -4 -12 -2 -25 3 -28 6 -4 6 -11 -1 -19 -8 -9 -8 -15 0 -20 5 -3
10 -11 10 -16 0 -6 -5 -7 -11 -3 -7 4 -7 -1 1 -16 18 -33 -16 -63 -50 -45 -13
7 -29 11 -35 9 -6 -3 -20 5 -32 16 -12 11 -25 20 -29 20 -4 0 -19 10 -32 23
-14 12 -22 15 -18 7 4 -8 -2 -4 -13 10 -11 14 -20 30 -20 35 3 24 -2 35 -14
35 -7 0 -23 9 -34 19 -12 11 -23 17 -26 15 -3 -3 -14 -1 -24 4 -10 6 -31 12
-48 15 -44 7 -85 28 -78 40 3 6 1 7 -5 3 -6 -4 -25 0 -42 9 -16 8 -30 13 -30
9 0 -4 -8 0 -17 7 -11 10 -14 10 -9 2 4 -7 2 -13 -3 -13 -6 0 -11 4 -11 8 0 5
-7 9 -15 9 -8 0 -15 -4 -15 -9 0 -5 -5 -6 -11 -2 -10 6 -75 15 -121 17 -9 1
-14 5 -12 9 3 4 -1 8 -8 9 -7 0 -65 2 -128 5 -207 9 -270 9 -270 3 0 -3 -17
-7 -37 -8 -21 -2 -46 -3 -55 -4 -10 -1 -18 -4 -18 -7 0 -3 -21 -5 -48 -4 -26
0 -53 -4 -60 -9 -8 -7 -16 -7 -23 0 -11 11 -49 6 -49 -6 0 -4 -10 -8 -22 -8
-30 -2 -50 -7 -65 -16 -7 -5 -17 -5 -23 -2 -5 3 -10 1 -10 -4 0 -6 -7 -11 -16
-11 -8 0 -13 -4 -10 -9 3 -4 -6 -6 -19 -3 -16 3 -25 0 -25 -8 0 -9 -4 -9 -17
1 -11 10 -14 10 -9 2 5 -9 0 -13 -13 -13 -12 0 -21 -4 -21 -8 0 -4 -12 -9 -26
-10 -15 -1 -33 -7 -40 -13 -7 -6 -18 -8 -24 -4 -5 3 -10 2 -10 -3 0 -12 -80
-43 -93 -35 -6 3 -7 1 -3 -5 4 -7 -3 -14 -19 -18 -14 -3 -25 -9 -25 -13 0 -4
-17 -13 -37 -20 -21 -8 -40 -17 -43 -20 -3 -3 -28 -18 -57 -32 -29 -15 -49
-29 -46 -33 4 -3 -3 -6 -15 -6 -15 0 -20 -4 -15 -15 3 -9 2 -15 -3 -13 -5 2
-24 -12 -43 -30 -19 -17 -38 -32 -42 -32 -5 0 -9 -4 -9 -10 0 -5 -16 -26 -35
-47 -19 -20 -32 -40 -29 -45 3 -4 2 -8 -3 -8 -4 0 -16 -14 -25 -31 -10 -17
-12 -27 -5 -23 6 4 3 -3 -8 -15 -11 -13 -19 -32 -17 -43 2 -11 0 -18 -5 -15
-9 5 -13 -19 -13 -71 0 -13 -4 -21 -8 -18 -8 5 -10 -13 -16 -134 -1 -25 2 -58
7 -75 4 -16 9 -36 11 -43 1 -8 9 -18 17 -23 12 -7 12 -9 -1 -9 -12 -1 -12 -3
2 -11 10 -5 15 -16 12 -24 -4 -8 -2 -15 3 -15 5 0 10 -11 11 -25 4 -52 5 -56
21 -50 12 5 13 3 5 -5 -13 -13 -6 -60 8 -60 5 0 6 -5 3 -10 -3 -6 1 -17 9 -25
8 -9 12 -23 9 -32 -4 -11 -3 -14 5 -9 7 4 12 1 12 -8 0 -9 5 -16 11 -16 5 0 7
-5 4 -10 -3 -6 1 -10 9 -10 9 0 16 -7 16 -16 0 -8 4 -13 9 -9 6 3 8 -3 6 -15
-2 -11 -1 -19 3 -17 4 1 7 -1 7 -6 0 -4 15 -16 33 -27 18 -11 35 -27 38 -35 4
-8 10 -12 15 -9 5 3 9 -2 9 -11 0 -9 4 -14 9 -10 5 3 16 -2 24 -10 9 -8 23
-15 31 -15 9 0 16 -4 16 -8 0 -9 11 -12 60 -15 22 -1 29 -6 25 -16 -4 -10 2
-8 16 5 14 11 19 13 14 4 -8 -13 -7 -13 8 -1 14 11 17 11 17 0 0 -11 2 -11 10
1 7 11 10 12 10 2 0 -9 7 -11 20 -7 13 4 20 2 20 -7 0 -10 3 -9 10 2 8 12 10
12 10 1 0 -9 4 -10 12 -4 7 6 21 9 30 8 10 -2 20 1 24 6 3 5 10 7 15 4 5 -4 9
-1 9 6 0 9 3 9 14 0 11 -10 17 -8 25 6 6 10 11 12 11 6 0 -7 5 -13 11 -13 5 0
8 3 6 8 -3 4 1 12 8 19 11 10 15 10 18 0 4 -9 6 -9 6 1 1 7 5 11 11 7 5 -3 7
-13 4 -23 -4 -10 -3 -13 3 -6 11 15 41 13 47 -3 3 -8 10 -11 16 -8 5 3 10 1
10 -5 0 -6 4 -9 9 -5 5 3 13 0 17 -6 4 -8 9 -7 15 2 7 11 9 11 9 -2 0 -18 28
-21 48 -6 9 7 11 6 7 -5 -4 -11 2 -14 25 -12 16 1 30 -2 30 -8 0 -5 7 -2 16 7
15 15 18 15 37 -2 11 -10 17 -12 13 -5 -9 16 16 16 33 -1 11 -9 13 -9 7 1 -4
6 -2 12 3 12 6 0 11 -6 11 -12 0 -9 3 -9 8 -2 4 6 19 11 35 11 15 1 29 2 32 3
3 1 13 3 23 4 9 1 23 5 30 9 6 5 12 4 12 0 0 -5 -6 -15 -12 -23 -11 -12 -10
-12 2 -3 8 5 25 9 38 8 14 -1 22 4 23 14 1 9 5 5 9 -9 4 -14 8 -19 9 -11 1 12
4 11 14 -2 9 -13 16 -14 27 -6 12 9 11 10 -5 4 -15 -5 -17 -3 -8 6 6 6 17 8
25 3 18 -11 38 -14 38 -5 0 4 7 8 15 8 8 0 15 -3 15 -7 0 -4 11 -5 25 -2 14 2
22 8 19 13 -3 5 2 6 11 2 10 -3 21 0 26 8 7 12 9 12 9 0 0 -10 3 -11 14 -2 16
14 32 -2 20 -20 -4 -8 -1 -8 12 -1 11 5 40 8 66 8 33 -1 49 3 53 13 4 10 9 11
16 4 20 -20 50 -3 45 26 -2 14 -9 25 -15 23 -6 -1 -10 1 -10 5 4 23 -2 43 -11
38 -6 -3 -10 2 -10 12 0 10 -9 25 -19 33 -11 7 -18 17 -15 22 3 4 0 8 -5 8 -6
0 -10 3 -10 7 3 18 -2 34 -8 30 -5 -3 -14 1 -21 9 -10 11 -10 14 0 14 7 1 2
10 -11 20 -13 11 -20 20 -16 20 5 0 -4 11 -18 24 -14 13 -23 27 -20 30 4 3 2
6 -4 6 -10 0 -26 36 -24 52 0 4 -6 5 -14 2 -10 -4 -15 0 -15 11 0 9 -4 14 -8
11 -4 -2 -14 9 -21 24 -7 16 -16 29 -19 29 -23 -4 -33 3 -28 17 3 8 2 12 -3 9
-6 -3 -14 3 -20 12 -6 10 -11 14 -11 10 0 -4 -10 2 -23 15 -13 13 -45 34 -73
48 -27 14 -52 29 -56 34 -3 5 -19 10 -35 11 -16 1 -34 5 -41 9 -7 4 -12 3 -12
-2 0 -5 -13 -8 -30 -7 -16 1 -30 -3 -30 -8 0 -6 -3 -7 -7 -4 -3 4 -13 1 -21
-6 -13 -10 -14 -9 -7 3 8 13 7 13 -8 1 -11 -8 -17 -9 -17 -2 0 7 -8 8 -23 2
-13 -5 -30 -6 -37 -1 -7 5 -21 3 -31 -3 -13 -8 -22 -7 -35 4 -15 12 -17 12 -9
0 6 -11 4 -13 -9 -8 -22 9 -56 -13 -56 -35 0 -10 -5 -18 -10 -18 -7 0 -7 -6
-1 -18 7 -14 6 -19 -4 -19 -8 0 -12 4 -9 9 3 4 -2 5 -10 2 -9 -3 -16 -11 -16
-16 0 -6 -8 -4 -17 3 -9 8 -14 9 -10 3 4 -7 0 -15 -8 -18 -10 -4 -19 2 -25 17
-5 12 -9 17 -9 10 -1 -7 -8 -10 -16 -7 -8 4 -15 2 -15 -4 0 -5 9 -12 20 -15
14 -4 18 -10 14 -22 -6 -15 -4 -16 13 -7 11 6 23 8 27 5 3 -3 6 1 6 11 0 15 2
15 26 -1 25 -16 27 -16 39 0 11 15 13 16 18 2 4 -8 1 -14 -6 -12 -7 1 -11 -8
-11 -20 1 -20 -1 -21 -20 -11 -11 7 -25 11 -29 10 -5 -1 -6 3 -2 10 4 7 -1 4
-10 -7 -13 -17 -17 -18 -25 -5 -5 8 -12 11 -16 7 -4 -3 -1 -13 6 -21 6 -9 10
-21 7 -28 -3 -8 -6 -6 -6 5 -1 10 -6 15 -11 12 -6 -4 -10 -3 -9 2 4 26 -1 38
-11 23 -13 -20 -13 -4 0 20 12 22 -25 36 -48 18 -7 -6 -12 -7 -11 -2 1 5 1 18
-1 29 l-1 20 -9 -20 c-8 -18 -9 -18 -9 5 -1 20 -3 22 -11 10 -10 -15 -17 18
-10 45 1 6 3 22 3 38 0 15 5 27 11 27 7 0 7 3 -1 8 -6 4 -13 14 -15 22 -5 21
-22 39 -32 32 -5 -3 -6 0 -2 6 4 7 2 20 -4 29 -11 17 -11 17 -6 -1 6 -17 5
-17 -11 -5 -10 8 -14 9 -10 2 5 -7 -1 -16 -12 -22 -26 -15 -31 -14 -25 4 4 8
11 12 17 8 6 -4 7 -1 1 8 -15 24 -14 41 2 35 8 -3 13 -2 10 3 -3 4 15 25 39
46 24 21 41 43 38 48 -3 6 -1 7 6 3 6 -4 19 -2 28 6 14 11 16 11 9 -2 -6 -12
-5 -12 6 1 8 9 28 15 50 14 31 0 35 2 25 14 -10 12 -9 13 11 2 14 -7 22 -8 22
-1 0 5 7 10 15 10 8 0 15 5 15 11 0 8 4 8 14 0 12 -10 13 -8 9 10 -5 17 -3 20
7 14 9 -6 11 -4 5 4 -8 15 27 51 49 51 8 0 18 5 21 10 4 6 12 7 23 1 10 -6 23
-5 35 3 15 8 21 8 24 -1 3 -7 9 -13 14 -13 6 0 8 4 4 10 -3 5 7 3 21 -5 15 -8
31 -12 36 -9 4 3 8 1 8 -5 0 -5 -6 -12 -12 -14 -7 -3 2 -3 21 0 27 5 32 3 26
-7 -5 -9 -4 -11 3 -6 7 4 12 15 12 24 0 10 3 13 8 7 4 -5 21 -10 39 -11 26 0
30 3 21 13 -9 11 -6 12 15 4 14 -6 35 -8 46 -6 12 2 21 -1 21 -7 0 -6 7 -5 17
3 9 8 14 10 11 4 -3 -5 0 -16 8 -23 11 -10 14 -10 15 0 0 7 5 2 10 -11 8 -20
11 -22 26 -10 12 11 17 11 20 2 2 -7 10 -10 17 -7 8 3 20 -2 29 -10 8 -8 21
-17 28 -18 8 -2 20 -11 27 -20 7 -10 18 -18 24 -18 7 0 3 7 -8 16 -18 14 -18
15 4 4 13 -6 26 -18 29 -26 3 -8 9 -14 15 -14 5 0 6 5 2 12 -4 7 -3 8 4 4 6
-4 9 -13 5 -21 -3 -10 1 -15 12 -15 10 0 13 4 9 13 -5 8 -3 8 9 -2 9 -7 14
-18 10 -24 -4 -6 0 -8 10 -4 15 6 42 -15 32 -25 -3 -3 6 -3 20 0 18 3 34 -3
53 -19 14 -13 20 -16 13 -7 -20 26 4 22 29 -4 16 -17 20 -19 15 -5 -6 13 -3
16 9 11 9 -3 16 -10 16 -16 0 -5 5 -6 10 -3 6 3 10 2 10 -3 0 -10 65 -9 96 1
17 6 21 15 20 46 -1 38 -1 38 36 37 29 -1 45 -9 67 -33 19 -22 36 -31 50 -28
25 5 39 -14 20 -26 -11 -7 -10 -9 4 -9 10 0 15 -4 12 -10 -4 -6 1 -7 11 -3 11
4 15 3 10 -5 -3 -6 -1 -14 5 -18 8 -4 9 -3 5 4 -5 8 2 12 18 12 18 0 26 -5 26
-17 0 -15 2 -14 16 3 8 10 13 13 9 7 -4 -8 0 -13 10 -13 8 0 18 -7 22 -16 3
-8 11 -13 19 -10 7 3 14 0 16 -5 2 -5 13 -11 26 -12 12 0 22 -7 22 -14 0 -8 7
-16 15 -19 8 -4 12 -10 9 -15 -3 -5 -1 -9 4 -9 5 0 8 -14 6 -31 -2 -16 0 -28
5 -24 5 3 7 -4 4 -15 -3 -11 -8 -18 -12 -15 -4 2 -7 -6 -6 -18 3 -25 -21 -77
-35 -77 -5 0 -6 -7 -3 -17 5 -12 3 -14 -7 -8 -10 6 -12 4 -7 -8 3 -10 2 -17
-3 -17 -6 0 -10 -7 -10 -16 0 -8 -5 -12 -10 -9 -6 4 -10 3 -9 -2 5 -29 -2 -53
-13 -47 -10 6 -10 4 0 -8 7 -9 9 -19 4 -22 -5 -3 -8 -21 -7 -41 1 -19 -3 -35
-8 -35 -6 0 -7 -3 -4 -6 4 -4 -2 -19 -13 -34 -11 -16 -20 -33 -20 -39 0 -5 -6
-14 -13 -18 -7 -4 -21 -19 -31 -33 -13 -17 -16 -19 -12 -6 6 17 5 17 -10 5
-10 -8 -19 -13 -20 -12 -8 5 -64 -20 -59 -26 2 -4 -9 -18 -26 -30 -17 -13 -28
-29 -25 -36 3 -9 -2 -11 -15 -8 -11 3 -19 1 -17 -5 2 -5 0 -9 -3 -8 -14 3 -39
-28 -34 -42 4 -12 3 -12 -9 -3 -11 9 -15 8 -20 -4 -4 -11 -2 -14 7 -9 6 4 -1
-5 -16 -19 -16 -15 -25 -32 -21 -39 4 -7 3 -8 -4 -4 -7 4 -12 1 -12 -9 0 -18
-28 -17 -48 3 -8 7 -18 9 -24 6 -7 -4 -8 -2 -4 4 4 8 0 12 -11 12 -14 0 -15 2
-5 9 10 6 9 10 -7 14 -12 3 -24 0 -28 -5 -4 -7 -1 -8 7 -3 8 5 11 4 7 -3 -4
-5 -17 -8 -29 -4 -13 3 -19 1 -15 -5 4 -6 -6 -9 -24 -8 -23 1 -29 -2 -24 -13
4 -12 3 -13 -10 -2 -11 9 -15 9 -15 1 0 -7 -4 -9 -10 -6 -5 3 -10 -1 -10 -11
0 -13 -3 -14 -15 -4 -12 10 -13 8 -10 -10 2 -13 2 -20 -2 -16 -3 3 -13 0 -21
-7 -13 -9 -14 -9 -8 1 4 6 3 12 -3 12 -5 0 -11 -5 -13 -11 -3 -9 -11 -8 -28 1
-23 12 -24 12 -11 -4 12 -14 12 -16 -3 -10 -9 3 -16 12 -16 20 0 17 -12 18
-29 1 -10 -10 -12 -9 -9 2 2 7 -3 16 -11 19 -8 2 -11 1 -8 -4 3 -5 -13 -8 -34
-8 -35 2 -39 0 -33 -18 5 -17 4 -18 -14 -7 -12 7 -18 17 -15 23 4 5 1 6 -8 0
-20 -12 -39 -14 -39 -3 0 5 5 9 10 9 6 0 10 6 10 13 -1 6 -10 1 -20 -12 -11
-13 -20 -18 -20 -12 0 7 -5 9 -10 6 -6 -4 -8 -11 -5 -16 4 -5 -5 -5 -21 1 -23
9 -26 8 -20 -7 3 -10 -7 -4 -23 14 -16 17 -33 28 -37 25 -5 -4 -2 2 6 13 24
32 34 36 48 18 11 -15 12 -15 13 3 0 11 3 14 6 6 4 -10 8 -10 21 0 9 8 13 8 9
2 -4 -7 0 -15 9 -18 8 -3 13 -2 9 3 -9 16 19 19 41 4 18 -11 21 -11 22 2 1 8
3 22 4 30 1 10 5 12 13 5 7 -5 16 -6 20 -2 5 4 5 -1 2 -10 -3 -10 -2 -20 3
-23 4 -3 7 6 5 20 -1 14 2 28 6 31 5 3 9 0 9 -7 0 -7 3 -10 6 -6 17 17 -10 27
-29 10 -18 -15 -18 -13 2 9 13 15 29 25 35 21 6 -3 5 0 -1 8 -16 16 -17 33 -1
23 7 -4 8 -3 4 5 -4 6 -12 9 -17 6 -5 -4 -9 -1 -9 5 0 7 -6 10 -12 8 -7 -3
-13 -10 -13 -15 0 -6 -4 -15 -9 -20 -5 -5 -6 -3 -2 5 8 13 -6 17 -18 5 -12
-13 -38 -12 -33 1 5 14 -20 15 -41 2 -8 -5 -12 -1 -12 11 0 15 -2 16 -10 3 -8
-12 -10 -12 -11 5 0 11 -3 14 -6 8 -2 -7 -9 -13 -14 -13 -6 0 -7 6 -3 13 6 8
3 8 -9 -1 -9 -8 -22 -10 -28 -6 -8 4 -9 3 -5 -4 4 -7 2 -12 -3 -12 -6 0 -11 6
-11 13 -1 7 -7 4 -15 -7 -8 -10 -12 -23 -8 -29 3 -6 1 -7 -6 -3 -6 4 -8 13 -4
19 4 7 0 7 -10 -1 -9 -8 -20 -11 -26 -8 -5 3 -11 1 -13 -5 -3 -8 -11 -5 -23 7
-22 23 -85 27 -77 5 4 -10 1 -13 -11 -8 -10 4 -18 0 -22 -13 -3 -10 -13 -21
-22 -24 -14 -6 -14 -4 -2 11 8 10 -5 2 -28 -17 -24 -19 -43 -41 -43 -49 0 -8
-3 -11 -7 -8 -3 4 -16 -5 -29 -18 -13 -14 -27 -25 -32 -25 -5 0 -16 -8 -23
-17 -12 -15 -12 -16 1 -8 12 6 13 6 2 -6 -11 -11 -14 -12 -21 -1 -6 10 -10 8
-14 -9 -4 -13 -9 -20 -13 -17 -3 4 -16 -4 -29 -18 -16 -18 -25 -21 -28 -12 -4
10 -6 10 -6 1 -1 -7 -8 -13 -16 -13 -9 0 -18 -7 -21 -15 -4 -8 -12 -15 -20
-15 -8 0 -14 -4 -14 -10 0 -5 -7 -10 -15 -10 -8 0 -15 -5 -15 -11 0 -5 -4 -7
-10 -4 -5 3 -10 -1 -10 -10 0 -9 -4 -13 -10 -10 -5 3 -10 2 -10 -2 0 -5 -24
-22 -52 -37 -29 -16 -55 -32 -58 -35 -3 -4 -22 -17 -42 -30 -21 -12 -38 -26
-38 -29 0 -4 -16 -18 -35 -31 -19 -13 -32 -28 -28 -34 3 -6 1 -7 -6 -3 -8 5
-9 12 -2 19 17 21 -11 35 -43 22 -20 -8 -25 -14 -15 -18 10 -4 9 -6 -3 -6 -18
-1 -21 -8 -20 -46 2 -44 7 -65 15 -65 5 0 7 -7 4 -15 -4 -8 -2 -17 4 -20 5 -4
7 -11 4 -16 -4 -5 -2 -9 3 -9 5 0 9 -10 8 -23 -1 -12 7 -31 16 -41 14 -15 15
-22 6 -28 -10 -5 -8 -8 4 -8 9 0 20 -9 23 -20 4 -11 11 -18 16 -15 5 4 12 -1
15 -10 6 -14 8 -14 20 2 7 10 14 14 14 9 0 -5 8 -2 17 5 15 12 16 12 8 -1 -8
-13 -7 -13 9 -1 15 13 19 13 27 0 5 -8 9 -9 9 -3 0 7 7 15 16 18 8 3 13 2 10
-2 -2 -4 13 -8 35 -7 21 0 39 3 39 8 0 4 5 7 11 7 5 0 7 -6 4 -13 -4 -6 0 -4
7 5 8 9 32 18 54 20 21 2 45 10 52 18 12 13 13 13 7 0 -4 -8 1 -6 9 4 9 11 16
17 16 13 0 -4 9 -3 20 3 11 6 20 16 20 23 0 7 -9 13 -20 13 -25 0 -26 -13 -2
-18 15 -3 15 -4 1 -10 -11 -4 -20 1 -28 18 -8 17 -7 23 1 21 16 -3 17 44 1 50
-7 3 -10 10 -6 16 4 6 1 7 -7 2 -8 -5 -11 -4 -7 1 11 19 62 9 62 -12 1 -10 -4
-22 -9 -26 -13 -9 -16 -38 -4 -38 6 0 8 6 5 14 -3 8 1 17 9 20 8 3 14 9 13 13
-4 26 2 37 12 20 6 -9 14 -15 18 -13 4 3 8 -1 8 -9 0 -10 -4 -12 -12 -5 -14
11 -33 -6 -29 -27 1 -7 2 -17 3 -22 0 -5 8 -12 17 -15 11 -4 15 -2 11 7 -3 8
3 13 14 13 22 0 25 -11 7 -20 -7 -4 -3 -4 10 -2 12 2 20 0 17 -4 -3 -5 -1 -12
5 -15 6 -4 10 -3 9 2 -3 20 2 27 11 13 8 -13 10 -13 10 1 0 16 33 20 47 4 5
-4 2 -5 -6 0 -10 5 -12 4 -7 -4 5 -8 13 -7 28 3 11 8 27 12 36 9 12 -5 14 -2
9 12 -6 15 -5 16 8 5 8 -7 15 -8 15 -2 0 5 7 13 16 16 11 4 15 2 11 -6 -3 -8
4 -13 18 -13 13 0 21 4 18 9 -7 11 40 -4 48 -15 3 -5 17 -8 32 -7 17 2 23 6
17 13 -6 7 -2 11 10 11 10 0 17 -4 14 -7 -2 -4 0 -10 6 -14 5 -3 10 1 10 9 0
9 5 16 11 16 5 0 8 -4 5 -8 -2 -4 4 -8 14 -8 13 0 16 4 9 12 -6 8 -1 11 19 10
19 -1 27 -6 26 -19 -2 -15 8 -21 28 -18 4 0 4 -7 1 -16 -4 -11 -8 -13 -11 -5
-6 19 -22 14 -22 -8 0 -14 5 -18 16 -13 9 3 20 0 24 -7 7 -11 11 -11 24 -1 9
7 27 11 41 9 18 -4 25 -1 26 11 0 12 2 11 9 -4 5 -11 9 -14 9 -7 1 10 6 10 21
2 16 -9 20 -8 21 7 0 16 1 16 9 -2 5 -11 9 -14 9 -7 1 9 9 7 27 -7 21 -16 30
-18 40 -10 13 11 18 5 15 -14 -1 -5 3 -6 9 -2 6 3 8 11 4 16 -3 6 2 9 12 7 10
-2 19 3 20 10 1 6 2 17 3 22 0 6 6 10 12 10 8 0 8 -5 -1 -15 -10 -12 -10 -15
0 -15 10 0 10 -3 1 -14 -15 -17 -1 -28 19 -15 19 11 33 12 26 0 -6 -9 2 -9 42
4 25 8 27 16 10 33 -9 9 -9 12 0 12 7 0 12 -5 12 -11 0 -6 5 -7 13 -2 20 12
37 12 38 0 0 -7 4 -3 8 7 7 19 61 33 61 15 0 -5 5 -9 11 -9 5 0 8 3 6 8 -3 4
6 8 19 8 14 1 21 -2 18 -8 -4 -6 6 -2 22 8 22 14 27 15 19 3 -5 -8 -2 -6 8 4
9 11 17 14 17 8 0 -7 5 -9 10 -6 6 3 10 1 10 -4 0 -6 5 -11 11 -11 5 0 7 5 4
10 -6 10 3 13 38 13 12 0 14 3 8 11 -7 9 -3 12 17 11 15 0 33 6 39 15 11 13
14 13 23 0 8 -13 10 -13 10 1 0 9 7 16 15 17 8 1 21 3 29 4 8 1 12 7 9 13 -5
14 51 37 63 27 5 -4 3 0 -4 9 -9 12 -9 16 1 17 39 3 92 33 80 45 -3 4 -1 7 7
7 10 0 10 3 0 15 -11 13 -10 14 3 9 19 -7 60 32 50 49 -4 7 0 6 11 -2 9 -8 16
-10 15 -5 -4 23 2 45 11 39 6 -3 10 1 10 9 0 9 5 16 11 16 5 0 8 4 4 9 -3 6 1
13 9 18 8 4 16 13 18 18 2 6 6 9 10 8 4 -2 5 3 3 10 -3 6 8 28 25 47 17 19 28
41 25 48 -3 10 0 10 16 1 19 -10 20 -9 9 10 -6 12 -7 21 -3 20 17 -3 33 1 32
9 -3 19 2 33 11 27 5 -3 12 6 16 20 3 13 9 23 13 21 4 -3 13 9 20 25 9 21 18
28 29 24 11 -4 12 -2 4 7 -11 14 10 43 22 30 4 -3 4 1 0 11 -3 10 -1 17 5 17
6 0 11 8 11 18 0 19 35 54 44 45 3 -3 3 4 1 17 -3 15 0 20 9 17 8 -3 21 13 34
44 12 27 27 49 33 49 8 0 7 6 -2 17 -8 9 -9 14 -4 11 6 -3 16 0 23 8 12 13 8
18 -11 15 -5 -1 -6 3 -3 8 3 5 15 7 25 4 13 -3 23 3 32 19 17 32 21 70 6 62
-7 -3 -4 1 7 10 10 8 15 20 10 27 -4 8 -3 10 4 5 7 -4 12 0 12 10 0 9 8 23 18
30 14 12 15 13 1 8 -10 -3 -19 -2 -22 3 -3 4 6 9 19 9 13 1 24 -2 24 -7 0 -5
6 -8 13 -7 6 2 11 -5 11 -14 -1 -14 2 -15 16 -8 19 10 40 -5 40 -28 0 -12 3
-12 16 -2 8 8 14 9 13 4 -5 -26 1 -39 11 -24 10 15 15 4 11 -22 0 -4 6 -5 14
-2 8 4 15 1 15 -6 0 -7 9 -9 23 -6 12 3 17 3 10 0 -9 -4 -9 -9 -2 -17 5 -7 16
-21 24 -32 l15 -20 -6 20 c-3 11 3 5 15 -13 12 -18 26 -30 31 -27 6 3 7 -1 4
-9 -6 -16 4 -20 36 -17 13 2 13 1 0 -9 -11 -8 -12 -13 -3 -16 7 -3 9 -12 6
-21 -4 -11 -2 -14 5 -9 7 4 12 2 12 -5 0 -7 3 -10 6 -7 8 9 64 -49 64 -65 0
-8 10 -22 23 -31 12 -9 16 -14 10 -11 -8 4 -11 1 -7 -9 3 -9 12 -16 20 -16 17
0 19 -20 2 -20 -7 0 -5 -5 5 -11 9 -6 15 -14 12 -20 -4 -5 -1 -9 5 -9 7 0 9
-7 6 -15 -3 -9 1 -18 9 -21 8 -4 12 -10 9 -15 -3 -5 -1 -9 5 -9 5 0 12 6 14
13 4 9 6 9 6 0 1 -6 -3 -15 -9 -18 -5 -3 -10 -11 -10 -16 0 -6 4 -7 10 -4 6 4
8 -10 6 -35 -2 -22 1 -40 5 -40 5 0 9 -8 9 -18 0 -10 5 -23 12 -30 9 -9 9 -12
-2 -12 -11 -1 -10 -5 4 -15 11 -8 17 -15 13 -15 -3 0 -1 -13 4 -30 6 -16 14
-28 18 -25 5 2 14 -14 21 -35 7 -22 17 -40 22 -40 5 0 7 -4 4 -9 -3 -4 3 -19
14 -31 19 -22 24 -35 21 -52 0 -5 3 -8 9 -8 5 0 10 -5 10 -10 0 -19 37 -52 45
-41 3 6 10 9 15 6 5 -3 7 6 4 20 -2 14 0 25 6 25 6 0 9 -4 5 -9 -3 -6 3 -9 14
-8 14 1 17 5 10 13 -7 8 -6 13 1 16 5 1 12 14 15 27 2 13 7 26 10 29 2 3 -1
12 -7 20 -16 19 -19 44 -5 35 7 -4 6 1 -2 10 -7 9 -17 14 -22 11 -5 -3 -9 0
-9 5 0 6 5 11 10 11 6 0 10 5 10 12 0 6 -3 8 -7 4 -4 -4 -14 8 -23 26 -9 19
-22 32 -31 30 -11 -3 -12 -1 -1 9 14 15 16 33 2 24 -16 -10 -12 5 7 23 16 16
16 16 10 0 -3 -10 -2 -20 3 -23 4 -3 10 -1 12 5 2 6 9 1 16 -11 8 -12 9 -19 4
-15 -5 3 -9 -1 -9 -9 0 -8 3 -13 5 -10 3 3 12 -1 20 -8 13 -10 14 -9 8 1 -4 7
-1 15 8 18 9 3 13 11 9 18 -4 6 2 4 12 -4 17 -14 18 -13 13 13 -4 22 -3 25 9
16 11 -10 12 -8 7 6 -5 12 -4 16 3 12 6 -4 16 0 23 8 7 8 16 13 20 10 4 -2 5
7 2 20 -2 14 -9 22 -14 19 -6 -4 -5 3 1 14 14 25 14 43 1 22 -7 -11 -10 -11
-10 -2 0 8 -5 10 -12 6 -8 -5 -9 -2 -5 10 4 9 3 15 -2 12 -8 -5 -39 23 -33 31
1 1 2 4 1 6 -8 25 -6 38 4 28 17 -17 31 -13 17 4 -11 13 -10 14 5 9 11 -5 16
-4 12 3 -4 5 1 19 9 29 14 17 15 17 10 1 -3 -10 -2 -15 4 -12 16 10 50 -17 39
-32 -8 -9 -5 -11 12 -8 17 3 20 2 11 -7 -8 -8 -5 -17 15 -35 21 -20 28 -22 35
-11 8 10 9 9 4 -4 -3 -10 -1 -20 5 -23 5 -4 8 -1 7 6 -2 6 3 14 11 17 8 3 11
0 7 -7 -5 -7 1 -10 16 -7 15 2 22 9 20 20 -2 9 3 16 9 16 7 0 5 8 -6 20 -12
14 -22 17 -30 10 -9 -7 -12 -3 -11 15 1 14 11 31 21 39 20 15 20 15 -2 11 -16
-3 -20 0 -16 11 3 8 2 14 -3 13 -22 -4 -34 2 -34 17 0 8 -3 13 -8 10 -4 -2
-12 7 -19 20 -8 17 -8 24 0 24 6 0 7 3 4 6 -4 4 -13 1 -21 -5 -13 -11 -15 -9
-11 9 2 12 -2 23 -10 27 -8 3 -12 10 -8 16 3 6 1 7 -6 3 -6 -4 -14 -1 -17 8
-3 8 -14 13 -26 11 -11 -3 -18 -2 -15 2 3 3 -1 12 -9 20 -8 8 -11 20 -7 26 4
7 -1 6 -10 -2 -15 -11 -17 -11 -17 2 0 19 -27 30 -34 14 -3 -7 -3 -2 0 11 4
16 1 22 -11 22 -9 0 -13 5 -10 10 3 6 -1 10 -9 10 -9 0 -16 5 -16 11 0 5 -4 7
-10 4 -6 -4 -7 1 -3 12 3 10 3 15 -1 11 -5 -4 -18 4 -30 16 -11 13 -31 28 -44
35 -14 7 -21 18 -18 27 3 8 0 13 -7 11 -7 -1 -10 5 -9 13 2 8 0 12 -3 8 -10
-10 -75 58 -76 80 0 14 -2 14 -9 -3 -8 -19 -9 -19 -9 2 -1 12 -9 24 -21 28
-11 3 -20 13 -20 21 0 8 -4 14 -8 14 -16 0 -52 37 -44 45 4 5 2 5 -5 1 -13 -7
-63 38 -63 57 0 7 -4 6 -10 -3 -8 -13 -10 -12 -10 3 0 10 -5 15 -10 12 -5 -3
-10 1 -10 9 0 10 -7 13 -21 11 -15 -3 -19 0 -15 11 3 9 2 12 -4 9 -6 -3 -13 1
-16 9 -3 9 -10 13 -15 10 -5 -3 -9 2 -9 10 0 10 -6 13 -17 9 -11 -4 -14 -3 -9
5 4 7 1 12 -8 12 -8 0 -20 8 -25 18 -6 9 -11 14 -11 10 0 -12 -85 75 -93 95
-4 11 -3 16 3 12 6 -4 6 4 -1 18 -8 18 -8 30 0 46 9 16 9 21 -1 21 -9 0 -9 3
2 10 8 5 11 10 6 10 -5 0 -2 8 5 17 8 10 9 14 2 10 -8 -5 -11 0 -10 13 1 11 5
20 10 20 4 0 5 5 2 10 -3 6 -3 10 2 10 10 0 10 61 0 77 -4 6 -2 15 4 19 8 5 9
3 4 -6 -5 -9 -4 -11 4 -6 7 5 9 12 3 19 -5 7 -10 29 -11 51 -3 52 -4 60 -16
68 -6 5 -5 8 4 8 9 0 10 4 4 13 -5 6 -10 23 -11 36 0 13 -7 28 -14 32 -10 7
-10 9 0 9 19 0 14 38 -5 43 -17 4 -17 5 -1 6 14 1 16 6 8 25 -5 15 -5 27 3 35
8 8 8 11 -2 11 -7 0 -11 6 -8 13 2 6 0 25 -4 40 -7 26 -6 27 8 15 15 -12 15
-11 3 9 -8 12 -19 19 -25 15 -6 -3 -6 0 1 9 13 16 15 52 3 59 -4 3 -9 22 -11
43 -1 20 -5 37 -9 37 -4 0 -7 17 -7 37 0 21 -5 39 -11 41 -9 3 -9 8 -1 17 8 9
6 14 -5 19 -9 3 -13 10 -10 16 3 5 1 10 -4 10 -6 0 -11 5 -11 11 0 5 6 7 13 4
6 -4 3 1 -7 9 -11 9 -14 16 -7 16 7 0 9 5 6 10 -4 6 -11 8 -16 5 -5 -3 -6 2
-2 11 4 10 0 22 -11 29 -9 7 -16 17 -15 21 4 21 -2 35 -11 29 -5 -3 -10 -2
-10 4 0 5 6 12 13 14 9 4 9 6 0 6 -7 1 -13 6 -13 12 0 5 5 7 11 3 6 -3 3 5 -6
19 -9 15 -14 31 -10 37 3 5 1 10 -4 10 -6 0 -11 9 -11 20 0 11 -4 20 -10 20
-5 0 -10 8 -10 18 0 14 -2 15 -10 2 -8 -12 -10 -9 -10 13 0 20 -4 26 -12 21
-9 -5 -9 -2 1 9 9 11 10 17 2 17 -6 0 -11 7 -11 15 0 8 -5 15 -11 15 -5 0 -8
4 -5 9 6 9 -38 72 -59 84 -9 4 -13 12 -10 18 4 5 2 9 -3 9 -4 0 -16 16 -25 35
-9 20 -24 38 -32 41 -8 4 -15 13 -15 20 0 8 -7 17 -15 20 -8 4 -12 10 -9 15 3
5 0 9 -5 9 -6 0 -11 7 -11 16 0 8 -4 12 -10 9 -5 -3 -10 1 -10 10 0 9 -19 34
-42 55 -23 22 -37 40 -32 40 5 0 1 5 -8 11 -10 5 -18 14 -18 19 0 10 -13 27
-62 79 -15 16 -24 32 -20 37 4 4 2 4 -4 1 -7 -4 -19 4 -28 18 -18 27 -77 86
-149 150 -25 22 -43 44 -40 49 4 5 1 6 -5 2 -6 -3 -17 1 -25 9 -9 8 -18 15
-22 15 -4 0 -12 6 -19 13 -7 6 -25 21 -40 32 -15 11 -41 32 -58 47 -17 15 -35
25 -40 22 -5 -3 -7 0 -6 8 2 7 -3 12 -9 11 -7 -2 -13 5 -14 15 0 9 -3 12 -6 5
-3 -10 -7 -10 -18 0 -7 7 -11 15 -8 20 4 6 -12 11 -29 8 -5 0 -8 6 -8 14 0 8
-4 15 -8 15 -13 0 -91 78 -84 84 3 3 1 6 -5 6 -18 0 -74 60 -67 72 4 7 3 8 -5
4 -6 -4 -14 0 -17 8 -3 9 -9 14 -13 12 -3 -2 -17 11 -31 30 -14 18 -33 36 -42
39 -10 4 -18 10 -18 16 0 10 -24 41 -54 70 -11 11 -16 19 -12 19 4 0 -16 23
-44 50 -28 28 -55 50 -60 50 -6 0 -10 7 -10 17 0 9 -3 14 -6 11 -7 -8 -54 36
-54 51 0 7 -5 9 -12 5 -8 -5 -9 -2 -4 11 5 15 4 16 -9 5 -9 -7 -15 -9 -13 -4
2 5 -2 11 -7 13 -19 9 -33 26 -27 35 3 5 1 6 -5 3 -6 -4 -22 7 -37 23 -14 17
-31 30 -37 30 -5 0 -9 3 -7 8 5 8 -49 62 -56 55 -2 -2 -7 5 -11 16 -3 11 -23
29 -43 38 -48 23 -72 44 -72 63 0 13 -1 13 -10 0 -8 -13 -10 -12 -10 3 0 9 -4
17 -10 17 -5 0 -10 7 -10 15 0 8 -5 15 -11 15 -5 0 -8 4 -5 9 3 5 -4 11 -15
14 -12 3 -18 10 -14 16 3 6 0 11 -8 11 -8 0 -20 6 -27 14 -6 8 -18 12 -26 9
-8 -3 -14 0 -14 6 0 6 -9 11 -19 11 -11 0 -32 5 -48 12 -15 6 -38 10 -50 9
-13 -1 -23 1 -23 6 0 13 -89 18 -172 10 -21 -2 -38 1 -38 6 0 6 -3 7 -7 4 -3
-4 -13 -1 -21 6 -13 10 -14 9 -8 -1 6 -10 2 -13 -15 -10 -13 2 -24 -1 -25 -7
-2 -20 -16 -45 -26 -45 -6 0 -4 7 3 16 12 15 11 16 -9 10 -14 -5 -22 -3 -22 4
0 6 5 8 10 5 6 -3 10 -1 10 4 0 14 -23 14 -37 0 -9 -9 -10 -6 -6 11 4 16 3 21
-5 16 -7 -4 -12 -2 -12 4 0 6 -4 9 -9 6 -5 -4 -11 -2 -13 3 -1 5 -10 11 -18
13 -8 2 -23 14 -32 28 -12 16 -18 20 -18 10 -1 -12 -3 -11 -11 3 -6 9 -14 15
-20 12 -5 -4 -9 -2 -9 3 0 12 -69 32 -75 21 -3 -4 -12 -6 -21 -2 -15 5 -135
-111 -131 -127 1 -5 -7 -15 -17 -23 -15 -11 -16 -16 -6 -22 9 -5 11 -4 6 3 -4
7 -4 12 1 13 4 0 19 2 33 4 14 2 19 1 12 -1 -6 -3 -9 -11 -5 -17 4 -7 -1 -6
-10 2 -13 10 -17 11 -17 1 0 -7 8 -19 18 -26 10 -8 1 -7 -25 4 -22 9 -39 20
-36 24 2 5 -1 8 -6 8 -6 0 -11 -5 -11 -11 0 -7 -4 -8 -12 -2 -7 5 -25 9 -40 8
-16 0 -28 2 -28 6 0 4 -15 11 -32 15 -18 4 -36 9 -40 10 -5 1 -17 2 -29 3 -13
1 -18 5 -13 14 5 8 2 8 -9 -2 -9 -7 -17 -9 -17 -4 0 14 -53 41 -70 36 -13 -5
-13 -4 0 8 8 8 14 13 12 12 -2 -1 -15 10 -29 25 -14 15 -29 26 -34 24 -5 -1
-12 5 -15 13 -5 12 -9 13 -21 4 -11 -10 -13 -10 -11 1 3 16 -33 20 -44 5 -4
-6 -8 -2 -8 8 0 10 -8 17 -20 17 -11 0 -20 5 -20 11 0 8 -4 8 -14 0 -9 -8 -15
-8 -18 -1 -1 5 -13 12 -26 15 -12 2 -28 7 -35 12 -13 8 -21 10 -77 17 -19 2
-44 8 -54 12 -15 6 -17 4 -11 -7 7 -11 6 -12 -7 -2 -8 7 -18 10 -21 6 -4 -3
-7 -2 -7 4 0 6 -9 9 -22 5 -14 -3 -19 -2 -14 6 5 8 0 12 -13 12 -29 0 -26 23
9 60 16 17 29 35 28 38 -4 14 26 58 65 97 45 44 56 103 27 138 -17 20 -35 23
-24 5 4 -7 4 -10 -1 -6 -4 4 -15 2 -23 -5 -13 -10 -14 -9 -7 3 5 8 10 21 12
29 1 8 8 18 15 22 7 5 9 9 4 9 -5 0 -3 6 3 13 6 8 7 17 3 21 -7 8 -9 14 -11
47 -1 13 -6 19 -14 16 -8 -3 -14 1 -14 9 0 7 4 11 9 8 19 -12 31 9 13 23 -11
7 -13 13 -6 13 9 0 8 5 -3 16 -9 8 -14 19 -11 24 3 4 -2 11 -11 14 -8 3 -12 2
-9 -4 3 -6 2 -10 -3 -10 -6 0 -13 11 -16 25 -4 14 -14 25 -22 25 -11 0 -15 6
-11 19 4 15 0 19 -15 16 -16 -4 -18 -2 -8 10 10 12 9 15 -4 15 -10 0 -15 4
-11 9 3 6 -1 13 -8 18 -22 13 -29 43 -9 36 11 -3 9 0 -5 11 -13 10 -20 23 -17
31 4 8 1 15 -6 15 -6 0 -8 5 -4 12 4 7 3 8 -5 4 -6 -4 -9 -11 -7 -15 3 -4 -1
-8 -9 -8 -10 0 -11 5 -4 18 7 14 4 21 -12 33 -13 9 -18 19 -14 27 5 8 4 10 -3
5 -7 -4 -22 2 -34 13 -12 12 -18 21 -12 21 5 0 -6 10 -23 21 -19 12 -33 29
-33 41 0 14 -5 18 -16 14 -12 -4 -15 -2 -10 9 3 8 1 15 -5 15 -6 0 -9 6 -6 14
3 8 -1 13 -11 12 -9 0 -21 9 -27 21 -7 13 -15 20 -20 15 -4 -4 -2 4 5 18 12
22 11 23 -2 13 -12 -10 -15 -10 -15 2 0 8 6 15 13 15 7 0 16 4 19 10 4 6 -1 7
-12 3 -16 -6 -17 -5 -3 12 9 11 10 16 3 11 -9 -5 -13 -1 -13 13 0 11 4 23 10
26 6 3 7 -1 4 -9 -3 -9 -2 -16 3 -16 14 0 7 108 -8 127 -8 10 -9 14 -2 10 18
-11 -17 53 -46 83 -32 33 -114 75 -119 60 -2 -5 -8 -8 -13 -4 -5 3 -9 1 -9 -5
0 -10 -18 -10 -36 2 -6 3 -14 3 -18 0 -3 -4 -23 -8 -43 -10 -19 -1 -42 -8 -50
-14 -11 -10 -12 -8 -6 7 6 17 5 17 -10 5 -11 -9 -17 -10 -17 -2 0 6 -5 11 -10
11 -6 0 -22 12 -36 28 -20 22 -23 23 -19 7 3 -11 -1 -6 -10 10 -9 17 -27 35
-41 42 -18 8 -22 8 -17 0 4 -7 -1 -6 -11 2 -13 11 -14 16 -4 22 8 5 0 7 -19 5
-22 -3 -33 0 -37 11 -5 12 -9 13 -21 3 -13 -11 -14 -10 -10 3 4 8 1 18 -6 23
-8 4 -10 3 -5 -4 10 -16 -9 -15 -26 1 -7 7 -20 12 -28 12 -8 0 -23 8 -32 19
-10 10 -18 16 -18 12 0 -3 -17 2 -37 12 -39 20 -92 37 -105 34 -5 -1 -8 3 -8
8 0 6 -9 10 -20 10 -11 0 -20 5 -20 10 0 6 -3 9 -7 8 -5 -1 -19 4 -33 12 -14
7 -27 14 -30 14 -3 1 -4 3 -3 6 1 3 -13 6 -30 6 -18 1 -49 6 -69 12 -24 6 -38
6 -38 0 0 -5 -7 -3 -15 5 -8 9 -23 14 -32 12 -63 -13 -83 -14 -78 -5 3 6 4 10
1 10 -3 0 -8 -5 -11 -10z m2515 -2091 c0 -6 7 -9 15 -5 8 3 15 1 15 -5 0 -6 5
-7 10 -4 16 10 11 -1 -7 -16 -11 -10 -14 -10 -9 -1 4 7 1 12 -8 12 -10 0 -13
-6 -9 -16 3 -9 13 -14 24 -11 10 3 17 0 16 -6 -1 -6 5 -11 13 -12 16 -1 15
-26 -1 -36 -9 -5 16 -21 51 -32 9 -3 6 -6 -8 -6 -13 -1 -21 -5 -17 -10 6 -11
45 -10 45 1 0 4 5 8 11 8 5 0 8 -4 4 -9 -10 -17 12 -21 26 -5 7 8 8 14 3 13
-20 -3 -28 2 -15 10 10 7 8 9 -10 9 -53 0 -86 20 -60 37 7 4 8 -1 4 -12 -6
-17 -6 -17 14 0 14 12 23 15 28 7 3 -5 11 -7 17 -4 7 4 8 2 4 -4 -4 -7 -1 -12
8 -12 14 0 21 -18 17 -42 0 -5 5 -8 12 -8 8 0 7 -4 -3 -10 -8 -5 -13 -10 -10
-11 3 0 14 -2 25 -4 10 -2 25 1 32 7 9 7 13 7 13 -2 0 -9 3 -10 14 -1 10 8 16
8 23 -1 14 -19 10 -34 -15 -63 -23 -26 -54 -26 -31 1 6 7 15 11 20 8 5 -3 9 1
9 9 0 25 -12 27 -32 4 -11 -12 -17 -16 -13 -9 3 6 1 12 -4 12 -6 0 -21 11 -33
25 -11 13 -25 22 -30 19 -5 -3 -1 -12 8 -18 13 -10 14 -15 4 -21 -9 -6 -11 -4
-5 5 6 10 4 12 -9 7 -9 -4 -15 -3 -13 1 6 9 -13 26 -33 30 -19 4 -35 20 -35
34 0 6 -6 13 -14 16 -8 3 -11 0 -7 -7 5 -7 1 -9 -9 -4 -13 5 -14 7 -3 14 7 5
10 9 6 10 -5 1 -12 3 -18 4 -5 1 -13 3 -17 4 -3 0 2 10 12 21 20 22 12 26 -40
22 -15 -2 -17 0 -6 7 9 6 10 10 2 16 -9 5 -9 10 -1 20 8 10 7 14 -2 18 -8 4
-7 6 5 6 9 1 17 -4 17 -10z m603 -502 c-4 -6 1 -8 11 -4 14 6 17 3 12 -8 -3
-9 -2 -13 4 -10 15 9 54 15 46 7 -4 -4 -13 -7 -18 -7 -6 0 -13 -6 -16 -14 -3
-8 0 -11 7 -7 6 4 15 -3 20 -17 6 -14 16 -29 23 -33 9 -5 8 -2 -2 11 -14 17
-14 18 6 7 12 -6 23 -9 26 -7 3 3 5 -2 5 -10 0 -8 -4 -12 -9 -9 -4 3 -8 -2 -8
-11 0 -9 -4 -13 -10 -10 -6 4 -7 -1 -4 -12 5 -14 4 -15 -4 -4 -6 8 -17 11 -27
8 -11 -5 -14 -3 -9 6 6 9 4 9 -8 -1 -13 -10 -16 -9 -21 7 -3 14 -11 18 -26 14
-12 -3 -18 -10 -14 -17 3 -6 2 -8 -2 -3 -16 14 -14 48 2 35 12 -10 12 -7 2 15
-7 15 -19 27 -27 27 -9 0 -12 3 -9 6 3 4 2 14 -3 24 -12 22 -7 27 30 27 17 0
27 -5 23 -10z m-1139 -107 c4 0 4 6 0 13 -5 9 -4 9 6 0 9 -8 18 -9 25 -3 7 6
11 3 12 -11 2 -22 -7 -25 -25 -7 -8 8 -12 8 -12 1 0 -26 28 -35 54 -18 14 10
23 21 20 26 -3 5 2 6 10 3 21 -8 20 -17 -6 -40 -12 -10 -18 -13 -13 -5 5 9 4
12 -4 10 -7 -3 -12 -9 -12 -14 0 -6 -9 -19 -20 -31 -10 -11 -16 -24 -12 -28 4
-4 -3 -9 -15 -13 -12 -3 -22 -10 -22 -15 0 -5 -4 -6 -10 -3 -5 3 -10 15 -10
26 0 11 -3 18 -8 15 -4 -2 -8 9 -8 25 -1 16 3 26 8 23 6 -4 5 3 -1 15 -6 11
-9 32 -5 46 6 25 6 25 24 5 9 -11 20 -20 24 -20z m1057 -4207 c-8 -15 -7 -20
4 -20 8 0 12 4 10 8 -3 4 1 9 9 12 8 3 17 -1 20 -9 4 -10 2 -12 -6 -8 -6 4 -3
-7 8 -24 10 -17 20 -29 22 -27 3 3 -1 11 -7 19 -7 8 -10 20 -6 26 8 14 32 13
41 -2 5 -8 2 -9 -9 -5 -10 3 -17 2 -17 -3 0 -6 4 -10 9 -10 5 0 8 -11 7 -24
-2 -17 1 -22 13 -19 11 3 17 -2 17 -16 0 -11 -5 -19 -10 -18 -13 3 -15 -24 -3
-40 6 -9 6 -13 -2 -13 -10 0 -15 13 -13 32 1 3 -6 9 -15 12 -12 5 -14 2 -10
-14 3 -11 1 -18 -4 -14 -5 3 -9 11 -9 18 0 15 -32 17 -41 3 -4 -6 -14 -5 -25
3 -16 10 -16 11 -1 6 9 -3 17 -1 17 4 0 6 -7 10 -16 10 -8 0 -13 4 -9 10 3 5
13 7 23 4 14 -5 15 -4 2 5 -21 15 -5 25 19 12 17 -10 20 -9 14 5 -4 12 -3 15
6 10 10 -6 9 -3 0 13 -9 14 -16 17 -20 9 -4 -7 -5 -16 -2 -22 3 -5 1 -6 -5 -2
-6 4 -8 14 -5 24 6 14 4 15 -9 4 -13 -10 -15 -8 -14 15 0 18 -4 27 -13 25 -7
-1 -10 2 -6 7 3 6 12 8 20 4 8 -3 15 1 15 8 0 7 3 10 6 7 3 -4 1 -15 -5 -25z"/>
</g>
</svg>
