<?xml version="1.0" standalone="no"?>
<!DOCTYPE svg PUBLIC "-//W3C//DTD SVG 20010904//EN"
 "http://www.w3.org/TR/2001/REC-SVG-20010904/DTD/svg10.dtd">
<svg version="1.0" xmlns="http://www.w3.org/2000/svg"
 width="1024.000000pt" height="1024.000000pt" viewBox="0 0 1024.000000 1024.000000"
 preserveAspectRatio="xMidYMid meet">
<metadata>
Created by potrace 1.16, written by Peter Selinger 2001-2019
</metadata>
<g transform="translate(0.000000,1024.000000) scale(0.100000,-0.100000)"
fill="#000000" stroke="none">
<path d="M3145 10108 c-9 -24 -12 -78 -5 -78 4 0 7 -17 6 -37 -1 -24 -6 -37
-14 -35 -6 1 -12 -5 -12 -13 0 -8 -7 -15 -15 -15 -15 0 -38 -33 -30 -44 3 -3
2 -4 -1 -1 -7 4 -34 -19 -34 -30 0 -3 5 -3 11 1 6 3 4 -4 -4 -17 -17 -27 -13
-65 8 -89 8 -9 15 -21 15 -27 0 -5 9 -18 20 -28 11 -10 20 -24 20 -31 0 -7 6
-17 13 -21 6 -4 28 -29 47 -54 19 -26 38 -45 43 -42 4 2 7 0 7 -6 0 -15 80
-89 111 -103 16 -7 29 -16 29 -20 0 -5 7 -8 15 -8 8 0 15 -5 15 -11 0 -5 5 -7
10 -4 6 3 10 -1 10 -9 0 -9 4 -16 9 -16 15 0 111 -62 111 -71 0 -5 7 -6 15 -3
8 4 15 1 15 -5 0 -6 6 -11 13 -11 8 0 24 -11 37 -25 13 -14 32 -25 42 -25 11
0 17 -4 14 -9 -3 -5 9 -15 27 -22 17 -7 40 -22 50 -32 9 -11 17 -17 17 -12 0
4 7 2 15 -5 13 -11 14 -10 10 2 -3 8 1 21 10 28 8 7 15 9 15 6 0 -4 9 -2 20 4
15 8 20 8 20 -2 0 -8 3 -9 8 -3 9 14 45 14 54 0 5 -6 13 -2 23 10 16 20 16 19
10 -5 -5 -25 -5 -25 6 -3 11 22 44 40 63 34 5 -1 3 6 -5 15 -9 12 -10 15 -1
10 7 -4 15 -1 18 8 3 9 10 13 15 10 5 -3 10 0 10 5 1 6 2 15 3 20 0 5 5 13 10
18 5 5 6 3 2 -4 -4 -7 -2 -13 3 -13 6 0 11 -5 11 -11 0 -5 -5 -7 -12 -3 -7 5
-8 3 -3 -6 5 -9 13 -5 30 14 23 27 42 36 29 14 -5 -9 -2 -9 9 1 20 16 23 2 5
-19 -11 -12 -10 -12 5 0 10 7 16 19 13 27 -3 7 0 13 7 13 8 0 6 4 -3 10 -9 6
-10 10 -3 10 21 0 23 -16 4 -53 -16 -31 -16 -34 -2 -29 14 5 14 3 3 -10 -7 -9
-22 -15 -32 -13 -10 2 -21 -3 -24 -11 -4 -11 -2 -12 13 -5 12 7 22 6 31 -2 10
-9 11 -9 6 0 -3 6 -2 14 4 18 5 3 10 -1 10 -9 0 -13 5 -14 28 -6 24 9 25 9 9
-4 -14 -11 -15 -15 -4 -19 8 -3 19 -1 25 5 6 6 12 6 17 -3 5 -8 4 -10 -3 -5
-7 4 -12 3 -12 -3 0 -6 15 -8 36 -6 26 4 34 2 29 -7 -4 -7 0 -5 8 4 10 13 16
15 25 6 9 -9 12 -9 12 0 0 7 5 12 11 12 5 0 7 -4 4 -10 -3 -5 -1 -10 4 -10 6
0 11 4 11 9 0 5 11 8 25 6 14 -1 25 3 25 9 0 6 5 4 10 -4 8 -13 10 -12 10 3 0
10 5 15 10 12 6 -3 16 -3 23 2 22 14 39 13 27 -2 -8 -10 -7 -14 2 -17 10 -4
10 -9 -2 -23 -11 -13 -12 -19 -3 -22 7 -2 10 -10 8 -16 -12 -40 -15 -71 -5
-57 8 12 10 11 10 -6 0 -12 11 -29 25 -38 14 -9 24 -20 23 -24 -1 -4 3 -16 9
-27 10 -18 14 -82 13 -214 0 -13 -6 -37 -14 -52 -8 -16 -10 -29 -5 -29 6 0 7
-4 4 -10 -12 -20 -19 -56 -19 -112 -1 -32 -4 -58 -8 -58 -3 0 -9 -18 -13 -40
-4 -22 -11 -38 -15 -35 -5 3 -7 -4 -5 -15 2 -11 -1 -20 -6 -20 -6 0 -7 -4 -4
-10 3 -5 1 -10 -6 -10 -6 0 -9 -8 -6 -20 3 -11 1 -20 -5 -20 -5 0 -6 -4 -3
-10 3 -5 1 -10 -6 -10 -7 0 -9 -10 -7 -25 5 -22 3 -23 -10 -13 -13 11 -15 10
-10 -10 4 -12 2 -20 -3 -16 -5 3 -12 -2 -15 -10 -3 -9 -10 -13 -15 -10 -5 3
-9 2 -8 -3 3 -17 -1 -33 -8 -32 -24 4 -25 -3 -3 -16 25 -13 24 -14 -12 -11
-21 2 -35 -1 -32 -6 3 -5 -3 -17 -14 -26 -10 -9 -17 -23 -14 -30 2 -7 -4 -20
-14 -27 -12 -9 -14 -14 -6 -15 7 0 10 -5 7 -10 -4 -6 -11 -7 -17 -4 -7 5 -9 0
-5 -15 3 -15 -1 -24 -14 -32 -11 -5 -17 -14 -14 -19 3 -4 -5 -17 -18 -27 -13
-10 -22 -24 -19 -31 2 -6 -3 -15 -12 -18 -9 -3 -16 -13 -16 -20 0 -15 -8 -27
-42 -65 -10 -10 -16 -19 -13 -19 2 0 -15 -20 -40 -44 -24 -24 -41 -47 -38 -50
4 -3 1 -6 -5 -6 -7 0 -12 -7 -12 -15 0 -8 -4 -15 -10 -15 -5 0 -10 -7 -10 -15
0 -8 -4 -15 -10 -15 -5 0 -10 -7 -10 -16 0 -25 -50 -124 -63 -124 -7 0 -6 -4
3 -10 13 -8 12 -10 -2 -10 -10 0 -18 -7 -18 -16 0 -8 -4 -13 -9 -10 -4 3 -14
-13 -21 -35 -10 -28 -16 -36 -23 -27 -6 9 -7 6 -4 -10 3 -12 1 -20 -3 -17 -5
3 -18 -7 -30 -22 -12 -16 -18 -21 -14 -13 7 12 5 13 -8 3 -8 -7 -19 -9 -23 -5
-5 4 -5 2 -2 -4 4 -7 0 -15 -9 -18 -10 -4 -14 -12 -10 -22 5 -14 4 -15 -9 -4
-14 11 -19 7 -16 -12 0 -4 -9 -5 -22 -3 -21 4 -21 3 -4 -9 12 -9 14 -16 8 -21
-6 -3 -11 -1 -11 4 0 6 -7 11 -15 11 -8 0 -15 -4 -15 -10 0 -5 -4 -10 -10 -10
-12 0 -50 -37 -50 -48 0 -4 -9 -14 -20 -22 -14 -10 -17 -17 -8 -27 9 -11 7
-12 -8 -6 -17 6 -17 5 -6 -10 12 -14 11 -16 -7 -12 -14 3 -18 0 -14 -11 3 -9
0 -14 -8 -12 -8 2 -13 -3 -11 -9 1 -7 -5 -13 -14 -13 -8 0 -13 -3 -11 -7 7
-11 -19 -33 -29 -25 -5 4 0 -3 10 -16 14 -16 16 -26 9 -33 -8 -8 -11 -6 -10 6
1 10 -6 19 -15 20 -11 2 -15 -3 -13 -16 2 -10 -1 -22 -7 -25 -6 -4 -8 -2 -4 4
3 6 2 13 -4 17 -5 3 -12 -6 -16 -20 -3 -14 -11 -22 -17 -18 -6 4 -8 0 -4 -11
4 -10 3 -15 -3 -11 -6 3 -10 1 -10 -5 0 -6 -4 -9 -9 -6 -10 7 -24 -22 -16 -34
3 -5 0 -12 -6 -16 -8 -5 -9 -3 -4 6 5 8 3 11 -6 8 -8 -3 -13 -14 -11 -24 3
-18 3 -18 -13 1 -9 11 -14 14 -10 8 3 -7 1 -13 -5 -13 -6 0 -8 -4 -5 -10 3 -5
1 -10 -5 -10 -6 0 -15 -12 -20 -26 -6 -14 -15 -22 -21 -19 -6 4 -9 0 -7 -11 2
-10 -2 -19 -9 -19 -6 0 -15 -4 -20 -9 -5 -5 -2 -6 6 -1 10 6 12 4 7 -4 -5 -7
-15 -10 -23 -7 -8 3 -11 1 -8 -4 3 -6 -1 -13 -9 -16 -9 -3 -13 -11 -9 -17 4
-7 0 -8 -13 -3 -10 4 -15 4 -12 0 4 -3 -18 -30 -48 -59 -50 -50 -69 -76 -42
-59 7 4 8 3 4 -5 -6 -9 -11 -9 -24 1 -13 11 -15 10 -9 -4 3 -10 3 -17 -1 -17
-22 4 -31 -3 -25 -18 3 -10 3 -15 -1 -11 -9 7 -132 -113 -128 -125 1 -5 -2 -6
-7 -3 -5 4 -12 2 -16 -4 -4 -6 -11 -7 -17 -4 -6 4 -8 2 -4 -4 9 -15 -24 -44
-42 -37 -9 3 -13 3 -10 -1 8 -8 -16 -34 -31 -34 -6 0 -11 -7 -11 -15 0 -8 -13
-21 -30 -30 -16 -9 -30 -20 -30 -26 0 -6 -4 -7 -10 -4 -5 3 -10 1 -10 -5 0 -6
-5 -8 -12 -4 -8 5 -9 2 -4 -12 4 -10 4 -15 0 -12 -10 11 -45 -12 -38 -24 4 -6
3 -8 -4 -4 -6 3 -17 -1 -26 -10 -9 -8 -25 -16 -35 -17 -11 0 -17 -5 -15 -9 3
-4 -7 -8 -21 -8 -17 0 -24 -4 -19 -12 5 -8 2 -9 -9 -5 -10 3 -17 2 -17 -4 0
-6 -5 -7 -11 -4 -6 4 -17 -1 -24 -11 -9 -12 -14 -14 -15 -6 0 7 -4 11 -9 7 -5
-3 -24 -7 -41 -9 -18 -2 -35 -8 -39 -13 -3 -6 -14 -9 -24 -7 -13 2 -17 -2 -13
-13 5 -13 4 -14 -8 -4 -11 10 -16 9 -24 -4 -5 -9 -12 -16 -15 -16 -4 1 -8 -2
-9 -6 -1 -5 -11 -18 -22 -30 -19 -23 -29 -83 -12 -80 4 1 10 -6 11 -16 3 -13
-1 -17 -11 -13 -12 4 -13 2 -5 -12 8 -13 4 -22 -14 -37 -13 -11 -25 -27 -27
-35 -2 -8 -7 -18 -13 -22 -5 -4 1 -11 15 -16 19 -7 28 -5 41 11 19 24 50 32
42 11 -3 -8 0 -14 6 -14 6 0 11 -5 11 -10 0 -6 -12 -2 -27 7 -19 12 -24 14
-19 4 6 -10 5 -12 -2 -7 -8 5 -10 1 -5 -10 4 -11 8 -13 11 -6 2 7 8 12 13 12
6 0 7 -5 4 -10 -4 -6 -1 -9 7 -8 7 2 12 -3 10 -10 -1 -8 2 -11 8 -7 17 10 41
-20 27 -34 -9 -9 1 -12 45 -10 46 2 55 5 50 18 -5 13 -3 14 10 3 13 -10 15 -9
12 14 -1 14 0 23 3 20 4 -3 13 -1 20 6 11 9 17 9 24 -3 7 -11 9 -10 9 7 0 13
10 25 26 32 14 7 23 8 20 4 -3 -5 1 -9 8 -9 8 0 12 6 9 14 -3 7 -1 13 4 13 5
0 10 -11 11 -26 1 -14 -2 -23 -8 -19 -6 3 -10 1 -10 -4 0 -6 6 -12 13 -13 6 0
17 -2 22 -2 6 -1 21 -8 34 -15 18 -10 22 -10 16 0 -6 9 0 11 26 6 24 -5 30 -4
19 3 -13 8 -13 10 1 10 9 0 22 7 29 15 18 21 32 8 19 -18 -10 -21 -10 -21 5
-3 9 11 16 24 16 29 0 5 6 4 14 -2 11 -9 16 -9 22 0 4 7 3 9 -3 6 -6 -4 -14 0
-17 9 -3 8 -2 13 2 11 10 -7 32 19 24 29 -4 4 -2 5 3 2 6 -2 21 7 35 20 14 14
18 22 10 18 -8 -4 -5 1 7 12 12 11 19 23 15 27 -4 3 -2 6 3 5 26 -6 37 1 31
18 -6 16 -5 16 8 0 14 -19 32 -25 21 -8 -4 6 6 10 22 10 16 0 35 6 42 13 11
10 13 9 8 -6 -6 -16 -5 -16 18 -1 13 9 30 12 36 8 9 -5 10 -2 5 11 -5 14 -4
16 7 7 14 -12 27 -7 27 10 0 5 -5 6 -12 2 -7 -5 -8 -3 -3 6 6 10 11 9 22 -5 7
-11 13 -13 13 -7 0 7 5 12 11 12 5 0 7 -5 3 -12 -4 -7 -3 -8 5 -4 6 4 9 18 7
32 -3 14 -1 22 5 19 5 -4 7 -11 4 -16 -10 -15 32 -10 48 5 9 10 18 11 24 5 6
-6 14 -5 22 5 9 11 18 13 30 6 13 -6 18 -5 18 5 0 8 -5 11 -10 8 -6 -3 -7 -1
-3 5 3 6 18 9 31 6 15 -3 25 0 25 7 0 7 3 9 7 6 3 -4 13 -1 21 6 13 9 14 9 8
0 -9 -16 -1 -16 26 -2 15 8 19 8 13 -1 -5 -8 0 -7 14 2 12 7 21 17 21 23 0 5
5 2 11 -8 8 -14 14 -16 25 -6 8 6 14 8 14 3 0 -5 7 2 16 14 12 18 19 20 35 12
12 -7 19 -7 19 -1 0 6 11 -1 26 -15 27 -28 68 -27 90 1 6 8 14 12 17 8 4 -3 7
-2 7 4 0 6 -12 18 -26 28 -25 16 -25 16 -14 -4 9 -17 8 -21 -5 -21 -25 0 -29
-1 -42 -12 -13 -10 -33 -3 -33 13 0 5 11 14 25 19 14 5 25 12 25 15 0 4 -5 3
-11 -1 -11 -7 -29 12 -29 31 1 6 5 3 10 -7 8 -12 22 -15 60 -13 30 2 48 0 44
-6 -3 -5 -10 -7 -15 -4 -5 4 -9 4 -9 1 0 -3 9 -10 20 -16 27 -14 62 4 53 27
-4 11 -3 14 5 9 7 -4 12 -2 12 4 0 7 6 10 13 8 17 -6 47 27 36 41 -6 7 -5 8 2
2 13 -11 39 -4 39 11 0 5 -4 7 -9 3 -5 -3 -12 -1 -15 3 -3 5 5 9 17 8 13 -1
21 -7 19 -16 -3 -11 0 -11 12 -1 9 7 23 11 31 7 8 -3 15 0 15 6 0 7 4 7 14 -1
11 -10 18 -7 31 11 10 13 15 16 12 7 -3 -9 1 -16 9 -16 7 0 11 4 8 9 -3 4 5
12 18 17 13 6 19 10 14 10 -23 2 38 42 64 43 16 1 27 4 25 8 -2 4 8 6 23 6 15
-1 35 5 44 13 16 12 18 12 18 -5 1 -18 1 -18 11 -1 6 9 14 15 20 12 5 -4 9 -3
9 2 0 4 12 9 28 10 49 4 77 9 87 14 6 4 25 5 43 4 23 -1 36 4 43 16 5 11 17
16 29 14 12 -2 18 0 14 6 -3 6 8 8 30 6 25 -3 37 0 41 12 6 15 7 15 18 0 7 -9
20 -15 30 -13 15 2 21 -7 18 -28 0 -4 6 -5 14 -2 8 4 12 11 8 17 -3 6 4 3 17
-6 16 -11 28 -13 41 -6 12 6 20 5 24 -2 5 -7 14 -4 28 8 19 16 20 16 14 1 -3
-10 -1 -20 5 -24 6 -4 8 -3 5 3 -9 14 13 28 43 28 14 0 28 5 32 10 4 6 8 2 8
-8 0 -10 5 -15 10 -12 6 3 10 1 10 -5 0 -7 7 -9 16 -6 8 3 12 2 9 -4 -3 -6 1
-10 10 -10 9 0 14 -4 11 -8 -3 -5 1 -9 9 -9 8 0 12 5 9 11 -3 6 5 0 17 -14 14
-16 20 -19 16 -8 -4 12 -2 15 9 11 7 -3 14 -9 14 -14 0 -5 7 -9 15 -9 8 0 15
-5 15 -11 0 -5 4 -8 9 -5 14 9 42 -5 35 -16 -4 -6 5 -2 20 7 14 10 26 14 26 9
0 -4 5 -3 12 4 15 15 68 -22 68 -47 0 -10 8 -25 18 -32 16 -13 16 -13 2 6 -14
19 -14 19 3 6 10 -8 16 -20 13 -27 -2 -6 -2 -15 2 -19 4 -4 7 -11 7 -16 0 -5
3 -8 6 -6 13 5 37 -26 34 -44 -2 -11 0 -17 4 -14 11 6 41 -56 34 -69 -3 -5 -1
-6 5 -2 10 6 28 -34 35 -79 5 -33 40 -99 59 -113 10 -7 16 -18 13 -23 -4 -5
-2 -9 4 -9 5 0 13 -9 16 -20 4 -11 11 -17 17 -14 6 4 8 2 4 -4 -7 -12 13 -62
26 -62 5 0 6 -4 3 -10 -3 -5 -2 -10 3 -10 9 0 11 -51 2 -60 -33 -35 -62 -71
-50 -65 11 6 10 3 -3 -12 -9 -11 -14 -23 -10 -26 3 -4 1 -7 -6 -7 -9 0 -11 -8
-7 -24 4 -15 1 -26 -6 -28 -8 -3 -4 -12 10 -26 12 -12 22 -26 22 -32 0 -5 7
-7 15 -4 8 4 15 1 15 -5 0 -6 7 -11 16 -11 8 0 12 -5 9 -10 -4 -6 -3 -9 2 -8
14 3 54 -13 49 -21 -3 -4 4 -7 14 -7 15 0 17 3 7 15 -9 12 -6 12 15 -2 37 -23
46 -22 17 3 -21 17 -21 19 -4 13 11 -3 27 -11 35 -17 13 -10 13 -9 1 7 -9 12
-10 17 -2 17 7 0 9 5 5 13 -5 8 -2 8 9 -2 11 -9 17 -10 17 -2 0 6 5 11 11 11
5 0 7 -6 3 -12 -6 -10 -4 -10 8 0 9 7 18 9 20 3 1 -5 18 -12 36 -14 28 -5 31
-3 21 9 -8 10 -9 14 0 14 9 0 9 5 1 20 -9 17 -8 20 7 20 12 0 14 3 6 8 -9 5
-7 21 6 60 10 28 14 52 9 52 -11 0 -6 23 7 32 7 5 7 8 0 8 -6 0 -11 19 -13 43
-3 51 -6 69 -14 82 -3 6 -9 32 -12 59 -10 69 -10 70 -21 78 -5 4 -1 8 10 8 14
0 16 3 7 9 -7 4 -12 12 -11 17 1 5 -1 17 -6 27 -4 10 -5 21 -1 24 3 4 -1 15
-11 25 -10 12 -12 18 -4 18 8 0 10 7 6 20 -4 11 -8 30 -9 43 -2 12 -7 31 -11
41 -5 10 -9 28 -10 40 -1 12 -5 29 -9 38 -4 9 -5 22 -1 28 3 5 2 10 -4 10 -5
0 -8 11 -7 25 2 15 -1 22 -7 18 -6 -4 -8 0 -4 9 3 9 0 21 -6 27 -6 6 -7 11 -1
11 5 0 3 4 -4 9 -7 4 -14 15 -16 23 -1 9 -7 22 -13 30 -6 7 -13 20 -15 28 -2
8 -7 18 -12 21 -4 4 4 7 18 7 15 0 29 -4 32 -9 3 -5 -2 -6 -10 -3 -21 8 -15
-18 17 -67 15 -22 27 -45 27 -50 0 -5 5 -9 11 -9 6 0 8 -7 5 -16 -3 -8 -2 -13
2 -11 4 2 21 -10 37 -27 17 -16 21 -23 10 -15 -18 13 -19 12 -8 -2 7 -9 10
-19 6 -23 -4 -4 0 -4 10 0 13 5 20 -1 28 -25 6 -17 14 -31 17 -31 4 0 27 -18
51 -40 24 -21 57 -44 72 -51 16 -6 29 -16 29 -21 0 -5 5 -6 12 -2 8 5 9 2 5
-9 -3 -9 -3 -16 1 -16 26 4 44 -3 39 -15 -3 -8 1 -13 11 -12 10 0 18 -3 19 -7
1 -5 17 -19 35 -31 18 -13 32 -28 31 -34 -2 -6 4 -9 12 -6 8 4 15 1 15 -7 0
-7 3 -9 6 -6 8 8 64 -24 64 -35 0 -4 0 -11 -1 -15 -1 -11 31 -24 43 -17 7 5 8
3 4 -5 -5 -7 -15 -10 -25 -7 -14 5 -13 4 1 -8 10 -7 19 -25 20 -39 1 -14 6
-23 10 -21 4 3 8 -2 8 -11 0 -10 5 -13 13 -9 7 5 6 0 -3 -11 -9 -11 -10 -16
-2 -11 8 5 12 1 12 -13 0 -14 5 -19 20 -16 13 2 20 -2 20 -11 0 -9 -5 -12 -12
-8 -8 4 -10 3 -5 -2 5 -5 13 -10 18 -10 5 -1 12 -2 15 -3 4 0 1 -8 -6 -16 -10
-12 -9 -15 4 -15 11 0 14 -5 10 -12 -4 -6 1 -17 12 -25 16 -12 17 -15 4 -23
-11 -7 -11 -10 -2 -10 7 0 12 -8 10 -17 -2 -10 2 -17 9 -16 6 1 10 -5 8 -15
-1 -9 4 -25 13 -34 8 -10 11 -18 6 -18 -5 0 -4 -4 3 -8 6 -4 13 -16 15 -27 1
-10 12 -28 22 -39 13 -13 16 -21 8 -24 -8 -2 -8 -7 1 -17 7 -7 17 -10 22 -7 6
3 4 -2 -4 -11 -8 -11 -9 -17 -3 -17 6 0 9 -6 6 -13 -2 -7 2 -30 11 -50 8 -20
13 -37 10 -37 -3 0 1 -10 10 -23 8 -13 12 -27 8 -30 -3 -4 -1 -7 6 -7 7 0 9
-4 6 -10 -3 -5 -1 -10 6 -10 6 0 9 -8 6 -20 -3 -11 -1 -20 5 -20 5 0 6 -5 3
-10 -3 -5 0 -10 7 -10 10 0 10 -2 -1 -9 -9 -6 -10 -10 -2 -16 9 -5 9 -10 1
-20 -7 -9 -7 -15 -1 -19 10 -6 8 -37 -4 -56 -3 -6 -3 -10 2 -10 4 0 8 -11 8
-25 0 -14 -3 -25 -7 -25 -4 0 -3 -12 1 -27 4 -16 4 -41 1 -58 -3 -16 -3 -42 1
-56 4 -14 3 -32 -2 -40 -4 -8 -4 -21 1 -29 4 -7 4 -24 0 -36 -6 -14 -5 -26 0
-29 5 -3 4 -18 -2 -35 -5 -17 -14 -28 -18 -25 -4 3 -6 -4 -3 -15 3 -12 0 -20
-8 -20 -7 0 -9 -3 -6 -7 4 -3 2 -12 -4 -19 -6 -8 -12 -45 -13 -83 -1 -38 -7
-76 -14 -84 -7 -8 -12 -19 -11 -23 1 -5 -3 -21 -9 -36 -13 -32 -40 -36 -63
-10 -8 9 -30 29 -48 44 -21 17 -30 31 -25 39 4 8 3 10 -5 5 -7 -5 -31 12 -61
43 -27 28 -46 51 -42 51 4 0 -1 5 -11 11 -9 6 -15 14 -12 20 4 5 0 9 -7 9 -7
0 -24 12 -37 25 -13 14 -27 25 -33 25 -5 0 -7 4 -4 9 3 5 -4 11 -15 14 -17 5
-19 9 -10 25 8 16 7 21 -5 26 -8 3 -13 10 -9 15 11 20 -40 63 -77 65 -21 2
-35 -1 -32 -5 12 -21 -18 -16 -42 6 -15 14 -31 25 -36 25 -5 0 -6 5 -2 12 4 7
3 8 -4 4 -13 -8 -126 37 -116 46 3 4 -3 11 -14 17 -11 6 -21 8 -24 6 -2 -2
-12 10 -23 27 -18 31 -18 31 1 25 18 -7 18 -6 -1 8 -11 9 -27 21 -35 28 -27
23 -40 29 -73 34 -18 3 -37 9 -43 14 -6 5 -14 6 -17 2 -4 -3 -7 -1 -7 6 0 7
-4 10 -9 6 -5 -3 -16 2 -25 10 -13 14 -61 22 -156 28 -14 1 -31 9 -38 17 -8 8
-11 9 -7 3 7 -14 -7 -18 -19 -6 -4 5 -21 9 -37 9 -16 1 -30 2 -31 3 -2 1 -23
4 -47 6 -25 3 -51 7 -58 9 -7 3 -15 1 -18 -3 -2 -5 -19 -6 -37 -2 -18 4 -58 3
-88 -2 -30 -4 -89 -11 -130 -13 -88 -6 -109 -9 -132 -18 -9 -4 -22 -5 -28 -1
-5 3 -10 1 -10 -6 0 -7 -3 -10 -6 -7 -3 4 -20 0 -39 -7 -18 -8 -35 -11 -39 -8
-3 4 -6 -2 -7 -13 0 -10 -3 -14 -5 -7 -4 8 -13 9 -29 3 -12 -5 -26 -6 -29 -3
-3 4 -6 2 -6 -4 0 -6 -14 -13 -31 -17 -17 -3 -28 -10 -24 -16 4 -6 -1 -7 -11
-3 -11 4 -15 3 -11 -4 4 -7 0 -10 -10 -9 -10 2 -32 -5 -50 -15 -17 -10 -34
-15 -38 -11 -4 4 -5 0 -3 -8 2 -10 -3 -14 -14 -12 -12 2 -18 -4 -18 -15 0 -14
-2 -15 -9 -5 -7 11 -13 9 -31 -10 -13 -12 -19 -16 -15 -8 12 20 -19 -3 -57
-43 -15 -16 -32 -26 -38 -22 -6 3 -9 2 -8 -4 2 -5 -6 -17 -17 -26 -11 -9 -13
-14 -5 -10 8 4 6 0 -4 -9 -10 -8 -23 -13 -27 -10 -5 3 -9 -2 -9 -10 0 -9 -5
-16 -11 -16 -5 0 -8 -4 -5 -9 3 -5 -1 -12 -10 -15 -9 -4 -14 -13 -10 -21 3 -9
-1 -15 -10 -15 -11 0 -15 -6 -11 -20 3 -11 1 -18 -4 -14 -5 3 -10 0 -10 -5 -2
-14 -2 -16 -23 -84 -10 -31 -22 -57 -27 -57 -6 0 -6 -7 0 -18 7 -13 6 -23 -1
-30 -7 -7 -8 -12 -4 -12 5 0 2 -8 -5 -17 -10 -11 -10 -14 -1 -9 15 9 16 -6 0
-22 -9 -9 -9 -12 1 -12 9 0 12 -10 9 -30 -3 -17 -2 -30 2 -30 5 0 33 -64 35
-80 0 -3 4 -11 8 -18 5 -6 5 -17 2 -22 -3 -5 -1 -10 6 -10 7 0 10 -3 6 -6 -9
-10 14 -64 25 -58 7 5 7 1 1 -11 -8 -13 -6 -23 6 -37 9 -10 16 -23 16 -28 0
-4 10 -20 22 -33 12 -14 19 -28 16 -31 -4 -3 2 -6 13 -6 16 0 17 -2 4 -11 -12
-9 -11 -10 7 -6 12 3 22 2 21 -2 -2 -17 3 -34 8 -28 4 3 13 -1 21 -9 8 -8 19
-11 25 -8 6 4 9 3 6 -2 -4 -5 18 -21 48 -36 30 -14 51 -21 47 -15 -4 7 6 4 21
-7 16 -10 25 -13 22 -7 -10 15 7 14 23 -1 11 -11 11 -9 1 12 -12 22 -11 23 1
13 19 -16 109 -19 135 -5 16 8 24 8 34 -1 10 -9 11 -9 6 1 -4 6 -4 12 1 13 60
5 71 3 68 -14 -3 -14 -1 -15 17 -6 18 10 20 9 14 -6 -6 -16 -4 -16 11 -4 9 8
14 10 11 4 -3 -5 1 -17 10 -25 14 -13 15 -12 10 2 -6 14 -2 13 30 -2 27 -13
39 -15 44 -7 6 9 8 9 8 0 0 -7 5 -13 11 -13 5 0 7 6 3 13 -5 8 -2 8 9 -2 9 -7
17 -9 17 -4 0 5 9 9 20 9 11 0 20 -5 20 -11 0 -5 5 -3 10 5 5 8 10 10 10 4 0
-6 14 -9 33 -7 24 3 29 2 17 -6 -8 -6 -10 -11 -4 -11 5 0 15 5 22 12 9 9 12 9
12 1 0 -12 43 -8 63 4 6 4 8 -1 4 -11 -5 -14 -3 -15 13 -6 14 7 23 6 34 -6 15
-15 21 -11 16 11 -1 5 9 1 22 -10 13 -11 25 -22 28 -24 3 -2 -5 -1 -18 2 -19
4 -22 2 -18 -10 4 -10 -3 -26 -15 -40 -13 -12 -19 -23 -16 -23 6 0 -7 -18 -48
-64 -5 -6 -11 -18 -13 -26 -2 -8 -7 -17 -11 -20 -18 -11 -37 -115 -20 -104 8
5 13 -9 10 -28 0 -5 4 -8 10 -8 5 0 8 -3 6 -7 -6 -10 19 -34 27 -26 3 4 6 2 6
-4 0 -18 60 -22 61 -4 0 12 3 11 9 -4 5 -11 9 -14 9 -7 1 8 10 11 26 8 13 -3
28 0 31 6 5 7 2 8 -6 3 -9 -6 -11 -4 -6 4 6 9 13 8 27 -5 18 -16 19 -16 13 -1
-7 18 11 24 21 7 3 -5 12 -10 18 -10 8 0 8 3 -1 9 -11 7 -11 9 2 14 9 4 16 1
16 -6 0 -8 4 -7 9 3 6 8 7 19 4 25 -3 5 0 5 7 -2 10 -10 19 -8 40 7 15 11 30
17 34 13 3 -3 6 -1 6 5 0 16 -13 15 -29 0 -10 -11 -12 -10 -9 2 2 11 -8 15
-40 17 -24 2 -41 -1 -38 -6 4 -5 -2 -7 -13 -4 -13 3 -17 11 -14 24 6 22 14 24
33 7 12 -11 12 -10 1 5 -7 9 -12 17 -10 18 32 6 39 6 39 -4 0 -6 7 -2 16 9 8
10 13 13 9 6 -3 -6 -1 -12 4 -12 6 0 11 5 11 11 0 6 5 9 11 7 6 -2 10 -7 9
-12 -1 -5 4 -12 10 -16 9 -5 6 -10 -9 -15 -12 -3 -19 -10 -16 -15 3 -5 12 -7
19 -4 8 3 17 1 21 -5 3 -6 15 -11 26 -11 13 0 18 4 13 12 -5 7 -3 8 5 4 7 -5
10 -14 7 -21 -3 -8 2 -11 15 -8 10 3 17 9 14 13 -3 4 4 10 15 13 11 3 17 1 14
-4 -3 -5 5 -7 18 -5 13 3 27 5 31 5 5 1 5 6 2 11 -5 9 23 15 48 11 4 0 7 4 7
10 0 6 6 9 14 6 7 -3 19 0 25 6 7 7 11 8 11 0 0 -6 11 -10 25 -11 13 0 22 4
19 9 -3 5 2 6 10 3 9 -3 16 -1 16 6 0 6 5 8 10 5 6 -4 8 -11 5 -16 -3 -5 1 -6
9 -3 9 3 13 11 9 18 -3 6 -3 8 2 4 4 -4 15 -2 24 4 9 7 13 8 8 3 -4 -4 1 -17
10 -28 10 -11 12 -17 6 -13 -9 5 -11 2 -7 -8 3 -9 10 -13 15 -10 5 3 9 -1 9
-8 0 -9 3 -9 10 2 6 10 10 11 10 3 0 -7 5 -13 11 -13 5 0 7 6 3 13 -5 9 -4 9
6 0 12 -11 43 -7 36 6 -2 3 3 13 12 20 14 13 15 12 9 -8 -4 -16 -2 -20 6 -13
23 18 50 23 44 9 -3 -8 1 -14 8 -14 7 0 11 6 8 14 -3 7 -1 13 5 13 6 0 12 -6
15 -12 3 -10 7 -10 19 -1 8 7 18 10 22 6 4 -4 4 -1 1 8 -4 10 1 15 15 16 11 1
18 -2 16 -6 -3 -4 5 -7 16 -6 12 1 25 10 29 21 7 17 8 16 9 -6 1 -25 1 -25 10
-2 5 12 12 22 15 22 4 0 4 -4 1 -9 -3 -5 1 -11 9 -15 10 -3 15 1 15 11 0 14 2
14 16 -3 8 -10 13 -14 11 -9 -3 6 1 19 9 29 12 17 16 17 31 5 9 -8 14 -9 10
-3 -7 13 19 28 33 19 4 -3 11 3 14 12 5 12 10 13 18 5 8 -8 15 -7 26 4 8 8 21
13 28 10 8 -3 14 -1 14 4 0 5 7 6 17 3 11 -4 14 -3 9 5 -6 11 5 16 26 13 4 0
12 8 18 19 6 12 18 17 30 15 11 -2 19 -1 17 3 -4 7 28 41 41 43 4 1 6 5 4 11
-1 5 3 6 9 2 9 -5 10 -2 5 12 -7 18 -6 18 11 1 10 -9 27 -25 38 -35 12 -9 15
-13 8 -8 -8 5 -16 7 -18 4 -3 -3 7 -11 21 -18 14 -8 28 -26 31 -42 3 -15 10
-28 15 -28 5 0 6 -4 3 -10 -3 -5 -2 -10 4 -10 8 0 22 -27 26 -50 0 -3 6 -15
13 -28 7 -12 10 -27 7 -32 -3 -6 -2 -10 3 -10 5 0 9 -6 10 -12 5 -66 31 -176
43 -184 5 -3 7 -10 4 -15 -4 -5 -2 -9 4 -9 8 0 27 -40 22 -48 -1 -1 6 -17 16
-35 9 -17 18 -35 19 -39 1 -5 3 -11 4 -15 1 -5 1 -12 0 -18 -1 -5 1 -7 5 -3 4
4 16 -2 28 -12 22 -21 53 -10 40 14 -3 6 0 6 8 -1 7 -7 18 -13 24 -13 5 0 4 4
-4 9 -16 10 -8 41 10 41 8 0 9 -4 0 -13 -8 -10 -7 -14 3 -14 14 0 16 14 4 32
-4 6 -3 17 3 25 12 21 11 33 -3 24 -8 -5 -9 -2 -5 9 4 10 2 17 -5 17 -7 0 -6
5 2 15 7 9 10 18 6 22 -3 3 -6 1 -6 -5 0 -7 -5 -12 -11 -12 -5 0 -8 4 -4 9 3
5 -2 17 -11 26 -9 9 -14 19 -11 22 4 3 2 15 -4 25 -8 14 -8 23 0 31 8 8 11 8
11 -1 0 -7 7 -12 15 -12 8 0 15 -5 15 -11 0 -5 -4 -8 -9 -4 -17 10 -21 -12 -5
-31 14 -17 15 -17 10 -1 -3 11 0 20 9 23 8 4 12 11 8 17 -4 6 -1 7 6 3 7 -5
10 -14 7 -22 -3 -8 -1 -14 4 -14 6 0 10 7 10 16 0 9 5 12 12 8 7 -4 8 -3 4 5
-4 6 -11 9 -15 7 -4 -3 -8 1 -8 9 0 8 4 12 9 9 4 -3 8 3 8 12 0 10 3 14 7 11
3 -4 13 -1 21 6 13 9 14 9 8 0 -4 -7 -2 -13 3 -13 15 0 14 43 -1 59 -10 11
-10 13 0 7 6 -4 12 -3 12 2 0 6 -7 12 -15 16 -8 3 -15 10 -15 16 0 6 4 9 9 6
4 -3 7 6 5 19 -1 14 3 25 9 25 5 0 8 2 5 5 -3 3 -13 2 -22 -1 -14 -5 -15 -9
-4 -15 9 -6 9 -9 1 -9 -19 0 -26 20 -9 26 9 3 14 10 11 14 -3 5 4 6 15 3 12
-3 19 -11 17 -17 -3 -6 2 -18 9 -27 7 -8 15 -25 17 -37 2 -12 7 -25 12 -29 4
-5 5 -2 1 5 -7 11 7 17 29 12 41 -10 56 -8 44 6 -10 12 -9 13 5 8 9 -3 16 -2
16 4 0 6 -6 13 -12 15 -10 4 -10 6 1 6 9 1 8 6 -6 19 -10 9 -14 14 -9 10 16
-12 26 -9 26 7 0 16 -57 75 -72 75 -5 0 -6 5 -3 10 3 6 1 10 -5 10 -6 0 -18
16 -26 35 -8 19 -18 35 -22 35 -5 0 -41 32 -81 70 -39 38 -70 70 -67 70 2 0
-18 23 -45 50 -27 28 -46 50 -41 50 4 0 -1 5 -11 11 -9 6 -15 14 -12 20 4 5 2
9 -4 9 -13 0 -40 41 -46 70 -4 18 -2 20 11 9 12 -10 13 -9 8 6 -5 13 -4 16 4
11 7 -4 12 -1 12 9 0 10 5 13 13 9 7 -5 6 0 -3 11 -9 11 -10 16 -2 11 7 -4 12
-1 13 8 1 9 2 22 3 29 0 6 7 12 15 12 8 0 15 9 17 19 1 10 8 22 14 26 6 4 12
16 13 28 1 14 5 18 12 12 8 -7 11 -1 10 20 -1 17 2 30 8 30 5 0 7 7 4 14 -4
10 -1 13 8 10 10 -4 13 0 10 15 -2 12 0 19 4 16 5 -2 14 2 21 10 7 8 9 15 5
15 -4 0 -3 6 4 13 8 10 7 17 -2 27 -6 7 -7 10 -2 7 6 -3 17 3 24 15 7 11 8 17
2 14 -7 -4 -8 -1 -5 8 3 9 10 13 15 10 13 -8 11 10 -3 25 -7 7 -8 12 -3 11 23
-5 35 1 35 16 0 8 5 12 10 9 6 -3 10 -1 10 4 0 6 -6 11 -12 11 -9 0 -9 3 -3 8
6 4 10 14 10 22 -1 8 3 21 8 27 6 9 5 13 -4 13 -12 0 -12 2 0 9 8 5 11 16 8
26 -4 9 -3 14 2 11 5 -3 12 1 15 10 3 8 2 12 -4 9 -6 -3 -7 1 -4 9 3 9 9 14
13 12 3 -2 6 23 5 56 0 32 4 62 8 64 4 3 4 14 -2 24 -6 11 -6 21 -1 24 5 4 8
14 7 24 -2 9 2 20 8 24 7 5 7 8 1 8 -7 0 -9 22 -5 60 5 50 3 60 -10 60 -10 0
-11 3 -3 8 8 5 9 13 3 22 -6 8 -10 26 -10 41 0 14 -6 31 -12 38 -11 11 -10 12
1 6 11 -6 13 -4 8 8 -3 9 -1 18 6 21 9 3 9 5 0 5 -9 1 -10 8 -3 26 6 17 6 25
-1 25 -6 0 -7 4 -4 10 3 5 2 18 -4 27 -7 13 -5 23 7 37 9 11 12 16 5 13 -6 -4
-14 -3 -18 3 -3 5 -1 10 5 10 6 0 8 5 3 13 -4 6 -9 23 -11 36 -2 13 -10 37
-18 53 -8 15 -12 28 -8 28 4 0 1 6 -5 13 -6 8 -9 16 -6 19 3 2 0 27 -5 54 -6
27 -13 64 -15 83 -3 19 -8 38 -11 42 -3 5 -7 19 -9 31 -3 12 -8 24 -13 27 -5
3 -15 29 -22 56 -7 28 -16 52 -19 55 -3 3 -13 19 -21 35 -8 17 -21 36 -28 43
-7 8 -10 18 -7 23 4 5 -1 9 -10 9 -11 0 -15 5 -12 14 3 8 1 16 -5 18 -6 2 -11
18 -12 35 0 17 -3 29 -5 27 -2 -2 -11 5 -18 16 -8 11 -18 18 -22 15 -4 -2 -14
13 -21 35 -7 22 -16 38 -19 35 -4 -2 -13 10 -20 26 -7 16 -30 40 -52 52 -21
12 -39 28 -39 35 0 6 -7 12 -15 12 -25 0 -98 67 -89 82 3 4 0 8 -5 8 -6 0 -11
9 -11 20 0 20 -19 23 -32 5 -5 -6 -8 -5 -8 3 0 15 -83 99 -139 140 -20 15 -43
34 -51 42 -8 9 -36 28 -61 42 -25 15 -51 34 -59 42 -7 9 -21 16 -30 16 -10 0
-20 4 -22 9 -1 5 -10 11 -18 13 -8 2 -22 10 -32 18 -9 9 -46 31 -80 49 -115
62 -267 174 -260 194 1 5 -2 6 -7 3 -11 -7 -93 59 -84 68 4 3 1 6 -6 6 -7 0
-30 18 -52 40 -21 21 -39 37 -39 35 0 -5 -38 26 -66 53 -7 6 -18 12 -24 12 -6
0 -8 5 -5 10 3 6 0 10 -7 10 -7 0 -27 13 -43 28 -17 16 -36 27 -43 24 -6 -2
-12 3 -12 12 0 9 -6 16 -13 16 -7 0 -22 8 -33 18 -39 36 -144 113 -144 106 0
-4 -14 7 -31 24 -17 18 -36 32 -42 32 -6 0 -7 3 -4 6 22 22 -67 64 -145 69
-32 2 -62 7 -68 10 -5 3 -10 1 -10 -5 0 -6 -5 -8 -10 -5 -6 4 -7 12 -3 18 5 9
3 9 -8 0 -15 -12 -48 -11 -68 2 -5 3 -12 1 -15 -4 -4 -5 -2 -12 4 -16 19 -12
1 -22 -31 -19 -18 2 -34 6 -37 9 -7 6 -62 -27 -62 -38 0 -4 4 -6 8 -3 8 5 47
-33 47 -46 0 -3 4 -10 9 -15 5 -5 6 -3 2 5 -8 14 10 17 18 3 11 -18 -28 -22
-41 -5 -7 10 -13 15 -13 12 0 -4 -15 -2 -32 4 -18 5 -39 10 -46 11 -7 0 -10 7
-8 14 3 8 2 12 -2 9 -5 -3 -15 3 -23 12 -26 30 -31 43 -18 40 7 -2 13 4 14 12
1 8 6 14 11 13 6 -1 11 5 12 13 1 7 3 21 4 29 1 8 3 13 6 10 7 -7 34 24 28 34
-3 5 6 21 19 35 14 15 25 34 25 43 0 9 3 14 6 10 7 -7 50 48 60 76 4 9 11 17
16 17 5 0 6 -5 2 -12 -4 -7 -3 -8 5 -4 6 4 9 11 6 16 -3 5 6 20 20 34 16 16
20 26 12 29 -9 4 -9 6 1 6 7 1 10 6 7 11 -4 6 -2 9 3 8 5 -2 34 23 65 55 30
32 48 56 39 52 -12 -4 -13 -3 -2 10 7 8 19 15 27 15 8 0 11 5 8 10 -3 6 -2 10
3 10 5 0 17 12 27 26 11 18 13 24 4 19 -8 -4 -4 2 9 14 12 12 22 28 22 37 0
17 20 56 35 66 6 4 6 8 1 8 -5 0 -3 7 4 15 7 8 9 15 5 15 -4 0 0 12 10 26 9
15 12 23 5 19 -7 -4 -5 4 5 18 9 14 18 45 20 69 2 24 4 43 5 43 1 0 4 16 7 35
2 19 9 41 15 47 7 9 7 13 -1 13 -9 0 -9 5 -1 20 6 11 11 36 12 55 1 19 4 35 8
35 8 0 5 55 -4 69 -4 5 -3 12 2 15 4 2 8 30 7 60 0 31 3 56 7 56 4 0 4 19 1
43 -4 23 -7 59 -7 80 0 20 -4 37 -8 37 -4 0 -5 7 -2 15 4 8 1 22 -6 30 -7 8
-8 15 -3 15 5 0 8 14 5 30 -2 17 -7 30 -11 30 -4 0 -7 8 -8 19 -1 10 -6 36
-12 57 -6 22 -10 43 -10 48 0 5 -4 12 -10 15 -5 4 -12 18 -14 31 -7 35 -19 64
-30 71 -5 4 -9 24 -9 44 0 39 -4 46 -49 80 -14 11 -26 23 -28 27 -2 9 -120
127 -151 152 -20 16 -37 23 -63 25 -5 1 -5 6 -1 13 4 7 3 8 -4 4 -6 -4 -20 1
-30 11 -10 10 -25 19 -33 21 -8 2 -19 10 -25 18 -6 7 -18 14 -27 14 -9 0 -19
5 -22 10 -4 6 -11 8 -16 5 -5 -4 -9 -2 -9 3 0 9 -78 37 -92 34 -5 -1 -8 3 -8
9 0 5 -4 8 -8 5 -5 -3 -20 1 -35 9 -15 8 -27 11 -27 7 0 -4 -11 -8 -25 -8 -14
-1 -25 1 -25 5 0 4 -12 6 -27 6 -16 -1 -33 3 -40 8 -7 5 -17 6 -23 2 -5 -3
-10 -1 -10 5 0 6 -4 8 -10 5 -13 -8 -50 -17 -77 -19 -13 0 -23 -5 -23 -9 0 -5
-17 2 -37 14 -20 13 -51 24 -68 24 -17 1 -37 5 -43 9 -7 4 -16 4 -22 1 -23
-14 -291 -9 -301 6 -5 7 -9 10 -9 5 0 -5 -7 -3 -15 4 -12 10 -15 10 -15 -1 0
-9 -4 -7 -12 4 -7 9 -22 18 -33 20 -11 2 -27 7 -35 10 -8 4 -28 8 -45 11 -16
2 -32 5 -35 6 -3 1 -8 2 -12 1 -5 0 -8 4 -8 9 0 6 -10 10 -22 11 -22 0 -22 1
-3 9 l20 9 -20 0 c-17 1 -17 3 -5 11 14 9 13 11 -10 14 -6 0 -15 8 -20 16 -5
8 -10 11 -10 7 0 -4 -9 -3 -20 3 -11 6 -17 16 -14 22 4 7 3 8 -4 4 -7 -4 -12
-2 -12 4 0 6 -3 9 -8 6 -4 -2 -12 7 -19 20 -8 18 -8 23 0 18 7 -3 3 2 -7 10
-11 9 -17 16 -13 16 13 0 -24 48 -49 65 -19 12 -25 13 -29 3z m1312 -2841 c6
2 15 -1 19 -8 4 -7 3 -9 -4 -5 -6 3 -13 2 -17 -4 -3 -6 2 -13 12 -17 10 -4 25
-15 35 -25 10 -12 17 -15 20 -7 2 7 9 5 18 -7 9 -11 10 -15 3 -10 -7 4 -13 3
-13 -3 0 -6 -8 -8 -17 -5 -17 5 -17 5 0 -6 9 -6 17 -18 17 -27 0 -9 3 -13 7
-10 3 4 13 1 21 -5 13 -12 32 -18 60 -20 6 -1 12 -8 12 -15 0 -8 4 -12 9 -8 5
3 15 -1 23 -8 7 -8 19 -12 27 -9 8 3 11 0 8 -5 -4 -6 3 -8 17 -6 13 3 27 -1
31 -8 6 -8 4 -10 -5 -4 -9 5 -11 4 -6 -3 5 -9 12 -8 28 1 16 9 22 9 25 -1 3
-7 14 -17 26 -23 20 -9 20 -9 5 4 -23 18 -23 23 1 23 11 0 17 -4 15 -8 -3 -4
4 -9 15 -9 46 -3 81 -18 81 -35 0 -8 5 -14 11 -14 5 0 7 6 3 13 -4 6 2 4 13
-6 11 -9 23 -14 26 -10 4 3 7 -1 7 -11 0 -9 5 -14 10 -11 6 3 10 1 10 -5 0 -7
8 -9 21 -5 16 5 19 4 14 -6 -6 -9 -3 -11 10 -5 16 6 16 4 4 -11 -7 -10 -9 -14
-4 -10 5 4 15 -3 23 -15 7 -13 11 -15 8 -5 -9 28 10 20 45 -20 17 -21 28 -32
25 -26 -5 9 -2 11 8 7 9 -3 16 -13 16 -21 0 -8 5 -11 12 -7 7 5 8 3 3 -6 -6
-10 -4 -12 9 -7 10 4 15 3 11 -3 -3 -5 4 -14 15 -20 11 -6 18 -15 15 -20 -3
-6 1 -7 9 -4 11 4 16 0 16 -11 0 -10 5 -13 12 -9 7 4 8 3 4 -4 -4 -7 -1 -12 8
-12 9 0 16 -4 16 -10 0 -5 6 -10 14 -10 8 0 16 -6 19 -14 4 -9 -10 -5 -39 11
-24 14 -44 29 -44 34 0 6 -5 7 -10 4 -6 -3 -14 5 -19 18 -6 14 -16 29 -23 33
-10 6 -10 4 1 -9 18 -23 8 -33 -12 -12 -19 18 -31 20 -22 3 4 -7 -2 -3 -13 10
-22 24 -38 30 -26 10 4 -7 -3 -4 -16 7 -13 11 -20 14 -16 8 4 -7 2 -13 -3 -13
-6 0 -11 3 -11 8 0 6 -90 8 -97 2 -8 -7 -51 -5 -65 2 -12 6 -18 5 -18 -3 0 -8
-4 -8 -15 1 -8 6 -19 9 -24 6 -5 -4 -12 -2 -16 4 -4 6 -10 8 -14 5 -5 -2 -28
5 -52 16 -32 16 -62 21 -123 21 -50 0 -94 6 -116 16 -41 17 -45 19 -84 27 -16
3 -34 9 -39 12 -6 3 -7 1 -4 -4 4 -7 -5 -10 -26 -8 -17 1 -36 0 -41 -3 -5 -3
-34 -6 -65 -8 -129 -7 -184 -14 -196 -24 -8 -7 -19 -9 -25 -5 -5 3 -10 2 -10
-2 0 -5 -11 -10 -26 -11 -14 -1 -33 -6 -43 -11 -12 -7 -22 -6 -31 2 -10 10
-12 9 -7 -5 5 -13 2 -15 -11 -11 -9 3 -14 3 -10 -2 4 -4 2 -15 -5 -24 -10 -14
-10 -14 5 -3 22 18 29 1 8 -19 -11 -11 -23 -14 -31 -8 -20 12 -37 11 -19 -1
13 -9 13 -12 -2 -24 -10 -7 -14 -17 -10 -22 4 -4 -1 -2 -11 6 -14 10 -17 11
-15 0 2 -7 -3 -15 -11 -18 -10 -3 -11 0 -5 9 6 11 5 12 -8 2 -8 -7 -18 -10
-22 -6 -4 4 -4 0 0 -10 4 -12 1 -17 -9 -17 -11 0 -15 7 -12 20 2 11 0 18 -4
15 -5 -3 -11 2 -14 10 -5 11 -1 12 19 5 18 -7 23 -7 18 1 -6 11 55 75 69 71 4
-1 7 3 7 9 0 5 5 7 10 4 8 -5 8 -11 1 -19 -8 -9 -7 -13 3 -13 9 0 13 8 10 24
-3 15 0 22 8 21 7 -2 12 3 10 10 -1 6 4 11 10 10 7 -2 12 3 10 10 -2 10 2 10
19 1 13 -6 19 -7 15 -1 -3 6 -2 13 4 17 5 3 10 1 10 -4 0 -6 5 -11 11 -11 5 0
7 5 4 10 -3 6 -2 10 4 10 6 0 7 7 4 17 -4 11 -3 14 5 9 7 -4 12 -1 12 8 0 9 7
16 16 16 9 0 12 5 8 12 -4 6 -3 8 4 4 6 -3 13 -2 17 4 4 6 11 7 17 4 7 -4 8
-2 4 4 -7 12 33 54 45 46 4 -2 13 6 20 18 7 13 20 30 30 39 10 9 15 19 11 23
-4 5 0 7 8 6 34 -5 46 -1 30 11 -12 8 -9 10 12 6 15 -2 25 0 22 5 -8 12 65 80
78 72 7 -4 8 -3 4 4 -8 13 5 43 20 45 5 1 8 6 6 11 -2 5 4 6 12 3 9 -4 15 -3
15 1 -3 18 2 22 19 14 9 -5 22 -7 29 -5z m-1310 -1167 c0 -16 -5 -30 -10 -30
-14 0 1 -13 18 -16 8 -1 13 6 12 17 -1 10 -5 19 -10 19 -4 0 -5 5 -1 11 4 8 9
7 15 -2 4 -7 5 -17 2 -23 -4 -5 1 -7 11 -3 12 5 15 3 9 -6 -4 -6 -8 -16 -8
-22 0 -13 -27 -14 -44 -1 -12 9 -13 7 -7 -9 5 -15 4 -17 -5 -8 -6 6 -18 9 -27
5 -11 -4 -14 -1 -9 11 4 10 2 14 -6 11 -16 -6 -20 -44 -4 -40 7 1 9 1 4 -1 -4
-3 -4 -10 0 -16 4 -7 1 -7 -9 1 -12 9 -18 10 -23 2 -4 -7 -16 -9 -27 -7 -12 3
-22 -1 -25 -10 -5 -12 -9 -11 -20 8 l-13 24 4 -27 c3 -20 1 -25 -10 -21 -9 3
-12 13 -9 27 6 20 6 20 -9 2 -9 -10 -13 -23 -10 -27 3 -5 -2 -6 -10 -3 -9 3
-16 11 -16 17 0 6 3 7 6 4 4 -3 16 5 27 19 14 18 23 22 30 15 19 -19 31 -12
14 7 -15 17 -15 18 4 19 13 1 19 -4 17 -14 -2 -9 2 -18 9 -20 12 -4 11 28 -1
58 -8 18 39 25 50 7 3 -5 15 0 25 11 11 12 27 21 35 21 8 0 12 5 9 10 -3 6 -2
10 3 10 5 0 9 -13 9 -30z m1588 -1540 c4 -6 12 -7 18 -3 22 14 48 10 58 -9 8
-15 13 -17 25 -7 17 14 19 -2 2 -21 -7 -8 -3 -6 10 4 16 14 22 15 22 6 0 -11
3 -11 12 -2 8 8 15 9 25 1 9 -9 13 -8 13 0 0 9 5 9 21 0 17 -9 20 -8 14 2 -6
9 -3 11 8 6 9 -3 18 -1 21 6 2 7 5 1 5 -12 1 -23 2 -24 14 -7 11 15 18 17 33
8 10 -6 15 -12 11 -12 -5 0 -6 -4 -2 -9 3 -6 17 -6 34 -1 25 7 29 6 24 -7 -5
-13 -2 -13 15 -4 17 9 22 8 27 -9 4 -11 11 -18 16 -15 5 4 9 2 9 -4 0 -6 7 -7
17 -4 9 4 14 2 10 -3 -3 -5 8 -16 24 -23 17 -7 26 -17 23 -24 -5 -8 -3 -8 6 0
11 10 17 8 32 -9 10 -12 18 -18 18 -14 0 4 7 0 16 -8 8 -9 22 -16 29 -16 8 0
30 -9 49 -19 19 -11 37 -17 40 -14 3 4 6 2 6 -4 0 -5 10 -9 23 -8 12 1 32 -2
45 -6 13 -5 22 -5 22 1 0 5 6 7 14 4 10 -4 13 0 10 13 -8 30 17 45 46 29 14
-7 24 -18 22 -25 -1 -7 2 -10 7 -6 6 3 19 -3 31 -15 23 -23 34 -26 25 -7 -4 6
-1 5 7 -4 14 -16 48 -33 61 -30 4 0 10 -6 13 -14 4 -8 13 -15 20 -15 8 0 17
-7 20 -15 4 -8 10 -13 15 -10 7 5 34 -15 95 -73 13 -13 22 -28 19 -33 -4 -5 3
-9 15 -9 12 0 18 -4 15 -10 -4 -6 5 -10 19 -10 16 0 26 -6 26 -14 0 -9 7 -12
20 -9 11 3 20 1 20 -5 0 -6 9 -8 20 -5 19 5 25 -4 21 -34 -1 -7 3 -13 9 -13 5
0 10 -4 10 -10 0 -5 -9 -10 -19 -10 -10 0 -21 -7 -25 -15 -3 -8 -13 -15 -21
-15 -9 0 -13 -4 -10 -10 3 -5 -6 -12 -20 -16 -13 -3 -23 -10 -20 -14 3 -5 0
-12 -6 -16 -7 -4 -10 -3 -6 2 3 5 -1 18 -10 29 -14 19 -14 19 -8 -7 5 -18 3
-28 -4 -28 -6 0 -8 6 -5 14 3 7 -2 20 -10 29 -8 8 -12 18 -8 21 3 4 -2 4 -11
0 -17 -6 -16 -8 3 -21 20 -14 19 -33 -2 -33 -6 0 -8 3 -5 7 4 3 -2 13 -13 20
-11 8 -18 18 -16 22 3 4 -6 7 -19 7 -13 0 -21 -4 -19 -8 3 -4 0 -8 -6 -8 -20
0 -24 32 -5 46 11 8 13 14 6 14 -7 0 -9 5 -6 11 4 6 1 9 -6 8 -8 -2 -24 2 -36
9 -13 7 -23 8 -23 3 0 -5 -9 -7 -20 -4 -11 3 -18 8 -16 12 3 4 -4 7 -15 7 -10
0 -19 -4 -19 -9 0 -4 -5 -5 -10 -2 -6 3 -13 -1 -16 -9 -5 -14 -8 -14 -21 0 -9
9 -19 12 -22 7 -13 -18 -57 -30 -84 -22 -20 5 -30 4 -33 -6 -3 -7 -12 -16 -20
-19 -10 -4 -13 -1 -9 7 4 6 -2 2 -13 -10 -11 -12 -22 -19 -26 -16 -3 4 -6 1
-6 -5 0 -7 -7 -12 -15 -12 -8 0 -15 -8 -15 -17 0 -15 -2 -16 -10 -3 -9 15 -11
14 -14 -12 -1 -7 -8 -12 -15 -10 -7 1 -10 -2 -7 -7 4 -5 -7 -23 -23 -39 l-30
-29 -38 55 c-21 30 -42 63 -48 73 -5 11 -13 19 -17 19 -5 0 -8 5 -8 11 0 14
-58 86 -116 145 -41 42 -126 91 -154 89 -8 -1 -21 3 -27 8 -8 6 -13 6 -13 0 0
-6 -11 -8 -25 -5 -19 3 -25 0 -26 -14 0 -12 -3 -14 -6 -6 -4 10 -8 10 -21 0
-11 -9 -14 -9 -9 -1 6 9 -1 11 -25 8 -18 -3 -51 -7 -73 -10 -22 -3 -41 -10
-43 -15 -2 -6 -9 -10 -16 -10 -6 0 -12 -9 -12 -20 0 -11 4 -20 9 -20 5 0 7 -6
4 -14 -3 -7 0 -19 6 -25 8 -8 4 -9 -12 -6 -33 6 -51 24 -44 42 5 12 3 14 -7 8
-8 -5 -11 -4 -6 3 3 6 2 13 -3 16 -19 12 -23 -16 -5 -35 23 -25 29 -56 8 -38
-17 14 -18 5 -4 -22 10 -17 9 -18 -16 -7 -14 7 -21 14 -15 16 6 2 11 8 11 13
0 6 -6 7 -12 3 -9 -5 -9 -2 1 9 12 15 11 17 -3 17 -8 0 -18 11 -22 25 -5 19
-11 24 -24 20 -21 -7 -27 7 -25 58 1 20 -3 37 -8 37 -6 0 -8 3 -5 6 13 12 -28
40 -52 36 -14 -3 -22 -1 -18 3 4 5 3 14 -3 22 -9 10 -8 13 0 13 7 0 19 7 28
15 8 8 19 13 24 9 5 -3 9 -2 8 3 -4 16 13 43 28 43 8 0 11 5 8 10 -4 6 -3 10
2 9 4 -1 16 1 26 6 9 4 26 5 37 2 11 -3 18 -2 15 3 -3 4 2 10 10 14 8 3 15 1
15 -4 0 -5 7 -7 15 -4 8 4 12 11 8 17 -3 5 -2 7 3 4 13 -7 31 4 36 22 5 25 32
47 51 43 9 -2 17 1 17 7 0 7 -4 9 -10 6 -5 -3 -10 -1 -10 4 0 14 17 14 25 1z"/>
<path d="M3721 3844 c-1 -6 -11 -11 -23 -10 -14 1 -22 -4 -20 -11 1 -7 -2 -13
-8 -13 -5 0 -10 5 -10 11 0 5 -4 8 -9 4 -6 -3 -8 -14 -6 -25 2 -12 0 -18 -6
-15 -5 4 -7 11 -4 16 4 5 1 9 -5 9 -6 0 -13 -7 -16 -15 -4 -8 -10 -15 -16 -15
-15 0 -38 -27 -30 -36 4 -5 -2 -2 -12 6 -13 10 -17 10 -12 3 4 -8 2 -13 -4
-13 -6 0 -8 -4 -5 -10 5 -9 -1 -12 -21 -9 -3 0 -11 -7 -18 -17 -8 -11 -18 -14
-26 -9 -8 5 -11 4 -7 -2 4 -6 0 -14 -9 -17 -10 -4 -13 -2 -9 7 4 6 0 4 -8 -5
-8 -10 -17 -14 -22 -10 -4 4 -4 -4 -1 -18 6 -19 5 -22 -3 -10 -10 13 -12 13
-21 0 -9 -13 -10 -13 -10 0 0 9 -3 11 -8 4 -4 -5 -22 -16 -39 -23 -18 -8 -33
-19 -33 -25 0 -6 -4 -5 -9 3 -7 11 -12 10 -27 -8 -10 -11 -23 -21 -29 -21 -5
0 -3 5 5 10 8 5 10 10 4 10 -5 0 -20 -9 -32 -20 -12 -12 -22 -16 -22 -9 0 7
-8 2 -19 -9 -10 -12 -21 -18 -25 -14 -4 4 -12 -1 -18 -11 -7 -13 -13 -15 -23
-7 -9 8 -14 5 -18 -10 -3 -13 -11 -18 -20 -14 -8 3 -21 -1 -28 -9 -8 -7 -20
-12 -28 -9 -10 3 -12 0 -7 -14 6 -15 5 -16 -5 -7 -9 9 -19 8 -43 -5 -17 -9
-35 -15 -39 -14 -5 1 -6 -2 -3 -7 3 -5 -1 -11 -9 -15 -8 -3 -15 0 -15 7 0 8
-4 7 -9 -3 -6 -8 -7 -19 -3 -25 3 -5 -1 -4 -10 3 -13 10 -19 10 -33 -4 -9 -10
-25 -18 -35 -19 -10 -1 -28 -8 -41 -17 -13 -8 -34 -18 -47 -22 -12 -4 -19 -12
-16 -18 4 -7 2 -8 -4 -4 -10 6 -49 -10 -62 -25 -3 -3 -15 -12 -28 -18 -16 -9
-22 -18 -17 -29 5 -13 4 -14 -6 -5 -9 9 -22 5 -58 -20 -25 -17 -48 -32 -51
-32 -21 -1 -79 -38 -74 -47 4 -7 2 -8 -4 -4 -7 4 -12 2 -12 -4 0 -6 -4 -8 -10
-5 -5 3 -10 2 -10 -4 0 -5 -9 -13 -20 -16 -11 -4 -18 -11 -15 -16 4 -5 2 -9
-3 -9 -17 0 -63 -50 -56 -62 4 -7 3 -8 -4 -4 -6 4 -18 -5 -28 -19 -9 -13 -20
-22 -25 -19 -5 3 -9 2 -8 -3 4 -21 -2 -33 -17 -33 -9 0 -30 -15 -48 -32 -52
-52 -118 -108 -128 -108 -5 0 -7 -4 -4 -8 3 -5 -4 -16 -15 -25 -10 -9 -19 -15
-19 -12 0 3 -14 -8 -31 -25 -18 -16 -36 -30 -41 -30 -5 0 -6 -4 -3 -10 3 -5 3
-10 -2 -10 -13 0 -113 -97 -113 -109 0 -6 -5 -11 -11 -11 -5 0 -8 -4 -5 -8 3
-5 -6 -21 -20 -37 -13 -15 -24 -34 -24 -42 0 -8 -5 -11 -12 -7 -8 5 -9 2 -5
-10 4 -10 1 -19 -8 -22 -8 -4 -15 -15 -15 -26 0 -11 -10 -28 -22 -39 -21 -17
-21 -19 -3 -13 11 3 6 -4 -12 -16 -18 -12 -33 -28 -33 -35 0 -7 -7 -16 -16
-19 -9 -3 -14 -12 -11 -20 3 -7 1 -18 -4 -23 -5 -5 -11 -23 -12 -40 -1 -21 -6
-29 -15 -25 -9 3 -12 -2 -10 -14 2 -12 -2 -18 -10 -16 -8 1 -11 -2 -8 -7 8
-12 -14 -62 -24 -56 -4 2 -6 -7 -4 -20 1 -14 -1 -25 -5 -25 -3 0 -15 -16 -25
-35 -10 -19 -23 -32 -27 -29 -5 3 -6 -1 -3 -9 3 -8 1 -18 -5 -22 -6 -3 -11
-15 -11 -25 0 -10 -4 -20 -9 -22 -12 -5 -52 -118 -46 -129 4 -5 0 -12 -8 -15
-9 -3 -14 -16 -12 -31 1 -14 -4 -27 -12 -30 -11 -4 -11 -8 -1 -21 11 -13 11
-14 -1 -7 -11 6 -13 4 -8 -8 3 -10 3 -17 -2 -17 -5 0 -8 -8 -8 -17 1 -33 -25
-113 -35 -107 -7 4 -7 0 0 -12 5 -11 6 -28 2 -39 -4 -11 -4 -30 1 -41 4 -12 5
-25 2 -28 -3 -3 2 -8 11 -12 12 -5 14 -10 6 -19 -8 -9 -6 -17 5 -29 9 -9 14
-16 10 -16 -3 0 0 -10 7 -22 7 -13 14 -34 15 -48 2 -14 11 -31 20 -37 9 -7 12
-13 5 -13 -9 0 -9 -6 0 -25 6 -14 14 -25 17 -25 3 0 7 -12 8 -26 0 -15 7 -30
15 -35 10 -7 11 -9 0 -9 -10 0 -10 -3 2 -15 8 -8 22 -15 30 -15 9 0 16 -4 16
-9 0 -5 14 -14 30 -21 17 -7 30 -19 30 -28 0 -8 3 -12 7 -9 3 4 18 -3 31 -15
14 -13 22 -17 18 -10 -4 6 -3 12 2 12 6 0 13 -7 16 -16 3 -8 10 -12 16 -9 5 3
10 2 10 -3 0 -6 7 -12 14 -15 11 -4 14 -1 10 11 -2 9 1 7 7 -5 13 -24 42 -38
58 -28 6 3 8 -4 6 -16 -4 -17 -2 -19 11 -8 12 10 19 8 41 -12 14 -13 23 -18
19 -11 -4 6 -2 12 3 12 6 0 11 -5 11 -11 0 -5 5 -7 10 -4 6 3 10 1 10 -5 0 -6
4 -9 9 -6 13 8 42 -4 35 -15 -3 -5 2 -6 11 -2 10 3 21 0 26 -8 7 -12 9 -12 9
0 0 11 4 10 16 -5 15 -19 16 -19 9 0 -6 19 -5 19 13 3 14 -13 21 -14 30 -5 7
7 12 8 12 4 0 -5 7 -3 16 4 8 8 14 9 13 4 -3 -19 1 -34 12 -34 5 0 8 4 5 8 -2
4 5 9 17 9 18 2 19 0 7 -8 -12 -9 -12 -10 3 -5 10 3 21 6 23 6 3 0 3 4 0 9 -4
5 1 8 10 7 8 -1 20 -9 25 -17 7 -12 9 -12 9 1 0 12 2 12 9 2 7 -11 9 -11 14 2
3 8 1 17 -6 19 -7 3 -2 4 11 4 21 -1 33 -17 12 -17 -5 0 -10 -8 -10 -17 0 -15
1 -15 13 2 9 12 19 15 28 10 12 -8 12 -6 0 8 -12 15 -11 17 3 17 9 0 16 -4 16
-10 0 -5 5 -10 12 -10 6 0 3 9 -8 21 -14 15 -15 20 -4 17 8 -2 18 -7 22 -13 5
-6 12 -5 20 4 11 11 11 13 -1 6 -10 -6 -12 -4 -7 4 5 7 16 9 28 5 16 -5 19 -3
12 7 -6 10 -3 10 11 -1 15 -12 17 -12 10 -1 -6 11 -2 13 18 9 20 -4 24 -2 19
11 -5 14 -4 14 13 1 11 -9 16 -10 11 -2 -10 17 4 15 28 -5 12 -10 15 -11 9 -3
-17 18 -17 38 -1 22 13 -13 32 -17 25 -4 -3 4 17 7 43 7 41 0 47 -2 37 -15
-10 -13 -10 -13 4 -3 9 7 19 10 23 6 4 -4 4 1 0 12 -6 16 -5 18 7 9 16 -13 49
-15 49 -2 0 4 -4 8 -10 8 -5 0 -10 4 -10 8 0 4 9 8 20 8 14 0 19 -5 15 -16 -3
-9 1 -8 10 4 15 20 15 20 15 0 0 -14 3 -15 9 -6 6 10 11 10 21 -3 13 -15 15
-15 30 5 15 20 18 20 32 7 9 -10 20 -12 29 -7 8 5 19 4 26 -2 10 -8 13 -6 14
8 1 14 3 13 9 -6 6 -18 8 -20 9 -7 1 12 5 15 14 10 21 -13 38 -12 44 3 4 12 8
12 20 -3 14 -17 14 -17 8 1 -6 19 -5 19 14 2 12 -11 21 -13 25 -7 4 6 14 8 24
5 14 -5 14 -3 -2 6 -15 10 -20 9 -27 -1 -5 -8 -9 -9 -9 -3 0 15 39 49 47 41 3
-4 1 -7 -5 -7 -7 0 -12 -5 -12 -11 0 -5 4 -8 9 -4 5 3 12 2 15 -3 7 -11 66 -8
66 4 0 12 -32 13 -47 1 -9 -6 -13 -6 -13 2 0 10 13 15 33 12 4 0 7 3 7 9 0 5
-5 10 -12 10 -6 0 -9 3 -6 6 4 3 18 -2 32 -11 14 -10 26 -14 26 -10 0 4 8 1
18 -6 15 -13 16 -12 3 3 -7 10 -17 16 -21 13 -23 -14 -30 24 -10 57 11 18 20
27 20 20 0 -7 5 -10 10 -7 6 4 8 10 5 15 -3 4 3 7 12 6 16 -3 22 -17 7 -15 -3
0 -14 -9 -24 -21 -10 -12 -22 -21 -26 -20 -5 1 -10 -4 -13 -11 -2 -6 1 -9 7
-6 5 4 15 0 22 -9 7 -8 19 -13 25 -10 7 2 18 1 25 -4 8 -5 21 -1 33 10 10 10
26 16 35 13 10 -4 13 -2 8 5 -3 6 -2 13 4 17 5 3 10 1 10 -4 0 -17 40 -13 47
5 3 8 11 13 18 11 6 -3 12 1 12 9 0 7 -5 10 -10 7 -6 -3 -7 -1 -3 5 4 7 13 12
21 12 8 0 11 8 8 23 -3 13 -1 17 4 11 4 -6 19 -16 33 -23 22 -11 23 -11 7 2
-17 14 -16 15 3 20 13 3 18 1 14 -6 -3 -7 4 -1 15 12 18 20 21 21 18 5 -1 -11
-7 -26 -12 -34 -7 -12 -6 -13 7 -3 8 7 17 10 20 7 3 -3 4 9 3 26 -1 17 1 33 6
36 9 5 -26 44 -41 44 -5 0 -10 5 -10 12 0 9 -3 9 -12 0 -9 -9 -17 -5 -34 13
-15 16 -29 23 -40 18 -12 -4 -15 -3 -10 5 4 7 1 12 -8 12 -9 0 -16 5 -16 11 0
6 -8 9 -17 7 -10 -2 -24 3 -31 12 -12 13 -13 13 -7 -5 6 -19 5 -19 -17 1 -13
12 -28 20 -35 17 -6 -2 -14 1 -18 6 -4 8 -12 8 -25 1 -15 -8 -18 -7 -14 3 4
10 -2 14 -20 12 -14 -2 -26 1 -26 7 0 6 -6 5 -15 -2 -8 -7 -15 -8 -15 -4 0 5
-13 10 -30 10 -16 1 -27 -2 -24 -7 7 -12 -19 -7 -27 5 -4 5 -13 5 -20 0 -7 -4
-50 -9 -94 -10 -91 -3 -105 -5 -105 -13 0 -3 -10 -7 -22 -8 -13 -1 -45 -4 -73
-8 -27 -4 -56 -7 -62 -8 -7 0 -13 -3 -13 -6 0 -3 -12 -7 -26 -8 -33 -1 -104
-33 -104 -46 0 -5 -7 -6 -16 -3 -15 6 -15 4 -3 -11 8 -10 9 -14 2 -10 -7 5
-17 -1 -23 -13 -6 -11 -15 -18 -21 -14 -5 3 -16 0 -24 -6 -8 -7 -15 -10 -15
-6 0 4 -11 -1 -25 -10 -13 -8 -29 -13 -35 -9 -5 3 -10 1 -10 -4 0 -6 -12 -11
-26 -11 -17 0 -23 -4 -18 -12 5 -8 0 -7 -11 2 -10 8 -16 10 -12 4 9 -16 -38
-24 -54 -10 -9 8 -10 7 -4 -3 5 -9 4 -12 -3 -7 -11 6 -29 12 -72 20 -8 2 -17
0 -20 -5 -3 -4 -10 3 -17 17 -8 18 -8 22 0 17 7 -3 4 3 -6 14 -9 11 -14 23
-10 26 3 4 1 7 -5 7 -7 0 -12 -6 -13 -12 0 -7 -5 -3 -11 10 -10 20 -21 27 -32
20 -2 -2 -12 6 -22 17 -11 12 -15 15 -10 8 6 -10 4 -12 -8 -7 -9 3 -16 10 -16
15 0 5 -5 9 -11 9 -5 0 -7 -6 -3 -12 5 -8 1 -8 -10 1 -15 13 -19 13 -27 0 -8
-10 -9 -8 -4 9 6 22 -9 32 -18 12 -3 -6 -4 -5 -3 2 1 6 -6 20 -16 30 -10 10
-16 24 -12 30 4 7 3 8 -4 4 -6 -4 -8 -14 -5 -23 6 -15 5 -16 -9 -3 -9 8 -14
18 -11 23 2 4 -3 7 -13 7 -13 0 -14 3 -5 14 10 11 8 16 -8 21 -12 3 -21 11
-21 16 0 6 6 7 13 3 9 -6 9 -4 -1 8 -10 13 -10 17 0 21 10 4 10 8 -1 15 -12 9
-12 13 -2 26 11 13 11 16 0 16 -12 0 -12 2 0 9 11 7 10 10 -5 14 -18 4 -18 5
0 6 20 1 20 1 0 16 -10 8 -14 15 -9 14 25 -3 49 2 40 9 -12 8 -13 22 -2 40 5
7 3 12 -5 12 -9 0 -9 3 2 10 11 7 12 10 2 10 -10 0 -10 4 2 15 8 9 12 23 9 32
-5 12 -3 14 8 8 11 -7 11 -5 -1 10 -9 11 -10 16 -2 11 8 -5 12 0 12 14 0 12 4
19 8 16 4 -2 9 4 9 15 1 12 -2 17 -10 12 -7 -3 -4 3 7 15 10 12 23 19 27 16
14 -8 11 10 -3 25 -11 10 -9 11 6 5 13 -5 17 -4 13 3 -7 11 20 28 36 24 5 -1
6 3 2 9 -4 7 -13 6 -28 -1 l-22 -12 20 20 c11 11 23 19 28 16 4 -2 7 3 7 12 0
10 -5 13 -12 9 -7 -4 -8 -3 -4 5 4 6 12 9 17 5 6 -3 9 2 7 12 -2 12 2 18 11
16 7 -1 19 2 25 8 7 5 16 8 20 5 3 -3 2 1 -4 7 -15 18 -12 32 3 19 10 -8 14
-7 14 3 0 8 -10 12 -27 11 -17 -1 -27 3 -27 12 0 9 4 10 10 4 11 -11 39 -3 31
10 -3 5 0 9 5 9 6 0 11 -6 11 -12 0 -9 3 -9 9 1 5 8 7 20 4 28 -3 7 -1 13 5
13 5 0 12 9 15 21 3 12 10 18 16 14 7 -4 8 0 4 11 -4 12 -3 15 5 10 8 -5 10
-2 6 9 -4 10 2 24 15 36 12 11 18 25 15 31 -4 7 -2 8 4 4 6 -3 16 2 21 13 14
26 14 34 -1 25 -8 -4 -8 -2 1 7 10 11 15 11 18 1 3 -6 9 -9 14 -6 6 3 5 11 -2
20 -7 9 -8 14 -3 13 29 -5 58 2 44 11 -13 9 -13 11 0 20 10 6 11 10 3 10 -7 0
-13 5 -13 11 0 5 5 7 10 4 6 -3 10 3 10 14 0 11 5 23 11 26 6 4 8 14 5 22 -3
8 -2 12 2 9 5 -3 16 4 25 15 11 13 13 19 4 19 -8 0 -8 3 2 9 8 5 11 16 8 25
-4 9 -1 15 6 13 7 -1 11 6 11 15 -1 10 3 15 9 11 6 -4 8 0 4 10 -4 11 -1 17 9
17 9 0 12 -5 8 -12 -4 -7 -3 -8 4 -4 6 4 9 13 5 21 -3 9 1 15 11 15 9 0 13 6
10 14 -7 17 31 40 48 30 6 -4 8 -3 4 4 -3 5 0 13 6 16 7 3 2 3 -12 0 -17 -4
-21 -2 -12 4 8 5 13 12 13 16 -2 17 0 19 10 9 14 -14 42 -5 32 10 -4 6 0 8 10
4 10 -3 17 -2 17 4 0 6 5 7 10 4 6 -3 10 1 10 10 0 10 6 15 13 12 8 -3 14 1
14 8 0 23 47 73 76 79 15 3 27 12 27 20 0 10 6 13 17 9 9 -4 14 -2 10 3 -3 5
8 19 24 29 16 11 27 26 24 33 -2 6 3 12 11 12 8 0 12 5 9 10 -3 6 1 10 9 10 9
0 13 7 11 19 -3 14 1 18 11 14 8 -3 14 -2 13 3 -4 22 2 34 17 34 9 0 18 9 21
20 3 11 10 20 15 20 5 0 7 -4 3 -9 -3 -5 8 -3 24 5 19 10 28 20 24 29 -3 11 2
15 18 15 19 0 21 2 9 10 -15 10 -3 14 37 13 6 0 9 5 7 12 -3 7 0 16 7 21 7 4
10 3 5 -4 -4 -6 1 -10 13 -9 16 1 18 4 8 17 -6 8 -7 12 -2 7 4 -4 17 5 27 20
10 16 18 24 18 19 0 -6 7 -1 16 10 8 10 13 14 10 7 -4 -6 -1 -15 5 -19 8 -4 9
-3 5 4 -4 7 -2 12 5 12 8 0 8 4 -1 15 -11 13 -10 14 3 9 10 -3 20 2 27 16 6
11 15 18 21 15 5 -4 9 -2 9 4 0 6 6 8 14 5 7 -3 16 2 19 10 4 9 13 13 22 10
12 -5 14 -2 8 12 -6 17 -5 17 10 5 15 -12 17 -12 11 3 -4 9 -3 16 2 14 18 -5
83 34 89 53 4 11 10 17 15 14 12 -7 41 6 34 16 -3 5 3 6 13 2 16 -6 17 -5 3
12 -14 17 -14 18 9 6 15 -8 21 -9 17 -2 -4 6 -2 11 4 11 6 0 8 5 4 12 -5 8 -2
9 10 5 9 -4 14 -3 11 2 -3 5 -1 12 5 16 5 3 10 -1 10 -9 0 -9 4 -16 10 -16 5
0 6 8 3 18 -6 15 -5 16 12 2 11 -9 16 -10 11 -2 -4 7 0 19 8 28 9 8 16 12 16
7 0 -4 7 3 16 15 13 19 18 21 32 10 12 -10 14 -10 8 0 -4 7 -1 12 9 12 9 0 14
4 10 9 -3 5 -1 12 5 16 5 3 10 1 10 -5 0 -7 5 -6 14 2 8 7 11 17 8 22 -3 5 -1
6 5 3 5 -4 19 2 30 13 12 10 24 16 28 12 4 -4 12 0 18 9 14 18 52 35 41 18 -3
-6 3 -5 14 2 12 7 19 17 16 21 -3 4 3 5 12 1 10 -4 15 -2 11 3 -3 6 8 8 29 6
19 -2 42 2 52 9 14 11 15 11 5 -1 -21 -23 -15 -35 7 -15 20 18 21 18 15 -1 -4
-13 -2 -12 6 4 7 13 17 21 23 19 7 -3 12 8 12 23 1 20 -2 27 -12 23 -8 -3 -16
3 -20 13 -3 11 -10 30 -16 44 -5 14 -9 27 -8 29 1 2 -4 8 -12 13 -10 7 -10 11
4 22 10 7 14 17 10 21 -4 5 2 5 12 1 14 -5 16 -4 8 6 -6 7 -10 17 -9 22 1 5
-8 11 -20 12 -13 2 -23 -1 -23 -7 0 -5 5 -7 12 -3 7 4 8 3 4 -4 -10 -17 -15
-15 -26 11 -5 12 -9 17 -9 11z"/>
<path d="M3990 2491 c0 -5 -13 -11 -29 -14 -31 -6 -90 -62 -92 -87 -1 -8 -3
-22 -3 -30 -1 -8 -8 -14 -15 -12 -7 1 -10 -1 -8 -6 3 -4 -4 -19 -15 -32 -11
-14 -17 -18 -13 -10 4 10 1 9 -8 -2 -8 -10 -19 -18 -26 -18 -6 0 -11 -3 -11
-8 0 -8 -83 -33 -113 -33 -9 0 -15 -4 -12 -10 4 -5 -1 -9 -9 -9 -28 0 -31 -1
-39 -16 -6 -10 -16 -13 -29 -8 -16 5 -20 3 -15 -8 3 -8 -1 -15 -9 -15 -7 0
-11 4 -9 8 3 4 -4 5 -15 2 -11 -3 -20 -10 -20 -15 0 -5 5 -6 12 -2 7 4 8 3 4
-4 -4 -7 -14 -12 -22 -12 -9 0 -12 5 -8 12 4 6 3 8 -4 4 -6 -3 -9 -16 -7 -27
4 -21 4 -21 -17 -3 -21 19 -21 19 -8 -6 13 -24 12 -24 -5 -10 -11 9 -16 10
-11 3 4 -8 2 -13 -4 -13 -6 0 -8 -5 -4 -12 6 -9 3 -9 -9 0 -20 17 -38 7 -30
-15 4 -11 3 -14 -5 -9 -7 4 -12 2 -12 -3 0 -6 -6 -11 -14 -11 -7 0 -19 -13
-26 -30 -7 -16 -16 -27 -20 -25 -8 5 -19 -16 -21 -40 0 -5 -8 -18 -16 -27 -9
-10 -13 -18 -8 -18 4 0 2 -6 -4 -13 -6 -8 -8 -17 -4 -20 3 -4 -2 -9 -11 -13
-9 -3 -16 -15 -16 -25 0 -13 -5 -17 -17 -12 -10 4 -14 2 -9 -5 3 -6 2 -13 -4
-17 -6 -4 -8 -11 -5 -16 4 -5 2 -9 -3 -9 -6 0 -7 -16 -4 -37 3 -21 6 -55 6
-75 1 -21 5 -38 9 -38 5 0 6 -4 3 -8 -3 -5 2 -22 10 -38 9 -16 15 -31 15 -34
-1 -3 2 -5 7 -5 22 -2 51 -18 46 -26 -3 -5 -2 -8 3 -7 4 1 17 -2 28 -8 11 -6
39 -10 62 -9 23 1 41 -1 39 -4 -2 -3 2 -11 9 -18 11 -10 15 -10 18 0 3 7 6 4
6 -6 1 -14 5 -16 20 -7 29 15 35 12 20 -7 -12 -17 -12 -17 6 -1 16 15 17 19 4
35 -12 16 -12 17 1 6 19 -14 31 -14 50 0 13 11 13 10 1 -6 -13 -17 -12 -18 14
-11 20 5 26 4 21 -4 -5 -8 -2 -10 8 -6 9 3 13 11 9 18 -5 8 -3 8 8 0 8 -6 23
-10 34 -8 11 1 23 -2 27 -9 6 -9 8 -9 8 1 0 7 3 11 8 9 4 -3 13 1 20 9 10 11
10 14 0 14 -9 0 -9 3 2 10 11 7 11 10 2 10 -7 0 -11 4 -8 9 3 5 -1 12 -10 15
-8 3 -12 2 -9 -3 3 -5 1 -12 -4 -15 -5 -4 -8 0 -6 6 9 39 18 57 25 53 10 -6 8
15 -3 32 -5 8 -3 11 5 8 9 -4 13 6 12 35 0 22 5 45 11 50 24 20 -1 90 -26 74
-4 -2 -10 0 -13 4 -3 5 10 8 29 7 19 -2 32 1 29 6 -3 5 -10 7 -15 4 -5 -4 -9
-4 -9 -1 0 13 39 26 46 14 5 -7 3 -8 -6 -3 -9 5 -11 4 -6 -4 5 -8 12 -9 19 -2
11 8 42 -11 32 -20 -2 -2 12 -4 31 -4 33 0 41 5 27 18 -3 4 -12 2 -19 -4 -8
-7 -14 -6 -20 2 -4 7 -3 9 4 5 6 -3 14 -1 17 5 5 7 16 2 32 -13 22 -20 23 -21
17 -3 -5 17 -4 17 10 -3 10 -12 22 -20 27 -17 16 11 10 -9 -17 -50 -23 -36
-23 -37 -2 -13 16 19 31 26 45 24 16 -4 20 -1 16 11 -5 12 -7 12 -15 1 -8 -10
-9 -10 -5 2 2 9 13 14 27 12 17 -3 21 0 17 12 -4 11 -1 13 11 9 14 -5 14 -3
-3 17 l-20 23 30 -19 c30 -18 30 -18 15 1 -14 17 -13 18 2 12 13 -4 16 -1 13
14 -2 12 2 19 11 19 8 0 12 4 9 10 -3 6 1 7 9 4 9 -3 16 -1 16 5 0 6 7 11 15
11 8 0 14 6 13 13 -2 6 2 11 8 10 7 -1 10 20 9 58 -2 47 1 59 11 55 8 -3 14
-1 14 5 0 6 6 7 13 3 8 -5 7 -2 -2 9 -12 15 -12 17 4 11 13 -5 16 -4 11 5 -9
14 15 11 27 -4 5 -5 5 0 2 13 -5 18 -2 22 16 22 12 0 19 3 16 6 -3 4 0 16 8
27 12 16 12 24 2 36 -11 14 -10 14 6 2 15 -12 17 -11 18 5 0 11 3 14 6 6 3 -7
-1 -19 -7 -27 -7 -8 -8 -15 -4 -15 5 0 15 9 22 20 7 11 18 20 25 20 8 0 7 -4
-3 -10 -12 -7 -10 -9 8 -7 12 1 21 6 18 12 -2 6 5 12 16 12 17 2 18 0 6 -15
-11 -15 -11 -15 3 -5 9 7 20 9 24 5 5 -4 5 -2 2 5 -5 7 0 9 14 6 16 -4 18 -8
7 -14 -9 -7 -7 -8 7 -6 11 1 25 6 31 10 7 4 17 0 24 -8 11 -14 15 -14 36 0 29
19 34 19 34 -1 0 -9 -5 -12 -12 -8 -7 4 -8 3 -4 -5 6 -9 11 -9 22 0 7 6 12 15
9 19 -6 10 15 8 32 -3 6 -4 13 -4 15 1 1 4 12 -1 22 -12 13 -13 15 -18 4 -14
-8 3 -15 1 -15 -6 0 -7 18 -11 46 -11 41 0 45 2 45 24 0 14 -5 26 -11 28 -7 3
-10 -5 -9 -19 2 -17 -2 -24 -14 -24 -10 0 -16 6 -13 13 3 7 10 13 15 13 6 0 4
8 -3 17 -10 11 -10 14 -1 9 7 -4 12 -2 12 5 0 8 4 8 15 -1 9 -8 15 -9 15 -2 0
6 -4 14 -10 17 -5 3 -10 12 -9 18 0 9 2 8 6 -1 2 -6 8 -10 13 -7 4 3 7 -14 5
-37 -2 -34 -1 -39 7 -23 5 12 19 27 31 34 12 8 19 10 15 6 -4 -4 4 -19 18 -32
22 -20 19 -29 -9 -24 -20 3 -48 -21 -38 -33 7 -9 7 -16 -2 -25 -9 -10 -6 -10
15 -2 24 9 26 8 23 -10 -3 -17 -1 -19 10 -9 9 8 15 8 20 0 3 -6 12 -7 18 -3 7
4 6 0 -2 -10 -7 -9 -11 -18 -7 -18 3 -1 10 -2 14 -3 16 -2 41 -34 34 -42 -4
-5 1 -2 11 5 15 12 17 12 11 -2 -4 -12 -1 -15 15 -12 12 2 21 -1 21 -9 0 -7
12 -23 27 -37 14 -13 23 -18 18 -10 -5 9 -4 12 3 7 7 -4 12 -16 12 -27 0 -13
7 -19 21 -19 11 0 17 -4 14 -10 -3 -5 -1 -10 5 -10 6 0 8 -4 5 -10 -3 -5 -2
-10 2 -10 5 0 18 -7 29 -16 10 -8 14 -13 7 -10 -6 4 -14 2 -18 -4 -3 -5 -2
-10 4 -10 6 0 25 -16 42 -35 18 -19 37 -32 43 -28 6 3 8 3 4 -2 -8 -9 18 -65
31 -65 5 0 14 7 21 15 8 9 8 15 2 15 -6 0 -13 -6 -15 -12 -3 -7 -6 -8 -6 -3 0
6 4 17 9 25 13 19 30 -3 23 -30 -3 -10 1 -22 9 -26 13 -9 18 -10 39 -13 5 0 8
-5 5 -9 -2 -4 5 -9 17 -9 12 -1 23 -7 25 -13 2 -5 8 -10 14 -10 6 0 17 -8 25
-17 8 -10 12 -12 8 -6 -4 9 -1 11 10 7 9 -4 14 -12 11 -19 -3 -9 2 -11 16 -7
13 3 19 1 15 -5 -4 -6 0 -14 9 -17 8 -3 12 -11 8 -17 -4 -8 -3 -9 5 -5 6 4 8
12 5 18 -4 7 -2 8 4 4 7 -4 12 -15 13 -24 0 -11 2 -12 6 -4 3 8 14 2 33 -18
15 -16 30 -26 34 -23 3 3 6 -2 6 -13 0 -16 2 -17 10 -4 8 13 10 12 10 -3 0
-10 5 -15 10 -12 6 3 10 -1 10 -9 0 -9 9 -21 20 -28 11 -7 20 -20 20 -28 0
-13 1 -13 10 0 8 13 10 12 10 -3 0 -10 3 -16 8 -14 10 7 32 -19 24 -29 -4 -4
1 -4 11 -1 11 4 16 3 12 -3 -3 -6 1 -13 9 -16 9 -3 16 -13 16 -21 0 -8 8 -17
18 -20 10 -2 24 -17 31 -34 7 -16 17 -27 22 -23 5 3 9 -2 9 -10 0 -9 5 -16 10
-16 6 0 10 -7 10 -17 0 -9 3 -13 7 -10 3 4 22 -21 41 -55 19 -34 42 -69 51
-76 11 -10 12 -11 1 -6 -8 4 -3 -5 13 -21 15 -15 27 -31 27 -35 0 -4 12 -6 28
-4 15 1 33 2 41 3 11 1 10 5 -5 17 -18 15 -18 15 3 9 18 -5 22 -3 17 9 -3 9
-1 16 5 16 6 0 11 9 11 20 0 11 4 20 10 20 5 0 6 7 3 17 -4 11 -3 14 5 9 7 -4
10 -2 6 7 -3 8 3 20 12 28 15 12 16 11 10 -11 -6 -21 -5 -22 4 -8 6 10 16 18
21 18 6 0 8 -4 4 -9 -3 -5 0 -13 6 -17 8 -4 9 -3 5 4 -10 16 6 15 24 -1 12
-10 12 -9 1 5 -12 16 -9 22 10 20 4 -1 9 10 12 23 2 14 0 25 -6 25 -6 0 -7 3
-4 6 3 4 1 16 -5 28 -15 26 -17 55 -6 62 5 3 8 2 7 -3 -3 -19 2 -33 12 -33 6
0 8 7 5 16 -5 14 -4 15 9 4 16 -13 21 -1 16 45 -2 20 -2 20 13 0 15 -19 15
-19 11 5 -4 23 -3 23 9 7 13 -17 14 -16 19 3 3 12 1 18 -5 14 -7 -5 -9 3 -4
22 4 16 12 31 18 33 5 2 -1 9 -14 16 -14 7 -27 8 -35 3 -7 -6 -17 -7 -23 -3
-6 4 -9 1 -8 -5 2 -7 -5 -14 -15 -15 -11 -2 -22 -7 -25 -11 -4 -4 1 -4 11 -1
9 4 17 2 17 -2 0 -5 -5 -11 -12 -13 -6 -2 -13 -22 -15 -44 -5 -62 -6 -64 -15
-64 -4 0 -8 7 -8 16 0 8 -4 12 -10 9 -5 -3 -12 5 -16 19 -3 13 -15 27 -26 30
-18 4 -19 8 -9 20 10 12 9 14 -10 9 -15 -4 -20 -3 -15 5 4 7 1 12 -9 12 -9 0
-26 10 -39 23 -12 12 -43 38 -67 58 -55 46 -111 99 -103 99 2 0 -6 11 -20 25
-14 14 -28 25 -32 25 -9 0 -44 41 -44 52 0 5 -4 7 -9 3 -5 -3 -16 4 -25 16 -9
13 -19 18 -27 14 -8 -5 -10 -4 -5 3 4 7 2 12 -3 12 -6 0 -11 6 -11 14 0 7 -9
16 -21 19 -14 4 -18 10 -13 18 5 9 2 10 -9 6 -11 -4 -17 -1 -17 8 0 8 -6 15
-13 15 -7 0 -28 15 -47 34 -19 19 -38 32 -42 29 -5 -2 -8 3 -8 12 0 10 -5 13
-12 9 -6 -4 -8 -3 -5 3 8 12 -17 36 -26 26 -4 -3 -7 -1 -7 6 0 7 -5 9 -12 5
-6 -4 -8 -3 -5 3 4 6 -19 38 -51 72 -73 78 -84 91 -77 91 3 0 -8 14 -26 31
-18 18 -28 36 -25 45 3 8 2 12 -4 9 -5 -3 -16 8 -24 24 -12 23 -13 31 -3 35 8
4 7 5 -3 5 -42 -3 -55 1 -40 11 13 9 12 12 -4 25 -11 8 -16 15 -12 15 5 0 -13
20 -38 45 -26 25 -51 45 -55 45 -3 0 -13 9 -21 20 -8 11 -22 20 -32 20 -10 0
-18 5 -18 11 0 6 -7 9 -15 5 -8 -3 -15 -1 -15 5 0 6 -7 8 -16 5 -8 -3 -12 -2
-9 4 6 9 1 11 -37 14 -7 1 -19 8 -26 16 -12 13 -13 13 -6 0 6 -12 5 -13 -7 -4
-8 6 -36 10 -62 10 -27 -1 -51 2 -54 7 -2 4 -12 2 -21 -5 -10 -8 -13 -9 -9 -1
4 6 3 14 -3 18 -5 3 -10 1 -10 -5 0 -6 -5 -8 -12 -3 -21 13 -50 14 -42 2 4 -8
1 -8 -12 -2 -11 6 -49 9 -86 8 -38 -1 -68 2 -68 6 0 4 -8 6 -17 4 -10 -1 -22
0 -28 4 -18 10 -35 10 -42 -1 -4 -7 -1 -8 7 -3 9 5 11 4 6 -4 -4 -6 -13 -8
-19 -4 -22 14 -77 10 -77 -5 0 -11 -3 -10 -16 2 -18 19 -28 21 -18 4 5 -8 2
-9 -10 -5 -14 6 -17 3 -12 -10 6 -14 4 -14 -15 3 -12 10 -19 14 -15 7 4 -8 -3
-15 -21 -19 -15 -4 -34 -12 -42 -18 -12 -9 -13 -8 -6 4 8 13 7 13 -8 1 -12 -9
-17 -10 -17 -2 0 7 -5 9 -11 5 -7 -4 -10 -2 -7 6 7 23 -47 70 -81 70 -17 0
-31 -4 -31 -9z"/>
<path d="M7000 2349 c0 -5 -16 -9 -35 -9 -19 0 -35 -4 -35 -8 0 -4 -9 -8 -19
-9 -11 -1 -38 -13 -60 -27 -22 -14 -45 -26 -50 -26 -6 0 -14 -6 -18 -14 -4 -8
-15 -16 -23 -18 -8 -2 -21 -9 -28 -16 -8 -7 -18 -10 -23 -7 -5 4 -9 2 -9 -3 0
-5 -13 -15 -29 -22 -16 -6 -45 -26 -65 -44 -19 -18 -38 -31 -41 -28 -3 3 -5
-2 -5 -12 0 -9 -4 -14 -10 -11 -5 3 -10 -1 -10 -9 0 -9 -4 -16 -10 -16 -5 0
-10 -5 -10 -11 0 -7 -8 -18 -17 -26 -12 -10 -13 -12 -3 -8 9 4 7 0 -4 -9 -10
-8 -15 -20 -10 -27 4 -7 3 -10 -3 -6 -6 4 -14 -4 -17 -18 -4 -16 -11 -23 -18
-19 -7 4 -8 3 -4 -5 4 -6 2 -18 -4 -26 -10 -12 -10 -15 1 -15 9 0 10 -3 3 -8
-6 -4 -17 -25 -24 -47 -7 -22 -16 -44 -19 -50 -4 -5 -6 -20 -5 -32 0 -12 -4
-21 -10 -20 -6 1 -11 -17 -12 -45 -1 -26 2 -45 7 -42 5 3 10 -9 10 -25 2 -35
2 -39 14 -64 6 -15 10 -15 23 -5 10 8 13 8 9 2 -11 -19 19 -24 44 -6 21 14 22
14 16 -1 -3 -9 -2 -17 3 -17 5 0 10 8 12 18 2 9 12 17 23 18 41 2 103 43 91
62 -3 5 6 15 19 22 13 7 21 18 18 24 -4 6 2 4 12 -4 17 -14 18 -13 13 7 -5 21
-4 22 15 11 20 -10 21 -10 9 5 -12 14 -11 16 8 12 18 -4 20 -2 9 11 -10 12 -9
13 4 9 8 -4 18 -1 22 4 3 6 11 9 16 5 5 -3 9 -2 8 3 -4 22 3 25 17 7 8 -10 13
-14 10 -8 -6 13 8 27 37 37 12 4 16 3 11 -4 -5 -8 -1 -8 13 0 11 6 23 7 27 4
3 -3 6 -1 6 7 0 10 3 10 14 1 10 -8 16 -9 21 -1 3 6 11 8 16 5 5 -4 6 2 2 11
-5 14 -3 16 13 10 15 -5 16 -4 7 5 -6 6 -9 18 -6 25 3 8 -2 17 -11 20 -9 3
-13 10 -10 15 3 5 -2 9 -10 9 -20 0 -20 14 -1 30 10 9 15 9 15 1 0 -8 6 -7 20
1 17 11 22 11 29 0 8 -13 37 -12 59 1 7 5 12 3 12 -5 0 -9 3 -9 10 2 8 13 10
13 10 1 0 -12 3 -12 12 -3 19 19 32 14 17 -5 -7 -10 0 -6 17 10 17 15 37 27
46 27 9 0 20 5 23 10 4 6 12 7 18 3 16 -10 57 -11 51 -1 -11 18 8 6 42 -24 20
-18 46 -33 57 -33 12 0 25 -4 29 -10 5 -6 8 -3 8 7 0 14 5 16 23 9 12 -5 21
-13 20 -18 -1 -5 4 -10 12 -10 8 0 12 4 9 8 -2 4 1 11 7 15 8 5 9 3 4 -6 -6
-10 -4 -12 10 -6 14 5 16 4 6 -7 -11 -14 31 -44 53 -38 5 1 16 -1 25 -5 26
-12 41 -13 35 -3 -3 5 -10 6 -16 3 -7 -4 -8 -2 -4 4 7 12 36 5 36 -8 0 -4 7
-11 16 -14 13 -5 14 -3 6 6 -8 10 -4 13 19 13 20 1 28 -3 25 -12 -3 -7 -1 -13
4 -13 6 0 10 6 10 14 0 8 4 17 9 21 6 3 8 -4 6 -16 -4 -21 -4 -21 17 -3 12 11
18 13 13 5 -6 -10 -4 -12 6 -5 20 12 40 14 33 3 -6 -10 -8 -10 61 -13 63 -3
67 -4 62 -13 -3 -5 17 -8 44 -8 27 0 49 3 49 7 0 4 14 2 30 -3 17 -6 30 -15
30 -21 0 -5 5 -6 10 -3 6 3 10 1 10 -4 0 -6 5 -11 10 -11 6 0 21 -11 34 -25
13 -13 26 -22 29 -18 4 3 7 -2 7 -11 0 -12 5 -16 15 -12 8 3 14 0 12 -7 -1 -7
4 -11 12 -9 9 2 11 -3 7 -13 -3 -9 -2 -14 2 -11 9 6 72 -48 72 -61 0 -5 9 -15
20 -23 11 -8 20 -20 20 -27 0 -6 10 -19 22 -27 12 -9 19 -16 15 -16 -17 0 69
-73 102 -87 18 -8 35 -23 38 -33 3 -11 9 -17 14 -14 5 3 14 -6 20 -20 7 -14
16 -23 20 -20 5 3 9 1 9 -4 0 -5 25 -34 55 -63 30 -30 55 -59 55 -65 0 -7 7
-14 15 -18 8 -3 15 -12 15 -21 0 -8 5 -15 11 -15 5 0 7 -4 4 -10 -3 -5 1 -10
9 -10 9 0 13 -7 11 -20 -2 -11 0 -22 4 -25 5 -2 8 -23 7 -45 -1 -22 0 -40 3
-40 4 0 6 -26 7 -57 0 -34 5 -58 12 -61 7 -2 9 -8 6 -13 -3 -6 2 -21 10 -34
12 -19 13 -25 4 -25 -8 0 -9 -3 -3 -8 6 -4 10 -18 10 -32 -1 -14 2 -30 6 -35
4 -6 4 -17 -1 -25 -5 -8 -4 -22 2 -33 5 -11 6 -17 1 -14 -4 3 -8 -9 -7 -26 1
-34 -29 -92 -51 -101 -8 -3 -15 -12 -15 -21 0 -8 -5 -15 -11 -15 -6 0 -9 -6
-6 -14 3 -8 1 -16 -5 -18 -6 -2 -13 -15 -15 -29 -2 -13 -8 -25 -13 -27 -5 -2
-12 -19 -16 -38 -3 -19 -11 -34 -16 -34 -6 0 -5 -6 2 -15 12 -14 7 -19 -15
-16 -5 1 -2 -5 7 -12 14 -11 15 -16 5 -27 -10 -10 -9 -12 5 -7 12 4 16 1 13
-12 -2 -10 3 -18 10 -18 8 0 12 4 9 9 -5 8 19 13 41 8 6 -1 5 4 -2 11 -18 18
-5 43 16 27 9 -8 8 -3 -4 11 -11 13 -20 26 -20 30 0 3 -3 5 -7 4 -4 -2 -4 5
-1 14 4 11 8 13 11 5 2 -7 8 -10 12 -7 5 3 12 0 16 -6 4 -7 3 -9 -3 -6 -5 3
-10 0 -10 -8 0 -11 5 -10 24 2 26 17 31 28 9 20 -9 -4 -14 0 -14 11 0 9 -2 26
-6 37 -4 11 0 8 9 -7 17 -31 33 -36 41 -13 4 8 11 12 18 8 6 -3 6 -1 -1 8 -22
23 -14 33 10 13 l22 -19 -19 22 c-20 24 -41 21 -32 -4 4 -9 2 -11 -6 -7 -6 4
-8 3 -4 -4 3 -6 2 -13 -3 -17 -9 -5 -9 3 1 45 1 8 -3 14 -10 12 -8 -1 -11 2
-8 7 3 5 12 8 19 6 37 -9 57 -18 57 -26 0 -5 6 -9 13 -9 6 0 -2 13 -19 28 -34
29 -38 76 -11 119 5 7 5 19 1 25 -5 10 -4 10 6 1 11 -10 11 -15 1 -27 -11 -13
-8 -15 23 -11 19 3 38 0 41 -5 4 -7 -3 -9 -20 -6 -32 6 -57 -2 -49 -16 4 -6
10 -5 15 3 4 7 11 10 16 6 4 -5 1 -12 -6 -16 -11 -7 -11 -10 0 -14 10 -4 10
-6 2 -6 -7 -1 -13 -6 -13 -12 0 -8 4 -9 13 0 8 6 17 8 20 4 4 -3 -1 -11 -10
-18 -17 -13 -10 -36 10 -34 9 0 9 2 0 6 -7 2 -13 9 -13 14 0 6 4 8 9 5 4 -3
13 6 19 19 9 19 8 23 -1 19 -8 -3 -13 4 -14 17 -1 15 1 18 10 11 8 -7 16 -5
25 4 8 9 9 14 2 14 -6 0 -9 4 -5 9 3 5 1 12 -4 16 -6 3 -7 13 -4 23 6 15 5 15
-10 3 -9 -7 -14 -17 -11 -22 3 -5 0 -9 -5 -9 -17 0 -13 11 11 37 12 13 17 23
11 23 -6 0 -16 -7 -23 -15 -7 -8 -16 -15 -20 -15 -5 0 4 13 18 29 47 51 51 58
40 69 -6 6 -7 16 -2 24 5 7 9 19 10 26 5 31 15 44 30 38 9 -3 12 -2 9 5 -4 5
-19 8 -33 6 -15 -2 -22 -2 -15 0 21 7 42 103 23 103 -12 0 -19 -39 -9 -46 5
-3 6 -10 3 -16 -4 -6 -13 4 -20 22 -16 38 -18 51 -3 30 8 -12 9 -10 7 10 -2
14 -7 29 -13 33 -6 5 -2 6 8 3 13 -4 16 -2 10 7 -4 6 -9 20 -10 31 -3 16 -1
17 14 5 12 -10 15 -11 9 -1 -4 7 -2 20 6 29 9 12 9 15 1 9 -7 -4 -13 -2 -13 3
0 6 -5 11 -11 11 -8 0 -8 -5 1 -15 10 -12 9 -15 -4 -15 -10 0 -14 5 -11 10 3
6 0 10 -7 10 -10 0 -9 3 1 9 12 8 13 14 2 37 -11 25 -11 26 4 14 14 -12 15
-10 5 15 -6 15 -8 36 -5 46 4 11 2 19 -5 19 -6 0 -8 5 -5 10 3 6 1 10 -6 10
-7 0 -9 3 -6 7 4 3 1 13 -6 21 -10 13 -9 14 3 7 13 -8 13 -6 1 8 -7 9 -17 14
-22 11 -5 -3 -9 1 -9 8 0 7 -14 27 -30 45 -17 18 -30 36 -30 40 0 5 -9 15 -20
23 -11 8 -20 20 -20 26 0 7 -7 15 -16 18 -9 4 -14 9 -11 12 3 3 -5 18 -19 33
-13 14 -31 33 -39 42 -8 9 -15 21 -15 27 0 6 -9 13 -19 17 -13 4 -18 13 -16
30 2 20 -1 23 -11 15 -9 -9 -12 -7 -10 7 2 10 0 20 -5 23 -4 3 -9 12 -11 20
-2 8 -11 23 -21 32 -11 9 -16 21 -13 27 3 5 3 11 -1 13 -16 7 -62 76 -55 83 4
3 0 5 -8 3 -8 -2 -14 2 -15 7 0 6 -9 19 -20 31 -11 11 -27 31 -35 44 -8 12
-25 33 -37 45 -12 13 -19 26 -16 29 4 3 -1 6 -9 6 -9 0 -19 7 -22 16 -3 8 -11
12 -17 8 -7 -4 -9 -3 -6 3 3 5 -7 20 -24 32 -17 12 -27 27 -23 33 5 7 1 9 -9
5 -13 -5 -17 -1 -17 16 0 18 -2 19 -10 7 -8 -13 -10 -12 -10 3 0 9 -4 17 -10
17 -5 0 -10 7 -10 15 0 8 -4 15 -10 15 -5 0 -10 8 -10 18 0 35 -83 74 -102 48
-7 -11 -49 -16 -43 -6 2 4 -3 7 -11 7 -8 0 -13 -6 -10 -13 9 -23 -6 -23 -30 2
-14 13 -37 27 -51 30 -15 4 -38 13 -52 20 -13 7 -28 11 -33 8 -4 -3 -8 -1 -8
3 0 5 -15 10 -32 11 -54 4 -65 7 -84 22 -11 9 -15 10 -10 3 4 -7 2 -13 -3 -13
-6 0 -11 4 -11 9 0 6 -8 10 -17 10 -24 0 -51 6 -59 13 -3 4 -12 4 -20 1 -8 -3
-14 0 -14 6 0 7 -8 7 -26 0 -25 -9 -26 -8 -13 8 7 10 10 15 5 11 -4 -3 -20 -3
-36 2 -18 5 -32 4 -40 -3 -7 -7 -10 -7 -7 -2 3 6 -1 19 -9 29 -12 17 -16 17
-31 5 -9 -8 -14 -9 -10 -3 4 7 -1 18 -10 25 -10 8 -14 9 -10 2 4 -6 3 -14 -3
-18 -5 -3 -10 -1 -10 6 0 8 -3 9 -13 0 -8 -6 -17 -8 -20 -4 -12 11 -127 11
-127 -1 0 -6 -4 -5 -9 3 -8 12 -12 12 -25 2 -9 -8 -16 -9 -16 -4 0 12 -6 13
-97 17 -40 2 -73 -1 -73 -5z"/>
</g>
</svg>
