<?xml version="1.0" encoding="UTF-8" standalone="no"?>
<svg
   version="1.0"
   width="1024.000000pt"
   height="1024.000000pt"
   viewBox="0 0 1024.000000 1024.000000"
   preserveAspectRatio="xMidYMid meet"
   id="svg14"
   sodipodi:docname="ゑ.svg"
   xmlns:inkscape="http://www.inkscape.org/namespaces/inkscape"
   xmlns:sodipodi="http://sodipodi.sourceforge.net/DTD/sodipodi-0.dtd"
   xmlns="http://www.w3.org/2000/svg"
   xmlns:svg="http://www.w3.org/2000/svg">
  <defs
     id="defs18" />
  <sodipodi:namedview
     id="namedview16"
     pagecolor="#ffffff"
     bordercolor="#666666"
     borderopacity="1.0"
     inkscape:pageshadow="2"
     inkscape:pageopacity="0.0"
     inkscape:pagecheckerboard="0"
     inkscape:document-units="pt" />
  <metadata
     id="metadata2">
Created by potrace 1.16, written by Peter Selinger 2001-2019
</metadata>
  <g
     transform="translate(0.000000,1024.000000) scale(0.100000,-0.100000)"
     fill="#000000"
     stroke="none"
     id="g12">
    <path
       d="m 3147,10038 c -148.6394,-204.9309 -42.7757,-500.758 244,-633 132.7326,-78.4618 575.2081,-168.0111 449,-215 47.6705,-17.3069 154.6359,38.5166 190,45 123.3043,131.0029 338.0366,-61.6852 213,-42 90.1688,2.3936 338.2989,74.7307 262.125,42.375 22.2138,-224.9025 -84.1393,-969.2923 24.875,-749.375 -18.1709,-95.4208 -143.0171,-376.8133 -101,-269 -196.0366,-194.8847 -240.453,-321.9114 -187,-263 -65.0515,-114.8879 -630.3926,-756.2935 -275,-420 -92.52,-157.7319 -520.061,-524.9011 -383,-391 -50.6334,-88.2582 -197.3049,-291.2053 -192,-248 -129.4844,-56.626 -227.6046,-298.1843 -231,-220 -129.27,-148.3827 -342.0583,-317.1331 -301,-284 -119.0742,-94.842 -474.7946,-302.297 -336,-251 -173.0767,-28.9811 -292.6254,-441.797 -317,-286 -101.0409,-138.7602 58.3899,-253.8439 65.875,-121.25 134.5611,-95.8215 338.6589,104.076 251.125,66.25 48.9984,6.9991 315.8262,11.6795 146,-49 128.1265,76.0017 330.7801,404.2624 303,303 98.2074,0.7457 277.7686,26.044 141.2656,40.4688 97.9662,1.3538 150.5573,-18.4173 167.7344,16.5312 -60.403,-77.1881 -178.0036,-101.0199 -109.5,-51.375 -93.8133,-41.8502 -258.4883,-78.2088 -201.375,-84.625 -83.2457,-88.4258 224.9313,51.3195 183.875,26 36.0046,13.5823 242.1773,47.8834 194.75,56 81.4716,23.7656 288.9168,55.8844 211.25,44 17.4769,112.4348 239.6718,125.4323 144.125,65.125 -32.5693,-57.7732 142.6844,-6.0731 -31.125,-65.125 70.8452,41.6695 316.8753,130.4749 236,140 141.0704,37.0957 523.1945,120.8383 350,115 128.2587,7.3245 466.3021,-51.5698 362.5,36.375 72.3591,33.3302 200.5895,2.2978 127.5,2.625 44.6536,54.5644 332.5753,-81.928 235,-46 146.0643,-13.5805 389.467,-406.9047 310,-228 44.057,-201.3994 23.6882,-701.406 160.625,-534.625 -133.9579,-197.8991 327.991,65.4634 322.375,-107.375 60.6475,209.1043 -101.536,883.5452 -74,665 -63.2071,212.943 -129.1875,421.4145 6,139 129.0191,-144.2419 243.8448,-256.7829 318,-284 106.7068,-51.5358 186.7558,-174.5134 232.625,-230.625 30.6914,-51.0029 145.3661,-275.399 108,-182.25 58.2278,-159.284 136.7595,-361.8879 196.75,-539.375 C 6553.2249,4821.3192 6449.7129,4138.1998 6513,4363 6464.9669,4017.0558 6006.7838,4716.6694 6081.875,4606.375 5935.1129,4677.8952 5398.9343,5039.2608 5575,4901 c -323.9643,136.2468 -722.4695,111.1265 -1058,7 -173.1138,-85.3594 -396.6022,-151.7606 -490,-361 -162.1237,-57.3507 46.086,-724.2162 -31,-395 22.1848,-129.8082 185.8574,-391.7879 109,-272 33.7231,-101.0743 348.6706,-158.8671 265,-130 120.5221,30.753 431.152,-11.1822 330,-7 15.0333,-48.968 326.9912,-57.0071 250,-41 80.8341,4.1832 -6.5344,-208.2105 113,-108 -96.8452,-83.3638 186.0827,-302.3541 23,-305 53.6577,9.4497 206.3412,35.3205 150,24 53.7353,14.0874 113.1616,112.2448 189,43 122.3047,14.6496 410.5107,70.172 248,68.5 122.7215,40.4153 159.0354,-35.6865 123,-36.5 -4.4286,-43.1472 228.6285,35.3412 202,20 83.1315,34.4196 220.8432,46.7726 153,30 72.6211,19.9616 275.7611,34.905 196.875,53.375 101.6305,81.7708 239.2534,180.2171 192.125,138.625 184.5222,-140.4873 165.6706,-417.2075 280,-617 97.6157,-103.8718 70.2957,187.7529 108,118 -80.2738,213.5537 89.5199,32.0198 99,170 5.0531,86.5224 36.9162,198.677 -10,136 232.2246,-138.2754 137.7664,-30.1763 36,129 -121.623,113.0269 -122.2978,572.1388 -270.375,450.625 38.2031,19.3052 110.3272,266.6371 100.875,191.125 74.3825,60.6794 150.8237,609.0458 160.5,463.25 41.7046,89.2246 9.1244,495.381 2,384 22.6658,166.5333 -92.8772,640.39 -70,462 -45.7741,145.8626 -82.8194,234.4269 -166,366 -87.4284,186.0832 -437.0473,471.6097 -300,352 -271.0226,330.2618 -709.2767,440.9089 -990,755 -173.8606,140.8059 -701.6926,548.4577 -532,411 -150.234,51.8045 -498.5147,-4.9229 -397,3 229.9569,-164.2308 22.0016,161.5176 -71,41 95.9942,246.8918 349.9087,417.3843 440,645 119.2021,249.0661 141.7903,596.0106 105.625,887.25 -48.2822,268.9231 -194.7191,524.9356 -447.375,640 -265.083,181.015 -1169.844,213.9907 -755.4473,159.0547 C 3699.2599,9752.6031 3300.6538,9916.6992 3360,9875 c -45.8171,-18.276 -221.1127,345.466 -213,163 z M 4476,7265 c 18.5523,-55.5068 42.3074,-83.4449 42,-99 71.4263,-79.4694 376.9891,-116.2735 281,-116 30.8018,-16.3242 324.2742,-164.8723 244.375,-113 133.8684,-107.5899 91.778,-82.1115 202.875,-170.75 -78.3842,30.3682 -306.1818,63.2107 -332.5,51.25 -391.5674,109.5841 -867.1165,56.4279 -804.75,59.5 -160.4516,-14.1867 -158.5217,-113.6321 -179.875,-99 -151.2718,-66.7874 -428.3361,-191.3534 -250.625,-125 -102.2929,-114.8399 106.0488,79.2062 76.5,68 9.0472,68.6037 395.4371,189.2805 246,149 119.2004,228.585 200.0061,-28.3319 207,226 135.6708,36.334 155.689,220.6142 268,169 z m 334,-2711 c 94.0527,-42.7355 365.8354,-71.3963 293.125,-39.375 44.0809,-28.7259 353.1937,-206.1485 264.875,-157.625 37.8803,-44.5375 300.9399,-22.404 254,-16 110.1363,-57.7298 415.4885,-379.313 376,-279 69.6424,46.1627 -80.5307,-128.5023 36,-107 -100.7982,-84.5296 -243.087,13.1225 -200.25,11.5 7.4923,128.6286 -305.5893,29.0518 -243.75,50.5 -213.9336,-57.9738 -297.9466,-287.1914 -418.25,42.75 -76.2436,167.7178 -529.123,25.3797 -440.75,127.25 -128.1302,95.4487 -176.7353,80.1817 -120,-49 -71.4261,78.3164 -114.6177,51.1694 -58,-22 -56.2945,32.2307 -280.0986,279.2232 -155,214 45.423,140.3992 337.2665,331.177 287,209 54.6314,13.6474 90.3829,38.7746 125,15 z"
       id="path4" />
    <path
       d="m 3681,3831 c -209.9512,-103.798 -210.5351,-267.4546 -332,-204 -101.6437,-53.6513 -211.609,-85.7812 -304,-145 -241.8238,-93.6437 -464.7149,-226.8658 -693,-371 C 2224.7089,2953.1431 1786.2038,2596.2974 1951,2740 1817.2638,2569.9104 1484.2563,2280.8694 1659.625,2349.125 1506.3114,2124.8118 1463.3301,1983.3803 1482,2014 c -113.4001,-187.2813 -198.7379,-410.0582 -185,-633 51.7392,-146.802 321.4075,-429.1542 208,-381 135.715,-72.31299 290.2699,-157.42122 463,-193 53.7585,1.41504 250.5295,-12.45681 190,-6 11.2405,52.84482 327.0682,79.68167 144.75,55.5 16.037,72.98458 287.175,21.73304 229.125,33.5 53.6778,38.04505 187.1614,26.49277 177.125,25 116.1967,-18.23329 268.1657,10.31312 259,17 39.6959,-10.42392 267.6327,8.07621 182,33 101.0323,53.8039 195.0671,149.8512 158.75,104.5 170.8997,5.7561 -110.157,170.0571 -11.75,140.5 -54.1898,39.4665 -389.5629,98.8703 -287,88 -355.0757,-45.5493 -397.9744,99.5203 -608,-105.2031 -108.1197,-81.2941 -511.4962,-60.1066 -372,-98.7969 -136.5986,143.9358 -91.0063,74.1956 -230,156 -52.1262,55.6704 -138.959,97.1977 -99,124 -16.2628,66.6739 44.3801,278.0736 29,209 -9.5797,38.7478 96.9893,252.3534 63,200 -20.8423,-20.8897 387.7159,431.1864 118,162 -27.0483,51.9315 130.1447,234.903 29.25,109.375 -11.758,15.1894 61.9863,102.2507 33.75,93.625 -16.6848,-99.6677 49.2626,61.3494 41,-2 67.2978,39.0423 -70.5483,65.5536 -34,52 100.9641,37.1407 170.508,115.7288 64,78 122.5226,-8.0762 122.6959,161.2007 180.875,178.125 37.156,104.9188 229.3613,200.5813 138.375,152.5 31.5901,19.0236 184.9902,181.259 151.75,151.375 135.1938,88.7928 313.4552,252.3243 242.625,219 -5.8897,34.3218 315.6689,281.0636 261.375,213 108.8018,82.9683 373.8024,118.7301 258,122.5 -34.8927,89.9105 217.5301,190.787 152,122.5 79.4457,72.1414 436.4282,328.0736 170,120 157.0398,23.147 303.5998,19.7112 139,197 100.5922,70.283 -15.7666,74.4276 -58,79 z"
       id="path6" />
    <path
       d="m 3990,2491 c -271.6356,-238.3175 -254.1925,-320.2845 -469.875,-308.5 -37.0394,-78.0832 -347.9226,-359.1989 -228.875,-198.75 -49.2973,-136.977 12.8626,-561.6225 -75.25,-389.75 101.7483,-110.3897 300.7997,-147.6077 299,-103 224.8599,-84.2775 246.7088,313.4306 204,199 -90.5942,174.3787 185.8711,124.2915 90,128 50.7692,-22.1667 198.8085,74.6696 185.25,-11.125 116.1449,24.624 324.5783,332.0624 221.75,278.125 43.6194,97.6848 144.478,65.5657 174,84 128.1008,12.3606 308.0622,-65.5259 197,-26 39.0911,49.5231 -2.0673,89.6572 95,7 -5.1487,15.1385 186.2482,-152.3495 138,-40 -306.6852,102.6213 -160.8653,-133.7196 26.125,-2.875 -31.3364,-64.1519 120.4675,-239.6471 63.125,-150.5 89.2901,-42.004 157.8554,-239.8667 157.75,-161.625 117.2006,-120.8358 330.9917,-279.6823 229.25,-188.75 99.0144,-40.2682 355.0109,-252.2621 233.75,-154.25 70.3117,-56.4765 509.2468,-498.29162 246,-230 57.8293,-109.5102 218.9667,-398.38694 284,-172 -2.3306,93.9093 83.8838,269 107,130 127.5943,105.9971 -13.1533,144.9366 16,157 -19.3442,35.0049 95.0601,-6.5461 14,-88 -89.2674,-64.4854 -507.7572,367.5334 -391,296 -220.156,211.706 -497.939,369.3069 -628.5,664 122.9244,33.5536 -1243.0156,751.5508 -471.5,233 -87.5019,19.2182 -380.977,24.1045 -313,17 -121.0569,12.0908 -236.5642,-48.3765 -291,-29 -4.8854,44.9229 -70.1889,88.8732 -112,61 z"
       id="path8" />
    <path
       d="m 7005,2349 c -207.257,-69.7342 -443.7613,-174.9868 -539,-384 -42.711,-110.9039 39.186,-555.3956 -48,-414.75 13.1905,-5.9476 153.5279,38.9595 136,22.75 121.4211,125.3069 218.9622,228.4835 399.5,232.875 -81.7753,151.1191 355.9775,171.7136 233.75,146 115.2651,48.1561 195.6294,-43.2073 147.75,-18.875 102.8095,-5.7582 356.8425,-75.9531 263,-71 37.7216,-11.4742 187.7589,3.1277 129,-10 106.8511,-13.9202 472.8385,-77.3714 343,-51 195.2089,-120.3068 305.2291,-329.8596 500,-460 101.3524,-104.1758 205.9048,-479.17222 209,-363 12.9922,-195.17966 104.7869,-383.58641 -68.875,-531.625 C 8621.6039,309.84411 8760.9523,416.55433 8729,306 c 1.3128,68.07 -10.6125,146.66645 84,140 -24.0701,48.08544 81.3681,177.81349 58,140 31.9912,-3.1896 103.3916,24.50707 18,123 -35.5631,-119.14311 23.7239,123.82236 64,26 -56.0793,118.76223 -104.2866,247.80066 -47,172 9.8122,71.91601 -60.6671,401.1852 -22,267 -132.2577,197.1931 -304.13,370.2635 -414,587 -186.1728,204.3683 -387.7834,487.0567 -307,359 -113.4077,100.2484 -371.876,171.8083 -261,67 -88.2566,43.2404 -741.7427,177.6019 -405,106 -50.6223,35.7779 -157.9949,64.3311 -172,47 -106.7831,-11.1145 -212.1366,24.5527 -320,9 z"
       id="path10" />
  </g>
</svg>
