<?xml version="1.0" standalone="no"?>
<!DOCTYPE svg PUBLIC "-//W3C//DTD SVG 20010904//EN"
 "http://www.w3.org/TR/2001/REC-SVG-20010904/DTD/svg10.dtd">
<svg version="1.0" xmlns="http://www.w3.org/2000/svg"
 width="1024.000000pt" height="1024.000000pt" viewBox="0 0 1024.000000 1024.000000"
 preserveAspectRatio="xMidYMid meet">
<metadata>
Created by potrace 1.16, written by Peter Selinger 2001-2019
</metadata>
<g transform="translate(0.000000,1024.000000) scale(0.100000,-0.100000)"
fill="#000000" stroke="none">
<path d="M3147 10038 c2 -35 8 -64 13 -66 6 -2 10 -8 10 -13 0 -4 -7 -6 -14
-3 -18 7 -97 -72 -103 -104 -15 -69 5 -133 51 -164 6 -4 7 -8 2 -8 -5 0 1 -9
14 -20 13 -11 20 -20 17 -20 -9 0 17 -31 83 -98 30 -31 54 -60 52 -64 -1 -4 5
-8 13 -8 9 0 21 -5 28 -10 47 -39 62 -50 78 -55 11 -4 19 -11 19 -16 0 -6 4
-8 9 -5 5 3 12 -1 15 -10 4 -9 9 -14 12 -11 4 3 15 -3 26 -13 12 -10 35 -26
53 -34 18 -9 38 -22 45 -31 7 -8 18 -15 26 -15 7 0 19 -8 26 -17 7 -10 20 -19
28 -21 8 -2 17 -7 20 -11 14 -22 104 -60 117 -49 7 6 13 7 13 2 0 -5 5 -1 11
10 9 15 13 16 20 5 7 -12 9 -11 9 1 0 13 1 13 10 0 7 -11 10 -11 10 -2 0 10 5
10 21 1 16 -8 20 -8 14 0 -4 8 3 10 24 6 19 -3 31 -1 31 5 0 6 8 10 18 8 10
-2 16 2 14 10 -1 8 1 11 6 8 5 -3 14 6 21 21 6 14 14 23 18 20 3 -4 0 -13 -7
-22 -7 -9 -10 -18 -6 -22 3 -3 6 -1 6 6 0 7 5 9 10 6 6 -4 9 -1 8 5 -2 7 6 14
17 16 11 1 21 8 23 14 2 5 8 8 12 5 5 -3 12 0 16 6 4 8 3 9 -4 5 -12 -7 -17 6
-6 17 11 11 55 -16 49 -31 -3 -8 3 -16 15 -19 11 -3 20 -9 20 -14 0 -5 -7 -6
-15 -3 -8 4 -15 1 -15 -7 0 -7 3 -10 6 -7 3 4 17 0 31 -7 15 -8 30 -12 35 -9
4 3 8 0 8 -6 0 -7 6 -10 13 -7 6 2 21 -3 31 -12 11 -9 16 -10 12 -3 -4 6 -2
12 4 12 6 0 8 5 4 11 -4 8 0 8 15 0 16 -9 21 -9 21 1 0 9 3 9 8 2 10 -15 72
-11 82 6 9 13 10 13 10 0 1 -12 3 -12 14 3 15 19 31 24 19 5 -4 -7 6 -4 22 6
22 14 26 15 17 4 -10 -13 -10 -17 0 -20 10 -4 11 -11 1 -36 -7 -19 -7 -34 -2
-38 5 -3 8 -18 7 -33 -1 -18 9 -41 30 -67 18 -22 35 -51 37 -65 10 -47 8 -215
-3 -254 -22 -79 -29 -122 -28 -166 1 -28 -5 -49 -14 -57 -13 -12 -13 -13 0 -6
13 7 13 5 1 -9 -7 -9 -11 -24 -7 -32 3 -8 1 -15 -4 -15 -6 0 -10 -7 -10 -15 0
-8 -4 -15 -10 -15 -5 0 -7 -7 -4 -15 4 -9 0 -15 -7 -15 -11 0 -11 -3 1 -10 12
-8 12 -10 1 -10 -8 0 -11 -7 -8 -19 3 -15 1 -18 -11 -14 -9 4 -13 2 -9 -4 4
-6 -2 -21 -13 -33 -18 -21 -25 -41 -21 -63 1 -5 -3 -6 -8 -3 -11 7 -84 -61
-77 -73 3 -5 -1 -12 -10 -15 -8 -3 -12 -10 -9 -16 3 -6 -1 -13 -9 -16 -9 -3
-13 -10 -10 -16 3 -5 -2 -16 -12 -24 -15 -11 -16 -13 -3 -8 10 3 20 0 24 -6 3
-6 3 -10 -2 -9 -32 6 -44 -2 -37 -23 3 -13 3 -20 -1 -16 -11 10 -33 -15 -27
-31 3 -9 1 -12 -6 -7 -6 3 -13 -2 -17 -13 -3 -11 -13 -22 -22 -25 -13 -5 -13
-9 -2 -23 8 -9 10 -14 4 -11 -5 3 -16 0 -23 -8 -7 -8 -10 -14 -7 -14 5 0 -17
-29 -42 -55 -7 -8 -13 -19 -13 -25 0 -6 -4 -9 -8 -6 -5 3 -15 -6 -22 -19 -7
-14 -17 -25 -22 -25 -4 0 -8 -7 -8 -15 0 -8 -4 -15 -8 -15 -10 0 -46 -60 -49
-84 -2 -11 -11 -28 -20 -38 -9 -10 -13 -21 -10 -24 3 -4 1 -12 -6 -20 -29 -32
-37 -44 -32 -44 3 0 0 -6 -7 -14 -7 -8 -17 -11 -22 -8 -5 3 -6 0 -2 -7 4 -6 0
-14 -8 -17 -9 -3 -14 -10 -11 -14 8 -12 -6 -41 -16 -34 -5 3 -9 1 -9 -5 0 -17
-59 -73 -70 -66 -6 3 -10 -1 -10 -10 0 -9 -4 -13 -10 -10 -5 3 -10 1 -10 -4 0
-6 -6 -11 -14 -11 -8 0 -17 -7 -20 -16 -3 -8 -10 -13 -15 -10 -10 7 -126 -104
-127 -121 -2 -30 -5 -34 -14 -28 -5 3 -10 -1 -10 -10 0 -9 -4 -13 -10 -10 -5
3 -10 2 -10 -3 0 -6 -11 -20 -25 -33 -13 -13 -25 -30 -25 -37 0 -7 -5 -10 -11
-6 -8 4 -9 -1 -5 -17 3 -13 3 -18 0 -11 -4 9 -16 2 -41 -23 -21 -21 -31 -40
-27 -48 6 -9 5 -9 -8 0 -8 7 -18 10 -21 6 -4 -3 1 -12 11 -20 9 -8 11 -11 4
-8 -8 4 -24 -5 -39 -22 -14 -15 -22 -21 -17 -13 5 10 -1 8 -15 -4 -12 -11 -19
-26 -16 -33 2 -8 1 -12 -3 -9 -5 3 -16 -4 -25 -15 -9 -10 -14 -19 -10 -19 4 0
-2 -7 -13 -15 -10 -8 -14 -15 -9 -15 6 0 -5 -8 -22 -16 -18 -9 -30 -20 -27
-25 3 -5 9 -7 14 -4 5 3 11 1 14 -3 3 -5 -10 -8 -30 -7 -28 2 -33 0 -23 -11 8
-10 7 -12 -10 -9 -13 2 -18 -1 -15 -9 3 -7 -7 -18 -21 -26 -14 -7 -23 -15 -21
-17 2 -2 -7 -15 -21 -29 -13 -13 -21 -29 -17 -36 4 -7 3 -8 -5 -4 -6 4 -8 13
-5 19 4 7 -2 3 -13 -8 -11 -11 -19 -23 -16 -27 2 -5 -1 -8 -6 -8 -6 0 -33 -22
-60 -50 -26 -27 -52 -46 -56 -42 -3 4 -6 3 -5 -3 5 -21 0 -36 -10 -30 -5 3
-10 1 -10 -5 0 -6 -4 -8 -10 -5 -5 3 -10 2 -10 -4 0 -17 -32 -42 -47 -37 -8 3
-11 1 -8 -4 3 -6 1 -10 -5 -10 -6 0 -9 -4 -6 -9 3 -5 -5 -12 -19 -15 -14 -4
-25 -13 -25 -21 0 -8 -3 -15 -7 -15 -5 0 -21 -11 -37 -25 -16 -13 -33 -22 -39
-18 -5 3 -7 2 -4 -4 4 -6 -1 -19 -9 -29 -9 -10 -12 -13 -9 -6 6 11 3 11 -14 0
-12 -7 -21 -16 -21 -21 0 -4 -4 -5 -10 -2 -5 3 -10 3 -10 -2 0 -9 -48 -33 -66
-33 -7 0 -14 -4 -16 -10 -1 -5 -14 -11 -28 -12 -14 -2 -27 -6 -30 -10 -3 -4
-23 -10 -44 -12 -50 -7 -106 -28 -100 -38 3 -4 -2 -5 -10 -2 -20 8 -76 -53
-68 -74 3 -9 1 -13 -5 -9 -5 3 -10 0 -10 -8 0 -8 5 -15 11 -15 6 0 6 -4 -1
-11 -8 -8 -8 -20 -2 -36 6 -16 5 -22 -1 -18 -6 3 -10 1 -10 -4 0 -6 6 -11 13
-11 6 -1 -1 -8 -16 -16 -18 -10 -27 -21 -23 -30 3 -8 2 -13 -3 -10 -13 8 -19
-16 -10 -39 4 -11 8 -14 8 -7 1 7 5 11 10 7 5 -3 17 5 25 17 11 15 16 18 16 8
0 -13 2 -13 9 -1 7 11 10 9 16 -8 3 -11 3 -26 -1 -32 -4 -8 -3 -9 4 -5 7 4 12
1 12 -10 0 -14 2 -15 17 -3 12 10 15 11 9 1 -10 -17 12 -42 31 -35 8 3 19 0
24 -8 5 -8 9 -9 9 -3 0 7 7 15 16 18 15 6 15 4 3 -10 -13 -16 -12 -16 8 -4 12
8 19 18 17 22 -3 4 2 8 11 8 8 0 18 7 21 15 4 8 10 13 14 10 5 -3 13 2 18 10
5 9 16 17 24 19 9 1 23 8 32 15 9 7 16 10 16 5 0 -5 5 -2 10 6 6 9 10 10 10 3
0 -6 -4 -15 -10 -18 -5 -3 -10 -11 -10 -16 0 -6 5 -7 12 -3 7 5 8 3 4 -5 -5
-7 -15 -10 -25 -7 -14 5 -14 4 1 -7 10 -8 14 -18 10 -22 -4 -4 3 -2 16 4 12 7
22 8 22 2 0 -5 8 -8 18 -6 9 2 27 4 40 4 14 1 21 5 16 12 -4 7 1 7 16 -1 13
-7 20 -8 16 -2 -3 6 -2 13 3 16 5 4 13 1 17 -5 7 -12 54 32 54 51 0 5 5 9 11
7 6 -1 19 14 30 33 10 19 19 31 19 27 0 -4 10 3 23 15 12 13 29 24 37 23 8 0
26 8 40 18 13 9 21 17 16 17 -5 0 -2 7 5 16 12 15 11 16 -9 10 -15 -5 -22 -3
-22 5 0 7 3 10 6 7 9 -10 64 53 57 65 -4 6 -1 7 8 1 8 -5 27 -9 42 -10 27 -2
27 -1 11 17 -14 15 -19 17 -26 7 -4 -7 -8 -8 -8 -3 1 6 8 19 17 30 12 16 14
16 10 3 -7 -20 9 -34 17 -16 5 11 7 11 12 0 8 -18 24 -4 18 16 -4 10 -2 13 3
7 13 -16 47 -19 37 -3 -6 10 -5 10 7 2 21 -17 51 -14 44 4 -4 11 -2 12 7 5 11
-8 33 -10 41 -3 8 6 36 7 32 0 -3 -4 2 -13 10 -20 11 -9 14 -8 12 10 -1 13
-11 26 -24 31 -13 5 -23 11 -23 13 0 7 31 -4 46 -16 6 -4 20 -5 29 -1 13 4 16
3 11 -5 -4 -7 -15 -12 -24 -12 -13 0 -14 -2 -4 -9 10 -6 9 -11 -4 -22 -13 -11
-18 -11 -21 -1 -3 6 -9 12 -15 12 -6 0 -7 -7 -4 -16 3 -9 2 -12 -5 -9 -5 4 -7
16 -3 28 6 19 5 20 -9 8 -9 -7 -14 -18 -10 -24 4 -6 1 -7 -7 -2 -10 6 -12 4
-7 -8 4 -12 2 -14 -10 -10 -11 4 -14 2 -9 -5 5 -8 2 -10 -8 -6 -9 3 -16 1 -16
-6 0 -7 -8 -9 -20 -5 -13 4 -22 1 -26 -9 -4 -9 -18 -16 -34 -16 -16 0 -32 -5
-36 -12 -5 -8 -1 -9 12 -4 15 6 16 5 7 -5 -9 -9 -16 -9 -26 -1 -15 13 -37 -2
-37 -25 0 -7 -5 -13 -11 -13 -5 0 -8 4 -4 9 10 17 -12 21 -25 6 -7 -8 -9 -15
-5 -15 4 0 1 -7 -6 -17 -13 -15 -12 -15 6 -6 21 12 26 13 50 13 9 0 15 10 16
23 1 16 2 18 6 5 4 -14 8 -16 24 -8 11 6 24 8 29 5 5 -3 11 -1 15 5 4 6 11 8
16 5 5 -4 12 1 15 9 5 12 11 13 24 6 16 -8 18 -7 15 10 -3 17 -1 19 16 10 15
-9 19 -7 19 7 0 14 2 15 9 4 5 -8 11 -9 15 -3 3 6 14 8 25 5 11 -3 21 2 25 12
4 11 12 14 26 10 15 -5 20 -2 21 12 0 11 3 13 6 5 4 -10 8 -10 21 0 9 7 13 8
9 2 -4 -7 4 -11 22 -10 16 1 29 3 29 6 -1 20 4 30 12 25 6 -4 8 -12 4 -18 -3
-7 1 -4 9 6 15 18 32 24 22 7 -9 -14 8 -12 24 3 8 6 11 7 8 2 -3 -6 3 -11 14
-11 10 0 19 6 19 13 0 6 5 15 12 19 7 5 8 3 3 -6 -6 -10 -4 -12 9 -7 10 4 22
7 27 7 6 0 7 5 4 10 -3 6 -1 10 5 10 6 0 8 5 4 12 -5 7 -3 8 6 3 9 -5 10 -1 6
16 l-7 24 14 -24 c11 -18 16 -21 21 -10 4 9 8 10 11 3 4 -8 16 -7 40 4 19 9
31 20 28 25 -4 6 -1 7 7 2 10 -6 7 -12 -10 -25 -17 -13 -20 -19 -9 -23 10 -4
9 -6 -3 -6 -10 -1 -18 5 -18 12 0 8 -3 7 -9 -3 -6 -8 -7 -18 -5 -22 5 -7 -18
-12 -38 -9 -4 0 -4 -7 -1 -17 6 -15 5 -16 -13 -2 -17 14 -18 14 -6 -1 13 -17
52 -15 52 3 0 5 5 6 10 3 6 -3 10 -1 10 4 0 6 6 11 14 11 8 0 18 9 21 21 5 16
9 18 21 8 12 -10 13 -9 8 6 -5 12 -4 16 3 12 6 -4 14 0 17 9 4 9 9 14 12 11 4
-3 15 4 26 16 11 12 17 15 13 7 -4 -10 -2 -9 8 3 8 9 19 17 25 17 6 0 14 5 18
12 4 7 3 8 -4 4 -7 -4 -12 -3 -12 2 0 15 54 22 62 9 6 -9 11 -8 18 3 6 9 10
11 10 3 0 -9 13 -7 44 7 24 10 48 15 52 12 4 -4 4 -1 0 6 -4 7 -1 15 8 18 9 3
16 13 16 20 0 12 4 12 21 3 17 -9 20 -8 14 2 -6 9 -3 11 8 6 10 -3 17 -2 17 3
0 6 12 10 26 10 14 0 35 5 46 11 14 7 18 8 14 0 -4 -5 4 -4 18 3 14 7 39 12
56 11 16 -1 30 1 30 5 0 4 12 8 26 8 15 0 30 6 35 13 5 8 9 9 9 3 0 -14 43
-11 48 4 2 7 8 10 12 7 5 -3 18 3 30 15 12 12 20 15 20 8 0 -9 4 -8 10 2 5 8
10 10 10 4 0 -11 24 -11 52 0 9 4 23 4 30 0 7 -5 18 -9 23 -10 6 0 16 -2 23
-2 8 -1 10 -7 6 -14 -5 -9 -2 -9 9 1 14 11 17 11 17 0 0 -8 5 -6 13 6 11 14
16 15 22 5 6 -9 4 -11 -5 -5 -9 5 -11 4 -6 -4 6 -9 11 -9 21 -1 10 8 14 7 18
-2 4 -10 6 -10 6 0 1 6 6 12 12 12 5 0 8 -4 5 -8 -2 -4 4 -8 14 -8 15 0 17 3
7 15 -9 11 -4 11 17 -3 16 -10 25 -12 21 -5 -6 9 -4 11 8 6 10 -4 17 0 20 11
4 15 5 15 6 -1 0 -10 6 -15 11 -12 6 3 17 -1 25 -9 9 -8 23 -12 32 -9 11 4 14
3 9 -5 -5 -8 0 -12 12 -12 11 0 25 -6 31 -14 6 -7 22 -11 36 -8 14 2 25 0 25
-6 0 -22 76 -38 98 -20 13 11 14 11 7 -2 -8 -13 -6 -13 8 -2 14 12 20 11 39
-2 12 -9 19 -16 14 -16 -5 0 5 -14 23 -30 17 -17 31 -36 31 -44 0 -7 11 -25
24 -39 13 -14 21 -28 18 -31 -3 -3 0 -6 7 -6 7 0 9 -4 6 -10 -3 -5 -1 -10 5
-10 6 0 8 -4 5 -10 -3 -5 -2 -10 3 -10 9 0 46 -78 43 -92 0 -5 4 -8 10 -8 5 0
8 -4 5 -9 -6 -9 33 -112 45 -121 11 -8 79 -111 69 -105 -6 3 -7 -1 -4 -9 3 -9
9 -16 13 -16 3 0 12 -9 19 -21 11 -17 11 -20 0 -13 -11 6 -11 5 0 -8 16 -20
11 -68 -9 -79 -17 -8 -55 -78 -51 -91 1 -5 -2 -8 -6 -8 -4 0 -8 -12 -8 -27 1
-30 61 -97 77 -87 5 3 9 2 9 -3 0 -12 49 -33 55 -23 2 4 17 6 32 4 15 -1 30 1
33 6 10 16 68 18 89 3 12 -8 21 -10 21 -4 0 6 6 8 14 5 11 -4 14 1 12 20 -2
14 0 26 3 26 3 0 7 12 9 28 5 59 8 67 22 79 10 9 11 12 3 13 -15 0 -13 21 2
32 6 5 6 8 -2 8 -7 0 -11 12 -9 28 1 15 -2 42 -7 61 -12 47 -26 115 -33 166
-1 11 -3 20 -4 20 -1 0 -3 10 -4 23 -2 12 2 22 8 22 7 0 6 4 -1 8 -12 7 -25
73 -26 130 -1 12 -5 22 -11 22 -5 0 -7 3 -3 6 3 3 -1 24 -9 47 -8 23 -16 58
-17 79 -1 21 -5 38 -9 38 -5 0 -7 3 -6 8 4 17 -24 92 -44 118 -13 15 -17 25
-10 20 6 -4 12 -3 12 3 0 5 -8 15 -17 20 -16 9 -15 10 5 8 12 -2 28 -9 35 -17
9 -10 9 -11 0 -6 -7 4 -13 3 -13 -3 0 -19 23 -61 33 -61 6 0 8 -3 4 -6 -3 -3
3 -15 14 -27 10 -11 19 -27 19 -35 0 -12 3 -12 17 -1 9 8 14 9 10 3 -10 -17
16 -65 32 -59 9 3 11 0 7 -10 -3 -8 0 -15 6 -15 6 0 9 -3 5 -6 -3 -4 0 -13 8
-21 8 -8 20 -22 27 -31 7 -10 41 -35 75 -57 35 -22 63 -43 63 -47 0 -5 7 -8
15 -8 8 0 15 -5 15 -11 0 -5 5 -7 10 -4 6 3 10 1 10 -5 0 -6 5 -8 10 -5 6 4 9
1 8 -7 -2 -7 5 -12 15 -12 10 1 16 0 13 -3 -8 -9 21 -33 41 -34 10 0 13 -3 6
-6 -17 -6 8 -32 36 -36 11 -2 31 -13 45 -26 18 -17 25 -19 29 -9 3 7 4 2 3
-12 -4 -33 30 -82 53 -75 10 3 21 -3 29 -16 11 -17 11 -20 0 -13 -21 13 -61
16 -53 4 3 -6 11 -8 17 -4 5 4 8 -2 6 -14 -2 -12 1 -20 7 -19 5 1 9 9 7 17 -2
13 -1 13 7 1 5 -8 7 -20 4 -27 -6 -16 26 -51 35 -38 4 5 14 10 22 12 8 2 2 -9
-15 -24 -27 -24 -28 -26 -7 -19 17 5 23 3 21 -7 -4 -34 2 -59 12 -52 8 5 10
-1 7 -19 -3 -18 -1 -24 8 -20 9 3 12 -2 9 -16 -2 -11 3 -27 11 -35 8 -8 13
-21 12 -28 -2 -7 2 -12 7 -11 6 1 11 -10 12 -24 0 -14 7 -29 15 -34 7 -5 10
-9 5 -9 -4 0 0 -11 9 -25 9 -14 13 -25 10 -25 -4 0 -1 -10 6 -22 13 -24 14
-29 16 -66 1 -13 6 -21 10 -18 4 3 7 -9 6 -25 -1 -19 3 -32 12 -36 8 -3 14
-10 13 -17 -1 -6 3 -24 9 -39 7 -16 12 -34 12 -42 0 -8 5 -17 10 -20 8 -5 7
-12 -2 -23 -7 -9 -8 -13 -2 -9 7 4 10 -6 10 -28 -1 -19 -5 -35 -11 -35 -7 0
-6 -3 0 -8 13 -9 13 -175 0 -184 -6 -5 -5 -8 2 -8 9 0 10 -7 3 -25 -5 -14 -6
-25 -2 -25 4 0 7 -16 7 -35 0 -19 -4 -35 -9 -35 -6 0 -6 -4 1 -11 7 -7 8 -24
2 -47 -4 -20 -8 -37 -8 -37 2 0 -24 -65 -32 -78 -11 -20 -15 -94 -6 -104 4 -3
-3 -24 -15 -47 -11 -22 -21 -43 -21 -46 0 -5 -2 -14 -12 -45 -8 -27 -29 -16
-97 49 -37 34 -70 61 -72 59 -2 -3 -7 5 -11 16 -3 12 -13 21 -21 21 -8 0 -14
7 -14 15 0 8 -3 15 -7 15 -5 0 -19 16 -32 35 -13 19 -30 35 -38 35 -8 0 -11 5
-8 10 3 6 2 10 -2 10 -17 0 -74 53 -64 59 21 13 -42 104 -74 108 -16 3 -32 9
-36 14 -4 6 -9 4 -12 -6 -5 -11 -3 -14 6 -9 9 5 9 4 0 -6 -12 -13 -39 -2 -74
32 -8 8 -36 22 -64 32 -57 21 -87 44 -78 59 3 5 1 7 -5 4 -18 -12 -41 4 -52
36 -11 35 -61 74 -100 79 -14 2 -29 6 -35 9 -5 4 -22 9 -37 13 -16 3 -28 11
-28 17 0 6 -4 7 -10 4 -5 -3 -10 -1 -10 4 0 6 -3 10 -7 10 -5 -1 -10 0 -13 1
-3 1 -30 3 -60 4 -31 2 -71 8 -90 14 -69 22 -312 32 -417 17 -28 -4 -75 -9
-105 -11 -87 -6 -145 -19 -228 -51 -8 -4 -19 -5 -23 -4 -4 0 -18 -4 -30 -11
-12 -7 -28 -13 -36 -14 -8 -2 -17 -8 -21 -14 -4 -7 -10 -11 -14 -11 -20 3 -26
0 -20 -11 4 -6 3 -8 -4 -4 -6 3 -23 1 -39 -5 -15 -6 -30 -10 -32 -9 -2 1 -8
-5 -13 -14 -5 -9 -13 -14 -19 -11 -5 4 -12 0 -15 -9 -3 -8 -12 -12 -20 -9 -8
3 -14 0 -14 -7 0 -6 -4 -9 -9 -5 -5 3 -22 -6 -37 -20 -14 -13 -31 -22 -36 -19
-4 3 -7 1 -6 -4 2 -5 -22 -34 -53 -63 -60 -59 -123 -138 -99 -125 8 4 7 1 -3
-7 -10 -8 -19 -26 -21 -39 -1 -13 -6 -30 -11 -38 -5 -8 -11 -26 -13 -40 -2
-14 -7 -27 -13 -28 -5 -2 -6 -8 -3 -13 3 -6 1 -16 -6 -24 -7 -9 -8 -15 0 -20
6 -4 7 -13 2 -23 -10 -21 -10 -33 2 -51 6 -9 5 -12 -2 -8 -12 8 -4 -32 11 -51
5 -7 7 -15 3 -19 -3 -3 -6 0 -6 7 0 7 -2 11 -5 8 -9 -8 21 -58 30 -50 5 4 5 1
1 -6 -4 -7 -3 -18 2 -25 5 -7 8 -20 7 -30 -2 -9 0 -15 5 -12 13 8 19 -22 7
-34 -8 -8 -8 -11 1 -11 6 0 9 -7 5 -17 -4 -10 -2 -14 5 -9 6 3 13 2 17 -4 3
-5 0 -10 -7 -10 -9 0 -9 -3 2 -10 8 -5 11 -10 5 -10 -5 0 -2 -5 7 -11 9 -5 15
-15 12 -22 -2 -6 7 -24 21 -40 14 -15 23 -27 20 -27 -4 0 1 -7 9 -16 9 -8 20
-13 26 -9 6 3 7 -1 4 -9 -4 -10 -1 -16 9 -16 8 0 22 -10 31 -23 9 -12 14 -16
10 -9 -5 11 -2 11 14 1 12 -7 18 -17 15 -23 -3 -5 -1 -6 6 -2 6 4 28 -3 48
-15 22 -14 33 -17 28 -8 -6 10 0 8 19 -5 16 -10 25 -13 22 -7 -10 15 7 14 23
-1 11 -11 11 -9 1 12 -12 23 -12 24 4 11 20 -16 104 -18 133 -3 15 8 23 8 33
-1 10 -9 11 -9 6 1 -4 7 -2 12 6 13 7 0 24 2 36 3 13 2 26 -3 29 -11 3 -8 12
-12 20 -9 9 4 11 2 7 -6 -5 -8 -2 -9 10 -5 10 4 15 3 11 -3 -9 -14 18 -12 35
3 12 10 12 9 1 -5 -12 -16 -11 -18 10 -20 13 -1 31 -2 39 -3 8 0 21 -4 28 -8
7 -5 12 -3 12 5 0 9 3 9 10 -2 5 -8 10 -10 10 -5 0 6 9 11 20 11 11 0 20 -5
20 -11 0 -5 5 -3 10 5 5 8 10 10 10 4 0 -7 13 -10 31 -8 22 3 28 0 23 -9 -5
-8 -2 -7 9 2 10 8 17 9 17 3 0 -10 18 -10 63 3 18 5 19 4 7 -5 -12 -9 -10 -10
12 -6 15 3 29 2 33 -3 3 -6 14 -8 25 -6 11 2 20 -1 20 -6 0 -6 5 -7 12 -3 7 4
8 3 4 -5 -4 -6 -11 -9 -15 -7 -4 3 -13 -4 -20 -16 -10 -16 -10 -19 1 -13 7 3
5 0 -4 -8 -10 -8 -15 -17 -11 -20 3 -4 0 -7 -7 -7 -7 0 -10 -3 -7 -6 4 -4 -3
-15 -15 -25 -11 -11 -17 -19 -13 -19 4 0 -1 -8 -11 -17 -10 -10 -20 -25 -22
-33 -2 -8 -7 -17 -12 -20 -13 -8 -31 -85 -20 -88 5 -2 6 -10 3 -18 -3 -8 0
-14 7 -14 6 0 8 -5 5 -10 -3 -6 -1 -10 5 -10 6 0 9 -3 7 -7 -3 -5 1 -14 9 -21
8 -7 14 -10 14 -5 0 4 7 -2 15 -13 8 -11 14 -14 15 -6 0 10 5 10 21 1 15 -8
19 -8 15 0 -10 15 7 14 23 -1 11 -11 12 -10 6 1 -6 10 -4 13 7 8 9 -3 21 0 28
6 10 9 11 9 6 -3 -5 -10 -3 -10 6 2 13 15 15 15 26 0 11 -16 11 -16 6 0 -7 20
6 24 24 6 9 -9 13 -7 18 5 3 9 10 17 16 17 5 0 6 -6 2 -12 -5 -10 -3 -10 7 0
12 11 12 14 -1 22 -12 7 -10 9 7 7 12 0 20 -4 17 -8 -2 -4 1 -11 7 -15 7 -4 9
-3 6 3 -11 17 36 47 71 45 24 -2 31 1 26 9 -4 8 -3 9 4 5 7 -4 12 -14 12 -21
0 -9 6 -12 15 -9 8 4 12 11 8 17 -4 6 2 8 17 4 13 -3 31 -1 39 6 12 10 13 9 6
-3 -4 -8 -5 -12 0 -8 4 4 15 2 24 -4 13 -10 14 -10 4 2 -18 20 -16 30 5 30 10
0 24 6 31 12 11 11 12 10 6 -2 -5 -9 0 -7 14 5 16 14 24 16 30 7 5 -8 16 -9
40 -2 25 7 31 6 24 -3 -4 -7 0 -4 10 6 16 18 21 16 18 -8 -1 -5 5 -2 13 8 11
14 15 15 20 5 3 -7 4 -2 2 11 -5 22 -4 23 13 5 16 -17 16 -20 2 -31 -9 -6 -13
-15 -8 -19 4 -4 7 -2 7 4 0 7 5 12 11 12 5 0 7 -5 3 -12 -5 -8 -2 -9 9 -5 9 3
19 1 23 -5 4 -6 3 -8 -4 -4 -6 3 -13 2 -17 -3 -3 -6 6 -8 21 -5 18 3 23 1 18
-7 -5 -8 -3 -9 7 -3 8 4 20 9 28 11 8 1 17 7 21 13 10 16 72 20 66 5 -2 -7 2
-12 9 -12 7 0 11 6 8 14 -3 7 0 13 6 13 6 0 11 -4 11 -10 0 -5 5 -10 11 -10 5
0 7 5 3 12 -5 7 0 9 14 6 14 -4 19 -2 15 7 -5 14 13 15 35 1 8 -5 19 -3 25 3
9 9 8 11 -5 6 -11 -4 -18 -2 -18 5 0 6 4 9 9 5 5 -3 12 -1 16 5 4 6 11 8 16 4
5 -3 7 -9 4 -14 -3 -5 -1 -11 5 -15 5 -3 10 1 10 10 0 13 4 14 20 5 20 -11 27
-3 13 16 -5 5 -1 2 8 -8 16 -17 17 -16 22 4 4 13 11 19 21 15 8 -3 17 1 20 8
3 9 12 12 22 8 13 -5 15 -3 9 8 -7 12 -6 12 7 1 13 -10 17 -10 22 4 5 12 9 14
20 5 11 -9 15 -8 20 5 5 14 9 14 23 3 12 -10 14 -10 9 -1 -4 7 -2 12 8 12 8 0
16 5 18 12 2 6 13 12 25 13 11 0 28 9 37 18 10 9 27 17 39 17 18 0 19 2 7 10
-13 8 -12 10 4 10 13 0 16 5 12 18 -6 16 -5 16 8 -1 11 -15 15 -15 19 -3 3 8
3 17 -1 19 -4 2 -1 2 6 1 6 -2 12 1 12 6 0 5 20 -10 44 -33 28 -27 39 -45 32
-49 -8 -6 -7 -8 2 -8 6 0 12 -7 12 -15 0 -8 5 -15 12 -15 6 0 9 -3 5 -6 -3 -4
0 -13 8 -21 8 -7 19 -32 25 -53 6 -22 16 -40 22 -40 7 0 7 -4 -1 -13 -7 -9 -7
-17 0 -24 5 -5 12 -25 14 -44 7 -57 26 -129 36 -135 5 -3 7 -10 4 -15 -4 -5
-2 -9 4 -9 9 0 21 -24 21 -43 0 -4 7 -22 17 -40 9 -17 18 -35 19 -39 1 -5 3
-11 4 -15 1 -5 1 -12 0 -18 -1 -5 1 -7 5 -3 4 4 14 1 22 -7 19 -19 52 -19 59
0 4 8 10 13 14 10 5 -3 12 0 16 6 4 7 3 9 -4 5 -6 -3 -13 -2 -17 4 -3 6 4 14
17 19 13 6 17 10 10 10 -9 1 -10 6 -4 18 7 12 5 24 -5 40 -13 19 -13 23 -2 23
10 1 8 4 -3 11 -10 5 -18 17 -18 24 0 8 -4 15 -9 15 -5 0 -9 10 -9 23 -2 29
-6 49 -16 67 -4 8 2 5 13 -8 11 -13 25 -21 31 -17 5 3 7 0 4 -8 -4 -12 1 -13
30 -3 20 6 36 15 36 19 0 5 -5 5 -12 1 -7 -4 -8 -3 -4 4 4 7 14 12 23 12 13 0
13 3 2 18 -13 16 -13 16 7 0 20 -17 20 -17 21 23 0 22 -2 38 -4 35 -8 -7 -32
18 -26 27 3 4 11 3 18 -3 15 -13 16 13 0 27 -4 4 -5 2 -1 -4 5 -9 2 -11 -9 -6
-12 4 -13 8 -5 13 9 6 7 11 -6 20 -18 11 -18 11 0 6 13 -4 17 -2 13 7 -3 8 1
14 10 14 9 0 13 -7 10 -19 -3 -11 2 -22 14 -28 10 -6 19 -17 19 -25 0 -8 6
-16 13 -16 63 -8 77 -6 77 7 0 10 5 12 13 8 8 -5 8 -2 -2 9 -9 12 -10 17 -2
17 7 0 11 8 9 18 -3 19 -54 72 -70 72 -5 0 -7 4 -3 9 3 5 -5 17 -17 25 -12 9
-19 16 -14 16 5 0 3 6 -3 13 -6 8 -7 18 -3 22 4 5 1 5 -5 1 -7 -4 -13 -4 -13
1 0 4 -16 19 -35 32 -19 13 -35 29 -35 35 0 6 -13 20 -30 29 -17 10 -30 22
-30 28 0 5 -19 29 -42 53 -24 24 -50 54 -58 66 -8 12 -20 28 -26 34 -26 27
-45 66 -38 77 4 7 3 9 -4 5 -6 -3 -14 -1 -18 5 -4 8 -3 9 5 5 6 -4 14 0 18 11
10 29 35 53 47 46 6 -4 5 1 -3 10 -12 16 -12 17 5 10 17 -6 18 -5 4 12 -9 11
-10 16 -2 11 7 -4 12 -1 12 9 0 10 5 13 12 9 6 -4 8 -3 5 4 -9 14 3 43 14 36
5 -3 9 2 9 10 0 9 6 16 13 16 9 0 9 2 -1 9 -11 7 -10 9 3 15 9 3 14 10 10 15
-3 5 0 13 6 16 5 4 8 14 4 22 -5 14 -3 14 12 2 15 -12 16 -12 11 2 -4 9 0 26
8 38 8 12 12 26 8 33 -4 6 -3 8 3 5 6 -4 14 5 19 21 15 54 25 75 43 88 8 6 16
20 18 30 7 36 16 99 17 116 0 9 3 15 7 12 12 -7 17 20 7 39 -6 12 -5 19 5 23
14 5 15 43 1 65 -5 8 -3 9 6 4 10 -6 12 -4 7 7 -3 9 0 21 6 27 9 9 8 14 -3 21
-10 7 -12 12 -4 18 7 4 10 43 8 107 -4 133 -4 135 -14 135 -5 0 -7 7 -3 16 3
9 0 20 -8 25 -12 7 -12 9 0 9 7 0 11 6 7 15 -3 8 0 15 7 16 7 0 3 4 -8 9 -11
5 -15 9 -8 9 8 1 11 23 10 70 -1 38 -6 67 -10 64 -5 -3 -4 5 3 17 10 18 9 21
-1 15 -8 -6 -11 -4 -6 7 3 9 0 21 -6 27 -6 6 -8 11 -4 11 4 0 -2 18 -13 40
-14 28 -17 40 -8 40 8 0 9 3 3 8 -5 4 -11 16 -12 27 -2 11 -5 34 -8 50 -3 17
-7 40 -9 52 -2 13 -9 30 -17 40 -8 9 -9 14 -3 10 8 -4 8 4 0 28 -6 19 -14 35
-18 35 -5 0 -8 9 -8 19 0 11 -6 22 -12 24 -10 4 -10 6 0 6 10 1 9 5 -3 17 -9
9 -14 23 -11 30 3 7 -4 16 -14 19 -11 3 -19 9 -19 13 4 23 -2 42 -11 37 -6 -3
-7 1 -4 9 4 9 -1 18 -10 22 -9 3 -16 15 -16 25 0 10 -4 19 -10 19 -5 0 -10 6
-10 13 0 22 -40 98 -49 92 -5 -2 -14 9 -21 25 -7 17 -16 30 -21 30 -5 0 -9 7
-9 15 0 7 -8 19 -17 24 -10 6 -14 11 -9 11 19 0 -18 30 -38 30 -17 0 -18 2 -6
10 13 8 12 10 -2 10 -10 0 -18 5 -18 10 0 6 -5 10 -11 10 -6 0 -16 6 -23 13
-7 6 -27 23 -44 36 -18 13 -32 30 -32 36 0 7 -7 15 -15 19 -8 3 -14 11 -13 18
2 7 -2 12 -8 13 -6 0 -45 32 -87 70 -41 39 -87 79 -102 90 -16 11 -34 26 -41
33 -7 6 -15 12 -19 12 -3 0 -11 4 -18 10 -59 48 -75 59 -81 53 -3 -3 -6 -1 -6
6 0 7 -5 9 -10 6 -6 -3 -13 1 -16 9 -3 9 -12 16 -20 16 -7 0 -33 14 -57 30
-25 17 -50 30 -56 30 -6 0 -11 4 -11 9 0 8 -21 17 -44 19 -5 0 -12 4 -15 9 -3
4 -23 19 -43 33 -21 14 -38 29 -38 33 0 5 -4 5 -10 2 -5 -3 -10 -1 -10 4 0 6
-7 11 -16 11 -8 0 -12 5 -9 10 3 6 1 10 -4 10 -6 0 -19 7 -28 16 -45 39 -79
64 -90 64 -7 0 -12 3 -11 8 2 4 -19 27 -46 52 -28 25 -57 52 -66 60 -39 35
-104 86 -121 94 -11 5 -19 13 -19 18 0 4 -6 8 -13 8 -7 0 -19 9 -27 20 -8 11
-20 20 -27 20 -6 0 -17 8 -22 18 -6 9 -11 14 -11 10 0 -7 -25 11 -55 40 -8 6
-16 12 -19 12 -4 0 -20 14 -38 30 -17 17 -36 30 -43 30 -13 0 -75 53 -75 64 0
12 -27 35 -34 29 -3 -4 -6 -1 -6 6 0 7 -4 10 -9 7 -5 -4 -11 -1 -13 5 -5 15
-139 29 -156 16 -9 -7 -11 -5 -5 9 6 16 4 17 -9 7 -8 -7 -18 -10 -22 -6 -3 4
-22 7 -41 8 -32 1 -40 -6 -36 -28 1 -4 -8 -3 -19 3 -14 8 -20 8 -20 0 0 -9
-14 -5 -46 14 -1 1 -10 -8 -20 -19 -11 -12 -15 -15 -10 -8 5 8 6 16 2 20 -3 3
-6 1 -6 -6 0 -7 -4 -10 -9 -7 -5 4 -8 -2 -7 -11 2 -10 7 -18 13 -18 11 0 48
-35 48 -46 0 -4 4 -11 9 -16 5 -5 6 -3 2 5 -8 14 10 17 18 3 10 -16 -26 -22
-43 -8 -15 13 -40 21 -96 32 -11 2 -22 4 -24 4 -2 1 4 11 15 23 13 15 14 18 3
10 -16 -12 -30 1 -33 33 -2 12 17 34 24 30 3 -2 7 6 7 17 1 12 8 25 15 29 7 5
9 9 3 9 -5 0 -4 4 3 9 7 4 14 17 15 29 0 11 4 19 7 17 8 -5 34 26 38 46 2 8
14 23 27 34 13 11 26 30 30 43 3 12 15 27 26 33 11 5 17 14 14 20 -4 5 -1 9 5
9 6 0 8 5 5 10 -4 6 -3 9 2 8 4 -2 9 0 10 5 5 14 57 62 66 59 5 -1 6 2 2 8 -4
6 4 19 17 30 13 11 19 19 14 20 -5 0 0 8 11 18 11 9 25 27 32 40 7 12 17 20
23 16 7 -4 8 -3 4 4 -4 7 -2 12 4 12 6 0 8 5 5 10 -3 6 -2 10 3 10 9 0 31 49
31 66 0 3 8 12 18 20 14 11 15 13 3 14 -12 1 -12 3 2 13 9 7 20 25 23 40 4 15
11 25 15 22 5 -3 6 4 3 16 -3 12 -1 24 6 28 6 4 14 25 17 47 6 43 9 61 20 114
4 19 8 47 8 63 1 15 5 27 10 27 4 0 6 6 3 14 -3 8 -3 17 1 21 3 3 8 34 9 68 1
34 4 79 5 100 2 21 0 41 -5 44 -4 3 -4 10 1 16 10 12 9 50 -3 172 -9 85 -10
96 -18 115 -4 8 -9 26 -11 40 -9 45 -36 122 -47 136 -6 8 -9 14 -5 14 4 0 -1
14 -10 31 -8 17 -17 40 -20 52 -2 11 -7 23 -11 26 -5 3 -8 15 -8 25 0 10 -9
24 -20 30 -11 6 -23 15 -27 20 -29 40 -134 146 -145 146 -8 0 -11 5 -8 10 3 6
1 10 -5 10 -6 0 -18 7 -27 15 -8 8 -19 13 -24 10 -5 -4 -9 -1 -9 4 0 6 -5 11
-10 11 -12 0 -92 51 -102 65 -4 5 -8 7 -8 2 0 -4 -11 0 -25 9 -14 9 -25 12
-25 8 0 -5 -4 -3 -9 5 -5 8 -17 15 -28 16 -10 1 -31 7 -47 14 -16 6 -36 9 -43
7 -8 -3 -11 -1 -8 4 3 6 0 10 -7 11 -52 2 -117 10 -138 15 -33 9 -47 9 -100
-1 -64 -12 -60 -13 -118 16 -28 15 -50 24 -48 21 6 -9 -324 -7 -349 2 -11 4
-28 12 -39 17 -13 8 -16 7 -11 -1 4 -7 -1 -7 -14 2 -12 7 -21 15 -21 18 0 3
-8 6 -17 6 -10 1 -31 4 -48 8 -16 5 -39 9 -50 9 -11 1 -26 9 -33 17 -12 13
-13 13 -6 0 7 -13 5 -13 -9 -1 -18 15 -23 26 -7 16 6 -3 10 -3 10 1 0 12 -62
64 -70 59 -5 -3 -11 2 -14 11 -3 8 -11 12 -17 8 -8 -4 -9 -3 -5 4 4 7 3 12 -2
12 -6 0 -20 21 -32 46 -25 54 -38 69 -67 78 -20 6 -20 4 -16 -56z m1329 -2773
c1 -7 -4 -11 -10 -9 -7 3 -13 -2 -13 -10 0 -8 4 -13 9 -10 4 3 8 0 8 -7 0 -7
3 -10 6 -6 4 3 13 -1 21 -9 8 -8 18 -12 23 -9 4 3 14 -3 21 -12 10 -12 10 -14
2 -9 -8 4 -13 2 -13 -4 0 -6 -4 -9 -9 -5 -5 3 -12 1 -16 -5 -4 -6 -11 -8 -16
-5 -5 4 -9 4 -9 1 0 -3 9 -10 20 -16 16 -9 19 -8 13 6 -4 12 -3 15 5 10 7 -4
12 -14 12 -23 0 -9 3 -13 7 -10 3 4 15 -1 26 -10 10 -10 21 -17 23 -15 12 7
24 0 18 -10 -5 -10 -4 -10 6 -1 13 12 18 9 53 -23 6 -6 20 -9 31 -6 12 3 17 1
12 -6 -4 -6 2 -11 14 -11 11 -1 29 -1 40 -2 11 0 18 -4 16 -8 -3 -4 1 -8 9 -8
8 0 12 4 9 9 -3 4 0 8 5 8 6 0 11 -4 11 -9 0 -5 7 -12 16 -15 14 -5 15 -4 4 9
-11 13 -10 14 4 9 9 -3 16 -12 16 -20 0 -8 5 -14 11 -14 5 0 8 4 4 9 -3 6 4 9
15 8 11 -1 20 -5 20 -9 0 -4 5 -8 11 -8 6 0 26 -12 45 -26 19 -15 34 -23 34
-18 0 4 7 -1 16 -12 8 -10 13 -12 9 -4 -4 8 3 4 15 -10 12 -14 19 -19 15 -12
-6 11 -3 12 14 3 24 -13 44 -47 36 -61 -3 -6 1 -7 10 -4 12 5 13 10 6 17 -6 6
-11 16 -11 22 0 5 5 2 11 -8 6 -10 28 -29 50 -43 24 -15 37 -29 33 -36 -5 -8
-1 -9 11 -4 15 5 16 4 5 -9 -11 -13 -8 -15 15 -15 20 0 26 -4 22 -14 -4 -10
-1 -13 9 -9 14 5 20 -17 8 -30 -8 -7 -44 24 -38 34 2 4 -5 5 -16 2 -11 -3 -20
0 -20 6 0 6 -5 11 -11 11 -5 0 -7 -6 -4 -12 4 -7 -2 -3 -13 10 -22 24 -38 30
-26 10 4 -7 -3 -4 -16 7 -13 11 -20 14 -16 8 4 -7 2 -13 -3 -13 -6 0 -11 3
-11 8 0 6 -90 8 -97 2 -8 -7 -51 -5 -67 3 -13 7 -16 6 -11 -3 6 -9 2 -9 -14
-1 -12 7 -26 9 -31 6 -5 -3 -11 -1 -15 5 -4 6 -10 8 -14 5 -5 -2 -27 5 -51 16
-31 15 -66 21 -134 23 -81 2 -166 23 -152 37 7 6 -117 3 -229 -6 -49 -4 -106
-8 -125 -9 -19 0 -38 -5 -41 -9 -3 -4 -16 -9 -27 -10 -12 -1 -22 -4 -22 -7 0
-4 -6 -7 -12 -7 -46 -3 -68 -9 -68 -16 0 -5 -8 -3 -17 4 -15 12 -16 12 -10 -3
4 -13 2 -15 -10 -11 -10 4 -14 2 -9 -5 3 -6 -2 -15 -11 -21 -10 -6 -13 -11 -6
-11 6 0 15 5 18 10 4 6 10 8 15 5 11 -7 -20 -45 -35 -45 -5 0 -3 5 5 10 13 8
12 10 -2 10 -10 0 -18 -6 -18 -14 0 -8 -13 -24 -29 -35 -33 -24 -46 -27 -34
-8 11 18 13 38 2 31 -5 -3 -7 -9 -4 -14 3 -5 -4 -15 -15 -23 -11 -7 -17 -17
-12 -22 4 -4 0 -6 -8 -3 -8 3 -14 14 -12 24 2 15 1 16 -7 5 -6 -10 -6 -21 0
-33 5 -10 6 -18 2 -17 -4 1 -10 0 -13 -1 -8 -3 -54 -11 -77 -13 -16 -1 -19 -5
-11 -14 10 -12 -7 -19 -35 -14 -5 1 -6 -9 -2 -21 5 -21 5 -21 -5 -5 -12 19 23
72 40 62 5 -3 11 3 14 12 6 15 8 15 16 3 7 -11 10 -12 10 -2 0 7 4 10 10 7 5
-3 7 0 4 8 -3 8 3 20 12 28 15 12 17 12 9 0 -5 -10 -4 -12 3 -7 7 4 12 13 12
21 0 8 5 17 12 21 6 4 8 3 5 -3 -4 -6 0 -14 9 -17 9 -3 12 -2 9 5 -7 10 70 90
84 87 15 -3 40 15 34 25 -3 6 -1 7 6 3 6 -4 14 0 17 9 5 13 9 13 22 3 11 -9
13 -9 9 -1 -4 6 -3 14 3 18 5 3 10 1 10 -4 0 -6 5 -11 11 -11 5 0 7 5 4 10 -3
6 -2 10 4 10 6 0 7 7 4 17 -4 10 -2 14 4 10 6 -4 13 3 16 15 4 12 9 19 13 16
3 -4 13 0 21 8 8 8 19 12 24 8 5 -3 9 -2 8 3 -4 22 3 30 26 28 14 -2 23 0 20
4 -2 5 5 18 16 29 11 12 17 22 14 22 -3 0 0 6 7 14 7 8 16 12 20 9 4 -2 5 4 1
13 -4 12 -3 15 5 10 7 -4 12 -2 12 4 0 6 5 8 10 5 6 -3 10 -1 10 4 0 6 5 11
11 11 6 0 27 17 47 39 20 21 46 44 57 50 15 9 15 11 3 7 -27 -8 -21 3 7 14 14
5 25 16 25 24 0 18 23 27 40 16 17 -11 42 -1 33 14 -3 6 -2 7 2 3 5 -4 10 -14
11 -22z m334 -2711 c0 5 7 3 15 -4 8 -6 20 -8 26 -4 8 5 9 3 4 -5 -5 -9 0 -12
16 -10 13 2 30 0 37 -4 7 -5 12 -3 12 3 0 8 6 7 21 -1 13 -6 19 -7 15 -1 -7
12 42 11 62 -1 8 -6 12 -2 13 10 0 13 3 12 10 -7 13 -32 12 -32 42 -21 22 9
25 8 20 -6 -5 -13 -3 -14 15 -4 24 13 43 15 24 2 -10 -6 -5 -11 17 -21 17 -7
28 -17 24 -23 -4 -6 -1 -7 7 -2 8 5 18 1 27 -10 7 -11 13 -15 13 -10 0 5 12
-2 27 -16 20 -17 23 -19 13 -4 -10 13 -4 10 18 -8 19 -15 38 -25 43 -21 5 3 9
-3 9 -12 0 -10 3 -14 7 -11 3 4 13 1 21 -6 13 -10 15 -9 8 3 -6 12 -4 11 6 -1
7 -9 19 -14 27 -11 9 3 11 0 6 -8 -6 -10 -4 -12 7 -7 9 3 25 -1 36 -9 13 -9
23 -10 27 -4 4 6 15 6 30 0 16 -6 25 -6 25 0 0 6 8 10 18 11 10 0 12 3 5 6
-17 6 -16 30 1 36 18 7 62 -17 58 -32 -1 -7 2 -10 7 -6 6 3 19 -3 31 -15 23
-23 34 -26 25 -7 -4 6 -1 5 7 -3 7 -9 28 -22 46 -29 17 -7 32 -17 32 -22 0 -5
7 -9 15 -9 9 0 18 -7 21 -15 4 -8 10 -12 15 -10 4 3 22 -7 39 -22 16 -15 36
-33 43 -39 6 -6 25 -27 42 -46 27 -32 31 -33 45 -18 8 9 11 11 7 4 -4 -7 -3
-15 3 -19 8 -5 7 -12 -2 -23 -9 -12 -6 -11 10 2 14 12 22 14 22 7 0 -8 7 -10
21 -6 16 5 19 4 14 -6 -6 -9 -3 -11 8 -6 16 6 21 -3 18 -30 -1 -7 2 -13 7 -13
5 0 9 -6 9 -14 0 -8 -6 -12 -14 -9 -7 3 -13 0 -13 -7 0 -6 -4 -8 -10 -5 -5 3
-10 1 -10 -5 0 -7 -7 -9 -16 -6 -12 4 -15 2 -10 -9 3 -8 1 -16 -4 -16 -6 -1
-16 -2 -22 -3 -7 0 -13 -6 -13 -13 0 -6 -4 -15 -9 -20 -5 -5 -6 -3 -2 5 4 6 2
12 -4 12 -6 0 -9 4 -5 9 3 5 0 13 -6 17 -8 4 -9 3 -5 -4 4 -7 1 -12 -8 -12 -9
0 -16 -4 -16 -10 0 -5 -5 -10 -12 -10 -6 0 -8 3 -5 7 4 3 -2 13 -13 20 -11 8
-18 18 -16 22 3 4 -6 7 -19 7 -13 0 -21 -4 -19 -8 3 -4 0 -8 -6 -8 -17 0 -23
29 -10 45 12 14 8 30 -8 30 -4 1 -17 6 -29 13 -13 7 -23 8 -23 3 0 -5 -9 -7
-20 -4 -11 3 -18 8 -16 12 3 4 -4 7 -15 7 -10 0 -19 -4 -19 -9 0 -4 -4 -6 -9
-2 -6 3 -14 -3 -20 -12 -6 -10 -11 -13 -11 -7 0 7 -7 15 -16 18 -11 4 -15 2
-11 -8 4 -10 1 -13 -9 -9 -8 3 -21 0 -29 -7 -8 -7 -15 -8 -15 -3 0 13 -41 8
-71 -8 -13 -7 -27 -13 -31 -14 -4 0 -18 -9 -30 -20 -13 -11 -25 -20 -28 -20
-9 0 -46 -37 -78 -77 l-30 -38 -16 25 c-9 13 -16 29 -16 35 0 5 -4 10 -8 10
-4 0 -19 18 -32 40 -14 22 -28 40 -32 40 -5 0 -8 5 -8 11 0 15 -62 92 -120
149 -50 49 -122 88 -157 85 -13 -1 -23 3 -23 8 0 6 -5 6 -12 0 -7 -6 -21 -9
-30 -8 -10 2 -18 -1 -18 -5 0 -5 -10 -7 -22 -5 -12 3 -27 0 -35 -6 -10 -9 -13
-8 -13 1 0 9 -3 10 -13 1 -8 -6 -18 -7 -22 -3 -5 4 -5 -1 -2 -10 3 -10 2 -20
-4 -23 -5 -4 -9 -3 -8 2 4 25 -3 31 -28 27 -16 -3 -29 -9 -31 -15 -2 -5 -10
-9 -17 -9 -8 0 -17 -5 -21 -12 -4 -7 -3 -8 4 -4 7 4 12 1 12 -9 0 -10 -5 -13
-12 -9 -8 5 -8 1 1 -10 13 -15 13 -19 0 -28 -11 -8 -11 -9 4 -4 9 3 17 1 17
-4 0 -15 -24 -12 -46 6 -10 8 -13 12 -6 9 11 -6 12 -3 3 13 -6 12 -10 26 -9
33 2 6 -6 12 -18 13 -22 3 -31 -28 -12 -40 8 -5 9 -1 4 12 -5 14 -4 16 4 8 14
-14 20 -74 7 -74 -4 0 -5 -4 -2 -10 3 -5 2 -10 -4 -10 -5 0 -8 13 -6 29 2 18
-2 35 -11 42 -10 8 -14 8 -14 0 0 -6 4 -11 8 -11 5 0 9 -7 9 -16 0 -14 -2 -14
-14 2 -7 10 -13 22 -13 27 0 4 -4 6 -9 3 -4 -3 -17 2 -27 10 -10 9 -13 13 -7
9 24 -12 53 -14 53 -4 0 5 -6 9 -12 8 -33 -4 -58 14 -54 37 3 13 0 26 -5 29
-5 4 -5 13 1 25 10 19 -10 47 -23 33 -4 -3 -7 1 -7 9 0 11 -7 14 -26 10 -19
-3 -25 -1 -20 7 4 6 1 11 -6 11 -9 1 -7 5 4 14 10 7 15 16 11 19 -3 4 3 7 14
7 11 0 26 11 33 25 7 14 20 25 27 25 8 0 11 5 8 10 -4 6 -3 10 2 9 4 -1 17 1
28 5 11 5 27 10 35 13 8 3 28 5 44 4 20 -2 26 1 21 10 -5 7 -4 10 3 5 12 -7
45 22 37 34 -3 4 2 11 11 14 8 3 13 10 9 15 -3 6 4 8 15 6 11 -2 20 1 20 6 0
6 5 7 10 4 6 -4 18 -1 27 7 12 9 15 9 9 1 -5 -9 -2 -11 8 -7 9 3 13 11 10 18
-3 6 2 2 10 -8 9 -11 16 -16 16 -12z"/>
<path d="M3681 3831 c-1 -8 -7 -11 -17 -7 -8 3 -12 2 -9 -4 3 -5 -6 -12 -20
-16 -14 -3 -26 -10 -26 -15 -1 -5 -2 -13 -3 -18 0 -5 -5 -13 -10 -18 -5 -4 -6
-3 -2 4 3 6 2 14 -4 18 -5 3 -10 2 -10 -3 0 -13 -108 -91 -152 -110 -36 -16
-50 -32 -28 -32 6 0 10 -5 10 -10 0 -6 -11 -3 -24 5 -20 13 -26 14 -37 2 -8
-7 -20 -12 -28 -9 -8 3 -11 0 -7 -7 6 -10 0 -13 -20 -10 -3 0 -16 -7 -30 -16
-13 -9 -28 -13 -33 -11 -5 3 -14 -1 -21 -9 -7 -8 -16 -12 -21 -9 -5 3 -9 0 -9
-6 0 -6 -4 -9 -9 -5 -5 3 -12 1 -16 -5 -4 -6 -11 -7 -17 -4 -7 5 -9 2 -6 -8 5
-11 0 -14 -18 -12 -13 1 -24 -2 -24 -7 0 -6 -5 -7 -10 -4 -6 3 -13 0 -16 -8
-2 -7 -11 -14 -19 -15 -8 -1 -22 -3 -30 -4 -8 -1 -16 -7 -19 -14 -3 -8 -12
-11 -21 -8 -8 4 -17 -1 -21 -10 -3 -9 -10 -14 -14 -11 -4 3 -13 -2 -20 -10 -8
-10 -21 -13 -33 -9 -13 4 -17 2 -13 -5 4 -6 0 -11 -8 -11 -9 0 -16 -4 -16 -8
0 -5 -6 -9 -12 -9 -23 -1 -43 -8 -50 -18 -4 -5 -12 -10 -18 -10 -6 0 -14 -4
-18 -10 -4 -5 -13 -10 -19 -11 -39 -3 -44 -5 -38 -14 3 -5 -3 -10 -15 -10 -11
0 -23 -7 -26 -15 -4 -8 -10 -12 -15 -9 -5 3 -12 -2 -15 -10 -3 -9 -10 -14 -14
-11 -5 3 -15 -2 -23 -10 -9 -8 -20 -15 -26 -15 -6 0 -11 -4 -11 -9 0 -5 -11
-12 -25 -15 -14 -4 -25 -11 -25 -17 0 -6 -4 -7 -10 -4 -5 3 -10 1 -10 -6 0 -7
-3 -9 -6 -6 -4 3 -18 -2 -32 -13 -13 -11 -28 -17 -32 -15 -5 3 -15 -3 -22 -13
-7 -10 -23 -24 -36 -31 -12 -7 -20 -16 -17 -22 4 -5 1 -9 -4 -9 -19 0 -92 -80
-85 -92 5 -7 2 -9 -9 -5 -10 4 -18 -1 -22 -13 -3 -10 -13 -24 -22 -32 -14 -11
-16 -11 -8 2 4 8 -3 4 -16 -10 -14 -14 -35 -31 -47 -39 -11 -8 -18 -19 -15
-24 3 -6 1 -7 -4 -4 -6 4 -25 -9 -42 -28 -17 -20 -31 -33 -31 -30 0 4 -15 -10
-34 -29 -18 -20 -39 -36 -45 -36 -7 0 -9 -4 -6 -10 3 -5 2 -10 -4 -10 -17 0
-159 -142 -172 -171 -6 -16 -16 -26 -22 -22 -5 3 -7 1 -3 -5 3 -6 0 -17 -8
-25 -8 -8 -12 -17 -9 -21 4 -3 1 -6 -5 -6 -7 0 -12 -5 -12 -11 0 -6 -9 -24
-21 -40 -11 -16 -17 -29 -12 -29 4 0 4 -4 -2 -8 -21 -15 -42 -47 -25 -37 12 7
13 6 2 -6 -7 -8 -18 -14 -25 -14 -7 0 -11 -10 -11 -22 1 -13 -3 -20 -7 -17 -9
5 -30 -38 -32 -68 -1 -9 -6 -16 -12 -15 -5 1 -9 -6 -7 -15 2 -10 -2 -18 -8
-18 -5 0 -10 -5 -10 -11 0 -5 6 -7 13 -3 8 5 8 3 -2 -9 -7 -9 -17 -15 -21 -12
-4 3 -7 -8 -6 -24 1 -16 -3 -29 -8 -28 -6 1 -11 -8 -10 -20 0 -12 -4 -21 -10
-20 -6 1 -10 -6 -9 -16 0 -10 -2 -16 -5 -13 -8 9 -34 -32 -27 -43 3 -5 -3 -16
-13 -23 -11 -7 -18 -21 -16 -31 1 -9 -2 -15 -7 -11 -5 3 -9 -4 -9 -15 0 -10
-4 -21 -10 -23 -5 -1 -11 -14 -12 -28 -2 -14 -9 -31 -16 -38 -7 -8 -10 -18 -6
-23 3 -6 0 -16 -6 -24 -7 -8 -10 -24 -7 -35 3 -11 2 -18 -3 -15 -10 6 -22 -24
-14 -36 3 -5 0 -9 -6 -9 -6 0 -9 -4 -6 -9 3 -5 -1 -25 -9 -45 -8 -20 -15 -38
-15 -41 1 -41 -1 -55 -8 -51 -11 7 -6 -125 5 -133 4 -3 10 -17 11 -31 2 -14 9
-31 14 -38 6 -7 8 -15 4 -19 -3 -3 0 -13 8 -22 8 -9 15 -20 15 -26 0 -25 25
-95 33 -95 5 0 7 -4 4 -8 -3 -5 1 -20 9 -35 7 -14 11 -28 7 -31 -3 -3 1 -6 9
-6 8 0 20 -10 28 -21 10 -18 15 -19 22 -8 7 11 9 8 9 -8 0 -13 3 -22 8 -22 19
3 33 -2 27 -11 -3 -5 3 -10 14 -10 12 0 21 -4 21 -10 0 -5 7 -6 17 -3 11 4 14
3 9 -5 -4 -7 3 -14 19 -18 14 -3 25 -11 25 -18 0 -6 5 -4 10 4 6 10 10 11 10
3 0 -7 6 -13 14 -13 8 0 17 -7 20 -16 4 -9 9 -14 13 -11 3 4 12 2 20 -4 7 -6
13 -8 13 -4 0 5 9 0 20 -10 10 -9 32 -18 49 -19 16 0 27 -4 25 -8 -3 -5 4 -8
15 -8 11 0 27 -7 35 -16 10 -10 16 -11 16 -3 0 8 4 8 13 2 6 -6 22 -9 35 -8
12 1 22 -3 22 -8 0 -6 3 -7 7 -4 3 4 13 1 21 -6 13 -9 14 -9 8 1 -9 15 -1 15
26 1 15 -8 19 -8 14 0 -4 6 -3 11 3 11 5 0 12 -8 14 -17 4 -16 5 -16 6 1 1 19
1 19 23 0 12 -10 18 -14 15 -8 -4 7 0 15 9 18 8 3 13 2 10 -3 -12 -18 25 -20
43 -2 22 22 37 16 19 -8 -10 -12 -7 -12 8 2 11 9 24 14 29 10 4 -5 5 -2 1 5
-4 7 -12 10 -17 7 -5 -4 -6 2 -2 11 4 11 8 13 11 6 2 -7 8 -12 13 -12 6 0 8 4
5 8 -3 5 1 9 9 9 8 0 12 -4 9 -9 -3 -4 2 -5 10 -2 9 3 13 11 9 18 -4 6 2 4 12
-4 15 -12 17 -12 10 -1 -6 11 -2 13 19 9 21 -4 24 -3 15 9 -9 11 -9 12 4 7 9
-3 26 1 38 10 16 11 27 12 40 5 10 -5 20 -5 23 -1 3 5 15 8 28 7 13 -1 26 3
30 9 5 7 8 3 8 -9 1 -19 2 -19 14 -3 14 19 31 13 18 -7 -4 -6 1 -2 11 8 12 13
17 15 17 6 0 -12 2 -12 9 0 7 11 9 11 14 0 4 -11 9 -8 21 8 13 17 40 24 54 13
1 -2 5 -3 10 -4 4 -1 13 -5 20 -9 7 -5 12 -3 12 7 0 8 4 18 10 21 6 4 7 -1 3
-12 -6 -15 -4 -16 9 -5 13 10 18 10 24 1 5 -8 3 -10 -7 -4 -8 5 -11 4 -6 0 9
-10 57 -14 51 -4 -2 4 14 5 37 2 29 -4 44 -2 50 8 7 11 9 11 9 -2 0 -14 6 -16
33 -10 18 5 40 7 50 5 10 -1 17 4 17 13 0 13 -3 13 -17 2 -16 -12 -16 -11 0 8
11 12 25 19 33 16 12 -4 12 -8 2 -21 -11 -13 -10 -14 9 -4 16 9 23 9 26 -1 4
-9 6 -9 6 1 1 8 6 10 14 6 7 -5 7 -1 -2 10 -13 15 -13 19 0 27 19 12 36 11 44
-2 4 -6 13 -8 21 -5 8 3 14 0 14 -7 0 -8 4 -6 10 3 5 8 10 10 10 5 0 -6 9 -11
19 -11 13 0 17 4 11 11 -6 7 2 11 22 12 16 0 35 6 41 12 9 9 8 11 -3 8 -8 -2
-12 -2 -7 0 4 3 5 9 1 14 -8 14 3 11 20 -7 9 -9 16 -11 16 -4 0 6 5 8 12 4 7
-5 9 -2 5 9 -4 12 -1 15 14 12 11 -2 17 0 14 6 -4 5 -1 9 6 9 7 0 10 3 6 6
-12 12 25 38 55 38 16 1 33 8 39 16 9 12 10 12 5 -4 -5 -16 -4 -17 9 -6 8 7
13 16 10 20 -3 5 -1 11 4 15 6 3 1 15 -11 27 -16 16 -22 18 -30 7 -7 -12 -8
-11 -6 1 2 8 -1 16 -5 17 -5 1 -15 10 -24 20 -8 10 -11 11 -7 3 6 -12 4 -13
-7 -2 -7 6 -21 12 -32 12 -10 0 -15 4 -12 10 8 13 -1 13 -28 -2 -19 -10 -21
-9 -9 4 9 11 10 18 2 23 -5 3 -10 0 -10 -7 0 -10 -2 -10 -9 1 -5 7 -15 11 -22
9 -8 -3 -33 6 -57 19 -24 13 -41 19 -37 13 3 -6 0 -7 -9 -4 -9 3 -14 9 -12 13
3 4 -8 6 -25 5 -16 -1 -29 3 -29 8 0 6 -6 5 -15 -2 -9 -7 -15 -8 -15 -2 0 6
-8 9 -17 7 -10 -1 -27 2 -38 8 -17 9 -18 8 -8 -4 10 -13 8 -15 -12 -15 -14 0
-25 3 -25 8 0 4 -10 4 -22 0 -13 -5 -49 -7 -80 -6 -32 1 -55 -2 -53 -6 2 -4
-7 -6 -20 -4 -14 1 -25 -1 -25 -4 0 -4 -10 -8 -22 -9 -13 -1 -45 -4 -73 -8
-27 -4 -56 -7 -62 -8 -7 0 -13 -3 -13 -6 0 -3 -13 -7 -30 -8 -48 -3 -128 -51
-112 -67 3 -4 -1 -4 -9 -1 -11 4 -18 -1 -22 -15 -3 -13 -10 -19 -17 -15 -6 4
-29 -3 -51 -14 -22 -12 -44 -19 -49 -16 -5 3 -13 -3 -19 -12 -7 -13 -10 -14
-11 -4 0 11 -6 8 -23 -7 -18 -17 -26 -19 -35 -10 -9 9 -12 9 -12 0 0 -12 -11
-11 -70 3 -14 4 -36 8 -50 9 -14 2 -29 4 -33 4 -4 1 -2 12 4 25 6 12 8 18 3
14 -4 -4 -14 3 -21 15 -7 13 -12 17 -13 11 0 -7 -5 -13 -11 -13 -5 0 -7 5 -4
10 3 6 1 10 -5 10 -7 0 -10 6 -7 14 4 9 0 13 -11 12 -9 -2 -22 3 -29 10 -7 7
-24 11 -38 10 -14 -2 -22 1 -18 7 4 6 -2 8 -15 5 -15 -4 -19 -2 -15 8 3 9 -2
14 -17 14 -11 0 -18 5 -15 10 6 9 -8 15 -29 11 -5 -1 -3 6 5 15 9 12 9 15 2
10 -8 -4 -13 -2 -13 5 0 9 -3 9 -14 0 -12 -10 -14 -8 -12 13 2 18 -1 23 -12
18 -11 -4 -14 -1 -9 10 8 22 -3 30 -22 15 -14 -11 -14 -10 -2 5 7 10 17 15 22
12 5 -3 9 0 9 5 0 6 -6 11 -12 11 -9 0 -8 4 2 10 10 6 11 10 3 10 -7 0 -13 5
-13 11 0 5 4 8 9 4 6 -3 8 4 6 16 -3 13 -10 26 -16 29 -7 5 -5 9 5 13 9 4 16
10 15 14 -4 26 1 38 11 23 7 -12 9 -10 7 7 0 12 -5 19 -9 17 -4 -3 -8 -1 -8 5
0 5 5 13 10 16 6 3 10 12 10 18 0 7 -4 6 -10 -3 -5 -8 -10 -10 -10 -4 0 6 7
17 15 24 8 7 13 16 10 20 -3 5 -1 11 4 14 10 7 9 25 -2 43 -6 9 -3 11 8 7 11
-5 14 -2 9 10 -3 9 -1 16 5 16 6 0 11 5 11 11 0 5 -4 8 -9 5 -5 -4 -4 5 2 18
7 13 16 22 21 19 5 -4 7 1 3 11 -5 12 -3 15 6 9 18 -11 38 -13 31 -2 -3 5 -9
7 -14 4 -4 -3 -11 2 -14 11 -5 13 -2 15 14 11 10 -3 19 -2 18 2 -2 21 3 31 15
25 8 -5 7 -2 -2 9 -12 15 -12 17 4 11 13 -5 16 -4 11 4 -4 7 -15 12 -24 12
-10 0 -5 6 13 15 35 19 57 44 48 58 -3 5 4 6 18 2 19 -5 21 -4 9 4 -13 10 -13
12 0 21 12 7 10 9 -7 7 -12 0 -21 -5 -20 -10 1 -5 -9 -11 -23 -13 -19 -3 -22
-2 -10 6 10 6 11 10 3 10 -7 0 -13 5 -13 11 0 8 4 8 14 0 9 -7 17 -8 20 -2 3
5 0 11 -6 14 -7 2 5 3 28 1 39 -2 41 -1 39 24 -3 41 -4 44 -17 36 -7 -4 -8 -3
-4 4 4 7 2 12 -5 12 -7 0 -9 3 -6 6 4 4 13 1 22 -6 12 -10 15 -10 15 4 0 9 -6
16 -12 16 -7 1 -2 7 12 16 23 14 23 14 3 9 -14 -4 -23 -2 -23 4 0 6 3 10 8 10
23 -4 37 2 24 10 -11 7 -10 9 3 14 11 5 14 3 9 -5 -5 -8 -2 -9 10 -5 15 6 15
2 -4 -29 -17 -26 -20 -38 -11 -47 8 -8 11 -5 11 12 0 14 4 20 12 15 7 -5 8 -3
3 6 -6 10 -4 12 10 6 15 -5 16 -4 5 9 -7 9 -9 15 -4 14 21 -4 24 2 9 17 -9 9
-13 19 -10 22 3 4 10 0 15 -8 8 -13 11 -13 22 -1 11 11 11 13 -1 6 -9 -5 -12
-4 -7 3 4 7 15 12 24 12 13 0 13 2 -4 15 -29 22 -50 20 -33 -2 7 -10 10 -15 5
-11 -5 4 -18 3 -30 -3 -19 -9 -19 -9 -4 4 22 17 11 31 -11 15 -11 -9 -10 -6 2
9 19 21 32 24 55 10 7 -5 12 -4 12 2 0 10 -14 15 -32 12 -5 0 -8 4 -8 10 0 8
-4 8 -14 0 -11 -9 -16 -9 -22 0 -4 7 -3 9 4 5 6 -3 13 -2 17 4 4 7 12 7 25 0
13 -7 21 -7 25 0 3 5 2 10 -3 10 -5 0 -9 7 -9 16 0 15 1 15 12 0 7 -8 16 -12
21 -8 4 4 2 -1 -5 -11 -8 -9 -12 -19 -10 -21 5 -5 44 26 47 37 1 4 6 15 12 25
9 13 10 13 7 1 -3 -9 1 -16 9 -16 7 0 11 4 8 9 -7 12 16 69 25 63 11 -6 33 63
25 77 -6 10 -4 10 8 0 13 -11 16 -10 14 5 0 10 5 17 12 15 10 -2 10 2 3 17 -9
15 -7 20 10 24 12 3 18 10 15 15 -8 14 21 35 36 26 8 -5 8 -1 -2 11 -12 15
-12 17 -1 10 11 -6 13 -4 7 10 -6 16 -4 16 11 4 11 -9 14 -10 9 -1 -4 6 -2 12
3 12 6 0 11 6 11 14 0 8 9 12 25 11 18 -2 25 2 25 13 0 15 2 15 10 2 7 -11 10
-11 10 -2 0 7 4 10 10 7 6 -4 7 1 3 11 -4 11 -3 15 5 10 6 -3 13 3 17 14 3 11
11 20 17 20 5 0 8 7 4 15 -3 8 -2 14 2 14 20 -3 33 2 27 11 -5 9 24 15 49 11
5 -1 3 5 -4 14 -7 9 -9 15 -4 13 5 -2 29 12 54 30 24 17 40 32 34 32 -5 0 0 7
10 15 11 8 16 15 10 15 -5 0 -2 4 6 10 9 6 19 5 29 -3 9 -7 7 0 -5 18 -10 16
-14 26 -7 22 7 -4 14 1 18 13 5 17 22 25 46 22 4 -1 5 9 2 21 -5 21 -4 21 16
-3 14 -17 19 -19 15 -7 -4 10 -3 17 2 15 5 -2 10 0 12 5 5 16 1 19 -13 7 -10
-8 -15 -9 -15 -1 0 6 11 13 25 17 14 3 25 12 25 20 0 8 7 14 16 14 8 0 13 4
10 9 -3 5 14 17 39 27 24 11 50 29 56 41 7 12 16 20 20 17 4 -2 11 1 15 7 4 8
9 7 16 -2 6 -10 7 -7 3 9 -5 16 -2 22 9 22 8 0 20 9 26 20 6 11 15 18 21 15 5
-4 9 -1 9 5 0 6 4 9 9 6 5 -3 14 1 21 9 6 7 18 11 26 8 10 -4 12 0 7 13 -6 17
-5 17 10 5 15 -12 17 -12 11 4 -5 12 -4 16 4 11 6 -3 13 -2 17 4 3 5 13 10 22
10 15 0 53 36 53 51 0 4 8 6 18 5 9 -2 20 2 24 7 4 7 13 6 25 -3 15 -12 15
-11 -2 9 l-20 24 23 -5 c12 -4 20 -2 17 2 -6 10 36 53 44 45 2 -3 -4 -12 -15
-21 -18 -14 -18 -15 4 -4 12 6 22 16 22 22 0 6 6 5 17 -3 12 -10 15 -10 9 -1
-4 7 0 19 8 28 9 8 16 12 16 9 0 -4 9 3 21 16 11 13 18 19 15 12 -4 -6 -2 -14
4 -18 5 -3 10 1 10 9 0 9 7 16 16 16 8 0 13 4 9 9 -6 12 31 25 45 16 6 -4 7 1
3 11 -4 12 -3 15 5 10 7 -4 12 -1 12 10 0 14 2 15 17 3 14 -12 16 -12 8 0 -6
11 -4 13 9 8 9 -4 15 -3 13 1 -3 4 1 13 9 20 8 7 14 10 14 7 0 -4 12 2 28 12
15 11 39 20 54 21 15 1 31 2 35 3 28 5 42 -2 36 -18 -4 -12 1 -9 15 7 19 21
21 22 17 5 -5 -16 -3 -15 6 3 7 13 17 21 23 19 7 -3 12 7 12 23 1 20 -3 27
-15 26 -9 0 -16 6 -16 14 0 8 -2 17 -5 20 -3 3 -13 19 -22 35 -10 17 -23 29
-29 27 -9 -2 -9 1 1 12 7 9 18 16 25 16 17 0 25 23 15 40 -11 18 -82 21 -76 3
3 -7 1 -13 -4 -13 -5 0 -11 8 -13 18 -3 9 -5 11 -6 3z"/>
<path d="M3990 2491 c0 -5 -13 -11 -29 -14 -31 -6 -90 -62 -92 -87 -1 -8 -3
-22 -3 -30 -1 -8 -8 -14 -15 -12 -7 1 -10 -1 -8 -6 3 -4 -4 -19 -15 -32 -11
-14 -16 -18 -12 -10 4 8 -5 3 -21 -12 -15 -16 -36 -28 -46 -28 -10 0 -43 -9
-73 -21 -31 -11 -59 -20 -63 -20 -5 0 -12 -7 -16 -15 -6 -10 -16 -13 -29 -8
-17 5 -20 3 -14 -12 5 -14 4 -16 -4 -8 -13 13 -50 7 -50 -8 0 -5 4 -7 8 -4 5
3 9 -1 9 -9 0 -8 -4 -12 -9 -9 -5 3 -19 -2 -31 -13 -22 -18 -22 -18 -4 3 30
36 19 37 -16 2 -19 -18 -32 -37 -29 -42 2 -4 -5 -5 -17 -1 -15 4 -21 3 -19 -7
2 -7 -3 -12 -9 -10 -7 1 -13 -2 -13 -8 0 -5 -6 -10 -14 -10 -7 0 -19 -13 -26
-30 -7 -16 -16 -28 -20 -25 -10 6 -32 -44 -24 -56 3 -5 -2 -12 -10 -15 -9 -3
-14 -10 -11 -14 3 -5 1 -11 -5 -15 -6 -4 -8 -11 -5 -16 4 -5 -1 -12 -9 -15 -9
-3 -16 -15 -16 -25 0 -13 -5 -17 -17 -12 -10 4 -14 2 -9 -5 3 -6 2 -13 -4 -17
-6 -4 -8 -11 -5 -16 4 -5 2 -9 -3 -9 -6 0 -7 -16 -4 -37 3 -21 6 -55 6 -75 1
-21 5 -38 9 -38 5 0 6 -4 3 -8 -3 -5 2 -22 10 -38 9 -16 15 -31 15 -34 -1 -3
4 -6 9 -6 6 -1 13 -3 18 -4 4 -1 10 -2 15 -1 4 0 7 -3 7 -7 0 -13 54 -40 75
-36 12 2 27 -6 38 -19 14 -17 16 -18 11 -3 -7 17 -6 17 27 0 42 -22 84 -27 67
-7 -8 11 -7 12 7 7 14 -6 16 -4 10 7 -7 11 -6 12 6 4 8 -6 44 -10 82 -10 42 1
67 -2 67 -9 0 -6 4 -5 9 2 4 8 12 14 17 14 5 -1 10 13 11 30 3 25 0 29 -15 26
-11 -3 -19 0 -19 8 0 8 4 14 9 14 4 0 8 7 8 16 0 8 4 13 9 9 6 -3 8 3 6 15 -2
11 1 22 6 25 13 9 0 27 -14 19 -7 -3 -1 4 12 15 14 13 18 21 10 21 -11 1 -11
3 1 13 13 11 15 23 11 74 -1 7 -9 10 -18 7 -15 -5 -16 -4 -3 5 8 6 11 11 6 11
-5 0 -3 6 3 13 6 8 9 16 6 18 -2 3 4 5 15 5 10 0 17 -4 14 -7 -2 -4 0 -10 6
-14 5 -3 10 1 10 10 0 13 5 11 23 -7 12 -13 15 -15 7 -4 -15 19 -14 19 9 4 13
-9 30 -14 39 -11 8 4 13 2 9 -3 -3 -6 -1 -16 5 -24 8 -12 9 -12 4 2 -3 10 -1
20 5 24 12 7 41 -15 34 -26 -8 -13 14 -23 28 -13 14 11 27 11 46 -1 10 -6 12
-5 7 2 -4 7 -1 12 10 12 13 0 14 3 5 14 -9 11 -9 16 0 22 8 5 10 3 4 -7 -4 -8
4 0 19 16 14 17 25 34 26 39 0 4 7 5 16 2 8 -3 13 -2 10 3 -3 4 6 14 19 21 13
7 22 17 19 22 -3 4 0 8 6 8 7 0 10 12 9 28 -2 15 0 33 4 40 5 6 5 12 1 12 -4
0 3 11 15 24 15 16 20 29 15 38 -5 9 -2 8 11 -2 11 -9 16 -10 11 -2 -4 7 -1
12 9 12 8 0 18 7 21 15 4 8 11 12 17 8 6 -3 7 -1 3 6 -4 6 0 14 8 17 9 3 13
10 10 15 -3 5 0 9 6 9 6 0 8 5 4 11 -4 8 0 8 15 0 17 -10 20 -9 14 5 -5 14 -3
15 17 4 15 -8 20 -8 16 -1 -4 7 1 12 13 12 38 3 42 4 50 18 6 9 11 10 15 2 4
-6 2 -11 -3 -11 -6 0 -11 -5 -11 -11 0 -5 5 -7 10 -4 6 4 17 2 24 -4 15 -13
60 15 50 31 -4 7 -2 8 5 4 9 -6 9 -11 0 -22 -6 -8 -9 -17 -5 -21 3 -4 13 2 22
13 8 10 13 14 10 7 -4 -6 -2 -14 4 -18 5 -3 10 1 10 11 0 15 2 15 25 0 15 -10
25 -12 25 -6 0 6 4 9 10 5 5 -3 8 -11 6 -18 -1 -7 -1 -9 1 -4 3 4 10 7 16 7 6
0 19 7 29 17 10 9 18 11 18 6 0 -6 -7 -13 -15 -17 -8 -3 -15 -10 -15 -16 0 -7
6 -8 19 -1 18 10 49 -8 36 -21 -3 -3 8 -5 24 -4 27 1 58 16 33 16 -5 0 -18 3
-28 7 -13 5 -15 3 -9 -7 5 -9 4 -11 -4 -6 -6 4 -9 12 -6 17 4 5 2 9 -3 9 -6 0
-13 8 -16 17 -6 16 -6 16 12 0 22 -20 39 -23 23 -3 -9 11 -8 15 5 20 16 6 33
-8 34 -27 0 -5 5 -5 10 -2 8 5 7 12 -2 23 -11 15 -11 15 3 5 9 -7 20 -9 24 -5
5 4 5 2 2 -4 -7 -13 28 -54 46 -54 7 0 6 -4 -3 -10 -8 -5 -19 -10 -25 -10 -5
0 -4 4 3 9 11 6 10 10 -4 15 -10 4 -21 1 -27 -6 -6 -9 -7 -8 -3 4 3 10 1 20
-3 23 -5 2 -11 -3 -13 -13 -8 -33 3 -53 34 -59 22 -4 26 -8 16 -15 -10 -8 -10
-9 2 -5 8 2 14 12 14 21 -1 10 0 15 4 12 3 -3 10 2 17 11 9 13 14 13 20 3 6
-9 4 -11 -5 -5 -10 6 -12 4 -7 -9 4 -9 3 -15 -2 -12 -5 3 -12 -1 -15 -10 -11
-28 -6 -38 9 -18 13 18 14 18 8 -4 -4 -18 -2 -21 12 -15 13 4 16 3 11 -6 -10
-16 12 -41 30 -34 8 3 14 2 13 -3 -4 -26 1 -39 11 -24 7 12 14 9 39 -19 17
-19 28 -38 24 -43 -3 -6 5 -5 17 2 12 6 24 9 28 6 3 -3 0 -6 -6 -6 -7 0 -12
-5 -12 -11 0 -5 6 -7 13 -3 9 5 9 4 1 -5 -18 -19 32 -66 52 -50 21 17 15 -11
-6 -29 -8 -8 -10 -11 -3 -7 7 3 17 -4 23 -15 6 -11 15 -18 21 -15 5 4 8 2 7
-3 -2 -5 9 -23 23 -39 14 -16 24 -33 22 -39 -2 -6 3 -11 11 -11 8 0 12 5 10
11 -2 6 8 12 23 12 16 1 22 -1 15 -3 -6 -3 -9 -10 -6 -15 4 -7 2 -8 -4 -4 -8
5 -10 2 -6 -8 3 -9 10 -14 14 -11 5 3 15 -2 23 -10 9 -8 25 -15 37 -15 15 0
20 -5 17 -14 -4 -10 -1 -13 9 -9 9 3 21 -3 30 -16 15 -21 41 -30 28 -9 -5 7
-3 8 5 4 7 -5 10 -15 6 -23 -5 -13 -3 -14 10 -3 9 7 15 9 14 4 -4 -22 2 -33
16 -28 8 4 15 1 15 -6 0 -7 7 -10 16 -6 10 4 18 -1 21 -14 3 -10 18 -25 34
-32 16 -7 29 -19 29 -26 0 -7 5 -10 10 -7 6 3 10 -2 10 -11 0 -10 3 -15 6 -11
8 8 34 -18 34 -35 0 -10 3 -9 10 2 8 12 10 11 10 -7 0 -16 8 -25 25 -29 14 -3
23 -9 20 -14 -2 -4 7 -12 20 -18 14 -7 25 -16 25 -22 0 -6 4 -8 10 -5 5 3 7 0
5 -7 -6 -14 44 -65 58 -60 5 1 6 -1 3 -6 -3 -5 4 -19 15 -31 11 -12 17 -26 14
-31 -4 -6 -1 -9 6 -8 7 2 19 -9 26 -24 8 -16 18 -28 23 -28 5 0 7 -7 4 -15 -4
-8 1 -17 10 -21 9 -3 16 -15 16 -26 0 -10 4 -17 8 -14 5 3 18 -12 30 -32 16
-30 27 -38 53 -40 24 -2 30 1 26 12 -4 9 6 25 23 39 16 14 26 28 23 31 -4 3 0
6 8 6 11 0 11 2 -1 10 -10 6 -11 10 -2 10 6 0 12 7 12 16 0 9 5 12 13 8 9 -6
9 -5 0 7 -10 12 -8 15 8 16 14 1 19 -3 15 -12 -3 -9 0 -12 9 -8 8 3 12 10 8
17 -5 8 -3 8 8 -1 11 -9 18 -9 30 0 15 12 33 71 19 62 -4 -3 -10 4 -13 15 -3
13 1 24 11 30 43 24 45 27 32 49 -11 21 -10 22 9 12 18 -10 20 -9 14 6 -5 12
-2 15 9 10 11 -4 15 0 13 11 -1 9 1 22 6 27 13 18 3 50 -15 47 -9 -2 -16 3
-16 9 0 7 -8 5 -20 -6 -11 -10 -17 -21 -15 -26 3 -4 0 -11 -6 -15 -7 -4 -9 -3
-6 3 4 6 0 13 -8 17 -17 6 -30 -10 -15 -19 5 -3 10 -13 10 -21 0 -8 -4 -12
-10 -9 -5 3 -10 1 -10 -4 0 -6 6 -11 13 -11 8 0 7 -4 -3 -10 -10 -6 -11 -10
-2 -10 6 0 12 -5 12 -11 0 -5 -4 -8 -9 -5 -5 3 -12 -1 -15 -10 -4 -10 -2 -13
6 -8 7 4 8 3 4 -4 -4 -7 -3 -12 2 -12 6 0 12 7 16 15 3 8 13 15 23 14 16 0 16
-1 -2 -9 -11 -5 -15 -9 -10 -10 6 0 3 -5 -7 -10 -20 -12 -48 -3 -48 17 0 8 -5
11 -12 7 -7 -4 -8 -3 -4 4 4 7 3 12 -3 12 -5 0 -13 9 -16 21 -4 11 -9 18 -12
16 -7 -8 -43 25 -37 35 3 4 -2 8 -11 8 -8 0 -30 15 -48 33 -17 17 -50 45 -72
62 -41 31 -98 85 -89 85 3 0 -6 11 -20 25 -14 14 -29 25 -35 25 -5 0 -13 9
-16 20 -3 11 -13 20 -21 20 -8 0 -17 7 -20 15 -4 8 -10 12 -15 9 -5 -3 -9 3
-9 12 0 10 -3 14 -7 11 -3 -4 -15 5 -25 20 -10 16 -18 24 -18 20 0 -4 -6 -2
-14 5 -8 7 -12 16 -9 21 2 4 -5 7 -17 7 -12 0 -19 4 -16 8 2 4 -9 14 -25 21
-16 7 -29 20 -29 28 0 9 -6 13 -15 9 -8 -3 -15 -1 -15 3 0 14 -57 71 -64 64
-3 -3 -6 -1 -6 6 0 7 -5 9 -12 5 -6 -4 -8 -3 -5 4 4 5 -22 40 -57 77 -36 36
-64 69 -64 72 0 3 -13 20 -30 38 -17 18 -32 38 -34 46 -2 7 -11 22 -20 33 -10
11 -18 26 -18 33 0 7 -5 13 -11 13 -5 0 -7 5 -3 12 5 8 2 9 -9 5 -9 -3 -16 -3
-16 1 4 22 -5 37 -45 77 -24 25 -49 45 -55 45 -6 0 -11 5 -11 10 0 6 -7 10
-15 10 -8 0 -15 7 -15 16 0 8 -4 13 -9 9 -5 -3 -12 -1 -16 5 -3 5 -17 10 -30
10 -13 0 -25 5 -27 10 -2 6 -18 12 -36 15 -18 2 -39 8 -45 13 -7 5 -29 8 -50
7 -21 -1 -40 2 -43 6 -2 5 -16 4 -30 -1 -19 -7 -23 -7 -18 2 5 7 2 9 -8 5 -9
-3 -19 -3 -22 1 -12 12 -48 13 -40 0 5 -7 3 -8 -6 -3 -7 4 -29 9 -49 11 -20 1
-38 3 -41 4 -3 1 -9 1 -15 0 -28 -7 -55 -7 -55 -1 0 4 -7 8 -15 8 -8 0 -12 -4
-9 -8 2 -4 -1 -11 -7 -15 -8 -4 -9 -3 -5 5 11 17 -22 25 -41 10 -14 -12 -16
-12 -11 2 7 19 -25 15 -51 -5 -11 -8 -13 -8 -8 1 5 7 1 10 -10 8 -10 -2 -18
-4 -18 -5 0 -1 -12 -3 -27 -5 -39 -5 -102 -28 -110 -40 -5 -6 -8 -5 -8 4 0 11
-3 11 -15 1 -11 -9 -15 -9 -15 -1 0 7 -5 9 -11 5 -7 -4 -10 -2 -7 6 7 23 -47
70 -81 70 -17 0 -31 -4 -31 -9z"/>
<path d="M7005 2349 c4 -5 -12 -9 -34 -9 -23 0 -41 -4 -41 -8 0 -4 -9 -8 -19
-9 -11 -1 -38 -13 -60 -27 -22 -14 -43 -26 -46 -26 -2 0 -14 -8 -25 -17 -11
-10 -22 -16 -24 -13 -1 3 -10 -3 -20 -13 -10 -9 -22 -15 -27 -12 -5 4 -9 2 -9
-3 0 -5 -13 -15 -29 -22 -16 -6 -45 -26 -65 -44 -19 -18 -38 -31 -41 -28 -3 3
-5 -2 -5 -12 0 -9 -4 -14 -10 -11 -5 3 -10 -1 -10 -9 0 -9 -4 -16 -10 -16 -5
0 -10 -5 -10 -11 0 -7 -8 -18 -17 -26 -12 -10 -13 -12 -3 -8 9 4 7 0 -4 -9
-10 -8 -15 -20 -10 -27 4 -7 3 -10 -3 -6 -6 4 -14 -4 -17 -18 -4 -16 -11 -23
-18 -19 -7 4 -8 3 -4 -5 4 -6 2 -18 -4 -26 -10 -12 -10 -15 1 -15 9 0 10 -3 3
-8 -6 -4 -17 -25 -24 -47 -7 -22 -16 -44 -19 -50 -4 -5 -6 -20 -5 -32 0 -12
-3 -21 -9 -20 -6 1 -12 -17 -14 -40 -3 -29 -1 -43 7 -43 7 0 10 -7 6 -15 -3
-8 -2 -15 3 -15 5 0 7 -12 5 -26 -1 -15 3 -28 12 -31 8 -3 11 -9 8 -14 -7 -13
10 -11 23 2 8 8 13 7 18 -2 6 -8 4 -10 -5 -4 -9 5 -11 4 -6 -4 6 -9 11 -9 21
-1 8 7 19 9 24 6 5 -4 14 2 20 11 8 13 10 14 11 4 0 -11 4 -10 16 5 15 19 16
19 10 -1 -6 -19 -5 -19 8 -2 7 9 16 17 20 17 11 0 36 27 36 39 0 6 7 11 16 11
8 0 13 4 10 8 -3 5 4 16 15 25 10 9 19 14 19 12 0 -3 6 0 14 7 8 7 12 16 9 21
-2 4 -1 7 4 6 20 -3 34 2 28 11 -3 6 -1 11 4 11 34 4 61 20 54 32 -3 6 -1 7 6
3 15 -10 53 3 46 15 -4 5 4 5 19 -1 16 -6 27 -6 31 1 4 5 11 7 16 4 5 -4 9 -2
9 4 0 5 11 8 25 6 22 -2 23 0 13 13 -9 11 -9 14 -1 9 6 -4 14 -3 18 3 3 5 1
10 -5 10 -7 0 -10 6 -7 13 2 6 -4 19 -13 27 -12 10 -15 21 -9 35 4 11 8 16 8
12 1 -4 9 -3 19 2 14 7 25 6 40 -5 11 -8 23 -10 26 -5 3 5 24 8 45 7 22 0 37
2 35 5 -2 4 12 10 31 13 19 4 35 12 35 19 0 7 4 6 10 -3 6 -10 10 -11 10 -2 0
6 7 12 16 12 9 0 13 -5 9 -12 -4 -7 0 -5 8 5 11 14 16 15 20 5 4 -10 6 -10 6
1 1 11 5 10 16 -5 15 -19 15 -19 9 1 -5 19 -5 19 9 2 11 -14 16 -15 20 -5 3 8
6 5 6 -6 1 -11 4 -16 8 -13 3 4 11 -1 18 -10 15 -20 45 -26 45 -10 0 7 5 6 10
-3 9 -13 11 -13 20 0 8 12 10 12 10 1 0 -8 7 -11 20 -8 11 3 18 0 17 -6 -1 -6
4 -12 11 -13 6 -1 15 -3 20 -4 4 -1 15 -2 25 -1 9 1 17 -3 17 -9 0 -6 -5 -8
-12 -4 -6 4 -8 3 -5 -3 4 -6 17 -8 31 -6 13 3 27 0 31 -7 5 -8 11 -8 23 2 12
10 14 10 8 1 -4 -7 -3 -13 3 -13 5 0 13 5 16 10 3 6 12 10 18 10 7 0 6 -4 -3
-10 -13 -8 -13 -11 -1 -22 11 -11 13 -11 6 1 -6 11 -2 13 19 7 21 -5 26 -3 26
11 1 14 4 12 15 -7 13 -23 14 -23 15 -5 1 12 4 15 7 7 3 -9 9 -10 18 -2 9 7
16 6 25 -5 10 -12 16 -13 26 -4 11 9 14 8 14 -2 0 -11 2 -11 10 1 5 8 10 10
10 3 0 -6 8 -10 18 -9 9 2 36 -2 58 -9 24 -7 48 -9 55 -4 8 5 20 2 30 -7 11
-10 19 -12 24 -5 4 7 12 8 24 1 10 -5 21 -6 25 -3 3 3 6 1 6 -6 0 -7 5 -9 10
-6 6 3 10 -1 10 -10 0 -9 5 -13 10 -10 6 3 24 -9 40 -27 17 -18 30 -28 30 -23
0 6 5 2 11 -8 6 -9 15 -15 20 -11 5 3 9 2 8 -3 -4 -21 2 -33 16 -33 8 0 15 -4
15 -10 0 -5 7 -10 15 -10 8 0 14 -4 12 -8 -1 -4 14 -24 34 -44 21 -20 34 -39
31 -42 -3 -3 0 -6 6 -6 7 0 12 -4 12 -10 0 -12 60 -70 72 -70 5 0 6 -5 3 -10
-3 -6 1 -10 9 -10 9 0 16 -4 16 -9 0 -5 8 -12 18 -15 24 -9 82 -61 82 -75 0
-7 5 -9 10 -6 6 3 10 2 10 -4 0 -5 20 -28 45 -52 24 -23 41 -47 38 -53 -3 -6
-3 -8 2 -4 7 7 35 -14 35 -27 0 -3 9 -15 20 -27 11 -12 20 -28 20 -35 0 -7 5
-13 11 -13 5 0 8 -4 4 -9 -3 -5 -1 -12 4 -16 6 -3 7 -13 4 -22 -4 -11 -3 -14
5 -9 9 5 11 -7 10 -41 -2 -37 1 -47 12 -45 12 2 12 0 -1 -10 -11 -9 -14 -20
-9 -33 4 -11 6 -28 4 -37 -1 -10 2 -18 8 -18 6 0 8 -6 5 -14 -3 -8 0 -19 7
-25 7 -6 14 -32 15 -58 5 -93 6 -108 15 -122 6 -10 5 -12 -2 -7 -10 6 -19 -53
-13 -87 1 -5 -3 -6 -8 -3 -8 5 -18 -8 -19 -27 0 -5 -13 -20 -29 -34 -15 -14
-21 -22 -13 -18 8 5 5 -3 -8 -17 -20 -22 -28 -39 -31 -70 -1 -4 -8 -14 -17
-22 -9 -10 -11 -16 -4 -16 7 0 5 -7 -4 -16 -9 -8 -14 -20 -11 -25 3 -5 2 -17
-4 -27 -7 -13 -4 -24 10 -42 10 -14 19 -20 19 -14 0 5 -6 16 -12 24 -7 8 -2 6
11 -5 14 -11 21 -14 16 -6 -6 10 -4 13 6 9 10 -4 15 1 16 13 1 11 -2 17 -7 14
-5 -3 -11 -1 -14 4 -3 5 7 8 23 7 20 -1 27 2 24 11 -3 7 1 13 8 13 8 1 3 7
-11 15 -14 8 -19 14 -12 15 7 0 10 4 7 10 -3 5 0 7 8 4 8 -3 18 -1 22 5 3 6
14 11 25 11 10 0 20 7 24 15 3 8 9 15 13 14 25 -4 38 1 23 10 -8 6 -18 7 -22
5 -4 -3 -8 0 -8 7 0 8 -5 8 -17 -2 -17 -13 -17 -13 0 7 24 29 21 41 -5 18 -23
-19 -23 -19 -7 1 9 11 15 31 13 45 -1 14 0 20 2 13 3 -7 12 -9 20 -6 13 5 13
7 -1 17 -11 8 -12 15 -4 26 9 13 10 13 6 -2 -6 -16 15 -32 27 -21 10 10 7 25
-3 19 -5 -4 -8 2 -7 11 2 10 9 19 17 19 8 1 20 2 27 3 6 0 12 6 12 12 0 6 -7
8 -16 5 -8 -3 -12 -2 -9 3 3 5 -4 13 -16 16 -11 4 -18 9 -15 12 3 4 1 12 -6
20 -9 11 -7 12 8 6 17 -6 17 -5 5 10 -11 14 -11 18 3 23 9 3 13 10 10 15 -3 5
-9 7 -12 5 -4 -2 -8 10 -8 27 -1 18 1 26 3 20 3 -7 3 -14 1 -17 -2 -2 12 -19
31 -37 19 -18 27 -30 18 -26 -17 6 -24 -7 -9 -16 4 -2 1 -2 -6 -1 -18 5 -28
-26 -11 -37 21 -13 29 -11 23 6 -5 12 1 14 25 11 17 -2 34 1 38 7 4 6 1 7 -7
2 -10 -6 -12 -4 -7 8 3 9 2 19 -3 22 -6 4 -10 11 -10 17 0 7 5 6 14 -1 17 -14
17 2 -1 34 -5 11 -9 30 -8 42 1 12 -2 20 -7 17 -4 -3 -8 0 -8 6 0 7 -7 9 -16
6 -9 -3 -12 -2 -9 5 4 6 13 8 20 5 19 -7 27 5 14 21 -9 9 -8 13 0 13 6 0 11 4
11 8 0 5 -7 9 -15 9 -8 0 -12 -4 -9 -9 3 -4 1 -8 -4 -8 -6 0 -12 7 -16 15 -3
8 0 14 6 12 6 -1 13 4 16 12 2 8 0 11 -6 7 -5 -3 -13 2 -16 11 -7 16 11 36 25
27 4 -2 5 5 2 16 -3 11 -9 20 -14 20 -5 0 -7 -6 -5 -12 1 -7 1 -10 -1 -5 -3 4
-10 4 -16 1 -8 -5 -8 -2 1 7 13 14 17 83 4 75 -5 -3 -9 1 -9 8 0 8 8 12 21 9
19 -4 19 -3 4 7 -12 7 -16 21 -14 45 1 19 -2 35 -7 35 -5 0 -7 6 -4 14 3 8 -1
17 -9 20 -9 3 -13 10 -10 15 4 5 -1 16 -9 24 -8 9 -15 20 -15 26 0 6 -8 11
-17 11 -9 0 -13 3 -10 7 4 3 -7 19 -23 35 -16 15 -26 28 -22 28 4 1 -4 10 -17
20 -13 11 -20 20 -16 20 3 0 0 6 -7 14 -7 8 -24 28 -38 46 -14 18 -31 38 -37
45 -7 8 -13 19 -13 25 0 6 -4 8 -10 5 -5 -3 -10 1 -10 10 0 9 -4 13 -10 10 -5
-3 -10 3 -10 14 0 12 -4 21 -10 21 -5 0 -9 3 -8 8 4 11 -69 136 -97 166 -14
15 -25 31 -25 37 0 5 -5 9 -12 9 -6 0 -8 3 -5 7 4 3 -5 16 -18 29 -14 13 -25
26 -25 29 0 7 -12 22 -62 76 -21 22 -38 45 -38 50 0 6 -4 8 -9 5 -5 -3 -11 1
-15 9 -3 8 -12 15 -21 15 -8 0 -14 3 -12 8 5 15 -41 54 -55 46 -9 -5 -8 -2 2
11 9 11 10 16 3 11 -12 -6 -18 5 -14 27 0 4 -6 7 -15 7 -8 0 -12 5 -9 10 3 6
2 10 -2 10 -5 0 -21 12 -37 26 -23 22 -30 24 -37 13 -7 -12 -9 -11 -9 1 0 10
-3 11 -8 4 -4 -6 -15 -10 -24 -8 -10 1 -18 -1 -18 -6 0 -4 -10 -6 -22 -3 -19
4 -20 3 -8 -6 13 -9 13 -11 -2 -11 -9 0 -20 9 -23 20 -4 11 -11 18 -16 15 -5
-4 -9 -1 -9 6 0 6 -8 9 -18 7 -10 -3 -23 1 -30 9 -7 7 -17 11 -23 8 -5 -4 -9
-1 -9 4 0 6 -11 11 -25 11 -14 0 -25 5 -25 11 0 8 -5 8 -15 -1 -10 -9 -15 -9
-15 -1 0 6 -17 11 -38 11 -21 0 -43 5 -50 12 -6 6 -25 11 -42 10 -16 0 -30 4
-30 10 0 6 -9 8 -20 5 -11 -3 -20 0 -20 6 0 6 -3 7 -7 4 -3 -4 -18 0 -31 9
-24 16 -25 15 -18 -2 6 -17 6 -17 -12 -1 -10 9 -22 14 -25 10 -4 -3 -7 -1 -7
5 0 7 -5 12 -11 12 -5 0 -7 -4 -4 -10 3 -5 2 -10 -3 -10 -5 0 -12 9 -15 20 -3
11 -9 20 -14 19 -21 -4 -34 2 -27 13 4 7 3 8 -5 4 -6 -4 -8 -12 -5 -18 5 -7 2
-8 -7 -2 -21 13 -31 12 -59 -4 l-25 -15 19 21 c11 12 14 22 8 22 -6 0 -14 -5
-17 -10 -4 -6 -12 -7 -18 -3 -17 10 -79 11 -99 1 -10 -5 -18 -4 -20 3 -2 7
-41 12 -96 14 -56 2 -90 0 -87 -6z"/>
</g>
</svg>
