<?xml version="1.0" standalone="no"?>
<!DOCTYPE svg PUBLIC "-//W3C//DTD SVG 20010904//EN"
 "http://www.w3.org/TR/2001/REC-SVG-20010904/DTD/svg10.dtd">
<svg version="1.0" xmlns="http://www.w3.org/2000/svg"
 width="1024.000000pt" height="1024.000000pt" viewBox="0 0 1024.000000 1024.000000"
 preserveAspectRatio="xMidYMid meet">
<metadata>
Created by potrace 1.16, written by Peter Selinger 2001-2019
</metadata>
<g transform="translate(0.000000,1024.000000) scale(0.100000,-0.100000)"
fill="#000000" stroke="none">
<path d="M5560 9677 c0 -6 -3 -7 -6 -4 -4 3 -16 1 -28 -5 -23 -13 -35 -16 -86
-20 -19 -2 -41 -10 -48 -18 -12 -13 -13 -13 -6 0 5 10 -1 8 -16 -5 -44 -38
-60 -55 -60 -67 0 -6 -3 -8 -7 -5 -3 4 -12 -5 -20 -19 -16 -32 -16 -37 -1 -28
7 5 8 3 4 -5 -5 -7 -15 -10 -25 -6 -13 5 -14 4 -3 -6 6 -7 12 -20 12 -29 0 -9
9 -26 19 -37 11 -12 17 -24 14 -27 -4 -3 4 -6 16 -6 12 0 20 -3 18 -7 -9 -14
26 -35 61 -36 6 0 12 -3 12 -7 0 -3 14 -14 30 -23 17 -10 30 -25 30 -33 0 -8
-4 -13 -8 -10 -5 3 -9 -2 -9 -10 0 -9 6 -13 15 -9 12 4 13 3 3 -9 -7 -8 -9
-21 -5 -27 4 -8 3 -9 -4 -5 -8 5 -12 -4 -12 -29 0 -26 -3 -34 -12 -29 -7 4
-10 4 -6 -1 4 -4 3 -17 -3 -28 -9 -15 -8 -18 3 -11 10 6 11 5 1 -7 -6 -8 -13
-18 -15 -24 -1 -5 -7 -9 -12 -7 -5 2 -4 -4 4 -12 9 -12 10 -16 0 -16 -7 0 -10
-7 -6 -15 3 -8 9 -22 12 -30 3 -8 1 -15 -6 -15 -6 0 -8 5 -4 12 5 7 3 8 -5 4
-9 -6 -9 -12 2 -24 9 -11 14 -33 12 -60 -2 -36 0 -42 14 -37 13 5 13 4 4 -6
-10 -10 -9 -17 4 -33 10 -12 11 -15 3 -8 -24 21 -33 13 -15 -14 9 -15 13 -24
8 -21 -5 3 -9 -12 -9 -33 0 -24 4 -36 11 -32 5 3 4 -2 -4 -11 -11 -14 -11 -18
4 -23 13 -5 14 -9 3 -15 -11 -8 -11 -10 1 -18 11 -7 11 -9 0 -14 -12 -5 -12
-7 0 -15 11 -8 11 -10 0 -15 -12 -4 -11 -7 1 -16 12 -8 12 -11 1 -11 -7 0 -11
-6 -7 -15 3 -8 2 -15 -3 -15 -4 0 -7 -13 -6 -30 2 -28 -5 -35 -30 -30 -5 1 -4
-4 3 -11 6 -7 12 -17 12 -21 0 -5 -6 -8 -12 -7 -27 3 -39 -1 -32 -13 5 -8 2
-9 -9 -5 -10 3 -17 2 -17 -4 0 -6 -4 -7 -10 -4 -5 3 -10 1 -10 -6 0 -7 -3 -10
-6 -6 -9 9 -101 -91 -97 -105 2 -5 -2 -8 -7 -8 -6 0 -15 -12 -20 -26 -6 -14
-14 -22 -20 -19 -6 4 -7 -1 -3 -11 4 -11 2 -15 -4 -11 -6 4 -14 0 -17 -9 -3
-8 -10 -12 -16 -9 -5 3 -10 1 -10 -4 0 -6 -8 -11 -19 -11 -10 0 -24 -7 -31
-15 -7 -8 -16 -12 -21 -9 -5 3 -9 0 -9 -7 0 -7 -3 -10 -6 -6 -3 3 -23 -5 -44
-18 -21 -13 -40 -21 -43 -19 -3 3 -14 -3 -25 -13 -35 -31 -52 -44 -52 -38 0 3
-9 -4 -20 -15 -12 -12 -25 -18 -30 -15 -6 4 -10 1 -10 -4 0 -6 -11 -11 -24
-11 -14 0 -27 -4 -30 -9 -3 -4 -21 -7 -41 -6 -19 1 -35 -2 -35 -7 0 -4 -5 -8
-11 -8 -5 0 -7 5 -3 12 5 7 3 8 -7 2 -15 -9 -28 -13 -72 -19 -15 -3 -36 -9
-47 -15 -13 -7 -21 -7 -25 0 -5 8 -11 7 -21 -1 -8 -6 -23 -9 -34 -6 -11 3 -18
1 -15 -3 3 -5 1 -11 -4 -14 -5 -4 -13 -2 -16 4 -5 8 -15 6 -32 -5 -13 -9 -31
-14 -39 -11 -8 3 -13 2 -10 -3 3 -5 -17 -8 -44 -7 -48 1 -62 -6 -40 -19 6 -3
10 -14 9 -23 0 -12 -3 -11 -9 6 -11 27 -51 45 -62 28 -4 -6 -8 -7 -8 -1 0 6
-13 10 -29 10 -19 0 -26 -4 -21 -10 6 -7 -4 -10 -27 -9 -30 2 -34 -1 -30 -18
4 -15 3 -17 -8 -8 -8 7 -20 8 -26 4 -7 -4 -9 -3 -6 3 4 6 -5 9 -24 7 -17 -2
-39 1 -49 6 -13 7 -21 7 -26 -1 -5 -8 -10 -6 -17 6 -6 12 -12 14 -16 6 -6 -8
-15 -9 -34 -2 -28 11 -44 0 -31 -21 4 -7 3 -8 -4 -4 -7 4 -12 13 -12 21 0 16
-52 13 -58 -4 -3 -9 -8 -9 -17 -1 -9 8 -17 6 -29 -5 -19 -20 -27 -20 -37 -3
-6 9 -9 9 -9 1 0 -7 -10 -10 -26 -7 -16 3 -23 1 -19 -6 4 -6 0 -7 -10 -3 -10
3 -21 0 -26 -8 -6 -11 -9 -11 -9 -1 0 10 -5 10 -20 2 -11 -6 -24 -8 -29 -6 -5
3 -12 -2 -15 -11 -6 -15 -8 -15 -16 -3 -6 9 -10 10 -10 3 0 -6 -8 -10 -17 -9
-10 2 -31 -1 -48 -6 -16 -5 -45 -9 -62 -10 -24 0 -33 -5 -33 -16 0 -15 -2 -15
-10 -2 -9 13 -11 13 -20 0 -9 -13 -10 -13 -10 0 0 9 -3 11 -8 4 -4 -6 -39 -10
-79 -10 -40 1 -73 -3 -73 -8 0 -5 -8 -2 -17 5 -11 9 -14 10 -9 2 5 -9 -1 -12
-23 -9 -17 2 -31 0 -31 -5 0 -5 -10 -8 -22 -8 -13 0 -39 -3 -58 -7 -19 -4 -54
-7 -77 -8 -23 0 -39 -4 -37 -7 2 -4 -5 -9 -16 -12 -13 -3 -18 -1 -13 5 4 7 1
8 -8 2 -13 -7 -46 -12 -131 -16 -16 -1 -28 -4 -28 -7 0 -3 -42 -5 -92 -3 -51
1 -100 2 -108 2 -17 0 -49 1 -67 2 -7 1 -13 5 -13 9 0 5 -7 6 -15 3 -8 -4 -15
-1 -15 5 0 9 -5 9 -20 1 -15 -8 -18 -8 -14 3 3 8 -2 14 -10 14 -8 0 -13 -4
-10 -9 5 -7 -10 -12 -28 -9 -5 0 -8 -4 -8 -9 0 -6 -7 -10 -16 -10 -14 0 -14
-3 -4 -15 10 -12 10 -15 0 -15 -9 0 -10 -3 -1 -14 9 -10 8 -16 -4 -26 -8 -7
-15 -21 -15 -31 0 -10 -5 -21 -12 -25 -7 -4 -8 -3 -4 5 5 8 -2 11 -24 9 -18
-1 -35 -8 -37 -15 -3 -7 -10 -10 -17 -6 -7 4 -6 1 1 -9 7 -8 31 -23 53 -33 22
-10 37 -22 33 -28 -4 -6 0 -8 10 -4 12 4 14 2 10 -10 -5 -12 -3 -14 7 -8 10 6
12 3 8 -13 -4 -14 0 -23 11 -27 14 -6 14 -8 -2 -20 -18 -13 -17 -14 3 -20 17
-5 19 -9 9 -21 -10 -12 -8 -16 9 -21 12 -3 20 -8 18 -12 -4 -7 6 -9 64 -12 18
-2 27 -7 23 -13 -4 -6 0 -5 9 2 14 11 18 10 28 -5 11 -17 11 -17 6 1 -5 16 -2
18 29 14 19 -2 35 -2 35 2 0 3 10 6 23 7 51 5 98 16 103 24 3 5 10 9 15 9 6 0
7 -6 3 -12 -6 -10 -5 -10 7 -1 8 7 31 14 50 16 19 2 40 7 47 11 7 4 16 5 21 2
5 -4 12 0 14 6 4 10 6 10 6 0 1 -7 5 -11 10 -8 11 7 118 18 196 20 33 1 66 5
73 10 7 4 12 2 12 -6 0 -8 3 -9 8 -3 4 6 33 11 64 10 32 0 58 4 58 9 0 5 8 2
17 -5 9 -8 14 -9 10 -3 -4 6 10 10 38 10 28 0 42 -4 38 -10 -5 -8 -3 -8 8 0 8
5 41 10 74 10 33 -1 63 4 67 9 5 7 8 7 8 0 0 -6 17 -9 40 -7 29 3 40 0 40 -9
0 -11 3 -11 10 1 6 9 13 11 18 5 4 -5 16 -10 27 -9 11 0 26 -4 33 -9 8 -6 12
-5 12 2 0 8 6 9 18 3 9 -5 27 -8 40 -7 12 1 22 -1 22 -4 0 -3 35 -7 77 -8 43
-1 88 -5 101 -8 15 -4 21 -2 17 5 -9 15 1 12 19 -6 9 -8 16 -12 16 -7 0 10 91
10 107 0 6 -4 14 -3 17 2 7 11 25 9 45 -3 9 -6 12 -5 8 0 -3 6 39 10 109 9 63
0 114 2 114 5 0 3 73 6 161 6 126 1 163 4 170 15 7 12 9 12 9 -1 0 -10 3 -11
8 -4 4 6 15 10 25 8 13 -2 17 2 13 12 -3 8 -2 12 3 9 5 -3 12 -1 16 5 3 5 13
10 22 10 9 0 22 8 30 18 8 9 12 11 8 5 -3 -7 -1 -13 4 -13 6 0 11 5 11 11 0 6
7 9 15 6 8 -4 17 -2 20 4 4 5 11 7 16 4 5 -4 9 -2 9 2 0 5 9 14 21 21 12 8 18
9 14 3 -3 -6 -2 -11 3 -11 6 0 13 7 16 16 4 9 13 14 21 10 8 -3 15 -1 15 4 0
6 3 9 8 9 21 -4 36 2 26 9 -9 5 -8 11 2 20 8 7 14 10 14 7 0 -3 10 1 22 9 12
9 29 16 37 16 7 0 20 8 28 18 9 10 12 11 7 2 -4 -8 5 -4 19 9 15 14 27 21 27
17 0 -4 7 0 16 8 8 9 20 14 25 11 5 -4 9 1 9 9 0 27 30 54 54 48 19 -5 19 -4
7 11 -12 15 -12 17 4 11 12 -5 16 -4 12 3 -4 6 0 14 9 17 8 3 12 2 9 -4 -3 -6
1 -7 9 -4 9 3 13 10 10 15 -3 5 0 9 6 9 6 0 8 4 5 10 -4 6 1 7 11 3 12 -4 15
-3 10 5 -4 7 -2 12 3 12 6 0 11 -5 11 -11 0 -6 16 -1 35 11 19 12 39 19 45 15
6 -4 9 -3 8 2 -2 4 1 9 7 10 5 1 12 10 16 20 7 17 8 17 8 -1 1 -20 1 -20 17 0
8 10 13 12 9 4 -4 -9 0 -7 9 4 8 10 20 15 26 11 6 -4 9 -1 8 7 -2 7 3 12 11
10 12 -3 12 -1 0 14 -13 16 -12 16 10 5 13 -7 21 -9 17 -3 -3 5 8 25 24 43 16
19 30 40 30 47 0 7 10 17 23 22 12 5 16 9 10 9 -7 1 -13 6 -13 13 0 6 3 9 6 5
4 -3 13 0 20 8 17 17 18 29 2 19 -7 -4 -8 -3 -4 5 6 9 11 9 24 -1 9 -7 13 -8
9 -2 -3 6 0 20 7 30 10 13 11 23 4 31 -7 9 -5 11 10 8 13 -2 19 2 19 13 0 35
3 43 15 36 6 -4 8 -3 4 4 -3 5 -3 12 1 14 16 7 42 68 30 68 -7 0 -3 7 7 15 14
11 16 15 5 15 -12 0 -12 2 1 10 8 5 16 14 16 20 1 5 3 12 4 15 1 3 4 10 5 15
1 6 3 11 5 13 1 1 4 18 7 37 2 19 9 37 14 39 6 1 2 10 -8 18 -10 8 -13 12 -6
9 6 -4 14 -2 18 4 3 5 0 10 -7 10 -9 0 -9 3 2 10 8 5 16 15 16 22 1 7 3 15 4
18 10 27 6 48 -13 63 l-22 18 23 -11 c15 -7 22 -7 22 0 0 5 -6 10 -12 10 -9 0
-8 4 2 10 10 6 11 10 3 10 -7 0 -13 4 -13 10 0 5 8 7 18 3 14 -5 13 -3 -3 10
-17 14 -18 18 -5 27 8 5 10 10 4 10 -6 0 -11 12 -10 28 0 16 -4 26 -12 25 -7
-2 -12 2 -12 8 0 5 -5 7 -11 4 -6 -4 -5 2 2 13 7 12 18 18 24 14 5 -3 4 2 -3
11 -8 9 -10 22 -6 28 4 8 3 9 -5 5 -8 -5 -10 0 -7 18 3 14 1 26 -4 26 -5 0 -6
7 -3 17 4 10 2 14 -4 10 -7 -5 -9 1 -6 15 4 19 3 20 -6 8 -7 -9 -11 -10 -11
-3 0 6 4 14 9 17 4 3 3 21 -3 40 -6 19 -15 32 -20 29 -5 -4 -6 0 -1 8 12 18
14 49 3 43 -5 -3 -7 5 -5 18 5 28 -9 71 -21 64 -5 -3 -7 5 -5 18 4 17 0 25
-14 29 -16 4 -16 5 0 6 19 1 23 16 5 27 -7 4 -8 3 -4 -4 11 -18 0 -14 -15 5
-8 9 -9 14 -3 10 7 -4 15 0 18 9 4 9 2 13 -5 8 -8 -4 -9 1 -4 16 6 17 4 21 -6
14 -12 -6 -12 -5 -1 8 9 12 10 18 2 23 -7 4 -10 15 -7 25 3 11 -1 17 -12 16
-12 -1 -15 6 -13 26 2 14 -2 29 -9 34 -8 5 -9 3 -4 -6 5 -8 4 -11 -3 -6 -6 4
-8 14 -5 23 5 12 3 14 -8 8 -12 -8 -12 -6 0 8 9 12 10 17 2 17 -7 0 -9 4 -6
10 3 6 -1 7 -9 4 -11 -4 -16 0 -16 15 0 11 -9 25 -20 31 -11 6 -20 18 -20 26
0 8 -4 13 -9 10 -5 -3 -12 1 -15 10 -4 10 -2 13 7 9 6 -4 3 1 -8 10 -11 9 -28
14 -38 11 -14 -3 -16 -1 -8 8 8 9 7 13 -4 13 -8 0 -15 -5 -15 -10z"/>
<path d="M6603 8114 c4 -7 -2 -14 -13 -17 -11 -3 -20 -2 -20 2 0 4 -7 8 -15 8
-8 0 -12 -3 -10 -7 2 -3 -24 -6 -58 -6 -48 0 -61 -3 -59 -14 3 -11 0 -11 -12
-1 -11 9 -16 9 -21 0 -6 -8 -10 -7 -16 2 -5 8 -9 9 -9 4 0 -6 -9 -11 -20 -11
-11 0 -20 4 -20 8 0 5 -9 4 -20 -2 -15 -8 -20 -8 -20 1 0 8 -4 9 -13 0 -8 -6
-16 -8 -20 -5 -3 3 -15 0 -27 -6 -13 -7 -53 -13 -91 -14 -37 0 -70 -4 -74 -8
-4 -4 -13 -4 -21 -1 -8 3 -14 1 -14 -5 0 -6 -11 -9 -25 -7 -14 1 -25 -2 -25
-7 0 -5 -5 -6 -10 -3 -6 4 -18 1 -27 -7 -14 -11 -16 -11 -9 0 7 11 4 12 -10 5
-11 -5 -30 -8 -44 -7 -38 3 -82 -17 -113 -50 -17 -17 -26 -24 -23 -16 4 8 0 6
-9 -5 -9 -11 -21 -19 -26 -18 -5 2 -8 -2 -6 -9 1 -7 -8 -17 -20 -23 -13 -5
-23 -16 -23 -23 0 -7 -4 -10 -10 -7 -5 3 -10 1 -10 -5 0 -7 -7 -9 -16 -6 -8 3
-12 2 -9 -4 3 -6 1 -10 -5 -10 -6 0 -8 -4 -5 -10 3 -5 -1 -10 -9 -10 -9 0 -16
-5 -16 -11 0 -5 -5 -7 -12 -3 -7 5 -8 3 -3 -5 4 -8 -2 -21 -15 -33 -12 -11
-19 -26 -16 -34 3 -8 1 -13 -5 -11 -6 1 -19 -13 -29 -30 -9 -18 -22 -39 -29
-46 -6 -8 -7 -18 -3 -22 4 -5 -2 -5 -12 -1 -16 5 -17 4 -6 -9 8 -10 9 -15 1
-15 -6 0 -10 -3 -9 -7 2 -12 -14 -47 -26 -55 -7 -5 -6 -8 3 -8 11 0 10 -4 -4
-13 -10 -8 -15 -19 -11 -25 4 -7 3 -12 -1 -12 -5 0 -14 -9 -21 -21 -11 -17
-11 -20 0 -14 7 3 5 0 -4 -8 -10 -8 -15 -17 -11 -20 3 -4 1 -7 -5 -7 -7 0 -12
-8 -12 -18 0 -10 -9 -28 -20 -40 -12 -12 -16 -22 -10 -22 6 0 1 -10 -10 -22
-11 -12 -18 -28 -16 -34 2 -6 -1 -17 -7 -23 -6 -6 -7 -11 -2 -11 4 0 0 -9 -10
-20 -10 -11 -15 -20 -11 -20 4 0 -2 -13 -13 -29 -12 -16 -21 -31 -21 -34 0 -2
-8 -22 -17 -43 -19 -45 -23 -61 -25 -91 0 -13 -5 -20 -11 -16 -6 4 -8 -4 -5
-21 3 -14 -1 -34 -8 -43 -7 -10 -14 -25 -14 -34 0 -9 -6 -22 -14 -28 -7 -6
-12 -22 -10 -36 1 -14 -3 -25 -9 -25 -7 0 -5 -5 3 -10 12 -7 12 -10 1 -10 -8
0 -11 -6 -7 -16 3 -9 2 -12 -4 -9 -7 4 -9 -3 -6 -19 3 -14 0 -26 -5 -26 -6 0
-8 -4 -5 -9 3 -5 -1 -12 -10 -15 -12 -5 -13 -10 -5 -19 6 -8 7 -17 1 -23 -5
-5 -10 -21 -12 -37 -2 -15 -8 -28 -14 -29 -15 -3 -132 -122 -127 -130 2 -5 -3
-8 -12 -8 -10 0 -13 -5 -9 -12 5 -8 2 -9 -9 -5 -9 3 -16 3 -14 -2 1 -4 -15
-26 -35 -49 -21 -23 -38 -39 -38 -35 0 5 -4 3 -8 -2 -9 -14 -64 -52 -77 -55
-5 -1 -31 -12 -57 -25 -25 -13 -49 -21 -52 -18 -3 4 -6 1 -6 -5 0 -7 -7 -12
-15 -12 -8 0 -15 -5 -15 -11 0 -5 -4 -8 -9 -5 -5 3 -11 -1 -15 -9 -3 -8 -1
-17 5 -20 5 -4 6 -12 2 -18 -4 -7 0 -6 10 2 15 12 17 11 17 -5 0 -16 2 -17 10
-4 8 13 10 12 10 -2 0 -10 5 -18 11 -18 5 0 8 -4 5 -9 -3 -4 6 -13 20 -20 15
-6 23 -7 19 -1 -3 5 -1 10 5 10 6 0 8 5 4 12 -4 6 -3 8 4 4 6 -3 13 -2 17 4 4
6 13 7 23 1 9 -4 24 -6 32 -3 8 3 -1 -9 -20 -26 -19 -18 -39 -32 -45 -32 -5 0
-3 5 5 10 8 5 10 10 4 10 -19 0 -24 -13 -11 -28 10 -13 9 -15 -5 -9 -10 3 -17
3 -16 -1 8 -31 -51 -85 -81 -74 -8 2 -11 0 -7 -6 3 -6 1 -12 -6 -14 -9 -3 -8
-11 5 -31 14 -22 14 -25 2 -21 -8 4 -15 11 -15 17 0 6 -3 7 -6 4 -4 -4 -1 -13
6 -22 10 -12 10 -15 0 -15 -9 0 -9 -4 1 -17 10 -11 10 -14 2 -9 -9 5 -13 1
-13 -12 0 -10 -9 -37 -20 -60 -12 -24 -18 -48 -14 -54 4 -6 3 -8 -3 -5 -9 6
-25 -26 -20 -37 1 -1 -11 -20 -27 -41 -16 -21 -23 -35 -15 -31 8 4 5 0 -5 -8
-11 -9 -16 -16 -10 -16 5 0 1 -5 -9 -11 -9 -6 -15 -14 -12 -20 4 -5 1 -9 -4
-9 -6 0 -11 -7 -11 -15 0 -8 -5 -15 -11 -15 -6 0 -8 -7 -5 -17 4 -10 4 -14 0
-11 -8 8 -34 -14 -27 -24 2 -5 -1 -8 -7 -8 -7 0 -10 -7 -6 -15 3 -8 2 -14 -2
-12 -4 1 -8 -2 -9 -6 -1 -5 -13 -19 -28 -33 -14 -13 -23 -24 -19 -24 3 0 1 -7
-6 -15 -7 -8 -17 -12 -23 -8 -5 3 -7 1 -4 -4 4 -6 -9 -27 -29 -47 -19 -20 -32
-36 -29 -36 3 0 0 -6 -7 -14 -7 -8 -17 -11 -22 -8 -5 3 -6 0 -2 -7 4 -6 0 -14
-8 -17 -9 -3 -14 -9 -11 -13 2 -4 -5 -14 -16 -21 -10 -8 -19 -18 -19 -22 0 -4
-11 -19 -26 -33 -14 -14 -22 -30 -18 -37 4 -7 3 -8 -4 -4 -7 4 -12 2 -12 -3 0
-6 -9 -20 -21 -32 -11 -11 -18 -27 -15 -34 3 -9 -2 -12 -15 -10 -20 4 -20 4
-3 -23 17 -26 17 -26 0 -12 -16 13 -20 12 -33 -5 -8 -11 -19 -19 -24 -18 -5 2
-9 -1 -9 -6 0 -12 -78 -91 -89 -91 -5 0 -11 -4 -13 -9 -4 -12 -58 -23 -58 -12
0 4 -6 9 -12 10 -7 1 -26 3 -43 5 -16 3 -31 5 -32 6 -2 2 -7 4 -13 5 -5 1 -12
4 -15 5 -3 1 -9 4 -15 5 -5 1 -11 3 -12 4 -2 2 -14 5 -28 7 -14 3 -27 9 -28
14 -2 6 -8 7 -13 4 -6 -3 -16 0 -24 6 -8 7 -15 9 -15 5 0 -4 -7 -2 -15 5 -8 7
-15 10 -15 7 0 -3 -28 1 -62 9 -35 8 -85 16 -113 16 -27 1 -56 6 -63 11 -8 6
-12 5 -12 -4 -1 -10 -3 -10 -10 2 -6 11 -18 15 -36 11 -16 -3 -25 -1 -21 5 7
12 -23 11 -42 -2 -9 -5 -12 -4 -7 3 3 6 2 13 -4 17 -5 3 -10 1 -10 -6 0 -8 -4
-8 -15 1 -13 11 -15 10 -9 -6 5 -18 5 -18 -9 -1 -11 14 -16 15 -20 5 -4 -10
-6 -10 -6 0 -1 6 -6 12 -12 12 -5 0 -8 -3 -6 -7 3 -5 -5 -8 -18 -8 -13 0 -21
3 -18 8 7 12 -12 8 -26 -5 -9 -8 -11 -8 -8 -2 5 8 -2 11 -18 10 -18 -1 -24 -5
-20 -16 4 -13 4 -13 -7 0 -15 17 -98 24 -98 9 0 -6 5 -7 12 -3 7 5 8 3 3 -5
-5 -9 -10 -10 -18 -2 -14 14 -54 14 -62 1 -5 -8 -11 -8 -20 0 -7 6 -15 7 -18
3 -3 -4 -30 -8 -61 -7 -31 0 -56 -3 -56 -6 0 -3 -20 -12 -44 -19 -25 -7 -47
-19 -50 -28 -3 -8 -10 -12 -15 -9 -5 3 -12 -1 -15 -10 -3 -8 -14 -14 -23 -12
-10 2 -17 -2 -16 -8 1 -6 -9 -10 -22 -9 -13 2 -26 -3 -29 -11 -3 -8 -14 -14
-25 -14 -11 0 -23 -5 -26 -11 -4 -6 -14 -8 -22 -5 -8 3 -12 2 -9 -3 3 -5 -2
-15 -11 -22 -12 -10 -14 -10 -9 -1 4 6 2 12 -3 12 -6 0 -11 -4 -11 -10 0 -5
-9 -10 -19 -10 -11 0 -26 -7 -35 -15 -8 -8 -19 -15 -24 -15 -19 0 -61 -27 -54
-35 4 -5 2 -5 -4 -2 -6 3 -22 0 -37 -8 -14 -7 -29 -10 -32 -7 -4 4 -5 0 -3 -8
2 -8 -1 -15 -7 -15 -20 -3 -63 -24 -70 -35 -3 -5 -11 -8 -16 -5 -5 4 -9 2 -9
-3 0 -9 -50 -37 -63 -34 -4 1 -7 -3 -7 -8 0 -6 -7 -10 -16 -10 -8 0 -12 -5 -8
-11 4 -8 -1 -9 -16 -4 -19 6 -22 4 -17 -9 4 -10 3 -14 -2 -11 -5 3 -12 1 -16
-5 -4 -6 -11 -7 -17 -4 -7 5 -9 2 -5 -8 4 -12 1 -14 -14 -11 -11 3 -19 0 -19
-6 0 -7 5 -9 12 -5 7 4 8 3 4 -5 -4 -6 -11 -9 -15 -6 -5 2 -23 -10 -42 -27
-19 -17 -28 -28 -21 -24 6 4 12 2 12 -3 0 -6 -7 -11 -15 -11 -8 0 -15 -5 -15
-11 0 -5 -5 -7 -10 -4 -6 4 -10 3 -9 -2 4 -20 -2 -34 -12 -28 -6 4 -9 0 -7
-11 2 -11 -2 -18 -9 -17 -7 2 -10 -4 -7 -12 4 -8 1 -15 -6 -15 -6 0 -9 -4 -6
-9 4 -5 0 -12 -6 -14 -10 -4 -10 -7 0 -15 11 -7 9 -11 -8 -15 -17 -4 -21 -11
-17 -27 3 -12 3 -19 0 -16 -3 3 -11 -5 -18 -17 -13 -25 -29 -82 -23 -82 2 -1
-5 -13 -15 -28 -9 -15 -13 -27 -7 -27 6 0 4 -10 -4 -22 -8 -13 -15 -27 -15
-31 1 -5 -3 -12 -7 -15 -4 -4 -3 0 1 8 5 8 -4 3 -19 -12 -23 -22 -28 -37 -29
-80 -1 -29 -6 -56 -12 -60 -6 -5 -6 -8 1 -8 7 0 12 -16 12 -37 0 -21 5 -39 11
-41 6 -2 8 -9 4 -15 -11 -18 -12 -37 -2 -37 11 0 7 -23 -6 -32 -6 -5 -5 -8 4
-8 11 0 11 -3 1 -15 -10 -12 -10 -15 0 -15 9 0 10 -3 1 -13 -6 -8 -8 -16 -5
-20 3 -3 7 -23 9 -44 2 -25 7 -37 16 -35 9 2 9 -1 -2 -14 -9 -12 -9 -15 -1
-10 8 5 12 0 12 -16 0 -18 -2 -20 -10 -8 -6 9 -10 10 -10 3 0 -6 5 -15 10 -18
8 -5 7 -11 -1 -21 -8 -10 -8 -14 -1 -14 8 0 8 -8 3 -22 -4 -13 -5 -35 0 -50 4
-17 4 -28 -2 -28 -6 0 -6 -7 1 -19 5 -11 6 -22 1 -25 -5 -3 -7 -19 -6 -36 1
-16 -1 -30 -5 -30 -11 0 -27 -106 -19 -128 5 -14 3 -22 -8 -26 -13 -5 -13 -9
-2 -23 12 -15 12 -16 -3 -10 -12 4 -15 2 -11 -8 3 -8 10 -12 17 -8 6 3 1 -4
-12 -16 -12 -12 -20 -26 -17 -32 4 -5 1 -9 -5 -9 -6 0 -9 -4 -5 -9 3 -5 1 -12
-5 -16 -6 -4 -8 -11 -5 -16 4 -5 1 -9 -4 -9 -6 0 -11 -9 -11 -20 0 -11 -6 -20
-12 -20 -9 0 -8 -4 2 -10 12 -7 12 -10 1 -10 -7 0 -11 -6 -8 -15 4 -8 2 -17
-4 -21 -7 -4 -6 -10 1 -19 8 -10 8 -15 0 -20 -8 -5 -8 -10 0 -20 8 -10 7 -14
-2 -18 -11 -4 -11 -6 0 -6 10 -1 10 -6 2 -21 -8 -14 -8 -20 0 -20 6 0 8 -5 5
-10 -4 -6 -1 -17 5 -25 7 -8 9 -15 4 -15 -5 0 -1 -5 9 -11 9 -6 15 -14 12 -19
-3 -5 4 -7 15 -5 11 2 18 0 15 -6 -4 -5 -1 -10 4 -10 21 -3 26 -4 40 -13 10
-6 12 -5 7 2 -5 8 1 11 18 10 15 -1 26 -7 26 -12 0 -5 7 -1 15 10 8 11 15 14
15 7 0 -7 5 -13 11 -13 5 0 8 4 4 9 -3 5 6 18 20 29 13 11 22 21 20 24 -3 3 8
4 24 3 17 -1 30 1 29 4 -2 21 4 31 14 25 8 -5 9 -2 4 11 -5 15 -4 16 8 6 13
-11 15 -9 11 8 -2 11 1 24 7 27 7 5 8 2 4 -7 -4 -8 -1 -6 7 3 8 10 18 14 22
10 5 -4 5 -1 1 6 -4 7 -2 12 5 12 9 0 9 3 0 14 -10 12 -8 14 11 9 16 -3 19 -2
10 5 -11 7 -9 10 7 15 12 3 21 10 21 17 0 6 -5 8 -12 4 -7 -4 -8 -3 -4 4 4 6
13 9 20 6 7 -3 19 3 27 13 13 17 13 17 -6 3 -19 -14 -19 -14 -6 3 7 9 21 17
30 17 13 0 14 2 1 9 -8 6 -18 7 -24 4 -5 -3 -6 -1 -3 5 4 5 16 8 26 5 10 -3
22 1 26 8 5 7 4 10 -3 6 -6 -5 -8 1 -5 14 4 14 8 17 13 9 5 -9 9 -9 14 -1 4 6
4 17 0 24 -6 9 -5 9 7 0 19 -15 23 13 6 35 -6 8 -6 12 2 12 6 0 11 -4 11 -10
0 -5 5 -10 11 -10 5 0 8 4 5 9 -3 5 1 12 10 15 10 4 14 12 10 22 -5 12 -2 15
10 10 15 -6 15 -4 3 11 -12 15 -12 16 4 10 15 -6 22 3 18 25 0 4 7 4 16 1 9
-4 14 -2 11 3 -2 5 9 23 26 39 16 17 24 21 16 10 -7 -11 8 2 33 29 26 26 47
53 47 58 0 5 5 6 12 2 8 -5 9 -2 5 9 -4 11 -1 17 9 17 12 0 12 2 2 14 -9 10
-15 11 -20 2 -6 -8 -8 -8 -8 0 0 20 27 37 36 23 5 -8 3 -9 -6 -4 -9 5 -11 4
-6 -4 11 -16 26 -3 19 16 -5 12 -3 14 8 8 12 -8 12 -6 0 8 -12 15 -12 17 0 12
10 -4 15 1 15 14 0 11 -4 18 -7 15 -4 -2 -10 0 -13 5 -4 5 -17 8 -31 7 -13 -2
-22 1 -19 5 3 5 20 7 37 4 l32 -5 -25 14 c-14 8 -27 13 -31 11 -3 -2 -6 2 -6
10 0 8 4 15 9 15 4 0 8 -5 8 -11 0 -6 7 -8 16 -5 10 4 13 2 8 -6 -5 -7 -3 -8
6 -3 10 6 9 11 -6 23 -18 13 -18 14 4 7 30 -9 40 19 18 55 -9 16 -16 32 -16
37 1 4 6 -2 14 -15 12 -22 13 -22 27 -6 9 11 9 15 2 10 -14 -8 -18 6 -6 18 14
14 12 38 -2 26 -11 -9 -12 -7 -8 9 6 23 -12 29 -21 9 -3 -7 -3 -2 0 11 5 19 3
23 -9 18 -11 -4 -14 -2 -10 9 3 7 0 14 -6 14 -6 0 -11 5 -11 11 0 5 5 7 12 3
6 -4 8 -3 5 4 -4 5 -16 8 -27 5 -11 -3 -25 -3 -32 0 -22 8 -33 7 -34 -3 -1 -5
-2 -14 -3 -20 0 -5 -8 -7 -17 -3 -11 4 -12 9 -5 16 6 6 11 16 11 22 0 5 -4 4
-9 -3 -6 -10 -10 -10 -21 3 -10 12 -10 15 2 15 8 0 15 7 15 15 0 8 -4 15 -9
15 -4 0 -8 -5 -8 -12 0 -6 -2 -9 -5 -6 -3 3 -1 18 5 33 9 25 9 27 -5 15 -13
-11 -14 -10 -10 3 9 21 -10 30 -34 17 -14 -7 -22 -7 -26 0 -4 6 -3 10 2 9 17
-3 33 1 32 9 -3 19 2 32 12 32 8 0 8 -4 0 -13 -8 -10 -7 -14 4 -14 7 0 14 3
13 6 -2 22 4 31 15 25 7 -5 6 0 -3 11 -14 17 -14 18 7 7 21 -11 21 -11 13 19
-8 26 -7 29 5 19 11 -9 15 -9 15 -1 0 6 5 11 11 11 5 0 7 -6 4 -12 -4 -7 0 -5
8 5 10 12 17 14 22 8 3 -6 2 -11 -3 -11 -6 0 -8 -9 -5 -21 4 -14 12 -19 24
-16 20 5 32 -15 18 -32 -6 -8 -5 -8 3 -1 7 6 18 5 31 -1 14 -8 18 -8 13 0 -7
10 12 16 41 12 7 -1 13 3 13 10 0 9 3 9 14 0 10 -8 16 -9 21 -1 3 5 11 10 16
10 6 0 7 -6 3 -12 -5 -8 -1 -8 10 1 20 17 58 23 49 8 -4 -6 1 -8 11 -4 10 4
31 7 47 7 17 0 28 4 25 8 -2 4 7 7 22 7 15 -1 32 3 39 7 7 6 14 4 19 -3 5 -8
3 -9 -6 -4 -8 5 -11 4 -6 -3 4 -6 13 -9 21 -6 8 4 13 9 11 13 -2 3 15 7 37 7
23 1 54 4 70 6 15 3 30 1 33 -3 8 -14 26 -10 18 4 -4 6 1 4 12 -5 13 -11 24
-14 34 -8 8 5 22 4 33 -2 11 -5 17 -6 14 -1 -4 6 14 9 41 8 26 -1 53 2 60 8 8
6 12 6 12 -2 0 -8 6 -7 16 3 8 9 20 14 25 11 4 -3 20 1 33 10 14 10 31 13 38
9 8 -5 8 -1 -2 11 -10 12 -10 16 -2 11 7 -4 19 -2 27 4 8 6 19 9 25 5 7 -4 14
2 17 14 3 11 10 18 16 14 6 -4 8 0 4 10 -4 11 -2 14 9 10 7 -3 14 0 14 6 0 6
5 11 11 11 5 0 7 -6 3 -12 -4 -7 4 -1 19 14 14 15 37 30 51 34 14 3 23 10 20
15 -3 5 8 9 25 9 18 0 34 7 40 18 6 9 11 13 11 8 0 -5 7 -3 15 4 8 6 19 9 24
5 6 -3 16 3 22 14 7 10 18 17 25 14 6 -2 15 1 19 7 6 9 9 9 15 0 5 -9 14 -5
30 12 19 19 22 20 16 4 -5 -15 -4 -17 7 -8 8 7 17 9 20 5 4 -3 7 2 7 11 0 13
6 17 20 13 10 -3 19 -2 18 2 -2 21 4 32 16 28 10 -4 14 0 11 13 -3 14 2 17 20
15 14 -1 22 2 19 6 -8 13 20 11 33 -2 9 -9 11 -6 7 12 -4 18 -3 20 4 10 11
-15 63 27 73 58 4 11 9 12 25 3 10 -6 13 -12 6 -12 -8 0 -10 -5 -6 -12 5 -9 2
-9 -9 1 -20 16 -22 3 -3 -21 7 -10 16 -15 19 -11 4 3 7 1 7 -6 0 -8 -7 -10
-20 -6 -15 5 -18 3 -14 -8 6 -17 25 -17 47 2 13 10 21 9 46 -4 18 -9 31 -11
31 -5 0 6 -11 15 -25 20 -29 11 -34 20 -6 13 10 -3 22 1 27 8 5 9 2 10 -12 5
-16 -6 -17 -5 -6 6 11 11 15 10 25 -2 14 -17 47 -25 47 -11 0 5 -6 11 -12 14
-7 2 -10 8 -6 12 4 4 20 -12 35 -36 35 -55 58 -61 58 -16 0 17 -4 38 -8 45 -5
7 -4 12 2 12 6 0 11 -5 11 -11 0 -5 5 -7 10 -4 6 3 13 -1 16 -9 3 -9 14 -16
23 -17 14 0 14 -1 -1 -7 -13 -5 -15 -11 -8 -22 7 -11 10 -12 10 -2 0 10 3 10
15 -2 19 -19 19 -32 0 -16 -15 13 -21 2 -7 -16 4 -5 0 -2 -9 8 -19 20 -35 12
-18 -9 11 -13 1 -18 -25 -14 -5 1 -5 -6 -2 -16 6 -16 5 -16 -13 1 -11 10 -17
24 -14 34 4 10 2 13 -5 8 -7 -4 -16 2 -23 17 -6 13 -16 24 -22 25 -7 0 -24 3
-39 6 -25 6 -26 5 -15 -18 7 -13 15 -22 19 -20 5 3 8 0 8 -6 0 -6 5 -8 12 -4
7 5 5 11 -7 21 -11 7 -15 13 -9 13 5 0 17 -7 27 -14 15 -12 16 -14 2 -20 -15
-5 -15 -50 0 -65 3 -3 4 7 1 22 -6 36 10 44 34 15 22 -27 25 -38 8 -38 -6 0
-9 3 -5 6 8 8 -16 33 -26 27 -4 -2 -3 -13 3 -23 9 -16 7 -18 -10 -15 -17 3
-20 0 -15 -18 6 -21 6 -21 -6 -2 -7 11 -19 26 -26 33 -7 8 -11 17 -8 22 3 5 1
11 -5 15 -10 6 -14 -7 -11 -32 1 -6 -4 -13 -11 -16 -7 -2 -5 -3 4 -2 10 2 23
-4 30 -13 11 -13 11 -15 -2 -8 -12 6 -12 5 1 -6 8 -7 18 -21 22 -31 3 -9 10
-16 14 -15 4 2 10 -2 11 -7 12 -32 23 -43 42 -38 19 5 26 -5 21 -31 -1 -5 4
-4 12 3 12 9 16 8 21 -4 4 -11 2 -14 -6 -9 -7 4 -8 3 -4 -4 4 -7 16 -12 27
-12 12 0 19 -7 19 -20 0 -11 5 -20 11 -20 5 0 8 -4 4 -9 -3 -6 3 -14 12 -20
14 -8 15 -11 3 -11 -10 -1 -9 -4 5 -10 11 -5 14 -9 6 -9 -11 -1 -11 -4 -1 -16
7 -8 9 -15 6 -15 -4 0 2 -10 14 -22 18 -20 25 -39 21 -61 -1 -5 2 -6 6 -4 5 2
17 -5 28 -16 12 -11 14 -17 5 -13 -8 4 -7 1 4 -8 10 -8 16 -22 13 -31 -4 -10
0 -15 11 -16 14 0 14 -2 -3 -9 l-20 -9 20 0 c17 -1 17 -3 5 -11 -10 -6 -11
-10 -2 -10 6 0 12 -11 12 -24 0 -14 5 -28 12 -32 7 -5 8 -3 3 6 -5 8 -4 11 3
6 6 -4 9 -13 5 -22 -3 -8 4 -23 17 -34 13 -11 20 -20 15 -20 -4 0 -2 -7 5 -15
7 -8 16 -13 19 -10 4 2 8 -2 8 -10 0 -8 -3 -12 -7 -10 -4 2 -2 -13 3 -35 9
-32 14 -37 28 -29 22 11 29 11 29 1 0 -5 -7 -9 -15 -10 -8 -1 -22 -3 -30 -4
-18 -2 -20 -18 -2 -18 6 0 3 -7 -8 -16 -11 -8 -19 -20 -17 -26 2 -6 -1 -14 -5
-17 -5 -3 -21 -27 -37 -54 -15 -26 -31 -45 -37 -41 -5 3 -9 2 -8 -3 3 -19 -2
-34 -10 -29 -5 3 -12 -1 -15 -10 -4 -9 -9 -14 -12 -11 -3 3 -14 -2 -23 -11
-10 -10 -32 -28 -50 -42 -17 -14 -41 -34 -51 -44 -11 -11 -20 -16 -20 -12 0 4
-12 -4 -27 -18 -15 -14 -30 -23 -35 -20 -4 3 -5 -3 -1 -12 4 -12 3 -15 -5 -10
-7 4 -12 2 -12 -3 0 -6 -9 -20 -20 -31 -11 -11 -21 -30 -23 -42 -2 -21 -59
-61 -97 -70 -8 -2 -22 -11 -32 -21 -10 -10 -24 -15 -30 -11 -6 4 -8 3 -5 -3 7
-12 -26 -46 -36 -37 -3 3 -4 -6 -3 -20 2 -14 0 -25 -3 -24 -18 2 -31 -3 -31
-12 0 -14 -32 -50 -40 -45 -4 2 -7 -2 -7 -10 0 -8 5 -11 11 -8 6 4 5 -1 -3
-10 -7 -9 -16 -15 -20 -13 -4 3 -8 -5 -8 -17 -1 -11 -9 -25 -18 -29 -8 -5 -13
-13 -10 -19 4 -5 1 -9 -5 -9 -6 0 -8 -4 -5 -10 3 -5 2 -10 -2 -10 -5 0 -9 -9
-10 -21 -1 -12 -10 -28 -20 -36 -10 -8 -13 -12 -6 -8 8 4 8 -3 -2 -22 -8 -15
-12 -36 -9 -47 4 -12 2 -16 -5 -12 -7 5 -10 -1 -8 -16 2 -13 -3 -29 -12 -36
-10 -8 -10 -11 -2 -6 11 6 13 3 6 -12 -4 -10 -8 -26 -9 -34 -1 -8 -8 -25 -14
-37 -12 -22 -9 -27 13 -24 6 1 2 -5 -8 -13 -11 -9 -15 -20 -10 -31 4 -13 3
-16 -6 -10 -10 6 -11 3 -2 -14 9 -16 9 -21 -1 -21 -9 0 -9 -3 2 -10 11 -7 11
-10 2 -10 -8 0 -10 -5 -6 -12 10 -16 13 -48 4 -48 -8 0 -6 -37 3 -46 3 -4 2
-15 -4 -25 -6 -13 -6 -19 1 -19 12 0 9 -22 -5 -32 -6 -5 -5 -8 3 -8 6 0 12 -5
12 -11 0 -5 -6 -7 -12 -3 -9 6 -9 3 0 -9 8 -9 11 -20 8 -26 -4 -5 1 -16 9 -24
18 -19 20 -31 3 -21 -9 5 -9 3 1 -9 7 -9 18 -14 25 -10 6 4 4 -2 -4 -12 -12
-15 -12 -17 -1 -10 11 6 13 4 8 -8 -4 -10 -2 -17 4 -17 6 0 9 -7 5 -15 -3 -8
-1 -15 5 -15 6 0 9 -6 6 -14 -3 -8 1 -20 9 -27 9 -7 13 -21 10 -32 -2 -10 -2
-16 1 -13 3 3 19 -22 36 -57 54 -115 72 -148 89 -166 9 -11 14 -21 11 -24 -5
-6 4 -18 39 -57 9 -10 14 -21 11 -23 -3 -3 4 -12 16 -19 12 -7 21 -17 21 -23
0 -6 9 -17 20 -25 11 -8 20 -18 20 -22 0 -4 29 -37 65 -73 36 -35 65 -62 65
-59 0 5 17 -8 61 -49 16 -15 32 -27 35 -27 3 0 13 -8 22 -18 10 -10 13 -11 7
-2 -9 13 -8 13 8 1 9 -7 17 -20 17 -28 0 -8 4 -12 9 -9 5 3 11 -1 15 -9 3 -8
12 -15 21 -15 8 0 15 -5 15 -11 0 -5 4 -8 9 -5 4 3 17 -2 27 -10 10 -9 12 -12
4 -8 -9 4 -12 3 -7 -2 5 -5 12 -9 15 -9 20 -2 52 -18 52 -26 0 -5 11 -9 25 -9
14 0 25 5 25 12 0 6 3 8 6 5 4 -4 2 -13 -4 -20 -14 -16 -6 -28 13 -21 7 3 15
-2 18 -10 4 -9 13 -13 22 -10 10 4 15 0 15 -11 0 -9 5 -13 10 -10 6 3 10 0 10
-7 0 -9 3 -9 10 2 8 12 10 12 10 1 0 -8 7 -11 20 -8 11 3 18 1 15 -3 -3 -5 -1
-11 5 -15 5 -3 10 0 10 7 0 8 3 9 8 3 8 -12 83 -14 76 -3 -3 4 0 8 6 8 6 0 8
5 4 12 -4 7 -3 8 4 4 6 -4 8 -14 5 -24 -6 -15 -5 -15 10 -3 12 10 17 10 17 2
0 -8 6 -7 16 3 20 20 30 21 14 1 -7 -9 -10 -18 -6 -22 3 -3 6 -1 6 6 0 7 6 11
14 8 7 -3 19 0 25 6 8 8 11 8 11 0 0 -6 17 -10 40 -9 22 0 41 -3 43 -8 2 -5
22 -10 45 -12 30 -2 40 1 35 9 -5 8 -2 8 9 0 8 -7 18 -10 21 -6 4 3 7 -1 7
-10 0 -9 5 -17 11 -17 5 0 8 4 5 8 -3 5 5 7 17 6 12 -1 26 -3 30 -3 5 -1 6 -4
4 -8 -3 -5 12 -7 34 -7 30 2 39 -2 39 -15 0 -14 2 -14 10 -1 8 13 10 13 10 1
0 -11 4 -10 16 5 8 10 13 15 11 9 -3 -5 1 -15 8 -22 11 -10 15 -10 18 0 4 9 6
9 6 0 1 -7 8 -13 17 -13 8 0 13 -4 10 -8 -3 -4 7 -8 22 -8 18 1 26 -4 24 -13
-3 -12 0 -12 12 -1 14 11 20 8 18 -11 -1 -3 14 -5 33 -4 19 1 32 -2 30 -6 -5
-6 62 -24 78 -21 4 1 7 -4 7 -10 0 -9 3 -8 10 2 8 12 10 12 16 -3 5 -15 9 -15
22 -5 12 10 14 10 8 1 -5 -9 -1 -13 12 -13 10 0 22 -3 25 -7 4 -3 30 -8 59
-10 29 -2 59 -5 66 -8 6 -2 12 1 12 7 0 6 10 3 22 -8 12 -10 18 -13 13 -5 -6
11 -3 13 13 9 12 -4 20 -2 16 3 -9 16 14 10 32 -9 16 -15 17 -15 12 0 -4 10
-1 19 10 23 9 3 18 1 20 -5 3 -8 8 -7 18 1 10 8 14 8 14 1 0 -6 7 -9 15 -6 8
4 13 10 10 14 -3 5 3 7 12 5 10 -2 22 -4 26 -4 5 -1 5 -6 1 -13 -5 -7 -3 -8 7
-2 19 11 130 14 123 3 -3 -5 2 -6 10 -3 9 3 13 11 9 18 -4 6 1 4 12 -4 21 -17
24 -17 36 2 7 10 9 10 9 0 0 -7 5 -10 10 -7 6 4 18 1 26 -6 12 -10 13 -9 8 5
-5 14 -3 15 20 6 24 -9 30 -6 28 11 -1 3 5 6 13 6 8 0 12 -4 9 -8 -2 -4 1 -11
7 -15 8 -4 9 -3 5 4 -4 7 -1 12 8 12 8 0 20 8 26 18 11 16 11 16 6 0 -3 -10
-1 -18 4 -18 6 0 10 5 10 11 0 8 6 7 17 -2 11 -10 14 -10 9 -1 -4 6 -4 12 1
13 44 4 66 4 76 -3 6 -4 17 -2 24 4 10 8 13 7 13 -3 0 -10 3 -10 11 -2 6 6 18
9 25 6 8 -3 14 1 14 8 0 11 3 11 10 -1 9 -13 11 -13 20 0 6 10 10 11 10 3 0
-7 5 -13 11 -13 5 0 7 6 3 13 -6 9 -4 9 7 -1 15 -14 33 -16 24 -3 -3 5 0 13 6
17 7 4 9 3 6 -3 -4 -6 0 -13 8 -17 9 -3 15 0 15 10 0 8 5 12 10 9 6 -4 8 -11
5 -16 -4 -5 -1 -9 4 -9 6 0 11 6 11 14 0 15 16 16 38 3 8 -6 12 -2 12 10 0 15
2 16 10 3 9 -13 12 -12 25 4 18 23 20 14 4 -17 -12 -21 -11 -21 8 -5 23 21 59
24 66 6 3 -8 6 -6 6 5 1 15 5 16 21 7 15 -8 20 -8 20 1 0 7 7 5 19 -5 19 -17
19 -17 14 6 -5 23 -5 23 11 3 10 -11 15 -15 12 -8 -4 6 -2 14 4 18 5 3 10 1
10 -5 0 -6 4 -9 9 -5 5 3 13 0 16 -5 5 -8 14 -5 28 7 11 10 18 13 14 7 -3 -6
0 -11 8 -11 8 0 12 4 9 9 -3 4 0 8 5 8 6 0 11 -8 12 -17 0 -15 2 -15 9 2 5 11
9 16 9 10 1 -5 19 -10 40 -11 36 0 38 1 22 15 -9 9 -12 13 -7 8 6 -4 18 -7 29
-7 12 0 16 -4 11 -12 -5 -9 -2 -9 9 1 9 7 17 9 17 4 0 -5 7 -10 15 -10 8 0 12
4 9 9 -3 4 0 8 5 8 6 0 11 -4 11 -8 0 -5 7 -9 15 -9 8 0 12 4 9 9 -3 4 0 8 5
8 6 0 11 -4 11 -8 0 -4 15 -8 34 -8 19 0 32 4 30 8 -3 4 -1 8 5 8 5 0 12 -6
14 -12 3 -8 6 -7 6 4 1 9 5 19 10 22 5 4 7 -3 4 -13 -5 -20 18 -24 34 -6 4 4
2 5 -6 0 -9 -5 -12 -4 -7 3 4 6 13 9 21 6 8 -4 12 -10 9 -15 -3 -5 2 -6 10 -3
9 3 13 10 10 15 -3 5 2 6 10 3 9 -3 13 -10 10 -15 -3 -5 2 -6 10 -3 9 3 14 9
11 13 -2 4 2 8 10 8 8 0 12 -3 10 -7 -2 -3 12 -6 31 -6 24 0 34 5 34 15 0 14
2 14 9 1 6 -8 7 -18 5 -22 -3 -4 2 -5 11 -2 13 5 13 9 3 23 -7 9 -8 13 -4 9 5
-4 16 -2 25 5 14 10 14 10 3 -4 -10 -13 -10 -19 2 -28 11 -9 16 -9 22 0 5 8 3
9 -6 4 -9 -6 -11 -4 -5 5 7 11 10 10 19 -1 15 -20 53 -16 72 7 13 15 12 13 -1
-9 -16 -28 -16 -28 4 -17 12 6 21 8 21 4 0 -3 8 0 17 7 14 12 16 12 11 -1 -6
-16 57 -21 81 -6 6 4 11 4 11 0 0 -3 8 0 18 7 15 13 16 12 3 -3 -7 -10 -18
-15 -25 -11 -7 4 -6 1 1 -7 10 -11 16 -10 32 4 20 18 20 18 16 -2 -2 -14 1
-19 10 -16 7 3 23 1 34 -5 14 -8 22 -8 26 -1 5 8 11 8 20 0 10 -8 19 -8 35 0
11 6 26 8 33 4 6 -5 5 1 -3 11 -14 17 -13 18 2 13 10 -4 19 -1 22 8 3 9 9 13
14 10 17 -11 38 12 23 26 -12 11 -13 10 -6 -2 5 -8 5 -12 0 -8 -4 4 -15 2 -23
-4 -17 -15 -44 -20 -36 -7 3 5 9 7 14 4 5 -3 11 -1 15 5 3 5 -1 10 -11 10 -13
0 -11 4 7 20 13 10 19 19 14 20 -6 0 -17 -6 -24 -13 -11 -9 -13 -9 -7 1 4 6 3
12 -3 12 -5 0 -12 -6 -15 -12 -4 -9 -5 -8 -4 2 2 28 -14 53 -24 38 -7 -9 -8
-8 -4 6 5 14 2 17 -9 12 -9 -3 -14 -2 -10 3 3 5 2 11 -2 14 -5 2 -2 2 5 1 12
-3 16 8 12 36 -1 10 3 9 14 -5 8 -11 15 -24 16 -30 0 -5 -5 -3 -11 5 -8 13
-10 12 -7 -4 2 -11 13 -21 26 -23 29 -4 64 -44 51 -57 -19 -20 -8 -28 13 -10
12 10 18 13 13 5 -6 -10 -2 -11 16 -6 22 7 23 7 9 -11 -14 -16 -13 -16 12 1
15 11 26 25 25 32 -1 6 3 11 8 10 6 -1 9 -6 7 -10 -1 -5 2 -5 8 -2 8 5 6 13
-4 24 -9 10 -13 21 -9 26 5 4 3 5 -3 2 -7 -4 -15 0 -18 9 -3 8 -2 12 4 9 6 -3
10 -1 10 5 0 6 -7 13 -15 16 -8 4 -15 16 -14 28 0 21 0 21 9 -1 8 -19 13 -21
34 -14 13 6 27 7 32 3 4 -4 4 -2 0 5 -4 7 -14 9 -24 6 -15 -6 -16 -5 -2 12 14
17 13 17 -10 10 -25 -7 -25 -7 -5 10 11 9 15 14 8 11 -6 -4 -14 -2 -18 4 -3 5
2 10 12 11 14 0 13 2 -5 10 -14 5 -20 13 -16 20 4 7 3 9 -3 6 -6 -4 -13 0 -17
8 -6 16 2 45 13 45 4 0 7 10 8 23 2 22 2 22 -14 2 -15 -19 -15 -19 -8 4 5 16
4 21 -4 17 -6 -4 -11 -2 -11 4 0 6 -15 9 -37 7 -24 -2 -45 2 -56 12 -16 13
-17 13 -12 0 5 -13 0 -15 -25 -11 -19 3 -30 0 -30 -8 0 -10 -3 -10 -14 -1 -10
9 -16 9 -21 1 -4 -6 -14 -9 -22 -6 -9 4 -11 2 -7 -6 5 -8 2 -9 -10 -5 -14 6
-16 3 -11 -16 6 -21 5 -21 -8 2 -9 16 -17 20 -21 12 -4 -6 -11 -9 -16 -6 -5 3
-19 1 -31 -6 -12 -6 -19 -7 -15 -1 3 6 -5 9 -19 8 -18 -1 -24 -5 -20 -15 5
-12 2 -11 -12 1 -13 12 -23 14 -36 7 -11 -7 -17 -7 -17 0 0 7 -8 7 -26 1 -16
-7 -23 -7 -19 0 3 6 2 10 -4 10 -5 0 -13 -5 -16 -10 -4 -6 -12 -7 -22 -1 -21
11 -55 2 -46 -13 4 -6 0 -5 -9 2 -12 10 -18 10 -23 1 -6 -8 -10 -8 -15 2 -7
10 -11 10 -24 0 -13 -11 -16 -11 -16 0 0 12 -2 12 -9 0 -6 -10 -10 -10 -16 -1
-6 9 -10 9 -16 -1 -6 -10 -11 -11 -16 -3 -12 17 -43 25 -43 11 0 -8 -3 -8 -9
2 -7 11 -10 11 -15 0 -4 -10 -7 -11 -12 -2 -3 7 -12 9 -20 6 -7 -3 -11 -10 -8
-17 3 -6 -2 -2 -11 9 -13 16 -17 17 -24 6 -6 -9 -11 -10 -15 -2 -5 8 -13 8
-27 1 -10 -6 -19 -7 -19 -3 0 4 -23 9 -50 9 -27 1 -48 -1 -45 -6 2 -4 -7 -5
-20 -2 -14 2 -28 8 -31 13 -3 5 -14 5 -25 -1 -13 -8 -19 -7 -19 0 0 8 -6 8
-20 0 -11 -6 -20 -7 -20 -2 0 4 -9 8 -20 9 -11 1 -18 -2 -15 -8 4 -5 1 -9 -4
-9 -6 0 -11 6 -11 14 0 8 -9 12 -25 11 -14 -2 -25 1 -25 6 0 6 -9 5 -21 -2
-15 -8 -19 -8 -15 0 4 6 2 11 -3 11 -6 0 -11 -6 -11 -12 0 -9 -3 -9 -9 1 -13
21 -74 24 -66 3 5 -12 1 -12 -15 3 -21 19 -56 25 -77 12 -7 -4 -16 0 -22 10
-7 12 -11 13 -11 5 0 -8 -6 -12 -12 -9 -7 2 -21 0 -30 -5 -12 -6 -18 -5 -18 3
0 8 -5 7 -17 -2 -9 -8 -14 -9 -10 -3 6 10 -5 12 -110 17 -17 1 -35 5 -38 9 -4
4 -16 3 -26 -2 -12 -7 -20 -6 -25 2 -5 7 -3 8 7 3 8 -5 11 -4 7 0 -11 12 -60
16 -53 4 4 -5 2 -9 -3 -9 -6 0 -12 6 -15 13 -3 8 -21 14 -41 15 -26 1 -35 -2
-31 -11 4 -7 -1 -3 -9 7 -9 11 -16 15 -16 9 0 -6 -18 -10 -45 -8 -39 2 -43 0
-32 -13 10 -13 9 -14 -10 -4 -14 8 -24 9 -28 2 -3 -5 -12 -10 -18 -10 -8 0 -7
3 2 9 10 7 7 9 -11 8 -18 -2 -24 -6 -20 -16 4 -10 1 -12 -8 -6 -20 12 -60 13
-60 1 0 -6 -5 -5 -11 1 -12 12 -42 6 -34 -7 3 -5 -4 -6 -15 -3 -11 3 -20 10
-20 15 0 6 -6 6 -14 -1 -9 -8 -15 -8 -18 -2 -1 6 -15 12 -30 13 -16 1 -28 6
-28 10 0 4 -16 8 -35 8 -19 0 -35 4 -35 9 0 8 -33 20 -53 20 -5 0 -17 9 -27
21 -10 11 -22 20 -26 19 -26 -4 -45 2 -38 14 5 8 2 8 -9 -2 -10 -8 -17 -9 -17
-3 0 6 -9 9 -20 7 -11 -2 -20 0 -20 5 0 4 -13 7 -30 6 -16 -1 -30 1 -30 6 0 4
-7 5 -15 2 -8 -4 -22 -1 -29 5 -9 7 -17 8 -20 2 -3 -5 -12 -8 -19 -6 -40 10
-56 18 -50 28 4 6 1 7 -8 1 -20 -12 -39 -14 -39 -3 0 5 -3 8 -7 8 -21 -3 -33
2 -27 12 4 7 -1 7 -16 -1 -15 -8 -20 -8 -16 -1 5 7 -4 11 -24 11 -22 0 -29 4
-24 13 5 8 2 8 -9 -2 -14 -11 -17 -11 -17 0 0 12 -2 12 -9 0 -6 -9 -10 -10
-12 -2 -2 6 -19 12 -37 14 -17 1 -32 5 -32 9 0 4 -6 5 -14 2 -7 -3 -20 2 -29
10 -9 9 -27 16 -41 16 -14 0 -26 4 -26 10 0 5 -7 7 -15 4 -8 -4 -12 -11 -8
-17 3 -6 1 -7 -6 -3 -6 4 -8 12 -5 18 5 7 -2 9 -20 6 -22 -4 -24 -3 -14 9 9
11 8 13 -3 11 -8 -2 -17 -7 -21 -13 -5 -6 -8 -5 -8 4 0 11 -3 11 -17 0 -9 -8
-14 -9 -10 -3 8 14 -17 26 -38 18 -9 -4 -15 0 -15 7 0 11 -3 11 -10 -1 -6 -10
-10 -11 -10 -2 0 6 -9 12 -20 12 -11 0 -20 6 -20 13 0 8 -4 7 -10 -3 -6 -10
-10 -11 -10 -2 0 6 -7 12 -15 12 -8 0 -15 5 -15 11 0 5 -4 8 -9 5 -4 -3 -19 3
-32 15 -12 11 -29 17 -36 14 -8 -2 -11 0 -8 5 3 6 -1 10 -9 10 -9 0 -16 5 -16
12 0 6 -3 9 -6 5 -8 -8 -52 29 -92 78 -7 8 -17 13 -21 10 -5 -2 -11 4 -14 15
-3 11 -13 20 -22 20 -9 0 -14 4 -11 8 3 5 -5 15 -16 23 -12 8 -32 24 -44 35
-17 16 -25 19 -34 10 -8 -8 -9 -7 -4 7 5 14 2 16 -12 11 -17 -6 -17 -5 1 9 20
16 20 16 -2 37 -13 11 -23 25 -23 30 0 6 -6 10 -14 10 -8 0 -17 7 -20 16 -3 8
-11 12 -16 9 -6 -4 -9 -1 -8 7 2 7 -3 12 -9 11 -16 -4 -17 9 -3 25 6 6 7 10 4
8 -10 -8 -65 47 -60 60 3 7 0 14 -7 17 -6 2 -4 6 5 10 13 5 16 1 12 -21 -3
-15 -2 -24 1 -20 4 3 7 12 9 20 1 7 6 19 10 27 6 10 5 12 -3 7 -8 -6 -10 0 -6
21 3 15 2 22 -1 16 -8 -18 -25 -16 -18 2 4 8 1 15 -5 15 -6 0 -11 7 -11 16 0
8 -5 12 -10 9 -6 -3 -10 1 -10 10 0 9 -5 13 -10 10 -6 -3 -10 1 -10 9 0 15
-12 21 -33 17 -5 -1 -6 3 -2 9 3 6 12 7 18 3 7 -3 3 4 -7 16 -19 21 -19 21 -1
15 10 -4 16 -3 13 2 -3 5 0 15 8 21 8 8 15 9 19 3 3 -6 1 -10 -4 -10 -6 0 -11
-5 -11 -12 0 -6 11 -1 25 12 14 13 25 19 25 14 0 -5 5 -1 11 9 5 9 19 17 30
17 13 0 18 4 13 12 -5 8 -2 9 9 5 9 -3 16 -3 14 1 -1 4 0 7 3 8 10 1 74 69 72
76 -1 4 7 5 18 3 11 -2 20 -2 20 0 0 12 -59 63 -66 57 -4 -4 -4 -1 0 6 4 7 12
10 17 7 5 -4 9 3 9 15 0 14 -4 19 -12 14 -9 -5 -8 -2 1 10 13 15 12 18 -7 23
-12 3 -22 9 -22 15 0 5 9 4 20 -2 16 -8 22 -7 32 9 11 18 13 18 25 3 11 -15
12 -15 9 3 -4 18 2 20 64 20 45 1 67 -3 62 -10 -4 -7 -1 -7 9 1 8 5 29 9 47 9
17 -1 32 2 32 7 0 4 10 8 23 8 16 0 18 3 8 9 -10 7 -11 13 -2 27 6 11 11 15
11 9 0 -5 5 -3 10 5 7 11 10 12 10 2 0 -10 4 -9 16 2 8 9 19 14 24 11 4 -3 11
2 14 11 4 9 9 14 13 11 3 -4 15 -1 27 5 21 12 27 14 46 17 5 0 9 4 8 9 -3 15
15 62 22 57 5 -3 7 6 5 20 -1 17 3 25 14 25 13 0 13 2 2 9 -11 7 -10 11 5 20
11 6 13 11 7 11 -7 0 -13 4 -13 10 0 5 5 9 11 7 6 -1 12 8 14 20 1 14 -3 20
-9 16 -6 -4 -5 1 3 10 10 13 10 17 1 17 -7 0 -2 9 11 21 13 11 18 18 12 14
-17 -8 -17 7 0 24 9 11 9 12 0 7 -18 -10 -4 26 16 41 22 17 31 16 28 -4 -1
-10 2 -18 6 -18 5 0 15 -13 23 -28 8 -15 19 -25 23 -22 10 6 23 -23 16 -35 -3
-5 6 -17 20 -28 13 -11 21 -22 18 -26 -3 -3 0 -6 7 -6 7 0 11 -3 7 -6 -3 -4
-1 -12 6 -20 30 -33 35 -42 30 -48 -4 -3 1 -6 10 -6 9 0 17 -7 17 -16 0 -8 4
-12 10 -9 5 3 7 0 4 -8 -3 -8 2 -22 11 -31 9 -9 13 -21 9 -27 -5 -8 -3 -9 6
-4 10 6 12 4 7 -9 -4 -10 -3 -15 3 -11 6 3 10 -1 10 -9 0 -9 5 -16 11 -16 5 0
7 -4 4 -10 -3 -5 -2 -10 3 -10 6 0 8 -9 5 -20 -4 -15 0 -20 13 -21 12 0 14 -3
6 -6 -10 -4 -9 -9 4 -24 9 -11 15 -22 11 -25 -3 -3 1 -28 9 -56 9 -27 13 -57
10 -65 -3 -8 -2 -12 3 -9 5 3 12 -1 15 -10 4 -10 2 -13 -7 -8 -9 6 -9 4 1 -8
7 -8 9 -24 5 -33 -5 -14 -3 -16 8 -10 12 8 12 6 0 -8 -7 -9 -10 -17 -5 -17 5
0 2 -5 -6 -10 -10 -6 -11 -10 -3 -10 9 0 10 -7 4 -23 -5 -13 -5 -30 0 -39 5
-10 5 -19 0 -22 -10 -7 -2 -56 10 -56 4 0 6 -9 4 -20 -2 -11 1 -20 7 -20 6 0
8 -9 5 -20 -3 -11 -1 -18 3 -15 5 3 11 1 15 -5 3 -5 0 -10 -7 -10 -9 0 -9 -3
2 -10 8 -5 11 -10 5 -10 -5 0 -3 -5 5 -10 10 -6 11 -10 3 -10 -7 0 -13 -5 -13
-11 0 -5 4 -8 9 -5 5 4 7 -3 4 -14 -3 -12 0 -20 6 -20 7 0 10 -4 7 -9 -3 -5
10 -16 30 -26 29 -13 33 -19 23 -31 -9 -11 -9 -14 0 -14 7 0 10 -4 6 -9 -3 -5
-1 -12 5 -16 6 -4 8 -11 5 -16 -4 -5 -3 -9 2 -9 4 0 13 -11 20 -25 6 -14 7
-23 2 -19 -5 3 -6 -2 -3 -10 3 -9 11 -13 17 -9 6 3 7 1 3 -6 -4 -6 0 -18 9
-27 12 -12 13 -19 4 -30 -9 -11 -7 -15 6 -20 10 -4 15 -14 12 -25 -3 -11 -1
-17 4 -14 4 3 11 -6 15 -20 3 -14 10 -25 15 -25 5 0 8 -3 7 -7 -5 -18 14 -53
28 -53 10 0 12 -5 8 -12 -6 -10 -4 -10 8 0 13 10 18 10 24 1 5 -8 3 -9 -6 -4
-9 6 -11 4 -6 -4 6 -9 12 -9 25 3 10 9 21 13 26 9 4 -5 5 -2 1 5 -4 7 -1 12 9
12 9 0 13 5 10 10 -4 6 -11 7 -17 4 -7 -4 -8 -2 -4 5 4 6 12 9 17 6 5 -4 9 -1
9 5 0 6 5 8 12 4 6 -4 8 -3 4 4 -3 5 0 13 6 16 7 3 2 3 -12 0 l-25 -5 25 21
c14 12 20 19 15 17 -7 -3 -12 13 -13 40 -1 25 -7 53 -14 61 -10 12 -10 14 0 8
6 -4 12 -2 12 3 0 6 -7 11 -15 11 -9 0 -12 6 -8 17 4 11 3 14 -5 9 -7 -4 -12
-1 -12 9 0 9 5 13 10 10 21 -13 9 11 -15 29 -13 10 -22 22 -19 27 3 5 0 17 -6
26 -11 17 -11 17 -6 0 4 -11 2 -16 -5 -11 -6 3 -9 14 -6 24 3 11 -2 21 -10 24
-12 5 -13 9 -3 21 14 17 40 20 40 4 0 -5 -4 -7 -10 -4 -5 3 -10 2 -10 -3 0 -6
7 -13 16 -16 21 -8 24 -8 24 5 0 5 -4 7 -10 4 -6 -3 -7 1 -3 10 5 13 7 14 14
3 5 -7 9 -8 9 -3 0 6 5 3 10 -5 8 -12 10 -12 10 5 0 15 3 17 9 7 7 -11 9 -11
14 2 3 8 1 17 -6 20 -9 3 -9 5 1 5 6 1 12 6 12 12 0 5 -6 7 -12 3 -8 -5 -7 0
2 11 8 10 10 16 4 12 -6 -3 -11 0 -11 8 0 8 4 12 9 9 4 -3 8 1 8 10 0 8 -4 16
-9 18 -5 2 2 12 17 22 23 17 25 18 19 2 -4 -9 -3 -15 2 -12 12 8 21 45 11 51
-13 8 5 70 20 67 11 -3 11 0 0 12 -7 9 -8 16 -2 16 6 0 9 8 8 18 -2 9 2 20 8
24 8 5 7 8 -2 8 -8 0 -10 5 -6 12 9 14 12 58 4 58 -3 0 -7 12 -8 27 -1 15 -7
30 -14 34 -6 4 -8 14 -5 23 4 9 3 15 -1 15 -20 -3 -33 2 -27 11 3 6 2 10 -3
10 -5 0 -15 12 -23 27 -8 16 -20 34 -27 41 -7 8 -10 18 -7 23 4 5 0 9 -7 9 -9
0 -9 3 2 10 9 6 10 10 3 10 -11 0 -23 24 -22 43 0 5 -7 14 -16 21 -9 6 -17 21
-18 34 0 12 -7 22 -13 22 -8 0 -10 8 -6 23 5 19 3 20 -10 9 -13 -10 -15 -9
-10 14 4 21 2 25 -8 19 -10 -6 -12 -4 -7 7 3 9 -1 28 -9 43 -8 15 -11 31 -8
36 3 5 -2 9 -10 9 -9 0 -16 7 -16 15 0 9 -7 27 -16 40 -9 13 -13 29 -10 34 4
5 -2 16 -11 23 -10 7 -19 20 -21 28 -2 8 -7 17 -10 20 -4 3 -13 17 -21 33 -8
15 -18 27 -23 27 -5 0 -6 5 -3 10 3 6 -1 13 -9 16 -9 3 -16 12 -16 20 0 8 -4
14 -10 14 -5 0 -10 9 -10 19 0 11 -5 23 -12 27 -7 5 -9 2 -4 -7 4 -8 -2 -3
-13 10 -12 12 -18 27 -15 32 4 8 -8 13 -27 11 -3 -1 -6 5 -6 13 0 8 4 12 9 8
6 -3 3 8 -6 25 -8 16 -12 33 -8 37 4 3 3 6 -3 5 -21 -5 -32 1 -32 15 0 8 5 15
11 15 6 0 4 5 -4 10 -8 5 -15 13 -16 17 -3 27 -17 44 -26 31 -7 -9 -8 -7 -5 9
3 15 1 20 -9 16 -8 -3 -12 -9 -9 -13 3 -5 0 -12 -6 -16 -8 -4 -9 -3 -5 4 4 7
1 12 -6 12 -7 0 1 10 17 21 30 21 21 22 -30 4 -11 -3 -8 1 8 10 23 13 26 19
17 36 -6 10 -8 25 -4 32 6 9 3 8 -8 -1 -13 -10 -18 -10 -24 -1 -4 7 -3 9 3 6
6 -4 13 2 16 13 3 11 1 20 -5 20 -5 0 -6 4 -3 10 3 6 2 10 -3 10 -5 0 -9 12
-9 26 0 15 -5 29 -10 33 -5 3 -10 19 -11 35 -1 17 -8 33 -15 38 -9 6 -9 8 1 8
10 0 10 4 -2 16 -9 8 -17 25 -18 37 -2 33 -4 40 -18 70 -7 15 -17 27 -22 27
-4 0 -7 3 -6 8 4 14 -26 81 -34 76 -4 -3 -8 0 -8 7 0 7 -8 21 -18 32 -9 11
-11 17 -5 13 9 -5 11 -2 7 8 -3 9 -10 13 -15 10 -5 -3 -9 7 -9 21 0 20 -4 26
-14 22 -10 -4 -13 0 -11 14 2 11 0 17 -6 14 -5 -4 -9 0 -9 8 0 8 -7 20 -15 27
-9 7 -13 20 -10 29 3 8 3 12 -1 9 -9 -10 -34 17 -34 38 0 10 -3 15 -6 11 -8
-7 -34 17 -34 32 0 6 -5 11 -11 11 -5 0 -7 5 -4 10 3 6 -1 10 -9 10 -9 0 -16
7 -16 16 0 10 -6 14 -15 11 -17 -7 -30 9 -16 18 14 8 2 35 -16 35 -8 0 -11 4
-8 10 3 6 -2 10 -12 10 -15 0 -16 2 -3 10 12 8 10 10 -10 10 -18 0 -21 3 -11
9 11 7 11 9 0 14 -12 5 -12 6 0 6 9 1 8 6 -6 19 -10 9 -12 13 -4 7 12 -9 12
-7 2 13 -7 13 -19 26 -27 29 -13 5 -13 7 -2 14 10 7 10 9 -2 9 -9 0 -23 8 -32
18 -28 29 -52 47 -60 45 -8 -3 -12 13 -9 30 1 5 -3 6 -8 3 -5 -4 -12 -2 -16 4
-4 6 -12 7 -18 3 -7 -4 -6 1 2 10 12 15 12 17 -4 11 -13 -5 -16 -4 -11 4 7 11
-6 17 -28 13 -5 -1 -4 4 3 12 9 12 9 15 -5 13 -9 0 -20 9 -25 22 -6 15 -5 21
1 17 6 -3 10 -1 10 5 0 7 7 9 16 6 15 -6 15 -4 3 10 -12 15 -12 17 1 12 19 -7
52 10 45 22 -3 6 0 7 8 4 17 -6 41 21 32 36 -4 6 -3 10 2 9 19 -3 34 2 29 10
-3 4 5 7 19 6 19 -3 23 1 20 17 -3 16 0 19 16 15 12 -3 18 -3 15 0 -10 10 15
45 30 39 8 -3 13 0 11 7 -1 7 4 11 11 9 8 -1 11 2 7 8 -3 6 4 14 17 19 13 4
22 12 21 17 -2 5 2 9 9 9 6 0 13 6 16 14 3 8 0 11 -7 7 -7 -5 -9 -1 -4 9 4 12
8 13 13 5 6 -9 9 -9 14 -1 4 6 12 9 17 6 5 -3 6 0 3 8 -3 9 7 23 26 37 20 14
29 28 25 38 -4 12 -2 12 8 4 17 -14 28 -6 20 14 -3 8 -2 14 3 12 13 -4 54 39
46 48 -4 4 1 4 10 1 9 -3 22 1 30 11 9 11 10 14 1 8 -7 -4 -13 -3 -13 2 0 6 7
13 16 16 9 3 12 11 8 18 -5 9 -2 8 10 -1 9 -8 16 -10 15 -5 -4 21 2 35 11 29
6 -3 10 -2 10 4 0 5 -6 12 -12 14 -10 4 -10 6 0 6 6 1 12 9 12 18 0 15 2 14
16 -3 8 -10 13 -13 9 -6 -3 6 1 19 9 28 9 9 14 19 11 24 -3 4 3 14 13 21 15
13 16 12 4 -3 -11 -13 -11 -18 0 -24 7 -4 10 -4 6 1 -4 4 -1 17 7 27 7 11 11
28 8 37 -4 14 -3 14 6 1 10 -13 15 -8 12 13 0 4 4 7 10 7 5 0 7 6 3 13 -5 7 0
6 11 -3 11 -9 16 -10 11 -3 -4 8 3 23 18 38 14 14 20 25 13 26 -7 0 -2 5 11
11 19 10 27 26 23 50 0 4 7 4 17 1 15 -6 15 -5 4 10 -12 14 -11 16 7 12 12 -2
19 0 16 6 -4 5 1 12 10 15 13 5 13 9 3 22 -10 12 -10 14 0 8 8 -5 16 2 22 19
9 24 12 26 28 14 15 -13 16 -12 3 4 -7 9 -10 17 -5 17 5 0 2 5 -6 11 -12 9
-11 10 7 6 16 -4 20 -1 16 11 -4 9 -2 13 4 9 5 -4 15 6 22 21 10 24 10 25 -2
10 -8 -10 -18 -18 -23 -18 -5 1 7 15 26 32 19 17 29 27 21 23 -9 -5 -8 1 4 19
9 14 21 23 26 20 5 -3 9 2 9 10 0 8 8 20 18 25 9 6 12 11 5 11 -6 0 -15 -4
-18 -10 -3 -5 -11 -10 -18 -10 -6 0 5 12 26 27 20 14 37 33 37 42 0 9 3 12 8
6 11 -16 41 -15 35 1 -3 8 -10 11 -16 7 -6 -3 -7 -1 -3 6 6 9 11 9 21 1 8 -7
15 -7 19 -1 4 5 2 12 -4 16 -6 4 -3 16 10 32 14 18 17 29 10 38 -7 9 -6 16 5
25 9 7 15 8 15 2 0 -6 -5 -12 -12 -14 -7 -3 -5 -7 6 -11 10 -4 15 -3 11 3 -3
5 3 18 14 29 13 13 16 21 8 25 -9 3 -9 5 1 5 6 1 12 6 12 12 0 5 -5 7 -12 3
-7 -5 -8 -3 -4 5 5 7 13 10 20 8 7 -3 12 7 12 24 1 16 -2 29 -7 29 -5 0 -9 4
-9 10 0 5 7 7 16 3 13 -5 15 -3 7 13 -6 10 -8 25 -6 32 3 6 -1 12 -8 12 -7 0
-9 3 -6 6 4 4 12 2 19 -4 9 -7 17 -6 26 4 7 8 9 14 4 14 -4 0 -17 7 -28 16
-10 8 -13 13 -6 9 7 -4 21 -1 30 7 16 12 16 11 2 -7 -14 -19 -14 -19 2 -6 10
7 16 17 13 21 -3 4 2 11 11 14 9 3 12 11 8 18 -5 8 -2 9 11 4 16 -6 16 -4 4
11 -11 14 -11 15 0 9 10 -7 12 -3 7 15 -3 13 -3 18 0 12 3 -7 10 -13 15 -13 6
0 7 5 4 10 -3 6 -2 10 2 10 5 0 13 10 18 23 6 12 17 21 24 19 7 -1 10 2 6 8
-4 7 -13 7 -28 -1 -21 -10 -21 -10 -3 5 11 9 23 16 28 16 4 0 8 6 8 14 0 8 10
22 22 30 12 9 19 16 14 16 -5 0 -3 6 3 14 6 8 10 20 9 27 -2 8 3 13 10 11 8
-1 11 2 7 8 -3 5 -1 10 5 10 7 0 9 7 6 16 -4 10 -2 13 6 8 8 -5 9 -2 4 11 -6
16 -4 16 11 4 9 -8 14 -9 10 -2 -4 6 -3 14 3 18 5 3 10 11 10 17 0 6 -6 6 -15
-2 -13 -11 -14 -10 -9 4 3 9 10 16 15 16 4 0 5 7 2 17 -4 10 -2 14 4 10 5 -3
10 0 10 8 0 8 -5 11 -11 8 -6 -3 0 6 14 22 14 16 20 25 13 21 -6 -3 -15 -1
-19 5 -4 8 -3 9 4 5 7 -4 12 -2 12 4 0 6 5 8 10 5 6 -3 10 1 10 9 0 9 5 16 10
16 6 0 10 8 8 18 -2 9 2 16 7 15 6 -1 12 8 12 20 1 12 8 26 16 32 8 5 13 17
12 26 -2 9 10 31 26 49 16 17 27 36 24 41 -4 5 2 9 12 9 14 0 15 2 4 9 -10 6
-10 10 -1 16 6 4 9 13 6 21 -3 9 0 11 12 7 9 -3 14 -3 10 1 -3 4 0 24 8 43 9
19 13 37 10 40 -3 3 1 18 10 34 9 18 11 29 4 29 -6 0 -8 5 -5 10 4 6 11 8 16
5 5 -3 6 1 3 9 -3 9 3 19 16 26 11 6 18 15 15 21 -4 5 1 9 9 9 9 0 16 6 16 14
0 8 5 18 12 22 7 5 8 3 3 -6 -6 -9 -4 -11 4 -6 7 5 10 14 7 22 -7 17 6 18 23
2 11 -11 13 -10 7 0 -4 7 -1 15 9 18 9 4 14 13 11 20 -3 8 0 13 6 11 5 -1 12
5 13 13 2 8 4 22 6 30 3 9 -3 14 -13 14 -10 -1 -15 3 -12 8 3 5 12 7 20 4 8
-3 14 -1 14 5 0 6 4 8 9 4 5 -3 12 -1 16 5 3 5 1 10 -4 10 -6 0 -11 4 -11 10
0 5 8 6 18 3 14 -6 15 -4 4 9 -15 18 0 34 21 22 6 -4 3 3 -8 17 -11 13 -13 18
-5 12 19 -17 35 -17 22 0 -9 10 -5 13 16 12 19 0 30 7 39 25 10 22 11 22 12 5
1 -17 3 -17 11 -5 5 8 10 11 10 6 0 -6 7 -1 16 10 8 10 12 13 9 6 -4 -8 -2
-13 6 -11 30 4 60 -1 55 -9 -3 -5 1 -9 8 -9 8 0 13 5 12 11 -1 6 2 1 8 -11 5
-12 16 -21 25 -21 9 0 24 -3 34 -7 10 -4 17 -3 17 5 0 6 -4 9 -9 5 -5 -3 -12
-1 -16 4 -3 6 5 8 19 5 14 -2 28 1 32 7 4 7 3 9 -3 6 -5 -3 -10 0 -10 8 0 8 4
12 9 9 5 -3 15 -1 23 6 8 7 21 8 32 3 21 -10 41 -9 65 1 9 4 22 4 29 0 8 -4 9
-3 5 4 -4 7 -1 12 8 12 9 0 16 6 16 13 0 7 3 8 8 2 4 -5 14 -11 22 -13 8 -2
12 0 8 4 -4 4 0 13 10 20 15 12 15 13 -6 9 -12 -2 -20 0 -17 5 6 10 20 8 70
-15 22 -11 44 -19 48 -19 21 -2 47 -56 26 -56 -5 0 -8 4 -5 8 3 5 -1 9 -8 9
-8 0 -12 -6 -9 -12 2 -7 -4 -12 -14 -12 -43 0 -49 -3 -33 -13 11 -7 11 -10 2
-10 -7 0 -11 -4 -7 -9 3 -5 -4 -12 -15 -16 -11 -3 -20 -13 -20 -21 0 -8 -4
-13 -9 -10 -5 3 -12 -1 -15 -10 -4 -10 -2 -13 7 -9 6 4 1 -3 -13 -14 -14 -11
-19 -21 -12 -21 7 0 10 -5 7 -10 -4 -6 -11 -7 -17 -4 -7 5 -8 2 -2 -7 4 -7 7
-29 5 -47 -2 -23 1 -32 8 -27 6 3 14 -1 17 -9 3 -9 10 -16 16 -16 5 0 6 5 3
10 -3 6 -2 10 3 10 6 0 13 -8 16 -17 6 -15 9 -15 16 -3 5 8 6 18 3 24 -3 5 -1
6 6 2 6 -4 8 -12 5 -18 -5 -8 -1 -9 10 -5 10 4 15 3 11 -3 -5 -9 15 -15 37
-11 4 0 4 -7 1 -16 -4 -11 -2 -14 5 -9 6 3 16 -3 22 -15 7 -11 14 -18 18 -15
3 4 15 -3 28 -15 12 -11 30 -22 40 -24 11 -2 19 -4 19 -5 0 -1 9 -3 20 -5 26
-5 60 -13 60 -15 0 -2 36 -10 58 -12 9 -1 17 -6 17 -11 0 -4 4 -6 9 -3 5 3 14
-1 21 -9 7 -8 16 -12 21 -9 5 3 9 1 9 -3 0 -5 8 -9 18 -10 9 -1 31 -7 47 -14
17 -7 33 -13 38 -14 4 -2 8 -3 10 -5 1 -1 11 -3 22 -5 11 -2 21 -9 23 -15 2
-5 8 -8 12 -5 5 3 31 -8 59 -25 31 -18 51 -25 51 -17 0 6 5 4 11 -5 5 -10 15
-18 22 -18 7 0 6 4 -3 10 -9 6 -10 10 -3 10 6 0 18 -6 26 -14 11 -11 17 -12
27 -3 10 9 11 9 6 0 -3 -6 -2 -14 4 -18 5 -3 10 1 10 10 0 9 4 14 10 10 5 -3
7 -13 4 -23 -4 -10 -3 -13 3 -6 4 6 22 10 38 9 17 -1 36 3 44 9 11 8 13 8 8
-1 -11 -18 9 -25 24 -7 12 14 14 14 26 -2 8 -10 13 -13 13 -5 0 7 4 10 9 6 5
-3 13 -1 16 5 5 8 11 7 21 -1 11 -9 14 -8 14 2 0 9 3 10 8 4 4 -5 13 -11 21
-13 11 -2 12 0 3 10 -8 11 -7 14 8 14 10 0 16 -4 14 -8 -4 -7 27 -5 46 2 3 2
9 2 13 1 5 -1 5 4 1 10 -5 9 -2 10 9 6 10 -4 16 -2 14 6 -1 7 3 11 10 10 7 -2
10 7 7 23 -3 16 -1 23 6 19 6 -3 7 0 4 9 -3 8 -11 13 -18 10 -17 -7 -41 22
-26 31 6 4 9 1 8 -6 -2 -6 3 -14 10 -16 6 -3 12 0 12 7 0 6 6 8 13 4 6 -4 4 2
-6 13 -9 11 -14 23 -10 28 5 4 3 5 -4 1 -7 -4 -21 2 -32 13 -13 13 -21 16 -25
8 -4 -11 -10 18 -7 36 1 5 -8 11 -20 14 -14 4 -17 8 -9 13 7 5 9 16 5 29 -3
12 -11 18 -17 15 -7 -5 -8 -2 -4 5 9 14 -21 40 -46 41 -10 0 -18 7 -18 15 0 8
-5 15 -11 15 -5 0 -8 4 -5 8 7 11 -20 50 -76 111 -27 29 -48 56 -48 61 0 6 -9
10 -20 10 -14 0 -18 5 -13 17 4 11 3 14 -5 9 -8 -5 -10 -1 -5 10 5 13 3 16
-10 11 -12 -4 -14 -2 -10 10 4 11 2 14 -5 9 -7 -4 -12 -1 -12 8 0 14 -11 20
-32 17 -4 0 -5 6 -2 14 4 9 0 15 -10 15 -9 0 -16 5 -16 10 0 6 -7 10 -15 10
-8 0 -20 9 -27 19 -6 10 -18 17 -25 14 -7 -3 -13 0 -13 7 0 6 -4 8 -10 5 -5
-3 -10 -1 -10 4 0 6 -3 10 -7 9 -16 -3 -144 63 -149 77 -4 8 -10 15 -16 15 -5
0 -6 -4 -3 -10 3 -6 -1 -7 -9 -4 -9 3 -13 10 -10 15 3 5 0 9 -7 9 -6 0 -20 9
-30 21 -10 12 -23 18 -30 13 -8 -4 -9 -3 -5 5 4 7 -5 18 -23 29 -17 9 -31 23
-31 30 0 7 -5 10 -11 7 -6 -4 -9 0 -7 11 2 12 -2 18 -11 16 -12 -3 -12 0 -1
12 8 11 9 16 1 16 -6 0 -11 4 -11 10 0 13 -51 62 -58 56 -3 -3 -11 3 -19 14
-8 11 -20 20 -28 20 -7 0 -21 7 -29 16 -9 8 -16 13 -16 9 0 -3 -12 0 -27 8
-16 7 -40 12 -55 11 -16 0 -28 2 -28 6 0 4 -19 6 -42 4 -23 -2 -49 2 -57 9
-10 8 -13 8 -8 1z m-3620 -3629 c-3 -8 0 -15 6 -15 6 0 11 6 11 12 0 7 7 3 15
-9 15 -21 29 -24 51 -10 12 7 38 -16 28 -25 -3 -3 0 -9 7 -14 7 -4 10 -3 6 3
-12 19 20 38 38 23 8 -7 15 -9 15 -4 0 5 5 2 10 -6 8 -12 10 -12 10 5 0 16 2
17 9 6 6 -9 6 -23 0 -35 -10 -20 -10 -20 5 -2 9 10 13 22 11 27 -3 4 3 6 12 4
10 -1 24 3 32 9 11 8 13 8 7 -1 -10 -18 4 -16 28 4 21 17 21 17 0 -6 -18 -19
-35 -27 -67 -30 -5 -1 -5 -7 -1 -13 4 -7 4 -10 -1 -6 -10 10 -37 -11 -29 -23
3 -5 0 -9 -6 -9 -7 0 -9 7 -6 16 4 10 2 14 -6 11 -7 -2 -12 -10 -10 -16 1 -6
-3 -11 -9 -11 -5 0 -7 -4 -4 -10 3 -5 -3 -10 -15 -10 -11 0 -23 -7 -26 -15 -5
-12 -9 -13 -21 -4 -8 7 -13 8 -12 3 4 -20 -2 -26 -15 -15 -10 8 -16 9 -21 1
-3 -5 -15 -10 -26 -10 -13 0 -18 -4 -13 -12 4 -7 -4 -3 -18 10 -19 17 -28 20
-33 11 -6 -8 -4 -10 5 -4 9 6 11 4 5 -4 -5 -9 -10 -10 -18 -2 -7 7 -16 7 -29
0 -10 -5 -18 -7 -18 -3 0 3 -8 0 -17 -7 -11 -10 -14 -10 -9 -1 10 17 -5 15
-32 -4 -12 -8 -25 -13 -30 -11 -9 6 -33 -19 -25 -26 3 -3 -5 -3 -18 0 -14 4
-20 2 -15 -5 3 -6 2 -14 -4 -17 -6 -4 -9 -1 -8 6 4 16 -22 19 -41 5 -11 -8
-13 -8 -8 1 4 6 2 15 -4 19 -7 4 -9 3 -5 -4 7 -11 -9 -25 -32 -28 -8 -2 -22
-10 -32 -19 -14 -13 -19 -13 -24 -3 -3 7 -4 4 -3 -7 1 -11 -3 -19 -9 -18 -6 1
-11 -4 -11 -12 0 -10 5 -11 18 -4 12 6 20 5 24 -1 4 -6 11 -7 17 -4 7 4 8 2 4
-5 -6 -9 -11 -9 -22 0 -11 9 -14 9 -14 0 0 -7 -4 -10 -8 -7 -5 3 -22 -2 -38
-11 -41 -22 -197 -70 -217 -67 -9 1 -15 -2 -11 -7 3 -5 -3 -9 -13 -10 -36 -1
-77 -10 -96 -21 -15 -8 -18 -7 -11 4 6 11 5 11 -9 -1 -9 -7 -17 -9 -17 -4 0 5
-6 10 -14 10 -8 0 -12 -6 -9 -13 2 -6 -1 -15 -7 -19 -6 -3 -10 -3 -9 2 3 20
-2 25 -15 14 -11 -9 -16 -9 -22 0 -4 7 -3 9 3 6 6 -4 13 2 16 14 4 16 3 18 -8
9 -10 -8 -15 -8 -21 1 -4 7 -3 9 3 6 6 -4 14 0 17 9 9 22 7 34 -3 31 -5 -1 -9
3 -10 8 0 6 13 10 29 9 27 -1 35 7 31 29 -1 5 3 6 9 2 6 -3 7 -11 4 -17 -4 -7
-2 -8 5 -4 7 5 9 17 5 29 -6 22 -6 22 10 2 17 -20 17 -20 11 3 -5 16 -2 22 10
22 10 0 14 -5 10 -12 -4 -7 3 -2 14 11 12 12 18 27 15 32 -3 5 0 9 5 9 6 0 11
5 11 11 0 8 -5 8 -15 -1 -8 -7 -13 -15 -11 -19 3 -4 1 -13 -3 -20 -6 -9 -10
-7 -14 8 -3 12 -1 21 5 21 5 0 6 5 2 12 -4 6 -3 8 4 4 6 -3 13 -2 17 4 4 6 12
7 18 3 17 -11 38 -13 32 -3 -3 5 0 10 5 12 6 2 13 12 14 23 2 11 9 19 14 18 6
-2 9 4 6 12 -4 8 -10 15 -15 15 -21 0 -7 27 24 45 17 10 37 25 43 33 9 12 13
13 19 2 5 -9 4 -11 -3 -6 -7 4 -12 2 -12 -4 0 -7 6 -10 13 -7 6 2 11 11 11 20
-1 8 7 18 18 20 14 4 17 2 9 -7 -7 -8 -5 -12 8 -12 13 0 17 6 14 21 -3 11 -1
16 4 10 9 -11 29 -18 55 -19 9 0 14 -4 11 -9 -3 -4 18 -7 46 -6 28 2 51 7 51
11 0 5 5 6 12 2 7 -4 8 -3 4 4 -5 9 -13 9 -29 1 -20 -10 -21 -10 -7 5 9 9 27
17 42 18 15 1 25 5 24 8 -2 3 0 14 5 25 7 19 8 19 8 -2 1 -13 5 -23 11 -23 5
0 7 7 4 15 -5 11 -2 13 10 9 9 -3 16 -10 16 -15 0 -4 7 -6 15 -3 8 4 12 11 8
18 -3 6 3 2 15 -8 15 -13 22 -15 22 -6 0 9 3 10 13 1 10 -8 17 -7 25 1 8 8 13
7 18 -6 5 -14 9 -15 15 -4 7 11 9 11 9 -1 0 -11 3 -11 15 -1 8 7 15 8 15 3 0
-5 7 -10 15 -10 12 0 12 3 2 15 -10 13 -9 14 12 3 13 -7 21 -8 17 -3 -3 6 3
13 14 17 11 4 17 11 14 17 -4 7 -2 8 4 4 6 -4 9 -13 5 -21z"/>
<path d="M8156 5302 c-3 -3 -37 -6 -76 -8 -41 -1 -78 -8 -87 -16 -9 -7 -14 -8
-10 -2 7 13 -35 12 -66 -1 -9 -4 -26 -5 -37 -2 -12 3 -24 -1 -30 -11 -7 -12
-9 -13 -10 -3 0 11 -3 11 -17 0 -15 -12 -16 -12 -8 1 7 13 6 13 -7 2 -11 -9
-18 -10 -23 -2 -4 6 -12 7 -23 1 -10 -6 -26 -5 -41 1 -32 13 -170 17 -177 6
-3 -5 -10 -6 -15 -3 -5 4 -9 1 -9 -5 0 -7 -7 -10 -15 -6 -8 3 -15 1 -15 -4 0
-6 -3 -9 -7 -9 -5 1 -10 0 -13 -1 -10 -3 -45 -11 -57 -12 -7 -1 -13 -5 -13 -9
0 -5 -7 -6 -15 -3 -8 4 -15 2 -15 -4 0 -5 -11 -8 -25 -7 -14 2 -27 -1 -30 -5
-3 -5 -12 -7 -20 -3 -8 3 -15 0 -15 -7 0 -6 -8 -10 -17 -9 -10 1 -21 0 -25 -1
-5 -1 -12 -4 -18 -5 -5 -1 -11 -3 -12 -5 -5 -3 -42 -12 -60 -13 -9 -1 -14 -5
-12 -9 3 -4 -2 -8 -11 -8 -9 0 -30 -7 -47 -16 -19 -10 -28 -11 -23 -3 6 8 4
10 -6 3 -8 -4 -20 -9 -28 -11 -21 -3 -105 -46 -113 -58 -5 -7 -8 -7 -8 0 0 6
-5 2 -11 -8 -6 -9 -14 -15 -20 -12 -5 4 -12 -1 -15 -9 -3 -9 -13 -16 -21 -16
-9 0 -22 -8 -30 -17 -10 -12 -12 -13 -8 -3 4 8 -2 5 -13 -7 -11 -12 -22 -19
-26 -16 -3 4 -6 2 -6 -4 0 -6 -9 -13 -21 -16 -12 -3 -18 -10 -14 -16 3 -7 0
-8 -9 -5 -9 3 -27 -6 -44 -24 -17 -17 -32 -29 -34 -27 -2 3 -18 -8 -35 -24
-18 -16 -34 -26 -37 -23 -3 3 -6 -2 -6 -11 0 -10 -5 -17 -11 -17 -5 0 -7 -4
-4 -10 3 -5 -2 -10 -12 -10 -14 0 -15 -2 -4 -9 11 -7 9 -10 -8 -16 -12 -3 -19
-10 -16 -15 3 -4 -2 -11 -11 -14 -9 -4 -14 -9 -11 -12 3 -3 -6 -17 -20 -30
-14 -13 -23 -27 -20 -30 3 -4 -1 -13 -9 -21 -8 -8 -12 -19 -8 -24 3 -5 2 -8
-3 -7 -11 3 -63 -47 -63 -61 0 -7 -4 -10 -9 -7 -5 4 -21 -9 -37 -26 -15 -18
-30 -34 -33 -34 -42 -10 -51 -17 -39 -33 7 -9 9 -13 4 -9 -12 10 -48 -11 -41
-23 4 -5 1 -9 -5 -9 -6 0 -8 -5 -4 -12 5 -9 2 -9 -9 1 -11 9 -17 10 -17 2 0
-14 -37 -51 -51 -51 -5 0 -8 -4 -4 -10 3 -5 -7 -17 -22 -27 -15 -9 -49 -39
-74 -65 -25 -26 -49 -45 -52 -41 -4 3 -7 -1 -7 -10 0 -11 -5 -14 -17 -10 -11
4 -14 3 -9 -5 4 -7 -3 -16 -18 -23 -14 -7 -23 -15 -21 -20 3 -4 -4 -10 -15
-14 -12 -4 -19 -14 -18 -23 2 -11 -3 -16 -12 -15 -9 2 -33 -15 -54 -37 -21
-23 -32 -40 -24 -41 7 0 -2 -5 -20 -10 -18 -5 -30 -14 -27 -19 4 -6 1 -10 -5
-10 -6 0 -8 -4 -5 -10 3 -6 -1 -7 -9 -4 -11 4 -16 0 -16 -10 0 -9 -3 -15 -7
-15 -19 3 -33 -2 -31 -11 2 -6 -8 -16 -22 -23 -14 -7 -24 -21 -23 -31 1 -12
-2 -15 -9 -8 -11 11 -55 -26 -50 -41 1 -5 -1 -6 -5 -4 -12 7 -46 -20 -39 -31
3 -5 -1 -9 -9 -10 -8 -1 -21 -3 -29 -4 -7 -1 -13 -6 -12 -12 1 -6 -1 -11 -4
-11 -3 0 -19 -10 -37 -23 -23 -16 -33 -19 -36 -10 -3 8 -6 6 -6 -5 -1 -10 -6
-15 -11 -12 -6 4 -17 1 -25 -5 -8 -7 -21 -10 -29 -7 -8 3 -16 2 -18 -4 -2 -5
-14 -11 -27 -14 -12 -2 -30 -10 -39 -17 -13 -11 -14 -11 -8 0 7 11 4 12 -11 3
-11 -6 -23 -7 -27 -4 -4 4 -9 -3 -13 -15 -3 -12 -10 -19 -16 -15 -6 3 -7 1 -3
-6 4 -6 12 -8 18 -5 6 4 8 2 4 -4 -7 -12 11 -26 33 -27 8 0 15 -6 17 -13 1 -7
0 -8 -3 -2 -2 5 -9 10 -14 10 -6 0 -7 -6 -3 -12 6 -10 4 -10 -8 0 -10 8 -19 9
-22 3 -4 -5 3 -12 14 -16 19 -6 28 -25 12 -25 -4 0 -8 -9 -9 -20 -1 -11 3 -20
10 -20 6 0 3 -6 -7 -13 -15 -11 -16 -18 -8 -34 6 -11 8 -24 4 -28 -4 -4 4 -5
18 -1 14 3 19 3 12 0 -20 -9 -4 -23 23 -18 17 3 27 -2 36 -17 6 -12 7 -19 1
-15 -5 3 -13 -1 -16 -10 -5 -12 -2 -15 9 -10 9 3 13 2 10 -4 -10 -16 -38 -12
-32 5 4 8 2 17 -2 20 -5 3 -11 -2 -15 -10 -3 -8 -13 -14 -23 -14 -17 1 -17 2
0 6 19 5 24 24 5 20 -7 -1 -12 6 -12 16 1 10 -3 16 -10 14 -6 -2 -10 -13 -9
-25 1 -11 -5 -26 -15 -34 -15 -11 -16 -11 -4 3 7 9 9 24 6 34 -4 10 -1 21 7
26 8 5 9 9 3 9 -15 0 -15 51 0 69 9 12 8 13 -6 8 -10 -3 -20 -1 -24 5 -5 7 -2
8 6 3 9 -6 11 -4 5 5 -5 8 -4 11 3 6 6 -3 9 1 7 11 -2 18 -17 21 -46 9 -10 -5
-16 -2 -16 9 0 9 6 13 16 10 9 -2 23 0 31 5 13 9 13 10 0 10 -9 0 -11 3 -5 8
17 12 16 32 -1 25 -8 -3 -12 -8 -9 -11 2 -3 -5 -10 -18 -17 -12 -6 -21 -17
-19 -25 2 -8 -3 -10 -13 -6 -10 3 -13 2 -10 -5 4 -5 2 -16 -4 -23 -9 -11 -8
-18 4 -29 9 -10 11 -18 5 -22 -6 -4 -4 -16 6 -33 15 -25 15 -25 0 -8 -9 11
-19 16 -23 13 -4 -4 -1 -13 5 -19 7 -7 12 -17 12 -22 0 -6 -6 -4 -13 4 -7 8
-19 16 -27 18 -11 2 -11 -1 3 -11 19 -16 23 -37 5 -37 -6 0 -9 -3 -6 -6 4 -3
17 0 30 6 19 10 21 10 11 -1 -19 -19 -16 -34 4 -18 11 10 14 10 9 2 -4 -8 -2
-13 6 -13 8 0 6 -5 -4 -11 -22 -12 -24 -49 -3 -49 8 0 15 -5 15 -11 0 -5 5 -7
10 -4 6 4 8 10 6 14 -3 4 1 8 9 8 7 0 12 -8 10 -19 -5 -26 4 -22 15 7 5 14 13
25 17 24 20 -3 27 2 13 12 -12 8 -10 9 9 4 15 -5 21 -3 17 3 -3 6 -2 13 3 16
5 4 12 2 16 -4 4 -6 11 -7 17 -4 7 5 8 2 4 -5 -5 -7 -10 -10 -13 -7 -3 3 -18
-3 -33 -14 -15 -11 -29 -17 -32 -15 -3 3 -5 -1 -5 -9 0 -7 7 -13 16 -11 9 1
15 8 13 15 -2 7 3 10 12 7 8 -3 30 10 52 31 20 20 34 32 30 25 -3 -6 -2 -14 3
-17 5 -4 8 5 6 19 -1 14 2 28 8 32 6 3 7 1 3 -5 -4 -7 -1 -12 8 -12 9 0 16 7
16 16 0 9 5 12 12 8 8 -5 9 -2 4 11 -6 16 -4 16 11 4 10 -7 15 -10 11 -5 -9
11 14 35 27 28 6 -3 3 3 -5 13 -8 10 -10 16 -3 12 6 -4 15 -2 18 4 4 5 14 8
22 4 13 -4 14 -3 3 10 -7 8 -9 15 -4 16 28 2 48 9 58 20 8 9 6 10 -9 5 -11 -4
-16 -4 -12 0 4 4 1 14 -6 22 -10 13 -9 14 2 7 11 -6 13 -4 7 11 -4 12 2 8 17
-10 16 -20 24 -24 24 -13 0 9 -5 13 -10 10 -6 -3 -7 -1 -3 5 5 9 13 9 27 2 15
-9 19 -7 19 7 0 15 2 16 10 3 8 -13 10 -12 10 4 0 15 3 16 15 6 13 -11 14 -10
10 3 -4 8 -1 18 5 22 9 6 9 10 -1 16 -10 6 -7 8 8 6 21 -1 22 -2 5 -21 -16
-18 -16 -18 6 -7 12 6 22 16 22 21 0 5 10 14 21 21 15 8 19 8 15 0 -4 -6 0
-11 9 -11 9 0 13 5 10 10 -3 6 -1 10 5 10 6 0 8 5 4 13 -5 7 0 6 11 -3 17 -14
18 -13 12 3 -3 9 -2 17 3 17 6 0 10 -6 11 -12 0 -7 4 -3 9 10 10 23 30 30 30
10 0 -7 5 -6 13 3 6 9 24 23 40 32 15 10 27 22 27 28 0 6 -5 7 -12 3 -7 -4 -8
-3 -4 5 4 6 12 9 17 6 5 -4 9 0 9 7 0 9 3 9 10 -2 8 -13 11 -11 16 7 4 13 11
20 20 16 8 -3 14 0 14 6 0 6 5 11 11 11 5 0 7 -6 3 -12 -4 -7 2 -5 13 5 11 9
23 14 27 10 4 -4 4 1 0 11 -6 16 -4 18 14 14 21 -6 31 5 15 15 -9 4 8 0 35 -9
10 -3 13 -2 7 3 -15 13 -18 36 -3 27 19 -12 39 -14 32 -3 -3 5 2 9 10 9 8 0
20 8 25 18 6 9 11 13 11 7 0 -5 7 1 16 13 8 12 21 22 27 22 7 0 6 -4 -3 -10
-8 -5 -10 -10 -5 -10 15 1 45 26 45 39 0 6 5 11 11 11 5 0 8 4 5 8 -2 4 7 9
20 10 15 1 23 -2 19 -8 -4 -6 -11 -7 -17 -4 -7 4 -8 2 -4 -4 9 -16 58 16 50
32 -3 6 2 2 12 -9 15 -18 16 -18 10 -1 -5 15 -2 17 14 13 17 -4 19 -3 10 8 -7
8 -7 15 -1 19 5 3 12 0 14 -6 3 -8 6 -6 6 5 1 11 6 15 12 11 7 -4 9 0 5 12 -3
11 -1 26 5 34 8 12 9 10 4 -7 -3 -12 -1 -25 6 -29 7 -4 9 -3 5 4 -10 16 13 25
30 11 12 -10 13 -9 8 6 -4 10 -1 21 7 26 18 11 32 11 24 0 -3 -5 0 -13 7 -17
7 -4 10 -4 6 1 -4 4 0 14 10 22 9 8 11 12 5 8 -7 -3 -13 -2 -13 4 0 5 9 9 19
8 12 -1 17 -7 14 -17 -4 -13 -4 -13 6 0 5 8 16 15 23 16 34 3 39 5 32 16 -4 6
-3 8 3 5 12 -7 63 14 63 26 0 5 5 5 10 2 6 -3 10 -1 10 5 0 6 5 8 12 4 8 -5 9
-2 5 10 -4 10 -3 15 3 11 5 -3 26 10 45 30 20 19 31 35 25 35 -7 0 -5 6 4 15
8 8 21 15 28 15 10 0 9 3 -2 10 -13 8 -12 10 4 10 13 0 16 5 12 16 -6 15 -4
15 11 3 9 -8 14 -9 10 -3 -4 7 0 14 7 17 8 3 17 1 20 -6 2 -7 5 -4 5 5 1 11 6
15 16 12 8 -4 15 -1 15 5 0 7 10 10 24 7 18 -3 23 -1 20 9 -3 7 0 16 7 21 7 4
10 3 6 -3 -4 -6 0 -14 9 -17 8 -3 12 -2 9 4 -3 6 1 13 9 16 22 8 20 25 -1 18
-17 -5 -17 -5 0 6 24 15 40 4 27 -20 -13 -24 -13 -30 0 -30 5 0 9 3 9 8 -3 20
2 32 12 26 8 -4 7 -9 -2 -15 -11 -7 -11 -9 1 -9 13 0 13 -2 1 -9 -8 -5 -15
-21 -15 -34 -2 -38 60 -66 142 -63 35 1 66 -2 69 -7 2 -4 11 -3 19 4 11 9 14
9 14 0 0 -8 8 -10 20 -6 11 3 20 2 20 -3 0 -12 38 -8 52 6 9 9 7 11 -8 8 -13
-3 -25 4 -34 17 -12 21 -12 21 5 7 17 -13 18 -13 13 1 -4 9 -1 16 7 16 8 0 11
-7 7 -16 -5 -13 -3 -14 9 -4 12 10 18 10 29 0 10 -10 11 -9 5 2 -5 9 -4 12 2
8 5 -3 23 -9 39 -11 16 -3 39 -8 52 -10 12 -3 22 0 22 6 0 6 6 6 15 -2 13 -11
14 -10 10 2 -5 12 0 14 19 11 16 -3 26 -1 26 6 0 6 5 11 11 11 5 0 7 -6 3 -12
-5 -10 -4 -10 6 -1 14 13 4 37 -12 27 -7 -4 -8 -2 -4 5 6 9 11 9 22 0 7 -6 21
-9 29 -5 8 3 15 0 15 -7 0 -8 3 -8 9 2 5 8 11 9 15 3 4 -7 17 -7 36 -2 18 5
32 5 36 -1 4 -6 14 -3 26 8 11 9 18 13 16 8 -2 -6 2 -11 7 -12 6 0 9 2 8 5 -2
9 64 8 73 0 4 -4 15 -3 25 3 13 7 19 6 19 -1 0 -7 6 -10 12 -8 7 3 19 -1 26
-9 7 -7 22 -13 33 -13 10 0 19 -4 19 -9 0 -5 6 -9 13 -8 40 1 78 -4 73 -11 -6
-10 36 -8 52 2 7 4 12 2 12 -4 0 -7 12 -3 28 8 15 10 37 18 50 17 14 -1 22 4
22 14 0 14 2 14 10 1 5 -8 10 -10 10 -5 0 15 50 36 50 22 0 -8 3 -7 9 1 4 8
11 13 15 13 20 -3 26 0 20 11 -5 8 -2 9 9 5 10 -3 17 -2 17 4 0 6 5 7 10 4 6
-3 10 -1 10 5 0 6 5 8 10 5 6 -3 10 -1 10 5 0 7 7 10 15 6 9 -3 15 0 15 10 0
8 4 13 9 9 6 -3 14 2 19 11 5 9 13 16 18 16 5 0 8 5 6 10 -2 6 6 8 17 5 12 -3
19 0 18 6 -1 6 9 16 23 24 14 7 24 17 23 23 -2 5 2 10 8 10 6 0 9 7 5 15 -3 9
0 15 9 15 8 0 14 6 12 13 -1 6 3 11 10 10 7 -2 10 4 7 12 -4 8 1 17 9 21 9 3
14 14 12 25 -2 10 1 19 6 19 6 0 8 4 5 9 -4 5 -1 11 6 13 6 2 13 23 14 46 1
24 8 49 14 57 10 12 10 15 -1 15 -9 0 -10 3 -4 8 12 8 16 62 4 62 -4 0 -8 8
-8 18 -2 53 -6 72 -14 72 -4 0 -6 4 -3 9 3 5 -1 12 -10 15 -13 5 -14 9 -4 21
10 12 9 15 -4 15 -10 0 -14 5 -11 10 3 6 1 10 -5 10 -6 0 -8 5 -5 10 3 6 -2
10 -12 11 -11 0 -13 3 -5 6 8 3 2 14 -18 33 -16 15 -26 30 -23 34 3 3 -1 6
-11 6 -9 0 -14 5 -11 10 3 6 -2 10 -11 10 -10 0 -15 3 -11 6 7 8 -17 34 -32
34 -5 0 -13 9 -16 20 -3 11 -13 20 -21 20 -8 0 -14 6 -14 13 0 8 -4 7 -10 -3
-8 -13 -10 -12 -10 3 0 10 -4 16 -9 13 -5 -4 -11 -1 -13 4 -2 6 -13 12 -25 13
-12 0 -19 5 -17 9 3 4 -2 8 -10 8 -9 0 -16 4 -16 8 0 4 -9 8 -21 9 -11 1 -27
8 -36 15 -8 6 -20 13 -27 14 -6 1 -25 4 -43 7 -17 3 -34 3 -37 -1z m-450 -461
c-3 -5 6 -8 19 -8 14 0 28 4 31 9 4 6 10 5 16 -3 7 -11 11 -11 15 -1 2 6 9 12
14 12 6 0 7 -4 4 -10 -4 -6 1 -7 11 -3 13 5 16 3 11 -10 -4 -11 -2 -14 9 -10
7 3 14 10 15 17 0 6 4 2 9 -9 6 -14 9 -15 9 -4 1 9 10 15 25 15 14 0 22 -4 19
-10 -4 -5 1 -7 11 -3 9 4 31 1 49 -7 18 -7 37 -14 42 -15 6 -1 9 -12 8 -24 -3
-20 -2 -20 7 2 10 23 12 24 27 8 14 -14 15 -19 4 -29 -11 -10 -12 -10 -7 0 9
15 -10 16 -19 2 -5 -8 -11 -7 -21 1 -7 6 -12 15 -9 18 2 4 -2 8 -10 8 -11 0
-12 -5 -3 -21 6 -12 7 -18 3 -14 -5 4 -14 3 -21 -3 -8 -7 -14 -6 -20 2 -4 7
-3 9 4 5 6 -3 13 -2 16 3 8 13 -22 7 -36 -7 -9 -9 -9 -12 0 -12 7 0 12 -4 12
-10 0 -5 -7 -6 -17 -3 -11 4 -14 3 -9 -5 5 -8 2 -10 -8 -6 -9 3 -16 10 -16 16
0 5 5 6 10 3 6 -4 9 -3 8 2 -1 4 4 19 11 33 10 18 5 16 -18 -10 -24 -28 -32
-32 -40 -21 -5 8 -16 11 -26 8 -9 -4 -14 -3 -11 2 3 5 -1 11 -9 14 -9 4 -12 1
-9 -8 4 -9 -1 -12 -13 -10 -10 2 -22 4 -26 4 -5 1 -5 7 -2 14 4 6 -2 2 -13
-10 -11 -12 -23 -19 -27 -15 -4 4 -2 -3 4 -15 14 -27 9 -29 -13 -7 -11 11 -16
12 -16 3 0 -7 -6 -4 -14 6 -8 11 -12 23 -9 28 2 4 1 6 -4 5 -4 -2 -10 2 -11 7
-2 6 -8 15 -13 22 -8 8 -4 10 13 6 18 -4 20 -2 8 6 -12 8 -12 13 4 30 19 21
32 28 22 12z"/>
</g>
</svg>
