<?xml version="1.0" encoding="UTF-8" standalone="no"?>
<svg
   version="1.0"
   width="1024.000000pt"
   height="1024.000000pt"
   viewBox="0 0 1024.000000 1024.000000"
   preserveAspectRatio="xMidYMid meet"
   id="svg12"
   sodipodi:docname="を.svg"
   xmlns:inkscape="http://www.inkscape.org/namespaces/inkscape"
   xmlns:sodipodi="http://sodipodi.sourceforge.net/DTD/sodipodi-0.dtd"
   xmlns="http://www.w3.org/2000/svg"
   xmlns:svg="http://www.w3.org/2000/svg">
  <defs
     id="defs16" />
  <sodipodi:namedview
     id="namedview14"
     pagecolor="#ffffff"
     bordercolor="#666666"
     borderopacity="1.0"
     inkscape:pageshadow="2"
     inkscape:pageopacity="0.0"
     inkscape:pagecheckerboard="0"
     inkscape:document-units="pt" />
  <metadata
     id="metadata2">
Created by potrace 1.16, written by Peter Selinger 2001-2019
</metadata>
  <g
     transform="translate(0.000000,1024.000000) scale(0.100000,-0.100000)"
     fill="#000000"
     stroke="none"
     id="g10">
    <path
       d="m 5560,9677 c -163.9033,21.2115 -339.2251,-234.6792 -302,-188 26.5971,-138.6262 143.5021,-382.2331 204,-275 -34.2666,-81.6776 -60.9706,-271.2963 -56,-212 41.4361,-156.5688 35.8639,-390.043 25,-275 7.2387,-69.031 -32.5226,-276.5397 -6,-187 -113.0198,-150.8328 -207.5075,-191.9341 -258,-276 -142.6023,-78.6394 -615.0141,-269.7765 -452,-229 -123.6485,-9.695 -557.8558,-110.2492 -415,-81 -32.0642,-61.0495 -332.0078,-110.418 -251,-40 -141.6771,42.7348 -420.5577,37.9301 -307.375,20.625 -79.2887,-16.9383 -318.451,-61.4939 -241.625,-51.625 -327.5332,-80.4106 -253.2094,-38.2947 -409,-59 -244.7332,-39.2194 -506.1836,-97.4545 -751,-44 -95.1049,34.8299 -174.1206,-221.9726 -128.125,-148 -175.565,25.8293 10.6878,-223.7468 55.125,-157 48.3067,-176.4279 438.9146,-60.8298 324.75,-67.125 412.9508,73.7756 76.2402,54.2497 560.25,67.125 258.5437,26.1262 620.9084,-19.5144 498,-6 -29.3853,-39.5879 1574.7028,-16.5055 514.125,-25.875 270.0754,-53.9084 885.5924,188.8044 622.875,66.875 40.5583,-38.1875 483.0933,313.5784 239,118 132.2589,42.3046 351.7458,234.1549 299,192 53.1025,50.384 244.1442,116.4951 210,100 78.6099,34.6955 189.7542,260.0893 176.875,212 66.5626,41.6859 203.8575,332.2854 144,234.625 13.0092,90.0662 32.5002,408.2981 51.125,306.375 -4.2989,17.1787 -58.1045,257.3892 -5,150 -3.8966,38.1237 -58.7163,214.0149 -43,191 0.865,103.5058 -110.1911,361.5188 -83,293 34.3366,30.0317 -60.8793,214.7435 -41,173 -13.4965,61.4791 -107.5098,136.8999 -102,165 -74.7608,-4.8808 -34.1178,55.3317 -73,32 z"
       id="path4" />
    <path
       d="m 6603,8114 c -105.5161,-28.8296 -416.3539,-24.9956 -313,-33 -194.5564,-41.8028 -681.8945,-194.055 -523,-115 -83.3282,-82.0865 -265.9942,-337.9624 -233,-232 -83.5706,-87.2544 -315.8152,-573.1314 -160.25,-290.625 C 5323.3194,7317.9426 5132.3517,6838.0309 5177,6987 c -30.2261,-134.05 -118.9572,-459.7925 -97,-343 -119.6123,-179.8988 -682.1447,-492.5324 -470,-412 -120.5492,-43.0894 89.6416,-181.2253 64,-110 118.7144,12.9021 -186.3465,-238.2877 -106,-164 -27.3843,-171.9221 51.615,27.4994 -75,-262 -98.1997,-171.6611 -194.8468,-318.2133 -329,-455 -230.7837,-221.3196 -61.6725,-296.4718 -225,-284 -118.0005,-227.2463 -335.7879,-37.575 -511,-21 -136.8263,26.4794 -431.2016,97.3733 -344.625,61.125 7.9384,-40.521 -180.1488,-89.4485 -156.25,-26.875 -212.2167,47.3142 -400.3189,-38.4741 -451.125,-66.25 -147.0985,-74.8785 -470.8413,-254.1425 -342,-171 -123.8693,-32.4647 -428.9079,-217.6315 -336,-177 -23.0949,-37.5049 -203.3262,-234.5559 -156,-162 -58.7196,-114.1599 -202.5871,-504.0536 -148,-362 -107.1717,-58.6938 -52.9999,-422.4231 -34,-352 13.9082,-108.4006 21.8705,-288.8205 24.375,-215.75 3.6464,-146.7531 -62.0113,-484.2351 -52.375,-423.25 -50.1902,-94.5944 -67.152,-336.1191 -72,-246 -21.1249,-48.0645 201.6266,-166.5626 116,-177 85.1857,-16.5433 246.9496,142.7668 219,121 43.403,50.5624 133.6176,164.5278 99,125 48.2154,17.7582 158.2969,127.1501 90,95 -6.5856,57.4269 85.989,175.055 79,128 40.2526,42.7028 77.1921,222.5644 167,209 31.7561,20.6332 -73.1168,148.1227 15,100 45.9666,17.4899 69.0203,86.1945 33,59 21.8507,77.1186 -71.1277,246.9065 -1,172 -87.5212,84.8791 -120.8667,33.1231 -154.25,70 37.8858,124.4767 13.8708,174.9941 -15.75,129.875 68.1163,21.9914 -26.8613,44.6986 98.875,76.875 9.6753,-110.2669 263.5603,-45.7202 179.125,-63.75 58.1966,2.9452 294.4751,38.5693 261,29 471.4698,54.6285 -96.9353,-135.7462 476,45 76.9334,73.4749 431.4303,243.8322 303,186 120.0163,68.8895 315.8104,189.5246 239,107 58.747,7.8765 227.7991,33.4252 193.5,84.375 -68.1492,-53.7625 48.9449,50.5044 86.5,-5.375 85.3792,9.3626 127.7327,-38.7364 172,0 50.6139,-76.4631 -86.414,-176.6115 -22,-113 -42.6011,95.2298 48.4664,28.4443 -69.125,50.75 -15.2722,-91.4396 -114.3559,-170.0667 -25.875,-98.75 -128.1762,156.3896 99.307,-246.4867 82,-129 69.7525,8.9748 130.371,-188.351 109,-141 54.8968,-112.5662 132.0292,-211.6956 108,-225 34.7726,-60.1179 163.0389,-266.9097 137,-238 32.15,-57.6494 -913.3686,-884.2197 -387,-376 -62.8799,-144.3508 -414.1723,-475.414 -338,-341 -30.1555,-72.4925 -141.8409,-359.8728 -126.375,-281.5 -20.985,-99.6602 -76.5155,-319.4875 -52.125,-255.875 33.6085,-87.4446 64.8881,-355.3832 23.5,-280.625 49.7728,-121.4291 117.0294,-320.4116 142.2969,-331.9219 C 3686.9253,1301.5617 4217.7073,861.49904 4070,983 c 109.897,-91.01255 360.7615,-216.53094 276.25,-156.875 27.9701,-79.26738 196.099,-108.38868 193.875,-55.75 64.5443,43.28059 401.805,23.75222 271.375,-1.375 102.3759,-44.48568 274.4672,-85.26349 233.5,-66 82.3664,-26.92152 391.9552,-109.41162 285,-93 49.2614,-8.4921 358.2531,15.2006 289.875,-30.375 76.2289,-22.79289 433.9155,-36.302 304.125,-3.625 58.4041,35.54641 279.6606,-19.77892 192,12 38.3104,41.72913 385.6636,76.41287 244,43 72.61,1.29832 164.5254,-13.23553 135,-2 144.9892,37.60869 330.2124,93.02511 188.875,26.5 86.656,-9.72084 294.3775,36.29574 195.125,14.5 71.146,-36.75919 296.2443,-50.94454 206,-17 112.4322,9.53746 250.7859,-18.2279 189,3 75.9696,40.16565 230.3252,106.85719 195.875,44 -19.3431,-75.7447 176.1488,-65.81514 137.125,-39 227.3518,4.38505 346.7106,-62.3721 218,-41 122.5677,-22.92319 58.3345,51.7212 95,55 39.6705,58.29952 -88.159,167.35852 -65,101 -25.5215,155.16002 116.8226,-126.53413 119,-73.625 81.1581,-32.26145 -19.7623,249.23293 38.125,157.25 104.6553,-65.26934 -6.8081,138.29478 10.875,77.375 -38.1675,127.0005 3.1345,190.8207 -195.875,95.375 -103.9165,0.9912 -348.6833,-4.5502 -210.375,-20.5 -48.3795,-6.3005 -307.8085,-23.11476 -246.75,-10.875 -61.464,5.7032 -245.2386,-29.01578 -169.625,-0.125 -76.6928,14.6488 -443.5335,30.367 -340.375,19.125 -100.5615,-1.2667 -334.3475,14.0612 -260,25 -131.5845,40.11 -545.5234,72.964 -396,37 -48.3737,52.9973 -393.8445,-19.0678 -287,-2 -38.038,13.5803 -401.9387,91.2174 -302,30 -136.5982,87.984 -591.3278,179.875 -446,134 -93.6065,6.0619 -314.5389,59.5004 -237,49 -127.557,36.1135 -297.0293,97.1241 -245.25,74.25 -151.1509,14.6317 -260.3457,87.8102 -227.75,73.75 -218.2871,136.2435 -321.4163,272.0569 -345,263 47.1176,51.2529 -165.1811,162.8593 -140,228 51.7453,13.4889 -174.0949,212.9982 -99,168 3.7399,65.3673 240.3951,183.1713 165,116 196.1503,80.6437 193.6817,267.4532 82,233 113.3448,-15.9851 418.9605,138.0046 305.625,99.875 101.5331,-11.228 217.396,277.7102 205.375,201.125 11.1442,55.889 143.7537,109.2996 80,165 79.4408,-98.7192 268.6855,-419.2356 217,-320 112.1981,-176.7097 33.9625,-172.8172 114,-301 7.1119,-165.7112 -31.3847,-79.9188 7,-244 50.3206,-98.2441 220.2682,-302.5032 111.125,-230.875 0.8,-91.4184 103.1701,-355.2338 88.875,-264.125 63.7617,-193.216 215.1462,-94.963 145,-107 22.5321,67.0708 -8.9677,351.5302 22,200 6.3316,17.3613 -48.7389,133.8338 -62.375,137.5 -51.5929,114.5869 74.0475,54.2275 62.375,56.125 43.8793,24.4954 122.7425,177.8743 59,154.375 30.8677,79.6652 -44.3361,481.5851 15,353 -96.7144,124.4828 -215.6968,306.7303 -185.75,287.625 -17.2787,116.2247 -283.8277,520.4125 -196.25,399.375 -154.0348,233.2032 -7.9035,-35.3542 -146,251 -71.6484,85.8454 -46.1528,301.4053 -55.625,152.25 -28.9499,24.1148 -177.8363,494.8796 -130.375,340.75 -49.2039,127.5885 -204.4243,420.1952 -154,298 -70.2606,75.0488 -216.5183,283.2143 -184,222 -81.492,100.6335 87.2049,22.6773 -92,148 -90.9056,98.8 -187.4721,287.3914 -168,192 37.0954,26.9213 275.4442,175.8859 206,147 78.8264,91.7297 253.7123,260.9447 184,193 -2.5306,59.704 347.2395,244.6387 179,166 11.9737,79.5007 95.0221,143.4258 96,136 13.2208,54.78 167.0094,262.5511 154,213 57.0729,71.8471 125.9304,198.4786 98,142 47.9627,44.6956 284.9214,241.6208 176,209 -1.2308,48.8747 87.54,202.5623 77.375,161.625 51.4053,31.5403 142.1171,191.3879 71.625,172.375 -56.8713,31.3699 40.3686,199.4839 54,123 63.0803,38.3198 235.2639,354.349 150,223 37.5009,41.6595 101.3043,231.9887 67,160 -30.1031,-11.9499 262.2934,422.3753 147,279 24.0419,67.5708 156.8351,413.4721 141.75,276.75 77.8584,16.6187 178.5913,191.9642 119.25,168.25 12.954,91.7603 156.0892,126.1717 129,116 87.371,37.1403 222.0457,114.7644 212,8 -193.2736,172.902 2396.9695,-465.931 321,32 80.2662,-72.0929 -121.5379,-272.7903 -113,-175 -82.2094,-90.5509 87.402,-120.5843 73,-140 139.4339,-99.5939 494.9326,-220.9542 398,-175 134.8829,-39.3988 448.1447,-125.4234 375,-133 35.0691,-40.5313 315.4749,-23.5199 230,-14 38.43,14.068 203.4481,150.347 168,67 -23.52,75.8442 -230.5611,276.6131 -107.75,177.125 -71.0354,177.5789 -269.5243,318.3742 -254.25,342.875 -35.4525,61.5496 -165.1925,161.1909 -287.625,204.125 -185.4765,82.9717 -250.0613,191.8182 -257.875,226 C 6893.8923,8068.4806 6750.0477,8104.454 6603,8114 Z M 2983,4485 c 62.4672,-74.5045 211.6793,-132.6957 206,-69 101.5397,80.7625 -131.3398,-72.1223 -15,-30 -45.0408,-28.6989 -292.8368,-14.4457 -217.75,-62.75 4.6727,-27.3682 -300.778,-27.7868 -211.875,-64.625 -105.5784,-23.1842 -125.666,13.758 -177.25,-92 156.91,6.6648 -445.0725,-157.2238 -360.125,-128.625 -24.2302,-54.2308 -325.8397,117.3733 -123,23 37.3001,105.2405 139.703,190.6361 121,129 114.7596,66.4395 -65.5208,8.6047 95,72 11.1542,109.791 156.5696,142.7211 137.5,155 144.2884,17.9671 294.3466,149.2608 251.5,66 20.6824,-11.2669 231.5969,-11.334 179.125,-12.875 22.3458,-60.6218 100.22,57.368 114.875,14.875 z"
       id="path6" />
    <path
       d="m 8156,5302 c -198.323,-14.4825 -569.7715,-24.5702 -435,-40 -204.7187,35.3675 -389.5764,-73.9752 -585,-114 -150.0555,-36.8126 -305.6163,-126.2325 -430,-222 -156.2906,-85.6262 -367.8298,-463.9534 -290,-317 -126.648,-114.5743 -413.6448,-345.9034 -307,-269 -130.4833,-129.0673 -492.8804,-477.1962 -367,-351 -90.5854,-76.4069 -347.6017,-306.8422 -257,-227 -99.161,-52.8956 -409.4663,-125.0298 -319,-125 -15.4611,-107.6939 -6.7861,-282.0783 17,-167 -52.9102,-85.9175 -99.2223,-100.1748 33,-135 -79.1784,-8.7919 -129.9853,267.6455 -82,137 6.4927,39.5412 35.6188,165.8904 0,101 -142.4661,-72.5742 -230.9348,-127.7788 -111.875,-186 71.9562,-34.3288 180.7318,-134.3724 102.875,-130 30.0005,-25.0402 176.4749,113.5951 54,-22 168.2433,116.1784 238.3823,198.38 211,170 170.7048,101.029 -0.1815,109.2959 117,88 50.6414,26.3581 100.5294,113.1626 90,84 7.2493,-45.2744 201.2567,105.316 161.75,72.125 86.9127,22.3397 281.4313,107.553 188.25,103.875 17.7876,52.2463 461.8864,174.4726 208,117 81.0436,106.408 203.5728,207.5785 174,114 67.0503,56.0403 205.5178,123.7245 126,67 27.6066,5.7605 314.2988,136.1884 207,83 93.4257,68.2971 259.9772,170.1158 177,168 113.3817,16.8671 160.3122,-77.8092 141,28 22.5155,-13.2724 215.9853,-90.0862 270,-105 104.7256,8.8685 216.4745,31.3851 105,34 91.5059,-15.034 163.5995,107.6934 198.125,46.75 136.8569,-56.1168 289.5378,52.6689 429.875,-52.75 139.5257,-34.5516 425.6398,128.7687 349.5,76 188.8413,41.5632 317.418,227.117 354.875,418 -23.6126,74.7235 -175.5836,315.6592 -94,265.875 -31.1725,86.0249 -262.4743,234.8865 -205.375,207.125 -72.6781,36.7546 -146.2271,92.3374 -232,82 z m -450,-461 c 117.5071,6.0651 317.7324,-10.2093 218,-18 149.9768,-45.9503 -19.9796,-47.9355 68,-57 -38.1467,8.2825 -78.2474,8.1286 -74,-29 30.4679,46.3603 -210.5154,7.393 -192,-21 -70.718,28.197 -70.3047,106.1697 -20,125 z"
       id="path8" />
  </g>
</svg>
