<?xml version="1.0" standalone="no"?>
<!DOCTYPE svg PUBLIC "-//W3C//DTD SVG 20010904//EN"
 "http://www.w3.org/TR/2001/REC-SVG-20010904/DTD/svg10.dtd">
<svg version="1.0" xmlns="http://www.w3.org/2000/svg"
 width="1024.000000pt" height="1024.000000pt" viewBox="0 0 1024.000000 1024.000000"
 preserveAspectRatio="xMidYMid meet">
<metadata>
Created by potrace 1.16, written by Peter Selinger 2001-2019
</metadata>
<g transform="translate(0.000000,1024.000000) scale(0.100000,-0.100000)"
fill="#000000" stroke="none">
<path d="M5564 9685 c5 -15 4 -16 -9 -5 -11 9 -15 9 -15 1 0 -7 -4 -9 -10 -6
-5 3 -10 1 -10 -5 0 -6 -4 -8 -10 -5 -5 3 -10 1 -10 -4 0 -7 -17 -10 -40 -8
-22 2 -40 -1 -40 -5 0 -5 -4 -6 -10 -3 -5 3 -10 0 -10 -7 0 -10 -2 -10 -9 1
-7 11 -11 9 -21 -9 -6 -12 -14 -20 -16 -17 -7 7 -61 -46 -56 -55 2 -5 -5 -8
-15 -9 -10 0 -13 -3 -6 -6 10 -3 10 -7 0 -18 -7 -7 -14 -11 -17 -10 -3 2 -6
-5 -6 -16 0 -10 3 -19 7 -19 4 0 5 -9 2 -20 -3 -12 5 -28 23 -46 16 -15 23
-24 15 -19 -9 5 -12 4 -7 -3 3 -6 15 -9 26 -7 12 2 18 0 15 -6 -7 -11 20 -41
29 -32 3 3 11 1 18 -4 7 -6 29 -14 48 -18 30 -7 32 -9 15 -16 -19 -7 -5 -14
19 -10 5 1 4 -5 -4 -13 -8 -11 -9 -16 -1 -16 6 0 11 -5 11 -11 0 -5 -4 -8 -9
-5 -5 4 -7 -4 -3 -16 3 -13 1 -19 -6 -15 -14 10 -9 -17 8 -39 14 -17 13 -18
-2 -6 -11 9 -18 10 -23 2 -3 -5 0 -10 7 -10 9 0 10 -2 2 -8 -16 -9 -21 -43
-10 -61 6 -10 5 -12 -2 -7 -7 4 -12 1 -12 -8 0 -9 -5 -16 -12 -16 -6 0 -8 -3
-5 -6 3 -4 2 -16 -4 -27 -8 -14 -8 -18 0 -13 15 10 14 -7 -1 -22 -9 -9 -9 -12
1 -12 7 0 9 -4 6 -10 -3 -5 -1 -10 6 -10 8 0 7 -5 -2 -17 -11 -13 -11 -17 -1
-20 6 -3 12 -9 12 -14 0 -6 -4 -8 -9 -5 -5 4 -7 -3 -4 -14 3 -11 9 -20 12 -20
4 0 8 -7 8 -15 0 -8 -4 -15 -8 -15 -12 0 -4 -31 12 -41 9 -6 10 -9 2 -9 -7 0
-10 -7 -6 -17 5 -12 3 -14 -8 -8 -12 8 -12 6 0 -8 7 -9 10 -17 5 -17 -5 0 0
-8 11 -17 13 -10 14 -14 4 -10 -13 4 -15 -6 -14 -62 0 -36 4 -71 8 -78 4 -6 3
-14 -3 -18 -6 -4 -8 -10 -5 -15 3 -5 1 -11 -5 -15 -6 -4 -8 -11 -5 -16 4 -5 1
-9 -5 -9 -6 0 -9 -4 -6 -8 2 -4 1 -14 -5 -22 -5 -10 -9 -11 -9 -3 0 7 -7 10
-15 7 -8 -4 -15 -12 -15 -18 0 -7 -6 -13 -14 -13 -24 0 -87 -45 -82 -59 3 -7
0 -11 -7 -8 -11 4 -71 -80 -72 -101 -1 -5 -7 -9 -14 -7 -9 2 -11 -3 -7 -13 3
-9 2 -13 -3 -10 -6 3 -14 -2 -19 -11 -5 -9 -11 -16 -13 -15 -11 2 -49 -12 -49
-18 0 -4 -10 -7 -22 -8 -11 -1 -24 -7 -28 -14 -4 -6 -13 -8 -19 -5 -6 4 -11 1
-11 -7 0 -8 -14 -17 -30 -21 -29 -5 -101 -51 -108 -68 -2 -5 -10 -8 -18 -8 -8
0 -14 -5 -14 -11 0 -6 -7 -9 -15 -5 -8 3 -15 1 -15 -5 0 -6 -4 -8 -9 -4 -5 3
-17 -2 -25 -11 -9 -8 -16 -11 -16 -5 0 6 -7 8 -16 4 -16 -6 -40 -9 -82 -12
-13 0 -21 -4 -19 -8 3 -5 -11 -9 -31 -10 -21 -1 -45 -2 -54 -3 -10 -1 -18 -5
-18 -9 0 -5 -13 -7 -30 -5 -16 2 -30 -1 -30 -7 0 -6 -4 -7 -10 -4 -5 3 -19 1
-31 -6 -17 -9 -20 -8 -14 2 9 14 -9 5 -39 -20 -13 -10 -17 -11 -11 -2 6 10 2
11 -16 5 -13 -4 -34 -8 -46 -8 -13 0 -23 -5 -23 -10 0 -6 -5 -4 -10 4 -7 11
-10 11 -10 2 0 -8 -5 -10 -12 -6 -18 11 -118 11 -111 0 4 -5 -5 -6 -21 -2 -21
5 -26 4 -20 -6 5 -8 1 -8 -11 2 -17 14 -18 13 -12 -2 3 -10 2 -18 -4 -18 -6 0
-7 -5 -3 -12 4 -7 3 -8 -5 -4 -6 4 -9 11 -7 15 3 3 -4 7 -14 7 -10 0 -16 -4
-14 -8 3 -4 0 -8 -5 -8 -6 0 -11 6 -11 13 0 8 -4 7 -10 -3 -8 -13 -14 -8 -12
11 1 3 -13 5 -29 4 -16 -1 -32 2 -35 7 -3 4 -14 3 -25 -2 -10 -6 -19 -7 -19
-2 0 5 -10 8 -22 7 -13 -1 -36 2 -51 6 -29 8 -29 8 -13 -16 9 -14 12 -25 7
-25 -5 0 -11 6 -14 14 -6 14 -55 14 -66 -1 -7 -10 -42 -10 -58 0 -6 4 -14 3
-18 -2 -3 -5 -14 -8 -25 -6 -12 2 -18 0 -15 -5 3 -6 -7 -8 -24 -6 -17 2 -31
-1 -31 -6 0 -6 -9 -8 -20 -5 -11 3 -23 0 -27 -5 -3 -6 -1 -8 5 -4 6 3 13 3 16
-2 2 -4 -22 -7 -55 -6 -32 1 -59 -2 -59 -7 0 -5 5 -9 12 -9 6 0 8 -3 5 -6 -4
-4 -13 -2 -20 4 -8 7 -17 9 -21 5 -3 -4 -23 -8 -43 -10 -20 -1 -40 -8 -45 -15
-4 -7 -8 -8 -8 -3 0 6 -9 11 -20 11 -11 0 -20 -3 -20 -6 0 -3 -31 -5 -70 -5
-44 1 -70 -2 -70 -9 0 -6 -5 -4 -10 4 -6 9 -10 10 -10 3 0 -8 -14 -11 -39 -10
-22 1 -37 -1 -35 -5 3 -5 2 -8 -3 -9 -4 0 -33 -3 -63 -5 -51 -4 -95 -10 -95
-14 0 -1 -9 -3 -20 -6 -46 -10 -71 -10 -84 0 -11 8 -13 8 -8 -1 6 -9 -2 -11
-27 -9 -19 1 -33 -1 -30 -5 2 -4 0 -10 -6 -14 -5 -3 -10 -2 -10 3 0 6 -14 7
-35 2 -19 -4 -35 -4 -35 1 0 5 -11 4 -24 -1 -13 -5 -26 -6 -29 -3 -3 3 -30 5
-59 5 -29 0 -75 6 -101 15 -58 18 -98 23 -91 12 3 -5 -2 -9 -12 -9 -9 0 -23
-8 -31 -17 -8 -10 -11 -12 -7 -4 5 9 3 12 -5 7 -6 -4 -8 -13 -4 -19 11 -18 12
-37 2 -37 -4 0 -5 -7 -2 -17 4 -11 3 -14 -5 -9 -8 5 -10 1 -5 -10 5 -13 3 -15
-7 -9 -8 5 -11 3 -8 -6 3 -8 11 -13 17 -11 7 1 9 -3 6 -9 -5 -8 -10 -8 -18 0
-15 15 -50 14 -66 -1 -11 -10 -13 -10 -7 0 4 6 5 12 2 12 -3 0 -10 -9 -16 -19
-8 -17 -4 -22 37 -42 26 -13 56 -22 68 -21 15 1 17 -1 5 -8 -8 -5 -18 -6 -24
-3 -5 3 -6 1 -2 -5 4 -6 13 -9 22 -5 8 3 14 2 13 -3 -5 -30 3 -54 19 -54 16
-1 16 -1 -1 -11 -21 -12 -13 -30 11 -23 16 5 16 5 0 -5 -19 -13 -18 -43 3 -49
11 -3 12 -2 1 6 -11 7 -11 10 2 15 9 4 15 1 13 -6 -1 -7 3 -11 10 -10 8 2 10
-4 6 -14 -4 -11 -3 -14 5 -9 7 4 12 2 12 -5 0 -10 3 -10 12 -1 16 16 31 15 25
-1 -3 -7 3 -13 13 -13 10 0 17 3 14 7 -2 4 3 10 12 13 8 3 12 2 9 -4 -3 -6 -3
-10 2 -11 4 0 16 -2 25 -4 11 -2 15 2 11 11 -3 8 0 14 6 14 6 0 11 -4 11 -10
0 -5 5 -10 11 -10 5 0 8 4 5 9 -3 5 12 8 33 7 22 0 37 2 35 5 -2 4 3 10 12 13
22 9 26 8 18 -5 -3 -6 5 -4 18 5 14 9 27 13 30 10 4 -3 16 0 28 6 16 8 20 9
15 1 -3 -6 10 -2 30 9 20 11 34 16 30 10 -3 -5 -2 -10 4 -10 5 0 13 5 17 11 4
8 9 7 15 -2 5 -9 9 -10 9 -3 0 8 21 12 55 13 31 0 60 3 65 6 5 3 14 -3 20 -12
11 -17 11 -17 6 0 -4 13 1 17 24 18 17 1 36 2 43 3 6 1 18 -3 26 -8 12 -9 13
-8 6 4 -8 13 -7 13 8 1 9 -7 17 -9 17 -4 0 13 74 13 82 -1 5 -7 8 -6 8 4 0 12
14 15 68 15 37 0 73 4 80 9 7 5 12 5 12 0 0 -9 34 -9 98 -1 18 2 35 0 38 -5 3
-5 11 -5 17 0 14 10 27 10 44 -1 6 -4 15 -2 19 4 4 8 9 7 15 -2 5 -8 9 -9 9
-3 0 6 10 10 23 8 12 -1 22 -3 22 -4 0 -1 13 -3 28 -4 15 -2 33 -8 39 -14 8
-8 17 -8 30 -1 10 5 18 6 18 1 0 -4 18 -8 40 -7 33 1 40 -2 35 -14 -4 -12 -2
-12 9 2 7 9 17 17 21 17 4 0 4 -8 1 -17 -5 -16 -4 -16 6 -3 15 18 61 15 52 -3
-3 -7 2 -3 10 7 10 12 16 15 16 7 0 -8 8 -11 20 -8 11 3 20 0 20 -6 0 -8 3 -8
8 -2 9 13 42 16 42 4 0 -5 10 -5 23 0 13 5 30 5 39 0 11 -6 19 -5 23 1 5 8 11
8 20 0 10 -8 15 -8 20 1 6 8 10 7 16 -2 5 -8 9 -9 9 -4 0 12 40 13 58 1 7 -4
12 -2 12 6 0 8 3 9 8 3 8 -11 41 -13 57 -4 15 9 98 5 114 -5 10 -6 12 -5 7 2
-4 7 -1 12 8 12 9 0 16 -6 16 -12 0 -10 2 -10 8 -1 5 7 45 11 121 11 84 0 116
4 122 14 6 8 9 9 9 1 0 -8 9 -9 35 -2 19 6 40 7 45 4 6 -4 9 -1 8 7 -2 7 5 12
14 12 11 -1 15 5 13 18 -3 16 -1 17 9 9 10 -9 15 -8 20 4 3 9 10 13 16 10 5
-3 10 -2 10 3 0 5 11 8 25 7 14 -2 25 0 25 5 0 4 16 11 35 14 20 4 33 11 30
15 -3 5 2 12 11 15 10 4 13 2 8 -7 -6 -8 -3 -8 9 1 9 8 20 11 25 8 6 -3 13 6
16 20 5 17 12 24 21 20 10 -3 12 0 8 12 -6 15 -5 16 12 2 11 -9 16 -10 11 -2
-4 7 -2 12 6 13 36 2 55 10 72 31 10 13 22 23 26 23 5 0 11 3 15 7 4 4 13 4
20 2 7 -3 15 4 18 16 3 12 10 19 16 15 7 -4 8 0 4 11 -4 11 -2 15 4 11 6 -4
14 0 17 9 5 13 9 14 22 3 12 -10 15 -10 12 2 -2 8 -7 18 -13 22 -6 5 -4 7 5 6
32 -3 40 2 55 34 10 22 13 24 8 7 -5 -22 -4 -23 10 -11 9 7 14 17 11 22 -3 5
2 6 10 3 9 -3 13 -11 9 -18 -3 -6 6 0 20 13 15 14 30 21 34 18 8 -9 34 13 28
24 -3 4 4 6 15 4 11 -2 20 1 20 6 0 6 9 5 23 -2 19 -11 20 -10 10 3 -16 18 13
22 37 4 13 -10 13 -9 1 7 -7 9 -10 17 -6 17 4 0 2 6 -4 14 -9 11 -9 16 0 22 7
4 9 3 5 -4 -13 -21 17 -24 38 -3 20 21 20 22 1 15 -18 -7 -19 -6 -6 10 8 9 20
15 27 12 8 -3 11 0 7 9 -3 8 -10 12 -17 8 -6 -4 -5 1 3 10 15 18 26 23 16 7
-11 -18 12 -10 31 11 10 11 19 32 20 47 0 18 6 27 18 27 17 0 36 21 36 40 0 6
-4 3 -10 -5 -5 -8 -12 -11 -17 -7 -9 9 17 28 32 23 6 -2 11 7 11 20 1 16 -2
21 -10 17 -7 -4 -6 -1 1 9 7 8 9 19 5 23 -4 5 -1 5 6 1 6 -4 12 -2 12 3 0 6 5
11 12 11 6 0 4 -8 -6 -19 -11 -12 -14 -21 -7 -26 6 -3 12 -4 12 -1 4 16 7 26
9 31 1 3 3 8 4 13 1 4 7 17 14 30 7 12 10 22 6 22 -3 0 -1 6 5 13 6 8 8 17 4
20 -3 4 -1 7 5 7 7 0 12 5 12 10 0 7 -7 7 -22 0 -21 -10 -21 -10 2 9 13 10 29
17 34 14 5 -3 6 -1 2 6 -4 6 -12 9 -17 6 -5 -4 -9 -1 -9 4 0 6 7 11 16 11 14
0 14 3 4 15 -10 13 -11 18 -1 28 10 9 11 8 6 -8 -6 -19 -6 -19 5 -1 8 11 9 21
3 25 -12 7 -13 42 -1 35 4 -3 8 1 8 10 0 8 4 16 10 18 5 2 11 12 13 23 1 11 6
26 11 34 7 10 3 12 -14 6 -15 -5 -20 -4 -16 4 4 6 14 11 22 11 11 0 13 6 9 21
-5 14 -3 19 3 15 12 -7 10 20 -3 31 -4 5 -5 1 0 -7 5 -9 5 -12 -1 -7 -5 5 -9
12 -9 15 0 4 -4 14 -9 22 -7 12 -6 13 5 3 20 -20 27 -16 22 15 -2 15 -5 37 -6
50 -1 26 -12 29 -26 5 -6 -10 -11 -12 -11 -6 0 7 8 18 19 24 16 11 17 14 3 30
-8 9 -21 15 -28 12 -8 -3 -14 -1 -14 5 0 6 11 9 24 8 17 -2 23 1 19 11 -3 8
-13 11 -27 8 -18 -5 -19 -4 -4 5 10 6 15 17 11 27 -5 11 -3 14 6 9 8 -6 7 3
-4 23 -9 17 -13 37 -9 43 4 6 1 9 -7 6 -8 -3 -13 -14 -11 -24 2 -15 1 -16 -7
-5 -12 19 -3 41 18 41 13 0 13 2 2 9 -7 5 -11 13 -7 19 3 6 0 17 -8 25 -11 11
-12 17 -3 27 9 10 9 11 0 6 -7 -4 -13 -3 -13 3 0 6 -8 8 -17 5 -17 -5 -17 -5
0 6 17 11 25 46 7 35 -7 -4 -7 3 0 19 6 17 6 26 0 26 -6 0 -10 14 -10 31 0 20
-4 28 -11 23 -8 -5 -10 3 -7 25 3 18 1 34 -4 37 -5 3 -5 10 -2 16 4 7 2 8 -4
4 -8 -4 -10 5 -8 29 1 20 -1 38 -6 41 -5 3 -5 10 -2 16 5 7 1 9 -9 5 -9 -3
-19 -2 -22 4 -4 5 -1 8 7 7 7 -2 13 4 13 12 0 8 -8 15 -17 15 -9 0 -20 4 -25
9 -4 5 -3 6 5 2 6 -4 12 -2 12 4 0 6 5 8 12 4 7 -4 2 6 -10 23 -12 17 -22 36
-22 42 0 6 -5 11 -11 11 -5 0 -7 5 -4 10 3 6 -2 10 -12 10 -15 0 -16 2 -3 10
12 8 10 10 -10 11 -14 0 -19 3 -13 6 15 6 -1 25 -30 36 -10 4 -15 12 -12 17 9
14 -11 38 -48 57 -28 14 -29 14 -23 -2z"/>
<path d="M6600 8113 c0 -5 -12 -8 -27 -8 -16 1 -34 -3 -40 -8 -9 -6 -13 -5
-13 2 0 7 -5 9 -12 5 -7 -4 -33 -9 -58 -11 -74 -4 -90 -8 -90 -17 0 -5 -6 -4
-13 3 -10 8 -17 7 -25 -1 -9 -9 -12 -9 -12 1 0 11 -3 11 -17 0 -14 -12 -15
-12 -9 -1 7 11 4 12 -12 3 -15 -8 -22 -8 -25 2 -4 9 -6 9 -6 0 -1 -7 -10 -13
-20 -13 -11 0 -23 -5 -26 -10 -4 -6 -12 -7 -18 -3 -17 10 -47 11 -53 1 -3 -4
-10 -6 -15 -3 -5 4 -12 -1 -15 -9 -3 -9 -11 -13 -16 -10 -6 4 -5 10 3 16 10 7
6 8 -11 3 -14 -3 -31 -7 -37 -7 -7 -1 -13 -5 -13 -10 0 -5 -5 -6 -10 -3 -6 4
-17 2 -25 -5 -10 -8 -15 -8 -20 0 -5 8 -11 5 -21 -7 -11 -14 -13 -15 -14 -3 0
13 -1 13 -10 0 -6 -10 -10 -11 -10 -3 0 9 -7 10 -22 5 -13 -5 -33 -7 -45 -6
-13 0 -23 -2 -23 -7 0 -4 -16 -11 -35 -15 -19 -3 -34 -9 -33 -13 2 -18 -3 -32
-11 -27 -5 3 -11 -1 -15 -9 -3 -8 -13 -15 -22 -15 -10 0 -14 -5 -11 -14 3 -8
-2 -20 -11 -28 -11 -9 -14 -10 -8 0 4 6 3 12 -2 12 -6 0 -12 -7 -16 -15 -3 -8
-14 -15 -24 -15 -11 0 -26 -8 -33 -17 -13 -16 -12 -17 4 -4 9 8 20 11 23 9 3
-3 -8 -12 -25 -19 -16 -7 -27 -17 -25 -21 3 -4 -2 -8 -10 -8 -8 0 -18 -5 -22
-12 -5 -7 -2 -8 7 -3 8 4 1 -7 -16 -25 -16 -18 -24 -30 -17 -26 6 4 12 2 12
-3 0 -6 -6 -11 -14 -11 -8 0 -18 -5 -22 -12 -5 -7 -2 -9 9 -5 11 4 14 2 11 -8
-3 -8 -13 -11 -21 -8 -11 4 -14 2 -9 -5 4 -7 2 -12 -4 -12 -6 0 -8 -5 -5 -10
3 -6 0 -13 -8 -16 -8 -3 -14 -13 -13 -22 2 -9 -3 -23 -11 -30 -7 -8 -11 -18
-8 -23 4 -5 3 -9 -2 -9 -4 0 -13 -11 -20 -25 -8 -19 -8 -23 0 -18 7 3 3 -3 -7
-15 -14 -17 -16 -22 -5 -22 8 -1 4 -6 -9 -13 -12 -7 -20 -16 -17 -19 4 -3 -6
-25 -20 -49 -15 -23 -28 -49 -30 -58 -1 -9 -8 -15 -15 -13 -6 1 -8 -3 -4 -9 3
-6 0 -15 -7 -20 -12 -8 -12 -10 0 -18 11 -7 10 -11 -7 -20 -14 -7 -18 -17 -15
-31 3 -11 0 -20 -6 -20 -6 0 -11 -9 -11 -19 0 -11 -7 -26 -15 -34 -8 -8 -11
-17 -8 -21 4 -3 1 -6 -6 -6 -7 0 -9 -4 -6 -10 3 -5 1 -10 -6 -10 -8 0 -8 -4 1
-15 11 -13 10 -14 -5 -9 -13 5 -16 4 -11 -4 4 -7 3 -12 -2 -12 -9 0 -11 -6
-14 -62 -2 -27 -6 -34 -15 -26 -9 7 -11 4 -8 -13 3 -13 -1 -27 -8 -31 -9 -6
-9 -8 0 -8 8 0 7 -9 -3 -30 -9 -16 -13 -34 -9 -39 3 -6 -4 -15 -15 -21 -17 -9
-18 -14 -9 -32 8 -15 8 -18 0 -14 -7 5 -11 -3 -11 -19 0 -14 -4 -24 -8 -21 -4
2 -8 -4 -8 -14 0 -10 4 -16 8 -14 4 3 5 -2 2 -10 -3 -9 -11 -13 -18 -9 -6 4
-4 -2 4 -12 9 -11 10 -16 3 -11 -13 7 -17 -4 -14 -33 2 -7 -1 -20 -5 -30 -7
-17 -10 -27 -12 -49 -1 -7 -6 -11 -10 -8 -5 3 -24 -9 -42 -27 -19 -18 -30 -26
-25 -18 6 10 4 12 -4 7 -7 -5 -10 -15 -7 -23 3 -8 2 -12 -2 -9 -4 2 -25 -16
-47 -41 -87 -98 -136 -144 -147 -137 -6 4 -8 3 -5 -3 7 -11 -130 -83 -161 -86
-23 -1 -73 -47 -52 -47 13 0 13 -2 0 -10 -13 -8 -12 -12 4 -27 19 -17 19 -17
7 0 -12 15 -12 17 3 11 9 -3 16 -10 16 -16 0 -5 5 -6 10 -3 6 3 10 0 10 -7 0
-10 3 -9 11 2 9 13 10 12 5 -2 -7 -22 4 -54 13 -39 4 6 15 -3 25 -21 11 -17
14 -28 7 -24 -6 4 -11 0 -11 -10 0 -28 -50 -66 -87 -67 -7 0 -13 -6 -13 -14 0
-7 -4 -13 -10 -13 -5 0 -10 -5 -10 -11 0 -5 5 -7 10 -4 6 3 10 -3 10 -14 0
-15 5 -19 18 -15 14 5 14 4 -2 -6 -15 -10 -20 -9 -27 1 -6 9 -9 10 -9 2 0 -6
7 -19 16 -27 14 -14 14 -16 0 -16 -10 0 -13 -6 -9 -17 4 -11 3 -14 -5 -9 -8 5
-10 2 -6 -8 3 -9 2 -16 -4 -16 -5 0 -9 -12 -9 -27 0 -14 -9 -32 -19 -40 -10
-7 -13 -13 -5 -13 10 0 10 -3 -1 -15 -29 -33 -34 -41 -30 -53 2 -6 -3 -15 -12
-18 -9 -3 -14 -10 -11 -14 2 -4 -6 -19 -20 -34 -13 -14 -22 -26 -19 -26 6 0
-28 -53 -41 -62 -6 -5 -5 -12 5 -19 13 -10 13 -10 0 -6 -8 2 -23 -6 -33 -19
-17 -23 -17 -23 0 -19 10 3 8 0 -4 -6 -13 -7 -25 -20 -28 -30 -4 -11 -11 -19
-16 -19 -5 0 -9 -5 -9 -11 0 -6 -20 -31 -44 -54 -24 -24 -46 -50 -49 -59 -4
-9 -11 -16 -17 -16 -5 0 -10 -6 -10 -14 0 -8 -13 -25 -28 -38 -16 -13 -28 -32
-26 -42 2 -14 0 -15 -12 -5 -11 9 -14 8 -14 -5 0 -9 -4 -16 -10 -16 -5 0 -10
-7 -10 -15 0 -8 -4 -15 -10 -15 -5 0 -6 -8 -3 -17 5 -13 2 -15 -11 -10 -9 4
-15 3 -11 -2 3 -5 -1 -16 -9 -24 -11 -10 -12 -17 -4 -25 9 -9 6 -10 -10 -7
-12 2 -21 1 -21 -3 4 -25 -3 -34 -22 -29 -16 4 -18 3 -8 -9 6 -8 9 -15 5 -15
-3 -1 -12 -2 -18 -3 -7 -1 -12 -7 -11 -14 2 -7 -3 -12 -11 -12 -7 0 -21 -11
-29 -24 -35 -53 -131 -83 -156 -49 -6 7 -24 11 -78 15 -13 1 -23 6 -23 11 0 4
-10 5 -21 2 -12 -4 -19 -3 -16 2 5 8 -40 24 -105 39 -5 1 -9 3 -10 4 -3 3 -44
10 -68 12 -8 0 -19 4 -25 8 -5 4 -19 6 -30 4 -10 -1 -25 2 -31 7 -8 7 -14 7
-18 0 -8 -12 -43 -6 -64 11 -14 11 -15 10 -8 -6 7 -19 6 -19 -14 -1 -11 10
-23 15 -27 12 -3 -4 -12 -2 -20 4 -10 9 -13 8 -13 -1 0 -7 -9 -2 -21 11 -11
13 -18 18 -14 12 3 -7 1 -13 -4 -13 -6 0 -11 6 -11 13 0 7 -3 8 -8 2 -8 -12
-92 -14 -92 -2 0 4 -8 3 -18 -2 -13 -7 -23 -6 -30 1 -7 7 -12 8 -12 2 0 -11
-75 -12 -86 -2 -3 4 -14 4 -23 0 -9 -5 -34 -7 -56 -7 -22 1 -49 -3 -59 -8 -10
-5 -42 -10 -70 -12 -44 -2 -85 -9 -93 -15 -2 -2 -8 -3 -13 -4 -6 0 -15 -7 -19
-15 -5 -7 -13 -11 -18 -8 -6 4 -20 -6 -33 -20 -17 -20 -25 -23 -28 -14 -3 10
-9 7 -19 -10 -8 -13 -12 -17 -10 -8 5 14 2 15 -18 5 -13 -6 -21 -14 -19 -18 3
-5 0 -9 -5 -9 -6 -1 -14 -2 -18 -4 -54 -14 -61 -18 -57 -30 4 -10 -1 -12 -15
-8 -12 3 -28 0 -36 -7 -8 -7 -21 -10 -30 -6 -8 3 -14 2 -14 -2 3 -21 -3 -31
-16 -26 -8 4 -15 2 -15 -3 0 -5 -9 -9 -20 -10 -11 -1 -27 -9 -36 -17 -8 -9
-22 -16 -30 -16 -8 0 -14 -5 -14 -11 0 -5 -5 -7 -10 -4 -6 3 -10 1 -10 -4 0
-6 -7 -11 -15 -11 -8 0 -15 -5 -15 -11 0 -5 -4 -8 -9 -4 -6 3 -20 -5 -32 -17
-12 -13 -19 -16 -15 -8 4 8 0 6 -8 -4 -9 -11 -16 -16 -16 -11 0 4 -9 0 -20
-10 -11 -10 -20 -14 -20 -10 0 5 -14 -4 -32 -21 -17 -16 -28 -23 -23 -15 5 9
3 12 -6 9 -8 -3 -13 -10 -12 -16 2 -7 -5 -9 -15 -5 -9 3 -14 3 -10 -1 11 -13
-26 -42 -46 -37 -15 3 -18 0 -13 -12 4 -12 2 -14 -10 -10 -12 5 -15 2 -10 -10
4 -11 1 -15 -14 -12 -13 3 -21 -3 -25 -20 -3 -13 -13 -26 -21 -29 -10 -4 -13
-14 -10 -27 5 -17 3 -18 -9 -8 -12 10 -13 9 -8 -5 4 -10 0 -18 -10 -22 -9 -3
-13 -10 -10 -15 3 -5 1 -9 -4 -9 -9 0 -25 -37 -23 -52 1 -5 -4 -8 -9 -8 -6 0
-10 -8 -8 -17 2 -10 -2 -17 -9 -16 -7 2 -10 -6 -8 -17 2 -11 0 -20 -5 -20 -5
0 -10 -12 -12 -27 -2 -16 -8 -27 -13 -26 -6 1 -10 -14 -10 -33 1 -19 -3 -34
-8 -34 -5 0 -7 -6 -4 -13 3 -7 -1 -24 -9 -38 -7 -13 -13 -20 -14 -16 0 4 -11
-4 -25 -19 -13 -14 -22 -30 -19 -35 3 -5 1 -9 -4 -9 -11 0 -10 -40 1 -57 5 -8
3 -13 -3 -13 -6 0 -8 -5 -5 -10 4 -6 8 -32 11 -58 6 -70 7 -72 17 -72 6 0 6
-5 0 -12 -5 -7 -9 -39 -8 -70 1 -37 -3 -55 -9 -50 -6 3 -5 -2 3 -11 7 -9 11
-28 9 -42 -3 -15 -1 -22 5 -18 6 4 8 -2 5 -15 -4 -15 -2 -19 8 -15 8 3 11 9 8
14 -3 5 2 6 11 3 14 -6 14 -8 1 -18 -21 -15 -34 -72 -15 -61 12 8 12 6 0 -8
-7 -9 -10 -17 -5 -17 5 0 2 -5 -6 -10 -11 -7 -11 -10 -2 -10 10 0 10 -5 1 -21
-6 -12 -7 -19 -1 -15 14 8 21 -28 10 -48 -6 -10 -5 -16 2 -16 6 0 8 -5 5 -10
-4 -6 -11 -7 -17 -4 -6 4 -5 -3 2 -16 10 -18 9 -21 -1 -15 -9 6 -11 3 -6 -8 4
-10 1 -17 -6 -17 -8 0 -6 -4 3 -10 8 -5 10 -10 4 -10 -11 0 -14 -13 -15 -62
-1 -18 -6 -25 -13 -21 -7 4 -7 1 1 -7 9 -9 9 -19 2 -33 -8 -14 -8 -18 0 -13
18 11 13 -6 -6 -19 -15 -11 -16 -15 -3 -31 9 -10 10 -15 3 -11 -8 5 -15 -1
-19 -18 -3 -14 -11 -25 -18 -25 -6 0 -4 -4 4 -10 13 -8 12 -10 -1 -15 -9 -3
-16 -11 -16 -18 -1 -24 -8 -42 -23 -54 -12 -10 -13 -12 -1 -13 12 0 11 -3 -1
-17 -16 -19 -14 -75 3 -82 6 -1 2 -9 -7 -15 -13 -10 -14 -15 -4 -21 9 -6 11
-4 5 5 -6 9 -4 11 4 5 9 -5 10 -10 2 -18 -14 -14 -14 -47 -1 -47 6 0 9 -3 9
-7 -1 -5 0 -11 1 -15 3 -9 7 -24 9 -34 0 -4 7 -1 15 5 11 9 16 9 22 0 4 -8 3
-9 -4 -5 -7 4 -12 5 -12 2 0 -15 57 -34 73 -25 11 7 17 7 17 0 0 -5 -6 -11
-12 -14 -7 -2 8 -3 34 -3 25 1 46 3 46 6 -1 20 4 30 12 25 6 -4 7 -12 3 -18
-3 -7 3 -4 15 7 12 10 20 23 19 28 -1 6 4 13 12 16 9 3 11 0 6 -9 -5 -8 0 -6
12 4 11 9 23 14 28 10 4 -5 3 2 -4 14 -12 23 2 43 15 22 5 -8 3 -9 -6 -4 -9 6
-11 4 -6 -4 9 -14 18 -8 23 14 2 8 4 22 6 30 2 8 7 18 12 22 4 4 5 2 1 -4 -5
-8 -1 -13 9 -13 12 0 15 5 11 16 -4 11 -2 15 8 11 8 -3 16 2 19 15 4 12 10 17
17 13 9 -5 8 0 -1 16 -11 22 -11 23 5 10 9 -8 16 -10 15 -5 -4 21 2 34 16 34
8 0 15 5 15 11 0 5 -5 7 -12 3 -7 -4 -8 -3 -4 4 4 7 16 12 26 12 10 0 22 5 26
12 4 6 3 8 -3 5 -6 -4 -16 -1 -22 7 -9 11 -6 13 15 10 22 -2 25 1 20 19 -5 22
-5 22 10 2 14 -19 15 -19 10 8 -4 24 -3 27 10 16 12 -10 13 -9 8 6 -5 13 -4
16 4 11 8 -5 10 -1 5 10 -5 14 -3 16 11 11 10 -4 15 -3 11 3 -3 5 4 19 17 32
14 14 17 23 10 26 -7 2 -12 8 -12 13 0 4 7 6 16 2 10 -4 20 1 26 11 5 9 13 14
18 11 10 -6 8 15 -4 33 -4 7 -3 11 3 10 5 -2 16 5 24 16 12 16 14 16 14 2 0
-9 -4 -16 -9 -16 -4 0 -8 -4 -8 -10 0 -19 16 -10 34 20 9 17 22 28 27 24 12
-7 7 18 -6 29 -5 5 0 6 12 2 12 -3 25 -1 29 6 4 7 3 9 -3 6 -5 -3 -10 0 -10 7
0 7 6 13 14 13 7 0 13 -4 13 -9 0 -5 6 -3 14 4 13 11 12 16 0 36 -15 22 -14
23 5 13 16 -9 19 -9 15 2 -3 8 2 22 11 31 15 15 12 21 -8 17 -5 -1 -6 3 -2 9
3 6 11 7 17 4 7 -5 9 -1 5 9 -4 10 -1 17 5 17 6 0 8 3 5 6 -4 4 -14 1 -24 -7
-15 -13 -16 -12 -9 6 5 11 9 29 10 40 1 22 17 45 28 39 3 -2 4 5 1 16 -3 12 0
20 7 20 7 0 5 6 -5 16 -9 9 -19 13 -23 9 -4 -4 -1 -10 6 -12 10 -4 10 -8 1
-19 -6 -8 -8 -14 -4 -14 5 0 0 -9 -10 -20 -21 -23 -30 -54 -13 -44 7 4 8 2 4
-5 -10 -16 -28 -3 -24 17 1 10 -2 24 -7 32 -7 12 -6 13 6 4 24 -20 50 25 29
50 -7 10 -3 16 16 25 14 6 23 7 19 2 -3 -5 -2 -12 2 -14 5 -3 9 13 9 34 1 28
-2 37 -9 30 -6 -6 -15 -11 -21 -11 -5 0 1 8 12 19 12 10 19 21 15 24 -3 4 -12
-1 -19 -11 -12 -16 -13 -16 -15 3 -1 11 -1 23 0 27 0 3 -7 5 -17 3 -9 -1 -22
2 -29 7 -7 6 -15 3 -22 -9 -6 -10 -11 -13 -11 -7 0 16 25 35 36 26 4 -4 2 1
-5 10 -14 19 -26 25 -16 8 3 -5 2 -10 -4 -10 -5 0 -11 5 -13 12 -3 7 -7 5 -11
-6 -5 -12 -3 -15 6 -10 6 4 1 -5 -12 -19 -24 -26 -24 -28 -6 -41 13 -9 15 -15
6 -20 -9 -6 -9 -11 0 -22 9 -11 7 -14 -10 -14 -12 0 -20 4 -17 9 5 7 -15 21
-30 21 -15 0 37 -41 54 -43 16 -1 18 -4 11 -14 -9 -10 -16 -9 -37 3 -25 15
-25 15 -8 0 11 -9 17 -18 14 -21 -10 -10 -41 35 -43 62 -1 16 5 36 13 46 20
22 26 57 10 57 -6 0 -8 3 -5 7 4 3 2 13 -5 20 -9 11 -9 17 3 24 10 6 10 9 2
10 -28 3 -32 4 -40 13 -4 5 -4 7 2 4 6 -3 15 0 21 7 14 14 -30 44 -59 40 -9
-2 -15 1 -11 6 3 5 9 7 14 4 4 -3 15 6 24 19 10 16 23 23 39 22 19 -2 23 1 21
24 -1 19 3 26 17 27 11 1 19 -3 19 -8 0 -6 -5 -7 -12 -3 -7 4 -8 3 -4 -4 4 -6
14 -8 23 -5 11 4 14 3 9 -6 -7 -11 22 -27 39 -21 4 1 14 -7 23 -17 20 -22 59
-29 42 -7 -10 11 -6 12 18 5 16 -5 35 -5 42 -1 7 5 19 6 27 3 7 -3 19 -1 26 5
20 15 49 11 42 -7 -4 -14 -4 -14 8 -1 15 18 37 24 37 10 0 -6 5 -10 11 -10 5
0 7 5 4 10 -3 6 -1 10 5 10 6 0 8 5 4 12 -4 7 -3 8 5 4 6 -4 9 -11 7 -14 -6
-9 41 -8 51 1 11 12 25 8 17 -5 -4 -7 2 -5 13 5 16 14 23 15 29 6 5 -8 3 -10
-6 -4 -9 6 -11 4 -5 -5 6 -10 11 -10 20 3 12 17 51 25 41 9 -3 -5 1 -9 9 -9 8
0 12 4 9 9 -3 4 21 8 53 8 41 0 54 -3 43 -10 -8 -5 -11 -10 -7 -10 5 0 22 9
37 20 l28 20 -4 -22 c-2 -13 -2 -17 2 -10 7 16 66 16 83 0 11 -10 13 -10 7 0
-5 8 0 12 13 12 11 0 22 4 25 8 3 5 22 9 42 10 20 1 42 7 50 13 8 6 20 9 28 6
10 -4 13 -1 10 7 -3 8 4 16 19 20 13 3 29 17 36 32 6 15 14 24 17 21 3 -3 1
-16 -6 -29 -10 -21 -10 -21 3 -5 11 14 16 15 21 5 3 -7 3 -1 -1 15 -4 21 -2
26 10 21 8 -3 18 0 22 5 3 6 12 8 18 5 7 -4 9 -4 5 1 -4 4 -1 14 7 21 17 17
29 18 19 2 -5 -7 -3 -8 5 -4 7 5 10 13 8 20 -3 7 5 12 22 13 35 1 71 13 71 24
0 5 7 9 16 9 9 0 12 5 8 13 -5 8 -2 7 9 -2 15 -12 17 -12 10 4 -5 15 -3 17 11
12 20 -8 59 15 49 29 -4 5 -1 3 7 -4 18 -16 33 -16 24 1 -5 9 -4 9 6 0 14 -13
43 -6 34 9 -4 6 2 5 14 -1 17 -9 24 -6 46 20 14 17 26 34 26 39 0 5 7 16 16
25 15 14 17 14 31 -2 8 -10 11 -12 7 -4 -9 18 16 32 38 20 22 -12 47 -1 27 12
-8 5 -9 9 -3 9 18 0 24 -13 13 -27 -8 -9 -8 -13 -1 -13 6 0 14 5 17 10 3 6 11
10 16 10 6 0 8 -4 5 -9 -3 -5 1 -11 9 -14 9 -4 12 -1 8 9 -3 7 0 14 6 14 6 0
10 -3 10 -7 -3 -21 2 -34 11 -28 6 4 8 11 5 16 -3 5 1 6 10 3 10 -4 15 -2 13
6 -2 8 8 19 21 26 23 12 23 12 4 23 -25 13 -25 53 0 57 9 1 15 -2 11 -7 -3 -5
-9 -7 -14 -4 -5 3 -8 -4 -7 -15 2 -24 6 -25 22 -3 9 13 14 13 20 3 5 -8 4 -11
-2 -7 -6 4 -13 1 -16 -7 -6 -15 36 -50 47 -38 4 3 -3 11 -15 17 -19 11 -19 13
-5 18 10 4 15 3 11 -3 -6 -9 7 -14 27 -11 4 0 4 -7 1 -16 -4 -11 -3 -14 5 -9
7 4 15 0 19 -9 3 -10 0 -21 -8 -26 -8 -5 -10 -9 -5 -9 5 0 3 -7 -4 -15 -7 -9
-19 -14 -27 -11 -8 3 -12 2 -8 -3 3 -5 -1 -12 -7 -14 -8 -3 -5 -6 5 -6 10 -1
32 13 49 29 29 29 55 32 44 4 -3 -7 -1 -16 4 -19 10 -6 15 10 10 30 -15 60 2
81 36 42 12 -14 25 -23 29 -19 4 4 3 -2 -2 -13 -6 -11 -13 -27 -17 -35 -3 -8
-4 -2 0 15 5 29 5 29 -15 11 -21 -19 -29 -42 -11 -31 6 3 10 1 10 -4 0 -6 -5
-11 -12 -11 -6 0 -3 -9 7 -20 10 -11 15 -20 10 -20 -16 0 -63 64 -57 79 5 14
3 14 -11 2 -10 -8 -15 -16 -12 -19 3 -3 -1 -12 -8 -20 -10 -13 -8 -14 13 -8
17 5 20 4 12 -2 -11 -7 -8 -11 9 -15 13 -4 20 -9 17 -12 -3 -4 -20 1 -37 9
-37 20 -47 20 -32 2 8 -10 9 -16 1 -21 -6 -4 -9 -1 -8 6 2 7 -3 14 -9 15 -7 1
-16 2 -21 3 -4 0 -13 10 -20 22 -8 12 -9 18 -3 14 6 -3 11 1 11 10 0 9 6 15
13 14 24 -3 38 1 32 10 -3 5 -1 12 5 16 16 10 12 21 -9 22 -14 1 -18 -4 -15
-20 l5 -22 -10 21 c-5 12 -14 24 -19 27 -13 9 -53 -4 -46 -15 3 -5 13 -7 21
-4 36 14 34 -9 -3 -42 -21 -19 -31 -32 -22 -28 11 3 21 -2 28 -14 8 -16 8 -18
-5 -14 -8 3 -12 10 -9 15 3 5 -1 6 -9 3 -21 -8 -30 11 -11 26 15 13 4 30 -21
30 -5 0 -4 -4 4 -9 9 -6 10 -11 2 -15 -6 -4 -11 -1 -11 6 0 9 -3 9 -10 -2 -6
-10 -10 -11 -10 -2 0 6 -5 12 -11 12 -5 0 -8 -4 -5 -8 3 -5 -1 -9 -9 -9 -10 0
-12 4 -5 12 11 14 -14 30 -31 20 -5 -3 -17 -1 -28 5 -14 7 -22 7 -27 -2 -4 -7
-3 -8 4 -4 7 4 12 2 12 -4 0 -6 4 -9 8 -6 5 3 20 -2 33 -12 13 -9 33 -17 44
-17 14 0 19 -6 17 -20 -2 -15 -1 -17 6 -6 8 12 13 11 31 -1 11 -8 18 -18 13
-23 -4 -5 -1 -5 5 -1 17 9 50 -8 34 -18 -14 -9 -14 -26 0 -26 5 0 8 3 6 8 -3
4 2 13 10 21 13 12 14 11 8 -8 -4 -15 -3 -21 7 -19 7 2 14 -7 16 -19 2 -13 8
-23 13 -23 6 0 7 -9 4 -21 -6 -19 -5 -20 8 -8 8 8 12 19 9 24 -3 6 4 2 15 -8
11 -9 22 -15 25 -12 2 3 5 -2 5 -10 0 -13 -3 -13 -19 2 -10 9 -18 11 -18 6 0
-6 7 -14 16 -17 8 -3 13 -10 10 -15 -3 -5 4 -7 16 -3 18 4 20 2 16 -15 -5 -17
-1 -21 18 -18 13 1 22 -3 21 -9 -1 -6 3 -10 10 -9 7 2 10 -6 8 -18 -5 -25 4
-51 16 -43 5 3 6 -2 3 -10 -3 -9 -1 -16 6 -16 6 0 9 -4 5 -9 -3 -5 1 -16 9
-24 8 -8 12 -17 9 -21 -4 -3 -1 -6 5 -6 6 0 13 -13 17 -29 3 -16 16 -37 28
-47 22 -19 22 -19 4 2 -14 17 -14 21 -2 21 8 0 12 -4 9 -8 -2 -4 0 -10 6 -14
7 -4 6 -14 -2 -28 -10 -19 -9 -20 3 -10 12 10 14 6 13 -23 -1 -19 2 -37 7 -40
5 -3 7 -10 4 -15 -4 -5 0 -12 8 -15 8 -3 13 -16 11 -30 -1 -13 1 -22 5 -20 4
3 15 -4 24 -14 11 -13 12 -20 4 -24 -7 -2 -5 -5 5 -5 18 -1 33 -34 23 -51 -3
-5 1 -10 10 -10 9 0 13 -5 10 -10 -4 -6 -11 -8 -16 -5 -5 3 -6 -1 -3 -10 5
-13 9 -13 23 -3 14 11 14 11 4 -3 -7 -9 -9 -20 -5 -24 4 -5 0 -6 -8 -3 -11 4
-16 -1 -17 -15 -1 -11 -12 -34 -24 -50 -12 -17 -15 -27 -8 -23 8 4 4 -1 -8
-12 -12 -11 -20 -22 -17 -24 7 -7 -59 -76 -76 -80 -8 -2 -21 -11 -28 -21 -7
-9 -27 -24 -43 -32 -17 -9 -27 -21 -23 -27 4 -7 3 -8 -5 -4 -6 4 -14 0 -17 -9
-4 -10 -14 -15 -25 -12 -10 3 -18 2 -17 -2 2 -21 -4 -29 -22 -26 -11 2 -18 0
-15 -6 4 -5 1 -9 -5 -9 -6 0 -8 -5 -4 -12 5 -8 2 -9 -10 -5 -9 4 -15 3 -12 -2
3 -4 -3 -17 -14 -29 -14 -14 -16 -22 -7 -25 7 -3 4 -6 -6 -6 -10 -1 -16 -5
-12 -10 3 -5 0 -13 -6 -16 -5 -4 -8 -13 -5 -21 3 -8 2 -13 -2 -12 -4 1 -17 -3
-29 -10 -13 -7 -23 -10 -23 -6 0 3 -6 1 -13 -5 -8 -6 -17 -8 -20 -4 -4 3 -7 1
-7 -6 0 -7 -4 -9 -10 -6 -5 3 -10 -1 -10 -10 0 -9 -4 -14 -9 -10 -5 3 -24 -8
-42 -25 -19 -16 -30 -30 -26 -30 4 0 -6 -14 -23 -30 -17 -17 -25 -30 -18 -30
7 -1 0 -8 -15 -16 -15 -8 -25 -20 -21 -26 4 -6 -4 -20 -17 -30 -13 -11 -18
-16 -10 -12 12 6 -12 -49 -29 -66 -23 -23 -34 -43 -20 -36 8 4 6 0 -5 -8 -11
-9 -20 -29 -21 -44 -1 -15 -6 -26 -12 -25 -11 3 -11 -15 2 -35 4 -7 5 -16 2
-19 -3 -4 -6 0 -7 8 0 8 -4 5 -8 -6 -5 -11 -4 -31 1 -44 8 -22 7 -23 -9 -10
-15 12 -16 12 -11 -2 4 -9 1 -22 -5 -29 -9 -10 -9 -11 3 -5 13 8 13 6 2 -7
-10 -13 -10 -17 0 -21 8 -3 6 -6 -5 -6 -10 -1 -15 -6 -12 -11 4 -6 2 -17 -5
-25 -9 -10 -7 -16 7 -24 10 -6 13 -11 7 -11 -7 0 -15 -7 -18 -16 -3 -8 -2 -13
2 -10 5 3 9 -1 9 -9 0 -8 -4 -12 -8 -10 -4 3 -9 -2 -13 -10 -3 -8 0 -17 6 -21
7 -5 8 -2 3 6 -6 9 -4 11 4 6 9 -6 8 -13 -5 -27 -15 -17 -16 -19 -2 -14 17 7
19 -9 5 -32 -5 -8 -4 -13 2 -13 6 0 11 -5 11 -11 0 -6 -7 -9 -14 -6 -10 4 -13
1 -9 -9 3 -7 10 -14 16 -14 6 0 3 -6 -7 -13 -16 -12 -16 -14 -2 -26 15 -13 15
-15 1 -32 -15 -16 -15 -18 2 -28 12 -7 13 -10 4 -11 -9 0 -10 -4 -4 -12 6 -7
9 -21 8 -31 -2 -10 1 -14 8 -10 6 4 8 0 4 -10 -3 -10 -2 -17 3 -17 6 0 10 -7
10 -16 0 -8 4 -13 9 -9 6 3 8 -4 6 -15 -2 -11 2 -25 8 -32 7 -7 13 -20 13 -28
3 -37 10 -56 24 -67 8 -7 11 -13 7 -13 -5 0 -1 -7 8 -16 9 -10 14 -25 12 -36
-3 -10 -2 -16 3 -13 7 4 19 -13 25 -35 8 -31 18 -50 26 -50 6 0 7 -4 4 -10 -3
-5 -1 -10 5 -10 6 0 8 -4 5 -10 -3 -5 -2 -10 3 -10 9 0 47 -70 44 -82 -1 -4 7
-10 18 -13 11 -4 17 -12 13 -21 -3 -7 0 -14 7 -14 6 0 8 -4 5 -10 -3 -5 1 -10
9 -10 9 0 16 -5 16 -10 0 -11 1 -11 95 -111 33 -34 59 -67 57 -72 -1 -4 2 -6
7 -3 5 4 16 0 24 -8 8 -8 17 -12 21 -9 3 4 6 -1 6 -11 0 -9 4 -14 10 -11 5 3
10 1 10 -4 0 -6 4 -11 10 -11 15 0 59 -48 51 -57 -3 -4 1 -2 10 5 18 14 30 6
22 -14 -3 -9 2 -14 17 -14 11 0 19 -3 17 -7 -3 -5 7 -17 22 -28 21 -15 23 -16
12 -2 -12 15 -12 17 3 11 9 -3 16 -10 16 -15 0 -18 24 -36 41 -32 10 3 22 -3
28 -15 6 -11 20 -22 31 -25 11 -3 18 -2 16 2 -3 4 4 7 14 7 14 0 16 -3 8 -13
-10 -12 -4 -17 15 -14 4 0 7 -4 7 -10 0 -8 4 -8 15 1 12 10 13 8 10 -10 -3
-18 -2 -20 10 -10 12 10 16 9 21 -4 3 -9 17 -16 31 -16 13 0 22 -4 19 -9 -3
-5 3 -11 14 -14 11 -3 20 -1 20 5 0 5 6 6 13 1 24 -15 43 -11 71 15 l29 27
-16 -25 c-16 -24 -15 -26 3 -27 11 -1 20 3 20 8 0 6 -6 7 -12 3 -10 -5 -10 -4
-1 6 13 14 37 4 27 -12 -4 -7 -2 -8 5 -4 6 4 8 12 5 18 -4 5 4 3 17 -6 15 -9
29 -12 38 -7 17 11 42 4 59 -17 8 -11 12 -12 12 -3 0 7 6 9 13 6 6 -4 3 1 -7
9 -11 9 -15 16 -9 16 7 0 18 -7 27 -15 8 -8 21 -15 28 -15 10 0 9 3 -2 10 -12
7 -10 9 7 7 12 0 20 -4 17 -8 -2 -4 0 -10 6 -14 5 -3 10 2 10 12 0 15 2 15 9
3 6 -8 7 -19 3 -25 -3 -5 2 -4 12 4 14 12 19 12 29 1 10 -10 9 -11 -2 -5 -8 5
-12 4 -8 -1 3 -5 24 -9 46 -7 26 1 41 -2 41 -10 0 -7 4 -6 10 3 8 12 12 12 19
2 12 -20 45 -21 53 -3 5 12 7 11 7 -6 1 -26 11 -29 30 -10 7 6 11 8 9 2 -2 -5
-1 -10 2 -10 3 0 16 -8 29 -17 13 -9 30 -14 39 -11 11 5 13 3 7 -7 -6 -10 -4
-12 8 -7 10 3 17 2 17 -4 0 -6 5 -7 10 -4 6 3 10 2 10 -2 0 -5 15 -10 33 -11
17 -2 33 -7 35 -12 2 -5 10 -6 19 -3 9 4 14 2 10 -3 -3 -6 7 -9 24 -8 20 1 29
-2 26 -10 -3 -7 7 -11 29 -10 22 1 37 -4 44 -15 8 -13 9 -13 10 -1 0 13 1 13
10 0 5 -8 12 -11 15 -8 4 4 18 3 32 -3 13 -5 22 -5 19 -1 -3 5 1 9 9 9 8 0 12
-4 9 -9 -3 -4 -1 -8 5 -8 5 0 13 5 16 10 9 14 27 1 18 -13 -3 -7 3 -4 14 6 21
18 21 18 26 0 4 -16 5 -16 6 1 1 20 1 20 17 0 8 -10 13 -14 10 -7 -4 6 -2 14
4 18 5 3 10 1 10 -6 0 -6 8 -3 18 8 9 10 13 14 9 7 -4 -7 -3 -15 3 -19 5 -3
10 -1 10 5 0 6 5 8 12 4 6 -4 8 -3 5 3 -4 6 0 14 9 17 8 3 13 2 10 -2 -3 -4 5
-14 17 -22 20 -12 21 -12 9 3 -9 10 -10 17 -2 22 5 3 10 2 10 -4 0 -15 40 -4
57 16 11 13 11 11 -1 -9 -14 -24 -14 -27 -1 -22 8 4 15 11 15 18 0 7 4 6 9 -3
6 -9 11 -10 15 -2 4 6 12 9 17 5 5 -3 6 -10 3 -16 -4 -7 -2 -8 5 -4 6 4 9 12
6 17 -4 5 -1 9 4 9 6 0 11 -6 12 -12 1 -7 5 -2 9 12 8 24 8 24 9 3 1 -13 6
-23 12 -23 5 0 7 6 3 13 -6 9 -5 9 7 0 11 -9 19 -9 26 -2 8 8 13 8 17 0 5 -8
13 -8 28 0 11 6 18 7 14 1 -3 -6 11 -9 36 -8 23 1 44 8 46 15 3 8 8 7 17 -6
13 -17 13 -17 12 1 -1 11 5 20 16 21 9 2 15 -1 12 -5 -3 -5 0 -12 6 -16 8 -4
9 -3 5 4 -4 7 -2 12 4 12 6 0 9 4 6 8 -2 4 5 9 17 9 15 2 18 0 9 -6 -11 -7
-10 -10 3 -14 9 -4 14 -3 11 1 -2 4 -1 14 5 22 7 12 9 11 10 -5 0 -11 3 -14 6
-7 4 10 8 10 19 1 8 -6 14 -8 14 -4 0 4 7 2 15 -5 13 -11 14 -10 10 3 -4 8 -2
18 4 22 6 3 11 -1 11 -11 0 -16 1 -16 16 2 13 16 15 16 10 2 -4 -15 -2 -16 14
-6 10 7 16 17 12 23 -3 5 1 5 9 -2 8 -6 19 -13 24 -15 6 -1 9 -7 7 -11 -1 -5
2 -6 8 -2 6 3 8 11 5 16 -4 5 -1 9 4 9 6 0 11 -4 11 -9 0 -10 21 -8 54 5 15 6
17 4 11 -7 -8 -12 -6 -12 8 0 14 11 20 11 35 0 9 -7 14 -9 10 -5 -5 5 1 16 12
23 11 8 17 20 14 26 -4 7 -3 8 1 4 11 -10 16 -39 6 -32 -4 2 -8 -2 -8 -10 0
-13 3 -13 17 0 22 20 31 19 24 -3 -5 -16 -5 -16 6 1 6 9 9 21 6 25 -3 5 1 9 8
9 8 0 12 -6 10 -12 -3 -6 2 -12 10 -12 8 0 13 4 10 9 -3 4 0 8 5 8 6 0 11 -6
11 -12 0 -10 3 -9 9 1 7 11 11 10 20 -5 7 -13 10 -14 11 -5 0 8 3 11 7 7 4 -3
13 4 21 16 7 13 11 15 8 6 -3 -10 -3 -18 1 -18 3 0 12 8 20 18 8 9 12 11 8 5
-4 -8 1 -13 14 -13 10 0 22 -6 25 -12 4 -7 4 -3 2 10 -4 19 -2 21 10 11 8 -6
17 -9 21 -6 3 4 12 2 20 -4 10 -9 13 -8 13 1 0 9 4 9 17 -1 14 -12 15 -12 9 0
-7 10 -3 12 14 6 17 -5 21 -4 15 6 -6 11 -5 12 6 1 15 -13 33 -17 25 -4 -3 5
8 8 25 8 17 0 29 -5 29 -13 0 -16 16 -17 26 -1 5 7 3 8 -6 3 -8 -5 -11 -4 -6
3 4 6 13 9 21 5 11 -4 14 0 9 13 -5 15 -4 16 4 4 8 -10 8 -18 0 -27 -6 -8 -8
-16 -4 -20 3 -3 6 -1 6 5 0 8 19 12 51 12 37 0 49 3 44 13 -3 6 0 5 6 -4 11
-15 16 -15 47 -2 31 13 34 13 29 -1 -4 -10 -1 -13 8 -9 8 3 12 10 8 17 -4 6 2
4 12 -4 11 -9 16 -10 11 -2 -4 6 -2 12 3 12 6 0 11 -4 11 -10 0 -5 5 -10 11
-10 5 0 8 4 5 9 -3 5 0 14 8 20 17 14 50 -14 39 -32 -4 -7 0 -6 10 1 9 8 22
10 28 6 8 -4 9 -3 5 4 -4 7 -2 12 3 12 6 0 11 -4 11 -8 0 -5 7 -9 15 -9 8 0
12 4 9 9 -3 4 0 8 5 8 6 0 11 -4 11 -10 0 -5 7 -10 15 -10 8 0 15 5 15 11 0 5
-4 8 -8 5 -5 -3 -9 2 -9 11 0 13 3 13 16 -3 21 -26 48 -36 57 -22 5 7 2 8 -7
3 -8 -5 -5 1 5 13 21 25 36 31 16 7 -9 -10 -9 -15 -1 -15 6 0 10 -5 9 -11 -2
-6 5 -13 15 -14 9 -2 17 1 17 7 0 6 -8 7 -17 3 -16 -5 -16 -5 -3 7 8 7 21 20
28 28 12 13 13 12 10 -5 -2 -14 3 -21 20 -23 12 -2 22 -8 22 -13 0 -5 5 -9 11
-9 5 0 8 4 4 9 -3 5 0 13 6 17 7 4 9 3 6 -2 -3 -6 -2 -16 4 -24 7 -12 9 -10 9
6 0 28 28 40 37 16 10 -26 27 -39 42 -34 8 3 11 0 8 -5 -3 -5 0 -10 8 -10 10
0 12 4 5 12 -5 7 -6 15 -2 19 4 4 7 13 7 19 0 5 7 12 15 14 13 4 13 3 0 -6 -8
-6 -11 -11 -6 -11 5 0 3 -7 -4 -15 -15 -18 1 -20 19 -3 11 10 13 10 7 1 -4 -7
-3 -13 3 -13 6 0 17 12 25 28 8 15 15 22 16 17 0 -6 -7 -20 -15 -32 -11 -16
-12 -24 -4 -29 8 -4 9 -3 5 5 -5 8 2 10 26 7 18 -3 27 -3 20 0 -6 3 -9 10 -6
15 3 6 12 5 22 -3 14 -10 15 -10 5 2 -16 18 -17 34 -1 24 7 -4 8 -3 4 4 -5 8
0 12 13 12 12 0 21 4 21 10 0 5 8 7 18 4 15 -5 15 -4 2 6 -13 10 -11 11 8 7
12 -3 22 -1 22 3 0 19 -19 19 -44 -1 -14 -11 -30 -18 -35 -15 -5 4 -11 1 -13
-6 -2 -6 -12 -12 -21 -14 -9 -1 -15 2 -11 7 3 5 9 7 14 4 4 -3 11 2 14 11 10
25 7 27 -11 13 -16 -13 -17 -12 -4 3 14 19 1 48 -22 48 -7 0 -7 -4 1 -12 15
-15 15 -28 1 -28 -5 0 -8 4 -4 9 3 6 -5 15 -17 22 -37 20 -48 37 -52 79 0 8 5
14 12 12 6 -1 12 2 12 8 0 5 5 10 11 10 8 0 8 -5 -1 -15 -11 -13 -9 -15 11
-13 17 2 24 -2 23 -14 -1 -9 5 -19 13 -22 19 -8 14 34 -7 52 -9 8 -2 7 18 -3
31 -15 45 -30 19 -19 -9 3 -12 -4 -11 -23 1 -16 7 -27 13 -25 7 1 10 -2 6 -8
-3 -5 -1 -10 6 -10 7 0 9 -3 6 -7 -4 -3 -16 2 -27 12 -11 10 -20 13 -20 7 0
-6 8 -17 19 -24 18 -13 21 -18 21 -38 0 -5 5 -10 11 -10 6 0 8 9 4 20 -4 12
-2 20 5 20 6 0 8 -4 5 -10 -10 -16 12 -11 31 7 15 15 18 15 28 1 10 -14 13
-13 23 8 8 18 8 26 -3 35 -13 10 -18 6 -15 -13 0 -5 -3 -8 -7 -8 -5 0 -8 18
-8 39 0 22 4 37 8 35 4 -3 4 -12 1 -22 -4 -14 -3 -13 10 3 14 18 13 50 -2 40
-4 -2 -8 2 -8 9 0 11 4 12 18 3 14 -9 22 -8 31 1 11 11 10 12 -5 6 -12 -4 -17
-2 -15 7 2 7 -3 14 -9 15 -26 3 -27 6 -8 14 17 7 17 9 3 9 -10 1 -18 6 -18 12
0 5 5 7 12 3 7 -4 8 -3 4 5 -10 15 -29 3 -22 -15 3 -8 1 -14 -4 -14 -6 0 -9
-5 -8 -11 2 -6 -3 -13 -10 -14 -7 -2 -8 -1 -2 2 6 3 4 11 -5 20 -8 8 -13 19
-10 24 4 5 2 9 -3 9 -6 0 -12 7 -16 15 -6 17 18 44 36 41 27 -6 48 -18 43 -26
-3 -5 1 -7 7 -6 13 2 18 8 18 27 0 5 -4 7 -10 4 -5 -3 -10 -2 -10 4 0 5 6 12
13 14 7 4 6 6 -5 6 -9 1 -19 -5 -21 -11 -3 -7 -6 -3 -6 10 -1 15 3 21 11 16 7
-4 8 -3 4 5 -4 6 -11 9 -16 6 -5 -3 -11 -1 -15 5 -3 5 -14 10 -25 10 -10 0
-21 8 -24 17 -6 14 -9 15 -15 4 -5 -7 -11 -9 -14 -4 -7 11 -67 5 -67 -7 0 -5
-12 -7 -26 -5 -16 1 -24 -2 -21 -10 3 -6 -1 -12 -9 -12 -9 0 -13 6 -9 15 4 12
3 13 -9 3 -8 -7 -30 -14 -48 -16 -18 -2 -37 -4 -41 -4 -5 -1 -5 -6 -1 -13 5
-7 3 -8 -7 -3 -21 13 -64 10 -61 -4 1 -8 -2 -9 -10 -4 -7 4 -61 9 -120 9 -95
2 -106 0 -100 -15 5 -13 3 -14 -9 -4 -11 9 -19 9 -26 2 -8 -8 -20 -6 -43 6
-18 9 -29 12 -26 7 4 -6 2 -13 -4 -17 -5 -3 -10 -2 -10 3 0 6 -7 13 -16 16
-15 6 -15 4 -3 -11 13 -17 12 -17 -6 -2 -14 12 -37 16 -80 15 -33 -1 -68 2
-77 6 -9 4 -19 4 -22 -1 -7 -10 -25 -9 -43 2 -6 4 -14 3 -18 -3 -4 -7 -12 -7
-26 0 -14 8 -19 7 -19 -1 0 -8 -4 -8 -15 1 -11 9 -15 9 -15 1 0 -7 -5 -9 -10
-6 -11 7 -51 16 -85 19 -11 1 -26 -3 -34 -8 -12 -9 -13 -8 -7 3 6 9 5 12 -5 9
-8 -3 -22 -1 -33 4 -11 6 -16 6 -13 1 4 -5 0 -10 -8 -10 -8 0 -12 4 -10 8 3 3
-4 9 -15 12 -13 3 -18 1 -13 -6 4 -7 -1 -6 -10 2 -9 7 -17 10 -17 7 0 -4 -8
-2 -19 3 -10 6 -21 7 -25 4 -10 -10 -46 -11 -46 -1 0 4 -5 8 -11 8 -5 0 -7 -5
-4 -10 3 -6 1 -10 -4 -10 -6 0 -11 6 -11 14 0 9 -10 13 -32 11 -18 -1 -41 3
-52 8 -14 7 -16 6 -11 -4 6 -9 2 -11 -13 -7 -12 4 -20 2 -16 -3 3 -5 1 -9 -5
-9 -5 0 -12 6 -14 13 -4 9 -6 9 -6 -1 -1 -7 -6 -10 -11 -7 -21 13 -62 16 -55
4 6 -8 2 -8 -14 0 -11 7 -21 8 -21 4 0 -4 -5 -2 -12 5 -8 8 -17 8 -31 1 -14
-8 -18 -8 -13 0 5 7 -4 11 -24 11 -22 0 -29 4 -24 13 5 8 2 8 -9 -2 -10 -7
-17 -9 -17 -3 0 11 -18 11 -37 -1 -6 -4 -15 -2 -19 4 -4 8 -3 9 4 5 7 -4 12
-3 12 2 0 5 -41 8 -92 6 -105 -4 -114 -5 -147 -23 -14 -8 -21 -9 -17 -2 4 6 0
11 -9 11 -10 0 -13 -5 -9 -13 5 -8 2 -8 -9 2 -13 10 -17 10 -17 1 0 -10 -3
-10 -14 -1 -11 9 -18 8 -30 -4 -9 -9 -16 -12 -16 -6 0 6 -12 8 -30 5 -21 -5
-30 -3 -30 6 0 10 -3 10 -14 1 -11 -9 -16 -9 -21 -1 -4 7 -16 10 -26 7 -11 -3
-17 -1 -13 4 4 7 -19 13 -28 7 -2 -1 -14 4 -27 11 -19 11 -22 11 -16 -1 3 -7
0 -5 -8 4 -8 10 -17 15 -20 11 -4 -3 -7 -1 -7 5 0 7 -9 12 -20 12 -11 0 -20 4
-20 9 0 16 -126 51 -197 55 -13 0 -23 5 -23 10 0 4 -9 6 -20 3 -11 -3 -20 -2
-20 3 0 4 -13 6 -30 4 -19 -2 -30 1 -30 9 0 8 -4 7 -10 -3 -5 -8 -10 -10 -10
-4 0 7 -7 15 -16 18 -8 3 -12 2 -9 -4 3 -6 1 -10 -4 -10 -6 0 -11 5 -11 11 0
6 -6 9 -14 6 -8 -3 -17 1 -20 8 -3 8 -12 12 -21 9 -8 -4 -15 -1 -15 7 0 7 -3
9 -7 6 -3 -4 -13 -1 -21 6 -10 8 -13 8 -9 1 7 -12 -21 -29 -31 -19 -3 3 1 5 9
6 8 0 4 4 -9 9 -12 5 -30 6 -39 3 -12 -5 -14 -3 -8 7 6 10 4 12 -9 7 -10 -4
-26 -2 -36 3 -13 7 -21 7 -25 0 -3 -5 -12 -10 -18 -10 -8 0 -7 3 2 9 7 5 10
14 6 21 -6 9 -9 9 -16 -1 -7 -12 -9 -12 -9 0 0 7 -6 11 -15 7 -8 -3 -15 -1
-15 5 0 6 -4 7 -10 4 -5 -3 -10 -2 -10 3 0 6 -8 8 -19 5 -10 -3 -22 0 -26 7
-5 8 -10 8 -20 0 -10 -8 -15 -8 -21 1 -5 8 -3 9 6 4 8 -5 11 -4 7 2 -3 5 -20
8 -38 5 -24 -3 -30 -1 -24 8 6 9 3 10 -11 2 -20 -10 -47 -5 -40 7 3 4 -4 7
-14 7 -11 0 -16 -5 -12 -11 4 -6 -1 -2 -11 9 -16 17 -20 18 -28 5 -7 -12 -9
-12 -9 1 -1 14 -64 50 -89 50 -7 0 -9 5 -6 10 3 6 -1 10 -10 10 -10 0 -13 5
-9 12 4 7 4 10 -1 6 -4 -4 -15 -2 -23 5 -13 9 -14 9 -8 0 5 -9 2 -11 -8 -7 -9
3 -13 10 -10 15 3 5 0 9 -6 9 -14 0 -56 51 -52 63 1 5 -3 7 -10 5 -7 -3 -34
17 -60 43 -27 26 -48 44 -48 41 0 -3 -6 3 -14 13 -8 11 -20 16 -29 12 -19 -7
-44 18 -27 28 10 6 14 -1 10 -20 -1 -5 2 -7 6 -2 17 17 10 48 -12 53 -13 3
-22 10 -21 16 1 5 -7 15 -18 21 -25 15 -35 29 -29 39 3 4 0 9 -5 9 -6 1 -15 3
-21 4 -5 1 -13 3 -16 4 -4 0 -1 7 5 15 9 11 8 15 -4 20 -9 3 -13 10 -10 16 3
6 -1 7 -10 4 -9 -4 -15 -3 -14 2 5 29 -2 43 -18 37 -15 -5 -15 -3 2 10 10 8
25 13 32 10 7 -3 13 0 13 6 0 6 -6 11 -12 11 -9 0 -8 4 2 10 13 8 12 10 -3 10
-10 0 -15 5 -12 10 3 6 1 10 -4 10 -6 0 -11 7 -11 16 0 8 -4 13 -8 10 -5 -3
-14 4 -22 14 -8 10 -18 16 -23 13 -6 -3 -7 -1 -3 5 3 6 -1 17 -9 26 -10 9 -11
17 -5 21 6 4 8 16 5 28 -4 12 -3 17 2 11 11 -15 43 -25 43 -14 0 6 -6 10 -12
10 -9 0 -8 3 2 10 9 6 17 5 22 -3 5 -8 8 -6 8 6 0 9 4 17 10 17 5 0 6 -8 3
-17 -6 -15 -5 -16 9 -3 9 8 14 18 11 23 -2 4 1 7 7 7 7 0 10 7 6 17 -5 15 -4
15 9 -1 14 -19 21 -11 16 18 -1 5 6 3 16 -4 10 -8 15 -11 11 -6 -13 15 11 45
32 41 11 -2 23 1 26 7 4 7 2 8 -4 4 -7 -4 -12 -1 -12 9 0 11 5 15 15 12 8 -4
17 -2 20 3 4 6 1 10 -6 10 -7 0 -9 10 -7 25 4 18 2 22 -6 16 -18 -15 -36 12
-21 32 6 9 14 15 17 12 2 -3 5 2 5 10 0 17 -8 19 -25 5 -9 -7 -9 -7 -2 2 12
15 13 31 2 24 -5 -3 -9 1 -9 9 0 8 4 12 8 9 4 -2 9 -1 12 3 2 5 3 3 1 -3 -3
-16 33 -36 42 -22 5 7 3 8 -6 3 -10 -6 -12 -4 -7 8 3 9 1 18 -6 21 -7 3 -2 3
10 1 12 -3 25 0 29 6 4 7 3 9 -4 5 -6 -3 -13 -3 -15 1 -3 5 48 8 114 7 65 0
116 3 113 8 -4 7 8 12 27 10 3 -1 6 5 6 13 0 7 -6 11 -12 9 -6 -3 -12 2 -12
10 0 8 6 12 15 8 11 -4 13 -1 7 8 -6 10 -4 11 6 4 27 -16 42 -14 27 4 -10 13
-10 14 0 8 7 -4 19 -3 26 3 11 9 40 18 69 20 5 1 5 7 1 14 -6 9 -4 9 8 -1 14
-11 18 -10 28 8 6 11 8 24 5 29 -3 5 2 16 10 24 8 9 15 25 15 36 0 12 6 21 13
21 9 0 9 2 -1 9 -11 7 -11 9 2 14 9 4 13 14 11 27 -2 11 0 20 6 20 5 0 9 5 9
11 0 6 -8 8 -18 5 -15 -5 -15 -4 -2 7 19 15 45 62 31 52 -15 -9 -14 1 5 37 9
16 11 27 5 24 -6 -4 -11 -2 -11 3 0 6 11 11 24 11 14 0 28 5 31 10 3 6 12 10
18 9 9 0 8 -2 -1 -6 -6 -2 -9 -10 -6 -15 4 -7 2 -8 -4 -4 -7 4 -12 2 -12 -4 0
-6 -4 -9 -8 -6 -5 3 -9 -1 -9 -9 0 -8 2 -13 5 -10 3 2 14 0 26 -6 20 -10 20
-9 2 5 -18 14 -18 15 2 13 11 0 19 -4 17 -8 -3 -3 2 -15 9 -25 11 -14 12 -23
3 -34 -6 -8 -8 -12 -3 -8 10 8 36 -15 36 -31 0 -6 3 -11 8 -11 4 0 16 -18 26
-40 11 -22 23 -40 27 -40 4 0 11 -9 14 -20 4 -11 11 -18 16 -15 8 6 13 -8 10
-27 0 -5 4 -8 10 -8 5 0 8 -4 4 -9 -3 -6 3 -14 12 -20 10 -5 17 -13 17 -18 -2
-13 9 -37 20 -45 5 -3 10 -17 11 -29 1 -13 7 -25 12 -26 6 -2 8 -14 5 -25 -4
-16 -2 -20 10 -15 13 4 15 -1 11 -27 -3 -22 1 -39 11 -49 12 -12 13 -17 3 -20
-9 -4 -9 -6 0 -6 7 -1 10 -8 6 -16 -3 -9 3 -25 13 -37 11 -12 14 -18 7 -15
-15 9 -11 -19 5 -35 9 -9 7 -17 -10 -35 -14 -15 -17 -22 -7 -18 16 6 20 -30 5
-53 -4 -7 -4 -22 -1 -33 5 -14 3 -19 -3 -15 -6 4 -8 -2 -5 -14 3 -11 9 -18 13
-15 4 3 8 -7 8 -21 -1 -15 5 -30 11 -34 7 -4 11 -11 10 -16 -3 -19 1 -35 9
-30 5 3 9 -1 9 -9 0 -8 -5 -11 -11 -8 -7 5 -7 2 0 -8 7 -8 8 -23 4 -34 -6 -15
-1 -26 19 -43 14 -13 19 -21 11 -17 -8 4 -3 -3 13 -15 15 -12 25 -26 21 -31
-3 -5 2 -9 11 -9 13 0 14 -4 4 -21 -6 -12 -7 -19 -2 -16 16 10 30 -18 35 -70
1 -13 13 -17 33 -13 6 1 4 -4 -2 -11 -16 -16 -17 -43 -1 -33 7 4 8 3 4 -4 -4
-6 -1 -22 6 -34 7 -13 11 -26 10 -30 -1 -5 6 -8 15 -8 15 0 16 -2 3 -10 -12
-8 -12 -10 5 -11 12 0 15 -3 7 -6 -10 -4 -9 -9 5 -20 10 -8 11 -11 3 -7 -11 6
-10 2 3 -13 9 -11 14 -23 10 -26 -3 -4 -1 -7 5 -7 7 0 12 -8 12 -17 0 -15 2
-16 10 -3 6 10 10 11 10 2 0 -6 6 -11 13 -10 6 2 11 -4 9 -12 -2 -10 5 -7 22
9 14 13 23 28 20 32 -3 5 2 10 10 10 30 3 34 4 43 13 4 5 3 7 -2 3 -6 -3 -17
4 -24 15 -11 18 -11 20 4 14 16 -6 16 -4 4 11 -11 14 -12 15 0 9 8 -5 16 -3
21 4 10 16 1 42 -11 34 -5 -3 -9 0 -9 6 0 6 -6 8 -12 5 -7 -4 -6 -1 2 7 9 8
14 28 14 48 -3 46 -2 44 -18 31 -11 -9 -16 -9 -22 0 -4 7 -3 9 3 6 6 -4 13 4
16 18 2 14 0 28 -5 31 -4 3 -5 11 -2 17 4 7 3 8 -1 4 -13 -11 -15 -38 -3 -31
7 4 8 2 4 -4 -4 -6 -14 -8 -22 -5 -9 3 -12 9 -7 12 14 11 16 44 1 36 -10 -6
-11 -5 0 6 15 16 16 29 1 29 -5 0 -7 -6 -4 -12 4 -7 -2 -3 -13 9 -11 12 -23
19 -27 15 -5 -4 -5 -1 -1 6 4 7 2 12 -6 12 -8 0 -9 3 -3 8 6 4 10 16 10 27 0
14 8 20 28 22 25 2 27 0 15 -14 -9 -12 -10 -15 0 -9 7 4 12 2 12 -6 0 -10 2
-10 9 1 7 11 9 11 14 0 4 -10 6 -9 6 3 1 9 10 20 21 23 11 4 18 11 14 16 -3 5
-9 7 -13 5 -4 -3 -7 6 -7 20 0 16 5 23 12 20 8 -3 11 1 7 9 -3 8 -10 12 -17 8
-6 -3 -6 -1 2 8 14 15 17 33 4 25 -5 -3 -9 1 -9 9 0 12 4 12 20 -2 19 -17 20
-17 14 -1 -4 12 -2 15 9 11 17 -6 19 13 2 21 -7 3 -2 3 12 -1 20 -5 23 -3 14
8 -17 21 -23 76 -8 76 7 0 10 -7 7 -16 -4 -11 -1 -9 10 4 13 17 13 45 0 45 -3
0 -2 -8 2 -17 5 -15 4 -16 -7 -5 -11 11 -10 16 6 28 11 8 15 14 10 14 -11 0
-12 28 -2 45 8 14 5 72 -5 81 -4 4 -7 18 -7 31 0 12 -5 23 -11 23 -5 0 -7 5
-3 12 4 7 3 8 -4 4 -7 -4 -20 7 -33 28 -12 20 -26 36 -31 36 -6 0 -5 6 2 15
11 13 10 14 -1 10 -9 -3 -18 6 -25 30 -6 19 -7 35 -2 35 9 0 -5 20 -34 48 -14
13 -15 19 -5 31 8 10 8 12 1 8 -7 -4 -14 2 -17 13 -4 14 -11 18 -24 14 -10 -3
-14 -2 -8 3 14 11 16 45 2 36 -6 -4 -8 0 -4 11 4 9 3 14 -2 11 -5 -3 -12 -1
-15 4 -4 5 -1 13 5 17 6 3 7 9 3 13 -5 3 -18 17 -29 31 -19 23 -19 24 -1 10
18 -14 19 -14 7 8 -6 12 -17 22 -22 22 -6 0 -9 6 -6 14 3 8 -2 17 -11 21 -13
5 -14 8 -3 14 10 7 10 9 -2 14 -8 3 -18 19 -22 36 -4 17 -11 31 -16 31 -6 0
-7 5 -4 10 3 5 -1 10 -9 10 -9 0 -16 9 -16 20 0 11 -5 20 -12 20 -6 0 -9 3 -5
6 3 4 -1 13 -9 21 -8 8 -12 19 -9 24 4 5 0 9 -8 9 -8 0 -22 18 -32 40 -10 22
-21 37 -25 35 -8 -5 -23 33 -20 50 1 6 -4 4 -11 -3 -7 -6 -18 -12 -23 -12 -6
0 -4 5 4 10 13 8 13 13 -2 37 -9 15 -17 31 -17 35 -6 33 -34 72 -45 61 -3 -4
-6 1 -6 10 0 10 6 17 13 17 6 1 1 7 -12 14 -16 9 -20 16 -12 20 15 9 5 26 -16
26 -13 0 -13 -3 -3 -15 7 -8 9 -15 4 -15 -5 0 -1 -7 10 -15 18 -13 18 -14 -2
-12 -12 0 -19 3 -17 6 3 2 0 10 -6 18 -6 7 -8 13 -3 13 5 0 2 5 -6 10 -11 7
-11 10 -2 10 7 0 10 5 6 12 -4 6 -3 8 4 4 6 -3 14 -1 18 5 4 7 3 9 -4 5 -6 -3
-13 -2 -17 4 -3 5 -1 10 6 10 7 0 9 3 6 6 -4 4 -18 -1 -31 -10 -22 -14 -25
-14 -20 -1 4 8 11 15 18 15 6 1 0 7 -13 14 -22 12 -22 14 -5 21 11 5 22 7 27
7 12 -3 8 7 -14 27 -13 12 -17 21 -10 26 18 10 12 25 -6 18 -16 -6 -17 -5 -3
12 11 14 12 19 3 22 -7 3 -13 12 -13 22 0 9 -6 23 -12 30 -10 11 -10 13 0 7 6
-4 12 -2 12 3 0 6 -4 11 -10 11 -5 0 -9 3 -9 8 1 4 0 10 -1 15 -5 15 -8 27 -9
43 0 9 -6 12 -13 8 -7 -4 -8 -3 -4 5 8 12 -14 71 -26 71 -5 0 -7 3 -6 8 5 14
-24 72 -33 66 -5 -3 -6 2 -3 10 4 9 1 16 -6 16 -7 0 -10 6 -7 14 6 14 -15 40
-24 31 -3 -2 -6 5 -6 16 -1 11 -11 29 -23 39 -12 10 -21 21 -21 24 4 33 1 38
-16 25 -14 -13 -15 -12 -6 6 10 20 -17 61 -32 47 -3 -4 -3 2 1 11 4 13 0 23
-15 33 -11 8 -21 21 -21 29 0 8 -5 17 -12 21 -7 5 -9 2 -4 -7 4 -8 1 -6 -8 5
-8 10 -19 15 -24 12 -6 -4 -8 3 -5 14 3 12 2 20 -3 19 -21 -4 -28 2 -14 11 13
8 12 10 -3 10 -10 0 -15 4 -12 10 3 6 1 10 -5 10 -6 0 -9 4 -6 8 3 5 -4 14
-14 22 -10 8 -17 17 -14 22 3 4 1 8 -5 8 -6 0 -7 7 -4 17 4 11 3 14 -5 9 -16
-10 -15 6 1 23 10 11 10 13 0 7 -8 -4 -13 -2 -13 6 0 7 -16 27 -36 43 -20 17
-43 36 -50 43 -7 6 -16 12 -21 12 -5 0 -20 18 -33 39 -20 32 -28 37 -39 28
-11 -9 -13 -9 -8 0 10 16 -27 53 -54 53 -11 0 -17 5 -14 10 4 6 11 8 16 5 5
-4 9 1 9 9 0 19 16 21 24 4 4 -7 4 -3 2 10 -4 19 -2 21 10 11 13 -10 18 -6 15
14 0 4 4 7 10 7 5 0 7 5 3 12 -4 7 -3 8 5 4 6 -4 9 -13 5 -19 -3 -7 1 -3 10 7
8 10 12 24 9 30 -4 6 2 4 12 -4 17 -14 18 -14 7 7 -11 19 -9 21 13 18 19 -2
30 5 42 26 10 16 23 29 29 29 20 0 37 27 22 34 -7 3 -3 3 9 0 18 -4 22 -2 17
10 -5 12 -2 15 12 9 12 -4 15 -3 10 5 -5 8 -1 10 11 5 16 -6 16 -5 4 10 -12
15 -12 17 4 11 12 -5 16 -4 12 3 -9 15 29 23 44 9 10 -9 11 -8 2 4 -18 25 -12
48 12 45 12 -1 22 4 22 11 0 7 -5 11 -11 8 -6 -3 -1 3 12 12 12 9 22 24 23 33
0 10 3 11 6 4 3 -9 10 -7 25 7 12 11 17 24 13 31 -5 8 -4 10 3 5 6 -4 20 2 32
14 11 11 20 17 21 13 0 -5 4 2 10 15 6 15 13 21 21 16 9 -5 8 -2 -1 10 -8 9
-10 16 -5 15 21 -4 28 2 14 12 -12 8 -10 9 8 4 16 -5 22 -2 23 9 2 20 3 26 17
56 10 24 11 24 11 3 1 -12 -4 -24 -9 -26 -6 -3 -5 -4 2 -3 7 1 14 12 16 24 2
15 11 22 25 22 18 0 19 2 7 10 -15 10 -4 15 22 11 4 0 5 6 2 14 -4 8 -11 12
-17 8 -6 -3 -7 -1 -3 6 6 9 11 9 22 0 12 -10 13 -9 9 4 -6 15 -1 21 40 53 15
12 16 14 3 10 -12 -3 -15 -1 -11 10 3 8 7 13 10 10 6 -6 53 40 53 53 0 6 4 11
9 11 5 0 11 9 14 20 3 11 11 19 19 18 8 -2 13 6 13 23 -1 21 3 25 22 23 13 -1
26 3 30 8 4 7 1 8 -7 3 -10 -6 -12 -4 -7 8 3 9 1 18 -6 21 -7 2 -1 5 13 5 20
1 22 3 10 11 -12 8 -10 10 10 10 19 0 22 2 10 9 -8 6 -18 7 -24 4 -5 -3 -6 -1
-2 6 4 6 10 10 14 8 10 -5 51 40 44 47 -3 3 1 6 9 7 8 0 6 4 -6 9 -19 8 -19 9
2 9 12 1 25 6 29 13 4 7 3 8 -4 4 -7 -4 -12 -2 -12 3 0 6 5 11 10 11 6 0 10 6
10 14 0 8 4 18 10 21 5 3 7 0 4 -8 -3 -8 0 -18 7 -23 8 -4 10 -3 5 4 -4 6 -2
21 5 33 6 12 7 19 2 16 -5 -3 -9 3 -9 13 0 14 4 16 12 9 8 -7 14 -6 19 1 3 5
0 10 -7 11 -7 0 -3 4 10 10 15 6 21 13 16 21 -5 8 0 7 11 -2 12 -9 16 -10 11
-2 -5 8 4 17 28 27 20 9 36 21 36 28 0 8 -4 7 -10 -3 -5 -8 -10 -11 -10 -7 0
4 7 18 16 31 11 18 12 26 3 32 -7 4 -9 3 -5 -4 3 -6 1 -14 -6 -18 -7 -4 -10
-4 -6 1 4 4 3 14 -2 20 -8 10 -3 12 19 10 21 -2 28 1 24 11 -3 8 -10 11 -17 7
-6 -3 -7 -2 -3 2 10 12 39 16 32 5 -3 -5 0 -12 7 -16 7 -4 10 -4 6 1 -4 4 -1
13 7 19 13 10 13 15 1 38 -12 23 -12 27 0 32 10 4 13 1 9 -7 -4 -6 2 -1 13 13
15 18 18 28 10 37 -6 7 -7 13 -4 13 4 0 2 9 -4 20 -9 17 -8 19 7 13 10 -3 15
-3 11 2 -4 4 -1 17 7 27 7 11 11 27 8 36 -5 11 -3 13 8 7 12 -8 12 -6 1 8 -15
17 -8 38 11 36 25 -3 38 1 32 11 -3 6 -1 10 5 10 7 0 9 7 6 16 -4 10 -2 13 6
8 8 -5 9 -2 4 11 -5 15 -4 16 9 5 9 -7 15 -9 14 -4 -4 22 2 35 14 29 6 -4 3 1
-7 9 -19 15 -11 22 18 17 5 -1 3 6 -5 15 -9 12 -9 15 -1 10 8 -5 12 -1 12 11
0 15 2 16 10 3 5 -8 10 -11 10 -6 0 5 -7 17 -15 26 -14 16 -14 17 11 12 19 -3
25 -1 20 7 -4 6 -12 9 -17 6 -5 -3 -6 1 -3 9 3 9 10 16 16 16 5 0 7 -4 4 -9
-3 -5 0 -11 7 -14 7 -3 13 5 13 19 1 15 -2 21 -10 17 -6 -3 -2 3 8 15 21 24
31 29 20 10 -5 -9 -2 -8 10 1 13 11 14 16 4 22 -10 7 -10 11 1 21 10 10 12 10
7 1 -4 -7 -2 -13 3 -13 6 0 11 7 11 16 0 9 5 12 12 8 7 -4 8 -3 4 5 -4 6 -11
9 -15 7 -4 -3 -8 1 -8 8 0 8 6 12 14 9 9 -4 11 0 7 11 -4 10 -1 16 7 16 7 0 9
3 6 6 -4 4 -14 1 -23 -7 -16 -13 -16 -12 -3 9 8 12 18 22 23 22 4 0 2 8 -5 17
-12 14 -12 16 0 8 11 -6 13 -4 8 8 -4 12 -1 15 14 12 11 -2 17 0 13 6 -3 5 0
16 6 24 7 8 10 21 7 29 -4 10 -1 13 9 9 9 -3 14 0 12 8 -2 8 3 13 10 11 8 -1
11 2 8 7 -4 5 0 12 6 14 10 4 10 6 0 6 -10 1 -10 4 0 15 7 8 18 12 23 9 6 -2
2 2 -8 10 -17 14 -17 15 0 22 10 5 22 7 27 6 5 -1 3 6 -5 15 -9 12 -9 15 -1
10 7 -4 12 -2 12 5 0 8 5 7 18 -2 15 -13 16 -12 3 4 -11 14 -11 20 0 34 8 9
13 25 11 36 -2 12 0 17 7 12 7 -3 11 -3 10 2 -3 18 1 36 8 30 15 -16 30 38 15
56 -11 12 -12 17 -2 17 7 0 10 7 7 15 -4 8 -2 17 4 21 6 3 8 11 6 17 -2 7 8
18 22 24 l26 13 -25 -6 c-23 -6 -23 -5 -7 8 10 7 24 25 31 38 6 14 20 24 30
23 11 0 15 4 12 13 -7 17 10 28 20 13 5 -8 3 -9 -6 -4 -9 5 -11 4 -6 -4 4 -6
12 -9 17 -5 5 3 7 10 4 15 -4 5 -1 9 4 9 6 0 11 8 12 18 0 10 3 12 6 5 2 -7
10 -13 15 -13 6 0 9 2 6 6 -3 3 -2 20 2 39 4 18 5 37 1 42 -3 4 -5 7 -2 6 2
-1 10 5 18 13 8 8 18 12 22 9 5 -2 8 8 7 23 -1 17 4 26 12 24 6 -1 12 2 12 6
0 4 -6 14 -12 22 -7 8 -2 6 11 -5 14 -11 22 -15 18 -9 -7 12 28 46 37 37 3 -4
6 -1 6 6 0 7 5 9 12 5 8 -5 9 -1 4 12 -5 14 -4 16 4 8 6 -7 27 -9 47 -7 24 3
33 1 29 -6 -4 -6 -2 -11 3 -11 6 0 11 4 11 9 0 6 9 9 19 8 16 -1 18 -4 8 -16
-9 -12 -9 -13 1 -7 6 4 12 3 12 -2 0 -6 7 -13 16 -16 10 -4 13 -2 8 7 -5 9 -4
9 7 0 19 -18 49 -16 49 3 0 10 6 14 14 11 10 -4 13 -1 9 9 -3 7 -10 14 -16 14
-6 0 -7 3 -4 6 4 4 13 1 22 -6 12 -10 15 -10 15 4 0 10 5 14 10 11 6 -4 8 -10
5 -15 -3 -5 -1 -11 4 -15 6 -3 8 3 6 15 -2 11 0 20 6 20 5 0 9 -6 9 -12 0 -10
3 -9 9 1 7 11 9 11 13 0 4 -11 8 -12 20 -2 11 10 17 10 27 0 10 -9 11 -8 5 8
-4 11 -3 17 1 12 5 -4 18 1 29 10 14 12 17 13 9 3 -10 -13 -8 -16 8 -16 16 0
19 6 15 27 -3 21 0 26 13 25 9 -2 14 -7 13 -12 -2 -5 -8 -8 -14 -6 -5 1 -7 -2
-3 -7 7 -12 35 -3 35 11 0 7 5 6 13 -1 8 -6 17 -8 20 -4 4 3 7 1 7 -5 0 -7 9
-12 21 -12 11 0 17 -4 14 -10 -5 -9 6 -14 26 -12 3 1 6 -5 6 -13 0 -8 -5 -11
-10 -8 -6 4 -8 0 -4 -9 6 -16 -10 -18 -53 -7 -14 4 -16 -1 -19 -41 -1 -14 -6
-18 -18 -13 -10 4 -14 2 -10 -4 4 -6 0 -16 -8 -23 -8 -7 -12 -17 -8 -24 4 -6
1 -6 -9 2 -13 10 -15 9 -12 -13 1 -14 -4 -31 -11 -39 -11 -10 -11 -16 -2 -26
9 -10 9 -11 -1 -6 -8 5 -11 0 -8 -16 3 -13 5 -27 5 -31 1 -5 6 -5 11 -2 6 3
10 -1 10 -9 0 -10 6 -13 17 -9 11 5 14 3 8 -6 -6 -10 -3 -11 14 -2 17 9 21 9
19 -1 -3 -14 59 -18 79 -5 6 4 14 3 19 -4 4 -7 3 -9 -3 -6 -6 4 -16 0 -23 -8
-10 -12 -7 -14 19 -10 28 3 30 1 21 -15 -14 -25 -13 -34 3 -23 14 12 61 -29
49 -42 -4 -4 2 -3 13 2 19 9 72 -7 60 -19 -3 -2 2 -5 10 -5 8 0 11 5 8 10 -4
6 1 8 11 4 10 -4 20 -7 22 -7 3 0 2 -6 -2 -12 -6 -10 -4 -10 8 0 11 9 18 10
23 2 3 -6 11 -8 16 -5 5 4 9 2 9 -4 0 -6 7 -7 17 -4 11 4 14 3 9 -5 -5 -8 -2
-10 8 -6 9 3 16 1 16 -5 0 -6 3 -10 8 -9 4 0 14 -1 22 -4 8 -4 24 -9 35 -14
11 -4 22 -8 25 -9 3 -1 12 -4 20 -8 8 -3 32 -11 53 -17 20 -6 37 -15 37 -19 0
-4 10 -8 22 -8 13 -1 24 -7 26 -13 2 -5 12 -10 23 -10 10 0 19 -5 19 -11 0 -8
6 -7 17 2 9 8 14 9 10 3 -4 -7 0 -14 7 -17 8 -3 17 -1 20 6 2 7 5 3 5 -8 1
-17 3 -17 11 -5 8 12 10 10 10 -10 0 -14 4 -20 8 -15 10 16 54 17 45 2 -4 -7
0 -6 10 2 11 9 17 10 17 2 0 -6 5 -11 11 -11 5 0 8 4 4 9 -5 9 45 5 54 -5 2
-2 10 1 17 7 8 7 14 7 19 -1 4 -7 12 -7 26 0 14 8 19 7 19 -2 0 -10 3 -9 9 1
8 13 12 13 27 0 11 -9 15 -9 10 -1 -5 8 -1 12 13 12 10 0 22 -6 24 -12 3 -7 6
-2 7 12 1 23 2 23 10 5 5 -11 9 -15 9 -8 1 6 9 11 19 11 33 -1 72 20 66 37 -4
8 -1 22 6 30 6 8 9 18 6 24 -3 5 0 12 6 14 7 3 4 6 -7 6 -17 1 -18 3 -5 11 13
9 13 12 -2 24 -10 7 -15 16 -12 19 3 3 -4 3 -17 0 -17 -5 -20 -3 -14 7 5 8 4
11 -2 7 -14 -9 -45 38 -48 72 -4 41 -16 61 -36 61 -13 0 -19 7 -19 23 0 12 -3
17 -8 11 -8 -12 -44 -15 -36 -3 2 4 0 10 -4 13 -5 3 -8 17 -7 31 2 14 -1 23
-6 19 -5 -3 -9 -1 -9 4 0 15 -89 102 -107 105 -17 2 -23 9 -23 22 0 3 14 -2
31 -10 37 -20 46 -15 19 8 -11 9 -20 14 -20 12 0 -3 -9 -1 -20 5 -11 6 -18 15
-15 20 7 11 -30 32 -40 22 -5 -4 -5 -2 -1 5 4 7 14 10 24 7 15 -5 15 -5 -1 6
-9 6 -22 8 -27 5 -14 -9 -12 9 2 23 9 9 5 11 -19 9 -20 -3 -30 0 -29 9 0 7 -3
13 -9 13 -5 0 -13 9 -17 21 -7 19 -10 21 -25 9 -10 -9 -14 -9 -10 -2 8 13 -46
47 -57 36 -3 -4 -6 -2 -6 3 0 6 -16 16 -35 24 -19 8 -35 18 -35 22 0 5 -4 7
-9 3 -5 -3 -12 -1 -16 5 -4 6 -11 8 -16 5 -5 -4 -9 -1 -9 5 0 6 -4 8 -10 5 -5
-3 -10 1 -10 10 0 9 -4 13 -10 10 -5 -3 -10 -1 -10 5 0 7 -7 10 -15 6 -8 -3
-19 3 -25 13 -5 10 -21 22 -35 25 -14 4 -25 13 -25 21 0 8 -4 15 -9 15 -24 0
-71 52 -60 66 9 11 8 14 -5 14 -10 0 -15 4 -12 9 10 16 -50 85 -66 75 -4 -3
-8 2 -8 11 0 9 -4 14 -9 10 -5 -3 -12 -1 -16 5 -11 17 -118 62 -137 57 -10 -3
-18 -1 -18 5 0 6 -6 8 -14 5 -7 -3 -19 0 -26 6 -9 9 -11 9 -6 0 6 -12 -54 -11
-74 2 -5 3 -10 2 -10 -2z m-3627 -3628 c9 2 15 -1 11 -6 -3 -5 0 -9 6 -9 6 0
8 -5 4 -12 -5 -7 -3 -8 5 -4 7 5 10 15 6 24 -5 13 -2 12 14 -2 11 -10 18 -23
14 -29 -3 -6 -1 -7 6 -3 6 4 9 12 6 17 -3 5 2 6 11 2 12 -4 15 -3 10 5 -5 8
-2 10 8 6 9 -3 13 -11 9 -17 -4 -6 -1 -7 8 -1 20 12 40 14 33 3 -3 -5 -10 -6
-16 -3 -6 4 -8 2 -5 -3 4 -6 18 -8 33 -5 16 3 29 -1 35 -9 5 -8 9 -9 9 -4 0 6
9 11 20 11 11 0 20 -3 20 -6 0 -4 7 -7 15 -7 9 0 14 6 11 13 -3 8 0 11 10 7
28 -10 0 -39 -33 -34 -7 1 -13 -3 -13 -9 0 -5 -5 -10 -11 -10 -8 0 -8 5 1 15
9 10 9 15 1 15 -10 0 -13 -6 -15 -40 -1 -8 -7 -16 -14 -16 -6 -1 -20 -2 -29
-3 -16 -1 -16 -3 -3 -11 12 -8 10 -10 -8 -10 -15 0 -21 -4 -16 -11 4 -7 1 -10
-7 -7 -8 3 -20 -2 -27 -9 -12 -11 -17 -11 -30 -1 -10 8 -13 9 -9 1 5 -8 -10
-11 -58 -10 -38 1 -65 -2 -65 -8 0 -5 -5 -3 -10 5 -8 12 -10 12 -10 1 0 -8 -3
-11 -7 -8 -3 4 -13 1 -21 -6 -13 -9 -14 -9 -8 1 4 6 4 12 1 12 -12 0 -70 -33
-77 -44 -4 -6 -8 -7 -8 -2 0 5 -7 3 -15 -4 -8 -7 -12 -17 -8 -23 3 -6 1 -7 -6
-3 -6 4 -9 12 -6 17 4 5 -1 9 -10 9 -9 0 -13 -4 -10 -10 8 -13 -1 -13 -25 0
-14 8 -21 6 -28 -6 -6 -11 -12 -13 -16 -6 -4 6 -13 9 -22 5 -11 -4 -12 -8 -3
-19 10 -12 9 -13 -5 -8 -9 3 -16 1 -16 -6 0 -6 -3 -9 -7 -7 -5 3 -14 -1 -20
-9 -8 -8 -9 -15 -3 -19 13 -8 13 -25 -1 -25 -5 0 -7 5 -4 10 9 15 -4 12 -22
-5 -8 -8 -19 -12 -25 -9 -7 4 -8 2 -4 -4 4 -7 2 -12 -4 -12 -6 0 -9 -4 -6 -8
3 -5 -9 -6 -26 -4 -17 3 -28 1 -25 -5 3 -5 -5 -10 -18 -11 -12 -1 -36 -7 -51
-13 -16 -6 -38 -13 -49 -14 -11 -1 -53 -11 -93 -22 -40 -11 -75 -17 -77 -14
-14 13 -33 8 -28 -7 5 -14 2 -14 -16 2 -22 20 -22 20 -15 0 9 -24 1 -16 -16
15 -6 13 -7 21 -2 17 6 -3 12 0 15 6 2 7 -5 18 -17 25 -18 11 -19 12 -3 13 10
0 16 4 13 8 -2 4 4 9 15 9 11 1 17 -3 13 -9 -4 -5 5 -3 18 6 14 9 28 13 32 9
4 -4 3 4 -3 19 -8 22 -8 26 4 21 8 -3 12 -10 8 -16 -3 -6 -1 -7 6 -3 9 6 9 11
-1 24 -11 13 -11 14 8 4 24 -13 30 11 10 37 -9 12 -7 13 8 8 15 -6 17 -5 8 6
-9 11 -4 13 28 12 23 -1 38 3 37 9 -1 6 5 10 13 8 8 -2 12 0 8 4 -4 4 -3 13 4
21 9 11 6 17 -11 29 -26 19 -11 48 20 39 21 -7 26 9 7 21 -7 5 -8 3 -3 -6 5
-9 4 -11 -4 -6 -8 6 -9 12 -2 20 6 7 7 17 3 21 -4 5 -1 5 6 1 7 -4 10 -12 7
-17 -8 -12 6 -11 25 1 12 8 12 10 1 10 -8 0 -11 3 -8 6 4 4 14 1 24 -7 14 -12
16 -12 8 0 -6 11 -4 13 9 8 14 -5 17 -3 12 8 -3 8 -4 15 -2 15 3 0 13 3 23 6
15 5 15 4 3 -5 -8 -5 -11 -13 -8 -16 4 -4 15 2 24 14 17 19 52 12 40 -8 -3 -4
4 -7 14 -7 15 0 17 3 7 16 -6 8 0 5 13 -6 19 -16 31 -19 53 -14 15 5 27 6 27
3 0 -3 15 6 34 20 18 15 37 23 41 19 5 -4 6 -2 2 3 -3 6 3 17 15 24 11 7 17 8
13 2 -3 -6 -1 -11 4 -11 6 0 11 6 11 13 0 8 3 8 9 -2 5 -8 16 -11 25 -8 8 3
18 2 20 -2 3 -5 19 -7 36 -5 17 2 29 0 26 -4 -2 -4 4 -8 14 -8 10 0 16 5 13
10 -4 5 -1 6 8 0 21 -13 39 -13 36 -1 -1 7 7 10 17 9 18 -3 19 -2 5 15 -12 16
-12 17 1 7 8 -6 23 -10 33 -9z"/>
<path d="M8160 5310 c0 -5 -7 -6 -17 -3 -9 4 -14 2 -11 -3 4 -5 -25 -9 -68 -8
-41 0 -74 -3 -74 -7 0 -5 -7 -5 -17 -2 -11 4 -14 3 -9 -5 4 -7 3 -12 -3 -12
-5 0 -13 5 -16 10 -4 6 -12 7 -18 3 -15 -10 -38 -10 -55 0 -8 6 -15 0 -21 -15
-6 -13 -10 -18 -10 -12 -1 13 -31 15 -31 2 0 -5 -8 -4 -19 1 -10 6 -21 7 -25
4 -11 -11 -36 -12 -36 -2 0 6 -6 9 -12 8 -7 -1 -20 0 -28 4 -28 10 -69 14 -64
6 3 -5 -5 -5 -18 0 -15 5 -36 4 -60 -5 -20 -7 -40 -9 -44 -6 -4 4 -4 1 1 -7 6
-11 3 -13 -13 -9 -12 3 -21 3 -20 -1 2 -18 -4 -22 -17 -11 -11 9 -15 9 -15 1
0 -7 -4 -9 -10 -6 -5 3 -10 1 -10 -5 0 -6 -4 -9 -9 -5 -5 3 -12 1 -16 -5 -3
-6 -17 -8 -31 -6 -13 3 -24 1 -24 -4 0 -5 -8 -7 -17 -6 -10 2 -29 -1 -43 -7
-14 -5 -34 -12 -45 -14 -11 -2 -27 -6 -35 -10 -8 -3 -24 -8 -34 -10 -11 -2
-33 -10 -49 -18 -16 -8 -33 -13 -37 -10 -4 3 -11 -2 -14 -11 -5 -13 -9 -14
-20 -5 -9 8 -16 8 -20 2 -4 -6 -13 -8 -20 -5 -8 3 -17 0 -21 -5 -3 -6 -11 -8
-17 -5 -7 5 -8 2 -3 -6 6 -10 4 -12 -9 -7 -10 4 -15 3 -11 -3 6 -9 -16 -15
-39 -11 -5 1 -3 -5 4 -14 7 -9 9 -15 4 -14 -19 3 -53 -14 -47 -24 3 -6 1 -7
-5 -3 -11 7 -51 -11 -63 -28 -4 -5 -13 -5 -20 0 -12 6 -12 5 -1 -8 11 -14 10
-16 -12 -14 -14 2 -23 -1 -20 -5 3 -5 -2 -9 -11 -9 -9 0 -14 -4 -11 -9 3 -5
-1 -12 -10 -15 -10 -4 -13 -2 -9 7 4 6 0 4 -8 -5 -8 -10 -20 -18 -26 -18 -7 0
-10 -4 -7 -9 5 -8 -8 -18 -27 -19 -5 0 -17 -11 -28 -23 -10 -12 -19 -18 -19
-14 0 5 -20 -13 -45 -39 -47 -50 -58 -68 -27 -45 9 7 -2 -6 -26 -29 -26 -25
-40 -46 -36 -53 5 -8 3 -9 -6 -4 -10 6 -12 4 -6 -10 5 -15 4 -16 -8 -6 -12 10
-13 9 -9 -8 3 -13 1 -21 -6 -21 -7 0 -10 -4 -6 -9 3 -6 -4 -15 -15 -21 -11 -6
-19 -14 -16 -18 3 -4 -9 -17 -25 -27 -16 -11 -32 -28 -35 -38 -3 -9 -9 -15
-14 -12 -4 3 -11 -2 -14 -11 -3 -9 -13 -14 -21 -11 -9 4 -12 1 -9 -7 3 -7 -3
-19 -13 -27 -17 -13 -17 -13 -3 6 15 19 15 19 -11 0 -15 -11 -25 -23 -22 -27
2 -5 -2 -8 -10 -8 -20 0 -59 -47 -44 -54 7 -4 1 -4 -11 -2 -13 3 -21 2 -18 -1
7 -7 -41 -53 -55 -53 -5 0 -8 -6 -7 -12 2 -7 -5 -12 -14 -12 -10 1 -15 -3 -12
-8 7 -11 -24 -48 -40 -48 -6 0 -26 -17 -45 -37 -18 -21 -30 -31 -26 -23 4 8
-11 -4 -32 -27 -22 -24 -47 -43 -56 -43 -10 0 -14 -5 -11 -15 4 -8 1 -15 -5
-15 -6 0 -11 -8 -12 -17 0 -10 -3 -13 -6 -6 -3 10 -7 10 -18 0 -7 -7 -11 -15
-9 -18 2 -3 -8 -12 -22 -20 -17 -9 -24 -19 -20 -32 4 -15 2 -16 -10 -6 -13 11
-18 6 -15 -14 1 -5 -2 -6 -7 -3 -5 3 -18 -2 -28 -10 -10 -9 -12 -12 -4 -8 9 4
7 -2 -5 -13 -11 -11 -22 -19 -25 -18 -9 4 -38 -33 -32 -41 4 -4 2 -4 -5 0 -6
3 -24 -5 -39 -19 -14 -13 -31 -22 -36 -19 -4 3 -8 2 -7 -3 3 -19 -3 -47 -8
-35 -4 10 -9 9 -20 -5 -9 -11 -12 -12 -8 -3 4 8 -3 4 -16 -10 -12 -14 -26 -24
-32 -22 -6 2 -5 -4 2 -12 11 -13 10 -15 -7 -11 -12 2 -26 -3 -33 -11 -6 -8
-18 -14 -26 -14 -10 0 -13 -6 -8 -17 5 -14 3 -15 -6 -6 -12 12 -42 6 -34 -6 2
-4 -9 -7 -25 -6 -17 1 -30 -2 -30 -6 0 -5 -6 -6 -14 -3 -8 3 -17 0 -21 -5 -3
-6 -11 -9 -16 -6 -5 4 -9 2 -9 -3 0 -5 -12 -8 -28 -7 -17 1 -36 -8 -52 -23
-14 -14 -19 -22 -13 -18 7 4 20 3 29 -2 15 -8 15 -10 0 -15 -12 -5 -15 -3 -11
6 4 6 0 3 -9 -7 -8 -10 -13 -23 -10 -27 3 -5 -2 -9 -10 -9 -21 0 -20 -17 0
-28 11 -6 13 -12 6 -16 -14 -9 -42 32 -35 53 4 13 2 13 -7 -2 -6 -9 -8 -22 -5
-27 3 -6 -1 -13 -9 -16 -9 -3 -16 -11 -16 -16 0 -6 6 -5 15 2 12 10 16 8 25
-15 6 -15 13 -25 17 -21 3 3 13 0 21 -7 11 -8 14 -8 9 0 -4 6 -3 14 3 18 6 4
7 11 4 17 -4 6 -3 8 3 5 5 -3 10 0 10 8 0 8 -5 11 -11 8 -6 -3 -5 0 3 8 10 11
15 11 18 1 3 -6 9 -10 13 -7 5 3 7 -4 5 -15 -2 -11 2 -20 8 -20 7 0 7 -4 -3
-9 -8 -6 -17 -8 -21 -5 -4 2 -10 0 -14 -6 -3 -5 -2 -10 3 -10 4 0 8 -13 8 -30
0 -16 -4 -30 -8 -30 -5 0 -8 6 -7 13 4 34 -1 52 -11 37 -6 -10 -10 -11 -10 -2
0 6 -9 12 -20 12 -12 0 -25 10 -30 23 -9 19 -9 18 -6 -10 3 -22 -1 -33 -11
-38 -9 -3 -14 -8 -11 -10 10 -11 39 8 34 22 -3 8 -1 11 4 8 21 -13 4 -50 -23
-50 -14 0 -29 -4 -34 -9 -5 -5 -3 -6 5 -2 6 4 12 2 12 -4 0 -6 4 -8 10 -5 6 3
7 -1 4 -10 -7 -18 14 -47 29 -38 6 3 7 1 3 -6 -6 -9 -11 -9 -22 0 -9 7 -14 8
-14 1 0 -6 4 -13 9 -16 7 -5 8 -41 1 -41 -1 0 -3 -8 -5 -18 -2 -9 1 -15 6 -11
5 3 7 11 3 17 -3 7 1 4 9 -5 16 -20 32 -25 21 -7 -4 8 0 8 15 0 22 -12 28 -2
10 16 -13 13 7 13 28 0 7 -4 17 1 25 11 12 18 18 22 36 22 4 0 0 5 -8 10 -8 5
-10 10 -4 10 6 0 17 -7 24 -15 13 -16 35 -21 26 -6 -4 5 9 8 28 7 22 -2 34 1
33 8 -1 6 4 10 10 9 7 -2 12 3 10 10 -1 6 6 11 15 11 10 -1 15 2 12 7 -10 16
-13 69 -3 64 5 -4 9 -1 9 5 0 7 7 5 16 -4 8 -9 18 -16 21 -16 4 0 4 3 0 6 -8
9 44 55 54 48 5 -3 6 3 2 13 -3 10 -2 15 2 10 5 -4 18 2 29 12 12 11 26 20 31
20 6 1 10 5 10 10 0 5 4 13 8 18 5 4 8 4 7 -2 -1 -5 -2 -16 -1 -24 2 -24 15
-2 16 26 0 21 5 26 28 29 15 1 25 -2 22 -7 -4 -5 -1 -9 4 -9 6 0 11 9 11 21 0
13 -4 18 -12 13 -7 -5 -8 -3 -3 6 6 10 11 9 22 -5 7 -11 13 -13 13 -6 0 7 5 9
12 5 7 -5 8 -3 3 6 -6 10 -4 12 8 7 10 -3 17 -2 17 2 0 5 -5 11 -11 13 -7 2
-5 9 5 17 14 12 16 12 10 -3 -3 -9 -1 -16 5 -16 6 0 11 5 11 10 0 6 5 10 11
10 5 0 8 -4 4 -9 -3 -5 0 -13 6 -17 8 -4 9 -3 5 4 -4 7 -1 12 6 12 8 0 5 7 -7
18 -11 9 -18 16 -16 15 2 -2 10 2 18 9 10 8 12 8 8 -4 -4 -9 1 -18 10 -22 9
-3 18 0 21 9 6 14 41 31 57 27 5 -1 6 2 3 7 -4 5 -2 12 4 16 6 4 7 11 4 17 -5
7 -2 8 6 3 10 -6 12 -4 6 10 -6 18 -6 18 15 -1 22 -19 22 -19 11 2 -9 16 -8
21 3 21 8 0 12 -4 9 -8 -2 -5 9 -3 26 2 25 9 29 14 19 26 -10 11 -9 14 2 11 8
-2 13 2 12 9 -2 7 7 17 20 23 18 9 20 9 7 -2 -17 -14 -26 -43 -11 -34 5 4 12
0 15 -6 3 -7 4 -4 3 7 -1 14 4 20 16 19 10 -1 17 5 17 15 0 13 2 13 9 2 6 -10
10 -10 13 -1 2 6 15 13 30 13 18 1 23 6 17 13 -5 6 -6 13 -3 17 9 8 35 -4 29
-13 -3 -5 -1 -11 4 -14 14 -9 7 19 -9 39 -20 24 9 16 33 -10 10 -11 15 -13 11
-5 -13 24 -13 37 1 37 7 0 11 -7 9 -16 -3 -9 1 -6 7 7 7 12 16 22 21 22 5 0 7
-4 4 -9 -7 -11 21 -8 31 4 4 4 3 5 -3 2 -7 -4 -18 1 -25 10 -10 12 -10 14 -1
9 7 -4 12 -2 12 8 0 8 5 18 12 22 7 4 8 3 4 -4 -4 -7 -2 -12 3 -12 6 0 11 5
11 10 0 6 5 10 11 10 5 0 8 -4 5 -8 -3 -5 1 -9 9 -9 8 0 12 3 10 7 -2 4 8 13
23 19 l27 13 -20 -24 -20 -23 23 19 c12 11 21 25 18 32 -7 18 5 25 21 12 11
-9 12 -7 7 7 -5 13 -4 16 5 11 8 -5 10 0 7 18 -3 18 -1 23 10 19 10 -4 13 0 8
13 -3 12 -3 15 3 8 4 -6 16 -10 26 -8 10 1 15 -2 11 -9 -3 -7 3 -2 14 11 11
12 24 22 28 22 4 0 3 -5 -4 -12 -15 -15 -15 -28 -1 -28 5 0 7 5 3 12 -5 8 -2
9 10 5 14 -6 17 -3 12 9 -5 13 0 15 29 11 19 -3 38 -1 41 4 3 5 9 7 14 4 5 -3
12 0 16 6 4 7 3 9 -4 5 -6 -3 -13 -2 -17 3 -6 11 27 7 46 -5 7 -4 6 3 -2 17
-11 22 -11 23 4 10 11 -9 17 -10 17 -2 0 6 7 11 16 11 8 0 13 4 9 9 -7 13 26
30 44 23 10 -3 12 0 8 11 -6 16 25 52 36 41 4 -4 4 3 2 16 -4 19 -2 20 12 8
12 -9 15 -9 9 -1 -4 8 3 22 18 37 25 22 36 43 17 32 -10 -6 -25 24 -16 32 3 3
5 1 5 -5 0 -16 48 -34 56 -22 4 8 9 7 15 -2 6 -10 9 -8 9 9 0 12 5 22 11 22 5
0 7 -5 4 -11 -4 -6 2 -5 13 2 12 7 19 16 17 19 -2 3 1 12 7 20 8 13 9 12 5 -2
-5 -13 0 -16 24 -14 16 1 29 5 29 9 0 4 0 10 0 13 0 4 -6 1 -14 -5 -11 -9 -16
-9 -22 0 -5 8 -3 9 6 4 10 -6 12 -4 8 7 -7 16 28 18 53 3 7 -5 10 -3 7 6 -3 8
-15 13 -26 13 -12 -1 -22 3 -22 7 0 5 9 9 21 9 11 0 18 4 15 9 -3 4 2 17 10
27 9 10 13 14 9 7 -3 -7 4 -17 15 -23 20 -11 20 -11 -5 -44 -14 -18 -22 -36
-18 -40 4 -4 -1 -4 -11 0 -15 6 -17 4 -11 -6 5 -9 4 -11 -3 -6 -7 4 -12 2 -12
-4 0 -6 -5 -8 -12 -4 -7 4 -8 3 -4 -5 4 -6 3 -18 -4 -26 -8 -9 -8 -15 0 -20 6
-4 9 -3 8 2 -2 4 2 8 7 8 6 0 9 -4 7 -9 -2 -5 4 -6 13 -2 9 3 14 2 11 -2 -8
-13 32 -42 57 -42 13 0 29 -6 36 -12 11 -11 12 -10 6 1 -6 11 -4 13 8 8 10 -3
17 -2 17 4 0 6 6 7 12 3 19 -12 48 -12 48 -1 0 6 5 6 13 0 6 -6 20 -9 30 -8 9
2 17 0 17 -4 0 -4 16 -7 35 -8 19 -1 33 3 30 7 -3 5 1 11 7 14 7 3 2 3 -11 0
-17 -4 -22 -2 -19 7 3 8 9 14 14 14 5 0 14 3 20 7 6 4 25 3 42 -1 17 -5 33 -7
36 -3 3 3 6 -1 6 -9 0 -11 2 -11 10 1 5 8 10 10 10 4 0 -6 22 -10 53 -9 37 1
52 5 52 15 0 7 6 15 14 18 9 3 11 0 6 -9 -6 -11 -5 -11 5 -2 14 13 4 37 -12
27 -7 -5 -8 -2 -3 6 6 10 12 9 25 -7 15 -19 18 -19 29 -4 6 9 9 11 7 5 -4 -8
5 -11 27 -9 17 2 36 0 42 -3 17 -11 50 -10 58 2 5 8 10 6 17 -4 9 -14 15 -7
11 14 -1 5 5 4 13 -3 12 -10 16 -9 25 6 6 10 11 12 11 6 0 -7 5 -13 11 -13 5
0 7 5 3 12 -4 7 -3 8 5 4 10 -7 55 -16 89 -18 6 -1 12 -5 12 -10 0 -5 4 -6 10
-3 5 3 7 0 5 -7 -3 -8 2 -14 12 -15 71 -6 92 -10 106 -22 10 -7 22 -9 29 -5 7
5 20 9 28 9 8 0 21 4 29 9 10 6 12 5 7 -2 -5 -8 -2 -10 8 -6 9 3 16 10 16 14
0 5 12 7 28 4 15 -2 23 -1 17 3 -14 11 -17 33 -5 33 6 0 10 -5 10 -11 0 -12
40 -2 55 14 7 7 6 7 -4 2 -8 -5 -12 -4 -8 2 3 5 20 8 36 7 17 -1 31 3 31 9 0
6 3 8 6 4 3 -3 18 5 32 18 13 13 31 21 38 18 8 -3 14 0 14 7 0 7 7 10 15 6 9
-3 15 0 15 10 0 11 6 15 19 11 12 -3 18 1 17 12 0 9 5 15 12 14 6 -2 12 3 12
11 0 8 9 12 26 10 19 -2 23 1 16 8 -8 8 -4 18 14 35 14 12 21 23 17 23 -4 0
-1 5 7 10 13 9 13 10 0 10 -8 1 -4 6 10 11 20 8 22 12 10 19 -14 9 -7 14 13
11 7 -1 11 15 8 32 0 4 4 7 10 7 5 0 7 5 4 10 -4 6 -2 17 4 24 6 7 12 32 14
55 1 22 5 41 8 41 14 0 15 72 1 92 -12 17 -13 22 -1 29 12 7 12 9 0 9 -7 0
-11 6 -7 15 3 8 1 15 -4 15 -5 0 -6 8 -3 17 5 13 2 15 -12 10 -14 -6 -16 -5
-6 7 15 18 11 37 -12 55 -10 7 -16 20 -13 28 3 8 2 12 -2 10 -4 -3 -13 1 -20
9 -7 8 -11 14 -8 14 3 0 -6 11 -19 25 -14 13 -25 29 -25 35 0 5 -7 10 -16 10
-8 0 -13 4 -10 9 3 4 -4 17 -17 27 -21 19 -21 19 -7 0 14 -18 14 -18 -7 -6
-12 8 -19 18 -17 22 3 4 -2 8 -11 8 -9 0 -13 4 -10 10 3 5 -23 24 -57 41 -35
17 -66 36 -69 41 -3 4 -19 10 -36 11 -17 1 -31 7 -30 12 1 6 -7 10 -18 11 -11
1 -28 4 -37 8 -39 14 -48 15 -48 6z m-416 -476 c15 -14 16 -14 16 3 0 15 2 16
10 3 8 -12 12 -12 18 -2 9 14 45 5 36 -9 -3 -5 2 -6 11 -2 10 3 21 0 26 -8 7
-12 9 -11 9 2 0 9 9 15 24 15 14 0 22 -4 19 -10 -4 -5 1 -7 10 -3 9 3 34 0 56
-8 22 -7 42 -11 45 -8 3 4 6 -1 6 -11 0 -9 4 -15 9 -12 5 3 11 0 14 -8 3 -8
-1 -17 -9 -20 -8 -3 -14 -1 -14 4 0 6 -7 10 -16 10 -8 0 -13 -4 -10 -8 3 -5
-1 -9 -9 -9 -8 0 -11 5 -8 10 4 6 0 8 -10 4 -9 -3 -18 -1 -21 6 -2 7 -5 4 -5
-6 -1 -10 -6 -15 -12 -12 -6 4 -8 14 -4 24 3 9 -7 0 -24 -19 -16 -19 -32 -32
-36 -28 -5 4 1 15 12 25 10 10 13 14 6 10 -6 -5 -18 -5 -24 -1 -8 4 -9 3 -5
-4 5 -8 -1 -12 -16 -13 -13 0 -33 -2 -46 -3 -13 -2 -26 2 -29 7 -3 6 -1 7 5 3
6 -3 13 -2 16 3 13 20 -12 19 -30 -1 -11 -12 -14 -18 -8 -15 15 9 27 -20 12
-29 -6 -4 -8 -3 -5 3 4 6 -2 13 -13 16 -17 4 -18 2 -9 -14 12 -23 6 -24 -15
-3 -11 11 -16 12 -16 3 0 -7 -6 -4 -14 6 -8 11 -12 23 -9 28 2 4 -1 6 -9 5 -7
-2 -12 3 -10 10 1 7 -3 23 -9 35 -12 22 -11 22 9 4 15 -14 22 -15 28 -6 4 7 3
10 -3 6 -6 -4 -14 0 -17 9 -3 8 -2 12 4 9 6 -3 10 -1 10 6 0 9 3 9 14 0 11 -9
16 -9 22 0 4 8 3 9 -4 5 -7 -4 -12 -2 -12 3 0 16 16 13 34 -5z"/>
</g>
</svg>
