<?xml version="1.0" encoding="UTF-8" standalone="no"?>
<svg
   version="1.0"
   width="1024.000000pt"
   height="1024.000000pt"
   viewBox="0 0 1024.000000 1024.000000"
   preserveAspectRatio="xMidYMid meet"
   id="svg8"
   sodipodi:docname="ん.svg"
   xmlns:inkscape="http://www.inkscape.org/namespaces/inkscape"
   xmlns:sodipodi="http://sodipodi.sourceforge.net/DTD/sodipodi-0.dtd"
   xmlns="http://www.w3.org/2000/svg"
   xmlns:svg="http://www.w3.org/2000/svg">
  <defs
     id="defs12" />
  <sodipodi:namedview
     id="namedview10"
     pagecolor="#ffffff"
     bordercolor="#666666"
     borderopacity="1.0"
     inkscape:pageshadow="2"
     inkscape:pageopacity="0.0"
     inkscape:pagecheckerboard="0"
     inkscape:document-units="pt" />
  <metadata
     id="metadata2">
Created by potrace 1.16, written by Peter Selinger 2001-2019
</metadata>
  <g
     transform="translate(0.000000,1024.000000) scale(0.100000,-0.100000)"
     fill="#000000"
     stroke="none"
     id="g6">
    <path
       d="m 3594,9109 c -167.3808,-49.3216 -539.0017,-332.5405 -389,-238 -90.1876,-99.8812 -190.6039,-152.0246 -240,-231 -63.1309,-64.2595 -192.2902,-398.5557 -189,-279 -70.697,-155.5578 -52.7264,-573.5622 -46,-430 36.8914,-17.6881 28.2676,-166.7852 28,-135 42.0483,-230.8908 96.8789,-544.7695 194,-788 78.5721,-198.8154 -35.9749,-699.1787 -2,-498 -42.2075,-103.6058 -177.4759,-435.7486 16,-274 6.4402,17.1284 53.3691,32.2984 66,128 5.3686,-56.6237 -52.306,-192.7204 -48.875,-169.75 7.1889,-56.5023 46.8055,-464.4492 22.875,-364.25 42.65,-120.7056 25.4613,-418.9629 33,-324 -31.294,-378.116 -33.5018,-775.5437 -36,-712 -51.71,-140.6839 -52.6337,-332.2391 -121.875,-473.5 C 2856.317,4239.7627 2783.7286,4054.5329 2804,4096 2742.6814,4013.6727 2620.368,3804.3064 2663.75,3839.875 2590.6498,3718.4729 2272.7963,3469.4806 2386,3548 c -40.3431,-36.318 -92.3241,-149.7049 -132,-208 45.2051,-28.4863 -141.8593,-289.9393 -108,-193 -172.0471,-122.5778 -128.885,-356.6346 -137,-324 72.2718,-152.0653 474.2138,241.7348 356,182 107.674,69.5955 328.1057,193.5596 238,153 102.5515,57.7218 253.1306,422.2323 213,301 94.4725,269.5684 253.0595,313.5242 295,545 40.5886,143.9013 209.3735,473.6232 182,386 -0.2231,38.2506 175.8917,313.8457 109,271 53.7967,-62.127 -53.3744,-142.8064 46,-83 -1.6664,-265.2409 -134.2303,-689.8336 -88,-508 9.1298,-73.4847 -367.2223,-882.6054 -145,-425 -73.9204,-111.598 -329.8263,-387.7137 -245,-286 -87.2429,-141.8706 -229.9892,-257.2124 -317,-382 -106.9747,-196.1104 -1.1301,112.2571 -172,-238 -205.0302,-108.679 -397.5497,-481.5401 -334,-403 -115.5023,-115.4322 -281.2215,-442.1589 -220,-310 -18.9643,-50.7335 -128.0929,-142.7051 -198,-190 97.0558,101.2964 155.8911,168.1154 185,303 56.2454,199.8536 -366.7612,18.5658 -256,58 -153.1003,-82.399 -558.4512,-268.8177 -424,-207 C 988.6078,1876.5681 678.53456,1946.7882 540,1639 397.116,1513.4149 396.20069,1298.8531 440,1131 492.57421,1019.0596 784.83066,811.41111 646,882 c 95.29497,-74.37543 243.16747,-132.10309 168,-84 91.49846,-8.18945 321.6171,-28.60879 225,-24 75.3883,39.85937 352.0506,180.62856 264,125 100.556,39.40546 324.7643,79.88649 232.625,94.875 181.7544,35.5135 655.6523,376.8932 494.375,301.125 240.1044,176.485 478.9206,403.5805 551,701 106.2728,241.2354 244.1983,491.5661 369,704 179.6847,287.0024 269.6583,667.3422 581.375,848.25 -16.8562,128.124 139.1738,292.832 55.625,189.75 117.6153,102.458 312.8571,360.061 249,278 135.0717,187.8519 302.4214,257.1311 290,365 21.6131,116.4235 -119.1787,457.0656 -11,299 -94.6048,48.6109 -73.1628,-117.942 -67,-104 -73.0232,-202.2434 -81.7344,296.2292 -79,146 61.098,106.8577 -133.5191,118.706 2,162 135.4332,107.5254 232.3417,357.7657 131.5,324.375 108.566,68.2648 236.3083,161.9027 181,128.25 17.9178,205.366 243.6279,126.8512 229.125,134.75 64.355,-4.0883 265.6424,96.1151 184.125,55.625 107.3143,-21.8657 464.9112,-29.2844 370.75,-17.375 58.5695,6.7441 265.586,-49.3724 162.5,-38.625 174.1034,29.023 -91.1079,92.6213 93,66 20.1335,84.0411 -43.1473,28.1759 -1,-27 21.1421,-151.4327 189.4606,-117.5664 151,-151 59.7146,11.2563 170.7326,-116.4487 137,-78 29.5184,-2.831 261.1137,-133.3196 199.875,-131.25 60.4359,-67.1737 126.9491,-20.0665 -8.75,40.5 -144.9919,108.4869 97.9055,6.9822 88.875,14.75 -61.5683,-34.7255 144.8305,-170.7908 38,-136.125 35.6493,-68.0765 203.9823,-228.1525 142,-160.875 94.1584,-159.2353 214.118,-390.1901 176,-348 30.3457,-148.2514 323.0886,-401.2024 235,-330 31.3605,-70.7734 113.0493,-228.8106 101,-204 51.5309,-97.9935 144.5996,-246.4118 219,-361 24.9278,-34.7531 142.6311,-298.9969 129,-255 34.9164,-119.9687 136.8232,-360.384 100,-291 -49.8832,-152.0917 69.1866,-585.5919 31,-455 111.6604,-98.6996 213.9706,-504.0569 149,-369 15.2022,-191.9226 265.4354,-240.0069 218,-84 42.284,-109.9376 166.9988,-432.2763 116,-325 -31.2844,-89.4146 436.9015,-366.1876 148.125,-196.625 76.3066,-53.8658 236.8779,-148.3285 159.875,-103.375 73.7495,-9.3429 314.6955,-28.8314 273,-55 111.4815,-45.8113 184.6059,-29.2379 189,-32 142.1901,-22.8149 437.7567,21.5242 323.5,34.375 105.6183,37.7042 180.3321,100.4278 267.5,169.625 54.3831,137.0715 243.3385,358.5736 183,263 87.9116,95.5342 165.8172,254.7976 206.0385,268.6136 -88.6447,-159.9622 31.9048,98.4036 37.9615,53.5114 71.359,31.6658 234.1517,213.3579 175.875,193.875 45.0154,132.9887 216.5824,500.5467 167.125,352 78.331,145.0039 -154.2554,569.5334 -74,456 -49.8712,172.5724 -522.4959,321.9782 -353,315 -213.4089,-6.8491 -334.0335,-179.5382 -417,-352 -60.5688,-74.0953 -329.4394,-240.1442 -285,-172 -23.0762,0.1305 -129.6298,-206.2327 -219,-121 138.1818,-228.8333 555.5282,-147.605 390,-163 159.3483,22.6762 366.6159,402.2801 320,266 64.759,98.7329 193.3,229.7835 176,88 141.9669,204.715 47.3011,-204.9561 130,-99 36.4891,-274.7739 -468.3628,-738.7283 -358,-532 -117.5823,-105.0185 -136.776,-358.5999 -132,-302 -4.5425,-88.2822 -304.1051,-253.2129 -112.75,-158.375 -11.3578,-116.6406 -281.3263,-341.3288 -239.125,-308.375 -73.5902,-98.2732 -301.579,-79.4246 -205,-85.625 -61.6958,-17.5714 -208.0857,79.2343 -202.125,48.375 -116.7061,42.2448 -266.3592,138.521 -194,71 -142.0232,44.4019 -316.2791,320.7148 -250,210 -65.7829,101.512 -195.7113,333.2031 -147,268 -65.1904,9.7938 -187.9485,55.4699 -90,121 -33.2791,-190.1778 -122.4987,200.2032 -93,116 -18.183,101.6283 15.7699,30.1333 40,-33 102.8049,-155.3138 -3.0385,132.7428 50,121 -60.4934,137.385 82.3648,448.0274 30,302 113.9043,195.9883 -85.4302,349.7815 -125,531 -22.1957,133.3962 -563.7192,1219.5118 -305,669 -68.7031,133.5951 -181.2289,575.5502 -142,400 -61.8783,233.4757 -201.5817,490.7946 -318,665 -93.4903,111.6592 -327.8019,434.0893 -214,328.875 -126.9409,117.7406 -470.049,356.0639 -335,272.125 -87.8339,51.5291 -425.0038,174.8431 -331,146 -134.8,68.5593 -338.6564,59.0673 -431,101 -56.6206,23.6157 -188.0015,90.8845 -184.125,53.5 -93.0635,-19.2573 -215.1729,-12.9257 -175.875,-12.5 -182.5328,27.8917 -433.56,-98.5422 -398,-82 -80.8623,-38.9239 -362.0682,-146.5748 -256,-106 -96.1298,-50.0628 -408.9424,-229.7268 -308,-161 -107.334,-43.7647 -206.3295,-135.7954 -176,-108 -87.8603,-32.5965 -224.17,-149.144 -177.625,-161.375 -54.3865,-105.2869 -31.0321,652.0048 -5.375,520.375 -34.5168,178.1105 -43.8511,636.5585 -1.25,496.125 13.4118,23.8811 -27.1517,251.1032 -31.375,194 -42.6757,178.9922 -3.9513,355.6033 -36.375,526.875 -68.4247,189.1154 -36.183,476.4194 -130,636 19.4692,187.2314 18.5411,371.6631 23,331 -28.7831,127.6314 255.8262,199.2724 188,241 91.6042,118.3789 241.0797,244.3616 223,270 87.5475,51.6539 26.0302,-134.9463 117,-86 -30.555,-67.7761 -29.3401,-301.5623 111,-145 103.2917,-22.0362 268.0113,-70.6229 223,-71 305.4786,105.4269 617.336,159.1805 514,131 123.6084,54.3349 457.5549,274.6214 326,155 201.6269,107.4199 -293.5579,223.9142 -153.5,246.125 -12.0078,13.6329 -245.4376,143.2568 -162.5,79.875 -264.5785,7.1281 -91.4823,53.582 -311,98 -251.9596,1.7165 -993.4133,143.4833 -754,66 l -75.5,-1.875 z M 1373,1555 c 128.3342,-41.4194 -194.0876,-178.2352 -78,-148 -213.5148,-45.0695 -362.42279,-78.2468 -156,93 2.4918,-134.2576 222.3951,103.9607 234,55 z"
       id="path4" />
  </g>
</svg>
