<?xml version="1.0" standalone="no"?>
<!DOCTYPE svg PUBLIC "-//W3C//DTD SVG 20010904//EN"
 "http://www.w3.org/TR/2001/REC-SVG-20010904/DTD/svg10.dtd">
<svg version="1.0" xmlns="http://www.w3.org/2000/svg"
 width="1024.000000pt" height="1024.000000pt" viewBox="0 0 1024.000000 1024.000000"
 preserveAspectRatio="xMidYMid meet">
<metadata>
Created by potrace 1.16, written by Peter Selinger 2001-2019
</metadata>
<g transform="translate(0.000000,1024.000000) scale(0.100000,-0.100000)"
fill="#000000" stroke="none">
<path d="M7130 8884 c0 -9 -26 -13 -92 -17 -16 -1 -28 -6 -28 -11 0 -4 -7 -6
-15 -2 -8 3 -14 1 -12 -5 2 -9 -18 -14 -80 -21 -7 -1 -13 -4 -13 -7 0 -4 -12
-8 -27 -9 -15 -1 -30 -8 -35 -15 -4 -6 -8 -8 -8 -3 0 5 -6 3 -13 -3 -8 -6 -17
-8 -20 -4 -4 3 -7 0 -7 -7 0 -7 -3 -10 -7 -7 -3 4 -15 -1 -26 -10 -11 -10 -17
-12 -12 -4 8 15 -45 -17 -57 -34 -4 -5 -8 -6 -8 -2 0 5 -15 -1 -34 -13 -19
-11 -45 -23 -57 -25 -12 -3 -26 -10 -31 -17 -4 -7 -8 -9 -8 -4 0 5 -7 3 -15
-4 -8 -7 -15 -9 -15 -6 0 4 -10 -2 -22 -14 -12 -11 -28 -20 -35 -20 -8 0 -11
-4 -8 -10 3 -5 -1 -10 -9 -10 -9 0 -16 -5 -16 -12 0 -6 -3 -8 -7 -5 -3 4 -12
-1 -20 -11 -9 -10 -12 -11 -7 -2 5 10 0 9 -14 -4 -12 -11 -22 -15 -22 -11 0 5
-6 1 -13 -10 -8 -10 -19 -15 -25 -11 -7 4 -12 3 -12 -3 0 -10 -39 -27 -53 -23
-5 1 -6 -2 -3 -7 3 -5 -2 -15 -11 -22 -12 -10 -14 -10 -9 -1 4 6 5 12 2 12 -8
0 -100 -52 -106 -60 -3 -4 -13 -6 -22 -5 -11 2 -15 -3 -13 -16 3 -15 0 -17
-13 -10 -18 10 -67 -20 -54 -33 3 -4 -1 -4 -11 0 -10 3 -17 1 -17 -6 0 -6 -4
-9 -9 -5 -5 3 -12 1 -16 -5 -3 -5 -15 -10 -26 -10 -10 0 -18 -3 -18 -7 3 -19
-2 -27 -10 -15 -6 11 -11 10 -25 -3 -9 -9 -16 -13 -16 -8 -1 4 -10 -3 -22 -17
-17 -20 -20 -21 -14 -5 6 16 0 14 -25 -10 -18 -17 -28 -24 -24 -16 8 15 -5 10
-34 -13 -17 -13 -43 -17 -35 -5 3 5 -4 5 -19 0 -13 -5 -30 -5 -37 -1 -8 5 -22
4 -32 -1 -10 -5 -18 -6 -18 -1 0 5 -13 9 -30 8 -16 -1 -30 -3 -30 -6 0 -3 -11
-5 -25 -5 -14 0 -25 3 -25 6 0 3 -16 5 -35 4 -19 -1 -35 1 -35 4 0 3 -12 6
-27 7 -45 1 -106 14 -118 24 -6 5 -17 5 -25 0 -7 -4 -23 -4 -35 0 -12 5 -34 7
-49 6 -14 -2 -26 0 -26 3 0 9 -75 5 -90 -4 -10 -6 -12 -4 -6 10 5 15 4 16 -9
5 -11 -9 -19 -9 -28 -2 -8 7 -18 7 -27 2 -8 -5 -18 -6 -22 -4 -9 6 -56 16 -75
17 -7 0 -13 4 -13 9 0 5 -9 4 -20 -2 -15 -8 -20 -8 -20 2 0 9 -3 10 -8 2 -4
-6 -15 -10 -25 -8 -11 1 -16 0 -13 -3 3 -3 -2 -12 -12 -20 -9 -8 -11 -12 -5
-8 9 4 11 1 7 -9 -3 -9 -11 -13 -18 -10 -6 3 -3 -1 6 -9 14 -11 15 -16 5 -27
-9 -10 -9 -11 1 -6 6 4 12 2 12 -3 0 -6 7 -11 15 -11 8 0 15 -5 15 -11 0 -5 5
-7 12 -3 7 4 8 3 4 -5 -6 -9 -11 -9 -22 0 -12 10 -15 10 -12 -1 2 -8 -5 -14
-17 -15 -11 0 -26 -4 -32 -8 -7 -5 -13 -6 -13 -2 0 3 -13 -1 -29 -10 -16 -8
-44 -16 -63 -17 -18 -1 -38 -9 -44 -17 -9 -11 -12 -12 -19 -1 -6 9 -4 11 5 5
9 -5 11 -4 6 4 -5 8 -12 9 -19 3 -19 -15 -88 -32 -81 -20 4 6 -2 5 -15 -1 -11
-7 -21 -9 -21 -6 0 3 -9 1 -20 -5 -13 -7 -20 -7 -20 -1 0 7 -9 7 -25 1 -18 -7
-25 -6 -25 3 0 8 -3 8 -8 1 -4 -5 -22 -10 -39 -9 -18 0 -33 -3 -33 -8 0 -4 -4
-5 -10 -2 -6 3 -10 0 -10 -7 0 -9 -3 -9 -10 2 -9 14 -15 6 -10 -15 1 -5 -8 -1
-19 9 -12 11 -21 14 -21 8 0 -5 -11 -9 -25 -7 -14 1 -25 -2 -25 -6 0 -5 -3 -8
-7 -8 -5 1 -10 1 -13 -1 -3 -1 -23 -4 -45 -6 -21 -3 -46 -10 -54 -17 -12 -9
-13 -9 -7 0 5 10 1 11 -17 4 -16 -6 -28 -6 -36 2 -8 8 -11 7 -11 -3 0 -13 -2
-13 -10 0 -7 12 -10 12 -10 1 0 -7 -6 -11 -15 -7 -8 3 -15 1 -15 -4 0 -6 -10
-6 -26 0 -15 6 -23 6 -19 1 3 -5 1 -12 -5 -16 -5 -3 -10 -2 -10 2 0 5 -9 9
-19 9 -11 0 -17 -4 -15 -8 3 -4 1 -8 -5 -8 -5 0 -13 5 -16 10 -5 8 -11 7 -21
-1 -8 -6 -14 -8 -14 -3 0 4 -6 0 -13 -11 -11 -14 -16 -15 -22 -5 -6 9 -4 11 5
5 9 -6 11 -4 5 5 -6 10 -11 9 -22 -5 -7 -11 -13 -13 -13 -7 0 10 -5 10 -20 2
-11 -6 -20 -7 -20 -3 0 4 -5 1 -10 -7 -8 -12 -10 -12 -10 5 -1 20 -1 20 -15 1
-8 -11 -15 -14 -15 -7 0 7 -5 9 -10 6 -6 -4 -7 -11 -4 -17 4 -7 2 -8 -4 -4 -6
4 -9 14 -6 24 5 13 4 14 -4 3 -5 -7 -14 -11 -20 -7 -6 3 -13 0 -15 -6 -4 -9
-6 -9 -6 1 -1 11 -5 10 -17 -5 -8 -10 -13 -14 -10 -7 4 7 -1 11 -14 10 -11 -1
-20 -4 -20 -8 0 -9 -21 -6 -38 5 -8 4 -11 3 -10 -5 2 -6 -3 -14 -11 -17 -9 -3
-11 0 -7 9 4 8 1 6 -7 -3 -8 -10 -16 -15 -20 -12 -10 10 -42 11 -54 1 -9 -6
-13 -6 -13 1 0 10 -17 11 -35 1 -9 -5 -31 -5 -37 1 -10 7 -38 7 -38 -1 0 -12
-37 -11 -45 1 -4 6 -11 7 -17 4 -19 -12 -88 -12 -81 -1 3 5 1 7 -4 4 -18 -12
-84 -17 -78 -7 3 6 0 8 -7 5 -30 -11 -97 -12 -102 -1 -3 7 -7 8 -13 1 -12 -14
-26 -16 -62 -5 -18 5 -31 5 -31 0 0 -5 -6 -7 -13 -4 -8 3 -25 0 -40 -5 -14 -6
-28 -7 -31 -3 -2 4 -36 7 -75 6 -39 -1 -73 2 -77 7 -3 5 -13 5 -25 -1 -14 -8
-19 -7 -19 1 0 8 -4 8 -15 -1 -12 -10 -15 -10 -15 0 0 8 -3 10 -6 7 -4 -3 -16
-2 -27 4 -15 9 -18 8 -11 -3 6 -10 5 -11 -7 -2 -8 6 -22 10 -32 9 -9 -2 -17 2
-17 8 0 8 -3 8 -8 2 -10 -14 -32 -17 -32 -4 0 6 -6 9 -14 6 -7 -3 -19 0 -25 6
-9 9 -10 7 -5 -8 7 -19 7 -19 -13 -2 -23 20 -37 22 -27 5 6 -10 4 -10 -7 0
-15 14 -33 16 -25 3 7 -11 -21 -8 -31 4 -4 4 -2 5 6 0 10 -6 12 -4 7 4 -6 8
-12 9 -20 2 -9 -7 -17 -7 -26 2 -10 10 -12 9 -6 -3 7 -13 6 -13 -6 0 -7 8 -24
15 -38 15 -14 0 -30 4 -37 8 -7 5 -16 6 -22 3 -5 -3 -12 1 -15 9 -4 12 -10 13
-25 5 -11 -5 -27 -7 -37 -3 -12 4 -15 3 -10 -5 5 -8 2 -10 -8 -6 -9 3 -13 10
-10 15 8 13 -10 11 -25 -3 -9 -8 -11 -8 -8 -2 9 16 -18 25 -31 12 -8 -8 -13
-7 -18 5 -3 9 -10 17 -16 17 -5 0 -6 -4 -3 -10 3 -5 1 -10 -5 -10 -6 0 -9 -4
-6 -8 3 -5 -1 -9 -9 -9 -8 0 -11 5 -7 11 11 18 11 36 0 43 -7 3 -8 1 -4 -5 4
-7 1 -12 -8 -12 -9 0 -15 6 -13 13 1 6 -6 11 -15 9 -9 -1 -20 3 -25 10 -8 13
-9 18 -12 38 0 5 -4 9 -8 9 -21 -3 -33 2 -33 16 0 19 -9 19 -32 -2 -15 -13
-21 -14 -31 -4 -9 10 -8 11 6 5 12 -4 16 -2 14 7 -2 8 -2 11 0 6 8 -14 21 3
16 21 -5 21 -57 46 -78 38 -9 -3 -12 0 -8 10 4 10 0 12 -11 8 -10 -4 -16 -1
-16 7 0 11 -3 11 -10 -1 -9 -13 -10 -13 -10 0 0 13 -1 13 -10 0 -6 -9 -10 -11
-10 -3 0 7 -6 10 -14 7 -8 -3 -12 -13 -10 -22 4 -13 3 -13 -6 2 -10 14 -10 20
0 26 9 5 9 9 1 14 -6 4 -11 3 -11 -2 0 -5 -11 -9 -25 -9 -14 0 -25 4 -25 10 0
6 -6 4 -13 -4 -6 -8 -11 -12 -9 -10 7 13 -32 40 -44 30 -15 -12 -38 -3 -29 12
3 5 -1 6 -10 3 -9 -4 -22 1 -31 12 -9 11 -13 13 -9 7 4 -9 1 -11 -9 -7 -9 3
-14 10 -11 14 3 4 -2 11 -11 14 -10 4 -13 2 -8 -7 4 -6 -2 -3 -13 8 -11 11
-19 23 -16 28 2 4 -3 7 -11 7 -9 0 -16 5 -16 10 0 6 -7 10 -15 10 -8 0 -15 5
-15 11 0 5 -4 7 -10 4 -5 -3 -10 -1 -10 5 0 6 -4 8 -10 5 -5 -3 -10 -1 -10 4
0 6 -7 11 -15 11 -8 0 -26 12 -40 26 -17 17 -33 24 -46 21 -17 -5 -18 -3 -7
10 12 15 10 15 -12 3 -23 -12 -24 -12 -11 3 12 15 11 17 -3 17 -9 0 -16 5 -16
10 0 6 -6 10 -14 10 -8 0 -16 7 -20 15 -3 9 -12 12 -22 8 -12 -4 -15 -3 -10 5
5 8 0 12 -14 12 -13 0 -19 4 -14 12 4 6 3 8 -4 4 -6 -3 -18 1 -26 10 -12 11
-16 12 -16 2 0 -9 -2 -10 -8 -2 -4 7 -18 14 -32 15 -14 2 -28 8 -32 14 -4 5
-10 3 -13 -7 -5 -13 -13 -14 -36 -8 -19 6 -27 5 -23 -1 3 -6 -2 -9 -12 -7 -10
2 -19 -3 -20 -9 -1 -7 -2 -18 -3 -24 0 -5 -5 -8 -10 -4 -20 12 -3 -49 18 -66
11 -9 21 -23 21 -29 0 -7 7 -10 16 -6 11 4 18 -1 21 -14 3 -11 12 -20 20 -20
8 0 11 -4 8 -10 -3 -5 1 -10 9 -10 8 0 20 -8 25 -17 6 -10 11 -15 11 -10 0 4
15 -7 33 -24 17 -17 31 -36 29 -41 -1 -5 2 -6 9 -3 6 4 17 -2 25 -14 9 -12 20
-19 25 -16 8 6 13 -9 10 -29 -1 -5 5 -3 14 4 14 11 17 10 22 -8 3 -12 14 -24
25 -28 11 -3 17 -8 14 -11 -7 -7 17 -32 26 -27 4 2 9 -5 13 -16 3 -11 13 -20
21 -20 8 0 13 -3 11 -7 -6 -10 39 -53 47 -46 3 4 6 1 6 -5 0 -14 31 -52 39
-48 3 2 12 -2 19 -10 7 -8 10 -14 6 -14 -4 0 6 -11 22 -25 16 -14 33 -25 37
-25 5 0 5 -5 2 -10 -4 -6 -3 -10 2 -9 19 3 34 -2 29 -10 -3 -4 6 -13 20 -20
14 -6 23 -7 20 -3 -3 5 2 9 10 9 8 0 13 -6 10 -14 -3 -7 -1 -13 5 -13 6 0 8
-4 5 -8 -3 -5 5 -7 17 -6 12 1 26 3 30 3 5 1 5 6 1 13 -4 7 -3 8 4 4 6 -4 8
-14 5 -22 -4 -10 -1 -15 8 -14 34 5 60 -1 53 -12 -4 -6 -3 -8 4 -4 6 3 14 2
17 -4 5 -8 11 -8 20 0 22 18 55 21 55 4 0 -14 2 -13 16 0 19 20 31 21 14 2 -9
-12 -8 -15 7 -14 33 1 76 -11 85 -24 6 -10 8 -10 8 1 0 11 4 10 16 -5 8 -10
13 -13 9 -7 -4 8 -1 11 9 7 8 -3 18 -13 21 -23 5 -17 41 -21 64 -7 8 5 16 4
21 -4 4 -6 10 -11 14 -11 29 4 46 -1 40 -11 -5 -7 -2 -9 9 -5 8 3 21 -1 27 -8
7 -8 16 -13 20 -10 5 3 11 1 15 -5 4 -6 11 -7 17 -4 7 4 8 2 4 -4 -4 -7 -2
-20 4 -29 11 -17 11 -17 6 0 -3 9 -1 17 4 17 6 0 10 -6 10 -14 0 -10 7 -12 22
-8 14 3 19 1 14 -6 -4 -7 2 -8 21 -3 16 5 38 4 51 0 15 -6 21 -5 17 1 -9 14 8
12 24 -2 11 -11 12 -10 6 2 -6 12 -5 13 5 3 9 -8 19 -9 32 -2 20 11 24 0 8
-19 -7 -9 -7 -9 2 -2 17 14 51 13 42 -2 -5 -8 -2 -9 9 -5 10 4 24 10 32 13 8
3 15 1 15 -6 0 -6 4 -8 10 -5 5 3 10 0 10 -7 0 -9 3 -9 10 2 8 13 10 12 10 -4
0 -20 0 -20 16 0 8 10 12 13 9 6 -5 -10 0 -12 24 -9 18 3 29 1 25 -4 -3 -6 5
-8 20 -5 20 4 26 0 26 -12 0 -15 2 -15 10 -2 8 12 11 13 19 1 7 -11 9 -11 14
0 4 10 6 10 6 2 1 -9 17 -13 46 -13 25 0 45 -5 45 -11 0 -5 -6 -7 -12 -3 -9 5
-9 2 1 -9 15 -18 26 -23 16 -7 -3 6 1 10 9 10 9 0 16 -5 16 -12 0 -6 3 -8 6
-5 4 3 15 2 25 -4 15 -8 17 -6 12 8 -5 15 -4 16 8 7 8 -7 31 -11 51 -10 24 2
35 -1 31 -8 -5 -8 -2 -8 8 -1 28 20 191 3 225 -24 17 -13 34 -18 56 -14 30 4
31 3 17 -13 -13 -16 -12 -16 10 -5 16 9 26 10 33 3 11 -11 41 -5 34 7 -6 10
42 6 51 -4 5 -4 1 -5 -7 0 -8 5 -12 4 -7 -1 14 -14 59 -13 53 3 -3 7 -3 13 0
13 2 0 9 -10 14 -22 7 -18 9 -19 9 -5 1 19 21 24 21 5 0 -8 3 -9 8 -3 4 6 17
10 29 11 16 0 20 -3 13 -11 -6 -7 -3 -11 10 -11 10 0 17 4 14 7 -2 4 9 7 24 7
16 -1 35 3 43 7 8 5 5 -2 -6 -16 -11 -13 -13 -18 -4 -12 8 7 25 11 38 8 12 -2
19 0 16 5 -6 9 10 7 38 -5 9 -4 26 -5 37 -2 11 3 20 0 20 -6 0 -6 3 -7 7 -4 3
4 13 1 21 -6 12 -9 14 -9 8 0 -5 10 10 12 64 10 38 -1 70 -6 70 -10 0 -4 9 -3
20 3 16 9 22 8 27 -5 5 -13 7 -14 14 -3 7 10 9 8 9 -7 1 -18 2 -18 10 3 8 19
13 21 28 13 13 -7 22 -7 30 1 9 9 12 9 12 -1 0 -10 3 -11 14 -2 11 9 16 9 21
0 6 -8 10 -7 16 2 7 11 9 11 9 1 0 -8 5 -10 12 -6 19 12 68 12 68 0 0 -6 5 -4
10 4 8 13 10 12 10 -4 0 -20 0 -20 15 0 8 11 14 14 15 6 0 -9 5 -10 19 -2 13
7 22 7 26 0 4 -6 13 -7 23 -1 26 14 34 14 43 -1 7 -10 9 -10 9 0 0 7 5 10 10
7 6 -3 10 -1 10 4 0 6 5 11 11 11 5 0 7 -4 4 -10 -3 -5 -1 -10 4 -10 6 0 11 5
11 11 0 5 4 8 9 4 5 -3 13 0 17 6 4 8 9 7 15 -2 5 -8 9 -9 9 -4 0 12 44 14 56
3 4 -4 13 -3 20 3 8 6 20 9 28 6 8 -3 17 -1 20 6 3 9 5 8 5 -1 1 -7 6 -10 12
-7 6 4 47 8 92 10 45 1 90 6 100 10 10 4 17 3 17 -4 0 -7 8 -8 25 -1 17 7 25
6 25 -1 0 -8 5 -7 15 1 8 7 22 10 30 6 8 -3 15 0 15 7 0 8 4 6 10 -3 5 -8 10
-10 10 -4 0 12 71 11 91 -1 8 -5 10 -4 5 3 -4 7 -2 12 3 12 6 0 11 -4 11 -8 0
-4 9 -8 20 -8 11 0 20 4 20 9 0 5 7 4 15 -3 10 -9 15 -9 15 -1 0 16 26 14 43
-4 8 -8 17 -11 21 -8 3 4 6 2 6 -4 0 -6 9 -9 20 -6 13 3 20 0 20 -8 0 -11 2
-11 10 1 8 13 10 13 10 -2 0 -29 57 -3 65 30 5 20 8 23 16 11 5 -7 9 -10 9 -5
0 5 9 1 21 -10 12 -10 24 -18 28 -17 3 2 6 -8 5 -20 -1 -30 46 -32 56 -2 8 23
39 29 47 8 5 -12 9 -11 20 8 l14 24 -5 -25 -5 -25 19 24 c11 12 17 28 13 34
-3 5 -1 7 5 3 6 -3 13 -2 17 4 4 6 12 7 18 3 20 -13 36 -12 48 3 6 8 15 11 20
8 5 -3 9 -1 9 4 0 4 24 8 53 8 34 -1 56 4 65 14 8 8 11 9 7 3 -10 -20 118 -21
143 -1 7 6 12 7 12 1 0 -5 7 -10 15 -10 8 0 11 5 8 10 -4 6 0 8 10 4 9 -3 23
1 32 9 11 11 15 12 15 3 0 -10 3 -10 12 -1 15 15 32 16 22 1 -3 -6 5 -3 20 6
14 10 26 14 26 10 0 -4 6 -2 14 4 11 9 15 9 19 -1 4 -8 6 -9 6 -1 1 6 10 9 21
6 13 -3 20 0 20 8 0 11 2 11 10 -1 5 -8 10 -10 10 -4 0 6 18 14 40 18 23 4 38
11 35 16 -3 6 4 10 17 10 21 0 64 19 44 20 -5 0 -3 7 4 15 7 9 19 14 25 11 7
-2 18 1 25 7 10 9 11 9 6 -3 -4 -8 0 -6 8 4 9 11 16 16 16 11 0 -5 5 -4 12 3
7 7 20 12 31 12 10 0 16 4 13 9 -4 5 3 7 14 4 12 -3 20 0 20 7 0 7 8 10 20 7
11 -3 20 -1 20 5 0 6 7 8 15 5 8 -4 17 -2 20 4 4 5 11 7 16 4 5 -4 9 -1 9 5 0
6 5 8 10 5 6 -3 10 -1 10 6 0 8 5 7 17 -2 14 -12 16 -12 8 0 -6 11 -3 13 14 8
18 -4 21 -2 17 10 -4 10 -2 13 8 10 7 -3 22 0 32 7 11 7 29 12 42 11 14 -1 22
4 22 14 0 14 2 14 10 1 6 -10 10 -11 10 -3 0 7 3 12 8 11 4 -1 17 2 30 6 15 5
29 3 40 -6 15 -11 16 -11 4 3 -15 19 9 46 29 33 8 -4 9 -3 5 4 -4 7 -4 17 0
23 4 8 9 7 15 -2 6 -10 9 -10 9 -2 0 6 9 10 20 8 11 -2 20 1 20 7 0 5 7 7 16
4 8 -3 13 -2 10 3 -6 9 16 21 37 21 7 0 6 -4 -3 -10 -10 -7 -11 -10 -2 -10 7
0 15 6 18 13 2 7 14 13 24 14 11 1 18 -2 16 -6 -3 -4 1 -8 8 -8 8 0 12 6 9 13
-5 13 14 14 34 1 7 -4 16 0 22 10 6 10 11 13 11 7 0 -5 23 -11 51 -11 52 -2
84 16 84 47 0 19 73 21 96 2 14 -11 19 -11 30 1 8 7 20 12 27 9 6 -2 12 1 12
8 0 8 6 8 20 0 16 -9 22 -8 26 4 7 18 35 16 60 -4 16 -13 17 -13 9 0 -7 12 -5
12 11 -1 10 -9 27 -19 37 -23 11 -3 21 -15 24 -26 3 -11 9 -17 14 -14 9 5 13
-10 9 -31 -1 -6 3 -5 10 1 19 19 60 -25 49 -53 -5 -13 -4 -25 1 -28 5 -3 7
-11 4 -18 -3 -8 6 -12 25 -12 16 -1 28 2 26 6 -3 3 7 12 21 20 21 11 27 11 33
0 6 -9 11 -10 15 -2 9 13 56 -29 48 -44 -3 -5 1 -4 8 2 16 15 56 -40 44 -59
-4 -7 -2 -8 4 -4 8 4 12 0 12 -11 1 -26 26 -58 34 -41 3 7 3 3 0 -10 -7 -30
13 -57 32 -41 11 9 16 5 25 -15 7 -15 15 -22 18 -17 4 5 12 -2 18 -16 7 -14
10 -23 6 -19 -3 3 -12 1 -20 -6 -8 -6 -13 -7 -12 -2 4 22 -2 34 -17 34 -11 0
-14 6 -8 23 6 22 6 22 -18 -3 -49 -49 -81 -75 -89 -73 -5 2 -5 -5 -2 -14 4
-11 2 -14 -5 -9 -6 3 -16 -3 -22 -14 -6 -11 -15 -18 -19 -15 -5 3 -12 -2 -15
-11 -3 -8 -10 -13 -15 -10 -5 3 -11 -3 -14 -14 -3 -11 -1 -23 4 -26 5 -3 7
-10 4 -15 -3 -5 1 -6 10 -3 14 6 14 8 -2 21 -17 13 -16 13 3 4 12 -6 24 -18
28 -27 5 -13 9 -14 21 -4 10 9 15 9 15 1 0 -6 -5 -11 -12 -11 -7 0 -5 -7 5
-18 12 -13 13 -21 6 -32 -9 -13 -10 -12 -5 2 3 10 1 20 -4 23 -6 4 -10 -1 -10
-10 0 -10 -5 -13 -12 -9 -7 4 -4 -3 6 -15 16 -17 16 -20 4 -16 -19 8 -33 -11
-17 -21 8 -5 9 -3 4 6 -5 9 -4 11 3 6 9 -5 7 -14 -4 -31 -14 -21 -14 -24 3
-34 17 -10 17 -10 1 -11 -10 0 -18 -4 -18 -10 0 -16 30 -12 36 5 6 14 8 14 18
1 10 -13 14 -13 34 4 20 17 21 19 5 23 -15 4 -15 5 -2 6 22 1 44 -25 29 -34
-6 -4 -2 -13 11 -24 17 -14 19 -20 9 -26 -8 -5 -11 -4 -7 2 4 6 -4 11 -19 11
-15 0 -30 5 -34 12 -5 9 -9 9 -14 1 -4 -6 -11 -9 -16 -6 -4 3 -11 -2 -14 -11
-3 -9 -13 -14 -20 -11 -10 4 -13 0 -11 -14 3 -13 0 -17 -8 -12 -7 4 -20 6 -31
4 -12 -2 -16 1 -11 10 6 8 4 10 -6 3 -8 -4 -18 -10 -24 -11 -5 -1 -19 -4 -30
-7 -11 -2 -21 -5 -22 -6 -8 -7 -30 -5 -40 2 -6 5 -14 5 -18 -2 -3 -5 -15 -10
-26 -10 -11 0 -17 -4 -14 -10 3 -5 0 -8 -7 -5 -7 3 -19 -4 -26 -16 -8 -12 -9
-18 -3 -14 14 8 14 -7 1 -23 -7 -9 -7 -9 2 -2 15 13 31 13 23 1 -3 -5 0 -13 6
-17 7 -4 9 -3 6 3 -4 6 2 13 13 16 11 3 20 1 20 -4 0 -5 -4 -9 -9 -9 -13 0 -7
-33 7 -38 7 -2 10 -8 6 -13 -3 -5 2 -9 11 -9 10 0 13 -5 9 -12 -5 -8 -2 -9 9
-5 9 3 19 1 23 -5 4 -7 10 -6 16 3 6 10 7 6 2 -11 -6 -23 -6 -24 12 -10 14 11
13 8 -4 -14 -17 -23 -20 -31 -10 -38 9 -5 10 -8 1 -8 -7 0 -18 -12 -26 -27 -7
-16 -19 -27 -25 -25 -7 1 -11 -1 -11 -5 3 -19 -2 -34 -9 -29 -5 3 -16 -8 -26
-25 -10 -16 -22 -26 -28 -23 -7 4 -8 2 -4 -5 4 -6 0 -14 -8 -17 -9 -3 -16 -11
-16 -16 0 -15 -57 -78 -64 -71 -3 4 -6 1 -6 -6 0 -6 -13 -24 -28 -39 -16 -15
-26 -34 -24 -41 3 -8 1 -11 -4 -8 -12 7 -35 -19 -26 -29 4 -4 -1 -4 -10 -1
-12 4 -18 1 -18 -8 0 -8 -8 -19 -17 -24 -10 -6 -14 -11 -8 -11 5 0 -2 -8 -15
-17 -14 -10 -28 -17 -32 -16 -4 2 -4 -5 -1 -14 5 -12 3 -14 -7 -8 -10 6 -12 4
-7 -8 4 -11 1 -17 -8 -17 -8 0 -21 -12 -29 -27 -8 -16 -15 -23 -16 -18 0 6 -4
3 -10 -5 -5 -9 -5 -19 2 -27 8 -10 7 -12 -4 -8 -18 7 -52 -30 -42 -46 4 -7 3
-10 -4 -5 -9 6 -28 -29 -24 -45 0 -4 -15 -21 -34 -39 -23 -20 -33 -37 -29 -47
4 -13 3 -14 -10 -3 -14 12 -17 8 -14 -17 0 -3 -6 -10 -15 -15 -9 -5 -16 -18
-16 -28 0 -10 -5 -22 -12 -26 -7 -5 -8 -3 -3 5 5 10 3 10 -13 0 -11 -7 -18
-18 -15 -24 2 -7 -6 -15 -17 -18 -12 -3 -20 -10 -17 -15 3 -4 -3 -14 -13 -22
-10 -8 -16 -18 -13 -23 3 -6 1 -7 -5 -3 -6 3 -17 -3 -26 -15 -8 -12 -19 -18
-25 -14 -6 3 -11 -1 -11 -9 0 -9 -5 -16 -11 -16 -6 0 -8 -7 -5 -16 3 -8 2 -13
-3 -9 -16 10 -40 -6 -34 -22 4 -9 2 -14 -3 -11 -5 2 -19 -6 -32 -20 l-23 -24
23 7 c18 5 20 4 8 -4 -10 -7 -11 -14 -5 -18 12 -9 14 -33 3 -33 -32 0 -33 1
-19 9 15 9 7 31 -11 31 -6 0 -8 -3 -5 -6 4 -4 -2 -15 -13 -24 -10 -9 -21 -29
-24 -44 -3 -16 -8 -31 -12 -35 -4 -3 -4 2 -1 11 3 10 2 20 -3 23 -6 4 -10 0
-10 -8 0 -8 -7 -17 -15 -21 -8 -3 -15 -11 -15 -18 0 -9 3 -9 10 2 7 12 9 10 8
-7 -1 -13 -7 -19 -15 -16 -8 3 -13 2 -12 -3 3 -11 -40 -104 -47 -104 -3 0 -2
5 2 12 5 7 3 8 -5 4 -7 -5 -10 -10 -7 -13 3 -3 -1 -18 -10 -34 -8 -16 -12 -29
-9 -29 3 0 0 -6 -7 -14 -7 -8 -17 -12 -21 -9 -5 3 -4 -4 2 -14 13 -26 4 -35
-22 -22 -11 7 -17 7 -13 1 3 -5 -3 -21 -15 -35 -11 -15 -21 -30 -22 -34 -1 -4
-6 -7 -11 -5 -5 2 -4 -3 3 -11 9 -12 8 -18 -5 -32 -9 -9 -18 -27 -20 -40 -1
-13 -6 -30 -10 -37 -5 -7 -7 -21 -6 -30 2 -10 -2 -18 -8 -18 -7 0 -9 -7 -6
-16 3 -8 2 -12 -4 -9 -6 3 -10 2 -10 -4 0 -5 -10 -13 -21 -16 -17 -6 -19 -9
-8 -16 11 -7 10 -9 -3 -9 -10 0 -18 -7 -18 -15 0 -8 -4 -15 -8 -15 -5 0 -15
-11 -22 -25 -7 -14 -16 -23 -18 -20 -3 3 -10 -5 -16 -17 -6 -13 -21 -28 -34
-34 -12 -6 -30 -20 -39 -32 -45 -53 -52 -62 -48 -62 5 0 -19 -32 -48 -62 -10
-11 -16 -22 -13 -25 3 -3 -4 -14 -15 -24 -11 -9 -20 -20 -20 -23 3 -21 0 -26
-11 -20 -8 5 -9 2 -5 -9 4 -10 2 -16 -6 -14 -7 1 -11 -3 -10 -9 1 -7 -6 -10
-18 -7 -11 3 -19 2 -18 -3 3 -20 -2 -35 -10 -29 -5 3 -17 -2 -25 -11 -9 -8
-16 -12 -16 -7 0 4 -4 2 -9 -5 -4 -7 -18 -14 -30 -15 -12 -1 -20 -6 -17 -14 3
-7 -1 -10 -10 -6 -8 3 -23 -4 -34 -17 -11 -13 -20 -19 -20 -15 0 5 -14 -4 -32
-21 -18 -16 -26 -21 -19 -11 20 26 9 21 -29 -13 -19 -17 -40 -28 -47 -25 -11
3 -11 0 -3 -15 6 -11 7 -20 3 -19 -28 5 -47 -2 -33 -11 13 -9 7 -14 -12 -11
-5 0 -8 -4 -8 -9 0 -5 -3 -9 -7 -9 -21 3 -24 -3 -12 -19 13 -16 12 -16 -4 -3
-16 13 -20 13 -28 0 -8 -12 -10 -12 -19 1 -7 12 -10 12 -10 1 0 -7 -6 -11 -14
-8 -8 3 -20 -1 -26 -8 -7 -8 -16 -13 -20 -10 -5 3 -10 0 -12 -6 -2 -6 -19 -11
-38 -12 -19 -2 -41 -6 -49 -11 -9 -6 -12 -5 -8 2 5 6 -2 6 -18 -1 -14 -7 -25
-16 -25 -20 0 -5 -5 -5 -10 -2 -6 3 -13 -1 -16 -9 -3 -9 -10 -13 -16 -10 -5 3
-12 -3 -15 -15 -3 -11 -9 -19 -13 -16 -5 3 -12 -4 -15 -15 -6 -18 -9 -19 -22
-8 -14 12 -15 11 -5 -9 14 -26 15 -45 1 -21 -6 12 -19 16 -39 13 -22 -3 -34 2
-46 18 -12 16 -15 17 -11 5 4 -10 2 -28 -3 -40 -10 -23 -10 -23 -9 2 2 45 -1
60 -12 60 -5 0 -8 -4 -5 -9 4 -5 -5 -4 -19 2 -14 7 -25 15 -25 19 0 3 -10 4
-22 0 -16 -4 -19 -2 -13 9 7 11 5 11 -10 -1 -11 -9 -16 -10 -11 -2 4 6 3 12
-3 12 -5 0 -12 -6 -14 -12 -4 -10 -6 -10 -6 0 -1 6 -6 12 -12 12 -5 0 -7 -5
-3 -12 4 -7 3 -8 -4 -4 -6 4 -8 14 -5 24 6 15 5 16 -12 2 -11 -9 -16 -10 -11
-2 4 6 1 18 -6 25 -20 19 -119 66 -111 53 7 -12 -29 16 -60 47 -10 9 -22 15
-27 12 -5 -3 -7 4 -5 15 3 18 1 19 -17 9 -11 -6 -18 -7 -14 -1 3 5 -2 16 -11
23 -14 12 -16 12 -9 -1 6 -12 5 -12 -6 1 -8 9 -27 14 -48 14 -19 -1 -43 5 -53
14 -16 14 -17 13 -12 -5 7 -19 6 -19 -9 0 -9 11 -16 16 -16 10 0 -5 -5 -2 -10
6 -7 10 -10 11 -10 2 0 -10 -4 -10 -19 0 -11 7 -18 15 -15 19 4 6 -37 22 -61
23 -5 1 -13 4 -16 9 -3 4 -16 10 -30 12 -13 3 -25 9 -27 15 -2 5 -11 10 -20
10 -22 0 -43 33 -32 51 5 8 4 19 -2 27 -9 10 -8 16 3 23 10 6 10 9 2 9 -17 0
-17 37 0 43 9 4 9 6 0 6 -7 1 -13 6 -13 12 0 5 6 7 13 3 9 -6 9 -4 1 7 -6 8
-10 22 -9 31 2 11 -2 15 -13 11 -11 -5 -13 -3 -7 7 5 9 4 11 -3 6 -7 -4 -12
-3 -12 3 0 5 8 12 18 14 16 4 16 5 0 6 -10 0 -18 6 -18 12 0 5 6 7 13 3 6 -4
3 2 -7 14 -21 24 -30 29 -21 10 4 -7 -1 -4 -9 6 -9 11 -16 24 -16 29 0 4 -5 5
-12 1 -8 -5 -9 -2 -5 10 5 12 3 15 -6 9 -22 -13 -49 -14 -42 -1 4 7 1 6 -7 -2
-7 -8 -26 -16 -41 -17 -16 -1 -42 -9 -58 -17 -16 -8 -29 -10 -29 -5 0 21 -49
-38 -70 -84 -27 -56 -39 -66 -56 -43 -7 10 -15 13 -18 7 -7 -10 -66 18 -66 31
0 4 -21 10 -46 14 -48 7 -86 -15 -76 -44 2 -7 -2 -20 -10 -29 -7 -9 -8 -14 -2
-10 7 4 14 1 16 -6 7 -16 -2 -38 -11 -32 -5 2 -13 -7 -19 -20 -7 -14 -8 -25
-3 -25 4 0 7 -11 6 -24 -2 -19 1 -23 13 -19 11 5 13 3 6 -8 -12 -20 -14 -40
-3 -33 5 3 6 10 3 16 -4 7 -2 8 5 4 6 -4 10 -13 9 -19 -1 -7 3 -22 10 -34 7
-13 9 -23 5 -23 -4 0 -1 -5 7 -10 8 -5 10 -10 5 -10 -6 0 -11 -9 -11 -19 0
-11 4 -17 8 -15 4 3 8 1 8 -5 0 -5 -6 -12 -12 -14 -10 -4 -10 -6 0 -6 8 -1 10
-6 6 -13 -5 -9 -2 -8 9 1 16 12 17 12 11 -5 -5 -16 -3 -16 14 4 23 25 42 31
21 6 -12 -15 -11 -16 11 -10 l25 7 -25 -15 c-14 -8 -28 -12 -32 -10 -5 3 -8 0
-8 -7 0 -9 -3 -9 -14 0 -11 9 -16 9 -22 0 -4 -8 -3 -9 4 -5 14 9 15 -3 2 -24
-5 -9 -5 -19 2 -27 7 -9 7 -13 -1 -13 -6 0 -3 -8 6 -18 12 -12 21 -14 25 -8 5
7 11 6 20 -3 11 -11 11 -13 -1 -6 -10 5 -12 4 -7 -4 4 -6 12 -9 17 -6 5 4 9 2
9 -3 0 -5 9 -12 20 -15 13 -3 18 -1 13 6 -4 7 1 6 10 -2 9 -7 17 -21 17 -30 1
-13 3 -13 16 4 14 19 15 19 21 -3 4 -18 8 -20 14 -10 6 10 9 8 9 -7 0 -17 2
-17 10 -5 10 15 15 3 11 -22 0 -5 2 -7 7 -7 4 1 12 1 17 0 14 -1 70 -51 68
-59 -1 -4 5 -6 14 -4 10 2 12 -1 7 -9 -5 -9 -2 -10 12 -5 15 5 16 4 7 -5 -15
-15 24 -59 54 -62 12 0 19 -6 16 -14 -6 -14 21 -45 31 -36 3 4 6 -1 6 -9 0 -9
13 -26 29 -39 16 -13 27 -27 25 -31 -3 -4 1 -5 9 -2 8 3 18 0 23 -7 4 -8 3
-10 -4 -5 -7 4 -12 5 -12 1 0 -3 11 -10 25 -15 16 -6 23 -15 19 -24 -3 -8 3
-19 15 -26 12 -6 21 -20 21 -30 0 -11 6 -20 13 -20 8 0 24 -12 38 -27 l24 -28
-29 25 -30 25 25 -31 c13 -17 26 -30 28 -28 9 8 31 -19 31 -37 0 -11 7 -19 16
-19 9 0 12 -5 8 -12 -5 -8 -2 -9 10 -5 14 6 15 4 5 -16 -6 -12 -8 -19 -4 -15
9 8 35 -14 28 -24 -2 -4 4 -5 13 -1 11 4 15 3 11 -4 -9 -15 3 -44 14 -37 5 3
9 -2 9 -10 0 -9 5 -16 11 -16 5 0 7 -5 4 -10 -4 -6 -3 -10 2 -9 26 4 38 -1 23
-11 -13 -8 -12 -10 2 -10 10 0 17 -3 17 -7 -4 -26 2 -35 15 -24 12 10 13 8 9
-10 -4 -14 -2 -20 4 -16 6 4 14 0 17 -9 4 -10 2 -13 -7 -8 -6 4 0 -5 16 -21
15 -15 27 -32 27 -37 0 -5 5 -6 11 -2 7 4 7 -1 -1 -16 -9 -17 -9 -21 0 -15 7
4 13 -1 17 -14 3 -12 12 -21 20 -21 9 0 13 -6 10 -14 -4 -11 -1 -13 10 -9 10
4 14 2 9 -5 -3 -6 -2 -13 4 -17 6 -4 7 -12 4 -18 -4 -7 -4 -9 1 -5 9 8 35 -15
35 -31 0 -6 9 -20 21 -32 11 -11 21 -29 22 -39 1 -10 4 -18 7 -18 20 2 29 -4
24 -17 -4 -8 1 -17 10 -21 9 -3 16 -11 16 -17 0 -6 8 -19 18 -30 10 -12 11
-17 3 -12 -10 6 -12 4 -7 -4 5 -7 15 -10 23 -7 8 3 11 1 8 -4 -4 -6 2 -18 12
-28 11 -9 12 -13 3 -7 -10 6 -9 2 4 -12 10 -13 23 -20 29 -16 6 3 7 1 3 -5 -4
-6 0 -22 9 -35 8 -13 12 -27 8 -30 -3 -4 -1 -7 6 -7 7 0 9 -4 6 -10 -3 -5 -1
-10 4 -10 6 0 11 -5 11 -11 0 -18 44 -109 53 -109 5 0 5 -4 2 -10 -3 -5 1 -10
9 -10 19 0 20 -11 4 -29 -7 -8 -8 -11 -2 -8 10 6 48 -47 49 -68 0 -5 8 -19 18
-30 9 -11 17 -23 17 -27 0 -4 16 -23 35 -43 19 -19 35 -37 35 -40 0 -3 9 -14
20 -25 11 -11 20 -17 20 -14 0 4 9 -5 20 -19 11 -14 20 -33 20 -44 0 -15 2
-16 10 -3 8 13 10 12 10 -2 0 -16 11 -22 32 -19 4 0 5 -6 2 -14 -4 -11 1 -15
16 -15 15 0 20 -5 17 -14 -4 -9 0 -13 11 -12 20 3 42 -15 34 -28 -3 -5 3 -6
13 -2 16 6 16 4 4 -11 -8 -9 -9 -14 -3 -10 11 6 54 -35 54 -53 0 -6 7 -10 15
-10 8 0 19 -9 24 -19 6 -10 24 -24 41 -29 16 -6 30 -14 30 -17 0 -3 -5 -3 -12
1 -7 5 -8 3 -3 -5 5 -9 10 -10 18 -2 14 14 30 14 22 1 -3 -6 0 -10 9 -10 8 0
17 6 20 13 3 6 3 2 0 -11 -3 -12 -2 -22 3 -21 21 4 32 -3 38 -22 6 -17 9 -18
23 -7 12 10 14 10 8 1 -4 -8 -2 -13 4 -13 6 0 9 -4 6 -9 -4 -5 3 -7 14 -4 15
4 20 0 20 -13 0 -16 2 -17 10 -4 8 12 10 12 10 1 0 -8 7 -11 19 -8 15 3 18 1
14 -11 -5 -12 -2 -14 11 -9 14 6 17 3 12 -9 -6 -15 -4 -15 11 -3 10 8 14 9 10
2 -8 -13 30 -39 52 -34 8 1 10 -2 5 -11 -5 -9 -2 -8 11 2 17 14 17 13 10 -10
-7 -25 -7 -25 10 -5 9 11 14 15 11 9 -8 -18 35 -49 45 -33 5 8 9 9 9 3 0 -5
-6 -16 -12 -23 -11 -11 -9 -11 9 -2 30 15 38 14 23 -4 -11 -13 -10 -14 4 -9 9
4 18 0 22 -9 3 -9 13 -13 25 -10 13 4 19 0 19 -11 0 -10 4 -15 9 -12 5 3 12
-1 15 -10 4 -10 14 -14 26 -11 11 3 18 1 14 -4 -5 -9 9 -13 35 -10 7 2 10 -2
6 -8 -9 -15 8 -14 24 1 7 7 12 9 11 3 -5 -23 1 -27 18 -12 15 14 19 15 19 2 0
-8 -5 -11 -10 -8 -6 3 -7 1 -3 -6 5 -7 12 -9 19 -3 21 16 60 22 48 8 -9 -10
-4 -11 23 -2 19 6 32 14 30 18 -3 4 0 8 5 8 6 0 11 -9 11 -21 0 -16 4 -19 17
-15 9 4 33 -4 57 -20 23 -15 35 -20 27 -11 -23 28 -4 19 30 -14 18 -17 29 -24
26 -16 -3 9 1 18 9 21 9 3 12 1 9 -4 -12 -20 7 -32 20 -13 13 17 14 16 8 -4
-4 -19 -1 -23 16 -23 11 0 21 -4 21 -10 0 -5 9 -10 21 -10 13 0 18 -4 13 -12
-5 -10 -4 -10 6 -1 10 9 16 8 29 -6 9 -9 12 -11 7 -4 -6 10 -4 12 8 7 9 -3 16
-10 16 -15 0 -5 3 -8 8 -8 21 4 32 -2 26 -14 -6 -8 -3 -8 9 1 14 12 17 10 23
-14 7 -25 8 -26 15 -9 4 11 8 15 8 8 1 -7 11 -18 24 -24 21 -12 21 -11 7 6
-12 15 -12 17 -1 10 22 -13 81 -14 81 -2 0 6 6 2 14 -9 8 -10 18 -16 22 -11 4
4 2 7 -4 7 -7 0 -12 4 -12 9 0 10 43 7 61 -5 8 -4 9 -3 5 4 -4 7 -2 12 3 12
19 0 26 2 43 11 10 6 19 5 23 -1 3 -5 12 -10 18 -10 8 0 8 3 -1 9 -10 6 -9 11
4 22 12 9 15 10 10 1 -4 -6 -2 -12 3 -12 6 0 11 5 11 11 0 8 6 7 17 -2 10 -8
14 -9 10 -2 -4 6 -3 14 3 18 5 3 10 1 10 -5 0 -6 5 -8 10 -5 6 4 7 11 4 17 -4
7 -2 8 4 4 7 -4 12 -1 12 6 0 10 3 9 9 -1 8 -12 13 -11 31 10 19 21 21 21 16
4 -5 -17 -4 -17 12 4 15 18 21 21 27 11 6 -9 4 -11 -5 -5 -9 5 -11 4 -6 -4 4
-6 12 -9 17 -5 5 3 7 9 4 14 -3 5 4 14 16 20 17 10 20 9 14 -1 -5 -6 11 7 33
29 23 23 49 42 57 42 8 0 14 4 13 9 -2 5 6 17 17 28 11 10 25 27 32 38 6 11
16 19 23 17 6 -1 9 2 5 8 -3 5 0 10 7 10 9 0 9 3 -2 10 -12 8 -10 10 9 10 21
0 22 2 10 18 -7 9 -9 14 -5 10 5 -5 14 2 21 15 6 12 18 21 25 19 11 -3 11 0 0
13 -11 13 -10 19 6 37 12 14 14 18 4 13 -13 -8 -13 -6 -1 8 7 9 18 14 25 10 6
-4 4 2 -4 12 -14 17 -13 18 2 12 10 -3 20 -1 24 5 4 7 3 8 -4 4 -6 -3 -16 2
-22 13 -8 16 -6 22 7 30 14 8 15 10 3 11 -13 0 -13 1 0 10 8 5 10 10 5 10 -6
0 -11 9 -11 20 0 11 7 20 15 20 11 0 10 4 -5 15 -13 10 -14 14 -5 15 10 0 11
3 2 14 -10 11 -9 16 5 24 11 6 13 12 6 16 -6 4 -8 14 -5 23 4 11 3 14 -5 9 -7
-4 -12 -2 -12 3 0 6 5 11 11 11 8 0 8 5 -1 15 -10 12 -10 18 1 32 10 11 10 14
2 9 -11 -6 -17 16 -12 50 0 4 -5 11 -13 15 -10 7 -10 12 -1 28 10 17 9 18 -10
15 -12 -2 -16 -1 -8 2 11 5 8 10 -10 21 -13 8 -16 12 -7 9 15 -4 15 -2 2 30
-8 18 -14 36 -14 39 1 50 -1 59 -10 45 -7 -11 -10 -11 -10 -2 0 7 -5 10 -12 6
-7 -5 -8 -3 -4 5 5 8 0 14 -13 18 -11 3 -18 9 -15 14 5 8 -9 13 -28 10 -5 0
-8 4 -8 9 0 6 6 10 13 10 6 1 2 6 -10 13 -12 7 -21 17 -20 22 1 6 -8 14 -20
20 -12 5 -24 16 -26 25 -2 9 -21 24 -41 34 -33 15 -41 26 -37 49 1 4 -8 3 -19
-3 -16 -8 -18 -8 -14 4 3 8 0 17 -5 21 -6 3 -9 11 -6 16 4 5 -3 9 -15 9 -12 0
-19 4 -16 9 8 13 -20 21 -32 9 -6 -6 -12 -6 -17 3 -6 8 -4 10 5 4 8 -5 11 -4
7 3 -4 5 -15 9 -25 8 -9 -2 -20 2 -24 8 -5 7 -8 6 -8 -4 0 -11 -2 -12 -8 -3
-4 7 -25 15 -45 17 -25 4 -35 2 -31 -5 4 -8 1 -8 -12 -1 -11 5 -24 7 -31 5 -6
-2 -14 0 -17 6 -4 6 -18 6 -36 1 -19 -5 -30 -5 -30 1 0 6 -4 7 -10 4 -5 -3
-10 -2 -10 4 0 5 -9 8 -20 6 -11 -2 -20 0 -20 5 0 5 -9 12 -20 15 -11 4 -18
10 -15 15 3 5 0 12 -6 16 -8 4 -9 3 -5 -4 11 -18 -3 -14 -32 9 -17 13 -28 16
-30 9 -3 -7 -10 -2 -19 10 -12 17 -18 19 -29 9 -10 -8 -14 -8 -14 0 0 6 -6 10
-12 8 -7 -1 -12 4 -10 11 2 9 -2 11 -10 6 -17 -11 -39 -14 -34 -5 3 4 -4 13
-16 20 -11 7 -17 8 -13 2 3 -6 1 -11 -4 -11 -6 0 -11 7 -11 15 0 9 -6 12 -17
8 -11 -4 -14 -3 -9 5 4 7 1 12 -8 12 -9 0 -16 5 -16 10 0 6 -7 10 -15 10 -8 0
-15 5 -15 10 0 6 -6 10 -14 10 -8 0 -17 6 -19 13 -4 9 -6 9 -6 0 -1 -7 -6 -13
-12 -13 -5 0 -8 4 -5 8 2 4 -3 13 -13 19 -15 9 -18 9 -17 -4 0 -9 -6 -18 -14
-20 -13 -4 -13 -3 0 6 13 9 12 11 -4 11 -15 0 -16 3 -7 14 10 12 8 13 -8 9
-12 -3 -21 -1 -21 6 0 6 -10 11 -22 11 -21 0 -21 0 -2 15 16 13 16 14 2 9 -12
-4 -18 -1 -18 7 0 11 -3 11 -10 -1 -5 -8 -10 -10 -10 -5 0 6 6 17 13 24 10 11
8 13 -10 8 -16 -3 -20 -1 -16 10 4 9 -2 16 -16 20 -11 3 -19 9 -16 13 2 4 -8
6 -22 4 -15 -1 -35 2 -46 7 -13 7 -23 7 -33 -2 -11 -9 -14 -9 -14 0 0 7 -4 10
-9 7 -5 -3 -23 7 -42 23 -19 17 -42 28 -56 26 -13 -1 -23 2 -23 7 0 13 -56
-22 -58 -36 -11 -82 -1 -218 19 -242 8 -10 9 -15 2 -11 -7 5 -9 0 -6 -13 3
-11 9 -17 14 -14 5 3 9 -4 9 -16 0 -12 4 -18 10 -15 6 3 7 -1 4 -10 -4 -9 1
-22 12 -31 11 -9 12 -12 4 -8 -8 5 -5 -4 8 -20 12 -16 19 -32 16 -37 -3 -5 2
-6 11 -3 10 4 15 2 13 -7 -2 -9 4 -13 16 -11 17 3 18 1 7 -12 -10 -12 -9 -17
7 -27 11 -7 18 -19 15 -26 -3 -8 2 -13 15 -13 17 0 32 -17 31 -36 0 -3 8 -12
18 -20 17 -13 17 -14 -2 -9 -15 4 -15 3 3 -7 15 -7 22 -18 19 -30 -3 -10 -2
-16 3 -13 4 3 10 -2 14 -10 3 -8 1 -15 -4 -15 -5 0 -6 -7 -3 -17 5 -12 3 -14
-8 -8 -12 8 -12 6 0 -8 11 -14 11 -17 0 -17 -10 0 -10 -3 -2 -11 6 -6 9 -18 6
-25 -3 -8 0 -14 7 -14 6 0 8 5 5 10 -3 6 2 10 12 10 11 0 24 5 31 12 6 6 15 9
19 5 3 -4 -2 -14 -13 -23 -14 -12 -12 -12 11 1 17 10 27 14 22 10 -4 -5 0 -16
9 -26 9 -10 14 -27 11 -38 -5 -20 7 -22 32 -7 9 6 12 5 7 -2 -3 -6 -2 -14 4
-17 8 -5 7 -11 -1 -21 -9 -11 -9 -14 0 -14 7 0 10 -4 6 -9 -10 -17 18 -24 30
-8 14 19 53 18 78 -3 26 -22 20 -35 -8 -16 -29 19 -46 22 -20 3 12 -10 14 -16
7 -21 -7 -4 -12 -13 -12 -19 0 -7 5 -4 11 5 5 9 16 15 24 12 8 -4 13 -10 10
-14 -9 -14 16 -23 28 -11 9 9 8 11 -5 6 -14 -5 -16 -2 -13 17 7 42 -48 88 -84
69 -10 -6 -21 -7 -25 -3 -4 3 -4 -1 0 -11 3 -9 2 -17 -4 -17 -14 0 -8 35 6 36
7 1 17 2 23 3 5 0 7 7 3 14 -4 6 -4 9 1 5 4 -4 14 -3 21 3 8 7 14 6 20 -2 5
-8 3 -9 -6 -4 -9 5 -11 4 -6 -4 4 -6 12 -9 17 -5 5 3 7 9 4 14 -3 5 -1 11 5
15 5 3 10 -1 10 -10 0 -14 3 -13 27 2 15 10 24 13 20 6 -4 -6 -3 -14 3 -18 5
-3 10 -1 10 4 0 6 5 11 11 11 8 0 9 -4 0 -13 -8 -11 -5 -16 14 -25 14 -6 25
-17 25 -24 0 -9 3 -8 11 2 8 11 9 9 3 -10 -6 -23 -6 -24 11 -10 11 9 16 10 11
3 -4 -7 -3 -13 3 -13 5 0 13 5 16 10 3 6 11 10 17 10 5 0 0 -9 -13 -19 -17
-14 -26 -16 -31 -8 -4 7 -8 8 -8 4 0 -4 -10 -2 -22 5 -29 15 -48 19 -48 8 0
-12 33 -26 68 -29 7 0 11 -5 7 -11 -3 -5 -11 -8 -18 -6 -7 1 -9 1 -4 -1 4 -3
5 -8 3 -12 -3 -4 4 -8 16 -8 13 -1 18 3 14 12 -10 26 58 54 80 33 8 -8 34 1
34 12 0 5 -8 7 -18 5 -10 -2 -24 0 -30 4 -10 6 75 8 100 3 4 -1 -2 -19 -13
-39 l-21 -38 22 20 23 20 -13 -24 c-11 -21 -10 -23 5 -17 14 5 16 4 6 -8 -14
-17 -3 -49 15 -42 32 13 47 16 27 5 -13 -7 -23 -16 -23 -20 0 -5 -6 -7 -12 -5
-7 1 -10 1 -5 -1 4 -3 4 -10 0 -16 -4 -6 7 -1 24 11 33 23 53 28 53 12 0 -5
-8 -7 -17 -4 -17 5 -17 5 -1 -6 27 -17 4 -60 -29 -54 -14 3 -22 1 -19 -5 4 -5
2 -13 -4 -16 -6 -4 -10 -3 -9 2 3 19 -2 33 -12 33 -5 0 -7 -4 -4 -10 4 -6 -5
-10 -19 -10 -14 0 -26 -6 -26 -12 0 -9 -3 -9 -8 -3 -11 16 -96 20 -87 4 5 -7
4 -10 -3 -5 -6 3 -9 15 -7 25 3 14 -1 18 -16 14 -10 -3 -19 -10 -19 -16 0 -6
-3 -7 -7 -4 -3 4 -16 -1 -27 -10 -15 -13 -14 -10 3 10 14 15 21 30 18 34 -4 3
-7 1 -7 -5 0 -19 -20 -14 -21 6 -1 11 -3 9 -8 -7 -4 -14 -12 -26 -19 -27 -7
-1 -8 0 -2 3 18 9 11 18 -15 18 -14 0 -25 -4 -25 -10 0 -5 -4 -4 -9 4 -11 18
-44 24 -35 8 3 -7 -6 1 -19 17 -16 18 -29 26 -37 21 -8 -5 -11 -4 -6 3 3 6 2
13 -4 17 -6 4 -7 12 -3 18 5 9 2 8 -8 0 -13 -10 -16 -10 -16 2 0 8 4 15 9 15
5 0 6 6 1 13 -4 6 -8 17 -8 22 0 6 -4 10 -10 11 -28 2 -47 17 -33 26 9 7 6 8
-10 5 -20 -5 -22 -3 -10 11 7 9 9 14 4 10 -5 -4 -15 0 -23 8 -13 12 -11 18 11
45 29 34 30 38 17 58 -5 8 -16 11 -26 7 -17 -6 -17 -8 1 -27 17 -19 17 -20
-10 -47 -16 -16 -24 -20 -21 -11 4 10 1 20 -6 25 -8 4 -10 3 -5 -4 4 -7 2 -12
-3 -12 -6 0 -11 9 -11 20 0 11 -5 20 -11 20 -5 0 -7 5 -3 12 5 8 2 9 -9 5 -10
-3 -17 -2 -17 4 0 6 -5 7 -12 3 -7 -4 -8 -3 -4 4 4 7 2 12 -4 12 -6 0 -20 9
-32 20 -12 11 -28 20 -35 20 -7 0 -13 5 -13 10 0 6 -7 10 -15 10 -8 0 -15 5
-15 10 0 6 -8 10 -17 10 -15 0 -16 2 -3 10 8 5 10 10 5 10 -6 0 -23 11 -38 25
-15 14 -27 24 -27 21 0 -2 -14 9 -32 25 -24 23 -33 27 -39 17 -7 -10 -9 -9 -9
4 0 9 -5 20 -12 24 -7 5 -8 2 -3 -7 11 -19 -45 43 -70 78 -11 15 -35 42 -53
60 -18 18 -34 41 -35 52 -1 11 -6 17 -14 14 -8 -3 -13 -2 -12 3 3 14 -18 61
-31 69 -6 4 -15 18 -20 31 -5 13 -16 24 -25 24 -8 0 -15 7 -15 16 0 8 -4 12
-10 9 -5 -3 -10 -1 -10 6 0 7 -3 9 -7 6 -3 -4 -17 5 -30 19 -13 14 -30 23 -38
20 -9 -3 -12 0 -8 10 3 7 0 14 -7 14 -6 0 -8 5 -4 13 5 8 2 7 -10 -2 -11 -10
-13 -16 -6 -21 6 -4 10 -13 8 -21 -2 -8 3 -13 10 -11 8 1 11 -2 6 -9 -5 -9 -2
-10 9 -6 14 5 15 3 5 -18 -6 -13 -15 -22 -21 -18 -5 3 -3 9 4 14 14 9 12 10
-13 13 -7 1 -14 10 -14 21 -1 11 -3 25 -4 30 -1 6 -2 14 -1 19 1 4 -6 15 -16
23 -17 14 -17 14 2 9 19 -6 19 -5 1 8 -10 9 -15 20 -10 27 4 8 3 10 -4 5 -7
-4 -12 -2 -12 5 0 7 -8 21 -17 32 -10 11 -12 17 -5 13 11 -7 12 -4 3 13 -7 11
-16 21 -21 21 -5 0 -7 9 -5 21 4 18 2 19 -12 7 -10 -7 -14 -8 -10 -1 4 6 2 13
-4 15 -6 2 -12 15 -12 30 -1 14 -5 24 -9 21 -5 -2 -8 1 -8 7 0 6 -4 8 -10 5
-5 -3 -10 1 -10 10 0 9 -5 13 -11 10 -6 -4 -17 1 -25 11 -9 11 -12 12 -8 4 7
-12 5 -13 -8 -3 -8 7 -18 10 -21 6 -4 -3 -7 -1 -7 5 0 7 -6 11 -12 9 -8 -1
-12 6 -10 17 2 11 -1 15 -7 11 -10 -6 -16 8 -12 28 1 5 -3 6 -9 2 -6 -3 -7
-11 -4 -17 5 -7 2 -8 -5 -4 -7 5 -10 15 -6 23 4 12 2 13 -8 5 -7 -6 -18 -8
-24 -4 -8 5 -1 13 17 24 21 12 32 13 36 6 5 -7 2 -8 -6 -3 -9 5 -11 4 -6 -4 5
-7 12 -9 19 -3 18 14 49 23 43 13 -3 -5 1 -12 10 -15 8 -3 13 -2 10 3 -3 5 1
12 10 15 12 4 15 2 10 -9 -3 -8 -1 -15 3 -15 5 0 12 7 15 16 5 12 10 13 19 6
20 -17 72 -8 71 12 -2 16 0 16 19 -1 11 -10 18 -13 14 -8 -3 6 3 17 15 24 11
7 17 8 14 3 -3 -6 5 -9 18 -8 17 1 21 4 15 12 -7 8 -1 11 21 9 22 -2 30 2 31
14 0 11 2 12 6 3 4 -10 8 -10 21 0 13 11 14 11 7 -2 -7 -12 -6 -13 6 -3 8 7
33 14 54 16 22 3 41 10 43 16 2 6 8 9 13 5 5 -3 9 0 9 7 0 8 4 8 15 -1 13 -11
14 -10 8 6 -6 16 -5 17 9 6 12 -10 18 -10 23 -1 4 6 1 15 -6 20 -13 8 7 14 34
10 4 0 7 4 7 10 0 6 7 8 15 5 9 -3 18 1 22 10 3 9 12 13 21 9 9 -3 13 -3 9 1
-8 9 43 45 54 38 4 -2 10 5 14 15 4 13 11 18 22 14 11 -4 14 -2 9 5 -5 8 -1
10 10 5 13 -5 16 -2 12 9 -6 15 47 19 70 4 6 -4 8 3 5 16 -4 19 -3 20 6 8 8
-11 11 -11 11 -2 0 9 5 10 19 2 29 -15 38 -12 15 5 -13 11 -14 14 -4 13 8 -2
14 2 13 7 -2 14 40 14 50 1 5 -6 6 -2 2 10 -4 17 4 29 34 55 22 18 37 37 34
43 -3 6 -3 8 2 4 4 -4 18 1 32 11 25 20 60 21 55 1 -1 -6 3 -8 9 -5 8 5 8 10
0 18 -18 18 -12 25 19 21 17 -2 30 1 30 7 0 6 7 9 15 5 8 -3 15 -1 15 5 0 6 7
8 16 5 8 -3 13 -2 10 2 -3 5 6 16 19 26 14 10 22 23 18 29 -3 6 -1 7 6 3 11
-7 36 11 39 29 1 6 7 11 12 11 6 1 15 2 21 3 5 0 8 5 5 10 -3 5 1 12 10 15 22
9 26 8 18 -6 -4 -7 -3 -8 4 -4 6 4 8 14 5 23 -4 10 -2 14 4 10 6 -4 14 0 17 9
3 8 10 12 16 9 6 -4 7 1 3 12 -6 16 -5 17 12 3 10 -8 16 -10 12 -4 -8 13 16
37 26 27 4 -3 7 0 7 8 0 8 13 23 29 34 16 10 27 23 25 27 -3 5 -2 8 3 7 20 -3
34 2 28 11 -3 6 2 10 12 10 15 0 16 2 3 10 -13 8 -12 10 2 10 10 0 17 4 15 8
-3 11 49 62 64 62 7 0 10 3 6 6 -8 8 16 33 26 27 4 -2 7 3 7 12 0 9 5 13 10
10 6 -4 10 -3 9 2 -1 4 0 10 1 13 1 3 3 17 4 31 2 23 -1 25 -15 16 -16 -10
-16 -12 -2 -22 13 -10 10 -11 -16 -7 -27 4 -30 2 -24 -13 4 -13 3 -16 -6 -11
-6 4 -19 2 -27 -5 -11 -9 -18 -9 -26 -1 -9 9 -8 12 6 12 9 0 14 4 11 10 -3 6
-1 10 5 10 6 0 9 4 5 9 -3 5 3 16 13 23 12 8 18 22 16 36 -2 12 1 22 7 22 5 0
8 4 5 8 -3 5 4 16 15 26 20 17 20 18 2 38 -20 23 -20 27 -1 39 7 5 13 14 13
21 1 7 7 12 14 10 8 -2 10 4 6 18 -7 23 4 26 25 8 12 -11 12 -10 3 2 -11 16
-25 66 -16 56 8 -8 33 20 33 38 0 8 5 18 10 21 6 4 7 12 3 18 -4 7 0 7 10 -1
14 -12 16 -11 12 6 -2 12 3 23 12 26 8 4 13 12 10 20 -3 7 6 30 19 50 14 20
21 36 17 36 -4 0 2 6 13 14 10 8 20 19 20 25 1 6 3 13 4 16 1 3 4 10 5 15 1 6
4 12 5 15 1 3 3 8 4 13 8 32 19 51 27 46 5 -3 9 -2 8 3 -4 26 2 44 14 37 8 -5
8 -2 -2 9 -9 12 -10 17 -2 17 7 0 9 5 6 10 -3 6 0 13 9 16 9 3 12 12 9 21 -4
9 -2 14 3 10 5 -3 10 2 11 11 2 33 13 67 22 70 6 2 8 9 5 17 -3 7 0 16 5 20 6
3 9 11 6 16 -4 5 -2 9 4 9 5 0 8 8 6 18 -1 9 4 29 12 45 7 15 10 27 6 27 -5 0
0 5 10 11 9 6 15 14 12 20 -4 5 -1 9 4 9 6 0 10 3 9 8 -4 11 24 72 33 72 4 0
6 9 4 20 -2 11 3 21 13 24 9 3 23 15 30 27 11 17 11 20 0 14 -7 -4 -2 3 12 14
14 11 21 21 16 21 -6 0 -1 7 10 16 10 8 13 12 6 9 -11 -6 -11 -3 -1 13 7 12
17 19 21 16 4 -3 5 2 2 10 -4 10 -1 16 9 16 8 0 14 8 13 18 0 9 5 16 12 14 6
-1 11 1 10 5 -4 15 13 53 23 53 6 0 7 5 4 10 -9 14 8 12 25 -2 12 -11 12 -10
0 5 -12 17 -11 21 10 39 14 11 19 17 13 13 -20 -10 -15 2 12 29 26 26 33 42
13 30 -7 -5 -8 -3 -4 5 5 7 10 10 13 7 10 -9 34 24 27 36 -5 8 -2 9 10 5 9 -4
15 -3 11 2 -3 5 6 18 20 29 13 11 21 22 18 26 -3 3 2 6 13 6 16 0 17 2 4 10
-11 7 -11 10 -2 10 7 0 10 5 7 10 -3 6 1 10 9 10 15 0 21 12 16 35 -1 5 9 1
22 -10 20 -18 21 -18 8 -1 -13 16 -12 20 8 36 12 10 22 23 22 29 0 5 10 17 22
25 12 9 19 16 14 16 -5 0 6 13 25 29 18 16 37 27 41 25 4 -3 5 3 1 12 -4 12
-3 15 5 10 7 -4 12 -3 12 3 0 5 14 8 30 6 17 -2 28 0 25 5 -3 5 -12 7 -20 3
-8 -3 -15 0 -15 5 0 6 9 14 20 17 11 4 18 10 15 14 -7 12 42 54 54 47 7 -5 8
-1 4 10 -4 12 -3 15 5 10 7 -4 12 -1 12 7 0 8 7 18 16 21 8 3 12 10 9 16 -3 5
1 10 10 10 11 0 15 5 12 14 -4 11 -1 13 10 9 12 -5 15 -2 10 10 -6 15 -4 16
16 6 21 -12 21 -11 7 6 -9 11 -10 16 -2 11 7 -4 12 -2 12 4 0 6 5 8 11 4 8 -4
8 -1 1 13 -15 28 0 49 19 27 12 -16 12 -17 -3 -11 -10 3 -18 4 -18 1 0 -3 14
-10 30 -16 23 -8 28 -13 20 -23 -8 -10 -6 -13 7 -11 11 0 18 -5 17 -16 -1 -10
1 -16 5 -15 3 1 6 -1 6 -4 0 -10 33 -39 44 -39 6 0 11 -5 11 -11 0 -5 -6 -7
-12 -3 -9 5 -9 3 1 -9 7 -9 18 -14 24 -10 7 4 8 0 4 -11 -6 -14 -3 -17 9 -12
15 6 15 4 3 -11 -12 -14 -12 -16 0 -8 11 6 13 4 8 -8 -3 -9 -3 -16 1 -16 20 3
32 -2 32 -15 0 -7 8 -20 18 -27 15 -13 16 -12 4 3 -9 11 -10 18 -2 23 6 4 9 3
8 -2 -1 -4 4 -19 11 -32 10 -18 10 -22 0 -16 -8 6 -10 4 -5 -4 5 -7 15 -10 23
-7 8 3 12 2 9 -3 -3 -5 5 -16 19 -25 14 -9 25 -23 25 -31 0 -15 7 -18 42 -18
10 0 16 -3 13 -6 -2 -4 0 -13 6 -21 7 -13 9 -13 9 0 0 9 8 3 19 -13 10 -16 21
-28 25 -28 25 4 46 0 42 -8 -3 -5 3 -11 14 -14 10 -3 21 0 24 7 2 6 5 3 5 -8
1 -13 6 -17 21 -13 12 3 25 -1 33 -11 6 -10 25 -18 42 -20 16 -2 35 -8 42 -14
7 -5 17 -7 22 -4 5 4 12 2 16 -4 10 -16 28 -12 21 5 -4 10 1 15 15 15 11 0 18
4 14 10 -3 5 7 16 22 24 15 8 28 18 28 23 0 4 4 7 8 5 5 -1 6 2 3 7 -4 5 -2
21 4 35 6 17 6 26 0 26 -6 0 -10 6 -10 14 0 16 -27 29 -41 20 -5 -3 -7 -9 -4
-14 3 -5 2 -11 -3 -14 -4 -2 -8 6 -8 19 0 13 4 21 9 18 5 -3 8 3 7 13 -4 33 0
45 11 38 8 -4 8 -1 0 14 -12 22 -11 43 1 52 14 11 8 144 -7 157 -4 5 -5 2 0
-6 5 -9 4 -12 -3 -8 -5 4 -8 16 -5 27 3 12 0 20 -6 20 -7 0 -9 -5 -5 -12 4 -6
3 -8 -4 -5 -5 4 -8 16 -5 28 4 16 8 17 14 7 5 -7 9 -8 9 -2 0 6 -3 14 -7 18
-7 7 -9 24 -15 111 -2 48 3 62 13 35 8 -19 12 -21 19 -11 5 9 3 20 -6 28 -8 8
-12 18 -9 23 3 5 -5 16 -17 24 -12 9 -18 16 -13 16 6 0 3 5 -5 10 -12 8 -12
10 -1 10 11 0 11 3 1 15 -9 11 -9 15 -1 15 9 0 9 5 0 21 -8 16 -8 20 1 14 9
-6 9 -3 1 12 -6 11 -7 23 -4 27 3 3 2 6 -4 6 -5 0 -10 7 -11 15 -1 8 -3 22 -4
30 -1 8 -5 15 -10 15 -5 0 -8 10 -6 23 2 15 -2 21 -11 19 -12 -3 -12 0 -1 12
8 11 9 16 1 16 -6 0 -11 5 -11 11 0 6 -7 17 -16 26 -8 9 -13 22 -10 29 3 8 0
13 -7 11 -7 -1 -11 6 -11 15 1 10 -2 15 -7 12 -5 -3 -9 1 -9 9 0 8 -11 26 -25
41 -13 14 -21 26 -17 26 4 0 0 5 -8 10 -11 7 -12 10 -2 10 10 0 9 4 -2 16 -9
8 -14 20 -11 25 4 5 1 9 -4 9 -6 0 -10 3 -10 8 3 17 -2 33 -8 29 -5 -3 -9 13
-10 34 -1 21 3 39 8 39 6 0 7 5 4 10 -4 6 -11 8 -16 5 -12 -8 2 28 15 37 7 5
7 8 1 8 -6 0 -12 14 -13 32 -3 34 -17 58 -36 58 -20 0 -19 61 1 77 10 8 12 12
6 8 -22 -11 -34 4 -23 26 8 14 7 19 -1 19 -6 0 -9 7 -6 15 4 8 1 17 -4 21 -6
3 -9 15 -6 25 3 11 1 16 -4 13 -5 -3 -12 3 -16 13 -4 10 -16 32 -28 48 -13 17
-20 36 -17 44 3 9 0 11 -8 6 -9 -5 -11 -4 -6 4 8 12 -18 44 -28 34 -3 -4 -6 1
-6 10 0 10 -8 17 -20 17 -12 0 -20 7 -20 17 0 9 -3 14 -6 10 -9 -9 -44 25 -37
37 3 6 3 8 -1 4 -5 -4 -17 2 -29 13 -11 10 -27 19 -34 19 -7 0 -13 5 -13 10 0
6 -7 10 -15 10 -8 0 -19 9 -25 20 -6 11 -15 18 -21 15 -5 -4 -9 -1 -9 5 0 6
-4 8 -10 5 -5 -3 -10 -1 -10 4 0 6 -6 11 -14 11 -8 0 -17 7 -20 16 -5 12 -14
14 -34 10 -15 -4 -22 -3 -16 1 9 6 8 11 -1 20 -11 10 -15 10 -18 0 -3 -7 -6
-4 -6 6 -1 15 -12 22 -33 18 -5 0 -7 2 -7 7 4 25 -1 37 -11 22 -8 -13 -10 -12
-10 3 0 9 -7 17 -16 17 -8 0 -12 5 -9 10 3 6 -1 10 -10 10 -9 0 -13 4 -10 10
4 6 -1 7 -11 3 -10 -4 -20 0 -26 10 -5 10 -13 17 -19 17 -10 0 -24 10 -60 43
-10 9 -19 13 -19 8 0 -6 -9 -9 -19 -8 -11 0 -19 6 -18 12 1 5 -8 9 -20 9 -12
-1 -21 4 -20 10 1 6 -4 10 -10 8 -7 -1 -13 2 -13 6 0 5 -15 17 -34 27 -19 11
-33 22 -30 26 2 4 -6 5 -18 1 -14 -3 -19 -2 -14 6 5 8 -1 12 -14 12 -14 0 -20
5 -17 13 3 9 -2 13 -16 12 -22 -2 -49 9 -79 33 -9 8 -21 11 -27 8 -5 -4 -16 2
-23 11 -13 18 -178 30 -178 14 0 -4 -9 -7 -20 -7 -11 0 -20 4 -20 8 0 5 -9 4
-20 -2 -11 -6 -20 -7 -20 -3 0 10 -47 10 -57 0 -3 -4 -12 -2 -20 4 -7 6 -13 7
-13 3z m-5944 -638 c5 -15 8 -16 16 -5 7 12 9 11 7 -1 -3 -29 1 -41 11 -35 6
4 8 11 5 16 -3 5 1 6 9 3 9 -3 16 -14 16 -23 0 -14 2 -14 10 -1 8 12 10 12 10
1 0 -11 3 -11 18 0 9 7 14 9 10 5 -10 -12 10 -36 29 -36 8 0 12 4 9 8 -3 5 1
9 9 9 8 0 11 -5 8 -10 -4 -6 0 -8 9 -4 9 3 24 -1 35 -8 24 -19 39 -19 24 -1
-12 15 3 35 16 22 4 -3 1 -6 -7 -6 -9 0 -9 -4 -2 -12 6 -7 11 -17 11 -23 1
-13 24 -13 33 0 5 6 8 4 8 -4 0 -11 4 -9 14 4 8 11 12 23 10 27 -7 11 25 3 38
-10 9 -9 9 -15 1 -23 -8 -8 -13 -7 -18 2 -5 8 -4 10 3 5 7 -4 12 -3 12 3 0 21
-19 20 -34 -1 -20 -28 -20 -38 0 -38 9 0 13 5 8 13 -3 6 5 -1 18 -17 15 -18
27 -25 31 -19 4 6 -1 14 -10 17 -12 5 -13 10 -6 17 12 12 36 3 28 -11 -3 -5
-1 -11 5 -15 6 -4 8 -11 5 -16 -4 -5 -2 -9 4 -9 5 0 13 5 16 10 4 6 16 8 27 4
14 -4 18 -2 14 5 -5 8 0 8 18 -1 27 -12 31 -19 19 -32 -5 -4 -9 -12 -9 -17 -1
-5 -2 -13 -3 -18 0 -5 -7 -8 -13 -7 -27 4 -38 18 -34 42 3 17 1 24 -7 21 -7
-2 -11 -11 -9 -20 1 -8 -2 -18 -8 -22 -6 -4 -7 1 -3 11 4 12 3 15 -5 10 -7 -4
-12 -2 -12 4 0 6 -5 8 -10 5 -6 -4 -7 -12 -3 -18 3 -7 -3 -3 -15 7 -20 17 -27
15 -23 -7 1 -5 -4 -5 -11 0 -7 4 -15 8 -18 8 -12 1 -44 24 -33 25 6 0 14 -4
17 -9 4 -5 14 -8 24 -6 9 2 19 4 22 4 18 4 -27 18 -53 17 -28 -1 -31 -5 -33
-31 -1 -16 -3 -31 -4 -32 -7 -8 -4 -29 5 -36 6 -5 2 -6 -9 -3 -10 4 -24 2 -31
-4 -9 -8 -14 -6 -19 5 -3 9 -2 14 2 11 4 -2 14 0 22 6 13 8 13 9 -1 5 -26 -8
-43 7 -24 23 12 10 18 10 30 0 8 -7 15 -11 16 -9 7 34 6 45 -2 56 -6 7 -8 16
-5 22 7 11 -22 24 -35 15 -5 -3 -9 0 -9 5 0 11 13 15 40 12 13 -2 13 0 1 8
-17 11 -51 -3 -51 -20 0 -6 -5 -7 -10 -4 -15 9 7 35 29 35 14 0 14 2 1 10 -10
6 -16 6 -18 -1 -3 -6 -9 -6 -18 2 -8 6 -14 7 -14 2 0 -5 -12 -8 -27 -7 -44 2
-46 3 -34 17 8 10 7 14 -3 14 -17 0 -14 -26 4 -37 8 -5 29 -7 48 -4 28 3 33 2
23 -9 -6 -8 -7 -17 -3 -21 4 -4 0 -6 -8 -4 -8 2 -14 -3 -12 -10 1 -8 -2 -11
-8 -7 -8 5 -7 11 1 21 6 8 9 17 5 21 -3 4 -13 -2 -22 -13 -8 -10 -13 -13 -9
-7 4 8 -4 18 -19 25 -24 10 -30 20 -27 41 1 6 -14 11 -31 8 -4 0 -12 8 -18 19
-6 12 -16 20 -23 19 -31 -4 -42 1 -24 12 9 6 15 15 11 21 -4 7 -10 5 -16 -3
-8 -11 -9 -10 -5 2 3 9 0 22 -6 29 -7 7 0 5 15 -6 15 -10 30 -27 34 -38z
m2563 -3517 c-6 -12 -5 -20 1 -24 8 -5 8 -11 1 -19 -6 -7 -7 -16 -3 -20 4 -4
3 -7 -3 -6 -24 5 -31 -2 -29 -27 1 -16 2 -28 3 -28 2 0 4 -8 6 -18 2 -9 -1
-15 -6 -11 -5 3 -9 1 -9 -4 0 -5 -7 -9 -15 -9 -8 0 -12 4 -8 9 3 6 -7 23 -23
39 -15 16 -24 29 -18 29 5 0 1 5 -8 11 -20 11 -14 36 9 36 13 0 12 -3 -3 -15
-18 -13 -18 -14 5 -7 19 6 23 4 18 -9 -8 -20 8 -29 22 -12 9 10 8 16 -4 26 -8
7 -15 18 -15 24 0 6 5 4 10 -4 8 -13 10 -12 10 3 0 15 -11 22 -32 18 -5 0 -8
3 -8 8 0 16 32 22 48 9 13 -11 15 -10 10 2 -4 11 2 15 22 15 24 1 27 -2 19
-16z"/>
</g>
</svg>
