<?xml version="1.0" standalone="no"?>
<!DOCTYPE svg PUBLIC "-//W3C//DTD SVG 20010904//EN"
 "http://www.w3.org/TR/2001/REC-SVG-20010904/DTD/svg10.dtd">
<svg version="1.0" xmlns="http://www.w3.org/2000/svg"
 width="1024.000000pt" height="1024.000000pt" viewBox="0 0 1024.000000 1024.000000"
 preserveAspectRatio="xMidYMid meet">
<metadata>
Created by potrace 1.16, written by Peter Selinger 2001-2019
</metadata>
<g transform="translate(0.000000,1024.000000) scale(0.100000,-0.100000)"
fill="#000000" stroke="none">
<path d="M3620 9492 c0 -7 -4 -10 -10 -7 -5 3 -27 -6 -47 -20 -21 -14 -32 -25
-25 -25 6 0 12 -7 12 -15 0 -15 3 -17 38 -18 29 -2 60 -57 31 -57 -5 0 -8 4
-5 9 3 4 -4 17 -17 27 l-22 19 18 -22 c10 -11 14 -24 9 -27 -5 -3 -14 6 -20
19 -7 14 -17 25 -24 25 -9 0 -8 -3 2 -10 8 -5 11 -10 6 -10 -5 0 -2 -8 5 -17
8 -9 9 -14 3 -10 -7 4 -14 0 -18 -8 -3 -8 0 -15 6 -15 6 0 5 -6 -3 -17 -12
-14 -12 -16 0 -8 10 5 12 4 7 -3 -12 -20 -16 -53 -5 -46 11 6 7 -44 -6 -68 -3
-7 1 -4 9 6 11 14 16 16 16 6 0 -9 6 -5 16 9 12 16 19 20 27 12 15 -15 27 -14
21 3 -3 8 -1 16 4 20 7 4 8 -5 3 -46 -1 -3 -9 -5 -18 -3 -10 1 -23 -2 -30 -7
-7 -5 -17 -7 -22 -4 -11 7 -34 -28 -24 -37 7 -8 -33 -1 -47 8 -6 3 -10 1 -10
-4 0 -6 -6 -10 -12 -8 -8 1 -14 -11 -16 -30 -3 -26 0 -32 12 -27 9 3 16 1 16
-6 0 -6 4 -9 9 -5 5 3 12 1 16 -5 3 -5 1 -10 -6 -10 -7 0 -9 -3 -6 -6 4 -4 13
-1 22 6 8 7 21 10 29 7 7 -3 23 1 34 9 13 9 22 10 24 3 2 -6 14 -2 29 10 15
11 36 19 47 16 12 -2 24 1 27 6 4 5 11 6 17 3 7 -4 8 -2 4 4 -4 7 3 14 19 18
14 3 25 9 25 13 0 4 13 8 29 9 16 1 41 8 55 16 15 7 36 13 49 12 12 -1 27 5
34 14 10 12 12 12 13 1 0 -11 3 -11 15 -1 12 10 15 10 15 0 0 -10 3 -10 15 0
11 9 19 10 26 3 12 -12 51 -5 43 8 -3 5 2 6 10 3 9 -3 13 -11 9 -17 -3 -6 4
-4 16 5 24 17 126 15 148 -4 10 -8 12 -7 7 6 -3 9 -2 16 4 16 6 0 12 -5 14
-12 2 -6 19 -13 36 -14 18 -1 39 -7 46 -13 7 -6 15 -9 18 -6 3 3 22 -1 44 -8
21 -7 49 -12 62 -11 12 1 25 -2 27 -6 3 -5 14 -6 24 -3 10 3 22 0 25 -6 4 -5
13 -8 21 -4 8 3 15 0 15 -7 0 -6 4 -9 9 -5 5 3 13 1 16 -5 5 -8 11 -7 22 1 11
10 16 10 23 0 6 -11 8 -11 12 0 4 11 8 10 22 -4 10 -9 22 -15 27 -12 5 4 15 3
22 -2 6 -4 21 -9 32 -10 10 -2 23 -9 27 -16 5 -7 8 -8 8 -1 0 15 40 10 51 -7
5 -8 9 -9 9 -3 0 7 14 10 38 7 20 -3 54 -5 74 -6 21 -1 38 -5 38 -9 0 -4 6 -5
14 -2 7 3 21 -2 30 -11 9 -9 16 -13 16 -9 0 3 6 1 13 -5 8 -6 22 -12 33 -15
40 -9 64 -19 64 -27 0 -5 6 -6 13 -3 14 5 59 -40 50 -50 -4 -3 -1 -6 5 -6 7 0
12 -9 12 -21 0 -11 5 -17 10 -14 6 3 10 -1 10 -11 0 -14 3 -14 15 -4 13 11 14
10 9 -3 -4 -12 2 -18 20 -23 14 -3 23 -10 20 -15 -3 -5 2 -9 10 -9 9 0 16 -5
16 -10 0 -6 3 -9 8 -8 4 1 22 -6 40 -15 17 -10 32 -15 32 -12 0 4 7 -1 16 -9
8 -9 22 -16 30 -16 8 0 14 -6 14 -12 0 -9 4 -8 10 2 9 13 10 13 10 0 0 -13 1
-13 10 0 5 8 10 11 10 5 0 -5 12 -19 27 -29 14 -11 23 -14 19 -8 -10 17 13 15
30 -3 12 -11 12 -15 2 -15 -7 0 4 -11 24 -25 20 -14 39 -34 43 -45 3 -11 13
-20 21 -20 8 0 13 -4 10 -8 -6 -10 79 -103 87 -96 10 10 39 -46 34 -65 -3 -14
-1 -18 9 -14 20 7 10 -81 -13 -116 -16 -25 -16 -25 2 -11 17 14 18 13 12 -2
-4 -10 -2 -18 4 -18 6 0 8 -7 5 -16 -3 -8 -2 -12 4 -9 14 8 13 -8 -1 -22 -8
-8 -6 -11 7 -10 12 1 20 -5 20 -18 1 -11 3 -22 4 -25 7 -19 5 -48 -3 -43 -6 4
-8 0 -4 -10 3 -9 -1 -24 -10 -33 -16 -15 -17 -15 -24 2 -3 11 -4 23 -1 29 3 5
7 4 10 -3 2 -7 8 -12 13 -12 5 0 4 9 -3 20 -7 11 -20 20 -28 20 -11 0 -12 -3
-3 -8 14 -9 -42 -69 -67 -72 -25 -4 -44 0 -37 7 4 3 1 13 -5 21 -7 8 -17 23
-23 34 -9 19 -33 23 -27 5 1 -4 -11 -1 -28 8 -19 10 -30 11 -30 5 0 -6 -4 -8
-10 -5 -5 3 -10 0 -11 -7 0 -7 -4 -4 -8 7 -10 24 -8 28 22 31 12 1 25 3 29 3
51 6 26 191 -25 191 -7 0 -23 20 -36 45 -13 25 -29 45 -36 45 -7 0 -18 7 -25
15 -7 8 -16 12 -21 9 -5 -3 -19 0 -31 7 -26 14 -128 18 -128 5 0 -5 -6 -3 -13
3 -8 6 -17 8 -21 4 -8 -9 -46 -12 -46 -4 0 4 -10 8 -22 9 -48 4 -103 11 -103
12 0 2 -86 9 -155 13 -39 2 -61 -1 -74 -12 -17 -14 -18 -14 -11 -1 6 11 4 11
-10 -2 -25 -23 -13 -62 33 -108 58 -58 73 -80 66 -92 -4 -6 -3 -8 4 -4 6 3 16
-2 22 -11 11 -17 11 -16 5 1 -4 14 3 10 25 -12 17 -18 28 -36 26 -41 -3 -4 6
-6 19 -3 14 2 22 9 18 15 -3 5 -1 7 5 3 6 -3 14 -1 17 5 4 5 13 8 21 5 7 -3
20 1 28 9 11 11 15 11 19 2 2 -7 -2 -18 -9 -25 -8 -7 -14 -9 -14 -5 0 5 -9 9
-20 10 -11 1 -18 -3 -14 -8 3 -5 0 -8 -8 -7 -8 2 -13 -8 -14 -29 -1 -18 3 -33
8 -33 4 0 8 -7 8 -15 0 -7 8 -19 18 -24 9 -6 13 -11 9 -11 -4 0 3 -11 17 -25
13 -13 27 -34 31 -45 3 -11 11 -20 16 -20 5 0 9 -7 9 -16 0 -8 3 -13 8 -11 9
6 33 -19 25 -27 -4 -3 4 -6 16 -6 14 0 20 -4 15 -11 -5 -8 3 -10 24 -7 17 2
31 2 30 -1 -2 -21 3 -43 9 -38 8 9 35 -52 28 -63 -3 -4 2 -13 10 -20 8 -7 15
-18 15 -26 0 -7 10 -16 21 -19 17 -6 19 -9 8 -16 -11 -6 -8 -9 8 -9 16 0 21
-4 17 -15 -4 -8 -1 -15 6 -15 17 0 40 -26 40 -46 0 -10 3 -15 6 -11 3 3 20 -8
37 -25 52 -49 123 -79 200 -82 37 -2 67 -1 67 3 0 3 17 6 37 7 20 0 39 6 41
12 2 7 8 9 13 6 6 -3 16 -1 23 6 8 6 22 13 32 15 11 2 30 7 43 11 17 5 22 4
17 -4 -4 -6 6 -5 21 3 15 8 34 15 42 15 11 0 11 3 0 17 -8 9 -9 14 -3 10 7 -4
25 8 42 27 17 19 33 32 36 29 3 -4 6 1 6 9 0 9 7 18 15 22 8 3 15 12 15 20 0
8 6 19 13 23 24 15 80 138 77 171 0 1 0 3 1 5 11 36 11 203 0 245 -6 20 -13
53 -15 72 -10 72 -18 115 -24 125 -4 6 -8 21 -10 35 -2 14 -10 38 -18 54 -8
16 -14 35 -14 43 0 7 -5 13 -12 13 -6 0 -9 3 -6 6 4 3 0 17 -7 31 -8 15 -12
30 -9 34 2 4 -7 20 -21 35 -13 14 -22 30 -19 35 3 5 0 9 -6 9 -14 0 -40 25
-40 39 0 6 -4 11 -8 11 -4 0 -16 14 -26 30 -9 17 -22 28 -27 24 -5 -3 -9 -2
-8 3 4 14 -14 47 -34 66 -11 9 -17 17 -12 17 4 0 -9 15 -29 33 -20 18 -36 39
-36 46 0 7 -6 11 -14 8 -10 -4 -13 -1 -9 9 3 7 0 14 -6 14 -6 0 -11 7 -11 16
0 8 -4 12 -10 9 -5 -3 -10 1 -10 9 0 8 -9 17 -19 21 -11 3 -23 15 -26 26 -4
11 -9 18 -12 16 -2 -3 -12 1 -21 9 -52 46 -88 74 -98 74 -5 0 -21 10 -35 22
-13 12 -34 30 -47 42 -24 21 -53 27 -144 30 -32 0 -58 4 -58 7 0 3 -11 5 -25
4 -14 -2 -25 1 -25 6 0 6 -4 8 -8 5 -4 -2 -29 6 -56 20 -26 13 -56 24 -66 24
-10 0 -22 5 -25 10 -3 6 -17 10 -31 10 -14 0 -22 4 -19 10 3 6 1 10 -5 10 -6
0 -8 5 -5 10 3 6 0 10 -7 11 -62 5 -78 4 -74 -6 2 -7 -2 -12 -10 -12 -7 0 -11
5 -8 11 3 6 0 4 -8 -4 -14 -17 -32 -20 -44 -7 -4 4 -16 -1 -26 -10 -13 -12
-18 -13 -16 -4 4 17 -140 23 -161 7 -11 -8 -13 -8 -7 2 6 10 -1 12 -33 8 -28
-3 -41 -1 -41 7 0 8 -3 8 -8 2 -8 -11 -29 -12 -54 -1 -9 4 -22 5 -28 1 -5 -3
-10 -3 -10 2 0 9 -57 9 -66 0 -4 -3 -15 -2 -25 4 -11 5 -19 7 -19 3 0 -3 -6
-1 -14 5 -11 9 -15 9 -20 -1 -5 -11 -7 -11 -12 0 -5 10 -11 9 -27 -5 -19 -16
-20 -16 -8 0 11 14 11 17 -2 17 -8 0 -18 -6 -20 -12 -3 -7 -6 -4 -6 7 -1 17
-3 17 -11 5 -5 -8 -10 -10 -10 -4 0 11 -51 11 -69 -1 -6 -3 -11 -2 -11 3 0 6
-8 8 -19 5 -10 -3 -22 0 -25 6 -5 7 -13 8 -24 2 -9 -5 -52 -7 -95 -6 -45 2
-75 0 -72 -6 3 -5 -1 -6 -9 -3 -9 3 -16 9 -16 13 0 4 -9 7 -20 7 -11 0 -20 -3
-20 -6 0 -3 -40 -5 -90 -5 -49 0 -90 4 -90 9 0 4 -9 6 -20 3 -11 -3 -22 -2
-25 3 -2 4 -16 6 -30 5 -14 -2 -25 0 -25 4 0 4 -16 8 -37 9 -20 2 -40 5 -45 8
-4 3 -8 -1 -8 -8 0 -9 -3 -9 -10 2 -7 11 -10 11 -10 2z"/>
<path d="M3580 6799 c0 -5 -4 -7 -10 -4 -5 3 -10 1 -10 -5 0 -6 -4 -8 -10 -5
-5 3 -10 1 -10 -5 0 -6 -3 -9 -7 -7 -5 2 -16 -4 -25 -15 -10 -10 -16 -18 -14
-18 2 0 -15 -20 -38 -44 -52 -56 -77 -86 -71 -86 7 0 -50 -104 -78 -144 -13
-19 -15 -26 -6 -21 7 4 4 -2 -8 -14 -13 -12 -23 -25 -23 -30 0 -4 -9 -18 -19
-30 -11 -12 -18 -31 -16 -42 2 -11 0 -17 -5 -14 -5 3 -12 -7 -16 -22 -4 -15
-16 -40 -26 -55 -14 -20 -16 -28 -6 -28 8 0 9 -3 3 -8 -15 -11 -36 -52 -41
-80 -3 -15 -9 -31 -14 -37 -6 -7 -5 -16 2 -23 7 -7 8 -12 3 -12 -6 0 -11 -16
-11 -35 -1 -23 2 -32 10 -28 6 4 3 -3 -7 -14 -10 -12 -14 -24 -9 -27 5 -3 10
-17 10 -31 0 -15 -5 -22 -12 -18 -8 5 -8 3 0 -8 6 -8 11 -29 13 -48 1 -19 7
-41 13 -48 9 -11 7 -12 -7 -7 -14 6 -16 4 -9 -7 4 -8 9 -18 11 -24 1 -5 5 -21
8 -35 3 -14 7 -30 9 -37 1 -7 5 -16 9 -19 4 -4 7 -18 7 -31 0 -12 5 -23 10
-23 6 0 10 -9 10 -20 0 -11 5 -20 11 -20 5 0 7 -5 4 -10 -3 -6 1 -13 9 -16 9
-3 16 -15 16 -25 0 -10 5 -19 10 -19 6 0 10 -7 10 -15 0 -8 5 -15 10 -15 6 0
10 -6 10 -14 0 -7 7 -19 15 -26 9 -7 13 -15 11 -18 -5 -4 27 -36 87 -87 9 -8
19 -14 22 -12 8 3 125 -113 125 -125 0 -5 5 -6 10 -3 6 3 10 1 10 -4 0 -19 87
-91 110 -91 6 0 8 -4 5 -10 -3 -5 -2 -10 2 -10 5 0 29 -18 53 -40 25 -22 50
-40 57 -40 6 0 13 -3 15 -7 2 -5 24 -19 51 -33 26 -13 47 -28 47 -32 0 -5 7
-8 15 -8 8 0 23 -8 33 -17 10 -10 27 -20 37 -21 11 -2 21 -8 23 -12 2 -5 10
-6 18 -3 8 3 14 0 14 -6 0 -6 9 -11 20 -11 11 0 20 -4 20 -9 0 -5 14 -7 31 -4
17 2 29 1 26 -4 -3 -4 20 -8 51 -9 32 0 75 -4 97 -8 22 -4 52 -8 68 -9 15 -1
27 -5 27 -9 0 -5 5 -8 11 -8 5 0 7 4 4 10 -3 6 1 7 9 4 9 -3 14 -9 12 -13 -2
-3 15 -6 37 -6 26 1 47 -5 55 -15 8 -8 11 -9 7 -2 -3 6 0 12 7 12 8 0 20 -6
27 -12 11 -11 12 -10 6 2 -7 12 -6 13 6 4 8 -6 34 -12 59 -13 24 -1 49 -6 56
-11 6 -6 14 -7 18 -3 8 9 46 12 46 4 0 -4 24 -7 53 -7 28 -1 63 -2 77 -4 14
-1 34 1 44 5 12 5 17 5 13 -1 -3 -6 9 -9 30 -7 20 1 43 -3 52 -10 12 -10 13
-9 6 2 -6 11 -5 12 6 5 15 -9 30 -13 71 -17 16 -1 28 -5 28 -9 0 -5 5 -8 11
-8 5 0 7 6 3 13 -6 9 -5 9 8 0 8 -7 18 -10 21 -6 4 3 7 2 7 -3 0 -9 14 -13 58
-16 6 -1 12 -5 12 -10 0 -5 9 -6 20 -3 11 3 20 2 20 -2 0 -5 28 -15 63 -23 34
-7 77 -20 95 -27 18 -8 38 -11 44 -7 7 4 8 3 4 -4 -6 -11 19 -18 47 -13 4 0 7
-4 7 -10 0 -5 4 -8 8 -5 5 3 21 -2 37 -10 15 -8 38 -15 51 -16 12 -1 20 -6 18
-10 -3 -4 2 -8 10 -8 9 0 16 -4 16 -10 0 -5 7 -10 17 -10 9 0 35 -11 58 -25
23 -13 45 -21 49 -18 3 3 6 0 6 -7 0 -7 3 -11 6 -7 4 3 23 -2 43 -12 20 -10
46 -17 59 -15 13 2 22 -1 22 -9 0 -9 2 -9 8 0 4 6 23 13 42 15 21 2 34 8 33
15 -2 7 6 32 17 57 14 33 16 46 7 50 -7 3 -3 4 8 3 11 -1 23 -6 27 -12 5 -6 8
-5 8 3 0 6 7 12 15 12 8 0 15 -6 15 -12 0 -9 4 -8 10 2 9 14 15 6 10 -15 -1
-5 2 -7 6 -2 11 11 16 48 9 75 -6 23 -62 29 -77 7 -4 -5 -10 -2 -14 9 -4 10
-3 21 2 25 9 6 11 14 19 53 6 30 -38 55 -94 53 -28 -1 -51 1 -51 5 0 3 -15 6
-32 5 -18 0 -39 3 -45 8 -7 5 -13 6 -13 2 0 -4 -6 -3 -12 3 -7 5 -29 13 -48
16 -49 9 -53 11 -67 19 -7 5 -17 5 -23 2 -5 -3 -10 -2 -10 3 0 8 -6 10 -49 14
-11 1 -18 5 -15 9 3 6 -32 20 -39 16 -2 -1 -15 6 -30 16 -15 10 -32 15 -37 12
-5 -3 -11 -1 -15 5 -3 5 -15 10 -26 10 -11 0 -18 4 -14 9 3 6 -4 8 -15 6 -11
-2 -20 1 -20 7 0 5 -7 8 -15 4 -8 -3 -15 -1 -15 4 0 5 -9 7 -20 5 -11 -2 -20
0 -20 6 0 5 -3 8 -7 8 -5 -1 -10 0 -13 1 -3 1 -20 3 -38 4 -18 1 -37 7 -41 15
-5 7 -11 12 -15 12 -7 -1 -15 0 -31 4 -5 1 -18 3 -28 3 -10 1 -15 7 -12 12 5
8 -22 13 -51 9 -4 0 -10 3 -13 8 -11 15 -52 34 -61 28 -6 -4 -10 -2 -10 4 0 6
-7 7 -17 4 -10 -4 -14 -2 -10 4 5 7 -6 14 -25 18 -18 4 -38 12 -45 17 -7 5
-17 7 -23 3 -5 -3 -10 -1 -10 5 0 6 -11 8 -26 6 -15 -3 -36 1 -48 9 -11 8 -35
15 -53 15 -18 0 -33 5 -33 10 0 6 -5 10 -11 10 -5 0 -8 -4 -4 -9 3 -5 0 -13
-6 -17 -7 -4 -9 -3 -6 3 4 6 0 16 -8 23 -9 7 -15 8 -15 2 0 -14 -83 -5 -95 11
-5 7 -18 11 -27 9 -10 -2 -18 2 -18 9 0 7 -3 9 -7 6 -3 -4 -12 -2 -20 4 -7 6
-13 8 -13 4 0 -4 -8 -1 -17 6 -11 10 -14 10 -9 2 9 -16 -6 -17 -22 -1 -9 9
-12 9 -12 -2 0 -13 -2 -13 -9 -1 -8 13 -12 13 -27 0 -10 -8 -15 -9 -12 -4 3 6
0 15 -7 22 -11 10 -15 10 -18 0 -4 -9 -6 -9 -6 1 -1 7 -5 10 -11 7 -5 -3 -10
-1 -10 5 0 6 -4 9 -9 5 -5 -3 -16 2 -24 10 -14 13 -16 13 -20 -3 -4 -16 -5
-16 -6 1 0 10 -5 15 -11 12 -5 -3 -10 -2 -10 2 0 5 -10 9 -22 10 -11 1 -25 8
-29 15 -7 10 -9 10 -9 1 0 -8 -8 -5 -21 8 -11 11 -28 19 -37 17 -9 -2 -22 2
-27 10 -6 7 -20 14 -33 15 -12 0 -22 6 -22 12 0 5 -5 3 -10 -5 -8 -12 -10 -12
-10 -1 0 8 -7 11 -19 8 -12 -3 -22 1 -25 10 -3 8 -10 12 -15 8 -5 -3 -13 0
-16 6 -4 5 -14 8 -22 5 -8 -3 -12 -2 -10 2 6 9 -19 33 -27 25 -3 -4 -6 1 -6
11 0 9 -4 14 -10 11 -5 -3 -10 3 -10 14 0 11 -9 22 -20 26 -11 3 -20 11 -20
16 0 5 -7 9 -16 9 -8 0 -12 5 -9 10 3 6 1 10 -5 10 -7 0 -21 11 -32 25 -11 14
-23 23 -28 20 -14 -9 -57 20 -52 34 3 10 0 12 -11 8 -11 -4 -14 -2 -10 9 3 8
-4 23 -16 33 -11 10 -21 24 -21 30 0 7 -5 9 -12 5 -8 -5 -9 -2 -5 10 4 10 1
19 -8 22 -7 3 -11 12 -8 20 3 7 -2 17 -11 20 -9 3 -16 13 -16 21 0 9 -6 13
-14 10 -7 -3 -18 -1 -24 5 -14 14 -54 0 -45 -15 4 -7 -2 -5 -13 3 -29 22 -30
24 -12 17 9 -3 24 1 35 9 10 9 13 13 7 10 -6 -3 -18 4 -27 15 -9 10 -12 19 -6
19 6 0 8 13 5 30 -2 17 -1 28 4 25 4 -2 8 23 8 58 0 34 5 74 11 90 8 19 7 27
0 27 -8 0 -7 5 1 15 7 9 10 18 7 22 -4 3 -2 12 4 20 6 7 8 13 4 13 -4 0 -2 7
5 15 6 8 9 19 5 25 -3 5 -2 10 2 10 10 0 16 32 13 75 -5 110 -3 138 16 197 12
39 33 48 117 49 20 0 23 25 5 32 -7 3 -3 4 9 4 12 -1 19 -6 15 -12 -3 -5 5 -3
18 7 14 9 24 23 24 32 -1 9 5 16 13 16 8 0 11 -4 8 -10 -3 -5 0 -7 9 -4 8 3
12 12 9 20 -3 8 -9 11 -14 8 -5 -3 -6 2 -3 10 3 9 1 16 -5 16 -6 0 -8 6 -6 13
5 14 -37 92 -51 93 -8 0 -45 17 -101 47 -13 6 -23 15 -23 19 0 5 -4 8 -10 8
-5 0 -10 -5 -10 -11z"/>
<path d="M3242 3342 c-12 -2 -20 -8 -17 -13 4 -5 -5 -5 -20 1 -14 5 -24 6 -21
1 9 -14 -16 -19 -41 -10 -17 6 -21 5 -17 -5 3 -8 0 -17 -7 -22 -8 -4 -10 -3
-5 4 5 8 -3 12 -24 12 -21 0 -29 -4 -24 -12 5 -7 3 -8 -7 -2 -21 13 -39 14
-39 1 0 -5 -3 -8 -6 -4 -13 12 -41 -28 -30 -42 8 -11 8 -13 -1 -8 -7 5 -14 -4
-18 -23 -4 -16 -10 -30 -14 -30 -5 0 -7 -11 -6 -25 2 -14 -1 -25 -7 -25 -6 0
-7 -7 -4 -16 3 -8 2 -12 -4 -9 -6 3 -10 0 -11 -7 -1 -46 -13 -104 -21 -109 -6
-4 -5 -9 3 -12 11 -4 10 -6 -1 -6 -11 -1 -15 -10 -14 -28 0 -16 -6 -34 -15
-41 -9 -8 -10 -11 -3 -7 13 7 17 -7 5 -19 -10 -10 -14 -33 -18 -105 -2 -35 -6
-65 -8 -68 -3 -2 -1 -20 3 -39 5 -20 4 -34 -1 -34 -6 0 -5 -10 2 -21 9 -17 8
-23 -2 -30 -11 -7 -11 -9 -1 -9 8 0 10 -8 6 -25 -3 -14 -2 -25 4 -25 5 0 9
-15 9 -34 -1 -19 4 -41 11 -49 7 -8 13 -26 14 -40 1 -14 6 -23 10 -21 4 3 8
-4 8 -14 0 -11 7 -25 15 -32 8 -7 12 -16 9 -21 -3 -5 0 -9 5 -9 6 0 11 -6 11
-14 0 -7 7 -19 15 -26 9 -7 13 -15 11 -18 -15 -14 179 -216 197 -205 5 3 7 2
4 -4 -7 -10 36 -53 53 -53 6 0 10 -5 10 -11 0 -5 5 -7 11 -4 6 4 13 -2 16 -13
3 -14 10 -19 21 -15 9 4 13 2 9 -4 -3 -5 5 -16 18 -23 13 -7 22 -17 19 -22 -5
-7 10 -12 29 -9 4 0 7 -6 7 -15 0 -11 6 -14 21 -9 15 5 19 4 15 -4 -4 -6 0
-11 9 -11 10 0 13 -5 9 -12 -4 -6 -3 -8 3 -5 5 3 17 -3 26 -14 10 -11 22 -17
27 -14 6 3 10 1 10 -6 0 -6 14 -25 30 -41 17 -15 30 -35 30 -43 0 -8 9 -19 21
-25 11 -7 19 -14 16 -16 -3 -3 26 -37 64 -75 38 -38 69 -74 69 -79 0 -6 7 -10
15 -10 8 0 15 -9 15 -20 0 -11 6 -23 14 -26 8 -3 12 -12 9 -20 -3 -8 1 -14 8
-14 7 0 10 -3 6 -6 -3 -3 3 -22 13 -42 10 -21 26 -55 35 -77 42 -97 58 -127
71 -132 8 -3 14 -11 14 -18 0 -6 11 -24 25 -39 14 -15 25 -31 25 -37 0 -5 6
-9 14 -9 8 0 18 -5 22 -12 4 -7 3 -8 -4 -4 -8 5 -10 2 -6 -8 3 -9 10 -14 14
-11 5 3 17 -5 27 -17 10 -13 25 -24 33 -26 8 -2 18 -9 22 -15 4 -7 8 -8 8 -3
0 5 8 2 18 -6 9 -8 25 -18 35 -21 11 -4 15 -12 11 -19 -5 -9 -3 -9 9 1 15 12
17 11 17 -3 0 -9 3 -15 8 -14 15 4 92 -26 92 -35 0 -6 3 -7 7 -4 3 4 12 2 20
-4 7 -6 13 -8 13 -3 0 4 11 -3 24 -15 14 -13 29 -20 34 -17 6 3 17 0 25 -8 8
-9 19 -11 27 -6 13 8 20 6 68 -19 16 -8 22 -8 22 0 0 8 6 7 17 -2 9 -8 18 -13
20 -11 1 1 9 2 16 2 8 0 8 -3 -2 -9 -10 -6 -1 -8 26 -6 28 3 45 0 53 -10 10
-12 16 -13 26 -4 11 9 14 8 14 0 0 -7 4 -10 8 -7 4 3 25 1 45 -4 23 -5 37 -4
37 2 0 5 5 6 12 2 7 -4 29 -7 50 -7 22 0 38 -4 38 -11 0 -6 5 -4 10 4 5 8 10
10 10 4 0 -6 12 -10 28 -9 15 1 35 -5 45 -13 16 -15 17 -14 11 4 -5 15 -4 17
6 7 7 -6 19 -9 28 -6 9 4 13 2 9 -3 -3 -6 7 -10 26 -9 18 1 37 -1 42 -4 22
-12 46 -11 38 1 -4 7 4 6 19 -4 19 -12 28 -14 37 -5 8 8 11 8 11 0 0 -6 6 -11
13 -10 29 1 48 -4 44 -10 -3 -5 20 -8 50 -8 32 0 59 -5 65 -13 9 -10 14 -10
26 0 9 7 13 8 9 2 -4 -8 14 -11 59 -12 44 0 62 3 58 10 -5 7 -2 8 7 2 22 -13
70 -14 63 -1 -5 9 -4 9 6 0 17 -16 40 -5 32 15 -5 14 -4 15 10 2 9 -8 14 -18
11 -22 -2 -4 3 -5 11 -2 9 3 16 11 16 16 0 6 6 5 15 -2 11 -9 15 -9 15 -1 0 7
4 9 10 6 5 -3 19 -1 31 6 16 8 20 8 14 -1 -6 -9 -3 -9 13 -1 28 15 45 14 36
-1 -5 -9 -3 -9 9 1 9 7 30 11 46 9 17 -2 28 -1 25 4 -8 13 10 9 25 -4 9 -8 11
-8 8 -2 -4 7 1 15 10 19 10 3 19 2 21 -4 2 -6 12 -7 26 -1 25 9 44 9 61 -2 6
-4 17 -2 25 4 12 8 11 8 -5 3 -15 -5 -17 -3 -8 5 8 9 17 9 29 2 14 -8 21 -6
31 6 12 16 13 16 7 -1 -3 -9 -1 -17 5 -17 6 0 11 5 11 11 0 5 5 7 10 4 6 -4 7
-12 3 -18 -4 -7 1 -6 11 2 12 10 20 11 28 3 8 -8 17 -8 30 -1 12 6 18 6 18 -1
0 -5 5 -10 11 -10 5 0 7 6 3 13 -5 7 0 6 11 -3 11 -9 16 -10 11 -2 -4 6 -2 12
3 12 6 0 11 -4 11 -9 0 -12 33 -9 42 4 4 6 8 1 8 -10 0 -17 2 -17 10 -5 8 12
10 12 10 -5 0 -16 2 -17 10 -5 7 11 12 12 21 3 8 -8 19 -9 35 -3 15 6 26 5 30
-1 3 -6 15 -9 25 -6 10 3 22 1 25 -5 3 -5 12 -7 20 -4 8 3 14 0 14 -7 0 -8 4
-6 10 3 6 9 10 10 10 3 0 -6 8 -12 18 -12 54 -2 72 -6 72 -14 0 -5 8 -3 17 4
9 8 14 9 10 3 -3 -6 5 -16 19 -23 15 -6 23 -7 19 -1 -9 15 48 -12 63 -30 12
-13 13 -13 6 0 -7 12 -5 13 8 3 8 -7 19 -9 23 -5 5 4 5 -2 1 -12 -7 -20 -6
-20 14 -1 21 19 21 19 27 -3 3 -14 12 -22 22 -20 9 1 22 -1 29 -5 11 -8 18 11
12 38 -1 5 2 6 7 2 4 -5 8 -16 8 -25 0 -9 6 -18 13 -18 6 -1 15 -3 20 -4 4 -1
11 -2 16 -1 5 1 18 -6 29 -16 11 -10 17 -12 13 -6 -4 7 -2 13 3 13 6 0 11 -6
11 -12 0 -9 4 -8 10 2 8 12 10 12 10 1 0 -11 3 -11 17 0 15 12 16 12 10 -3 -3
-10 -2 -18 3 -18 6 0 10 5 10 11 0 5 4 8 9 4 5 -3 12 -1 16 5 4 6 11 7 17 4 7
-4 8 -2 4 4 -4 7 -2 12 3 12 6 0 11 8 11 17 0 15 2 14 15 -3 8 -10 15 -14 14
-9 -3 23 2 25 23 5 l22 -20 24 27 c13 16 21 23 18 16 -4 -6 -2 -14 4 -18 6 -3
13 1 16 9 3 9 12 16 18 16 7 0 12 11 12 25 0 14 -6 25 -14 25 -7 0 -11 4 -7 9
3 5 -2 16 -10 24 -8 9 -15 20 -15 26 0 5 -9 8 -20 6 -11 -2 -18 0 -15 6 4 5
-1 9 -10 9 -10 0 -13 5 -9 13 4 6 4 9 -1 5 -4 -4 -15 -2 -23 5 -9 6 -13 7 -9
1 3 -6 0 -11 -7 -11 -8 0 -12 6 -9 13 4 11 -18 24 -40 24 -13 -1 -34 24 -35
43 -1 9 -3 24 -4 32 -1 8 -6 15 -12 15 -5 0 -1 7 10 15 14 11 15 14 3 9 -10
-3 -20 0 -25 7 -5 8 -3 10 6 4 9 -6 11 -4 6 4 -6 9 -13 8 -29 -6 -11 -10 -17
-12 -13 -5 4 7 1 12 -8 12 -9 0 -16 9 -16 20 0 21 -30 29 -31 8 0 -7 -5 -2
-10 11 -6 15 -15 21 -24 17 -8 -3 -15 0 -15 7 0 8 -4 6 -10 -3 -7 -11 -10 -11
-10 -2 0 7 -4 10 -10 7 -5 -3 -10 -1 -10 5 0 6 -5 8 -10 5 -8 -5 -7 -12 2 -22
12 -15 11 -15 -9 -2 -13 8 -23 17 -23 20 0 4 -11 9 -24 11 -18 4 -23 1 -19
-10 5 -11 1 -11 -21 3 -25 17 -26 17 -20 -1 6 -16 5 -17 -7 -6 -16 15 -29 16
-29 1 0 -5 5 -7 12 -3 7 4 8 3 4 -4 -9 -14 -38 -3 -30 12 3 6 -2 2 -10 -8 -14
-17 -16 -18 -16 -3 0 9 -4 17 -10 17 -5 0 -10 -6 -10 -12 0 -8 -3 -9 -8 -3
-10 14 -52 15 -52 1 0 -6 -4 -5 -9 3 -8 13 -12 13 -27 0 -10 -8 -15 -9 -11 -2
4 6 3 14 -3 18 -5 3 -10 -2 -11 -12 0 -10 -3 -13 -6 -5 -2 6 -9 12 -14 12 -6
0 -8 -4 -4 -9 3 -5 0 -13 -6 -17 -8 -4 -9 -3 -5 4 10 17 -28 34 -44 19 -10 -9
-11 -9 -5 2 6 10 2 12 -14 6 -14 -4 -21 -2 -21 7 0 10 -3 9 -10 -2 -6 -9 -10
-11 -10 -3 0 7 -7 10 -15 7 -8 -4 -15 -1 -15 6 0 7 -6 6 -16 -4 -8 -9 -21 -16
-27 -15 -9 0 -8 2 1 6 6 2 12 8 12 11 0 9 -63 7 -78 -2 -6 -3 -14 0 -19 8 -12
21 -219 28 -215 7 3 -12 0 -12 -12 -1 -18 14 -22 25 -6 15 6 -3 10 -1 10 4 0
14 -17 14 -26 0 -4 -8 -9 -7 -15 2 -7 12 -9 11 -9 -1 0 -11 -3 -10 -11 4 -9
15 -13 16 -20 5 -7 -12 -9 -11 -9 1 0 13 -2 13 -9 1 -5 -8 -17 -16 -25 -17 -9
-1 -14 2 -10 7 3 5 10 6 16 3 6 -4 8 -3 5 3 -4 6 -18 9 -32 8 -14 -2 -25 0
-25 4 0 4 -16 8 -35 9 -20 1 -40 4 -45 7 -6 4 -10 1 -10 -4 0 -6 -5 -11 -11
-11 -5 0 -7 5 -3 12 4 7 3 8 -5 4 -6 -4 -19 -2 -27 5 -12 10 -13 9 -8 -4 4
-11 0 -14 -13 -12 -10 2 -21 4 -25 4 -5 1 -8 8 -8 16 0 9 -6 12 -16 8 -9 -3
-20 0 -25 8 -5 8 -9 9 -9 3 0 -6 -13 -11 -30 -10 -16 1 -30 5 -30 10 0 5 -7 3
-15 -4 -8 -7 -15 -17 -15 -22 0 -6 7 -5 15 2 9 7 15 8 15 2 0 -23 -31 -21 -42
3 -6 14 -17 25 -25 25 -7 0 -13 5 -13 10 0 6 -12 10 -26 10 -14 0 -23 4 -20 8
3 5 -1 9 -9 9 -18 0 -20 -14 -2 -20 9 -4 9 -7 -1 -18 -7 -8 -12 -9 -11 -4 4
17 -13 45 -27 45 -8 0 -14 5 -14 10 0 7 -7 7 -21 -1 -16 -8 -20 -8 -14 1 6 9
3 9 -13 1 -28 -15 -32 -14 -33 7 0 14 -2 14 -9 -3 -5 -11 -9 -14 -9 -7 -1 6
-4 11 -8 11 -22 -4 -33 2 -28 13 4 7 -3 2 -14 -12 -20 -25 -20 -25 -16 -2 2
12 0 20 -4 17 -15 -9 -71 7 -64 18 4 6 1 7 -8 2 -18 -12 -49 -14 -49 -3 0 4
-9 8 -19 8 -11 0 -23 4 -26 10 -3 5 -16 10 -28 10 -38 0 -57 3 -57 10 0 15
-30 6 -31 -9 0 -11 -2 -12 -6 -3 -2 6 -9 10 -14 6 -5 -3 -9 3 -10 13 0 16 -1
16 -9 -2 -7 -17 -9 -17 -9 -2 -1 9 -4 16 -8 16 -5 -1 -10 0 -13 1 -22 8 -39 7
-33 -3 3 -7 -2 -5 -13 4 -10 9 -27 19 -36 22 -10 4 -18 11 -18 17 0 6 -4 8
-10 5 -5 -3 -10 1 -10 9 0 8 -4 18 -10 21 -6 4 -7 -1 -3 -11 4 -12 3 -15 -6
-10 -6 4 -19 2 -27 -5 -12 -10 -15 -10 -12 2 2 8 -3 13 -9 11 -7 -1 -13 5 -13
13 0 9 -6 12 -17 8 -12 -5 -14 -3 -8 7 5 8 4 11 -2 7 -6 -4 -22 2 -36 13 -14
11 -33 20 -42 20 -10 0 -13 5 -9 12 5 8 2 9 -9 5 -11 -4 -17 -1 -17 8 0 8 -8
15 -19 15 -10 0 -33 10 -52 23 -60 40 -66 43 -50 24 12 -15 12 -17 -3 -11 -9
3 -16 10 -16 15 0 5 -18 9 -40 9 -37 0 -97 39 -82 54 3 3 0 6 -6 6 -6 0 -18 8
-28 18 -10 9 -22 17 -28 17 -6 1 -10 6 -9 13 2 6 -4 9 -12 5 -13 -4 -13 -8 -3
-22 7 -9 -1 -4 -18 12 -17 15 -33 24 -37 20 -4 -3 -7 -1 -7 5 0 7 6 12 13 12
8 0 7 4 -3 10 -10 7 -11 10 -2 11 27 3 31 4 38 12 4 4 2 7 -5 7 -7 0 -9 5 -5
11 4 8 9 7 15 -2 7 -12 9 -12 9 0 0 8 3 12 6 9 3 -4 1 -15 -5 -26 -8 -16 -7
-23 6 -33 12 -10 15 -10 9 -1 -4 7 -2 12 8 12 20 0 32 20 17 30 -7 4 -14 16
-15 26 -2 13 -10 19 -25 18 -16 -1 -19 2 -12 9 7 7 4 19 -10 39 -20 28 -49 38
-49 17 0 -6 7 -8 17 -5 10 4 14 4 10 0 -4 -4 0 -12 8 -18 20 -15 5 -35 -29
-42 -19 -3 -25 -1 -21 6 4 6 13 9 20 6 8 -3 19 2 27 11 11 14 10 15 -12 9 -17
-5 -20 -4 -12 2 11 8 11 10 -2 15 -9 4 -17 -1 -20 -11 -3 -9 -16 -23 -28 -31
-23 -14 -23 -14 1 12 14 15 20 30 15 38 -5 9 -10 6 -16 -11 -5 -12 -11 -20
-14 -17 -3 3 -1 15 6 26 13 24 3 28 -14 5 -10 -13 -12 -13 -12 5 0 11 4 18 7
15 4 -2 11 1 14 6 5 7 11 6 19 -5 11 -15 14 -15 36 4 l25 21 -27 -10 c-23 -8
-26 -7 -21 7 4 10 2 14 -4 10 -13 -8 -24 31 -17 60 6 21 -25 63 -45 63 -5 0
-11 6 -14 13 -3 9 -9 9 -25 0 -14 -8 -23 -9 -27 -3 -4 6 -1 9 6 8 6 -2 14 3
17 11 3 10 0 12 -12 8 -9 -4 -15 -3 -12 2 6 9 -22 26 -36 23 -5 -1 -8 4 -8 11
0 8 -4 7 -10 -3 -9 -13 -10 -13 -10 0 0 8 -18 24 -40 34 -22 11 -40 23 -40 28
0 5 -5 6 -12 2 -6 -4 -8 -3 -5 3 11 17 -31 61 -61 65 -18 2 -27 8 -26 20 1 10
-2 16 -6 13 -5 -3 -15 2 -23 10 -9 8 -21 15 -27 15 -6 0 -9 4 -5 9 3 6 -4 8
-16 6 -17 -4 -19 -2 -9 10 10 11 10 15 1 15 -7 0 -9 5 -6 10 3 6 -1 10 -9 10
-9 0 -16 6 -16 13 0 15 -35 47 -51 47 -7 0 -6 6 2 17 13 15 12 15 -8 4 -19
-10 -22 -9 -17 4 4 8 1 15 -5 15 -6 0 -8 7 -5 15 4 8 1 15 -6 15 -7 0 -10 7
-6 15 3 8 1 15 -4 15 -10 0 -43 70 -38 80 2 3 -8 20 -21 38 -13 19 -21 41 -18
52 3 11 -1 27 -8 37 -9 13 -10 23 -3 37 7 12 7 16 0 12 -6 -3 -14 -1 -17 5 -5
7 -16 2 -34 -13 l-26 -23 25 28 c22 25 23 30 10 40 -9 7 -16 28 -18 47 -3 52
-5 60 -14 60 -4 0 -7 3 -6 8 1 4 -2 23 -6 42 -9 44 -14 72 -15 84 -1 4 -8 5
-17 2 -14 -6 -15 -4 -4 9 7 9 9 15 4 14 -20 -3 -31 2 -31 16 0 8 3 13 6 11 3
-2 12 2 19 10 7 8 8 14 3 14 -6 0 -8 6 -5 13 3 8 -2 20 -11 27 -8 7 -15 18
-15 24 0 6 5 4 10 -4 8 -11 9 -5 7 22 -3 21 1 39 7 42 6 2 3 5 -7 5 -10 1 -15
6 -12 11 4 6 11 7 17 4 7 -4 8 -2 4 5 -4 6 -2 18 4 26 7 8 9 15 5 15 -4 0 -14
-8 -22 -17 -12 -16 -12 -15 -2 9 7 16 17 25 23 21 6 -4 5 1 -3 10 -10 13 -10
17 -1 17 10 0 10 3 1 14 -14 16 -11 35 7 54 24 26 12 32 -46 24z"/>
</g>
</svg>
