<?xml version="1.0" encoding="UTF-8" standalone="no"?>
<svg
   version="1.0"
   width="1024.000000pt"
   height="1024.000000pt"
   viewBox="0 0 1024.000000 1024.000000"
   preserveAspectRatio="xMidYMid meet"
   id="svg12"
   sodipodi:docname="ミ.svg"
   xmlns:inkscape="http://www.inkscape.org/namespaces/inkscape"
   xmlns:sodipodi="http://sodipodi.sourceforge.net/DTD/sodipodi-0.dtd"
   xmlns="http://www.w3.org/2000/svg"
   xmlns:svg="http://www.w3.org/2000/svg">
  <defs
     id="defs16" />
  <sodipodi:namedview
     id="namedview14"
     pagecolor="#ffffff"
     bordercolor="#666666"
     borderopacity="1.0"
     inkscape:pageshadow="2"
     inkscape:pageopacity="0.0"
     inkscape:pagecheckerboard="0"
     inkscape:document-units="pt" />
  <metadata
     id="metadata2">
Created by potrace 1.16, written by Peter Selinger 2001-2019
</metadata>
  <g
     transform="translate(0.000000,1024.000000) scale(0.100000,-0.100000)"
     fill="#000000"
     stroke="none"
     id="g10">
    <path
       d="m 3620,9492 c -178.4277,-47.8239 -152.4193,-33.5069 -32.2606,-102.5703 -48.99,9.439 -12.3954,-237.8216 -20.7394,-156.1797 -22.9677,-77.5068 200.9203,49.3875 -5.875,-61.75 -135.86,-15.9687 -68.0112,-173.1048 60.875,-92.5 39.5515,16.7276 753.4952,267.0073 378,121 118.2245,1.7538 488.3018,-66.59 374,-19 131.7844,-33.0025 465.0533,-100.29 367,-76 137.767,-55.2873 601.2317,-187.812 452,-102.875 109.1459,-77.8464 315.3033,-250.9929 215,-190.125 121.5203,-68.9456 314.2373,-169.5815 250,-112 230.9507,-179.3021 292.0643,-447.5279 233,-420 28.9407,-51.0116 44.6488,-140.9623 20,-170 -36.5586,99.9142 -135.5168,-140.9791 -192.5781,36.4844 C 5523.5915,8097.216 5844.8909,8307.8639 5621,8415 c -245.8817,185.5882 -943.3262,44.6631 -689.5,95.375 -27.7507,-47.3811 296.0941,-251.5501 209.25,-256.375 197.0059,89.3689 -91.3076,-34.9807 73.25,-139 85.3828,-147.3202 199.7512,-144.4655 257,-310 191.2364,-183.6645 296.2032,-379.9396 480,-191 175.9871,18.3819 259.3025,115.3931 350.625,281.75 94.7412,277.626 -3.493,586.9631 -131.625,834.25 -107.621,99.954 -377.0952,436.5906 -280,334 -162.7707,221.9203 -427.9047,229.1429 -665,316 -122.3621,99.6597 -532.5092,82.5956 -379.4219,34.0469 -94.5615,1.673 -477.0856,55.68 -351.8281,31.5781 -74.7853,-32.6116 -341.1173,-6.362 -202.75,7.375 -197.0268,15.1649 -396.1677,-18.9184 -598,35 -32.3058,24.0691 -62.411,-14.5458 -73,4 z"
       id="path4" />
    <path
       d="m 3580,6799 c -197.4138,-103.0286 -256.4403,-334.7917 -366,-506 -66.3538,-116.6955 -123.6742,-502.451 -104,-394 33.8163,-124.5011 31.724,-259.2746 130,-399 103.5436,-178.5589 559.7334,-573.0293 427,-430 194.9565,-156.4267 418.9387,-280.6172 676,-273 141.0973,-30.4863 519.3255,-56.7715 367,-51.625 181.3357,-11.217 561.735,-69.1732 443,-48.375 169.4594,-59.2117 649.4659,-230.2672 491,-159 121.3011,-67.5245 390.6306,-232.6107 393,16 111.0211,-60.7568 -121.9759,60.9497 17,70 43.5687,226.6577 -644.1388,383.8208 -507,249 -182.3139,74.805 -376.6136,113.4357 -544,184 -276.0447,107.7782 -499.3489,134.7411 -408,106 -106.2417,67.3001 -280.3803,116.5083 -212,61.5 -64.1493,-3.8304 -252.3196,67.0084 -178.625,54.625 -103.9923,75.356 -380.9991,223.2605 -294.375,134.875 -76.056,116.6198 -327.539,373.3857 -272,260 -7.0475,146.4803 -72.7357,220.9634 -141,147 -13.4214,197.3084 76.4781,361.6469 62,561.625 -2.43,184.7995 209.229,341.8958 227,231.375 -9.3329,100.8493 -131.563,180.0232 -206,185 z"
       id="path6" />
    <path
       d="m 3242,3342 c -104.6551,-27.5908 -312.6184,-43.9289 -222,-45 -105.9074,-130.7736 -126.8066,-326.5367 -119,-310 -45.0182,-87.4588 -26.3691,-518.6297 -45.5,-413.125 17.6226,-260.6507 219.9959,-469.9161 411.5,-611.875 61.4357,-60.2258 249.3935,-193.324 186,-143 140.3418,-154.9381 317.4647,-304.2983 382,-514 88.035,-175.1496 153.4405,-280.8335 318,-358 61.3687,-46.16052 472.3126,-176.76679 355,-146 89.7231,-11.3934 399.7034,-44.87902 282,-49 161.9406,-18.33275 201.5341,-23.32909 353.5312,-46.90625 105.4297,7.69688 504.4808,10.18721 388.7188,-37.21875 118.9179,-4.14932 349.0839,32.52084 228.75,13.125 67.5834,-7.49557 371.0625,34.96053 266.5,25.5 73.4168,-3.37391 262.0617,-28.09866 174.5,-4.5 23.241,29.72579 365.8376,-90.91502 168,-17 74.8025,-3.82616 399.7975,-57.78842 307,-44 126.6193,-56.28127 352.693,-135.52476 241,-94 11.8884,52.12446 189.5661,-67.75512 179,-29 67.9241,26.52877 269.5633,92.9593 189,55 115.4015,-3.32298 -159.2488,146.02744 -99,163 -127.1613,59.42191 -240.1776,122.06293 -141,154 -25.1821,40.92313 -115.7798,-16.23613 -136.5,41.5 -104.6377,78.1729 -214.3621,63.65881 -173.5,32.5 -42.7621,-12.30746 -259.5068,-4.00967 -191,-3 -32.0849,-10.76811 -207.0264,35.95617 -145,29 -43.1887,-3.21047 -366.6812,85.7813 -359.625,39.5 -214.0136,14.405 215.8981,-100.34939 -160.375,9.5 -132.3676,13.7705 -397.9972,47.7039 -270,35 -36.2322,-64.0567 -220.1013,9.4218 -167,33 -31.6706,15.3555 -247.4297,35.2201 -184.125,42.875 53.2993,22.8639 -747.7879,88.5723 -319.875,61.125 -121.8258,52.4444 -118.4561,-4.4031 -204.25,103.75 -32.2602,-70.1278 -230.6154,91.2656 -177.25,74.25 -228.3452,91.8026 -262.8801,108.5891 -360.5,189 -82.3132,-40.4334 46.5674,66.1011 -17,81 32.1427,-133.0444 -172.7202,142.4788 -65.1562,110.1406 36.7087,-121.9954 -15.7245,-61.7864 -18.8438,-37.1406 -2.3628,-40.8164 147.414,40.2523 14,47 -2.6324,-28.2446 -223.2236,142.6199 -149,169 -16.1027,52.7579 -327.0523,273.6747 -249.125,190.25 -74.0125,50.6953 -215.1432,232.4377 -178.875,192.75 -91.0756,40.3712 -288.5069,294.8773 -182,327 53.2399,13.1272 -121.0386,378.2571 -98,327 46.9304,67.2641 -4.6227,159.9976 0.75,197.5 16.9807,36.5556 87.5655,192.2774 -11.75,159.5 z"
       id="path8" />
  </g>
</svg>
