<?xml version="1.0" encoding="UTF-8" standalone="no"?>
<svg
   version="1.0"
   width="1024.000000pt"
   height="1024.000000pt"
   viewBox="0 0 1024.000000 1024.000000"
   preserveAspectRatio="xMidYMid meet"
   id="svg14"
   sodipodi:docname="ム.svg"
   xmlns:inkscape="http://www.inkscape.org/namespaces/inkscape"
   xmlns:sodipodi="http://sodipodi.sourceforge.net/DTD/sodipodi-0.dtd"
   xmlns="http://www.w3.org/2000/svg"
   xmlns:svg="http://www.w3.org/2000/svg">
  <defs
     id="defs18" />
  <sodipodi:namedview
     id="namedview16"
     pagecolor="#ffffff"
     bordercolor="#666666"
     borderopacity="1.0"
     inkscape:pageshadow="2"
     inkscape:pageopacity="0.0"
     inkscape:pagecheckerboard="0"
     inkscape:document-units="pt" />
  <metadata
     id="metadata2">
Created by potrace 1.16, written by Peter Selinger 2001-2019
</metadata>
  <g
     transform="translate(0.000000,1024.000000) scale(0.100000,-0.100000)"
     fill="#000000"
     stroke="none"
     id="g12">
    <path
       d="m 4975,9431 c -183.4675,-97.9734 -364.6852,-240.3059 -450,-420 -132.0449,-160.1725 -287.9528,-360.5277 -429.375,-465.625 -73.217,-101.6643 -495.8602,-276.996 -345.25,-217 C 3753.4367,8252.5975 3481.7179,8051.2927 3568,8175 3433.467,8090.0787 3305.0746,8020.3528 3182.5,7911.125 2975.5854,7798.4503 2446.857,7225.7591 2665,7440 c -179.5087,-146.9897 -686.5035,-617.1312 -531,-468 -202.6267,-207.9194 -331.0769,-520.0349 -385,-802 -26.651,-119.1175 -2.2586,-505.6811 -3,-367 63.0195,-201.2934 -82.4602,-392.0939 -72,-563 -43.8674,-237.2645 -155.5857,-475.4869 -189,-698 -149.3232,-257.684 -148.7482,-582.2064 -144,-532 -13.7974,-84.0337 24.2158,-284.6767 108,-397 0.903,-74.7049 107.8173,-267.4593 92,-189 120.5123,-109.2188 216.9305,-175.4747 136.75,-124.875 35.8245,-72.5034 226.4488,-327.0918 182.25,-234.125 48.7122,-73.2553 165.7533,-206.7255 227,-129 -102.164,-51.6316 126.3031,-22.1489 116,71 77.4182,-0.6796 10.7725,232.5304 127.875,141.375 -56.6108,141.2637 -86.3331,373.1987 -103.5,240.5 -48.6925,-2.8394 -81.2142,310.2324 -81.375,220.125 -47.684,152.6038 9.8623,461.2249 -20,373 -5.7053,80.0835 -42.6041,266.9743 -19,168 -5.6275,84.9261 53.8137,339.6311 18,230 -18.9556,76.2736 87.9502,263.6642 44,212.5 -116.453,-60.8647 521.4747,1133.2536 85,292.5 59.9186,86.7054 38.7374,390.3165 59,271 22.9083,-15.0716 122.1394,246.0668 112,229 58.2463,113.1549 133.5307,295.0859 76,244 -2.5602,66.7988 100.6074,308.6749 -81,166 -35.8134,-102.6138 40.1074,137.4709 -36,69 60.7483,43.8971 109.3324,239.0607 70,186 44.3107,22.8912 197.9914,363.3026 112,199 28.6603,58.889 105.4571,193.7934 88.5,177.875 16.3191,40.1058 106.7039,202.4375 80.5,187.125 97.7634,92.3438 268.6894,361.6642 185,277 87.512,142.9967 211.209,239.5327 297,384.625 109.0078,98.8223 282.4262,338.3943 180,224.375 73.5505,95.8513 333.4246,354.0279 244,246 76.8524,76.8015 284.2435,275.3843 229,209 70.4796,95.5271 302.1143,328.6569 260.5,237.625 133.3657,99.5495 249.8457,225.8365 257.5,228.375 115.1654,134.1722 569.7321,450.0087 430.125,341.375 55.8233,139.5341 141.0492,316.661 51.875,297.625 -131.4163,-126.4806 169.1756,303.027 143,258 -0.2861,11.8641 62.9433,152.4559 -38,113 z"
       id="path4" />
    <path
       d="m 7496,6228 c -205.0476,21.837 -42.7172,-213.4107 -98.75,-137.5 47.3919,3.1849 188.9361,-179.269 102.75,-160.5 34.7637,-7.772 175.3611,-76.4552 138,-106 90.9579,-118.639 -139.0835,126.5479 82,-129 -108.5164,243.8473 341.4036,-473.536 41,-105 47.4676,-22.1607 166.7247,-188.3689 108.75,-149.125 35.6906,-49.3423 211.1106,-168.9836 146.25,-145.75 -76.0403,-2.1074 176.6779,-337.055 127,-267.125 50.6078,-91.4845 207.7278,-222.3386 164,-216 9.5478,-85.6807 338.2698,-444.0108 219,-367 141.5618,-48.4719 307.0324,-300.8048 224,-254 87.2641,-49.484 236.7454,-223.5477 165.75,-169 136.8313,-177.3736 208.289,-397.3914 350.25,-570 124.0163,-18.1239 111.3257,-366.78 120,-262 42.189,-19.0442 -41.8209,-195.4283 -72,-296.125 -53.8085,136.1638 -149.4444,459.3028 -141,321.125 -116.3571,139.8124 50.4504,149.4451 -83,299 -24.0505,69.7837 -417.6701,387.7103 -317,286 -95.3747,124.3099 -425.735,179.671 -322,-50 44.891,-154.8572 241.5095,-670.5294 192,-495 55.8541,-160.3389 56.5965,-623.2585 83,-454.875 24.8281,-172.4845 359.7776,-546.2643 194,-328.125 90.7209,-106.0035 456.756,-214.0658 349,-211 167.246,-39.5376 484.8922,159.7111 424,91 111.0703,89.596 226.5366,401.9195 239.5,331.125 59.4015,149.121 72.097,226.8767 38.5,300.875 -50.2554,121.0429 -156.8273,427.0207 -106.375,311.625 -46.6562,271.2437 69.2899,240.2658 -63.625,394.375 -131.1362,247.7214 -198.4021,532.4641 -393,741 -106.6865,191.3235 -618.5532,505.9446 -438,389 -145.8355,129.8004 -361.2319,339.8357 -290,270 -264.8386,242.3147 -476.2566,469.9849 -430,422 -90.8141,75.0393 -180.8213,200.1337 -279,286 -105.6881,91.6356 -295.1347,421.7086 -198.375,360.5 -48.8309,-70.8236 -215.6185,-1.0325 -168.625,-20.5 -113.8489,4.2107 -4.9173,77.4352 -38,47 -9.4257,20.9597 -55.0707,71.6133 -70,43 z"
       id="path6" />
    <path
       d="m 7450,4733 c -110.5392,42.2025 -133.2507,-297.0048 -52,-172 104.9464,12.1929 162.5162,-0.9956 70.875,-54.25 11.2658,102.9105 54.9691,74.8153 92.125,89.25 13.1559,31.6401 12.4944,162.5922 -42,112 30.4809,36.0585 228.8654,-191.1026 170,-138 -77.2518,-73.9395 -228.8681,50.0446 -167,-130 25.5932,5.0849 322.4553,-54.9227 217,-64 12.3323,11.914 253.8039,-4.9446 191,30 42.6869,-24.815 273.6084,-88.1844 176,-47 84.6676,-1.1878 219.1223,-3.6219 197,18 209.8507,52.4466 -221.7725,166.4255 -115,124 -88.8479,79.4487 -338.1273,220.4722 -270,120 -115.8549,27.0066 -327.43,81.4111 -238.75,88.875 -68.134,39.5994 -155.2827,10.0972 -229.25,23.125 z m 253,-140 c 62.0827,-74.4649 186.3719,-96.6531 109.75,-23.375 75.8212,-143.0446 -107.7382,-137.6788 -99.75,-58.625 -125.7354,-12.6754 -199.2872,-60.4526 -201.625,-9.875 28.723,12.3404 107.1343,177.6995 164.625,95.875 -44.9356,9.1514 40.3891,32.1603 27,-4 z"
       id="path8" />
    <path
       d="m 7319,4694 c -96.7801,-36.2145 -291.0828,55.3854 -206,1 -161.4804,-115.7225 -337.0637,-18.3307 -168.625,1.375 71.8854,-15.4862 -758.7309,-114.8464 -201.375,-63.75 -69.3061,-31.3074 -253.1468,-139.784 -285.25,-80.75 -25.732,55.5597 -301.103,8.8759 -235.5,-13.875 -89.4367,-62.8569 -367.7851,-65.9942 -290.125,-59.875 -22.5444,-18.6757 -224.7799,-70.793 -191.125,-65.125 -123.9422,-33.8627 -246.8625,-88.0845 -341,-103 -80.4093,-28.4649 -230.5132,-122.0508 -175.375,-73.25 26.615,41.4823 -957.107,-442.2152 -349.625,-150.75 -91.2032,-62.881 -422.3722,-204.9231 -324,-146 -115.6181,-50.8267 -661.4137,-268.3482 -438.5,-149 -89.6341,52.2843 -537.0953,-223.1093 -392.5,-199 -106.1813,-47.5729 -184.3195,-92.5381 -293.5,-156.875 C 3248.3958,3250.1232 3010.4653,3084.2534 2804,2912 c -158.4665,-133.5466 -505.4172,-384.0948 -344,-239 -120.3217,-101.6702 -486.8955,102.2725 -427,-6 -169.7601,-50.6036 -364.4186,149.2291 -300,121 -164.3414,27.3767 204.3536,276.5195 -71,257 -52.3499,-74.0348 -230.8729,258.1974 -156,219 -196.7596,108.2513 -354.2623,251.0214 -539,371 C 832.21863,3750.4257 451.25542,3771.8021 568.625,3753.125 308.15551,3754.0761 520.54179,3213.2928 478,3390 c 75.10778,-171.5996 151.41286,-288.7627 131.5,-245.875 -25.90346,-73.6886 154.39374,-314.9495 122.625,-266 C 819.20201,2718.7204 1006.5897,2511.972 955,2630 c 71.9504,-45.1477 209.3053,-528.7527 173,-284 53.261,-114.4632 433.2897,-296.5421 301,-256 136.3168,-52.461 340.5578,-58.2182 281,-80 102.0276,-46.1803 396.0817,-66.0527 336,-80 94.4883,-49.2982 322.2519,-67.8428 274,-60 80.964,-43.4436 349.7771,81.3091 286.5,43.5 50.8484,14.3259 321.4519,255.4434 277.125,164 119.1131,-6.8634 222.8174,210.3374 209.75,169.875 49.0669,-14.6247 180.6081,99.9032 126.625,95.625 56.1304,67.893 214.4897,219.1775 179.5,207.75 224.043,228.0639 144.4454,119.1986 291.5,297.25 60.1562,52.1329 268.8814,153.1218 237,152 77.7483,49.1175 344.7578,78.6133 262.125,75.25 122.9433,64.9793 24.5798,-75.1793 183,60.25 50.1906,18.1064 213.9394,125.9556 170.875,71.5 60.3558,-27.8976 149.4582,74.6786 156,43 -57.6344,-0.8053 -38.7072,84.6795 51,83 -11.0349,-18.4872 -127.5334,42.1264 -125,-5 -106.632,0.2755 75.9647,138.0723 100.75,95.125 60.825,15.8848 201.162,102.9578 165.25,90.875 145.962,73.4669 230.7372,80.1157 269,131 106.2921,62.3528 270.3632,150.4681 206,118 86.4852,30.9352 372.3862,135.0157 274,127 88.5748,53.7656 290.9307,114.1585 246,142.875 19.0846,11.0346 468.441,250.7306 184,111.125 41.2592,-25.6481 239.4281,45.0636 184,53 107.6582,68.5035 341.5425,140.897 224,99 96.1772,74.6796 268.2228,160.8101 221.625,93.75 56.876,-44.3965 299.0968,19.4723 232.375,42.25 93.1786,60.4033 292.2246,122.8672 179.125,63 205.1095,-31.0669 -101.7835,48.0378 141.875,49 -82.9071,-86.8763 -114.6192,157.2746 45,78 -15.1391,-65.3814 -35.9933,16.078 -58,-22 48.2119,38.0246 145.661,1.9512 78,94 z"
       id="path10" />
  </g>
</svg>
