<?xml version="1.0" standalone="no"?>
<!DOCTYPE svg PUBLIC "-//W3C//DTD SVG 20010904//EN"
 "http://www.w3.org/TR/2001/REC-SVG-20010904/DTD/svg10.dtd">
<svg version="1.0" xmlns="http://www.w3.org/2000/svg"
 width="1024.000000pt" height="1024.000000pt" viewBox="0 0 1024.000000 1024.000000"
 preserveAspectRatio="xMidYMid meet">
<metadata>
Created by potrace 1.16, written by Peter Selinger 2001-2019
</metadata>
<g transform="translate(0.000000,1024.000000) scale(0.100000,-0.100000)"
fill="#000000" stroke="none">
<path d="M4962 9431 c-23 -9 -59 -33 -81 -53 -22 -21 -47 -38 -56 -38 -9 0
-13 -4 -10 -10 3 -5 -3 -10 -14 -10 -12 0 -21 -5 -21 -12 0 -6 -3 -8 -7 -5 -3
4 -12 2 -20 -4 -7 -6 -13 -8 -13 -4 0 4 -9 -3 -21 -16 -11 -13 -18 -17 -14 -9
4 8 -1 6 -9 -4 -9 -11 -16 -24 -16 -29 0 -5 -7 -6 -16 -3 -8 3 -13 2 -10 -3 8
-12 -35 -92 -46 -85 -4 3 -8 -2 -8 -10 0 -9 -5 -16 -11 -16 -5 0 -7 -4 -4 -10
3 -5 1 -10 -5 -10 -6 0 -8 -4 -5 -10 3 -5 1 -10 -5 -10 -6 0 -17 -14 -24 -31
-7 -17 -17 -31 -22 -32 -5 -1 -8 -5 -6 -9 1 -5 -5 -8 -13 -8 -9 0 -12 -6 -8
-17 4 -9 2 -14 -3 -11 -5 3 -25 -15 -44 -41 -19 -25 -41 -53 -50 -62 -8 -9
-26 -31 -40 -49 -42 -55 -60 -71 -72 -64 -7 4 -8 3 -4 -4 4 -6 -5 -21 -19 -34
-14 -12 -25 -28 -25 -35 0 -8 -5 -11 -12 -7 -7 5 -9 2 -6 -8 4 -9 -5 -21 -28
-33 -18 -10 -31 -22 -28 -26 3 -5 -2 -9 -10 -9 -9 0 -16 -7 -16 -15 0 -8 -7
-15 -15 -15 -8 0 -15 -4 -15 -9 0 -5 -9 -13 -21 -16 -11 -4 -18 -9 -16 -12 10
-9 -28 -40 -43 -34 -13 4 -13 2 -1 -12 12 -15 12 -17 -2 -11 -10 4 -26 -4 -43
-23 -15 -15 -21 -20 -14 -10 7 9 10 17 7 17 -4 0 -18 -17 -33 -37 -14 -21 -24
-30 -21 -20 9 26 0 21 -18 -10 -9 -16 -14 -20 -11 -10 3 9 1 17 -4 17 -6 0
-10 -7 -10 -15 0 -8 -3 -14 -7 -13 -14 3 -58 -14 -65 -26 -4 -6 -16 -12 -28
-12 -32 -2 -33 -3 -19 -21 11 -13 11 -15 1 -9 -8 5 -22 0 -36 -13 -17 -16 -23
-18 -23 -7 0 8 5 12 10 9 6 -4 7 -1 2 7 -5 8 -4 11 3 6 6 -3 13 -2 16 3 5 8
-15 8 -34 1 -3 -1 -9 -2 -13 -1 -5 1 -5 -3 -2 -10 4 -6 -2 -17 -14 -25 -12 -9
-19 -19 -16 -24 3 -4 -3 -7 -13 -6 -9 0 -16 -5 -14 -11 1 -7 -2 -13 -8 -13 -5
0 -10 -7 -10 -15 0 -9 -6 -12 -15 -9 -8 4 -15 1 -15 -6 0 -6 -4 -8 -10 -5 -5
3 -10 -1 -10 -10 0 -9 -4 -13 -10 -10 -12 8 -60 -24 -60 -40 0 -7 -10 -11 -25
-10 -14 2 -25 -1 -25 -5 0 -5 -18 -20 -40 -33 -22 -13 -38 -26 -35 -29 4 -3
-8 -10 -24 -16 -17 -6 -31 -15 -31 -20 0 -5 -13 -15 -30 -22 -16 -7 -30 -17
-30 -22 0 -5 -4 -7 -9 -3 -6 3 -13 -1 -18 -8 -4 -7 -27 -24 -49 -38 -23 -13
-42 -28 -43 -34 -1 -5 -9 -9 -18 -7 -10 2 -12 -1 -7 -9 5 -9 2 -10 -10 -6 -10
4 -15 3 -11 -3 6 -9 -8 -14 -27 -11 -12 2 -10 -27 2 -34 6 -3 10 -12 10 -18 0
-7 -5 -4 -11 6 -14 23 -23 22 -39 -8 -7 -13 -18 -22 -23 -18 -6 3 -7 1 -3 -5
4 -7 -3 -17 -18 -24 -28 -12 -33 -23 -13 -32 6 -3 2 -3 -10 0 -15 3 -23 1 -23
-7 0 -7 -3 -10 -6 -6 -7 7 -78 -67 -82 -86 -1 -4 -16 -20 -34 -35 -18 -15 -35
-30 -36 -35 -2 -4 -8 -5 -13 -1 -5 3 -9 -2 -9 -10 0 -8 -8 -20 -18 -25 -10 -5
-24 -21 -31 -35 -8 -14 -18 -23 -22 -21 -4 3 -10 -4 -14 -15 -4 -11 -11 -18
-16 -15 -5 4 -9 1 -9 -6 0 -7 -3 -9 -6 -6 -4 3 -15 -5 -26 -18 -11 -14 -24
-22 -30 -19 -6 4 -8 2 -4 -4 3 -6 -3 -13 -14 -17 -11 -4 -18 -11 -15 -16 4 -5
2 -9 -4 -9 -6 0 -19 -10 -31 -22 -11 -12 -20 -18 -20 -13 0 4 -13 -6 -29 -23
-16 -16 -32 -28 -34 -25 -3 2 -10 -5 -17 -16 -6 -12 -15 -19 -19 -16 -5 3 -11
-2 -15 -10 -3 -8 -10 -15 -15 -15 -14 0 -101 -88 -101 -101 0 -6 -3 -9 -7 -7
-10 5 -62 -49 -55 -56 3 -4 -2 -6 -11 -6 -10 0 -17 -4 -17 -10 0 -5 -7 -10
-16 -10 -8 0 -13 -4 -10 -8 6 -10 -45 -58 -57 -54 -5 1 -6 -2 -2 -8 4 -6 -8
-24 -25 -40 -18 -17 -29 -30 -25 -30 5 0 -3 -10 -16 -23 -13 -13 -25 -29 -27
-36 -1 -7 -9 -19 -17 -27 -8 -8 -24 -32 -36 -54 -13 -22 -26 -40 -29 -40 -6 0
-8 -7 -12 -49 -1 -11 -6 -17 -10 -15 -7 4 -9 -6 -8 -31 1 -3 -7 -13 -15 -22
-12 -11 -13 -18 -5 -23 8 -5 6 -9 -5 -14 -10 -3 -15 -12 -11 -21 3 -8 1 -17
-5 -20 -5 -4 -7 -10 -4 -15 3 -4 -2 -11 -11 -14 -8 -3 -13 -10 -9 -15 3 -5 1
-12 -4 -16 -5 -3 -8 -14 -6 -25 3 -13 0 -18 -7 -14 -7 5 -9 2 -5 -9 3 -9 1
-17 -6 -20 -6 -2 -12 -17 -13 -33 -2 -44 -3 -46 -16 -38 -10 5 -10 4 -1 -6 7
-8 9 -20 4 -29 -9 -19 -8 -32 2 -48 5 -8 3 -13 -7 -13 -9 0 -13 -7 -11 -20 2
-11 -1 -20 -6 -20 -6 0 -7 -9 -4 -20 4 -11 2 -20 -4 -20 -6 0 -8 -6 -5 -14 3
-8 0 -17 -6 -21 -8 -5 -6 -12 5 -25 11 -12 13 -20 6 -25 -6 -3 -11 -11 -11
-16 0 -6 3 -8 8 -6 4 3 8 -52 9 -121 4 -165 4 -172 12 -167 4 2 7 -14 7 -36
-1 -21 -5 -39 -10 -39 -5 0 -3 -6 3 -14 8 -9 8 -16 2 -20 -5 -4 -10 -14 -10
-24 0 -23 -5 -44 -15 -61 -7 -11 -6 -12 5 -6 11 7 12 6 2 -7 -7 -8 -10 -18 -6
-21 3 -4 2 -7 -3 -7 -5 0 -11 -10 -11 -22 -1 -13 -6 -24 -11 -26 -6 -2 -8 -12
-5 -22 3 -12 0 -20 -7 -20 -7 0 -10 -6 -7 -14 3 -8 1 -17 -6 -20 -9 -3 -8 -5
1 -5 10 -1 10 -5 0 -23 -6 -13 -13 -54 -14 -93 -3 -89 -3 -87 -12 -81 -4 2 -8
-3 -9 -12 -2 -52 -8 -82 -16 -82 -4 0 -5 -5 -2 -11 4 -5 -1 -20 -12 -31 -10
-12 -12 -18 -4 -13 10 6 10 2 -2 -16 -8 -13 -13 -32 -12 -42 2 -9 -1 -15 -6
-11 -8 4 -10 -1 -9 -21 1 -3 -6 -13 -15 -21 -8 -9 -13 -20 -9 -25 3 -6 0 -17
-8 -26 -11 -14 -11 -16 2 -8 13 8 13 7 1 -8 -8 -10 -14 -31 -13 -47 0 -16 -4
-32 -9 -35 -14 -9 -11 -27 4 -20 6 4 5 1 -4 -7 -9 -7 -14 -19 -12 -25 3 -7 1
-13 -4 -13 -8 0 -13 -23 -16 -67 0 -7 -4 -13 -8 -13 -4 0 -7 -6 -6 -12 1 -42
-4 -78 -11 -74 -4 2 -9 -5 -9 -16 -1 -11 -9 -28 -17 -37 -9 -10 -16 -21 -16
-25 0 -4 -12 -24 -28 -44 -15 -20 -21 -32 -13 -28 10 7 10 3 -2 -15 -16 -26
-31 -77 -28 -96 1 -6 -3 -14 -8 -17 -5 -3 -7 -15 -4 -26 3 -11 1 -20 -3 -20
-5 0 -9 -32 -9 -70 1 -57 -2 -70 -13 -65 -11 4 -12 2 -5 -7 15 -20 24 -50 13
-43 -6 3 -10 1 -10 -4 0 -6 6 -11 13 -11 8 0 7 -4 -3 -10 -8 -5 -10 -10 -5
-10 6 0 10 -32 10 -76 0 -59 4 -80 18 -95 12 -12 13 -19 5 -19 -7 0 -2 -7 10
-16 18 -12 21 -19 11 -30 -9 -11 -8 -15 5 -20 9 -3 13 -10 10 -15 -3 -5 0 -9
5 -9 6 0 10 -6 8 -12 -1 -7 4 -12 11 -10 10 2 11 -4 7 -19 -6 -18 -4 -21 11
-15 18 6 18 5 0 -9 -18 -14 -12 -20 16 -16 4 0 5 -6 2 -14 -4 -8 -10 -12 -16
-9 -5 3 -4 -3 4 -15 7 -12 16 -22 20 -22 5 -1 13 -2 18 -3 6 0 10 -4 10 -8 0
-5 0 -11 0 -14 0 -4 -6 -1 -14 5 -11 9 -16 9 -22 0 -4 -8 -3 -9 4 -5 7 4 12 1
12 -9 0 -10 5 -13 12 -9 8 5 9 2 5 -9 -3 -9 -2 -19 4 -22 5 -4 6 -12 3 -18 -5
-8 -3 -8 7 0 15 15 33 17 24 4 -3 -5 -1 -12 5 -16 6 -4 7 -12 4 -18 -4 -7 -4
-9 1 -5 11 10 47 -33 41 -49 -3 -7 -2 -12 2 -12 21 3 32 -3 32 -17 0 -8 5 -12
10 -9 6 3 10 -1 10 -9 0 -19 11 -20 30 -3 12 10 12 9 1 -5 -15 -21 13 -60 37
-50 10 3 13 1 8 -6 -10 -16 16 -15 34 0 8 7 4 0 -10 -15 -14 -16 -20 -28 -15
-27 29 6 38 0 24 -17 -7 -10 -10 -15 -5 -11 4 4 18 -4 31 -18 12 -13 27 -24
34 -24 6 0 11 -7 11 -16 0 -9 9 -25 21 -35 11 -10 18 -22 15 -28 -4 -6 2 -8
14 -6 11 2 18 0 15 -5 -3 -4 -2 -10 2 -13 5 -2 3 -2 -4 -1 -6 2 -14 -3 -16
-10 -4 -9 3 -12 20 -10 18 2 23 -1 19 -13 -5 -11 -2 -14 11 -9 14 6 15 4 6 -5
-13 -13 -6 -42 8 -33 5 3 9 0 9 -6 0 -6 4 -9 9 -6 5 4 8 -5 7 -18 -2 -18 2
-23 18 -22 13 1 20 -4 18 -12 -1 -8 2 -11 8 -7 6 3 8 10 6 14 -3 3 4 7 14 7
15 0 17 -3 7 -15 -10 -12 -9 -14 4 -9 9 4 22 1 29 -5 9 -9 11 -9 7 -1 -4 7 0
14 8 18 8 3 15 0 15 -6 0 -6 3 -8 6 -5 4 4 1 13 -6 22 -15 18 0 20 20 3 8 -7
11 -9 7 -4 -4 5 -1 16 6 24 9 13 9 14 -1 8 -17 -10 -15 9 3 24 8 7 15 18 15
25 0 7 8 21 18 32 9 10 13 13 9 7 -6 -9 -2 -11 12 -7 12 3 18 9 15 14 -3 5 2
6 11 2 14 -5 14 -8 3 -15 -10 -8 -10 -11 0 -15 6 -2 9 -10 6 -15 -4 -7 -2 -8
5 -4 6 4 9 12 6 17 -4 5 -1 9 4 9 6 0 11 -5 11 -11 0 -7 11 -8 32 -3 31 6 32
6 18 -12 -14 -18 -14 -18 6 -1 11 9 24 14 28 10 4 -4 4 1 0 12 -7 18 -6 19 11
5 15 -12 17 -12 10 -1 -6 11 -4 13 8 8 15 -6 22 3 18 26 0 4 4 7 10 7 6 0 8 9
4 21 -4 13 -2 25 5 29 8 5 2 12 -18 21 -17 7 -28 18 -25 23 4 5 -1 7 -12 2
-14 -5 -16 -4 -7 7 9 10 7 19 -8 35 -11 12 -20 33 -20 47 0 17 -4 24 -12 19
-7 -4 -8 -3 -4 5 4 6 1 18 -8 26 -20 20 -29 19 -17 -3 8 -15 5 -18 -12 -19
-12 0 -16 1 -9 4 6 3 12 9 12 14 0 6 -4 7 -10 4 -6 -4 -7 1 -3 11 4 11 3 15
-5 10 -6 -3 -13 -2 -16 3 -4 5 -2 12 3 16 5 3 8 14 6 25 -2 12 0 18 6 14 14
-8 3 47 -12 60 -9 8 -10 8 -5 -1 3 -6 3 -14 -2 -17 -5 -3 -9 0 -9 7 -1 22 -8
42 -18 49 -6 5 -5 8 3 8 6 0 12 5 12 11 0 5 -4 8 -9 4 -5 -3 -11 5 -13 17 -2
15 -9 22 -20 20 -12 -2 -16 2 -12 13 3 8 11 12 18 9 6 -3 3 1 -7 9 -18 15 -18
16 5 28 15 8 18 14 10 17 -10 3 -10 7 -1 18 10 12 9 13 -4 8 -12 -4 -14 -1
-10 15 3 14 1 21 -8 21 -11 0 -11 2 1 10 8 5 10 10 4 10 -7 0 -14 11 -16 25
-3 13 -2 22 2 20 5 -3 11 2 14 11 3 8 2 12 -4 9 -5 -3 -8 4 -7 15 1 11 4 20 8
20 11 0 4 57 -9 73 -8 9 -11 21 -7 28 4 6 1 15 -6 20 -11 7 -11 11 -2 17 7 4
11 17 9 27 -2 11 1 31 7 45 13 34 16 60 5 66 -4 3 -6 9 -3 14 3 5 1 11 -4 15
-6 3 -8 12 -4 20 3 10 -1 15 -13 15 -15 0 -16 2 -5 9 11 7 10 10 -5 14 -15 4
-15 5 -3 6 9 0 20 9 24 19 5 14 4 15 -6 5 -7 -7 -18 -13 -23 -13 -6 0 -4 5 4
10 12 8 13 13 3 29 -11 17 -10 19 2 15 11 -5 12 0 5 24 -6 23 -5 30 4 26 7 -3
13 2 13 11 0 11 -7 14 -21 10 -19 -5 -19 -5 -3 5 15 10 16 14 5 28 -8 10 -9
13 -1 9 6 -4 14 -3 18 3 3 5 2 10 -3 10 -5 0 -9 7 -9 15 0 8 4 15 8 15 15 0
17 30 3 45 -14 13 -14 15 1 15 9 0 13 5 10 10 -4 6 -11 8 -16 5 -5 -3 -6 1 -3
9 3 9 10 13 15 10 5 -3 9 -1 9 5 0 5 -6 12 -12 14 -10 4 -10 6 0 6 7 1 10 6 7
11 -3 6 -1 10 5 10 6 0 8 5 5 10 -3 6 -1 10 5 10 6 0 8 4 5 10 -3 5 1 20 9 32
11 15 12 26 5 39 -7 15 -6 17 5 13 12 -4 14 2 10 31 -3 23 -1 34 6 30 5 -3 7
0 4 8 -3 8 -1 18 5 21 6 4 8 13 4 21 -3 8 0 15 7 15 9 0 9 4 -1 17 -10 11 -10
14 -1 9 7 -4 12 -1 12 9 0 10 4 13 13 8 6 -4 4 5 -6 20 -11 18 -13 25 -4 21 8
-3 19 7 28 23 8 15 20 34 26 41 7 7 13 18 13 23 0 6 6 7 13 3 8 -5 8 -2 -2 9
-9 12 -10 17 -2 17 7 0 9 5 6 10 -3 6 0 10 7 10 9 0 9 3 -2 10 -14 9 -7 15 14
11 5 -1 3 6 -5 15 -12 15 -12 17 0 9 11 -6 13 -4 8 8 -4 10 -2 17 5 17 6 0 5
6 -3 17 -10 11 -10 14 -1 9 6 -4 12 -2 12 3 0 6 -5 11 -11 11 -5 0 -7 5 -4 10
4 6 10 8 14 6 4 -3 8 1 8 9 0 8 -6 15 -13 15 -7 0 -16 4 -19 10 -3 5 0 7 8 4
21 -8 31 14 15 33 -9 12 -9 15 0 9 12 -7 16 3 12 38 -1 12 2 16 11 10 9 -5 11
-2 6 9 -3 9 0 18 9 21 8 3 14 19 14 37 0 21 4 30 13 26 8 -3 14 4 15 16 0 12
6 23 12 25 5 2 8 8 4 13 -3 5 0 9 7 9 7 0 9 10 7 25 -3 14 -1 28 5 32 5 3 7 1
3 -5 -3 -6 -2 -13 2 -16 5 -3 9 5 8 17 -1 14 -7 21 -16 19 -12 -3 -12 -1 -3 9
6 6 9 18 6 25 -3 8 2 16 10 20 9 3 14 14 12 24 -2 10 3 24 10 30 11 9 12 17 4
31 -7 15 -7 19 3 17 8 -2 13 8 13 29 0 17 3 29 7 26 5 -2 8 0 8 6 0 5 -8 15
-17 20 -16 9 -15 10 5 11 16 0 21 4 15 13 -10 16 -13 37 -5 36 21 -3 23 3 6
16 -19 15 -19 15 1 8 11 -3 17 -3 13 2 -4 4 -2 15 5 23 10 13 9 14 -3 7 -12
-7 -13 -6 -3 6 15 19 -2 40 -25 32 -11 -5 -13 -3 -7 7 5 8 3 11 -6 8 -8 -3
-13 -13 -11 -23 2 -10 -1 -14 -7 -10 -6 3 -11 -1 -11 -9 0 -9 -6 -15 -12 -13
-7 1 -12 -3 -11 -10 2 -8 -4 -10 -15 -6 -15 6 -16 5 -2 -12 9 -11 10 -16 3
-11 -27 16 -52 15 -46 -1 5 -12 3 -14 -7 -8 -8 5 -20 -1 -32 -16 -19 -23 -19
-23 -8 -1 6 12 8 28 4 34 -5 7 -2 9 8 6 11 -5 14 1 13 23 -1 20 3 29 13 29 9
0 13 3 9 6 -3 3 5 16 18 28 19 18 22 25 12 35 -9 10 -8 11 7 5 16 -6 17 -4 11
16 -5 17 -4 21 5 15 9 -6 11 -4 4 6 -13 22 -16 59 -4 59 6 0 8 -5 4 -12 -4 -6
-3 -8 3 -5 6 4 8 18 5 32 -2 15 0 25 7 25 7 0 9 5 6 10 -4 6 -1 9 7 8 7 -2 14
7 16 19 2 13 11 28 20 35 22 17 53 73 45 82 -3 3 -1 6 5 6 7 0 11 3 10 8 -1 6
11 41 29 82 4 8 7 22 8 30 0 8 6 14 13 13 7 -2 9 4 5 14 -4 10 -2 14 4 10 6
-4 14 0 17 9 3 8 10 13 15 10 5 -3 7 3 4 14 -3 11 -10 17 -15 14 -6 -4 -5 3 2
15 6 12 16 18 22 15 7 -4 8 -3 4 5 -4 6 -13 9 -19 5 -7 -3 -4 1 5 9 10 8 15
17 11 20 -3 4 -2 7 4 7 6 0 13 9 16 20 3 11 2 18 -2 15 -4 -2 -8 2 -8 10 0 8
5 13 10 12 5 -1 12 4 15 12 3 9 0 11 -9 7 -8 -4 -4 1 8 10 23 17 33 41 11 28
-7 -4 -8 -3 -4 5 6 9 11 9 22 0 12 -10 13 -9 8 6 -5 12 -4 16 4 11 13 -8 35
27 24 40 -4 5 2 2 12 -6 18 -14 19 -14 6 10 -13 24 -12 24 5 10 17 -14 18 -13
12 2 -3 10 -1 23 6 30 7 8 13 20 15 27 4 19 24 47 37 52 5 2 9 10 7 17 -2 6 2
12 8 12 6 0 8 5 5 10 -3 6 -2 10 4 10 6 0 7 7 4 17 -4 9 -2 14 3 11 5 -3 17 3
27 14 16 17 14 23 -8 18 -5 -1 -6 2 -2 7 5 4 14 8 20 8 7 0 11 10 11 22 -1 13
2 20 7 17 10 -6 59 36 59 51 0 7 14 22 30 35 17 13 30 29 30 37 0 8 5 11 10 8
6 -3 10 -1 10 5 0 6 5 8 12 4 7 -4 8 -3 4 5 -4 6 7 26 26 46 18 20 34 40 34
45 1 6 2 15 3 21 0 5 7 7 14 3 7 -5 7 -2 -2 10 -8 9 -10 16 -4 14 5 -2 22 12
38 30 16 19 34 31 42 28 8 -3 12 -2 10 2 -9 14 13 52 29 52 10 0 14 5 11 15
-4 8 -2 17 4 20 5 4 7 10 4 15 -3 4 2 11 11 14 8 3 12 11 9 16 -4 6 -3 9 2 8
4 -2 9 1 10 6 0 5 8 13 17 18 9 5 14 13 11 19 -4 5 1 9 9 9 9 0 16 5 16 10 0
6 5 10 11 10 5 0 7 -5 3 -12 -4 -7 -3 -8 5 -4 9 6 9 11 0 22 -14 17 2 19 20 2
10 -11 11 -9 5 6 -6 15 -4 17 7 11 12 -7 12 -6 1 7 -14 18 -3 31 36 42 12 4
20 11 17 15 -2 4 7 18 20 29 28 24 40 28 29 10 -4 -6 -3 -8 4 -4 6 3 9 15 7
25 -2 12 5 23 20 31 14 7 22 17 19 22 -3 4 2 8 11 8 9 0 14 3 12 8 -2 4 7 17
20 29 13 12 23 19 23 15 0 -4 7 1 14 11 8 10 18 19 23 20 4 1 7 5 6 9 -2 4 6
9 16 13 10 3 24 16 31 30 7 13 16 23 19 21 10 -5 40 32 33 40 -4 4 -2 4 5 0 6
-3 27 3 45 15 18 12 25 19 16 16 -12 -4 -15 -2 -11 9 3 8 8 12 11 9 3 -2 12 4
19 15 8 11 19 18 24 15 5 -3 6 2 2 11 -4 12 -3 15 5 10 7 -4 12 -2 12 4 0 6
11 15 25 22 13 6 23 14 20 17 -2 4 16 20 40 36 25 17 45 34 45 38 0 5 5 5 10
2 6 -3 10 1 10 9 0 15 12 21 33 17 5 -1 6 2 3 7 -6 10 34 50 76 77 15 9 25 21
22 26 -5 8 10 13 30 10 5 -1 6 5 3 14 -4 8 -1 15 5 15 6 0 21 12 34 26 14 14
29 22 36 18 7 -4 8 -3 4 5 -4 6 0 18 8 27 9 8 16 13 16 9 0 -3 6 0 14 7 8 7
13 15 12 18 -2 3 5 13 16 23 10 9 18 15 18 12 0 -3 11 2 25 11 14 9 23 19 21
21 -7 7 56 59 67 55 5 -1 5 3 1 9 -5 9 -2 10 9 6 11 -4 14 -2 10 9 -3 9 1 14
12 14 10 0 13 5 9 12 -5 7 -2 9 9 5 8 -3 21 1 27 8 7 8 16 12 21 9 5 -3 9 2 9
10 0 8 9 18 20 21 11 3 20 11 20 17 0 6 8 2 18 -9 9 -10 14 -14 10 -9 -15 19
-10 40 6 27 12 -10 13 -8 9 11 -3 13 -3 20 2 16 4 -4 25 12 48 35 22 23 37 36
32 28 -5 -10 -4 -12 4 -7 6 4 9 11 6 16 -8 13 30 71 40 62 4 -4 5 1 2 10 -4
10 5 29 23 50 17 18 30 39 30 46 0 6 5 12 11 12 5 0 7 5 4 10 -4 6 -1 18 6 26
11 13 10 18 -4 26 -10 5 -15 14 -11 19 3 5 0 17 -8 26 -8 10 -8 14 -1 10 6 -4
15 -2 19 5 4 7 4 10 -1 6 -4 -4 -14 -3 -22 4 -11 9 -13 8 -11 -3 2 -8 -3 -13
-9 -11 -7 1 -13 -3 -13 -9 0 -6 -7 -9 -15 -5 -10 3 -15 -1 -16 -12 0 -11 -2
-13 -6 -4 -3 7 15 32 38 54 24 23 37 37 29 32 -9 -5 -7 -1 3 9 11 9 16 17 12
17 -4 0 -3 6 2 13 27 34 72 130 66 140 -4 8 -1 7 9 -1 19 -15 30 4 33 57 1 19
7 37 13 39 7 2 12 8 12 13 0 6 -6 7 -12 3 -8 -5 -7 0 2 11 9 11 10 16 3 11 -7
-4 -13 -3 -13 2 0 13 -23 11 -68 -7z"/>
<path d="M7395 6220 c3 -4 0 -10 -7 -12 -7 -3 -13 -19 -13 -36 -1 -28 5 -36
26 -34 3 1 6 -6 6 -13 0 -12 -3 -12 -16 -2 -12 10 -14 9 -8 -6 4 -10 7 -21 7
-23 0 -3 5 -2 10 1 6 3 10 -4 11 -17 2 -70 51 -157 82 -145 10 4 13 -2 11 -19
-2 -20 0 -22 16 -14 26 14 34 12 21 -4 -10 -12 -7 -18 13 -31 14 -10 23 -22
19 -28 -3 -6 -1 -7 5 -3 8 4 12 0 12 -11 0 -15 2 -16 10 -3 10 15 15 3 11 -22
0 -5 6 -8 15 -8 9 0 12 -5 8 -12 -5 -7 -3 -8 5 -3 9 5 9 11 3 17 -6 6 -8 17
-5 25 4 11 9 9 20 -7 8 -11 18 -18 23 -15 4 3 13 -1 19 -9 9 -10 8 -15 -3 -19
-10 -4 -13 -1 -10 7 3 7 -2 13 -10 13 -8 0 -18 -7 -20 -14 -3 -8 -2 -11 4 -8
5 3 9 -3 9 -12 1 -42 5 -53 17 -53 7 0 17 -8 23 -17 9 -17 11 -17 25 2 8 11
18 17 22 12 4 -4 2 -7 -5 -7 -7 0 -10 -4 -6 -9 3 -5 -4 -12 -15 -16 -11 -4
-18 -11 -15 -16 4 -5 13 -5 24 1 10 5 22 6 26 2 5 -4 5 1 2 11 -5 14 -3 16 12
8 10 -6 21 -7 25 -4 3 3 6 1 6 -6 0 -7 -7 -11 -14 -8 -10 4 -13 1 -9 -8 3 -8
10 -12 16 -8 6 3 7 1 3 -6 -6 -9 -13 -9 -29 2 -12 8 -28 12 -34 10 -15 -5 -17
-33 -3 -33 6 0 10 5 10 10 0 6 8 5 20 -2 11 -7 20 -17 20 -22 0 -4 -7 -3 -15
4 -12 10 -19 10 -27 2 -9 -9 -8 -12 5 -12 15 0 22 -11 18 -32 0 -5 4 -8 10 -8
5 0 8 -4 5 -9 -3 -5 1 -14 9 -21 8 -7 12 -17 8 -24 -4 -6 0 -6 9 2 14 11 15 9
13 -18 -1 -16 1 -27 6 -24 5 3 6 11 3 17 -4 7 -3 8 2 4 5 -5 9 -14 9 -20 1 -7
7 -11 14 -9 8 2 10 -4 6 -18 -5 -16 -3 -19 11 -13 14 5 16 3 11 -12 -7 -16 -5
-16 9 -4 16 13 16 12 5 -9 -9 -18 -9 -22 1 -20 7 2 12 -3 10 -11 -3 -12 0 -12
13 -1 13 11 15 10 9 -4 -4 -9 1 -23 13 -34 10 -9 12 -12 3 -7 -13 9 -13 8 -1
-7 7 -10 21 -18 30 -18 14 0 14 -2 1 -10 -10 -6 -11 -10 -2 -10 6 0 12 -7 12
-16 0 -10 6 -14 15 -10 8 3 15 2 16 -2 0 -4 2 -15 4 -25 2 -9 -1 -15 -6 -11
-5 3 -7 10 -4 15 4 5 1 9 -4 9 -16 0 -13 -16 4 -30 8 -7 12 -16 9 -21 -7 -13
10 -11 23 2 8 8 13 8 18 0 3 -7 1 -10 -6 -9 -21 5 -17 -25 6 -47 11 -11 14
-16 5 -10 -11 7 -11 5 3 -11 9 -11 14 -24 10 -29 -5 -4 -2 -5 5 -1 7 4 12 1
12 -8 0 -9 5 -16 12 -16 6 0 8 -3 5 -6 -3 -4 2 -18 13 -32 11 -13 17 -28 14
-33 -3 -5 -2 -9 3 -8 20 3 33 -2 30 -13 -1 -7 4 -12 11 -10 10 2 10 -2 1 -19
-6 -12 -7 -19 -1 -15 5 3 12 -1 15 -8 3 -8 3 -17 -1 -19 -4 -2 -1 -2 6 0 8 2
16 -6 19 -17 5 -18 15 -24 36 -21 11 2 8 -14 -5 -28 -11 -11 -7 -12 21 -9 29
4 32 3 17 -7 -14 -11 -15 -15 -3 -26 7 -8 12 -20 9 -28 -3 -8 0 -11 7 -7 6 4
11 4 12 -1 3 -30 9 -48 19 -51 5 -2 8 -8 4 -13 -3 -5 0 -9 6 -9 6 0 8 -4 5
-10 -3 -5 -2 -10 3 -10 9 0 37 -76 35 -97 0 -7 6 -13 14 -13 8 0 11 -5 8 -10
-3 -6 4 -14 17 -19 13 -5 34 -22 48 -37 l25 -29 -35 30 c-19 17 -29 23 -22 14
6 -9 8 -20 4 -24 -4 -5 -2 -5 4 -2 7 4 17 0 24 -8 6 -7 18 -11 26 -8 7 3 17
-2 20 -11 4 -9 15 -21 26 -27 15 -8 19 -8 14 0 -5 7 -1 9 8 5 9 -3 16 -13 16
-21 0 -8 5 -11 10 -8 6 3 10 1 10 -5 0 -6 5 -8 12 -4 8 5 9 2 5 -9 -8 -22 9
-22 22 1 6 9 11 13 11 9 0 -4 -7 -19 -16 -32 -15 -23 -15 -25 0 -31 9 -3 13
-10 10 -15 -3 -5 0 -9 6 -9 6 0 8 -5 4 -12 -5 -7 -2 -9 7 -6 10 4 15 -1 17
-15 0 -12 6 -23 12 -25 5 -2 8 -8 4 -13 -3 -5 0 -9 6 -9 6 0 8 -5 4 -12 -5 -8
0 -7 11 2 10 8 16 11 13 5 -3 -5 5 -20 18 -33 15 -14 24 -18 25 -10 0 7 5 2
10 -11 6 -15 14 -21 25 -17 8 3 13 2 9 -3 -7 -12 5 -42 15 -36 4 3 11 -6 14
-20 4 -16 11 -22 21 -19 9 4 15 0 15 -10 0 -9 4 -16 9 -16 5 0 13 -10 16 -21
6 -17 9 -19 17 -8 7 10 9 8 5 -8 -4 -17 -1 -20 12 -16 9 4 13 3 9 -2 -4 -4 -1
-17 7 -29 8 -11 15 -28 15 -38 0 -10 4 -18 9 -18 5 0 16 -15 25 -32 9 -18 28
-51 41 -73 31 -50 56 -105 58 -127 1 -9 5 -14 9 -12 4 3 8 -2 8 -11 0 -20 45
-66 56 -57 4 4 4 1 0 -5 -8 -14 7 -48 21 -48 4 0 7 -6 7 -12 -1 -7 2 -10 7 -7
8 5 13 -9 10 -29 0 -4 2 -6 6 -6 21 3 33 -2 33 -15 0 -8 7 -17 16 -20 8 -3 13
-2 10 2 -3 5 1 9 8 9 8 0 12 -7 8 -15 -4 -11 -1 -13 8 -7 10 6 12 4 7 -8 -4
-12 -2 -14 10 -10 10 4 14 2 10 -4 -4 -6 0 -18 8 -26 11 -12 12 -17 2 -20 -9
-4 -9 -6 1 -6 7 -1 10 -5 7 -11 -3 -6 0 -10 7 -10 9 0 9 -3 -2 -10 -13 -8 -12
-10 3 -10 9 0 17 -5 17 -11 0 -5 -5 -7 -11 -3 -7 4 -7 -1 1 -16 8 -15 8 -20 1
-16 -6 4 -11 2 -11 -3 0 -6 4 -11 9 -11 10 0 9 -19 -2 -37 -4 -6 -3 -14 3 -18
5 -3 10 -11 10 -16 0 -6 -5 -7 -11 -3 -8 4 -8 0 0 -15 7 -13 9 -39 5 -68 -4
-27 -7 -56 -6 -65 0 -10 -4 -18 -10 -18 -5 0 -8 -7 -5 -15 4 -8 2 -17 -4 -20
-5 -4 -7 -11 -4 -16 4 -5 1 -9 -4 -9 -6 0 -11 -11 -11 -24 0 -14 -5 -28 -11
-31 -6 -4 -8 -13 -5 -21 3 -8 0 -11 -10 -7 -11 4 -12 9 -4 18 7 9 7 15 1 19
-5 4 -8 20 -6 38 4 29 4 30 -11 12 -9 -10 -13 -13 -9 -6 3 6 1 12 -6 12 -7 0
-4 7 7 15 11 9 13 14 5 13 -8 -2 -17 7 -20 20 -3 13 -9 23 -13 23 -23 -2 -29
0 -24 8 4 5 -8 15 -24 23 -24 10 -30 17 -24 33 3 11 7 30 8 43 0 12 6 22 11
22 6 0 3 5 -5 10 -13 8 -13 10 -1 10 11 0 10 4 -4 13 -10 8 -15 19 -11 25 4 7
1 12 -9 12 -9 0 -13 5 -10 10 3 6 0 10 -7 10 -9 0 -9 3 2 10 12 8 11 10 -6 10
-12 0 -24 7 -27 14 -4 11 -1 13 10 9 13 -5 12 -1 -3 23 -11 15 -14 25 -7 21 6
-4 14 -3 18 3 3 5 1 10 -6 10 -9 0 -9 4 1 15 6 8 9 19 5 25 -3 5 -1 10 4 10
17 0 13 50 -4 56 -8 4 -15 12 -15 20 0 8 -4 14 -9 14 -5 0 -13 9 -16 20 -4 11
-11 18 -16 15 -5 -4 -9 -1 -9 5 0 6 -4 8 -10 5 -5 -3 -10 -1 -10 4 0 6 8 11
18 12 14 0 14 2 -3 9 l-20 9 20 1 c17 1 15 4 -8 14 -15 7 -25 15 -22 17 3 3
-5 5 -17 4 -22 -2 -65 33 -60 48 1 5 -2 6 -7 3 -5 -3 -20 6 -35 21 -14 14 -26
22 -26 17 0 -5 -9 4 -19 19 -10 16 -22 29 -27 30 -14 1 -34 24 -27 31 4 3 -3
6 -15 6 -12 0 -22 5 -22 10 0 6 -12 15 -26 20 -14 6 -22 14 -19 20 3 5 -6 12
-20 16 -22 5 -29 15 -27 35 1 3 -10 5 -23 3 -14 -1 -25 1 -25 6 0 4 -14 10
-30 13 -40 8 -53 12 -65 18 -29 15 -141 -13 -129 -32 3 -5 0 -18 -6 -29 -8
-14 -8 -20 0 -20 6 0 8 -5 5 -11 -4 -6 1 -17 11 -24 11 -8 14 -15 7 -15 -8 0
-9 -9 -3 -32 10 -38 22 -97 23 -115 0 -7 7 -13 16 -13 14 0 14 -2 1 -10 -9 -6
-10 -10 -3 -10 6 0 15 5 19 11 5 8 10 6 16 -5 5 -9 6 -21 3 -26 -4 -6 1 -7 11
-3 13 5 16 3 11 -10 -3 -9 -3 -17 2 -17 12 0 8 -43 -4 -52 -6 -5 -4 -8 5 -8
11 0 15 -11 15 -37 -1 -42 14 -75 29 -66 5 4 7 -1 3 -10 -4 -11 -1 -17 9 -17
8 0 13 -4 9 -9 -3 -5 0 -15 7 -23 13 -14 20 -33 21 -55 0 -7 3 -13 6 -13 3 0
7 -17 9 -37 1 -20 8 -41 15 -45 6 -4 8 -8 3 -8 -5 0 -2 -8 5 -17 12 -14 12
-16 -1 -9 -8 4 -6 0 4 -8 15 -12 16 -16 5 -16 -12 0 -12 -2 0 -9 7 -5 11 -13
7 -19 -3 -6 -1 -14 5 -18 8 -5 9 -3 4 6 -5 8 -4 11 3 7 5 -4 8 -15 5 -26 -2
-10 3 -25 11 -34 10 -10 12 -18 6 -22 -6 -4 -7 -11 -4 -17 11 -18 11 -72 1
-85 -6 -9 -6 -13 2 -13 7 0 8 -8 1 -25 -5 -13 -6 -26 -2 -29 7 -4 7 -69 1 -92
-2 -5 2 -18 8 -29 6 -11 13 -29 14 -40 6 -29 31 -55 54 -55 16 0 17 -2 5 -10
-13 -8 -12 -10 3 -10 10 0 16 -3 14 -7 -4 -9 40 -53 46 -46 3 2 4 -4 4 -14 -1
-11 4 -17 13 -15 8 2 12 0 8 -4 -8 -8 22 -64 34 -64 4 0 8 -6 8 -13 0 -8 11
-20 25 -27 13 -7 22 -16 20 -21 -3 -4 5 -5 17 -2 19 4 20 3 8 -6 -13 -9 -13
-11 1 -11 8 0 25 -9 36 -19 12 -11 24 -17 27 -14 3 4 6 1 6 -5 0 -7 7 -12 16
-12 8 0 12 -4 9 -10 -6 -9 -2 -12 28 -14 6 -1 20 -8 30 -17 10 -10 28 -15 40
-12 18 4 19 3 7 -6 -12 -9 -10 -11 10 -10 14 0 37 -2 52 -5 52 -12 88 -13 88
-4 0 5 5 6 11 2 13 -8 131 -10 145 -2 5 3 17 4 27 3 9 -2 15 1 11 6 -3 5 5 9
16 9 12 0 36 10 53 22 26 19 30 19 24 4 -4 -10 -3 -15 3 -11 6 3 10 13 10 22
0 10 6 13 16 9 10 -4 13 -2 8 6 -5 8 -2 9 10 5 9 -4 15 -3 12 2 -3 5 1 14 9
21 13 10 15 10 12 -1 -2 -8 -2 -11 0 -6 3 4 9 4 15 1 6 -4 5 3 -1 15 -7 12 -8
21 -4 20 19 -3 43 2 41 9 -5 17 15 51 33 57 10 4 17 11 14 16 -6 8 9 13 29 10
5 -1 3 6 -5 15 -12 16 -12 17 3 12 9 -4 23 1 34 13 9 10 12 19 6 19 -6 0 -12
-6 -15 -12 -2 -7 -7 -10 -11 -7 -9 9 23 41 34 34 5 -3 7 4 5 16 -3 16 0 19 12
15 14 -6 14 -4 2 11 -12 15 -12 16 4 10 9 -3 17 -2 17 3 0 6 -6 10 -12 10 -10
0 -9 3 1 9 8 5 10 14 5 22 -6 10 -3 10 11 -1 10 -8 16 -9 11 -3 -4 7 -2 21 3
32 8 14 8 21 -2 24 -6 3 -1 6 13 7 14 1 20 4 13 6 -6 3 -9 16 -7 30 3 19 1 24
-8 18 -10 -6 -9 -3 1 9 16 20 25 23 15 5 -4 -7 -3 -9 1 -5 14 12 15 38 2 31
-8 -5 -7 -2 1 7 6 7 12 17 12 22 0 4 -6 5 -12 1 -10 -6 -10 -5 -1 7 11 13 15
60 12 141 0 10 -5 17 -11 15 -5 -1 -14 8 -19 21 -5 13 -5 22 1 22 6 0 10 5 10
11 0 6 -6 9 -14 6 -9 -4 -12 2 -10 19 1 13 -2 24 -7 24 -5 0 -9 7 -9 15 0 8 6
15 13 15 7 0 8 3 2 8 -16 12 -35 50 -35 72 0 11 -4 20 -8 20 -4 0 -9 12 -10
27 -1 15 -7 30 -14 34 -7 4 -4 9 8 12 18 4 18 5 0 6 -14 1 -17 7 -14 26 3 13
2 22 -3 20 -4 -3 -10 -1 -13 4 -4 5 -2 12 4 16 6 4 5 13 -3 26 -10 16 -9 21 3
29 13 9 13 10 0 10 -12 0 -13 2 -1 9 11 7 11 9 0 13 -12 4 -12 7 0 21 7 10 10
17 6 17 -4 0 -2 7 5 15 11 13 10 14 -2 10 -11 -5 -14 5 -14 44 1 27 -3 49 -9
48 -9 -2 -11 4 -14 39 0 8 -6 12 -11 9 -6 -4 -10 -3 -9 2 4 22 -2 43 -17 57
-8 9 -13 16 -10 16 4 0 -5 23 -19 50 -14 28 -23 56 -19 62 4 7 3 8 -4 4 -10
-6 -14 3 -12 29 1 3 -8 17 -20 32 -11 14 -20 33 -20 42 0 9 -7 26 -15 37 -8
12 -11 24 -8 28 3 3 1 6 -5 6 -7 0 -12 7 -12 16 0 9 -9 28 -19 43 -10 14 -21
35 -23 46 -1 11 -6 22 -10 25 -4 3 -8 22 -10 43 -1 20 -5 37 -9 37 -4 0 -9 9
-12 20 -3 11 -12 20 -21 20 -9 0 -16 7 -16 15 0 8 -4 15 -10 15 -5 0 -10 7
-10 16 0 8 -4 12 -10 9 -5 -3 -10 -1 -10 5 0 6 -4 8 -10 5 -5 -3 -10 1 -10 10
0 8 -6 18 -14 21 -8 3 -12 12 -9 20 3 7 -2 17 -11 20 -9 3 -16 12 -16 18 0 7
-11 25 -24 42 -14 16 -25 32 -26 36 0 4 -10 18 -23 31 -12 13 -41 45 -64 72
-24 26 -43 45 -43 42 0 -3 -11 4 -25 17 -13 12 -42 31 -65 41 -22 10 -40 24
-40 32 0 7 -6 12 -12 11 -7 -2 -12 2 -11 8 1 7 -6 10 -18 7 -13 -4 -19 -1 -17
8 2 8 -3 13 -9 11 -7 -1 -13 2 -13 8 0 5 -4 10 -10 10 -20 0 -100 65 -96 77 3
7 2 12 -2 12 -20 -3 -32 2 -27 11 4 6 3 10 -2 9 -23 -4 -35 2 -29 16 3 10 -3
17 -20 21 -17 4 -23 11 -20 21 5 11 1 13 -15 8 -14 -5 -19 -3 -15 3 3 6 2 13
-4 17 -6 4 -8 11 -4 16 3 5 2 9 -3 8 -24 -4 -35 2 -29 18 4 10 4 14 0 10 -4
-4 -19 3 -33 15 l-26 23 20 -25 c10 -14 -14 9 -54 50 -40 41 -77 74 -82 73 -8
-3 -13 11 -10 30 1 7 -15 11 -31 8 -5 0 -8 6 -8 15 0 8 -4 12 -10 9 -5 -3 -10
1 -10 10 0 9 -4 13 -10 10 -5 -3 -10 1 -10 10 0 9 -4 13 -10 10 -5 -3 -10 1
-10 9 0 9 -4 16 -9 16 -5 0 -11 9 -14 20 -3 11 -12 20 -21 20 -9 0 -16 7 -16
16 0 8 -4 12 -10 9 -5 -3 -10 1 -10 10 0 9 -4 14 -8 11 -5 -3 -15 4 -22 15 -8
10 -20 19 -27 19 -12 0 -17 13 -14 32 0 4 -7 4 -16 1 -13 -5 -15 -2 -10 11 5
14 3 17 -8 12 -9 -3 -15 0 -15 9 0 8 -4 15 -10 15 -5 0 -10 7 -10 15 0 9 -6
12 -17 8 -11 -4 -14 -3 -9 5 4 7 2 12 -4 12 -6 0 -8 5 -4 12 4 7 3 8 -5 4 -6
-4 -14 0 -17 8 -3 9 -10 14 -14 11 -4 -3 -7 3 -6 13 1 11 -6 17 -20 16 -16 0
-20 4 -16 14 3 10 1 13 -6 8 -7 -4 -15 6 -21 26 -5 18 -10 27 -10 21 -1 -7 -5
-13 -10 -13 -6 0 -8 9 -6 20 2 11 0 18 -6 15 -5 -4 -9 1 -9 9 0 9 -5 16 -11
16 -5 0 -7 6 -3 13 5 7 1 7 -12 -3 -10 -8 -16 -11 -12 -6 4 4 -6 20 -21 35
-15 15 -25 33 -23 40 3 9 0 11 -7 6 -8 -4 -14 1 -18 14 -3 12 -12 21 -20 21
-9 0 -13 6 -10 14 4 10 1 13 -9 9 -8 -3 -14 -2 -13 3 4 18 -13 64 -22 58 -5
-3 -6 -10 -3 -16 4 -6 3 -8 -3 -5 -10 7 -11 42 0 53 9 9 -16 44 -33 45 -10 0
-8 3 5 9 11 5 14 9 8 9 -7 1 -13 10 -13 22 0 11 -4 17 -10 14 -5 -3 -10 3 -10
15 0 13 4 19 12 14 7 -4 8 -3 4 5 -4 6 -12 8 -18 5 -8 -5 -9 -1 -5 10 4 10 -1
24 -13 36 -11 11 -20 16 -20 10 0 -5 -7 -7 -15 -4 -8 4 -15 2 -15 -4 0 -5 -7
-13 -16 -16 -15 -6 -15 -4 -3 11 13 16 12 17 -3 5 -9 -8 -23 -10 -30 -6 -7 4
-4 -2 6 -14 11 -12 16 -22 11 -22 -4 0 -18 12 -32 28 -14 15 -21 20 -17 10 7
-20 -6 -24 -22 -8 -7 7 -11 6 -11 -4 0 -8 4 -13 8 -10 4 2 10 0 13 -5 4 -5 -2
-8 -11 -6 -10 1 -24 -3 -32 -9 -12 -9 -12 -8 -3 11 15 28 15 40 0 25 -7 -7
-17 -12 -22 -12 -6 0 -4 5 4 10 11 7 11 10 2 10 -7 0 -10 5 -7 10 3 6 -1 10
-10 10 -9 0 -13 -4 -10 -10 9 -14 -8 -13 -23 2 -7 7 -12 8 -12 2 0 -6 -7 -11
-15 -11 -8 0 -12 3 -10 7 7 11 -31 41 -40 33 -4 -5 -5 -3 -2 3 4 7 0 17 -8 24
-9 8 -15 8 -15 2 0 -7 -10 -8 -30 -2 -17 5 -28 5 -25 0z"/>
<path d="M7487 4742 c6 -14 4 -15 -9 -5 -8 7 -18 10 -21 6 -4 -3 -18 -7 -32
-7 -13 -1 -32 -11 -41 -21 -8 -11 -13 -15 -10 -8 4 6 1 15 -5 19 -8 4 -9 3 -5
-4 8 -14 -20 -12 -43 2 -10 6 -12 5 -7 -2 4 -7 1 -12 -8 -12 -8 0 -22 -3 -32
-7 -13 -5 -15 -3 -9 8 7 12 6 12 -7 1 -19 -15 -58 -24 -58 -14 0 4 -9 8 -19 8
-11 0 -18 -3 -15 -7 2 -4 -5 -9 -16 -12 -11 -3 -18 -1 -14 4 3 5 -2 9 -10 9
-9 0 -16 -6 -16 -12 0 -9 -4 -8 -10 2 -8 12 -10 12 -10 -5 -1 -18 -2 -18 -10
-3 -6 9 -18 15 -28 13 -9 -2 -21 -4 -25 -4 -5 -1 -5 -6 -1 -13 4 -7 3 -8 -4
-4 -6 4 -8 14 -5 24 5 13 3 14 -6 6 -8 -7 -25 -9 -46 -4 -19 4 -37 5 -40 1 -6
-6 -10 -7 -36 -10 -5 0 -7 -5 -4 -11 3 -5 1 -10 -4 -10 -6 0 -11 6 -11 13 0 9
-2 9 -9 -1 -4 -8 -11 -13 -15 -13 -21 3 -27 -1 -23 -14 4 -8 2 -17 -4 -20 -5
-4 -9 -3 -8 2 5 27 -2 33 -21 23 -11 -6 -24 -8 -29 -6 -5 3 -12 -2 -15 -11 -6
-14 -9 -15 -16 -3 -6 10 -12 11 -22 2 -8 -6 -34 -14 -58 -18 -25 -4 -51 -12
-59 -18 -10 -7 -13 -8 -8 0 3 6 0 11 -8 11 -8 0 -11 -5 -8 -10 4 -6 -6 -8 -26
-4 -22 5 -30 3 -25 -4 4 -8 -1 -9 -16 -4 -14 4 -20 3 -17 -2 4 -6 -4 -8 -20
-5 -17 3 -30 -1 -38 -12 -12 -15 -13 -15 -19 0 -5 12 -10 13 -19 6 -7 -6 -24
-13 -37 -15 -14 -3 -38 -10 -53 -16 -15 -6 -31 -10 -35 -10 -25 4 -42 -3 -43
-18 0 -11 -3 -13 -6 -5 -2 6 -10 9 -16 5 -7 -4 -23 -8 -37 -10 -14 -1 -34 -5
-45 -7 -11 -2 -23 -5 -27 -5 -7 -1 -5 -22 4 -37 4 -6 1 -11 -7 -11 -7 0 -12 8
-10 17 2 9 -1 23 -6 31 -7 11 -9 11 -9 1 0 -9 -7 -11 -21 -7 -16 6 -20 4 -13
-6 6 -11 5 -12 -7 -2 -16 13 -47 12 -57 -3 -9 -12 -32 -16 -32 -5 0 5 -11 4
-24 -2 -13 -7 -23 -14 -20 -18 2 -3 -8 -5 -21 -3 -14 1 -25 -1 -25 -6 0 -4 -9
-10 -20 -13 -13 -3 -18 -1 -13 6 4 7 -1 6 -10 -2 -9 -7 -17 -10 -17 -6 0 4 -7
1 -17 -6 -9 -8 -23 -14 -32 -14 -9 0 -23 -5 -31 -10 -16 -10 -21 -12 -46 -14
-8 0 -12 -5 -9 -11 3 -6 1 -10 -4 -10 -6 0 -11 6 -11 13 0 8 -4 7 -10 -3 -9
-13 -10 -13 -10 0 0 13 -1 13 -10 0 -5 -8 -10 -11 -10 -6 0 6 -7 1 -16 -10 -8
-10 -12 -12 -8 -4 6 11 2 11 -12 -2 -15 -13 -23 -15 -32 -6 -9 9 -13 7 -17 -5
-4 -9 -13 -13 -22 -10 -9 4 -14 2 -10 -3 5 -9 -10 -13 -65 -15 -15 -1 -25 -5
-22 -10 3 -5 0 -9 -5 -9 -6 0 -11 5 -11 11 0 5 -5 7 -10 4 -6 -4 -7 -12 -3
-18 4 -8 1 -7 -9 1 -10 8 -18 9 -22 3 -4 -6 -13 -8 -22 -4 -9 3 -14 0 -12 -8
2 -9 -6 -14 -24 -13 -22 0 -25 -3 -16 -13 8 -11 7 -12 -6 -7 -11 4 -16 1 -17
-12 0 -12 -3 -14 -6 -6 -4 10 -10 10 -29 -3 -13 -8 -24 -13 -24 -9 0 4 -7 1
-15 -6 -8 -7 -15 -9 -15 -6 0 4 -7 0 -16 -9 -9 -9 -22 -14 -30 -11 -7 3 -14 1
-16 -5 -2 -5 -14 -11 -27 -14 -14 -2 -28 -10 -31 -16 -4 -6 -10 -10 -14 -10
-19 3 -27 0 -22 -8 4 -5 -4 -7 -16 -4 -19 4 -20 3 -8 -6 15 -10 -2 -15 -47
-14 -7 1 -11 -3 -8 -7 3 -4 -7 -16 -21 -25 -18 -11 -24 -12 -18 -4 6 11 5 12
-8 2 -8 -7 -19 -9 -23 -5 -5 4 -5 2 -2 -4 4 -7 -5 -14 -24 -18 -20 -4 -28 -10
-23 -17 4 -8 3 -9 -5 -5 -6 4 -19 2 -28 -6 -10 -8 -14 -8 -10 -1 4 6 -13 1
-38 -13 -26 -13 -53 -24 -61 -24 -7 0 -14 -4 -14 -10 0 -5 -9 -10 -20 -10 -11
0 -20 -5 -20 -11 0 -5 -4 -8 -9 -5 -13 9 -61 -17 -62 -34 0 -11 -2 -12 -6 -2
-4 10 -10 9 -26 -5 -14 -12 -18 -13 -12 -3 8 13 6 13 -8 1 -9 -7 -15 -17 -12
-21 3 -5 -4 -6 -15 -3 -11 3 -20 1 -20 -5 0 -6 -9 -8 -20 -5 -11 3 -20 1 -20
-5 0 -6 -8 -8 -19 -5 -10 3 -22 0 -25 -5 -4 -7 -17 -7 -36 -2 -18 5 -32 5 -36
-1 -3 -5 -10 -7 -15 -4 -5 4 -15 3 -21 -2 -7 -4 -17 -8 -23 -9 -28 -5 -41 -10
-53 -22 -8 -7 -19 -9 -25 -5 -6 4 -8 1 -5 -9 7 -16 -25 -19 -39 -3 -5 4 -3 5
4 1 6 -3 14 -3 17 2 2 4 -6 8 -19 8 -13 0 -21 -4 -19 -8 3 -4 -2 -8 -12 -8 -9
0 -23 -8 -31 -17 -9 -12 -12 -13 -8 -3 4 8 -5 3 -18 -12 -14 -15 -28 -24 -31
-21 -3 4 -6 -1 -6 -11 0 -9 -4 -14 -10 -11 -5 3 -10 1 -10 -5 0 -6 -4 -8 -10
-5 -5 3 -10 1 -10 -4 0 -6 -7 -11 -15 -11 -8 0 -15 -4 -15 -10 0 -5 -4 -10 -9
-10 -6 0 -22 -11 -37 -25 -14 -13 -30 -22 -35 -19 -5 3 -9 0 -9 -5 0 -6 -7
-11 -16 -11 -9 0 -37 -10 -63 -23 -48 -25 -54 -27 -72 -27 -5 0 -7 -4 -4 -10
3 -6 -1 -7 -9 -4 -9 3 -16 1 -16 -6 0 -6 -4 -9 -9 -6 -5 4 -12 0 -14 -6 -4
-10 -6 -9 -6 1 -1 9 -9 6 -24 -10 -13 -13 -29 -25 -36 -27 -8 -2 -21 -11 -30
-20 -9 -10 -12 -12 -7 -5 11 17 1 17 -16 1 -24 -23 -83 -64 -100 -71 -10 -3
-18 -11 -18 -17 0 -5 -5 -10 -11 -10 -15 0 -39 -26 -32 -34 6 -6 -12 -10 -30
-7 -5 1 -6 -3 -2 -9 4 -6 -7 -25 -24 -42 -17 -18 -31 -35 -31 -40 0 -4 -5 -8
-11 -8 -7 0 -20 -10 -30 -22 -11 -11 -19 -17 -19 -13 0 4 -9 -2 -20 -15 -11
-13 -20 -20 -20 -17 0 7 -27 -13 -56 -41 -8 -7 -19 -10 -25 -6 -8 4 -9 3 -5
-4 3 -6 -3 -16 -16 -23 -28 -15 -33 -19 -90 -70 -27 -23 -48 -39 -48 -35 0 4
-6 1 -14 -6 -8 -7 -13 -14 -11 -16 4 -4 -47 -53 -92 -89 -20 -16 -31 -33 -28
-41 4 -12 3 -13 -9 -2 -13 10 -20 7 -39 -14 -13 -14 -27 -23 -30 -19 -4 3 -7
1 -7 -5 0 -7 -3 -11 -7 -11 -20 3 -26 -2 -13 -11 11 -7 6 -8 -17 -5 -19 2 -33
-1 -33 -7 0 -5 -7 -8 -15 -5 -8 4 -17 2 -21 -4 -3 -6 -12 -8 -20 -5 -8 3 -14
-1 -14 -9 0 -8 -3 -14 -8 -12 -4 1 -21 -11 -37 -27 -17 -16 -21 -23 -11 -15
13 9 17 10 12 2 -11 -19 -51 -39 -41 -21 3 7 1 6 -7 -3 -7 -9 -19 -14 -27 -11
-9 3 -11 0 -6 -8 5 -8 4 -11 -3 -7 -12 8 -44 -2 -38 -12 3 -4 -7 -8 -21 -9
-14 -1 -31 -9 -38 -19 -7 -9 -17 -13 -23 -9 -6 3 -13 2 -16 -3 -5 -8 -34 -8
-91 1 -11 2 -25 9 -31 17 -6 8 -16 11 -22 7 -5 -3 -12 0 -15 6 -3 10 -10 10
-28 -1 -22 -13 -23 -13 -10 2 11 14 11 18 -3 23 -9 3 -13 11 -9 17 3 6 1 7 -6
3 -6 -4 -14 0 -17 9 -5 12 -9 13 -20 4 -11 -9 -14 -8 -14 1 0 9 -4 9 -17 -1
-12 -11 -17 -11 -20 -2 -4 10 -8 9 -19 -2 -15 -14 -44 -10 -44 6 0 5 -4 9 -10
9 -5 0 -7 -8 -3 -17 4 -12 -1 -9 -15 7 -12 14 -21 21 -22 17 0 -13 -30 20 -30
33 0 6 -11 23 -25 38 -14 15 -25 23 -25 18 0 -4 -12 -1 -26 9 -15 9 -23 12
-20 6 4 -6 3 -11 -2 -11 -5 0 -12 10 -15 21 -4 15 -11 20 -22 15 -11 -4 -14
-2 -9 6 5 8 2 9 -10 5 -10 -4 -15 -3 -11 3 4 6 14 9 23 8 10 -2 16 3 14 10 -1
8 2 11 8 7 5 -3 10 2 10 12 0 14 2 15 9 4 7 -11 10 -9 16 8 3 11 11 21 16 21
5 0 9 7 9 16 0 9 -5 13 -12 9 -7 -4 -2 3 11 14 13 12 20 21 17 21 -4 0 -1 6 6
14 7 8 18 11 23 8 6 -3 4 2 -4 11 -12 16 -12 17 5 11 10 -3 6 3 -11 14 -19 12
-34 16 -42 10 -7 -5 -13 -4 -15 3 -3 8 -9 7 -20 -4 -14 -14 -17 -14 -22 -2 -3
8 -10 15 -17 15 -6 0 -9 -6 -6 -13 3 -8 -1 -14 -8 -14 -7 0 -11 7 -8 14 3 8
-4 23 -16 34 -11 11 -21 25 -21 32 0 8 -4 7 -11 -3 -9 -12 -10 -11 -6 7 3 13
1 26 -4 29 -5 3 -7 9 -4 14 3 5 0 12 -6 16 -7 4 -9 3 -5 -4 3 -6 1 -14 -5 -18
-8 -4 -9 -3 -5 4 4 7 1 12 -6 12 -9 0 -9 3 -2 8 16 11 24 41 13 47 -5 4 -7 10
-4 14 2 5 -13 17 -34 27 -22 10 -38 21 -36 24 2 3 -6 7 -17 7 -19 2 -72 33
-129 78 -14 11 -36 26 -47 34 -12 8 -19 18 -16 23 3 4 0 8 -6 8 -6 0 -20 9
-32 20 -12 11 -28 20 -35 20 -8 0 -11 5 -8 10 3 6 -2 10 -13 10 -10 0 -27 9
-37 20 -10 11 -23 20 -28 20 -5 0 -23 13 -38 30 -16 16 -29 24 -30 17 0 -6 -5
-2 -11 11 -7 14 -20 22 -37 22 -20 0 -23 2 -11 10 15 10 3 15 -22 11 -5 0 -8
6 -8 14 0 9 -6 12 -16 8 -10 -4 -17 2 -21 17 -4 16 -8 18 -14 8 -7 -10 -9 -10
-9 0 0 6 -9 12 -20 12 -11 0 -20 4 -20 10 0 5 -7 6 -17 3 -12 -5 -14 -3 -8 7
5 9 4 11 -4 6 -6 -4 -17 -3 -24 2 -11 9 -61 20 -127 28 -32 4 -81 13 -97 19
-7 2 -13 0 -13 -5 0 -5 -8 -6 -17 -3 -45 17 -109 -3 -148 -48 -11 -12 -14 -19
-6 -14 8 5 7 -3 -5 -20 -20 -30 -25 -63 -12 -71 4 -3 5 -10 2 -16 -4 -6 -3 -9
2 -6 8 5 35 -15 31 -24 -1 -2 4 3 10 11 7 8 13 11 14 5 0 -5 2 -24 3 -41 1
-18 5 -36 9 -39 4 -4 2 -13 -4 -21 -6 -7 -8 -13 -3 -13 5 0 10 -15 11 -33 3
-33 5 -43 18 -90 6 -22 10 -26 17 -15 7 9 9 8 5 -7 -2 -11 1 -26 7 -32 25 -27
36 -43 36 -53 0 -5 5 -10 10 -10 6 0 10 -7 10 -15 0 -8 8 -15 18 -15 14 0 15
-2 2 -10 -12 -8 -12 -10 5 -10 17 0 17 -2 5 -10 -12 -8 -12 -10 -1 -10 9 0 10
-4 4 -12 -11 -15 -11 -28 1 -47 5 -8 4 -17 -5 -23 -11 -8 -10 -9 4 -4 12 4 17
0 17 -15 0 -11 4 -17 10 -14 6 3 7 -1 4 -9 -3 -9 -1 -16 4 -16 11 0 28 -38 24
-52 -1 -5 3 -8 9 -8 6 0 8 -7 5 -16 -3 -8 -2 -13 2 -11 4 3 13 -1 20 -9 7 -8
9 -14 5 -14 -4 0 -1 -6 8 -13 9 -7 19 -22 23 -35 4 -12 14 -22 22 -22 9 0 12
-5 8 -12 -5 -7 -2 -9 9 -5 11 4 14 2 10 -9 -3 -9 1 -14 13 -14 16 0 17 -2 4
-10 -12 -8 -11 -10 8 -10 13 0 22 -6 22 -16 0 -8 5 -12 10 -9 6 3 10 1 10 -4
0 -6 7 -11 15 -11 13 0 19 -12 16 -32 0 -4 6 -5 14 -2 11 4 15 -1 15 -16 0
-17 4 -21 17 -16 10 4 14 4 11 0 -4 -3 0 -13 8 -21 8 -8 11 -19 8 -25 -4 -6
-3 -8 3 -5 5 3 15 -3 23 -13 8 -10 18 -16 24 -13 5 4 7 -1 3 -12 -4 -9 -2 -24
4 -31 6 -8 9 -25 7 -39 -3 -14 -1 -22 5 -18 5 3 6 -4 2 -18 -4 -13 -4 -21 -1
-18 10 9 87 -70 80 -82 -3 -5 2 -12 10 -15 9 -3 13 -10 10 -15 -3 -5 2 -9 12
-9 13 0 14 -3 4 -15 -10 -12 -10 -15 0 -15 7 0 10 -7 6 -16 -3 -8 -2 -12 3 -9
5 3 12 1 16 -5 4 -6 12 -7 18 -4 9 5 9 4 0 -6 -15 -16 5 -40 26 -32 9 3 12 1
7 -6 -4 -7 -2 -12 4 -12 6 0 8 -5 4 -13 -5 -7 0 -6 11 3 10 8 16 10 12 3 -4
-6 -1 -15 7 -20 8 -4 16 -12 18 -18 2 -5 6 -9 10 -8 5 2 8 -3 8 -11 0 -8 7
-17 16 -20 9 -4 13 -2 8 5 -4 8 0 7 15 0 11 -7 21 -14 21 -17 0 -3 -5 -2 -12
2 -7 4 -8 3 -4 -4 4 -6 13 -9 21 -6 7 3 26 -3 41 -12 15 -10 36 -20 46 -21 11
-2 26 -10 34 -18 20 -19 25 -19 17 1 -5 14 -3 14 16 3 11 -8 21 -18 21 -24 0
-5 5 -3 10 5 8 12 10 12 10 1 0 -10 3 -11 14 -2 11 9 16 9 22 0 5 -8 3 -10 -7
-4 -8 5 -7 0 3 -11 14 -16 28 -20 63 -18 26 1 43 -2 40 -7 -4 -5 -1 -9 4 -9 6
0 11 5 11 11 0 6 9 1 20 -12 l21 -24 -16 35 -17 35 25 -29 c16 -19 28 -26 37
-21 9 5 11 4 6 -3 -4 -7 -2 -12 4 -12 6 0 8 -5 4 -12 -4 -7 -3 -8 4 -4 6 4 9
14 5 24 -3 11 1 9 11 -6 10 -12 22 -20 27 -17 5 4 17 2 26 -4 13 -7 23 -5 38
7 19 16 19 16 6 0 -7 -10 -12 -18 -10 -19 56 -11 64 -14 71 -24 5 -6 8 -4 8 4
0 11 5 9 21 -5 13 -12 19 -14 17 -5 -2 7 3 16 11 19 9 3 11 0 6 -8 -6 -10 -4
-12 8 -7 10 4 17 2 17 -5 0 -6 6 -5 17 3 9 8 14 9 10 3 -4 -7 2 -14 14 -17 30
-8 49 2 42 21 -4 14 -3 15 5 2 7 -8 7 -19 2 -25 -15 -18 32 -16 55 3 11 9 14
10 8 2 -18 -19 -16 -35 1 -21 11 9 16 9 22 0 5 -8 3 -9 -6 -4 -8 5 -11 4 -7
-1 3 -6 31 -9 61 -7 47 2 56 0 56 -15 0 -10 3 -13 8 -7 10 14 32 17 32 4 0 -7
10 -9 26 -5 19 5 24 4 18 -6 -6 -10 -4 -10 9 1 10 8 27 11 43 7 14 -4 23 -3
20 2 -3 5 6 8 20 6 17 -1 24 2 21 10 -9 22 30 39 42 18 10 -16 10 -16 11 0 0
9 5 20 12 24 7 5 8 3 3 -7 -7 -12 -6 -12 7 -1 13 10 22 11 37 2 12 -6 21 -8
21 -6 0 3 -12 12 -27 20 l-28 15 33 -6 c20 -3 32 -1 32 5 0 6 9 9 20 7 11 -2
18 0 15 6 -4 5 3 9 14 9 10 0 22 6 24 13 4 9 6 9 6 -1 1 -14 36 14 36 29 0 4
4 11 9 16 5 4 6 3 2 -4 -4 -7 1 -11 13 -10 12 1 17 6 13 16 -4 10 -1 12 7 7
15 -9 53 27 43 40 -4 5 2 2 13 -6 11 -8 17 -11 13 -6 -13 16 24 46 41 33 12
-10 14 -9 9 10 -5 20 -3 21 20 12 23 -9 24 -8 11 8 -12 15 -12 16 5 10 13 -5
17 -3 13 7 -6 16 19 30 35 19 7 -3 8 -1 4 5 -4 7 -1 12 8 12 10 0 13 6 9 17
-4 11 -3 14 5 9 7 -4 12 -2 12 4 0 6 5 8 12 4 7 -5 9 -2 5 9 -4 12 -2 14 10
10 12 -5 14 -3 8 7 -6 10 -4 12 9 7 10 -4 15 -3 11 3 -3 6 11 26 32 47 21 20
30 30 20 23 -9 -7 -20 -11 -22 -8 -3 2 13 15 35 27 22 12 38 27 35 32 -3 5 2
6 11 2 14 -5 16 -2 12 15 -5 16 -2 20 13 17 11 -2 17 0 14 5 -3 5 -1 11 5 15
6 4 8 10 5 14 -2 5 5 17 18 27 l22 19 -20 -25 -20 -25 23 19 c12 11 22 25 22
33 0 7 5 13 11 13 6 0 8 7 5 17 -4 10 -4 14 0 10 4 -4 18 5 31 19 12 14 27 23
32 20 5 -3 14 1 21 9 7 8 9 15 5 15 -3 0 7 13 23 30 17 17 36 30 42 30 6 0 9
4 6 8 -3 5 4 14 14 22 10 8 16 18 13 24 -4 5 1 7 10 3 10 -4 16 -2 14 6 -1 7
3 11 10 10 8 -2 10 4 6 14 -5 12 -3 14 8 8 11 -7 11 -5 -1 10 -14 17 -13 17
10 10 14 -4 22 -4 18 0 -4 4 5 18 19 31 16 14 22 28 17 36 -6 11 -5 11 8 0 14
-11 17 -10 23 8 5 17 9 19 21 9 13 -10 13 -8 4 16 -9 25 -9 26 5 15 12 -10 15
-10 15 0 0 10 3 10 14 1 12 -10 13 -8 9 10 -4 14 -2 20 4 16 6 -4 13 0 17 8 3
8 13 15 21 15 10 0 13 5 9 12 -5 7 0 9 14 6 15 -4 19 -2 15 8 -3 9 6 18 26 25
17 6 31 15 31 21 0 5 4 7 9 3 5 -3 16 1 24 9 8 8 17 12 21 9 3 -4 6 -2 6 4 0
6 11 9 25 8 14 -2 23 1 19 6 -5 9 9 13 35 9 8 -1 11 4 9 12 -4 10 5 13 34 11
33 -1 38 2 34 15 -5 14 -4 14 8 -1 12 -16 14 -16 20 -1 5 14 9 14 23 3 14 -12
16 -12 9 0 -7 10 -3 12 13 6 14 -4 21 -2 21 6 0 7 7 5 16 -7 8 -10 13 -14 10
-8 -3 7 1 15 10 18 24 9 31 7 14 -4 -10 -7 -11 -10 -2 -10 7 0 15 7 18 15 8
21 25 19 18 -2 -4 -12 -1 -11 8 3 7 12 21 20 30 19 9 -2 19 4 22 12 4 10 10
12 19 6 13 -10 24 -10 49 1 10 5 16 12 13 16 -3 5 5 6 17 2 16 -4 19 -2 13 9
-7 12 -6 12 7 1 14 -11 18 -10 30 6 7 11 24 18 39 18 21 -1 25 2 21 19 -5 19
-5 19 12 3 20 -21 34 -24 17 -5 -8 10 -7 14 4 14 8 0 15 -7 15 -16 0 -14 2
-14 10 -1 8 12 10 12 11 -5 l0 -20 9 20 c5 11 9 15 9 9 1 -6 8 -11 16 -11 8 0
12 4 9 8 -2 4 0 10 6 14 5 3 10 1 10 -4 0 -6 5 -11 11 -11 5 0 7 5 4 10 -3 6
0 10 8 10 8 0 22 10 33 21 19 22 19 22 -3 10 -19 -10 -22 -9 -17 4 4 8 1 15
-5 15 -6 0 -11 5 -11 11 0 5 5 7 11 3 7 -4 20 4 31 17 11 13 17 19 14 12 -4
-6 -2 -15 4 -18 6 -4 9 -1 8 6 -2 7 2 13 7 14 30 1 42 45 13 45 -5 0 -6 -4 -3
-10 3 -5 1 -11 -4 -11 -6 -1 -17 -2 -23 -3 -7 -1 -20 3 -28 8 -13 10 -13 9 0
-8 14 -18 13 -19 -2 -13 -21 7 -23 -3 -5 -23 10 -12 9 -12 -4 -2 -9 6 -20 8
-24 4 -5 -4 -4 0 0 8 5 9 0 8 -14 -4 -17 -16 -20 -16 -16 -4 4 9 1 19 -6 24
-7 4 -10 3 -5 -4 3 -6 3 -13 -2 -16 -5 -3 -9 0 -9 7 0 7 -2 19 -4 27 -2 8 2
14 9 12 6 -1 11 1 11 5 -3 19 2 33 12 33 5 0 8 -4 5 -8 -3 -5 1 -9 8 -9 8 0
12 6 9 12 -2 7 3 15 12 19 9 3 13 2 10 -4 -3 -5 1 -7 9 -4 9 3 14 11 13 17 -1
6 8 16 21 22 12 5 20 16 17 23 -3 7 0 10 5 7 14 -9 72 24 64 37 -4 7 -3 8 5 4
6 -4 8 -13 4 -19 -5 -8 -2 -8 9 0 8 7 19 9 23 5 5 -4 4 -1 0 7 -6 11 -4 13 9
8 13 -5 19 -1 23 13 3 11 9 17 14 14 5 -3 9 -1 9 5 0 6 11 13 25 17 14 3 25
11 25 17 0 6 3 7 6 4 4 -4 2 -12 -4 -20 -8 -10 -7 -13 7 -13 12 0 17 5 13 15
-3 8 -1 12 5 8 6 -4 13 0 17 8 3 8 12 15 20 15 7 0 16 7 20 15 3 8 9 15 13 14
25 -4 43 2 37 13 -5 8 -2 9 9 5 9 -3 23 1 32 9 11 12 15 12 15 2 0 -7 6 -4 12
7 16 29 16 29 33 15 13 -11 14 -10 9 4 -3 9 -1 16 6 16 6 0 8 5 5 10 -9 14 9
12 24 -2 10 -11 11 -10 6 4 -5 11 1 20 17 28 22 11 22 10 4 -4 -11 -9 -16 -16
-10 -16 14 1 44 26 38 32 -2 3 2 8 11 12 11 4 14 2 10 -7 -4 -6 1 -3 9 7 9 11
16 16 16 10 0 -5 4 -3 8 3 4 7 18 14 30 16 12 2 29 12 38 23 8 10 13 12 9 4
-5 -12 -4 -12 7 1 7 9 19 14 27 11 9 -3 11 0 6 8 -5 8 -3 11 6 8 8 -3 20 2 27
11 11 13 12 13 7 1 -5 -12 -4 -12 7 1 7 9 18 14 25 12 6 -2 14 6 18 18 4 12
10 18 14 12 8 -11 27 -11 38 1 4 5 3 7 -3 3 -6 -3 -11 0 -11 8 0 11 5 12 20 3
15 -8 18 -7 12 3 -6 9 -3 10 9 6 13 -5 17 -3 13 6 -3 8 1 14 9 14 7 0 11 -5 8
-11 -3 -6 3 -1 14 12 14 15 22 18 25 10 3 -7 6 -3 6 10 1 13 5 20 11 17 5 -3
20 0 32 7 13 7 28 11 33 9 6 -1 7 1 3 4 -4 4 1 15 10 24 10 9 13 12 6 8 -7 -5
-15 -2 -20 5 -4 7 -3 10 1 5 5 -4 17 1 28 10 11 10 17 13 14 6 -4 -6 -3 -14 3
-18 5 -3 10 2 10 12 0 10 4 14 8 8 4 -5 17 -11 30 -11 16 -1 20 2 12 11 -7 8
-5 12 5 12 8 0 15 -5 15 -11 0 -8 3 -8 8 0 11 18 89 54 97 46 5 -4 4 -1 0 7
-6 10 -4 13 7 9 8 -4 21 2 29 13 13 19 35 28 24 10 -3 -5 0 -13 6 -17 8 -4 9
-3 5 4 -4 7 -2 13 3 13 6 1 16 2 22 3 7 0 15 10 20 21 4 11 8 14 8 7 1 -7 6
-10 11 -7 6 4 8 11 5 16 -3 5 2 6 11 2 11 -4 15 -3 10 5 -3 6 -2 14 4 17 6 4
9 1 8 -6 -2 -6 6 -12 18 -14 14 -1 21 4 20 14 -1 10 7 16 21 15 12 0 20 3 17
8 -5 8 11 12 30 9 5 -1 6 6 2 15 -5 14 -4 15 8 5 10 -8 16 -9 21 -1 3 5 13 10
21 10 9 0 12 -5 8 -12 -4 -7 -3 -8 5 -4 6 4 9 11 6 16 -3 4 2 13 10 20 13 11
15 10 9 -6 -5 -18 -5 -18 6 -1 6 9 8 23 5 30 -4 6 0 4 8 -5 16 -20 32 -25 21
-7 -5 8 1 10 19 7 19 -4 24 -1 19 10 -3 10 -1 13 6 8 8 -4 12 0 12 11 0 12 3
14 8 6 9 -15 44 -11 50 6 3 8 9 6 18 -6 11 -14 13 -15 8 -2 -3 11 1 16 13 16
54 0 57 2 32 21 -17 15 -19 21 -9 27 9 5 11 4 6 -4 -11 -17 22 -25 42 -10 15
13 16 12 4 -3 -11 -13 -11 -18 0 -24 7 -4 10 -4 6 1 -7 8 2 19 37 45 20 15 20
14 1 -8 -16 -18 -17 -22 -4 -22 9 0 18 7 22 15 3 8 12 12 21 9 8 -4 22 0 31 7
17 14 47 22 40 10 -3 -4 4 -7 15 -7 10 0 19 6 19 14 0 7 -4 11 -9 7 -5 -3 -12
-1 -15 4 -4 5 2 8 11 6 10 -1 25 3 33 9 13 10 13 9 1 -7 -12 -16 -11 -17 10
-13 13 3 30 5 37 5 6 1 12 6 12 12 0 5 -4 8 -9 5 -4 -3 -16 1 -26 8 -14 10
-15 15 -5 21 9 5 11 4 6 -3 -7 -11 5 -16 31 -13 6 1 14 -6 16 -16 4 -16 5 -16
6 1 1 20 1 20 17 0 8 -10 13 -13 9 -6 -3 6 1 20 11 29 16 16 16 16 10 -3 -4
-14 -2 -21 8 -21 9 0 13 4 10 9 -3 4 2 8 11 8 10 0 13 5 9 12 -4 7 -3 8 4 4 7
-4 12 -1 12 6 0 8 3 9 8 3 12 -17 71 -14 65 2 -4 9 -8 11 -12 4 -4 -6 -12 -2
-19 9 -7 12 -8 20 -2 20 5 0 10 -5 10 -11 0 -18 30 11 31 30 0 11 2 12 6 3 3
-7 0 -18 -5 -25 -7 -8 -5 -16 5 -26 12 -11 14 -11 12 0 -4 21 11 59 23 59 6 0
6 -6 -2 -15 -7 -9 -10 -18 -8 -21 3 -3 15 6 25 20 13 17 23 22 30 15 7 -7 15
-2 26 14 15 24 13 37 -5 37 -5 0 -6 -4 -3 -10 4 -6 -1 -7 -11 -3 -14 5 -15 7
-1 15 9 5 14 16 11 26 -3 9 1 6 9 -7 12 -20 15 -21 20 -7 4 10 3 15 -2 11 -11
-6 -8 22 4 32 4 4 5 2 1 -4 -4 -7 -2 -13 3 -13 6 0 11 6 11 13 0 8 4 7 10 -3
8 -13 14 -8 12 11 -2 14 29 4 45 -14 17 -19 17 -20 1 -14 -10 3 -20 2 -22 -2
-9 -15 6 -21 26 -10 19 10 19 11 2 30 -9 10 -14 22 -11 26 4 4 14 -2 23 -13 8
-10 13 -14 10 -7 -4 6 -1 15 5 19 8 4 9 3 5 -4 -4 -7 -2 -12 5 -12 7 0 -4 -16
-25 -35 -31 -28 -42 -33 -57 -24 -11 5 -17 14 -14 19 3 5 0 12 -6 16 -9 5 -10
0 -7 -14 4 -12 2 -20 -2 -17 -11 7 -7 -15 8 -40 11 -19 17 -10 13 18 -1 10 7
9 30 -3 18 -10 18 -13 4 -40 -9 -17 -19 -30 -23 -30 -10 0 -34 16 -31 21 6 10
-14 49 -22 43 -6 -3 -5 -12 3 -21 15 -19 19 -43 7 -43 -5 0 -9 5 -9 11 0 8 -4
8 -12 2 -15 -11 -28 -11 -44 0 -7 4 -17 0 -24 -8 -7 -8 -16 -12 -21 -9 -5 3
-6 -2 -3 -10 5 -14 8 -14 21 -1 15 15 38 21 30 8 -3 -5 15 -6 40 -4 27 2 43
-1 40 -6 -3 -5 0 -10 8 -10 8 0 12 4 9 9 -3 4 5 8 18 8 18 0 20 -2 8 -10 -8
-5 -10 -10 -4 -10 5 0 15 5 22 12 16 16 16 -4 0 -21 -7 -8 0 -6 15 4 27 17 27
18 10 38 -10 11 -13 18 -7 14 6 -3 10 4 10 18 0 20 -2 22 -15 12 -14 -11 -14
-10 -1 7 12 16 12 18 1 11 -10 -6 -12 -4 -6 5 6 9 4 11 -6 6 -8 -4 -3 2 11 13
28 23 46 26 55 11 4 -6 11 -7 17 -4 7 4 5 10 -6 16 -9 5 -16 14 -16 21 0 7 4
6 10 -3 5 -8 10 -11 10 -6 0 4 9 -2 21 -15 16 -18 19 -20 15 -6 -3 10 -2 15 3
12 18 -10 7 -47 -21 -70 -15 -13 -24 -25 -20 -28 4 -2 2 -3 -4 -1 -16 4 -33
-16 -28 -31 3 -7 1 -16 -5 -20 -6 -3 -11 -14 -10 -23 0 -12 3 -10 10 6 9 23
36 26 32 4 -1 -5 5 -13 14 -16 14 -6 14 -4 -1 19 -9 14 -13 25 -8 25 13 0 43
-40 37 -50 -6 -9 14 -8 31 3 7 4 18 -1 25 -11 13 -16 13 -16 -6 -2 -18 14 -19
14 -7 -2 8 -9 19 -15 27 -12 7 3 16 -3 20 -15 4 -12 12 -18 20 -14 8 3 17 -2
21 -10 3 -8 13 -13 24 -10 10 3 21 0 24 -6 5 -7 16 -5 34 7 20 13 24 14 17 2
-8 -13 -7 -13 8 -1 11 9 17 10 17 2 0 -6 5 -11 11 -11 5 0 8 4 5 8 -2 4 7 7
22 6 14 0 28 -6 30 -13 3 -8 9 -6 19 6 8 10 12 13 9 7 -3 -6 1 -11 8 -11 8 0
12 7 9 15 -5 12 -2 12 15 3 15 -8 23 -8 28 1 4 6 3 8 -4 4 -6 -3 -13 -2 -16 2
-11 19 34 6 49 -13 16 -20 16 -20 6 0 -8 17 -6 21 10 22 10 1 19 -2 19 -7 0
-4 7 -11 16 -14 13 -5 14 -3 6 6 -8 10 -4 13 15 15 20 1 23 -1 12 -9 -10 -7
-8 -9 9 -5 12 3 20 1 17 -3 -3 -5 -1 -11 5 -15 5 -3 10 -1 10 5 0 7 7 5 16 -4
20 -20 30 -21 14 -1 -11 13 -8 13 19 4 17 -6 28 -15 25 -20 -3 -5 7 -4 21 1
33 12 35 12 35 -1 0 -5 -5 -7 -12 -3 -7 4 -8 3 -4 -4 4 -6 13 -9 21 -5 9 3 15
-1 15 -8 0 -11 3 -11 10 1 6 10 10 11 10 3 0 -7 9 -13 20 -13 11 0 20 5 20 11
0 5 -4 8 -9 4 -5 -3 -12 -1 -15 3 -3 5 5 8 17 8 27 -3 59 22 50 38 -4 7 -2 7
8 -1 9 -7 20 -9 29 -3 9 6 20 4 29 -3 12 -9 13 -9 7 1 -4 7 -2 12 4 12 6 0 9
4 6 9 -4 5 0 12 6 14 10 4 10 6 1 6 -7 1 -13 6 -13 12 0 5 4 7 10 4 5 -3 7 0
4 9 -7 19 -54 50 -54 36 0 -7 -7 -4 -16 4 -8 9 -24 16 -35 16 -10 0 -19 5 -19
11 0 5 -5 7 -10 4 -6 -4 -18 -1 -27 7 -14 11 -16 11 -8 -2 6 -11 3 -10 -11 2
-11 10 -29 19 -40 21 -10 2 -32 10 -49 16 -16 7 -34 14 -40 15 -11 3 -56 21
-97 39 -16 7 -28 15 -28 19 0 4 -9 5 -19 3 -11 -2 -22 3 -25 11 -3 9 -10 12
-16 9 -5 -3 -10 -1 -10 5 0 6 -5 8 -11 4 -6 -3 -14 -3 -18 2 -13 19 -54 49
-46 34 8 -13 6 -13 -8 -2 -9 8 -20 11 -26 8 -5 -3 -11 1 -15 9 -3 8 -12 12
-21 9 -9 -4 -15 -1 -15 7 0 11 -2 11 -10 -1 -8 -12 -10 -12 -16 3 -3 9 -10 15
-14 12 -5 -3 -11 -1 -15 4 -4 7 -15 7 -31 1 -18 -7 -23 -7 -18 2 5 8 -2 9 -26
5 -19 -4 -38 -2 -46 4 -17 14 -18 -2 -1 -21 8 -10 5 -9 -8 1 -33 26 -55 31
-48 11z m117 -154 c18 -12 31 -9 18 4 -7 7 -12 16 -12 22 0 5 7 1 16 -10 15
-19 16 -19 10 1 -6 19 -5 19 7 3 8 -10 18 -14 23 -10 4 4 2 -2 -6 -12 -14 -18
-13 -19 5 -12 11 5 26 9 33 9 7 0 11 7 7 16 -4 13 -2 13 8 -1 8 -10 17 -16 21
-13 3 3 2 -1 -4 -7 -5 -7 -10 -17 -10 -22 0 -6 5 -4 11 4 8 12 12 12 16 2 4
-10 8 -10 21 0 12 10 16 10 19 1 4 -10 7 -10 18 0 7 7 10 16 7 21 -3 5 0 6 7
2 9 -6 9 -11 0 -22 -13 -16 14 -16 40 0 11 7 12 6 5 -5 -5 -8 -9 -20 -9 -28 0
-17 -25 -28 -25 -11 0 6 5 8 10 5 6 -3 10 -2 10 3 0 16 -13 22 -27 11 -9 -9
-13 -8 -13 0 0 13 -22 10 -32 -4 -5 -6 -8 -6 -8 1 0 16 -39 12 -51 -6 -9 -13
-10 -13 -8 0 3 28 -1 41 -11 35 -5 -3 -7 -13 -4 -23 5 -14 4 -15 -5 -2 -10 13
-12 13 -20 0 -8 -12 -12 -10 -19 9 -7 21 -10 22 -15 7 -4 -10 -11 -15 -16 -12
-5 3 -11 -1 -15 -9 -3 -9 -12 -12 -23 -8 -16 6 -16 5 -4 -10 7 -9 12 -17 10
-18 -21 -4 -47 -4 -45 0 2 3 -2 11 -9 18 -10 9 -17 6 -34 -13 -11 -13 -18 -24
-15 -24 3 0 2 -5 -1 -11 -5 -7 -13 -5 -25 6 -10 9 -24 14 -29 10 -6 -3 -11 0
-11 8 0 8 8 14 18 13 9 0 16 4 15 11 -2 6 10 22 26 35 15 13 27 31 26 39 -2 9
4 16 11 16 17 0 19 -17 2 -17 -7 0 -5 -5 5 -11 9 -5 17 -15 17 -21 0 -6 -7 -5
-17 3 -11 9 -10 3 6 -18 12 -18 27 -33 33 -33 6 0 5 6 -3 16 -18 21 -19 54 -2
54 8 0 11 5 7 12 -4 7 -3 8 4 4 7 -4 12 0 13 11 0 14 2 15 6 3 3 -8 11 -18 17
-22z"/>
</g>
</svg>
