<?xml version="1.0" standalone="no"?>
<!DOCTYPE svg PUBLIC "-//W3C//DTD SVG 20010904//EN"
 "http://www.w3.org/TR/2001/REC-SVG-20010904/DTD/svg10.dtd">
<svg version="1.0" xmlns="http://www.w3.org/2000/svg"
 width="1024.000000pt" height="1024.000000pt" viewBox="0 0 1024.000000 1024.000000"
 preserveAspectRatio="xMidYMid meet">
<metadata>
Created by potrace 1.16, written by Peter Selinger 2001-2019
</metadata>
<g transform="translate(0.000000,1024.000000) scale(0.100000,-0.100000)"
fill="#000000" stroke="none">
<path d="M5780 9209 c0 -5 -4 -7 -10 -4 -6 4 -7 -1 -3 -11 5 -14 3 -15 -14 -6
-11 6 -23 8 -27 4 -4 -3 -11 0 -16 8 -8 12 -10 12 -10 1 0 -8 -7 -11 -19 -8
-12 3 -18 0 -15 -7 2 -6 -5 -12 -16 -13 -13 -1 -18 2 -13 10 4 7 0 6 -10 -2
-9 -7 -17 -9 -17 -4 0 12 -46 11 -57 -1 -5 -5 -2 -6 6 -1 10 6 12 4 7 -4 -6
-9 -13 -8 -29 6 l-21 18 18 -30 19 -30 -21 19 c-13 11 -30 16 -42 13 -16 -4
-20 -2 -16 9 3 9 1 12 -4 9 -6 -3 -10 -13 -10 -22 0 -11 -5 -9 -20 8 -12 15
-18 17 -14 7 6 -18 -25 -21 -38 -3 -5 6 -8 6 -8 -2 0 -7 -9 -10 -22 -7 -44 11
-73 10 -80 0 -5 -7 -8 -3 -8 9 0 16 -2 17 -9 5 -6 -8 -7 -18 -4 -24 3 -5 1 -6
-6 -2 -6 4 -9 11 -6 16 3 4 -2 11 -11 14 -8 3 -12 2 -9 -4 6 -9 -30 -15 -64
-11 -7 2 -11 -2 -7 -7 3 -5 -1 -9 -9 -9 -8 0 -12 4 -9 9 3 4 -2 8 -11 8 -10 0
-13 -5 -9 -12 4 -7 -2 -5 -13 5 -16 14 -23 15 -29 6 -5 -8 -3 -10 6 -4 9 6 11
4 6 -4 -6 -9 -13 -8 -29 6 -11 10 -17 13 -14 7 4 -7 0 -15 -9 -18 -9 -3 -12
-2 -8 5 4 6 -1 9 -12 8 -11 -2 -25 1 -33 5 -11 7 -13 5 -7 -9 7 -18 6 -18 -13
-1 -12 11 -21 13 -25 7 -5 -7 -15 -7 -33 0 -19 7 -28 6 -33 -2 -6 -8 -9 -8
-15 0 -5 9 -11 9 -22 -1 -17 -14 -57 -22 -49 -10 3 5 -1 9 -9 9 -8 0 -12 -4
-9 -9 8 -12 -10 -10 -23 3 -8 8 -13 8 -18 0 -4 -8 -11 -6 -22 5 -13 12 -17 13
-24 2 -7 -10 -9 -10 -9 2 -1 12 -3 11 -11 -2 -5 -10 -14 -18 -19 -18 -5 0 -11
8 -13 18 -4 16 -5 16 -6 0 -1 -13 -10 -18 -30 -18 -17 0 -33 -4 -36 -10 -3 -5
-12 -10 -18 -10 -9 0 -8 3 1 8 8 5 -1 8 -22 8 -25 -1 -32 -4 -24 -13 7 -9 3
-11 -17 -7 -20 3 -25 1 -19 -8 6 -10 3 -9 -9 1 -14 11 -18 11 -23 -3 -5 -12
-10 -13 -26 -5 -16 9 -19 8 -13 -2 6 -9 3 -10 -10 -5 -15 5 -16 4 -6 -8 11
-13 8 -14 -19 -6 -25 7 -30 7 -21 -4 8 -9 7 -13 -4 -13 -8 0 -15 3 -15 7 0 4
-7 7 -15 7 -8 0 -11 -5 -8 -10 4 -6 -3 -8 -15 -5 -12 4 -20 3 -18 -1 2 -3 -3
-15 -11 -26 -15 -19 -15 -19 -8 5 7 22 6 23 -9 11 -9 -7 -16 -10 -16 -5 0 5
-5 1 -11 -9 -6 -9 -14 -15 -19 -12 -4 3 -31 -7 -60 -21 -28 -14 -58 -23 -67
-20 -13 5 -13 4 -4 -7 9 -12 7 -14 -11 -13 -25 2 -51 -12 -44 -23 3 -4 -3 -8
-12 -9 -9 -1 -26 -3 -37 -4 -11 -2 -26 -10 -33 -18 -12 -13 -13 -13 -6 0 7 13
5 13 -9 1 -9 -7 -17 -10 -17 -5 0 5 -5 1 -11 -8 -6 -11 -16 -15 -26 -11 -11 4
-14 3 -9 -5 5 -8 2 -10 -8 -6 -9 3 -14 9 -11 13 2 4 -3 8 -11 8 -8 0 -13 -6
-10 -13 3 -9 -3 -11 -20 -8 -19 3 -24 1 -18 -8 6 -10 3 -9 -9 1 -11 8 -17 9
-17 3 0 -7 -7 -9 -17 -5 -11 4 -14 3 -9 -5 4 -7 2 -12 -3 -12 -6 0 -11 6 -11
13 0 6 -9 -1 -20 -18 -11 -16 -20 -25 -20 -20 0 6 6 17 13 25 10 12 9 12 -4 2
-9 -6 -20 -8 -24 -4 -5 4 -5 2 -2 -4 4 -7 -1 -18 -10 -25 -14 -12 -16 -12 -8
0 6 11 4 13 -9 8 -10 -4 -20 -7 -22 -7 -3 0 -2 -5 2 -11 4 -7 -2 -7 -17 1 -13
7 -21 9 -17 6 12 -14 -24 -46 -39 -34 -9 7 -13 7 -13 -1 0 -7 -4 -9 -10 -6 -5
3 -10 1 -10 -5 0 -6 -4 -9 -9 -5 -6 3 -14 -3 -20 -12 -8 -15 -13 -16 -30 -6
-17 10 -19 10 -15 -1 4 -12 -11 -20 -56 -31 -16 -3 -57 -31 -72 -47 -9 -11
-22 -17 -27 -13 -6 3 -11 2 -11 -4 0 -5 -13 -9 -30 -9 -16 1 -28 4 -25 8 2 3
-6 12 -18 20 -21 12 -21 12 -7 -6 14 -19 14 -19 -7 0 -12 10 -29 16 -38 12 -9
-3 -13 -2 -10 3 3 5 -4 12 -15 16 -11 4 -17 11 -14 17 4 6 2 8 -4 4 -6 -3 -13
-2 -17 4 -3 5 -19 8 -35 6 -17 -2 -30 0 -30 3 0 11 -44 8 -52 -3 -5 -7 -8 -5
-8 5 0 9 -6 16 -12 17 -17 1 -49 9 -70 17 -13 5 -18 2 -18 -10 0 -9 -5 -13
-10 -10 -6 4 -8 10 -5 15 3 5 1 11 -4 14 -5 4 -13 1 -17 -5 -5 -8 -3 -9 6 -4
9 5 11 4 6 -4 -6 -9 -11 -9 -21 -1 -8 7 -24 9 -36 5 -14 -5 -19 -4 -15 4 5 7
-4 11 -26 12 -57 2 -63 4 -60 17 1 6 -2 12 -8 12 -5 0 -10 -5 -10 -12 0 -6 -7
-3 -16 8 -8 10 -13 13 -9 7 3 -7 1 -13 -4 -13 -6 0 -11 5 -11 10 0 6 -5 9 -12
8 -7 -2 -12 2 -13 9 0 6 -4 15 -8 20 -5 4 -8 3 -7 -2 5 -25 -1 -33 -23 -28
-18 4 -19 3 -7 -7 13 -10 13 -11 0 -7 -8 2 -15 9 -15 15 0 22 -16 25 -37 6
-18 -15 -20 -16 -9 -1 17 21 -6 25 -28 5 -11 -10 -13 -10 -7 0 9 14 -20 17
-29 2 -9 -15 -27 -12 -20 3 4 6 -3 1 -15 -13 -12 -14 -19 -20 -16 -14 3 7 -1
15 -10 18 -12 4 -15 2 -11 -9 4 -8 1 -17 -5 -21 -6 -4 -8 -3 -4 4 9 15 -12 26
-28 13 -7 -6 -16 -8 -19 -4 -4 3 -7 0 -7 -8 0 -9 -3 -10 -8 -3 -5 8 -14 9 -32
1 -23 -9 -47 -15 -77 -19 -7 -1 -15 -8 -17 -15 -5 -11 -10 -11 -27 -2 -12 6
-19 7 -15 1 6 -10 -21 -27 -37 -24 -4 1 -7 -3 -7 -8 0 -6 -11 -8 -25 -6 -14 3
-25 1 -25 -4 0 -4 -8 -7 -17 -6 -10 2 -21 -2 -25 -8 -5 -8 -8 -7 -8 2 0 8 -5
10 -12 5 -7 -4 -21 -9 -31 -10 -10 -2 -30 -9 -45 -16 -15 -7 -34 -13 -42 -12
-8 0 -18 -3 -21 -7 -10 -15 -84 -14 -75 1 9 15 -24 22 -46 10 -13 -7 -18 -7
-14 -1 3 6 2 13 -4 17 -5 3 -10 0 -10 -7 0 -9 -3 -9 -10 2 -9 14 -11 13 -14
-9 0 -5 -5 -13 -10 -18 -5 -5 -6 -3 -2 5 4 6 2 12 -4 12 -6 0 -8 5 -4 12 5 7
3 8 -5 4 -7 -5 -10 -15 -7 -25 5 -14 4 -14 -6 -1 -17 20 -68 21 -68 0 0 -12
-2 -12 -9 -2 -11 18 -20 17 -38 -5 -8 -10 -12 -12 -8 -5 3 6 1 12 -4 12 -6 0
-11 -4 -11 -9 0 -5 -12 -8 -26 -5 -14 3 -23 1 -20 -4 6 -11 -25 -9 -43 3 -10
5 -12 4 -7 -3 6 -11 -28 -18 -58 -13 -4 1 -15 -6 -22 -16 -13 -17 -14 -17 -7
1 6 19 5 19 -16 4 -13 -9 -30 -14 -37 -11 -13 5 -19 -8 -15 -31 1 -5 -5 -4
-13 3 -12 10 -19 10 -37 -3 -17 -11 -26 -13 -36 -4 -11 9 -12 7 -7 -7 5 -13 4
-16 -4 -11 -8 5 -10 1 -5 -11 6 -15 4 -16 -9 -6 -19 16 -32 5 -16 -14 8 -10 8
-12 -3 -8 -8 3 -23 -2 -34 -11 -11 -8 -15 -13 -9 -10 6 3 11 -1 11 -9 0 -10
-5 -11 -19 -4 -10 5 -18 6 -17 2 4 -16 -13 -43 -27 -43 -16 0 -54 -35 -54 -51
0 -5 -5 -7 -10 -4 -6 3 -10 -1 -10 -9 0 -9 -5 -16 -11 -16 -5 0 -8 -4 -5 -9 3
-5 -1 -14 -10 -21 -8 -7 -13 -19 -10 -26 3 -9 0 -11 -11 -7 -11 4 -14 2 -9 -5
4 -7 3 -12 -2 -12 -14 0 -46 -52 -44 -73 0 -11 -4 -17 -11 -14 -7 3 -12 -5
-12 -18 0 -15 5 -21 14 -17 10 4 12 1 5 -9 -12 -20 -14 -40 -3 -33 5 3 9 -1 9
-8 0 -9 3 -9 10 2 7 11 10 11 10 2 0 -8 5 -10 13 -6 9 6 9 4 0 -7 -17 -17 -17
-37 -1 -21 13 13 29 16 27 5 -4 -26 1 -38 11 -23 5 8 10 10 10 4 0 -7 7 -15
16 -18 10 -4 13 -2 8 7 -6 9 -5 9 8 0 8 -7 18 -10 21 -6 4 3 7 -2 7 -13 0 -16
2 -17 10 -4 5 8 10 10 10 4 0 -7 9 -14 21 -17 13 -4 18 -10 13 -18 -4 -7 -3
-10 4 -6 12 8 44 -2 38 -12 -3 -4 4 -8 15 -9 43 -4 49 -6 49 -16 0 -6 5 -4 10
4 8 13 10 12 10 -4 0 -13 5 -16 17 -12 10 4 14 4 10 0 -12 -12 26 -34 40 -22
9 7 13 7 13 -2 0 -7 8 -10 20 -7 11 3 23 0 27 -5 4 -7 1 -8 -7 -3 -9 5 -11 4
-6 -4 6 -9 11 -9 24 1 12 10 14 10 8 1 -9 -16 -1 -16 26 -2 13 7 18 7 14 1 -3
-6 -2 -13 4 -17 5 -3 10 -1 10 6 0 10 3 10 11 2 6 -6 17 -9 24 -6 7 2 28 -3
45 -12 18 -9 29 -12 26 -6 -4 6 -3 11 3 11 5 0 12 -6 14 -12 4 -10 6 -10 6 -1
1 7 8 10 16 7 8 -4 22 -1 30 6 12 10 13 8 10 -12 -4 -19 -2 -21 8 -8 15 19 57
14 74 -8 10 -15 11 -14 7 8 -2 14 -2 19 2 12 3 -6 10 -10 14 -7 5 3 12 0 16
-6 5 -8 3 -9 -7 -4 -8 5 -11 4 -6 0 9 -10 57 -13 51 -3 -2 3 0 9 6 13 5 3 10
-3 10 -13 0 -11 7 -23 16 -26 8 -3 12 -2 9 4 -8 13 5 13 25 0 11 -7 17 -5 22
8 6 16 7 15 7 -1 1 -14 6 -17 21 -12 11 3 20 2 20 -3 0 -5 7 -9 15 -9 8 0 12
4 9 9 -3 4 -1 8 5 8 5 0 11 -5 13 -12 2 -6 14 -12 26 -13 11 -1 19 2 16 7 -6
10 26 -1 45 -16 12 -9 13 -7 8 7 -5 13 -2 17 11 15 9 -2 16 2 15 9 -1 6 4 17
13 23 12 10 14 10 11 -1 -2 -8 1 -4 7 9 5 12 16 22 24 22 7 0 10 4 7 10 -4 6
1 7 11 3 13 -5 15 -3 9 8 -5 8 2 5 15 -6 13 -11 20 -15 17 -9 -6 11 54 31 77
25 5 -1 6 5 2 14 -3 9 -2 13 4 10 6 -3 13 1 16 9 3 9 13 16 22 16 8 0 12 3 9
7 -4 3 3 18 15 32 l23 26 -24 -20 -24 -20 17 33 c9 17 19 32 22 32 3 0 3 -4 0
-9 -4 -5 13 -9 36 -8 25 2 43 7 43 14 0 6 4 15 9 20 5 4 7 3 3 -2 -3 -6 -2
-17 4 -25 7 -12 9 -11 9 5 1 20 1 20 15 1 8 -10 12 -23 9 -28 -3 -5 0 -7 8 -6
7 2 12 -3 11 -9 -2 -7 1 -13 5 -13 14 0 53 46 45 53 -3 4 0 7 7 7 7 0 11 3 7
6 -3 4 0 13 8 20 16 16 29 19 20 4 -4 -7 2 -9 19 -4 18 4 26 2 26 -7 0 -11 2
-11 8 -2 9 14 52 13 52 -2 0 -5 5 -3 10 5 8 12 10 12 11 -5 l0 -20 9 20 c7 17
9 17 9 3 1 -19 21 -26 21 -7 0 5 4 8 9 4 6 -3 8 3 6 14 -2 13 5 28 21 40 13
10 24 24 24 30 0 6 5 11 11 11 5 0 7 5 4 10 -3 6 1 13 11 17 10 4 20 0 26 -12
8 -13 12 -14 18 -5 4 7 7 -7 6 -31 -1 -28 -6 -43 -14 -42 -6 2 -9 -3 -6 -10 2
-7 -3 -21 -12 -32 -8 -11 -12 -14 -8 -6 4 9 3 12 -4 8 -5 -4 -8 -16 -5 -27 3
-11 1 -20 -4 -20 -13 0 -11 -43 2 -52 6 -5 6 -8 -1 -8 -7 0 -11 -17 -9 -45 1
-25 -1 -45 -5 -45 -3 0 -6 -10 -7 -22 -2 -56 -7 -84 -17 -97 -9 -12 -7 -13 8
-8 14 6 16 4 9 -5 -5 -7 -9 -20 -8 -28 0 -8 -4 -18 -10 -22 -6 -5 -5 -8 4 -8
11 0 11 -3 0 -17 -12 -15 -12 -16 1 -8 13 8 13 7 1 -8 -7 -9 -10 -17 -5 -17 5
0 9 -13 9 -30 1 -16 -4 -30 -10 -30 -5 0 -4 -4 3 -9 17 -11 17 -21 0 -32 -10
-7 -10 -9 0 -9 6 0 12 -7 12 -16 0 -9 -5 -13 -12 -9 -7 4 -6 0 4 -7 11 -10 13
-19 7 -31 -8 -14 -6 -15 8 -10 16 6 16 5 4 -10 -10 -13 -10 -17 -1 -17 9 0 9
-4 -1 -17 -10 -11 -10 -14 -1 -9 6 4 12 4 13 -1 0 -4 3 -17 5 -28 3 -11 6 -26
6 -32 1 -7 6 -13 12 -13 6 0 4 -5 -4 -10 -12 -8 -12 -10 5 -10 17 0 17 -2 5
-10 -12 -8 -12 -10 -1 -10 8 0 11 -3 8 -7 -4 -3 1 -15 10 -25 12 -13 14 -21 6
-26 -12 -8 1 -52 15 -52 4 0 8 -17 8 -37 0 -29 4 -38 17 -37 13 1 14 -2 7 -16
-7 -14 -6 -23 6 -35 9 -8 13 -22 10 -30 -3 -9 0 -12 10 -8 9 3 14 -2 14 -17 0
-13 -4 -19 -12 -14 -7 4 -8 3 -4 -5 4 -6 11 -9 16 -6 5 3 11 1 15 -5 3 -5 0
-10 -7 -10 -7 -1 -2 -7 12 -15 15 -9 19 -14 10 -15 -13 0 -13 -1 0 -10 9 -6
17 -5 22 3 4 7 8 8 8 2 0 -6 -5 -16 -12 -23 -9 -9 -8 -12 6 -12 9 0 14 -4 11
-10 -3 -5 0 -10 7 -10 10 0 10 -2 1 -8 -8 -5 -2 -12 18 -21 17 -7 28 -16 25
-19 -3 -2 -14 1 -23 9 -17 13 -17 13 -3 -6 8 -11 16 -22 17 -24 1 -2 10 2 19
10 16 13 16 12 5 -10 -8 -15 -9 -21 -2 -17 6 4 11 0 11 -8 0 -9 3 -16 8 -16 4
-1 21 -12 37 -26 17 -15 23 -23 15 -18 -8 4 -5 -4 8 -18 12 -13 20 -27 17 -30
-3 -3 5 -4 18 -3 20 2 24 -1 20 -16 -3 -11 0 -19 6 -19 7 0 10 -4 7 -9 -3 -4
3 -16 14 -26 11 -10 17 -22 13 -28 -4 -6 -1 -7 7 -2 10 6 12 4 6 -10 -5 -15
-4 -16 8 -6 11 9 14 9 13 -1 -1 -40 5 -57 23 -63 11 -3 20 -11 20 -16 0 -6 -4
-7 -10 -4 -5 3 -10 1 -10 -4 0 -6 9 -11 21 -11 11 0 17 -4 14 -10 -3 -5 -1
-10 5 -10 6 0 8 -4 5 -10 -3 -5 -1 -10 5 -10 6 0 8 -4 5 -10 -3 -5 2 -10 12
-10 15 0 16 -2 3 -10 -13 -8 -12 -10 3 -10 10 0 15 -4 12 -10 -3 -5 -1 -10 6
-10 8 0 7 -5 -2 -17 -8 -9 -9 -14 -4 -11 6 3 16 0 23 -8 7 -8 8 -14 2 -14 -15
0 -12 -19 5 -36 16 -16 9 -48 -9 -37 -6 4 -4 -2 4 -12 9 -11 10 -16 3 -11 -19
11 -15 -5 5 -20 16 -13 16 -14 -2 -7 -15 5 -18 3 -13 -10 3 -9 3 -17 -2 -17
-12 0 -9 -33 4 -42 7 -5 6 -8 -1 -8 -6 0 -9 -15 -8 -35 2 -23 -1 -33 -7 -29
-7 4 -6 -2 1 -16 8 -15 8 -20 1 -16 -6 4 -11 2 -11 -3 0 -6 5 -11 10 -11 6 0
10 -5 10 -11 0 -5 -5 -7 -11 -3 -8 4 -8 0 0 -15 10 -18 9 -20 -6 -14 -16 6
-16 5 -4 -10 7 -9 18 -14 24 -10 6 3 7 1 3 -5 -4 -6 -13 -9 -21 -5 -11 4 -13
1 -9 -11 3 -9 9 -14 13 -11 4 2 8 -2 8 -9 0 -8 -7 -12 -15 -8 -11 4 -13 1 -7
-8 6 -10 4 -12 -11 -7 -18 7 -18 6 -2 -7 19 -14 25 -32 8 -21 -5 3 -10 2 -10
-4 0 -5 -11 -8 -23 -7 -14 2 -24 -2 -24 -10 0 -9 5 -10 18 -3 14 7 17 6 13 -5
-7 -17 -32 -15 -45 5 -5 8 -9 10 -9 4 0 -5 -7 1 -16 13 -9 13 -22 21 -30 18
-7 -3 -16 0 -20 6 -5 7 -2 8 6 3 9 -5 11 -4 6 3 -4 7 -14 12 -22 12 -8 0 -13
-4 -10 -9 4 -5 -2 -8 -11 -7 -11 2 -18 12 -19 25 -2 29 -5 31 -48 35 -25 3
-34 0 -29 -8 3 -6 3 -8 -2 -4 -4 4 -14 0 -22 -10 -13 -15 -13 -15 -4 5 6 12
11 24 11 27 0 13 -45 5 -64 -11 -15 -13 -14 -10 3 10 14 15 19 27 12 27 -7 0
-9 5 -5 12 4 7 3 8 -5 4 -6 -4 -9 -11 -6 -16 3 -4 -1 -10 -8 -13 -10 -4 -13 2
-9 19 3 19 1 23 -11 18 -9 -3 -22 -2 -29 2 -7 5 -22 8 -34 9 -11 0 -29 7 -39
15 -10 8 -20 14 -22 13 -1 -2 -5 -3 -8 -2 -6 1 -52 1 -66 0 -5 -1 -7 -5 -4
-11 4 -6 -1 -7 -11 -3 -11 4 -13 8 -6 11 7 2 12 8 12 13 0 6 -4 8 -9 4 -5 -3
-12 -1 -16 5 -3 5 -20 8 -36 5 -18 -3 -28 -2 -25 4 4 6 -11 8 -36 7 -24 -2
-37 -1 -30 1 6 3 9 9 6 14 -3 6 -12 5 -22 -3 -13 -11 -14 -11 -7 1 6 11 4 13
-8 8 -10 -4 -17 -1 -17 5 0 6 -3 8 -7 5 -3 -4 -11 -2 -18 3 -6 5 -26 10 -43
12 -18 1 -32 6 -32 10 0 4 -5 8 -11 8 -5 0 -8 -4 -5 -8 2 -4 -4 -8 -15 -8 -12
0 -15 4 -9 10 6 6 10 15 10 20 0 6 -5 4 -11 -4 -8 -11 -12 -12 -16 -2 -2 6 -9
10 -14 6 -5 -3 -9 1 -9 8 0 9 -3 9 -10 -2 -8 -13 -10 -13 -10 2 0 9 -5 20 -12
24 -7 4 -8 3 -4 -4 5 -8 2 -10 -8 -6 -9 3 -13 11 -9 18 4 6 -1 5 -10 -3 -12
-9 -17 -10 -17 -2 0 7 -4 10 -8 7 -4 -2 -14 -1 -22 4 -9 5 -19 5 -27 -2 -11
-8 -12 -7 -7 8 4 10 3 16 -1 11 -5 -4 -17 0 -27 10 -10 9 -18 13 -18 9 0 -3
-13 0 -30 9 -17 9 -30 12 -30 9 0 -4 -8 0 -18 9 -15 13 -21 14 -32 4 -7 -6
-10 -7 -7 -1 9 15 -36 34 -64 27 -16 -5 -20 -3 -14 6 6 10 3 11 -14 2 -16 -9
-19 -9 -15 2 3 9 -4 13 -21 13 -14 0 -25 -4 -25 -8 0 -15 -28 -8 -34 8 -4 10
-12 14 -23 10 -9 -4 -20 -1 -25 6 -6 10 -8 10 -8 -2 0 -10 -5 -8 -15 7 -15 22
-29 24 -54 9 -9 -6 -12 -5 -8 0 3 6 -3 15 -14 22 -22 14 -37 -6 -23 -30 5 -10
4 -10 -5 -2 -7 6 -13 20 -14 32 -1 16 -5 18 -18 12 -10 -6 -21 -5 -29 3 -9 8
-11 9 -6 0 7 -13 -12 -12 -34 2 -21 13 -41 15 -34 4 3 -5 10 -7 15 -4 5 4 9 1
9 -4 0 -15 -16 -14 -33 4 -8 8 -17 11 -21 8 -3 -4 -6 -1 -6 7 0 10 -3 10 -14
1 -11 -9 -16 -9 -22 0 -4 8 -3 9 4 5 7 -4 12 -2 12 3 0 6 -9 11 -20 11 -12 0
-30 9 -42 20 -17 16 -24 17 -37 7 -11 -9 -13 -9 -8 0 5 8 -1 15 -18 19 -14 3
-22 11 -18 17 4 6 0 8 -10 4 -10 -4 -17 -2 -17 5 0 7 -4 7 -14 -1 -12 -10 -13
-9 -9 7 4 15 -2 21 -24 25 -15 3 -37 7 -48 10 -11 2 -27 -1 -35 -7 -8 -6 -5 1
5 16 18 25 44 41 30 19 -3 -6 3 -15 14 -21 15 -7 22 -7 27 2 4 7 4 10 -1 6
-11 -10 -48 40 -39 54 5 8 2 9 -11 4 -16 -6 -16 -4 -4 11 12 14 12 16 0 8 -11
-6 -13 -4 -8 11 7 18 6 18 -7 1 -8 -10 -11 -28 -8 -40 3 -12 2 -20 -1 -17 -3
3 -8 18 -11 34 -6 32 -16 47 -16 24 0 -9 -7 -21 -16 -28 -8 -8 -14 -9 -12 -4
2 5 -1 9 -7 9 -5 0 -9 -2 -8 -5 1 -3 -13 -5 -30 -6 -38 -1 -83 -10 -97 -19 -6
-4 -17 -1 -25 5 -10 8 -15 9 -15 2 0 -6 -9 -9 -20 -7 -11 2 -20 0 -20 -6 0 -5
-7 -9 -15 -9 -8 0 -14 -6 -12 -12 1 -7 -3 -12 -10 -11 -7 2 -10 -3 -7 -10 2
-7 -4 -22 -15 -34 -11 -11 -18 -24 -15 -27 2 -3 1 -4 -2 -2 -3 2 -22 -2 -41
-10 -19 -9 -38 -13 -41 -10 -3 3 0 6 6 6 7 0 12 5 12 11 0 5 -5 7 -10 4 -6 -3
-10 1 -10 9 0 10 -6 13 -15 10 -8 -4 -12 -11 -8 -17 3 -6 1 -7 -6 -3 -9 6 -9
11 0 22 16 19 4 18 -15 -2 -12 -12 -16 -12 -16 -2 0 10 -3 9 -10 -2 -6 -9 -5
-17 3 -22 8 -5 6 -8 -6 -8 -10 0 -15 -5 -12 -10 4 -6 11 -8 16 -5 5 4 9 -2 9
-12 0 -14 2 -15 9 -4 6 9 11 10 15 2 4 -6 4 -11 0 -11 -4 0 5 -9 20 -21 15
-12 23 -26 19 -32 -4 -7 1 -6 10 2 16 13 17 12 7 -13 -5 -15 -6 -25 -2 -22 4
2 8 -4 8 -14 0 -12 -4 -16 -11 -10 -6 5 -11 -4 -13 -28 -1 -20 -8 -40 -15 -44
-9 -6 -9 -8 0 -8 7 0 12 -3 12 -7 -5 -29 2 -47 11 -33 8 12 10 10 10 -8 0 -26
65 -96 80 -87 6 4 10 2 10 -3 0 -5 11 -12 25 -14 14 -3 25 -2 25 2 0 5 9 6 20
3 11 -3 18 -8 16 -12 -2 -3 9 -6 24 -6 16 -1 26 3 24 7 -3 5 10 0 30 -11 31
-18 34 -18 30 -3 -5 14 -3 13 10 -2 9 -11 16 -15 16 -9 0 15 33 11 48 -7 8 -8
11 -10 8 -3 -4 6 -2 14 4 18 5 3 10 -1 10 -9 0 -19 21 -21 39 -3 10 10 11 9 6
-4 -4 -10 0 -16 10 -16 10 0 14 6 10 16 -4 10 1 8 14 -5 14 -15 29 -20 50 -18
17 2 31 -1 31 -7 0 -6 4 -8 10 -4 10 6 50 -13 62 -30 5 -6 8 -4 9 5 0 10 3 8
9 -5 7 -16 9 -17 9 -3 1 16 3 16 34 1 66 -33 67 -34 67 -21 0 10 2 10 9 0 4
-8 12 -14 17 -15 5 -1 8 -6 6 -11 -2 -5 4 -4 12 4 11 8 16 9 16 1 0 -6 8 -11
18 -11 21 -1 54 -25 45 -33 -3 -4 -1 -7 5 -7 7 0 12 5 12 11 0 5 5 7 10 4 6
-4 23 -9 37 -11 15 -3 30 -8 33 -12 3 -4 14 -9 25 -10 11 -2 22 -7 25 -10 3
-4 16 -8 30 -10 14 -1 27 -7 28 -12 2 -6 8 -8 13 -4 5 3 12 -2 15 -11 5 -12 9
-13 20 -4 10 8 14 8 14 0 0 -6 7 -11 15 -11 8 0 15 -4 15 -8 0 -4 16 -15 35
-24 19 -8 32 -12 29 -7 -3 5 2 6 11 3 9 -4 14 -12 11 -19 -3 -8 2 -11 15 -8
10 3 19 0 19 -6 0 -6 7 -11 16 -11 8 0 13 -4 10 -9 -3 -5 1 -12 10 -15 23 -9
26 -8 18 6 -4 6 14 0 40 -15 27 -15 53 -24 59 -20 5 3 7 2 4 -4 -3 -5 3 -17
14 -26 13 -12 19 -13 20 -4 0 6 4 2 10 -11 5 -13 13 -21 18 -17 6 3 14 -3 20
-12 6 -11 11 -13 11 -5 0 7 4 11 10 7 5 -3 7 -13 4 -23 -5 -13 -4 -14 4 -3 11
16 32 7 32 -15 0 -8 3 -13 8 -13 21 4 32 -2 26 -13 -5 -8 0 -7 11 2 11 9 16
10 11 3 -4 -8 -1 -13 8 -13 10 0 16 -9 17 -22 0 -13 3 -18 6 -11 3 10 7 10 18
0 7 -7 11 -16 8 -20 -3 -5 5 -7 17 -5 14 2 25 -3 27 -12 4 -13 3 -13 -7 0 -10
13 -11 13 -7 0 2 -8 10 -14 16 -12 7 1 19 -5 28 -13 8 -9 21 -14 28 -11 7 2
12 -3 11 -12 -1 -11 6 -16 17 -16 10 1 16 -1 13 -4 -13 -13 47 -62 61 -50 7 6
16 8 20 4 3 -3 1 -6 -5 -6 -6 0 -9 -7 -6 -15 6 -14 8 -13 21 2 8 10 11 12 8 5
-8 -14 28 -55 39 -45 3 4 6 -1 6 -10 0 -10 6 -14 14 -11 8 3 21 -5 30 -18 9
-13 21 -24 26 -24 6 -1 14 -2 19 -3 5 0 17 -8 25 -17 15 -14 17 -14 22 0 3 9
10 16 15 16 4 0 5 -8 2 -17 -5 -12 -2 -15 10 -10 9 3 17 2 17 -4 0 -11 24 -38
37 -42 4 -1 7 -5 6 -9 -5 -13 22 -9 36 5 11 10 13 10 7 0 -4 -7 -2 -13 4 -13
6 0 8 -6 4 -12 -5 -10 -4 -10 6 -1 10 9 18 8 38 -7 13 -11 28 -17 33 -14 5 3
9 0 9 -6 0 -6 7 -18 15 -27 10 -9 13 -24 10 -37 -4 -14 -3 -17 3 -8 7 11 10 9
15 -7 3 -12 0 -24 -5 -28 -7 -4 -8 -1 -3 8 5 8 4 11 -1 6 -10 -9 -15 -67 -5
-67 3 0 14 10 26 23 11 12 17 18 13 13 -12 -15 -9 -28 4 -20 7 4 8 3 4 -5 -4
-6 -11 -9 -16 -6 -4 3 -13 -2 -20 -10 -7 -8 -17 -12 -23 -8 -6 3 -7 1 -3 -6 4
-6 13 -8 19 -5 8 5 8 3 0 -7 -19 -19 -16 -29 10 -29 17 0 19 -2 7 -9 -8 -6
-17 -8 -20 -6 -4 2 -7 -2 -7 -10 0 -8 4 -12 8 -9 9 5 4 -64 -5 -73 -3 -4 2
-15 11 -26 13 -15 14 -18 3 -12 -8 4 -12 5 -8 0 4 -4 2 -15 -5 -23 -9 -13 -9
-14 1 -8 7 4 12 1 12 -8 0 -9 8 -16 18 -17 12 0 11 -3 -7 -10 -23 -9 -23 -10
-6 -35 9 -15 12 -23 6 -20 -6 4 -11 1 -11 -8 0 -8 5 -18 10 -21 5 -3 10 -11
10 -16 0 -6 -6 -7 -12 -3 -9 6 -9 3 0 -9 8 -9 11 -21 8 -26 -4 -5 -1 -13 5
-17 8 -5 9 -3 4 6 -5 9 -4 11 4 6 8 -6 9 -12 2 -20 -6 -7 -9 -15 -7 -17 8 -8
15 -59 7 -55 -4 3 -7 -20 -7 -50 1 -29 5 -54 10 -54 5 0 6 -3 3 -7 -4 -3 -2
-12 5 -20 9 -11 7 -12 -8 -6 -17 6 -17 5 -5 -11 8 -9 20 -15 27 -12 7 3 16 1
19 -3 3 -5 -9 -8 -25 -7 -20 1 -27 -1 -20 -8 14 -14 13 -49 -2 -40 -7 4 -8 3
-4 -4 4 -7 15 -12 24 -12 12 0 13 -3 5 -8 -7 -4 -11 -17 -10 -29 0 -12 5 -19
10 -16 4 3 8 -1 6 -8 -3 -27 1 -40 11 -34 6 3 7 -1 4 -9 -3 -9 -11 -13 -18
-10 -6 3 -3 -1 7 -9 12 -10 15 -17 7 -22 -8 -5 -8 -10 0 -20 7 -8 9 -19 5 -25
-3 -5 2 -10 12 -10 15 0 16 -2 3 -10 -8 -5 -10 -10 -5 -10 6 0 12 -12 13 -26
1 -14 12 -35 24 -46 13 -11 17 -17 11 -13 -7 3 -13 1 -13 -4 0 -6 6 -11 13
-11 8 0 7 -4 -3 -10 -13 -8 -13 -10 2 -10 9 0 20 -5 24 -12 5 -8 2 -9 -10 -5
-18 7 -17 2 15 -44 10 -14 16 -37 15 -52 -2 -14 0 -24 4 -22 17 11 17 -23 0
-45 -19 -25 -16 -55 3 -43 7 4 1 -6 -11 -22 -21 -26 -22 -31 -7 -41 14 -10 13
-12 -7 -18 -13 -3 -19 -9 -13 -13 15 -12 17 -40 5 -65 -11 -23 -11 -23 9 1 25
28 27 20 5 -14 -9 -14 -24 -25 -33 -25 -14 0 -14 -2 -1 -10 12 -8 10 -10 -8
-10 -13 0 -20 -4 -17 -10 3 -6 1 -10 -5 -10 -7 0 -9 -7 -6 -16 5 -13 4 -14 -7
-5 -12 9 -14 6 -11 -16 1 -15 -2 -33 -8 -40 -8 -10 -4 -15 13 -23 l24 -11 -23
5 c-17 3 -22 1 -19 -9 3 -7 0 -18 -6 -25 -9 -9 -9 -11 -1 -7 7 4 14 0 17 -8 4
-10 1 -12 -11 -8 -13 5 -14 3 -5 -7 8 -9 9 -20 2 -37 -5 -14 -7 -29 -4 -34 4
-5 -2 -6 -12 -2 -16 6 -16 5 -4 -10 13 -16 8 -22 -13 -18 -5 1 -4 -4 3 -13 8
-10 9 -16 1 -21 -5 -3 -10 -11 -10 -16 0 -6 4 -8 8 -5 4 2 8 -4 8 -14 0 -14
-4 -16 -12 -9 -8 7 -15 6 -20 -2 -4 -7 -3 -9 3 -6 6 4 13 0 17 -8 3 -8 0 -15
-6 -15 -6 0 -3 -9 7 -20 18 -20 18 -21 0 -14 -13 5 -16 4 -10 -5 4 -8 2 -17
-6 -22 -9 -5 -10 -9 -2 -9 6 0 10 -8 8 -18 -2 -9 -4 -17 -5 -17 -1 0 -3 -8 -5
-17 -2 -10 1 -18 7 -18 6 0 4 -7 -3 -17 -12 -15 -12 -16 1 -8 13 8 13 7 1 -8
-9 -12 -10 -17 -2 -17 7 0 9 -5 4 -12 -11 -18 -10 -32 2 -41 7 -6 6 -10 -2
-13 -10 -4 -10 -8 0 -19 7 -7 16 -10 21 -7 5 3 6 0 2 -7 -5 -7 -15 -10 -23 -6
-13 4 -14 3 -3 -10 7 -8 15 -13 19 -11 8 6 7 -37 -2 -51 -4 -6 0 -13 8 -17 11
-4 13 -11 5 -31 -5 -14 -6 -25 -2 -25 4 0 0 -5 -8 -10 -8 -5 -10 -10 -5 -10 6
0 12 -12 13 -26 1 -15 8 -34 15 -42 10 -13 9 -15 -8 -9 -14 5 -11 0 9 -16 24
-19 26 -25 13 -30 -11 -4 -14 -2 -10 9 3 7 1 14 -5 14 -11 0 -10 -14 3 -42 4
-10 10 -16 14 -14 3 2 7 -7 7 -20 2 -23 1 -24 -12 -7 -12 17 -13 16 -7 -5 3
-12 9 -22 13 -22 4 0 6 -10 6 -22 -1 -13 5 -32 13 -42 9 -11 10 -16 4 -12 -7
4 -13 3 -13 -2 0 -5 9 -12 21 -15 21 -6 18 -27 -4 -27 -7 0 -6 4 3 10 9 6 10
10 3 10 -17 0 -25 -17 -12 -25 5 -4 8 -14 5 -24 -5 -13 -4 -13 8 2 13 17 14
16 12 -7 0 -13 -4 -22 -8 -20 -4 3 -5 -2 -2 -11 6 -14 8 -14 24 0 9 8 21 15
26 15 5 0 1 -5 -9 -11 -9 -6 -15 -14 -12 -20 4 -5 1 -9 -5 -9 -8 0 -8 -6 0
-20 6 -11 16 -18 21 -14 7 4 7 -1 0 -15 -10 -18 -9 -23 11 -31 13 -5 17 -9 11
-9 -15 -1 -17 -28 -3 -33 5 -2 11 -13 13 -25 5 -32 14 -38 34 -22 15 11 15 10
-1 -9 -17 -20 -15 -27 6 -23 4 0 4 -7 1 -16 -4 -11 -3 -14 5 -9 7 4 12 3 12
-3 0 -5 8 -12 18 -14 14 -4 14 -5 -3 -6 -18 -1 -17 -3 5 -15 15 -8 30 -9 37
-4 7 6 14 4 19 -3 4 -7 3 -9 -4 -5 -6 3 -16 -3 -22 -15 -8 -15 -9 -19 -1 -15
6 4 11 2 11 -4 0 -6 5 -8 10 -5 6 3 10 -4 10 -16 0 -12 3 -20 6 -16 11 10 36
-23 30 -38 -5 -13 -2 -14 17 -4 12 6 19 9 16 5 -4 -4 4 -18 18 -32 16 -16 22
-31 18 -41 -5 -15 -4 -15 14 1 18 16 44 5 27 -11 -3 -4 -6 0 -6 7 0 12 -2 12
-12 1 -11 -11 -10 -14 0 -18 6 -3 9 -10 5 -16 -4 -6 9 0 28 13 26 19 31 20 19
5 -13 -17 -13 -18 1 -13 9 4 16 1 16 -7 0 -11 -5 -11 -20 -4 -34 19 -28 3 10
-24 21 -15 32 -27 25 -27 -6 0 -12 -8 -12 -17 0 -14 2 -15 9 -4 7 11 10 9 16
-8 4 -13 9 -20 12 -17 11 11 44 -16 39 -31 -6 -13 -4 -14 9 -3 13 11 13 15 3
22 -10 7 -10 9 2 5 8 -2 14 -13 14 -25 -1 -12 3 -19 7 -16 5 3 9 1 9 -5 0 -5
9 -8 19 -6 15 3 18 -1 14 -12 -4 -11 -2 -14 5 -9 6 4 22 1 34 -5 20 -10 22
-10 13 2 -5 8 -3 7 7 -3 9 -10 23 -18 32 -18 8 0 18 -5 21 -10 4 -6 11 -8 16
-5 5 3 6 -1 3 -9 -4 -10 -1 -16 9 -16 8 0 18 6 20 13 3 6 6 2 6 -10 1 -13 6
-23 12 -23 5 0 7 -5 3 -11 -3 -6 6 -3 22 7 16 10 23 12 17 4 -18 -20 -16 -31
4 -23 12 5 15 2 10 -9 -4 -12 -1 -14 14 -11 12 3 19 0 19 -8 0 -11 2 -11 10 1
8 12 10 11 10 -7 0 -16 5 -21 20 -18 11 2 23 -1 26 -7 4 -6 2 -8 -4 -4 -6 3
-13 3 -16 -2 -3 -5 1 -9 9 -10 8 -1 22 -3 30 -4 8 -1 15 -5 15 -10 0 -5 5 -6
10 -3 6 3 10 2 10 -3 0 -6 9 -8 20 -5 11 3 20 0 20 -6 0 -6 7 -11 15 -11 8 0
15 -5 15 -11 0 -8 6 -7 16 2 15 12 16 11 9 -11 -7 -22 -6 -23 7 -12 13 10 17
10 22 -4 4 -10 13 -14 26 -11 13 3 20 0 20 -8 0 -8 4 -17 10 -20 6 -4 7 1 4
12 -3 11 3 7 16 -10 18 -22 25 -25 36 -16 11 9 19 8 33 -5 18 -17 20 -16 30 1
7 11 11 13 11 4 0 -8 6 -11 16 -7 14 5 15 4 5 -8 -9 -11 -8 -15 4 -20 8 -3 15
-1 15 5 0 5 13 3 30 -6 35 -18 53 -19 47 -2 -2 6 -10 11 -16 9 -7 -1 -10 2 -6
8 10 16 37 -10 30 -28 -3 -9 0 -12 9 -9 8 3 22 -3 32 -14 17 -19 19 -19 31 -3
12 17 13 17 13 0 0 -13 4 -15 18 -7 13 7 23 4 41 -12 13 -12 21 -16 17 -9 -4
7 -1 12 8 12 9 0 16 -4 16 -8 0 -5 7 -9 15 -9 8 0 12 4 9 8 -2 4 0 11 6 14 6
4 9 1 8 -6 -2 -7 5 -15 16 -17 11 -2 16 0 12 6 -3 6 7 4 24 -4 17 -9 27 -20
24 -26 -4 -7 -2 -8 5 -4 6 4 8 13 4 19 -4 8 -1 7 9 -1 11 -9 18 -10 23 -2 3 5
12 10 18 10 7 0 6 -4 -3 -10 -12 -8 -9 -10 12 -10 15 0 30 -5 34 -12 5 -8 11
-6 19 6 12 15 14 15 29 1 15 -15 16 -15 16 0 0 9 5 13 10 10 6 -4 8 -10 6 -14
-3 -4 6 -7 19 -7 16 0 21 5 18 15 -2 9 3 5 11 -9 14 -23 22 -16 17 13 -1 5 3
5 9 2 6 -4 9 -14 6 -24 -5 -12 -2 -11 9 3 13 17 19 16 17 -4 0 -3 17 -6 39 -5
21 0 39 4 39 9 0 5 7 3 15 -4 12 -10 15 -10 15 1 0 11 2 11 10 -1 8 -12 10
-12 10 5 0 13 3 16 8 8 9 -14 52 -13 52 2 0 5 5 3 10 -5 9 -13 11 -13 20 0 5
8 10 10 10 5 0 -6 9 -11 20 -12 13 -1 18 2 14 9 -4 6 3 4 17 -5 25 -18 44 -22
35 -8 -3 4 6 6 19 3 14 -2 25 -8 25 -12 0 -9 20 -8 37 3 6 4 15 2 19 -4 5 -8
3 -9 -6 -4 -9 6 -11 4 -6 -4 6 -9 13 -8 27 5 19 17 20 17 13 -1 -5 -12 -4 -16
3 -12 16 10 74 -4 66 -16 -3 -6 -1 -7 6 -3 6 4 8 13 5 19 -4 7 1 4 11 -5 13
-12 24 -14 40 -8 12 4 28 4 35 0 8 -5 22 -4 32 1 10 5 18 6 18 2 0 -4 5 -1 10
7 7 12 10 12 10 1 0 -8 6 -11 16 -7 9 4 13 2 8 -5 -4 -8 -1 -8 12 -1 11 5 27
8 37 7 10 -2 17 3 18 13 1 10 4 7 9 -8 7 -21 8 -22 9 -5 1 15 3 17 10 6 6 -9
11 -10 15 -2 4 6 12 11 17 11 6 0 7 -4 4 -10 -11 -18 4 -11 26 13 l21 22 -7
-24 -7 -24 23 22 c17 16 25 18 31 9 4 -7 8 -8 8 -3 0 6 9 16 21 23 12 8 18 9
14 3 -3 -6 -2 -11 4 -11 5 0 12 6 14 13 4 9 8 8 16 -3 9 -13 11 -13 11 2 0 9
5 20 12 24 6 4 8 3 5 -3 -4 -6 0 -14 9 -17 8 -3 12 -2 9 3 -3 5 -1 12 5 16 5
3 10 2 10 -3 0 -11 55 -10 67 1 4 5 0 5 -10 1 -10 -4 -17 -1 -17 6 0 9 -4 9
-17 -1 -16 -13 -17 -12 -4 4 8 11 18 14 25 9 6 -5 25 -9 42 -9 16 0 35 -2 41
-6 7 -5 9 1 6 15 -5 23 -5 23 10 3 11 -13 16 -15 17 -6 0 10 3 11 14 2 10 -9
16 -8 25 3 7 8 20 12 29 9 14 -6 15 -4 5 8 -10 12 -6 14 23 13 19 -1 37 3 41
9 3 5 1 7 -5 3 -6 -3 -13 -2 -16 3 -3 5 7 8 23 7 17 -1 28 1 25 5 -6 10 27 22
54 20 12 -1 22 3 22 9 0 6 5 8 10 5 6 -4 7 -11 4 -17 -4 -7 -2 -8 5 -4 6 4 9
11 6 16 -6 10 23 22 36 14 5 -3 9 0 9 6 0 6 5 8 10 5 6 -3 10 0 11 7 0 7 4 4
9 -7 7 -15 9 -16 9 -4 1 19 31 48 31 30 0 -6 5 -11 11 -11 5 0 7 4 4 10 -3 5
3 10 14 10 12 0 21 6 21 13 0 8 4 7 10 -3 6 -10 10 -11 10 -2 0 6 7 12 16 12
9 0 13 -5 9 -12 -4 -7 0 -5 8 5 11 14 16 15 20 5 4 -10 6 -10 6 0 1 6 6 12 12
12 5 0 7 -4 4 -10 -3 -6 1 -7 9 -4 9 3 14 10 11 14 -3 5 0 12 6 16 7 4 9 3 5
-4 -9 -15 13 -27 27 -13 13 13 31 15 23 3 -2 -4 6 -8 19 -8 13 0 21 4 19 8 -3
5 7 8 23 8 46 0 63 3 63 12 0 5 5 6 10 3 6 -3 10 -2 10 4 0 5 11 8 25 5 14 -2
36 3 50 12 24 16 25 16 19 -2 -5 -18 -5 -18 9 -2 11 14 16 15 27 5 10 -9 11
-9 6 1 -7 11 -3 14 27 16 6 1 15 4 18 9 3 4 20 9 37 10 18 1 32 5 32 9 0 4 10
12 21 19 12 6 19 7 16 2 -4 -5 1 -10 9 -10 8 0 13 6 10 14 -6 15 15 13 26 -2
4 -6 8 -2 8 9 0 14 3 16 13 8 13 -11 51 18 41 32 -2 3 1 2 7 -3 7 -6 24 -4 44
5 18 7 36 10 40 6 5 -4 5 -1 1 6 -5 8 0 12 16 12 13 0 28 4 33 9 6 6 23 11 38
13 16 3 32 8 35 14 4 5 14 9 22 9 8 0 14 6 12 13 -2 10 2 11 15 3 13 -7 23 -5
37 7 15 13 18 14 12 2 -4 -8 -1 -7 7 3 10 12 17 15 22 7 5 -8 11 -8 19 -1 7 6
17 7 21 3 5 -4 5 -1 1 6 -5 8 0 12 13 12 12 0 21 5 21 12 0 9 3 9 12 0 10 -10
16 -8 31 10 14 17 17 18 13 5 -5 -16 -4 -16 18 -2 12 8 26 12 31 8 4 -5 5 -2
1 5 -6 10 -3 13 10 12 29 -3 65 11 57 23 -3 6 -1 7 6 3 6 -4 18 -2 26 4 8 7
15 9 15 4 0 -5 5 -2 10 6 7 11 10 12 10 2 0 -10 4 -9 16 2 8 9 19 14 24 11 4
-3 11 2 14 11 6 15 8 15 27 -2 19 -17 20 -17 13 1 -5 13 -4 16 4 11 7 -4 12
-2 12 6 0 10 2 10 9 -1 7 -11 10 -10 18 4 5 9 13 16 16 16 21 -3 27 0 21 10
-4 7 1 7 16 -1 20 -11 22 -10 17 4 -5 12 -3 15 6 9 21 -14 58 -11 46 4 -12 13
20 11 43 -3 6 -4 8 -3 5 3 -4 6 0 13 7 16 8 3 16 1 18 -5 3 -7 10 -5 20 5 11
12 18 13 27 4 8 -8 11 -6 12 9 0 11 3 14 6 6 4 -10 8 -10 21 0 11 9 14 9 9 1
-5 -8 -1 -11 13 -8 27 5 41 15 36 24 -3 4 1 8 9 8 8 0 12 -4 9 -9 -3 -4 2 -5
10 -2 9 3 13 11 9 18 -4 6 0 6 9 -2 13 -10 18 -10 24 -1 5 8 3 9 -6 4 -9 -5
-11 -4 -6 3 4 7 20 10 37 7 23 -4 29 -2 30 12 0 16 1 16 8 -1 7 -19 8 -19 15
-1 6 16 9 17 16 5 7 -12 12 -12 22 -2 6 6 27 12 45 12 18 0 33 5 33 12 0 6 3
8 7 5 3 -4 12 1 20 11 8 9 12 12 9 7 -2 -6 -1 -17 5 -25 6 -11 9 -12 9 -2 0 7
4 11 9 7 5 -3 13 0 17 6 4 7 3 9 -4 5 -6 -3 -13 -3 -16 2 -2 4 6 8 19 8 13 0
22 -3 19 -7 -5 -8 13 -6 39 6 9 4 26 5 38 2 16 -4 18 -3 9 8 -9 10 -7 13 7 10
10 -1 17 -8 15 -15 -1 -6 2 -9 8 -5 6 3 8 10 5 15 -3 4 2 11 11 14 8 3 13 2
10 -3 -4 -5 2 -7 11 -5 39 9 99 10 122 2 21 -8 22 -7 11 7 -11 13 -10 14 4 9
12 -5 15 -2 10 12 -3 11 1 8 10 -6 14 -23 15 -23 16 -5 1 19 2 19 14 3 7 -10
16 -15 19 -11 4 3 2 11 -3 18 -7 8 -5 12 5 12 8 0 12 -4 10 -8 -3 -3 2 -12 9
-18 10 -9 16 -9 21 -1 5 8 11 7 23 -2 12 -10 14 -10 8 -1 -4 8 -1 13 9 13 10
0 14 -5 10 -12 -4 -7 3 -2 14 12 18 22 20 23 17 5 -3 -15 1 -21 14 -21 15 0
17 3 7 15 -10 12 -9 13 9 3 12 -6 25 -8 30 -4 5 4 3 -1 -4 -10 -11 -14 -10
-16 7 -11 12 3 18 9 15 14 -3 5 2 6 10 3 9 -3 13 -11 9 -18 -3 -6 3 -3 15 8
21 18 21 18 17 -5 -4 -22 -3 -22 9 -7 13 17 32 26 23 11 -3 -5 5 -9 16 -10 12
0 43 -3 69 -5 26 -2 44 0 41 5 -3 4 -12 6 -20 3 -8 -4 -11 -1 -8 5 4 6 14 8
22 5 8 -3 24 -1 36 5 22 10 22 10 2 -7 -14 -12 -15 -15 -4 -11 9 3 21 1 27 -5
7 -7 10 -5 9 8 -2 12 6 18 26 19 15 1 27 -2 27 -7 0 -4 -12 -6 -26 -4 -15 3
-24 2 -20 -1 10 -10 39 -13 51 -4 5 4 23 7 38 6 23 -1 26 1 14 10 -11 8 -12
13 -2 22 7 7 16 9 21 5 4 -4 4 -1 0 6 -6 10 -11 10 -22 1 -12 -10 -13 -9 -8 4
4 13 1 15 -16 12 -13 -2 -19 -1 -16 3 4 4 16 8 27 8 41 3 44 5 26 15 -9 5 -21
7 -26 4 -6 -3 -8 6 -5 21 5 25 3 26 -12 13 -15 -12 -16 -12 -9 10 6 19 4 23
-7 18 -12 -4 -14 2 -11 30 4 33 2 35 -14 22 -14 -11 -14 -9 2 10 12 15 14 21
5 16 -13 -8 -13 -7 0 10 14 17 13 18 -9 12 -18 -4 -21 -3 -12 6 15 15 15 61
-1 51 -8 -5 -9 -2 -4 12 4 10 4 15 0 11 -9 -8 -44 21 -44 37 0 6 5 5 12 -2 7
-7 15 -12 20 -12 4 0 -4 11 -18 25 -14 14 -29 23 -34 20 -5 -3 -11 -1 -15 5
-3 5 -1 10 6 10 7 0 9 3 6 7 -4 3 1 11 10 18 11 8 13 17 7 26 -9 15 -15 39 -8
39 2 0 10 -12 18 -27 13 -26 15 -26 13 -5 -1 12 -5 22 -9 22 -4 0 -6 6 -4 13
1 6 1 9 -1 5 -2 -4 -11 -4 -19 -1 -11 4 -12 9 -4 18 8 10 8 15 -1 21 -8 5 -9
3 -4 -6 5 -8 3 -11 -6 -8 -8 3 -12 12 -11 19 2 8 0 11 -4 7 -8 -8 -44 29 -44
46 0 6 -5 3 -11 -7 -8 -14 -14 -15 -24 -7 -10 8 -16 7 -24 -7 -6 -10 -11 -13
-11 -7 0 21 25 35 40 21 12 -10 12 -9 2 4 -6 9 -10 19 -7 22 3 4 2 5 -2 2 -3
-3 -15 3 -26 12 -11 10 -17 13 -14 7 4 -7 0 -14 -8 -17 -9 -4 -12 -1 -8 9 4
10 0 12 -10 8 -9 -3 -13 -12 -10 -20 3 -8 0 -14 -7 -14 -6 0 -8 5 -5 10 3 6 1
10 -5 10 -6 0 -8 6 -5 13 4 6 0 4 -9 -7 -8 -10 -20 -15 -27 -10 -8 5 -10 3 -4
-6 6 -10 4 -12 -8 -7 -10 3 -17 2 -17 -4 0 -6 -4 -7 -10 -4 -5 3 -10 1 -10 -4
0 -6 -9 -11 -20 -11 -27 0 -25 -18 3 -23 15 -3 13 -4 -8 -4 -17 1 -37 -3 -44
-8 -11 -6 -13 -4 -7 10 5 15 4 16 -9 5 -8 -7 -12 -16 -9 -21 3 -5 -2 -9 -10
-9 -10 0 -13 6 -9 18 8 22 -1 13 -17 -17 -11 -22 -11 -23 6 -17 16 6 17 5 6
-6 -11 -11 -17 -9 -33 11 -15 18 -19 19 -19 7 0 -12 -7 -15 -24 -12 -17 3 -23
0 -22 -11 0 -9 -6 -18 -14 -20 -13 -4 -13 -3 0 6 12 9 9 10 -12 9 -16 -1 -28
-8 -28 -14 0 -7 -7 -15 -16 -18 -10 -4 -13 -13 -9 -28 5 -21 5 -21 -5 -5 -9
15 -8 22 4 36 24 26 14 35 -24 21 -3 -1 -8 -2 -12 -1 -5 0 -8 -4 -8 -10 0 -6
7 -8 16 -5 8 3 12 2 9 -3 -9 -15 -46 -9 -40 7 3 10 -1 9 -17 -2 -17 -12 -25
-13 -37 -3 -12 10 -13 9 -6 -2 6 -11 4 -13 -9 -8 -14 6 -17 3 -12 -10 5 -15 4
-15 -9 1 -8 11 -15 14 -15 8 0 -7 -5 -12 -11 -12 -5 0 -7 5 -4 10 3 6 1 10 -4
10 -6 0 -11 -7 -11 -15 0 -8 -5 -15 -11 -15 -5 0 -7 6 -3 13 5 8 2 8 -9 -2 -9
-7 -17 -11 -17 -8 0 3 -16 -1 -36 -9 -20 -8 -33 -10 -29 -5 3 6 2 11 -4 11 -5
0 -12 -4 -16 -9 -3 -6 -15 -8 -26 -6 -16 3 -19 0 -15 -13 5 -14 3 -13 -9 2
-15 20 -15 20 -15 0 0 -10 -4 -15 -8 -9 -4 6 -13 11 -21 13 -12 3 -12 1 0 -14
13 -16 12 -17 -5 -7 -12 6 -31 7 -47 3 -19 -6 -29 -4 -33 3 -3 8 -5 8 -5 -1
-1 -7 -6 -10 -11 -7 -6 4 -17 1 -25 -5 -12 -10 -15 -10 -15 0 0 7 -7 4 -17 -7
-10 -10 -15 -14 -11 -8 4 7 -5 10 -27 10 -22 0 -30 -4 -25 -10 6 -7 2 -11 -11
-12 -13 -1 -17 2 -12 10 5 9 3 9 -8 0 -12 -10 -18 -10 -28 0 -10 9 -11 8 -5
-6 5 -13 2 -16 -12 -10 -13 5 -15 3 -9 -8 7 -11 5 -11 -10 1 -11 9 -16 10 -11
3 4 -7 3 -13 -3 -13 -5 0 -12 6 -14 13 -4 8 -6 9 -6 0 -1 -7 -11 -10 -28 -7
-15 3 -30 0 -34 -8 -7 -10 -9 -10 -9 0 0 19 -20 14 -21 -5 0 -12 -2 -13 -6 -5
-4 10 -8 10 -21 0 -9 -7 -13 -8 -9 -2 3 6 0 11 -8 11 -18 0 -19 -9 -2 -27 6
-8 2 -6 -10 4 -21 17 -27 15 -24 -6 0 -7 -16 -5 -42 7 -10 4 -24 2 -34 -6 -9
-8 -14 -9 -10 -2 5 7 0 9 -13 6 -11 -3 -17 -10 -14 -15 4 -6 -2 -5 -14 1 -15
8 -22 8 -25 -2 -4 -9 -6 -9 -6 1 -1 6 -6 12 -12 12 -5 0 -7 -6 -4 -13 4 -6 -1
-3 -9 7 -15 19 -22 12 -17 -17 1 -5 -3 -6 -9 -2 -6 3 -8 9 -6 13 2 4 -22 8
-55 9 -32 0 -59 -3 -59 -9 0 -5 5 -6 12 -2 7 5 8 3 3 -6 -7 -11 -10 -10 -19 1
-22 28 -53 18 -46 -16 1 -5 -8 -1 -19 9 -25 23 -40 14 -20 -11 13 -17 13 -17
-7 -1 -21 18 -39 24 -31 11 3 -5 -24 -7 -61 -6 -38 2 -71 -2 -79 -9 -9 -7 -17
-8 -21 -2 -9 12 -44 15 -36 3 3 -5 0 -9 -6 -9 -6 0 -9 -4 -5 -9 3 -5 1 -13 -5
-16 -6 -4 -10 -3 -9 2 4 22 -4 28 -36 28 -19 0 -35 -3 -35 -7 0 -4 -7 -4 -17
-1 -10 4 -14 2 -10 -4 8 -13 -11 -12 -32 1 -9 6 -12 5 -7 -2 4 -8 -5 -10 -29
-8 -19 1 -35 -2 -36 -8 0 -6 -4 -2 -9 9 -8 19 -9 19 -9 1 -1 -17 -3 -17 -25
-2 -14 9 -27 12 -30 7 -3 -4 -20 -8 -38 -7 -18 1 -39 -6 -46 -14 -12 -13 -13
-13 -6 0 5 12 4 12 -6 3 -7 -6 -19 -9 -28 -6 -8 4 -13 2 -9 -3 3 -5 -12 -9
-34 -8 -21 0 -39 -2 -39 -6 0 -4 -13 -6 -30 -5 -16 1 -30 -2 -30 -7 0 -5 -4
-7 -9 -3 -5 3 -12 1 -16 -5 -4 -6 -11 -8 -16 -4 -5 3 -17 0 -25 -7 -8 -6 -17
-9 -21 -6 -3 3 -18 0 -33 -8 -28 -14 -206 -15 -229 -1 -6 4 -11 2 -11 -3 0 -6
-5 -11 -11 -11 -5 0 -7 6 -4 13 4 6 1 5 -7 -3 -7 -8 -22 -17 -33 -18 -11 -2
-25 -8 -32 -14 -7 -5 -17 -7 -23 -3 -6 4 -9 1 -8 -6 2 -6 -3 -14 -11 -17 -10
-3 -11 0 -5 9 7 12 5 12 -9 0 -13 -10 -17 -10 -17 -1 0 10 -3 10 -14 1 -10 -8
-16 -9 -21 -1 -3 5 -15 10 -26 10 -11 0 -17 -4 -14 -10 3 -6 -1 -7 -9 -4 -9 3
-13 11 -10 18 3 6 -2 2 -10 -8 -11 -14 -16 -15 -16 -6 0 11 -3 11 -12 2 -17
-17 -33 -15 -19 2 10 12 8 13 -8 9 -12 -3 -18 -10 -14 -17 4 -6 -1 -5 -10 3
-11 8 -28 11 -46 8 -19 -4 -31 -2 -35 6 -3 8 -5 8 -5 1 -1 -7 -16 -10 -42 -7
-29 4 -39 2 -35 -6 4 -6 3 -11 -3 -11 -5 0 -11 6 -14 13 -3 9 -7 9 -20 -2 -13
-10 -17 -10 -17 -1 0 10 -3 10 -15 0 -8 -7 -15 -8 -15 -3 0 5 -7 10 -15 10
-11 0 -14 -7 -10 -21 5 -17 4 -18 -4 -5 -10 15 -65 18 -79 4 -3 -3 -12 1 -20
8 -13 10 -14 9 -7 -2 6 -11 4 -13 -8 -8 -10 3 -17 3 -17 -2 0 -5 -20 -8 -45
-7 -25 1 -45 -2 -45 -5 0 -4 -14 -4 -30 1 -19 6 -28 5 -24 -1 3 -6 -5 -8 -20
-5 -14 3 -26 1 -26 -3 0 -12 -33 -10 -49 3 -12 9 -13 8 -6 -3 6 -11 1 -13 -24
-9 -18 3 -31 0 -32 -6 0 -6 -4 -2 -9 9 -8 19 -9 19 -9 -3 -1 -21 -2 -22 -17
-8 -12 12 -20 13 -35 6 -15 -9 -19 -7 -19 7 0 14 -2 15 -9 4 -6 -10 -10 -10
-16 -2 -5 9 -14 7 -33 -5 -22 -14 -24 -14 -14 -2 11 13 9 16 -12 20 -14 3 -23
1 -20 -3 8 -13 -10 -11 -24 3 -9 9 -12 9 -12 -1 0 -11 -3 -11 -15 -1 -13 11
-14 10 -9 -6 7 -19 7 -19 -14 0 -12 11 -22 15 -22 9 0 -13 -46 -8 -64 6 -9 7
-16 7 -26 -2 -7 -6 -10 -7 -7 -1 4 7 -5 11 -23 12 -17 0 -30 -4 -30 -9 0 -6
-5 -7 -10 -4 -6 4 -8 9 -6 13 2 4 -15 7 -37 6 -23 0 -52 6 -64 13 -16 11 -23
11 -29 2 -4 -8 -3 -9 4 -5 7 4 12 2 12 -3 0 -13 -12 -14 -25 -3 -22 18 -69 34
-59 20 5 -8 1 -5 -8 5 -13 13 -18 15 -18 6 0 -12 -2 -12 -9 0 -7 11 -10 10
-14 -5 -4 -17 -5 -17 -6 -1 0 10 -5 15 -11 12 -5 -3 -10 -1 -10 5 0 7 -12 9
-29 7 -22 -4 -28 -1 -25 8 3 7 -1 13 -8 12 -51 -2 -79 4 -72 15 4 7 4 10 -1 6
-4 -4 -15 -2 -23 5 -13 9 -14 9 -8 0 4 -7 3 -13 -3 -13 -5 0 -13 5 -16 10 -4
6 -11 8 -16 5 -5 -4 -9 -2 -9 4 0 6 -6 8 -14 5 -8 -3 -16 -2 -19 3 -3 4 -28 8
-56 7 -28 -1 -48 2 -46 7 7 10 -36 6 -54 -6 -10 -5 -12 -4 -7 3 5 8 -2 12 -19
12 -16 0 -24 -4 -20 -11 4 -6 -3 -5 -14 3 -18 11 -23 11 -32 -2 -9 -12 -10
-12 -5 3 4 12 2 17 -6 14 -7 -2 -20 2 -30 10 -9 8 -24 16 -33 17 -9 1 -30 15
-46 30 -16 16 -34 24 -41 20 -8 -5 -9 -2 -5 9 3 9 1 19 -5 23 -7 4 -8 3 -4 -4
4 -7 3 -12 -3 -12 -5 0 -12 6 -14 13 -4 9 -8 8 -16 -3 -6 -8 -11 -10 -11 -4 0
5 6 16 13 23 6 7 8 11 2 10 -5 -2 -21 3 -34 10 -16 9 -21 9 -16 1 5 -8 0 -7
-14 2 -12 7 -21 18 -21 25 0 7 -6 10 -14 7 -8 -3 -17 0 -22 7 -5 8 -3 10 6 4
8 -5 11 -4 6 3 -4 6 -13 9 -21 5 -9 -3 -15 1 -15 11 0 14 -11 20 -32 17 -4 0
-5 6 -2 14 4 8 -1 17 -10 21 -9 3 -13 11 -9 17 3 5 -2 16 -12 23 -10 8 -15 20
-11 29 3 9 2 14 -3 11 -5 -3 -15 2 -22 11 -12 14 -12 16 1 9 8 -4 6 -1 -4 8
-10 8 -22 13 -27 11 -4 -3 -10 1 -12 7 -4 9 -6 9 -6 -1 -1 -11 -4 -11 -14 3
-8 11 -28 18 -54 19 -24 1 -38 6 -33 11 13 13 -16 37 -37 30 -16 -6 -15 -5 2
9 11 9 16 17 11 17 -5 0 -3 7 5 16 7 9 9 18 3 22 -5 4 -10 13 -12 21 -3 12 0
12 12 2 10 -8 16 -9 21 -1 3 5 2 10 -3 10 -16 0 -6 40 14 56 10 8 12 12 4 8
-12 -6 -13 -5 -4 7 6 8 10 22 9 31 -2 12 2 15 13 11 10 -4 14 -3 10 2 -4 4 -2
17 4 29 10 20 10 20 -7 6 -17 -14 -17 -14 -5 7 8 12 18 19 22 17 4 -3 8 0 8 5
0 6 -6 11 -12 12 -7 0 -4 4 7 9 11 5 14 9 7 9 -7 1 -10 6 -7 11 4 6 12 7 18 3
7 -4 5 2 -3 12 -9 11 -10 16 -2 11 7 -4 12 -2 12 4 0 6 5 8 12 4 7 -5 8 -3 2
7 -11 18 -16 38 -16 67 0 18 -3 20 -13 12 -8 -6 -11 -19 -9 -28 5 -15 4 -14
-6 1 -6 9 -16 14 -22 11 -7 -4 -8 -2 -4 5 4 6 0 14 -8 17 -9 3 -16 11 -16 17
0 7 4 7 12 -1 7 -7 17 -12 22 -12 6 1 2 9 -10 18 -17 15 -19 20 -7 30 7 7 13
8 13 3 0 -5 11 -8 25 -5 18 3 27 -1 32 -13 6 -15 7 -15 14 3 6 14 8 15 8 3 1
-16 31 -23 31 -7 0 4 5 8 11 8 8 0 8 -4 0 -14 -7 -8 -20 -13 -30 -11 -10 2
-24 -1 -32 -6 -8 -5 -9 -9 -3 -9 6 0 11 -7 11 -15 0 -8 -4 -12 -9 -9 -4 3 -8
1 -8 -5 0 -18 18 -21 25 -3 3 9 6 19 5 21 -1 4 57 31 67 31 2 0 2 -4 -2 -9 -3
-5 0 -13 6 -17 7 -4 9 -3 5 4 -3 6 -2 13 4 17 5 3 10 1 10 -4 0 -6 7 -11 15
-11 8 0 15 -4 15 -10 0 -5 12 -10 26 -10 17 0 23 -4 18 -12 -5 -8 -2 -9 9 -5
11 4 17 1 17 -9 0 -12 2 -12 14 -2 8 7 11 17 8 22 -3 5 0 6 6 2 6 -4 9 -14 6
-24 -5 -13 -4 -14 4 -4 5 8 13 13 18 13 5 -1 9 7 9 17 0 9 4 23 9 31 7 11 5
13 -7 8 -10 -3 -17 -2 -17 3 0 5 -6 10 -12 13 -7 2 -5 3 5 2 21 -4 23 11 1 19
-8 3 -12 10 -9 16 3 5 1 10 -5 10 -6 0 -8 5 -5 10 3 6 2 10 -4 10 -5 0 -8 11
-7 25 2 13 0 22 -4 20 -5 -3 -11 2 -14 10 -3 8 -9 14 -13 14 -23 -5 -83 37
-83 58 0 7 -5 13 -11 13 -6 0 -9 8 -7 18 3 11 -1 30 -8 43 -18 33 -17 47 2 23
8 -10 12 -13 8 -5 -5 11 -3 13 12 8 14 -5 12 -2 -6 13 l-25 19 23 -4 c19 -3
22 -1 18 12 -5 11 -2 14 11 9 15 -6 14 -4 -2 14 -15 16 -16 20 -3 15 9 -4 19
-1 24 6 4 7 3 10 -3 6 -6 -4 -10 4 -10 18 0 14 3 22 8 19 5 -3 6 3 2 12 -5 13
-3 15 7 9 9 -6 11 -4 5 5 -4 7 -2 16 6 22 11 8 10 9 -3 4 -10 -3 -18 -1 -18 4
0 6 5 10 11 10 5 0 7 6 3 13 -6 9 -5 9 8 0 15 -13 44 6 48 32 1 6 6 9 11 8 5
-2 9 6 9 18 0 12 4 17 11 13 8 -4 9 1 4 16 -6 17 -4 21 6 14 11 -6 12 -5 2 7
-9 12 -10 18 -1 27 8 8 7 13 -5 18 -9 3 -14 10 -11 15 3 6 -2 21 -11 36 -9 14
-12 22 -6 19 6 -4 11 0 11 8 0 9 -5 16 -12 16 -6 0 -8 3 -5 7 4 3 -1 11 -10
18 -13 9 -13 14 -3 20 8 5 11 4 7 -2 -3 -5 0 -10 8 -10 8 0 11 5 7 11 -4 6 -7
14 -7 18 0 3 -4 10 -9 15 -5 5 -6 2 -1 -6 5 -10 4 -12 -4 -7 -6 4 -11 13 -10
19 3 26 -2 38 -13 31 -7 -5 -8 -3 -2 7 14 22 13 37 -2 50 -8 6 -11 16 -7 22 3
6 1 7 -5 3 -11 -7 -15 10 -15 67 0 12 -3 14 -11 8 -9 -8 -11 1 -10 34 1 30 -2
45 -13 49 -8 3 -11 10 -8 16 3 5 0 10 -7 10 -9 0 -9 3 2 10 12 8 12 10 1 10
-8 0 -11 7 -8 20 3 11 1 18 -4 14 -5 -3 -9 2 -9 11 0 10 5 13 13 9 6 -4 4 2
-5 13 -10 11 -18 30 -18 42 0 12 -4 20 -9 16 -5 -3 -12 -1 -15 4 -4 5 -1 13 5
17 8 5 9 3 4 -7 -5 -8 -4 -10 0 -6 12 10 15 38 4 31 -5 -3 -9 4 -9 15 0 12 -4
21 -9 21 -6 0 -8 9 -6 20 3 13 0 18 -7 14 -7 -5 -9 -2 -5 8 3 9 3 19 -1 23 -7
7 -8 12 -11 41 0 8 -5 12 -11 9 -5 -3 -10 3 -10 15 0 13 -4 19 -12 14 -8 -5
-9 0 -5 15 3 12 -1 27 -9 36 -10 10 -11 16 -3 21 9 5 6 12 -7 22 -18 14 -18
14 0 8 13 -5 17 -2 13 8 -5 12 -1 13 19 6 15 -6 23 -6 20 -1 -4 5 12 8 34 7
21 -2 37 1 34 6 -3 4 -1 8 5 8 5 0 11 -5 13 -11 3 -9 10 -8 28 1 18 10 25 10
28 1 3 -9 8 -9 20 1 13 11 14 11 7 -2 -8 -13 -6 -13 8 -2 9 8 21 11 27 7 5 -3
10 -1 10 5 0 6 5 8 10 5 6 -3 10 -2 10 3 0 10 30 10 46 -1 6 -3 14 -3 18 0 13
13 59 14 67 1 7 -10 9 -10 9 0 0 16 27 16 33 0 4 -10 6 -10 6 0 1 9 6 10 20 2
14 -7 21 -6 24 3 4 9 6 8 6 -2 1 -11 4 -11 18 0 14 12 16 12 8 0 -6 -11 -1
-13 23 -9 17 2 30 0 29 -5 -1 -5 4 -12 12 -15 8 -2 11 0 8 5 -7 11 32 11 49 0
6 -3 14 -3 18 1 4 4 16 8 27 8 37 3 40 4 33 15 -3 6 6 3 22 -7 27 -18 28 -18
15 -1 -12 16 -12 18 0 15 8 -2 17 -7 21 -13 5 -6 8 -5 8 3 0 6 7 12 15 12 8 0
15 -6 16 -12 0 -7 4 -4 9 7 6 14 9 15 10 5 0 -12 4 -11 15 4 8 11 15 15 15 10
0 -5 12 -11 28 -12 26 -1 26 -1 8 13 -11 8 -15 15 -9 15 7 0 18 -6 25 -13 15
-16 48 -18 48 -4 0 5 -8 6 -17 2 -15 -5 -16 -4 -5 7 11 11 16 9 31 -11 14 -18
20 -21 26 -11 6 9 4 11 -6 5 -12 -7 -12 -5 -1 6 11 11 14 12 21 1 6 -11 10
-10 15 3 5 14 9 15 22 4 13 -10 17 -10 24 0 5 9 10 10 14 2 4 -6 13 -11 19
-11 8 0 8 3 -1 9 -10 6 -9 10 7 14 12 3 21 1 21 -3 0 -5 13 -2 29 6 17 8 40
17 51 19 45 9 60 17 53 28 -4 7 1 6 10 -2 13 -10 17 -10 17 -1 0 7 6 10 14 7
7 -3 19 0 25 6 8 8 11 7 11 -3 0 -13 2 -13 10 0 6 9 21 14 40 12 19 -2 30 1
30 9 0 10 3 10 12 1 9 -9 17 -7 37 11 13 12 21 15 17 7 -4 -8 0 -6 8 4 9 11
16 14 16 8 0 -7 4 -12 10 -12 5 0 7 8 3 18 -5 14 -3 15 7 5 11 -10 19 -8 39
10 13 12 21 17 17 10 -3 -6 -2 -15 4 -18 6 -4 10 -3 9 2 -4 21 2 32 15 27 8
-3 17 0 22 7 5 8 3 10 -6 4 -9 -5 -11 -4 -6 4 6 9 11 9 24 -1 12 -10 14 -10 8
0 -4 7 -1 12 8 12 10 0 13 6 10 18 -5 16 -5 16 6 -1 10 -15 13 -16 26 -2 9 8
22 15 31 15 13 0 13 2 2 17 -13 15 -12 15 8 5 18 -10 23 -9 28 7 3 11 12 18
19 15 8 -3 22 5 33 18 10 13 28 28 38 34 12 7 19 20 17 30 -2 11 -1 16 4 12 4
-4 13 0 21 10 8 9 12 11 8 5 -3 -7 -1 -13 6 -13 6 0 9 8 6 20 -3 11 -1 18 4
14 5 -3 9 0 9 5 0 6 7 11 15 11 8 0 15 7 15 15 0 9 6 12 15 8 10 -3 15 0 13 8
-2 8 5 13 15 13 14 -2 15 1 6 12 -9 11 -7 14 10 14 11 0 21 5 21 11 0 5 -6 7
-12 4 -7 -4 -2 2 11 13 13 11 21 24 17 31 -4 6 -1 11 8 11 9 0 16 7 16 16 0 8
5 12 10 9 6 -4 10 5 10 20 0 19 4 26 14 22 10 -4 13 1 12 18 -2 17 1 22 12 17
10 -3 13 -1 8 6 -7 12 12 52 31 65 9 5 10 15 2 34 -8 22 -7 24 5 14 11 -9 16
-9 22 0 4 7 3 9 -3 6 -6 -4 -13 -1 -16 7 -3 7 0 13 6 12 7 0 13 1 13 4 1 3 9
22 17 43 9 20 13 37 9 37 -4 0 0 5 8 10 13 8 12 10 -3 10 -10 0 -16 4 -12 9 3
6 15 8 26 6 16 -3 18 -1 10 9 -9 10 -8 15 4 19 9 4 12 13 8 23 -4 11 -2 15 4
11 8 -5 10 3 6 24 -3 24 -1 29 9 24 10 -6 10 -5 1 5 -9 10 -7 17 10 32 12 11
16 17 10 13 -7 -3 -13 -1 -13 5 0 6 -5 8 -12 4 -7 -4 -8 -3 -4 5 4 6 12 9 17
6 9 -6 14 9 9 30 -1 6 -2 14 -3 20 -1 5 4 10 11 11 26 3 27 5 12 14 -12 8 -12
10 -1 10 11 0 9 5 -5 22 -15 19 -16 20 -1 9 15 -12 17 -11 17 12 0 14 5 29 10
32 6 3 10 12 10 18 0 7 -12 -1 -25 -16 -14 -15 -25 -24 -25 -18 0 5 5 13 10
16 6 4 7 11 4 17 -4 6 -3 9 2 6 5 -3 15 0 22 8 8 9 9 14 2 14 -6 0 -8 5 -5 10
4 6 10 8 14 6 4 -3 8 1 8 8 0 8 -7 12 -16 9 -9 -2 -7 1 4 9 15 9 21 23 20 51
-1 20 3 37 8 37 4 0 5 5 2 10 -4 6 2 25 13 43 11 17 17 38 14 46 -3 10 0 11 9
5 12 -6 12 -5 1 8 -10 13 -10 17 2 21 9 4 13 17 12 36 -2 23 1 28 11 20 13
-12 11 19 -3 44 -6 9 -4 9 8 -1 13 -10 15 -9 10 13 -3 17 0 25 9 25 12 0 12 2
0 9 -10 7 -11 13 -1 31 11 20 10 22 -4 17 -12 -5 -15 -3 -9 6 14 22 14 49 1
41 -10 -5 -10 -4 -1 6 6 7 9 19 6 28 -4 9 -2 13 4 9 5 -3 10 0 10 8 0 8 -5 12
-10 8 -5 -3 -6 4 -2 18 7 22 6 23 -9 10 -15 -12 -17 -12 -14 0 2 8 -3 13 -10
11 -8 -1 -11 2 -7 8 5 8 11 8 19 1 13 -11 26 -5 26 11 0 5 -4 7 -9 3 -5 -3
-13 -1 -16 5 -4 6 -1 9 6 8 6 -2 14 3 17 11 2 8 0 11 -6 7 -6 -3 -14 -1 -18 5
-4 7 -3 9 3 6 6 -4 16 0 23 8 11 13 10 14 -3 10 -8 -4 -18 -2 -22 4 -3 6 -12
11 -18 11 -7 0 -6 -4 3 -10 9 -6 10 -10 3 -10 -6 0 -15 5 -18 10 -9 14 -27 2
-19 -13 3 -7 -2 -3 -10 7 -9 11 -16 15 -16 9 0 -6 -9 -13 -19 -16 -14 -3 -18
-1 -14 9 3 9 -1 14 -12 14 -9 0 -13 5 -10 10 3 6 1 10 -5 10 -6 0 -8 5 -5 10
3 6 0 10 -9 10 -8 0 -17 6 -19 13 -4 9 -6 9 -6 -1 -1 -9 -6 -10 -20 -2 -14 7
-22 7 -26 0 -5 -8 -11 -7 -21 1 -11 9 -14 9 -14 0 0 -8 -5 -9 -19 -1 -14 7
-22 7 -26 0 -5 -8 -11 -7 -21 1 -7 6 -20 9 -28 6 -8 -3 -17 -1 -20 6 -3 9 -5
9 -5 0 -1 -6 -9 -9 -20 -6 -10 2 -24 -2 -32 -10 -8 -7 -20 -12 -27 -9 -6 2
-13 -3 -13 -12 -1 -9 -2 -26 -3 -38 -1 -13 2 -29 7 -35 6 -9 5 -13 -3 -13 -10
0 -10 -3 0 -15 10 -12 10 -15 -1 -15 -12 0 -12 -2 0 -9 7 -5 11 -15 9 -22 -3
-8 1 -27 9 -42 8 -15 11 -33 7 -39 -4 -6 -3 -8 4 -4 6 3 13 -3 17 -14 3 -11
14 -20 23 -21 11 0 12 -3 5 -6 -14 -5 -18 -33 -5 -33 5 0 14 -12 21 -27 11
-24 10 -25 -4 -13 -8 7 -18 10 -22 6 -3 -3 -1 -6 5 -6 13 0 7 -41 -9 -50 -6
-4 -10 -10 -10 -14 3 -23 0 -36 -8 -32 -5 3 -8 -12 -7 -34 0 -22 -3 -40 -9
-40 -7 0 -7 -3 0 -8 6 -4 17 -16 25 -27 14 -19 14 -19 -3 -6 -16 13 -18 12
-13 -12 3 -17 0 -27 -7 -28 -28 -2 -50 -8 -56 -17 -3 -5 -19 -12 -36 -16 -16
-4 -33 -13 -37 -19 -3 -6 -17 -12 -29 -14 -13 -2 -27 -9 -31 -16 -4 -6 -12
-12 -18 -12 -5 0 -11 -4 -12 -10 -1 -5 -12 -18 -25 -28 -12 -10 -22 -21 -21
-25 3 -10 -34 -65 -49 -75 -8 -5 -11 -12 -8 -18 4 -5 1 -9 -6 -9 -7 0 -9 -3
-6 -7 4 -3 0 -15 -10 -25 -9 -10 -13 -18 -10 -18 3 0 -5 -12 -18 -26 -14 -15
-22 -30 -19 -35 3 -5 -2 -9 -10 -9 -10 0 -13 -6 -10 -15 4 -8 1 -15 -5 -15 -6
0 -11 -7 -11 -15 0 -8 -6 -15 -14 -15 -19 0 -28 -40 -13 -59 11 -14 10 -14 -5
-2 -18 13 -53 -1 -44 -18 5 -10 -31 -40 -40 -33 -4 4 -4 2 -1 -5 8 -14 -18
-43 -39 -43 -8 0 -14 -7 -14 -15 0 -9 -6 -12 -17 -8 -10 4 -14 2 -10 -4 5 -7
0 -9 -13 -6 -11 3 -17 10 -13 17 4 6 -2 4 -12 -4 -10 -8 -16 -10 -12 -4 4 7
-1 18 -10 25 -17 15 -19 14 -42 -4 -8 -7 -12 -7 -9 -2 3 6 0 16 -8 23 -11 10
-14 10 -14 0 0 -10 -2 -10 -8 0 -14 21 -112 17 -174 -7 -16 -6 -28 -9 -28 -6
0 2 -20 -4 -45 -15 -25 -11 -57 -21 -73 -24 -15 -2 -27 -5 -27 -6 0 -1 -12 -3
-27 -5 -16 -2 -28 1 -28 8 0 8 -3 8 -12 -1 -7 -7 -17 -12 -22 -12 -6 0 -4 5 4
11 11 7 7 9 -17 5 -21 -3 -33 0 -33 7 0 7 -5 6 -10 -3 -9 -14 -14 -7 -11 15 1
6 -8 -1 -20 -15 -11 -14 -18 -19 -14 -12 8 16 -66 17 -82 1 -8 -8 -13 -7 -18
2 -6 8 -4 10 5 4 9 -6 11 -4 6 4 -6 9 -12 9 -24 -2 -19 -16 -46 -12 -36 5 5 7
2 8 -5 3 -7 -4 -27 -8 -45 -9 -18 -1 -38 -6 -45 -11 -8 -4 -16 -2 -21 5 -5 8
-10 9 -14 2 -8 -14 -46 -11 -46 3 0 6 -3 7 -8 0 -10 -14 -32 -17 -32 -4 0 7
-7 8 -17 4 -28 -11 -63 -13 -57 -3 3 5 -6 7 -20 4 -24 -4 -25 -3 -15 16 9 17
9 20 -3 15 -8 -3 -15 1 -15 9 0 7 4 11 9 8 4 -3 8 0 8 5 0 6 -8 11 -17 12 -15
0 -15 2 2 9 11 5 15 9 8 9 -8 1 -9 10 -2 33 11 41 11 41 -2 32 -8 -4 -8 -1 -1
12 5 11 7 25 5 32 -3 7 0 19 7 26 8 10 8 16 0 21 -8 5 -7 11 2 23 8 10 9 13 1
9 -10 -6 -12 38 -2 51 6 8 4 29 -5 41 -8 11 -8 13 2 7 6 -4 12 -2 12 3 0 6 -4
11 -9 11 -11 0 -9 40 4 59 5 9 4 12 -2 8 -6 -4 -13 4 -15 17 -4 19 -1 23 11
18 13 -4 12 -1 -3 16 -12 14 -14 22 -7 22 7 0 9 5 5 12 -4 6 -8 34 -8 62 -1
28 -5 56 -9 63 -4 6 -3 15 3 18 8 5 8 11 0 20 -8 9 -8 15 0 20 6 3 7 12 3 18
-7 11 -12 54 -14 127 0 19 -6 38 -12 42 -8 5 -7 8 3 8 13 0 13 2 1 9 -12 8
-12 13 -3 24 10 11 9 17 -3 27 -8 7 -12 16 -9 21 3 5 0 8 -8 7 -7 -2 -12 3
-10 11 3 12 0 12 -13 1 -13 -11 -15 -10 -9 3 3 10 -4 26 -20 42 -14 14 -26 22
-26 18 -1 -10 -24 29 -25 42 -1 6 3 18 8 29 6 13 6 16 -2 12 -6 -4 -11 -2 -11
3 0 6 6 11 13 11 8 0 9 2 1 8 -6 4 -11 23 -10 44 0 20 -2 34 -6 31 -5 -2 -8 0
-8 6 0 5 6 12 13 14 9 4 9 6 -1 6 -7 1 -10 6 -6 13 4 7 3 8 -5 4 -6 -4 -9 -11
-6 -16 3 -5 0 -12 -7 -16 -7 -4 -10 -4 -6 1 4 4 2 15 -4 24 -7 9 -8 13 -4 9
15 -13 48 33 35 49 -9 10 -15 10 -25 2 -20 -16 -17 -21 9 -15 12 3 6 -2 -14
-12 -19 -9 -36 -21 -37 -27 -2 -12 -40 -16 -47 -4 -3 4 6 6 19 3 25 -4 32 26
8 34 -7 2 -12 8 -12 13 0 6 3 8 8 6 9 -6 33 19 25 27 -3 3 -11 2 -17 -2 -6 -5
-22 -3 -36 4 -17 10 -20 14 -8 14 19 0 18 28 -3 41 -12 7 -11 9 3 9 9 0 18 -5
20 -12 3 -8 14 -3 32 15 25 25 28 47 5 47 -6 0 -7 -5 -4 -10 4 -6 1 -17 -5
-25 -13 -15 -60 -1 -60 18 0 6 5 6 13 0 6 -6 20 -10 29 -10 22 0 18 35 -6 53
-16 11 -16 13 3 19 15 4 31 -1 53 -20 22 -18 33 -23 38 -14 4 6 14 16 21 21
11 8 10 9 -3 4 -10 -3 -18 -1 -18 4 0 6 5 10 12 10 9 0 9 3 1 11 -14 14 -5 41
11 32 8 -5 8 -3 0 8 -15 20 -17 72 -2 63 7 -5 8 -3 2 7 -14 23 -16 59 -2 59
14 0 -10 20 -24 20 -10 0 -5 -30 7 -50 8 -13 7 -13 -8 -1 -10 8 -21 11 -24 7
-4 -4 -1 -11 7 -17 12 -7 11 -10 -7 -15 -13 -4 -23 -11 -23 -16 0 -5 6 -6 13
-2 6 4 9 3 5 -1 -12 -12 -58 -15 -58 -4 0 6 -5 7 -10 4 -6 -4 -10 -3 -9 2 4
21 -2 33 -15 33 -8 0 -18 4 -21 10 -4 6 1 7 11 3 12 -4 15 -3 10 6 -4 6 -3 18
3 25 9 10 8 15 -3 19 -10 4 -16 -2 -19 -16 -3 -13 -4 -9 -4 10 1 29 2 30 21
17 27 -19 31 -18 33 7 2 16 -1 18 -11 10 -10 -8 -17 -7 -26 4 -7 8 -17 12 -24
8 -6 -4 -5 1 2 9 8 10 21 14 30 11 9 -3 14 -2 9 2 -4 5 0 17 10 27 15 17 15
19 -1 37 -13 14 -14 21 -5 27 8 4 10 3 5 -4 -4 -7 -2 -12 3 -12 6 0 11 6 11
14 0 8 6 17 13 19 10 4 10 6 0 6 -7 1 -13 7 -13 14 1 6 14 -4 30 -23 22 -24
30 -29 30 -17 0 9 4 17 8 17 4 0 8 -9 8 -19 0 -11 -4 -17 -8 -15 -4 3 -8 -1
-8 -8 0 -7 -9 0 -19 16 l-19 28 -12 -23 c-11 -20 -10 -25 8 -39 19 -16 19 -18
4 -34 -20 -20 -4 -21 22 -1 10 8 15 19 10 26 -4 8 -3 10 4 5 7 -4 12 -3 12 3
0 6 8 8 18 5 10 -4 13 -2 7 3 -15 13 -17 34 -4 50 10 11 10 14 -2 11 -10 -2
-13 8 -12 41 0 26 -3 38 -8 30 -4 -7 -6 -16 -4 -19 2 -4 -2 -7 -10 -7 -21 0
-19 6 11 33 14 13 20 24 14 24 -6 0 -8 5 -4 12 4 7 3 8 -4 4 -16 -9 -15 7 0
22 9 9 9 12 0 12 -7 0 -12 7 -12 16 0 8 4 13 9 9 6 -3 8 4 5 17 -3 13 -6 28
-6 35 -1 6 -7 9 -15 6 -7 -3 -13 -1 -13 5 0 6 6 13 13 15 8 4 7 6 -3 6 -25 1
-54 -47 -39 -65 16 -19 -1 -37 -21 -23 -13 9 -12 10 3 5 22 -7 22 0 -4 36 -12
17 -27 27 -35 24 -22 -8 -16 2 7 15 12 6 19 7 16 2 -6 -10 19 -34 27 -26 3 4
-1 16 -9 29 -13 20 -12 23 1 28 8 3 12 11 8 17 -4 8 -9 7 -16 -2 -8 -12 -9
-12 -6 0 2 8 14 15 26 16 21 2 21 0 7 -21 -19 -29 -19 -34 1 -34 8 0 13 4 9 9
-3 6 3 14 12 20 10 6 13 11 6 11 -7 0 -10 7 -6 16 4 11 1 15 -12 12 -10 -2
-20 3 -22 10 -3 7 1 10 10 6 8 -3 18 0 23 7 5 8 3 10 -6 4 -10 -6 -12 -4 -7 8
4 10 2 16 -5 14 -6 -1 -13 4 -15 11 -3 6 0 12 6 12 6 0 11 5 11 11 0 8 -5 8
-15 -1 -18 -15 -20 1 -2 19 10 11 8 11 -11 2 -19 -10 -21 -15 -11 -27 6 -8 8
-14 3 -14 -4 0 1 -7 12 -16 18 -14 18 -15 -4 -4 -13 6 -28 9 -35 7 -7 -3 -1
-9 13 -15 14 -6 18 -11 10 -11 -24 -1 -41 14 -35 32 4 9 14 14 23 11 12 -4 10
0 -5 14 -25 22 -32 42 -9 23 10 -8 16 -9 21 -1 3 5 1 10 -5 10 -6 0 -8 5 -5
10 9 15 27 12 19 -2 -4 -7 -3 -9 1 -5 12 11 15 37 4 37 -5 0 -8 3 -8 8 4 21
-2 32 -13 26 -8 -5 -9 -2 -5 10 4 10 3 15 -3 11 -6 -3 -13 1 -16 9 -3 9 -10
14 -14 11 -5 -3 -9 3 -9 12 1 51 -23 77 -43 48 -16 -22 -7 -27 15 -9 12 10 19
15 15 10 -4 -5 -3 -17 3 -27 5 -11 6 -19 2 -18 -19 3 -27 -2 -15 -10 11 -7 11
-9 -1 -14 -15 -6 -18 15 -4 29 14 14 7 26 -8 14 -8 -7 -16 -9 -17 -4 0 5 -2
14 -3 19 -2 6 -3 14 -4 19 0 6 -7 2 -14 -9 -11 -14 -16 -15 -22 -5 -6 9 -4 11
5 5 10 -6 12 -4 7 8 -4 12 -1 15 14 12 27 -5 46 3 46 20 0 8 -3 13 -6 12 -3
-1 -8 3 -10 8 -2 6 -9 19 -17 29 -12 17 -11 23 4 40 9 11 11 16 5 12 -7 -4
-13 -3 -13 3 0 5 14 18 30 28 17 10 28 23 26 30 -3 8 1 10 11 6 11 -4 14 -2 9
5 -4 7 1 10 14 7 11 -2 22 1 25 6 4 5 10 7 15 4 4 -3 14 3 21 13 13 15 12 16
-3 3 -12 -9 -18 -10 -18 -2 0 6 5 11 11 11 5 0 7 6 3 13 -4 6 3 3 16 -8 13
-11 20 -15 17 -9 -4 7 0 14 8 17 10 4 12 1 8 -11 -4 -10 2 -7 14 8 18 21 23
23 37 11 18 -15 18 -15 35 14 11 18 11 18 5 -5 -6 -23 -6 -23 10 -7 10 9 22
14 27 11 6 -3 13 4 16 15 5 20 6 20 18 4 13 -17 13 -17 12 1 -2 14 5 19 25 20
14 1 25 -1 23 -4 -2 -3 0 -12 6 -20 7 -13 9 -12 9 1 0 19 26 33 35 18 4 -5 11
-7 16 -4 5 4 9 1 9 -5 0 -7 7 -5 16 4 8 9 21 13 27 9 7 -4 5 2 -3 12 -14 17
-14 18 5 8 22 -11 45 -7 45 9 0 7 -5 7 -13 -1 -10 -8 -14 -7 -14 4 0 8 4 12 8
9 4 -2 10 0 14 6 3 5 0 10 -7 10 -9 0 -9 3 2 10 20 13 30 12 30 -1 0 -5 -4 -8
-9 -5 -13 9 -7 -22 7 -36 9 -9 12 -9 12 0 0 7 -5 12 -10 12 -6 0 -3 11 6 24
10 16 21 23 31 19 9 -4 14 -2 10 3 -3 6 3 11 14 11 21 2 24 -5 8 -27 -9 -12
-10 -11 -5 5 6 18 5 19 -7 3 -9 -11 -17 -14 -23 -8 -6 6 -10 2 -11 -10 -2 -23
7 -26 25 -8 9 9 12 9 12 1 0 -7 -4 -15 -10 -18 -5 -3 -10 -12 -9 -18 0 -9 2
-8 6 1 2 6 9 10 14 6 5 -3 8 0 7 7 -2 6 3 14 10 16 6 3 10 -1 9 -9 -2 -7 -2
-10 0 -5 3 4 12 7 21 8 11 0 12 2 4 6 -6 2 -9 9 -6 15 3 5 15 2 27 -9 12 -10
19 -14 15 -9 -13 16 13 38 29 25 18 -16 29 -3 14 15 -7 8 -21 13 -31 11 -14
-3 -17 1 -13 13 4 13 2 12 -10 -3 -8 -11 -13 -23 -11 -27 3 -4 -5 -5 -16 -3
-11 2 -18 0 -15 -6 4 -5 1 -9 -5 -9 -7 0 -10 6 -7 13 2 6 9 12 15 12 5 0 14 3
18 8 4 4 0 7 -9 7 -10 0 -17 4 -17 10 0 5 8 6 18 3 15 -6 16 -5 2 13 -13 17
-13 18 0 8 19 -14 52 -14 47 0 -2 6 -13 10 -23 8 -18 -2 -18 -2 -1 8 14 9 21
7 36 -12 11 -13 23 -19 27 -15 5 4 2 12 -6 17 -8 6 -11 10 -6 10 6 0 1 7 -10
16 -18 15 -18 15 0 6 15 -7 24 -4 44 17 l24 26 -21 -29 c-12 -16 -19 -37 -16
-47 4 -11 -1 -22 -12 -28 -10 -6 -13 -11 -6 -11 6 0 15 -10 18 -21 5 -16 9
-18 15 -8 7 10 12 10 27 -2 16 -12 17 -12 6 2 -7 9 -9 19 -5 24 4 4 -3 3 -15
-4 -20 -10 -21 -9 -16 11 2 13 5 31 5 41 -1 9 4 17 9 17 6 0 7 -4 4 -10 -3 -5
-2 -10 3 -10 16 0 22 13 11 26 -7 8 -7 14 1 19 6 4 9 1 8 -7 -2 -7 3 -12 10
-10 8 1 11 -2 7 -8 -3 -5 -2 -10 3 -10 6 0 13 7 16 16 3 9 11 12 18 8 8 -5 9
-2 5 9 -4 11 2 22 15 31 24 17 28 16 32 -11 2 -10 11 -19 22 -21 16 -3 17 -1
4 7 -13 9 -13 11 2 11 9 0 19 -6 21 -12 4 -10 6 -10 6 0 1 7 6 10 12 6 7 -4
10 -1 7 7 -3 8 -13 13 -23 11 -14 -3 -15 -1 -4 10 16 18 52 -9 37 -28 -6 -8 0
-11 17 -11 14 0 28 3 31 8 2 4 11 6 20 2 9 -3 14 0 12 7 -5 19 38 22 53 3 12
-14 12 -16 0 -8 -10 6 -12 4 -7 -4 6 -9 13 -8 27 5 14 13 16 20 8 31 -7 8 -8
13 -1 13 17 0 23 -32 10 -48 -10 -13 -10 -14 0 -8 17 10 43 62 35 70 -10 10
-25 7 -18 -4 4 -6 -1 -7 -11 -3 -11 4 -13 8 -6 11 7 2 9 9 5 15 -3 7 -3 9 2 5
4 -4 14 -3 21 2 9 8 12 6 10 -7 -1 -20 82 -27 96 -8 4 6 8 1 8 -10 0 -17 2
-17 10 -5 8 12 12 13 19 2 7 -11 9 -11 14 2 4 9 13 13 22 10 8 -3 15 -1 15 5
0 6 5 11 11 11 5 0 7 -6 3 -12 -4 -7 3 -4 16 7 13 11 20 15 17 9 -13 -22 21
-23 38 -1 9 12 13 16 10 10 -4 -8 -1 -11 9 -7 9 3 14 10 13 16 -1 6 6 12 16
13 9 2 15 -1 11 -6 -3 -5 -10 -7 -15 -4 -5 4 -9 4 -9 1 0 -3 10 -10 21 -17 17
-9 20 -8 13 3 -6 11 -5 11 9 -1 9 -7 14 -18 10 -24 -4 -6 -1 -7 8 -1 21 13 80
13 72 0 -5 -8 -3 -8 8 0 8 6 24 10 37 9 12 -1 22 3 22 8 0 5 7 7 15 4 8 -4 17
-2 21 4 4 6 11 6 20 -2 12 -10 17 -9 27 0 9 10 8 11 -7 5 -18 -7 -18 -6 0 14
21 26 25 27 18 8 -6 -16 28 -27 47 -15 8 5 21 2 34 -9 15 -13 17 -14 8 -1 -15
19 19 21 38 2 13 -13 42 -6 34 7 -3 5 0 12 6 16 8 5 9 3 4 -6 -6 -10 -4 -12 8
-7 12 4 15 1 12 -15 -4 -20 -4 -20 15 -3 12 11 20 13 20 6 0 -9 5 -9 20 -1 14
7 20 7 20 0 0 -5 4 -10 9 -10 15 0 42 31 36 40 -3 5 -1 11 4 15 6 3 8 -4 6
-15 -4 -19 -2 -19 17 -5 16 11 25 12 35 3 10 -8 13 -7 13 2 0 10 3 10 15 0 13
-11 14 -10 10 3 -4 8 -1 18 6 23 7 4 10 3 6 -3 -4 -6 0 -13 8 -17 8 -3 17 0
21 6 5 7 2 8 -7 3 -8 -5 -11 -4 -6 1 12 13 57 12 50 -1 -4 -5 2 -2 13 7 16 14
23 15 34 5 10 -9 11 -9 6 1 -4 6 -3 12 3 12 5 0 11 -5 13 -11 5 -14 68 -20 68
-7 0 6 7 5 15 -2 10 -8 15 -9 15 -2 0 7 7 9 17 5 10 -4 14 -2 10 4 -3 5 0 10
8 10 8 0 15 -4 15 -9 0 -4 5 -8 11 -8 5 0 8 4 5 9 -7 11 13 9 32 -2 6 -5 12
-5 12 0 0 4 5 1 10 -7 8 -13 10 -13 10 0 0 11 3 11 12 2 15 -15 32 -16 22 -1
-4 8 -1 8 12 2 11 -6 30 -7 44 -3 14 4 33 3 42 -2 10 -5 19 -4 23 2 5 8 11 7
21 -1 8 -6 14 -8 14 -3 0 5 18 9 39 9 33 0 37 -2 28 -14 -10 -12 -9 -12 10 -3
14 8 24 9 28 2 3 -5 12 -10 18 -10 7 0 6 4 -3 10 -12 7 -10 9 7 7 12 0 19 -5
17 -9 -3 -4 18 -8 46 -8 32 0 49 4 45 10 -10 16 1 11 16 -7 12 -15 12 -16 -1
-8 -8 4 -12 4 -7 0 12 -13 37 -15 37 -2 0 6 7 2 16 -9 8 -10 13 -13 9 -6 -3 6
-3 12 2 13 4 0 18 2 31 3 13 2 25 -1 28 -6 3 -4 10 -8 15 -8 6 0 8 4 5 8 -3 5
1 9 9 9 8 0 15 -3 15 -7 0 -4 23 -7 50 -6 29 1 50 -2 50 -8 0 -7 3 -8 8 -1 6
9 27 11 42 5 18 -7 50 -5 50 3 0 5 7 4 15 -3 9 -8 15 -8 15 -2 0 11 55 10 66
-1 4 -4 13 -2 21 5 10 8 12 8 8 -4 -4 -9 0 -15 9 -15 8 0 12 6 9 15 -5 11 -2
12 14 4 11 -6 28 -9 39 -8 10 2 31 -3 46 -10 20 -10 29 -11 34 -2 5 7 3 8 -6
3 -9 -6 -11 -4 -5 4 5 9 11 9 17 3 7 -7 19 -7 35 -1 14 5 22 5 19 0 -4 -5 4
-7 16 -3 12 3 19 1 15 -4 -3 -6 3 -11 14 -11 10 -1 19 3 19 8 0 6 -5 7 -12 3
-7 -5 -8 -3 -3 6 6 10 12 9 25 -7 15 -19 18 -19 29 -4 6 9 9 10 6 4 -3 -7 -3
-13 2 -14 4 0 16 -2 26 -4 9 -2 15 1 11 6 -3 5 -10 7 -15 4 -5 -4 -9 -2 -9 3
0 5 14 9 30 9 17 0 26 -3 21 -7 -6 -3 -2 -11 9 -18 17 -10 18 -9 13 6 -6 15
-5 15 10 4 9 -8 21 -11 27 -7 5 3 10 -1 10 -9 0 -8 6 -13 13 -10 7 2 22 -4 34
-15 11 -11 23 -17 26 -15 3 3 8 -4 12 -15 3 -12 11 -21 16 -21 6 0 7 4 4 10
-3 6 1 7 10 4 14 -6 14 -8 -2 -19 -15 -11 -14 -12 9 -10 20 2 25 -1 21 -11 -3
-8 0 -14 6 -14 6 0 11 5 11 10 0 6 5 10 11 10 5 0 7 -6 3 -12 -5 -9 -3 -9 9 1
9 7 15 23 13 35 -2 11 -1 16 1 9 2 -6 10 -14 18 -17 12 -4 12 -1 3 20 -9 20
-17 24 -35 19 -13 -3 -23 -1 -23 5 0 6 4 9 9 5 5 -3 12 -2 15 3 2 4 -5 9 -16
9 -29 3 -33 10 -17 30 9 11 10 14 2 9 -7 -4 -13 -4 -14 1 0 4 -2 20 -4 35 -2
15 1 30 6 34 5 3 6 10 3 16 -4 7 -2 8 5 4 9 -6 9 -11 0 -22 -9 -11 -9 -18 -2
-25 8 -8 11 -6 10 7 -1 11 3 18 10 17 7 -2 10 3 7 11 -3 8 0 17 7 22 8 5 10 3
4 -6 -11 -17 35 -3 55 17 13 14 13 15 0 7 -12 -6 -13 -5 -3 8 7 8 9 19 5 23
-4 5 -2 5 5 2 6 -4 14 -1 16 5 4 10 6 10 6 0 1 -7 6 -10 13 -6 6 4 17 -1 24
-11 12 -16 13 -16 11 2 -1 21 -12 24 -94 26 -28 1 -50 4 -48 7 1 3 -4 12 -13
20 -14 13 -15 12 -9 -2 4 -12 2 -15 -9 -11 -7 3 -14 10 -14 15 0 6 -6 8 -13 5
-8 -3 -20 -1 -28 5 -11 8 -11 9 3 4 10 -3 20 -1 23 3 3 5 -9 8 -25 7 -17 -1
-30 2 -30 7 0 4 -4 5 -10 2 -5 -3 -10 -2 -10 4 0 11 -19 9 -39 -3 -9 -6 -12
-5 -7 2 3 6 2 13 -4 17 -5 3 -10 0 -10 -7 0 -9 -3 -9 -10 2 -5 8 -10 11 -10 5
0 -5 -13 -10 -29 -10 -16 0 -27 4 -23 9 3 5 -5 7 -16 4 -12 -4 -22 -2 -22 2 0
5 -15 7 -32 6 -18 -1 -42 5 -52 14 -11 8 -16 9 -12 3 4 -8 2 -13 -6 -14 -7 -1
-25 -2 -40 -3 -20 -2 -25 1 -20 13 4 12 0 11 -18 -4 -13 -11 -20 -15 -17 -9 4
7 -3 14 -18 16 -13 3 -26 0 -29 -6 -3 -7 -5 -7 -5 2 -1 7 -14 12 -31 12 -17 0
-30 5 -30 13 0 8 -4 7 -10 -3 -8 -13 -10 -13 -10 2 0 12 -5 15 -17 11 -12 -5
-14 -3 -8 8 7 12 6 12 -7 1 -13 -10 -17 -10 -21 2 -3 8 -14 13 -24 11 -10 -2
-22 -4 -26 -4 -5 -1 -6 -5 -3 -9 2 -4 -4 -9 -15 -9 -18 -2 -18 0 3 18 15 14
17 19 7 16 -9 -3 -22 0 -28 6 -9 9 -11 7 -5 -8 4 -11 4 -17 -1 -13 -4 4 -15 2
-24 -5 -14 -11 -15 -10 -1 7 14 18 13 19 -7 14 -14 -4 -20 -2 -17 6 3 7 -2 13
-10 13 -8 0 -13 -4 -10 -9 3 -4 -2 -8 -11 -8 -9 0 -13 5 -10 10 3 6 1 10 -4
10 -6 0 -11 -5 -11 -10 0 -6 -6 -5 -14 2 -8 7 -12 16 -10 19 2 3 -3 6 -11 6
-8 0 -12 -3 -10 -6 2 -4 -7 -11 -20 -18 -14 -6 -24 -8 -23 -4 2 22 -5 31 -27
31 -14 0 -41 7 -60 14 -36 16 -44 10 -22 -14 6 -8 2 -6 -10 4 -13 10 -20 24
-16 30 4 7 2 7 -7 -1 -9 -8 -16 -7 -31 5 -23 20 -64 25 -48 5 16 -18 4 -16
-16 3 -9 9 -27 17 -41 17 -13 0 -24 3 -24 7 0 4 -12 10 -27 13 -26 5 -26 4 -8
-9 10 -8 22 -14 26 -14 4 0 7 -9 6 -19 0 -11 -5 -17 -9 -15 -5 3 -6 10 -3 15
4 5 -5 14 -19 21 -14 6 -26 18 -26 27 0 14 -2 14 -10 1 -9 -13 -11 -13 -20 0
-8 13 -10 12 -10 -5 -1 -18 -2 -18 -10 3 -5 12 -12 22 -15 22 -4 0 -4 -4 -1
-9 3 -5 -2 -12 -11 -15 -15 -6 -32 8 -33 27 0 4 -5 7 -11 7 -5 0 -8 -4 -5 -9
3 -5 -1 -14 -8 -20 -11 -9 -16 -9 -22 0 -4 7 -3 9 4 5 15 -9 23 7 11 24 -7 12
-9 12 -9 1 0 -11 -5 -10 -24 3 -15 10 -27 12 -31 6 -3 -6 -13 -10 -21 -10 -10
0 -12 5 -8 13 5 7 0 6 -11 -3 -11 -9 -16 -10 -11 -2 4 6 3 12 -1 12 -5 0 -15
-6 -22 -12 -11 -10 -13 -10 -7 0 4 6 2 13 -3 13 -6 1 -17 2 -23 3 -7 1 -19 -5
-26 -14 -10 -13 -11 -12 -5 4 4 13 3 17 -5 12 -7 -4 -12 -3 -12 2 0 6 -7 13
-16 16 -15 6 -15 4 -3 -10 13 -16 12 -16 -9 -5 -12 6 -28 9 -34 5 -6 -4 -17 1
-25 11 -7 11 -13 13 -13 7 0 -16 -33 -15 -48 0 -9 9 -12 9 -12 0 0 -7 -5 -12
-11 -12 -5 0 -8 4 -5 9 3 5 -3 11 -13 14 -13 3 -18 0 -15 -7 3 -8 -6 -12 -25
-12 -17 0 -28 3 -25 7 2 5 12 6 22 3 14 -5 15 -4 2 5 -8 6 -23 8 -32 5 -13 -4
-18 0 -18 13 0 14 -2 15 -9 4 -5 -8 -7 -21 -4 -30 4 -14 3 -14 -5 -1 -6 8 -8
19 -5 25 4 5 2 7 -2 2 -5 -4 -19 0 -32 9 -24 15 -24 15 -12 -8 11 -21 11 -22
-4 -9 -14 11 -17 11 -17 0 0 -8 -10 0 -21 16 -18 25 -20 27 -16 8 3 -13 0 -26
-5 -30 -6 -3 -8 -2 -5 3 3 6 2 16 -3 24 -8 13 -12 12 -25 -5 -15 -20 -15 -20
-9 0 5 17 3 17 -16 -4 l-21 -25 6 27 c4 15 4 27 1 27 -3 0 -6 -5 -6 -11z
m-4617 -616 c-10 -3 -10 -10 -2 -25 8 -16 8 -19 -1 -13 -8 5 -11 3 -8 -5 2 -7
14 -15 27 -17 28 -4 62 -22 43 -23 -7 0 -10 -5 -7 -10 4 -6 11 -8 16 -5 5 3 6
-1 3 -10 -4 -8 -17 -18 -30 -21 -14 -4 -21 -11 -17 -18 3 -6 1 -6 -8 2 -18 17
-34 15 -19 -3 9 -10 9 -15 1 -15 -6 0 -11 4 -11 9 0 6 -9 8 -20 6 -11 -2 -20
1 -20 7 0 7 -6 3 -14 -7 -8 -11 -12 -24 -9 -29 4 -5 1 -6 -6 -1 -9 5 -10 10
-2 18 13 13 15 31 2 23 -9 -6 -8 17 4 52 4 12 12 22 17 22 5 0 6 -4 3 -10 -3
-5 1 -10 10 -10 9 0 14 4 11 9 -3 4 1 17 9 27 17 23 20 43 3 26 -7 -7 -16 -12
-21 -12 -5 0 1 9 14 20 13 10 29 19 34 19 6 0 4 -3 -2 -6z m2493 -2792 c-7
-11 18 -33 27 -24 11 10 8 25 -3 18 -5 -3 -10 -2 -10 4 0 5 9 9 19 8 10 0 17
-7 14 -13 -3 -8 3 -11 14 -10 10 2 13 1 6 -1 -7 -2 -9 -12 -7 -21 4 -11 3 -13
-3 -5 -11 16 -48 -11 -37 -28 5 -8 3 -10 -6 -4 -9 5 -11 4 -6 -3 11 -18 27
-14 24 4 -2 10 3 19 11 22 8 2 11 0 8 -5 -3 -5 0 -10 8 -10 8 0 12 4 9 8 -7
12 39 7 55 -5 11 -9 13 -6 8 14 -4 14 -4 19 -1 13 3 -7 10 -13 15 -13 6 0 7 5
3 12 -4 7 -3 8 5 4 6 -4 9 -12 6 -17 -11 -17 8 -9 21 8 7 10 16 14 21 10 11
-11 -28 -39 -45 -32 -7 2 -10 0 -7 -5 3 -6 2 -10 -4 -10 -17 0 -33 -38 -19
-46 6 -4 8 -3 4 4 -3 6 1 18 10 26 27 27 36 17 12 -14 -15 -21 -27 -28 -40
-24 -10 3 -18 1 -18 -4 0 -6 -8 -9 -17 -7 -11 1 -17 10 -16 21 1 11 0 13 -3 7
-8 -18 -24 -16 -24 2 0 8 -5 15 -11 15 -5 0 -7 -6 -3 -12 4 -7 -2 -4 -14 6
-20 18 -21 21 -7 42 19 30 19 40 0 24 -10 -9 -15 -9 -15 -1 0 6 6 11 13 11 7
1 5 6 -6 14 -14 11 -15 15 -5 19 19 8 20 8 14 -2z m6145 -3451 c20 -17 26 -45
12 -56 -12 -8 -13 -13 -5 -18 7 -4 12 -2 12 4 0 6 5 8 10 5 6 -3 10 -11 10
-16 0 -6 -4 -8 -9 -4 -5 3 -12 -4 -16 -15 -3 -11 -11 -20 -16 -20 -13 0 -11
14 4 29 10 11 9 12 -2 6 -10 -6 -12 -4 -6 5 5 9 4 11 -3 6 -6 -4 -21 -2 -33 4
-11 7 -23 9 -27 6 -8 -9 2 -16 28 -21 26 -5 40 -15 21 -15 -7 0 -9 -4 -6 -10
3 -5 2 -10 -4 -10 -6 0 -8 -6 -5 -14 3 -8 -3 -19 -14 -25 -17 -9 -20 -8 -18 7
2 11 -8 22 -27 30 -38 16 -39 15 -25 -7 7 -11 16 -17 22 -14 5 4 6 1 1 -7 -6
-10 -12 -7 -26 11 l-18 24 -23 -21 c-30 -27 -48 -37 -48 -27 0 4 14 16 31 25
17 10 27 23 24 29 -5 6 -12 4 -20 -8 -7 -10 -17 -15 -21 -10 -4 4 -2 7 4 7 7
0 12 5 12 11 0 6 -7 9 -15 5 -8 -3 -15 0 -15 5 0 6 9 9 20 6 25 -6 48 19 32
35 -9 9 -12 8 -12 -5 0 -9 -4 -17 -10 -17 -5 0 -7 6 -4 14 4 11 0 13 -18 9
-13 -3 -21 -3 -18 0 28 31 97 4 70 -28 -5 -6 -7 -15 -3 -18 9 -9 23 -9 22 1
-4 21 2 33 14 29 6 -2 20 10 30 27 15 26 17 27 11 6 -6 -22 -5 -23 10 -11 11
9 16 10 16 2 0 -18 54 -7 58 11 4 19 -53 62 -68 53 -13 -8 -9 15 5 31 7 8 15
4 29 -15 11 -14 23 -28 27 -31z"/>
<path d="M3935 6975 c17 -14 33 -25 38 -25 4 0 7 -5 7 -11 0 -5 -4 -8 -9 -4
-5 3 -12 -3 -15 -13 -4 -11 -17 -24 -30 -30 -15 -7 -23 -18 -22 -29 3 -21 21
-20 21 1 0 8 4 18 8 23 5 4 8 4 6 -2 -4 -18 13 -45 25 -38 6 3 0 -6 -13 -20
-21 -24 -22 -27 -7 -33 9 -4 20 -4 23 0 4 3 0 6 -7 6 -8 0 -4 8 9 19 13 11 28
18 35 15 10 -4 12 3 9 23 -5 33 -5 38 0 81 4 24 2 30 -8 22 -8 -7 -22 -2 -45
15 -44 32 -64 32 -25 0z"/>
</g>
</svg>
