<?xml version="1.0" standalone="no"?>
<!DOCTYPE svg PUBLIC "-//W3C//DTD SVG 20010904//EN"
 "http://www.w3.org/TR/2001/REC-SVG-20010904/DTD/svg10.dtd">
<svg version="1.0" xmlns="http://www.w3.org/2000/svg"
 width="1024.000000pt" height="1024.000000pt" viewBox="0 0 1024.000000 1024.000000"
 preserveAspectRatio="xMidYMid meet">
<metadata>
Created by potrace 1.16, written by Peter Selinger 2001-2019
</metadata>
<g transform="translate(0.000000,1024.000000) scale(0.100000,-0.100000)"
fill="#000000" stroke="none">
<path d="M3950 9975 c0 -12 -5 -15 -16 -11 -12 5 -15 2 -10 -10 4 -12 2 -15
-9 -10 -8 3 -15 1 -15 -4 0 -6 -6 -9 -12 -7 -7 1 -14 -8 -16 -20 -2 -12 -12
-25 -22 -28 -12 -4 -17 -12 -13 -22 5 -11 3 -14 -6 -8 -10 6 -11 3 -2 -14 7
-12 8 -21 4 -20 -26 4 -47 -2 -34 -10 11 -7 9 -10 -7 -15 -12 -4 -24 -16 -27
-27 -4 -10 -10 -17 -15 -14 -5 3 -8 -3 -8 -12 0 -10 -3 -26 -7 -35 -4 -11 -3
-18 4 -18 8 0 9 -5 1 -19 -8 -16 -6 -20 8 -24 15 -4 14 -5 -2 -6 -20 -1 -20
-1 0 -17 10 -8 14 -13 7 -10 -6 4 -14 2 -18 -4 -3 -5 -1 -10 5 -10 6 0 8 -5 5
-10 -4 -6 -12 -7 -18 -3 -9 5 -9 3 -1 -8 6 -8 11 -28 9 -46 -1 -20 4 -34 12
-37 8 -3 11 -10 8 -16 -3 -5 -1 -10 4 -10 14 0 14 13 -1 28 -8 8 -8 12 -1 12
20 0 25 -34 7 -47 -11 -8 -13 -13 -5 -13 7 0 9 -4 6 -10 -6 -9 8 -14 28 -11 5
1 5 -4 1 -11 -13 -20 -11 -45 2 -45 15 0 14 18 -1 29 -15 12 7 10 25 -2 8 -5
10 -10 5 -10 -19 0 -15 -40 3 -41 14 0 13 -2 -3 -9 -11 -5 -14 -9 -7 -9 6 -1
12 -6 12 -12 0 -5 -5 -7 -12 -3 -8 5 -9 2 -5 -9 3 -9 0 -23 -8 -31 -12 -12
-10 -16 15 -26 17 -7 30 -17 30 -22 0 -5 -4 -7 -9 -3 -5 3 -13 -4 -16 -16 -4
-11 -9 -18 -12 -16 -2 3 1 15 7 27 11 20 10 21 -12 15 -12 -4 -23 -8 -24 -9
-1 0 -6 -9 -11 -20 -7 -12 -13 -15 -17 -7 -4 6 -2 11 3 11 6 0 11 6 11 13 -1
6 -9 2 -19 -10 -11 -13 -28 -23 -40 -23 -11 0 -23 -4 -26 -10 -4 -6 1 -7 12
-3 23 8 15 -1 -16 -17 -15 -8 -21 -8 -17 -1 11 18 -5 13 -21 -6 -8 -10 -12
-12 -8 -6 4 9 1 11 -10 7 -9 -4 -14 -13 -10 -21 3 -11 1 -13 -10 -9 -9 3 -15
0 -15 -9 0 -8 5 -15 12 -15 6 0 8 -3 5 -6 -4 -4 -13 -1 -21 5 -13 11 -15 9
-11 -8 2 -12 -1 -21 -7 -21 -6 0 -8 -3 -5 -6 3 -4 2 -16 -4 -27 -6 -10 -7 -17
-2 -14 5 3 10 -3 10 -14 1 -13 -5 -19 -19 -19 -12 0 -18 -3 -14 -7 4 -5 12 -8
18 -8 6 0 12 -8 14 -17 2 -15 -1 -16 -19 -6 -21 11 -21 10 -7 -8 8 -10 20 -22
25 -26 6 -5 3 -8 -7 -8 -9 0 -18 3 -21 8 -2 4 -2 2 -1 -5 2 -6 -4 -17 -11 -23
-12 -10 -12 -17 -3 -34 10 -19 10 -20 -5 -8 -14 12 -16 11 -12 -7 2 -12 0 -19
-6 -16 -13 9 -11 -9 4 -24 10 -11 8 -12 -8 -4 -31 16 -53 3 -24 -14 13 -7 17
-13 9 -12 -29 3 -40 -1 -37 -13 1 -7 -4 -12 -10 -11 -7 2 -13 -6 -13 -16 0
-11 6 -22 13 -25 6 -3 -1 -3 -18 0 -22 4 -26 3 -16 -4 24 -17 23 -44 -1 -31
-15 8 -19 8 -14 0 4 -6 2 -11 -4 -11 -6 0 -9 -4 -5 -9 7 -12 -29 -33 -40 -23
-5 4 -6 0 -3 -9 6 -15 -28 -46 -44 -41 -4 1 -5 -5 -2 -12 7 -18 -14 -58 -27
-51 -5 4 -9 1 -9 -5 0 -6 -4 -9 -9 -6 -5 3 -8 -7 -7 -23 2 -23 -2 -28 -16 -26
-11 3 -16 0 -12 -7 4 -6 -4 -20 -17 -30 -13 -11 -18 -17 -11 -13 6 3 12 1 12
-4 0 -6 -7 -11 -15 -11 -8 0 -19 -9 -25 -20 -6 -11 -16 -18 -21 -14 -7 4 -6
-3 1 -16 7 -12 8 -20 2 -16 -5 3 -12 -3 -15 -14 -3 -11 -11 -19 -19 -17 -7 2
-10 2 -5 0 13 -8 7 -23 -9 -23 -14 0 -14 -3 -4 -15 11 -13 10 -14 -2 -10 -19
7 -42 -20 -32 -37 5 -10 4 -10 -6 -1 -11 10 -18 6 -35 -17 -12 -16 -25 -27
-28 -23 -4 3 -7 -1 -7 -10 0 -9 -5 -17 -11 -17 -23 0 -48 -44 -36 -65 9 -17 8
-18 -5 -7 -13 10 -17 10 -22 -3 -3 -9 -2 -13 4 -10 6 3 10 -1 10 -10 0 -9 -4
-14 -9 -11 -8 5 -24 -29 -22 -46 0 -4 -6 -5 -15 -1 -16 6 -16 -17 1 -29 6 -4
2 -8 -7 -8 -10 0 -18 -7 -18 -16 0 -8 5 -12 10 -9 6 3 10 4 10 1 0 -3 -12 -12
-27 -20 -16 -8 -22 -15 -15 -16 6 0 12 -5 12 -11 0 -5 -4 -8 -9 -5 -9 6 -23
-28 -24 -56 0 -10 -5 -14 -15 -11 -12 5 -12 3 -2 -18 13 -23 12 -23 -5 -9 -12
10 -16 10 -11 2 4 -7 1 -24 -9 -39 -9 -14 -13 -23 -7 -19 10 6 26 -23 17 -32
-3 -3 -5 0 -5 6 0 7 -5 12 -11 12 -5 0 -7 -5 -4 -10 4 -6 2 -17 -5 -25 -8 -10
-8 -19 -1 -33 12 -23 5 -33 -17 -24 -15 5 -15 4 -3 -11 12 -15 11 -17 -5 -17
-15 0 -16 -2 -5 -9 9 -6 10 -10 2 -12 -15 -5 -23 -47 -10 -54 12 -8 12 -25 -2
-25 -5 0 -7 5 -3 12 4 7 3 8 -4 4 -6 -4 -8 -14 -5 -23 5 -12 3 -14 -8 -8 -11
7 -12 6 -2 -6 8 -9 9 -20 3 -29 -15 -23 -12 -34 5 -20 8 7 12 17 8 23 -4 6 -1
7 7 2 10 -6 7 -13 -13 -30 -24 -22 -25 -24 -9 -46 15 -22 15 -23 0 -11 -11 9
-18 10 -23 2 -3 -5 -1 -10 5 -10 6 0 8 -5 5 -10 -4 -6 -10 -8 -15 -5 -4 3 -6
-3 -3 -14 3 -10 0 -22 -6 -25 -6 -4 -11 -12 -11 -17 0 -6 4 -8 8 -5 5 3 9 -1
9 -9 0 -8 -4 -12 -9 -9 -4 3 -8 0 -8 -6 0 -6 -5 -8 -12 -4 -10 6 -10 4 0 -8 7
-8 9 -24 6 -34 -6 -18 -6 -18 8 -1 13 18 14 17 14 -2 0 -11 -3 -18 -6 -16 -3
2 -12 0 -20 -6 -12 -7 -9 -9 10 -10 17 -1 19 -3 8 -6 -10 -2 -18 -9 -18 -14 0
-6 6 -7 13 -2 6 4 4 -6 -7 -21 -10 -16 -13 -25 -7 -22 15 10 14 -7 -1 -23 -11
-12 -10 -13 6 -7 20 7 20 7 0 -15 -10 -12 -13 -19 -5 -14 9 5 12 3 9 -6 -3 -8
-11 -13 -17 -11 -7 1 -10 -2 -6 -8 3 -6 11 -7 18 -3 6 3 1 -7 -11 -23 l-21
-31 22 -22 c16 -15 17 -20 6 -16 -15 5 -16 0 -13 -40 4 -36 2 -45 -8 -39 -7 4
-6 -1 4 -12 14 -16 14 -21 2 -32 -14 -13 -10 -37 5 -28 3 3 7 -4 7 -14 0 -10
-3 -17 -7 -14 -13 7 -17 -20 -6 -41 7 -14 6 -20 -3 -23 -8 -3 -5 -10 11 -19
13 -8 17 -12 8 -10 -13 4 -15 -1 -13 -24 3 -21 0 -28 -8 -23 -8 5 -8 3 -2 -7
5 -8 10 -27 10 -44 3 -65 4 -70 12 -57 5 7 8 -6 8 -32 -1 -24 -5 -42 -10 -39
-5 3 -6 0 -4 -8 3 -8 1 -23 -5 -34 -9 -18 -9 -19 7 -6 15 13 17 12 12 -13 -4
-23 -2 -27 12 -21 13 5 14 3 5 -6 -13 -13 -37 -3 -28 12 4 5 2 9 -3 9 -6 0
-13 -8 -16 -17 -6 -15 -9 -15 -17 -3 -9 12 -10 12 -5 -2 5 -18 -25 -43 -38
-31 -3 3 -6 0 -6 -9 0 -8 -10 -20 -22 -27 -23 -11 -23 -11 -1 -6 15 4 25 0 33
-15 7 -13 7 -20 0 -20 -5 0 -10 7 -10 15 0 8 -3 15 -8 15 -13 0 -31 -38 -27
-59 2 -14 -1 -18 -11 -14 -18 7 -18 13 2 41 8 12 11 22 5 22 -5 0 -15 -13 -23
-30 -12 -27 -20 -34 -40 -32 -3 1 -12 -6 -20 -15 -9 -12 -9 -15 0 -9 6 4 12 2
12 -3 0 -6 -9 -11 -19 -11 -11 0 -23 -5 -27 -12 -5 -7 -2 -9 7 -4 8 4 6 1 -3
-7 -23 -18 -23 -22 2 -24 11 -1 18 2 15 8 -4 5 -2 9 3 9 6 0 12 -6 15 -14 4
-9 -2 -13 -19 -12 -13 1 -25 -3 -26 -9 -2 -12 -24 -35 -33 -35 -3 0 2 11 11
25 10 15 12 25 5 25 -6 0 -11 -7 -11 -15 0 -8 -4 -15 -9 -15 -9 0 -24 -38 -22
-53 1 -5 -3 -6 -8 -3 -5 3 -14 -1 -21 -9 -7 -8 -16 -15 -21 -15 -5 0 5 13 22
28 24 22 29 31 19 37 -8 5 -11 4 -6 -3 8 -13 -59 -56 -74 -47 -6 4 -7 -1 -3
-11 5 -13 3 -15 -7 -9 -9 6 -11 4 -5 -5 6 -10 4 -12 -8 -7 -10 4 -18 -1 -22
-13 -3 -10 -15 -22 -26 -25 -11 -4 -19 -12 -18 -18 3 -20 -12 -47 -23 -41 -6
4 -7 -2 -3 -16 6 -19 4 -22 -11 -16 -18 6 -18 5 0 -9 19 -15 19 -15 -5 -16
-13 0 -18 -3 -11 -6 6 -2 12 -9 12 -15 0 -6 -6 -8 -13 -5 -10 4 -13 -3 -12
-24 1 -17 -3 -33 -8 -36 -6 -3 -7 -1 -3 5 3 6 2 13 -3 17 -6 3 -8 -5 -5 -20 2
-14 1 -25 -4 -25 -5 0 -14 -11 -20 -25 -7 -15 -8 -25 -2 -25 6 0 10 -7 10 -15
0 -8 5 -15 12 -15 6 0 9 -2 6 -5 -8 -8 -39 6 -33 14 2 4 -3 8 -11 8 -11 0 -10
-5 6 -22 22 -24 25 -35 9 -35 -5 0 -7 5 -4 10 3 6 1 10 -4 10 -15 0 -14 -13 2
-29 10 -11 8 -11 -13 -1 l-25 13 19 -22 c11 -12 21 -32 23 -44 2 -17 1 -19 -6
-7 -5 8 -8 17 -5 21 10 16 -15 18 -27 2 -9 -10 -9 -14 -2 -10 16 10 35 -26 23
-41 -7 -9 -7 -9 2 -2 19 16 23 12 25 -20 1 -17 -2 -28 -7 -25 -5 3 -7 -4 -4
-15 2 -11 6 -29 8 -40 3 -12 1 -18 -5 -15 -5 4 -7 10 -4 15 3 4 -3 14 -12 21
-15 12 -16 12 -8 -1 15 -25 17 -52 3 -44 -9 5 -8 2 1 -9 12 -15 12 -17 -4 -11
-12 5 -16 4 -11 -4 4 -6 1 -20 -6 -31 -9 -15 -9 -23 1 -34 8 -11 9 -17 1 -22
-6 -4 -9 -1 -8 6 2 6 -3 14 -11 17 -9 3 -11 0 -6 -8 6 -10 4 -12 -7 -7 -12 4
-15 0 -14 -18 3 -18 -1 -22 -16 -20 -17 4 -18 2 -7 -11 10 -12 9 -13 -5 -8
-19 7 -23 -25 -4 -44 9 -9 9 -12 0 -12 -7 0 -12 4 -12 9 0 5 -6 11 -13 14 -20
8 -13 -44 9 -60 18 -14 18 -15 -3 -8 -14 4 -23 2 -23 -5 0 -6 4 -9 9 -5 5 3
12 1 16 -5 3 -5 1 -10 -5 -10 -7 0 -5 -7 4 -16 19 -19 21 -31 3 -15 -10 8 -14
7 -14 -4 0 -7 3 -14 6 -13 28 3 33 -2 20 -19 -8 -9 -9 -14 -3 -10 7 4 15 0 18
-9 3 -9 12 -14 20 -11 8 3 23 -3 34 -13 19 -18 20 -18 31 3 11 21 11 21 5 -3
-6 -23 -6 -23 10 -7 10 9 22 14 28 11 7 -4 8 -2 4 5 -4 6 -12 9 -17 6 -23 -15
-6 12 19 29 15 9 19 15 9 12 -9 -3 -17 -1 -17 5 0 6 -5 7 -12 3 -7 -4 -8 -3
-4 5 4 6 12 9 17 6 9 -6 13 7 10 35 -1 11 1 12 6 3 9 -12 37 -12 49 0 4 3 -3
5 -15 2 -11 -2 -21 0 -21 6 0 5 5 9 10 9 6 0 10 5 10 11 0 5 -4 7 -10 4 -6 -3
-10 -2 -10 4 0 5 6 12 13 14 9 4 8 8 -3 17 -13 10 -13 11 2 7 18 -6 32 18 21
36 -4 7 6 4 21 -7 16 -10 26 -13 22 -8 -3 6 -1 12 6 14 8 3 4 12 -10 26 -12
12 -17 24 -12 27 6 4 10 2 10 -2 0 -5 9 -10 20 -11 43 -4 49 -6 44 -14 -3 -4
-14 -3 -25 3 -12 6 -23 8 -26 6 -2 -3 4 -10 15 -16 11 -6 22 -18 26 -28 5 -15
3 -15 -10 2 -16 19 -16 19 -10 -7 4 -16 1 -30 -6 -34 -7 -4 -8 -3 -4 4 4 7 2
12 -3 12 -18 0 -12 -18 9 -33 19 -13 19 -15 4 -21 -9 -4 -14 -9 -11 -13 4 -3
1 -13 -6 -21 -9 -13 -9 -14 0 -8 8 4 13 2 13 -4 0 -6 5 -8 10 -5 6 4 7 11 4
17 -4 7 -2 8 5 4 7 -4 9 -17 6 -29 -5 -19 -5 -20 5 -5 8 12 8 24 1 37 -8 14
-8 20 1 23 7 3 9 12 5 22 -4 9 -11 14 -17 11 -6 -3 -7 1 -4 10 6 14 8 14 19
-1 8 -12 14 -14 19 -6 4 7 2 12 -3 12 -15 0 -14 27 1 36 7 5 9 2 5 -9 -3 -8 0
-17 6 -20 8 -3 13 6 13 24 1 18 -2 26 -9 22 -6 -3 -7 -1 -3 5 4 7 2 12 -5 12
-7 0 -9 3 -6 6 4 4 12 2 20 -4 8 -7 18 -7 27 -2 13 8 12 10 -2 10 -10 0 -18 5
-18 11 0 5 6 7 13 3 6 -4 9 -4 5 1 -4 4 -1 17 7 29 18 24 19 36 4 36 -5 0 -7
-5 -4 -11 4 -6 -3 -5 -14 3 -18 11 -23 11 -31 -2 -7 -10 -10 -11 -10 -2 0 7 9
16 19 20 11 4 20 12 20 17 1 6 10 10 21 10 19 0 26 14 13 25 -4 3 -3 -1 1 -7
5 -9 2 -11 -9 -6 -23 8 0 22 29 17 11 -2 15 -2 8 2 -6 3 -9 11 -6 16 4 7 2 8
-4 4 -7 -4 -12 -2 -12 3 0 6 6 11 14 11 25 0 40 28 25 47 -10 11 -10 14 -1 9
6 -4 12 -2 12 3 0 6 0 13 0 16 1 9 47 55 56 55 5 0 5 -4 -1 -8 -14 -10 -39
-42 -33 -42 3 0 17 11 32 25 15 14 22 25 15 25 -8 0 -8 4 1 15 7 8 17 12 23 8
6 -3 7 -1 3 6 -4 6 -12 9 -17 6 -5 -4 -9 -1 -9 4 0 6 6 11 14 11 8 0 18 5 22
12 4 6 3 8 -2 5 -6 -3 -16 -2 -24 4 -12 7 -10 9 7 9 12 0 25 5 29 12 5 7 2 9
-7 4 -8 -4 -5 0 5 8 19 16 19 16 1 29 -14 11 -15 16 -5 22 8 5 11 4 7 -2 -4
-6 0 -13 8 -17 9 -3 15 1 15 10 0 11 5 14 16 10 14 -5 15 -4 5 8 -8 10 -9 16
-1 21 5 3 10 12 10 18 0 8 -3 8 -9 -2 -6 -9 -8 -4 -8 15 0 16 2 23 4 17 3 -7
11 -13 19 -13 9 0 12 -5 8 -12 -4 -7 -3 -8 5 -4 6 4 9 12 5 17 -3 6 2 19 12
30 16 17 16 22 4 29 -11 7 -7 9 14 7 19 -1 31 3 33 13 4 13 3 13 -6 0 -7 -9
-11 -10 -11 -3 0 6 5 15 10 18 6 4 8 11 5 16 -3 5 0 7 7 4 7 -3 24 5 38 16
l25 20 -25 -6 c-14 -3 -20 -3 -14 2 6 4 16 17 23 28 11 17 12 17 7 2 -4 -12
-2 -17 6 -14 7 2 12 10 10 17 -2 9 7 11 29 8 l31 -5 -23 19 c-21 17 -21 18 -3
9 12 -6 24 -7 28 -4 3 3 6 -3 6 -14 0 -12 8 -23 19 -26 14 -3 18 -11 15 -24
-3 -11 2 -27 11 -37 9 -9 12 -16 7 -16 -5 0 -9 -7 -9 -15 0 -8 4 -12 9 -9 16
10 28 -7 18 -26 -8 -15 -6 -17 13 -13 18 4 19 3 7 -6 -11 -8 -12 -11 -2 -11 7
0 11 -4 7 -9 -6 -11 30 -76 42 -76 4 0 6 -8 5 -19 -3 -13 0 -16 10 -10 10 6
11 5 1 -8 -15 -18 -5 -32 12 -18 9 8 12 4 10 -15 -2 -18 2 -25 13 -26 14 0 13
-2 -3 -9 -19 -8 -19 -9 -1 -9 13 -1 17 -6 13 -22 -4 -16 -3 -18 8 -9 10 9 13
5 11 -20 -1 -16 2 -36 7 -43 6 -8 7 -6 3 6 -3 11 -2 16 4 12 6 -3 10 -12 10
-20 0 -7 3 -15 8 -18 4 -2 1 -2 -5 -1 -17 4 -16 1 6 -24 10 -12 22 -18 26 -14
4 4 2 -4 -4 -16 -7 -13 -10 -26 -7 -30 3 -3 6 0 6 7 0 9 4 9 14 -1 8 -7 12
-21 10 -31 -2 -14 0 -16 9 -8 10 7 13 5 14 -10 1 -12 -3 -17 -9 -13 -7 4 -8 2
-4 -4 4 -6 13 -9 21 -5 11 4 13 1 9 -11 -4 -11 2 -19 17 -25 13 -5 32 -18 43
-30 10 -11 23 -18 27 -15 5 3 6 -2 3 -11 -8 -19 15 -67 28 -59 4 3 8 -1 8 -10
0 -8 -5 -16 -12 -18 -7 -3 -5 -7 6 -11 10 -4 15 -3 11 3 -3 6 -2 10 3 10 5 0
12 -14 16 -31 4 -20 10 -28 17 -23 8 4 9 3 5 -4 -4 -6 -1 -22 6 -34 7 -13 11
-27 10 -32 -2 -5 4 -3 13 4 8 7 18 10 22 6 3 -3 1 -6 -5 -6 -7 0 -12 -7 -12
-16 0 -8 5 -12 10 -9 6 3 10 -3 10 -14 0 -12 5 -21 11 -21 6 0 9 -7 6 -14 -4
-10 -1 -13 7 -10 7 3 13 -1 14 -8 4 -46 19 -71 39 -63 13 4 14 3 3 -10 -10
-13 -9 -15 7 -15 15 0 19 -6 17 -30 -2 -26 0 -28 17 -19 11 5 19 6 18 2 -4
-22 2 -34 14 -27 8 5 8 2 -2 -9 -12 -15 -11 -17 2 -17 11 0 14 -5 10 -17 -4
-10 -2 -14 4 -10 5 4 15 -5 22 -19 6 -15 16 -22 23 -18 7 4 8 3 4 -4 -4 -6 2
-19 13 -29 11 -9 17 -21 14 -26 -3 -6 -1 -7 5 -3 7 4 12 1 12 -6 0 -9 3 -9 10
2 7 11 8 6 5 -18 -2 -18 0 -30 5 -27 4 3 11 -2 14 -11 4 -10 2 -13 -6 -8 -7 4
-1 -8 12 -26 13 -18 17 -30 9 -25 -12 8 -12 7 0 -9 13 -15 13 -19 0 -27 -11
-8 -9 -9 7 -5 21 6 22 5 26 -43 2 -12 8 -17 17 -13 9 3 12 1 7 -6 -4 -7 -1
-12 8 -12 8 0 18 -5 22 -12 4 -7 3 -8 -4 -4 -19 11 -14 -2 8 -24 11 -11 25
-20 31 -20 5 0 7 -4 4 -10 -3 -5 2 -10 12 -10 14 0 15 -2 4 -9 -11 -7 -9 -10
8 -16 12 -3 19 -10 16 -14 -2 -5 7 -19 20 -31 14 -13 25 -29 25 -36 0 -7 9
-16 20 -19 11 -4 18 -10 15 -15 -3 -5 -1 -11 5 -15 6 -4 8 -10 5 -15 -3 -5 4
-11 15 -15 11 -4 18 -10 15 -15 -3 -4 7 -15 20 -24 14 -9 23 -21 20 -26 -4 -6
1 -10 10 -10 11 0 15 -5 11 -16 -3 -8 -2 -12 4 -9 6 3 10 1 10 -4 0 -6 8 -11
18 -12 9 0 12 -3 5 -6 -12 -4 27 -53 43 -53 4 0 13 -8 21 -17 8 -10 12 -12 8
-6 -4 9 -1 11 9 7 9 -3 13 -10 10 -15 -3 -5 2 -9 11 -9 9 0 19 -9 22 -20 3
-11 9 -17 14 -14 5 3 9 -1 9 -9 0 -8 8 -21 18 -28 14 -11 15 -11 5 1 -7 8 -13
19 -13 24 0 6 8 -1 17 -14 10 -14 17 -29 15 -34 -2 -5 5 -3 14 5 12 9 15 9 10
2 -4 -7 -2 -13 3 -13 6 0 11 -7 11 -15 0 -9 6 -12 17 -8 11 4 14 3 9 -5 -4 -7
-1 -12 8 -12 18 0 67 -46 58 -55 -4 -3 1 -3 11 1 12 4 17 1 17 -10 0 -9 7 -16
16 -16 9 0 12 -5 8 -12 -4 -6 -3 -8 3 -5 6 4 21 -2 34 -14 12 -11 29 -17 36
-14 8 2 11 0 8 -5 -3 -6 1 -13 9 -16 9 -3 13 -11 9 -17 -4 -6 0 -8 10 -4 10 3
17 2 17 -3 0 -6 10 -10 23 -10 15 0 18 -3 9 -9 -10 -6 -4 -12 20 -24 18 -9 32
-18 31 -21 -7 -15 -2 -26 11 -26 8 0 17 -7 20 -16 3 -8 10 -12 16 -9 6 3 10
-4 10 -17 0 -18 2 -20 10 -8 8 12 10 12 10 1 0 -20 108 -124 120 -116 6 4 10
3 9 -2 -4 -25 3 -35 21 -30 17 4 18 2 8 -16 -6 -12 -7 -19 -3 -15 11 11 48
-29 40 -43 -6 -8 -4 -10 5 -4 15 9 63 -43 53 -59 -4 -6 1 -5 10 3 15 12 17 12
11 -4 -5 -13 -4 -16 4 -11 7 4 12 2 12 -3 0 -6 7 -11 15 -11 8 0 14 -3 13 -7
-4 -20 15 -41 30 -35 15 5 15 4 3 -11 -12 -15 -12 -17 3 -11 11 4 16 1 16 -14
0 -12 9 -22 21 -25 15 -4 20 -11 15 -22 -3 -9 -2 -13 4 -10 6 3 10 1 10 -5 0
-6 4 -9 9 -6 5 3 12 -1 15 -10 3 -9 12 -14 20 -11 10 4 12 0 9 -14 -5 -18 6
-24 31 -20 5 1 3 -6 -5 -15 -9 -12 -10 -15 -1 -10 7 4 15 1 18 -8 3 -9 10 -14
14 -11 4 3 11 -2 14 -11 3 -8 2 -12 -4 -9 -6 3 -10 1 -10 -4 0 -6 7 -11 16
-11 18 0 46 -25 37 -34 -4 -3 1 -6 11 -6 9 0 14 -4 11 -10 -3 -5 -1 -10 5 -10
6 0 8 -5 5 -10 -3 -6 -1 -10 5 -10 6 0 8 -5 4 -13 -5 -7 -2 -7 10 2 9 8 16 10
15 5 -4 -22 2 -34 17 -34 11 0 14 -6 10 -22 -3 -13 -3 -18 0 -11 4 10 8 10 19
0 7 -7 11 -15 9 -19 -2 -4 5 -13 16 -21 11 -7 17 -17 13 -20 -3 -4 -1 -7 6 -7
7 0 10 -4 6 -9 -3 -6 3 -8 14 -6 15 3 18 -1 14 -18 -4 -18 -3 -19 6 -7 9 13
11 12 11 -6 0 -11 11 -26 24 -34 16 -8 22 -18 18 -29 -5 -14 -4 -14 11 -2 15
12 17 12 11 -4 -5 -13 -4 -16 4 -11 7 4 12 1 12 -9 0 -21 25 -46 36 -37 5 4 2
-1 -6 -11 -15 -20 7 -22 23 -2 5 6 5 0 2 -12 -5 -17 -2 -23 10 -23 9 0 13 -4
10 -10 -3 -5 -1 -10 5 -10 6 0 8 -5 4 -12 -5 -7 -2 -9 9 -5 11 4 14 2 10 -9
-3 -8 1 -14 11 -14 9 0 13 -6 10 -14 -7 -17 26 -57 39 -49 6 3 7 1 3 -5 -3 -6
4 -18 16 -27 20 -13 21 -17 8 -26 -13 -10 -13 -10 0 -7 17 5 52 -27 42 -38 -4
-4 2 -4 12 0 16 6 17 4 6 -9 -11 -14 -10 -17 9 -22 17 -4 19 -8 9 -14 -10 -7
-8 -9 6 -9 11 0 16 -3 13 -6 -9 -9 12 -46 23 -39 5 3 11 1 15 -4 3 -5 -3 -14
-12 -20 -16 -9 -15 -10 7 -11 17 0 21 -3 12 -9 -10 -6 -9 -11 4 -22 15 -12 17
-12 9 0 -5 10 -4 12 3 7 9 -5 9 -13 2 -26 -9 -16 -7 -18 11 -15 15 3 18 1 11
-8 -11 -13 10 -52 21 -40 4 3 7 -1 7 -10 0 -9 5 -17 11 -17 5 0 8 -4 5 -9 -3
-5 1 -11 9 -15 8 -3 15 -13 15 -21 0 -9 4 -14 9 -11 4 3 6 -5 4 -18 -4 -17 2
-28 18 -40 22 -15 22 -16 4 -17 -20 -1 -17 -2 23 -15 10 -3 10 -9 2 -24 -9
-16 -8 -22 5 -26 8 -3 12 -10 9 -15 -3 -5 0 -9 5 -9 6 0 10 -3 9 -8 -3 -12 13
-52 21 -52 4 0 12 5 19 12 8 8 12 8 12 1 0 -6 -7 -14 -16 -17 -8 -3 -12 -10
-9 -16 4 -6 11 -8 16 -5 13 9 11 -9 -3 -23 -9 -9 -8 -12 6 -12 9 0 14 -4 11
-10 -3 -5 -1 -10 6 -10 6 0 9 -8 6 -20 -6 -22 8 -28 16 -7 3 6 6 1 6 -13 1
-49 5 -60 18 -60 8 0 11 -4 8 -10 -3 -5 -2 -10 3 -10 5 0 8 -13 7 -30 -1 -16
1 -27 6 -24 5 3 6 10 3 16 -5 7 -2 8 5 3 7 -4 10 -16 8 -27 -3 -11 0 -21 9
-25 8 -3 14 -14 14 -25 0 -11 8 -27 18 -36 10 -10 13 -13 6 -9 -7 4 -15 3 -19
-3 -3 -5 0 -10 7 -10 10 0 10 -2 -1 -9 -11 -7 -11 -10 0 -15 11 -5 11 -7 2
-12 -10 -4 -9 -9 2 -21 8 -8 13 -19 10 -24 -4 -5 -1 -9 5 -9 6 0 9 -4 5 -9 -3
-5 2 -17 11 -25 8 -9 13 -16 9 -16 -3 0 0 -10 6 -22 11 -21 11 -22 -4 -10 -13
11 -15 10 -10 -7 3 -12 10 -18 16 -14 6 3 7 1 3 -6 -9 -14 12 -43 25 -35 5 3
6 -2 2 -12 -5 -15 -7 -15 -15 0 -5 9 -14 16 -20 16 -7 0 -7 -4 1 -13 6 -8 8
-17 4 -20 -6 -7 13 -11 31 -8 5 1 4 -5 -3 -13 -7 -8 -9 -21 -5 -28 6 -9 2 -9
-12 1 -10 8 -8 3 6 -11 14 -14 28 -24 31 -22 3 2 6 -3 6 -11 0 -13 -3 -13 -17
0 -14 13 -17 13 -17 0 0 -8 4 -12 9 -9 4 3 8 -2 8 -11 0 -9 -5 -13 -10 -10 -6
4 1 -10 15 -30 13 -21 23 -41 20 -45 -3 -4 2 -13 10 -20 8 -7 12 -17 8 -24 -4
-6 1 -5 10 3 10 8 20 11 24 7 3 -3 1 -6 -5 -6 -18 0 -14 -21 6 -37 9 -8 11
-12 5 -8 -9 4 -11 1 -7 -9 3 -9 11 -13 16 -10 6 4 5 -3 -1 -15 -10 -17 -9 -20
4 -15 11 4 18 -3 26 -25 6 -17 14 -30 17 -30 18 3 33 -2 29 -8 -3 -5 5 -17 16
-28 11 -11 17 -15 13 -8 -3 6 -2 15 4 18 6 4 10 3 9 -2 -3 -19 2 -31 17 -37
15 -6 15 -4 3 11 -13 17 -12 17 4 4 10 -8 16 -22 14 -33 -3 -11 0 -18 10 -18
8 0 12 4 8 9 -3 5 -2 12 3 15 4 2 9 -7 10 -22 1 -14 7 -29 13 -33 6 -3 11 -10
11 -15 0 -5 4 -8 9 -6 5 1 9 -4 9 -12 0 -8 4 -18 10 -21 6 -3 7 1 4 12 -3 11
0 9 8 -5 8 -12 17 -20 20 -17 3 4 9 -3 13 -15 6 -20 8 -20 20 -4 10 15 16 16
27 6 17 -14 29 -6 22 13 -8 20 23 12 42 -11 15 -19 15 -19 5 2 -6 12 -6 26 0
35 5 7 9 10 9 4 0 -5 8 -1 16 10 16 20 16 20 9 -2 -4 -14 -2 -23 5 -23 6 0 8
5 5 10 -3 6 -1 10 5 10 6 0 8 6 4 13 -6 9 -4 9 7 0 16 -16 49 -17 49 -2 0 5 4
8 8 5 4 -2 7 7 6 22 -2 36 -2 36 -17 23 -10 -8 -14 -7 -14 4 0 13 16 20 39 16
4 0 5 6 1 14 -4 13 -1 14 21 5 20 -7 25 -7 20 2 -5 8 -2 9 10 5 10 -4 15 -3
11 3 -3 6 -13 10 -22 10 -9 0 -14 3 -11 6 4 3 22 1 41 -4 31 -9 35 -8 30 6 -4
10 -2 13 5 8 8 -5 10 -1 5 10 -5 13 -3 15 8 9 8 -4 11 -5 7 0 -4 4 0 14 10 22
15 11 15 12 1 7 -10 -3 -20 0 -24 6 -3 6 -3 10 2 9 20 -4 29 2 29 21 0 11 -7
20 -16 21 -10 0 -9 3 5 9 11 5 14 9 8 9 -7 1 -13 6 -13 12 0 5 4 8 9 5 13 -8
7 24 -6 32 -11 8 -11 41 1 60 4 8 1 12 -9 12 -9 0 -13 -4 -10 -10 3 -5 1 -10
-5 -10 -7 0 -10 7 -7 15 4 8 2 17 -3 20 -6 4 -10 1 -10 -6 0 -7 -3 -10 -6 -6
-12 12 7 28 21 17 10 -8 14 -4 17 15 4 20 3 23 -8 14 -11 -9 -13 -4 -10 26 1
20 -1 38 -6 41 -5 3 -5 10 -2 16 5 7 2 8 -6 3 -9 -6 -12 -4 -8 7 8 19 -7 45
-16 29 -4 -6 -2 -11 5 -11 8 0 8 -4 -1 -15 -9 -10 -17 -12 -23 -6 -5 5 -17 7
-26 4 -13 -4 -14 -3 -1 5 10 8 18 8 27 0 10 -8 13 -6 10 10 -4 25 -17 42 -17
22 0 -9 -3 -10 -13 -1 -8 6 -17 8 -20 4 -4 -3 -7 -1 -7 6 0 7 7 10 18 7 14 -5
18 -1 17 21 -1 16 4 34 9 42 8 11 8 13 -2 7 -9 -5 -15 -1 -19 13 -6 22 -18 27
-28 12 -7 -12 -45 -10 -45 2 0 5 10 6 23 2 21 -6 21 -6 3 9 -17 14 -18 16 -3
16 9 0 17 -4 17 -10 0 -5 7 -7 15 -4 8 4 17 -1 21 -10 3 -9 10 -16 15 -16 18
0 -3 27 -36 44 -19 11 -33 22 -30 24 3 3 11 0 17 -6 7 -7 16 -12 22 -12 5 0
-2 9 -15 21 -18 15 -20 22 -10 28 13 9 -13 27 -33 22 -5 -1 -6 5 -2 14 4 10 2
14 -5 9 -8 -4 -9 1 -4 15 3 11 3 21 -2 22 -43 4 -54 7 -60 13 -5 4 1 6 11 4
10 -1 21 3 23 10 3 6 0 12 -7 12 -6 0 -8 4 -5 10 4 6 -1 7 -12 3 -16 -6 -16
-5 -4 10 9 12 10 17 2 17 -7 0 -10 4 -7 9 3 4 -6 7 -19 5 -14 -1 -23 2 -19 7
3 5 9 7 14 4 5 -3 7 9 5 27 -2 18 -4 33 -5 33 -7 0 -5 57 1 61 13 7 -1 34 -18
34 -12 0 -13 3 -4 14 8 10 9 16 1 21 -6 3 -7 11 -4 17 4 7 2 8 -5 4 -9 -6 -9
-11 0 -22 7 -8 7 -14 1 -14 -13 0 -24 29 -15 42 3 6 1 8 -5 4 -6 -3 -13 -2
-17 4 -3 5 0 10 7 11 7 0 0 7 -17 15 l-30 14 33 -4 c18 -2 30 0 26 5 -3 5 -9
7 -14 4 -5 -3 -14 3 -20 14 -5 11 -6 22 -2 25 13 8 8 51 -8 71 -8 9 -15 24
-17 33 -1 10 -12 25 -25 36 l-23 19 25 -7 c14 -4 20 -4 14 1 -12 8 -29 53 -26
66 1 4 -2 7 -8 7 -6 0 -9 3 -9 7 3 20 -2 34 -10 28 -6 -3 -9 7 -7 22 1 16 -2
34 -7 41 -6 8 -5 12 3 12 8 0 10 3 7 6 -4 4 -13 1 -22 -6 -21 -17 -19 -5 3 16
16 17 16 17 -6 12 -19 -5 -21 -4 -11 8 9 11 9 14 -1 14 -7 0 -10 8 -7 20 4 14
0 20 -11 20 -15 0 -15 2 -2 10 10 6 11 10 3 10 -7 0 -13 11 -13 25 0 14 -7 28
-15 31 -8 4 -12 10 -9 15 3 5 0 9 -7 9 -9 0 -9 3 0 14 7 9 8 17 2 20 -5 3 -12
0 -14 -6 -3 -7 -3 3 0 22 6 33 5 34 -12 20 -17 -14 -18 -14 -6 8 11 21 10 26
-8 43 -22 21 -28 35 -11 24 6 -3 10 -1 10 6 0 7 -10 9 -27 6 -22 -4 -25 -3
-13 6 8 7 16 18 18 26 3 12 1 12 -13 1 -14 -11 -16 -11 -13 1 2 8 -2 13 -8 12
-13 -2 -12 36 0 56 6 10 5 12 -2 7 -8 -5 -12 0 -12 13 0 12 -5 21 -11 21 -5 0
-7 -5 -3 -12 4 -7 3 -8 -5 -4 -9 6 -9 11 -1 21 8 10 7 16 -7 24 -14 8 -15 10
-3 11 13 0 13 2 0 9 -8 6 -18 7 -24 4 -5 -3 -6 -1 -2 6 4 6 13 8 19 5 9 -5 9
-3 0 6 -9 10 -15 10 -26 2 -14 -12 -27 -6 -27 12 0 6 4 5 9 -2 6 -10 10 -10
21 3 8 9 8 15 2 15 -6 0 -9 9 -7 20 2 11 -1 19 -8 17 -7 -1 -11 6 -11 15 1 10
-3 15 -9 11 -6 -4 -8 1 -5 13 4 16 -24 58 -34 49 -2 -1 -12 7 -23 18 l-20 20
23 -12 c12 -6 22 -8 22 -2 0 5 -7 12 -16 15 -14 5 -14 9 -3 23 11 13 11 17 1
21 -10 3 -10 7 0 20 7 9 8 13 2 9 -6 -4 -20 3 -30 15 -11 12 -14 18 -7 15 6
-4 15 -2 19 4 4 7 3 9 -3 6 -6 -4 -13 0 -17 8 -3 8 -13 15 -22 15 -13 0 -14 3
-5 14 9 11 8 15 -4 20 -9 3 -13 11 -9 17 4 8 3 9 -5 5 -9 -6 -9 -11 -1 -21 8
-9 8 -15 0 -20 -5 -3 -10 -5 -11 -3 -7 27 -5 41 8 53 17 18 3 20 -16 3 -11
-11 -12 -9 -3 7 8 15 6 29 -9 55 -10 19 -18 29 -19 23 0 -7 -5 -13 -11 -13 -6
0 -8 8 -5 18 3 9 -1 30 -9 46 -8 15 -15 35 -15 42 0 8 -7 14 -15 14 -8 0 -15
5 -15 11 0 5 6 7 13 4 6 -4 4 0 -6 8 -10 9 -18 18 -17 22 1 4 -2 10 -6 13 -4
4 -4 1 0 -6 4 -6 2 -12 -3 -12 -6 0 -11 7 -11 16 0 8 -4 12 -10 9 -5 -3 -10
-1 -10 5 0 6 -4 9 -8 6 -4 -2 -14 0 -22 6 -13 8 -12 9 2 5 9 -3 19 1 22 9 3 8
1 14 -5 14 -6 0 -8 4 -4 9 3 6 -4 15 -15 21 -11 6 -18 15 -15 20 3 5 -7 17
-22 27 -15 10 -36 26 -45 35 -17 17 -17 18 2 18 17 0 19 3 11 19 -6 10 -7 22
-3 26 4 3 0 5 -8 3 -10 -2 -14 3 -12 16 3 16 1 18 -11 8 -7 -6 -18 -8 -22 -4
-5 4 -5 -2 -1 -13 6 -16 5 -18 -5 -7 -10 9 -10 15 -2 23 6 6 9 18 6 25 -3 8 1
14 8 14 7 0 10 2 7 5 -13 13 -38 -7 -27 -21 9 -11 8 -14 -5 -14 -10 0 -15 4
-12 9 3 5 -1 14 -10 21 -13 12 -14 9 -9 -21 3 -23 2 -29 -4 -20 -5 8 -8 27 -6
42 2 15 -1 30 -8 32 -7 2 -4 3 6 2 9 -2 17 3 17 12 0 8 -4 12 -9 8 -6 -3 -15
5 -21 17 -11 22 -10 22 4 4 9 -11 16 -18 17 -15 0 2 2 13 4 24 2 11 -3 31 -11
45 l-15 25 22 -25 c12 -14 26 -24 32 -22 5 2 7 -4 3 -13 -3 -9 -2 -13 4 -10 6
3 10 13 10 21 0 9 5 12 12 8 7 -4 8 -3 4 4 -5 9 -13 9 -29 1 -12 -7 -19 -8
-15 -4 4 5 2 15 -5 24 -10 14 -10 14 5 3 15 -12 17 -11 15 8 -1 13 -13 28 -29
36 -15 8 -28 20 -28 28 0 20 -50 63 -58 49 -5 -8 -13 -9 -22 -3 -13 8 -12 10
2 10 9 0 20 5 24 12 4 6 3 8 -3 5 -6 -4 -21 9 -34 28 -22 32 -28 36 -45 34 -4
0 -14 11 -24 25 -9 15 -20 23 -25 19 -4 -5 -5 0 -2 10 7 19 -26 39 -50 30 -7
-3 -14 2 -14 11 -2 25 -4 30 -18 51 -10 16 -11 17 -7 2 3 -11 2 -15 -4 -12 -6
3 -10 15 -10 26 0 11 -7 19 -16 19 -8 0 -13 3 -11 8 3 4 -1 13 -9 20 -8 7 -14
9 -14 5 -1 -4 -9 1 -18 13 -10 11 -25 20 -34 18 -9 -1 -18 7 -21 17 -3 11 -14
19 -27 19 -16 0 -20 4 -16 16 3 8 2 12 -4 9 -6 -3 -10 -1 -10 4 0 6 -7 11 -16
11 -9 0 -12 5 -8 13 5 8 3 8 -9 -2 -9 -7 -14 -17 -11 -22 3 -5 0 -9 -5 -9 -14
0 -14 17 -1 25 6 3 10 14 10 22 0 14 -4 13 -20 -5 -12 -12 -26 -22 -31 -22 -6
0 -1 9 12 19 l24 19 -23 47 c-15 30 -27 45 -36 42 -10 -4 -12 0 -9 14 3 10 1
19 -4 19 -6 0 -22 11 -36 24 -24 22 -28 23 -42 10 -8 -9 -15 -11 -15 -5 0 5 4
12 9 15 13 8 -11 56 -27 56 -7 0 -10 -5 -6 -12 5 -7 3 -8 -5 -3 -9 5 -10 10
-2 18 15 15 14 28 -1 24 -8 -1 -12 6 -10 18 3 20 3 20 -11 1 -11 -15 -16 -16
-22 -6 -6 9 -4 11 5 5 10 -6 12 -4 7 9 -4 10 -7 19 -7 22 0 2 -8 0 -17 -3 -16
-6 -17 -5 -3 12 8 10 10 16 3 12 -6 -4 -15 -2 -20 6 -4 7 -19 18 -33 25 l-25
12 25 -5 c21 -5 22 -4 7 5 -9 6 -15 15 -12 21 3 5 -1 6 -11 2 -13 -5 -15 -2
-9 15 7 24 -4 29 -24 10 -9 -9 -12 -9 -7 -1 3 6 -1 18 -9 26 -8 9 -15 23 -15
31 0 9 -6 15 -12 13 -7 -1 -12 6 -12 15 1 10 -1 17 -5 16 -22 -2 -41 4 -36 12
3 6 1 10 -4 10 -6 0 -11 7 -11 15 0 8 -9 24 -20 35 -12 12 -18 25 -15 30 3 6
-1 7 -9 4 -11 -4 -16 0 -16 10 0 9 -5 16 -11 16 -5 0 -7 6 -3 13 5 7 2 7 -10
-2 -9 -8 -16 -10 -15 -5 4 21 -2 34 -27 59 -14 14 -23 29 -20 33 3 5 -1 9 -9
9 -8 0 -12 -5 -9 -11 3 -6 -1 -2 -10 8 -8 10 -13 23 -10 27 3 5 -1 9 -9 9 -19
0 -30 27 -14 34 7 2 2 5 -11 5 -14 1 -21 5 -16 12 4 8 0 8 -15 0 -18 -10 -20
-9 -14 5 5 13 3 15 -7 9 -8 -5 -11 -4 -6 3 4 6 14 8 23 5 15 -6 16 -5 3 9 -8
9 -19 13 -25 10 -5 -3 -4 2 4 12 13 15 12 17 -11 12 -20 -3 -25 -1 -23 12 2
10 4 21 4 25 1 5 5 6 10 2 5 -3 13 0 17 6 4 8 3 9 -4 5 -7 -4 -12 -2 -12 3 0
6 5 11 10 11 6 0 10 4 10 10 0 5 -8 6 -17 3 -15 -6 -16 -5 -3 9 8 9 20 13 25
10 6 -3 4 2 -4 11 -7 9 -20 17 -27 17 -8 0 -14 4 -14 9 0 5 -10 11 -22 14 -13
4 -32 13 -43 22 -11 9 -15 14 -8 11 6 -4 15 -1 19 5 4 7 3 9 -4 5 -6 -3 -17 2
-24 12 -19 28 -23 29 -44 12 -17 -14 -18 -13 -6 1 10 13 9 19 -4 30 -10 8 -19
13 -21 11 -3 -2 -8 0 -11 4 -4 4 -2 4 4 1 7 -4 18 1 25 10 12 15 12 16 -4 10
-10 -4 -16 -3 -12 2 3 5 1 13 -5 16 -8 5 -7 11 1 21 8 10 8 14 1 14 -6 0 -9 7
-6 15 4 8 -1 17 -10 21 -9 3 -16 11 -16 16 0 5 -8 17 -18 26 -10 10 -11 13 -2
7 13 -9 13 -8 1 8 -7 9 -19 17 -26 17 -7 0 -16 7 -19 16 -6 15 -4 15 11 4 10
-8 7 -2 -7 12 -14 14 -29 23 -35 20 -5 -3 -4 2 4 11 12 15 11 17 -4 17 -10 0
-16 3 -12 6 3 4 -1 13 -9 21 -8 8 -12 18 -9 23 3 5 1 11 -4 14 -5 4 -13 1 -17
-5 -5 -8 -3 -9 6 -4 9 5 11 4 6 -4 -10 -16 -26 -4 -19 14 3 8 0 15 -6 15 -6 0
-8 7 -4 17 5 12 3 14 -7 8 -10 -6 -12 -4 -7 8 3 9 1 19 -5 23 -7 5 -8 2 -3 -6
5 -9 4 -11 -3 -6 -7 4 -12 14 -12 22 0 13 -13 19 -34 15 -5 -1 -4 5 3 13 10
12 9 17 -7 27 -12 8 -18 19 -14 28 5 14 4 14 -13 1 -17 -14 -18 -13 -12 3 4
10 7 21 7 23 0 3 6 2 13 -2 9 -5 9 -4 0 6 -10 11 -16 10 -35 -6 -14 -11 -18
-13 -10 -3 6 9 8 20 4 24 -4 5 -2 6 3 2 6 -3 17 -2 25 3 12 7 10 11 -8 17 -13
5 -23 12 -22 16 1 12 -27 37 -34 30 -3 -4 -6 -1 -6 5 0 7 -7 12 -15 12 -8 0
-19 9 -25 20 -6 11 -17 20 -25 20 -7 0 -17 14 -20 31 -6 24 -9 28 -17 18 -7
-10 -8 -8 -5 8 3 13 0 21 -6 20 -6 -1 -11 3 -12 10 0 6 -10 21 -23 33 -12 12
-19 26 -16 32 4 7 2 8 -5 4 -8 -5 -16 3 -24 23 -7 18 -17 29 -24 27 -7 -3 -15
0 -19 6 -4 7 -3 8 4 4 8 -5 12 2 12 18 0 24 -10 31 -35 26 -5 -1 -6 2 -2 7 5
4 13 8 18 8 5 0 9 5 9 10 0 6 -4 10 -9 10 -5 0 -13 3 -17 7 -3 4 3 6 15 3 11
-2 21 0 21 6 0 5 -5 9 -11 9 -8 0 -8 4 0 13 7 10 7 17 0 24 -8 8 -8 17 0 32
11 21 5 27 -22 22 -5 -1 -6 3 -2 9 3 6 11 7 17 4 8 -5 9 -1 5 10 -4 10 -7 24
-7 32 0 9 -4 12 -10 9 -6 -3 -7 1 -4 9 3 9 11 13 17 9 6 -3 7 -1 3 6 -4 6 -11
9 -15 7 -4 -3 -13 4 -20 16 -7 11 -9 18 -4 15 4 -2 17 4 28 15 17 16 17 18 2
13 -10 -5 -17 -2 -17 5 0 8 11 11 30 8 23 -3 27 -2 19 8 -7 8 -6 14 2 20 8 4
9 3 5 -4 -9 -15 -1 -15 25 -2 11 7 19 7 19 1 0 -5 -5 -12 -10 -14 -6 -3 -5 -4
2 -3 7 2 13 15 13 30 -1 23 1 25 11 12 6 -9 14 -13 17 -9 4 3 7 1 7 -4 0 -6
-6 -14 -12 -16 -10 -4 -10 -6 0 -6 7 -1 15 6 18 14 4 8 10 15 16 15 5 0 6 -4
3 -10 -3 -5 -1 -10 5 -10 7 0 10 6 7 14 -3 8 2 20 11 28 9 8 13 8 9 1 -8 -13
11 -23 31 -15 6 2 12 9 12 14 0 7 -5 6 -13 -1 -10 -8 -14 -7 -14 4 0 8 4 12 9
9 4 -3 11 2 14 11 6 14 8 13 21 -5 17 -24 38 -27 29 -4 -5 12 -1 14 16 8 16
-5 20 -3 15 9 -3 9 2 21 11 29 11 9 14 10 8 1 -4 -7 -3 -13 2 -13 6 0 12 7 16
15 3 8 11 15 18 15 10 0 10 -2 -1 -9 -9 -6 -4 -8 17 -8 17 1 28 5 25 10 -2 4
-9 5 -14 2 -17 -11 -9 12 11 30 11 10 17 21 15 25 -6 9 42 6 51 -3 3 -3 -4 -8
-15 -12 -12 -3 -19 -10 -16 -15 3 -5 -4 -7 -15 -5 -11 2 -18 0 -15 -6 4 -5 10
-7 15 -4 4 3 10 -2 14 -10 8 -21 36 -7 36 18 0 18 2 19 13 5 11 -14 14 -13 29
3 14 15 14 18 2 23 -8 3 -12 2 -9 -3 3 -5 0 -13 -7 -17 -7 -4 -10 -4 -6 1 4 4
2 15 -5 23 -8 11 -8 14 0 9 6 -4 14 -1 16 5 4 10 6 10 6 1 1 -16 31 -17 31 -2
0 5 6 7 13 3 7 -5 6 0 -3 11 -10 13 -11 16 -2 11 9 -6 12 -3 10 10 -2 15 3 19
24 18 25 -1 26 1 16 20 -10 19 -10 20 6 7 16 -13 18 -13 16 0 -4 26 0 40 10
34 5 -3 6 -13 3 -23 -3 -9 -4 -15 -2 -12 33 39 42 52 32 47 -6 -4 -14 -3 -17
2 -4 5 5 8 19 6 29 -3 30 -1 9 19 -8 9 -11 16 -5 16 5 0 13 -5 16 -11 5 -6 12
-4 22 8 8 10 12 12 8 6 -3 -7 -2 -13 3 -13 5 0 12 9 15 21 3 12 10 18 16 14 6
-3 11 -1 11 6 0 6 8 9 19 6 15 -3 18 -1 14 11 -4 10 -2 13 5 8 6 -3 13 -2 17
4 4 6 10 8 15 5 4 -3 13 2 20 10 9 11 16 12 25 5 9 -8 14 -6 19 5 3 9 10 14
15 10 5 -3 12 -1 16 5 3 5 11 10 16 10 6 0 7 -5 3 -11 -3 -6 5 -4 19 5 23 16
26 16 41 1 9 -9 16 -13 16 -8 0 5 -4 13 -10 19 -9 9 1 12 48 16 7 1 11 7 8 15
-7 17 -1 17 18 -3 15 -14 16 -14 16 0 0 9 5 16 11 16 5 0 8 -4 5 -9 -4 -5 3
-7 15 -4 16 4 17 8 7 14 -9 6 -9 9 -1 9 6 0 14 -4 17 -9 3 -4 20 -7 38 -6 49
4 50 4 43 15 -3 6 1 7 9 4 9 -3 13 -11 9 -18 -3 -6 3 -3 14 7 23 20 37 23 27
5 -4 -7 2 -4 14 6 16 14 22 15 22 6 0 -9 5 -7 16 6 8 10 13 14 10 7 -8 -16 15
-22 38 -10 10 5 36 9 58 9 27 -1 36 3 31 11 -5 9 -3 9 8 2 17 -12 129 -12 148
-1 8 5 17 3 22 -5 5 -8 9 -9 9 -3 0 6 15 11 33 11 18 -1 40 2 50 6 10 4 17 2
17 -6 0 -8 4 -6 10 3 8 12 10 12 10 1 0 -11 5 -10 24 3 15 9 27 12 31 6 3 -6
15 -6 30 0 19 7 27 6 34 -8 10 -16 10 -15 11 2 0 19 0 19 22 0 12 -10 18 -13
14 -6 -9 15 10 17 19 2 5 -8 11 -8 20 0 10 8 15 8 20 -1 6 -8 10 -8 16 2 6 11
11 11 20 2 9 -9 17 -8 35 4 22 14 24 14 24 -2 0 -15 1 -15 18 1 16 16 17 16
20 1 4 -19 22 -23 22 -5 0 6 14 -4 31 -23 21 -23 28 -28 24 -14 -5 16 -4 16 7
-3 11 -17 16 -20 26 -10 7 7 12 8 12 1 0 -5 19 -11 43 -11 49 -1 67 -5 85 -15
7 -5 12 -3 12 4 0 8 4 8 15 -1 9 -7 18 -10 22 -7 3 4 12 2 20 -4 9 -9 13 -8
13 0 0 8 5 9 19 1 11 -5 27 -7 35 -4 9 4 24 0 33 -7 13 -11 15 -11 9 -1 -9 15
-2 14 124 -13 8 -2 15 -4 15 -5 0 -2 16 -5 57 -13 15 -3 33 -9 39 -13 8 -4 9
-3 5 4 -4 7 -2 12 3 12 6 0 11 -10 11 -22 0 -19 2 -20 10 -8 9 13 10 13 10 0
0 -12 2 -12 9 -2 7 11 9 11 14 -2 4 -9 14 -16 22 -16 9 0 14 -4 10 -9 -3 -6
10 -17 30 -27 19 -9 33 -20 30 -25 -3 -4 5 -17 17 -28 12 -12 18 -21 13 -21
-5 0 1 -7 13 -16 12 -8 22 -22 22 -30 0 -13 12 -19 33 -15 5 1 5 -4 1 -10 -5
-9 -2 -10 11 -5 16 6 16 4 4 -10 -13 -16 -12 -16 10 -5 15 8 21 9 17 2 -4 -6
0 -11 11 -11 11 0 25 -6 32 -12 11 -11 12 -10 6 0 -6 11 -3 12 11 5 11 -5 35
-10 54 -12 19 -1 37 -6 41 -12 3 -6 10 -11 15 -12 5 -1 8 -6 6 -10 -1 -5 2 -6
7 -3 26 16 51 -78 26 -96 -7 -5 -6 -8 0 -8 6 0 12 -12 13 -26 2 -25 25 -58 34
-49 3 3 5 -2 5 -10 0 -8 -5 -11 -11 -8 -6 4 -5 0 2 -9 7 -9 15 -29 17 -45 2
-17 8 -27 16 -25 8 1 5 -5 -5 -13 -20 -15 -20 -15 0 -15 16 0 17 -2 4 -10 -13
-9 -13 -10 0 -10 12 0 12 -2 2 -9 -11 -7 -11 -11 2 -24 17 -16 22 -32 8 -23
-11 6 -8 -21 5 -54 6 -14 9 -33 8 -42 -2 -9 3 -19 11 -22 9 -3 13 -10 10 -15
-4 -5 -3 -11 1 -14 5 -2 2 -2 -4 -1 -7 2 -13 -2 -13 -7 0 -7 -9 -9 -21 -6 -20
5 -20 5 -4 -20 10 -14 13 -23 7 -19 -5 3 -12 -1 -16 -9 -3 -8 -1 -17 4 -20 5
-3 7 -12 3 -20 -3 -8 0 -15 6 -15 6 0 10 5 8 11 -1 6 5 14 13 16 10 3 11 2 4
-4 -6 -4 -10 -18 -9 -30 1 -16 -2 -20 -10 -13 -8 7 -12 5 -12 -5 0 -8 4 -15 9
-15 4 0 8 -5 8 -11 0 -5 -3 -8 -7 -6 -5 3 -9 -6 -9 -19 -1 -15 2 -21 10 -17 6
4 5 -1 -3 -10 -12 -15 -11 -17 3 -17 13 0 16 -5 11 -20 -4 -12 -2 -20 6 -20 8
0 8 -5 -2 -17 -12 -14 -12 -16 0 -8 11 6 13 3 8 -14 -5 -19 -3 -21 11 -9 9 7
14 9 10 4 -4 -5 -1 -15 7 -23 8 -8 15 -19 15 -26 0 -6 -6 -3 -13 8 -9 12 -16
14 -21 7 -3 -6 4 -18 16 -26 12 -9 17 -16 10 -16 -6 0 -12 -9 -12 -21 0 -13
-4 -18 -12 -13 -7 4 -8 3 -4 -4 4 -6 14 -9 24 -6 15 5 15 5 -1 -6 -9 -6 -22
-8 -28 -4 -7 4 -7 -1 1 -16 7 -12 8 -20 2 -16 -5 3 -13 -1 -16 -10 -4 -9 -13
-14 -22 -10 -9 3 -12 2 -9 -5 4 -6 12 -8 19 -6 6 2 20 0 31 -5 18 -8 18 -8 -2
-4 -13 2 -26 0 -29 -5 -3 -5 -11 -6 -17 -2 -24 15 -32 10 -33 -21 l-1 -31 12
29 c8 19 15 25 20 17 4 -7 13 -10 19 -8 7 3 13 -1 13 -8 0 -6 -10 -12 -21 -11
-16 1 -20 -4 -19 -22 2 -13 -1 -21 -6 -17 -5 3 -12 1 -15 -4 -4 -5 2 -8 11 -6
11 1 17 10 16 23 -2 15 2 19 17 15 11 -3 20 -10 20 -15 0 -5 -5 -6 -10 -3 -6
4 -10 3 -9 -2 4 -15 -13 -43 -22 -37 -5 3 -16 1 -25 -4 -12 -6 -7 -9 19 -8 22
1 33 5 30 13 -7 18 36 38 51 23 8 -8 7 -10 -5 -5 -10 4 -20 2 -24 -4 -3 -6 2
-11 12 -12 13 0 11 -3 -7 -10 -14 -6 -27 -10 -29 -9 -9 4 -39 -54 -34 -66 7
-19 -6 -17 -41 4 -17 10 -30 27 -31 39 -1 12 2 20 7 17 4 -3 8 0 8 6 0 6 5 8
12 4 7 -4 8 -3 4 5 -4 6 -11 9 -16 6 -5 -3 -7 4 -5 15 2 11 -1 20 -6 20 -6 0
-7 5 -3 11 3 6 9 7 13 3 9 -13 44 -17 36 -5 -3 6 -13 11 -21 11 -12 0 -12 4
-4 20 6 11 7 20 3 20 -4 0 -1 5 7 11 13 9 13 10 -1 6 -9 -3 -23 0 -30 6 -7 7
-6 3 3 -8 12 -14 14 -25 8 -35 -9 -14 -14 -7 -11 13 1 5 -3 6 -9 2 -8 -5 -7
-11 1 -21 9 -11 8 -14 -5 -14 -14 0 -15 -4 -6 -21 6 -11 9 -25 6 -32 -2 -7 -5
-5 -5 5 -1 9 -6 20 -13 24 -7 5 -9 2 -5 -8 3 -9 0 -21 -6 -28 -9 -10 -9 -11 3
-5 8 5 3 -3 -12 -18 -16 -14 -28 -33 -28 -42 0 -8 -5 -15 -11 -15 -5 0 -7 5
-3 12 4 6 3 8 -4 5 -5 -4 -8 -16 -5 -27 3 -11 0 -20 -6 -20 -6 0 -11 -6 -11
-14 0 -8 -4 -18 -10 -21 -6 -4 -7 1 -4 12 5 15 4 15 -4 3 -6 -8 -8 -18 -6 -22
10 -15 13 -51 7 -62 -11 -17 -11 -46 0 -39 6 3 7 1 3 -6 -4 -6 -2 -18 4 -26
10 -12 8 -13 -8 -10 -15 2 -19 -2 -16 -20 1 -13 -4 -26 -13 -29 -8 -3 -11 -10
-8 -16 4 -6 12 -8 18 -4 7 3 4 -1 -6 -9 -15 -12 -16 -19 -8 -36 14 -25 14 -31
0 -31 -5 0 -7 5 -3 12 4 7 3 8 -5 4 -9 -6 -9 -11 -1 -21 7 -8 9 -18 6 -23 -3
-6 1 -15 9 -22 12 -10 13 -16 4 -26 -9 -11 -9 -14 0 -14 9 0 9 -5 0 -22 -10
-18 -9 -20 5 -15 14 5 15 3 6 -13 -7 -13 -6 -22 3 -32 11 -12 15 -22 21 -53 7
-32 19 -55 29 -55 7 0 6 -4 -3 -10 -13 -9 -13 -10 0 -10 11 0 15 -9 14 -27 -1
-16 5 -40 12 -54 7 -15 10 -30 6 -34 -4 -5 -2 -5 5 -1 7 4 10 14 7 24 -5 14
-4 14 4 2 6 -8 8 -18 5 -22 -2 -5 1 -17 9 -26 12 -15 11 -16 -4 -4 -12 10 -18
10 -24 1 -4 -8 -3 -9 4 -5 11 7 17 -6 13 -28 -1 -4 6 -15 16 -23 10 -8 12 -11
4 -7 -11 6 -13 3 -6 -12 4 -10 8 -27 9 -36 0 -9 4 -14 9 -11 5 3 7 -3 5 -13
-3 -11 1 -31 8 -45 7 -15 11 -29 9 -31 -3 -3 2 -5 10 -5 12 0 12 3 2 16 -10
14 -10 14 4 4 9 -7 20 -9 25 -5 5 4 1 -3 -9 -14 -15 -18 -16 -24 -5 -35 8 -8
20 -29 27 -46 7 -18 18 -30 24 -26 6 4 8 -2 4 -16 -4 -17 -3 -20 8 -11 9 8 14
6 19 -5 4 -10 2 -14 -5 -9 -7 4 -7 -1 1 -15 6 -12 22 -27 36 -33 13 -6 24 -19
24 -30 0 -10 5 -18 10 -18 6 0 10 -7 10 -15 0 -8 5 -15 11 -15 8 0 7 -6 -2
-17 -10 -11 -10 -14 -1 -9 7 4 12 2 12 -4 0 -7 7 -10 14 -7 10 4 13 1 10 -7
-3 -7 2 -19 11 -26 8 -7 15 -9 15 -4 0 5 5 2 10 -6 8 -13 11 -13 22 -1 11 11
11 13 -1 6 -10 -5 -12 -4 -7 4 11 16 28 2 22 -18 -5 -13 -4 -13 8 2 10 14 15
15 19 5 3 -8 6 -5 7 7 l1 20 9 -20 c8 -19 9 -19 9 -1 1 15 4 16 16 6 12 -10
16 -9 21 4 3 9 11 13 17 9 6 -4 7 -1 2 7 -6 10 -11 9 -22 -5 -7 -11 -13 -13
-13 -7 0 7 0 15 0 20 0 10 21 10 42 0 10 -5 20 -4 24 4 4 6 3 8 -3 5 -6 -4
-13 3 -16 14 -3 12 -10 18 -16 14 -7 -3 -8 0 -5 9 5 13 8 13 23 -4 11 -14 20
-17 30 -11 11 7 9 10 -8 16 -12 3 -19 11 -16 16 4 5 0 9 -7 9 -10 0 -10 2 -1
8 10 6 9 14 -2 36 -14 26 -14 30 2 41 10 8 20 10 23 6 3 -5 13 -7 23 -5 9 1
15 -2 12 -6 -3 -5 -17 -7 -31 -4 -25 5 -25 4 -10 -18 9 -12 16 -27 16 -33 0
-5 -5 -3 -10 5 -8 11 -9 9 -6 -10 3 -14 5 -28 5 -32 1 -5 9 -8 19 -8 15 1 15
2 -2 12 -18 10 -18 11 5 30 13 11 19 17 13 14 -7 -3 -15 1 -18 10 -5 13 -2 15
13 11 14 -3 18 -1 14 9 -4 12 7 18 29 15 3 0 5 5 4 12 -3 23 -18 38 -33 33 -8
-4 -11 -1 -8 5 4 6 13 8 21 5 8 -3 14 0 13 7 -3 24 1 37 12 37 8 0 8 -4 0 -13
-8 -10 -7 -14 4 -14 8 0 12 4 9 9 -3 4 1 8 8 8 9 0 10 3 2 8 -6 4 -10 15 -8
25 1 9 -2 15 -7 11 -5 -3 -6 -11 -3 -17 4 -7 3 -9 -1 -4 -5 4 -10 28 -11 52
-3 50 -11 68 -24 60 -5 -3 -12 -1 -15 5 -4 6 -1 9 7 8 7 -2 12 4 12 13 -1 9 6
16 15 15 8 0 16 5 17 12 1 6 3 15 4 20 2 4 4 13 4 21 1 8 7 16 15 19 10 3 11
0 5 -9 -7 -12 -5 -12 9 0 12 10 14 17 7 26 -8 9 -6 17 4 28 13 12 13 17 0 35
-10 15 -11 23 -3 28 7 4 9 3 5 -4 -3 -6 -2 -13 4 -17 5 -3 10 -2 10 3 0 5 12
10 26 10 17 0 22 -3 13 -9 -7 -4 -17 -5 -21 -3 -4 3 -8 2 -8 -3 1 -12 26 -43
35 -43 4 0 2 6 -4 13 -11 14 -5 27 11 27 5 0 7 -4 3 -9 -3 -5 -1 -13 5 -16 6
-4 9 -1 8 7 -2 7 5 12 14 12 13 -1 15 2 9 15 -5 9 -5 25 0 36 8 18 9 17 5 -4
-3 -15 -1 -20 5 -14 5 5 10 28 11 51 1 22 4 40 7 38 3 -2 7 7 7 20 1 13 -2 21
-7 18 -5 -3 -6 2 -3 10 3 9 11 13 16 10 6 -4 7 0 1 12 -13 28 -10 54 7 64 8 5
10 10 5 10 -6 0 -11 9 -11 20 0 11 5 20 11 20 5 0 1 8 -10 17 -16 13 -17 15
-2 10 19 -7 24 9 5 16 -8 3 -5 6 6 6 17 1 17 3 3 25 -15 22 -14 23 1 22 19 -1
25 43 7 57 -6 5 0 7 13 4 18 -4 21 -3 13 7 -6 7 -7 17 -3 22 4 4 -1 2 -11 -5
-15 -12 -17 -12 -11 3 3 9 10 16 16 16 5 0 7 4 4 8 -2 4 0 14 6 22 8 12 9 12
4 -2 -3 -10 -1 -18 4 -18 6 0 10 8 11 18 0 10 3 12 6 5 2 -7 9 -13 14 -13 6 0
7 5 4 10 -4 6 -3 9 2 8 4 -1 19 3 33 10 23 12 23 12 -2 -8 -32 -25 -35 -35
-12 -44 14 -5 15 -4 5 8 -11 13 10 32 31 28 8 -2 5 19 -5 35 -6 9 -3 11 8 7
11 -5 14 -2 9 10 -3 9 -11 13 -18 10 -6 -3 -2 2 8 10 18 15 18 16 2 16 -9 0
-14 5 -11 10 4 6 11 8 16 5 5 -3 6 1 3 9 -3 9 -9 14 -13 12 -3 -3 -7 13 -7 34
-1 28 3 37 13 33 11 -4 11 0 3 22 -10 25 -9 27 5 15 14 -11 16 -11 13 1 -2 8
-7 17 -13 22 -6 4 -3 13 9 22 17 13 17 15 4 15 -9 0 -20 4 -23 10 -4 6 1 7 12
3 16 -6 17 -5 3 12 -8 10 -10 16 -4 12 18 -11 25 21 9 37 -13 12 -12 15 1 20
11 4 14 12 9 24 -11 26 -14 63 -5 57 5 -3 11 -1 14 4 4 5 2 12 -4 16 -13 8
-13 25 1 25 5 0 7 -5 3 -12 -4 -6 -3 -8 4 -5 14 9 3 49 -12 40 -8 -4 -7 -2 1
7 6 7 9 19 6 28 -5 11 -3 13 8 7 12 -8 12 -6 0 8 -7 9 -18 14 -24 10 -6 -3 -7
-1 -3 6 4 6 12 9 17 6 13 -9 11 9 -3 23 -9 9 -7 16 7 32 10 11 15 20 10 20 -4
0 -1 8 6 18 13 16 13 16 -5 2 -18 -14 -19 -13 -13 2 4 11 0 21 -11 28 -14 9
-13 10 7 4 18 -5 22 -3 15 7 -4 7 -8 22 -9 33 -1 12 -6 30 -10 41 l-8 20 17
-20 c16 -19 16 -19 7 5 -4 14 -13 25 -19 25 -6 0 -14 3 -18 7 -3 4 3 6 15 3
27 -5 27 2 -1 26 l-23 20 25 -12 25 -12 -20 23 c-11 13 -14 20 -7 16 16 -9 16
20 0 30 -7 5 -8 3 -3 -6 5 -8 4 -11 -3 -6 -6 4 -9 13 -6 21 4 8 11 12 17 8 6
-3 7 -1 3 6 -4 6 -11 9 -15 6 -5 -2 -13 7 -19 20 -9 20 -9 23 3 18 8 -3 12
-10 8 -16 -3 -6 -1 -7 6 -3 8 5 9 12 2 20 -5 6 -11 31 -12 54 -2 23 -7 42 -12
42 -5 0 -7 9 -4 21 4 14 1 19 -7 16 -17 -7 -14 27 5 49 13 16 12 16 -9 5 -22
-12 -23 -11 -12 8 6 12 7 21 1 21 -5 0 -7 10 -3 22 4 16 2 19 -8 13 -10 -6
-12 -4 -7 9 5 13 3 17 -7 13 -10 -4 -13 -1 -9 8 3 8 9 12 14 9 5 -3 6 2 3 10
-3 9 -10 16 -16 16 -5 0 -6 5 -3 10 3 6 2 10 -4 10 -6 0 -7 7 -4 17 4 11 3 14
-5 9 -12 -7 -16 4 -13 37 2 10 -5 17 -15 17 -13 0 -14 3 -5 14 9 11 9 16 0 22
-8 5 -9 3 -4 -6 5 -8 4 -11 -3 -6 -6 3 -11 14 -11 24 -1 38 -5 51 -13 46 -4
-3 -8 1 -8 10 0 22 -33 76 -47 76 -6 0 -15 5 -19 12 -5 7 -2 9 7 4 8 -4 5 0
-5 8 -11 9 -23 16 -27 16 -4 0 -11 9 -14 20 -3 11 -13 20 -21 20 -11 0 -13 6
-9 20 5 14 2 20 -10 20 -10 0 -13 5 -9 12 5 8 2 9 -10 5 -9 -4 -15 -3 -12 2 8
13 -17 61 -33 61 -8 0 -11 7 -8 20 3 11 2 18 -3 15 -4 -3 -11 2 -14 11 -3 8
-10 12 -16 9 -6 -3 -7 1 -4 9 4 11 0 16 -11 16 -9 0 -13 4 -10 10 3 5 -3 17
-14 27 -11 9 -17 21 -14 26 3 6 2 8 -3 5 -9 -6 -31 11 -30 24 1 3 -9 18 -21
32 -13 14 -20 26 -16 26 14 0 -41 50 -56 51 -12 0 -11 3 4 9 17 7 17 9 3 9
-10 1 -18 6 -18 11 0 6 -5 10 -11 10 -5 0 -7 -5 -3 -12 4 -6 3 -8 -4 -5 -5 4
-8 16 -5 27 4 15 1 18 -16 15 -11 -2 -20 1 -18 7 1 6 -8 17 -20 23 -13 7 -20
15 -16 18 3 4 1 7 -6 7 -7 0 -9 5 -6 10 4 6 3 9 -2 8 -17 -5 -53 14 -53 28 0
8 -4 12 -10 9 -5 -3 -10 3 -10 14 0 12 -9 23 -22 27 -13 4 -30 15 -39 25 -9
11 -21 19 -28 19 -6 0 -11 4 -11 9 0 5 -8 11 -17 15 -10 3 -31 15 -48 26 -16
11 -38 23 -47 26 -10 4 -18 10 -18 15 0 5 -5 9 -11 9 -7 0 -18 8 -26 18 -8 9
-12 11 -8 5 9 -18 0 -16 -20 4 -14 14 -18 14 -27 2 -8 -11 -9 -11 -5 3 8 22
-3 30 -21 15 -13 -10 -14 -9 -7 2 6 11 4 13 -8 8 -13 -5 -17 -1 -17 14 0 11
-4 18 -9 15 -5 -3 -20 3 -33 14 -20 15 -28 16 -37 7 -10 -9 -12 -9 -9 3 2 9
-4 14 -14 14 -10 -1 -18 2 -18 7 0 5 -8 9 -18 9 -10 0 -24 6 -31 13 -11 10
-12 9 -6 -3 5 -9 -1 -7 -15 5 -14 12 -20 14 -15 5 8 -13 7 -13 -8 -1 -9 7 -17
10 -17 6 0 -4 -6 -2 -14 4 -10 9 -16 9 -21 1 -5 -8 -12 -7 -23 3 -29 24 -46
32 -37 16 7 -11 6 -12 -6 -2 -8 6 -27 14 -42 17 -15 2 -32 8 -38 12 -8 5 -9 3
-3 -7 6 -10 0 -9 -18 3 -15 10 -28 13 -30 7 -2 -5 -13 -1 -26 11 -14 13 -22
16 -22 8 0 -9 -3 -9 -10 2 -5 8 -12 11 -16 8 -3 -4 -20 0 -36 8 -18 10 -27 11
-23 4 6 -9 3 -9 -11 -2 -11 6 -22 10 -26 11 -5 1 -9 1 -10 2 -23 7 -38 5 -38
-4 0 -8 -3 -9 -8 -1 -9 14 -45 27 -37 14 3 -6 1 -10 -4 -10 -6 0 -11 5 -11 12
0 6 -3 8 -6 5 -4 -3 -16 -2 -27 4 -15 9 -18 8 -12 -2 6 -9 3 -10 -11 -5 -24
10 -92 12 -100 3 -4 -3 -15 -2 -25 4 -12 6 -19 6 -19 0 0 -9 -78 -6 -88 4 -3
2 -14 -1 -25 -6 -15 -8 -22 -8 -28 2 -6 10 -9 10 -9 2 0 -6 -9 -10 -20 -8 -11
2 -20 -2 -20 -8 0 -7 -4 -6 -10 3 -9 13 -10 13 -10 0 -1 -12 -3 -12 -14 3 -12
15 -14 15 -19 2 -4 -8 -13 -12 -22 -9 -8 4 -22 1 -29 -5 -10 -9 -16 -9 -21 -1
-4 7 -11 8 -18 2 -7 -5 -22 -8 -35 -6 -14 3 -21 0 -17 -6 3 -5 1 -10 -4 -10
-6 0 -11 6 -11 13 0 7 -7 4 -15 -7 -9 -12 -15 -15 -15 -7 0 11 -3 11 -17 0
-15 -12 -16 -12 -8 1 8 13 7 13 -8 1 -11 -9 -17 -10 -17 -2 0 6 -5 11 -11 11
-5 0 -8 -4 -5 -8 3 -5 -11 -8 -30 -7 -18 1 -34 -2 -34 -7 0 -5 -4 -6 -10 -3
-5 3 -10 0 -10 -7 0 -9 -3 -9 -10 2 -5 8 -10 10 -10 5 0 -6 -15 -11 -32 -10
-18 0 -39 -7 -46 -15 -12 -13 -13 -13 -6 0 7 13 5 13 -9 2 -9 -8 -21 -11 -27
-7 -5 3 -10 1 -10 -5 0 -6 -4 -8 -10 -5 -5 3 -10 0 -10 -7 0 -9 -3 -9 -10 2
-7 11 -10 11 -10 2 0 -7 -4 -10 -10 -7 -5 3 -10 1 -10 -6 0 -7 -8 -5 -20 6
-20 18 -21 18 -14 0 6 -15 4 -17 -10 -12 -10 4 -15 3 -11 -3 3 -6 1 -10 -4
-10 -6 0 -11 4 -11 8 0 10 -30 9 -48 -2 -6 -4 -12 -2 -12 3 0 6 -5 11 -11 11
-5 0 -8 -3 -6 -7 3 -5 -1 -14 -9 -21 -8 -7 -14 -9 -14 -4 0 5 -7 9 -15 9 -8 0
-12 -4 -9 -9 3 -4 -5 -6 -18 -4 -13 2 -30 -3 -39 -10 -13 -12 -16 -12 -16 1 0
8 5 11 10 8 6 -4 7 -1 3 6 -6 9 -13 8 -27 -5 -23 -20 -46 -26 -54 -13 -3 4
-15 -1 -26 -12 -11 -11 -24 -17 -29 -14 -6 4 -7 -1 -3 -11 4 -12 3 -15 -5 -10
-7 4 -12 2 -12 -3 0 -6 -7 -11 -15 -11 -8 0 -14 -3 -14 -7 3 -20 -2 -26 -11
-13 -7 11 -10 11 -10 2 0 -7 -5 -10 -10 -7 -6 4 -10 3 -9 -2 3 -20 -2 -27 -11
-13 -6 9 -10 11 -10 3 0 -7 -7 -10 -17 -6 -12 5 -14 3 -8 -7 6 -10 4 -11 -6
-4 -8 4 -25 9 -39 10 -14 1 -27 3 -30 4 -3 1 -8 2 -11 2 -4 -1 -6 4 -6 11 1
34 -4 48 -15 41 -7 -4 -8 -3 -4 5 9 14 26 5 26 -15 0 -8 5 -14 10 -14 6 0 10
7 10 15 0 8 0 18 0 23 0 4 -4 7 -9 7 -5 0 -12 3 -16 7 -8 8 13 4 38 -7 15 -6
15 -10 5 -24 -11 -14 -11 -14 3 -3 18 14 14 56 -4 45 -6 -3 -7 -1 -3 6 6 9 11
9 24 -1 13 -11 14 -11 4 8 -9 16 -8 21 3 21 8 0 12 -4 9 -8 -2 -4 0 -11 6 -14
6 -4 9 -1 8 7 -2 7 2 12 9 11 7 -2 10 4 7 12 -4 8 -10 12 -15 9 -5 -3 -6 2 -3
10 3 9 11 13 16 10 6 -4 5 4 -2 16 -7 12 -8 20 -2 16 5 -3 12 1 16 9 3 8 0 17
-6 21 -7 5 -8 2 -3 -7 5 -8 4 -10 0 -6 -20 18 -14 37 8 25 l22 -11 -20 23
c-11 13 -14 20 -7 16 7 -5 12 -1 12 9 0 10 6 15 13 12 7 -3 21 9 30 25 14 25
15 29 3 25 -10 -4 -13 -1 -9 8 3 8 9 13 13 10 5 -3 12 -1 15 5 4 6 1 9 -7 8
-8 -2 -14 9 -16 31 -2 20 0 31 7 27 5 -4 13 -2 16 4 4 6 3 9 -2 8 -4 -2 -8 2
-8 7 0 6 4 9 8 7 5 -1 6 2 2 8 -3 6 -12 7 -18 3 -9 -5 -9 -3 0 8 10 12 10 18
0 29 -9 10 -9 11 1 6 6 -4 12 -3 12 1 0 5 -6 15 -12 22 -11 10 -9 11 7 6 17
-6 18 -5 5 7 -9 7 -16 22 -16 33 0 11 -6 19 -13 17 -7 -1 -9 2 -6 9 5 8 10 8
18 0 19 -19 27 -12 17 13 -5 13 -6 26 -3 29 3 4 5 25 5 49 -1 23 5 46 11 50 9
6 8 8 -2 8 -11 0 -10 4 3 19 18 20 7 38 -16 26 -7 -4 -5 0 5 8 15 12 16 19 8
36 -8 14 -8 22 1 27 6 4 8 3 4 -4 -3 -6 -2 -13 2 -16 12 -7 9 35 -3 54 -17 27
-14 38 9 32 20 -5 19 -4 -4 16 -18 16 -20 20 -6 16 16 -6 17 -4 8 13 -6 11 -8
23 -5 27 10 10 11 86 1 86 -4 0 -8 -4 -8 -10 0 -5 -4 -10 -8 -10 -5 0 -9 7 -9
15 0 8 4 12 9 9 4 -3 8 0 8 6 0 6 5 8 12 4 6 -4 8 -3 4 4 -3 6 -2 13 4 17 6 4
3 16 -8 33 -16 25 -16 26 1 19 9 -3 17 -2 17 3 0 6 -4 10 -10 10 -5 0 -10 7
-10 15 0 8 5 15 11 15 5 0 7 -5 3 -12 -4 -7 -3 -8 5 -4 8 6 9 12 2 20 -6 7 -8
16 -4 19 3 4 1 8 -5 8 -26 3 -31 4 -37 11 -4 3 1 5 12 4 28 -5 36 5 16 21 -10
8 -13 12 -6 9 6 -4 14 -2 18 4 3 5 -2 10 -12 10 -10 0 -14 4 -8 8 11 8 17 74
6 68 -4 -3 -7 4 -7 14 0 11 5 16 11 12 6 -4 3 0 -7 10 -23 21 -23 29 0 22 16
-5 16 -5 0 6 -18 11 -26 46 -8 35 6 -3 7 1 4 9 -3 9 -9 16 -13 16 -4 0 -7 18
-6 39 1 24 -3 37 -8 34 -6 -4 -8 5 -5 20 3 18 0 28 -11 33 -14 5 -13 7 4 14
17 7 17 9 3 9 -10 1 -18 6 -18 12 0 5 4 8 8 5 5 -3 9 1 9 9 0 8 -3 12 -7 10
-3 -2 -12 6 -20 18 -12 20 -12 21 3 8 10 -8 17 -9 17 -3 0 6 -8 16 -17 21 -10
6 -13 11 -7 11 5 0 11 19 13 42 1 23 5 46 8 51 4 6 1 7 -8 1 -20 -12 -40 -14
-33 -3 3 5 10 7 15 4 10 -7 12 6 3 30 -5 12 -9 13 -14 5 -6 -9 -13 -9 -30 2
-18 10 -24 10 -27 0 -3 -6 -10 -9 -16 -5 -6 4 -8 0 -4 -10 4 -11 2 -14 -7 -11
-14 5 -14 -34 0 -57 5 -8 3 -9 -6 -4 -10 6 -12 4 -7 -7 3 -9 0 -21 -6 -27 -6
-6 -7 -11 -2 -11 4 0 0 -9 -9 -19 -12 -13 -14 -21 -6 -26 8 -5 7 -11 -2 -23
-10 -12 -10 -14 0 -8 24 14 12 -2 -14 -19 -18 -11 -24 -12 -18 -4 6 11 5 12
-7 3 -15 -13 -82 -7 -74 6 3 5 -3 7 -12 5 -10 -1 -22 0 -28 4 -12 6 -25 9 -83
15 -23 3 -48 8 -54 12 -6 4 -8 3 -4 -4 4 -6 -6 -10 -26 -8 -18 1 -39 -2 -45
-7 -8 -6 -13 -5 -13 1 0 6 -6 9 -13 6 -8 -3 -20 2 -27 11 -7 8 -18 15 -24 15
-6 0 -4 -5 4 -10 8 -5 11 -10 5 -10 -23 0 -37 17 -20 23 14 6 14 9 0 37 -13
26 -13 29 0 24 8 -3 13 -10 10 -14 -3 -5 -1 -11 4 -14 5 -4 12 -2 15 3 4 5 2
12 -4 16 -6 4 -7 13 -1 23 6 11 6 24 0 35 -7 12 -6 17 1 17 6 0 9 3 7 8 -3 4
1 12 8 19 11 10 15 10 18 0 3 -7 6 -4 6 7 1 15 4 16 16 6 15 -12 16 -11 19 13
0 6 7 12 15 12 8 0 15 10 16 23 1 14 -4 22 -14 22 -14 0 -14 2 -1 10 13 8 13
11 1 22 -8 7 -11 8 -8 2 3 -6 0 -11 -8 -11 -11 0 -10 5 2 24 9 13 13 26 9 30
-3 3 -6 1 -6 -5 0 -7 -5 -12 -10 -12 -7 0 -7 6 0 20 8 15 8 20 -2 20 -9 0 -9
3 2 10 13 9 13 10 0 10 -13 0 -13 1 0 10 8 5 11 10 5 10 -5 0 -3 5 5 10 11 7
11 10 2 10 -7 0 -10 5 -6 12 4 7 3 8 -4 4 -8 -5 -12 4 -13 26 0 27 -2 30 -9
13 -8 -18 -9 -18 -9 -2 -1 10 -5 15 -11 12 -5 -3 -10 -1 -10 6 0 7 -7 4 -16
-7 -8 -10 -13 -14 -10 -7 4 6 2 14 -4 18 -5 3 -10 -1 -10 -10z m20 -580 c1 19
1 19 11 2 8 -13 7 -22 -3 -34 -11 -14 -10 -15 12 -9 19 5 17 2 -10 -14 -28
-17 -30 -20 -10 -15 l25 6 -25 -15 c-14 -9 -21 -15 -16 -16 5 0 3 -6 -3 -13
-6 -8 -8 -18 -4 -23 4 -5 2 -4 -6 3 -15 13 -44 6 -35 -8 3 -5 10 -6 16 -3 7 5
8 2 4 -5 -6 -9 -13 -8 -28 5 -19 18 -19 17 -15 -7 3 -16 0 -26 -7 -26 -6 0
-12 13 -11 28 0 15 3 25 7 22 5 -2 8 -2 8 1 0 2 3 13 7 23 6 16 5 16 -10 4
-11 -9 -17 -10 -17 -2 0 6 5 11 11 11 5 0 8 4 4 9 -3 5 -1 13 5 16 8 5 7 12
-2 23 -10 14 -10 15 2 5 19 -18 35 -16 21 1 -9 11 -9 16 0 22 7 4 9 3 6 -3 -4
-6 1 -14 10 -17 15 -6 15 -8 3 -16 -8 -6 -13 -10 -10 -11 3 0 13 -2 23 -4 19
-4 20 24 2 37 -6 5 -5 8 2 8 7 0 10 7 6 18 -5 14 -3 13 10 -3 l16 -20 1 20z
m200 -75 c6 10 10 11 10 3 0 -7 7 -13 15 -13 8 0 15 5 15 12 0 6 3 8 7 4 5 -4
-1 -14 -11 -22 -17 -12 -17 -14 -3 -14 10 0 14 -5 11 -15 -4 -10 0 -13 16 -10
19 4 20 2 8 -12 -9 -12 -9 -15 0 -9 6 4 12 4 13 -1 0 -4 2 -18 3 -31 4 -31
-12 -38 -34 -15 -11 13 -15 25 -9 35 5 10 4 15 -6 15 -8 0 -12 -4 -9 -9 3 -4
1 -8 -5 -8 -5 0 -11 5 -13 11 -2 5 -11 11 -20 13 -10 1 -30 13 -45 26 -16 14
-22 18 -15 10 6 -8 12 -17 12 -21 0 -7 -51 -2 -59 6 -2 2 -12 0 -21 -5 -15 -8
-17 -6 -12 12 3 13 7 17 10 10 3 -10 7 -10 18 -1 8 6 11 16 7 23 -4 8 -2 7 7
-1 7 -6 18 -9 25 -6 8 2 23 0 34 -7 12 -6 21 -7 20 -3 -4 26 1 38 11 23 9 -13
11 -13 20 0z m-105 -1311 c4 -5 11 -6 17 -3 7 5 8 2 3 -6 -6 -10 -4 -12 9 -7
11 4 15 3 11 -4 -4 -6 -14 -8 -22 -5 -11 5 -13 2 -9 -9 3 -9 2 -13 -4 -10 -6
3 -10 2 -10 -4 0 -19 19 -21 29 -4 6 10 11 13 11 6 0 -6 -5 -15 -11 -19 -8 -4
-7 -9 2 -15 22 -13 29 -11 23 9 -5 14 -4 14 4 2 14 -19 5 -32 -19 -25 -15 5
-18 3 -12 -12 3 -10 3 -15 -1 -11 -4 3 -9 14 -10 24 -2 10 -8 20 -14 22 -6 2
-9 -3 -7 -10 9 -38 18 -58 27 -58 5 0 6 -5 2 -12 -4 -7 -3 -8 5 -4 6 4 9 11 6
16 -10 16 17 22 42 9 23 -12 27 -11 43 9 l18 22 13 -33 c7 -17 13 -41 14 -51
1 -11 10 -25 19 -31 8 -7 12 -15 8 -19 -4 -4 -2 -7 3 -6 21 5 36 0 30 -10 -4
-6 -10 -8 -14 -6 -4 3 -8 -1 -8 -9 0 -8 4 -12 8 -9 4 2 10 0 14 -6 3 -5 0 -10
-8 -10 -8 0 -29 -16 -46 -35 -30 -35 -49 -47 -35 -22 4 6 -4 2 -18 -11 -20
-18 -27 -20 -32 -10 -3 7 -4 3 -2 -8 4 -22 -22 -29 -36 -9 -4 6 -8 -1 -8 -15
0 -20 -2 -22 -10 -10 -7 12 -10 12 -10 1 0 -8 -6 -11 -16 -7 -14 6 -15 4 -4
-9 11 -13 11 -16 -1 -13 -8 2 -17 8 -21 13 -4 6 -8 2 -8 -9 0 -12 -5 -16 -14
-13 -11 4 -13 1 -9 -11 6 -14 4 -15 -8 -5 -13 10 -16 10 -16 -2 0 -8 5 -15 10
-15 6 0 7 -3 4 -6 -4 -4 -13 -2 -20 5 -11 9 -17 8 -27 -4 -7 -8 -17 -12 -22
-9 -6 4 -5 -3 2 -16 11 -20 10 -21 -12 -9 -20 11 -22 11 -10 -3 10 -13 10 -18
1 -24 -8 -5 -9 -3 -4 6 6 10 4 12 -9 7 -12 -5 -19 0 -26 18 -11 30 -20 33 -15
6 2 -11 -2 -25 -10 -31 -10 -9 -13 -7 -10 7 2 10 4 19 5 21 2 1 3 7 4 12 0 6
7 14 14 19 11 7 11 9 -1 14 -7 3 -13 16 -12 29 3 27 -13 50 -28 41 -5 -3 -7
-1 -3 5 3 6 -2 12 -11 14 -15 3 -14 5 4 10 14 4 21 2 20 -5 -1 -6 5 -11 13
-12 8 -1 14 -7 12 -15 -2 -8 0 -12 4 -8 4 4 14 2 23 -4 13 -10 14 -10 4 2 -15
16 -17 34 -4 26 15 -10 56 33 43 46 -8 8 -14 5 -23 -14 -12 -28 -44 -31 -44
-5 0 8 -8 24 -18 34 -14 17 -15 20 -2 20 8 0 13 -2 10 -5 -2 -2 2 -11 10 -18
8 -8 12 -21 8 -29 -4 -11 -1 -13 11 -9 20 8 20 12 -4 52 -12 19 -15 30 -9 26
9 -5 10 -2 6 10 -4 11 -3 15 4 11 6 -4 8 -13 6 -19 -9 -23 32 -40 52 -22 10 9
21 13 26 9 4 -5 5 -2 1 5 -6 9 -11 10 -20 3 -7 -6 -17 -7 -21 -3 -5 4 -5 1 0
-7 6 -10 4 -12 -5 -6 -10 6 -7 12 11 27 18 14 20 17 5 11 -13 -4 -17 -3 -12 5
4 7 1 15 -8 18 -9 3 -13 10 -10 15 3 5 10 7 15 4 5 -3 6 1 3 9 -4 11 0 16 12
17 15 0 16 2 4 7 -16 8 -20 45 -6 59 5 4 6 3 2 -4 -17 -29 9 -42 29 -15 15 21
15 24 2 13 -9 -7 -17 -9 -17 -3 0 13 25 33 33 26 3 -3 3 3 0 15 -3 13 -1 21 6
21 7 0 9 -5 5 -12 -4 -6 -3 -8 4 -5 14 9 43 -3 36 -14 -3 -5 2 -6 11 -3 12 5
13 10 4 20 -6 8 -16 11 -22 7 -6 -3 -7 -1 -3 5 4 7 2 10 -6 7 -7 -3 -19 4 -26
16 -10 16 -10 19 -1 13 9 -5 10 -2 6 11 -7 17 -6 17 18 1 29 -19 31 -15 11 17
-14 21 -14 22 14 24 16 1 32 -2 35 -8z m2969 -2459 c25 0 40 -28 25 -47 -10
-11 -10 -14 -1 -9 7 4 12 1 12 -8 0 -10 -6 -13 -17 -10 -10 4 -4 -3 12 -15 17
-11 24 -21 16 -21 -11 0 -9 -4 5 -16 18 -14 18 -15 -3 -4 -26 12 -31 -1 -8
-20 8 -7 15 -18 15 -24 0 -6 -5 -3 -11 7 -6 9 -15 14 -21 11 -7 -4 -8 -2 -4 4
4 7 2 12 -5 12 -10 0 -10 3 -1 12 17 17 15 28 -5 28 -15 0 -16 -2 -3 -10 14
-9 7 -14 -13 -11 -4 1 -3 -8 3 -19 8 -14 8 -20 0 -20 -6 0 -8 -5 -4 -11 3 -6
-4 -5 -17 3 -13 8 -34 14 -46 13 -12 -1 -20 1 -18 5 2 4 16 6 31 4 18 -2 23 1
16 8 -6 6 -8 17 -5 24 3 8 0 14 -5 14 -6 0 -9 -9 -7 -19 3 -14 -1 -18 -12 -14
-8 3 -11 9 -6 12 14 11 16 44 1 35 -8 -4 -10 -3 -5 2 12 12 30 12 40 -1 5 -5
6 -1 3 10 -8 30 19 62 39 45 8 -7 15 -9 15 -6 0 4 -13 19 -30 33 -16 13 -30
30 -30 36 0 6 7 1 16 -11 8 -12 21 -22 28 -22z m482 -873 c-8 -12 -12 -30 -11
-40 2 -9 0 -15 -5 -12 -4 3 -14 -3 -21 -12 -10 -12 -10 -14 -1 -9 6 4 12 2 12
-3 0 -6 -7 -11 -16 -11 -8 0 -13 -4 -10 -8 6 -10 -62 -49 -81 -48 -6 1 -20 10
-30 21 -19 20 -23 27 -23 45 0 5 -6 7 -14 4 -8 -3 -17 -1 -21 5 -4 7 0 8 11 4
10 -4 15 -2 11 3 -3 6 3 11 14 11 11 1 17 -2 14 -7 -3 -4 2 -11 11 -14 9 -3
12 -2 9 5 -4 6 3 7 21 3 21 -6 25 -4 19 7 -5 8 -5 11 0 7 4 -4 21 4 38 18 18
15 36 23 46 19 13 -5 13 -4 4 6 -10 10 -9 15 5 25 24 17 34 7 18 -19z m-1269
-2864 c-2 -10 -8 -28 -15 -40 -7 -12 -8 -24 -3 -27 4 -3 13 5 18 17 6 13 21
23 34 24 18 2 20 0 9 -7 -8 -5 -17 -7 -21 -5 -8 6 -29 -41 -22 -49 13 -12 22
-5 17 12 -5 16 -5 16 6 0 15 -25 34 -23 20 1 -12 24 5 40 23 22 9 -9 7 -10 -8
-5 -18 7 -19 6 -5 -10 13 -16 12 -20 -3 -31 -13 -9 -15 -15 -7 -20 9 -5 9 -10
1 -18 -20 -20 -11 -30 9 -12 18 17 20 17 14 2 -4 -12 -1 -17 10 -17 9 0 16 -5
16 -10 0 -7 -7 -7 -21 0 -32 18 -34 4 -2 -16 15 -10 31 -23 36 -29 4 -6 11 -5
18 5 9 12 10 12 7 1 -6 -22 -24 -24 -43 -5 -13 13 -21 15 -34 7 -18 -12 -16
-39 5 -60 11 -11 11 -19 3 -35 -6 -11 -13 -17 -16 -14 -3 3 -1 12 6 20 9 11 6
18 -16 36 -15 12 -22 19 -15 15 19 -10 14 9 -7 27 -14 11 -22 13 -30 5 -6 -6
-13 -9 -15 -6 -3 3 3 10 14 17 15 9 22 9 33 -3 11 -10 17 -11 26 -2 13 13 15
31 2 23 -5 -4 -16 -3 -25 0 -14 5 -14 9 4 34 18 25 18 29 4 41 -14 11 -20 9
-45 -19 -16 -18 -32 -32 -36 -32 -3 0 -3 3 0 7 4 3 -1 15 -10 25 -16 18 -16
18 0 12 9 -3 17 -10 17 -16 0 -5 5 -6 12 -2 8 5 4 13 -13 27 -21 17 -21 19 -4
13 16 -5 21 -1 22 14 2 17 -1 18 -18 10 -22 -12 -21 -13 -24 18 -1 13 4 26 11
29 8 3 11 9 8 14 -3 5 3 6 12 2 11 -4 13 -8 6 -11 -7 -2 -10 -8 -7 -13 4 -5 0
-6 -7 -4 -8 3 -14 -2 -15 -14 -1 -13 3 -18 12 -15 20 8 42 46 39 67 -1 9 2 17
7 17 5 0 8 -8 6 -17z m454 -180 c13 -16 12 -17 -4 -4 -16 12 -20 12 -35 -3
-16 -17 -16 -18 4 -12 11 3 28 0 40 -9 18 -15 18 -15 0 -8 -15 5 -17 3 -11 -8
17 -29 38 -48 47 -43 17 11 69 -17 58 -31 -5 -6 -6 -16 -2 -20 4 -5 1 -5 -5
-1 -8 4 -13 2 -13 -5 0 -7 -3 -9 -6 -6 -4 4 -1 14 6 23 12 13 11 17 -1 25 -18
11 -62 6 -67 -9 -2 -8 3 -10 15 -6 14 5 15 4 4 -4 -10 -7 -21 -7 -32 -1 -24
12 -38 11 -16 -2 9 -6 15 -14 12 -19 -3 -4 6 -15 20 -24 14 -9 25 -12 25 -7 0
6 -7 14 -15 19 -13 7 -11 10 10 20 16 7 23 17 19 24 -4 7 -3 8 5 4 6 -4 8 -13
4 -19 -8 -13 -12 -47 -6 -47 3 0 14 5 26 11 12 7 19 8 15 4 -4 -5 -2 -15 5
-23 9 -13 9 -14 0 -8 -7 4 -13 3 -13 -3 0 -5 6 -11 13 -14 6 -3 -5 -4 -27 -2
-24 1 -42 9 -48 19 -5 9 -13 14 -18 11 -4 -3 -11 2 -14 11 -3 8 -10 13 -14 10
-5 -3 -9 1 -10 9 -1 8 -3 22 -4 30 -1 8 -10 17 -20 21 -16 5 -16 7 -3 20 8 9
15 21 15 27 0 7 -8 3 -17 -8 -13 -17 -15 -17 -10 -2 4 11 1 20 -8 23 -11 5 -7
12 18 29 40 29 41 29 58 8z m-59 -220 c-6 -3 -9 -9 -6 -14 3 -6 11 -5 20 2 9
7 14 8 13 3 -4 -22 2 -35 13 -28 7 5 8 3 3 -6 -4 -7 -2 -16 6 -21 10 -6 11 -9
2 -9 -7 0 -13 -4 -13 -10 0 -5 7 -7 16 -3 9 3 5 -6 -10 -22 -14 -15 -23 -32
-20 -37 3 -5 0 -15 -6 -23 -12 -15 0 -22 14 -8 11 11 36 12 36 1 0 -6 -7 -8
-15 -5 -8 4 -17 2 -20 -2 -3 -5 2 -12 11 -15 8 -3 13 -10 10 -15 -4 -5 0 -12
6 -15 7 -3 4 -4 -6 -3 -10 1 -21 -3 -23 -10 -4 -12 26 -11 47 2 6 3 10 1 10
-4 0 -6 -8 -11 -17 -11 -14 -1 -12 -6 10 -24 20 -16 25 -25 15 -28 -24 -9 -63
-2 -64 13 -1 8 -2 19 -3 26 0 6 -14 21 -30 32 -27 19 -30 20 -42 4 -12 -14
-12 -16 2 -11 19 7 62 -19 57 -34 -2 -5 -8 -10 -13 -10 -22 0 -44 -19 -39 -33
3 -7 1 -22 -4 -31 -7 -13 -5 -25 6 -42 14 -22 14 -25 -1 -34 -17 -9 -14 -28 4
-28 6 0 7 5 4 10 -3 6 -1 10 4 10 14 0 14 -17 0 -26 -6 -3 -16 -1 -22 5 -16
16 -32 14 -18 -3 15 -17 1 -28 -19 -15 -8 5 -10 9 -5 9 6 0 11 9 12 20 1 11
-2 20 -8 20 -5 0 -9 -5 -9 -12 0 -6 -7 -4 -18 5 -10 10 -21 14 -24 11 -3 -3
-9 -1 -12 4 -7 11 13 10 31 -1 7 -4 22 -3 33 3 28 15 25 19 -7 14 -26 -4 -27
-3 -10 10 11 8 25 12 33 9 8 -3 14 -2 12 3 -1 5 2 19 6 32 11 33 -1 40 -15 8
-13 -27 -33 -34 -44 -15 -4 6 0 9 10 7 10 -2 20 3 22 10 3 8 -2 10 -14 6 -14
-5 -15 -4 -3 4 8 6 18 8 23 5 11 -7 4 30 -8 39 -11 8 -25 1 -25 -13 0 -6 6 -7
13 -4 6 4 3 -1 -7 -9 -23 -19 -36 -20 -36 -5 0 5 5 7 10 4 15 -9 12 18 -4 50
-8 15 -12 34 -9 43 5 11 3 13 -7 7 -9 -6 -11 -4 -5 6 12 19 14 49 3 55 -8 5
-12 -9 -9 -33 1 -7 -6 -13 -16 -13 -14 0 -15 2 -5 9 8 4 13 10 11 12 -1 2 1
15 6 28 5 18 9 21 16 10 7 -11 9 -11 9 3 0 9 9 20 20 23 11 4 18 10 16 14 -3
4 4 7 15 7 26 0 24 -3 -11 -21 -17 -9 -28 -21 -24 -26 4 -6 9 -7 13 -3 16 23
49 33 55 18 3 -9 3 -21 0 -27 -3 -7 2 -3 10 7 13 16 13 22 3 28 -9 6 -9 8 0 8
6 0 15 -5 18 -10 4 -6 11 -7 17 -4 7 4 8 2 4 -5 -4 -6 -11 -9 -16 -6 -12 7
-21 -25 -12 -42 8 -13 10 -13 15 1 5 12 3 15 -6 10 -6 -4 2 6 19 22 32 31 37
62 17 99 -12 20 -23 21 -35 3 -7 -10 -8 -9 -4 5 3 9 0 17 -6 17 -7 0 -3 6 8
14 10 8 21 12 24 9 3 -3 -1 -8 -8 -10z"/>
</g>
</svg>
