<?xml version="1.0" standalone="no"?>
<!DOCTYPE svg PUBLIC "-//W3C//DTD SVG 20010904//EN"
 "http://www.w3.org/TR/2001/REC-SVG-20010904/DTD/svg10.dtd">
<svg version="1.0" xmlns="http://www.w3.org/2000/svg"
 width="1024.000000pt" height="1024.000000pt" viewBox="0 0 1024.000000 1024.000000"
 preserveAspectRatio="xMidYMid meet">
<metadata>
Created by potrace 1.16, written by Peter Selinger 2001-2019
</metadata>
<g transform="translate(0.000000,1024.000000) scale(0.100000,-0.100000)"
fill="#000000" stroke="none">
<path d="M1389 8275 c-1 -3 -2 -8 -3 -12 -1 -5 -5 -14 -10 -21 -5 -8 -1 -21
10 -33 9 -10 14 -19 11 -19 -7 0 45 -56 53 -57 3 0 12 -1 20 -2 13 -1 13 -2 0
-11 -11 -7 -11 -10 -2 -10 15 0 72 -56 72 -70 0 -6 7 -10 16 -10 8 0 12 -4 9
-10 -3 -5 0 -10 7 -10 7 0 24 -16 37 -36 13 -19 33 -39 43 -45 10 -5 18 -15
18 -22 0 -7 9 -19 20 -27 11 -8 20 -19 20 -25 0 -5 16 -27 35 -48 19 -21 33
-43 30 -48 -4 -5 -1 -9 4 -9 6 0 11 6 12 13 0 6 4 2 9 -10 5 -13 17 -23 25
-23 9 0 14 -4 11 -9 -3 -5 1 -12 10 -15 8 -3 12 -2 9 3 -3 5 -1 13 5 16 6 4 9
1 8 -6 -2 -7 6 -15 17 -17 11 -2 25 -9 30 -14 7 -8 5 -8 -5 -3 -12 7 -13 6 -2
-6 11 -12 14 -12 23 1 9 12 10 11 6 -6 -3 -13 1 -21 9 -21 7 0 11 4 8 9 -3 4
0 8 5 8 6 0 11 -5 11 -11 0 -8 6 -7 17 2 11 10 14 10 9 2 -5 -9 1 -13 22 -13
16 0 43 -7 60 -16 18 -8 36 -13 42 -9 5 3 10 1 10 -4 0 -6 6 -11 13 -11 7 0
23 -9 35 -20 22 -21 37 -27 28 -11 -11 17 29 6 47 -14 10 -11 16 -15 13 -8 -5
8 0 8 18 0 13 -7 22 -16 19 -21 -4 -5 1 -7 10 -3 9 3 16 3 16 -1 -4 -22 3 -40
14 -39 39 1 58 -4 51 -15 -5 -8 -3 -8 7 -2 17 11 69 13 69 2 0 -4 7 -4 17 -1
12 5 14 3 8 -8 -6 -11 -5 -11 5 -2 15 14 42 6 33 -11 -4 -8 -2 -8 7 1 15 14
43 5 33 -11 -4 -6 1 -5 10 3 14 11 17 11 17 0 0 -12 2 -12 9 -1 7 11 10 10 15
-3 3 -9 12 -15 19 -12 6 2 28 -2 47 -9 19 -7 48 -15 63 -18 15 -4 25 -11 22
-15 -3 -5 4 -7 15 -4 12 3 20 0 20 -7 0 -7 6 -10 14 -7 7 3 25 0 39 -8 18 -9
28 -10 36 -2 8 8 11 8 11 0 0 -7 16 -10 40 -8 22 1 40 -1 40 -4 0 -4 14 -6 30
-5 17 1 30 -2 30 -7 0 -5 3 -8 8 -8 21 4 32 -2 26 -13 -5 -9 -2 -9 9 1 9 7 17
9 17 3 0 -10 30 -22 66 -26 11 -2 26 -6 32 -10 6 -3 13 -2 17 4 3 6 14 7 23 2
9 -4 26 -7 37 -7 11 0 23 -4 27 -10 5 -6 8 -5 8 3 0 9 5 10 18 4 9 -5 32 -10
50 -10 18 0 58 -6 90 -13 31 -6 66 -13 77 -14 11 -1 20 -3 20 -4 0 -1 18 -4
40 -6 80 -8 90 -10 98 -20 4 -7 10 -6 15 1 7 11 62 15 62 5 0 -4 159 -6 353
-7 379 -1 414 -2 436 -18 11 -8 13 -8 7 2 -4 7 -2 12 8 12 8 0 18 -5 21 -10
21 -34 125 -40 125 -8 0 5 -5 6 -12 2 -7 -4 -8 -3 -4 4 10 16 36 3 29 -14 -3
-9 0 -14 8 -12 8 2 13 -3 12 -9 -2 -7 2 -13 8 -13 5 0 8 -3 6 -7 -3 -5 6 -9
19 -9 13 -1 22 1 19 6 -2 4 7 12 20 18 17 8 25 8 25 1 0 -6 6 -9 13 -6 6 2 11
9 10 15 -2 6 4 9 12 6 8 -4 15 -1 15 6 0 7 8 10 20 7 11 -3 23 -1 26 4 3 6 11
8 17 6 7 -2 20 0 30 5 9 5 17 5 17 1 0 -4 11 -8 24 -8 13 0 22 4 19 8 -2 4 8
4 24 0 33 -9 114 -9 163 1 19 4 58 9 85 12 28 2 61 7 75 10 14 3 32 6 40 7 8
1 17 4 20 7 15 15 68 38 74 33 4 -4 11 -1 15 6 5 7 20 14 34 14 14 1 23 5 20
10 -2 4 7 8 21 8 25 1 36 3 54 9 4 1 12 3 17 5 6 1 12 3 15 4 3 2 12 4 20 6 8
2 33 10 55 18 22 8 48 13 58 11 9 -1 17 2 17 7 0 6 4 8 8 5 5 -3 20 1 35 9 15
8 27 11 27 8 0 -3 8 1 18 9 17 15 82 41 82 33 0 -3 11 0 25 5 18 7 25 6 25 -3
0 -8 3 -8 9 2 7 11 25 13 75 9 57 -5 70 -3 92 15 30 23 79 33 67 14 -4 -7 2
-5 12 3 11 9 16 10 11 3 -4 -8 -2 -13 4 -13 6 0 8 -5 4 -12 -4 -7 -3 -8 4 -4
7 4 12 2 12 -4 0 -6 4 -9 9 -5 5 3 17 -3 27 -12 15 -15 32 -19 62 -14 4 1 0 6
-8 12 -12 8 -10 9 7 4 12 -3 25 -1 29 6 5 8 3 9 -6 4 -9 -5 -11 -4 -6 3 11 17
29 15 22 -3 -5 -14 5 -20 27 -16 5 1 5 -3 2 -9 -4 -6 -13 -9 -20 -6 -7 2 -18
-1 -24 -7 -6 -6 -11 -7 -11 -2 0 5 -7 0 -16 -11 -8 -10 -13 -14 -10 -7 8 14
-14 29 -23 16 -3 -5 -17 -10 -31 -11 -14 0 -20 2 -15 6 16 11 16 32 0 32 -8 0
-15 -6 -15 -12 0 -10 -3 -9 -9 1 -6 9 -11 10 -15 2 -4 -6 -4 -11 -1 -11 4 0
-1 -8 -10 -17 -21 -20 -81 -27 -64 -7 6 7 17 10 24 8 22 -9 41 7 22 18 -22 12
-91 -17 -84 -35 3 -9 -10 -17 -39 -25 -38 -10 -44 -16 -44 -38 0 -20 -4 -24
-18 -20 -17 6 -55 -41 -57 -69 -1 -5 -7 -9 -14 -7 -7 1 -10 -2 -6 -7 3 -6 13
-7 22 -4 10 4 14 2 9 -5 -3 -6 6 -4 23 4 20 10 36 12 53 5 15 -6 31 -5 42 1
14 8 17 7 12 -1 -5 -7 -1 -9 8 -5 9 3 16 9 16 13 0 4 9 7 19 7 11 0 19 -3 18
-7 -1 -4 3 -7 8 -7 6 0 9 4 7 9 -1 6 7 5 18 -1 17 -9 22 -7 32 15 6 14 15 25
20 25 5 0 0 -13 -12 -29 -19 -28 -19 -30 -3 -40 10 -6 14 -11 9 -11 -5 0 -18
7 -28 16 -13 13 -21 14 -31 6 -10 -9 -17 -8 -25 0 -9 9 -15 9 -24 -1 -11 -10
-10 -11 3 -6 17 6 39 -14 43 -40 1 -9 9 -21 17 -26 8 -5 9 -9 3 -9 -6 0 -9
-13 -6 -30 2 -16 7 -30 11 -30 3 0 6 -51 5 -113 0 -79 4 -119 14 -136 9 -15
10 -21 2 -16 -8 5 -10 -2 -7 -24 3 -17 1 -34 -5 -37 -5 -4 -3 -13 7 -24 9 -10
12 -21 7 -24 -11 -7 -10 -46 2 -65 7 -10 6 -12 -4 -6 -9 5 -11 4 -6 -3 4 -6 9
-40 12 -74 3 -35 8 -64 12 -65 4 -2 7 -30 6 -63 0 -33 4 -60 8 -60 5 0 6 -4 3
-10 -3 -5 0 -10 7 -10 10 0 10 -2 -1 -9 -9 -6 -10 -10 -2 -16 7 -4 8 -12 4
-18 -10 -15 -10 -38 0 -54 5 -7 4 -13 0 -13 -11 0 -10 -41 1 -59 6 -10 6 -12
-2 -7 -8 5 -12 -2 -12 -18 0 -14 6 -26 13 -26 9 0 9 -2 0 -8 -12 -8 -12 -43 2
-74 4 -10 5 -35 3 -57 -3 -31 0 -38 12 -33 11 4 12 2 4 -7 -9 -10 -8 -26 3
-64 8 -29 17 -64 20 -79 3 -16 10 -28 15 -28 6 0 7 -7 4 -16 -4 -9 -1 -24 6
-32 11 -13 11 -14 -1 -8 -10 6 -12 4 -8 -10 9 -32 20 -99 19 -106 -1 -5 3 -8
8 -8 6 0 10 -7 10 -15 0 -9 10 -20 23 -25 20 -8 20 -9 2 -10 -20 -1 -20 -1 -1
-15 11 -8 15 -15 9 -15 -7 0 -9 -12 -6 -31 3 -24 2 -29 -9 -23 -10 6 -10 4 1
-10 10 -11 13 -36 11 -79 -5 -101 -1 -163 16 -247 12 -59 6 -113 -16 -165 -7
-16 -13 -33 -12 -37 1 -5 -2 -8 -8 -8 -5 0 -7 -6 -4 -14 3 -8 0 -17 -5 -21 -6
-3 -9 -11 -6 -16 4 -5 1 -9 -5 -9 -6 0 -9 -4 -6 -9 4 -5 2 -21 -4 -36 -8 -20
-7 -32 2 -43 10 -12 10 -14 1 -8 -9 5 -13 0 -13 -14 0 -24 -29 -91 -43 -101
-5 -3 -8 -9 -7 -13 2 -12 -43 -96 -52 -96 -5 0 -6 -5 -3 -10 4 -6 2 -16 -3
-23 -6 -7 -11 -15 -11 -19 -1 -5 -1 -9 -2 -10 -5 -18 -11 -47 -12 -60 -1 -10
-6 -18 -12 -18 -5 0 -16 -9 -23 -20 -7 -11 -19 -20 -28 -20 -9 0 -12 -5 -8
-12 5 -10 4 -10 -6 -1 -13 12 -43 7 -36 -6 3 -4 -7 -8 -20 -9 -14 -1 -33 -6
-43 -12 -10 -5 -21 -6 -25 -3 -3 3 -6 1 -6 -5 0 -7 -14 -12 -31 -12 -17 0 -56
-7 -86 -16 -30 -9 -63 -14 -74 -11 -10 3 -19 1 -19 -4 0 -5 -11 -9 -25 -9 -14
0 -25 -4 -25 -10 0 -5 -6 -10 -12 -10 -12 0 -59 -21 -132 -58 -17 -9 -26 -10
-22 -4 8 13 -20 6 -41 -10 -28 -22 -69 -11 -107 28 -21 21 -42 38 -48 36 -5
-1 -19 7 -31 18 -41 39 -108 11 -151 -63 -23 -38 -25 -51 -22 -142 l4 -100 46
-21 c25 -11 43 -23 41 -26 -3 -3 5 -5 17 -4 13 1 32 -4 43 -11 27 -18 44 -17
19 2 -18 14 -18 14 4 8 12 -3 22 -8 22 -12 0 -4 21 -7 48 -7 35 0 46 -4 44
-15 -2 -11 0 -11 10 2 11 13 37 15 151 15 77 -1 141 2 143 6 3 4 15 3 28 -2
12 -4 29 -4 36 0 8 5 19 6 25 2 17 -11 35 -11 35 0 0 6 6 8 14 5 8 -3 17 -3
20 0 12 12 96 8 96 -5 0 -25 -21 -54 -36 -48 -8 3 -13 2 -11 -2 5 -8 -39 -53
-45 -46 -3 2 -5 -3 -5 -11 0 -8 4 -12 9 -9 4 3 5 -2 2 -10 -3 -9 -10 -13 -15
-10 -5 3 -9 -2 -9 -11 0 -9 -4 -13 -10 -10 -5 3 -10 -2 -11 -12 0 -11 -3 -13
-6 -5 -4 10 -8 10 -21 0 -8 -7 -17 -12 -19 -10 -1 1 -3 -1 -4 -5 0 -5 -11 -14
-25 -21 -17 -9 -24 -19 -20 -29 6 -14 4 -14 -11 -2 -11 9 -14 10 -9 2 4 -8 1
-13 -8 -13 -9 0 -15 -6 -14 -12 2 -8 -6 -13 -19 -12 -13 1 -23 -3 -23 -8 0 -5
-4 -6 -10 -3 -5 3 -10 0 -10 -8 0 -11 -7 -13 -22 -9 -13 3 -19 1 -15 -5 8 -12
-20 -26 -34 -17 -5 3 -9 0 -9 -5 0 -6 -3 -10 -7 -9 -5 1 -18 -3 -29 -10 -12
-6 -25 -8 -29 -4 -5 4 -5 2 -2 -4 7 -13 -27 -27 -57 -24 -12 1 -16 -2 -10 -11
5 -9 2 -10 -10 -6 -14 6 -17 3 -12 -10 6 -17 5 -17 -8 0 -13 17 -14 16 -19 -2
-3 -11 0 -22 7 -25 8 -3 8 -5 0 -5 -6 -1 -18 7 -25 16 -10 11 -10 14 -1 9 6
-4 12 -2 12 3 0 13 0 13 -38 0 -20 -7 -29 -15 -25 -22 4 -7 -1 -6 -11 2 -14
12 -17 12 -14 1 2 -8 -3 -14 -10 -15 -7 0 -17 -7 -22 -15 -9 -13 -10 -13 -10
0 0 12 -2 13 -9 1 -5 -8 -14 -10 -22 -5 -11 6 -11 5 0 -9 13 -16 12 -17 -12
-8 -16 6 -29 7 -32 1 -3 -5 -12 -7 -20 -3 -8 3 -15 1 -15 -4 0 -5 -8 -9 -17
-10 -38 -3 -69 -10 -88 -20 -11 -6 -28 -9 -37 -8 -10 2 -18 -1 -18 -5 0 -5
-14 -7 -30 -5 -18 3 -28 0 -25 -6 8 -12 -17 -7 -26 5 -4 5 -10 -1 -14 -13 -3
-11 -11 -21 -17 -21 -6 0 -6 6 2 15 7 9 10 19 6 22 -4 4 -11 1 -15 -6 -5 -7
-13 -11 -19 -7 -6 3 -13 0 -15 -6 -4 -10 -6 -9 -6 1 -1 10 -4 11 -15 2 -11 -9
-16 -9 -22 0 -5 8 -3 9 6 4 9 -5 11 -4 6 4 -4 6 -13 8 -19 4 -17 -11 -31 -10
-39 2 -5 6 -11 5 -17 -4 -7 -10 -9 -11 -13 -1 -2 8 -11 14 -19 16 -7 1 -27 5
-44 9 -16 4 -46 7 -65 7 -19 0 -41 5 -49 12 -8 6 -12 6 -9 1 5 -7 -25 -11 -88
-10 -52 0 -94 -4 -94 -9 0 -5 -6 -5 -12 0 -7 5 -22 9 -33 9 -11 0 -23 4 -27
10 -5 6 -8 4 -9 -5 0 -10 -3 -8 -9 5 l-9 20 0 -20 c-1 -15 -3 -17 -10 -6 -7
11 -13 11 -32 0 -22 -11 -23 -11 -11 4 12 14 11 15 -17 7 -17 -4 -35 -11 -41
-15 -5 -3 -10 2 -11 12 0 16 -1 16 -9 -2 -6 -13 -9 -15 -9 -5 -1 13 -2 13 -11
0 -7 -11 -10 -12 -10 -2 0 8 -6 12 -12 9 -7 -2 -22 0 -33 6 -18 9 -19 9 -6 -6
13 -16 2 -25 -13 -10 -14 14 -38 12 -32 -3 4 -11 1 -12 -12 -6 -23 12 -81 -5
-89 -26 -4 -9 -10 -19 -14 -22 -4 -3 5 -14 20 -24 l26 -20 -18 21 c-12 14 -15
23 -8 28 6 3 11 2 11 -4 0 -5 9 -8 20 -6 17 3 18 1 7 -16 -9 -15 -9 -23 1 -39
8 -13 8 -20 1 -20 -5 0 -7 -5 -3 -11 4 -8 0 -8 -15 0 -11 7 -21 8 -21 4 0 -4
-4 -1 -10 7 -5 9 -5 19 1 26 6 7 4 16 -6 24 -11 9 -15 9 -15 1 0 -7 -5 -9 -11
-5 -6 3 -4 -5 6 -19 12 -19 13 -27 4 -33 -7 -4 -10 -3 -7 2 3 5 -4 18 -15 29
-14 14 -18 15 -15 5 4 -11 0 -16 -13 -16 -15 0 -16 3 -6 15 9 11 4 11 -17 -3
-16 -10 -25 -13 -22 -7 5 7 1 9 -8 5 -9 -3 -13 -10 -10 -15 3 -5 -2 -6 -10 -3
-9 3 -13 10 -10 15 3 5 -4 5 -18 0 -16 -6 -27 -4 -36 5 -7 8 -17 12 -23 9 -5
-4 -9 -1 -9 6 0 10 -3 10 -11 2 -9 -9 -15 -8 -26 3 -8 8 -19 12 -24 9 -5 -4
-14 -3 -21 1 -12 7 -62 14 -130 17 -20 1 -35 4 -33 8 2 3 -10 7 -28 7 -43 3
-65 7 -73 14 -3 4 -12 4 -20 1 -8 -3 -14 -1 -14 4 0 5 -6 10 -12 11 -7 0 -24
3 -38 7 -14 4 -33 7 -42 7 -10 -1 -18 5 -18 11 0 9 -3 8 -8 -1 -7 -10 -14 -9
-38 2 -16 8 -36 16 -44 18 -8 2 -18 7 -22 12 -4 6 -12 5 -21 -2 -12 -10 -15
-9 -13 5 0 10 -6 18 -14 19 -28 2 -70 23 -70 36 0 9 -3 8 -10 -2 -7 -12 -10
-12 -10 -1 0 8 -6 11 -16 7 -8 -3 -12 -2 -9 4 3 6 -1 10 -9 10 -9 0 -16 5 -16
10 0 6 -9 10 -21 10 -11 0 -17 5 -14 10 4 6 -5 10 -20 10 -14 0 -28 6 -31 14
-3 8 -16 13 -29 11 -14 -1 -22 2 -19 6 3 5 -2 9 -11 9 -9 0 -14 4 -11 9 4 5
-2 8 -11 7 -10 -2 -31 5 -48 15 -16 11 -37 22 -45 26 -8 4 -21 13 -28 20 -8 7
-18 11 -23 8 -5 -4 -9 -1 -9 6 0 8 -5 7 -17 -2 -11 -9 -14 -10 -10 -2 5 8 -1
15 -18 19 -14 3 -25 10 -25 14 0 5 -9 6 -20 3 -12 -3 -20 0 -20 6 0 7 -4 9
-10 6 -5 -3 -10 -1 -10 6 0 7 -3 9 -7 6 -3 -4 -12 1 -20 11 -8 9 -12 11 -8 5
4 -9 1 -11 -9 -7 -9 3 -14 10 -11 14 3 5 -6 7 -20 6 -13 -2 -22 1 -19 6 3 5
-3 12 -15 15 -12 3 -21 9 -21 14 0 5 -7 9 -15 9 -8 0 -15 5 -15 10 0 6 -6 10
-14 10 -7 0 -27 14 -44 31 -19 19 -41 32 -56 32 -14 0 -26 4 -26 9 0 5 -4 7
-9 3 -5 -3 -16 1 -24 9 -8 8 -17 12 -21 9 -3 -4 -6 -2 -6 3 0 5 -17 18 -37 29
-21 11 -43 27 -50 35 -7 8 -13 11 -13 7 0 -4 -6 -2 -14 5 -8 7 -12 16 -9 21 2
4 -5 7 -15 7 -11 0 -25 7 -32 15 -7 8 -16 12 -21 9 -5 -3 -9 0 -9 5 0 6 -5 11
-11 11 -5 0 -8 -4 -5 -8 3 -5 -1 -9 -9 -9 -10 0 -12 4 -5 12 7 9 5 17 -7 26
-15 12 -16 12 -9 -1 4 -8 1 -7 -7 3 -10 12 -17 14 -22 7 -3 -5 -11 -8 -16 -4
-6 4 -6 11 2 20 9 11 8 14 -3 14 -7 0 -21 9 -31 20 -10 12 -22 18 -27 15 -6
-3 -10 1 -10 10 0 9 -4 14 -9 10 -5 -3 -12 -1 -16 5 -4 6 -11 8 -16 5 -5 -4
-9 -2 -9 3 0 6 -11 13 -25 16 -14 4 -25 14 -25 23 0 9 -3 14 -6 10 -4 -3 -13
1 -21 9 -8 8 -19 12 -24 9 -5 -4 -9 1 -9 10 0 9 -4 13 -10 10 -5 -3 -10 -1
-10 5 0 6 -4 9 -8 6 -5 -3 -14 4 -22 14 -8 10 -17 17 -22 14 -4 -3 -8 0 -8 5
0 6 -6 11 -13 11 -7 0 -20 9 -30 20 -18 22 -43 28 -31 8 5 -9 2 -9 -9 1 -9 7
-17 20 -17 27 0 8 -6 11 -17 7 -11 -4 -14 -3 -9 5 6 11 -6 17 -27 13 -4 -1
-10 6 -13 14 -4 8 -11 15 -18 15 -6 0 -18 9 -26 19 -7 11 -17 18 -21 16 -4 -3
-10 6 -13 20 -4 14 -13 25 -21 25 -8 0 -15 5 -15 12 0 6 -3 9 -6 5 -3 -3 -15
3 -27 13 -11 11 -23 17 -27 15 -5 -3 -11 2 -14 11 -3 8 -10 12 -16 9 -5 -3
-10 -1 -10 5 0 6 -4 8 -10 5 -5 -3 -10 -2 -10 3 0 6 -7 13 -16 16 -14 5 -15 4
-5 -8 9 -11 9 -16 0 -22 -7 -4 -9 -3 -6 3 4 6 -2 18 -13 28 -11 10 -20 14 -20
10 0 -5 -5 -4 -12 3 -7 7 -25 12 -40 12 -15 0 -28 4 -28 8 0 4 -9 8 -20 9 -13
1 -18 -2 -13 -10 3 -7 -4 -3 -17 8 -13 11 -20 14 -16 8 9 -16 -6 -17 -22 -1
-9 9 -12 9 -12 0 0 -7 -3 -11 -7 -10 -5 1 -18 -3 -29 -10 -12 -6 -23 -9 -26
-7 -3 3 -5 -1 -5 -9 0 -12 4 -12 26 1 21 12 22 12 9 1 -10 -8 -15 -18 -12 -21
9 -9 -19 -2 -41 10 -11 6 -28 9 -37 8 -10 -2 -18 0 -18 5 0 5 -8 7 -17 5 -10
-1 -24 3 -32 9 -12 9 -13 8 -6 -4 6 -12 5 -13 -5 -3 -11 10 -16 9 -27 -5 -10
-13 -13 -14 -11 -2 4 19 -32 21 -50 3 -7 -7 -20 -13 -28 -13 -20 0 -9 -59 14
-77 12 -10 12 -12 2 -8 -16 7 -1 -7 37 -33 10 -7 12 -10 5 -7 -6 3 -12 1 -12
-4 0 -6 9 -11 21 -11 12 0 17 -4 13 -11 -10 -16 16 -58 32 -52 8 3 14 0 14 -6
0 -6 7 -8 15 -5 8 4 15 1 15 -6 0 -6 4 -8 10 -5 5 3 10 -2 10 -12 0 -14 2 -15
9 -5 7 11 11 11 23 -2 9 -8 18 -12 22 -9 3 4 6 2 6 -4 0 -5 12 -15 26 -21 14
-7 23 -8 19 -3 -3 5 -1 12 5 16 5 3 10 -1 10 -10 0 -9 4 -13 10 -10 5 3 10 1
10 -4 0 -6 12 -11 26 -11 15 0 23 -4 19 -10 -4 -6 -3 -10 2 -9 21 4 34 -2 27
-13 -5 -7 -3 -8 5 -4 7 5 21 0 33 -11 12 -10 18 -13 15 -6 -5 7 0 9 13 6 11
-3 20 -11 20 -19 0 -8 6 -11 15 -8 13 5 13 9 3 23 -12 14 -11 14 4 2 10 -7 16
-16 14 -20 -1 -3 5 -14 16 -23 10 -10 18 -13 18 -7 0 5 5 7 11 4 6 -4 8 -13 5
-21 -4 -12 -2 -12 14 -4 16 9 20 8 20 -7 0 -15 2 -16 10 -3 8 12 10 12 10 1 0
-8 7 -11 19 -8 15 3 18 1 14 -11 -5 -11 -2 -14 11 -9 10 4 19 1 23 -9 3 -8 11
-13 17 -11 15 6 58 -28 48 -38 -4 -3 -2 -6 3 -5 25 5 45 -1 45 -14 0 -8 7 -17
16 -20 15 -6 15 -4 3 11 -12 16 -12 17 2 6 9 -7 19 -10 23 -6 4 4 4 -1 0 -12
-6 -14 -4 -17 7 -13 16 6 41 -16 31 -28 -4 -4 -1 -4 6 0 7 4 15 1 18 -9 5 -13
9 -13 22 -3 12 10 14 10 8 1 -4 -8 -2 -13 4 -13 6 0 8 -5 5 -10 -4 -6 -3 -10
2 -9 21 4 32 -3 38 -22 6 -17 9 -19 16 -8 6 10 9 11 9 2 0 -7 8 -13 18 -13 14
0 15 -2 2 -10 -13 -8 -13 -10 1 -10 9 0 21 -10 28 -22 9 -19 10 -19 6 -3 -4
13 5 7 27 -18 18 -20 39 -37 45 -37 7 0 12 -6 10 -12 -1 -7 4 -12 11 -10 8 1
16 -7 19 -18 3 -11 11 -20 17 -20 6 0 18 -10 26 -22 8 -12 30 -36 48 -55 19
-18 31 -33 27 -33 -3 0 0 -6 7 -14 7 -8 18 -13 23 -13 6 1 9 -4 8 -10 -2 -7 3
-12 10 -10 6 1 11 -4 10 -10 -2 -7 4 -13 12 -13 8 0 15 -4 15 -10 0 -5 7 -10
16 -10 8 0 12 -5 9 -10 -3 -6 1 -10 9 -10 9 0 16 -4 16 -10 0 -5 7 -10 15 -10
8 0 15 -7 15 -16 0 -8 5 -12 10 -9 6 3 10 1 10 -5 0 -6 5 -8 10 -5 6 3 10 -1
10 -9 0 -8 5 -18 12 -22 7 -5 8 -3 3 7 -8 12 -6 12 8 0 9 -7 14 -17 11 -22 -3
-5 1 -9 9 -9 8 0 22 -10 31 -22 9 -13 14 -16 11 -8 -4 8 1 6 9 -4 9 -11 16
-25 16 -30 0 -6 4 -5 9 3 7 11 10 9 16 -8 3 -12 12 -21 18 -20 27 3 38 -2 31
-13 -4 -7 3 -4 17 7 13 11 18 13 12 5 -19 -21 -16 -29 8 -25 15 3 19 0 15 -10
-3 -9 1 -12 16 -10 11 3 18 2 15 -2 -8 -7 18 -33 32 -33 6 0 11 -5 11 -11 0
-6 7 -9 15 -5 10 3 15 -1 15 -12 0 -15 2 -15 10 -2 8 12 10 10 10 -9 0 -20 2
-21 15 -11 13 11 19 7 17 -12 -1 -3 5 -9 14 -12 10 -4 13 -2 8 7 -5 8 -2 8 9
-2 9 -7 14 -18 10 -25 -4 -6 1 -5 11 3 15 12 17 12 14 0 -2 -8 3 -13 10 -12 6
2 12 -2 12 -7 0 -6 7 -10 15 -10 9 0 18 -7 22 -16 3 -8 11 -13 18 -11 6 3 17
-4 24 -15 7 -11 19 -17 27 -14 8 3 14 -1 14 -9 0 -8 9 -15 19 -15 11 0 26 -9
34 -20 8 -11 17 -17 21 -13 3 4 15 -2 26 -13 33 -33 48 -43 54 -37 3 4 6 1 6
-6 0 -7 5 -9 10 -6 6 3 13 -1 16 -9 3 -9 10 -13 15 -10 5 3 12 -2 15 -10 3 -9
10 -13 15 -10 5 3 9 0 9 -5 0 -6 3 -10 8 -10 21 4 32 -2 26 -13 -4 -7 -4 -10
1 -6 4 4 17 1 29 -7 24 -18 40 -20 30 -4 -5 8 -1 8 13 0 11 -6 22 -8 25 -6 3
3 5 -2 5 -10 0 -11 -4 -12 -14 -3 -11 8 -12 7 -7 -6 3 -9 17 -16 33 -16 14 0
33 -5 41 -11 13 -9 12 -10 -3 -5 -11 3 -16 2 -12 -4 3 -6 13 -10 21 -10 10 0
12 -5 8 -12 -6 -10 -4 -10 8 0 13 10 18 10 24 1 5 -8 3 -10 -7 -5 -8 4 -5 0 6
-9 12 -10 29 -14 45 -10 19 4 21 3 10 -5 -15 -10 -4 -15 23 -11 4 0 7 -3 7 -7
0 -4 10 -8 22 -9 11 -1 24 -7 28 -14 6 -8 9 -8 13 2 4 10 6 10 6 2 1 -7 10
-13 22 -13 11 0 18 -4 15 -8 -3 -5 1 -9 9 -9 8 0 12 4 9 9 -3 4 0 8 5 8 6 0
11 -4 11 -8 0 -9 3 -10 58 -13 17 -1 37 -8 43 -15 12 -15 33 -9 24 7 -4 5 -1
9 4 9 6 0 11 -4 11 -10 0 -5 4 -10 10 -10 5 0 7 8 4 18 -3 9 1 6 9 -7 11 -18
15 -20 20 -8 3 8 0 20 -6 26 -9 9 -8 11 5 6 9 -4 19 -13 22 -21 4 -10 2 -12
-6 -8 -7 4 -8 3 -4 -5 6 -9 11 -9 24 1 9 7 13 8 9 2 -8 -13 40 -14 60 -1 8 5
11 3 8 -5 -5 -13 5 -14 58 -9 5 1 6 5 2 10 -3 5 0 13 6 17 7 4 10 3 7 -2 -3
-5 1 -16 10 -24 14 -13 15 -12 9 3 -3 9 -1 19 6 23 7 4 9 4 5 -1 -10 -10 11
-37 23 -29 5 3 9 11 9 17 0 7 -4 6 -10 -3 -6 -9 -10 -10 -10 -3 0 17 17 25 25
13 4 -6 17 -10 28 -8 12 1 28 -2 36 -6 11 -7 13 -4 8 15 -5 21 -5 22 7 7 7 -9
22 -16 34 -15 17 1 19 4 9 16 -10 12 -9 13 13 1 21 -11 23 -11 13 1 -9 12 -5
14 29 15 22 1 43 5 47 10 9 13 72 34 82 28 5 -3 9 0 9 6 0 6 5 8 10 5 6 -3 13
1 16 9 3 9 13 16 21 16 8 0 11 5 7 11 -4 7 1 7 16 -1 20 -11 21 -10 9 12 -10
20 -10 21 2 11 18 -14 69 -12 69 4 0 6 4 15 10 18 5 3 7 0 4 -8 -4 -10 4 -16
25 -19 17 -3 31 -1 31 3 0 5 7 6 15 3 8 -4 12 -11 9 -18 -3 -6 2 -2 10 8 12
15 16 16 16 5 0 -11 2 -11 9 -1 6 11 11 10 25 -3 10 -10 16 -12 16 -5 0 7 7
10 15 6 8 -3 15 0 15 6 0 7 5 6 15 -2 12 -10 15 -10 15 1 0 11 2 11 10 -1 7
-11 10 -11 10 -2 0 9 5 10 19 3 14 -8 20 -7 25 4 3 8 12 12 21 9 8 -3 15 -1
15 5 0 8 6 9 18 3 18 -9 80 -7 89 2 4 3 12 1 20 -5 9 -9 13 -8 13 0 0 13 22
10 32 -4 9 -13 41 -13 50 0 5 6 8 3 8 -7 0 -11 6 -15 20 -11 13 3 20 0 20 -8
0 -8 9 -4 21 11 11 14 18 20 15 13 -4 -6 -2 -14 4 -18 5 -3 10 2 10 12 0 10 4
14 8 8 11 -15 30 -17 54 -4 16 9 19 8 12 -3 -6 -11 -5 -11 9 1 9 7 17 9 17 3
0 -5 18 -12 40 -14 22 -2 40 -1 40 2 0 11 45 9 52 -3 4 -7 8 -7 8 -2 0 12 98
11 108 -1 4 -4 -2 -4 -13 0 -15 5 -17 4 -9 -4 9 -9 17 -9 32 -1 15 8 23 8 27
1 5 -8 12 -7 23 2 9 8 13 8 9 2 -4 -7 0 -15 9 -18 8 -3 13 -2 10 3 -3 4 14 8
37 8 61 0 117 7 117 15 0 3 11 5 25 4 13 -2 23 0 20 4 -2 3 23 12 56 19 32 6
59 16 59 21 0 6 7 10 16 10 19 0 124 68 124 81 0 5 8 9 17 9 9 0 14 3 10 6 -7
7 38 54 52 54 5 0 18 13 27 29 10 17 22 27 28 24 5 -4 7 0 3 10 -4 11 -2 14 9
10 7 -3 14 0 14 7 0 6 4 9 9 5 6 -3 8 4 6 15 -2 12 8 33 29 54 32 34 61 84 58
99 -1 4 3 7 10 7 6 0 8 3 5 7 -4 3 -2 12 4 20 6 7 9 13 5 13 -3 0 4 11 16 25
11 13 26 22 31 18 6 -3 7 -1 3 5 -3 6 -2 13 4 17 6 4 8 10 5 15 -3 4 7 22 23
38 15 17 28 36 30 44 2 7 9 20 17 28 7 8 20 30 29 48 11 21 23 32 31 28 20 -7
24 17 6 32 -12 9 -12 12 -2 10 9 -2 14 8 16 30 1 22 -2 31 -11 28 -14 -5 -50
30 -37 36 4 3 2 3 -5 2 -7 -2 -15 3 -18 11 -4 8 -11 15 -16 15 -6 0 -5 -7 2
-15 7 -9 9 -19 5 -23 -4 -4 -10 -1 -12 6 -3 6 -12 12 -21 12 -14 0 -17 11 -19
64 0 36 -4 69 -8 75 -5 10 14 16 38 12 4 0 7 3 7 9 0 5 5 10 11 10 5 0 8 -4 5
-9 -4 -5 5 -4 19 2 14 7 25 16 25 20 0 5 4 6 9 2 5 -3 17 3 27 12 9 9 25 19
36 20 11 2 34 14 52 28 18 14 38 25 44 25 6 0 12 4 14 9 2 5 9 11 17 13 8 2
32 20 55 40 23 21 46 36 52 34 7 -3 10 3 7 15 -3 11 -1 19 4 17 12 -4 104 107
98 116 -3 3 -2 4 1 1 4 -2 23 21 42 53 20 31 39 59 43 62 13 9 30 63 34 105 2
22 5 47 7 55 11 40 22 66 32 72 7 5 7 8 -3 8 -11 0 -11 3 -1 15 7 8 9 15 4 15
-4 0 2 10 13 23 30 31 66 104 58 117 -3 5 -2 10 2 10 5 0 8 21 7 48 -2 55 28
117 54 107 11 -4 12 -2 4 8 -7 8 -8 17 -3 23 5 5 12 23 14 41 3 17 8 36 11 42
4 5 2 12 -4 16 -6 4 -7 12 -3 18 4 7 8 26 8 42 0 17 5 36 9 44 14 22 21 174
13 248 -3 18 2 44 9 58 7 14 9 27 3 30 -5 4 -9 15 -9 25 0 13 -5 17 -15 14
-12 -5 -23 -48 -28 -111 -1 -12 -3 -20 -6 -17 -5 5 -7 18 -13 91 -1 22 -6 39
-10 37 -4 -3 -10 7 -14 21 -3 14 -12 29 -19 33 -8 4 -16 19 -19 34 -2 15 -8
33 -12 40 -8 12 -14 45 -17 81 -1 9 -4 17 -7 17 -3 0 -6 17 -8 37 -1 20 -6 39
-10 43 -4 3 -9 19 -11 35 -1 17 -7 35 -12 41 -5 6 -6 14 -2 17 3 4 2 7 -4 7
-6 0 -14 17 -18 38 -4 20 -10 42 -15 47 -4 6 -16 35 -28 65 -11 30 -32 81 -46
112 -14 31 -26 63 -26 70 0 8 -4 18 -10 24 -5 5 -10 24 -12 42 -1 19 -6 36
-11 39 -4 2 -2 12 5 21 9 10 9 13 1 9 -7 -5 -12 -1 -12 10 0 20 -4 39 -16 67
-5 11 -9 38 -9 62 -1 23 -5 40 -9 37 -5 -3 -6 9 -4 26 3 17 1 31 -5 31 -5 0
-6 9 -3 20 3 11 2 20 -3 20 -11 0 -12 8 -15 97 -1 40 -5 73 -9 73 -4 0 -5 7
-2 15 4 8 10 15 15 15 4 0 6 -6 3 -14 -3 -7 1 -16 9 -19 10 -4 15 2 15 18 -1
13 -3 24 -7 23 -33 -4 -43 4 -39 27 3 14 2 25 -3 25 -4 0 -7 17 -6 38 1 29 5
38 19 38 10 0 18 -4 18 -8 0 -4 5 -7 11 -5 6 1 15 -8 20 -21 8 -21 7 -23 -14
-17 -22 7 -22 7 -2 -8 12 -10 24 -12 30 -6 13 13 25 11 25 -5 0 -8 6 -17 13
-19 9 -4 8 -6 -2 -6 -11 -1 -11 -4 0 -18 7 -10 9 -15 4 -10 -4 4 -15 1 -24 -7
-9 -8 -19 -15 -23 -15 -5 -1 -7 -4 -6 -8 2 -5 7 -7 13 -5 5 2 15 -5 22 -14 7
-10 13 -13 13 -8 0 6 -5 15 -11 21 -8 8 -8 13 0 18 6 3 11 3 10 -2 -2 -16 13
-53 23 -53 5 0 7 -4 3 -9 -3 -5 2 -17 11 -25 9 -9 13 -24 10 -33 -5 -13 -4
-14 8 -4 10 8 16 9 21 1 3 -5 4 -10 1 -10 -3 0 5 -10 17 -23 12 -13 25 -22 28
-20 7 3 22 -36 20 -50 -1 -5 3 -6 9 -2 5 3 10 2 10 -3 0 -4 9 -18 20 -30 12
-12 17 -22 11 -22 -5 0 4 -14 20 -31 16 -17 27 -35 24 -39 -3 -4 1 -10 9 -13
7 -3 29 -32 47 -64 18 -32 36 -60 41 -61 4 -2 6 -8 2 -13 -3 -5 3 -9 12 -9 10
0 15 -3 11 -6 -8 -9 16 -33 27 -26 5 3 6 0 3 -5 -7 -12 77 -103 94 -103 6 0 8
-4 5 -9 -3 -5 4 -11 15 -14 12 -3 18 -10 14 -16 -3 -7 0 -8 9 -5 9 3 16 1 16
-5 0 -6 7 -11 15 -11 7 0 19 -8 24 -17 8 -14 11 -15 11 -3 1 12 3 12 14 -2 7
-10 16 -15 19 -11 4 3 7 1 7 -5 0 -6 9 -9 20 -7 11 2 20 0 20 -6 0 -5 14 -9
30 -9 17 0 30 4 30 9 0 5 9 13 20 16 11 4 18 11 15 16 -4 5 -1 9 5 9 10 0 29
37 36 68 1 7 -10 15 -27 19 -16 3 -29 10 -29 15 0 5 3 7 8 5 4 -3 8 9 9 26 2
18 7 33 13 35 6 2 8 7 6 11 -3 4 -1 24 4 44 5 22 4 39 -1 43 -6 3 -7 14 -4 25
4 11 2 19 -5 19 -6 0 -9 -4 -6 -8 3 -5 -1 -9 -9 -9 -21 0 -19 10 6 25 12 7 18
16 15 19 -3 3 -13 0 -23 -8 -16 -13 -16 -12 1 15 10 16 13 25 6 21 -8 -5 -11
-3 -8 6 3 8 1 26 -3 42 -7 26 -2 32 24 28 5 -1 5 4 1 10 -5 8 -2 10 9 6 16 -6
-18 64 -35 71 -5 2 -5 9 -1 15 12 20 12 37 0 37 -8 0 -8 3 -2 8 16 11 16 28 0
58 -8 15 -12 31 -9 36 3 4 1 8 -4 8 -6 0 -8 9 -5 20 3 12 -1 22 -11 26 -9 3
-16 10 -16 14 0 5 -4 19 -9 32 -5 13 -9 28 -10 33 -1 6 -10 19 -20 30 -10 11
-24 48 -32 82 -8 38 -17 59 -23 55 -6 -3 -5 2 2 11 8 9 11 21 7 27 -3 5 -1 10
4 10 15 0 3 69 -14 87 -9 8 -13 32 -11 65 1 35 -4 65 -16 90 -10 21 -16 43
-13 49 4 5 1 8 -7 7 -7 -2 -14 7 -16 20 -2 12 -8 22 -13 22 -5 0 -9 7 -9 15 0
9 -8 19 -17 22 -10 4 -36 25 -59 47 -48 47 -96 82 -106 79 -4 -2 -10 6 -13 17
-3 10 -22 25 -40 32 -19 6 -38 21 -41 31 -4 13 -12 17 -25 14 -10 -3 -16 -1
-13 4 6 11 -19 39 -36 39 -6 0 -8 5 -5 10 3 6 -1 10 -9 10 -9 0 -16 5 -16 10
0 6 -6 10 -14 10 -8 0 -17 7 -20 16 -3 8 -10 12 -16 9 -5 -3 -10 -1 -10 4 0 6
-9 11 -21 11 -11 0 -17 5 -14 10 3 6 -4 10 -15 10 -14 0 -24 8 -27 21 -4 16
-8 17 -14 7 -7 -10 -9 -9 -9 5 0 10 -4 16 -9 13 -5 -3 -20 3 -34 14 -14 11
-30 20 -36 20 -6 0 -11 5 -11 11 0 6 -7 9 -15 5 -8 -3 -15 -1 -15 5 0 6 -5 7
-10 4 -6 -4 -9 -1 -8 7 2 7 -4 14 -12 14 -8 1 -21 2 -28 3 -7 0 -10 6 -6 13 4
7 3 8 -5 4 -6 -4 -18 -2 -26 4 -12 10 -15 10 -15 0 0 -9 -3 -10 -13 -1 -10 8
-17 7 -25 -1 -7 -7 -12 -8 -12 -2 0 11 -66 11 -77 1 -3 -4 -13 -2 -20 5 -11 9
-17 9 -24 -3 -5 -8 -9 -9 -9 -3 0 6 -16 11 -35 11 -19 0 -35 -3 -35 -6 0 -3
-15 -6 -32 -6 -18 1 -48 -5 -66 -12 -18 -8 -37 -11 -42 -8 -6 4 -10 1 -10 -6
0 -6 -8 -9 -20 -6 -11 3 -18 1 -15 -3 3 -5 -3 -9 -12 -10 -67 -4 -81 -6 -77
-11 4 -8 -20 -19 -56 -26 -13 -2 -27 -7 -30 -11 -12 -16 -52 -34 -44 -20 4 7
-2 5 -12 -4 -11 -10 -35 -23 -52 -29 -18 -6 -32 -15 -32 -20 0 -5 -7 -9 -16
-9 -8 0 -22 -7 -31 -16 -9 -8 -21 -13 -28 -10 -8 3 -16 -2 -19 -11 -4 -8 -12
-13 -20 -10 -8 3 -22 0 -32 -7 -11 -7 -26 -12 -34 -11 -8 0 -20 -6 -27 -15 -7
-8 -13 -11 -13 -6 0 6 -7 1 -16 -10 -8 -10 -13 -13 -9 -7 4 9 1 11 -9 7 -9 -3
-13 -10 -10 -15 3 -5 -1 -6 -9 -3 -8 3 -17 -2 -21 -12 -5 -13 -9 -14 -21 -4
-8 7 -15 8 -15 3 0 -5 -16 -16 -35 -25 -20 -9 -32 -11 -29 -4 3 6 -2 2 -10 -8
-12 -15 -16 -16 -16 -5 0 10 -3 10 -8 2 -4 -6 -16 -13 -27 -15 -11 -1 -23 -7
-27 -13 -8 -11 -233 -12 -293 0 -22 4 -46 8 -52 8 -7 0 -13 3 -13 6 0 6 -31
11 -95 14 -22 1 -42 5 -45 8 -3 4 -22 10 -42 13 -21 3 -55 9 -75 12 -21 3 -47
11 -58 17 -11 6 -24 10 -29 9 -4 -2 -14 3 -22 9 -10 8 -14 8 -14 0 0 -6 -7
-11 -15 -11 -14 0 -17 -6 -14 -27 0 -4 -8 -10 -18 -14 -15 -6 -14 -8 7 -8 20
-1 22 -3 10 -11 -11 -7 -11 -10 -2 -10 8 0 10 -5 6 -12 -5 -8 -2 -9 9 -5 10 3
17 2 17 -3 0 -6 -11 -11 -25 -11 -24 -1 -35 -3 -52 -9 -5 -1 -16 -2 -25 -1
-10 1 -18 -2 -18 -6 0 -9 -21 -13 -82 -16 -21 -1 -38 -5 -38 -8 0 -3 -11 -5
-25 -4 -14 2 -25 -2 -25 -8 0 -7 -5 -5 -10 3 -9 13 -10 13 -10 0 0 -9 -3 -11
-8 -5 -8 11 -42 16 -42 6 0 -3 -39 -7 -88 -7 -48 -1 -103 -5 -122 -9 -19 -4
-43 -7 -53 -7 -9 1 -15 -4 -11 -10 4 -6 -1 -6 -14 1 -25 13 -35 14 -28 2 7
-11 -13 -9 -31 2 -7 5 -13 4 -13 -1 0 -5 -14 -7 -32 -3 -18 4 -56 4 -85 1 -30
-4 -57 -2 -63 4 -7 7 -10 5 -10 -4 0 -11 -3 -11 -12 -2 -9 9 -15 7 -25 -6 -8
-9 -12 -12 -9 -6 6 13 -81 13 -102 0 -7 -4 -12 -2 -12 6 0 9 -2 10 -8 2 -4 -7
-20 -10 -35 -9 -22 3 -27 0 -23 -12 6 -14 4 -14 -10 -2 -10 8 -25 13 -35 11
-10 -2 -27 2 -38 7 -12 7 -22 7 -26 2 -6 -10 -37 -7 -58 5 -9 6 -9 5 0 -7 10
-12 8 -15 -7 -15 -10 0 -17 4 -14 7 2 4 0 10 -6 14 -5 3 -10 1 -10 -4 0 -6 -5
-11 -11 -11 -5 0 -7 6 -3 13 5 7 0 6 -11 -3 -17 -14 -18 -13 -12 5 7 20 7 20
-8 1 -13 -17 -18 -16 -17 4 0 3 -52 5 -116 4 -65 0 -127 3 -138 7 -13 4 -26 3
-33 -4 -7 -7 -11 -7 -11 -1 0 6 -7 11 -15 11 -18 0 -19 -8 -2 -27 10 -12 9
-12 -5 -1 -10 7 -18 20 -18 27 0 8 -5 14 -11 14 -5 0 -7 -5 -3 -11 4 -8 0 -8
-15 0 -11 7 -21 9 -21 5 0 -3 -6 -2 -13 4 -7 6 -28 13 -47 15 -19 2 -42 7 -50
10 -8 4 -26 8 -40 9 -14 2 -30 6 -35 10 -6 4 -23 5 -39 4 -15 -2 -33 3 -41 10
-10 11 -15 11 -18 1 -4 -9 -6 -8 -6 2 -1 11 -4 11 -18 0 -11 -10 -14 -10 -9
-1 7 11 3 13 -36 16 -7 1 -16 6 -20 11 -5 6 -8 4 -8 -5 0 -11 -2 -12 -8 -3 -4
7 -17 14 -27 16 -11 2 -28 8 -39 12 -11 5 -27 3 -40 -5 -18 -12 -19 -11 -9 2
16 18 7 28 -24 28 -13 0 -23 5 -23 10 0 15 -61 50 -74 43 -6 -3 -5 0 2 8 19
20 15 28 -14 24 -18 -2 -24 1 -20 12 9 22 -18 45 -34 30 -10 -9 -11 -9 -6 1 4
6 2 12 -4 12 -6 0 -9 4 -6 8 2 4 -5 9 -17 9 -17 2 -19 0 -7 -7 9 -6 10 -10 3
-10 -7 0 -16 6 -20 13 -12 20 -76 54 -96 51 -9 -1 -17 1 -17 5 0 4 -9 7 -19 7
-11 0 -18 -3 -16 -6 2 -4 -2 -7 -9 -7 -8 0 -12 10 -10 24 1 13 -2 21 -6 18 -5
-3 -12 0 -15 6 -4 5 -14 8 -22 4 -14 -5 -14 -3 -2 12 9 11 10 14 2 9 -8 -4
-13 -2 -13 4 0 7 -7 9 -16 6 -8 -3 -13 -2 -10 2 2 4 1 14 -5 22 -6 10 -9 11
-9 2 0 -6 -16 5 -36 25 -22 25 -33 31 -28 18 l7 -20 -20 20 c-11 11 -19 23
-17 26 6 10 -22 30 -29 22 -4 -3 -7 -1 -7 6 0 7 -6 11 -14 8 -8 -3 -20 2 -28
11 -12 16 -11 16 7 2 15 -11 14 -7 -5 15 -14 17 -27 32 -29 35 -2 3 -2 -2 1
-11 4 -9 1 -16 -7 -16 -7 0 -11 5 -9 11 2 6 -12 18 -31 27 -19 9 -35 12 -35 7
0 -6 -8 -4 -17 3 -11 10 -14 10 -9 2 9 -16 -6 -17 -22 -1 -9 9 -12 9 -12 0 0
-7 -5 -12 -11 -12 -5 0 -7 5 -4 10 3 6 4 10 1 10 -3 0 -7 -2 -7 -5z m455 -375
c-2 -3 2 -12 8 -20 8 -12 9 -12 4 3 -8 24 11 21 24 -4 9 -16 14 -18 25 -9 8 7
19 9 25 5 5 -3 10 -2 10 4 0 5 -6 12 -12 14 -10 4 -10 6 -1 6 19 2 25 -17 12
-41 -11 -20 -10 -21 2 -11 8 6 24 11 34 9 19 -3 35 9 35 28 0 5 -8 2 -17 -5
-15 -11 -16 -11 -5 1 17 20 15 35 -3 20 -10 -9 -15 -9 -15 -1 0 6 5 11 11 11
6 0 8 8 5 18 -5 14 -4 14 9 -2 8 -11 15 -24 15 -29 0 -4 5 -5 11 -1 7 4 7 -1
-1 -16 -14 -27 -21 -72 -9 -65 4 3 10 1 14 -5 3 -5 11 -10 17 -10 6 0 4 8 -6
19 -19 21 -11 54 12 49 8 -2 16 -13 17 -25 1 -15 -3 -20 -14 -16 -13 5 -14 3
-4 -7 15 -16 43 -22 43 -9 0 5 5 9 10 9 5 0 9 -3 9 -7 -3 -21 2 -26 12 -13 9
12 10 11 5 -5 -6 -19 -6 -19 8 -1 14 18 15 18 13 -2 0 -11 -5 -18 -9 -16 -4 3
-8 -5 -8 -17 0 -17 -3 -19 -13 -10 -8 6 -18 7 -22 3 -5 -4 -5 -1 -1 6 4 7 12
10 17 7 5 -3 6 1 3 10 -5 12 -9 13 -21 4 -8 -7 -13 -8 -12 -3 4 23 -2 26 -17
8 -8 -10 -12 -13 -8 -5 5 11 3 13 -9 8 -10 -3 -17 -2 -17 3 0 6 -3 9 -7 9 -25
-4 -35 3 -30 21 3 11 0 23 -5 27 -7 3 -8 1 -4 -5 4 -7 2 -12 -4 -12 -6 0 -9
-4 -5 -9 3 -5 1 -13 -5 -16 -8 -5 -8 -11 -1 -19 8 -9 7 -13 -2 -13 -7 0 -14 9
-14 19 -1 10 2 18 5 18 4 0 8 10 9 23 2 19 0 20 -10 7 -18 -23 -86 -13 -72 11
4 5 1 10 -4 10 -12 2 -26 5 -38 9 -5 1 -12 2 -16 1 -5 -1 -5 9 -1 21 6 20 5
21 -10 9 -9 -8 -19 -11 -23 -7 -3 3 0 6 8 6 12 0 12 2 0 9 -8 5 -11 16 -8 25
6 14 10 13 30 -7 13 -12 22 -24 21 -27z m4859 -572 c33 -17 49 -37 41 -49 -4
-8 -3 -9 4 -5 14 8 46 -50 38 -70 -3 -9 -1 -12 4 -9 6 3 10 -1 10 -10 0 -10
-5 -14 -12 -10 -7 4 -5 0 5 -8 23 -19 22 -31 -4 -24 -12 3 -19 4 -16 1 9 -9
-78 -85 -104 -91 l-27 -5 3 61 c2 34 -1 64 -6 67 -5 3 -5 13 -1 22 10 21 9 62
-1 80 -5 7 -3 12 4 12 8 0 7 5 -2 17 -12 15 -12 16 3 11 10 -4 19 -1 22 8 7
17 11 17 39 2z"/>
<path d="M8505 3972 c-22 -1 -74 -9 -115 -17 -106 -21 -113 -23 -156 -29 -22
-4 -40 -11 -42 -16 -2 -5 -10 -6 -17 -4 -8 3 -20 2 -27 -2 -7 -5 -19 -9 -26
-10 -22 -4 -162 -78 -162 -86 0 -4 -6 -8 -13 -8 -8 0 -23 -8 -35 -18 -12 -10
-42 -27 -67 -37 -25 -11 -45 -23 -45 -28 0 -4 -4 -5 -10 -2 -5 3 -10 1 -10 -6
0 -7 -3 -10 -6 -6 -4 3 -29 -5 -57 -19 -27 -14 -59 -27 -71 -30 -11 -2 -22 -8
-24 -13 -2 -6 -10 -7 -18 -4 -8 3 -14 0 -14 -7 0 -6 -5 -8 -10 -5 -6 4 -17 1
-25 -5 -8 -7 -15 -9 -15 -4 0 5 -4 3 -8 -3 -5 -7 -20 -14 -35 -15 -15 -1 -29
-8 -31 -14 -2 -6 -15 -11 -28 -10 -13 1 -29 -5 -37 -12 -7 -7 -20 -11 -27 -8
-8 3 -14 1 -14 -5 0 -6 -4 -8 -9 -4 -5 3 -16 -2 -24 -10 -12 -11 -17 -12 -20
-2 -3 7 -6 6 -6 -5 -1 -10 -8 -15 -18 -13 -10 1 -30 -4 -44 -11 -15 -7 -29
-10 -33 -7 -3 4 -6 1 -6 -6 0 -7 -4 -10 -9 -6 -5 3 -12 1 -16 -5 -4 -6 -10 -8
-15 -5 -4 3 -11 -3 -14 -12 -6 -15 -8 -15 -16 -3 -8 12 -10 12 -10 1 0 -7 -6
-11 -14 -8 -8 3 -17 -2 -21 -11 -5 -14 -7 -14 -15 -2 -8 12 -10 12 -16 -3 -3
-9 -10 -17 -16 -17 -5 0 -6 6 -2 13 4 6 -2 4 -13 -5 -11 -10 -27 -18 -35 -18
-9 0 -18 -5 -20 -10 -2 -6 -13 -12 -26 -13 -12 0 -22 -6 -22 -12 0 -5 -5 -3
-10 5 -7 10 -13 11 -17 5 -5 -6 -21 -12 -36 -13 -16 -1 -35 -9 -43 -17 -9 -8
-20 -12 -25 -9 -6 3 -20 -2 -31 -13 -12 -10 -19 -13 -15 -7 3 6 0 11 -8 11 -8
0 -12 -4 -9 -9 5 -8 -31 -13 -68 -10 -10 1 -18 -4 -18 -11 0 -8 -4 -7 -10 3
-5 8 -10 11 -10 5 0 -5 -5 -3 -10 5 -7 11 -10 11 -10 2 0 -7 -5 -10 -10 -7 -6
4 -8 10 -5 14 2 5 -11 1 -30 -7 -19 -9 -32 -19 -29 -24 3 -4 -3 -5 -12 -1 -14
5 -12 8 10 20 33 17 34 26 1 13 -15 -6 -26 -6 -30 1 -4 5 -11 7 -16 4 -5 -4
-9 0 -9 7 -1 9 -5 7 -14 -4 -7 -10 -16 -15 -19 -11 -14 14 -6 -13 13 -44 11
-18 15 -33 10 -33 -6 0 -10 5 -10 11 0 5 -5 7 -10 4 -8 -5 -7 -12 2 -23 10
-12 10 -14 1 -8 -8 4 -13 1 -13 -9 0 -10 5 -13 12 -9 7 4 8 3 4 -5 -4 -6 -12
-8 -18 -5 -7 5 -9 1 -5 -9 7 -18 -25 -33 -44 -22 -5 4 -17 -1 -25 -11 -15 -18
-15 -18 -10 1 5 18 5 18 -6 4 -7 -9 -21 -16 -30 -17 -46 -5 -47 -5 -42 -32 4
-17 -2 -39 -16 -63 -13 -21 -20 -41 -16 -44 3 -4 6 0 6 8 0 12 2 12 9 0 6 -8
14 -10 22 -5 25 15 41 13 36 -5 -4 -18 28 -27 38 -10 3 5 -1 6 -9 3 -9 -3 -16
-2 -16 4 0 15 30 8 41 -9 5 -8 9 -9 9 -4 0 12 60 16 60 4 0 -5 5 -9 11 -9 5 0
7 5 3 12 -5 8 -2 9 10 5 11 -4 28 1 43 13 14 11 30 17 36 13 6 -4 7 -1 2 7 -6
10 -1 12 18 8 15 -3 24 -2 22 2 -3 5 2 10 9 13 8 3 17 1 20 -6 2 -7 5 -4 5 5
1 12 6 15 18 11 11 -4 14 -3 9 5 -4 7 -2 12 3 12 6 0 11 -4 11 -9 0 -6 12 -4
27 4 17 9 32 11 43 5 24 -13 53 9 40 30 -9 13 -10 13 -10 0 0 -9 -3 -11 -8 -5
-11 15 -35 12 -56 -7 -19 -17 -42 -15 -30 3 3 5 10 7 15 4 5 -4 9 4 9 17 0 13
4 18 8 13 11 -16 64 -15 58 1 -3 9 1 11 12 7 14 -5 15 -3 5 8 -7 7 -13 18 -13
23 0 6 7 0 16 -12 15 -22 52 -32 38 -10 -4 7 -3 8 5 4 6 -4 14 0 17 8 7 19 25
22 22 4 -2 -8 6 -12 20 -10 12 2 22 -1 22 -6 0 -12 -32 -11 -49 2 -12 9 -13 8
-8 -6 4 -13 2 -15 -10 -11 -9 4 -14 2 -10 -3 3 -5 -3 -10 -14 -10 -10 0 -19 4
-19 9 0 4 -4 6 -10 2 -5 -3 -7 -12 -4 -20 4 -8 10 -12 15 -9 5 3 6 -3 2 -12
-5 -13 -3 -15 8 -8 8 4 23 9 34 10 62 6 75 9 75 19 0 6 3 7 8 0 10 -13 32 -17
32 -6 0 6 9 8 20 6 11 -2 20 2 20 8 0 7 4 6 10 -3 7 -12 10 -12 10 -1 0 7 6
11 15 8 8 -4 17 -2 20 4 4 5 11 7 16 4 5 -4 9 0 9 7 0 9 3 9 10 -2 7 -12 10
-12 10 -1 0 7 6 11 15 7 8 -3 15 0 15 7 0 8 4 6 10 -3 6 -10 10 -11 10 -3 0 7
3 12 8 12 4 -1 9 0 12 1 3 1 44 3 91 4 47 2 92 7 100 12 8 5 25 9 39 9 14 0
31 4 38 9 19 11 62 15 68 5 2 -5 16 -4 30 1 14 6 31 7 37 3 8 -5 8 -2 0 8 -11
13 -8 15 16 11 16 -2 32 1 35 7 4 6 12 11 17 11 6 0 7 -4 4 -10 -3 -6 1 -7 9
-4 9 3 16 14 16 23 0 13 2 14 9 1 6 -8 7 -19 4 -25 -3 -5 0 -4 8 3 15 14 33
16 24 3 -5 -10 7 -8 51 4 12 4 24 2 28 -3 8 -13 87 -3 104 14 8 8 23 12 33 9
10 -4 19 -2 19 3 0 9 26 21 65 32 6 1 16 11 23 21 7 11 19 19 25 19 7 0 6 -4
-3 -10 -9 -6 -10 -10 -3 -10 7 0 17 8 22 18 6 9 11 13 11 7 0 -10 80 -16 80
-5 0 3 14 6 30 6 17 1 39 9 49 18 10 9 21 13 24 9 4 -3 7 -1 7 6 0 7 5 9 10 6
6 -3 10 -1 10 6 0 7 2 10 6 7 3 -3 26 0 51 8 25 8 49 12 53 9 5 -3 10 0 12 6
2 6 19 12 39 14 19 2 39 5 44 6 6 2 21 -3 34 -10 13 -7 21 -9 17 -3 -3 5 8 12
24 14 17 3 30 0 30 -6 0 -6 4 -5 9 3 8 13 12 13 27 0 11 -9 15 -9 10 -1 -4 6
-3 12 3 12 5 0 13 -5 16 -10 4 -7 11 -8 18 -1 7 5 33 8 59 7 27 -1 49 2 50 5
2 4 11 -4 22 -18 l18 -25 -22 12 c-20 11 -22 10 -17 -4 4 -10 3 -15 -3 -11 -6
3 -10 -1 -10 -10 0 -9 -4 -14 -8 -11 -5 3 -9 -1 -9 -9 0 -12 4 -12 20 2 16 14
19 15 15 3 -7 -21 -88 -49 -111 -38 -12 6 -17 5 -15 -4 2 -8 -5 -12 -16 -10
-10 2 -16 0 -13 -5 3 -4 -6 -9 -20 -10 -14 0 -29 -7 -34 -15 -7 -10 -9 -10 -9
2 0 9 -3 11 -8 4 -11 -16 -45 -27 -36 -11 6 9 4 9 -7 1 -8 -6 -24 -10 -36 -9
-12 1 -20 -2 -17 -7 4 -5 12 -7 20 -4 8 3 14 2 14 -2 0 -5 -25 -16 -55 -26
-35 -11 -53 -21 -49 -28 4 -7 2 -8 -4 -4 -7 4 -12 1 -12 -8 0 -20 -39 -46 -58
-38 -10 4 -12 7 -4 10 7 2 12 11 12 20 0 13 2 13 13 -3 11 -14 16 -15 22 -5 6
9 4 11 -4 6 -28 -18 6 96 37 121 9 8 11 12 5 8 -7 -3 -13 -2 -13 4 0 5 7 11
16 13 10 2 4 8 -16 15 -18 7 -30 9 -26 6 3 -3 0 -13 -7 -22 -10 -14 -10 -14 5
-3 14 11 16 11 11 -7 -3 -12 -8 -19 -12 -17 -3 2 -17 -20 -30 -50 -14 -30 -28
-54 -33 -54 -4 0 -8 -8 -8 -19 0 -10 -10 -31 -22 -47 -13 -15 -17 -25 -10 -20
6 4 12 3 12 -2 0 -6 -7 -13 -16 -16 -8 -3 -13 -10 -9 -15 3 -6 -2 -19 -12 -31
-10 -11 -18 -24 -18 -28 -1 -4 -6 -17 -13 -29 -15 -27 7 -38 34 -18 15 10 22
11 34 2 8 -6 6 -1 -5 11 -12 15 -15 26 -9 30 11 7 28 43 26 54 -1 3 5 9 14 12
12 4 12 2 4 -14 -6 -11 -7 -20 -3 -20 5 0 13 -10 18 -22 6 -12 18 -23 28 -24
11 -1 15 2 10 9 -5 9 -3 9 8 0 9 -8 20 -9 29 -3 20 13 33 12 25 0 -3 -6 1 -7
9 -4 10 4 18 -1 22 -11 5 -13 9 -14 15 -3 7 10 9 11 9 0 0 -7 5 -10 10 -7 6 3
10 1 10 -5 0 -7 6 -10 13 -7 15 6 39 -18 29 -29 -4 -5 1 -2 11 5 12 10 17 10
17 2 0 -7 5 -9 10 -6 6 4 8 10 5 15 -3 4 0 10 7 12 7 3 5 7 -6 11 -9 4 -15 3
-11 -2 3 -5 -3 -8 -12 -7 -36 6 -23 24 17 23 22 0 40 -6 40 -11 0 -6 5 -4 11
4 9 12 10 11 6 -8 -3 -12 -1 -20 4 -17 5 3 18 1 29 -5 15 -8 20 -8 21 2 0 7 4
4 9 -7 6 -13 9 -15 9 -5 1 13 3 13 10 1 7 -11 13 -12 23 -3 11 9 17 9 26 0 9
-9 12 -8 12 6 0 16 2 17 17 5 11 -10 14 -10 9 -1 -4 6 -3 12 3 12 5 0 12 -3
15 -8 2 -4 20 -7 40 -6 20 1 34 -2 31 -6 -3 -4 2 -11 11 -14 10 -4 13 -2 7 7
-4 6 5 4 19 -5 19 -13 29 -15 34 -6 5 7 3 8 -6 3 -9 -5 -11 -4 -6 4 5 8 12 9
19 3 7 -5 29 -9 50 -8 20 1 37 -2 37 -7 0 -5 9 -7 20 -4 14 4 20 0 21 -11 0
-10 3 -12 6 -5 3 10 7 10 18 0 7 -7 10 -16 7 -21 -3 -5 0 -6 6 -2 13 8 53 -29
44 -40 -4 -5 2 -2 12 6 11 8 17 10 13 4 -6 -10 35 -25 59 -23 3 0 16 -7 30
-15 13 -9 24 -12 24 -7 0 6 10 8 21 6 12 -3 27 -1 33 3 6 4 14 7 19 8 4 1 8 2
10 4 8 6 37 7 37 1 0 -4 7 -8 15 -8 8 0 12 4 9 9 -3 4 5 6 18 4 13 -2 29 1 36
6 6 6 12 7 12 3 0 -4 8 -1 17 6 11 9 14 10 9 2 -5 -9 -2 -11 8 -7 9 3 16 11
16 17 0 5 10 2 22 -9 22 -19 22 -19 8 0 -13 17 -13 19 0 14 8 -3 28 4 44 15
19 14 27 16 22 6 -4 -7 -1 -6 7 3 8 10 16 16 19 13 2 -3 24 13 48 35 23 22 47
37 53 33 6 -3 7 -1 3 5 -3 5 -3 12 1 14 5 2 19 16 33 32 14 16 18 26 10 22 -8
-4 -6 0 5 9 11 9 19 21 17 27 -2 6 4 8 12 5 9 -4 18 -2 21 4 4 5 3 8 -2 7 -8
-3 -13 5 -13 22 0 5 6 9 13 7 7 -1 11 6 9 17 -2 12 1 16 9 10 8 -4 10 -3 5 5
-4 6 -2 19 6 28 11 14 11 16 0 9 -11 -7 -12 -4 -5 10 5 11 9 26 8 34 -1 8 2
20 6 25 4 6 4 17 -1 25 -5 8 -5 21 0 30 5 9 5 22 1 29 -5 7 -6 22 -3 34 4 15
2 18 -8 12 -8 -5 -11 -4 -6 3 3 6 2 13 -3 17 -6 3 -8 12 -4 20 3 8 0 15 -6 15
-6 0 -11 11 -11 25 0 14 -4 25 -9 25 -9 0 -22 28 -27 59 -2 8 -7 17 -12 20
-10 7 -26 43 -23 54 1 5 -2 6 -7 3 -10 -6 -83 70 -74 78 3 3 -2 6 -11 6 -9 0
-22 9 -30 20 -8 11 -17 17 -20 13 -4 -3 -7 -1 -7 6 0 7 -4 9 -10 6 -5 -3 -10
-2 -10 3 0 13 -48 32 -85 35 -17 1 -32 5 -35 9 -3 3 -28 7 -55 9 -28 1 -55 6
-61 11 -6 4 -38 9 -71 10 -34 2 -59 6 -57 9 2 4 -3 10 -12 13 -8 3 -13 2 -10
-3 3 -5 -1 -11 -9 -14 -10 -4 -12 -1 -8 10 4 11 2 14 -5 9 -7 -4 -12 -2 -12 3
0 6 -12 11 -27 11 -14 0 -23 3 -20 7 8 8 -32 29 -72 38 -17 4 -31 10 -31 13 0
7 -64 9 -357 15 -62 1 -113 5 -113 9 0 8 -27 4 -36 -5 -4 -4 -12 -3 -18 1 -6
4 -29 6 -51 4z m565 -454 c0 -5 -5 -6 -12 -2 -7 4 -8 3 -4 -4 4 -6 13 -9 21
-5 9 3 15 -1 15 -8 0 -8 6 -5 15 7 13 16 14 16 9 2 -7 -21 6 -23 25 -5 12 10
13 9 7 -7 -5 -14 -2 -17 9 -12 11 4 14 2 9 -6 -5 -8 -2 -9 9 -5 10 3 17 2 17
-4 0 -6 5 -7 10 -4 6 3 10 1 10 -6 0 -9 3 -9 14 0 12 10 18 7 31 -13 9 -14 25
-26 36 -28 11 -2 20 -7 21 -13 0 -5 10 -16 22 -24 11 -8 25 -21 29 -28 5 -7
12 -11 17 -8 5 3 12 0 16 -7 4 -7 4 -10 -1 -6 -4 4 -14 0 -22 -10 -8 -9 -12
-11 -8 -4 7 14 -11 17 -20 2 -10 -16 -25 -1 -19 18 5 15 4 15 -5 1 -11 -17
-57 -18 -54 -1 2 6 -4 9 -13 5 -9 -3 -12 -9 -7 -12 18 -13 12 -29 -9 -23 -13
3 -19 1 -15 -5 4 -6 0 -13 -8 -16 -9 -4 -12 -1 -8 9 3 7 0 14 -6 14 -6 0 -11
6 -11 13 0 8 -10 13 -22 12 -13 -1 -29 5 -36 14 -8 9 -10 10 -6 2 5 -11 -1
-13 -29 -9 -20 2 -33 0 -31 -4 9 -14 -30 -8 -50 7 -10 8 -22 12 -27 10 -4 -3
-5 4 -2 14 10 39 -73 49 -138 17 -24 -12 -26 -12 -21 6 2 10 -3 27 -12 37 -13
15 -14 21 -5 27 7 4 15 2 17 -4 2 -8 8 -7 19 4 9 8 22 13 29 10 8 -3 14 -2 14
2 0 4 17 7 37 7 28 0 37 4 35 14 -3 12 -1 12 13 1 9 -7 15 -9 14 -4 -5 28 1
36 17 24 8 -8 14 -9 13 -4 -3 16 1 19 26 20 14 1 25 -2 25 -8z m-2484 -347
c-10 -15 32 -45 47 -33 8 7 18 7 27 2 15 -10 2 -15 -24 -11 -5 1 -6 -5 -3 -14
9 -22 1 -19 -29 13 -24 25 -25 25 -19 5 4 -14 2 -23 -4 -23 -6 0 -11 6 -11 14
0 8 -4 18 -10 21 -5 3 -7 0 -4 -8 3 -8 1 -18 -4 -21 -5 -3 -8 6 -6 20 3 30
-29 26 -59 -8 -13 -16 -21 -18 -29 -10 -17 17 -33 15 -19 -2 9 -11 10 -20 1
-35 -7 -15 -8 -21 0 -21 18 0 -11 -26 -31 -27 -10 -1 -20 5 -23 14 -5 12 -3
13 7 7 7 -5 5 -1 -6 8 -10 10 -16 22 -12 28 3 6 0 7 -9 4 -9 -3 -16 -1 -16 6
0 6 4 9 9 5 6 -3 14 3 20 13 8 15 6 18 -12 19 -12 0 -16 -1 -9 -4 6 -3 12 -9
12 -14 0 -11 -22 -7 -33 6 -5 6 -5 -1 -2 -15 5 -20 4 -22 -5 -10 -10 12 -11
10 -6 -10 4 -22 4 -23 -8 -8 -7 10 -17 14 -22 10 -5 -4 -6 -3 -2 2 4 5 2 16
-4 25 -10 13 -10 14 2 4 19 -18 33 -16 26 3 -3 8 -2 13 3 10 5 -3 20 4 35 15
23 18 25 19 19 2 -6 -16 -5 -16 10 -4 10 8 20 11 24 7 3 -3 0 -6 -8 -6 -11 0
-11 -2 1 -10 20 -13 33 -13 25 0 -9 15 18 7 30 -8 9 -11 14 -11 26 4 12 16 12
17 -2 12 -9 -4 -16 -1 -16 6 0 7 6 13 14 13 7 0 13 -4 13 -8 0 -5 11 -4 25 1
14 5 31 7 39 4 8 -3 17 -1 21 5 3 6 8 11 11 11 3 0 3 -4 0 -9z"/>
</g>
</svg>
