<?xml version="1.0" encoding="UTF-8" standalone="no"?>
<svg
   version="1.0"
   width="1024.000000pt"
   height="1024.000000pt"
   viewBox="0 0 1024.000000 1024.000000"
   preserveAspectRatio="xMidYMid meet"
   id="svg10"
   sodipodi:docname="ヨ.svg"
   xmlns:inkscape="http://www.inkscape.org/namespaces/inkscape"
   xmlns:sodipodi="http://sodipodi.sourceforge.net/DTD/sodipodi-0.dtd"
   xmlns="http://www.w3.org/2000/svg"
   xmlns:svg="http://www.w3.org/2000/svg">
  <defs
     id="defs14" />
  <sodipodi:namedview
     id="namedview12"
     pagecolor="#ffffff"
     bordercolor="#666666"
     borderopacity="1.0"
     inkscape:pageshadow="2"
     inkscape:pageopacity="0.0"
     inkscape:pagecheckerboard="0"
     inkscape:document-units="pt" />
  <metadata
     id="metadata2">
Created by potrace 1.16, written by Peter Selinger 2001-2019
</metadata>
  <g
     transform="translate(0.000000,1024.000000) scale(0.100000,-0.100000)"
     fill="#000000"
     stroke="none"
     id="g8">
    <path
       d="m 696,9645 c -285.03243,-17.0884 170.518,-490.7949 88,-385 39.86561,-45.3182 254.0159,-360.9731 197.125,-251.625 C 907.34578,8949.5749 1547.8307,8435.492 1186,8736 c 83.2699,-67.5204 202.4472,-150.2798 166.625,-112.125 6.02,22.9552 394.1048,-224.4964 214.75,-67.625 30.9756,-95.6725 180.6508,-35.3955 202.625,-131.25 125.7985,-54.3949 409.5464,-130.6754 264,-131 114.4058,-58.6709 321.4308,-118.3464 226,-91 97.2575,-44.6889 273.7618,-122.2685 240,-103 52.1663,-25.1495 243.8207,-93.7271 180,-79 88.9658,3.244 378.8771,-57.0715 279,-61 52.1121,-72.7281 248.4314,-120.2398 191.625,-92.125 154.0953,-55.4464 386.9007,-54.2278 295.875,-60.875 107.9803,-43.5641 297.8625,-72.2002 235.5,-64 123.7492,-25.7582 373.0686,-62.3163 247.5,-55.125 21.7907,-38.0896 166.2411,-39.6768 144.5,-21.875 153.8425,-31.36 428.68,-40.589 276,-31 120.5314,-26.177 351.6137,-79.5188 285.625,-40.375 82.3344,5.3852 338.9681,-17.9723 294.375,-14.625 90.4001,-8.8063 354.1232,-13.7087 266,-20 67.9174,-31.6294 220.4809,-23.9857 186.625,-64.625 68.1006,72.818 313.1325,38.2103 198.375,-29.375 98.4329,-4.2505 356.4889,52.4867 275,41 20.3561,7.5129 403.6074,-140.1157 214,-53 52.002,19.8911 303.6632,-5.569 224.625,11.625 85.3381,21.1812 278.9285,15.5642 215.375,14.375 64.2979,37.4559 443.2724,108.8974 333,96 61.6137,13.5907 362.2793,62.585 266,36 90.2274,14.3368 365.6012,126.3783 283.5,83.25 102.8665,17.5381 217.8598,35.943 172.25,17.375 106.4375,6.3177 365.1595,132.8872 261,22.7344 82.5576,-8.7459 -12.2697,-28.4733 92.25,-43.3594 -12.3468,-171.058 -484.898,-11.0873 -170,-57 -80.0537,-52.1947 -253.752,-277.0372 -202,-195 -81.9112,-110.0537 86.4069,-60.4558 43,-94 18.9385,38.4483 169.3304,-6.8468 150,-1 60.23,-64.9359 24.6679,-442.1073 38,-312 11.4239,-141.1169 -20.6677,-405.6498 -10,-308 -10.3743,-8.7169 -6.9383,-245.9949 -7,-202 -16.8504,-147.2854 14.5454,-430.8376 3.875,-312.75 -12.2906,-104.7683 7.818,-223.8062 -11.875,-298.25 -22.1631,-35.0963 -58.2247,-381.5832 -41.625,-292.125 -15.0021,-245.855 96.6178,62.615 -15.25,-224.75 38.0061,-14.4501 91.504,-351.5835 61.875,-297.125 -10.0672,-102.2408 141.6839,-443.4986 59.625,-315.75 -49.4421,-102.3967 -148.3966,-531.75 -60.375,-400 73.2884,-266.1149 -46.8428,-590.7402 -22,-510.625 C 7659.6408,3733.1558 7572.9899,3451.8897 7610,3556 c 17.5808,-76.5188 -64.1329,-223.0554 -61.25,-164.625 -193.0502,-198.5797 -195.1967,-339.716 -223.25,-366.875 23.9988,-51.7628 -190.0808,-92.4831 -151.5,-56.5 -70.2589,-17.792 -292.0958,-99.1076 -215.875,-56.75 -114.6668,0.7045 -420.6054,5.7244 -315.625,-4 -86.1043,-89.2267 -517.3688,-177.2564 -330.5,-113.25 -102.9066,-24.2021 -273.6607,241.1042 -266,204 -190.0243,134.2407 -357.2859,-186.0687 -306,-238 -38.1726,-159.1651 267.148,-361.4182 140,-315 67.6562,-29.4066 281.3506,-87.9125 230,-70 52.9339,-43.0269 262.4393,-86.2831 206,-34.125 55.5632,5.7916 327.0923,-60.0052 281.75,-45.75 106.4482,3.1231 297.7755,-33.7163 224.25,-26.125 125.3917,14.0223 302.9275,-40.401 219,-19 44.5321,38.5976 376.1836,136.54 283.75,49.125 -12.6589,-69.6786 324.7747,106.6585 205.25,81.875 134.2039,39.7311 290.6671,149.5997 255.625,111.625 44.0605,100.3135 -85.0606,-102.6436 -35.625,-57.625 -50.3839,-101.2223 -15.8643,-125.4738 -115,-61 -45.9934,-28.0796 -152.9809,-176.6551 -118,-81 -2.468,10.5695 88.1673,-69.0567 -72,-20 -45.3349,-23.8505 -225.4077,-99.682 -218,-71 -79.1338,-32.0284 -234.4303,-86.7178 -202,-81 -49.6581,-40.5782 -316.1894,-175.0476 -243,-130.375 -170.8164,5.8576 -498.205,-141.4763 -362,-87.625 -112.3037,-61.2807 -218.4455,-100.6434 -193.5,-89.125 -112.2752,5.8742 -206.5849,-332.0556 -152.5,-165.875 134.4139,-6.3987 -215.1196,-96.2275 -36,-76 -83.0401,-61.8634 -300.4813,-102.7418 -254,-82 -118.5608,23.916 -446.5934,-56.1587 -354,-55 -163.8687,-35.2323 -262.5209,-78.3864 -312,-52 -146.4194,-17.7893 -206.8296,9.5059 -190,-4 -82.968,-47.7075 -270.6195,-70.6155 -230.375,-35.25 22.2812,0.8738 -447.8113,72.2487 -247.625,37.25 -23.8177,-1.8044 -292.5776,-16.0361 -260.75,15.875 -153.0776,-7.2585 -250.5348,26.0652 -226.25,19.125 -7.7895,-39.4601 -306.772,-17.474 -226,-8 -65.0486,36.6219 -303.359,-1.1175 -231.75,-25.5 -51.858,158.8049 -447.1996,222.7524 -330.25,119.5 -147.274,-21.0205 -493.7197,29.5859 -312,45 -39.0244,51.867 -210.7132,126.4585 -153,58 -118.12,-44.279 -401.2299,27.0913 -235,44 -10.1195,-17.2443 -463.5359,157.9281 -310,80 -58.6442,25.5652 -227.0776,76.0619 -208,38 -100.3042,23.1619 -316.389,178.9503 -249.625,98.375 -84.3789,3.4234 -181.7788,81.7873 -139.375,36.625 -87.2861,-8.697 -313.6013,-32.9851 -274,-1 -76.2685,-4.2056 -241.0843,-300.4944 -243,-136 -7.9251,-110.1015 -408.31996,-360.8429 -400,-157 -26.37176,-35.187 150.42598,-106.7526 95,-102 48.9077,0.033 91.43156,-115.3394 102.875,-33.625 5.62878,-86.7891 154.9191,6.1156 150.125,-22.375 93.1645,-41.007 142.4211,150.5509 151,80 -25.5447,-182.0429 46.1663,-188.3829 50,-104.25 106.0443,89.6047 375.1732,104.0621 272,10.25 92.1077,-32.8824 276.6681,-75.347 181,-22 90.8029,-0.2084 290.5477,-2.7521 95,-25 137.1009,-40.5384 427.9474,-142.5208 291,-62 112.5056,33.5679 59.8925,-14.2083 146,-37 69.5775,73.8559 133.9067,26.4423 81,-1 109.9083,-82.0737 212.3427,-46.2025 119.125,-21.125 107.1485,-13.3515 289.1434,-89.2918 202,-80.625 127.5725,-7.283 191.6825,-25.5894 95.625,-37.75 234.0457,-181.67935 -265.1924,465.704 154.75,-84.375 106.93,-21.7553 285.434,-143.9149 309.125,-113.625 82.6237,-41.82723 213.5374,-107.57451 139.375,-58.5 86.4122,-31.34671 187.7075,-138.88651 153.375,-62.375 7.5066,36.94247 124.9556,-29.78463 117.2433,-30.21137 C 3626.7229,807.96988 3826.8842,760.0409 3735,775 c -14.1599,39.8569 289.0117,23.8679 223,-39 53.6128,-39.10519 295.7934,-80.04615 242.25,-46.375 125.0654,-38.20376 362.4225,-97.56025 272.75,-51.625 97.0714,-5.33576 237.5092,-81.56553 199.75,-56.125 46.6979,45.04528 255.0235,-73.57444 180.25,-49.875 173.1868,-10.65176 294.1148,14.78546 325.0466,-7.16651 C 5238.342,478.29617 5387.0129,506.36319 5337.5,491 c 87.185,-14.06418 314.6245,-9.40709 197.5,-11 48.9456,-3.24866 478.488,81.99634 306,60 77.0128,99.32158 396.306,300.7864 326,167 18.8521,-39.67886 172.2644,26.70063 108,28 82.278,27.1447 227.3765,157.9008 172,118 51.4735,26.43141 95.045,112.73158 95.125,85.25 24.9162,-11.97575 95.1828,91.7914 84.875,75.75 85.8224,62.9311 229.9099,106.1485 136,101 -53.477,96.613 80.0522,231.9416 90,108 11.7843,-78.3106 125.2021,16.3262 72,-5 130.3235,61.7357 136.3597,-4.5372 150,32 15.5646,59.5062 199.0015,104.025 171.375,71 118.9902,124.4117 229.2748,148.181 209.625,135 9.9234,41.4515 96.1595,115.0081 149,57 121.7789,-44.5215 325.2646,115.9388 255,102 -25.723,-31.8659 164.8826,155.2444 126,62 119.9716,-26.0911 -204.3746,-22.2342 133,16 -13.763,42.0136 252.8122,35.5086 199.375,32 52.5421,54.8335 224.4976,66.6513 153.625,62 115.5662,90.2496 191.6369,142.992 155,113 113.4656,51.9654 255.936,217.229 163,135 162.0118,157.2575 -49.4804,14.272 120,175.875 30.039,42.5302 104.6239,270.8532 90,224.125 82.5023,103.9846 139.4964,403.4881 95,332 11.189,109.4235 91.4656,303.7523 38.75,239.125 5.3101,99.5317 86.1323,270.7179 59.75,264.625 -79.9513,91.1677 529.7134,442.8743 66.5,159.25 -67.8934,38.7193 -78.8992,57.5573 -110,53 -57.6998,5.8975 -209.9085,8.9156 -191,69 -37.1279,81.557 -240.2248,176.3881 -118.75,152.75 -79.0402,-50.438 -158.2289,-371.0564 -100.25,-229.75 7.8882,-138.7708 -199.0209,-375.5426 -113,-228 -47.8162,-12.1524 -182.1827,-237.0716 -122,-181 -119.5402,-104.6527 -271.702,-224.1767 -205,-181 -109.2658,-126.7418 -205.3557,-186.533 -217.25,-128.75 7.8564,-50.1867 -96.7288,-160.1709 -82.75,-116.25 -39.5945,-64.291 -94.69,-143.762 -84,-85 -158.636,-33.4076 -3.3212,139.0322 -9.5,59.875 69.9476,42.9691 205.3936,221.3564 131.5,144.125 57.0536,90.8715 132.8435,195.0963 113,145 134.2167,235.1709 -29.076,1.0019 100,231 46.6803,71.391 48.3383,157.8702 78.875,185.375 94.0745,71.1458 183.2653,269.7711 127.125,186 -53.7808,76.0545 149.5709,344.2258 122.875,303 11.4363,33.4324 105.7004,319.2742 66.125,240.625 24.1208,161.7275 29.2655,592.5841 59,423 35.4596,213.7508 -81.5715,-36.5339 -70.75,33.375 -1.7682,275.7978 -98.5361,209.4544 -74.25,312.625 -28.5023,85.3398 -69.5115,382.3159 -51,291 49.8148,81.3087 -223.4515,601.9636 -97.375,387.5 20.2439,12.5311 -2.9688,155.5711 -16.25,166.375 -53.0909,91.245 -95.6205,196.5779 -75.375,175.125 27.2805,41.9033 -9.2011,197.038 -28,165 -18.6339,65.4735 -93.8713,313.1693 -37,260.125 30.5726,115.9259 49.2987,370.7217 4.625,326.5 -28.6209,131.5249 -6.7839,341.8473 -7.625,239.375 -11.155,29.6664 -15.2189,144.8551 -8,128 33.2918,162.4558 15.7296,257.7452 16.125,271.125 64.5145,30.7028 89.8347,247.9008 49.875,200.875 107.9653,116.7319 246.1782,-197.0341 226,-174.875 52.351,-35.6476 -188.1713,-242.4964 -106,-191.125 -185.154,-104.1221 -14.3724,-159.1626 -11,-221 34.8751,66.4675 53.8309,-232.6634 -6.875,-36.625 39.7469,-129.3318 184.2781,-477.4338 118.875,-288.375 129.8739,-138.3442 175.6963,-295.9845 269,-453 69.5387,-61.2858 189.7834,-232.8643 143.125,-222.25 13.3044,-63.8876 191.5447,-222.4361 130.875,-160.75 242.167,-174.6486 114.8419,-86.2055 298,-193 60.3433,7.7694 212.2914,186.2659 173,127 -15.8,129.5939 -132.1281,0.671 -78.5,42.5 22.6277,142.8779 206.4917,296.7639 107.5,215.5 -57.0722,74.098 -101.6041,268.6864 -43.25,144.5 4.0587,-1.0848 18.3367,210.4979 27,126.875 70.0262,70.124 128.1979,136.0361 19.25,173.625 -38.5281,58.8753 1.7535,161.3983 -8,216 -2.6286,21.0945 -125.4895,915.0007 -76,316 -51.878,9.331 -70.8268,168.74 -50,139 -20.4846,34.996 -45.3216,210.6723 -16,144 84.9461,-41.6349 -10.3975,37.9842 -19.25,131.25 62.6384,137.3471 16.8425,383.8578 1.625,320.5 -66.8819,79.4594 -241.109,413.1358 -182.375,276.25 -87.3753,42.997 -208.9915,241.8188 -161.25,155.75 -26.4435,-8.4938 -171.2057,175.762 -136.875,109.375 -22.0319,-38.8091 -506.2884,642.7845 -161.875,155.875 -83.1071,42.9463 -293.7598,224.684 -212,147 -123.7976,84.7736 -454.2461,256.9431 -310,201 -197.2281,24.3303 -392.2652,79.8763 -585,29 -205.5203,-10.1945 -346.4201,-90.8469 -551,-134 -143.622,-86.7918 -328.3221,-102.4778 -456,-169 -110.7184,-28.2627 -459.4939,-174.519 -338.875,-123.75 -108.4635,-11.3158 -468.3873,93.817 -351.125,33.625 -79.9297,12.2788 -250.6538,62.5392 -183,38.125 -187.8689,58.9009 -385.0998,108.4622 -569,185 -110.6115,-67.4212 15.1164,-239.2688 -25.375,-184.5 -105.8976,28.6834 -521.2004,-23.3154 -399.875,-30 -114.3684,21.1944 -315.5573,48.9623 -265.75,27.5 -111.2892,-2.219 -328.862,-4.7157 -285.375,-8 -56.8076,-0.3804 -337.6618,-45.7984 -275.625,-11 -84.2494,43.4706 -293.8925,-9.8532 -218.5,18.5 5.4525,35.1398 -298.2998,-16.2004 -219.5,7.5 -36.8291,42.908 -305.3486,57.0987 -233,50 -50.8519,-15.8403 -309.1517,25.3768 -245,35 -158.5985,41.4438 -585.639,104.0749 -447,81 47.3587,16.6354 -600.4081,195.1173 -231,84 -48.3778,24.0113 -230.6552,60.5832 -181,72.5 -125.0478,46.0098 -417.1791,189.4512 -360,145.5 -101.0838,-66.3045 -337.1926,469.8591 -226.3906,236.5312 C 1327.744,9062.4797 1044.3629,9308.2425 1333,9164 c -114.9139,14.9432 -194.1342,114.428 -175,102 48.9375,39.2812 -455.92573,283.359 -128,124 -79.17832,80.1476 -144.12877,148.1951 -152,151 5.10031,29.5192 -104.83248,154.7192 -182,104 z m 794,-675 c -40.3744,-101.5659 45.3653,-271.1236 46.125,-144 57.7512,61.2864 77.0074,19.4029 57.875,-6 83.2645,-38.9523 -53.6935,68.9449 -44,-19 -65.1827,60.2268 -157.5608,38.9953 -119,30 -43.4134,132.1551 -81.9395,173.5733 -82,74 38.8301,144.642 156.0805,-112.1795 96,83 0.998,29.5435 33.755,-41.1686 45,-18 z m -60,-7150 c -102.1801,-95.7763 122.3735,-20.1376 50,-30 -19.9122,-110.0508 -140.8177,-114.5818 -90,-80 -30.2947,14.6143 -88.4802,130.3343 -121,81 107.9638,65.4427 284.213,123.7104 145.875,24.625 z m -172,-121 c 142.3823,-96.9843 243.6959,-190.6794 219,-141 -44.1618,40.0828 -128.6034,-79.7508 -126,-63 -62.3675,-9.7585 116.7794,109.5299 34.875,82.5 -147.8965,60.2691 -75.7783,31.2159 -162.25,7.875 -9.912,150.1988 9.7659,43.0553 34.375,113.625 z"
       id="path4" />
    <path
       d="m 4145,5501 c -135.1114,-14.0397 -451.6823,-53.2061 -316,-32 -100.7006,17.3731 -508.6989,-94.4677 -364,-47 -224.8922,-56.654 -468.1114,-69.9637 -674.375,-162 -102.7844,-34.9536 -602.9489,-243.0276 -440.625,-212 -217.8662,-111.7355 -130.6409,-48.0885 -287,-146 -139.4522,-117.0421 -308.6238,-322.4866 -299,-542 -18.1444,-89.6566 35.7708,-303.4454 3.625,-262.875 -13.3953,-88.9251 110.9026,-265.87 91.375,-232.125 76.4809,-92.9894 152.8047,-166.8139 133,-151 83.1203,-66.8878 163.2822,-97.7552 149,-89 -49.4505,-52.1452 482.8599,-95.237 230,-91 11.9576,5.4102 191.2398,-85.1493 151.625,-52.125 27.3907,34.3595 231.7317,52.6194 209.75,40.375 81.0274,48.5278 308.6881,154.829 212.625,81.75 145.8457,79.5306 328.8474,236.9978 250,207 59.2468,15.4295 193.4397,113.4689 162,60 84.3609,58.1385 307.4411,144.9276 200,90 28.4001,20.2978 178.044,50.7718 199,42 67.666,100.4665 182.9237,137.6348 0,106 30.7766,7.847 56.7174,-124.1111 79,-78 -57.7667,63.6993 210.445,78.951 95,2 54.8975,42.1413 250.0597,81.9728 190,114 171.2689,214.2424 -250.642,358.0844 -272.875,349.75 -115.0132,-3.1989 -434.8094,85.251 -342.125,73.25 -97.3383,9.1011 -100.9965,9.0881 -65,45 74.0285,24.7312 312.4344,44.2339 220,25 130.9554,-19.8952 399.7438,26.3647 300,31 30.8908,-23.638 476.9636,-59.4045 376,-57 132.8442,-29.4823 242.9934,249.831 217,33 94.5866,-27.0692 426.7537,-75.468 328,-82 51.3716,59.8161 307.6925,103.7178 218,45 77.326,42.8887 284.6558,-3.1763 199,5 114.9175,30.3554 304.0019,9.8542 207,15 67.5661,1.2511 253.9749,58.6992 200,37 97.3296,-14.8491 379.9359,1.7926 209.625,27.5 22.0902,37.4907 243.7451,90.0665 156.375,41.5 96.6695,-37.2404 251.2237,-8.2255 164,-6 78.1093,14.9871 363.7904,45.832 262,33 41.4149,4.2752 208.4325,16.2702 141,23 80.3677,-7.2855 252.9598,-31.4356 223,-33 80.5603,-20.7125 236.8283,-2.6086 172,5 72.6058,-2.811 174.4474,99.1454 98.75,58.75 21.5609,-4.3136 -5.9517,236.305 73.25,123.25 -95.266,41.5813 19.6608,169.0838 -159,133 -127.9603,-10.2779 -67.5304,-74.3287 -16,-73 -103.5295,38.812 -135.9531,280.3883 -81,213 -95.6347,-52.8497 -71.5106,145.4234 -109,57 -42.5368,106.5223 -279.9023,-10.7154 -230,-36 -124.5403,-82.9576 -270.1143,-95.343 -227,-54 -63.1645,44.7348 -399.3102,-43.2386 -333,-31 37.9723,34.7544 93.0208,28.4219 -108,56 -99.1147,-106.6033 -308.8596,-58.097 -187,-9 -25.4737,51.3937 -220.2104,-10.4867 -195,24 -99.8341,37.7527 -436.3443,68.0232 -318.5,55.25 -94.3076,12.8935 -369.2156,65.8957 -284.5,50.75 -121.1948,-7.2258 -383.7582,-5.0671 -285,24.5 -70.3127,75.0495 -315.0903,119.5354 -227,91.5 -75.7923,34.0758 -190.4018,63.1125 -300,59 z M 3024,4649 c 98.3183,-27.1041 315.6068,-13.4139 242,-25.5 120.2739,-10.6903 -147.6525,-75.0178 -164,-86.5 -15.647,-129.6355 -134.3914,-105.6307 -148,-113 -105.3745,-15.0744 -171.3383,-52.5413 -151,-117 -22.7624,93.428 -172.3353,110.9636 -120,27 2.0695,-79.1155 -146.7954,-149.1287 -170,-74 -74.5535,-162.534 128.0197,130.6169 41,86 46.1274,133.4794 380.6231,279.3267 291,244 26.1958,59.9161 435.578,9.294 153,34 1.6828,-3.8543 25.4533,61.2348 26,25 z"
       id="path6" />
  </g>
</svg>
