<?xml version="1.0" standalone="no"?>
<!DOCTYPE svg PUBLIC "-//W3C//DTD SVG 20010904//EN"
 "http://www.w3.org/TR/2001/REC-SVG-20010904/DTD/svg10.dtd">
<svg version="1.0" xmlns="http://www.w3.org/2000/svg"
 width="1024.000000pt" height="1024.000000pt" viewBox="0 0 1024.000000 1024.000000"
 preserveAspectRatio="xMidYMid meet">
<metadata>
Created by potrace 1.16, written by Peter Selinger 2001-2019
</metadata>
<g transform="translate(0.000000,1024.000000) scale(0.100000,-0.100000)"
fill="#000000" stroke="none">
<path d="M696 9645 c-4 -12 -17 -15 -51 -11 -25 2 -45 0 -45 -5 0 -5 -3 -8 -7
-6 -5 1 -8 -1 -8 -4 0 -4 -8 -15 -17 -25 -15 -18 -15 -21 2 -56 10 -21 25 -45
35 -54 9 -9 14 -23 11 -30 -3 -8 0 -11 9 -7 9 3 18 -2 21 -12 4 -9 18 -28 30
-41 13 -12 24 -27 24 -31 0 -5 12 -17 28 -27 15 -10 19 -15 8 -12 -11 4 -3 -8
19 -29 22 -19 35 -35 29 -35 -5 0 -1 -5 9 -11 9 -5 17 -16 17 -22 0 -7 9 -19
20 -27 11 -8 20 -23 20 -33 0 -10 5 -15 10 -12 6 3 10 -1 10 -9 0 -9 5 -16 10
-16 6 0 10 -7 10 -16 0 -8 4 -12 10 -9 8 5 14 -14 12 -36 -1 -4 6 -6 16 -5 11
1 16 -5 14 -17 -2 -9 4 -20 13 -23 8 -3 15 -12 15 -19 0 -8 4 -17 10 -20 6 -4
7 1 4 12 -5 14 -4 15 4 4 6 -8 8 -20 5 -28 -3 -7 0 -13 6 -13 6 0 11 -7 11
-15 0 -8 5 -15 10 -15 6 0 9 -3 8 -7 -1 -5 5 -21 15 -38 9 -16 17 -25 18 -20
0 6 4 -1 8 -15 4 -14 14 -24 23 -24 10 1 14 -4 11 -12 -3 -8 2 -17 11 -20 9
-3 16 -16 16 -28 0 -17 2 -18 10 -6 9 13 14 7 11 -12 0 -4 6 -5 14 -2 8 4 17
-1 21 -10 3 -9 10 -13 15 -10 5 3 9 0 9 -6 0 -6 3 -9 7 -7 11 7 33 -19 25 -27
-3 -4 2 -4 12 0 15 6 17 4 11 -6 -6 -10 -1 -12 21 -7 16 3 23 4 17 1 -21 -9
-15 -27 7 -21 10 3 19 2 18 -2 -3 -24 4 -34 12 -16 8 19 9 19 9 1 1 -14 4 -16
14 -7 14 11 27 5 27 -13 0 -6 -5 -4 -10 4 -5 8 -10 10 -10 4 0 -6 8 -18 17
-25 11 -10 14 -10 9 -1 -4 7 -1 12 9 12 9 0 14 -4 11 -8 -3 -5 0 -9 7 -10 7
-1 23 -3 37 -4 14 -2 33 -14 42 -28 10 -14 18 -20 18 -13 0 6 -4 15 -10 18 -5
3 -10 11 -10 17 0 6 9 1 20 -12 12 -14 25 -20 36 -16 14 5 15 4 4 -9 -11 -13
-10 -14 5 -9 14 6 16 4 10 -7 -8 -12 -6 -12 8 0 15 12 21 9 18 -11 0 -5 8 -8
18 -8 11 0 23 -9 26 -20 4 -11 10 -18 14 -15 5 2 17 -2 27 -9 14 -10 24 -11
38 -4 16 9 18 7 13 -6 -4 -10 -3 -15 2 -12 5 3 12 -1 15 -10 3 -8 10 -12 16
-9 12 7 53 -19 43 -28 -3 -4 0 -7 7 -7 7 0 19 -8 27 -17 8 -10 12 -12 8 -5 -3
6 -1 12 4 12 6 0 11 -10 11 -22 0 -21 0 -21 22 -2 13 12 18 13 13 4 -12 -19
-15 -40 -7 -38 4 1 17 -3 28 -10 12 -6 24 -8 28 -5 3 3 6 2 6 -4 0 -5 6 -10
13 -10 6 0 23 -3 36 -7 16 -6 21 -5 17 3 -5 7 -1 9 8 5 9 -3 16 -10 16 -14 0
-14 60 -31 61 -17 0 7 4 3 9 -8 5 -11 9 -14 9 -7 1 7 6 10 11 7 6 -4 7 -12 4
-18 -4 -7 -4 -9 1 -5 4 4 15 2 23 -5 13 -9 14 -9 8 0 -5 9 -2 11 8 7 9 -3 13
-11 9 -18 -4 -6 1 -5 10 3 15 12 21 9 19 -10 -1 -4 8 -5 18 -2 11 3 20 1 20
-4 0 -5 10 -10 22 -10 13 -1 24 -7 26 -13 2 -5 7 -8 12 -5 5 3 14 -1 22 -8 7
-8 23 -13 35 -12 12 1 22 -1 21 -4 -2 -18 3 -24 10 -13 6 9 13 7 29 -8 15 -14
23 -16 26 -7 3 7 6 3 6 -8 1 -17 3 -17 11 -5 8 12 10 12 10 -5 0 -17 2 -17 10
-5 8 12 10 12 10 -5 0 -11 4 -15 8 -10 10 15 38 12 34 -3 -1 -7 3 -12 9 -12 5
0 7 -6 3 -12 -6 -10 -4 -10 8 0 14 11 19 10 31 -8 11 -16 16 -18 20 -8 4 9 6
9 6 -3 1 -12 9 -15 34 -12 24 3 29 2 17 -6 -8 -6 -10 -11 -4 -11 6 0 14 3 18
7 10 10 46 11 40 1 -3 -4 6 -8 20 -8 14 0 26 -6 26 -12 0 -8 3 -9 8 -3 12 17
32 16 25 -2 -4 -11 -3 -14 6 -9 6 4 19 2 28 -6 12 -9 15 -9 9 -1 -5 10 -1 11
21 2 15 -5 30 -15 34 -20 3 -5 15 -11 28 -14 12 -2 19 0 16 6 -4 5 -1 9 4 9 6
0 11 -6 11 -14 0 -13 21 -27 45 -31 6 0 9 -6 8 -12 -1 -5 9 -9 22 -7 18 1 25
-3 25 -14 0 -14 2 -14 9 -3 7 11 9 11 14 0 4 -11 6 -11 6 0 1 12 3 12 14 -1 6
-9 23 -19 37 -23 19 -5 21 -4 10 4 -13 9 -13 11 3 11 9 0 17 -4 17 -10 0 -5 7
-7 16 -3 11 4 22 -1 30 -12 8 -11 14 -13 14 -6 0 9 5 8 16 -3 21 -21 30 -20
13 1 -13 15 -12 15 16 1 17 -8 36 -13 44 -10 9 3 11 0 7 -7 -6 -8 3 -11 29 -9
22 1 40 -3 45 -12 7 -11 11 -11 24 -1 12 10 16 11 16 1 0 -7 8 -10 20 -7 10 3
25 -2 31 -10 8 -8 26 -13 45 -11 18 1 37 -2 41 -6 4 -5 2 -6 -4 -2 -7 4 -13 2
-13 -3 0 -14 13 -14 28 1 9 9 12 9 12 -1 0 -7 5 -9 10 -6 6 3 10 1 10 -5 0 -6
5 -8 10 -5 6 4 18 1 27 -7 14 -11 16 -11 8 2 -7 12 -6 13 7 3 8 -7 18 -10 21
-6 4 3 7 1 7 -5 0 -6 11 -9 26 -6 16 3 23 1 19 -6 -3 -5 -1 -10 4 -10 6 0 11
6 11 13 0 8 4 7 10 -3 9 -13 11 -13 20 0 8 12 10 10 10 -10 0 -20 2 -22 10
-10 7 12 12 12 22 2 6 -6 22 -12 35 -12 13 0 23 -6 23 -12 0 -8 3 -9 8 -3 13
18 35 17 28 -2 -6 -15 -4 -14 15 3 12 10 19 13 14 5 -6 -11 -4 -13 7 -8 9 3
21 0 27 -6 8 -8 11 -8 11 2 0 10 3 11 14 2 11 -9 15 -9 19 1 4 10 6 10 6 -1 1
-11 4 -11 16 -1 13 11 14 10 9 -4 -7 -19 7 -21 24 -4 9 9 12 9 12 -1 0 -8 13
-12 39 -10 25 2 46 -3 58 -13 19 -16 43 -14 43 4 0 7 -5 6 -14 -1 -11 -9 -16
-9 -22 1 -4 7 -4 10 1 6 4 -4 14 -3 21 3 9 8 16 5 24 -11 11 -20 13 -21 37 -5
14 10 22 12 19 6 -5 -7 7 -9 34 -6 22 2 38 0 35 -4 -6 -10 47 -7 63 3 8 5 10
2 6 -9 -5 -13 -2 -14 20 -5 14 5 26 6 26 1 0 -4 6 -8 13 -8 6 0 23 -3 37 -7
20 -6 22 -5 10 4 -12 8 -9 9 14 4 19 -5 31 -2 38 7 8 11 9 11 5 -3 -3 -9 1
-19 9 -22 10 -4 13 -2 8 7 -5 8 -2 7 9 -2 14 -11 17 -11 17 0 0 11 2 11 10 -1
5 -8 10 -12 10 -9 0 4 18 3 40 -1 26 -5 41 -3 44 4 3 7 5 7 5 -1 1 -7 6 -13
12 -13 5 0 7 5 3 11 -4 8 -1 8 12 2 11 -5 38 -9 61 -8 23 1 40 -1 38 -5 -2 -4
2 -7 10 -7 8 0 12 4 9 9 -3 4 0 8 5 8 6 0 11 -4 11 -10 0 -5 5 -10 11 -10 5 0
7 5 3 11 -5 8 -1 8 13 0 14 -7 24 -7 33 2 10 9 11 9 6 0 -5 -8 -1 -13 11 -14
10 0 30 -2 45 -3 16 -1 24 3 21 9 -3 5 0 5 7 -2 7 -6 19 -9 27 -6 7 3 23 -3
34 -13 19 -17 20 -17 13 2 -7 17 -6 17 9 5 14 -11 20 -11 33 -1 12 11 15 11
12 -1 -2 -8 3 -13 10 -12 6 2 12 -2 12 -7 0 -6 6 -10 14 -10 8 0 17 -6 19 -12
4 -9 6 -8 7 2 0 10 6 6 15 -10 8 -14 14 -20 15 -13 0 13 25 12 37 -2 4 -4 3
-5 -4 -1 -6 3 -14 2 -17 -3 -4 -5 6 -8 21 -6 16 2 34 -2 41 -7 9 -8 11 -7 6 6
-5 12 -2 15 10 10 12 -4 16 0 16 15 0 12 5 21 11 21 5 0 7 -4 4 -10 -3 -5 -1
-10 5 -10 6 0 9 -4 5 -9 -3 -5 -1 -13 5 -16 6 -4 9 -1 8 6 -2 6 2 13 9 16 7 3
10 -3 6 -16 -4 -14 3 -24 26 -35 23 -13 31 -13 31 -4 0 8 3 9 8 3 9 -13 38
-12 35 1 -1 5 7 10 18 10 10 0 19 -3 19 -6 0 -11 35 -8 42 4 5 8 8 7 8 -2 0
-8 11 -3 27 12 26 24 28 25 47 8 11 -9 16 -11 12 -4 -6 9 -1 11 18 8 15 -3 24
-1 21 4 -3 4 2 11 11 14 8 3 13 2 10 -3 -3 -5 5 -11 19 -13 15 -3 22 -1 18 5
-4 7 0 8 11 4 14 -6 17 -3 12 10 -5 15 -3 14 9 -2 13 -16 17 -17 24 -6 7 11
13 9 29 -7 14 -14 22 -17 26 -9 3 9 5 8 5 -1 1 -7 5 -10 11 -7 5 3 10 2 10 -3
0 -5 14 -8 30 -7 27 2 29 1 18 -14 -10 -12 -7 -12 16 3 16 10 26 14 23 9 -3
-5 3 -9 13 -9 15 0 16 3 8 13 -9 11 -6 12 14 4 18 -7 29 -6 38 2 9 9 11 9 7 1
-4 -7 0 -14 8 -17 8 -4 12 -1 9 6 -3 8 4 13 15 13 11 0 17 -5 14 -10 -4 -5 1
-7 11 -3 10 4 20 7 22 7 3 0 2 6 -2 13 -5 7 -1 7 10 -2 15 -13 19 -13 27 0 5
8 9 9 9 3 0 -7 9 -14 21 -17 15 -4 18 -2 10 7 -7 8 -4 12 12 12 12 0 25 -5 30
-10 4 -7 10 -8 15 -1 10 13 35 18 27 5 -8 -12 -3 -13 29 0 21 8 26 6 26 -6 0
-8 5 -12 10 -9 6 4 8 12 4 18 -3 7 2 3 10 -7 10 -12 16 -15 16 -7 0 8 6 11 16
7 8 -3 12 -2 9 4 -3 6 -1 10 4 10 6 0 11 -5 11 -10 0 -6 10 -2 22 10 12 11 27
20 32 20 6 0 4 -5 -4 -10 -10 -7 -11 -10 -2 -10 7 0 17 10 23 23 8 19 17 23
50 21 21 -1 39 2 39 6 0 4 11 10 25 12 13 3 22 2 20 -2 -2 -4 2 -7 10 -7 8 0
13 5 12 10 -1 5 5 11 13 13 8 1 25 5 38 8 12 3 20 1 18 -3 -7 -10 32 -7 41 4
5 4 2 5 -4 1 -7 -4 -13 -2 -13 3 0 13 17 15 24 3 7 -11 61 -6 59 6 -3 13 39 3
49 -12 5 -7 8 -4 8 7 0 15 3 16 21 6 13 -7 19 -7 15 -1 -3 6 -2 13 4 17 5 3
10 1 10 -6 0 -9 3 -9 14 0 11 9 16 9 21 0 5 -8 9 -8 14 0 4 6 22 11 40 13 18
1 34 5 37 9 2 4 14 5 26 1 16 -4 19 -2 13 9 -7 11 -6 12 6 2 11 -9 19 -9 26
-2 8 8 13 7 18 -1 5 -8 14 -5 31 11 13 12 24 19 24 15 0 -4 7 -1 15 8 9 8 22
13 30 10 8 -4 15 -1 15 6 0 9 4 9 18 -1 9 -7 14 -9 10 -5 -12 14 34 35 50 23
8 -6 12 -5 12 4 0 11 2 11 10 -1 8 -12 10 -12 10 -1 0 8 3 11 7 8 3 -4 12 -2
19 4 8 7 14 6 20 -2 5 -8 3 -9 -6 -4 -9 5 -11 4 -6 -3 5 -9 15 -7 34 5 26 17
27 17 12 -2 -14 -19 -14 -19 5 -3 15 12 25 14 38 7 9 -6 17 -7 17 -3 0 3 6 1
14 -5 11 -10 17 -8 25 6 10 17 10 17 11 1 0 -13 8 -18 26 -18 14 0 23 -4 20
-8 -3 -5 1 -9 9 -9 8 0 15 5 15 11 0 6 5 4 10 -4 8 -12 10 -12 10 -1 0 8 3 11
6 8 4 -4 16 4 28 17 26 28 61 43 53 22 -6 -14 16 -16 29 -3 4 3 16 2 27 -4 14
-8 18 -8 13 0 -10 16 3 13 21 -4 12 -13 18 -13 32 -3 14 12 15 11 2 -4 -12
-16 -11 -18 9 -18 13 0 20 -3 16 -7 -12 -13 -35 -11 -40 3 -3 8 -11 14 -18 14
-11 0 -11 -2 0 -8 18 -12 4 -42 -19 -42 -10 0 -19 -5 -19 -11 0 -5 5 -7 12 -3
7 4 8 3 4 -4 -7 -12 -37 -5 -48 12 -4 6 -6 1 -6 -11 1 -11 7 -19 14 -16 7 2
14 0 18 -5 3 -5 -5 -8 -17 -7 -12 1 -29 -3 -37 -8 -12 -9 -13 -9 -2 3 23 26
15 58 -14 54 -15 -1 -30 -7 -33 -12 -3 -5 -13 -8 -23 -7 -9 2 -18 -6 -21 -17
-4 -13 -10 -17 -18 -12 -8 5 -10 3 -5 -5 5 -8 0 -14 -13 -18 -11 -3 -18 -9
-15 -14 3 -5 -2 -6 -10 -3 -10 4 -16 1 -16 -8 0 -7 -9 -22 -21 -31 -11 -10
-18 -24 -16 -31 3 -8 -3 -12 -17 -12 -11 1 -20 -4 -19 -11 2 -7 -6 -10 -18 -8
-17 4 -19 2 -9 -10 10 -12 9 -15 -4 -15 -10 0 -14 -4 -11 -10 3 -6 1 -10 -5
-10 -6 0 -8 -4 -5 -10 3 -5 0 -10 -7 -10 -9 0 -9 -3 2 -10 11 -7 11 -10 2 -10
-10 0 -10 -3 0 -13 10 -12 15 -12 26 0 7 7 18 11 23 8 13 -8 11 -16 -2 -13 -6
2 -13 -3 -14 -10 -2 -7 -1 -8 2 -2 3 7 10 7 20 -1 8 -7 13 -8 12 -3 -4 21 2
26 18 13 9 -8 14 -9 10 -3 -4 7 0 17 7 23 12 10 13 8 9 -10 -5 -18 -3 -21 11
-16 10 4 15 3 11 -3 -3 -6 1 -10 10 -10 10 0 13 5 9 12 -4 7 -3 8 5 4 6 -4 19
-2 28 6 13 10 15 10 9 0 -6 -9 -1 -11 18 -8 15 3 24 1 21 -5 -4 -5 -11 -7 -16
-4 -5 4 -9 1 -9 -4 0 -6 6 -11 14 -11 8 0 18 -5 22 -12 5 -7 3 -8 -7 -2 -9 5
-8 -1 4 -19 10 -15 15 -33 11 -39 -5 -8 -1 -9 11 -4 15 5 16 4 5 -9 -7 -9 -10
-18 -7 -21 3 -3 2 -17 -3 -30 -6 -16 -6 -24 1 -24 6 0 8 -4 5 -8 -2 -4 -1 -14
4 -22 6 -10 3 -21 -7 -32 -9 -10 -11 -18 -5 -18 11 0 11 -38 -1 -57 -3 -5 -4
-13 0 -17 9 -8 10 -106 2 -100 -4 2 -4 -9 1 -26 6 -21 5 -30 -3 -30 -8 0 -7
-3 2 -9 11 -7 11 -9 0 -14 -11 -4 -11 -6 -1 -6 10 -1 10 -6 2 -21 -6 -11 -7
-20 -3 -20 4 0 1 -5 -7 -10 -12 -8 -12 -10 -1 -10 10 0 11 -3 2 -14 -6 -7 -8
-22 -4 -31 5 -14 3 -16 -7 -10 -10 6 -11 4 -4 -6 12 -20 14 -39 3 -39 -6 0 -5
-8 1 -20 8 -15 8 -20 -1 -20 -8 0 -8 -5 2 -16 10 -13 10 -17 0 -24 -9 -5 -10
-9 -2 -14 8 -5 7 -14 -4 -29 -8 -12 -15 -26 -15 -32 0 -5 5 -3 10 5 6 9 10 10
10 3 0 -6 -4 -14 -8 -17 -10 -6 -8 -99 3 -116 5 -9 4 -11 -3 -6 -7 4 -12 2
-12 -3 0 -6 6 -11 13 -11 9 0 8 -3 -2 -9 -11 -7 -10 -11 5 -20 15 -8 16 -10 3
-11 -17 0 -15 -60 3 -60 5 0 6 -5 3 -10 -4 -6 -10 -8 -14 -6 -4 3 -8 -1 -8 -9
0 -8 6 -15 12 -15 9 0 13 -37 5 -47 -7 -9 -4 -29 5 -35 6 -5 5 -8 -3 -8 -10 0
-10 -5 -1 -21 8 -15 8 -19 0 -15 -12 8 -11 -21 2 -41 4 -6 3 -15 -3 -18 -8 -5
-7 -11 1 -21 9 -11 9 -14 0 -14 -8 0 -9 -5 -2 -18 7 -13 6 -23 -1 -30 -9 -9
-8 -12 3 -12 10 -1 9 -3 -4 -11 -15 -9 -16 -13 -5 -27 11 -13 11 -14 -1 -7
-11 6 -13 4 -8 -7 3 -9 0 -21 -6 -28 -9 -10 -9 -11 0 -6 9 5 12 -3 9 -31 -2
-21 -8 -37 -14 -36 -6 2 -9 -4 -6 -12 4 -9 1 -21 -5 -29 -6 -7 -8 -16 -4 -20
11 -10 10 -40 -1 -48 -6 -4 -5 -12 1 -20 16 -19 16 -30 1 -39 -11 -7 -10 -11
2 -19 8 -5 10 -10 5 -10 -6 0 -12 -11 -13 -25 -1 -14 3 -25 8 -25 6 0 10 -5
10 -11 0 -5 -6 -7 -12 -3 -8 5 -7 0 2 -11 14 -17 13 -18 -2 -12 -12 4 -15 2
-11 -9 3 -7 2 -22 -2 -31 -13 -31 -13 -40 1 -40 7 0 10 5 7 10 -4 6 -1 7 6 2
9 -5 6 -14 -11 -33 -16 -19 -17 -22 -4 -12 18 14 19 14 9 -4 -11 -20 -6 -59 6
-51 4 2 8 -2 8 -10 0 -8 -5 -11 -10 -8 -7 4 -7 -1 -2 -13 5 -10 9 -36 8 -56 0
-21 4 -35 8 -32 5 3 7 -9 5 -25 -2 -17 0 -31 4 -31 5 0 6 -10 2 -22 -4 -16 -2
-19 9 -13 11 6 12 5 2 -5 -10 -11 -9 -17 4 -32 13 -15 14 -18 2 -13 -16 6 -20
-49 -4 -74 5 -10 4 -12 -3 -7 -16 10 -15 -7 1 -23 10 -11 9 -12 -2 -6 -10 6
-12 4 -5 -6 4 -8 9 -19 10 -25 1 -6 5 -22 9 -34 5 -14 3 -20 -3 -16 -6 3 -6
-4 1 -18 7 -13 14 -23 18 -20 3 2 5 -8 3 -21 -1 -16 5 -31 19 -41 17 -13 18
-15 4 -10 -13 4 -16 2 -10 -7 13 -20 13 -87 0 -87 -8 0 -8 -3 -2 -8 14 -9 14
-92 0 -92 -5 0 -2 -7 8 -14 16 -12 16 -14 2 -20 -13 -4 -14 -10 -5 -26 6 -11
7 -20 1 -20 -5 0 -7 -9 -4 -20 3 -12 0 -20 -8 -20 -7 0 -10 -3 -6 -6 3 -4 -1
-21 -10 -38 -20 -36 -22 -58 -8 -68 6 -5 4 -8 -5 -8 -11 0 -12 -2 -3 -8 7 -5
14 -41 17 -89 2 -45 7 -86 10 -92 4 -5 2 -13 -4 -16 -7 -4 -7 -12 -2 -18 7
-10 9 -111 3 -119 -2 -2 -4 -14 -7 -27 -2 -14 -10 -31 -17 -40 -9 -12 -9 -13
0 -7 9 5 11 2 7 -8 -3 -9 -10 -13 -16 -10 -5 3 -9 0 -8 -7 3 -21 -11 -59 -22
-59 -5 0 -6 -5 -3 -10 3 -6 2 -10 -3 -10 -5 0 -14 -12 -20 -26 -7 -14 -8 -23
-3 -19 5 3 -1 -14 -14 -38 -17 -33 -20 -48 -12 -63 8 -16 7 -17 -4 -6 -20 18
-28 15 -24 -10 3 -12 0 -27 -6 -35 -7 -7 -8 -13 -5 -13 4 0 2 -8 -3 -18 -7
-13 -6 -23 2 -32 9 -10 9 -11 0 -6 -8 4 -13 1 -13 -8 0 -8 -3 -22 -7 -32 -5
-13 -3 -15 8 -10 8 4 6 1 -3 -7 -14 -11 -15 -16 -5 -26 9 -10 8 -11 -7 -5 -13
5 -17 4 -12 -4 4 -7 2 -12 -4 -12 -6 0 -8 -4 -5 -10 3 -5 1 -10 -5 -10 -7 0
-10 -7 -6 -15 4 -11 -1 -15 -17 -15 -17 0 -19 -2 -7 -10 12 -8 12 -10 -2 -15
-9 -4 -15 -12 -12 -20 3 -7 -2 -15 -11 -19 -9 -3 -13 -11 -9 -18 5 -8 2 -9 -9
-5 -9 3 -16 2 -14 -2 2 -10 -55 -66 -64 -64 -4 1 -4 -7 -1 -19 3 -14 1 -19 -6
-14 -11 6 -16 -6 -13 -26 0 -5 -3 -8 -7 -8 -5 0 -9 -6 -9 -12 -1 -53 -15 -134
-23 -136 -6 -2 -7 -9 -3 -14 4 -7 -2 -9 -16 -5 -18 4 -20 3 -10 -9 6 -8 9 -17
5 -21 -3 -3 -6 -1 -6 7 0 10 -4 10 -17 -1 -11 -10 -14 -10 -9 -1 4 6 3 12 -2
12 -6 0 -13 -7 -16 -15 -4 -12 -10 -14 -25 -5 -16 8 -22 6 -30 -7 -6 -10 -11
-13 -11 -8 0 6 -9 11 -19 11 -14 0 -17 -4 -10 -12 7 -8 2 -10 -17 -6 -21 4
-25 2 -19 -9 8 -12 6 -12 -8 0 -11 9 -17 10 -17 2 0 -13 -22 -10 -32 4 -5 6
-8 5 -8 -3 0 -8 -5 -10 -12 -6 -7 5 -9 2 -6 -8 4 -8 0 -15 -8 -15 -7 0 -10 5
-6 11 3 6 -6 3 -21 -7 -24 -16 -26 -16 -20 0 5 14 1 13 -24 -5 -32 -23 -48
-28 -39 -13 4 5 -11 5 -35 0 -22 -5 -45 -6 -51 -3 -7 4 -8 2 -4 -4 9 -14 9
-14 -31 -3 -27 8 -31 7 -25 -7 5 -15 3 -15 -11 -4 -9 8 -26 12 -39 11 -13 -2
-29 0 -35 4 -7 5 -13 4 -13 -1 0 -6 -10 -8 -22 -4 -15 4 -19 2 -13 -7 6 -10 3
-11 -15 -1 -19 10 -22 10 -17 -2 3 -8 -1 -15 -9 -15 -7 0 -10 5 -7 11 7 12
-38 -23 -49 -39 -5 -6 -8 -4 -8 5 0 10 -5 7 -16 -8 -12 -18 -19 -20 -35 -12
-15 9 -19 7 -19 -6 0 -12 -6 -15 -25 -12 -14 3 -27 2 -30 -1 -5 -9 -48 -7 -65
4 -9 5 -11 4 -6 -3 4 -7 4 -12 -1 -13 -19 -2 -46 -8 -61 -15 -28 -11 -52 -11
-52 0 0 6 -4 5 -9 -3 -7 -10 -17 -5 -44 22 -20 19 -34 37 -30 40 7 8 -22 37
-36 37 -6 0 -10 5 -9 11 2 6 -6 16 -17 22 -11 7 -23 16 -26 20 -3 4 -15 9 -26
10 -14 1 -19 6 -15 16 4 10 1 12 -9 6 -12 -7 -12 -6 1 11 8 10 11 16 6 12 -10
-8 -36 15 -36 32 0 6 -4 8 -10 5 -5 -3 -16 -3 -22 2 -24 14 -40 12 -34 -5 5
-14 4 -14 -8 1 -19 25 -21 25 -45 3 -12 -11 -21 -16 -21 -11 0 4 -9 -4 -20
-18 -11 -14 -20 -29 -20 -34 0 -4 -20 -29 -44 -54 -24 -25 -48 -54 -53 -65
-12 -23 -6 -76 10 -86 9 -5 8 -8 -3 -8 -13 0 -13 -1 0 -10 16 -10 23 -101 9
-110 -14 -10 -40 -80 -29 -80 5 0 10 -7 10 -15 0 -17 30 -35 62 -35 18 0 20
-2 8 -10 -12 -8 -11 -10 5 -10 11 0 27 -9 35 -20 10 -14 16 -16 22 -7 5 8 8 6
8 -6 0 -10 5 -15 10 -12 6 3 10 0 10 -7 0 -9 3 -9 10 2 6 10 10 11 10 3 0 -7
9 -13 21 -13 13 0 18 -4 13 -12 -4 -7 -3 -8 5 -4 6 4 19 2 28 -6 12 -9 15 -9
9 -1 -5 9 -2 11 8 7 9 -3 16 -11 16 -18 0 -6 5 -4 10 4 5 8 10 10 10 4 0 -20
49 -35 73 -22 21 11 21 10 7 -7 -10 -12 -10 -16 -2 -11 7 4 20 2 30 -6 15 -11
16 -11 5 3 -12 14 -8 16 29 12 24 -3 46 -10 50 -16 5 -8 8 -7 8 3 0 12 2 13 9
1 7 -11 9 -11 14 0 4 10 6 10 6 2 1 -7 6 -13 12 -13 6 0 8 7 4 17 -4 13 -1 12
15 -4 24 -26 39 -31 19 -6 -13 15 -12 15 18 -1 18 -9 36 -16 40 -15 20 3 34
-2 28 -11 -4 -7 2 -7 19 0 28 10 56 4 56 -13 0 -6 3 -7 7 -4 3 4 17 0 30 -8
25 -17 31 -8 11 14 -7 8 -1 6 15 -4 26 -17 27 -17 21 1 -6 18 -6 18 8 0 15
-19 63 -32 52 -14 -10 16 9 8 23 -9 7 -10 13 -13 12 -8 -3 24 2 27 17 9 8 -10
13 -14 10 -8 -3 7 1 15 10 18 8 3 12 2 9 -4 -3 -6 -1 -10 5 -10 6 0 8 -5 4
-13 -6 -9 -4 -9 8 1 16 13 52 12 65 -3 5 -4 2 -5 -6 0 -10 5 -12 4 -7 -3 5 -8
13 -9 24 -3 11 6 24 6 34 0 11 -6 21 -4 32 7 9 8 16 11 16 5 0 -6 7 -11 16
-11 8 0 12 5 8 11 -3 6 6 3 22 -7 26 -17 28 -17 15 -1 -19 25 -6 21 20 -5 12
-13 19 -17 15 -10 -5 8 1 12 21 12 22 0 25 -2 13 -10 -8 -5 -10 -10 -5 -10 6
0 16 5 23 12 9 9 12 9 12 0 0 -7 5 -12 11 -12 5 0 8 4 5 9 -4 5 4 7 16 3 16
-4 19 -2 13 8 -6 9 -4 11 4 6 7 -5 10 -15 6 -23 -5 -14 -3 -14 11 -2 22 18 66
18 82 -1 8 -8 11 -10 8 -4 -3 7 8 11 30 11 20 0 39 5 44 12 6 11 8 11 12 0 3
-9 10 -7 26 9 28 28 36 28 22 1 -7 -11 -9 -23 -7 -26 3 -2 8 5 12 17 5 16 12
19 28 14 22 -6 22 -6 2 9 -20 16 -20 16 3 10 16 -4 22 -2 20 8 -3 13 3 16 48
18 14 0 23 5 20 9 -3 5 0 9 7 9 25 1 42 9 59 28 12 14 17 16 18 6 0 -9 12 -4
37 15 20 15 33 22 29 16 -4 -7 -3 -12 2 -12 6 0 12 7 16 15 3 9 12 12 22 8 13
-5 15 -3 9 7 -5 8 -4 11 2 7 6 -4 16 0 23 8 10 12 16 13 26 4 10 -8 14 -8 15
0 5 40 4 40 44 25 l20 -7 -20 16 c-19 16 -19 16 9 11 25 -4 27 -3 17 10 -9 11
-9 16 0 22 8 4 9 3 5 -4 -4 -7 -2 -12 4 -12 7 0 10 -6 7 -13 -3 -8 1 -14 9
-14 7 0 11 4 8 9 -3 5 -7 21 -10 36 l-4 27 14 -24 c16 -28 15 -55 -2 -57 -7
-1 -14 -3 -17 -4 -7 -3 -23 -7 -36 -9 -6 0 -8 -8 -5 -17 3 -8 2 -12 -4 -9 -6
3 -13 -1 -16 -9 -3 -9 -10 -13 -15 -10 -5 3 -9 0 -9 -5 0 -6 -3 -10 -7 -9 -5
2 -8 -1 -8 -7 0 -5 4 -9 8 -7 5 1 6 -2 2 -8 -5 -8 -11 -7 -21 1 -9 7 -14 8
-14 1 0 -5 -9 -8 -21 -5 -11 3 -18 11 -15 19 3 7 1 16 -5 19 -5 4 -9 3 -8 -2
5 -27 -2 -33 -21 -23 -29 15 -25 5 6 -15 15 -9 23 -12 20 -6 -5 7 -1 9 9 5 9
-4 15 -7 13 -8 -2 -1 -12 -8 -22 -16 -16 -12 -18 -12 -12 -1 6 9 5 12 -5 9 -8
-3 -19 3 -24 13 -7 13 -14 15 -25 9 -13 -8 -12 -10 3 -10 23 0 22 -15 -5 -42
-17 -17 -20 -18 -15 -4 5 12 3 16 -5 13 -7 -2 -13 -11 -13 -20 0 -8 -4 -19 -8
-24 -5 -4 -8 -3 -7 2 4 20 0 38 -7 31 -5 -4 -9 -12 -9 -17 -1 -5 -2 -12 -3
-15 0 -4 -9 0 -18 7 -15 12 -16 12 -10 -3 5 -15 2 -16 -18 -8 -14 5 -25 7 -25
3 0 -3 -10 2 -22 13 l-23 19 18 -22 c11 -12 16 -28 12 -35 -3 -7 0 -6 7 3 12
15 16 15 33 2 19 -15 19 -15 1 -9 -10 3 -25 1 -32 -5 -8 -6 -14 -8 -14 -4 0 4
-7 1 -17 -6 -19 -17 -75 -19 -85 -4 -5 6 -8 6 -8 -2 0 -7 -5 -13 -11 -13 -5 0
-7 6 -3 13 6 8 3 8 -9 -2 -12 -9 -14 -18 -7 -30 6 -13 5 -18 -5 -18 -8 0 -12
4 -10 8 3 4 -2 9 -10 12 -10 4 -12 1 -8 -11 6 -14 4 -15 -9 -4 -13 10 -18 9
-29 -5 -13 -16 -12 -17 4 -4 9 7 17 9 17 3 0 -15 -32 -24 -40 -12 -4 6 -14 8
-23 4 -9 -3 -15 -10 -12 -14 3 -5 1 -11 -5 -15 -5 -3 -10 -1 -10 4 0 6 -8 3
-18 -6 -11 -10 -17 -22 -14 -27 3 -5 0 -6 -7 -2 -6 4 -8 12 -4 19 3 6 -9 0
-27 -13 -18 -13 -30 -17 -25 -9 7 11 6 12 -7 2 -8 -7 -18 -10 -22 -6 -4 4 -4
-1 0 -11 5 -13 4 -17 -3 -13 -6 4 -18 1 -26 -7 -8 -8 -17 -12 -21 -9 -3 4 -6
1 -6 -5 0 -7 -5 -12 -11 -12 -7 0 -18 -8 -26 -17 -8 -11 -11 -12 -7 -3 7 13 5
13 -9 2 -9 -8 -22 -12 -29 -10 -7 3 -18 -2 -25 -11 -8 -10 -12 -11 -13 -4 0
17 -30 4 -30 -13 0 -17 -12 -18 -28 -2 -8 8 -12 8 -12 1 0 -5 -10 -9 -22 -9
-13 1 -32 -2 -43 -8 -11 -6 -37 -9 -58 -8 -33 1 -38 -1 -33 -15 6 -14 3 -14
-14 2 -12 11 -21 15 -20 10 5 -21 -1 -29 -10 -15 -6 10 -10 11 -10 3 0 -7 -6
-13 -14 -13 -7 0 -25 -9 -38 -20 -14 -10 -29 -16 -33 -12 -5 4 -5 2 -2 -4 10
-17 -18 -25 -33 -11 -10 9 -11 9 -6 0 4 -7 -2 -17 -14 -23 -11 -6 -20 -8 -20
-5 0 4 -7 0 -15 -8 -8 -9 -24 -13 -36 -10 -17 5 -20 3 -14 -8 7 -11 5 -11 -10
1 -10 8 -16 10 -12 4 4 -7 0 -15 -9 -18 -10 -4 -13 -2 -8 7 5 7 1 7 -10 -2
-13 -11 -14 -16 -4 -23 8 -5 3 -7 -14 -4 -20 3 -28 0 -28 -10 0 -8 -4 -12 -10
-9 -5 3 -10 1 -10 -6 0 -6 -8 -9 -20 -6 -11 3 -23 0 -27 -5 -4 -7 -1 -8 8 -4
8 4 5 1 -5 -8 -10 -8 -23 -13 -27 -10 -5 3 -9 -2 -9 -11 0 -9 -4 -14 -9 -11
-4 3 -16 -3 -25 -13 -13 -14 -14 -21 -6 -26 9 -6 9 -10 -1 -16 -12 -7 -12 -9
0 -9 11 0 9 -5 -5 -22 -10 -12 -14 -18 -7 -15 6 4 13 4 16 0 2 -5 3 -3 1 3 -1
6 7 16 18 23 11 7 17 8 13 2 -3 -6 1 -11 10 -11 8 0 18 -7 22 -16 3 -8 12 -13
19 -10 8 3 24 1 36 -4 19 -7 20 -9 4 -9 -10 -1 -16 -6 -13 -14 6 -16 -59 -15
-91 2 -20 10 -23 9 -32 -11 -5 -13 -9 -18 -9 -12 -1 6 -7 11 -15 11 -8 0 -12
-6 -8 -15 3 -10 1 -13 -6 -8 -6 3 -14 1 -17 -5 -4 -5 -14 -8 -22 -5 -8 3 -12
2 -9 -2 2 -4 -9 -15 -25 -24 -16 -9 -31 -13 -34 -8 -3 5 -12 7 -20 4 -8 -4
-13 -10 -10 -14 3 -5 -5 -6 -17 -2 -14 3 -19 2 -14 -6 4 -7 2 -12 -3 -12 -6 0
-11 8 -12 18 0 9 -3 12 -5 7 -2 -6 -21 -9 -42 -7 -28 2 -33 1 -22 -7 8 -6 10
-11 4 -11 -6 0 -14 3 -18 7 -10 10 -46 11 -40 1 3 -5 -6 -7 -20 -4 -14 3 -26
1 -26 -4 0 -5 -7 -6 -17 -3 -9 4 -14 2 -10 -3 3 -6 -6 -10 -21 -9 -15 0 -32
-5 -38 -10 -7 -6 -26 -10 -43 -9 -17 1 -31 -3 -31 -8 0 -6 -6 -6 -14 1 -11 10
-17 8 -25 -6 -7 -12 -10 -13 -11 -4 0 11 -3 11 -15 1 -8 -6 -19 -9 -25 -5 -5
3 -10 2 -10 -3 0 -5 -13 -8 -30 -7 -23 1 -27 -1 -19 -11 8 -9 5 -11 -10 -7
-12 3 -29 2 -38 -2 -28 -12 -63 -12 -63 0 0 6 -3 7 -8 0 -8 -11 -25 -16 -57
-18 -11 0 -26 -5 -32 -10 -9 -6 -13 -5 -13 4 0 11 -2 11 -10 -1 -8 -12 -10
-12 -10 -1 0 9 -4 10 -12 4 -16 -13 -48 -13 -48 0 0 5 -6 4 -14 -2 -11 -10
-17 -8 -26 6 -11 17 -11 17 -6 -1 5 -13 2 -17 -8 -13 -7 3 -19 0 -26 -6 -10
-9 -11 -9 -6 0 3 6 2 14 -4 18 -5 3 -10 0 -10 -7 0 -7 -10 -19 -22 -27 -20
-12 -21 -12 -11 0 10 12 8 17 -9 28 -11 7 -17 8 -14 3 7 -12 -21 -25 -35 -16
-5 3 -9 0 -9 -7 0 -7 -5 -8 -12 -3 -16 11 -39 11 -55 1 -7 -5 -13 -5 -13 -1 0
3 -7 1 -15 -6 -13 -11 -14 -10 -10 1 4 10 -1 15 -14 15 -11 0 -17 -4 -15 -8 8
-12 -11 -9 -24 4 -9 9 -12 8 -12 -6 0 -16 -1 -16 -16 -2 -20 21 -28 20 -19 -1
5 -14 3 -15 -6 -6 -6 6 -18 9 -27 6 -8 -4 -13 -2 -10 3 4 5 -7 10 -23 10 -19
1 -26 -2 -22 -10 4 -6 -1 -4 -12 4 -10 8 -27 14 -37 12 -11 -2 -25 2 -33 8
-12 10 -13 8 -10 -12 4 -21 3 -21 -9 -6 -7 10 -16 15 -19 11 -4 -3 -7 0 -7 8
0 11 -2 11 -10 -1 -6 -10 -10 -11 -10 -2 0 6 -4 12 -10 12 -5 0 -7 -8 -3 -17
5 -15 4 -15 -9 1 -18 23 -92 23 -128 1 -6 -3 -10 -1 -10 6 0 8 -4 8 -15 -1
-11 -9 -15 -9 -15 -1 0 7 -5 9 -12 4 -19 -11 -39 -13 -32 -2 3 5 11 6 17 3 7
-4 9 -3 4 1 -11 13 -49 17 -42 5 3 -6 -1 -7 -9 -4 -9 3 -13 11 -9 18 5 8 3 8
-8 1 -17 -12 -39 -13 -58 0 -10 5 -16 4 -19 -4 -3 -9 -7 -9 -18 0 -11 9 -14 8
-14 -2 0 -12 -2 -12 -9 0 -6 9 -11 10 -15 2 -4 -6 -13 -11 -19 -11 -7 0 -6 4
3 10 13 8 13 10 -2 10 -9 0 -25 3 -35 6 -15 5 -15 4 -3 -5 8 -5 11 -13 7 -17
-3 -4 -13 -1 -22 6 -10 8 -15 9 -15 2 0 -7 -7 -9 -17 -5 -12 5 -14 3 -8 -8 8
-12 6 -12 -8 0 -9 7 -17 10 -17 5 0 -5 -5 -2 -10 6 -5 8 -10 10 -10 3 0 -6 -8
-10 -17 -8 -10 2 -18 4 -18 5 0 6 -54 6 -72 -1 -14 -5 -25 -4 -29 3 -5 7 -3 8
6 3 8 -5 11 -4 7 3 -4 5 -16 8 -27 5 -13 -3 -20 0 -20 8 0 11 -2 11 -10 -1 -8
-12 -10 -12 -10 -1 0 11 -3 11 -15 1 -8 -7 -15 -8 -15 -3 0 5 -8 10 -17 11
-31 3 -48 7 -60 15 -14 9 -45 -31 -36 -46 3 -6 1 -7 -5 -3 -7 4 -12 3 -12 -3
0 -5 6 -12 13 -14 9 -4 9 -6 0 -6 -21 -2 -24 18 -7 44 21 32 14 39 -44 41 -26
1 -62 4 -80 7 -18 2 -35 0 -38 -4 -3 -5 -10 -7 -15 -3 -5 3 -6 10 -3 16 4 7 2
8 -5 4 -7 -4 -9 -17 -6 -29 6 -21 6 -21 -6 -2 -16 26 -29 34 -46 28 -7 -3 -21
1 -30 8 -9 8 -18 13 -20 12 -1 -2 -6 -2 -10 -2 -5 1 -16 0 -27 -1 -12 -1 -16
2 -11 12 6 10 5 10 -5 1 -8 -8 -20 -9 -36 -3 -13 5 -24 6 -24 3 0 -4 -5 -2
-12 5 -9 9 -16 8 -32 -6 -16 -13 -18 -13 -8 -1 14 18 7 30 -14 22 -8 -3 -14 1
-15 8 0 8 -4 5 -9 -6 -8 -19 -9 -19 -9 1 -1 12 -7 24 -13 27 -19 6 -115 0
-129 -9 -7 -4 -9 -3 -6 3 4 6 0 14 -9 17 -8 3 -12 2 -9 -3 3 -5 0 -13 -6 -17
-8 -4 -9 -3 -5 4 4 7 3 12 -3 12 -6 0 -8 8 -5 18 4 12 3 13 -3 4 -5 -7 -17
-10 -26 -6 -13 5 -16 2 -11 -12 5 -17 4 -17 -8 1 -12 19 -54 33 -42 14 3 -5
-2 -6 -10 -3 -9 3 -14 10 -11 14 3 5 1 11 -5 15 -5 3 -10 0 -10 -7 0 -11 -2
-11 -9 0 -13 21 -44 21 -62 -1 -13 -16 -16 -17 -16 -4 0 9 4 14 9 11 4 -3 8 2
8 10 0 10 -6 13 -17 9 -11 -5 -14 -3 -8 6 6 10 3 11 -13 2 -15 -8 -21 -8 -24
0 -2 6 -20 12 -41 14 -20 2 -42 7 -49 11 -7 5 -8 3 -3 -7 7 -11 6 -12 -6 -3
-19 14 -51 26 -45 16 2 -4 -5 -8 -17 -9 -12 0 -16 1 -9 4 22 9 12 23 -14 19
-16 -3 -27 0 -30 9 -3 8 -12 11 -19 9 -7 -3 -16 0 -20 6 -5 8 -11 8 -22 -1
-10 -9 -17 -10 -21 -2 -10 16 -74 24 -89 11 -10 -8 -12 -7 -8 5 4 8 1 18 -6
23 -8 5 -10 3 -4 -7 7 -11 6 -12 -6 -4 -8 6 -27 10 -42 9 -19 -1 -26 3 -23 12
3 8 0 11 -9 7 -8 -3 -12 -10 -8 -17 5 -8 3 -8 -8 0 -24 19 -59 24 -59 8 0 -8
-5 -14 -11 -14 -5 0 -8 4 -5 8 2 4 1 14 -5 22 -5 9 -9 10 -9 3 0 -13 -25 -12
-37 2 -4 4 -2 5 6 0 9 -5 12 -4 8 2 -4 6 -18 8 -32 5 -16 -3 -25 0 -25 9 0 10
-3 10 -12 1 -9 -9 -14 -7 -24 6 -13 16 -13 16 -14 -1 0 -17 -1 -17 -16 -2 -10
9 -25 14 -36 12 -10 -3 -16 -2 -13 2 2 5 -7 13 -20 19 -14 7 -25 17 -25 24 0
10 -3 9 -9 -1 -7 -11 -10 -9 -16 9 -6 18 -9 20 -16 9 -7 -11 -9 -11 -9 2 0 10
-8 15 -22 14 -13 -2 -22 -8 -20 -15 3 -11 0 -11 -12 0 -19 15 -21 24 -3 14 6
-4 9 -3 4 1 -4 5 -17 10 -29 12 -18 3 -19 1 -7 -14 12 -16 12 -17 -2 -6 -9 7
-19 10 -22 7 -4 -4 -4 4 -2 16 3 18 2 21 -7 12 -15 -15 -32 -16 -23 -2 4 6 -4
6 -22 -1 -20 -7 -29 -7 -31 1 -3 8 -8 8 -17 0 -10 -8 -17 -5 -29 12 -9 12 -16
18 -16 11 0 -6 -11 -10 -25 -10 -14 0 -25 4 -25 10 0 6 -7 2 -15 -9 -8 -10
-15 -14 -15 -8 0 12 -36 12 -47 -1 -5 -4 -2 -5 6 0 10 6 12 4 7 -4 -6 -9 -11
-9 -22 0 -11 9 -14 8 -14 -2 0 -12 -2 -12 -9 0 -5 8 -14 10 -22 5 -21 -12 -52
-13 -68 0 -12 9 -13 8 -6 -3 6 -11 1 -13 -23 -9 -17 2 -29 1 -26 -3 2 -4 0
-10 -6 -14 -5 -3 -10 -1 -10 5 0 6 -11 3 -24 -7 -13 -10 -22 -21 -20 -24 2 -3
-3 -14 -10 -25 -10 -13 -11 -26 -5 -42 5 -14 5 -21 0 -17 -16 10 -23 -15 -9
-33 11 -15 11 -15 -3 -5 -20 16 -149 13 -167 -4 -9 -9 -19 -10 -31 -4 -10 6
-23 6 -31 1 -8 -5 -22 -4 -32 1 -14 7 -20 6 -24 -6 -3 -8 -9 -13 -13 -11 -8 5
-76 -32 -76 -42 0 -4 -3 -6 -7 -5 -4 2 -5 -4 -2 -12 4 -8 1 -15 -5 -15 -9 0
-9 -6 0 -22 11 -21 11 -22 -4 -10 -13 11 -15 10 -10 -7 3 -11 12 -22 21 -26
14 -5 14 -7 2 -15 -12 -8 -10 -10 8 -10 14 0 22 -6 22 -17 0 -15 2 -16 10 -3
8 12 10 12 10 1 0 -11 3 -11 17 0 9 8 14 9 10 3 -4 -7 0 -15 9 -18 11 -4 15
-2 11 8 -6 15 17 16 30 1 4 -4 2 -5 -4 -1 -7 4 -13 2 -13 -4 0 -7 7 -9 16 -6
9 3 18 6 21 6 3 0 -1 8 -8 18 -7 9 -2 6 13 -6 l26 -24 4 24 c3 22 4 22 9 -4 3
-15 3 -27 0 -26 -19 2 -24 -4 -11 -12 11 -7 12 -10 2 -10 -10 0 -9 -4 2 -16 9
-8 13 -20 10 -26 -4 -6 -3 -8 3 -5 6 4 18 0 29 -7 23 -17 45 -10 37 12 -5 15
-4 15 8 0 10 -13 18 -15 29 -8 12 8 12 10 1 10 -8 0 -11 3 -8 7 4 3 16 -2 26
-11 19 -17 19 -17 14 3 -3 13 -1 21 6 21 7 0 10 -4 7 -9 -8 -13 57 -21 69 -8
7 7 6 7 -4 2 -9 -5 -12 -4 -7 3 5 9 12 9 25 1 21 -14 78 32 65 52 -5 9 -10 7
-15 -7 -6 -16 -8 -16 -8 -2 -1 9 4 20 9 23 6 4 8 11 5 16 -4 5 -1 9 5 9 7 0
10 -6 7 -14 -3 -7 0 -19 6 -25 9 -10 6 -17 -12 -32 -20 -16 -22 -22 -11 -29
16 -10 40 -2 40 12 0 6 -8 4 -18 -3 -16 -13 -16 -13 1 7 16 20 52 30 41 12 -3
-4 0 -8 6 -8 6 0 8 -5 4 -11 -4 -8 -9 -7 -15 2 -6 10 -9 10 -9 2 0 -19 17 -24
29 -9 6 7 23 14 38 14 15 0 29 5 31 11 2 6 8 11 13 11 5 0 4 -9 -3 -19 -7 -11
-15 -18 -19 -15 -4 2 -10 0 -13 -4 -3 -5 17 -8 45 -6 34 2 47 -1 43 -8 -4 -7
-2 -8 4 -4 6 4 21 2 33 -5 19 -10 21 -9 15 7 -6 16 -5 17 11 2 22 -19 56 -20
49 -2 -3 8 0 16 6 20 7 4 8 3 4 -4 -4 -7 -3 -12 3 -12 5 0 13 5 16 11 5 7 14
4 27 -8 20 -18 20 -17 14 5 -5 13 -3 22 3 22 6 0 10 -5 9 -11 -2 -6 3 -14 11
-17 9 -3 11 0 6 8 -6 9 -4 11 4 6 7 -5 18 -1 25 10 12 15 13 14 11 -14 -2 -27
0 -29 21 -22 12 5 24 6 27 4 11 -11 42 -11 49 0 5 7 8 5 8 -6 0 -17 -48 -22
-60 -6 -3 4 -12 3 -20 -2 -13 -9 -13 -10 0 -11 52 -4 68 -7 81 -14 8 -4 11 -5
7 -1 -4 5 -1 14 5 21 10 10 15 9 25 -6 7 -11 17 -17 22 -14 5 3 19 1 31 -6 13
-6 19 -7 15 -1 -3 6 -2 13 4 17 5 3 10 1 10 -4 0 -12 36 -15 43 -3 2 4 2 2 1
-5 -2 -7 1 -15 6 -18 6 -4 10 1 10 9 0 8 5 18 12 22 7 4 8 3 4 -4 -4 -7 -1
-12 8 -12 8 0 17 6 20 13 3 6 3 2 1 -9 -6 -24 10 -32 58 -30 15 1 27 -1 27 -5
0 -4 9 -9 19 -12 14 -3 18 -1 14 9 -3 8 -8 12 -12 9 -4 -2 -8 3 -8 11 0 10 8
7 26 -10 19 -19 30 -22 43 -15 18 10 68 -7 68 -23 0 -5 -11 -1 -25 8 -26 17
-42 14 -31 -5 4 -6 13 -8 20 -5 8 3 17 0 21 -5 3 -6 10 -9 15 -6 5 3 11 1 15
-5 3 -5 12 -10 18 -10 7 0 6 4 -3 11 -13 9 -13 10 2 6 20 -7 42 17 32 35 -5
10 -4 10 6 1 11 -10 11 -16 -3 -31 -18 -20 -23 -37 -8 -28 5 4 11 1 13 -6 3
-7 7 -5 11 6 5 11 3 15 -5 10 -7 -4 -8 -3 -4 5 6 9 11 9 22 0 17 -14 18 -23 2
-13 -9 5 -8 2 1 -10 9 -11 18 -13 24 -7 7 7 16 7 28 0 15 -7 17 -6 13 5 -3 8
-14 13 -24 11 -13 -3 -17 1 -13 12 5 12 7 12 14 1 5 -7 9 -9 9 -4 0 5 6 3 13
-3 8 -6 18 -7 22 -3 5 4 5 1 0 -7 -6 -10 -2 -11 15 -6 15 5 20 4 16 -4 -7 -11
-2 -12 66 -14 20 0 35 -4 32 -9 -3 -5 -10 -5 -16 -2 -7 4 -8 2 -4 -4 9 -16 11
-15 32 5 16 16 16 16 10 -5 -5 -16 -3 -22 7 -22 8 0 17 -7 21 -15 3 -9 12 -12
22 -8 13 5 15 3 9 -8 -8 -12 -6 -12 8 0 15 12 17 11 17 -3 0 -9 5 -16 10 -16
6 0 9 5 8 11 -2 6 9 12 23 13 20 1 25 -2 21 -13 -4 -10 -1 -12 8 -6 9 5 11 4
6 -4 -6 -9 -11 -9 -22 0 -8 6 -17 9 -20 6 -9 -9 6 -28 17 -22 5 4 9 1 9 -6 0
-10 3 -10 12 -1 16 16 31 15 25 -1 -3 -9 2 -13 16 -12 11 1 23 7 25 13 2 7 9
12 15 12 8 0 7 -4 -1 -12 -16 -16 -15 -25 3 -25 8 0 12 4 9 9 -3 4 0 8 5 8 6
0 11 -8 11 -19 0 -21 36 -35 47 -19 3 6 2 8 -3 5 -6 -3 -16 -1 -24 4 -11 7 -8
8 10 6 14 -2 25 -8 25 -13 1 -15 24 -50 25 -36 0 18 15 15 47 -12 16 -13 37
-22 51 -20 12 2 22 0 22 -5 0 -5 14 -14 30 -21 17 -7 30 -16 30 -21 0 -5 14
-9 31 -9 16 0 28 -4 24 -9 -3 -5 0 -13 6 -17 7 -4 9 -3 5 4 -3 6 -2 13 4 17 5
3 10 -1 10 -11 0 -15 2 -15 25 0 29 19 35 20 35 5 0 -5 -4 -8 -9 -4 -14 8 -21
-9 -10 -25 6 -11 9 -11 9 -2 0 9 5 10 19 2 16 -8 22 -6 30 7 9 17 11 17 27 1
17 -17 17 -17 -4 -13 -12 2 -22 -1 -22 -7 0 -5 6 -8 14 -5 8 3 17 1 20 -6 3
-9 5 -9 5 1 1 6 6 12 12 12 5 0 8 -3 5 -8 -2 -4 7 -13 20 -19 21 -10 26 -9 31
5 5 13 9 10 19 -13 8 -19 13 -23 14 -12 0 9 5 17 11 17 5 0 8 -4 4 -9 -7 -12
25 -30 43 -24 10 4 10 8 0 21 -12 15 -11 16 5 3 14 -11 15 -16 5 -29 -9 -10
-9 -13 -1 -9 6 4 13 1 16 -5 3 -10 8 -10 18 1 12 12 12 13 0 6 -10 -5 -12 -4
-7 4 4 6 12 9 17 5 5 -3 7 -9 5 -13 -3 -4 4 -12 14 -18 15 -10 17 -9 13 8 -3
11 0 19 6 19 7 0 10 -4 7 -8 -2 -4 -1 -14 5 -22 7 -13 9 -13 9 0 0 9 9 2 20
-15 l21 -30 -5 29 c-3 16 -2 25 2 21 7 -6 8 -10 11 -36 0 -6 8 -8 17 -5 9 4
22 2 29 -4 16 -14 30 17 15 35 -7 8 -5 12 5 12 8 0 13 -3 10 -5 -3 -3 3 -11
13 -19 9 -8 11 -12 5 -8 -16 8 -17 -21 -1 -31 7 -4 8 -3 4 4 -9 15 52 4 73
-12 9 -7 7 0 -4 19 l-19 30 25 -22 c20 -18 28 -20 38 -10 11 10 11 8 1 -13
-12 -23 -12 -24 3 -12 11 9 21 10 34 4 10 -6 20 -10 23 -10 22 -1 60 -16 60
-24 0 -5 5 -6 10 -3 6 4 7 11 4 17 -5 7 -2 8 5 4 7 -5 10 -15 6 -25 -3 -9 4
-5 17 9 13 14 20 21 16 16 -18 -23 14 -33 40 -13 8 6 12 5 12 -3 0 -8 3 -10 6
-7 4 3 16 2 27 -4 13 -7 17 -7 13 -1 -3 6 -2 13 4 17 5 3 10 2 10 -4 0 -6 7
-7 17 -4 10 4 14 2 10 -4 -10 -16 22 -24 45 -12 15 8 19 8 14 0 -10 -15 7 -14
23 2 11 9 13 9 7 0 -7 -12 24 -19 63 -14 8 2 10 -2 5 -10 -4 -7 -3 -10 4 -5 6
3 13 2 16 -3 3 -5 21 -6 40 -1 29 6 33 5 29 -8 -5 -11 -3 -13 8 -6 8 4 22 7
33 5 12 -2 16 1 11 10 -5 8 -4 10 4 5 6 -4 9 -11 6 -15 -2 -5 7 -13 21 -20 15
-6 23 -7 19 -1 -3 5 0 10 9 10 8 0 16 -6 19 -12 3 -10 10 -10 28 1 13 7 21 10
17 6 -4 -5 4 -14 19 -22 21 -11 28 -11 35 -1 7 10 11 9 21 -4 12 -15 14 -15
24 0 10 15 11 14 8 -7 -3 -13 -2 -21 2 -17 3 3 13 0 21 -7 13 -9 14 -9 8 1 -4
6 -2 12 3 12 6 0 11 -6 11 -12 0 -9 4 -8 10 2 8 13 10 12 10 -2 0 -10 5 -18
11 -18 5 0 8 4 5 9 -3 4 1 17 10 27 14 18 15 18 5 -2 -6 -12 -7 -24 -4 -28 11
-11 53 -6 53 6 0 6 3 8 6 5 4 -4 2 -13 -4 -20 -9 -11 -2 -14 36 -16 26 -1 52
-7 57 -13 7 -8 6 -9 -4 -3 -9 5 -12 4 -8 -3 4 -5 16 -8 27 -5 11 3 18 9 15 13
-6 9 31 6 56 -4 25 -11 99 -13 99 -3 0 5 7 7 15 4 8 -4 17 -2 20 4 4 5 11 7
16 3 5 -3 7 -10 4 -15 -14 -21 7 -30 33 -13 15 9 21 11 15 3 -16 -17 -17 -37
-1 -21 9 9 15 7 25 -6 13 -15 13 -15 8 8 l-7 25 16 -22 c16 -21 38 -25 53 -8
4 4 2 5 -6 0 -10 -5 -12 -4 -7 4 4 6 12 9 17 5 5 -3 7 -9 4 -14 -3 -4 2 -11
10 -14 22 -8 30 -6 27 8 -2 7 1 7 9 -1 18 -18 34 -16 19 2 -11 13 -10 14 5 9
14 -6 16 -4 10 6 -5 8 7 3 25 -10 18 -13 31 -19 27 -13 -4 6 0 13 8 17 8 3 17
0 21 -6 4 -7 3 -8 -4 -4 -8 5 -10 2 -6 -9 6 -14 8 -14 21 2 8 10 11 11 7 3 -7
-13 -5 -13 8 -2 13 10 17 10 21 0 4 -8 6 -6 6 5 1 19 41 18 66 -3 9 -8 15 -8
20 0 4 7 12 7 25 0 16 -8 18 -7 14 4 -3 8 -13 13 -23 11 -10 -2 -24 1 -32 6
-9 5 -1 7 24 5 21 -2 48 -12 59 -22 12 -11 18 -13 14 -6 -4 6 -2 12 4 12 6 0
8 5 4 12 -4 6 -3 8 3 5 26 -16 64 -16 61 1 -2 10 3 17 12 17 8 -1 29 10 47 22
29 21 63 22 63 2 0 -5 5 -9 11 -9 5 0 8 4 5 9 -3 5 1 14 9 21 8 7 15 9 15 4 0
-4 5 -3 11 3 6 6 18 9 27 6 11 -5 13 -3 7 8 -7 11 -6 12 6 2 8 -7 28 -10 43
-7 16 3 34 6 40 7 6 1 19 14 28 29 17 26 31 30 56 14 7 -4 20 -2 29 6 9 7 19
13 22 12 3 0 5 6 4 15 -4 21 14 48 24 38 4 -5 1 -12 -6 -16 -7 -5 -10 -14 -7
-20 10 -16 26 -4 27 22 1 19 2 19 6 3 4 -15 7 -16 13 -5 5 7 4 21 -1 30 -6 12
-5 20 3 25 6 4 8 3 5 -3 -4 -6 2 -22 14 -34 11 -13 18 -18 14 -11 -3 6 -1 12
4 12 6 0 11 5 11 11 0 8 -5 8 -15 -1 -10 -9 -15 -9 -15 -1 0 12 0 13 55 16 21
1 41 7 43 13 2 6 9 9 17 6 7 -3 16 0 21 7 4 8 3 10 -4 5 -7 -4 -20 -2 -29 4
-16 10 -15 10 4 5 12 -3 24 -2 27 3 3 5 17 8 31 7 27 -3 54 28 35 40 -5 3 -10
12 -9 18 0 9 2 9 6 0 2 -7 9 -13 15 -13 6 0 8 7 5 14 -4 11 -1 13 10 9 11 -4
14 -2 9 5 -4 7 -2 12 3 12 6 0 11 -5 11 -12 0 -13 14 -2 16 13 1 5 2 10 4 12
1 1 3 10 5 20 2 11 7 22 11 25 4 4 5 0 1 -10 -4 -10 1 -18 13 -21 14 -3 17 -1
13 11 -4 10 -2 13 5 8 6 -3 13 -2 16 3 4 5 1 13 -5 17 -8 5 -9 3 -4 -6 5 -9 4
-11 -4 -6 -21 13 -1 27 22 14 20 -10 21 -10 8 6 -12 14 -12 16 2 11 8 -4 18
-1 23 6 4 7 3 10 -4 5 -6 -3 -14 -1 -18 6 -4 7 -3 10 1 5 5 -4 17 1 28 10 11
10 17 12 13 6 -4 -7 -2 -13 3 -13 12 0 15 26 4 33 -5 2 -2 2 4 1 7 -2 17 5 22
14 6 9 11 13 11 9 0 -4 6 -2 14 5 11 10 11 16 2 27 -9 12 -8 13 3 6 11 -6 13
-4 7 10 -5 15 -4 16 9 5 13 -11 14 -10 9 4 -5 12 -2 15 12 9 14 -5 16 -3 11
11 -7 19 21 20 36 1 5 -6 7 -4 4 5 -2 8 -9 15 -14 15 -6 0 -15 4 -20 8 -4 5
-1 7 7 5 8 -2 14 2 15 9 0 6 3 15 7 19 4 3 6 -3 3 -14 -2 -12 3 -23 11 -26 9
-3 12 -1 9 4 -3 6 3 10 14 10 12 0 21 5 21 11 0 5 -4 7 -10 4 -6 -4 -7 1 -3
11 5 14 8 13 20 -7 14 -23 14 -23 10 -2 -3 12 1 27 9 34 8 6 11 16 7 22 -3 6
-1 7 5 3 6 -4 9 -13 5 -21 -4 -11 0 -14 13 -9 15 5 16 4 5 -4 -8 -6 -20 -8
-28 -5 -9 4 -11 0 -7 -11 5 -13 10 -14 20 -5 7 6 17 8 23 5 5 -3 8 5 6 19 -1
14 2 28 8 32 6 3 7 1 3 -5 -4 -7 -2 -12 4 -12 6 0 8 -5 4 -12 -5 -7 -3 -8 5
-4 7 5 10 15 6 24 -3 9 -3 13 1 10 4 -4 16 -2 28 4 11 7 26 13 31 13 6 1 8 7
7 15 -2 8 0 11 5 7 4 -5 8 -14 8 -19 0 -6 6 -13 14 -16 9 -3 11 0 6 8 -6 10
-4 11 6 4 20 -12 40 -14 33 -3 -3 5 -10 6 -16 3 -6 -4 -6 2 1 15 13 24 23 28
15 6 -4 -10 0 -15 11 -15 9 0 13 4 10 10 -3 5 -1 10 5 10 7 0 10 7 6 17 -6 17
-5 17 8 0 13 -17 32 -24 22 -8 -3 5 1 12 10 15 8 3 13 2 9 -3 -3 -5 2 -8 11
-7 8 1 20 9 25 17 5 9 9 10 9 2 0 -6 9 -11 19 -10 13 1 18 8 16 24 -1 12 1 20
6 18 4 -3 9 -2 12 2 2 5 2 2 1 -4 -5 -18 3 -16 25 6 11 11 16 23 13 27 -4 4 1
4 11 1 10 -4 16 -3 13 2 -3 5 4 11 15 14 12 3 18 10 14 17 -4 7 2 9 19 6 24
-4 25 -3 14 17 -10 20 -10 21 5 8 15 -12 17 -11 17 4 0 10 3 15 7 12 3 -4 12
-2 19 3 8 8 17 6 28 -6 16 -15 16 -14 12 12 -5 27 -4 28 9 10 9 -12 15 -15 15
-7 0 8 8 11 20 8 13 -3 18 -1 13 6 -4 7 0 8 11 4 10 -4 15 -3 11 3 -3 6 -1 10
4 10 6 0 11 -4 11 -10 0 -5 5 -10 11 -10 5 0 8 4 5 9 -10 16 23 20 39 5 9 -9
15 -11 15 -4 0 6 6 8 13 5 6 -4 3 1 -8 11 l-20 17 20 -8 c34 -13 87 -4 93 16
3 11 1 11 -8 -1 -10 -13 -11 -13 -7 0 2 8 12 17 22 18 11 3 15 0 10 -8 -4 -6
11 0 33 14 22 14 43 22 47 18 4 -4 2 3 -4 16 -6 12 -9 23 -6 23 3 1 11 2 18 3
6 1 11 6 10 12 -1 5 9 10 22 10 13 0 21 -4 19 -8 -3 -5 -9 -6 -14 -3 -5 3 -14
-5 -20 -17 -10 -20 -10 -21 3 -6 11 14 16 15 27 5 10 -9 11 -9 6 1 -4 6 -3 12
1 12 5 0 15 -6 22 -12 11 -11 11 -9 2 9 -15 30 3 39 27 12 18 -19 20 -19 19
-2 -1 12 4 17 16 16 11 0 16 4 13 12 -2 7 2 21 10 32 12 16 13 16 8 1 -8 -23
12 -23 25 -1 5 10 13 14 18 10 11 -12 -28 -39 -47 -32 -12 5 -12 4 -3 -6 14
-14 65 14 61 34 -2 7 2 13 7 15 6 1 10 -3 10 -10 0 -6 8 -12 18 -14 14 -2 16
1 7 11 -8 9 -8 15 0 20 5 3 10 2 10 -4 0 -5 9 -9 19 -8 11 0 17 5 15 9 -3 5
-9 6 -13 4 -4 -3 -8 1 -8 9 0 10 6 10 26 -3 25 -16 26 -16 11 3 -12 15 -12 17
-1 10 22 -13 93 -16 85 -3 -5 7 -2 8 7 2 21 -13 49 -15 49 -3 0 5 -4 8 -8 5
-5 -3 -9 1 -9 9 0 11 5 10 24 -2 21 -14 28 -11 24 11 -1 4 11 6 27 4 19 -3 29
0 29 9 0 9 -7 11 -16 8 -13 -5 -13 -4 -4 6 10 10 16 9 28 -1 8 -7 18 -10 22
-6 3 3 0 6 -8 6 -11 0 -11 2 1 10 20 13 33 13 25 0 -3 -6 1 -7 9 -4 18 7 20
15 9 30 -5 5 -1 1 9 -8 9 -10 18 -15 20 -11 1 5 18 18 35 31 28 19 32 20 27 5
-5 -15 -4 -16 5 -3 6 8 8 24 5 35 l-6 20 17 -20 c13 -15 15 -16 11 -3 -2 9 2
19 10 22 9 3 12 1 9 -4 -3 -6 -1 -10 4 -10 6 0 11 7 11 16 0 11 5 14 16 10 13
-5 15 -2 11 14 -3 10 -2 19 2 18 3 0 8 0 11 2 25 9 50 8 44 -2 -5 -7 -3 -8 6
-3 10 6 9 11 -6 23 -18 14 -18 14 3 8 12 -4 24 -2 29 5 4 7 3 9 -4 5 -6 -3
-14 -1 -18 6 -4 7 -4 10 0 6 11 -9 67 12 60 23 -3 5 2 9 10 9 15 0 21 12 17
33 -1 5 3 6 9 2 13 -8 42 14 34 26 -3 5 0 9 6 9 7 0 10 7 7 15 -4 8 -1 17 5
21 7 5 8 2 3 -6 -5 -8 -3 -11 6 -8 17 6 19 30 4 41 -5 5 0 6 11 2 14 -4 24 0
28 10 7 20 -4 46 -17 38 -6 -3 -7 -1 -3 6 6 9 11 9 22 0 9 -7 14 -8 13 -3 -4
22 2 35 14 28 6 -4 3 3 -8 16 l-20 23 22 -12 c16 -8 24 -8 29 1 4 7 3 8 -4 4
-7 -4 -12 -1 -12 8 0 9 5 16 12 16 6 0 9 3 6 6 -4 3 2 14 12 24 19 19 17 60
-3 60 -6 0 -1 7 11 16 12 8 26 13 31 10 10 -7 9 13 -2 31 -4 6 -3 14 3 18 5 3
10 15 10 26 0 11 4 17 10 14 5 -3 7 0 4 8 -3 9 4 22 18 31 15 10 17 16 8 16
-13 0 -13 2 0 10 9 6 10 10 3 10 -8 0 -9 9 -3 30 10 36 10 34 10 61 0 11 4 18
9 15 5 -4 7 3 4 14 -3 11 1 28 8 37 12 15 12 16 -6 10 -19 -7 -19 -6 -2 7 10
8 20 27 22 43 2 15 4 28 5 28 1 0 3 13 5 30 3 18 1 25 -4 16 -6 -9 -10 -5 -13
13 -3 15 -1 29 5 33 6 3 7 1 3 -5 -4 -7 -2 -12 3 -12 6 0 9 10 7 23 -2 12 1
30 6 39 6 13 5 16 -6 12 -10 -4 -14 0 -12 12 2 10 11 21 22 25 10 4 13 8 7 8
-7 1 -13 6 -13 12 0 6 7 9 14 6 10 -4 13 -1 9 8 -3 8 -8 13 -12 11 -3 -2 -6
12 -6 31 1 22 7 38 18 44 10 6 17 22 17 42 0 21 3 28 9 19 6 -11 9 -10 13 5 7
25 -1 44 -15 36 -7 -4 -6 1 2 10 7 9 18 14 23 11 6 -4 5 3 -1 15 -7 11 -9 21
-5 21 3 0 0 8 -7 18 -11 14 -11 15 1 5 24 -22 34 -14 14 10 -10 12 -12 16 -4
10 8 -7 18 -13 23 -13 4 0 5 6 0 13 -4 6 -9 21 -10 32 -2 16 -1 17 6 5 5 -8 7
-19 4 -25 -4 -5 -2 -7 2 -2 5 4 9 25 9 46 1 36 0 38 -15 25 -8 -8 -20 -14 -25
-14 -5 0 -2 5 6 10 10 6 11 10 3 10 -7 0 -13 4 -13 9 0 4 16 7 35 6 22 -1 40
5 48 14 11 14 10 15 -7 1 -18 -14 -19 -13 -13 2 3 10 2 20 -4 23 -5 4 -7 11
-3 16 3 6 -6 8 -23 4 -25 -5 -26 -4 -5 4 31 14 28 24 -5 17 -23 -5 -25 -4 -10
4 24 15 12 30 -19 24 -18 -3 -23 -1 -18 7 4 8 3 9 -4 5 -17 -10 -15 -23 8 -43
18 -18 19 -19 0 -19 -10 0 -17 3 -15 6 7 12 -14 34 -34 35 -11 1 -17 -3 -14
-8 3 -5 -10 -7 -31 -4 -29 4 -36 2 -32 -9 11 -28 -4 -13 -19 19 -8 17 -13 25
-11 16 2 -9 -2 -16 -9 -16 -8 0 -13 5 -12 11 1 6 -4 10 -11 8 -8 -1 -11 2 -7
8 3 6 11 7 17 4 6 -4 8 -1 6 7 -3 8 -12 13 -19 11 -11 -3 -11 -1 -2 9 9 9 8
18 -5 37 -9 15 -16 27 -14 29 6 8 1 23 -9 23 -8 0 -7 -6 2 -17 13 -16 12 -17
-4 -4 -13 10 -15 17 -6 27 8 10 8 14 0 14 -6 0 -11 10 -11 21 0 17 -3 19 -14
10 -11 -9 -15 -9 -18 1 -6 16 -70 -2 -74 -20 -1 -7 0 -8 3 -2 2 5 9 10 15 10
17 0 -13 -30 -31 -31 -11 0 -12 -2 -3 -6 10 -4 9 -9 -5 -20 -17 -14 -17 -14 2
-8 18 6 18 4 -3 -18 -17 -18 -19 -26 -10 -35 7 -7 8 -12 2 -12 -15 0 -32 -41
-28 -68 3 -14 0 -21 -6 -17 -10 6 -14 -10 -12 -53 1 -12 -3 -20 -8 -17 -6 4
-10 2 -10 -3 0 -6 7 -12 15 -16 10 -3 15 1 15 11 0 9 3 14 6 10 4 -3 3 -14 -1
-24 -5 -10 -7 -22 -6 -26 1 -5 -3 -6 -9 -2 -6 3 -8 11 -5 16 4 5 1 9 -6 9 -6
0 -9 -8 -6 -19 6 -24 -26 -56 -48 -48 -8 4 -14 3 -12 -2 1 -5 -9 -18 -23 -30
-14 -13 -20 -20 -15 -17 6 2 11 -5 12 -17 0 -12 -1 -16 -4 -9 -8 20 -26 14
-20 -7 4 -15 1 -18 -12 -13 -14 5 -14 4 -2 -11 12 -15 12 -17 -2 -11 -12 4
-15 1 -12 -15 2 -12 0 -19 -5 -16 -11 7 -42 -63 -34 -76 3 -5 -3 -6 -12 -2
-13 5 -16 3 -11 -10 4 -11 2 -14 -8 -11 -8 3 -16 -4 -20 -17 -6 -17 -9 -19
-16 -8 -7 11 -9 11 -9 1 0 -19 -42 -72 -52 -66 -4 3 -8 0 -8 -5 0 -6 -8 -11
-17 -11 -14 0 -15 -2 -4 -9 9 -6 10 -11 2 -15 -6 -4 -11 -4 -11 1 0 4 -5 0
-11 -10 -6 -9 -14 -15 -20 -12 -5 4 -9 -1 -9 -10 0 -11 -5 -15 -15 -11 -9 3
-15 0 -15 -9 0 -7 -9 -16 -19 -20 -11 -3 -18 -12 -15 -19 3 -7 -7 -18 -21 -24
-14 -6 -25 -18 -25 -27 0 -8 -6 -14 -12 -13 -7 2 -12 -3 -10 -10 1 -8 -2 -11
-9 -6 -7 4 -20 -3 -31 -17 -10 -13 -16 -17 -12 -8 3 10 1 20 -5 24 -6 3 -11
-1 -11 -9 0 -9 -5 -16 -11 -16 -5 0 -8 4 -4 9 3 5 0 13 -6 17 -8 5 -9 3 -4 -6
6 -10 4 -12 -10 -6 -15 5 -16 4 -5 -9 11 -13 10 -14 -5 -9 -12 5 -16 4 -11 -4
3 -6 2 -13 -4 -17 -6 -4 -7 -12 -3 -18 4 -8 1 -7 -9 1 -13 10 -18 10 -24 1 -4
-7 -3 -9 4 -5 12 7 10 -20 -3 -31 -4 -4 -5 -3 -1 4 4 7 -1 11 -13 10 -11 0
-17 -6 -14 -14 3 -7 -1 -13 -8 -13 -11 0 -11 -3 1 -10 13 -8 12 -10 -3 -10
-12 0 -16 -4 -11 -12 5 -8 0 -7 -11 2 -17 14 -18 14 -7 -7 8 -14 9 -24 2 -28
-6 -4 -8 -12 -4 -18 3 -7 -2 -3 -10 8 -9 11 -14 26 -11 35 3 9 -1 7 -10 -4
-10 -13 -15 -15 -15 -6 0 7 -3 10 -7 7 -3 -4 1 -15 9 -24 8 -10 18 -25 22 -33
4 -9 1 -8 -7 3 -13 16 -15 16 -21 2 -3 -9 -10 -14 -15 -10 -6 3 -14 -3 -20
-13 -9 -17 -50 -28 -52 -14 0 4 -2 15 -4 25 -2 9 1 15 5 12 5 -3 14 3 20 12 7
12 10 13 7 3 -2 -8 0 -24 4 -35 l9 -20 -1 20 c-2 38 1 55 10 55 5 0 7 -10 5
-23 -4 -20 -4 -20 5 -2 5 13 5 25 -3 34 -6 8 -6 12 -1 9 11 -7 37 17 28 25 -3
3 4 3 15 0 17 -4 20 -1 15 19 -5 23 -5 23 10 3 16 -20 16 -20 10 3 -4 19 -2
21 13 15 16 -6 17 -4 6 9 -10 13 -8 18 12 33 14 11 23 22 20 26 -2 4 1 11 7
15 8 5 10 2 5 -7 -4 -8 1 -3 12 10 12 15 24 21 33 17 8 -4 6 -1 -3 7 -19 15
-7 37 19 37 7 0 13 5 13 11 0 5 -5 7 -12 3 -7 -4 -8 -3 -4 4 4 6 13 9 21 6 10
-4 13 0 10 18 -4 21 -3 22 9 5 13 -16 14 -16 20 -1 4 9 4 19 1 22 -3 3 -5 -1
-5 -8 0 -7 -2 -11 -5 -8 -9 8 6 38 16 32 5 -3 9 0 9 6 0 6 5 8 11 4 7 -4 7 1
-1 16 -7 12 -8 20 -2 16 5 -3 16 2 23 11 8 9 9 14 2 10 -8 -5 -8 -1 0 17 7 13
16 22 20 19 5 -3 5 3 -1 13 -11 23 -5 47 11 38 8 -5 8 -2 0 7 -7 7 -13 18 -13
24 0 5 5 3 10 -5 8 -13 10 -12 10 3 0 9 4 17 9 17 6 0 8 9 6 20 -2 11 0 18 6
15 5 -4 9 3 9 14 0 12 4 21 9 21 5 0 7 10 3 22 -5 19 -3 21 9 11 12 -10 15 -8
15 7 0 10 -5 16 -11 13 -5 -4 -1 3 9 15 11 12 16 25 13 29 -4 3 1 12 11 20 16
14 16 14 -1 9 -11 -3 -16 -2 -12 4 3 6 12 10 19 10 8 0 20 8 27 17 13 17 13
17 -6 3 -20 -14 -20 -14 -1 7 10 13 23 20 28 17 4 -3 7 0 6 7 -2 7 2 13 9 14
6 0 15 4 20 9 4 5 3 6 -3 3 -7 -4 -14 0 -18 8 -3 8 -2 14 2 14 19 -3 30 2 36
17 4 10 2 13 -7 9 -6 -4 -5 -1 4 7 9 7 14 19 11 27 -3 9 0 11 9 6 8 -5 11 -5
7 0 -4 4 -3 14 4 22 9 11 7 12 -8 6 -17 -6 -17 -5 -5 10 7 9 18 14 24 10 6 -3
7 -1 3 6 -4 6 -12 8 -18 5 -5 -4 -4 4 3 17 7 13 13 40 14 59 3 57 5 61 14 55
6 -3 8 3 6 14 -2 11 3 22 11 25 8 3 14 12 14 19 0 19 35 49 45 40 5 -5 3 1 -5
11 -8 11 -10 17 -4 13 7 -4 18 1 25 10 12 14 12 16 -1 9 -8 -4 -4 2 10 13 21
18 22 20 5 15 -19 -5 -19 -5 -3 9 10 8 15 17 12 20 -9 9 6 48 17 42 5 -4 5 5
-1 20 -5 14 -6 24 -1 21 5 -3 12 1 15 10 5 12 2 15 -11 10 -15 -6 -15 -5 1 13
10 11 15 25 10 32 -4 7 1 18 11 26 11 7 15 13 11 13 -5 0 -3 7 4 15 9 11 10
18 1 29 -9 10 -7 16 5 26 8 8 13 22 11 32 -3 10 -1 15 5 12 5 -3 9 2 7 12 -1
11 1 27 5 36 4 9 8 22 10 30 1 7 6 19 10 27 7 10 6 12 -4 6 -10 -6 -12 -4 -7
9 4 10 7 20 7 22 0 3 3 3 8 1 4 -3 7 35 7 83 0 55 -4 86 -10 83 -5 -2 -2 2 8
10 13 11 15 16 5 20 -10 3 -10 7 -1 17 9 10 8 18 -4 36 -8 13 -12 24 -8 24 3
0 0 7 -9 15 -20 21 -23 19 -31 -15 -4 -18 -13 -30 -23 -31 -11 0 -12 -2 -4 -6
6 -2 12 -9 12 -14 0 -6 -5 -7 -12 -3 -7 5 -9 2 -5 -9 4 -11 2 -14 -8 -10 -8 3
-12 10 -8 17 4 6 9 24 11 41 1 16 4 39 5 50 2 11 -3 29 -10 41 -7 11 -10 24
-6 27 3 4 1 7 -6 7 -7 0 -9 5 -6 10 3 6 1 10 -5 10 -6 0 -9 4 -6 9 3 5 -1 22
-9 37 -13 26 -20 26 -16 1 1 -5 -3 -6 -9 -2 -7 4 -7 12 0 25 7 13 6 20 -3 23
-9 4 -8 8 3 16 13 9 13 11 -3 11 -15 0 -16 6 -11 40 4 25 3 40 -4 40 -5 0 -12
7 -15 14 -4 11 -1 13 10 9 15 -6 15 -5 1 16 -9 12 -14 31 -11 42 3 11 0 19 -6
19 -7 0 -9 5 -4 13 15 25 15 51 -1 37 -13 -10 -14 -7 -6 19 5 19 5 31 -1 31
-5 0 -9 5 -9 11 0 5 5 7 11 3 7 -4 7 1 -1 16 -7 13 -8 20 -2 16 6 -3 14 -1 18
6 4 7 4 10 -1 6 -17 -16 -34 12 -24 38 6 17 6 23 -1 19 -6 -4 -10 5 -10 22 0
63 -2 73 -9 73 -9 0 -25 57 -22 78 1 6 -2 12 -6 12 -5 0 -8 16 -7 36 2 28 -3
37 -19 44 -20 8 -20 9 -3 9 19 1 19 1 1 14 -13 10 -15 16 -6 21 9 6 7 12 -6
23 -10 8 -11 11 -3 7 12 -6 13 -5 3 7 -7 9 -14 25 -16 36 -2 12 -9 28 -15 36
-10 12 -10 17 -1 23 8 5 9 3 4 -6 -6 -9 -4 -11 4 -6 9 6 9 12 -3 25 -9 10 -16
23 -16 30 0 7 -4 9 -10 6 -6 -3 -7 1 -4 9 3 9 10 13 16 10 5 -3 4 3 -4 15 -7
12 -16 21 -20 21 -4 0 -5 6 -2 14 3 8 0 17 -7 22 -8 5 -10 3 -4 -6 6 -9 4 -11
-4 -6 -9 6 -8 12 4 26 16 18 16 18 -7 13 -18 -4 -20 -3 -8 6 13 9 13 12 1 20
-11 7 -10 10 5 14 16 4 17 5 2 6 -10 0 -18 6 -18 12 0 5 5 7 11 3 6 -3 4 4 -4
17 -9 13 -17 29 -18 34 0 6 -5 9 -11 7 -5 -1 -7 2 -3 8 3 6 11 8 16 5 5 -4 9
1 9 10 0 9 -5 13 -10 10 -6 -3 -10 -1 -10 5 0 6 -5 8 -12 4 -7 -4 -8 -3 -4 5
4 6 12 8 18 5 7 -5 8 -2 3 6 -4 7 -2 16 6 22 10 6 6 7 -11 3 -21 -5 -23 -4
-10 7 15 13 22 90 8 81 -13 -7 -9 12 4 26 9 8 9 11 2 9 -7 -2 -12 2 -12 7 0 6
4 9 10 7 5 -1 7 2 3 8 -3 6 -11 8 -17 4 -6 -4 -9 9 -7 34 2 23 -1 45 -6 49 -4
5 -5 2 0 -6 5 -10 4 -12 -3 -7 -9 5 -9 13 -2 27 8 13 7 19 0 19 -7 0 -8 7 -3
18 13 28 9 87 -6 84 -7 -1 -10 2 -6 8 3 6 11 8 16 5 16 -11 10 7 -8 22 -10 8
-13 12 -7 9 7 -3 12 4 12 19 0 14 -6 25 -12 25 -6 0 -4 5 4 10 8 5 11 10 5 10
-5 0 -10 15 -9 33 0 17 -4 41 -9 52 -10 19 -9 19 9 5 18 -15 18 -14 1 12 -10
16 -13 29 -7 33 15 9 12 27 -2 19 -7 -4 -5 2 5 13 13 15 15 23 7 28 -9 6 -9
10 1 16 9 5 10 9 3 9 -7 0 -15 7 -18 16 -6 15 -4 15 10 3 16 -13 16 -12 6 8
-15 27 -15 36 -2 28 7 -4 7 3 0 19 -7 19 -6 26 2 26 7 0 4 6 -7 13 -14 11 -15
16 -5 22 9 6 11 4 5 -5 -5 -9 -4 -11 4 -6 9 6 9 11 0 22 -8 10 -8 14 0 14 6 0
11 5 11 10 0 6 -3 9 -7 9 -22 -4 -25 3 -7 17 10 8 13 13 7 9 -7 -3 -13 -3 -14
2 0 4 -2 16 -4 26 -2 9 1 15 6 11 5 -3 6 -10 3 -16 -4 -7 -2 -8 4 -4 6 4 9 13
5 21 -3 9 0 22 6 29 8 10 9 16 1 21 -5 3 -10 16 -10 28 0 18 2 19 10 7 13 -21
13 -3 -1 22 -8 15 -8 19 0 14 7 -5 11 2 11 18 0 13 3 32 7 42 5 13 3 15 -8 9
-11 -7 -12 -6 -2 6 14 18 14 30 0 48 -10 12 -9 13 2 6 11 -6 13 -4 8 8 -3 10
-2 17 4 17 6 0 8 9 4 20 -4 12 -2 20 6 20 9 0 9 3 0 14 -10 11 -8 17 6 25 12
7 13 10 4 11 -7 0 -11 6 -8 15 4 8 2 17 -3 20 -5 3 -7 12 -4 20 4 8 11 12 18
8 6 -4 4 2 -4 12 -9 11 -10 16 -2 11 7 -4 12 -2 12 4 0 6 5 8 10 5 6 -3 13 1
16 10 6 13 8 14 15 3 6 -8 9 -9 9 -2 0 7 7 15 16 18 8 3 12 2 9 -4 -3 -6 -1
-11 4 -11 6 -1 15 -2 19 -3 11 -1 42 -33 42 -42 0 -3 9 -14 19 -23 11 -10 21
-24 23 -31 2 -8 9 -21 16 -28 7 -8 10 -17 7 -22 -3 -5 -1 -11 5 -15 7 -4 6
-14 -2 -28 -10 -19 -9 -20 4 -9 13 10 17 10 22 -3 3 -9 10 -14 14 -11 5 3 9
-1 9 -9 0 -12 -4 -12 -19 2 -18 16 -19 16 -9 -9 5 -14 7 -29 3 -33 -3 -3 -7
-16 -7 -28 0 -14 -6 -22 -17 -21 -10 1 -14 -4 -11 -12 4 -10 0 -12 -13 -7 -12
4 -15 3 -10 -5 4 -7 1 -12 -9 -12 -9 0 -26 -10 -38 -21 -12 -12 -15 -19 -7
-15 8 4 4 -2 -10 -13 -14 -11 -31 -21 -39 -21 -8 0 -11 -3 -8 -6 4 -4 -6 -18
-21 -30 -20 -18 -23 -24 -10 -24 10 0 15 -7 14 -17 -2 -10 3 -24 11 -32 8 -7
12 -19 9 -27 -3 -8 2 -11 13 -9 26 5 48 -10 26 -18 -10 -5 -14 -3 -9 5 4 6 3
8 -4 5 -11 -8 7 -57 21 -57 4 0 2 10 -4 23 -6 12 -8 19 -4 15 5 -4 14 -3 22 4
7 6 16 8 20 4 3 -3 1 -6 -6 -6 -7 0 -10 -4 -6 -10 3 -5 0 -19 -7 -30 -11 -18
-10 -23 4 -34 15 -11 15 -13 0 -25 -15 -10 -15 -11 -1 -7 9 2 22 1 28 -4 9 -5
4 -7 -13 -7 -28 0 -45 15 -28 26 7 4 6 13 -4 25 -13 19 -14 18 -14 -12 0 -18
0 -35 0 -39 0 -5 6 -8 13 -8 6 -1 11 -7 9 -15 -3 -11 -1 -11 13 0 13 11 18 11
31 -3 8 -9 9 -12 2 -7 -17 14 -28 12 -28 -6 0 -8 4 -12 10 -9 6 4 8 -6 6 -24
-2 -18 2 -36 10 -42 8 -6 11 -15 9 -20 -7 -11 30 -71 38 -62 6 6 11 -11 8 -29
0 -5 6 -8 14 -8 8 0 15 -4 15 -8 0 -5 9 -19 20 -32 12 -13 18 -30 15 -37 -2
-8 -1 -12 4 -9 4 3 21 -19 36 -49 16 -30 32 -52 36 -49 4 2 5 -5 2 -16 -3 -11
0 -20 6 -20 6 0 10 -3 10 -7 -4 -22 2 -33 13 -27 7 5 9 2 5 -9 -3 -9 4 -27 18
-43 13 -15 22 -31 19 -35 -2 -4 0 -10 6 -14 6 -4 8 -11 4 -16 -3 -5 0 -8 8 -7
7 2 13 -4 13 -12 0 -8 2 -17 5 -20 22 -22 34 -43 20 -35 -13 8 -13 6 -1 -8 7
-9 18 -14 24 -10 5 3 8 2 4 -3 -7 -12 27 -87 35 -78 4 3 5 -2 4 -12 -3 -19 41
-61 57 -56 5 1 6 -2 2 -8 -5 -8 -12 -7 -23 2 -14 11 -14 9 1 -8 9 -11 14 -24
10 -27 -3 -4 -1 -7 6 -7 7 0 9 -5 5 -12 -6 -10 -5 -10 7 -1 12 10 15 8 16 -8
1 -12 -3 -17 -9 -13 -7 4 -8 2 -4 -4 4 -6 14 -8 23 -5 11 4 14 3 9 -5 -4 -7
-1 -12 10 -12 14 0 14 -3 4 -16 -11 -12 -11 -15 1 -12 8 2 13 -2 12 -9 -2 -8
4 -10 14 -6 12 5 15 2 11 -14 -5 -19 -3 -21 40 -25 13 -2 18 -9 16 -26 -1 -13
0 -21 3 -18 4 3 15 -1 25 -11 10 -9 18 -12 18 -7 0 5 7 -2 16 -14 8 -12 24
-22 35 -22 10 0 19 -6 19 -14 0 -9 7 -12 18 -9 11 2 25 -4 33 -14 12 -16 12
-17 -1 -8 -9 6 -4 0 10 -12 14 -13 33 -23 43 -23 9 0 17 -4 17 -10 0 -5 9 -10
21 -10 13 0 18 -4 13 -12 -5 -8 0 -7 11 2 11 9 16 10 11 3 -4 -8 -2 -13 6 -14
7 0 21 -2 30 -4 12 -2 15 2 11 13 -4 10 -2 13 5 8 8 -4 12 0 12 11 0 15 2 16
10 3 5 -8 10 -10 10 -4 0 7 11 15 25 18 16 4 22 11 19 21 -4 9 0 15 10 15 9 0
15 6 14 13 -2 6 3 11 11 9 9 -2 11 3 7 14 -5 12 -2 15 9 10 11 -4 14 -2 9 6
-7 11 -13 41 -16 75 -1 7 -5 10 -9 7 -5 -2 -6 -12 -3 -22 5 -15 4 -15 -6 1 -9
14 -9 22 2 35 10 13 8 13 -9 -2 -18 -15 -20 -23 -12 -40 10 -21 10 -21 -7 -1
-16 20 -16 20 -12 -1 3 -13 0 -21 -7 -21 -10 0 -11 7 -5 23 5 12 6 25 2 30 -4
4 -1 4 6 0 6 -4 13 -2 13 3 3 20 5 26 17 49 7 12 17 20 22 17 6 -3 7 1 4 9 -3
9 -11 13 -17 9 -6 -4 -7 -1 -3 6 5 7 15 10 24 6 12 -4 12 -1 -4 16 -10 12 -14
20 -9 17 6 -4 19 1 30 9 19 15 19 15 -5 9 -24 -7 -24 -6 -6 8 10 9 24 13 30
10 6 -3 0 3 -13 14 l-25 20 30 -4 c25 -4 26 -3 8 5 -12 5 -25 14 -29 20 -3 6
-11 8 -17 5 -7 -5 -8 -2 -4 5 6 9 13 8 27 -5 17 -16 19 -16 19 -1 0 10 -4 17
-10 17 -13 0 -13 37 0 42 6 2 0 9 -12 17 -21 13 -22 13 -9 -2 7 -10 9 -17 5
-17 -17 0 -33 36 -22 51 8 11 8 9 4 -6 -6 -19 -6 -19 9 -1 8 10 12 22 10 27
-3 4 0 11 6 15 7 4 9 3 5 -4 -3 -6 -2 -13 3 -16 10 -7 9 20 -2 30 -12 12 -8
26 6 18 9 -5 9 -4 1 5 -14 16 -6 63 10 54 7 -4 6 -1 -1 9 -7 8 -10 18 -6 21 3
4 0 13 -7 22 -11 13 -10 14 6 8 15 -5 17 -4 8 8 -6 8 -9 29 -7 48 2 25 0 32
-11 28 -8 -3 -22 1 -33 9 -10 9 -13 13 -6 10 6 -4 14 0 16 6 3 8 6 5 6 -6 1
-14 4 -16 14 -7 10 7 17 7 24 0 8 -8 13 -7 18 0 3 7 1 10 -6 9 -7 -2 -13 3
-14 11 0 8 -7 16 -15 18 -12 4 -12 3 -1 -5 8 -6 9 -12 3 -16 -5 -3 -13 1 -16
10 -9 23 -8 24 14 24 21 0 22 2 24 65 1 22 5 45 9 52 5 8 -1 10 -20 7 -19 -3
-24 -2 -14 5 8 5 11 16 8 26 -4 9 -3 13 2 10 6 -3 7 15 4 42 -3 27 -10 51 -16
55 -9 6 -9 8 -1 8 7 0 15 8 18 17 4 10 4 14 0 11 -9 -10 -44 10 -44 25 0 8 4
6 10 -3 8 -12 9 -10 7 8 -2 13 -17 34 -33 48 -16 13 -24 24 -19 23 23 -3 25 2
9 26 -9 14 -20 22 -25 19 -5 -3 -9 0 -9 6 0 7 7 10 15 7 21 -9 27 9 8 24 -14
12 -16 12 -8 -1 5 -10 5 -12 -3 -5 -6 6 -12 17 -14 25 -2 8 -10 21 -18 28 -13
11 -13 12 0 10 9 -2 16 2 17 7 0 6 -4 9 -10 7 -6 -2 -4 5 4 14 13 16 12 17 -5
11 -16 -6 -17 -5 -7 7 10 11 8 17 -6 25 -17 10 -17 10 0 11 9 0 17 4 17 10 0
5 -7 7 -15 4 -8 -4 -15 -1 -15 6 0 6 -5 8 -12 4 -7 -4 -8 -3 -4 4 4 7 15 12
24 12 15 0 15 2 2 10 -14 9 -7 14 13 11 5 -1 6 3 2 9 -3 6 -11 8 -16 5 -5 -4
-9 -2 -9 4 0 5 5 13 10 16 14 9 1 28 -15 21 -14 -5 -14 18 0 31 4 4 5 3 2 -3
-4 -7 2 -14 13 -17 11 -3 20 -1 20 4 0 5 -6 9 -12 9 -10 0 -9 3 1 9 9 6 10 11
3 15 -6 4 -9 13 -6 21 4 8 9 13 13 10 4 -2 8 2 8 10 0 8 -4 15 -8 15 -4 0 -5
9 -2 21 4 13 -2 27 -15 39 -20 19 -20 19 -25 -2 -6 -23 -27 -15 -26 10 0 14 2
13 10 -3 7 -16 9 -14 6 12 -2 18 0 30 4 28 10 -7 16 23 15 73 -1 23 3 42 8 42
4 0 3 6 -3 14 -9 11 -9 15 1 19 8 4 9 6 1 6 -7 1 -9 10 -5 24 5 19 3 20 -9 10
-13 -11 -15 -8 -11 17 2 17 0 30 -6 30 -5 0 -12 9 -15 21 -4 15 -2 19 9 15 24
-9 16 2 -13 19 -16 9 -20 14 -10 11 9 -3 17 -2 17 2 0 10 -43 37 -53 34 -5 -1
-6 2 -2 8 3 6 11 8 16 5 5 -4 9 -2 9 4 0 15 -61 72 -70 66 -5 -3 -12 0 -16 6
-4 8 -3 9 4 5 7 -4 12 -1 12 9 0 9 -4 13 -10 10 -5 -3 -10 1 -10 10 0 9 -4 14
-9 10 -6 -3 -8 4 -6 15 2 11 0 18 -6 15 -10 -7 -30 35 -22 47 2 4 -3 5 -11 2
-9 -4 -18 1 -22 10 -3 9 -16 16 -28 16 -17 0 -18 2 -6 10 13 8 12 10 -2 10
-10 0 -18 5 -18 10 0 6 -8 10 -17 10 -12 0 -14 3 -7 8 9 5 8 10 -1 19 -11 10
-15 10 -18 0 -3 -7 -6 -5 -6 4 -1 9 -8 20 -17 23 -10 4 -14 13 -10 24 5 14 3
13 -10 -3 -16 -20 -16 -19 -9 4 6 21 4 23 -13 19 -14 -4 -19 -2 -16 7 3 7 0
16 -7 21 -8 5 -10 3 -5 -7 4 -8 1 -6 -7 4 -11 14 -16 15 -20 5 -4 -9 -6 -8 -6
3 -1 20 -35 52 -45 42 -4 -4 -4 1 0 11 5 14 4 17 -4 12 -7 -4 -12 -2 -12 4 0
6 -4 8 -10 5 -6 -4 -7 1 -3 11 5 13 3 15 -7 9 -10 -6 -12 -4 -7 8 4 12 1 15
-14 12 -17 -4 -19 -2 -9 10 10 12 9 15 -9 15 -11 0 -21 4 -21 9 0 5 -9 13 -20
16 -11 3 -20 13 -20 21 0 8 -7 17 -15 20 -8 4 -12 11 -8 17 4 6 -2 8 -15 5
-15 -4 -19 -2 -15 8 4 12 -8 19 -22 12 -2 -2 -11 6 -20 17 l-15 20 5 -20 c5
-16 3 -16 -6 3 -7 12 -18 22 -24 22 -7 0 -16 7 -19 16 -4 9 -10 14 -13 10 -4
-4 -13 4 -20 16 -7 13 -12 17 -13 11 0 -7 -5 -13 -10 -13 -6 0 -9 3 -9 8 3 20
-2 32 -16 32 -8 0 -15 5 -15 10 0 6 -5 10 -11 10 -6 0 -17 7 -26 15 -8 8 -20
12 -26 8 -7 -4 -6 1 2 11 8 9 10 16 5 15 -19 -3 -54 14 -54 27 0 8 -3 13 -7
12 -17 -3 -42 15 -36 26 4 6 -1 5 -10 -3 -15 -12 -17 -12 -10 4 5 14 3 17 -9
13 -8 -4 -27 5 -44 21 -16 14 -36 26 -44 26 -8 -1 -19 2 -25 6 -5 4 -13 8 -17
8 -5 1 -9 1 -10 2 -7 2 -98 10 -135 12 -24 1 -43 6 -43 11 0 5 -7 3 -15 -4
-11 -9 -15 -9 -15 -1 0 7 -4 9 -10 6 -6 -3 -10 -1 -10 5 0 6 -4 9 -9 5 -6 -3
-28 -1 -50 4 -28 6 -42 5 -46 -3 -4 -8 -6 -8 -11 1 -3 7 -15 9 -34 3 -20 -6
-30 -5 -34 3 -3 9 -7 9 -13 1 -4 -6 -20 -10 -35 -9 -16 1 -28 -1 -28 -5 0 -4
-10 -6 -22 -6 -13 1 -29 -2 -35 -7 -9 -6 -13 -5 -13 3 0 8 -4 9 -12 4 -7 -5
-25 -9 -40 -8 -16 0 -28 -3 -28 -7 0 -4 -9 -6 -20 -4 -11 2 -20 -1 -20 -7 0
-7 -4 -7 -13 1 -8 6 -17 8 -21 4 -3 -4 -16 -8 -28 -10 -12 -2 -27 -8 -34 -14
-8 -7 -14 -6 -17 3 -4 11 -6 10 -6 0 -1 -7 -5 -10 -11 -7 -6 3 -10 1 -10 -4 0
-6 -3 -10 -7 -9 -18 4 -73 -15 -73 -25 0 -7 -4 -6 -10 3 -5 8 -10 10 -10 4 0
-11 -49 -27 -82 -27 -10 0 -18 -4 -18 -10 0 -6 -3 -8 -6 -4 -4 3 -22 0 -41 -8
-19 -8 -39 -12 -44 -9 -5 3 -9 -1 -9 -8 0 -8 -10 -14 -22 -15 -11 -1 -25 -8
-29 -15 -5 -7 -9 -9 -9 -4 0 6 -5 5 -11 -1 -6 -6 -18 -9 -25 -6 -8 3 -14 1
-14 -4 0 -5 -11 -10 -26 -11 -14 -1 -34 -7 -45 -12 -11 -6 -24 -8 -29 -5 -6 3
-10 1 -10 -4 0 -6 -3 -10 -7 -10 -5 1 -11 0 -15 -1 -13 -4 -27 -7 -39 -9 -5 0
-8 -5 -5 -9 3 -5 -8 -8 -24 -7 -17 1 -30 -2 -30 -6 0 -5 -7 -6 -15 -3 -8 4
-15 2 -15 -4 0 -5 -7 -13 -16 -16 -10 -4 -13 -2 -8 7 4 6 -1 5 -12 -4 -27 -23
-48 -34 -41 -22 3 5 -1 10 -9 10 -8 0 -13 -6 -10 -13 3 -7 -2 -11 -12 -9 -9 1
-31 -3 -49 -10 -17 -7 -34 -11 -37 -7 -3 3 -6 0 -6 -6 0 -6 -7 -9 -15 -6 -11
4 -13 2 -10 -9 5 -11 0 -13 -19 -10 -15 3 -26 1 -26 -6 0 -6 -7 -8 -17 -4 -10
4 -14 2 -10 -4 4 -7 0 -10 -10 -9 -10 2 -33 -3 -50 -11 -18 -7 -33 -10 -33 -6
0 4 -7 -2 -15 -13 -10 -13 -14 -14 -15 -5 0 11 -3 11 -15 1 -8 -7 -15 -9 -15
-5 0 5 -9 0 -19 -9 -11 -10 -21 -13 -25 -7 -4 6 -18 6 -36 1 -19 -5 -30 -5
-30 1 0 6 -8 5 -20 -1 -17 -9 -20 -8 -20 7 0 10 -4 14 -8 8 -9 -13 -44 -16
-36 -4 3 6 -6 8 -20 5 -14 -3 -26 -2 -26 2 0 4 -14 8 -31 8 -17 1 -35 7 -39
14 -5 9 -9 9 -14 1 -5 -8 -12 -7 -22 3 -8 9 -22 12 -31 9 -12 -5 -14 -3 -8 8
7 11 6 12 -6 2 -12 -10 -18 -10 -27 -1 -7 7 -12 8 -12 4 0 -5 -8 -2 -17 5 -15
12 -16 12 -8 -1 7 -12 6 -13 -7 -3 -8 7 -18 10 -21 6 -4 -3 -7 -1 -7 6 0 7 -4
9 -10 6 -5 -3 -10 -1 -10 4 0 6 -3 10 -7 9 -5 -1 -24 3 -44 10 -20 7 -41 12
-45 10 -5 -1 -19 3 -30 10 -12 6 -24 8 -28 5 -3 -3 -6 -1 -6 5 0 6 -6 9 -14 6
-7 -3 -20 2 -28 10 -9 9 -19 11 -24 6 -6 -6 -21 -4 -37 5 -19 10 -26 10 -21 2
5 -9 3 -9 -7 1 -7 6 -23 12 -35 12 -13 0 -26 5 -29 11 -4 6 -13 8 -21 5 -8 -3
-17 1 -20 9 -4 8 -15 15 -25 15 -10 0 -19 5 -19 11 0 6 -7 9 -15 5 -8 -3 -21
2 -30 10 -8 9 -15 12 -15 8 0 -3 -7 -1 -15 6 -8 7 -15 10 -15 7 0 -3 -13 -2
-29 3 -34 10 -47 3 -60 -33 -7 -18 -7 -26 -1 -22 6 3 10 2 10 -4 0 -5 -6 -11
-12 -13 -10 -4 -10 -11 0 -33 12 -27 12 -28 -5 -14 -16 12 -17 12 -6 -2 7 -9
10 -19 6 -23 -4 -4 0 -4 10 0 11 4 17 1 17 -7 0 -12 2 -12 9 0 6 9 9 5 9 -14
-1 -23 -2 -25 -10 -12 -11 21 -28 22 -28 1 0 -9 -5 -12 -12 -8 -16 10 -68 12
-68 3 0 -4 -18 -7 -39 -6 -21 1 -46 -4 -54 -11 -10 -9 -17 -9 -21 -3 -5 7 -15
7 -31 1 -14 -5 -25 -7 -25 -4 0 4 -7 1 -15 -6 -12 -10 -15 -10 -15 0 0 10 -3
10 -14 1 -9 -8 -16 -8 -20 -2 -5 7 -15 7 -31 1 -18 -7 -25 -6 -25 3 0 7 -3 8
-8 2 -9 -13 -62 -17 -62 -5 0 5 -6 7 -14 4 -8 -3 -23 -1 -32 4 -11 6 -27 7
-42 1 -13 -5 -21 -5 -18 0 3 5 -1 11 -9 15 -8 3 -17 0 -21 -6 -5 -7 -2 -8 6
-3 9 5 11 4 6 -4 -6 -8 -12 -9 -20 -2 -9 7 -17 7 -26 -2 -9 -8 -11 -9 -6 0 3
6 2 14 -4 18 -5 3 -10 3 -10 -2 0 -4 -11 -9 -25 -9 -14 -1 -25 2 -25 7 0 6 -9
5 -20 -1 -14 -8 -20 -8 -20 0 0 8 -6 8 -20 0 -15 -8 -20 -8 -20 1 0 8 -4 8
-13 1 -8 -7 -18 -7 -27 -2 -10 6 -23 4 -38 -6 -12 -8 -22 -11 -21 -7 3 20 -2
27 -11 13 -9 -13 -10 -13 -10 0 -1 9 -6 6 -14 -9 -11 -20 -14 -21 -19 -7 -5
11 -3 15 5 10 7 -5 8 -3 3 5 -5 9 -11 9 -17 3 -7 -7 -19 -7 -33 -2 -13 5 -26
6 -29 2 -10 -9 -46 -10 -46 0 0 5 -4 6 -10 3 -19 -12 -50 -14 -50 -3 0 7 -6 6
-15 -2 -12 -10 -15 -10 -15 0 0 10 -3 10 -15 0 -8 -7 -15 -8 -15 -3 0 5 -9 9
-19 9 -11 0 -18 -4 -15 -7 2 -4 -1 -11 -7 -15 -7 -4 -9 -3 -5 4 3 6 1 14 -6
18 -18 12 -57 11 -51 -1 3 -5 0 -5 -7 2 -7 6 -19 9 -28 6 -11 -5 -13 -3 -7 7
6 10 4 11 -6 4 -20 -12 -39 -14 -39 -3 0 6 -5 7 -10 4 -6 -4 -8 -12 -4 -18 3
-7 -1 -4 -9 6 -13 15 -15 16 -21 2 -3 -8 -11 -15 -18 -14 -10 0 -10 2 0 6 17
7 15 20 -3 20 -8 0 -15 -4 -15 -9 0 -4 -5 -8 -11 -8 -5 0 -8 4 -4 9 3 5 1 13
-5 16 -6 4 -10 3 -9 -2 3 -18 -2 -28 -9 -17 -14 22 -72 28 -73 7 0 -14 -2 -15
-7 -3 -4 8 -16 14 -27 14 -11 -1 -30 -2 -43 -3 -13 -1 -20 -5 -17 -11 3 -5 1
-10 -4 -10 -6 0 -11 8 -12 18 0 14 -2 14 -9 -3 -7 -17 -9 -17 -9 -3 -1 14 -9
17 -38 15 -24 -1 -38 2 -38 10 0 6 -4 15 -9 20 -5 4 -6 3 -3 -3 4 -7 0 -15 -9
-18 -9 -3 -12 -2 -9 4 4 6 -5 10 -24 8 -16 -1 -27 -7 -25 -13 3 -5 -1 -2 -8 7
-13 15 -15 15 -26 0 -7 -9 -10 -11 -7 -4 3 6 0 12 -7 12 -8 0 -20 -6 -27 -12
-10 -11 -11 -9 -5 7 7 18 6 19 -10 6 -14 -12 -17 -12 -14 -1 2 9 -6 14 -19 15
-12 0 -25 3 -28 7 -4 4 -16 3 -26 -2 -12 -7 -20 -7 -24 0 -9 15 -27 12 -20 -2
4 -7 -3 -2 -14 12 -17 20 -20 21 -14 5 5 -16 4 -18 -8 -9 -8 6 -24 10 -36 9
-13 -1 -23 2 -23 6 0 4 -8 8 -17 8 -47 2 -63 6 -63 14 0 5 -6 4 -14 -2 -10 -8
-15 -8 -18 -1 -2 6 -17 13 -33 16 -16 3 -31 7 -33 9 -2 2 -17 -1 -33 -5 -23
-7 -31 -5 -36 5 -3 8 -9 13 -13 10 -5 -3 -19 -1 -33 4 -17 7 -28 6 -36 -2 -10
-9 -12 -9 -9 3 2 8 -3 14 -11 12 -7 -1 -19 2 -25 8 -7 5 -15 7 -19 4 -3 -3
-17 -7 -31 -8 -22 -3 -24 -1 -14 11 6 8 7 13 2 12 -5 -1 -12 0 -16 1 -5 1 -11
3 -15 4 -5 1 -18 7 -30 14 -18 10 -23 10 -23 0 0 -6 -7 -3 -16 8 -8 10 -12 12
-8 4 7 -13 5 -13 -9 -2 -9 8 -25 11 -38 7 -14 -5 -19 -4 -15 4 5 7 -2 11 -19
11 -18 0 -24 4 -19 13 5 7 0 6 -11 -3 -11 -9 -16 -10 -11 -2 6 10 -7 17 -17
10 -2 -2 -11 3 -19 10 -13 10 -17 10 -21 0 -4 -8 -6 -7 -6 4 -1 11 -6 15 -16
12 -8 -4 -15 -1 -15 5 0 9 -5 9 -21 0 -15 -8 -19 -8 -15 0 4 6 2 11 -4 11 -6
0 -8 5 -3 13 4 6 -5 4 -21 -6 -27 -18 -27 -18 -17 1 7 13 7 19 -2 20 -27 2
-72 14 -77 20 -3 4 -13 8 -24 10 -10 2 -27 12 -38 22 -24 22 -56 32 -64 19 -3
-6 -11 -5 -20 2 -8 6 -14 8 -14 5 0 -4 -10 -1 -22 6 -13 7 -26 11 -29 11 -4
-1 -6 3 -5 10 0 7 -3 12 -9 12 -5 0 -9 -4 -7 -8 1 -5 -2 -5 -8 -2 -6 4 -9 13
-6 21 3 7 0 16 -6 20 -7 4 -8 3 -4 -4 4 -7 1 -12 -9 -12 -9 0 -14 3 -11 8 2 4
-17 7 -44 7 -35 0 -46 3 -43 13 3 7 10 9 17 5 11 -7 -3 6 -42 38 -7 6 -11 18
-8 26 3 8 1 11 -4 8 -6 -3 -10 -1 -10 5 0 7 -6 10 -14 7 -10 -4 -14 0 -11 13
2 12 -6 27 -20 38 -14 11 -21 22 -18 26 3 3 3 6 -2 6 -4 0 -14 -8 -22 -17 -13
-16 -13 -16 -3 5 13 27 4 66 -14 59 -7 -3 -18 4 -24 14 -7 10 -23 19 -37 19
-14 0 -25 4 -25 9 0 13 -34 8 -43 -6 -9 -15 -33 -17 -41 -4 -4 5 2 7 13 4 11
-3 21 2 25 12 7 20 -10 45 -30 45 -13 0 -19 13 -15 33 1 5 -3 6 -9 2 -6 -4
-17 -1 -25 5 -8 7 -15 9 -15 5 0 -4 -8 -1 -17 6 -9 8 -14 9 -10 3 4 -7 1 -14
-7 -17 -8 -3 -13 1 -12 11 1 13 -8 17 -36 17 -20 0 -40 4 -45 9 -5 5 0 6 12 2
17 -6 18 -5 5 6 -8 7 -20 20 -28 28 -7 8 -11 10 -8 4 3 -6 -1 -11 -8 -11 -7 0
-13 6 -13 14 0 7 5 13 10 13 6 0 7 3 4 6 -4 4 -14 1 -24 -7 -11 -9 -14 -10 -9
-1 4 7 1 12 -8 12 -9 0 -16 5 -16 11 0 5 4 8 8 5 5 -3 9 1 9 9 0 8 -3 14 -6
13 -26 -3 -33 3 -21 17 10 12 8 13 -10 10 -15 -3 -20 0 -17 9 4 10 -2 13 -19
11 -20 -2 -22 0 -13 12 7 7 9 16 5 20 -3 3 -6 1 -6 -5 0 -6 -6 -9 -14 -6 -8 3
-12 12 -9 20 4 10 0 12 -11 8 -9 -3 -16 -1 -16 6 0 6 -5 8 -12 4 -8 -5 -9 -2
-5 10 6 14 3 17 -8 12 -11 -4 -15 0 -13 12 2 11 -5 18 -21 20 -19 3 -21 6 -10
13 11 7 10 9 -4 9 -10 0 -16 4 -13 9 3 5 -3 11 -14 14 -11 3 -20 12 -20 21 0
15 -12 21 -35 16 -5 -1 -4 4 3 11 18 19 15 34 -5 18 -10 -8 -14 -9 -10 -2 4 6
-1 18 -13 26 -11 7 -17 17 -13 20 3 4 1 7 -6 7 -7 0 -9 5 -5 12 5 8 0 9 -14 6
-12 -4 -20 -2 -17 2 5 9 -48 30 -75 30 -10 0 -21 -7 -24 -15z m794 -675 c0 7
3 11 6 7 3 -3 -3 -19 -15 -35 -19 -28 -20 -31 -4 -43 15 -12 16 -12 11 3 -4 9
0 24 8 35 14 17 14 16 4 -4 -7 -16 -7 -23 0 -23 5 0 9 -6 8 -12 -2 -7 3 -12
11 -10 12 3 12 1 0 -14 -12 -15 -12 -16 9 -10 22 7 32 -7 12 -19 -13 -8 -2
-32 14 -32 7 0 18 8 24 17 7 12 7 17 -4 17 -7 0 -11 -4 -8 -9 3 -4 0 -8 -5 -8
-13 0 -14 10 -1 30 6 10 10 11 10 3 0 -7 3 -12 8 -12 41 7 46 -2 17 -27 -16
-14 -24 -22 -16 -18 10 5 12 3 6 -6 -5 -9 -4 -11 4 -6 6 4 9 12 6 17 -4 5 -4
9 -1 9 2 0 13 3 23 7 17 7 17 6 -1 -12 -18 -18 -18 -19 5 -39 16 -13 18 -17 7
-13 -20 7 -25 -9 -5 -16 6 -3 2 -4 -9 -4 -12 1 -20 6 -17 12 6 16 -23 39 -32
25 -3 -5 -1 -10 4 -10 6 0 11 -5 11 -11 0 -8 -5 -8 -15 1 -11 9 -12 16 -5 25
8 9 8 15 0 20 -5 3 -10 1 -10 -4 0 -6 -5 -11 -10 -11 -5 0 -9 3 -9 8 3 20 -2
32 -15 32 -8 0 -16 7 -20 15 -3 8 -10 15 -16 15 -7 0 -8 -6 0 -19 13 -25 13
-31 0 -31 -5 0 -9 3 -9 8 3 18 -2 32 -12 32 -5 0 -7 -5 -3 -12 5 -7 3 -8 -6
-3 -9 6 -12 4 -8 -7 4 -8 0 -15 -7 -15 -10 0 -11 5 -4 18 7 14 5 21 -11 29
-11 6 -19 16 -18 23 3 12 -3 17 -24 17 -9 0 -9 -3 0 -12 16 -16 15 -25 -4 -32
-13 -5 -14 -4 -6 7 7 8 9 17 5 20 -9 10 -25 9 -19 -1 3 -5 -1 -9 -9 -9 -10 0
-12 4 -5 12 5 7 6 16 2 20 -4 5 -1 5 7 0 9 -5 20 0 31 16 17 21 17 24 2 37
-14 11 -13 11 8 0 14 -7 30 -11 35 -9 6 1 4 -3 -2 -10 -22 -22 -14 -33 9 -13
13 11 18 13 11 3 -13 -16 -1 -39 21 -39 6 0 5 5 -1 11 -9 9 -8 18 4 35 14 21
14 24 0 30 -9 3 -18 13 -22 22 -4 11 2 9 19 -7 17 -16 26 -20 26 -11z m-60
-7150 c10 6 21 6 24 2 3 -5 0 -9 -7 -10 -37 -3 -53 -12 -76 -42 -23 -30 -24
-33 -6 -26 11 5 25 9 32 9 7 0 10 4 7 9 -3 5 -10 6 -15 3 -5 -3 -6 1 -3 10 4
9 9 14 12 11 2 -3 12 -1 21 4 11 5 23 5 32 -2 11 -8 10 -9 -4 -4 -12 4 -17 2
-15 -6 6 -17 44 -16 41 0 -2 7 2 12 7 12 12 0 13 -10 1 -29 -5 -7 -13 -11 -19
-7 -5 3 -16 -2 -23 -11 -12 -14 -11 -15 6 -10 11 4 27 2 35 -4 12 -8 11 -9 -6
-4 -15 4 -24 -1 -33 -17 -6 -13 -10 -15 -7 -6 3 10 -5 23 -20 32 -13 9 -24 12
-24 6 0 -6 7 -13 16 -17 15 -5 15 -7 -1 -15 -9 -6 -19 -7 -22 -4 -4 3 -1 6 7
6 10 0 10 3 0 15 -7 8 -16 12 -22 9 -5 -3 -15 0 -23 6 -18 15 -20 -1 -3 -18 9
-9 9 -12 0 -12 -7 0 -12 4 -12 9 0 12 -39 26 -60 22 -10 -2 -8 3 5 13 18 14
18 15 3 16 -10 0 -18 2 -18 4 0 2 -3 12 -7 22 -5 13 -1 12 16 -5 13 -13 26
-20 29 -16 4 4 -1 12 -11 20 -16 12 -16 13 7 17 14 3 31 1 38 -4 10 -7 8 -8
-4 -4 -10 3 -18 1 -18 -4 0 -19 31 -10 39 12 4 12 11 17 14 11 9 -14 -23 -55
-39 -49 -8 3 -11 0 -8 -9 6 -15 39 -13 39 3 0 19 50 71 53 56 3 -10 8 -11 22
-4z m-172 -121 c23 12 35 11 49 -8 7 -9 13 -12 13 -8 0 4 17 -4 37 -18 29 -19
38 -32 39 -57 2 -45 2 -44 19 -22 15 19 15 19 8 -1 -6 -18 -5 -18 10 -6 9 7
17 20 17 27 0 8 5 14 10 14 6 0 13 0 18 0 4 0 7 -8 8 -19 1 -10 5 -24 9 -31 5
-8 4 -11 -3 -6 -6 3 -12 1 -15 -6 -2 -7 -3 -4 -1 8 2 13 -2 21 -12 21 -8 0
-13 -6 -10 -13 3 -8 -2 -20 -10 -29 -18 -17 -34 -20 -34 -5 0 6 -5 10 -11 10
-6 0 -8 -7 -5 -16 3 -8 2 -12 -4 -9 -6 3 -10 1 -10 -4 0 -6 -5 -11 -11 -11 -8
0 -7 6 2 17 13 15 12 15 -9 4 -20 -11 -21 -15 -10 -29 11 -13 11 -14 -1 -7
-11 6 -13 4 -9 -7 4 -8 1 -15 -7 -15 -8 0 -11 7 -7 15 3 10 1 13 -6 8 -16 -10
-25 11 -12 31 9 15 10 14 4 -7 -5 -20 -4 -23 7 -13 15 15 20 53 6 53 -6 0 -7
3 -4 7 4 3 15 -1 25 -10 16 -15 19 -15 30 4 12 19 11 20 -6 15 -20 -7 -38 17
-26 35 6 11 2 11 -20 3 -13 -5 -14 -9 -5 -20 6 -8 7 -14 2 -14 -5 0 -16 11
-23 25 -7 14 -17 25 -22 25 -11 0 -10 -18 2 -25 6 -3 10 -12 10 -18 0 -7 -5
-4 -11 6 -8 14 -14 16 -25 6 -8 -6 -14 -8 -14 -3 0 5 -4 3 -9 -4 -6 -11 -9 -9
-14 7 -3 11 1 25 8 31 14 11 9 44 -4 35 -4 -2 -8 3 -8 12 0 12 5 11 19 -7 13
-16 18 -18 18 -7 0 9 -4 19 -10 22 -5 3 -10 12 -9 18 0 9 2 9 6 0 3 -9 10 -10
21 -4z"/>
<path d="M4145 5501 c-3 -2 -30 -3 -61 -2 -44 2 -54 -1 -48 -11 6 -11 5 -11
-8 0 -13 10 -17 10 -22 0 -5 -10 -7 -10 -12 1 -5 11 -8 11 -15 0 -7 -11 -9
-11 -9 -1 0 8 -5 10 -12 5 -7 -4 -24 -8 -38 -9 -14 0 -35 -6 -47 -12 -27 -15
-36 -15 -27 -1 4 7 -3 6 -17 -2 -28 -15 -29 -15 -40 3 -7 10 -9 10 -9 0 0 -9
-5 -10 -17 -4 -10 5 -24 7 -32 4 -9 -3 -11 0 -6 8 6 10 4 11 -6 4 -8 -5 -30
-10 -49 -12 -19 -2 -41 -4 -47 -4 -7 -1 -13 -4 -13 -8 0 -4 -6 -7 -12 -8 -37
-5 -54 -9 -63 -14 -6 -3 -18 -4 -27 -3 -10 2 -18 -1 -18 -7 0 -6 -11 -8 -25
-6 -14 3 -25 2 -25 -2 0 -4 -11 -5 -25 -2 -16 3 -25 0 -25 -9 0 -7 -3 -10 -6
-6 -4 3 -21 0 -38 -7 -17 -7 -39 -12 -49 -10 -9 1 -17 -1 -17 -5 0 -4 -10 -8
-22 -9 -42 -3 -113 -10 -118 -12 -3 -1 -8 -2 -12 -1 -5 0 -8 -2 -8 -7 0 -4
-17 -8 -38 -9 -59 -4 -102 -12 -121 -23 -10 -5 -21 -6 -25 -3 -3 3 -6 1 -6 -6
0 -8 -7 -11 -15 -7 -20 7 -46 -4 -38 -17 4 -6 0 -8 -10 -4 -9 3 -19 2 -22 -4
-4 -5 -11 -7 -16 -3 -5 3 -17 0 -26 -8 -14 -11 -16 -11 -9 2 7 13 6 13 -6 0
-7 -8 -31 -24 -53 -35 -22 -11 -43 -24 -46 -29 -4 -5 -11 -6 -17 -2 -6 3 -13
-2 -17 -13 -3 -11 -19 -22 -36 -26 -16 -4 -27 -11 -23 -16 3 -5 -3 -9 -12 -9
-10 0 -26 -8 -37 -17 -11 -10 -17 -12 -13 -6 5 9 2 11 -8 7 -9 -3 -14 -10 -11
-14 3 -5 -3 -7 -12 -5 -10 1 -26 -5 -36 -14 -11 -8 -24 -16 -30 -16 -34 -2
-87 -19 -87 -27 0 -6 -7 -8 -15 -4 -8 3 -19 -2 -24 -12 -6 -9 -11 -13 -11 -8
0 6 -7 1 -16 -10 -8 -10 -13 -13 -9 -6 3 6 1 12 -4 12 -6 0 -11 -7 -11 -15 0
-9 -6 -12 -17 -8 -11 4 -14 3 -9 -6 6 -8 2 -11 -10 -9 -11 2 -18 -2 -17 -7 1
-6 -7 -12 -18 -13 -10 -1 -28 -3 -38 -4 -11 -1 -18 -5 -15 -9 2 -4 -12 -13
-31 -19 -19 -6 -35 -16 -35 -21 0 -5 -3 -8 -7 -7 -12 4 -53 -35 -47 -44 3 -4
-2 -5 -11 -2 -11 5 -14 2 -9 -12 4 -11 4 -16 -1 -12 -9 8 -35 -15 -35 -31 0
-6 -9 -16 -20 -23 -11 -7 -20 -18 -20 -25 0 -7 -7 -13 -15 -13 -8 0 -12 -6 -9
-14 3 -7 -2 -16 -11 -20 -9 -3 -13 -10 -10 -16 3 -6 -1 -13 -9 -16 -9 -3 -13
-10 -10 -15 3 -5 1 -9 -5 -9 -6 0 -13 -11 -17 -25 -3 -14 -10 -25 -15 -25 -5
0 -9 -3 -8 -7 2 -14 -13 -53 -20 -53 -4 0 -7 -8 -8 -17 -2 -47 -8 -73 -16 -73
-4 0 -6 -4 -3 -9 4 -5 2 -20 -3 -34 -6 -16 -6 -28 2 -36 6 -6 7 -11 1 -11 -5
0 -10 -9 -10 -20 0 -11 5 -20 11 -20 6 0 6 -3 -1 -8 -17 -11 -22 -35 -12 -56
7 -12 7 -16 0 -12 -5 3 -12 -1 -16 -9 -3 -8 0 -17 5 -21 6 -3 9 -15 6 -25 -3
-11 -1 -16 4 -13 10 6 7 -25 -4 -43 -6 -9 -3 -11 10 -6 16 6 16 5 4 -10 -10
-13 -10 -17 -1 -17 10 0 10 -3 1 -14 -8 -10 -9 -16 -1 -21 6 -4 10 -12 9 -18
-3 -26 2 -38 12 -31 7 4 10 1 7 -7 -3 -8 2 -20 11 -27 9 -8 11 -11 5 -8 -6 3
-11 -1 -11 -9 0 -8 5 -11 10 -8 6 4 8 0 4 -10 -3 -9 0 -18 8 -21 8 -3 12 -12
9 -21 -5 -11 -2 -14 10 -9 10 4 18 0 22 -10 3 -9 11 -13 17 -9 6 3 7 1 3 -6
-4 -6 -12 -9 -17 -6 -5 4 -9 1 -9 -4 0 -6 9 -11 20 -11 11 0 19 -6 18 -12 -2
-7 2 -12 9 -11 7 2 10 -6 8 -18 -4 -18 -2 -19 12 -7 12 9 15 9 9 1 -4 -8 -2
-13 4 -13 6 0 8 -4 5 -10 -3 -5 -1 -10 5 -10 6 0 8 -5 5 -10 -4 -6 -3 -10 2
-9 20 3 27 -2 13 -11 -12 -8 -11 -10 7 -10 12 0 25 -5 29 -12 4 -7 3 -8 -4 -4
-7 4 -12 5 -12 2 0 -11 58 -35 66 -28 5 4 2 -2 -6 -12 -14 -18 -14 -19 7 -7
20 10 22 9 16 -5 -5 -14 -1 -16 20 -12 21 4 25 2 17 -7 -8 -9 -7 -14 2 -17 7
-3 19 2 26 11 11 14 11 14 5 -3 -5 -15 -3 -17 8 -11 12 7 12 6 1 -7 -12 -15
-10 -16 18 -13 26 4 30 2 20 -10 -9 -11 -7 -13 7 -10 10 1 28 -4 41 -11 12 -8
22 -10 22 -4 0 5 5 10 11 10 5 0 8 -4 4 -9 -3 -6 11 -9 34 -7 22 2 38 -1 35
-6 -3 -4 -10 -6 -15 -3 -5 4 -9 2 -9 -4 0 -6 12 -8 30 -4 25 4 30 2 31 -13 0
-18 1 -18 9 1 8 19 9 19 9 1 1 -15 4 -16 16 -6 9 7 18 10 22 6 3 -3 0 -6 -7
-6 -22 0 1 -17 33 -24 22 -5 27 -4 22 6 -4 7 0 5 8 -4 16 -20 32 -25 21 -7 -4
7 -1 10 7 7 8 -3 13 -11 11 -18 -2 -10 0 -11 11 -2 8 7 18 8 22 4 5 -4 5 -1 1
6 -4 7 -12 9 -18 6 -6 -4 -8 -2 -5 3 8 13 65 7 85 -9 13 -11 15 -10 10 4 -7
16 13 20 28 5 3 -3 13 1 21 9 12 12 18 12 31 2 13 -11 15 -10 9 4 -3 10 -2 20
3 23 6 4 10 -2 10 -11 0 -16 1 -16 16 2 8 10 13 14 10 7 -4 -7 1 -11 14 -10
13 1 19 6 15 15 -2 7 -1 11 4 7 5 -3 11 -2 14 2 2 5 2 3 1 -4 -2 -6 3 -14 10
-16 8 -3 13 1 12 11 0 9 6 17 14 17 8 0 14 -6 12 -13 -1 -8 2 -11 8 -7 5 3 10
12 10 20 0 9 8 12 20 10 11 -2 18 0 15 6 -4 5 1 9 9 9 9 0 16 4 16 10 0 5 7 7
15 4 8 -4 17 1 21 9 3 8 16 18 30 21 13 4 24 11 24 17 0 6 6 7 13 3 7 -5 6 0
-3 11 -8 10 -10 16 -3 12 13 -8 74 48 64 60 -3 4 2 1 11 -6 15 -11 17 -10 13
8 -2 12 0 19 4 17 5 -3 17 4 27 17 19 21 19 21 -1 7 -20 -14 -20 -14 -2 7 17
19 63 40 52 24 -2 -4 2 -8 9 -8 9 0 12 7 8 16 -4 12 0 11 18 -4 13 -11 20 -14
15 -6 -5 10 -4 12 4 7 13 -9 43 18 33 29 -4 5 -2 5 5 1 7 -4 10 -14 7 -24 -5
-15 -4 -15 6 1 6 9 15 15 21 12 5 -4 12 1 15 9 3 9 11 13 18 9 6 -4 4 2 -4 12
-14 17 -14 18 7 6 19 -10 22 -9 17 4 -4 10 0 15 10 15 9 0 16 6 16 13 0 8 4 7
10 -3 8 -12 10 -10 10 9 0 21 2 23 13 10 6 -8 11 -12 10 -10 -2 2 2 10 8 17
12 15 41 7 33 -10 -3 -6 4 0 16 14 12 14 19 18 15 10 -4 -8 1 -6 9 4 9 11 16
16 16 12 0 -5 8 -2 17 5 15 12 16 12 8 -1 -8 -13 -7 -13 8 -1 9 7 17 10 17 6
0 -4 6 -2 13 4 8 6 17 8 20 4 4 -3 9 2 13 11 3 9 10 16 16 16 5 0 6 -6 3 -12
-4 -7 0 -4 9 6 8 10 13 23 9 29 -4 6 -1 7 8 1 19 -11 58 -13 65 -2 3 4 10 8
16 8 6 0 3 -10 -8 -22 -19 -23 -19 -23 2 -5 11 9 23 14 27 11 3 -3 5 3 4 15
-1 13 -6 20 -14 17 -7 -3 -15 -1 -18 5 -4 5 -11 6 -17 3 -7 -4 -8 -2 -4 4 4 7
2 12 -5 12 -7 0 -4 6 7 14 10 8 16 17 13 20 -3 3 -16 -4 -28 -15 -22 -21 -23
-21 -39 -3 -16 17 -16 17 0 5 15 -11 19 -11 24 3 3 9 10 14 14 11 5 -3 12 -1
15 5 5 8 11 7 21 -1 7 -6 12 -14 10 -18 -3 -4 -1 -13 4 -20 9 -15 30 -6 30 12
0 8 -3 8 -9 -2 -9 -14 -18 -5 -17 18 1 19 33 23 50 6 7 -8 18 -11 22 -7 5 4 6
3 2 -2 -4 -5 -3 -15 2 -22 14 -16 22 -56 9 -49 -5 4 -7 11 -4 16 4 5 -3 9 -14
9 -12 0 -21 -5 -21 -11 0 -5 5 -7 12 -3 7 5 8 3 3 -5 -5 -9 -10 -10 -18 -2
-13 13 10 44 26 34 6 -3 7 -1 3 5 -9 15 -53 -5 -53 -24 0 -8 4 -14 9 -14 5 0
4 -10 -2 -22 -9 -20 -9 -21 2 -7 7 8 25 15 40 15 14 0 33 6 42 13 14 12 16 11
9 -5 -6 -16 -4 -17 9 -7 8 7 18 10 21 6 4 -3 7 1 7 10 0 9 5 19 12 23 7 4 8 3
4 -4 -4 -7 -3 -12 2 -12 5 0 14 11 20 25 6 14 19 25 27 25 9 0 14 4 10 9 -9
15 26 43 46 38 11 -3 22 0 26 5 4 7 1 8 -7 3 -9 -5 -11 -4 -6 4 6 9 11 9 22 0
11 -9 14 -8 14 2 0 11 2 11 10 -1 6 -10 10 -11 10 -3 0 14 57 46 68 39 4 -2 7
16 7 40 0 24 -4 44 -8 44 -5 0 -5 5 -2 10 3 6 1 10 -5 10 -6 0 -8 5 -5 10 3 6
-1 10 -9 10 -9 0 -16 7 -16 16 0 10 -6 14 -15 11 -8 -4 -23 5 -35 20 -11 14
-20 23 -20 19 0 -4 -13 7 -29 23 -16 16 -31 27 -34 24 -3 -3 -18 2 -34 10 -46
25 -114 48 -124 42 -5 -4 -9 1 -9 11 0 13 -3 14 -14 5 -9 -7 -17 -8 -20 -2 -3
5 -17 8 -31 6 -14 -1 -25 2 -25 6 0 5 -3 8 -7 7 -5 -1 -19 4 -32 11 -19 11
-22 11 -15 -1 6 -9 3 -9 -11 2 -10 8 -32 16 -49 17 -17 0 -32 2 -33 3 -2 2 -7
4 -13 5 -5 1 -13 4 -17 5 -5 1 -11 2 -15 1 -5 0 -8 3 -8 8 0 5 -8 8 -17 6 -10
-1 -24 3 -32 9 -12 9 -13 8 -6 -4 6 -12 5 -12 -5 -3 -7 6 -19 9 -28 6 -11 -5
-13 -2 -7 6 6 10 3 11 -14 2 -16 -9 -21 -9 -21 1 0 9 -3 9 -10 -2 -8 -13 -10
-12 -10 3 0 10 -4 16 -8 13 -5 -3 -9 1 -9 9 0 10 5 11 18 5 12 -7 21 -5 29 5
9 11 17 12 33 4 16 -9 19 -9 15 3 -4 9 1 14 12 14 10 0 16 -4 14 -8 -3 -4 0
-8 5 -8 6 0 11 4 11 10 0 5 7 6 17 3 11 -5 14 -3 8 6 -4 7 4 5 19 -4 15 -10
26 -14 24 -9 -2 5 2 9 7 9 5 0 9 -4 7 -9 -2 -5 3 -4 11 2 8 7 17 9 21 5 4 -4
11 -1 16 7 6 9 10 10 10 3 0 -6 8 -10 18 -8 9 1 25 -2 36 -7 12 -7 16 -7 12 0
-9 15 16 21 39 9 11 -5 17 -6 13 -2 -20 21 50 40 79 22 6 -4 15 -2 19 4 5 8 3
9 -6 4 -8 -5 -11 -4 -6 3 4 6 13 9 21 6 8 -4 12 -11 8 -17 -4 -6 -1 -7 8 -1 8
5 22 7 32 6 9 -2 17 2 17 9 0 7 3 9 6 6 4 -4 1 -14 -7 -24 -12 -14 -12 -15 0
-9 14 9 170 14 169 6 -1 -18 4 -23 11 -12 7 11 11 11 22 0 8 -8 26 -13 42 -11
18 1 25 -2 21 -9 -5 -7 -2 -9 9 -5 8 3 21 0 27 -8 12 -15 63 2 53 18 -3 5 7 1
23 -9 15 -11 25 -14 22 -9 -4 6 2 16 12 23 17 10 18 9 13 -6 -6 -15 -5 -15 10
-3 9 7 23 11 31 8 10 -4 13 -1 9 9 -3 7 0 14 6 14 6 0 11 -6 12 -12 0 -7 4 -3
9 10 5 12 15 22 22 21 10 0 10 -2 1 -6 -24 -9 -13 -23 11 -13 30 11 67 9 59
-3 -3 -5 0 -7 8 -5 8 3 20 -2 27 -11 8 -9 11 -10 7 -3 -9 17 5 15 28 -5 13
-12 17 -13 12 -4 -5 8 6 5 23 -8 22 -15 32 -18 32 -9 0 10 2 10 9 -1 5 -8 18
-12 30 -8 12 3 19 0 18 -6 -1 -6 12 -13 28 -14 17 -2 40 -4 53 -5 12 -1 22 -5
22 -9 0 -9 27 -5 37 6 4 4 2 5 -6 0 -9 -5 -12 -4 -7 3 3 6 20 9 36 7 18 -2 28
0 24 6 -3 5 -10 6 -16 3 -7 -4 -8 -2 -4 4 5 9 13 9 28 1 12 -6 18 -7 14 -1 -3
5 1 12 9 16 19 7 47 -3 40 -14 -3 -5 0 -12 6 -16 8 -5 9 -3 4 6 -6 10 0 12 24
8 17 -2 29 -2 26 0 -12 12 18 31 34 22 10 -5 23 -5 31 0 8 5 17 7 21 4 4 -2 5
6 2 18 l-4 23 13 -23 c8 -12 17 -20 21 -16 4 4 1 14 -6 23 -6 8 3 4 22 -9 25
-17 33 -20 29 -8 -5 12 -2 14 13 11 10 -3 19 -9 19 -14 0 -5 5 -9 11 -9 5 0 8
4 4 9 -3 5 -1 12 5 16 5 3 10 -2 10 -12 0 -10 3 -14 8 -8 8 12 51 13 69 2 9
-6 11 -3 7 7 -3 9 -1 16 6 16 6 0 8 4 5 10 -3 6 1 7 10 4 13 -5 13 -9 3 -23
-12 -14 -11 -15 5 -1 27 21 54 22 62 3 5 -15 7 -15 15 -3 8 12 10 12 10 1 0
-11 3 -11 15 -1 13 11 14 10 9 -4 -3 -9 -1 -16 5 -16 6 0 11 6 11 14 0 9 10
12 30 10 19 -2 30 1 30 9 0 8 4 7 10 -3 8 -13 10 -12 10 3 0 20 11 22 29 5 10
-9 12 -9 7 -1 -3 6 -1 15 5 19 7 4 9 3 6 -2 -3 -6 -2 -16 4 -24 7 -12 9 -12 9
4 0 11 5 16 14 13 8 -3 17 1 21 10 4 13 8 14 17 5 15 -15 32 -16 23 -2 -10 16
7 12 28 -7 20 -18 20 -18 2 10 l-18 28 25 -10 c19 -7 29 -6 43 7 10 9 14 11
10 4 -8 -15 25 -13 36 2 4 4 16 3 28 -3 17 -10 20 -9 14 5 -4 12 -2 15 8 12 8
-3 13 -11 11 -18 -3 -11 0 -11 12 0 19 15 21 24 4 14 -7 -4 -9 -3 -5 1 17 19
38 14 33 -8 -3 -12 -3 -16 0 -9 3 6 15 12 25 12 14 0 18 4 13 13 -6 8 -3 8 9
-1 16 -13 42 -8 33 7 -3 3 4 7 15 7 10 0 19 -3 19 -7 0 -4 7 -10 16 -13 8 -3
12 -2 9 4 -3 6 -1 10 4 10 6 0 11 -8 12 -17 0 -14 2 -13 9 5 5 12 12 22 14 22
3 0 3 -6 0 -13 -3 -8 2 -14 11 -14 10 0 14 6 10 16 -4 13 -2 12 9 -1 15 -20
31 -25 20 -6 -5 8 0 9 14 6 12 -4 20 -3 17 2 -3 4 2 11 11 14 12 4 15 2 10 -9
-4 -12 -2 -13 13 -6 10 6 22 7 26 3 5 -4 5 1 2 11 -5 13 -3 16 6 10 6 -4 23
-6 36 -4 13 1 21 -1 17 -7 -7 -12 13 -10 32 2 7 4 16 5 19 2 4 -3 15 1 25 11
10 9 18 11 18 5 0 -12 18 -11 39 2 9 6 12 5 8 -1 -4 -6 0 -13 7 -16 10 -4 13
0 11 14 -4 18 -2 19 12 7 10 -8 14 -8 10 -1 -4 6 -3 14 3 18 5 3 10 2 10 -3 0
-5 7 -9 15 -9 11 0 12 4 3 14 -8 11 -7 12 6 7 9 -3 16 -11 16 -18 0 -6 5 -4
10 4 6 10 10 11 10 3 0 -7 5 -13 11 -13 5 0 7 5 3 11 -4 7 0 9 14 5 39 -13 62
-15 57 -5 -11 16 7 10 22 -8 13 -16 14 -16 9 -1 -4 13 0 15 17 11 12 -3 34 -7
49 -10 15 -3 29 -13 31 -22 3 -11 5 -9 6 7 0 12 5 22 11 22 5 0 7 -6 4 -14 -3
-8 0 -17 7 -22 8 -5 10 -3 4 7 -6 11 -5 12 6 2 17 -17 32 -17 23 0 -5 9 -4 9
6 0 7 -6 19 -9 28 -6 9 4 13 2 9 -4 -3 -5 0 -10 8 -10 18 0 19 9 3 25 -9 9 -5
9 14 0 15 -7 24 -17 21 -22 -4 -5 -1 -6 5 -2 7 4 12 17 12 29 1 21 1 21 16 -3
8 -14 13 -17 10 -7 -6 19 10 24 17 5 4 -10 6 -10 6 0 1 6 6 12 12 12 5 0 7 -5
3 -12 -4 -7 -3 -8 4 -4 7 4 12 14 12 22 0 8 5 12 10 9 7 -4 6 -14 -1 -28 -12
-22 -12 -22 8 -2 16 17 17 22 6 33 -15 15 -17 26 -4 18 5 -4 11 -3 14 1 2 5 2
2 1 -4 -5 -19 13 -16 20 3 5 13 9 14 20 5 11 -9 16 -9 22 0 4 7 3 9 -3 6 -6
-4 -13 -1 -16 7 -4 10 0 12 14 9 10 -3 19 -10 19 -15 0 -5 5 -6 10 -3 6 4 8
11 5 16 -3 5 2 6 11 2 13 -5 15 -3 9 7 -6 9 -4 12 6 8 11 -4 15 4 14 36 0 35
-4 43 -30 56 -21 10 -29 21 -27 35 3 17 2 17 -14 4 -11 -8 -15 -9 -10 -1 4 6
3 12 -3 12 -6 0 -8 7 -5 15 4 8 11 12 18 8 7 -4 7 -2 -1 8 -10 12 -10 18 0 29
9 10 9 11 0 6 -7 -4 -13 -2 -13 4 0 6 -4 9 -9 6 -5 -4 -11 -2 -13 3 -1 6 -15
12 -31 15 -15 3 -25 1 -22 -4 3 -4 -11 -8 -29 -7 -21 1 -32 5 -29 11 3 6 0 5
-8 -2 -12 -11 -12 -14 1 -22 11 -7 11 -10 2 -10 -7 0 -10 -4 -7 -10 3 -5 2
-10 -4 -10 -5 0 -12 6 -14 13 -4 9 -6 9 -6 0 -1 -7 8 -17 19 -23 14 -7 20 -7
20 0 0 16 27 12 34 -6 9 -24 7 -31 -5 -11 -6 9 -15 15 -21 11 -7 -4 -6 -9 2
-14 7 -5 0 -7 -18 -7 -21 1 -28 6 -24 16 3 8 1 12 -4 8 -6 -3 -10 3 -11 13 -1
11 2 22 8 25 5 4 9 15 9 26 0 11 -4 18 -9 15 -5 -3 -12 1 -15 10 -8 21 -8 24
5 24 5 0 7 -5 3 -12 -4 -7 -3 -8 5 -4 6 4 8 13 4 19 -8 12 -9 17 -12 37 0 5
-8 7 -16 4 -10 -4 -13 0 -10 17 l4 22 -20 -21 c-11 -12 -23 -22 -26 -22 -4 0
-2 5 5 12 7 7 12 15 12 19 0 11 -45 5 -53 -8 -4 -6 -16 -10 -27 -8 -11 2 -20
-1 -20 -7 0 -6 -3 -8 -6 -5 -4 4 -1 13 5 21 7 8 10 20 6 26 -3 5 -2 10 4 10 5
0 13 -9 16 -21 4 -11 9 -18 12 -16 2 3 -3 20 -12 37 -9 18 -12 29 -6 26 6 -4
11 -2 11 3 0 6 -5 11 -10 11 -6 0 -9 3 -9 8 3 19 -2 33 -11 27 -5 -3 -10 -2
-10 3 0 5 -11 10 -25 10 -13 0 -22 -4 -20 -8 3 -4 -2 -11 -11 -14 -8 -3 -12
-10 -9 -16 3 -5 0 -7 -8 -4 -8 3 -17 -2 -20 -10 -4 -11 -16 -15 -37 -12 -20 2
-34 -2 -40 -13 -8 -13 -9 -14 -10 -1 0 13 -1 13 -10 0 -5 -8 -10 -11 -10 -6 0
5 -7 2 -17 -5 -9 -8 -18 -13 -19 -12 -9 4 -44 -10 -44 -18 0 -5 -5 -9 -11 -9
-5 0 -7 5 -3 12 8 13 -11 3 -40 -21 -11 -9 -17 -11 -14 -6 3 6 -1 17 -10 25
-14 13 -15 12 -9 -3 8 -20 -3 -22 -22 -4 -11 10 -13 10 -7 0 4 -7 3 -13 -1
-13 -5 0 -15 6 -22 13 -11 10 -13 10 -7 0 4 -7 3 -13 -1 -13 -5 0 -15 6 -22
13 -12 10 -13 9 -7 -7 7 -20 7 -20 -15 0 -12 10 -19 14 -16 8 7 -11 -91 -9
-102 2 -2 2 -11 -2 -19 -9 -13 -9 -14 -9 -8 0 12 22 -57 2 -76 -21 -10 -12
-17 -17 -18 -12 0 5 -7 3 -15 -4 -8 -7 -12 -16 -9 -21 13 -22 -7 -6 -26 20
-14 21 -17 32 -9 37 7 4 10 3 6 -2 -3 -5 1 -17 8 -27 11 -15 14 -15 25 -2 7 8
16 13 20 10 5 -3 11 -1 15 5 3 5 1 10 -5 10 -6 0 -9 4 -6 8 3 5 -1 9 -9 9 -8
0 -12 -4 -10 -8 3 -4 -2 -10 -11 -13 -11 -4 -15 -2 -11 7 4 10 -9 13 -54 12
-36 -1 -59 3 -59 9 0 7 -3 8 -8 1 -4 -5 -13 -10 -21 -10 -8 0 -15 -8 -17 -18
-4 -28 -11 -31 -36 -19 l-23 11 24 -2 c15 -1 25 4 26 15 4 23 -18 29 -49 13
-15 -8 -24 -10 -21 -6 3 5 -2 12 -11 15 -24 9 -31 7 -14 -4 9 -6 10 -10 3 -10
-6 0 -15 5 -18 10 -3 6 -11 10 -16 10 -6 0 -7 -4 -4 -10 3 -6 -1 -7 -10 -4
-13 5 -13 9 -3 23 11 14 11 14 -3 4 -8 -7 -25 -10 -37 -6 -19 4 -21 2 -15 -13
5 -14 1 -13 -16 6 -12 14 -20 19 -16 13 3 -7 1 -13 -4 -13 -6 0 -11 4 -11 9 0
14 -48 19 -61 7 -9 -8 -10 -8 -6 0 4 7 0 15 -9 18 -12 4 -15 2 -10 -9 3 -8 1
-15 -4 -15 -6 0 -10 5 -10 11 0 5 -4 8 -9 5 -5 -4 -12 0 -14 6 -4 10 -8 10
-15 -1 -6 -8 -12 -9 -16 -3 -7 12 -24 11 -45 -2 -10 -6 -12 -5 -7 2 8 13 7 13
-40 17 -17 1 -37 6 -44 10 -9 6 -11 4 -5 -4 4 -8 -4 -7 -24 3 -17 9 -31 14
-31 11 0 -3 -9 -1 -20 5 -12 7 -20 7 -20 1 0 -10 -32 -7 -52 5 -7 4 -8 3 -4
-4 4 -7 3 -12 -3 -12 -5 0 -11 5 -13 11 -2 6 -18 12 -35 14 -17 1 -36 6 -43
10 -9 5 -11 4 -6 -3 4 -7 3 -12 -3 -12 -5 0 -13 5 -16 11 -4 6 -13 8 -21 5 -8
-3 -14 0 -14 7 0 8 -4 6 -10 -3 -7 -12 -10 -12 -10 -1 0 8 -6 11 -16 7 -10 -4
-22 1 -31 11 -8 10 -12 12 -8 6 6 -13 -7 -18 -18 -7 -9 10 -87 11 -81 2 9 -13
-4 -9 -20 8 -9 9 -16 11 -16 4 0 -6 -5 -8 -10 -5 -6 4 -8 10 -6 14 3 4 -2 8
-10 8 -9 0 -13 -6 -10 -16 3 -9 -1 -6 -10 6 -15 21 -51 22 -38 1 4 -6 -2 -5
-14 1 -11 6 -28 8 -36 5 -10 -4 -16 -1 -16 7 0 11 -3 11 -10 -1 -8 -13 -10
-13 -10 2 0 12 -6 15 -22 11 -19 -4 -20 -3 -8 6 13 9 12 11 -6 11 -11 0 -26 6
-33 13 -12 10 -13 8 -7 -8 5 -18 4 -18 -13 3 -20 23 -38 31 -25 11 4 -7 -3 -6
-17 2 -13 7 -30 12 -36 11 -7 -2 -13 1 -13 6 0 5 -7 9 -15 10 -8 1 -22 3 -30
4 -8 1 -15 6 -15 12 0 6 -5 4 -10 -4 -8 -12 -10 -12 -10 -1 0 8 -3 12 -6 9 -3
-4 -15 3 -26 14 -14 14 -23 17 -30 10 -7 -7 -19 -7 -37 -1 -18 7 -27 7 -29 -1
-3 -7 -11 -2 -19 10 -11 15 -18 18 -27 11 -7 -6 -15 -8 -19 -5 -7 7 -66 12
-72 5z m-1121 -852 c-5 -9 1 -10 20 -5 14 3 26 2 26 -3 0 -6 9 -8 21 -6 17 4
19 2 9 -10 -17 -20 -5 -19 28 2 22 14 25 15 15 2 -11 -13 -9 -16 17 -16 16 0
28 5 27 11 -1 5 12 10 28 10 26 0 30 -3 28 -24 -2 -25 -2 -25 9 -3 7 15 19 22
34 21 13 -1 21 -4 19 -7 -3 -2 1 -11 8 -19 10 -13 9 -14 -3 -7 -23 14 -49 13
-55 -3 -4 -11 -8 -12 -20 -2 -8 7 -15 10 -15 7 0 -3 -13 -2 -30 3 -16 5 -30 5
-30 0 0 -4 -10 -7 -23 -6 -20 2 -23 -1 -21 -26 2 -23 -1 -28 -14 -24 -16 6
-16 5 0 -7 17 -14 6 -53 -13 -42 -5 4 -9 -1 -9 -9 0 -9 -6 -15 -12 -13 -8 1
-12 -8 -11 -23 1 -14 -1 -19 -4 -12 -4 10 -8 10 -19 1 -8 -6 -14 -8 -14 -4 0
5 -10 0 -22 -11 -19 -15 -20 -16 -9 -1 7 9 12 17 10 18 -39 7 -49 7 -49 -2 0
-5 5 -7 10 -4 6 3 10 1 10 -5 0 -7 -7 -9 -16 -6 -9 3 -20 6 -25 6 -6 0 -7 5
-3 12 4 7 3 8 -5 4 -6 -4 -9 -11 -6 -16 3 -5 1 -11 -5 -15 -5 -3 -10 -1 -10 4
0 17 -19 13 -47 -9 -14 -11 -20 -20 -14 -20 8 0 9 -6 3 -17 -5 -10 -7 -25 -5
-33 3 -10 0 -9 -7 3 -6 9 -9 21 -6 25 2 4 -11 7 -30 7 -30 0 -32 -2 -17 -12 9
-7 22 -13 28 -13 6 0 11 -11 11 -24 0 -15 -5 -22 -13 -19 -7 3 -13 9 -13 15 0
5 5 6 12 2 7 -4 8 -3 4 4 -4 6 -14 9 -24 6 -14 -5 -15 -4 -2 5 12 9 10 10 -11
9 -14 -1 -26 -8 -26 -15 0 -6 5 -10 11 -7 6 3 3 -1 -6 -9 -10 -8 -16 -16 -13
-19 3 -2 -2 -5 -10 -5 -11 0 -12 4 -5 11 15 15 12 22 -13 33 -19 9 -24 8 -24
-3 0 -7 4 -11 8 -8 4 2 10 0 13 -5 7 -10 -20 -9 -30 2 -3 3 -23 -5 -42 -18
-27 -18 -38 -21 -44 -12 -6 9 -8 8 -8 -3 0 -13 -1 -13 -10 0 -8 12 -10 12 -10
1 0 -10 -6 -9 -27 5 -27 17 -27 17 -13 0 13 -16 12 -20 -7 -36 -12 -10 -19
-20 -16 -24 4 -3 1 -6 -6 -6 -7 0 -10 -4 -7 -9 4 -5 0 -12 -6 -14 -10 -4 -9
-8 2 -17 13 -10 13 -11 0 -7 -9 2 -14 14 -13 26 2 14 -1 20 -8 15 -8 -4 -8 0
0 15 7 11 15 20 19 20 25 -4 32 2 23 20 -11 19 8 48 22 34 4 -3 7 1 7 11 0 9
4 15 9 12 5 -3 12 1 15 10 4 10 2 13 -7 8 -6 -3 1 5 16 19 15 14 39 47 52 74
13 26 24 43 24 36 1 -18 34 -8 42 13 4 10 8 16 8 12 1 -5 9 0 19 10 11 9 17
21 14 26 -3 5 0 6 7 2 6 -4 8 -13 4 -19 -3 -7 3 -4 14 6 11 9 24 17 29 17 5 0
20 15 33 33 13 17 21 24 18 15 -4 -12 -1 -18 9 -18 8 0 12 5 9 10 -10 16 7 12
28 -7 11 -10 17 -13 14 -6 -4 6 -3 14 3 18 6 4 8 10 5 15 -3 5 -1 11 5 15 5 3
10 0 11 -7 0 -7 5 -2 10 12 10 24 11 24 25 6 14 -20 14 -20 14 0 0 16 2 17 10
4 7 -11 10 -11 10 -2 0 7 5 10 10 7 6 -4 7 -11 4 -17 -4 -7 -2 -8 4 -4 7 4 12
14 12 22 0 8 5 14 11 14 5 0 7 -5 3 -11z"/>
</g>
</svg>
