<?xml version="1.0" encoding="UTF-8" standalone="no"?>
<svg
   version="1.0"
   width="1024.000000pt"
   height="1024.000000pt"
   viewBox="0 0 1024.000000 1024.000000"
   preserveAspectRatio="xMidYMid meet"
   id="svg12"
   sodipodi:docname="ラ.svg"
   xmlns:inkscape="http://www.inkscape.org/namespaces/inkscape"
   xmlns:sodipodi="http://sodipodi.sourceforge.net/DTD/sodipodi-0.dtd"
   xmlns="http://www.w3.org/2000/svg"
   xmlns:svg="http://www.w3.org/2000/svg">
  <defs
     id="defs16" />
  <sodipodi:namedview
     id="namedview14"
     pagecolor="#ffffff"
     bordercolor="#666666"
     borderopacity="1.0"
     inkscape:pageshadow="2"
     inkscape:pageopacity="0.0"
     inkscape:pagecheckerboard="0"
     inkscape:document-units="pt" />
  <metadata
     id="metadata2">
Created by potrace 1.16, written by Peter Selinger 2001-2019
</metadata>
  <g
     transform="translate(0.000000,1024.000000) scale(0.100000,-0.100000)"
     fill="#000000"
     stroke="none"
     id="g10">
    <path
       d="m 4196,9742 c -339.0881,-8.977 -681.1104,-113.3426 -991,-232 -143.405,-137.3961 -337.3384,-179.7091 -491,-253 -133.3192,-51.4649 -321.5681,-579.3532 -276.25,-432.125 -35.2652,-106.1097 22.6756,-353.6662 8.25,-266.875 45.5546,-185.8335 288.0744,-413.0621 204,-303 364.2297,-193.174 342.7837,-190.0343 551.125,-149.125 195.7586,6.2554 844.5596,297.102 618.875,274.125 103.9263,38.2028 226.0528,157.1027 214.25,87.125 131.6027,-83.1001 535.5676,138.3645 249.75,270.875 -148.4884,74.0187 -646.5772,151.9012 -555.125,169.75 -84.0278,0.1346 -280.0899,-188.211 -207.875,-92.75 -60.1935,-70.1461 -215.697,-94.8873 -136,-37 -63.4596,-93.6309 -453.2273,-109.351 -320,-75 -71.7415,30.3633 385.3257,296.4384 295,292 132.9871,83.1062 504.8426,43.2811 395,30 206.2801,40.1812 779.4589,22.8363 617.625,43.5 143.5126,-90.9165 553.8862,-142.9293 417.375,-30.5 169.4918,-39.5461 589.6482,68.9727 446,45 36.2725,-57.6974 331.85,-18.8463 183,-7 72.5601,-2.4097 498.7717,81.5843 375,73 164.2564,-24.228 641.5596,65.0789 483,41 60.1155,-12.1096 233.7738,2.7216 197,6 39.8092,-29.503 216.1508,-48.3692 266.375,-25.875 165.1016,93.5335 -105.6581,363.3844 -4.125,267.25 -123.3519,22.7929 -235.3644,-32.4927 -130.25,-30.375 2.9799,49.261 -198.0175,78.9502 -62,103 -12.377,-128.7724 -256.2471,-121.6133 -134,18 -92.5513,-54.9841 -170.9226,-152.3581 -136.125,-87.25 6.2894,65.2921 -175.9234,31.3165 -153.875,35.25 -88.5287,33.6225 -457.1151,62.8564 -358.75,36 -111.3547,-3.7974 -355.1377,42.7357 -261.25,28 -179.5105,0.4353 -784.1455,110.5142 -589.25,79 -80.8711,-23.177 -499.7672,159.4966 -376.75,99 -102.855,11.5105 -189.9326,30.8649 -338,24 z"
       id="path4" />
    <path
       d="m 5406,7563 c -375.2371,-64.6035 -781.4125,-51.3488 -1101,-287 -270.9353,-87.9312 -559.2481,-182.039 -831,-262 -132.9717,-42.2079 -485.6877,-157.2111 -389,-124 -104.7842,-45.1308 -389.4861,-125.7944 -269,-85 -69.6754,-3.517 -324.2546,-35.1453 -250.375,-39.125 -138.091,-53.2669 -598.1105,-12.6205 -442.6406,-36.5625 -184.3914,18.6387 -434.0936,103.4202 -371.1094,54.4375 -57.8768,-13.3173 -138.1888,26.9631 -116.875,4.25 -55.6085,-76.359 -98.8049,-170.4911 -85,-49 -109.5019,9.3345 -201.8107,-3.614 -118,34 26.7343,-23.0101 -100.5057,-164.4545 -152.875,-82.25 -138.6724,68.4347 -215.4951,54.2651 -90.125,-14.75 -12.9137,-33.9329 -199.89163,7.9347 -97.5,12.5 -86.4278,-41.7688 -56.2816,-364.642 -50.5,-295.5 -80.08608,-48.2366 57.815,-10.8853 103,-139 39.9036,21.2955 335.0325,-38.3813 180,-59 48.291,-7.1852 175.0737,5.4275 151,-5 38.3487,-17.9566 184.5813,0.3616 126.125,4.875 -60.8811,70.56 43.1837,-17.2607 152.875,23.125 109.352,49.8004 189.4986,-59.9638 144,-34 92.2489,94.3706 408.8367,42.0289 272,41 202.2843,-16.9695 209.9937,134.2037 107.125,142.25 48.2762,2.2243 148.0218,88.1903 119.25,55.75 -20.4729,62.2891 -202.4591,-40.41 -51.375,-94 -133.0279,-123.2156 117.2957,-115.3825 78,-108 58.2353,22.1079 268.1261,17.7134 223,8 56.7809,5.8977 314.0596,3.0128 244,10 125.1994,32.5589 362.9521,70.1149 311,29 56.2128,4.7617 424.8534,57.4621 289.125,20.625 39.8568,31.1169 221.0193,22.4625 231.625,33.5 55.3003,38.9607 222.071,33.4751 128.25,9.875 -40.3109,-120.871 325.1517,68.4199 287.875,37.625 79.0998,-27.2946 355.5708,121.9071 296.125,82.375 100.9561,8.681 149.4495,-19.7129 184.75,62.875 128.0288,11.6795 494.4148,81.5253 365.25,72.25 149.5977,39.039 518.4539,77.2044 382,71.875 100.8694,65.6264 402.1473,-56.1836 277,-12 84.9733,76.5361 320.9618,62.7903 235.375,42.75 325.3563,-62.0851 313.9652,39.096 526.625,-59.75 103.7414,73.1301 446.3914,-19.1344 383,9.125 96.3976,-115.8589 433.6251,-359.2562 342,-245.125 57.9945,-76.363 128.7491,-12.0932 155,-52.875 72.3435,50.7283 15.4819,-123.4844 35,-76.125 35.6788,-99.038 35.34,-364.9283 41,-262 15.6627,-136.5511 270.9455,-9.806 165,-5 -144.7084,-86.5412 -63.3749,-72.6587 -21,-60 49.0638,-92.941 24.1991,-184.3031 65.25,-147.625 36.0696,-34.7792 157.7171,-134.6992 111.75,-84.375 129.2667,-43.8758 -29.2154,11.8502 105,-6 3.3557,-47.8416 -29.8692,-105.0802 -50,-106 49.2418,-82.9279 -312.0421,-149.1994 -219,-118 -273.0903,64.1012 -60.504,-130.1223 -93,-194 -10.691,-60.3827 109.2828,-199.888 89,-156 70.1387,-148.7829 174.6775,-187.5127 160,-179 58.8519,-201.3349 -180.1927,-819.4031 -136.125,-618.75 C 7518.0704,4198.6086 7434.7152,4117.3424 7403,4025 c -76.3038,-120.692 -383.3103,-677.1995 -177,-297 -88.2225,-88.9264 -274.1788,-434.3456 -191,-318 -37.0818,-84.329 -222.7339,-343.5858 -161,-258 -54.9998,-157.5521 -164.7027,-298.2646 -140,-261 -214.2648,-309.5281 -69.7037,-186.8181 -272,-431 -102.2635,-118.2076 -403.2898,-433.5565 -306,-331.625 -19.3935,-76.4056 -230.8831,-225.728 -163,-162.375 -81.6673,-72.9432 -255.4881,-211.22 -203,-166 -208.9872,-172.22 -110.2248,-104.3492 -242,-201 -41.7391,-19.0032 -278.8581,-260.2253 -201,-196 -120.1994,-60.2686 -281.5255,-321.1731 -228,-236 C 4958.576,1066.1043 4665.8954,627.50637 4761.125,807 4643.6972,692.95113 4814.2518,667.76251 4695,480 c 72.4581,64.73413 85.9036,175.87141 81.25,124.625 53.717,50.55696 139.8926,179.32253 117.625,159.875 44.0718,16.19141 171.9334,88.79669 83.625,83 1.9531,82.70402 143.2449,233.7454 84.5,164.5 49.8371,-55.56337 141.4439,38.7866 93,62 13.9458,23.0209 333.8948,212.4436 249,144 65.3177,20.3609 220.0958,143.0102 176,117 153.6588,36.0042 220.9085,178.6351 170.5,113.375 61.6887,58.3521 194.7396,229.8393 166.5,132.625 59.2059,-23.3025 178.6751,133.7319 122,74 103.5844,25.0345 226.2872,121.3195 185,121 21.5935,39.6355 191.3325,136.0205 146,109 69.48,88.0432 284.8709,297.5807 226,223 89.3804,53.4824 182.9799,139.9888 149,112 37.283,43.0361 219.0833,167.6088 151,116 60.66,21.9377 252.5551,111.7076 189,108 29.7094,28.2229 116.4516,123.1774 109,95 52.2662,-11.3537 162.5908,105.5456 157.875,82.75 92.639,65.4126 241.3157,144.1961 188.125,114.25 142.2103,80.5597 413.8603,385.2702 290,279 58.2247,109.1526 129.697,302.9837 117,239 40.6978,149.2565 93.4756,286.4612 142,437 94.5282,41.9542 157.0386,334.2188 125,252 57.9403,75.3235 157.9477,427.1745 144,336 75.1845,69.9735 -32.9055,64.3231 95.875,145 -3.6886,-113.8755 315.084,-253.7082 116.125,-108 15.7622,-76.8596 2.1443,119.3107 93,22 -29.0786,68.1532 -60.2004,61.9099 -91,118 103.9298,-113.5563 -206.5244,93.7307 -127,36 -59.0325,-22.6084 -16.1847,-74.9332 71,69 -84.5754,-151.3433 44.5104,-125.279 41.125,-64.125 9.1671,61.7587 40.192,248.3187 63.875,218.125 26.2435,119.4687 -24.4215,117.8848 -36,35 -108.1665,-169.4707 -3.9275,250.298 -28.5,194.75 89.5502,-29.0316 211.736,264.9889 109.75,189.25 77.731,62.48 148.7989,185.1028 121.75,170 52.8633,119.2186 48.7046,200.6756 52.375,174.625 58.9623,30.8745 73.0385,196.3186 62.625,124.375 -3.0205,38.7147 -6.2497,311.4302 -0.5,171 -14.1668,37.657 -64.2589,206.2565 -51.5,161 -36.4641,68.8577 -181.7048,414.1755 -144,280 -36.5488,124.3016 8.8002,230.8754 -47,175 16.8933,113.3302 -313.9532,157.7405 -183,149 -101.4725,87.7004 -304.9161,77.9156 -284,-51 -139.2783,126.555 -250.8331,288.201 -404,402 -210.5648,217.0667 -419.5119,370.5155 -683.2109,511.2148 -236.8323,111.9129 -952.4282,189.2941 -713.0625,158.6973 C 6060.4682,7573.39 5721.2562,7539.9857 5406,7563 Z M 1544,6683 c 77.1881,-43.1598 131.1997,-5.906 116,-73 -38.0396,162.2083 37.6679,-110.0692 53,-53 37.7159,35.4998 75.181,-138.9392 67,-68 -87.7721,49.7664 61.1495,-102.1337 -33,-26 -125.5613,-80.703 -260.4836,70.1704 -109,21 -260.0395,-75.2652 -64.5989,-43.0875 -62,-87 -112.23,-3.4201 -83.8109,-54.861 -96,78 -165.1161,-33.6529 -192.3554,78.0818 -128.125,38.25 77.4126,27.0535 169.7519,52.7269 156.125,36.75 78.4684,62.3773 -69.6352,93.7056 35,81 -14.6483,109.2938 -247.8201,102.8471 -164,32 -7.1097,-9.0306 153.3392,54.0774 165,20 z m 1175,-279 c 75.344,-43.6042 197.7573,70.895 124,26 -66.0197,-118.6398 89.8942,-223.4155 36,-104 -39.467,-30.6854 -228.0739,-15.1632 -158,-41 -82.2847,51.9495 -76.8799,-28.2934 -83.125,-11.25 -146.7755,-17.1404 -224.883,-8.9232 -232.875,5.25 -40.1843,6.781 190.9265,100.6535 25,51.625 31.9935,93.5973 14.0246,-84.696 70,15.375 -4.587,-75.2497 195.389,19.0798 167,37 -11.992,11.4559 67.8313,86.6571 52,21 z m -1423,0 c 162.1731,-7.2271 265.9956,-119.2427 90,-102 -169.4952,-19.0604 -92.6023,86.4993 -262,-9.875 -63.8609,67.3866 205.0466,179.5045 165,117.875 l 7,10 z"
       id="path6" />
    <path
       d="m 2694,6408 c -21.2262,-33.3197 -85.2381,10.9652 -128,-67 -91.1655,-113.7024 -122.9281,-115.8096 -91,-1 -13.6427,-127.9539 259.1533,30.1551 218.75,0.5 -24.3021,45.0447 -13.2234,125.1091 71.25,16.5 13.0083,48.9007 -63.6723,10.5648 -71,51 z"
       id="path8" />
  </g>
</svg>
