<?xml version="1.0" encoding="UTF-8" standalone="no"?>
<svg
   version="1.0"
   width="1024.000000pt"
   height="1024.000000pt"
   viewBox="0 0 1024.000000 1024.000000"
   preserveAspectRatio="xMidYMid meet"
   id="svg12"
   sodipodi:docname="リ.svg"
   xmlns:inkscape="http://www.inkscape.org/namespaces/inkscape"
   xmlns:sodipodi="http://sodipodi.sourceforge.net/DTD/sodipodi-0.dtd"
   xmlns="http://www.w3.org/2000/svg"
   xmlns:svg="http://www.w3.org/2000/svg">
  <defs
     id="defs16" />
  <sodipodi:namedview
     id="namedview14"
     pagecolor="#ffffff"
     bordercolor="#666666"
     borderopacity="1.0"
     inkscape:pageshadow="2"
     inkscape:pageopacity="0.0"
     inkscape:pagecheckerboard="0"
     inkscape:document-units="pt" />
  <metadata
     id="metadata2">
Created by potrace 1.16, written by Peter Selinger 2001-2019
</metadata>
  <g
     transform="translate(0.000000,1024.000000) scale(0.100000,-0.100000)"
     fill="#000000"
     stroke="none"
     id="g10">
    <path
       d="m 2975,9919 c -104.8842,-44.16 -283.7691,-250.5529 -214,-214 -4.2283,-77.8324 -97.2326,-289.3111 -141,-166 16.5139,-46.2521 -18.2157,-411.1644 31,-299 -26.197,-112.2856 -33.44,-209.7479 -41,-240 -29.287,-174.2343 -67.428,-386.0849 -67,-315.625 -17.9211,-64.5595 -66.843,-273.1119 -62,-205.375 -70.9331,-188.1072 -54.6361,-239.9665 -87,-310 -12.7267,-39.2467 -123.3346,-299.411 -93.125,-261 45.485,-51.6797 -283.5681,-661.8558 -100.875,-293 -98.0574,-172.3699 -137.2247,-288.8943 -119,-325 -3.3885,-12.5582 -97.4692,-759.862 -32,-310 -14.2078,-97.6084 10.341,-284.6225 -7,-216 29.9451,-83.2779 34.1819,-267.2032 38,-244 5.67,-100.1311 45.0476,-365.3812 41,-305 -44.0918,-8.6021 185.1579,-619.3469 90.375,-322.5 73.1245,-11.8878 100.1516,-195.1259 80.625,-164.5 -2.6159,-35.1127 73.4231,-288.4493 79.5,-250.625 33.3943,-136.6487 307.1588,-385.1456 206.5,-283.375 126.823,-74.9489 607.106,-155.876 441,-138 111.5444,13.9811 396.2302,132.9589 262,66 103.3077,90.5763 335.9715,211.7537 232.5,211 100.8593,132.7182 127.6215,551.6273 120.375,422.75 -11.7971,152.1687 -218.3184,485.2215 -113.875,394.25 -89.9111,97.4774 -170.0871,393.0822 -167,279 -74.1447,112.0366 -172.6019,421.1598 -136,291 7.8156,106.1299 -136.462,-44.3571 -100,12 -34.4698,124.4626 18.2813,261.418 9,224 87.4929,-101.1048 -41.544,204.1016 20,79 -56.0079,40.2751 -329.0858,61.2906 -220.5938,156.1094 C 2857.8843,7122.0581 2811.9667,6955.3393 2831,7025 c -48.5792,-106.1946 -81.648,-290.3711 -46.625,-241.5 -45.6315,-132.9624 11.6357,156.0987 -14.375,101.5 -43.2594,75.0446 32.937,410.5216 32,256 -16.2134,37.8491 66.8535,328.7924 58,224 29.5905,135.7365 -120.1256,20.2428 -75,63 51.3619,53.5313 188.7434,342.5775 123.25,230.125 2.7193,44.2895 -8.1121,347.9953 35.5,247 1.0343,63.4647 1.5013,263.6688 -3.75,234.875 20.106,126.6439 7.32,578.9706 30,425 -3.3421,-68.9466 -26.743,958.8503 6.25,319.25 17.4721,50.0419 -1.3921,224.5709 15.375,173.5 24.4644,108.3733 19.6221,352.5785 13.375,282.25 13.6006,99.5743 125.5841,350.8155 69,275 8.2707,127.043 -11.6679,370.2611 -4,230 -19.7507,39.089 5.2646,128.4391 -95,74 z M 2770,6255 c 128.7177,5.6105 253.4441,-308.5941 144,-262 72.7362,33.8799 -65.1881,-26.8347 -22.25,-45.125 51.7684,-30.2181 36.3415,-220.3198 63.25,-189.875 -76.1645,31.9533 -185.3545,283.9935 -170.375,216.125 -53.6708,96.8511 -93.1458,271.167 -83.625,182.875 -1.908,-8.5686 -18.4823,151.4943 69,98 z"
       id="path4" />
    <path
       d="m 6565,9880 c -110.728,84.7249 -232.5162,-489.8324 -130,-182 -84.2245,-143.2738 -122.3434,-282.4746 -110.625,-251.625 24.7718,-90.0043 -28.6584,-288.8869 -13.375,-214.375 -39.9087,-155.0926 -76.8425,-473.609 -50,-305 21.5603,-125.7326 40.9134,-556.3275 18,-417 5.4597,-193.1454 65.911,-575.0429 43,-410 47.0851,-149.6624 112.1807,-447.2655 57.75,-318.5 -31.5816,-44.3847 213.7192,-330.8 145.25,-273.5 60.1498,-146.9137 272.5444,-474.6328 188,-332 63.6202,-108.1809 237.0892,-425.0891 156.75,-308.625 15.2202,-108.4 77.1794,-270.7068 120.25,-372.375 44.9641,-96.9546 64.507,-223.1065 116,-328 17.6966,-115.1571 -12.5686,-484.4528 14,-352 -32.3992,-184.507 -122.8902,-328.6015 -228,-478 -86.9604,-273.6906 -198.7618,-536.2952 -224,-827 -38.3031,-139.303 -60.8772,-575.5258 -44,-411 -11.921,-226.8316 -61.8934,-447.7872 -54.375,-687.625 C 6536.1555,3257.1322 6420.4073,2699.8935 6475,2908 c 14.7825,-113.672 -90.9289,-626.3118 -61,-474 -64.8332,-308.9925 -289.0504,-528.9762 -474.5,-758.25 -45.0142,-75.7982 -172.0565,-131.156 -156.625,-128.375 C 5774.809,1472.2553 5489.9835,1228.7375 5553,1368 c -66.6227,-81.7876 3.4015,-96.0005 -41.125,-130.25 -21.5879,-62.2179 -125.9008,-107.212 -77.875,-125.75 -54.3301,-62.4222 -259.6605,-259.84584 -210,-187 -49.5407,-51.39797 -281.3404,-158.26687 -223,-73 -30.8769,60.05244 -92.7797,40.88139 -127,13 -5.7867,80.55908 173.7947,-207.73252 54.5,-77.375 -0.4391,-68.21008 69.6109,-391.3651 44.5,-226.625 -119.1166,19.20846 -76.6473,-143.17609 -78,-161 78.2172,37.85345 275.6408,-33.59199 177,56 -13.1061,14.74838 -77.8288,-169.26502 -57,-106 -26.1164,3.80856 105.0891,-146.84641 40,-116 -26.9476,57.56619 426.4713,193.30552 102.625,59.875 87.0153,-33.91873 219.8878,51.50865 111.5,55.125 -34.8523,42.08021 34.0322,208.06408 -4,140.75 2.745,-29.09542 83.6722,1.30967 55.5,50.5 95.2798,24.46231 -19.3212,-21.2168 -16,-41.375 -72.8831,-70.77997 -18.702,-208.29726 5.5,-157.75 33.657,-37.38927 266.7801,212.61309 199.875,133.875 63.111,97.15024 148.2179,103.91471 117.875,119.875 79.0357,42.57847 237.8391,136.66625 158.375,118.75 82.7484,90.31245 307.9329,215.35941 173.75,136.375 163.4298,154.3098 52.3681,-27.81306 225,180 101.6184,73.3298 282.2603,261.976 227,201 88.135,29.1121 218.661,121.5233 153.625,105.25 51.2421,41.6515 221.8338,198.6616 208.375,154.75 77.6794,48.5396 153.5351,106.7337 165,116 23.3943,62.8932 133.9786,304.7145 141.125,224.375 84.5951,123.1327 118.4373,281.9716 114.375,245 35.8941,72.5477 112.2286,323.2862 96.5,233.625 15.9902,72.3133 63.9043,243.9944 50,190 3.6292,106.2967 38.9351,392.8905 50.875,271.875 66.0953,63.7131 106.8285,360.3537 72.125,278.125 41.9611,107.0485 82.7013,519.5257 69.125,377 33.6896,288.5726 -65.9416,96.1759 48.875,330 -15.7145,203.56 50.7598,312.9139 9.375,365.125 4.0959,129.1436 33.3596,314.3216 44.625,241.875 29.067,56.2773 46.1637,236.3878 64,201 6.8354,48.623 180.6351,180.8525 74.75,148.25 64.4877,123.5088 138.5597,438.635 74.5,305.5 10.0831,53.4316 188.7911,366.7179 126.0625,280.3594 30.5077,102.0432 128.2501,335.504 89.6875,220.8906 26.7864,55.9661 3.4745,344.3789 40.75,192 16.2035,116.2909 -18.4435,352.487 16.5,279.875 23.0666,72.9502 23.4332,197.7294 6.75,123.125 19.1443,112.5602 -142.3094,442.9972 -67,318 -8.857,96.614 -163.7858,380.935 -95,239 -35.0472,113.3405 -182.9646,376.5539 -129,282 -34.0528,85.9251 -64.5762,152.01 -73,174 -69.5286,82.129 -140.2191,272.8727 -112,205 -4.8228,194.7241 -113.0427,541.6251 -63,375 -5.7167,37.5032 -124.413,159.7478 -110,133 -87.3936,46.3433 -194.4505,333.2665 -180,244 -55.2796,197.7841 234.5518,-24.1619 218.375,43.375 -70.394,-3.403 -34.9319,275.4493 -9.375,180.625 -60.2738,122.0851 10.4062,214.7496 -60,384 -57.8809,98.5648 -171.8584,329.3415 -127,288 0.9333,79.6677 -388.1905,784.8219 -148,344 -93.4879,151.5277 -141.6469,319.128 -268,432 -104.196,97.738 -360.6119,106.6949 -248.75,61.75 -21.883,32.5312 -58.5527,44.6995 -92.25,61.25 z m -111,-742 c 102.0043,-34.4486 296.7057,-99.1666 94.125,-76.125 -62.6607,-69.236 -89.1801,19.052 -62.125,27.125 -24.1782,-5.3768 -94.1331,86.0168 -32,49 z m 963,-1338 c 56.4471,-18.1276 128.1847,-218.9938 97,-112 73.3181,-25.8887 118.096,-251.2107 65,-136 -26.6788,-74.1523 -82.5183,98.7679 -57,25 -21.2668,93.5873 -108.3041,374.5471 -133.25,250.75 z M 5506,744 c -17.8656,6.27731 62.8126,-175.79587 57,-85 -0.3722,-95.72529 -211.2944,-50.4067 -102,-20 78.256,-104.1811 -27.7669,-24.9318 -28,-54 33.9873,71.10135 43.38,157.70932 73,159 z"
       id="path6" />
    <path
       d="m 7524,8099 c 15.2344,-16.4174 -184.3379,-140.6221 -20,-104 -125.7676,48.2189 191.1013,44.8871 10.8438,27.6094 -87.1418,-86.8319 -61.2543,-245.4406 -2.9376,-185.1719 59.8758,-85.8457 12.1756,71.5781 142.0938,-123.4375 99.8086,-19.6683 124.0004,112.1286 106,91 -23.987,86.0047 -171.7492,212.1021 -122,224 -25.858,17.4374 -106.6645,76.8613 -114,70 z m 77,-109 c 49.2236,-1.4979 119.7717,-206.3122 118,-116 -31.3167,-43.8918 -230.0752,-13.4032 -136,21 105.5426,44.4562 -137.4632,-11.6597 -6.25,100.875 14.1788,51.0171 -2.3058,8.5283 24.25,-5.875 z"
       id="path8" />
  </g>
</svg>
