<?xml version="1.0" standalone="no"?>
<!DOCTYPE svg PUBLIC "-//W3C//DTD SVG 20010904//EN"
 "http://www.w3.org/TR/2001/REC-SVG-20010904/DTD/svg10.dtd">
<svg version="1.0" xmlns="http://www.w3.org/2000/svg"
 width="1024.000000pt" height="1024.000000pt" viewBox="0 0 1024.000000 1024.000000"
 preserveAspectRatio="xMidYMid meet">
<metadata>
Created by potrace 1.16, written by Peter Selinger 2001-2019
</metadata>
<g transform="translate(0.000000,1024.000000) scale(0.100000,-0.100000)"
fill="#000000" stroke="none">
<path d="M5342 8749 c-12 -5 -22 -13 -22 -18 0 -16 -26 -20 -51 -7 -19 10 -29
10 -51 -1 -16 -7 -28 -10 -29 -6 0 5 -5 -3 -11 -17 -6 -14 -10 -29 -9 -34 1
-5 -5 -4 -13 3 -8 7 -24 10 -35 6 -11 -3 -29 -8 -42 -10 -12 -2 -24 -7 -27 -9
-2 -3 -13 -1 -23 4 -12 7 -20 7 -24 0 -3 -5 -17 -10 -31 -10 -13 0 -24 -5 -24
-11 0 -5 -3 -8 -7 -6 -8 5 -41 -24 -35 -30 8 -10 0 -33 -10 -27 -8 5 -8 3 -2
-7 13 -21 14 -89 0 -89 -6 0 -4 -5 4 -10 9 -6 10 -10 3 -10 -7 0 -10 -10 -7
-25 2 -14 1 -25 -4 -25 -10 0 -9 -30 2 -48 4 -8 1 -12 -9 -12 -9 0 -13 -5 -10
-11 4 -6 10 -8 13 -5 7 8 32 -14 32 -27 0 -6 -6 -2 -14 8 -12 17 -13 17 -18
-9 -3 -14 -1 -29 4 -32 4 -3 5 -10 2 -16 -5 -7 -2 -8 7 -3 12 8 12 6 0 -8 -7
-9 -10 -17 -5 -17 5 0 10 -11 10 -25 1 -14 -3 -25 -9 -25 -6 0 -7 -3 -4 -6 4
-4 13 -1 21 5 11 9 16 9 22 0 4 -7 3 -9 -4 -5 -7 4 -10 -3 -7 -21 2 -18 8 -27
16 -25 8 2 11 0 7 -4 -4 -4 -3 -13 4 -21 9 -11 8 -13 -1 -11 -8 2 -15 -5 -16
-15 -2 -9 1 -15 6 -11 8 5 13 -10 10 -29 -1 -5 3 -6 9 -2 6 3 10 -3 10 -15 0
-16 4 -20 16 -16 13 5 14 4 6 -7 -9 -11 -2 -24 34 -60 24 -25 46 -50 47 -54 1
-4 5 -7 9 -6 5 2 7 0 6 -5 -5 -12 40 -82 52 -82 6 0 8 -5 4 -12 -5 -7 -2 -9 8
-5 12 4 15 0 13 -18 -1 -14 4 -26 12 -30 9 -3 13 -12 9 -20 -3 -8 1 -21 9 -29
8 -7 11 -16 8 -20 -4 -3 -1 -6 6 -6 7 0 11 -7 8 -15 -4 -8 -2 -17 4 -20 5 -4
7 -10 4 -15 -3 -5 1 -12 9 -17 8 -4 17 -21 20 -37 3 -16 9 -32 13 -35 7 -5 12
-19 17 -46 1 -5 5 -16 9 -22 5 -7 5 -13 0 -13 -4 0 -2 -4 5 -8 7 -5 14 -17 16
-28 7 -35 27 -78 39 -86 9 -6 9 -8 -1 -8 -10 0 -10 -4 0 -22 6 -13 13 -29 15
-35 2 -7 5 -19 6 -25 2 -7 7 -30 12 -50 4 -21 12 -38 19 -38 6 0 4 -5 -4 -10
-11 -7 -11 -10 -2 -10 8 0 10 -5 6 -12 -11 -17 -12 -48 -3 -48 4 0 6 -13 4
-30 -2 -16 -1 -30 3 -30 4 0 8 -8 9 -17 2 -50 15 -108 25 -114 7 -4 6 -8 -3
-12 -12 -4 -11 -7 1 -16 13 -10 13 -12 0 -21 -8 -5 -10 -10 -4 -10 7 0 11 -18
10 -47 -1 -27 2 -56 6 -65 5 -10 5 -18 1 -18 -4 0 -8 -91 -7 -203 1 -132 -3
-207 -10 -216 -8 -11 -8 -13 1 -8 13 8 13 -39 0 -60 -4 -6 -3 -14 2 -17 10 -7
9 -25 -1 -41 -4 -6 -3 -17 2 -25 5 -9 5 -19 -2 -27 -8 -10 -7 -13 3 -13 9 0
10 -3 4 -8 -15 -11 -17 -32 -3 -32 9 0 8 -4 -2 -10 -13 -9 -13 -11 0 -20 12
-7 12 -10 1 -10 -7 0 -11 -6 -7 -15 3 -8 2 -15 -2 -15 -4 0 -8 -9 -8 -19 0
-11 3 -18 7 -15 4 2 9 -3 13 -11 3 -8 2 -14 -2 -14 -20 3 -23 -3 -11 -18 8 -9
9 -14 3 -10 -7 4 -10 -18 -10 -68 1 -40 -2 -71 -6 -69 -10 6 -10 6 1 -34 6
-20 6 -30 0 -27 -10 7 -7 -24 4 -42 5 -7 4 -13 -1 -13 -5 0 -8 -41 -8 -90 1
-50 -2 -90 -5 -90 -8 0 -5 -33 5 -48 4 -6 3 -12 -2 -12 -6 0 -9 -16 -7 -35 2
-22 -1 -35 -8 -35 -7 0 -6 -4 3 -10 8 -5 10 -10 5 -10 -6 0 -12 -16 -13 -37
-2 -20 -5 -40 -8 -45 -3 -4 1 -8 8 -8 8 0 9 -3 3 -8 -5 -4 -10 -33 -10 -64 0
-32 -2 -58 -5 -58 -3 0 -6 -12 -6 -27 -2 -39 -9 -71 -17 -79 -4 -4 -7 -15 -7
-25 0 -10 -5 -30 -12 -46 -15 -38 -19 -55 -19 -75 0 -10 -5 -18 -11 -18 -7 0
-7 -4 1 -13 6 -8 7 -17 3 -21 -4 -4 -8 -35 -8 -69 -2 -88 -3 -89 -16 -81 -7 5
-8 3 -2 -7 11 -19 16 -51 6 -45 -4 3 -7 -10 -6 -27 1 -18 -2 -37 -7 -44 -6 -7
-6 -13 0 -17 8 -6 6 -53 -4 -83 -2 -7 1 -13 8 -13 8 0 9 -2 1 -8 -16 -10 -6
-204 12 -233 3 -5 7 -18 10 -29 6 -31 12 -52 23 -87 5 -17 7 -34 3 -37 -3 -3
-1 -6 5 -6 5 0 9 -18 8 -40 -1 -22 1 -40 4 -40 6 0 12 -41 15 -102 0 -14 3
-25 6 -23 3 2 6 -17 5 -43 0 -27 6 -55 14 -64 12 -15 12 -18 0 -18 -10 -1 -10
-3 3 -10 17 -10 61 -94 61 -116 0 -7 4 -11 8 -9 4 3 10 -13 14 -35 4 -22 12
-40 18 -40 5 0 7 -3 4 -6 -3 -4 -2 -16 4 -27 8 -14 8 -18 0 -13 -8 5 -8 0 -1
-19 13 -35 13 -48 -2 -39 -10 6 -10 4 -2 -7 6 -8 11 -23 12 -34 2 -21 9 -60
12 -60 1 0 3 -9 5 -20 2 -11 9 -21 15 -23 8 -3 7 -8 -1 -18 -9 -11 -9 -14 1
-14 9 0 7 -7 -6 -22 -15 -19 -16 -20 -1 -9 11 9 17 10 17 2 0 -6 -10 -16 -23
-22 -31 -14 -30 -56 2 -89 13 -14 21 -19 16 -12 -6 11 -3 11 13 1 12 -7 19
-16 16 -20 -2 -5 5 -6 16 -4 11 2 20 -1 20 -8 0 -7 9 -18 21 -25 12 -8 18 -19
15 -28 -3 -8 0 -14 7 -14 7 0 14 -14 15 -32 2 -18 8 -36 15 -40 7 -4 9 -8 4
-8 -4 0 0 -14 9 -31 10 -20 11 -28 3 -24 -8 5 -10 4 -5 -4 5 -7 9 -22 11 -34
7 -42 11 -56 18 -63 4 -4 7 -16 7 -26 0 -10 5 -18 10 -18 6 0 10 -7 10 -16 0
-9 5 -12 12 -8 8 5 9 2 5 -9 -3 -9 0 -23 8 -31 8 -7 11 -16 8 -20 -4 -3 -1 -6
6 -6 7 0 9 -4 6 -10 -3 -5 -1 -10 5 -10 6 0 9 -4 6 -8 -3 -5 1 -19 7 -33 7
-13 19 -43 26 -66 8 -24 18 -40 24 -36 6 4 8 -2 5 -15 -4 -13 -1 -22 5 -22 6
0 8 -3 4 -6 -3 -4 1 -13 9 -21 8 -8 12 -18 9 -23 -6 -10 20 -62 27 -54 3 2 8
-2 12 -11 4 -11 2 -14 -7 -9 -9 6 -9 5 0 -8 7 -8 9 -19 5 -23 -4 -5 -1 -5 6
-1 7 4 12 1 12 -8 0 -9 6 -16 13 -16 8 0 7 -4 -3 -10 -13 -8 -13 -10 2 -10 12
0 15 -5 11 -17 -4 -10 -2 -14 4 -10 11 7 38 -40 34 -61 -1 -7 4 -11 11 -10 7
2 17 -7 23 -19 5 -13 13 -23 17 -23 5 0 8 -7 8 -15 0 -8 13 -24 29 -36 17 -12
27 -28 24 -35 -4 -10 0 -12 11 -8 11 4 16 1 16 -10 0 -9 7 -16 16 -16 8 0 12
-5 9 -10 -3 -6 -1 -10 4 -10 6 0 11 -6 11 -14 0 -8 5 -18 12 -22 7 -5 9 -2 4
7 -4 8 2 3 13 -11 11 -14 21 -28 21 -33 0 -4 6 -6 13 -5 6 2 11 -3 9 -9 -1 -7
5 -13 13 -13 8 0 15 -5 15 -11 0 -5 4 -7 10 -4 6 3 10 1 10 -5 0 -19 82 -91
97 -86 8 3 11 1 8 -4 -3 -6 -1 -10 5 -10 6 0 9 -4 6 -8 -2 -4 5 -14 17 -22 20
-12 21 -12 8 4 -12 14 -12 16 3 10 9 -3 16 -10 16 -15 0 -5 11 -14 25 -21 13
-6 22 -15 19 -19 -3 -5 4 -9 15 -9 12 0 21 -4 21 -9 0 -6 9 -8 21 -6 18 4 19
2 8 -11 -11 -13 -10 -15 2 -13 19 3 69 -22 69 -35 0 -6 5 -4 10 4 8 12 10 10
10 -8 0 -14 4 -21 11 -17 6 4 21 -3 35 -16 13 -12 24 -19 24 -14 0 4 10 0 22
-11 15 -12 19 -14 13 -4 -6 10 -4 9 6 -2 9 -9 19 -14 23 -11 3 4 6 -2 6 -12 0
-14 3 -15 15 -5 12 10 15 10 15 0 0 -7 7 -10 14 -7 11 4 13 1 9 -10 -5 -12 -2
-15 10 -10 10 4 17 1 17 -6 0 -7 9 -18 21 -25 17 -11 20 -11 14 0 -3 7 2 4 12
-7 10 -11 25 -21 32 -23 7 -1 20 -9 28 -17 16 -17 38 -20 28 -5 -3 5 7 5 25
-1 16 -6 28 -15 25 -19 -3 -4 5 -6 17 -2 14 3 19 1 14 -6 -5 -8 -2 -10 8 -6 9
3 16 1 16 -6 0 -6 4 -9 9 -6 5 4 12 0 14 -6 4 -9 6 -9 6 2 1 10 6 8 16 -8 12
-16 24 -21 45 -18 21 2 30 -1 30 -11 0 -10 7 -14 20 -10 14 4 20 0 20 -11 0
-14 2 -14 9 -3 5 8 10 9 12 2 2 -6 15 -12 29 -15 14 -2 24 -9 22 -17 -3 -10 0
-10 12 1 13 10 16 10 16 -1 0 -11 2 -11 10 1 8 13 10 12 10 -4 0 -11 3 -16 7
-13 3 4 12 -1 20 -11 8 -9 12 -11 8 -4 -7 13 36 18 49 5 4 -4 23 -8 41 -8 19
-1 38 -5 42 -10 5 -4 2 -5 -6 0 -9 5 -12 4 -7 -3 5 -8 15 -8 32 -2 31 12 37
12 30 2 -3 -5 5 -7 17 -6 12 1 26 3 30 3 5 1 5 7 1 14 -6 9 -5 9 8 0 8 -7 18
-10 21 -7 3 4 14 3 24 -1 26 -11 53 -13 59 -4 3 5 21 8 40 7 20 -1 39 4 44 11
10 18 15 18 33 3 12 -10 17 -10 23 -1 5 8 3 9 -6 4 -9 -5 -11 -4 -6 4 6 9 11
9 22 0 10 -8 14 -8 14 0 0 6 5 11 11 11 5 0 7 -6 3 -12 -5 -9 -2 -9 9 1 9 7
17 10 17 6 0 -4 7 -2 15 5 11 10 19 10 27 2 13 -13 40 -4 31 12 -3 6 4 2 17
-9 13 -11 20 -14 16 -7 -6 10 -3 13 10 10 11 -2 25 3 32 12 12 13 13 13 8 -5
-6 -20 -6 -20 9 -1 8 11 15 16 15 10 0 -5 5 -1 11 8 5 10 16 18 24 18 7 0 12
8 10 18 -1 9 -7 16 -12 15 -21 -4 -8 28 14 33 12 4 20 11 16 17 -3 6 -1 7 6 3
6 -4 9 -12 6 -17 -4 -5 1 -9 9 -9 8 0 18 -5 22 -12 4 -7 3 -8 -4 -4 -7 4 -12
1 -12 -7 0 -8 7 -17 15 -21 10 -3 15 1 15 12 0 13 2 14 9 3 6 -9 10 -10 16 -2
5 9 10 9 20 1 10 -8 15 -8 21 1 5 8 3 9 -6 4 -9 -5 -11 -4 -6 4 6 9 11 9 21 1
9 -7 15 -8 19 -1 4 6 13 8 21 4 10 -3 15 1 15 13 0 15 2 16 9 5 6 -9 16 -11
32 -5 13 4 27 9 32 10 4 1 10 3 15 4 4 1 11 2 15 1 5 -1 6 3 3 8 -3 5 1 12 10
15 23 9 24 8 18 -11 -4 -12 -3 -14 3 -6 4 6 22 10 40 9 17 -1 30 2 27 6 -3 4
12 6 33 4 21 -2 32 -2 25 1 -6 2 -10 8 -7 12 2 5 -6 7 -20 6 -13 -2 -30 4 -37
13 -7 10 -8 14 -4 10 5 -4 14 0 21 9 12 16 40 9 30 -8 -4 -5 1 -9 9 -9 8 0 20
8 25 18 14 23 14 6 0 -19 -10 -19 -9 -19 10 -9 17 9 21 8 21 -5 0 -16 12 -18
69 -15 20 1 31 -2 27 -8 -3 -6 2 -9 11 -7 10 1 25 -2 33 -8 8 -6 12 -7 8 -3
-4 5 2 22 13 37 11 16 16 29 10 29 -6 0 -11 -4 -11 -9 0 -8 -11 -8 -40 -1 -3
0 11 10 30 21 19 11 25 17 14 14 -18 -5 -22 -1 -26 23 -4 31 24 63 37 41 4 -5
15 -7 26 -4 12 4 19 2 17 -5 -2 -7 4 -15 12 -17 9 -3 11 -1 5 4 -20 17 -17 35
5 23 13 -7 20 -7 20 0 0 5 -5 10 -11 10 -5 0 -7 5 -4 10 4 7 13 7 26 0 11 -6
17 -15 14 -20 -3 -4 -2 -10 2 -13 5 -2 2 -2 -5 -1 -6 2 -28 -8 -48 -21 -33
-23 -36 -31 -10 -26 5 1 4 -4 -2 -12 -9 -10 -9 -17 1 -26 6 -7 8 -12 2 -11
-22 5 -46 0 -41 -8 2 -4 1 -14 -5 -22 -6 -11 -9 -12 -9 -2 0 7 -4 11 -9 8 -4
-3 -6 -17 -3 -31 3 -19 7 -23 17 -15 10 8 15 6 20 -9 3 -12 12 -21 20 -21 7 0
21 -3 31 -7 13 -5 15 -3 9 8 -7 10 -1 9 18 -4 20 -13 25 -13 21 -3 -3 8 0 17
7 22 7 4 10 3 6 -3 -3 -5 1 -10 9 -10 8 0 13 6 10 13 -8 20 6 25 21 6 8 -9 12
-12 9 -5 -4 6 -2 14 4 18 6 4 8 10 6 14 -7 11 27 10 40 -1 8 -5 17 -3 27 6 8
8 17 12 20 9 4 -3 14 -2 24 2 10 5 22 7 26 6 5 -1 5 4 2 10 -5 8 -10 8 -18 0
-6 -6 -15 -11 -20 -11 -5 0 -1 8 9 17 16 16 18 16 34 -5 10 -11 20 -19 24 -17
3 3 2 -1 -4 -7 -14 -17 -12 -31 3 -21 6 4 4 -6 -7 -21 -10 -16 -13 -26 -8 -22
6 3 13 3 15 -2 3 -4 -6 -12 -19 -19 -13 -6 -22 -8 -19 -3 3 4 -3 11 -12 14 -9
4 -20 1 -25 -6 -4 -7 -8 -10 -8 -6 0 5 -8 0 -18 -10 -11 -9 -18 -19 -16 -22 1
-3 -1 -12 -7 -20 -6 -11 -9 -12 -9 -2 0 7 -5 10 -10 7 -6 -4 -7 -11 -4 -17 4
-7 2 -8 -5 -4 -6 4 -9 11 -6 16 3 5 1 11 -5 15 -5 3 -10 1 -10 -5 0 -6 -3 -9
-7 -7 -5 3 -9 -22 -11 -54 -2 -40 1 -59 8 -59 7 0 10 -6 7 -13 -3 -8 -1 -20 5
-28 8 -11 9 -11 4 3 -3 10 -2 20 3 22 4 3 8 -14 8 -37 0 -61 6 -96 15 -91 4 3
8 -4 8 -16 0 -12 5 -18 10 -15 6 3 10 1 10 -5 0 -7 7 -9 16 -6 8 3 12 2 9 -4
-3 -6 6 -15 20 -20 33 -12 38 -13 30 -1 -3 6 6 6 24 1 21 -6 33 -4 47 9 17 15
17 15 4 -2 -11 -15 -11 -18 1 -15 8 2 17 10 21 18 5 12 7 12 7 -2 1 -10 6 -18
13 -18 6 0 8 3 5 7 -4 3 6 17 21 31 17 16 20 23 9 19 -15 -6 -16 -4 -6 14 7
13 7 19 1 15 -6 -3 -13 -2 -17 4 -6 10 9 15 30 10 6 -1 7 2 3 6 -4 4 -3 13 4
21 9 11 7 12 -8 7 -15 -4 -13 -1 5 14 25 21 56 23 56 4 0 -6 3 -14 7 -17 4 -4
5 5 2 21 -4 20 0 32 12 41 11 8 13 13 5 13 -7 0 -9 5 -6 10 4 6 3 10 -2 9 -19
-3 -47 3 -35 8 9 4 10 8 2 18 -8 10 -8 15 1 21 8 5 10 3 4 -7 -6 -11 -5 -12 5
-2 11 10 11 15 -1 30 -13 17 -13 17 7 1 19 -16 20 -16 21 3 1 12 -3 17 -10 13
-7 -3 -4 1 6 9 13 11 15 17 7 22 -9 6 -9 10 1 16 11 7 11 9 1 9 -10 0 -10 5
-1 23 12 21 11 21 -6 7 -10 -8 -16 -10 -12 -3 4 6 3 15 -3 18 -8 5 -7 11 2 22
17 21 20 53 5 53 -7 0 -8 3 -2 8 19 13 14 53 -6 47 -13 -4 -18 -1 -17 12 0 10
0 23 -2 28 -5 21 1 34 14 29 8 -3 17 0 22 7 4 8 3 10 -4 5 -11 -7 -16 5 -13
31 1 6 -3 14 -9 18 -6 3 -7 0 -4 -9 6 -16 -10 -23 -19 -9 -2 5 -2 2 -1 -4 2
-7 -4 -17 -13 -22 -15 -8 -15 -11 -3 -27 14 -16 13 -16 -7 -4 -12 8 -20 17
-17 21 2 4 -17 7 -42 6 -29 0 -49 5 -54 13 -12 20 -1 28 11 10 9 -13 10 -13 6
0 -4 18 -32 20 -32 3 0 -6 -4 -15 -9 -20 -5 -4 -6 -3 -3 3 4 7 -3 12 -19 12
-18 -1 -22 -4 -15 -11 6 -6 11 -15 11 -21 0 -5 -6 -2 -13 9 -9 11 -19 15 -28
11 -8 -4 -6 -1 5 8 10 8 15 19 12 25 -4 5 -1 13 5 17 7 4 9 3 5 -4 -3 -6 -2
-13 4 -17 9 -5 14 7 12 27 -1 3 5 9 13 12 18 7 19 2 4 -27 -12 -21 -11 -21 8
-5 18 17 20 17 41 -2 12 -12 22 -17 23 -13 5 39 5 62 0 59 -16 -10 -30 22 -16
34 12 10 15 9 16 -6 0 -16 2 -16 9 4 12 28 20 29 15 1 -3 -16 -1 -18 9 -10 13
11 14 9 18 -43 1 -14 6 -22 10 -20 5 3 6 9 3 14 -3 4 2 13 10 20 12 10 15 9
15 -8 0 -14 5 -19 18 -15 12 3 22 -4 30 -21 6 -14 16 -27 22 -27 5 -1 16 -2
23 -3 6 -1 18 2 25 7 9 7 11 6 7 -5 -5 -12 2 -15 32 -13 29 1 38 6 37 18 -1
10 4 17 11 17 7 0 16 8 20 18 12 27 14 43 4 36 -14 -8 -11 20 4 35 10 11 10
13 0 7 -7 -4 -13 -2 -13 3 0 6 5 11 11 11 8 0 7 6 -2 17 -12 15 -12 16 1 8 13
-8 13 -6 2 8 -8 9 -10 22 -6 29 5 7 9 19 11 27 1 8 7 17 13 21 8 5 9 10 2 14
-6 4 -16 -2 -22 -11 -10 -16 -11 -16 -6 -1 3 10 1 20 -4 23 -6 4 -10 1 -10 -4
0 -6 -8 -11 -17 -11 -15 0 -14 2 2 14 11 8 24 11 30 8 21 -14 36 -10 33 8 -2
11 2 19 7 20 6 0 10 -3 10 -7 1 -5 6 -18 13 -31 7 -12 10 -27 7 -32 -3 -5 0
-12 6 -16 8 -4 9 -3 5 4 -4 8 0 12 11 12 17 1 17 1 0 14 -10 8 -16 20 -15 27
2 8 -2 13 -7 12 -6 -1 -11 7 -11 18 0 18 2 18 12 5 6 -9 15 -12 19 -8 5 4 5 1
1 -6 -6 -10 -1 -11 21 -7 21 5 24 4 13 -4 -13 -10 -13 -11 0 -11 13 0 13 -2 1
-9 -17 -11 -23 -39 -10 -47 5 -3 9 0 9 5 0 6 6 10 13 9 6 -2 11 5 11 14 -1 9
4 14 11 12 7 -3 16 0 21 7 4 7 3 10 -3 6 -6 -4 -16 0 -23 8 -10 12 -8 13 10
10 16 -3 20 0 16 11 -3 9 -2 12 5 9 6 -4 8 -14 5 -22 -5 -11 -2 -13 11 -9 15
6 14 4 -2 -14 -16 -18 -17 -20 -2 -14 10 3 17 1 17 -6 0 -6 5 -8 11 -4 8 5 10
-1 7 -20 -6 -32 -1 -34 12 -3 l9 22 0 -22 c1 -19 4 -21 24 -14 12 5 25 8 29 7
3 0 10 3 15 8 4 5 3 6 -3 3 -7 -4 -14 3 -16 18 -3 14 -1 22 4 18 6 -3 4 5 -3
18 -7 13 -13 26 -13 29 -1 3 -4 4 -8 2 -5 -1 -8 5 -8 13 0 8 -7 15 -15 15 -8
0 -15 5 -15 12 0 6 -7 3 -16 -8 -8 -10 -13 -14 -10 -7 9 17 -4 42 -18 37 -7
-3 -19 2 -26 11 -7 8 -17 15 -23 15 -6 0 -2 -7 9 -16 18 -14 18 -15 -3 -4 -13
6 -23 15 -23 21 0 6 -5 7 -12 3 -7 -5 -9 -2 -5 8 4 12 0 15 -16 11 -18 -4 -19
-3 -7 6 13 9 12 11 -6 11 -26 0 -48 24 -38 42 4 7 4 10 0 6 -10 -8 -36 14 -29
24 2 5 -1 8 -7 8 -6 0 -9 4 -6 9 7 10 -22 25 -41 22 -7 -1 -13 4 -13 10 0 7
-3 9 -6 6 -4 -4 -18 6 -32 21 -13 15 -21 22 -18 15 3 -6 1 -15 -5 -19 -8 -4
-9 -3 -5 4 4 7 2 12 -4 12 -6 0 -8 5 -5 10 3 5 -1 10 -9 10 -9 0 -16 4 -16 9
0 6 -9 8 -20 6 -11 -2 -18 0 -15 4 8 14 -18 27 -52 26 -17 -1 -32 1 -31 4 2
20 -3 31 -12 26 -5 -3 -10 -2 -10 3 0 5 -11 8 -25 7 -13 -2 -23 0 -22 3 3 11
-42 52 -57 52 -8 0 -18 9 -21 20 -4 11 -10 18 -15 15 -14 -9 -40 6 -33 19 4 6
1 6 -9 -2 -13 -10 -16 -9 -21 8 -3 11 -12 20 -21 20 -9 0 -16 5 -16 10 0 6
-10 10 -22 10 -19 0 -20 2 -8 10 12 8 9 10 -12 10 -16 0 -28 4 -28 10 0 5 -6
7 -13 4 -8 -3 -20 2 -27 11 -7 8 -21 15 -31 15 -11 0 -19 5 -19 11 0 5 -4 7
-10 4 -5 -3 -10 -1 -10 4 0 6 -3 11 -7 10 -16 -2 -53 14 -53 22 0 5 -9 9 -20
9 -11 0 -20 5 -20 10 0 6 -3 9 -7 8 -9 -2 -65 23 -73 32 -6 7 -93 43 -98 40
-2 -1 -7 2 -10 6 -4 4 0 4 8 -1 9 -5 12 -4 7 1 -10 11 -148 13 -141 2 3 -4 -2
-5 -10 -2 -9 3 -16 11 -16 16 0 6 -8 4 -17 -3 -11 -10 -14 -10 -9 -2 5 9 0 13
-13 14 -29 2 -34 3 -48 12 -8 5 -13 3 -13 -3 0 -7 -7 -10 -15 -6 -8 3 -15 0
-15 -7 0 -8 -4 -6 -10 3 -6 10 -10 11 -10 3 0 -7 -12 -13 -26 -13 -17 0 -23
-4 -18 -12 4 -6 -3 -4 -15 5 -23 16 -50 13 -63 -7 -5 -7 -8 -7 -8 2 0 20 -59
-18 -75 -48 -16 -31 -12 -90 7 -104 11 -9 16 -29 8 -38 -2 -3 -8 -58 -13 -122
-2 -27 1 -42 7 -39 5 4 7 -1 3 -10 -4 -11 1 -20 14 -27 15 -8 18 -17 13 -33
-6 -19 -5 -20 10 -8 14 12 16 12 10 -3 -3 -9 -11 -16 -16 -16 -6 0 0 -9 13
-19 l24 -20 -22 6 c-14 3 -23 1 -23 -6 0 -7 4 -10 9 -7 5 3 11 -3 14 -15 5
-17 3 -18 -11 -7 -14 11 -14 11 -5 -6 7 -13 7 -25 -1 -41 -12 -25 -48 -31 -38
-6 4 11 1 13 -13 8 -14 -6 -16 -5 -7 6 9 10 8 14 -2 14 -9 0 -13 -9 -11 -24 1
-13 -1 -26 -6 -28 -11 -8 -39 24 -33 38 3 8 -7 14 -28 15 -18 2 -40 10 -50 19
-12 11 -18 12 -18 4 0 -7 -5 -9 -10 -6 -6 3 -28 7 -50 7 -23 0 -40 5 -40 12 0
6 -4 5 -9 -3 -5 -8 -16 -11 -24 -8 -19 7 -97 -13 -97 -25 0 -5 -5 -6 -10 -3
-6 4 -18 1 -27 -7 -14 -11 -16 -11 -8 1 6 11 4 13 -7 9 -8 -4 -21 2 -28 12 -7
10 -21 17 -32 15 -10 -2 -22 4 -28 15 -6 11 -14 19 -18 19 -21 -3 -32 2 -26
13 5 8 2 9 -9 5 -11 -4 -17 -1 -17 7 0 8 -12 17 -27 21 -43 12 -63 13 -63 2 0
-5 -6 -5 -13 2 -10 8 -16 8 -24 0 -8 -8 -20 -8 -43 -1 -29 11 -31 10 -25 -11
5 -17 4 -19 -4 -7 -6 8 -11 13 -12 10 -8 -45 -11 -56 -20 -65 -7 -7 -8 -5 -4
6 4 10 1 20 -4 24 -6 3 -8 11 -5 17 4 7 2 8 -5 4 -9 -6 -9 -11 0 -22 9 -11 9
-14 0 -14 -7 0 -9 -5 -5 -12 6 -10 5 -10 -8 -1 -8 7 -18 11 -22 8 -3 -3 -2 1
4 7 14 16 13 31 -2 22 -7 -4 -8 -3 -4 5 4 6 11 9 16 6 5 -3 16 5 26 17 11 15
14 17 11 6 -4 -10 -3 -18 2 -18 16 0 21 13 9 27 -9 11 -14 11 -29 -3 -21 -19
-52 -2 -56 31 -2 11 -5 29 -7 40 -3 11 -5 24 -5 28 -1 5 -5 5 -11 2 -6 -3 -10
1 -10 9 0 14 -12 20 -32 17 -5 0 -8 3 -8 9 0 5 -9 10 -20 10 -12 0 -20 7 -20
18 0 9 -4 13 -8 7 -9 -12 -32 -18 -31 -8 3 18 -1 33 -8 31 -17 -4 -53 14 -53
28 0 8 -5 14 -11 14 -5 0 -7 -4 -4 -10 3 -6 -1 -7 -9 -4 -9 3 -16 13 -16 22 0
8 -3 13 -6 9 -4 -3 -13 1 -21 9 -8 8 -19 12 -24 9 -5 -4 -9 -1 -9 5 0 6 -4 9
-9 6 -5 -3 -12 1 -15 10 -5 14 -9 14 -23 3 -14 -12 -16 -12 -8 0 6 11 4 13 -9
8 -9 -4 -15 -3 -11 2 3 5 -6 18 -20 29 -14 11 -25 25 -25 32 0 10 -3 10 -14 1
-11 -9 -16 -9 -22 0 -4 8 -3 9 4 5 7 -4 12 -1 12 8 0 10 -6 13 -17 9 -11 -4
-14 -3 -9 5 7 12 -1 15 -37 15 -10 0 -15 2 -12 6 4 3 12 6 17 6 6 0 13 6 16
14 3 9 0 12 -9 9 -11 -4 -14 5 -13 38 0 31 -3 44 -13 44 -8 0 -11 5 -8 10 3 6
0 10 -7 10 -10 0 -10 2 1 9 11 7 11 9 0 14 -11 4 -11 6 -1 6 10 1 9 5 -3 17
-12 13 -13 19 -5 24 9 6 9 9 0 12 -14 4 -21 78 -7 78 4 0 6 4 3 9 -3 5 0 14 7
20 15 12 16 39 2 60 -5 9 -4 12 3 7 17 -10 21 18 4 37 -8 9 -11 17 -5 17 5 0
10 7 10 15 0 8 -5 15 -10 15 -5 0 -3 8 4 17 8 9 9 14 3 10 -11 -6 -18 8 -29
50 -2 6 -6 49 -9 95 -3 46 -10 84 -16 86 -5 2 -10 8 -10 13 0 6 5 7 11 3 7 -4
7 1 -1 16 -6 12 -9 28 -6 36 4 10 2 12 -6 8 -7 -5 -9 0 -6 14 4 12 2 22 -4 22
-5 0 -7 3 -5 8 3 4 0 18 -6 32 -5 14 -12 34 -14 45 -7 33 -11 50 -13 55 -1 3
-1 13 0 24 1 12 -3 16 -12 11 -7 -3 -4 1 6 9 15 12 16 16 5 16 -12 0 -12 2 1
10 12 8 13 11 1 19 -10 7 -10 10 -1 13 9 3 8 9 -4 21 -23 22 -39 12 -25 -15 9
-17 9 -20 -4 -15 -13 5 -14 1 -7 -23 6 -22 4 -32 -8 -42 -10 -7 -14 -8 -10 -4
4 5 2 16 -5 24 -10 13 -9 15 3 8 8 -4 7 -1 -4 8 -11 9 -19 29 -20 50 0 20 -7
38 -15 41 -7 3 -10 12 -7 20 3 8 1 15 -3 15 -5 0 -8 18 -7 40 1 22 -3 42 -8
44 -7 3 -6 5 1 5 7 1 10 8 7 16 -4 8 -11 12 -18 8 -7 -5 -7 -2 1 8 13 17 14
59 0 59 -4 0 -6 4 -3 8 3 5 -1 9 -9 9 -8 0 -11 -5 -8 -11 3 -6 -1 -4 -10 4
-19 18 -51 93 -36 84 8 -4 8 -1 0 13 -6 11 -7 23 -4 27 3 3 1 6 -6 6 -7 0 -9
5 -6 10 3 6 0 10 -7 10 -9 0 -9 3 2 10 12 7 12 10 1 10 -7 0 -11 6 -8 14 3 7
0 19 -6 25 -8 8 -7 11 4 11 8 0 10 3 4 8 -20 14 -42 47 -25 37 12 -7 13 -6 3
6 -7 9 -12 68 -13 164 -2 143 -6 231 -14 303 -2 19 1 32 8 32 7 0 7 3 -1 8
-13 8 -13 68 -1 88 4 5 3 16 -1 23 -12 18 -1 52 13 44 6 -4 6 0 -2 9 -7 8 -10
23 -6 32 3 9 2 16 -4 16 -6 0 -9 8 -7 18 1 9 0 21 -3 27 -7 11 -4 81 5 109 4
14 2 16 -8 10 -11 -6 -12 -5 -3 7 11 13 27 72 24 85 -1 4 2 10 7 13 17 12 35
65 24 69 -8 3 -8 10 0 24 8 16 8 19 -1 13 -9 -6 -9 -2 -1 14 7 11 8 21 4 21
-7 0 -9 54 -3 70 1 3 2 9 1 13 -1 4 3 17 9 27 8 15 8 20 -2 20 -9 0 -9 3 2 10
14 9 7 14 -13 11 -5 -1 -6 3 -2 9 3 5 14 10 23 10 14 0 15 2 3 9 -10 7 -12 14
-5 23 6 7 10 39 10 70 -1 32 2 58 6 58 3 0 5 15 4 33 -2 17 1 44 5 59 4 15 3
28 -1 30 -5 2 -10 28 -12 58 -1 30 -6 58 -11 61 -4 3 -8 26 -10 52 -2 52 -3
53 -21 35 -17 -18 -20 -30 -7 -38 7 -3 9 -14 5 -23 -3 -9 -11 -14 -16 -11 -6
4 -8 -2 -3 -15 4 -14 3 -21 -5 -19 -7 2 -15 -3 -18 -11 -3 -9 0 -11 9 -6 8 5
10 4 6 0 -4 -5 -14 -10 -23 -11 -13 -2 -13 1 1 23 9 14 15 34 12 44 -3 10 -1
19 5 19 5 0 6 5 2 12 -4 6 -7 32 -7 57 1 25 -4 52 -9 59 -7 8 -7 12 0 12 6 0
9 10 6 23 -3 12 -7 42 -11 67 -3 25 -10 51 -17 59 -9 12 -8 13 4 6 13 -8 13
-7 1 9 -13 15 -13 19 0 27 8 5 9 9 4 9 -10 0 -14 15 -16 63 0 9 -6 17 -12 17
-7 0 -6 4 3 10 10 6 11 10 2 10 -6 0 -11 3 -11 8 3 19 -2 32 -12 32 -8 0 -8
-4 0 -14 9 -10 8 -15 -1 -19 -9 -3 -13 5 -13 24 -1 15 2 27 5 27 23 -2 31 3
24 15 -5 6 -9 31 -9 55 0 23 -3 42 -7 42 -4 0 -7 8 -8 18 -4 76 -6 92 -14 92
-5 0 -6 3 -3 6 3 4 1 16 -5 28 -7 11 -11 24 -10 29 1 4 -4 7 -10 7 -10 0 -10
2 0 8 9 6 8 13 -6 28 -10 10 -19 35 -20 54 -2 19 -7 37 -13 41 -6 3 -10 10
-10 15 1 5 -2 23 -5 39 -3 17 -7 39 -9 50 -2 11 -4 22 -5 25 -1 3 -3 10 -5 15
-1 6 -3 12 -5 15 -1 3 -4 19 -5 35 -2 17 -4 31 -5 33 -1 1 -3 5 -4 10 -1 4 -5
13 -9 20 -5 6 -5 17 -2 22 3 6 1 10 -5 10 -7 0 -10 7 -6 15 3 8 1 15 -4 15 -6
0 -8 10 -6 23 2 12 0 27 -3 32 -8 10 -30 79 -35 105 -2 8 -8 28 -15 43 -6 16
-9 33 -5 38 3 5 0 9 -5 9 -6 0 -11 8 -11 18 0 10 -3 22 -6 25 -13 12 -42 111
-37 121 3 5 1 6 -5 2 -7 -4 -12 -1 -12 8 0 24 -2 30 -16 44 -7 7 -11 19 -7 28
3 8 -2 23 -12 33 -9 11 -17 25 -19 33 -1 7 -4 18 -7 23 -4 6 -5 18 -4 28 2 9
-2 17 -8 17 -8 0 -7 3 1 9 11 7 11 9 -1 14 -8 3 -17 18 -21 32 -4 15 -13 33
-20 40 -7 7 -12 32 -12 54 1 23 -2 41 -6 41 -5 0 -8 9 -8 19 0 11 -3 21 -7 23
-5 2 -18 22 -30 46 -12 24 -18 40 -13 37 6 -3 10 -2 10 4 0 5 -5 11 -11 13 -5
2 -12 12 -14 23 -2 11 -4 20 -5 20 -1 0 -3 14 -5 30 -2 17 -7 48 -10 70 -3 22
-7 48 -8 58 0 9 -6 17 -12 17 -5 0 -3 5 5 10 8 5 10 10 5 10 -9 0 -15 21 -18
68 0 6 -4 12 -8 12 -5 0 -5 7 -2 17 4 11 3 14 -5 9 -7 -4 -12 -2 -12 3 0 6 6
11 13 11 6 0 4 5 -6 11 -9 6 -15 14 -12 19 3 5 -3 15 -15 22 -11 7 -20 16 -20
21 0 4 4 6 9 2 5 -3 3 8 -5 25 -9 17 -19 28 -24 25 -5 -3 -7 4 -5 15 2 11 0
20 -6 20 -5 0 -9 12 -9 26 0 14 -4 23 -9 20 -5 -3 -12 1 -15 10 -3 8 -10 13
-15 10 -5 -3 -7 3 -4 14 3 12 0 20 -6 20 -7 0 -9 5 -6 10 3 6 1 10 -5 10 -14
0 -40 25 -40 38 0 20 -72 34 -108 21z m3832 -7054 c-4 -9 0 -15 7 -15 12 0 12
-2 0 -9 -9 -6 -10 -11 -2 -15 6 -4 15 -5 20 -1 5 3 16 -2 25 -11 9 -8 25 -16
37 -17 20 -1 20 -2 -3 -21 -17 -15 -19 -18 -4 -13 16 6 17 4 12 -20 -5 -21 -4
-24 4 -13 5 8 10 11 10 6 0 -6 7 -1 16 10 15 18 15 18 9 -3 -5 -18 -3 -22 9
-17 10 4 16 1 16 -7 0 -7 -3 -9 -6 -6 -4 3 -16 2 -26 -4 -14 -8 -23 -8 -31 0
-7 7 -15 7 -26 -2 -14 -11 -15 -10 -1 7 14 18 13 19 -3 13 -11 -4 -20 -2 -23
6 -2 7 -12 14 -22 15 -53 6 -56 8 -57 46 0 21 3 40 7 42 5 3 5 10 2 16 -4 6
-2 8 3 5 6 -4 13 0 17 8 3 8 8 15 10 15 3 0 3 -7 0 -15z"/>
<path d="M2016 7795 c-14 -11 -24 -12 -39 -4 -14 8 -18 8 -13 0 7 -11 -5 -15
-31 -12 -7 1 -13 -4 -13 -11 0 -9 -3 -9 -10 2 -9 13 -11 13 -20 0 -9 -13 -10
-13 -10 0 0 12 -2 13 -9 1 -5 -7 -14 -10 -20 -6 -7 4 -19 1 -28 -7 -14 -11
-16 -11 -9 0 7 11 4 12 -13 3 -16 -9 -21 -9 -21 0 0 8 -5 7 -17 -2 -15 -12
-16 -12 -8 1 7 13 6 13 -7 2 -12 -9 -18 -10 -23 -2 -5 8 -11 8 -19 1 -7 -6
-16 -8 -20 -4 -4 4 -11 1 -16 -7 -6 -9 -10 -10 -10 -3 0 14 -52 1 -115 -27
-47 -21 -135 -102 -155 -142 -7 -15 -16 -26 -19 -23 -4 2 -18 -13 -31 -33 -14
-20 -38 -49 -53 -64 -15 -15 -27 -30 -27 -35 1 -4 -7 -10 -17 -14 -10 -4 -14
-8 -9 -8 6 -1 1 -8 -10 -16 -10 -8 -15 -15 -11 -15 4 0 -5 -13 -21 -28 -16
-16 -28 -36 -26 -45 1 -9 -3 -20 -10 -24 -7 -5 -26 -33 -41 -63 -16 -30 -38
-67 -48 -82 -10 -16 -16 -28 -13 -28 4 0 -7 -19 -24 -41 -16 -23 -27 -46 -23
-52 3 -5 1 -7 -4 -4 -10 7 -28 -20 -25 -35 1 -5 -3 -8 -9 -8 -5 0 -8 -4 -4 -9
3 -5 -1 -15 -8 -23 -8 -7 -12 -19 -9 -26 2 -6 -3 -15 -12 -18 -9 -3 -16 -12
-16 -19 0 -8 -5 -17 -12 -21 -7 -5 -9 -2 -3 7 4 8 -6 -1 -22 -18 -16 -18 -34
-33 -41 -33 -7 0 -10 -4 -7 -10 3 -5 1 -10 -5 -10 -6 0 -8 -4 -5 -10 3 -5 -1
-10 -9 -10 -9 0 -15 -3 -13 -8 1 -4 -2 -9 -8 -11 -5 -3 -18 -15 -28 -28 -10
-13 -23 -21 -28 -18 -5 4 -9 1 -9 -4 0 -6 -8 -11 -17 -11 -9 0 -13 -3 -10 -7
4 -3 -5 -14 -21 -23 -15 -10 -36 -35 -47 -56 -11 -22 -27 -45 -35 -52 -13 -12
-13 -13 0 -6 12 6 11 3 -2 -12 -9 -10 -17 -23 -19 -29 -4 -24 -12 -34 -20 -29
-5 3 -9 -2 -9 -10 0 -8 -8 -20 -17 -25 -10 -6 -14 -11 -10 -11 11 0 -14 -25
-33 -33 -12 -4 -12 -6 -1 -6 10 -1 7 -7 -7 -20 -12 -10 -19 -21 -15 -25 3 -3
1 -6 -5 -6 -7 0 -12 -9 -12 -20 0 -11 -4 -20 -8 -20 -5 0 -14 -16 -22 -35 -8
-19 -18 -35 -22 -35 -5 0 -7 -4 -3 -9 3 -5 1 -12 -3 -15 -5 -3 -8 -28 -8 -56
1 -28 -2 -54 -7 -57 -4 -3 -6 -11 -3 -19 3 -8 2 -14 -3 -14 -8 0 -8 0 -15 -79
-4 -46 -2 -54 15 -58 10 -3 16 -10 12 -16 -3 -6 -1 -7 5 -3 7 4 27 3 46 -2 23
-7 38 -6 45 1 8 8 11 7 11 -2 0 -11 3 -11 15 -1 8 7 15 9 15 5 0 -4 8 -1 17 6
11 10 14 10 9 2 -4 -7 -3 -13 3 -13 5 0 13 5 16 10 3 6 11 10 16 10 6 0 8 -4
5 -8 -3 -5 1 -9 9 -9 8 0 11 5 8 10 -4 6 0 8 10 4 10 -3 17 -3 17 2 0 5 11 7
25 6 14 -2 25 1 25 7 0 6 6 5 15 -2 14 -11 19 -7 16 13 -2 11 14 8 28 -5 11
-11 12 -10 6 0 -5 9 -1 12 11 10 11 -2 18 2 17 7 -1 6 10 11 25 11 37 1 82 14
82 25 0 5 7 5 17 2 11 -5 14 -3 8 6 -6 10 -3 11 14 2 15 -8 21 -9 21 -1 0 6 5
8 10 5 6 -3 10 -1 10 5 0 6 5 8 10 5 6 -3 10 -1 10 5 0 7 6 10 14 7 10 -4 13
0 11 14 -3 17 -1 18 9 10 10 -9 15 -8 19 4 4 9 13 12 23 8 12 -4 15 -3 10 5
-6 11 5 17 27 13 4 0 7 6 7 15 0 11 6 15 20 11 11 -3 26 1 33 8 10 9 19 10 32
3 13 -8 16 -7 11 1 -7 11 1 14 36 14 10 0 15 3 12 8 -2 5 8 11 23 15 15 4 33
11 40 16 7 6 13 4 16 -4 4 -10 6 -10 6 0 1 6 12 12 25 12 14 0 28 5 31 10 3 6
19 10 34 10 15 0 37 9 48 19 12 11 24 17 27 14 3 -4 6 -1 6 5 0 6 7 9 17 5 11
-4 14 -3 9 5 -5 8 -2 10 8 6 11 -4 16 0 16 12 0 16 2 17 10 4 8 -13 10 -12 10
3 0 9 6 17 13 17 8 0 7 4 -3 10 -12 8 -12 10 5 10 19 1 19 2 -2 10 -15 6 -21
16 -19 34 2 14 -2 26 -8 26 -6 0 -5 4 2 9 8 4 15 27 15 50 2 31 5 40 16 36 11
-4 10 0 -3 14 -13 14 -14 21 -5 27 7 4 10 3 6 -3 -4 -6 0 -13 7 -16 12 -5 13
-1 4 24 -5 16 -15 26 -21 22 -6 -4 -7 -1 -3 6 5 7 11 10 14 7 3 -3 12 0 21 7
14 10 14 10 3 -5 -14 -17 -8 -43 7 -34 20 13 -2 68 -23 60 -7 -3 -16 2 -20 11
-4 11 -2 14 7 9 9 -5 9 -4 0 6 -6 7 -9 19 -6 28 5 11 3 13 -8 7 -10 -7 -9 -1
4 18 20 31 22 41 5 31 -9 -5 -9 -2 1 9 11 14 11 17 0 17 -11 0 -11 2 1 10 13
8 12 10 -3 10 -10 0 -15 5 -12 10 4 6 10 8 15 5 5 -3 12 0 16 6 4 8 3 9 -4 5
-7 -4 -12 -3 -12 3 0 6 -12 22 -27 38 -20 19 -23 25 -9 20 14 -6 17 -4 12 9
-5 13 -4 14 7 6 15 -13 18 33 3 56 -5 8 -2 11 5 10 7 -2 14 4 14 12 0 8 6 14
13 13 7 -2 12 4 12 13 0 14 3 14 15 4 8 -7 15 -18 14 -24 0 -7 -2 -6 -6 2 -2
6 -9 9 -14 6 -6 -4 -6 -10 0 -18 8 -9 5 -19 -9 -34 -21 -23 -27 -37 -10 -27 6
3 10 2 10 -4 0 -5 -6 -11 -12 -13 -7 -3 -3 -7 9 -10 17 -5 21 -2 18 14 -3 12
-2 18 2 15 9 -9 44 13 38 23 -4 6 1 7 11 3 13 -5 16 -3 11 10 -4 12 -2 14 11
10 15 -6 15 -5 3 10 -7 9 -11 23 -8 31 4 11 1 13 -11 9 -15 -6 -15 -5 -3 11
12 15 12 17 0 14 -9 -2 -15 7 -17 23 -2 18 2 26 12 26 19 0 21 -14 4 -20 -7
-2 -10 -7 -6 -11 3 -4 17 7 30 26 14 20 33 34 48 36 19 2 22 0 10 -8 -12 -8
-11 -10 7 -10 12 0 25 -4 28 -10 3 -6 -1 -7 -10 -4 -21 8 -8 -26 17 -44 10 -7
15 -19 11 -25 -3 -7 2 -4 13 5 19 16 64 21 64 7 0 -11 47 14 48 25 5 48 11 71
21 74 6 2 11 10 11 17 0 7 6 16 13 18 9 4 9 6 0 6 -14 1 -6 31 9 31 5 0 6 -4
3 -10 -3 -5 -2 -10 4 -10 6 0 25 -16 42 -35 18 -19 35 -32 40 -30 4 3 10 -4
14 -15 3 -11 12 -20 18 -20 7 0 6 -4 -3 -10 -12 -8 -12 -10 5 -11 12 0 15 -3
7 -6 -10 -4 -9 -9 5 -20 10 -8 13 -12 6 -9 -6 4 -15 1 -19 -5 -4 -8 -3 -9 4
-5 7 4 12 2 12 -4 0 -6 5 -8 12 -4 8 5 9 2 5 -9 -4 -12 -1 -17 10 -17 9 0 13
-3 10 -6 -9 -10 12 -46 24 -39 8 6 13 -8 10 -27 0 -5 6 -8 15 -8 8 0 12 -4 9
-10 -3 -5 5 -21 18 -34 14 -14 22 -27 19 -30 -3 -3 3 -6 13 -6 10 0 16 -3 12
-6 -10 -11 29 -77 63 -107 18 -17 29 -35 26 -43 -3 -8 -1 -14 5 -14 6 0 8 -7
5 -16 -4 -11 -2 -15 8 -11 16 6 17 -24 1 -35 -6 -5 -6 -8 2 -8 14 0 13 -40 -2
-40 -6 0 -6 -3 1 -8 12 -8 28 -45 16 -38 -5 3 -7 -15 -6 -40 2 -29 -1 -42 -8
-38 -5 4 -2 -6 8 -21 18 -28 18 -28 -2 -17 -18 10 -20 8 -18 -21 1 -17 0 -36
-4 -42 -3 -5 -7 -27 -8 -49 -1 -21 -7 -42 -12 -45 -6 -3 -12 -17 -14 -31 -2
-15 -9 -24 -17 -22 -12 3 -12 0 -1 -12 9 -12 10 -16 0 -16 -7 0 -10 -7 -6 -15
3 -8 1 -15 -5 -15 -6 0 -9 -7 -6 -15 4 -8 1 -17 -5 -21 -7 -4 -6 -9 3 -15 10
-6 10 -9 2 -9 -7 0 -10 -9 -8 -21 3 -12 1 -27 -3 -33 -4 -6 -7 -19 -7 -29 0
-10 -7 -22 -15 -27 -11 -7 -11 -10 -2 -10 9 0 10 -5 2 -19 -13 -26 -13 -34 3
-25 9 6 9 5 0 -7 -7 -9 -11 -30 -8 -47 2 -18 -1 -32 -7 -32 -5 0 -8 -6 -5 -14
3 -8 2 -16 -4 -18 -5 -2 -11 -21 -13 -43 -2 -22 -5 -40 -6 -40 -4 0 -11 -43
-11 -64 1 -12 -2 -28 -6 -35 -4 -6 -8 -27 -9 -47 -1 -20 -4 -42 -8 -48 -4 -6
-1 -11 6 -11 10 0 10 -2 0 -8 -10 -7 -8 -13 6 -30 15 -17 21 -19 32 -9 10 9
11 9 6 0 -4 -8 -2 -13 6 -13 10 0 9 -3 -2 -11 -12 -8 -11 -9 5 -5 27 7 40 -3
53 -43 15 -41 15 -44 2 -36 -5 3 -7 0 -4 -8 3 -8 0 -18 -5 -22 -6 -3 -9 -10
-6 -15 3 -5 -4 -11 -15 -15 -11 -4 -20 -15 -20 -26 0 -11 -4 -17 -10 -14 -5 3
-10 -1 -10 -10 0 -8 -9 -23 -20 -32 -11 -10 -20 -23 -20 -31 0 -7 -3 -11 -8
-8 -4 2 -12 -7 -19 -20 -8 -17 -8 -24 0 -24 6 0 7 -3 4 -6 -4 -4 -14 -1 -24 7
-9 8 -14 10 -11 4 7 -12 -17 -37 -26 -28 -3 4 -6 -1 -6 -10 0 -10 -7 -15 -20
-12 -11 2 -19 1 -19 -3 3 -19 -2 -23 -16 -12 -13 11 -14 10 -9 -5 5 -12 4 -16
-3 -12 -6 4 -18 -2 -28 -13 -14 -15 -15 -20 -4 -20 10 -1 9 -4 -4 -11 -13 -8
-15 -14 -7 -30 6 -11 8 -23 5 -28 -3 -5 0 -11 5 -13 6 -2 12 -20 13 -40 1 -20
5 -34 10 -31 4 2 7 -1 7 -6 0 -6 -6 -11 -12 -11 -9 0 -8 -4 2 -10 12 -7 12
-13 4 -27 -6 -10 -10 -26 -8 -35 1 -10 -1 -18 -6 -18 -4 0 -6 -12 -4 -26 1
-15 -3 -28 -12 -31 -8 -3 -12 -9 -9 -13 8 -13 -6 -40 -18 -33 -6 4 -8 0 -4
-10 4 -11 1 -17 -9 -17 -8 0 -13 -4 -9 -9 3 -5 1 -12 -4 -16 -6 -3 -8 -12 -4
-20 3 -8 0 -15 -6 -15 -6 0 -8 -7 -5 -15 4 -9 0 -15 -7 -15 -11 0 -11 -3 1
-10 8 -5 10 -10 4 -10 -5 0 -19 -7 -30 -16 -10 -8 -12 -12 -4 -8 13 7 13 6 1
-10 -11 -13 -16 -14 -22 -4 -7 11 -9 11 -9 0 0 -7 -4 -10 -10 -7 -5 3 -10 1
-10 -5 0 -6 -11 -15 -25 -22 -13 -6 -22 -15 -19 -19 3 -5 -2 -9 -11 -9 -9 0
-14 -3 -12 -7 6 -9 -19 -34 -26 -27 -8 8 -47 -47 -41 -57 3 -5 0 -9 -6 -9 -6
0 -9 -4 -5 -9 3 -6 0 -13 -7 -18 -15 -10 -17 -35 -3 -45 6 -5 5 -8 -3 -8 -7 0
-11 -4 -7 -9 3 -5 -2 -17 -11 -25 -9 -9 -11 -16 -4 -16 6 0 8 -5 5 -10 -4 -6
-10 -8 -15 -5 -4 3 -6 -4 -3 -15 3 -12 0 -20 -6 -20 -7 0 -9 -4 -6 -10 3 -5 1
-10 -4 -10 -6 0 -10 -3 -9 -7 5 -16 -25 -72 -35 -66 -6 3 -7 1 -3 -5 4 -7 2
-20 -3 -29 -6 -10 -11 -13 -11 -8 0 6 -7 -5 -15 -23 -10 -23 -19 -31 -27 -26
-8 5 -7 0 2 -11 9 -11 10 -16 3 -11 -9 5 -13 -1 -13 -19 0 -15 -4 -24 -10 -20
-5 3 -7 0 -4 -8 3 -8 -1 -17 -9 -20 -10 -4 -13 -14 -9 -33 3 -19 1 -25 -7 -20
-6 4 -12 2 -12 -3 -1 -6 -3 -15 -4 -21 -1 -5 -3 -14 -4 -20 0 -5 -9 -10 -18
-11 -10 0 -13 -3 -6 -5 8 -4 8 -12 -2 -31 -8 -15 -12 -30 -9 -35 3 -4 0 -8 -6
-8 -6 0 -8 -4 -5 -10 3 -5 1 -10 -5 -10 -6 0 -8 -4 -5 -10 3 -5 0 -10 -7 -10
-11 0 -11 -2 0 -9 11 -6 10 -12 -4 -26 -25 -24 -45 -65 -38 -76 3 -5 0 -9 -7
-9 -8 0 -7 -5 2 -17 10 -11 10 -14 2 -9 -8 4 -13 2 -13 -4 0 -6 -4 -8 -10 -5
-5 3 -10 2 -10 -4 0 -5 6 -12 13 -14 9 -4 9 -6 0 -6 -7 -1 -17 -11 -24 -22 -6
-12 -7 -19 -2 -16 5 4 10 0 10 -7 0 -8 -6 -12 -13 -9 -9 3 -11 -2 -7 -16 3
-12 1 -21 -6 -21 -6 0 -11 -4 -11 -9 0 -5 -8 -26 -17 -47 -9 -22 -17 -41 -18
-44 0 -3 -4 -11 -8 -17 -5 -7 -5 -17 -2 -23 3 -5 1 -10 -5 -10 -7 0 -10 -7 -7
-14 4 -10 1 -13 -7 -10 -9 4 -13 -3 -11 -20 2 -14 -1 -26 -7 -26 -6 0 -8 -9
-5 -21 5 -17 3 -18 -9 -8 -13 10 -14 8 -10 -14 3 -20 1 -25 -11 -20 -11 4 -14
2 -9 -5 4 -7 2 -12 -4 -12 -6 0 -8 -4 -5 -10 3 -5 -2 -10 -11 -10 -10 0 -14
-3 -11 -6 4 -4 -3 -15 -15 -25 -14 -13 -17 -19 -7 -19 10 -1 9 -3 -3 -10 -21
-13 -50 -69 -41 -83 3 -5 2 -8 -3 -4 -5 3 -16 0 -25 -6 -16 -12 -19 -18 -19
-39 0 -6 -3 -8 -7 -5 -3 4 -16 -7 -28 -23 -12 -16 -24 -29 -26 -27 -2 1 -3 0
-2 -2 1 -2 -7 -17 -18 -32 -11 -16 -17 -29 -12 -29 4 0 0 -5 -10 -11 -9 -6
-15 -14 -12 -20 4 -5 2 -9 -3 -9 -5 0 -9 -6 -9 -12 -1 -23 -8 -43 -18 -50 -6
-5 -5 -8 4 -8 11 0 11 -4 -1 -23 -8 -12 -14 -32 -13 -45 1 -12 -2 -22 -7 -22
-5 0 -7 -4 -3 -9 3 -5 0 -13 -6 -16 -5 -4 -8 -13 -5 -21 3 -8 1 -14 -4 -14
-10 0 -6 -31 8 -56 11 -19 22 -20 33 -2 7 11 9 11 9 -1 0 -10 3 -11 14 -2 10
9 16 9 21 1 5 -8 11 -8 21 1 8 6 14 7 14 2 0 -5 10 -9 22 -10 11 -1 25 -8 30
-15 6 -8 7 -4 3 12 -6 22 -4 21 19 -9 14 -19 26 -30 26 -25 0 6 7 11 15 11 8
0 12 -4 9 -9 -7 -10 -1 -10 30 2 16 6 26 17 26 30 0 11 3 19 8 19 22 -4 31 3
25 19 -7 18 -5 17 17 -12 8 -11 10 -17 3 -13 -6 4 -14 3 -17 -2 -4 -5 2 -8 11
-7 11 2 18 12 18 26 0 17 6 24 22 25 14 1 19 -3 16 -12 -3 -7 -9 -10 -14 -7
-5 3 -9 0 -9 -5 0 -15 11 -14 30 4 15 14 19 14 31 -2 13 -16 12 -17 -3 -4 -16
12 -18 11 -18 -2 0 -13 18 -16 40 -6 19 8 67 1 78 -11 10 -13 11 -13 6 3 -3 9
-1 17 5 17 6 0 11 -6 11 -12 0 -8 3 -9 8 -3 11 16 46 19 36 3 -4 -7 2 -5 13 5
13 11 23 14 27 8 4 -6 14 -7 22 -4 11 4 12 8 4 13 -9 5 -9 9 -1 14 12 8 14 -4
11 -42 -1 -13 4 -29 10 -37 6 -8 9 -19 5 -25 -3 -5 -1 -10 5 -10 6 0 8 -5 5
-10 -3 -6 -1 -10 6 -10 10 0 10 -3 2 -11 -8 -8 -9 -17 -1 -33 27 -51 29 -58
20 -52 -5 3 -9 -1 -9 -9 0 -8 4 -12 9 -9 4 3 8 0 8 -5 0 -6 5 -11 11 -11 5 0
8 4 5 9 -3 4 6 6 19 3 14 -2 25 -8 25 -13 0 -5 5 -9 11 -9 5 0 7 5 4 10 -3 6
2 10 12 10 14 0 15 2 4 9 -9 6 -10 11 -2 15 6 4 8 13 4 19 -4 7 -8 14 -9 17
-1 7 -24 61 -35 82 -5 11 -5 20 2 24 7 4 4 13 -6 24 -9 10 -14 24 -10 29 3 6
1 11 -5 11 -6 0 -8 4 -5 10 3 5 -3 26 -13 47 -10 21 -18 45 -17 53 1 8 -4 25
-12 38 -7 12 -10 22 -6 22 5 0 9 28 9 62 2 92 13 150 32 166 9 7 12 11 5 8
-21 -11 -22 10 -2 43 11 18 16 30 11 27 -4 -2 -9 4 -9 15 -2 24 6 24 24 2 13
-17 13 -17 5 2 -12 29 -10 42 13 60 15 13 16 15 3 11 -15 -4 -15 -3 0 27 9 18
20 34 25 35 4 2 7 14 7 26 0 13 11 40 25 60 14 21 20 34 13 31 -7 -4 -4 1 6 9
11 9 16 16 11 16 -5 0 0 7 11 16 10 8 14 13 8 10 -7 -3 -5 9 4 29 9 19 20 35
24 35 4 0 8 7 8 15 0 8 4 15 9 15 5 0 12 11 15 25 4 14 10 25 15 25 5 0 8 11
6 25 -1 14 1 25 5 25 4 0 14 20 21 44 7 25 17 42 21 40 4 -3 9 0 9 5 3 21 5
27 28 73 13 26 29 44 34 41 6 -3 7 -1 3 5 -8 14 28 74 39 64 5 -4 5 -1 1 6 -5
8 0 22 11 34 10 11 17 23 16 27 -2 3 1 6 6 6 5 0 13 4 18 9 5 5 3 6 -4 2 -16
-9 -18 20 -3 29 6 4 7 11 4 17 -4 7 -2 8 4 4 7 -4 12 -1 12 8 0 8 13 25 29 39
17 14 27 28 24 31 -4 3 -1 6 6 6 7 0 10 4 7 9 -4 5 -3 11 2 13 13 5 66 79 69
96 1 9 7 18 13 20 5 2 8 8 5 12 -7 12 36 61 47 54 5 -3 7 -2 6 3 -4 14 33 62
54 69 11 3 17 8 14 11 -2 3 11 18 30 35 19 17 34 36 34 42 0 7 9 21 20 31 11
10 17 22 13 28 -3 5 -1 7 4 4 6 -4 14 0 17 9 3 8 10 12 16 9 6 -4 7 1 3 11 -5
13 -3 15 7 9 9 -5 11 -4 6 3 -10 17 32 94 47 85 8 -5 8 -2 -1 9 -17 22 3 34
26 16 15 -11 15 -11 5 3 -7 9 -10 19 -6 22 3 4 0 7 -7 7 -11 0 -11 3 -2 12 8
8 15 8 29 -3 11 -9 9 -2 -7 21 -15 22 -18 30 -7 21 15 -12 17 -11 17 3 0 10 5
14 11 10 7 -4 10 -1 7 7 -3 8 1 20 9 27 7 8 11 18 8 23 -4 5 -1 9 6 9 7 0 9 3
6 6 -7 7 33 87 46 92 4 2 5 8 1 13 -3 5 0 9 7 9 7 0 9 3 6 7 -4 3 3 18 15 31
13 14 17 22 11 18 -20 -11 -15 -1 16 35 21 24 26 36 18 41 -12 8 -1 12 18 8 5
-1 7 2 3 5 -4 4 0 21 8 37 8 16 12 33 8 39 -3 6 3 13 15 16 11 3 28 22 37 44
10 21 21 36 25 33 4 -2 6 5 4 16 -2 11 1 20 7 20 6 0 8 3 5 6 -3 4 -1 16 5 28
7 11 11 24 10 29 -1 4 3 7 10 7 6 0 9 3 5 6 -3 4 0 19 9 35 8 16 14 31 14 34
-1 26 2 36 16 49 8 9 13 16 10 16 -3 0 4 18 15 40 11 21 22 57 24 79 2 22 5
44 8 48 3 5 8 29 11 54 3 24 8 55 11 69 3 14 8 41 12 60 4 19 6 38 5 43 -1 4
2 7 7 7 5 0 8 12 5 26 -3 14 -1 23 4 21 9 -6 10 42 1 58 -3 6 -5 26 -5 47 1
20 -2 34 -6 31 -5 -2 -8 3 -8 11 0 26 -1 30 -12 44 -8 8 -7 12 3 12 9 0 10 3
4 8 -6 4 -9 18 -8 32 8 70 8 100 0 100 -5 0 -3 7 4 17 11 13 11 17 1 21 -9 3
-10 7 -2 17 8 9 8 15 0 20 -7 4 -7 12 0 26 7 12 7 19 1 19 -7 0 -7 9 -1 25 6
16 6 26 -1 31 -6 3 -6 11 -1 17 5 7 8 29 8 50 -1 20 3 37 9 37 5 0 5 4 -1 10
-12 12 -5 102 7 94 5 -3 6 3 2 12 -6 16 -8 77 -3 89 2 3 3 8 4 13 1 4 5 13 10
21 7 10 5 12 -5 6 -12 -7 -12 -6 0 6 10 11 15 11 18 1 3 -6 9 -10 14 -7 5 4 6
-1 3 -9 -3 -9 -1 -16 6 -16 6 0 9 -3 7 -7 -3 -5 5 -17 16 -28 11 -11 17 -14
13 -7 -4 6 -3 12 2 12 5 0 9 7 9 15 0 8 -4 15 -9 15 -4 0 -8 5 -8 11 0 5 6 7
13 3 9 -5 9 -4 0 6 -6 7 -9 19 -6 28 5 11 3 13 -8 7 -12 -7 -12 -6 -1 7 10 13
10 17 -3 22 -9 3 -14 10 -11 15 3 5 -1 14 -10 21 -8 7 -13 19 -10 27 3 7 2 13
-2 13 -4 0 -8 16 -10 36 -1 19 -9 42 -17 51 -8 8 -13 19 -10 24 4 5 2 9 -3 9
-6 0 -8 9 -5 20 3 11 1 20 -5 20 -6 0 -8 9 -5 20 3 12 0 20 -8 20 -7 0 -10 3
-6 6 6 6 -1 16 -47 67 -15 18 -35 49 -44 70 -9 20 -20 37 -25 37 -4 0 -5 5 -2
10 3 6 1 10 -5 10 -6 0 -9 4 -6 9 4 5 3 11 -1 13 -14 6 -53 85 -45 92 4 4 3 6
-3 4 -5 -2 -11 1 -12 6 0 5 -8 13 -17 18 -9 5 -16 13 -16 18 0 11 -73 119
-101 149 -11 11 -16 21 -12 21 4 0 0 5 -9 11 -10 5 -18 17 -18 25 0 9 -5 12
-12 8 -8 -5 -9 -2 -5 9 3 9 3 16 -1 16 -22 -4 -33 3 -28 16 3 8 2 15 -2 15 -4
0 -28 19 -52 43 -25 23 -58 49 -73 57 -16 8 -33 22 -38 32 -5 10 -16 18 -24
18 -8 0 -15 4 -15 8 0 9 -47 35 -65 36 -5 1 -20 7 -33 14 -25 14 -56 23 -84
25 -10 1 -18 4 -18 8 0 12 -59 16 -64 5 -2 -6 -5 -2 -5 9 -1 17 -3 17 -11 5
-7 -11 -10 -11 -10 -2 0 7 -4 11 -9 7 -5 -3 -13 0 -17 6 -4 8 -9 7 -15 -2 -7
-11 -9 -11 -9 -1 0 7 -5 10 -10 7 -6 -4 -16 -2 -23 3 -8 7 -18 6 -31 -3z"/>
</g>
</svg>
