<?xml version="1.0" encoding="UTF-8" standalone="no"?>
<svg
   version="1.0"
   width="1024.000000pt"
   height="1024.000000pt"
   viewBox="0 0 1024.000000 1024.000000"
   preserveAspectRatio="xMidYMid meet"
   id="svg12"
   sodipodi:docname="レ.svg"
   xmlns:inkscape="http://www.inkscape.org/namespaces/inkscape"
   xmlns:sodipodi="http://sodipodi.sourceforge.net/DTD/sodipodi-0.dtd"
   xmlns="http://www.w3.org/2000/svg"
   xmlns:svg="http://www.w3.org/2000/svg">
  <defs
     id="defs16" />
  <sodipodi:namedview
     id="namedview14"
     pagecolor="#ffffff"
     bordercolor="#666666"
     borderopacity="1.0"
     inkscape:pageshadow="2"
     inkscape:pageopacity="0.0"
     inkscape:pagecheckerboard="0"
     inkscape:document-units="pt" />
  <metadata
     id="metadata2">
Created by potrace 1.16, written by Peter Selinger 2001-2019
</metadata>
  <g
     transform="translate(0.000000,1024.000000) scale(0.100000,-0.100000)"
     fill="#000000"
     stroke="none"
     id="g10">
    <path
       d="m 923,9847 c -181.29681,-42.8251 11.17003,-33.8456 -149,-46 39.71706,-36.2799 -25.80499,-256.6567 -24,-180 7.67681,-106.2391 -231.56612,-213.8821 -164,-189.5 -101.06711,-64.0547 186.43576,-156.92 119,-166.5 71.6138,-37.6423 299.1373,-49.3099 229,-38 87.2858,-4.2335 209.5538,46.5183 142,-1 157.2882,-43.1802 -126.96653,-105.6723 180,-98 142.0247,-77.784 50.4558,-63.4987 199,-178 0.9098,57.1103 133.6427,-62.814 103,-62 -16.7012,-41.2117 61.0082,-155.4333 115.25,-115.625 117.5328,-58.778 227.9344,-135.7377 166.75,-118.375 34.2685,-15.0321 166.9931,-110.6583 121,-78 35.2719,-13.8336 118.2913,-157.1691 120,-90 6.3154,-59.9794 140.3501,-236.244 118.25,-166 6.6775,-12.8265 114.1216,-67.9762 93.75,-105 52.956,-99.5778 178.5998,-224.3561 116.375,-173.25 -5.9865,-16.3921 72.8169,-189.8441 55.625,-171.75 22.0522,-49.7401 99.1927,-290.0861 75,-220 7.1054,-52.9958 22.5956,-302.7248 32,-240 -53.8889,-60.0451 49.399,-313.7199 52.625,-217.5 36.535,-72.63 127.6619,-342.6718 133.375,-254.5 29.2251,-17.8191 105.4429,-151.6492 141,-77 40.5643,-111.6377 173.8403,-205.1246 107,-143 8.5447,-88.0516 161.107,-120.4562 124,-103 24.6027,-26.3044 134.3746,-175.9162 97,-149 -33.5896,-35.8924 7.7306,-437.4205 40,-307.875 41.061,19.3903 37.0653,-188.4886 12,-147.125 43.4773,-115.1914 48.8693,-406.1421 61.2344,-296.2812 -3.0247,-40.0575 21.4986,-251.1942 17.7656,-204.7188 54.6703,-103.6237 18.8831,-402.1554 19,-257 -8.8372,-123.1262 -110.6151,-506.0781 -59.625,-303.75 18.8621,-82.9611 -78.5859,-324.4932 -33.375,-239.25 15.6847,-21.6831 -51.0574,-198.7183 -28,-156 7.9994,-78.7291 30.6414,-222.4233 8,-167 -82.3847,-89.1441 -9.6113,-346.4581 -50,-252 8.8913,-79.6437 -69.1171,-198.9855 -29.125,-137.5 -30.4389,-125.3556 12.3815,-284.1592 -6.75,-229.75 -38.6789,-145.0019 -52.2853,-223.3426 -42.5,-174.875 55.0579,-26.1809 -63.7905,-158.3717 -23.5,-154.75 -2.449,-41.6811 -57.942,-115.5951 -21.125,-112.125 -8.0864,-175.5331 37.1796,92.7275 -41,-186 1.0603,-95.1904 -63.5238,-284.513 -50,-220 -9.5964,-36.5959 -10.2063,-266.9693 -22,-189 -35.0026,-146.506 -140.6478,-384.834 -76.5,-249.875 58.5888,-17.1608 -62.7158,-209.8176 -16.875,-176.75 C 2853.6842,2197.3545 2851.022,2057.9885 2842,2077 c -36.1968,-95.1891 -113.4701,-254.6335 -71.5,-183.125 129.2078,72.1448 -239.6165,-359.8892 -59.5,-184.625 13.3702,-96.5683 -125.9797,-201.1985 -57.625,-235.375 -10.1007,-72.9147 18.6285,-235.3353 17.625,-163.875 -29.2262,-235.2373 100.2546,-326.63105 75,-286 91.4268,-66.47612 79.9327,-135.41599 93,-4 22.3219,-109.86342 29.8461,-347.21887 41,-290 -20.9065,-20.45136 74.6319,-76.47989 70.875,-111 90.9386,-52.48676 215.3812,-83.72476 124.125,-64 124.0836,69.51852 96.6595,31.64253 152,80 -30.4623,3.49326 1.3861,154.09115 0,133 56.8541,57.33882 40.2708,209.8095 24,147 815.6092,-62.64907 -942.0396,183.4341 110,110 -1.0074,53.8175 101.0965,173.5667 83.5,69.75 -67.7073,-9.6857 -32.5825,118.0188 -41.5,112.25 -77.0857,-8.5538 -106.9192,169.5336 -43,98 2.1852,18.5809 24.1673,241.7863 38,74 47.7962,202.0622 41.8994,336.8809 3,140 -24.7437,76.2329 -114.0262,204.408 -27,120 62.1887,60.7333 122.5372,172.1007 46,102 5.7252,109.6277 108.5317,368.281 19,214 -95.4271,-17.5412 -90.6698,77.6927 -26,67 67.4947,72.5552 107.5213,236.3159 43,192 -23.6083,-43.6594 9.6177,151.5994 39,176 18.4927,41.6485 88.0077,132.9978 28.375,121.5 -37.47,73.878 2.2789,275.0453 45.625,208.5 58.2928,53.3883 -1.2421,75.7121 45,109 -14.2332,59.9179 86.1166,98.3869 42,89 5.2142,43.8149 57.2697,116.3991 65,163.125 31.0513,107.2528 116.398,335.3239 74,201.875 11.4856,-2.1395 71.6395,162.8166 69.9969,121.9961 -95.338,-37.3509 -26.4663,77.7693 33.0031,99.0039 -34.0745,74.1556 45.2156,234.831 71,176 54.0744,175.9582 95.1471,220.9316 73.875,102.25 -61.7802,38.8 -99.7452,54.4863 -18.875,85.75 63.2363,19.6109 123.3854,82.226 69.375,100.25 -69.365,16.0979 -13.5468,154.6889 27.625,124.75 7.7748,57.7661 86.0215,72.0965 9,92 5.6326,144.5822 57.2901,270.0344 27,218 -72.2685,-25.8666 -110.6568,218.2817 -3,219 65.0605,59.7768 21.432,251.9917 32,164 62.6122,82.576 97.3657,238.5045 49,163 35.5185,88.1078 63.1962,223.4242 24.5,158.5 -3.9481,-29.6393 50.4921,129.5197 33.125,98 -1.759,47.4556 82.0322,224.9844 30.375,144.5 7.816,101.219 35.6681,222.7367 -19,134 -55.9342,125.4232 168.2843,-187.8729 -29,66 106.3875,-21.1846 20.1855,117.3929 50,120 29.9352,-8.5413 71.6906,140.5287 36,113 56.7687,178.2466 134.8434,220.812 16.875,205.125 -108.2293,26.8329 -114.0839,169.1965 -50.875,130.875 91.276,26.8551 -50.2835,70.9973 -14,94 -16.3729,-10.9233 -133.7396,173.1322 -36,168 46.8194,42.2086 84.726,244.9112 29.375,115.75 -75.095,-139.5539 -95.4447,347.8263 -36.375,112.25 -46.1295,-118.7697 13.0224,65.6679 -9,35 -30.3069,65.7985 -139.8436,251.9928 -117,196 11.3791,10.9208 -92.7303,156.2493 -98,166 -28.5796,96.3374 -223.6624,226.0321 -151,143 99.8817,29.0439 10.5188,166.7405 -47,97 -45.097,55.2895 -174.097,143.8009 -211.375,109.5 28.2429,94.6099 -45.0579,194.163 -78.625,154.5 -37.6535,42.471 -103.1693,164.4836 -65,123 31.6655,50.0215 -93.6598,297.5558 -73.25,195.375 -54.4919,9.1979 -116.3118,147.6862 -129.75,121.625 14.9147,106.3214 -36.9077,264.3573 -36.5,154.125 -108.4669,40.276 -185.7768,339.3896 -83.5,244.875 35.7645,53.0763 -33.057,214.3959 -42.375,138.125 -24.2481,6.1453 -212.0954,431.8078 -75.625,211.875 -67.4685,79.9323 -69.5408,151.8136 -72,141 -41.3996,104.0581 -133.5487,229.686 -93,166 -34.4188,111.1721 -250.5151,357.0112 -147,256 -41.909,67.1201 -155.4739,196.8831 -154,168 -27.4011,-7.1864 -261.0418,134.305 -162.875,114.25 -66.5457,82.3739 -194.6039,121.1845 -178.125,105.75 -34.7451,18.8381 -339.1592,139.6954 -234,94 -30.4817,-38.0743 -355.2704,48.8804 -257,54 -190.3418,-8.5776 -155.8776,166.5765 -209,0 -38.4906,-1.7132 -249.3279,22.4101 -171,24 -13.3908,46.888 -209.0063,66.6984 -150.125,25 -46.717,-24.7091 -256.85426,-15.1015 -212,-16.5 -0.1888,3.452 -56.06431,13.0999 -88.875,16.5 z"
       id="path4" />
    <path
       d="m 8540,5948 c -63.7471,-45.9161 -128.9836,-89.3343 -121,-83 -38.1625,-46.762 -129.5914,-161.1848 -143,-153 -76.4362,-18.6551 -159.6881,-296.8263 -111,-219.875 -47.1923,-61.0892 7.682,-149.8929 68,-195.125 69.1632,10.8008 132.471,-7.135 111,-39 -19.0665,-79.9268 104.0695,-259.198 136,-123 25.9772,-47.7892 83.1681,-288.5691 25,-194 3.6185,-112.1168 87.9437,-378.0356 75,-226 44.9652,-382.3995 42.1011,143.337 35,-246 21.6008,-6.6155 -52.1867,-217.4216 -21,-178 1.6799,-111.6049 -146.718,-283.9227 -123.75,-239.25 -38.3619,-149.6249 -104.0702,-277.8578 -84.25,-216.75 193.6758,45.7759 -870.6831,-656.9648 -99,-126 -65.9515,-69.2134 -260.248,-207.3733 -187,-153 -12.3017,-3.9867 -257.2186,-267.0936 -161,-188 -38.1808,0.3357 -346.1577,-178.7343 -253,-130 -142.289,-74.6588 -261.9459,-192.8644 -179,-113 -25.249,25.9585 -231.625,-122.2756 -144,-82 -106.565,-49.9697 -349.4762,-119.3186 -226,-86 -39.8926,-51.6786 -62.9775,-40.9447 -95,-41 -230.3658,-118.1082 -409.7183,-157.2223 -328,-138 -108.0725,-17.8651 -254.3627,-35.1233 -213,-28 -205.4851,-168.2773 215.7833,540.7384 -187.625,-96.875 -7.0779,33.7572 -238.2191,-36.3589 -132.375,-31.125 -66.4539,-16.3445 -217.8906,-60.7687 -182.5,-52.125 C 5914.0859,2464.8758 5804.4185,2386.8237 5820,2450 c -92.6624,6.9649 -295.0804,-57.9619 -207,-57 -124.1915,-45.6321 -306.5402,-110.5525 -230,-86 -45.7107,-13.0368 -270.8558,-183.4477 -234,-110 43.2431,74.5518 -647.0847,-249.9256 -162.875,-41.875 -60.3873,3.111 -227.4415,-28.2033 -152.125,-36.125 -27.0042,-46.1784 -456.4128,-110.5777 -368.5,-103.625 -56.6292,-34.3482 -237.398,34.6066 -188.625,13.5 -62.6594,14.301 -245.1279,-181.3204 -216.875,-90.875 180.4633,-47.8787 -395.3074,-244.0247 -22,-128 -97.7072,25.5105 79.5093,-123.2414 -50.875,-162.25 32.6706,-23.6866 171.8327,13.7487 121.5,-14.5 48.6609,35.5639 203.262,71.3976 96.375,-6.25 -33.5738,-155.0743 249.8662,-237.8138 155,-214 -12.7157,53.981 171.9079,107.6346 177.1406,44.1094 126.4524,7.4785 287.5223,50.8717 158.8594,56.8906 -24.459,-4.5803 43.3786,91.4306 125,48 -107.7237,1.9678 8.256,21.6534 90.875,28 -80.121,22.3572 88.7061,29.7015 102.5,24.625 -86.1106,-14.0131 -35.4661,-39.4228 76.75,25.625 21.0502,-20.27 79.5754,97.2344 121.875,49.75 155.4677,-42.2255 -1.1547,53.818 103,11 2.8662,-77.1162 177.7541,63.7909 -2,7 38.6434,19.3973 577.8774,72.6039 226.75,39.125 8.7365,7.8719 213.3593,-2.7645 76.25,29.875 95.9337,82.9732 339.809,165.6486 252,116 -16.3823,-27.2175 127.6172,99.7526 89,21 38.0046,-31.5599 156.6083,95.0996 119,55.375 112.3158,32.9015 33.5511,-48.1057 107,12.625 299.2539,134.2014 -25.1883,-48.8999 47,-27 10.7813,-36.501 109.5365,-112.4879 141,-2.125 70.4502,53.6533 137.7499,-18.3117 87,62.125 104.6282,38.6498 114.037,44.9259 133.125,73.25 127.4557,-8.4711 111.203,-41.6871 63.875,-47.25 180.9319,167.7539 2.5871,-42.3883 92.25,67.25 19.5982,-77.1728 92.7649,-124.7918 101.75,-20.25 54.5801,24.7462 137.9295,-7.6806 76.75,30.25 12.0768,64.0138 265.6964,176.3741 154.25,81.75 -216.2527,-81.5852 143.8767,60.0866 54,-10 40.7072,82.8293 197.3463,-32.0219 111,-17 -37.35,129.595 9.6827,174.5064 27.125,83.125 163.4234,4.7619 109.3084,-112.5685 39.375,12.75 102.79,30.8807 118.0732,96.2355 127.5,23.125 61.6245,12.258 300.8543,123.1827 183.25,57.375 84.8729,-96.6761 188.6274,-35.8365 112.75,15.625 29.4309,-32.1757 132.1349,39.7977 152,70 19.6595,-14.3238 52.467,-46.0118 117,48 85.4869,50.4525 213.7609,158.2322 143,122 -66.6903,23.067 78.6503,86.7515 140,105 33.124,80.6359 194.2147,128.2766 142,105 -81.3187,14.2974 66.3494,47.1858 58.5,60.625 144.3267,90.4687 141.988,249.9184 136.5,177.375 101.6642,7.9579 -14.1425,-91.6034 105,97 55.7883,15.9728 181.1227,91.5585 114,69 16.3311,42.4613 115.3502,130.67 17.375,68.5 5.6786,47.3283 54.5032,151.9172 43.625,82.5 4.1344,12.2142 -50.6561,73.239 33,46 105.1109,34.6871 268.0758,175.1419 137,106 78.0286,55.1697 136.9973,97.638 69,105 47.0016,72.3104 -71.9518,-62.645 -5,52 56.598,115.8645 184.2182,323.0474 108.875,218.5 -128.2919,-126.7179 -50.2255,14.087 -16.875,78.5 14.0903,33.1205 49.1513,388.9151 44,215 22.6034,133.1855 -6.8988,309.668 5,198 90.7767,36.5097 59.7355,330.6724 39,261 -24.3608,-14.832 -94.9206,92.8883 -29.125,121.875 -25.4515,29.0403 -118.6349,275.3861 -59.875,166.125 56.6185,-146.5246 -52.3207,98.5685 -28,114 -22.5021,-24.4609 34.5975,17.2995 -50.25,67.625 26.9448,24.7713 11.4754,138.2002 -66.75,160.375 -18.6762,-2.8697 -11.3488,171.6204 -67,73 -40.2744,50.538 -189.0132,162.9902 -73,127 98.8559,21.978 -138.1151,216.8632 -47,144 37.2096,4.4867 -140.9672,179.231 -108,144 -37.205,24.6968 -152.4534,86.6731 -98.875,68.875 4.7843,36.1353 -162.9589,130.0735 -123.125,105.125 -13.2191,-20.9732 -18.0091,1.7381 -28,6 z"
       id="path6" />
    <path
       d="m 7578,2309 c -25.9989,-47.0035 -128.1881,-181.4032 -83.875,-114 55.8839,86.8513 -48.9536,151.7754 -10.125,37 -97.1514,-45.6962 48.0281,-68.7564 87,-112.125 32.6366,54.5873 37.1076,246.0236 22,144.125 -27.9011,81.5457 126.6423,36.8261 -15,45 z"
       id="path8" />
  </g>
</svg>
