<?xml version="1.0" standalone="no"?>
<!DOCTYPE svg PUBLIC "-//W3C//DTD SVG 20010904//EN"
 "http://www.w3.org/TR/2001/REC-SVG-20010904/DTD/svg10.dtd">
<svg version="1.0" xmlns="http://www.w3.org/2000/svg"
 width="1024.000000pt" height="1024.000000pt" viewBox="0 0 1024.000000 1024.000000"
 preserveAspectRatio="xMidYMid meet">
<metadata>
Created by potrace 1.16, written by Peter Selinger 2001-2019
</metadata>
<g transform="translate(0.000000,1024.000000) scale(0.100000,-0.100000)"
fill="#000000" stroke="none">
<path d="M8000 9268 c-5 -13 -9 -17 -9 -10 -1 7 -9 4 -21 -8 -12 -12 -26 -18
-32 -14 -7 4 -8 3 -4 -4 4 -7 1 -12 -8 -12 -9 0 -15 -3 -13 -7 3 -11 -40 -52
-48 -45 -3 3 -8 -4 -12 -16 -3 -12 -9 -20 -13 -17 -4 2 -16 -4 -27 -15 -12
-10 -24 -16 -27 -13 -3 4 -6 -1 -6 -9 0 -9 -11 -23 -24 -31 -13 -9 -31 -23
-40 -32 -9 -9 -16 -13 -16 -9 0 4 -9 -3 -19 -15 -11 -12 -21 -21 -23 -20 -8 5
-48 -13 -48 -23 0 -5 -6 -8 -12 -5 -7 2 -27 -4 -44 -14 -24 -13 -34 -15 -43
-6 -9 9 -10 8 -5 -7 5 -12 4 -17 -2 -13 -6 3 -35 -7 -65 -24 -29 -16 -62 -32
-72 -35 -13 -5 -15 -10 -7 -19 8 -9 8 -15 0 -20 -5 -3 -10 -1 -10 4 0 6 -7 11
-15 11 -8 0 -15 -4 -15 -10 0 -5 -9 -10 -20 -10 -11 0 -20 -5 -20 -11 0 -5 -4
-8 -8 -5 -5 3 -24 -11 -43 -30 -25 -26 -29 -34 -14 -29 16 6 16 3 -5 -14 -17
-14 -20 -21 -10 -21 9 0 7 -5 -8 -16 -21 -15 -22 -17 -7 -28 15 -11 13 -12
-15 -10 -17 1 -29 0 -26 -4 3 -3 0 -12 -7 -20 -10 -13 -9 -15 3 -8 8 4 6 0 -5
-9 -11 -9 -19 -21 -18 -26 2 -5 -6 -9 -17 -9 -11 0 -19 -6 -17 -12 1 -7 -4
-12 -10 -11 -12 3 -18 -17 -14 -40 1 -5 -3 -6 -9 -2 -6 3 -7 12 -3 18 4 7 -13
-4 -37 -23 -24 -19 -40 -28 -36 -20 5 8 -1 5 -13 -7 -12 -13 -26 -23 -32 -23
-6 0 -8 -4 -5 -8 2 -4 -5 -9 -16 -9 -12 -1 -26 -7 -32 -14 -8 -9 -7 -10 3 -4
9 5 12 4 7 -3 -4 -6 -13 -9 -21 -5 -8 3 -15 0 -15 -7 0 -6 -4 -9 -9 -5 -5 3
-17 -2 -25 -11 -9 -8 -16 -12 -16 -8 0 3 -7 0 -17 -7 -9 -8 -19 -14 -22 -14
-3 0 -5 -4 -3 -10 2 -5 0 -7 -4 -3 -4 4 -14 2 -22 -5 -13 -10 -14 -9 -8 1 7
11 4 11 -12 1 -12 -7 -19 -17 -16 -21 3 -4 -2 -5 -10 -2 -9 3 -16 1 -16 -5 0
-7 -10 -10 -24 -7 -19 3 -23 1 -19 -11 5 -12 1 -14 -15 -8 -13 4 -22 2 -22 -4
0 -6 -3 -10 -7 -10 -19 4 -72 -14 -67 -22 3 -5 -2 -6 -10 -3 -10 4 -16 1 -16
-7 0 -7 -3 -9 -7 -6 -3 4 -17 0 -31 -9 -18 -12 -23 -12 -17 -3 3 8 0 6 -8 -3
-8 -10 -17 -15 -20 -11 -4 3 -7 1 -7 -6 0 -8 -8 -11 -20 -8 -11 3 -22 1 -25
-3 -3 -4 -15 -6 -28 -3 -18 4 -19 3 -7 -7 12 -10 11 -11 -7 -7 -13 3 -26 1
-29 -4 -3 -5 -9 -7 -14 -4 -5 3 -16 -2 -24 -11 -9 -9 -16 -11 -16 -4 0 6 -5 8
-12 4 -15 -9 -33 -13 -103 -19 -27 -2 -68 -9 -89 -14 -22 -5 -44 -8 -48 -5 -4
3 -8 1 -8 -4 0 -13 -33 -10 -42 3 -5 7 -8 6 -8 0 0 -14 -32 -17 -177 -19 -68
0 -123 -3 -123 -6 0 -3 -31 -5 -70 -4 -38 1 -70 -2 -70 -7 0 -5 -5 -9 -11 -9
-5 0 -7 5 -4 10 3 6 1 10 -4 10 -6 0 -11 -4 -11 -8 0 -5 -25 -9 -55 -9 -30 -1
-56 -2 -57 -3 -22 -14 -243 -28 -255 -17 -3 4 -14 2 -24 -3 -12 -7 -19 -6 -22
3 -4 9 -6 9 -6 0 -1 -9 -8 -10 -27 -3 -33 13 -37 13 -28 -2 5 -10 4 -10 -6 -1
-9 8 -19 9 -31 3 -11 -7 -20 -7 -24 0 -9 15 -27 12 -19 -2 5 -10 4 -10 -6 -1
-9 8 -19 9 -31 3 -11 -7 -20 -7 -24 0 -3 5 -11 10 -16 10 -6 0 -7 -5 -3 -11 4
-7 -1 -7 -16 1 -12 6 -28 9 -36 6 -8 -3 -12 -1 -9 4 4 6 -6 8 -24 6 -17 -2
-31 -1 -31 3 0 3 -25 6 -55 5 -30 0 -55 3 -55 7 0 5 -7 6 -15 3 -8 -4 -21 -2
-28 4 -15 12 -77 21 -77 11 0 -4 -17 -6 -37 -4 -21 2 -42 -2 -46 -8 -6 -8 -7
-5 -3 7 5 13 2 17 -9 12 -8 -3 -15 -1 -15 4 0 6 -5 10 -11 10 -5 0 -7 -4 -4
-10 5 -9 -8 -14 -19 -7 -2 1 -12 -5 -22 -14 -11 -9 -30 -15 -44 -14 -14 1 -29
0 -35 -4 -18 -10 -45 -11 -45 -1 0 16 -30 12 -36 -5 -4 -8 -10 -12 -15 -9 -5
3 -6 11 -3 17 4 7 3 8 -1 4 -12 -11 -15 -37 -4 -37 5 0 1 -8 -8 -18 -12 -12
-21 -14 -25 -8 -5 7 -8 6 -8 -3 0 -11 -4 -9 -15 5 -13 16 -14 16 -9 2 4 -12 1
-18 -10 -18 -9 0 -16 -5 -16 -11 0 -5 5 -7 12 -3 7 5 8 3 3 -6 -6 -10 -11 -9
-22 5 -7 11 -13 13 -13 7 0 -7 -5 -12 -12 -12 -6 0 -4 8 6 19 10 11 25 17 34
14 9 -4 13 -2 9 4 -4 5 0 19 8 29 9 12 14 14 15 6 0 -7 5 -10 10 -7 6 4 7 11
4 17 -4 6 -2 8 4 4 5 -3 12 -1 14 4 2 6 18 13 37 15 18 2 42 7 52 10 13 5 19
1 19 -10 0 -9 5 -13 10 -10 6 4 7 12 3 18 -4 8 -1 7 9 -1 14 -11 17 -10 23 9
5 15 9 18 15 9 11 -18 30 -3 24 18 -5 15 -5 15 6 -1 17 -27 55 -4 39 24 -8 16
-7 24 4 37 29 32 -10 62 -77 61 -30 -1 -53 -5 -51 -9 3 -4 -9 -6 -26 -5 -16 1
-35 -2 -42 -9 -13 -11 -32 -18 -54 -19 -7 0 -13 -5 -13 -10 0 -6 -3 -7 -6 -4
-7 7 -55 -17 -86 -41 -10 -8 -18 -10 -22 -3 -4 6 -17 4 -36 -5 -16 -9 -34 -13
-39 -10 -5 4 -12 2 -16 -3 -3 -6 -12 -8 -20 -4 -9 3 -21 0 -29 -6 -7 -6 -15
-9 -17 -6 -3 2 -22 -1 -44 -6 -22 -5 -53 -12 -70 -15 -16 -3 -37 -10 -46 -14
-8 -5 -24 -7 -35 -6 -10 2 -28 -3 -39 -10 -22 -16 -39 -18 -31 -5 4 5 -3 7
-14 4 -11 -3 -17 -10 -13 -16 4 -6 1 -7 -8 -1 -18 11 -49 11 -73 1 -14 -7 -16
-6 -11 4 6 9 2 11 -13 7 -12 -4 -24 -2 -27 2 -3 5 -13 7 -23 5 -9 -1 -23 2
-29 8 -7 5 -13 6 -13 2 0 -4 -7 -2 -15 5 -9 7 -18 10 -22 7 -3 -4 -15 -1 -27
5 -11 7 -23 13 -26 13 -43 8 -69 18 -65 26 4 5 -1 6 -10 3 -8 -4 -26 1 -40 10
-14 9 -25 13 -25 9 0 -5 -5 -1 -10 9 -6 10 -18 14 -30 11 -12 -3 -20 0 -20 8
0 7 -2 10 -6 7 -3 -3 -28 3 -57 14 -29 11 -65 22 -82 25 -16 3 -32 8 -35 11
-3 4 -16 9 -30 11 -14 1 -27 6 -30 10 -5 7 -28 13 -47 14 -7 0 -13 4 -13 9 0
4 -10 8 -22 8 -13 0 -42 9 -65 19 -23 11 -44 17 -47 13 -3 -3 -6 0 -6 7 0 7
-4 10 -9 7 -8 -5 -35 2 -106 28 -16 6 -33 10 -37 8 -5 -1 -8 2 -8 6 0 5 -6 9
-12 9 -7 1 -33 4 -58 8 -25 4 -55 8 -67 7 -13 0 -23 4 -23 9 0 5 -11 4 -25 -1
-13 -5 -27 -5 -30 -1 -3 5 -15 7 -27 3 -11 -3 -19 -1 -16 4 6 8 -15 11 -99 15
-19 0 -30 5 -27 11 4 6 -3 5 -15 -1 -17 -9 -20 -9 -15 3 5 12 0 12 -31 1 -21
-6 -47 -12 -59 -11 -11 1 -24 -2 -27 -6 -3 -5 -16 -11 -30 -13 -69 -13 -79
-17 -72 -28 4 -8 1 -7 -9 1 -11 9 -18 10 -23 2 -3 -6 -11 -8 -16 -5 -5 4 -9 1
-9 -4 0 -6 -7 -11 -15 -11 -8 0 -15 -4 -15 -10 0 -5 -7 -10 -15 -10 -8 0 -15
-5 -15 -11 0 -5 -4 -7 -10 -4 -5 3 -10 1 -10 -6 0 -7 -3 -10 -6 -6 -3 3 -23
-3 -42 -14 -20 -10 -42 -19 -49 -19 -7 0 -10 -7 -7 -15 4 -11 2 -13 -9 -9 -9
3 -26 0 -39 -7 -13 -7 -26 -12 -30 -11 -5 1 -8 -3 -8 -9 0 -6 -7 -8 -15 -5 -9
3 -18 -1 -21 -8 -3 -8 -16 -17 -28 -20 -12 -3 -34 -16 -48 -28 -14 -13 -30
-24 -36 -25 -5 -1 -25 -16 -43 -32 -18 -17 -37 -27 -43 -24 -6 3 -8 3 -4 -1 8
-10 -14 -36 -25 -29 -4 2 -7 -1 -7 -7 0 -6 -5 -8 -10 -5 -6 3 -10 2 -10 -4 0
-6 -26 -37 -57 -68 -32 -32 -56 -62 -55 -67 2 -5 -4 -6 -13 -3 -9 4 -15 1 -15
-8 0 -8 -5 -15 -11 -15 -5 0 -7 -4 -4 -10 3 -5 -1 -10 -9 -10 -10 0 -13 -6
-10 -15 6 -14 -7 -20 -31 -15 -5 1 -7 -2 -3 -5 11 -12 -11 -45 -29 -45 -9 0
-14 -3 -10 -6 3 -3 -6 -17 -21 -31 -15 -13 -20 -22 -12 -18 8 4 4 -3 -10 -14
-14 -11 -21 -21 -16 -21 5 0 -2 -10 -16 -23 -14 -13 -24 -31 -22 -40 1 -9 -2
-15 -7 -11 -5 3 -9 2 -10 -3 0 -4 -3 -17 -5 -28 -2 -11 -5 -28 -6 -37 -1 -10
-5 -18 -9 -18 -4 0 -6 -11 -4 -25 1 -14 -2 -25 -7 -25 -5 0 -8 -6 -7 -12 3
-26 -1 -39 -11 -33 -5 3 -11 -3 -11 -14 -1 -12 -3 -25 -4 -31 -1 -5 -3 -15 -4
-21 0 -5 -4 -8 -8 -6 -5 3 -9 -14 -9 -36 -2 -69 -9 -127 -14 -127 -3 0 -6 -15
-7 -32 -1 -18 -4 -42 -6 -53 -2 -11 1 -23 7 -27 8 -6 7 -8 -1 -8 -7 0 -10 -7
-6 -17 4 -11 3 -14 -5 -9 -8 5 -10 2 -6 -8 3 -9 10 -13 15 -10 5 3 6 -2 3 -10
-3 -9 -11 -13 -17 -9 -6 4 -7 1 -2 -8 10 -16 14 -79 6 -94 -9 -16 -10 -35 -2
-39 13 -8 5 -144 -10 -163 -8 -9 -9 -14 -2 -10 6 4 -3 -21 -20 -55 -17 -35
-30 -69 -28 -77 1 -7 -2 -10 -7 -7 -6 3 -12 -15 -14 -44 -1 -28 0 -50 4 -50 4
0 4 -10 -1 -22 -5 -13 -5 -33 0 -45 8 -23 -3 -39 -20 -29 -5 4 -7 -3 -4 -15 3
-12 0 -25 -7 -29 -7 -5 -14 -16 -15 -27 -1 -10 -5 -25 -8 -33 -12 -34 -15 -60
-6 -66 6 -4 6 -11 0 -18 -6 -7 -8 -16 -4 -20 4 -3 8 -21 9 -39 1 -17 3 -33 4
-34 2 -2 3 -7 4 -12 0 -5 4 -13 8 -16 4 -4 4 -15 0 -24 -4 -9 -7 -33 -7 -53 1
-23 -4 -39 -12 -43 -11 -3 -11 -9 -3 -25 8 -15 8 -20 -2 -20 -9 0 -9 -3 2 -10
8 -5 12 -10 7 -10 -4 0 -1 -13 7 -29 9 -16 12 -31 9 -35 -4 -3 1 -6 10 -6 10
0 17 -8 17 -21 0 -11 4 -18 9 -15 5 3 11 0 14 -8 3 -9 16 -13 31 -12 14 2 26
-1 26 -6 0 -6 7 -7 16 -4 9 4 13 2 8 -5 -4 -7 -1 -10 7 -7 8 3 13 12 11 19 -1
9 3 7 12 -4 8 -11 17 -14 20 -8 4 6 14 8 24 5 16 -5 16 -5 0 6 -19 12 -25 40
-9 40 6 0 13 -5 17 -12 5 -7 3 -8 -6 -3 -8 5 -11 4 -7 -1 6 -11 47 -11 64 -1
6 4 14 1 16 -5 3 -7 6 -4 7 7 1 20 1 20 15 1 8 -11 15 -15 15 -8 0 6 8 9 18 6
14 -5 15 -4 2 5 -13 9 -13 11 1 11 9 0 20 8 23 17 4 10 4 14 0 10 -4 -4 -13 1
-21 11 -13 15 -13 14 -3 -7 10 -19 9 -22 -2 -18 -7 2 -12 10 -10 16 1 7 -2 10
-8 6 -6 -3 -7 -11 -4 -17 5 -7 2 -8 -6 -3 -9 6 -11 4 -5 -6 5 -8 4 -11 0 -6
-5 4 -19 0 -32 -8 -14 -9 -23 -11 -23 -5 0 6 -4 9 -9 5 -5 -3 -13 0 -17 6 -4
8 -3 9 4 5 7 -4 12 -1 12 6 0 10 2 10 9 -1 9 -14 51 0 51 18 0 4 11 14 25 21
13 7 22 17 19 21 -5 8 36 35 49 31 4 -1 7 2 7 8 0 5 6 10 13 10 7 0 18 9 25
20 7 12 18 18 25 14 7 -4 9 -4 5 1 -9 9 16 35 33 35 7 0 10 3 6 6 -3 3 10 21
29 40 21 20 32 39 28 45 -4 8 -3 9 4 5 7 -4 12 -1 12 8 0 9 3 15 7 15 17 -3
33 1 32 9 -3 20 2 32 12 26 7 -4 10 1 7 12 -3 16 34 64 49 64 4 0 2 -5 -5 -12
-7 -7 -12 -17 -12 -22 0 -6 7 0 16 12 8 12 12 27 9 32 -3 6 1 10 9 10 9 0 13
7 11 20 -2 11 0 20 6 20 5 0 9 -5 9 -11 0 -5 5 -7 10 -4 6 4 8 11 5 16 -4 5
-1 9 4 9 6 0 11 9 11 21 0 11 4 18 9 14 5 -3 11 5 13 17 2 14 9 23 20 22 10
-1 14 4 11 12 -3 8 0 14 5 14 6 0 14 9 17 21 4 12 12 18 21 15 12 -5 12 -2 3
17 -11 20 -11 21 5 8 14 -12 16 -12 10 3 -3 9 -1 16 5 16 6 0 11 6 11 14 0 8
13 24 29 37 23 18 27 27 19 36 -8 10 -7 12 6 7 12 -5 19 0 23 15 3 11 9 18 14
15 5 -3 9 1 9 8 0 7 10 24 23 38 13 14 21 32 19 39 -3 8 0 11 5 8 5 -3 10 0
10 8 0 8 -5 15 -11 15 -6 1 0 7 14 15 14 8 19 14 12 15 -7 0 -11 4 -8 8 3 5
20 8 38 7 38 -2 72 30 47 46 -7 4 -19 3 -25 -2 -14 -11 -39 23 -27 35 14 14
24 5 17 -16 -6 -19 -5 -21 8 -11 11 10 19 9 38 -4 13 -9 20 -12 17 -5 -4 6 2
12 15 15 21 4 21 4 -3 6 -22 1 -75 30 -56 31 4 0 3 10 -3 23 -10 21 -10 21 4
3 14 -17 15 -17 12 6 -1 13 -6 30 -11 38 -6 10 -4 12 8 7 11 -4 14 -2 11 7 -3
7 2 19 10 26 13 10 17 9 23 -6 6 -16 7 -16 14 2 4 10 8 28 8 39 l0 20 -9 -20
c-8 -18 -9 -18 -9 -2 -1 10 -8 20 -16 23 -8 4 -12 11 -8 17 3 6 1 7 -5 3 -6
-3 -15 2 -21 11 -6 10 -11 13 -11 6 0 -6 12 -21 27 -32 37 -30 26 -31 -27 -3
-25 13 -38 21 -28 18 11 -3 15 1 13 12 -1 10 -9 16 -20 14 -9 -2 -15 0 -12 5
3 4 -6 9 -19 9 -15 1 -22 -2 -17 -10 3 -6 -2 -3 -13 6 -15 13 -23 15 -31 7 -8
-8 -13 -7 -18 2 -5 8 -4 10 3 5 8 -5 12 3 12 24 0 17 -4 29 -10 25 -5 -3 -7
-12 -3 -20 5 -15 -1 -17 -44 -18 -19 0 -20 -3 -12 -25 8 -21 7 -23 -5 -13 -11
9 -15 9 -18 0 -2 -7 -12 -13 -21 -15 -9 -1 -15 2 -11 7 3 5 10 7 15 4 5 -4 9
-2 9 3 0 6 -7 12 -15 16 -8 3 -15 0 -15 -7 0 -8 -4 -6 -10 3 -8 12 -10 12 -10
-5 0 -11 -4 -15 -8 -10 -4 6 -13 10 -19 9 -7 -1 -21 -2 -30 -3 -15 -1 -15 -3
3 -17 10 -8 13 -12 5 -8 -10 5 -13 3 -8 -9 9 -23 -16 -27 -42 -6 -13 11 -20
19 -15 19 4 0 16 -7 26 -17 17 -15 18 -15 18 6 0 12 -4 20 -8 17 -4 -2 -14 0
-22 6 -12 8 -12 9 2 4 10 -3 22 2 27 12 6 9 11 13 11 9 0 -4 11 5 25 20 13 15
25 23 25 17 0 -6 7 -11 15 -11 8 0 12 4 9 9 -10 15 9 8 23 -9 13 -16 13 -16 3
5 -11 22 -10 23 9 17 21 -6 30 8 12 20 -6 3 -8 14 -6 25 2 12 0 18 -6 15 -5
-4 -9 -3 -8 2 3 17 -1 33 -8 32 -27 -4 -37 2 -19 13 14 8 21 8 23 1 11 -32 43
-56 58 -43 18 15 20 40 3 40 -6 0 -8 3 -5 6 4 4 13 2 20 -5 12 -9 14 -7 12 13
-2 16 1 23 9 20 7 -3 19 3 27 13 13 17 13 17 -6 3 -11 -9 -6 3 12 26 18 23 29
45 25 50 -4 4 1 2 11 -6 15 -11 18 -11 15 0 -2 9 9 15 35 17 37 3 86 33 55 33
-10 0 -10 2 1 9 9 6 10 10 1 13 -12 4 24 59 38 57 20 -3 43 2 39 9 -5 9 30 42
37 35 3 -4 6 -1 6 5 0 7 8 12 18 12 9 0 26 11 36 25 10 13 23 22 28 19 5 -3
15 0 23 6 8 7 15 9 15 5 0 -4 7 -2 15 5 12 10 15 10 15 -1 0 -9 3 -10 8 -4 9
14 41 11 71 -5 13 -6 21 -7 17 -2 -8 13 12 10 42 -6 12 -7 22 -9 22 -5 0 4 4
2 9 -5 7 -11 11 -11 22 1 8 8 25 12 37 11 12 -2 22 -1 22 4 0 4 11 8 25 8 14
1 23 -1 20 -5 -6 -11 39 -7 47 4 5 6 8 6 8 -2 0 -12 18 -12 39 1 8 5 16 4 21
-4 6 -10 9 -9 13 1 4 10 6 10 6 2 1 -7 6 -13 12 -13 5 0 7 5 4 10 -3 6 -1 10
4 10 6 0 11 -4 11 -10 0 -5 7 -10 15 -10 8 0 15 -5 15 -11 0 -6 7 -8 15 -5 9
3 18 -1 21 -9 3 -8 21 -20 40 -27 24 -8 33 -17 29 -28 -3 -9 1 -8 10 4 11 14
15 16 15 5 0 -12 2 -12 10 1 6 10 10 11 10 3 0 -15 21 -13 32 2 5 6 8 5 8 -2
0 -7 5 -13 12 -13 6 0 19 -7 29 -16 13 -12 19 -12 25 -3 5 8 3 10 -6 4 -8 -5
-11 -4 -6 3 9 14 36 4 36 -13 0 -8 4 -16 9 -19 4 -3 6 7 4 22 -3 24 -3 25 6 6
5 -12 15 -25 22 -30 7 -4 10 -3 5 4 -3 6 -2 13 4 17 5 3 10 2 10 -3 0 -5 7 -9
15 -9 8 0 15 5 15 11 0 6 5 4 10 -4 9 -13 11 -13 20 0 7 12 10 12 10 1 0 -7 6
-11 15 -7 9 3 15 0 15 -10 0 -14 2 -14 15 0 16 16 45 12 45 -6 0 -6 6 -5 15 2
9 7 15 8 15 2 0 -6 10 -9 23 -8 31 4 67 -10 67 -26 0 -7 9 -19 21 -26 12 -8
18 -9 14 -3 -11 19 37 12 52 -6 8 -10 11 -12 7 -4 -4 9 -2 12 7 9 8 -3 13 -12
11 -19 -2 -9 4 -7 17 5 12 11 21 15 21 10 0 -5 7 0 15 10 8 11 15 15 15 10 0
-6 14 -9 31 -8 23 2 29 -2 25 -12 -4 -11 1 -10 21 3 26 17 27 17 20 -2 -7 -19
-6 -19 7 -2 9 12 15 14 18 6 5 -14 78 -21 78 -7 0 5 5 6 12 2 24 -15 152 -10
165 6 10 12 14 12 21 2 7 -10 11 -10 21 2 12 14 18 13 56 -8 24 -14 47 -21 55
-16 8 5 9 9 1 14 -6 4 -11 2 -11 -4 0 -6 -4 -8 -10 -5 -33 21 0 27 36 7 12 -6
24 -8 28 -5 4 4 9 -3 13 -15 4 -17 12 -22 34 -20 18 1 28 7 25 14 -3 7 2 15
10 18 9 3 12 11 8 17 -5 8 -3 9 5 4 9 -5 9 -11 3 -17 -13 -13 9 -38 34 -38 14
0 15 -2 3 -17 -13 -17 -13 -17 7 0 11 9 24 14 29 10 4 -5 5 -3 2 3 -4 7 1 15
10 18 12 5 13 10 5 18 -18 18 8 37 40 27 18 -5 29 -3 32 4 2 7 5 4 5 -6 1 -10
6 -15 11 -12 6 3 10 2 10 -3 0 -6 7 -13 16 -16 8 -3 12 -2 9 4 -3 6 -1 10 4
10 6 0 11 -6 11 -14 0 -8 4 -18 10 -21 6 -4 7 1 3 11 -4 12 -3 15 5 10 7 -4
15 0 18 9 4 9 13 14 21 11 7 -3 23 4 35 16 14 14 23 18 26 10 2 -7 8 -12 14
-12 6 0 8 6 5 13 -4 10 3 12 23 9 20 -3 32 2 44 19 9 13 16 19 16 13 0 -5 -5
-15 -12 -22 -9 -9 -8 -12 5 -12 9 0 17 5 17 10 0 6 4 10 10 10 5 0 9 -3 7 -7
-1 -5 2 -10 7 -13 5 -3 10 3 12 13 1 11 6 22 9 25 4 4 5 -2 3 -12 -2 -16 3
-19 34 -20 22 -1 34 2 31 9 -3 5 0 4 8 -2 16 -16 33 -17 23 -2 -4 7 1 7 16 -1
15 -8 20 -8 16 -1 -4 6 -3 11 3 11 5 0 11 -6 14 -12 4 -10 7 -10 18 -1 10 10
16 9 31 -4 18 -16 18 -16 12 0 -3 10 -1 17 5 17 6 0 11 -4 11 -9 0 -11 99 -11
106 1 3 4 14 4 24 -2 13 -7 21 -7 26 2 5 7 3 8 -7 3 -8 -5 -11 -4 -6 1 11 11
50 11 59 0 4 -6 13 -4 22 3 13 11 16 11 16 0 0 -9 3 -10 8 -4 4 6 32 11 62 12
124 6 160 11 177 24 9 8 14 9 10 2 -4 -6 -3 -14 2 -18 5 -3 14 3 20 12 6 10
11 13 11 6 0 -8 9 -9 28 -4 15 4 33 6 41 3 10 -3 11 0 5 9 -7 12 -5 12 9 0 11
-9 17 -10 17 -2 0 6 5 11 11 11 5 0 7 -4 4 -10 -9 -15 2 -12 19 6 9 8 16 11
16 5 0 -6 5 -11 11 -11 5 0 7 5 3 12 -5 7 -3 8 7 3 18 -12 49 -14 54 -4 3 4
16 6 30 5 13 -2 23 2 22 8 -1 6 8 11 21 10 12 0 22 4 22 9 0 5 7 4 15 -3 18
-15 20 0 3 20 -7 8 0 4 16 -10 16 -14 26 -19 22 -12 -7 12 0 14 52 15 12 1 22
4 22 7 0 3 20 5 45 4 25 -1 45 2 45 6 0 10 40 25 54 21 5 -1 13 4 17 11 7 11
9 10 9 -1 0 -8 8 -4 21 10 11 13 17 18 14 10 -6 -9 -2 -12 11 -7 11 3 39 6 63
8 24 1 45 8 48 15 3 7 9 10 14 7 5 -3 9 -1 9 5 0 5 11 8 25 6 14 -1 25 2 25 6
0 5 6 9 13 9 7 0 29 9 50 20 20 11 37 17 37 14 0 -4 7 0 16 7 18 14 36 20 76
22 14 1 25 4 22 6 -4 5 31 27 59 37 9 3 17 11 17 18 0 7 3 7 8 -2 7 -10 16 -9
45 3 20 8 37 12 37 9 0 -4 8 0 17 7 14 12 16 12 9 0 -6 -9 -5 -12 5 -9 8 3 13
11 11 17 -1 6 3 11 9 11 5 0 7 5 4 10 -3 6 -1 10 4 10 12 0 10 -28 -3 -49 -7
-10 -5 -12 4 -6 7 4 15 2 20 -5 5 -8 9 -7 13 5 4 9 3 14 -2 11 -13 -8 -19 15
-11 38 4 14 9 16 14 8 4 -7 5 -16 2 -20 -3 -5 1 -9 9 -9 8 0 12 4 9 9 -3 4 2
18 10 30 10 13 16 17 16 9 0 -9 7 -6 19 7 10 12 23 22 30 22 6 0 11 5 11 12 0
6 8 4 19 -6 17 -16 19 -16 26 1 5 10 7 22 6 26 -1 5 3 6 9 2 6 -4 17 -1 25 5
8 7 15 9 16 4 0 -5 5 0 10 11 l9 20 -3 -20 c-1 -11 -7 -20 -14 -20 -20 0 -23
-11 -3 -12 11 -1 20 3 20 8 0 6 4 7 10 4 6 -4 7 1 3 11 -4 12 -3 15 5 10 8 -4
12 0 12 11 0 15 2 15 9 3 6 -8 8 -17 5 -21 -2 -4 1 -11 8 -15 7 -4 10 -4 6 1
-4 4 -2 15 5 23 9 13 9 14 0 8 -7 -4 -13 -2 -13 3 0 6 7 11 16 11 9 0 12 5 8
12 -5 7 -3 8 5 4 7 -5 10 -15 7 -23 -3 -8 -1 -11 5 -8 5 4 7 15 4 26 -5 14 -3
17 9 13 12 -5 15 -2 10 12 -4 14 -3 16 4 5 5 -7 15 -10 21 -6 7 4 18 2 25 -4
9 -8 13 -7 13 4 0 8 -3 12 -7 10 -3 -2 -12 6 -20 18 -12 20 -12 21 3 8 10 -7
17 -10 17 -7 0 4 10 2 21 -5 14 -7 19 -7 15 0 -4 5 2 15 13 20 29 16 39 13 17
-4 -11 -8 -16 -15 -11 -15 5 0 16 7 26 16 9 8 26 17 36 19 10 2 20 4 22 4 2 1
-2 8 -9 16 -11 13 -10 14 3 9 11 -4 20 2 28 20 7 14 18 26 26 26 7 0 12 5 10
12 -1 7 3 12 8 13 6 0 15 3 21 7 6 4 14 4 18 1 16 -17 36 -11 26 7 -10 19 2
22 27 7 9 -6 11 -3 6 10 -6 16 -5 16 10 4 9 -7 17 -9 17 -4 0 6 -10 15 -22 22
-13 6 -15 9 -5 6 10 -2 20 1 23 9 3 8 13 17 22 21 14 5 13 3 -2 -14 -13 -14
-14 -21 -5 -27 8 -4 10 -3 5 4 -4 7 -3 12 3 12 5 0 12 -6 14 -12 3 -7 6 -1 6
13 1 15 8 32 16 39 9 7 13 20 10 29 -4 13 -2 13 8 -1 8 -10 17 -15 20 -11 4 3
7 1 7 -6 0 -7 -7 -11 -14 -8 -9 4 -13 1 -10 -6 2 -7 15 -13 27 -14 12 0 17 1
10 4 -15 6 -5 33 12 33 7 0 16 -6 18 -12 4 -10 6 -10 6 0 1 6 7 12 15 12 8 0
22 10 31 22 13 19 18 21 35 11 14 -9 21 -10 26 -1 4 6 3 9 -2 6 -5 -3 -15 1
-22 8 -12 13 -10 14 12 8 21 -5 26 -3 26 12 0 16 2 17 10 4 9 -13 14 -7 11 12
0 5 2 7 7 7 18 -3 33 2 28 10 -3 4 6 6 20 3 32 -6 74 31 67 59 -4 13 0 19 11
19 10 0 15 4 12 9 -3 5 1 12 10 15 8 3 12 11 9 17 -4 6 2 13 14 16 12 3 21 11
21 17 0 7 10 23 23 36 12 14 21 27 20 30 -1 3 8 12 20 20 21 12 21 12 7 -6
-14 -18 -14 -18 3 -5 14 11 15 16 5 29 -9 11 -9 14 -1 9 8 -5 13 2 15 20 2 19
8 27 18 25 8 -2 12 0 8 4 -4 4 -3 13 3 21 6 7 8 13 5 13 -4 0 7 20 25 45 33
46 46 57 36 30 -4 -8 -1 -17 5 -21 7 -4 8 -3 4 5 -4 6 0 14 8 17 9 3 16 10 16
16 0 5 -4 6 -10 3 -5 -3 -10 -2 -10 3 0 6 7 13 16 16 8 3 13 10 9 15 -3 5 3
12 14 16 11 3 27 18 37 33 17 26 17 26 -1 12 -17 -14 -17 -14 -5 7 8 12 20 19
28 15 10 -3 13 -1 8 6 -4 7 4 24 18 39 15 15 26 31 26 36 0 4 5 5 10 2 6 -3
10 -1 10 5 0 13 35 61 44 61 18 -2 19 0 6 10 -12 9 -11 10 7 6 13 -3 26 -1 29
4 3 5 2 9 -3 8 -22 -4 -25 2 -7 16 19 15 19 15 -1 8 -18 -6 -19 -5 -6 11 8 9
10 16 5 15 -19 -3 -34 1 -34 12 0 5 5 7 12 3 7 -4 8 -3 4 5 -4 6 -11 9 -16 6
-5 -3 -12 0 -15 6 -4 5 -14 8 -22 4 -15 -5 -42 21 -39 37 3 16 -39 36 -56 27
-22 -12 -31 -11 -23 1 3 6 4 10 0 10 -3 0 -10 -10 -15 -22z m-188 -336 c-4
-11 -1 -13 8 -7 8 5 11 4 6 -3 -3 -6 3 -12 16 -14 20 -3 21 -4 5 -20 -18 -18
-23 -33 -8 -23 5 3 13 1 16 -5 4 -6 3 -10 -2 -9 -34 6 -59 -3 -60 -21 -1 -13
2 -18 10 -13 7 4 6 0 -2 -10 -10 -12 -10 -17 -1 -17 6 0 10 -6 7 -12 -2 -7 -8
-13 -13 -12 -5 1 -17 -7 -26 -17 -10 -11 -14 -19 -9 -19 5 0 -4 -14 -20 -31
-16 -18 -32 -29 -35 -27 -3 3 2 13 11 21 12 12 12 17 3 24 -19 11 -39 13 -32
2 3 -5 10 -6 16 -3 7 5 8 2 4 -5 -5 -7 -14 -10 -22 -7 -14 6 -20 -9 -6 -17 4
-2 1 -2 -7 0 -9 2 -11 -2 -7 -13 5 -14 4 -15 -9 -4 -13 11 -14 10 -10 -3 4 -8
1 -18 -6 -23 -8 -5 -10 -3 -4 7 5 8 -5 1 -22 -15 -18 -17 -29 -34 -26 -39 3
-6 1 -7 -6 -3 -9 6 -9 11 -1 21 8 10 7 14 -2 18 -17 6 -38 -3 -38 -15 0 -6 6
-6 14 2 13 10 13 8 3 -14 -12 -24 -12 -24 -20 -4 -4 13 -13 18 -23 14 -8 -3
-25 -1 -37 5 -19 11 -20 12 -3 25 10 7 24 10 31 8 7 -3 16 0 20 6 5 9 9 9 14
1 4 -6 19 -12 33 -13 15 -1 24 -6 21 -12 -3 -5 -1 -6 6 -2 18 11 -7 38 -29 31
-10 -3 -17 0 -17 9 0 11 10 14 34 11 18 -1 31 1 28 5 -6 10 24 22 36 15 5 -4
6 1 3 9 -6 15 -15 19 -31 14 -5 -2 -7 -6 -5 -10 3 -11 -16 -10 -22 0 -8 13 29
31 44 22 24 -15 54 8 38 28 -10 13 -8 13 9 -1 15 -13 21 -14 19 -5 -3 22 -17
39 -27 33 -5 -4 -6 2 -2 11 4 12 8 14 11 5 4 -13 45 -32 74 -36 9 -1 14 3 11
8 -3 6 -1 7 6 3 8 -6 8 -1 0 17 -9 20 -8 30 5 48 26 38 18 46 -9 9 -17 -23
-22 -37 -15 -44 16 -16 12 -25 -9 -23 -15 1 -17 4 -9 14 13 16 -4 17 -20 1 -9
-9 -12 -9 -12 -1 0 7 9 15 20 18 18 6 25 17 21 38 -1 5 3 6 9 2 5 -3 15 5 21
19 11 23 13 24 24 9 9 -13 14 -13 20 -3 5 9 4 11 -4 6 -6 -4 -10 -4 -9 1 1 4
-3 17 -9 29 -10 16 -9 21 2 21 7 0 11 -7 7 -15z m-276 -158 c-4 -9 -1 -23 5
-30 8 -10 8 -14 0 -14 -6 0 -11 5 -11 10 0 6 -5 10 -10 10 -20 0 8 -36 29 -37
12 -1 19 2 16 8 -4 5 -2 9 2 9 5 0 13 -8 20 -19 10 -16 8 -18 -15 -17 -18 1
-26 -4 -24 -12 1 -8 -2 -11 -7 -8 -5 4 -12 2 -16 -4 -4 -6 -11 -8 -16 -4 -5 3
-21 -2 -35 -11 -24 -16 -25 -18 -9 -35 15 -16 7 -38 -9 -23 -15 15 -51 13 -63
-4 -7 -9 -13 -12 -13 -6 0 22 31 44 53 37 20 -6 20 -6 4 10 -16 17 -13 51 4
40 11 -6 11 -1 3 21 -6 14 -10 12 -24 -11 -10 -15 -16 -33 -13 -40 3 -8 0 -14
-7 -14 -6 0 -8 5 -4 12 5 7 2 9 -9 5 -11 -4 -14 -2 -10 8 3 8 8 13 13 10 9 -6
34 45 31 65 -1 9 1 11 6 5 4 -6 13 -11 19 -10 16 0 44 32 36 40 -4 5 -2 5 5 1
6 -3 14 -2 18 4 4 6 11 8 16 5 5 -4 9 -1 9 4 0 6 3 11 6 11 3 0 3 -7 0 -16z
m-6558 -2461 c-5 -7 -14 -10 -19 -7 -13 8 -11 -10 4 -26 10 -12 9 -12 -5 -2
-11 9 -18 10 -23 2 -3 -5 -1 -10 4 -10 6 0 11 -4 11 -10 0 -5 -5 -9 -12 -7 -7
1 -12 -2 -13 -8 -3 -38 -75 -80 -75 -44 0 16 -47 58 -56 50 -4 -3 -4 0 0 7 4
7 2 12 -6 12 -10 0 -10 2 1 9 9 6 19 4 29 -5 13 -13 17 -13 33 2 14 12 19 13
19 4 0 -10 5 -9 18 3 10 10 22 14 25 10 4 -3 7 0 7 8 0 11 2 11 10 -1 9 -14
14 -6 12 21 0 3 10 5 23 5 19 0 22 -3 13 -13z"/>
<path d="M8170 8321 c0 -7 -4 -10 -9 -7 -5 4 -8 -5 -6 -19 1 -15 -4 -30 -14
-36 -12 -8 -13 -9 -1 -6 28 8 53 -12 38 -31 -10 -12 -10 -14 0 -8 19 11 14
-15 -5 -31 -12 -8 -13 -12 -4 -11 7 2 16 -4 18 -12 3 -9 1 -11 -4 -5 -4 6 -15
10 -23 10 -8 0 -14 5 -13 11 1 6 -4 11 -12 11 -8 0 -11 -5 -8 -10 4 -6 0 -8
-10 -4 -9 3 -18 0 -21 -9 -3 -8 -14 -14 -25 -14 -11 0 -27 -7 -35 -16 -15 -14
-14 -17 6 -34 21 -17 21 -18 4 -16 -11 1 -32 -4 -48 -12 -16 -7 -34 -15 -41
-16 -25 -4 -50 -23 -38 -30 24 -15 11 -36 -26 -42 -31 -5 -38 -10 -39 -29 -1
-13 -11 -33 -22 -45 l-20 -22 21 -34 c28 -43 60 -53 88 -28 12 11 23 18 25 17
2 -2 4 0 5 4 0 4 -4 9 -10 11 -6 2 -11 -1 -11 -8 0 -6 -5 -8 -12 -4 -6 4 -8 3
-4 -4 4 -7 -4 -10 -22 -10 -23 1 -28 5 -25 19 3 11 12 19 20 19 8 0 11 -5 7
-12 -4 -7 -3 -8 5 -4 6 4 9 11 6 16 -9 14 19 17 33 3 15 -15 69 -18 74 -3 2 5
13 11 26 13 13 2 27 8 30 14 11 16 41 12 34 -5 -3 -9 -1 -13 5 -9 5 3 10 0 10
-8 0 -8 -4 -12 -8 -9 -4 2 -7 -4 -6 -15 0 -11 4 -19 7 -19 18 2 29 -4 34 -18
5 -14 4 -15 -9 -4 -9 7 -18 10 -22 6 -3 -3 -1 -6 5 -6 7 0 12 -7 12 -15 0 -8
4 -15 10 -15 5 0 7 -6 4 -14 -3 -8 -1 -17 5 -20 6 -4 8 -13 4 -21 -3 -8 -1
-15 3 -15 5 0 10 -25 10 -55 1 -30 7 -61 13 -68 8 -10 7 -17 -1 -25 -8 -8 -9
-12 -1 -12 12 0 12 -25 0 -36 -3 -4 -3 -14 1 -23 4 -9 7 -29 6 -46 0 -17 6
-36 15 -43 15 -12 15 -13 0 -9 -12 4 -15 0 -11 -19 2 -13 9 -24 14 -24 6 0 4
-7 -3 -17 -11 -12 -11 -17 -2 -20 8 -3 9 -12 3 -28 -5 -12 -6 -26 -2 -29 11
-12 11 -70 -1 -85 -9 -12 -9 -13 1 -7 22 13 37 -6 17 -21 -17 -12 -17 -13 -2
-13 18 0 19 -20 2 -32 -6 -5 -6 -8 2 -8 6 0 9 -9 6 -20 -3 -11 -1 -20 4 -20 5
0 8 -14 7 -30 -1 -17 2 -32 7 -35 4 -3 4 -17 -1 -31 -7 -17 -7 -23 0 -19 6 4
9 -3 6 -17 -2 -13 1 -28 6 -35 6 -7 5 -14 -2 -18 -8 -5 -7 -11 2 -23 11 -14
10 -15 -6 -8 -19 7 -19 6 -1 -14 10 -11 14 -20 10 -20 -5 0 -4 -5 3 -12 6 -6
8 -17 3 -27 -10 -18 -8 -57 2 -67 13 -13 8 -46 -5 -38 -10 6 -10 4 -3 -7 12
-16 13 -39 2 -56 -5 -7 -4 -13 1 -13 4 0 7 -18 5 -40 -2 -27 1 -40 10 -40 8 0
9 -2 1 -8 -15 -10 -6 -74 10 -65 6 4 6 0 -2 -9 -11 -13 -10 -22 6 -49 28 -51
32 -68 20 -75 -7 -4 -8 -3 -4 4 4 7 2 12 -4 12 -7 0 -10 7 -7 14 4 10 1 13 -9
9 -9 -3 -14 1 -14 12 0 9 -4 14 -8 11 -11 -6 -9 -43 3 -53 4 -5 5 -2 0 6 -6
10 -4 12 4 7 7 -5 10 -15 7 -23 -3 -8 -1 -11 4 -8 6 3 10 -1 10 -10 0 -9 4
-14 9 -11 5 4 8 -2 6 -11 -1 -10 3 -24 9 -32 6 -8 10 -16 9 -18 -2 -1 -3 -4
-2 -5 1 -5 8 -33 12 -48 2 -8 7 -30 11 -47 4 -18 12 -33 16 -33 5 0 8 -21 6
-47 -2 -27 2 -54 8 -62 8 -11 8 -13 -1 -8 -8 5 -8 -1 2 -19 8 -15 12 -31 9
-36 -3 -4 0 -8 6 -8 6 0 8 -4 5 -10 -7 -11 12 -50 34 -68 10 -9 11 -11 2 -6
-11 6 -13 3 -6 -12 4 -10 8 -27 9 -36 0 -10 4 -18 9 -18 5 0 4 -7 -3 -15 -7
-8 -8 -15 -3 -15 5 0 9 -21 9 -47 -1 -27 2 -67 5 -90 3 -24 2 -43 -2 -43 -4 0
-8 -10 -8 -22 -1 -60 0 -72 7 -77 4 -3 7 -15 6 -26 0 -11 3 -30 8 -42 4 -13 3
-25 -3 -29 -6 -4 -6 -11 2 -20 6 -7 9 -21 5 -29 -3 -8 -1 -15 4 -15 5 0 9 -12
9 -27 0 -16 2 -40 4 -56 2 -15 0 -30 -5 -33 -5 -3 -4 -12 3 -20 6 -8 7 -14 2
-14 -5 0 -10 -7 -10 -15 0 -8 5 -15 10 -15 6 0 1 -8 -9 -18 -11 -9 -19 -24
-19 -32 1 -8 -2 -20 -7 -26 -4 -6 -10 -28 -14 -50 -3 -21 -11 -42 -18 -46 -8
-5 -7 -8 3 -8 11 0 11 -3 1 -15 -7 -8 -9 -15 -5 -15 4 0 3 -6 -2 -12 -5 -7 -9
-20 -8 -28 1 -8 -3 -23 -7 -32 -6 -12 -5 -18 3 -18 8 0 9 -4 0 -13 -8 -10 -7
-17 2 -27 10 -10 9 -12 -6 -7 -15 6 -17 3 -12 -12 3 -11 -1 -25 -9 -34 -8 -8
-12 -17 -9 -21 4 -3 1 -6 -6 -6 -7 0 -10 -4 -6 -9 3 -6 -3 -14 -12 -20 -10 -6
-14 -11 -10 -11 10 0 -24 -62 -40 -73 -7 -4 -13 -13 -13 -20 0 -7 4 -6 10 3 7
10 10 11 10 2 0 -7 -7 -15 -15 -18 -8 -4 -12 -10 -9 -15 3 -5 1 -9 -5 -9 -15
0 -41 -59 -34 -77 4 -10 2 -14 -4 -10 -12 8 -12 -11 0 -30 4 -6 3 -14 -3 -18
-5 -3 -15 -15 -21 -27 -8 -15 -8 -19 0 -14 6 4 11 3 11 -1 0 -5 -9 -14 -21
-21 -17 -11 -20 -11 -13 0 4 7 -4 2 -19 -11 -14 -12 -30 -20 -36 -16 -6 3 -11
2 -11 -3 0 -13 -56 -35 -69 -27 -7 4 -8 0 -4 -11 4 -11 3 -15 -4 -11 -6 4 -18
0 -27 -9 -9 -8 -20 -12 -26 -9 -5 3 -10 2 -10 -3 0 -8 -6 -10 -47 -14 -10 0
-20 -5 -24 -9 -3 -5 -18 -10 -35 -13 -16 -2 -40 -8 -53 -13 -13 -5 -46 -9 -73
-9 -26 1 -48 -2 -48 -5 0 -3 -7 -6 -15 -7 -8 -1 -22 -3 -30 -4 -8 -1 -15 -5
-15 -10 0 -4 -6 -8 -14 -8 -8 0 -16 -4 -18 -8 -5 -13 -99 -62 -119 -62 -11 0
-19 -5 -19 -11 0 -8 -6 -7 -17 2 -13 11 -15 11 -9 1 6 -10 3 -13 -10 -11 -11
2 -25 0 -33 -5 -7 -5 -31 -10 -52 -11 -35 -2 -43 3 -41 26 1 3 -10 12 -24 19
-14 8 -22 20 -19 27 3 8 0 11 -6 7 -6 -3 -19 3 -30 15 -18 19 -32 25 -51 22
-5 0 -8 9 -8 21 0 12 -3 18 -7 15 -3 -4 -13 -2 -20 5 -22 18 -52 18 -46 0 5
-12 2 -12 -16 -3 -17 10 -22 9 -27 -3 -3 -8 -13 -18 -23 -21 -9 -3 -25 -20
-36 -37 -10 -18 -25 -39 -32 -46 -7 -8 -11 -18 -8 -23 4 -5 1 -9 -5 -9 -6 0
-9 -4 -5 -9 3 -5 1 -12 -4 -15 -9 -6 -8 -50 4 -96 12 -48 12 -70 1 -70 -6 0
-4 -5 4 -10 8 -5 10 -10 4 -10 -7 0 -14 -9 -17 -20 -3 -11 -1 -20 3 -20 5 0 7
-9 5 -20 -2 -11 0 -18 4 -16 5 3 16 -3 26 -14 10 -11 23 -20 28 -20 6 0 2 7
-9 16 -17 14 -16 14 9 0 15 -9 27 -13 27 -9 0 4 7 -2 16 -13 8 -10 13 -12 9
-4 -5 12 -4 12 7 -1 20 -24 73 -40 87 -26 8 8 11 7 11 -2 0 -11 3 -11 17 0 15
12 16 12 10 -3 -4 -12 -2 -18 8 -18 8 0 15 5 15 11 0 8 6 7 17 -2 11 -10 14
-10 9 -2 -5 10 -1 11 18 3 14 -5 33 -7 43 -3 12 5 14 3 8 -8 -6 -11 -5 -12 6
-1 15 13 43 17 35 4 -3 -5 1 -9 9 -9 8 0 12 4 9 9 -3 4 5 8 18 9 13 0 31 2 40
4 10 2 22 -4 28 -13 5 -10 10 -12 10 -4 0 6 5 12 11 12 5 0 7 -6 3 -13 -6 -9
-3 -8 8 1 13 10 22 11 37 2 16 -8 21 -8 21 2 0 10 2 10 9 -1 6 -9 10 -10 16
-2 9 16 37 -7 28 -23 -3 -6 2 -4 13 5 23 18 70 19 66 0 -1 -7 2 -10 8 -6 6 3
8 11 4 16 -8 13 29 7 38 -6 5 -6 8 -5 8 3 0 7 5 10 10 7 6 -4 7 -11 4 -17 -4
-7 -2 -8 5 -4 6 4 9 12 6 17 -4 5 -1 9 4 9 10 0 15 -14 12 -33 -1 -5 3 -6 8
-2 6 3 8 12 4 20 -4 11 -1 13 13 8 13 -5 15 -3 9 8 -7 10 -1 9 18 -4 15 -10
27 -14 26 -10 -3 20 2 25 15 14 10 -8 16 -9 21 -1 9 14 68 13 84 -2 10 -11 11
-10 6 5 -4 10 -2 17 4 17 6 0 11 -5 11 -11 0 -8 4 -8 13 -1 6 5 24 9 38 7 14
-2 32 1 40 5 7 5 21 4 32 -2 15 -8 18 -7 12 3 -6 9 -3 11 8 6 10 -3 17 -2 17
3 0 6 3 9 8 8 14 -3 92 25 92 34 0 5 4 7 8 4 5 -3 18 3 29 14 16 14 23 16 32
7 9 -9 11 -9 7 3 -4 10 6 20 29 31 19 9 32 11 29 5 -3 -6 2 -2 10 8 9 11 16
16 16 11 0 -5 6 -2 13 7 6 9 33 28 59 41 26 14 44 28 41 31 -6 5 12 10 29 7 4
0 5 6 2 14 -4 9 0 15 9 15 8 0 17 6 20 13 3 9 8 8 23 -3 18 -14 18 -14 5 3
-13 16 -9 22 32 61 26 24 44 46 40 50 -3 3 1 6 11 6 9 0 14 5 11 10 -3 6 -1
10 6 10 7 0 10 3 6 6 -13 13 26 43 44 33 12 -6 20 -5 25 3 4 6 3 8 -2 5 -6 -3
-16 -2 -24 3 -10 6 -6 17 19 49 18 23 30 41 26 41 -3 0 0 7 7 15 30 33 38 45
38 55 0 5 5 10 11 10 5 0 8 4 5 9 -3 5 1 12 10 15 8 3 14 14 12 23 -2 10 2 17
8 16 6 -1 12 21 13 55 3 60 8 107 11 107 2 0 4 9 5 20 2 11 8 40 15 65 6 25
12 50 12 57 1 7 4 11 7 9 3 -2 15 5 25 15 11 11 14 19 8 19 -7 0 -2 10 10 22
13 13 26 22 30 21 4 -2 5 4 2 12 -4 9 -2 21 4 28 5 6 9 42 8 79 0 38 4 70 9
72 6 3 5 5 -2 5 -12 1 -5 19 22 61 5 8 10 20 11 26 1 6 12 24 25 38 13 15 24
35 24 44 0 9 3 22 6 27 2 6 5 38 4 73 0 34 3 62 6 62 4 0 5 9 2 20 -3 11 -1
20 3 20 5 0 10 19 10 43 1 23 5 71 9 107 11 96 12 132 3 159 -5 13 -4 38 1 57
6 21 6 34 0 34 -6 0 -6 7 -1 18 7 14 8 51 3 96 -1 5 -9 -1 -20 -12 -10 -12
-21 -18 -25 -15 -4 4 -3 -5 3 -20 6 -15 7 -27 2 -27 -8 0 -11 -21 -12 -72 0
-29 -15 -21 -17 10 -5 66 -12 97 -33 147 -12 30 -26 52 -30 50 -6 -5 -27 14
-27 25 0 3 -3 16 -6 30 -3 14 -8 36 -10 50 -2 14 -10 39 -16 55 -12 29 -18 61
-23 115 -1 14 -6 28 -12 32 -5 4 -11 15 -12 25 -8 51 -10 59 -17 71 -4 6 -4
12 1 12 4 0 2 4 -5 9 -7 4 -15 14 -16 22 -2 8 -8 25 -13 39 -6 14 -8 31 -6 38
3 6 1 12 -5 12 -9 0 -25 40 -26 65 -1 6 -4 12 -7 15 -9 7 -62 142 -62 157 0 7
-7 15 -14 17 -8 3 -11 10 -8 16 3 5 1 10 -5 10 -6 0 -8 5 -5 10 3 6 1 10 -5
10 -6 0 -10 6 -9 13 1 6 -4 26 -11 42 -23 54 -37 116 -42 185 -1 8 -5 17 -9
20 -5 3 -10 15 -12 25 -1 11 -6 25 -9 31 -4 5 -9 28 -12 51 -2 22 -8 57 -12
78 -4 21 -8 46 -8 54 -1 9 -8 36 -15 61 -15 48 -20 86 -24 162 -1 26 -6 50
-10 54 -4 4 -1 14 6 22 7 10 8 13 1 9 -7 -4 -14 3 -16 18 -3 15 -1 25 6 25 6
0 4 4 -4 10 -9 6 -15 30 -17 77 -1 37 -5 80 -8 96 -3 15 -2 27 3 27 5 0 6 21
2 47 -4 26 -5 53 -3 60 3 7 0 13 -7 13 -6 0 -8 5 -4 12 10 16 11 101 2 108 -3
3 -3 24 2 48 4 23 5 42 1 42 -18 0 -32 42 -19 58 11 13 11 14 -1 7 -11 -6 -13
-4 -8 8 3 10 2 17 -3 17 -6 0 -13 0 -17 0 -5 0 -8 -4 -8 -9 0 -18 -16 -25 -25
-12 -10 18 -1 43 13 34 6 -3 7 -1 3 6 -4 6 -2 20 6 29 11 15 11 16 -2 6 -8 -6
-32 -10 -52 -10 -21 1 -38 -2 -38 -6 0 -4 -13 -3 -30 2 -17 5 -30 5 -30 0 0
-5 -7 -7 -16 -3 -9 3 -19 1 -23 -5 -4 -7 -12 -6 -25 4 -12 9 -15 14 -7 14 8 0
2 9 -13 21 -14 11 -24 24 -21 28 2 5 -3 17 -11 27 -9 10 -13 13 -9 7 8 -16 -7
-17 -23 -1 -9 9 -12 9 -12 -1z"/>
<path d="M825 5307 c-16 -12 -26 -16 -21 -9 5 8 2 10 -8 6 -9 -3 -16 -9 -16
-13 0 -3 -14 -7 -31 -7 -17 -1 -35 -7 -39 -14 -4 -7 -24 -13 -44 -15 -22 -1
-43 -10 -51 -21 -15 -18 -15 -18 -8 1 6 18 5 19 -11 6 -9 -8 -16 -10 -14 -5 2
5 0 9 -3 9 -3 0 -13 8 -23 18 -10 9 -22 15 -27 12 -5 -4 -9 0 -9 7 0 10 -2 10
-9 -1 -5 -7 -14 -10 -20 -7 -6 4 -10 3 -9 -3 2 -5 -6 -17 -17 -25 -20 -15 -20
-15 -1 -16 18 0 18 -1 4 -12 -15 -12 -24 -50 -18 -70 1 -5 3 -12 4 -18 0 -5
10 -16 21 -25 19 -16 19 -16 -3 -5 -13 7 -26 9 -29 6 -3 -3 1 -8 10 -12 13 -5
14 -10 6 -25 -5 -11 -6 -19 0 -19 5 0 12 -7 15 -16 5 -14 4 -15 -8 -5 -12 11
-13 7 -4 -23 6 -19 14 -34 17 -32 3 2 7 -7 7 -20 1 -13 -2 -21 -8 -18 -5 3 -4
-3 4 -15 7 -12 16 -21 20 -21 4 0 12 -10 18 -22 11 -22 10 -22 -4 -4 -9 11
-16 16 -16 12 0 -11 36 -56 41 -52 2 3 5 -13 6 -35 1 -21 9 -46 17 -55 14 -14
14 -34 0 -34 -3 0 -3 4 1 9 3 5 1 12 -4 15 -5 4 -8 -2 -6 -11 2 -10 4 -18 5
-18 2 0 11 -38 12 -52 1 -7 6 -13 11 -13 5 0 4 -7 -3 -15 -10 -12 -10 -15 0
-15 10 0 10 -3 1 -14 -9 -11 -9 -16 0 -21 8 -6 7 -10 -2 -16 -10 -6 -11 -9 -2
-9 7 0 13 -10 13 -22 1 -100 6 -178 13 -178 4 0 3 -9 -3 -20 -8 -14 -8 -20 0
-20 6 0 9 -4 6 -9 -4 -5 0 -12 6 -14 10 -4 10 -8 -1 -15 -10 -7 -10 -11 -1
-17 6 -4 9 -13 6 -21 -3 -7 -1 -16 4 -19 5 -3 7 -15 5 -27 -3 -12 0 -27 6 -35
7 -7 8 -13 4 -13 -4 0 -3 -6 3 -13 7 -8 7 -18 2 -27 -5 -9 -5 -19 2 -27 7 -9
7 -13 -2 -13 -10 0 -10 -3 -1 -14 8 -10 9 -16 1 -21 -6 -3 -7 -12 -3 -18 12
-19 11 -51 -1 -59 -8 -5 -8 -8 0 -8 6 0 10 -16 9 -35 0 -19 4 -35 10 -35 5 0
3 -5 -5 -10 -11 -7 -12 -10 -2 -10 8 0 12 -6 9 -12 -2 -7 0 -23 4 -35 6 -16 5
-23 -4 -23 -8 0 -9 -3 -1 -8 19 -12 24 -51 6 -45 -11 5 -13 3 -6 -8 12 -20 15
-49 5 -49 -6 0 -6 -12 -1 -29 4 -15 4 -34 0 -42 -5 -7 -4 -21 1 -31 7 -14 6
-20 -6 -24 -8 -3 -12 -10 -9 -15 3 -5 0 -9 -7 -9 -8 0 -9 -3 0 -13 6 -8 8 -17
4 -21 -11 -11 -10 -40 2 -48 6 -4 2 -8 -7 -8 -10 0 -18 -5 -18 -11 0 -5 4 -7
10 -4 5 3 10 1 10 -4 0 -6 -5 -11 -11 -11 -8 0 -8 -5 1 -15 10 -12 10 -15 0
-15 -7 0 -10 -7 -6 -15 3 -8 0 -15 -7 -15 -8 0 -7 -3 2 -9 11 -7 12 -13 4 -23
-10 -14 -10 -99 2 -117 3 -6 2 -11 -3 -11 -5 0 -9 -7 -9 -15 0 -8 3 -15 7 -15
3 0 6 -10 7 -22 1 -38 11 -79 23 -93 7 -8 9 -19 5 -25 -3 -5 -2 -10 3 -10 6 0
16 -20 23 -45 7 -25 17 -45 22 -45 4 0 6 -4 3 -9 -5 -8 4 -22 46 -71 7 -8 12
-19 10 -24 -2 -5 3 -4 10 2 11 8 14 7 15 -6 3 -42 8 -60 14 -56 4 2 12 -10 19
-26 7 -16 16 -27 21 -24 5 3 9 -2 9 -11 0 -9 4 -13 10 -10 5 3 10 1 10 -4 0
-6 14 -24 30 -39 16 -16 30 -34 30 -41 0 -6 5 -11 11 -11 5 0 7 -4 4 -10 -3
-5 5 -15 19 -22 22 -9 24 -14 13 -26 -6 -9 -7 -13 -1 -9 6 3 16 -3 24 -13 8
-10 17 -17 22 -14 4 3 8 -2 8 -12 0 -12 6 -15 21 -11 16 4 19 3 11 -5 -8 -8
-7 -15 6 -25 9 -8 11 -11 3 -7 -9 5 -12 3 -7 -4 4 -7 14 -12 22 -12 8 0 12 -5
9 -10 -3 -6 6 -15 20 -20 15 -6 29 -19 32 -29 3 -13 12 -18 28 -16 17 1 22 -2
17 -13 -3 -10 -1 -13 6 -8 7 4 12 2 12 -4 0 -7 7 -9 16 -6 8 3 12 2 9 -4 -6
-9 8 -15 29 -11 5 1 6 -7 4 -17 -4 -15 -1 -18 13 -15 12 3 21 -1 25 -12 5 -13
9 -14 15 -3 7 10 9 9 9 -4 0 -11 7 -15 25 -14 13 2 22 -1 19 -5 -5 -8 10 -13
29 -10 5 1 6 -3 2 -9 -5 -9 1 -12 21 -9 3 0 13 -8 22 -19 9 -10 25 -21 35 -25
10 -4 16 -11 12 -16 -3 -5 -1 -12 5 -16 6 -4 8 -11 4 -16 -3 -5 0 -8 8 -7 7 2
12 -3 10 -10 -1 -8 2 -11 7 -8 5 4 13 1 16 -5 4 -5 13 -8 20 -5 7 2 16 -2 19
-11 4 -9 13 -13 23 -9 9 4 20 1 25 -6 6 -11 8 -10 8 0 0 7 5 10 10 7 6 -4 7
-12 3 -18 -5 -8 -2 -8 9 0 8 7 18 10 21 6 4 -3 7 -1 7 5 0 6 7 9 15 6 8 -4 12
-11 8 -18 -3 -6 -1 -6 8 2 16 14 33 16 24 2 -4 -7 3 -7 20 0 14 5 24 6 21 2
-2 -4 -1 -14 5 -22 7 -13 9 -13 9 0 1 12 3 11 11 -2 5 -10 21 -18 34 -18 15 0
31 -10 40 -24 11 -16 23 -22 40 -20 14 1 28 -3 32 -8 3 -7 1 -8 -5 -4 -8 5
-10 1 -5 -10 6 -16 7 -15 20 2 12 16 13 16 13 1 0 -9 5 -17 11 -17 5 0 7 5 4
11 -4 6 2 5 13 -2 12 -7 19 -16 17 -19 -2 -4 2 -7 10 -7 8 0 12 3 10 7 -2 3 5
6 15 6 14 0 16 -3 8 -13 -8 -10 -7 -12 6 -7 9 4 16 1 16 -6 0 -8 11 -11 30 -8
24 4 27 2 19 -9 -12 -14 -7 -16 30 -13 13 1 21 -3 17 -8 -3 -6 2 -9 11 -8 10
2 28 0 40 -5 14 -5 23 -4 27 4 2 7 5 4 5 -6 1 -10 5 -16 10 -13 5 4 12 0 14
-6 3 -8 6 -9 6 -2 1 14 52 6 64 -10 6 -7 7 -5 4 5 -4 13 -1 15 15 11 16 -4 19
-2 13 9 -7 12 -6 12 7 1 15 -12 88 8 88 24 0 3 -6 2 -13 -2 -9 -6 -9 -5 0 8 7
8 9 19 5 23 -4 5 -2 5 5 2 6 -4 14 -1 17 5 3 7 4 2 1 -12 -3 -14 -2 -19 1 -12
3 6 10 10 15 7 5 -4 6 0 3 8 -7 18 18 28 37 15 11 -7 9 -8 -6 -3 -16 5 -17 4
-8 -6 9 -9 15 -9 27 0 11 9 15 9 19 -1 4 -10 6 -10 6 0 1 6 13 12 27 12 14 0
23 4 20 8 -3 5 8 16 25 26 16 9 27 21 25 25 -3 3 4 7 14 7 15 0 17 -3 7 -15
-10 -12 -9 -13 8 -4 20 11 27 13 44 13 5 0 18 14 29 32 l21 32 6 -26 c9 -36
29 -41 69 -18 19 10 37 16 42 12 4 -4 4 -2 1 5 -9 15 2 45 14 37 5 -3 9 -2 8
3 -6 23 24 104 33 91 7 -9 8 -7 5 10 -4 15 -1 20 6 15 14 -9 41 -14 34 -6 -3
3 6 17 21 31 27 27 39 72 18 72 -6 0 -4 5 4 10 19 12 20 30 4 50 -13 15 -14
19 -14 46 0 8 -4 13 -9 10 -5 -3 -12 1 -15 10 -4 10 -2 13 7 9 6 -4 3 1 -7 9
-11 9 -16 16 -10 16 5 0 2 5 -6 10 -8 5 -15 19 -15 32 0 13 -5 22 -13 20 -10
-2 -10 2 -1 19 8 15 8 19 0 15 -10 -7 -15 8 -14 41 1 7 -3 11 -7 8 -5 -3 -12
0 -16 6 -4 7 -3 9 3 6 6 -4 13 3 16 14 5 20 27 18 27 -2 0 -6 -5 -7 -12 -3 -7
5 -8 3 -4 -5 6 -9 13 -8 28 6 11 10 22 17 25 15 3 -2 7 -1 10 2 3 3 -6 3 -20
0 -14 -2 -29 1 -32 7 -5 7 -14 4 -26 -7 -17 -15 -19 -15 -14 -2 4 9 1 19 -6
24 -8 5 -10 3 -4 -7 5 -8 0 -7 -12 4 -11 9 -22 14 -26 11 -4 -4 -5 3 -2 15 2
11 -2 26 -9 33 -7 7 -11 19 -8 26 2 6 -2 10 -10 9 -7 -2 -10 -2 -5 0 4 3 7 12
8 21 0 13 3 11 11 -5 6 -13 16 -23 21 -23 6 0 19 -8 30 -17 11 -10 17 -13 14
-7 -4 7 -1 17 7 23 11 9 13 6 11 -14 -2 -16 1 -23 7 -19 6 4 17 -1 25 -11 8
-12 13 -14 13 -6 0 11 3 11 16 0 14 -12 14 -14 -3 -20 -16 -7 -17 -8 0 -10 19
-2 36 -5 40 -9 7 -6 42 -8 51 -2 16 9 46 10 40 0 -3 -4 0 -8 6 -8 6 0 8 -5 4
-12 -4 -7 -3 -8 5 -4 6 4 9 11 6 16 -3 5 0 12 6 16 7 4 9 3 6 -2 -3 -5 2 -20
12 -32 16 -21 17 -22 17 -3 0 11 -4 17 -8 15 -4 -3 -5 2 -1 11 4 13 8 14 14 4
4 -7 5 -17 2 -23 -4 -5 1 -7 9 -3 12 4 15 0 11 -16 -5 -22 -5 -22 10 -2 16 20
16 20 12 -3 -4 -20 -2 -22 10 -12 11 9 15 9 15 1 0 -6 7 -11 16 -11 9 0 12 -5
8 -12 -6 -10 -4 -10 7 -1 7 7 18 13 23 13 6 0 4 -5 -4 -10 -13 -8 -12 -10 3
-10 10 0 16 -4 13 -8 -3 -5 1 -9 9 -9 8 0 12 3 10 7 -2 3 5 7 16 7 17 2 18 -1
8 -13 -6 -8 -9 -17 -5 -21 3 -3 6 -2 6 4 0 12 29 10 56 -5 12 -6 25 -8 29 -4
5 4 5 1 1 -6 -5 -8 -13 -9 -26 -2 -10 5 -22 10 -27 10 -4 -1 3 -7 16 -14 13
-7 33 -11 45 -9 14 3 17 2 9 -4 -9 -6 -7 -12 9 -22 18 -11 20 -11 15 3 -6 15
-4 14 18 -1 13 -10 25 -25 25 -33 1 -10 4 -9 10 5 8 18 9 18 9 -4 1 -19 4 -22
13 -13 12 12 52 -23 43 -38 -2 -4 7 -6 21 -4 17 1 24 -2 21 -10 -3 -7 0 -13 6
-14 30 -2 49 -9 55 -19 4 -5 15 -9 25 -7 11 1 17 -4 17 -17 0 -10 5 -19 11
-19 5 0 7 5 3 11 -5 8 -1 8 14 0 11 -6 22 -17 25 -25 5 -12 13 -13 37 -6 26 8
30 7 20 -4 -8 -11 -7 -14 7 -12 11 0 17 -5 15 -14 -3 -11 1 -10 17 4 19 17 19
17 14 -6 -4 -18 -3 -20 6 -8 8 11 11 12 11 2 0 -7 4 -11 9 -8 5 4 11 1 13 -4
2 -6 13 -12 26 -13 14 -1 21 -6 17 -15 -3 -10 1 -11 16 -7 14 5 19 3 15 -4 -5
-7 -1 -9 8 -5 9 3 16 1 16 -5 0 -6 7 -8 15 -5 9 4 18 -1 21 -11 4 -9 13 -14
21 -10 11 4 13 1 9 -10 -3 -9 -2 -14 3 -10 5 3 12 -1 14 -7 4 -10 6 -10 6 0 1
10 5 10 16 -2 17 -16 49 -11 38 7 -3 6 -1 7 5 3 6 -4 8 -14 5 -24 -5 -13 -3
-15 7 -5 10 9 16 8 27 -3 10 -10 19 -11 33 -4 15 8 20 6 25 -11 7 -20 7 -20
22 -2 13 16 14 16 9 1 -3 -10 0 -20 6 -24 7 -4 8 -3 4 4 -4 7 -2 12 3 12 6 0
11 -4 11 -10 0 -12 26 -14 33 -2 2 4 2 2 1 -5 -2 -7 1 -15 6 -18 6 -4 10 0 10
7 1 7 7 2 14 -11 13 -23 14 -24 20 -4 3 11 13 20 21 20 11 0 12 -4 4 -13 -8
-9 -5 -11 12 -7 14 4 20 2 16 -4 -4 -6 1 -10 11 -10 55 0 73 -4 66 -14 -4 -8
0 -8 15 0 17 9 22 9 27 -2 3 -8 16 -13 30 -11 13 1 24 -2 24 -7 0 -5 9 -9 20
-9 11 0 20 -6 20 -12 0 -9 4 -8 10 2 6 10 10 11 10 3 0 -7 11 -13 25 -13 14 0
25 -5 25 -11 0 -8 6 -7 17 2 11 10 14 10 9 2 -6 -12 24 -19 56 -14 4 0 5 -6 2
-14 -4 -8 -1 -15 5 -15 6 0 11 8 11 18 1 16 1 16 11 -1 6 -9 14 -15 20 -12 8
6 13 -8 10 -28 -1 -5 3 -6 9 -2 6 3 8 10 6 14 -3 4 1 8 8 8 8 0 12 -7 8 -15
-3 -10 -1 -13 6 -8 6 3 13 2 16 -3 3 -5 14 -7 25 -4 12 3 25 -4 36 -19 10 -12
15 -16 13 -8 -4 10 2 15 17 15 13 0 21 -3 18 -8 -2 -4 3 -10 11 -13 9 -3 13
-10 10 -15 -8 -13 10 -11 25 3 11 11 12 10 6 -1 -6 -11 -3 -13 13 -9 12 4 25
2 28 -3 3 -5 9 -7 14 -4 5 3 11 1 15 -5 3 -5 17 -10 31 -10 13 0 24 -6 24 -12
0 -9 4 -8 10 2 7 11 10 11 10 2 0 -7 5 -10 10 -7 6 4 7 11 4 17 -4 7 -2 8 5 4
6 -4 9 -16 6 -27 -4 -11 -2 -19 4 -19 6 0 10 5 8 11 -1 6 4 14 12 17 8 3 11 0
7 -7 -4 -6 -2 -11 4 -11 6 0 9 -4 6 -8 -3 -5 1 -9 9 -9 11 0 12 5 4 21 -8 17
-6 16 12 -4 11 -14 24 -25 28 -25 3 0 5 -4 3 -8 -1 -5 2 -6 8 -2 6 3 8 10 5
15 -3 5 -1 12 5 15 6 4 9 1 8 -5 -2 -7 7 -14 20 -16 16 -3 21 0 16 8 -4 7 -3
8 5 4 9 -6 9 -11 1 -21 -8 -10 -8 -15 1 -21 7 -4 9 -3 6 3 -4 6 0 14 9 17 8 3
12 2 9 -4 -9 -14 8 -12 24 3 9 7 11 7 8 1 -4 -7 0 -15 9 -18 8 -3 13 -2 10 2
-2 4 4 8 14 8 10 0 16 -4 14 -8 -7 -11 4 -10 26 2 15 8 18 7 14 -3 -3 -8 2
-14 10 -14 8 0 12 6 9 14 -4 9 0 11 11 7 9 -3 13 -10 10 -15 -3 -5 2 -6 10 -3
9 3 13 11 9 18 -4 8 -2 8 7 -1 7 -6 19 -9 28 -6 9 4 13 2 9 -4 -3 -5 0 -10 8
-10 8 0 12 4 9 9 -3 4 -1 8 5 8 5 0 12 -4 16 -9 3 -5 17 -6 33 -2 15 5 41 8
59 7 17 -1 30 1 27 3 -11 12 35 28 65 23 21 -3 32 -1 28 5 -3 5 0 10 8 10 7 0
12 -8 10 -19 -2 -10 0 -16 6 -13 5 4 7 11 4 16 -4 5 -1 9 6 9 7 0 22 8 33 17
20 17 20 17 7 0 -13 -17 -12 -18 15 -12 22 5 25 4 14 -4 -9 -7 -10 -11 -3 -11
14 0 44 40 38 50 -9 14 25 34 36 23 8 -8 6 -11 -6 -10 -19 2 -31 -38 -15 -48
6 -3 10 -2 10 4 0 6 8 7 17 4 12 -5 15 -2 11 8 -4 11 1 15 23 13 16 -1 26 2
23 7 -7 13 10 11 23 -2 8 -8 13 -7 18 2 5 8 4 10 -3 5 -7 -4 -12 -3 -12 2 0
17 13 22 27 10 11 -8 12 -7 7 6 -5 12 -2 15 12 9 10 -4 15 -2 11 3 -3 6 3 11
14 11 18 2 19 -1 8 -15 -7 -9 0 -4 15 11 19 19 32 25 39 19 16 -13 43 -7 63
13 9 9 23 14 30 11 8 -3 11 0 7 10 -3 8 1 14 11 14 15 0 21 12 17 34 -1 5 5 4
13 -4 11 -8 16 -9 16 -1 0 6 6 11 14 11 7 0 21 10 30 22 9 13 14 18 11 11 -3
-6 0 -15 6 -19 7 -4 9 -3 6 3 -4 6 1 19 11 30 9 10 13 13 8 6 -14 -21 1 -15
26 10 13 13 29 22 36 19 7 -2 12 1 12 7 0 6 13 24 30 39 24 23 27 31 17 42
-10 12 -9 12 5 1 15 -11 20 -10 33 3 19 19 39 21 29 3 -6 -8 -3 -8 9 2 9 7 24
10 33 7 14 -5 15 -4 5 8 -8 10 -9 16 -1 21 5 3 10 1 10 -5 0 -7 6 -8 19 0 14
7 22 7 27 -1 5 -9 11 -6 21 6 7 11 13 15 13 9 0 -5 4 -3 9 5 8 13 12 13 27 0
11 -9 15 -9 10 -1 -5 8 -1 12 11 12 11 0 25 6 32 13 9 7 12 8 7 0 -8 -14 17
-11 36 5 8 6 18 9 21 5 4 -3 7 -1 7 5 0 6 7 9 17 5 12 -5 14 -3 8 7 -6 9 -4
11 4 6 7 -5 10 -15 7 -25 -3 -9 2 -6 10 7 9 12 21 22 26 22 5 0 18 9 30 20 12
10 26 16 32 13 6 -4 5 0 -2 9 -10 13 -9 15 13 13 14 -2 25 1 25 7 0 5 6 8 13
5 6 -2 20 0 30 5 12 6 17 5 17 -4 0 -8 4 -6 11 4 6 12 20 16 44 14 25 -2 32 1
25 9 -13 16 55 12 74 -4 10 -8 16 -9 21 -1 3 6 11 8 16 5 5 -4 9 0 9 7 0 9 3
9 10 -2 7 -11 10 -11 10 -2 0 7 5 10 10 7 6 -3 10 -1 10 5 0 6 4 9 9 5 5 -3
13 -1 16 5 5 8 12 7 23 -2 9 -8 13 -8 9 -2 -6 11 19 29 36 26 4 -1 7 3 7 9 0
5 5 7 10 4 6 -4 7 -11 4 -17 -4 -7 -2 -8 4 -4 6 4 9 12 6 19 -3 9 11 13 47 15
28 1 58 7 67 14 12 10 14 10 8 1 -4 -7 -2 -13 3 -13 6 0 11 4 11 9 0 5 12 12
27 16 15 3 33 14 41 23 7 9 11 12 8 5 -7 -13 65 -14 74 -1 3 4 38 8 78 10 40
1 72 6 72 11 0 4 5 5 10 2 6 -3 10 -1 10 6 0 7 3 9 7 6 3 -4 12 -2 20 4 10 9
13 8 13 -1 0 -9 7 -7 21 6 12 10 24 18 28 18 3 -1 5 3 3 9 -2 6 4 5 12 -3 11
-8 16 -9 16 -1 0 6 3 10 8 9 13 -3 42 14 37 22 -3 5 6 7 19 6 14 -2 24 2 23 7
-1 6 3 12 8 12 18 3 50 19 63 32 7 7 21 13 29 13 9 0 13 3 10 7 -10 9 54 54
66 46 6 -3 7 -1 3 5 -4 7 -2 12 3 12 6 0 11 5 11 11 0 6 11 20 25 31 14 11 23
23 21 26 -6 11 51 62 60 54 5 -4 4 0 -3 7 -10 12 -8 18 9 33 12 10 18 18 15
18 -9 0 53 102 67 112 7 5 5 8 -4 8 -12 1 -11 3 3 11 9 6 14 15 11 21 -5 7 0
9 14 6 18 -5 20 -2 18 33 -2 22 0 39 4 39 4 0 11 7 14 16 3 8 2 12 -4 9 -15
-10 -12 -2 15 35 13 18 22 37 19 41 -3 5 0 9 6 9 7 0 10 6 7 14 -3 8 -3 17 0
20 4 3 7 23 8 44 3 53 14 84 28 75 7 -4 7 0 -1 10 -12 14 -11 19 7 38 22 24
23 27 23 72 1 15 5 27 10 27 5 0 7 4 3 9 -3 5 -1 12 4 16 5 3 8 14 6 25 -2 11
3 27 11 35 9 8 12 15 7 15 -4 0 -1 5 7 10 12 8 12 10 1 10 -10 0 -11 4 -3 12
5 7 12 22 14 33 1 11 12 28 22 38 11 9 16 20 13 24 -4 3 1 12 11 19 16 13 15
14 -5 20 -13 3 -20 10 -17 15 3 5 1 9 -4 9 -6 0 -8 8 -5 19 3 11 -2 21 -12 25
-9 3 -14 10 -11 14 3 5 -1 9 -8 9 -14 0 -15 -25 -1 -46 6 -10 4 -12 -5 -6 -10
6 -12 4 -7 -8 4 -11 2 -14 -9 -10 -12 4 -12 8 -2 21 11 13 10 15 -4 10 -9 -4
-19 -1 -22 7 -3 9 1 12 16 10 11 -3 17 -1 14 3 -4 4 -13 7 -19 7 -7 1 -11 5
-10 11 1 5 -9 10 -22 10 -16 0 -21 -4 -17 -15 3 -9 2 -13 -3 -9 -4 4 -14 3
-22 -3 -9 -9 -13 -8 -13 0 0 6 -9 11 -21 11 -20 0 -20 1 4 22 23 21 23 22 5
40 -10 10 -24 18 -32 18 -8 0 -15 8 -15 18 -1 38 -5 51 -12 46 -5 -2 -15 6
-24 20 -12 18 -23 23 -38 19 -12 -2 -27 -5 -34 -5 -6 -1 -8 -8 -5 -17 5 -13 3
-14 -9 -4 -12 9 -14 3 -15 -44 -1 -50 -5 -58 -35 -84 -19 -16 -33 -34 -31 -39
2 -9 -9 -13 -28 -12 -3 0 -6 -14 -7 -31 -2 -25 0 -29 8 -17 9 12 10 12 5 -3
-3 -10 -6 -24 -6 -31 0 -7 -7 -21 -16 -32 -15 -18 -15 -18 -5 3 14 27 14 33 1
33 -5 0 -10 -7 -10 -15 0 -8 -4 -15 -10 -15 -5 0 -10 -6 -10 -14 0 -8 -7 -16
-15 -20 -8 -3 -12 -11 -9 -19 3 -8 -2 -20 -10 -27 -9 -7 -13 -16 -10 -21 3 -5
-3 -6 -12 -2 -11 4 -15 3 -10 -5 3 -6 1 -14 -5 -17 -5 -4 -8 -14 -4 -23 3 -9
3 -13 -1 -10 -3 4 -13 0 -21 -8 -8 -8 -20 -11 -26 -7 -7 4 -6 -1 2 -10 12 -15
12 -17 -3 -11 -9 3 -16 1 -16 -5 0 -6 -7 -8 -17 -4 -9 4 -14 2 -11 -3 3 -5 0
-15 -8 -22 -8 -7 -14 -10 -14 -6 0 4 -9 -4 -21 -17 -12 -13 -25 -23 -30 -21
-5 1 -9 -5 -9 -13 0 -8 -6 -12 -13 -9 -7 2 -25 -9 -40 -26 -15 -16 -25 -30
-22 -30 3 0 -3 -9 -12 -20 -10 -11 -23 -20 -30 -20 -7 0 -13 -4 -13 -9 0 -5
-9 -11 -20 -14 -15 -4 -18 -10 -13 -24 7 -17 6 -17 -11 0 -19 18 -41 13 -33
-7 4 -9 -3 -11 -21 -8 -25 5 -26 4 -12 -13 8 -10 10 -16 3 -12 -14 9 -45 -2
-37 -14 3 -5 -6 -14 -20 -20 -14 -7 -23 -16 -20 -20 3 -5 -2 -9 -11 -9 -12 0
-15 -5 -11 -17 4 -10 4 -14 0 -10 -4 4 -17 -1 -28 -10 l-21 -18 20 24 20 24
-27 -18 c-16 -9 -28 -21 -28 -26 0 -5 -6 -8 -12 -7 -7 2 -12 -3 -10 -10 1 -8
-2 -11 -8 -7 -6 4 -22 -1 -36 -10 -13 -9 -28 -14 -33 -11 -5 3 -16 -3 -25 -13
-10 -11 -29 -22 -42 -25 -14 -4 -22 -11 -19 -15 3 -5 -3 -8 -12 -7 -10 2 -24
-4 -31 -13 -8 -9 -11 -10 -7 -3 3 6 1 12 -4 12 -6 0 -11 -4 -11 -9 0 -5 -7
-12 -16 -15 -10 -4 -13 -2 -8 7 4 6 -3 3 -15 -7 -22 -20 -22 -20 -16 0 6 17 6
18 -7 2 -8 -9 -21 -18 -29 -20 -7 -2 -19 -9 -25 -17 -9 -11 -12 -12 -19 -1 -6
9 -4 11 5 5 9 -6 11 -4 5 5 -6 10 -10 10 -19 -2 -6 -8 -19 -14 -29 -12 -12 2
-17 -2 -13 -11 3 -9 0 -12 -9 -8 -8 3 -12 10 -8 17 3 6 -3 2 -15 -8 -17 -14
-22 -16 -22 -5 0 12 -2 12 -9 0 -5 -7 -13 -11 -19 -7 -5 3 -12 0 -15 -8 -6
-14 -30 -16 -43 -3 -4 4 -13 2 -21 -4 -10 -9 -13 -8 -13 0 0 7 -5 9 -12 5 -19
-12 -48 -12 -48 0 0 6 -6 4 -13 -4 -7 -8 -21 -16 -32 -18 -11 -2 -29 -10 -41
-17 -12 -8 -30 -12 -40 -11 -10 2 -26 -3 -36 -11 -12 -11 -18 -11 -23 -3 -6 9
-9 9 -15 0 -5 -8 -51 -14 -141 -17 -165 -5 -169 -5 -169 -16 0 -4 -4 -6 -9 -2
-5 3 -12 1 -16 -5 -4 -6 -10 -8 -15 -5 -5 3 -16 -7 -25 -22 -9 -15 -14 -20
-11 -10 5 16 4 16 -18 2 -12 -8 -26 -12 -31 -8 -4 5 -5 2 -1 -5 4 -7 13 -9 19
-6 7 4 8 3 4 -2 -5 -5 -12 -9 -15 -9 -4 0 -13 -4 -21 -9 -10 -7 -12 -6 -6 4 6
10 2 12 -16 7 -13 -4 -28 -7 -32 -7 -5 0 -5 -4 -2 -10 3 -5 2 -10 -4 -10 -5 0
-12 6 -14 13 -4 9 -8 9 -16 -3 -5 -8 -7 -19 -4 -25 3 -5 0 -5 -6 1 -10 9 -19
9 -39 -2 -14 -7 -30 -10 -35 -7 -6 4 -7 1 -2 -7 6 -10 4 -12 -9 -7 -14 6 -17
3 -12 -10 6 -14 4 -15 -5 -6 -9 9 -15 8 -26 -3 -8 -8 -19 -12 -24 -8 -5 3 -4
-6 2 -20 7 -14 16 -23 22 -19 6 4 7 1 2 -7 -6 -10 -4 -12 9 -7 10 4 19 1 22
-8 4 -8 10 -13 15 -10 4 3 6 -3 4 -14 -2 -14 1 -18 11 -14 7 3 12 9 9 13 -3 5
3 7 12 6 9 -2 19 -9 21 -17 3 -12 2 -12 -6 0 -11 15 -21 4 -17 -20 2 -9 -3
-16 -11 -16 -7 0 -11 4 -8 9 3 4 -2 8 -11 8 -9 0 -14 -4 -11 -8 3 -5 -1 -9 -9
-9 -11 0 -11 4 2 23 13 21 13 23 -6 33 -11 6 -26 8 -34 5 -8 -3 -18 -1 -22 5
-4 7 0 8 10 4 15 -5 15 -3 4 15 -14 23 -21 21 -25 -6 -4 -21 15 -33 41 -25 20
6 20 5 1 -16 -19 -21 -43 -30 -31 -11 3 6 1 10 -4 10 -6 0 -11 -10 -11 -22 0
-17 -3 -19 -9 -10 -7 11 -9 10 -15 -3 -3 -9 -10 -13 -16 -10 -6 3 -13 0 -16
-9 -3 -8 -14 -13 -25 -11 -10 2 -19 0 -19 -6 0 -10 -41 -5 -61 7 -7 4 -9 3 -6
-3 5 -7 -7 -10 -33 -9 -22 0 -40 3 -40 6 0 3 -16 5 -35 5 -19 0 -35 -2 -35 -5
0 -3 -12 -5 -27 -4 -16 1 -43 -4 -60 -12 -18 -7 -35 -9 -37 -5 -3 4 -15 7 -28
5 -13 -1 -27 -3 -31 -3 -5 -1 -5 -6 -1 -12 4 -8 1 -8 -12 -1 -21 11 -47 5 -39
-9 4 -5 -1 -6 -9 -3 -9 3 -13 11 -10 18 3 6 -1 3 -9 -6 -8 -10 -16 -15 -19
-13 -5 5 -243 9 -263 5 -21 -5 -36 0 -30 10 3 6 -1 7 -9 4 -9 -3 -13 -11 -9
-18 4 -6 -1 -5 -11 3 -9 8 -28 16 -42 17 -22 2 -24 1 -12 -13 12 -15 11 -15
-12 -1 -14 9 -40 14 -57 13 -20 -2 -33 1 -33 8 0 7 -4 6 -9 -2 -8 -12 -12 -12
-25 -2 -9 8 -16 10 -16 6 0 -4 -8 -1 -17 6 -11 10 -14 10 -9 2 4 -7 2 -13 -3
-13 -6 0 -11 6 -11 13 0 8 -4 7 -10 -3 -8 -12 -10 -12 -10 -1 0 8 -7 11 -20 8
-11 -3 -20 -1 -20 5 0 6 -9 8 -20 5 -11 -3 -20 -1 -20 5 0 6 -9 8 -20 5 -11
-3 -20 0 -20 5 0 6 -6 5 -15 -2 -13 -11 -19 -8 -17 11 1 3 -13 5 -29 4 -16 -1
-32 2 -35 7 -3 5 -13 3 -22 -4 -12 -10 -14 -10 -8 0 8 13 7 13 -41 16 -18 1
-35 5 -38 8 -4 4 -18 3 -32 -3 -13 -5 -22 -6 -19 -1 2 4 -7 12 -20 19 -18 8
-22 8 -17 0 4 -7 -5 -4 -20 6 -15 9 -27 15 -27 12 0 -3 -8 -1 -18 4 -13 7 -23
6 -30 -1 -8 -8 -12 -8 -12 -2 0 6 -6 11 -12 12 -7 0 -22 3 -33 5 -11 3 -27 -2
-36 -9 -14 -13 -18 -12 -30 3 -13 16 -12 17 3 5 9 -8 19 -9 22 -4 8 14 -28 21
-48 10 -9 -5 -16 -5 -16 -1 0 5 -10 10 -22 11 -38 4 -52 7 -67 16 -10 7 -12 6
-6 -4 6 -9 1 -8 -14 3 -13 8 -30 13 -38 10 -8 -3 -18 -1 -22 5 -4 6 -22 12
-41 14 -19 1 -41 8 -48 15 -8 7 -17 11 -22 8 -4 -3 -10 1 -13 9 -3 8 -16 12
-31 11 -14 -2 -26 0 -26 5 0 4 -14 7 -31 6 -16 -1 -33 2 -36 6 -2 5 -11 1 -18
-9 -16 -21 -16 2 -1 26 7 11 4 11 -14 -2 -20 -14 -25 -14 -45 -1 -12 8 -25 11
-30 7 -4 -5 -5 -2 -1 5 4 6 2 12 -4 12 -6 0 -9 4 -6 8 6 11 -40 9 -50 -1 -11
-11 -26 -8 -19 3 3 6 -1 10 -10 10 -10 0 -13 5 -9 13 5 8 2 8 -9 -2 -12 -9
-17 -10 -17 -2 0 7 -5 9 -10 6 -6 -3 -10 -1 -10 5 0 6 -4 8 -10 5 -6 -3 -10 2
-11 12 0 16 -1 16 -9 -2 -7 -17 -9 -17 -9 -2 -1 9 -6 17 -12 17 -5 0 -8 -4 -5
-9 9 -13 -37 0 -52 16 -8 7 -18 11 -23 8 -5 -4 -9 -2 -9 4 0 6 -6 8 -13 5 -8
-3 -20 2 -27 11 -10 12 -16 13 -26 4 -8 -6 -14 -7 -14 -2 0 12 -50 37 -67 34
-7 -1 -13 3 -13 10 0 8 -4 8 -15 -1 -13 -11 -18 -10 -29 5 -7 10 -18 15 -23
12 -6 -4 -14 0 -17 8 -4 13 -10 14 -26 5 -16 -9 -22 -8 -26 5 -3 8 -15 15 -25
15 -10 0 -19 5 -19 11 0 6 -9 9 -19 6 -11 -3 -30 3 -43 11 -13 9 -31 15 -40
14 -10 -2 -18 2 -18 9 0 7 -3 10 -6 6 -4 -3 -19 0 -35 9 -19 9 -29 11 -29 4 0
-7 -6 -5 -15 3 -8 9 -25 13 -37 10 -19 -4 -20 -3 -8 6 12 8 7 11 -23 11 -28 0
-36 3 -31 13 5 7 1 7 -12 -3 -10 -8 -16 -10 -12 -6 13 16 -25 35 -46 24 -13
-7 -16 -7 -12 1 6 10 -13 16 -36 12 -5 0 -8 3 -8 9 0 5 -11 10 -24 10 -13 0
-26 4 -28 10 -1 5 -15 11 -30 12 -16 1 -28 8 -28 16 0 7 -4 10 -10 7 -5 -3
-10 -3 -10 2 0 9 -48 33 -67 33 -7 0 -13 4 -13 10 0 5 -7 6 -17 3 -10 -4 -14
-2 -9 5 3 6 2 13 -4 17 -5 3 -10 2 -10 -3 0 -5 -15 -4 -35 2 -19 6 -35 14 -35
18 0 4 -12 3 -26 -2 -15 -6 -23 -6 -19 -1 3 5 1 12 -5 16 -5 3 -10 0 -10 -7 0
-10 -2 -10 -8 -1 -5 7 -26 11 -55 9 -27 -1 -47 2 -47 8 0 5 -7 1 -16 -10 -8
-10 -13 -13 -9 -6 4 8 -1 12 -15 12 -13 0 -19 -4 -14 -11 4 -8 0 -8 -15 0 -14
8 -21 8 -21 1 0 -7 -7 -7 -21 1 -12 6 -19 7 -15 1 3 -5 -1 -13 -10 -16 -8 -3
-12 -2 -9 4 3 6 2 10 -4 10 -5 0 -13 -5 -16 -10 -4 -6 -12 -7 -18 -4 -7 4 -9
4 -5 -1 4 -4 -7 -19 -24 -32 -18 -12 -28 -24 -22 -24 5 -1 15 -2 23 -3 8 0 15
-7 17 -14 1 -7 0 -8 -3 -2 -2 5 -9 10 -14 10 -6 0 -7 -5 -3 -12 4 -6 3 -8 -4
-4 -6 3 -14 1 -17 -4 -5 -8 -13 -6 -26 6 -10 9 -19 13 -19 8 0 -18 -124 -10
-154 10 -18 11 -24 21 -18 25 7 4 3 12 -11 20 -21 13 -21 13 -7 -4 14 -16 13
-17 -6 -11 -18 5 -21 2 -21 -18 0 -26 -36 -80 -47 -69 -3 3 -6 1 -6 -6 0 -7
-4 -10 -9 -7 -5 4 -8 -2 -6 -11 1 -10 -2 -23 -7 -30 -6 -7 -5 -14 3 -19 8 -5
9 -3 4 6 -5 9 -4 11 3 6 7 -4 12 -14 12 -22 0 -8 7 -17 15 -20 8 -4 13 -9 10
-14 -2 -4 7 -6 20 -4 16 1 25 -3 25 -12 0 -8 6 -11 17 -7 12 5 14 3 8 -7 -5
-9 -4 -11 4 -6 6 4 19 2 28 -6 10 -7 14 -8 10 -1 -9 15 19 11 36 -6 9 -10 8
-11 -8 -5 -17 7 -15 2 9 -31 16 -21 24 -35 16 -30 -9 5 -11 4 -6 -3 4 -7 14
-12 22 -12 8 0 12 -4 9 -10 -3 -5 3 -11 14 -11 33 -2 39 -4 46 -11 12 -11 34
3 28 18 -3 8 -10 11 -17 7 -18 -12 -36 -12 -36 -1 0 5 6 8 13 5 6 -2 20 3 30
12 10 8 17 11 16 6 -5 -17 11 -53 26 -59 8 -3 15 -1 15 3 0 5 -6 11 -12 14
-10 3 -10 8 1 18 9 9 11 9 7 2 -9 -16 10 -17 19 -3 5 8 11 7 20 0 8 -7 19 -9
24 -6 5 4 13 1 16 -5 12 -19 -4 -22 -29 -6 -22 15 -36 13 -36 -4 0 -5 7 -6 15
-3 11 5 14 1 9 -12 -4 -14 -3 -16 4 -5 8 10 14 11 32 1 18 -10 21 -9 15 1 -6
9 -3 11 9 6 14 -6 15 -3 5 14 -6 11 -8 23 -5 27 3 3 6 0 6 -6 0 -7 7 -12 16
-12 8 0 13 -4 10 -8 -2 -4 -1 -14 5 -22 5 -8 9 -10 9 -4 0 7 14 14 30 16 19 3
29 1 27 -6 -3 -6 -10 -10 -16 -8 -7 1 -10 -2 -6 -8 9 -15 44 11 38 29 -3 13
-2 12 7 -1 6 -9 17 -15 25 -12 8 4 15 1 15 -5 0 -6 0 -14 0 -18 0 -4 -7 -8
-15 -9 -12 -2 -14 1 -5 11 9 10 7 13 -5 11 -8 -1 -15 -5 -15 -9 0 -4 0 -12 0
-18 0 -6 6 -9 14 -6 8 3 17 0 20 -8 5 -13 46 -17 46 -5 0 15 -14 19 -27 9 -9
-9 -13 -8 -13 0 0 6 5 11 10 11 26 0 51 20 42 34 -3 5 0 6 7 2 6 -4 9 -12 6
-17 -7 -10 19 -7 48 6 9 4 23 2 31 -4 7 -6 17 -7 21 -3 5 4 5 2 1 -5 -5 -9 5
-11 33 -10 30 2 37 -1 33 -12 -3 -9 -1 -12 5 -8 7 5 9 -1 5 -15 -3 -13 -1 -19
6 -15 12 8 11 -11 -2 -31 -6 -11 -11 -11 -24 0 -10 8 -13 9 -9 1 4 -6 3 -14
-3 -18 -5 -3 -10 -1 -10 6 0 8 -4 9 -13 0 -10 -8 -17 -7 -26 2 -10 9 -11 8 -5
-7 6 -16 4 -18 -10 -13 -10 4 -15 3 -11 -3 3 -6 -1 -10 -10 -10 -10 0 -13 5
-9 12 4 7 3 8 -5 4 -6 -4 -9 -11 -7 -15 12 -19 -12 -35 -30 -20 -10 8 -15 9
-11 3 4 -7 -4 -19 -18 -28 -15 -10 -23 -22 -19 -28 5 -8 1 -9 -10 -5 -10 4
-15 3 -11 -3 11 -17 -32 -49 -57 -42 -29 7 -52 29 -38 37 6 4 5 13 -2 25 -7
10 -16 16 -20 14 -4 -3 -8 1 -8 8 0 7 -9 24 -20 38 -11 14 -20 29 -20 34 0 6
7 1 15 -10 14 -17 14 -17 3 10 -7 15 -14 24 -16 18 -2 -6 -10 -8 -18 -5 -7 3
-12 9 -9 13 3 5 1 11 -5 15 -5 3 -10 -1 -10 -9 0 -9 -4 -16 -10 -16 -5 0 -7 6
-4 14 3 8 0 17 -7 22 -8 5 -10 3 -4 -7 5 -9 1 -8 -11 3 -15 13 -31 16 -69 12
-28 -3 -58 -6 -67 -7 -10 -1 -18 -5 -18 -9 0 -4 -7 -4 -17 -1 -11 5 -14 3 -8
-6 6 -10 3 -11 -12 -2 -14 7 -23 7 -30 0 -8 -8 -13 -7 -17 0 -5 8 -13 8 -27 1
-14 -8 -19 -7 -19 2 -1 8 -5 7 -14 -4 -7 -10 -16 -15 -19 -11 -4 3 -9 -2 -13
-11 -3 -9 -10 -14 -14 -11 -11 7 -41 -5 -36 -14 6 -9 -37 -6 -54 4 -9 5 -11 4
-6 -3 5 -8 2 -10 -8 -6 -9 3 -16 11 -16 16 0 6 -6 6 -14 -1 -10 -8 -16 -9 -21
-2 -8 13 -55 11 -74 -3 -12 -9 -13 -8 -6 4 8 13 7 13 -8 1 -10 -8 -20 -11 -23
-8 -3 3 -17 2 -31 -4 -16 -6 -22 -6 -18 1 3 6 -3 10 -14 10 -11 0 -24 -6 -28
-13 -6 -10 -11 -10 -25 4 -14 15 -14 18 -2 23 8 3 13 2 10 -2 -3 -5 1 -9 9 -9
11 0 12 4 4 13 -6 7 -19 11 -30 9 -17 -4 -34 13 -39 40 -1 6 -6 9 -12 7 -5 -1
-6 2 -3 8 4 6 13 9 21 6 7 -3 16 -1 19 5 4 5 3 9 -2 8 -22 -4 -25 3 -7 17 10
8 14 13 7 10 -6 -4 -16 1 -21 10 -5 9 -13 15 -18 14 -5 -1 -10 4 -13 11 -2 7
1 9 8 5 7 -5 9 -1 4 10 -6 15 -7 15 -15 0 -6 -11 -5 -22 2 -32 20 -23 3 -16
-23 10 -16 16 -23 33 -22 50 2 14 0 25 -3 25 -26 -4 -52 3 -47 11 3 6 -1 10
-10 10 -9 0 -14 4 -10 9 3 5 -1 16 -9 24 -8 8 -12 17 -9 21 4 3 1 6 -6 6 -7 0
-9 5 -6 10 3 6 -1 10 -9 10 -9 0 -13 6 -10 14 3 8 0 17 -5 21 -6 3 -9 11 -6
16 9 13 -9 11 -25 -3 -8 -7 -6 -2 5 11 11 14 14 21 8 17 -9 -5 -13 0 -13 17 0
14 -6 29 -12 35 -7 6 -12 29 -12 51 2 30 -2 41 -13 41 -8 0 -11 5 -8 10 3 6 1
10 -6 10 -9 0 -9 3 0 14 9 11 9 15 -1 19 -10 4 -10 6 0 6 6 1 12 13 12 27 0
17 4 23 13 18 9 -6 9 -5 0 8 -17 20 -4 31 16 15 14 -10 14 -10 3 5 -8 9 -11
22 -8 27 7 11 -32 36 -42 27 -3 -3 1 -6 8 -6 10 0 11 -3 3 -11 -15 -15 -37 -1
-24 15 7 9 7 16 -1 24 -9 9 -9 12 2 12 12 0 12 2 2 9 -17 11 -17 21 0 32 7 5
8 9 2 9 -6 0 -11 13 -11 30 0 16 -8 40 -19 52 -15 18 -16 20 -1 9 10 -8 17 -9
17 -3 0 6 -4 13 -9 16 -11 7 -9 32 4 43 4 5 4 1 0 -7 -8 -13 -7 -13 9 0 11 8
14 16 7 18 -8 3 -8 9 -1 23 8 14 7 19 -2 19 -9 0 -9 3 2 10 9 6 10 10 3 10 -7
0 -17 9 -23 20 -9 16 -8 19 7 13 13 -5 15 -3 10 11 -5 11 -3 15 5 10 8 -5 9
-2 5 9 -3 10 -3 17 1 17 4 0 7 11 7 25 0 14 -6 25 -13 25 -7 0 -10 5 -7 10 4
6 11 8 16 5 5 -3 6 1 3 9 -3 9 -9 16 -13 16 -3 0 -12 10 -20 23 l-14 22 22
-19 c17 -16 21 -16 16 -4 -5 13 -1 16 19 14 14 -2 23 0 21 4 -3 4 3 14 12 21
9 8 14 9 11 4 -4 -6 -3 -17 1 -24 6 -9 11 -10 15 -2 4 6 2 11 -5 11 -8 0 -8 4
1 15 7 8 11 15 9 16 -37 7 -79 5 -79 -5 0 -6 -5 -4 -10 4 -10 15 -16 2 -11
-24 1 -5 -5 -4 -13 4 -9 7 -16 9 -16 5 0 -4 -8 -1 -17 6 -15 12 -16 12 -10 -4
4 -10 3 -16 -2 -12 -5 3 -17 -5 -26 -17 l-16 -23 4 24 c4 28 33 52 53 44 10
-4 12 0 8 11 -4 9 -1 16 6 16 10 0 10 3 1 14 -9 11 -9 15 1 18 10 4 8 9 -5 22
-9 10 -15 22 -12 27 4 5 1 9 -4 9 -6 0 -11 7 -11 16 0 8 -4 13 -8 10 -8 -4
-11 10 -15 64 -1 14 -8 31 -15 39 -7 7 -11 20 -7 29 3 8 1 20 -4 26 -5 6 -12
25 -15 41 -3 17 -8 40 -12 53 -4 15 -2 22 7 22 10 1 10 3 -2 10 -10 6 -15 20
-13 36 2 20 -1 24 -14 19 -14 -5 -14 -4 1 12 11 13 13 23 7 33 -5 8 -10 39
-10 69 0 39 -5 58 -17 68 -10 8 -12 12 -5 8 6 -3 12 -2 12 4 0 5 -6 12 -12 14
-10 4 -10 6 0 6 6 1 12 6 12 12 0 6 -7 8 -16 5 -8 -3 -12 -2 -9 4 3 5 7 28 9
51 3 37 2 41 -9 25 -8 -11 -15 -13 -20 -7 -3 6 -2 11 3 11 5 0 12 13 14 29 2
17 2 28 -2 26 -3 -2 -4 32 -2 77 2 56 0 78 -8 73 -6 -4 -9 -1 -8 7 2 7 -2 12
-7 11 -6 -1 -12 7 -12 18 -1 10 3 19 8 19 6 0 8 -4 5 -9 -11 -17 23 -36 37
-21 9 10 9 11 0 6 -21 -11 -20 78 0 103 9 11 9 13 1 8 -12 -7 -29 21 -19 31 3
3 5 0 5 -6 0 -7 4 -12 9 -12 5 0 7 10 3 22 -4 16 -2 19 8 13 9 -5 11 -4 6 4
-4 6 -11 9 -16 6 -5 -3 -8 8 -8 24 1 19 5 28 12 24 6 -4 5 1 -3 10 -7 9 -11
23 -8 32 4 8 2 17 -4 20 -5 4 -6 12 -3 18 4 7 3 9 -1 4 -5 -4 -18 -1 -30 7
-18 12 -24 11 -50 -7z"/>
</g>
</svg>
