<?xml version="1.0" standalone="no"?>
<!DOCTYPE svg PUBLIC "-//W3C//DTD SVG 20010904//EN"
 "http://www.w3.org/TR/2001/REC-SVG-20010904/DTD/svg10.dtd">
<svg version="1.0" xmlns="http://www.w3.org/2000/svg"
 width="1024.000000pt" height="1024.000000pt" viewBox="0 0 1024.000000 1024.000000"
 preserveAspectRatio="xMidYMid meet">
<metadata>
Created by potrace 1.16, written by Peter Selinger 2001-2019
</metadata>
<g transform="translate(0.000000,1024.000000) scale(0.100000,-0.100000)"
fill="#000000" stroke="none">
<path d="M5551 9617 c-21 -21 -22 -21 -15 -2 7 17 6 18 -8 7 -13 -10 -17 -10
-21 0 -3 10 -9 11 -25 1 -13 -8 -23 -9 -27 -3 -3 5 -12 7 -20 4 -8 -4 -12 -11
-8 -17 4 -6 1 -7 -7 -2 -19 12 -78 12 -73 0 2 -6 -7 -11 -19 -12 -17 -2 -19 0
-8 7 9 6 3 8 -20 5 -19 -2 -39 -4 -44 -4 -5 -1 -2 -9 5 -18 12 -16 12 -17 -1
-6 -25 19 -86 21 -74 1 4 -7 3 -8 -4 -4 -18 11 -73 16 -67 5 4 -5 2 -9 -4 -9
-5 0 -13 5 -16 10 -3 6 -11 10 -17 10 -6 0 -3 -10 8 -22 15 -18 16 -20 2 -9
-10 7 -27 11 -39 8 -15 -4 -18 -2 -10 7 8 9 7 13 -4 13 -7 0 -14 -3 -13 -6 2
-19 -4 -28 -17 -28 -8 0 -15 4 -15 8 0 4 -7 9 -15 13 -12 4 -13 2 -5 -13 10
-20 -10 -25 -27 -6 -4 4 -2 5 6 0 10 -5 12 -4 7 4 -4 6 -13 8 -19 4 -7 -4 -25
-8 -41 -9 -15 -1 -32 -7 -37 -15 -7 -11 -9 -11 -9 -1 0 8 -5 10 -12 5 -7 -4
-39 -9 -70 -9 -39 -1 -69 -9 -93 -23 -20 -12 -33 -15 -29 -9 4 7 -5 2 -21 -12
-16 -14 -24 -18 -20 -10 8 13 6 13 -8 2 -9 -8 -20 -11 -26 -8 -5 3 -11 0 -13
-6 -3 -7 -13 -13 -24 -13 -12 0 -19 -6 -18 -17 1 -11 -5 -15 -17 -13 -10 2
-22 -1 -25 -7 -5 -7 -2 -8 6 -3 8 5 11 4 7 -2 -4 -6 -20 -16 -37 -23 -16 -7
-30 -18 -30 -26 0 -7 -5 -16 -12 -20 -7 -4 -8 -3 -4 4 4 7 2 12 -3 12 -6 0
-11 -7 -11 -15 0 -8 -7 -15 -15 -15 -8 0 -15 -4 -15 -10 0 -5 -11 -10 -25 -10
-14 0 -25 -5 -25 -12 0 -6 -3 -8 -7 -4 -4 3 -13 -4 -21 -16 -7 -13 -11 -16 -8
-6 5 16 -9 19 -31 5 -7 -5 -17 -5 -23 -2 -5 3 -10 2 -10 -4 0 -5 6 -12 13 -14
9 -4 9 -6 0 -6 -6 -1 -15 4 -18 9 -8 13 -35 13 -35 -1 0 -5 6 -7 13 -3 6 4 8
3 4 -1 -14 -16 -36 -14 -31 3 5 14 4 14 -6 -1 -6 -9 -8 -23 -5 -30 4 -6 0 -4
-8 6 -18 22 -31 22 -23 0 6 -14 3 -14 -15 3 -12 10 -19 13 -15 7 5 -9 1 -13
-10 -13 -10 0 -29 -10 -42 -22 -14 -13 -22 -17 -18 -10 4 7 1 12 -8 12 -9 0
-16 -6 -16 -12 0 -10 -3 -9 -9 1 -5 8 -11 9 -15 3 -4 -6 2 -16 11 -22 16 -10
16 -11 -2 -4 -11 4 -27 6 -35 6 -17 -1 -63 -9 -70 -12 -3 -1 -9 -2 -13 -1 -5
1 -5 -4 -1 -10 5 -9 2 -10 -10 -6 -10 4 -15 3 -11 -3 3 -6 1 -10 -5 -10 -6 0
-8 -6 -4 -12 5 -10 4 -10 -5 -2 -13 12 -71 6 -71 -8 0 -5 5 -6 12 -2 7 5 8 3
4 -5 -5 -7 -11 -10 -14 -7 -3 3 -14 -1 -24 -11 -10 -9 -18 -11 -18 -6 0 6 7
13 15 17 8 3 15 11 14 18 0 10 -2 10 -6 1 -2 -7 -11 -13 -18 -13 -7 0 -16 -6
-18 -12 -4 -9 -6 -9 -6 1 -1 11 -5 10 -16 -5 -15 -19 -15 -19 -8 1 6 17 5 18
-9 7 -9 -7 -20 -12 -24 -11 -22 4 -44 -2 -44 -12 0 -5 4 -8 8 -5 5 3 9 -1 9
-9 0 -8 -5 -11 -11 -7 -23 15 -74 9 -68 -8 5 -13 3 -13 -10 -2 -14 11 -18 10
-28 -8 -8 -15 -15 -18 -27 -12 -17 10 -73 -6 -73 -21 0 -5 8 -6 18 -2 36 15
55 15 23 0 -32 -14 -36 -14 -54 2 -11 10 -18 14 -16 8 3 -5 -7 -22 -22 -36
-21 -20 -29 -23 -33 -13 -7 18 -34 7 -38 -14 -3 -13 -5 -12 -10 6 -3 12 -2 20
3 16 5 -3 9 0 9 6 0 8 -7 9 -17 5 -10 -4 -22 -8 -28 -9 -5 -1 -16 -5 -22 -9
-7 -5 -17 -5 -23 -2 -5 3 -7 0 -4 -9 5 -13 1 -14 -24 -6 -25 6 -30 5 -25 -6 3
-8 10 -11 16 -7 6 3 7 1 3 -6 -4 -6 -12 -9 -17 -6 -19 12 -50 14 -43 3 5 -7 1
-9 -9 -5 -10 3 -17 2 -17 -3 0 -6 -16 -10 -36 -10 -21 0 -33 -4 -29 -10 4 -6
11 -7 17 -4 7 4 8 2 4 -4 -5 -9 -13 -9 -27 -2 -14 8 -19 7 -19 -1 0 -6 -7 -8
-16 -5 -15 6 -15 4 -3 -11 9 -11 9 -14 2 -9 -7 4 -22 2 -34 -5 -13 -7 -24 -7
-28 -2 -7 12 -42 13 -35 1 3 -5 11 -5 17 -2 9 5 9 4 0 -6 -6 -7 -9 -20 -6 -29
4 -13 3 -14 -5 -1 -6 8 -9 17 -6 21 2 4 -5 9 -16 12 -11 3 -20 2 -20 -3 0 -4
-7 -11 -16 -14 -15 -6 -15 -4 -3 10 13 16 12 16 -11 4 -14 -7 -31 -20 -38 -29
-8 -9 -11 -11 -8 -4 4 6 2 14 -4 18 -5 3 -10 1 -10 -5 0 -7 -7 -10 -15 -6 -16
6 -20 -4 -7 -20 4 -5 -1 -1 -10 9 -13 14 -22 16 -36 8 -11 -6 -22 -7 -26 -4
-3 3 -6 1 -6 -5 0 -6 -7 -9 -15 -6 -8 4 -15 1 -15 -5 0 -6 -5 -11 -11 -11 -5
0 -8 4 -5 8 3 5 -1 9 -9 9 -8 0 -12 -3 -10 -7 2 -3 -6 -12 -18 -20 -20 -12
-21 -12 -8 4 8 9 11 19 7 23 -3 3 -6 1 -6 -6 0 -7 -8 -11 -17 -9 -10 1 -24 -1
-30 -5 -22 -14 -52 -16 -59 -5 -5 7 -2 8 6 3 9 -6 11 -4 6 4 -6 9 -12 9 -25
-3 -10 -9 -21 -13 -26 -9 -4 5 -5 0 -2 -10 4 -10 3 -16 -2 -12 -5 3 -11 2 -14
-2 -2 -5 -3 -3 -1 4 5 19 -8 23 -21 6 -9 -13 -14 -13 -20 -3 -6 9 -4 11 5 5 9
-5 11 -4 6 4 -4 6 -12 9 -17 5 -5 -3 -7 -10 -4 -15 4 -5 2 -9 -3 -9 -6 0 -13
7 -16 16 -5 13 -9 14 -20 5 -10 -8 -16 -9 -21 -1 -10 16 -27 0 -21 -19 5 -14
5 -14 -7 1 -8 9 -22 17 -33 18 -53 1 -74 5 -74 13 0 5 -7 4 -15 -3 -12 -10
-15 -10 -15 0 0 7 -7 10 -15 6 -8 -3 -15 -1 -15 5 0 6 -7 17 -15 25 -8 9 -15
12 -15 8 0 -3 -7 -1 -15 6 -8 7 -15 9 -15 6 0 -4 -6 -1 -14 6 -8 7 -12 16 -10
20 3 4 -5 5 -16 3 -11 -2 -20 1 -20 6 0 6 -4 8 -9 5 -5 -3 -12 1 -15 10 -3 8
-10 12 -16 9 -5 -3 -10 -2 -10 3 0 14 -38 22 -44 8 -2 -6 -5 -4 -5 5 -1 9 -8
20 -17 23 -10 4 -13 2 -8 -7 6 -9 4 -9 -7 -1 -8 6 -22 10 -32 9 -9 -2 -17 1
-17 7 0 5 -8 8 -17 6 -10 -1 -24 1 -31 5 -7 5 -12 4 -12 -3 0 -8 -6 -8 -20 0
-15 8 -20 8 -20 -1 0 -8 -4 -9 -13 0 -8 6 -17 8 -20 4 -4 -3 -7 0 -7 8 -1 10
-4 9 -11 -4 -6 -10 -15 -14 -22 -10 -19 11 -67 13 -67 2 0 -6 -4 -8 -8 -5 -4
2 -14 1 -22 -4 -8 -5 -22 -5 -32 1 -21 11 -24 0 -5 -21 10 -12 9 -12 -5 -2
-24 19 -72 26 -62 10 6 -10 3 -9 -9 1 -15 12 -17 11 -17 -5 0 -16 -2 -17 -10
-4 -6 9 -13 11 -18 5 -4 -5 -13 -10 -19 -11 -7 -1 -24 -2 -36 -2 -14 -1 -29
-12 -36 -24 -6 -13 -9 -15 -7 -5 3 9 1 17 -4 17 -6 0 -10 -4 -10 -10 0 -5 -6
-9 -12 -7 -7 1 -12 -5 -10 -13 3 -12 1 -12 -9 -3 -13 13 -42 6 -33 -8 3 -5 -2
-9 -11 -9 -21 0 -77 -39 -71 -49 8 -12 -28 -9 -37 3 -5 6 -6 0 -3 -14 5 -24 4
-24 -9 -6 -8 11 -15 15 -15 9 0 -6 -12 -9 -26 -7 -18 2 -24 -2 -20 -11 3 -9
-2 -12 -15 -10 -17 3 -19 0 -13 -18 6 -22 6 -22 -9 -2 -16 21 -19 2 -4 -22 4
-7 0 -16 -9 -21 -19 -11 -20 -22 -2 -33 7 -5 8 -9 2 -9 -6 0 -11 -7 -11 -15 0
-8 4 -15 9 -15 10 0 5 -61 -7 -80 -5 -8 -4 -11 3 -6 15 9 21 -15 10 -43 -5
-15 -4 -28 3 -37 6 -8 7 -14 2 -14 -5 0 -10 -7 -10 -15 0 -8 5 -15 11 -15 8 0
8 -2 0 -8 -15 -10 -27 -45 -12 -36 7 5 9 2 5 -9 -3 -9 4 -26 19 -42 26 -28 31
-40 11 -29 -9 6 -9 5 -1 -7 7 -8 11 -25 10 -39 -1 -14 1 -33 6 -42 7 -14 5
-16 -7 -12 -11 5 -13 2 -9 -10 3 -9 2 -16 -4 -16 -6 0 -9 -8 -8 -17 2 -10 -4
-24 -13 -31 -9 -8 -10 -11 -4 -7 9 4 11 1 7 -9 -3 -9 -10 -14 -14 -11 -4 3
-13 -9 -20 -25 -7 -17 -17 -30 -22 -30 -5 0 -6 -4 -3 -10 3 -5 1 -10 -5 -10
-6 0 -9 -4 -6 -9 3 -5 -1 -14 -9 -21 -12 -10 -13 -16 -3 -28 10 -13 10 -14 1
-8 -12 6 -15 0 -12 -20 0 -4 -5 -11 -13 -15 -10 -7 -10 -9 2 -9 13 0 13 -1 0
-10 -13 -9 -13 -10 0 -10 12 -1 11 -3 -3 -11 -13 -8 -15 -15 -8 -28 7 -12 6
-22 -2 -31 -10 -10 -9 -11 3 -5 10 6 9 2 -3 -12 -11 -13 -14 -23 -8 -27 6 -4
7 -15 1 -30 -5 -15 -5 -27 3 -35 8 -8 8 -11 0 -11 -7 0 -9 -14 -6 -36 3 -24 0
-39 -9 -45 -11 -7 -11 -9 1 -9 11 0 11 -3 1 -15 -13 -16 -4 -39 12 -29 7 5 8
2 4 -5 -5 -7 -14 -10 -21 -7 -9 3 -12 -9 -11 -45 0 -27 -3 -49 -9 -49 -5 0 -3
-5 5 -10 8 -5 11 -10 5 -10 -5 0 -11 -30 -13 -66 -1 -39 -9 -75 -18 -90 -16
-23 -15 -24 2 -17 18 6 18 5 3 -13 -8 -10 -15 -28 -14 -39 0 -11 -3 -28 -7
-37 -5 -9 -4 -20 2 -23 5 -3 8 -19 6 -35 -2 -16 -1 -32 2 -35 9 -9 13 -35 18
-110 4 -77 8 -105 19 -149 6 -23 5 -27 -6 -21 -12 7 -12 6 -1 -7 7 -9 15 -31
17 -48 3 -18 8 -42 12 -54 4 -11 7 -25 8 -31 4 -34 20 -72 37 -85 10 -9 20
-23 22 -30 1 -8 11 -31 21 -50 10 -19 20 -41 21 -49 2 -8 9 -18 16 -22 7 -5 9
-9 5 -9 -7 0 27 -55 43 -70 5 -5 10 -20 14 -45 1 -5 5 -16 9 -22 5 -7 5 -17 2
-23 -3 -5 -1 -10 5 -10 7 0 10 -7 6 -15 -3 -8 -1 -15 5 -15 6 0 9 -7 5 -15 -3
-8 0 -15 6 -15 6 0 9 -3 5 -6 -3 -4 0 -18 7 -33 7 -14 12 -34 11 -43 -2 -10 1
-18 6 -18 5 0 9 -13 9 -30 0 -16 5 -30 11 -30 5 0 7 -4 4 -10 -3 -5 -2 -10 3
-10 6 0 8 -9 5 -20 -3 -11 -1 -20 5 -20 5 0 10 -12 10 -26 0 -15 6 -30 13 -35
12 -7 11 -9 -1 -9 -9 0 -11 -3 -5 -8 11 -8 18 -27 19 -54 0 -10 4 -18 8 -18 4
0 8 -12 8 -26 0 -14 4 -23 9 -20 5 4 7 -2 4 -13 -3 -10 0 -22 7 -26 8 -5 8
-11 -1 -21 -7 -9 -8 -14 -3 -13 21 4 26 -2 14 -16 -9 -10 -9 -15 -1 -15 6 0
11 -11 11 -25 0 -14 6 -25 13 -25 8 0 8 -3 2 -8 -12 -8 -13 -22 -2 -39 4 -6 8
-23 9 -37 1 -14 6 -26 10 -26 4 0 8 -13 8 -30 0 -16 4 -30 9 -30 6 0 8 -9 6
-20 -3 -13 0 -18 7 -14 7 5 9 0 6 -14 -3 -12 -1 -26 6 -31 6 -5 11 -23 10 -38
-1 -15 4 -39 11 -53 7 -14 10 -31 8 -37 -3 -7 -1 -13 4 -13 5 0 9 -8 10 -17 3
-41 8 -63 13 -63 4 0 7 -12 7 -27 0 -16 3 -44 7 -63 4 -19 8 -47 9 -62 1 -16
4 -28 7 -28 10 0 21 -269 11 -285 -6 -11 -11 -31 -13 -60 -1 -11 -6 -26 -11
-32 -6 -9 -5 -13 4 -13 10 -1 10 -3 -2 -10 -17 -10 -15 -70 3 -70 5 0 6 6 2
13 -5 9 -4 9 6 0 11 -10 16 -9 27 5 8 9 11 11 7 3 -4 -9 -2 -12 7 -9 8 3 13
10 12 16 -2 6 4 9 12 6 8 -4 15 -10 15 -16 0 -5 -4 -6 -10 -3 -5 3 -7 0 -4 -8
3 -8 13 -14 22 -12 9 2 19 4 22 4 3 1 -2 6 -10 11 -9 6 -10 10 -3 10 7 0 20
-12 30 -26 10 -14 26 -34 35 -45 20 -21 24 -34 7 -24 -6 4 -5 -2 3 -14 7 -12
17 -21 22 -21 4 0 2 -8 -5 -17 -12 -14 -12 -16 0 -8 11 6 13 4 8 -8 -3 -9 -2
-19 3 -22 6 -4 10 -11 10 -16 0 -6 -6 -7 -12 -3 -10 6 -10 5 -1 -8 7 -8 10
-17 7 -21 -9 -8 35 -19 47 -11 7 4 9 3 6 -2 -3 -5 3 -21 14 -34 16 -21 18 -22
13 -5 -5 19 -5 19 8 0 15 -23 65 -29 60 -7 -1 8 2 11 8 7 5 -3 13 1 17 10 3
10 0 21 -8 26 -10 6 -10 9 -1 9 6 0 12 6 12 14 0 8 5 16 12 18 7 3 5 7 -6 11
-10 4 -15 3 -11 -3 3 -6 1 -10 -5 -10 -7 0 -10 6 -7 13 2 6 10 11 17 9 6 -1
10 3 7 10 -2 7 -10 12 -16 10 -7 -1 -10 2 -6 8 5 8 11 8 19 1 16 -13 27 -4 19
15 -3 8 0 14 6 14 6 0 11 9 11 21 0 11 -4 18 -8 15 -5 -3 -9 1 -9 8 0 9 7 12
16 8 12 -4 11 0 -4 18 -11 13 -14 20 -7 16 7 -4 12 -1 12 9 0 10 -5 13 -12 9
-7 -5 -9 -2 -5 8 3 9 0 21 -6 28 -10 10 -8 12 6 7 11 -4 16 -3 12 3 -3 6 -13
10 -21 10 -8 0 -14 7 -14 16 0 11 -5 14 -17 10 -15 -6 -15 -4 2 14 10 11 13
20 7 20 -7 0 -12 10 -12 23 0 13 -5 28 -12 35 -8 8 -8 15 2 27 8 10 9 15 1 15
-6 0 -11 17 -11 40 0 25 -5 40 -12 40 -9 0 -8 4 2 10 8 5 12 10 7 10 -4 0 -1
15 7 34 12 30 12 35 0 40 -8 3 -11 12 -7 22 5 12 3 15 -6 9 -9 -5 -8 0 2 16 8
13 13 33 11 44 -2 11 -6 79 -9 150 -6 152 -7 155 -14 155 -6 0 -12 87 -12 170
1 43 0 68 -3 225 -1 51 -6 75 -18 89 -13 14 -15 22 -7 27 15 9 21 80 8 95 -6
7 -8 17 -5 23 3 5 0 12 -6 14 -10 4 -9 6 1 6 11 1 11 4 1 16 -7 8 -9 15 -5 15
4 0 -3 9 -16 21 -13 11 -18 17 -10 13 11 -5 13 -3 7 11 -5 14 -4 16 8 6 14
-12 6 65 -10 91 -5 7 -2 9 8 6 9 -4 15 0 15 8 0 10 -7 12 -21 8 -19 -6 -19 -6
-3 10 9 10 17 26 17 37 0 11 7 22 16 26 13 5 13 7 2 14 -10 7 -10 9 2 9 13 0
13 1 0 10 -11 7 -11 10 -2 10 7 0 10 5 7 11 -4 5 -9 25 -12 42 -3 18 -9 35
-15 38 -5 3 -9 9 -9 13 3 23 -19 97 -28 92 -4 -3 -8 7 -9 22 -1 15 -7 29 -12
30 -6 2 -10 10 -10 18 0 8 -5 14 -11 14 -6 0 -9 7 -5 15 3 8 -2 19 -12 24 -14
8 -14 10 -2 11 10 0 15 10 15 29 1 16 -3 27 -9 24 -5 -4 -6 -1 0 8 17 28 26
119 12 119 -5 0 -6 5 -3 10 3 6 2 10 -4 10 -6 0 -8 6 -5 13 2 7 -5 23 -16 35
-12 13 -19 28 -17 35 2 7 0 20 -5 30 -5 10 -11 32 -13 50 -4 33 -12 72 -15 72
-7 0 -11 85 -15 300 -6 295 -8 325 -18 325 -4 0 -5 11 -3 25 3 15 0 25 -7 25
-9 0 -9 2 0 8 8 5 9 13 3 22 -6 8 -10 26 -10 39 0 13 -3 22 -6 18 -12 -12 -33
17 -22 31 7 8 7 12 -2 12 -8 0 -10 3 -7 7 4 3 2 12 -4 20 -8 9 -8 13 0 13 6 0
9 10 7 23 -2 13 5 29 17 40 14 12 16 17 6 17 -12 0 -12 2 0 9 8 5 11 16 8 24
-4 10 3 21 18 31 15 10 27 30 31 52 5 27 10 34 23 29 12 -5 13 -3 4 6 -12 12
15 73 43 95 7 6 11 14 7 17 -3 4 1 7 11 7 9 0 15 4 11 9 -3 5 4 12 15 16 11 4
18 10 15 15 -3 5 4 7 15 5 11 -2 20 0 20 4 0 5 12 6 26 3 19 -3 25 -1 20 6 -5
8 -2 10 8 6 9 -3 14 -10 11 -14 -3 -5 3 -13 12 -19 10 -6 12 -11 6 -11 -7 0
-12 -6 -10 -12 1 -7 -5 -12 -14 -12 -11 1 -15 -5 -12 -17 3 -10 10 -16 16 -12
6 4 7 1 3 -6 -5 -7 -15 -10 -23 -6 -13 4 -14 3 -4 -9 7 -8 20 -12 29 -9 13 4
12 2 -3 -10 -11 -9 -17 -17 -13 -17 15 0 58 24 58 32 0 5 -5 6 -12 2 -7 -5 -8
-3 -4 5 5 7 11 10 14 7 3 -3 15 2 26 11 20 17 20 17 7 1 -7 -10 -9 -18 -3 -18
17 0 22 -28 7 -40 -12 -10 -13 -8 -10 9 2 11 -1 23 -6 27 -5 3 -9 2 -8 -3 4
-20 -2 -32 -13 -28 -27 10 -45 -13 -23 -28 19 -15 19 -15 -5 -50 -13 -20 -29
-35 -34 -34 -10 2 -22 -38 -21 -73 0 -14 -4 -28 -10 -32 -6 -5 -6 -8 3 -8 25
0 13 -62 -18 -92 -16 -15 -30 -25 -30 -21 0 5 -5 0 -11 -10 -6 -9 -14 -15 -20
-12 -5 4 -6 -2 -2 -11 5 -13 3 -15 -7 -9 -9 5 -11 4 -6 -3 4 -7 9 -22 12 -34
12 -53 16 -74 17 -90 1 -10 4 -18 7 -18 4 0 7 -7 7 -15 0 -8 -4 -12 -9 -9 -18
11 -3 -31 17 -48 11 -10 16 -17 11 -18 -5 0 1 -9 13 -19 14 -12 18 -20 10 -23
-9 -3 -8 -8 3 -18 8 -8 13 -22 10 -32 -2 -10 1 -18 7 -18 7 0 9 -4 6 -10 -3
-5 -1 -10 4 -10 6 0 11 -9 11 -20 0 -11 14 -47 31 -80 17 -33 33 -72 35 -88 3
-15 9 -29 15 -30 5 -2 7 -8 4 -13 -3 -4 2 -20 11 -34 9 -14 13 -25 9 -25 -5 0
6 -13 23 -30 18 -17 28 -30 24 -30 -4 -1 3 -9 15 -19 12 -10 19 -21 16 -25 -4
-3 -2 -6 3 -6 5 0 27 -16 48 -35 22 -19 44 -35 50 -36 6 0 19 -2 28 -4 9 -2
25 4 35 12 11 9 12 12 3 8 -10 -5 -10 -2 2 7 20 17 32 68 16 68 -6 0 -8 3 -5
7 4 3 2 12 -5 20 -9 11 -8 13 3 11 8 -2 13 4 13 14 -1 10 2 15 7 12 8 -5 13 9
10 29 0 4 4 7 9 7 6 0 10 7 10 16 0 9 5 12 12 8 7 -5 9 -2 5 9 -3 9 0 18 8 21
9 3 12 12 8 22 -4 10 -2 15 3 11 17 -10 14 40 -3 54 -13 11 -15 11 -9 1 4 -7
2 -19 -4 -27 -6 -8 -9 -18 -6 -23 3 -5 -1 -9 -9 -9 -7 0 -19 12 -27 26 -22 43
-31 49 -50 30 -9 -10 -13 -21 -10 -25 4 -4 2 -4 -4 -1 -7 4 -15 0 -18 -9 -5
-12 -1 -14 16 -9 18 6 19 5 7 -7 -7 -8 -26 -13 -41 -12 -15 2 -28 -1 -28 -7 0
-6 4 -8 8 -5 4 2 14 0 22 -5 11 -7 8 -8 -10 -6 -22 4 -25 9 -25 50 0 25 -4 49
-8 53 -14 14 -7 21 18 18 17 -1 29 4 36 18 8 16 8 19 -1 13 -7 -4 -16 -1 -21
6 -6 10 -9 10 -9 2 0 -7 -7 -10 -17 -6 -15 5 -15 3 1 -9 19 -15 19 -15 -7 -15
-24 0 -25 1 -15 21 7 11 11 25 10 30 -2 5 3 4 12 -3 9 -7 17 -8 20 -2 3 5 0
12 -6 14 -10 4 -10 6 -1 6 7 1 10 8 7 19 -5 13 -4 14 4 3 6 -8 15 -10 22 -6 9
6 11 4 5 -5 -5 -8 -3 -11 6 -8 8 3 13 10 12 16 -3 15 25 23 33 10 5 -7 2 -8
-6 -3 -10 6 -12 3 -8 -13 4 -16 2 -19 -10 -15 -11 5 -13 3 -7 -7 5 -8 4 -11
-2 -7 -6 4 -16 1 -21 -6 -9 -10 -4 -13 20 -13 39 1 47 -27 11 -43 -13 -6 -28
-10 -31 -8 -4 2 -15 -4 -24 -14 -14 -14 -14 -18 -2 -23 8 -3 11 -13 8 -23 -5
-15 -4 -15 4 -3 7 9 7 18 1 26 -6 8 -5 14 5 17 11 4 13 1 9 -11 -6 -15 -5 -16
13 -2 10 8 24 21 30 29 6 8 16 11 24 6 9 -6 10 -2 5 15 -4 14 -3 20 3 16 23
-14 69 72 49 94 -7 8 -8 11 -1 7 6 -4 20 1 30 9 10 9 14 13 7 9 -9 -4 -11 3
-8 25 2 16 0 30 -4 30 -4 0 -8 7 -8 15 0 8 5 15 10 15 5 0 4 7 -3 15 -8 10 -9
19 -3 28 5 6 8 22 7 35 0 12 4 22 10 22 6 0 4 5 -4 10 -8 5 -10 10 -4 10 10 0
15 10 24 48 1 4 7 14 13 22 11 13 10 13 -8 0 -19 -15 -19 -15 -2 12 21 34 21
35 0 41 -17 4 -17 5 0 6 19 1 24 31 5 31 -10 0 -9 3 1 9 7 5 10 14 7 20 -4 6
-1 11 6 11 10 0 10 2 -1 9 -10 7 -10 10 -1 13 7 2 14 13 15 24 0 11 13 34 28
50 15 16 33 41 39 56 7 15 15 25 18 23 4 -2 7 2 8 10 1 8 3 22 4 30 1 8 5 15
10 15 4 0 8 11 8 24 0 14 7 32 16 40 10 10 11 16 3 16 -9 0 -9 3 0 14 8 10 9
16 1 21 -7 4 -5 13 5 27 11 17 12 25 2 37 -10 12 -9 13 2 6 11 -6 13 -4 7 10
-5 15 -4 16 8 6 17 -14 59 -24 51 -12 -8 14 24 21 32 8 9 -13 53 -18 53 -6 0
5 7 6 15 3 8 -4 12 -11 8 -18 -5 -7 -2 -7 8 1 8 7 29 10 48 7 25 -4 31 -2 26
7 -6 8 -4 10 6 3 18 -11 130 -13 123 -2 -3 4 0 8 5 8 6 0 11 -6 11 -12 0 -10
2 -10 8 -1 5 8 13 9 22 3 8 -5 21 -5 31 1 12 6 19 5 22 -4 4 -9 6 -9 6 0 1 7
7 10 15 7 8 -3 24 -1 35 6 13 6 21 7 21 1 0 -5 13 -9 30 -9 16 1 27 4 25 8 -2
4 2 7 10 7 8 0 15 -5 15 -10 0 -5 8 -3 17 4 11 10 14 10 9 2 -5 -9 0 -13 16
-14 41 -2 152 1 173 5 11 3 23 5 27 5 4 1 5 7 2 15 -6 16 19 16 33 1 4 -4 2
-5 -4 -1 -9 5 -13 0 -12 -16 0 -13 3 -18 5 -11 3 7 12 9 21 6 11 -5 14 -3 8 6
-6 10 -3 11 14 2 18 -10 21 -9 21 6 1 17 1 17 11 1 7 -13 15 -15 33 -8 13 5
27 6 30 3 3 -4 6 -1 6 7 0 10 3 10 15 0 12 -10 15 -10 15 0 0 9 4 9 17 -1 14
-12 16 -12 8 0 -6 11 -4 13 8 8 11 -4 15 -1 12 14 -2 10 0 19 6 19 5 0 9 -6
10 -12 0 -7 5 -2 10 11 l9 24 24 -23 c26 -24 56 -19 35 6 -6 7 -15 12 -19 9
-14 -9 -23 16 -11 28 9 9 10 7 5 -8 -7 -18 -6 -19 11 -5 11 9 16 10 11 3 -7
-12 16 -18 52 -14 6 1 12 -3 12 -8 0 -5 -9 -8 -21 -6 -17 4 -19 2 -9 -11 9
-10 16 -11 25 -4 7 6 19 9 26 8 8 -2 13 3 11 10 -1 6 2 12 8 12 5 0 10 -4 10
-8 0 -5 16 -9 35 -10 25 -1 34 2 29 10 -5 7 -2 9 9 5 9 -3 19 -1 23 5 5 7 2 8
-7 3 -12 -8 -12 -6 -1 8 8 9 17 16 20 15 25 -3 42 4 36 14 -4 7 -3 8 5 4 6 -4
20 -2 29 6 16 12 16 11 2 -6 -14 -18 -13 -19 5 -12 13 5 17 4 10 -3 -5 -5 -30
-11 -53 -12 -39 -3 -42 -5 -26 -16 12 -9 14 -13 4 -13 -7 0 -11 -3 -7 -6 3 -3
13 -1 23 4 11 6 28 7 43 1 25 -9 25 -8 7 6 -11 8 -15 15 -9 15 7 0 14 -4 18
-10 3 -5 13 -6 23 -3 13 4 13 2 -3 -10 -11 -9 -26 -17 -32 -17 -7 0 -13 -7
-13 -16 0 -9 -5 -12 -12 -8 -6 4 -8 3 -5 -3 4 -6 28 -7 68 -1 33 4 66 5 72 1
6 -3 7 -1 3 5 -5 8 1 12 14 12 12 0 19 4 16 9 -3 5 8 7 24 6 17 -1 30 1 30 6
0 5 3 8 8 8 18 -3 33 2 28 9 -3 5 5 8 17 7 12 -1 28 4 35 12 8 7 18 11 23 7 6
-3 17 0 26 8 14 11 16 11 9 0 -7 -11 -4 -12 13 -3 12 7 25 9 30 6 5 -3 12 3
16 14 3 11 13 25 23 33 15 12 16 11 4 -4 -12 -14 -10 -15 20 -9 18 4 41 7 51
5 9 -1 17 2 17 7 0 6 5 7 10 4 6 -3 10 -2 10 2 0 5 8 9 18 10 10 1 51 21 92
46 42 24 83 43 92 41 11 -1 15 3 12 14 -5 15 -4 15 7 1 9 -13 17 -14 35 -5 27
13 38 33 18 33 -7 0 -11 -4 -9 -8 3 -4 -2 -10 -11 -13 -23 -9 -24 -8 -24 13 0
23 17 31 53 24 19 -4 27 -1 27 8 0 9 3 10 8 3 4 -6 14 -14 22 -18 9 -4 7 -5
-6 -2 -13 2 -25 -4 -33 -15 -9 -15 -8 -19 4 -19 8 0 15 6 15 13 0 8 4 7 10 -3
7 -11 12 -12 18 -3 4 6 20 13 36 15 29 3 30 5 29 56 -1 28 3 50 7 47 5 -3 13
3 19 12 6 10 11 13 11 6 0 -6 -4 -14 -9 -17 -16 -10 -21 -48 -5 -42 14 5 20
-9 7 -17 -5 -2 -2 -2 5 -1 20 5 42 -7 35 -20 -5 -8 -3 -8 8 1 15 12 19 13 45
13 9 0 12 5 8 13 -6 9 -4 9 8 -1 12 -9 18 -10 23 -2 4 6 14 9 22 5 9 -3 27 2
41 11 20 13 26 14 33 3 6 -10 9 -10 9 -2 0 6 9 10 20 8 11 -2 20 1 20 6 0 6 4
8 9 4 5 -3 12 -1 16 4 3 6 11 8 18 6 7 -2 35 6 62 19 28 13 51 20 53 15 2 -5
12 -4 22 1 13 7 21 7 25 0 5 -8 11 -7 20 0 8 7 19 9 25 5 16 -10 12 11 -5 25
-12 10 -15 9 -15 -5 0 -15 -2 -15 -16 -4 -14 12 -14 14 0 24 9 7 12 16 8 20
-4 5 -1 5 6 1 7 -4 12 -2 12 6 0 10 2 10 9 -1 5 -8 7 -21 3 -29 -4 -11 -1 -13
8 -7 8 5 11 4 6 -3 -15 -25 52 -36 71 -12 7 8 13 10 13 4 0 -11 36 -13 55 -3
6 3 33 5 62 5 31 -1 49 3 45 9 -3 6 5 1 17 -9 20 -18 21 -18 15 -2 -6 17 -5
17 17 5 13 -7 30 -12 38 -10 7 1 11 -1 8 -6 -2 -4 -1 -17 4 -28 8 -18 8 -18 6
4 -1 13 4 26 11 28 8 3 10 -2 6 -14 -5 -14 -4 -15 4 -3 6 8 9 17 6 21 -2 4 3
10 12 13 8 3 13 2 10 -2 -2 -4 4 -8 14 -8 10 0 16 5 13 11 -2 7 3 12 12 12 10
0 14 -6 10 -15 -4 -12 -2 -12 8 -4 8 7 18 8 22 4 5 -4 5 -1 1 6 -11 19 12 14
24 -5 9 -15 11 -15 7 -2 -4 12 1 17 18 17 17 0 22 -5 18 -17 -4 -13 -2 -13 7
2 6 9 16 17 23 17 8 0 8 -3 -2 -9 -9 -6 -4 -10 17 -13 20 -3 29 -1 25 6 -4 6
1 5 10 -3 14 -11 17 -11 17 0 0 8 5 5 14 -6 12 -16 16 -17 30 -6 9 8 23 10 33
6 25 -11 45 -12 66 -2 11 5 17 3 18 -5 0 -7 4 -4 9 7 8 19 9 19 9 1 1 -15 4
-16 16 -6 12 10 15 10 15 0 0 -10 3 -10 15 0 12 10 15 10 16 -1 0 -8 4 -5 9 6
6 15 9 16 9 4 1 -16 34 -20 47 -6 12 12 26 8 18 -5 -6 -10 -4 -10 8 0 13 10
17 10 21 0 4 -9 6 -7 6 4 1 9 6 20 13 24 7 4 8 3 4 -4 -14 -24 5 -34 31 -17
14 10 23 12 19 7 -3 -6 -2 -13 4 -17 5 -3 10 2 10 11 0 22 11 12 14 -13 3 -18
11 -19 76 -9 14 2 24 8 23 14 -1 5 4 13 13 16 9 4 12 2 8 -5 -5 -8 -1 -8 13 0
11 6 23 7 27 4 3 -3 6 -2 6 4 0 7 30 10 80 9 44 -1 80 2 80 7 0 6 5 6 13 0 6
-5 29 -9 50 -8 20 0 37 -3 37 -7 0 -5 5 -8 11 -8 5 0 8 4 5 8 -2 4 3 8 13 8
10 0 18 -7 17 -16 -1 -9 6 -14 17 -14 15 2 16 -1 5 -14 -11 -13 -11 -14 0 -8
9 5 23 -1 40 -15 14 -13 21 -17 14 -8 -9 13 -9 16 3 16 8 0 12 -4 10 -7 -3 -4
5 -18 17 -31 14 -16 19 -18 15 -7 -3 10 -2 20 4 23 5 4 8 1 7 -7 -2 -7 5 -12
14 -12 10 1 16 -1 14 -5 -8 -13 11 -32 32 -34 12 -1 22 -7 22 -14 0 -11 5 -11
20 -3 16 9 19 8 13 -7 -5 -13 -3 -15 12 -9 11 4 16 4 13 0 -8 -8 34 -44 51
-44 6 0 11 -4 11 -10 0 -5 8 -10 17 -10 9 0 14 -3 11 -6 -7 -6 39 -54 51 -54
5 0 16 -10 25 -22 9 -13 15 -18 12 -13 -2 6 6 10 19 10 13 0 21 -3 19 -7 -3
-4 2 -5 10 -2 9 3 16 10 16 14 0 4 7 11 16 14 10 4 13 2 8 -7 -5 -9 -4 -9 7 1
15 14 79 16 79 2 0 -5 -8 -6 -17 -3 -16 6 -17 5 -3 -12 9 -11 10 -16 3 -11 -9
5 -13 1 -13 -13 0 -10 -6 -22 -12 -24 -10 -4 -9 -6 1 -6 11 -1 11 -4 1 -16 -9
-11 -9 -15 -1 -15 7 0 10 -4 6 -9 -3 -5 0 -13 6 -16 5 -4 8 -12 6 -19 -3 -6 1
-20 9 -30 7 -11 11 -23 8 -27 -3 -5 0 -9 7 -9 8 0 9 -3 0 -13 -6 -8 -8 -17 -4
-21 13 -13 12 -107 0 -100 -9 5 -9 4 0 -6 6 -7 9 -19 6 -26 -3 -8 0 -14 6 -14
6 0 8 -7 5 -15 -4 -10 0 -15 11 -15 9 0 14 4 11 8 -3 5 1 9 8 9 8 0 12 -7 9
-16 -3 -12 0 -11 11 3 18 22 26 18 29 -13 1 -11 5 -21 9 -21 4 0 8 -9 8 -21 0
-11 4 -18 9 -15 5 3 11 -1 14 -9 4 -10 1 -12 -11 -8 -13 4 -12 2 3 -10 23 -19
45 -22 45 -7 0 6 -6 10 -12 10 -8 0 -9 3 -3 8 14 10 17 32 5 32 -5 0 -10 -5
-10 -12 0 -6 -6 -3 -14 7 -12 17 -12 24 0 47 8 16 11 28 7 28 -5 0 -1 5 7 11
13 9 13 10 0 6 -8 -2 -15 -9 -15 -15 0 -7 -3 -12 -7 -12 -5 0 -12 0 -18 0 -5
0 -10 5 -10 11 0 5 5 7 10 4 6 -3 10 -2 10 3 0 5 10 16 23 25 21 14 23 13 24
-6 1 -11 8 -24 15 -28 10 -7 9 -9 -3 -9 -9 0 -23 -8 -30 -17 -13 -16 -12 -17
3 -5 11 9 18 10 23 2 3 -6 12 -7 18 -3 8 5 8 2 -1 -9 -14 -17 7 -44 24 -30 5
4 1 -3 -9 -15 -11 -12 -14 -24 -9 -27 6 -3 13 1 16 10 4 9 9 14 13 11 3 -4 0
-13 -7 -22 -7 -8 -8 -15 -2 -15 5 0 14 6 19 13 11 13 13 47 4 47 -4 0 -12 10
-20 23 -13 21 -13 21 4 7 16 -13 18 -13 13 0 -3 8 2 20 10 26 12 8 12 15 3 32
-11 21 -10 21 14 10 19 -8 22 -14 13 -20 -10 -6 -10 -10 2 -18 13 -9 13 -10 0
-10 -11 0 -12 -2 -2 -8 21 -14 22 -48 2 -62 -10 -7 -17 -18 -16 -24 2 -6 1 -8
-1 -4 -3 4 -10 2 -18 -5 -7 -7 -9 -14 -3 -18 5 -3 10 -12 11 -20 2 -8 6 -19
10 -26 8 -12 -10 -12 -30 0 -9 6 -11 3 -6 -9 4 -12 2 -15 -8 -12 -8 3 -13 13
-11 23 2 10 -1 14 -7 10 -6 -3 -9 0 -5 8 7 19 -10 30 -50 32 -17 1 -25 0 -18
-2 6 -3 9 -10 6 -15 -4 -7 -2 -8 4 -4 7 4 12 1 12 -7 0 -7 10 -24 23 -37 12
-14 21 -28 20 -32 -2 -4 5 -4 14 -1 11 4 14 3 9 -5 -5 -8 0 -12 13 -12 19 0
26 -11 22 -33 -1 -5 8 -2 21 7 12 8 23 28 24 43 4 39 9 61 17 69 4 4 2 12 -3
19 -7 8 -5 12 5 12 8 0 12 -4 9 -9 -3 -4 0 -8 6 -8 6 0 8 -4 5 -10 -3 -5 -1
-10 4 -10 6 0 11 6 11 13 0 6 5 4 11 -6 6 -9 15 -14 21 -11 6 4 8 3 5 -4 -4
-5 -16 -8 -27 -5 -12 3 -20 0 -20 -6 0 -7 4 -10 9 -6 6 3 15 -3 21 -14 7 -13
16 -18 28 -14 9 3 14 3 10 -2 -4 -4 -2 -15 5 -23 10 -13 9 -14 -2 -7 -11 6
-13 4 -8 -9 4 -9 3 -15 -2 -12 -4 3 -13 -10 -18 -28 l-11 -34 48 5 c32 3 51 0
56 -8 4 -7 3 -10 -3 -6 -5 4 -16 -4 -23 -18 -11 -20 -15 -22 -26 -10 -8 7 -14
18 -14 24 0 6 -5 11 -10 11 -14 0 -8 -23 10 -36 11 -9 9 -11 -13 -9 -19 2 -25
0 -20 -8 13 -20 14 -50 2 -57 -7 -5 -6 -9 3 -13 9 -3 14 3 15 16 1 11 6 24 12
30 7 7 8 3 4 -12 -4 -15 -1 -20 8 -18 8 2 11 2 6 0 -4 -3 -4 -10 -1 -15 4 -6
2 -8 -4 -4 -6 3 -13 2 -17 -4 -4 -6 -11 -8 -16 -5 -5 4 -12 -1 -16 -11 -6 -15
-7 -15 -21 2 -14 18 -14 18 -8 0 5 -14 2 -17 -9 -12 -8 3 -15 1 -15 -4 0 -6
-11 -10 -24 -10 -14 0 -38 -12 -55 -26 -17 -14 -31 -23 -31 -19 0 4 -6 2 -13
-4 -8 -6 -17 -8 -20 -4 -4 3 -7 1 -7 -5 0 -11 -71 -12 -80 0 -7 9 -53 -14 -52
-27 0 -5 -4 -18 -9 -27 -6 -10 -5 -19 1 -23 6 -4 8 -11 5 -16 -4 -5 -2 -9 3
-9 6 0 13 -7 16 -16 5 -14 4 -15 -9 -4 -13 11 -14 10 -9 -4 3 -9 11 -16 17
-16 7 0 7 -4 -1 -12 -10 -10 -7 -17 10 -33 31 -27 36 -50 8 -35 -11 6 -17 16
-14 22 5 7 0 9 -16 5 -13 -3 -28 0 -36 8 -21 21 -112 -4 -98 -27 4 -6 0 -14
-7 -19 -8 -5 -9 -9 -3 -9 7 0 10 -13 9 -30 -2 -25 0 -28 12 -19 8 7 13 8 12 3
-4 -16 22 -94 31 -94 6 0 9 -3 9 -7 -3 -20 2 -31 17 -37 13 -5 14 -4 6 7 -9
10 -8 14 3 14 8 0 12 -4 9 -8 -2 -4 0 -10 5 -14 6 -3 8 -12 4 -20 -3 -9 0 -22
6 -29 8 -10 9 -16 1 -21 -5 -3 -10 -12 -10 -18 0 -7 4 -6 10 3 11 18 13 9 10
-52 -1 -26 3 -38 12 -38 10 0 9 -3 -2 -10 -8 -5 -10 -10 -5 -10 6 0 12 -12 13
-27 1 -15 7 -30 13 -34 8 -5 8 -9 0 -14 -8 -4 -9 -11 -2 -19 6 -7 9 -31 8 -55
-2 -23 1 -45 6 -48 5 -3 3 -9 -4 -14 -8 -5 -9 -9 -3 -9 9 0 12 -120 4 -140 -7
-16 -3 -66 5 -72 6 -5 5 -8 -3 -8 -10 0 -10 -5 -2 -20 6 -11 7 -20 3 -20 -4 0
-1 -5 7 -10 8 -5 10 -10 4 -10 -6 0 -10 -17 -9 -40 1 -22 -1 -40 -4 -40 -4 0
-6 -45 -6 -99 1 -84 4 -103 20 -123 l20 -23 -21 17 c-20 18 -20 17 -21 -30 0
-26 -3 -58 -6 -72 -15 -65 -23 -118 -21 -133 1 -9 -2 -17 -8 -17 -6 0 -4 -7 3
-17 8 -9 9 -14 3 -10 -15 9 -24 -59 -9 -74 7 -7 4 -8 -9 -3 -13 5 -17 4 -12
-4 4 -7 2 -12 -5 -12 -9 0 -9 -3 0 -14 10 -11 8 -17 -6 -25 -14 -8 -15 -10 -3
-11 13 0 13 -2 0 -10 -13 -8 -20 -36 -21 -83 0 -9 -4 -15 -10 -12 -5 4 -9 -3
-9 -14 0 -12 -4 -21 -10 -21 -5 0 -7 -6 -4 -13 2 -7 -5 -23 -16 -35 -12 -12
-18 -27 -15 -32 3 -6 -1 -10 -10 -10 -9 0 -14 -4 -10 -9 3 -5 1 -12 -5 -16 -6
-4 -8 -11 -5 -16 5 -8 -6 -13 -25 -11 -3 0 -7 -9 -7 -20 -1 -12 -6 -24 -11
-27 -12 -8 -27 -52 -23 -70 1 -7 -2 -10 -7 -7 -8 5 -22 -14 -22 -30 0 -7 25 1
33 11 5 6 7 4 4 -5 -2 -8 -9 -14 -15 -13 -16 4 -33 -23 -36 -59 -2 -19 -7 -45
-11 -57 -5 -17 -4 -21 5 -16 7 4 4 -5 -6 -21 -11 -16 -13 -25 -6 -20 11 7 11
4 1 -12 -7 -12 -17 -18 -22 -15 -5 3 -4 -4 2 -16 10 -18 9 -20 -6 -14 -16 6
-17 5 -3 -12 12 -15 12 -17 1 -10 -11 6 -13 4 -8 -9 4 -9 3 -15 -2 -12 -5 3
-20 -11 -35 -32 -28 -40 -35 -68 -13 -56 8 5 8 2 -2 -9 -7 -9 -11 -18 -7 -18
3 -1 10 -2 15 -3 5 0 12 -4 16 -8 9 -9 -17 -5 -33 5 -7 5 -10 13 -7 18 4 5 1
9 -4 9 -6 0 -12 -12 -12 -27 -1 -16 -2 -32 -4 -38 -1 -5 -3 -16 -3 -23 -1 -8
-7 -10 -14 -6 -9 5 -9 2 1 -9 7 -9 9 -17 3 -17 -5 0 -13 -7 -16 -16 -4 -10 -2
-13 7 -9 6 4 4 0 -7 -9 -10 -8 -15 -20 -10 -27 4 -8 3 -10 -4 -5 -7 4 -12 3
-12 -2 0 -19 14 -21 34 -5 21 17 21 17 3 -2 -10 -11 -25 -20 -34 -20 -9 0 -18
-6 -21 -14 -3 -10 1 -12 17 -8 11 3 19 1 15 -4 -3 -5 -15 -9 -27 -10 -21 0
-21 -1 -2 -9 18 -8 8 -15 -17 -11 -8 1 -5 -20 6 -38 6 -10 5 -12 -2 -7 -12 7
-16 -4 -13 -36 1 -10 -3 -18 -9 -18 -6 0 -9 -4 -5 -9 3 -5 1 -12 -5 -16 -16
-10 -1 -25 23 -23 14 1 23 9 23 20 0 15 -2 16 -16 3 -9 -8 -20 -15 -25 -15 -4
0 2 9 15 20 18 15 26 17 37 9 7 -7 16 -9 20 -5 3 3 1 6 -6 6 -7 0 -9 5 -6 10
3 6 13 10 21 10 9 0 12 -5 8 -12 -4 -6 -3 -8 4 -4 6 3 9 15 7 26 -2 12 0 18 6
15 5 -4 9 -13 9 -22 0 -12 3 -13 15 -3 13 10 12 14 -8 30 -21 17 -22 17 -44
-6 -12 -13 -28 -24 -35 -24 -10 0 -10 2 1 9 12 8 12 10 0 14 -8 2 -4 2 9 0 15
-2 22 2 22 12 0 9 -4 14 -9 10 -5 -3 -12 -2 -15 3 -12 19 52 4 92 -22 49 -33
50 -34 17 -31 -14 2 -25 -1 -25 -7 0 -6 6 -8 14 -5 20 8 47 -28 33 -43 -9 -10
-9 -11 1 -6 6 4 12 3 12 -2 0 -17 -31 -72 -41 -72 -6 0 -8 -4 -5 -8 3 -5 -3
-18 -14 -29 -10 -12 -16 -24 -13 -27 4 -3 2 -6 -4 -6 -6 0 -10 -12 -10 -27 1
-16 -4 -38 -11 -49 -6 -12 -9 -24 -6 -26 3 -3 -9 -20 -26 -37 -18 -18 -28 -36
-24 -42 4 -7 3 -9 -3 -6 -13 8 -41 -25 -35 -42 3 -8 0 -11 -5 -8 -5 3 -15 -3
-22 -15 -8 -13 -9 -18 -1 -13 8 5 7 0 -1 -13 -7 -12 -17 -18 -23 -15 -5 4 -7
-1 -3 -10 3 -10 2 -17 -4 -17 -6 0 -7 -4 -4 -10 3 -5 2 -10 -4 -10 -5 0 -16
-14 -25 -30 -9 -20 -10 -28 -3 -24 7 3 3 -2 -7 -10 -11 -9 -16 -16 -11 -16 5
0 0 -7 -11 -16 -10 -8 -13 -13 -7 -9 9 4 11 1 7 -10 -4 -9 -13 -14 -20 -11 -9
3 -11 0 -7 -11 4 -11 3 -14 -6 -9 -6 4 -11 4 -10 -1 4 -24 -2 -43 -12 -37 -7
4 -7 -1 1 -16 8 -15 8 -20 1 -16 -10 6 -16 -13 -12 -36 0 -5 -4 -8 -10 -8 -5
0 -7 -4 -4 -10 3 -5 1 -10 -5 -10 -6 0 -9 -4 -5 -9 3 -5 -1 -16 -9 -24 -8 -8
-12 -17 -9 -21 4 -3 -1 -6 -10 -6 -10 0 -14 -6 -11 -14 3 -8 -2 -17 -13 -20
-10 -3 -24 -19 -31 -36 -8 -17 -18 -27 -25 -23 -6 4 -8 0 -4 -10 4 -12 1 -17
-11 -17 -15 0 -15 -2 -2 -10 13 -8 12 -10 -3 -10 -10 0 -16 -4 -12 -9 3 -6 -4
-15 -15 -21 -11 -6 -18 -15 -15 -21 4 -5 1 -9 -5 -9 -6 0 -8 -5 -5 -10 3 -5
-2 -10 -11 -10 -10 0 -15 -3 -11 -6 5 -6 -17 -36 -63 -83 -13 -15 -22 -26 -20
-26 2 0 -8 -12 -23 -27 -15 -15 -27 -25 -27 -22 0 3 -6 -1 -14 -8 -8 -7 -14
-15 -13 -18 1 -3 -11 -18 -26 -34 -15 -16 -27 -25 -27 -21 0 5 -10 -4 -22 -21
-13 -16 -32 -40 -43 -53 -11 -13 -36 -43 -56 -67 -20 -23 -40 -40 -43 -37 -3
4 -6 1 -6 -5 0 -6 -12 -24 -27 -40 -40 -42 -88 -98 -88 -103 -1 -13 -33 -48
-39 -41 -4 4 -7 3 -5 -3 4 -17 -13 -45 -27 -45 -8 0 -13 -3 -12 -7 2 -5 -6
-17 -17 -29 -11 -12 -28 -30 -37 -40 -25 -29 -52 -49 -60 -47 -4 2 -5 -3 -2
-11 3 -8 0 -17 -6 -21 -8 -5 -7 -11 2 -23 12 -15 11 -16 -5 -3 -13 10 -15 17
-6 27 6 8 7 14 3 14 -5 0 -15 -9 -22 -21 -8 -12 -9 -19 -4 -15 5 3 14 -6 20
-19 9 -20 9 -23 -3 -18 -8 3 -13 9 -10 13 3 4 -4 10 -15 13 -13 3 -20 0 -20
-9 0 -8 -6 -14 -13 -14 -17 0 -47 -36 -39 -46 4 -4 -2 -4 -12 0 -16 6 -17 4
-6 -9 7 -9 9 -15 4 -14 -21 4 -35 -2 -29 -11 3 -6 -2 -13 -12 -17 -10 -4 -26
-16 -36 -28 -10 -11 -15 -14 -11 -6 5 9 3 12 -4 7 -7 -4 -12 -14 -12 -23 0 -9
-3 -14 -6 -11 -10 11 -45 -32 -37 -45 4 -7 0 -7 -10 2 -12 9 -17 10 -17 2 0
-7 -5 -9 -12 -5 -7 4 -8 3 -4 -4 4 -7 1 -12 -8 -12 -9 0 -16 -4 -16 -10 0 -5
-7 -6 -17 -3 -11 4 -14 3 -9 -5 7 -11 -6 -17 -28 -13 -5 1 -6 -5 -3 -13 4 -9
3 -15 -2 -13 -10 3 -71 -59 -71 -73 0 -6 -4 -9 -9 -6 -4 3 -17 -4 -27 -16 -11
-12 -13 -18 -5 -13 10 5 12 4 7 -4 -4 -6 -18 -9 -31 -7 -14 3 -24 2 -24 -2 3
-20 -2 -32 -12 -26 -6 3 -23 -7 -37 -23 -15 -16 -22 -22 -17 -13 6 9 -3 2 -19
-14 -16 -17 -26 -25 -22 -19 5 9 2 11 -8 7 -9 -3 -13 -10 -10 -15 5 -8 -10
-13 -29 -10 -5 1 -6 -3 -2 -9 3 -5 -1 -13 -9 -16 -9 -3 -14 -10 -11 -14 3 -4
-6 -11 -20 -14 -14 -4 -24 -12 -22 -19 1 -6 -4 -11 -10 -9 -7 1 -13 -3 -13 -9
0 -5 -4 -8 -9 -5 -5 3 -20 -9 -35 -27 -15 -17 -28 -30 -29 -27 -1 3 -15 -5
-29 -16 -15 -12 -24 -24 -21 -28 3 -3 1 -6 -6 -6 -7 0 -30 -18 -52 -40 -21
-21 -39 -37 -39 -34 0 4 -12 -8 -27 -25 -15 -17 -32 -31 -37 -31 -6 0 -23 -15
-39 -32 -16 -18 -26 -27 -22 -19 6 10 4 12 -4 6 -7 -4 -10 -17 -7 -29 5 -20 5
-20 -9 -2 -8 11 -15 15 -15 10 0 -6 -18 -20 -40 -33 -22 -12 -40 -26 -40 -32
0 -5 -3 -8 -7 -8 -23 4 -35 -3 -30 -16 4 -8 2 -17 -4 -20 -5 -4 -8 -3 -7 2 2
4 -1 8 -7 8 -5 0 -9 -4 -7 -9 2 -5 -5 -3 -15 4 -10 8 -15 11 -11 6 10 -12 -15
-34 -31 -28 -9 3 -12 1 -7 -6 4 -7 2 -12 -4 -12 -15 0 -40 -25 -40 -40 0 -6
-4 -8 -10 -5 -5 3 -10 -1 -10 -10 0 -12 -5 -15 -16 -11 -12 4 -15 2 -10 -9 3
-9 0 -15 -10 -15 -8 0 -12 -5 -9 -10 3 -6 0 -13 -9 -16 -9 -3 -12 -12 -9 -21
4 -11 2 -14 -5 -9 -11 7 -17 -6 -13 -28 1 -5 -5 -6 -13 -3 -11 4 -13 1 -9 -10
4 -9 -1 -21 -12 -29 -10 -8 -15 -14 -10 -14 4 0 0 -9 -10 -20 -10 -11 -14 -20
-9 -20 5 0 2 -6 -7 -13 -21 -16 -32 -47 -16 -47 8 0 9 -2 1 -8 -13 -8 -11 -33
6 -59 11 -17 11 -17 6 0 -5 15 -2 17 14 12 12 -4 20 -2 20 5 0 6 -4 9 -9 5 -5
-3 -12 -1 -16 5 -4 6 -11 7 -17 4 -7 -4 -8 -2 -4 5 5 8 12 9 19 2 12 -9 77 11
77 24 0 3 -10 0 -22 -6 -20 -11 -21 -10 -11 3 7 8 9 19 5 23 -4 5 -1 5 6 1 7
-4 12 -1 12 7 0 18 27 30 35 16 4 -5 1 -8 -6 -7 -6 2 -14 -4 -16 -12 -4 -12
-3 -12 5 -2 5 8 12 13 16 13 22 -3 26 1 12 15 -12 11 -13 20 -6 34 7 13 7 21
0 25 -16 10 -2 24 19 20 10 -2 24 1 32 6 10 7 6 8 -13 5 -15 -3 -32 1 -38 9
-9 11 -7 12 10 8 16 -4 19 -2 13 12 -4 13 -3 16 5 11 7 -4 12 -2 12 3 0 6 -5
11 -12 11 -6 0 -8 3 -5 6 4 4 13 1 22 -6 15 -12 22 0 8 14 -11 10 -12 37 -2
30 5 -3 7 -10 4 -15 -11 -16 7 -9 21 9 9 11 16 13 21 7 7 -9 28 -12 36 -5 8 8
45 6 40 -3 -4 -6 0 -8 10 -4 10 4 16 2 14 -6 -1 -7 4 -11 11 -9 8 1 11 -2 7
-8 -4 -6 -9 -9 -12 -6 -4 3 -14 -4 -24 -15 -17 -19 -18 -19 -18 -2 -1 38 -5
53 -12 53 -13 0 -20 -18 -10 -25 6 -3 8 -20 5 -38 -3 -17 -6 -37 -6 -44 -1 -7
-5 -10 -9 -8 -10 7 -30 -20 -27 -36 2 -8 -3 -13 -10 -11 -8 1 -11 -2 -6 -9 5
-8 3 -9 -5 -4 -9 5 -10 10 -2 18 17 17 13 31 -4 17 -10 -9 -15 -9 -15 -1 0 6
5 11 11 11 5 0 7 4 4 10 -3 5 -11 10 -16 10 -6 0 -8 -4 -4 -9 3 -5 1 -13 -5
-16 -7 -5 -8 -11 -1 -19 6 -8 6 -17 0 -26 -8 -12 -9 -11 -7 4 2 10 -2 21 -9
23 -7 3 -10 -5 -9 -21 4 -29 -2 -38 -29 -55 -19 -11 -19 -12 3 -6 13 4 22 2
22 -4 0 -6 -11 -11 -24 -11 -17 0 -31 -10 -42 -29 -11 -19 -24 -28 -35 -26
-13 3 -16 -1 -12 -12 5 -12 2 -15 -10 -10 -11 4 -14 2 -10 -9 3 -8 -1 -14 -11
-14 -9 0 -15 -3 -14 -7 3 -16 -14 -63 -28 -74 -8 -6 -11 -15 -8 -20 3 -5 1 -9
-4 -9 -5 0 -15 -14 -22 -30 -7 -17 -17 -30 -22 -30 -5 0 -6 -5 -3 -10 3 -5 1
-10 -5 -10 -6 0 -8 -4 -5 -10 3 -5 1 -10 -6 -10 -7 0 -9 -3 -6 -7 4 -3 0 -15
-10 -25 -9 -10 -13 -18 -9 -18 3 0 0 -13 -8 -29 -9 -16 -12 -31 -9 -34 3 -4 1
-12 -5 -20 -16 -19 -2 -32 41 -35 29 -2 37 0 31 10 -5 10 -4 11 7 1 18 -17 32
-16 26 2 -4 8 -1 17 5 21 7 4 8 3 4 -4 -4 -7 -2 -12 4 -12 6 0 9 -4 6 -9 -9
-14 16 -7 44 12 18 13 26 14 32 4 6 -9 8 -9 8 0 0 7 7 10 18 7 10 -4 13 -2 7
3 -14 11 -18 53 -6 53 6 0 11 5 11 10 0 7 -7 7 -20 0 -16 -8 -22 -8 -26 4 -3
9 -13 12 -22 9 -13 -4 -12 -1 3 10 17 14 21 14 31 2 17 -22 26 -18 14 6 -7 11
-9 23 -7 26 3 2 8 -5 12 -16 3 -12 11 -19 16 -16 8 6 -8 44 -24 56 -4 3 -1 12
8 19 8 7 15 9 15 5 0 -4 7 -2 15 5 8 7 15 17 15 22 0 6 -7 5 -15 -2 -9 -7 -18
-10 -22 -6 -3 3 -1 6 6 6 7 0 9 5 5 12 -5 7 -3 8 6 3 10 -6 12 -4 7 9 -5 11
-3 15 5 10 8 -5 9 -2 5 9 -3 9 -2 19 3 22 5 3 7 -9 5 -26 -4 -26 -2 -29 10
-19 7 6 11 19 8 28 -4 13 -2 13 9 -2 15 -19 15 -19 26 0 6 10 12 15 12 10 0
-5 7 -3 15 4 9 7 13 20 10 29 -6 21 10 45 24 37 6 -4 8 -12 5 -18 -11 -17 -13
-59 -4 -53 5 3 7 12 4 20 -4 10 0 13 15 10 19 -3 20 -1 10 18 -25 48 -39 57
-58 39 -10 -9 -16 -21 -13 -27 3 -5 -1 -5 -8 2 -9 9 -19 9 -34 2 -21 -10 -21
-10 -1 6 17 14 18 17 5 25 -9 6 -10 10 -3 10 7 0 16 -7 21 -16 8 -14 12 -14
31 7 20 22 22 22 34 4 12 -15 17 -16 33 -6 14 9 15 11 2 7 -23 -7 -32 23 -13
44 9 10 12 21 7 24 -5 3 -15 -6 -22 -19 -7 -13 -17 -22 -21 -19 -4 2 -15 -6
-23 -18 -18 -25 -18 -25 -20 19 -2 30 -1 31 14 18 15 -13 16 -11 16 30 0 24
-3 42 -7 39 -9 -5 -17 18 -12 34 3 6 9 12 15 12 7 0 6 -5 -1 -14 -10 -11 -8
-16 9 -21 18 -6 19 -9 9 -23 -11 -14 -11 -15 1 -5 8 7 19 13 25 13 5 -1 -1
-10 -14 -20 -13 -11 -18 -20 -11 -20 7 0 10 -7 6 -17 -4 -11 1 -8 13 7 11 13
17 29 14 34 -4 5 -1 6 7 1 9 -6 11 -4 5 5 -6 9 -4 11 5 5 9 -6 11 -4 5 6 -5 8
-5 11 0 7 4 -4 14 -3 22 3 10 9 13 8 13 -1 0 -8 3 -10 6 -7 4 4 1 13 -5 21
-10 12 -9 17 7 25 11 6 21 9 23 6 2 -2 5 8 5 21 1 13 -2 24 -7 24 -5 0 -9 -10
-9 -22 0 -19 -2 -20 -10 -8 -8 12 -10 13 -10 1 0 -28 -31 -51 -52 -40 -11 6
-22 8 -25 6 -2 -3 5 -8 16 -12 12 -3 19 -10 16 -15 -5 -9 -55 10 -55 21 0 18
30 30 48 20 22 -12 32 -6 32 21 0 10 7 18 15 18 9 0 12 6 9 15 -9 21 9 19 40
-6 33 -26 43 -20 16 9 -26 28 -25 37 1 18 12 -8 28 -12 35 -9 8 3 22 -1 31 -8
14 -12 15 -11 9 11 -6 19 -5 21 3 10 6 -8 11 -11 11 -6 0 5 12 -1 27 -15 14
-13 23 -19 20 -13 -3 6 0 11 8 11 15 0 18 -8 16 -37 0 -8 7 -1 15 17 9 17 27
37 40 44 13 6 21 16 18 21 -3 4 2 8 10 8 9 0 16 5 16 11 0 5 -5 7 -12 3 -7 -4
-8 -3 -4 5 4 6 11 9 16 6 16 -10 22 16 7 33 -8 9 -12 23 -9 31 3 8 0 11 -7 7
-6 -4 -11 -2 -11 3 0 6 6 11 13 11 8 0 7 3 -3 10 -11 7 -17 5 -21 -8 -5 -11
-7 -5 -6 15 0 29 1 31 13 15 12 -15 13 -15 9 5 -2 13 -1 23 3 24 4 0 19 2 34
4 15 2 30 -1 34 -6 6 -11 24 -2 24 12 0 6 -4 7 -10 4 -5 -3 -10 -1 -10 4 0 14
13 14 27 0 16 -16 -32 -60 -55 -52 -15 6 -15 5 -3 -10 11 -13 17 -15 28 -6 11
10 12 8 7 -5 -4 -10 -12 -15 -20 -12 -7 3 -15 2 -17 -2 -2 -4 -2 -2 -1 5 2 7
-1 15 -6 18 -5 3 -7 12 -4 19 3 8 1 16 -3 19 -11 7 -10 -83 0 -100 10 -16 49
-4 43 13 -3 8 0 13 7 11 7 -1 11 3 10 10 -2 7 4 10 12 7 8 -4 15 -1 15 5 0 6
-4 11 -10 11 -5 0 -10 5 -10 12 0 9 3 9 12 0 17 -17 28 -15 28 4 0 10 5 14 15
10 13 -5 14 -2 4 15 -10 19 -9 20 13 8 20 -11 22 -11 10 3 -10 13 -10 18 -1
24 8 4 9 3 5 -4 -4 -7 -2 -12 3 -12 6 0 11 5 11 12 0 6 3 9 6 5 3 -3 16 5 29
18 12 14 26 21 30 17 5 -4 5 1 2 11 -5 12 -1 17 12 17 24 0 55 35 46 52 -6 10
-5 11 6 1 21 -20 31 -15 18 10 l-12 22 23 -20 c13 -11 20 -14 16 -7 -4 6 -2
12 4 12 6 0 8 4 5 10 -3 6 1 7 9 4 9 -4 18 1 22 10 3 9 12 16 20 16 7 0 18 9
24 19 5 11 20 23 32 27 37 11 51 25 36 37 -9 6 -8 7 5 3 9 -3 17 0 17 6 0 7 4
7 14 -1 11 -10 16 -9 23 4 5 9 19 17 31 18 16 1 18 4 10 14 -8 11 -7 12 7 6
14 -5 17 -3 12 10 -8 21 -3 21 18 0 16 -15 17 -15 15 3 -5 40 -1 45 19 32 11
-6 19 -20 18 -29 -1 -19 -12 -15 -12 4 0 5 -7 12 -15 14 -13 4 -13 3 0 -6 8
-6 11 -11 7 -11 -4 0 -3 -9 3 -19 11 -22 64 -7 55 17 -2 6 3 12 12 12 9 0 14
3 10 6 -8 8 32 46 43 39 5 -3 7 3 5 14 -3 14 1 18 11 14 10 -4 17 2 21 16 3
13 11 20 19 17 8 -3 14 -1 14 5 0 6 5 7 12 3 8 -5 9 -2 4 11 -5 15 -4 16 9 5
11 -9 15 -9 15 -1 0 7 4 10 8 7 5 -3 19 8 32 24 18 22 27 26 37 18 10 -8 15
-4 22 13 5 13 10 18 10 11 1 -10 4 -10 15 0 8 7 11 18 8 23 -3 6 3 3 14 -5 10
-8 16 -11 12 -6 -4 5 0 15 8 23 8 8 11 19 8 25 -4 7 -2 8 5 4 6 -4 9 -12 6
-17 -3 -5 1 -6 9 -3 9 3 16 11 16 16 0 6 9 8 19 5 14 -3 18 -1 14 9 -3 9 2 12
16 9 11 -2 20 -1 18 3 -1 4 1 7 5 7 4 0 13 9 21 19 8 11 19 16 25 12 7 -4 12
-1 12 9 0 9 5 13 10 10 6 -3 10 -1 10 4 0 6 4 10 9 9 5 -2 17 6 26 17 9 11 13
14 10 6 -6 -9 -1 -9 17 3 14 9 28 14 31 11 4 -3 3 1 -3 7 -5 7 -10 17 -10 22
0 6 5 4 10 -4 8 -12 13 -11 33 8 13 12 29 22 35 22 16 0 15 12 0 30 -11 12
-10 12 3 2 20 -15 74 22 65 44 -3 8 0 11 10 7 7 -3 14 0 14 7 0 6 5 8 13 4 7
-5 6 0 -3 11 -14 17 -14 18 7 6 20 -10 22 -9 16 6 -3 10 -3 15 1 11 4 -3 17 2
29 13 49 43 57 49 57 41 1 -4 8 5 16 21 8 15 19 27 25 27 6 0 7 5 3 12 -5 8
-2 9 10 5 10 -4 15 -3 11 3 -3 6 2 13 12 17 10 4 35 24 55 44 20 20 39 34 42
32 2 -3 12 7 21 21 10 14 24 26 32 26 8 0 12 4 9 9 -3 5 1 12 10 15 8 3 12 11
8 17 -4 8 -3 9 4 5 7 -4 12 -2 12 4 0 6 5 8 10 5 6 -3 13 1 16 10 4 9 13 14
22 10 13 -5 13 -3 1 12 -8 9 -9 14 -2 10 6 -4 14 -3 18 3 4 6 10 8 15 5 9 -6
24 13 25 30 1 6 6 9 13 7 7 -1 12 3 12 9 0 5 5 7 11 4 6 -4 9 0 7 11 -2 15 3
19 24 19 20 -1 24 2 17 12 -8 9 -6 11 10 8 11 -2 20 -1 20 3 -3 21 5 30 41 46
22 10 40 24 40 31 0 8 5 17 12 21 6 4 8 3 5 -3 -3 -5 0 -10 8 -10 8 0 13 3 10
5 -3 3 3 11 13 19 16 12 16 13 -3 7 -17 -4 -16 -3 3 8 12 8 19 18 15 23 -4 5
0 3 10 -4 15 -12 17 -12 11 4 -5 12 -4 16 3 12 7 -4 16 5 21 20 6 16 11 22 11
16 1 -9 7 -8 20 4 11 9 17 23 13 31 -3 10 -1 13 6 8 15 -9 15 -1 1 27 -10 21
-9 21 8 -1 17 -21 21 -22 32 -8 7 8 10 20 6 27 -6 8 -2 8 14 0 17 -9 20 -9 15
3 -6 16 29 40 40 28 4 -3 4 1 0 11 -4 11 -1 17 7 17 18 1 92 87 84 99 -3 5 4
13 16 16 15 5 18 10 10 18 -6 6 -11 16 -11 22 0 5 5 3 10 -5 9 -13 12 -12 25
4 8 10 12 23 9 27 -3 5 2 6 10 3 11 -4 16 0 16 15 0 12 5 21 11 21 6 0 9 7 6
14 -4 10 -1 13 9 9 9 -3 14 2 14 16 0 12 5 21 12 21 6 0 8 3 5 7 -4 3 1 12 11
20 9 8 11 12 5 8 -7 -3 -13 -1 -13 5 0 6 7 13 15 17 14 5 14 7 0 23 -13 14
-13 17 0 17 8 0 11 -5 8 -10 -3 -6 -1 -7 6 -3 6 4 9 12 6 17 -4 5 -1 9 5 9 6
0 9 4 5 9 -3 5 2 17 11 25 14 15 14 16 -1 16 -9 0 -13 5 -10 11 4 6 10 8 13 5
7 -8 41 47 35 57 -2 4 -9 7 -14 7 -6 0 -8 -4 -5 -9 3 -5 -2 -15 -12 -22 -15
-13 -16 -12 -3 4 11 14 11 17 0 17 -11 0 -11 2 1 10 8 5 24 7 36 4 19 -5 21
-2 17 20 -3 15 -1 26 6 26 5 0 8 6 5 14 -3 8 -1 17 5 21 6 3 11 17 11 31 0 17
-4 23 -12 18 -7 -4 -8 -3 -4 4 4 7 15 12 24 13 11 0 13 2 4 6 -10 4 -10 8 0
21 10 12 10 14 1 8 -7 -4 -13 -2 -13 3 0 6 5 11 10 11 6 0 10 7 10 16 0 9 -5
12 -12 8 -10 -5 -10 -3 0 7 11 12 14 12 22 -1 6 -9 10 -10 10 -3 0 6 -5 15
-10 18 -8 5 -7 12 2 22 7 9 11 26 10 39 -2 15 2 24 10 24 10 0 9 3 -2 10 -12
8 -12 10 -1 10 8 0 11 3 8 7 -4 3 -2 12 4 19 8 9 5 11 -9 7 -11 -2 -23 1 -27
8 -5 8 -4 10 3 5 7 -4 20 -2 29 4 17 11 17 11 -1 6 -14 -5 -17 -3 -11 11 15
38 16 65 3 57 -8 -5 -7 -1 2 11 13 17 13 18 0 10 -13 -8 -13 -7 -1 8 9 11 10
17 2 17 -6 0 -11 5 -11 11 0 5 4 8 8 5 12 -7 10 48 -2 56 -7 5 -7 8 2 8 9 0
11 7 7 21 -5 15 -4 19 5 14 9 -6 9 -2 -1 16 -19 36 -29 89 -16 89 8 0 8 3 0
11 -12 12 -6 39 11 51 7 5 5 8 -4 8 -11 0 -12 3 -3 8 6 4 13 19 15 32 2 14 7
31 12 39 6 9 5 12 -2 7 -6 -4 -5 5 3 20 8 15 12 31 9 36 -3 4 0 8 6 8 7 0 8 6
0 19 -7 14 -7 22 2 27 6 4 8 3 4 -4 -3 -6 -1 -14 5 -18 8 -5 10 1 7 19 -3 16
-1 25 6 24 6 -1 10 6 8 17 -2 13 1 16 10 10 10 -6 10 -4 -1 9 -11 14 -11 18 3
23 9 3 13 11 10 16 -4 6 -2 13 5 17 6 4 12 19 13 34 1 15 5 27 9 27 3 0 5 14
4 30 -1 17 3 30 8 30 5 0 4 7 -3 15 -7 8 -8 15 -3 15 5 0 10 6 10 13 0 11 15
62 41 137 3 8 4 18 4 23 -1 4 2 7 7 7 7 0 20 27 25 53 0 4 5 6 10 5 9 -3 31
41 27 56 -1 4 3 14 9 20 5 7 11 26 13 42 2 17 6 34 9 39 3 6 4 20 3 33 -1 12
2 22 7 22 4 0 8 9 8 19 0 10 6 21 13 24 12 5 40 106 40 143 0 8 4 14 9 14 4 0
8 7 8 15 0 8 4 15 9 15 8 0 23 39 18 50 -1 3 9 21 23 40 34 47 47 73 55 109 4
17 10 31 15 31 4 0 7 8 6 18 -3 17 0 25 21 67 6 12 7 30 2 43 -6 15 -5 21 1
17 9 -6 11 11 13 93 1 12 4 22 7 22 3 0 6 45 6 100 0 55 -3 100 -6 100 -3 0
-7 12 -8 26 -1 14 -10 42 -19 62 -10 21 -16 45 -15 55 2 9 -1 17 -7 17 -5 0
-8 9 -6 20 2 11 0 18 -6 15 -5 -4 -9 1 -9 9 0 9 -5 16 -11 16 -6 0 -9 6 -6 13
2 6 0 20 -4 29 -5 10 -5 19 0 22 10 7 41 -20 41 -35 0 -5 7 -9 15 -9 9 0 20
-10 25 -22 5 -13 9 -19 9 -14 1 4 10 -2 21 -15 10 -13 19 -21 20 -17 0 4 11
-4 25 -18 14 -14 30 -22 35 -19 6 3 10 -1 10 -9 0 -9 6 -13 13 -10 7 2 25 -6
40 -20 15 -14 27 -23 27 -20 0 3 7 -1 15 -10 9 -8 22 -13 29 -10 8 3 17 0 21
-5 3 -6 10 -9 15 -6 4 3 13 -2 20 -10 7 -8 20 -15 29 -15 10 0 27 -9 38 -19
12 -11 23 -17 27 -14 3 3 8 -2 12 -11 3 -9 10 -14 14 -11 5 3 17 -6 28 -20 11
-14 29 -25 40 -25 12 0 24 -5 27 -11 5 -7 13 -5 24 5 10 9 21 13 24 9 4 -3 7
-1 7 6 0 7 4 9 10 6 6 -3 7 1 4 9 -3 9 -10 13 -15 10 -5 -3 -6 2 -3 10 3 9 1
16 -5 16 -7 0 -26 13 -44 29 -31 29 -31 30 -13 50 11 12 14 21 8 21 -7 0 -11
3 -10 8 4 13 -27 52 -42 52 -13 0 -13 1 0 10 13 8 13 10 -1 10 -9 0 -19 7 -23
15 -8 21 13 75 30 75 8 0 14 5 14 11 0 5 4 8 9 5 4 -3 25 10 46 29 22 19 44
31 49 28 6 -4 5 0 -2 9 -11 13 -10 16 5 14 12 -1 17 5 15 18 -2 10 1 15 6 12
6 -4 8 3 4 16 -3 13 -1 19 5 15 7 -5 9 1 6 15 -4 19 -3 20 7 8 10 -13 11 -13
7 0 -2 8 -10 15 -18 15 -17 1 -16 53 2 69 9 8 10 7 4 -4 -6 -12 -5 -13 6 -2
16 15 33 16 23 0 -4 -6 -3 -8 4 -4 6 3 14 1 17 -5 4 -5 14 -8 22 -5 8 3 12 2
9 -3 -14 -23 22 -31 45 -10 13 11 18 17 10 13 -11 -5 -13 -3 -8 10 4 10 7 20
7 22 0 3 6 2 13 -2 10 -6 10 -4 0 7 -7 7 -13 21 -13 30 0 20 -37 32 -44 14 -2
-7 3 -23 11 -36 9 -13 13 -21 8 -16 -5 4 -19 0 -32 -9 l-24 -15 17 26 c9 14
14 28 10 32 -3 3 -6 1 -6 -6 0 -7 -7 -11 -14 -8 -10 4 -13 1 -9 -9 3 -7 0 -14
-7 -14 -6 0 -9 4 -6 9 3 5 -1 14 -8 20 -9 8 -17 8 -20 2 -3 -5 0 -12 6 -14 9
-4 8 -6 -2 -6 -8 -1 -21 8 -28 20 -10 15 -10 19 -1 14 7 -5 10 -3 7 5 -2 8
-14 14 -26 15 -17 1 -19 -2 -11 -16 12 -23 12 -39 -2 -39 -5 0 -8 4 -4 9 3 5
2 12 -3 15 -5 3 -9 -2 -9 -11 0 -9 9 -18 19 -21 23 -6 23 -11 1 -28 -17 -13
-17 -14 -1 -8 16 5 16 4 2 -25 -15 -29 -44 -43 -44 -20 0 5 4 8 9 4 5 -3 13 0
17 6 4 8 3 9 -4 5 -15 -9 -34 28 -25 51 5 15 4 16 -8 6 -12 -9 -14 -4 -12 33
1 29 -2 43 -10 41 -7 -1 -12 9 -11 26 1 15 -3 27 -7 27 -5 0 -6 6 -3 13 3 8
-2 19 -10 26 -8 7 -12 19 -9 27 3 8 0 14 -7 14 -6 0 -8 5 -5 10 3 6 11 10 16
10 6 0 8 -4 5 -9 -3 -5 4 -12 17 -15 22 -6 22 -6 2 -23 -18 -14 -18 -15 -2 -9
12 4 17 2 15 -6 -5 -13 14 -38 27 -38 4 0 4 8 1 18 -5 14 -4 14 9 -2 11 -14
15 -16 15 -5 1 10 3 9 11 -4 6 -9 14 -15 19 -12 4 3 7 -6 6 -19 -2 -19 1 -23
15 -21 10 2 18 1 18 -3 -4 -26 2 -36 12 -19 5 9 7 22 3 29 -4 7 -3 8 5 4 7 -5
9 -16 5 -28 -4 -15 -3 -18 6 -13 9 6 11 4 5 -4 -4 -7 4 -5 19 4 25 17 27 35 3
35 -8 0 -8 -3 1 -9 11 -7 11 -9 -1 -14 -10 -4 -17 2 -21 19 -4 13 -13 24 -21
24 -7 0 -17 9 -20 20 -3 11 -11 20 -16 20 -6 0 -7 5 -4 10 3 6 -2 10 -12 10
-15 0 -16 2 -3 10 8 5 10 10 4 10 -7 0 -14 9 -17 20 -3 11 -1 20 5 20 5 0 6 5
3 10 -4 6 -10 8 -14 6 -4 -3 -8 1 -8 9 0 8 4 12 9 9 4 -3 6 5 4 18 -2 13 -10
22 -17 20 -10 -3 -10 0 1 12 10 14 10 16 -6 16 -16 0 -16 2 -4 9 8 6 19 7 25
3 6 -4 6 -1 -1 9 -6 8 -11 25 -12 38 -1 30 -39 70 -71 76 -13 2 -31 13 -41 25
-9 11 -20 20 -24 20 -10 0 -46 39 -46 51 0 5 -5 7 -12 3 -7 -4 -8 -3 -4 4 4 6
1 22 -6 34 -7 13 -11 27 -10 32 2 4 -2 14 -8 21 -8 10 -8 15 1 21 8 5 9 3 4
-6 -5 -9 -4 -11 4 -6 9 6 9 11 1 21 -7 8 -8 20 -4 26 4 7 3 9 -2 6 -6 -3 -16
3 -23 15 -10 16 -10 19 1 12 7 -4 2 4 -12 18 -14 13 -28 23 -32 21 -8 -4 -4
24 4 33 9 8 29 -32 20 -41 -4 -5 -1 -5 6 -1 6 4 12 15 12 25 0 9 -6 23 -12 30
-11 11 -10 13 2 7 9 -5 9 -2 -2 7 -10 8 -15 17 -11 20 3 4 1 7 -6 7 -9 0 -9 5
0 21 8 15 8 19 0 15 -7 -5 -11 2 -11 18 0 14 -5 28 -10 31 -6 4 -8 10 -5 15 3
5 0 12 -6 15 -5 4 -8 13 -5 21 3 7 1 16 -4 19 -6 4 -10 0 -10 -7 0 -8 -5 -5
-11 5 -8 14 -8 22 1 30 10 9 11 9 6 -3 -4 -8 0 -6 8 5 21 25 13 114 -14 165
-6 12 -14 34 -16 48 -3 15 -9 31 -13 37 -8 11 -11 35 -14 100 -1 22 -8 45 -15
50 -7 6 -14 20 -15 32 0 12 -4 20 -8 17 -4 -2 -12 11 -19 29 -20 54 -33 77
-42 77 -5 0 -6 5 -3 10 3 6 1 10 -6 10 -7 0 -10 3 -6 6 5 5 -10 27 -40 59 -7
8 -13 16 -13 20 0 14 -67 85 -74 78 -3 -4 -6 1 -6 11 0 20 -25 48 -34 39 -3
-4 -6 1 -6 11 0 11 -4 14 -12 10 -8 -5 -9 -2 -5 10 4 11 3 15 -4 11 -6 -4 -13
2 -16 14 -3 11 -9 18 -14 15 -8 -5 -13 10 -10 29 1 5 -3 6 -9 2 -5 -3 -10 -1
-10 5 0 6 -4 8 -10 5 -5 -3 -10 0 -10 8 0 8 -8 21 -17 28 -14 12 -16 12 -8 0
5 -10 4 -12 -3 -7 -7 4 -12 14 -12 22 0 20 -30 51 -31 32 0 -7 -5 2 -10 20 -5
17 -14 32 -20 32 -10 0 -25 11 -64 46 -13 12 -25 20 -27 18 -2 -1 -12 10 -23
27 -11 16 -26 29 -33 29 -7 0 -11 4 -8 8 3 5 -6 15 -19 22 -13 7 -22 17 -19
21 3 5 -2 6 -10 3 -11 -4 -16 0 -16 11 0 9 -4 14 -8 11 -5 -3 -19 8 -31 24
-12 17 -27 29 -34 27 -6 -1 -11 5 -9 13 2 8 0 12 -4 8 -4 -4 -24 7 -44 25 -57
50 -80 67 -88 67 -4 0 -13 9 -20 21 -7 11 -29 27 -48 35 -18 8 -34 18 -34 23
0 6 -10 13 -22 17 -13 4 -28 14 -35 23 -7 9 -13 12 -13 8 0 -5 -7 -1 -16 7 -8
9 -20 13 -26 10 -6 -4 -8 -2 -5 3 8 13 -30 32 -70 35 -7 1 -11 6 -10 12 1 6
-6 10 -15 10 -10 -1 -18 3 -18 8 0 6 -11 8 -25 6 -22 -5 -24 -3 -13 11 7 9 9
13 4 9 -5 -4 -18 -2 -30 4 -11 7 -24 11 -28 10 -5 -1 -8 4 -9 10 0 7 -4 4 -9
-7 -7 -17 -9 -17 -9 -2 -1 9 -7 17 -13 17 -7 0 -26 7 -41 15 -15 8 -25 10 -22
5 4 -6 1 -10 -4 -10 -6 0 -11 4 -11 9 0 5 -9 11 -20 14 -13 3 -18 1 -13 -6 4
-7 -5 -4 -20 6 -16 10 -36 17 -45 15 -9 -1 -23 1 -29 5 -9 5 -13 3 -13 -7 0
-9 -4 -16 -9 -16 -6 0 -8 9 -6 19 3 17 0 19 -21 11 -13 -5 -24 -6 -24 -1 0 5
-13 11 -30 13 -16 3 -30 0 -30 -5 0 -6 -10 -2 -22 9 -12 10 -18 13 -14 7 4 -8
1 -13 -9 -13 -10 0 -13 5 -9 13 5 8 2 8 -9 -2 -11 -9 -17 -9 -17 -2 0 7 -13 9
-35 6 -25 -3 -34 -1 -29 7 4 7 3 8 -5 4 -6 -4 -18 -2 -26 4 -17 14 -38 3 -31
-16 3 -7 2 -15 -2 -18 -4 -3 -9 5 -9 16 -3 28 -10 33 -28 18 -10 -8 -15 -9
-15 -1 0 6 -5 11 -11 11 -5 0 -8 -4 -5 -8 2 -4 0 -14 -6 -22 -8 -12 -9 -12 -4
3 6 20 -31 41 -49 27 -5 -4 -18 -6 -28 -4 -13 2 -17 -2 -13 -13 5 -13 4 -14
-9 -3 -12 10 -15 9 -16 -6 0 -18 -1 -18 -9 1 -8 19 -15 7 -11 -18 1 -5 -3 -6
-9 -2 -6 3 -8 11 -5 16 4 5 -1 9 -9 9 -9 0 -16 4 -16 8 0 5 -13 8 -29 8 -17 0
-28 -3 -25 -8 7 -11 -18 -10 -36 2 -10 6 -22 3 -40 -13 -14 -12 -19 -15 -12
-7 17 20 15 35 -3 20 -8 -7 -15 -8 -15 -3 0 5 -11 9 -24 9 -17 0 -22 -5 -19
-15 4 -12 1 -12 -10 2 -14 17 -15 17 -19 -1 -3 -10 -12 -19 -21 -19 -9 0 -14
4 -11 9 3 5 10 6 15 3 5 -4 9 1 9 9 0 19 -11 21 -28 4 -7 -7 -12 -8 -12 -2 0
6 -7 11 -15 11 -12 0 -12 -3 -3 -15 13 -15 21 -49 10 -37 -4 4 -7 10 -7 14 0
17 -32 38 -55 36 -14 -1 -28 3 -32 9 -4 6 -6 -4 -3 -21 2 -18 0 -35 -5 -38 -5
-3 -7 3 -5 13 4 25 -5 37 -31 38 -16 1 -20 -4 -18 -23 2 -19 0 -22 -11 -13 -9
8 -15 8 -18 0 -3 -6 -4 -5 -2 2 1 7 7 12 13 11 6 -2 9 4 5 13 -5 13 -8 13 -22
1 -9 -8 -23 -12 -31 -9 -13 5 -13 3 -1 -12 12 -14 12 -16 -3 -10 -21 8 -15 30
9 27 11 -1 14 2 7 9 -7 7 -17 6 -30 -1 -27 -14 -35 -14 -26 2 4 6 -3 3 -15 -7
-22 -20 -22 -20 -15 0 7 16 6 17 -8 6 -11 -9 -18 -10 -23 -2 -8 13 -25 13 -25
-1 0 -5 4 -8 8 -5 4 2 8 -4 8 -15 0 -18 -2 -18 -12 -5 -6 9 -15 12 -19 8 -5
-4 -6 -2 -3 3 4 6 -13 10 -43 10 -41 0 -46 -2 -33 -12 15 -11 14 -12 -5 -10
-11 1 -21 6 -21 12 0 7 -15 10 -35 9 -20 -2 -33 1 -30 6 12 20 -13 18 -34 -3z
m-3067 -1159 c-3 -5 -10 -6 -15 -3 -13 9 -11 -9 3 -23 14 -14 20 -45 8 -37
-11 7 -23 -12 -24 -39 -1 -15 -7 -20 -24 -19 -20 3 -21 1 -10 -17 16 -26 22
-25 38 4 16 31 54 15 43 -19 -5 -17 -4 -18 10 -6 9 7 14 17 11 22 -3 5 0 9 6
9 7 0 10 -6 7 -12 -2 -7 3 -19 12 -26 14 -10 13 -11 -4 -5 -18 6 -19 5 -5 -13
14 -18 14 -18 -2 -5 -10 7 -18 10 -18 6 0 -4 -8 -1 -17 6 -14 12 -16 12 -11
-2 4 -10 1 -16 -8 -16 -8 0 -13 7 -12 15 2 8 -3 17 -10 19 -8 3 -10 -1 -5 -14
7 -17 6 -17 -11 0 -25 24 -43 21 -21 -3 17 -18 17 -20 2 -14 -9 3 -17 10 -17
15 0 5 -5 9 -11 9 -6 0 -22 9 -36 20 -29 23 -18 27 11 5 26 -20 42 -19 25 1
-11 13 -10 17 4 25 9 6 17 15 17 21 0 9 -3 9 -11 1 -9 -9 -17 -9 -31 0 -16 10
-22 8 -39 -13 l-21 -25 18 32 c10 18 20 30 23 28 2 -3 10 0 18 7 11 9 12 7 7
-7 -6 -15 -4 -15 14 -4 11 7 19 21 17 31 -2 9 1 21 7 24 7 4 8 2 4 -4 -4 -7
-2 -12 4 -12 6 0 14 11 19 23 5 13 16 24 25 24 8 0 13 -4 10 -9z m274 -29 c-7
-5 -10 -9 -5 -10 4 -1 12 -3 17 -4 6 -1 16 -3 23 -4 7 -1 4 -6 -7 -12 -13 -8
-20 -8 -26 1 -5 8 -9 7 -14 -5 -8 -23 -9 -23 19 -20 31 4 31 4 -5 -33 -16 -18
-30 -27 -30 -22 0 6 -6 5 -14 -2 -8 -7 -11 -17 -8 -23 3 -5 -1 -4 -10 3 -8 7
-22 10 -31 6 -8 -3 -18 -1 -21 5 -4 6 -14 7 -22 4 -13 -5 -15 -1 -9 17 4 13 3
20 -2 17 -5 -3 -15 -2 -23 3 -8 5 -21 5 -32 -1 -14 -7 -16 -6 -12 5 3 9 15 13
30 10 18 -3 22 -1 18 11 -4 8 -1 15 6 15 6 0 8 5 5 10 -9 15 4 32 18 23 19
-12 61 -12 77 1 13 9 13 9 2 -6 -9 -11 -10 -18 -2 -23 5 -3 10 -1 10 6 0 8 4
8 15 -1 9 -8 15 -9 15 -2 0 6 -5 14 -10 17 -7 4 -6 13 1 26 8 17 13 18 25 8
12 -10 12 -14 2 -20z m6134 -1585 c-2 -27 0 -34 10 -28 9 5 8 1 -2 -12 -36
-47 -110 -105 -123 -97 -5 3 -6 -4 -2 -18 4 -16 3 -20 -3 -11 -5 8 -13 14 -17
14 -4 0 -12 -6 -17 -14 -6 -9 -7 -5 -3 10 7 23 7 23 -19 7 -14 -10 -26 -13
-27 -9 0 5 -2 16 -4 25 -2 15 7 17 33 10 6 -2 17 5 15 9 -1 3 8 7 20 7 12 1
23 7 25 13 2 5 9 10 15 10 20 1 48 48 49 81 1 22 7 33 22 39 27 10 31 6 28
-36z"/>
<path d="M4796 1154 c-3 -8 -1 -12 4 -9 6 3 7 -1 4 -10 -6 -14 -8 -13 -21 4
-8 13 -23 20 -38 19 -17 -2 -21 -6 -14 -14 6 -7 4 -15 -5 -23 -11 -9 -15 -9
-19 1 -2 7 -8 10 -12 5 -5 -4 0 -14 11 -22 18 -15 17 -15 -11 -13 -26 3 -30 0
-30 -22 0 -34 6 -45 16 -29 4 7 4 19 -2 25 -7 8 -1 11 21 9 18 -2 27 1 23 8
-4 6 -1 7 7 2 9 -6 11 -4 5 5 -6 9 -4 11 5 5 9 -6 11 -4 5 6 -5 8 4 3 18 -10
32 -29 37 -42 5 -15 -18 16 -21 17 -15 2 4 -12 2 -15 -8 -12 -20 8 -12 -23 11
-41 28 -21 43 -18 16 5 -21 17 -21 19 -3 17 11 0 17 -5 14 -10 -3 -5 0 -7 8
-5 8 3 13 11 11 18 -2 7 3 10 11 7 18 -7 42 29 24 36 -7 3 -5 6 4 6 9 1 19 10
22 22 4 14 2 19 -8 16 -7 -3 -22 3 -33 13 -17 16 -21 17 -26 4z"/>
<path d="M4636 922 c16 -11 15 -52 -2 -52 -8 0 -14 5 -14 11 0 5 4 8 8 5 5 -3
9 1 9 9 0 8 -4 15 -9 15 -8 0 -9 -5 -12 -40 -1 -8 -7 -14 -14 -12 -7 1 -12 -5
-12 -13 0 -14 -10 -18 -27 -12 -5 1 -7 6 -5 10 1 5 -13 -4 -33 -19 -19 -14
-35 -23 -35 -19 0 4 -7 2 -15 -5 -8 -7 -12 -16 -9 -21 3 -5 0 -9 -5 -9 -6 0
-11 -5 -11 -11 0 -6 6 -9 13 -6 6 2 11 11 11 20 -1 9 3 14 9 10 6 -4 7 -1 2 7
-5 9 -4 11 3 6 9 -5 9 -13 2 -26 -7 -13 -7 -21 0 -25 5 -3 10 1 10 9 0 21 36
40 46 24 4 -7 3 -8 -4 -4 -7 4 -12 0 -13 -11 0 -12 -2 -13 -6 -5 -4 10 -9 7
-17 -10 -6 -12 -20 -24 -31 -25 -20 -3 -20 -3 0 6 23 11 22 12 -27 15 -43 3
-43 4 -23 -34 10 -19 11 -31 4 -35 -7 -5 -7 -11 1 -20 8 -10 7 -16 -6 -23 -10
-5 -12 -12 -6 -16 9 -5 24 16 26 39 1 6 10 10 20 10 11 0 21 6 24 13 2 8 -5
11 -19 10 -13 -2 -24 2 -24 7 0 6 -4 16 -8 23 -11 17 1 15 20 -4 9 -8 22 -13
30 -10 8 3 11 1 8 -4 -3 -6 -4 -10 0 -10 7 0 85 51 85 56 0 9 -26 -2 -37 -16
-7 -8 -13 -10 -13 -4 0 16 22 34 43 34 17 0 17 2 -4 21 l-24 20 24 -12 c27
-13 64 21 53 50 -4 10 -1 12 8 6 8 -5 11 -4 6 3 -3 6 3 13 13 17 13 4 18 11
14 22 -4 10 -2 14 4 10 7 -4 9 0 6 11 -2 10 -14 19 -26 19 -12 1 -17 -1 -11
-5z"/>
</g>
</svg>
