<?xml version="1.0" standalone="no"?>
<!DOCTYPE svg PUBLIC "-//W3C//DTD SVG 20010904//EN"
 "http://www.w3.org/TR/2001/REC-SVG-20010904/DTD/svg10.dtd">
<svg version="1.0" xmlns="http://www.w3.org/2000/svg"
 width="1024.000000pt" height="1024.000000pt" viewBox="0 0 1024.000000 1024.000000"
 preserveAspectRatio="xMidYMid meet">
<metadata>
Created by potrace 1.16, written by Peter Selinger 2001-2019
</metadata>
<g transform="translate(0.000000,1024.000000) scale(0.100000,-0.100000)"
fill="#000000" stroke="none">
<path d="M5997 9653 c-4 -3 -46 -8 -94 -9 -48 -2 -93 -6 -99 -8 -7 -3 -15 0
-18 7 -3 9 -5 8 -5 -1 -1 -7 -5 -10 -11 -7 -5 3 -10 1 -10 -6 0 -9 -3 -9 -14
0 -9 7 -17 8 -20 3 -7 -11 -81 -8 -110 4 -26 10 -165 12 -194 2 -13 -5 -43
-11 -65 -13 -23 -3 -58 -8 -77 -11 -29 -4 -94 -9 -237 -17 -13 0 -23 -3 -23
-7 0 -3 -12 -6 -27 -6 -58 -3 -93 -8 -93 -15 0 -6 -55 -17 -130 -25 -48 -5
-63 -8 -77 -17 -7 -5 -13 -6 -13 -3 0 3 -21 -6 -46 -19 -26 -14 -60 -25 -75
-25 -16 0 -29 -4 -29 -10 0 -5 -6 -10 -13 -10 -8 0 -32 -17 -53 -37 -65 -62
-120 -102 -145 -107 -13 -3 -26 -6 -29 -7 -3 -1 -12 -3 -20 -3 -8 -1 -14 -7
-13 -13 1 -6 -8 -10 -22 -9 -13 2 -29 0 -36 -5 -8 -4 -19 -3 -26 3 -9 7 -13 7
-13 0 0 -9 -41 -23 -67 -24 -5 0 -14 -5 -22 -11 -8 -7 -21 -12 -30 -13 -9 0
-27 -5 -41 -11 -14 -6 -28 -9 -32 -6 -5 2 -8 -1 -8 -7 0 -6 -8 -10 -17 -8 -10
1 -25 -2 -33 -7 -15 -9 -19 -11 -50 -18 -8 -1 -25 -9 -37 -15 -13 -7 -23 -10
-23 -6 0 3 -8 0 -17 -7 -13 -11 -15 -11 -9 -1 6 10 4 11 -10 4 -29 -15 -88
-32 -111 -32 -11 0 -23 -3 -27 -7 -4 -5 -12 -9 -17 -9 -5 -1 -11 -3 -14 -4 -3
-1 -9 -4 -15 -5 -5 -1 -12 -4 -15 -5 -3 -1 -8 -3 -12 -5 -51 -13 -63 -18 -63
-24 0 -4 -10 -7 -22 -8 -11 -1 -25 -8 -29 -15 -7 -10 -9 -11 -9 0 0 10 -5 10
-21 2 -11 -6 -29 -13 -40 -16 -10 -2 -29 -7 -41 -10 -13 -4 -36 -8 -52 -9 -17
-1 -32 -7 -34 -13 -2 -7 -8 -12 -13 -12 -6 0 -7 5 -4 10 4 6 -8 2 -26 -9 -18
-11 -36 -18 -40 -15 -4 2 -10 0 -14 -5 -3 -6 -12 -8 -20 -4 -8 3 -15 0 -15 -5
0 -6 -9 -9 -19 -7 -11 2 -25 -3 -32 -11 -6 -8 -17 -14 -23 -14 -6 0 -4 5 4 10
9 6 10 10 3 10 -6 0 -15 -4 -18 -10 -3 -5 -25 -15 -48 -22 -56 -16 -55 -15
-73 -17 -8 0 -13 -5 -10 -10 4 -5 -3 -7 -14 -4 -11 3 -20 1 -20 -5 0 -6 -11
-9 -24 -6 -14 2 -27 0 -31 -5 -3 -6 -13 -7 -22 -4 -10 4 -14 2 -10 -4 5 -7 -1
-9 -15 -5 -13 3 -19 1 -15 -5 4 -6 -5 -9 -24 -7 -20 3 -28 0 -23 -7 4 -7 -2
-7 -16 1 -18 10 -21 9 -15 -1 6 -8 4 -11 -7 -6 -9 3 -21 0 -27 -6 -9 -9 -14
-9 -20 2 -5 8 -11 9 -15 3 -3 -6 -20 -8 -36 -6 -25 4 -29 2 -24 -13 6 -15 4
-15 -9 2 -9 11 -17 15 -17 8 0 -6 -9 -10 -20 -8 -11 2 -20 0 -20 -4 0 -4 -15
-7 -32 -6 -18 1 -48 -4 -66 -12 -18 -7 -31 -9 -28 -5 3 5 -6 8 -19 8 -13 0
-21 -4 -19 -8 3 -4 0 -8 -5 -8 -6 0 -11 6 -11 13 0 8 -4 7 -10 -3 -9 -13 -10
-13 -10 0 0 13 -1 13 -10 0 -8 -12 -10 -12 -10 -1 0 11 -3 11 -15 1 -8 -7 -15
-8 -15 -3 0 11 -29 11 -47 0 -6 -4 -14 -3 -18 3 -3 5 -24 8 -45 7 -21 -2 -37
0 -34 4 2 4 -3 14 -11 21 -9 7 -22 19 -30 26 -8 7 -15 11 -15 7 0 -3 -11 2
-25 11 -14 9 -22 21 -19 26 4 6 -2 6 -14 -1 -16 -8 -21 -7 -26 6 -4 9 -9 13
-12 10 -4 -3 -13 1 -21 9 -9 8 -22 13 -29 10 -7 -3 -16 0 -20 6 -5 7 -2 8 6 3
8 -5 11 -4 6 3 -4 6 -13 9 -21 5 -8 -3 -15 0 -15 7 0 10 -4 9 -16 -1 -13 -10
-17 -10 -24 1 -4 7 -23 14 -42 15 -18 0 -40 5 -47 9 -10 6 -12 5 -7 -2 8 -13
-6 -16 -18 -5 -10 10 -66 11 -66 1 0 -5 -8 -4 -19 1 -10 6 -22 7 -25 3 -7 -7
-12 -8 -54 -10 -13 -1 -21 -6 -18 -10 3 -5 -2 -9 -10 -9 -9 0 -13 6 -9 15 4
12 3 13 -10 2 -8 -7 -15 -9 -15 -6 0 4 -10 2 -21 -5 -15 -8 -19 -8 -15 0 10
15 -7 14 -23 -1 -11 -11 -12 -10 -6 2 7 12 6 13 -7 3 -8 -7 -18 -10 -21 -6 -4
3 -10 -2 -13 -11 -5 -13 -9 -15 -15 -5 -6 10 -11 10 -23 0 -9 -8 -16 -10 -16
-6 0 4 -12 0 -26 -10 -15 -9 -23 -12 -19 -5 4 6 -11 2 -34 -9 -29 -15 -41 -18
-42 -9 0 7 -4 3 -9 -9 -5 -13 -16 -23 -25 -23 -8 0 -15 -4 -15 -8 0 -5 -7 -17
-16 -28 -14 -18 -14 -18 -3 6 12 25 12 25 -9 7 -12 -11 -18 -26 -15 -35 4 -12
1 -12 -10 3 l-16 20 -1 -20 c0 -12 -3 -16 -8 -9 -10 15 -45 27 -36 12 5 -8 2
-9 -10 -5 -10 4 -19 1 -22 -7 -3 -8 -14 -13 -25 -11 -12 2 -19 -2 -19 -11 0
-10 -5 -12 -12 -8 -9 5 -8 2 1 -9 12 -16 12 -17 -5 -11 -18 5 -18 5 0 -10 16
-13 17 -16 4 -16 -11 0 -15 -9 -14 -30 0 -19 6 -30 16 -30 9 0 11 -3 5 -8 -16
-10 -17 -54 -2 -46 9 5 9 4 0 -6 -8 -8 -9 -20 -3 -36 7 -17 6 -24 -2 -24 -9 0
-9 -3 0 -12 7 -7 8 -17 1 -30 -6 -11 -6 -18 0 -18 6 0 6 -11 2 -27 -5 -16 -7
-36 -5 -46 1 -10 -2 -14 -9 -10 -7 4 -8 0 -3 -13 5 -10 9 -24 9 -31 0 -7 4
-10 8 -8 4 3 14 -6 23 -20 9 -14 13 -25 9 -25 -5 0 -1 -5 7 -10 11 -7 11 -10
2 -10 -10 0 -10 -5 -2 -20 8 -15 8 -20 -1 -20 -7 0 -9 -3 -6 -7 4 -3 2 -12 -5
-20 -9 -11 -7 -12 8 -7 18 5 18 5 2 -9 -10 -8 -16 -23 -13 -35 2 -15 0 -19
-11 -15 -10 4 -12 0 -8 -11 3 -9 1 -16 -5 -16 -6 0 -11 -6 -11 -13 0 -7 -10
-24 -22 -37 -23 -25 -24 -27 -27 -55 0 -8 -8 -15 -16 -15 -9 0 -12 -6 -9 -15
4 -8 11 -12 17 -8 6 3 7 1 3 -5 -4 -7 -14 -12 -21 -12 -9 0 -12 -6 -9 -15 4
-9 0 -15 -7 -15 -9 0 -10 -3 -4 -8 12 -8 16 -42 6 -42 -7 0 -10 -28 -12 -85 0
-10 -5 -25 -11 -32 -7 -8 -7 -13 0 -13 12 0 4 -87 -13 -139 -5 -17 -4 -22 5
-16 9 6 9 1 -1 -16 -10 -20 -20 -96 -20 -162 0 -11 -5 -15 -12 -10 -9 5 -9 3
-1 -8 10 -13 10 -38 0 -84 -3 -11 -5 -24 -5 -28 -1 -5 -7 -5 -13 -1 -10 5 -10
4 -1 -6 9 -9 7 -20 -7 -46 -11 -18 -15 -36 -11 -39 5 -3 8 -16 6 -30 -1 -14 2
-25 8 -25 6 0 8 -2 5 -6 -3 -3 0 -24 7 -47 7 -23 13 -67 13 -98 0 -31 2 -61 4
-65 3 -5 5 -23 4 -41 0 -17 1 -30 4 -28 3 2 7 -17 8 -41 1 -25 5 -51 9 -57 4
-7 8 -21 8 -32 3 -60 50 -169 68 -158 6 3 7 1 4 -5 -7 -11 20 -71 38 -84 6 -4
6 -8 1 -8 -5 0 -3 -6 3 -13 6 -8 9 -16 6 -19 -3 -3 4 -13 15 -23 11 -10 20
-22 20 -27 0 -5 7 -16 15 -25 8 -8 13 -19 10 -24 -4 -5 -1 -9 5 -9 6 0 9 -4 6
-9 -9 -14 5 -42 16 -35 7 4 6 0 0 -12 -11 -21 8 -60 23 -46 5 4 5 1 1 -6 -11
-18 3 -54 17 -45 7 4 6 -1 -2 -10 -11 -14 -11 -20 -1 -32 7 -8 10 -22 6 -30
-3 -9 -2 -13 4 -10 6 3 10 1 10 -6 0 -7 8 -22 17 -33 10 -12 11 -15 3 -8 -23
20 -32 14 -11 -9 20 -22 21 -34 7 -58 -5 -8 -5 -12 0 -9 5 3 18 -6 28 -20 11
-14 14 -22 8 -18 -17 11 -15 -10 4 -28 10 -11 11 -16 3 -16 -7 0 -5 -8 7 -22
10 -12 13 -18 5 -13 -9 5 -12 3 -9 -6 3 -8 11 -13 17 -11 9 2 9 -3 1 -18 -7
-13 -7 -20 0 -20 5 0 10 -10 10 -23 0 -13 3 -27 7 -31 8 -8 14 -32 16 -63 0
-13 5 -23 11 -23 6 0 5 -5 -2 -12 -9 -9 -8 -16 5 -30 11 -13 12 -18 3 -18 -10
0 -10 -3 0 -15 7 -8 9 -15 4 -15 -4 0 -3 -5 3 -11 6 -6 9 -18 6 -25 -3 -8 1
-14 11 -14 9 0 16 -5 16 -11 0 -5 -5 -7 -11 -4 -5 4 -3 -9 5 -28 8 -20 12 -38
8 -41 -3 -3 0 -6 7 -6 7 0 9 -4 6 -10 -3 -5 1 -23 10 -40 12 -23 12 -30 3 -30
-8 0 -9 -3 -3 -8 9 -6 14 -18 19 -47 1 -5 4 -14 7 -20 4 -5 5 -18 4 -27 -2
-10 0 -18 4 -18 7 0 9 -7 13 -49 1 -11 5 -18 9 -15 4 2 7 -9 8 -24 2 -53 8
-97 15 -114 4 -9 5 -22 1 -28 -3 -5 -2 -10 2 -10 5 0 9 -8 10 -17 8 -83 11
-104 15 -108 2 -3 2 -27 -2 -54 -3 -28 -3 -57 2 -65 5 -8 4 -17 -1 -21 -6 -3
-8 -12 -4 -20 3 -9 -1 -15 -8 -15 -11 0 -11 -3 1 -10 10 -6 11 -10 3 -10 -8 0
-11 -11 -9 -30 2 -16 -1 -27 -5 -24 -14 8 -11 -10 4 -25 10 -10 8 -11 -8 -5
-11 4 -17 4 -13 -1 4 -4 3 -16 -3 -26 -7 -14 -6 -19 3 -19 10 0 10 -2 0 -9
-11 -7 -11 -9 1 -14 8 -3 20 0 26 6 9 9 11 7 5 -8 -4 -11 -4 -17 1 -13 4 4 14
3 22 -3 9 -8 17 -8 26 0 10 8 17 7 26 -2 7 -6 12 -7 11 -2 -5 24 1 27 16 9 8
-10 13 -14 10 -7 -4 6 -2 15 4 18 6 4 10 3 9 -2 -4 -21 2 -33 17 -33 8 0 13
-4 9 -9 -3 -5 0 -13 6 -17 8 -4 7 -9 -2 -16 -10 -7 -8 -8 9 -5 13 3 20 1 16
-5 -4 -6 1 -8 14 -4 12 4 26 1 35 -8 13 -13 17 -13 33 6 17 19 17 21 2 15 -24
-9 -47 1 -44 19 1 8 6 14 11 13 4 0 12 5 16 13 8 13 14 -1 10 -25 -1 -4 11 -5
26 -2 22 4 24 3 8 -3 -19 -9 -19 -9 -1 -13 11 -2 20 -13 21 -26 1 -12 -2 -20
-7 -17 -4 3 -8 -1 -8 -8 0 -10 -3 -9 -10 2 -5 9 -5 19 2 27 7 9 7 13 0 13 -6
0 -15 -7 -20 -16 -12 -21 -62 -25 -80 -7 -7 7 -19 13 -25 13 -7 0 -4 -5 6 -11
9 -6 15 -14 12 -20 -4 -5 -1 -9 5 -9 6 0 8 -4 5 -10 -3 -5 1 -10 9 -10 10 0
13 6 9 16 -5 13 -3 15 13 6 13 -7 26 -7 39 -1 20 10 20 10 1 -5 -11 -9 -16
-16 -12 -16 5 0 2 -8 -5 -17 -12 -15 -12 -16 3 -10 10 3 20 2 23 -4 4 -5 3 -9
-2 -8 -31 5 -42 -16 -18 -33 6 -5 5 -8 -2 -8 -7 0 -13 -7 -13 -15 0 -9 6 -12
17 -8 11 4 14 3 9 -5 -4 -7 -2 -12 4 -12 6 0 8 -4 5 -10 -3 -6 1 -7 9 -4 9 3
16 1 16 -5 0 -6 7 -8 17 -4 11 4 14 3 9 -5 -4 -7 -2 -12 3 -12 10 0 14 13 9
26 -2 3 5 10 15 15 9 6 14 15 11 21 -4 7 -2 8 4 4 9 -5 7 -14 -4 -32 -9 -13
-13 -24 -9 -24 4 0 1 -8 -6 -17 -11 -15 -11 -16 1 -6 8 7 23 13 34 13 19 1 20
1 3 11 -12 7 -15 15 -8 27 4 9 6 23 4 30 -3 7 0 19 6 26 8 10 8 16 -3 25 -8 7
-12 20 -9 29 6 15 5 16 -13 2 -19 -14 -19 -14 0 8 19 22 32 30 21 13 -3 -5 -1
-12 4 -15 5 -3 12 2 16 12 14 30 14 46 2 54 -8 5 -5 8 8 8 17 0 17 2 5 10 -11
7 -11 10 -2 10 10 0 10 5 2 20 -6 11 -8 25 -5 30 3 6 1 10 -4 10 -6 0 -11 5
-11 11 0 5 4 7 10 4 6 -3 7 1 4 9 -3 9 -11 13 -16 10 -6 -4 -7 2 -3 16 4 13 3
20 -2 17 -5 -3 -15 -2 -23 4 -10 6 -11 9 -2 9 6 0 12 7 12 15 0 8 -4 15 -9 15
-13 0 -19 45 -9 63 5 10 4 18 -3 23 -7 4 -9 3 -5 -4 3 -6 2 -13 -3 -17 -6 -3
-8 6 -5 21 3 16 0 31 -8 35 -9 6 -9 9 -1 9 14 0 8 41 -8 51 -8 5 -8 8 0 13 6
4 9 12 6 17 -4 5 -2 9 3 9 15 0 21 51 7 56 -11 5 -14 38 -4 48 2 3 3 38 2 78
-4 103 -11 243 -13 243 -5 0 -12 47 -14 95 -2 30 -7 63 -10 72 -4 9 -2 26 4
38 10 18 9 21 -1 15 -8 -6 -10 -4 -4 6 7 11 11 114 5 114 -1 0 -3 36 -5 80 -5
103 -6 107 -21 101 -8 -3 -11 0 -7 9 3 8 9 12 14 9 5 -3 6 2 3 11 -4 8 0 23 7
32 15 18 15 20 -8 46 -9 9 -13 20 -10 24 4 3 1 13 -6 21 -10 13 -9 14 3 7 13
-8 13 -6 2 8 -8 9 -11 21 -8 26 4 5 -1 14 -10 19 -14 8 -14 10 -1 15 17 7 15
44 -6 86 l-15 31 29 -15 c16 -9 29 -11 29 -6 0 5 -9 11 -20 14 -13 3 -18 11
-14 20 3 8 0 18 -7 23 -8 4 -10 3 -5 -4 5 -8 1 -10 -10 -5 -10 4 -15 2 -11 -4
3 -5 0 -10 -7 -10 -15 0 -15 14 -2 36 7 11 5 13 -7 8 -10 -3 -17 -2 -17 4 0 6
8 9 18 7 9 -2 16 -9 15 -15 -2 -7 6 -11 17 -10 12 1 20 8 20 19 0 11 5 15 14
12 8 -3 17 0 22 7 4 7 3 10 -3 6 -6 -4 -9 15 -9 48 1 30 -3 55 -7 55 -5 0 -5
5 -2 10 3 6 2 10 -4 10 -11 0 -27 65 -22 89 1 7 -2 10 -8 7 -9 -6 -27 31 -23
47 1 4 -5 10 -13 14 -14 5 -14 8 2 27 14 16 15 18 1 8 -27 -21 -48 28 -25 57
9 12 9 13 0 7 -8 -4 -13 -2 -13 5 0 7 -7 4 -15 -7 -15 -18 -15 -18 -8 0 5 14
3 17 -7 11 -8 -5 -11 -4 -6 3 3 6 15 9 25 7 11 -2 22 3 25 11 3 9 -1 14 -12
14 -14 0 -14 2 -3 9 27 17 30 95 5 142 -8 16 -11 29 -7 29 4 0 -2 7 -13 15
-10 8 -15 15 -11 15 4 0 3 9 -3 20 -6 10 -13 41 -16 67 -3 26 -9 54 -13 63 -5
8 -6 20 -4 27 2 6 0 14 -6 17 -6 4 -8 13 -5 20 3 8 1 17 -4 20 -5 3 -7 20 -4
38 5 33 5 74 -1 238 -2 47 1 91 6 98 6 7 5 12 -2 12 -7 0 -8 8 -1 24 5 13 7
26 5 28 -5 5 -23 135 -26 191 -1 15 -6 30 -11 33 -4 3 -6 10 -2 15 3 6 -3 13
-15 16 -11 3 -18 9 -15 14 3 5 -1 9 -8 9 -9 0 -9 3 2 10 8 5 11 10 5 10 -16 0
-16 60 1 91 8 16 12 34 9 38 -3 5 2 17 11 25 8 9 13 16 10 16 -3 0 3 9 14 20
11 11 20 27 20 35 0 8 4 15 10 15 5 0 9 3 9 8 -1 4 0 10 1 15 1 4 3 10 4 15 4
20 39 82 46 82 4 0 10 10 13 22 4 12 9 19 13 15 4 -4 15 3 23 15 18 25 32 31
73 31 15 0 25 3 22 8 -3 5 2 6 11 3 9 -4 14 -9 11 -11 -3 -3 -1 -16 4 -29 10
-25 -17 -52 -35 -36 -5 4 -4 0 1 -8 4 -8 9 -21 10 -27 1 -7 9 -20 18 -29 21
-21 20 -30 -1 -13 -13 11 -13 8 2 -13 17 -22 21 -24 27 -10 5 14 7 13 7 -4 1
-23 -39 -82 -54 -80 -5 1 -11 -8 -14 -19 -2 -11 -8 -23 -15 -27 -8 -5 -8 -8 0
-8 6 0 10 -12 9 -27 -1 -16 1 -35 5 -43 9 -21 -3 -75 -17 -75 -6 0 -21 -11
-32 -24 -12 -13 -21 -21 -21 -16 0 4 -7 2 -15 -5 -8 -7 -12 -16 -9 -21 3 -5 1
-9 -5 -9 -6 0 -6 -11 1 -32 6 -18 11 -45 12 -60 0 -16 6 -28 13 -28 12 0 6
-37 -8 -46 -5 -3 -7 1 -6 8 2 7 2 10 0 5 -3 -4 -9 -5 -14 -2 -5 4 -6 -2 -2
-12 8 -24 49 -63 65 -63 10 0 10 -2 -1 -9 -11 -7 -10 -11 5 -20 11 -6 14 -11
7 -11 -7 0 -10 -7 -7 -15 4 -8 10 -13 15 -10 4 3 6 -3 4 -15 -2 -11 1 -22 6
-25 5 -4 7 -10 4 -15 -3 -5 2 -16 11 -24 8 -9 12 -16 8 -16 -3 0 -1 -7 6 -15
7 -8 9 -15 5 -15 -5 0 -1 -8 8 -18 10 -10 14 -22 10 -25 -3 -4 -1 -7 6 -7 8 0
11 -7 7 -15 -3 -8 -2 -15 3 -15 8 0 26 -66 23 -82 -1 -5 2 -8 8 -8 5 0 7 -7 4
-15 -4 -10 0 -15 12 -16 11 0 14 -3 6 -6 -9 -3 -6 -13 9 -34 34 -48 145 -159
158 -159 7 0 10 -4 7 -9 -12 -19 55 -18 80 2 14 10 23 22 20 25 -3 3 -1 11 5
18 6 7 8 27 5 45 -3 20 2 44 14 67 11 19 17 39 14 44 -3 4 2 8 11 8 9 0 13 5
10 10 -3 6 -1 10 4 10 6 0 11 9 11 20 0 11 5 20 11 20 8 0 7 5 -1 15 -11 13
-10 14 6 8 16 -6 17 -4 7 8 -9 11 -10 18 -1 27 8 8 6 10 -8 7 -11 -2 -23 -4
-29 -4 -5 -1 -3 -5 5 -11 12 -8 12 -10 -3 -16 -13 -5 -15 -10 -7 -19 8 -10 8
-13 -2 -11 -30 7 -46 19 -41 31 9 24 -19 45 -35 26 -11 -14 -12 -13 -2 7 6 12
16 22 22 22 14 0 58 47 50 54 -3 3 0 6 6 6 7 0 12 14 12 30 0 17 4 30 10 30 5
0 7 -8 3 -17 -3 -10 -2 -15 2 -10 5 4 9 21 10 37 1 16 5 33 10 37 4 5 5 2 0
-6 -6 -10 -4 -12 5 -6 10 6 8 12 -9 27 -13 10 -19 18 -14 18 5 0 9 11 9 25 0
14 -5 25 -10 25 -6 0 -4 5 4 10 11 7 12 10 2 10 -10 0 -9 4 3 16 13 14 14 19
3 25 -8 6 -9 9 -1 9 6 0 9 9 6 20 -3 12 0 20 7 20 6 0 10 6 7 13 -2 6 3 17 12
24 14 11 14 12 -4 13 -19 1 -19 1 -2 11 9 6 15 14 12 20 -4 5 -1 9 6 9 7 0 9
3 6 6 -3 4 -2 15 4 25 7 13 6 19 -2 19 -15 0 -3 81 13 92 7 4 9 8 5 8 -8 0 8
34 25 54 4 6 18 22 29 36 23 28 50 85 52 113 1 9 4 17 8 17 7 0 24 69 20 84
-1 4 4 15 10 23 7 8 8 13 3 12 -21 -4 -24 2 -10 17 9 8 14 21 10 27 -3 7 3 3
13 -8 20 -21 49 -33 38 -15 -3 5 -2 10 4 10 5 0 12 -4 16 -10 4 -6 15 -6 30 0
17 7 25 6 25 -1 0 -8 5 -7 15 1 12 10 15 10 15 0 0 -8 13 -10 39 -7 22 2 45
-1 52 -7 9 -8 10 -8 4 3 -6 11 -3 13 12 9 11 -3 28 -1 37 4 10 6 16 5 16 -2 0
-5 7 -10 16 -10 9 0 12 5 8 12 -5 7 -3 8 7 2 19 -12 33 -12 42 1 4 6 10 5 16
-4 7 -10 13 -11 31 -1 12 7 20 8 17 3 -4 -5 0 -10 8 -10 8 0 12 4 9 9 -7 10
-1 10 30 -2 15 -5 28 -6 31 0 3 5 15 7 26 5 11 -2 31 0 44 5 29 11 58 3 48
-14 -4 -7 -1 -7 9 1 8 7 18 10 22 6 9 -10 96 -10 96 -1 0 11 23 6 32 -7 5 -7
8 -6 8 1 0 6 27 10 71 10 39 -1 73 3 76 8 4 5 0 6 -7 1 -9 -5 -11 -4 -6 4 4 6
13 8 19 4 19 -12 38 -12 63 -1 18 8 28 8 36 0 13 -13 58 12 58 33 0 7 8 19 17
26 9 8 14 10 11 4 -3 -5 -2 -20 3 -32 8 -21 9 -21 38 -7 17 9 35 13 40 9 5 -3
14 3 20 12 9 15 10 15 11 2 0 -16 33 -20 47 -4 5 4 2 5 -6 0 -10 -5 -12 -4 -7
4 4 6 12 8 19 4 16 -10 58 -10 63 -1 3 5 10 6 15 3 5 -4 9 -1 9 4 0 6 -6 11
-12 11 -9 0 -8 4 2 10 11 7 20 4 33 -12 15 -18 22 -20 37 -11 13 9 21 9 32 0
7 -7 12 -11 9 -10 -2 1 -10 -5 -18 -13 -9 -8 -21 -13 -28 -10 -13 5 -30 -22
-20 -32 3 -3 5 0 5 6 0 7 7 12 15 12 8 0 15 -4 15 -8 0 -5 17 -7 38 -5 20 2
48 4 62 5 14 2 27 5 30 8 7 8 123 44 133 42 4 -1 7 3 7 9 0 7 9 9 21 6 15 -4
17 -2 10 6 -7 9 -2 12 15 13 13 1 24 -3 24 -10 0 -7 3 -6 9 2 4 7 24 14 43 15
20 1 34 5 32 9 -2 3 2 13 10 21 8 8 12 18 8 23 -4 5 0 3 9 -4 20 -15 98 -10
109 7 4 7 11 11 16 10 20 -3 32 2 60 26 16 14 35 25 42 25 6 0 12 4 12 8 0 9
59 32 82 32 9 0 19 6 21 13 4 9 6 9 6 -1 1 -9 6 -10 21 -2 22 12 41 10 52 -5
5 -6 8 -5 8 3 0 7 5 10 10 7 6 -3 10 -2 10 4 0 6 6 8 13 5 7 -2 29 2 49 10 19
8 38 12 42 9 3 -4 6 -2 6 3 0 5 8 11 18 12 48 6 57 7 62 13 7 9 172 40 178 34
3 -3 11 0 18 5 12 11 41 20 77 24 10 1 22 8 26 15 5 8 37 14 82 17 81 4 150
10 219 18 25 3 59 7 75 9 17 2 38 -1 49 -6 10 -5 16 -5 13 0 -3 4 8 8 24 8 26
0 27 -1 12 -12 -9 -7 -11 -13 -5 -13 7 0 12 -9 12 -21 0 -11 5 -17 10 -14 6 3
10 0 10 -6 0 -7 8 -3 18 9 29 38 65 78 58 65 -5 -8 -1 -13 9 -13 9 0 13 4 10
10 -4 7 3 7 20 0 17 -7 24 -7 20 0 -9 14 8 12 24 -2 11 -11 12 -10 6 1 -6 11
-4 13 8 8 42 -17 53 -19 37 -8 -8 6 -10 11 -4 11 5 0 15 -5 22 -12 6 -6 24
-13 39 -15 59 -8 419 -8 430 0 6 4 14 3 18 -3 5 -8 11 -7 21 1 12 10 15 10 12
-1 -4 -19 42 -41 63 -30 9 5 30 11 47 12 17 1 29 5 26 9 -2 4 3 12 10 18 17
14 95 20 102 9 3 -5 13 -4 22 0 32 16 174 4 194 -16 7 -7 16 -12 20 -12 8 0
37 -22 70 -52 10 -10 18 -15 18 -12 0 4 7 1 15 -6 8 -7 15 -9 15 -5 0 5 8 -1
18 -11 9 -11 28 -21 42 -22 14 0 26 -6 28 -12 2 -5 10 -10 18 -10 8 0 14 -5
14 -11 0 -5 4 -8 9 -5 5 3 14 -1 21 -9 7 -8 19 -15 26 -15 8 0 14 -4 14 -10 0
-5 7 -10 16 -10 8 0 12 -4 9 -10 -3 -5 -1 -10 6 -10 6 0 28 -18 49 -40 21 -22
42 -40 48 -40 6 0 12 -5 14 -12 3 -7 22 -1 53 18 68 39 94 42 88 9 -3 -13 -9
-22 -14 -19 -5 3 -9 0 -9 -5 0 -6 5 -11 11 -11 6 0 4 -7 -5 -15 -15 -15 -13
-37 6 -61 9 -12 19 -47 20 -71 1 -7 8 -13 17 -13 11 0 10 -3 -5 -14 -17 -13
-18 -15 -2 -21 13 -5 15 -12 8 -30 -6 -16 -6 -27 1 -31 6 -4 4 -15 -6 -31 -10
-14 -12 -22 -6 -18 8 4 10 -3 6 -24 -3 -19 -1 -31 5 -31 6 0 8 -4 5 -10 -4 -6
5 -10 20 -10 14 0 24 4 20 9 -3 5 0 13 6 17 8 4 9 3 5 -4 -4 -7 -2 -12 3 -12
6 0 11 5 11 10 0 17 17 11 22 -8 4 -15 0 -18 -17 -17 -28 4 -52 -10 -36 -19 6
-4 11 -2 11 5 0 9 4 9 15 -1 8 -6 20 -8 26 -4 8 4 9 3 5 -4 -4 -7 -3 -12 1
-12 5 0 14 -9 21 -21 8 -12 9 -18 4 -15 -6 3 -12 -1 -15 -8 -4 -10 0 -14 12
-11 13 2 17 -3 15 -26 -1 -16 2 -26 7 -23 9 5 13 -10 10 -30 -1 -5 6 -3 15 5
14 11 16 11 10 1 -11 -17 41 -72 67 -72 12 0 17 -5 14 -14 -4 -10 0 -12 14 -9
16 5 17 8 7 22 -11 14 -11 14 3 4 9 -7 19 -9 24 -5 4 4 2 -3 -4 -16 -7 -12
-16 -20 -21 -17 -6 3 -7 -1 -3 -10 4 -12 8 -13 13 -5 4 7 13 9 19 6 6 -4 9
-12 6 -17 -4 -5 -1 -9 4 -9 14 0 14 17 1 25 -5 3 -10 11 -10 17 0 6 9 3 20 -7
19 -17 20 -17 20 -1 0 10 5 14 11 10 7 -4 7 1 -1 16 -7 13 -8 20 -2 16 6 -3
14 -1 18 5 4 8 3 9 -4 5 -7 -4 -12 -2 -12 4 0 6 -4 8 -10 5 -6 -3 -7 1 -4 10
4 9 13 14 21 11 8 -3 11 -1 8 4 -11 19 8 10 26 -12 21 -23 24 -33 10 -23 -5 3
-15 -11 -21 -30 -6 -19 -19 -39 -28 -45 -13 -8 -11 -9 12 -5 16 2 26 2 23 -2
-3 -3 0 -12 8 -20 8 -8 15 -19 15 -26 0 -6 -7 -2 -16 9 -13 16 -15 16 -10 2 3
-10 0 -17 -6 -15 -6 1 -11 -8 -13 -20 -1 -13 2 -23 6 -23 12 0 3 -34 -9 -38
-7 -2 -12 -8 -12 -14 0 -7 5 -7 13 1 8 6 17 8 20 5 4 -4 5 3 2 14 -5 27 19 60
30 42 5 -8 4 -11 -2 -7 -6 4 -14 0 -17 -9 -4 -11 -2 -15 7 -11 19 7 43 -8 28
-17 -6 -4 -11 -3 -11 3 0 6 -7 8 -15 5 -8 -3 -13 -11 -12 -17 1 -6 -2 -11 -8
-12 -5 0 -15 -4 -22 -8 -6 -4 -15 -3 -18 3 -5 8 -11 8 -19 1 -7 -6 -21 -12
-32 -14 -35 -6 -94 -40 -94 -54 0 -11 -5 -11 -20 -3 -16 9 -20 8 -20 -5 0 -8
-5 -15 -11 -15 -5 0 -7 6 -3 13 6 9 5 9 -7 0 -13 -10 -19 -10 -34 1 -26 19
-109 -16 -88 -38 3 -3 0 -12 -6 -20 -10 -12 -9 -18 6 -33 45 -47 51 -58 18
-38 -30 19 -30 19 -14 0 9 -11 15 -28 14 -37 -2 -10 2 -21 7 -25 6 -3 8 -1 5
4 -4 6 0 14 8 17 13 4 13 2 5 -14 -8 -15 -6 -21 6 -28 11 -6 13 -11 5 -16 -6
-4 -11 -2 -11 4 0 6 -5 8 -10 5 -6 -4 -9 -1 -8 7 2 7 -5 12 -15 12 -13 -2 -16
3 -12 20 5 19 5 19 -7 5 -11 -14 -17 -15 -31 -4 -19 13 -57 9 -57 -6 0 -5 -6
-9 -14 -9 -8 0 -18 -5 -22 -12 -4 -6 -3 -8 4 -5 6 5 8 -1 5 -14 -4 -16 -8 -17
-14 -7 -14 22 -10 -1 6 -31 8 -16 11 -32 7 -36 -4 -5 1 -5 11 -2 10 4 16 3 12
-2 -3 -5 0 -13 6 -16 5 -4 8 -13 5 -20 -2 -7 2 -22 10 -33 8 -12 13 -26 12
-33 -2 -6 5 -13 15 -14 11 -2 22 -7 25 -11 4 -4 -1 -4 -10 -1 -10 4 -18 2 -18
-4 0 -7 11 -9 27 -6 26 5 26 4 8 -9 -15 -12 -16 -14 -3 -14 21 0 28 -20 16
-44 -7 -13 -7 -16 1 -12 6 4 11 0 11 -8 0 -9 -5 -16 -11 -16 -6 0 -7 -5 -2
-12 8 -14 12 -30 16 -70 1 -16 5 -28 10 -28 4 0 6 -3 6 -7 -4 -22 2 -33 14
-27 9 5 9 4 0 -6 -7 -8 -9 -19 -4 -29 5 -9 8 -29 6 -46 -1 -16 2 -38 7 -47 5
-11 5 -18 -1 -18 -6 0 -8 -6 -5 -14 8 -21 11 -126 3 -126 -9 0 -5 -93 5 -109
7 -11 6 -12 -5 -6 -12 7 -12 6 -1 -7 7 -8 9 -24 5 -33 -5 -14 -3 -16 8 -10 12
8 12 6 0 -9 -11 -13 -11 -20 -3 -28 17 -17 15 -28 -4 -28 -10 0 -14 -6 -11
-14 3 -8 3 -17 -1 -21 -10 -9 -9 -39 2 -46 4 -4 3 -15 -3 -26 -5 -11 -7 -23
-4 -27 12 -12 13 -77 2 -70 -8 4 -8 1 -1 -12 12 -24 13 -34 1 -56 -6 -12 -6
-18 0 -18 7 0 7 -9 0 -27 -13 -32 -22 -78 -23 -110 0 -13 -2 -23 -6 -23 -3 0
-6 -15 -7 -32 -5 -71 -6 -78 -12 -74 -3 2 -7 -12 -8 -31 -1 -19 -9 -44 -19
-54 -13 -15 -14 -19 -3 -19 9 0 10 -3 3 -8 -6 -4 -10 -15 -8 -25 1 -10 -2 -14
-8 -10 -7 4 -9 -1 -6 -15 3 -12 2 -22 -3 -24 -5 -2 -10 -12 -12 -23 -4 -31
-60 -115 -71 -108 -5 3 -6 1 -2 -5 4 -7 -6 -32 -23 -56 -17 -24 -31 -49 -33
-57 -2 -7 -9 -20 -16 -27 -7 -8 -10 -18 -7 -23 4 -5 1 -9 -5 -9 -6 0 -9 -4 -6
-9 4 -5 0 -12 -6 -14 -10 -4 -9 -6 1 -6 12 -1 11 -4 -2 -18 -18 -21 -25 -63
-13 -82 6 -10 5 -12 -2 -7 -12 7 -16 -10 -13 -46 1 -10 -3 -18 -8 -18 -13 0
-10 -22 4 -32 6 -4 2 -8 -7 -8 -16 0 -20 -6 -17 -26 0 -4 -4 -10 -9 -13 -5 -3
-17 -21 -26 -38 -9 -18 -21 -33 -27 -33 -6 0 -7 -4 -4 -10 3 -6 1 -10 -5 -10
-6 0 -9 -4 -6 -9 3 -5 -1 -11 -9 -15 -9 -3 -15 -19 -15 -41 0 -20 -3 -34 -7
-32 -5 3 -9 -5 -10 -16 -4 -42 -11 -62 -19 -60 -5 1 -10 -12 -10 -29 -1 -17
-7 -34 -14 -38 -8 -5 -15 -17 -16 -27 -1 -10 -5 -29 -9 -43 -3 -14 -7 -29 -8
-35 -2 -5 -7 -16 -11 -24 -7 -10 -5 -12 5 -7 8 4 5 0 -5 -8 -11 -9 -14 -16 -8
-16 9 0 10 -5 2 -19 -13 -25 -13 -27 5 -45 16 -16 55 -4 55 17 0 4 -4 6 -9 2
-5 -3 -13 0 -17 6 -4 8 -3 9 5 5 6 -4 14 -1 17 8 3 9 12 12 22 9 12 -5 14 -2
9 11 -4 11 -3 15 4 11 6 -4 8 -13 5 -21 -3 -7 0 -16 6 -20 6 -4 8 -3 5 3 -8
12 16 25 51 29 23 3 30 -10 10 -22 -7 -5 -8 -3 -3 6 5 9 4 11 -4 6 -17 -11 -4
-25 19 -21 17 3 18 1 11 -14 -7 -12 -6 -22 1 -29 7 -7 4 -17 -10 -33 -12 -12
-19 -26 -16 -31 3 -5 0 -7 -8 -6 -7 2 -12 -3 -11 -9 2 -7 -2 -13 -9 -13 -6 0
-8 -3 -5 -6 4 -4 -3 -15 -15 -25 -11 -11 -17 -19 -12 -19 5 0 10 -9 10 -20 0
-11 -4 -20 -9 -20 -5 0 -6 -7 -3 -16 3 -8 2 -12 -4 -9 -10 6 -14 -7 -11 -32 1
-7 -2 -13 -8 -13 -5 0 -19 -16 -31 -35 -12 -19 -26 -33 -31 -29 -5 3 -9 -4 -9
-16 0 -12 -4 -18 -10 -15 -9 6 -14 -8 -11 -27 0 -5 -3 -8 -7 -8 -8 0 -33 -46
-34 -60 0 -3 -9 -16 -19 -29 -11 -13 -19 -29 -19 -36 0 -7 -7 -18 -15 -25 -9
-7 -13 -15 -11 -17 3 -3 -4 -14 -15 -26 -10 -11 -19 -27 -19 -34 0 -8 -5 -11
-11 -8 -6 4 -9 1 -8 -6 2 -8 -3 -31 -10 -51 -7 -21 -9 -43 -5 -50 5 -8 2 -9
-10 -5 -9 4 -15 3 -12 -2 8 -12 -20 -64 -52 -96 -15 -15 -27 -31 -27 -36 0 -4
-9 -15 -20 -24 -11 -9 -13 -14 -5 -10 9 4 8 1 -3 -8 -10 -9 -19 -19 -20 -24
-1 -4 -6 -7 -10 -5 -5 1 -6 -2 -2 -8 3 -5 2 -10 -4 -10 -6 0 -7 -7 -4 -17 4
-10 2 -14 -5 -9 -6 3 -13 -3 -17 -14 -3 -11 -11 -20 -17 -20 -6 0 -9 -3 -6 -6
3 -3 -4 -15 -16 -28 -35 -37 -56 -66 -49 -66 4 0 -3 -7 -15 -16 -12 -8 -20
-20 -17 -25 4 -5 2 -9 -3 -9 -6 0 -49 -38 -97 -85 -47 -47 -84 -85 -81 -85 3
0 -8 -14 -26 -30 -17 -17 -28 -30 -25 -30 3 0 -6 -12 -21 -27 -15 -15 -30 -27
-34 -25 -5 1 -8 -5 -8 -14 0 -8 -4 -12 -10 -9 -5 3 -10 -1 -10 -9 0 -8 -10
-22 -22 -30 -12 -9 -18 -16 -13 -16 6 0 -3 -12 -20 -26 -16 -14 -30 -29 -31
-32 -2 -20 -17 -41 -25 -36 -5 3 -9 -4 -9 -15 0 -12 -5 -20 -12 -19 -7 2 -12
-1 -13 -7 0 -5 -13 -22 -28 -38 -16 -15 -25 -32 -21 -39 5 -8 2 -9 -10 -5 -9
4 -15 3 -12 -1 6 -10 -74 -78 -87 -74 -5 1 -6 -2 -2 -8 3 -5 1 -10 -5 -10 -6
0 -8 -5 -5 -10 4 -6 12 -7 18 -3 7 4 1 -7 -13 -23 -19 -24 -27 -28 -33 -17 -5
7 -13 11 -18 8 -5 -4 -7 -10 -4 -15 3 -5 -4 -7 -15 -5 -11 2 -18 0 -16 -4 7
-11 -29 -43 -38 -34 -4 5 -6 3 -4 -2 4 -15 -48 -75 -58 -67 -5 4 -6 3 -2 -2 5
-5 -2 -14 -15 -21 -12 -6 -21 -17 -19 -24 1 -7 -6 -11 -15 -9 -10 2 -17 -2
-15 -9 1 -7 -3 -13 -9 -13 -6 0 -8 -8 -5 -17 5 -15 4 -15 -9 1 -8 11 -15 14
-15 7 0 -7 -4 -9 -10 -6 -6 3 -7 -1 -4 -9 4 -11 0 -16 -14 -16 -11 0 -22 -7
-26 -15 -3 -8 -10 -15 -16 -15 -6 0 -8 6 -4 13 4 6 -9 -4 -28 -23 -19 -19 -33
-39 -30 -44 3 -5 -3 -6 -13 -2 -18 7 -18 6 0 -16 11 -13 13 -18 6 -11 -17 14
-41 6 -41 -15 0 -8 -3 -13 -6 -9 -9 9 -54 -35 -47 -47 4 -6 -1 -5 -10 3 -16
12 -17 12 -11 -5 4 -10 4 -16 -1 -12 -11 10 -47 -11 -40 -23 4 -5 -9 -9 -27
-10 -18 0 -27 -3 -20 -6 6 -2 12 -9 12 -14 0 -4 -6 -6 -14 -3 -7 3 -16 -2 -20
-11 -4 -11 -13 -14 -28 -10 -16 4 -19 3 -9 -3 9 -7 10 -12 2 -16 -6 -4 -11 -5
-11 -2 0 3 -9 -3 -20 -14 -12 -12 -18 -26 -14 -32 4 -7 3 -8 -4 -4 -7 4 -12 2
-12 -3 0 -6 -4 -10 -9 -9 -5 2 -17 -6 -26 -17 -9 -11 -14 -13 -10 -5 4 8 -1 6
-9 -4 -9 -11 -16 -17 -16 -13 0 5 -6 2 -14 -5 -8 -7 -11 -17 -8 -22 3 -5 0 -6
-5 -3 -6 4 -27 -8 -46 -27 -20 -19 -38 -31 -41 -28 -4 3 -6 -2 -6 -11 0 -9 -5
-17 -11 -17 -7 0 -27 -16 -45 -36 -20 -20 -39 -32 -45 -28 -8 4 -9 3 -5 -4 4
-7 2 -12 -4 -12 -6 0 -8 -4 -5 -10 3 -5 -3 -10 -14 -10 -15 0 -19 -5 -14 -17
3 -10 3 -15 -2 -11 -11 11 -47 -11 -39 -24 4 -6 3 -8 -4 -4 -6 3 -13 2 -17 -4
-4 -6 -11 -8 -16 -5 -5 3 -6 -2 -2 -11 4 -11 2 -15 -4 -11 -6 4 -16 0 -23 -9
-7 -8 -19 -13 -26 -10 -8 3 -18 -4 -24 -15 -6 -11 -16 -16 -22 -13 -8 5 -9 1
-4 -11 6 -16 4 -16 -11 -4 -15 12 -16 12 -10 -3 4 -13 2 -15 -10 -11 -12 5
-14 3 -8 -6 5 -10 2 -11 -13 -7 -15 5 -26 -1 -42 -21 -12 -15 -24 -27 -26 -25
-9 5 -25 1 -21 -5 5 -8 -10 -26 -28 -34 -5 -2 -9 -7 -7 -12 1 -4 -4 -6 -10 -5
-7 2 -12 -3 -10 -9 1 -7 -5 -13 -14 -13 -10 0 -14 -6 -10 -15 3 -9 0 -15 -10
-15 -11 0 -14 -6 -10 -16 3 -8 2 -13 -3 -10 -12 8 -34 -21 -27 -33 4 -5 1 -13
-6 -18 -7 -4 -22 -25 -33 -46 -11 -20 -22 -37 -26 -37 -13 0 -17 -38 -5 -51 8
-9 8 -10 -1 -5 -9 5 -13 -1 -14 -16 -1 -13 -3 -33 -4 -44 -1 -15 3 -21 14 -19
9 1 19 -2 22 -7 4 -6 7 2 7 16 0 15 -5 23 -11 19 -5 -3 -7 -1 -4 4 4 6 18 8
32 6 14 -3 22 -10 18 -16 -3 -6 -1 -7 6 -3 8 6 9 12 2 20 -15 18 9 49 32 40 9
-3 14 -11 10 -18 -3 -6 -1 -6 8 1 16 16 29 17 29 3 0 -6 -6 -9 -12 -8 -7 2
-12 -2 -11 -8 1 -7 -6 -10 -17 -7 -11 3 -18 9 -15 13 3 5 1 11 -3 14 -5 3 -8
-10 -7 -28 2 -32 1 -34 -23 -30 -23 5 -24 3 -11 -12 8 -10 9 -15 2 -11 -6 4
-18 -1 -26 -13 -7 -11 -17 -17 -20 -13 -4 3 -7 -1 -7 -11 0 -9 -6 -19 -14 -22
-8 -3 -12 -12 -9 -20 3 -8 0 -14 -7 -14 -6 0 -8 -5 -5 -10 3 -6 1 -10 -4 -10
-6 0 -11 -6 -11 -14 0 -7 -7 -19 -15 -26 -8 -7 -12 -16 -9 -21 3 -5 -2 -12
-11 -15 -9 -4 -14 -13 -11 -20 3 -8 1 -14 -4 -14 -6 0 -10 -7 -10 -15 0 -8 -4
-15 -10 -15 -5 0 -12 -16 -16 -35 -4 -21 -10 -32 -17 -28 -6 4 -8 0 -4 -10 3
-9 2 -19 -3 -22 -15 -9 -12 -27 3 -19 10 6 10 4 0 -7 -14 -14 -17 -40 -5 -38
25 4 42 -2 36 -13 -6 -10 -4 -10 7 -2 20 15 60 15 78 1 12 -9 13 -9 7 0 -7 12
5 18 28 14 5 -1 4 4 -3 13 -6 8 -8 16 -4 19 11 7 33 -19 25 -29 -4 -4 -1 -4 6
0 11 6 10 12 -4 27 -9 10 -20 16 -25 14 -4 -3 -10 -1 -14 5 -11 18 28 11 49
-9 15 -13 27 -16 41 -11 18 8 18 9 2 9 -10 1 -16 4 -13 9 2 4 -2 18 -10 32 -8
16 -13 19 -14 9 0 -8 5 -20 11 -26 8 -8 8 -13 0 -17 -6 -4 -11 -3 -11 3 0 5
-8 12 -18 15 -18 6 -27 36 -10 36 4 0 8 -6 8 -12 0 -9 4 -8 10 2 14 22 12 30
-7 24 -15 -5 -15 -4 -4 4 10 7 21 7 34 1 26 -15 53 7 35 29 -7 8 -13 25 -13
36 0 12 -6 20 -13 18 -8 -1 -11 2 -7 8 3 6 12 7 18 3 22 -14 44 -12 44 2 0 11
-7 13 -21 9 -15 -4 -17 -3 -7 4 11 8 11 10 0 14 -10 3 -10 6 -1 12 7 4 12 2
12 -3 0 -6 5 -11 11 -11 5 0 7 4 4 10 -3 5 0 7 8 4 17 -6 19 25 3 45 -9 12 -8
13 3 7 10 -7 12 -3 7 15 -3 13 -3 18 0 11 3 -6 9 -10 14 -7 5 3 18 -7 29 -21
12 -15 21 -21 21 -13 0 7 -15 28 -32 47 -18 18 -25 30 -16 27 14 -5 16 -2 13
14 -2 13 0 19 7 15 7 -4 8 2 3 17 -5 16 3 10 25 -19 17 -24 34 -41 37 -38 3 3
-5 20 -19 38 -30 40 -27 57 9 50 22 -4 25 -2 20 12 -4 9 -3 14 2 11 5 -3 17 5
27 17 10 14 14 16 11 6 -3 -9 0 -19 9 -22 14 -6 15 18 1 41 -4 6 -2 15 4 19 8
5 9 3 4 -6 -5 -9 -4 -11 3 -6 20 12 13 24 -14 24 -14 0 -22 -3 -16 -7 7 -4 6
-14 -2 -30 -8 -14 -16 -19 -20 -13 -3 6 -1 14 5 18 8 5 7 9 -2 14 -17 11 8 43
28 36 8 -3 11 -2 8 3 -3 5 -1 12 5 16 6 3 13 0 16 -9 3 -8 12 -17 20 -20 10
-4 12 -2 8 6 -4 6 -3 8 2 5 5 -3 10 3 10 14 0 10 -4 19 -8 19 -4 0 -8 -7 -8
-16 0 -8 -5 -12 -10 -9 -6 4 -10 12 -9 18 3 25 -1 38 -10 32 -5 -3 -18 6 -29
20 -11 13 -22 21 -26 18 -9 -9 35 -53 53 -53 14 0 14 -2 1 -10 -10 -6 -17 -5
-22 4 -9 16 -53 13 -73 -4 -11 -9 -15 -9 -15 -1 0 6 5 11 11 11 5 0 7 4 4 10
-3 5 -11 10 -16 10 -6 0 -8 -4 -4 -9 3 -5 1 -12 -5 -16 -6 -4 -7 -11 -4 -17 4
-7 2 -8 -4 -4 -7 4 -20 2 -29 -4 -15 -10 -15 -11 -1 -6 9 2 19 2 23 -2 6 -7
10 -8 36 -11 8 -1 8 -6 -1 -16 -9 -11 -9 -15 -1 -15 7 0 9 -5 5 -11 -9 -16
-24 10 -16 30 3 9 2 13 -3 9 -4 -4 -15 -2 -23 5 -13 10 -15 9 -9 -5 7 -21 -18
-49 -37 -42 -8 3 -16 15 -20 27 -5 21 -4 21 9 4 11 -15 17 -17 32 -7 15 10 15
11 1 6 -12 -4 -15 -1 -11 11 5 12 3 14 -7 8 -9 -5 -7 1 3 16 10 13 23 24 29
24 6 0 13 7 15 15 4 13 3 13 -6 0 -8 -12 -11 -12 -11 -1 0 10 -3 11 -14 2 -10
-8 -16 -9 -21 -1 -4 6 -1 9 7 8 7 -2 12 3 10 10 -1 8 2 11 8 7 5 -3 10 -2 10
4 0 5 -3 11 -7 14 -5 2 -3 2 4 1 7 -2 15 1 18 7 4 5 10 7 14 5 11 -7 10 27 -2
42 -7 9 -5 11 8 6 14 -6 16 -4 10 7 -7 11 -6 12 7 2 8 -7 18 -10 21 -6 4 3 7
1 7 -6 0 -7 6 -11 14 -8 8 3 17 -1 20 -9 4 -9 2 -12 -5 -8 -7 4 -10 1 -7 -6 2
-7 14 -15 27 -17 l22 -3 -21 30 c-12 17 -25 28 -30 25 -5 -3 -13 3 -19 12 -7
13 -10 14 -11 4 0 -8 -3 -12 -6 -8 -18 17 10 27 33 11 25 -16 26 -16 19 1 -6
16 -5 16 18 1 33 -21 43 -20 23 2 -10 10 -14 22 -10 27 5 4 1 6 -8 3 -9 -4
-16 -1 -16 7 0 10 5 11 19 4 10 -6 16 -14 13 -19 -3 -5 2 -13 11 -18 13 -7 14
-13 5 -31 -7 -12 -17 -19 -23 -15 -6 4 -9 1 -6 -7 3 -8 11 -13 17 -11 6 1 14
-5 17 -13 3 -8 9 -13 13 -11 4 3 8 -5 8 -17 2 -20 1 -21 -11 -5 -7 10 -16 15
-20 11 -4 -4 -4 1 0 12 7 20 7 20 -14 1 -21 -18 -21 -30 -1 -32 5 -1 14 -2 20
-3 5 0 7 -6 4 -11 -9 -15 21 -12 34 4 6 7 8 21 5 31 -5 13 -3 16 7 13 8 -3 13
-12 12 -19 -2 -8 6 -15 17 -16 19 -2 19 0 4 23 -9 13 -21 24 -26 24 -5 0 -2 7
6 16 21 20 20 24 -5 24 -11 0 -18 -4 -15 -8 2 -4 0 -14 -5 -22 -7 -11 -8 -9
-6 9 4 27 19 36 43 27 12 -4 13 -10 4 -26 -18 -34 6 -22 31 15 23 34 39 44 39
26 0 -5 -5 -11 -12 -13 -13 -5 -2 -28 13 -28 6 0 7 5 4 10 -3 6 1 13 10 16 14
6 14 9 -2 27 -10 11 -13 17 -6 14 6 -4 13 -4 16 0 2 5 2 2 1 -4 -2 -7 1 -13 6
-13 6 0 10 11 10 25 0 19 4 23 17 18 10 -4 14 -2 10 4 -3 5 0 10 8 10 10 0 12
-4 5 -12 -5 -7 -6 -16 -2 -20 4 -5 0 -6 -9 -3 -9 4 -16 1 -16 -7 0 -11 5 -11
20 -4 10 6 21 8 24 5 8 -8 -40 -25 -51 -18 -5 3 -7 -2 -3 -11 3 -9 3 -16 -1
-16 -20 3 -32 -2 -30 -13 2 -7 -7 -13 -19 -14 -12 -1 -20 3 -17 7 3 5 1 9 -4
9 -5 0 -15 -11 -22 -25 -12 -22 -12 -28 4 -43 17 -16 19 -15 55 26 20 23 41
42 46 42 5 0 1 -6 -10 -13 -11 -9 -15 -19 -10 -27 6 -9 4 -11 -6 -5 -8 5 -11
4 -6 -1 5 -5 13 -10 18 -10 22 -3 23 -5 9 -15 -10 -7 -11 -9 -2 -7 8 2 12 6
10 9 -6 11 25 39 40 37 9 -2 18 5 20 14 2 10 -2 18 -8 18 -6 0 -9 -4 -6 -8 2
-4 -5 -9 -17 -9 -20 -2 -21 -1 -5 11 10 7 15 16 11 20 -4 4 1 4 12 0 18 -7 19
-6 5 11 -8 10 -10 16 -3 12 7 -4 16 0 22 10 5 10 12 17 15 16 18 -8 17 -1 -2
13 -21 14 -30 35 -14 33 18 -3 32 2 32 12 0 5 -6 7 -12 3 -7 -4 -9 -3 -5 1 11
13 38 15 31 3 -11 -17 40 16 59 39 10 13 23 23 29 23 6 0 0 -9 -13 -19 -19
-16 -22 -22 -11 -32 6 -7 12 -17 12 -23 0 -5 -6 -2 -13 8 -12 16 -14 16 -38
-3 -15 -11 -28 -19 -30 -18 -2 1 -3 0 -1 -2 1 -3 9 -6 17 -7 9 -1 12 2 9 8 -5
7 -2 8 6 3 8 -5 11 -4 7 2 -3 5 0 10 8 10 20 0 19 -13 -1 -21 -13 -5 -14 -9
-5 -20 9 -11 9 -16 0 -22 -7 -4 -9 -3 -5 4 3 6 2 13 -3 16 -5 3 -11 -1 -15 -9
-3 -8 -1 -17 5 -21 6 -3 8 -12 5 -19 -2 -7 1 -16 9 -19 9 -3 12 1 10 15 -2 11
2 19 10 19 8 0 17 5 21 12 5 7 2 8 -7 3 -8 -4 -5 1 6 12 20 19 54 37 66 35 5
-1 5 35 0 46 0 1 -10 -2 -22 -8 -15 -8 -18 -15 -10 -24 8 -9 7 -13 -2 -13 -8
0 -14 5 -14 11 0 6 -4 19 -8 29 -5 12 -2 17 9 17 9 0 16 5 16 10 0 6 5 10 11
10 8 0 7 -5 -2 -16 -11 -13 -11 -15 2 -13 7 2 24 -2 36 -9 19 -11 22 -10 17 3
-7 18 7 20 25 3 10 -11 11 -10 6 3 -4 11 3 24 19 37 26 20 36 40 14 26 -7 -4
-8 -3 -4 4 5 8 13 9 25 3 13 -7 18 -6 18 4 0 8 -4 12 -9 9 -15 -9 -8 3 9 17
11 10 14 10 9 2 -12 -21 8 -15 28 8 15 18 20 19 28 8 8 -11 8 -10 4 5 -5 13
-2 17 8 13 8 -3 17 1 20 9 4 10 2 12 -6 8 -6 -4 -8 -3 -5 4 4 5 17 8 30 5 22
-5 22 -5 2 10 -20 16 -20 16 3 10 13 -3 22 -1 22 6 0 7 -6 9 -12 5 -10 -5 -10
-3 0 7 11 12 14 12 22 -1 8 -13 10 -12 10 3 0 10 8 17 20 17 11 0 20 5 20 11
0 5 5 7 12 3 7 -4 8 -3 4 4 -4 7 -1 12 8 12 8 0 20 9 26 20 6 11 16 17 25 14
8 -4 15 -2 15 3 0 6 15 18 34 28 19 11 33 22 30 26 -2 4 4 6 13 5 10 -2 23 3
28 11 9 12 11 10 12 -7 1 -11 -2 -18 -8 -15 -5 4 -9 1 -9 -4 0 -21 -2 -26 -12
-38 -6 -7 -9 -13 -7 -14 31 -6 40 -6 46 3 3 7 1 8 -5 4 -7 -4 -12 -2 -12 3 0
6 9 11 19 11 11 0 22 4 26 9 3 6 -4 8 -15 6 -11 -2 -18 0 -15 6 4 5 10 7 14 4
10 -6 57 34 53 46 -1 5 5 9 13 9 14 0 20 12 16 33 -1 5 4 5 10 1 7 -4 18 1 26
11 7 11 13 15 13 9 1 -5 8 5 16 21 8 17 12 22 10 13 -4 -13 0 -17 15 -15 22 4
41 26 33 38 -2 4 1 11 7 15 8 4 9 3 5 -4 -4 -7 -3 -12 1 -12 5 0 14 9 21 20
10 17 16 19 33 9 17 -9 20 -8 17 2 -3 8 5 22 18 31 31 25 41 22 13 -3 -16 -14
-11 -12 16 5 22 15 40 32 40 39 0 7 13 12 32 11 17 0 30 2 28 6 -2 3 4 14 12
25 13 16 15 17 10 3 -4 -10 -2 -18 3 -18 6 0 10 5 10 11 0 6 7 8 16 5 13 -5
14 -3 7 6 -7 9 -4 18 9 30 18 18 26 10 8 -8 -6 -6 -3 -10 9 -10 11 0 17 4 14
9 -3 5 4 17 16 28 22 20 36 25 26 9 -3 -6 1 -7 10 -4 12 5 13 10 4 20 -8 10
-6 13 8 13 44 1 54 4 43 15 -5 5 -10 15 -10 20 0 6 4 5 9 -3 7 -12 13 -12 24
-3 7 7 17 9 21 5 9 -10 36 30 30 46 -4 12 -2 12 13 0 9 -8 14 -9 10 -2 -4 7 1
14 14 18 12 4 18 12 15 20 -3 10 0 12 12 8 15 -6 16 -5 2 12 -15 19 -15 19 15
1 l30 -19 -19 22 c-19 21 -19 21 -1 15 13 -5 16 -4 11 4 -6 11 12 17 37 13 4
0 6 2 5 6 -2 5 1 8 5 8 5 0 13 8 18 18 6 9 17 17 25 17 8 0 13 4 10 9 -3 5 2
12 11 15 15 6 15 8 3 16 -15 10 -14 10 23 14 6 0 12 8 12 16 1 8 6 14 13 12 7
-1 11 4 10 10 -2 7 3 12 11 10 8 -2 11 3 8 12 -4 9 -2 18 4 21 5 4 8 1 7 -6
-2 -6 3 -14 10 -16 8 -3 10 1 5 13 -5 13 -3 15 7 9 10 -6 12 -4 7 9 -4 9 -3
15 2 12 11 -7 53 29 43 38 -4 4 -2 7 3 6 21 -5 36 0 30 9 -3 5 3 12 14 16 11
3 22 12 25 20 3 8 13 15 23 15 15 0 16 2 3 10 -13 8 -12 10 3 10 10 0 20 7 23
15 4 8 10 15 16 15 5 0 6 -6 2 -12 -4 -8 -3 -10 2 -5 5 5 9 14 9 20 0 7 6 12
13 12 7 0 17 6 21 14 5 8 14 10 22 5 10 -6 10 -3 -1 11 -14 17 -13 18 3 12 11
-4 20 -1 23 8 4 8 10 12 15 9 5 -3 9 -2 8 3 -3 19 2 25 14 15 10 -8 13 -6 14
9 1 12 -3 17 -9 13 -7 -4 -8 -2 -4 4 4 6 13 8 22 5 9 -3 24 4 35 16 11 12 24
19 28 16 5 -2 8 3 7 13 -1 11 6 17 21 16 15 0 20 5 18 18 -3 15 -1 16 15 8 17
-9 19 -8 13 7 -6 16 -4 16 9 5 14 -11 16 -10 11 7 -3 13 -1 21 6 21 7 0 10 4
6 9 -3 5 0 13 6 17 8 4 9 3 5 -4 -4 -7 -2 -12 3 -12 11 0 15 13 12 36 -1 6 5
11 14 11 8 0 12 -5 9 -11 -3 -6 1 -3 9 6 8 10 18 14 23 10 4 -4 2 2 -6 12 -14
18 -13 19 2 13 20 -7 35 9 16 16 -10 4 -10 6 0 6 7 1 11 5 7 10 -3 5 0 13 6
17 8 5 9 3 4 -6 -5 -8 -3 -11 6 -8 8 3 14 10 14 15 0 6 4 15 9 20 6 5 6 2 1
-6 -6 -11 -4 -13 9 -8 10 4 20 7 23 7 3 0 0 6 -6 13 -11 14 -10 15 38 19 13 2
18 9 16 25 -1 12 1 22 4 21 29 -3 45 3 31 12 -13 9 -13 10 0 10 9 0 16 9 17
20 1 13 -2 18 -9 14 -6 -4 -8 -3 -5 3 4 6 18 9 31 8 18 -2 23 1 19 11 -3 8 -1
14 4 14 13 0 44 56 35 65 -4 5 -1 5 6 1 6 -4 12 -2 12 4 0 7 6 10 14 7 10 -4
12 0 9 14 -3 10 0 19 6 19 6 0 11 7 11 16 0 8 5 12 10 9 9 -6 15 16 11 39 -1
5 6 6 15 2 14 -5 15 -4 5 8 -9 11 -8 15 4 20 8 3 15 10 15 16 0 6 -6 8 -12 5
-7 -4 -4 1 6 9 11 9 16 16 11 16 -5 0 -1 6 10 13 14 11 15 16 5 22 -9 6 -11 4
-5 -5 5 -9 4 -11 -3 -6 -19 12 -14 28 7 21 21 -6 38 10 21 20 -5 3 -10 11 -10
16 0 6 5 7 10 4 6 -3 10 -1 10 5 0 6 5 8 12 4 7 -4 8 -3 4 5 -4 6 -13 8 -19 4
-7 -3 -3 3 7 16 11 12 26 19 33 16 9 -3 11 -1 6 8 -14 22 -10 55 6 49 9 -3 12
-1 7 6 -4 7 -3 12 2 12 13 0 11 30 -2 30 -6 0 -3 5 7 11 9 6 14 15 11 21 -4 6
0 14 7 19 11 7 11 9 1 9 -10 0 -10 5 2 21 8 12 12 32 10 46 -3 13 -1 22 3 20
4 -3 9 5 10 16 2 21 9 56 13 67 1 3 2 8 1 13 0 4 3 7 9 7 5 0 7 6 4 14 -3 8
-1 24 6 35 6 12 7 21 1 21 -12 0 -24 51 -14 61 5 5 6 33 3 63 -3 30 -3 53 0
51 3 -2 5 19 5 46 0 27 -4 49 -8 49 -5 0 -5 5 -2 10 3 6 2 10 -3 10 -11 0 -10
40 2 59 6 10 5 12 -3 7 -12 -8 -9 32 3 53 4 5 0 12 -6 14 -10 4 -10 6 0 6 6 1
12 10 12 22 0 11 4 17 10 14 5 -3 7 0 4 8 -2 7 1 27 7 43 7 16 11 33 10 38 -1
5 4 13 11 17 11 7 11 9 0 9 -10 0 -9 4 3 16 9 9 14 21 12 28 -2 6 2 17 10 24
7 8 11 18 8 23 -4 5 -2 9 3 9 5 0 9 7 10 15 1 8 3 22 4 30 1 8 6 15 11 15 6 0
7 3 4 7 -4 3 0 17 8 29 10 16 11 25 4 30 -8 4 -7 9 2 15 11 7 11 9 1 9 -8 0
-10 5 -5 12 4 7 8 20 8 28 1 28 48 165 61 181 8 9 11 19 7 23 -4 4 5 18 19 31
15 14 31 45 39 74 7 28 16 51 20 51 3 0 4 12 1 26 -3 19 -1 25 7 20 6 -4 11
-2 11 3 0 6 -5 11 -11 11 -8 0 -9 4 0 13 6 8 8 17 4 21 -4 4 -1 11 7 16 13 9
13 10 0 10 -9 1 -6 5 7 10 20 8 33 47 46 139 2 14 9 27 15 29 7 2 10 8 6 13
-3 5 -1 9 3 9 5 0 15 21 22 47 8 25 22 54 33 65 10 10 18 23 18 28 0 6 5 10
11 10 5 0 7 5 4 10 -3 6 -1 10 5 10 6 0 8 4 5 10 -3 5 1 23 9 39 9 16 18 43
21 61 3 19 8 37 10 40 3 4 7 25 11 46 3 22 8 50 10 64 3 14 7 39 9 55 1 17 4
32 5 35 12 27 -5 212 -22 244 -6 12 -10 21 -9 21 1 0 -2 13 -8 28 -6 16 -8 33
-5 39 5 7 2 8 -6 3 -10 -6 -12 -4 -7 8 3 10 2 17 -4 17 -6 0 -8 4 -5 9 3 5 -1
12 -10 15 -8 3 -12 10 -9 16 3 5 1 10 -5 10 -6 0 -8 5 -5 10 4 6 -1 23 -10 38
-17 27 -17 27 13 -3 17 -16 42 -41 57 -55 14 -14 23 -31 20 -39 -4 -10 -2 -11
7 -3 16 13 57 -17 50 -36 -2 -7 2 -10 12 -6 16 6 49 -18 41 -30 -3 -3 0 -2 6
3 8 6 17 5 26 -5 8 -8 19 -11 25 -8 7 4 8 2 4 -4 -4 -7 -2 -12 4 -12 6 0 9 -4
6 -8 -2 -4 4 -14 16 -21 16 -10 19 -10 12 1 -6 10 -5 11 8 1 8 -7 17 -10 20
-7 7 7 78 -27 78 -38 0 -4 7 -8 15 -8 30 0 89 -42 77 -55 -4 -4 -2 -6 3 -5 22
5 36 -1 29 -12 -4 -6 -3 -8 3 -5 6 4 21 -2 34 -12 25 -20 86 -11 73 11 -4 5 4
4 17 -2 13 -7 21 -9 17 -5 -4 4 -2 18 3 32 7 18 6 24 -3 21 -7 -3 -22 6 -34
19 -11 12 -24 20 -27 17 -3 -3 -8 4 -12 15 -3 12 -11 19 -16 16 -16 -10 -10 7
7 20 15 10 14 16 -7 58 -13 25 -29 47 -35 47 -21 0 -40 30 -25 39 7 5 12 11
12 15 -3 22 0 36 10 36 5 0 7 -6 4 -12 -4 -7 2 -3 13 9 11 12 22 20 24 17 7
-7 68 58 63 66 -2 4 6 6 19 5 17 -2 26 3 29 16 3 10 1 19 -5 19 -5 0 -7 4 -3
10 3 5 13 6 22 3 15 -6 16 -5 3 9 -8 9 -18 14 -22 12 -9 -6 -4 38 6 55 4 7 5
15 1 19 -4 4 -10 1 -12 -6 -3 -7 -18 -19 -34 -28 -16 -8 -27 -18 -25 -23 3 -4
-1 -8 -9 -8 -10 0 -8 8 7 30 12 17 17 28 12 24 -6 -3 -16 3 -23 15 -7 11 -9
18 -4 15 5 -3 9 3 9 14 0 24 -12 25 -25 2 -6 -10 -11 -13 -11 -6 0 6 5 15 11
18 6 5 4 12 -8 22 -10 8 -12 12 -6 8 7 -3 25 1 40 9 16 8 23 15 17 16 -6 0
-11 7 -11 15 0 9 6 14 14 11 8 -4 13 2 13 17 0 16 -3 18 -9 8 -5 -7 -11 -9
-14 -5 -3 5 1 15 8 21 11 10 15 9 20 -7 4 -11 10 -18 15 -15 12 8 40 -35 33
-51 -3 -8 0 -14 6 -14 11 0 15 12 12 40 -2 13 -1 13 8 0 5 -8 8 -18 5 -22 -3
-4 0 -17 7 -29 7 -15 8 -19 0 -15 -6 4 -20 1 -32 -7 -12 -9 -16 -18 -10 -21 5
-4 12 -2 16 4 9 15 28 12 19 -2 -6 -10 -4 -10 7 0 19 17 27 15 39 -10 10 -21
10 -21 -3 -5 -8 9 -18 17 -22 17 -5 0 2 -11 15 -25 12 -13 25 -24 29 -23 34 4
47 -18 28 -48 -3 -6 0 -11 7 -11 8 0 12 13 11 36 -2 44 -14 73 -26 65 -5 -3
-9 0 -9 5 0 15 13 14 29 -1 12 -11 13 -10 7 6 -5 16 -4 17 9 6 13 -11 14 -10
9 4 -3 9 -11 16 -18 16 -6 0 -4 5 4 10 12 8 11 10 -7 10 -13 0 -23 4 -23 10 0
5 8 6 17 3 15 -6 15 -5 4 8 -17 18 -51 20 -44 2 7 -18 -7 -16 -21 3 -10 13
-12 12 -13 -7 -1 -11 1 -19 4 -15 11 10 42 -14 37 -29 -4 -8 -10 -15 -15 -15
-13 0 -49 42 -43 52 10 16 -8 48 -27 48 -11 0 -17 5 -14 10 3 6 -1 10 -9 10
-9 0 -16 4 -16 10 0 5 8 7 18 4 10 -4 13 -3 6 3 -25 18 -44 69 -31 83 9 10 9
11 -1 5 -10 -5 -12 0 -9 24 4 21 2 29 -6 24 -7 -4 -8 0 -4 11 6 14 3 16 -16
11 -22 -7 -22 -7 -2 9 11 8 16 16 11 16 -5 0 -2 8 5 17 10 11 10 14 2 9 -15
-9 -17 6 -3 20 15 15 -25 72 -63 88 -19 8 -38 19 -41 25 -4 6 -12 9 -17 6 -5
-4 -9 1 -9 9 0 8 -5 18 -12 22 -7 5 -9 2 -4 -7 4 -8 -1 -4 -12 8 -11 12 -23
19 -28 15 -5 -4 -2 2 6 12 14 18 13 18 -10 12 -14 -4 -20 -4 -14 1 6 4 11 16
11 25 0 13 -4 15 -13 7 -8 -6 -14 -6 -18 0 -4 5 -1 13 5 17 8 4 7 9 -2 15 -11
7 -11 9 -1 9 10 0 10 4 -2 16 -9 8 -16 21 -15 27 0 9 2 8 6 0 2 -7 12 -13 21
-12 11 0 12 2 4 6 -6 2 -10 9 -6 14 3 5 0 9 -6 9 -6 0 -9 4 -6 9 3 5 -6 21
-19 35 -30 33 -30 32 -4 39 14 4 18 10 13 19 -5 7 -9 19 -10 27 -2 7 -12 20
-24 28 -17 12 -19 18 -9 29 9 11 9 18 -1 29 -7 9 -10 18 -6 22 3 3 -1 17 -10
31 -9 13 -14 32 -11 42 4 14 -1 17 -23 16 -19 -1 -26 2 -23 11 3 8 15 11 29 9
14 -3 22 -1 19 5 -4 5 -11 6 -17 3 -6 -4 -5 3 4 15 19 26 15 73 -11 136 -26
62 -44 132 -46 180 -3 50 -37 135 -55 135 -5 0 -7 7 -4 15 4 8 1 15 -6 15 -7
0 -10 7 -6 15 3 8 1 15 -5 15 -6 0 -8 4 -5 9 4 5 1 11 -4 13 -6 2 -12 13 -13
25 0 12 -4 20 -8 18 -3 -3 -12 7 -19 20 -7 13 -16 23 -19 21 -3 -3 -15 16 -26
40 -11 24 -23 44 -28 44 -15 0 -37 28 -37 47 0 13 -3 14 -8 5 -6 -9 -12 -5
-20 13 -7 14 -17 23 -22 20 -9 -6 -14 7 -7 21 1 3 -10 12 -25 20 -16 8 -28 19
-28 23 0 5 -13 23 -30 41 -16 18 -30 36 -30 41 0 5 -7 9 -15 9 -8 0 -15 7 -15
15 0 8 -5 15 -10 15 -6 0 -15 11 -22 25 -6 13 -15 22 -19 19 -5 -3 -9 0 -9 5
0 13 -37 51 -43 45 -8 -8 -127 112 -119 121 4 5 2 5 -4 2 -5 -3 -23 6 -40 20
-16 14 -49 42 -74 62 -25 20 -48 41 -52 46 -4 6 -8 7 -8 2 0 -4 -16 9 -35 29
-19 19 -35 33 -35 30 0 -3 -8 2 -18 12 -34 32 -63 53 -88 64 -13 6 -24 15 -24
20 0 5 -4 7 -9 4 -5 -3 -12 1 -15 9 -3 8 -9 14 -13 13 -8 -3 -23 8 -63 44 -10
9 -21 14 -24 11 -3 -3 -13 2 -22 11 -9 10 -23 15 -31 12 -8 -3 -12 -2 -9 3 5
8 -3 12 -39 20 -5 1 -18 9 -27 18 -9 8 -22 12 -27 8 -6 -3 -11 -1 -11 5 0 7
-7 10 -15 6 -8 -3 -15 -2 -15 3 0 7 -113 47 -150 54 -8 1 -18 7 -22 12 -5 6
-8 5 -8 -4 0 -10 -4 -11 -12 -3 -18 14 -117 32 -181 33 -20 0 -35 4 -33 8 3 4
-14 8 -37 9 -43 1 -79 6 -132 17 -16 4 -46 7 -65 8 -19 1 -39 5 -45 8 -5 3
-39 4 -75 3 -84 -4 -90 -6 -90 -16 0 -5 -5 -6 -11 -2 -18 11 -149 10 -149 -1
0 -7 -3 -7 -8 0 -9 13 -52 15 -52 2 0 -5 -7 -4 -15 3 -8 7 -15 10 -15 6 0 -3
-12 -1 -26 4 -14 6 -23 6 -20 2 5 -9 -77 -7 -92 2 -5 3 -12 3 -15 -1z m-3532
-1204 c-4 -12 -3 -19 2 -16 5 3 15 1 23 -5 12 -8 12 -9 -2 -4 -17 5 -26 -8
-10 -17 4 -2 1 -2 -5 -1 -7 2 -13 -1 -13 -6 0 -6 5 -10 11 -10 5 0 7 -5 4 -10
-4 -6 -16 -8 -28 -4 -20 6 -21 5 -7 -11 11 -14 12 -17 1 -11 -9 6 -12 5 -9 -5
3 -8 13 -14 24 -14 10 0 18 -6 17 -12 -2 -7 2 -13 7 -13 6 0 10 4 10 9 0 5 13
14 30 21 16 7 27 16 24 21 -7 13 19 7 28 -6 5 -6 14 -3 25 9 17 18 17 19 -2
12 -18 -7 -18 -5 3 14 22 21 22 23 5 37 -14 12 -12 12 9 -1 15 -9 29 -12 33
-7 3 5 -4 13 -16 16 -11 4 -18 9 -16 12 9 8 48 -18 42 -28 -4 -5 -1 -9 4 -9
20 0 26 -2 53 -21 39 -28 47 -22 13 9 -17 15 -25 23 -18 18 19 -12 31 3 13 15
-12 9 -12 10 3 5 15 -5 21 3 19 24 0 3 9 7 21 7 20 2 20 1 5 -8 -24 -14 -23
-34 3 -36 17 -2 18 1 9 13 -8 8 -8 14 -2 14 5 0 13 -7 16 -16 3 -8 11 -12 17
-8 8 4 9 3 5 -5 -4 -6 -11 -9 -16 -6 -4 3 -19 -4 -31 -16 l-24 -20 25 6 c24 5
24 5 -3 -10 -34 -19 -29 -32 5 -15 19 9 18 7 -5 -10 -15 -12 -25 -26 -22 -31
3 -4 15 1 25 11 22 22 40 26 40 9 0 -5 5 -7 10 -4 8 5 7 12 -2 23 -7 10 0 6
15 -7 15 -14 29 -22 32 -19 3 2 -4 13 -15 23 -11 10 -20 22 -20 28 0 5 9 -1
21 -14 17 -20 20 -21 15 -5 -5 15 -4 17 7 8 8 -7 18 -8 22 -4 5 4 5 2 2 -4
-12 -21 20 -39 40 -23 11 10 14 10 9 1 -5 -9 -1 -11 16 -8 13 3 25 5 28 5 3 1
-2 5 -10 11 -8 5 -11 12 -7 17 5 4 11 3 15 -2 14 -19 42 -17 36 2 -5 15 -4 16
5 3 6 -8 11 -10 11 -5 0 6 6 3 13 -6 7 -9 17 -17 22 -17 6 -1 10 -10 11 -21 1
-14 -3 -18 -14 -13 -11 4 -12 7 -4 10 7 2 12 8 12 13 0 6 -5 7 -10 4 -6 -3
-13 1 -16 9 -3 9 -10 13 -15 10 -5 -3 -6 -11 -2 -17 10 -17 12 -57 2 -63 -4
-2 -6 4 -4 16 4 22 -10 36 -20 20 -4 -6 -10 -8 -15 -5 -5 3 -12 0 -15 -6 -5
-7 -14 -3 -27 11 -11 12 -23 19 -26 15 -4 -3 0 -10 8 -15 9 -6 10 -10 3 -10
-6 0 -19 7 -27 16 -9 8 -16 11 -16 5 0 -6 -5 -11 -11 -11 -5 0 -7 5 -4 10 10
16 -12 12 -30 -6 -11 -11 -13 -20 -6 -28 8 -9 6 -13 -4 -13 -8 0 -13 2 -10 5
2 3 -1 14 -7 25 -10 20 -11 20 -25 1 -14 -18 -14 -18 -11 0 2 10 -3 21 -11 24
-8 2 -11 0 -7 -6 10 -16 -22 -22 -38 -7 -11 11 -15 12 -19 2 -2 -6 -8 -8 -13
-4 -10 9 16 28 28 21 12 -8 9 10 -5 30 -13 17 -14 17 -28 0 -13 -16 -12 -17 4
-11 11 4 16 3 12 -4 -4 -5 -14 -7 -23 -5 -21 7 -37 -4 -37 -24 0 -22 18 -40
30 -29 5 5 13 9 19 9 5 0 1 -6 -10 -14 -11 -9 -23 -11 -28 -6 -5 5 -18 5 -30
-1 -19 -9 -20 -9 -3 4 15 12 15 16 3 20 -9 4 -17 -2 -21 -14 -4 -10 -11 -19
-16 -19 -6 0 -8 4 -5 9 3 5 -1 15 -10 22 -13 11 -15 9 -9 -17 5 -28 5 -28 -5
-4 -9 19 -13 22 -20 10 -5 -8 -6 -19 -2 -25 3 -5 -1 -4 -10 2 -8 7 -18 10 -21
6 -7 -6 -11 11 -8 35 2 10 -2 10 -18 0 -11 -7 -17 -15 -13 -18 4 -3 14 -14 22
-25 14 -19 14 -20 -6 -2 -11 9 -24 14 -29 10 -4 -5 -5 -2 -1 5 4 6 2 12 -3 12
-6 0 -11 -8 -11 -17 0 -15 -1 -15 -13 2 -9 11 -19 15 -27 10 -8 -5 -11 -4 -6
3 3 6 -3 13 -14 17 -18 6 -18 8 -5 21 16 17 39 9 32 -10 -3 -8 5 -13 22 -13
16 0 28 6 28 14 0 7 -5 12 -11 11 -18 -2 -46 13 -40 23 3 5 -2 6 -10 3 -9 -3
-16 -1 -16 5 0 6 5 10 11 9 6 -2 13 2 16 8 5 14 -29 13 -39 -1 -4 -5 -5 -19
-2 -30 5 -17 4 -17 -11 3 -17 23 -18 23 -37 5 -20 -18 -21 -18 -7 4 8 14 20
21 30 18 9 -3 19 1 22 10 4 9 13 12 23 8 13 -5 16 -2 11 10 -4 11 -2 14 8 10
8 -3 12 -9 9 -14 -3 -5 2 -9 10 -9 18 0 21 16 6 25 -5 3 -10 14 -9 23 0 12 3
11 9 -5 13 -32 20 -29 15 7 -2 17 1 30 6 30 6 0 7 -9 4 -21z m5368 -434 c7 0
11 -12 9 -29 -2 -15 1 -25 6 -22 5 3 9 -4 8 -17 -1 -13 4 -21 12 -19 10 2 10
-2 0 -18 -7 -11 -15 -15 -19 -9 -22 36 -52 -25 -33 -69 7 -18 10 -31 6 -28 -5
3 -14 1 -22 -5 -15 -9 -2 -14 23 -10 5 1 6 -3 2 -9 -6 -10 -17 -7 -43 13 -10
8 -10 13 0 24 9 12 9 14 -3 13 -26 -4 -40 0 -34 9 3 5 1 12 -3 15 -5 3 -8 19
-7 36 2 33 -18 59 -31 39 -5 -8 -3 -10 7 -4 11 6 11 5 2 -5 -9 -10 -14 -10
-25 1 -13 15 -25 50 -13 37 4 -4 14 0 22 8 8 8 19 11 25 8 7 -5 8 -2 3 5 -4 7
-16 11 -26 8 -15 -4 -17 -2 -9 13 5 9 7 20 4 23 -3 3 -1 8 5 12 6 3 11 1 11
-6 0 -7 3 -9 7 -6 3 4 12 -10 19 -30 7 -20 11 -39 9 -42 -3 -2 -5 1 -5 8 0 7
-5 9 -12 5 -8 -5 -7 -10 3 -18 8 -6 16 -24 17 -41 2 -16 8 -34 14 -40 8 -7 9
-5 5 7 -4 10 -3 17 1 17 36 -6 62 27 40 49 -7 7 -2 10 14 8 22 -3 24 -1 14 20
-6 13 -15 24 -19 24 -5 0 -5 -4 -2 -10 3 -6 -1 -7 -10 -3 -12 4 -13 8 -5 13
13 8 13 15 -2 45 l-9 20 16 -20 c9 -11 21 -20 28 -20z m-5838 -565 c4 -6 11
-7 17 -4 7 4 8 2 4 -5 -4 -6 -11 -9 -16 -6 -4 3 -13 -9 -19 -26 -9 -26 -8 -30
4 -26 9 4 12 1 8 -9 -4 -10 0 -12 11 -8 9 3 16 1 16 -6 0 -6 -4 -9 -9 -6 -5 3
-17 -6 -26 -21 -14 -21 -14 -25 -3 -20 37 13 56 -27 26 -55 -22 -22 -23 -15
-3 16 14 21 14 24 -1 30 -11 4 -15 2 -11 -8 3 -8 -1 -20 -9 -26 -18 -16 -18
-28 1 -47 17 -16 16 -35 0 -34 -6 1 -10 9 -10 18 0 9 -6 18 -13 21 -6 2 -10 8
-6 13 11 19 12 49 1 49 -7 0 -6 4 3 10 8 5 10 10 4 10 -18 0 -24 -12 -14 -30
6 -12 4 -24 -7 -40 -9 -13 -12 -20 -6 -17 13 8 26 -20 16 -35 -3 -6 -1 -8 4
-5 6 4 14 0 17 -9 3 -9 11 -12 18 -8 8 4 10 3 5 -2 -9 -9 -13 -10 -43 -13 -9
-1 -12 -6 -8 -13 5 -9 2 -9 -9 1 -9 7 -17 19 -17 25 0 6 5 4 10 -4 6 -9 10
-10 10 -3 0 6 -5 15 -10 18 -6 4 -9 19 -7 34 4 25 -14 67 -24 56 -3 -2 -5 4
-5 15 0 10 3 17 7 14 8 -4 23 26 20 39 -1 5 3 6 9 2 6 -3 8 -11 5 -16 -7 -11
-3 -11 19 -3 15 6 15 8 -1 20 -16 12 -16 15 -3 24 8 5 11 10 7 10 -5 0 -5 6 0
13 12 19 13 40 2 53 -7 8 -6 14 3 17 20 8 26 8 33 -3z m6889 -418 c13 -9 21
-23 18 -30 -3 -10 9 -16 29 -14 4 1 4 -9 1 -21 -3 -12 -7 -16 -10 -9 -2 6 -9
12 -15 12 -6 0 0 -12 14 -26 30 -32 35 -84 7 -76 -10 2 -21 8 -24 13 -3 5 -10
9 -15 9 -6 0 -7 -6 -3 -12 20 -31 6 -89 -27 -119 -18 -16 -36 -29 -39 -29 -6
0 -30 -45 -30 -56 0 -3 5 -2 12 2 7 5 8 3 3 -6 -7 -11 -10 -10 -19 1 -6 8 -24
15 -39 16 -26 2 -27 0 -15 -15 12 -16 11 -16 -6 -2 -10 8 -25 15 -33 16 -19 3
-30 14 -14 14 9 0 9 5 1 20 -7 14 -7 20 0 20 5 0 10 -7 10 -16 0 -13 3 -14 14
-5 11 10 17 7 30 -11 18 -26 21 -17 5 14 -9 18 -9 20 4 15 8 -3 25 3 38 14 12
10 25 19 28 19 12 0 37 55 36 77 -2 24 38 59 55 48 5 -3 8 4 7 15 -1 11 -5 20
-9 20 -4 0 -5 6 -2 14 3 8 0 17 -5 21 -6 3 -9 11 -6 16 4 5 1 9 -6 9 -8 0 -8
4 1 16 8 8 9 14 4 12 -5 -2 -10 1 -11 6 -1 5 -7 13 -15 17 -7 5 -9 9 -5 9 5 0
19 -8 31 -18z"/>
<path d="M4950 1340 c0 -5 7 -10 15 -10 22 0 18 -16 -7 -34 -25 -18 -35 -51
-12 -42 11 4 9 -2 -5 -23 -12 -16 -29 -28 -38 -27 -10 0 -17 -5 -15 -13 3 -15
-28 -42 -40 -35 -4 3 -5 -3 -2 -13 5 -16 4 -16 -10 1 -12 16 -13 22 -3 28 9 6
9 8 -1 8 -7 0 -10 6 -7 13 4 6 -4 0 -18 -15 -17 -18 -28 -23 -35 -16 -6 6 -12
6 -16 -1 -4 -6 -1 -11 6 -12 7 0 21 -2 30 -4 12 -2 15 2 11 13 -4 14 -3 15 5
2 7 -9 7 -19 2 -26 -6 -6 -6 -14 -2 -18 4 -4 0 -6 -8 -4 -9 2 -14 -3 -12 -11
3 -12 0 -12 -12 -2 -10 8 -16 9 -21 1 -3 -5 -1 -10 6 -10 8 0 8 -4 -2 -16 -10
-13 -10 -17 0 -24 8 -4 10 -13 7 -19 -4 -6 -11 -9 -16 -6 -11 7 -23 -12 -24
-39 -1 -11 -8 -21 -16 -21 -8 -1 -14 -7 -12 -13 2 -9 -3 -10 -15 -4 -10 5 -26
8 -35 7 -10 -2 -18 1 -18 6 0 5 -5 9 -11 9 -8 0 -8 -5 1 -15 7 -8 16 -12 21
-9 5 3 9 1 9 -5 0 -5 9 -8 20 -6 14 3 18 0 14 -8 -4 -7 -4 -9 1 -5 4 4 14 3
20 -2 9 -8 12 -4 11 12 -1 16 4 22 15 20 13 -2 16 5 13 30 -3 26 -2 29 8 17 7
-8 12 -12 11 -10 -7 12 21 41 38 41 11 0 17 5 14 10 -3 6 0 13 9 16 9 3 12 12
9 21 -4 11 -2 14 5 9 7 -4 12 -2 12 4 0 7 7 9 16 6 14 -5 15 -4 4 9 -14 17 -7
45 12 44 10 0 10 -2 1 -6 -18 -7 -16 -20 2 -20 8 0 13 2 11 5 -8 7 16 62 24
57 4 -3 11 2 14 11 3 8 11 12 16 9 21 -13 40 14 28 41 -6 13 -15 24 -20 24 -5
0 -6 5 -2 11 4 8 12 2 21 -15 7 -14 19 -26 25 -26 9 0 9 3 1 11 -6 6 -9 17 -7
24 3 7 1 16 -5 20 -8 4 -8 12 0 27 7 13 7 18 1 14 -6 -3 -13 -2 -17 4 -8 13
-25 13 -25 0z"/>
<path d="M4697 1152 c-10 -13 -8 -14 10 -8 24 8 36 -3 24 -23 -6 -9 -11 -10
-15 -2 -4 6 -2 11 5 11 7 0 10 2 7 5 -10 10 -39 -8 -34 -21 3 -7 -2 -18 -10
-24 -8 -7 -14 -9 -14 -4 0 4 -6 -1 -14 -11 -8 -11 -12 -28 -10 -39 5 -28 -5
-37 -26 -26 -28 15 -49 -24 -26 -49 14 -15 13 -17 -5 -18 -14 -1 -19 3 -15 12
3 8 1 17 -4 20 -4 3 -11 -1 -13 -7 -4 -10 -6 -10 -6 0 -1 6 -6 12 -12 12 -5 0
2 -16 17 -35 14 -19 31 -35 38 -35 6 0 4 5 -4 10 -12 8 -11 10 8 10 23 0 30
14 12 25 -16 10 0 27 19 20 32 -13 60 -15 66 -5 4 6 11 8 16 5 5 -4 9 -1 9 4
0 6 -4 11 -10 11 -5 0 -10 5 -10 11 0 5 5 7 12 3 6 -4 8 -3 5 3 -7 11 20 28
38 24 5 -1 1 7 -9 18 -12 13 -14 21 -7 21 6 0 11 6 10 13 -4 20 13 50 21 37 5
-8 10 -7 18 3 10 12 8 14 -13 12 -16 -2 -26 3 -30 14 -7 22 -31 23 -48 3z"/>
<path d="M4510 940 c-8 -36 -6 -48 12 -67 13 -14 18 -28 14 -39 -6 -16 -10
-15 -30 9 -18 21 -25 24 -29 13 -4 -9 2 -17 14 -21 10 -4 16 -11 13 -17 -4 -7
-9 -6 -14 2 -5 9 -9 9 -14 1 -4 -6 -2 -11 3 -11 6 0 11 -5 11 -11 0 -5 -4 -8
-8 -5 -4 2 -14 1 -22 -5 -11 -6 -11 -9 -2 -10 6 -1 17 -2 24 -3 14 -1 23 -26
9 -26 -5 0 -13 5 -16 10 -13 20 -23 9 -20 -21 l4 -30 -20 23 c-11 13 -18 17
-14 10 21 -41 -5 -106 -35 -87 -9 6 -9 2 0 -14 6 -12 15 -19 21 -15 5 3 18 0
27 -7 15 -12 15 -12 0 7 -25 28 -23 41 2 19 18 -17 20 -17 14 -2 -3 9 -10 17
-16 17 -5 0 -6 5 -2 12 5 7 11 5 21 -7 7 -11 13 -13 13 -7 0 7 0 15 0 20 0 4
-4 7 -9 7 -5 0 -13 3 -17 7 -3 4 4 5 17 3 13 -3 25 -9 27 -15 9 -26 21 -6 17
27 -4 33 -3 34 9 17 11 -14 11 -21 3 -27 -8 -6 -7 -7 3 -4 9 2 14 13 12 28 -4
23 -3 24 12 4 15 -20 15 -20 13 3 -1 21 -8 26 -34 23 -7 -1 -13 3 -13 9 0 5 5
9 11 8 6 -2 14 3 16 10 4 11 1 12 -14 4 -15 -9 -19 -7 -20 8 -2 20 30 33 45
18 6 -6 16 -6 29 0 11 6 25 7 34 2 18 -10 25 25 7 36 -8 5 -9 1 -5 -10 4 -11
3 -15 -4 -11 -6 4 -8 13 -5 21 3 8 1 14 -4 14 -6 0 -10 -6 -10 -14 0 -15 -37
-32 -47 -22 -4 3 1 6 10 6 21 0 28 13 15 30 -8 12 -9 12 -4 -2 3 -10 1 -18 -4
-18 -6 0 -10 7 -10 15 0 7 -8 19 -17 24 -10 6 -13 11 -6 11 6 0 15 -5 18 -10
4 -6 10 -8 15 -5 5 3 11 1 15 -5 4 -7 12 -7 26 0 18 10 23 6 20 -12 0 -5 2 -8
7 -9 4 0 14 -2 23 -4 12 -2 15 5 14 26 -1 16 2 29 7 29 6 0 8 5 6 12 -5 14
-48 21 -48 7 0 -5 5 -7 10 -4 6 3 10 1 10 -4 0 -13 -1 -13 -55 -15 -31 -2 -44
4 -62 24 -12 14 -23 23 -23 20z"/>
</g>
</svg>
