<?xml version="1.0" encoding="UTF-8" standalone="no"?>
<svg
   version="1.0"
   width="1024.000000pt"
   height="1024.000000pt"
   viewBox="0 0 1024.000000 1024.000000"
   preserveAspectRatio="xMidYMid meet"
   id="svg12"
   sodipodi:docname="ワ.svg"
   xmlns:inkscape="http://www.inkscape.org/namespaces/inkscape"
   xmlns:sodipodi="http://sodipodi.sourceforge.net/DTD/sodipodi-0.dtd"
   xmlns="http://www.w3.org/2000/svg"
   xmlns:svg="http://www.w3.org/2000/svg">
  <defs
     id="defs16" />
  <sodipodi:namedview
     id="namedview14"
     pagecolor="#ffffff"
     bordercolor="#666666"
     borderopacity="1.0"
     inkscape:pageshadow="2"
     inkscape:pageopacity="0.0"
     inkscape:pagecheckerboard="0"
     inkscape:document-units="pt" />
  <metadata
     id="metadata2">
Created by potrace 1.16, written by Peter Selinger 2001-2019
</metadata>
  <g
     transform="translate(0.000000,1024.000000) scale(0.100000,-0.100000)"
     fill="#000000"
     stroke="none"
     id="g10">
    <path
       d="m 5551,9617 c -19.2054,22.5689 -303.1775,2.5037 -251,-12 -68.6638,-34.1688 -299.9411,-28.9377 -261,-31 -66.777,-13.4677 -301.5537,-58.3189 -189,-36 -144.7984,6.8138 -444.1117,-178.8127 -370,-123 -78.5631,-67.2869 -321.0247,-231.2812 -257,-158 -61.1631,19.2557 -198.9332,-17.3032 -138,-23.875 -135.6456,-48.8402 -401.8015,-207.2183 -255,-93.125 -93.9679,-54.2425 -200.4979,-71.656 -139,-41 26.3004,27.2148 -429.6274,-153.1785 -201,-59 -63.3476,-4.5264 -273.5576,-20.2076 -220,-60 -147.7103,-27.1829 -429.4175,-111.4233 -275,-80 16.1294,-39.8712 -82.2307,-181.1456 -126,-89.25 -73.3528,95.1002 -294.5622,42.4288 -207,10.25 -164.9336,-62.3964 -321.0636,-50.7656 -222,-36 -23.6597,-14.7262 -129.1379,-36.9951 -115,-26 -70.7427,13.8331 -397.4625,166.2976 -300,71 -55.004,65.8089 -527.1627,186.0985 -255,112 -178.0181,13.9118 -357.1634,49.2052 -319.5,0.5 C 1581.8871,8872.5362 805.89865,9011.0549 1230,8890 1120.2052,8819.6006 880.11268,8719.3957 972.5,8765.875 895.64018,8760.1916 937.86486,8405.0969 928,8501 c -29.04342,-133.4285 24.14693,-420.2277 37,-305 -11.01033,-72.1654 -105.88527,-313.2528 -112,-242 -72.96762,-284.4197 27.98507,498.8805 -43,-208 -1.54429,-171.1956 -60.73409,-552.4653 -38,-372 -60.78217,-59.5978 24.48015,-1208.4772 23,-624 60.80222,-242.0134 231.2201,-439.792 275,-690 36.5982,-128.2907 104.7794,-487.1913 96,-359 5.7047,89.139 219.3067,-946.5799 98,-330 73.4692,-266.8075 142.3542,-595.2089 63.375,-839.75 42.3175,-39.6128 184.6693,-81.8042 149.625,-37.25 110.3375,-88.6447 249.9978,-257.0292 130,-220 18.6389,-125.9807 32.8395,89.0177 106,49 28.7562,35.3249 -0.894,237.7674 40,179 -26.2584,66.0407 -109.7652,427.3332 -81.125,290.75 76.6004,-58.3463 -124.2966,2083.2383 -12.875,657.25 10.9993,282.0002 -81.8673,645.8409 -50.125,542.375 11.7214,103.2464 104.5649,300.7133 40.875,229.25 -2.149,104.9517 -91.845,473.7856 -114.75,377.375 -18.8726,315.6754 -57.3307,1315.4592 -97.5,979.125 1.8769,137.6661 29.2129,474.7288 -38.5,351.875 241.3535,262.0999 -256.9316,107.0101 221,319 148.9192,50.9718 164.5368,-97.1083 77,-111 -13.8288,19.4201 -76.0389,-62.6549 31,-23 -81.9795,-76.2011 -272.4066,-475.8538 -168.875,-382.625 C 1530.7213,7635.4121 1683.6,7276.7733 1649,7390 c 18.565,-388.2604 558.6025,-518.0486 371,-475 -7.5026,88.8793 139.3157,341.0026 93,251 61.7861,86.5449 -59.9847,-23.5013 -114,12 -122.7496,-96.4687 -108.6453,66.518 -76,119 -30.1532,-85.0667 90.1504,-27.6351 49.75,44.875 123.7698,68.5068 160.9019,-91.6787 49.2031,-67.2656 -162.934,-135.6268 27.9743,8.3508 23.0469,-4.6094 99.1944,99.8267 90.1907,481.4469 81,340 66.6611,99.2318 87.41,311.9315 45,209 157.4262,186.2948 150.4627,504.2371 149.125,410.125 42.3601,29.4365 336.3462,39.8831 270.875,4.875 141.7887,-15.9778 517.9162,2.5497 379,3 140.8364,-13.6454 344.2613,-14.8072 309,4 44.1265,12.283 205.3352,32.1667 175.25,15.875 70.9624,64.914 109.6951,95.5566 91.75,66.125 39.2078,-52.0295 318.2629,26.7905 211.75,-5 52.5697,52.1548 -98.4089,-82.9684 22.25,-18 187.5624,60.8276 -66.3657,-103.0128 190,-30 117.9804,52.5064 345.4757,171.331 302,118 113.1973,-24.3711 438.1493,177.6099 382,149 -63.6807,-0.8125 48.6757,-91.916 65.375,-26 167.5759,186.9588 13.2165,67.6841 196.625,59 217.0713,48.2327 294.2017,72.642 364,90 136.4725,-34.7324 181.1277,-50.9347 80,35 84.5944,-70.1093 396.9077,-161.1422 351,-50 6.6048,21.3445 194.5618,47.5246 135,53 58.0672,-6.8355 248.1529,-20.6829 164,-7 111.4211,-22.9509 316.2651,-7.3425 250,-6 83.8246,-16.4847 259.6517,-10.6004 190,1 97.506,-37.3254 619.267,-61.1735 486,4 57.6233,-77.4908 271.4461,-200.3924 192,-123 190.9408,-79.6538 181.5967,-198.1777 296,-189 91.9333,46.4379 66.8454,-137.5301 103.375,-50.875 34.7396,-116.9775 68.6147,-457.5126 46.5,-343.375 83.4788,13.3373 139.7361,-66.4964 144.125,-93.75 19.7004,107.9777 98.2826,204.7858 4.5,152.375 -18.984,-98.5065 54.9025,-252.9282 55.5,-172.375 7.3281,63.4795 87.431,8.5534 62,110 15.6574,-120.4717 -72.0797,-133.3516 -84,-147 -177.4875,112.5285 174.2588,-305.6632 114,22 107.3978,-37.697 137.5116,-130.2106 109.875,-114 -73.5107,-89.2916 38.6612,-119.6707 -9.875,-117 -138.3299,-187.3849 40.2341,-9.7605 -21,-99 -55.4526,-31.0098 -450.4253,-206.4357 -360,-147 -197.5198,-109.1228 1372.5847,-527.2086 -25,-133 -198.6828,79.1377 -60.9678,-200.63 -9,-218 37.9397,-131.6784 95.8597,-522.2626 72,-366 37.8875,-486.3343 -68.0703,-507.0871 38,-676 -112.7964,38.5507 -198.0146,-388.1121 -112.75,-357.875 C 7537.563,5465.8012 7441.4934,5294.4969 7435,5309 c -103.2738,-141.9743 -180.7653,-516.3198 -127,-345 -58.9699,-201.2668 -23.4686,124.6498 -94,-215 28.7195,88.0173 -106.7981,-236.9409 -72,-165 35.9356,-10.3296 -60.1879,-201.8502 -52.125,-133.375 -13.6592,-166.2996 146.735,-63.6219 74.125,-52.625 120.4812,68.0014 56.7843,132.7316 -23,57 90.3749,-2.3568 -69.0957,-406.9493 52,-255 -34.9857,-174.6338 -170.2302,-262.8269 -228,-420 -44.2276,-54.7369 -128.6259,-289.3386 -95,-200 -61.4523,-117.8229 -230.9377,-348.0508 -180,-260 -214.9122,-252.828 -461.404,-496.9603 -662,-756 -142.4761,-132.0341 -267.8522,-182.1277 -141,-134 -77.5552,-67.4675 -320.9468,-257.497 -227,-199 -98.1939,-34.1247 -312.7135,-229.3432 -235,-197 -94.4872,-66.1424 -359.4501,-296.7169 -265,-205 -160.4332,-110.0102 -527.4172,-380.1541 -420,-338 -87.9883,-93.4867 -309.3746,-278.4564 -230,-166 -55.4052,-50.1441 -180.6711,-271.898 -135,-195 -51.9794,-151.26007 92.9002,-56.3552 31,-105.25 -5.4484,72.4011 47.9018,262.9223 64,130.25 53.8935,48.9235 84.3699,189.5011 44.125,120.375 111.1562,45.4837 -25.0377,40.8478 94.875,-20.375 47.0225,-214.5372 -170.3485,-96.2981 -84,-94 -34.2059,-104.4773 -260.2099,-291.42736 -148,-198 -72.7039,-85.42743 -225.734,-400.27716 -173,-293 -47.6561,-169.62085 246.027,-71.24109 166.5,-86.375 114.7676,85.79521 -35.6907,56.28347 22.5,123.375 51.8409,-19.48688 107.1086,112.86285 56,105.5 -21.2773,-46.38196 98.0876,-38.31124 125,42.5 61.0185,89.49241 -216.6336,21.8118 -15,93 204.1956,273.9007 -414.8355,-1313.01735 -20,106 6.1258,98.3738 109.4543,102.6524 66,-14 32.0039,3.9587 -21.0783,68.8147 47,89.5 -179.1456,-170.24624 14.4724,60.2382 39,55.125 269.0835,-11.5023 106.664,-173.1134 267,39.375 58.1622,100.3789 162.6238,206.2911 34,161 114.4276,46.2143 -2.9536,-71.0658 4,-68 -76.3997,76.6161 67.2077,153.3762 66,25 88.4865,29.1965 274.0619,177.1558 155,111 91.9531,121.1203 56.731,45.1935 193,146 74.8741,60.4221 266.7593,94.0005 219.25,113.125 18.8682,100.4548 9.8991,-84.0956 140.75,72.875 55.1379,80.227 291.9615,199.6296 209,146 62.2332,47.6277 270.8603,140.8089 183,104 108.174,91.3414 279.6886,272.7364 236,185 93.2985,46.6292 347.8134,257.9773 228,173 85.1621,84.0342 428.6571,315.9325 311.875,260.5 31.5091,72.3242 261.0059,241.9774 202.125,180.5 113.048,76.0343 283.622,231.4533 179,153 17.3652,114.945 310.3584,434.6314 226,242 66.5393,81.7737 218.4288,294.9466 142,188 21.4006,78.8495 129.1578,269.0647 83.375,190.75 -43.8473,35.4656 33.057,210.2118 47.625,176.25 44.0769,44.8332 59.2969,146.4086 36.625,120.125 51.9283,122.5433 7.7596,169.1876 20.375,162.875 25.0182,80.836 69.9461,286.0623 21.625,217 -61.5139,201.4833 45.1091,467.3554 25.375,372 36.0458,-3.4628 107.0216,348.2531 88,249 58.0168,220.9649 267.5566,883.4509 223,651 174.3224,278.8274 278.5704,662.865 100,967 27.4186,89.9034 489.7468,-185.9709 357,-188 87.6801,-87.6463 441.7923,-205.0919 212.125,-7.625 -40.9291,120.8333 256.4262,386.9015 94.875,308.625 89.8111,73.5747 148.2149,198.9566 65.25,173.625 106.0067,-142.7046 -0.992,-74.4739 74.75,19.375 -54.6485,-46.9732 -203.1002,7.9186 -115,12 -71.962,56.8809 -120.9389,-183.6632 -55.625,-119.5 -10.8222,45.2904 -145.7286,418.1048 -101.375,298.5 -127.3742,310.0494 1174.127,-1980.6061 141,-114 40.7834,-73.7507 87.3791,-58.1363 91,-39 -108.7195,68.0075 -174.8781,311.1202 -135.375,235.375 -17.6533,224.1458 -184.0185,191.373 -217.5,364.625 67.0985,13.9453 93.6211,94.7996 -14.125,132 -35.9573,63.1785 -157.8779,296.2534 -96.875,241.25 60.799,136.9415 -237.9641,750.8438 -144.125,589.75 -84.1761,128.5559 -183.5285,221.7006 -259,320 -70.9473,69.1212 -417.7149,399.1845 -295,290 -180.6791,159.7402 -430.6533,353.9053 -633,439 -92.096,34.2005 -439.6929,121.3796 -308.875,96.125 -122.0609,9.3464 -323.0229,52.8004 -298.125,44.875 -62.7922,-34.8611 -288.1666,-43.7806 -210,-10 -9.8974,-24.9494 -252.3105,2.556 -220,10 -121.7712,64.328 -222.7819,-264.2102 -139,-36.625 -83.097,95.7537 -193.8849,128.7161 -180.625,42.5 -72.3352,-66.0162 -234.9609,-43.3098 -141.125,-11.25 -32.0991,-9.9415 -306.6411,76.0904 -223.875,19.25 z M 2484,8458 c -38.4405,-118.9921 129.3428,-184.3218 29,-159 92.0284,-8.407 -75.5035,-35.1355 -56,-16 -72.8872,-25.6619 -47.256,104.6768 -61.625,73.25 -158.2537,-56.6158 120.5539,141.286 78.625,110.75 z m 274,-29 c 21.7244,-14.3395 -289.6948,-75.9652 -134,-116 -140.4901,45.9293 27.4393,90.0328 70.625,91.25 58.3166,-59.0917 34.2861,108.5308 63.375,24.75 z M 8892,6844 c 35.3201,-175.8619 -323.2433,-190.7389 -139,-107 83.5384,-5.0679 100.0273,235.4397 139,107 z"
       id="path4" />
    <path
       d="m 4796,1154 c -58.94,11.6968 -106.8279,-47.6208 -117,-88 74.7121,42.4587 -15.2027,-49.7634 55.375,-10.75 114.5665,-83.76773 29.7352,137.9996 70.125,107.625 z"
       id="path6" />
    <path
       d="m 4636,922 c 51.6453,-66.61167 -202.8172,-270.50329 -173,-169 22.4292,65.9247 -142.8785,-71.82458 -3,-31.5 -34.0225,104.11746 -52.858,-219.46986 9,-33.5 -23.7776,30.40382 47.6732,159.26443 98.2016,101.89921 C 4594.2713,778.93242 4722.8645,927.14335 4636,922 Z"
       id="path8" />
  </g>
</svg>
