<?xml version="1.0" standalone="no"?>
<!DOCTYPE svg PUBLIC "-//W3C//DTD SVG 20010904//EN"
 "http://www.w3.org/TR/2001/REC-SVG-20010904/DTD/svg10.dtd">
<svg version="1.0" xmlns="http://www.w3.org/2000/svg"
 width="1024.000000pt" height="1024.000000pt" viewBox="0 0 1024.000000 1024.000000"
 preserveAspectRatio="xMidYMid meet">
<metadata>
Created by potrace 1.16, written by Peter Selinger 2001-2019
</metadata>
<g transform="translate(0.000000,1024.000000) scale(0.100000,-0.100000)"
fill="#000000" stroke="none">
<path d="M5842 9944 c-18 -7 -32 -10 -32 -6 0 3 -14 -8 -30 -27 -17 -18 -28
-36 -25 -41 3 -4 -2 -10 -10 -14 -8 -3 -15 -12 -15 -21 0 -8 -4 -15 -10 -15
-5 0 -9 -3 -7 -7 4 -13 -36 -47 -76 -66 -32 -16 -43 -32 -38 -59 0 -5 -3 -8
-9 -8 -5 0 -8 -28 -6 -64 2 -44 -1 -63 -8 -59 -6 4 -5 -1 3 -10 7 -9 11 -28 9
-42 -3 -13 -1 -22 3 -19 5 3 9 0 9 -5 0 -6 -6 -11 -12 -11 -9 0 -9 -3 -2 -8
13 -9 12 -135 -1 -144 -7 -5 -6 -8 1 -8 5 0 10 -15 9 -32 0 -18 6 -53 13 -78
8 -25 15 -54 17 -65 1 -11 3 -20 5 -20 1 0 3 -11 4 -25 2 -14 7 -41 11 -60 14
-58 15 -64 17 -92 0 -16 4 -28 7 -28 4 0 7 -20 6 -45 0 -29 5 -47 14 -50 8 -3
11 -8 8 -11 -3 -3 -1 -19 3 -35 5 -18 5 -29 -1 -29 -6 0 -7 -5 -4 -11 8 -11
11 -34 20 -129 3 -36 8 -81 11 -100 9 -59 15 -104 16 -117 1 -7 5 -13 10 -13
4 0 8 -5 8 -11 0 -5 -6 -7 -12 -3 -10 6 -10 4 -2 -7 7 -8 14 -30 17 -49 7 -50
14 -76 27 -99 6 -12 8 -21 5 -21 -3 0 5 -11 17 -24 18 -18 27 -21 42 -14 14 8
17 7 11 -4 -6 -10 -5 -10 5 -1 16 15 50 -22 45 -49 -2 -10 2 -18 10 -18 8 0
12 -9 11 -24 -2 -17 1 -23 10 -19 8 3 14 -1 14 -8 0 -7 3 -9 7 -6 3 4 12 2 19
-4 8 -7 14 -6 20 2 4 8 3 9 -4 5 -7 -4 -12 -3 -12 2 0 5 9 12 19 15 13 3 18 1
14 -8 -5 -15 21 -15 34 0 4 4 2 5 -4 1 -7 -4 -13 -2 -13 4 0 7 6 10 13 7 6 -2
12 -12 12 -22 0 -10 10 -21 23 -26 12 -5 23 -17 23 -29 2 -33 4 -38 13 -47 5
-5 6 -2 2 7 -4 8 0 6 8 -4 9 -11 16 -26 16 -33 0 -7 4 -13 10 -13 5 0 6 -7 3
-17 -5 -11 -3 -14 6 -8 10 6 11 3 1 -14 -6 -12 -15 -19 -21 -16 -5 4 -9 -2 -9
-11 0 -10 -3 -15 -6 -11 -4 3 -18 0 -33 -7 -14 -7 -34 -12 -44 -11 -9 2 -15
-1 -12 -5 3 -5 -3 -9 -12 -9 -10 0 -29 -2 -43 -5 -14 -3 -41 -8 -60 -11 -19
-4 -38 -11 -41 -17 -3 -5 -12 -9 -20 -8 -37 6 -70 -1 -63 -12 4 -6 3 -9 -2 -6
-5 3 -42 3 -81 -1 -40 -4 -73 -4 -73 -1 0 4 -13 5 -30 2 -16 -2 -43 1 -60 6
-22 8 -30 8 -30 -1 0 -8 -3 -8 -8 -2 -9 13 -65 14 -74 1 -4 -6 -12 -5 -21 3
-10 8 -17 8 -21 2 -4 -6 -22 -9 -42 -7 -19 1 -37 -1 -40 -6 -3 -5 -9 -6 -13
-4 -4 3 -29 -6 -54 -20 -26 -13 -47 -21 -47 -17 0 4 -6 -2 -14 -13 -8 -10 -20
-19 -28 -19 -7 -1 -12 -6 -11 -12 2 -7 -6 -10 -17 -8 -14 3 -17 -1 -13 -12 4
-11 2 -14 -5 -9 -7 4 -12 3 -12 -3 0 -5 -8 -8 -17 -6 -10 1 -28 -7 -40 -18
-13 -11 -23 -16 -23 -11 0 5 -5 2 -10 -6 -8 -12 -10 -9 -10 11 0 30 28 48 42
27 7 -12 12 -4 9 14 0 4 7 4 16 1 12 -5 14 -3 8 8 -7 12 -6 12 7 1 13 -10 17
-9 22 10 5 19 8 20 16 8 9 -14 14 -7 11 13 -1 5 4 5 10 1 9 -5 10 -1 7 14 -4
15 -2 20 5 15 7 -4 6 1 -2 10 -7 9 -19 17 -27 17 -7 0 -15 4 -18 9 -4 5 4 7
16 5 13 -2 5 2 -17 10 -33 11 -43 11 -61 -1 -11 -7 -23 -11 -26 -8 -3 3 -11
-1 -18 -10 -7 -8 -19 -15 -26 -15 -8 0 -14 -5 -14 -11 0 -5 -4 -8 -9 -4 -5 3
-17 -2 -25 -11 -9 -8 -16 -13 -16 -9 0 3 -14 -2 -30 -10 -17 -9 -35 -13 -39
-10 -5 3 -11 0 -13 -6 -2 -7 -18 -12 -36 -13 -18 0 -32 -4 -32 -8 0 -3 -9 -4
-20 -1 -11 3 -20 1 -20 -4 0 -5 -10 -10 -22 -11 -41 -5 -53 -8 -83 -22 -57
-25 -81 -27 -185 -16 -36 5 -78 9 -93 10 -16 1 -32 7 -35 12 -4 5 -18 10 -32
12 -45 5 -55 7 -67 15 -8 5 -13 3 -13 -5 0 -10 -2 -10 -9 1 -5 7 -14 10 -20 6
-7 -4 -18 -1 -26 5 -11 9 -15 9 -15 1 0 -6 -5 -11 -11 -11 -5 0 -7 5 -4 10 6
10 -7 14 -32 11 -7 -1 -13 3 -13 9 0 6 -4 8 -10 5 -5 -3 -10 0 -10 7 0 9 -3 9
-10 -2 -5 -8 -10 -10 -10 -3 0 6 -8 10 -17 9 -10 -2 -21 2 -25 8 -5 8 -8 7 -8
-2 0 -9 -6 -10 -17 -5 -22 11 -44 10 -62 -1 -10 -7 -12 -6 -6 4 6 10 4 12 -8
7 -10 -3 -17 -2 -17 3 0 6 -5 10 -11 10 -5 0 -7 -5 -3 -11 4 -8 0 -8 -15 0
-11 7 -21 8 -21 4 0 -4 -5 -1 -10 7 -5 8 -10 10 -10 3 0 -12 -24 -12 -36 0 -4
4 -13 2 -20 -4 -7 -5 -14 -6 -17 -2 -6 10 -220 8 -236 -1 -6 -4 -11 -2 -11 5
0 7 -4 8 -12 2 -7 -5 -32 -8 -55 -8 -29 0 -43 -4 -43 -12 0 -16 -12 -17 -27
-2 -8 8 -13 8 -17 0 -5 -7 -13 -8 -25 -2 -10 6 -23 6 -31 1 -8 -5 -21 -5 -30
0 -11 6 -27 4 -44 -6 -16 -8 -34 -14 -41 -14 -7 0 -29 -7 -49 -15 -20 -8 -38
-14 -42 -13 -3 2 -10 -5 -15 -14 -6 -10 -17 -18 -24 -18 -8 0 -15 -8 -15 -17
0 -15 -2 -16 -10 -3 -9 14 -14 7 -11 -13 1 -5 -3 -6 -8 -3 -5 4 -16 -1 -24 -9
-9 -8 -20 -15 -26 -15 -6 0 -11 -5 -11 -12 0 -6 -3 -9 -6 -5 -3 3 -16 -5 -29
-19 -12 -13 -27 -24 -33 -24 -6 0 -9 -7 -5 -15 3 -9 2 -15 -3 -14 -21 4 -35
-2 -29 -11 3 -5 -1 -10 -10 -10 -9 0 -15 -6 -13 -14 2 -8 0 -15 -5 -15 -14 -1
-35 -26 -29 -35 3 -5 -2 -7 -11 -3 -11 4 -18 -1 -22 -14 -4 -10 -11 -17 -16
-14 -5 4 -9 1 -9 -5 0 -7 -14 -25 -31 -41 -17 -16 -27 -29 -23 -29 5 0 -2 -7
-14 -16 -13 -9 -21 -22 -18 -30 3 -8 -1 -14 -10 -14 -8 0 -13 -4 -10 -8 3 -5
-6 -25 -19 -44 -13 -20 -21 -38 -18 -42 4 -3 1 -6 -6 -6 -8 0 -11 -8 -8 -20 3
-11 1 -18 -3 -15 -5 3 -14 -4 -20 -15 -6 -11 -8 -20 -5 -20 4 0 -1 -7 -9 -16
-15 -14 -21 -36 -17 -58 1 -5 -4 -6 -12 -3 -13 5 -17 -4 -18 -45 0 -10 -5 -18
-10 -18 -6 0 -8 -4 -4 -9 3 -5 1 -12 -5 -16 -6 -4 -8 -10 -5 -15 3 -5 -3 -13
-12 -19 -13 -7 -14 -10 -4 -11 11 0 11 -4 -2 -18 -10 -10 -14 -22 -10 -25 3
-4 2 -7 -3 -7 -5 0 -9 -45 -9 -100 -1 -55 3 -100 8 -100 5 0 4 -7 -3 -15 -10
-12 -10 -15 0 -15 9 0 10 -3 1 -13 -7 -10 -7 -17 0 -24 7 -7 7 -13 1 -17 -7
-4 -6 -16 3 -33 8 -15 12 -30 10 -34 -3 -4 2 -10 11 -13 9 -4 14 -9 11 -12 -3
-4 5 -18 18 -32 13 -13 21 -30 19 -37 -3 -6 2 -18 10 -25 9 -7 14 -16 11 -20
-9 -15 -12 -70 -4 -64 5 3 9 -2 9 -10 0 -8 10 -25 22 -36 20 -19 21 -20 4 -14
-18 7 -18 4 4 -26 13 -18 19 -30 12 -26 -7 4 -12 2 -12 -3 0 -6 4 -11 10 -11
5 0 9 -3 9 -7 -1 -5 0 -11 1 -15 1 -5 3 -11 4 -15 8 -34 19 -52 28 -47 8 5 9
1 5 -10 -4 -10 -2 -26 4 -37 16 -31 19 -59 6 -59 -8 0 -7 -3 2 -9 9 -6 14 -32
15 -80 0 -39 4 -71 9 -71 4 0 7 -8 7 -18 0 -10 9 -28 20 -40 12 -12 18 -22 14
-22 -3 0 -1 -7 6 -15 7 -8 9 -15 4 -15 -5 0 0 -7 10 -15 11 -8 16 -15 11 -15
-5 0 0 -7 11 -16 10 -8 14 -13 8 -10 -6 3 -11 -1 -11 -9 0 -8 5 -13 11 -12 6
1 10 -4 9 -10 -2 -7 2 -13 8 -13 6 0 9 -6 6 -14 -3 -8 1 -17 9 -20 9 -3 12
-10 9 -16 -3 -5 0 -10 7 -10 9 0 9 -3 -2 -10 -11 -7 -12 -10 -2 -10 20 0 39
-23 34 -39 -3 -8 0 -11 7 -7 6 4 12 1 13 -6 0 -7 2 -18 2 -24 1 -5 17 -25 36
-43 19 -18 29 -30 23 -26 -7 3 -13 1 -13 -4 0 -10 20 -15 42 -12 7 1 1 -46 -8
-61 -3 -4 3 -5 12 -1 12 4 15 3 10 -5 -4 -7 -2 -12 4 -12 6 0 8 -4 5 -10 -3
-5 -1 -10 5 -10 6 0 9 -4 6 -9 -5 -8 29 -25 46 -22 5 1 7 -2 7 -7 -3 -20 2
-42 11 -42 5 0 7 8 3 18 -3 9 -3 14 2 10 4 -4 14 -3 22 3 10 9 17 7 30 -8 10
-10 15 -14 11 -9 -10 12 -11 32 -2 23 10 -9 46 12 39 24 -4 5 -1 9 5 9 6 0 9
4 6 8 -3 5 4 14 14 22 10 8 17 17 14 22 -3 4 0 8 6 8 6 0 8 5 5 10 -3 6 1 10
9 10 9 0 15 3 15 8 -4 21 3 32 19 32 13 0 14 2 3 9 -16 11 -5 34 12 24 8 -4 8
-2 -1 9 -10 13 -10 17 3 22 9 3 13 10 10 16 -3 5 1 10 11 10 13 0 14 3 4 15
-9 11 -9 15 -1 15 7 0 9 5 6 10 -3 6 -1 10 5 10 6 0 9 4 5 9 -3 5 2 17 11 25
11 12 12 16 2 16 -10 0 -9 3 2 10 8 5 11 10 5 10 -5 0 -3 5 5 10 11 7 11 10 2
10 -8 0 -10 5 -5 13 14 22 14 49 1 41 -8 -5 -7 -1 2 10 8 10 13 32 12 48 -1
17 3 37 10 46 10 12 10 14 1 8 -16 -9 -16 -1 -3 25 8 13 7 19 0 19 -6 0 -5 11
4 29 12 22 12 31 3 41 -9 10 -9 11 0 6 6 -3 14 -2 18 4 3 5 0 10 -7 10 -9 0
-9 3 2 10 12 8 12 10 1 10 -9 0 -10 4 -4 13 5 6 8 26 8 42 -1 17 2 38 7 48 6
12 5 17 -4 17 -9 0 -9 3 2 10 8 5 11 10 5 10 -5 0 -3 5 5 10 8 5 10 10 4 10
-6 0 -11 7 -11 15 0 20 14 19 26 -2 6 -10 11 -13 11 -6 0 6 -10 19 -22 27 -12
9 -17 16 -10 16 6 0 11 3 11 8 -5 29 2 62 13 56 7 -5 8 -3 2 7 -15 24 -14 43
4 63 9 11 12 17 6 13 -15 -9 -38 23 -42 58 -7 53 -5 68 7 61 5 -4 8 2 7 11 -2
10 -10 18 -19 18 -9 0 -16 4 -14 10 1 5 9 8 16 7 13 -3 13 -1 2 12 -10 12 -17
13 -27 5 -10 -8 -11 -6 -1 14 6 14 16 23 22 19 5 -3 4 2 -4 11 -9 11 -10 17
-2 17 6 0 11 5 11 12 0 6 -3 8 -6 5 -10 -10 -45 34 -37 46 3 6 1 7 -6 3 -6 -4
-8 -12 -5 -18 5 -7 1 -9 -9 -5 -9 3 -17 1 -19 -4 -2 -6 -17 0 -33 13 -20 14
-25 16 -16 5 13 -16 12 -18 -12 -13 -15 2 -26 2 -26 -2 3 -18 -3 -22 -20 -13
-14 8 -22 7 -32 -7 -13 -15 -12 -16 3 -4 11 9 18 10 23 2 4 -6 1 -9 -7 -8 -7
2 -12 -5 -12 -14 1 -9 -4 -19 -11 -22 -9 -3 -11 2 -7 16 3 13 1 19 -5 15 -6
-4 -10 1 -9 11 1 12 -8 18 -27 20 -15 2 -27 0 -26 -5 4 -22 -2 -34 -13 -27 -9
5 -9 2 1 -9 16 -20 2 -23 -18 -4 -9 7 -11 7 -8 1 4 -7 0 -15 -9 -18 -8 -3 -13
-10 -9 -15 7 -12 -29 -33 -40 -23 -4 4 -5 0 -4 -8 2 -8 1 -16 -4 -17 -4 -2 -7
0 -6 3 0 4 -5 11 -13 15 -9 6 -10 9 -1 9 7 0 10 7 6 17 -5 12 -3 14 8 8 8 -4
4 2 -8 14 -17 16 -20 27 -14 43 10 27 2 70 -11 62 -6 -4 -3 5 6 18 9 14 14 27
12 29 -3 3 4 5 14 5 11 0 20 -4 20 -8 0 -4 -6 -8 -13 -8 -8 0 -14 -7 -14 -15
0 -12 3 -12 16 -2 10 8 13 9 8 0 -4 -6 -3 -15 3 -18 6 -4 10 -3 9 2 -4 20 2
33 15 33 8 0 17 -6 20 -12 3 -7 2 0 -1 16 -3 16 -2 27 3 23 5 -3 18 2 29 10
20 16 20 16 0 9 -15 -4 -12 1 10 20 17 14 24 23 18 20 -7 -4 -13 -2 -13 3 0 6
4 11 9 11 5 0 11 10 14 22 5 19 8 20 23 7 14 -11 16 -11 10 -1 -8 13 30 50 46
45 10 -4 1 37 -13 53 -9 11 -6 16 14 25 27 12 47 42 22 33 -10 -4 -12 0 -8 15
3 11 9 18 14 15 5 -3 9 0 9 6 0 6 5 8 13 4 7 -5 6 0 -3 11 -9 11 -10 16 -2 11
11 -7 13 -3 16 43 1 8 15 20 31 27 17 7 26 13 20 14 -5 0 -5 4 2 8 18 11 168
6 168 -6 0 -6 4 -14 8 -19 5 -4 8 -3 7 2 -6 26 1 37 20 32 11 -3 20 -1 20 4 0
8 51 39 64 39 3 0 3 -8 -1 -17 -4 -13 0 -11 11 4 11 14 23 20 33 16 12 -5 14
-3 8 8 -7 11 -6 12 6 3 15 -13 45 7 31 20 -3 4 -7 12 -8 19 -2 15 33 20 41 7
3 -5 13 -7 23 -4 16 5 16 5 0 -5 -16 -11 -19 -49 -3 -43 4 2 12 -2 16 -10 7
-11 9 -10 9 1 0 9 6 7 19 -7 18 -21 38 -31 27 -14 -6 10 30 9 39 0 4 -3 20 -4
37 -1 23 3 28 1 23 -9 -6 -10 -5 -10 4 -2 7 7 29 10 49 7 28 -3 33 -1 22 6 -9
7 -10 11 -3 11 6 0 14 -4 17 -8 8 -13 69 -12 85 1 12 9 13 9 7 0 -4 -8 -1 -13
9 -13 10 0 13 5 9 13 -5 8 -2 8 9 -2 9 -7 17 -9 17 -4 0 5 9 9 19 9 11 0 17
-4 15 -8 -3 -4 2 -5 10 -2 9 3 13 10 10 15 -3 5 2 6 10 3 9 -3 13 -11 9 -17
-4 -6 -1 -7 8 -1 21 13 62 17 54 5 -4 -7 1 -8 11 -4 12 4 15 3 10 -5 -5 -8 -2
-10 8 -6 9 3 16 10 16 15 0 5 5 9 11 9 5 0 7 -5 3 -12 -5 -7 -3 -8 7 -2 21 13
51 16 44 4 -3 -5 -2 -10 3 -10 5 0 14 10 21 23 6 12 9 14 7 5 -7 -22 10 -24
18 -2 4 9 11 12 18 7 19 -11 37 -12 44 -2 8 14 26 11 18 -3 -6 -10 -4 -10 7 0
7 6 25 12 39 12 14 0 31 5 37 11 8 8 13 7 18 -2 5 -8 4 -10 -3 -5 -8 5 -10 2
-6 -8 5 -13 9 -12 26 4 16 14 26 17 45 9 13 -5 22 -5 19 -1 -2 4 4 8 14 8 10
0 17 -3 15 -6 -2 -4 2 -7 10 -7 8 0 12 4 10 7 -3 4 9 10 26 14 19 3 28 10 23
17 -4 8 0 8 15 0 16 -9 21 -9 21 0 0 7 9 4 22 -7 12 -10 18 -13 14 -6 -4 7 -1
12 8 12 9 0 16 -6 16 -12 1 -8 6 -6 14 5 12 16 14 16 20 2 4 -12 10 -14 25 -5
14 7 22 7 26 0 5 -8 12 -7 23 2 12 10 14 10 8 1 -4 -9 -1 -14 11 -15 10 0 25
-2 33 -2 8 -1 14 -8 12 -16 -1 -8 7 -4 18 10 11 14 20 21 20 15 0 -5 7 1 16
15 13 22 14 22 9 3 -5 -17 -2 -21 12 -19 10 2 28 -1 41 -5 12 -5 22 -5 22 0 0
5 10 7 22 3 14 -3 19 -1 14 6 -5 8 -2 10 8 6 9 -3 16 -1 16 5 0 6 7 8 15 5 8
-4 15 -2 15 3 0 5 7 10 15 10 8 0 15 -4 15 -9 0 -5 5 -6 10 -3 6 4 8 10 6 14
-3 4 1 8 9 8 8 0 12 -5 9 -11 -3 -6 1 -3 9 7 13 16 15 16 21 2 4 -11 2 -14 -7
-9 -7 4 -7 1 2 -7 11 -11 14 -11 18 -1 4 9 8 10 18 2 10 -8 15 -8 21 1 5 8 3
9 -6 4 -8 -5 -11 -4 -6 3 4 6 13 9 21 6 8 -4 12 -11 8 -17 -4 -6 -1 -7 8 -1
23 14 51 15 67 2 10 -8 13 -9 9 -2 -4 7 0 14 8 18 8 3 15 2 15 -2 0 -4 15 -7
34 -7 19 0 32 3 30 6 -2 4 5 9 16 12 13 3 18 1 14 -6 -5 -8 -2 -7 7 1 7 6 17
12 22 12 4 0 5 -6 1 -12 -4 -7 1 -6 12 3 10 9 25 14 32 12 6 -3 12 1 12 9 1 8
6 6 15 -6 15 -19 15 -19 15 4 0 23 0 23 15 4 13 -17 14 -17 15 -2 0 15 4 16
26 8 16 -7 23 -7 19 0 -3 6 -3 10 2 11 4 0 23 2 40 3 18 2 30 0 27 -5 -3 -5 2
-6 10 -3 9 3 13 11 10 16 -4 6 2 6 14 -1 16 -8 26 -6 48 11 16 13 23 15 16 6
-10 -13 -10 -17 3 -22 10 -4 14 -2 9 5 -4 8 1 9 15 4 13 -4 21 -2 21 5 0 6 -5
8 -12 4 -8 -5 -9 -2 -5 10 4 10 7 22 7 27 0 6 5 7 10 4 6 -4 8 -10 6 -13 -4
-6 14 -7 57 -3 5 1 6 5 2 10 -3 5 -1 13 5 16 6 4 9 1 8 -7 -2 -7 4 -13 12 -13
8 0 14 6 12 13 -2 10 2 10 18 2 14 -8 20 -8 20 0 0 6 4 9 9 5 5 -3 13 0 16 6
4 5 13 8 21 5 8 -3 14 -1 14 5 0 6 5 7 10 4 6 -3 10 -1 10 5 0 7 6 10 14 7 8
-3 17 0 20 8 3 9 15 12 31 9 17 -3 24 -1 20 6 -4 6 0 7 10 3 10 -3 21 0 26 8
5 8 9 9 9 3 0 -6 7 -11 15 -11 8 0 15 4 15 9 0 5 9 7 20 3 16 -5 19 -3 13 12
-6 16 -5 17 12 3 17 -14 18 -14 6 8 -6 12 -8 21 -4 20 18 -4 82 15 77 23 -3 5
2 6 10 3 9 -4 16 -1 16 6 0 7 7 10 16 6 10 -4 13 -2 8 6 -5 7 -2 9 8 5 9 -3
21 0 28 6 10 9 11 9 5 -1 -6 -11 -3 -11 13 -1 12 7 18 17 16 21 -3 4 2 8 11 8
10 0 15 6 12 13 -3 8 6 12 27 12 17 0 31 -5 31 -12 0 -6 4 -15 9 -20 6 -5 6
-2 1 6 -6 11 -4 13 11 8 16 -6 17 -5 4 6 -24 20 -24 40 0 34 22 -6 65 37 54
54 -3 5 -2 9 3 8 17 -4 63 14 57 22 -3 5 0 9 5 9 6 0 11 -5 11 -11 0 -6 9 -8
20 -4 16 5 19 3 13 -12 -6 -14 -2 -13 17 5 13 12 28 22 33 22 5 0 6 7 3 15 -6
18 24 17 36 0 5 -6 8 -5 8 3 0 7 5 10 10 7 6 -3 13 1 17 10 8 24 -19 39 -33
19 -9 -12 -13 -12 -17 -2 -4 10 -6 10 -6 1 -1 -7 -6 -13 -12 -13 -8 0 -9 4 0
13 6 8 7 18 3 23 -4 4 1 2 11 -5 12 -10 17 -10 17 -1 0 8 12 10 34 7 40 -5 58
-15 51 -27 -3 -5 -1 -11 4 -14 4 -3 8 4 7 17 -1 15 5 22 18 22 11 0 21 6 24
13 2 6 9 9 15 5 7 -3 9 -2 5 2 -11 12 -60 16 -52 4 3 -5 0 -8 -8 -7 -7 2 -12
-3 -10 -10 2 -10 -2 -10 -17 -3 -10 6 -20 8 -23 6 -3 -3 -5 2 -5 10 0 11 4 12
11 5 14 -14 29 -13 20 2 -5 7 -3 8 6 3 10 -6 12 -4 7 8 -5 13 -2 15 18 7 19
-7 23 -6 18 5 -3 8 -9 13 -13 10 -5 -3 -12 -1 -15 5 -4 6 -1 9 7 8 7 -2 12 3
10 10 -1 8 2 11 8 7 5 -3 10 0 10 7 0 9 3 9 10 -2 5 -8 10 -11 10 -7 0 4 10 2
23 -4 19 -10 20 -10 11 2 -12 15 -15 48 -5 47 3 0 8 1 11 2 14 6 69 7 65 0 -2
-3 2 -7 10 -7 11 0 12 4 4 13 -7 8 -7 14 1 19 5 3 10 1 10 -4 0 -6 5 -11 11
-11 8 0 9 4 0 13 -6 8 -7 18 -3 22 4 5 -8 -2 -26 -14 -18 -13 -36 -21 -39 -17
-3 3 2 8 11 12 9 3 13 10 10 16 -3 5 2 8 12 6 11 -2 18 2 16 10 -2 10 2 10 20
1 21 -11 22 -11 9 5 -12 14 -12 16 1 11 9 -4 18 1 22 10 4 12 10 14 25 5 17
-8 19 -7 16 8 -2 15 2 18 21 16 21 -2 22 0 13 17 -7 15 -7 19 3 17 7 -2 12 3
10 10 -1 8 2 11 8 7 6 -3 8 -10 6 -14 -3 -4 1 -8 9 -8 11 0 12 5 3 21 l-11 21
23 -20 23 -20 -19 30 c-14 23 -15 27 -3 18 16 -13 29 -8 29 9 0 5 -4 7 -8 4
-5 -3 -9 1 -9 9 0 8 2 13 5 10 10 -9 42 16 35 28 -4 7 0 7 10 -2 9 -7 17 -10
17 -5 0 4 7 -1 16 -12 14 -18 15 -18 4 4 -6 12 -16 22 -22 22 -6 0 -9 2 -6 5
9 9 58 -17 52 -27 -4 -5 3 -4 14 3 12 7 18 18 14 24 -3 5 3 3 13 -5 15 -12 17
-12 10 -1 -6 11 -4 13 8 8 10 -4 16 -2 14 6 -1 7 4 11 11 9 8 -1 11 2 7 8 -3
6 -12 8 -18 4 -7 -3 -4 1 5 9 10 8 14 18 10 22 -4 5 1 5 10 2 12 -4 15 -2 11
8 -3 8 -10 12 -16 8 -7 -4 -8 0 -4 11 4 10 7 20 7 22 0 2 5 4 10 4 6 0 9 -5 8
-11 -2 -6 4 -14 12 -16 13 -4 13 -3 0 6 -14 10 -7 16 14 12 5 -1 5 4 0 11 -15
19 -11 41 6 45 13 4 13 3 0 -7 -13 -10 -13 -11 0 -7 8 2 15 15 15 30 -1 14 2
25 5 25 20 -2 30 4 25 12 -4 6 -3 10 2 9 18 -3 34 1 29 9 -2 4 6 9 20 10 13 1
24 -3 24 -10 0 -6 -3 -9 -6 -5 -8 7 -64 -20 -63 -31 3 -19 -2 -25 -11 -12 -5
8 -10 10 -10 4 0 -5 7 -19 15 -30 13 -16 14 -17 9 -1 -4 10 -3 17 2 16 21 -4
25 2 13 18 -12 15 -12 16 4 10 11 -4 20 -1 24 8 4 13 8 13 21 3 12 -10 14 -10
8 0 -4 7 -2 12 5 12 7 0 9 3 6 7 -4 3 -2 12 4 19 8 10 5 12 -15 8 -13 -2 -28
1 -32 7 -4 8 -3 9 4 5 16 -10 54 12 46 26 -4 7 -3 8 5 4 6 -4 10 -10 7 -14 -2
-4 1 -16 5 -27 9 -18 9 -18 5 2 -2 13 0 26 6 29 6 4 5 10 -3 15 -10 6 -10 9
-2 9 6 0 15 -5 18 -10 4 -6 11 -8 16 -4 5 3 7 10 4 15 -7 11 43 32 61 25 8 -3
16 -1 19 5 4 5 10 7 15 4 5 -3 12 0 16 6 4 8 3 9 -4 5 -8 -5 -12 2 -12 19 0
15 4 24 10 20 6 -4 7 -12 3 -18 -5 -8 -2 -8 9 0 8 7 19 9 23 5 5 -4 5 -1 1 6
-4 7 -12 10 -17 7 -5 -4 -9 1 -9 10 0 13 4 14 23 4 21 -12 21 -11 7 6 -14 17
-13 18 5 11 11 -4 16 -4 13 0 -4 4 -2 16 4 28 7 11 11 24 10 29 -1 4 8 7 20 7
21 0 21 0 2 16 -10 8 -14 13 -7 9 14 -6 36 28 25 40 -4 5 -2 6 3 2 6 -3 17 8
24 24 7 17 16 28 19 25 2 -3 0 -11 -5 -18 -12 -16 -13 -49 -1 -42 5 3 6 9 3
14 -3 5 2 21 11 35 15 23 15 25 0 25 -9 0 -16 5 -16 11 0 6 7 8 16 5 13 -5 15
-2 11 14 -5 18 -3 19 10 8 14 -12 15 -11 5 9 -16 29 -15 36 4 29 14 -5 15 -4
5 8 -8 10 -9 16 -1 21 5 3 10 15 10 26 0 10 4 19 10 19 5 0 7 -8 4 -17 -5 -14
-4 -15 4 -4 6 8 8 20 5 28 -3 8 3 21 13 29 11 9 13 12 5 8 -10 -5 -12 -3 -7 5
5 7 15 10 23 6 12 -4 13 -3 5 8 -12 14 -7 27 10 27 5 0 6 -5 2 -12 -4 -7 -3
-8 5 -4 6 4 9 11 6 16 -3 5 -1 11 5 15 5 3 10 15 10 26 0 10 5 19 11 19 5 0 7
5 4 10 -3 6 -1 10 6 10 8 0 8 4 -1 15 -11 13 -10 14 4 9 12 -4 16 0 16 15 0
12 5 21 11 21 5 0 7 5 3 12 -5 7 -2 9 8 6 10 -4 15 0 15 10 0 35 3 43 14 37 6
-4 9 0 7 11 -2 13 3 19 16 17 12 -1 15 2 8 9 -6 6 -8 17 -4 26 4 11 1 14 -11
9 -15 -6 -16 -4 -6 16 6 12 8 19 4 15 -4 -4 -17 -3 -28 3 -15 9 -18 8 -12 -3
6 -10 5 -10 -5 -1 -13 12 -44 1 -63 -22 -5 -6 -7 -3 -3 8 3 9 1 17 -4 17 -6 0
-10 7 -10 15 0 8 -4 15 -10 15 -5 0 -10 7 -10 16 0 8 -4 12 -10 9 -5 -3 -10
-2 -10 3 0 8 -6 10 -49 14 -11 1 -17 7 -14 12 3 5 1 6 -5 2 -7 -4 -12 -13 -12
-19 0 -7 -9 -18 -21 -25 -11 -7 -18 -18 -16 -25 2 -7 -7 -22 -20 -35 -21 -20
-23 -25 -11 -39 9 -12 9 -15 0 -9 -11 7 -46 -17 -37 -25 11 -12 -54 -70 -80
-72 -17 -2 -36 -7 -44 -11 -9 -6 -12 -5 -7 2 3 6 2 13 -4 17 -5 3 -10 1 -10
-5 0 -6 -4 -9 -9 -5 -6 3 -14 -3 -20 -12 -8 -14 -11 -15 -11 -3 0 12 -3 11
-11 -3 -6 -9 -15 -14 -21 -11 -8 5 -9 1 -5 -10 5 -14 3 -17 -8 -12 -10 3 -42
-21 -94 -73 -44 -44 -82 -77 -85 -75 -3 2 -4 1 -2 -2 3 -3 -6 -24 -20 -45 -13
-21 -20 -39 -14 -39 6 0 2 -10 -9 -22 -11 -11 -18 -24 -16 -29 3 -4 -1 -14 -9
-22 -8 -8 -12 -17 -9 -21 4 -3 0 -6 -7 -6 -7 0 -11 -3 -7 -6 3 -4 -2 -14 -11
-23 -11 -10 -12 -12 -2 -6 13 9 13 8 1 -7 -7 -10 -20 -18 -28 -18 -8 0 -11 -5
-8 -10 3 -6 0 -13 -9 -16 -9 -3 -12 -12 -9 -21 4 -9 2 -14 -3 -11 -11 7 -35
-17 -27 -26 4 -3 -1 -6 -10 -6 -9 0 -16 -3 -15 -7 2 -5 -1 -9 -6 -10 -15 -3
-25 -27 -16 -38 7 -8 5 -12 -5 -12 -8 0 -12 4 -9 9 3 4 2 8 -3 8 -7 -1 -16
-10 -59 -65 -8 -11 -13 -13 -9 -5 4 8 -1 6 -10 -5 -9 -11 -21 -19 -26 -17 -5
1 -8 -1 -7 -5 2 -5 1 -8 -2 -8 -11 0 -38 -30 -33 -37 2 -4 -2 -5 -10 -2 -8 3
-17 -2 -21 -11 -3 -9 -11 -13 -17 -9 -8 4 -9 3 -5 -4 4 -7 2 -12 -4 -12 -6 0
-9 -4 -5 -9 3 -6 -2 -8 -12 -7 -23 5 -43 -15 -43 -41 0 -5 -5 -1 -10 7 -8 13
-10 12 -10 -2 0 -10 -5 -18 -11 -18 -7 0 -18 -8 -25 -17 -9 -12 -13 -13 -14
-5 0 8 -11 2 -27 -13 -15 -14 -32 -25 -37 -25 -5 0 -15 -8 -23 -17 -8 -10 -12
-13 -9 -7 3 7 -9 5 -29 -4 -19 -9 -35 -20 -35 -25 0 -5 8 -3 18 4 15 13 16 12
3 -3 -7 -10 -17 -15 -22 -12 -5 3 -19 -5 -30 -18 -11 -13 -18 -18 -15 -12 3 6
-1 11 -8 11 -8 0 -12 -6 -9 -14 4 -9 0 -11 -13 -6 -13 5 -15 3 -9 -7 6 -10 4
-12 -8 -7 -10 4 -20 0 -25 -9 -5 -9 -11 -15 -13 -13 -10 5 -49 -14 -49 -24 0
-7 -4 -6 -10 3 -8 12 -10 12 -10 1 0 -9 -8 -12 -25 -9 -14 3 -23 1 -22 -6 1
-5 -4 -11 -10 -12 -7 -1 -16 -3 -20 -4 -5 -1 -12 -2 -16 -1 -4 1 -10 -6 -14
-15 -5 -13 -7 -13 -14 -2 -7 10 -9 11 -9 0 0 -7 -5 -10 -10 -7 -6 4 -17 2 -24
-4 -7 -6 -33 -12 -58 -14 -24 -2 -50 -7 -56 -11 -7 -4 -12 -2 -12 4 0 8 -6 7
-21 -1 -12 -6 -38 -11 -58 -11 -20 0 -44 -7 -55 -16 -10 -10 -21 -17 -25 -17
-3 0 -5 -3 -4 -6 1 -4 -7 -9 -18 -12 -16 -4 -19 -2 -15 11 4 10 -3 6 -15 -8
-11 -14 -18 -19 -14 -12 4 7 1 19 -5 27 -10 12 -10 15 -1 15 8 0 7 5 -3 15 -8
9 -13 22 -9 30 4 11 0 14 -13 9 -18 -5 -18 -5 -1 6 9 6 14 16 11 22 -4 6 -8
27 -10 45 -2 32 0 34 25 29 14 -3 32 -2 40 3 18 12 43 2 34 -13 -4 -6 1 -5 10
3 17 14 23 6 18 -23 -1 -5 5 -3 14 4 13 11 18 10 31 -6 9 -10 13 -14 10 -8 -3
7 7 12 27 12 62 2 95 7 91 13 -2 4 3 9 11 13 8 3 15 12 15 21 0 8 5 15 10 15
6 0 9 -5 8 -12 -4 -15 22 -18 41 -4 12 9 13 8 6 -4 -6 -12 -5 -13 6 -2 7 6 22
12 34 12 12 0 15 3 9 8 -6 4 -10 18 -9 32 1 14 -1 30 -4 35 -4 6 -7 17 -6 25
0 8 -5 21 -12 28 -7 8 -11 17 -8 22 3 5 -1 10 -7 13 -10 3 -10 9 0 27 12 19
12 24 0 31 -10 7 -8 9 7 9 15 0 17 2 6 9 -8 5 -11 16 -8 25 4 9 2 16 -2 16
-10 0 -9 19 2 37 6 9 3 11 -9 6 -14 -5 -15 -3 -4 17 9 18 9 21 0 15 -8 -5 -11
-3 -8 6 3 8 13 13 22 13 14 -2 15 1 4 15 -11 13 -10 13 8 -1 11 -10 29 -19 40
-21 10 -1 25 -6 32 -10 6 -5 12 -5 12 0 0 4 5 1 10 -7 9 -13 10 -13 10 0 0 13
1 13 10 0 8 -13 10 -13 10 2 0 9 17 25 37 35 24 12 37 25 38 39 2 32 -13 64
-27 60 -7 -1 -10 -1 -5 1 4 3 5 9 2 14 -4 5 2 6 12 2 16 -6 17 -5 3 12 -14 17
-14 18 9 6 19 -11 22 -11 15 1 -14 22 -13 37 2 31 8 -3 11 -10 7 -17 -3 -6 -2
-7 3 -3 5 5 9 14 9 20 0 7 9 11 19 9 12 -2 16 1 11 10 -6 10 -5 10 5 1 7 -6
19 -9 28 -6 11 5 13 3 7 -7 -6 -9 -4 -11 4 -6 7 5 10 15 7 23 -4 9 -1 23 6 31
8 10 9 13 1 9 -20 -13 -44 4 -38 27 2 11 2 15 -1 9 -9 -19 -27 -16 -20 3 6 15
4 15 -11 3 -16 -13 -17 -12 -4 4 8 10 19 16 26 13 7 -2 10 6 7 25 -2 15 -7 27
-11 26 -3 -1 -7 3 -9 8 -2 6 -11 19 -20 30 -16 19 -16 19 1 6 15 -12 17 -11
17 13 0 16 -4 25 -10 21 -5 -3 -10 -1 -10 5 0 6 -4 8 -10 5 -6 -3 -7 1 -4 9 6
14 -5 21 -28 17 -4 0 -12 8 -18 18 -5 11 -24 30 -42 42 -17 13 -28 18 -24 11
4 -7 3 -12 -3 -12 -5 0 -11 5 -13 10 -5 15 -61 20 -70 6 -5 -7 -8 -6 -8 4 0
10 -11 16 -30 16 -27 2 -35 -6 -31 -29 1 -5 -3 -6 -9 -2 -7 4 -7 12 0 25 7 13
6 21 -5 30 -7 6 -11 18 -8 26 3 9 0 14 -8 12 -9 -2 -13 4 -11 15 2 9 -2 17 -8
17 -5 0 -10 6 -10 14 0 8 -7 22 -16 30 -9 9 -11 16 -4 16 6 0 0 10 -14 23 -18
17 -22 27 -15 39 6 11 6 19 -1 23 -6 4 -8 11 -5 16 7 11 -7 12 -21 2 -5 -5 -1
0 9 10 11 9 14 17 8 17 -7 0 -9 5 -6 10 3 6 1 10 -4 10 -6 0 -10 3 -10 8 4 21
-2 42 -10 37 -5 -3 -12 4 -16 15 -3 11 -11 20 -17 20 -5 0 -8 7 -4 15 3 8 2
14 -2 12 -4 -1 -8 3 -10 8 -2 6 -13 15 -25 22 -12 7 -18 12 -12 13 5 0 -1 7
-13 16 -12 8 -22 20 -22 26 0 7 7 3 15 -8 10 -12 8 -4 -4 22 -11 23 -17 45
-13 49 4 3 1 5 -7 3 -7 -1 -16 3 -19 11 -3 9 0 11 8 6 8 -5 5 4 -6 18 -10 15
-23 27 -27 27 -5 0 -5 5 -2 10 4 6 1 9 -7 8 -7 -2 -12 5 -11 15 0 10 -2 16 -5
13 -3 -3 -12 -1 -19 6 -11 9 -17 9 -24 -3 -5 -8 -9 -9 -9 -3 0 5 6 16 13 23
10 11 10 13 0 7 -8 -4 -13 -1 -13 8 0 9 -5 16 -11 16 -5 0 -8 -4 -5 -8 3 -5
-1 -9 -9 -9 -8 0 -15 4 -15 9 0 4 5 8 11 8 5 0 7 4 4 10 -4 6 1 7 12 4 17 -5
17 -5 1 9 -10 8 -15 16 -13 19 3 3 -8 18 -23 35 -16 16 -28 37 -26 46 1 10 -2
15 -6 12 -5 -3 -12 0 -17 7 -4 7 -17 18 -28 25 -11 6 -19 16 -17 22 1 6 -3 11
-9 11 -7 0 -18 8 -26 18 -8 10 -11 11 -7 2 7 -13 5 -13 -9 -1 -9 7 -24 11 -32
7 -9 -3 -14 -2 -11 3 10 16 -19 19 -52 5z"/>
<path d="M6808 7036 c-10 -7 -18 -18 -18 -25 0 -6 -7 -14 -15 -17 -8 -4 -15
-12 -15 -20 0 -8 -6 -11 -17 -7 -10 4 -14 2 -10 -4 8 -14 -30 -63 -48 -63 -8
0 -22 -11 -31 -25 -9 -14 -19 -23 -23 -20 -4 2 -14 -5 -21 -16 -8 -10 -21 -19
-28 -19 -9 0 -12 -6 -8 -16 3 -8 2 -12 -4 -9 -6 3 -10 1 -10 -5 0 -6 -4 -8
-10 -5 -5 3 -10 2 -10 -4 0 -16 -68 -80 -76 -72 -4 3 -4 0 0 -7 5 -8 -1 -21
-15 -33 -12 -10 -18 -19 -14 -19 5 0 0 -7 -11 -15 -10 -8 -15 -15 -11 -15 8 0
-31 -45 -104 -121 -21 -21 -40 -36 -43 -33 -3 2 -4 1 -1 -2 2 -4 -11 -25 -30
-47 -19 -22 -35 -45 -35 -49 0 -5 -4 -6 -10 -3 -5 3 -10 1 -10 -5 0 -13 -48
-85 -78 -116 -12 -12 -18 -25 -15 -28 4 -3 1 -6 -5 -6 -6 0 -25 -22 -43 -50
-18 -27 -36 -50 -40 -50 -4 0 -6 -9 -4 -20 2 -11 0 -20 -5 -20 -5 0 -9 -8 -9
-17 -1 -38 -5 -53 -12 -53 -4 0 -7 -6 -6 -12 1 -35 -4 -49 -15 -42 -6 4 -8 3
-4 -4 3 -6 2 -14 -4 -17 -7 -4 -7 -11 -2 -18 8 -11 8 -95 -1 -179 -2 -24 0
-35 6 -31 6 4 8 0 4 -10 -5 -13 -1 -17 14 -17 13 0 19 -5 16 -13 -3 -8 3 -13
14 -13 21 0 25 12 7 19 -10 3 -10 8 1 18 9 9 11 9 7 2 -5 -8 -1 -13 9 -13 10
0 13 -5 9 -12 -6 -10 -5 -10 8 -1 8 7 19 9 23 5 5 -4 5 -2 2 4 -4 7 0 17 8 24
8 7 15 9 15 4 0 -4 5 -3 11 3 15 15 39 5 39 -15 0 -13 -3 -12 -16 4 -14 18
-15 18 -4 -4 6 -12 8 -27 5 -32 -3 -6 -4 -10 -1 -10 3 0 12 14 21 30 9 17 21
30 28 29 9 0 9 -2 -1 -6 -10 -4 -10 -8 0 -21 10 -12 10 -14 1 -8 -7 4 -13 3
-13 -2 0 -6 7 -12 15 -16 8 -3 14 -2 14 2 -3 20 2 42 10 42 5 0 7 -8 4 -18 -4
-19 22 -50 34 -39 3 4 14 2 24 -3 19 -11 20 2 4 43 -7 17 -4 19 40 21 11 1 27
5 35 10 8 5 12 6 8 1 -4 -4 -3 -17 3 -29 10 -20 10 -20 -5 -2 -12 14 -16 16
-16 5 0 -11 -2 -12 -9 0 -5 8 -11 9 -15 3 -3 -6 -2 -13 4 -17 6 -4 7 -11 4
-17 -5 -7 -1 -9 9 -5 10 3 17 2 17 -3 0 -6 5 -10 11 -10 5 0 8 4 4 9 -3 6 4 8
15 6 11 -2 20 1 20 6 0 6 5 7 12 3 8 -5 9 -2 5 11 -4 9 -2 24 4 32 7 7 9 17 5
20 -4 4 -11 1 -16 -7 -6 -8 -10 -10 -10 -4 0 7 11 19 25 28 14 9 25 12 25 6 0
-5 -5 -10 -10 -10 -7 0 -7 -7 0 -20 8 -16 8 -20 -2 -18 -7 2 -13 -6 -13 -19 0
-11 -3 -25 -7 -29 -5 -4 -8 -15 -8 -25 0 -10 -5 -21 -12 -25 -6 -4 -8 -3 -5 3
4 6 1 13 -7 16 -10 4 -12 -1 -8 -16 5 -21 4 -21 -17 2 -11 13 -21 19 -21 12 0
-7 -5 -9 -10 -6 -6 4 -7 12 -4 18 4 7 3 9 -1 4 -18 -16 -13 -47 6 -37 12 7 19
5 22 -5 4 -10 1 -12 -10 -8 -12 5 -14 3 -8 -7 6 -10 4 -12 -7 -7 -24 9 -43
-56 -25 -80 6 -9 5 -13 -2 -13 -7 0 -9 -5 -6 -10 4 -6 11 -8 16 -5 5 4 10 -3
10 -14 2 -30 3 -34 13 -50 6 -9 5 -12 -2 -7 -12 7 -11 -32 3 -53 5 -9 4 -12
-2 -8 -16 10 -24 -18 -10 -33 9 -10 9 -11 0 -6 -8 4 -21 -7 -35 -28 -13 -19
-33 -41 -45 -47 -12 -7 -20 -16 -17 -21 3 -4 -5 -8 -18 -8 -16 0 -19 -3 -10
-9 11 -7 11 -11 -2 -24 -9 -8 -17 -24 -19 -34 -1 -10 -6 -24 -10 -30 -5 -8 -3
-13 5 -13 9 0 9 -3 2 -8 -13 -9 -27 -45 -14 -37 5 3 8 -3 7 -14 0 -11 -4 -18
-8 -15 -4 2 -9 0 -11 -6 -2 -8 -27 -16 -60 -19 -12 -2 -87 -79 -82 -84 3 -3
-3 -8 -14 -11 -10 -4 -25 -18 -32 -31 -7 -14 -20 -25 -27 -25 -8 0 -12 -4 -8
-9 3 -6 -4 -15 -15 -21 -11 -6 -18 -15 -15 -19 3 -5 -2 -12 -11 -15 -8 -3 -13
-10 -9 -15 3 -5 -3 -12 -14 -16 -11 -3 -22 -12 -25 -20 -3 -8 -12 -15 -21 -15
-8 0 -15 -5 -15 -11 0 -5 -5 -7 -10 -4 -6 3 -12 0 -15 -7 -5 -13 -78 -18 -90
-6 -10 9 -36 -2 -29 -13 3 -5 -2 -6 -10 -3 -9 3 -16 10 -16 15 0 5 -10 5 -24
0 -17 -7 -28 -5 -41 7 -10 9 -15 12 -12 6 3 -6 0 -11 -8 -11 -8 0 -12 4 -10 8
3 4 -2 9 -10 13 -8 3 -15 1 -15 -5 0 -6 -7 -3 -16 6 -9 9 -22 14 -30 11 -7 -3
-15 0 -18 7 -2 7 -5 8 -5 2 -1 -5 -20 -9 -43 -7 -24 1 -56 3 -72 3 -16 0 -37
4 -46 9 -10 5 -20 6 -24 3 -4 -4 -83 -8 -176 -9 -148 -1 -173 -4 -208 -22 -27
-14 -43 -17 -55 -10 -12 6 -17 5 -17 -4 0 -9 -3 -9 -10 2 -7 11 -10 11 -10 2
0 -7 -5 -10 -10 -7 -17 11 -71 -5 -63 -18 5 -9 3 -9 -8 0 -9 7 -20 8 -28 3 -8
-4 -21 -6 -29 -2 -11 4 -13 2 -7 -9 7 -12 6 -12 -7 -1 -12 9 -18 10 -23 2 -5
-8 -10 -8 -20 0 -8 7 -15 7 -19 1 -4 -5 -18 -8 -32 -5 -17 3 -23 1 -19 -7 6
-8 2 -8 -14 0 -11 7 -21 8 -21 4 0 -4 -5 -1 -10 7 -5 8 -10 10 -10 4 0 -6 -20
-11 -45 -11 -25 0 -45 3 -45 8 0 4 -9 6 -20 4 -11 -2 -20 -1 -20 4 0 4 -15 7
-32 8 -54 1 -59 3 -54 11 3 5 -15 8 -39 7 -25 -1 -45 1 -45 4 0 4 -9 7 -20 7
-11 0 -20 -5 -20 -11 0 -5 -5 -3 -10 5 -5 8 -10 11 -10 6 0 -5 -10 -1 -22 10
-12 10 -18 13 -14 7 4 -8 1 -13 -8 -13 -9 0 -16 5 -16 11 0 8 -5 8 -15 -1 -12
-10 -15 -10 -15 0 0 9 -4 9 -17 -1 -11 -10 -14 -10 -9 -1 7 12 1 14 -41 15
-13 0 -23 4 -23 9 0 5 -4 7 -9 4 -5 -4 -12 0 -14 6 -3 7 -6 4 -7 -7 l-1 -20
-9 20 c-5 11 -9 14 -9 7 -1 -9 -8 -8 -28 5 -20 13 -28 14 -31 5 -3 -10 -7 -10
-18 -1 -11 9 -18 9 -29 -1 -17 -14 -21 0 -5 16 6 6 2 10 -12 11 -13 1 -27 8
-33 16 -5 8 -16 12 -24 9 -8 -3 -11 0 -7 7 5 7 -1 11 -14 11 -12 0 -19 4 -16
9 3 5 -1 12 -10 15 -9 3 -12 2 -8 -5 7 -12 -37 11 -49 26 -6 6 -10 5 -14 -3
-4 -10 -8 -10 -19 -1 -11 9 -14 8 -14 -2 -1 -10 -4 -8 -11 4 -12 20 -41 23
-33 3 3 -8 1 -17 -4 -20 -5 -3 -8 7 -6 23 2 21 -1 28 -14 28 -36 0 -43 3 -36
16 5 8 2 8 -9 -2 -12 -9 -17 -10 -17 -2 0 7 -4 9 -10 6 -5 -3 -10 1 -10 9 0 9
-9 16 -20 16 -11 0 -20 5 -20 11 0 5 -4 8 -8 5 -5 -3 -20 1 -35 9 -15 8 -27
11 -27 7 0 -3 -5 -1 -11 5 -6 6 -18 9 -25 6 -8 -3 -14 0 -14 6 0 6 -7 8 -17 4
-12 -5 -14 -3 -8 7 5 9 0 8 -15 -3 -14 -9 -28 -13 -34 -8 -6 4 -21 11 -33 14
-21 5 -22 3 -11 -16 10 -20 10 -21 -5 -8 -15 11 -17 11 -17 -2 0 -9 -4 -19
-10 -22 -6 -4 -7 1 -4 12 5 14 4 15 -4 4 -6 -8 -15 -10 -23 -6 -7 5 -4 -4 7
-18 10 -15 24 -27 29 -27 10 0 -15 -20 -26 -20 -4 0 -10 7 -13 16 -4 9 -2 13
5 8 7 -4 10 -1 7 7 -3 8 -11 13 -17 12 -6 -2 -11 1 -11 6 0 4 -10 7 -23 7 -12
-1 -28 2 -34 7 -9 6 -15 4 -19 -7 -6 -15 -8 -15 -21 1 -8 10 -12 13 -9 6 4 -6
2 -14 -4 -18 -5 -3 -10 0 -10 7 0 8 -12 13 -32 12 -18 0 -38 3 -44 8 -7 5 -17
1 -25 -9 -13 -15 -12 -16 10 -10 17 4 21 3 13 -5 -16 -16 -43 -2 -35 19 6 16
5 16 -10 4 -13 -10 -17 -10 -17 -1 0 8 -7 10 -17 5 -37 -14 -55 -15 -49 0 3 9
0 12 -9 8 -8 -3 -12 -9 -9 -14 11 -18 -8 -8 -27 14 l-20 22 12 -25 c12 -25 12
-25 -9 -7 -19 17 -21 17 -30 1 -9 -16 -10 -16 -16 3 -5 15 -51 27 -51 13 0 -7
-36 -6 -41 1 -3 6 -12 5 -21 -3 -9 -7 -17 -13 -17 -12 -26 22 -47 23 -54 3 -7
-19 -10 -20 -15 -6 -4 10 -13 14 -22 11 -8 -3 -12 -11 -8 -18 4 -6 -2 -4 -12
4 -14 12 -19 12 -23 2 -3 -10 -7 -10 -18 -1 -11 9 -14 9 -14 -1 0 -9 -3 -10
-13 -1 -8 6 -16 9 -18 7 -10 -10 -59 -14 -59 -5 0 6 -6 7 -12 2 -20 -12 -38
-12 -38 -1 0 6 -6 5 -15 -2 -12 -10 -15 -10 -15 0 0 10 -3 10 -15 0 -12 -10
-15 -10 -15 0 0 10 -3 10 -15 0 -8 -7 -15 -9 -15 -5 0 5 -9 0 -21 -11 -15 -14
-20 -15 -17 -4 2 11 -5 14 -27 13 -16 -1 -33 3 -37 10 -5 8 -8 8 -8 1 0 -7
-16 -11 -39 -10 -22 1 -38 -1 -35 -5 2 -4 0 -10 -6 -14 -5 -3 -10 0 -10 7 0 9
-3 9 -10 -2 -5 -8 -10 -10 -10 -4 0 11 -46 11 -57 0 -3 -3 -13 -1 -23 4 -10 5
-20 6 -24 3 -4 -4 -19 -9 -34 -10 -15 -2 -33 -4 -39 -5 -7 -1 -13 -6 -13 -12
0 -6 -4 -6 -12 2 -8 8 -17 8 -31 0 -15 -7 -22 -7 -28 3 -6 11 -9 9 -15 -5 -5
-14 -9 -15 -15 -4 -6 9 -9 10 -9 1 0 -8 -11 -11 -30 -9 -16 2 -30 0 -30 -5 0
-5 -11 -4 -24 1 -28 10 -37 5 -29 -18 4 -12 1 -11 -10 3 -9 11 -17 15 -17 8 0
-6 -11 -10 -25 -9 -13 2 -22 -1 -19 -5 7 -12 -3 -11 -28 2 -15 8 -19 8 -13 -1
5 -8 1 -7 -13 1 -18 11 -24 10 -39 -3 -13 -12 -23 -14 -33 -8 -8 5 -19 10 -25
10 -5 0 -4 -4 3 -9 10 -6 9 -10 -7 -14 -13 -3 -19 -1 -14 5 4 7 1 8 -8 3 -17
-11 -59 -16 -59 -7 0 4 -21 7 -47 7 -80 1 -133 8 -133 18 0 5 -5 5 -12 -1 -7
-5 -22 -6 -33 -2 -11 4 -30 4 -42 -1 -14 -5 -23 -4 -27 4 -2 7 -5 5 -5 -5 -1
-11 -8 -15 -26 -14 -13 2 -22 -1 -19 -5 3 -5 -7 -9 -21 -9 -17 0 -24 -4 -19
-11 5 -8 2 -9 -11 -2 -10 6 -32 7 -53 2 -20 -4 -40 -6 -44 -3 -4 3 -8 0 -8 -7
0 -7 -3 -10 -6 -6 -3 3 -28 -8 -56 -24 -27 -16 -47 -25 -43 -19 3 5 1 10 -4
10 -6 0 -11 -4 -11 -10 0 -5 -11 -12 -25 -16 -14 -3 -22 -10 -19 -15 3 -5 -2
-9 -11 -9 -9 0 -13 -5 -10 -10 4 -6 2 -17 -4 -24 -8 -10 -6 -19 9 -36 23 -27
26 -38 6 -21 -10 9 -13 7 -13 -6 0 -34 -3 -44 -11 -39 -5 3 -6 -8 -4 -25 2
-16 9 -29 14 -29 5 0 6 -4 3 -10 -3 -6 1 -7 9 -4 11 4 16 0 16 -10 0 -9 -5
-16 -11 -16 -5 0 -7 -5 -4 -10 4 -6 10 -8 14 -6 4 3 7 -8 6 -24 0 -15 -3 -26
-7 -24 -4 2 -7 -8 -7 -23 -1 -52 -6 -78 -16 -85 -6 -4 -2 -8 8 -8 16 0 22 -12
18 -34 -1 -5 5 -6 12 -3 8 3 20 0 27 -6 8 -7 10 -7 7 -1 -4 7 5 11 23 11 16 0
26 -5 23 -10 -3 -5 0 -8 8 -5 8 3 20 -2 28 -9 11 -12 16 -12 23 -1 7 9 8 7 5
-9 -3 -15 -1 -20 8 -17 7 3 11 15 9 27 -4 21 -4 21 5 2 4 -11 7 -23 4 -28 -2
-4 3 -14 11 -23 12 -12 16 -12 17 -2 0 7 4 4 9 -7 5 -11 9 -14 11 -7 7 50 19
62 55 57 23 -3 32 -1 28 6 -4 7 3 6 17 -1 29 -15 40 -25 19 -18 -21 7 -63 -10
-55 -22 4 -7 13 -7 26 0 10 6 19 7 18 3 -5 -29 3 -33 22 -9 11 14 26 26 32 25
8 0 8 -2 -1 -6 -20 -8 -34 -41 -20 -49 7 -5 8 -3 3 6 -6 10 -4 12 8 7 9 -3 19
-2 22 3 11 17 25 11 18 -7 -4 -12 1 -9 16 7 l22 25 -7 -25 -7 -25 23 25 c14
16 20 19 16 8 -3 -12 -1 -15 9 -11 8 3 12 9 9 14 -3 5 0 9 5 9 6 0 11 -4 11
-10 0 -5 4 -10 10 -10 6 0 6 10 -1 28 l-10 27 21 -22 c24 -27 32 -29 24 -8 -5
11 -2 13 11 9 11 -5 21 -1 27 10 5 9 13 14 19 11 5 -3 17 -1 26 5 16 10 16 11
-2 5 -28 -9 -7 8 28 23 22 10 27 9 21 0 -4 -7 7 -2 24 11 18 12 32 19 32 15 0
-3 6 -2 13 5 10 8 17 7 27 -2 10 -9 11 -9 6 1 -4 6 -2 12 4 12 6 0 9 4 6 8 -3
5 13 8 34 6 22 -1 38 1 35 6 -3 5 3 7 12 5 10 -1 33 4 51 11 24 10 31 10 25 1
-4 -7 0 -7 10 2 14 11 20 11 32 1 13 -11 14 -10 10 2 -4 11 1 15 17 15 49 -1
69 3 63 13 -3 6 1 7 9 4 9 -3 13 -11 10 -18 -3 -6 1 -3 9 7 11 14 16 15 20 5
4 -10 7 -10 15 1 8 11 11 10 15 -5 4 -18 5 -18 6 0 1 12 6 16 16 12 8 -3 15 0
15 6 0 7 7 3 16 -8 8 -10 13 -13 9 -6 -3 6 -3 12 2 13 60 6 73 6 69 0 -3 -4 6
-7 19 -7 16 0 21 4 17 15 -5 13 -2 13 21 -2 22 -14 25 -14 21 -2 -6 15 10 13
40 -3 14 -8 86 -10 82 -3 -3 4 4 7 15 7 12 0 18 -5 14 -14 -2 -7 -1 -11 3 -8
20 12 62 14 62 3 0 -7 4 -6 10 3 8 12 10 12 11 -5 0 -11 3 -14 6 -7 2 6 9 12
14 12 6 0 7 -6 4 -12 -4 -7 0 -5 8 4 13 17 15 16 26 -5 9 -18 10 -18 6 -2 -5
15 -3 17 6 8 6 -6 18 -9 27 -6 10 4 13 2 8 -5 -4 -7 -2 -12 3 -12 6 0 11 5 11
11 0 8 6 7 17 -2 15 -12 16 -12 8 1 -7 12 -6 13 7 3 8 -7 18 -10 21 -6 4 3 7
1 7 -6 0 -7 8 -11 18 -10 29 3 43 -1 38 -9 -3 -5 1 -9 9 -9 8 0 12 4 9 9 -8
13 10 10 25 -4 11 -11 12 -10 6 0 -6 11 -3 11 14 3 12 -6 30 -16 41 -21 11 -6
20 -6 20 -2 0 5 7 9 15 9 8 0 12 -4 9 -9 -3 -4 8 -8 25 -8 18 0 34 -7 40 -17
10 -17 10 -17 11 0 0 15 2 16 14 5 8 -7 11 -17 8 -23 -2 -5 1 -4 9 3 15 14 33
17 25 4 -6 -11 25 -9 43 3 10 5 12 4 7 -3 -5 -8 0 -12 13 -12 12 0 21 -4 21
-10 0 -5 7 -10 16 -10 9 0 13 5 9 13 -4 6 0 4 8 -5 7 -9 22 -17 33 -17 33 1
78 -12 86 -24 6 -9 8 -9 8 1 0 10 4 10 16 -2 17 -18 28 -21 19 -6 -3 6 1 7 9
4 9 -3 16 -10 16 -15 0 -11 23 -7 32 6 5 6 8 5 8 -4 0 -8 6 -11 15 -7 9 3 18
-1 22 -10 5 -13 7 -13 14 -2 6 10 9 8 9 -7 0 -17 2 -17 10 -5 8 13 10 12 10
-2 0 -10 5 -18 11 -18 5 0 7 5 3 12 -5 7 -3 8 5 4 7 -5 27 -10 44 -13 18 -3
35 -10 39 -16 5 -8 8 -7 8 3 0 12 2 13 9 1 5 -8 14 -10 21 -6 8 5 11 4 7 -2
-4 -6 0 -14 9 -17 8 -3 13 -2 10 3 -4 5 3 7 14 4 11 -3 17 -10 13 -17 -4 -6 1
-5 10 3 11 9 17 10 17 2 0 -6 5 -11 11 -11 5 0 7 5 3 11 -8 14 59 -20 68 -35
5 -6 8 -7 8 -1 0 6 4 4 9 -3 9 -16 61 -24 61 -10 0 5 5 6 10 3 6 -4 7 -11 4
-17 -5 -7 -2 -8 7 -2 21 13 51 16 44 4 -4 -6 1 -7 10 -3 10 3 20 1 24 -5 4 -7
19 -13 33 -14 15 -1 25 -5 23 -8 -1 -3 3 -11 11 -18 9 -8 14 -9 14 -2 0 6 5 8
11 5 6 -4 8 -13 5 -21 -3 -8 -2 -13 2 -13 25 4 42 -3 42 -18 0 -15 2 -16 10
-3 10 15 15 4 11 -22 0 -4 6 -5 14 -2 8 4 15 1 15 -6 0 -9 4 -9 13 -2 10 8 16
6 25 -9 10 -16 16 -18 27 -9 10 8 15 8 20 -1 6 -8 10 -7 16 2 7 11 9 11 9 1 0
-7 4 -11 9 -8 5 3 11 0 14 -7 3 -8 18 -12 36 -11 17 1 34 -3 38 -9 4 -6 1 -7
-7 -2 -9 5 -11 4 -6 -4 6 -9 11 -9 24 1 13 11 14 11 7 -1 -6 -11 -4 -13 8 -8
9 3 17 1 19 -5 2 -6 17 -12 33 -14 15 -2 32 -8 36 -15 4 -7 22 -12 40 -11 19
0 37 -5 41 -11 6 -9 8 -9 8 1 0 14 46 16 55 2 3 -6 12 -10 18 -10 7 0 6 4 -3
11 -18 12 41 6 61 -7 8 -5 10 -2 6 8 -4 12 -1 14 14 11 10 -3 19 -10 19 -17 0
-6 5 -3 10 6 8 13 17 15 40 8 17 -5 30 -5 30 0 0 5 6 7 13 5 27 -10 77 -12 77
-2 0 6 5 6 13 0 6 -5 29 -9 50 -8 20 0 37 -4 37 -10 0 -5 4 -4 9 3 6 11 10 10
15 -3 4 -12 10 -14 19 -8 6 6 24 9 40 8 15 -1 27 2 27 6 0 5 7 5 17 2 12 -5
14 -3 8 8 -8 12 -6 12 8 0 14 -11 18 -11 23 2 3 8 13 14 22 12 9 -1 20 3 24 9
5 8 8 7 8 -2 0 -7 5 -10 10 -7 6 4 7 12 3 18 -5 9 -3 9 8 1 16 -12 29 -12 47
-1 7 5 12 3 12 -3 0 -7 8 -9 20 -5 15 5 20 2 20 -12 0 -15 2 -16 10 -3 9 13
11 13 20 0 8 -13 10 -12 11 5 0 11 3 14 6 7 2 -6 9 -9 15 -6 6 4 14 0 19 -7 6
-11 9 -10 14 4 6 13 11 15 27 6 12 -7 18 -7 14 -1 -3 5 1 12 8 15 8 3 16 1 18
-4 2 -6 11 -7 21 -4 9 4 14 11 11 16 -3 5 2 6 10 3 9 -3 13 -11 10 -18 -3 -6
1 -3 10 7 10 13 21 17 37 12 12 -4 19 -3 16 2 -3 5 3 10 14 10 12 1 17 -3 13
-10 -3 -7 0 -5 8 3 14 17 27 19 45 7 9 -6 11 -3 7 7 -3 9 -1 16 5 16 6 0 11
-5 11 -11 0 -5 4 -7 10 -4 18 11 123 15 136 4 8 -7 16 -6 25 3 8 7 25 13 39
14 14 0 24 5 22 12 -2 10 3 10 18 2 15 -8 20 -8 20 1 0 7 3 10 6 6 3 -3 16 -2
29 3 14 5 26 5 33 -2 6 -6 12 -6 17 3 5 8 4 10 -3 5 -7 -4 -12 -2 -12 3 0 14
13 14 28 -1 9 -9 12 -9 12 1 0 11 3 11 15 1 9 -7 15 -8 15 -2 0 6 8 9 18 7 9
-1 22 2 29 7 7 6 14 5 18 -2 5 -8 14 -5 27 9 11 13 24 18 31 14 21 -13 36 -11
30 3 -4 10 0 12 13 7 12 -4 15 -3 10 5 -4 7 -3 12 3 12 5 0 11 -6 14 -12 4
-10 7 -10 18 0 7 6 21 12 31 12 10 0 18 6 18 13 0 8 3 8 9 -2 7 -11 14 -10 40
8 17 12 36 19 42 15 7 -4 9 -3 6 3 -4 6 0 14 9 17 10 4 13 2 8 -6 -4 -7 -3 -8
4 -4 7 4 12 15 13 24 0 10 3 12 6 5 3 -10 7 -10 18 0 7 7 11 15 8 20 -2 4 -1
7 4 6 25 -4 43 2 37 13 -5 8 -2 9 9 5 19 -7 23 9 5 17 -7 3 -1 3 15 1 15 -2
27 1 27 6 0 6 5 7 10 4 6 -3 10 1 10 9 0 17 20 17 33 1 5 -6 6 -2 3 8 -4 11 0
20 12 24 9 4 20 10 23 15 3 5 15 10 26 11 11 0 20 8 19 17 -1 9 6 14 17 13 10
0 16 2 13 5 -9 9 15 32 27 25 6 -4 7 -1 3 6 -8 13 23 43 36 35 4 -3 5 4 3 16
-2 11 1 23 7 26 7 5 8 2 3 -7 -5 -8 4 -2 19 13 16 15 33 25 40 21 6 -4 4 2 -4
12 -9 11 -10 16 -2 11 7 -4 12 -2 12 4 0 7 7 10 14 7 11 -4 13 -1 9 10 -5 13
-2 15 11 10 10 -4 15 -3 11 4 -8 12 14 41 26 33 5 -3 6 2 3 10 -4 11 0 16 11
16 12 0 15 5 11 16 -5 13 -2 15 14 11 17 -4 19 -3 9 9 -9 11 -9 14 0 14 7 0 9
5 5 12 -4 7 -3 8 4 4 7 -4 12 -2 12 5 0 7 8 9 21 6 17 -4 19 -3 10 6 -16 16
-14 23 10 24 18 2 19 0 7 -14 -7 -9 -12 -18 -10 -20 7 -10 0 -22 -12 -17 -8 3
-17 0 -22 -7 -4 -8 -3 -10 4 -5 7 4 12 2 12 -3 0 -6 -5 -11 -11 -11 -5 0 -7
-4 -4 -10 3 -5 0 -10 -7 -10 -9 0 -9 -3 2 -10 9 -6 10 -10 3 -10 -7 0 -17 -10
-24 -21 -8 -15 -8 -19 0 -15 6 4 11 2 11 -3 0 -6 -7 -11 -16 -11 -8 0 -12 -4
-9 -10 3 -5 1 -10 -4 -10 -6 0 -10 -3 -10 -7 3 -21 -2 -33 -13 -27 -6 4 -8 3
-4 -4 3 -6 -3 -27 -14 -46 -13 -25 -16 -36 -7 -36 8 0 7 -4 -3 -10 -12 -8 -12
-10 -1 -10 9 0 6 -7 -9 -20 -13 -11 -18 -20 -11 -20 8 0 9 -5 2 -19 -6 -10 -7
-21 -4 -25 3 -3 1 -6 -6 -6 -7 0 -11 -8 -10 -17 3 -34 -1 -44 -13 -37 -10 6
-10 4 0 -8 10 -13 10 -19 -3 -31 -11 -12 -12 -17 -2 -20 9 -4 9 -6 -1 -6 -10
-1 -10 -6 -1 -22 8 -15 8 -19 0 -15 -6 4 -11 3 -11 -3 0 -5 4 -12 10 -16 6 -4
6 -15 0 -30 -8 -21 -6 -25 8 -26 14 0 14 -2 -3 -9 -11 -5 -14 -9 -6 -9 11 -1
11 -4 0 -18 -8 -10 -9 -14 -2 -10 8 5 11 -2 11 -22 -1 -19 -5 -28 -12 -24 -8
5 -8 3 0 -8 6 -8 11 -27 13 -44 7 -87 6 -95 -8 -95 -11 0 -10 -4 5 -15 14 -11
15 -14 4 -15 -13 0 -13 -1 0 -10 8 -5 11 -10 5 -10 -12 0 -13 -79 -1 -98 4 -7
2 -12 -5 -12 -8 0 -9 -4 0 -13 8 -10 7 -17 -2 -27 -9 -10 -9 -11 1 -6 6 4 12
2 12 -3 0 -6 -5 -11 -11 -11 -8 0 -8 -5 1 -15 7 -8 8 -15 4 -15 -5 0 -10 -15
-11 -32 -1 -18 -4 -48 -6 -66 -2 -18 0 -35 5 -38 5 -3 6 -10 2 -15 -3 -5 -10
-6 -16 -3 -6 4 -6 -2 1 -15 7 -11 8 -21 3 -21 -4 0 -8 -10 -9 -22 0 -13 -2
-56 -4 -95 -1 -40 -6 -73 -10 -73 -5 0 -5 -7 -2 -17 5 -12 3 -14 -8 -8 -11 7
-12 6 -4 -6 6 -8 11 -36 10 -64 0 -27 3 -52 6 -55 6 -5 16 -75 21 -157 2 -17
6 -29 10 -27 7 4 10 -18 7 -42 0 -4 5 -10 12 -15 10 -6 10 -11 0 -22 -8 -10
-9 -17 -1 -22 5 -3 10 -15 10 -26 0 -10 6 -19 13 -19 7 0 8 -3 2 -8 -14 -10
-17 -32 -5 -32 5 0 7 -7 4 -15 -4 -9 0 -15 7 -15 9 0 10 -3 4 -8 -14 -10 -17
-32 -4 -32 5 0 8 -4 4 -9 -3 -5 -2 -12 2 -14 5 -3 8 -26 8 -51 0 -36 3 -45 14
-41 12 5 12 3 1 -11 -12 -13 -11 -17 1 -25 12 -7 12 -9 0 -9 -12 0 -12 -3 -3
-12 7 -7 12 -20 12 -29 0 -10 6 -20 13 -22 9 -4 9 -6 -1 -6 -10 -1 -10 -4 0
-15 7 -8 17 -12 21 -9 5 3 4 -3 -2 -14 -7 -14 -7 -23 1 -31 7 -7 8 -12 4 -12
-5 0 -2 -8 5 -17 9 -11 10 -14 2 -9 -9 5 -11 2 -7 -8 3 -9 11 -13 16 -10 6 4
4 -4 -2 -17 -10 -17 -10 -24 -1 -27 6 -2 11 -17 11 -32 0 -16 4 -31 9 -35 6
-3 10 -13 10 -23 2 -43 6 -62 12 -62 3 0 5 -12 3 -27 -1 -15 2 -33 7 -39 5 -7
9 -16 7 -20 -1 -5 4 -20 11 -33 11 -19 11 -22 -1 -15 -10 6 -11 5 -1 -8 7 -8
10 -18 6 -21 -3 -4 -1 -7 6 -7 6 0 11 -6 10 -13 -4 -32 2 -58 12 -51 8 4 8 0
0 -15 -7 -13 -8 -21 -2 -21 6 0 7 -7 4 -17 -4 -10 -2 -14 4 -10 7 5 9 0 6 -13
-3 -11 -1 -20 4 -20 5 0 10 -16 11 -36 1 -20 7 -43 13 -50 6 -8 8 -14 4 -14
-4 0 -2 -7 5 -16 8 -8 9 -14 4 -13 -22 4 -25 -2 -7 -19 10 -9 13 -13 7 -9 -9
6 -11 2 -7 -12 3 -12 9 -18 14 -15 13 8 11 -10 -3 -24 -9 -9 -9 -12 3 -12 12
0 12 -2 -1 -10 -8 -5 -10 -10 -3 -10 6 0 11 -16 11 -36 0 -20 6 -40 14 -45 10
-7 10 -9 -2 -9 -12 0 -12 -2 -1 -9 9 -6 10 -10 2 -16 -9 -5 -9 -10 0 -21 6 -7
8 -21 5 -30 -5 -12 -2 -15 10 -10 14 5 15 4 5 -8 -19 -23 -4 -59 19 -46 23 12
38 -6 21 -23 -9 -9 -11 -8 -5 6 6 16 4 16 -20 6 -15 -7 -23 -15 -18 -18 5 -3
9 -17 9 -31 0 -23 15 -68 30 -94 4 -6 -2 -4 -12 4 -19 15 -19 14 -2 -12 13
-20 14 -28 5 -29 -7 0 -4 -4 7 -9 18 -8 18 -9 2 -9 -10 -1 -15 -6 -12 -11 4
-6 12 -7 18 -3 7 4 6 0 -2 -10 -11 -14 -11 -17 0 -17 12 0 11 -2 0 -9 -11 -7
-7 -10 15 -13 18 -2 28 -8 26 -17 -2 -8 3 -11 12 -8 9 4 18 2 21 -4 4 -5 3 -9
-2 -8 -20 3 -34 -2 -28 -11 3 -6 1 -10 -5 -10 -6 0 -8 11 -6 25 4 20 1 25 -16
25 -12 0 -18 -3 -15 -7 4 -3 1 -13 -6 -21 -7 -10 -8 -13 -1 -9 8 5 11 -10 10
-51 -1 -40 3 -61 14 -70 13 -10 13 -11 0 -7 -11 4 -15 -3 -16 -25 -1 -16 3
-27 8 -23 6 3 5 -4 -1 -15 -8 -15 -8 -22 2 -25 9 -4 9 -6 0 -6 -7 -1 -10 -8
-6 -18 5 -12 3 -14 -8 -8 -11 6 -12 5 -1 -6 6 -7 12 -17 12 -22 0 -4 -6 -5
-12 -1 -8 5 -7 0 2 -11 11 -14 11 -17 1 -11 -10 7 -12 3 -6 -13 4 -14 2 -21
-6 -21 -10 0 -10 -3 -2 -11 6 -6 9 -18 6 -27 -5 -11 -3 -13 8 -7 11 7 11 5 -1
-10 -11 -14 -11 -17 -1 -11 10 7 12 4 7 -12 -4 -12 -2 -23 5 -28 7 -4 9 -3 5
4 -9 16 14 26 27 13 9 -9 7 -10 -8 -5 -11 4 -17 4 -13 -1 4 -4 2 -15 -4 -23
-10 -11 -8 -18 9 -32 16 -13 19 -20 10 -29 -8 -8 -8 -11 0 -11 7 0 15 4 18 10
3 5 12 10 18 9 9 0 9 -2 0 -6 -7 -2 -13 -9 -13 -14 0 -6 5 -7 12 -3 7 4 8 3 4
-4 -4 -6 -13 -9 -21 -5 -8 3 -15 0 -15 -5 0 -6 12 -9 26 -6 14 3 23 1 20 -4
-3 -5 1 -9 9 -9 8 0 13 3 11 6 -1 3 11 20 27 36 16 17 27 26 24 20 -3 -5 8
-10 23 -11 22 -1 27 3 23 15 -4 14 -3 14 5 1 8 -10 8 -18 0 -27 -8 -11 -7 -12
7 -7 12 5 16 4 11 -4 -9 -15 34 -7 48 9 8 9 8 10 0 6 -7 -4 -14 0 -17 8 -4 9
-1 12 8 9 10 -4 12 0 8 14 -3 14 -11 19 -25 17 -12 -3 -17 -1 -14 3 4 4 12 7
18 7 6 0 12 8 14 18 1 9 -2 17 -7 17 -5 0 -9 5 -9 11 0 5 5 7 10 4 6 -3 10 0
10 7 0 7 7 0 15 -16 11 -21 12 -32 4 -42 -13 -16 2 -46 18 -36 7 4 15 22 18
41 3 21 2 30 -5 26 -6 -3 -7 0 -4 9 5 14 8 14 21 1 8 -8 20 -15 26 -14 9 0 8
2 0 6 -7 2 -12 14 -12 26 1 17 2 18 6 5 5 -20 18 -23 28 -8 3 6 12 10 18 10 8
0 7 -4 -2 -9 -14 -9 -18 -18 -23 -56 -2 -13 2 -19 12 -17 8 2 11 0 7 -5 -5 -4
-13 -8 -18 -8 -24 0 0 -20 26 -22 25 -2 27 -1 10 7 -19 8 -19 9 3 9 13 1 20 5
17 11 -4 6 -11 7 -17 4 -7 -4 -8 -2 -4 4 5 9 13 9 29 0 19 -10 20 -9 9 4 -10
13 -9 15 12 13 22 -3 24 -1 16 21 -6 15 -5 26 2 30 7 5 8 3 3 -6 -5 -8 -3 -11
6 -8 8 3 13 11 11 17 -1 6 6 11 15 11 11 0 14 3 7 8 -6 4 -10 19 -10 34 1 21
-1 25 -12 16 -10 -9 -12 -8 -10 3 2 8 8 17 13 21 6 5 6 8 -1 8 -7 0 -14 7 -17
14 -4 11 -1 13 11 10 15 -5 15 -4 0 6 -10 6 -18 18 -18 27 0 14 -2 14 -15 -3
-14 -18 -14 -17 -3 9 10 23 9 30 -3 38 -12 7 -12 9 1 9 13 0 13 2 1 9 -8 5
-12 18 -8 30 3 11 0 19 -6 18 -9 -2 -15 22 -18 81 -1 13 -8 22 -17 22 -13 0
-12 3 4 16 10 8 15 13 9 11 -5 -3 -16 1 -23 9 -10 11 -10 14 0 14 9 0 9 3 -2
10 -13 9 -13 10 0 10 12 0 13 2 1 9 -8 6 -9 10 -2 12 7 3 6 13 -4 32 -8 16 -9
25 -3 21 8 -5 9 -1 5 10 -4 10 -7 27 -7 37 0 14 -4 18 -12 13 -9 -5 -9 -2 1 9
11 14 11 17 0 17 -11 0 -11 2 1 10 10 6 11 10 3 10 -9 0 -13 16 -13 45 0 29
-4 45 -12 45 -9 0 -8 4 2 10 12 8 12 10 1 10 -11 0 -11 3 0 16 7 9 9 18 3 22
-13 10 -17 35 -4 27 16 -10 12 6 -7 28 -10 11 -12 17 -5 13 6 -4 12 -2 12 3 0
6 -6 11 -12 11 -9 0 -8 4 2 10 14 9 7 14 -15 11 -5 -1 -2 5 8 13 13 10 15 16
7 21 -9 6 -9 10 1 16 11 7 10 9 -5 9 -15 0 -16 3 -7 14 8 10 9 16 1 21 -5 3
-10 11 -10 16 0 6 6 7 13 3 9 -6 9 -4 1 7 -10 12 -20 82 -27 184 -1 17 -6 36
-11 44 -7 11 -5 13 9 7 14 -5 15 -3 7 6 -13 17 -19 95 -7 105 4 4 5 2 1 -4
-10 -18 -1 -16 14 3 11 12 11 15 0 12 -8 -2 -16 5 -18 16 -2 10 0 16 6 12 6
-4 8 2 5 14 -3 11 -9 18 -13 15 -5 -3 -12 0 -16 6 -4 8 -3 9 5 5 8 -5 10 1 6
24 -4 24 -2 30 7 24 9 -5 8 -2 -1 10 -11 13 -12 19 -3 25 13 8 12 50 -1 48 -5
-1 -11 8 -13 21 -2 12 1 22 7 22 8 0 8 4 0 14 -9 11 -9 15 1 19 10 4 10 6 1 6
-7 1 -13 8 -13 17 0 9 5 13 13 9 6 -4 3 1 -7 9 -15 12 -16 16 -5 16 12 0 12 2
-1 10 -13 9 -13 10 0 10 12 0 13 2 1 9 -11 7 -11 9 0 14 10 4 10 6 2 6 -16 1
-17 31 -1 31 6 0 4 6 -7 13 -12 9 -14 16 -7 21 7 4 8 15 2 30 -5 15 -5 27 3
35 8 8 8 11 -1 11 -7 0 -12 5 -12 11 0 5 3 8 8 6 4 -3 8 17 9 44 1 28 -2 49
-8 49 -6 0 -6 6 0 19 6 10 7 22 3 26 -7 6 -8 10 -11 36 0 5 -5 8 -9 5 -4 -2
-9 4 -9 15 -1 11 3 17 9 13 5 -4 2 5 -7 20 -10 14 -14 26 -9 26 5 0 -1 7 -13
15 -13 9 -20 23 -18 35 3 13 -2 20 -13 20 -12 0 -13 3 -4 12 15 15 16 31 0 22
-8 -5 -9 -2 -5 9 3 10 3 17 -1 17 -10 0 -9 74 2 81 5 4 9 21 10 38 0 17 6 31
11 31 6 0 3 5 -5 10 -8 5 -11 10 -7 10 4 0 -1 10 -12 22 -14 14 -17 25 -11 33
6 7 5 16 -2 23 -9 9 -9 12 0 12 7 0 11 3 11 8 -3 19 2 43 9 39 6 -4 9 25 15
166 1 20 5 37 10 37 5 0 5 6 -2 13 -8 10 -7 17 1 25 7 7 8 12 2 12 -5 0 -10 9
-11 20 -1 13 2 18 10 13 7 -4 6 0 -2 10 -11 14 -11 17 0 17 9 0 10 3 4 8 -15
10 -16 52 -2 52 7 0 6 4 -3 10 -11 7 -11 10 -2 10 7 0 10 5 7 10 -4 6 -11 8
-16 5 -5 -3 -6 1 -3 9 3 9 10 13 15 10 5 -3 9 -1 9 5 0 5 -6 12 -12 15 -7 3 3
3 22 0 32 -5 33 -4 16 9 -11 8 -16 19 -12 25 4 7 1 12 -9 12 -9 0 -13 5 -9 11
3 6 0 15 -7 20 -9 5 -10 9 -2 9 13 0 12 18 -1 39 -7 10 -6 12 4 6 10 -6 12 -3
8 13 -3 12 -1 23 6 26 8 3 8 5 -1 5 -6 1 -9 10 -6 21 3 11 10 17 17 13 8 -4 8
-3 0 6 -9 9 -9 23 -2 49 5 19 8 48 6 63 -3 16 0 31 6 33 7 3 7 5 -1 5 -8 1 -9
10 -3 31 5 17 6 30 2 30 -4 0 -7 14 -7 30 0 17 2 30 5 30 3 0 5 22 4 50 0 27
4 50 9 50 6 0 8 3 4 6 -5 5 11 60 30 104 3 8 7 18 8 23 2 4 4 9 5 12 1 3 3 9
4 15 0 5 9 19 19 30 9 11 17 25 17 30 0 6 6 10 14 10 9 0 13 7 11 20 -2 11 1
23 7 26 7 5 8 2 3 -7 -5 -8 3 -2 18 13 18 19 24 35 21 53 -2 14 0 25 6 25 5 0
9 3 9 8 -4 21 2 32 14 26 8 -5 8 -2 -2 9 -12 15 -11 17 2 17 11 0 14 5 10 17
-4 10 -2 14 4 10 14 -9 46 40 37 55 -4 6 -3 8 3 5 6 -4 14 0 17 9 3 9 11 12
18 8 10 -6 10 -5 1 7 -11 13 -8 18 15 30 15 8 31 20 35 27 5 7 14 9 20 5 7 -4
5 2 -3 13 -8 10 -11 16 -6 12 5 -4 17 -3 27 2 12 7 20 6 24 -1 4 -6 13 -8 21
-5 8 3 14 0 14 -7 0 -8 4 -7 10 3 9 13 11 13 20 0 8 -11 9 -9 6 12 -3 15 -2
27 2 26 15 -3 42 15 42 28 0 8 6 14 13 14 8 0 7 4 -3 10 -13 8 -12 10 3 10 10
0 17 8 17 20 0 14 5 18 17 13 11 -4 14 -3 9 5 -5 8 1 12 18 12 14 0 26 -5 26
-11 0 -5 6 -7 13 -3 9 6 9 4 1 -7 -12 -15 -11 -46 2 -57 4 -4 4 2 0 13 -4 13
9 4 38 -24 26 -26 42 -49 39 -58 -3 -8 0 -13 8 -11 8 2 13 -3 11 -10 -1 -6 1
-11 5 -11 20 3 26 -2 13 -11 -11 -8 -7 -9 15 -4 l30 7 -20 -23 c-12 -14 -14
-20 -5 -15 27 16 43 15 29 -1 -10 -12 -9 -13 6 -8 13 5 16 4 11 -5 -6 -9 -3
-9 13 1 12 7 21 16 21 20 0 5 4 8 10 8 5 0 7 -8 4 -17 -5 -15 -4 -16 5 -3 6 8
11 11 11 7 0 -4 9 -3 21 3 11 7 18 14 15 17 -3 3 -12 1 -19 -5 -10 -9 -14 -8
-14 3 0 8 4 12 9 9 4 -3 8 0 8 7 0 10 3 10 12 1 9 -9 16 -8 32 6 20 16 20 16
6 -2 -14 -17 -13 -18 8 -12 24 8 29 -3 10 -22 -9 -9 -15 -7 -25 6 -13 15 -13
14 -3 -6 6 -12 15 -20 20 -17 5 3 14 -3 20 -12 11 -17 11 -17 6 0 -7 21 -8 21
44 2 28 -10 47 -12 54 -6 7 6 18 6 25 2 10 -7 9 -10 -8 -16 -13 -4 -18 -11
-14 -18 5 -8 2 -8 -8 0 -13 10 -16 10 -16 -2 0 -8 3 -15 6 -15 5 0 7 -68 2
-80 -9 -20 -5 -53 6 -57 8 -3 12 -11 10 -17 -5 -13 18 -38 27 -29 3 4 6 -6 6
-20 0 -15 3 -26 8 -25 4 2 8 -1 10 -7 2 -5 10 -13 17 -18 7 -4 19 -24 26 -45
6 -20 20 -45 30 -54 20 -20 34 -24 23 -7 -4 8 0 8 15 0 12 -7 26 -9 31 -6 5 3
11 1 14 -4 3 -5 15 -7 26 -4 12 3 20 0 20 -6 0 -7 -5 -9 -12 -5 -6 4 -8 3 -4
-4 3 -5 0 -13 -6 -15 -9 -4 -9 -6 -1 -6 6 -1 18 5 25 12 17 15 38 20 38 8 0
-6 9 -8 20 -6 11 2 18 0 15 -6 -4 -5 -1 -9 4 -9 6 0 11 6 11 13 0 7 3 8 8 2 4
-5 27 -11 52 -13 79 -5 90 -7 90 -15 0 -5 5 -5 10 -2 6 3 10 1 10 -6 0 -8 4
-8 15 1 12 10 15 10 15 -1 0 -9 3 -10 11 -2 8 8 20 6 42 -5 35 -18 69 -23 61
-10 -3 4 0 8 5 8 6 0 11 -6 11 -12 0 -9 4 -8 10 2 5 8 10 10 10 4 0 -7 9 -14
20 -17 11 -3 18 -2 15 2 -2 4 2 8 9 8 9 0 12 -7 9 -16 -5 -13 -3 -14 8 -3 16
14 33 16 24 2 -3 -5 -1 -10 4 -10 6 0 11 6 11 13 0 9 2 9 9 -1 9 -15 20 -15
39 0 8 7 12 7 12 -1 0 -6 5 -11 11 -11 5 0 7 5 4 11 -5 7 3 9 24 6 17 -3 31
-1 31 4 0 6 8 5 20 -1 16 -9 22 -8 26 5 3 8 10 12 15 9 5 -3 6 -10 3 -16 -5
-7 -2 -8 7 -2 8 4 20 9 28 11 8 1 18 8 22 15 7 11 9 10 9 -1 0 -9 4 -10 13 -4
6 5 24 9 39 8 15 0 24 3 22 7 -3 4 0 8 5 8 6 0 11 -6 11 -12 0 -10 2 -10 8 -1
4 6 25 13 47 15 28 2 39 7 37 17 -2 9 3 11 15 7 16 -5 15 -4 -1 9 -11 8 -23
15 -28 15 -4 0 -8 4 -8 10 0 5 7 6 17 3 12 -5 14 -3 8 7 -6 10 -4 12 7 7 11
-4 15 0 14 11 -2 9 4 22 13 29 9 6 17 16 17 22 1 6 2 16 3 22 0 5 7 7 14 3 9
-6 9 -4 1 7 -6 8 -10 22 -9 31 2 11 -2 15 -11 11 -8 -3 -14 1 -14 11 0 9 -5
16 -11 16 -5 0 -7 6 -3 13 6 8 3 8 -9 -1 -14 -12 -16 -11 -12 6 3 16 -1 20
-16 17 -19 -4 -44 26 -32 39 3 3 1 6 -5 6 -7 0 -12 7 -12 16 0 10 -6 14 -14
11 -10 -4 -14 0 -11 13 3 16 0 18 -21 10 -17 -7 -23 -7 -19 0 3 6 1 11 -4 11
-15 2 -23 4 -43 13 -10 5 -25 6 -32 3 -11 -4 -13 -1 -9 10 4 10 2 14 -4 10 -6
-4 -13 -4 -16 0 -2 5 -2 2 0 -5 1 -8 -3 -12 -9 -9 -7 2 -12 9 -11 15 1 5 -5 9
-15 7 -9 -1 -22 2 -29 7 -7 5 -14 5 -18 -2 -9 -14 -26 -13 -22 3 1 7 -8 12
-23 11 -14 -1 -31 6 -38 15 -8 9 -11 11 -8 5 3 -7 -1 -14 -9 -18 -8 -3 -14 0
-12 7 1 7 -4 11 -10 10 -7 -2 -13 2 -13 7 0 5 -3 9 -7 9 -29 -5 -73 3 -68 11
3 6 1 10 -5 10 -6 0 -8 5 -4 12 5 8 2 9 -10 5 -9 -4 -15 -3 -12 2 3 5 -6 21
-19 35 -14 15 -25 32 -25 37 0 6 -4 8 -9 4 -5 -3 -12 -1 -16 5 -4 6 -11 8 -16
5 -5 -4 -9 4 -9 17 0 16 -3 19 -9 10 -6 -10 -11 -5 -21 17 -7 17 -16 29 -20
26 -11 -7 -41 5 -35 15 6 9 -41 50 -49 43 -3 -4 -6 -1 -6 5 0 7 -3 11 -7 10
-5 -1 -18 3 -29 10 -12 6 -24 8 -28 5 -3 -3 -6 -1 -6 5 0 7 -8 12 -18 12 -10
0 -24 6 -31 13 -11 10 -12 9 -6 -3 8 -13 6 -13 -8 -1 -9 7 -14 17 -11 22 3 5
-1 6 -9 3 -8 -3 -18 -1 -21 4 -9 15 5 43 18 35 7 -4 7 -1 -1 9 -7 8 -10 18 -6
21 3 4 -2 9 -11 13 -9 3 -16 10 -16 16 0 5 -7 16 -15 24 -8 9 -15 12 -15 8 0
-4 -9 3 -20 16 -11 13 -20 20 -20 16 0 -4 -10 -1 -22 6 -13 7 -27 12 -31 13
-4 0 -11 6 -16 13 -5 8 -12 14 -17 15 -5 0 -25 10 -44 21 -19 12 -37 19 -39
18 -2 -2 -7 2 -11 9 -4 6 -21 12 -38 13 -19 1 -28 5 -25 14 3 8 0 10 -10 6 -8
-3 -18 -1 -22 5 -3 6 -17 11 -30 11 -13 0 -27 5 -30 10 -5 8 -11 7 -21 -1 -11
-9 -14 -9 -14 0 0 7 -4 10 -9 6 -5 -3 -16 2 -25 10 -8 9 -17 11 -21 5 -4 -6
-15 -6 -30 0 -17 6 -25 6 -25 -1 0 -6 -4 -7 -10 -4 -15 9 -51 17 -87 17 -18 1
-33 5 -33 9 0 5 -10 5 -22 1 -13 -4 -44 -7 -70 -7 -37 1 -48 -2 -48 -14 0 -10
-3 -12 -8 -5 -8 12 -52 14 -52 2 0 -5 -9 -4 -19 2 -14 7 -22 7 -27 -1 -3 -6
-15 -9 -25 -6 -12 3 -17 1 -12 -6 4 -7 0 -8 -13 -2 -31 13 -99 4 -99 -13 0 -6
-4 -14 -9 -19 -5 -5 -6 -3 -2 5 12 21 -8 13 -22 -9 -8 -12 -19 -18 -28 -15 -9
3 -14 -1 -14 -12 0 -15 -2 -15 -10 -2 -8 12 -10 12 -10 1 0 -8 -3 -11 -7 -8
-3 4 -15 -1 -26 -10 -15 -13 -18 -14 -12 -3 6 11 3 10 -12 -3 -11 -9 -23 -14
-26 -10 -4 3 -7 -1 -7 -10 0 -10 -3 -16 -7 -15 -5 2 -33 -13 -63 -32 -30 -19
-61 -33 -69 -31 -7 1 -11 -2 -8 -6 3 -5 -3 -15 -15 -22 -16 -10 -19 -10 -13 1
3 7 -2 3 -13 -9 -11 -12 -23 -19 -27 -15 -5 4 -5 -1 -1 -12 5 -14 2 -17 -9
-12 -9 3 -15 0 -15 -10 0 -9 -9 -18 -20 -21 -11 -3 -20 -12 -20 -19 0 -8 -3
-13 -7 -13 -19 3 -33 -2 -33 -12 0 -5 6 -7 13 -4 6 4 1 -3 -13 -14 -14 -11
-29 -21 -34 -21 -4 0 -6 -7 -3 -14 4 -11 1 -13 -11 -9 -9 3 -14 3 -10 -2 4 -4
2 -17 -4 -29 -7 -11 -12 -24 -13 -28 -1 -16 -13 -17 -26 -1 -7 10 -10 15 -5
11 11 -9 39 19 32 31 -4 5 7 20 24 34 16 14 26 27 22 30 -4 2 -1 2 7 0 8 -2
11 2 7 12 -3 9 3 19 14 25 11 6 19 14 19 18 -3 18 2 33 9 29 4 -3 14 2 22 11
13 14 13 15 -1 10 -10 -4 -16 -1 -16 8 0 8 3 14 7 14 4 0 12 12 18 26 7 14 15
23 20 21 4 -3 8 9 9 26 4 88 20 150 37 140 8 -4 8 -3 0 6 -6 7 -9 30 -7 53 4
30 2 39 -7 33 -9 -5 -10 -2 -3 11 6 11 9 40 8 67 -1 26 2 47 5 47 4 0 4 14 2
31 -3 20 0 34 9 40 8 5 9 9 3 9 -10 0 -12 6 -16 50 -1 11 -5 20 -9 20 -3 0 -6
46 -6 103 1 66 -2 101 -9 100 -6 -1 -11 5 -11 12 0 10 4 12 12 5 9 -8 15 -5
19 7 5 11 -1 23 -16 35 -18 14 -19 17 -4 12 16 -6 17 -5 6 16 -10 18 -9 21 1
15 9 -6 11 -3 6 8 -3 8 1 21 9 28 10 8 11 15 4 23 -5 7 -7 24 -4 39 2 16 0 27
-7 27 -6 0 -3 7 5 16 14 14 14 34 0 34 -3 0 -3 -4 1 -9 3 -5 1 -12 -4 -15 -17
-11 -6 20 16 43 11 12 19 30 16 41 -3 10 1 21 8 26 9 5 11 2 6 -8 -3 -9 1 -24
9 -35 14 -17 14 -17 5 4 -8 15 -8 24 -1 28 8 5 7 11 -1 21 -6 8 -9 17 -5 21 3
3 6 1 6 -5 0 -6 9 -16 19 -21 16 -9 18 -8 13 11 -4 16 -2 19 9 13 11 -7 11 -5
-1 10 -9 11 -10 16 -2 11 7 -4 12 -1 12 8 0 20 -4 20 -41 0 -29 -14 -30 -14
-21 3 10 17 12 25 12 40 0 4 7 -2 16 -13 8 -10 13 -13 9 -6 -4 7 -1 19 5 27 7
8 10 21 7 29 -3 7 -1 18 5 24 6 6 6 12 -1 16 -6 4 -11 16 -11 27 0 14 -4 18
-12 13 -10 -6 -10 -4 -2 7 16 21 26 51 14 44 -6 -4 -9 -3 -8 2 1 4 -3 18 -10
30 -12 22 7 29 25 8 4 -4 2 -5 -6 0 -9 5 -12 3 -9 -6 3 -8 13 -14 23 -14 10 0
20 -7 22 -15 4 -13 3 -13 -6 0 -7 9 -11 10 -11 3 0 -20 18 -24 29 -6 6 11 11
13 11 5 0 -7 5 -10 10 -7 6 3 10 -2 10 -12 0 -15 2 -16 10 -3 7 11 10 11 10 2
0 -7 4 -11 8 -8 10 6 8 -36 -2 -53 -5 -8 -3 -12 5 -10 32 4 50 -2 44 -13 -4
-7 0 -5 8 5 11 14 16 15 20 5 4 -11 6 -11 6 0 1 7 6 10 11 7 6 -3 10 -2 10 3
0 5 7 9 15 10 8 1 22 3 30 4 8 1 17 9 20 18 3 10 16 26 28 36 22 19 22 19 6
-1 -27 -34 -36 -52 -17 -38 8 7 19 9 23 5 5 -4 5 -2 2 4 -4 7 0 15 8 18 8 3
14 9 13 13 -5 14 28 53 38 46 5 -4 3 -1 -3 7 -15 16 -17 34 -4 25 6 -3 9 3 8
14 -1 16 -7 19 -29 17 -15 -2 -28 0 -28 4 0 5 -9 6 -20 3 -18 -5 -25 5 -21 30
0 4 -4 7 -11 7 -6 0 -8 3 -5 7 11 11 -14 32 -30 26 -12 -5 -14 -3 -8 8 8 12 6
12 -8 0 -9 -7 -14 -18 -11 -23 4 -6 -4 -4 -17 3 -13 7 -39 14 -57 15 -30 2
-32 1 -20 -14 9 -12 6 -12 -10 2 -15 13 -22 15 -22 6 0 -9 -5 -8 -19 4 -13 12
-21 14 -26 6 -5 -8 -11 -7 -23 2 -9 7 -13 8 -9 2 3 -6 0 -11 -8 -11 -11 0 -12
5 -3 20 5 11 6 17 0 14 -5 -4 -18 0 -28 8 -13 11 -14 13 -3 10 10 -4 16 0 16
10 0 8 -5 14 -11 13 -6 -2 -11 0 -11 4 0 3 -9 16 -20 29 l-20 24 20 -15 c19
-14 19 -14 6 3 -7 9 -20 17 -27 17 -8 0 -13 6 -11 13 1 6 -6 11 -15 11 -10 -1
-18 2 -18 8 0 5 -4 7 -9 3 -5 -3 -12 -1 -16 5 -4 6 -11 7 -17 4 -7 -4 -8 -2
-4 4 4 7 2 12 -4 12 -6 0 -8 6 -5 13 4 6 0 3 -9 -7 -14 -18 -16 -18 -22 -2 -4
9 -13 15 -20 12 -8 -3 -13 0 -11 6 1 7 -6 14 -17 16 -13 3 -16 0 -11 -9 6 -8
4 -10 -5 -4 -10 6 -9 11 5 22 13 8 14 13 5 13 -7 0 -11 3 -8 6 10 10 49 -16
42 -28 -4 -7 -3 -8 4 -4 18 11 14 34 -5 39 -11 3 -7 5 10 6 15 0 27 6 27 12 0
5 -4 7 -10 4 -5 -3 -10 -2 -10 4 0 5 6 12 13 14 6 3 2 6 -9 6 -24 1 -39 27
-22 37 7 5 8 2 3 -7 -5 -8 -4 -11 1 -6 5 5 9 12 9 15 1 21 63 70 75 59 10 -9
11 -9 6 0 -19 34 -90 51 -118 29z m157 -446 c-4 -6 -1 -17 5 -25 10 -12 9 -16
-4 -21 -14 -5 -14 -8 -1 -21 13 -13 13 -18 -2 -44 -12 -20 -19 -25 -25 -16 -5
8 -8 4 -8 -10 0 -13 -5 -23 -11 -23 -6 0 -9 7 -6 14 4 11 1 13 -10 9 -11 -4
-14 -2 -9 5 4 7 14 12 22 12 8 0 14 7 14 16 0 8 -4 12 -10 9 -5 -3 -10 -1 -10
4 0 6 -5 11 -11 11 -5 0 -7 -5 -3 -12 4 -6 3 -9 -2 -6 -16 10 -56 -11 -48 -24
6 -10 4 -10 -8 0 -13 10 -16 10 -15 0 1 -37 -4 -47 -20 -41 -13 5 -15 2 -10
-11 5 -13 3 -17 -7 -13 -11 4 -13 1 -9 -10 4 -10 2 -14 -4 -10 -6 4 -14 1 -16
-5 -3 -7 -6 -4 -7 7 -1 11 -3 27 -5 36 -2 12 3 15 16 12 11 -3 19 0 19 6 0 7
-4 10 -9 6 -17 -10 -20 10 -4 30 12 15 14 16 10 3 -6 -16 20 -35 31 -23 3 3 0
5 -7 5 -7 0 -11 5 -9 11 2 6 8 10 13 10 6 0 18 8 29 17 10 9 20 16 22 15 13
-9 22 0 19 18 -4 21 -4 21 16 3 11 -10 20 -14 19 -9 -5 22 1 35 13 33 6 -2 11
3 9 10 -1 8 2 11 7 8 5 -3 11 1 15 9 3 8 8 15 11 15 4 0 3 -5 0 -10z m220
-5902 c-6 -19 -5 -21 6 -10 18 17 27 15 34 -7 4 -13 12 -18 23 -15 14 5 15 4
2 -5 -8 -6 -11 -11 -6 -11 5 0 3 -6 -3 -14 -13 -15 11 -42 28 -32 5 4 13 1 17
-5 4 -8 3 -9 -4 -5 -7 4 -12 2 -12 -5 0 -9 -3 -9 -14 0 -11 10 -20 10 -37 1
-14 -8 -19 -8 -15 -1 4 6 3 11 -1 11 -5 0 -14 -9 -21 -20 -7 -11 -8 -20 -3
-20 6 0 8 -9 6 -20 -4 -21 9 -27 20 -10 3 6 2 10 -3 10 -5 0 -9 7 -9 15 0 8 4
15 9 15 4 0 8 -7 8 -15 0 -14 5 -16 38 -19 18 -2 31 -26 25 -45 -4 -13 -2 -13
10 2 14 17 15 17 19 -1 4 -15 0 -18 -19 -16 -30 3 -41 13 -26 22 8 5 9 13 3
22 -8 12 -10 11 -11 -5 -1 -11 -3 -24 -4 -30 -2 -5 -3 -14 -4 -20 -1 -5 -6 -2
-12 7 -5 10 -16 15 -24 12 -10 -4 -15 0 -15 11 0 10 -5 13 -12 9 -6 -4 -8 -3
-4 4 10 16 -13 25 -30 11 -12 -10 -13 -9 -8 5 3 9 12 16 20 16 8 0 14 5 14 11
0 5 -5 7 -12 3 -6 -4 -8 -3 -5 3 7 11 -27 43 -45 43 -9 0 -9 -3 0 -12 7 -7 12
-16 12 -21 0 -5 -8 1 -18 14 -13 15 -21 19 -26 11 -4 -7 -2 -12 3 -12 6 0 10
-3 10 -7 -3 -21 2 -33 13 -27 7 4 8 3 4 -4 -4 -6 -13 -9 -21 -6 -8 4 -13 9
-11 13 3 4 0 13 -5 21 -7 12 -8 11 -6 -5 1 -11 6 -25 9 -30 9 -15 -7 -39 -20
-31 -6 3 -13 2 -16 -3 -9 -15 25 -22 41 -9 11 9 16 9 24 -3 7 -12 9 -12 9 1 0
13 2 13 9 0 13 -19 4 -31 -16 -23 -12 5 -14 3 -8 -7 6 -9 4 -11 -5 -5 -10 6
-12 2 -7 -15 4 -17 3 -20 -6 -11 -9 9 -9 16 1 31 19 31 14 33 -16 8 -25 -20
-27 -24 -13 -36 9 -7 -3 -4 -26 8 -48 23 -63 26 -45 8 7 -7 12 -17 12 -23 0
-5 -6 -3 -13 6 -18 23 -56 41 -70 33 -9 -5 -9 -4 -1 5 9 10 17 10 33 2 35 -19
70 10 39 31 -8 6 -5 7 12 2 22 -6 23 -5 12 9 -8 9 -21 13 -30 10 -14 -4 -15
-3 -2 5 8 6 17 9 21 6 4 -2 12 3 19 11 10 12 16 13 26 4 19 -15 20 21 2 40
-11 10 -10 12 1 9 7 -2 15 2 18 9 3 7 -4 10 -19 6 -19 -4 -18 -2 6 11 20 11
33 13 40 6 18 -18 30 -11 13 8 -14 15 -15 19 -2 19 8 0 12 -4 9 -8 -2 -4 4
-13 15 -18 24 -13 34 -14 27 -3 -7 11 31 8 41 -3 5 -4 2 -5 -4 -1 -8 4 -13 2
-13 -7 0 -9 11 -14 30 -14 36 0 37 3 8 27 -13 10 -20 22 -15 26 4 4 13 2 19
-4 19 -19 29 -14 16 7 -9 15 -16 17 -31 10 -24 -14 -47 -4 -46 18 0 16 1 16 9
-2 8 -20 9 -20 9 1 1 19 9 34 18 34 3 0 1 -10 -2 -22z"/>
</g>
</svg>
