<?xml version="1.0" encoding="UTF-8" standalone="no"?>
<svg
   version="1.0"
   width="1024.000000pt"
   height="1024.000000pt"
   viewBox="0 0 1024.000000 1024.000000"
   preserveAspectRatio="xMidYMid meet"
   id="svg10"
   sodipodi:docname="ヰ.svg"
   xmlns:inkscape="http://www.inkscape.org/namespaces/inkscape"
   xmlns:sodipodi="http://sodipodi.sourceforge.net/DTD/sodipodi-0.dtd"
   xmlns="http://www.w3.org/2000/svg"
   xmlns:svg="http://www.w3.org/2000/svg">
  <defs
     id="defs14" />
  <sodipodi:namedview
     id="namedview12"
     pagecolor="#ffffff"
     bordercolor="#666666"
     borderopacity="1.0"
     inkscape:pageshadow="2"
     inkscape:pageopacity="0.0"
     inkscape:pagecheckerboard="0"
     inkscape:document-units="pt" />
  <metadata
     id="metadata2">
Created by potrace 1.16, written by Peter Selinger 2001-2019
</metadata>
  <g
     transform="translate(0.000000,1024.000000) scale(0.100000,-0.100000)"
     fill="#000000"
     stroke="none"
     id="g8">
    <path
       d="m 5842,9944 c -139.5405,-114.517 -185.8273,-667.0042 -254,-474 -1.3468,-353.0673 140.4396,-691.0978 149,-1045.75 3.0405,-136.406 274.742,-393.1113 178,-336.25 41.4414,-141.9762 171.2067,-124.0621 150,-73 87.15,-105.0917 173.0361,-227.0695 -32,-254 -268.9113,-91.9677 -1019.3598,-78.249 -669,-57 -102.8813,-82.9782 -282.548,-79.5791 -338.25,-120.375 62.5118,14.5259 155.1815,167.8066 135.25,89.375 -88.5997,123.1645 -558.7045,-69.6673 -411,-76 -199.9266,-108.5739 -798.828,54.345 -639.375,13.375 -82.1653,42.2025 -302.1848,59.941 -240.625,39.625 -145.0399,19.8758 -385.3809,16.879 -544,-9 -181.7048,15.9455 -523.0731,-233.4021 -412,-158 -139.2836,-124.7033 -305.6392,-253.6183 -374,-458 -66.2846,-92.4 -169.1576,-388.17 -136,-295 -58.1978,-212.4756 145.7307,-757.0065 96,-564 25.7297,-83.8404 109.1464,-452.3106 99,-315 -2.9974,-171.6553 118.9012,-305.6165 161,-431 63.9568,-92.4522 207.5254,-360.6887 170,-270 140.1467,-177.7869 314.5684,157.7617 214,42 65.5548,74.4352 133.9967,282.1978 101,198 56.0828,155.6451 60.3258,223.7134 45.625,265.375 21.8215,134.7488 43.2845,422.1909 39.375,284.625 58.5478,120.0081 -12.0003,380.0066 -1.625,338 -4.196,99.206 -90.5822,263.6924 -47.375,198 -198.3689,-92.4563 -115.4889,94.3938 -184.375,-88.375 -71.3258,99.9441 -192.5489,-64.4463 -175.625,-61.625 -33.4734,49.8493 37.1121,92.2689 8,187 56.4178,-8.1746 171.3147,238.7501 131.75,154.5 88.4367,3.5414 162.6101,261.9718 117.25,208.5 89.4706,173.3217 488.171,279.9995 407,155 131.2319,116.3206 221.5799,-8.617 174.875,-25.875 119.5737,-39.2631 413.9709,-33.1601 310.125,-8.125 89.1871,23.4434 310.102,42.7849 233.5,10.375 48.2058,-8.8716 273.4292,0.8699 232.5,18.625 157.6716,36.6578 316.8688,24.3805 284,32 56.1844,29.4521 330.0229,-54.8839 247,-4 96.8388,-23.9245 297.8361,-2.4296 248.375,30.5 137.0214,-5.3233 -25.4389,7.2345 208.625,0.5 125.1734,26.0538 336.8529,54.7025 251,45 95.7762,48.4377 220.3172,172.6023 215,75 98.7465,-35.5031 492.183,133.3045 285,59 236.6849,45.7678 309.213,111.2761 261,102 48.8438,28.3095 205.123,54.8016 184,57 22.4026,140.5131 334.6889,197.0006 260,145 -109.0023,93.5093 182.3416,-31.2924 79,18 161.147,114.6867 92.0063,122.4429 -9,69 14.1095,39.7531 108.1702,116.8503 93.25,85.5 208.4342,53.1563 176.4717,158.3541 101.25,85.125 40.3794,-18.4108 183.7384,97.82 151.5,85.375 64.1762,11.6872 119.0364,144.8163 77,102 54.3704,-14.6396 255.8388,92.602 162,37 -12.3217,95.9993 63.7958,240.9431 55,137 -30.8831,18.8397 214.0362,129.8052 30,27 -9.5489,-64.479 -49.9299,91.6233 64,77 115.5686,5.1126 405.2816,135.716 222,90 -3.8214,70.5219 98.0201,244.5922 66,132 125.4611,207.3679 30.0468,-38.0508 105.875,152.125 20.4302,66.0215 94.3888,326.4459 64,176.5 56.3406,12.6915 150.8035,215.6521 108.125,167.375 65.0469,140.0044 145.6668,124.9269 37,192 -60.3187,-99.0924 -328.0105,-162.0269 -254,16 -17.6532,-129.9035 -338.3095,-210.8013 -264,-200 -99.762,44.1346 -752.6695,-1006.1455 -317,-396 -22.6207,-20.0561 -173.0161,-158.8439 -149,-171 -85.2851,-87.903 -350.3961,-268.2032 -283,-232 -145.6905,-104.8306 -384.7331,-237.6025 -286,-181 -48.0624,-43.384 -312.2601,-140.7302 -245,-105 -114.6118,16.0634 -457.7181,8.6825 -406.625,-65 -69.3379,105.7498 237.855,75.0204 138.125,140.125 121.9486,47.1075 216.6245,318.1575 264.5,142.875 -56.9973,98.6879 -74.6371,305.4143 -35,240 -8.4034,79.4557 133.3044,16.7285 150,12 115.9006,114.6041 194.5107,218.0219 105,201 134.3678,19.6654 60.3877,94.1492 31.375,114.625 -23.0683,13.456 -200.9858,237.6543 -86.375,191.375 -103.3564,132.5797 -279.077,334.6559 -262,154 -84.8689,120.0369 -188.7947,382.746 -123,287 -85.9682,101.5299 -294.0013,459.3396 -167,278 -57.7976,60.7543 -52.5378,148.1933 -80,105 -69.5911,118.2487 -146.7199,224.2393 -276,211 z"
       id="path4" />
    <path
       d="M 6808,7036 C 6684.5198,6869.8271 6490.3212,6776.9175 6391.375,6588 6225.1706,6407.7465 5885.7005,5751.9651 5963,5988 c -53.6079,-84.4959 114.1128,-193.6203 43,-305 113.2261,1.5419 222.6091,59.8264 157,16 -7.5703,-82.4847 271.3673,70.7381 175,6 -27.1314,-23.047 167.0607,17.1033 59,-40 34.196,146.5692 -7.5968,-110.4675 -37.75,-83.5 -99.2762,75.7588 -152.8202,-207.3134 -78.25,-111.5 87.8272,-204.8702 -63.4671,-267.4268 -95,-308.75 35.4607,-131.4855 -736.9185,-893.8626 -311,-390.25 -92.3109,-154.8121 -285.7015,-124.0484 -401,-86 -223.1858,61.2846 -912.6186,-9.4992 -711.625,-6.5 -102.5167,-56.2958 -397.8587,-74.2216 -281.375,-49.5 -162.6911,13.833 -360.5802,56.9214 -491,71 -99.5227,22.0986 -328.4973,70.2823 -230.5,47.625 -58.1243,54.257 -278.0258,109.0605 -250.5,105.375 -115.7205,45.6893 -268.9545,115.4922 -260,114 -130.0447,49.1392 -281.1166,-19.2403 -220,-12 154.8792,-113.0853 -472.1279,114.7942 -215,7 6.0875,-40.7611 -249.6025,9.6065 -175,11 16.4575,-20.5691 -345.0749,-44.4719 -262,-10 -71.822,-6.0292 -365.6976,-26.1914 -264,-10.5 -58.2298,0.2105 -350.5944,-27.7042 -263,-10.5 -88.2434,5.515 -259.3325,-28.3202 -320,-29 -130.9438,-35.4417 -477.1301,-32.2552 -335,-33 -75.5975,-74.8566 -572.6142,-120.2812 -450,-30 -91.96747,-21.7801 -199.7879,-371.838 -295.875,-207 -89.79128,-53.0793 -96.37504,-433.0253 -16.125,-313 64.43173,-81.5243 176.33413,-127.2342 200,-83 228.89158,-17.0265 91.13201,25.0502 178,-23 26.68633,-38.7448 139.69108,11.0616 125,-6 74.5259,45.5565 251.2115,102.7721 172.75,60.5 -91.9519,25.8079 689.8854,165.5742 304.25,98.5 70.8346,-0.4671 258.8654,-37.1879 214.125,13.5 97.3969,67.7009 476.7388,54.8365 343.875,35.5 92.1677,-27.5246 254.8139,-36.8275 197,-29 37.2074,-1.5814 234.2013,-41.8656 187,-39 117.4867,-12.0204 386.0773,-43.2788 281,-56 88.2709,-41.2097 364.7628,-76.4347 286,-77 89.961,-33.703 301.5033,-50.3845 199.875,-55.5 85.3422,-52.3363 370.9684,-146.0814 282.125,-101.5 123.0888,18.5634 311.2627,-153.4156 261,-122 64.0719,-32.1123 245.3587,-122.1063 218.375,-71.625 56.5003,-25.7917 588.0538,-123.751 345.125,-62 51.453,33.7363 425.7333,-35.3755 344.5,-5.375 115.8053,12.2508 340.3142,54.4105 245,56 78.1234,-28.5318 276.547,35.3071 196,0 77.1644,-8.3255 302.4717,29.9877 246,32 214.7849,24.04 399.2003,56.9281 370,54 88.9659,-6.2469 292.326,43.0957 241,49 127.8935,15.0678 492.1037,266.2423 253,124 49.1414,36.016 295.7887,242.1672 227.625,154.5 70.4143,77.0681 239.4688,269.9601 188.875,198.5 49.9482,57.165 131.6717,182.8036 110.5,135.625 57.2353,-10.4973 -40.4646,-213.818 -47,-160.625 -70.2799,-87.5203 -77.2426,-236.7814 -116,-312 -20.2646,-69.0915 -23.2948,-260.0967 -9,-205 0.5317,-137.47 -11.3162,-495.2039 3.625,-366.125 26.0776,-125.0678 -42.1217,-652.9007 -35.625,-483.875 -32.9028,-111.3898 65.5593,-628.8685 65.75,-490.75 23.1578,-88.2729 36.25,-299.2228 45.25,-254.25 49.1457,-85.9993 98.1902,-357.6299 72,-258 39.1564,-172.9692 121.6702,-557.1795 93,-407 54.2916,-120.9111 100.7951,-326.9756 66.875,-265 5.8744,-96.2017 94.7666,-305.2332 50.125,-248 15.8167,5.9391 62.3299,-260.62009 23,-223 42.5345,-119.54754 -28.942,-117.17909 -6,-85 12.6906,-91.89367 -55.9085,-293.3975 -6.75,-253.625 29.8754,-44.30811 59.7934,-164.08695 17.875,-151.75 29.3536,7.53042 10.4262,-183.43203 51.875,-127.625 -24.067,-89.66467 169.389,-89.18844 166.875,-0.125 102.2891,-26.39336 151.5666,90.46765 58.125,107.125 22.5467,-139.12987 174.9052,-43.49047 116,15 -41.87,-148.01953 116.1388,-79.75031 57.75,-79.625 55.176,97.12957 48.5637,120.02399 45.25,178.625 -36.9947,61.67579 -103.7834,303.00456 -68.25,184.625 -26.0789,132.86729 -35.8173,356.5506 -38.75,239.375 -21.8455,87.0255 -33.3161,357.5828 -37,271 -20.8478,71.1298 -62.1299,265.4021 -30,186 -2.1941,162.4997 -36.2212,404.0921 -18,383 -10.6071,70.7359 -17.2566,352.3535 -10,259 -13.1858,60.9161 -23.3878,227.7158 -17,150 -12.2093,139.808 -158.0978,547.5404 -70,417 -10.2673,-2.4998 -139.4152,803.3099 -37,328 41.6069,115.4236 18.3564,516.3777 35.125,409.75 13.5382,175.0578 53.0671,71.3594 13.125,193.875 3.3046,99.955 20.2081,588.1455 27.75,438.375 9.1895,189.1521 154.4748,311.935 197,453 86.8007,144.2014 126.2761,184.7174 180,217 131.5151,-61.9214 283.6824,146.5988 196.5,121 120.687,43.7849 39.5177,-255.6309 167.625,-177.875 55.1886,-3.2472 208.7649,7.8084 134.875,-26.125 -16.4152,40.7914 -8.178,-25.9547 63,11 62.3247,-75.6735 215.7358,27.9624 123.5,-202.5 57.9121,-124.3943 346.7969,-272.5441 257.5,-273.5 136.2861,-15.8945 163.9116,-14.8847 317,-45 105.5275,6.3212 289.3215,3.8777 240.875,-27.375 88.7452,-32.3097 346.0405,17.4288 271.125,17.375 108.7677,13.0662 119.0025,167.4976 169.125,102.125 115.9544,47.1607 -46.3999,234.7563 1.625,194.5 -176.9711,115.4384 -52.5675,160.4595 -236.75,138.375 -99.7032,28.5308 -391.7465,168.4072 -301,100 -63.0143,83.6267 -496.6554,417.528 -256,226 -138.4029,54.4098 -228.6586,297.9667 -190,174 -154.8995,132.4292 -353.9974,222.1254 -550,237 -179.4385,34.9925 -689.0517,-87.3748 -536,-41 -96.6683,-47.7635 -459.6582,-246.2714 -313,-159 -106.0264,-77.6749 -297.5172,-300.2746 -218,-203 -129.898,-179.4778 169.4332,209.6033 96.625,144.125 25.0391,110.8646 51.323,640.4548 62.375,480.875 -5.9269,163.1023 -30.3079,500.2017 -29,425.5 62.4732,107.3065 154.0194,317.1201 64,251.5 2.271,-84.401 -63.1445,49.2813 -2.75,55.875 48.3299,95.8025 70.9299,271.6492 52.75,261.125 -4.1116,-62.6258 148.8976,-143.3634 107.5,-78.875 -13.9431,-176.0138 85.4776,-135.0879 177.5,-9.125 203.4536,125.345 -84.9934,337.75 -33.875,219.375 -78.5021,24.9443 -366.1447,59.3916 -255.125,17.625 -133.6666,151.6928 30.8718,35.2558 -115,150 -65.1703,43.9746 -156.2222,120.0323 -163,83 64.7856,-18.6155 40.2299,154.8683 50,111 117.4896,59.3547 96.3532,100.2879 -37,88 z m 157,-446 c 44.1586,-88.8149 5.1791,21.9264 -45,-95 -95.3301,23.4193 -197.6469,-195.4189 -147,-112 -37.8924,97.4514 196.3624,192.2502 98.5,128.875 -0.2532,26.5559 68.3021,48.847 93.5,78.125 z M 7185,688 c 35.3589,9.10743 -126.2905,-73.12938 19,-109 -73.0257,-66.79232 122.7843,-185.66961 97.125,-111.375 C 7265.2814,526.42913 7155.7787,625.03008 7156,530 c -54.1005,126.35278 -114.4032,85.44155 -87,30 -75.5896,-108.75989 -33.292,-186.8879 29.125,-118.125 75.0825,-23.75163 -289.9793,32.27451 -198,9.375 165.8955,11.35969 292.6123,114.68613 150.75,95 -42.9387,97.98519 214.2981,42.47479 132.125,67.75 127.5768,3.53353 -82.7701,67.11173 2,74 z"
       id="path6" />
  </g>
</svg>
