<?xml version="1.0" encoding="UTF-8" standalone="no"?>
<svg
   version="1.0"
   width="1024.000000pt"
   height="1024.000000pt"
   viewBox="0 0 1024.000000 1024.000000"
   preserveAspectRatio="xMidYMid meet"
   id="svg10"
   sodipodi:docname="ヱ.svg"
   xmlns:inkscape="http://www.inkscape.org/namespaces/inkscape"
   xmlns:sodipodi="http://sodipodi.sourceforge.net/DTD/sodipodi-0.dtd"
   xmlns="http://www.w3.org/2000/svg"
   xmlns:svg="http://www.w3.org/2000/svg">
  <defs
     id="defs14" />
  <sodipodi:namedview
     id="namedview12"
     pagecolor="#ffffff"
     bordercolor="#666666"
     borderopacity="1.0"
     inkscape:pageshadow="2"
     inkscape:pageopacity="0.0"
     inkscape:pagecheckerboard="0"
     inkscape:document-units="pt" />
  <metadata
     id="metadata2">
Created by potrace 1.16, written by Peter Selinger 2001-2019
</metadata>
  <g
     transform="translate(0.000000,1024.000000) scale(0.100000,-0.100000)"
     fill="#000000"
     stroke="none"
     id="g8">
    <path
       d="m 4084,8920 c -196.438,-40.0115 45.0303,-162.8562 -140.5,-273.375 87.525,-116.1648 463.3254,-183.0498 388.125,-151 44.3757,-45.8593 353.1595,-222.685 248.375,-158.625 132.4983,-90.6565 417.1677,-242.1844 301,-181 173.7803,-108.5429 746.9257,-267.9248 620.875,-205.375 267.128,-14.2174 558.4531,23.1502 482.875,15.375 157.5165,94.5701 208.4962,70.5578 391.25,120 245.5707,87.6243 302.0894,144.434 490,39 401.4708,8.4547 632.4835,-28.7524 696.875,-40.75 3.7708,-168.2842 127.6228,-88.0308 203.125,-211.25 127.0934,-22.6019 -26.4623,-194.0065 -33,-222 -118.6796,-6.1356 -287.2569,-275.3963 -205,-166 -28.9695,-80.216 -367.2813,-307.3367 -241.5,-246.125 C 7059.8871,7082.4218 6733.1437,6645.9611 6885,6831 c -109.7941,-64.2295 51.8285,-217.0166 -56,-335 80.2877,53.1747 228.8201,5.7187 150,26 112.5092,58.4981 313.7511,135.6283 188.375,169.375 102.7656,65.0409 346.88,293.3674 261.875,158.25 -61.5226,-4.5004 66.7353,134.9491 74.75,82.375 -19.4815,49.2536 179.2167,166.7719 126,170 47.7213,18.0673 222.0402,142.5246 170,81 54.5948,45.4211 228.7976,173.7082 174,132 88.2838,110.1816 267.4844,383.288 216,270 100.3189,111.0001 139.0567,271.8443 130,395 -21.5826,197.3185 -379.5417,439.3863 -254,346 -140.7708,126.0006 -584.5399,367.1611 -448,245 -223.0631,118.8669 -470.5448,103.3965 -706,119 -235.6466,-33.6246 -455.2113,-119.4023 -702,-83 -167.5628,-72.5839 -702.5348,-182.5361 -512,-170 -409.1233,-33.8527 -223.0766,-66.029 -495,-3 -22.4429,-32.9272 -499.3879,197.8221 -237,70 -120.1817,61.1323 -315.0364,162.991 -238,118 -88.6639,25.6057 -131.1088,90.1217 -113.875,64 -105.2266,63.0387 -267.7407,188.4276 -156.125,128 15.1919,79.7867 -222.3476,132.7168 -374,106 z M 7066,6826 c -24.3502,-96.8416 -106.2398,-135.0446 -81,-164 -177.1957,-51.8513 84.793,208.1425 -15,131 34.2711,-21.7732 74.6673,117.1498 96,33 z"
       id="path4" />
    <path
       d="m 5686,7432 c -30.8502,-66.7307 -23.176,-227.5089 -12,-189 -19.4465,-8.7039 103.4246,-167.7754 57,-180 -59.7051,-31.8214 45.9245,-137.9838 13.75,-150.375 20.3851,-16.0178 38.0858,-190.2321 21.25,-137.625 26.52,-76.3404 30.0953,-340.9492 8.2812,-206.4219 C 5762.3125,6417.8634 5758.8752,6096.3049 5771,6180 c -0.9454,-131.3933 -30.4516,-393.2787 -16,-350 6.8093,-39.5327 -44.9936,-396.1679 -37,-306 -30.4964,-118.5575 -59.306,-319.2905 -31,-241 8.9359,-47.9249 -22.758,-274.2132 -21.375,-199.75 -25.8672,-87.7693 -5.0027,-413.5476 -19.625,-336.25 24.8099,-123.2229 -16.2639,-557.8384 -14,-393 -92.8294,-387.6014 60.9055,-321.8668 -96,-486 -6.9249,-114.2882 -65.2671,-431.979 -95,-324 51.2912,-54.7712 95.2333,-380.7327 55,-261 -86.1443,17.2837 -84.7208,-206.7855 -26,-226 36.4647,-64.6559 69.1523,-240.7127 47.375,-161.625 C 5558.6256,2786.1264 5389.8683,2546.3842 5465,2660 c -42.6153,-5.3786 -331.9425,-75.8428 -252,-77 -485.4257,-17.1548 -136.5061,50.6825 -518,91 -131.2973,34.2132 -292.9938,-24.325 -249,-31 -171.67,22.4471 -288.7987,-3.1854 -257,8.125 -74.0994,48.6457 -249.5698,120.8305 -201.25,66.375 -71.7704,-8.6305 -236.0461,68.8531 -186.125,52.5 -114.396,22.2915 -343.19,111.6773 -256.625,70 -73.9757,2.2668 -305.4761,140.9816 -210,99 -48.4071,17.9514 -362.1694,132.0661 -255,109.5 -106.1126,18.2594 -282.4685,103.4759 -182.375,40.625 -78.3228,-5.7729 -182.2541,20.9277 -180.625,2 -102.7186,66.7013 -270.0914,106.8479 -219,49.875 -7.0319,-46.7916 -213.8121,-15.8776 -148,8 -65.3451,34.2592 -248.4004,-15.2558 -172,1.125 -60.1269,18.3491 -334.0934,4.1512 -238,9.875 -151.6353,-13.8681 -327.0686,-64.8075 -450,-111 -124.2219,-43.6873 -316.3142,-163.486 -275.4219,-122.7188 C 1202.8589,2897.4266 1010.7019,2756.3249 1057,2829 946.85261,2731.535 774.47699,2671.9971 701,2521 651.21428,2488.382 703.16479,2350.2221 601.875,2308.125 711.60396,2240.5583 971.95145,2471.6011 870,2425 c 72.5671,71.3435 31.1968,114.4086 56,146 68.45745,-37.8167 -37.74269,70.2192 37.375,75.25 -60.04753,-131.0346 943.7144,905.5976 117.625,37.75 95.0227,107.5927 153.7959,90.8109 115,83 186.0543,42.4064 30.3822,52.268 163,25 74.5219,63.8489 239.4847,47.4654 210,42 97.4166,43.0315 349.0185,42.5737 295,54 -1.18,25.3887 157.7231,-74.1156 116,-28 55.8914,47.8667 182.4254,-16.3066 147,-7 -39.5172,110.2905 328.5508,-169.7222 163,-48 176.4712,-25.5611 202.1513,-77.9559 170,-62 31.6936,53.0452 106.4464,96.9471 116,3.125 50.4224,-7.9877 163.9793,-75.2225 94,-65.125 73.7498,1.0231 156.2318,-128.4772 122,-50 119.9148,18.1982 60.0747,-47.795 130,-32.75 -29.1034,36.7955 130.207,-162.3948 65,-40.25 -114.2469,68.1438 100.7559,-83.6649 98,-78 42.5816,-29.5095 131.8842,-115.4348 149.5,-59.625 28.5745,-11.9248 209.3799,-39.8778 186.5,-53.375 -28.9873,-50.5412 368.4689,-70.7417 200.625,-77.625 13.2812,-70.7998 150.4822,-151.7881 157.375,-75.375 87.9272,7.353 -24.5635,87.6233 128,-35 124.7395,95.147 213.2113,-20.3835 121,-14 108.3614,-37.6655 235.7105,-149.0425 163,-70 41.4092,18.1772 117.2942,-25.9107 113.75,-20.5 42.3904,18.0808 274.7736,-77.617 171.25,-32.5 53.1633,-21.9868 206.6799,-37.8619 178,-44 50.6359,-25.843 241.2869,-24.7087 136,-16 -64.3373,-60.9274 121.9568,-115.5343 90,-47 79.9735,-8.9039 257.4989,23.7255 177,0 -41.261,-94.2351 57.1378,-127.6175 126,-41 50.1842,90.7308 80.4099,138.623 134,59 110.5617,53.6339 62.7852,-20.0042 127,14 107.9245,102.9156 125.1763,137.4326 95.875,83.125 75.7517,10.4939 183.9521,168.936 121.125,89.875 34.2163,-56.8048 112.2629,-12.5886 89,24 62.6735,94.6396 220.1132,277.9249 153.5,223 8.2607,94.6768 -14.6493,168.565 30.5,117 121.9117,198.5664 172.0447,-85.0701 212.75,-54.75 -81.5784,-10.044 679.7837,-712.3799 239.25,-286.25 20.1184,-47.9143 208.3323,-238.9562 146,-165 87.625,-42.5726 215.0889,-188.9247 175,-127 86.2312,-56.4152 162.0271,-48.6089 183,-66 49.0054,-51.0461 233.4882,-109.0639 151.2969,-68.375 100.8357,7.519 201.3724,-11.1389 158.7031,-16.625 -4.7132,13.1884 183.3815,50.4952 181.875,7.875 119.889,-13.9243 269.3336,-34.7318 155.625,6.875 19.591,21.2034 336.9165,37.7485 255.5,34.25 34.9381,-5.78 345.7846,151.8791 176,87 92.1699,15.6904 231.3583,57.3689 152,51 -22.1363,-61.7478 80.2543,53.9515 71,47 13.9783,56.0923 286.8935,118.3754 187,82 14.7295,75.5961 162.4803,109.3189 115,67 54.7733,72.8869 207.8226,160.3246 118,90 36.969,45.461 119.4492,113.7317 132,81 41.7814,-42.9949 212.5941,17.8836 142,9 10.8582,17.3756 71.0587,97.0428 102.625,63.75 110.7755,-51.713 250.9397,-124.2288 144.375,-23.75 -17.8305,-68.6206 181.4237,47.2956 103,83 129.66,-34.4987 155.8124,111.7239 129,71 26.3244,48.7282 -41.6663,241.4865 -14,168 -334.0487,145.5368 -323.3035,192.9264 -545.5,164.375 -203.3381,-39.7254 -783.917,-287.1547 -647.375,-67.5 -115.4061,-42.5923 -259.7617,-132.829 -253.625,-126.625 91.833,-54.6472 -68.1665,-226.5187 -67.5,-122.25 -37.7992,-84.26 -502.4765,58.2977 -177,-14 -90.2097,19.3048 -464.5655,-76.2076 -341,-140 -114.7443,106.753 -411.3925,388.7001 -344,271 -80.2423,92.7011 -225.363,370.3586 -154.375,250.625 15.823,47.774 -174.4387,376.0127 -100.625,199.375 -49.713,52.5426 -40.7669,29.1375 -55,75 -134.46,-16.9964 -190.5366,109.9636 -68,88 -1.1119,101.5158 -50.0195,313.8758 -16.375,160.5 54.4589,-92.7092 42.3528,103.9967 -24.875,149.375 -127.7499,182.7407 20.6818,-105.4183 -113.75,109.125 -5.3419,21.4412 214.9256,121.2039 53,99 -68.8656,66.3763 -15.2646,302.9665 -35.75,242.75 -39.8641,52.0815 -70.3593,253.7466 -44.25,257.25 -98.697,163.2274 35.0305,253.1656 -100,290 46.9074,52.7027 37.9998,137.4195 28,120 -77.7662,33.6529 -43.6347,320.6411 -33,264 26.7922,122.6954 -13.1744,411.6058 -4,314.875 -44.8423,-23.6725 -54.9293,290.8416 -41,217.5 5.2202,81.5014 15.2631,205.5493 -5.625,189.75 -19.4268,70.7475 -38.4993,233.0729 -29.375,188.875 -11.4604,121.9775 -25.3899,430.0245 -23.125,376.625 -2.6009,93.8072 31.2764,221.6334 -1.875,172.375 -16.7959,10.9326 29.4586,237.7646 -7,225 13.3532,84.4437 59.2589,228.5777 1.8281,230.625 -26.6249,68.0595 -0.039,203.1305 0.1719,144.375 -2.3539,93.2046 -0.7705,291.8682 22,212.875 11.8803,37.6227 -118.3671,202.9459 -109,130.125 -72.3425,44.279 -154.3234,-143.8445 -96.375,-67.25 -129.8323,40.9135 4.7315,122.7651 1.375,79.25 -70.8571,21.2769 -406.8331,107.2268 -254.5,98 -26.8672,15.1374 -51.0911,10.6479 -77.5,4 z"
       id="path6" />
  </g>
</svg>
