<?xml version="1.0" standalone="no"?>
<!DOCTYPE svg PUBLIC "-//W3C//DTD SVG 20010904//EN"
 "http://www.w3.org/TR/2001/REC-SVG-20010904/DTD/svg10.dtd">
<svg version="1.0" xmlns="http://www.w3.org/2000/svg"
 width="1024.000000pt" height="1024.000000pt" viewBox="0 0 1024.000000 1024.000000"
 preserveAspectRatio="xMidYMid meet">
<metadata>
Created by potrace 1.16, written by Peter Selinger 2001-2019
</metadata>
<g transform="translate(0.000000,1024.000000) scale(0.100000,-0.100000)"
fill="#000000" stroke="none">
<path d="M6923 9958 c7 -19 -8 -25 -18 -7 -5 7 -16 2 -32 -13 -22 -20 -23 -21
-17 -3 7 18 6 18 -9 6 -9 -7 -23 -11 -31 -8 -10 4 -13 1 -9 -9 3 -7 1 -14 -5
-14 -6 0 -13 6 -15 13 -4 9 -6 8 -6 -2 -1 -11 -4 -11 -18 0 -15 12 -16 12 -10
-4 4 -11 3 -16 -4 -12 -15 10 -59 13 -59 5 0 -4 -14 -6 -30 -5 -17 1 -33 -1
-35 -5 -2 -3 -16 -6 -32 -5 -15 0 -34 -6 -41 -15 -12 -13 -13 -13 -7 4 6 19 5
19 -13 3 -10 -9 -22 -14 -26 -10 -14 14 -46 11 -34 -4 10 -12 7 -12 -15 -2
-21 10 -30 9 -44 -2 -14 -11 -15 -11 -9 0 7 10 4 12 -12 7 -11 -4 -23 -2 -26
3 -4 6 -21 1 -43 -12 -20 -11 -33 -15 -29 -8 7 10 4 11 -10 3 -11 -5 -25 -7
-33 -4 -10 3 -12 -1 -8 -14 7 -18 6 -18 -8 0 -8 11 -24 20 -35 21 -16 1 -18
-1 -7 -13 10 -13 9 -14 -10 -4 -28 15 -56 16 -47 1 3 -6 -5 -4 -18 5 -14 9
-28 13 -31 10 -4 -4 -14 -1 -24 7 -11 9 -14 10 -9 2 11 -20 -12 -15 -24 5 -11
16 -11 16 -6 0 3 -10 1 -20 -4 -23 -6 -4 -10 1 -10 9 0 10 -6 13 -15 10 -8 -4
-12 -11 -8 -17 4 -6 1 -7 -6 -3 -7 5 -10 14 -7 22 4 11 1 12 -13 5 -12 -7 -22
-6 -31 2 -10 9 -11 9 -6 0 9 -16 -6 -17 -22 -1 -9 9 -12 9 -12 -1 0 -10 -3
-11 -14 -2 -18 15 -75 21 -83 8 -4 -6 -11 -3 -20 8 -7 11 -13 15 -13 9 0 -5
-11 -10 -25 -10 -15 -1 -22 2 -18 9 3 6 1 7 -5 3 -20 -12 -52 -15 -52 -5 0 6
-4 8 -8 5 -4 -3 -27 -7 -51 -10 -24 -3 -49 -10 -56 -16 -10 -8 -14 -7 -18 2
-4 9 -6 10 -6 1 -1 -7 -8 -10 -16 -7 -8 4 -15 1 -15 -4 0 -6 -9 -10 -19 -9
-11 0 -17 6 -13 12 3 5 -1 4 -10 -3 -9 -7 -20 -12 -24 -11 -5 1 -12 0 -16 -1
-5 -1 -11 -3 -15 -4 -5 -1 -18 -7 -30 -14 -13 -7 -23 -10 -23 -7 0 4 -7 -1
-16 -9 -8 -9 -20 -14 -25 -11 -5 4 -9 1 -9 -5 0 -7 -7 -10 -15 -6 -8 3 -15 1
-15 -5 0 -6 -5 -7 -10 -4 -6 4 -16 2 -23 -3 -7 -5 -19 -10 -27 -11 -37 -3 -57
-8 -87 -23 -22 -11 -34 -13 -42 -5 -8 8 -11 7 -11 -2 0 -11 -3 -11 -15 -1 -13
11 -14 10 -9 -4 7 -18 -15 -19 -28 -1 -5 6 -8 5 -8 -4 0 -8 -6 -11 -16 -7 -14
5 -15 4 -5 -8 9 -11 9 -16 0 -22 -7 -4 -9 -3 -6 3 4 6 -3 13 -14 16 -15 4 -19
2 -15 -9 5 -12 2 -12 -15 -3 -13 7 -19 7 -15 1 3 -6 2 -13 -4 -17 -5 -3 -10
-2 -10 2 0 7 -44 9 -60 3 -3 -1 -8 -2 -13 -1 -4 0 -6 -5 -5 -11 2 -7 -5 -12
-14 -12 -10 1 -15 -2 -12 -7 5 -8 -9 -13 -28 -10 -5 0 -8 -7 -8 -16 0 -15 -2
-16 -10 -3 -9 14 -15 7 -11 -14 1 -5 -4 -4 -12 2 -16 14 -43 -8 -29 -24 4 -4
0 -3 -9 4 -14 10 -18 9 -23 -5 -6 -14 -9 -15 -15 -4 -7 11 -11 9 -20 -7 -7
-14 -17 -19 -28 -15 -12 5 -14 3 -8 -7 6 -9 4 -11 -6 -5 -22 14 -50 14 -39 0
8 -9 3 -11 -16 -7 -20 3 -25 2 -19 -7 4 -8 2 -12 -6 -10 -35 4 -42 0 -28 -18
11 -15 10 -14 -9 1 -21 18 -22 18 -22 1 0 -14 -3 -15 -15 -5 -9 8 -15 9 -15 2
0 -6 -9 -9 -20 -7 -11 2 -22 -1 -26 -6 -4 -6 -11 -5 -20 2 -12 10 -15 10 -12
-2 2 -8 -3 -13 -9 -11 -7 1 -13 -3 -13 -8 0 -7 -6 -7 -20 0 -16 9 -19 8 -13
-6 5 -12 3 -15 -6 -9 -8 4 -17 2 -22 -6 -7 -11 -9 -11 -9 -1 0 7 -4 11 -10 7
-5 -3 -8 -11 -6 -18 1 -7 1 -9 -1 -4 -8 14 -32 7 -36 -10 -3 -13 -5 -10 -6 7
l-2 25 -9 -23 c-9 -20 -12 -21 -32 -11 -22 12 -22 11 -8 -6 14 -17 14 -18 -7
-6 -20 10 -23 9 -23 -6 0 -10 -4 -14 -8 -8 -9 13 -42 15 -39 3 2 -9 -25 -16
-70 -20 -7 -1 -10 -5 -7 -10 3 -4 0 -8 -6 -8 -6 0 -8 -5 -4 -11 4 -7 -1 -7
-16 1 -21 11 -22 10 -16 -6 6 -15 4 -16 -5 -7 -12 12 -45 0 -61 -22 -5 -6 -8
-5 -8 3 0 6 -5 12 -11 12 -5 0 -7 -4 -4 -10 6 -10 -7 -14 -32 -11 -7 1 -13 -4
-13 -10 0 -7 -3 -9 -7 -6 -3 4 -12 -1 -20 -11 -7 -9 -13 -12 -12 -7 3 24 -2
27 -17 9 -11 -14 -17 -16 -21 -6 -4 10 -9 9 -20 -5 -8 -10 -12 -12 -8 -5 3 6
2 12 -3 12 -6 0 -13 -7 -16 -16 -5 -14 -9 -14 -23 -3 -14 12 -16 12 -9 0 6 -9
5 -12 -5 -9 -8 3 -20 -2 -27 -11 -8 -9 -11 -10 -7 -3 3 6 1 12 -4 12 -6 0 -11
-6 -11 -12 0 -9 -3 -9 -8 -2 -4 5 -17 10 -29 10 -14 0 -19 -4 -13 -11 5 -7 -6
-10 -33 -10 -32 0 -41 -4 -39 -15 2 -11 -1 -11 -12 3 -12 15 -14 15 -19 2 -4
-8 -13 -12 -21 -9 -8 3 -17 0 -21 -5 -3 -6 -11 -9 -16 -6 -5 4 -9 1 -9 -5 0
-6 -4 -9 -9 -6 -5 4 -11 1 -13 -5 -2 -6 -26 -12 -53 -13 -27 -1 -50 -7 -53
-14 -2 -7 -8 -10 -13 -6 -5 3 -9 0 -9 -5 0 -6 -5 -11 -11 -11 -5 0 -7 5 -4 11
4 6 -3 5 -15 -3 -19 -11 -23 -11 -28 1 -3 10 -9 7 -19 -10 -11 -18 -13 -19 -9
-4 6 20 6 20 -9 1 -8 -11 -15 -14 -15 -7 0 7 -5 9 -10 6 -6 -4 -7 -12 -3 -18
4 -7 -1 -6 -10 2 -10 8 -19 12 -21 10 -2 -2 -9 -13 -15 -24 -9 -14 -11 -15 -7
-3 3 12 1 15 -10 11 -7 -3 -14 -10 -15 -17 0 -6 -4 -2 -8 8 -7 18 -8 18 -31
-5 -12 -13 -20 -19 -16 -12 3 6 2 14 -4 18 -5 3 -10 -2 -11 -12 0 -11 -3 -13
-6 -5 -4 10 -8 10 -21 0 -12 -10 -14 -10 -8 0 10 16 -5 15 -30 -3 -12 -8 -24
-12 -27 -8 -3 3 -14 2 -24 -2 -10 -4 -27 -8 -38 -9 -11 -1 -25 -5 -32 -9 -6
-4 -15 -2 -19 4 -5 8 -3 9 6 4 9 -5 11 -4 6 4 -6 8 -12 9 -20 2 -7 -6 -17 -7
-22 -3 -4 4 -2 -2 6 -13 15 -19 14 -19 -10 -4 -23 15 -27 15 -50 0 -17 -11
-22 -12 -16 -3 7 11 4 12 -11 3 -14 -7 -23 -7 -30 0 -7 7 -17 8 -30 1 -12 -7
-25 -7 -37 0 -16 9 -18 8 -13 -6 4 -11 3 -15 -4 -11 -18 12 -79 7 -96 -6 -14
-12 -16 -12 -8 0 6 11 4 13 -11 6 -10 -4 -29 -10 -42 -12 -23 -5 -31 -23 -10
-23 6 0 8 -3 5 -6 -4 -4 -13 -1 -21 5 -12 10 -14 8 -10 -11 2 -13 2 -17 -2
-10 -3 6 -12 12 -20 12 -9 0 -12 -5 -8 -12 5 -8 2 -9 -9 -5 -10 4 -16 2 -14
-6 1 -7 -6 -11 -16 -9 -10 2 -21 -6 -27 -20 -5 -13 -9 -17 -9 -9 -1 8 -14 1
-33 -18 -17 -17 -35 -31 -40 -31 -4 0 -8 -7 -8 -16 0 -9 -5 -12 -13 -8 -12 8
5 -17 30 -44 7 -7 13 -18 13 -23 0 -5 5 -9 11 -9 5 0 7 5 4 10 -3 6 -1 10 4
10 6 0 11 -10 11 -22 0 -19 2 -20 10 -8 8 13 10 12 10 -4 0 -10 8 -25 18 -32
16 -13 16 -14 -3 -7 -17 6 -18 5 -7 -9 10 -13 10 -18 1 -24 -8 -5 -9 -3 -4 6
5 9 4 11 -3 6 -8 -5 -9 -13 -2 -25 5 -10 7 -21 3 -24 -3 -4 2 -9 11 -13 9 -3
13 -10 10 -15 -3 -5 0 -9 5 -9 6 0 11 -7 11 -15 0 -17 34 -38 45 -27 4 4 3 -3
-3 -14 -13 -25 8 -52 29 -38 8 4 9 3 5 -5 -4 -6 -16 -9 -27 -6 -11 4 -19 2
-19 -4 0 -6 3 -10 8 -10 20 3 23 -3 11 -18 -7 -10 -10 -15 -5 -11 11 9 35 -14
28 -27 -3 -5 3 -3 13 5 10 8 16 11 14 5 -3 -5 2 -18 12 -27 12 -12 19 -13 23
-5 2 7 5 4 5 -5 1 -12 9 -18 23 -18 12 0 30 -8 41 -17 20 -17 20 -17 13 1 -6
18 -6 19 11 4 12 -10 25 -13 38 -8 11 4 23 6 28 3 4 -2 7 3 7 11 0 17 1 17 38
21 13 1 34 13 47 25 14 13 28 21 31 17 11 -10 45 13 38 25 -5 7 -2 8 5 3 7 -4
22 2 37 16 13 12 24 18 24 13 0 -5 -14 -19 -31 -30 -24 -17 -27 -23 -14 -28 9
-3 13 -2 10 4 -3 5 5 14 17 21 13 7 26 17 30 22 8 13 40 19 32 6 -3 -5 -9 -7
-13 -5 -4 3 -8 -2 -8 -11 0 -12 8 -7 26 14 22 27 29 30 46 20 17 -9 18 -9 7 5
-11 13 -8 15 19 12 23 -3 30 0 26 10 -6 15 17 16 30 1 4 -4 2 -5 -6 0 -10 5
-12 4 -7 -4 9 -15 27 -4 20 12 -2 7 4 13 16 14 13 1 18 -3 14 -10 -3 -7 2 -3
11 8 13 16 19 18 35 7 16 -10 18 -9 13 4 -5 14 -3 15 17 4 18 -10 21 -9 15 1
-6 9 -3 11 8 6 10 -3 17 -2 17 4 0 6 5 7 10 4 6 -4 17 -1 25 5 8 7 15 9 15 5
0 -4 7 -2 15 5 12 10 18 10 32 -1 14 -12 16 -12 8 0 -6 11 -4 13 10 7 14 -5
15 -3 7 6 -11 14 7 19 79 22 28 1 35 5 31 16 -5 13 -3 13 10 2 14 -11 18 -10
27 5 7 13 10 14 11 4 0 -11 4 -10 16 5 13 16 15 16 10 2 -3 -10 -1 -20 5 -23
5 -4 9 -3 8 2 -4 22 3 24 23 7 22 -19 22 -19 8 0 -14 18 -13 19 15 12 28 -7
29 -7 10 8 -20 15 -20 15 3 9 12 -3 22 -10 23 -17 0 -6 4 -1 10 12 5 15 13 20
21 16 20 -13 58 -11 47 2 -7 8 -2 10 17 6 21 -4 25 -2 19 9 -6 11 -5 11 5 2
16 -14 63 4 53 21 -4 6 1 5 11 -3 15 -13 19 -13 27 0 6 10 9 11 9 1 0 -7 5
-10 10 -7 6 4 8 10 5 15 -6 10 59 5 77 -6 8 -5 7 -1 -2 11 -8 10 -9 16 -3 11
7 -4 21 -2 31 3 13 7 22 7 30 -1 9 -9 12 -9 12 1 0 7 5 9 10 6 6 -3 10 0 10 7
0 9 3 9 10 -2 9 -13 10 -13 11 0 0 10 3 8 9 -5 7 -16 9 -17 9 -3 1 23 19 32
36 18 12 -10 15 -9 15 6 1 16 3 15 16 -6 8 -14 13 -17 10 -8 -3 10 -1 20 4 23
6 4 10 1 10 -5 0 -6 5 -8 10 -5 6 4 7 11 4 17 -4 7 0 7 12 0 22 -11 47 -5 38
9 -3 5 0 9 5 9 6 0 11 -6 11 -12 0 -9 4 -8 10 2 5 8 10 10 10 5 0 -6 16 -11
35 -11 19 0 35 5 35 11 0 5 4 4 9 -4 7 -10 12 -8 25 10 9 13 16 18 16 12 0 -7
-4 -15 -10 -18 -5 -3 -10 -11 -10 -17 0 -6 8 -1 19 10 10 12 22 18 26 14 5 -4
5 2 1 12 -5 15 -4 17 8 7 10 -8 16 -9 21 -1 4 7 13 5 28 -5 19 -13 23 -13 40
3 19 16 19 16 9 -4 -9 -16 -8 -21 3 -21 8 0 14 3 13 6 -2 19 4 24 13 11 9 -12
10 -11 6 6 -3 13 1 21 9 21 7 0 10 -5 7 -10 -3 -5 0 -7 8 -5 8 3 13 11 11 17
-1 7 2 10 8 6 6 -4 16 -3 23 2 19 14 67 16 67 3 0 -6 5 -8 10 -5 6 4 7 11 4
17 -4 6 -2 8 4 4 5 -3 13 0 16 6 3 7 3 2 0 -12 -5 -22 -4 -23 7 -9 15 18 54
35 44 20 -3 -5 0 -13 6 -17 8 -4 9 -3 5 4 -4 7 -2 12 4 12 6 0 9 4 5 9 -3 6 3
9 14 8 11 0 18 -4 15 -8 -2 -4 1 -11 7 -15 7 -4 9 -3 6 3 -4 6 1 17 10 24 12
10 14 10 9 2 -4 -7 -3 -13 3 -13 5 0 13 5 17 11 4 8 9 7 14 -2 7 -10 12 -10
23 0 12 9 16 9 19 0 3 -9 13 -6 34 7 23 15 26 15 16 2 -10 -12 -10 -18 -1 -24
8 -4 9 -3 5 4 -4 7 -1 12 9 12 10 0 13 5 9 12 -4 6 -3 8 4 4 5 -3 12 -3 15 1
2 5 2 2 1 -4 -2 -7 1 -13 6 -13 6 0 10 6 11 13 0 6 4 3 9 -8 5 -11 9 -15 9 -9
1 7 8 15 17 18 13 5 14 3 6 -7 -8 -10 -6 -13 8 -13 10 0 16 4 14 8 -3 4 4 8
15 8 12 0 23 0 26 0 3 0 21 9 41 20 21 12 33 15 29 8 -4 -7 0 -5 8 4 8 10 17
15 20 11 4 -3 7 -1 7 5 0 7 7 12 15 12 8 0 15 5 15 11 0 5 5 7 10 4 6 -3 10
-2 10 4 0 6 6 8 14 5 7 -3 16 2 20 11 3 10 13 15 20 12 8 -3 17 1 20 10 4 10
15 14 31 11 14 -3 25 -1 25 4 0 6 7 7 16 4 8 -3 13 -2 10 3 -3 5 1 12 10 15 8
3 13 2 9 -3 -8 -14 24 -6 38 9 10 12 9 12 -5 1 -15 -11 -18 -11 -18 1 0 8 10
14 25 14 17 0 24 -4 21 -13 -3 -7 -2 -13 3 -13 5 0 11 8 13 18 3 10 12 19 21
19 8 0 13 -6 11 -12 -3 -6 2 -12 10 -12 8 0 13 4 11 8 -3 3 6 9 20 11 13 3 22
2 20 -3 -3 -4 -1 -10 5 -14 5 -3 10 -1 10 6 0 9 3 9 14 0 10 -8 16 -9 21 -1 3
5 22 10 41 10 19 0 33 4 30 8 -3 5 1 9 8 9 7 0 13 -6 13 -13 0 -7 -5 -10 -10
-7 -6 4 -7 1 -2 -7 6 -10 12 -8 26 9 l18 21 6 -21 c6 -17 9 -19 16 -8 7 12 9
12 9 0 0 -11 3 -11 17 0 11 10 14 10 9 2 -7 -12 12 -18 38 -14 4 1 15 -4 24
-11 9 -7 13 -8 9 -2 -5 8 5 11 28 11 19 -1 35 -5 35 -9 0 -4 4 -8 10 -8 5 0 7
8 4 18 -5 14 -4 14 4 3 16 -22 52 -24 53 -3 0 14 2 14 9 -3 6 -13 9 -15 9 -5
1 13 2 13 11 0 6 -10 10 -11 10 -2 0 6 7 12 16 12 9 0 12 5 8 12 -4 7 -3 8 5
4 6 -4 9 -12 6 -17 -4 -5 -1 -9 4 -9 10 0 15 14 12 33 -1 5 3 6 9 2 6 -3 8
-11 4 -17 -3 -5 2 -8 12 -7 11 2 25 0 32 -5 11 -7 12 -4 3 13 -10 17 -9 20 4
15 9 -4 15 -1 15 7 1 10 4 9 10 -3 6 -9 18 -15 27 -13 66 13 73 16 68 28 -4 7
0 4 8 -6 14 -17 16 -17 32 5 10 13 15 16 12 6 -6 -18 15 -42 28 -30 5 4 5 1 1
-6 -6 -11 -12 -10 -29 5 -15 12 -18 13 -9 2 6 -9 10 -19 7 -22 -3 -4 -2 -5 2
-2 3 3 12 0 19 -6 8 -7 14 -7 19 1 5 8 11 7 23 -2 13 -11 14 -11 7 1 -6 11 -3
13 13 9 12 -4 20 -1 19 4 -1 6 4 13 11 15 6 3 12 -1 12 -9 1 -7 7 -2 15 12 8
14 14 19 15 12 0 -7 5 -10 12 -6 7 4 8 3 4 -5 -4 -6 -13 -8 -19 -5 -7 4 -8 3
-4 -1 13 -15 37 -14 37 1 0 8 5 14 11 14 5 0 8 -4 5 -9 -3 -5 1 -12 10 -15 8
-3 12 -2 9 4 -3 6 1 10 10 10 10 0 14 -5 9 -12 -6 -10 -4 -10 7 0 7 6 20 12
28 12 14 0 14 -2 1 -11 -13 -9 -13 -10 1 -6 9 3 22 0 28 -6 10 -9 12 -9 9 3
-2 8 -10 21 -18 28 -13 11 -12 11 7 3 12 -6 23 -15 25 -21 2 -6 13 -12 26 -15
12 -2 20 0 17 5 -3 5 -1 11 5 15 5 3 10 1 10 -4 0 -6 7 -11 16 -11 9 0 12 5 8
13 -6 9 -4 9 8 -1 10 -8 19 -9 22 -3 7 11 32 9 43 -4 4 -4 2 -5 -6 0 -10 6
-12 4 -6 -5 6 -10 11 -9 22 5 7 11 13 14 13 7 0 -6 7 -9 15 -6 8 4 12 11 8 18
-4 6 5 3 20 -7 25 -16 26 -16 20 0 -6 16 -5 17 12 3 10 -8 16 -10 12 -3 -6 9
2 10 29 6 27 -4 35 -3 30 5 -5 8 -2 10 8 6 9 -3 14 -9 11 -13 -2 -4 2 -8 10
-8 8 0 14 3 13 6 -2 20 4 22 17 5 8 -10 14 -14 13 -9 -2 6 2 11 7 12 6 0 9 -4
7 -10 -2 -6 6 -3 17 7 19 17 21 17 27 2 3 -9 10 -13 15 -10 5 3 9 1 9 -4 0 -6
7 -13 16 -16 14 -5 15 -4 4 9 -11 13 -10 14 4 9 9 -3 16 -10 16 -16 0 -5 5 -6
10 -3 6 4 8 12 4 18 -3 7 8 -3 25 -22 17 -18 31 -27 31 -20 0 11 2 11 8 1 13
-20 61 -25 68 -7 6 14 9 13 21 -5 8 -11 21 -20 29 -20 8 0 17 -7 20 -15 4 -8
11 -12 17 -8 5 3 7 2 4 -3 -3 -6 -2 -16 4 -24 6 -11 9 -12 9 -2 0 7 5 10 10 7
6 -4 7 -12 3 -18 -4 -8 -1 -8 9 1 13 11 16 10 14 -5 0 -11 12 -24 31 -34 18
-9 29 -20 25 -24 -4 -5 -1 -5 6 -1 7 4 20 2 29 -6 13 -10 17 -10 20 -1 4 10 8
9 20 -2 9 -10 24 -13 41 -9 l27 7 -23 -21 c-22 -20 -23 -21 -4 -19 12 0 18 5
15 11 -3 5 -1 6 6 2 8 -6 9 -12 2 -20 -8 -9 -4 -19 14 -34 14 -12 25 -19 25
-16 0 4 8 0 17 -7 11 -10 14 -10 9 -1 -4 6 -2 12 3 12 6 0 11 -6 11 -14 0 -8
5 -18 12 -22 7 -5 8 -3 3 7 -5 8 0 7 12 -4 11 -9 23 -14 27 -10 4 5 7 3 6 -2
-6 -28 0 -38 15 -25 13 11 14 10 9 -4 -3 -9 -1 -16 6 -16 6 0 8 -5 4 -12 -4
-6 -3 -8 3 -5 6 4 22 -4 36 -17 22 -21 26 -22 30 -6 2 9 11 17 20 17 9 0 14
-4 11 -9 -3 -5 -10 -5 -16 -2 -8 5 -9 -1 -4 -17 4 -13 7 -35 7 -49 -1 -20 1
-22 9 -10 6 9 10 10 10 3 0 -6 -5 -15 -11 -18 -6 -4 -8 -14 -5 -22 3 -8 1 -11
-4 -8 -16 10 -2 -54 17 -79 11 -15 14 -16 10 -3 -4 9 -2 17 3 17 6 0 10 -8 10
-18 0 -18 5 -20 54 -24 14 -1 22 -6 20 -10 -3 -4 2 -8 10 -8 9 0 16 -7 16 -15
0 -8 5 -15 11 -15 5 0 7 5 3 12 -5 7 -3 8 5 3 8 -5 11 -18 7 -37 -5 -24 -3
-28 7 -22 7 5 4 1 -8 -9 -39 -35 -55 -47 -55 -41 0 2 -13 -8 -28 -23 -16 -15
-27 -30 -26 -33 2 -6 -22 -29 -33 -33 -5 -1 -7 -6 -5 -10 1 -4 -5 -10 -13 -13
-8 -4 -15 -12 -15 -20 0 -8 -5 -13 -12 -12 -7 2 -12 -2 -13 -9 0 -7 -9 -19
-20 -27 -11 -9 -16 -16 -11 -16 6 0 1 -7 -10 -15 -19 -15 -19 -15 1 -8 11 3
17 3 13 -2 -4 -4 -2 -15 5 -23 10 -13 9 -15 -3 -8 -10 5 -10 3 2 -6 13 -11 14
-18 5 -33 -9 -17 -8 -18 4 -8 12 10 15 8 15 -7 0 -10 -5 -16 -11 -13 -5 2 1
-4 14 -15 18 -14 21 -21 11 -27 -9 -6 -11 -4 -5 5 6 9 4 11 -4 6 -9 -6 -8 -12
4 -26 16 -17 6 -38 -13 -26 -4 2 -8 -12 -8 -32 0 -26 -5 -36 -14 -34 -11 3
-11 0 0 -12 9 -11 9 -16 1 -16 -9 0 -9 -5 0 -21 6 -13 7 -19 1 -15 -6 3 -18
-1 -26 -10 -10 -10 -16 -11 -16 -3 0 8 -4 9 -13 0 -10 -7 -17 -7 -24 0 -7 7
-13 7 -17 1 -3 -5 -22 -6 -46 -2 -22 4 -40 4 -40 0 0 -5 -16 -7 -35 -5 -19 2
-35 -1 -35 -7 0 -5 -5 -8 -12 -6 -16 6 -49 -23 -41 -35 3 -6 2 -7 -4 -4 -5 3
-17 -3 -26 -14 -10 -11 -23 -17 -29 -13 -6 4 -8 3 -5 -3 3 -5 -7 -17 -24 -27
-16 -9 -29 -23 -29 -29 0 -9 -3 -8 -8 1 -12 19 -74 -26 -87 -63 -5 -17 -13
-32 -16 -35 -3 -3 -5 -13 -3 -22 2 -15 -1 -16 -17 -8 -10 6 -19 15 -19 21 0 6
-4 7 -10 4 -9 -6 -14 7 -11 27 0 4 -7 4 -17 1 -15 -6 -15 -5 -3 11 8 9 10 16
5 15 -21 -4 -34 2 -34 14 0 21 -35 45 -53 36 -10 -6 -18 -5 -22 2 -5 7 -14 4
-28 -8 -11 -10 -17 -12 -13 -5 4 6 2 12 -3 12 -6 0 -11 -5 -11 -11 0 -5 -6 -7
-12 -4 -7 4 -4 -1 7 -10 19 -16 19 -16 -8 -11 -21 4 -27 1 -24 -8 3 -7 -2 -20
-11 -29 -31 -29 -42 -46 -42 -64 0 -11 -3 -14 -8 -7 -5 9 -10 8 -19 -1 -9 -10
-9 -15 -1 -17 6 -2 -8 -4 -31 -4 -22 0 -41 4 -41 10 0 6 -4 5 -9 -3 -6 -9 -11
-10 -15 -2 -4 6 -12 8 -18 5 -5 -4 -30 -6 -54 -6 -25 1 -42 -3 -39 -8 3 -5 -4
-12 -16 -15 -15 -5 -18 -10 -10 -18 6 -6 11 -16 11 -21 0 -6 -5 -4 -10 4 -8
11 -10 7 -8 -17 1 -17 6 -29 10 -27 5 3 11 -2 14 -10 3 -8 14 -18 25 -21 11
-4 17 -10 14 -15 -3 -5 0 -12 6 -16 8 -4 9 -3 5 4 -4 7 -2 12 3 12 6 0 11 -5
11 -11 0 -5 6 -7 13 -3 8 5 8 2 -2 -9 -9 -11 -10 -17 -2 -17 6 0 11 -9 11 -21
0 -11 5 -17 10 -14 6 3 10 1 10 -5 0 -6 5 -8 13 -4 7 5 7 1 -3 -12 -8 -10 -11
-16 -6 -12 9 7 36 -13 31 -22 -7 -12 49 -9 57 2 5 8 7 3 4 -14 -3 -19 -1 -25
8 -22 8 3 16 -2 19 -10 4 -11 1 -13 -11 -10 -13 5 -14 4 -3 -4 7 -5 10 -15 7
-21 -4 -6 -4 -11 1 -10 34 6 66 -22 42 -36 -5 -4 -8 -1 -7 6 2 7 -6 14 -17 16
-16 2 -16 1 -4 -5 9 -4 15 -15 14 -24 -4 -22 20 -42 37 -32 11 6 11 5 0 -8
-10 -13 -10 -19 3 -31 8 -9 14 -20 13 -24 -2 -4 0 -9 5 -10 20 -7 48 -46 43
-60 -4 -10 -2 -13 7 -10 8 3 14 -1 14 -9 0 -7 -4 -11 -8 -9 -4 3 -10 -2 -13
-11 -3 -8 -2 -13 3 -10 5 3 12 -1 15 -10 4 -10 2 -13 -7 -8 -6 4 -4 -2 6 -13
9 -11 14 -23 10 -26 -3 -4 0 -7 8 -7 11 0 11 -2 -1 -10 -13 -8 -12 -10 3 -10
10 0 16 -4 12 -9 -3 -5 -1 -12 3 -15 5 -3 8 -17 7 -31 -2 -17 2 -25 13 -25 13
0 12 -3 -4 -16 -15 -13 -16 -15 -2 -10 12 3 15 1 11 -10 -3 -7 -1 -14 5 -14 6
0 8 -9 5 -21 -3 -12 0 -24 6 -29 11 -6 23 -52 25 -92 0 -10 4 -18 9 -18 5 0 4
-7 -3 -15 -7 -8 -8 -15 -4 -15 10 0 10 -63 -1 -79 -3 -6 -1 -11 5 -11 6 0 8
-5 5 -11 -4 -5 1 -19 10 -29 16 -18 16 -18 -7 -13 l-23 6 25 -22 c14 -12 20
-20 14 -17 -14 7 -26 -32 -13 -40 5 -3 6 -10 3 -16 -5 -7 0 -9 15 -5 18 4 20
3 10 -9 -8 -10 -8 -14 0 -14 6 0 11 -7 11 -15 0 -7 8 -19 18 -25 14 -9 13 -10
-8 -5 -21 5 -22 4 -7 -5 9 -6 15 -15 12 -21 -4 -5 -1 -9 5 -9 7 0 8 -6 0 -19
-7 -14 -7 -22 2 -27 7 -5 8 -3 3 6 -5 9 -4 11 4 6 9 -6 9 -11 0 -22 -9 -11 -9
-14 1 -14 10 0 10 -3 0 -15 -7 -8 -8 -15 -3 -15 6 0 9 -15 8 -32 -1 -18 1 -59
5 -90 3 -32 2 -58 -2 -58 -4 0 -8 5 -8 10 0 6 -5 10 -11 10 -5 0 -7 -5 -3 -12
4 -6 3 -8 -4 -4 -5 3 -12 3 -15 -1 -2 -5 -2 -2 -1 5 2 6 0 12 -4 12 -5 0 -19
10 -32 22 -18 17 -22 18 -17 5 3 -9 2 -19 -3 -22 -5 -3 -7 -14 -5 -25 2 -11
-1 -20 -7 -20 -5 0 -8 6 -5 14 3 8 -1 17 -10 20 -9 4 -13 9 -10 13 4 3 1 13
-6 22 -10 14 -10 14 5 3 9 -8 19 -9 22 -4 3 6 0 12 -8 15 -7 3 -16 15 -19 26
-4 17 -2 19 13 11 10 -5 20 -15 22 -22 3 -8 7 -6 11 5 3 9 3 16 -1 16 -18 -3
-24 2 -14 14 9 10 4 12 -23 12 -24 -1 -32 2 -28 12 4 10 9 11 16 4 6 -6 16
-11 21 -11 6 0 3 5 -7 11 -9 6 -15 14 -12 20 9 14 -2 11 -19 -7 -15 -14 -16
-14 -16 3 -1 17 -2 17 -16 -2 -16 -20 -16 -19 -9 4 5 15 3 21 -3 17 -12 -7
-46 23 -37 32 3 4 10 0 15 -8 6 -10 10 -11 10 -3 0 7 -9 17 -21 23 -12 7 -18
18 -15 26 4 11 2 12 -14 4 -13 -7 -21 -7 -25 0 -5 8 -11 8 -19 1 -9 -7 -16 -7
-23 0 -8 8 -13 7 -18 -2 -6 -8 -4 -10 6 -4 8 5 11 4 6 0 -4 -5 -28 -8 -52 -8
-40 1 -44 -1 -35 -16 6 -13 5 -18 -4 -18 -7 0 -13 7 -12 15 1 10 -10 16 -32
17 -35 2 -58 -17 -46 -36 4 -8 3 -9 -5 -5 -7 5 -9 16 -5 29 6 19 5 20 -8 9
-13 -10 -17 -10 -21 3 -5 11 -12 13 -32 5 -20 -8 -27 -6 -31 5 -7 18 -25 20
-20 3 1 -7 1 -10 -1 -5 -3 4 -9 4 -15 1 -5 -3 -12 3 -15 14 -3 14 -10 19 -21
15 -11 -5 -13 -3 -7 7 6 9 4 11 -5 5 -8 -5 -19 -1 -28 11 -14 19 -15 19 -8 0
6 -17 5 -17 -11 -5 -10 8 -21 19 -25 24 -5 6 -8 5 -8 -2 0 -7 -5 -13 -11 -13
-5 0 -7 5 -3 11 4 8 0 9 -15 4 -12 -4 -21 -2 -21 4 0 6 -7 8 -16 4 -9 -3 -19
0 -24 6 -4 7 -24 14 -45 15 -21 2 -43 10 -50 19 -9 13 -14 14 -24 4 -10 -9
-11 -8 -5 7 6 16 5 17 -14 7 -18 -9 -22 -9 -22 3 0 9 -7 13 -22 9 -19 -4 -20
-3 -8 7 12 9 11 10 -7 5 -13 -3 -23 -3 -23 2 0 5 -15 10 -32 11 -18 2 -36 9
-41 17 -4 8 -15 11 -24 8 -11 -4 -14 -3 -9 5 7 11 3 14 -26 16 -7 1 -15 4 -18
8 -3 4 -20 8 -37 10 -24 2 -30 6 -28 20 3 15 1 16 -16 8 -18 -10 -23 -6 -20
13 1 5 -4 5 -10 1 -6 -3 -15 -1 -19 6 -4 6 -19 13 -34 13 -14 1 -26 6 -26 10
0 5 -4 5 -10 2 -5 -3 -10 -1 -10 5 0 7 -6 10 -14 7 -8 -3 -17 -1 -20 6 -3 9
-5 9 -5 0 -1 -8 -9 -5 -22 8 -16 16 -23 18 -35 8 -12 -10 -13 -9 -8 5 5 12 2
15 -10 10 -8 -3 -23 2 -32 11 -9 9 -23 14 -30 11 -8 -3 -14 -2 -14 2 0 4 -10
9 -22 9 -13 1 -24 7 -26 13 -2 5 -8 10 -13 10 -6 0 -7 -6 -3 -12 4 -7 -2 -5
-14 6 -13 11 -30 16 -42 13 -11 -3 -18 -1 -14 4 3 5 -4 9 -16 9 -14 0 -19 4
-14 13 5 8 2 8 -9 -2 -11 -9 -17 -10 -17 -2 0 6 -9 11 -20 11 -11 0 -20 6 -20
13 0 8 -4 7 -10 -3 -7 -11 -10 -11 -10 -2 0 7 -4 10 -10 7 -5 -3 -10 -2 -10 4
0 6 -10 15 -21 22 -15 7 -19 8 -15 0 5 -7 1 -9 -8 -5 -9 3 -16 9 -16 13 0 4
-12 8 -26 9 -15 1 -34 8 -42 15 -13 10 -14 9 -7 -3 8 -13 7 -13 -10 0 -10 8
-27 15 -37 15 -10 0 -23 7 -28 15 -5 8 -12 11 -16 8 -3 -4 -13 0 -21 8 -8 8
-19 12 -24 9 -5 -4 -9 -1 -9 6 0 7 -3 9 -7 6 -3 -4 -15 1 -26 10 -15 13 -18
14 -12 3 7 -12 6 -13 -6 -3 -9 7 -26 14 -38 16 -13 2 -27 10 -32 18 -7 12 -9
12 -9 -1 0 -13 -2 -13 -9 0 -6 8 -7 18 -5 22 3 4 -3 5 -12 1 -12 -4 -15 -3
-10 5 5 8 1 10 -10 5 -11 -4 -15 -3 -10 5 4 7 -1 10 -14 7 -13 -2 -20 1 -20
11 0 8 -4 12 -10 9 -5 -3 -10 0 -10 7 0 9 -3 9 -10 -2 -8 -13 -10 -12 -10 4 0
13 -5 17 -20 13 -13 -3 -20 0 -20 8 0 8 -9 17 -20 20 -11 4 -18 11 -15 16 4 5
-3 9 -14 9 -12 0 -21 5 -21 11 0 5 -4 8 -9 5 -5 -3 -21 4 -37 16 -15 13 -24
16 -19 8 5 -8 -7 -3 -25 10 -18 13 -30 19 -26 12 4 -7 3 -12 -3 -12 -5 0 -13
5 -16 10 -4 6 -11 8 -16 5 -5 -4 -9 -1 -9 5 0 6 -4 9 -8 6 -5 -3 -26 1 -47 9
-22 7 -48 11 -57 10 -10 -2 -18 1 -18 6 0 6 -4 7 -10 4 -5 -3 -16 -3 -22 2 -7
4 -22 8 -33 8 -11 0 -25 3 -32 8 -6 4 -18 4 -27 1 -9 -3 -16 -2 -16 3 0 5 -13
8 -30 5 -24 -3 -30 -1 -30 14 0 15 -2 16 -9 5 -7 -11 -15 -11 -45 -1 -20 6
-34 16 -31 21 4 5 -4 5 -18 0 -14 -6 -28 -7 -31 -3 -10 10 -96 8 -96 -2 0 -5
-7 -3 -15 4 -12 10 -15 10 -15 0 0 -8 -9 -11 -25 -8 -13 3 -22 2 -20 -2 2 -4
-27 -7 -65 -6 -39 1 -70 -1 -70 -4 0 -3 -12 -6 -27 -7 -74 -5 -110 -10 -120
-16 -6 -4 -14 -3 -18 3 -4 7 -13 6 -27 -1 -16 -9 -23 -8 -29 2 -6 10 -9 10 -9
2 0 -7 -7 -10 -17 -6 -12 5 -14 3 -8 -7 6 -9 4 -11 -5 -5 -7 4 -16 2 -21 -6
-7 -11 -9 -11 -9 -1 0 8 -5 10 -12 5 -21 -12 -41 -13 -57 0 -12 10 -13 9 -6
-2 6 -11 3 -13 -13 -9 -12 4 -22 3 -22 -2 0 -4 -14 -10 -30 -12 -17 -3 -30 -1
-30 2 0 4 -19 4 -42 0 -29 -6 -45 -5 -50 3 -5 8 -8 6 -8 -5 0 -11 -6 -16 -20
-13 -11 2 -20 0 -20 -4 0 -9 -48 -26 -62 -23 -5 1 -8 -5 -8 -14 0 -13 -3 -14
-15 -4 -12 10 -16 9 -22 -6 -3 -11 -18 -29 -31 -42 -18 -17 -23 -19 -18 -6 5
14 4 15 -9 4 -8 -7 -12 -16 -9 -21 3 -5 -2 -6 -10 -3 -8 3 -24 -4 -35 -15 -13
-13 -21 -16 -25 -8 -3 9 -5 9 -5 0 -1 -7 -6 -13 -12 -13 -5 0 -7 6 -3 13 4 6
-2 4 -14 -7 -12 -10 -28 -16 -36 -13 -11 4 -13 1 -9 -11 6 -15 5 -16 -12 -2
-10 8 -16 10 -12 3 9 -14 -35 -29 -52 -18 -6 3 -11 -2 -11 -12 0 -14 -2 -15
-9 -4 -5 8 -11 9 -15 3 -3 -6 -17 -9 -31 -8 -13 2 -26 -2 -29 -9 -2 -7 -15
-12 -28 -11 -13 1 -31 -4 -40 -12 -15 -13 -18 -13 -18 -1 0 11 -2 11 -8 1 -9
-13 -44 -24 -74 -24 -10 1 -18 -5 -18 -11 0 -7 -4 -6 -10 3 -7 11 -10 11 -10
2 0 -7 -5 -10 -11 -7 -5 4 -20 -1 -31 -12 -12 -10 -18 -12 -14 -5 4 6 3 12 -3
12 -5 0 -13 -9 -16 -20 -4 -11 -11 -18 -16 -15 -5 4 -9 -1 -9 -9 0 -9 -6 -15
-12 -13 -7 1 -12 -4 -10 -11 1 -7 -5 -12 -15 -10 -10 2 -17 -2 -15 -10 1 -7
-5 -15 -13 -18 -8 -4 -15 -13 -15 -21 0 -8 -5 -11 -12 -7 -6 4 -8 3 -4 -4 3
-6 1 -14 -5 -17 -5 -4 -8 -13 -5 -21 3 -9 0 -11 -11 -7 -11 4 -14 2 -9 -5 4
-7 4 -12 -1 -12 -4 0 -14 -14 -21 -30 -9 -18 -18 -27 -25 -23 -7 4 -6 -1 2
-10 12 -15 11 -17 -2 -17 -11 0 -14 -5 -10 -17 4 -11 3 -14 -5 -9 -8 5 -10 2
-6 -8 4 -11 0 -16 -12 -16 -15 0 -16 -2 -5 -9 9 -6 10 -11 2 -15 -6 -4 -9 -12
-6 -17 4 -5 1 -9 -6 -9 -8 0 -9 -3 0 -14 9 -10 8 -16 -4 -26 -8 -7 -15 -20
-15 -29 0 -9 -7 -28 -14 -43 -9 -18 -11 -30 -5 -34 6 -3 3 -11 -7 -18 -12 -10
-14 -15 -5 -20 9 -6 9 -11 0 -23 -10 -11 -10 -16 0 -23 9 -5 10 -10 2 -14 -6
-4 -11 -14 -11 -22 0 -9 5 -12 12 -8 7 4 8 3 4 -4 -4 -7 -15 -12 -24 -13 -11
0 -12 -3 -4 -6 6 -2 12 -16 12 -29 0 -14 4 -22 10 -19 6 3 7 -1 4 -9 -3 -9
-11 -13 -18 -9 -6 4 -5 -1 3 -10 7 -9 10 -17 6 -17 -4 0 -2 -6 4 -14 9 -11 9
-15 -1 -19 -11 -4 -10 -6 0 -6 7 -1 11 -5 7 -10 -3 -5 2 -16 11 -25 8 -9 13
-20 10 -25 -4 -5 0 -15 7 -23 8 -7 12 -18 10 -25 -2 -6 0 -14 6 -17 6 -4 7
-14 4 -24 -6 -15 -5 -15 10 -4 14 12 16 11 12 -6 -2 -12 3 -23 11 -26 9 -3 12
-11 9 -16 -4 -6 -1 -9 7 -8 7 2 12 -2 11 -9 -2 -7 4 -10 13 -6 8 3 14 2 13 -3
-4 -21 2 -34 13 -31 7 1 12 -4 11 -10 -2 -7 4 -13 12 -13 8 0 15 -9 15 -21 0
-11 5 -17 10 -14 6 3 10 1 10 -5 0 -6 5 -8 10 -5 5 3 10 1 10 -4 0 -6 7 -11
15 -11 8 0 15 -6 15 -14 0 -8 5 -18 12 -22 7 -4 8 -3 4 4 -4 7 -3 12 2 12 5 0
12 -9 15 -21 3 -12 10 -18 16 -14 6 3 14 0 17 -9 3 -8 14 -13 25 -11 10 2 19
-1 19 -6 0 -6 5 -7 10 -4 5 3 10 2 10 -3 0 -6 7 -13 16 -16 11 -4 15 -2 11 7
-3 8 1 14 8 14 7 0 10 -8 8 -18 -4 -13 0 -17 14 -14 10 1 29 -4 42 -12 18 -12
22 -12 16 -2 -6 11 -5 12 6 2 17 -16 33 -17 23 -1 -4 6 3 4 15 -5 13 -8 30
-13 39 -10 11 5 13 3 7 -8 -7 -11 -6 -12 7 -2 8 7 17 11 19 9 9 -10 59 -14 54
-5 -4 5 -1 9 4 9 6 0 11 -6 11 -12 0 -9 4 -8 10 2 5 8 10 10 10 4 0 -17 28
-25 36 -12 4 6 3 8 -4 4 -6 -3 -13 -3 -16 2 -2 4 15 8 39 8 27 0 41 -4 37 -11
-3 -5 2 -4 11 4 12 10 17 10 17 2 0 -8 6 -7 16 3 8 9 19 14 24 11 5 -3 10 -2
13 2 2 5 2 3 1 -4 -2 -7 2 -15 8 -19 6 -4 8 -3 5 3 -4 6 1 17 10 24 15 12 16
12 9 -6 -6 -16 -5 -18 5 -7 16 15 33 16 23 0 -5 -7 -3 -8 5 -4 7 5 10 15 7 25
-4 9 3 5 13 -9 l20 -25 -6 25 c-6 24 -6 24 11 8 19 -20 31 -24 21 -8 -5 9 16
15 38 11 5 -1 6 3 3 8 -3 5 2 15 11 22 12 10 14 10 9 2 -4 -7 -2 -13 3 -13 6
0 11 5 11 10 0 6 6 10 14 10 8 0 23 14 33 30 10 17 28 33 40 36 13 4 20 11 16
17 -4 7 0 8 12 3 16 -6 16 -4 4 11 -8 10 -9 14 -2 10 10 -6 34 21 37 43 1 3 4
4 8 3 7 -3 12 21 9 40 -1 5 3 6 8 2 6 -3 7 -13 4 -22 -5 -13 -3 -13 13 3 13
12 16 22 10 26 -7 5 -4 8 7 8 10 0 15 4 12 10 -3 6 1 7 9 4 10 -4 16 -1 16 7
0 11 3 11 10 -1 8 -13 10 -13 10 1 0 9 7 20 16 23 15 6 15 4 3 -11 -13 -17
-13 -17 14 0 19 13 27 14 27 5 0 -8 5 -6 11 5 5 9 15 17 20 17 6 0 7 -6 3 -12
-4 -7 2 -5 13 5 11 9 23 14 28 10 4 -5 5 -2 1 5 -6 11 -11 11 -24 0 -15 -11
-15 -11 -5 3 7 9 23 15 35 14 33 -3 41 4 26 23 -12 14 -10 14 11 3 19 -11 22
-11 16 0 -6 9 -3 11 8 6 19 -7 32 8 16 19 -8 5 -9 3 -4 -6 5 -9 4 -11 -4 -6
-21 13 -1 27 22 14 21 -10 21 -10 7 7 -14 17 -14 18 9 6 13 -7 21 -9 17 -3 -3
5 1 13 10 16 10 4 13 2 8 -7 -5 -8 -2 -7 9 2 9 7 26 11 37 8 13 -3 20 0 20 9
0 8 5 14 11 14 5 0 7 -5 3 -11 -4 -7 2 -9 17 -7 15 2 24 9 23 20 -1 10 4 14
12 11 8 -3 12 -8 9 -12 -2 -4 2 -8 10 -8 8 0 13 3 10 5 -3 3 0 10 5 17 7 8 5
12 -5 12 -8 0 -11 -5 -8 -10 3 -6 2 -7 -4 -4 -11 7 -11 36 1 56 6 9 10 10 15
2 4 -6 17 -13 30 -16 12 -2 19 0 16 6 -4 5 -10 7 -15 4 -5 -3 -11 -1 -14 4 -4
5 2 8 11 6 10 -2 24 -4 31 -4 8 -1 10 -6 6 -13 -5 -8 -1 -8 10 1 15 13 19 13
27 0 5 -8 9 -9 9 -3 0 7 7 15 16 18 14 5 15 4 4 -9 -7 -9 -10 -18 -6 -22 3 -3
6 -1 6 6 0 9 8 11 25 7 28 -7 34 8 9 22 -15 8 -15 10 0 15 12 5 15 3 10 -5 -5
-8 -2 -9 9 -5 9 3 24 -1 32 -10 15 -15 16 -14 13 2 -2 13 9 26 35 40 20 12 34
26 30 30 -5 5 1 3 11 -5 18 -14 19 -13 13 3 -4 11 -2 17 8 17 18 0 18 4 4 33
-10 22 -10 22 6 2 17 -22 26 -21 38 1 4 8 13 14 20 14 8 0 8 -3 -1 -9 -11 -7
-10 -9 3 -14 9 -4 13 -3 10 3 -5 9 14 15 37 11 4 0 5 9 3 21 -4 17 -2 19 7 10
14 -14 32 -16 24 -3 -5 8 29 24 46 22 8 -1 5 20 -5 36 -5 7 4 11 27 10 19 0
33 -4 30 -8 -2 -4 5 -9 16 -12 13 -3 18 -1 13 6 -4 7 0 8 11 4 10 -4 20 -7 22
-7 3 0 2 -6 -2 -12 -6 -10 -5 -10 7 -1 12 10 18 10 29 0 10 -10 11 -9 5 2 -6
10 -4 12 4 7 6 -4 19 -2 27 5 12 10 13 9 9 -3 -4 -9 0 -15 10 -15 9 0 14 6 11
13 -8 21 10 26 25 7 10 -11 10 -14 2 -9 -9 5 -11 2 -6 -10 4 -11 8 -13 11 -6
2 7 9 9 15 5 6 -4 8 0 4 10 -3 10 -2 17 3 17 6 0 10 -7 10 -15 0 -18 16 -20
23 -2 4 10 6 10 6 0 1 -7 7 -13 15 -13 8 0 16 -4 18 -8 2 -4 18 -18 36 -31 18
-12 30 -26 27 -31 -3 -5 3 -7 14 -5 11 2 25 -3 32 -11 8 -10 15 -11 24 -4 9 8
15 8 20 0 3 -6 11 -7 17 -4 8 5 9 1 5 -10 -6 -14 -4 -15 15 -5 17 9 23 9 26 0
3 -9 7 -9 18 0 9 7 14 8 14 1 0 -11 18 -11 37 1 6 4 13 1 16 -5 3 -10 8 -9 22
2 17 13 18 13 10 0 -7 -13 -6 -13 7 -2 13 10 17 10 21 0 4 -10 8 -10 16 2 10
14 16 7 12 -14 -1 -5 5 -4 13 4 9 7 16 9 16 4 0 -5 18 -9 40 -9 22 0 40 4 40
9 0 5 8 2 17 -5 14 -12 16 -12 9 1 -4 8 -1 7 7 -3 11 -13 16 -15 20 -5 3 11 8
11 26 0 11 -7 21 -8 21 -4 0 5 7 9 15 9 8 0 11 -5 8 -10 -3 -6 7 -8 25 -5 27
4 30 2 19 -10 -10 -13 -9 -14 10 -4 16 9 24 9 29 0 5 -7 3 -8 -7 -3 -8 5 -11
4 -6 -1 4 -4 24 -7 44 -5 27 2 33 0 27 -11 -6 -10 -4 -10 10 1 9 8 15 20 12
27 -3 7 0 16 6 20 6 4 8 3 5 -3 -9 -15 25 -50 46 -47 9 1 17 -2 17 -7 0 -6 5
-7 11 -3 6 3 15 0 20 -7 7 -12 9 -11 9 1 1 11 4 10 15 -4 15 -20 15 -20 15 0
0 14 2 16 9 5 7 -11 9 -11 14 0 4 11 6 11 6 0 1 -10 9 -7 28 10 15 13 22 17
15 7 -9 -11 -10 -18 -2 -23 6 -3 7 -11 4 -17 -4 -7 -2 -8 4 -4 7 4 12 14 12
22 0 12 2 12 14 2 8 -7 12 -16 10 -20 -5 -8 23 -4 32 5 12 12 24 8 24 -7 0 -8
4 -18 10 -21 6 -4 7 1 3 12 -3 10 -3 15 2 11 4 -4 14 -3 21 3 8 7 14 6 20 -2
4 -8 3 -9 -4 -5 -8 5 -10 1 -5 -9 4 -12 8 -13 13 -5 5 7 13 9 20 5 8 -5 11 -4
7 2 -4 6 0 14 9 17 9 3 12 2 8 -5 -3 -6 1 -10 12 -9 32 4 45 0 40 -9 -7 -10
20 -9 30 1 10 10 54 -14 47 -25 -3 -6 -1 -7 5 -3 6 4 9 13 5 21 -3 8 0 15 7
15 6 0 9 -4 6 -8 -2 -4 -1 -14 5 -22 7 -12 9 -11 9 5 1 19 2 19 10 -1 6 -16
15 -20 34 -17 14 3 26 1 26 -4 0 -5 7 -10 15 -10 8 0 15 4 15 9 0 5 5 6 10 3
6 -4 8 -10 5 -15 -3 -4 5 -6 17 -2 16 4 19 2 13 -9 -8 -12 -6 -12 8 0 11 9 17
10 17 2 0 -6 5 -11 11 -11 5 0 8 4 5 8 -2 4 6 8 19 8 13 0 21 -4 18 -9 -3 -6
9 -8 29 -5 29 3 35 1 31 -12 -3 -10 1 -9 11 4 14 17 16 18 16 3 0 -9 5 -17 11
-17 5 0 8 4 5 8 -3 5 1 9 9 9 8 0 12 -4 9 -9 -8 -13 10 -10 25 5 10 8 12 8 7
0 -3 -6 -2 -14 4 -18 5 -3 10 2 10 12 0 14 2 15 9 4 5 -8 16 -11 25 -8 8 3 18
1 22 -5 5 -7 2 -8 -6 -3 -9 5 -11 4 -6 -3 4 -7 16 -12 27 -12 12 0 17 4 13 11
-3 6 6 3 22 -7 19 -13 25 -14 19 -5 -6 11 -4 13 7 8 9 -3 21 0 28 6 10 9 11 9
6 0 -5 -9 1 -13 18 -13 14 0 26 -6 26 -12 0 -9 3 -8 10 2 7 12 11 12 28 -3 14
-13 28 -16 46 -11 17 4 26 2 26 -6 0 -6 5 -8 10 -5 6 3 10 -2 10 -12 0 -15 2
-16 10 -3 8 13 10 13 10 -1 0 -22 24 -31 40 -16 9 9 11 9 7 1 -4 -7 3 -14 18
-18 14 -4 23 -11 20 -16 -4 -6 1 -7 11 -3 11 4 15 3 10 -5 -3 -6 -1 -14 5 -18
8 -5 9 -3 4 6 -6 10 -1 11 21 6 22 -5 26 -4 14 4 -13 9 -12 11 5 8 11 -2 20
-8 20 -15 0 -6 3 -15 7 -19 4 -3 6 2 4 13 -4 20 28 30 40 12 3 -6 12 -5 22 3
12 10 14 10 8 1 -4 -8 -1 -13 9 -13 9 0 14 4 10 9 -3 6 6 8 22 5 16 -3 35 -6
44 -7 12 -1 19 -32 9 -44 -7 -8 -5 -30 4 -41 7 -9 5 -12 -5 -10 -8 2 -13 -3
-11 -10 1 -7 -4 -27 -11 -45 -8 -17 -12 -38 -10 -44 3 -7 -1 -13 -7 -13 -9 0
-9 -5 1 -17 12 -15 12 -16 -3 -10 -11 4 -17 1 -17 -11 -1 -39 -5 -52 -13 -52
-5 0 -7 -4 -4 -9 4 -5 2 -21 -3 -34 -7 -18 -7 -27 2 -31 9 -3 8 -5 -1 -5 -7
-1 -10 -5 -7 -11 3 -5 1 -10 -6 -10 -7 0 -10 -3 -6 -6 3 -4 -5 -28 -18 -55
-14 -27 -25 -55 -25 -62 0 -19 -35 -49 -45 -40 -4 5 -5 2 -1 -4 4 -8 2 -13 -5
-13 -7 0 -9 -3 -6 -7 4 -3 -2 -13 -14 -21 -19 -13 -19 -15 -2 -28 16 -12 16
-13 1 -8 -22 7 -40 -4 -31 -19 11 -18 12 -36 2 -43 -6 -3 -7 -15 -4 -27 6 -21
5 -21 -8 -4 -11 13 -16 14 -19 5 -7 -19 2 -39 14 -32 7 5 8 2 4 -5 -5 -7 -14
-10 -20 -8 -7 3 -13 -1 -13 -9 0 -8 6 -13 13 -10 14 6 7 -25 -9 -35 -5 -3 -1
-9 8 -12 10 -5 14 -3 9 5 -4 7 -3 8 4 4 9 -5 9 -13 1 -28 -8 -15 -8 -19 0 -14
7 4 11 -1 11 -13 0 -13 7 -21 16 -21 10 0 14 -6 11 -14 -4 -10 0 -14 13 -11
11 2 22 -1 26 -6 3 -5 2 -9 -3 -8 -18 3 -33 -2 -33 -10 0 -6 10 -8 21 -6 21 4
21 4 4 -15 -14 -15 -15 -20 -4 -20 11 0 12 -2 1 -9 -17 -11 -17 -21 0 -32 10
-7 8 -9 -6 -9 -16 0 -17 -2 -5 -17 8 -9 9 -14 3 -10 -17 10 -11 -43 6 -54 13
-8 13 -10 0 -19 -13 -9 -13 -11 0 -20 11 -7 11 -10 2 -10 -7 0 -10 -4 -7 -10
3 -5 1 -10 -5 -10 -6 0 -8 -5 -5 -10 4 -6 2 -16 -3 -23 -12 -15 4 -61 18 -52
5 3 10 -1 10 -11 0 -13 3 -14 15 -4 12 10 14 8 10 -9 -2 -12 0 -19 6 -16 5 4
9 -1 9 -9 0 -9 4 -16 8 -16 5 0 9 7 9 15 0 8 -4 15 -9 15 -4 0 -8 8 -8 18 0
14 2 15 10 2 6 -10 10 -11 10 -2 0 6 5 12 11 12 8 0 8 -4 0 -14 -8 -10 -9 -16
-2 -21 7 -4 2 -20 -13 -43 -12 -20 -21 -43 -19 -49 3 -7 1 -13 -4 -13 -6 0
-10 -6 -10 -12 -1 -7 -4 -29 -7 -48 -4 -19 -7 -41 -8 -47 -1 -7 -5 -13 -10
-13 -5 0 -7 -4 -4 -9 4 -5 -8 -23 -25 -40 -18 -19 -27 -36 -23 -43 4 -7 4 -10
0 -6 -10 8 -36 -14 -29 -24 2 -5 -1 -8 -6 -8 -6 0 -11 -7 -11 -15 0 -9 -7 -18
-15 -21 -8 -4 -15 -12 -15 -20 0 -8 -4 -14 -10 -14 -5 0 -10 -7 -10 -15 0 -8
-4 -15 -9 -15 -5 0 -11 -9 -14 -20 -3 -13 -1 -18 6 -14 7 3 4 -1 -7 -10 -11
-9 -15 -20 -10 -28 4 -7 4 -10 -1 -6 -4 4 -20 -16 -34 -45 -14 -28 -30 -55
-36 -59 -6 -5 -5 -8 3 -8 7 0 10 -5 7 -10 -4 -6 -10 -8 -14 -6 -3 3 -8 -3 -9
-12 -5 -50 -10 -66 -20 -70 -7 -2 -12 -12 -12 -23 0 -11 -7 -22 -15 -25 -8 -4
-12 -10 -9 -15 3 -5 -2 -9 -10 -9 -9 0 -16 -6 -16 -14 0 -7 -7 -19 -15 -26 -9
-7 -14 -19 -11 -27 4 -8 1 -11 -5 -8 -6 4 -13 -2 -16 -14 -3 -12 -9 -21 -13
-21 -4 0 -10 -9 -13 -21 -4 -13 -10 -18 -18 -13 -8 4 -10 3 -5 -5 4 -6 0 -14
-9 -17 -13 -5 -13 -9 -3 -22 7 -9 8 -13 2 -9 -10 6 -17 -1 -54 -48 -12 -15
-12 -17 -1 -10 10 6 12 4 7 -4 -5 -7 -14 -10 -22 -7 -9 3 -11 0 -7 -11 5 -12
2 -15 -10 -10 -11 4 -14 2 -11 -8 3 -7 -4 -19 -16 -25 -11 -6 -18 -15 -15 -20
3 -5 -4 -11 -15 -15 -11 -3 -20 -11 -20 -17 0 -6 -3 -8 -7 -5 -3 4 -13 -2 -20
-13 -8 -11 -19 -18 -24 -15 -5 3 -6 -2 -2 -11 4 -12 3 -15 -5 -10 -7 4 -12 1
-12 -8 0 -8 -9 -18 -20 -21 -11 -4 -18 -11 -15 -16 4 -5 -1 -9 -10 -9 -9 0
-14 -3 -12 -7 6 -10 -19 -34 -27 -26 -3 4 -6 -3 -6 -15 0 -16 -4 -20 -17 -15
-10 4 -14 2 -9 -5 3 -6 -2 -16 -13 -22 -13 -7 -18 -16 -14 -27 4 -11 3 -14 -5
-9 -8 4 -12 0 -12 -11 0 -14 -2 -15 -9 -5 -11 17 -25 -14 -14 -31 4 -7 -1 -6
-10 2 -15 12 -17 12 -11 -3 4 -9 3 -16 -2 -14 -5 2 -9 -1 -9 -5 0 -11 -48 -37
-57 -31 -4 3 -5 -2 -2 -10 4 -9 1 -16 -6 -16 -7 0 -10 -7 -6 -15 3 -8 2 -14
-2 -14 -18 3 -32 -2 -32 -12 0 -5 6 -7 13 -3 8 5 8 3 -2 -9 -7 -9 -17 -15 -21
-12 -5 3 -12 -4 -15 -16 -6 -17 -9 -19 -16 -8 -7 11 -9 10 -9 -4 0 -10 -4 -15
-10 -12 -5 3 -10 1 -10 -5 0 -7 -6 -10 -14 -7 -10 4 -14 0 -11 -13 2 -13 -1
-17 -10 -14 -10 4 -13 0 -10 -15 2 -12 0 -19 -4 -17 -4 3 -17 -1 -27 -9 -19
-15 -18 -15 1 -9 17 4 16 3 -3 -8 -16 -10 -19 -17 -11 -25 7 -7 3 -10 -15 -8
-15 2 -24 0 -21 -5 3 -4 -2 -13 -10 -20 -8 -7 -12 -17 -8 -23 4 -7 0 -8 -12
-3 -18 6 -18 6 1 -16 16 -20 17 -21 1 -8 -20 15 -42 -3 -29 -25 3 -5 -3 -3
-13 5 -17 14 -18 13 -12 -2 7 -20 -3 -24 -19 -8 -7 7 -11 6 -11 -5 0 -8 4 -15
9 -15 4 0 8 -5 8 -10 0 -7 -6 -7 -19 -1 -14 8 -21 5 -31 -14 -7 -14 -17 -25
-22 -25 -5 0 -6 -6 -2 -12 5 -8 0 -7 -11 2 -11 9 -16 10 -11 3 4 -7 2 -13 -3
-13 -6 0 -11 -6 -11 -14 0 -8 -7 -16 -15 -19 -8 -4 -12 -15 -10 -26 2 -13 -1
-18 -10 -15 -7 3 -16 0 -21 -7 -4 -7 -3 -10 3 -6 6 4 17 -1 24 -11 11 -14 11
-15 0 -5 -16 14 -41 6 -41 -14 0 -8 -4 -11 -10 -8 -5 3 -10 0 -10 -8 0 -10 -8
-14 -22 -11 -13 2 -17 1 -10 -2 16 -8 -13 -44 -35 -44 -8 0 -12 -4 -9 -9 4 -5
0 -11 -6 -14 -10 -3 -10 -8 2 -23 14 -17 13 -18 -1 -7 -10 8 -19 9 -27 3 -9
-7 -9 -7 -2 2 5 7 10 17 10 22 0 6 -8 -1 -18 -17 -10 -15 -23 -24 -27 -20 -5
5 -3 0 4 -10 12 -15 12 -17 -2 -11 -10 3 -20 -2 -27 -15 -6 -12 -17 -21 -25
-21 -8 0 -15 -7 -15 -16 0 -8 -5 -12 -10 -9 -6 3 -13 -1 -16 -9 -3 -9 -11 -13
-18 -9 -6 4 -5 -1 3 -10 12 -15 12 -17 -4 -11 -12 5 -16 4 -11 -4 4 -7 -3 -14
-19 -18 -14 -3 -25 -10 -25 -15 0 -5 8 -6 18 -3 13 5 14 4 3 -4 -8 -6 -21 -8
-29 -4 -11 4 -13 2 -7 -8 6 -10 4 -12 -10 -6 -18 6 -18 6 1 -16 11 -13 12 -17
3 -10 -12 9 -19 9 -35 -4 -10 -8 -13 -13 -6 -9 22 11 13 -2 -14 -20 -15 -9
-23 -11 -19 -4 6 8 4 10 -4 5 -7 -5 -10 -14 -7 -22 3 -9 0 -11 -11 -7 -12 5
-14 3 -8 -7 6 -10 4 -12 -9 -7 -10 4 -15 3 -11 -3 3 -6 1 -10 -5 -10 -6 0 -8
-5 -5 -11 4 -6 1 -9 -6 -8 -21 3 -50 -12 -43 -22 3 -5 -3 -9 -13 -10 -10 0
-13 -3 -5 -6 13 -5 17 -24 5 -21 -18 5 -49 -14 -58 -34 -6 -13 -17 -22 -25
-20 -11 3 -11 0 -1 -12 11 -13 10 -15 -8 -11 -14 2 -21 -1 -21 -11 0 -9 -5
-12 -12 -8 -8 5 -9 2 -5 -10 4 -9 3 -15 -1 -12 -10 6 -51 -17 -51 -29 -1 -5
-5 -10 -10 -10 -16 0 -50 -42 -43 -51 4 -5 -2 -2 -13 6 -11 8 -17 11 -13 6 4
-5 0 -15 -8 -23 -8 -8 -12 -19 -9 -24 4 -5 -1 -6 -9 -3 -8 3 -19 -3 -26 -15
-6 -12 -18 -21 -26 -21 -11 0 -14 -6 -10 -16 3 -8 2 -12 -4 -9 -6 3 -10 1 -10
-5 0 -6 -4 -9 -9 -6 -5 3 -12 -1 -15 -10 -3 -8 -10 -13 -15 -9 -6 3 -8 -3 -6
-14 2 -14 -1 -18 -11 -14 -8 3 -14 0 -14 -7 0 -7 -7 -10 -16 -6 -8 3 -12 2 -9
-4 3 -6 -1 -10 -10 -10 -9 0 -13 -5 -10 -10 3 -5 1 -10 -5 -10 -6 0 -8 -5 -5
-10 4 -6 1 -9 -7 -8 -7 2 -12 -3 -10 -11 3 -12 0 -12 -12 -1 -14 10 -16 10
-16 -5 0 -11 -5 -15 -14 -12 -11 4 -13 1 -9 -10 4 -10 2 -14 -4 -10 -6 4 -14
0 -17 -9 -3 -8 -10 -12 -16 -9 -6 3 -13 -1 -16 -10 -6 -13 -8 -14 -15 -3 -7
10 -9 9 -9 -4 0 -9 -5 -20 -12 -24 -7 -5 -8 -3 -3 5 5 10 2 9 -13 0 -12 -7
-18 -17 -15 -23 4 -5 -1 -7 -10 -3 -10 4 -17 2 -17 -4 0 -6 -7 -9 -15 -6 -8 4
-17 1 -21 -5 -5 -7 -2 -8 6 -3 9 6 11 4 5 -4 -4 -7 -15 -11 -25 -8 -13 3 -16
0 -13 -17 4 -17 3 -18 -6 -6 -9 13 -11 13 -11 -2 0 -12 -5 -15 -17 -11 -11 4
-14 3 -9 -5 4 -7 2 -12 -4 -12 -7 0 -10 -7 -7 -14 4 -11 1 -13 -10 -9 -13 5
-15 2 -9 -13 6 -15 5 -17 -5 -6 -19 18 -34 15 -18 -5 12 -15 12 -16 -4 -10
-11 4 -16 3 -12 -4 8 -12 -14 -41 -26 -33 -5 3 -6 -3 -2 -12 4 -11 2 -15 -4
-11 -6 4 -9 -4 -7 -19 2 -19 -1 -24 -13 -20 -11 4 -13 2 -10 -9 4 -8 2 -17 -3
-20 -6 -4 -10 -11 -10 -16 0 -6 5 -7 12 -3 7 4 8 3 4 -5 -4 -6 -12 -9 -17 -6
-5 4 -12 -7 -15 -24 -4 -17 -10 -28 -14 -26 -5 3 -7 -6 -6 -19 2 -17 -1 -23
-10 -19 -9 3 -12 -2 -9 -16 2 -14 -1 -21 -11 -21 -14 0 -13 -2 0 -16 18 -17
21 -28 7 -19 -6 3 -9 -7 -7 -22 1 -20 7 -28 19 -27 14 2 15 -1 6 -12 -7 -8
-10 -16 -8 -18 2 -1 15 -11 29 -21 14 -9 17 -15 8 -12 -10 4 -18 2 -18 -3 0
-19 -2 -25 -12 -37 -6 -7 -7 -13 -2 -13 5 0 5 -4 -1 -8 -19 -13 -42 -47 -26
-37 10 5 12 4 7 -3 -4 -7 -14 -12 -23 -12 -13 0 -13 -3 -3 -15 7 -9 10 -18 6
-22 -3 -3 -6 0 -6 8 0 8 -7 1 -15 -15 -8 -15 -15 -35 -15 -43 0 -8 -4 -11 -10
-8 -6 3 -7 -1 -4 -9 3 -9 2 -16 -4 -16 -6 0 -9 -11 -7 -25 1 -14 -3 -25 -9
-25 -6 0 -5 -4 3 -9 11 -7 11 -13 0 -32 -11 -22 -11 -23 5 -10 15 12 17 12 14
0 -2 -8 4 -14 13 -13 9 1 16 -5 16 -12 0 -7 -4 -11 -9 -8 -23 14 9 -33 44 -64
9 -9 14 -20 11 -25 -3 -5 3 -5 13 1 11 5 24 7 31 5 6 -2 14 1 18 6 3 6 0 9 -7
6 -9 -4 -14 2 -14 14 0 17 2 17 23 4 21 -14 23 -13 34 11 10 20 15 23 26 15
11 -10 12 -8 6 7 -6 17 -5 18 11 5 15 -12 17 -12 14 0 -2 8 3 13 12 11 9 -1 6
6 -9 18 -13 11 -18 20 -12 20 6 0 11 5 11 11 0 5 -6 7 -12 3 -9 -5 -8 -2 1 9
10 12 17 14 26 7 13 -11 27 0 38 33 4 11 12 15 18 11 8 -4 9 -3 5 5 -4 6 -11
9 -15 7 -4 -3 -8 1 -8 9 0 13 5 12 26 -2 24 -15 25 -15 12 0 -11 14 -11 18 4
23 10 4 21 1 26 -7 5 -8 9 -10 9 -5 0 5 -7 17 -14 25 -11 12 -12 21 -5 31 8
12 9 12 7 -4 -2 -10 2 -21 8 -23 12 -4 15 25 5 42 -3 6 4 0 16 -14 12 -14 20
-28 17 -33 -3 -4 -1 -8 4 -8 5 0 12 9 15 21 3 12 10 18 16 14 6 -3 14 1 17 9
5 14 8 14 29 0 22 -14 23 -14 18 5 -3 12 -10 18 -17 14 -6 -4 -6 0 2 9 7 8 9
24 6 34 -6 17 -5 17 9 -1 9 -11 17 -15 17 -10 0 6 5 3 10 -5 8 -13 10 -12 10
4 0 12 -5 16 -16 12 -8 -3 -12 -2 -9 3 3 5 1 12 -5 16 -5 3 -10 12 -10 18 0 8
4 7 9 -2 19 -29 79 -16 67 15 -3 7 2 15 10 18 8 3 14 0 14 -7 0 -6 8 0 17 13
10 14 17 28 15 33 -1 4 3 7 10 7 6 0 8 3 5 6 -4 4 3 15 15 25 27 24 36 24 14
0 -15 -16 -15 -19 -2 -24 11 -4 13 -1 9 10 -4 10 -2 14 4 10 12 -8 12 18 0 29
-4 4 -7 12 -7 18 0 6 4 4 10 -4 7 -12 12 -12 28 4 20 18 23 39 7 53 -4 4 -5 2
0 -6 5 -9 4 -12 -3 -7 -7 4 -12 3 -12 -3 0 -5 5 -11 11 -13 7 -2 6 -8 -4 -17
-14 -11 -16 -9 -15 11 2 24 34 68 52 68 5 0 1 -7 -10 -16 -14 -12 -15 -14 -3
-11 9 3 23 0 30 -6 11 -10 11 -9 0 6 -11 14 -11 17 0 17 12 0 12 2 1 9 -11 7
-10 9 3 15 9 3 14 10 10 15 -3 5 -1 12 5 16 11 7 4 25 -10 25 -5 0 -7 -7 -4
-15 4 -8 2 -15 -3 -15 -5 0 -9 11 -9 24 0 25 7 25 36 0 12 -10 19 -10 34 2 11
8 14 14 8 14 -7 0 -12 5 -12 11 0 6 7 9 15 5 8 -3 14 0 12 7 -1 7 4 11 11 9 8
-1 11 2 7 8 -7 11 -28 0 -52 -28 -9 -11 -15 -11 -30 -2 -15 9 -15 11 -1 6 17
-5 45 19 31 26 -4 3 -2 3 6 1 7 -2 19 1 26 7 7 6 19 9 26 8 8 -2 13 3 11 10
-1 6 2 12 8 12 5 0 10 4 10 10 0 5 -6 8 -12 6 -7 -1 -10 -1 -5 1 4 3 5 9 2 13
-8 13 34 3 54 -12 10 -8 9 -5 -3 10 -31 36 -28 49 10 47 18 -1 31 2 28 6 -2 4
-1 9 3 12 5 2 3 2 -4 1 -7 -2 -10 3 -6 12 3 9 13 14 24 11 10 -3 17 0 16 7 -1
6 4 10 11 8 8 -1 11 2 8 7 -4 5 2 14 11 20 10 6 14 11 9 11 -6 0 -21 -10 -35
-22 -14 -13 -20 -16 -13 -7 6 9 8 20 4 24 -4 5 -1 5 6 1 9 -5 15 -1 19 14 4
16 8 18 14 9 4 -8 12 -10 16 -5 4 4 -1 14 -11 22 -11 8 -15 14 -9 14 7 0 14
-4 18 -9 10 -17 41 -8 42 12 2 18 1 18 -11 2 -11 -16 -13 -16 -27 2 -13 16
-12 17 2 5 14 -10 18 -10 23 4 6 15 8 15 28 -2 13 -12 18 -13 13 -4 -14 23
-14 37 0 37 7 0 12 -5 11 -11 -2 -6 -1 -8 1 -3 3 4 9 4 15 1 6 -4 6 1 -1 13
-9 18 -7 20 12 18 31 -2 40 5 27 20 -8 9 -8 15 0 20 5 3 13 -1 16 -10 5 -13 9
-14 15 -4 4 7 3 19 -3 26 -14 17 7 44 28 36 10 -4 12 0 8 13 -6 18 -6 18 8 1
13 -17 15 -18 28 -2 9 11 15 13 20 5 5 -8 9 -7 13 4 3 8 1 18 -5 22 -7 4 -8 3
-4 -4 5 -8 1 -10 -9 -5 -12 4 -13 8 -5 13 7 4 17 14 22 21 8 11 9 10 4 -4 -6
-19 18 -25 29 -7 4 6 11 7 17 4 6 -4 5 3 -2 16 -6 12 -9 24 -6 28 3 3 6 1 6
-5 0 -5 7 -10 15 -10 12 0 12 3 2 15 -11 13 -9 14 13 2 23 -12 24 -12 11 4
-12 14 -12 16 3 10 19 -7 22 11 4 20 -7 4 -3 4 9 2 34 -6 78 31 61 52 -10 12
-10 14 -1 8 7 -4 23 -2 35 5 l23 12 -20 -23 -20 -23 23 14 c12 8 22 21 22 31
0 9 5 20 11 24 8 4 9 -1 4 -17 -4 -16 -3 -20 3 -11 5 8 13 13 18 11 5 -1 14 8
20 20 7 13 17 28 24 34 9 9 11 9 7 1 -4 -7 -1 -14 7 -17 9 -4 13 0 12 11 -4
23 25 44 41 30 19 -15 16 2 -4 26 -13 15 -10 14 10 -3 15 -14 27 -19 27 -12 0
7 5 9 12 5 7 -4 8 -3 4 5 -4 6 -11 9 -16 6 -5 -3 -11 -1 -14 4 -8 12 37 8 47
-4 5 -6 7 0 4 13 -3 12 -1 20 3 17 5 -3 12 -1 15 5 5 8 11 8 20 0 18 -15 38
-3 30 17 -5 14 -3 14 12 2 14 -12 16 -12 8 0 -6 11 -4 13 10 7 15 -5 16 -4 5
9 -7 8 -17 12 -23 8 -6 -3 -7 -1 -3 5 5 9 14 7 31 -4 23 -15 24 -15 20 5 -5
25 12 28 18 3 4 -16 5 -16 6 1 0 10 6 15 11 12 6 -4 9 -1 8 6 -2 6 7 12 19 14
13 1 26 5 30 10 5 4 0 5 -9 2 -12 -4 -15 -2 -12 8 3 8 9 14 12 13 23 -3 42 3
37 12 -3 6 -1 11 4 11 32 4 36 6 34 15 -1 6 5 11 13 11 12 0 11 -4 -2 -18 -9
-10 -21 -16 -25 -13 -5 3 -9 0 -9 -5 0 -19 18 -12 43 19 16 19 27 25 30 17 4
-7 6 -6 6 4 1 18 35 52 43 44 3 -3 15 -8 28 -10 17 -3 19 -1 11 9 -11 13 -5
26 11 26 5 0 6 -5 2 -12 -4 -7 -3 -8 5 -4 6 4 8 12 5 18 -5 8 -1 9 11 4 15 -5
16 -4 6 8 -10 12 -9 14 7 9 11 -2 23 1 27 8 5 7 4 10 -2 6 -12 -7 -10 29 2 40
4 5 5 3 2 -3 -4 -7 0 -17 8 -24 12 -10 16 -9 21 4 5 13 9 14 20 5 12 -10 13
-8 8 6 -5 13 -4 16 4 11 8 -4 10 -2 6 8 -6 15 42 54 53 42 3 -3 1 -6 -6 -6 -7
0 -9 -5 -5 -11 9 -14 34 29 27 47 -6 16 14 27 23 13 4 -8 3 -9 -4 -5 -7 4 -12
2 -12 -3 0 -20 25 -10 47 18 l23 29 -36 -4 c-20 -2 -34 -1 -31 2 6 7 34 12 65
13 15 1 26 8 29 20 3 11 11 17 18 15 7 -3 16 0 21 7 4 8 3 10 -4 5 -7 -4 -12
-2 -12 5 0 7 8 9 21 6 17 -4 18 -3 8 9 -10 12 -9 13 7 7 16 -6 17 -4 6 9 -10
13 -9 15 13 13 14 -2 23 1 20 5 -3 5 -1 11 4 15 6 3 7 13 4 23 -3 9 -2 14 2
10 5 -5 13 2 19 15 8 15 20 22 39 21 14 -1 24 3 21 8 -3 4 -10 6 -15 3 -5 -3
-6 1 -3 9 3 8 14 13 23 11 14 -3 17 2 15 22 -1 14 0 22 3 19 4 -3 13 0 22 6 9
7 7 2 -4 -11 l-20 -25 27 20 c18 13 23 23 17 31 -7 7 -6 14 2 19 8 4 9 3 5 -4
-4 -7 -1 -12 9 -12 12 0 15 5 11 16 -4 12 -2 15 9 10 9 -3 15 0 15 10 0 9 -5
12 -12 8 -7 -4 -8 -3 -4 5 6 9 11 9 24 -1 13 -11 14 -11 7 1 -6 11 -4 13 7 8
13 -4 15 1 14 24 -1 17 2 33 7 36 6 3 7 1 4 -4 -4 -6 0 -13 8 -16 10 -4 12 -1
8 10 -5 12 -3 14 8 8 12 -7 12 -6 1 7 -11 14 -10 16 6 11 24 -6 57 34 42 52
-7 8 -5 12 5 12 8 0 12 -4 9 -9 -3 -4 1 -8 9 -8 8 0 18 7 21 16 3 8 2 12 -3 9
-5 -3 -13 0 -17 6 -4 7 -3 9 4 5 6 -3 13 -2 17 3 3 6 13 7 23 4 14 -6 15 -4 4
9 -10 13 -10 18 -1 24 8 4 9 3 5 -4 -4 -7 -1 -12 8 -12 8 0 18 9 21 21 4 13
12 18 22 15 11 -4 13 -2 9 9 -4 11 1 15 18 15 12 0 30 8 39 18 19 21 22 37 5
26 -7 -4 -8 -3 -4 5 6 8 12 9 20 2 13 -11 64 34 53 46 -3 3 -13 -7 -23 -21 -9
-15 -19 -24 -22 -22 -2 3 7 19 22 36 14 17 26 27 26 21 0 -6 4 -11 9 -11 5 0
7 10 4 22 -4 19 -3 20 6 8 10 -14 16 -7 12 13 -1 5 7 6 18 2 14 -4 21 0 26 15
3 11 11 20 16 20 6 0 7 5 4 10 -4 6 -12 7 -18 4 -7 -4 -8 -3 -4 2 5 5 16 9 24
9 9 0 18 6 21 14 3 10 0 11 -9 5 -12 -6 -12 -5 0 10 8 9 20 15 28 12 7 -3 13
-1 13 4 0 10 -15 14 -35 10 -5 -1 -6 2 -2 7 12 11 40 10 50 -2 5 -6 7 0 4 12
-5 22 11 28 24 10 3 -5 9 -1 12 8 4 9 3 13 -3 10 -6 -3 -10 -2 -10 4 0 6 -8 8
-17 4 -15 -5 -14 -3 2 10 14 11 24 12 32 5 9 -7 17 -5 28 6 19 19 5 22 -14 3
-8 -6 -6 0 3 14 9 14 13 29 9 33 -4 4 1 4 11 0 14 -5 15 -9 4 -15 -9 -6 -9 -9
-1 -9 23 0 26 23 4 39 -21 16 -21 17 -2 17 11 0 18 -3 15 -7 -5 -9 22 -20 30
-12 3 3 -2 17 -11 32 -9 15 -9 19 -2 10 8 -9 20 -14 27 -12 8 3 10 -2 6 -14
-5 -15 -4 -15 5 -3 6 9 7 18 1 24 -13 13 -13 26 1 26 5 0 8 -4 4 -9 -3 -6 4
-9 14 -8 18 1 19 3 5 18 -9 11 -11 19 -5 23 5 4 14 -2 20 -11 13 -23 14 -8 1
17 -7 13 -5 21 7 31 12 10 15 10 9 2 -4 -7 -3 -13 2 -13 15 0 22 28 9 34 -7 2
-4 5 7 5 18 1 18 2 -1 19 -10 9 -14 14 -9 9 15 -10 36 -9 36 4 0 5 -6 7 -12 3
-7 -4 -5 2 5 13 9 11 14 23 10 28 -5 4 3 2 16 -5 13 -6 21 -7 17 -2 -3 6 -3
12 1 15 5 2 3 2 -4 1 -7 -2 -10 3 -7 11 3 7 14 12 24 10 13 -3 17 1 13 12 -5
12 -7 12 -14 1 -6 -9 -9 -9 -9 -1 0 6 5 15 10 18 6 4 7 11 4 17 -4 7 -2 8 4 4
15 -9 16 6 2 22 -6 6 -7 10 -3 7 3 -3 15 3 26 12 12 11 17 12 12 4 -5 -9 -4
-12 3 -7 6 4 8 14 5 23 -4 11 -3 14 5 9 8 -5 10 -2 6 8 -3 9 -10 13 -15 10 -5
-3 -6 2 -3 10 5 14 8 14 21 1 19 -20 29 -19 13 0 -9 10 -9 15 -1 15 6 0 11 5
11 11 0 5 -4 8 -9 4 -5 -3 -12 -1 -15 4 -7 10 13 9 30 -1 11 -7 10 54 -1 72
-3 5 0 7 8 4 9 -3 16 3 19 14 4 16 1 19 -16 15 -18 -3 -18 -2 2 7 13 5 28 8
33 5 5 -4 6 0 3 8 -3 8 0 18 5 22 6 3 8 11 5 17 -5 8 -1 9 10 5 10 -4 15 -3
11 3 -3 6 -13 10 -21 10 -17 0 -19 16 -2 26 7 4 8 3 4 -4 -4 -7 -2 -12 3 -12
10 0 13 14 10 36 0 4 5 10 11 14 7 4 9 13 6 19 -4 6 -13 8 -19 4 -7 -4 -6 0 2
10 14 17 26 24 17 9 -3 -5 1 -9 8 -9 8 0 12 6 9 14 -3 7 -10 13 -16 13 -6 0
-3 6 8 13 14 11 15 16 5 22 -9 5 -11 4 -6 -3 4 -7 2 -12 -3 -12 -14 0 -14 17
-1 25 6 4 8 11 5 16 -3 5 1 6 11 2 14 -5 15 -3 4 16 -18 35 -21 62 -5 59 7 -2
15 2 17 7 2 6 -7 11 -19 13 -13 2 -23 7 -23 12 0 4 10 6 23 3 12 -3 18 -1 12
4 -6 4 -9 19 -7 33 1 14 4 32 5 41 1 9 6 15 12 13 6 -3 11 6 12 18 2 19 0 20
-8 8 -9 -12 -10 -12 -5 3 3 10 6 21 6 23 0 3 5 2 11 -2 8 -4 8 0 0 15 -7 12
-9 26 -6 31 4 6 0 13 -8 16 -10 4 -14 17 -12 41 1 22 -3 37 -11 40 -8 3 -14
12 -14 20 0 10 -6 13 -16 9 -9 -3 -12 -2 -9 5 4 6 13 8 21 5 8 -3 14 -1 14 3
0 5 -6 12 -12 14 -9 4 -8 6 2 7 10 0 6 6 -10 16 -14 8 -18 13 -9 11 12 -4 16
1 15 16 -1 12 -8 21 -15 19 -7 -1 -9 2 -6 8 4 6 14 9 22 5 13 -4 14 -3 3 10
-7 8 -17 12 -24 8 -6 -4 -4 2 4 12 14 17 13 18 -2 12 -12 -4 -15 -2 -12 7 3 7
-1 16 -9 19 -9 3 -13 20 -12 52 2 41 0 46 -16 42 -11 -3 -17 -1 -13 4 3 5 13
9 22 10 11 0 12 2 4 6 -6 2 -9 10 -5 16 10 16 14 36 15 77 0 19 6 41 12 49 8
11 8 13 -1 7 -7 -4 -13 -2 -13 3 0 6 6 11 13 11 9 0 9 2 -1 9 -11 7 -10 9 3
14 13 5 14 11 5 27 -8 15 -8 20 2 21 7 0 4 4 -7 9 -17 7 -17 9 -2 9 9 1 18 6
18 11 1 6 2 14 3 19 0 5 4 12 8 16 4 4 4 14 1 23 -5 11 -3 13 8 7 12 -7 12 -6
1 7 -10 12 -11 22 -3 36 7 13 7 22 -1 30 -8 8 -7 13 4 17 12 5 14 14 8 41 -5
20 -4 34 2 34 5 0 2 7 -7 16 -12 13 -13 19 -5 24 9 6 9 9 -1 14 -11 5 -11 7
-2 12 9 4 10 11 3 24 -7 13 -6 20 6 24 8 3 12 10 9 16 -3 5 -3 16 2 23 4 6 8
14 8 17 3 22 18 50 27 50 6 0 8 3 5 6 -4 4 -15 1 -24 -7 -17 -13 -17 -13 0 7
9 11 14 24 10 27 -3 4 2 7 13 8 10 0 14 3 7 6 -10 3 -10 7 0 18 7 7 15 11 20
8 4 -2 7 5 7 17 0 13 4 19 12 14 7 -4 8 -3 4 5 -4 6 0 18 9 27 11 12 13 20 5
29 -6 7 -7 15 -2 17 5 1 12 16 16 31 5 22 4 27 -6 21 -7 -4 -2 5 12 21 14 16
20 25 13 21 -6 -3 -14 -2 -18 4 -3 5 -2 10 3 10 5 0 10 12 10 26 0 15 6 30 13
35 12 7 11 9 -1 9 -12 0 -13 2 -1 9 7 5 10 14 7 20 -5 7 -2 10 6 9 8 -2 12 4
10 15 -2 9 1 17 5 17 5 0 7 20 6 45 -2 30 1 45 10 45 8 0 7 4 -3 11 -11 8 -12
12 -2 16 6 2 12 9 12 14 0 6 -6 7 -12 4 -7 -4 -5 0 4 8 10 8 14 18 10 22 -4 5
2 5 13 2 19 -7 19 -6 2 7 -18 14 -7 33 13 21 6 -3 7 1 4 9 -3 9 -2 16 2 16 5
0 9 13 9 29 0 24 -2 27 -14 18 -18 -14 -8 5 18 38 15 18 15 19 -1 7 -14 -11
-16 -11 -11 7 3 12 9 21 14 21 5 0 9 7 9 16 0 9 -5 13 -12 9 -7 -4 -2 3 12 14
14 11 20 21 14 21 -6 0 -11 7 -11 15 0 8 4 12 9 9 4 -3 8 0 8 5 0 6 -6 11 -12
11 -9 0 -10 3 -2 8 6 4 12 31 13 61 1 30 4 57 6 59 3 3 0 11 -6 19 -9 10 -8
13 2 13 11 0 11 2 -1 10 -11 7 -11 10 -2 10 9 0 10 5 4 18 -5 9 -8 25 -6 35 2
14 -2 17 -14 13 -15 -5 -15 -5 0 7 14 11 15 16 5 27 -10 10 -9 11 3 5 12 -7
13 -6 4 6 -15 20 -16 61 -1 52 9 -5 9 -3 0 8 -7 9 -14 24 -16 35 -2 10 -7 27
-11 36 -4 9 -5 21 -2 27 4 5 2 12 -4 16 -6 4 -8 11 -5 16 4 5 2 9 -4 9 -6 0
-8 7 -5 15 4 8 1 15 -6 15 -6 0 -9 4 -5 9 3 5 -1 16 -9 24 -8 8 -12 17 -9 21
4 3 1 6 -6 6 -7 0 -10 4 -6 9 3 5 1 12 -5 16 -5 3 -17 21 -26 40 -9 19 -21 35
-26 35 -5 0 -6 5 -3 10 3 6 1 10 -5 10 -6 0 -8 5 -5 10 5 9 -6 14 -26 12 -3
-1 -6 5 -6 13 0 8 3 12 7 10 3 -2 12 0 20 6 13 7 13 9 0 9 -12 1 -11 3 3 11 9
5 22 7 29 3 7 -5 8 -3 4 5 -5 8 0 14 14 18 15 4 18 8 10 13 -9 5 -6 10 9 15
11 3 22 14 23 23 0 9 1 24 2 32 1 8 8 15 16 15 8 1 14 7 12 14 -2 8 3 11 12 8
10 -4 13 1 11 18 -2 24 13 29 27 10 5 -6 8 -6 8 2 0 6 -7 19 -16 28 -16 15
-16 16 1 13 10 -2 20 3 23 11 3 9 0 11 -8 6 -9 -6 -11 -4 -6 4 5 7 14 10 20 8
20 -8 37 8 30 26 -3 9 -11 14 -16 11 -7 -4 -7 0 0 12 5 11 7 24 5 31 -2 6 1
14 6 18 7 3 8 0 5 -10 -5 -11 -2 -14 10 -9 11 4 15 13 11 23 -5 13 -4 14 7 3
11 -12 9 -17 -9 -29 -13 -9 -23 -19 -23 -24 0 -5 10 -13 23 -19 19 -9 20 -9 6
2 -14 12 -14 15 3 33 10 10 16 25 14 32 -3 7 1 19 9 27 13 13 12 15 -6 21 -16
5 -18 9 -9 15 7 4 10 13 6 19 -5 7 -1 9 8 5 9 -3 16 -1 16 5 0 6 -5 11 -11 11
-6 0 -3 7 6 16 13 13 13 19 3 32 -12 13 -11 14 9 2 12 -8 19 -20 16 -29 -4
-14 -3 -14 5 -1 7 9 8 18 1 26 -15 18 5 25 27 10 10 -8 23 -11 29 -6 5 4 19
10 30 12 11 1 26 10 33 18 10 11 12 11 6 1 -5 -9 -3 -12 4 -7 7 4 12 14 12 22
0 8 5 12 10 9 6 -3 10 0 10 8 0 16 34 50 42 42 2 -3 4 5 4 18 -1 17 4 21 19
19 11 -2 16 1 10 5 -17 14 -16 33 2 33 10 0 14 4 8 8 -19 14 -15 32 7 33 17 0
19 2 8 7 -15 7 -26 33 -13 31 20 -3 34 2 28 10 -3 5 0 13 6 16 5 4 8 14 4 23
-3 9 -3 13 1 9 11 -11 33 13 27 29 -3 8 1 14 8 14 12 0 12 2 0 9 -9 6 -10 11
-3 15 6 4 8 14 5 23 -4 10 -2 14 4 10 12 -8 26 20 17 34 -3 5 0 9 7 9 7 0 9 3
6 7 -4 3 0 17 9 31 9 13 11 21 5 18 -6 -4 -11 -2 -11 3 0 6 3 11 8 11 7 0 13
45 16 118 1 21 6 32 16 32 10 0 11 3 4 8 -16 11 -24 52 -11 52 7 0 5 5 -3 10
-8 5 -10 10 -4 10 5 0 9 14 8 30 -1 17 2 33 7 36 5 3 5 13 1 22 -10 21 -9 53
2 71 6 10 5 12 -3 7 -8 -5 -10 0 -7 18 2 14 -1 27 -7 30 -8 3 -8 5 1 5 7 1 11
5 8 9 -3 5 -6 30 -7 58 -1 27 -8 66 -15 87 -14 39 -14 40 -14 58 0 5 -4 8 -8
5 -4 -3 -7 8 -6 25 1 16 -3 29 -9 29 -6 0 -7 3 -4 7 4 3 2 12 -4 20 -9 10 -8
13 0 13 7 0 9 5 6 10 -4 6 -12 7 -18 4 -7 -4 -9 -4 -5 1 4 4 -2 21 -13 36 -22
31 -15 40 8 12 13 -16 13 -16 3 4 -5 12 -15 25 -20 28 -6 4 -8 11 -5 16 4 5 0
9 -9 9 -9 0 -13 8 -12 25 2 13 -1 22 -5 19 -8 -5 -13 10 -10 29 1 5 -3 6 -9 2
-6 -4 -10 5 -10 22 0 22 -2 25 -10 13 -8 -12 -10 -11 -10 8 0 12 -5 22 -11 22
-5 0 -7 5 -4 10 3 6 -1 10 -9 10 -14 0 -20 12 -17 33 0 4 -5 7 -11 7 -9 0 -8
4 2 10 13 8 13 10 -2 10 -9 0 -20 5 -24 12 -4 6 -3 8 3 5 5 -3 10 0 10 7 0 8
-8 11 -18 9 -12 -3 -17 1 -16 13 1 10 -9 24 -23 31 -14 7 -20 13 -14 13 6 0
11 7 11 15 0 11 -4 12 -14 4 -10 -9 -14 -5 -19 20 -4 17 -6 33 -5 36 2 7 -25
35 -34 35 -13 0 -34 28 -27 36 4 5 -1 2 -11 -5 -15 -12 -17 -12 -12 1 4 9 -1
18 -9 21 -9 4 -16 1 -16 -5 0 -6 -3 -8 -6 -5 -4 4 -1 13 6 22 12 15 4 20 -22
16 -5 0 -8 6 -8 15 0 9 5 12 12 8 7 -4 8 -3 4 5 -6 9 -12 9 -24 -1 -10 -7 -14
-8 -10 -4 4 5 2 16 -5 24 -8 11 -8 14 0 9 6 -4 15 -3 18 3 4 6 3 10 -2 9 -22
-4 -33 3 -33 21 0 11 -5 20 -11 20 -5 0 -7 -6 -3 -12 5 -9 2 -9 -9 1 -9 7 -17
21 -17 30 0 14 -2 14 -10 1 -9 -13 -14 -8 -11 12 0 4 -8 5 -19 3 -12 -2 -19
-1 -16 3 2 4 -2 13 -10 20 -10 9 -14 9 -14 1 0 -6 -9 0 -21 15 -11 14 -25 23
-31 20 -7 -4 -8 -2 -4 4 4 7 2 12 -4 12 -7 0 -25 14 -41 31 -16 17 -29 25 -29
19 0 -7 -8 -3 -19 8 -10 12 -26 22 -35 22 -9 0 -21 9 -28 20 -7 11 -20 20 -28
20 -8 0 -21 9 -28 20 -7 12 -18 17 -29 13 -11 -4 -14 -3 -9 5 5 8 2 10 -8 6
-9 -4 -18 0 -22 9 -3 9 -12 13 -20 10 -8 -3 -14 0 -14 6 0 6 -5 11 -11 11 -5
0 -7 -6 -3 -12 4 -7 -3 -2 -16 10 -18 19 -24 21 -31 10 -7 -10 -9 -9 -9 5 0
10 -4 15 -10 12 -5 -3 -10 -1 -10 4 0 6 -9 11 -19 11 -11 0 -27 8 -37 17 -9 9
-26 18 -38 20 -53 8 -61 11 -59 21 2 6 -4 9 -12 6 -9 -4 -23 0 -32 7 -9 8 -14
9 -11 4 4 -6 -2 -12 -13 -12 -11 -1 -19 5 -19 13 0 8 -4 13 -9 9 -5 -3 -12 -1
-15 4 -4 6 -18 6 -36 1 -17 -5 -28 -5 -26 -1 3 4 -4 13 -16 20 -11 7 -17 8
-13 2 9 -15 -8 -14 -24 2 -11 10 -12 9 -6 -2 5 -9 0 -8 -17 3 -14 9 -28 13
-31 9 -4 -3 -7 -1 -7 7 0 10 -4 10 -17 -1 -9 -8 -14 -9 -10 -3 7 13 -19 27
-33 19 -5 -3 -12 -1 -15 5 -5 8 -11 7 -21 -1 -11 -9 -14 -9 -14 0 0 8 -5 9
-18 2 -13 -7 -23 -6 -32 2 -10 10 -12 8 -7 -5z m-3604 -3655 c-13 -15 -12 -15
9 -4 18 10 22 9 22 -4 0 -9 -4 -13 -10 -10 -5 3 -7 0 -4 -9 3 -8 12 -12 19
-10 7 3 16 1 19 -4 3 -5 -2 -9 -12 -8 -11 1 -17 -6 -16 -20 0 -23 -23 -22 -38
0 -4 6 -6 1 -6 -11 2 -14 7 -19 18 -16 13 4 13 3 0 -5 -9 -7 -18 -7 -26 -1 -8
6 -16 3 -25 -8 -13 -16 -12 -17 4 -4 11 9 17 10 17 2 0 -12 -1 -13 -52 -15
-21 -1 -38 2 -38 7 0 5 -7 4 -15 -3 -10 -9 -15 -9 -15 -1 0 6 -5 11 -11 11 -5
0 -7 -5 -3 -11 4 -7 -2 -9 -17 -7 -16 2 -24 -2 -24 -12 0 -8 -9 -15 -19 -15
-10 0 -20 -8 -22 -18 -1 -9 2 -15 7 -11 5 3 7 10 4 15 -3 5 1 6 9 3 12 -5 12
-8 -2 -23 -11 -11 -21 -15 -29 -9 -8 7 -10 3 -6 -11 3 -13 1 -21 -6 -21 -7 0
-9 -5 -5 -11 3 -6 -5 -4 -18 5 -14 9 -28 13 -32 9 -4 -5 -13 -8 -19 -8 -7 0
-11 -10 -11 -22 1 -13 -2 -20 -6 -18 -10 6 -8 25 4 43 15 25 -3 25 -26 0 -13
-13 -17 -17 -10 -8 20 27 14 35 -11 12 -14 -13 -27 -18 -35 -13 -13 8 5 22 33
25 6 1 9 9 9 19 -2 13 1 15 11 7 9 -8 12 -5 10 13 -2 15 2 24 11 24 11 0 11
-3 1 -16 -10 -14 -10 -14 5 -3 10 8 23 10 30 6 8 -5 8 -1 -2 11 -14 17 -13 18
3 12 11 -4 17 -1 17 9 0 8 4 13 9 9 5 -3 13 4 16 16 6 17 9 19 16 8 7 -11 11
-10 24 6 9 11 13 13 9 5 -7 -12 -5 -13 8 -3 8 7 18 10 21 6 4 -3 9 2 13 11 5
13 9 14 20 5 12 -10 13 -9 8 5 -4 11 -1 16 11 16 9 0 14 4 11 9 -4 5 5 8 19 6
15 -1 25 3 25 10 0 15 24 27 64 32 16 2 32 5 34 8 13 12 13 3 1 -12z m621
-304 c10 -23 15 -27 26 -18 11 9 14 8 14 -1 0 -8 3 -11 6 -8 3 4 0 16 -6 29
-11 19 -10 21 5 15 14 -5 16 -4 6 7 -12 16 14 16 59 2 17 -6 21 -4 14 6 -7 12
-5 12 9 1 9 -8 22 -10 28 -6 8 4 9 3 5 -4 -6 -11 12 -17 37 -13 4 0 7 -4 7
-10 0 -6 -6 -9 -12 -6 -18 6 -50 -12 -42 -24 4 -7 -2 -6 -16 1 -20 11 -21 10
-15 -11 6 -19 5 -20 -8 -8 -8 8 -13 17 -11 20 2 3 -3 6 -10 6 -8 0 -12 -6 -9
-14 3 -7 0 -13 -6 -13 -6 0 -11 8 -11 18 -1 15 -2 15 -15 -2 -8 -11 -15 -15
-15 -9 0 7 -8 12 -17 12 -45 1 -54 4 -43 15 16 16 12 30 -6 16 -12 -11 -15
-11 -12 1 2 8 -3 13 -11 11 -12 -3 -12 0 -2 12 17 20 37 11 51 -25z m305
-5069 c6 0 17 -11 23 -25 8 -17 17 -23 29 -19 12 5 11 1 -5 -11 -16 -12 -20
-20 -13 -29 7 -8 6 -17 -1 -26 -8 -13 -9 -13 -5 0 3 9 -2 25 -9 35 -13 18 -14
17 -12 -15 2 -24 -1 -34 -9 -32 -16 3 -17 -15 -1 -20 7 -3 5 -7 -6 -11 -10 -4
-15 -3 -11 3 6 10 -7 14 -31 11 -15 -2 -12 57 4 87 10 18 10 22 0 23 -7 0 -3
4 10 9 19 8 21 13 12 29 -5 11 -10 23 -9 28 0 4 5 -2 11 -14 6 -13 16 -23 23
-23z m288 -147 c-7 -3 -13 -9 -13 -14 0 -6 6 -7 13 -3 6 4 9 4 5 -1 -4 -4 0
-15 10 -23 14 -12 13 -12 -8 1 -37 21 -60 -3 -30 -33 15 -15 17 -20 5 -20 -8
0 -15 5 -15 11 0 5 -4 8 -10 4 -5 -3 -6 -13 -3 -22 5 -12 2 -15 -10 -10 -11 4
-14 2 -10 -8 3 -8 10 -12 16 -8 6 3 7 1 3 -6 -6 -9 -14 -8 -32 3 -34 23 -43
19 -14 -6 15 -13 18 -19 8 -15 -28 10 -30 -9 -3 -21 14 -7 25 -17 24 -24 0
-10 -2 -10 -6 0 -2 6 -9 12 -14 12 -6 0 -7 -5 -3 -12 4 -7 3 -8 -4 -4 -11 6
-16 -6 -13 -26 0 -5 -3 -8 -9 -8 -14 0 -12 12 5 37 13 19 13 22 -1 27 -12 5
-14 9 -5 20 8 10 8 16 -3 25 -10 9 -17 7 -27 -6 -12 -15 -12 -16 6 -9 16 6 18
5 8 -5 -10 -10 -16 -10 -25 -1 -17 17 -25 15 -30 -6 -3 -10 -12 -19 -21 -19
-9 0 -14 4 -11 9 3 5 10 6 15 3 5 -4 9 -1 9 6 0 7 8 21 17 31 14 15 14 21 4
27 -7 5 -12 11 -12 15 3 24 0 28 -14 16 -8 -6 -20 -8 -26 -4 -8 5 -9 3 -4 -6
6 -9 4 -11 -5 -5 -9 5 -11 4 -6 -3 5 -9 13 -9 26 -2 25 13 28 13 25 -7 -3 -29
-16 -53 -26 -47 -11 6 -12 24 -1 23 16 -3 23 2 17 11 -13 21 -46 -9 -35 -30 7
-14 7 -20 0 -20 -5 0 -10 5 -10 11 0 7 -8 18 -17 25 -14 11 -15 13 -2 9 10 -4
16 0 16 10 0 11 -6 13 -20 9 -13 -4 -17 -2 -13 5 4 6 14 11 22 11 8 0 14 5 14
11 0 5 -5 7 -12 3 -6 -4 -8 -3 -5 3 3 5 20 9 37 8 21 -1 36 4 43 15 10 17 12
17 31 -1 13 -13 22 -15 27 -8 4 7 12 3 23 -12 14 -20 16 -21 16 -5 0 11 5 16
14 13 14 -6 54 29 44 38 -3 3 -11 -1 -18 -10 -7 -8 -17 -15 -22 -15 -20 0 35
36 56 37 11 0 15 -1 9 -4z"/>
</g>
</svg>
