<?xml version="1.0" standalone="no"?>
<!DOCTYPE svg PUBLIC "-//W3C//DTD SVG 20010904//EN"
 "http://www.w3.org/TR/2001/REC-SVG-20010904/DTD/svg10.dtd">
<svg version="1.0" xmlns="http://www.w3.org/2000/svg"
 width="1024.000000pt" height="1024.000000pt" viewBox="0 0 1024.000000 1024.000000"
 preserveAspectRatio="xMidYMid meet">
<metadata>
Created by potrace 1.16, written by Peter Selinger 2001-2019
</metadata>
<g transform="translate(0.000000,1024.000000) scale(0.100000,-0.100000)"
fill="#000000" stroke="none">
<path d="M9194 8034 c3 -8 -2 -11 -14 -9 -11 2 -19 -1 -17 -8 1 -7 -4 -11 -10
-9 -7 1 -13 -3 -13 -9 0 -5 -5 -7 -12 -3 -7 4 -8 3 -4 -5 4 -6 13 -8 19 -5 7
4 2 -3 -10 -15 -26 -24 -29 -37 -11 -43 8 -3 6 -7 -5 -11 -9 -3 -16 -3 -16 1
4 23 -4 22 -26 -4 -14 -16 -25 -23 -25 -16 0 10 -3 10 -14 0 -8 -7 -12 -17 -9
-22 3 -4 -5 -5 -17 -1 -18 6 -22 4 -17 -8 4 -11 2 -14 -9 -10 -17 6 -60 -33
-81 -75 -11 -21 -11 -23 7 -17 11 4 20 2 20 -3 0 -6 -13 -9 -29 -8 -20 1 -28
-3 -27 -14 1 -8 -5 -14 -12 -12 -8 1 -11 -2 -8 -6 3 -5 -3 -17 -14 -27 -22
-20 -16 -53 7 -34 7 7 12 18 9 26 -4 9 -1 11 6 7 6 -4 8 -3 5 3 -4 6 6 19 21
29 21 14 24 14 14 2 -10 -13 -10 -17 0 -22 7 -3 2 -3 -11 0 -15 4 -21 2 -17
-5 4 -5 -9 -27 -27 -48 -19 -21 -33 -46 -32 -55 2 -11 -2 -15 -12 -11 -12 5
-12 7 -1 15 10 7 8 8 -6 6 -10 -2 -21 2 -23 9 -3 8 3 11 18 8 12 -2 19 -1 15
2 -12 12 -35 11 -46 -2 -8 -9 -6 -14 5 -19 8 -3 15 -13 15 -23 0 -15 -1 -15
-13 2 -11 14 -16 15 -22 5 -5 -9 -4 -11 3 -6 7 4 12 2 12 -5 0 -6 -8 -9 -20
-6 -22 6 -57 -34 -46 -52 3 -5 -1 -11 -9 -14 -10 -4 -12 -1 -8 11 6 14 5 15
-9 2 -11 -10 -13 -19 -6 -27 11 -14 1 -36 -15 -30 -11 3 -49 -29 -44 -39 1 -3
-6 -10 -16 -15 -9 -6 -14 -15 -11 -21 4 -7 2 -8 -4 -4 -11 6 -38 -31 -34 -46
1 -5 -6 -8 -15 -8 -9 0 -14 -3 -10 -6 3 -3 1 -11 -4 -18 -16 -18 -79 -117 -79
-124 0 -4 -9 -18 -19 -31 -10 -14 -17 -31 -14 -38 4 -9 0 -11 -12 -7 -13 5
-16 3 -13 -7 3 -8 -1 -26 -8 -40 -7 -15 -10 -30 -6 -34 4 -5 1 -5 -5 -1 -7 4
-13 2 -13 -3 0 -6 0 -13 0 -16 0 -3 -8 -14 -17 -24 -35 -39 -43 -50 -43 -66 0
-8 -4 -15 -8 -15 -7 0 -11 -16 -14 -57 -1 -7 -5 -13 -9 -13 -4 0 -10 -11 -13
-25 -4 -16 -11 -23 -18 -19 -7 5 -8 3 -4 -5 5 -7 0 -21 -11 -33 -10 -12 -12
-18 -6 -14 9 5 11 2 7 -8 -3 -9 -10 -13 -15 -10 -5 3 -10 -4 -10 -15 -2 -30
-3 -33 -19 -61 -7 -14 -13 -26 -12 -27 6 -9 0 -23 -7 -19 -5 4 -7 -4 -3 -16 3
-14 2 -19 -6 -14 -8 5 -12 0 -12 -12 0 -11 -7 -22 -15 -26 -8 -3 -14 -9 -13
-13 3 -12 -14 -57 -24 -64 -5 -3 -10 -12 -12 -20 -1 -8 -8 -25 -15 -38 -11
-19 -11 -22 1 -15 10 6 11 5 1 -8 -7 -8 -10 -18 -6 -21 3 -4 1 -7 -5 -7 -7 0
-11 -3 -11 -7 1 -5 0 -10 -1 -13 -1 -3 -4 -75 -6 -160 -4 -182 -4 -183 -18
-192 -8 -5 -7 -8 2 -8 10 0 10 -5 2 -20 -8 -14 -8 -20 0 -20 8 0 8 -6 0 -20
-8 -14 -8 -20 0 -20 8 0 8 -6 0 -20 -8 -14 -8 -20 0 -20 8 0 8 -6 0 -20 -8
-14 -8 -20 0 -20 6 0 8 -4 5 -10 -11 -18 -14 -50 -4 -50 6 0 6 -6 0 -18 -6
-10 -6 -24 -1 -32 5 -8 6 -18 3 -23 -6 -10 -15 -67 -17 -109 0 -16 -4 -28 -7
-28 -3 0 -5 -23 -4 -50 1 -28 -1 -53 -6 -56 -4 -2 -6 -11 -3 -18 3 -8 1 -17
-4 -20 -5 -3 -8 -17 -7 -31 2 -14 0 -25 -4 -25 -9 0 -37 -80 -33 -92 1 -5 -3
-8 -9 -8 -5 0 -7 -4 -4 -10 3 -5 2 -10 -2 -10 -5 0 -9 -10 -10 -22 0 -13 -4
-39 -8 -58 -4 -19 -8 -39 -9 -45 -1 -5 -6 -16 -10 -24 -7 -11 -6 -12 5 -6 11
7 12 6 2 -6 -6 -8 -13 -26 -15 -39 -2 -14 -7 -30 -10 -36 -4 -6 -10 -29 -13
-50 -9 -55 -13 -78 -15 -84 -1 -3 -2 -8 -1 -12 0 -5 -4 -8 -11 -8 -6 0 -8 -3
-5 -6 3 -4 2 -16 -4 -27 -9 -15 -8 -18 3 -11 10 6 11 5 1 -8 -7 -8 -10 -18 -6
-21 3 -4 2 -7 -4 -7 -5 0 -10 -6 -11 -12 -2 -28 -8 -47 -20 -60 -6 -8 -9 -17
-6 -21 3 -3 0 -16 -7 -29 -7 -12 -12 -29 -10 -37 1 -7 -2 -10 -8 -6 -6 3 -11
-2 -11 -12 0 -19 -31 -60 -87 -119 -18 -19 -33 -39 -33 -45 0 -5 -4 -7 -10 -4
-9 6 -15 -8 -11 -29 1 -5 -4 -6 -11 -4 -14 5 -50 -27 -41 -36 4 -3 -1 -6 -11
-6 -9 0 -19 -7 -22 -15 -4 -8 -13 -15 -21 -15 -9 0 -11 -5 -7 -12 5 -8 0 -7
-11 2 -10 8 -16 10 -12 3 8 -13 -89 -67 -104 -57 -5 3 -12 -1 -15 -9 -3 -9
-16 -13 -34 -12 -16 1 -27 -1 -24 -6 2 -5 -8 -11 -23 -15 -15 -4 -31 -11 -34
-16 -3 -5 -15 -10 -27 -11 -11 0 -18 -5 -16 -9 3 -4 -6 -12 -19 -17 -14 -6
-28 -15 -32 -21 -3 -5 -11 -8 -16 -5 -5 3 -6 -2 -2 -11 4 -12 3 -15 -5 -10 -7
4 -12 2 -12 -4 0 -6 -4 -9 -9 -5 -6 3 -15 -4 -21 -15 -6 -11 -15 -18 -19 -15
-5 2 -24 -11 -44 -30 -19 -18 -37 -31 -40 -28 -3 3 -17 -7 -30 -21 -13 -14
-28 -26 -31 -26 -8 0 -91 -64 -119 -92 -10 -10 -23 -15 -29 -12 -6 4 -9 3 -6
-2 6 -10 -98 -114 -106 -106 -4 3 -6 -1 -6 -8 0 -7 -16 -28 -36 -46 -19 -19
-33 -34 -30 -34 3 0 -4 -11 -16 -25 -11 -13 -26 -22 -31 -18 -6 3 -7 1 -4 -4
4 -6 -17 -36 -46 -66 -28 -30 -70 -76 -92 -100 -22 -25 -43 -43 -47 -41 -5 3
-8 0 -8 -6 0 -6 -4 -16 -10 -23 -5 -7 -35 -46 -67 -87 -31 -41 -63 -82 -72
-90 -9 -8 -22 -27 -30 -42 -8 -15 -18 -25 -22 -23 -4 3 -10 -4 -14 -15 -3 -11
-11 -20 -17 -20 -6 0 -9 -3 -5 -6 7 -7 -61 -74 -75 -74 -5 0 -7 -4 -3 -9 3 -6
-1 -13 -8 -18 -8 -4 -22 -20 -32 -35 -9 -15 -22 -25 -28 -21 -6 3 -7 1 -3 -5
4 -7 2 -12 -5 -12 -7 0 -10 -2 -7 -6 3 -3 -9 -21 -28 -41 -18 -19 -36 -44 -39
-54 -4 -10 -11 -19 -17 -19 -6 0 -9 -3 -5 -6 8 -8 -25 -44 -35 -38 -5 3 -7 2
-6 -3 3 -8 -49 -82 -67 -95 -5 -4 -7 -8 -2 -8 12 0 -69 -70 -82 -70 -6 0 -11
-4 -11 -10 0 -5 -6 -10 -14 -10 -8 0 -16 -7 -20 -15 -3 -8 -10 -15 -15 -15 -5
0 -25 -14 -43 -30 -18 -17 -37 -30 -42 -30 -6 0 -21 -12 -33 -27 -13 -14 -26
-24 -29 -21 -3 3 -19 -7 -35 -23 -28 -27 -41 -34 -62 -30 -5 1 -6 -2 -3 -7 5
-9 -48 -57 -69 -63 -5 -2 -18 -12 -28 -23 -10 -12 -15 -14 -11 -6 7 15 -8 4
-66 -48 -14 -12 -31 -20 -37 -17 -7 2 -13 1 -13 -4 0 -10 -36 -24 -62 -24 -10
0 -15 -4 -12 -8 3 -5 -5 -10 -18 -11 -37 -2 -42 -3 -56 -12 -7 -4 -16 -5 -19
-2 -3 3 -14 -4 -24 -16 -11 -11 -19 -16 -19 -10 0 6 -7 9 -15 6 -8 -4 -12 -11
-8 -17 3 -5 2 -7 -4 -4 -5 3 -27 1 -49 -4 -21 -6 -58 -12 -80 -13 -23 -2 -46
-6 -51 -9 -6 -4 -13 -3 -17 0 -10 10 -36 12 -36 4 0 -5 -20 -8 -44 -7 -24 1
-42 -3 -39 -7 3 -5 -5 -6 -17 -2 -17 5 -21 4 -15 -5 6 -9 4 -11 -6 -5 -20 13
-49 13 -49 1 0 -6 -4 -5 -9 3 -8 12 -12 12 -25 2 -12 -10 -16 -10 -16 -2 0 7
-4 10 -9 6 -19 -11 -70 -12 -75 -1 -3 7 -5 6 -5 -2 -1 -10 -6 -10 -21 -2 -16
8 -22 8 -26 -4 -4 -11 -12 -13 -30 -5 -14 5 -23 5 -20 0 3 -5 -1 -12 -10 -15
-8 -3 -12 -2 -9 4 6 10 -7 14 -33 11 -8 -1 -21 6 -29 16 -8 10 -12 13 -9 7 3
-6 -1 -11 -8 -11 -8 0 -12 6 -10 12 5 13 -24 14 -45 0 -10 -5 -12 -4 -7 3 4 7
1 12 -8 12 -9 0 -16 6 -16 13 0 8 -3 7 -10 -3 -8 -12 -10 -12 -16 3 -3 9 -11
14 -16 11 -6 -4 -5 -10 3 -16 10 -7 9 -8 -5 -4 -10 4 -25 1 -32 -5 -9 -8 -14
-8 -14 -1 0 6 9 14 20 17 22 7 28 27 8 24 -27 -3 -39 1 -32 13 5 7 3 8 -7 3
-17 -11 -50 -14 -44 -4 11 17 -49 16 -68 -2 -16 -14 -24 -16 -34 -7 -11 9 -15
7 -20 -10 -3 -12 -10 -22 -17 -22 -6 0 -4 -5 4 -10 10 -6 11 -10 3 -10 -7 0
-13 -8 -13 -17 0 -10 -4 -14 -8 -8 -4 6 -15 11 -25 11 -15 2 -16 -1 -5 -14 11
-13 10 -14 -9 -4 -12 7 -29 9 -37 6 -10 -4 -16 -1 -16 7 0 12 -2 12 -9 0 -5
-7 -13 -11 -18 -8 -5 3 -22 -1 -38 -9 l-29 -15 20 22 c19 22 19 22 -3 10 -13
-6 -23 -9 -23 -5 0 3 -6 1 -14 -5 -11 -10 -17 -8 -25 6 -8 15 -13 16 -30 6
-17 -11 -22 -10 -30 4 -5 10 -22 18 -38 19 -43 2 -45 3 -37 16 4 7 3 8 -5 4
-6 -4 -8 -12 -5 -18 5 -8 1 -9 -12 -4 -10 5 -25 9 -31 9 -7 0 -13 4 -13 9 0 4
-5 8 -10 8 -6 0 -5 -8 2 -20 7 -11 16 -20 21 -20 4 0 5 5 1 12 -4 7 -3 8 4 4
6 -4 8 -14 5 -23 -5 -14 -12 -10 -39 21 l-32 37 -24 -26 -24 -25 -22 20 c-16
15 -22 17 -22 7 0 -8 10 -21 22 -29 17 -11 19 -16 8 -23 -7 -4 -11 -4 -9 1 3
5 -8 21 -23 36 -15 15 -28 23 -28 19 0 -5 -12 -8 -27 -8 -16 0 -22 2 -15 4 6
3 9 10 5 16 -5 8 -2 8 8 0 13 -10 16 -10 16 2 0 8 -6 15 -13 15 -7 0 -10 8 -7
20 3 11 9 18 13 15 5 -3 12 5 16 17 17 50 12 60 -16 35 -12 -10 -12 -9 -4 3
24 34 24 48 -2 45 -19 -2 -22 0 -13 11 15 19 4 18 -27 -2 -21 -15 -24 -15 -18
-1 5 14 -10 17 -36 7 -3 -1 -8 -2 -12 -1 -4 0 -5 -6 -2 -13 3 -8 1 -24 -6 -35
-6 -12 -7 -21 -2 -21 5 0 15 13 23 29 l14 29 20 -21 20 -20 -21 11 c-18 10
-23 8 -33 -14 -6 -14 -8 -30 -5 -36 4 -7 2 -8 -4 -4 -21 12 -32 -3 -22 -29 8
-20 7 -23 -8 -18 -9 3 -14 3 -10 -2 4 -4 0 -14 -10 -22 -10 -9 -11 -11 -2 -7
12 7 13 5 3 -8 -7 -8 -10 -18 -6 -21 3 -4 2 -7 -3 -7 -5 0 -10 -14 -11 -32 -1
-17 -8 -35 -14 -39 -7 -4 -8 -12 -3 -20 6 -12 5 -12 -9 0 -14 11 -20 11 -32 1
-12 -10 -15 -10 -15 0 0 10 -3 10 -14 1 -11 -9 -16 -9 -22 0 -5 8 -3 9 7 4 12
-8 12 -6 0 8 -15 19 -26 23 -15 6 5 -8 -1 -10 -20 -7 -14 3 -26 2 -26 -2 0
-11 -57 -30 -65 -22 -4 4 -5 3 -4 -3 2 -5 -3 -21 -10 -34 -10 -18 -10 -22 0
-16 9 6 11 3 6 -11 -6 -16 -4 -16 12 3 16 19 20 20 25 7 4 -10 2 -13 -7 -8 -6
4 -8 3 -4 -1 4 -5 -3 -15 -15 -23 -13 -7 -15 -11 -6 -8 20 6 34 -10 16 -17 -9
-4 -10 -6 -1 -6 6 -1 15 4 18 9 10 16 25 12 25 -7 0 -9 3 -14 6 -10 3 3 3 15
-1 27 -5 17 -10 19 -21 9 -10 -8 -14 -8 -14 0 0 6 11 16 25 23 13 6 22 14 20
19 -3 4 0 11 6 15 7 4 9 3 5 -4 -3 -5 -1 -12 5 -14 15 -5 20 -66 6 -75 -6 -3
-7 -1 -3 5 4 6 2 20 -3 31 -7 13 -8 21 -1 24 6 3 5 4 -2 2 -7 -1 -11 -9 -9
-16 2 -8 4 -23 4 -34 1 -11 6 -23 11 -27 7 -5 7 -8 -1 -8 -7 0 -13 -5 -13 -11
0 -8 5 -8 15 1 8 7 13 16 10 20 -3 4 2 11 11 14 8 3 12 2 9 -4 -7 -12 36 -9
53 3 9 7 11 6 6 -6 -6 -18 -32 -30 -45 -21 -5 3 -9 1 -9 -5 0 -6 -7 -7 -17 -4
-10 4 -14 2 -9 -5 4 -7 -1 -10 -14 -7 -12 2 -23 -2 -27 -10 -3 -8 -10 -15 -16
-15 -5 0 -2 10 9 22 12 14 13 18 3 10 -9 -6 -20 -8 -24 -4 -5 4 -5 1 -1 -5 4
-7 2 -13 -4 -13 -6 0 -8 -4 -5 -10 3 -5 2 -10 -3 -10 -13 0 -7 -43 6 -48 7 -2
10 -8 6 -13 -3 -5 4 -10 15 -10 12 -1 27 -2 34 -3 6 -1 18 5 25 14 11 13 11
11 2 -8 -6 -12 -15 -22 -21 -22 -6 0 -7 -5 -4 -10 4 -7 14 -2 26 11 10 12 19
18 19 13 0 -6 -6 -16 -12 -23 -11 -11 -10 -13 5 -8 10 4 16 3 13 -2 -12 -18
29 -50 49 -38 18 9 19 9 6 -6 -12 -15 -11 -17 7 -17 12 0 24 -5 27 -10 4 -6
11 -8 16 -4 5 3 7 10 3 15 -3 5 -9 7 -14 4 -5 -3 -11 -1 -14 4 -4 5 2 8 11 6
10 -2 24 -4 32 -4 11 -1 10 -7 -3 -28 l-17 -28 23 28 c28 32 46 37 24 6 -23
-33 10 -89 53 -89 11 0 23 -5 27 -12 5 -7 11 -5 21 7 12 18 13 18 13 1 0 -10
5 -16 13 -13 6 2 26 -1 44 -9 29 -11 31 -11 26 4 -6 15 -4 15 14 -1 16 -14 23
-15 29 -6 4 8 3 10 -4 5 -7 -4 -12 -2 -12 5 0 6 8 9 20 6 10 -3 21 0 24 7 3 7
5 6 5 -3 1 -11 6 -10 21 4 14 13 19 14 15 4 -4 -10 3 -15 25 -15 20 -1 27 2
23 10 -4 6 1 5 10 -3 9 -7 17 -10 17 -6 0 4 6 2 14 -4 10 -8 16 -8 25 3 12 15
51 10 51 -6 0 -5 -5 -6 -12 -2 -7 5 -8 3 -3 -6 6 -10 11 -10 20 3 7 9 15 14
18 10 4 -3 7 -1 7 5 0 7 -5 12 -12 12 -6 0 -8 3 -4 7 4 5 14 0 21 -11 10 -13
22 -17 40 -14 17 4 29 0 35 -11 8 -14 9 -13 10 4 0 17 2 17 10 5 5 -8 10 -10
10 -5 0 6 5 3 10 -5 5 -8 10 -10 10 -4 0 6 6 11 14 11 8 0 12 -6 10 -12 -3 -8
5 -10 27 -7 25 4 30 2 24 -9 -7 -12 -6 -12 7 -1 13 10 18 10 24 1 5 -8 3 -9
-6 -4 -9 5 -11 4 -6 -3 4 -7 14 -12 22 -12 8 0 13 4 10 8 -3 5 1 9 8 9 8 0 12
-6 9 -13 -2 -6 1 -15 8 -20 8 -4 10 -3 5 4 -4 7 -2 12 4 12 6 0 8 4 5 10 -3 5
-2 10 3 10 6 0 13 -7 16 -16 4 -10 2 -13 -6 -8 -7 4 -8 3 -4 -4 5 -9 13 -9 28
-1 12 6 18 7 14 1 -9 -14 20 -22 33 -9 8 8 11 8 11 -2 0 -10 3 -11 14 -2 11 9
16 9 22 0 5 -8 3 -9 -6 -4 -8 5 -11 4 -7 -3 4 -5 16 -8 27 -5 13 3 20 0 20 -8
0 -11 2 -11 10 1 7 12 10 12 10 1 0 -7 6 -11 15 -7 8 3 15 1 15 -4 0 -6 5 -10
11 -10 5 0 7 5 3 12 -5 7 -3 8 6 3 8 -5 33 -8 57 -6 30 1 43 -2 43 -11 0 -10
2 -10 9 1 6 9 11 10 15 3 4 -6 13 -9 21 -5 9 3 23 -1 32 -8 10 -8 14 -9 10 -2
-4 6 -3 14 3 18 5 3 10 -1 10 -9 0 -16 29 -11 41 7 3 5 9 1 12 -8 5 -10 3 -14
-5 -9 -6 4 -8 3 -5 -4 8 -11 25 -11 43 1 7 4 15 0 18 -9 5 -12 10 -13 19 -5
10 7 17 7 24 0 8 -8 13 -8 17 0 5 8 13 8 29 -1 23 -12 25 -12 43 3 14 11 46 1
38 -12 -3 -5 3 -9 13 -9 11 0 25 -6 32 -12 11 -11 13 -11 7 0 -4 6 -2 12 3 12
6 0 11 -5 11 -11 0 -5 4 -7 10 -4 5 3 10 0 10 -7 0 -9 3 -9 10 2 6 9 10 10 10
3 0 -7 9 -10 22 -8 12 3 28 -1 37 -8 12 -9 13 -9 7 1 -10 17 2 15 20 -3 9 -8
21 -15 27 -15 7 0 6 5 -3 11 -11 8 -9 9 10 4 14 -4 29 -11 34 -15 11 -11 38
-1 30 11 -3 5 0 9 5 9 6 0 11 -6 11 -13 0 -14 16 -18 60 -16 35 1 42 1 65 -4
11 -2 23 1 27 7 5 7 8 3 8 -9 0 -17 2 -17 10 -5 8 12 13 13 30 2 17 -10 21
-10 26 3 4 8 10 15 16 15 5 0 7 -4 4 -8 -7 -11 31 -8 41 3 5 4 2 5 -6 0 -10
-6 -12 -4 -7 4 6 9 11 9 21 1 9 -8 14 -8 17 1 2 7 19 12 36 11 18 0 30 3 27 8
-3 5 0 12 6 16 8 4 9 3 5 -4 -4 -7 -1 -12 9 -12 9 0 13 5 9 11 -4 8 0 8 15 0
16 -9 21 -9 21 1 0 9 3 9 10 -2 8 -13 10 -12 10 3 0 19 20 24 20 5 0 -10 3 -9
9 1 5 8 14 10 21 6 8 -5 11 -4 7 2 -10 16 18 24 33 10 10 -9 11 -9 5 2 -6 11
-4 13 8 8 10 -3 17 -3 17 2 0 5 13 7 29 6 16 -1 35 2 43 7 10 7 8 8 -5 4 -12
-4 -17 -2 -15 6 3 7 15 14 28 14 13 1 26 7 28 13 3 8 8 6 16 -5 10 -13 15 -14
21 -4 6 9 4 11 -6 5 -8 -5 -10 -4 -6 0 12 14 37 15 38 2 0 -7 5 -1 10 13 8 18
12 21 18 11 6 -9 11 -10 15 -2 4 6 4 15 1 21 -3 6 1 7 9 4 9 -3 16 -1 16 4 0
6 9 9 21 7 17 -3 19 -1 9 10 -8 10 -8 15 1 21 8 4 9 3 5 -4 -4 -7 -1 -12 8
-12 9 0 16 5 16 11 0 6 7 9 15 5 10 -3 15 1 15 12 0 15 2 15 10 2 8 -13 10
-13 10 2 0 11 5 15 14 12 8 -3 17 0 21 5 3 6 12 8 18 4 7 -4 6 1 -2 10 -12 15
-12 17 4 11 11 -5 16 -4 12 3 -4 6 4 8 21 6 21 -4 24 -2 12 6 -13 9 -12 11 5
11 21 0 58 34 48 44 -4 3 -1 6 5 6 7 0 12 -5 12 -11 0 -5 5 -7 10 -4 6 4 8 10
5 15 -3 5 0 12 6 16 7 4 9 3 5 -4 -3 -6 -2 -13 4 -17 5 -3 10 1 10 10 0 12 5
15 16 11 12 -5 15 -2 10 10 -4 11 -2 15 8 11 8 -3 35 10 61 29 27 22 52 33 62
30 10 -4 13 -2 10 6 -2 7 7 22 21 32 14 11 22 14 18 8 -4 -7 -2 -12 3 -12 6 0
11 7 11 16 0 14 2 15 17 3 15 -13 15 -12 5 8 -9 16 -9 24 0 29 6 4 8 3 5 -3
-4 -6 0 -16 8 -23 13 -11 14 -10 9 5 -5 12 -4 16 3 12 6 -4 13 0 16 8 3 7 25
22 47 33 23 10 41 22 40 26 -1 4 2 11 6 14 4 4 4 1 0 -5 -11 -19 5 -15 20 4 7
10 17 19 23 19 6 1 19 2 29 3 15 1 15 3 2 11 -13 8 -13 10 2 10 9 0 20 5 24
12 5 7 3 8 -5 3 -10 -6 -11 -3 -2 13 7 13 18 19 31 17 11 -2 19 -1 19 3 -5 33
2 44 18 31 15 -12 16 -12 10 4 -5 14 -2 16 19 13 23 -4 24 -3 12 11 -12 15
-11 15 10 4 12 -6 22 -9 22 -5 0 3 8 0 18 -7 14 -11 15 -11 5 1 -17 19 -16 30
1 30 8 0 18 5 22 12 5 7 2 8 -7 3 -8 -5 -4 3 9 17 12 13 19 28 15 33 -5 4 -2
5 5 1 11 -6 11 -11 0 -24 -12 -15 -11 -16 4 -3 10 7 16 17 13 21 -2 4 3 16 11
26 9 10 12 12 8 4 -5 -10 -1 -9 14 4 18 15 19 22 10 40 -6 11 -7 18 -3 14 10
-9 56 42 48 55 -12 19 -8 52 7 64 10 9 11 12 3 13 -7 0 -12 6 -10 13 1 6 -4
11 -12 9 -12 -3 -12 -1 0 14 9 12 9 15 2 10 -24 -14 -35 5 -18 31 16 24 16 24
-5 13 -20 -10 -21 -10 -11 8 6 11 8 21 6 24 -3 3 2 5 10 5 8 0 12 -4 9 -9 -3
-4 0 -8 5 -8 6 0 11 -7 11 -15 0 -8 7 -15 15 -15 8 0 15 -6 15 -12 0 -9 4 -8
10 2 7 11 10 11 10 2 0 -7 4 -11 10 -7 5 3 6 13 3 22 -4 9 -2 14 3 10 5 -3 10
3 10 14 0 10 -4 19 -8 19 -11 0 -6 23 7 32 6 5 5 8 -4 8 -11 0 -11 3 0 17 8 9
9 14 2 10 -7 -4 -10 -1 -9 10 2 9 9 19 16 21 7 3 10 0 6 -7 -4 -6 -5 -11 -1
-11 3 0 10 12 15 26 6 14 14 23 19 19 6 -3 15 4 21 15 6 11 15 18 20 15 5 -3
12 0 16 6 4 8 3 9 -4 5 -17 -11 -15 19 3 34 8 6 19 9 25 5 6 -4 10 -3 9 2 -4
21 3 31 22 36 14 4 20 11 16 21 -6 16 17 41 31 32 5 -3 7 6 4 20 -6 30 25 59
46 42 9 -8 11 -7 6 6 -7 19 24 48 41 38 5 -3 4 2 -4 11 -12 15 -12 17 4 11 15
-6 16 -4 5 16 -8 15 -8 20 -1 16 6 -4 15 4 21 19 6 15 16 25 23 22 7 -2 26 7
42 20 17 14 23 22 15 18 -8 -3 -6 1 4 9 11 9 23 16 28 16 4 0 7 6 5 13 -1 6 6
11 15 9 13 -2 16 2 11 15 -6 15 -4 16 9 5 13 -10 18 -10 24 -1 4 8 3 9 -4 5
-7 -4 -12 -2 -12 5 0 7 8 9 21 6 16 -4 18 -3 9 8 -8 9 -8 15 0 20 5 3 10 3 10
0 0 -4 7 1 16 9 8 9 20 14 25 11 5 -4 9 -1 9 5 0 6 4 9 9 5 5 -3 12 -1 16 4 3
6 -4 8 -17 6 -21 -4 -22 -3 -5 9 12 10 15 16 7 21 -8 5 -8 11 -1 19 6 7 9 15
7 17 -2 2 10 18 27 34 17 17 24 21 16 11 -10 -14 -10 -18 -1 -12 7 4 19 2 27
-4 8 -7 23 -9 37 -4 21 6 22 6 8 -12 -14 -19 -14 -19 7 0 13 10 20 23 16 29
-3 6 -1 7 5 3 7 -4 21 -1 33 7 15 11 17 16 7 20 -10 4 -9 6 2 7 8 0 24 8 35
16 19 16 19 16 -5 10 -14 -3 -19 -3 -12 0 6 3 10 9 7 14 -3 4 4 6 14 3 20 -5
47 28 33 41 -3 4 2 4 12 0 14 -5 17 -4 12 4 -5 8 0 12 14 12 16 0 20 4 16 16
-4 11 -2 15 8 11 11 -4 13 -1 9 11 -6 15 -5 15 10 3 15 -12 17 -12 11 2 -4 12
-1 15 15 12 12 -2 19 0 16 6 -4 5 -1 9 5 9 6 0 8 4 5 10 -3 6 1 7 10 4 11 -5
14 -2 9 12 -5 16 -4 16 5 4 9 -13 12 -12 24 4 9 12 20 17 30 13 12 -4 14 -2
10 10 -4 10 -2 14 4 10 6 -4 13 0 17 8 3 9 12 12 22 8 13 -5 15 -3 9 8 -8 12
-6 12 8 0 14 -11 18 -11 23 3 5 12 10 14 19 6 16 -14 28 0 13 17 -9 11 -7 12
7 7 14 -6 16 -4 10 6 -6 10 -4 12 8 7 9 -3 21 1 29 11 11 13 11 14 -1 7 -9 -5
-12 -4 -7 3 3 6 16 9 27 7 15 -3 19 0 15 10 -4 11 0 12 20 5 19 -7 23 -7 18 2
-5 7 -2 9 9 5 12 -4 14 -2 10 10 -4 11 -2 14 5 9 7 -4 12 -2 12 4 0 6 5 8 10
5 6 -3 10 -1 10 4 0 6 -5 11 -12 11 -6 0 -9 3 -6 6 4 3 15 1 27 -5 14 -8 22
-8 27 1 5 7 3 8 -6 3 -8 -5 -11 -3 -8 6 3 8 12 13 22 11 9 -2 16 2 16 8 0 5
-4 10 -10 10 -5 0 -10 4 -10 9 0 6 9 8 19 6 11 -2 27 6 38 18 l18 22 -25 -20
-25 -20 20 23 c11 13 27 21 36 19 12 -3 16 0 12 9 -3 9 2 12 17 9 16 -3 19 -1
11 8 -7 9 -7 17 1 27 8 12 9 12 4 -3 -4 -11 -2 -16 5 -11 6 3 9 14 6 24 -3 12
0 17 8 14 7 -3 16 0 20 5 3 6 11 8 17 5 7 -4 8 -2 4 5 -6 9 -11 9 -23 -1 -15
-12 -15 -11 -3 9 8 11 20 19 27 16 9 -4 11 0 6 13 -6 17 -5 17 10 6 14 -12 16
-11 12 8 -2 12 2 23 11 27 8 3 11 10 7 17 -5 7 -1 4 8 -6 15 -15 18 -16 23 -2
3 8 2 12 -4 9 -6 -3 -10 -1 -10 4 0 6 8 11 18 11 15 1 15 2 -3 16 -20 16 -20
16 2 10 12 -4 24 -2 29 5 5 8 3 9 -6 4 -8 -5 -11 -3 -8 6 3 8 10 13 16 12 6
-2 9 4 6 12 -4 11 1 15 17 15 13 0 20 4 14 8 -5 4 -11 14 -13 22 -3 11 3 9 20
-5 16 -14 19 -15 9 -3 -12 17 7 67 21 53 2 -3 5 2 5 10 0 8 -4 15 -9 15 -5 0
-2 7 6 16 21 21 20 35 -1 28 -15 -5 -15 -4 1 6 15 10 20 9 27 -1 5 -8 9 -9 9
-4 0 6 -6 17 -12 24 -8 8 -8 11 -2 8 7 -4 18 1 25 10 10 12 10 14 2 9 -7 -4
-13 -2 -13 3 0 6 5 11 11 11 5 0 7 6 3 13 -5 8 -2 7 9 -2 15 -12 17 -12 11 3
-4 10 1 25 12 38 19 21 19 21 -4 9 -21 -11 -22 -11 -10 8 6 11 16 17 20 15 4
-3 8 0 8 6 0 6 4 9 9 6 5 -3 11 1 15 9 3 8 0 17 -6 21 -7 5 -8 2 -3 -6 6 -9 4
-11 -4 -5 -9 5 -10 10 -2 18 7 7 7 17 -1 31 -10 19 -10 20 6 7 14 -12 16 -12
10 3 -4 9 -1 16 6 16 9 0 9 4 -1 17 -12 14 -12 16 1 11 19 -7 19 54 0 77 -11
13 -10 14 5 9 15 -6 17 -3 13 19 -4 19 -2 24 6 18 8 -6 12 1 13 25 1 24 -2 32
-10 28 -8 -5 -8 -3 1 7 6 7 12 17 12 22 0 4 -6 5 -12 2 -7 -4 -2 3 11 14 21
19 20 26 -1 22 -4 0 -5 6 -1 15 5 13 7 13 14 2 5 -7 9 -11 10 -8 0 3 2 14 5
25 12 57 11 76 -2 71 -7 -3 -16 0 -20 6 -5 7 -3 8 5 4 8 -5 11 -3 10 5 -4 21
11 60 21 54 5 -3 12 0 16 6 4 7 3 9 -4 5 -7 -4 -10 7 -8 31 2 21 -1 48 -5 59
-6 17 -4 21 9 20 18 -1 24 37 10 66 -6 12 -3 20 9 27 11 6 13 11 5 11 -7 0
-10 5 -7 10 4 6 11 8 16 5 5 -3 6 1 3 9 -3 9 -10 13 -15 10 -5 -3 -5 6 1 20 6
17 6 26 -1 26 -6 0 -6 6 1 19 13 26 13 34 -2 26 -7 -4 -5 0 4 8 15 12 16 16 3
34 -13 18 -13 21 1 19 20 -1 38 40 22 50 -7 5 -8 2 -3 -7 5 -8 4 -11 0 -6 -5
4 -10 18 -12 30 -2 15 0 18 6 9 6 -10 10 -7 13 13 3 15 0 32 -9 41 -13 12 -12
14 3 14 10 0 14 3 11 7 -4 3 -1 13 6 21 10 13 9 15 -3 8 -10 -5 -10 -3 2 6 13
11 14 18 5 33 -10 19 -9 19 8 5 17 -14 18 -14 5 10 -12 22 -12 24 2 12 13 -10
18 -8 32 13 12 18 13 25 4 25 -9 0 -9 3 2 9 8 6 18 7 24 4 5 -3 6 -1 2 6 -4 6
-2 19 5 27 15 18 20 54 7 54 -5 0 -6 5 -3 10 3 6 1 10 -6 10 -7 0 -9 3 -6 6 4
4 14 1 23 -7 16 -13 16 -12 5 9 -9 17 -9 22 1 23 7 0 4 4 -7 9 -18 8 -18 9 -2
9 10 1 16 5 13 9 -10 17 -15 62 -5 57 5 -3 6 1 3 10 -5 11 -10 13 -17 6 -5 -5
-17 -7 -26 -4 -13 4 -13 2 2 -10 13 -11 15 -16 5 -19 -7 -3 -13 -20 -13 -39 0
-28 -4 -34 -20 -31 -19 2 -18 1 1 -10 18 -11 20 -15 9 -25 -8 -7 -12 -22 -10
-33 2 -12 0 -18 -6 -15 -5 4 -6 11 -3 17 4 6 2 8 -4 4 -6 -3 -9 -15 -7 -26 2
-12 0 -18 -6 -15 -5 4 -9 13 -9 21 0 11 -6 14 -22 9 -17 -5 -19 -4 -9 3 8 6
12 20 9 35 -3 15 -2 26 1 25 27 -3 32 3 17 24 -11 16 -12 26 -5 41 8 14 8 18
0 13 -6 -4 -11 -2 -11 4 0 6 -4 9 -9 5 -6 -3 -8 4 -6 15 2 11 -1 20 -7 20 -7
0 -5 7 4 18 24 29 40 72 25 72 -8 0 -7 3 3 9 8 6 17 8 21 5 4 -2 10 2 12 8 4
9 6 9 6 1 1 -6 -6 -18 -14 -27 -8 -8 -15 -17 -15 -20 0 -7 23 -3 30 5 3 4 16
9 30 13 23 6 24 6 5 -6 -11 -7 -21 -19 -23 -25 -4 -21 12 -14 31 12 18 25 18
25 -7 35 -17 6 -24 14 -20 25 3 8 10 12 15 9 5 -3 6 2 3 10 -3 9 -11 13 -18 9
-6 -3 -7 -2 -3 3 5 5 13 10 18 10 5 1 12 2 16 3 4 0 -2 8 -13 17 -13 11 -14
14 -3 11 9 -3 16 1 16 9 0 7 -4 11 -9 8 -12 -8 -10 24 4 49 10 19 9 21 -4 9
-13 -10 -18 -10 -24 -1 -4 8 -3 9 4 5 7 -4 12 -1 12 9 0 9 5 13 10 10 6 -3 10
-1 10 5 0 6 5 8 11 5 6 -4 5 3 -3 15 -11 18 -11 23 3 33 9 7 14 17 12 23 -7
22 26 10 36 -13 7 -16 16 -21 24 -16 23 15 33 10 34 -16 1 -36 7 -59 18 -68 4
-4 5 -2 1 5 -4 6 -2 12 3 12 6 0 12 -10 12 -22 1 -19 2 -19 6 -5 3 11 11 16
19 13 7 -3 13 -2 12 2 -3 15 15 42 28 42 8 0 14 6 14 14 0 8 9 18 20 21 11 3
20 11 20 16 0 6 -6 7 -12 3 -7 -5 -3 5 10 20 12 16 19 33 15 39 -3 6 -1 7 6 3
6 -4 9 -12 6 -17 -4 -5 -2 -9 4 -9 5 0 12 14 16 31 5 20 12 29 20 25 9 -3 12
0 8 10 -3 7 -10 14 -17 14 -6 0 -4 5 4 10 11 7 11 10 2 10 -8 0 -10 5 -6 13 5
7 0 6 -11 -3 -11 -9 -16 -10 -11 -2 5 8 1 12 -11 13 -14 0 -15 2 -3 6 8 4 21
13 28 22 9 10 11 11 6 2 -6 -11 -3 -13 12 -7 10 5 25 9 32 9 6 0 12 4 12 9 0
4 6 7 13 6 7 -2 11 6 9 22 -5 49 -1 81 10 74 4 -3 8 2 8 10 0 9 6 16 13 16 7
0 8 3 2 8 -13 9 -18 35 -5 27 5 -3 10 3 10 14 0 11 5 23 10 26 8 5 7 12 -2 23
-11 13 -11 14 1 7 11 -6 13 -3 9 13 -4 12 -3 20 2 17 4 -3 11 2 14 11 4 10 2
13 -7 8 -8 -5 -7 -2 2 9 11 14 11 17 0 17 -12 0 -12 2 0 9 8 5 12 18 8 31 -3
13 0 23 9 27 8 3 14 9 14 15 0 5 -6 6 -12 3 -7 -4 -4 1 6 9 20 16 20 16 0 17
-15 1 -14 3 6 9 21 7 22 8 5 9 -17 1 -17 3 -5 11 8 5 11 10 7 10 -4 0 -3 9 3
20 8 15 8 20 -1 20 -7 0 -8 4 -2 13 5 6 10 25 11 41 1 17 8 33 15 38 9 6 8 8
-3 8 -13 0 -13 1 0 10 11 7 11 10 2 10 -7 0 -10 5 -7 10 4 6 10 8 14 5 5 -2 6
7 3 22 -3 15 -1 24 5 20 11 -7 11 29 0 39 -4 4 -2 13 4 21 9 10 8 13 -1 13 -9
0 -10 3 -1 13 6 8 8 17 4 20 -3 4 -1 7 6 7 7 0 10 4 7 9 -4 5 0 12 6 14 10 4
10 6 0 6 -8 1 -10 6 -5 14 10 16 13 38 4 32 -4 -2 -8 2 -8 10 0 8 4 12 8 9 4
-2 7 5 6 16 -1 11 -6 20 -11 20 -5 0 -2 6 9 13 12 10 14 16 7 21 -7 4 -12 12
-12 17 0 6 6 7 13 3 9 -6 9 -4 -1 8 -9 11 -10 18 -2 23 5 3 10 11 10 16 0 6
-4 8 -9 5 -5 -4 -7 3 -4 14 3 11 10 17 16 13 6 -4 7 -1 1 8 -14 24 -16 51 -2
43 8 -5 7 0 -2 11 -9 11 -10 16 -2 11 6 -4 12 -2 12 3 0 6 -8 11 -17 12 -15 0
-15 2 2 9 11 5 14 9 8 9 -7 1 -13 6 -13 12 0 5 4 8 9 5 5 -3 11 1 14 9 4 9 1
12 -9 8 -10 -4 -12 0 -8 11 3 9 11 13 18 9 6 -3 3 3 -7 14 -14 16 -15 23 -6
29 8 5 10 3 4 -7 -8 -12 -6 -12 8 0 9 7 17 16 17 19 0 3 -3 2 -7 -1 -8 -9 -33
12 -33 27 0 6 4 4 10 -4 6 -10 8 -3 7 23 -1 24 -6 36 -14 32 -7 -2 -15 1 -19
7 -4 6 -3 8 4 4 17 -10 20 18 3 32 -13 11 -13 12 -1 6 10 -5 9 -1 -3 14 -11
11 -16 26 -12 32 3 6 1 9 -7 8 -7 -2 -12 3 -10 10 1 8 -2 11 -7 8 -5 -3 -14 1
-21 9 -9 11 -17 12 -31 4 -15 -7 -19 -6 -19 6 0 9 -9 15 -21 15 -19 0 -20 2
-8 17 10 11 10 14 2 9 -8 -4 -13 -1 -13 9 0 10 -5 13 -12 9 -8 -5 -7 0 2 11 9
11 10 16 3 11 -7 -4 -14 -2 -14 3 -1 6 -3 16 -4 21 -1 6 -3 15 -4 20 0 6 -8
10 -17 10 -9 0 -12 5 -8 12 5 8 2 9 -10 5 -14 -6 -17 -3 -12 9 5 13 4 14 -7 6
-8 -7 -17 -9 -20 -5 -4 3 -7 0 -7 -8 -1 -10 -4 -9 -11 4 -9 15 -13 16 -27 5
-9 -7 -13 -8 -9 -2 3 6 -1 11 -9 11 -8 0 -13 -6 -10 -13z m-5539 -6342 c3 -8
3 -17 0 -20 -3 -3 -5 0 -5 6 0 7 -5 12 -12 12 -6 0 -8 -3 -5 -7 4 -3 0 -15
-10 -25 -16 -17 -7 -26 13 -10 5 4 4 1 -2 -6 -9 -11 -17 -11 -32 -3 -28 15
-37 14 -23 -3 9 -10 8 -15 -3 -19 -10 -4 -13 -1 -10 8 4 9 -1 12 -13 10 -10
-2 -24 -4 -31 -4 -7 -1 -11 -5 -7 -11 3 -5 12 -7 20 -3 8 3 15 0 15 -7 0 -6
-4 -8 -10 -5 -5 3 -10 1 -10 -4 0 -6 4 -11 9 -11 5 0 12 -8 15 -17 4 -11 -4
-7 -19 10 -15 17 -25 23 -25 14 0 -8 7 -20 15 -27 8 -7 15 -17 15 -23 0 -6 -7
-1 -16 11 -19 28 -39 30 -24 3 7 -14 7 -22 -2 -27 -7 -5 -8 -3 -4 5 5 8 3 12
-5 10 -26 -3 -37 1 -43 17 -3 8 -2 12 3 9 5 -3 12 -1 16 5 3 5 0 11 -7 11 -7
1 -17 2 -23 4 -5 1 -14 3 -19 3 -5 1 -2 9 5 19 12 14 12 16 -1 11 -8 -2 -20
-15 -26 -27 l-11 -22 -6 22 c-3 12 -1 31 4 41 5 10 7 24 3 30 -4 7 -3 8 4 4 7
-4 12 0 13 11 1 17 2 17 6 1 5 -21 8 -21 34 -8 13 7 25 8 37 1 9 -6 11 -11 5
-11 -9 0 -8 -6 4 -19 12 -15 21 -17 34 -10 10 5 22 8 26 7 10 -3 58 30 58 40
0 4 6 5 14 4 7 -2 11 1 7 6 -3 5 1 9 9 9 8 0 17 -7 20 -15z"/>
<path d="M3080 7840 c0 -4 -13 -7 -29 -6 -17 1 -27 -2 -24 -8 4 -5 -1 -7 -10
-3 -9 3 -19 2 -23 -4 -3 -6 -12 -8 -20 -5 -8 3 -14 0 -14 -6 0 -6 -3 -9 -6 -5
-4 3 -21 0 -38 -7 -34 -14 -41 -16 -56 -16 -5 0 -10 -8 -10 -17 0 -10 -4 -14
-8 -8 -9 13 -30 11 -67 -5 -16 -7 -36 -12 -42 -11 -7 1 -13 -3 -13 -10 0 -9
-3 -9 -14 0 -11 9 -16 9 -22 0 -5 -8 -3 -10 7 -4 8 5 11 4 6 0 -11 -13 -47
-13 -47 -1 0 6 -5 5 -12 -2 -9 -9 -15 -9 -27 1 -12 10 -13 9 -6 -2 6 -11 3
-13 -13 -9 -15 4 -22 2 -22 -8 0 -8 -5 -14 -11 -14 -5 0 -8 4 -5 8 3 5 -1 9
-9 9 -8 0 -15 -4 -15 -8 0 -4 -14 -5 -31 -2 -24 3 -29 2 -23 -9 6 -10 5 -11
-7 -2 -17 14 -72 9 -77 -6 -3 -7 -9 -7 -20 2 -12 10 -14 10 -8 1 5 -9 -1 -12
-23 -9 -17 2 -31 -1 -31 -5 0 -5 5 -9 12 -9 6 0 9 -2 6 -5 -10 -10 -38 7 -31
19 3 6 -4 2 -17 -9 -14 -12 -20 -14 -15 -5 6 12 5 13 -6 3 -16 -16 -33 -17
-23 -2 5 8 1 8 -14 0 -11 -6 -22 -14 -24 -18 -3 -5 -3 -2 -1 6 2 8 -2 11 -11
8 -7 -3 -19 0 -26 6 -10 9 -11 9 -6 0 4 -8 2 -13 -6 -14 -7 0 -20 -2 -28 -4
-57 -12 -70 -13 -70 -2 0 8 -3 7 -9 -2 -5 -7 -14 -10 -20 -7 -6 4 -11 0 -12
-11 0 -16 -1 -16 -9 2 -5 11 -9 14 -9 6 -1 -10 -4 -11 -15 -2 -11 9 -16 9 -22
0 -4 -8 -3 -9 4 -5 8 5 10 1 5 -10 -6 -15 -7 -15 -15 0 -8 14 -13 15 -24 5
-11 -9 -14 -8 -14 2 0 9 -3 10 -8 4 -4 -5 -29 -10 -55 -10 -27 0 -51 -3 -54
-8 -2 -4 -8 -5 -13 -2 -5 3 -12 0 -16 -6 -5 -8 -3 -9 6 -4 9 6 11 4 6 -4 -6
-9 -12 -8 -26 4 -12 11 -20 13 -25 5 -4 -6 -14 -10 -23 -9 -33 3 -43 -1 -36
-13 5 -8 0 -7 -11 2 -17 14 -17 13 -10 -9 l7 -23 -21 21 c-25 25 -46 28 -37 5
5 -13 3 -14 -6 -7 -18 14 -118 9 -128 -7 -6 -10 -9 -9 -13 1 -5 12 -6 12 -6 0
-1 -11 -4 -11 -16 -1 -12 10 -15 10 -15 0 0 -8 -3 -10 -7 -7 -3 4 -13 1 -21
-6 -11 -8 -14 -8 -9 0 4 6 3 14 -3 18 -5 3 -10 1 -10 -6 0 -8 -5 -7 -17 2 -15
12 -16 12 -10 -3 5 -15 2 -16 -18 -8 -17 7 -25 6 -25 -1 0 -7 -6 -6 -17 2 -9
8 -14 9 -10 3 4 -7 0 -15 -9 -18 -8 -3 -13 -2 -10 2 3 5 -1 9 -9 9 -8 0 -12
-4 -9 -9 3 -4 0 -8 -5 -8 -6 0 -11 5 -11 11 0 8 -6 7 -17 -2 -15 -12 -16 -12
-8 1 8 13 6 13 -8 2 -14 -12 -19 -12 -33 2 -14 14 -34 14 -34 0 0 -3 4 -3 9 1
5 3 12 2 15 -3 2 -4 -6 -8 -20 -8 -16 0 -23 5 -20 13 3 7 0 15 -6 19 -7 5 -8
3 -3 -5 5 -9 0 -12 -16 -9 -13 2 -30 -4 -37 -12 -10 -13 -11 -12 -5 4 4 13 3
17 -5 12 -7 -4 -12 -1 -13 6 0 7 -4 4 -9 -7 -8 -19 -9 -19 -9 3 -1 19 -5 22
-32 17 -19 -4 -28 -2 -24 5 5 9 -15 15 -37 11 -5 0 -8 4 -8 10 0 8 -4 8 -12 1
-15 -11 -42 10 -30 24 4 4 1 4 -6 0 -9 -6 -10 -11 -3 -20 8 -9 7 -13 -4 -13
-8 0 -13 3 -10 5 3 3 -3 11 -13 19 -9 8 -11 11 -3 7 10 -5 12 -3 7 5 -5 7 -14
10 -21 7 -7 -2 -18 1 -24 7 -10 9 -12 9 -9 -3 2 -8 -3 -14 -11 -12 -8 2 -11
-3 -8 -12 3 -8 1 -17 -6 -20 -8 -3 -8 -5 2 -5 11 -1 11 -4 0 -18 -8 -9 -9 -14
-4 -11 6 3 16 -1 23 -8 11 -12 10 -14 -11 -10 -13 2 -24 -1 -25 -7 0 -7 -3
-21 -6 -32 -2 -11 -5 -26 -5 -32 -1 -7 -6 -13 -12 -13 -5 0 -7 6 -3 13 5 8 2
8 -9 -2 -9 -7 -17 -22 -17 -32 0 -11 -5 -19 -11 -19 -5 0 -7 5 -4 10 3 6 1 10
-4 10 -6 0 -11 -3 -11 -7 0 -5 -11 -9 -25 -9 -15 -1 -22 2 -18 9 3 6 1 7 -6 3
-6 -4 -9 -11 -6 -16 3 -5 1 -11 -5 -15 -5 -3 -10 1 -10 10 0 10 -5 14 -12 11
-7 -3 -21 -9 -30 -12 -16 -6 -22 -17 -19 -36 0 -4 -6 -5 -14 -2 -11 5 -13 2
-8 -12 4 -12 3 -15 -5 -10 -7 4 -13 2 -13 -3 -1 -6 -2 -16 -3 -21 0 -6 -6 -14
-11 -18 -18 -12 -17 -36 1 -49 22 -16 45 -17 42 -2 -2 6 4 14 12 16 13 4 13 3
0 -6 -8 -6 -11 -11 -6 -11 5 0 2 -7 -5 -17 -13 -15 -12 -15 9 -4 12 6 22 7 22
2 0 -5 -6 -11 -12 -14 -7 -3 11 -3 40 -2 41 2 51 0 43 -9 -8 -9 -7 -13 4 -13
8 0 12 4 9 9 -3 4 0 8 6 8 12 0 -6 40 -23 51 -5 4 -6 13 -1 20 12 19 16 51 5
45 -17 -11 -33 46 -17 62 15 16 51 9 41 -8 -3 -6 1 -7 10 -4 10 4 14 13 11 23
-5 13 -4 13 7 -1 13 -17 15 -16 26 5 12 22 9 9 -5 -28 -7 -18 -6 -18 9 -7 17
15 20 13 72 -34 13 -12 27 -19 32 -15 4 3 2 -1 -5 -10 -7 -9 -10 -25 -6 -35 5
-15 4 -16 -4 -5 -9 13 -13 13 -29 0 -16 -13 -17 -13 -4 4 17 21 -2 23 -23 1
-15 -15 -22 -8 -17 19 1 5 -4 5 -10 1 -7 -4 -9 -3 -5 4 3 6 2 13 -3 16 -17 11
-22 -12 -5 -28 8 -9 12 -16 8 -16 -3 0 0 -8 7 -17 7 -10 10 -15 5 -11 -5 4
-17 3 -27 -3 -27 -14 -8 -50 22 -44 12 3 19 1 15 -2 -14 -14 -37 -10 -49 8 -8
10 -17 16 -20 12 -11 -11 -8 -23 6 -21 6 2 11 -2 10 -9 -2 -7 6 -10 17 -8 11
2 22 0 25 -5 8 -13 36 0 29 14 -3 6 2 2 12 -9 16 -20 16 -20 11 3 -3 12 -1 20
3 17 5 -3 11 -1 15 5 4 7 13 6 27 -1 14 -8 18 -8 14 0 -5 7 3 10 23 7 40 -4
43 1 25 35 -8 16 -12 29 -9 29 3 0 -3 10 -14 22 -11 11 -18 25 -15 30 3 4 -3
8 -13 8 -10 0 -30 11 -45 24 -14 14 -30 22 -34 18 -5 -4 -2 2 6 13 21 30 24
32 17 14 -6 -19 28 -55 58 -61 11 -2 20 -10 20 -17 0 -8 6 -16 14 -19 8 -3 11
0 8 6 -4 5 0 15 8 22 9 8 13 21 10 34 -5 17 -4 18 4 6 10 -13 12 -13 22 0 9
13 10 12 5 -2 -5 -18 6 -32 18 -21 11 11 36 12 36 2 0 -6 -8 -9 -17 -7 -11 2
-19 -5 -21 -17 -2 -13 0 -16 5 -8 6 9 12 7 20 -7 10 -14 9 -19 -2 -24 -8 -3
-12 -12 -9 -21 3 -8 2 -15 -4 -15 -11 0 -10 25 1 36 13 13 7 27 -6 15 -10 -8
-19 -7 -33 5 -10 8 -14 13 -7 10 17 -9 28 13 14 27 -9 9 -10 7 -5 -7 4 -12 4
-17 -2 -13 -26 16 -35 -11 -10 -31 27 -21 33 -37 16 -47 -6 -4 -7 1 -3 11 5
13 3 15 -7 9 -8 -5 -11 -4 -7 2 4 6 0 16 -8 23 -13 11 -15 10 -11 -6 9 -41 19
-64 28 -64 5 0 6 -5 2 -12 -4 -7 -3 -8 4 -4 7 4 12 13 12 21 0 8 8 13 18 13 9
0 22 0 27 2 19 5 36 0 31 -9 -3 -5 1 -11 9 -14 9 -4 12 -1 8 9 -5 12 7 19 29
15 5 0 8 3 8 7 0 17 -13 21 -32 11 -13 -7 -23 -7 -32 0 -7 6 -16 8 -19 4 -4
-3 -7 -1 -7 5 0 15 17 16 25 2 9 -15 25 -12 25 4 0 8 5 18 12 22 7 5 9 2 5 -8
-7 -20 21 -18 34 3 7 12 9 12 9 -1 0 -13 2 -13 11 0 9 13 10 12 5 -2 -3 -11 2
-22 14 -28 11 -6 20 -16 19 -23 0 -9 -2 -9 -6 1 -2 6 -9 10 -14 6 -5 -3 -9 0
-9 6 0 6 -9 4 -23 -5 -13 -8 -27 -12 -30 -8 -4 3 -7 1 -7 -5 0 -15 6 -15 30
-2 13 7 19 6 24 -6 4 -9 13 -14 21 -10 8 3 15 1 15 -3 0 -11 24 -9 28 3 2 4 0
11 -4 14 -4 4 -4 0 1 -8 5 -9 5 -12 -1 -7 -12 12 -12 30 1 39 5 4 0 8 -12 8
-12 0 -25 5 -29 12 -5 8 0 9 15 5 19 -5 20 -3 9 11 -8 9 -8 13 -1 9 6 -4 14
-1 17 5 4 9 5 8 5 -2 -3 -46 11 -52 18 -7 5 29 19 42 19 17 0 -11 -4 -20 -9
-20 -4 0 -2 -6 5 -14 15 -16 29 -12 24 7 -1 7 -1 9 1 4 3 -4 9 -5 13 -2 5 3
12 0 16 -6 5 -8 3 -9 -5 -4 -7 4 -5 -5 5 -21 11 -15 13 -25 7 -21 -36 22 -59
15 -54 -16 1 -5 -3 -6 -9 -2 -5 3 -10 2 -10 -3 0 -6 12 -10 28 -9 52 0 63 -3
56 -15 -6 -10 -4 -10 7 -2 16 12 29 12 46 1 9 -5 11 -3 7 6 -3 8 0 18 7 23 8
4 10 3 5 -4 -4 -7 -2 -12 4 -12 6 0 9 -4 6 -9 -8 -12 25 -8 52 7 22 13 23 12
12 -9 -12 -21 -11 -21 10 -6 22 16 56 11 105 -15 16 -8 18 -8 8 3 -19 19 -16
34 4 18 11 -10 14 -10 9 -1 -4 6 -2 12 3 12 6 0 11 -4 11 -9 0 -5 7 -12 16
-15 10 -4 13 -2 8 6 -5 8 -2 9 9 5 9 -3 19 -2 22 3 4 6 12 10 18 10 7 0 6 -4
-3 -10 -16 -10 -12 -11 68 -10 18 0 31 -3 28 -8 -3 -5 1 -9 8 -9 8 0 12 7 9
16 -3 11 0 10 11 -3 16 -20 16 -20 17 0 0 16 2 16 10 -5 8 -19 12 -21 24 -11
10 9 15 9 15 1 0 -6 5 -11 11 -11 5 0 7 4 4 10 -3 6 1 7 9 4 9 -3 13 -11 9
-18 -3 -6 -1 -6 8 2 15 14 33 16 25 3 -3 -5 1 -11 9 -15 8 -3 17 0 21 6 4 7 3
8 -4 4 -7 -4 -12 -2 -12 4 0 7 7 9 16 6 9 -3 17 -6 20 -6 2 0 1 -8 -2 -17 -4
-11 -2 -14 3 -8 13 16 45 18 55 3 8 -10 9 -10 5 2 -3 10 2 16 13 16 10 0 16
-4 14 -8 -3 -4 4 -8 16 -8 12 0 18 4 15 10 -8 13 28 0 37 -14 5 -7 8 -7 8 2 0
6 9 12 21 12 13 0 18 -4 13 -12 -5 -9 -2 -9 9 1 15 12 17 11 17 -2 0 -11 5
-14 17 -10 11 4 14 3 9 -5 -4 -7 4 -6 20 3 21 11 32 11 48 3 20 -10 20 -10 6
7 -14 17 -14 18 8 6 12 -6 22 -9 22 -5 0 3 7 1 15 -6 9 -7 18 -10 22 -6 3 3 1
6 -5 6 -7 0 -12 5 -12 11 0 5 4 8 9 4 5 -3 12 5 14 17 4 19 5 18 6 -6 1 -20 5
-27 16 -22 8 3 14 0 12 -6 -1 -6 9 -12 23 -13 14 -1 36 -5 49 -9 18 -6 22 -5
16 5 -6 9 -2 8 11 -2 32 -27 44 -32 38 -15 -3 9 -11 13 -17 9 -6 -4 -7 -1 -2
7 6 10 14 6 33 -16 17 -18 23 -22 19 -10 -6 16 -5 17 8 6 8 -7 15 -9 15 -4 0
5 7 0 15 -10 8 -11 15 -14 15 -8 0 9 5 10 18 3 13 -7 23 -6 31 2 14 14 43 16
53 2 5 -6 8 -5 8 3 0 7 5 10 10 7 6 -3 10 -2 10 3 0 5 10 8 23 7 12 -1 27 2
34 7 7 5 17 7 23 3 5 -3 10 -1 10 4 0 6 7 11 15 11 8 0 15 4 15 9 0 5 10 7 22
3 13 -3 19 -1 15 5 -4 6 -1 13 7 16 10 4 13 -1 12 -17 -2 -13 3 -23 10 -23 6
0 10 6 7 13 -2 6 1 15 6 19 6 3 9 11 6 16 -4 5 -1 9 5 9 7 0 9 -8 4 -22 -6
-20 -5 -21 10 -9 9 8 16 9 16 3 0 -6 9 -9 20 -7 12 2 18 0 15 -6 -4 -5 -10 -7
-15 -4 -4 3 -11 -2 -14 -10 -4 -12 -2 -13 13 -6 10 6 21 7 25 4 3 -3 6 -1 6 5
0 7 5 12 11 12 5 0 7 -4 4 -10 -3 -5 -3 -10 2 -11 48 -5 74 -4 94 4 31 13 70
16 63 6 -2 -4 0 -11 6 -14 6 -4 10 -3 9 2 -4 21 2 47 9 38 8 -12 44 -17 37 -5
-3 4 23 6 56 4 55 -2 59 -1 47 14 -12 16 -11 16 7 0 13 -11 25 -14 34 -8 8 4
22 7 32 5 10 -2 21 0 24 6 8 12 41 -5 48 -24 4 -12 -1 -13 -29 -7 -22 5 -34 4
-34 -3 0 -6 -7 -2 -15 9 -15 18 -15 18 -8 0 4 -14 3 -17 -6 -12 -6 4 -19 2
-28 -6 -12 -9 -15 -9 -9 0 4 6 2 12 -3 12 -6 0 -11 -4 -11 -9 0 -10 -19 -9
-36 2 -7 4 -14 0 -18 -8 -3 -8 -13 -15 -21 -15 -9 0 -14 -4 -11 -8 3 -5 -1 -9
-8 -9 -9 0 -12 7 -9 16 4 10 0 9 -10 -4 -8 -11 -13 -23 -11 -27 3 -4 -2 -5
-10 -2 -9 3 -13 11 -9 17 3 6 1 7 -6 3 -9 -6 -9 -11 1 -24 7 -9 8 -13 3 -10
-22 13 -61 -48 -56 -86 2 -11 -2 -16 -8 -12 -7 4 -8 1 -5 -8 3 -9 11 -13 18
-9 7 4 7 2 -1 -7 -13 -14 5 -40 27 -40 6 0 13 -7 16 -15 4 -8 10 -12 15 -9 5
3 9 0 9 -7 0 -7 3 -10 6 -6 4 3 15 -4 26 -16 11 -12 17 -15 13 -7 -4 10 -2 9
8 -2 8 -10 17 -15 20 -11 4 3 7 1 7 -6 0 -7 5 -9 13 -5 7 5 6 0 -3 -11 -9 -11
-10 -16 -2 -11 6 4 12 2 12 -3 0 -6 7 -11 16 -11 8 0 13 -4 10 -9 -3 -5 1 -11
9 -15 8 -3 14 -2 13 2 -4 22 17 42 44 42 26 0 29 -3 23 -22 -4 -15 -3 -19 3
-10 16 23 44 3 38 -27 l-6 -26 16 25 c8 14 13 18 11 9 -6 -19 29 -53 45 -43 7
5 8 2 3 -6 -6 -10 -4 -12 8 -7 9 3 16 3 16 -1 -3 -20 2 -32 15 -32 8 0 17 -6
19 -12 4 -8 6 -7 6 4 1 19 29 18 42 -3 7 -12 9 -12 9 1 1 12 3 11 11 -2 5 -10
15 -18 20 -18 6 0 7 5 3 11 -5 8 -1 8 13 0 11 -6 24 -7 28 -3 5 4 5 2 2 -5 -9
-15 21 -45 36 -36 6 4 8 0 4 -10 -3 -9 -1 -19 5 -23 7 -4 8 -3 4 4 -10 17 3
15 21 -4 9 -8 22 -13 30 -10 9 4 17 -1 20 -14 5 -18 15 -24 36 -21 4 0 7 -5 7
-13 0 -9 7 -12 23 -9 18 4 19 3 7 -6 -8 -6 -10 -11 -4 -11 6 0 14 3 18 7 10
11 37 12 30 2 -3 -5 -10 -6 -16 -3 -6 4 -8 2 -5 -4 4 -5 17 -8 30 -5 16 3 18
2 8 -5 -9 -7 -10 -12 -2 -16 6 -4 11 -4 11 0 0 4 9 -1 20 -11 12 -10 18 -25
15 -32 -2 -8 -1 -11 4 -8 5 3 12 -4 16 -15 4 -11 10 -18 15 -15 4 2 10 -9 14
-26 4 -20 10 -28 18 -23 8 5 9 2 5 -9 -3 -9 -3 -16 1 -16 21 3 32 -3 32 -17 0
-9 9 -18 20 -21 11 -3 20 -12 20 -19 0 -8 7 -14 15 -14 8 0 24 -9 34 -19 11
-11 22 -16 26 -13 3 4 10 0 15 -8 6 -9 10 -10 10 -3 0 6 9 11 20 10 11 -1 19
-6 16 -12 -2 -6 4 -11 14 -11 10 0 17 3 14 7 -8 13 54 4 72 -11 10 -9 15 -10
10 -3 -5 9 -2 11 8 7 9 -3 14 -10 11 -14 -2 -4 14 -5 36 -3 27 3 39 2 35 -5
-8 -14 18 -9 38 7 13 11 17 11 22 -4 5 -13 9 -14 15 -3 7 10 9 10 9 1 0 -7 5
-13 11 -13 5 0 8 3 5 8 -6 10 67 8 84 -3 8 -5 11 -4 6 3 -10 16 9 23 37 13 14
-5 28 -7 32 -3 4 4 12 7 18 7 7 1 11 7 9 14 -2 8 3 11 13 8 8 -4 15 -1 15 5 0
7 7 3 15 -8 15 -18 15 -18 8 0 -4 13 -3 17 5 12 7 -4 12 -2 12 3 0 6 5 11 11
11 5 0 7 -6 3 -12 -4 -7 5 0 21 15 16 15 35 25 42 23 9 -4 11 -1 7 6 -5 7 -2
9 9 5 11 -4 14 -2 10 9 -3 8 1 14 10 14 8 0 18 7 21 16 3 8 11 12 16 9 6 -4
10 -3 9 2 -4 22 3 32 20 28 14 -3 18 1 14 11 -3 8 0 14 7 14 6 0 8 4 5 10 -3
6 1 7 9 4 9 -3 16 -1 16 6 0 6 4 8 10 5 6 -4 7 1 3 11 -5 13 -3 15 7 9 10 -6
12 -4 7 9 -4 9 -3 15 2 12 8 -5 19 11 21 32 1 4 9 16 18 26 9 11 11 16 5 12
-9 -5 -11 -2 -7 8 3 8 13 12 22 9 14 -4 15 -3 2 5 -12 9 -12 14 0 38 8 14 13
38 12 51 -2 16 0 23 7 19 6 -4 8 2 6 14 -2 13 2 23 11 27 12 4 13 8 3 14 -14
8 -16 89 -3 110 4 7 3 9 -3 6 -6 -4 -14 0 -17 9 -3 8 -2 12 4 9 5 -3 8 4 7 15
-1 11 -5 20 -10 20 -5 0 -3 8 4 17 8 9 9 14 3 10 -15 -9 -20 7 -19 60 0 23 -3
39 -7 37 -8 -5 -10 4 -11 43 0 12 -4 20 -8 17 -5 -3 -9 0 -9 6 0 6 -4 9 -8 6
-5 -3 -9 1 -9 9 0 8 5 11 11 8 6 -4 2 3 -8 15 -11 12 -16 22 -12 22 4 0 0 7
-9 16 -9 9 -13 24 -10 32 3 9 3 13 -1 10 -8 -8 -34 14 -27 25 2 4 -1 7 -7 7
-6 0 -8 5 -5 10 3 6 -1 10 -10 10 -9 0 -13 5 -10 10 3 6 1 10 -4 10 -6 0 -10
6 -9 13 2 6 -3 11 -9 9 -7 -1 -13 7 -13 19 0 11 -4 18 -9 14 -6 -3 -15 3 -20
14 -6 11 -19 18 -28 17 -10 -2 -21 1 -24 7 -4 5 -20 10 -37 10 -17 1 -28 5
-26 9 5 7 -3 9 -22 7 -3 0 -14 9 -24 21 -13 15 -19 17 -23 8 -3 -8 -6 -6 -6 6
-1 11 -6 16 -15 13 -8 -3 -16 -1 -18 4 -2 5 -13 11 -26 12 -12 0 -22 7 -22 15
0 7 -6 12 -12 9 -7 -2 -22 3 -32 12 -16 13 -18 13 -11 1 6 -10 2 -10 -12 3
-19 17 -50 28 -84 30 -9 1 -15 7 -12 14 3 7 -2 13 -11 13 -9 0 -16 5 -16 11 0
6 -7 9 -15 5 -8 -3 -14 -2 -14 2 4 22 -3 34 -15 29 -10 -4 -12 0 -8 16 3 12 1
19 -3 15 -4 -4 -13 -1 -19 8 -6 8 -21 16 -33 16 -12 1 -19 7 -16 14 2 7 -1 15
-8 20 -8 4 -10 3 -5 -4 4 -7 2 -12 -3 -12 -6 0 -11 5 -11 11 0 5 -4 7 -10 4
-5 -3 -10 -1 -10 5 0 6 -4 8 -10 5 -5 -3 -10 -2 -10 2 0 8 -19 13 -62 16 -10
1 -18 5 -18 10 0 4 -4 5 -10 2 -5 -3 -10 -1 -10 6 0 6 -8 9 -20 6 -11 -3 -23
-1 -26 4 -3 5 -16 9 -29 9 -13 0 -27 5 -30 10 -5 8 -11 8 -20 0 -9 -8 -14 -8
-17 1 -2 7 -13 13 -24 14 -10 1 -27 5 -36 9 -9 4 -22 5 -28 1 -5 -3 -10 -1
-10 5 0 7 -6 10 -14 7 -7 -3 -19 0 -25 6 -6 6 -11 8 -11 4 0 -4 -16 -1 -35 7
-25 11 -35 12 -35 3 0 -8 -3 -8 -12 1 -7 7 -20 12 -30 12 -10 0 -18 4 -18 9 0
5 -9 7 -20 4 -13 -3 -22 1 -26 12 -5 13 -9 14 -15 4 -6 -10 -12 -8 -27 9 -18
21 -39 31 -28 14 2 -4 -4 -8 -14 -8 -10 0 -17 4 -14 7 2 4 0 10 -6 14 -5 3
-10 1 -10 -5 0 -8 -6 -7 -21 1 -15 8 -19 8 -15 0 10 -16 0 -13 -18 5 -15 14
-16 14 -16 -2 0 -14 -2 -15 -17 -3 -11 9 -14 10 -9 2 5 -9 -1 -12 -23 -9 -17
2 -28 -1 -25 -5 3 -5 1 -9 -5 -9 -5 0 -13 5 -16 10 -4 6 -11 8 -16 4 -5 -3
-16 0 -24 6 -12 10 -15 9 -16 -6 0 -18 -1 -18 -9 1 -5 12 -9 14 -9 6 -1 -11
-5 -10 -16 5 -11 14 -17 16 -23 7 -5 -8 -13 -9 -22 -3 -9 5 -19 5 -26 -1 -8
-7 -14 -6 -19 1 -5 8 -10 8 -20 0 -9 -8 -15 -8 -20 0 -4 6 -13 7 -23 2 -20
-10 -33 -10 -47 0 -6 4 -17 3 -24 -2 -8 -4 -27 -4 -42 0 -16 5 -29 5 -29 0z
m1050 -745 c8 1 21 -4 29 -9 11 -8 13 -8 8 0 -4 7 0 14 7 17 11 4 13 0 11 -15
-3 -15 -1 -18 6 -11 8 8 21 4 46 -13 20 -13 40 -21 46 -17 6 3 7 1 3 -6 -4 -6
-2 -18 4 -26 6 -8 9 -18 6 -24 -3 -5 3 -20 15 -32 l20 -24 -17 28 c-15 25 -15
27 0 27 10 0 15 -4 11 -9 -3 -5 4 -16 15 -24 11 -7 17 -17 13 -20 -3 -4 -3 -7
1 -7 3 0 10 9 14 20 7 19 8 19 20 -1 8 -12 9 -18 4 -15 -5 3 -16 -2 -23 -11
-12 -14 -12 -16 1 -8 21 13 49 13 47 1 -1 -6 4 -10 10 -9 7 2 12 -3 10 -10 -1
-6 4 -11 11 -9 8 1 11 -2 8 -7 -7 -11 18 -63 27 -56 4 3 5 2 2 -1 -2 -4 0 -14
5 -23 5 -10 5 -23 0 -30 -6 -11 -10 -9 -19 6 -5 11 -9 22 -8 24 2 2 -11 17
-27 32 -16 16 -26 21 -23 13 9 -24 -8 -19 -27 7 -16 22 -16 22 -6 0 14 -30 13
-31 -15 -28 -14 2 -25 -2 -25 -8 0 -7 -5 -5 -10 3 -6 10 -10 11 -10 3 0 -7 -7
-13 -17 -13 -14 0 -14 3 3 22 12 15 13 18 3 10 -13 -10 -19 -9 -30 5 -12 15
-12 16 1 8 12 -6 13 -5 3 6 -7 7 -13 20 -13 29 0 8 -14 21 -30 28 -18 9 -27
18 -23 25 4 7 -1 6 -10 -2 -11 -9 -17 -9 -17 -2 0 6 -16 10 -38 9 -43 -1 -62
7 -62 27 0 7 -7 15 -15 19 -8 3 -15 13 -15 22 0 14 -2 15 -17 3 -15 -13 -15
-12 -3 8 8 12 19 19 25 15 5 -3 4 1 -2 9 -10 12 -10 18 -1 27 16 16 31 15 22
0 -4 -8 -3 -10 2 -5 5 5 10 13 10 18 3 22 5 23 12 14 4 -6 14 -10 22 -10z"/>
</g>
</svg>
